<?xml version="1.0" encoding="UTF-8" standalone="no"?>
<!DOCTYPE svg PUBLIC "-//W3C//DTD SVG 1.1//EN"
 "http://www.w3.org/Graphics/SVG/1.1/DTD/svg11.dtd">
<!-- Generated by graphviz version 10.0.1 (20240210.2158)
 -->
<!-- Title: ND Pages: 1 -->
<svg width="699pt" height="414pt"
 viewBox="0.00 0.00 699.38 414.00" xmlns="http://www.w3.org/2000/svg" xmlns:xlink="http://www.w3.org/1999/xlink">
<g id="graph0" class="graph" transform="scale(1 1) rotate(0) translate(4 410)">
<title>ND</title>
<polygon fill="white" stroke="none" points="-4,4 -4,-410 695.38,-410 695.38,4 -4,4"/>
<!-- n_0_1_2_3_4_5_6 -->
<g id="node1" class="node">
<title>n_0_1_2_3_4_5_6</title>
<polygon fill="none" stroke="black" points="408.38,-342 408.38,-401 478.62,-401 478.62,-342 408.38,-342"/>
<text text-anchor="start" x="420.62" y="-386.45" font-family="Times New Roman,serif" font-weight="bold" font-size="9.00">Primary (P)</text>
<text text-anchor="start" x="424.38" y="-377.45" font-family="Times New Roman,serif" font-weight="bold" font-size="9.00">Preschool</text>
<text text-anchor="start" x="416.12" y="-368.45" font-family="Times New Roman,serif" font-weight="bold" font-size="9.00">Secondary (P)</text>
<text text-anchor="start" x="415.38" y="-359.45" font-family="Times New Roman,serif" font-weight="bold" font-size="9.00">Secondary (G)</text>
<text text-anchor="start" x="424" y="-350.45" font-family="Times New Roman,serif" font-weight="bold" font-size="9.00">Technical</text>
<polygon fill="none" stroke="black" points="478.62,-342 478.62,-401 539.88,-401 539.88,-342 478.62,-342"/>
<text text-anchor="start" x="485.62" y="-372.95" font-family="Times New Roman,serif" font-weight="bold" font-size="9.00">Primary (G)</text>
<text text-anchor="start" x="489" y="-363.95" font-family="Times New Roman,serif" font-weight="bold" font-size="9.00">University</text>
<polygon fill="none" stroke="black" points="407.38,-341 407.38,-402 540.88,-402 540.88,-341 407.38,-341"/>
</g>
<!-- n_0_2_3_4_5 -->
<g id="node2" class="node">
<title>n_0_2_3_4_5</title>
<polygon fill="none" stroke="black" points="324.12,-248 324.12,-289 394.38,-289 394.38,-248 324.12,-248"/>
<text text-anchor="start" x="331.88" y="-274.45" font-family="Times New Roman,serif" font-weight="bold" font-size="9.00">Secondary (P)</text>
<text text-anchor="start" x="331.12" y="-265.45" font-family="Times New Roman,serif" font-weight="bold" font-size="9.00">Secondary (G)</text>
<text text-anchor="start" x="339.75" y="-256.45" font-family="Times New Roman,serif" font-weight="bold" font-size="9.00">Technical</text>
<polygon fill="none" stroke="black" points="394.38,-248 394.38,-289 454.12,-289 454.12,-248 394.38,-248"/>
<text text-anchor="start" x="401.38" y="-269.95" font-family="Times New Roman,serif" font-weight="bold" font-size="9.00">Primary (P)</text>
<text text-anchor="start" x="405.12" y="-260.95" font-family="Times New Roman,serif" font-weight="bold" font-size="9.00">Preschool</text>
<polygon fill="none" stroke="black" points="323.12,-247 323.12,-290 455.12,-290 455.12,-247 323.12,-247"/>
</g>
<!-- n_0_1_2_3_4_5_6&#45;&gt;n_0_2_3_4_5 -->
<g id="edge1" class="edge">
<title>n_0_1_2_3_4_5_6&#45;&gt;n_0_2_3_4_5</title>
<path fill="none" stroke="black" d="M446.06,-337.15C436.67,-326 426.22,-313.58 416.86,-302.45"/>
<polygon fill="black" stroke="black" points="419.72,-300.42 410.6,-295.02 414.36,-304.92 419.72,-300.42"/>
</g>
<!-- n_1_6 -->
<g id="node11" class="node">
<title>n_1_6</title>
<polygon fill="none" stroke="black" points="501.25,-255.88 501.25,-281.12 562.5,-281.12 562.5,-255.88 501.25,-255.88"/>
<text text-anchor="start" x="508.25" y="-266.57" font-family="Times New Roman,serif" font-weight="bold" font-size="9.00">Primary (G)</text>
<polygon fill="none" stroke="black" points="562.5,-255.88 562.5,-281.12 617,-281.12 617,-255.88 562.5,-255.88"/>
<text text-anchor="start" x="569.5" y="-266.57" font-family="Times New Roman,serif" font-weight="bold" font-size="9.00">University</text>
<polygon fill="none" stroke="black" points="500.25,-254.88 500.25,-282.12 618,-282.12 618,-254.88 500.25,-254.88"/>
</g>
<!-- n_0_1_2_3_4_5_6&#45;&gt;n_1_6 -->
<g id="edge10" class="edge">
<title>n_0_1_2_3_4_5_6&#45;&gt;n_1_6</title>
<path fill="none" stroke="black" d="M502.19,-337.15C513.71,-323.46 526.83,-307.87 537.58,-295.11"/>
<polygon fill="black" stroke="black" points="540.18,-297.44 543.94,-287.54 534.83,-292.94 540.18,-297.44"/>
</g>
<!-- n_3_4_5 -->
<g id="node3" class="node">
<title>n_3_4_5</title>
<polygon fill="none" stroke="black" points="155.62,-163 155.62,-195 225.88,-195 225.88,-163 155.62,-163"/>
<text text-anchor="start" x="162.62" y="-180.45" font-family="Times New Roman,serif" font-weight="bold" font-size="9.00">Secondary (G)</text>
<text text-anchor="start" x="171.25" y="-171.45" font-family="Times New Roman,serif" font-weight="bold" font-size="9.00">Technical</text>
<polygon fill="none" stroke="black" points="225.88,-163 225.88,-195 294.62,-195 294.62,-163 225.88,-163"/>
<text text-anchor="start" x="232.88" y="-177.07" font-family="Times New Roman,serif" font-weight="bold" font-size="9.00">Secondary (P)</text>
<polygon fill="none" stroke="black" points="154.62,-162 154.62,-196 295.62,-196 295.62,-162 154.62,-162"/>
</g>
<!-- n_0_2_3_4_5&#45;&gt;n_3_4_5 -->
<g id="edge2" class="edge">
<title>n_0_2_3_4_5&#45;&gt;n_3_4_5</title>
<path fill="none" stroke="black" d="M343.44,-243.13C321.33,-231.33 294.81,-217.18 272.48,-205.27"/>
<polygon fill="black" stroke="black" points="274.36,-202.3 263.89,-200.68 271.06,-208.48 274.36,-202.3"/>
</g>
<!-- n_0_2 -->
<g id="node8" class="node">
<title>n_0_2</title>
<polygon fill="none" stroke="black" points="342.12,-166.38 342.12,-191.62 401.88,-191.62 401.88,-166.38 342.12,-166.38"/>
<text text-anchor="start" x="349.12" y="-177.07" font-family="Times New Roman,serif" font-weight="bold" font-size="9.00">Primary (P)</text>
<polygon fill="none" stroke="black" points="401.88,-166.38 401.88,-191.62 454.12,-191.62 454.12,-166.38 401.88,-166.38"/>
<text text-anchor="start" x="408.88" y="-177.07" font-family="Times New Roman,serif" font-weight="bold" font-size="9.00">Preschool</text>
<polygon fill="none" stroke="black" points="341.12,-165.38 341.12,-192.62 455.12,-192.62 455.12,-165.38 341.12,-165.38"/>
</g>
<!-- n_0_2_3_4_5&#45;&gt;n_0_2 -->
<g id="edge7" class="edge">
<title>n_0_2_3_4_5&#45;&gt;n_0_2</title>
<path fill="none" stroke="black" d="M391.63,-243.13C392.75,-232.28 394.07,-219.45 395.22,-208.19"/>
<polygon fill="black" stroke="black" points="398.7,-208.58 396.25,-198.28 391.74,-207.87 398.7,-208.58"/>
</g>
<!-- n_4_5 -->
<g id="node4" class="node">
<title>n_4_5</title>
<polygon fill="none" stroke="black" points="36.5,-84.38 36.5,-109.62 106.75,-109.62 106.75,-84.38 36.5,-84.38"/>
<text text-anchor="start" x="43.5" y="-95.08" font-family="Times New Roman,serif" font-weight="bold" font-size="9.00">Secondary (G)</text>
<polygon fill="none" stroke="black" points="106.75,-84.38 106.75,-109.62 159.75,-109.62 159.75,-84.38 106.75,-84.38"/>
<text text-anchor="start" x="113.75" y="-95.08" font-family="Times New Roman,serif" font-weight="bold" font-size="9.00">Technical</text>
<polygon fill="none" stroke="black" points="35.5,-83.38 35.5,-110.62 160.75,-110.62 160.75,-83.38 35.5,-83.38"/>
</g>
<!-- n_3_4_5&#45;&gt;n_4_5 -->
<g id="edge3" class="edge">
<title>n_3_4_5&#45;&gt;n_4_5</title>
<path fill="none" stroke="black" d="M193.41,-158.02C175.47,-146.72 152.98,-132.55 134.35,-120.82"/>
<polygon fill="black" stroke="black" points="136.34,-117.93 126.01,-115.57 132.61,-123.86 136.34,-117.93"/>
</g>
<!-- n_3 -->
<g id="node7" class="node">
<title>n_3</title>
<polygon fill="none" stroke="black" points="206.75,-84.38 206.75,-109.62 275.5,-109.62 275.5,-84.38 206.75,-84.38"/>
<text text-anchor="start" x="213.75" y="-95.08" font-family="Times New Roman,serif" font-weight="bold" font-size="9.00">Secondary (P)</text>
<polygon fill="none" stroke="black" points="205.75,-83.38 205.75,-110.62 276.5,-110.62 276.5,-83.38 205.75,-83.38"/>
</g>
<!-- n_3_4_5&#45;&gt;n_3 -->
<g id="edge6" class="edge">
<title>n_3_4_5&#45;&gt;n_3</title>
<path fill="none" stroke="black" d="M229.08,-158.22C231.02,-148.54 233.38,-136.72 235.5,-126.11"/>
<polygon fill="black" stroke="black" points="238.93,-126.82 237.46,-116.33 232.07,-125.45 238.93,-126.82"/>
</g>
<!-- n_4 -->
<g id="node5" class="node">
<title>n_4</title>
<polygon fill="none" stroke="black" points="9,-5.38 9,-30.62 79.25,-30.62 79.25,-5.38 9,-5.38"/>
<text text-anchor="start" x="16" y="-16.07" font-family="Times New Roman,serif" font-weight="bold" font-size="9.00">Secondary (G)</text>
<polygon fill="none" stroke="black" points="8,-4.38 8,-31.62 80.25,-31.62 80.25,-4.38 8,-4.38"/>
</g>
<!-- n_4_5&#45;&gt;n_4 -->
<g id="edge4" class="edge">
<title>n_4_5&#45;&gt;n_4</title>
<path fill="none" stroke="black" d="M86.41,-79.29C79.45,-69.37 70.47,-56.57 62.58,-45.32"/>
<polygon fill="black" stroke="black" points="65.48,-43.36 56.87,-37.18 59.75,-47.38 65.48,-43.36"/>
</g>
<!-- n_5 -->
<g id="node6" class="node">
<title>n_5</title>
<polygon fill="none" stroke="black" points="126.62,-5.38 126.62,-30.62 179.62,-30.62 179.62,-5.38 126.62,-5.38"/>
<text text-anchor="start" x="133.62" y="-16.07" font-family="Times New Roman,serif" font-weight="bold" font-size="9.00">Technical</text>
<polygon fill="none" stroke="black" points="125.62,-4.38 125.62,-31.62 180.62,-31.62 180.62,-4.38 125.62,-4.38"/>
</g>
<!-- n_4_5&#45;&gt;n_5 -->
<g id="edge5" class="edge">
<title>n_4_5&#45;&gt;n_5</title>
<path fill="none" stroke="black" d="M110.06,-79.29C117.22,-69.27 126.47,-56.31 134.57,-44.98"/>
<polygon fill="black" stroke="black" points="137.18,-47.34 140.14,-37.17 131.48,-43.28 137.18,-47.34"/>
</g>
<!-- n_0 -->
<g id="node9" class="node">
<title>n_0</title>
<polygon fill="none" stroke="black" points="353.25,-84.38 353.25,-109.62 413,-109.62 413,-84.38 353.25,-84.38"/>
<text text-anchor="start" x="360.25" y="-95.08" font-family="Times New Roman,serif" font-weight="bold" font-size="9.00">Primary (P)</text>
<polygon fill="none" stroke="black" points="352.25,-83.38 352.25,-110.62 414,-110.62 414,-83.38 352.25,-83.38"/>
</g>
<!-- n_0_2&#45;&gt;n_0 -->
<g id="edge8" class="edge">
<title>n_0_2&#45;&gt;n_0</title>
<path fill="none" stroke="black" d="M394.94,-161.03C393.03,-150.85 390.56,-137.65 388.37,-125.96"/>
<polygon fill="black" stroke="black" points="391.86,-125.61 386.58,-116.43 384.98,-126.9 391.86,-125.61"/>
</g>
<!-- n_2 -->
<g id="node10" class="node">
<title>n_2</title>
<polygon fill="none" stroke="black" points="460,-84.38 460,-109.62 512.25,-109.62 512.25,-84.38 460,-84.38"/>
<text text-anchor="start" x="467" y="-95.08" font-family="Times New Roman,serif" font-weight="bold" font-size="9.00">Preschool</text>
<polygon fill="none" stroke="black" points="459,-83.38 459,-110.62 513.25,-110.62 513.25,-83.38 459,-83.38"/>
</g>
<!-- n_0_2&#45;&gt;n_2 -->
<g id="edge9" class="edge">
<title>n_0_2&#45;&gt;n_2</title>
<path fill="none" stroke="black" d="M416.79,-161.03C429.15,-149.79 445.57,-134.87 459.33,-122.36"/>
<polygon fill="black" stroke="black" points="461.32,-125.28 466.37,-115.96 456.62,-120.1 461.32,-125.28"/>
</g>
<!-- n_1 -->
<g id="node12" class="node">
<title>n_1</title>
<polygon fill="none" stroke="black" points="519.5,-166.38 519.5,-191.62 580.75,-191.62 580.75,-166.38 519.5,-166.38"/>
<text text-anchor="start" x="526.5" y="-177.07" font-family="Times New Roman,serif" font-weight="bold" font-size="9.00">Primary (G)</text>
<polygon fill="none" stroke="black" points="518.5,-165.38 518.5,-192.62 581.75,-192.62 581.75,-165.38 518.5,-165.38"/>
</g>
<!-- n_1_6&#45;&gt;n_1 -->
<g id="edge11" class="edge">
<title>n_1_6&#45;&gt;n_1</title>
<path fill="none" stroke="black" d="M557.39,-250.63C556.14,-238.52 554.44,-221.94 552.99,-207.88"/>
<polygon fill="black" stroke="black" points="556.51,-207.91 552.01,-198.32 549.55,-208.63 556.51,-207.91"/>
</g>
<!-- n_6 -->
<g id="node13" class="node">
<title>n_6</title>
<polygon fill="none" stroke="black" points="627.88,-166.38 627.88,-191.62 682.38,-191.62 682.38,-166.38 627.88,-166.38"/>
<text text-anchor="start" x="634.88" y="-177.07" font-family="Times New Roman,serif" font-weight="bold" font-size="9.00">University</text>
<polygon fill="none" stroke="black" points="626.88,-165.38 626.88,-192.62 683.38,-192.62 683.38,-165.38 626.88,-165.38"/>
</g>
<!-- n_1_6&#45;&gt;n_6 -->
<g id="edge12" class="edge">
<title>n_1_6&#45;&gt;n_6</title>
<path fill="none" stroke="black" d="M577.63,-250.63C591.98,-237.56 612.06,-219.25 628.18,-204.56"/>
<polygon fill="black" stroke="black" points="630.52,-207.16 635.55,-197.84 625.81,-201.99 630.52,-207.16"/>
</g>
</g>
</svg>
