<?xml version="1.0" encoding="UTF-8" standalone="no"?>
<!DOCTYPE svg PUBLIC "-//W3C//DTD SVG 1.1//EN"
 "http://www.w3.org/Graphics/SVG/1.1/DTD/svg11.dtd">
<!-- Generated by graphviz version 10.0.1 (20240210.2158)
 -->
<!-- Title: ND Pages: 1 -->
<svg width="565pt" height="535pt"
 viewBox="0.00 0.00 564.50 535.00" xmlns="http://www.w3.org/2000/svg" xmlns:xlink="http://www.w3.org/1999/xlink">
<g id="graph0" class="graph" transform="scale(1 1) rotate(0) translate(4 531)">
<title>ND</title>
<polygon fill="white" stroke="none" points="-4,4 -4,-531 560.5,-531 560.5,4 -4,4"/>
<!-- n_0_1_2_3_4_5_6 -->
<g id="node1" class="node">
<title>n_0_1_2_3_4_5_6</title>
<polygon fill="none" stroke="black" points="392.12,-454 392.12,-522 462.38,-522 462.38,-454 392.12,-454"/>
<text text-anchor="start" x="404.38" y="-507.45" font-family="Times New Roman,serif" font-weight="bold" font-size="9.00">Primary (P)</text>
<text text-anchor="start" x="403.62" y="-498.45" font-family="Times New Roman,serif" font-weight="bold" font-size="9.00">Primary (G)</text>
<text text-anchor="start" x="399.88" y="-489.45" font-family="Times New Roman,serif" font-weight="bold" font-size="9.00">Secondary (P)</text>
<text text-anchor="start" x="399.12" y="-480.45" font-family="Times New Roman,serif" font-weight="bold" font-size="9.00">Secondary (G)</text>
<text text-anchor="start" x="407.75" y="-471.45" font-family="Times New Roman,serif" font-weight="bold" font-size="9.00">Technical</text>
<text text-anchor="start" x="407" y="-462.45" font-family="Times New Roman,serif" font-weight="bold" font-size="9.00">University</text>
<polygon fill="none" stroke="black" points="462.38,-454 462.38,-522 514.62,-522 514.62,-454 462.38,-454"/>
<text text-anchor="start" x="469.38" y="-486.07" font-family="Times New Roman,serif" font-weight="bold" font-size="9.00">Preschool</text>
<polygon fill="none" stroke="black" points="391.12,-453 391.12,-523 515.62,-523 515.62,-453 391.12,-453"/>
</g>
<!-- n_0_1_3_4_5_6 -->
<g id="node2" class="node">
<title>n_0_1_3_4_5_6</title>
<polygon fill="none" stroke="black" points="323,-342 323,-401 393.25,-401 393.25,-342 323,-342"/>
<text text-anchor="start" x="335.25" y="-386.45" font-family="Times New Roman,serif" font-weight="bold" font-size="9.00">Primary (P)</text>
<text text-anchor="start" x="334.5" y="-377.45" font-family="Times New Roman,serif" font-weight="bold" font-size="9.00">Primary (G)</text>
<text text-anchor="start" x="330.75" y="-368.45" font-family="Times New Roman,serif" font-weight="bold" font-size="9.00">Secondary (P)</text>
<text text-anchor="start" x="330" y="-359.45" font-family="Times New Roman,serif" font-weight="bold" font-size="9.00">Secondary (G)</text>
<text text-anchor="start" x="338.62" y="-350.45" font-family="Times New Roman,serif" font-weight="bold" font-size="9.00">Technical</text>
<polygon fill="none" stroke="black" points="393.25,-342 393.25,-401 447.75,-401 447.75,-342 393.25,-342"/>
<text text-anchor="start" x="400.25" y="-369.57" font-family="Times New Roman,serif" font-weight="bold" font-size="9.00">University</text>
<polygon fill="none" stroke="black" points="322,-341 322,-402 448.75,-402 448.75,-341 322,-341"/>
</g>
<!-- n_0_1_2_3_4_5_6&#45;&gt;n_0_1_3_4_5_6 -->
<g id="edge1" class="edge">
<title>n_0_1_2_3_4_5_6&#45;&gt;n_0_1_3_4_5_6</title>
<path fill="none" stroke="black" d="M430.92,-449.19C424.52,-438.42 417.51,-426.6 410.94,-415.54"/>
<polygon fill="black" stroke="black" points="413.95,-413.76 405.84,-406.95 407.93,-417.34 413.95,-413.76"/>
</g>
<!-- n_2 -->
<g id="node13" class="node">
<title>n_2</title>
<polygon fill="none" stroke="black" points="495.25,-358.88 495.25,-384.12 547.5,-384.12 547.5,-358.88 495.25,-358.88"/>
<text text-anchor="start" x="502.25" y="-369.57" font-family="Times New Roman,serif" font-weight="bold" font-size="9.00">Preschool</text>
<polygon fill="none" stroke="black" points="494.25,-357.88 494.25,-385.12 548.5,-385.12 548.5,-357.88 494.25,-357.88"/>
</g>
<!-- n_0_1_2_3_4_5_6&#45;&gt;n_2 -->
<g id="edge12" class="edge">
<title>n_0_1_2_3_4_5_6&#45;&gt;n_2</title>
<path fill="none" stroke="black" d="M475.83,-449.19C485.57,-432.78 496.75,-413.96 505.6,-399.07"/>
<polygon fill="black" stroke="black" points="508.43,-401.15 510.53,-390.76 502.41,-397.58 508.43,-401.15"/>
</g>
<!-- n_0_1_3_4_5 -->
<g id="node3" class="node">
<title>n_0_1_3_4_5</title>
<polygon fill="none" stroke="black" points="249.62,-248 249.62,-289 319.88,-289 319.88,-248 249.62,-248"/>
<text text-anchor="start" x="261.88" y="-274.45" font-family="Times New Roman,serif" font-weight="bold" font-size="9.00">Primary (P)</text>
<text text-anchor="start" x="257.38" y="-265.45" font-family="Times New Roman,serif" font-weight="bold" font-size="9.00">Secondary (P)</text>
<text text-anchor="start" x="256.62" y="-256.45" font-family="Times New Roman,serif" font-weight="bold" font-size="9.00">Secondary (G)</text>
<polygon fill="none" stroke="black" points="319.88,-248 319.88,-289 381.12,-289 381.12,-248 319.88,-248"/>
<text text-anchor="start" x="326.88" y="-269.95" font-family="Times New Roman,serif" font-weight="bold" font-size="9.00">Primary (G)</text>
<text text-anchor="start" x="331" y="-260.95" font-family="Times New Roman,serif" font-weight="bold" font-size="9.00">Technical</text>
<polygon fill="none" stroke="black" points="248.62,-247 248.62,-290 382.12,-290 382.12,-247 248.62,-247"/>
</g>
<!-- n_0_1_3_4_5_6&#45;&gt;n_0_1_3_4_5 -->
<g id="edge2" class="edge">
<title>n_0_1_3_4_5_6&#45;&gt;n_0_1_3_4_5</title>
<path fill="none" stroke="black" d="M362.26,-337.15C354.68,-326.22 346.26,-314.07 338.67,-303.12"/>
<polygon fill="black" stroke="black" points="341.69,-301.33 333.12,-295.1 335.94,-305.32 341.69,-301.33"/>
</g>
<!-- n_6 -->
<g id="node12" class="node">
<title>n_6</title>
<polygon fill="none" stroke="black" points="428.12,-255.88 428.12,-281.12 482.62,-281.12 482.62,-255.88 428.12,-255.88"/>
<text text-anchor="start" x="435.12" y="-266.57" font-family="Times New Roman,serif" font-weight="bold" font-size="9.00">University</text>
<polygon fill="none" stroke="black" points="427.12,-254.88 427.12,-282.12 483.62,-282.12 483.62,-254.88 427.12,-254.88"/>
</g>
<!-- n_0_1_3_4_5_6&#45;&gt;n_6 -->
<g id="edge11" class="edge">
<title>n_0_1_3_4_5_6&#45;&gt;n_6</title>
<path fill="none" stroke="black" d="M408.49,-337.15C417.88,-323.6 428.57,-308.17 437.37,-295.48"/>
<polygon fill="black" stroke="black" points="439.99,-297.84 442.81,-287.62 434.24,-293.85 439.99,-297.84"/>
</g>
<!-- n_0_3_4 -->
<g id="node4" class="node">
<title>n_0_3_4</title>
<polygon fill="none" stroke="black" points="166.38,-163 166.38,-195 236.62,-195 236.62,-163 166.38,-163"/>
<text text-anchor="start" x="174.12" y="-180.45" font-family="Times New Roman,serif" font-weight="bold" font-size="9.00">Secondary (P)</text>
<text text-anchor="start" x="173.38" y="-171.45" font-family="Times New Roman,serif" font-weight="bold" font-size="9.00">Secondary (G)</text>
<polygon fill="none" stroke="black" points="236.62,-163 236.62,-195 296.38,-195 296.38,-163 236.62,-163"/>
<text text-anchor="start" x="243.62" y="-177.07" font-family="Times New Roman,serif" font-weight="bold" font-size="9.00">Primary (P)</text>
<polygon fill="none" stroke="black" points="165.38,-162 165.38,-196 297.38,-196 297.38,-162 165.38,-162"/>
</g>
<!-- n_0_1_3_4_5&#45;&gt;n_0_3_4 -->
<g id="edge3" class="edge">
<title>n_0_1_3_4_5&#45;&gt;n_0_3_4</title>
<path fill="none" stroke="black" d="M291.98,-243.13C281.53,-232.25 269.16,-219.36 258.33,-208.08"/>
<polygon fill="black" stroke="black" points="260.91,-205.71 251.46,-200.92 255.86,-210.56 260.91,-205.71"/>
</g>
<!-- n_1_5 -->
<g id="node9" class="node">
<title>n_1_5</title>
<polygon fill="none" stroke="black" points="343.25,-166.38 343.25,-191.62 404.5,-191.62 404.5,-166.38 343.25,-166.38"/>
<text text-anchor="start" x="350.25" y="-177.07" font-family="Times New Roman,serif" font-weight="bold" font-size="9.00">Primary (G)</text>
<polygon fill="none" stroke="black" points="404.5,-166.38 404.5,-191.62 457.5,-191.62 457.5,-166.38 404.5,-166.38"/>
<text text-anchor="start" x="411.5" y="-177.07" font-family="Times New Roman,serif" font-weight="bold" font-size="9.00">Technical</text>
<polygon fill="none" stroke="black" points="342.25,-165.38 342.25,-192.62 458.5,-192.62 458.5,-165.38 342.25,-165.38"/>
</g>
<!-- n_0_1_3_4_5&#45;&gt;n_1_5 -->
<g id="edge8" class="edge">
<title>n_0_1_3_4_5&#45;&gt;n_1_5</title>
<path fill="none" stroke="black" d="M339.05,-243.13C350.59,-231.24 364.46,-216.97 376.08,-205.01"/>
<polygon fill="black" stroke="black" points="378.57,-207.47 383.03,-197.86 373.55,-202.59 378.57,-207.47"/>
</g>
<!-- n_3_4 -->
<g id="node5" class="node">
<title>n_3_4</title>
<polygon fill="none" stroke="black" points="31.88,-84.38 31.88,-109.62 100.62,-109.62 100.62,-84.38 31.88,-84.38"/>
<text text-anchor="start" x="38.88" y="-95.08" font-family="Times New Roman,serif" font-weight="bold" font-size="9.00">Secondary (P)</text>
<polygon fill="none" stroke="black" points="100.62,-84.38 100.62,-109.62 170.88,-109.62 170.88,-84.38 100.62,-84.38"/>
<text text-anchor="start" x="107.62" y="-95.08" font-family="Times New Roman,serif" font-weight="bold" font-size="9.00">Secondary (G)</text>
<polygon fill="none" stroke="black" points="30.88,-83.38 30.88,-110.62 171.88,-110.62 171.88,-83.38 30.88,-83.38"/>
</g>
<!-- n_0_3_4&#45;&gt;n_3_4 -->
<g id="edge4" class="edge">
<title>n_0_3_4&#45;&gt;n_3_4</title>
<path fill="none" stroke="black" d="M198.91,-158.02C180.46,-146.67 157.31,-132.42 138.19,-120.66"/>
<polygon fill="black" stroke="black" points="140.25,-117.81 129.9,-115.55 136.58,-123.77 140.25,-117.81"/>
</g>
<!-- n_0 -->
<g id="node8" class="node">
<title>n_0</title>
<polygon fill="none" stroke="black" points="217.5,-84.38 217.5,-109.62 277.25,-109.62 277.25,-84.38 217.5,-84.38"/>
<text text-anchor="start" x="224.5" y="-95.08" font-family="Times New Roman,serif" font-weight="bold" font-size="9.00">Primary (P)</text>
<polygon fill="none" stroke="black" points="216.5,-83.38 216.5,-110.62 278.25,-110.62 278.25,-83.38 216.5,-83.38"/>
</g>
<!-- n_0_3_4&#45;&gt;n_0 -->
<g id="edge7" class="edge">
<title>n_0_3_4&#45;&gt;n_0</title>
<path fill="none" stroke="black" d="M235.33,-158.22C237.27,-148.54 239.63,-136.72 241.75,-126.11"/>
<polygon fill="black" stroke="black" points="245.18,-126.82 243.71,-116.33 238.32,-125.45 245.18,-126.82"/>
</g>
<!-- n_3 -->
<g id="node6" class="node">
<title>n_3</title>
<polygon fill="none" stroke="black" points="9,-5.38 9,-30.62 77.75,-30.62 77.75,-5.38 9,-5.38"/>
<text text-anchor="start" x="16" y="-16.07" font-family="Times New Roman,serif" font-weight="bold" font-size="9.00">Secondary (P)</text>
<polygon fill="none" stroke="black" points="8,-4.38 8,-31.62 78.75,-31.62 78.75,-4.38 8,-4.38"/>
</g>
<!-- n_3_4&#45;&gt;n_3 -->
<g id="edge5" class="edge">
<title>n_3_4&#45;&gt;n_3</title>
<path fill="none" stroke="black" d="M88.79,-79.29C81.24,-69.27 71.48,-56.31 62.94,-44.98"/>
<polygon fill="black" stroke="black" points="65.86,-43.03 57.05,-37.15 60.27,-47.24 65.86,-43.03"/>
</g>
<!-- n_4 -->
<g id="node7" class="node">
<title>n_4</title>
<polygon fill="none" stroke="black" points="125.25,-5.38 125.25,-30.62 195.5,-30.62 195.5,-5.38 125.25,-5.38"/>
<text text-anchor="start" x="132.25" y="-16.07" font-family="Times New Roman,serif" font-weight="bold" font-size="9.00">Secondary (G)</text>
<polygon fill="none" stroke="black" points="124.25,-4.38 124.25,-31.62 196.5,-31.62 196.5,-4.38 124.25,-4.38"/>
</g>
<!-- n_3_4&#45;&gt;n_4 -->
<g id="edge6" class="edge">
<title>n_3_4&#45;&gt;n_4</title>
<path fill="none" stroke="black" d="M114.18,-79.29C121.86,-69.27 131.78,-56.31 140.47,-44.98"/>
<polygon fill="black" stroke="black" points="143.17,-47.21 146.47,-37.14 137.61,-42.95 143.17,-47.21"/>
</g>
<!-- n_1 -->
<g id="node10" class="node">
<title>n_1</title>
<polygon fill="none" stroke="black" points="354.75,-84.38 354.75,-109.62 416,-109.62 416,-84.38 354.75,-84.38"/>
<text text-anchor="start" x="361.75" y="-95.08" font-family="Times New Roman,serif" font-weight="bold" font-size="9.00">Primary (G)</text>
<polygon fill="none" stroke="black" points="353.75,-83.38 353.75,-110.62 417,-110.62 417,-83.38 353.75,-83.38"/>
</g>
<!-- n_1_5&#45;&gt;n_1 -->
<g id="edge9" class="edge">
<title>n_1_5&#45;&gt;n_1</title>
<path fill="none" stroke="black" d="M397.19,-161.03C395.28,-150.85 392.81,-137.65 390.62,-125.96"/>
<polygon fill="black" stroke="black" points="394.11,-125.61 388.83,-116.43 387.23,-126.9 394.11,-125.61"/>
</g>
<!-- n_5 -->
<g id="node11" class="node">
<title>n_5</title>
<polygon fill="none" stroke="black" points="462.88,-84.38 462.88,-109.62 515.88,-109.62 515.88,-84.38 462.88,-84.38"/>
<text text-anchor="start" x="469.88" y="-95.08" font-family="Times New Roman,serif" font-weight="bold" font-size="9.00">Technical</text>
<polygon fill="none" stroke="black" points="461.88,-83.38 461.88,-110.62 516.88,-110.62 516.88,-83.38 461.88,-83.38"/>
</g>
<!-- n_1_5&#45;&gt;n_5 -->
<g id="edge10" class="edge">
<title>n_1_5&#45;&gt;n_5</title>
<path fill="none" stroke="black" d="M419.25,-161.03C431.76,-149.79 448.36,-134.87 462.27,-122.36"/>
<polygon fill="black" stroke="black" points="464.3,-125.24 469.4,-115.95 459.63,-120.04 464.3,-125.24"/>
</g>
</g>
</svg>
