<?xml version="1.0" encoding="UTF-8" standalone="no"?>
<!DOCTYPE svg PUBLIC "-//W3C//DTD SVG 1.1//EN"
 "http://www.w3.org/Graphics/SVG/1.1/DTD/svg11.dtd">
<!-- Generated by graphviz version 10.0.1 (20240210.2158)
 -->
<!-- Title: ND Pages: 1 -->
<svg width="562pt" height="638pt"
 viewBox="0.00 0.00 561.50 638.00" xmlns="http://www.w3.org/2000/svg" xmlns:xlink="http://www.w3.org/1999/xlink">
<g id="graph0" class="graph" transform="scale(1 1) rotate(0) translate(4 634)">
<title>ND</title>
<polygon fill="white" stroke="none" points="-4,4 -4,-634 557.5,-634 557.5,4 -4,4"/>
<!-- n_0_1_2_3_4_5_6 -->
<g id="node1" class="node">
<title>n_0_1_2_3_4_5_6</title>
<polygon fill="none" stroke="black" points="387.12,-557 387.12,-625 457.38,-625 457.38,-557 387.12,-557"/>
<text text-anchor="start" x="399.38" y="-610.45" font-family="Times New Roman,serif" font-weight="bold" font-size="9.00">Primary (P)</text>
<text text-anchor="start" x="398.62" y="-601.45" font-family="Times New Roman,serif" font-weight="bold" font-size="9.00">Primary (G)</text>
<text text-anchor="start" x="394.88" y="-592.45" font-family="Times New Roman,serif" font-weight="bold" font-size="9.00">Secondary (P)</text>
<text text-anchor="start" x="394.12" y="-583.45" font-family="Times New Roman,serif" font-weight="bold" font-size="9.00">Secondary (G)</text>
<text text-anchor="start" x="402.75" y="-574.45" font-family="Times New Roman,serif" font-weight="bold" font-size="9.00">Technical</text>
<text text-anchor="start" x="402" y="-565.45" font-family="Times New Roman,serif" font-weight="bold" font-size="9.00">University</text>
<polygon fill="none" stroke="black" points="457.38,-557 457.38,-625 509.62,-625 509.62,-557 457.38,-557"/>
<text text-anchor="start" x="464.38" y="-589.08" font-family="Times New Roman,serif" font-weight="bold" font-size="9.00">Preschool</text>
<polygon fill="none" stroke="black" points="386.12,-556 386.12,-626 510.62,-626 510.62,-556 386.12,-556"/>
</g>
<!-- n_0_1_3_4_5_6 -->
<g id="node2" class="node">
<title>n_0_1_3_4_5_6</title>
<polygon fill="none" stroke="black" points="313.62,-445 313.62,-504 383.88,-504 383.88,-445 313.62,-445"/>
<text text-anchor="start" x="325.88" y="-489.45" font-family="Times New Roman,serif" font-weight="bold" font-size="9.00">Primary (P)</text>
<text text-anchor="start" x="321.38" y="-480.45" font-family="Times New Roman,serif" font-weight="bold" font-size="9.00">Secondary (P)</text>
<text text-anchor="start" x="320.62" y="-471.45" font-family="Times New Roman,serif" font-weight="bold" font-size="9.00">Secondary (G)</text>
<text text-anchor="start" x="329.25" y="-462.45" font-family="Times New Roman,serif" font-weight="bold" font-size="9.00">Technical</text>
<text text-anchor="start" x="328.5" y="-453.45" font-family="Times New Roman,serif" font-weight="bold" font-size="9.00">University</text>
<polygon fill="none" stroke="black" points="383.88,-445 383.88,-504 445.12,-504 445.12,-445 383.88,-445"/>
<text text-anchor="start" x="390.88" y="-472.57" font-family="Times New Roman,serif" font-weight="bold" font-size="9.00">Primary (G)</text>
<polygon fill="none" stroke="black" points="312.62,-444 312.62,-505 446.12,-505 446.12,-444 312.62,-444"/>
</g>
<!-- n_0_1_2_3_4_5_6&#45;&gt;n_0_1_3_4_5_6 -->
<g id="edge1" class="edge">
<title>n_0_1_2_3_4_5_6&#45;&gt;n_0_1_3_4_5_6</title>
<path fill="none" stroke="black" d="M425.59,-552.19C419.03,-541.31 411.83,-529.36 405.11,-518.21"/>
<polygon fill="black" stroke="black" points="408.29,-516.71 400.13,-509.95 402.3,-520.32 408.29,-516.71"/>
</g>
<!-- n_2 -->
<g id="node13" class="node">
<title>n_2</title>
<polygon fill="none" stroke="black" points="492.25,-461.88 492.25,-487.12 544.5,-487.12 544.5,-461.88 492.25,-461.88"/>
<text text-anchor="start" x="499.25" y="-472.57" font-family="Times New Roman,serif" font-weight="bold" font-size="9.00">Preschool</text>
<polygon fill="none" stroke="black" points="491.25,-460.88 491.25,-488.12 545.5,-488.12 545.5,-460.88 491.25,-460.88"/>
</g>
<!-- n_0_1_2_3_4_5_6&#45;&gt;n_2 -->
<g id="edge12" class="edge">
<title>n_0_1_2_3_4_5_6&#45;&gt;n_2</title>
<path fill="none" stroke="black" d="M471.49,-552.19C481.52,-535.78 493.03,-516.96 502.13,-502.07"/>
<polygon fill="black" stroke="black" points="504.99,-504.11 507.22,-493.75 499.01,-500.46 504.99,-504.11"/>
</g>
<!-- n_0_3_4_5_6 -->
<g id="node3" class="node">
<title>n_0_3_4_5_6</title>
<polygon fill="none" stroke="black" points="236.88,-342 236.88,-392 305.62,-392 305.62,-342 236.88,-342"/>
<text text-anchor="start" x="248.38" y="-377.45" font-family="Times New Roman,serif" font-weight="bold" font-size="9.00">Primary (P)</text>
<text text-anchor="start" x="243.88" y="-368.45" font-family="Times New Roman,serif" font-weight="bold" font-size="9.00">Secondary (P)</text>
<text text-anchor="start" x="251.75" y="-359.45" font-family="Times New Roman,serif" font-weight="bold" font-size="9.00">Technical</text>
<text text-anchor="start" x="251" y="-350.45" font-family="Times New Roman,serif" font-weight="bold" font-size="9.00">University</text>
<polygon fill="none" stroke="black" points="305.62,-342 305.62,-392 375.88,-392 375.88,-342 305.62,-342"/>
<text text-anchor="start" x="312.62" y="-365.07" font-family="Times New Roman,serif" font-weight="bold" font-size="9.00">Secondary (G)</text>
<polygon fill="none" stroke="black" points="235.88,-341 235.88,-393 376.88,-393 376.88,-341 235.88,-341"/>
</g>
<!-- n_0_1_3_4_5_6&#45;&gt;n_0_3_4_5_6 -->
<g id="edge2" class="edge">
<title>n_0_1_3_4_5_6&#45;&gt;n_0_3_4_5_6</title>
<path fill="none" stroke="black" d="M356.28,-440.12C348.85,-429.38 340.56,-417.4 332.9,-406.33"/>
<polygon fill="black" stroke="black" points="335.8,-404.37 327.23,-398.14 330.04,-408.36 335.8,-404.37"/>
</g>
<!-- n_1 -->
<g id="node12" class="node">
<title>n_1</title>
<polygon fill="none" stroke="black" points="422.75,-354.38 422.75,-379.62 484,-379.62 484,-354.38 422.75,-354.38"/>
<text text-anchor="start" x="429.75" y="-365.07" font-family="Times New Roman,serif" font-weight="bold" font-size="9.00">Primary (G)</text>
<polygon fill="none" stroke="black" points="421.75,-353.38 421.75,-380.62 485,-380.62 485,-353.38 421.75,-353.38"/>
</g>
<!-- n_0_1_3_4_5_6&#45;&gt;n_1 -->
<g id="edge11" class="edge">
<title>n_0_1_3_4_5_6&#45;&gt;n_1</title>
<path fill="none" stroke="black" d="M402.79,-440.12C413.25,-425.21 425.39,-407.9 435.15,-393.98"/>
<polygon fill="black" stroke="black" points="437.74,-396.39 440.62,-386.19 432.01,-392.37 437.74,-396.39"/>
</g>
<!-- n_0_3_5_6 -->
<g id="node4" class="node">
<title>n_0_3_5_6</title>
<polygon fill="none" stroke="black" points="169.12,-248 169.12,-289 237.88,-289 237.88,-248 169.12,-248"/>
<text text-anchor="start" x="176.12" y="-274.45" font-family="Times New Roman,serif" font-weight="bold" font-size="9.00">Secondary (P)</text>
<text text-anchor="start" x="184" y="-265.45" font-family="Times New Roman,serif" font-weight="bold" font-size="9.00">Technical</text>
<text text-anchor="start" x="183.25" y="-256.45" font-family="Times New Roman,serif" font-weight="bold" font-size="9.00">University</text>
<polygon fill="none" stroke="black" points="237.88,-248 237.88,-289 297.62,-289 297.62,-248 237.88,-248"/>
<text text-anchor="start" x="244.88" y="-266.57" font-family="Times New Roman,serif" font-weight="bold" font-size="9.00">Primary (P)</text>
<polygon fill="none" stroke="black" points="168.12,-247 168.12,-290 298.62,-290 298.62,-247 168.12,-247"/>
</g>
<!-- n_0_3_4_5_6&#45;&gt;n_0_3_5_6 -->
<g id="edge3" class="edge">
<title>n_0_3_4_5_6&#45;&gt;n_0_3_5_6</title>
<path fill="none" stroke="black" d="M284.47,-337.05C276.34,-326.29 267.04,-314 258.63,-302.88"/>
<polygon fill="black" stroke="black" points="261.55,-300.95 252.73,-295.08 255.97,-305.17 261.55,-300.95"/>
</g>
<!-- n_4 -->
<g id="node11" class="node">
<title>n_4</title>
<polygon fill="none" stroke="black" points="344.25,-255.88 344.25,-281.12 414.5,-281.12 414.5,-255.88 344.25,-255.88"/>
<text text-anchor="start" x="351.25" y="-266.57" font-family="Times New Roman,serif" font-weight="bold" font-size="9.00">Secondary (G)</text>
<polygon fill="none" stroke="black" points="343.25,-254.88 343.25,-282.12 415.5,-282.12 415.5,-254.88 343.25,-254.88"/>
</g>
<!-- n_0_3_4_5_6&#45;&gt;n_4 -->
<g id="edge10" class="edge">
<title>n_0_3_4_5_6&#45;&gt;n_4</title>
<path fill="none" stroke="black" d="M328.28,-337.05C338.35,-323.73 350.19,-308.07 359.94,-295.19"/>
<polygon fill="black" stroke="black" points="362.46,-297.66 365.7,-287.57 356.88,-293.44 362.46,-297.66"/>
</g>
<!-- n_3_5_6 -->
<g id="node5" class="node">
<title>n_3_5_6</title>
<polygon fill="none" stroke="black" points="103.5,-163 103.5,-195 172.25,-195 172.25,-163 103.5,-163"/>
<text text-anchor="start" x="110.5" y="-180.45" font-family="Times New Roman,serif" font-weight="bold" font-size="9.00">Secondary (P)</text>
<text text-anchor="start" x="117.62" y="-171.45" font-family="Times New Roman,serif" font-weight="bold" font-size="9.00">University</text>
<polygon fill="none" stroke="black" points="172.25,-163 172.25,-195 225.25,-195 225.25,-163 172.25,-163"/>
<text text-anchor="start" x="179.25" y="-177.07" font-family="Times New Roman,serif" font-weight="bold" font-size="9.00">Technical</text>
<polygon fill="none" stroke="black" points="102.5,-162 102.5,-196 226.25,-196 226.25,-162 102.5,-162"/>
</g>
<!-- n_0_3_5_6&#45;&gt;n_3_5_6 -->
<g id="edge4" class="edge">
<title>n_0_3_5_6&#45;&gt;n_3_5_6</title>
<path fill="none" stroke="black" d="M214.15,-243.13C205.74,-232.46 195.81,-219.87 187.04,-208.75"/>
<polygon fill="black" stroke="black" points="189.89,-206.7 180.95,-201.01 184.39,-211.03 189.89,-206.7"/>
</g>
<!-- n_0 -->
<g id="node10" class="node">
<title>n_0</title>
<polygon fill="none" stroke="black" points="272.5,-166.38 272.5,-191.62 332.25,-191.62 332.25,-166.38 272.5,-166.38"/>
<text text-anchor="start" x="279.5" y="-177.07" font-family="Times New Roman,serif" font-weight="bold" font-size="9.00">Primary (P)</text>
<polygon fill="none" stroke="black" points="271.5,-165.38 271.5,-192.62 333.25,-192.62 333.25,-165.38 271.5,-165.38"/>
</g>
<!-- n_0_3_5_6&#45;&gt;n_0 -->
<g id="edge9" class="edge">
<title>n_0_3_5_6&#45;&gt;n_0</title>
<path fill="none" stroke="black" d="M252.6,-243.13C261.78,-231.48 272.78,-217.53 282.1,-205.71"/>
<polygon fill="black" stroke="black" points="284.77,-207.98 288.21,-197.96 279.27,-203.64 284.77,-207.98"/>
</g>
<!-- n_3_6 -->
<g id="node6" class="node">
<title>n_3_6</title>
<polygon fill="none" stroke="black" points="35.75,-84.38 35.75,-109.62 104.5,-109.62 104.5,-84.38 35.75,-84.38"/>
<text text-anchor="start" x="42.75" y="-95.08" font-family="Times New Roman,serif" font-weight="bold" font-size="9.00">Secondary (P)</text>
<polygon fill="none" stroke="black" points="104.5,-84.38 104.5,-109.62 159,-109.62 159,-84.38 104.5,-84.38"/>
<text text-anchor="start" x="111.5" y="-95.08" font-family="Times New Roman,serif" font-weight="bold" font-size="9.00">University</text>
<polygon fill="none" stroke="black" points="34.75,-83.38 34.75,-110.62 160,-110.62 160,-83.38 34.75,-83.38"/>
</g>
<!-- n_3_5_6&#45;&gt;n_3_6 -->
<g id="edge5" class="edge">
<title>n_3_5_6&#45;&gt;n_3_6</title>
<path fill="none" stroke="black" d="M147.81,-158.22C139.01,-147.71 128.08,-134.66 118.65,-123.41"/>
<polygon fill="black" stroke="black" points="121.56,-121.42 112.45,-116 116.19,-125.92 121.56,-121.42"/>
</g>
<!-- n_5 -->
<g id="node9" class="node">
<title>n_5</title>
<polygon fill="none" stroke="black" points="205.88,-84.38 205.88,-109.62 258.88,-109.62 258.88,-84.38 205.88,-84.38"/>
<text text-anchor="start" x="212.88" y="-95.08" font-family="Times New Roman,serif" font-weight="bold" font-size="9.00">Technical</text>
<polygon fill="none" stroke="black" points="204.88,-83.38 204.88,-110.62 259.88,-110.62 259.88,-83.38 204.88,-83.38"/>
</g>
<!-- n_3_5_6&#45;&gt;n_5 -->
<g id="edge8" class="edge">
<title>n_3_5_6&#45;&gt;n_5</title>
<path fill="none" stroke="black" d="M181.18,-158.22C190.12,-147.71 201.21,-134.66 210.78,-123.41"/>
<polygon fill="black" stroke="black" points="213.27,-125.88 217.08,-116 207.93,-121.35 213.27,-125.88"/>
</g>
<!-- n_3 -->
<g id="node7" class="node">
<title>n_3</title>
<polygon fill="none" stroke="black" points="9,-5.38 9,-30.62 77.75,-30.62 77.75,-5.38 9,-5.38"/>
<text text-anchor="start" x="16" y="-16.07" font-family="Times New Roman,serif" font-weight="bold" font-size="9.00">Secondary (P)</text>
<polygon fill="none" stroke="black" points="8,-4.38 8,-31.62 78.75,-31.62 78.75,-4.38 8,-4.38"/>
</g>
<!-- n_3_6&#45;&gt;n_3 -->
<g id="edge6" class="edge">
<title>n_3_6&#45;&gt;n_3</title>
<path fill="none" stroke="black" d="M85.66,-79.29C78.7,-69.37 69.72,-56.57 61.83,-45.32"/>
<polygon fill="black" stroke="black" points="64.73,-43.36 56.12,-37.18 59,-47.38 64.73,-43.36"/>
</g>
<!-- n_6 -->
<g id="node8" class="node">
<title>n_6</title>
<polygon fill="none" stroke="black" points="125.12,-5.38 125.12,-30.62 179.62,-30.62 179.62,-5.38 125.12,-5.38"/>
<text text-anchor="start" x="132.12" y="-16.07" font-family="Times New Roman,serif" font-weight="bold" font-size="9.00">University</text>
<polygon fill="none" stroke="black" points="124.12,-4.38 124.12,-31.62 180.62,-31.62 180.62,-4.38 124.12,-4.38"/>
</g>
<!-- n_3_6&#45;&gt;n_6 -->
<g id="edge7" class="edge">
<title>n_3_6&#45;&gt;n_6</title>
<path fill="none" stroke="black" d="M109.31,-79.29C116.47,-69.27 125.72,-56.31 133.82,-44.98"/>
<polygon fill="black" stroke="black" points="136.43,-47.34 139.39,-37.17 130.73,-43.28 136.43,-47.34"/>
</g>
</g>
</svg>
