<?xml version="1.0" encoding="UTF-8" standalone="no"?>
<!DOCTYPE svg PUBLIC "-//W3C//DTD SVG 1.1//EN"
 "http://www.w3.org/Graphics/SVG/1.1/DTD/svg11.dtd">
<!-- Generated by graphviz version 10.0.1 (20240210.2158)
 -->
<!-- Title: ND Pages: 1 -->
<svg width="655pt" height="517pt"
 viewBox="0.00 0.00 655.12 517.00" xmlns="http://www.w3.org/2000/svg" xmlns:xlink="http://www.w3.org/1999/xlink">
<g id="graph0" class="graph" transform="scale(1 1) rotate(0) translate(4 513)">
<title>ND</title>
<polygon fill="white" stroke="none" points="-4,4 -4,-513 651.12,-513 651.12,4 -4,4"/>
<!-- n_0_1_2_3_4_5_6 -->
<g id="node1" class="node">
<title>n_0_1_2_3_4_5_6</title>
<polygon fill="none" stroke="black" points="382.5,-445 382.5,-504 452.75,-504 452.75,-445 382.5,-445"/>
<text text-anchor="start" x="394.75" y="-489.45" font-family="Times New Roman,serif" font-weight="bold" font-size="9.00">Primary (P)</text>
<text text-anchor="start" x="394" y="-480.45" font-family="Times New Roman,serif" font-weight="bold" font-size="9.00">Primary (G)</text>
<text text-anchor="start" x="390.25" y="-471.45" font-family="Times New Roman,serif" font-weight="bold" font-size="9.00">Secondary (P)</text>
<text text-anchor="start" x="389.5" y="-462.45" font-family="Times New Roman,serif" font-weight="bold" font-size="9.00">Secondary (G)</text>
<text text-anchor="start" x="398.12" y="-453.45" font-family="Times New Roman,serif" font-weight="bold" font-size="9.00">Technical</text>
<polygon fill="none" stroke="black" points="452.75,-445 452.75,-504 507.25,-504 507.25,-445 452.75,-445"/>
<text text-anchor="start" x="460.88" y="-475.95" font-family="Times New Roman,serif" font-weight="bold" font-size="9.00">Preschool</text>
<text text-anchor="start" x="459.75" y="-466.95" font-family="Times New Roman,serif" font-weight="bold" font-size="9.00">University</text>
<polygon fill="none" stroke="black" points="381.5,-444 381.5,-505 508.25,-505 508.25,-444 381.5,-444"/>
</g>
<!-- n_0_1_3_4_5 -->
<g id="node2" class="node">
<title>n_0_1_3_4_5</title>
<polygon fill="none" stroke="black" points="302.25,-342 302.25,-392 372.5,-392 372.5,-342 302.25,-342"/>
<text text-anchor="start" x="314.5" y="-377.45" font-family="Times New Roman,serif" font-weight="bold" font-size="9.00">Primary (P)</text>
<text text-anchor="start" x="313.75" y="-368.45" font-family="Times New Roman,serif" font-weight="bold" font-size="9.00">Primary (G)</text>
<text text-anchor="start" x="310" y="-359.45" font-family="Times New Roman,serif" font-weight="bold" font-size="9.00">Secondary (P)</text>
<text text-anchor="start" x="309.25" y="-350.45" font-family="Times New Roman,serif" font-weight="bold" font-size="9.00">Secondary (G)</text>
<polygon fill="none" stroke="black" points="372.5,-342 372.5,-392 425.5,-392 425.5,-342 372.5,-342"/>
<text text-anchor="start" x="379.5" y="-365.07" font-family="Times New Roman,serif" font-weight="bold" font-size="9.00">Technical</text>
<polygon fill="none" stroke="black" points="301.25,-341 301.25,-393 426.5,-393 426.5,-341 301.25,-341"/>
</g>
<!-- n_0_1_2_3_4_5_6&#45;&gt;n_0_1_3_4_5 -->
<g id="edge1" class="edge">
<title>n_0_1_2_3_4_5_6&#45;&gt;n_0_1_3_4_5</title>
<path fill="none" stroke="black" d="M419.25,-440.12C410.92,-429.27 401.62,-417.16 393.05,-406"/>
<polygon fill="black" stroke="black" points="395.85,-403.9 386.98,-398.1 390.3,-408.16 395.85,-403.9"/>
</g>
<!-- n_2_6 -->
<g id="node11" class="node">
<title>n_2_6</title>
<polygon fill="none" stroke="black" points="472.5,-354.38 472.5,-379.62 524.75,-379.62 524.75,-354.38 472.5,-354.38"/>
<text text-anchor="start" x="479.5" y="-365.07" font-family="Times New Roman,serif" font-weight="bold" font-size="9.00">Preschool</text>
<polygon fill="none" stroke="black" points="524.75,-354.38 524.75,-379.62 579.25,-379.62 579.25,-354.38 524.75,-354.38"/>
<text text-anchor="start" x="531.75" y="-365.07" font-family="Times New Roman,serif" font-weight="bold" font-size="9.00">University</text>
<polygon fill="none" stroke="black" points="471.5,-353.38 471.5,-380.62 580.25,-380.62 580.25,-353.38 471.5,-353.38"/>
</g>
<!-- n_0_1_2_3_4_5_6&#45;&gt;n_2_6 -->
<g id="edge10" class="edge">
<title>n_0_1_2_3_4_5_6&#45;&gt;n_2_6</title>
<path fill="none" stroke="black" d="M470.5,-440.12C481.95,-425.21 495.24,-407.9 505.93,-393.98"/>
<polygon fill="black" stroke="black" points="508.63,-396.21 511.94,-386.15 503.07,-391.95 508.63,-396.21"/>
</g>
<!-- n_0_1_3_4 -->
<g id="node3" class="node">
<title>n_0_1_3_4</title>
<polygon fill="none" stroke="black" points="175.12,-248 175.12,-289 245.38,-289 245.38,-248 175.12,-248"/>
<text text-anchor="start" x="187.38" y="-274.45" font-family="Times New Roman,serif" font-weight="bold" font-size="9.00">Primary (P)</text>
<text text-anchor="start" x="182.88" y="-265.45" font-family="Times New Roman,serif" font-weight="bold" font-size="9.00">Secondary (P)</text>
<text text-anchor="start" x="182.12" y="-256.45" font-family="Times New Roman,serif" font-weight="bold" font-size="9.00">Secondary (G)</text>
<polygon fill="none" stroke="black" points="245.38,-248 245.38,-289 306.62,-289 306.62,-248 245.38,-248"/>
<text text-anchor="start" x="252.38" y="-266.57" font-family="Times New Roman,serif" font-weight="bold" font-size="9.00">Primary (G)</text>
<polygon fill="none" stroke="black" points="174.12,-247 174.12,-290 307.62,-290 307.62,-247 174.12,-247"/>
</g>
<!-- n_0_1_3_4_5&#45;&gt;n_0_1_3_4 -->
<g id="edge2" class="edge">
<title>n_0_1_3_4_5&#45;&gt;n_0_1_3_4</title>
<path fill="none" stroke="black" d="M326.97,-337.05C312.44,-325.65 295.71,-312.52 280.89,-300.89"/>
<polygon fill="black" stroke="black" points="283.16,-298.23 273.13,-294.81 278.84,-303.73 283.16,-298.23"/>
</g>
<!-- n_5 -->
<g id="node10" class="node">
<title>n_5</title>
<polygon fill="none" stroke="black" points="353.38,-255.88 353.38,-281.12 406.38,-281.12 406.38,-255.88 353.38,-255.88"/>
<text text-anchor="start" x="360.38" y="-266.57" font-family="Times New Roman,serif" font-weight="bold" font-size="9.00">Technical</text>
<polygon fill="none" stroke="black" points="352.38,-254.88 352.38,-282.12 407.38,-282.12 407.38,-254.88 352.38,-254.88"/>
</g>
<!-- n_0_1_3_4_5&#45;&gt;n_5 -->
<g id="edge9" class="edge">
<title>n_0_1_3_4_5&#45;&gt;n_5</title>
<path fill="none" stroke="black" d="M368.68,-337.05C370.75,-324.51 373.18,-309.89 375.24,-297.47"/>
<polygon fill="black" stroke="black" points="378.65,-298.3 376.83,-287.86 371.74,-297.15 378.65,-298.3"/>
</g>
<!-- n_0_3_4 -->
<g id="node4" class="node">
<title>n_0_3_4</title>
<polygon fill="none" stroke="black" points="98.38,-163 98.38,-195 168.62,-195 168.62,-163 98.38,-163"/>
<text text-anchor="start" x="110.62" y="-180.45" font-family="Times New Roman,serif" font-weight="bold" font-size="9.00">Primary (P)</text>
<text text-anchor="start" x="105.38" y="-171.45" font-family="Times New Roman,serif" font-weight="bold" font-size="9.00">Secondary (G)</text>
<polygon fill="none" stroke="black" points="168.62,-163 168.62,-195 237.38,-195 237.38,-163 168.62,-163"/>
<text text-anchor="start" x="175.62" y="-177.07" font-family="Times New Roman,serif" font-weight="bold" font-size="9.00">Secondary (P)</text>
<polygon fill="none" stroke="black" points="97.38,-162 97.38,-196 238.38,-196 238.38,-162 97.38,-162"/>
</g>
<!-- n_0_1_3_4&#45;&gt;n_0_3_4 -->
<g id="edge3" class="edge">
<title>n_0_1_3_4&#45;&gt;n_0_3_4</title>
<path fill="none" stroke="black" d="M220.54,-243.13C211.55,-232.35 200.93,-219.62 191.58,-208.41"/>
<polygon fill="black" stroke="black" points="194.48,-206.42 185.39,-200.99 189.1,-210.91 194.48,-206.42"/>
</g>
<!-- n_1 -->
<g id="node9" class="node">
<title>n_1</title>
<polygon fill="none" stroke="black" points="284.25,-166.38 284.25,-191.62 345.5,-191.62 345.5,-166.38 284.25,-166.38"/>
<text text-anchor="start" x="291.25" y="-177.07" font-family="Times New Roman,serif" font-weight="bold" font-size="9.00">Primary (G)</text>
<polygon fill="none" stroke="black" points="283.25,-165.38 283.25,-192.62 346.5,-192.62 346.5,-165.38 283.25,-165.38"/>
</g>
<!-- n_0_1_3_4&#45;&gt;n_1 -->
<g id="edge8" class="edge">
<title>n_0_1_3_4&#45;&gt;n_1</title>
<path fill="none" stroke="black" d="M261.49,-243.13C271.44,-231.36 283.37,-217.25 293.43,-205.36"/>
<polygon fill="black" stroke="black" points="295.93,-207.82 299.71,-197.93 290.58,-203.3 295.93,-207.82"/>
</g>
<!-- n_0_4 -->
<g id="node5" class="node">
<title>n_0_4</title>
<polygon fill="none" stroke="black" points="29.88,-84.38 29.88,-109.62 89.62,-109.62 89.62,-84.38 29.88,-84.38"/>
<text text-anchor="start" x="36.88" y="-95.08" font-family="Times New Roman,serif" font-weight="bold" font-size="9.00">Primary (P)</text>
<polygon fill="none" stroke="black" points="89.62,-84.38 89.62,-109.62 159.88,-109.62 159.88,-84.38 89.62,-84.38"/>
<text text-anchor="start" x="96.62" y="-95.08" font-family="Times New Roman,serif" font-weight="bold" font-size="9.00">Secondary (G)</text>
<polygon fill="none" stroke="black" points="28.88,-83.38 28.88,-110.62 160.88,-110.62 160.88,-83.38 28.88,-83.38"/>
</g>
<!-- n_0_3_4&#45;&gt;n_0_4 -->
<g id="edge4" class="edge">
<title>n_0_3_4&#45;&gt;n_0_4</title>
<path fill="none" stroke="black" d="M149.83,-158.22C140.14,-147.61 128.1,-134.41 117.75,-123.07"/>
<polygon fill="black" stroke="black" points="120.59,-120.99 111.27,-115.96 115.42,-125.71 120.59,-120.99"/>
</g>
<!-- n_3 -->
<g id="node8" class="node">
<title>n_3</title>
<polygon fill="none" stroke="black" points="206.5,-84.38 206.5,-109.62 275.25,-109.62 275.25,-84.38 206.5,-84.38"/>
<text text-anchor="start" x="213.5" y="-95.08" font-family="Times New Roman,serif" font-weight="bold" font-size="9.00">Secondary (P)</text>
<polygon fill="none" stroke="black" points="205.5,-83.38 205.5,-110.62 276.25,-110.62 276.25,-83.38 205.5,-83.38"/>
</g>
<!-- n_0_3_4&#45;&gt;n_3 -->
<g id="edge7" class="edge">
<title>n_0_3_4&#45;&gt;n_3</title>
<path fill="none" stroke="black" d="M185.92,-158.22C195.61,-147.61 207.65,-134.41 218,-123.07"/>
<polygon fill="black" stroke="black" points="220.33,-125.71 224.48,-115.96 215.16,-120.99 220.33,-125.71"/>
</g>
<!-- n_0 -->
<g id="node6" class="node">
<title>n_0</title>
<polygon fill="none" stroke="black" points="9,-5.38 9,-30.62 68.75,-30.62 68.75,-5.38 9,-5.38"/>
<text text-anchor="start" x="16" y="-16.07" font-family="Times New Roman,serif" font-weight="bold" font-size="9.00">Primary (P)</text>
<polygon fill="none" stroke="black" points="8,-4.38 8,-31.62 69.75,-31.62 69.75,-4.38 8,-4.38"/>
</g>
<!-- n_0_4&#45;&gt;n_0 -->
<g id="edge5" class="edge">
<title>n_0_4&#45;&gt;n_0</title>
<path fill="none" stroke="black" d="M82.72,-79.29C75.44,-69.27 66.01,-56.31 57.77,-44.98"/>
<polygon fill="black" stroke="black" points="60.8,-43.19 52.09,-37.17 55.14,-47.31 60.8,-43.19"/>
</g>
<!-- n_4 -->
<g id="node7" class="node">
<title>n_4</title>
<polygon fill="none" stroke="black" points="115.75,-5.38 115.75,-30.62 186,-30.62 186,-5.38 115.75,-5.38"/>
<text text-anchor="start" x="122.75" y="-16.07" font-family="Times New Roman,serif" font-weight="bold" font-size="9.00">Secondary (G)</text>
<polygon fill="none" stroke="black" points="114.75,-4.38 114.75,-31.62 187,-31.62 187,-4.38 114.75,-4.38"/>
</g>
<!-- n_0_4&#45;&gt;n_4 -->
<g id="edge6" class="edge">
<title>n_0_4&#45;&gt;n_4</title>
<path fill="none" stroke="black" d="M107.03,-79.29C114.31,-69.27 123.74,-56.31 131.98,-44.98"/>
<polygon fill="black" stroke="black" points="134.61,-47.31 137.66,-37.17 128.95,-43.19 134.61,-47.31"/>
</g>
<!-- n_2 -->
<g id="node12" class="node">
<title>n_2</title>
<polygon fill="none" stroke="black" points="484.75,-255.88 484.75,-281.12 537,-281.12 537,-255.88 484.75,-255.88"/>
<text text-anchor="start" x="491.75" y="-266.57" font-family="Times New Roman,serif" font-weight="bold" font-size="9.00">Preschool</text>
<polygon fill="none" stroke="black" points="483.75,-254.88 483.75,-282.12 538,-282.12 538,-254.88 483.75,-254.88"/>
</g>
<!-- n_2_6&#45;&gt;n_2 -->
<g id="edge11" class="edge">
<title>n_2_6&#45;&gt;n_2</title>
<path fill="none" stroke="black" d="M523.26,-349.19C521.06,-335.03 517.86,-314.46 515.27,-297.76"/>
<polygon fill="black" stroke="black" points="518.74,-297.28 513.74,-287.94 511.82,-298.35 518.74,-297.28"/>
</g>
<!-- n_6 -->
<g id="node13" class="node">
<title>n_6</title>
<polygon fill="none" stroke="black" points="583.62,-255.88 583.62,-281.12 638.12,-281.12 638.12,-255.88 583.62,-255.88"/>
<text text-anchor="start" x="590.62" y="-266.57" font-family="Times New Roman,serif" font-weight="bold" font-size="9.00">University</text>
<polygon fill="none" stroke="black" points="582.62,-254.88 582.62,-282.12 639.12,-282.12 639.12,-254.88 582.62,-254.88"/>
</g>
<!-- n_2_6&#45;&gt;n_6 -->
<g id="edge12" class="edge">
<title>n_2_6&#45;&gt;n_6</title>
<path fill="none" stroke="black" d="M540.68,-349.19C553.89,-334.2 573.41,-312.04 588.51,-294.89"/>
<polygon fill="black" stroke="black" points="590.97,-297.39 594.95,-287.58 585.72,-292.77 590.97,-297.39"/>
</g>
</g>
</svg>
