<?xml version="1.0" encoding="UTF-8" standalone="no"?>
<!DOCTYPE svg PUBLIC "-//W3C//DTD SVG 1.1//EN"
 "http://www.w3.org/Graphics/SVG/1.1/DTD/svg11.dtd">
<!-- Generated by graphviz version 10.0.1 (20240210.2158)
 -->
<!-- Title: ND Pages: 1 -->
<svg width="599pt" height="432pt"
 viewBox="0.00 0.00 598.75 432.00" xmlns="http://www.w3.org/2000/svg" xmlns:xlink="http://www.w3.org/1999/xlink">
<g id="graph0" class="graph" transform="scale(1 1) rotate(0) translate(4 428)">
<title>ND</title>
<polygon fill="white" stroke="none" points="-4,4 -4,-428 594.75,-428 594.75,4 -4,4"/>
<!-- n_0_1_2_3_4_5_6 -->
<g id="node1" class="node">
<title>n_0_1_2_3_4_5_6</title>
<polygon fill="none" stroke="black" points="381.12,-351 381.12,-419 451.38,-419 451.38,-351 381.12,-351"/>
<text text-anchor="start" x="393.38" y="-404.45" font-family="Times New Roman,serif" font-weight="bold" font-size="9.00">Primary (P)</text>
<text text-anchor="start" x="392.62" y="-395.45" font-family="Times New Roman,serif" font-weight="bold" font-size="9.00">Primary (G)</text>
<text text-anchor="start" x="397.12" y="-386.45" font-family="Times New Roman,serif" font-weight="bold" font-size="9.00">Preschool</text>
<text text-anchor="start" x="388.12" y="-377.45" font-family="Times New Roman,serif" font-weight="bold" font-size="9.00">Secondary (G)</text>
<text text-anchor="start" x="396.75" y="-368.45" font-family="Times New Roman,serif" font-weight="bold" font-size="9.00">Technical</text>
<text text-anchor="start" x="396" y="-359.45" font-family="Times New Roman,serif" font-weight="bold" font-size="9.00">University</text>
<polygon fill="none" stroke="black" points="451.38,-351 451.38,-419 520.12,-419 520.12,-351 451.38,-351"/>
<text text-anchor="start" x="458.38" y="-383.07" font-family="Times New Roman,serif" font-weight="bold" font-size="9.00">Secondary (P)</text>
<polygon fill="none" stroke="black" points="380.12,-350 380.12,-420 521.12,-420 521.12,-350 380.12,-350"/>
</g>
<!-- n_0_1_2_4_5_6 -->
<g id="node2" class="node">
<title>n_0_1_2_4_5_6</title>
<polygon fill="none" stroke="black" points="312.62,-248 312.62,-298 382.88,-298 382.88,-248 312.62,-248"/>
<text text-anchor="start" x="324.12" y="-283.45" font-family="Times New Roman,serif" font-weight="bold" font-size="9.00">Primary (G)</text>
<text text-anchor="start" x="319.62" y="-274.45" font-family="Times New Roman,serif" font-weight="bold" font-size="9.00">Secondary (G)</text>
<text text-anchor="start" x="328.25" y="-265.45" font-family="Times New Roman,serif" font-weight="bold" font-size="9.00">Technical</text>
<text text-anchor="start" x="327.5" y="-256.45" font-family="Times New Roman,serif" font-weight="bold" font-size="9.00">University</text>
<polygon fill="none" stroke="black" points="382.88,-248 382.88,-298 442.62,-298 442.62,-248 382.88,-248"/>
<text text-anchor="start" x="389.88" y="-274.45" font-family="Times New Roman,serif" font-weight="bold" font-size="9.00">Primary (P)</text>
<text text-anchor="start" x="393.62" y="-265.45" font-family="Times New Roman,serif" font-weight="bold" font-size="9.00">Preschool</text>
<polygon fill="none" stroke="black" points="311.62,-247 311.62,-299 443.62,-299 443.62,-247 311.62,-247"/>
</g>
<!-- n_0_1_2_3_4_5_6&#45;&gt;n_0_1_2_4_5_6 -->
<g id="edge1" class="edge">
<title>n_0_1_2_3_4_5_6&#45;&gt;n_0_1_2_4_5_6</title>
<path fill="none" stroke="black" d="M425.5,-346.14C418.23,-335.19 410.29,-323.22 403,-312.23"/>
<polygon fill="black" stroke="black" points="406.08,-310.55 397.63,-304.15 400.25,-314.42 406.08,-310.55"/>
</g>
<!-- n_3 -->
<g id="node13" class="node">
<title>n_3</title>
<polygon fill="none" stroke="black" points="489.25,-260.38 489.25,-285.62 558,-285.62 558,-260.38 489.25,-260.38"/>
<text text-anchor="start" x="496.25" y="-271.07" font-family="Times New Roman,serif" font-weight="bold" font-size="9.00">Secondary (P)</text>
<polygon fill="none" stroke="black" points="488.25,-259.38 488.25,-286.62 559,-286.62 559,-259.38 488.25,-259.38"/>
</g>
<!-- n_0_1_2_3_4_5_6&#45;&gt;n_3 -->
<g id="edge12" class="edge">
<title>n_0_1_2_3_4_5_6&#45;&gt;n_3</title>
<path fill="none" stroke="black" d="M475.75,-346.14C485.77,-331.04 497.06,-314.02 506.17,-300.31"/>
<polygon fill="black" stroke="black" points="508.9,-302.51 511.52,-292.24 503.07,-298.64 508.9,-302.51"/>
</g>
<!-- n_1_4_5_6 -->
<g id="node3" class="node">
<title>n_1_4_5_6</title>
<polygon fill="none" stroke="black" points="233.25,-163 233.25,-195 303.5,-195 303.5,-163 233.25,-163"/>
<text text-anchor="start" x="244.75" y="-180.45" font-family="Times New Roman,serif" font-weight="bold" font-size="9.00">Primary (G)</text>
<text text-anchor="start" x="240.25" y="-171.45" font-family="Times New Roman,serif" font-weight="bold" font-size="9.00">Secondary (G)</text>
<polygon fill="none" stroke="black" points="303.5,-163 303.5,-195 358,-195 358,-163 303.5,-163"/>
<text text-anchor="start" x="311.25" y="-180.45" font-family="Times New Roman,serif" font-weight="bold" font-size="9.00">Technical</text>
<text text-anchor="start" x="310.5" y="-171.45" font-family="Times New Roman,serif" font-weight="bold" font-size="9.00">University</text>
<polygon fill="none" stroke="black" points="232.25,-162 232.25,-196 359,-196 359,-162 232.25,-162"/>
</g>
<!-- n_0_1_2_4_5_6&#45;&gt;n_1_4_5_6 -->
<g id="edge2" class="edge">
<title>n_0_1_2_4_5_6&#45;&gt;n_1_4_5_6</title>
<path fill="none" stroke="black" d="M351.9,-243.14C341.97,-232 330.64,-219.29 320.77,-208.21"/>
<polygon fill="black" stroke="black" points="323.48,-206 314.22,-200.86 318.26,-210.65 323.48,-206"/>
</g>
<!-- n_0_2 -->
<g id="node10" class="node">
<title>n_0_2</title>
<polygon fill="none" stroke="black" points="404.62,-166.38 404.62,-191.62 464.38,-191.62 464.38,-166.38 404.62,-166.38"/>
<text text-anchor="start" x="411.62" y="-177.07" font-family="Times New Roman,serif" font-weight="bold" font-size="9.00">Primary (P)</text>
<polygon fill="none" stroke="black" points="464.38,-166.38 464.38,-191.62 516.62,-191.62 516.62,-166.38 464.38,-166.38"/>
<text text-anchor="start" x="471.38" y="-177.07" font-family="Times New Roman,serif" font-weight="bold" font-size="9.00">Preschool</text>
<polygon fill="none" stroke="black" points="403.62,-165.38 403.62,-192.62 517.62,-192.62 517.62,-165.38 403.62,-165.38"/>
</g>
<!-- n_0_1_2_4_5_6&#45;&gt;n_0_2 -->
<g id="edge9" class="edge">
<title>n_0_1_2_4_5_6&#45;&gt;n_0_2</title>
<path fill="none" stroke="black" d="M403.66,-243.14C414.57,-231.05 427.14,-217.11 437.7,-205.41"/>
<polygon fill="black" stroke="black" points="440.2,-207.86 444.3,-198.09 435.01,-203.17 440.2,-207.86"/>
</g>
<!-- n_1_4 -->
<g id="node4" class="node">
<title>n_1_4</title>
<polygon fill="none" stroke="black" points="71.88,-84.38 71.88,-109.62 133.12,-109.62 133.12,-84.38 71.88,-84.38"/>
<text text-anchor="start" x="78.88" y="-95.08" font-family="Times New Roman,serif" font-weight="bold" font-size="9.00">Primary (G)</text>
<polygon fill="none" stroke="black" points="133.12,-84.38 133.12,-109.62 203.38,-109.62 203.38,-84.38 133.12,-84.38"/>
<text text-anchor="start" x="140.12" y="-95.08" font-family="Times New Roman,serif" font-weight="bold" font-size="9.00">Secondary (G)</text>
<polygon fill="none" stroke="black" points="70.88,-83.38 70.88,-110.62 204.38,-110.62 204.38,-83.38 70.88,-83.38"/>
</g>
<!-- n_1_4_5_6&#45;&gt;n_1_4 -->
<g id="edge3" class="edge">
<title>n_1_4_5_6&#45;&gt;n_1_4</title>
<path fill="none" stroke="black" d="M256.16,-158.02C233.31,-146.45 204.51,-131.87 181.03,-119.97"/>
<polygon fill="black" stroke="black" points="182.84,-116.97 172.33,-115.57 179.67,-123.21 182.84,-116.97"/>
</g>
<!-- n_5_6 -->
<g id="node7" class="node">
<title>n_5_6</title>
<polygon fill="none" stroke="black" points="250.88,-84.38 250.88,-109.62 303.88,-109.62 303.88,-84.38 250.88,-84.38"/>
<text text-anchor="start" x="257.88" y="-95.08" font-family="Times New Roman,serif" font-weight="bold" font-size="9.00">Technical</text>
<polygon fill="none" stroke="black" points="303.88,-84.38 303.88,-109.62 358.38,-109.62 358.38,-84.38 303.88,-84.38"/>
<text text-anchor="start" x="310.88" y="-95.08" font-family="Times New Roman,serif" font-weight="bold" font-size="9.00">University</text>
<polygon fill="none" stroke="black" points="249.88,-83.38 249.88,-110.62 359.38,-110.62 359.38,-83.38 249.88,-83.38"/>
</g>
<!-- n_1_4_5_6&#45;&gt;n_5_6 -->
<g id="edge6" class="edge">
<title>n_1_4_5_6&#45;&gt;n_5_6</title>
<path fill="none" stroke="black" d="M297.85,-158.22C298.94,-148.54 300.27,-136.72 301.46,-126.11"/>
<polygon fill="black" stroke="black" points="304.92,-126.68 302.56,-116.35 297.96,-125.89 304.92,-126.68"/>
</g>
<!-- n_1 -->
<g id="node5" class="node">
<title>n_1</title>
<polygon fill="none" stroke="black" points="9,-5.38 9,-30.62 70.25,-30.62 70.25,-5.38 9,-5.38"/>
<text text-anchor="start" x="16" y="-16.07" font-family="Times New Roman,serif" font-weight="bold" font-size="9.00">Primary (G)</text>
<polygon fill="none" stroke="black" points="8,-4.38 8,-31.62 71.25,-31.62 71.25,-4.38 8,-4.38"/>
</g>
<!-- n_1_4&#45;&gt;n_1 -->
<g id="edge4" class="edge">
<title>n_1_4&#45;&gt;n_1</title>
<path fill="none" stroke="black" d="M116.36,-79.29C102.84,-68.67 85.12,-54.75 70.12,-42.96"/>
<polygon fill="black" stroke="black" points="72.4,-40.3 62.38,-36.88 68.08,-45.81 72.4,-40.3"/>
</g>
<!-- n_4 -->
<g id="node6" class="node">
<title>n_4</title>
<polygon fill="none" stroke="black" points="117.5,-5.38 117.5,-30.62 187.75,-30.62 187.75,-5.38 117.5,-5.38"/>
<text text-anchor="start" x="124.5" y="-16.07" font-family="Times New Roman,serif" font-weight="bold" font-size="9.00">Secondary (G)</text>
<polygon fill="none" stroke="black" points="116.5,-4.38 116.5,-31.62 188.75,-31.62 188.75,-4.38 116.5,-4.38"/>
</g>
<!-- n_1_4&#45;&gt;n_4 -->
<g id="edge5" class="edge">
<title>n_1_4&#45;&gt;n_4</title>
<path fill="none" stroke="black" d="M140.88,-79.29C142.71,-69.87 145.06,-57.86 147.16,-47.04"/>
<polygon fill="black" stroke="black" points="150.56,-47.91 149.04,-37.43 143.69,-46.57 150.56,-47.91"/>
</g>
<!-- n_5 -->
<g id="node8" class="node">
<title>n_5</title>
<polygon fill="none" stroke="black" points="264.12,-5.38 264.12,-30.62 317.12,-30.62 317.12,-5.38 264.12,-5.38"/>
<text text-anchor="start" x="271.12" y="-16.07" font-family="Times New Roman,serif" font-weight="bold" font-size="9.00">Technical</text>
<polygon fill="none" stroke="black" points="263.12,-4.38 263.12,-31.62 318.12,-31.62 318.12,-4.38 263.12,-4.38"/>
</g>
<!-- n_5_6&#45;&gt;n_5 -->
<g id="edge7" class="edge">
<title>n_5_6&#45;&gt;n_5</title>
<path fill="none" stroke="black" d="M301.59,-79.29C299.87,-69.87 297.69,-57.86 295.72,-47.04"/>
<polygon fill="black" stroke="black" points="299.21,-46.64 293.98,-37.43 292.32,-47.9 299.21,-46.64"/>
</g>
<!-- n_6 -->
<g id="node9" class="node">
<title>n_6</title>
<polygon fill="none" stroke="black" points="364.38,-5.38 364.38,-30.62 418.88,-30.62 418.88,-5.38 364.38,-5.38"/>
<text text-anchor="start" x="371.38" y="-16.07" font-family="Times New Roman,serif" font-weight="bold" font-size="9.00">University</text>
<polygon fill="none" stroke="black" points="363.38,-4.38 363.38,-31.62 419.88,-31.62 419.88,-4.38 363.38,-4.38"/>
</g>
<!-- n_5_6&#45;&gt;n_6 -->
<g id="edge8" class="edge">
<title>n_5_6&#45;&gt;n_6</title>
<path fill="none" stroke="black" d="M323.5,-79.29C335.39,-68.77 350.94,-55.01 364.18,-43.29"/>
<polygon fill="black" stroke="black" points="366.18,-46.19 371.35,-36.94 361.54,-40.95 366.18,-46.19"/>
</g>
<!-- n_0 -->
<g id="node11" class="node">
<title>n_0</title>
<polygon fill="none" stroke="black" points="422.75,-84.38 422.75,-109.62 482.5,-109.62 482.5,-84.38 422.75,-84.38"/>
<text text-anchor="start" x="429.75" y="-95.08" font-family="Times New Roman,serif" font-weight="bold" font-size="9.00">Primary (P)</text>
<polygon fill="none" stroke="black" points="421.75,-83.38 421.75,-110.62 483.5,-110.62 483.5,-83.38 421.75,-83.38"/>
</g>
<!-- n_0_2&#45;&gt;n_0 -->
<g id="edge10" class="edge">
<title>n_0_2&#45;&gt;n_0</title>
<path fill="none" stroke="black" d="M458.93,-161.03C457.92,-150.96 456.62,-137.92 455.46,-126.32"/>
<polygon fill="black" stroke="black" points="458.95,-126.05 454.47,-116.45 451.98,-126.75 458.95,-126.05"/>
</g>
<!-- n_2 -->
<g id="node12" class="node">
<title>n_2</title>
<polygon fill="none" stroke="black" points="529.5,-84.38 529.5,-109.62 581.75,-109.62 581.75,-84.38 529.5,-84.38"/>
<text text-anchor="start" x="536.5" y="-95.08" font-family="Times New Roman,serif" font-weight="bold" font-size="9.00">Preschool</text>
<polygon fill="none" stroke="black" points="528.5,-83.38 528.5,-110.62 582.75,-110.62 582.75,-83.38 528.5,-83.38"/>
</g>
<!-- n_0_2&#45;&gt;n_2 -->
<g id="edge11" class="edge">
<title>n_0_2&#45;&gt;n_2</title>
<path fill="none" stroke="black" d="M480.77,-161.03C494.25,-149.69 512.18,-134.58 527.12,-122.01"/>
<polygon fill="black" stroke="black" points="528.95,-125.04 534.35,-115.92 524.45,-119.68 528.95,-125.04"/>
</g>
</g>
</svg>
