<?xml version="1.0" encoding="UTF-8" standalone="no"?>
<!DOCTYPE svg PUBLIC "-//W3C//DTD SVG 1.1//EN"
 "http://www.w3.org/Graphics/SVG/1.1/DTD/svg11.dtd">
<!-- Generated by graphviz version 10.0.1 (20240210.2158)
 -->
<!-- Title: ND Pages: 1 -->
<svg width="669pt" height="517pt"
 viewBox="0.00 0.00 669.38 517.00" xmlns="http://www.w3.org/2000/svg" xmlns:xlink="http://www.w3.org/1999/xlink">
<g id="graph0" class="graph" transform="scale(1 1) rotate(0) translate(4 513)">
<title>ND</title>
<polygon fill="white" stroke="none" points="-4,4 -4,-513 665.38,-513 665.38,4 -4,4"/>
<!-- n_0_1_2_3_4_5_6 -->
<g id="node1" class="node">
<title>n_0_1_2_3_4_5_6</title>
<polygon fill="none" stroke="black" points="376.62,-445 376.62,-504 446.88,-504 446.88,-445 376.62,-445"/>
<text text-anchor="start" x="388.88" y="-489.45" font-family="Times New Roman,serif" font-weight="bold" font-size="9.00">Primary (P)</text>
<text text-anchor="start" x="388.12" y="-480.45" font-family="Times New Roman,serif" font-weight="bold" font-size="9.00">Primary (G)</text>
<text text-anchor="start" x="392.62" y="-471.45" font-family="Times New Roman,serif" font-weight="bold" font-size="9.00">Preschool</text>
<text text-anchor="start" x="383.62" y="-462.45" font-family="Times New Roman,serif" font-weight="bold" font-size="9.00">Secondary (G)</text>
<text text-anchor="start" x="392.25" y="-453.45" font-family="Times New Roman,serif" font-weight="bold" font-size="9.00">Technical</text>
<polygon fill="none" stroke="black" points="446.88,-445 446.88,-504 515.62,-504 515.62,-445 446.88,-445"/>
<text text-anchor="start" x="453.88" y="-475.95" font-family="Times New Roman,serif" font-weight="bold" font-size="9.00">Secondary (P)</text>
<text text-anchor="start" x="461" y="-466.95" font-family="Times New Roman,serif" font-weight="bold" font-size="9.00">University</text>
<polygon fill="none" stroke="black" points="375.62,-444 375.62,-505 516.62,-505 516.62,-444 375.62,-444"/>
</g>
<!-- n_0_1_2_4_5 -->
<g id="node2" class="node">
<title>n_0_1_2_4_5</title>
<polygon fill="none" stroke="black" points="299.88,-342 299.88,-392 370.12,-392 370.12,-342 299.88,-342"/>
<text text-anchor="start" x="312.12" y="-377.45" font-family="Times New Roman,serif" font-weight="bold" font-size="9.00">Primary (P)</text>
<text text-anchor="start" x="311.38" y="-368.45" font-family="Times New Roman,serif" font-weight="bold" font-size="9.00">Primary (G)</text>
<text text-anchor="start" x="306.88" y="-359.45" font-family="Times New Roman,serif" font-weight="bold" font-size="9.00">Secondary (G)</text>
<text text-anchor="start" x="315.5" y="-350.45" font-family="Times New Roman,serif" font-weight="bold" font-size="9.00">Technical</text>
<polygon fill="none" stroke="black" points="370.12,-342 370.12,-392 422.38,-392 422.38,-342 370.12,-342"/>
<text text-anchor="start" x="377.12" y="-365.07" font-family="Times New Roman,serif" font-weight="bold" font-size="9.00">Preschool</text>
<polygon fill="none" stroke="black" points="298.88,-341 298.88,-393 423.38,-393 423.38,-341 298.88,-341"/>
</g>
<!-- n_0_1_2_3_4_5_6&#45;&gt;n_0_1_2_4_5 -->
<g id="edge1" class="edge">
<title>n_0_1_2_3_4_5_6&#45;&gt;n_0_1_2_4_5</title>
<path fill="none" stroke="black" d="M419.23,-440.12C410.4,-429.16 400.53,-416.91 391.47,-405.66"/>
<polygon fill="black" stroke="black" points="394.36,-403.67 385.36,-398.08 388.91,-408.06 394.36,-403.67"/>
</g>
<!-- n_3_6 -->
<g id="node11" class="node">
<title>n_3_6</title>
<polygon fill="none" stroke="black" points="469.5,-354.38 469.5,-379.62 538.25,-379.62 538.25,-354.38 469.5,-354.38"/>
<text text-anchor="start" x="476.5" y="-365.07" font-family="Times New Roman,serif" font-weight="bold" font-size="9.00">Secondary (P)</text>
<polygon fill="none" stroke="black" points="538.25,-354.38 538.25,-379.62 592.75,-379.62 592.75,-354.38 538.25,-354.38"/>
<text text-anchor="start" x="545.25" y="-365.07" font-family="Times New Roman,serif" font-weight="bold" font-size="9.00">University</text>
<polygon fill="none" stroke="black" points="468.5,-353.38 468.5,-380.62 593.75,-380.62 593.75,-353.38 468.5,-353.38"/>
</g>
<!-- n_0_1_2_3_4_5_6&#45;&gt;n_3_6 -->
<g id="edge10" class="edge">
<title>n_0_1_2_3_4_5_6&#45;&gt;n_3_6</title>
<path fill="none" stroke="black" d="M473.02,-440.12C485.15,-425.06 499.25,-407.57 510.52,-393.58"/>
<polygon fill="black" stroke="black" points="512.97,-396.11 516.52,-386.13 507.52,-391.72 512.97,-396.11"/>
</g>
<!-- n_0_1_4_5 -->
<g id="node3" class="node">
<title>n_0_1_4_5</title>
<polygon fill="none" stroke="black" points="172.38,-248 172.38,-289 242.62,-289 242.62,-248 172.38,-248"/>
<text text-anchor="start" x="184.62" y="-274.45" font-family="Times New Roman,serif" font-weight="bold" font-size="9.00">Primary (P)</text>
<text text-anchor="start" x="179.38" y="-265.45" font-family="Times New Roman,serif" font-weight="bold" font-size="9.00">Secondary (G)</text>
<text text-anchor="start" x="188" y="-256.45" font-family="Times New Roman,serif" font-weight="bold" font-size="9.00">Technical</text>
<polygon fill="none" stroke="black" points="242.62,-248 242.62,-289 303.88,-289 303.88,-248 242.62,-248"/>
<text text-anchor="start" x="249.62" y="-266.57" font-family="Times New Roman,serif" font-weight="bold" font-size="9.00">Primary (G)</text>
<polygon fill="none" stroke="black" points="171.38,-247 171.38,-290 304.88,-290 304.88,-247 171.38,-247"/>
</g>
<!-- n_0_1_2_4_5&#45;&gt;n_0_1_4_5 -->
<g id="edge2" class="edge">
<title>n_0_1_2_4_5&#45;&gt;n_0_1_4_5</title>
<path fill="none" stroke="black" d="M324.22,-337.05C309.69,-325.65 292.96,-312.52 278.14,-300.89"/>
<polygon fill="black" stroke="black" points="280.41,-298.23 270.38,-294.81 276.09,-303.73 280.41,-298.23"/>
</g>
<!-- n_2 -->
<g id="node10" class="node">
<title>n_2</title>
<polygon fill="none" stroke="black" points="351,-255.88 351,-281.12 403.25,-281.12 403.25,-255.88 351,-255.88"/>
<text text-anchor="start" x="358" y="-266.57" font-family="Times New Roman,serif" font-weight="bold" font-size="9.00">Preschool</text>
<polygon fill="none" stroke="black" points="350,-254.88 350,-282.12 404.25,-282.12 404.25,-254.88 350,-254.88"/>
</g>
<!-- n_0_1_2_4_5&#45;&gt;n_2 -->
<g id="edge9" class="edge">
<title>n_0_1_2_4_5&#45;&gt;n_2</title>
<path fill="none" stroke="black" d="M365.93,-337.05C368,-324.51 370.43,-309.89 372.49,-297.47"/>
<polygon fill="black" stroke="black" points="375.9,-298.3 374.08,-287.86 368.99,-297.15 375.9,-298.3"/>
</g>
<!-- n_0_4_5 -->
<g id="node4" class="node">
<title>n_0_4_5</title>
<polygon fill="none" stroke="black" points="102.12,-163 102.12,-195 172.38,-195 172.38,-163 102.12,-163"/>
<text text-anchor="start" x="109.12" y="-180.45" font-family="Times New Roman,serif" font-weight="bold" font-size="9.00">Secondary (G)</text>
<text text-anchor="start" x="117.75" y="-171.45" font-family="Times New Roman,serif" font-weight="bold" font-size="9.00">Technical</text>
<polygon fill="none" stroke="black" points="172.38,-163 172.38,-195 232.12,-195 232.12,-163 172.38,-163"/>
<text text-anchor="start" x="179.38" y="-177.07" font-family="Times New Roman,serif" font-weight="bold" font-size="9.00">Primary (P)</text>
<polygon fill="none" stroke="black" points="101.12,-162 101.12,-196 233.12,-196 233.12,-162 101.12,-162"/>
</g>
<!-- n_0_1_4_5&#45;&gt;n_0_4_5 -->
<g id="edge3" class="edge">
<title>n_0_1_4_5&#45;&gt;n_0_4_5</title>
<path fill="none" stroke="black" d="M218.35,-243.13C209.69,-232.46 199.47,-219.87 190.45,-208.75"/>
<polygon fill="black" stroke="black" points="193.18,-206.56 184.17,-201 187.75,-210.97 193.18,-206.56"/>
</g>
<!-- n_1 -->
<g id="node9" class="node">
<title>n_1</title>
<polygon fill="none" stroke="black" points="279.5,-166.38 279.5,-191.62 340.75,-191.62 340.75,-166.38 279.5,-166.38"/>
<text text-anchor="start" x="286.5" y="-177.07" font-family="Times New Roman,serif" font-weight="bold" font-size="9.00">Primary (G)</text>
<polygon fill="none" stroke="black" points="278.5,-165.38 278.5,-192.62 341.75,-192.62 341.75,-165.38 278.5,-165.38"/>
</g>
<!-- n_0_1_4_5&#45;&gt;n_1 -->
<g id="edge8" class="edge">
<title>n_0_1_4_5&#45;&gt;n_1</title>
<path fill="none" stroke="black" d="M258.18,-243.13C267.86,-231.36 279.47,-217.25 289.26,-205.36"/>
<polygon fill="black" stroke="black" points="291.71,-207.89 295.36,-197.94 286.31,-203.44 291.71,-207.89"/>
</g>
<!-- n_4_5 -->
<g id="node5" class="node">
<title>n_4_5</title>
<polygon fill="none" stroke="black" points="36.5,-84.38 36.5,-109.62 106.75,-109.62 106.75,-84.38 36.5,-84.38"/>
<text text-anchor="start" x="43.5" y="-95.08" font-family="Times New Roman,serif" font-weight="bold" font-size="9.00">Secondary (G)</text>
<polygon fill="none" stroke="black" points="106.75,-84.38 106.75,-109.62 159.75,-109.62 159.75,-84.38 106.75,-84.38"/>
<text text-anchor="start" x="113.75" y="-95.08" font-family="Times New Roman,serif" font-weight="bold" font-size="9.00">Technical</text>
<polygon fill="none" stroke="black" points="35.5,-83.38 35.5,-110.62 160.75,-110.62 160.75,-83.38 35.5,-83.38"/>
</g>
<!-- n_0_4_5&#45;&gt;n_4_5 -->
<g id="edge4" class="edge">
<title>n_0_4_5&#45;&gt;n_4_5</title>
<path fill="none" stroke="black" d="M150.07,-158.22C141,-147.71 129.75,-134.66 120.04,-123.41"/>
<polygon fill="black" stroke="black" points="122.82,-121.28 113.64,-115.99 117.52,-125.85 122.82,-121.28"/>
</g>
<!-- n_0 -->
<g id="node8" class="node">
<title>n_0</title>
<polygon fill="none" stroke="black" points="207.25,-84.38 207.25,-109.62 267,-109.62 267,-84.38 207.25,-84.38"/>
<text text-anchor="start" x="214.25" y="-95.08" font-family="Times New Roman,serif" font-weight="bold" font-size="9.00">Primary (P)</text>
<polygon fill="none" stroke="black" points="206.25,-83.38 206.25,-110.62 268,-110.62 268,-83.38 206.25,-83.38"/>
</g>
<!-- n_0_4_5&#45;&gt;n_0 -->
<g id="edge7" class="edge">
<title>n_0_4_5&#45;&gt;n_0</title>
<path fill="none" stroke="black" d="M184.43,-158.22C193.63,-147.71 205.04,-134.66 214.89,-123.41"/>
<polygon fill="black" stroke="black" points="217.44,-125.81 221.39,-115.98 212.17,-121.2 217.44,-125.81"/>
</g>
<!-- n_4 -->
<g id="node6" class="node">
<title>n_4</title>
<polygon fill="none" stroke="black" points="9,-5.38 9,-30.62 79.25,-30.62 79.25,-5.38 9,-5.38"/>
<text text-anchor="start" x="16" y="-16.07" font-family="Times New Roman,serif" font-weight="bold" font-size="9.00">Secondary (G)</text>
<polygon fill="none" stroke="black" points="8,-4.38 8,-31.62 80.25,-31.62 80.25,-4.38 8,-4.38"/>
</g>
<!-- n_4_5&#45;&gt;n_4 -->
<g id="edge5" class="edge">
<title>n_4_5&#45;&gt;n_4</title>
<path fill="none" stroke="black" d="M86.41,-79.29C79.45,-69.37 70.47,-56.57 62.58,-45.32"/>
<polygon fill="black" stroke="black" points="65.48,-43.36 56.87,-37.18 59.75,-47.38 65.48,-43.36"/>
</g>
<!-- n_5 -->
<g id="node7" class="node">
<title>n_5</title>
<polygon fill="none" stroke="black" points="126.62,-5.38 126.62,-30.62 179.62,-30.62 179.62,-5.38 126.62,-5.38"/>
<text text-anchor="start" x="133.62" y="-16.07" font-family="Times New Roman,serif" font-weight="bold" font-size="9.00">Technical</text>
<polygon fill="none" stroke="black" points="125.62,-4.38 125.62,-31.62 180.62,-31.62 180.62,-4.38 125.62,-4.38"/>
</g>
<!-- n_4_5&#45;&gt;n_5 -->
<g id="edge6" class="edge">
<title>n_4_5&#45;&gt;n_5</title>
<path fill="none" stroke="black" d="M110.06,-79.29C117.22,-69.27 126.47,-56.31 134.57,-44.98"/>
<polygon fill="black" stroke="black" points="137.18,-47.34 140.14,-37.17 131.48,-43.28 137.18,-47.34"/>
</g>
<!-- n_3 -->
<g id="node12" class="node">
<title>n_3</title>
<polygon fill="none" stroke="black" points="481.75,-255.88 481.75,-281.12 550.5,-281.12 550.5,-255.88 481.75,-255.88"/>
<text text-anchor="start" x="488.75" y="-266.57" font-family="Times New Roman,serif" font-weight="bold" font-size="9.00">Secondary (P)</text>
<polygon fill="none" stroke="black" points="480.75,-254.88 480.75,-282.12 551.5,-282.12 551.5,-254.88 480.75,-254.88"/>
</g>
<!-- n_3_6&#45;&gt;n_3 -->
<g id="edge11" class="edge">
<title>n_3_6&#45;&gt;n_3</title>
<path fill="none" stroke="black" d="M528.51,-349.19C526.31,-335.03 523.11,-314.46 520.52,-297.76"/>
<polygon fill="black" stroke="black" points="523.99,-297.28 518.99,-287.94 517.07,-298.35 523.99,-297.28"/>
</g>
<!-- n_6 -->
<g id="node13" class="node">
<title>n_6</title>
<polygon fill="none" stroke="black" points="597.88,-255.88 597.88,-281.12 652.38,-281.12 652.38,-255.88 597.88,-255.88"/>
<text text-anchor="start" x="604.88" y="-266.57" font-family="Times New Roman,serif" font-weight="bold" font-size="9.00">University</text>
<polygon fill="none" stroke="black" points="596.88,-254.88 596.88,-282.12 653.38,-282.12 653.38,-254.88 596.88,-254.88"/>
</g>
<!-- n_3_6&#45;&gt;n_6 -->
<g id="edge12" class="edge">
<title>n_3_6&#45;&gt;n_6</title>
<path fill="none" stroke="black" d="M547.5,-349.19C562.24,-334.06 584.09,-311.63 600.85,-294.42"/>
<polygon fill="black" stroke="black" points="603.1,-297.13 607.57,-287.52 598.08,-292.25 603.1,-297.13"/>
</g>
</g>
</svg>
