<?xml version="1.0" encoding="UTF-8" standalone="no"?>
<!DOCTYPE svg PUBLIC "-//W3C//DTD SVG 1.1//EN"
 "http://www.w3.org/Graphics/SVG/1.1/DTD/svg11.dtd">
<!-- Generated by graphviz version 10.0.1 (20240210.2158)
 -->
<!-- Title: ND Pages: 1 -->
<svg width="566pt" height="638pt"
 viewBox="0.00 0.00 566.38 638.00" xmlns="http://www.w3.org/2000/svg" xmlns:xlink="http://www.w3.org/1999/xlink">
<g id="graph0" class="graph" transform="scale(1 1) rotate(0) translate(4 634)">
<title>ND</title>
<polygon fill="white" stroke="none" points="-4,4 -4,-634 562.38,-634 562.38,4 -4,4"/>
<!-- n_0_1_2_3_4_5_6 -->
<g id="node1" class="node">
<title>n_0_1_2_3_4_5_6</title>
<polygon fill="none" stroke="black" points="387.75,-557 387.75,-625 458,-625 458,-557 387.75,-557"/>
<text text-anchor="start" x="400" y="-610.45" font-family="Times New Roman,serif" font-weight="bold" font-size="9.00">Primary (P)</text>
<text text-anchor="start" x="399.25" y="-601.45" font-family="Times New Roman,serif" font-weight="bold" font-size="9.00">Primary (G)</text>
<text text-anchor="start" x="403.75" y="-592.45" font-family="Times New Roman,serif" font-weight="bold" font-size="9.00">Preschool</text>
<text text-anchor="start" x="395.5" y="-583.45" font-family="Times New Roman,serif" font-weight="bold" font-size="9.00">Secondary (P)</text>
<text text-anchor="start" x="394.75" y="-574.45" font-family="Times New Roman,serif" font-weight="bold" font-size="9.00">Secondary (G)</text>
<text text-anchor="start" x="403.38" y="-565.45" font-family="Times New Roman,serif" font-weight="bold" font-size="9.00">Technical</text>
<polygon fill="none" stroke="black" points="458,-557 458,-625 512.5,-625 512.5,-557 458,-557"/>
<text text-anchor="start" x="465" y="-589.08" font-family="Times New Roman,serif" font-weight="bold" font-size="9.00">University</text>
<polygon fill="none" stroke="black" points="386.75,-556 386.75,-626 513.5,-626 513.5,-556 386.75,-556"/>
</g>
<!-- n_0_1_2_3_4_5 -->
<g id="node2" class="node">
<title>n_0_1_2_3_4_5</title>
<polygon fill="none" stroke="black" points="308.62,-445 308.62,-504 378.88,-504 378.88,-445 308.62,-445"/>
<text text-anchor="start" x="320.88" y="-489.45" font-family="Times New Roman,serif" font-weight="bold" font-size="9.00">Primary (P)</text>
<text text-anchor="start" x="320.12" y="-480.45" font-family="Times New Roman,serif" font-weight="bold" font-size="9.00">Primary (G)</text>
<text text-anchor="start" x="324.62" y="-471.45" font-family="Times New Roman,serif" font-weight="bold" font-size="9.00">Preschool</text>
<text text-anchor="start" x="315.62" y="-462.45" font-family="Times New Roman,serif" font-weight="bold" font-size="9.00">Secondary (G)</text>
<text text-anchor="start" x="324.25" y="-453.45" font-family="Times New Roman,serif" font-weight="bold" font-size="9.00">Technical</text>
<polygon fill="none" stroke="black" points="378.88,-445 378.88,-504 447.62,-504 447.62,-445 378.88,-445"/>
<text text-anchor="start" x="385.88" y="-472.57" font-family="Times New Roman,serif" font-weight="bold" font-size="9.00">Secondary (P)</text>
<polygon fill="none" stroke="black" points="307.62,-444 307.62,-505 448.62,-505 448.62,-444 307.62,-444"/>
</g>
<!-- n_0_1_2_3_4_5_6&#45;&gt;n_0_1_2_3_4_5 -->
<g id="edge1" class="edge">
<title>n_0_1_2_3_4_5_6&#45;&gt;n_0_1_2_3_4_5</title>
<path fill="none" stroke="black" d="M426.35,-552.19C419.51,-541.31 412,-529.36 404.98,-518.21"/>
<polygon fill="black" stroke="black" points="408.06,-516.54 399.78,-509.93 402.14,-520.26 408.06,-516.54"/>
</g>
<!-- n_6 -->
<g id="node13" class="node">
<title>n_6</title>
<polygon fill="none" stroke="black" points="494.88,-461.88 494.88,-487.12 549.38,-487.12 549.38,-461.88 494.88,-461.88"/>
<text text-anchor="start" x="501.88" y="-472.57" font-family="Times New Roman,serif" font-weight="bold" font-size="9.00">University</text>
<polygon fill="none" stroke="black" points="493.88,-460.88 493.88,-488.12 550.38,-488.12 550.38,-460.88 493.88,-460.88"/>
</g>
<!-- n_0_1_2_3_4_5_6&#45;&gt;n_6 -->
<g id="edge12" class="edge">
<title>n_0_1_2_3_4_5_6&#45;&gt;n_6</title>
<path fill="none" stroke="black" d="M473.9,-552.19C484.22,-535.78 496.05,-516.96 505.42,-502.07"/>
<polygon fill="black" stroke="black" points="508.29,-504.07 510.65,-493.74 502.37,-500.35 508.29,-504.07"/>
</g>
<!-- n_0_1_2_4_5 -->
<g id="node3" class="node">
<title>n_0_1_2_4_5</title>
<polygon fill="none" stroke="black" points="239.38,-342 239.38,-392 309.62,-392 309.62,-342 239.38,-342"/>
<text text-anchor="start" x="251.62" y="-377.45" font-family="Times New Roman,serif" font-weight="bold" font-size="9.00">Primary (P)</text>
<text text-anchor="start" x="255.38" y="-368.45" font-family="Times New Roman,serif" font-weight="bold" font-size="9.00">Preschool</text>
<text text-anchor="start" x="246.38" y="-359.45" font-family="Times New Roman,serif" font-weight="bold" font-size="9.00">Secondary (G)</text>
<text text-anchor="start" x="255" y="-350.45" font-family="Times New Roman,serif" font-weight="bold" font-size="9.00">Technical</text>
<polygon fill="none" stroke="black" points="309.62,-342 309.62,-392 370.88,-392 370.88,-342 309.62,-342"/>
<text text-anchor="start" x="316.62" y="-365.07" font-family="Times New Roman,serif" font-weight="bold" font-size="9.00">Primary (G)</text>
<polygon fill="none" stroke="black" points="238.38,-341 238.38,-393 371.88,-393 371.88,-341 238.38,-341"/>
</g>
<!-- n_0_1_2_3_4_5&#45;&gt;n_0_1_2_4_5 -->
<g id="edge2" class="edge">
<title>n_0_1_2_3_4_5&#45;&gt;n_0_1_2_4_5</title>
<path fill="none" stroke="black" d="M355.03,-440.12C347.6,-429.38 339.31,-417.4 331.65,-406.33"/>
<polygon fill="black" stroke="black" points="334.55,-404.37 325.98,-398.14 328.79,-408.36 334.55,-404.37"/>
</g>
<!-- n_3 -->
<g id="node12" class="node">
<title>n_3</title>
<polygon fill="none" stroke="black" points="417.75,-354.38 417.75,-379.62 486.5,-379.62 486.5,-354.38 417.75,-354.38"/>
<text text-anchor="start" x="424.75" y="-365.07" font-family="Times New Roman,serif" font-weight="bold" font-size="9.00">Secondary (P)</text>
<polygon fill="none" stroke="black" points="416.75,-353.38 416.75,-380.62 487.5,-380.62 487.5,-353.38 416.75,-353.38"/>
</g>
<!-- n_0_1_2_3_4_5&#45;&gt;n_3 -->
<g id="edge11" class="edge">
<title>n_0_1_2_3_4_5&#45;&gt;n_3</title>
<path fill="none" stroke="black" d="M401.54,-440.12C412,-425.21 424.14,-407.9 433.9,-393.98"/>
<polygon fill="black" stroke="black" points="436.49,-396.39 439.37,-386.19 430.76,-392.37 436.49,-396.39"/>
</g>
<!-- n_0_2_4_5 -->
<g id="node4" class="node">
<title>n_0_2_4_5</title>
<polygon fill="none" stroke="black" points="169.12,-248 169.12,-289 239.38,-289 239.38,-248 169.12,-248"/>
<text text-anchor="start" x="185.12" y="-274.45" font-family="Times New Roman,serif" font-weight="bold" font-size="9.00">Preschool</text>
<text text-anchor="start" x="176.12" y="-265.45" font-family="Times New Roman,serif" font-weight="bold" font-size="9.00">Secondary (G)</text>
<text text-anchor="start" x="184.75" y="-256.45" font-family="Times New Roman,serif" font-weight="bold" font-size="9.00">Technical</text>
<polygon fill="none" stroke="black" points="239.38,-248 239.38,-289 299.12,-289 299.12,-248 239.38,-248"/>
<text text-anchor="start" x="246.38" y="-266.57" font-family="Times New Roman,serif" font-weight="bold" font-size="9.00">Primary (P)</text>
<polygon fill="none" stroke="black" points="168.12,-247 168.12,-290 300.12,-290 300.12,-247 168.12,-247"/>
</g>
<!-- n_0_1_2_4_5&#45;&gt;n_0_2_4_5 -->
<g id="edge3" class="edge">
<title>n_0_1_2_4_5&#45;&gt;n_0_2_4_5</title>
<path fill="none" stroke="black" d="M283.82,-337.05C275.91,-326.29 266.87,-314 258.69,-302.88"/>
<polygon fill="black" stroke="black" points="261.7,-301.07 252.96,-295.09 256.06,-305.22 261.7,-301.07"/>
</g>
<!-- n_1 -->
<g id="node11" class="node">
<title>n_1</title>
<polygon fill="none" stroke="black" points="346.5,-255.88 346.5,-281.12 407.75,-281.12 407.75,-255.88 346.5,-255.88"/>
<text text-anchor="start" x="353.5" y="-266.57" font-family="Times New Roman,serif" font-weight="bold" font-size="9.00">Primary (G)</text>
<polygon fill="none" stroke="black" points="345.5,-254.88 345.5,-282.12 408.75,-282.12 408.75,-254.88 345.5,-254.88"/>
</g>
<!-- n_0_1_2_4_5&#45;&gt;n_1 -->
<g id="edge10" class="edge">
<title>n_0_1_2_4_5&#45;&gt;n_1</title>
<path fill="none" stroke="black" d="M326.73,-337.05C336.56,-323.86 348.12,-308.38 357.68,-295.56"/>
<polygon fill="black" stroke="black" points="360.46,-297.69 363.64,-287.58 354.85,-293.5 360.46,-297.69"/>
</g>
<!-- n_2_4_5 -->
<g id="node5" class="node">
<title>n_2_4_5</title>
<polygon fill="none" stroke="black" points="103.88,-163 103.88,-195 174.12,-195 174.12,-163 103.88,-163"/>
<text text-anchor="start" x="110.88" y="-180.45" font-family="Times New Roman,serif" font-weight="bold" font-size="9.00">Secondary (G)</text>
<text text-anchor="start" x="119.5" y="-171.45" font-family="Times New Roman,serif" font-weight="bold" font-size="9.00">Technical</text>
<polygon fill="none" stroke="black" points="174.12,-163 174.12,-195 226.38,-195 226.38,-163 174.12,-163"/>
<text text-anchor="start" x="181.12" y="-177.07" font-family="Times New Roman,serif" font-weight="bold" font-size="9.00">Preschool</text>
<polygon fill="none" stroke="black" points="102.88,-162 102.88,-196 227.38,-196 227.38,-162 102.88,-162"/>
</g>
<!-- n_0_2_4_5&#45;&gt;n_2_4_5 -->
<g id="edge4" class="edge">
<title>n_0_2_4_5&#45;&gt;n_2_4_5</title>
<path fill="none" stroke="black" d="M214.9,-243.13C206.49,-232.46 196.56,-219.87 187.79,-208.75"/>
<polygon fill="black" stroke="black" points="190.64,-206.7 181.7,-201.01 185.14,-211.03 190.64,-206.7"/>
</g>
<!-- n_0 -->
<g id="node10" class="node">
<title>n_0</title>
<polygon fill="none" stroke="black" points="273.25,-166.38 273.25,-191.62 333,-191.62 333,-166.38 273.25,-166.38"/>
<text text-anchor="start" x="280.25" y="-177.07" font-family="Times New Roman,serif" font-weight="bold" font-size="9.00">Primary (P)</text>
<polygon fill="none" stroke="black" points="272.25,-165.38 272.25,-192.62 334,-192.62 334,-165.38 272.25,-165.38"/>
</g>
<!-- n_0_2_4_5&#45;&gt;n_0 -->
<g id="edge9" class="edge">
<title>n_0_2_4_5&#45;&gt;n_0</title>
<path fill="none" stroke="black" d="M253.35,-243.13C262.53,-231.48 273.53,-217.53 282.85,-205.71"/>
<polygon fill="black" stroke="black" points="285.52,-207.98 288.96,-197.96 280.02,-203.64 285.52,-207.98"/>
</g>
<!-- n_4_5 -->
<g id="node6" class="node">
<title>n_4_5</title>
<polygon fill="none" stroke="black" points="36.5,-84.38 36.5,-109.62 106.75,-109.62 106.75,-84.38 36.5,-84.38"/>
<text text-anchor="start" x="43.5" y="-95.08" font-family="Times New Roman,serif" font-weight="bold" font-size="9.00">Secondary (G)</text>
<polygon fill="none" stroke="black" points="106.75,-84.38 106.75,-109.62 159.75,-109.62 159.75,-84.38 106.75,-84.38"/>
<text text-anchor="start" x="113.75" y="-95.08" font-family="Times New Roman,serif" font-weight="bold" font-size="9.00">Technical</text>
<polygon fill="none" stroke="black" points="35.5,-83.38 35.5,-110.62 160.75,-110.62 160.75,-83.38 35.5,-83.38"/>
</g>
<!-- n_2_4_5&#45;&gt;n_4_5 -->
<g id="edge5" class="edge">
<title>n_2_4_5&#45;&gt;n_4_5</title>
<path fill="none" stroke="black" d="M148.56,-158.22C139.76,-147.71 128.83,-134.66 119.4,-123.41"/>
<polygon fill="black" stroke="black" points="122.31,-121.42 113.2,-116 116.94,-125.92 122.31,-121.42"/>
</g>
<!-- n_2 -->
<g id="node9" class="node">
<title>n_2</title>
<polygon fill="none" stroke="black" points="207,-84.38 207,-109.62 259.25,-109.62 259.25,-84.38 207,-84.38"/>
<text text-anchor="start" x="214" y="-95.08" font-family="Times New Roman,serif" font-weight="bold" font-size="9.00">Preschool</text>
<polygon fill="none" stroke="black" points="206,-83.38 206,-110.62 260.25,-110.62 260.25,-83.38 206,-83.38"/>
</g>
<!-- n_2_4_5&#45;&gt;n_2 -->
<g id="edge8" class="edge">
<title>n_2_4_5&#45;&gt;n_2</title>
<path fill="none" stroke="black" d="M181.93,-158.22C190.87,-147.71 201.96,-134.66 211.53,-123.41"/>
<polygon fill="black" stroke="black" points="214.02,-125.88 217.83,-116 208.68,-121.35 214.02,-125.88"/>
</g>
<!-- n_4 -->
<g id="node7" class="node">
<title>n_4</title>
<polygon fill="none" stroke="black" points="9,-5.38 9,-30.62 79.25,-30.62 79.25,-5.38 9,-5.38"/>
<text text-anchor="start" x="16" y="-16.07" font-family="Times New Roman,serif" font-weight="bold" font-size="9.00">Secondary (G)</text>
<polygon fill="none" stroke="black" points="8,-4.38 8,-31.62 80.25,-31.62 80.25,-4.38 8,-4.38"/>
</g>
<!-- n_4_5&#45;&gt;n_4 -->
<g id="edge6" class="edge">
<title>n_4_5&#45;&gt;n_4</title>
<path fill="none" stroke="black" d="M86.41,-79.29C79.45,-69.37 70.47,-56.57 62.58,-45.32"/>
<polygon fill="black" stroke="black" points="65.48,-43.36 56.87,-37.18 59.75,-47.38 65.48,-43.36"/>
</g>
<!-- n_5 -->
<g id="node8" class="node">
<title>n_5</title>
<polygon fill="none" stroke="black" points="126.62,-5.38 126.62,-30.62 179.62,-30.62 179.62,-5.38 126.62,-5.38"/>
<text text-anchor="start" x="133.62" y="-16.07" font-family="Times New Roman,serif" font-weight="bold" font-size="9.00">Technical</text>
<polygon fill="none" stroke="black" points="125.62,-4.38 125.62,-31.62 180.62,-31.62 180.62,-4.38 125.62,-4.38"/>
</g>
<!-- n_4_5&#45;&gt;n_5 -->
<g id="edge7" class="edge">
<title>n_4_5&#45;&gt;n_5</title>
<path fill="none" stroke="black" d="M110.06,-79.29C117.22,-69.27 126.47,-56.31 134.57,-44.98"/>
<polygon fill="black" stroke="black" points="137.18,-47.34 140.14,-37.17 131.48,-43.28 137.18,-47.34"/>
</g>
</g>
</svg>
