<?xml version="1.0" encoding="UTF-8" standalone="no"?>
<!DOCTYPE svg PUBLIC "-//W3C//DTD SVG 1.1//EN"
 "http://www.w3.org/Graphics/SVG/1.1/DTD/svg11.dtd">
<!-- Generated by graphviz version 10.0.1 (20240210.2158)
 -->
<!-- Title: ND Pages: 1 -->
<svg width="668pt" height="517pt"
 viewBox="0.00 0.00 667.50 517.00" xmlns="http://www.w3.org/2000/svg" xmlns:xlink="http://www.w3.org/1999/xlink">
<g id="graph0" class="graph" transform="scale(1 1) rotate(0) translate(4 513)">
<title>ND</title>
<polygon fill="white" stroke="none" points="-4,4 -4,-513 663.5,-513 663.5,4 -4,4"/>
<!-- n_0_1_2_3_4_5_6 -->
<g id="node1" class="node">
<title>n_0_1_2_3_4_5_6</title>
<polygon fill="none" stroke="black" points="364.62,-445 364.62,-504 434.88,-504 434.88,-445 364.62,-445"/>
<text text-anchor="start" x="376.88" y="-489.45" font-family="Times New Roman,serif" font-weight="bold" font-size="9.00">Primary (P)</text>
<text text-anchor="start" x="380.62" y="-480.45" font-family="Times New Roman,serif" font-weight="bold" font-size="9.00">Preschool</text>
<text text-anchor="start" x="371.62" y="-471.45" font-family="Times New Roman,serif" font-weight="bold" font-size="9.00">Secondary (G)</text>
<text text-anchor="start" x="380.25" y="-462.45" font-family="Times New Roman,serif" font-weight="bold" font-size="9.00">Technical</text>
<text text-anchor="start" x="379.5" y="-453.45" font-family="Times New Roman,serif" font-weight="bold" font-size="9.00">University</text>
<polygon fill="none" stroke="black" points="434.88,-445 434.88,-504 503.62,-504 503.62,-445 434.88,-445"/>
<text text-anchor="start" x="445.62" y="-475.95" font-family="Times New Roman,serif" font-weight="bold" font-size="9.00">Primary (G)</text>
<text text-anchor="start" x="441.88" y="-466.95" font-family="Times New Roman,serif" font-weight="bold" font-size="9.00">Secondary (P)</text>
<polygon fill="none" stroke="black" points="363.62,-444 363.62,-505 504.62,-505 504.62,-444 363.62,-444"/>
</g>
<!-- n_0_2_4_5_6 -->
<g id="node2" class="node">
<title>n_0_2_4_5_6</title>
<polygon fill="none" stroke="black" points="285.5,-342 285.5,-392 355.75,-392 355.75,-342 285.5,-342"/>
<text text-anchor="start" x="297.75" y="-377.45" font-family="Times New Roman,serif" font-weight="bold" font-size="9.00">Primary (P)</text>
<text text-anchor="start" x="301.5" y="-368.45" font-family="Times New Roman,serif" font-weight="bold" font-size="9.00">Preschool</text>
<text text-anchor="start" x="292.5" y="-359.45" font-family="Times New Roman,serif" font-weight="bold" font-size="9.00">Secondary (G)</text>
<text text-anchor="start" x="300.38" y="-350.45" font-family="Times New Roman,serif" font-weight="bold" font-size="9.00">University</text>
<polygon fill="none" stroke="black" points="355.75,-342 355.75,-392 408.75,-392 408.75,-342 355.75,-342"/>
<text text-anchor="start" x="362.75" y="-365.07" font-family="Times New Roman,serif" font-weight="bold" font-size="9.00">Technical</text>
<polygon fill="none" stroke="black" points="284.5,-341 284.5,-393 409.75,-393 409.75,-341 284.5,-341"/>
</g>
<!-- n_0_1_2_3_4_5_6&#45;&gt;n_0_2_4_5_6 -->
<g id="edge1" class="edge">
<title>n_0_1_2_3_4_5_6&#45;&gt;n_0_2_4_5_6</title>
<path fill="none" stroke="black" d="M406.6,-440.12C397.56,-429.16 387.46,-416.91 378.18,-405.66"/>
<polygon fill="black" stroke="black" points="380.98,-403.55 371.92,-398.07 375.58,-408.01 380.98,-403.55"/>
</g>
<!-- n_1_3 -->
<g id="node11" class="node">
<title>n_1_3</title>
<polygon fill="none" stroke="black" points="456.12,-354.38 456.12,-379.62 517.38,-379.62 517.38,-354.38 456.12,-354.38"/>
<text text-anchor="start" x="463.12" y="-365.07" font-family="Times New Roman,serif" font-weight="bold" font-size="9.00">Primary (G)</text>
<polygon fill="none" stroke="black" points="517.38,-354.38 517.38,-379.62 586.12,-379.62 586.12,-354.38 517.38,-354.38"/>
<text text-anchor="start" x="524.38" y="-365.07" font-family="Times New Roman,serif" font-weight="bold" font-size="9.00">Secondary (P)</text>
<polygon fill="none" stroke="black" points="455.12,-353.38 455.12,-380.62 587.12,-380.62 587.12,-353.38 455.12,-353.38"/>
</g>
<!-- n_0_1_2_3_4_5_6&#45;&gt;n_1_3 -->
<g id="edge10" class="edge">
<title>n_0_1_2_3_4_5_6&#45;&gt;n_1_3</title>
<path fill="none" stroke="black" d="M461.65,-440.12C474.07,-425.06 488.5,-407.57 500.03,-393.58"/>
<polygon fill="black" stroke="black" points="502.52,-396.06 506.18,-386.12 497.12,-391.61 502.52,-396.06"/>
</g>
<!-- n_0_2_4_6 -->
<g id="node3" class="node">
<title>n_0_2_4_6</title>
<polygon fill="none" stroke="black" points="161.12,-248 161.12,-289 231.38,-289 231.38,-248 161.12,-248"/>
<text text-anchor="start" x="177.12" y="-274.45" font-family="Times New Roman,serif" font-weight="bold" font-size="9.00">Preschool</text>
<text text-anchor="start" x="168.12" y="-265.45" font-family="Times New Roman,serif" font-weight="bold" font-size="9.00">Secondary (G)</text>
<text text-anchor="start" x="176" y="-256.45" font-family="Times New Roman,serif" font-weight="bold" font-size="9.00">University</text>
<polygon fill="none" stroke="black" points="231.38,-248 231.38,-289 291.12,-289 291.12,-248 231.38,-248"/>
<text text-anchor="start" x="238.38" y="-266.57" font-family="Times New Roman,serif" font-weight="bold" font-size="9.00">Primary (P)</text>
<polygon fill="none" stroke="black" points="160.12,-247 160.12,-290 292.12,-290 292.12,-247 160.12,-247"/>
</g>
<!-- n_0_2_4_5_6&#45;&gt;n_0_2_4_6 -->
<g id="edge2" class="edge">
<title>n_0_2_4_5_6&#45;&gt;n_0_2_4_6</title>
<path fill="none" stroke="black" d="M310.82,-337.05C296.52,-325.65 280.07,-312.52 265.49,-300.89"/>
<polygon fill="black" stroke="black" points="267.87,-298.32 257.87,-294.82 263.51,-303.79 267.87,-298.32"/>
</g>
<!-- n_5 -->
<g id="node10" class="node">
<title>n_5</title>
<polygon fill="none" stroke="black" points="338.62,-255.88 338.62,-281.12 391.62,-281.12 391.62,-255.88 338.62,-255.88"/>
<text text-anchor="start" x="345.62" y="-266.57" font-family="Times New Roman,serif" font-weight="bold" font-size="9.00">Technical</text>
<polygon fill="none" stroke="black" points="337.62,-254.88 337.62,-282.12 392.62,-282.12 392.62,-254.88 337.62,-254.88"/>
</g>
<!-- n_0_2_4_5_6&#45;&gt;n_5 -->
<g id="edge9" class="edge">
<title>n_0_2_4_5_6&#45;&gt;n_5</title>
<path fill="none" stroke="black" d="M352.53,-337.05C354.86,-324.51 357.59,-309.89 359.91,-297.47"/>
<polygon fill="black" stroke="black" points="363.31,-298.33 361.7,-287.85 356.43,-297.04 363.31,-298.33"/>
</g>
<!-- n_2_4_6 -->
<g id="node4" class="node">
<title>n_2_4_6</title>
<polygon fill="none" stroke="black" points="94.75,-163 94.75,-195 165,-195 165,-163 94.75,-163"/>
<text text-anchor="start" x="110.75" y="-180.45" font-family="Times New Roman,serif" font-weight="bold" font-size="9.00">Preschool</text>
<text text-anchor="start" x="101.75" y="-171.45" font-family="Times New Roman,serif" font-weight="bold" font-size="9.00">Secondary (G)</text>
<polygon fill="none" stroke="black" points="165,-163 165,-195 219.5,-195 219.5,-163 165,-163"/>
<text text-anchor="start" x="172" y="-177.07" font-family="Times New Roman,serif" font-weight="bold" font-size="9.00">University</text>
<polygon fill="none" stroke="black" points="93.75,-162 93.75,-196 220.5,-196 220.5,-162 93.75,-162"/>
</g>
<!-- n_0_2_4_6&#45;&gt;n_2_4_6 -->
<g id="edge3" class="edge">
<title>n_0_2_4_6&#45;&gt;n_2_4_6</title>
<path fill="none" stroke="black" d="M206.9,-243.13C198.49,-232.46 188.56,-219.87 179.79,-208.75"/>
<polygon fill="black" stroke="black" points="182.64,-206.7 173.7,-201.01 177.14,-211.03 182.64,-206.7"/>
</g>
<!-- n_0 -->
<g id="node9" class="node">
<title>n_0</title>
<polygon fill="none" stroke="black" points="266.25,-166.38 266.25,-191.62 326,-191.62 326,-166.38 266.25,-166.38"/>
<text text-anchor="start" x="273.25" y="-177.07" font-family="Times New Roman,serif" font-weight="bold" font-size="9.00">Primary (P)</text>
<polygon fill="none" stroke="black" points="265.25,-165.38 265.25,-192.62 327,-192.62 327,-165.38 265.25,-165.38"/>
</g>
<!-- n_0_2_4_6&#45;&gt;n_0 -->
<g id="edge8" class="edge">
<title>n_0_2_4_6&#45;&gt;n_0</title>
<path fill="none" stroke="black" d="M245.62,-243.13C254.94,-231.48 266.1,-217.53 275.56,-205.71"/>
<polygon fill="black" stroke="black" points="278.25,-207.95 281.76,-197.95 272.78,-203.57 278.25,-207.95"/>
</g>
<!-- n_2_4 -->
<g id="node5" class="node">
<title>n_2_4</title>
<polygon fill="none" stroke="black" points="27.88,-84.38 27.88,-109.62 80.12,-109.62 80.12,-84.38 27.88,-84.38"/>
<text text-anchor="start" x="34.88" y="-95.08" font-family="Times New Roman,serif" font-weight="bold" font-size="9.00">Preschool</text>
<polygon fill="none" stroke="black" points="80.12,-84.38 80.12,-109.62 150.38,-109.62 150.38,-84.38 80.12,-84.38"/>
<text text-anchor="start" x="87.12" y="-95.08" font-family="Times New Roman,serif" font-weight="bold" font-size="9.00">Secondary (G)</text>
<polygon fill="none" stroke="black" points="26.88,-83.38 26.88,-110.62 151.38,-110.62 151.38,-83.38 26.88,-83.38"/>
</g>
<!-- n_2_4_6&#45;&gt;n_2_4 -->
<g id="edge4" class="edge">
<title>n_2_4_6&#45;&gt;n_2_4</title>
<path fill="none" stroke="black" d="M140.32,-158.22C131.38,-147.71 120.29,-134.66 110.72,-123.41"/>
<polygon fill="black" stroke="black" points="113.57,-121.35 104.42,-116 108.23,-125.88 113.57,-121.35"/>
</g>
<!-- n_6 -->
<g id="node8" class="node">
<title>n_6</title>
<polygon fill="none" stroke="black" points="197.88,-84.38 197.88,-109.62 252.38,-109.62 252.38,-84.38 197.88,-84.38"/>
<text text-anchor="start" x="204.88" y="-95.08" font-family="Times New Roman,serif" font-weight="bold" font-size="9.00">University</text>
<polygon fill="none" stroke="black" points="196.88,-83.38 196.88,-110.62 253.38,-110.62 253.38,-83.38 196.88,-83.38"/>
</g>
<!-- n_2_4_6&#45;&gt;n_6 -->
<g id="edge7" class="edge">
<title>n_2_4_6&#45;&gt;n_6</title>
<path fill="none" stroke="black" d="M173.93,-158.22C182.87,-147.71 193.96,-134.66 203.53,-123.41"/>
<polygon fill="black" stroke="black" points="206.02,-125.88 209.83,-116 200.68,-121.35 206.02,-125.88"/>
</g>
<!-- n_2 -->
<g id="node6" class="node">
<title>n_2</title>
<polygon fill="none" stroke="black" points="9,-5.38 9,-30.62 61.25,-30.62 61.25,-5.38 9,-5.38"/>
<text text-anchor="start" x="16" y="-16.07" font-family="Times New Roman,serif" font-weight="bold" font-size="9.00">Preschool</text>
<polygon fill="none" stroke="black" points="8,-4.38 8,-31.62 62.25,-31.62 62.25,-4.38 8,-4.38"/>
</g>
<!-- n_2_4&#45;&gt;n_2 -->
<g id="edge5" class="edge">
<title>n_2_4&#45;&gt;n_2</title>
<path fill="none" stroke="black" d="M77.41,-79.29C70.45,-69.37 61.47,-56.57 53.58,-45.32"/>
<polygon fill="black" stroke="black" points="56.48,-43.36 47.87,-37.18 50.75,-47.38 56.48,-43.36"/>
</g>
<!-- n_4 -->
<g id="node7" class="node">
<title>n_4</title>
<polygon fill="none" stroke="black" points="108,-5.38 108,-30.62 178.25,-30.62 178.25,-5.38 108,-5.38"/>
<text text-anchor="start" x="115" y="-16.07" font-family="Times New Roman,serif" font-weight="bold" font-size="9.00">Secondary (G)</text>
<polygon fill="none" stroke="black" points="107,-4.38 107,-31.62 179.25,-31.62 179.25,-4.38 107,-4.38"/>
</g>
<!-- n_2_4&#45;&gt;n_4 -->
<g id="edge6" class="edge">
<title>n_2_4&#45;&gt;n_4</title>
<path fill="none" stroke="black" d="M100.84,-79.29C107.8,-69.37 116.78,-56.57 124.67,-45.32"/>
<polygon fill="black" stroke="black" points="127.5,-47.38 130.38,-37.18 121.77,-43.36 127.5,-47.38"/>
</g>
<!-- n_1 -->
<g id="node12" class="node">
<title>n_1</title>
<polygon fill="none" stroke="black" points="473.5,-255.88 473.5,-281.12 534.75,-281.12 534.75,-255.88 473.5,-255.88"/>
<text text-anchor="start" x="480.5" y="-266.57" font-family="Times New Roman,serif" font-weight="bold" font-size="9.00">Primary (G)</text>
<polygon fill="none" stroke="black" points="472.5,-254.88 472.5,-282.12 535.75,-282.12 535.75,-254.88 472.5,-254.88"/>
</g>
<!-- n_1_3&#45;&gt;n_1 -->
<g id="edge11" class="edge">
<title>n_1_3&#45;&gt;n_1</title>
<path fill="none" stroke="black" d="M518.16,-349.19C515.67,-335.03 512.04,-314.46 509.1,-297.76"/>
<polygon fill="black" stroke="black" points="512.55,-297.17 507.37,-287.93 505.66,-298.39 512.55,-297.17"/>
</g>
<!-- n_3 -->
<g id="node13" class="node">
<title>n_3</title>
<polygon fill="none" stroke="black" points="581.75,-255.88 581.75,-281.12 650.5,-281.12 650.5,-255.88 581.75,-255.88"/>
<text text-anchor="start" x="588.75" y="-266.57" font-family="Times New Roman,serif" font-weight="bold" font-size="9.00">Secondary (P)</text>
<polygon fill="none" stroke="black" points="580.75,-254.88 580.75,-282.12 651.5,-282.12 651.5,-254.88 580.75,-254.88"/>
</g>
<!-- n_1_3&#45;&gt;n_3 -->
<g id="edge12" class="edge">
<title>n_1_3&#45;&gt;n_3</title>
<path fill="none" stroke="black" d="M537.67,-349.19C552.57,-334.06 574.65,-311.63 591.6,-294.42"/>
<polygon fill="black" stroke="black" points="593.87,-297.1 598.39,-287.52 588.88,-292.19 593.87,-297.1"/>
</g>
</g>
</svg>
