<?xml version="1.0" encoding="UTF-8" standalone="no"?>
<!DOCTYPE svg PUBLIC "-//W3C//DTD SVG 1.1//EN"
 "http://www.w3.org/Graphics/SVG/1.1/DTD/svg11.dtd">
<!-- Generated by graphviz version 10.0.1 (20240210.2158)
 -->
<!-- Title: ND Pages: 1 -->
<svg width="561pt" height="638pt"
 viewBox="0.00 0.00 560.50 638.00" xmlns="http://www.w3.org/2000/svg" xmlns:xlink="http://www.w3.org/1999/xlink">
<g id="graph0" class="graph" transform="scale(1 1) rotate(0) translate(4 634)">
<title>ND</title>
<polygon fill="white" stroke="none" points="-4,4 -4,-634 556.5,-634 556.5,4 -4,4"/>
<!-- n_0_1_2_3_4_5_6 -->
<g id="node1" class="node">
<title>n_0_1_2_3_4_5_6</title>
<polygon fill="none" stroke="black" points="388.12,-557 388.12,-625 458.38,-625 458.38,-557 388.12,-557"/>
<text text-anchor="start" x="400.38" y="-610.45" font-family="Times New Roman,serif" font-weight="bold" font-size="9.00">Primary (P)</text>
<text text-anchor="start" x="399.62" y="-601.45" font-family="Times New Roman,serif" font-weight="bold" font-size="9.00">Primary (G)</text>
<text text-anchor="start" x="395.88" y="-592.45" font-family="Times New Roman,serif" font-weight="bold" font-size="9.00">Secondary (P)</text>
<text text-anchor="start" x="395.12" y="-583.45" font-family="Times New Roman,serif" font-weight="bold" font-size="9.00">Secondary (G)</text>
<text text-anchor="start" x="403.75" y="-574.45" font-family="Times New Roman,serif" font-weight="bold" font-size="9.00">Technical</text>
<text text-anchor="start" x="403" y="-565.45" font-family="Times New Roman,serif" font-weight="bold" font-size="9.00">University</text>
<polygon fill="none" stroke="black" points="458.38,-557 458.38,-625 510.62,-625 510.62,-557 458.38,-557"/>
<text text-anchor="start" x="465.38" y="-589.08" font-family="Times New Roman,serif" font-weight="bold" font-size="9.00">Preschool</text>
<polygon fill="none" stroke="black" points="387.12,-556 387.12,-626 511.62,-626 511.62,-556 387.12,-556"/>
</g>
<!-- n_0_1_3_4_5_6 -->
<g id="node2" class="node">
<title>n_0_1_3_4_5_6</title>
<polygon fill="none" stroke="black" points="319,-445 319,-504 389.25,-504 389.25,-445 319,-445"/>
<text text-anchor="start" x="331.25" y="-489.45" font-family="Times New Roman,serif" font-weight="bold" font-size="9.00">Primary (P)</text>
<text text-anchor="start" x="330.5" y="-480.45" font-family="Times New Roman,serif" font-weight="bold" font-size="9.00">Primary (G)</text>
<text text-anchor="start" x="326.75" y="-471.45" font-family="Times New Roman,serif" font-weight="bold" font-size="9.00">Secondary (P)</text>
<text text-anchor="start" x="326" y="-462.45" font-family="Times New Roman,serif" font-weight="bold" font-size="9.00">Secondary (G)</text>
<text text-anchor="start" x="334.62" y="-453.45" font-family="Times New Roman,serif" font-weight="bold" font-size="9.00">Technical</text>
<polygon fill="none" stroke="black" points="389.25,-445 389.25,-504 443.75,-504 443.75,-445 389.25,-445"/>
<text text-anchor="start" x="396.25" y="-472.57" font-family="Times New Roman,serif" font-weight="bold" font-size="9.00">University</text>
<polygon fill="none" stroke="black" points="318,-444 318,-505 444.75,-505 444.75,-444 318,-444"/>
</g>
<!-- n_0_1_2_3_4_5_6&#45;&gt;n_0_1_3_4_5_6 -->
<g id="edge1" class="edge">
<title>n_0_1_2_3_4_5_6&#45;&gt;n_0_1_3_4_5_6</title>
<path fill="none" stroke="black" d="M426.92,-552.19C420.52,-541.42 413.51,-529.6 406.94,-518.54"/>
<polygon fill="black" stroke="black" points="409.95,-516.76 401.84,-509.95 403.93,-520.34 409.95,-516.76"/>
</g>
<!-- n_2 -->
<g id="node13" class="node">
<title>n_2</title>
<polygon fill="none" stroke="black" points="491.25,-461.88 491.25,-487.12 543.5,-487.12 543.5,-461.88 491.25,-461.88"/>
<text text-anchor="start" x="498.25" y="-472.57" font-family="Times New Roman,serif" font-weight="bold" font-size="9.00">Preschool</text>
<polygon fill="none" stroke="black" points="490.25,-460.88 490.25,-488.12 544.5,-488.12 544.5,-460.88 490.25,-460.88"/>
</g>
<!-- n_0_1_2_3_4_5_6&#45;&gt;n_2 -->
<g id="edge12" class="edge">
<title>n_0_1_2_3_4_5_6&#45;&gt;n_2</title>
<path fill="none" stroke="black" d="M471.83,-552.19C481.57,-535.78 492.75,-516.96 501.6,-502.07"/>
<polygon fill="black" stroke="black" points="504.43,-504.15 506.53,-493.76 498.41,-500.58 504.43,-504.15"/>
</g>
<!-- n_0_1_3_4_5 -->
<g id="node3" class="node">
<title>n_0_1_3_4_5</title>
<polygon fill="none" stroke="black" points="247.38,-342 247.38,-392 317.62,-392 317.62,-342 247.38,-342"/>
<text text-anchor="start" x="258.88" y="-377.45" font-family="Times New Roman,serif" font-weight="bold" font-size="9.00">Primary (G)</text>
<text text-anchor="start" x="255.12" y="-368.45" font-family="Times New Roman,serif" font-weight="bold" font-size="9.00">Secondary (P)</text>
<text text-anchor="start" x="254.38" y="-359.45" font-family="Times New Roman,serif" font-weight="bold" font-size="9.00">Secondary (G)</text>
<text text-anchor="start" x="263" y="-350.45" font-family="Times New Roman,serif" font-weight="bold" font-size="9.00">Technical</text>
<polygon fill="none" stroke="black" points="317.62,-342 317.62,-392 377.38,-392 377.38,-342 317.62,-342"/>
<text text-anchor="start" x="324.62" y="-365.07" font-family="Times New Roman,serif" font-weight="bold" font-size="9.00">Primary (P)</text>
<polygon fill="none" stroke="black" points="246.38,-341 246.38,-393 378.38,-393 378.38,-341 246.38,-341"/>
</g>
<!-- n_0_1_3_4_5_6&#45;&gt;n_0_1_3_4_5 -->
<g id="edge2" class="edge">
<title>n_0_1_3_4_5_6&#45;&gt;n_0_1_3_4_5</title>
<path fill="none" stroke="black" d="M359.54,-440.12C352.52,-429.38 344.68,-417.4 337.45,-406.33"/>
<polygon fill="black" stroke="black" points="340.51,-404.62 332.1,-398.16 334.65,-408.45 340.51,-404.62"/>
</g>
<!-- n_6 -->
<g id="node12" class="node">
<title>n_6</title>
<polygon fill="none" stroke="black" points="424.12,-354.38 424.12,-379.62 478.62,-379.62 478.62,-354.38 424.12,-354.38"/>
<text text-anchor="start" x="431.12" y="-365.07" font-family="Times New Roman,serif" font-weight="bold" font-size="9.00">University</text>
<polygon fill="none" stroke="black" points="423.12,-353.38 423.12,-380.62 479.62,-380.62 479.62,-353.38 423.12,-353.38"/>
</g>
<!-- n_0_1_3_4_5_6&#45;&gt;n_6 -->
<g id="edge11" class="edge">
<title>n_0_1_3_4_5_6&#45;&gt;n_6</title>
<path fill="none" stroke="black" d="M403.52,-440.12C413.32,-425.35 424.68,-408.23 433.87,-394.38"/>
<polygon fill="black" stroke="black" points="436.68,-396.48 439.29,-386.21 430.85,-392.61 436.68,-396.48"/>
</g>
<!-- n_1_3_4_5 -->
<g id="node4" class="node">
<title>n_1_3_4_5</title>
<polygon fill="none" stroke="black" points="175.62,-248 175.62,-289 245.88,-289 245.88,-248 175.62,-248"/>
<text text-anchor="start" x="183.38" y="-274.45" font-family="Times New Roman,serif" font-weight="bold" font-size="9.00">Secondary (P)</text>
<text text-anchor="start" x="182.62" y="-265.45" font-family="Times New Roman,serif" font-weight="bold" font-size="9.00">Secondary (G)</text>
<text text-anchor="start" x="191.25" y="-256.45" font-family="Times New Roman,serif" font-weight="bold" font-size="9.00">Technical</text>
<polygon fill="none" stroke="black" points="245.88,-248 245.88,-289 307.12,-289 307.12,-248 245.88,-248"/>
<text text-anchor="start" x="252.88" y="-266.57" font-family="Times New Roman,serif" font-weight="bold" font-size="9.00">Primary (G)</text>
<polygon fill="none" stroke="black" points="174.62,-247 174.62,-290 308.12,-290 308.12,-247 174.62,-247"/>
</g>
<!-- n_0_1_3_4_5&#45;&gt;n_1_3_4_5 -->
<g id="edge3" class="edge">
<title>n_0_1_3_4_5&#45;&gt;n_1_3_4_5</title>
<path fill="none" stroke="black" d="M291.07,-337.05C283.16,-326.29 274.12,-314 265.94,-302.88"/>
<polygon fill="black" stroke="black" points="268.95,-301.07 260.21,-295.09 263.31,-305.22 268.95,-301.07"/>
</g>
<!-- n_0 -->
<g id="node11" class="node">
<title>n_0</title>
<polygon fill="none" stroke="black" points="354.5,-255.88 354.5,-281.12 414.25,-281.12 414.25,-255.88 354.5,-255.88"/>
<text text-anchor="start" x="361.5" y="-266.57" font-family="Times New Roman,serif" font-weight="bold" font-size="9.00">Primary (P)</text>
<polygon fill="none" stroke="black" points="353.5,-254.88 353.5,-282.12 415.25,-282.12 415.25,-254.88 353.5,-254.88"/>
</g>
<!-- n_0_1_3_4_5&#45;&gt;n_0 -->
<g id="edge10" class="edge">
<title>n_0_1_3_4_5&#45;&gt;n_0</title>
<path fill="none" stroke="black" d="M333.98,-337.05C343.81,-323.86 355.37,-308.38 364.93,-295.56"/>
<polygon fill="black" stroke="black" points="367.71,-297.69 370.89,-287.58 362.1,-293.5 367.71,-297.69"/>
</g>
<!-- n_3_4_5 -->
<g id="node5" class="node">
<title>n_3_4_5</title>
<polygon fill="none" stroke="black" points="98.88,-163 98.88,-195 167.62,-195 167.62,-163 98.88,-163"/>
<text text-anchor="start" x="105.88" y="-180.45" font-family="Times New Roman,serif" font-weight="bold" font-size="9.00">Secondary (P)</text>
<text text-anchor="start" x="113.75" y="-171.45" font-family="Times New Roman,serif" font-weight="bold" font-size="9.00">Technical</text>
<polygon fill="none" stroke="black" points="167.62,-163 167.62,-195 237.88,-195 237.88,-163 167.62,-163"/>
<text text-anchor="start" x="174.62" y="-177.07" font-family="Times New Roman,serif" font-weight="bold" font-size="9.00">Secondary (G)</text>
<polygon fill="none" stroke="black" points="97.88,-162 97.88,-196 238.88,-196 238.88,-162 97.88,-162"/>
</g>
<!-- n_1_3_4_5&#45;&gt;n_3_4_5 -->
<g id="edge4" class="edge">
<title>n_1_3_4_5&#45;&gt;n_3_4_5</title>
<path fill="none" stroke="black" d="M221.04,-243.13C212.05,-232.35 201.43,-219.62 192.08,-208.41"/>
<polygon fill="black" stroke="black" points="194.98,-206.42 185.89,-200.99 189.6,-210.91 194.98,-206.42"/>
</g>
<!-- n_1 -->
<g id="node10" class="node">
<title>n_1</title>
<polygon fill="none" stroke="black" points="284.75,-166.38 284.75,-191.62 346,-191.62 346,-166.38 284.75,-166.38"/>
<text text-anchor="start" x="291.75" y="-177.07" font-family="Times New Roman,serif" font-weight="bold" font-size="9.00">Primary (G)</text>
<polygon fill="none" stroke="black" points="283.75,-165.38 283.75,-192.62 347,-192.62 347,-165.38 283.75,-165.38"/>
</g>
<!-- n_1_3_4_5&#45;&gt;n_1 -->
<g id="edge9" class="edge">
<title>n_1_3_4_5&#45;&gt;n_1</title>
<path fill="none" stroke="black" d="M261.99,-243.13C271.94,-231.36 283.87,-217.25 293.93,-205.36"/>
<polygon fill="black" stroke="black" points="296.43,-207.82 300.21,-197.93 291.08,-203.3 296.43,-207.82"/>
</g>
<!-- n_3_5 -->
<g id="node6" class="node">
<title>n_3_5</title>
<polygon fill="none" stroke="black" points="36.5,-84.38 36.5,-109.62 105.25,-109.62 105.25,-84.38 36.5,-84.38"/>
<text text-anchor="start" x="43.5" y="-95.08" font-family="Times New Roman,serif" font-weight="bold" font-size="9.00">Secondary (P)</text>
<polygon fill="none" stroke="black" points="105.25,-84.38 105.25,-109.62 158.25,-109.62 158.25,-84.38 105.25,-84.38"/>
<text text-anchor="start" x="112.25" y="-95.08" font-family="Times New Roman,serif" font-weight="bold" font-size="9.00">Technical</text>
<polygon fill="none" stroke="black" points="35.5,-83.38 35.5,-110.62 159.25,-110.62 159.25,-83.38 35.5,-83.38"/>
</g>
<!-- n_3_4_5&#45;&gt;n_3_5 -->
<g id="edge5" class="edge">
<title>n_3_4_5&#45;&gt;n_3_5</title>
<path fill="none" stroke="black" d="M150.82,-158.22C141.49,-147.71 129.91,-134.66 119.92,-123.41"/>
<polygon fill="black" stroke="black" points="122.58,-121.13 113.33,-115.98 117.35,-125.78 122.58,-121.13"/>
</g>
<!-- n_4 -->
<g id="node9" class="node">
<title>n_4</title>
<polygon fill="none" stroke="black" points="205.25,-84.38 205.25,-109.62 275.5,-109.62 275.5,-84.38 205.25,-84.38"/>
<text text-anchor="start" x="212.25" y="-95.08" font-family="Times New Roman,serif" font-weight="bold" font-size="9.00">Secondary (G)</text>
<polygon fill="none" stroke="black" points="204.25,-83.38 204.25,-110.62 276.5,-110.62 276.5,-83.38 204.25,-83.38"/>
</g>
<!-- n_3_4_5&#45;&gt;n_4 -->
<g id="edge8" class="edge">
<title>n_3_4_5&#45;&gt;n_4</title>
<path fill="none" stroke="black" d="M186.17,-158.22C195.73,-147.61 207.61,-134.41 217.81,-123.07"/>
<polygon fill="black" stroke="black" points="220.11,-125.74 224.2,-115.97 214.91,-121.06 220.11,-125.74"/>
</g>
<!-- n_3 -->
<g id="node7" class="node">
<title>n_3</title>
<polygon fill="none" stroke="black" points="9,-5.38 9,-30.62 77.75,-30.62 77.75,-5.38 9,-5.38"/>
<text text-anchor="start" x="16" y="-16.07" font-family="Times New Roman,serif" font-weight="bold" font-size="9.00">Secondary (P)</text>
<polygon fill="none" stroke="black" points="8,-4.38 8,-31.62 78.75,-31.62 78.75,-4.38 8,-4.38"/>
</g>
<!-- n_3_5&#45;&gt;n_3 -->
<g id="edge6" class="edge">
<title>n_3_5&#45;&gt;n_3</title>
<path fill="none" stroke="black" d="M85.66,-79.29C78.7,-69.37 69.72,-56.57 61.83,-45.32"/>
<polygon fill="black" stroke="black" points="64.73,-43.36 56.12,-37.18 59,-47.38 64.73,-43.36"/>
</g>
<!-- n_5 -->
<g id="node8" class="node">
<title>n_5</title>
<polygon fill="none" stroke="black" points="124.88,-5.38 124.88,-30.62 177.88,-30.62 177.88,-5.38 124.88,-5.38"/>
<text text-anchor="start" x="131.88" y="-16.07" font-family="Times New Roman,serif" font-weight="bold" font-size="9.00">Technical</text>
<polygon fill="none" stroke="black" points="123.88,-4.38 123.88,-31.62 178.88,-31.62 178.88,-4.38 123.88,-4.38"/>
</g>
<!-- n_3_5&#45;&gt;n_5 -->
<g id="edge7" class="edge">
<title>n_3_5&#45;&gt;n_5</title>
<path fill="none" stroke="black" d="M109.09,-79.29C116.05,-69.37 125.03,-56.57 132.92,-45.32"/>
<polygon fill="black" stroke="black" points="135.75,-47.38 138.63,-37.18 130.02,-43.36 135.75,-47.38"/>
</g>
</g>
</svg>
