<?xml version="1.0" encoding="UTF-8" standalone="no"?>
<!DOCTYPE svg PUBLIC "-//W3C//DTD SVG 1.1//EN"
 "http://www.w3.org/Graphics/SVG/1.1/DTD/svg11.dtd">
<!-- Generated by graphviz version 10.0.1 (20240210.2158)
 -->
<!-- Title: ND Pages: 1 -->
<svg width="595pt" height="405pt"
 viewBox="0.00 0.00 595.00 405.00" xmlns="http://www.w3.org/2000/svg" xmlns:xlink="http://www.w3.org/1999/xlink">
<g id="graph0" class="graph" transform="scale(1 1) rotate(0) translate(4 401)">
<title>ND</title>
<polygon fill="white" stroke="none" points="-4,4 -4,-401 591,-401 591,4 -4,4"/>
<!-- n_0_1_2_3_4_5_6 -->
<g id="node1" class="node">
<title>n_0_1_2_3_4_5_6</title>
<polygon fill="none" stroke="black" points="286.5,-342 286.5,-392 356.75,-392 356.75,-342 286.5,-342"/>
<text text-anchor="start" x="298.75" y="-377.45" font-family="Times New Roman,serif" font-weight="bold" font-size="9.00">Primary (P)</text>
<text text-anchor="start" x="298" y="-368.45" font-family="Times New Roman,serif" font-weight="bold" font-size="9.00">Primary (G)</text>
<text text-anchor="start" x="294.25" y="-359.45" font-family="Times New Roman,serif" font-weight="bold" font-size="9.00">Secondary (P)</text>
<text text-anchor="start" x="293.5" y="-350.45" font-family="Times New Roman,serif" font-weight="bold" font-size="9.00">Secondary (G)</text>
<polygon fill="none" stroke="black" points="356.75,-342 356.75,-392 411.25,-392 411.25,-342 356.75,-342"/>
<text text-anchor="start" x="364.88" y="-372.95" font-family="Times New Roman,serif" font-weight="bold" font-size="9.00">Preschool</text>
<text text-anchor="start" x="364.5" y="-363.95" font-family="Times New Roman,serif" font-weight="bold" font-size="9.00">Technical</text>
<text text-anchor="start" x="363.75" y="-354.95" font-family="Times New Roman,serif" font-weight="bold" font-size="9.00">University</text>
<polygon fill="none" stroke="black" points="285.5,-341 285.5,-393 412.25,-393 412.25,-341 285.5,-341"/>
</g>
<!-- n_0_1_3_4 -->
<g id="node2" class="node">
<title>n_0_1_3_4</title>
<polygon fill="none" stroke="black" points="194.38,-248 194.38,-289 263.12,-289 263.12,-248 194.38,-248"/>
<text text-anchor="start" x="205.88" y="-274.45" font-family="Times New Roman,serif" font-weight="bold" font-size="9.00">Primary (P)</text>
<text text-anchor="start" x="205.12" y="-265.45" font-family="Times New Roman,serif" font-weight="bold" font-size="9.00">Primary (G)</text>
<text text-anchor="start" x="201.38" y="-256.45" font-family="Times New Roman,serif" font-weight="bold" font-size="9.00">Secondary (P)</text>
<polygon fill="none" stroke="black" points="263.12,-248 263.12,-289 333.38,-289 333.38,-248 263.12,-248"/>
<text text-anchor="start" x="270.12" y="-266.57" font-family="Times New Roman,serif" font-weight="bold" font-size="9.00">Secondary (G)</text>
<polygon fill="none" stroke="black" points="193.38,-247 193.38,-290 334.38,-290 334.38,-247 193.38,-247"/>
</g>
<!-- n_0_1_2_3_4_5_6&#45;&gt;n_0_1_3_4 -->
<g id="edge1" class="edge">
<title>n_0_1_2_3_4_5_6&#45;&gt;n_0_1_3_4</title>
<path fill="none" stroke="black" d="M323.37,-337.05C313.71,-326.08 302.64,-313.51 292.69,-302.22"/>
<polygon fill="black" stroke="black" points="295.58,-300.2 286.35,-295.01 290.33,-304.83 295.58,-300.2"/>
</g>
<!-- n_2_5_6 -->
<g id="node9" class="node">
<title>n_2_5_6</title>
<polygon fill="none" stroke="black" points="380.5,-252.5 380.5,-284.5 435,-284.5 435,-252.5 380.5,-252.5"/>
<text text-anchor="start" x="388.25" y="-269.95" font-family="Times New Roman,serif" font-weight="bold" font-size="9.00">Technical</text>
<text text-anchor="start" x="387.5" y="-260.95" font-family="Times New Roman,serif" font-weight="bold" font-size="9.00">University</text>
<polygon fill="none" stroke="black" points="435,-252.5 435,-284.5 487.25,-284.5 487.25,-252.5 435,-252.5"/>
<text text-anchor="start" x="442" y="-266.57" font-family="Times New Roman,serif" font-weight="bold" font-size="9.00">Preschool</text>
<polygon fill="none" stroke="black" points="379.5,-251.5 379.5,-285.5 488.25,-285.5 488.25,-251.5 379.5,-251.5"/>
</g>
<!-- n_0_1_2_3_4_5_6&#45;&gt;n_2_5_6 -->
<g id="edge8" class="edge">
<title>n_0_1_2_3_4_5_6&#45;&gt;n_2_5_6</title>
<path fill="none" stroke="black" d="M374.38,-337.05C385.32,-324.63 398.06,-310.17 408.93,-297.82"/>
<polygon fill="black" stroke="black" points="411.49,-300.21 415.47,-290.4 406.23,-295.59 411.49,-300.21"/>
</g>
<!-- n_0_1_3 -->
<g id="node3" class="node">
<title>n_0_1_3</title>
<polygon fill="none" stroke="black" points="60.88,-163 60.88,-195 129.62,-195 129.62,-163 60.88,-163"/>
<text text-anchor="start" x="72.38" y="-180.45" font-family="Times New Roman,serif" font-weight="bold" font-size="9.00">Primary (P)</text>
<text text-anchor="start" x="67.88" y="-171.45" font-family="Times New Roman,serif" font-weight="bold" font-size="9.00">Secondary (P)</text>
<polygon fill="none" stroke="black" points="129.62,-163 129.62,-195 190.88,-195 190.88,-163 129.62,-163"/>
<text text-anchor="start" x="136.62" y="-177.07" font-family="Times New Roman,serif" font-weight="bold" font-size="9.00">Primary (G)</text>
<polygon fill="none" stroke="black" points="59.88,-162 59.88,-196 191.88,-196 191.88,-162 59.88,-162"/>
</g>
<!-- n_0_1_3_4&#45;&gt;n_0_1_3 -->
<g id="edge2" class="edge">
<title>n_0_1_3_4&#45;&gt;n_0_1_3</title>
<path fill="none" stroke="black" d="M225.43,-243.13C207.18,-231.55 185.35,-217.71 166.79,-205.94"/>
<polygon fill="black" stroke="black" points="168.74,-203.04 158.42,-200.64 164.99,-208.95 168.74,-203.04"/>
</g>
<!-- n_4 -->
<g id="node8" class="node">
<title>n_4</title>
<polygon fill="none" stroke="black" points="237.75,-166.38 237.75,-191.62 308,-191.62 308,-166.38 237.75,-166.38"/>
<text text-anchor="start" x="244.75" y="-177.07" font-family="Times New Roman,serif" font-weight="bold" font-size="9.00">Secondary (G)</text>
<polygon fill="none" stroke="black" points="236.75,-165.38 236.75,-192.62 309,-192.62 309,-165.38 236.75,-165.38"/>
</g>
<!-- n_0_1_3_4&#45;&gt;n_4 -->
<g id="edge7" class="edge">
<title>n_0_1_3_4&#45;&gt;n_4</title>
<path fill="none" stroke="black" d="M266.38,-243.13C267.5,-232.28 268.82,-219.45 269.97,-208.19"/>
<polygon fill="black" stroke="black" points="273.45,-208.58 271,-198.28 266.49,-207.87 273.45,-208.58"/>
</g>
<!-- n_0_3 -->
<g id="node4" class="node">
<title>n_0_3</title>
<polygon fill="none" stroke="black" points="29.62,-84.38 29.62,-109.62 89.38,-109.62 89.38,-84.38 29.62,-84.38"/>
<text text-anchor="start" x="36.62" y="-95.08" font-family="Times New Roman,serif" font-weight="bold" font-size="9.00">Primary (P)</text>
<polygon fill="none" stroke="black" points="89.38,-84.38 89.38,-109.62 158.12,-109.62 158.12,-84.38 89.38,-84.38"/>
<text text-anchor="start" x="96.38" y="-95.08" font-family="Times New Roman,serif" font-weight="bold" font-size="9.00">Secondary (P)</text>
<polygon fill="none" stroke="black" points="28.62,-83.38 28.62,-110.62 159.12,-110.62 159.12,-83.38 28.62,-83.38"/>
</g>
<!-- n_0_1_3&#45;&gt;n_0_3 -->
<g id="edge3" class="edge">
<title>n_0_1_3&#45;&gt;n_0_3</title>
<path fill="none" stroke="black" d="M117.96,-158.22C114.01,-148.33 109.16,-136.21 104.85,-125.43"/>
<polygon fill="black" stroke="black" points="108.14,-124.23 101.17,-116.25 101.64,-126.83 108.14,-124.23"/>
</g>
<!-- n_1 -->
<g id="node7" class="node">
<title>n_1</title>
<polygon fill="none" stroke="black" points="205.25,-84.38 205.25,-109.62 266.5,-109.62 266.5,-84.38 205.25,-84.38"/>
<text text-anchor="start" x="212.25" y="-95.08" font-family="Times New Roman,serif" font-weight="bold" font-size="9.00">Primary (G)</text>
<polygon fill="none" stroke="black" points="204.25,-83.38 204.25,-110.62 267.5,-110.62 267.5,-83.38 204.25,-83.38"/>
</g>
<!-- n_0_1_3&#45;&gt;n_1 -->
<g id="edge6" class="edge">
<title>n_0_1_3&#45;&gt;n_1</title>
<path fill="none" stroke="black" d="M153.35,-158.02C168.67,-146.88 187.83,-132.94 203.83,-121.31"/>
<polygon fill="black" stroke="black" points="205.58,-124.36 211.61,-115.65 201.46,-118.7 205.58,-124.36"/>
</g>
<!-- n_0 -->
<g id="node5" class="node">
<title>n_0</title>
<polygon fill="none" stroke="black" points="9,-5.38 9,-30.62 68.75,-30.62 68.75,-5.38 9,-5.38"/>
<text text-anchor="start" x="16" y="-16.07" font-family="Times New Roman,serif" font-weight="bold" font-size="9.00">Primary (P)</text>
<polygon fill="none" stroke="black" points="8,-4.38 8,-31.62 69.75,-31.62 69.75,-4.38 8,-4.38"/>
</g>
<!-- n_0_3&#45;&gt;n_0 -->
<g id="edge4" class="edge">
<title>n_0_3&#45;&gt;n_0</title>
<path fill="none" stroke="black" d="M81.94,-79.29C74.78,-69.27 65.53,-56.31 57.43,-44.98"/>
<polygon fill="black" stroke="black" points="60.52,-43.28 51.86,-37.17 54.82,-47.34 60.52,-43.28"/>
</g>
<!-- n_3 -->
<g id="node6" class="node">
<title>n_3</title>
<polygon fill="none" stroke="black" points="115.5,-5.38 115.5,-30.62 184.25,-30.62 184.25,-5.38 115.5,-5.38"/>
<text text-anchor="start" x="122.5" y="-16.07" font-family="Times New Roman,serif" font-weight="bold" font-size="9.00">Secondary (P)</text>
<polygon fill="none" stroke="black" points="114.5,-4.38 114.5,-31.62 185.25,-31.62 185.25,-4.38 114.5,-4.38"/>
</g>
<!-- n_0_3&#45;&gt;n_3 -->
<g id="edge5" class="edge">
<title>n_0_3&#45;&gt;n_3</title>
<path fill="none" stroke="black" d="M106.03,-79.29C113.31,-69.27 122.74,-56.31 130.98,-44.98"/>
<polygon fill="black" stroke="black" points="133.61,-47.31 136.66,-37.17 127.95,-43.19 133.61,-47.31"/>
</g>
<!-- n_5_6 -->
<g id="node10" class="node">
<title>n_5_6</title>
<polygon fill="none" stroke="black" points="371.12,-166.38 371.12,-191.62 424.12,-191.62 424.12,-166.38 371.12,-166.38"/>
<text text-anchor="start" x="378.12" y="-177.07" font-family="Times New Roman,serif" font-weight="bold" font-size="9.00">Technical</text>
<polygon fill="none" stroke="black" points="424.12,-166.38 424.12,-191.62 478.62,-191.62 478.62,-166.38 424.12,-166.38"/>
<text text-anchor="start" x="431.12" y="-177.07" font-family="Times New Roman,serif" font-weight="bold" font-size="9.00">University</text>
<polygon fill="none" stroke="black" points="370.12,-165.38 370.12,-192.62 479.62,-192.62 479.62,-165.38 370.12,-165.38"/>
</g>
<!-- n_2_5_6&#45;&gt;n_5_6 -->
<g id="edge9" class="edge">
<title>n_2_5_6&#45;&gt;n_5_6</title>
<path fill="none" stroke="black" d="M431.83,-247.64C430.63,-235.91 429.08,-220.86 427.75,-207.94"/>
<polygon fill="black" stroke="black" points="431.27,-207.93 426.76,-198.34 424.3,-208.64 431.27,-207.93"/>
</g>
<!-- n_2 -->
<g id="node13" class="node">
<title>n_2</title>
<polygon fill="none" stroke="black" points="525.75,-166.38 525.75,-191.62 578,-191.62 578,-166.38 525.75,-166.38"/>
<text text-anchor="start" x="532.75" y="-177.07" font-family="Times New Roman,serif" font-weight="bold" font-size="9.00">Preschool</text>
<polygon fill="none" stroke="black" points="524.75,-165.38 524.75,-192.62 579,-192.62 579,-165.38 524.75,-165.38"/>
</g>
<!-- n_2_5_6&#45;&gt;n_2 -->
<g id="edge12" class="edge">
<title>n_2_5_6&#45;&gt;n_2</title>
<path fill="none" stroke="black" d="M460.65,-247.64C478.25,-234.59 501.38,-217.45 519.94,-203.68"/>
<polygon fill="black" stroke="black" points="522.01,-206.5 527.96,-197.73 517.84,-200.88 522.01,-206.5"/>
</g>
<!-- n_5 -->
<g id="node11" class="node">
<title>n_5</title>
<polygon fill="none" stroke="black" points="355.38,-84.38 355.38,-109.62 408.38,-109.62 408.38,-84.38 355.38,-84.38"/>
<text text-anchor="start" x="362.38" y="-95.08" font-family="Times New Roman,serif" font-weight="bold" font-size="9.00">Technical</text>
<polygon fill="none" stroke="black" points="354.38,-83.38 354.38,-110.62 409.38,-110.62 409.38,-83.38 354.38,-83.38"/>
</g>
<!-- n_5_6&#45;&gt;n_5 -->
<g id="edge10" class="edge">
<title>n_5_6&#45;&gt;n_5</title>
<path fill="none" stroke="black" d="M415.76,-161.03C410.11,-150.53 402.74,-136.82 396.32,-124.87"/>
<polygon fill="black" stroke="black" points="399.51,-123.43 391.7,-116.27 393.35,-126.74 399.51,-123.43"/>
</g>
<!-- n_6 -->
<g id="node12" class="node">
<title>n_6</title>
<polygon fill="none" stroke="black" points="455.62,-84.38 455.62,-109.62 510.12,-109.62 510.12,-84.38 455.62,-84.38"/>
<text text-anchor="start" x="462.62" y="-95.08" font-family="Times New Roman,serif" font-weight="bold" font-size="9.00">University</text>
<polygon fill="none" stroke="black" points="454.62,-83.38 454.62,-110.62 511.12,-110.62 511.12,-83.38 454.62,-83.38"/>
</g>
<!-- n_5_6&#45;&gt;n_6 -->
<g id="edge11" class="edge">
<title>n_5_6&#45;&gt;n_6</title>
<path fill="none" stroke="black" d="M437.18,-161.03C444.94,-150.32 455.13,-136.27 463.92,-124.15"/>
<polygon fill="black" stroke="black" points="466.67,-126.32 469.7,-116.17 461,-122.21 466.67,-126.32"/>
</g>
</g>
</svg>
