<?xml version="1.0" encoding="UTF-8" standalone="no"?>
<!DOCTYPE svg PUBLIC "-//W3C//DTD SVG 1.1//EN"
 "http://www.w3.org/Graphics/SVG/1.1/DTD/svg11.dtd">
<!-- Generated by graphviz version 10.0.1 (20240210.2158)
 -->
<!-- Title: ND Pages: 1 -->
<svg width="692pt" height="414pt"
 viewBox="0.00 0.00 692.38 414.00" xmlns="http://www.w3.org/2000/svg" xmlns:xlink="http://www.w3.org/1999/xlink">
<g id="graph0" class="graph" transform="scale(1 1) rotate(0) translate(4 410)">
<title>ND</title>
<polygon fill="white" stroke="none" points="-4,4 -4,-410 688.38,-410 688.38,4 -4,4"/>
<!-- n_0_1_2_3_4_5_6 -->
<g id="node1" class="node">
<title>n_0_1_2_3_4_5_6</title>
<polygon fill="none" stroke="black" points="392.38,-342 392.38,-401 461.12,-401 461.12,-342 392.38,-342"/>
<text text-anchor="start" x="403.88" y="-386.45" font-family="Times New Roman,serif" font-weight="bold" font-size="9.00">Primary (P)</text>
<text text-anchor="start" x="403.12" y="-377.45" font-family="Times New Roman,serif" font-weight="bold" font-size="9.00">Primary (G)</text>
<text text-anchor="start" x="407.62" y="-368.45" font-family="Times New Roman,serif" font-weight="bold" font-size="9.00">Preschool</text>
<text text-anchor="start" x="399.38" y="-359.45" font-family="Times New Roman,serif" font-weight="bold" font-size="9.00">Secondary (P)</text>
<text text-anchor="start" x="406.5" y="-350.45" font-family="Times New Roman,serif" font-weight="bold" font-size="9.00">University</text>
<polygon fill="none" stroke="black" points="461.12,-342 461.12,-401 531.38,-401 531.38,-342 461.12,-342"/>
<text text-anchor="start" x="468.12" y="-372.95" font-family="Times New Roman,serif" font-weight="bold" font-size="9.00">Secondary (G)</text>
<text text-anchor="start" x="476.75" y="-363.95" font-family="Times New Roman,serif" font-weight="bold" font-size="9.00">Technical</text>
<polygon fill="none" stroke="black" points="391.38,-341 391.38,-402 532.38,-402 532.38,-341 391.38,-341"/>
</g>
<!-- n_0_1_2_3_6 -->
<g id="node2" class="node">
<title>n_0_1_2_3_6</title>
<polygon fill="none" stroke="black" points="309.88,-248 309.88,-289 378.62,-289 378.62,-248 309.88,-248"/>
<text text-anchor="start" x="321.38" y="-274.45" font-family="Times New Roman,serif" font-weight="bold" font-size="9.00">Primary (P)</text>
<text text-anchor="start" x="316.88" y="-265.45" font-family="Times New Roman,serif" font-weight="bold" font-size="9.00">Secondary (P)</text>
<text text-anchor="start" x="324" y="-256.45" font-family="Times New Roman,serif" font-weight="bold" font-size="9.00">University</text>
<polygon fill="none" stroke="black" points="378.62,-248 378.62,-289 439.88,-289 439.88,-248 378.62,-248"/>
<text text-anchor="start" x="385.62" y="-269.95" font-family="Times New Roman,serif" font-weight="bold" font-size="9.00">Primary (G)</text>
<text text-anchor="start" x="390.12" y="-260.95" font-family="Times New Roman,serif" font-weight="bold" font-size="9.00">Preschool</text>
<polygon fill="none" stroke="black" points="308.88,-247 308.88,-290 440.88,-290 440.88,-247 308.88,-247"/>
</g>
<!-- n_0_1_2_3_4_5_6&#45;&gt;n_0_1_2_3_6 -->
<g id="edge1" class="edge">
<title>n_0_1_2_3_4_5_6&#45;&gt;n_0_1_2_3_6</title>
<path fill="none" stroke="black" d="M433.15,-337.15C423.54,-326 412.84,-313.58 403.26,-302.45"/>
<polygon fill="black" stroke="black" points="406.02,-300.3 396.85,-295.01 400.72,-304.87 406.02,-300.3"/>
</g>
<!-- n_4_5 -->
<g id="node11" class="node">
<title>n_4_5</title>
<polygon fill="none" stroke="black" points="487.25,-255.88 487.25,-281.12 557.5,-281.12 557.5,-255.88 487.25,-255.88"/>
<text text-anchor="start" x="494.25" y="-266.57" font-family="Times New Roman,serif" font-weight="bold" font-size="9.00">Secondary (G)</text>
<polygon fill="none" stroke="black" points="557.5,-255.88 557.5,-281.12 610.5,-281.12 610.5,-255.88 557.5,-255.88"/>
<text text-anchor="start" x="564.5" y="-266.57" font-family="Times New Roman,serif" font-weight="bold" font-size="9.00">Technical</text>
<polygon fill="none" stroke="black" points="486.25,-254.88 486.25,-282.12 611.5,-282.12 611.5,-254.88 486.25,-254.88"/>
</g>
<!-- n_0_1_2_3_4_5_6&#45;&gt;n_4_5 -->
<g id="edge10" class="edge">
<title>n_0_1_2_3_4_5_6&#45;&gt;n_4_5</title>
<path fill="none" stroke="black" d="M490.6,-337.15C502.51,-323.33 516.08,-307.57 527.14,-294.74"/>
<polygon fill="black" stroke="black" points="529.47,-297.39 533.35,-287.53 524.17,-292.82 529.47,-297.39"/>
</g>
<!-- n_0_3_6 -->
<g id="node3" class="node">
<title>n_0_3_6</title>
<polygon fill="none" stroke="black" points="151.62,-163 151.62,-195 211.38,-195 211.38,-163 151.62,-163"/>
<text text-anchor="start" x="158.62" y="-180.45" font-family="Times New Roman,serif" font-weight="bold" font-size="9.00">Primary (P)</text>
<text text-anchor="start" x="161.25" y="-171.45" font-family="Times New Roman,serif" font-weight="bold" font-size="9.00">University</text>
<polygon fill="none" stroke="black" points="211.38,-163 211.38,-195 280.12,-195 280.12,-163 211.38,-163"/>
<text text-anchor="start" x="218.38" y="-177.07" font-family="Times New Roman,serif" font-weight="bold" font-size="9.00">Secondary (P)</text>
<polygon fill="none" stroke="black" points="150.62,-162 150.62,-196 281.12,-196 281.12,-162 150.62,-162"/>
</g>
<!-- n_0_1_2_3_6&#45;&gt;n_0_3_6 -->
<g id="edge2" class="edge">
<title>n_0_1_2_3_6&#45;&gt;n_0_3_6</title>
<path fill="none" stroke="black" d="M330.58,-243.13C309.25,-231.38 283.67,-217.31 262.08,-205.43"/>
<polygon fill="black" stroke="black" points="263.94,-202.45 253.49,-200.7 260.56,-208.59 263.94,-202.45"/>
</g>
<!-- n_1_2 -->
<g id="node8" class="node">
<title>n_1_2</title>
<polygon fill="none" stroke="black" points="327.12,-166.38 327.12,-191.62 388.38,-191.62 388.38,-166.38 327.12,-166.38"/>
<text text-anchor="start" x="334.12" y="-177.07" font-family="Times New Roman,serif" font-weight="bold" font-size="9.00">Primary (G)</text>
<polygon fill="none" stroke="black" points="388.38,-166.38 388.38,-191.62 440.62,-191.62 440.62,-166.38 388.38,-166.38"/>
<text text-anchor="start" x="395.38" y="-177.07" font-family="Times New Roman,serif" font-weight="bold" font-size="9.00">Preschool</text>
<polygon fill="none" stroke="black" points="326.12,-165.38 326.12,-192.62 441.62,-192.62 441.62,-165.38 326.12,-165.38"/>
</g>
<!-- n_0_1_2_3_6&#45;&gt;n_1_2 -->
<g id="edge7" class="edge">
<title>n_0_1_2_3_6&#45;&gt;n_1_2</title>
<path fill="none" stroke="black" d="M377.38,-243.13C378.5,-232.28 379.82,-219.45 380.97,-208.19"/>
<polygon fill="black" stroke="black" points="384.45,-208.58 382,-198.28 377.49,-207.87 384.45,-208.58"/>
</g>
<!-- n_0_6 -->
<g id="node4" class="node">
<title>n_0_6</title>
<polygon fill="none" stroke="black" points="33.75,-84.38 33.75,-109.62 93.5,-109.62 93.5,-84.38 33.75,-84.38"/>
<text text-anchor="start" x="40.75" y="-95.08" font-family="Times New Roman,serif" font-weight="bold" font-size="9.00">Primary (P)</text>
<polygon fill="none" stroke="black" points="93.5,-84.38 93.5,-109.62 148,-109.62 148,-84.38 93.5,-84.38"/>
<text text-anchor="start" x="100.5" y="-95.08" font-family="Times New Roman,serif" font-weight="bold" font-size="9.00">University</text>
<polygon fill="none" stroke="black" points="32.75,-83.38 32.75,-110.62 149,-110.62 149,-83.38 32.75,-83.38"/>
</g>
<!-- n_0_3_6&#45;&gt;n_0_6 -->
<g id="edge3" class="edge">
<title>n_0_3_6&#45;&gt;n_0_6</title>
<path fill="none" stroke="black" d="M184.65,-158.02C167,-146.72 144.86,-132.55 126.53,-120.82"/>
<polygon fill="black" stroke="black" points="128.64,-118.02 118.33,-115.57 124.87,-123.91 128.64,-118.02"/>
</g>
<!-- n_3 -->
<g id="node7" class="node">
<title>n_3</title>
<polygon fill="none" stroke="black" points="195.5,-84.38 195.5,-109.62 264.25,-109.62 264.25,-84.38 195.5,-84.38"/>
<text text-anchor="start" x="202.5" y="-95.08" font-family="Times New Roman,serif" font-weight="bold" font-size="9.00">Secondary (P)</text>
<polygon fill="none" stroke="black" points="194.5,-83.38 194.5,-110.62 265.25,-110.62 265.25,-83.38 194.5,-83.38"/>
</g>
<!-- n_0_3_6&#45;&gt;n_3 -->
<g id="edge6" class="edge">
<title>n_0_3_6&#45;&gt;n_3</title>
<path fill="none" stroke="black" d="M219.34,-158.22C221.03,-148.54 223.1,-136.72 224.96,-126.11"/>
<polygon fill="black" stroke="black" points="228.39,-126.79 226.67,-116.33 221.49,-125.58 228.39,-126.79"/>
</g>
<!-- n_0 -->
<g id="node5" class="node">
<title>n_0</title>
<polygon fill="none" stroke="black" points="9,-5.38 9,-30.62 68.75,-30.62 68.75,-5.38 9,-5.38"/>
<text text-anchor="start" x="16" y="-16.07" font-family="Times New Roman,serif" font-weight="bold" font-size="9.00">Primary (P)</text>
<polygon fill="none" stroke="black" points="8,-4.38 8,-31.62 69.75,-31.62 69.75,-4.38 8,-4.38"/>
</g>
<!-- n_0_6&#45;&gt;n_0 -->
<g id="edge4" class="edge">
<title>n_0_6&#45;&gt;n_0</title>
<path fill="none" stroke="black" d="M79.59,-79.29C72.89,-69.37 64.25,-56.57 56.65,-45.32"/>
<polygon fill="black" stroke="black" points="59.66,-43.52 51.16,-37.2 53.86,-47.44 59.66,-43.52"/>
</g>
<!-- n_6 -->
<g id="node6" class="node">
<title>n_6</title>
<polygon fill="none" stroke="black" points="115.62,-5.38 115.62,-30.62 170.12,-30.62 170.12,-5.38 115.62,-5.38"/>
<text text-anchor="start" x="122.62" y="-16.07" font-family="Times New Roman,serif" font-weight="bold" font-size="9.00">University</text>
<polygon fill="none" stroke="black" points="114.62,-4.38 114.62,-31.62 171.12,-31.62 171.12,-4.38 114.62,-4.38"/>
</g>
<!-- n_0_6&#45;&gt;n_6 -->
<g id="edge5" class="edge">
<title>n_0_6&#45;&gt;n_6</title>
<path fill="none" stroke="black" d="M102.16,-79.29C108.86,-69.37 117.5,-56.57 125.1,-45.32"/>
<polygon fill="black" stroke="black" points="127.89,-47.44 130.59,-37.2 122.09,-43.52 127.89,-47.44"/>
</g>
<!-- n_1 -->
<g id="node9" class="node">
<title>n_1</title>
<polygon fill="none" stroke="black" points="339.25,-84.38 339.25,-109.62 400.5,-109.62 400.5,-84.38 339.25,-84.38"/>
<text text-anchor="start" x="346.25" y="-95.08" font-family="Times New Roman,serif" font-weight="bold" font-size="9.00">Primary (G)</text>
<polygon fill="none" stroke="black" points="338.25,-83.38 338.25,-110.62 401.5,-110.62 401.5,-83.38 338.25,-83.38"/>
</g>
<!-- n_1_2&#45;&gt;n_1 -->
<g id="edge8" class="edge">
<title>n_1_2&#45;&gt;n_1</title>
<path fill="none" stroke="black" d="M380.91,-161.03C379.12,-150.85 376.81,-137.65 374.77,-125.96"/>
<polygon fill="black" stroke="black" points="378.27,-125.68 373.1,-116.43 371.38,-126.89 378.27,-125.68"/>
</g>
<!-- n_2 -->
<g id="node10" class="node">
<title>n_2</title>
<polygon fill="none" stroke="black" points="447.75,-84.38 447.75,-109.62 500,-109.62 500,-84.38 447.75,-84.38"/>
<text text-anchor="start" x="454.75" y="-95.08" font-family="Times New Roman,serif" font-weight="bold" font-size="9.00">Preschool</text>
<polygon fill="none" stroke="black" points="446.75,-83.38 446.75,-110.62 501,-110.62 501,-83.38 446.75,-83.38"/>
</g>
<!-- n_1_2&#45;&gt;n_2 -->
<g id="edge9" class="edge">
<title>n_1_2&#45;&gt;n_2</title>
<path fill="none" stroke="black" d="M402.96,-161.03C415.61,-149.79 432.4,-134.87 446.47,-122.36"/>
<polygon fill="black" stroke="black" points="448.54,-125.21 453.68,-115.95 443.89,-119.97 448.54,-125.21"/>
</g>
<!-- n_4 -->
<g id="node12" class="node">
<title>n_4</title>
<polygon fill="none" stroke="black" points="504.75,-166.38 504.75,-191.62 575,-191.62 575,-166.38 504.75,-166.38"/>
<text text-anchor="start" x="511.75" y="-177.07" font-family="Times New Roman,serif" font-weight="bold" font-size="9.00">Secondary (G)</text>
<polygon fill="none" stroke="black" points="503.75,-165.38 503.75,-192.62 576,-192.62 576,-165.38 503.75,-165.38"/>
</g>
<!-- n_4_5&#45;&gt;n_4 -->
<g id="edge11" class="edge">
<title>n_4_5&#45;&gt;n_4</title>
<path fill="none" stroke="black" d="M547.14,-250.63C545.89,-238.52 544.19,-221.94 542.74,-207.88"/>
<polygon fill="black" stroke="black" points="546.26,-207.91 541.76,-198.32 539.3,-208.63 546.26,-207.91"/>
</g>
<!-- n_5 -->
<g id="node13" class="node">
<title>n_5</title>
<polygon fill="none" stroke="black" points="622.38,-166.38 622.38,-191.62 675.38,-191.62 675.38,-166.38 622.38,-166.38"/>
<text text-anchor="start" x="629.38" y="-177.07" font-family="Times New Roman,serif" font-weight="bold" font-size="9.00">Technical</text>
<polygon fill="none" stroke="black" points="621.38,-165.38 621.38,-192.62 676.38,-192.62 676.38,-165.38 621.38,-165.38"/>
</g>
<!-- n_4_5&#45;&gt;n_5 -->
<g id="edge12" class="edge">
<title>n_4_5&#45;&gt;n_5</title>
<path fill="none" stroke="black" d="M568.16,-250.63C583.24,-237.43 604.4,-218.92 621.28,-204.15"/>
<polygon fill="black" stroke="black" points="623.29,-207.03 628.51,-197.82 618.68,-201.77 623.29,-207.03"/>
</g>
</g>
</svg>
