<?xml version="1.0" encoding="UTF-8" standalone="no"?>
<!DOCTYPE svg PUBLIC "-//W3C//DTD SVG 1.1//EN"
 "http://www.w3.org/Graphics/SVG/1.1/DTD/svg11.dtd">
<!-- Generated by graphviz version 10.0.1 (20240210.2158)
 -->
<!-- Title: ND Pages: 1 -->
<svg width="662pt" height="517pt"
 viewBox="0.00 0.00 662.12 517.00" xmlns="http://www.w3.org/2000/svg" xmlns:xlink="http://www.w3.org/1999/xlink">
<g id="graph0" class="graph" transform="scale(1 1) rotate(0) translate(4 513)">
<title>ND</title>
<polygon fill="white" stroke="none" points="-4,4 -4,-513 658.12,-513 658.12,4 -4,4"/>
<!-- n_0_1_2_3_4_5_6 -->
<g id="node1" class="node">
<title>n_0_1_2_3_4_5_6</title>
<polygon fill="none" stroke="black" points="386.5,-445 386.5,-504 456.75,-504 456.75,-445 386.5,-445"/>
<text text-anchor="start" x="398.75" y="-489.45" font-family="Times New Roman,serif" font-weight="bold" font-size="9.00">Primary (P)</text>
<text text-anchor="start" x="398" y="-480.45" font-family="Times New Roman,serif" font-weight="bold" font-size="9.00">Primary (G)</text>
<text text-anchor="start" x="402.5" y="-471.45" font-family="Times New Roman,serif" font-weight="bold" font-size="9.00">Preschool</text>
<text text-anchor="start" x="394.25" y="-462.45" font-family="Times New Roman,serif" font-weight="bold" font-size="9.00">Secondary (P)</text>
<text text-anchor="start" x="393.5" y="-453.45" font-family="Times New Roman,serif" font-weight="bold" font-size="9.00">Secondary (G)</text>
<polygon fill="none" stroke="black" points="456.75,-445 456.75,-504 511.25,-504 511.25,-445 456.75,-445"/>
<text text-anchor="start" x="464.5" y="-475.95" font-family="Times New Roman,serif" font-weight="bold" font-size="9.00">Technical</text>
<text text-anchor="start" x="463.75" y="-466.95" font-family="Times New Roman,serif" font-weight="bold" font-size="9.00">University</text>
<polygon fill="none" stroke="black" points="385.5,-444 385.5,-505 512.25,-505 512.25,-444 385.5,-444"/>
</g>
<!-- n_0_1_2_3_4 -->
<g id="node2" class="node">
<title>n_0_1_2_3_4</title>
<polygon fill="none" stroke="black" points="300.12,-342 300.12,-392 370.38,-392 370.38,-342 300.12,-342"/>
<text text-anchor="start" x="312.38" y="-377.45" font-family="Times New Roman,serif" font-weight="bold" font-size="9.00">Primary (P)</text>
<text text-anchor="start" x="316.12" y="-368.45" font-family="Times New Roman,serif" font-weight="bold" font-size="9.00">Preschool</text>
<text text-anchor="start" x="307.88" y="-359.45" font-family="Times New Roman,serif" font-weight="bold" font-size="9.00">Secondary (P)</text>
<text text-anchor="start" x="307.12" y="-350.45" font-family="Times New Roman,serif" font-weight="bold" font-size="9.00">Secondary (G)</text>
<polygon fill="none" stroke="black" points="370.38,-342 370.38,-392 431.62,-392 431.62,-342 370.38,-342"/>
<text text-anchor="start" x="377.38" y="-365.07" font-family="Times New Roman,serif" font-weight="bold" font-size="9.00">Primary (G)</text>
<polygon fill="none" stroke="black" points="299.12,-341 299.12,-393 432.62,-393 432.62,-341 299.12,-341"/>
</g>
<!-- n_0_1_2_3_4_5_6&#45;&gt;n_0_1_2_3_4 -->
<g id="edge1" class="edge">
<title>n_0_1_2_3_4_5_6&#45;&gt;n_0_1_2_3_4</title>
<path fill="none" stroke="black" d="M422.61,-440.12C413.99,-429.16 404.36,-416.91 395.51,-405.66"/>
<polygon fill="black" stroke="black" points="398.48,-403.78 389.55,-398.09 392.98,-408.11 398.48,-403.78"/>
</g>
<!-- n_5_6 -->
<g id="node11" class="node">
<title>n_5_6</title>
<polygon fill="none" stroke="black" points="479.12,-354.38 479.12,-379.62 532.12,-379.62 532.12,-354.38 479.12,-354.38"/>
<text text-anchor="start" x="486.12" y="-365.07" font-family="Times New Roman,serif" font-weight="bold" font-size="9.00">Technical</text>
<polygon fill="none" stroke="black" points="532.12,-354.38 532.12,-379.62 586.62,-379.62 586.62,-354.38 532.12,-354.38"/>
<text text-anchor="start" x="539.12" y="-365.07" font-family="Times New Roman,serif" font-weight="bold" font-size="9.00">University</text>
<polygon fill="none" stroke="black" points="478.12,-353.38 478.12,-380.62 587.62,-380.62 587.62,-353.38 478.12,-353.38"/>
</g>
<!-- n_0_1_2_3_4_5_6&#45;&gt;n_5_6 -->
<g id="edge10" class="edge">
<title>n_0_1_2_3_4_5_6&#45;&gt;n_5_6</title>
<path fill="none" stroke="black" d="M475.45,-440.12C487.44,-425.06 501.37,-407.57 512.51,-393.58"/>
<polygon fill="black" stroke="black" points="514.95,-396.14 518.44,-386.13 509.47,-391.78 514.95,-396.14"/>
</g>
<!-- n_0_2_3_4 -->
<g id="node3" class="node">
<title>n_0_2_3_4</title>
<polygon fill="none" stroke="black" points="165.38,-248 165.38,-289 235.62,-289 235.62,-248 165.38,-248"/>
<text text-anchor="start" x="177.62" y="-274.45" font-family="Times New Roman,serif" font-weight="bold" font-size="9.00">Primary (P)</text>
<text text-anchor="start" x="181.38" y="-265.45" font-family="Times New Roman,serif" font-weight="bold" font-size="9.00">Preschool</text>
<text text-anchor="start" x="172.38" y="-256.45" font-family="Times New Roman,serif" font-weight="bold" font-size="9.00">Secondary (G)</text>
<polygon fill="none" stroke="black" points="235.62,-248 235.62,-289 304.38,-289 304.38,-248 235.62,-248"/>
<text text-anchor="start" x="242.62" y="-266.57" font-family="Times New Roman,serif" font-weight="bold" font-size="9.00">Secondary (P)</text>
<polygon fill="none" stroke="black" points="164.38,-247 164.38,-290 305.38,-290 305.38,-247 164.38,-247"/>
</g>
<!-- n_0_1_2_3_4&#45;&gt;n_0_2_3_4 -->
<g id="edge2" class="edge">
<title>n_0_1_2_3_4&#45;&gt;n_0_2_3_4</title>
<path fill="none" stroke="black" d="M326.57,-337.05C310.95,-325.54 292.94,-312.27 277.05,-300.56"/>
<polygon fill="black" stroke="black" points="279.31,-297.89 269.18,-294.77 275.16,-303.52 279.31,-297.89"/>
</g>
<!-- n_1 -->
<g id="node10" class="node">
<title>n_1</title>
<polygon fill="none" stroke="black" points="351.25,-255.88 351.25,-281.12 412.5,-281.12 412.5,-255.88 351.25,-255.88"/>
<text text-anchor="start" x="358.25" y="-266.57" font-family="Times New Roman,serif" font-weight="bold" font-size="9.00">Primary (G)</text>
<polygon fill="none" stroke="black" points="350.25,-254.88 350.25,-282.12 413.5,-282.12 413.5,-254.88 350.25,-254.88"/>
</g>
<!-- n_0_1_2_3_4&#45;&gt;n_1 -->
<g id="edge9" class="edge">
<title>n_0_1_2_3_4&#45;&gt;n_1</title>
<path fill="none" stroke="black" d="M370.68,-337.05C372.75,-324.51 375.18,-309.89 377.24,-297.47"/>
<polygon fill="black" stroke="black" points="380.65,-298.3 378.83,-287.86 373.74,-297.15 380.65,-298.3"/>
</g>
<!-- n_0_2_4 -->
<g id="node4" class="node">
<title>n_0_2_4</title>
<polygon fill="none" stroke="black" points="102.62,-163 102.62,-195 172.88,-195 172.88,-163 102.62,-163"/>
<text text-anchor="start" x="114.88" y="-180.45" font-family="Times New Roman,serif" font-weight="bold" font-size="9.00">Primary (P)</text>
<text text-anchor="start" x="109.62" y="-171.45" font-family="Times New Roman,serif" font-weight="bold" font-size="9.00">Secondary (G)</text>
<polygon fill="none" stroke="black" points="172.88,-163 172.88,-195 225.12,-195 225.12,-163 172.88,-163"/>
<text text-anchor="start" x="179.88" y="-177.07" font-family="Times New Roman,serif" font-weight="bold" font-size="9.00">Preschool</text>
<polygon fill="none" stroke="black" points="101.62,-162 101.62,-196 226.12,-196 226.12,-162 101.62,-162"/>
</g>
<!-- n_0_2_3_4&#45;&gt;n_0_2_4 -->
<g id="edge3" class="edge">
<title>n_0_2_3_4&#45;&gt;n_0_2_4</title>
<path fill="none" stroke="black" d="M215.1,-243.13C206.44,-232.46 196.22,-219.87 187.2,-208.75"/>
<polygon fill="black" stroke="black" points="189.93,-206.56 180.92,-201 184.5,-210.97 189.93,-206.56"/>
</g>
<!-- n_3 -->
<g id="node9" class="node">
<title>n_3</title>
<polygon fill="none" stroke="black" points="272.5,-166.38 272.5,-191.62 341.25,-191.62 341.25,-166.38 272.5,-166.38"/>
<text text-anchor="start" x="279.5" y="-177.07" font-family="Times New Roman,serif" font-weight="bold" font-size="9.00">Secondary (P)</text>
<polygon fill="none" stroke="black" points="271.5,-165.38 271.5,-192.62 342.25,-192.62 342.25,-165.38 271.5,-165.38"/>
</g>
<!-- n_0_2_3_4&#45;&gt;n_3 -->
<g id="edge8" class="edge">
<title>n_0_2_3_4&#45;&gt;n_3</title>
<path fill="none" stroke="black" d="M254.93,-243.13C264.61,-231.36 276.22,-217.25 286.01,-205.36"/>
<polygon fill="black" stroke="black" points="288.46,-207.89 292.11,-197.94 283.06,-203.44 288.46,-207.89"/>
</g>
<!-- n_0_4 -->
<g id="node5" class="node">
<title>n_0_4</title>
<polygon fill="none" stroke="black" points="29.88,-84.38 29.88,-109.62 89.62,-109.62 89.62,-84.38 29.88,-84.38"/>
<text text-anchor="start" x="36.88" y="-95.08" font-family="Times New Roman,serif" font-weight="bold" font-size="9.00">Primary (P)</text>
<polygon fill="none" stroke="black" points="89.62,-84.38 89.62,-109.62 159.88,-109.62 159.88,-84.38 89.62,-84.38"/>
<text text-anchor="start" x="96.62" y="-95.08" font-family="Times New Roman,serif" font-weight="bold" font-size="9.00">Secondary (G)</text>
<polygon fill="none" stroke="black" points="28.88,-83.38 28.88,-110.62 160.88,-110.62 160.88,-83.38 28.88,-83.38"/>
</g>
<!-- n_0_2_4&#45;&gt;n_0_4 -->
<g id="edge4" class="edge">
<title>n_0_2_4&#45;&gt;n_0_4</title>
<path fill="none" stroke="black" d="M146.82,-158.22C137.75,-147.71 126.5,-134.66 116.79,-123.41"/>
<polygon fill="black" stroke="black" points="119.57,-121.28 110.39,-115.99 114.27,-125.85 119.57,-121.28"/>
</g>
<!-- n_2 -->
<g id="node8" class="node">
<title>n_2</title>
<polygon fill="none" stroke="black" points="206.75,-84.38 206.75,-109.62 259,-109.62 259,-84.38 206.75,-84.38"/>
<text text-anchor="start" x="213.75" y="-95.08" font-family="Times New Roman,serif" font-weight="bold" font-size="9.00">Preschool</text>
<polygon fill="none" stroke="black" points="205.75,-83.38 205.75,-110.62 260,-110.62 260,-83.38 205.75,-83.38"/>
</g>
<!-- n_0_2_4&#45;&gt;n_2 -->
<g id="edge7" class="edge">
<title>n_0_2_4&#45;&gt;n_2</title>
<path fill="none" stroke="black" d="M180.93,-158.22C190,-147.71 201.25,-134.66 210.96,-123.41"/>
<polygon fill="black" stroke="black" points="213.48,-125.85 217.36,-115.99 208.18,-121.28 213.48,-125.85"/>
</g>
<!-- n_0 -->
<g id="node6" class="node">
<title>n_0</title>
<polygon fill="none" stroke="black" points="9,-5.38 9,-30.62 68.75,-30.62 68.75,-5.38 9,-5.38"/>
<text text-anchor="start" x="16" y="-16.07" font-family="Times New Roman,serif" font-weight="bold" font-size="9.00">Primary (P)</text>
<polygon fill="none" stroke="black" points="8,-4.38 8,-31.62 69.75,-31.62 69.75,-4.38 8,-4.38"/>
</g>
<!-- n_0_4&#45;&gt;n_0 -->
<g id="edge5" class="edge">
<title>n_0_4&#45;&gt;n_0</title>
<path fill="none" stroke="black" d="M82.72,-79.29C75.44,-69.27 66.01,-56.31 57.77,-44.98"/>
<polygon fill="black" stroke="black" points="60.8,-43.19 52.09,-37.17 55.14,-47.31 60.8,-43.19"/>
</g>
<!-- n_4 -->
<g id="node7" class="node">
<title>n_4</title>
<polygon fill="none" stroke="black" points="115.75,-5.38 115.75,-30.62 186,-30.62 186,-5.38 115.75,-5.38"/>
<text text-anchor="start" x="122.75" y="-16.07" font-family="Times New Roman,serif" font-weight="bold" font-size="9.00">Secondary (G)</text>
<polygon fill="none" stroke="black" points="114.75,-4.38 114.75,-31.62 187,-31.62 187,-4.38 114.75,-4.38"/>
</g>
<!-- n_0_4&#45;&gt;n_4 -->
<g id="edge6" class="edge">
<title>n_0_4&#45;&gt;n_4</title>
<path fill="none" stroke="black" d="M107.03,-79.29C114.31,-69.27 123.74,-56.31 131.98,-44.98"/>
<polygon fill="black" stroke="black" points="134.61,-47.31 137.66,-37.17 128.95,-43.19 134.61,-47.31"/>
</g>
<!-- n_5 -->
<g id="node12" class="node">
<title>n_5</title>
<polygon fill="none" stroke="black" points="490.38,-255.88 490.38,-281.12 543.38,-281.12 543.38,-255.88 490.38,-255.88"/>
<text text-anchor="start" x="497.38" y="-266.57" font-family="Times New Roman,serif" font-weight="bold" font-size="9.00">Technical</text>
<polygon fill="none" stroke="black" points="489.38,-254.88 489.38,-282.12 544.38,-282.12 544.38,-254.88 489.38,-254.88"/>
</g>
<!-- n_5_6&#45;&gt;n_5 -->
<g id="edge11" class="edge">
<title>n_5_6&#45;&gt;n_5</title>
<path fill="none" stroke="black" d="M530.09,-349.19C527.74,-335.03 524.33,-314.46 521.56,-297.76"/>
<polygon fill="black" stroke="black" points="525.02,-297.23 519.93,-287.93 518.11,-298.37 525.02,-297.23"/>
</g>
<!-- n_6 -->
<g id="node13" class="node">
<title>n_6</title>
<polygon fill="none" stroke="black" points="590.62,-255.88 590.62,-281.12 645.12,-281.12 645.12,-255.88 590.62,-255.88"/>
<text text-anchor="start" x="597.62" y="-266.57" font-family="Times New Roman,serif" font-weight="bold" font-size="9.00">University</text>
<polygon fill="none" stroke="black" points="589.62,-254.88 589.62,-282.12 646.12,-282.12 646.12,-254.88 589.62,-254.88"/>
</g>
<!-- n_5_6&#45;&gt;n_6 -->
<g id="edge12" class="edge">
<title>n_5_6&#45;&gt;n_6</title>
<path fill="none" stroke="black" d="M547.68,-349.19C560.89,-334.2 580.41,-312.04 595.51,-294.89"/>
<polygon fill="black" stroke="black" points="597.97,-297.39 601.95,-287.58 592.72,-292.77 597.97,-297.39"/>
</g>
</g>
</svg>
