<?xml version="1.0" encoding="UTF-8" standalone="no"?>
<!DOCTYPE svg PUBLIC "-//W3C//DTD SVG 1.1//EN"
 "http://www.w3.org/Graphics/SVG/1.1/DTD/svg11.dtd">
<!-- Generated by graphviz version 10.0.1 (20240210.2158)
 -->
<!-- Title: ND Pages: 1 -->
<svg width="614pt" height="405pt"
 viewBox="0.00 0.00 613.75 405.00" xmlns="http://www.w3.org/2000/svg" xmlns:xlink="http://www.w3.org/1999/xlink">
<g id="graph0" class="graph" transform="scale(1 1) rotate(0) translate(4 401)">
<title>ND</title>
<polygon fill="white" stroke="none" points="-4,4 -4,-401 609.75,-401 609.75,4 -4,4"/>
<!-- n_0_1_2_3_4_5_6 -->
<g id="node1" class="node">
<title>n_0_1_2_3_4_5_6</title>
<polygon fill="none" stroke="black" points="278.12,-342 278.12,-392 346.88,-392 346.88,-342 278.12,-342"/>
<text text-anchor="start" x="288.88" y="-377.45" font-family="Times New Roman,serif" font-weight="bold" font-size="9.00">Primary (G)</text>
<text text-anchor="start" x="285.12" y="-368.45" font-family="Times New Roman,serif" font-weight="bold" font-size="9.00">Secondary (P)</text>
<text text-anchor="start" x="293" y="-359.45" font-family="Times New Roman,serif" font-weight="bold" font-size="9.00">Technical</text>
<text text-anchor="start" x="292.25" y="-350.45" font-family="Times New Roman,serif" font-weight="bold" font-size="9.00">University</text>
<polygon fill="none" stroke="black" points="346.88,-342 346.88,-392 417.12,-392 417.12,-342 346.88,-342"/>
<text text-anchor="start" x="359.12" y="-372.95" font-family="Times New Roman,serif" font-weight="bold" font-size="9.00">Primary (P)</text>
<text text-anchor="start" x="362.88" y="-363.95" font-family="Times New Roman,serif" font-weight="bold" font-size="9.00">Preschool</text>
<text text-anchor="start" x="353.88" y="-354.95" font-family="Times New Roman,serif" font-weight="bold" font-size="9.00">Secondary (G)</text>
<polygon fill="none" stroke="black" points="277.12,-341 277.12,-393 418.12,-393 418.12,-341 277.12,-341"/>
</g>
<!-- n_1_3_5_6 -->
<g id="node2" class="node">
<title>n_1_3_5_6</title>
<polygon fill="none" stroke="black" points="200.75,-248 200.75,-289 269.5,-289 269.5,-248 200.75,-248"/>
<text text-anchor="start" x="211.5" y="-274.45" font-family="Times New Roman,serif" font-weight="bold" font-size="9.00">Primary (G)</text>
<text text-anchor="start" x="207.75" y="-265.45" font-family="Times New Roman,serif" font-weight="bold" font-size="9.00">Secondary (P)</text>
<text text-anchor="start" x="214.88" y="-256.45" font-family="Times New Roman,serif" font-weight="bold" font-size="9.00">University</text>
<polygon fill="none" stroke="black" points="269.5,-248 269.5,-289 322.5,-289 322.5,-248 269.5,-248"/>
<text text-anchor="start" x="276.5" y="-266.57" font-family="Times New Roman,serif" font-weight="bold" font-size="9.00">Technical</text>
<polygon fill="none" stroke="black" points="199.75,-247 199.75,-290 323.5,-290 323.5,-247 199.75,-247"/>
</g>
<!-- n_0_1_2_3_4_5_6&#45;&gt;n_1_3_5_6 -->
<g id="edge1" class="edge">
<title>n_0_1_2_3_4_5_6&#45;&gt;n_1_3_5_6</title>
<path fill="none" stroke="black" d="M321.82,-337.05C312.04,-326.08 300.85,-313.51 290.78,-302.22"/>
<polygon fill="black" stroke="black" points="293.62,-300.14 284.35,-295 288.39,-304.8 293.62,-300.14"/>
</g>
<!-- n_0_2_4 -->
<g id="node9" class="node">
<title>n_0_2_4</title>
<polygon fill="none" stroke="black" points="369.62,-252.5 369.62,-284.5 429.38,-284.5 429.38,-252.5 369.62,-252.5"/>
<text text-anchor="start" x="376.62" y="-269.95" font-family="Times New Roman,serif" font-weight="bold" font-size="9.00">Primary (P)</text>
<text text-anchor="start" x="380.38" y="-260.95" font-family="Times New Roman,serif" font-weight="bold" font-size="9.00">Preschool</text>
<polygon fill="none" stroke="black" points="429.38,-252.5 429.38,-284.5 499.62,-284.5 499.62,-252.5 429.38,-252.5"/>
<text text-anchor="start" x="436.38" y="-266.57" font-family="Times New Roman,serif" font-weight="bold" font-size="9.00">Secondary (G)</text>
<polygon fill="none" stroke="black" points="368.62,-251.5 368.62,-285.5 500.62,-285.5 500.62,-251.5 368.62,-251.5"/>
</g>
<!-- n_0_1_2_3_4_5_6&#45;&gt;n_0_2_4 -->
<g id="edge8" class="edge">
<title>n_0_1_2_3_4_5_6&#45;&gt;n_0_2_4</title>
<path fill="none" stroke="black" d="M373.73,-337.05C385.03,-324.51 398.22,-309.89 409.42,-297.46"/>
<polygon fill="black" stroke="black" points="411.7,-300.15 415.8,-290.38 406.5,-295.47 411.7,-300.15"/>
</g>
<!-- n_1_3_6 -->
<g id="node3" class="node">
<title>n_1_3_6</title>
<polygon fill="none" stroke="black" points="68.62,-163 68.62,-195 129.88,-195 129.88,-163 68.62,-163"/>
<text text-anchor="start" x="75.62" y="-180.45" font-family="Times New Roman,serif" font-weight="bold" font-size="9.00">Primary (G)</text>
<text text-anchor="start" x="79" y="-171.45" font-family="Times New Roman,serif" font-weight="bold" font-size="9.00">University</text>
<polygon fill="none" stroke="black" points="129.88,-163 129.88,-195 198.62,-195 198.62,-163 129.88,-163"/>
<text text-anchor="start" x="136.88" y="-177.07" font-family="Times New Roman,serif" font-weight="bold" font-size="9.00">Secondary (P)</text>
<polygon fill="none" stroke="black" points="67.62,-162 67.62,-196 199.62,-196 199.62,-162 67.62,-162"/>
</g>
<!-- n_1_3_5_6&#45;&gt;n_1_3_6 -->
<g id="edge2" class="edge">
<title>n_1_3_5_6&#45;&gt;n_1_3_6</title>
<path fill="none" stroke="black" d="M225.97,-243.13C209.12,-231.61 188.98,-217.84 171.82,-206.11"/>
<polygon fill="black" stroke="black" points="174.11,-203.43 163.88,-200.68 170.16,-209.21 174.11,-203.43"/>
</g>
<!-- n_5 -->
<g id="node8" class="node">
<title>n_5</title>
<polygon fill="none" stroke="black" points="246.12,-166.38 246.12,-191.62 299.12,-191.62 299.12,-166.38 246.12,-166.38"/>
<text text-anchor="start" x="253.12" y="-177.07" font-family="Times New Roman,serif" font-weight="bold" font-size="9.00">Technical</text>
<polygon fill="none" stroke="black" points="245.12,-165.38 245.12,-192.62 300.12,-192.62 300.12,-165.38 245.12,-165.38"/>
</g>
<!-- n_1_3_5_6&#45;&gt;n_5 -->
<g id="edge7" class="edge">
<title>n_1_3_5_6&#45;&gt;n_5</title>
<path fill="none" stroke="black" d="M264.69,-243.13C266.07,-232.17 267.7,-219.18 269.13,-207.84"/>
<polygon fill="black" stroke="black" points="272.55,-208.63 270.33,-198.27 265.61,-207.76 272.55,-208.63"/>
</g>
<!-- n_1_6 -->
<g id="node4" class="node">
<title>n_1_6</title>
<polygon fill="none" stroke="black" points="33.75,-84.38 33.75,-109.62 95,-109.62 95,-84.38 33.75,-84.38"/>
<text text-anchor="start" x="40.75" y="-95.08" font-family="Times New Roman,serif" font-weight="bold" font-size="9.00">Primary (G)</text>
<polygon fill="none" stroke="black" points="95,-84.38 95,-109.62 149.5,-109.62 149.5,-84.38 95,-84.38"/>
<text text-anchor="start" x="102" y="-95.08" font-family="Times New Roman,serif" font-weight="bold" font-size="9.00">University</text>
<polygon fill="none" stroke="black" points="32.75,-83.38 32.75,-110.62 150.5,-110.62 150.5,-83.38 32.75,-83.38"/>
</g>
<!-- n_1_3_6&#45;&gt;n_1_6 -->
<g id="edge3" class="edge">
<title>n_1_3_6&#45;&gt;n_1_6</title>
<path fill="none" stroke="black" d="M123.24,-158.22C117.94,-148.13 111.41,-135.69 105.67,-124.75"/>
<polygon fill="black" stroke="black" points="108.92,-123.41 101.17,-116.18 102.72,-126.66 108.92,-123.41"/>
</g>
<!-- n_3 -->
<g id="node7" class="node">
<title>n_3</title>
<polygon fill="none" stroke="black" points="196.25,-84.38 196.25,-109.62 265,-109.62 265,-84.38 196.25,-84.38"/>
<text text-anchor="start" x="203.25" y="-95.08" font-family="Times New Roman,serif" font-weight="bold" font-size="9.00">Secondary (P)</text>
<polygon fill="none" stroke="black" points="195.25,-83.38 195.25,-110.62 266,-110.62 266,-83.38 195.25,-83.38"/>
</g>
<!-- n_1_3_6&#45;&gt;n_3 -->
<g id="edge6" class="edge">
<title>n_1_3_6&#45;&gt;n_3</title>
<path fill="none" stroke="black" d="M157.6,-158.22C170.86,-147.29 187.43,-133.63 201.43,-122.08"/>
<polygon fill="black" stroke="black" points="203.55,-124.87 209.03,-115.81 199.09,-119.47 203.55,-124.87"/>
</g>
<!-- n_1 -->
<g id="node5" class="node">
<title>n_1</title>
<polygon fill="none" stroke="black" points="9,-5.38 9,-30.62 70.25,-30.62 70.25,-5.38 9,-5.38"/>
<text text-anchor="start" x="16" y="-16.07" font-family="Times New Roman,serif" font-weight="bold" font-size="9.00">Primary (G)</text>
<polygon fill="none" stroke="black" points="8,-4.38 8,-31.62 71.25,-31.62 71.25,-4.38 8,-4.38"/>
</g>
<!-- n_1_6&#45;&gt;n_1 -->
<g id="edge4" class="edge">
<title>n_1_6&#45;&gt;n_1</title>
<path fill="none" stroke="black" d="M80.34,-79.29C73.64,-69.37 65,-56.57 57.4,-45.32"/>
<polygon fill="black" stroke="black" points="60.41,-43.52 51.91,-37.2 54.61,-47.44 60.41,-43.52"/>
</g>
<!-- n_6 -->
<g id="node6" class="node">
<title>n_6</title>
<polygon fill="none" stroke="black" points="117.38,-5.38 117.38,-30.62 171.88,-30.62 171.88,-5.38 117.38,-5.38"/>
<text text-anchor="start" x="124.38" y="-16.07" font-family="Times New Roman,serif" font-weight="bold" font-size="9.00">University</text>
<polygon fill="none" stroke="black" points="116.38,-4.38 116.38,-31.62 172.88,-31.62 172.88,-4.38 116.38,-4.38"/>
</g>
<!-- n_1_6&#45;&gt;n_6 -->
<g id="edge5" class="edge">
<title>n_1_6&#45;&gt;n_6</title>
<path fill="none" stroke="black" d="M103.13,-79.29C109.95,-69.37 118.76,-56.57 126.51,-45.32"/>
<polygon fill="black" stroke="black" points="129.32,-47.41 132.11,-37.19 123.55,-43.44 129.32,-47.41"/>
</g>
<!-- n_0_2 -->
<g id="node10" class="node">
<title>n_0_2</title>
<polygon fill="none" stroke="black" points="367.62,-166.38 367.62,-191.62 427.38,-191.62 427.38,-166.38 367.62,-166.38"/>
<text text-anchor="start" x="374.62" y="-177.07" font-family="Times New Roman,serif" font-weight="bold" font-size="9.00">Primary (P)</text>
<polygon fill="none" stroke="black" points="427.38,-166.38 427.38,-191.62 479.62,-191.62 479.62,-166.38 427.38,-166.38"/>
<text text-anchor="start" x="434.38" y="-177.07" font-family="Times New Roman,serif" font-weight="bold" font-size="9.00">Preschool</text>
<polygon fill="none" stroke="black" points="366.62,-165.38 366.62,-192.62 480.62,-192.62 480.62,-165.38 366.62,-165.38"/>
</g>
<!-- n_0_2_4&#45;&gt;n_0_2 -->
<g id="edge9" class="edge">
<title>n_0_2_4&#45;&gt;n_0_2</title>
<path fill="none" stroke="black" d="M432.13,-247.64C430.65,-235.91 428.76,-220.86 427.14,-207.94"/>
<polygon fill="black" stroke="black" points="430.65,-207.82 425.93,-198.33 423.7,-208.69 430.65,-207.82"/>
</g>
<!-- n_4 -->
<g id="node13" class="node">
<title>n_4</title>
<polygon fill="none" stroke="black" points="526.5,-166.38 526.5,-191.62 596.75,-191.62 596.75,-166.38 526.5,-166.38"/>
<text text-anchor="start" x="533.5" y="-177.07" font-family="Times New Roman,serif" font-weight="bold" font-size="9.00">Secondary (G)</text>
<polygon fill="none" stroke="black" points="525.5,-165.38 525.5,-192.62 597.75,-192.62 597.75,-165.38 525.5,-165.38"/>
</g>
<!-- n_0_2_4&#45;&gt;n_4 -->
<g id="edge12" class="edge">
<title>n_0_2_4&#45;&gt;n_4</title>
<path fill="none" stroke="black" d="M463.44,-247.64C482.56,-234.47 507.73,-217.13 527.8,-203.3"/>
<polygon fill="black" stroke="black" points="529.7,-206.25 535.95,-197.69 525.73,-200.48 529.7,-206.25"/>
</g>
<!-- n_0 -->
<g id="node11" class="node">
<title>n_0</title>
<polygon fill="none" stroke="black" points="352.75,-84.38 352.75,-109.62 412.5,-109.62 412.5,-84.38 352.75,-84.38"/>
<text text-anchor="start" x="359.75" y="-95.08" font-family="Times New Roman,serif" font-weight="bold" font-size="9.00">Primary (P)</text>
<polygon fill="none" stroke="black" points="351.75,-83.38 351.75,-110.62 413.5,-110.62 413.5,-83.38 351.75,-83.38"/>
</g>
<!-- n_0_2&#45;&gt;n_0 -->
<g id="edge10" class="edge">
<title>n_0_2&#45;&gt;n_0</title>
<path fill="none" stroke="black" d="M414.93,-161.03C409.55,-150.53 402.52,-136.82 396.39,-124.87"/>
<polygon fill="black" stroke="black" points="399.67,-123.59 392,-116.29 393.44,-126.78 399.67,-123.59"/>
</g>
<!-- n_2 -->
<g id="node12" class="node">
<title>n_2</title>
<polygon fill="none" stroke="black" points="459.5,-84.38 459.5,-109.62 511.75,-109.62 511.75,-84.38 459.5,-84.38"/>
<text text-anchor="start" x="466.5" y="-95.08" font-family="Times New Roman,serif" font-weight="bold" font-size="9.00">Preschool</text>
<polygon fill="none" stroke="black" points="458.5,-83.38 458.5,-110.62 512.75,-110.62 512.75,-83.38 458.5,-83.38"/>
</g>
<!-- n_0_2&#45;&gt;n_2 -->
<g id="edge11" class="edge">
<title>n_0_2&#45;&gt;n_2</title>
<path fill="none" stroke="black" d="M436.77,-161.03C445.16,-150.22 456.19,-135.99 465.64,-123.79"/>
<polygon fill="black" stroke="black" points="468.21,-126.19 471.57,-116.14 462.68,-121.9 468.21,-126.19"/>
</g>
</g>
</svg>
