<?xml version="1.0" encoding="UTF-8" standalone="no"?>
<!DOCTYPE svg PUBLIC "-//W3C//DTD SVG 1.1//EN"
 "http://www.w3.org/Graphics/SVG/1.1/DTD/svg11.dtd">
<!-- Generated by graphviz version 10.0.1 (20240210.2158)
 -->
<!-- Title: ND Pages: 1 -->
<svg width="689pt" height="414pt"
 viewBox="0.00 0.00 689.00 414.00" xmlns="http://www.w3.org/2000/svg" xmlns:xlink="http://www.w3.org/1999/xlink">
<g id="graph0" class="graph" transform="scale(1 1) rotate(0) translate(4 410)">
<title>ND</title>
<polygon fill="white" stroke="none" points="-4,4 -4,-410 685,-410 685,4 -4,4"/>
<!-- n_0_1_2_3_4_5_6 -->
<g id="node1" class="node">
<title>n_0_1_2_3_4_5_6</title>
<polygon fill="none" stroke="black" points="381.38,-342 381.38,-401 450.12,-401 450.12,-342 381.38,-342"/>
<text text-anchor="start" x="392.88" y="-386.45" font-family="Times New Roman,serif" font-weight="bold" font-size="9.00">Primary (P)</text>
<text text-anchor="start" x="392.12" y="-377.45" font-family="Times New Roman,serif" font-weight="bold" font-size="9.00">Primary (G)</text>
<text text-anchor="start" x="388.38" y="-368.45" font-family="Times New Roman,serif" font-weight="bold" font-size="9.00">Secondary (P)</text>
<text text-anchor="start" x="396.25" y="-359.45" font-family="Times New Roman,serif" font-weight="bold" font-size="9.00">Technical</text>
<text text-anchor="start" x="395.5" y="-350.45" font-family="Times New Roman,serif" font-weight="bold" font-size="9.00">University</text>
<polygon fill="none" stroke="black" points="450.12,-342 450.12,-401 520.38,-401 520.38,-342 450.12,-342"/>
<text text-anchor="start" x="466.12" y="-372.95" font-family="Times New Roman,serif" font-weight="bold" font-size="9.00">Preschool</text>
<text text-anchor="start" x="457.12" y="-363.95" font-family="Times New Roman,serif" font-weight="bold" font-size="9.00">Secondary (G)</text>
<polygon fill="none" stroke="black" points="380.38,-341 380.38,-402 521.38,-402 521.38,-341 380.38,-341"/>
</g>
<!-- n_0_1_3_5_6 -->
<g id="node2" class="node">
<title>n_0_1_3_5_6</title>
<polygon fill="none" stroke="black" points="300.62,-248 300.62,-289 360.38,-289 360.38,-248 300.62,-248"/>
<text text-anchor="start" x="307.62" y="-274.45" font-family="Times New Roman,serif" font-weight="bold" font-size="9.00">Primary (P)</text>
<text text-anchor="start" x="311" y="-265.45" font-family="Times New Roman,serif" font-weight="bold" font-size="9.00">Technical</text>
<text text-anchor="start" x="310.25" y="-256.45" font-family="Times New Roman,serif" font-weight="bold" font-size="9.00">University</text>
<polygon fill="none" stroke="black" points="360.38,-248 360.38,-289 429.12,-289 429.12,-248 360.38,-248"/>
<text text-anchor="start" x="371.12" y="-269.95" font-family="Times New Roman,serif" font-weight="bold" font-size="9.00">Primary (G)</text>
<text text-anchor="start" x="367.38" y="-260.95" font-family="Times New Roman,serif" font-weight="bold" font-size="9.00">Secondary (P)</text>
<polygon fill="none" stroke="black" points="299.62,-247 299.62,-290 430.12,-290 430.12,-247 299.62,-247"/>
</g>
<!-- n_0_1_2_3_4_5_6&#45;&gt;n_0_1_3_5_6 -->
<g id="edge1" class="edge">
<title>n_0_1_2_3_4_5_6&#45;&gt;n_0_1_3_5_6</title>
<path fill="none" stroke="black" d="M422.48,-337.15C412.98,-326 402.4,-313.58 392.93,-302.45"/>
<polygon fill="black" stroke="black" points="395.75,-300.36 386.6,-295.01 390.42,-304.9 395.75,-300.36"/>
</g>
<!-- n_2_4 -->
<g id="node11" class="node">
<title>n_2_4</title>
<polygon fill="none" stroke="black" points="476.62,-255.88 476.62,-281.12 528.88,-281.12 528.88,-255.88 476.62,-255.88"/>
<text text-anchor="start" x="483.62" y="-266.57" font-family="Times New Roman,serif" font-weight="bold" font-size="9.00">Preschool</text>
<polygon fill="none" stroke="black" points="528.88,-255.88 528.88,-281.12 599.12,-281.12 599.12,-255.88 528.88,-255.88"/>
<text text-anchor="start" x="535.88" y="-266.57" font-family="Times New Roman,serif" font-weight="bold" font-size="9.00">Secondary (G)</text>
<polygon fill="none" stroke="black" points="475.62,-254.88 475.62,-282.12 600.12,-282.12 600.12,-254.88 475.62,-254.88"/>
</g>
<!-- n_0_1_2_3_4_5_6&#45;&gt;n_2_4 -->
<g id="edge10" class="edge">
<title>n_0_1_2_3_4_5_6&#45;&gt;n_2_4</title>
<path fill="none" stroke="black" d="M479.6,-337.15C491.51,-323.33 505.08,-307.57 516.14,-294.74"/>
<polygon fill="black" stroke="black" points="518.47,-297.39 522.35,-287.53 513.17,-292.82 518.47,-297.39"/>
</g>
<!-- n_0_5_6 -->
<g id="node3" class="node">
<title>n_0_5_6</title>
<polygon fill="none" stroke="black" points="149.5,-163 149.5,-195 209.25,-195 209.25,-163 149.5,-163"/>
<text text-anchor="start" x="156.5" y="-180.45" font-family="Times New Roman,serif" font-weight="bold" font-size="9.00">Primary (P)</text>
<text text-anchor="start" x="159.12" y="-171.45" font-family="Times New Roman,serif" font-weight="bold" font-size="9.00">University</text>
<polygon fill="none" stroke="black" points="209.25,-163 209.25,-195 262.25,-195 262.25,-163 209.25,-163"/>
<text text-anchor="start" x="216.25" y="-177.07" font-family="Times New Roman,serif" font-weight="bold" font-size="9.00">Technical</text>
<polygon fill="none" stroke="black" points="148.5,-162 148.5,-196 263.25,-196 263.25,-162 148.5,-162"/>
</g>
<!-- n_0_1_3_5_6&#45;&gt;n_0_5_6 -->
<g id="edge2" class="edge">
<title>n_0_1_3_5_6&#45;&gt;n_0_5_6</title>
<path fill="none" stroke="black" d="M320.58,-243.13C299.25,-231.38 273.67,-217.31 252.08,-205.43"/>
<polygon fill="black" stroke="black" points="253.94,-202.45 243.49,-200.7 250.56,-208.59 253.94,-202.45"/>
</g>
<!-- n_1_3 -->
<g id="node8" class="node">
<title>n_1_3</title>
<polygon fill="none" stroke="black" points="308.88,-166.38 308.88,-191.62 370.12,-191.62 370.12,-166.38 308.88,-166.38"/>
<text text-anchor="start" x="315.88" y="-177.07" font-family="Times New Roman,serif" font-weight="bold" font-size="9.00">Primary (G)</text>
<polygon fill="none" stroke="black" points="370.12,-166.38 370.12,-191.62 438.88,-191.62 438.88,-166.38 370.12,-166.38"/>
<text text-anchor="start" x="377.12" y="-177.07" font-family="Times New Roman,serif" font-weight="bold" font-size="9.00">Secondary (P)</text>
<polygon fill="none" stroke="black" points="307.88,-165.38 307.88,-192.62 439.88,-192.62 439.88,-165.38 307.88,-165.38"/>
</g>
<!-- n_0_1_3_5_6&#45;&gt;n_1_3 -->
<g id="edge7" class="edge">
<title>n_0_1_3_5_6&#45;&gt;n_1_3</title>
<path fill="none" stroke="black" d="M367.38,-243.13C368.5,-232.28 369.82,-219.45 370.97,-208.19"/>
<polygon fill="black" stroke="black" points="374.45,-208.58 372,-198.28 367.49,-207.87 374.45,-208.58"/>
</g>
<!-- n_0_6 -->
<g id="node4" class="node">
<title>n_0_6</title>
<polygon fill="none" stroke="black" points="33.75,-84.38 33.75,-109.62 93.5,-109.62 93.5,-84.38 33.75,-84.38"/>
<text text-anchor="start" x="40.75" y="-95.08" font-family="Times New Roman,serif" font-weight="bold" font-size="9.00">Primary (P)</text>
<polygon fill="none" stroke="black" points="93.5,-84.38 93.5,-109.62 148,-109.62 148,-84.38 93.5,-84.38"/>
<text text-anchor="start" x="100.5" y="-95.08" font-family="Times New Roman,serif" font-weight="bold" font-size="9.00">University</text>
<polygon fill="none" stroke="black" points="32.75,-83.38 32.75,-110.62 149,-110.62 149,-83.38 32.75,-83.38"/>
</g>
<!-- n_0_5_6&#45;&gt;n_0_6 -->
<g id="edge3" class="edge">
<title>n_0_5_6&#45;&gt;n_0_6</title>
<path fill="none" stroke="black" d="M177.15,-158.02C161.14,-146.88 141.11,-132.94 124.38,-121.31"/>
<polygon fill="black" stroke="black" points="126.42,-118.46 116.21,-115.62 122.42,-124.21 126.42,-118.46"/>
</g>
<!-- n_5 -->
<g id="node7" class="node">
<title>n_5</title>
<polygon fill="none" stroke="black" points="195.38,-84.38 195.38,-109.62 248.38,-109.62 248.38,-84.38 195.38,-84.38"/>
<text text-anchor="start" x="202.38" y="-95.08" font-family="Times New Roman,serif" font-weight="bold" font-size="9.00">Technical</text>
<polygon fill="none" stroke="black" points="194.38,-83.38 194.38,-110.62 249.38,-110.62 249.38,-83.38 194.38,-83.38"/>
</g>
<!-- n_0_5_6&#45;&gt;n_5 -->
<g id="edge6" class="edge">
<title>n_0_5_6&#45;&gt;n_5</title>
<path fill="none" stroke="black" d="M209.83,-158.22C211.77,-148.54 214.13,-136.72 216.25,-126.11"/>
<polygon fill="black" stroke="black" points="219.68,-126.82 218.21,-116.33 212.82,-125.45 219.68,-126.82"/>
</g>
<!-- n_0 -->
<g id="node5" class="node">
<title>n_0</title>
<polygon fill="none" stroke="black" points="9,-5.38 9,-30.62 68.75,-30.62 68.75,-5.38 9,-5.38"/>
<text text-anchor="start" x="16" y="-16.07" font-family="Times New Roman,serif" font-weight="bold" font-size="9.00">Primary (P)</text>
<polygon fill="none" stroke="black" points="8,-4.38 8,-31.62 69.75,-31.62 69.75,-4.38 8,-4.38"/>
</g>
<!-- n_0_6&#45;&gt;n_0 -->
<g id="edge4" class="edge">
<title>n_0_6&#45;&gt;n_0</title>
<path fill="none" stroke="black" d="M79.59,-79.29C72.89,-69.37 64.25,-56.57 56.65,-45.32"/>
<polygon fill="black" stroke="black" points="59.66,-43.52 51.16,-37.2 53.86,-47.44 59.66,-43.52"/>
</g>
<!-- n_6 -->
<g id="node6" class="node">
<title>n_6</title>
<polygon fill="none" stroke="black" points="115.62,-5.38 115.62,-30.62 170.12,-30.62 170.12,-5.38 115.62,-5.38"/>
<text text-anchor="start" x="122.62" y="-16.07" font-family="Times New Roman,serif" font-weight="bold" font-size="9.00">University</text>
<polygon fill="none" stroke="black" points="114.62,-4.38 114.62,-31.62 171.12,-31.62 171.12,-4.38 114.62,-4.38"/>
</g>
<!-- n_0_6&#45;&gt;n_6 -->
<g id="edge5" class="edge">
<title>n_0_6&#45;&gt;n_6</title>
<path fill="none" stroke="black" d="M102.16,-79.29C108.86,-69.37 117.5,-56.57 125.1,-45.32"/>
<polygon fill="black" stroke="black" points="127.89,-47.44 130.59,-37.2 122.09,-43.52 127.89,-47.44"/>
</g>
<!-- n_1 -->
<g id="node9" class="node">
<title>n_1</title>
<polygon fill="none" stroke="black" points="327.25,-84.38 327.25,-109.62 388.5,-109.62 388.5,-84.38 327.25,-84.38"/>
<text text-anchor="start" x="334.25" y="-95.08" font-family="Times New Roman,serif" font-weight="bold" font-size="9.00">Primary (G)</text>
<polygon fill="none" stroke="black" points="326.25,-83.38 326.25,-110.62 389.5,-110.62 389.5,-83.38 326.25,-83.38"/>
</g>
<!-- n_1_3&#45;&gt;n_1 -->
<g id="edge8" class="edge">
<title>n_1_3&#45;&gt;n_1</title>
<path fill="none" stroke="black" d="M370.48,-161.03C368.45,-150.85 365.8,-137.65 363.47,-125.96"/>
<polygon fill="black" stroke="black" points="366.95,-125.55 361.56,-116.43 360.09,-126.92 366.95,-125.55"/>
</g>
<!-- n_3 -->
<g id="node10" class="node">
<title>n_3</title>
<polygon fill="none" stroke="black" points="435.5,-84.38 435.5,-109.62 504.25,-109.62 504.25,-84.38 435.5,-84.38"/>
<text text-anchor="start" x="442.5" y="-95.08" font-family="Times New Roman,serif" font-weight="bold" font-size="9.00">Secondary (P)</text>
<polygon fill="none" stroke="black" points="434.5,-83.38 434.5,-110.62 505.25,-110.62 505.25,-83.38 434.5,-83.38"/>
</g>
<!-- n_1_3&#45;&gt;n_3 -->
<g id="edge9" class="edge">
<title>n_1_3&#45;&gt;n_3</title>
<path fill="none" stroke="black" d="M394.23,-161.03C407.85,-149.69 425.97,-134.58 441.07,-122.01"/>
<polygon fill="black" stroke="black" points="442.94,-125 448.38,-115.91 438.46,-119.62 442.94,-125"/>
</g>
<!-- n_2 -->
<g id="node12" class="node">
<title>n_2</title>
<polygon fill="none" stroke="black" points="502.75,-166.38 502.75,-191.62 555,-191.62 555,-166.38 502.75,-166.38"/>
<text text-anchor="start" x="509.75" y="-177.07" font-family="Times New Roman,serif" font-weight="bold" font-size="9.00">Preschool</text>
<polygon fill="none" stroke="black" points="501.75,-165.38 501.75,-192.62 556,-192.62 556,-165.38 501.75,-165.38"/>
</g>
<!-- n_2_4&#45;&gt;n_2 -->
<g id="edge11" class="edge">
<title>n_2_4&#45;&gt;n_2</title>
<path fill="none" stroke="black" d="M536.14,-250.63C534.89,-238.52 533.19,-221.94 531.74,-207.88"/>
<polygon fill="black" stroke="black" points="535.26,-207.91 530.76,-198.32 528.3,-208.63 535.26,-207.91"/>
</g>
<!-- n_4 -->
<g id="node13" class="node">
<title>n_4</title>
<polygon fill="none" stroke="black" points="601.75,-166.38 601.75,-191.62 672,-191.62 672,-166.38 601.75,-166.38"/>
<text text-anchor="start" x="608.75" y="-177.07" font-family="Times New Roman,serif" font-weight="bold" font-size="9.00">Secondary (G)</text>
<polygon fill="none" stroke="black" points="600.75,-165.38 600.75,-192.62 673,-192.62 673,-165.38 600.75,-165.38"/>
</g>
<!-- n_2_4&#45;&gt;n_4 -->
<g id="edge12" class="edge">
<title>n_2_4&#45;&gt;n_4</title>
<path fill="none" stroke="black" d="M556.96,-250.63C571.89,-237.43 592.85,-218.92 609.55,-204.15"/>
<polygon fill="black" stroke="black" points="611.54,-207.07 616.71,-197.82 606.9,-201.82 611.54,-207.07"/>
</g>
</g>
</svg>
