<?xml version="1.0" encoding="UTF-8" standalone="no"?>
<!DOCTYPE svg PUBLIC "-//W3C//DTD SVG 1.1//EN"
 "http://www.w3.org/Graphics/SVG/1.1/DTD/svg11.dtd">
<!-- Generated by graphviz version 10.0.1 (20240210.2158)
 -->
<!-- Title: ND Pages: 1 -->
<svg width="661pt" height="311pt"
 viewBox="0.00 0.00 661.38 311.00" xmlns="http://www.w3.org/2000/svg" xmlns:xlink="http://www.w3.org/1999/xlink">
<g id="graph0" class="graph" transform="scale(1 1) rotate(0) translate(4 307)">
<title>ND</title>
<polygon fill="white" stroke="none" points="-4,4 -4,-307 657.38,-307 657.38,4 -4,4"/>
<!-- n_0_1_2_3_4_5_6 -->
<g id="node1" class="node">
<title>n_0_1_2_3_4_5_6</title>
<polygon fill="none" stroke="black" points="325.38,-248 325.38,-298 394.12,-298 394.12,-248 325.38,-248"/>
<text text-anchor="start" x="336.88" y="-283.45" font-family="Times New Roman,serif" font-weight="bold" font-size="9.00">Primary (P)</text>
<text text-anchor="start" x="336.12" y="-274.45" font-family="Times New Roman,serif" font-weight="bold" font-size="9.00">Primary (G)</text>
<text text-anchor="start" x="340.62" y="-265.45" font-family="Times New Roman,serif" font-weight="bold" font-size="9.00">Preschool</text>
<text text-anchor="start" x="332.38" y="-256.45" font-family="Times New Roman,serif" font-weight="bold" font-size="9.00">Secondary (P)</text>
<polygon fill="none" stroke="black" points="394.12,-248 394.12,-298 464.38,-298 464.38,-248 394.12,-248"/>
<text text-anchor="start" x="401.12" y="-278.95" font-family="Times New Roman,serif" font-weight="bold" font-size="9.00">Secondary (G)</text>
<text text-anchor="start" x="409.75" y="-269.95" font-family="Times New Roman,serif" font-weight="bold" font-size="9.00">Technical</text>
<text text-anchor="start" x="409" y="-260.95" font-family="Times New Roman,serif" font-weight="bold" font-size="9.00">University</text>
<polygon fill="none" stroke="black" points="324.38,-247 324.38,-299 465.38,-299 465.38,-247 324.38,-247"/>
</g>
<!-- n_0_1_2_3 -->
<g id="node2" class="node">
<title>n_0_1_2_3</title>
<polygon fill="none" stroke="black" points="243.62,-163 243.62,-195 303.38,-195 303.38,-163 243.62,-163"/>
<text text-anchor="start" x="250.62" y="-180.45" font-family="Times New Roman,serif" font-weight="bold" font-size="9.00">Primary (P)</text>
<text text-anchor="start" x="254.38" y="-171.45" font-family="Times New Roman,serif" font-weight="bold" font-size="9.00">Preschool</text>
<polygon fill="none" stroke="black" points="303.38,-163 303.38,-195 372.12,-195 372.12,-163 303.38,-163"/>
<text text-anchor="start" x="314.12" y="-180.45" font-family="Times New Roman,serif" font-weight="bold" font-size="9.00">Primary (G)</text>
<text text-anchor="start" x="310.38" y="-171.45" font-family="Times New Roman,serif" font-weight="bold" font-size="9.00">Secondary (P)</text>
<polygon fill="none" stroke="black" points="242.62,-162 242.62,-196 373.12,-196 373.12,-162 242.62,-162"/>
</g>
<!-- n_0_1_2_3_4_5_6&#45;&gt;n_0_1_2_3 -->
<g id="edge1" class="edge">
<title>n_0_1_2_3_4_5_6&#45;&gt;n_0_1_2_3</title>
<path fill="none" stroke="black" d="M367.59,-243.14C356.94,-231.89 344.79,-219.04 334.24,-207.88"/>
<polygon fill="black" stroke="black" points="336.99,-205.69 327.57,-200.83 331.9,-210.5 336.99,-205.69"/>
</g>
<!-- n_4_5_6 -->
<g id="node9" class="node">
<title>n_4_5_6</title>
<polygon fill="none" stroke="black" points="420.25,-163 420.25,-195 490.5,-195 490.5,-163 420.25,-163"/>
<text text-anchor="start" x="427.25" y="-180.45" font-family="Times New Roman,serif" font-weight="bold" font-size="9.00">Secondary (G)</text>
<text text-anchor="start" x="435.12" y="-171.45" font-family="Times New Roman,serif" font-weight="bold" font-size="9.00">University</text>
<polygon fill="none" stroke="black" points="490.5,-163 490.5,-195 543.5,-195 543.5,-163 490.5,-163"/>
<text text-anchor="start" x="497.5" y="-177.07" font-family="Times New Roman,serif" font-weight="bold" font-size="9.00">Technical</text>
<polygon fill="none" stroke="black" points="419.25,-162 419.25,-196 544.5,-196 544.5,-162 419.25,-162"/>
</g>
<!-- n_0_1_2_3_4_5_6&#45;&gt;n_4_5_6 -->
<g id="edge8" class="edge">
<title>n_0_1_2_3_4_5_6&#45;&gt;n_4_5_6</title>
<path fill="none" stroke="black" d="M422.16,-243.14C432.81,-231.89 444.96,-219.04 455.51,-207.88"/>
<polygon fill="black" stroke="black" points="457.85,-210.5 462.18,-200.83 452.76,-205.69 457.85,-210.5"/>
</g>
<!-- n_0_2 -->
<g id="node3" class="node">
<title>n_0_2</title>
<polygon fill="none" stroke="black" points="83.88,-84.38 83.88,-109.62 143.62,-109.62 143.62,-84.38 83.88,-84.38"/>
<text text-anchor="start" x="90.88" y="-95.08" font-family="Times New Roman,serif" font-weight="bold" font-size="9.00">Primary (P)</text>
<polygon fill="none" stroke="black" points="143.62,-84.38 143.62,-109.62 195.88,-109.62 195.88,-84.38 143.62,-84.38"/>
<text text-anchor="start" x="150.62" y="-95.08" font-family="Times New Roman,serif" font-weight="bold" font-size="9.00">Preschool</text>
<polygon fill="none" stroke="black" points="82.88,-83.38 82.88,-110.62 196.88,-110.62 196.88,-83.38 82.88,-83.38"/>
</g>
<!-- n_0_1_2_3&#45;&gt;n_0_2 -->
<g id="edge2" class="edge">
<title>n_0_1_2_3&#45;&gt;n_0_2</title>
<path fill="none" stroke="black" d="M265.91,-158.02C241.51,-146.4 210.72,-131.74 185.69,-119.81"/>
<polygon fill="black" stroke="black" points="187.24,-116.68 176.71,-115.54 184.23,-123 187.24,-116.68"/>
</g>
<!-- n_1_3 -->
<g id="node6" class="node">
<title>n_1_3</title>
<polygon fill="none" stroke="black" points="242.88,-84.38 242.88,-109.62 304.12,-109.62 304.12,-84.38 242.88,-84.38"/>
<text text-anchor="start" x="249.88" y="-95.08" font-family="Times New Roman,serif" font-weight="bold" font-size="9.00">Primary (G)</text>
<polygon fill="none" stroke="black" points="304.12,-84.38 304.12,-109.62 372.88,-109.62 372.88,-84.38 304.12,-84.38"/>
<text text-anchor="start" x="311.12" y="-95.08" font-family="Times New Roman,serif" font-weight="bold" font-size="9.00">Secondary (P)</text>
<polygon fill="none" stroke="black" points="241.88,-83.38 241.88,-110.62 373.88,-110.62 373.88,-83.38 241.88,-83.38"/>
</g>
<!-- n_0_1_2_3&#45;&gt;n_1_3 -->
<g id="edge5" class="edge">
<title>n_0_1_2_3&#45;&gt;n_1_3</title>
<path fill="none" stroke="black" d="M307.88,-158.22C307.88,-148.54 307.88,-136.72 307.88,-126.11"/>
<polygon fill="black" stroke="black" points="311.38,-126.36 307.88,-116.36 304.38,-126.36 311.38,-126.36"/>
</g>
<!-- n_0 -->
<g id="node4" class="node">
<title>n_0</title>
<polygon fill="none" stroke="black" points="9,-5.38 9,-30.62 68.75,-30.62 68.75,-5.38 9,-5.38"/>
<text text-anchor="start" x="16" y="-16.07" font-family="Times New Roman,serif" font-weight="bold" font-size="9.00">Primary (P)</text>
<polygon fill="none" stroke="black" points="8,-4.38 8,-31.62 69.75,-31.62 69.75,-4.38 8,-4.38"/>
</g>
<!-- n_0_2&#45;&gt;n_0 -->
<g id="edge3" class="edge">
<title>n_0_2&#45;&gt;n_0</title>
<path fill="none" stroke="black" d="M117.96,-79.29C103.89,-68.57 85.42,-54.48 69.86,-42.62"/>
<polygon fill="black" stroke="black" points="72.37,-40.14 62.3,-36.86 68.13,-45.71 72.37,-40.14"/>
</g>
<!-- n_2 -->
<g id="node5" class="node">
<title>n_2</title>
<polygon fill="none" stroke="black" points="115.75,-5.38 115.75,-30.62 168,-30.62 168,-5.38 115.75,-5.38"/>
<text text-anchor="start" x="122.75" y="-16.07" font-family="Times New Roman,serif" font-weight="bold" font-size="9.00">Preschool</text>
<polygon fill="none" stroke="black" points="114.75,-4.38 114.75,-31.62 169,-31.62 169,-4.38 114.75,-4.38"/>
</g>
<!-- n_0_2&#45;&gt;n_2 -->
<g id="edge4" class="edge">
<title>n_0_2&#45;&gt;n_2</title>
<path fill="none" stroke="black" d="M140.31,-79.29C140.55,-69.97 140.86,-58.11 141.14,-47.38"/>
<polygon fill="black" stroke="black" points="144.63,-47.54 141.4,-37.45 137.64,-47.36 144.63,-47.54"/>
</g>
<!-- n_1 -->
<g id="node7" class="node">
<title>n_1</title>
<polygon fill="none" stroke="black" points="219.25,-5.38 219.25,-30.62 280.5,-30.62 280.5,-5.38 219.25,-5.38"/>
<text text-anchor="start" x="226.25" y="-16.07" font-family="Times New Roman,serif" font-weight="bold" font-size="9.00">Primary (G)</text>
<polygon fill="none" stroke="black" points="218.25,-4.38 218.25,-31.62 281.5,-31.62 281.5,-4.38 218.25,-4.38"/>
</g>
<!-- n_1_3&#45;&gt;n_1 -->
<g id="edge6" class="edge">
<title>n_1_3&#45;&gt;n_1</title>
<path fill="none" stroke="black" d="M295.29,-79.29C287.74,-69.27 277.98,-56.31 269.44,-44.98"/>
<polygon fill="black" stroke="black" points="272.36,-43.03 263.55,-37.15 266.77,-47.24 272.36,-43.03"/>
</g>
<!-- n_3 -->
<g id="node8" class="node">
<title>n_3</title>
<polygon fill="none" stroke="black" points="327.5,-5.38 327.5,-30.62 396.25,-30.62 396.25,-5.38 327.5,-5.38"/>
<text text-anchor="start" x="334.5" y="-16.07" font-family="Times New Roman,serif" font-weight="bold" font-size="9.00">Secondary (P)</text>
<polygon fill="none" stroke="black" points="326.5,-4.38 326.5,-31.62 397.25,-31.62 397.25,-4.38 326.5,-4.38"/>
</g>
<!-- n_1_3&#45;&gt;n_3 -->
<g id="edge7" class="edge">
<title>n_1_3&#45;&gt;n_3</title>
<path fill="none" stroke="black" d="M319.59,-79.29C326.55,-69.37 335.53,-56.57 343.42,-45.32"/>
<polygon fill="black" stroke="black" points="346.25,-47.38 349.13,-37.18 340.52,-43.36 346.25,-47.38"/>
</g>
<!-- n_4_6 -->
<g id="node10" class="node">
<title>n_4_6</title>
<polygon fill="none" stroke="black" points="419.5,-84.38 419.5,-109.62 489.75,-109.62 489.75,-84.38 419.5,-84.38"/>
<text text-anchor="start" x="426.5" y="-95.08" font-family="Times New Roman,serif" font-weight="bold" font-size="9.00">Secondary (G)</text>
<polygon fill="none" stroke="black" points="489.75,-84.38 489.75,-109.62 544.25,-109.62 544.25,-84.38 489.75,-84.38"/>
<text text-anchor="start" x="496.75" y="-95.08" font-family="Times New Roman,serif" font-weight="bold" font-size="9.00">University</text>
<polygon fill="none" stroke="black" points="418.5,-83.38 418.5,-110.62 545.25,-110.62 545.25,-83.38 418.5,-83.38"/>
</g>
<!-- n_4_5_6&#45;&gt;n_4_6 -->
<g id="edge9" class="edge">
<title>n_4_5_6&#45;&gt;n_4_6</title>
<path fill="none" stroke="black" d="M481.88,-158.22C481.88,-148.54 481.88,-136.72 481.88,-126.11"/>
<polygon fill="black" stroke="black" points="485.38,-126.36 481.88,-116.36 478.38,-126.36 485.38,-126.36"/>
</g>
<!-- n_5 -->
<g id="node13" class="node">
<title>n_5</title>
<polygon fill="none" stroke="black" points="591.38,-84.38 591.38,-109.62 644.38,-109.62 644.38,-84.38 591.38,-84.38"/>
<text text-anchor="start" x="598.38" y="-95.08" font-family="Times New Roman,serif" font-weight="bold" font-size="9.00">Technical</text>
<polygon fill="none" stroke="black" points="590.38,-83.38 590.38,-110.62 645.38,-110.62 645.38,-83.38 590.38,-83.38"/>
</g>
<!-- n_4_5_6&#45;&gt;n_5 -->
<g id="edge12" class="edge">
<title>n_4_5_6&#45;&gt;n_5</title>
<path fill="none" stroke="black" d="M515.84,-158.02C535.23,-146.62 559.58,-132.29 579.63,-120.49"/>
<polygon fill="black" stroke="black" points="581.24,-123.61 588.08,-115.53 577.69,-117.58 581.24,-123.61"/>
</g>
<!-- n_4 -->
<g id="node11" class="node">
<title>n_4</title>
<polygon fill="none" stroke="black" points="445.75,-5.38 445.75,-30.62 516,-30.62 516,-5.38 445.75,-5.38"/>
<text text-anchor="start" x="452.75" y="-16.07" font-family="Times New Roman,serif" font-weight="bold" font-size="9.00">Secondary (G)</text>
<polygon fill="none" stroke="black" points="444.75,-4.38 444.75,-31.62 517,-31.62 517,-4.38 444.75,-4.38"/>
</g>
<!-- n_4_6&#45;&gt;n_4 -->
<g id="edge10" class="edge">
<title>n_4_6&#45;&gt;n_4</title>
<path fill="none" stroke="black" d="M481.66,-79.29C481.54,-69.97 481.38,-58.11 481.24,-47.38"/>
<polygon fill="black" stroke="black" points="484.74,-47.41 481.11,-37.45 477.74,-47.5 484.74,-47.41"/>
</g>
<!-- n_6 -->
<g id="node12" class="node">
<title>n_6</title>
<polygon fill="none" stroke="black" points="562.62,-5.38 562.62,-30.62 617.12,-30.62 617.12,-5.38 562.62,-5.38"/>
<text text-anchor="start" x="569.62" y="-16.07" font-family="Times New Roman,serif" font-weight="bold" font-size="9.00">University</text>
<polygon fill="none" stroke="black" points="561.62,-4.38 561.62,-31.62 618.12,-31.62 618.12,-4.38 561.62,-4.38"/>
</g>
<!-- n_4_6&#45;&gt;n_6 -->
<g id="edge11" class="edge">
<title>n_4_6&#45;&gt;n_6</title>
<path fill="none" stroke="black" d="M505.58,-79.1C520.63,-68.37 540.33,-54.33 556.89,-42.51"/>
<polygon fill="black" stroke="black" points="558.89,-45.39 565,-36.74 554.82,-39.69 558.89,-45.39"/>
</g>
</g>
</svg>
