<?xml version="1.0" encoding="UTF-8" standalone="no"?>
<!DOCTYPE svg PUBLIC "-//W3C//DTD SVG 1.1//EN"
 "http://www.w3.org/Graphics/SVG/1.1/DTD/svg11.dtd">
<!-- Generated by graphviz version 10.0.1 (20240210.2158)
 -->
<!-- Title: ND Pages: 1 -->
<svg width="561pt" height="638pt"
 viewBox="0.00 0.00 560.50 638.00" xmlns="http://www.w3.org/2000/svg" xmlns:xlink="http://www.w3.org/1999/xlink">
<g id="graph0" class="graph" transform="scale(1 1) rotate(0) translate(4 634)">
<title>ND</title>
<polygon fill="white" stroke="none" points="-4,4 -4,-634 556.5,-634 556.5,4 -4,4"/>
<!-- n_0_1_2_3_4_5_6 -->
<g id="node1" class="node">
<title>n_0_1_2_3_4_5_6</title>
<polygon fill="none" stroke="black" points="378.62,-557 378.62,-625 448.88,-625 448.88,-557 378.62,-557"/>
<text text-anchor="start" x="390.12" y="-610.45" font-family="Times New Roman,serif" font-weight="bold" font-size="9.00">Primary (G)</text>
<text text-anchor="start" x="394.62" y="-601.45" font-family="Times New Roman,serif" font-weight="bold" font-size="9.00">Preschool</text>
<text text-anchor="start" x="386.38" y="-592.45" font-family="Times New Roman,serif" font-weight="bold" font-size="9.00">Secondary (P)</text>
<text text-anchor="start" x="385.62" y="-583.45" font-family="Times New Roman,serif" font-weight="bold" font-size="9.00">Secondary (G)</text>
<text text-anchor="start" x="394.25" y="-574.45" font-family="Times New Roman,serif" font-weight="bold" font-size="9.00">Technical</text>
<text text-anchor="start" x="393.5" y="-565.45" font-family="Times New Roman,serif" font-weight="bold" font-size="9.00">University</text>
<polygon fill="none" stroke="black" points="448.88,-557 448.88,-625 508.62,-625 508.62,-557 448.88,-557"/>
<text text-anchor="start" x="455.88" y="-589.08" font-family="Times New Roman,serif" font-weight="bold" font-size="9.00">Primary (P)</text>
<polygon fill="none" stroke="black" points="377.62,-556 377.62,-626 509.62,-626 509.62,-556 377.62,-556"/>
</g>
<!-- n_1_2_3_4_5_6 -->
<g id="node2" class="node">
<title>n_1_2_3_4_5_6</title>
<polygon fill="none" stroke="black" points="312.25,-445 312.25,-504 382.5,-504 382.5,-445 312.25,-445"/>
<text text-anchor="start" x="323.75" y="-489.45" font-family="Times New Roman,serif" font-weight="bold" font-size="9.00">Primary (G)</text>
<text text-anchor="start" x="328.25" y="-480.45" font-family="Times New Roman,serif" font-weight="bold" font-size="9.00">Preschool</text>
<text text-anchor="start" x="320" y="-471.45" font-family="Times New Roman,serif" font-weight="bold" font-size="9.00">Secondary (P)</text>
<text text-anchor="start" x="319.25" y="-462.45" font-family="Times New Roman,serif" font-weight="bold" font-size="9.00">Secondary (G)</text>
<text text-anchor="start" x="327.88" y="-453.45" font-family="Times New Roman,serif" font-weight="bold" font-size="9.00">Technical</text>
<polygon fill="none" stroke="black" points="382.5,-445 382.5,-504 437,-504 437,-445 382.5,-445"/>
<text text-anchor="start" x="389.5" y="-472.57" font-family="Times New Roman,serif" font-weight="bold" font-size="9.00">University</text>
<polygon fill="none" stroke="black" points="311.25,-444 311.25,-505 438,-505 438,-444 311.25,-444"/>
</g>
<!-- n_0_1_2_3_4_5_6&#45;&gt;n_1_2_3_4_5_6 -->
<g id="edge1" class="edge">
<title>n_0_1_2_3_4_5_6&#45;&gt;n_1_2_3_4_5_6</title>
<path fill="none" stroke="black" d="M420.84,-552.19C414.28,-541.31 407.08,-529.36 400.36,-518.21"/>
<polygon fill="black" stroke="black" points="403.54,-516.71 395.38,-509.95 397.55,-520.32 403.54,-516.71"/>
</g>
<!-- n_0 -->
<g id="node13" class="node">
<title>n_0</title>
<polygon fill="none" stroke="black" points="483.75,-461.88 483.75,-487.12 543.5,-487.12 543.5,-461.88 483.75,-461.88"/>
<text text-anchor="start" x="490.75" y="-472.57" font-family="Times New Roman,serif" font-weight="bold" font-size="9.00">Primary (P)</text>
<polygon fill="none" stroke="black" points="482.75,-460.88 482.75,-488.12 544.5,-488.12 544.5,-460.88 482.75,-460.88"/>
</g>
<!-- n_0_1_2_3_4_5_6&#45;&gt;n_0 -->
<g id="edge12" class="edge">
<title>n_0_1_2_3_4_5_6&#45;&gt;n_0</title>
<path fill="none" stroke="black" d="M466.74,-552.19C476.77,-535.78 488.28,-516.96 497.38,-502.07"/>
<polygon fill="black" stroke="black" points="500.24,-504.11 502.47,-493.75 494.26,-500.46 500.24,-504.11"/>
</g>
<!-- n_1_2_3_4_5 -->
<g id="node3" class="node">
<title>n_1_2_3_4_5</title>
<polygon fill="none" stroke="black" points="245.38,-342 245.38,-392 315.62,-392 315.62,-342 245.38,-342"/>
<text text-anchor="start" x="256.88" y="-377.45" font-family="Times New Roman,serif" font-weight="bold" font-size="9.00">Primary (G)</text>
<text text-anchor="start" x="253.12" y="-368.45" font-family="Times New Roman,serif" font-weight="bold" font-size="9.00">Secondary (P)</text>
<text text-anchor="start" x="252.38" y="-359.45" font-family="Times New Roman,serif" font-weight="bold" font-size="9.00">Secondary (G)</text>
<text text-anchor="start" x="261" y="-350.45" font-family="Times New Roman,serif" font-weight="bold" font-size="9.00">Technical</text>
<polygon fill="none" stroke="black" points="315.62,-342 315.62,-392 367.88,-392 367.88,-342 315.62,-342"/>
<text text-anchor="start" x="322.62" y="-365.07" font-family="Times New Roman,serif" font-weight="bold" font-size="9.00">Preschool</text>
<polygon fill="none" stroke="black" points="244.38,-341 244.38,-393 368.88,-393 368.88,-341 244.38,-341"/>
</g>
<!-- n_1_2_3_4_5_6&#45;&gt;n_1_2_3_4_5 -->
<g id="edge2" class="edge">
<title>n_1_2_3_4_5_6&#45;&gt;n_1_2_3_4_5</title>
<path fill="none" stroke="black" d="M353.11,-440.12C346.19,-429.38 338.46,-417.4 331.33,-406.33"/>
<polygon fill="black" stroke="black" points="334.43,-404.68 326.07,-398.17 328.55,-408.47 334.43,-404.68"/>
</g>
<!-- n_6 -->
<g id="node12" class="node">
<title>n_6</title>
<polygon fill="none" stroke="black" points="415.38,-354.38 415.38,-379.62 469.88,-379.62 469.88,-354.38 415.38,-354.38"/>
<text text-anchor="start" x="422.38" y="-365.07" font-family="Times New Roman,serif" font-weight="bold" font-size="9.00">University</text>
<polygon fill="none" stroke="black" points="414.38,-353.38 414.38,-380.62 470.88,-380.62 470.88,-353.38 414.38,-353.38"/>
</g>
<!-- n_1_2_3_4_5_6&#45;&gt;n_6 -->
<g id="edge11" class="edge">
<title>n_1_2_3_4_5_6&#45;&gt;n_6</title>
<path fill="none" stroke="black" d="M396.14,-440.12C405.66,-425.35 416.69,-408.23 425.62,-394.38"/>
<polygon fill="black" stroke="black" points="428.4,-396.52 430.88,-386.22 422.52,-392.73 428.4,-396.52"/>
</g>
<!-- n_1_3_4_5 -->
<g id="node4" class="node">
<title>n_1_3_4_5</title>
<polygon fill="none" stroke="black" points="166.12,-248 166.12,-289 234.88,-289 234.88,-248 166.12,-248"/>
<text text-anchor="start" x="176.88" y="-274.45" font-family="Times New Roman,serif" font-weight="bold" font-size="9.00">Primary (G)</text>
<text text-anchor="start" x="173.12" y="-265.45" font-family="Times New Roman,serif" font-weight="bold" font-size="9.00">Secondary (P)</text>
<text text-anchor="start" x="181" y="-256.45" font-family="Times New Roman,serif" font-weight="bold" font-size="9.00">Technical</text>
<polygon fill="none" stroke="black" points="234.88,-248 234.88,-289 305.12,-289 305.12,-248 234.88,-248"/>
<text text-anchor="start" x="241.88" y="-266.57" font-family="Times New Roman,serif" font-weight="bold" font-size="9.00">Secondary (G)</text>
<polygon fill="none" stroke="black" points="165.12,-247 165.12,-290 306.12,-290 306.12,-247 165.12,-247"/>
</g>
<!-- n_1_2_3_4_5&#45;&gt;n_1_3_4_5 -->
<g id="edge3" class="edge">
<title>n_1_2_3_4_5&#45;&gt;n_1_3_4_5</title>
<path fill="none" stroke="black" d="M285.32,-337.05C277.41,-326.29 268.37,-314 260.19,-302.88"/>
<polygon fill="black" stroke="black" points="263.2,-301.07 254.46,-295.09 257.56,-305.22 263.2,-301.07"/>
</g>
<!-- n_2 -->
<g id="node11" class="node">
<title>n_2</title>
<polygon fill="none" stroke="black" points="352.5,-255.88 352.5,-281.12 404.75,-281.12 404.75,-255.88 352.5,-255.88"/>
<text text-anchor="start" x="359.5" y="-266.57" font-family="Times New Roman,serif" font-weight="bold" font-size="9.00">Preschool</text>
<polygon fill="none" stroke="black" points="351.5,-254.88 351.5,-282.12 405.75,-282.12 405.75,-254.88 351.5,-254.88"/>
</g>
<!-- n_1_2_3_4_5&#45;&gt;n_2 -->
<g id="edge10" class="edge">
<title>n_1_2_3_4_5&#45;&gt;n_2</title>
<path fill="none" stroke="black" d="M328.23,-337.05C338.06,-323.86 349.62,-308.38 359.18,-295.56"/>
<polygon fill="black" stroke="black" points="361.96,-297.69 365.14,-287.58 356.35,-293.5 361.96,-297.69"/>
</g>
<!-- n_1_3_5 -->
<g id="node5" class="node">
<title>n_1_3_5</title>
<polygon fill="none" stroke="black" points="103.75,-163 103.75,-195 172.5,-195 172.5,-163 103.75,-163"/>
<text text-anchor="start" x="114.5" y="-180.45" font-family="Times New Roman,serif" font-weight="bold" font-size="9.00">Primary (G)</text>
<text text-anchor="start" x="110.75" y="-171.45" font-family="Times New Roman,serif" font-weight="bold" font-size="9.00">Secondary (P)</text>
<polygon fill="none" stroke="black" points="172.5,-163 172.5,-195 225.5,-195 225.5,-163 172.5,-163"/>
<text text-anchor="start" x="179.5" y="-177.07" font-family="Times New Roman,serif" font-weight="bold" font-size="9.00">Technical</text>
<polygon fill="none" stroke="black" points="102.75,-162 102.75,-196 226.5,-196 226.5,-162 102.75,-162"/>
</g>
<!-- n_1_3_4_5&#45;&gt;n_1_3_5 -->
<g id="edge4" class="edge">
<title>n_1_3_4_5&#45;&gt;n_1_3_5</title>
<path fill="none" stroke="black" d="M215.85,-243.13C207.19,-232.46 196.97,-219.87 187.95,-208.75"/>
<polygon fill="black" stroke="black" points="190.68,-206.56 181.67,-201 185.25,-210.97 190.68,-206.56"/>
</g>
<!-- n_4 -->
<g id="node10" class="node">
<title>n_4</title>
<polygon fill="none" stroke="black" points="272.5,-166.38 272.5,-191.62 342.75,-191.62 342.75,-166.38 272.5,-166.38"/>
<text text-anchor="start" x="279.5" y="-177.07" font-family="Times New Roman,serif" font-weight="bold" font-size="9.00">Secondary (G)</text>
<polygon fill="none" stroke="black" points="271.5,-165.38 271.5,-192.62 343.75,-192.62 343.75,-165.38 271.5,-165.38"/>
</g>
<!-- n_1_3_4_5&#45;&gt;n_4 -->
<g id="edge9" class="edge">
<title>n_1_3_4_5&#45;&gt;n_4</title>
<path fill="none" stroke="black" d="M255.68,-243.13C265.36,-231.36 276.97,-217.25 286.76,-205.36"/>
<polygon fill="black" stroke="black" points="289.21,-207.89 292.86,-197.94 283.81,-203.44 289.21,-207.89"/>
</g>
<!-- n_1_3 -->
<g id="node6" class="node">
<title>n_1_3</title>
<polygon fill="none" stroke="black" points="30.62,-84.38 30.62,-109.62 91.88,-109.62 91.88,-84.38 30.62,-84.38"/>
<text text-anchor="start" x="37.62" y="-95.08" font-family="Times New Roman,serif" font-weight="bold" font-size="9.00">Primary (G)</text>
<polygon fill="none" stroke="black" points="91.88,-84.38 91.88,-109.62 160.62,-109.62 160.62,-84.38 91.88,-84.38"/>
<text text-anchor="start" x="98.88" y="-95.08" font-family="Times New Roman,serif" font-weight="bold" font-size="9.00">Secondary (P)</text>
<polygon fill="none" stroke="black" points="29.62,-83.38 29.62,-110.62 161.62,-110.62 161.62,-83.38 29.62,-83.38"/>
</g>
<!-- n_1_3_5&#45;&gt;n_1_3 -->
<g id="edge5" class="edge">
<title>n_1_3_5&#45;&gt;n_1_3</title>
<path fill="none" stroke="black" d="M147.57,-158.22C138.5,-147.71 127.25,-134.66 117.54,-123.41"/>
<polygon fill="black" stroke="black" points="120.32,-121.28 111.14,-115.99 115.02,-125.85 120.32,-121.28"/>
</g>
<!-- n_5 -->
<g id="node9" class="node">
<title>n_5</title>
<polygon fill="none" stroke="black" points="208.12,-84.38 208.12,-109.62 261.12,-109.62 261.12,-84.38 208.12,-84.38"/>
<text text-anchor="start" x="215.12" y="-95.08" font-family="Times New Roman,serif" font-weight="bold" font-size="9.00">Technical</text>
<polygon fill="none" stroke="black" points="207.12,-83.38 207.12,-110.62 262.12,-110.62 262.12,-83.38 207.12,-83.38"/>
</g>
<!-- n_1_3_5&#45;&gt;n_5 -->
<g id="edge8" class="edge">
<title>n_1_3_5&#45;&gt;n_5</title>
<path fill="none" stroke="black" d="M181.93,-158.22C191.13,-147.71 202.54,-134.66 212.39,-123.41"/>
<polygon fill="black" stroke="black" points="214.94,-125.81 218.89,-115.98 209.67,-121.2 214.94,-125.81"/>
</g>
<!-- n_1 -->
<g id="node7" class="node">
<title>n_1</title>
<polygon fill="none" stroke="black" points="9,-5.38 9,-30.62 70.25,-30.62 70.25,-5.38 9,-5.38"/>
<text text-anchor="start" x="16" y="-16.07" font-family="Times New Roman,serif" font-weight="bold" font-size="9.00">Primary (G)</text>
<polygon fill="none" stroke="black" points="8,-4.38 8,-31.62 71.25,-31.62 71.25,-4.38 8,-4.38"/>
</g>
<!-- n_1_3&#45;&gt;n_1 -->
<g id="edge6" class="edge">
<title>n_1_3&#45;&gt;n_1</title>
<path fill="none" stroke="black" d="M83.47,-79.29C76.19,-69.27 66.76,-56.31 58.52,-44.98"/>
<polygon fill="black" stroke="black" points="61.55,-43.19 52.84,-37.17 55.89,-47.31 61.55,-43.19"/>
</g>
<!-- n_3 -->
<g id="node8" class="node">
<title>n_3</title>
<polygon fill="none" stroke="black" points="117.25,-5.38 117.25,-30.62 186,-30.62 186,-5.38 117.25,-5.38"/>
<text text-anchor="start" x="124.25" y="-16.07" font-family="Times New Roman,serif" font-weight="bold" font-size="9.00">Secondary (P)</text>
<polygon fill="none" stroke="black" points="116.25,-4.38 116.25,-31.62 187,-31.62 187,-4.38 116.25,-4.38"/>
</g>
<!-- n_1_3&#45;&gt;n_3 -->
<g id="edge7" class="edge">
<title>n_1_3&#45;&gt;n_3</title>
<path fill="none" stroke="black" d="M107.78,-79.29C115.06,-69.27 124.49,-56.31 132.73,-44.98"/>
<polygon fill="black" stroke="black" points="135.36,-47.31 138.41,-37.17 129.7,-43.19 135.36,-47.31"/>
</g>
</g>
</svg>
