<?xml version="1.0" encoding="UTF-8" standalone="no"?>
<!DOCTYPE svg PUBLIC "-//W3C//DTD SVG 1.1//EN"
 "http://www.w3.org/Graphics/SVG/1.1/DTD/svg11.dtd">
<!-- Generated by graphviz version 10.0.1 (20240210.2158)
 -->
<!-- Title: ND Pages: 1 -->
<svg width="570pt" height="638pt"
 viewBox="0.00 0.00 569.50 638.00" xmlns="http://www.w3.org/2000/svg" xmlns:xlink="http://www.w3.org/1999/xlink">
<g id="graph0" class="graph" transform="scale(1 1) rotate(0) translate(4 634)">
<title>ND</title>
<polygon fill="white" stroke="none" points="-4,4 -4,-634 565.5,-634 565.5,4 -4,4"/>
<!-- n_0_1_2_3_4_5_6 -->
<g id="node1" class="node">
<title>n_0_1_2_3_4_5_6</title>
<polygon fill="none" stroke="black" points="374.88,-557 374.88,-625 443.62,-625 443.62,-557 374.88,-557"/>
<text text-anchor="start" x="386.38" y="-610.45" font-family="Times New Roman,serif" font-weight="bold" font-size="9.00">Primary (P)</text>
<text text-anchor="start" x="385.62" y="-601.45" font-family="Times New Roman,serif" font-weight="bold" font-size="9.00">Primary (G)</text>
<text text-anchor="start" x="390.12" y="-592.45" font-family="Times New Roman,serif" font-weight="bold" font-size="9.00">Preschool</text>
<text text-anchor="start" x="381.88" y="-583.45" font-family="Times New Roman,serif" font-weight="bold" font-size="9.00">Secondary (P)</text>
<text text-anchor="start" x="389.75" y="-574.45" font-family="Times New Roman,serif" font-weight="bold" font-size="9.00">Technical</text>
<text text-anchor="start" x="389" y="-565.45" font-family="Times New Roman,serif" font-weight="bold" font-size="9.00">University</text>
<polygon fill="none" stroke="black" points="443.62,-557 443.62,-625 513.88,-625 513.88,-557 443.62,-557"/>
<text text-anchor="start" x="450.62" y="-589.08" font-family="Times New Roman,serif" font-weight="bold" font-size="9.00">Secondary (G)</text>
<polygon fill="none" stroke="black" points="373.88,-556 373.88,-626 514.88,-626 514.88,-556 373.88,-556"/>
</g>
<!-- n_0_1_2_3_5_6 -->
<g id="node2" class="node">
<title>n_0_1_2_3_5_6</title>
<polygon fill="none" stroke="black" points="307.12,-445 307.12,-504 375.88,-504 375.88,-445 307.12,-445"/>
<text text-anchor="start" x="317.88" y="-489.45" font-family="Times New Roman,serif" font-weight="bold" font-size="9.00">Primary (G)</text>
<text text-anchor="start" x="322.38" y="-480.45" font-family="Times New Roman,serif" font-weight="bold" font-size="9.00">Preschool</text>
<text text-anchor="start" x="314.12" y="-471.45" font-family="Times New Roman,serif" font-weight="bold" font-size="9.00">Secondary (P)</text>
<text text-anchor="start" x="322" y="-462.45" font-family="Times New Roman,serif" font-weight="bold" font-size="9.00">Technical</text>
<text text-anchor="start" x="321.25" y="-453.45" font-family="Times New Roman,serif" font-weight="bold" font-size="9.00">University</text>
<polygon fill="none" stroke="black" points="375.88,-445 375.88,-504 435.62,-504 435.62,-445 375.88,-445"/>
<text text-anchor="start" x="382.88" y="-472.57" font-family="Times New Roman,serif" font-weight="bold" font-size="9.00">Primary (P)</text>
<polygon fill="none" stroke="black" points="306.12,-444 306.12,-505 436.62,-505 436.62,-444 306.12,-444"/>
</g>
<!-- n_0_1_2_3_4_5_6&#45;&gt;n_0_1_2_3_5_6 -->
<g id="edge1" class="edge">
<title>n_0_1_2_3_4_5_6&#45;&gt;n_0_1_2_3_5_6</title>
<path fill="none" stroke="black" d="M420.27,-552.19C413.33,-541.31 405.72,-529.36 398.6,-518.21"/>
<polygon fill="black" stroke="black" points="401.65,-516.48 393.32,-509.93 395.75,-520.24 401.65,-516.48"/>
</g>
<!-- n_4 -->
<g id="node13" class="node">
<title>n_4</title>
<polygon fill="none" stroke="black" points="482.25,-461.88 482.25,-487.12 552.5,-487.12 552.5,-461.88 482.25,-461.88"/>
<text text-anchor="start" x="489.25" y="-472.57" font-family="Times New Roman,serif" font-weight="bold" font-size="9.00">Secondary (G)</text>
<polygon fill="none" stroke="black" points="481.25,-460.88 481.25,-488.12 553.5,-488.12 553.5,-460.88 481.25,-460.88"/>
</g>
<!-- n_0_1_2_3_4_5_6&#45;&gt;n_4 -->
<g id="edge12" class="edge">
<title>n_0_1_2_3_4_5_6&#45;&gt;n_4</title>
<path fill="none" stroke="black" d="M468.48,-552.19C478.94,-535.78 490.94,-516.96 500.44,-502.07"/>
<polygon fill="black" stroke="black" points="503.32,-504.05 505.75,-493.74 497.42,-500.29 503.32,-504.05"/>
</g>
<!-- n_1_2_3_5_6 -->
<g id="node3" class="node">
<title>n_1_2_3_5_6</title>
<polygon fill="none" stroke="black" points="240.75,-342 240.75,-392 309.5,-392 309.5,-342 240.75,-342"/>
<text text-anchor="start" x="251.5" y="-377.45" font-family="Times New Roman,serif" font-weight="bold" font-size="9.00">Primary (G)</text>
<text text-anchor="start" x="256" y="-368.45" font-family="Times New Roman,serif" font-weight="bold" font-size="9.00">Preschool</text>
<text text-anchor="start" x="247.75" y="-359.45" font-family="Times New Roman,serif" font-weight="bold" font-size="9.00">Secondary (P)</text>
<text text-anchor="start" x="255.62" y="-350.45" font-family="Times New Roman,serif" font-weight="bold" font-size="9.00">Technical</text>
<polygon fill="none" stroke="black" points="309.5,-342 309.5,-392 364,-392 364,-342 309.5,-342"/>
<text text-anchor="start" x="316.5" y="-365.07" font-family="Times New Roman,serif" font-weight="bold" font-size="9.00">University</text>
<polygon fill="none" stroke="black" points="239.75,-341 239.75,-393 365,-393 365,-341 239.75,-341"/>
</g>
<!-- n_0_1_2_3_5_6&#45;&gt;n_1_2_3_5_6 -->
<g id="edge2" class="edge">
<title>n_0_1_2_3_5_6&#45;&gt;n_1_2_3_5_6</title>
<path fill="none" stroke="black" d="M349.54,-440.12C342.52,-429.38 334.68,-417.4 327.45,-406.33"/>
<polygon fill="black" stroke="black" points="330.51,-404.62 322.1,-398.16 324.65,-408.45 330.51,-404.62"/>
</g>
<!-- n_0 -->
<g id="node12" class="node">
<title>n_0</title>
<polygon fill="none" stroke="black" points="411.5,-354.38 411.5,-379.62 471.25,-379.62 471.25,-354.38 411.5,-354.38"/>
<text text-anchor="start" x="418.5" y="-365.07" font-family="Times New Roman,serif" font-weight="bold" font-size="9.00">Primary (P)</text>
<polygon fill="none" stroke="black" points="410.5,-353.38 410.5,-380.62 472.25,-380.62 472.25,-353.38 410.5,-353.38"/>
</g>
<!-- n_0_1_2_3_5_6&#45;&gt;n_0 -->
<g id="edge11" class="edge">
<title>n_0_1_2_3_5_6&#45;&gt;n_0</title>
<path fill="none" stroke="black" d="M393.52,-440.12C403.32,-425.35 414.68,-408.23 423.87,-394.38"/>
<polygon fill="black" stroke="black" points="426.68,-396.48 429.29,-386.21 420.85,-392.61 426.68,-396.48"/>
</g>
<!-- n_1_2_3_5 -->
<g id="node4" class="node">
<title>n_1_2_3_5</title>
<polygon fill="none" stroke="black" points="168.38,-248 168.38,-289 237.12,-289 237.12,-248 168.38,-248"/>
<text text-anchor="start" x="183.62" y="-274.45" font-family="Times New Roman,serif" font-weight="bold" font-size="9.00">Preschool</text>
<text text-anchor="start" x="175.38" y="-265.45" font-family="Times New Roman,serif" font-weight="bold" font-size="9.00">Secondary (P)</text>
<text text-anchor="start" x="183.25" y="-256.45" font-family="Times New Roman,serif" font-weight="bold" font-size="9.00">Technical</text>
<polygon fill="none" stroke="black" points="237.12,-248 237.12,-289 298.38,-289 298.38,-248 237.12,-248"/>
<text text-anchor="start" x="244.12" y="-266.57" font-family="Times New Roman,serif" font-weight="bold" font-size="9.00">Primary (G)</text>
<polygon fill="none" stroke="black" points="167.38,-247 167.38,-290 299.38,-290 299.38,-247 167.38,-247"/>
</g>
<!-- n_1_2_3_5_6&#45;&gt;n_1_2_3_5 -->
<g id="edge3" class="edge">
<title>n_1_2_3_5_6&#45;&gt;n_1_2_3_5</title>
<path fill="none" stroke="black" d="M281.67,-337.05C274.06,-326.4 265.37,-314.25 257.48,-303.22"/>
<polygon fill="black" stroke="black" points="260.35,-301.2 251.68,-295.11 254.65,-305.28 260.35,-301.2"/>
</g>
<!-- n_6 -->
<g id="node11" class="node">
<title>n_6</title>
<polygon fill="none" stroke="black" points="345.12,-255.88 345.12,-281.12 399.62,-281.12 399.62,-255.88 345.12,-255.88"/>
<text text-anchor="start" x="352.12" y="-266.57" font-family="Times New Roman,serif" font-weight="bold" font-size="9.00">University</text>
<polygon fill="none" stroke="black" points="344.12,-254.88 344.12,-282.12 400.62,-282.12 400.62,-254.88 344.12,-254.88"/>
</g>
<!-- n_1_2_3_5_6&#45;&gt;n_6 -->
<g id="edge10" class="edge">
<title>n_1_2_3_5_6&#45;&gt;n_6</title>
<path fill="none" stroke="black" d="M323.38,-337.05C332.94,-323.86 344.17,-308.38 353.47,-295.56"/>
<polygon fill="black" stroke="black" points="356.21,-297.74 359.25,-287.59 350.55,-293.63 356.21,-297.74"/>
</g>
<!-- n_2_3_5 -->
<g id="node5" class="node">
<title>n_2_3_5</title>
<polygon fill="none" stroke="black" points="103.88,-163 103.88,-195 172.62,-195 172.62,-163 103.88,-163"/>
<text text-anchor="start" x="110.88" y="-180.45" font-family="Times New Roman,serif" font-weight="bold" font-size="9.00">Secondary (P)</text>
<text text-anchor="start" x="118.75" y="-171.45" font-family="Times New Roman,serif" font-weight="bold" font-size="9.00">Technical</text>
<polygon fill="none" stroke="black" points="172.62,-163 172.62,-195 224.88,-195 224.88,-163 172.62,-163"/>
<text text-anchor="start" x="179.62" y="-177.07" font-family="Times New Roman,serif" font-weight="bold" font-size="9.00">Preschool</text>
<polygon fill="none" stroke="black" points="102.88,-162 102.88,-196 225.88,-196 225.88,-162 102.88,-162"/>
</g>
<!-- n_1_2_3_5&#45;&gt;n_2_3_5 -->
<g id="edge4" class="edge">
<title>n_1_2_3_5&#45;&gt;n_2_3_5</title>
<path fill="none" stroke="black" d="M214.15,-243.13C205.74,-232.46 195.81,-219.87 187.04,-208.75"/>
<polygon fill="black" stroke="black" points="189.89,-206.7 180.95,-201.01 184.39,-211.03 189.89,-206.7"/>
</g>
<!-- n_1 -->
<g id="node10" class="node">
<title>n_1</title>
<polygon fill="none" stroke="black" points="271.75,-166.38 271.75,-191.62 333,-191.62 333,-166.38 271.75,-166.38"/>
<text text-anchor="start" x="278.75" y="-177.07" font-family="Times New Roman,serif" font-weight="bold" font-size="9.00">Primary (G)</text>
<polygon fill="none" stroke="black" points="270.75,-165.38 270.75,-192.62 334,-192.62 334,-165.38 270.75,-165.38"/>
</g>
<!-- n_1_2_3_5&#45;&gt;n_1 -->
<g id="edge9" class="edge">
<title>n_1_2_3_5&#45;&gt;n_1</title>
<path fill="none" stroke="black" d="M252.6,-243.13C261.78,-231.48 272.78,-217.53 282.1,-205.71"/>
<polygon fill="black" stroke="black" points="284.77,-207.98 288.21,-197.96 279.27,-203.64 284.77,-207.98"/>
</g>
<!-- n_3_5 -->
<g id="node6" class="node">
<title>n_3_5</title>
<polygon fill="none" stroke="black" points="36.5,-84.38 36.5,-109.62 105.25,-109.62 105.25,-84.38 36.5,-84.38"/>
<text text-anchor="start" x="43.5" y="-95.08" font-family="Times New Roman,serif" font-weight="bold" font-size="9.00">Secondary (P)</text>
<polygon fill="none" stroke="black" points="105.25,-84.38 105.25,-109.62 158.25,-109.62 158.25,-84.38 105.25,-84.38"/>
<text text-anchor="start" x="112.25" y="-95.08" font-family="Times New Roman,serif" font-weight="bold" font-size="9.00">Technical</text>
<polygon fill="none" stroke="black" points="35.5,-83.38 35.5,-110.62 159.25,-110.62 159.25,-83.38 35.5,-83.38"/>
</g>
<!-- n_2_3_5&#45;&gt;n_3_5 -->
<g id="edge5" class="edge">
<title>n_2_3_5&#45;&gt;n_3_5</title>
<path fill="none" stroke="black" d="M147.81,-158.22C139.01,-147.71 128.08,-134.66 118.65,-123.41"/>
<polygon fill="black" stroke="black" points="121.56,-121.42 112.45,-116 116.19,-125.92 121.56,-121.42"/>
</g>
<!-- n_2 -->
<g id="node9" class="node">
<title>n_2</title>
<polygon fill="none" stroke="black" points="205.25,-84.38 205.25,-109.62 257.5,-109.62 257.5,-84.38 205.25,-84.38"/>
<text text-anchor="start" x="212.25" y="-95.08" font-family="Times New Roman,serif" font-weight="bold" font-size="9.00">Preschool</text>
<polygon fill="none" stroke="black" points="204.25,-83.38 204.25,-110.62 258.5,-110.62 258.5,-83.38 204.25,-83.38"/>
</g>
<!-- n_2_3_5&#45;&gt;n_2 -->
<g id="edge8" class="edge">
<title>n_2_3_5&#45;&gt;n_2</title>
<path fill="none" stroke="black" d="M180.94,-158.22C189.74,-147.71 200.67,-134.66 210.1,-123.41"/>
<polygon fill="black" stroke="black" points="212.56,-125.92 216.3,-116 207.19,-121.42 212.56,-125.92"/>
</g>
<!-- n_3 -->
<g id="node7" class="node">
<title>n_3</title>
<polygon fill="none" stroke="black" points="9,-5.38 9,-30.62 77.75,-30.62 77.75,-5.38 9,-5.38"/>
<text text-anchor="start" x="16" y="-16.07" font-family="Times New Roman,serif" font-weight="bold" font-size="9.00">Secondary (P)</text>
<polygon fill="none" stroke="black" points="8,-4.38 8,-31.62 78.75,-31.62 78.75,-4.38 8,-4.38"/>
</g>
<!-- n_3_5&#45;&gt;n_3 -->
<g id="edge6" class="edge">
<title>n_3_5&#45;&gt;n_3</title>
<path fill="none" stroke="black" d="M85.66,-79.29C78.7,-69.37 69.72,-56.57 61.83,-45.32"/>
<polygon fill="black" stroke="black" points="64.73,-43.36 56.12,-37.18 59,-47.38 64.73,-43.36"/>
</g>
<!-- n_5 -->
<g id="node8" class="node">
<title>n_5</title>
<polygon fill="none" stroke="black" points="124.88,-5.38 124.88,-30.62 177.88,-30.62 177.88,-5.38 124.88,-5.38"/>
<text text-anchor="start" x="131.88" y="-16.07" font-family="Times New Roman,serif" font-weight="bold" font-size="9.00">Technical</text>
<polygon fill="none" stroke="black" points="123.88,-4.38 123.88,-31.62 178.88,-31.62 178.88,-4.38 123.88,-4.38"/>
</g>
<!-- n_3_5&#45;&gt;n_5 -->
<g id="edge7" class="edge">
<title>n_3_5&#45;&gt;n_5</title>
<path fill="none" stroke="black" d="M109.09,-79.29C116.05,-69.37 125.03,-56.57 132.92,-45.32"/>
<polygon fill="black" stroke="black" points="135.75,-47.38 138.63,-37.18 130.02,-43.36 135.75,-47.38"/>
</g>
</g>
</svg>
