<?xml version="1.0" encoding="UTF-8" standalone="no"?>
<!DOCTYPE svg PUBLIC "-//W3C//DTD SVG 1.1//EN"
 "http://www.w3.org/Graphics/SVG/1.1/DTD/svg11.dtd">
<!-- Generated by graphviz version 10.0.1 (20240210.2158)
 -->
<!-- Title: ND Pages: 1 -->
<svg width="604pt" height="405pt"
 viewBox="0.00 0.00 603.62 405.00" xmlns="http://www.w3.org/2000/svg" xmlns:xlink="http://www.w3.org/1999/xlink">
<g id="graph0" class="graph" transform="scale(1 1) rotate(0) translate(4 401)">
<title>ND</title>
<polygon fill="white" stroke="none" points="-4,4 -4,-401 599.62,-401 599.62,4 -4,4"/>
<!-- n_0_1_2_3_4_5_6 -->
<g id="node1" class="node">
<title>n_0_1_2_3_4_5_6</title>
<polygon fill="none" stroke="black" points="272,-342 272,-392 340.75,-392 340.75,-342 272,-342"/>
<text text-anchor="start" x="283.5" y="-377.45" font-family="Times New Roman,serif" font-weight="bold" font-size="9.00">Primary (P)</text>
<text text-anchor="start" x="279" y="-368.45" font-family="Times New Roman,serif" font-weight="bold" font-size="9.00">Secondary (P)</text>
<text text-anchor="start" x="286.88" y="-359.45" font-family="Times New Roman,serif" font-weight="bold" font-size="9.00">Technical</text>
<text text-anchor="start" x="286.12" y="-350.45" font-family="Times New Roman,serif" font-weight="bold" font-size="9.00">University</text>
<polygon fill="none" stroke="black" points="340.75,-342 340.75,-392 411,-392 411,-342 340.75,-342"/>
<text text-anchor="start" x="352.25" y="-372.95" font-family="Times New Roman,serif" font-weight="bold" font-size="9.00">Primary (G)</text>
<text text-anchor="start" x="356.75" y="-363.95" font-family="Times New Roman,serif" font-weight="bold" font-size="9.00">Preschool</text>
<text text-anchor="start" x="347.75" y="-354.95" font-family="Times New Roman,serif" font-weight="bold" font-size="9.00">Secondary (G)</text>
<polygon fill="none" stroke="black" points="271,-341 271,-393 412,-393 412,-341 271,-341"/>
</g>
<!-- n_0_3_5_6 -->
<g id="node2" class="node">
<title>n_0_3_5_6</title>
<polygon fill="none" stroke="black" points="191.25,-248 191.25,-289 260,-289 260,-248 191.25,-248"/>
<text text-anchor="start" x="198.25" y="-274.45" font-family="Times New Roman,serif" font-weight="bold" font-size="9.00">Secondary (P)</text>
<text text-anchor="start" x="206.12" y="-265.45" font-family="Times New Roman,serif" font-weight="bold" font-size="9.00">Technical</text>
<text text-anchor="start" x="205.38" y="-256.45" font-family="Times New Roman,serif" font-weight="bold" font-size="9.00">University</text>
<polygon fill="none" stroke="black" points="260,-248 260,-289 319.75,-289 319.75,-248 260,-248"/>
<text text-anchor="start" x="267" y="-266.57" font-family="Times New Roman,serif" font-weight="bold" font-size="9.00">Primary (P)</text>
<polygon fill="none" stroke="black" points="190.25,-247 190.25,-290 320.75,-290 320.75,-247 190.25,-247"/>
</g>
<!-- n_0_1_2_3_4_5_6&#45;&gt;n_0_3_5_6 -->
<g id="edge1" class="edge">
<title>n_0_1_2_3_4_5_6&#45;&gt;n_0_3_5_6</title>
<path fill="none" stroke="black" d="M315.7,-337.05C305.92,-326.08 294.72,-313.51 284.66,-302.22"/>
<polygon fill="black" stroke="black" points="287.5,-300.14 278.23,-295 282.27,-304.8 287.5,-300.14"/>
</g>
<!-- n_1_2_4 -->
<g id="node9" class="node">
<title>n_1_2_4</title>
<polygon fill="none" stroke="black" points="367.25,-252.5 367.25,-284.5 437.5,-284.5 437.5,-252.5 367.25,-252.5"/>
<text text-anchor="start" x="378.75" y="-269.95" font-family="Times New Roman,serif" font-weight="bold" font-size="9.00">Primary (G)</text>
<text text-anchor="start" x="374.25" y="-260.95" font-family="Times New Roman,serif" font-weight="bold" font-size="9.00">Secondary (G)</text>
<polygon fill="none" stroke="black" points="437.5,-252.5 437.5,-284.5 489.75,-284.5 489.75,-252.5 437.5,-252.5"/>
<text text-anchor="start" x="444.5" y="-266.57" font-family="Times New Roman,serif" font-weight="bold" font-size="9.00">Preschool</text>
<polygon fill="none" stroke="black" points="366.25,-251.5 366.25,-285.5 490.75,-285.5 490.75,-251.5 366.25,-251.5"/>
</g>
<!-- n_0_1_2_3_4_5_6&#45;&gt;n_1_2_4 -->
<g id="edge8" class="edge">
<title>n_0_1_2_3_4_5_6&#45;&gt;n_1_2_4</title>
<path fill="none" stroke="black" d="M367.6,-337.05C378.91,-324.51 392.09,-309.89 403.29,-297.46"/>
<polygon fill="black" stroke="black" points="405.58,-300.15 409.67,-290.38 400.38,-295.47 405.58,-300.15"/>
</g>
<!-- n_3_5_6 -->
<g id="node3" class="node">
<title>n_3_5_6</title>
<polygon fill="none" stroke="black" points="62.88,-163 62.88,-195 117.38,-195 117.38,-163 62.88,-163"/>
<text text-anchor="start" x="70.62" y="-180.45" font-family="Times New Roman,serif" font-weight="bold" font-size="9.00">Technical</text>
<text text-anchor="start" x="69.88" y="-171.45" font-family="Times New Roman,serif" font-weight="bold" font-size="9.00">University</text>
<polygon fill="none" stroke="black" points="117.38,-163 117.38,-195 186.12,-195 186.12,-163 117.38,-163"/>
<text text-anchor="start" x="124.38" y="-177.07" font-family="Times New Roman,serif" font-weight="bold" font-size="9.00">Secondary (P)</text>
<polygon fill="none" stroke="black" points="61.88,-162 61.88,-196 187.12,-196 187.12,-162 61.88,-162"/>
</g>
<!-- n_0_3_5_6&#45;&gt;n_3_5_6 -->
<g id="edge2" class="edge">
<title>n_0_3_5_6&#45;&gt;n_3_5_6</title>
<path fill="none" stroke="black" d="M219.01,-243.13C201.76,-231.61 181.15,-217.84 163.59,-206.11"/>
<polygon fill="black" stroke="black" points="165.7,-203.31 155.44,-200.67 161.81,-209.13 165.7,-203.31"/>
</g>
<!-- n_0 -->
<g id="node8" class="node">
<title>n_0</title>
<polygon fill="none" stroke="black" points="233.62,-166.38 233.62,-191.62 293.38,-191.62 293.38,-166.38 233.62,-166.38"/>
<text text-anchor="start" x="240.62" y="-177.07" font-family="Times New Roman,serif" font-weight="bold" font-size="9.00">Primary (P)</text>
<polygon fill="none" stroke="black" points="232.62,-165.38 232.62,-192.62 294.38,-192.62 294.38,-165.38 232.62,-165.38"/>
</g>
<!-- n_0_3_5_6&#45;&gt;n_0 -->
<g id="edge7" class="edge">
<title>n_0_3_5_6&#45;&gt;n_0</title>
<path fill="none" stroke="black" d="M257.73,-243.13C258.72,-232.28 259.89,-219.45 260.92,-208.19"/>
<polygon fill="black" stroke="black" points="264.4,-208.56 261.83,-198.28 257.43,-207.92 264.4,-208.56"/>
</g>
<!-- n_5_6 -->
<g id="node4" class="node">
<title>n_5_6</title>
<polygon fill="none" stroke="black" points="31.75,-84.38 31.75,-109.62 84.75,-109.62 84.75,-84.38 31.75,-84.38"/>
<text text-anchor="start" x="38.75" y="-95.08" font-family="Times New Roman,serif" font-weight="bold" font-size="9.00">Technical</text>
<polygon fill="none" stroke="black" points="84.75,-84.38 84.75,-109.62 139.25,-109.62 139.25,-84.38 84.75,-84.38"/>
<text text-anchor="start" x="91.75" y="-95.08" font-family="Times New Roman,serif" font-weight="bold" font-size="9.00">University</text>
<polygon fill="none" stroke="black" points="30.75,-83.38 30.75,-110.62 140.25,-110.62 140.25,-83.38 30.75,-83.38"/>
</g>
<!-- n_3_5_6&#45;&gt;n_5_6 -->
<g id="edge3" class="edge">
<title>n_3_5_6&#45;&gt;n_5_6</title>
<path fill="none" stroke="black" d="M114.86,-158.22C109.99,-148.23 104,-135.95 98.71,-125.09"/>
<polygon fill="black" stroke="black" points="101.9,-123.66 94.37,-116.2 95.61,-126.73 101.9,-123.66"/>
</g>
<!-- n_3 -->
<g id="node7" class="node">
<title>n_3</title>
<polygon fill="none" stroke="black" points="186.12,-84.38 186.12,-109.62 254.88,-109.62 254.88,-84.38 186.12,-84.38"/>
<text text-anchor="start" x="193.12" y="-95.08" font-family="Times New Roman,serif" font-weight="bold" font-size="9.00">Secondary (P)</text>
<polygon fill="none" stroke="black" points="185.12,-83.38 185.12,-110.62 255.88,-110.62 255.88,-83.38 185.12,-83.38"/>
</g>
<!-- n_3_5_6&#45;&gt;n_3 -->
<g id="edge6" class="edge">
<title>n_3_5_6&#45;&gt;n_3</title>
<path fill="none" stroke="black" d="M148.23,-158.22C161.35,-147.29 177.75,-133.63 191.61,-122.08"/>
<polygon fill="black" stroke="black" points="193.68,-124.9 199.12,-115.81 189.2,-119.53 193.68,-124.9"/>
</g>
<!-- n_5 -->
<g id="node5" class="node">
<title>n_5</title>
<polygon fill="none" stroke="black" points="9,-5.38 9,-30.62 62,-30.62 62,-5.38 9,-5.38"/>
<text text-anchor="start" x="16" y="-16.07" font-family="Times New Roman,serif" font-weight="bold" font-size="9.00">Technical</text>
<polygon fill="none" stroke="black" points="8,-4.38 8,-31.62 63,-31.62 63,-4.38 8,-4.38"/>
</g>
<!-- n_5_6&#45;&gt;n_5 -->
<g id="edge4" class="edge">
<title>n_5_6&#45;&gt;n_5</title>
<path fill="none" stroke="black" d="M74.65,-79.29C68.21,-69.37 59.9,-56.57 52.59,-45.32"/>
<polygon fill="black" stroke="black" points="55.71,-43.69 47.33,-37.21 49.84,-47.5 55.71,-43.69"/>
</g>
<!-- n_6 -->
<g id="node6" class="node">
<title>n_6</title>
<polygon fill="none" stroke="black" points="109.25,-5.38 109.25,-30.62 163.75,-30.62 163.75,-5.38 109.25,-5.38"/>
<text text-anchor="start" x="116.25" y="-16.07" font-family="Times New Roman,serif" font-weight="bold" font-size="9.00">University</text>
<polygon fill="none" stroke="black" points="108.25,-4.38 108.25,-31.62 164.75,-31.62 164.75,-4.38 108.25,-4.38"/>
</g>
<!-- n_5_6&#45;&gt;n_6 -->
<g id="edge5" class="edge">
<title>n_5_6&#45;&gt;n_6</title>
<path fill="none" stroke="black" d="M96.57,-79.29C103.14,-69.37 111.61,-56.57 119.07,-45.32"/>
<polygon fill="black" stroke="black" points="121.84,-47.47 124.44,-37.2 116,-43.61 121.84,-47.47"/>
</g>
<!-- n_1_4 -->
<g id="node10" class="node">
<title>n_1_4</title>
<polygon fill="none" stroke="black" points="355.75,-166.38 355.75,-191.62 417,-191.62 417,-166.38 355.75,-166.38"/>
<text text-anchor="start" x="362.75" y="-177.07" font-family="Times New Roman,serif" font-weight="bold" font-size="9.00">Primary (G)</text>
<polygon fill="none" stroke="black" points="417,-166.38 417,-191.62 487.25,-191.62 487.25,-166.38 417,-166.38"/>
<text text-anchor="start" x="424" y="-177.07" font-family="Times New Roman,serif" font-weight="bold" font-size="9.00">Secondary (G)</text>
<polygon fill="none" stroke="black" points="354.75,-165.38 354.75,-192.62 488.25,-192.62 488.25,-165.38 354.75,-165.38"/>
</g>
<!-- n_1_2_4&#45;&gt;n_1_4 -->
<g id="edge9" class="edge">
<title>n_1_2_4&#45;&gt;n_1_4</title>
<path fill="none" stroke="black" d="M426.91,-247.64C425.97,-235.91 424.77,-220.86 423.74,-207.94"/>
<polygon fill="black" stroke="black" points="427.25,-208.03 422.97,-198.34 420.28,-208.59 427.25,-208.03"/>
</g>
<!-- n_2 -->
<g id="node13" class="node">
<title>n_2</title>
<polygon fill="none" stroke="black" points="534.38,-166.38 534.38,-191.62 586.62,-191.62 586.62,-166.38 534.38,-166.38"/>
<text text-anchor="start" x="541.38" y="-177.07" font-family="Times New Roman,serif" font-weight="bold" font-size="9.00">Preschool</text>
<polygon fill="none" stroke="black" points="533.38,-165.38 533.38,-192.62 587.62,-192.62 587.62,-165.38 533.38,-165.38"/>
</g>
<!-- n_1_2_4&#45;&gt;n_2 -->
<g id="edge12" class="edge">
<title>n_1_2_4&#45;&gt;n_2</title>
<path fill="none" stroke="black" d="M458.45,-247.64C478.42,-234.41 504.72,-216.97 525.63,-203.12"/>
<polygon fill="black" stroke="black" points="527.44,-206.11 533.85,-197.67 523.58,-200.28 527.44,-206.11"/>
</g>
<!-- n_1 -->
<g id="node11" class="node">
<title>n_1</title>
<polygon fill="none" stroke="black" points="345.88,-84.38 345.88,-109.62 407.12,-109.62 407.12,-84.38 345.88,-84.38"/>
<text text-anchor="start" x="352.88" y="-95.08" font-family="Times New Roman,serif" font-weight="bold" font-size="9.00">Primary (G)</text>
<polygon fill="none" stroke="black" points="344.88,-83.38 344.88,-110.62 408.12,-110.62 408.12,-83.38 344.88,-83.38"/>
</g>
<!-- n_1_4&#45;&gt;n_1 -->
<g id="edge10" class="edge">
<title>n_1_4&#45;&gt;n_1</title>
<path fill="none" stroke="black" d="M411.96,-161.03C406.05,-150.53 398.34,-136.82 391.61,-124.87"/>
<polygon fill="black" stroke="black" points="394.72,-123.26 386.77,-116.26 388.62,-126.69 394.72,-123.26"/>
</g>
<!-- n_4 -->
<g id="node12" class="node">
<title>n_4</title>
<polygon fill="none" stroke="black" points="454.38,-84.38 454.38,-109.62 524.62,-109.62 524.62,-84.38 454.38,-84.38"/>
<text text-anchor="start" x="461.38" y="-95.08" font-family="Times New Roman,serif" font-weight="bold" font-size="9.00">Secondary (G)</text>
<polygon fill="none" stroke="black" points="453.38,-83.38 453.38,-110.62 525.62,-110.62 525.62,-83.38 453.38,-83.38"/>
</g>
<!-- n_1_4&#45;&gt;n_4 -->
<g id="edge11" class="edge">
<title>n_1_4&#45;&gt;n_4</title>
<path fill="none" stroke="black" d="M435.92,-161.03C445.21,-150.11 457.45,-135.71 467.89,-123.43"/>
<polygon fill="black" stroke="black" points="470.31,-125.98 474.12,-116.09 464.98,-121.45 470.31,-125.98"/>
</g>
</g>
</svg>
