<?xml version="1.0" encoding="UTF-8" standalone="no"?>
<!DOCTYPE svg PUBLIC "-//W3C//DTD SVG 1.1//EN"
 "http://www.w3.org/Graphics/SVG/1.1/DTD/svg11.dtd">
<!-- Generated by graphviz version 10.0.1 (20240210.2158)
 -->
<!-- Title: ND Pages: 1 -->
<svg width="606pt" height="405pt"
 viewBox="0.00 0.00 606.12 405.00" xmlns="http://www.w3.org/2000/svg" xmlns:xlink="http://www.w3.org/1999/xlink">
<g id="graph0" class="graph" transform="scale(1 1) rotate(0) translate(4 401)">
<title>ND</title>
<polygon fill="white" stroke="none" points="-4,4 -4,-401 602.12,-401 602.12,4 -4,4"/>
<!-- n_0_1_2_3_4_5_6 -->
<g id="node1" class="node">
<title>n_0_1_2_3_4_5_6</title>
<polygon fill="none" stroke="black" points="277.12,-342 277.12,-392 345.88,-392 345.88,-342 277.12,-342"/>
<text text-anchor="start" x="287.88" y="-377.45" font-family="Times New Roman,serif" font-weight="bold" font-size="9.00">Primary (G)</text>
<text text-anchor="start" x="292.38" y="-368.45" font-family="Times New Roman,serif" font-weight="bold" font-size="9.00">Preschool</text>
<text text-anchor="start" x="284.12" y="-359.45" font-family="Times New Roman,serif" font-weight="bold" font-size="9.00">Secondary (P)</text>
<text text-anchor="start" x="291.25" y="-350.45" font-family="Times New Roman,serif" font-weight="bold" font-size="9.00">University</text>
<polygon fill="none" stroke="black" points="345.88,-342 345.88,-392 416.12,-392 416.12,-342 345.88,-342"/>
<text text-anchor="start" x="358.12" y="-372.95" font-family="Times New Roman,serif" font-weight="bold" font-size="9.00">Primary (P)</text>
<text text-anchor="start" x="352.88" y="-363.95" font-family="Times New Roman,serif" font-weight="bold" font-size="9.00">Secondary (G)</text>
<text text-anchor="start" x="361.5" y="-354.95" font-family="Times New Roman,serif" font-weight="bold" font-size="9.00">Technical</text>
<polygon fill="none" stroke="black" points="276.12,-341 276.12,-393 417.12,-393 417.12,-341 276.12,-341"/>
</g>
<!-- n_1_2_3_6 -->
<g id="node2" class="node">
<title>n_1_2_3_6</title>
<polygon fill="none" stroke="black" points="200,-248 200,-289 268.75,-289 268.75,-248 200,-248"/>
<text text-anchor="start" x="210.75" y="-274.45" font-family="Times New Roman,serif" font-weight="bold" font-size="9.00">Primary (G)</text>
<text text-anchor="start" x="215.25" y="-265.45" font-family="Times New Roman,serif" font-weight="bold" font-size="9.00">Preschool</text>
<text text-anchor="start" x="207" y="-256.45" font-family="Times New Roman,serif" font-weight="bold" font-size="9.00">Secondary (P)</text>
<polygon fill="none" stroke="black" points="268.75,-248 268.75,-289 323.25,-289 323.25,-248 268.75,-248"/>
<text text-anchor="start" x="275.75" y="-266.57" font-family="Times New Roman,serif" font-weight="bold" font-size="9.00">University</text>
<polygon fill="none" stroke="black" points="199,-247 199,-290 324.25,-290 324.25,-247 199,-247"/>
</g>
<!-- n_0_1_2_3_4_5_6&#45;&gt;n_1_2_3_6 -->
<g id="edge1" class="edge">
<title>n_0_1_2_3_4_5_6&#45;&gt;n_1_2_3_6</title>
<path fill="none" stroke="black" d="M321.12,-337.05C311.46,-326.08 300.39,-313.51 290.44,-302.22"/>
<polygon fill="black" stroke="black" points="293.33,-300.2 284.1,-295.01 288.08,-304.83 293.33,-300.2"/>
</g>
<!-- n_0_4_5 -->
<g id="node9" class="node">
<title>n_0_4_5</title>
<polygon fill="none" stroke="black" points="370,-252.5 370,-284.5 440.25,-284.5 440.25,-252.5 370,-252.5"/>
<text text-anchor="start" x="382.25" y="-269.95" font-family="Times New Roman,serif" font-weight="bold" font-size="9.00">Primary (P)</text>
<text text-anchor="start" x="377" y="-260.95" font-family="Times New Roman,serif" font-weight="bold" font-size="9.00">Secondary (G)</text>
<polygon fill="none" stroke="black" points="440.25,-252.5 440.25,-284.5 493.25,-284.5 493.25,-252.5 440.25,-252.5"/>
<text text-anchor="start" x="447.25" y="-266.57" font-family="Times New Roman,serif" font-weight="bold" font-size="9.00">Technical</text>
<polygon fill="none" stroke="black" points="369,-251.5 369,-285.5 494.25,-285.5 494.25,-251.5 369,-251.5"/>
</g>
<!-- n_0_1_2_3_4_5_6&#45;&gt;n_0_4_5 -->
<g id="edge8" class="edge">
<title>n_0_1_2_3_4_5_6&#45;&gt;n_0_4_5</title>
<path fill="none" stroke="black" d="M372.13,-337.05C383.07,-324.63 395.81,-310.17 406.68,-297.82"/>
<polygon fill="black" stroke="black" points="409.24,-300.21 413.22,-290.4 403.98,-295.59 409.24,-300.21"/>
</g>
<!-- n_1_2_3 -->
<g id="node3" class="node">
<title>n_1_2_3</title>
<polygon fill="none" stroke="black" points="74.12,-163 74.12,-195 142.88,-195 142.88,-163 74.12,-163"/>
<text text-anchor="start" x="84.88" y="-180.45" font-family="Times New Roman,serif" font-weight="bold" font-size="9.00">Primary (G)</text>
<text text-anchor="start" x="81.12" y="-171.45" font-family="Times New Roman,serif" font-weight="bold" font-size="9.00">Secondary (P)</text>
<polygon fill="none" stroke="black" points="142.88,-163 142.88,-195 195.12,-195 195.12,-163 142.88,-163"/>
<text text-anchor="start" x="149.88" y="-177.07" font-family="Times New Roman,serif" font-weight="bold" font-size="9.00">Preschool</text>
<polygon fill="none" stroke="black" points="73.12,-162 73.12,-196 196.12,-196 196.12,-162 73.12,-162"/>
</g>
<!-- n_1_2_3_6&#45;&gt;n_1_2_3 -->
<g id="edge2" class="edge">
<title>n_1_2_3_6&#45;&gt;n_1_2_3</title>
<path fill="none" stroke="black" d="M226.25,-243.13C209.53,-231.61 189.55,-217.84 172.52,-206.11"/>
<polygon fill="black" stroke="black" points="174.87,-203.48 164.65,-200.68 170.9,-209.24 174.87,-203.48"/>
</g>
<!-- n_6 -->
<g id="node8" class="node">
<title>n_6</title>
<polygon fill="none" stroke="black" points="242.38,-166.38 242.38,-191.62 296.88,-191.62 296.88,-166.38 242.38,-166.38"/>
<text text-anchor="start" x="249.38" y="-177.07" font-family="Times New Roman,serif" font-weight="bold" font-size="9.00">University</text>
<polygon fill="none" stroke="black" points="241.38,-165.38 241.38,-192.62 297.88,-192.62 297.88,-165.38 241.38,-165.38"/>
</g>
<!-- n_1_2_3_6&#45;&gt;n_6 -->
<g id="edge7" class="edge">
<title>n_1_2_3_6&#45;&gt;n_6</title>
<path fill="none" stroke="black" d="M263.85,-243.13C264.84,-232.28 266.02,-219.45 267.05,-208.19"/>
<polygon fill="black" stroke="black" points="270.53,-208.56 267.95,-198.28 263.56,-207.92 270.53,-208.56"/>
</g>
<!-- n_1_3 -->
<g id="node4" class="node">
<title>n_1_3</title>
<polygon fill="none" stroke="black" points="30.62,-84.38 30.62,-109.62 91.88,-109.62 91.88,-84.38 30.62,-84.38"/>
<text text-anchor="start" x="37.62" y="-95.08" font-family="Times New Roman,serif" font-weight="bold" font-size="9.00">Primary (G)</text>
<polygon fill="none" stroke="black" points="91.88,-84.38 91.88,-109.62 160.62,-109.62 160.62,-84.38 91.88,-84.38"/>
<text text-anchor="start" x="98.88" y="-95.08" font-family="Times New Roman,serif" font-weight="bold" font-size="9.00">Secondary (P)</text>
<polygon fill="none" stroke="black" points="29.62,-83.38 29.62,-110.62 161.62,-110.62 161.62,-83.38 29.62,-83.38"/>
</g>
<!-- n_1_2_3&#45;&gt;n_1_3 -->
<g id="edge3" class="edge">
<title>n_1_2_3&#45;&gt;n_1_3</title>
<path fill="none" stroke="black" d="M124.98,-158.22C120.11,-148.23 114.13,-135.95 108.83,-125.09"/>
<polygon fill="black" stroke="black" points="112.03,-123.66 104.5,-116.2 105.74,-126.73 112.03,-123.66"/>
</g>
<!-- n_2 -->
<g id="node7" class="node">
<title>n_2</title>
<polygon fill="none" stroke="black" points="207.5,-84.38 207.5,-109.62 259.75,-109.62 259.75,-84.38 207.5,-84.38"/>
<text text-anchor="start" x="214.5" y="-95.08" font-family="Times New Roman,serif" font-weight="bold" font-size="9.00">Preschool</text>
<polygon fill="none" stroke="black" points="206.5,-83.38 206.5,-110.62 260.75,-110.62 260.75,-83.38 206.5,-83.38"/>
</g>
<!-- n_1_2_3&#45;&gt;n_2 -->
<g id="edge6" class="edge">
<title>n_1_2_3&#45;&gt;n_2</title>
<path fill="none" stroke="black" d="M159.35,-158.02C172.88,-147.09 189.74,-133.46 203.97,-121.96"/>
<polygon fill="black" stroke="black" points="206.13,-124.72 211.71,-115.71 201.73,-119.27 206.13,-124.72"/>
</g>
<!-- n_1 -->
<g id="node5" class="node">
<title>n_1</title>
<polygon fill="none" stroke="black" points="9,-5.38 9,-30.62 70.25,-30.62 70.25,-5.38 9,-5.38"/>
<text text-anchor="start" x="16" y="-16.07" font-family="Times New Roman,serif" font-weight="bold" font-size="9.00">Primary (G)</text>
<polygon fill="none" stroke="black" points="8,-4.38 8,-31.62 71.25,-31.62 71.25,-4.38 8,-4.38"/>
</g>
<!-- n_1_3&#45;&gt;n_1 -->
<g id="edge4" class="edge">
<title>n_1_3&#45;&gt;n_1</title>
<path fill="none" stroke="black" d="M83.47,-79.29C76.19,-69.27 66.76,-56.31 58.52,-44.98"/>
<polygon fill="black" stroke="black" points="61.55,-43.19 52.84,-37.17 55.89,-47.31 61.55,-43.19"/>
</g>
<!-- n_3 -->
<g id="node6" class="node">
<title>n_3</title>
<polygon fill="none" stroke="black" points="117.25,-5.38 117.25,-30.62 186,-30.62 186,-5.38 117.25,-5.38"/>
<text text-anchor="start" x="124.25" y="-16.07" font-family="Times New Roman,serif" font-weight="bold" font-size="9.00">Secondary (P)</text>
<polygon fill="none" stroke="black" points="116.25,-4.38 116.25,-31.62 187,-31.62 187,-4.38 116.25,-4.38"/>
</g>
<!-- n_1_3&#45;&gt;n_3 -->
<g id="edge5" class="edge">
<title>n_1_3&#45;&gt;n_3</title>
<path fill="none" stroke="black" d="M107.78,-79.29C115.06,-69.27 124.49,-56.31 132.73,-44.98"/>
<polygon fill="black" stroke="black" points="135.36,-47.31 138.41,-37.17 129.7,-43.19 135.36,-47.31"/>
</g>
<!-- n_0_4 -->
<g id="node10" class="node">
<title>n_0_4</title>
<polygon fill="none" stroke="black" points="358.62,-166.38 358.62,-191.62 418.38,-191.62 418.38,-166.38 358.62,-166.38"/>
<text text-anchor="start" x="365.62" y="-177.07" font-family="Times New Roman,serif" font-weight="bold" font-size="9.00">Primary (P)</text>
<polygon fill="none" stroke="black" points="418.38,-166.38 418.38,-191.62 488.62,-191.62 488.62,-166.38 418.38,-166.38"/>
<text text-anchor="start" x="425.38" y="-177.07" font-family="Times New Roman,serif" font-weight="bold" font-size="9.00">Secondary (G)</text>
<polygon fill="none" stroke="black" points="357.62,-165.38 357.62,-192.62 489.62,-192.62 489.62,-165.38 357.62,-165.38"/>
</g>
<!-- n_0_4_5&#45;&gt;n_0_4 -->
<g id="edge9" class="edge">
<title>n_0_4_5&#45;&gt;n_0_4</title>
<path fill="none" stroke="black" d="M429.81,-247.64C428.74,-235.91 427.36,-220.86 426.18,-207.94"/>
<polygon fill="black" stroke="black" points="429.7,-207.98 425.3,-198.34 422.73,-208.62 429.7,-207.98"/>
</g>
<!-- n_5 -->
<g id="node13" class="node">
<title>n_5</title>
<polygon fill="none" stroke="black" points="536.12,-166.38 536.12,-191.62 589.12,-191.62 589.12,-166.38 536.12,-166.38"/>
<text text-anchor="start" x="543.12" y="-177.07" font-family="Times New Roman,serif" font-weight="bold" font-size="9.00">Technical</text>
<polygon fill="none" stroke="black" points="535.12,-165.38 535.12,-192.62 590.12,-192.62 590.12,-165.38 535.12,-165.38"/>
</g>
<!-- n_0_4_5&#45;&gt;n_5 -->
<g id="edge12" class="edge">
<title>n_0_4_5&#45;&gt;n_5</title>
<path fill="none" stroke="black" d="M461.35,-247.64C481.16,-234.41 507.27,-216.97 528.02,-203.12"/>
<polygon fill="black" stroke="black" points="529.79,-206.14 536.17,-197.67 525.91,-200.32 529.79,-206.14"/>
</g>
<!-- n_0 -->
<g id="node11" class="node">
<title>n_0</title>
<polygon fill="none" stroke="black" points="349.75,-84.38 349.75,-109.62 409.5,-109.62 409.5,-84.38 349.75,-84.38"/>
<text text-anchor="start" x="356.75" y="-95.08" font-family="Times New Roman,serif" font-weight="bold" font-size="9.00">Primary (P)</text>
<polygon fill="none" stroke="black" points="348.75,-83.38 348.75,-110.62 410.5,-110.62 410.5,-83.38 348.75,-83.38"/>
</g>
<!-- n_0_4&#45;&gt;n_0 -->
<g id="edge10" class="edge">
<title>n_0_4&#45;&gt;n_0</title>
<path fill="none" stroke="black" d="M414.29,-161.03C408.52,-150.53 400.98,-136.82 394.4,-124.87"/>
<polygon fill="black" stroke="black" points="397.56,-123.34 389.67,-116.27 391.42,-126.72 397.56,-123.34"/>
</g>
<!-- n_4 -->
<g id="node12" class="node">
<title>n_4</title>
<polygon fill="none" stroke="black" points="456.5,-84.38 456.5,-109.62 526.75,-109.62 526.75,-84.38 456.5,-84.38"/>
<text text-anchor="start" x="463.5" y="-95.08" font-family="Times New Roman,serif" font-weight="bold" font-size="9.00">Secondary (G)</text>
<polygon fill="none" stroke="black" points="455.5,-83.38 455.5,-110.62 527.75,-110.62 527.75,-83.38 455.5,-83.38"/>
</g>
<!-- n_0_4&#45;&gt;n_4 -->
<g id="edge11" class="edge">
<title>n_0_4&#45;&gt;n_4</title>
<path fill="none" stroke="black" d="M438.05,-161.03C447.33,-150.11 459.57,-135.71 470.01,-123.43"/>
<polygon fill="black" stroke="black" points="472.43,-125.98 476.24,-116.09 467.1,-121.45 472.43,-125.98"/>
</g>
</g>
</svg>
