<?xml version="1.0" encoding="UTF-8" standalone="no"?>
<!DOCTYPE svg PUBLIC "-//W3C//DTD SVG 1.1//EN"
 "http://www.w3.org/Graphics/SVG/1.1/DTD/svg11.dtd">
<!-- Generated by graphviz version 10.0.1 (20240210.2158)
 -->
<!-- Title: ND Pages: 1 -->
<svg width="602pt" height="405pt"
 viewBox="0.00 0.00 602.25 405.00" xmlns="http://www.w3.org/2000/svg" xmlns:xlink="http://www.w3.org/1999/xlink">
<g id="graph0" class="graph" transform="scale(1 1) rotate(0) translate(4 401)">
<title>ND</title>
<polygon fill="white" stroke="none" points="-4,4 -4,-401 598.25,-401 598.25,4 -4,4"/>
<!-- n_0_1_2_3_4_5_6 -->
<g id="node1" class="node">
<title>n_0_1_2_3_4_5_6</title>
<polygon fill="none" stroke="black" points="270.62,-342 270.62,-392 339.38,-392 339.38,-342 270.62,-342"/>
<text text-anchor="start" x="282.12" y="-377.45" font-family="Times New Roman,serif" font-weight="bold" font-size="9.00">Primary (P)</text>
<text text-anchor="start" x="281.38" y="-368.45" font-family="Times New Roman,serif" font-weight="bold" font-size="9.00">Primary (G)</text>
<text text-anchor="start" x="285.88" y="-359.45" font-family="Times New Roman,serif" font-weight="bold" font-size="9.00">Preschool</text>
<text text-anchor="start" x="277.62" y="-350.45" font-family="Times New Roman,serif" font-weight="bold" font-size="9.00">Secondary (P)</text>
<polygon fill="none" stroke="black" points="339.38,-342 339.38,-392 409.62,-392 409.62,-342 339.38,-342"/>
<text text-anchor="start" x="346.38" y="-372.95" font-family="Times New Roman,serif" font-weight="bold" font-size="9.00">Secondary (G)</text>
<text text-anchor="start" x="355" y="-363.95" font-family="Times New Roman,serif" font-weight="bold" font-size="9.00">Technical</text>
<text text-anchor="start" x="354.25" y="-354.95" font-family="Times New Roman,serif" font-weight="bold" font-size="9.00">University</text>
<polygon fill="none" stroke="black" points="269.62,-341 269.62,-393 410.62,-393 410.62,-341 269.62,-341"/>
</g>
<!-- n_0_1_2_3 -->
<g id="node2" class="node">
<title>n_0_1_2_3</title>
<polygon fill="none" stroke="black" points="188.88,-248 188.88,-289 257.62,-289 257.62,-248 188.88,-248"/>
<text text-anchor="start" x="199.62" y="-274.45" font-family="Times New Roman,serif" font-weight="bold" font-size="9.00">Primary (G)</text>
<text text-anchor="start" x="204.12" y="-265.45" font-family="Times New Roman,serif" font-weight="bold" font-size="9.00">Preschool</text>
<text text-anchor="start" x="195.88" y="-256.45" font-family="Times New Roman,serif" font-weight="bold" font-size="9.00">Secondary (P)</text>
<polygon fill="none" stroke="black" points="257.62,-248 257.62,-289 317.38,-289 317.38,-248 257.62,-248"/>
<text text-anchor="start" x="264.62" y="-266.57" font-family="Times New Roman,serif" font-weight="bold" font-size="9.00">Primary (P)</text>
<polygon fill="none" stroke="black" points="187.88,-247 187.88,-290 318.38,-290 318.38,-247 187.88,-247"/>
</g>
<!-- n_0_1_2_3_4_5_6&#45;&gt;n_0_1_2_3 -->
<g id="edge1" class="edge">
<title>n_0_1_2_3_4_5_6&#45;&gt;n_0_1_2_3</title>
<path fill="none" stroke="black" d="M314.02,-337.05C304.13,-326.08 292.8,-313.51 282.62,-302.22"/>
<polygon fill="black" stroke="black" points="285.41,-300.08 276.11,-295 280.21,-304.77 285.41,-300.08"/>
</g>
<!-- n_4_5_6 -->
<g id="node9" class="node">
<title>n_4_5_6</title>
<polygon fill="none" stroke="black" points="364.75,-252.5 364.75,-284.5 419.25,-284.5 419.25,-252.5 364.75,-252.5"/>
<text text-anchor="start" x="372.5" y="-269.95" font-family="Times New Roman,serif" font-weight="bold" font-size="9.00">Technical</text>
<text text-anchor="start" x="371.75" y="-260.95" font-family="Times New Roman,serif" font-weight="bold" font-size="9.00">University</text>
<polygon fill="none" stroke="black" points="419.25,-252.5 419.25,-284.5 489.5,-284.5 489.5,-252.5 419.25,-252.5"/>
<text text-anchor="start" x="426.25" y="-266.57" font-family="Times New Roman,serif" font-weight="bold" font-size="9.00">Secondary (G)</text>
<polygon fill="none" stroke="black" points="363.75,-251.5 363.75,-285.5 490.5,-285.5 490.5,-251.5 363.75,-251.5"/>
</g>
<!-- n_0_1_2_3_4_5_6&#45;&gt;n_4_5_6 -->
<g id="edge8" class="edge">
<title>n_0_1_2_3_4_5_6&#45;&gt;n_4_5_6</title>
<path fill="none" stroke="black" d="M366.23,-337.05C377.53,-324.51 390.72,-309.89 401.92,-297.46"/>
<polygon fill="black" stroke="black" points="404.2,-300.15 408.3,-290.38 399,-295.47 404.2,-300.15"/>
</g>
<!-- n_1_2_3 -->
<g id="node3" class="node">
<title>n_1_2_3</title>
<polygon fill="none" stroke="black" points="59.12,-163 59.12,-195 127.88,-195 127.88,-163 59.12,-163"/>
<text text-anchor="start" x="74.38" y="-180.45" font-family="Times New Roman,serif" font-weight="bold" font-size="9.00">Preschool</text>
<text text-anchor="start" x="66.12" y="-171.45" font-family="Times New Roman,serif" font-weight="bold" font-size="9.00">Secondary (P)</text>
<polygon fill="none" stroke="black" points="127.88,-163 127.88,-195 189.12,-195 189.12,-163 127.88,-163"/>
<text text-anchor="start" x="134.88" y="-177.07" font-family="Times New Roman,serif" font-weight="bold" font-size="9.00">Primary (G)</text>
<polygon fill="none" stroke="black" points="58.12,-162 58.12,-196 190.12,-196 190.12,-162 58.12,-162"/>
</g>
<!-- n_0_1_2_3&#45;&gt;n_1_2_3 -->
<g id="edge2" class="edge">
<title>n_0_1_2_3&#45;&gt;n_1_2_3</title>
<path fill="none" stroke="black" d="M217.19,-243.13C200.21,-231.61 179.91,-217.84 162.62,-206.11"/>
<polygon fill="black" stroke="black" points="164.85,-203.39 154.61,-200.68 160.92,-209.19 164.85,-203.39"/>
</g>
<!-- n_0 -->
<g id="node8" class="node">
<title>n_0</title>
<polygon fill="none" stroke="black" points="236.25,-166.38 236.25,-191.62 296,-191.62 296,-166.38 236.25,-166.38"/>
<text text-anchor="start" x="243.25" y="-177.07" font-family="Times New Roman,serif" font-weight="bold" font-size="9.00">Primary (P)</text>
<polygon fill="none" stroke="black" points="235.25,-165.38 235.25,-192.62 297,-192.62 297,-165.38 235.25,-165.38"/>
</g>
<!-- n_0_1_2_3&#45;&gt;n_0 -->
<g id="edge7" class="edge">
<title>n_0_1_2_3&#45;&gt;n_0</title>
<path fill="none" stroke="black" d="M256.75,-243.13C258.37,-232.17 260.3,-219.18 261.99,-207.84"/>
<polygon fill="black" stroke="black" points="265.4,-208.67 263.41,-198.27 258.48,-207.64 265.4,-208.67"/>
</g>
<!-- n_2_3 -->
<g id="node4" class="node">
<title>n_2_3</title>
<polygon fill="none" stroke="black" points="28.62,-84.38 28.62,-109.62 80.88,-109.62 80.88,-84.38 28.62,-84.38"/>
<text text-anchor="start" x="35.62" y="-95.08" font-family="Times New Roman,serif" font-weight="bold" font-size="9.00">Preschool</text>
<polygon fill="none" stroke="black" points="80.88,-84.38 80.88,-109.62 149.62,-109.62 149.62,-84.38 80.88,-84.38"/>
<text text-anchor="start" x="87.88" y="-95.08" font-family="Times New Roman,serif" font-weight="bold" font-size="9.00">Secondary (P)</text>
<polygon fill="none" stroke="black" points="27.62,-83.38 27.62,-110.62 150.62,-110.62 150.62,-83.38 27.62,-83.38"/>
</g>
<!-- n_1_2_3&#45;&gt;n_2_3 -->
<g id="edge3" class="edge">
<title>n_1_2_3&#45;&gt;n_2_3</title>
<path fill="none" stroke="black" d="M115.47,-158.22C111.1,-148.23 105.73,-135.95 100.98,-125.09"/>
<polygon fill="black" stroke="black" points="104.32,-123.99 97.1,-116.23 97.9,-126.79 104.32,-123.99"/>
</g>
<!-- n_1 -->
<g id="node7" class="node">
<title>n_1</title>
<polygon fill="none" stroke="black" points="196.5,-84.38 196.5,-109.62 257.75,-109.62 257.75,-84.38 196.5,-84.38"/>
<text text-anchor="start" x="203.5" y="-95.08" font-family="Times New Roman,serif" font-weight="bold" font-size="9.00">Primary (G)</text>
<polygon fill="none" stroke="black" points="195.5,-83.38 195.5,-110.62 258.75,-110.62 258.75,-83.38 195.5,-83.38"/>
</g>
<!-- n_1_2_3&#45;&gt;n_1 -->
<g id="edge6" class="edge">
<title>n_1_2_3&#45;&gt;n_1</title>
<path fill="none" stroke="black" d="M149.85,-158.02C164.06,-146.98 181.8,-133.2 196.7,-121.63"/>
<polygon fill="black" stroke="black" points="198.6,-124.59 204.35,-115.69 194.31,-119.06 198.6,-124.59"/>
</g>
<!-- n_2 -->
<g id="node5" class="node">
<title>n_2</title>
<polygon fill="none" stroke="black" points="9,-5.38 9,-30.62 61.25,-30.62 61.25,-5.38 9,-5.38"/>
<text text-anchor="start" x="16" y="-16.07" font-family="Times New Roman,serif" font-weight="bold" font-size="9.00">Preschool</text>
<polygon fill="none" stroke="black" points="8,-4.38 8,-31.62 62.25,-31.62 62.25,-4.38 8,-4.38"/>
</g>
<!-- n_2_3&#45;&gt;n_2 -->
<g id="edge4" class="edge">
<title>n_2_3&#45;&gt;n_2</title>
<path fill="none" stroke="black" d="M77.41,-79.29C70.45,-69.37 61.47,-56.57 53.58,-45.32"/>
<polygon fill="black" stroke="black" points="56.48,-43.36 47.87,-37.18 50.75,-47.38 56.48,-43.36"/>
</g>
<!-- n_3 -->
<g id="node6" class="node">
<title>n_3</title>
<polygon fill="none" stroke="black" points="108.75,-5.38 108.75,-30.62 177.5,-30.62 177.5,-5.38 108.75,-5.38"/>
<text text-anchor="start" x="115.75" y="-16.07" font-family="Times New Roman,serif" font-weight="bold" font-size="9.00">Secondary (P)</text>
<polygon fill="none" stroke="black" points="107.75,-4.38 107.75,-31.62 178.5,-31.62 178.5,-4.38 107.75,-4.38"/>
</g>
<!-- n_2_3&#45;&gt;n_3 -->
<g id="edge5" class="edge">
<title>n_2_3&#45;&gt;n_3</title>
<path fill="none" stroke="black" d="M100.84,-79.29C107.8,-69.37 116.78,-56.57 124.67,-45.32"/>
<polygon fill="black" stroke="black" points="127.5,-47.38 130.38,-37.18 121.77,-43.36 127.5,-47.38"/>
</g>
<!-- n_5_6 -->
<g id="node10" class="node">
<title>n_5_6</title>
<polygon fill="none" stroke="black" points="360.38,-166.38 360.38,-191.62 413.38,-191.62 413.38,-166.38 360.38,-166.38"/>
<text text-anchor="start" x="367.38" y="-177.07" font-family="Times New Roman,serif" font-weight="bold" font-size="9.00">Technical</text>
<polygon fill="none" stroke="black" points="413.38,-166.38 413.38,-191.62 467.88,-191.62 467.88,-166.38 413.38,-166.38"/>
<text text-anchor="start" x="420.38" y="-177.07" font-family="Times New Roman,serif" font-weight="bold" font-size="9.00">University</text>
<polygon fill="none" stroke="black" points="359.38,-165.38 359.38,-192.62 468.88,-192.62 468.88,-165.38 359.38,-165.38"/>
</g>
<!-- n_4_5_6&#45;&gt;n_5_6 -->
<g id="edge9" class="edge">
<title>n_4_5_6&#45;&gt;n_5_6</title>
<path fill="none" stroke="black" d="M424.18,-247.64C422.43,-235.91 420.2,-220.86 418.28,-207.94"/>
<polygon fill="black" stroke="black" points="421.78,-207.71 416.85,-198.33 414.86,-208.73 421.78,-207.71"/>
</g>
<!-- n_4 -->
<g id="node13" class="node">
<title>n_4</title>
<polygon fill="none" stroke="black" points="515,-166.38 515,-191.62 585.25,-191.62 585.25,-166.38 515,-166.38"/>
<text text-anchor="start" x="522" y="-177.07" font-family="Times New Roman,serif" font-weight="bold" font-size="9.00">Secondary (G)</text>
<polygon fill="none" stroke="black" points="514,-165.38 514,-192.62 586.25,-192.62 586.25,-165.38 514,-165.38"/>
</g>
<!-- n_4_5_6&#45;&gt;n_4 -->
<g id="edge12" class="edge">
<title>n_4_5_6&#45;&gt;n_4</title>
<path fill="none" stroke="black" d="M455.04,-247.64C473.47,-234.53 497.71,-217.29 517.1,-203.49"/>
<polygon fill="black" stroke="black" points="519.11,-206.36 525.23,-197.71 515.05,-200.65 519.11,-206.36"/>
</g>
<!-- n_5 -->
<g id="node11" class="node">
<title>n_5</title>
<polygon fill="none" stroke="black" points="345.62,-84.38 345.62,-109.62 398.62,-109.62 398.62,-84.38 345.62,-84.38"/>
<text text-anchor="start" x="352.62" y="-95.08" font-family="Times New Roman,serif" font-weight="bold" font-size="9.00">Technical</text>
<polygon fill="none" stroke="black" points="344.62,-83.38 344.62,-110.62 399.62,-110.62 399.62,-83.38 344.62,-83.38"/>
</g>
<!-- n_5_6&#45;&gt;n_5 -->
<g id="edge10" class="edge">
<title>n_5_6&#45;&gt;n_5</title>
<path fill="none" stroke="black" d="M405.22,-161.03C399.71,-150.53 392.51,-136.82 386.23,-124.87"/>
<polygon fill="black" stroke="black" points="389.47,-123.51 381.72,-116.28 383.27,-126.76 389.47,-123.51"/>
</g>
<!-- n_6 -->
<g id="node12" class="node">
<title>n_6</title>
<polygon fill="none" stroke="black" points="445.88,-84.38 445.88,-109.62 500.38,-109.62 500.38,-84.38 445.88,-84.38"/>
<text text-anchor="start" x="452.88" y="-95.08" font-family="Times New Roman,serif" font-weight="bold" font-size="9.00">University</text>
<polygon fill="none" stroke="black" points="444.88,-83.38 444.88,-110.62 501.38,-110.62 501.38,-83.38 444.88,-83.38"/>
</g>
<!-- n_5_6&#45;&gt;n_6 -->
<g id="edge11" class="edge">
<title>n_5_6&#45;&gt;n_6</title>
<path fill="none" stroke="black" d="M426.64,-161.03C434.54,-150.32 444.9,-136.27 453.84,-124.15"/>
<polygon fill="black" stroke="black" points="456.61,-126.29 459.73,-116.16 450.98,-122.13 456.61,-126.29"/>
</g>
</g>
</svg>
