<?xml version="1.0" encoding="UTF-8" standalone="no"?>
<!DOCTYPE svg PUBLIC "-//W3C//DTD SVG 1.1//EN"
 "http://www.w3.org/Graphics/SVG/1.1/DTD/svg11.dtd">
<!-- Generated by graphviz version 10.0.1 (20240210.2158)
 -->
<!-- Title: ND Pages: 1 -->
<svg width="689pt" height="414pt"
 viewBox="0.00 0.00 689.38 414.00" xmlns="http://www.w3.org/2000/svg" xmlns:xlink="http://www.w3.org/1999/xlink">
<g id="graph0" class="graph" transform="scale(1 1) rotate(0) translate(4 410)">
<title>ND</title>
<polygon fill="white" stroke="none" points="-4,4 -4,-410 685.38,-410 685.38,4 -4,4"/>
<!-- n_0_1_2_3_4_5_6 -->
<g id="node1" class="node">
<title>n_0_1_2_3_4_5_6</title>
<polygon fill="none" stroke="black" points="398.12,-342 398.12,-401 468.38,-401 468.38,-342 398.12,-342"/>
<text text-anchor="start" x="409.62" y="-386.45" font-family="Times New Roman,serif" font-weight="bold" font-size="9.00">Primary (G)</text>
<text text-anchor="start" x="414.12" y="-377.45" font-family="Times New Roman,serif" font-weight="bold" font-size="9.00">Preschool</text>
<text text-anchor="start" x="405.88" y="-368.45" font-family="Times New Roman,serif" font-weight="bold" font-size="9.00">Secondary (P)</text>
<text text-anchor="start" x="405.12" y="-359.45" font-family="Times New Roman,serif" font-weight="bold" font-size="9.00">Secondary (G)</text>
<text text-anchor="start" x="413.75" y="-350.45" font-family="Times New Roman,serif" font-weight="bold" font-size="9.00">Technical</text>
<polygon fill="none" stroke="black" points="468.38,-342 468.38,-401 528.12,-401 528.12,-342 468.38,-342"/>
<text text-anchor="start" x="475.38" y="-372.95" font-family="Times New Roman,serif" font-weight="bold" font-size="9.00">Primary (P)</text>
<text text-anchor="start" x="478" y="-363.95" font-family="Times New Roman,serif" font-weight="bold" font-size="9.00">University</text>
<polygon fill="none" stroke="black" points="397.12,-341 397.12,-402 529.12,-402 529.12,-341 397.12,-341"/>
</g>
<!-- n_1_2_3_4_5 -->
<g id="node2" class="node">
<title>n_1_2_3_4_5</title>
<polygon fill="none" stroke="black" points="306.62,-248 306.62,-289 375.38,-289 375.38,-248 306.62,-248"/>
<text text-anchor="start" x="317.38" y="-274.45" font-family="Times New Roman,serif" font-weight="bold" font-size="9.00">Primary (G)</text>
<text text-anchor="start" x="321.88" y="-265.45" font-family="Times New Roman,serif" font-weight="bold" font-size="9.00">Preschool</text>
<text text-anchor="start" x="313.62" y="-256.45" font-family="Times New Roman,serif" font-weight="bold" font-size="9.00">Secondary (P)</text>
<polygon fill="none" stroke="black" points="375.38,-248 375.38,-289 445.62,-289 445.62,-248 375.38,-248"/>
<text text-anchor="start" x="382.38" y="-269.95" font-family="Times New Roman,serif" font-weight="bold" font-size="9.00">Secondary (G)</text>
<text text-anchor="start" x="391" y="-260.95" font-family="Times New Roman,serif" font-weight="bold" font-size="9.00">Technical</text>
<polygon fill="none" stroke="black" points="305.62,-247 305.62,-290 446.62,-290 446.62,-247 305.62,-247"/>
</g>
<!-- n_0_1_2_3_4_5_6&#45;&gt;n_1_2_3_4_5 -->
<g id="edge1" class="edge">
<title>n_0_1_2_3_4_5_6&#45;&gt;n_1_2_3_4_5</title>
<path fill="none" stroke="black" d="M434.4,-337.15C424.79,-326 414.09,-313.58 404.51,-302.45"/>
<polygon fill="black" stroke="black" points="407.27,-300.3 398.1,-295.01 401.97,-304.87 407.27,-300.3"/>
</g>
<!-- n_0_6 -->
<g id="node11" class="node">
<title>n_0_6</title>
<polygon fill="none" stroke="black" points="493,-255.88 493,-281.12 552.75,-281.12 552.75,-255.88 493,-255.88"/>
<text text-anchor="start" x="500" y="-266.57" font-family="Times New Roman,serif" font-weight="bold" font-size="9.00">Primary (P)</text>
<polygon fill="none" stroke="black" points="552.75,-255.88 552.75,-281.12 607.25,-281.12 607.25,-255.88 552.75,-255.88"/>
<text text-anchor="start" x="559.75" y="-266.57" font-family="Times New Roman,serif" font-weight="bold" font-size="9.00">University</text>
<polygon fill="none" stroke="black" points="492,-254.88 492,-282.12 608.25,-282.12 608.25,-254.88 492,-254.88"/>
</g>
<!-- n_0_1_2_3_4_5_6&#45;&gt;n_0_6 -->
<g id="edge10" class="edge">
<title>n_0_1_2_3_4_5_6&#45;&gt;n_0_6</title>
<path fill="none" stroke="black" d="M491.85,-337.15C503.76,-323.33 517.33,-307.57 528.39,-294.74"/>
<polygon fill="black" stroke="black" points="530.72,-297.39 534.6,-287.53 525.42,-292.82 530.72,-297.39"/>
</g>
<!-- n_1_2_3 -->
<g id="node3" class="node">
<title>n_1_2_3</title>
<polygon fill="none" stroke="black" points="146.12,-163 146.12,-195 214.88,-195 214.88,-163 146.12,-163"/>
<text text-anchor="start" x="161.38" y="-180.45" font-family="Times New Roman,serif" font-weight="bold" font-size="9.00">Preschool</text>
<text text-anchor="start" x="153.12" y="-171.45" font-family="Times New Roman,serif" font-weight="bold" font-size="9.00">Secondary (P)</text>
<polygon fill="none" stroke="black" points="214.88,-163 214.88,-195 276.12,-195 276.12,-163 214.88,-163"/>
<text text-anchor="start" x="221.88" y="-177.07" font-family="Times New Roman,serif" font-weight="bold" font-size="9.00">Primary (G)</text>
<polygon fill="none" stroke="black" points="145.12,-162 145.12,-196 277.12,-196 277.12,-162 145.12,-162"/>
</g>
<!-- n_1_2_3_4_5&#45;&gt;n_1_2_3 -->
<g id="edge2" class="edge">
<title>n_1_2_3_4_5&#45;&gt;n_1_2_3</title>
<path fill="none" stroke="black" d="M330.16,-243.13C307.92,-231.33 281.23,-217.18 258.77,-205.27"/>
<polygon fill="black" stroke="black" points="260.59,-202.27 250.12,-200.68 257.31,-208.46 260.59,-202.27"/>
</g>
<!-- n_4_5 -->
<g id="node8" class="node">
<title>n_4_5</title>
<polygon fill="none" stroke="black" points="323.5,-166.38 323.5,-191.62 393.75,-191.62 393.75,-166.38 323.5,-166.38"/>
<text text-anchor="start" x="330.5" y="-177.07" font-family="Times New Roman,serif" font-weight="bold" font-size="9.00">Secondary (G)</text>
<polygon fill="none" stroke="black" points="393.75,-166.38 393.75,-191.62 446.75,-191.62 446.75,-166.38 393.75,-166.38"/>
<text text-anchor="start" x="400.75" y="-177.07" font-family="Times New Roman,serif" font-weight="bold" font-size="9.00">Technical</text>
<polygon fill="none" stroke="black" points="322.5,-165.38 322.5,-192.62 447.75,-192.62 447.75,-165.38 322.5,-165.38"/>
</g>
<!-- n_1_2_3_4_5&#45;&gt;n_4_5 -->
<g id="edge7" class="edge">
<title>n_1_2_3_4_5&#45;&gt;n_4_5</title>
<path fill="none" stroke="black" d="M378.63,-243.13C379.75,-232.28 381.07,-219.45 382.22,-208.19"/>
<polygon fill="black" stroke="black" points="385.7,-208.58 383.25,-198.28 378.74,-207.87 385.7,-208.58"/>
</g>
<!-- n_2_3 -->
<g id="node4" class="node">
<title>n_2_3</title>
<polygon fill="none" stroke="black" points="28.62,-84.38 28.62,-109.62 80.88,-109.62 80.88,-84.38 28.62,-84.38"/>
<text text-anchor="start" x="35.62" y="-95.08" font-family="Times New Roman,serif" font-weight="bold" font-size="9.00">Preschool</text>
<polygon fill="none" stroke="black" points="80.88,-84.38 80.88,-109.62 149.62,-109.62 149.62,-84.38 80.88,-84.38"/>
<text text-anchor="start" x="87.88" y="-95.08" font-family="Times New Roman,serif" font-weight="bold" font-size="9.00">Secondary (P)</text>
<polygon fill="none" stroke="black" points="27.62,-83.38 27.62,-110.62 150.62,-110.62 150.62,-83.38 27.62,-83.38"/>
</g>
<!-- n_1_2_3&#45;&gt;n_2_3 -->
<g id="edge3" class="edge">
<title>n_1_2_3&#45;&gt;n_2_3</title>
<path fill="none" stroke="black" d="M180.65,-158.02C163.5,-146.77 142.02,-132.68 124.17,-120.98"/>
<polygon fill="black" stroke="black" points="126.23,-118.15 115.95,-115.59 122.39,-124 126.23,-118.15"/>
</g>
<!-- n_1 -->
<g id="node7" class="node">
<title>n_1</title>
<polygon fill="none" stroke="black" points="196.5,-84.38 196.5,-109.62 257.75,-109.62 257.75,-84.38 196.5,-84.38"/>
<text text-anchor="start" x="203.5" y="-95.08" font-family="Times New Roman,serif" font-weight="bold" font-size="9.00">Primary (G)</text>
<polygon fill="none" stroke="black" points="195.5,-83.38 195.5,-110.62 258.75,-110.62 258.75,-83.38 195.5,-83.38"/>
</g>
<!-- n_1_2_3&#45;&gt;n_1 -->
<g id="edge6" class="edge">
<title>n_1_2_3&#45;&gt;n_1</title>
<path fill="none" stroke="black" d="M215.08,-158.22C217.02,-148.54 219.38,-136.72 221.5,-126.11"/>
<polygon fill="black" stroke="black" points="224.93,-126.82 223.46,-116.33 218.07,-125.45 224.93,-126.82"/>
</g>
<!-- n_2 -->
<g id="node5" class="node">
<title>n_2</title>
<polygon fill="none" stroke="black" points="9,-5.38 9,-30.62 61.25,-30.62 61.25,-5.38 9,-5.38"/>
<text text-anchor="start" x="16" y="-16.07" font-family="Times New Roman,serif" font-weight="bold" font-size="9.00">Preschool</text>
<polygon fill="none" stroke="black" points="8,-4.38 8,-31.62 62.25,-31.62 62.25,-4.38 8,-4.38"/>
</g>
<!-- n_2_3&#45;&gt;n_2 -->
<g id="edge4" class="edge">
<title>n_2_3&#45;&gt;n_2</title>
<path fill="none" stroke="black" d="M77.41,-79.29C70.45,-69.37 61.47,-56.57 53.58,-45.32"/>
<polygon fill="black" stroke="black" points="56.48,-43.36 47.87,-37.18 50.75,-47.38 56.48,-43.36"/>
</g>
<!-- n_3 -->
<g id="node6" class="node">
<title>n_3</title>
<polygon fill="none" stroke="black" points="108.75,-5.38 108.75,-30.62 177.5,-30.62 177.5,-5.38 108.75,-5.38"/>
<text text-anchor="start" x="115.75" y="-16.07" font-family="Times New Roman,serif" font-weight="bold" font-size="9.00">Secondary (P)</text>
<polygon fill="none" stroke="black" points="107.75,-4.38 107.75,-31.62 178.5,-31.62 178.5,-4.38 107.75,-4.38"/>
</g>
<!-- n_2_3&#45;&gt;n_3 -->
<g id="edge5" class="edge">
<title>n_2_3&#45;&gt;n_3</title>
<path fill="none" stroke="black" d="M100.84,-79.29C107.8,-69.37 116.78,-56.57 124.67,-45.32"/>
<polygon fill="black" stroke="black" points="127.5,-47.38 130.38,-37.18 121.77,-43.36 127.5,-47.38"/>
</g>
<!-- n_4 -->
<g id="node9" class="node">
<title>n_4</title>
<polygon fill="none" stroke="black" points="335,-84.38 335,-109.62 405.25,-109.62 405.25,-84.38 335,-84.38"/>
<text text-anchor="start" x="342" y="-95.08" font-family="Times New Roman,serif" font-weight="bold" font-size="9.00">Secondary (G)</text>
<polygon fill="none" stroke="black" points="334,-83.38 334,-110.62 406.25,-110.62 406.25,-83.38 334,-83.38"/>
</g>
<!-- n_4_5&#45;&gt;n_4 -->
<g id="edge8" class="edge">
<title>n_4_5&#45;&gt;n_4</title>
<path fill="none" stroke="black" d="M381.94,-161.03C380.03,-150.85 377.56,-137.65 375.37,-125.96"/>
<polygon fill="black" stroke="black" points="378.86,-125.61 373.58,-116.43 371.98,-126.9 378.86,-125.61"/>
</g>
<!-- n_5 -->
<g id="node10" class="node">
<title>n_5</title>
<polygon fill="none" stroke="black" points="452.62,-84.38 452.62,-109.62 505.62,-109.62 505.62,-84.38 452.62,-84.38"/>
<text text-anchor="start" x="459.62" y="-95.08" font-family="Times New Roman,serif" font-weight="bold" font-size="9.00">Technical</text>
<polygon fill="none" stroke="black" points="451.62,-83.38 451.62,-110.62 506.62,-110.62 506.62,-83.38 451.62,-83.38"/>
</g>
<!-- n_4_5&#45;&gt;n_5 -->
<g id="edge9" class="edge">
<title>n_4_5&#45;&gt;n_5</title>
<path fill="none" stroke="black" d="M405.06,-161.03C418.27,-149.79 435.81,-134.87 450.5,-122.36"/>
<polygon fill="black" stroke="black" points="452.72,-125.07 458.07,-115.92 448.18,-119.74 452.72,-125.07"/>
</g>
<!-- n_0 -->
<g id="node12" class="node">
<title>n_0</title>
<polygon fill="none" stroke="black" points="511.25,-166.38 511.25,-191.62 571,-191.62 571,-166.38 511.25,-166.38"/>
<text text-anchor="start" x="518.25" y="-177.07" font-family="Times New Roman,serif" font-weight="bold" font-size="9.00">Primary (P)</text>
<polygon fill="none" stroke="black" points="510.25,-165.38 510.25,-192.62 572,-192.62 572,-165.38 510.25,-165.38"/>
</g>
<!-- n_0_6&#45;&gt;n_0 -->
<g id="edge11" class="edge">
<title>n_0_6&#45;&gt;n_0</title>
<path fill="none" stroke="black" d="M548.39,-250.63C547.14,-238.52 545.44,-221.94 543.99,-207.88"/>
<polygon fill="black" stroke="black" points="547.51,-207.91 543.01,-198.32 540.55,-208.63 547.51,-207.91"/>
</g>
<!-- n_6 -->
<g id="node13" class="node">
<title>n_6</title>
<polygon fill="none" stroke="black" points="617.88,-166.38 617.88,-191.62 672.38,-191.62 672.38,-166.38 617.88,-166.38"/>
<text text-anchor="start" x="624.88" y="-177.07" font-family="Times New Roman,serif" font-weight="bold" font-size="9.00">University</text>
<polygon fill="none" stroke="black" points="616.88,-165.38 616.88,-192.62 673.38,-192.62 673.38,-165.38 616.88,-165.38"/>
</g>
<!-- n_0_6&#45;&gt;n_6 -->
<g id="edge12" class="edge">
<title>n_0_6&#45;&gt;n_6</title>
<path fill="none" stroke="black" d="M568.44,-250.63C582.64,-237.56 602.51,-219.25 618.46,-204.56"/>
<polygon fill="black" stroke="black" points="620.77,-207.19 625.75,-197.84 616.02,-202.04 620.77,-207.19"/>
</g>
</g>
</svg>
