<?xml version="1.0" encoding="UTF-8" standalone="no"?>
<!DOCTYPE svg PUBLIC "-//W3C//DTD SVG 1.1//EN"
 "http://www.w3.org/Graphics/SVG/1.1/DTD/svg11.dtd">
<!-- Generated by graphviz version 10.0.1 (20240210.2158)
 -->
<!-- Title: ND Pages: 1 -->
<svg width="669pt" height="311pt"
 viewBox="0.00 0.00 669.12 311.00" xmlns="http://www.w3.org/2000/svg" xmlns:xlink="http://www.w3.org/1999/xlink">
<g id="graph0" class="graph" transform="scale(1 1) rotate(0) translate(4 307)">
<title>ND</title>
<polygon fill="white" stroke="none" points="-4,4 -4,-307 665.12,-307 665.12,4 -4,4"/>
<!-- n_0_1_2_3_4_5_6 -->
<g id="node1" class="node">
<title>n_0_1_2_3_4_5_6</title>
<polygon fill="none" stroke="black" points="344.62,-248 344.62,-298 414.88,-298 414.88,-248 344.62,-248"/>
<text text-anchor="start" x="356.12" y="-283.45" font-family="Times New Roman,serif" font-weight="bold" font-size="9.00">Primary (G)</text>
<text text-anchor="start" x="352.38" y="-274.45" font-family="Times New Roman,serif" font-weight="bold" font-size="9.00">Secondary (P)</text>
<text text-anchor="start" x="351.62" y="-265.45" font-family="Times New Roman,serif" font-weight="bold" font-size="9.00">Secondary (G)</text>
<text text-anchor="start" x="359.5" y="-256.45" font-family="Times New Roman,serif" font-weight="bold" font-size="9.00">University</text>
<polygon fill="none" stroke="black" points="414.88,-248 414.88,-298 474.62,-298 474.62,-248 414.88,-248"/>
<text text-anchor="start" x="421.88" y="-278.95" font-family="Times New Roman,serif" font-weight="bold" font-size="9.00">Primary (P)</text>
<text text-anchor="start" x="425.62" y="-269.95" font-family="Times New Roman,serif" font-weight="bold" font-size="9.00">Preschool</text>
<text text-anchor="start" x="425.25" y="-260.95" font-family="Times New Roman,serif" font-weight="bold" font-size="9.00">Technical</text>
<polygon fill="none" stroke="black" points="343.62,-247 343.62,-299 475.62,-299 475.62,-247 343.62,-247"/>
</g>
<!-- n_1_3_4_6 -->
<g id="node2" class="node">
<title>n_1_3_4_6</title>
<polygon fill="none" stroke="black" points="254.12,-163 254.12,-195 324.38,-195 324.38,-163 254.12,-163"/>
<text text-anchor="start" x="265.62" y="-180.45" font-family="Times New Roman,serif" font-weight="bold" font-size="9.00">Primary (G)</text>
<text text-anchor="start" x="261.12" y="-171.45" font-family="Times New Roman,serif" font-weight="bold" font-size="9.00">Secondary (G)</text>
<polygon fill="none" stroke="black" points="324.38,-163 324.38,-195 393.12,-195 393.12,-163 324.38,-163"/>
<text text-anchor="start" x="331.38" y="-180.45" font-family="Times New Roman,serif" font-weight="bold" font-size="9.00">Secondary (P)</text>
<text text-anchor="start" x="338.5" y="-171.45" font-family="Times New Roman,serif" font-weight="bold" font-size="9.00">University</text>
<polygon fill="none" stroke="black" points="253.12,-162 253.12,-196 394.12,-196 394.12,-162 253.12,-162"/>
</g>
<!-- n_0_1_2_3_4_5_6&#45;&gt;n_1_3_4_6 -->
<g id="edge1" class="edge">
<title>n_0_1_2_3_4_5_6&#45;&gt;n_1_3_4_6</title>
<path fill="none" stroke="black" d="M382.65,-243.14C372.13,-231.89 360.12,-219.04 349.69,-207.88"/>
<polygon fill="black" stroke="black" points="352.49,-205.75 343.1,-200.84 347.37,-210.53 352.49,-205.75"/>
</g>
<!-- n_0_2_5 -->
<g id="node9" class="node">
<title>n_0_2_5</title>
<polygon fill="none" stroke="black" points="440.25,-163 440.25,-195 500,-195 500,-163 440.25,-163"/>
<text text-anchor="start" x="447.25" y="-180.45" font-family="Times New Roman,serif" font-weight="bold" font-size="9.00">Primary (P)</text>
<text text-anchor="start" x="451" y="-171.45" font-family="Times New Roman,serif" font-weight="bold" font-size="9.00">Preschool</text>
<polygon fill="none" stroke="black" points="500,-163 500,-195 553,-195 553,-163 500,-163"/>
<text text-anchor="start" x="507" y="-177.07" font-family="Times New Roman,serif" font-weight="bold" font-size="9.00">Technical</text>
<polygon fill="none" stroke="black" points="439.25,-162 439.25,-196 554,-196 554,-162 439.25,-162"/>
</g>
<!-- n_0_1_2_3_4_5_6&#45;&gt;n_0_2_5 -->
<g id="edge8" class="edge">
<title>n_0_1_2_3_4_5_6&#45;&gt;n_0_2_5</title>
<path fill="none" stroke="black" d="M436.91,-243.14C447.56,-231.89 459.71,-219.04 470.26,-207.88"/>
<polygon fill="black" stroke="black" points="472.6,-210.5 476.93,-200.83 467.51,-205.69 472.6,-210.5"/>
</g>
<!-- n_1_4 -->
<g id="node3" class="node">
<title>n_1_4</title>
<polygon fill="none" stroke="black" points="85.88,-84.38 85.88,-109.62 147.12,-109.62 147.12,-84.38 85.88,-84.38"/>
<text text-anchor="start" x="92.88" y="-95.08" font-family="Times New Roman,serif" font-weight="bold" font-size="9.00">Primary (G)</text>
<polygon fill="none" stroke="black" points="147.12,-84.38 147.12,-109.62 217.38,-109.62 217.38,-84.38 147.12,-84.38"/>
<text text-anchor="start" x="154.12" y="-95.08" font-family="Times New Roman,serif" font-weight="bold" font-size="9.00">Secondary (G)</text>
<polygon fill="none" stroke="black" points="84.88,-83.38 84.88,-110.62 218.38,-110.62 218.38,-83.38 84.88,-83.38"/>
</g>
<!-- n_1_3_4_6&#45;&gt;n_1_4 -->
<g id="edge2" class="edge">
<title>n_1_3_4_6&#45;&gt;n_1_4</title>
<path fill="none" stroke="black" d="M280.67,-158.02C255.57,-146.34 223.88,-131.61 198.18,-119.66"/>
<polygon fill="black" stroke="black" points="199.85,-116.57 189.31,-115.53 196.9,-122.92 199.85,-116.57"/>
</g>
<!-- n_3_6 -->
<g id="node6" class="node">
<title>n_3_6</title>
<polygon fill="none" stroke="black" points="264,-84.38 264,-109.62 332.75,-109.62 332.75,-84.38 264,-84.38"/>
<text text-anchor="start" x="271" y="-95.08" font-family="Times New Roman,serif" font-weight="bold" font-size="9.00">Secondary (P)</text>
<polygon fill="none" stroke="black" points="332.75,-84.38 332.75,-109.62 387.25,-109.62 387.25,-84.38 332.75,-84.38"/>
<text text-anchor="start" x="339.75" y="-95.08" font-family="Times New Roman,serif" font-weight="bold" font-size="9.00">University</text>
<polygon fill="none" stroke="black" points="263,-83.38 263,-110.62 388.25,-110.62 388.25,-83.38 263,-83.38"/>
</g>
<!-- n_1_3_4_6&#45;&gt;n_3_6 -->
<g id="edge5" class="edge">
<title>n_1_3_4_6&#45;&gt;n_3_6</title>
<path fill="none" stroke="black" d="M324.12,-158.22C324.36,-148.54 324.66,-136.72 324.92,-126.11"/>
<polygon fill="black" stroke="black" points="328.41,-126.44 325.17,-116.36 321.42,-126.27 328.41,-126.44"/>
</g>
<!-- n_1 -->
<g id="node4" class="node">
<title>n_1</title>
<polygon fill="none" stroke="black" points="9,-5.38 9,-30.62 70.25,-30.62 70.25,-5.38 9,-5.38"/>
<text text-anchor="start" x="16" y="-16.07" font-family="Times New Roman,serif" font-weight="bold" font-size="9.00">Primary (G)</text>
<polygon fill="none" stroke="black" points="8,-4.38 8,-31.62 71.25,-31.62 71.25,-4.38 8,-4.38"/>
</g>
<!-- n_1_4&#45;&gt;n_1 -->
<g id="edge3" class="edge">
<title>n_1_4&#45;&gt;n_1</title>
<path fill="none" stroke="black" d="M127.05,-79.1C111.29,-68.27 90.63,-54.06 73.35,-42.18"/>
<polygon fill="black" stroke="black" points="75.62,-39.5 65.39,-36.72 71.65,-45.27 75.62,-39.5"/>
</g>
<!-- n_4 -->
<g id="node5" class="node">
<title>n_4</title>
<polygon fill="none" stroke="black" points="117.5,-5.38 117.5,-30.62 187.75,-30.62 187.75,-5.38 117.5,-5.38"/>
<text text-anchor="start" x="124.5" y="-16.07" font-family="Times New Roman,serif" font-weight="bold" font-size="9.00">Secondary (G)</text>
<polygon fill="none" stroke="black" points="116.5,-4.38 116.5,-31.62 188.75,-31.62 188.75,-4.38 116.5,-4.38"/>
</g>
<!-- n_1_4&#45;&gt;n_4 -->
<g id="edge4" class="edge">
<title>n_1_4&#45;&gt;n_4</title>
<path fill="none" stroke="black" d="M151.84,-79.29C151.96,-69.97 152.12,-58.11 152.26,-47.38"/>
<polygon fill="black" stroke="black" points="155.76,-47.5 152.39,-37.45 148.76,-47.41 155.76,-47.5"/>
</g>
<!-- n_3 -->
<g id="node7" class="node">
<title>n_3</title>
<polygon fill="none" stroke="black" points="243.25,-5.38 243.25,-30.62 312,-30.62 312,-5.38 243.25,-5.38"/>
<text text-anchor="start" x="250.25" y="-16.07" font-family="Times New Roman,serif" font-weight="bold" font-size="9.00">Secondary (P)</text>
<polygon fill="none" stroke="black" points="242.25,-4.38 242.25,-31.62 313,-31.62 313,-4.38 242.25,-4.38"/>
</g>
<!-- n_3_6&#45;&gt;n_3 -->
<g id="edge6" class="edge">
<title>n_3_6&#45;&gt;n_3</title>
<path fill="none" stroke="black" d="M315.21,-79.29C309.09,-69.47 301.21,-56.83 294.24,-45.66"/>
<polygon fill="black" stroke="black" points="297.25,-43.86 288.99,-37.23 291.31,-47.56 297.25,-43.86"/>
</g>
<!-- n_6 -->
<g id="node8" class="node">
<title>n_6</title>
<polygon fill="none" stroke="black" points="359.38,-5.38 359.38,-30.62 413.88,-30.62 413.88,-5.38 359.38,-5.38"/>
<text text-anchor="start" x="366.38" y="-16.07" font-family="Times New Roman,serif" font-weight="bold" font-size="9.00">University</text>
<polygon fill="none" stroke="black" points="358.38,-4.38 358.38,-31.62 414.88,-31.62 414.88,-4.38 358.38,-4.38"/>
</g>
<!-- n_3_6&#45;&gt;n_6 -->
<g id="edge7" class="edge">
<title>n_3_6&#45;&gt;n_6</title>
<path fill="none" stroke="black" d="M338.86,-79.29C346.88,-69.17 357.27,-56.05 366.31,-44.64"/>
<polygon fill="black" stroke="black" points="368.8,-47.14 372.26,-37.13 363.31,-42.79 368.8,-47.14"/>
</g>
<!-- n_0_2 -->
<g id="node10" class="node">
<title>n_0_2</title>
<polygon fill="none" stroke="black" points="439.62,-84.38 439.62,-109.62 499.38,-109.62 499.38,-84.38 439.62,-84.38"/>
<text text-anchor="start" x="446.62" y="-95.08" font-family="Times New Roman,serif" font-weight="bold" font-size="9.00">Primary (P)</text>
<polygon fill="none" stroke="black" points="499.38,-84.38 499.38,-109.62 551.62,-109.62 551.62,-84.38 499.38,-84.38"/>
<text text-anchor="start" x="506.38" y="-95.08" font-family="Times New Roman,serif" font-weight="bold" font-size="9.00">Preschool</text>
<polygon fill="none" stroke="black" points="438.62,-83.38 438.62,-110.62 552.62,-110.62 552.62,-83.38 438.62,-83.38"/>
</g>
<!-- n_0_2_5&#45;&gt;n_0_2 -->
<g id="edge9" class="edge">
<title>n_0_2_5&#45;&gt;n_0_2</title>
<path fill="none" stroke="black" d="M496.38,-158.22C496.26,-148.54 496.11,-136.72 495.98,-126.11"/>
<polygon fill="black" stroke="black" points="499.48,-126.31 495.85,-116.36 492.48,-126.4 499.48,-126.31"/>
</g>
<!-- n_5 -->
<g id="node13" class="node">
<title>n_5</title>
<polygon fill="none" stroke="black" points="599.12,-84.38 599.12,-109.62 652.12,-109.62 652.12,-84.38 599.12,-84.38"/>
<text text-anchor="start" x="606.12" y="-95.08" font-family="Times New Roman,serif" font-weight="bold" font-size="9.00">Technical</text>
<polygon fill="none" stroke="black" points="598.12,-83.38 598.12,-110.62 653.12,-110.62 653.12,-83.38 598.12,-83.38"/>
</g>
<!-- n_0_2_5&#45;&gt;n_5 -->
<g id="edge12" class="edge">
<title>n_0_2_5&#45;&gt;n_5</title>
<path fill="none" stroke="black" d="M528.84,-158.02C547.06,-146.72 569.91,-132.55 588.83,-120.82"/>
<polygon fill="black" stroke="black" points="590.66,-123.8 597.32,-115.56 586.97,-117.85 590.66,-123.8"/>
</g>
<!-- n_0 -->
<g id="node11" class="node">
<title>n_0</title>
<polygon fill="none" stroke="black" points="464.75,-5.38 464.75,-30.62 524.5,-30.62 524.5,-5.38 464.75,-5.38"/>
<text text-anchor="start" x="471.75" y="-16.07" font-family="Times New Roman,serif" font-weight="bold" font-size="9.00">Primary (P)</text>
<polygon fill="none" stroke="black" points="463.75,-4.38 463.75,-31.62 525.5,-31.62 525.5,-4.38 463.75,-4.38"/>
</g>
<!-- n_0_2&#45;&gt;n_0 -->
<g id="edge10" class="edge">
<title>n_0_2&#45;&gt;n_0</title>
<path fill="none" stroke="black" d="M495.41,-79.29C495.29,-69.97 495.13,-58.11 494.99,-47.38"/>
<polygon fill="black" stroke="black" points="498.49,-47.41 494.86,-37.45 491.49,-47.5 498.49,-47.41"/>
</g>
<!-- n_2 -->
<g id="node12" class="node">
<title>n_2</title>
<polygon fill="none" stroke="black" points="571.5,-5.38 571.5,-30.62 623.75,-30.62 623.75,-5.38 571.5,-5.38"/>
<text text-anchor="start" x="578.5" y="-16.07" font-family="Times New Roman,serif" font-weight="bold" font-size="9.00">Preschool</text>
<polygon fill="none" stroke="black" points="570.5,-4.38 570.5,-31.62 624.75,-31.62 624.75,-4.38 570.5,-4.38"/>
</g>
<!-- n_0_2&#45;&gt;n_2 -->
<g id="edge11" class="edge">
<title>n_0_2&#45;&gt;n_2</title>
<path fill="none" stroke="black" d="M518.01,-79.1C532.23,-68.37 550.83,-54.33 566.48,-42.51"/>
<polygon fill="black" stroke="black" points="568.21,-45.59 574.08,-36.77 563.99,-40 568.21,-45.59"/>
</g>
</g>
</svg>
