<?xml version="1.0" encoding="UTF-8" standalone="no"?>
<!DOCTYPE svg PUBLIC "-//W3C//DTD SVG 1.1//EN"
 "http://www.w3.org/Graphics/SVG/1.1/DTD/svg11.dtd">
<!-- Generated by graphviz version 10.0.1 (20240210.2158)
 -->
<!-- Title: ND Pages: 1 -->
<svg width="568pt" height="535pt"
 viewBox="0.00 0.00 567.75 535.00" xmlns="http://www.w3.org/2000/svg" xmlns:xlink="http://www.w3.org/1999/xlink">
<g id="graph0" class="graph" transform="scale(1 1) rotate(0) translate(4 531)">
<title>ND</title>
<polygon fill="white" stroke="none" points="-4,4 -4,-531 563.75,-531 563.75,4 -4,4"/>
<!-- n_0_1_2_3_4_5_6 -->
<g id="node1" class="node">
<title>n_0_1_2_3_4_5_6</title>
<polygon fill="none" stroke="black" points="384.38,-454 384.38,-522 454.62,-522 454.62,-454 384.38,-454"/>
<text text-anchor="start" x="396.62" y="-507.45" font-family="Times New Roman,serif" font-weight="bold" font-size="9.00">Primary (P)</text>
<text text-anchor="start" x="400.38" y="-498.45" font-family="Times New Roman,serif" font-weight="bold" font-size="9.00">Preschool</text>
<text text-anchor="start" x="392.12" y="-489.45" font-family="Times New Roman,serif" font-weight="bold" font-size="9.00">Secondary (P)</text>
<text text-anchor="start" x="391.38" y="-480.45" font-family="Times New Roman,serif" font-weight="bold" font-size="9.00">Secondary (G)</text>
<text text-anchor="start" x="400" y="-471.45" font-family="Times New Roman,serif" font-weight="bold" font-size="9.00">Technical</text>
<text text-anchor="start" x="399.25" y="-462.45" font-family="Times New Roman,serif" font-weight="bold" font-size="9.00">University</text>
<polygon fill="none" stroke="black" points="454.62,-454 454.62,-522 515.88,-522 515.88,-454 454.62,-454"/>
<text text-anchor="start" x="461.62" y="-486.07" font-family="Times New Roman,serif" font-weight="bold" font-size="9.00">Primary (G)</text>
<polygon fill="none" stroke="black" points="383.38,-453 383.38,-523 516.88,-523 516.88,-453 383.38,-453"/>
</g>
<!-- n_0_2_3_4_5_6 -->
<g id="node2" class="node">
<title>n_0_2_3_4_5_6</title>
<polygon fill="none" stroke="black" points="319.88,-342 319.88,-401 390.12,-401 390.12,-342 319.88,-342"/>
<text text-anchor="start" x="332.12" y="-386.45" font-family="Times New Roman,serif" font-weight="bold" font-size="9.00">Primary (P)</text>
<text text-anchor="start" x="327.62" y="-377.45" font-family="Times New Roman,serif" font-weight="bold" font-size="9.00">Secondary (P)</text>
<text text-anchor="start" x="326.88" y="-368.45" font-family="Times New Roman,serif" font-weight="bold" font-size="9.00">Secondary (G)</text>
<text text-anchor="start" x="335.5" y="-359.45" font-family="Times New Roman,serif" font-weight="bold" font-size="9.00">Technical</text>
<text text-anchor="start" x="334.75" y="-350.45" font-family="Times New Roman,serif" font-weight="bold" font-size="9.00">University</text>
<polygon fill="none" stroke="black" points="390.12,-342 390.12,-401 442.38,-401 442.38,-342 390.12,-342"/>
<text text-anchor="start" x="397.12" y="-369.57" font-family="Times New Roman,serif" font-weight="bold" font-size="9.00">Preschool</text>
<polygon fill="none" stroke="black" points="318.88,-341 318.88,-402 443.38,-402 443.38,-341 318.88,-341"/>
</g>
<!-- n_0_1_2_3_4_5_6&#45;&gt;n_0_2_3_4_5_6 -->
<g id="edge1" class="edge">
<title>n_0_1_2_3_4_5_6&#45;&gt;n_0_2_3_4_5_6</title>
<path fill="none" stroke="black" d="M427.34,-449.19C420.78,-438.31 413.58,-426.36 406.86,-415.21"/>
<polygon fill="black" stroke="black" points="410.04,-413.71 401.88,-406.95 404.05,-417.32 410.04,-413.71"/>
</g>
<!-- n_1 -->
<g id="node13" class="node">
<title>n_1</title>
<polygon fill="none" stroke="black" points="489.5,-358.88 489.5,-384.12 550.75,-384.12 550.75,-358.88 489.5,-358.88"/>
<text text-anchor="start" x="496.5" y="-369.57" font-family="Times New Roman,serif" font-weight="bold" font-size="9.00">Primary (G)</text>
<polygon fill="none" stroke="black" points="488.5,-357.88 488.5,-385.12 551.75,-385.12 551.75,-357.88 488.5,-357.88"/>
</g>
<!-- n_0_1_2_3_4_5_6&#45;&gt;n_1 -->
<g id="edge12" class="edge">
<title>n_0_1_2_3_4_5_6&#45;&gt;n_1</title>
<path fill="none" stroke="black" d="M473.24,-449.19C483.27,-432.78 494.78,-413.96 503.88,-399.07"/>
<polygon fill="black" stroke="black" points="506.74,-401.11 508.97,-390.75 500.76,-397.46 506.74,-401.11"/>
</g>
<!-- n_0_3_4_5_6 -->
<g id="node3" class="node">
<title>n_0_3_4_5_6</title>
<polygon fill="none" stroke="black" points="247.12,-248 247.12,-289 317.38,-289 317.38,-248 247.12,-248"/>
<text text-anchor="start" x="254.88" y="-274.45" font-family="Times New Roman,serif" font-weight="bold" font-size="9.00">Secondary (P)</text>
<text text-anchor="start" x="254.12" y="-265.45" font-family="Times New Roman,serif" font-weight="bold" font-size="9.00">Secondary (G)</text>
<text text-anchor="start" x="262.75" y="-256.45" font-family="Times New Roman,serif" font-weight="bold" font-size="9.00">Technical</text>
<polygon fill="none" stroke="black" points="317.38,-248 317.38,-289 377.12,-289 377.12,-248 317.38,-248"/>
<text text-anchor="start" x="324.38" y="-269.95" font-family="Times New Roman,serif" font-weight="bold" font-size="9.00">Primary (P)</text>
<text text-anchor="start" x="327" y="-260.95" font-family="Times New Roman,serif" font-weight="bold" font-size="9.00">University</text>
<polygon fill="none" stroke="black" points="246.12,-247 246.12,-290 378.12,-290 378.12,-247 246.12,-247"/>
</g>
<!-- n_0_2_3_4_5_6&#45;&gt;n_0_3_4_5_6 -->
<g id="edge2" class="edge">
<title>n_0_2_3_4_5_6&#45;&gt;n_0_3_4_5_6</title>
<path fill="none" stroke="black" d="M358.34,-337.15C350.87,-326.22 342.57,-314.07 335.09,-303.12"/>
<polygon fill="black" stroke="black" points="338.15,-301.39 329.62,-295.11 332.37,-305.34 338.15,-301.39"/>
</g>
<!-- n_2 -->
<g id="node12" class="node">
<title>n_2</title>
<polygon fill="none" stroke="black" points="424,-255.88 424,-281.12 476.25,-281.12 476.25,-255.88 424,-255.88"/>
<text text-anchor="start" x="431" y="-266.57" font-family="Times New Roman,serif" font-weight="bold" font-size="9.00">Preschool</text>
<polygon fill="none" stroke="black" points="423,-254.88 423,-282.12 477.25,-282.12 477.25,-254.88 423,-254.88"/>
</g>
<!-- n_0_2_3_4_5_6&#45;&gt;n_2 -->
<g id="edge11" class="edge">
<title>n_0_2_3_4_5_6&#45;&gt;n_2</title>
<path fill="none" stroke="black" d="M403.91,-337.15C413.08,-323.73 423.5,-308.47 432.12,-295.85"/>
<polygon fill="black" stroke="black" points="434.99,-297.86 437.74,-287.63 429.21,-293.91 434.99,-297.86"/>
</g>
<!-- n_3_4_5 -->
<g id="node4" class="node">
<title>n_3_4_5</title>
<polygon fill="none" stroke="black" points="155.62,-163 155.62,-195 225.88,-195 225.88,-163 155.62,-163"/>
<text text-anchor="start" x="162.62" y="-180.45" font-family="Times New Roman,serif" font-weight="bold" font-size="9.00">Secondary (G)</text>
<text text-anchor="start" x="171.25" y="-171.45" font-family="Times New Roman,serif" font-weight="bold" font-size="9.00">Technical</text>
<polygon fill="none" stroke="black" points="225.88,-163 225.88,-195 294.62,-195 294.62,-163 225.88,-163"/>
<text text-anchor="start" x="232.88" y="-177.07" font-family="Times New Roman,serif" font-weight="bold" font-size="9.00">Secondary (P)</text>
<polygon fill="none" stroke="black" points="154.62,-162 154.62,-196 295.62,-196 295.62,-162 154.62,-162"/>
</g>
<!-- n_0_3_4_5_6&#45;&gt;n_3_4_5 -->
<g id="edge3" class="edge">
<title>n_0_3_4_5_6&#45;&gt;n_3_4_5</title>
<path fill="none" stroke="black" d="M287.89,-243.13C276.97,-232.14 264.01,-219.11 252.72,-207.75"/>
<polygon fill="black" stroke="black" points="255.44,-205.52 245.9,-200.9 250.47,-210.46 255.44,-205.52"/>
</g>
<!-- n_0_6 -->
<g id="node9" class="node">
<title>n_0_6</title>
<polygon fill="none" stroke="black" points="342,-166.38 342,-191.62 401.75,-191.62 401.75,-166.38 342,-166.38"/>
<text text-anchor="start" x="349" y="-177.07" font-family="Times New Roman,serif" font-weight="bold" font-size="9.00">Primary (P)</text>
<polygon fill="none" stroke="black" points="401.75,-166.38 401.75,-191.62 456.25,-191.62 456.25,-166.38 401.75,-166.38"/>
<text text-anchor="start" x="408.75" y="-177.07" font-family="Times New Roman,serif" font-weight="bold" font-size="9.00">University</text>
<polygon fill="none" stroke="black" points="341,-165.38 341,-192.62 457.25,-192.62 457.25,-165.38 341,-165.38"/>
</g>
<!-- n_0_3_4_5_6&#45;&gt;n_0_6 -->
<g id="edge8" class="edge">
<title>n_0_3_4_5_6&#45;&gt;n_0_6</title>
<path fill="none" stroke="black" d="M336.36,-243.13C348.29,-231.13 362.64,-216.7 374.61,-204.66"/>
<polygon fill="black" stroke="black" points="376.81,-207.4 381.38,-197.84 371.85,-202.47 376.81,-207.4"/>
</g>
<!-- n_4_5 -->
<g id="node5" class="node">
<title>n_4_5</title>
<polygon fill="none" stroke="black" points="36.5,-84.38 36.5,-109.62 106.75,-109.62 106.75,-84.38 36.5,-84.38"/>
<text text-anchor="start" x="43.5" y="-95.08" font-family="Times New Roman,serif" font-weight="bold" font-size="9.00">Secondary (G)</text>
<polygon fill="none" stroke="black" points="106.75,-84.38 106.75,-109.62 159.75,-109.62 159.75,-84.38 106.75,-84.38"/>
<text text-anchor="start" x="113.75" y="-95.08" font-family="Times New Roman,serif" font-weight="bold" font-size="9.00">Technical</text>
<polygon fill="none" stroke="black" points="35.5,-83.38 35.5,-110.62 160.75,-110.62 160.75,-83.38 35.5,-83.38"/>
</g>
<!-- n_3_4_5&#45;&gt;n_4_5 -->
<g id="edge4" class="edge">
<title>n_3_4_5&#45;&gt;n_4_5</title>
<path fill="none" stroke="black" d="M193.41,-158.02C175.47,-146.72 152.98,-132.55 134.35,-120.82"/>
<polygon fill="black" stroke="black" points="136.34,-117.93 126.01,-115.57 132.61,-123.86 136.34,-117.93"/>
</g>
<!-- n_3 -->
<g id="node8" class="node">
<title>n_3</title>
<polygon fill="none" stroke="black" points="206.75,-84.38 206.75,-109.62 275.5,-109.62 275.5,-84.38 206.75,-84.38"/>
<text text-anchor="start" x="213.75" y="-95.08" font-family="Times New Roman,serif" font-weight="bold" font-size="9.00">Secondary (P)</text>
<polygon fill="none" stroke="black" points="205.75,-83.38 205.75,-110.62 276.5,-110.62 276.5,-83.38 205.75,-83.38"/>
</g>
<!-- n_3_4_5&#45;&gt;n_3 -->
<g id="edge7" class="edge">
<title>n_3_4_5&#45;&gt;n_3</title>
<path fill="none" stroke="black" d="M229.08,-158.22C231.02,-148.54 233.38,-136.72 235.5,-126.11"/>
<polygon fill="black" stroke="black" points="238.93,-126.82 237.46,-116.33 232.07,-125.45 238.93,-126.82"/>
</g>
<!-- n_4 -->
<g id="node6" class="node">
<title>n_4</title>
<polygon fill="none" stroke="black" points="9,-5.38 9,-30.62 79.25,-30.62 79.25,-5.38 9,-5.38"/>
<text text-anchor="start" x="16" y="-16.07" font-family="Times New Roman,serif" font-weight="bold" font-size="9.00">Secondary (G)</text>
<polygon fill="none" stroke="black" points="8,-4.38 8,-31.62 80.25,-31.62 80.25,-4.38 8,-4.38"/>
</g>
<!-- n_4_5&#45;&gt;n_4 -->
<g id="edge5" class="edge">
<title>n_4_5&#45;&gt;n_4</title>
<path fill="none" stroke="black" d="M86.41,-79.29C79.45,-69.37 70.47,-56.57 62.58,-45.32"/>
<polygon fill="black" stroke="black" points="65.48,-43.36 56.87,-37.18 59.75,-47.38 65.48,-43.36"/>
</g>
<!-- n_5 -->
<g id="node7" class="node">
<title>n_5</title>
<polygon fill="none" stroke="black" points="126.62,-5.38 126.62,-30.62 179.62,-30.62 179.62,-5.38 126.62,-5.38"/>
<text text-anchor="start" x="133.62" y="-16.07" font-family="Times New Roman,serif" font-weight="bold" font-size="9.00">Technical</text>
<polygon fill="none" stroke="black" points="125.62,-4.38 125.62,-31.62 180.62,-31.62 180.62,-4.38 125.62,-4.38"/>
</g>
<!-- n_4_5&#45;&gt;n_5 -->
<g id="edge6" class="edge">
<title>n_4_5&#45;&gt;n_5</title>
<path fill="none" stroke="black" d="M110.06,-79.29C117.22,-69.27 126.47,-56.31 134.57,-44.98"/>
<polygon fill="black" stroke="black" points="137.18,-47.34 140.14,-37.17 131.48,-43.28 137.18,-47.34"/>
</g>
<!-- n_0 -->
<g id="node10" class="node">
<title>n_0</title>
<polygon fill="none" stroke="black" points="353.25,-84.38 353.25,-109.62 413,-109.62 413,-84.38 353.25,-84.38"/>
<text text-anchor="start" x="360.25" y="-95.08" font-family="Times New Roman,serif" font-weight="bold" font-size="9.00">Primary (P)</text>
<polygon fill="none" stroke="black" points="352.25,-83.38 352.25,-110.62 414,-110.62 414,-83.38 352.25,-83.38"/>
</g>
<!-- n_0_6&#45;&gt;n_0 -->
<g id="edge9" class="edge">
<title>n_0_6&#45;&gt;n_0</title>
<path fill="none" stroke="black" d="M395.73,-161.03C393.7,-150.85 391.05,-137.65 388.72,-125.96"/>
<polygon fill="black" stroke="black" points="392.2,-125.55 386.81,-116.43 385.34,-126.92 392.2,-125.55"/>
</g>
<!-- n_6 -->
<g id="node11" class="node">
<title>n_6</title>
<polygon fill="none" stroke="black" points="459.88,-84.38 459.88,-109.62 514.38,-109.62 514.38,-84.38 459.88,-84.38"/>
<text text-anchor="start" x="466.88" y="-95.08" font-family="Times New Roman,serif" font-weight="bold" font-size="9.00">University</text>
<polygon fill="none" stroke="black" points="458.88,-83.38 458.88,-110.62 515.38,-110.62 515.38,-83.38 458.88,-83.38"/>
</g>
<!-- n_0_6&#45;&gt;n_6 -->
<g id="edge10" class="edge">
<title>n_0_6&#45;&gt;n_6</title>
<path fill="none" stroke="black" d="M417.79,-161.03C430.15,-149.79 446.57,-134.87 460.33,-122.36"/>
<polygon fill="black" stroke="black" points="462.32,-125.28 467.37,-115.96 457.62,-120.1 462.32,-125.28"/>
</g>
</g>
</svg>
