<?xml version="1.0" encoding="UTF-8" standalone="no"?>
<!DOCTYPE svg PUBLIC "-//W3C//DTD SVG 1.1//EN"
 "http://www.w3.org/Graphics/SVG/1.1/DTD/svg11.dtd">
<!-- Generated by graphviz version 10.0.1 (20240210.2158)
 -->
<!-- Title: ND Pages: 1 -->
<svg width="600pt" height="526pt"
 viewBox="0.00 0.00 600.00 526.00" xmlns="http://www.w3.org/2000/svg" xmlns:xlink="http://www.w3.org/1999/xlink">
<g id="graph0" class="graph" transform="scale(1 1) rotate(0) translate(4 522)">
<title>ND</title>
<polygon fill="white" stroke="none" points="-4,4 -4,-522 596,-522 596,4 -4,4"/>
<!-- n_0_1_2_3_4_5_6 -->
<g id="node1" class="node">
<title>n_0_1_2_3_4_5_6</title>
<polygon fill="none" stroke="black" points="367.5,-445 367.5,-513 437.75,-513 437.75,-445 367.5,-445"/>
<text text-anchor="start" x="379.75" y="-498.45" font-family="Times New Roman,serif" font-weight="bold" font-size="9.00">Primary (P)</text>
<text text-anchor="start" x="379" y="-489.45" font-family="Times New Roman,serif" font-weight="bold" font-size="9.00">Primary (G)</text>
<text text-anchor="start" x="383.5" y="-480.45" font-family="Times New Roman,serif" font-weight="bold" font-size="9.00">Preschool</text>
<text text-anchor="start" x="375.25" y="-471.45" font-family="Times New Roman,serif" font-weight="bold" font-size="9.00">Secondary (P)</text>
<text text-anchor="start" x="374.5" y="-462.45" font-family="Times New Roman,serif" font-weight="bold" font-size="9.00">Secondary (G)</text>
<text text-anchor="start" x="383.12" y="-453.45" font-family="Times New Roman,serif" font-weight="bold" font-size="9.00">Technical</text>
<polygon fill="none" stroke="black" points="437.75,-445 437.75,-513 492.25,-513 492.25,-445 437.75,-445"/>
<text text-anchor="start" x="444.75" y="-477.07" font-family="Times New Roman,serif" font-weight="bold" font-size="9.00">University</text>
<polygon fill="none" stroke="black" points="366.5,-444 366.5,-514 493.25,-514 493.25,-444 366.5,-444"/>
</g>
<!-- n_0_1_2_3_4_5 -->
<g id="node2" class="node">
<title>n_0_1_2_3_4_5</title>
<polygon fill="none" stroke="black" points="294.12,-342 294.12,-392 355.38,-392 355.38,-342 294.12,-342"/>
<text text-anchor="start" x="301.88" y="-377.45" font-family="Times New Roman,serif" font-weight="bold" font-size="9.00">Primary (P)</text>
<text text-anchor="start" x="301.12" y="-368.45" font-family="Times New Roman,serif" font-weight="bold" font-size="9.00">Primary (G)</text>
<text text-anchor="start" x="305.62" y="-359.45" font-family="Times New Roman,serif" font-weight="bold" font-size="9.00">Preschool</text>
<text text-anchor="start" x="305.25" y="-350.45" font-family="Times New Roman,serif" font-weight="bold" font-size="9.00">Technical</text>
<polygon fill="none" stroke="black" points="355.38,-342 355.38,-392 425.62,-392 425.62,-342 355.38,-342"/>
<text text-anchor="start" x="363.12" y="-368.45" font-family="Times New Roman,serif" font-weight="bold" font-size="9.00">Secondary (P)</text>
<text text-anchor="start" x="362.38" y="-359.45" font-family="Times New Roman,serif" font-weight="bold" font-size="9.00">Secondary (G)</text>
<polygon fill="none" stroke="black" points="293.12,-341 293.12,-393 426.62,-393 426.62,-341 293.12,-341"/>
</g>
<!-- n_0_1_2_3_4_5_6&#45;&gt;n_0_1_2_3_4_5 -->
<g id="edge1" class="edge">
<title>n_0_1_2_3_4_5_6&#45;&gt;n_0_1_2_3_4_5</title>
<path fill="none" stroke="black" d="M405.78,-440.14C398.88,-429.3 391.35,-417.46 384.42,-406.57"/>
<polygon fill="black" stroke="black" points="387.39,-404.72 379.07,-398.16 381.49,-408.48 387.39,-404.72"/>
</g>
<!-- n_6 -->
<g id="node13" class="node">
<title>n_6</title>
<polygon fill="none" stroke="black" points="472.62,-354.38 472.62,-379.62 527.12,-379.62 527.12,-354.38 472.62,-354.38"/>
<text text-anchor="start" x="479.62" y="-365.07" font-family="Times New Roman,serif" font-weight="bold" font-size="9.00">University</text>
<polygon fill="none" stroke="black" points="471.62,-353.38 471.62,-380.62 528.12,-380.62 528.12,-353.38 471.62,-353.38"/>
</g>
<!-- n_0_1_2_3_4_5_6&#45;&gt;n_6 -->
<g id="edge12" class="edge">
<title>n_0_1_2_3_4_5_6&#45;&gt;n_6</title>
<path fill="none" stroke="black" d="M453.97,-440.14C463.58,-425.04 474.41,-408.02 483.13,-394.31"/>
<polygon fill="black" stroke="black" points="485.84,-396.57 488.26,-386.26 479.93,-392.82 485.84,-396.57"/>
</g>
<!-- n_0_1_2_5 -->
<g id="node3" class="node">
<title>n_0_1_2_5</title>
<polygon fill="none" stroke="black" points="215.75,-248 215.75,-289 277,-289 277,-248 215.75,-248"/>
<text text-anchor="start" x="223.5" y="-274.45" font-family="Times New Roman,serif" font-weight="bold" font-size="9.00">Primary (P)</text>
<text text-anchor="start" x="222.75" y="-265.45" font-family="Times New Roman,serif" font-weight="bold" font-size="9.00">Primary (G)</text>
<text text-anchor="start" x="227.25" y="-256.45" font-family="Times New Roman,serif" font-weight="bold" font-size="9.00">Preschool</text>
<polygon fill="none" stroke="black" points="277,-248 277,-289 330,-289 330,-248 277,-248"/>
<text text-anchor="start" x="284" y="-266.57" font-family="Times New Roman,serif" font-weight="bold" font-size="9.00">Technical</text>
<polygon fill="none" stroke="black" points="214.75,-247 214.75,-290 331,-290 331,-247 214.75,-247"/>
</g>
<!-- n_0_1_2_3_4_5&#45;&gt;n_0_1_2_5 -->
<g id="edge2" class="edge">
<title>n_0_1_2_3_4_5&#45;&gt;n_0_1_2_5</title>
<path fill="none" stroke="black" d="M333.77,-337.05C323.88,-326.08 312.55,-313.51 302.37,-302.22"/>
<polygon fill="black" stroke="black" points="305.16,-300.08 295.86,-295 299.96,-304.77 305.16,-300.08"/>
</g>
<!-- n_3_4 -->
<g id="node10" class="node">
<title>n_3_4</title>
<polygon fill="none" stroke="black" points="377.38,-255.88 377.38,-281.12 446.12,-281.12 446.12,-255.88 377.38,-255.88"/>
<text text-anchor="start" x="384.38" y="-266.57" font-family="Times New Roman,serif" font-weight="bold" font-size="9.00">Secondary (P)</text>
<polygon fill="none" stroke="black" points="446.12,-255.88 446.12,-281.12 516.38,-281.12 516.38,-255.88 446.12,-255.88"/>
<text text-anchor="start" x="453.12" y="-266.57" font-family="Times New Roman,serif" font-weight="bold" font-size="9.00">Secondary (G)</text>
<polygon fill="none" stroke="black" points="376.38,-254.88 376.38,-282.12 517.38,-282.12 517.38,-254.88 376.38,-254.88"/>
</g>
<!-- n_0_1_2_3_4_5&#45;&gt;n_3_4 -->
<g id="edge9" class="edge">
<title>n_0_1_2_3_4_5&#45;&gt;n_3_4</title>
<path fill="none" stroke="black" d="M385.98,-337.05C398.1,-323.6 412.37,-307.77 424.05,-294.81"/>
<polygon fill="black" stroke="black" points="426.56,-297.26 430.66,-287.49 421.36,-292.57 426.56,-297.26"/>
</g>
<!-- n_0_1_2 -->
<g id="node4" class="node">
<title>n_0_1_2</title>
<polygon fill="none" stroke="black" points="103.12,-163 103.12,-195 164.38,-195 164.38,-163 103.12,-163"/>
<text text-anchor="start" x="110.88" y="-180.45" font-family="Times New Roman,serif" font-weight="bold" font-size="9.00">Primary (P)</text>
<text text-anchor="start" x="110.12" y="-171.45" font-family="Times New Roman,serif" font-weight="bold" font-size="9.00">Primary (G)</text>
<polygon fill="none" stroke="black" points="164.38,-163 164.38,-195 216.62,-195 216.62,-163 164.38,-163"/>
<text text-anchor="start" x="171.38" y="-177.07" font-family="Times New Roman,serif" font-weight="bold" font-size="9.00">Preschool</text>
<polygon fill="none" stroke="black" points="102.12,-162 102.12,-196 217.62,-196 217.62,-162 102.12,-162"/>
</g>
<!-- n_0_1_2_5&#45;&gt;n_0_1_2 -->
<g id="edge3" class="edge">
<title>n_0_1_2_5&#45;&gt;n_0_1_2</title>
<path fill="none" stroke="black" d="M241.4,-243.13C226.8,-231.82 209.4,-218.35 194.44,-206.76"/>
<polygon fill="black" stroke="black" points="196.73,-204.11 186.68,-200.75 192.44,-209.64 196.73,-204.11"/>
</g>
<!-- n_5 -->
<g id="node9" class="node">
<title>n_5</title>
<polygon fill="none" stroke="black" points="263.38,-166.38 263.38,-191.62 316.38,-191.62 316.38,-166.38 263.38,-166.38"/>
<text text-anchor="start" x="270.38" y="-177.07" font-family="Times New Roman,serif" font-weight="bold" font-size="9.00">Technical</text>
<polygon fill="none" stroke="black" points="262.38,-165.38 262.38,-192.62 317.38,-192.62 317.38,-165.38 262.38,-165.38"/>
</g>
<!-- n_0_1_2_5&#45;&gt;n_5 -->
<g id="edge8" class="edge">
<title>n_0_1_2_5&#45;&gt;n_5</title>
<path fill="none" stroke="black" d="M277.61,-243.13C279.74,-232.17 282.26,-219.18 284.47,-207.84"/>
<polygon fill="black" stroke="black" points="287.86,-208.74 286.33,-198.26 280.99,-207.41 287.86,-208.74"/>
</g>
<!-- n_0_1 -->
<g id="node5" class="node">
<title>n_0_1</title>
<polygon fill="none" stroke="black" points="32.38,-84.38 32.38,-109.62 92.12,-109.62 92.12,-84.38 32.38,-84.38"/>
<text text-anchor="start" x="39.38" y="-95.08" font-family="Times New Roman,serif" font-weight="bold" font-size="9.00">Primary (P)</text>
<polygon fill="none" stroke="black" points="92.12,-84.38 92.12,-109.62 153.38,-109.62 153.38,-84.38 92.12,-84.38"/>
<text text-anchor="start" x="99.12" y="-95.08" font-family="Times New Roman,serif" font-weight="bold" font-size="9.00">Primary (G)</text>
<polygon fill="none" stroke="black" points="31.38,-83.38 31.38,-110.62 154.38,-110.62 154.38,-83.38 31.38,-83.38"/>
</g>
<!-- n_0_1_2&#45;&gt;n_0_1 -->
<g id="edge4" class="edge">
<title>n_0_1_2&#45;&gt;n_0_1</title>
<path fill="none" stroke="black" d="M143.31,-158.22C134.51,-147.71 123.58,-134.66 114.15,-123.41"/>
<polygon fill="black" stroke="black" points="117.06,-121.42 107.95,-116 111.69,-125.92 117.06,-121.42"/>
</g>
<!-- n_2 -->
<g id="node8" class="node">
<title>n_2</title>
<polygon fill="none" stroke="black" points="200.75,-84.38 200.75,-109.62 253,-109.62 253,-84.38 200.75,-84.38"/>
<text text-anchor="start" x="207.75" y="-95.08" font-family="Times New Roman,serif" font-weight="bold" font-size="9.00">Preschool</text>
<polygon fill="none" stroke="black" points="199.75,-83.38 199.75,-110.62 254,-110.62 254,-83.38 199.75,-83.38"/>
</g>
<!-- n_0_1_2&#45;&gt;n_2 -->
<g id="edge7" class="edge">
<title>n_0_1_2&#45;&gt;n_2</title>
<path fill="none" stroke="black" d="M176.44,-158.22C185.24,-147.71 196.17,-134.66 205.6,-123.41"/>
<polygon fill="black" stroke="black" points="208.06,-125.92 211.8,-116 202.69,-121.42 208.06,-125.92"/>
</g>
<!-- n_0 -->
<g id="node6" class="node">
<title>n_0</title>
<polygon fill="none" stroke="black" points="9,-5.38 9,-30.62 68.75,-30.62 68.75,-5.38 9,-5.38"/>
<text text-anchor="start" x="16" y="-16.07" font-family="Times New Roman,serif" font-weight="bold" font-size="9.00">Primary (P)</text>
<polygon fill="none" stroke="black" points="8,-4.38 8,-31.62 69.75,-31.62 69.75,-4.38 8,-4.38"/>
</g>
<!-- n_0_1&#45;&gt;n_0 -->
<g id="edge5" class="edge">
<title>n_0_1&#45;&gt;n_0</title>
<path fill="none" stroke="black" d="M81.16,-79.29C74.2,-69.37 65.22,-56.57 57.33,-45.32"/>
<polygon fill="black" stroke="black" points="60.23,-43.36 51.62,-37.18 54.5,-47.38 60.23,-43.36"/>
</g>
<!-- n_1 -->
<g id="node7" class="node">
<title>n_1</title>
<polygon fill="none" stroke="black" points="116.25,-5.38 116.25,-30.62 177.5,-30.62 177.5,-5.38 116.25,-5.38"/>
<text text-anchor="start" x="123.25" y="-16.07" font-family="Times New Roman,serif" font-weight="bold" font-size="9.00">Primary (G)</text>
<polygon fill="none" stroke="black" points="115.25,-4.38 115.25,-31.62 178.5,-31.62 178.5,-4.38 115.25,-4.38"/>
</g>
<!-- n_0_1&#45;&gt;n_1 -->
<g id="edge6" class="edge">
<title>n_0_1&#45;&gt;n_1</title>
<path fill="none" stroke="black" d="M104.59,-79.29C111.55,-69.37 120.53,-56.57 128.42,-45.32"/>
<polygon fill="black" stroke="black" points="131.25,-47.38 134.13,-37.18 125.52,-43.36 131.25,-47.38"/>
</g>
<!-- n_3 -->
<g id="node11" class="node">
<title>n_3</title>
<polygon fill="none" stroke="black" points="396.5,-166.38 396.5,-191.62 465.25,-191.62 465.25,-166.38 396.5,-166.38"/>
<text text-anchor="start" x="403.5" y="-177.07" font-family="Times New Roman,serif" font-weight="bold" font-size="9.00">Secondary (P)</text>
<polygon fill="none" stroke="black" points="395.5,-165.38 395.5,-192.62 466.25,-192.62 466.25,-165.38 395.5,-165.38"/>
</g>
<!-- n_3_4&#45;&gt;n_3 -->
<g id="edge10" class="edge">
<title>n_3_4&#45;&gt;n_3</title>
<path fill="none" stroke="black" d="M443.79,-250.63C441.58,-238.52 438.54,-221.94 435.97,-207.88"/>
<polygon fill="black" stroke="black" points="439.46,-207.52 434.22,-198.31 432.58,-208.77 439.46,-207.52"/>
</g>
<!-- n_4 -->
<g id="node12" class="node">
<title>n_4</title>
<polygon fill="none" stroke="black" points="512.75,-166.38 512.75,-191.62 583,-191.62 583,-166.38 512.75,-166.38"/>
<text text-anchor="start" x="519.75" y="-177.07" font-family="Times New Roman,serif" font-weight="bold" font-size="9.00">Secondary (G)</text>
<polygon fill="none" stroke="black" points="511.75,-165.38 511.75,-192.62 584,-192.62 584,-165.38 511.75,-165.38"/>
</g>
<!-- n_3_4&#45;&gt;n_4 -->
<g id="edge11" class="edge">
<title>n_3_4&#45;&gt;n_4</title>
<path fill="none" stroke="black" d="M466.35,-250.63C481.58,-237.43 502.96,-218.92 520,-204.15"/>
<polygon fill="black" stroke="black" points="522.05,-207 527.32,-197.81 517.47,-201.71 522.05,-207"/>
</g>
</g>
</svg>
