<?xml version="1.0" encoding="UTF-8" standalone="no"?>
<!DOCTYPE svg PUBLIC "-//W3C//DTD SVG 1.1//EN"
 "http://www.w3.org/Graphics/SVG/1.1/DTD/svg11.dtd">
<!-- Generated by graphviz version 10.0.1 (20240210.2158)
 -->
<!-- Title: ND Pages: 1 -->
<svg width="551pt" height="535pt"
 viewBox="0.00 0.00 550.50 535.00" xmlns="http://www.w3.org/2000/svg" xmlns:xlink="http://www.w3.org/1999/xlink">
<g id="graph0" class="graph" transform="scale(1 1) rotate(0) translate(4 531)">
<title>ND</title>
<polygon fill="white" stroke="none" points="-4,4 -4,-531 546.5,-531 546.5,4 -4,4"/>
<!-- n_0_1_2_3_4_5_6 -->
<g id="node1" class="node">
<title>n_0_1_2_3_4_5_6</title>
<polygon fill="none" stroke="black" points="355.62,-454 355.62,-522 425.88,-522 425.88,-454 355.62,-454"/>
<text text-anchor="start" x="367.88" y="-507.45" font-family="Times New Roman,serif" font-weight="bold" font-size="9.00">Primary (P)</text>
<text text-anchor="start" x="367.12" y="-498.45" font-family="Times New Roman,serif" font-weight="bold" font-size="9.00">Primary (G)</text>
<text text-anchor="start" x="371.62" y="-489.45" font-family="Times New Roman,serif" font-weight="bold" font-size="9.00">Preschool</text>
<text text-anchor="start" x="362.62" y="-480.45" font-family="Times New Roman,serif" font-weight="bold" font-size="9.00">Secondary (G)</text>
<text text-anchor="start" x="371.25" y="-471.45" font-family="Times New Roman,serif" font-weight="bold" font-size="9.00">Technical</text>
<text text-anchor="start" x="370.5" y="-462.45" font-family="Times New Roman,serif" font-weight="bold" font-size="9.00">University</text>
<polygon fill="none" stroke="black" points="425.88,-454 425.88,-522 494.62,-522 494.62,-454 425.88,-454"/>
<text text-anchor="start" x="432.88" y="-486.07" font-family="Times New Roman,serif" font-weight="bold" font-size="9.00">Secondary (P)</text>
<polygon fill="none" stroke="black" points="354.62,-453 354.62,-523 495.62,-523 495.62,-453 354.62,-453"/>
</g>
<!-- n_0_1_2_4_5_6 -->
<g id="node2" class="node">
<title>n_0_1_2_4_5_6</title>
<polygon fill="none" stroke="black" points="286.38,-342 286.38,-401 347.62,-401 347.62,-342 286.38,-342"/>
<text text-anchor="start" x="294.12" y="-386.45" font-family="Times New Roman,serif" font-weight="bold" font-size="9.00">Primary (P)</text>
<text text-anchor="start" x="293.38" y="-377.45" font-family="Times New Roman,serif" font-weight="bold" font-size="9.00">Primary (G)</text>
<text text-anchor="start" x="297.88" y="-368.45" font-family="Times New Roman,serif" font-weight="bold" font-size="9.00">Preschool</text>
<text text-anchor="start" x="297.5" y="-359.45" font-family="Times New Roman,serif" font-weight="bold" font-size="9.00">Technical</text>
<text text-anchor="start" x="296.75" y="-350.45" font-family="Times New Roman,serif" font-weight="bold" font-size="9.00">University</text>
<polygon fill="none" stroke="black" points="347.62,-342 347.62,-401 417.88,-401 417.88,-342 347.62,-342"/>
<text text-anchor="start" x="354.62" y="-369.57" font-family="Times New Roman,serif" font-weight="bold" font-size="9.00">Secondary (G)</text>
<polygon fill="none" stroke="black" points="285.38,-341 285.38,-402 418.88,-402 418.88,-341 285.38,-341"/>
</g>
<!-- n_0_1_2_3_4_5_6&#45;&gt;n_0_1_2_4_5_6 -->
<g id="edge1" class="edge">
<title>n_0_1_2_3_4_5_6&#45;&gt;n_0_1_2_4_5_6</title>
<path fill="none" stroke="black" d="M401.02,-449.19C394.08,-438.31 386.47,-426.36 379.35,-415.21"/>
<polygon fill="black" stroke="black" points="382.4,-413.48 374.07,-406.93 376.5,-417.24 382.4,-413.48"/>
</g>
<!-- n_3 -->
<g id="node13" class="node">
<title>n_3</title>
<polygon fill="none" stroke="black" points="464.75,-358.88 464.75,-384.12 533.5,-384.12 533.5,-358.88 464.75,-358.88"/>
<text text-anchor="start" x="471.75" y="-369.57" font-family="Times New Roman,serif" font-weight="bold" font-size="9.00">Secondary (P)</text>
<polygon fill="none" stroke="black" points="463.75,-357.88 463.75,-385.12 534.5,-385.12 534.5,-357.88 463.75,-357.88"/>
</g>
<!-- n_0_1_2_3_4_5_6&#45;&gt;n_3 -->
<g id="edge12" class="edge">
<title>n_0_1_2_3_4_5_6&#45;&gt;n_3</title>
<path fill="none" stroke="black" d="M449.56,-449.19C460.16,-432.78 472.33,-413.96 481.95,-399.07"/>
<polygon fill="black" stroke="black" points="484.85,-401.03 487.34,-390.73 478.97,-397.23 484.85,-401.03"/>
</g>
<!-- n_0_1_2_5_6 -->
<g id="node3" class="node">
<title>n_0_1_2_5_6</title>
<polygon fill="none" stroke="black" points="220.62,-248 220.62,-289 280.38,-289 280.38,-248 220.62,-248"/>
<text text-anchor="start" x="227.62" y="-274.45" font-family="Times New Roman,serif" font-weight="bold" font-size="9.00">Primary (P)</text>
<text text-anchor="start" x="231.38" y="-265.45" font-family="Times New Roman,serif" font-weight="bold" font-size="9.00">Preschool</text>
<text text-anchor="start" x="231" y="-256.45" font-family="Times New Roman,serif" font-weight="bold" font-size="9.00">Technical</text>
<polygon fill="none" stroke="black" points="280.38,-248 280.38,-289 341.62,-289 341.62,-248 280.38,-248"/>
<text text-anchor="start" x="287.38" y="-269.95" font-family="Times New Roman,serif" font-weight="bold" font-size="9.00">Primary (G)</text>
<text text-anchor="start" x="290.75" y="-260.95" font-family="Times New Roman,serif" font-weight="bold" font-size="9.00">University</text>
<polygon fill="none" stroke="black" points="219.62,-247 219.62,-290 342.62,-290 342.62,-247 219.62,-247"/>
</g>
<!-- n_0_1_2_4_5_6&#45;&gt;n_0_1_2_5_6 -->
<g id="edge2" class="edge">
<title>n_0_1_2_4_5_6&#45;&gt;n_0_1_2_5_6</title>
<path fill="none" stroke="black" d="M328.68,-337.15C320.99,-326.22 312.45,-314.07 304.76,-303.12"/>
<polygon fill="black" stroke="black" points="307.73,-301.27 299.12,-295.1 302.01,-305.29 307.73,-301.27"/>
</g>
<!-- n_4 -->
<g id="node12" class="node">
<title>n_4</title>
<polygon fill="none" stroke="black" points="389,-255.88 389,-281.12 459.25,-281.12 459.25,-255.88 389,-255.88"/>
<text text-anchor="start" x="396" y="-266.57" font-family="Times New Roman,serif" font-weight="bold" font-size="9.00">Secondary (G)</text>
<polygon fill="none" stroke="black" points="388,-254.88 388,-282.12 460.25,-282.12 460.25,-254.88 388,-254.88"/>
</g>
<!-- n_0_1_2_4_5_6&#45;&gt;n_4 -->
<g id="edge11" class="edge">
<title>n_0_1_2_4_5_6&#45;&gt;n_4</title>
<path fill="none" stroke="black" d="M375.9,-337.15C385.56,-323.6 396.56,-308.17 405.61,-295.48"/>
<polygon fill="black" stroke="black" points="408.26,-297.79 411.21,-287.61 402.56,-293.72 408.26,-297.79"/>
</g>
<!-- n_0_2_5 -->
<g id="node4" class="node">
<title>n_0_2_5</title>
<polygon fill="none" stroke="black" points="144.75,-163 144.75,-195 197.75,-195 197.75,-163 144.75,-163"/>
<text text-anchor="start" x="152.12" y="-180.45" font-family="Times New Roman,serif" font-weight="bold" font-size="9.00">Preschool</text>
<text text-anchor="start" x="151.75" y="-171.45" font-family="Times New Roman,serif" font-weight="bold" font-size="9.00">Technical</text>
<polygon fill="none" stroke="black" points="197.75,-163 197.75,-195 257.5,-195 257.5,-163 197.75,-163"/>
<text text-anchor="start" x="204.75" y="-177.07" font-family="Times New Roman,serif" font-weight="bold" font-size="9.00">Primary (P)</text>
<polygon fill="none" stroke="black" points="143.75,-162 143.75,-196 258.5,-196 258.5,-162 143.75,-162"/>
</g>
<!-- n_0_1_2_5_6&#45;&gt;n_0_2_5 -->
<g id="edge3" class="edge">
<title>n_0_1_2_5_6&#45;&gt;n_0_2_5</title>
<path fill="none" stroke="black" d="M258.84,-243.13C248.89,-232.25 237.11,-219.36 226.8,-208.08"/>
<polygon fill="black" stroke="black" points="229.6,-205.96 220.27,-200.94 224.44,-210.69 229.6,-205.96"/>
</g>
<!-- n_1_6 -->
<g id="node9" class="node">
<title>n_1_6</title>
<polygon fill="none" stroke="black" points="304.25,-166.38 304.25,-191.62 365.5,-191.62 365.5,-166.38 304.25,-166.38"/>
<text text-anchor="start" x="311.25" y="-177.07" font-family="Times New Roman,serif" font-weight="bold" font-size="9.00">Primary (G)</text>
<polygon fill="none" stroke="black" points="365.5,-166.38 365.5,-191.62 420,-191.62 420,-166.38 365.5,-166.38"/>
<text text-anchor="start" x="372.5" y="-177.07" font-family="Times New Roman,serif" font-weight="bold" font-size="9.00">University</text>
<polygon fill="none" stroke="black" points="303.25,-165.38 303.25,-192.62 421,-192.62 421,-165.38 303.25,-165.38"/>
</g>
<!-- n_0_1_2_5_6&#45;&gt;n_1_6 -->
<g id="edge8" class="edge">
<title>n_0_1_2_5_6&#45;&gt;n_1_6</title>
<path fill="none" stroke="black" d="M303.69,-243.13C314.69,-231.24 327.9,-216.97 338.97,-205.01"/>
<polygon fill="black" stroke="black" points="341.35,-207.6 345.57,-197.88 336.21,-202.84 341.35,-207.6"/>
</g>
<!-- n_2_5 -->
<g id="node5" class="node">
<title>n_2_5</title>
<polygon fill="none" stroke="black" points="32.5,-84.38 32.5,-109.62 84.75,-109.62 84.75,-84.38 32.5,-84.38"/>
<text text-anchor="start" x="39.5" y="-95.08" font-family="Times New Roman,serif" font-weight="bold" font-size="9.00">Preschool</text>
<polygon fill="none" stroke="black" points="84.75,-84.38 84.75,-109.62 137.75,-109.62 137.75,-84.38 84.75,-84.38"/>
<text text-anchor="start" x="91.75" y="-95.08" font-family="Times New Roman,serif" font-weight="bold" font-size="9.00">Technical</text>
<polygon fill="none" stroke="black" points="31.5,-83.38 31.5,-110.62 138.75,-110.62 138.75,-83.38 31.5,-83.38"/>
</g>
<!-- n_0_2_5&#45;&gt;n_2_5 -->
<g id="edge4" class="edge">
<title>n_0_2_5&#45;&gt;n_2_5</title>
<path fill="none" stroke="black" d="M172.15,-158.02C155.85,-146.77 135.41,-132.68 118.45,-120.98"/>
<polygon fill="black" stroke="black" points="120.89,-118.41 110.67,-115.62 116.92,-124.18 120.89,-118.41"/>
</g>
<!-- n_0 -->
<g id="node8" class="node">
<title>n_0</title>
<polygon fill="none" stroke="black" points="185.25,-84.38 185.25,-109.62 245,-109.62 245,-84.38 185.25,-84.38"/>
<text text-anchor="start" x="192.25" y="-95.08" font-family="Times New Roman,serif" font-weight="bold" font-size="9.00">Primary (P)</text>
<polygon fill="none" stroke="black" points="184.25,-83.38 184.25,-110.62 246,-110.62 246,-83.38 184.25,-83.38"/>
</g>
<!-- n_0_2_5&#45;&gt;n_0 -->
<g id="edge7" class="edge">
<title>n_0_2_5&#45;&gt;n_0</title>
<path fill="none" stroke="black" d="M204.59,-158.22C206.28,-148.54 208.35,-136.72 210.21,-126.11"/>
<polygon fill="black" stroke="black" points="213.64,-126.79 211.92,-116.33 206.74,-125.58 213.64,-126.79"/>
</g>
<!-- n_2 -->
<g id="node6" class="node">
<title>n_2</title>
<polygon fill="none" stroke="black" points="9,-5.38 9,-30.62 61.25,-30.62 61.25,-5.38 9,-5.38"/>
<text text-anchor="start" x="16" y="-16.07" font-family="Times New Roman,serif" font-weight="bold" font-size="9.00">Preschool</text>
<polygon fill="none" stroke="black" points="8,-4.38 8,-31.62 62.25,-31.62 62.25,-4.38 8,-4.38"/>
</g>
<!-- n_2_5&#45;&gt;n_2 -->
<g id="edge5" class="edge">
<title>n_2_5&#45;&gt;n_2</title>
<path fill="none" stroke="black" d="M74.28,-79.29C67.83,-69.37 59.52,-56.57 52.22,-45.32"/>
<polygon fill="black" stroke="black" points="55.33,-43.69 46.95,-37.21 49.46,-47.5 55.33,-43.69"/>
</g>
<!-- n_5 -->
<g id="node7" class="node">
<title>n_5</title>
<polygon fill="none" stroke="black" points="108.62,-5.38 108.62,-30.62 161.62,-30.62 161.62,-5.38 108.62,-5.38"/>
<text text-anchor="start" x="115.62" y="-16.07" font-family="Times New Roman,serif" font-weight="bold" font-size="9.00">Technical</text>
<polygon fill="none" stroke="black" points="107.62,-4.38 107.62,-31.62 162.62,-31.62 162.62,-4.38 107.62,-4.38"/>
</g>
<!-- n_2_5&#45;&gt;n_5 -->
<g id="edge6" class="edge">
<title>n_2_5&#45;&gt;n_5</title>
<path fill="none" stroke="black" d="M95.97,-79.29C102.42,-69.37 110.73,-56.57 118.03,-45.32"/>
<polygon fill="black" stroke="black" points="120.79,-47.5 123.3,-37.21 114.92,-43.69 120.79,-47.5"/>
</g>
<!-- n_1 -->
<g id="node10" class="node">
<title>n_1</title>
<polygon fill="none" stroke="black" points="318.5,-84.38 318.5,-109.62 379.75,-109.62 379.75,-84.38 318.5,-84.38"/>
<text text-anchor="start" x="325.5" y="-95.08" font-family="Times New Roman,serif" font-weight="bold" font-size="9.00">Primary (G)</text>
<polygon fill="none" stroke="black" points="317.5,-83.38 317.5,-110.62 380.75,-110.62 380.75,-83.38 317.5,-83.38"/>
</g>
<!-- n_1_6&#45;&gt;n_1 -->
<g id="edge9" class="edge">
<title>n_1_6&#45;&gt;n_1</title>
<path fill="none" stroke="black" d="M359.37,-161.03C357.71,-150.85 355.57,-137.65 353.67,-125.96"/>
<polygon fill="black" stroke="black" points="357.18,-125.74 352.12,-116.44 350.27,-126.87 357.18,-125.74"/>
</g>
<!-- n_6 -->
<g id="node11" class="node">
<title>n_6</title>
<polygon fill="none" stroke="black" points="426.88,-84.38 426.88,-109.62 481.38,-109.62 481.38,-84.38 426.88,-84.38"/>
<text text-anchor="start" x="433.88" y="-95.08" font-family="Times New Roman,serif" font-weight="bold" font-size="9.00">University</text>
<polygon fill="none" stroke="black" points="425.88,-83.38 425.88,-110.62 482.38,-110.62 482.38,-83.38 425.88,-83.38"/>
</g>
<!-- n_1_6&#45;&gt;n_6 -->
<g id="edge10" class="edge">
<title>n_1_6&#45;&gt;n_6</title>
<path fill="none" stroke="black" d="M381.64,-161.03C394.57,-149.79 411.73,-134.87 426.11,-122.36"/>
<polygon fill="black" stroke="black" points="428.25,-125.14 433.5,-115.93 423.66,-119.86 428.25,-125.14"/>
</g>
</g>
</svg>
