<?xml version="1.0" encoding="UTF-8" standalone="no"?>
<!DOCTYPE svg PUBLIC "-//W3C//DTD SVG 1.1//EN"
 "http://www.w3.org/Graphics/SVG/1.1/DTD/svg11.dtd">
<!-- Generated by graphviz version 10.0.1 (20240210.2158)
 -->
<!-- Title: ND Pages: 1 -->
<svg width="562pt" height="638pt"
 viewBox="0.00 0.00 562.25 638.00" xmlns="http://www.w3.org/2000/svg" xmlns:xlink="http://www.w3.org/1999/xlink">
<g id="graph0" class="graph" transform="scale(1 1) rotate(0) translate(4 634)">
<title>ND</title>
<polygon fill="white" stroke="none" points="-4,4 -4,-634 558.25,-634 558.25,4 -4,4"/>
<!-- n_0_1_2_3_4_5_6 -->
<g id="node1" class="node">
<title>n_0_1_2_3_4_5_6</title>
<polygon fill="none" stroke="black" points="389.88,-557 389.88,-625 460.12,-625 460.12,-557 389.88,-557"/>
<text text-anchor="start" x="402.12" y="-610.45" font-family="Times New Roman,serif" font-weight="bold" font-size="9.00">Primary (P)</text>
<text text-anchor="start" x="401.38" y="-601.45" font-family="Times New Roman,serif" font-weight="bold" font-size="9.00">Primary (G)</text>
<text text-anchor="start" x="397.62" y="-592.45" font-family="Times New Roman,serif" font-weight="bold" font-size="9.00">Secondary (P)</text>
<text text-anchor="start" x="396.88" y="-583.45" font-family="Times New Roman,serif" font-weight="bold" font-size="9.00">Secondary (G)</text>
<text text-anchor="start" x="405.5" y="-574.45" font-family="Times New Roman,serif" font-weight="bold" font-size="9.00">Technical</text>
<text text-anchor="start" x="404.75" y="-565.45" font-family="Times New Roman,serif" font-weight="bold" font-size="9.00">University</text>
<polygon fill="none" stroke="black" points="460.12,-557 460.12,-625 512.38,-625 512.38,-557 460.12,-557"/>
<text text-anchor="start" x="467.12" y="-589.08" font-family="Times New Roman,serif" font-weight="bold" font-size="9.00">Preschool</text>
<polygon fill="none" stroke="black" points="388.88,-556 388.88,-626 513.38,-626 513.38,-556 388.88,-556"/>
</g>
<!-- n_0_1_3_4_5_6 -->
<g id="node2" class="node">
<title>n_0_1_3_4_5_6</title>
<polygon fill="none" stroke="black" points="320.75,-445 320.75,-504 391,-504 391,-445 320.75,-445"/>
<text text-anchor="start" x="333" y="-489.45" font-family="Times New Roman,serif" font-weight="bold" font-size="9.00">Primary (P)</text>
<text text-anchor="start" x="332.25" y="-480.45" font-family="Times New Roman,serif" font-weight="bold" font-size="9.00">Primary (G)</text>
<text text-anchor="start" x="328.5" y="-471.45" font-family="Times New Roman,serif" font-weight="bold" font-size="9.00">Secondary (P)</text>
<text text-anchor="start" x="327.75" y="-462.45" font-family="Times New Roman,serif" font-weight="bold" font-size="9.00">Secondary (G)</text>
<text text-anchor="start" x="336.38" y="-453.45" font-family="Times New Roman,serif" font-weight="bold" font-size="9.00">Technical</text>
<polygon fill="none" stroke="black" points="391,-445 391,-504 445.5,-504 445.5,-445 391,-445"/>
<text text-anchor="start" x="398" y="-472.57" font-family="Times New Roman,serif" font-weight="bold" font-size="9.00">University</text>
<polygon fill="none" stroke="black" points="319.75,-444 319.75,-505 446.5,-505 446.5,-444 319.75,-444"/>
</g>
<!-- n_0_1_2_3_4_5_6&#45;&gt;n_0_1_3_4_5_6 -->
<g id="edge1" class="edge">
<title>n_0_1_2_3_4_5_6&#45;&gt;n_0_1_3_4_5_6</title>
<path fill="none" stroke="black" d="M428.67,-552.19C422.27,-541.42 415.26,-529.6 408.69,-518.54"/>
<polygon fill="black" stroke="black" points="411.7,-516.76 403.59,-509.95 405.68,-520.34 411.7,-516.76"/>
</g>
<!-- n_2 -->
<g id="node13" class="node">
<title>n_2</title>
<polygon fill="none" stroke="black" points="493,-461.88 493,-487.12 545.25,-487.12 545.25,-461.88 493,-461.88"/>
<text text-anchor="start" x="500" y="-472.57" font-family="Times New Roman,serif" font-weight="bold" font-size="9.00">Preschool</text>
<polygon fill="none" stroke="black" points="492,-460.88 492,-488.12 546.25,-488.12 546.25,-460.88 492,-460.88"/>
</g>
<!-- n_0_1_2_3_4_5_6&#45;&gt;n_2 -->
<g id="edge12" class="edge">
<title>n_0_1_2_3_4_5_6&#45;&gt;n_2</title>
<path fill="none" stroke="black" d="M473.58,-552.19C483.32,-535.78 494.5,-516.96 503.35,-502.07"/>
<polygon fill="black" stroke="black" points="506.18,-504.15 508.28,-493.76 500.16,-500.58 506.18,-504.15"/>
</g>
<!-- n_0_1_3_4_5 -->
<g id="node3" class="node">
<title>n_0_1_3_4_5</title>
<polygon fill="none" stroke="black" points="241.62,-342 241.62,-392 311.88,-392 311.88,-342 241.62,-342"/>
<text text-anchor="start" x="253.88" y="-377.45" font-family="Times New Roman,serif" font-weight="bold" font-size="9.00">Primary (P)</text>
<text text-anchor="start" x="253.12" y="-368.45" font-family="Times New Roman,serif" font-weight="bold" font-size="9.00">Primary (G)</text>
<text text-anchor="start" x="248.62" y="-359.45" font-family="Times New Roman,serif" font-weight="bold" font-size="9.00">Secondary (G)</text>
<text text-anchor="start" x="257.25" y="-350.45" font-family="Times New Roman,serif" font-weight="bold" font-size="9.00">Technical</text>
<polygon fill="none" stroke="black" points="311.88,-342 311.88,-392 380.62,-392 380.62,-342 311.88,-342"/>
<text text-anchor="start" x="318.88" y="-365.07" font-family="Times New Roman,serif" font-weight="bold" font-size="9.00">Secondary (P)</text>
<polygon fill="none" stroke="black" points="240.62,-341 240.62,-393 381.62,-393 381.62,-341 240.62,-341"/>
</g>
<!-- n_0_1_3_4_5_6&#45;&gt;n_0_1_3_4_5 -->
<g id="edge2" class="edge">
<title>n_0_1_3_4_5_6&#45;&gt;n_0_1_3_4_5</title>
<path fill="none" stroke="black" d="M360.34,-440.12C353.01,-429.38 344.84,-417.4 337.29,-406.33"/>
<polygon fill="black" stroke="black" points="340.23,-404.44 331.7,-398.15 334.45,-408.38 340.23,-404.44"/>
</g>
<!-- n_6 -->
<g id="node12" class="node">
<title>n_6</title>
<polygon fill="none" stroke="black" points="427.88,-354.38 427.88,-379.62 482.38,-379.62 482.38,-354.38 427.88,-354.38"/>
<text text-anchor="start" x="434.88" y="-365.07" font-family="Times New Roman,serif" font-weight="bold" font-size="9.00">University</text>
<polygon fill="none" stroke="black" points="426.88,-353.38 426.88,-380.62 483.38,-380.62 483.38,-353.38 426.88,-353.38"/>
</g>
<!-- n_0_1_3_4_5_6&#45;&gt;n_6 -->
<g id="edge11" class="edge">
<title>n_0_1_3_4_5_6&#45;&gt;n_6</title>
<path fill="none" stroke="black" d="M405.91,-440.12C415.98,-425.35 427.67,-408.23 437.12,-394.38"/>
<polygon fill="black" stroke="black" points="439.96,-396.43 442.7,-386.2 434.18,-392.49 439.96,-396.43"/>
</g>
<!-- n_0_1_4_5 -->
<g id="node4" class="node">
<title>n_0_1_4_5</title>
<polygon fill="none" stroke="black" points="172.38,-248 172.38,-289 242.62,-289 242.62,-248 172.38,-248"/>
<text text-anchor="start" x="184.62" y="-274.45" font-family="Times New Roman,serif" font-weight="bold" font-size="9.00">Primary (P)</text>
<text text-anchor="start" x="179.38" y="-265.45" font-family="Times New Roman,serif" font-weight="bold" font-size="9.00">Secondary (G)</text>
<text text-anchor="start" x="188" y="-256.45" font-family="Times New Roman,serif" font-weight="bold" font-size="9.00">Technical</text>
<polygon fill="none" stroke="black" points="242.62,-248 242.62,-289 303.88,-289 303.88,-248 242.62,-248"/>
<text text-anchor="start" x="249.62" y="-266.57" font-family="Times New Roman,serif" font-weight="bold" font-size="9.00">Primary (G)</text>
<polygon fill="none" stroke="black" points="171.38,-247 171.38,-290 304.88,-290 304.88,-247 171.38,-247"/>
</g>
<!-- n_0_1_3_4_5&#45;&gt;n_0_1_4_5 -->
<g id="edge3" class="edge">
<title>n_0_1_3_4_5&#45;&gt;n_0_1_4_5</title>
<path fill="none" stroke="black" d="M289.22,-337.05C281.09,-326.29 271.79,-314 263.38,-302.88"/>
<polygon fill="black" stroke="black" points="266.3,-300.95 257.48,-295.08 260.72,-305.17 266.3,-300.95"/>
</g>
<!-- n_3 -->
<g id="node11" class="node">
<title>n_3</title>
<polygon fill="none" stroke="black" points="350.75,-255.88 350.75,-281.12 419.5,-281.12 419.5,-255.88 350.75,-255.88"/>
<text text-anchor="start" x="357.75" y="-266.57" font-family="Times New Roman,serif" font-weight="bold" font-size="9.00">Secondary (P)</text>
<polygon fill="none" stroke="black" points="349.75,-254.88 349.75,-282.12 420.5,-282.12 420.5,-254.88 349.75,-254.88"/>
</g>
<!-- n_0_1_3_4_5&#45;&gt;n_3 -->
<g id="edge10" class="edge">
<title>n_0_1_3_4_5&#45;&gt;n_3</title>
<path fill="none" stroke="black" d="M333.33,-337.05C343.54,-323.73 355.54,-308.07 365.43,-295.19"/>
<polygon fill="black" stroke="black" points="367.96,-297.63 371.27,-287.57 362.41,-293.37 367.96,-297.63"/>
</g>
<!-- n_0_4_5 -->
<g id="node5" class="node">
<title>n_0_4_5</title>
<polygon fill="none" stroke="black" points="102.12,-163 102.12,-195 172.38,-195 172.38,-163 102.12,-163"/>
<text text-anchor="start" x="109.12" y="-180.45" font-family="Times New Roman,serif" font-weight="bold" font-size="9.00">Secondary (G)</text>
<text text-anchor="start" x="117.75" y="-171.45" font-family="Times New Roman,serif" font-weight="bold" font-size="9.00">Technical</text>
<polygon fill="none" stroke="black" points="172.38,-163 172.38,-195 232.12,-195 232.12,-163 172.38,-163"/>
<text text-anchor="start" x="179.38" y="-177.07" font-family="Times New Roman,serif" font-weight="bold" font-size="9.00">Primary (P)</text>
<polygon fill="none" stroke="black" points="101.12,-162 101.12,-196 233.12,-196 233.12,-162 101.12,-162"/>
</g>
<!-- n_0_1_4_5&#45;&gt;n_0_4_5 -->
<g id="edge4" class="edge">
<title>n_0_1_4_5&#45;&gt;n_0_4_5</title>
<path fill="none" stroke="black" d="M218.35,-243.13C209.69,-232.46 199.47,-219.87 190.45,-208.75"/>
<polygon fill="black" stroke="black" points="193.18,-206.56 184.17,-201 187.75,-210.97 193.18,-206.56"/>
</g>
<!-- n_1 -->
<g id="node10" class="node">
<title>n_1</title>
<polygon fill="none" stroke="black" points="279.5,-166.38 279.5,-191.62 340.75,-191.62 340.75,-166.38 279.5,-166.38"/>
<text text-anchor="start" x="286.5" y="-177.07" font-family="Times New Roman,serif" font-weight="bold" font-size="9.00">Primary (G)</text>
<polygon fill="none" stroke="black" points="278.5,-165.38 278.5,-192.62 341.75,-192.62 341.75,-165.38 278.5,-165.38"/>
</g>
<!-- n_0_1_4_5&#45;&gt;n_1 -->
<g id="edge9" class="edge">
<title>n_0_1_4_5&#45;&gt;n_1</title>
<path fill="none" stroke="black" d="M258.18,-243.13C267.86,-231.36 279.47,-217.25 289.26,-205.36"/>
<polygon fill="black" stroke="black" points="291.71,-207.89 295.36,-197.94 286.31,-203.44 291.71,-207.89"/>
</g>
<!-- n_4_5 -->
<g id="node6" class="node">
<title>n_4_5</title>
<polygon fill="none" stroke="black" points="36.5,-84.38 36.5,-109.62 106.75,-109.62 106.75,-84.38 36.5,-84.38"/>
<text text-anchor="start" x="43.5" y="-95.08" font-family="Times New Roman,serif" font-weight="bold" font-size="9.00">Secondary (G)</text>
<polygon fill="none" stroke="black" points="106.75,-84.38 106.75,-109.62 159.75,-109.62 159.75,-84.38 106.75,-84.38"/>
<text text-anchor="start" x="113.75" y="-95.08" font-family="Times New Roman,serif" font-weight="bold" font-size="9.00">Technical</text>
<polygon fill="none" stroke="black" points="35.5,-83.38 35.5,-110.62 160.75,-110.62 160.75,-83.38 35.5,-83.38"/>
</g>
<!-- n_0_4_5&#45;&gt;n_4_5 -->
<g id="edge5" class="edge">
<title>n_0_4_5&#45;&gt;n_4_5</title>
<path fill="none" stroke="black" d="M150.07,-158.22C141,-147.71 129.75,-134.66 120.04,-123.41"/>
<polygon fill="black" stroke="black" points="122.82,-121.28 113.64,-115.99 117.52,-125.85 122.82,-121.28"/>
</g>
<!-- n_0 -->
<g id="node9" class="node">
<title>n_0</title>
<polygon fill="none" stroke="black" points="207.25,-84.38 207.25,-109.62 267,-109.62 267,-84.38 207.25,-84.38"/>
<text text-anchor="start" x="214.25" y="-95.08" font-family="Times New Roman,serif" font-weight="bold" font-size="9.00">Primary (P)</text>
<polygon fill="none" stroke="black" points="206.25,-83.38 206.25,-110.62 268,-110.62 268,-83.38 206.25,-83.38"/>
</g>
<!-- n_0_4_5&#45;&gt;n_0 -->
<g id="edge8" class="edge">
<title>n_0_4_5&#45;&gt;n_0</title>
<path fill="none" stroke="black" d="M184.43,-158.22C193.63,-147.71 205.04,-134.66 214.89,-123.41"/>
<polygon fill="black" stroke="black" points="217.44,-125.81 221.39,-115.98 212.17,-121.2 217.44,-125.81"/>
</g>
<!-- n_4 -->
<g id="node7" class="node">
<title>n_4</title>
<polygon fill="none" stroke="black" points="9,-5.38 9,-30.62 79.25,-30.62 79.25,-5.38 9,-5.38"/>
<text text-anchor="start" x="16" y="-16.07" font-family="Times New Roman,serif" font-weight="bold" font-size="9.00">Secondary (G)</text>
<polygon fill="none" stroke="black" points="8,-4.38 8,-31.62 80.25,-31.62 80.25,-4.38 8,-4.38"/>
</g>
<!-- n_4_5&#45;&gt;n_4 -->
<g id="edge6" class="edge">
<title>n_4_5&#45;&gt;n_4</title>
<path fill="none" stroke="black" d="M86.41,-79.29C79.45,-69.37 70.47,-56.57 62.58,-45.32"/>
<polygon fill="black" stroke="black" points="65.48,-43.36 56.87,-37.18 59.75,-47.38 65.48,-43.36"/>
</g>
<!-- n_5 -->
<g id="node8" class="node">
<title>n_5</title>
<polygon fill="none" stroke="black" points="126.62,-5.38 126.62,-30.62 179.62,-30.62 179.62,-5.38 126.62,-5.38"/>
<text text-anchor="start" x="133.62" y="-16.07" font-family="Times New Roman,serif" font-weight="bold" font-size="9.00">Technical</text>
<polygon fill="none" stroke="black" points="125.62,-4.38 125.62,-31.62 180.62,-31.62 180.62,-4.38 125.62,-4.38"/>
</g>
<!-- n_4_5&#45;&gt;n_5 -->
<g id="edge7" class="edge">
<title>n_4_5&#45;&gt;n_5</title>
<path fill="none" stroke="black" d="M110.06,-79.29C117.22,-69.27 126.47,-56.31 134.57,-44.98"/>
<polygon fill="black" stroke="black" points="137.18,-47.34 140.14,-37.17 131.48,-43.28 137.18,-47.34"/>
</g>
</g>
</svg>
