<?xml version="1.0" encoding="UTF-8" standalone="no"?>
<!DOCTYPE svg PUBLIC "-//W3C//DTD SVG 1.1//EN"
 "http://www.w3.org/Graphics/SVG/1.1/DTD/svg11.dtd">
<!-- Generated by graphviz version 10.0.1 (20240210.2158)
 -->
<!-- Title: ND Pages: 1 -->
<svg width="555pt" height="638pt"
 viewBox="0.00 0.00 555.12 638.00" xmlns="http://www.w3.org/2000/svg" xmlns:xlink="http://www.w3.org/1999/xlink">
<g id="graph0" class="graph" transform="scale(1 1) rotate(0) translate(4 634)">
<title>ND</title>
<polygon fill="white" stroke="none" points="-4,4 -4,-634 551.12,-634 551.12,4 -4,4"/>
<!-- n_0_1_2_3_4_5_6 -->
<g id="node1" class="node">
<title>n_0_1_2_3_4_5_6</title>
<polygon fill="none" stroke="black" points="378.5,-557 378.5,-625 448.75,-625 448.75,-557 378.5,-557"/>
<text text-anchor="start" x="390.75" y="-610.45" font-family="Times New Roman,serif" font-weight="bold" font-size="9.00">Primary (P)</text>
<text text-anchor="start" x="390" y="-601.45" font-family="Times New Roman,serif" font-weight="bold" font-size="9.00">Primary (G)</text>
<text text-anchor="start" x="394.5" y="-592.45" font-family="Times New Roman,serif" font-weight="bold" font-size="9.00">Preschool</text>
<text text-anchor="start" x="386.25" y="-583.45" font-family="Times New Roman,serif" font-weight="bold" font-size="9.00">Secondary (P)</text>
<text text-anchor="start" x="385.5" y="-574.45" font-family="Times New Roman,serif" font-weight="bold" font-size="9.00">Secondary (G)</text>
<text text-anchor="start" x="394.12" y="-565.45" font-family="Times New Roman,serif" font-weight="bold" font-size="9.00">Technical</text>
<polygon fill="none" stroke="black" points="448.75,-557 448.75,-625 503.25,-625 503.25,-557 448.75,-557"/>
<text text-anchor="start" x="455.75" y="-589.08" font-family="Times New Roman,serif" font-weight="bold" font-size="9.00">University</text>
<polygon fill="none" stroke="black" points="377.5,-556 377.5,-626 504.25,-626 504.25,-556 377.5,-556"/>
</g>
<!-- n_0_1_2_3_4_5 -->
<g id="node2" class="node">
<title>n_0_1_2_3_4_5</title>
<polygon fill="none" stroke="black" points="305.12,-445 305.12,-504 375.38,-504 375.38,-445 305.12,-445"/>
<text text-anchor="start" x="317.38" y="-489.45" font-family="Times New Roman,serif" font-weight="bold" font-size="9.00">Primary (P)</text>
<text text-anchor="start" x="321.12" y="-480.45" font-family="Times New Roman,serif" font-weight="bold" font-size="9.00">Preschool</text>
<text text-anchor="start" x="312.88" y="-471.45" font-family="Times New Roman,serif" font-weight="bold" font-size="9.00">Secondary (P)</text>
<text text-anchor="start" x="312.12" y="-462.45" font-family="Times New Roman,serif" font-weight="bold" font-size="9.00">Secondary (G)</text>
<text text-anchor="start" x="320.75" y="-453.45" font-family="Times New Roman,serif" font-weight="bold" font-size="9.00">Technical</text>
<polygon fill="none" stroke="black" points="375.38,-445 375.38,-504 436.62,-504 436.62,-445 375.38,-445"/>
<text text-anchor="start" x="382.38" y="-472.57" font-family="Times New Roman,serif" font-weight="bold" font-size="9.00">Primary (G)</text>
<polygon fill="none" stroke="black" points="304.12,-444 304.12,-505 437.62,-505 437.62,-444 304.12,-444"/>
</g>
<!-- n_0_1_2_3_4_5_6&#45;&gt;n_0_1_2_3_4_5 -->
<g id="edge1" class="edge">
<title>n_0_1_2_3_4_5_6&#45;&gt;n_0_1_2_3_4_5</title>
<path fill="none" stroke="black" d="M417.76,-552.19C411.11,-541.31 403.8,-529.36 396.98,-518.21"/>
<polygon fill="black" stroke="black" points="400.13,-516.65 391.93,-509.94 394.16,-520.3 400.13,-516.65"/>
</g>
<!-- n_6 -->
<g id="node13" class="node">
<title>n_6</title>
<polygon fill="none" stroke="black" points="483.62,-461.88 483.62,-487.12 538.12,-487.12 538.12,-461.88 483.62,-461.88"/>
<text text-anchor="start" x="490.62" y="-472.57" font-family="Times New Roman,serif" font-weight="bold" font-size="9.00">University</text>
<polygon fill="none" stroke="black" points="482.62,-460.88 482.62,-488.12 539.12,-488.12 539.12,-460.88 482.62,-460.88"/>
</g>
<!-- n_0_1_2_3_4_5_6&#45;&gt;n_6 -->
<g id="edge12" class="edge">
<title>n_0_1_2_3_4_5_6&#45;&gt;n_6</title>
<path fill="none" stroke="black" d="M463.99,-552.19C474.02,-535.78 485.53,-516.96 494.63,-502.07"/>
<polygon fill="black" stroke="black" points="497.49,-504.11 499.72,-493.75 491.51,-500.46 497.49,-504.11"/>
</g>
<!-- n_0_2_3_4_5 -->
<g id="node3" class="node">
<title>n_0_2_3_4_5</title>
<polygon fill="none" stroke="black" points="228.38,-342 228.38,-392 297.12,-392 297.12,-342 228.38,-342"/>
<text text-anchor="start" x="239.88" y="-377.45" font-family="Times New Roman,serif" font-weight="bold" font-size="9.00">Primary (P)</text>
<text text-anchor="start" x="243.62" y="-368.45" font-family="Times New Roman,serif" font-weight="bold" font-size="9.00">Preschool</text>
<text text-anchor="start" x="235.38" y="-359.45" font-family="Times New Roman,serif" font-weight="bold" font-size="9.00">Secondary (P)</text>
<text text-anchor="start" x="243.25" y="-350.45" font-family="Times New Roman,serif" font-weight="bold" font-size="9.00">Technical</text>
<polygon fill="none" stroke="black" points="297.12,-342 297.12,-392 367.38,-392 367.38,-342 297.12,-342"/>
<text text-anchor="start" x="304.12" y="-365.07" font-family="Times New Roman,serif" font-weight="bold" font-size="9.00">Secondary (G)</text>
<polygon fill="none" stroke="black" points="227.38,-341 227.38,-393 368.38,-393 368.38,-341 227.38,-341"/>
</g>
<!-- n_0_1_2_3_4_5&#45;&gt;n_0_2_3_4_5 -->
<g id="edge2" class="edge">
<title>n_0_1_2_3_4_5&#45;&gt;n_0_2_3_4_5</title>
<path fill="none" stroke="black" d="M347.78,-440.12C340.35,-429.38 332.06,-417.4 324.4,-406.33"/>
<polygon fill="black" stroke="black" points="327.3,-404.37 318.73,-398.14 321.54,-408.36 327.3,-404.37"/>
</g>
<!-- n_1 -->
<g id="node12" class="node">
<title>n_1</title>
<polygon fill="none" stroke="black" points="414.25,-354.38 414.25,-379.62 475.5,-379.62 475.5,-354.38 414.25,-354.38"/>
<text text-anchor="start" x="421.25" y="-365.07" font-family="Times New Roman,serif" font-weight="bold" font-size="9.00">Primary (G)</text>
<polygon fill="none" stroke="black" points="413.25,-353.38 413.25,-380.62 476.5,-380.62 476.5,-353.38 413.25,-353.38"/>
</g>
<!-- n_0_1_2_3_4_5&#45;&gt;n_1 -->
<g id="edge11" class="edge">
<title>n_0_1_2_3_4_5&#45;&gt;n_1</title>
<path fill="none" stroke="black" d="M394.29,-440.12C404.75,-425.21 416.89,-407.9 426.65,-393.98"/>
<polygon fill="black" stroke="black" points="429.24,-396.39 432.12,-386.19 423.51,-392.37 429.24,-396.39"/>
</g>
<!-- n_0_2_3_5 -->
<g id="node4" class="node">
<title>n_0_2_3_5</title>
<polygon fill="none" stroke="black" points="166.38,-248 166.38,-289 235.12,-289 235.12,-248 166.38,-248"/>
<text text-anchor="start" x="177.88" y="-274.45" font-family="Times New Roman,serif" font-weight="bold" font-size="9.00">Primary (P)</text>
<text text-anchor="start" x="173.38" y="-265.45" font-family="Times New Roman,serif" font-weight="bold" font-size="9.00">Secondary (P)</text>
<text text-anchor="start" x="181.25" y="-256.45" font-family="Times New Roman,serif" font-weight="bold" font-size="9.00">Technical</text>
<polygon fill="none" stroke="black" points="235.12,-248 235.12,-289 287.38,-289 287.38,-248 235.12,-248"/>
<text text-anchor="start" x="242.12" y="-266.57" font-family="Times New Roman,serif" font-weight="bold" font-size="9.00">Preschool</text>
<polygon fill="none" stroke="black" points="165.38,-247 165.38,-290 288.38,-290 288.38,-247 165.38,-247"/>
</g>
<!-- n_0_2_3_4_5&#45;&gt;n_0_2_3_5 -->
<g id="edge3" class="edge">
<title>n_0_2_3_4_5&#45;&gt;n_0_2_3_5</title>
<path fill="none" stroke="black" d="M276.57,-337.05C268.66,-326.29 259.62,-314 251.44,-302.88"/>
<polygon fill="black" stroke="black" points="254.45,-301.07 245.71,-295.09 248.81,-305.22 254.45,-301.07"/>
</g>
<!-- n_4 -->
<g id="node11" class="node">
<title>n_4</title>
<polygon fill="none" stroke="black" points="334.75,-255.88 334.75,-281.12 405,-281.12 405,-255.88 334.75,-255.88"/>
<text text-anchor="start" x="341.75" y="-266.57" font-family="Times New Roman,serif" font-weight="bold" font-size="9.00">Secondary (G)</text>
<polygon fill="none" stroke="black" points="333.75,-254.88 333.75,-282.12 406,-282.12 406,-254.88 333.75,-254.88"/>
</g>
<!-- n_0_2_3_4_5&#45;&gt;n_4 -->
<g id="edge10" class="edge">
<title>n_0_2_3_4_5&#45;&gt;n_4</title>
<path fill="none" stroke="black" d="M319.48,-337.05C329.31,-323.86 340.87,-308.38 350.43,-295.56"/>
<polygon fill="black" stroke="black" points="353.21,-297.69 356.39,-287.58 347.6,-293.5 353.21,-297.69"/>
</g>
<!-- n_0_3_5 -->
<g id="node5" class="node">
<title>n_0_3_5</title>
<polygon fill="none" stroke="black" points="94.62,-163 94.62,-195 154.38,-195 154.38,-163 94.62,-163"/>
<text text-anchor="start" x="101.62" y="-180.45" font-family="Times New Roman,serif" font-weight="bold" font-size="9.00">Primary (P)</text>
<text text-anchor="start" x="105" y="-171.45" font-family="Times New Roman,serif" font-weight="bold" font-size="9.00">Technical</text>
<polygon fill="none" stroke="black" points="154.38,-163 154.38,-195 223.12,-195 223.12,-163 154.38,-163"/>
<text text-anchor="start" x="161.38" y="-177.07" font-family="Times New Roman,serif" font-weight="bold" font-size="9.00">Secondary (P)</text>
<polygon fill="none" stroke="black" points="93.62,-162 93.62,-196 224.12,-196 224.12,-162 93.62,-162"/>
</g>
<!-- n_0_2_3_5&#45;&gt;n_0_3_5 -->
<g id="edge4" class="edge">
<title>n_0_2_3_5&#45;&gt;n_0_3_5</title>
<path fill="none" stroke="black" d="M207.93,-243.13C199.64,-232.46 189.86,-219.87 181.22,-208.75"/>
<polygon fill="black" stroke="black" points="184.11,-206.77 175.21,-201.02 178.58,-211.06 184.11,-206.77"/>
</g>
<!-- n_2 -->
<g id="node10" class="node">
<title>n_2</title>
<polygon fill="none" stroke="black" points="269.75,-166.38 269.75,-191.62 322,-191.62 322,-166.38 269.75,-166.38"/>
<text text-anchor="start" x="276.75" y="-177.07" font-family="Times New Roman,serif" font-weight="bold" font-size="9.00">Preschool</text>
<polygon fill="none" stroke="black" points="268.75,-165.38 268.75,-192.62 323,-192.62 323,-165.38 268.75,-165.38"/>
</g>
<!-- n_0_2_3_5&#45;&gt;n_2 -->
<g id="edge9" class="edge">
<title>n_0_2_3_5&#45;&gt;n_2</title>
<path fill="none" stroke="black" d="M246.1,-243.13C255.28,-231.48 266.28,-217.53 275.6,-205.71"/>
<polygon fill="black" stroke="black" points="278.27,-207.98 281.71,-197.96 272.77,-203.64 278.27,-207.98"/>
</g>
<!-- n_0_5 -->
<g id="node6" class="node">
<title>n_0_5</title>
<polygon fill="none" stroke="black" points="33.5,-84.38 33.5,-109.62 93.25,-109.62 93.25,-84.38 33.5,-84.38"/>
<text text-anchor="start" x="40.5" y="-95.08" font-family="Times New Roman,serif" font-weight="bold" font-size="9.00">Primary (P)</text>
<polygon fill="none" stroke="black" points="93.25,-84.38 93.25,-109.62 146.25,-109.62 146.25,-84.38 93.25,-84.38"/>
<text text-anchor="start" x="100.25" y="-95.08" font-family="Times New Roman,serif" font-weight="bold" font-size="9.00">Technical</text>
<polygon fill="none" stroke="black" points="32.5,-83.38 32.5,-110.62 147.25,-110.62 147.25,-83.38 32.5,-83.38"/>
</g>
<!-- n_0_3_5&#45;&gt;n_0_5 -->
<g id="edge5" class="edge">
<title>n_0_3_5&#45;&gt;n_0_5</title>
<path fill="none" stroke="black" d="M141.82,-158.22C132.75,-147.71 121.5,-134.66 111.79,-123.41"/>
<polygon fill="black" stroke="black" points="114.57,-121.28 105.39,-115.99 109.27,-125.85 114.57,-121.28"/>
</g>
<!-- n_3 -->
<g id="node9" class="node">
<title>n_3</title>
<polygon fill="none" stroke="black" points="193.5,-84.38 193.5,-109.62 262.25,-109.62 262.25,-84.38 193.5,-84.38"/>
<text text-anchor="start" x="200.5" y="-95.08" font-family="Times New Roman,serif" font-weight="bold" font-size="9.00">Secondary (P)</text>
<polygon fill="none" stroke="black" points="192.5,-83.38 192.5,-110.62 263.25,-110.62 263.25,-83.38 192.5,-83.38"/>
</g>
<!-- n_0_3_5&#45;&gt;n_3 -->
<g id="edge8" class="edge">
<title>n_0_3_5&#45;&gt;n_3</title>
<path fill="none" stroke="black" d="M175.93,-158.22C185,-147.71 196.25,-134.66 205.96,-123.41"/>
<polygon fill="black" stroke="black" points="208.48,-125.85 212.36,-115.99 203.18,-121.28 208.48,-125.85"/>
</g>
<!-- n_0 -->
<g id="node7" class="node">
<title>n_0</title>
<polygon fill="none" stroke="black" points="9,-5.38 9,-30.62 68.75,-30.62 68.75,-5.38 9,-5.38"/>
<text text-anchor="start" x="16" y="-16.07" font-family="Times New Roman,serif" font-weight="bold" font-size="9.00">Primary (P)</text>
<polygon fill="none" stroke="black" points="8,-4.38 8,-31.62 69.75,-31.62 69.75,-4.38 8,-4.38"/>
</g>
<!-- n_0_5&#45;&gt;n_0 -->
<g id="edge6" class="edge">
<title>n_0_5&#45;&gt;n_0</title>
<path fill="none" stroke="black" d="M78.81,-79.29C72.24,-69.37 63.76,-56.57 56.31,-45.32"/>
<polygon fill="black" stroke="black" points="59.37,-43.61 50.93,-37.2 53.54,-47.47 59.37,-43.61"/>
</g>
<!-- n_5 -->
<g id="node8" class="node">
<title>n_5</title>
<polygon fill="none" stroke="black" points="115.38,-5.38 115.38,-30.62 168.38,-30.62 168.38,-5.38 115.38,-5.38"/>
<text text-anchor="start" x="122.38" y="-16.07" font-family="Times New Roman,serif" font-weight="bold" font-size="9.00">Technical</text>
<polygon fill="none" stroke="black" points="114.38,-4.38 114.38,-31.62 169.38,-31.62 169.38,-4.38 114.38,-4.38"/>
</g>
<!-- n_0_5&#45;&gt;n_5 -->
<g id="edge7" class="edge">
<title>n_0_5&#45;&gt;n_5</title>
<path fill="none" stroke="black" d="M101.16,-79.29C107.86,-69.37 116.5,-56.57 124.1,-45.32"/>
<polygon fill="black" stroke="black" points="126.89,-47.44 129.59,-37.2 121.09,-43.52 126.89,-47.44"/>
</g>
</g>
</svg>
