<?xml version="1.0" encoding="UTF-8" standalone="no"?>
<!DOCTYPE svg PUBLIC "-//W3C//DTD SVG 1.1//EN"
 "http://www.w3.org/Graphics/SVG/1.1/DTD/svg11.dtd">
<!-- Generated by graphviz version 10.0.1 (20240210.2158)
 -->
<!-- Title: ND Pages: 1 -->
<svg width="660pt" height="517pt"
 viewBox="0.00 0.00 660.38 517.00" xmlns="http://www.w3.org/2000/svg" xmlns:xlink="http://www.w3.org/1999/xlink">
<g id="graph0" class="graph" transform="scale(1 1) rotate(0) translate(4 513)">
<title>ND</title>
<polygon fill="white" stroke="none" points="-4,4 -4,-513 656.38,-513 656.38,4 -4,4"/>
<!-- n_0_1_2_3_4_5_6 -->
<g id="node1" class="node">
<title>n_0_1_2_3_4_5_6</title>
<polygon fill="none" stroke="black" points="365.38,-445 365.38,-504 434.12,-504 434.12,-445 365.38,-445"/>
<text text-anchor="start" x="376.88" y="-489.45" font-family="Times New Roman,serif" font-weight="bold" font-size="9.00">Primary (P)</text>
<text text-anchor="start" x="376.12" y="-480.45" font-family="Times New Roman,serif" font-weight="bold" font-size="9.00">Primary (G)</text>
<text text-anchor="start" x="380.62" y="-471.45" font-family="Times New Roman,serif" font-weight="bold" font-size="9.00">Preschool</text>
<text text-anchor="start" x="372.38" y="-462.45" font-family="Times New Roman,serif" font-weight="bold" font-size="9.00">Secondary (P)</text>
<text text-anchor="start" x="379.5" y="-453.45" font-family="Times New Roman,serif" font-weight="bold" font-size="9.00">University</text>
<polygon fill="none" stroke="black" points="434.12,-445 434.12,-504 504.38,-504 504.38,-445 434.12,-445"/>
<text text-anchor="start" x="441.12" y="-475.95" font-family="Times New Roman,serif" font-weight="bold" font-size="9.00">Secondary (G)</text>
<text text-anchor="start" x="449.75" y="-466.95" font-family="Times New Roman,serif" font-weight="bold" font-size="9.00">Technical</text>
<polygon fill="none" stroke="black" points="364.38,-444 364.38,-505 505.38,-505 505.38,-444 364.38,-444"/>
</g>
<!-- n_0_1_2_3_6 -->
<g id="node2" class="node">
<title>n_0_1_2_3_6</title>
<polygon fill="none" stroke="black" points="282.88,-342 282.88,-392 344.12,-392 344.12,-342 282.88,-342"/>
<text text-anchor="start" x="290.62" y="-377.45" font-family="Times New Roman,serif" font-weight="bold" font-size="9.00">Primary (P)</text>
<text text-anchor="start" x="289.88" y="-368.45" font-family="Times New Roman,serif" font-weight="bold" font-size="9.00">Primary (G)</text>
<text text-anchor="start" x="294.38" y="-359.45" font-family="Times New Roman,serif" font-weight="bold" font-size="9.00">Preschool</text>
<text text-anchor="start" x="293.25" y="-350.45" font-family="Times New Roman,serif" font-weight="bold" font-size="9.00">University</text>
<polygon fill="none" stroke="black" points="344.12,-342 344.12,-392 412.88,-392 412.88,-342 344.12,-342"/>
<text text-anchor="start" x="351.12" y="-365.07" font-family="Times New Roman,serif" font-weight="bold" font-size="9.00">Secondary (P)</text>
<polygon fill="none" stroke="black" points="281.88,-341 281.88,-393 413.88,-393 413.88,-341 281.88,-341"/>
</g>
<!-- n_0_1_2_3_4_5_6&#45;&gt;n_0_1_2_3_6 -->
<g id="edge1" class="edge">
<title>n_0_1_2_3_4_5_6&#45;&gt;n_0_1_2_3_6</title>
<path fill="none" stroke="black" d="M407.35,-440.12C398.31,-429.16 388.21,-416.91 378.93,-405.66"/>
<polygon fill="black" stroke="black" points="381.73,-403.55 372.67,-398.07 376.33,-408.01 381.73,-403.55"/>
</g>
<!-- n_4_5 -->
<g id="node11" class="node">
<title>n_4_5</title>
<polygon fill="none" stroke="black" points="460.25,-354.38 460.25,-379.62 530.5,-379.62 530.5,-354.38 460.25,-354.38"/>
<text text-anchor="start" x="467.25" y="-365.07" font-family="Times New Roman,serif" font-weight="bold" font-size="9.00">Secondary (G)</text>
<polygon fill="none" stroke="black" points="530.5,-354.38 530.5,-379.62 583.5,-379.62 583.5,-354.38 530.5,-354.38"/>
<text text-anchor="start" x="537.5" y="-365.07" font-family="Times New Roman,serif" font-weight="bold" font-size="9.00">Technical</text>
<polygon fill="none" stroke="black" points="459.25,-353.38 459.25,-380.62 584.5,-380.62 584.5,-353.38 459.25,-353.38"/>
</g>
<!-- n_0_1_2_3_4_5_6&#45;&gt;n_4_5 -->
<g id="edge10" class="edge">
<title>n_0_1_2_3_4_5_6&#45;&gt;n_4_5</title>
<path fill="none" stroke="black" d="M462.4,-440.12C474.82,-425.06 489.25,-407.57 500.78,-393.58"/>
<polygon fill="black" stroke="black" points="503.27,-396.06 506.93,-386.12 497.87,-391.61 503.27,-396.06"/>
</g>
<!-- n_0_1_2_6 -->
<g id="node3" class="node">
<title>n_0_1_2_6</title>
<polygon fill="none" stroke="black" points="166,-248 166,-289 227.25,-289 227.25,-248 166,-248"/>
<text text-anchor="start" x="173.75" y="-274.45" font-family="Times New Roman,serif" font-weight="bold" font-size="9.00">Primary (P)</text>
<text text-anchor="start" x="173" y="-265.45" font-family="Times New Roman,serif" font-weight="bold" font-size="9.00">Primary (G)</text>
<text text-anchor="start" x="177.5" y="-256.45" font-family="Times New Roman,serif" font-weight="bold" font-size="9.00">Preschool</text>
<polygon fill="none" stroke="black" points="227.25,-248 227.25,-289 281.75,-289 281.75,-248 227.25,-248"/>
<text text-anchor="start" x="234.25" y="-266.57" font-family="Times New Roman,serif" font-weight="bold" font-size="9.00">University</text>
<polygon fill="none" stroke="black" points="165,-247 165,-290 282.75,-290 282.75,-247 165,-247"/>
</g>
<!-- n_0_1_2_3_6&#45;&gt;n_0_1_2_6 -->
<g id="edge2" class="edge">
<title>n_0_1_2_3_6&#45;&gt;n_0_1_2_6</title>
<path fill="none" stroke="black" d="M310.67,-337.05C296.02,-325.65 279.16,-312.52 264.21,-300.89"/>
<polygon fill="black" stroke="black" points="266.43,-298.18 256.39,-294.8 262.13,-303.71 266.43,-298.18"/>
</g>
<!-- n_3 -->
<g id="node10" class="node">
<title>n_3</title>
<polygon fill="none" stroke="black" points="328.5,-255.88 328.5,-281.12 397.25,-281.12 397.25,-255.88 328.5,-255.88"/>
<text text-anchor="start" x="335.5" y="-266.57" font-family="Times New Roman,serif" font-weight="bold" font-size="9.00">Secondary (P)</text>
<polygon fill="none" stroke="black" points="327.5,-254.88 327.5,-282.12 398.25,-282.12 398.25,-254.88 327.5,-254.88"/>
</g>
<!-- n_0_1_2_3_6&#45;&gt;n_3 -->
<g id="edge9" class="edge">
<title>n_0_1_2_3_6&#45;&gt;n_3</title>
<path fill="none" stroke="black" d="M352.38,-337.05C354.32,-324.51 356.6,-309.89 358.53,-297.47"/>
<polygon fill="black" stroke="black" points="361.94,-298.28 360.02,-287.86 355.03,-297.21 361.94,-298.28"/>
</g>
<!-- n_0_1_2 -->
<g id="node4" class="node">
<title>n_0_1_2</title>
<polygon fill="none" stroke="black" points="96.38,-163 96.38,-195 156.12,-195 156.12,-163 96.38,-163"/>
<text text-anchor="start" x="103.38" y="-180.45" font-family="Times New Roman,serif" font-weight="bold" font-size="9.00">Primary (P)</text>
<text text-anchor="start" x="107.12" y="-171.45" font-family="Times New Roman,serif" font-weight="bold" font-size="9.00">Preschool</text>
<polygon fill="none" stroke="black" points="156.12,-163 156.12,-195 217.38,-195 217.38,-163 156.12,-163"/>
<text text-anchor="start" x="163.12" y="-177.07" font-family="Times New Roman,serif" font-weight="bold" font-size="9.00">Primary (G)</text>
<polygon fill="none" stroke="black" points="95.38,-162 95.38,-196 218.38,-196 218.38,-162 95.38,-162"/>
</g>
<!-- n_0_1_2_6&#45;&gt;n_0_1_2 -->
<g id="edge3" class="edge">
<title>n_0_1_2_6&#45;&gt;n_0_1_2</title>
<path fill="none" stroke="black" d="M205.21,-243.13C197.04,-232.46 187.4,-219.87 178.89,-208.75"/>
<polygon fill="black" stroke="black" points="181.83,-206.84 172.98,-201.03 176.28,-211.1 181.83,-206.84"/>
</g>
<!-- n_6 -->
<g id="node9" class="node">
<title>n_6</title>
<polygon fill="none" stroke="black" points="264.62,-166.38 264.62,-191.62 319.12,-191.62 319.12,-166.38 264.62,-166.38"/>
<text text-anchor="start" x="271.62" y="-177.07" font-family="Times New Roman,serif" font-weight="bold" font-size="9.00">University</text>
<polygon fill="none" stroke="black" points="263.62,-165.38 263.62,-192.62 320.12,-192.62 320.12,-165.38 263.62,-165.38"/>
</g>
<!-- n_0_1_2_6&#45;&gt;n_6 -->
<g id="edge8" class="edge">
<title>n_0_1_2_6&#45;&gt;n_6</title>
<path fill="none" stroke="black" d="M242.82,-243.13C251.87,-231.48 262.71,-217.53 271.9,-205.71"/>
<polygon fill="black" stroke="black" points="274.54,-208.01 277.91,-197.97 269.01,-203.71 274.54,-208.01"/>
</g>
<!-- n_0_2 -->
<g id="node5" class="node">
<title>n_0_2</title>
<polygon fill="none" stroke="black" points="33.88,-84.38 33.88,-109.62 93.62,-109.62 93.62,-84.38 33.88,-84.38"/>
<text text-anchor="start" x="40.88" y="-95.08" font-family="Times New Roman,serif" font-weight="bold" font-size="9.00">Primary (P)</text>
<polygon fill="none" stroke="black" points="93.62,-84.38 93.62,-109.62 145.88,-109.62 145.88,-84.38 93.62,-84.38"/>
<text text-anchor="start" x="100.62" y="-95.08" font-family="Times New Roman,serif" font-weight="bold" font-size="9.00">Preschool</text>
<polygon fill="none" stroke="black" points="32.88,-83.38 32.88,-110.62 146.88,-110.62 146.88,-83.38 32.88,-83.38"/>
</g>
<!-- n_0_1_2&#45;&gt;n_0_2 -->
<g id="edge4" class="edge">
<title>n_0_1_2&#45;&gt;n_0_2</title>
<path fill="none" stroke="black" d="M140.31,-158.22C131.51,-147.71 120.58,-134.66 111.15,-123.41"/>
<polygon fill="black" stroke="black" points="114.06,-121.42 104.95,-116 108.69,-125.92 114.06,-121.42"/>
</g>
<!-- n_1 -->
<g id="node8" class="node">
<title>n_1</title>
<polygon fill="none" stroke="black" points="193.25,-84.38 193.25,-109.62 254.5,-109.62 254.5,-84.38 193.25,-84.38"/>
<text text-anchor="start" x="200.25" y="-95.08" font-family="Times New Roman,serif" font-weight="bold" font-size="9.00">Primary (G)</text>
<polygon fill="none" stroke="black" points="192.25,-83.38 192.25,-110.62 255.5,-110.62 255.5,-83.38 192.25,-83.38"/>
</g>
<!-- n_0_1_2&#45;&gt;n_1 -->
<g id="edge7" class="edge">
<title>n_0_1_2&#45;&gt;n_1</title>
<path fill="none" stroke="black" d="M173.44,-158.22C182.24,-147.71 193.17,-134.66 202.6,-123.41"/>
<polygon fill="black" stroke="black" points="205.06,-125.92 208.8,-116 199.69,-121.42 205.06,-125.92"/>
</g>
<!-- n_0 -->
<g id="node6" class="node">
<title>n_0</title>
<polygon fill="none" stroke="black" points="9,-5.38 9,-30.62 68.75,-30.62 68.75,-5.38 9,-5.38"/>
<text text-anchor="start" x="16" y="-16.07" font-family="Times New Roman,serif" font-weight="bold" font-size="9.00">Primary (P)</text>
<polygon fill="none" stroke="black" points="8,-4.38 8,-31.62 69.75,-31.62 69.75,-4.38 8,-4.38"/>
</g>
<!-- n_0_2&#45;&gt;n_0 -->
<g id="edge5" class="edge">
<title>n_0_2&#45;&gt;n_0</title>
<path fill="none" stroke="black" d="M78.81,-79.29C72.24,-69.37 63.76,-56.57 56.31,-45.32"/>
<polygon fill="black" stroke="black" points="59.37,-43.61 50.93,-37.2 53.54,-47.47 59.37,-43.61"/>
</g>
<!-- n_2 -->
<g id="node7" class="node">
<title>n_2</title>
<polygon fill="none" stroke="black" points="115.75,-5.38 115.75,-30.62 168,-30.62 168,-5.38 115.75,-5.38"/>
<text text-anchor="start" x="122.75" y="-16.07" font-family="Times New Roman,serif" font-weight="bold" font-size="9.00">Preschool</text>
<polygon fill="none" stroke="black" points="114.75,-4.38 114.75,-31.62 169,-31.62 169,-4.38 114.75,-4.38"/>
</g>
<!-- n_0_2&#45;&gt;n_2 -->
<g id="edge6" class="edge">
<title>n_0_2&#45;&gt;n_2</title>
<path fill="none" stroke="black" d="M101.16,-79.29C107.86,-69.37 116.5,-56.57 124.1,-45.32"/>
<polygon fill="black" stroke="black" points="126.89,-47.44 129.59,-37.2 121.09,-43.52 126.89,-47.44"/>
</g>
<!-- n_4 -->
<g id="node12" class="node">
<title>n_4</title>
<polygon fill="none" stroke="black" points="472.75,-255.88 472.75,-281.12 543,-281.12 543,-255.88 472.75,-255.88"/>
<text text-anchor="start" x="479.75" y="-266.57" font-family="Times New Roman,serif" font-weight="bold" font-size="9.00">Secondary (G)</text>
<polygon fill="none" stroke="black" points="471.75,-254.88 471.75,-282.12 544,-282.12 544,-254.88 471.75,-254.88"/>
</g>
<!-- n_4_5&#45;&gt;n_4 -->
<g id="edge11" class="edge">
<title>n_4_5&#45;&gt;n_4</title>
<path fill="none" stroke="black" d="M519.44,-349.19C517.38,-335.03 514.4,-314.46 511.98,-297.76"/>
<polygon fill="black" stroke="black" points="515.45,-297.33 510.55,-287.94 508.52,-298.34 515.45,-297.33"/>
</g>
<!-- n_5 -->
<g id="node13" class="node">
<title>n_5</title>
<polygon fill="none" stroke="black" points="590.38,-255.88 590.38,-281.12 643.38,-281.12 643.38,-255.88 590.38,-255.88"/>
<text text-anchor="start" x="597.38" y="-266.57" font-family="Times New Roman,serif" font-weight="bold" font-size="9.00">Technical</text>
<polygon fill="none" stroke="black" points="589.38,-254.88 589.38,-282.12 644.38,-282.12 644.38,-254.88 589.38,-254.88"/>
</g>
<!-- n_4_5&#45;&gt;n_5 -->
<g id="edge12" class="edge">
<title>n_4_5&#45;&gt;n_5</title>
<path fill="none" stroke="black" d="M538.42,-349.19C553.32,-334.06 575.4,-311.63 592.35,-294.42"/>
<polygon fill="black" stroke="black" points="594.62,-297.1 599.14,-287.52 589.63,-292.19 594.62,-297.1"/>
</g>
</g>
</svg>
