<?xml version="1.0" encoding="UTF-8" standalone="no"?>
<!DOCTYPE svg PUBLIC "-//W3C//DTD SVG 1.1//EN"
 "http://www.w3.org/Graphics/SVG/1.1/DTD/svg11.dtd">
<!-- Generated by graphviz version 10.0.1 (20240210.2158)
 -->
<!-- Title: ND Pages: 1 -->
<svg width="554pt" height="423pt"
 viewBox="0.00 0.00 554.12 423.00" xmlns="http://www.w3.org/2000/svg" xmlns:xlink="http://www.w3.org/1999/xlink">
<g id="graph0" class="graph" transform="scale(1 1) rotate(0) translate(4 419)">
<title>ND</title>
<polygon fill="white" stroke="none" points="-4,4 -4,-419 550.12,-419 550.12,4 -4,4"/>
<!-- n_0_1_2_3_4_5_6 -->
<g id="node1" class="node">
<title>n_0_1_2_3_4_5_6</title>
<polygon fill="none" stroke="black" points="300.62,-342 300.62,-410 370.88,-410 370.88,-342 300.62,-342"/>
<text text-anchor="start" x="312.88" y="-395.45" font-family="Times New Roman,serif" font-weight="bold" font-size="9.00">Primary (P)</text>
<text text-anchor="start" x="312.12" y="-386.45" font-family="Times New Roman,serif" font-weight="bold" font-size="9.00">Primary (G)</text>
<text text-anchor="start" x="316.62" y="-377.45" font-family="Times New Roman,serif" font-weight="bold" font-size="9.00">Preschool</text>
<text text-anchor="start" x="308.38" y="-368.45" font-family="Times New Roman,serif" font-weight="bold" font-size="9.00">Secondary (P)</text>
<text text-anchor="start" x="307.62" y="-359.45" font-family="Times New Roman,serif" font-weight="bold" font-size="9.00">Secondary (G)</text>
<text text-anchor="start" x="316.25" y="-350.45" font-family="Times New Roman,serif" font-weight="bold" font-size="9.00">Technical</text>
<polygon fill="none" stroke="black" points="370.88,-342 370.88,-410 425.38,-410 425.38,-342 370.88,-342"/>
<text text-anchor="start" x="377.88" y="-374.07" font-family="Times New Roman,serif" font-weight="bold" font-size="9.00">University</text>
<polygon fill="none" stroke="black" points="299.62,-341 299.62,-411 426.38,-411 426.38,-341 299.62,-341"/>
</g>
<!-- n_0_1_2_3_4_5 -->
<g id="node2" class="node">
<title>n_0_1_2_3_4_5</title>
<polygon fill="none" stroke="black" points="221.5,-248 221.5,-289 290.25,-289 290.25,-248 221.5,-248"/>
<text text-anchor="start" x="233" y="-274.45" font-family="Times New Roman,serif" font-weight="bold" font-size="9.00">Primary (P)</text>
<text text-anchor="start" x="232.25" y="-265.45" font-family="Times New Roman,serif" font-weight="bold" font-size="9.00">Primary (G)</text>
<text text-anchor="start" x="228.5" y="-256.45" font-family="Times New Roman,serif" font-weight="bold" font-size="9.00">Secondary (P)</text>
<polygon fill="none" stroke="black" points="290.25,-248 290.25,-289 360.5,-289 360.5,-248 290.25,-248"/>
<text text-anchor="start" x="306.25" y="-274.45" font-family="Times New Roman,serif" font-weight="bold" font-size="9.00">Preschool</text>
<text text-anchor="start" x="297.25" y="-265.45" font-family="Times New Roman,serif" font-weight="bold" font-size="9.00">Secondary (G)</text>
<text text-anchor="start" x="305.88" y="-256.45" font-family="Times New Roman,serif" font-weight="bold" font-size="9.00">Technical</text>
<polygon fill="none" stroke="black" points="220.5,-247 220.5,-290 361.5,-290 361.5,-247 220.5,-247"/>
</g>
<!-- n_0_1_2_3_4_5_6&#45;&gt;n_0_1_2_3_4_5 -->
<g id="edge1" class="edge">
<title>n_0_1_2_3_4_5_6&#45;&gt;n_0_1_2_3_4_5</title>
<path fill="none" stroke="black" d="M337.21,-337.21C329.67,-326.16 321.48,-314.17 314.12,-303.38"/>
<polygon fill="black" stroke="black" points="317.02,-301.41 308.49,-295.13 311.23,-305.36 317.02,-301.41"/>
</g>
<!-- n_6 -->
<g id="node13" class="node">
<title>n_6</title>
<polygon fill="none" stroke="black" points="407.75,-255.88 407.75,-281.12 462.25,-281.12 462.25,-255.88 407.75,-255.88"/>
<text text-anchor="start" x="414.75" y="-266.57" font-family="Times New Roman,serif" font-weight="bold" font-size="9.00">University</text>
<polygon fill="none" stroke="black" points="406.75,-254.88 406.75,-282.12 463.25,-282.12 463.25,-254.88 406.75,-254.88"/>
</g>
<!-- n_0_1_2_3_4_5_6&#45;&gt;n_6 -->
<g id="edge12" class="edge">
<title>n_0_1_2_3_4_5_6&#45;&gt;n_6</title>
<path fill="none" stroke="black" d="M388.79,-337.21C398.15,-323.49 408.52,-308.31 417.05,-295.8"/>
<polygon fill="black" stroke="black" points="419.85,-297.9 422.6,-287.67 414.07,-293.96 419.85,-297.9"/>
</g>
<!-- n_0_1_3 -->
<g id="node3" class="node">
<title>n_0_1_3</title>
<polygon fill="none" stroke="black" points="140.75,-163 140.75,-195 209.5,-195 209.5,-163 140.75,-163"/>
<text text-anchor="start" x="151.5" y="-180.45" font-family="Times New Roman,serif" font-weight="bold" font-size="9.00">Primary (G)</text>
<text text-anchor="start" x="147.75" y="-171.45" font-family="Times New Roman,serif" font-weight="bold" font-size="9.00">Secondary (P)</text>
<polygon fill="none" stroke="black" points="209.5,-163 209.5,-195 269.25,-195 269.25,-163 209.5,-163"/>
<text text-anchor="start" x="216.5" y="-177.07" font-family="Times New Roman,serif" font-weight="bold" font-size="9.00">Primary (P)</text>
<polygon fill="none" stroke="black" points="139.75,-162 139.75,-196 270.25,-196 270.25,-162 139.75,-162"/>
</g>
<!-- n_0_1_2_3_4_5&#45;&gt;n_0_1_3 -->
<g id="edge2" class="edge">
<title>n_0_1_2_3_4_5&#45;&gt;n_0_1_3</title>
<path fill="none" stroke="black" d="M267.04,-243.13C256.25,-232.14 243.44,-219.11 232.27,-207.75"/>
<polygon fill="black" stroke="black" points="235.05,-205.58 225.55,-200.91 230.06,-210.49 235.05,-205.58"/>
</g>
<!-- n_2_4_5 -->
<g id="node8" class="node">
<title>n_2_4_5</title>
<polygon fill="none" stroke="black" points="316.38,-163 316.38,-195 369.38,-195 369.38,-163 316.38,-163"/>
<text text-anchor="start" x="323.75" y="-180.45" font-family="Times New Roman,serif" font-weight="bold" font-size="9.00">Preschool</text>
<text text-anchor="start" x="323.38" y="-171.45" font-family="Times New Roman,serif" font-weight="bold" font-size="9.00">Technical</text>
<polygon fill="none" stroke="black" points="369.38,-163 369.38,-195 439.62,-195 439.62,-163 369.38,-163"/>
<text text-anchor="start" x="376.38" y="-177.07" font-family="Times New Roman,serif" font-weight="bold" font-size="9.00">Secondary (G)</text>
<polygon fill="none" stroke="black" points="315.38,-162 315.38,-196 440.62,-196 440.62,-162 315.38,-162"/>
</g>
<!-- n_0_1_2_3_4_5&#45;&gt;n_2_4_5 -->
<g id="edge7" class="edge">
<title>n_0_1_2_3_4_5&#45;&gt;n_2_4_5</title>
<path fill="none" stroke="black" d="M315.23,-243.13C326.16,-232.14 339.11,-219.11 350.41,-207.75"/>
<polygon fill="black" stroke="black" points="352.65,-210.46 357.22,-200.9 347.69,-205.52 352.65,-210.46"/>
</g>
<!-- n_1_3 -->
<g id="node4" class="node">
<title>n_1_3</title>
<polygon fill="none" stroke="black" points="9,-84.38 9,-109.62 70.25,-109.62 70.25,-84.38 9,-84.38"/>
<text text-anchor="start" x="16" y="-95.08" font-family="Times New Roman,serif" font-weight="bold" font-size="9.00">Primary (G)</text>
<polygon fill="none" stroke="black" points="70.25,-84.38 70.25,-109.62 139,-109.62 139,-84.38 70.25,-84.38"/>
<text text-anchor="start" x="77.25" y="-95.08" font-family="Times New Roman,serif" font-weight="bold" font-size="9.00">Secondary (P)</text>
<polygon fill="none" stroke="black" points="8,-83.38 8,-110.62 140,-110.62 140,-83.38 8,-83.38"/>
</g>
<!-- n_0_1_3&#45;&gt;n_1_3 -->
<g id="edge3" class="edge">
<title>n_0_1_3&#45;&gt;n_1_3</title>
<path fill="none" stroke="black" d="M172.28,-158.02C153.7,-146.67 130.36,-132.42 111.1,-120.66"/>
<polygon fill="black" stroke="black" points="113.09,-117.77 102.73,-115.55 109.44,-123.75 113.09,-117.77"/>
</g>
<!-- n_0 -->
<g id="node7" class="node">
<title>n_0</title>
<polygon fill="none" stroke="black" points="186.12,-84.38 186.12,-109.62 245.88,-109.62 245.88,-84.38 186.12,-84.38"/>
<text text-anchor="start" x="193.12" y="-95.08" font-family="Times New Roman,serif" font-weight="bold" font-size="9.00">Primary (P)</text>
<polygon fill="none" stroke="black" points="185.12,-83.38 185.12,-110.62 246.88,-110.62 246.88,-83.38 185.12,-83.38"/>
</g>
<!-- n_0_1_3&#45;&gt;n_0 -->
<g id="edge6" class="edge">
<title>n_0_1_3&#45;&gt;n_0</title>
<path fill="none" stroke="black" d="M207.72,-158.22C209.05,-148.54 210.68,-136.72 212.13,-126.11"/>
<polygon fill="black" stroke="black" points="215.58,-126.73 213.48,-116.34 208.65,-125.77 215.58,-126.73"/>
</g>
<!-- n_1 -->
<g id="node5" class="node">
<title>n_1</title>
<polygon fill="none" stroke="black" points="19.38,-5.38 19.38,-30.62 80.62,-30.62 80.62,-5.38 19.38,-5.38"/>
<text text-anchor="start" x="26.38" y="-16.07" font-family="Times New Roman,serif" font-weight="bold" font-size="9.00">Primary (G)</text>
<polygon fill="none" stroke="black" points="18.38,-4.38 18.38,-31.62 81.62,-31.62 81.62,-4.38 18.38,-4.38"/>
</g>
<!-- n_1_3&#45;&gt;n_1 -->
<g id="edge4" class="edge">
<title>n_1_3&#45;&gt;n_1</title>
<path fill="none" stroke="black" d="M68.79,-79.29C65.83,-69.77 62.03,-57.6 58.63,-46.69"/>
<polygon fill="black" stroke="black" points="62.05,-45.89 55.73,-37.39 55.37,-47.97 62.05,-45.89"/>
</g>
<!-- n_3 -->
<g id="node6" class="node">
<title>n_3</title>
<polygon fill="none" stroke="black" points="127.62,-5.38 127.62,-30.62 196.38,-30.62 196.38,-5.38 127.62,-5.38"/>
<text text-anchor="start" x="134.62" y="-16.07" font-family="Times New Roman,serif" font-weight="bold" font-size="9.00">Secondary (P)</text>
<polygon fill="none" stroke="black" points="126.62,-4.38 126.62,-31.62 197.38,-31.62 197.38,-4.38 126.62,-4.38"/>
</g>
<!-- n_1_3&#45;&gt;n_3 -->
<g id="edge5" class="edge">
<title>n_1_3&#45;&gt;n_3</title>
<path fill="none" stroke="black" d="M93.09,-79.29C105.12,-68.77 120.85,-55.01 134.24,-43.29"/>
<polygon fill="black" stroke="black" points="136.28,-46.16 141.5,-36.94 131.67,-40.89 136.28,-46.16"/>
</g>
<!-- n_2_5 -->
<g id="node9" class="node">
<title>n_2_5</title>
<polygon fill="none" stroke="black" points="314.38,-84.38 314.38,-109.62 366.62,-109.62 366.62,-84.38 314.38,-84.38"/>
<text text-anchor="start" x="321.38" y="-95.08" font-family="Times New Roman,serif" font-weight="bold" font-size="9.00">Preschool</text>
<polygon fill="none" stroke="black" points="366.62,-84.38 366.62,-109.62 419.62,-109.62 419.62,-84.38 366.62,-84.38"/>
<text text-anchor="start" x="373.62" y="-95.08" font-family="Times New Roman,serif" font-weight="bold" font-size="9.00">Technical</text>
<polygon fill="none" stroke="black" points="313.38,-83.38 313.38,-110.62 420.62,-110.62 420.62,-83.38 313.38,-83.38"/>
</g>
<!-- n_2_4_5&#45;&gt;n_2_5 -->
<g id="edge8" class="edge">
<title>n_2_4_5&#45;&gt;n_2_5</title>
<path fill="none" stroke="black" d="M375.28,-158.22C373.95,-148.54 372.32,-136.72 370.87,-126.11"/>
<polygon fill="black" stroke="black" points="374.35,-125.77 369.52,-116.34 367.42,-126.73 374.35,-125.77"/>
</g>
<!-- n_4 -->
<g id="node12" class="node">
<title>n_4</title>
<polygon fill="none" stroke="black" points="466.88,-84.38 466.88,-109.62 537.12,-109.62 537.12,-84.38 466.88,-84.38"/>
<text text-anchor="start" x="473.88" y="-95.08" font-family="Times New Roman,serif" font-weight="bold" font-size="9.00">Secondary (G)</text>
<polygon fill="none" stroke="black" points="465.88,-83.38 465.88,-110.62 538.12,-110.62 538.12,-83.38 465.88,-83.38"/>
</g>
<!-- n_2_4_5&#45;&gt;n_4 -->
<g id="edge11" class="edge">
<title>n_2_4_5&#45;&gt;n_4</title>
<path fill="none" stroke="black" d="M408.97,-158.02C426.4,-146.77 448.24,-132.68 466.38,-120.98"/>
<polygon fill="black" stroke="black" points="468.25,-123.94 474.75,-115.58 464.45,-118.06 468.25,-123.94"/>
</g>
<!-- n_2 -->
<g id="node10" class="node">
<title>n_2</title>
<polygon fill="none" stroke="black" points="281.88,-5.38 281.88,-30.62 334.12,-30.62 334.12,-5.38 281.88,-5.38"/>
<text text-anchor="start" x="288.88" y="-16.07" font-family="Times New Roman,serif" font-weight="bold" font-size="9.00">Preschool</text>
<polygon fill="none" stroke="black" points="280.88,-4.38 280.88,-31.62 335.12,-31.62 335.12,-4.38 280.88,-4.38"/>
</g>
<!-- n_2_5&#45;&gt;n_2 -->
<g id="edge9" class="edge">
<title>n_2_5&#45;&gt;n_2</title>
<path fill="none" stroke="black" d="M354.2,-79.29C346.52,-69.27 336.59,-56.31 327.91,-44.98"/>
<polygon fill="black" stroke="black" points="330.76,-42.95 321.9,-37.14 325.21,-47.21 330.76,-42.95"/>
</g>
<!-- n_5 -->
<g id="node11" class="node">
<title>n_5</title>
<polygon fill="none" stroke="black" points="381.5,-5.38 381.5,-30.62 434.5,-30.62 434.5,-5.38 381.5,-5.38"/>
<text text-anchor="start" x="388.5" y="-16.07" font-family="Times New Roman,serif" font-weight="bold" font-size="9.00">Technical</text>
<polygon fill="none" stroke="black" points="380.5,-4.38 380.5,-31.62 435.5,-31.62 435.5,-4.38 380.5,-4.38"/>
</g>
<!-- n_2_5&#45;&gt;n_5 -->
<g id="edge10" class="edge">
<title>n_2_5&#45;&gt;n_5</title>
<path fill="none" stroke="black" d="M375.9,-79.29C381.07,-69.57 387.72,-57.09 393.62,-46"/>
<polygon fill="black" stroke="black" points="396.66,-47.75 398.27,-37.28 390.48,-44.46 396.66,-47.75"/>
</g>
</g>
</svg>
