<?xml version="1.0" encoding="UTF-8" standalone="no"?>
<!DOCTYPE svg PUBLIC "-//W3C//DTD SVG 1.1//EN"
 "http://www.w3.org/Graphics/SVG/1.1/DTD/svg11.dtd">
<!-- Generated by graphviz version 10.0.1 (20240210.2158)
 -->
<!-- Title: ND Pages: 1 -->
<svg width="557pt" height="535pt"
 viewBox="0.00 0.00 557.25 535.00" xmlns="http://www.w3.org/2000/svg" xmlns:xlink="http://www.w3.org/1999/xlink">
<g id="graph0" class="graph" transform="scale(1 1) rotate(0) translate(4 531)">
<title>ND</title>
<polygon fill="white" stroke="none" points="-4,4 -4,-531 553.25,-531 553.25,4 -4,4"/>
<!-- n_0_1_2_3_4_5_6 -->
<g id="node1" class="node">
<title>n_0_1_2_3_4_5_6</title>
<polygon fill="none" stroke="black" points="362.38,-454 362.38,-522 432.62,-522 432.62,-454 362.38,-454"/>
<text text-anchor="start" x="374.62" y="-507.45" font-family="Times New Roman,serif" font-weight="bold" font-size="9.00">Primary (P)</text>
<text text-anchor="start" x="373.88" y="-498.45" font-family="Times New Roman,serif" font-weight="bold" font-size="9.00">Primary (G)</text>
<text text-anchor="start" x="378.38" y="-489.45" font-family="Times New Roman,serif" font-weight="bold" font-size="9.00">Preschool</text>
<text text-anchor="start" x="369.38" y="-480.45" font-family="Times New Roman,serif" font-weight="bold" font-size="9.00">Secondary (G)</text>
<text text-anchor="start" x="378" y="-471.45" font-family="Times New Roman,serif" font-weight="bold" font-size="9.00">Technical</text>
<text text-anchor="start" x="377.25" y="-462.45" font-family="Times New Roman,serif" font-weight="bold" font-size="9.00">University</text>
<polygon fill="none" stroke="black" points="432.62,-454 432.62,-522 501.38,-522 501.38,-454 432.62,-454"/>
<text text-anchor="start" x="439.62" y="-486.07" font-family="Times New Roman,serif" font-weight="bold" font-size="9.00">Secondary (P)</text>
<polygon fill="none" stroke="black" points="361.38,-453 361.38,-523 502.38,-523 502.38,-453 361.38,-453"/>
</g>
<!-- n_0_1_2_4_5_6 -->
<g id="node2" class="node">
<title>n_0_1_2_4_5_6</title>
<polygon fill="none" stroke="black" points="293.12,-342 293.12,-401 354.38,-401 354.38,-342 293.12,-342"/>
<text text-anchor="start" x="300.88" y="-386.45" font-family="Times New Roman,serif" font-weight="bold" font-size="9.00">Primary (P)</text>
<text text-anchor="start" x="300.12" y="-377.45" font-family="Times New Roman,serif" font-weight="bold" font-size="9.00">Primary (G)</text>
<text text-anchor="start" x="304.62" y="-368.45" font-family="Times New Roman,serif" font-weight="bold" font-size="9.00">Preschool</text>
<text text-anchor="start" x="304.25" y="-359.45" font-family="Times New Roman,serif" font-weight="bold" font-size="9.00">Technical</text>
<text text-anchor="start" x="303.5" y="-350.45" font-family="Times New Roman,serif" font-weight="bold" font-size="9.00">University</text>
<polygon fill="none" stroke="black" points="354.38,-342 354.38,-401 424.62,-401 424.62,-342 354.38,-342"/>
<text text-anchor="start" x="361.38" y="-369.57" font-family="Times New Roman,serif" font-weight="bold" font-size="9.00">Secondary (G)</text>
<polygon fill="none" stroke="black" points="292.12,-341 292.12,-402 425.62,-402 425.62,-341 292.12,-341"/>
</g>
<!-- n_0_1_2_3_4_5_6&#45;&gt;n_0_1_2_4_5_6 -->
<g id="edge1" class="edge">
<title>n_0_1_2_3_4_5_6&#45;&gt;n_0_1_2_4_5_6</title>
<path fill="none" stroke="black" d="M407.77,-449.19C400.83,-438.31 393.22,-426.36 386.1,-415.21"/>
<polygon fill="black" stroke="black" points="389.15,-413.48 380.82,-406.93 383.25,-417.24 389.15,-413.48"/>
</g>
<!-- n_3 -->
<g id="node13" class="node">
<title>n_3</title>
<polygon fill="none" stroke="black" points="471.5,-358.88 471.5,-384.12 540.25,-384.12 540.25,-358.88 471.5,-358.88"/>
<text text-anchor="start" x="478.5" y="-369.57" font-family="Times New Roman,serif" font-weight="bold" font-size="9.00">Secondary (P)</text>
<polygon fill="none" stroke="black" points="470.5,-357.88 470.5,-385.12 541.25,-385.12 541.25,-357.88 470.5,-357.88"/>
</g>
<!-- n_0_1_2_3_4_5_6&#45;&gt;n_3 -->
<g id="edge12" class="edge">
<title>n_0_1_2_3_4_5_6&#45;&gt;n_3</title>
<path fill="none" stroke="black" d="M456.31,-449.19C466.91,-432.78 479.08,-413.96 488.7,-399.07"/>
<polygon fill="black" stroke="black" points="491.6,-401.03 494.09,-390.73 485.72,-397.23 491.6,-401.03"/>
</g>
<!-- n_0_1_2_5_6 -->
<g id="node3" class="node">
<title>n_0_1_2_5_6</title>
<polygon fill="none" stroke="black" points="227.38,-248 227.38,-289 287.12,-289 287.12,-248 227.38,-248"/>
<text text-anchor="start" x="234.38" y="-274.45" font-family="Times New Roman,serif" font-weight="bold" font-size="9.00">Primary (P)</text>
<text text-anchor="start" x="237.75" y="-265.45" font-family="Times New Roman,serif" font-weight="bold" font-size="9.00">Technical</text>
<text text-anchor="start" x="237" y="-256.45" font-family="Times New Roman,serif" font-weight="bold" font-size="9.00">University</text>
<polygon fill="none" stroke="black" points="287.12,-248 287.12,-289 348.38,-289 348.38,-248 287.12,-248"/>
<text text-anchor="start" x="294.12" y="-269.95" font-family="Times New Roman,serif" font-weight="bold" font-size="9.00">Primary (G)</text>
<text text-anchor="start" x="298.62" y="-260.95" font-family="Times New Roman,serif" font-weight="bold" font-size="9.00">Preschool</text>
<polygon fill="none" stroke="black" points="226.38,-247 226.38,-290 349.38,-290 349.38,-247 226.38,-247"/>
</g>
<!-- n_0_1_2_4_5_6&#45;&gt;n_0_1_2_5_6 -->
<g id="edge2" class="edge">
<title>n_0_1_2_4_5_6&#45;&gt;n_0_1_2_5_6</title>
<path fill="none" stroke="black" d="M335.43,-337.15C327.74,-326.22 319.2,-314.07 311.51,-303.12"/>
<polygon fill="black" stroke="black" points="314.48,-301.27 305.87,-295.1 308.76,-305.29 314.48,-301.27"/>
</g>
<!-- n_4 -->
<g id="node12" class="node">
<title>n_4</title>
<polygon fill="none" stroke="black" points="395.75,-255.88 395.75,-281.12 466,-281.12 466,-255.88 395.75,-255.88"/>
<text text-anchor="start" x="402.75" y="-266.57" font-family="Times New Roman,serif" font-weight="bold" font-size="9.00">Secondary (G)</text>
<polygon fill="none" stroke="black" points="394.75,-254.88 394.75,-282.12 467,-282.12 467,-254.88 394.75,-254.88"/>
</g>
<!-- n_0_1_2_4_5_6&#45;&gt;n_4 -->
<g id="edge11" class="edge">
<title>n_0_1_2_4_5_6&#45;&gt;n_4</title>
<path fill="none" stroke="black" d="M382.65,-337.15C392.31,-323.6 403.31,-308.17 412.36,-295.48"/>
<polygon fill="black" stroke="black" points="415.01,-297.79 417.96,-287.61 409.31,-293.72 415.01,-297.79"/>
</g>
<!-- n_0_5_6 -->
<g id="node4" class="node">
<title>n_0_5_6</title>
<polygon fill="none" stroke="black" points="151.5,-163 151.5,-195 211.25,-195 211.25,-163 151.5,-163"/>
<text text-anchor="start" x="158.5" y="-180.45" font-family="Times New Roman,serif" font-weight="bold" font-size="9.00">Primary (P)</text>
<text text-anchor="start" x="161.12" y="-171.45" font-family="Times New Roman,serif" font-weight="bold" font-size="9.00">University</text>
<polygon fill="none" stroke="black" points="211.25,-163 211.25,-195 264.25,-195 264.25,-163 211.25,-163"/>
<text text-anchor="start" x="218.25" y="-177.07" font-family="Times New Roman,serif" font-weight="bold" font-size="9.00">Technical</text>
<polygon fill="none" stroke="black" points="150.5,-162 150.5,-196 265.25,-196 265.25,-162 150.5,-162"/>
</g>
<!-- n_0_1_2_5_6&#45;&gt;n_0_5_6 -->
<g id="edge3" class="edge">
<title>n_0_1_2_5_6&#45;&gt;n_0_5_6</title>
<path fill="none" stroke="black" d="M265.59,-243.13C255.64,-232.25 243.86,-219.36 233.55,-208.08"/>
<polygon fill="black" stroke="black" points="236.35,-205.96 227.02,-200.94 231.19,-210.69 236.35,-205.96"/>
</g>
<!-- n_1_2 -->
<g id="node9" class="node">
<title>n_1_2</title>
<polygon fill="none" stroke="black" points="311.12,-166.38 311.12,-191.62 372.38,-191.62 372.38,-166.38 311.12,-166.38"/>
<text text-anchor="start" x="318.12" y="-177.07" font-family="Times New Roman,serif" font-weight="bold" font-size="9.00">Primary (G)</text>
<polygon fill="none" stroke="black" points="372.38,-166.38 372.38,-191.62 424.62,-191.62 424.62,-166.38 372.38,-166.38"/>
<text text-anchor="start" x="379.38" y="-177.07" font-family="Times New Roman,serif" font-weight="bold" font-size="9.00">Preschool</text>
<polygon fill="none" stroke="black" points="310.12,-165.38 310.12,-192.62 425.62,-192.62 425.62,-165.38 310.12,-165.38"/>
</g>
<!-- n_0_1_2_5_6&#45;&gt;n_1_2 -->
<g id="edge8" class="edge">
<title>n_0_1_2_5_6&#45;&gt;n_1_2</title>
<path fill="none" stroke="black" d="M310.16,-243.13C321.02,-231.24 334.07,-216.97 345.01,-205.01"/>
<polygon fill="black" stroke="black" points="347.36,-207.63 351.52,-197.89 342.19,-202.91 347.36,-207.63"/>
</g>
<!-- n_0_6 -->
<g id="node5" class="node">
<title>n_0_6</title>
<polygon fill="none" stroke="black" points="33.75,-84.38 33.75,-109.62 93.5,-109.62 93.5,-84.38 33.75,-84.38"/>
<text text-anchor="start" x="40.75" y="-95.08" font-family="Times New Roman,serif" font-weight="bold" font-size="9.00">Primary (P)</text>
<polygon fill="none" stroke="black" points="93.5,-84.38 93.5,-109.62 148,-109.62 148,-84.38 93.5,-84.38"/>
<text text-anchor="start" x="100.5" y="-95.08" font-family="Times New Roman,serif" font-weight="bold" font-size="9.00">University</text>
<polygon fill="none" stroke="black" points="32.75,-83.38 32.75,-110.62 149,-110.62 149,-83.38 32.75,-83.38"/>
</g>
<!-- n_0_5_6&#45;&gt;n_0_6 -->
<g id="edge4" class="edge">
<title>n_0_5_6&#45;&gt;n_0_6</title>
<path fill="none" stroke="black" d="M178.65,-158.02C162.21,-146.77 141.6,-132.68 124.48,-120.98"/>
<polygon fill="black" stroke="black" points="126.86,-118.37 116.63,-115.61 122.91,-124.15 126.86,-118.37"/>
</g>
<!-- n_5 -->
<g id="node8" class="node">
<title>n_5</title>
<polygon fill="none" stroke="black" points="195.38,-84.38 195.38,-109.62 248.38,-109.62 248.38,-84.38 195.38,-84.38"/>
<text text-anchor="start" x="202.38" y="-95.08" font-family="Times New Roman,serif" font-weight="bold" font-size="9.00">Technical</text>
<polygon fill="none" stroke="black" points="194.38,-83.38 194.38,-110.62 249.38,-110.62 249.38,-83.38 194.38,-83.38"/>
</g>
<!-- n_0_5_6&#45;&gt;n_5 -->
<g id="edge7" class="edge">
<title>n_0_5_6&#45;&gt;n_5</title>
<path fill="none" stroke="black" d="M211.34,-158.22C213.03,-148.54 215.1,-136.72 216.96,-126.11"/>
<polygon fill="black" stroke="black" points="220.39,-126.79 218.67,-116.33 213.49,-125.58 220.39,-126.79"/>
</g>
<!-- n_0 -->
<g id="node6" class="node">
<title>n_0</title>
<polygon fill="none" stroke="black" points="9,-5.38 9,-30.62 68.75,-30.62 68.75,-5.38 9,-5.38"/>
<text text-anchor="start" x="16" y="-16.07" font-family="Times New Roman,serif" font-weight="bold" font-size="9.00">Primary (P)</text>
<polygon fill="none" stroke="black" points="8,-4.38 8,-31.62 69.75,-31.62 69.75,-4.38 8,-4.38"/>
</g>
<!-- n_0_6&#45;&gt;n_0 -->
<g id="edge5" class="edge">
<title>n_0_6&#45;&gt;n_0</title>
<path fill="none" stroke="black" d="M79.59,-79.29C72.89,-69.37 64.25,-56.57 56.65,-45.32"/>
<polygon fill="black" stroke="black" points="59.66,-43.52 51.16,-37.2 53.86,-47.44 59.66,-43.52"/>
</g>
<!-- n_6 -->
<g id="node7" class="node">
<title>n_6</title>
<polygon fill="none" stroke="black" points="115.62,-5.38 115.62,-30.62 170.12,-30.62 170.12,-5.38 115.62,-5.38"/>
<text text-anchor="start" x="122.62" y="-16.07" font-family="Times New Roman,serif" font-weight="bold" font-size="9.00">University</text>
<polygon fill="none" stroke="black" points="114.62,-4.38 114.62,-31.62 171.12,-31.62 171.12,-4.38 114.62,-4.38"/>
</g>
<!-- n_0_6&#45;&gt;n_6 -->
<g id="edge6" class="edge">
<title>n_0_6&#45;&gt;n_6</title>
<path fill="none" stroke="black" d="M102.16,-79.29C108.86,-69.37 117.5,-56.57 125.1,-45.32"/>
<polygon fill="black" stroke="black" points="127.89,-47.44 130.59,-37.2 122.09,-43.52 127.89,-47.44"/>
</g>
<!-- n_1 -->
<g id="node10" class="node">
<title>n_1</title>
<polygon fill="none" stroke="black" points="323.25,-84.38 323.25,-109.62 384.5,-109.62 384.5,-84.38 323.25,-84.38"/>
<text text-anchor="start" x="330.25" y="-95.08" font-family="Times New Roman,serif" font-weight="bold" font-size="9.00">Primary (G)</text>
<polygon fill="none" stroke="black" points="322.25,-83.38 322.25,-110.62 385.5,-110.62 385.5,-83.38 322.25,-83.38"/>
</g>
<!-- n_1_2&#45;&gt;n_1 -->
<g id="edge9" class="edge">
<title>n_1_2&#45;&gt;n_1</title>
<path fill="none" stroke="black" d="M364.91,-161.03C363.12,-150.85 360.81,-137.65 358.77,-125.96"/>
<polygon fill="black" stroke="black" points="362.27,-125.68 357.1,-116.43 355.38,-126.89 362.27,-125.68"/>
</g>
<!-- n_2 -->
<g id="node11" class="node">
<title>n_2</title>
<polygon fill="none" stroke="black" points="431.75,-84.38 431.75,-109.62 484,-109.62 484,-84.38 431.75,-84.38"/>
<text text-anchor="start" x="438.75" y="-95.08" font-family="Times New Roman,serif" font-weight="bold" font-size="9.00">Preschool</text>
<polygon fill="none" stroke="black" points="430.75,-83.38 430.75,-110.62 485,-110.62 485,-83.38 430.75,-83.38"/>
</g>
<!-- n_1_2&#45;&gt;n_2 -->
<g id="edge10" class="edge">
<title>n_1_2&#45;&gt;n_2</title>
<path fill="none" stroke="black" d="M386.96,-161.03C399.61,-149.79 416.4,-134.87 430.47,-122.36"/>
<polygon fill="black" stroke="black" points="432.54,-125.21 437.68,-115.95 427.89,-119.97 432.54,-125.21"/>
</g>
</g>
</svg>
