<?xml version="1.0" encoding="UTF-8" standalone="no"?>
<!DOCTYPE svg PUBLIC "-//W3C//DTD SVG 1.1//EN"
 "http://www.w3.org/Graphics/SVG/1.1/DTD/svg11.dtd">
<!-- Generated by graphviz version 10.0.1 (20240210.2158)
 -->
<!-- Title: ND Pages: 1 -->
<svg width="561pt" height="638pt"
 viewBox="0.00 0.00 560.75 638.00" xmlns="http://www.w3.org/2000/svg" xmlns:xlink="http://www.w3.org/1999/xlink">
<g id="graph0" class="graph" transform="scale(1 1) rotate(0) translate(4 634)">
<title>ND</title>
<polygon fill="white" stroke="none" points="-4,4 -4,-634 556.75,-634 556.75,4 -4,4"/>
<!-- n_0_1_2_3_4_5_6 -->
<g id="node1" class="node">
<title>n_0_1_2_3_4_5_6</title>
<polygon fill="none" stroke="black" points="384.38,-557 384.38,-625 454.62,-625 454.62,-557 384.38,-557"/>
<text text-anchor="start" x="396.62" y="-610.45" font-family="Times New Roman,serif" font-weight="bold" font-size="9.00">Primary (P)</text>
<text text-anchor="start" x="395.88" y="-601.45" font-family="Times New Roman,serif" font-weight="bold" font-size="9.00">Primary (G)</text>
<text text-anchor="start" x="392.12" y="-592.45" font-family="Times New Roman,serif" font-weight="bold" font-size="9.00">Secondary (P)</text>
<text text-anchor="start" x="391.38" y="-583.45" font-family="Times New Roman,serif" font-weight="bold" font-size="9.00">Secondary (G)</text>
<text text-anchor="start" x="400" y="-574.45" font-family="Times New Roman,serif" font-weight="bold" font-size="9.00">Technical</text>
<text text-anchor="start" x="399.25" y="-565.45" font-family="Times New Roman,serif" font-weight="bold" font-size="9.00">University</text>
<polygon fill="none" stroke="black" points="454.62,-557 454.62,-625 506.88,-625 506.88,-557 454.62,-557"/>
<text text-anchor="start" x="461.62" y="-589.08" font-family="Times New Roman,serif" font-weight="bold" font-size="9.00">Preschool</text>
<polygon fill="none" stroke="black" points="383.38,-556 383.38,-626 507.88,-626 507.88,-556 383.38,-556"/>
</g>
<!-- n_0_1_3_4_5_6 -->
<g id="node2" class="node">
<title>n_0_1_3_4_5_6</title>
<polygon fill="none" stroke="black" points="305.12,-445 305.12,-504 373.88,-504 373.88,-445 305.12,-445"/>
<text text-anchor="start" x="316.62" y="-489.45" font-family="Times New Roman,serif" font-weight="bold" font-size="9.00">Primary (P)</text>
<text text-anchor="start" x="315.88" y="-480.45" font-family="Times New Roman,serif" font-weight="bold" font-size="9.00">Primary (G)</text>
<text text-anchor="start" x="312.12" y="-471.45" font-family="Times New Roman,serif" font-weight="bold" font-size="9.00">Secondary (P)</text>
<text text-anchor="start" x="320" y="-462.45" font-family="Times New Roman,serif" font-weight="bold" font-size="9.00">Technical</text>
<text text-anchor="start" x="319.25" y="-453.45" font-family="Times New Roman,serif" font-weight="bold" font-size="9.00">University</text>
<polygon fill="none" stroke="black" points="373.88,-445 373.88,-504 444.12,-504 444.12,-445 373.88,-445"/>
<text text-anchor="start" x="380.88" y="-472.57" font-family="Times New Roman,serif" font-weight="bold" font-size="9.00">Secondary (G)</text>
<polygon fill="none" stroke="black" points="304.12,-444 304.12,-505 445.12,-505 445.12,-444 304.12,-444"/>
</g>
<!-- n_0_1_2_3_4_5_6&#45;&gt;n_0_1_3_4_5_6 -->
<g id="edge1" class="edge">
<title>n_0_1_2_3_4_5_6&#45;&gt;n_0_1_3_4_5_6</title>
<path fill="none" stroke="black" d="M422.18,-552.19C415.43,-541.31 408.02,-529.36 401.11,-518.21"/>
<polygon fill="black" stroke="black" points="404.22,-516.59 395.98,-509.94 398.28,-520.28 404.22,-516.59"/>
</g>
<!-- n_2 -->
<g id="node13" class="node">
<title>n_2</title>
<polygon fill="none" stroke="black" points="491.5,-461.88 491.5,-487.12 543.75,-487.12 543.75,-461.88 491.5,-461.88"/>
<text text-anchor="start" x="498.5" y="-472.57" font-family="Times New Roman,serif" font-weight="bold" font-size="9.00">Preschool</text>
<polygon fill="none" stroke="black" points="490.5,-460.88 490.5,-488.12 544.75,-488.12 544.75,-460.88 490.5,-460.88"/>
</g>
<!-- n_0_1_2_3_4_5_6&#45;&gt;n_2 -->
<g id="edge12" class="edge">
<title>n_0_1_2_3_4_5_6&#45;&gt;n_2</title>
<path fill="none" stroke="black" d="M469.4,-552.19C479.72,-535.78 491.55,-516.96 500.92,-502.07"/>
<polygon fill="black" stroke="black" points="503.79,-504.07 506.15,-493.74 497.87,-500.35 503.79,-504.07"/>
</g>
<!-- n_0_1_3_5_6 -->
<g id="node3" class="node">
<title>n_0_1_3_5_6</title>
<polygon fill="none" stroke="black" points="241,-342 241,-392 309.75,-392 309.75,-342 241,-342"/>
<text text-anchor="start" x="252.5" y="-377.45" font-family="Times New Roman,serif" font-weight="bold" font-size="9.00">Primary (P)</text>
<text text-anchor="start" x="251.75" y="-368.45" font-family="Times New Roman,serif" font-weight="bold" font-size="9.00">Primary (G)</text>
<text text-anchor="start" x="248" y="-359.45" font-family="Times New Roman,serif" font-weight="bold" font-size="9.00">Secondary (P)</text>
<text text-anchor="start" x="255.88" y="-350.45" font-family="Times New Roman,serif" font-weight="bold" font-size="9.00">Technical</text>
<polygon fill="none" stroke="black" points="309.75,-342 309.75,-392 364.25,-392 364.25,-342 309.75,-342"/>
<text text-anchor="start" x="316.75" y="-365.07" font-family="Times New Roman,serif" font-weight="bold" font-size="9.00">University</text>
<polygon fill="none" stroke="black" points="240,-341 240,-393 365.25,-393 365.25,-341 240,-341"/>
</g>
<!-- n_0_1_3_4_5_6&#45;&gt;n_0_1_3_5_6 -->
<g id="edge2" class="edge">
<title>n_0_1_3_4_5_6&#45;&gt;n_0_1_3_5_6</title>
<path fill="none" stroke="black" d="M351.84,-440.12C344.51,-429.38 336.34,-417.4 328.79,-406.33"/>
<polygon fill="black" stroke="black" points="331.73,-404.44 323.2,-398.15 325.95,-408.38 331.73,-404.44"/>
</g>
<!-- n_4 -->
<g id="node12" class="node">
<title>n_4</title>
<polygon fill="none" stroke="black" points="411.5,-354.38 411.5,-379.62 481.75,-379.62 481.75,-354.38 411.5,-354.38"/>
<text text-anchor="start" x="418.5" y="-365.07" font-family="Times New Roman,serif" font-weight="bold" font-size="9.00">Secondary (G)</text>
<polygon fill="none" stroke="black" points="410.5,-353.38 410.5,-380.62 482.75,-380.62 482.75,-353.38 410.5,-353.38"/>
</g>
<!-- n_0_1_3_4_5_6&#45;&gt;n_4 -->
<g id="edge11" class="edge">
<title>n_0_1_3_4_5_6&#45;&gt;n_4</title>
<path fill="none" stroke="black" d="M397.41,-440.12C407.48,-425.35 419.17,-408.23 428.62,-394.38"/>
<polygon fill="black" stroke="black" points="431.46,-396.43 434.2,-386.2 425.68,-392.49 431.46,-396.43"/>
</g>
<!-- n_0_1_3_5 -->
<g id="node4" class="node">
<title>n_0_1_3_5</title>
<polygon fill="none" stroke="black" points="174.75,-248 174.75,-289 243.5,-289 243.5,-248 174.75,-248"/>
<text text-anchor="start" x="186.25" y="-274.45" font-family="Times New Roman,serif" font-weight="bold" font-size="9.00">Primary (P)</text>
<text text-anchor="start" x="185.5" y="-265.45" font-family="Times New Roman,serif" font-weight="bold" font-size="9.00">Primary (G)</text>
<text text-anchor="start" x="181.75" y="-256.45" font-family="Times New Roman,serif" font-weight="bold" font-size="9.00">Secondary (P)</text>
<polygon fill="none" stroke="black" points="243.5,-248 243.5,-289 296.5,-289 296.5,-248 243.5,-248"/>
<text text-anchor="start" x="250.5" y="-266.57" font-family="Times New Roman,serif" font-weight="bold" font-size="9.00">Technical</text>
<polygon fill="none" stroke="black" points="173.75,-247 173.75,-290 297.5,-290 297.5,-247 173.75,-247"/>
</g>
<!-- n_0_1_3_5_6&#45;&gt;n_0_1_3_5 -->
<g id="edge3" class="edge">
<title>n_0_1_3_5_6&#45;&gt;n_0_1_3_5</title>
<path fill="none" stroke="black" d="M282.52,-337.05C275.13,-326.4 266.69,-314.25 259.03,-303.22"/>
<polygon fill="black" stroke="black" points="261.99,-301.34 253.41,-295.12 256.24,-305.33 261.99,-301.34"/>
</g>
<!-- n_6 -->
<g id="node11" class="node">
<title>n_6</title>
<polygon fill="none" stroke="black" points="343.38,-255.88 343.38,-281.12 397.88,-281.12 397.88,-255.88 343.38,-255.88"/>
<text text-anchor="start" x="350.38" y="-266.57" font-family="Times New Roman,serif" font-weight="bold" font-size="9.00">University</text>
<polygon fill="none" stroke="black" points="342.38,-254.88 342.38,-282.12 398.88,-282.12 398.88,-254.88 342.38,-254.88"/>
</g>
<!-- n_0_1_3_5_6&#45;&gt;n_6 -->
<g id="edge10" class="edge">
<title>n_0_1_3_5_6&#45;&gt;n_6</title>
<path fill="none" stroke="black" d="M323.03,-337.05C332.32,-323.86 343.23,-308.38 352.26,-295.56"/>
<polygon fill="black" stroke="black" points="354.97,-297.79 357.87,-287.6 349.25,-293.76 354.97,-297.79"/>
</g>
<!-- n_0_1_3 -->
<g id="node5" class="node">
<title>n_0_1_3</title>
<polygon fill="none" stroke="black" points="102.38,-163 102.38,-195 171.12,-195 171.12,-163 102.38,-163"/>
<text text-anchor="start" x="113.12" y="-180.45" font-family="Times New Roman,serif" font-weight="bold" font-size="9.00">Primary (G)</text>
<text text-anchor="start" x="109.38" y="-171.45" font-family="Times New Roman,serif" font-weight="bold" font-size="9.00">Secondary (P)</text>
<polygon fill="none" stroke="black" points="171.12,-163 171.12,-195 230.88,-195 230.88,-163 171.12,-163"/>
<text text-anchor="start" x="178.12" y="-177.07" font-family="Times New Roman,serif" font-weight="bold" font-size="9.00">Primary (P)</text>
<polygon fill="none" stroke="black" points="101.38,-162 101.38,-196 231.88,-196 231.88,-162 101.38,-162"/>
</g>
<!-- n_0_1_3_5&#45;&gt;n_0_1_3 -->
<g id="edge4" class="edge">
<title>n_0_1_3_5&#45;&gt;n_0_1_3</title>
<path fill="none" stroke="black" d="M216.4,-243.13C207.99,-232.46 198.06,-219.87 189.29,-208.75"/>
<polygon fill="black" stroke="black" points="192.14,-206.7 183.2,-201.01 186.64,-211.03 192.14,-206.7"/>
</g>
<!-- n_5 -->
<g id="node10" class="node">
<title>n_5</title>
<polygon fill="none" stroke="black" points="278.12,-166.38 278.12,-191.62 331.12,-191.62 331.12,-166.38 278.12,-166.38"/>
<text text-anchor="start" x="285.12" y="-177.07" font-family="Times New Roman,serif" font-weight="bold" font-size="9.00">Technical</text>
<polygon fill="none" stroke="black" points="277.12,-165.38 277.12,-192.62 332.12,-192.62 332.12,-165.38 277.12,-165.38"/>
</g>
<!-- n_0_1_3_5&#45;&gt;n_5 -->
<g id="edge9" class="edge">
<title>n_0_1_3_5&#45;&gt;n_5</title>
<path fill="none" stroke="black" d="M254.85,-243.13C264.03,-231.48 275.03,-217.53 284.35,-205.71"/>
<polygon fill="black" stroke="black" points="287.02,-207.98 290.46,-197.96 281.52,-203.64 287.02,-207.98"/>
</g>
<!-- n_1_3 -->
<g id="node6" class="node">
<title>n_1_3</title>
<polygon fill="none" stroke="black" points="30.62,-84.38 30.62,-109.62 91.88,-109.62 91.88,-84.38 30.62,-84.38"/>
<text text-anchor="start" x="37.62" y="-95.08" font-family="Times New Roman,serif" font-weight="bold" font-size="9.00">Primary (G)</text>
<polygon fill="none" stroke="black" points="91.88,-84.38 91.88,-109.62 160.62,-109.62 160.62,-84.38 91.88,-84.38"/>
<text text-anchor="start" x="98.88" y="-95.08" font-family="Times New Roman,serif" font-weight="bold" font-size="9.00">Secondary (P)</text>
<polygon fill="none" stroke="black" points="29.62,-83.38 29.62,-110.62 161.62,-110.62 161.62,-83.38 29.62,-83.38"/>
</g>
<!-- n_0_1_3&#45;&gt;n_1_3 -->
<g id="edge5" class="edge">
<title>n_0_1_3&#45;&gt;n_1_3</title>
<path fill="none" stroke="black" d="M149.07,-158.22C139.74,-147.71 128.16,-134.66 118.17,-123.41"/>
<polygon fill="black" stroke="black" points="120.83,-121.13 111.58,-115.98 115.6,-125.78 120.83,-121.13"/>
</g>
<!-- n_0 -->
<g id="node9" class="node">
<title>n_0</title>
<polygon fill="none" stroke="black" points="207.75,-84.38 207.75,-109.62 267.5,-109.62 267.5,-84.38 207.75,-84.38"/>
<text text-anchor="start" x="214.75" y="-95.08" font-family="Times New Roman,serif" font-weight="bold" font-size="9.00">Primary (P)</text>
<polygon fill="none" stroke="black" points="206.75,-83.38 206.75,-110.62 268.5,-110.62 268.5,-83.38 206.75,-83.38"/>
</g>
<!-- n_0_1_3&#45;&gt;n_0 -->
<g id="edge8" class="edge">
<title>n_0_1_3&#45;&gt;n_0</title>
<path fill="none" stroke="black" d="M184.18,-158.22C193.51,-147.71 205.09,-134.66 215.08,-123.41"/>
<polygon fill="black" stroke="black" points="217.65,-125.78 221.67,-115.98 212.42,-121.13 217.65,-125.78"/>
</g>
<!-- n_1 -->
<g id="node7" class="node">
<title>n_1</title>
<polygon fill="none" stroke="black" points="9,-5.38 9,-30.62 70.25,-30.62 70.25,-5.38 9,-5.38"/>
<text text-anchor="start" x="16" y="-16.07" font-family="Times New Roman,serif" font-weight="bold" font-size="9.00">Primary (G)</text>
<polygon fill="none" stroke="black" points="8,-4.38 8,-31.62 71.25,-31.62 71.25,-4.38 8,-4.38"/>
</g>
<!-- n_1_3&#45;&gt;n_1 -->
<g id="edge6" class="edge">
<title>n_1_3&#45;&gt;n_1</title>
<path fill="none" stroke="black" d="M83.47,-79.29C76.19,-69.27 66.76,-56.31 58.52,-44.98"/>
<polygon fill="black" stroke="black" points="61.55,-43.19 52.84,-37.17 55.89,-47.31 61.55,-43.19"/>
</g>
<!-- n_3 -->
<g id="node8" class="node">
<title>n_3</title>
<polygon fill="none" stroke="black" points="117.25,-5.38 117.25,-30.62 186,-30.62 186,-5.38 117.25,-5.38"/>
<text text-anchor="start" x="124.25" y="-16.07" font-family="Times New Roman,serif" font-weight="bold" font-size="9.00">Secondary (P)</text>
<polygon fill="none" stroke="black" points="116.25,-4.38 116.25,-31.62 187,-31.62 187,-4.38 116.25,-4.38"/>
</g>
<!-- n_1_3&#45;&gt;n_3 -->
<g id="edge7" class="edge">
<title>n_1_3&#45;&gt;n_3</title>
<path fill="none" stroke="black" d="M107.78,-79.29C115.06,-69.27 124.49,-56.31 132.73,-44.98"/>
<polygon fill="black" stroke="black" points="135.36,-47.31 138.41,-37.17 129.7,-43.19 135.36,-47.31"/>
</g>
</g>
</svg>
