<?xml version="1.0" encoding="UTF-8" standalone="no"?>
<!DOCTYPE svg PUBLIC "-//W3C//DTD SVG 1.1//EN"
 "http://www.w3.org/Graphics/SVG/1.1/DTD/svg11.dtd">
<!-- Generated by graphviz version 10.0.1 (20240210.2158)
 -->
<!-- Title: ND Pages: 1 -->
<svg width="553pt" height="638pt"
 viewBox="0.00 0.00 552.88 638.00" xmlns="http://www.w3.org/2000/svg" xmlns:xlink="http://www.w3.org/1999/xlink">
<g id="graph0" class="graph" transform="scale(1 1) rotate(0) translate(4 634)">
<title>ND</title>
<polygon fill="white" stroke="none" points="-4,4 -4,-634 548.88,-634 548.88,4 -4,4"/>
<!-- n_0_1_2_3_4_5_6 -->
<g id="node1" class="node">
<title>n_0_1_2_3_4_5_6</title>
<polygon fill="none" stroke="black" points="359,-557 359,-625 429.25,-625 429.25,-557 359,-557"/>
<text text-anchor="start" x="371.25" y="-610.45" font-family="Times New Roman,serif" font-weight="bold" font-size="9.00">Primary (P)</text>
<text text-anchor="start" x="370.5" y="-601.45" font-family="Times New Roman,serif" font-weight="bold" font-size="9.00">Primary (G)</text>
<text text-anchor="start" x="375" y="-592.45" font-family="Times New Roman,serif" font-weight="bold" font-size="9.00">Preschool</text>
<text text-anchor="start" x="366" y="-583.45" font-family="Times New Roman,serif" font-weight="bold" font-size="9.00">Secondary (G)</text>
<text text-anchor="start" x="374.62" y="-574.45" font-family="Times New Roman,serif" font-weight="bold" font-size="9.00">Technical</text>
<text text-anchor="start" x="373.88" y="-565.45" font-family="Times New Roman,serif" font-weight="bold" font-size="9.00">University</text>
<polygon fill="none" stroke="black" points="429.25,-557 429.25,-625 498,-625 498,-557 429.25,-557"/>
<text text-anchor="start" x="436.25" y="-589.08" font-family="Times New Roman,serif" font-weight="bold" font-size="9.00">Secondary (P)</text>
<polygon fill="none" stroke="black" points="358,-556 358,-626 499,-626 499,-556 358,-556"/>
</g>
<!-- n_0_1_2_4_5_6 -->
<g id="node2" class="node">
<title>n_0_1_2_4_5_6</title>
<polygon fill="none" stroke="black" points="290.5,-445 290.5,-504 360.75,-504 360.75,-445 290.5,-445"/>
<text text-anchor="start" x="302" y="-489.45" font-family="Times New Roman,serif" font-weight="bold" font-size="9.00">Primary (G)</text>
<text text-anchor="start" x="306.5" y="-480.45" font-family="Times New Roman,serif" font-weight="bold" font-size="9.00">Preschool</text>
<text text-anchor="start" x="297.5" y="-471.45" font-family="Times New Roman,serif" font-weight="bold" font-size="9.00">Secondary (G)</text>
<text text-anchor="start" x="306.12" y="-462.45" font-family="Times New Roman,serif" font-weight="bold" font-size="9.00">Technical</text>
<text text-anchor="start" x="305.38" y="-453.45" font-family="Times New Roman,serif" font-weight="bold" font-size="9.00">University</text>
<polygon fill="none" stroke="black" points="360.75,-445 360.75,-504 420.5,-504 420.5,-445 360.75,-445"/>
<text text-anchor="start" x="367.75" y="-472.57" font-family="Times New Roman,serif" font-weight="bold" font-size="9.00">Primary (P)</text>
<polygon fill="none" stroke="black" points="289.5,-444 289.5,-505 421.5,-505 421.5,-444 289.5,-444"/>
</g>
<!-- n_0_1_2_3_4_5_6&#45;&gt;n_0_1_2_4_5_6 -->
<g id="edge1" class="edge">
<title>n_0_1_2_3_4_5_6&#45;&gt;n_0_1_2_4_5_6</title>
<path fill="none" stroke="black" d="M404.39,-552.19C397.46,-541.31 389.84,-529.36 382.73,-518.21"/>
<polygon fill="black" stroke="black" points="385.78,-516.48 377.45,-509.93 379.87,-520.24 385.78,-516.48"/>
</g>
<!-- n_3 -->
<g id="node13" class="node">
<title>n_3</title>
<polygon fill="none" stroke="black" points="467.12,-461.88 467.12,-487.12 535.88,-487.12 535.88,-461.88 467.12,-461.88"/>
<text text-anchor="start" x="474.12" y="-472.57" font-family="Times New Roman,serif" font-weight="bold" font-size="9.00">Secondary (P)</text>
<polygon fill="none" stroke="black" points="466.12,-460.88 466.12,-488.12 536.88,-488.12 536.88,-460.88 466.12,-460.88"/>
</g>
<!-- n_0_1_2_3_4_5_6&#45;&gt;n_3 -->
<g id="edge12" class="edge">
<title>n_0_1_2_3_4_5_6&#45;&gt;n_3</title>
<path fill="none" stroke="black" d="M452.61,-552.19C463.07,-535.78 475.07,-516.96 484.56,-502.07"/>
<polygon fill="black" stroke="black" points="487.45,-504.05 489.87,-493.74 481.54,-500.29 487.45,-504.05"/>
</g>
<!-- n_1_2_4_5_6 -->
<g id="node3" class="node">
<title>n_1_2_4_5_6</title>
<polygon fill="none" stroke="black" points="218.75,-342 218.75,-392 280,-392 280,-342 218.75,-342"/>
<text text-anchor="start" x="225.75" y="-377.45" font-family="Times New Roman,serif" font-weight="bold" font-size="9.00">Primary (G)</text>
<text text-anchor="start" x="230.25" y="-368.45" font-family="Times New Roman,serif" font-weight="bold" font-size="9.00">Preschool</text>
<text text-anchor="start" x="229.88" y="-359.45" font-family="Times New Roman,serif" font-weight="bold" font-size="9.00">Technical</text>
<text text-anchor="start" x="229.12" y="-350.45" font-family="Times New Roman,serif" font-weight="bold" font-size="9.00">University</text>
<polygon fill="none" stroke="black" points="280,-342 280,-392 350.25,-392 350.25,-342 280,-342"/>
<text text-anchor="start" x="287" y="-365.07" font-family="Times New Roman,serif" font-weight="bold" font-size="9.00">Secondary (G)</text>
<polygon fill="none" stroke="black" points="217.75,-341 217.75,-393 351.25,-393 351.25,-341 217.75,-341"/>
</g>
<!-- n_0_1_2_4_5_6&#45;&gt;n_1_2_4_5_6 -->
<g id="edge2" class="edge">
<title>n_0_1_2_4_5_6&#45;&gt;n_1_2_4_5_6</title>
<path fill="none" stroke="black" d="M333.04,-440.12C325.81,-429.38 317.74,-417.4 310.3,-406.33"/>
<polygon fill="black" stroke="black" points="313.28,-404.5 304.79,-398.15 307.47,-408.4 313.28,-404.5"/>
</g>
<!-- n_0 -->
<g id="node12" class="node">
<title>n_0</title>
<polygon fill="none" stroke="black" points="397.62,-354.38 397.62,-379.62 457.38,-379.62 457.38,-354.38 397.62,-354.38"/>
<text text-anchor="start" x="404.62" y="-365.07" font-family="Times New Roman,serif" font-weight="bold" font-size="9.00">Primary (P)</text>
<polygon fill="none" stroke="black" points="396.62,-353.38 396.62,-380.62 458.38,-380.62 458.38,-353.38 396.62,-353.38"/>
</g>
<!-- n_0_1_2_4_5_6&#45;&gt;n_0 -->
<g id="edge11" class="edge">
<title>n_0_1_2_4_5_6&#45;&gt;n_0</title>
<path fill="none" stroke="black" d="M378.28,-440.12C388.36,-425.35 400.04,-408.23 409.5,-394.38"/>
<polygon fill="black" stroke="black" points="412.33,-396.43 415.08,-386.2 406.55,-392.49 412.33,-396.43"/>
</g>
<!-- n_1_2_5_6 -->
<g id="node4" class="node">
<title>n_1_2_5_6</title>
<polygon fill="none" stroke="black" points="158.75,-248 158.75,-289 220,-289 220,-248 158.75,-248"/>
<text text-anchor="start" x="165.75" y="-274.45" font-family="Times New Roman,serif" font-weight="bold" font-size="9.00">Primary (G)</text>
<text text-anchor="start" x="169.88" y="-265.45" font-family="Times New Roman,serif" font-weight="bold" font-size="9.00">Technical</text>
<text text-anchor="start" x="169.12" y="-256.45" font-family="Times New Roman,serif" font-weight="bold" font-size="9.00">University</text>
<polygon fill="none" stroke="black" points="220,-248 220,-289 272.25,-289 272.25,-248 220,-248"/>
<text text-anchor="start" x="227" y="-266.57" font-family="Times New Roman,serif" font-weight="bold" font-size="9.00">Preschool</text>
<polygon fill="none" stroke="black" points="157.75,-247 157.75,-290 273.25,-290 273.25,-247 157.75,-247"/>
</g>
<!-- n_1_2_4_5_6&#45;&gt;n_1_2_5_6 -->
<g id="edge3" class="edge">
<title>n_1_2_4_5_6&#45;&gt;n_1_2_5_6</title>
<path fill="none" stroke="black" d="M263.8,-337.05C256.18,-326.4 247.5,-314.25 239.61,-303.22"/>
<polygon fill="black" stroke="black" points="242.47,-301.2 233.81,-295.11 236.78,-305.28 242.47,-301.2"/>
</g>
<!-- n_4 -->
<g id="node11" class="node">
<title>n_4</title>
<polygon fill="none" stroke="black" points="319.38,-255.88 319.38,-281.12 389.62,-281.12 389.62,-255.88 319.38,-255.88"/>
<text text-anchor="start" x="326.38" y="-266.57" font-family="Times New Roman,serif" font-weight="bold" font-size="9.00">Secondary (G)</text>
<polygon fill="none" stroke="black" points="318.38,-254.88 318.38,-282.12 390.62,-282.12 390.62,-254.88 318.38,-254.88"/>
</g>
<!-- n_1_2_4_5_6&#45;&gt;n_4 -->
<g id="edge10" class="edge">
<title>n_1_2_4_5_6&#45;&gt;n_4</title>
<path fill="none" stroke="black" d="M305.5,-337.05C315.07,-323.86 326.3,-308.38 335.59,-295.56"/>
<polygon fill="black" stroke="black" points="338.34,-297.74 341.38,-287.59 332.67,-293.63 338.34,-297.74"/>
</g>
<!-- n_1_5_6 -->
<g id="node5" class="node">
<title>n_1_5_6</title>
<polygon fill="none" stroke="black" points="92.62,-163 92.62,-195 147.12,-195 147.12,-163 92.62,-163"/>
<text text-anchor="start" x="100.38" y="-180.45" font-family="Times New Roman,serif" font-weight="bold" font-size="9.00">Technical</text>
<text text-anchor="start" x="99.62" y="-171.45" font-family="Times New Roman,serif" font-weight="bold" font-size="9.00">University</text>
<polygon fill="none" stroke="black" points="147.12,-163 147.12,-195 208.38,-195 208.38,-163 147.12,-163"/>
<text text-anchor="start" x="154.12" y="-177.07" font-family="Times New Roman,serif" font-weight="bold" font-size="9.00">Primary (G)</text>
<polygon fill="none" stroke="black" points="91.62,-162 91.62,-196 209.38,-196 209.38,-162 91.62,-162"/>
</g>
<!-- n_1_2_5_6&#45;&gt;n_1_5_6 -->
<g id="edge4" class="edge">
<title>n_1_2_5_6&#45;&gt;n_1_5_6</title>
<path fill="none" stroke="black" d="M197.39,-243.13C189.47,-232.46 180.12,-219.87 171.85,-208.75"/>
<polygon fill="black" stroke="black" points="174.9,-206.98 166.13,-201.04 169.28,-211.16 174.9,-206.98"/>
</g>
<!-- n_2 -->
<g id="node10" class="node">
<title>n_2</title>
<polygon fill="none" stroke="black" points="255.38,-166.38 255.38,-191.62 307.62,-191.62 307.62,-166.38 255.38,-166.38"/>
<text text-anchor="start" x="262.38" y="-177.07" font-family="Times New Roman,serif" font-weight="bold" font-size="9.00">Preschool</text>
<polygon fill="none" stroke="black" points="254.38,-165.38 254.38,-192.62 308.62,-192.62 308.62,-165.38 254.38,-165.38"/>
</g>
<!-- n_1_2_5_6&#45;&gt;n_2 -->
<g id="edge9" class="edge">
<title>n_1_2_5_6&#45;&gt;n_2</title>
<path fill="none" stroke="black" d="M233.88,-243.13C242.67,-231.48 253.19,-217.53 262.11,-205.71"/>
<polygon fill="black" stroke="black" points="264.71,-208.07 267.94,-197.98 259.12,-203.85 264.71,-208.07"/>
</g>
<!-- n_5_6 -->
<g id="node6" class="node">
<title>n_5_6</title>
<polygon fill="none" stroke="black" points="31.75,-84.38 31.75,-109.62 84.75,-109.62 84.75,-84.38 31.75,-84.38"/>
<text text-anchor="start" x="38.75" y="-95.08" font-family="Times New Roman,serif" font-weight="bold" font-size="9.00">Technical</text>
<polygon fill="none" stroke="black" points="84.75,-84.38 84.75,-109.62 139.25,-109.62 139.25,-84.38 84.75,-84.38"/>
<text text-anchor="start" x="91.75" y="-95.08" font-family="Times New Roman,serif" font-weight="bold" font-size="9.00">University</text>
<polygon fill="none" stroke="black" points="30.75,-83.38 30.75,-110.62 140.25,-110.62 140.25,-83.38 30.75,-83.38"/>
</g>
<!-- n_1_5_6&#45;&gt;n_5_6 -->
<g id="edge5" class="edge">
<title>n_1_5_6&#45;&gt;n_5_6</title>
<path fill="none" stroke="black" d="M134.43,-158.22C125.97,-147.81 115.5,-134.92 106.42,-123.74"/>
<polygon fill="black" stroke="black" points="109.16,-121.57 100.14,-116.02 103.73,-125.99 109.16,-121.57"/>
</g>
<!-- n_1 -->
<g id="node9" class="node">
<title>n_1</title>
<polygon fill="none" stroke="black" points="185.88,-84.38 185.88,-109.62 247.12,-109.62 247.12,-84.38 185.88,-84.38"/>
<text text-anchor="start" x="192.88" y="-95.08" font-family="Times New Roman,serif" font-weight="bold" font-size="9.00">Primary (G)</text>
<polygon fill="none" stroke="black" points="184.88,-83.38 184.88,-110.62 248.12,-110.62 248.12,-83.38 184.88,-83.38"/>
</g>
<!-- n_1_5_6&#45;&gt;n_1 -->
<g id="edge8" class="edge">
<title>n_1_5_6&#45;&gt;n_1</title>
<path fill="none" stroke="black" d="M166.81,-158.22C175.49,-147.71 186.25,-134.66 195.54,-123.41"/>
<polygon fill="black" stroke="black" points="197.98,-125.95 201.64,-116.01 192.58,-121.5 197.98,-125.95"/>
</g>
<!-- n_5 -->
<g id="node7" class="node">
<title>n_5</title>
<polygon fill="none" stroke="black" points="9,-5.38 9,-30.62 62,-30.62 62,-5.38 9,-5.38"/>
<text text-anchor="start" x="16" y="-16.07" font-family="Times New Roman,serif" font-weight="bold" font-size="9.00">Technical</text>
<polygon fill="none" stroke="black" points="8,-4.38 8,-31.62 63,-31.62 63,-4.38 8,-4.38"/>
</g>
<!-- n_5_6&#45;&gt;n_5 -->
<g id="edge6" class="edge">
<title>n_5_6&#45;&gt;n_5</title>
<path fill="none" stroke="black" d="M74.65,-79.29C68.21,-69.37 59.9,-56.57 52.59,-45.32"/>
<polygon fill="black" stroke="black" points="55.71,-43.69 47.33,-37.21 49.84,-47.5 55.71,-43.69"/>
</g>
<!-- n_6 -->
<g id="node8" class="node">
<title>n_6</title>
<polygon fill="none" stroke="black" points="109.25,-5.38 109.25,-30.62 163.75,-30.62 163.75,-5.38 109.25,-5.38"/>
<text text-anchor="start" x="116.25" y="-16.07" font-family="Times New Roman,serif" font-weight="bold" font-size="9.00">University</text>
<polygon fill="none" stroke="black" points="108.25,-4.38 108.25,-31.62 164.75,-31.62 164.75,-4.38 108.25,-4.38"/>
</g>
<!-- n_5_6&#45;&gt;n_6 -->
<g id="edge7" class="edge">
<title>n_5_6&#45;&gt;n_6</title>
<path fill="none" stroke="black" d="M96.57,-79.29C103.14,-69.37 111.61,-56.57 119.07,-45.32"/>
<polygon fill="black" stroke="black" points="121.84,-47.47 124.44,-37.2 116,-43.61 121.84,-47.47"/>
</g>
</g>
</svg>
