<?xml version="1.0" encoding="UTF-8" standalone="no"?>
<!DOCTYPE svg PUBLIC "-//W3C//DTD SVG 1.1//EN"
 "http://www.w3.org/Graphics/SVG/1.1/DTD/svg11.dtd">
<!-- Generated by graphviz version 10.0.1 (20240210.2158)
 -->
<!-- Title: ND Pages: 1 -->
<svg width="554pt" height="423pt"
 viewBox="0.00 0.00 554.12 423.00" xmlns="http://www.w3.org/2000/svg" xmlns:xlink="http://www.w3.org/1999/xlink">
<g id="graph0" class="graph" transform="scale(1 1) rotate(0) translate(4 419)">
<title>ND</title>
<polygon fill="white" stroke="none" points="-4,4 -4,-419 550.12,-419 550.12,4 -4,4"/>
<!-- n_0_1_2_3_4_5_6 -->
<g id="node1" class="node">
<title>n_0_1_2_3_4_5_6</title>
<polygon fill="none" stroke="black" points="302.38,-342 302.38,-410 372.62,-410 372.62,-342 302.38,-342"/>
<text text-anchor="start" x="314.62" y="-395.45" font-family="Times New Roman,serif" font-weight="bold" font-size="9.00">Primary (P)</text>
<text text-anchor="start" x="313.88" y="-386.45" font-family="Times New Roman,serif" font-weight="bold" font-size="9.00">Primary (G)</text>
<text text-anchor="start" x="318.38" y="-377.45" font-family="Times New Roman,serif" font-weight="bold" font-size="9.00">Preschool</text>
<text text-anchor="start" x="310.12" y="-368.45" font-family="Times New Roman,serif" font-weight="bold" font-size="9.00">Secondary (P)</text>
<text text-anchor="start" x="309.38" y="-359.45" font-family="Times New Roman,serif" font-weight="bold" font-size="9.00">Secondary (G)</text>
<text text-anchor="start" x="318" y="-350.45" font-family="Times New Roman,serif" font-weight="bold" font-size="9.00">Technical</text>
<polygon fill="none" stroke="black" points="372.62,-342 372.62,-410 427.12,-410 427.12,-342 372.62,-342"/>
<text text-anchor="start" x="379.62" y="-374.07" font-family="Times New Roman,serif" font-weight="bold" font-size="9.00">University</text>
<polygon fill="none" stroke="black" points="301.38,-341 301.38,-411 428.12,-411 428.12,-341 301.38,-341"/>
</g>
<!-- n_0_1_2_3_4_5 -->
<g id="node2" class="node">
<title>n_0_1_2_3_4_5</title>
<polygon fill="none" stroke="black" points="223.25,-248 223.25,-289 293.5,-289 293.5,-248 223.25,-248"/>
<text text-anchor="start" x="235.5" y="-274.45" font-family="Times New Roman,serif" font-weight="bold" font-size="9.00">Primary (P)</text>
<text text-anchor="start" x="234.75" y="-265.45" font-family="Times New Roman,serif" font-weight="bold" font-size="9.00">Primary (G)</text>
<text text-anchor="start" x="230.25" y="-256.45" font-family="Times New Roman,serif" font-weight="bold" font-size="9.00">Secondary (G)</text>
<polygon fill="none" stroke="black" points="293.5,-248 293.5,-289 362.25,-289 362.25,-248 293.5,-248"/>
<text text-anchor="start" x="308.75" y="-274.45" font-family="Times New Roman,serif" font-weight="bold" font-size="9.00">Preschool</text>
<text text-anchor="start" x="300.5" y="-265.45" font-family="Times New Roman,serif" font-weight="bold" font-size="9.00">Secondary (P)</text>
<text text-anchor="start" x="308.38" y="-256.45" font-family="Times New Roman,serif" font-weight="bold" font-size="9.00">Technical</text>
<polygon fill="none" stroke="black" points="222.25,-247 222.25,-290 363.25,-290 363.25,-247 222.25,-247"/>
</g>
<!-- n_0_1_2_3_4_5_6&#45;&gt;n_0_1_2_3_4_5 -->
<g id="edge1" class="edge">
<title>n_0_1_2_3_4_5_6&#45;&gt;n_0_1_2_3_4_5</title>
<path fill="none" stroke="black" d="M338.96,-337.21C331.42,-326.16 323.23,-314.17 315.87,-303.38"/>
<polygon fill="black" stroke="black" points="318.77,-301.41 310.24,-295.13 312.98,-305.36 318.77,-301.41"/>
</g>
<!-- n_6 -->
<g id="node13" class="node">
<title>n_6</title>
<polygon fill="none" stroke="black" points="409.5,-255.88 409.5,-281.12 464,-281.12 464,-255.88 409.5,-255.88"/>
<text text-anchor="start" x="416.5" y="-266.57" font-family="Times New Roman,serif" font-weight="bold" font-size="9.00">University</text>
<polygon fill="none" stroke="black" points="408.5,-254.88 408.5,-282.12 465,-282.12 465,-254.88 408.5,-254.88"/>
</g>
<!-- n_0_1_2_3_4_5_6&#45;&gt;n_6 -->
<g id="edge12" class="edge">
<title>n_0_1_2_3_4_5_6&#45;&gt;n_6</title>
<path fill="none" stroke="black" d="M390.54,-337.21C399.9,-323.49 410.27,-308.31 418.8,-295.8"/>
<polygon fill="black" stroke="black" points="421.6,-297.9 424.35,-287.67 415.82,-293.96 421.6,-297.9"/>
</g>
<!-- n_0_1_4 -->
<g id="node3" class="node">
<title>n_0_1_4</title>
<polygon fill="none" stroke="black" points="141.75,-163 141.75,-195 212,-195 212,-163 141.75,-163"/>
<text text-anchor="start" x="153.25" y="-180.45" font-family="Times New Roman,serif" font-weight="bold" font-size="9.00">Primary (G)</text>
<text text-anchor="start" x="148.75" y="-171.45" font-family="Times New Roman,serif" font-weight="bold" font-size="9.00">Secondary (G)</text>
<polygon fill="none" stroke="black" points="212,-163 212,-195 271.75,-195 271.75,-163 212,-163"/>
<text text-anchor="start" x="219" y="-177.07" font-family="Times New Roman,serif" font-weight="bold" font-size="9.00">Primary (P)</text>
<polygon fill="none" stroke="black" points="140.75,-162 140.75,-196 272.75,-196 272.75,-162 140.75,-162"/>
</g>
<!-- n_0_1_2_3_4_5&#45;&gt;n_0_1_4 -->
<g id="edge2" class="edge">
<title>n_0_1_2_3_4_5&#45;&gt;n_0_1_4</title>
<path fill="none" stroke="black" d="M268.79,-243.13C258,-232.14 245.19,-219.11 234.02,-207.75"/>
<polygon fill="black" stroke="black" points="236.8,-205.58 227.3,-200.91 231.81,-210.49 236.8,-205.58"/>
</g>
<!-- n_2_3_5 -->
<g id="node8" class="node">
<title>n_2_3_5</title>
<polygon fill="none" stroke="black" points="318.88,-163 318.88,-195 371.88,-195 371.88,-163 318.88,-163"/>
<text text-anchor="start" x="326.25" y="-180.45" font-family="Times New Roman,serif" font-weight="bold" font-size="9.00">Preschool</text>
<text text-anchor="start" x="325.88" y="-171.45" font-family="Times New Roman,serif" font-weight="bold" font-size="9.00">Technical</text>
<polygon fill="none" stroke="black" points="371.88,-163 371.88,-195 440.62,-195 440.62,-163 371.88,-163"/>
<text text-anchor="start" x="378.88" y="-177.07" font-family="Times New Roman,serif" font-weight="bold" font-size="9.00">Secondary (P)</text>
<polygon fill="none" stroke="black" points="317.88,-162 317.88,-196 441.62,-196 441.62,-162 317.88,-162"/>
</g>
<!-- n_0_1_2_3_4_5&#45;&gt;n_2_3_5 -->
<g id="edge7" class="edge">
<title>n_0_1_2_3_4_5&#45;&gt;n_2_3_5</title>
<path fill="none" stroke="black" d="M316.98,-243.13C327.91,-232.14 340.86,-219.11 352.16,-207.75"/>
<polygon fill="black" stroke="black" points="354.4,-210.46 358.97,-200.9 349.44,-205.52 354.4,-210.46"/>
</g>
<!-- n_1_4 -->
<g id="node4" class="node">
<title>n_1_4</title>
<polygon fill="none" stroke="black" points="9,-84.38 9,-109.62 70.25,-109.62 70.25,-84.38 9,-84.38"/>
<text text-anchor="start" x="16" y="-95.08" font-family="Times New Roman,serif" font-weight="bold" font-size="9.00">Primary (G)</text>
<polygon fill="none" stroke="black" points="70.25,-84.38 70.25,-109.62 140.5,-109.62 140.5,-84.38 70.25,-84.38"/>
<text text-anchor="start" x="77.25" y="-95.08" font-family="Times New Roman,serif" font-weight="bold" font-size="9.00">Secondary (G)</text>
<polygon fill="none" stroke="black" points="8,-83.38 8,-110.62 141.5,-110.62 141.5,-83.38 8,-83.38"/>
</g>
<!-- n_0_1_4&#45;&gt;n_1_4 -->
<g id="edge3" class="edge">
<title>n_0_1_4&#45;&gt;n_1_4</title>
<path fill="none" stroke="black" d="M173.78,-158.02C155.05,-146.67 131.54,-132.42 112.13,-120.66"/>
<polygon fill="black" stroke="black" points="114.06,-117.73 103.7,-115.54 110.43,-123.72 114.06,-117.73"/>
</g>
<!-- n_0 -->
<g id="node7" class="node">
<title>n_0</title>
<polygon fill="none" stroke="black" points="187.88,-84.38 187.88,-109.62 247.62,-109.62 247.62,-84.38 187.88,-84.38"/>
<text text-anchor="start" x="194.88" y="-95.08" font-family="Times New Roman,serif" font-weight="bold" font-size="9.00">Primary (P)</text>
<polygon fill="none" stroke="black" points="186.88,-83.38 186.88,-110.62 248.62,-110.62 248.62,-83.38 186.88,-83.38"/>
</g>
<!-- n_0_1_4&#45;&gt;n_0 -->
<g id="edge6" class="edge">
<title>n_0_1_4&#45;&gt;n_0</title>
<path fill="none" stroke="black" d="M209.47,-158.22C210.8,-148.54 212.43,-136.72 213.88,-126.11"/>
<polygon fill="black" stroke="black" points="217.33,-126.73 215.23,-116.34 210.4,-125.77 217.33,-126.73"/>
</g>
<!-- n_1 -->
<g id="node5" class="node">
<title>n_1</title>
<polygon fill="none" stroke="black" points="20.12,-5.38 20.12,-30.62 81.38,-30.62 81.38,-5.38 20.12,-5.38"/>
<text text-anchor="start" x="27.12" y="-16.07" font-family="Times New Roman,serif" font-weight="bold" font-size="9.00">Primary (G)</text>
<polygon fill="none" stroke="black" points="19.12,-4.38 19.12,-31.62 82.38,-31.62 82.38,-4.38 19.12,-4.38"/>
</g>
<!-- n_1_4&#45;&gt;n_1 -->
<g id="edge4" class="edge">
<title>n_1_4&#45;&gt;n_1</title>
<path fill="none" stroke="black" d="M69.54,-79.29C66.58,-69.77 62.78,-57.6 59.38,-46.69"/>
<polygon fill="black" stroke="black" points="62.8,-45.89 56.48,-37.39 56.12,-47.97 62.8,-45.89"/>
</g>
<!-- n_4 -->
<g id="node6" class="node">
<title>n_4</title>
<polygon fill="none" stroke="black" points="128.62,-5.38 128.62,-30.62 198.88,-30.62 198.88,-5.38 128.62,-5.38"/>
<text text-anchor="start" x="135.62" y="-16.07" font-family="Times New Roman,serif" font-weight="bold" font-size="9.00">Secondary (G)</text>
<polygon fill="none" stroke="black" points="127.62,-4.38 127.62,-31.62 199.88,-31.62 199.88,-4.38 127.62,-4.38"/>
</g>
<!-- n_1_4&#45;&gt;n_4 -->
<g id="edge5" class="edge">
<title>n_1_4&#45;&gt;n_4</title>
<path fill="none" stroke="black" d="M94.06,-79.29C106.22,-68.77 122.13,-55.01 135.67,-43.29"/>
<polygon fill="black" stroke="black" points="137.75,-46.12 143.02,-36.93 133.17,-40.83 137.75,-46.12"/>
</g>
<!-- n_2_5 -->
<g id="node9" class="node">
<title>n_2_5</title>
<polygon fill="none" stroke="black" points="316.12,-84.38 316.12,-109.62 368.38,-109.62 368.38,-84.38 316.12,-84.38"/>
<text text-anchor="start" x="323.12" y="-95.08" font-family="Times New Roman,serif" font-weight="bold" font-size="9.00">Preschool</text>
<polygon fill="none" stroke="black" points="368.38,-84.38 368.38,-109.62 421.38,-109.62 421.38,-84.38 368.38,-84.38"/>
<text text-anchor="start" x="375.38" y="-95.08" font-family="Times New Roman,serif" font-weight="bold" font-size="9.00">Technical</text>
<polygon fill="none" stroke="black" points="315.12,-83.38 315.12,-110.62 422.38,-110.62 422.38,-83.38 315.12,-83.38"/>
</g>
<!-- n_2_3_5&#45;&gt;n_2_5 -->
<g id="edge8" class="edge">
<title>n_2_3_5&#45;&gt;n_2_5</title>
<path fill="none" stroke="black" d="M377.03,-158.22C375.7,-148.54 374.07,-136.72 372.62,-126.11"/>
<polygon fill="black" stroke="black" points="376.1,-125.77 371.27,-116.34 369.17,-126.73 376.1,-125.77"/>
</g>
<!-- n_3 -->
<g id="node12" class="node">
<title>n_3</title>
<polygon fill="none" stroke="black" points="468.38,-84.38 468.38,-109.62 537.12,-109.62 537.12,-84.38 468.38,-84.38"/>
<text text-anchor="start" x="475.38" y="-95.08" font-family="Times New Roman,serif" font-weight="bold" font-size="9.00">Secondary (P)</text>
<polygon fill="none" stroke="black" points="467.38,-83.38 467.38,-110.62 538.12,-110.62 538.12,-83.38 467.38,-83.38"/>
</g>
<!-- n_2_3_5&#45;&gt;n_3 -->
<g id="edge11" class="edge">
<title>n_2_3_5&#45;&gt;n_3</title>
<path fill="none" stroke="black" d="M410.47,-158.02C427.76,-146.77 449.43,-132.68 467.42,-120.98"/>
<polygon fill="black" stroke="black" points="469.24,-123.97 475.72,-115.58 465.42,-118.1 469.24,-123.97"/>
</g>
<!-- n_2 -->
<g id="node10" class="node">
<title>n_2</title>
<polygon fill="none" stroke="black" points="283.62,-5.38 283.62,-30.62 335.88,-30.62 335.88,-5.38 283.62,-5.38"/>
<text text-anchor="start" x="290.62" y="-16.07" font-family="Times New Roman,serif" font-weight="bold" font-size="9.00">Preschool</text>
<polygon fill="none" stroke="black" points="282.62,-4.38 282.62,-31.62 336.88,-31.62 336.88,-4.38 282.62,-4.38"/>
</g>
<!-- n_2_5&#45;&gt;n_2 -->
<g id="edge9" class="edge">
<title>n_2_5&#45;&gt;n_2</title>
<path fill="none" stroke="black" d="M355.95,-79.29C348.27,-69.27 338.34,-56.31 329.66,-44.98"/>
<polygon fill="black" stroke="black" points="332.51,-42.95 323.65,-37.14 326.96,-47.21 332.51,-42.95"/>
</g>
<!-- n_5 -->
<g id="node11" class="node">
<title>n_5</title>
<polygon fill="none" stroke="black" points="383.25,-5.38 383.25,-30.62 436.25,-30.62 436.25,-5.38 383.25,-5.38"/>
<text text-anchor="start" x="390.25" y="-16.07" font-family="Times New Roman,serif" font-weight="bold" font-size="9.00">Technical</text>
<polygon fill="none" stroke="black" points="382.25,-4.38 382.25,-31.62 437.25,-31.62 437.25,-4.38 382.25,-4.38"/>
</g>
<!-- n_2_5&#45;&gt;n_5 -->
<g id="edge10" class="edge">
<title>n_2_5&#45;&gt;n_5</title>
<path fill="none" stroke="black" d="M377.65,-79.29C382.82,-69.57 389.47,-57.09 395.37,-46"/>
<polygon fill="black" stroke="black" points="398.41,-47.75 400.02,-37.28 392.23,-44.46 398.41,-47.75"/>
</g>
</g>
</svg>
