<?xml version="1.0" encoding="UTF-8" standalone="no"?>
<!DOCTYPE svg PUBLIC "-//W3C//DTD SVG 1.1//EN"
 "http://www.w3.org/Graphics/SVG/1.1/DTD/svg11.dtd">
<!-- Generated by graphviz version 10.0.1 (20240210.2158)
 -->
<!-- Title: ND Pages: 1 -->
<svg width="561pt" height="535pt"
 viewBox="0.00 0.00 561.25 535.00" xmlns="http://www.w3.org/2000/svg" xmlns:xlink="http://www.w3.org/1999/xlink">
<g id="graph0" class="graph" transform="scale(1 1) rotate(0) translate(4 531)">
<title>ND</title>
<polygon fill="white" stroke="none" points="-4,4 -4,-531 557.25,-531 557.25,4 -4,4"/>
<!-- n_0_1_2_3_4_5_6 -->
<g id="node1" class="node">
<title>n_0_1_2_3_4_5_6</title>
<polygon fill="none" stroke="black" points="367.62,-454 367.62,-522 436.38,-522 436.38,-454 367.62,-454"/>
<text text-anchor="start" x="379.12" y="-507.45" font-family="Times New Roman,serif" font-weight="bold" font-size="9.00">Primary (P)</text>
<text text-anchor="start" x="378.38" y="-498.45" font-family="Times New Roman,serif" font-weight="bold" font-size="9.00">Primary (G)</text>
<text text-anchor="start" x="382.88" y="-489.45" font-family="Times New Roman,serif" font-weight="bold" font-size="9.00">Preschool</text>
<text text-anchor="start" x="374.62" y="-480.45" font-family="Times New Roman,serif" font-weight="bold" font-size="9.00">Secondary (P)</text>
<text text-anchor="start" x="382.5" y="-471.45" font-family="Times New Roman,serif" font-weight="bold" font-size="9.00">Technical</text>
<text text-anchor="start" x="381.75" y="-462.45" font-family="Times New Roman,serif" font-weight="bold" font-size="9.00">University</text>
<polygon fill="none" stroke="black" points="436.38,-454 436.38,-522 506.62,-522 506.62,-454 436.38,-454"/>
<text text-anchor="start" x="443.38" y="-486.07" font-family="Times New Roman,serif" font-weight="bold" font-size="9.00">Secondary (G)</text>
<polygon fill="none" stroke="black" points="366.62,-453 366.62,-523 507.62,-523 507.62,-453 366.62,-453"/>
</g>
<!-- n_0_1_2_3_5_6 -->
<g id="node2" class="node">
<title>n_0_1_2_3_5_6</title>
<polygon fill="none" stroke="black" points="303.5,-342 303.5,-401 372.25,-401 372.25,-342 303.5,-342"/>
<text text-anchor="start" x="315" y="-386.45" font-family="Times New Roman,serif" font-weight="bold" font-size="9.00">Primary (P)</text>
<text text-anchor="start" x="314.25" y="-377.45" font-family="Times New Roman,serif" font-weight="bold" font-size="9.00">Primary (G)</text>
<text text-anchor="start" x="318.75" y="-368.45" font-family="Times New Roman,serif" font-weight="bold" font-size="9.00">Preschool</text>
<text text-anchor="start" x="310.5" y="-359.45" font-family="Times New Roman,serif" font-weight="bold" font-size="9.00">Secondary (P)</text>
<text text-anchor="start" x="318.38" y="-350.45" font-family="Times New Roman,serif" font-weight="bold" font-size="9.00">Technical</text>
<polygon fill="none" stroke="black" points="372.25,-342 372.25,-401 426.75,-401 426.75,-342 372.25,-342"/>
<text text-anchor="start" x="379.25" y="-369.57" font-family="Times New Roman,serif" font-weight="bold" font-size="9.00">University</text>
<polygon fill="none" stroke="black" points="302.5,-341 302.5,-402 427.75,-402 427.75,-341 302.5,-341"/>
</g>
<!-- n_0_1_2_3_4_5_6&#45;&gt;n_0_1_2_3_5_6 -->
<g id="edge1" class="edge">
<title>n_0_1_2_3_4_5_6&#45;&gt;n_0_1_2_3_5_6</title>
<path fill="none" stroke="black" d="M413.35,-449.19C406.51,-438.31 399,-426.36 391.98,-415.21"/>
<polygon fill="black" stroke="black" points="395.06,-413.54 386.78,-406.93 389.14,-417.26 395.06,-413.54"/>
</g>
<!-- n_4 -->
<g id="node13" class="node">
<title>n_4</title>
<polygon fill="none" stroke="black" points="474,-358.88 474,-384.12 544.25,-384.12 544.25,-358.88 474,-358.88"/>
<text text-anchor="start" x="481" y="-369.57" font-family="Times New Roman,serif" font-weight="bold" font-size="9.00">Secondary (G)</text>
<polygon fill="none" stroke="black" points="473,-357.88 473,-385.12 545.25,-385.12 545.25,-357.88 473,-357.88"/>
</g>
<!-- n_0_1_2_3_4_5_6&#45;&gt;n_4 -->
<g id="edge12" class="edge">
<title>n_0_1_2_3_4_5_6&#45;&gt;n_4</title>
<path fill="none" stroke="black" d="M460.9,-449.19C471.22,-432.78 483.05,-413.96 492.42,-399.07"/>
<polygon fill="black" stroke="black" points="495.29,-401.07 497.65,-390.74 489.37,-397.35 495.29,-401.07"/>
</g>
<!-- n_0_1_2_3_5 -->
<g id="node3" class="node">
<title>n_0_1_2_3_5</title>
<polygon fill="none" stroke="black" points="231.88,-248 231.88,-289 300.62,-289 300.62,-248 231.88,-248"/>
<text text-anchor="start" x="242.62" y="-274.45" font-family="Times New Roman,serif" font-weight="bold" font-size="9.00">Primary (G)</text>
<text text-anchor="start" x="247.12" y="-265.45" font-family="Times New Roman,serif" font-weight="bold" font-size="9.00">Preschool</text>
<text text-anchor="start" x="238.88" y="-256.45" font-family="Times New Roman,serif" font-weight="bold" font-size="9.00">Secondary (P)</text>
<polygon fill="none" stroke="black" points="300.62,-248 300.62,-289 360.38,-289 360.38,-248 300.62,-248"/>
<text text-anchor="start" x="307.62" y="-269.95" font-family="Times New Roman,serif" font-weight="bold" font-size="9.00">Primary (P)</text>
<text text-anchor="start" x="311" y="-260.95" font-family="Times New Roman,serif" font-weight="bold" font-size="9.00">Technical</text>
<polygon fill="none" stroke="black" points="230.88,-247 230.88,-290 361.38,-290 361.38,-247 230.88,-247"/>
</g>
<!-- n_0_1_2_3_5_6&#45;&gt;n_0_1_2_3_5 -->
<g id="edge2" class="edge">
<title>n_0_1_2_3_5_6&#45;&gt;n_0_1_2_3_5</title>
<path fill="none" stroke="black" d="M342.34,-337.15C334.87,-326.22 326.57,-314.07 319.09,-303.12"/>
<polygon fill="black" stroke="black" points="322.15,-301.39 313.62,-295.11 316.37,-305.34 322.15,-301.39"/>
</g>
<!-- n_6 -->
<g id="node12" class="node">
<title>n_6</title>
<polygon fill="none" stroke="black" points="407.88,-255.88 407.88,-281.12 462.38,-281.12 462.38,-255.88 407.88,-255.88"/>
<text text-anchor="start" x="414.88" y="-266.57" font-family="Times New Roman,serif" font-weight="bold" font-size="9.00">University</text>
<polygon fill="none" stroke="black" points="406.88,-254.88 406.88,-282.12 463.38,-282.12 463.38,-254.88 406.88,-254.88"/>
</g>
<!-- n_0_1_2_3_5_6&#45;&gt;n_6 -->
<g id="edge11" class="edge">
<title>n_0_1_2_3_5_6&#45;&gt;n_6</title>
<path fill="none" stroke="black" d="M388.24,-337.15C397.63,-323.6 408.32,-308.17 417.12,-295.48"/>
<polygon fill="black" stroke="black" points="419.74,-297.84 422.56,-287.62 413.99,-293.85 419.74,-297.84"/>
</g>
<!-- n_1_2_3 -->
<g id="node4" class="node">
<title>n_1_2_3</title>
<polygon fill="none" stroke="black" points="147.12,-163 147.12,-195 215.88,-195 215.88,-163 147.12,-163"/>
<text text-anchor="start" x="162.38" y="-180.45" font-family="Times New Roman,serif" font-weight="bold" font-size="9.00">Preschool</text>
<text text-anchor="start" x="154.12" y="-171.45" font-family="Times New Roman,serif" font-weight="bold" font-size="9.00">Secondary (P)</text>
<polygon fill="none" stroke="black" points="215.88,-163 215.88,-195 277.12,-195 277.12,-163 215.88,-163"/>
<text text-anchor="start" x="222.88" y="-177.07" font-family="Times New Roman,serif" font-weight="bold" font-size="9.00">Primary (G)</text>
<polygon fill="none" stroke="black" points="146.12,-162 146.12,-196 278.12,-196 278.12,-162 146.12,-162"/>
</g>
<!-- n_0_1_2_3_5&#45;&gt;n_1_2_3 -->
<g id="edge3" class="edge">
<title>n_0_1_2_3_5&#45;&gt;n_1_2_3</title>
<path fill="none" stroke="black" d="M272.73,-243.13C262.28,-232.25 249.91,-219.36 239.08,-208.08"/>
<polygon fill="black" stroke="black" points="241.66,-205.71 232.21,-200.92 236.61,-210.56 241.66,-205.71"/>
</g>
<!-- n_0_5 -->
<g id="node9" class="node">
<title>n_0_5</title>
<polygon fill="none" stroke="black" points="323.75,-166.38 323.75,-191.62 383.5,-191.62 383.5,-166.38 323.75,-166.38"/>
<text text-anchor="start" x="330.75" y="-177.07" font-family="Times New Roman,serif" font-weight="bold" font-size="9.00">Primary (P)</text>
<polygon fill="none" stroke="black" points="383.5,-166.38 383.5,-191.62 436.5,-191.62 436.5,-166.38 383.5,-166.38"/>
<text text-anchor="start" x="390.5" y="-177.07" font-family="Times New Roman,serif" font-weight="bold" font-size="9.00">Technical</text>
<polygon fill="none" stroke="black" points="322.75,-165.38 322.75,-192.62 437.5,-192.62 437.5,-165.38 322.75,-165.38"/>
</g>
<!-- n_0_1_2_3_5&#45;&gt;n_0_5 -->
<g id="edge8" class="edge">
<title>n_0_1_2_3_5&#45;&gt;n_0_5</title>
<path fill="none" stroke="black" d="M319.52,-243.13C330.93,-231.24 344.63,-216.97 356.12,-205.01"/>
<polygon fill="black" stroke="black" points="358.58,-207.5 362.98,-197.86 353.53,-202.65 358.58,-207.5"/>
</g>
<!-- n_2_3 -->
<g id="node5" class="node">
<title>n_2_3</title>
<polygon fill="none" stroke="black" points="28.62,-84.38 28.62,-109.62 80.88,-109.62 80.88,-84.38 28.62,-84.38"/>
<text text-anchor="start" x="35.62" y="-95.08" font-family="Times New Roman,serif" font-weight="bold" font-size="9.00">Preschool</text>
<polygon fill="none" stroke="black" points="80.88,-84.38 80.88,-109.62 149.62,-109.62 149.62,-84.38 80.88,-84.38"/>
<text text-anchor="start" x="87.88" y="-95.08" font-family="Times New Roman,serif" font-weight="bold" font-size="9.00">Secondary (P)</text>
<polygon fill="none" stroke="black" points="27.62,-83.38 27.62,-110.62 150.62,-110.62 150.62,-83.38 27.62,-83.38"/>
</g>
<!-- n_1_2_3&#45;&gt;n_2_3 -->
<g id="edge4" class="edge">
<title>n_1_2_3&#45;&gt;n_2_3</title>
<path fill="none" stroke="black" d="M181.4,-158.02C164.11,-146.77 142.45,-132.68 124.46,-120.98"/>
<polygon fill="black" stroke="black" points="126.45,-118.1 116.16,-115.58 122.63,-123.97 126.45,-118.1"/>
</g>
<!-- n_1 -->
<g id="node8" class="node">
<title>n_1</title>
<polygon fill="none" stroke="black" points="196.5,-84.38 196.5,-109.62 257.75,-109.62 257.75,-84.38 196.5,-84.38"/>
<text text-anchor="start" x="203.5" y="-95.08" font-family="Times New Roman,serif" font-weight="bold" font-size="9.00">Primary (G)</text>
<polygon fill="none" stroke="black" points="195.5,-83.38 195.5,-110.62 258.75,-110.62 258.75,-83.38 195.5,-83.38"/>
</g>
<!-- n_1_2_3&#45;&gt;n_1 -->
<g id="edge7" class="edge">
<title>n_1_2_3&#45;&gt;n_1</title>
<path fill="none" stroke="black" d="M215.83,-158.22C217.65,-148.54 219.87,-136.72 221.85,-126.11"/>
<polygon fill="black" stroke="black" points="225.28,-126.81 223.69,-116.33 218.4,-125.52 225.28,-126.81"/>
</g>
<!-- n_2 -->
<g id="node6" class="node">
<title>n_2</title>
<polygon fill="none" stroke="black" points="9,-5.38 9,-30.62 61.25,-30.62 61.25,-5.38 9,-5.38"/>
<text text-anchor="start" x="16" y="-16.07" font-family="Times New Roman,serif" font-weight="bold" font-size="9.00">Preschool</text>
<polygon fill="none" stroke="black" points="8,-4.38 8,-31.62 62.25,-31.62 62.25,-4.38 8,-4.38"/>
</g>
<!-- n_2_3&#45;&gt;n_2 -->
<g id="edge5" class="edge">
<title>n_2_3&#45;&gt;n_2</title>
<path fill="none" stroke="black" d="M77.41,-79.29C70.45,-69.37 61.47,-56.57 53.58,-45.32"/>
<polygon fill="black" stroke="black" points="56.48,-43.36 47.87,-37.18 50.75,-47.38 56.48,-43.36"/>
</g>
<!-- n_3 -->
<g id="node7" class="node">
<title>n_3</title>
<polygon fill="none" stroke="black" points="108.75,-5.38 108.75,-30.62 177.5,-30.62 177.5,-5.38 108.75,-5.38"/>
<text text-anchor="start" x="115.75" y="-16.07" font-family="Times New Roman,serif" font-weight="bold" font-size="9.00">Secondary (P)</text>
<polygon fill="none" stroke="black" points="107.75,-4.38 107.75,-31.62 178.5,-31.62 178.5,-4.38 107.75,-4.38"/>
</g>
<!-- n_2_3&#45;&gt;n_3 -->
<g id="edge6" class="edge">
<title>n_2_3&#45;&gt;n_3</title>
<path fill="none" stroke="black" d="M100.84,-79.29C107.8,-69.37 116.78,-56.57 124.67,-45.32"/>
<polygon fill="black" stroke="black" points="127.5,-47.38 130.38,-37.18 121.77,-43.36 127.5,-47.38"/>
</g>
<!-- n_0 -->
<g id="node10" class="node">
<title>n_0</title>
<polygon fill="none" stroke="black" points="335.25,-84.38 335.25,-109.62 395,-109.62 395,-84.38 335.25,-84.38"/>
<text text-anchor="start" x="342.25" y="-95.08" font-family="Times New Roman,serif" font-weight="bold" font-size="9.00">Primary (P)</text>
<polygon fill="none" stroke="black" points="334.25,-83.38 334.25,-110.62 396,-110.62 396,-83.38 334.25,-83.38"/>
</g>
<!-- n_0_5&#45;&gt;n_0 -->
<g id="edge9" class="edge">
<title>n_0_5&#45;&gt;n_0</title>
<path fill="none" stroke="black" d="M376.94,-161.03C375.03,-150.85 372.56,-137.65 370.37,-125.96"/>
<polygon fill="black" stroke="black" points="373.86,-125.61 368.58,-116.43 366.98,-126.9 373.86,-125.61"/>
</g>
<!-- n_5 -->
<g id="node11" class="node">
<title>n_5</title>
<polygon fill="none" stroke="black" points="441.62,-84.38 441.62,-109.62 494.62,-109.62 494.62,-84.38 441.62,-84.38"/>
<text text-anchor="start" x="448.62" y="-95.08" font-family="Times New Roman,serif" font-weight="bold" font-size="9.00">Technical</text>
<polygon fill="none" stroke="black" points="440.62,-83.38 440.62,-110.62 495.62,-110.62 495.62,-83.38 440.62,-83.38"/>
</g>
<!-- n_0_5&#45;&gt;n_5 -->
<g id="edge10" class="edge">
<title>n_0_5&#45;&gt;n_5</title>
<path fill="none" stroke="black" d="M398.79,-161.03C411.15,-149.79 427.57,-134.87 441.33,-122.36"/>
<polygon fill="black" stroke="black" points="443.32,-125.28 448.37,-115.96 438.62,-120.1 443.32,-125.28"/>
</g>
</g>
</svg>
