<?xml version="1.0" encoding="UTF-8" standalone="no"?>
<!DOCTYPE svg PUBLIC "-//W3C//DTD SVG 1.1//EN"
 "http://www.w3.org/Graphics/SVG/1.1/DTD/svg11.dtd">
<!-- Generated by graphviz version 10.0.1 (20240210.2158)
 -->
<!-- Title: ND Pages: 1 -->
<svg width="692pt" height="414pt"
 viewBox="0.00 0.00 691.88 414.00" xmlns="http://www.w3.org/2000/svg" xmlns:xlink="http://www.w3.org/1999/xlink">
<g id="graph0" class="graph" transform="scale(1 1) rotate(0) translate(4 410)">
<title>ND</title>
<polygon fill="white" stroke="none" points="-4,4 -4,-410 687.88,-410 687.88,4 -4,4"/>
<!-- n_0_1_2_3_4_5_6 -->
<g id="node1" class="node">
<title>n_0_1_2_3_4_5_6</title>
<polygon fill="none" stroke="black" points="409.75,-342 409.75,-401 480,-401 480,-342 409.75,-342"/>
<text text-anchor="start" x="422" y="-386.45" font-family="Times New Roman,serif" font-weight="bold" font-size="9.00">Primary (P)</text>
<text text-anchor="start" x="421.25" y="-377.45" font-family="Times New Roman,serif" font-weight="bold" font-size="9.00">Primary (G)</text>
<text text-anchor="start" x="417.5" y="-368.45" font-family="Times New Roman,serif" font-weight="bold" font-size="9.00">Secondary (P)</text>
<text text-anchor="start" x="416.75" y="-359.45" font-family="Times New Roman,serif" font-weight="bold" font-size="9.00">Secondary (G)</text>
<text text-anchor="start" x="424.62" y="-350.45" font-family="Times New Roman,serif" font-weight="bold" font-size="9.00">University</text>
<polygon fill="none" stroke="black" points="480,-342 480,-401 533,-401 533,-342 480,-342"/>
<text text-anchor="start" x="487.38" y="-372.95" font-family="Times New Roman,serif" font-weight="bold" font-size="9.00">Preschool</text>
<text text-anchor="start" x="487" y="-363.95" font-family="Times New Roman,serif" font-weight="bold" font-size="9.00">Technical</text>
<polygon fill="none" stroke="black" points="408.75,-341 408.75,-402 534,-402 534,-341 408.75,-341"/>
</g>
<!-- n_0_1_3_4_6 -->
<g id="node2" class="node">
<title>n_0_1_3_4_6</title>
<polygon fill="none" stroke="black" points="317.88,-248 317.88,-289 386.62,-289 386.62,-248 317.88,-248"/>
<text text-anchor="start" x="328.62" y="-274.45" font-family="Times New Roman,serif" font-weight="bold" font-size="9.00">Primary (G)</text>
<text text-anchor="start" x="324.88" y="-265.45" font-family="Times New Roman,serif" font-weight="bold" font-size="9.00">Secondary (P)</text>
<text text-anchor="start" x="332" y="-256.45" font-family="Times New Roman,serif" font-weight="bold" font-size="9.00">University</text>
<polygon fill="none" stroke="black" points="386.62,-248 386.62,-289 456.88,-289 456.88,-248 386.62,-248"/>
<text text-anchor="start" x="398.88" y="-269.95" font-family="Times New Roman,serif" font-weight="bold" font-size="9.00">Primary (P)</text>
<text text-anchor="start" x="393.62" y="-260.95" font-family="Times New Roman,serif" font-weight="bold" font-size="9.00">Secondary (G)</text>
<polygon fill="none" stroke="black" points="316.88,-247 316.88,-290 457.88,-290 457.88,-247 316.88,-247"/>
</g>
<!-- n_0_1_2_3_4_5_6&#45;&gt;n_0_1_3_4_6 -->
<g id="edge1" class="edge">
<title>n_0_1_2_3_4_5_6&#45;&gt;n_0_1_3_4_6</title>
<path fill="none" stroke="black" d="M443.64,-337.15C434.36,-326 424.03,-313.58 414.78,-302.45"/>
<polygon fill="black" stroke="black" points="417.69,-300.47 408.6,-295.02 412.31,-304.95 417.69,-300.47"/>
</g>
<!-- n_2_5 -->
<g id="node11" class="node">
<title>n_2_5</title>
<polygon fill="none" stroke="black" points="503.75,-255.88 503.75,-281.12 556,-281.12 556,-255.88 503.75,-255.88"/>
<text text-anchor="start" x="510.75" y="-266.57" font-family="Times New Roman,serif" font-weight="bold" font-size="9.00">Preschool</text>
<polygon fill="none" stroke="black" points="556,-255.88 556,-281.12 609,-281.12 609,-255.88 556,-255.88"/>
<text text-anchor="start" x="563" y="-266.57" font-family="Times New Roman,serif" font-weight="bold" font-size="9.00">Technical</text>
<polygon fill="none" stroke="black" points="502.75,-254.88 502.75,-282.12 610,-282.12 610,-254.88 502.75,-254.88"/>
</g>
<!-- n_0_1_2_3_4_5_6&#45;&gt;n_2_5 -->
<g id="edge10" class="edge">
<title>n_0_1_2_3_4_5_6&#45;&gt;n_2_5</title>
<path fill="none" stroke="black" d="M499.44,-337.15C510.96,-323.46 524.08,-307.87 534.83,-295.11"/>
<polygon fill="black" stroke="black" points="537.43,-297.44 541.19,-287.54 532.08,-292.94 537.43,-297.44"/>
</g>
<!-- n_1_3_6 -->
<g id="node3" class="node">
<title>n_1_3_6</title>
<polygon fill="none" stroke="black" points="153.38,-163 153.38,-195 222.12,-195 222.12,-163 153.38,-163"/>
<text text-anchor="start" x="160.38" y="-180.45" font-family="Times New Roman,serif" font-weight="bold" font-size="9.00">Secondary (P)</text>
<text text-anchor="start" x="167.5" y="-171.45" font-family="Times New Roman,serif" font-weight="bold" font-size="9.00">University</text>
<polygon fill="none" stroke="black" points="222.12,-163 222.12,-195 283.38,-195 283.38,-163 222.12,-163"/>
<text text-anchor="start" x="229.12" y="-177.07" font-family="Times New Roman,serif" font-weight="bold" font-size="9.00">Primary (G)</text>
<polygon fill="none" stroke="black" points="152.38,-162 152.38,-196 284.38,-196 284.38,-162 152.38,-162"/>
</g>
<!-- n_0_1_3_4_6&#45;&gt;n_1_3_6 -->
<g id="edge2" class="edge">
<title>n_0_1_3_4_6&#45;&gt;n_1_3_6</title>
<path fill="none" stroke="black" d="M340.3,-243.13C317.41,-231.28 289.94,-217.05 266.87,-205.11"/>
<polygon fill="black" stroke="black" points="268.78,-202.15 258.29,-200.66 265.56,-208.37 268.78,-202.15"/>
</g>
<!-- n_0_4 -->
<g id="node8" class="node">
<title>n_0_4</title>
<polygon fill="none" stroke="black" points="330.38,-166.38 330.38,-191.62 390.12,-191.62 390.12,-166.38 330.38,-166.38"/>
<text text-anchor="start" x="337.38" y="-177.07" font-family="Times New Roman,serif" font-weight="bold" font-size="9.00">Primary (P)</text>
<polygon fill="none" stroke="black" points="390.12,-166.38 390.12,-191.62 460.38,-191.62 460.38,-166.38 390.12,-166.38"/>
<text text-anchor="start" x="397.12" y="-177.07" font-family="Times New Roman,serif" font-weight="bold" font-size="9.00">Secondary (G)</text>
<polygon fill="none" stroke="black" points="329.38,-165.38 329.38,-192.62 461.38,-192.62 461.38,-165.38 329.38,-165.38"/>
</g>
<!-- n_0_1_3_4_6&#45;&gt;n_0_4 -->
<g id="edge7" class="edge">
<title>n_0_1_3_4_6&#45;&gt;n_0_4</title>
<path fill="none" stroke="black" d="M389.6,-243.13C390.59,-232.28 391.77,-219.45 392.8,-208.19"/>
<polygon fill="black" stroke="black" points="396.28,-208.56 393.7,-198.28 389.31,-207.92 396.28,-208.56"/>
</g>
<!-- n_3_6 -->
<g id="node4" class="node">
<title>n_3_6</title>
<polygon fill="none" stroke="black" points="35.75,-84.38 35.75,-109.62 104.5,-109.62 104.5,-84.38 35.75,-84.38"/>
<text text-anchor="start" x="42.75" y="-95.08" font-family="Times New Roman,serif" font-weight="bold" font-size="9.00">Secondary (P)</text>
<polygon fill="none" stroke="black" points="104.5,-84.38 104.5,-109.62 159,-109.62 159,-84.38 104.5,-84.38"/>
<text text-anchor="start" x="111.5" y="-95.08" font-family="Times New Roman,serif" font-weight="bold" font-size="9.00">University</text>
<polygon fill="none" stroke="black" points="34.75,-83.38 34.75,-110.62 160,-110.62 160,-83.38 34.75,-83.38"/>
</g>
<!-- n_1_3_6&#45;&gt;n_3_6 -->
<g id="edge3" class="edge">
<title>n_1_3_6&#45;&gt;n_3_6</title>
<path fill="none" stroke="black" d="M188.15,-158.02C171.14,-146.77 149.83,-132.68 132.13,-120.98"/>
<polygon fill="black" stroke="black" points="134.26,-118.19 123.98,-115.59 130.4,-124.03 134.26,-118.19"/>
</g>
<!-- n_1 -->
<g id="node7" class="node">
<title>n_1</title>
<polygon fill="none" stroke="black" points="205.75,-84.38 205.75,-109.62 267,-109.62 267,-84.38 205.75,-84.38"/>
<text text-anchor="start" x="212.75" y="-95.08" font-family="Times New Roman,serif" font-weight="bold" font-size="9.00">Primary (G)</text>
<polygon fill="none" stroke="black" points="204.75,-83.38 204.75,-110.62 268,-110.62 268,-83.38 204.75,-83.38"/>
</g>
<!-- n_1_3_6&#45;&gt;n_1 -->
<g id="edge6" class="edge">
<title>n_1_3_6&#45;&gt;n_1</title>
<path fill="none" stroke="black" d="M222.82,-158.22C225.03,-148.44 227.72,-136.46 230.13,-125.77"/>
<polygon fill="black" stroke="black" points="233.47,-126.84 232.25,-116.32 226.64,-125.31 233.47,-126.84"/>
</g>
<!-- n_3 -->
<g id="node5" class="node">
<title>n_3</title>
<polygon fill="none" stroke="black" points="9,-5.38 9,-30.62 77.75,-30.62 77.75,-5.38 9,-5.38"/>
<text text-anchor="start" x="16" y="-16.07" font-family="Times New Roman,serif" font-weight="bold" font-size="9.00">Secondary (P)</text>
<polygon fill="none" stroke="black" points="8,-4.38 8,-31.62 78.75,-31.62 78.75,-4.38 8,-4.38"/>
</g>
<!-- n_3_6&#45;&gt;n_3 -->
<g id="edge4" class="edge">
<title>n_3_6&#45;&gt;n_3</title>
<path fill="none" stroke="black" d="M85.66,-79.29C78.7,-69.37 69.72,-56.57 61.83,-45.32"/>
<polygon fill="black" stroke="black" points="64.73,-43.36 56.12,-37.18 59,-47.38 64.73,-43.36"/>
</g>
<!-- n_6 -->
<g id="node6" class="node">
<title>n_6</title>
<polygon fill="none" stroke="black" points="125.12,-5.38 125.12,-30.62 179.62,-30.62 179.62,-5.38 125.12,-5.38"/>
<text text-anchor="start" x="132.12" y="-16.07" font-family="Times New Roman,serif" font-weight="bold" font-size="9.00">University</text>
<polygon fill="none" stroke="black" points="124.12,-4.38 124.12,-31.62 180.62,-31.62 180.62,-4.38 124.12,-4.38"/>
</g>
<!-- n_3_6&#45;&gt;n_6 -->
<g id="edge5" class="edge">
<title>n_3_6&#45;&gt;n_6</title>
<path fill="none" stroke="black" d="M109.31,-79.29C116.47,-69.27 125.72,-56.31 133.82,-44.98"/>
<polygon fill="black" stroke="black" points="136.43,-47.34 139.39,-37.17 130.73,-43.28 136.43,-47.34"/>
</g>
<!-- n_0 -->
<g id="node9" class="node">
<title>n_0</title>
<polygon fill="none" stroke="black" points="348.5,-84.38 348.5,-109.62 408.25,-109.62 408.25,-84.38 348.5,-84.38"/>
<text text-anchor="start" x="355.5" y="-95.08" font-family="Times New Roman,serif" font-weight="bold" font-size="9.00">Primary (P)</text>
<polygon fill="none" stroke="black" points="347.5,-83.38 347.5,-110.62 409.25,-110.62 409.25,-83.38 347.5,-83.38"/>
</g>
<!-- n_0_4&#45;&gt;n_0 -->
<g id="edge8" class="edge">
<title>n_0_4&#45;&gt;n_0</title>
<path fill="none" stroke="black" d="M391.77,-161.03C389.61,-150.85 386.8,-137.65 384.32,-125.96"/>
<polygon fill="black" stroke="black" points="387.79,-125.48 382.29,-116.42 380.94,-126.93 387.79,-125.48"/>
</g>
<!-- n_4 -->
<g id="node10" class="node">
<title>n_4</title>
<polygon fill="none" stroke="black" points="455.25,-84.38 455.25,-109.62 525.5,-109.62 525.5,-84.38 455.25,-84.38"/>
<text text-anchor="start" x="462.25" y="-95.08" font-family="Times New Roman,serif" font-weight="bold" font-size="9.00">Secondary (G)</text>
<polygon fill="none" stroke="black" points="454.25,-83.38 454.25,-110.62 526.5,-110.62 526.5,-83.38 454.25,-83.38"/>
</g>
<!-- n_0_4&#45;&gt;n_4 -->
<g id="edge9" class="edge">
<title>n_0_4&#45;&gt;n_4</title>
<path fill="none" stroke="black" d="M415.52,-161.03C429,-149.69 446.93,-134.58 461.87,-122.01"/>
<polygon fill="black" stroke="black" points="463.7,-125.04 469.1,-115.92 459.2,-119.68 463.7,-125.04"/>
</g>
<!-- n_2 -->
<g id="node12" class="node">
<title>n_2</title>
<polygon fill="none" stroke="black" points="522.25,-166.38 522.25,-191.62 574.5,-191.62 574.5,-166.38 522.25,-166.38"/>
<text text-anchor="start" x="529.25" y="-177.07" font-family="Times New Roman,serif" font-weight="bold" font-size="9.00">Preschool</text>
<polygon fill="none" stroke="black" points="521.25,-165.38 521.25,-192.62 575.5,-192.62 575.5,-165.38 521.25,-165.38"/>
</g>
<!-- n_2_5&#45;&gt;n_2 -->
<g id="edge11" class="edge">
<title>n_2_5&#45;&gt;n_2</title>
<path fill="none" stroke="black" d="M554.83,-250.63C553.73,-238.52 552.21,-221.94 550.92,-207.88"/>
<polygon fill="black" stroke="black" points="554.45,-207.97 550.05,-198.33 547.48,-208.6 554.45,-207.97"/>
</g>
<!-- n_5 -->
<g id="node13" class="node">
<title>n_5</title>
<polygon fill="none" stroke="black" points="621.88,-166.38 621.88,-191.62 674.88,-191.62 674.88,-166.38 621.88,-166.38"/>
<text text-anchor="start" x="628.88" y="-177.07" font-family="Times New Roman,serif" font-weight="bold" font-size="9.00">Technical</text>
<polygon fill="none" stroke="black" points="620.88,-165.38 620.88,-192.62 675.88,-192.62 675.88,-165.38 620.88,-165.38"/>
</g>
<!-- n_2_5&#45;&gt;n_5 -->
<g id="edge12" class="edge">
<title>n_2_5&#45;&gt;n_5</title>
<path fill="none" stroke="black" d="M574.11,-250.63C587.86,-237.56 607.1,-219.25 622.55,-204.56"/>
<polygon fill="black" stroke="black" points="624.76,-207.29 629.59,-197.86 619.94,-202.22 624.76,-207.29"/>
</g>
</g>
</svg>
