<?xml version="1.0" encoding="UTF-8" standalone="no"?>
<!DOCTYPE svg PUBLIC "-//W3C//DTD SVG 1.1//EN"
 "http://www.w3.org/Graphics/SVG/1.1/DTD/svg11.dtd">
<!-- Generated by graphviz version 10.0.1 (20240210.2158)
 -->
<!-- Title: ND Pages: 1 -->
<svg width="556pt" height="638pt"
 viewBox="0.00 0.00 556.38 638.00" xmlns="http://www.w3.org/2000/svg" xmlns:xlink="http://www.w3.org/1999/xlink">
<g id="graph0" class="graph" transform="scale(1 1) rotate(0) translate(4 634)">
<title>ND</title>
<polygon fill="white" stroke="none" points="-4,4 -4,-634 552.38,-634 552.38,4 -4,4"/>
<!-- n_0_1_2_3_4_5_6 -->
<g id="node1" class="node">
<title>n_0_1_2_3_4_5_6</title>
<polygon fill="none" stroke="black" points="383.25,-557 383.25,-625 453.5,-625 453.5,-557 383.25,-557"/>
<text text-anchor="start" x="395.5" y="-610.45" font-family="Times New Roman,serif" font-weight="bold" font-size="9.00">Primary (P)</text>
<text text-anchor="start" x="394.75" y="-601.45" font-family="Times New Roman,serif" font-weight="bold" font-size="9.00">Primary (G)</text>
<text text-anchor="start" x="399.25" y="-592.45" font-family="Times New Roman,serif" font-weight="bold" font-size="9.00">Preschool</text>
<text text-anchor="start" x="391" y="-583.45" font-family="Times New Roman,serif" font-weight="bold" font-size="9.00">Secondary (P)</text>
<text text-anchor="start" x="390.25" y="-574.45" font-family="Times New Roman,serif" font-weight="bold" font-size="9.00">Secondary (G)</text>
<text text-anchor="start" x="398.12" y="-565.45" font-family="Times New Roman,serif" font-weight="bold" font-size="9.00">University</text>
<polygon fill="none" stroke="black" points="453.5,-557 453.5,-625 506.5,-625 506.5,-557 453.5,-557"/>
<text text-anchor="start" x="460.5" y="-589.08" font-family="Times New Roman,serif" font-weight="bold" font-size="9.00">Technical</text>
<polygon fill="none" stroke="black" points="382.25,-556 382.25,-626 507.5,-626 507.5,-556 382.25,-556"/>
</g>
<!-- n_0_1_2_3_4_6 -->
<g id="node2" class="node">
<title>n_0_1_2_3_4_6</title>
<polygon fill="none" stroke="black" points="316.62,-445 316.62,-504 386.88,-504 386.88,-445 316.62,-445"/>
<text text-anchor="start" x="328.88" y="-489.45" font-family="Times New Roman,serif" font-weight="bold" font-size="9.00">Primary (P)</text>
<text text-anchor="start" x="328.12" y="-480.45" font-family="Times New Roman,serif" font-weight="bold" font-size="9.00">Primary (G)</text>
<text text-anchor="start" x="324.38" y="-471.45" font-family="Times New Roman,serif" font-weight="bold" font-size="9.00">Secondary (P)</text>
<text text-anchor="start" x="323.62" y="-462.45" font-family="Times New Roman,serif" font-weight="bold" font-size="9.00">Secondary (G)</text>
<text text-anchor="start" x="331.5" y="-453.45" font-family="Times New Roman,serif" font-weight="bold" font-size="9.00">University</text>
<polygon fill="none" stroke="black" points="386.88,-445 386.88,-504 439.12,-504 439.12,-445 386.88,-445"/>
<text text-anchor="start" x="393.88" y="-472.57" font-family="Times New Roman,serif" font-weight="bold" font-size="9.00">Preschool</text>
<polygon fill="none" stroke="black" points="315.62,-444 315.62,-505 440.12,-505 440.12,-444 315.62,-444"/>
</g>
<!-- n_0_1_2_3_4_5_6&#45;&gt;n_0_1_2_3_4_6 -->
<g id="edge1" class="edge">
<title>n_0_1_2_3_4_5_6&#45;&gt;n_0_1_2_3_4_6</title>
<path fill="none" stroke="black" d="M422.75,-552.19C416.45,-541.42 409.53,-529.6 403.06,-518.54"/>
<polygon fill="black" stroke="black" points="406.11,-516.82 398.04,-509.96 400.07,-520.36 406.11,-516.82"/>
</g>
<!-- n_5 -->
<g id="node13" class="node">
<title>n_5</title>
<polygon fill="none" stroke="black" points="486.38,-461.88 486.38,-487.12 539.38,-487.12 539.38,-461.88 486.38,-461.88"/>
<text text-anchor="start" x="493.38" y="-472.57" font-family="Times New Roman,serif" font-weight="bold" font-size="9.00">Technical</text>
<polygon fill="none" stroke="black" points="485.38,-460.88 485.38,-488.12 540.38,-488.12 540.38,-460.88 485.38,-460.88"/>
</g>
<!-- n_0_1_2_3_4_5_6&#45;&gt;n_5 -->
<g id="edge12" class="edge">
<title>n_0_1_2_3_4_5_6&#45;&gt;n_5</title>
<path fill="none" stroke="black" d="M467.33,-552.19C477.07,-535.78 488.25,-516.96 497.1,-502.07"/>
<polygon fill="black" stroke="black" points="499.93,-504.15 502.03,-493.76 493.91,-500.58 499.93,-504.15"/>
</g>
<!-- n_0_1_3_4_6 -->
<g id="node3" class="node">
<title>n_0_1_3_4_6</title>
<polygon fill="none" stroke="black" points="247.5,-342 247.5,-392 317.75,-392 317.75,-342 247.5,-342"/>
<text text-anchor="start" x="259.75" y="-377.45" font-family="Times New Roman,serif" font-weight="bold" font-size="9.00">Primary (P)</text>
<text text-anchor="start" x="259" y="-368.45" font-family="Times New Roman,serif" font-weight="bold" font-size="9.00">Primary (G)</text>
<text text-anchor="start" x="255.25" y="-359.45" font-family="Times New Roman,serif" font-weight="bold" font-size="9.00">Secondary (P)</text>
<text text-anchor="start" x="254.5" y="-350.45" font-family="Times New Roman,serif" font-weight="bold" font-size="9.00">Secondary (G)</text>
<polygon fill="none" stroke="black" points="317.75,-342 317.75,-392 372.25,-392 372.25,-342 317.75,-342"/>
<text text-anchor="start" x="324.75" y="-365.07" font-family="Times New Roman,serif" font-weight="bold" font-size="9.00">University</text>
<polygon fill="none" stroke="black" points="246.5,-341 246.5,-393 373.25,-393 373.25,-341 246.5,-341"/>
</g>
<!-- n_0_1_2_3_4_6&#45;&gt;n_0_1_3_4_6 -->
<g id="edge2" class="edge">
<title>n_0_1_2_3_4_6&#45;&gt;n_0_1_3_4_6</title>
<path fill="none" stroke="black" d="M356.36,-440.12C349.44,-429.38 341.71,-417.4 334.58,-406.33"/>
<polygon fill="black" stroke="black" points="337.68,-404.68 329.32,-398.17 331.8,-408.47 337.68,-404.68"/>
</g>
<!-- n_2 -->
<g id="node12" class="node">
<title>n_2</title>
<polygon fill="none" stroke="black" points="419.75,-354.38 419.75,-379.62 472,-379.62 472,-354.38 419.75,-354.38"/>
<text text-anchor="start" x="426.75" y="-365.07" font-family="Times New Roman,serif" font-weight="bold" font-size="9.00">Preschool</text>
<polygon fill="none" stroke="black" points="418.75,-353.38 418.75,-380.62 473,-380.62 473,-353.38 418.75,-353.38"/>
</g>
<!-- n_0_1_2_3_4_6&#45;&gt;n_2 -->
<g id="edge11" class="edge">
<title>n_0_1_2_3_4_6&#45;&gt;n_2</title>
<path fill="none" stroke="black" d="M399.39,-440.12C408.91,-425.35 419.94,-408.23 428.87,-394.38"/>
<polygon fill="black" stroke="black" points="431.65,-396.52 434.13,-386.22 425.77,-392.73 431.65,-396.52"/>
</g>
<!-- n_0_1_3_4 -->
<g id="node4" class="node">
<title>n_0_1_3_4</title>
<polygon fill="none" stroke="black" points="174.12,-248 174.12,-289 244.38,-289 244.38,-248 174.12,-248"/>
<text text-anchor="start" x="186.38" y="-274.45" font-family="Times New Roman,serif" font-weight="bold" font-size="9.00">Primary (P)</text>
<text text-anchor="start" x="181.88" y="-265.45" font-family="Times New Roman,serif" font-weight="bold" font-size="9.00">Secondary (P)</text>
<text text-anchor="start" x="181.12" y="-256.45" font-family="Times New Roman,serif" font-weight="bold" font-size="9.00">Secondary (G)</text>
<polygon fill="none" stroke="black" points="244.38,-248 244.38,-289 305.62,-289 305.62,-248 244.38,-248"/>
<text text-anchor="start" x="251.38" y="-266.57" font-family="Times New Roman,serif" font-weight="bold" font-size="9.00">Primary (G)</text>
<polygon fill="none" stroke="black" points="173.12,-247 173.12,-290 306.62,-290 306.62,-247 173.12,-247"/>
</g>
<!-- n_0_1_3_4_6&#45;&gt;n_0_1_3_4 -->
<g id="edge3" class="edge">
<title>n_0_1_3_4_6&#45;&gt;n_0_1_3_4</title>
<path fill="none" stroke="black" d="M288.87,-337.05C281.07,-326.29 272.16,-314 264.09,-302.88"/>
<polygon fill="black" stroke="black" points="267.15,-301.14 258.44,-295.1 261.48,-305.25 267.15,-301.14"/>
</g>
<!-- n_6 -->
<g id="node11" class="node">
<title>n_6</title>
<polygon fill="none" stroke="black" points="352.62,-255.88 352.62,-281.12 407.12,-281.12 407.12,-255.88 352.62,-255.88"/>
<text text-anchor="start" x="359.62" y="-266.57" font-family="Times New Roman,serif" font-weight="bold" font-size="9.00">University</text>
<polygon fill="none" stroke="black" points="351.62,-254.88 351.62,-282.12 408.12,-282.12 408.12,-254.88 351.62,-254.88"/>
</g>
<!-- n_0_1_3_4_6&#45;&gt;n_6 -->
<g id="edge10" class="edge">
<title>n_0_1_3_4_6&#45;&gt;n_6</title>
<path fill="none" stroke="black" d="M330.88,-337.05C340.44,-323.86 351.67,-308.38 360.97,-295.56"/>
<polygon fill="black" stroke="black" points="363.71,-297.74 366.75,-287.59 358.05,-293.63 363.71,-297.74"/>
</g>
<!-- n_0_3_4 -->
<g id="node5" class="node">
<title>n_0_3_4</title>
<polygon fill="none" stroke="black" points="97.38,-163 97.38,-195 166.12,-195 166.12,-163 97.38,-163"/>
<text text-anchor="start" x="108.88" y="-180.45" font-family="Times New Roman,serif" font-weight="bold" font-size="9.00">Primary (P)</text>
<text text-anchor="start" x="104.38" y="-171.45" font-family="Times New Roman,serif" font-weight="bold" font-size="9.00">Secondary (P)</text>
<polygon fill="none" stroke="black" points="166.12,-163 166.12,-195 236.38,-195 236.38,-163 166.12,-163"/>
<text text-anchor="start" x="173.12" y="-177.07" font-family="Times New Roman,serif" font-weight="bold" font-size="9.00">Secondary (G)</text>
<polygon fill="none" stroke="black" points="96.38,-162 96.38,-196 237.38,-196 237.38,-162 96.38,-162"/>
</g>
<!-- n_0_1_3_4&#45;&gt;n_0_3_4 -->
<g id="edge4" class="edge">
<title>n_0_1_3_4&#45;&gt;n_0_3_4</title>
<path fill="none" stroke="black" d="M219.54,-243.13C210.55,-232.35 199.93,-219.62 190.58,-208.41"/>
<polygon fill="black" stroke="black" points="193.48,-206.42 184.39,-200.99 188.1,-210.91 193.48,-206.42"/>
</g>
<!-- n_1 -->
<g id="node10" class="node">
<title>n_1</title>
<polygon fill="none" stroke="black" points="283.25,-166.38 283.25,-191.62 344.5,-191.62 344.5,-166.38 283.25,-166.38"/>
<text text-anchor="start" x="290.25" y="-177.07" font-family="Times New Roman,serif" font-weight="bold" font-size="9.00">Primary (G)</text>
<polygon fill="none" stroke="black" points="282.25,-165.38 282.25,-192.62 345.5,-192.62 345.5,-165.38 282.25,-165.38"/>
</g>
<!-- n_0_1_3_4&#45;&gt;n_1 -->
<g id="edge9" class="edge">
<title>n_0_1_3_4&#45;&gt;n_1</title>
<path fill="none" stroke="black" d="M260.49,-243.13C270.44,-231.36 282.37,-217.25 292.43,-205.36"/>
<polygon fill="black" stroke="black" points="294.93,-207.82 298.71,-197.93 289.58,-203.3 294.93,-207.82"/>
</g>
<!-- n_0_3 -->
<g id="node6" class="node">
<title>n_0_3</title>
<polygon fill="none" stroke="black" points="29.62,-84.38 29.62,-109.62 89.38,-109.62 89.38,-84.38 29.62,-84.38"/>
<text text-anchor="start" x="36.62" y="-95.08" font-family="Times New Roman,serif" font-weight="bold" font-size="9.00">Primary (P)</text>
<polygon fill="none" stroke="black" points="89.38,-84.38 89.38,-109.62 158.12,-109.62 158.12,-84.38 89.38,-84.38"/>
<text text-anchor="start" x="96.38" y="-95.08" font-family="Times New Roman,serif" font-weight="bold" font-size="9.00">Secondary (P)</text>
<polygon fill="none" stroke="black" points="28.62,-83.38 28.62,-110.62 159.12,-110.62 159.12,-83.38 28.62,-83.38"/>
</g>
<!-- n_0_3_4&#45;&gt;n_0_3 -->
<g id="edge5" class="edge">
<title>n_0_3_4&#45;&gt;n_0_3</title>
<path fill="none" stroke="black" d="M148.83,-158.22C139.14,-147.61 127.1,-134.41 116.75,-123.07"/>
<polygon fill="black" stroke="black" points="119.59,-120.99 110.27,-115.96 114.42,-125.71 119.59,-120.99"/>
</g>
<!-- n_4 -->
<g id="node9" class="node">
<title>n_4</title>
<polygon fill="none" stroke="black" points="204.75,-84.38 204.75,-109.62 275,-109.62 275,-84.38 204.75,-84.38"/>
<text text-anchor="start" x="211.75" y="-95.08" font-family="Times New Roman,serif" font-weight="bold" font-size="9.00">Secondary (G)</text>
<polygon fill="none" stroke="black" points="203.75,-83.38 203.75,-110.62 276,-110.62 276,-83.38 203.75,-83.38"/>
</g>
<!-- n_0_3_4&#45;&gt;n_4 -->
<g id="edge8" class="edge">
<title>n_0_3_4&#45;&gt;n_4</title>
<path fill="none" stroke="black" d="M184.92,-158.22C194.61,-147.61 206.65,-134.41 217,-123.07"/>
<polygon fill="black" stroke="black" points="219.33,-125.71 223.48,-115.96 214.16,-120.99 219.33,-125.71"/>
</g>
<!-- n_0 -->
<g id="node7" class="node">
<title>n_0</title>
<polygon fill="none" stroke="black" points="9,-5.38 9,-30.62 68.75,-30.62 68.75,-5.38 9,-5.38"/>
<text text-anchor="start" x="16" y="-16.07" font-family="Times New Roman,serif" font-weight="bold" font-size="9.00">Primary (P)</text>
<polygon fill="none" stroke="black" points="8,-4.38 8,-31.62 69.75,-31.62 69.75,-4.38 8,-4.38"/>
</g>
<!-- n_0_3&#45;&gt;n_0 -->
<g id="edge6" class="edge">
<title>n_0_3&#45;&gt;n_0</title>
<path fill="none" stroke="black" d="M81.94,-79.29C74.78,-69.27 65.53,-56.31 57.43,-44.98"/>
<polygon fill="black" stroke="black" points="60.52,-43.28 51.86,-37.17 54.82,-47.34 60.52,-43.28"/>
</g>
<!-- n_3 -->
<g id="node8" class="node">
<title>n_3</title>
<polygon fill="none" stroke="black" points="115.5,-5.38 115.5,-30.62 184.25,-30.62 184.25,-5.38 115.5,-5.38"/>
<text text-anchor="start" x="122.5" y="-16.07" font-family="Times New Roman,serif" font-weight="bold" font-size="9.00">Secondary (P)</text>
<polygon fill="none" stroke="black" points="114.5,-4.38 114.5,-31.62 185.25,-31.62 185.25,-4.38 114.5,-4.38"/>
</g>
<!-- n_0_3&#45;&gt;n_3 -->
<g id="edge7" class="edge">
<title>n_0_3&#45;&gt;n_3</title>
<path fill="none" stroke="black" d="M106.03,-79.29C113.31,-69.27 122.74,-56.31 130.98,-44.98"/>
<polygon fill="black" stroke="black" points="133.61,-47.31 136.66,-37.17 127.95,-43.19 133.61,-47.31"/>
</g>
</g>
</svg>
