<?xml version="1.0" encoding="UTF-8" standalone="no"?>
<!DOCTYPE svg PUBLIC "-//W3C//DTD SVG 1.1//EN"
 "http://www.w3.org/Graphics/SVG/1.1/DTD/svg11.dtd">
<!-- Generated by graphviz version 10.0.1 (20240210.2158)
 -->
<!-- Title: ND Pages: 1 -->
<svg width="559pt" height="535pt"
 viewBox="0.00 0.00 559.00 535.00" xmlns="http://www.w3.org/2000/svg" xmlns:xlink="http://www.w3.org/1999/xlink">
<g id="graph0" class="graph" transform="scale(1 1) rotate(0) translate(4 531)">
<title>ND</title>
<polygon fill="white" stroke="none" points="-4,4 -4,-531 555,-531 555,4 -4,4"/>
<!-- n_0_1_2_3_4_5_6 -->
<g id="node1" class="node">
<title>n_0_1_2_3_4_5_6</title>
<polygon fill="none" stroke="black" points="382.62,-454 382.62,-522 452.88,-522 452.88,-454 382.62,-454"/>
<text text-anchor="start" x="394.88" y="-507.45" font-family="Times New Roman,serif" font-weight="bold" font-size="9.00">Primary (P)</text>
<text text-anchor="start" x="394.12" y="-498.45" font-family="Times New Roman,serif" font-weight="bold" font-size="9.00">Primary (G)</text>
<text text-anchor="start" x="390.38" y="-489.45" font-family="Times New Roman,serif" font-weight="bold" font-size="9.00">Secondary (P)</text>
<text text-anchor="start" x="389.62" y="-480.45" font-family="Times New Roman,serif" font-weight="bold" font-size="9.00">Secondary (G)</text>
<text text-anchor="start" x="398.25" y="-471.45" font-family="Times New Roman,serif" font-weight="bold" font-size="9.00">Technical</text>
<text text-anchor="start" x="397.5" y="-462.45" font-family="Times New Roman,serif" font-weight="bold" font-size="9.00">University</text>
<polygon fill="none" stroke="black" points="452.88,-454 452.88,-522 505.12,-522 505.12,-454 452.88,-454"/>
<text text-anchor="start" x="459.88" y="-486.07" font-family="Times New Roman,serif" font-weight="bold" font-size="9.00">Preschool</text>
<polygon fill="none" stroke="black" points="381.62,-453 381.62,-523 506.12,-523 506.12,-453 381.62,-453"/>
</g>
<!-- n_0_1_3_4_5_6 -->
<g id="node2" class="node">
<title>n_0_1_3_4_5_6</title>
<polygon fill="none" stroke="black" points="303.38,-342 303.38,-401 372.12,-401 372.12,-342 303.38,-342"/>
<text text-anchor="start" x="314.88" y="-386.45" font-family="Times New Roman,serif" font-weight="bold" font-size="9.00">Primary (P)</text>
<text text-anchor="start" x="314.12" y="-377.45" font-family="Times New Roman,serif" font-weight="bold" font-size="9.00">Primary (G)</text>
<text text-anchor="start" x="310.38" y="-368.45" font-family="Times New Roman,serif" font-weight="bold" font-size="9.00">Secondary (P)</text>
<text text-anchor="start" x="318.25" y="-359.45" font-family="Times New Roman,serif" font-weight="bold" font-size="9.00">Technical</text>
<text text-anchor="start" x="317.5" y="-350.45" font-family="Times New Roman,serif" font-weight="bold" font-size="9.00">University</text>
<polygon fill="none" stroke="black" points="372.12,-342 372.12,-401 442.38,-401 442.38,-342 372.12,-342"/>
<text text-anchor="start" x="379.12" y="-369.57" font-family="Times New Roman,serif" font-weight="bold" font-size="9.00">Secondary (G)</text>
<polygon fill="none" stroke="black" points="302.38,-341 302.38,-402 443.38,-402 443.38,-341 302.38,-341"/>
</g>
<!-- n_0_1_2_3_4_5_6&#45;&gt;n_0_1_3_4_5_6 -->
<g id="edge1" class="edge">
<title>n_0_1_2_3_4_5_6&#45;&gt;n_0_1_3_4_5_6</title>
<path fill="none" stroke="black" d="M420.43,-449.19C413.68,-438.31 406.27,-426.36 399.36,-415.21"/>
<polygon fill="black" stroke="black" points="402.47,-413.59 394.23,-406.94 396.53,-417.28 402.47,-413.59"/>
</g>
<!-- n_2 -->
<g id="node13" class="node">
<title>n_2</title>
<polygon fill="none" stroke="black" points="489.75,-358.88 489.75,-384.12 542,-384.12 542,-358.88 489.75,-358.88"/>
<text text-anchor="start" x="496.75" y="-369.57" font-family="Times New Roman,serif" font-weight="bold" font-size="9.00">Preschool</text>
<polygon fill="none" stroke="black" points="488.75,-357.88 488.75,-385.12 543,-385.12 543,-357.88 488.75,-357.88"/>
</g>
<!-- n_0_1_2_3_4_5_6&#45;&gt;n_2 -->
<g id="edge12" class="edge">
<title>n_0_1_2_3_4_5_6&#45;&gt;n_2</title>
<path fill="none" stroke="black" d="M467.65,-449.19C477.97,-432.78 489.8,-413.96 499.17,-399.07"/>
<polygon fill="black" stroke="black" points="502.04,-401.07 504.4,-390.74 496.12,-397.35 502.04,-401.07"/>
</g>
<!-- n_0_1_3_5_6 -->
<g id="node3" class="node">
<title>n_0_1_3_5_6</title>
<polygon fill="none" stroke="black" points="234.88,-248 234.88,-289 303.62,-289 303.62,-248 234.88,-248"/>
<text text-anchor="start" x="246.38" y="-274.45" font-family="Times New Roman,serif" font-weight="bold" font-size="9.00">Primary (P)</text>
<text text-anchor="start" x="241.88" y="-265.45" font-family="Times New Roman,serif" font-weight="bold" font-size="9.00">Secondary (P)</text>
<text text-anchor="start" x="249" y="-256.45" font-family="Times New Roman,serif" font-weight="bold" font-size="9.00">University</text>
<polygon fill="none" stroke="black" points="303.62,-248 303.62,-289 364.88,-289 364.88,-248 303.62,-248"/>
<text text-anchor="start" x="310.62" y="-269.95" font-family="Times New Roman,serif" font-weight="bold" font-size="9.00">Primary (G)</text>
<text text-anchor="start" x="314.75" y="-260.95" font-family="Times New Roman,serif" font-weight="bold" font-size="9.00">Technical</text>
<polygon fill="none" stroke="black" points="233.88,-247 233.88,-290 365.88,-290 365.88,-247 233.88,-247"/>
</g>
<!-- n_0_1_3_4_5_6&#45;&gt;n_0_1_3_5_6 -->
<g id="edge2" class="edge">
<title>n_0_1_3_4_5_6&#45;&gt;n_0_1_3_5_6</title>
<path fill="none" stroke="black" d="M348.77,-337.15C340.87,-326.22 332.09,-314.07 324.17,-303.12"/>
<polygon fill="black" stroke="black" points="327.06,-301.14 318.37,-295.09 321.39,-305.24 327.06,-301.14"/>
</g>
<!-- n_4 -->
<g id="node12" class="node">
<title>n_4</title>
<polygon fill="none" stroke="black" points="411.75,-255.88 411.75,-281.12 482,-281.12 482,-255.88 411.75,-255.88"/>
<text text-anchor="start" x="418.75" y="-266.57" font-family="Times New Roman,serif" font-weight="bold" font-size="9.00">Secondary (G)</text>
<polygon fill="none" stroke="black" points="410.75,-254.88 410.75,-282.12 483,-282.12 483,-254.88 410.75,-254.88"/>
</g>
<!-- n_0_1_3_4_5_6&#45;&gt;n_4 -->
<g id="edge11" class="edge">
<title>n_0_1_3_4_5_6&#45;&gt;n_4</title>
<path fill="none" stroke="black" d="M397.31,-337.15C407.24,-323.6 418.54,-308.17 427.84,-295.48"/>
<polygon fill="black" stroke="black" points="430.53,-297.74 433.61,-287.6 424.88,-293.6 430.53,-297.74"/>
</g>
<!-- n_0_3_6 -->
<g id="node4" class="node">
<title>n_0_3_6</title>
<polygon fill="none" stroke="black" points="155.25,-163 155.25,-195 224,-195 224,-163 155.25,-163"/>
<text text-anchor="start" x="166.75" y="-180.45" font-family="Times New Roman,serif" font-weight="bold" font-size="9.00">Primary (P)</text>
<text text-anchor="start" x="162.25" y="-171.45" font-family="Times New Roman,serif" font-weight="bold" font-size="9.00">Secondary (P)</text>
<polygon fill="none" stroke="black" points="224,-163 224,-195 278.5,-195 278.5,-163 224,-163"/>
<text text-anchor="start" x="231" y="-177.07" font-family="Times New Roman,serif" font-weight="bold" font-size="9.00">University</text>
<polygon fill="none" stroke="black" points="154.25,-162 154.25,-196 279.5,-196 279.5,-162 154.25,-162"/>
</g>
<!-- n_0_1_3_5_6&#45;&gt;n_0_3_6 -->
<g id="edge3" class="edge">
<title>n_0_1_3_5_6&#45;&gt;n_0_3_6</title>
<path fill="none" stroke="black" d="M276.75,-243.13C266.43,-232.25 254.21,-219.36 243.51,-208.08"/>
<polygon fill="black" stroke="black" points="246.14,-205.77 236.72,-200.92 241.07,-210.59 246.14,-205.77"/>
</g>
<!-- n_1_5 -->
<g id="node9" class="node">
<title>n_1_5</title>
<polygon fill="none" stroke="black" points="325.75,-166.38 325.75,-191.62 387,-191.62 387,-166.38 325.75,-166.38"/>
<text text-anchor="start" x="332.75" y="-177.07" font-family="Times New Roman,serif" font-weight="bold" font-size="9.00">Primary (G)</text>
<polygon fill="none" stroke="black" points="387,-166.38 387,-191.62 440,-191.62 440,-166.38 387,-166.38"/>
<text text-anchor="start" x="394" y="-177.07" font-family="Times New Roman,serif" font-weight="bold" font-size="9.00">Technical</text>
<polygon fill="none" stroke="black" points="324.75,-165.38 324.75,-192.62 441,-192.62 441,-165.38 324.75,-165.38"/>
</g>
<!-- n_0_1_3_5_6&#45;&gt;n_1_5 -->
<g id="edge8" class="edge">
<title>n_0_1_3_5_6&#45;&gt;n_1_5</title>
<path fill="none" stroke="black" d="M323,-243.13C334.27,-231.24 347.8,-216.97 359.15,-205.01"/>
<polygon fill="black" stroke="black" points="361.58,-207.53 365.93,-197.87 356.5,-202.72 361.58,-207.53"/>
</g>
<!-- n_0_3 -->
<g id="node5" class="node">
<title>n_0_3</title>
<polygon fill="none" stroke="black" points="29.62,-84.38 29.62,-109.62 89.38,-109.62 89.38,-84.38 29.62,-84.38"/>
<text text-anchor="start" x="36.62" y="-95.08" font-family="Times New Roman,serif" font-weight="bold" font-size="9.00">Primary (P)</text>
<polygon fill="none" stroke="black" points="89.38,-84.38 89.38,-109.62 158.12,-109.62 158.12,-84.38 89.38,-84.38"/>
<text text-anchor="start" x="96.38" y="-95.08" font-family="Times New Roman,serif" font-weight="bold" font-size="9.00">Secondary (P)</text>
<polygon fill="none" stroke="black" points="28.62,-83.38 28.62,-110.62 159.12,-110.62 159.12,-83.38 28.62,-83.38"/>
</g>
<!-- n_0_3_6&#45;&gt;n_0_3 -->
<g id="edge4" class="edge">
<title>n_0_3_6&#45;&gt;n_0_3</title>
<path fill="none" stroke="black" d="M186.15,-158.02C168.86,-146.77 147.2,-132.68 129.21,-120.98"/>
<polygon fill="black" stroke="black" points="131.2,-118.1 120.91,-115.58 127.38,-123.97 131.2,-118.1"/>
</g>
<!-- n_6 -->
<g id="node8" class="node">
<title>n_6</title>
<polygon fill="none" stroke="black" points="205.62,-84.38 205.62,-109.62 260.12,-109.62 260.12,-84.38 205.62,-84.38"/>
<text text-anchor="start" x="212.62" y="-95.08" font-family="Times New Roman,serif" font-weight="bold" font-size="9.00">University</text>
<polygon fill="none" stroke="black" points="204.62,-83.38 204.62,-110.62 261.12,-110.62 261.12,-83.38 204.62,-83.38"/>
</g>
<!-- n_0_3_6&#45;&gt;n_6 -->
<g id="edge7" class="edge">
<title>n_0_3_6&#45;&gt;n_6</title>
<path fill="none" stroke="black" d="M220.83,-158.22C222.77,-148.54 225.13,-136.72 227.25,-126.11"/>
<polygon fill="black" stroke="black" points="230.68,-126.82 229.21,-116.33 223.82,-125.45 230.68,-126.82"/>
</g>
<!-- n_0 -->
<g id="node6" class="node">
<title>n_0</title>
<polygon fill="none" stroke="black" points="9,-5.38 9,-30.62 68.75,-30.62 68.75,-5.38 9,-5.38"/>
<text text-anchor="start" x="16" y="-16.07" font-family="Times New Roman,serif" font-weight="bold" font-size="9.00">Primary (P)</text>
<polygon fill="none" stroke="black" points="8,-4.38 8,-31.62 69.75,-31.62 69.75,-4.38 8,-4.38"/>
</g>
<!-- n_0_3&#45;&gt;n_0 -->
<g id="edge5" class="edge">
<title>n_0_3&#45;&gt;n_0</title>
<path fill="none" stroke="black" d="M81.94,-79.29C74.78,-69.27 65.53,-56.31 57.43,-44.98"/>
<polygon fill="black" stroke="black" points="60.52,-43.28 51.86,-37.17 54.82,-47.34 60.52,-43.28"/>
</g>
<!-- n_3 -->
<g id="node7" class="node">
<title>n_3</title>
<polygon fill="none" stroke="black" points="115.5,-5.38 115.5,-30.62 184.25,-30.62 184.25,-5.38 115.5,-5.38"/>
<text text-anchor="start" x="122.5" y="-16.07" font-family="Times New Roman,serif" font-weight="bold" font-size="9.00">Secondary (P)</text>
<polygon fill="none" stroke="black" points="114.5,-4.38 114.5,-31.62 185.25,-31.62 185.25,-4.38 114.5,-4.38"/>
</g>
<!-- n_0_3&#45;&gt;n_3 -->
<g id="edge6" class="edge">
<title>n_0_3&#45;&gt;n_3</title>
<path fill="none" stroke="black" d="M106.03,-79.29C113.31,-69.27 122.74,-56.31 130.98,-44.98"/>
<polygon fill="black" stroke="black" points="133.61,-47.31 136.66,-37.17 127.95,-43.19 133.61,-47.31"/>
</g>
<!-- n_1 -->
<g id="node10" class="node">
<title>n_1</title>
<polygon fill="none" stroke="black" points="337.25,-84.38 337.25,-109.62 398.5,-109.62 398.5,-84.38 337.25,-84.38"/>
<text text-anchor="start" x="344.25" y="-95.08" font-family="Times New Roman,serif" font-weight="bold" font-size="9.00">Primary (G)</text>
<polygon fill="none" stroke="black" points="336.25,-83.38 336.25,-110.62 399.5,-110.62 399.5,-83.38 336.25,-83.38"/>
</g>
<!-- n_1_5&#45;&gt;n_1 -->
<g id="edge9" class="edge">
<title>n_1_5&#45;&gt;n_1</title>
<path fill="none" stroke="black" d="M379.69,-161.03C377.78,-150.85 375.31,-137.65 373.12,-125.96"/>
<polygon fill="black" stroke="black" points="376.61,-125.61 371.33,-116.43 369.73,-126.9 376.61,-125.61"/>
</g>
<!-- n_5 -->
<g id="node11" class="node">
<title>n_5</title>
<polygon fill="none" stroke="black" points="445.38,-84.38 445.38,-109.62 498.38,-109.62 498.38,-84.38 445.38,-84.38"/>
<text text-anchor="start" x="452.38" y="-95.08" font-family="Times New Roman,serif" font-weight="bold" font-size="9.00">Technical</text>
<polygon fill="none" stroke="black" points="444.38,-83.38 444.38,-110.62 499.38,-110.62 499.38,-83.38 444.38,-83.38"/>
</g>
<!-- n_1_5&#45;&gt;n_5 -->
<g id="edge10" class="edge">
<title>n_1_5&#45;&gt;n_5</title>
<path fill="none" stroke="black" d="M401.75,-161.03C414.26,-149.79 430.86,-134.87 444.77,-122.36"/>
<polygon fill="black" stroke="black" points="446.8,-125.24 451.9,-115.95 442.13,-120.04 446.8,-125.24"/>
</g>
</g>
</svg>
