<?xml version="1.0" encoding="UTF-8" standalone="no"?>
<!DOCTYPE svg PUBLIC "-//W3C//DTD SVG 1.1//EN"
 "http://www.w3.org/Graphics/SVG/1.1/DTD/svg11.dtd">
<!-- Generated by graphviz version 10.0.1 (20240210.2158)
 -->
<!-- Title: ND Pages: 1 -->
<svg width="594pt" height="526pt"
 viewBox="0.00 0.00 594.12 526.00" xmlns="http://www.w3.org/2000/svg" xmlns:xlink="http://www.w3.org/1999/xlink">
<g id="graph0" class="graph" transform="scale(1 1) rotate(0) translate(4 522)">
<title>ND</title>
<polygon fill="white" stroke="none" points="-4,4 -4,-522 590.12,-522 590.12,4 -4,4"/>
<!-- n_0_1_2_3_4_5_6 -->
<g id="node1" class="node">
<title>n_0_1_2_3_4_5_6</title>
<polygon fill="none" stroke="black" points="386.25,-445 386.25,-513 456.5,-513 456.5,-445 386.25,-445"/>
<text text-anchor="start" x="398.5" y="-498.45" font-family="Times New Roman,serif" font-weight="bold" font-size="9.00">Primary (P)</text>
<text text-anchor="start" x="397.75" y="-489.45" font-family="Times New Roman,serif" font-weight="bold" font-size="9.00">Primary (G)</text>
<text text-anchor="start" x="402.25" y="-480.45" font-family="Times New Roman,serif" font-weight="bold" font-size="9.00">Preschool</text>
<text text-anchor="start" x="394" y="-471.45" font-family="Times New Roman,serif" font-weight="bold" font-size="9.00">Secondary (P)</text>
<text text-anchor="start" x="393.25" y="-462.45" font-family="Times New Roman,serif" font-weight="bold" font-size="9.00">Secondary (G)</text>
<text text-anchor="start" x="401.12" y="-453.45" font-family="Times New Roman,serif" font-weight="bold" font-size="9.00">University</text>
<polygon fill="none" stroke="black" points="456.5,-445 456.5,-513 509.5,-513 509.5,-445 456.5,-445"/>
<text text-anchor="start" x="463.5" y="-477.07" font-family="Times New Roman,serif" font-weight="bold" font-size="9.00">Technical</text>
<polygon fill="none" stroke="black" points="385.25,-444 385.25,-514 510.5,-514 510.5,-444 385.25,-444"/>
</g>
<!-- n_0_1_2_3_4_6 -->
<g id="node2" class="node">
<title>n_0_1_2_3_4_6</title>
<polygon fill="none" stroke="black" points="317.5,-342 317.5,-392 387.75,-392 387.75,-342 317.5,-342"/>
<text text-anchor="start" x="329.75" y="-377.45" font-family="Times New Roman,serif" font-weight="bold" font-size="9.00">Primary (P)</text>
<text text-anchor="start" x="329" y="-368.45" font-family="Times New Roman,serif" font-weight="bold" font-size="9.00">Primary (G)</text>
<text text-anchor="start" x="325.25" y="-359.45" font-family="Times New Roman,serif" font-weight="bold" font-size="9.00">Secondary (P)</text>
<text text-anchor="start" x="324.5" y="-350.45" font-family="Times New Roman,serif" font-weight="bold" font-size="9.00">Secondary (G)</text>
<polygon fill="none" stroke="black" points="387.75,-342 387.75,-392 442.25,-392 442.25,-342 387.75,-342"/>
<text text-anchor="start" x="395.88" y="-368.45" font-family="Times New Roman,serif" font-weight="bold" font-size="9.00">Preschool</text>
<text text-anchor="start" x="394.75" y="-359.45" font-family="Times New Roman,serif" font-weight="bold" font-size="9.00">University</text>
<polygon fill="none" stroke="black" points="316.5,-341 316.5,-393 443.25,-393 443.25,-341 316.5,-341"/>
</g>
<!-- n_0_1_2_3_4_5_6&#45;&gt;n_0_1_2_3_4_6 -->
<g id="edge1" class="edge">
<title>n_0_1_2_3_4_5_6&#45;&gt;n_0_1_2_3_4_6</title>
<path fill="none" stroke="black" d="M424.47,-440.14C417.77,-429.3 410.45,-417.46 403.72,-406.57"/>
<polygon fill="black" stroke="black" points="406.76,-404.84 398.53,-398.18 400.81,-408.52 406.76,-404.84"/>
</g>
<!-- n_5 -->
<g id="node13" class="node">
<title>n_5</title>
<polygon fill="none" stroke="black" points="489.38,-354.38 489.38,-379.62 542.38,-379.62 542.38,-354.38 489.38,-354.38"/>
<text text-anchor="start" x="496.38" y="-365.07" font-family="Times New Roman,serif" font-weight="bold" font-size="9.00">Technical</text>
<polygon fill="none" stroke="black" points="488.38,-353.38 488.38,-380.62 543.38,-380.62 543.38,-353.38 488.38,-353.38"/>
</g>
<!-- n_0_1_2_3_4_5_6&#45;&gt;n_5 -->
<g id="edge12" class="edge">
<title>n_0_1_2_3_4_5_6&#45;&gt;n_5</title>
<path fill="none" stroke="black" d="M471.28,-440.14C480.52,-425.19 490.93,-408.35 499.36,-394.71"/>
<polygon fill="black" stroke="black" points="502.3,-396.62 504.58,-386.27 496.35,-392.94 502.3,-396.62"/>
</g>
<!-- n_0_1_3_4 -->
<g id="node3" class="node">
<title>n_0_1_3_4</title>
<polygon fill="none" stroke="black" points="225.38,-248 225.38,-289 294.12,-289 294.12,-248 225.38,-248"/>
<text text-anchor="start" x="236.88" y="-274.45" font-family="Times New Roman,serif" font-weight="bold" font-size="9.00">Primary (P)</text>
<text text-anchor="start" x="236.12" y="-265.45" font-family="Times New Roman,serif" font-weight="bold" font-size="9.00">Primary (G)</text>
<text text-anchor="start" x="232.38" y="-256.45" font-family="Times New Roman,serif" font-weight="bold" font-size="9.00">Secondary (P)</text>
<polygon fill="none" stroke="black" points="294.12,-248 294.12,-289 364.38,-289 364.38,-248 294.12,-248"/>
<text text-anchor="start" x="301.12" y="-266.57" font-family="Times New Roman,serif" font-weight="bold" font-size="9.00">Secondary (G)</text>
<polygon fill="none" stroke="black" points="224.38,-247 224.38,-290 365.38,-290 365.38,-247 224.38,-247"/>
</g>
<!-- n_0_1_2_3_4_6&#45;&gt;n_0_1_3_4 -->
<g id="edge2" class="edge">
<title>n_0_1_2_3_4_6&#45;&gt;n_0_1_3_4</title>
<path fill="none" stroke="black" d="M354.37,-337.05C344.71,-326.08 333.64,-313.51 323.69,-302.22"/>
<polygon fill="black" stroke="black" points="326.58,-300.2 317.35,-295.01 321.33,-304.83 326.58,-300.2"/>
</g>
<!-- n_2_6 -->
<g id="node10" class="node">
<title>n_2_6</title>
<polygon fill="none" stroke="black" points="411.5,-255.88 411.5,-281.12 463.75,-281.12 463.75,-255.88 411.5,-255.88"/>
<text text-anchor="start" x="418.5" y="-266.57" font-family="Times New Roman,serif" font-weight="bold" font-size="9.00">Preschool</text>
<polygon fill="none" stroke="black" points="463.75,-255.88 463.75,-281.12 518.25,-281.12 518.25,-255.88 463.75,-255.88"/>
<text text-anchor="start" x="470.75" y="-266.57" font-family="Times New Roman,serif" font-weight="bold" font-size="9.00">University</text>
<polygon fill="none" stroke="black" points="410.5,-254.88 410.5,-282.12 519.25,-282.12 519.25,-254.88 410.5,-254.88"/>
</g>
<!-- n_0_1_2_3_4_6&#45;&gt;n_2_6 -->
<g id="edge9" class="edge">
<title>n_0_1_2_3_4_6&#45;&gt;n_2_6</title>
<path fill="none" stroke="black" d="M405.38,-337.05C417.22,-323.6 431.17,-307.77 442.58,-294.81"/>
<polygon fill="black" stroke="black" points="445.04,-297.32 449.02,-287.5 439.78,-292.69 445.04,-297.32"/>
</g>
<!-- n_0_1_3 -->
<g id="node4" class="node">
<title>n_0_1_3</title>
<polygon fill="none" stroke="black" points="98.88,-163 98.88,-195 160.12,-195 160.12,-163 98.88,-163"/>
<text text-anchor="start" x="106.62" y="-180.45" font-family="Times New Roman,serif" font-weight="bold" font-size="9.00">Primary (P)</text>
<text text-anchor="start" x="105.88" y="-171.45" font-family="Times New Roman,serif" font-weight="bold" font-size="9.00">Primary (G)</text>
<polygon fill="none" stroke="black" points="160.12,-163 160.12,-195 228.88,-195 228.88,-163 160.12,-163"/>
<text text-anchor="start" x="167.12" y="-177.07" font-family="Times New Roman,serif" font-weight="bold" font-size="9.00">Secondary (P)</text>
<polygon fill="none" stroke="black" points="97.88,-162 97.88,-196 229.88,-196 229.88,-162 97.88,-162"/>
</g>
<!-- n_0_1_3_4&#45;&gt;n_0_1_3 -->
<g id="edge3" class="edge">
<title>n_0_1_3_4&#45;&gt;n_0_1_3</title>
<path fill="none" stroke="black" d="M258.38,-243.13C241.14,-231.61 220.53,-217.84 202.96,-206.11"/>
<polygon fill="black" stroke="black" points="205.08,-203.31 194.82,-200.67 201.19,-209.13 205.08,-203.31"/>
</g>
<!-- n_4 -->
<g id="node9" class="node">
<title>n_4</title>
<polygon fill="none" stroke="black" points="275.75,-166.38 275.75,-191.62 346,-191.62 346,-166.38 275.75,-166.38"/>
<text text-anchor="start" x="282.75" y="-177.07" font-family="Times New Roman,serif" font-weight="bold" font-size="9.00">Secondary (G)</text>
<polygon fill="none" stroke="black" points="274.75,-165.38 274.75,-192.62 347,-192.62 347,-165.38 274.75,-165.38"/>
</g>
<!-- n_0_1_3_4&#45;&gt;n_4 -->
<g id="edge8" class="edge">
<title>n_0_1_3_4&#45;&gt;n_4</title>
<path fill="none" stroke="black" d="M299.33,-243.13C301.34,-232.17 303.71,-219.18 305.79,-207.84"/>
<polygon fill="black" stroke="black" points="309.18,-208.73 307.54,-198.26 302.29,-207.47 309.18,-208.73"/>
</g>
<!-- n_0_1 -->
<g id="node5" class="node">
<title>n_0_1</title>
<polygon fill="none" stroke="black" points="32.38,-84.38 32.38,-109.62 92.12,-109.62 92.12,-84.38 32.38,-84.38"/>
<text text-anchor="start" x="39.38" y="-95.08" font-family="Times New Roman,serif" font-weight="bold" font-size="9.00">Primary (P)</text>
<polygon fill="none" stroke="black" points="92.12,-84.38 92.12,-109.62 153.38,-109.62 153.38,-84.38 92.12,-84.38"/>
<text text-anchor="start" x="99.12" y="-95.08" font-family="Times New Roman,serif" font-weight="bold" font-size="9.00">Primary (G)</text>
<polygon fill="none" stroke="black" points="31.38,-83.38 31.38,-110.62 154.38,-110.62 154.38,-83.38 31.38,-83.38"/>
</g>
<!-- n_0_1_3&#45;&gt;n_0_1 -->
<g id="edge4" class="edge">
<title>n_0_1_3&#45;&gt;n_0_1</title>
<path fill="none" stroke="black" d="M146.32,-158.22C136.99,-147.71 125.41,-134.66 115.42,-123.41"/>
<polygon fill="black" stroke="black" points="118.08,-121.13 108.83,-115.98 112.85,-125.78 118.08,-121.13"/>
</g>
<!-- n_3 -->
<g id="node8" class="node">
<title>n_3</title>
<polygon fill="none" stroke="black" points="200.5,-84.38 200.5,-109.62 269.25,-109.62 269.25,-84.38 200.5,-84.38"/>
<text text-anchor="start" x="207.5" y="-95.08" font-family="Times New Roman,serif" font-weight="bold" font-size="9.00">Secondary (P)</text>
<polygon fill="none" stroke="black" points="199.5,-83.38 199.5,-110.62 270.25,-110.62 270.25,-83.38 199.5,-83.38"/>
</g>
<!-- n_0_1_3&#45;&gt;n_3 -->
<g id="edge7" class="edge">
<title>n_0_1_3&#45;&gt;n_3</title>
<path fill="none" stroke="black" d="M181.43,-158.22C190.76,-147.71 202.34,-134.66 212.33,-123.41"/>
<polygon fill="black" stroke="black" points="214.9,-125.78 218.92,-115.98 209.67,-121.13 214.9,-125.78"/>
</g>
<!-- n_0 -->
<g id="node6" class="node">
<title>n_0</title>
<polygon fill="none" stroke="black" points="9,-5.38 9,-30.62 68.75,-30.62 68.75,-5.38 9,-5.38"/>
<text text-anchor="start" x="16" y="-16.07" font-family="Times New Roman,serif" font-weight="bold" font-size="9.00">Primary (P)</text>
<polygon fill="none" stroke="black" points="8,-4.38 8,-31.62 69.75,-31.62 69.75,-4.38 8,-4.38"/>
</g>
<!-- n_0_1&#45;&gt;n_0 -->
<g id="edge5" class="edge">
<title>n_0_1&#45;&gt;n_0</title>
<path fill="none" stroke="black" d="M81.16,-79.29C74.2,-69.37 65.22,-56.57 57.33,-45.32"/>
<polygon fill="black" stroke="black" points="60.23,-43.36 51.62,-37.18 54.5,-47.38 60.23,-43.36"/>
</g>
<!-- n_1 -->
<g id="node7" class="node">
<title>n_1</title>
<polygon fill="none" stroke="black" points="116.25,-5.38 116.25,-30.62 177.5,-30.62 177.5,-5.38 116.25,-5.38"/>
<text text-anchor="start" x="123.25" y="-16.07" font-family="Times New Roman,serif" font-weight="bold" font-size="9.00">Primary (G)</text>
<polygon fill="none" stroke="black" points="115.25,-4.38 115.25,-31.62 178.5,-31.62 178.5,-4.38 115.25,-4.38"/>
</g>
<!-- n_0_1&#45;&gt;n_1 -->
<g id="edge6" class="edge">
<title>n_0_1&#45;&gt;n_1</title>
<path fill="none" stroke="black" d="M104.59,-79.29C111.55,-69.37 120.53,-56.57 128.42,-45.32"/>
<polygon fill="black" stroke="black" points="131.25,-47.38 134.13,-37.18 125.52,-43.36 131.25,-47.38"/>
</g>
<!-- n_2 -->
<g id="node11" class="node">
<title>n_2</title>
<polygon fill="none" stroke="black" points="423.75,-166.38 423.75,-191.62 476,-191.62 476,-166.38 423.75,-166.38"/>
<text text-anchor="start" x="430.75" y="-177.07" font-family="Times New Roman,serif" font-weight="bold" font-size="9.00">Preschool</text>
<polygon fill="none" stroke="black" points="422.75,-165.38 422.75,-192.62 477,-192.62 477,-165.38 422.75,-165.38"/>
</g>
<!-- n_2_6&#45;&gt;n_2 -->
<g id="edge10" class="edge">
<title>n_2_6&#45;&gt;n_2</title>
<path fill="none" stroke="black" d="M461.98,-250.63C459.91,-238.52 457.06,-221.94 454.65,-207.88"/>
<polygon fill="black" stroke="black" points="458.15,-207.58 453.01,-198.31 451.25,-208.76 458.15,-207.58"/>
</g>
<!-- n_6 -->
<g id="node12" class="node">
<title>n_6</title>
<polygon fill="none" stroke="black" points="522.62,-166.38 522.62,-191.62 577.12,-191.62 577.12,-166.38 522.62,-166.38"/>
<text text-anchor="start" x="529.62" y="-177.07" font-family="Times New Roman,serif" font-weight="bold" font-size="9.00">University</text>
<polygon fill="none" stroke="black" points="521.62,-165.38 521.62,-192.62 578.12,-192.62 578.12,-165.38 521.62,-165.38"/>
</g>
<!-- n_2_6&#45;&gt;n_6 -->
<g id="edge11" class="edge">
<title>n_2_6&#45;&gt;n_6</title>
<path fill="none" stroke="black" d="M481.26,-250.63C493.85,-237.68 511.41,-219.59 525.62,-204.97"/>
<polygon fill="black" stroke="black" points="528.02,-207.52 532.48,-197.9 523,-202.64 528.02,-207.52"/>
</g>
</g>
</svg>
