<?xml version="1.0" encoding="UTF-8" standalone="no"?>
<!DOCTYPE svg PUBLIC "-//W3C//DTD SVG 1.1//EN"
 "http://www.w3.org/Graphics/SVG/1.1/DTD/svg11.dtd">
<!-- Generated by graphviz version 10.0.1 (20240210.2158)
 -->
<!-- Title: ND Pages: 1 -->
<svg width="559pt" height="638pt"
 viewBox="0.00 0.00 559.12 638.00" xmlns="http://www.w3.org/2000/svg" xmlns:xlink="http://www.w3.org/1999/xlink">
<g id="graph0" class="graph" transform="scale(1 1) rotate(0) translate(4 634)">
<title>ND</title>
<polygon fill="white" stroke="none" points="-4,4 -4,-634 555.12,-634 555.12,4 -4,4"/>
<!-- n_0_1_2_3_4_5_6 -->
<g id="node1" class="node">
<title>n_0_1_2_3_4_5_6</title>
<polygon fill="none" stroke="black" points="382,-557 382,-625 452.25,-625 452.25,-557 382,-557"/>
<text text-anchor="start" x="394.25" y="-610.45" font-family="Times New Roman,serif" font-weight="bold" font-size="9.00">Primary (P)</text>
<text text-anchor="start" x="393.5" y="-601.45" font-family="Times New Roman,serif" font-weight="bold" font-size="9.00">Primary (G)</text>
<text text-anchor="start" x="398" y="-592.45" font-family="Times New Roman,serif" font-weight="bold" font-size="9.00">Preschool</text>
<text text-anchor="start" x="389.75" y="-583.45" font-family="Times New Roman,serif" font-weight="bold" font-size="9.00">Secondary (P)</text>
<text text-anchor="start" x="389" y="-574.45" font-family="Times New Roman,serif" font-weight="bold" font-size="9.00">Secondary (G)</text>
<text text-anchor="start" x="396.88" y="-565.45" font-family="Times New Roman,serif" font-weight="bold" font-size="9.00">University</text>
<polygon fill="none" stroke="black" points="452.25,-557 452.25,-625 505.25,-625 505.25,-557 452.25,-557"/>
<text text-anchor="start" x="459.25" y="-589.08" font-family="Times New Roman,serif" font-weight="bold" font-size="9.00">Technical</text>
<polygon fill="none" stroke="black" points="381,-556 381,-626 506.25,-626 506.25,-556 381,-556"/>
</g>
<!-- n_0_1_2_3_4_6 -->
<g id="node2" class="node">
<title>n_0_1_2_3_4_6</title>
<polygon fill="none" stroke="black" points="303.12,-445 303.12,-504 371.88,-504 371.88,-445 303.12,-445"/>
<text text-anchor="start" x="314.62" y="-489.45" font-family="Times New Roman,serif" font-weight="bold" font-size="9.00">Primary (P)</text>
<text text-anchor="start" x="313.88" y="-480.45" font-family="Times New Roman,serif" font-weight="bold" font-size="9.00">Primary (G)</text>
<text text-anchor="start" x="318.38" y="-471.45" font-family="Times New Roman,serif" font-weight="bold" font-size="9.00">Preschool</text>
<text text-anchor="start" x="310.12" y="-462.45" font-family="Times New Roman,serif" font-weight="bold" font-size="9.00">Secondary (P)</text>
<text text-anchor="start" x="317.25" y="-453.45" font-family="Times New Roman,serif" font-weight="bold" font-size="9.00">University</text>
<polygon fill="none" stroke="black" points="371.88,-445 371.88,-504 442.12,-504 442.12,-445 371.88,-445"/>
<text text-anchor="start" x="378.88" y="-472.57" font-family="Times New Roman,serif" font-weight="bold" font-size="9.00">Secondary (G)</text>
<polygon fill="none" stroke="black" points="302.12,-444 302.12,-505 443.12,-505 443.12,-444 302.12,-444"/>
</g>
<!-- n_0_1_2_3_4_5_6&#45;&gt;n_0_1_2_3_4_6 -->
<g id="edge1" class="edge">
<title>n_0_1_2_3_4_5_6&#45;&gt;n_0_1_2_3_4_6</title>
<path fill="none" stroke="black" d="M420.18,-552.19C413.43,-541.31 406.02,-529.36 399.11,-518.21"/>
<polygon fill="black" stroke="black" points="402.22,-516.59 393.98,-509.94 396.28,-520.28 402.22,-516.59"/>
</g>
<!-- n_5 -->
<g id="node13" class="node">
<title>n_5</title>
<polygon fill="none" stroke="black" points="489.12,-461.88 489.12,-487.12 542.12,-487.12 542.12,-461.88 489.12,-461.88"/>
<text text-anchor="start" x="496.12" y="-472.57" font-family="Times New Roman,serif" font-weight="bold" font-size="9.00">Technical</text>
<polygon fill="none" stroke="black" points="488.12,-460.88 488.12,-488.12 543.12,-488.12 543.12,-460.88 488.12,-460.88"/>
</g>
<!-- n_0_1_2_3_4_5_6&#45;&gt;n_5 -->
<g id="edge12" class="edge">
<title>n_0_1_2_3_4_5_6&#45;&gt;n_5</title>
<path fill="none" stroke="black" d="M467.4,-552.19C477.72,-535.78 489.55,-516.96 498.92,-502.07"/>
<polygon fill="black" stroke="black" points="501.79,-504.07 504.15,-493.74 495.87,-500.35 501.79,-504.07"/>
</g>
<!-- n_0_1_2_3_6 -->
<g id="node3" class="node">
<title>n_0_1_2_3_6</title>
<polygon fill="none" stroke="black" points="239,-342 239,-392 307.75,-392 307.75,-342 239,-342"/>
<text text-anchor="start" x="250.5" y="-377.45" font-family="Times New Roman,serif" font-weight="bold" font-size="9.00">Primary (P)</text>
<text text-anchor="start" x="249.75" y="-368.45" font-family="Times New Roman,serif" font-weight="bold" font-size="9.00">Primary (G)</text>
<text text-anchor="start" x="254.25" y="-359.45" font-family="Times New Roman,serif" font-weight="bold" font-size="9.00">Preschool</text>
<text text-anchor="start" x="246" y="-350.45" font-family="Times New Roman,serif" font-weight="bold" font-size="9.00">Secondary (P)</text>
<polygon fill="none" stroke="black" points="307.75,-342 307.75,-392 362.25,-392 362.25,-342 307.75,-342"/>
<text text-anchor="start" x="314.75" y="-365.07" font-family="Times New Roman,serif" font-weight="bold" font-size="9.00">University</text>
<polygon fill="none" stroke="black" points="238,-341 238,-393 363.25,-393 363.25,-341 238,-341"/>
</g>
<!-- n_0_1_2_3_4_6&#45;&gt;n_0_1_2_3_6 -->
<g id="edge2" class="edge">
<title>n_0_1_2_3_4_6&#45;&gt;n_0_1_2_3_6</title>
<path fill="none" stroke="black" d="M349.84,-440.12C342.51,-429.38 334.34,-417.4 326.79,-406.33"/>
<polygon fill="black" stroke="black" points="329.73,-404.44 321.2,-398.15 323.95,-408.38 329.73,-404.44"/>
</g>
<!-- n_4 -->
<g id="node12" class="node">
<title>n_4</title>
<polygon fill="none" stroke="black" points="409.5,-354.38 409.5,-379.62 479.75,-379.62 479.75,-354.38 409.5,-354.38"/>
<text text-anchor="start" x="416.5" y="-365.07" font-family="Times New Roman,serif" font-weight="bold" font-size="9.00">Secondary (G)</text>
<polygon fill="none" stroke="black" points="408.5,-353.38 408.5,-380.62 480.75,-380.62 480.75,-353.38 408.5,-353.38"/>
</g>
<!-- n_0_1_2_3_4_6&#45;&gt;n_4 -->
<g id="edge11" class="edge">
<title>n_0_1_2_3_4_6&#45;&gt;n_4</title>
<path fill="none" stroke="black" d="M395.41,-440.12C405.48,-425.35 417.17,-408.23 426.62,-394.38"/>
<polygon fill="black" stroke="black" points="429.46,-396.43 432.2,-386.2 423.68,-392.49 429.46,-396.43"/>
</g>
<!-- n_0_1_2_3 -->
<g id="node4" class="node">
<title>n_0_1_2_3</title>
<polygon fill="none" stroke="black" points="167.38,-248 167.38,-289 236.12,-289 236.12,-248 167.38,-248"/>
<text text-anchor="start" x="178.12" y="-274.45" font-family="Times New Roman,serif" font-weight="bold" font-size="9.00">Primary (G)</text>
<text text-anchor="start" x="182.62" y="-265.45" font-family="Times New Roman,serif" font-weight="bold" font-size="9.00">Preschool</text>
<text text-anchor="start" x="174.38" y="-256.45" font-family="Times New Roman,serif" font-weight="bold" font-size="9.00">Secondary (P)</text>
<polygon fill="none" stroke="black" points="236.12,-248 236.12,-289 295.88,-289 295.88,-248 236.12,-248"/>
<text text-anchor="start" x="243.12" y="-266.57" font-family="Times New Roman,serif" font-weight="bold" font-size="9.00">Primary (P)</text>
<polygon fill="none" stroke="black" points="166.38,-247 166.38,-290 296.88,-290 296.88,-247 166.38,-247"/>
</g>
<!-- n_0_1_2_3_6&#45;&gt;n_0_1_2_3 -->
<g id="edge3" class="edge">
<title>n_0_1_2_3_6&#45;&gt;n_0_1_2_3</title>
<path fill="none" stroke="black" d="M279.92,-337.05C272.31,-326.4 263.62,-314.25 255.73,-303.22"/>
<polygon fill="black" stroke="black" points="258.6,-301.2 249.93,-295.11 252.9,-305.28 258.6,-301.2"/>
</g>
<!-- n_6 -->
<g id="node11" class="node">
<title>n_6</title>
<polygon fill="none" stroke="black" points="343.38,-255.88 343.38,-281.12 397.88,-281.12 397.88,-255.88 343.38,-255.88"/>
<text text-anchor="start" x="350.38" y="-266.57" font-family="Times New Roman,serif" font-weight="bold" font-size="9.00">University</text>
<polygon fill="none" stroke="black" points="342.38,-254.88 342.38,-282.12 398.88,-282.12 398.88,-254.88 342.38,-254.88"/>
</g>
<!-- n_0_1_2_3_6&#45;&gt;n_6 -->
<g id="edge10" class="edge">
<title>n_0_1_2_3_6&#45;&gt;n_6</title>
<path fill="none" stroke="black" d="M321.63,-337.05C331.19,-323.86 342.42,-308.38 351.72,-295.56"/>
<polygon fill="black" stroke="black" points="354.46,-297.74 357.5,-287.59 348.8,-293.63 354.46,-297.74"/>
</g>
<!-- n_1_2_3 -->
<g id="node5" class="node">
<title>n_1_2_3</title>
<polygon fill="none" stroke="black" points="95.62,-163 95.62,-195 156.88,-195 156.88,-163 95.62,-163"/>
<text text-anchor="start" x="102.62" y="-180.45" font-family="Times New Roman,serif" font-weight="bold" font-size="9.00">Primary (G)</text>
<text text-anchor="start" x="107.12" y="-171.45" font-family="Times New Roman,serif" font-weight="bold" font-size="9.00">Preschool</text>
<polygon fill="none" stroke="black" points="156.88,-163 156.88,-195 225.62,-195 225.62,-163 156.88,-163"/>
<text text-anchor="start" x="163.88" y="-177.07" font-family="Times New Roman,serif" font-weight="bold" font-size="9.00">Secondary (P)</text>
<polygon fill="none" stroke="black" points="94.62,-162 94.62,-196 226.62,-196 226.62,-162 94.62,-162"/>
</g>
<!-- n_0_1_2_3&#45;&gt;n_1_2_3 -->
<g id="edge4" class="edge">
<title>n_0_1_2_3&#45;&gt;n_1_2_3</title>
<path fill="none" stroke="black" d="M211.85,-243.13C203.19,-232.46 192.97,-219.87 183.95,-208.75"/>
<polygon fill="black" stroke="black" points="186.68,-206.56 177.67,-201 181.25,-210.97 186.68,-206.56"/>
</g>
<!-- n_0 -->
<g id="node10" class="node">
<title>n_0</title>
<polygon fill="none" stroke="black" points="272.75,-166.38 272.75,-191.62 332.5,-191.62 332.5,-166.38 272.75,-166.38"/>
<text text-anchor="start" x="279.75" y="-177.07" font-family="Times New Roman,serif" font-weight="bold" font-size="9.00">Primary (P)</text>
<polygon fill="none" stroke="black" points="271.75,-165.38 271.75,-192.62 333.5,-192.62 333.5,-165.38 271.75,-165.38"/>
</g>
<!-- n_0_1_2_3&#45;&gt;n_0 -->
<g id="edge9" class="edge">
<title>n_0_1_2_3&#45;&gt;n_0</title>
<path fill="none" stroke="black" d="M251.4,-243.13C260.86,-231.48 272.17,-217.53 281.76,-205.71"/>
<polygon fill="black" stroke="black" points="284.48,-207.92 288.06,-197.95 279.04,-203.51 284.48,-207.92"/>
</g>
<!-- n_1_2 -->
<g id="node6" class="node">
<title>n_1_2</title>
<polygon fill="none" stroke="black" points="34.88,-84.38 34.88,-109.62 96.12,-109.62 96.12,-84.38 34.88,-84.38"/>
<text text-anchor="start" x="41.88" y="-95.08" font-family="Times New Roman,serif" font-weight="bold" font-size="9.00">Primary (G)</text>
<polygon fill="none" stroke="black" points="96.12,-84.38 96.12,-109.62 148.38,-109.62 148.38,-84.38 96.12,-84.38"/>
<text text-anchor="start" x="103.12" y="-95.08" font-family="Times New Roman,serif" font-weight="bold" font-size="9.00">Preschool</text>
<polygon fill="none" stroke="black" points="33.88,-83.38 33.88,-110.62 149.38,-110.62 149.38,-83.38 33.88,-83.38"/>
</g>
<!-- n_1_2_3&#45;&gt;n_1_2 -->
<g id="edge5" class="edge">
<title>n_1_2_3&#45;&gt;n_1_2</title>
<path fill="none" stroke="black" d="M143.57,-158.22C134.5,-147.71 123.25,-134.66 113.54,-123.41"/>
<polygon fill="black" stroke="black" points="116.32,-121.28 107.14,-115.99 111.02,-125.85 116.32,-121.28"/>
</g>
<!-- n_3 -->
<g id="node9" class="node">
<title>n_3</title>
<polygon fill="none" stroke="black" points="195.25,-84.38 195.25,-109.62 264,-109.62 264,-84.38 195.25,-84.38"/>
<text text-anchor="start" x="202.25" y="-95.08" font-family="Times New Roman,serif" font-weight="bold" font-size="9.00">Secondary (P)</text>
<polygon fill="none" stroke="black" points="194.25,-83.38 194.25,-110.62 265,-110.62 265,-83.38 194.25,-83.38"/>
</g>
<!-- n_1_2_3&#45;&gt;n_3 -->
<g id="edge8" class="edge">
<title>n_1_2_3&#45;&gt;n_3</title>
<path fill="none" stroke="black" d="M177.68,-158.22C186.75,-147.71 198,-134.66 207.71,-123.41"/>
<polygon fill="black" stroke="black" points="210.23,-125.85 214.11,-115.99 204.93,-121.28 210.23,-125.85"/>
</g>
<!-- n_1 -->
<g id="node7" class="node">
<title>n_1</title>
<polygon fill="none" stroke="black" points="9,-5.38 9,-30.62 70.25,-30.62 70.25,-5.38 9,-5.38"/>
<text text-anchor="start" x="16" y="-16.07" font-family="Times New Roman,serif" font-weight="bold" font-size="9.00">Primary (G)</text>
<polygon fill="none" stroke="black" points="8,-4.38 8,-31.62 71.25,-31.62 71.25,-4.38 8,-4.38"/>
</g>
<!-- n_1_2&#45;&gt;n_1 -->
<g id="edge6" class="edge">
<title>n_1_2&#45;&gt;n_1</title>
<path fill="none" stroke="black" d="M80.34,-79.29C73.64,-69.37 65,-56.57 57.4,-45.32"/>
<polygon fill="black" stroke="black" points="60.41,-43.52 51.91,-37.2 54.61,-47.44 60.41,-43.52"/>
</g>
<!-- n_2 -->
<g id="node8" class="node">
<title>n_2</title>
<polygon fill="none" stroke="black" points="117.5,-5.38 117.5,-30.62 169.75,-30.62 169.75,-5.38 117.5,-5.38"/>
<text text-anchor="start" x="124.5" y="-16.07" font-family="Times New Roman,serif" font-weight="bold" font-size="9.00">Preschool</text>
<polygon fill="none" stroke="black" points="116.5,-4.38 116.5,-31.62 170.75,-31.62 170.75,-4.38 116.5,-4.38"/>
</g>
<!-- n_1_2&#45;&gt;n_2 -->
<g id="edge7" class="edge">
<title>n_1_2&#45;&gt;n_2</title>
<path fill="none" stroke="black" d="M102.91,-79.29C109.61,-69.37 118.25,-56.57 125.85,-45.32"/>
<polygon fill="black" stroke="black" points="128.64,-47.44 131.34,-37.2 122.84,-43.52 128.64,-47.44"/>
</g>
</g>
</svg>
