<?xml version="1.0" encoding="UTF-8" standalone="no"?>
<!DOCTYPE svg PUBLIC "-//W3C//DTD SVG 1.1//EN"
 "http://www.w3.org/Graphics/SVG/1.1/DTD/svg11.dtd">
<!-- Generated by graphviz version 10.0.1 (20240210.2158)
 -->
<!-- Title: ND Pages: 1 -->
<svg width="569pt" height="638pt"
 viewBox="0.00 0.00 568.50 638.00" xmlns="http://www.w3.org/2000/svg" xmlns:xlink="http://www.w3.org/1999/xlink">
<g id="graph0" class="graph" transform="scale(1 1) rotate(0) translate(4 634)">
<title>ND</title>
<polygon fill="white" stroke="none" points="-4,4 -4,-634 564.5,-634 564.5,4 -4,4"/>
<!-- n_0_1_2_3_4_5_6 -->
<g id="node1" class="node">
<title>n_0_1_2_3_4_5_6</title>
<polygon fill="none" stroke="black" points="374.88,-557 374.88,-625 443.62,-625 443.62,-557 374.88,-557"/>
<text text-anchor="start" x="386.38" y="-610.45" font-family="Times New Roman,serif" font-weight="bold" font-size="9.00">Primary (P)</text>
<text text-anchor="start" x="385.62" y="-601.45" font-family="Times New Roman,serif" font-weight="bold" font-size="9.00">Primary (G)</text>
<text text-anchor="start" x="390.12" y="-592.45" font-family="Times New Roman,serif" font-weight="bold" font-size="9.00">Preschool</text>
<text text-anchor="start" x="381.88" y="-583.45" font-family="Times New Roman,serif" font-weight="bold" font-size="9.00">Secondary (P)</text>
<text text-anchor="start" x="389.75" y="-574.45" font-family="Times New Roman,serif" font-weight="bold" font-size="9.00">Technical</text>
<text text-anchor="start" x="389" y="-565.45" font-family="Times New Roman,serif" font-weight="bold" font-size="9.00">University</text>
<polygon fill="none" stroke="black" points="443.62,-557 443.62,-625 513.88,-625 513.88,-557 443.62,-557"/>
<text text-anchor="start" x="450.62" y="-589.08" font-family="Times New Roman,serif" font-weight="bold" font-size="9.00">Secondary (G)</text>
<polygon fill="none" stroke="black" points="373.88,-556 373.88,-626 514.88,-626 514.88,-556 373.88,-556"/>
</g>
<!-- n_0_1_2_3_5_6 -->
<g id="node2" class="node">
<title>n_0_1_2_3_5_6</title>
<polygon fill="none" stroke="black" points="312.88,-445 312.88,-504 381.62,-504 381.62,-445 312.88,-445"/>
<text text-anchor="start" x="324.38" y="-489.45" font-family="Times New Roman,serif" font-weight="bold" font-size="9.00">Primary (P)</text>
<text text-anchor="start" x="323.62" y="-480.45" font-family="Times New Roman,serif" font-weight="bold" font-size="9.00">Primary (G)</text>
<text text-anchor="start" x="319.88" y="-471.45" font-family="Times New Roman,serif" font-weight="bold" font-size="9.00">Secondary (P)</text>
<text text-anchor="start" x="327.75" y="-462.45" font-family="Times New Roman,serif" font-weight="bold" font-size="9.00">Technical</text>
<text text-anchor="start" x="327" y="-453.45" font-family="Times New Roman,serif" font-weight="bold" font-size="9.00">University</text>
<polygon fill="none" stroke="black" points="381.62,-445 381.62,-504 433.88,-504 433.88,-445 381.62,-445"/>
<text text-anchor="start" x="388.62" y="-472.57" font-family="Times New Roman,serif" font-weight="bold" font-size="9.00">Preschool</text>
<polygon fill="none" stroke="black" points="311.88,-444 311.88,-505 434.88,-505 434.88,-444 311.88,-444"/>
</g>
<!-- n_0_1_2_3_4_5_6&#45;&gt;n_0_1_2_3_5_6 -->
<g id="edge1" class="edge">
<title>n_0_1_2_3_4_5_6&#45;&gt;n_0_1_2_3_5_6</title>
<path fill="none" stroke="black" d="M420.93,-552.19C414.18,-541.31 406.77,-529.36 399.86,-518.21"/>
<polygon fill="black" stroke="black" points="402.97,-516.59 394.73,-509.94 397.03,-520.28 402.97,-516.59"/>
</g>
<!-- n_4 -->
<g id="node13" class="node">
<title>n_4</title>
<polygon fill="none" stroke="black" points="481.25,-461.88 481.25,-487.12 551.5,-487.12 551.5,-461.88 481.25,-461.88"/>
<text text-anchor="start" x="488.25" y="-472.57" font-family="Times New Roman,serif" font-weight="bold" font-size="9.00">Secondary (G)</text>
<polygon fill="none" stroke="black" points="480.25,-460.88 480.25,-488.12 552.5,-488.12 552.5,-460.88 480.25,-460.88"/>
</g>
<!-- n_0_1_2_3_4_5_6&#45;&gt;n_4 -->
<g id="edge12" class="edge">
<title>n_0_1_2_3_4_5_6&#45;&gt;n_4</title>
<path fill="none" stroke="black" d="M468.15,-552.19C478.47,-535.78 490.3,-516.96 499.67,-502.07"/>
<polygon fill="black" stroke="black" points="502.54,-504.07 504.9,-493.74 496.62,-500.35 502.54,-504.07"/>
</g>
<!-- n_0_1_3_5_6 -->
<g id="node3" class="node">
<title>n_0_1_3_5_6</title>
<polygon fill="none" stroke="black" points="244.75,-342 244.75,-392 313.5,-392 313.5,-342 244.75,-342"/>
<text text-anchor="start" x="256.25" y="-377.45" font-family="Times New Roman,serif" font-weight="bold" font-size="9.00">Primary (P)</text>
<text text-anchor="start" x="255.5" y="-368.45" font-family="Times New Roman,serif" font-weight="bold" font-size="9.00">Primary (G)</text>
<text text-anchor="start" x="251.75" y="-359.45" font-family="Times New Roman,serif" font-weight="bold" font-size="9.00">Secondary (P)</text>
<text text-anchor="start" x="259.62" y="-350.45" font-family="Times New Roman,serif" font-weight="bold" font-size="9.00">Technical</text>
<polygon fill="none" stroke="black" points="313.5,-342 313.5,-392 368,-392 368,-342 313.5,-342"/>
<text text-anchor="start" x="320.5" y="-365.07" font-family="Times New Roman,serif" font-weight="bold" font-size="9.00">University</text>
<polygon fill="none" stroke="black" points="243.75,-341 243.75,-393 369,-393 369,-341 243.75,-341"/>
</g>
<!-- n_0_1_2_3_5_6&#45;&gt;n_0_1_3_5_6 -->
<g id="edge2" class="edge">
<title>n_0_1_2_3_5_6&#45;&gt;n_0_1_3_5_6</title>
<path fill="none" stroke="black" d="M352.18,-440.12C345.36,-429.38 337.75,-417.4 330.72,-406.33"/>
<polygon fill="black" stroke="black" points="333.85,-404.74 325.54,-398.18 327.95,-408.49 333.85,-404.74"/>
</g>
<!-- n_2 -->
<g id="node12" class="node">
<title>n_2</title>
<polygon fill="none" stroke="black" points="415.25,-354.38 415.25,-379.62 467.5,-379.62 467.5,-354.38 415.25,-354.38"/>
<text text-anchor="start" x="422.25" y="-365.07" font-family="Times New Roman,serif" font-weight="bold" font-size="9.00">Preschool</text>
<polygon fill="none" stroke="black" points="414.25,-353.38 414.25,-380.62 468.5,-380.62 468.5,-353.38 414.25,-353.38"/>
</g>
<!-- n_0_1_2_3_5_6&#45;&gt;n_2 -->
<g id="edge11" class="edge">
<title>n_0_1_2_3_5_6&#45;&gt;n_2</title>
<path fill="none" stroke="black" d="M394.89,-440.12C404.41,-425.35 415.44,-408.23 424.37,-394.38"/>
<polygon fill="black" stroke="black" points="427.15,-396.52 429.63,-386.22 421.27,-392.73 427.15,-396.52"/>
</g>
<!-- n_0_1_3_5 -->
<g id="node4" class="node">
<title>n_0_1_3_5</title>
<polygon fill="none" stroke="black" points="173.12,-248 173.12,-289 241.88,-289 241.88,-248 173.12,-248"/>
<text text-anchor="start" x="183.88" y="-274.45" font-family="Times New Roman,serif" font-weight="bold" font-size="9.00">Primary (G)</text>
<text text-anchor="start" x="180.12" y="-265.45" font-family="Times New Roman,serif" font-weight="bold" font-size="9.00">Secondary (P)</text>
<text text-anchor="start" x="188" y="-256.45" font-family="Times New Roman,serif" font-weight="bold" font-size="9.00">Technical</text>
<polygon fill="none" stroke="black" points="241.88,-248 241.88,-289 301.62,-289 301.62,-248 241.88,-248"/>
<text text-anchor="start" x="248.88" y="-266.57" font-family="Times New Roman,serif" font-weight="bold" font-size="9.00">Primary (P)</text>
<polygon fill="none" stroke="black" points="172.12,-247 172.12,-290 302.62,-290 302.62,-247 172.12,-247"/>
</g>
<!-- n_0_1_3_5_6&#45;&gt;n_0_1_3_5 -->
<g id="edge3" class="edge">
<title>n_0_1_3_5_6&#45;&gt;n_0_1_3_5</title>
<path fill="none" stroke="black" d="M285.67,-337.05C278.06,-326.4 269.37,-314.25 261.48,-303.22"/>
<polygon fill="black" stroke="black" points="264.35,-301.2 255.68,-295.11 258.65,-305.28 264.35,-301.2"/>
</g>
<!-- n_6 -->
<g id="node11" class="node">
<title>n_6</title>
<polygon fill="none" stroke="black" points="349.12,-255.88 349.12,-281.12 403.62,-281.12 403.62,-255.88 349.12,-255.88"/>
<text text-anchor="start" x="356.12" y="-266.57" font-family="Times New Roman,serif" font-weight="bold" font-size="9.00">University</text>
<polygon fill="none" stroke="black" points="348.12,-254.88 348.12,-282.12 404.62,-282.12 404.62,-254.88 348.12,-254.88"/>
</g>
<!-- n_0_1_3_5_6&#45;&gt;n_6 -->
<g id="edge10" class="edge">
<title>n_0_1_3_5_6&#45;&gt;n_6</title>
<path fill="none" stroke="black" d="M327.38,-337.05C336.94,-323.86 348.17,-308.38 357.47,-295.56"/>
<polygon fill="black" stroke="black" points="360.21,-297.74 363.25,-287.59 354.55,-293.63 360.21,-297.74"/>
</g>
<!-- n_1_3_5 -->
<g id="node5" class="node">
<title>n_1_3_5</title>
<polygon fill="none" stroke="black" points="101.38,-163 101.38,-195 170.12,-195 170.12,-163 101.38,-163"/>
<text text-anchor="start" x="108.38" y="-180.45" font-family="Times New Roman,serif" font-weight="bold" font-size="9.00">Secondary (P)</text>
<text text-anchor="start" x="116.25" y="-171.45" font-family="Times New Roman,serif" font-weight="bold" font-size="9.00">Technical</text>
<polygon fill="none" stroke="black" points="170.12,-163 170.12,-195 231.38,-195 231.38,-163 170.12,-163"/>
<text text-anchor="start" x="177.12" y="-177.07" font-family="Times New Roman,serif" font-weight="bold" font-size="9.00">Primary (G)</text>
<polygon fill="none" stroke="black" points="100.38,-162 100.38,-196 232.38,-196 232.38,-162 100.38,-162"/>
</g>
<!-- n_0_1_3_5&#45;&gt;n_1_3_5 -->
<g id="edge4" class="edge">
<title>n_0_1_3_5&#45;&gt;n_1_3_5</title>
<path fill="none" stroke="black" d="M217.6,-243.13C208.94,-232.46 198.72,-219.87 189.7,-208.75"/>
<polygon fill="black" stroke="black" points="192.43,-206.56 183.42,-201 187,-210.97 192.43,-206.56"/>
</g>
<!-- n_0 -->
<g id="node10" class="node">
<title>n_0</title>
<polygon fill="none" stroke="black" points="278.5,-166.38 278.5,-191.62 338.25,-191.62 338.25,-166.38 278.5,-166.38"/>
<text text-anchor="start" x="285.5" y="-177.07" font-family="Times New Roman,serif" font-weight="bold" font-size="9.00">Primary (P)</text>
<polygon fill="none" stroke="black" points="277.5,-165.38 277.5,-192.62 339.25,-192.62 339.25,-165.38 277.5,-165.38"/>
</g>
<!-- n_0_1_3_5&#45;&gt;n_0 -->
<g id="edge9" class="edge">
<title>n_0_1_3_5&#45;&gt;n_0</title>
<path fill="none" stroke="black" d="M257.15,-243.13C266.61,-231.48 277.92,-217.53 287.51,-205.71"/>
<polygon fill="black" stroke="black" points="290.23,-207.92 293.81,-197.95 284.79,-203.51 290.23,-207.92"/>
</g>
<!-- n_3_5 -->
<g id="node6" class="node">
<title>n_3_5</title>
<polygon fill="none" stroke="black" points="36.5,-84.38 36.5,-109.62 105.25,-109.62 105.25,-84.38 36.5,-84.38"/>
<text text-anchor="start" x="43.5" y="-95.08" font-family="Times New Roman,serif" font-weight="bold" font-size="9.00">Secondary (P)</text>
<polygon fill="none" stroke="black" points="105.25,-84.38 105.25,-109.62 158.25,-109.62 158.25,-84.38 105.25,-84.38"/>
<text text-anchor="start" x="112.25" y="-95.08" font-family="Times New Roman,serif" font-weight="bold" font-size="9.00">Technical</text>
<polygon fill="none" stroke="black" points="35.5,-83.38 35.5,-110.62 159.25,-110.62 159.25,-83.38 35.5,-83.38"/>
</g>
<!-- n_1_3_5&#45;&gt;n_3_5 -->
<g id="edge5" class="edge">
<title>n_1_3_5&#45;&gt;n_3_5</title>
<path fill="none" stroke="black" d="M149.32,-158.22C140.25,-147.71 129,-134.66 119.29,-123.41"/>
<polygon fill="black" stroke="black" points="122.07,-121.28 112.89,-115.99 116.77,-125.85 122.07,-121.28"/>
</g>
<!-- n_1 -->
<g id="node9" class="node">
<title>n_1</title>
<polygon fill="none" stroke="black" points="205.75,-84.38 205.75,-109.62 267,-109.62 267,-84.38 205.75,-84.38"/>
<text text-anchor="start" x="212.75" y="-95.08" font-family="Times New Roman,serif" font-weight="bold" font-size="9.00">Primary (G)</text>
<polygon fill="none" stroke="black" points="204.75,-83.38 204.75,-110.62 268,-110.62 268,-83.38 204.75,-83.38"/>
</g>
<!-- n_1_3_5&#45;&gt;n_1 -->
<g id="edge8" class="edge">
<title>n_1_3_5&#45;&gt;n_1</title>
<path fill="none" stroke="black" d="M183.68,-158.22C192.88,-147.71 204.29,-134.66 214.14,-123.41"/>
<polygon fill="black" stroke="black" points="216.69,-125.81 220.64,-115.98 211.42,-121.2 216.69,-125.81"/>
</g>
<!-- n_3 -->
<g id="node7" class="node">
<title>n_3</title>
<polygon fill="none" stroke="black" points="9,-5.38 9,-30.62 77.75,-30.62 77.75,-5.38 9,-5.38"/>
<text text-anchor="start" x="16" y="-16.07" font-family="Times New Roman,serif" font-weight="bold" font-size="9.00">Secondary (P)</text>
<polygon fill="none" stroke="black" points="8,-4.38 8,-31.62 78.75,-31.62 78.75,-4.38 8,-4.38"/>
</g>
<!-- n_3_5&#45;&gt;n_3 -->
<g id="edge6" class="edge">
<title>n_3_5&#45;&gt;n_3</title>
<path fill="none" stroke="black" d="M85.66,-79.29C78.7,-69.37 69.72,-56.57 61.83,-45.32"/>
<polygon fill="black" stroke="black" points="64.73,-43.36 56.12,-37.18 59,-47.38 64.73,-43.36"/>
</g>
<!-- n_5 -->
<g id="node8" class="node">
<title>n_5</title>
<polygon fill="none" stroke="black" points="124.88,-5.38 124.88,-30.62 177.88,-30.62 177.88,-5.38 124.88,-5.38"/>
<text text-anchor="start" x="131.88" y="-16.07" font-family="Times New Roman,serif" font-weight="bold" font-size="9.00">Technical</text>
<polygon fill="none" stroke="black" points="123.88,-4.38 123.88,-31.62 178.88,-31.62 178.88,-4.38 123.88,-4.38"/>
</g>
<!-- n_3_5&#45;&gt;n_5 -->
<g id="edge7" class="edge">
<title>n_3_5&#45;&gt;n_5</title>
<path fill="none" stroke="black" d="M109.09,-79.29C116.05,-69.37 125.03,-56.57 132.92,-45.32"/>
<polygon fill="black" stroke="black" points="135.75,-47.38 138.63,-37.18 130.02,-43.36 135.75,-47.38"/>
</g>
</g>
</svg>
