<?xml version="1.0" encoding="UTF-8" standalone="no"?>
<!DOCTYPE svg PUBLIC "-//W3C//DTD SVG 1.1//EN"
 "http://www.w3.org/Graphics/SVG/1.1/DTD/svg11.dtd">
<!-- Generated by graphviz version 10.0.1 (20240210.2158)
 -->
<!-- Title: ND Pages: 1 -->
<svg width="609pt" height="432pt"
 viewBox="0.00 0.00 608.50 432.00" xmlns="http://www.w3.org/2000/svg" xmlns:xlink="http://www.w3.org/1999/xlink">
<g id="graph0" class="graph" transform="scale(1 1) rotate(0) translate(4 428)">
<title>ND</title>
<polygon fill="white" stroke="none" points="-4,4 -4,-428 604.5,-428 604.5,4 -4,4"/>
<!-- n_0_1_2_3_4_5_6 -->
<g id="node1" class="node">
<title>n_0_1_2_3_4_5_6</title>
<polygon fill="none" stroke="black" points="388.38,-351 388.38,-419 458.62,-419 458.62,-351 388.38,-351"/>
<text text-anchor="start" x="399.88" y="-404.45" font-family="Times New Roman,serif" font-weight="bold" font-size="9.00">Primary (G)</text>
<text text-anchor="start" x="404.38" y="-395.45" font-family="Times New Roman,serif" font-weight="bold" font-size="9.00">Preschool</text>
<text text-anchor="start" x="396.12" y="-386.45" font-family="Times New Roman,serif" font-weight="bold" font-size="9.00">Secondary (P)</text>
<text text-anchor="start" x="395.38" y="-377.45" font-family="Times New Roman,serif" font-weight="bold" font-size="9.00">Secondary (G)</text>
<text text-anchor="start" x="404" y="-368.45" font-family="Times New Roman,serif" font-weight="bold" font-size="9.00">Technical</text>
<text text-anchor="start" x="403.25" y="-359.45" font-family="Times New Roman,serif" font-weight="bold" font-size="9.00">University</text>
<polygon fill="none" stroke="black" points="458.62,-351 458.62,-419 518.38,-419 518.38,-351 458.62,-351"/>
<text text-anchor="start" x="465.62" y="-383.07" font-family="Times New Roman,serif" font-weight="bold" font-size="9.00">Primary (P)</text>
<polygon fill="none" stroke="black" points="387.38,-350 387.38,-420 519.38,-420 519.38,-350 387.38,-350"/>
</g>
<!-- n_1_2_3_4_5_6 -->
<g id="node2" class="node">
<title>n_1_2_3_4_5_6</title>
<polygon fill="none" stroke="black" points="316.62,-248 316.62,-298 386.88,-298 386.88,-248 316.62,-248"/>
<text text-anchor="start" x="324.38" y="-283.45" font-family="Times New Roman,serif" font-weight="bold" font-size="9.00">Secondary (P)</text>
<text text-anchor="start" x="323.62" y="-274.45" font-family="Times New Roman,serif" font-weight="bold" font-size="9.00">Secondary (G)</text>
<text text-anchor="start" x="332.25" y="-265.45" font-family="Times New Roman,serif" font-weight="bold" font-size="9.00">Technical</text>
<text text-anchor="start" x="331.5" y="-256.45" font-family="Times New Roman,serif" font-weight="bold" font-size="9.00">University</text>
<polygon fill="none" stroke="black" points="386.88,-248 386.88,-298 448.12,-298 448.12,-248 386.88,-248"/>
<text text-anchor="start" x="393.88" y="-274.45" font-family="Times New Roman,serif" font-weight="bold" font-size="9.00">Primary (G)</text>
<text text-anchor="start" x="398.38" y="-265.45" font-family="Times New Roman,serif" font-weight="bold" font-size="9.00">Preschool</text>
<polygon fill="none" stroke="black" points="315.62,-247 315.62,-299 449.12,-299 449.12,-247 315.62,-247"/>
</g>
<!-- n_0_1_2_3_4_5_6&#45;&gt;n_1_2_3_4_5_6 -->
<g id="edge1" class="edge">
<title>n_0_1_2_3_4_5_6&#45;&gt;n_1_2_3_4_5_6</title>
<path fill="none" stroke="black" d="M428.94,-346.14C421.87,-335.19 414.14,-323.22 407.05,-312.23"/>
<polygon fill="black" stroke="black" points="410.21,-310.66 401.84,-304.16 404.32,-314.46 410.21,-310.66"/>
</g>
<!-- n_0 -->
<g id="node13" class="node">
<title>n_0</title>
<polygon fill="none" stroke="black" points="495.5,-260.38 495.5,-285.62 555.25,-285.62 555.25,-260.38 495.5,-260.38"/>
<text text-anchor="start" x="502.5" y="-271.07" font-family="Times New Roman,serif" font-weight="bold" font-size="9.00">Primary (P)</text>
<polygon fill="none" stroke="black" points="494.5,-259.38 494.5,-286.62 556.25,-286.62 556.25,-259.38 494.5,-259.38"/>
</g>
<!-- n_0_1_2_3_4_5_6&#45;&gt;n_0 -->
<g id="edge12" class="edge">
<title>n_0_1_2_3_4_5_6&#45;&gt;n_0</title>
<path fill="none" stroke="black" d="M478.15,-346.14C488.04,-331.04 499.18,-314.02 508.15,-300.31"/>
<polygon fill="black" stroke="black" points="510.88,-302.53 513.43,-292.25 505.03,-298.7 510.88,-302.53"/>
</g>
<!-- n_3_4_5_6 -->
<g id="node3" class="node">
<title>n_3_4_5_6</title>
<polygon fill="none" stroke="black" points="226.88,-163 226.88,-195 295.62,-195 295.62,-163 226.88,-163"/>
<text text-anchor="start" x="233.88" y="-180.45" font-family="Times New Roman,serif" font-weight="bold" font-size="9.00">Secondary (P)</text>
<text text-anchor="start" x="241.75" y="-171.45" font-family="Times New Roman,serif" font-weight="bold" font-size="9.00">Technical</text>
<polygon fill="none" stroke="black" points="295.62,-163 295.62,-195 365.88,-195 365.88,-163 295.62,-163"/>
<text text-anchor="start" x="302.62" y="-180.45" font-family="Times New Roman,serif" font-weight="bold" font-size="9.00">Secondary (G)</text>
<text text-anchor="start" x="310.5" y="-171.45" font-family="Times New Roman,serif" font-weight="bold" font-size="9.00">University</text>
<polygon fill="none" stroke="black" points="225.88,-162 225.88,-196 366.88,-196 366.88,-162 225.88,-162"/>
</g>
<!-- n_1_2_3_4_5_6&#45;&gt;n_3_4_5_6 -->
<g id="edge2" class="edge">
<title>n_1_2_3_4_5_6&#45;&gt;n_3_4_5_6</title>
<path fill="none" stroke="black" d="M355.4,-243.14C344.88,-231.89 332.87,-219.04 322.44,-207.88"/>
<polygon fill="black" stroke="black" points="325.24,-205.75 315.85,-200.84 320.12,-210.53 325.24,-205.75"/>
</g>
<!-- n_1_2 -->
<g id="node10" class="node">
<title>n_1_2</title>
<polygon fill="none" stroke="black" points="412.62,-166.38 412.62,-191.62 473.88,-191.62 473.88,-166.38 412.62,-166.38"/>
<text text-anchor="start" x="419.62" y="-177.07" font-family="Times New Roman,serif" font-weight="bold" font-size="9.00">Primary (G)</text>
<polygon fill="none" stroke="black" points="473.88,-166.38 473.88,-191.62 526.12,-191.62 526.12,-166.38 473.88,-166.38"/>
<text text-anchor="start" x="480.88" y="-177.07" font-family="Times New Roman,serif" font-weight="bold" font-size="9.00">Preschool</text>
<polygon fill="none" stroke="black" points="411.62,-165.38 411.62,-192.62 527.12,-192.62 527.12,-165.38 411.62,-165.38"/>
</g>
<!-- n_1_2_3_4_5_6&#45;&gt;n_1_2 -->
<g id="edge9" class="edge">
<title>n_1_2_3_4_5_6&#45;&gt;n_1_2</title>
<path fill="none" stroke="black" d="M409.66,-243.14C421.21,-230.93 434.54,-216.84 445.67,-205.07"/>
<polygon fill="black" stroke="black" points="447.96,-207.74 452.29,-198.07 442.88,-202.93 447.96,-207.74"/>
</g>
<!-- n_3_5 -->
<g id="node4" class="node">
<title>n_3_5</title>
<polygon fill="none" stroke="black" points="74.5,-84.38 74.5,-109.62 143.25,-109.62 143.25,-84.38 74.5,-84.38"/>
<text text-anchor="start" x="81.5" y="-95.08" font-family="Times New Roman,serif" font-weight="bold" font-size="9.00">Secondary (P)</text>
<polygon fill="none" stroke="black" points="143.25,-84.38 143.25,-109.62 196.25,-109.62 196.25,-84.38 143.25,-84.38"/>
<text text-anchor="start" x="150.25" y="-95.08" font-family="Times New Roman,serif" font-weight="bold" font-size="9.00">Technical</text>
<polygon fill="none" stroke="black" points="73.5,-83.38 73.5,-110.62 197.25,-110.62 197.25,-83.38 73.5,-83.38"/>
</g>
<!-- n_3_4_5_6&#45;&gt;n_3_5 -->
<g id="edge3" class="edge">
<title>n_3_4_5_6&#45;&gt;n_3_5</title>
<path fill="none" stroke="black" d="M256.16,-158.02C232.88,-146.45 203.53,-131.87 179.6,-119.97"/>
<polygon fill="black" stroke="black" points="181.23,-116.88 170.72,-115.56 178.12,-123.15 181.23,-116.88"/>
</g>
<!-- n_4_6 -->
<g id="node7" class="node">
<title>n_4_6</title>
<polygon fill="none" stroke="black" points="243,-84.38 243,-109.62 313.25,-109.62 313.25,-84.38 243,-84.38"/>
<text text-anchor="start" x="250" y="-95.08" font-family="Times New Roman,serif" font-weight="bold" font-size="9.00">Secondary (G)</text>
<polygon fill="none" stroke="black" points="313.25,-84.38 313.25,-109.62 367.75,-109.62 367.75,-84.38 313.25,-84.38"/>
<text text-anchor="start" x="320.25" y="-95.08" font-family="Times New Roman,serif" font-weight="bold" font-size="9.00">University</text>
<polygon fill="none" stroke="black" points="242,-83.38 242,-110.62 368.75,-110.62 368.75,-83.38 242,-83.38"/>
</g>
<!-- n_3_4_5_6&#45;&gt;n_4_6 -->
<g id="edge6" class="edge">
<title>n_3_4_5_6&#45;&gt;n_4_6</title>
<path fill="none" stroke="black" d="M298.6,-158.22C299.69,-148.54 301.02,-136.72 302.21,-126.11"/>
<polygon fill="black" stroke="black" points="305.67,-126.68 303.31,-116.35 298.71,-125.89 305.67,-126.68"/>
</g>
<!-- n_3 -->
<g id="node5" class="node">
<title>n_3</title>
<polygon fill="none" stroke="black" points="9,-5.38 9,-30.62 77.75,-30.62 77.75,-5.38 9,-5.38"/>
<text text-anchor="start" x="16" y="-16.07" font-family="Times New Roman,serif" font-weight="bold" font-size="9.00">Secondary (P)</text>
<polygon fill="none" stroke="black" points="8,-4.38 8,-31.62 78.75,-31.62 78.75,-4.38 8,-4.38"/>
</g>
<!-- n_3_5&#45;&gt;n_3 -->
<g id="edge4" class="edge">
<title>n_3_5&#45;&gt;n_3</title>
<path fill="none" stroke="black" d="M115.41,-79.29C102.84,-68.77 86.4,-55.01 72.4,-43.29"/>
<polygon fill="black" stroke="black" points="74.69,-40.65 64.78,-36.91 70.2,-46.01 74.69,-40.65"/>
</g>
<!-- n_5 -->
<g id="node6" class="node">
<title>n_5</title>
<polygon fill="none" stroke="black" points="124.88,-5.38 124.88,-30.62 177.88,-30.62 177.88,-5.38 124.88,-5.38"/>
<text text-anchor="start" x="131.88" y="-16.07" font-family="Times New Roman,serif" font-weight="bold" font-size="9.00">Technical</text>
<polygon fill="none" stroke="black" points="123.88,-4.38 123.88,-31.62 178.88,-31.62 178.88,-4.38 123.88,-4.38"/>
</g>
<!-- n_3_5&#45;&gt;n_5 -->
<g id="edge5" class="edge">
<title>n_3_5&#45;&gt;n_5</title>
<path fill="none" stroke="black" d="M138.85,-79.29C140.8,-69.87 143.3,-57.86 145.55,-47.04"/>
<polygon fill="black" stroke="black" points="148.94,-47.93 147.55,-37.42 142.09,-46.5 148.94,-47.93"/>
</g>
<!-- n_4 -->
<g id="node8" class="node">
<title>n_4</title>
<polygon fill="none" stroke="black" points="255.25,-5.38 255.25,-30.62 325.5,-30.62 325.5,-5.38 255.25,-5.38"/>
<text text-anchor="start" x="262.25" y="-16.07" font-family="Times New Roman,serif" font-weight="bold" font-size="9.00">Secondary (G)</text>
<polygon fill="none" stroke="black" points="254.25,-4.38 254.25,-31.62 326.5,-31.62 326.5,-4.38 254.25,-4.38"/>
</g>
<!-- n_4_6&#45;&gt;n_4 -->
<g id="edge7" class="edge">
<title>n_4_6&#45;&gt;n_4</title>
<path fill="none" stroke="black" d="M302.12,-79.29C300.29,-69.87 297.94,-57.86 295.84,-47.04"/>
<polygon fill="black" stroke="black" points="299.31,-46.57 293.96,-37.43 292.44,-47.91 299.31,-46.57"/>
</g>
<!-- n_6 -->
<g id="node9" class="node">
<title>n_6</title>
<polygon fill="none" stroke="black" points="372.12,-5.38 372.12,-30.62 426.62,-30.62 426.62,-5.38 372.12,-5.38"/>
<text text-anchor="start" x="379.12" y="-16.07" font-family="Times New Roman,serif" font-weight="bold" font-size="9.00">University</text>
<polygon fill="none" stroke="black" points="371.12,-4.38 371.12,-31.62 427.62,-31.62 427.62,-4.38 371.12,-4.38"/>
</g>
<!-- n_4_6&#45;&gt;n_6 -->
<g id="edge8" class="edge">
<title>n_4_6&#45;&gt;n_6</title>
<path fill="none" stroke="black" d="M325.77,-79.29C338.74,-68.67 355.74,-54.75 370.13,-42.96"/>
<polygon fill="black" stroke="black" points="372,-45.94 377.52,-36.9 367.57,-40.53 372,-45.94"/>
</g>
<!-- n_1 -->
<g id="node11" class="node">
<title>n_1</title>
<polygon fill="none" stroke="black" points="430.75,-84.38 430.75,-109.62 492,-109.62 492,-84.38 430.75,-84.38"/>
<text text-anchor="start" x="437.75" y="-95.08" font-family="Times New Roman,serif" font-weight="bold" font-size="9.00">Primary (G)</text>
<polygon fill="none" stroke="black" points="429.75,-83.38 429.75,-110.62 493,-110.62 493,-83.38 429.75,-83.38"/>
</g>
<!-- n_1_2&#45;&gt;n_1 -->
<g id="edge10" class="edge">
<title>n_1_2&#45;&gt;n_1</title>
<path fill="none" stroke="black" d="M467.68,-161.03C466.67,-150.96 465.37,-137.92 464.21,-126.32"/>
<polygon fill="black" stroke="black" points="467.7,-126.05 463.22,-116.45 460.73,-126.75 467.7,-126.05"/>
</g>
<!-- n_2 -->
<g id="node12" class="node">
<title>n_2</title>
<polygon fill="none" stroke="black" points="539.25,-84.38 539.25,-109.62 591.5,-109.62 591.5,-84.38 539.25,-84.38"/>
<text text-anchor="start" x="546.25" y="-95.08" font-family="Times New Roman,serif" font-weight="bold" font-size="9.00">Preschool</text>
<polygon fill="none" stroke="black" points="538.25,-83.38 538.25,-110.62 592.5,-110.62 592.5,-83.38 538.25,-83.38"/>
</g>
<!-- n_1_2&#45;&gt;n_2 -->
<g id="edge11" class="edge">
<title>n_1_2&#45;&gt;n_2</title>
<path fill="none" stroke="black" d="M489.73,-161.03C503.35,-149.69 521.47,-134.58 536.57,-122.01"/>
<polygon fill="black" stroke="black" points="538.44,-125 543.88,-115.91 533.96,-119.62 538.44,-125"/>
</g>
</g>
</svg>
