<?xml version="1.0" encoding="UTF-8" standalone="no"?>
<!DOCTYPE svg PUBLIC "-//W3C//DTD SVG 1.1//EN"
 "http://www.w3.org/Graphics/SVG/1.1/DTD/svg11.dtd">
<!-- Generated by graphviz version 10.0.1 (20240210.2158)
 -->
<!-- Title: ND Pages: 1 -->
<svg width="660pt" height="517pt"
 viewBox="0.00 0.00 660.38 517.00" xmlns="http://www.w3.org/2000/svg" xmlns:xlink="http://www.w3.org/1999/xlink">
<g id="graph0" class="graph" transform="scale(1 1) rotate(0) translate(4 513)">
<title>ND</title>
<polygon fill="white" stroke="none" points="-4,4 -4,-513 656.38,-513 656.38,4 -4,4"/>
<!-- n_0_1_2_3_4_5_6 -->
<g id="node1" class="node">
<title>n_0_1_2_3_4_5_6</title>
<polygon fill="none" stroke="black" points="365.38,-445 365.38,-504 434.12,-504 434.12,-445 365.38,-445"/>
<text text-anchor="start" x="376.88" y="-489.45" font-family="Times New Roman,serif" font-weight="bold" font-size="9.00">Primary (P)</text>
<text text-anchor="start" x="376.12" y="-480.45" font-family="Times New Roman,serif" font-weight="bold" font-size="9.00">Primary (G)</text>
<text text-anchor="start" x="380.62" y="-471.45" font-family="Times New Roman,serif" font-weight="bold" font-size="9.00">Preschool</text>
<text text-anchor="start" x="372.38" y="-462.45" font-family="Times New Roman,serif" font-weight="bold" font-size="9.00">Secondary (P)</text>
<text text-anchor="start" x="379.5" y="-453.45" font-family="Times New Roman,serif" font-weight="bold" font-size="9.00">University</text>
<polygon fill="none" stroke="black" points="434.12,-445 434.12,-504 504.38,-504 504.38,-445 434.12,-445"/>
<text text-anchor="start" x="441.12" y="-475.95" font-family="Times New Roman,serif" font-weight="bold" font-size="9.00">Secondary (G)</text>
<text text-anchor="start" x="449.75" y="-466.95" font-family="Times New Roman,serif" font-weight="bold" font-size="9.00">Technical</text>
<polygon fill="none" stroke="black" points="364.38,-444 364.38,-505 505.38,-505 505.38,-444 364.38,-444"/>
</g>
<!-- n_0_1_2_3_6 -->
<g id="node2" class="node">
<title>n_0_1_2_3_6</title>
<polygon fill="none" stroke="black" points="282.88,-342 282.88,-392 344.12,-392 344.12,-342 282.88,-342"/>
<text text-anchor="start" x="290.62" y="-377.45" font-family="Times New Roman,serif" font-weight="bold" font-size="9.00">Primary (P)</text>
<text text-anchor="start" x="289.88" y="-368.45" font-family="Times New Roman,serif" font-weight="bold" font-size="9.00">Primary (G)</text>
<text text-anchor="start" x="294.38" y="-359.45" font-family="Times New Roman,serif" font-weight="bold" font-size="9.00">Preschool</text>
<text text-anchor="start" x="293.25" y="-350.45" font-family="Times New Roman,serif" font-weight="bold" font-size="9.00">University</text>
<polygon fill="none" stroke="black" points="344.12,-342 344.12,-392 412.88,-392 412.88,-342 344.12,-342"/>
<text text-anchor="start" x="351.12" y="-365.07" font-family="Times New Roman,serif" font-weight="bold" font-size="9.00">Secondary (P)</text>
<polygon fill="none" stroke="black" points="281.88,-341 281.88,-393 413.88,-393 413.88,-341 281.88,-341"/>
</g>
<!-- n_0_1_2_3_4_5_6&#45;&gt;n_0_1_2_3_6 -->
<g id="edge1" class="edge">
<title>n_0_1_2_3_4_5_6&#45;&gt;n_0_1_2_3_6</title>
<path fill="none" stroke="black" d="M407.35,-440.12C398.31,-429.16 388.21,-416.91 378.93,-405.66"/>
<polygon fill="black" stroke="black" points="381.73,-403.55 372.67,-398.07 376.33,-408.01 381.73,-403.55"/>
</g>
<!-- n_4_5 -->
<g id="node11" class="node">
<title>n_4_5</title>
<polygon fill="none" stroke="black" points="460.25,-354.38 460.25,-379.62 530.5,-379.62 530.5,-354.38 460.25,-354.38"/>
<text text-anchor="start" x="467.25" y="-365.07" font-family="Times New Roman,serif" font-weight="bold" font-size="9.00">Secondary (G)</text>
<polygon fill="none" stroke="black" points="530.5,-354.38 530.5,-379.62 583.5,-379.62 583.5,-354.38 530.5,-354.38"/>
<text text-anchor="start" x="537.5" y="-365.07" font-family="Times New Roman,serif" font-weight="bold" font-size="9.00">Technical</text>
<polygon fill="none" stroke="black" points="459.25,-353.38 459.25,-380.62 584.5,-380.62 584.5,-353.38 459.25,-353.38"/>
</g>
<!-- n_0_1_2_3_4_5_6&#45;&gt;n_4_5 -->
<g id="edge10" class="edge">
<title>n_0_1_2_3_4_5_6&#45;&gt;n_4_5</title>
<path fill="none" stroke="black" d="M462.4,-440.12C474.82,-425.06 489.25,-407.57 500.78,-393.58"/>
<polygon fill="black" stroke="black" points="503.27,-396.06 506.93,-386.12 497.87,-391.61 503.27,-396.06"/>
</g>
<!-- n_0_1_2_6 -->
<g id="node3" class="node">
<title>n_0_1_2_6</title>
<polygon fill="none" stroke="black" points="168.12,-248 168.12,-289 229.38,-289 229.38,-248 168.12,-248"/>
<text text-anchor="start" x="175.88" y="-274.45" font-family="Times New Roman,serif" font-weight="bold" font-size="9.00">Primary (P)</text>
<text text-anchor="start" x="175.12" y="-265.45" font-family="Times New Roman,serif" font-weight="bold" font-size="9.00">Primary (G)</text>
<text text-anchor="start" x="178.5" y="-256.45" font-family="Times New Roman,serif" font-weight="bold" font-size="9.00">University</text>
<polygon fill="none" stroke="black" points="229.38,-248 229.38,-289 281.62,-289 281.62,-248 229.38,-248"/>
<text text-anchor="start" x="236.38" y="-266.57" font-family="Times New Roman,serif" font-weight="bold" font-size="9.00">Preschool</text>
<polygon fill="none" stroke="black" points="167.12,-247 167.12,-290 282.62,-290 282.62,-247 167.12,-247"/>
</g>
<!-- n_0_1_2_3_6&#45;&gt;n_0_1_2_6 -->
<g id="edge2" class="edge">
<title>n_0_1_2_3_6&#45;&gt;n_0_1_2_6</title>
<path fill="none" stroke="black" d="M310.97,-337.05C296.44,-325.65 279.71,-312.52 264.89,-300.89"/>
<polygon fill="black" stroke="black" points="267.16,-298.23 257.13,-294.81 262.84,-303.73 267.16,-298.23"/>
</g>
<!-- n_3 -->
<g id="node10" class="node">
<title>n_3</title>
<polygon fill="none" stroke="black" points="328.5,-255.88 328.5,-281.12 397.25,-281.12 397.25,-255.88 328.5,-255.88"/>
<text text-anchor="start" x="335.5" y="-266.57" font-family="Times New Roman,serif" font-weight="bold" font-size="9.00">Secondary (P)</text>
<polygon fill="none" stroke="black" points="327.5,-254.88 327.5,-282.12 398.25,-282.12 398.25,-254.88 327.5,-254.88"/>
</g>
<!-- n_0_1_2_3_6&#45;&gt;n_3 -->
<g id="edge9" class="edge">
<title>n_0_1_2_3_6&#45;&gt;n_3</title>
<path fill="none" stroke="black" d="M352.38,-337.05C354.32,-324.51 356.6,-309.89 358.53,-297.47"/>
<polygon fill="black" stroke="black" points="361.94,-298.28 360.02,-287.86 355.03,-297.21 361.94,-298.28"/>
</g>
<!-- n_0_1_6 -->
<g id="node4" class="node">
<title>n_0_1_6</title>
<polygon fill="none" stroke="black" points="97.38,-163 97.38,-195 157.12,-195 157.12,-163 97.38,-163"/>
<text text-anchor="start" x="104.38" y="-180.45" font-family="Times New Roman,serif" font-weight="bold" font-size="9.00">Primary (P)</text>
<text text-anchor="start" x="107" y="-171.45" font-family="Times New Roman,serif" font-weight="bold" font-size="9.00">University</text>
<polygon fill="none" stroke="black" points="157.12,-163 157.12,-195 218.38,-195 218.38,-163 157.12,-163"/>
<text text-anchor="start" x="164.12" y="-177.07" font-family="Times New Roman,serif" font-weight="bold" font-size="9.00">Primary (G)</text>
<polygon fill="none" stroke="black" points="96.38,-162 96.38,-196 219.38,-196 219.38,-162 96.38,-162"/>
</g>
<!-- n_0_1_2_6&#45;&gt;n_0_1_6 -->
<g id="edge3" class="edge">
<title>n_0_1_2_6&#45;&gt;n_0_1_6</title>
<path fill="none" stroke="black" d="M206.21,-243.13C198.04,-232.46 188.4,-219.87 179.89,-208.75"/>
<polygon fill="black" stroke="black" points="182.83,-206.84 173.98,-201.03 177.28,-211.1 182.83,-206.84"/>
</g>
<!-- n_2 -->
<g id="node9" class="node">
<title>n_2</title>
<polygon fill="none" stroke="black" points="265.75,-166.38 265.75,-191.62 318,-191.62 318,-166.38 265.75,-166.38"/>
<text text-anchor="start" x="272.75" y="-177.07" font-family="Times New Roman,serif" font-weight="bold" font-size="9.00">Preschool</text>
<polygon fill="none" stroke="black" points="264.75,-165.38 264.75,-192.62 319,-192.62 319,-165.38 264.75,-165.38"/>
</g>
<!-- n_0_1_2_6&#45;&gt;n_2 -->
<g id="edge8" class="edge">
<title>n_0_1_2_6&#45;&gt;n_2</title>
<path fill="none" stroke="black" d="M243.54,-243.13C252.46,-231.48 263.14,-217.53 272.19,-205.71"/>
<polygon fill="black" stroke="black" points="274.81,-208.04 278.11,-197.97 269.25,-203.78 274.81,-208.04"/>
</g>
<!-- n_0_6 -->
<g id="node5" class="node">
<title>n_0_6</title>
<polygon fill="none" stroke="black" points="33.75,-84.38 33.75,-109.62 93.5,-109.62 93.5,-84.38 33.75,-84.38"/>
<text text-anchor="start" x="40.75" y="-95.08" font-family="Times New Roman,serif" font-weight="bold" font-size="9.00">Primary (P)</text>
<polygon fill="none" stroke="black" points="93.5,-84.38 93.5,-109.62 148,-109.62 148,-84.38 93.5,-84.38"/>
<text text-anchor="start" x="100.5" y="-95.08" font-family="Times New Roman,serif" font-weight="bold" font-size="9.00">University</text>
<polygon fill="none" stroke="black" points="32.75,-83.38 32.75,-110.62 149,-110.62 149,-83.38 32.75,-83.38"/>
</g>
<!-- n_0_1_6&#45;&gt;n_0_6 -->
<g id="edge4" class="edge">
<title>n_0_1_6&#45;&gt;n_0_6</title>
<path fill="none" stroke="black" d="M141.31,-158.22C132.51,-147.71 121.58,-134.66 112.15,-123.41"/>
<polygon fill="black" stroke="black" points="115.06,-121.42 105.95,-116 109.69,-125.92 115.06,-121.42"/>
</g>
<!-- n_1 -->
<g id="node8" class="node">
<title>n_1</title>
<polygon fill="none" stroke="black" points="195.25,-84.38 195.25,-109.62 256.5,-109.62 256.5,-84.38 195.25,-84.38"/>
<text text-anchor="start" x="202.25" y="-95.08" font-family="Times New Roman,serif" font-weight="bold" font-size="9.00">Primary (G)</text>
<polygon fill="none" stroke="black" points="194.25,-83.38 194.25,-110.62 257.5,-110.62 257.5,-83.38 194.25,-83.38"/>
</g>
<!-- n_0_1_6&#45;&gt;n_1 -->
<g id="edge7" class="edge">
<title>n_0_1_6&#45;&gt;n_1</title>
<path fill="none" stroke="black" d="M174.68,-158.22C183.62,-147.71 194.71,-134.66 204.28,-123.41"/>
<polygon fill="black" stroke="black" points="206.77,-125.88 210.58,-116 201.43,-121.35 206.77,-125.88"/>
</g>
<!-- n_0 -->
<g id="node6" class="node">
<title>n_0</title>
<polygon fill="none" stroke="black" points="9,-5.38 9,-30.62 68.75,-30.62 68.75,-5.38 9,-5.38"/>
<text text-anchor="start" x="16" y="-16.07" font-family="Times New Roman,serif" font-weight="bold" font-size="9.00">Primary (P)</text>
<polygon fill="none" stroke="black" points="8,-4.38 8,-31.62 69.75,-31.62 69.75,-4.38 8,-4.38"/>
</g>
<!-- n_0_6&#45;&gt;n_0 -->
<g id="edge5" class="edge">
<title>n_0_6&#45;&gt;n_0</title>
<path fill="none" stroke="black" d="M79.59,-79.29C72.89,-69.37 64.25,-56.57 56.65,-45.32"/>
<polygon fill="black" stroke="black" points="59.66,-43.52 51.16,-37.2 53.86,-47.44 59.66,-43.52"/>
</g>
<!-- n_6 -->
<g id="node7" class="node">
<title>n_6</title>
<polygon fill="none" stroke="black" points="115.62,-5.38 115.62,-30.62 170.12,-30.62 170.12,-5.38 115.62,-5.38"/>
<text text-anchor="start" x="122.62" y="-16.07" font-family="Times New Roman,serif" font-weight="bold" font-size="9.00">University</text>
<polygon fill="none" stroke="black" points="114.62,-4.38 114.62,-31.62 171.12,-31.62 171.12,-4.38 114.62,-4.38"/>
</g>
<!-- n_0_6&#45;&gt;n_6 -->
<g id="edge6" class="edge">
<title>n_0_6&#45;&gt;n_6</title>
<path fill="none" stroke="black" d="M102.16,-79.29C108.86,-69.37 117.5,-56.57 125.1,-45.32"/>
<polygon fill="black" stroke="black" points="127.89,-47.44 130.59,-37.2 122.09,-43.52 127.89,-47.44"/>
</g>
<!-- n_4 -->
<g id="node12" class="node">
<title>n_4</title>
<polygon fill="none" stroke="black" points="472.75,-255.88 472.75,-281.12 543,-281.12 543,-255.88 472.75,-255.88"/>
<text text-anchor="start" x="479.75" y="-266.57" font-family="Times New Roman,serif" font-weight="bold" font-size="9.00">Secondary (G)</text>
<polygon fill="none" stroke="black" points="471.75,-254.88 471.75,-282.12 544,-282.12 544,-254.88 471.75,-254.88"/>
</g>
<!-- n_4_5&#45;&gt;n_4 -->
<g id="edge11" class="edge">
<title>n_4_5&#45;&gt;n_4</title>
<path fill="none" stroke="black" d="M519.44,-349.19C517.38,-335.03 514.4,-314.46 511.98,-297.76"/>
<polygon fill="black" stroke="black" points="515.45,-297.33 510.55,-287.94 508.52,-298.34 515.45,-297.33"/>
</g>
<!-- n_5 -->
<g id="node13" class="node">
<title>n_5</title>
<polygon fill="none" stroke="black" points="590.38,-255.88 590.38,-281.12 643.38,-281.12 643.38,-255.88 590.38,-255.88"/>
<text text-anchor="start" x="597.38" y="-266.57" font-family="Times New Roman,serif" font-weight="bold" font-size="9.00">Technical</text>
<polygon fill="none" stroke="black" points="589.38,-254.88 589.38,-282.12 644.38,-282.12 644.38,-254.88 589.38,-254.88"/>
</g>
<!-- n_4_5&#45;&gt;n_5 -->
<g id="edge12" class="edge">
<title>n_4_5&#45;&gt;n_5</title>
<path fill="none" stroke="black" d="M538.42,-349.19C553.32,-334.06 575.4,-311.63 592.35,-294.42"/>
<polygon fill="black" stroke="black" points="594.62,-297.1 599.14,-287.52 589.63,-292.19 594.62,-297.1"/>
</g>
</g>
</svg>
