<?xml version="1.0" encoding="UTF-8" standalone="no"?>
<!DOCTYPE svg PUBLIC "-//W3C//DTD SVG 1.1//EN"
 "http://www.w3.org/Graphics/SVG/1.1/DTD/svg11.dtd">
<!-- Generated by graphviz version 10.0.1 (20240210.2158)
 -->
<!-- Title: ND Pages: 1 -->
<svg width="581pt" height="526pt"
 viewBox="0.00 0.00 580.75 526.00" xmlns="http://www.w3.org/2000/svg" xmlns:xlink="http://www.w3.org/1999/xlink">
<g id="graph0" class="graph" transform="scale(1 1) rotate(0) translate(4 522)">
<title>ND</title>
<polygon fill="white" stroke="none" points="-4,4 -4,-522 576.75,-522 576.75,4 -4,4"/>
<!-- n_0_1_2_3_4_5_6 -->
<g id="node1" class="node">
<title>n_0_1_2_3_4_5_6</title>
<polygon fill="none" stroke="black" points="368.12,-445 368.12,-513 436.88,-513 436.88,-445 368.12,-445"/>
<text text-anchor="start" x="379.62" y="-498.45" font-family="Times New Roman,serif" font-weight="bold" font-size="9.00">Primary (P)</text>
<text text-anchor="start" x="378.88" y="-489.45" font-family="Times New Roman,serif" font-weight="bold" font-size="9.00">Primary (G)</text>
<text text-anchor="start" x="383.38" y="-480.45" font-family="Times New Roman,serif" font-weight="bold" font-size="9.00">Preschool</text>
<text text-anchor="start" x="375.12" y="-471.45" font-family="Times New Roman,serif" font-weight="bold" font-size="9.00">Secondary (P)</text>
<text text-anchor="start" x="383" y="-462.45" font-family="Times New Roman,serif" font-weight="bold" font-size="9.00">Technical</text>
<text text-anchor="start" x="382.25" y="-453.45" font-family="Times New Roman,serif" font-weight="bold" font-size="9.00">University</text>
<polygon fill="none" stroke="black" points="436.88,-445 436.88,-513 507.12,-513 507.12,-445 436.88,-445"/>
<text text-anchor="start" x="443.88" y="-477.07" font-family="Times New Roman,serif" font-weight="bold" font-size="9.00">Secondary (G)</text>
<polygon fill="none" stroke="black" points="367.12,-444 367.12,-514 508.12,-514 508.12,-444 367.12,-444"/>
</g>
<!-- n_0_1_2_3_5_6 -->
<g id="node2" class="node">
<title>n_0_1_2_3_5_6</title>
<polygon fill="none" stroke="black" points="300.38,-342 300.38,-392 369.12,-392 369.12,-342 300.38,-342"/>
<text text-anchor="start" x="311.12" y="-377.45" font-family="Times New Roman,serif" font-weight="bold" font-size="9.00">Primary (G)</text>
<text text-anchor="start" x="307.38" y="-368.45" font-family="Times New Roman,serif" font-weight="bold" font-size="9.00">Secondary (P)</text>
<text text-anchor="start" x="315.25" y="-359.45" font-family="Times New Roman,serif" font-weight="bold" font-size="9.00">Technical</text>
<text text-anchor="start" x="314.5" y="-350.45" font-family="Times New Roman,serif" font-weight="bold" font-size="9.00">University</text>
<polygon fill="none" stroke="black" points="369.12,-342 369.12,-392 428.88,-392 428.88,-342 369.12,-342"/>
<text text-anchor="start" x="376.12" y="-368.45" font-family="Times New Roman,serif" font-weight="bold" font-size="9.00">Primary (P)</text>
<text text-anchor="start" x="379.88" y="-359.45" font-family="Times New Roman,serif" font-weight="bold" font-size="9.00">Preschool</text>
<polygon fill="none" stroke="black" points="299.38,-341 299.38,-393 429.88,-393 429.88,-341 299.38,-341"/>
</g>
<!-- n_0_1_2_3_4_5_6&#45;&gt;n_0_1_2_3_5_6 -->
<g id="edge1" class="edge">
<title>n_0_1_2_3_4_5_6&#45;&gt;n_0_1_2_3_5_6</title>
<path fill="none" stroke="black" d="M412.5,-440.14C405.23,-429.19 397.29,-417.22 390,-406.23"/>
<polygon fill="black" stroke="black" points="393.08,-404.55 384.63,-398.15 387.25,-408.42 393.08,-404.55"/>
</g>
<!-- n_4 -->
<g id="node13" class="node">
<title>n_4</title>
<polygon fill="none" stroke="black" points="475.5,-354.38 475.5,-379.62 545.75,-379.62 545.75,-354.38 475.5,-354.38"/>
<text text-anchor="start" x="482.5" y="-365.07" font-family="Times New Roman,serif" font-weight="bold" font-size="9.00">Secondary (G)</text>
<polygon fill="none" stroke="black" points="474.5,-353.38 474.5,-380.62 546.75,-380.62 546.75,-353.38 474.5,-353.38"/>
</g>
<!-- n_0_1_2_3_4_5_6&#45;&gt;n_4 -->
<g id="edge12" class="edge">
<title>n_0_1_2_3_4_5_6&#45;&gt;n_4</title>
<path fill="none" stroke="black" d="M462.75,-440.14C472.77,-425.04 484.06,-408.02 493.17,-394.31"/>
<polygon fill="black" stroke="black" points="495.9,-396.51 498.52,-386.24 490.07,-392.64 495.9,-396.51"/>
</g>
<!-- n_1_3_5_6 -->
<g id="node3" class="node">
<title>n_1_3_5_6</title>
<polygon fill="none" stroke="black" points="215.62,-248 215.62,-289 276.88,-289 276.88,-248 215.62,-248"/>
<text text-anchor="start" x="222.62" y="-274.45" font-family="Times New Roman,serif" font-weight="bold" font-size="9.00">Primary (G)</text>
<text text-anchor="start" x="226.75" y="-265.45" font-family="Times New Roman,serif" font-weight="bold" font-size="9.00">Technical</text>
<text text-anchor="start" x="226" y="-256.45" font-family="Times New Roman,serif" font-weight="bold" font-size="9.00">University</text>
<polygon fill="none" stroke="black" points="276.88,-248 276.88,-289 345.62,-289 345.62,-248 276.88,-248"/>
<text text-anchor="start" x="283.88" y="-266.57" font-family="Times New Roman,serif" font-weight="bold" font-size="9.00">Secondary (P)</text>
<polygon fill="none" stroke="black" points="214.62,-247 214.62,-290 346.62,-290 346.62,-247 214.62,-247"/>
</g>
<!-- n_0_1_2_3_5_6&#45;&gt;n_1_3_5_6 -->
<g id="edge2" class="edge">
<title>n_0_1_2_3_5_6&#45;&gt;n_1_3_5_6</title>
<path fill="none" stroke="black" d="M339.42,-337.05C329.97,-326.18 319.15,-313.76 309.39,-302.55"/>
<polygon fill="black" stroke="black" points="312.04,-300.26 302.84,-295.02 306.76,-304.86 312.04,-300.26"/>
</g>
<!-- n_0_2 -->
<g id="node10" class="node">
<title>n_0_2</title>
<polygon fill="none" stroke="black" points="392.62,-255.88 392.62,-281.12 452.38,-281.12 452.38,-255.88 392.62,-255.88"/>
<text text-anchor="start" x="399.62" y="-266.57" font-family="Times New Roman,serif" font-weight="bold" font-size="9.00">Primary (P)</text>
<polygon fill="none" stroke="black" points="452.38,-255.88 452.38,-281.12 504.62,-281.12 504.62,-255.88 452.38,-255.88"/>
<text text-anchor="start" x="459.38" y="-266.57" font-family="Times New Roman,serif" font-weight="bold" font-size="9.00">Preschool</text>
<polygon fill="none" stroke="black" points="391.62,-254.88 391.62,-282.12 505.62,-282.12 505.62,-254.88 391.62,-254.88"/>
</g>
<!-- n_0_1_2_3_5_6&#45;&gt;n_0_2 -->
<g id="edge9" class="edge">
<title>n_0_1_2_3_5_6&#45;&gt;n_0_2</title>
<path fill="none" stroke="black" d="M389.83,-337.05C401.53,-323.6 415.31,-307.77 426.59,-294.81"/>
<polygon fill="black" stroke="black" points="429.02,-297.35 432.95,-287.51 423.74,-292.75 429.02,-297.35"/>
</g>
<!-- n_1_5_6 -->
<g id="node4" class="node">
<title>n_1_5_6</title>
<polygon fill="none" stroke="black" points="99.5,-163 99.5,-195 160.75,-195 160.75,-163 99.5,-163"/>
<text text-anchor="start" x="106.5" y="-180.45" font-family="Times New Roman,serif" font-weight="bold" font-size="9.00">Primary (G)</text>
<text text-anchor="start" x="109.88" y="-171.45" font-family="Times New Roman,serif" font-weight="bold" font-size="9.00">University</text>
<polygon fill="none" stroke="black" points="160.75,-163 160.75,-195 213.75,-195 213.75,-163 160.75,-163"/>
<text text-anchor="start" x="167.75" y="-177.07" font-family="Times New Roman,serif" font-weight="bold" font-size="9.00">Technical</text>
<polygon fill="none" stroke="black" points="98.5,-162 98.5,-196 214.75,-196 214.75,-162 98.5,-162"/>
</g>
<!-- n_1_3_5_6&#45;&gt;n_1_5_6 -->
<g id="edge3" class="edge">
<title>n_1_3_5_6&#45;&gt;n_1_5_6</title>
<path fill="none" stroke="black" d="M246.08,-243.13C229.91,-231.71 210.61,-218.1 194.09,-206.43"/>
<polygon fill="black" stroke="black" points="196.15,-203.6 185.96,-200.7 192.11,-209.32 196.15,-203.6"/>
</g>
<!-- n_3 -->
<g id="node9" class="node">
<title>n_3</title>
<polygon fill="none" stroke="black" points="261.25,-166.38 261.25,-191.62 330,-191.62 330,-166.38 261.25,-166.38"/>
<text text-anchor="start" x="268.25" y="-177.07" font-family="Times New Roman,serif" font-weight="bold" font-size="9.00">Secondary (P)</text>
<polygon fill="none" stroke="black" points="260.25,-165.38 260.25,-192.62 331,-192.62 331,-165.38 260.25,-165.38"/>
</g>
<!-- n_1_3_5_6&#45;&gt;n_3 -->
<g id="edge8" class="edge">
<title>n_1_3_5_6&#45;&gt;n_3</title>
<path fill="none" stroke="black" d="M284.8,-243.13C286.68,-232.17 288.91,-219.18 290.85,-207.84"/>
<polygon fill="black" stroke="black" points="294.25,-208.71 292.49,-198.26 287.35,-207.53 294.25,-208.71"/>
</g>
<!-- n_1_6 -->
<g id="node5" class="node">
<title>n_1_6</title>
<polygon fill="none" stroke="black" points="33.75,-84.38 33.75,-109.62 95,-109.62 95,-84.38 33.75,-84.38"/>
<text text-anchor="start" x="40.75" y="-95.08" font-family="Times New Roman,serif" font-weight="bold" font-size="9.00">Primary (G)</text>
<polygon fill="none" stroke="black" points="95,-84.38 95,-109.62 149.5,-109.62 149.5,-84.38 95,-84.38"/>
<text text-anchor="start" x="102" y="-95.08" font-family="Times New Roman,serif" font-weight="bold" font-size="9.00">University</text>
<polygon fill="none" stroke="black" points="32.75,-83.38 32.75,-110.62 150.5,-110.62 150.5,-83.38 32.75,-83.38"/>
</g>
<!-- n_1_5_6&#45;&gt;n_1_6 -->
<g id="edge4" class="edge">
<title>n_1_5_6&#45;&gt;n_1_6</title>
<path fill="none" stroke="black" d="M140.56,-158.22C132.1,-147.81 121.62,-134.92 112.54,-123.74"/>
<polygon fill="black" stroke="black" points="115.29,-121.57 106.27,-116.02 109.85,-125.99 115.29,-121.57"/>
</g>
<!-- n_5 -->
<g id="node8" class="node">
<title>n_5</title>
<polygon fill="none" stroke="black" points="196.12,-84.38 196.12,-109.62 249.12,-109.62 249.12,-84.38 196.12,-84.38"/>
<text text-anchor="start" x="203.12" y="-95.08" font-family="Times New Roman,serif" font-weight="bold" font-size="9.00">Technical</text>
<polygon fill="none" stroke="black" points="195.12,-83.38 195.12,-110.62 250.12,-110.62 250.12,-83.38 195.12,-83.38"/>
</g>
<!-- n_1_5_6&#45;&gt;n_5 -->
<g id="edge7" class="edge">
<title>n_1_5_6&#45;&gt;n_5</title>
<path fill="none" stroke="black" d="M172.94,-158.22C181.61,-147.71 192.38,-134.66 201.66,-123.41"/>
<polygon fill="black" stroke="black" points="204.1,-125.95 207.77,-116.01 198.7,-121.5 204.1,-125.95"/>
</g>
<!-- n_1 -->
<g id="node6" class="node">
<title>n_1</title>
<polygon fill="none" stroke="black" points="9,-5.38 9,-30.62 70.25,-30.62 70.25,-5.38 9,-5.38"/>
<text text-anchor="start" x="16" y="-16.07" font-family="Times New Roman,serif" font-weight="bold" font-size="9.00">Primary (G)</text>
<polygon fill="none" stroke="black" points="8,-4.38 8,-31.62 71.25,-31.62 71.25,-4.38 8,-4.38"/>
</g>
<!-- n_1_6&#45;&gt;n_1 -->
<g id="edge5" class="edge">
<title>n_1_6&#45;&gt;n_1</title>
<path fill="none" stroke="black" d="M80.34,-79.29C73.64,-69.37 65,-56.57 57.4,-45.32"/>
<polygon fill="black" stroke="black" points="60.41,-43.52 51.91,-37.2 54.61,-47.44 60.41,-43.52"/>
</g>
<!-- n_6 -->
<g id="node7" class="node">
<title>n_6</title>
<polygon fill="none" stroke="black" points="117.38,-5.38 117.38,-30.62 171.88,-30.62 171.88,-5.38 117.38,-5.38"/>
<text text-anchor="start" x="124.38" y="-16.07" font-family="Times New Roman,serif" font-weight="bold" font-size="9.00">University</text>
<polygon fill="none" stroke="black" points="116.38,-4.38 116.38,-31.62 172.88,-31.62 172.88,-4.38 116.38,-4.38"/>
</g>
<!-- n_1_6&#45;&gt;n_6 -->
<g id="edge6" class="edge">
<title>n_1_6&#45;&gt;n_6</title>
<path fill="none" stroke="black" d="M103.13,-79.29C109.95,-69.37 118.76,-56.57 126.51,-45.32"/>
<polygon fill="black" stroke="black" points="129.32,-47.41 132.11,-37.19 123.55,-43.44 129.32,-47.41"/>
</g>
<!-- n_0 -->
<g id="node11" class="node">
<title>n_0</title>
<polygon fill="none" stroke="black" points="404.75,-166.38 404.75,-191.62 464.5,-191.62 464.5,-166.38 404.75,-166.38"/>
<text text-anchor="start" x="411.75" y="-177.07" font-family="Times New Roman,serif" font-weight="bold" font-size="9.00">Primary (P)</text>
<polygon fill="none" stroke="black" points="403.75,-165.38 403.75,-192.62 465.5,-192.62 465.5,-165.38 403.75,-165.38"/>
</g>
<!-- n_0_2&#45;&gt;n_0 -->
<g id="edge10" class="edge">
<title>n_0_2&#45;&gt;n_0</title>
<path fill="none" stroke="black" d="M445.93,-250.63C443.99,-238.52 441.33,-221.94 439.09,-207.88"/>
<polygon fill="black" stroke="black" points="442.59,-207.64 437.56,-198.31 435.68,-208.74 442.59,-207.64"/>
</g>
<!-- n_2 -->
<g id="node12" class="node">
<title>n_2</title>
<polygon fill="none" stroke="black" points="511.5,-166.38 511.5,-191.62 563.75,-191.62 563.75,-166.38 511.5,-166.38"/>
<text text-anchor="start" x="518.5" y="-177.07" font-family="Times New Roman,serif" font-weight="bold" font-size="9.00">Preschool</text>
<polygon fill="none" stroke="black" points="510.5,-165.38 510.5,-192.62 564.75,-192.62 564.75,-165.38 510.5,-165.38"/>
</g>
<!-- n_0_2&#45;&gt;n_2 -->
<g id="edge11" class="edge">
<title>n_0_2&#45;&gt;n_2</title>
<path fill="none" stroke="black" d="M465.79,-250.63C479.08,-237.56 497.7,-219.25 512.65,-204.56"/>
<polygon fill="black" stroke="black" points="514.76,-207.39 519.44,-197.88 509.85,-202.4 514.76,-207.39"/>
</g>
</g>
</svg>
