<?xml version="1.0" encoding="UTF-8" standalone="no"?>
<!DOCTYPE svg PUBLIC "-//W3C//DTD SVG 1.1//EN"
 "http://www.w3.org/Graphics/SVG/1.1/DTD/svg11.dtd">
<!-- Generated by graphviz version 10.0.1 (20240210.2158)
 -->
<!-- Title: ND Pages: 1 -->
<svg width="609pt" height="526pt"
 viewBox="0.00 0.00 608.50 526.00" xmlns="http://www.w3.org/2000/svg" xmlns:xlink="http://www.w3.org/1999/xlink">
<g id="graph0" class="graph" transform="scale(1 1) rotate(0) translate(4 522)">
<title>ND</title>
<polygon fill="white" stroke="none" points="-4,4 -4,-522 604.5,-522 604.5,4 -4,4"/>
<!-- n_0_1_2_3_4_5_6 -->
<g id="node1" class="node">
<title>n_0_1_2_3_4_5_6</title>
<polygon fill="none" stroke="black" points="382,-445 382,-513 452.25,-513 452.25,-445 382,-445"/>
<text text-anchor="start" x="394.25" y="-498.45" font-family="Times New Roman,serif" font-weight="bold" font-size="9.00">Primary (P)</text>
<text text-anchor="start" x="393.5" y="-489.45" font-family="Times New Roman,serif" font-weight="bold" font-size="9.00">Primary (G)</text>
<text text-anchor="start" x="398" y="-480.45" font-family="Times New Roman,serif" font-weight="bold" font-size="9.00">Preschool</text>
<text text-anchor="start" x="389.75" y="-471.45" font-family="Times New Roman,serif" font-weight="bold" font-size="9.00">Secondary (P)</text>
<text text-anchor="start" x="389" y="-462.45" font-family="Times New Roman,serif" font-weight="bold" font-size="9.00">Secondary (G)</text>
<text text-anchor="start" x="397.62" y="-453.45" font-family="Times New Roman,serif" font-weight="bold" font-size="9.00">Technical</text>
<polygon fill="none" stroke="black" points="452.25,-445 452.25,-513 506.75,-513 506.75,-445 452.25,-445"/>
<text text-anchor="start" x="459.25" y="-477.07" font-family="Times New Roman,serif" font-weight="bold" font-size="9.00">University</text>
<polygon fill="none" stroke="black" points="381,-444 381,-514 507.75,-514 507.75,-444 381,-444"/>
</g>
<!-- n_0_1_2_3_4_5 -->
<g id="node2" class="node">
<title>n_0_1_2_3_4_5</title>
<polygon fill="none" stroke="black" points="302.88,-342 302.88,-392 371.62,-392 371.62,-342 302.88,-342"/>
<text text-anchor="start" x="313.62" y="-377.45" font-family="Times New Roman,serif" font-weight="bold" font-size="9.00">Primary (G)</text>
<text text-anchor="start" x="318.12" y="-368.45" font-family="Times New Roman,serif" font-weight="bold" font-size="9.00">Preschool</text>
<text text-anchor="start" x="309.88" y="-359.45" font-family="Times New Roman,serif" font-weight="bold" font-size="9.00">Secondary (P)</text>
<text text-anchor="start" x="317.75" y="-350.45" font-family="Times New Roman,serif" font-weight="bold" font-size="9.00">Technical</text>
<polygon fill="none" stroke="black" points="371.62,-342 371.62,-392 441.88,-392 441.88,-342 371.62,-342"/>
<text text-anchor="start" x="383.88" y="-368.45" font-family="Times New Roman,serif" font-weight="bold" font-size="9.00">Primary (P)</text>
<text text-anchor="start" x="378.62" y="-359.45" font-family="Times New Roman,serif" font-weight="bold" font-size="9.00">Secondary (G)</text>
<polygon fill="none" stroke="black" points="301.88,-341 301.88,-393 442.88,-393 442.88,-341 301.88,-341"/>
</g>
<!-- n_0_1_2_3_4_5_6&#45;&gt;n_0_1_2_3_4_5 -->
<g id="edge1" class="edge">
<title>n_0_1_2_3_4_5_6&#45;&gt;n_0_1_2_3_4_5</title>
<path fill="none" stroke="black" d="M419.6,-440.14C412.42,-429.19 404.59,-417.22 397.4,-406.23"/>
<polygon fill="black" stroke="black" points="400.52,-404.6 392.11,-398.15 394.66,-408.44 400.52,-404.6"/>
</g>
<!-- n_6 -->
<g id="node13" class="node">
<title>n_6</title>
<polygon fill="none" stroke="black" points="489.12,-354.38 489.12,-379.62 543.62,-379.62 543.62,-354.38 489.12,-354.38"/>
<text text-anchor="start" x="496.12" y="-365.07" font-family="Times New Roman,serif" font-weight="bold" font-size="9.00">University</text>
<polygon fill="none" stroke="black" points="488.12,-353.38 488.12,-380.62 544.62,-380.62 544.62,-353.38 488.12,-353.38"/>
</g>
<!-- n_0_1_2_3_4_5_6&#45;&gt;n_6 -->
<g id="edge12" class="edge">
<title>n_0_1_2_3_4_5_6&#45;&gt;n_6</title>
<path fill="none" stroke="black" d="M469.15,-440.14C479.04,-425.04 490.18,-408.02 499.15,-394.31"/>
<polygon fill="black" stroke="black" points="501.88,-396.53 504.43,-386.25 496.03,-392.7 501.88,-396.53"/>
</g>
<!-- n_1_2_3_5 -->
<g id="node3" class="node">
<title>n_1_2_3_5</title>
<polygon fill="none" stroke="black" points="219.38,-248 219.38,-289 288.12,-289 288.12,-248 219.38,-248"/>
<text text-anchor="start" x="234.62" y="-274.45" font-family="Times New Roman,serif" font-weight="bold" font-size="9.00">Preschool</text>
<text text-anchor="start" x="226.38" y="-265.45" font-family="Times New Roman,serif" font-weight="bold" font-size="9.00">Secondary (P)</text>
<text text-anchor="start" x="234.25" y="-256.45" font-family="Times New Roman,serif" font-weight="bold" font-size="9.00">Technical</text>
<polygon fill="none" stroke="black" points="288.12,-248 288.12,-289 349.38,-289 349.38,-248 288.12,-248"/>
<text text-anchor="start" x="295.12" y="-266.57" font-family="Times New Roman,serif" font-weight="bold" font-size="9.00">Primary (G)</text>
<polygon fill="none" stroke="black" points="218.38,-247 218.38,-290 350.38,-290 350.38,-247 218.38,-247"/>
</g>
<!-- n_0_1_2_3_4_5&#45;&gt;n_1_2_3_5 -->
<g id="edge2" class="edge">
<title>n_0_1_2_3_4_5&#45;&gt;n_1_2_3_5</title>
<path fill="none" stroke="black" d="M345.97,-337.05C335.97,-326.08 324.51,-313.51 314.21,-302.22"/>
<polygon fill="black" stroke="black" points="316.95,-300.02 307.62,-294.99 311.77,-304.74 316.95,-300.02"/>
</g>
<!-- n_0_4 -->
<g id="node10" class="node">
<title>n_0_4</title>
<polygon fill="none" stroke="black" points="396.38,-255.88 396.38,-281.12 456.12,-281.12 456.12,-255.88 396.38,-255.88"/>
<text text-anchor="start" x="403.38" y="-266.57" font-family="Times New Roman,serif" font-weight="bold" font-size="9.00">Primary (P)</text>
<polygon fill="none" stroke="black" points="456.12,-255.88 456.12,-281.12 526.38,-281.12 526.38,-255.88 456.12,-255.88"/>
<text text-anchor="start" x="463.12" y="-266.57" font-family="Times New Roman,serif" font-weight="bold" font-size="9.00">Secondary (G)</text>
<polygon fill="none" stroke="black" points="395.38,-254.88 395.38,-282.12 527.38,-282.12 527.38,-254.88 395.38,-254.88"/>
</g>
<!-- n_0_1_2_3_4_5&#45;&gt;n_0_4 -->
<g id="edge9" class="edge">
<title>n_0_1_2_3_4_5&#45;&gt;n_0_4</title>
<path fill="none" stroke="black" d="M399.08,-337.05C411.48,-323.6 426.08,-307.77 438.03,-294.81"/>
<polygon fill="black" stroke="black" points="440.59,-297.2 444.79,-287.48 435.44,-292.46 440.59,-297.2"/>
</g>
<!-- n_2_3_5 -->
<g id="node4" class="node">
<title>n_2_3_5</title>
<polygon fill="none" stroke="black" points="103.88,-163 103.88,-195 172.62,-195 172.62,-163 103.88,-163"/>
<text text-anchor="start" x="110.88" y="-180.45" font-family="Times New Roman,serif" font-weight="bold" font-size="9.00">Secondary (P)</text>
<text text-anchor="start" x="118.75" y="-171.45" font-family="Times New Roman,serif" font-weight="bold" font-size="9.00">Technical</text>
<polygon fill="none" stroke="black" points="172.62,-163 172.62,-195 224.88,-195 224.88,-163 172.62,-163"/>
<text text-anchor="start" x="179.62" y="-177.07" font-family="Times New Roman,serif" font-weight="bold" font-size="9.00">Preschool</text>
<polygon fill="none" stroke="black" points="102.88,-162 102.88,-196 225.88,-196 225.88,-162 102.88,-162"/>
</g>
<!-- n_1_2_3_5&#45;&gt;n_2_3_5 -->
<g id="edge3" class="edge">
<title>n_1_2_3_5&#45;&gt;n_2_3_5</title>
<path fill="none" stroke="black" d="M250.95,-243.13C235.3,-231.71 216.62,-218.1 200.63,-206.43"/>
<polygon fill="black" stroke="black" points="202.93,-203.78 192.79,-200.72 198.81,-209.44 202.93,-203.78"/>
</g>
<!-- n_1 -->
<g id="node9" class="node">
<title>n_1</title>
<polygon fill="none" stroke="black" points="271.75,-166.38 271.75,-191.62 333,-191.62 333,-166.38 271.75,-166.38"/>
<text text-anchor="start" x="278.75" y="-177.07" font-family="Times New Roman,serif" font-weight="bold" font-size="9.00">Primary (G)</text>
<polygon fill="none" stroke="black" points="270.75,-165.38 270.75,-192.62 334,-192.62 334,-165.38 270.75,-165.38"/>
</g>
<!-- n_1_2_3_5&#45;&gt;n_1 -->
<g id="edge8" class="edge">
<title>n_1_2_3_5&#45;&gt;n_1</title>
<path fill="none" stroke="black" d="M289.39,-243.13C291.64,-232.17 294.32,-219.18 296.65,-207.84"/>
<polygon fill="black" stroke="black" points="300.03,-208.75 298.62,-198.25 293.18,-207.34 300.03,-208.75"/>
</g>
<!-- n_3_5 -->
<g id="node5" class="node">
<title>n_3_5</title>
<polygon fill="none" stroke="black" points="36.5,-84.38 36.5,-109.62 105.25,-109.62 105.25,-84.38 36.5,-84.38"/>
<text text-anchor="start" x="43.5" y="-95.08" font-family="Times New Roman,serif" font-weight="bold" font-size="9.00">Secondary (P)</text>
<polygon fill="none" stroke="black" points="105.25,-84.38 105.25,-109.62 158.25,-109.62 158.25,-84.38 105.25,-84.38"/>
<text text-anchor="start" x="112.25" y="-95.08" font-family="Times New Roman,serif" font-weight="bold" font-size="9.00">Technical</text>
<polygon fill="none" stroke="black" points="35.5,-83.38 35.5,-110.62 159.25,-110.62 159.25,-83.38 35.5,-83.38"/>
</g>
<!-- n_2_3_5&#45;&gt;n_3_5 -->
<g id="edge4" class="edge">
<title>n_2_3_5&#45;&gt;n_3_5</title>
<path fill="none" stroke="black" d="M147.81,-158.22C139.01,-147.71 128.08,-134.66 118.65,-123.41"/>
<polygon fill="black" stroke="black" points="121.56,-121.42 112.45,-116 116.19,-125.92 121.56,-121.42"/>
</g>
<!-- n_2 -->
<g id="node8" class="node">
<title>n_2</title>
<polygon fill="none" stroke="black" points="205.25,-84.38 205.25,-109.62 257.5,-109.62 257.5,-84.38 205.25,-84.38"/>
<text text-anchor="start" x="212.25" y="-95.08" font-family="Times New Roman,serif" font-weight="bold" font-size="9.00">Preschool</text>
<polygon fill="none" stroke="black" points="204.25,-83.38 204.25,-110.62 258.5,-110.62 258.5,-83.38 204.25,-83.38"/>
</g>
<!-- n_2_3_5&#45;&gt;n_2 -->
<g id="edge7" class="edge">
<title>n_2_3_5&#45;&gt;n_2</title>
<path fill="none" stroke="black" d="M180.94,-158.22C189.74,-147.71 200.67,-134.66 210.1,-123.41"/>
<polygon fill="black" stroke="black" points="212.56,-125.92 216.3,-116 207.19,-121.42 212.56,-125.92"/>
</g>
<!-- n_3 -->
<g id="node6" class="node">
<title>n_3</title>
<polygon fill="none" stroke="black" points="9,-5.38 9,-30.62 77.75,-30.62 77.75,-5.38 9,-5.38"/>
<text text-anchor="start" x="16" y="-16.07" font-family="Times New Roman,serif" font-weight="bold" font-size="9.00">Secondary (P)</text>
<polygon fill="none" stroke="black" points="8,-4.38 8,-31.62 78.75,-31.62 78.75,-4.38 8,-4.38"/>
</g>
<!-- n_3_5&#45;&gt;n_3 -->
<g id="edge5" class="edge">
<title>n_3_5&#45;&gt;n_3</title>
<path fill="none" stroke="black" d="M85.66,-79.29C78.7,-69.37 69.72,-56.57 61.83,-45.32"/>
<polygon fill="black" stroke="black" points="64.73,-43.36 56.12,-37.18 59,-47.38 64.73,-43.36"/>
</g>
<!-- n_5 -->
<g id="node7" class="node">
<title>n_5</title>
<polygon fill="none" stroke="black" points="124.88,-5.38 124.88,-30.62 177.88,-30.62 177.88,-5.38 124.88,-5.38"/>
<text text-anchor="start" x="131.88" y="-16.07" font-family="Times New Roman,serif" font-weight="bold" font-size="9.00">Technical</text>
<polygon fill="none" stroke="black" points="123.88,-4.38 123.88,-31.62 178.88,-31.62 178.88,-4.38 123.88,-4.38"/>
</g>
<!-- n_3_5&#45;&gt;n_5 -->
<g id="edge6" class="edge">
<title>n_3_5&#45;&gt;n_5</title>
<path fill="none" stroke="black" d="M109.09,-79.29C116.05,-69.37 125.03,-56.57 132.92,-45.32"/>
<polygon fill="black" stroke="black" points="135.75,-47.38 138.63,-37.18 130.02,-43.36 135.75,-47.38"/>
</g>
<!-- n_0 -->
<g id="node11" class="node">
<title>n_0</title>
<polygon fill="none" stroke="black" points="414.5,-166.38 414.5,-191.62 474.25,-191.62 474.25,-166.38 414.5,-166.38"/>
<text text-anchor="start" x="421.5" y="-177.07" font-family="Times New Roman,serif" font-weight="bold" font-size="9.00">Primary (P)</text>
<polygon fill="none" stroke="black" points="413.5,-165.38 413.5,-192.62 475.25,-192.62 475.25,-165.38 413.5,-165.38"/>
</g>
<!-- n_0_4&#45;&gt;n_0 -->
<g id="edge10" class="edge">
<title>n_0_4&#45;&gt;n_0</title>
<path fill="none" stroke="black" d="M458.1,-250.63C455.75,-238.52 452.52,-221.94 449.79,-207.88"/>
<polygon fill="black" stroke="black" points="453.27,-207.45 447.93,-198.3 446.4,-208.79 453.27,-207.45"/>
</g>
<!-- n_4 -->
<g id="node12" class="node">
<title>n_4</title>
<polygon fill="none" stroke="black" points="521.25,-166.38 521.25,-191.62 591.5,-191.62 591.5,-166.38 521.25,-166.38"/>
<text text-anchor="start" x="528.25" y="-177.07" font-family="Times New Roman,serif" font-weight="bold" font-size="9.00">Secondary (G)</text>
<polygon fill="none" stroke="black" points="520.25,-165.38 520.25,-192.62 592.5,-192.62 592.5,-165.38 520.25,-165.38"/>
</g>
<!-- n_0_4&#45;&gt;n_4 -->
<g id="edge11" class="edge">
<title>n_0_4&#45;&gt;n_4</title>
<path fill="none" stroke="black" d="M479.69,-250.63C493.89,-237.56 513.76,-219.25 529.71,-204.56"/>
<polygon fill="black" stroke="black" points="532.02,-207.19 537,-197.84 527.27,-202.04 532.02,-207.19"/>
</g>
</g>
</svg>
