<?xml version="1.0" encoding="UTF-8" standalone="no"?>
<!DOCTYPE svg PUBLIC "-//W3C//DTD SVG 1.1//EN"
 "http://www.w3.org/Graphics/SVG/1.1/DTD/svg11.dtd">
<!-- Generated by graphviz version 10.0.1 (20240210.2158)
 -->
<!-- Title: ND Pages: 1 -->
<svg width="567pt" height="638pt"
 viewBox="0.00 0.00 567.00 638.00" xmlns="http://www.w3.org/2000/svg" xmlns:xlink="http://www.w3.org/1999/xlink">
<g id="graph0" class="graph" transform="scale(1 1) rotate(0) translate(4 634)">
<title>ND</title>
<polygon fill="white" stroke="none" points="-4,4 -4,-634 563,-634 563,4 -4,4"/>
<!-- n_0_1_2_3_4_5_6 -->
<g id="node1" class="node">
<title>n_0_1_2_3_4_5_6</title>
<polygon fill="none" stroke="black" points="379.62,-557 379.62,-625 449.88,-625 449.88,-557 379.62,-557"/>
<text text-anchor="start" x="391.88" y="-610.45" font-family="Times New Roman,serif" font-weight="bold" font-size="9.00">Primary (P)</text>
<text text-anchor="start" x="395.62" y="-601.45" font-family="Times New Roman,serif" font-weight="bold" font-size="9.00">Preschool</text>
<text text-anchor="start" x="387.38" y="-592.45" font-family="Times New Roman,serif" font-weight="bold" font-size="9.00">Secondary (P)</text>
<text text-anchor="start" x="386.62" y="-583.45" font-family="Times New Roman,serif" font-weight="bold" font-size="9.00">Secondary (G)</text>
<text text-anchor="start" x="395.25" y="-574.45" font-family="Times New Roman,serif" font-weight="bold" font-size="9.00">Technical</text>
<text text-anchor="start" x="394.5" y="-565.45" font-family="Times New Roman,serif" font-weight="bold" font-size="9.00">University</text>
<polygon fill="none" stroke="black" points="449.88,-557 449.88,-625 511.12,-625 511.12,-557 449.88,-557"/>
<text text-anchor="start" x="456.88" y="-589.08" font-family="Times New Roman,serif" font-weight="bold" font-size="9.00">Primary (G)</text>
<polygon fill="none" stroke="black" points="378.62,-556 378.62,-626 512.12,-626 512.12,-556 378.62,-556"/>
</g>
<!-- n_0_2_3_4_5_6 -->
<g id="node2" class="node">
<title>n_0_2_3_4_5_6</title>
<polygon fill="none" stroke="black" points="302.88,-445 302.88,-504 371.62,-504 371.62,-445 302.88,-445"/>
<text text-anchor="start" x="314.38" y="-489.45" font-family="Times New Roman,serif" font-weight="bold" font-size="9.00">Primary (P)</text>
<text text-anchor="start" x="318.12" y="-480.45" font-family="Times New Roman,serif" font-weight="bold" font-size="9.00">Preschool</text>
<text text-anchor="start" x="309.88" y="-471.45" font-family="Times New Roman,serif" font-weight="bold" font-size="9.00">Secondary (P)</text>
<text text-anchor="start" x="317.75" y="-462.45" font-family="Times New Roman,serif" font-weight="bold" font-size="9.00">Technical</text>
<text text-anchor="start" x="317" y="-453.45" font-family="Times New Roman,serif" font-weight="bold" font-size="9.00">University</text>
<polygon fill="none" stroke="black" points="371.62,-445 371.62,-504 441.88,-504 441.88,-445 371.62,-445"/>
<text text-anchor="start" x="378.62" y="-472.57" font-family="Times New Roman,serif" font-weight="bold" font-size="9.00">Secondary (G)</text>
<polygon fill="none" stroke="black" points="301.88,-444 301.88,-505 442.88,-505 442.88,-444 301.88,-444"/>
</g>
<!-- n_0_1_2_3_4_5_6&#45;&gt;n_0_2_3_4_5_6 -->
<g id="edge1" class="edge">
<title>n_0_1_2_3_4_5_6&#45;&gt;n_0_2_3_4_5_6</title>
<path fill="none" stroke="black" d="M421.27,-552.19C414.33,-541.31 406.72,-529.36 399.6,-518.21"/>
<polygon fill="black" stroke="black" points="402.65,-516.48 394.32,-509.93 396.75,-520.24 402.65,-516.48"/>
</g>
<!-- n_1 -->
<g id="node13" class="node">
<title>n_1</title>
<polygon fill="none" stroke="black" points="488.75,-461.88 488.75,-487.12 550,-487.12 550,-461.88 488.75,-461.88"/>
<text text-anchor="start" x="495.75" y="-472.57" font-family="Times New Roman,serif" font-weight="bold" font-size="9.00">Primary (G)</text>
<polygon fill="none" stroke="black" points="487.75,-460.88 487.75,-488.12 551,-488.12 551,-460.88 487.75,-460.88"/>
</g>
<!-- n_0_1_2_3_4_5_6&#45;&gt;n_1 -->
<g id="edge12" class="edge">
<title>n_0_1_2_3_4_5_6&#45;&gt;n_1</title>
<path fill="none" stroke="black" d="M469.81,-552.19C480.41,-535.78 492.58,-516.96 502.2,-502.07"/>
<polygon fill="black" stroke="black" points="505.1,-504.03 507.59,-493.73 499.22,-500.23 505.1,-504.03"/>
</g>
<!-- n_0_2_3_5_6 -->
<g id="node3" class="node">
<title>n_0_2_3_5_6</title>
<polygon fill="none" stroke="black" points="240.5,-342 240.5,-392 309.25,-392 309.25,-342 240.5,-342"/>
<text text-anchor="start" x="252" y="-377.45" font-family="Times New Roman,serif" font-weight="bold" font-size="9.00">Primary (P)</text>
<text text-anchor="start" x="255.75" y="-368.45" font-family="Times New Roman,serif" font-weight="bold" font-size="9.00">Preschool</text>
<text text-anchor="start" x="247.5" y="-359.45" font-family="Times New Roman,serif" font-weight="bold" font-size="9.00">Secondary (P)</text>
<text text-anchor="start" x="254.62" y="-350.45" font-family="Times New Roman,serif" font-weight="bold" font-size="9.00">University</text>
<polygon fill="none" stroke="black" points="309.25,-342 309.25,-392 362.25,-392 362.25,-342 309.25,-342"/>
<text text-anchor="start" x="316.25" y="-365.07" font-family="Times New Roman,serif" font-weight="bold" font-size="9.00">Technical</text>
<polygon fill="none" stroke="black" points="239.5,-341 239.5,-393 363.25,-393 363.25,-341 239.5,-341"/>
</g>
<!-- n_0_2_3_4_5_6&#45;&gt;n_0_2_3_5_6 -->
<g id="edge2" class="edge">
<title>n_0_2_3_4_5_6&#45;&gt;n_0_2_3_5_6</title>
<path fill="none" stroke="black" d="M349.91,-440.12C342.68,-429.38 334.62,-417.4 327.17,-406.33"/>
<polygon fill="black" stroke="black" points="330.16,-404.5 321.67,-398.15 324.35,-408.4 330.16,-404.5"/>
</g>
<!-- n_4 -->
<g id="node12" class="node">
<title>n_4</title>
<polygon fill="none" stroke="black" points="409.25,-354.38 409.25,-379.62 479.5,-379.62 479.5,-354.38 409.25,-354.38"/>
<text text-anchor="start" x="416.25" y="-365.07" font-family="Times New Roman,serif" font-weight="bold" font-size="9.00">Secondary (G)</text>
<polygon fill="none" stroke="black" points="408.25,-353.38 408.25,-380.62 480.5,-380.62 480.5,-353.38 408.25,-353.38"/>
</g>
<!-- n_0_2_3_4_5_6&#45;&gt;n_4 -->
<g id="edge11" class="edge">
<title>n_0_2_3_4_5_6&#45;&gt;n_4</title>
<path fill="none" stroke="black" d="M395.16,-440.12C405.23,-425.35 416.92,-408.23 426.37,-394.38"/>
<polygon fill="black" stroke="black" points="429.21,-396.43 431.95,-386.2 423.43,-392.49 429.21,-396.43"/>
</g>
<!-- n_0_2_3_6 -->
<g id="node4" class="node">
<title>n_0_2_3_6</title>
<polygon fill="none" stroke="black" points="173.88,-248 173.88,-289 242.62,-289 242.62,-248 173.88,-248"/>
<text text-anchor="start" x="185.38" y="-274.45" font-family="Times New Roman,serif" font-weight="bold" font-size="9.00">Primary (P)</text>
<text text-anchor="start" x="180.88" y="-265.45" font-family="Times New Roman,serif" font-weight="bold" font-size="9.00">Secondary (P)</text>
<text text-anchor="start" x="188" y="-256.45" font-family="Times New Roman,serif" font-weight="bold" font-size="9.00">University</text>
<polygon fill="none" stroke="black" points="242.62,-248 242.62,-289 294.88,-289 294.88,-248 242.62,-248"/>
<text text-anchor="start" x="249.62" y="-266.57" font-family="Times New Roman,serif" font-weight="bold" font-size="9.00">Preschool</text>
<polygon fill="none" stroke="black" points="172.88,-247 172.88,-290 295.88,-290 295.88,-247 172.88,-247"/>
</g>
<!-- n_0_2_3_5_6&#45;&gt;n_0_2_3_6 -->
<g id="edge3" class="edge">
<title>n_0_2_3_5_6&#45;&gt;n_0_2_3_6</title>
<path fill="none" stroke="black" d="M281.27,-337.05C273.88,-326.4 265.44,-314.25 257.78,-303.22"/>
<polygon fill="black" stroke="black" points="260.74,-301.34 252.16,-295.12 254.99,-305.33 260.74,-301.34"/>
</g>
<!-- n_5 -->
<g id="node11" class="node">
<title>n_5</title>
<polygon fill="none" stroke="black" points="341.88,-255.88 341.88,-281.12 394.88,-281.12 394.88,-255.88 341.88,-255.88"/>
<text text-anchor="start" x="348.88" y="-266.57" font-family="Times New Roman,serif" font-weight="bold" font-size="9.00">Technical</text>
<polygon fill="none" stroke="black" points="340.88,-254.88 340.88,-282.12 395.88,-282.12 395.88,-254.88 340.88,-254.88"/>
</g>
<!-- n_0_2_3_5_6&#45;&gt;n_5 -->
<g id="edge10" class="edge">
<title>n_0_2_3_5_6&#45;&gt;n_5</title>
<path fill="none" stroke="black" d="M321.48,-337.05C330.63,-323.86 341.38,-308.38 350.28,-295.56"/>
<polygon fill="black" stroke="black" points="352.97,-297.82 355.8,-287.61 347.22,-293.83 352.97,-297.82"/>
</g>
<!-- n_0_3_6 -->
<g id="node5" class="node">
<title>n_0_3_6</title>
<polygon fill="none" stroke="black" points="102.12,-163 102.12,-195 170.88,-195 170.88,-163 102.12,-163"/>
<text text-anchor="start" x="109.12" y="-180.45" font-family="Times New Roman,serif" font-weight="bold" font-size="9.00">Secondary (P)</text>
<text text-anchor="start" x="116.25" y="-171.45" font-family="Times New Roman,serif" font-weight="bold" font-size="9.00">University</text>
<polygon fill="none" stroke="black" points="170.88,-163 170.88,-195 230.62,-195 230.62,-163 170.88,-163"/>
<text text-anchor="start" x="177.88" y="-177.07" font-family="Times New Roman,serif" font-weight="bold" font-size="9.00">Primary (P)</text>
<polygon fill="none" stroke="black" points="101.12,-162 101.12,-196 231.62,-196 231.62,-162 101.12,-162"/>
</g>
<!-- n_0_2_3_6&#45;&gt;n_0_3_6 -->
<g id="edge4" class="edge">
<title>n_0_2_3_6&#45;&gt;n_0_3_6</title>
<path fill="none" stroke="black" d="M215.43,-243.13C207.14,-232.46 197.36,-219.87 188.72,-208.75"/>
<polygon fill="black" stroke="black" points="191.61,-206.77 182.71,-201.02 186.08,-211.06 191.61,-206.77"/>
</g>
<!-- n_2 -->
<g id="node10" class="node">
<title>n_2</title>
<polygon fill="none" stroke="black" points="277.25,-166.38 277.25,-191.62 329.5,-191.62 329.5,-166.38 277.25,-166.38"/>
<text text-anchor="start" x="284.25" y="-177.07" font-family="Times New Roman,serif" font-weight="bold" font-size="9.00">Preschool</text>
<polygon fill="none" stroke="black" points="276.25,-165.38 276.25,-192.62 330.5,-192.62 330.5,-165.38 276.25,-165.38"/>
</g>
<!-- n_0_2_3_6&#45;&gt;n_2 -->
<g id="edge9" class="edge">
<title>n_0_2_3_6&#45;&gt;n_2</title>
<path fill="none" stroke="black" d="M253.6,-243.13C262.78,-231.48 273.78,-217.53 283.1,-205.71"/>
<polygon fill="black" stroke="black" points="285.77,-207.98 289.21,-197.96 280.27,-203.64 285.77,-207.98"/>
</g>
<!-- n_3_6 -->
<g id="node6" class="node">
<title>n_3_6</title>
<polygon fill="none" stroke="black" points="35.75,-84.38 35.75,-109.62 104.5,-109.62 104.5,-84.38 35.75,-84.38"/>
<text text-anchor="start" x="42.75" y="-95.08" font-family="Times New Roman,serif" font-weight="bold" font-size="9.00">Secondary (P)</text>
<polygon fill="none" stroke="black" points="104.5,-84.38 104.5,-109.62 159,-109.62 159,-84.38 104.5,-84.38"/>
<text text-anchor="start" x="111.5" y="-95.08" font-family="Times New Roman,serif" font-weight="bold" font-size="9.00">University</text>
<polygon fill="none" stroke="black" points="34.75,-83.38 34.75,-110.62 160,-110.62 160,-83.38 34.75,-83.38"/>
</g>
<!-- n_0_3_6&#45;&gt;n_3_6 -->
<g id="edge5" class="edge">
<title>n_0_3_6&#45;&gt;n_3_6</title>
<path fill="none" stroke="black" d="M149.32,-158.22C140.25,-147.71 129,-134.66 119.29,-123.41"/>
<polygon fill="black" stroke="black" points="122.07,-121.28 112.89,-115.99 116.77,-125.85 122.07,-121.28"/>
</g>
<!-- n_0 -->
<g id="node9" class="node">
<title>n_0</title>
<polygon fill="none" stroke="black" points="206.5,-84.38 206.5,-109.62 266.25,-109.62 266.25,-84.38 206.5,-84.38"/>
<text text-anchor="start" x="213.5" y="-95.08" font-family="Times New Roman,serif" font-weight="bold" font-size="9.00">Primary (P)</text>
<polygon fill="none" stroke="black" points="205.5,-83.38 205.5,-110.62 267.25,-110.62 267.25,-83.38 205.5,-83.38"/>
</g>
<!-- n_0_3_6&#45;&gt;n_0 -->
<g id="edge8" class="edge">
<title>n_0_3_6&#45;&gt;n_0</title>
<path fill="none" stroke="black" d="M183.68,-158.22C192.88,-147.71 204.29,-134.66 214.14,-123.41"/>
<polygon fill="black" stroke="black" points="216.69,-125.81 220.64,-115.98 211.42,-121.2 216.69,-125.81"/>
</g>
<!-- n_3 -->
<g id="node7" class="node">
<title>n_3</title>
<polygon fill="none" stroke="black" points="9,-5.38 9,-30.62 77.75,-30.62 77.75,-5.38 9,-5.38"/>
<text text-anchor="start" x="16" y="-16.07" font-family="Times New Roman,serif" font-weight="bold" font-size="9.00">Secondary (P)</text>
<polygon fill="none" stroke="black" points="8,-4.38 8,-31.62 78.75,-31.62 78.75,-4.38 8,-4.38"/>
</g>
<!-- n_3_6&#45;&gt;n_3 -->
<g id="edge6" class="edge">
<title>n_3_6&#45;&gt;n_3</title>
<path fill="none" stroke="black" d="M85.66,-79.29C78.7,-69.37 69.72,-56.57 61.83,-45.32"/>
<polygon fill="black" stroke="black" points="64.73,-43.36 56.12,-37.18 59,-47.38 64.73,-43.36"/>
</g>
<!-- n_6 -->
<g id="node8" class="node">
<title>n_6</title>
<polygon fill="none" stroke="black" points="125.12,-5.38 125.12,-30.62 179.62,-30.62 179.62,-5.38 125.12,-5.38"/>
<text text-anchor="start" x="132.12" y="-16.07" font-family="Times New Roman,serif" font-weight="bold" font-size="9.00">University</text>
<polygon fill="none" stroke="black" points="124.12,-4.38 124.12,-31.62 180.62,-31.62 180.62,-4.38 124.12,-4.38"/>
</g>
<!-- n_3_6&#45;&gt;n_6 -->
<g id="edge7" class="edge">
<title>n_3_6&#45;&gt;n_6</title>
<path fill="none" stroke="black" d="M109.31,-79.29C116.47,-69.27 125.72,-56.31 133.82,-44.98"/>
<polygon fill="black" stroke="black" points="136.43,-47.34 139.39,-37.17 130.73,-43.28 136.43,-47.34"/>
</g>
</g>
</svg>
