<?xml version="1.0" encoding="UTF-8" standalone="no"?>
<!DOCTYPE svg PUBLIC "-//W3C//DTD SVG 1.1//EN"
 "http://www.w3.org/Graphics/SVG/1.1/DTD/svg11.dtd">
<!-- Generated by graphviz version 10.0.1 (20240210.2158)
 -->
<!-- Title: ND Pages: 1 -->
<svg width="598pt" height="405pt"
 viewBox="0.00 0.00 598.38 405.00" xmlns="http://www.w3.org/2000/svg" xmlns:xlink="http://www.w3.org/1999/xlink">
<g id="graph0" class="graph" transform="scale(1 1) rotate(0) translate(4 401)">
<title>ND</title>
<polygon fill="white" stroke="none" points="-4,4 -4,-401 594.38,-401 594.38,4 -4,4"/>
<!-- n_0_1_2_3_4_5_6 -->
<g id="node1" class="node">
<title>n_0_1_2_3_4_5_6</title>
<polygon fill="none" stroke="black" points="274.38,-342 274.38,-392 344.62,-392 344.62,-342 274.38,-342"/>
<text text-anchor="start" x="290.38" y="-377.45" font-family="Times New Roman,serif" font-weight="bold" font-size="9.00">Preschool</text>
<text text-anchor="start" x="282.12" y="-368.45" font-family="Times New Roman,serif" font-weight="bold" font-size="9.00">Secondary (P)</text>
<text text-anchor="start" x="281.38" y="-359.45" font-family="Times New Roman,serif" font-weight="bold" font-size="9.00">Secondary (G)</text>
<text text-anchor="start" x="290" y="-350.45" font-family="Times New Roman,serif" font-weight="bold" font-size="9.00">Technical</text>
<polygon fill="none" stroke="black" points="344.62,-342 344.62,-392 405.88,-392 405.88,-342 344.62,-342"/>
<text text-anchor="start" x="352.38" y="-372.95" font-family="Times New Roman,serif" font-weight="bold" font-size="9.00">Primary (P)</text>
<text text-anchor="start" x="351.62" y="-363.95" font-family="Times New Roman,serif" font-weight="bold" font-size="9.00">Primary (G)</text>
<text text-anchor="start" x="355" y="-354.95" font-family="Times New Roman,serif" font-weight="bold" font-size="9.00">University</text>
<polygon fill="none" stroke="black" points="273.38,-341 273.38,-393 406.88,-393 406.88,-341 273.38,-341"/>
</g>
<!-- n_2_3_4_5 -->
<g id="node2" class="node">
<title>n_2_3_4_5</title>
<polygon fill="none" stroke="black" points="183.62,-248 183.62,-289 252.38,-289 252.38,-248 183.62,-248"/>
<text text-anchor="start" x="198.88" y="-274.45" font-family="Times New Roman,serif" font-weight="bold" font-size="9.00">Preschool</text>
<text text-anchor="start" x="190.62" y="-265.45" font-family="Times New Roman,serif" font-weight="bold" font-size="9.00">Secondary (P)</text>
<text text-anchor="start" x="198.5" y="-256.45" font-family="Times New Roman,serif" font-weight="bold" font-size="9.00">Technical</text>
<polygon fill="none" stroke="black" points="252.38,-248 252.38,-289 322.62,-289 322.62,-248 252.38,-248"/>
<text text-anchor="start" x="259.38" y="-266.57" font-family="Times New Roman,serif" font-weight="bold" font-size="9.00">Secondary (G)</text>
<polygon fill="none" stroke="black" points="182.62,-247 182.62,-290 323.62,-290 323.62,-247 182.62,-247"/>
</g>
<!-- n_0_1_2_3_4_5_6&#45;&gt;n_2_3_4_5 -->
<g id="edge1" class="edge">
<title>n_0_1_2_3_4_5_6&#45;&gt;n_2_3_4_5</title>
<path fill="none" stroke="black" d="M314.02,-337.05C304.13,-326.08 292.8,-313.51 282.62,-302.22"/>
<polygon fill="black" stroke="black" points="285.41,-300.08 276.11,-295 280.21,-304.77 285.41,-300.08"/>
</g>
<!-- n_0_1_6 -->
<g id="node9" class="node">
<title>n_0_1_6</title>
<polygon fill="none" stroke="black" points="369.25,-252.5 369.25,-284.5 430.5,-284.5 430.5,-252.5 369.25,-252.5"/>
<text text-anchor="start" x="377" y="-269.95" font-family="Times New Roman,serif" font-weight="bold" font-size="9.00">Primary (P)</text>
<text text-anchor="start" x="376.25" y="-260.95" font-family="Times New Roman,serif" font-weight="bold" font-size="9.00">Primary (G)</text>
<polygon fill="none" stroke="black" points="430.5,-252.5 430.5,-284.5 485,-284.5 485,-252.5 430.5,-252.5"/>
<text text-anchor="start" x="437.5" y="-266.57" font-family="Times New Roman,serif" font-weight="bold" font-size="9.00">University</text>
<polygon fill="none" stroke="black" points="368.25,-251.5 368.25,-285.5 486,-285.5 486,-251.5 368.25,-251.5"/>
</g>
<!-- n_0_1_2_3_4_5_6&#45;&gt;n_0_1_6 -->
<g id="edge8" class="edge">
<title>n_0_1_2_3_4_5_6&#45;&gt;n_0_1_6</title>
<path fill="none" stroke="black" d="M366.23,-337.05C377.53,-324.51 390.72,-309.89 401.92,-297.46"/>
<polygon fill="black" stroke="black" points="404.2,-300.15 408.3,-290.38 399,-295.47 404.2,-300.15"/>
</g>
<!-- n_2_3_5 -->
<g id="node3" class="node">
<title>n_2_3_5</title>
<polygon fill="none" stroke="black" points="57.25,-163 57.25,-195 110.25,-195 110.25,-163 57.25,-163"/>
<text text-anchor="start" x="64.62" y="-180.45" font-family="Times New Roman,serif" font-weight="bold" font-size="9.00">Preschool</text>
<text text-anchor="start" x="64.25" y="-171.45" font-family="Times New Roman,serif" font-weight="bold" font-size="9.00">Technical</text>
<polygon fill="none" stroke="black" points="110.25,-163 110.25,-195 179,-195 179,-163 110.25,-163"/>
<text text-anchor="start" x="117.25" y="-177.07" font-family="Times New Roman,serif" font-weight="bold" font-size="9.00">Secondary (P)</text>
<polygon fill="none" stroke="black" points="56.25,-162 56.25,-196 180,-196 180,-162 56.25,-162"/>
</g>
<!-- n_2_3_4_5&#45;&gt;n_2_3_5 -->
<g id="edge2" class="edge">
<title>n_2_3_4_5&#45;&gt;n_2_3_5</title>
<path fill="none" stroke="black" d="M215.52,-243.13C197.66,-231.55 176.31,-217.71 158.15,-205.94"/>
<polygon fill="black" stroke="black" points="160.28,-203.15 149.98,-200.65 156.47,-209.03 160.28,-203.15"/>
</g>
<!-- n_4 -->
<g id="node8" class="node">
<title>n_4</title>
<polygon fill="none" stroke="black" points="226,-166.38 226,-191.62 296.25,-191.62 296.25,-166.38 226,-166.38"/>
<text text-anchor="start" x="233" y="-177.07" font-family="Times New Roman,serif" font-weight="bold" font-size="9.00">Secondary (G)</text>
<polygon fill="none" stroke="black" points="225,-165.38 225,-192.62 297.25,-192.62 297.25,-165.38 225,-165.38"/>
</g>
<!-- n_2_3_4_5&#45;&gt;n_4 -->
<g id="edge7" class="edge">
<title>n_2_3_4_5&#45;&gt;n_4</title>
<path fill="none" stroke="black" d="M255.35,-243.13C256.34,-232.28 257.52,-219.45 258.55,-208.19"/>
<polygon fill="black" stroke="black" points="262.03,-208.56 259.45,-198.28 255.06,-207.92 262.03,-208.56"/>
</g>
<!-- n_2_5 -->
<g id="node4" class="node">
<title>n_2_5</title>
<polygon fill="none" stroke="black" points="32.5,-84.38 32.5,-109.62 84.75,-109.62 84.75,-84.38 32.5,-84.38"/>
<text text-anchor="start" x="39.5" y="-95.08" font-family="Times New Roman,serif" font-weight="bold" font-size="9.00">Preschool</text>
<polygon fill="none" stroke="black" points="84.75,-84.38 84.75,-109.62 137.75,-109.62 137.75,-84.38 84.75,-84.38"/>
<text text-anchor="start" x="91.75" y="-95.08" font-family="Times New Roman,serif" font-weight="bold" font-size="9.00">Technical</text>
<polygon fill="none" stroke="black" points="31.5,-83.38 31.5,-110.62 138.75,-110.62 138.75,-83.38 31.5,-83.38"/>
</g>
<!-- n_2_3_5&#45;&gt;n_2_5 -->
<g id="edge3" class="edge">
<title>n_2_3_5&#45;&gt;n_2_5</title>
<path fill="none" stroke="black" d="M109.97,-158.22C105.89,-148.33 100.88,-136.21 96.44,-125.43"/>
<polygon fill="black" stroke="black" points="99.7,-124.15 92.65,-116.24 93.23,-126.82 99.7,-124.15"/>
</g>
<!-- n_3 -->
<g id="node7" class="node">
<title>n_3</title>
<polygon fill="none" stroke="black" points="184.75,-84.38 184.75,-109.62 253.5,-109.62 253.5,-84.38 184.75,-84.38"/>
<text text-anchor="start" x="191.75" y="-95.08" font-family="Times New Roman,serif" font-weight="bold" font-size="9.00">Secondary (P)</text>
<polygon fill="none" stroke="black" points="183.75,-83.38 183.75,-110.62 254.5,-110.62 254.5,-83.38 183.75,-83.38"/>
</g>
<!-- n_2_3_5&#45;&gt;n_3 -->
<g id="edge6" class="edge">
<title>n_2_3_5&#45;&gt;n_3</title>
<path fill="none" stroke="black" d="M143.35,-158.02C157.29,-146.98 174.68,-133.2 189.29,-121.63"/>
<polygon fill="black" stroke="black" points="191.12,-124.65 196.78,-115.7 186.77,-119.16 191.12,-124.65"/>
</g>
<!-- n_2 -->
<g id="node5" class="node">
<title>n_2</title>
<polygon fill="none" stroke="black" points="9,-5.38 9,-30.62 61.25,-30.62 61.25,-5.38 9,-5.38"/>
<text text-anchor="start" x="16" y="-16.07" font-family="Times New Roman,serif" font-weight="bold" font-size="9.00">Preschool</text>
<polygon fill="none" stroke="black" points="8,-4.38 8,-31.62 62.25,-31.62 62.25,-4.38 8,-4.38"/>
</g>
<!-- n_2_5&#45;&gt;n_2 -->
<g id="edge4" class="edge">
<title>n_2_5&#45;&gt;n_2</title>
<path fill="none" stroke="black" d="M74.28,-79.29C67.83,-69.37 59.52,-56.57 52.22,-45.32"/>
<polygon fill="black" stroke="black" points="55.33,-43.69 46.95,-37.21 49.46,-47.5 55.33,-43.69"/>
</g>
<!-- n_5 -->
<g id="node6" class="node">
<title>n_5</title>
<polygon fill="none" stroke="black" points="108.62,-5.38 108.62,-30.62 161.62,-30.62 161.62,-5.38 108.62,-5.38"/>
<text text-anchor="start" x="115.62" y="-16.07" font-family="Times New Roman,serif" font-weight="bold" font-size="9.00">Technical</text>
<polygon fill="none" stroke="black" points="107.62,-4.38 107.62,-31.62 162.62,-31.62 162.62,-4.38 107.62,-4.38"/>
</g>
<!-- n_2_5&#45;&gt;n_5 -->
<g id="edge5" class="edge">
<title>n_2_5&#45;&gt;n_5</title>
<path fill="none" stroke="black" d="M95.97,-79.29C102.42,-69.37 110.73,-56.57 118.03,-45.32"/>
<polygon fill="black" stroke="black" points="120.79,-47.5 123.3,-37.21 114.92,-43.69 120.79,-47.5"/>
</g>
<!-- n_0_1 -->
<g id="node10" class="node">
<title>n_0_1</title>
<polygon fill="none" stroke="black" points="358.62,-166.38 358.62,-191.62 418.38,-191.62 418.38,-166.38 358.62,-166.38"/>
<text text-anchor="start" x="365.62" y="-177.07" font-family="Times New Roman,serif" font-weight="bold" font-size="9.00">Primary (P)</text>
<polygon fill="none" stroke="black" points="418.38,-166.38 418.38,-191.62 479.62,-191.62 479.62,-166.38 418.38,-166.38"/>
<text text-anchor="start" x="425.38" y="-177.07" font-family="Times New Roman,serif" font-weight="bold" font-size="9.00">Primary (G)</text>
<polygon fill="none" stroke="black" points="357.62,-165.38 357.62,-192.62 480.62,-192.62 480.62,-165.38 357.62,-165.38"/>
</g>
<!-- n_0_1_6&#45;&gt;n_0_1 -->
<g id="edge9" class="edge">
<title>n_0_1_6&#45;&gt;n_0_1</title>
<path fill="none" stroke="black" d="M425.31,-247.64C424.24,-235.91 422.86,-220.86 421.68,-207.94"/>
<polygon fill="black" stroke="black" points="425.2,-207.98 420.8,-198.34 418.23,-208.62 425.2,-207.98"/>
</g>
<!-- n_6 -->
<g id="node13" class="node">
<title>n_6</title>
<polygon fill="none" stroke="black" points="526.88,-166.38 526.88,-191.62 581.38,-191.62 581.38,-166.38 526.88,-166.38"/>
<text text-anchor="start" x="533.88" y="-177.07" font-family="Times New Roman,serif" font-weight="bold" font-size="9.00">University</text>
<polygon fill="none" stroke="black" points="525.88,-165.38 525.88,-192.62 582.38,-192.62 582.38,-165.38 525.88,-165.38"/>
</g>
<!-- n_0_1_6&#45;&gt;n_6 -->
<g id="edge12" class="edge">
<title>n_0_1_6&#45;&gt;n_6</title>
<path fill="none" stroke="black" d="M455.94,-247.64C475.06,-234.47 500.23,-217.13 520.3,-203.3"/>
<polygon fill="black" stroke="black" points="522.2,-206.25 528.45,-197.69 518.23,-200.48 522.2,-206.25"/>
</g>
<!-- n_0 -->
<g id="node11" class="node">
<title>n_0</title>
<polygon fill="none" stroke="black" points="344.25,-84.38 344.25,-109.62 404,-109.62 404,-84.38 344.25,-84.38"/>
<text text-anchor="start" x="351.25" y="-95.08" font-family="Times New Roman,serif" font-weight="bold" font-size="9.00">Primary (P)</text>
<polygon fill="none" stroke="black" points="343.25,-83.38 343.25,-110.62 405,-110.62 405,-83.38 343.25,-83.38"/>
</g>
<!-- n_0_1&#45;&gt;n_0 -->
<g id="edge10" class="edge">
<title>n_0_1&#45;&gt;n_0</title>
<path fill="none" stroke="black" d="M409.58,-161.03C403.68,-150.53 395.96,-136.82 389.24,-124.87"/>
<polygon fill="black" stroke="black" points="392.35,-123.26 384.4,-116.26 386.25,-126.69 392.35,-123.26"/>
</g>
<!-- n_1 -->
<g id="node12" class="node">
<title>n_1</title>
<polygon fill="none" stroke="black" points="451.5,-84.38 451.5,-109.62 512.75,-109.62 512.75,-84.38 451.5,-84.38"/>
<text text-anchor="start" x="458.5" y="-95.08" font-family="Times New Roman,serif" font-weight="bold" font-size="9.00">Primary (G)</text>
<polygon fill="none" stroke="black" points="450.5,-83.38 450.5,-110.62 513.75,-110.62 513.75,-83.38 450.5,-83.38"/>
</g>
<!-- n_0_1&#45;&gt;n_1 -->
<g id="edge11" class="edge">
<title>n_0_1&#45;&gt;n_1</title>
<path fill="none" stroke="black" d="M432.49,-161.03C441.01,-150.22 452.21,-135.99 461.82,-123.79"/>
<polygon fill="black" stroke="black" points="464.41,-126.15 467.85,-116.13 458.91,-121.82 464.41,-126.15"/>
</g>
</g>
</svg>
