<?xml version="1.0" encoding="UTF-8" standalone="no"?>
<!DOCTYPE svg PUBLIC "-//W3C//DTD SVG 1.1//EN"
 "http://www.w3.org/Graphics/SVG/1.1/DTD/svg11.dtd">
<!-- Generated by graphviz version 10.0.1 (20240210.2158)
 -->
<!-- Title: ND Pages: 1 -->
<svg width="609pt" height="526pt"
 viewBox="0.00 0.00 608.50 526.00" xmlns="http://www.w3.org/2000/svg" xmlns:xlink="http://www.w3.org/1999/xlink">
<g id="graph0" class="graph" transform="scale(1 1) rotate(0) translate(4 522)">
<title>ND</title>
<polygon fill="white" stroke="none" points="-4,4 -4,-522 604.5,-522 604.5,4 -4,4"/>
<!-- n_0_1_2_3_4_5_6 -->
<g id="node1" class="node">
<title>n_0_1_2_3_4_5_6</title>
<polygon fill="none" stroke="black" points="384.88,-445 384.88,-513 455.12,-513 455.12,-445 384.88,-445"/>
<text text-anchor="start" x="397.12" y="-498.45" font-family="Times New Roman,serif" font-weight="bold" font-size="9.00">Primary (P)</text>
<text text-anchor="start" x="396.38" y="-489.45" font-family="Times New Roman,serif" font-weight="bold" font-size="9.00">Primary (G)</text>
<text text-anchor="start" x="392.62" y="-480.45" font-family="Times New Roman,serif" font-weight="bold" font-size="9.00">Secondary (P)</text>
<text text-anchor="start" x="391.88" y="-471.45" font-family="Times New Roman,serif" font-weight="bold" font-size="9.00">Secondary (G)</text>
<text text-anchor="start" x="400.5" y="-462.45" font-family="Times New Roman,serif" font-weight="bold" font-size="9.00">Technical</text>
<text text-anchor="start" x="399.75" y="-453.45" font-family="Times New Roman,serif" font-weight="bold" font-size="9.00">University</text>
<polygon fill="none" stroke="black" points="455.12,-445 455.12,-513 507.38,-513 507.38,-445 455.12,-445"/>
<text text-anchor="start" x="462.12" y="-477.07" font-family="Times New Roman,serif" font-weight="bold" font-size="9.00">Preschool</text>
<polygon fill="none" stroke="black" points="383.88,-444 383.88,-514 508.38,-514 508.38,-444 383.88,-444"/>
</g>
<!-- n_0_1_3_4_5_6 -->
<g id="node2" class="node">
<title>n_0_1_3_4_5_6</title>
<polygon fill="none" stroke="black" points="305.62,-342 305.62,-392 375.88,-392 375.88,-342 305.62,-342"/>
<text text-anchor="start" x="317.88" y="-377.45" font-family="Times New Roman,serif" font-weight="bold" font-size="9.00">Primary (P)</text>
<text text-anchor="start" x="312.62" y="-368.45" font-family="Times New Roman,serif" font-weight="bold" font-size="9.00">Secondary (G)</text>
<text text-anchor="start" x="321.25" y="-359.45" font-family="Times New Roman,serif" font-weight="bold" font-size="9.00">Technical</text>
<text text-anchor="start" x="320.5" y="-350.45" font-family="Times New Roman,serif" font-weight="bold" font-size="9.00">University</text>
<polygon fill="none" stroke="black" points="375.88,-342 375.88,-392 444.62,-392 444.62,-342 375.88,-342"/>
<text text-anchor="start" x="386.62" y="-368.45" font-family="Times New Roman,serif" font-weight="bold" font-size="9.00">Primary (G)</text>
<text text-anchor="start" x="382.88" y="-359.45" font-family="Times New Roman,serif" font-weight="bold" font-size="9.00">Secondary (P)</text>
<polygon fill="none" stroke="black" points="304.62,-341 304.62,-393 445.62,-393 445.62,-341 304.62,-341"/>
</g>
<!-- n_0_1_2_3_4_5_6&#45;&gt;n_0_1_3_4_5_6 -->
<g id="edge1" class="edge">
<title>n_0_1_2_3_4_5_6&#45;&gt;n_0_1_3_4_5_6</title>
<path fill="none" stroke="black" d="M421.69,-440.14C414.62,-429.19 406.89,-417.22 399.8,-406.23"/>
<polygon fill="black" stroke="black" points="402.96,-404.66 394.59,-398.16 397.07,-408.46 402.96,-404.66"/>
</g>
<!-- n_2 -->
<g id="node13" class="node">
<title>n_2</title>
<polygon fill="none" stroke="black" points="492,-354.38 492,-379.62 544.25,-379.62 544.25,-354.38 492,-354.38"/>
<text text-anchor="start" x="499" y="-365.07" font-family="Times New Roman,serif" font-weight="bold" font-size="9.00">Preschool</text>
<polygon fill="none" stroke="black" points="491,-353.38 491,-380.62 545.25,-380.62 545.25,-353.38 491,-353.38"/>
</g>
<!-- n_0_1_2_3_4_5_6&#45;&gt;n_2 -->
<g id="edge12" class="edge">
<title>n_0_1_2_3_4_5_6&#45;&gt;n_2</title>
<path fill="none" stroke="black" d="M470.9,-440.14C480.79,-425.04 491.93,-408.02 500.9,-394.31"/>
<polygon fill="black" stroke="black" points="503.63,-396.53 506.18,-386.25 497.78,-392.7 503.63,-396.53"/>
</g>
<!-- n_0_4_5_6 -->
<g id="node3" class="node">
<title>n_0_4_5_6</title>
<polygon fill="none" stroke="black" points="225.75,-248 225.75,-289 296,-289 296,-248 225.75,-248"/>
<text text-anchor="start" x="238" y="-274.45" font-family="Times New Roman,serif" font-weight="bold" font-size="9.00">Primary (P)</text>
<text text-anchor="start" x="232.75" y="-265.45" font-family="Times New Roman,serif" font-weight="bold" font-size="9.00">Secondary (G)</text>
<text text-anchor="start" x="241.38" y="-256.45" font-family="Times New Roman,serif" font-weight="bold" font-size="9.00">Technical</text>
<polygon fill="none" stroke="black" points="296,-248 296,-289 350.5,-289 350.5,-248 296,-248"/>
<text text-anchor="start" x="303" y="-266.57" font-family="Times New Roman,serif" font-weight="bold" font-size="9.00">University</text>
<polygon fill="none" stroke="black" points="224.75,-247 224.75,-290 351.5,-290 351.5,-247 224.75,-247"/>
</g>
<!-- n_0_1_3_4_5_6&#45;&gt;n_0_4_5_6 -->
<g id="edge2" class="edge">
<title>n_0_1_3_4_5_6&#45;&gt;n_0_4_5_6</title>
<path fill="none" stroke="black" d="M349.02,-337.05C339.13,-326.08 327.8,-313.51 317.62,-302.22"/>
<polygon fill="black" stroke="black" points="320.41,-300.08 311.11,-295 315.21,-304.77 320.41,-300.08"/>
</g>
<!-- n_1_3 -->
<g id="node10" class="node">
<title>n_1_3</title>
<polygon fill="none" stroke="black" points="397.12,-255.88 397.12,-281.12 458.38,-281.12 458.38,-255.88 397.12,-255.88"/>
<text text-anchor="start" x="404.12" y="-266.57" font-family="Times New Roman,serif" font-weight="bold" font-size="9.00">Primary (G)</text>
<polygon fill="none" stroke="black" points="458.38,-255.88 458.38,-281.12 527.12,-281.12 527.12,-255.88 458.38,-255.88"/>
<text text-anchor="start" x="465.38" y="-266.57" font-family="Times New Roman,serif" font-weight="bold" font-size="9.00">Secondary (P)</text>
<polygon fill="none" stroke="black" points="396.12,-254.88 396.12,-282.12 528.12,-282.12 528.12,-254.88 396.12,-254.88"/>
</g>
<!-- n_0_1_3_4_5_6&#45;&gt;n_1_3 -->
<g id="edge9" class="edge">
<title>n_0_1_3_4_5_6&#45;&gt;n_1_3</title>
<path fill="none" stroke="black" d="M401.23,-337.05C413.35,-323.6 427.62,-307.77 439.3,-294.81"/>
<polygon fill="black" stroke="black" points="441.81,-297.26 445.91,-287.49 436.61,-292.57 441.81,-297.26"/>
</g>
<!-- n_0_4_5 -->
<g id="node4" class="node">
<title>n_0_4_5</title>
<polygon fill="none" stroke="black" points="102.12,-163 102.12,-195 172.38,-195 172.38,-163 102.12,-163"/>
<text text-anchor="start" x="109.12" y="-180.45" font-family="Times New Roman,serif" font-weight="bold" font-size="9.00">Secondary (G)</text>
<text text-anchor="start" x="117.75" y="-171.45" font-family="Times New Roman,serif" font-weight="bold" font-size="9.00">Technical</text>
<polygon fill="none" stroke="black" points="172.38,-163 172.38,-195 232.12,-195 232.12,-163 172.38,-163"/>
<text text-anchor="start" x="179.38" y="-177.07" font-family="Times New Roman,serif" font-weight="bold" font-size="9.00">Primary (P)</text>
<polygon fill="none" stroke="black" points="101.12,-162 101.12,-196 233.12,-196 233.12,-162 101.12,-162"/>
</g>
<!-- n_0_4_5_6&#45;&gt;n_0_4_5 -->
<g id="edge3" class="edge">
<title>n_0_4_5_6&#45;&gt;n_0_4_5</title>
<path fill="none" stroke="black" d="M254.42,-243.13C238.64,-231.71 219.81,-218.1 203.68,-206.43"/>
<polygon fill="black" stroke="black" points="205.92,-203.74 195.77,-200.71 201.82,-209.41 205.92,-203.74"/>
</g>
<!-- n_6 -->
<g id="node9" class="node">
<title>n_6</title>
<polygon fill="none" stroke="black" points="278.88,-166.38 278.88,-191.62 333.38,-191.62 333.38,-166.38 278.88,-166.38"/>
<text text-anchor="start" x="285.88" y="-177.07" font-family="Times New Roman,serif" font-weight="bold" font-size="9.00">University</text>
<polygon fill="none" stroke="black" points="277.88,-165.38 277.88,-192.62 334.38,-192.62 334.38,-165.38 277.88,-165.38"/>
</g>
<!-- n_0_4_5_6&#45;&gt;n_6 -->
<g id="edge8" class="edge">
<title>n_0_4_5_6&#45;&gt;n_6</title>
<path fill="none" stroke="black" d="M293.14,-243.13C295.39,-232.17 298.07,-219.18 300.4,-207.84"/>
<polygon fill="black" stroke="black" points="303.78,-208.75 302.37,-198.25 296.93,-207.34 303.78,-208.75"/>
</g>
<!-- n_4_5 -->
<g id="node5" class="node">
<title>n_4_5</title>
<polygon fill="none" stroke="black" points="36.5,-84.38 36.5,-109.62 106.75,-109.62 106.75,-84.38 36.5,-84.38"/>
<text text-anchor="start" x="43.5" y="-95.08" font-family="Times New Roman,serif" font-weight="bold" font-size="9.00">Secondary (G)</text>
<polygon fill="none" stroke="black" points="106.75,-84.38 106.75,-109.62 159.75,-109.62 159.75,-84.38 106.75,-84.38"/>
<text text-anchor="start" x="113.75" y="-95.08" font-family="Times New Roman,serif" font-weight="bold" font-size="9.00">Technical</text>
<polygon fill="none" stroke="black" points="35.5,-83.38 35.5,-110.62 160.75,-110.62 160.75,-83.38 35.5,-83.38"/>
</g>
<!-- n_0_4_5&#45;&gt;n_4_5 -->
<g id="edge4" class="edge">
<title>n_0_4_5&#45;&gt;n_4_5</title>
<path fill="none" stroke="black" d="M150.07,-158.22C141,-147.71 129.75,-134.66 120.04,-123.41"/>
<polygon fill="black" stroke="black" points="122.82,-121.28 113.64,-115.99 117.52,-125.85 122.82,-121.28"/>
</g>
<!-- n_0 -->
<g id="node8" class="node">
<title>n_0</title>
<polygon fill="none" stroke="black" points="207.25,-84.38 207.25,-109.62 267,-109.62 267,-84.38 207.25,-84.38"/>
<text text-anchor="start" x="214.25" y="-95.08" font-family="Times New Roman,serif" font-weight="bold" font-size="9.00">Primary (P)</text>
<polygon fill="none" stroke="black" points="206.25,-83.38 206.25,-110.62 268,-110.62 268,-83.38 206.25,-83.38"/>
</g>
<!-- n_0_4_5&#45;&gt;n_0 -->
<g id="edge7" class="edge">
<title>n_0_4_5&#45;&gt;n_0</title>
<path fill="none" stroke="black" d="M184.43,-158.22C193.63,-147.71 205.04,-134.66 214.89,-123.41"/>
<polygon fill="black" stroke="black" points="217.44,-125.81 221.39,-115.98 212.17,-121.2 217.44,-125.81"/>
</g>
<!-- n_4 -->
<g id="node6" class="node">
<title>n_4</title>
<polygon fill="none" stroke="black" points="9,-5.38 9,-30.62 79.25,-30.62 79.25,-5.38 9,-5.38"/>
<text text-anchor="start" x="16" y="-16.07" font-family="Times New Roman,serif" font-weight="bold" font-size="9.00">Secondary (G)</text>
<polygon fill="none" stroke="black" points="8,-4.38 8,-31.62 80.25,-31.62 80.25,-4.38 8,-4.38"/>
</g>
<!-- n_4_5&#45;&gt;n_4 -->
<g id="edge5" class="edge">
<title>n_4_5&#45;&gt;n_4</title>
<path fill="none" stroke="black" d="M86.41,-79.29C79.45,-69.37 70.47,-56.57 62.58,-45.32"/>
<polygon fill="black" stroke="black" points="65.48,-43.36 56.87,-37.18 59.75,-47.38 65.48,-43.36"/>
</g>
<!-- n_5 -->
<g id="node7" class="node">
<title>n_5</title>
<polygon fill="none" stroke="black" points="126.62,-5.38 126.62,-30.62 179.62,-30.62 179.62,-5.38 126.62,-5.38"/>
<text text-anchor="start" x="133.62" y="-16.07" font-family="Times New Roman,serif" font-weight="bold" font-size="9.00">Technical</text>
<polygon fill="none" stroke="black" points="125.62,-4.38 125.62,-31.62 180.62,-31.62 180.62,-4.38 125.62,-4.38"/>
</g>
<!-- n_4_5&#45;&gt;n_5 -->
<g id="edge6" class="edge">
<title>n_4_5&#45;&gt;n_5</title>
<path fill="none" stroke="black" d="M110.06,-79.29C117.22,-69.27 126.47,-56.31 134.57,-44.98"/>
<polygon fill="black" stroke="black" points="137.18,-47.34 140.14,-37.17 131.48,-43.28 137.18,-47.34"/>
</g>
<!-- n_1 -->
<g id="node11" class="node">
<title>n_1</title>
<polygon fill="none" stroke="black" points="414.5,-166.38 414.5,-191.62 475.75,-191.62 475.75,-166.38 414.5,-166.38"/>
<text text-anchor="start" x="421.5" y="-177.07" font-family="Times New Roman,serif" font-weight="bold" font-size="9.00">Primary (G)</text>
<polygon fill="none" stroke="black" points="413.5,-165.38 413.5,-192.62 476.75,-192.62 476.75,-165.38 413.5,-165.38"/>
</g>
<!-- n_1_3&#45;&gt;n_1 -->
<g id="edge10" class="edge">
<title>n_1_3&#45;&gt;n_1</title>
<path fill="none" stroke="black" d="M458.85,-250.63C456.5,-238.52 453.27,-221.94 450.54,-207.88"/>
<polygon fill="black" stroke="black" points="454.02,-207.45 448.68,-198.3 447.15,-208.79 454.02,-207.45"/>
</g>
<!-- n_3 -->
<g id="node12" class="node">
<title>n_3</title>
<polygon fill="none" stroke="black" points="522.75,-166.38 522.75,-191.62 591.5,-191.62 591.5,-166.38 522.75,-166.38"/>
<text text-anchor="start" x="529.75" y="-177.07" font-family="Times New Roman,serif" font-weight="bold" font-size="9.00">Secondary (P)</text>
<polygon fill="none" stroke="black" points="521.75,-165.38 521.75,-192.62 592.5,-192.62 592.5,-165.38 521.75,-165.38"/>
</g>
<!-- n_1_3&#45;&gt;n_3 -->
<g id="edge11" class="edge">
<title>n_1_3&#45;&gt;n_3</title>
<path fill="none" stroke="black" d="M480.44,-250.63C494.64,-237.56 514.51,-219.25 530.46,-204.56"/>
<polygon fill="black" stroke="black" points="532.77,-207.19 537.75,-197.84 528.02,-202.04 532.77,-207.19"/>
</g>
</g>
</svg>
