<?xml version="1.0" encoding="UTF-8" standalone="no"?>
<!DOCTYPE svg PUBLIC "-//W3C//DTD SVG 1.1//EN"
 "http://www.w3.org/Graphics/SVG/1.1/DTD/svg11.dtd">
<!-- Generated by graphviz version 10.0.1 (20240210.2158)
 -->
<!-- Title: ND Pages: 1 -->
<svg width="600pt" height="526pt"
 viewBox="0.00 0.00 600.38 526.00" xmlns="http://www.w3.org/2000/svg" xmlns:xlink="http://www.w3.org/1999/xlink">
<g id="graph0" class="graph" transform="scale(1 1) rotate(0) translate(4 522)">
<title>ND</title>
<polygon fill="white" stroke="none" points="-4,4 -4,-522 596.38,-522 596.38,4 -4,4"/>
<!-- n_0_1_2_3_4_5_6 -->
<g id="node1" class="node">
<title>n_0_1_2_3_4_5_6</title>
<polygon fill="none" stroke="black" points="383.12,-445 383.12,-513 453.38,-513 453.38,-445 383.12,-445"/>
<text text-anchor="start" x="394.62" y="-498.45" font-family="Times New Roman,serif" font-weight="bold" font-size="9.00">Primary (G)</text>
<text text-anchor="start" x="399.12" y="-489.45" font-family="Times New Roman,serif" font-weight="bold" font-size="9.00">Preschool</text>
<text text-anchor="start" x="390.88" y="-480.45" font-family="Times New Roman,serif" font-weight="bold" font-size="9.00">Secondary (P)</text>
<text text-anchor="start" x="390.12" y="-471.45" font-family="Times New Roman,serif" font-weight="bold" font-size="9.00">Secondary (G)</text>
<text text-anchor="start" x="398.75" y="-462.45" font-family="Times New Roman,serif" font-weight="bold" font-size="9.00">Technical</text>
<text text-anchor="start" x="398" y="-453.45" font-family="Times New Roman,serif" font-weight="bold" font-size="9.00">University</text>
<polygon fill="none" stroke="black" points="453.38,-445 453.38,-513 513.12,-513 513.12,-445 453.38,-445"/>
<text text-anchor="start" x="460.38" y="-477.07" font-family="Times New Roman,serif" font-weight="bold" font-size="9.00">Primary (P)</text>
<polygon fill="none" stroke="black" points="382.12,-444 382.12,-514 514.12,-514 514.12,-444 382.12,-444"/>
</g>
<!-- n_1_2_3_4_5_6 -->
<g id="node2" class="node">
<title>n_1_2_3_4_5_6</title>
<polygon fill="none" stroke="black" points="305.62,-342 305.62,-392 375.88,-392 375.88,-342 305.62,-342"/>
<text text-anchor="start" x="317.12" y="-377.45" font-family="Times New Roman,serif" font-weight="bold" font-size="9.00">Primary (G)</text>
<text text-anchor="start" x="321.62" y="-368.45" font-family="Times New Roman,serif" font-weight="bold" font-size="9.00">Preschool</text>
<text text-anchor="start" x="312.62" y="-359.45" font-family="Times New Roman,serif" font-weight="bold" font-size="9.00">Secondary (G)</text>
<text text-anchor="start" x="321.25" y="-350.45" font-family="Times New Roman,serif" font-weight="bold" font-size="9.00">Technical</text>
<polygon fill="none" stroke="black" points="375.88,-342 375.88,-392 444.62,-392 444.62,-342 375.88,-342"/>
<text text-anchor="start" x="382.88" y="-368.45" font-family="Times New Roman,serif" font-weight="bold" font-size="9.00">Secondary (P)</text>
<text text-anchor="start" x="390" y="-359.45" font-family="Times New Roman,serif" font-weight="bold" font-size="9.00">University</text>
<polygon fill="none" stroke="black" points="304.62,-341 304.62,-393 445.62,-393 445.62,-341 304.62,-341"/>
</g>
<!-- n_0_1_2_3_4_5_6&#45;&gt;n_1_2_3_4_5_6 -->
<g id="edge1" class="edge">
<title>n_0_1_2_3_4_5_6&#45;&gt;n_1_2_3_4_5_6</title>
<path fill="none" stroke="black" d="M423,-440.14C415.73,-429.19 407.79,-417.22 400.5,-406.23"/>
<polygon fill="black" stroke="black" points="403.58,-404.55 395.13,-398.15 397.75,-408.42 403.58,-404.55"/>
</g>
<!-- n_0 -->
<g id="node13" class="node">
<title>n_0</title>
<polygon fill="none" stroke="black" points="491.25,-354.38 491.25,-379.62 551,-379.62 551,-354.38 491.25,-354.38"/>
<text text-anchor="start" x="498.25" y="-365.07" font-family="Times New Roman,serif" font-weight="bold" font-size="9.00">Primary (P)</text>
<polygon fill="none" stroke="black" points="490.25,-353.38 490.25,-380.62 552,-380.62 552,-353.38 490.25,-353.38"/>
</g>
<!-- n_0_1_2_3_4_5_6&#45;&gt;n_0 -->
<g id="edge12" class="edge">
<title>n_0_1_2_3_4_5_6&#45;&gt;n_0</title>
<path fill="none" stroke="black" d="M473.25,-440.14C483.27,-425.04 494.56,-408.02 503.67,-394.31"/>
<polygon fill="black" stroke="black" points="506.4,-396.51 509.02,-386.24 500.57,-392.64 506.4,-396.51"/>
</g>
<!-- n_1_2_4_5 -->
<g id="node3" class="node">
<title>n_1_2_4_5</title>
<polygon fill="none" stroke="black" points="222.38,-248 222.38,-289 292.62,-289 292.62,-248 222.38,-248"/>
<text text-anchor="start" x="238.38" y="-274.45" font-family="Times New Roman,serif" font-weight="bold" font-size="9.00">Preschool</text>
<text text-anchor="start" x="229.38" y="-265.45" font-family="Times New Roman,serif" font-weight="bold" font-size="9.00">Secondary (G)</text>
<text text-anchor="start" x="238" y="-256.45" font-family="Times New Roman,serif" font-weight="bold" font-size="9.00">Technical</text>
<polygon fill="none" stroke="black" points="292.62,-248 292.62,-289 353.88,-289 353.88,-248 292.62,-248"/>
<text text-anchor="start" x="299.62" y="-266.57" font-family="Times New Roman,serif" font-weight="bold" font-size="9.00">Primary (G)</text>
<polygon fill="none" stroke="black" points="221.38,-247 221.38,-290 354.88,-290 354.88,-247 221.38,-247"/>
</g>
<!-- n_1_2_3_4_5_6&#45;&gt;n_1_2_4_5 -->
<g id="edge2" class="edge">
<title>n_1_2_3_4_5_6&#45;&gt;n_1_2_4_5</title>
<path fill="none" stroke="black" d="M349.02,-337.05C339.13,-326.08 327.8,-313.51 317.62,-302.22"/>
<polygon fill="black" stroke="black" points="320.41,-300.08 311.11,-295 315.21,-304.77 320.41,-300.08"/>
</g>
<!-- n_3_6 -->
<g id="node10" class="node">
<title>n_3_6</title>
<polygon fill="none" stroke="black" points="400.5,-255.88 400.5,-281.12 469.25,-281.12 469.25,-255.88 400.5,-255.88"/>
<text text-anchor="start" x="407.5" y="-266.57" font-family="Times New Roman,serif" font-weight="bold" font-size="9.00">Secondary (P)</text>
<polygon fill="none" stroke="black" points="469.25,-255.88 469.25,-281.12 523.75,-281.12 523.75,-255.88 469.25,-255.88"/>
<text text-anchor="start" x="476.25" y="-266.57" font-family="Times New Roman,serif" font-weight="bold" font-size="9.00">University</text>
<polygon fill="none" stroke="black" points="399.5,-254.88 399.5,-282.12 524.75,-282.12 524.75,-254.88 399.5,-254.88"/>
</g>
<!-- n_1_2_3_4_5_6&#45;&gt;n_3_6 -->
<g id="edge9" class="edge">
<title>n_1_2_3_4_5_6&#45;&gt;n_3_6</title>
<path fill="none" stroke="black" d="M401.23,-337.05C413.35,-323.6 427.62,-307.77 439.3,-294.81"/>
<polygon fill="black" stroke="black" points="441.81,-297.26 445.91,-287.49 436.61,-292.57 441.81,-297.26"/>
</g>
<!-- n_2_4_5 -->
<g id="node4" class="node">
<title>n_2_4_5</title>
<polygon fill="none" stroke="black" points="103.88,-163 103.88,-195 174.12,-195 174.12,-163 103.88,-163"/>
<text text-anchor="start" x="110.88" y="-180.45" font-family="Times New Roman,serif" font-weight="bold" font-size="9.00">Secondary (G)</text>
<text text-anchor="start" x="119.5" y="-171.45" font-family="Times New Roman,serif" font-weight="bold" font-size="9.00">Technical</text>
<polygon fill="none" stroke="black" points="174.12,-163 174.12,-195 226.38,-195 226.38,-163 174.12,-163"/>
<text text-anchor="start" x="181.12" y="-177.07" font-family="Times New Roman,serif" font-weight="bold" font-size="9.00">Preschool</text>
<polygon fill="none" stroke="black" points="102.88,-162 102.88,-196 227.38,-196 227.38,-162 102.88,-162"/>
</g>
<!-- n_1_2_4_5&#45;&gt;n_2_4_5 -->
<g id="edge3" class="edge">
<title>n_1_2_4_5&#45;&gt;n_2_4_5</title>
<path fill="none" stroke="black" d="M253.86,-243.13C237.82,-231.71 218.68,-218.1 202.28,-206.43"/>
<polygon fill="black" stroke="black" points="204.41,-203.65 194.23,-200.7 200.35,-209.35 204.41,-203.65"/>
</g>
<!-- n_1 -->
<g id="node9" class="node">
<title>n_1</title>
<polygon fill="none" stroke="black" points="273.5,-166.38 273.5,-191.62 334.75,-191.62 334.75,-166.38 273.5,-166.38"/>
<text text-anchor="start" x="280.5" y="-177.07" font-family="Times New Roman,serif" font-weight="bold" font-size="9.00">Primary (G)</text>
<polygon fill="none" stroke="black" points="272.5,-165.38 272.5,-192.62 335.75,-192.62 335.75,-165.38 272.5,-165.38"/>
</g>
<!-- n_1_2_4_5&#45;&gt;n_1 -->
<g id="edge8" class="edge">
<title>n_1_2_4_5&#45;&gt;n_1</title>
<path fill="none" stroke="black" d="M292.58,-243.13C294.59,-232.17 296.96,-219.18 299.04,-207.84"/>
<polygon fill="black" stroke="black" points="302.43,-208.73 300.79,-198.26 295.54,-207.47 302.43,-208.73"/>
</g>
<!-- n_4_5 -->
<g id="node5" class="node">
<title>n_4_5</title>
<polygon fill="none" stroke="black" points="36.5,-84.38 36.5,-109.62 106.75,-109.62 106.75,-84.38 36.5,-84.38"/>
<text text-anchor="start" x="43.5" y="-95.08" font-family="Times New Roman,serif" font-weight="bold" font-size="9.00">Secondary (G)</text>
<polygon fill="none" stroke="black" points="106.75,-84.38 106.75,-109.62 159.75,-109.62 159.75,-84.38 106.75,-84.38"/>
<text text-anchor="start" x="113.75" y="-95.08" font-family="Times New Roman,serif" font-weight="bold" font-size="9.00">Technical</text>
<polygon fill="none" stroke="black" points="35.5,-83.38 35.5,-110.62 160.75,-110.62 160.75,-83.38 35.5,-83.38"/>
</g>
<!-- n_2_4_5&#45;&gt;n_4_5 -->
<g id="edge4" class="edge">
<title>n_2_4_5&#45;&gt;n_4_5</title>
<path fill="none" stroke="black" d="M148.56,-158.22C139.76,-147.71 128.83,-134.66 119.4,-123.41"/>
<polygon fill="black" stroke="black" points="122.31,-121.42 113.2,-116 116.94,-125.92 122.31,-121.42"/>
</g>
<!-- n_2 -->
<g id="node8" class="node">
<title>n_2</title>
<polygon fill="none" stroke="black" points="207,-84.38 207,-109.62 259.25,-109.62 259.25,-84.38 207,-84.38"/>
<text text-anchor="start" x="214" y="-95.08" font-family="Times New Roman,serif" font-weight="bold" font-size="9.00">Preschool</text>
<polygon fill="none" stroke="black" points="206,-83.38 206,-110.62 260.25,-110.62 260.25,-83.38 206,-83.38"/>
</g>
<!-- n_2_4_5&#45;&gt;n_2 -->
<g id="edge7" class="edge">
<title>n_2_4_5&#45;&gt;n_2</title>
<path fill="none" stroke="black" d="M181.93,-158.22C190.87,-147.71 201.96,-134.66 211.53,-123.41"/>
<polygon fill="black" stroke="black" points="214.02,-125.88 217.83,-116 208.68,-121.35 214.02,-125.88"/>
</g>
<!-- n_4 -->
<g id="node6" class="node">
<title>n_4</title>
<polygon fill="none" stroke="black" points="9,-5.38 9,-30.62 79.25,-30.62 79.25,-5.38 9,-5.38"/>
<text text-anchor="start" x="16" y="-16.07" font-family="Times New Roman,serif" font-weight="bold" font-size="9.00">Secondary (G)</text>
<polygon fill="none" stroke="black" points="8,-4.38 8,-31.62 80.25,-31.62 80.25,-4.38 8,-4.38"/>
</g>
<!-- n_4_5&#45;&gt;n_4 -->
<g id="edge5" class="edge">
<title>n_4_5&#45;&gt;n_4</title>
<path fill="none" stroke="black" d="M86.41,-79.29C79.45,-69.37 70.47,-56.57 62.58,-45.32"/>
<polygon fill="black" stroke="black" points="65.48,-43.36 56.87,-37.18 59.75,-47.38 65.48,-43.36"/>
</g>
<!-- n_5 -->
<g id="node7" class="node">
<title>n_5</title>
<polygon fill="none" stroke="black" points="126.62,-5.38 126.62,-30.62 179.62,-30.62 179.62,-5.38 126.62,-5.38"/>
<text text-anchor="start" x="133.62" y="-16.07" font-family="Times New Roman,serif" font-weight="bold" font-size="9.00">Technical</text>
<polygon fill="none" stroke="black" points="125.62,-4.38 125.62,-31.62 180.62,-31.62 180.62,-4.38 125.62,-4.38"/>
</g>
<!-- n_4_5&#45;&gt;n_5 -->
<g id="edge6" class="edge">
<title>n_4_5&#45;&gt;n_5</title>
<path fill="none" stroke="black" d="M110.06,-79.29C117.22,-69.27 126.47,-56.31 134.57,-44.98"/>
<polygon fill="black" stroke="black" points="137.18,-47.34 140.14,-37.17 131.48,-43.28 137.18,-47.34"/>
</g>
<!-- n_3 -->
<g id="node11" class="node">
<title>n_3</title>
<polygon fill="none" stroke="black" points="412.75,-166.38 412.75,-191.62 481.5,-191.62 481.5,-166.38 412.75,-166.38"/>
<text text-anchor="start" x="419.75" y="-177.07" font-family="Times New Roman,serif" font-weight="bold" font-size="9.00">Secondary (P)</text>
<polygon fill="none" stroke="black" points="411.75,-165.38 411.75,-192.62 482.5,-192.62 482.5,-165.38 411.75,-165.38"/>
</g>
<!-- n_3_6&#45;&gt;n_3 -->
<g id="edge10" class="edge">
<title>n_3_6&#45;&gt;n_3</title>
<path fill="none" stroke="black" d="M459.23,-250.63C457.16,-238.52 454.31,-221.94 451.9,-207.88"/>
<polygon fill="black" stroke="black" points="455.4,-207.58 450.26,-198.31 448.5,-208.76 455.4,-207.58"/>
</g>
<!-- n_6 -->
<g id="node12" class="node">
<title>n_6</title>
<polygon fill="none" stroke="black" points="528.88,-166.38 528.88,-191.62 583.38,-191.62 583.38,-166.38 528.88,-166.38"/>
<text text-anchor="start" x="535.88" y="-177.07" font-family="Times New Roman,serif" font-weight="bold" font-size="9.00">University</text>
<polygon fill="none" stroke="black" points="527.88,-165.38 527.88,-192.62 584.38,-192.62 584.38,-165.38 527.88,-165.38"/>
</g>
<!-- n_3_6&#45;&gt;n_6 -->
<g id="edge11" class="edge">
<title>n_3_6&#45;&gt;n_6</title>
<path fill="none" stroke="black" d="M480.25,-250.63C494.29,-237.56 513.95,-219.25 529.74,-204.56"/>
<polygon fill="black" stroke="black" points="532.01,-207.23 536.95,-197.85 527.24,-202.1 532.01,-207.23"/>
</g>
</g>
</svg>
