<?xml version="1.0" encoding="UTF-8" standalone="no"?>
<!DOCTYPE svg PUBLIC "-//W3C//DTD SVG 1.1//EN"
 "http://www.w3.org/Graphics/SVG/1.1/DTD/svg11.dtd">
<!-- Generated by graphviz version 10.0.1 (20240210.2158)
 -->
<!-- Title: ND Pages: 1 -->
<svg width="694pt" height="414pt"
 viewBox="0.00 0.00 694.00 414.00" xmlns="http://www.w3.org/2000/svg" xmlns:xlink="http://www.w3.org/1999/xlink">
<g id="graph0" class="graph" transform="scale(1 1) rotate(0) translate(4 410)">
<title>ND</title>
<polygon fill="white" stroke="none" points="-4,4 -4,-410 690,-410 690,4 -4,4"/>
<!-- n_0_1_2_3_4_5_6 -->
<g id="node1" class="node">
<title>n_0_1_2_3_4_5_6</title>
<polygon fill="none" stroke="black" points="382.12,-342 382.12,-401 443.38,-401 443.38,-342 382.12,-342"/>
<text text-anchor="start" x="389.88" y="-386.45" font-family="Times New Roman,serif" font-weight="bold" font-size="9.00">Primary (P)</text>
<text text-anchor="start" x="389.12" y="-377.45" font-family="Times New Roman,serif" font-weight="bold" font-size="9.00">Primary (G)</text>
<text text-anchor="start" x="393.62" y="-368.45" font-family="Times New Roman,serif" font-weight="bold" font-size="9.00">Preschool</text>
<text text-anchor="start" x="393.25" y="-359.45" font-family="Times New Roman,serif" font-weight="bold" font-size="9.00">Technical</text>
<text text-anchor="start" x="392.5" y="-350.45" font-family="Times New Roman,serif" font-weight="bold" font-size="9.00">University</text>
<polygon fill="none" stroke="black" points="443.38,-342 443.38,-401 513.62,-401 513.62,-342 443.38,-342"/>
<text text-anchor="start" x="451.12" y="-372.95" font-family="Times New Roman,serif" font-weight="bold" font-size="9.00">Secondary (P)</text>
<text text-anchor="start" x="450.38" y="-363.95" font-family="Times New Roman,serif" font-weight="bold" font-size="9.00">Secondary (G)</text>
<polygon fill="none" stroke="black" points="381.12,-341 381.12,-402 514.62,-402 514.62,-341 381.12,-341"/>
</g>
<!-- n_0_1_2_5_6 -->
<g id="node2" class="node">
<title>n_0_1_2_5_6</title>
<polygon fill="none" stroke="black" points="303.75,-248 303.75,-289 365,-289 365,-248 303.75,-248"/>
<text text-anchor="start" x="311.5" y="-274.45" font-family="Times New Roman,serif" font-weight="bold" font-size="9.00">Primary (P)</text>
<text text-anchor="start" x="310.75" y="-265.45" font-family="Times New Roman,serif" font-weight="bold" font-size="9.00">Primary (G)</text>
<text text-anchor="start" x="314.12" y="-256.45" font-family="Times New Roman,serif" font-weight="bold" font-size="9.00">University</text>
<polygon fill="none" stroke="black" points="365,-248 365,-289 418,-289 418,-248 365,-248"/>
<text text-anchor="start" x="372.38" y="-269.95" font-family="Times New Roman,serif" font-weight="bold" font-size="9.00">Preschool</text>
<text text-anchor="start" x="372" y="-260.95" font-family="Times New Roman,serif" font-weight="bold" font-size="9.00">Technical</text>
<polygon fill="none" stroke="black" points="302.75,-247 302.75,-290 419,-290 419,-247 302.75,-247"/>
</g>
<!-- n_0_1_2_3_4_5_6&#45;&gt;n_0_1_2_5_6 -->
<g id="edge1" class="edge">
<title>n_0_1_2_3_4_5_6&#45;&gt;n_0_1_2_5_6</title>
<path fill="none" stroke="black" d="M419.15,-337.15C409.54,-326 398.84,-313.58 389.26,-302.45"/>
<polygon fill="black" stroke="black" points="392.02,-300.3 382.85,-295.01 386.72,-304.87 392.02,-300.3"/>
</g>
<!-- n_3_4 -->
<g id="node11" class="node">
<title>n_3_4</title>
<polygon fill="none" stroke="black" points="465.38,-255.88 465.38,-281.12 534.12,-281.12 534.12,-255.88 465.38,-255.88"/>
<text text-anchor="start" x="472.38" y="-266.57" font-family="Times New Roman,serif" font-weight="bold" font-size="9.00">Secondary (P)</text>
<polygon fill="none" stroke="black" points="534.12,-255.88 534.12,-281.12 604.38,-281.12 604.38,-255.88 534.12,-255.88"/>
<text text-anchor="start" x="541.12" y="-266.57" font-family="Times New Roman,serif" font-weight="bold" font-size="9.00">Secondary (G)</text>
<polygon fill="none" stroke="black" points="464.38,-254.88 464.38,-282.12 605.38,-282.12 605.38,-254.88 464.38,-254.88"/>
</g>
<!-- n_0_1_2_3_4_5_6&#45;&gt;n_3_4 -->
<g id="edge10" class="edge">
<title>n_0_1_2_3_4_5_6&#45;&gt;n_3_4</title>
<path fill="none" stroke="black" d="M476.6,-337.15C488.51,-323.33 502.08,-307.57 513.14,-294.74"/>
<polygon fill="black" stroke="black" points="515.47,-297.39 519.35,-287.53 510.17,-292.82 515.47,-297.39"/>
</g>
<!-- n_0_1_6 -->
<g id="node3" class="node">
<title>n_0_1_6</title>
<polygon fill="none" stroke="black" points="155,-163 155,-195 216.25,-195 216.25,-163 155,-163"/>
<text text-anchor="start" x="162.75" y="-180.45" font-family="Times New Roman,serif" font-weight="bold" font-size="9.00">Primary (P)</text>
<text text-anchor="start" x="162" y="-171.45" font-family="Times New Roman,serif" font-weight="bold" font-size="9.00">Primary (G)</text>
<polygon fill="none" stroke="black" points="216.25,-163 216.25,-195 270.75,-195 270.75,-163 216.25,-163"/>
<text text-anchor="start" x="223.25" y="-177.07" font-family="Times New Roman,serif" font-weight="bold" font-size="9.00">University</text>
<polygon fill="none" stroke="black" points="154,-162 154,-196 271.75,-196 271.75,-162 154,-162"/>
</g>
<!-- n_0_1_2_5_6&#45;&gt;n_0_1_6 -->
<g id="edge2" class="edge">
<title>n_0_1_2_5_6&#45;&gt;n_0_1_6</title>
<path fill="none" stroke="black" d="M319.65,-243.13C299.89,-231.45 276.23,-217.46 256.21,-205.62"/>
<polygon fill="black" stroke="black" points="258.1,-202.67 247.71,-200.6 254.54,-208.7 258.1,-202.67"/>
</g>
<!-- n_2_5 -->
<g id="node8" class="node">
<title>n_2_5</title>
<polygon fill="none" stroke="black" points="318.25,-166.38 318.25,-191.62 370.5,-191.62 370.5,-166.38 318.25,-166.38"/>
<text text-anchor="start" x="325.25" y="-177.07" font-family="Times New Roman,serif" font-weight="bold" font-size="9.00">Preschool</text>
<polygon fill="none" stroke="black" points="370.5,-166.38 370.5,-191.62 423.5,-191.62 423.5,-166.38 370.5,-166.38"/>
<text text-anchor="start" x="377.5" y="-177.07" font-family="Times New Roman,serif" font-weight="bold" font-size="9.00">Technical</text>
<polygon fill="none" stroke="black" points="317.25,-165.38 317.25,-192.62 424.5,-192.62 424.5,-165.38 317.25,-165.38"/>
</g>
<!-- n_0_1_2_5_6&#45;&gt;n_2_5 -->
<g id="edge7" class="edge">
<title>n_0_1_2_5_6&#45;&gt;n_2_5</title>
<path fill="none" stroke="black" d="M363.66,-243.13C364.9,-232.28 366.37,-219.45 367.65,-208.19"/>
<polygon fill="black" stroke="black" points="371.13,-208.61 368.79,-198.27 364.17,-207.81 371.13,-208.61"/>
</g>
<!-- n_0_1 -->
<g id="node4" class="node">
<title>n_0_1</title>
<polygon fill="none" stroke="black" points="32.38,-84.38 32.38,-109.62 92.12,-109.62 92.12,-84.38 32.38,-84.38"/>
<text text-anchor="start" x="39.38" y="-95.08" font-family="Times New Roman,serif" font-weight="bold" font-size="9.00">Primary (P)</text>
<polygon fill="none" stroke="black" points="92.12,-84.38 92.12,-109.62 153.38,-109.62 153.38,-84.38 92.12,-84.38"/>
<text text-anchor="start" x="99.12" y="-95.08" font-family="Times New Roman,serif" font-weight="bold" font-size="9.00">Primary (G)</text>
<polygon fill="none" stroke="black" points="31.38,-83.38 31.38,-110.62 154.38,-110.62 154.38,-83.38 31.38,-83.38"/>
</g>
<!-- n_0_1_6&#45;&gt;n_0_1 -->
<g id="edge3" class="edge">
<title>n_0_1_6&#45;&gt;n_0_1</title>
<path fill="none" stroke="black" d="M182.9,-158.02C166.03,-146.77 144.9,-132.68 127.35,-120.98"/>
<polygon fill="black" stroke="black" points="129.53,-118.23 119.27,-115.6 125.65,-124.06 129.53,-118.23"/>
</g>
<!-- n_6 -->
<g id="node7" class="node">
<title>n_6</title>
<polygon fill="none" stroke="black" points="200.62,-84.38 200.62,-109.62 255.12,-109.62 255.12,-84.38 200.62,-84.38"/>
<text text-anchor="start" x="207.62" y="-95.08" font-family="Times New Roman,serif" font-weight="bold" font-size="9.00">University</text>
<polygon fill="none" stroke="black" points="199.62,-83.38 199.62,-110.62 256.12,-110.62 256.12,-83.38 199.62,-83.38"/>
</g>
<!-- n_0_1_6&#45;&gt;n_6 -->
<g id="edge6" class="edge">
<title>n_0_1_6&#45;&gt;n_6</title>
<path fill="none" stroke="black" d="M216.58,-158.22C218.4,-148.54 220.62,-136.72 222.6,-126.11"/>
<polygon fill="black" stroke="black" points="226.03,-126.81 224.44,-116.33 219.15,-125.52 226.03,-126.81"/>
</g>
<!-- n_0 -->
<g id="node5" class="node">
<title>n_0</title>
<polygon fill="none" stroke="black" points="9,-5.38 9,-30.62 68.75,-30.62 68.75,-5.38 9,-5.38"/>
<text text-anchor="start" x="16" y="-16.07" font-family="Times New Roman,serif" font-weight="bold" font-size="9.00">Primary (P)</text>
<polygon fill="none" stroke="black" points="8,-4.38 8,-31.62 69.75,-31.62 69.75,-4.38 8,-4.38"/>
</g>
<!-- n_0_1&#45;&gt;n_0 -->
<g id="edge4" class="edge">
<title>n_0_1&#45;&gt;n_0</title>
<path fill="none" stroke="black" d="M81.16,-79.29C74.2,-69.37 65.22,-56.57 57.33,-45.32"/>
<polygon fill="black" stroke="black" points="60.23,-43.36 51.62,-37.18 54.5,-47.38 60.23,-43.36"/>
</g>
<!-- n_1 -->
<g id="node6" class="node">
<title>n_1</title>
<polygon fill="none" stroke="black" points="116.25,-5.38 116.25,-30.62 177.5,-30.62 177.5,-5.38 116.25,-5.38"/>
<text text-anchor="start" x="123.25" y="-16.07" font-family="Times New Roman,serif" font-weight="bold" font-size="9.00">Primary (G)</text>
<polygon fill="none" stroke="black" points="115.25,-4.38 115.25,-31.62 178.5,-31.62 178.5,-4.38 115.25,-4.38"/>
</g>
<!-- n_0_1&#45;&gt;n_1 -->
<g id="edge5" class="edge">
<title>n_0_1&#45;&gt;n_1</title>
<path fill="none" stroke="black" d="M104.59,-79.29C111.55,-69.37 120.53,-56.57 128.42,-45.32"/>
<polygon fill="black" stroke="black" points="131.25,-47.38 134.13,-37.18 125.52,-43.36 131.25,-47.38"/>
</g>
<!-- n_2 -->
<g id="node9" class="node">
<title>n_2</title>
<polygon fill="none" stroke="black" points="330.75,-84.38 330.75,-109.62 383,-109.62 383,-84.38 330.75,-84.38"/>
<text text-anchor="start" x="337.75" y="-95.08" font-family="Times New Roman,serif" font-weight="bold" font-size="9.00">Preschool</text>
<polygon fill="none" stroke="black" points="329.75,-83.38 329.75,-110.62 384,-110.62 384,-83.38 329.75,-83.38"/>
</g>
<!-- n_2_5&#45;&gt;n_2 -->
<g id="edge8" class="edge">
<title>n_2_5&#45;&gt;n_2</title>
<path fill="none" stroke="black" d="M367.91,-161.03C366.12,-150.85 363.81,-137.65 361.77,-125.96"/>
<polygon fill="black" stroke="black" points="365.27,-125.68 360.1,-116.43 358.38,-126.89 365.27,-125.68"/>
</g>
<!-- n_5 -->
<g id="node10" class="node">
<title>n_5</title>
<polygon fill="none" stroke="black" points="430.38,-84.38 430.38,-109.62 483.38,-109.62 483.38,-84.38 430.38,-84.38"/>
<text text-anchor="start" x="437.38" y="-95.08" font-family="Times New Roman,serif" font-weight="bold" font-size="9.00">Technical</text>
<polygon fill="none" stroke="black" points="429.38,-83.38 429.38,-110.62 484.38,-110.62 484.38,-83.38 429.38,-83.38"/>
</g>
<!-- n_2_5&#45;&gt;n_5 -->
<g id="edge9" class="edge">
<title>n_2_5&#45;&gt;n_5</title>
<path fill="none" stroke="black" d="M389.11,-161.03C401.09,-149.9 416.94,-135.15 430.31,-122.71"/>
<polygon fill="black" stroke="black" points="432.62,-125.35 437.55,-115.97 427.85,-120.22 432.62,-125.35"/>
</g>
<!-- n_3 -->
<g id="node12" class="node">
<title>n_3</title>
<polygon fill="none" stroke="black" points="490.5,-166.38 490.5,-191.62 559.25,-191.62 559.25,-166.38 490.5,-166.38"/>
<text text-anchor="start" x="497.5" y="-177.07" font-family="Times New Roman,serif" font-weight="bold" font-size="9.00">Secondary (P)</text>
<polygon fill="none" stroke="black" points="489.5,-165.38 489.5,-192.62 560.25,-192.62 560.25,-165.38 489.5,-165.38"/>
</g>
<!-- n_3_4&#45;&gt;n_3 -->
<g id="edge11" class="edge">
<title>n_3_4&#45;&gt;n_3</title>
<path fill="none" stroke="black" d="M532.95,-250.63C531.56,-238.52 529.67,-221.94 528.06,-207.88"/>
<polygon fill="black" stroke="black" points="531.58,-207.86 526.97,-198.32 524.63,-208.66 531.58,-207.86"/>
</g>
<!-- n_4 -->
<g id="node13" class="node">
<title>n_4</title>
<polygon fill="none" stroke="black" points="606.75,-166.38 606.75,-191.62 677,-191.62 677,-166.38 606.75,-166.38"/>
<text text-anchor="start" x="613.75" y="-177.07" font-family="Times New Roman,serif" font-weight="bold" font-size="9.00">Secondary (G)</text>
<polygon fill="none" stroke="black" points="605.75,-165.38 605.75,-192.62 678,-192.62 678,-165.38 605.75,-165.38"/>
</g>
<!-- n_3_4&#45;&gt;n_4 -->
<g id="edge12" class="edge">
<title>n_3_4&#45;&gt;n_4</title>
<path fill="none" stroke="black" d="M555.51,-250.63C571.79,-237.31 594.7,-218.57 612.84,-203.74"/>
<polygon fill="black" stroke="black" points="614.61,-206.82 620.14,-197.78 610.18,-201.4 614.61,-206.82"/>
</g>
</g>
</svg>
