<?xml version="1.0" encoding="UTF-8" standalone="no"?>
<!DOCTYPE svg PUBLIC "-//W3C//DTD SVG 1.1//EN"
 "http://www.w3.org/Graphics/SVG/1.1/DTD/svg11.dtd">
<!-- Generated by graphviz version 10.0.1 (20240210.2158)
 -->
<!-- Title: ND Pages: 1 -->
<svg width="588pt" height="526pt"
 viewBox="0.00 0.00 588.38 526.00" xmlns="http://www.w3.org/2000/svg" xmlns:xlink="http://www.w3.org/1999/xlink">
<g id="graph0" class="graph" transform="scale(1 1) rotate(0) translate(4 522)">
<title>ND</title>
<polygon fill="white" stroke="none" points="-4,4 -4,-522 584.38,-522 584.38,4 -4,4"/>
<!-- n_0_1_2_3_4_5_6 -->
<g id="node1" class="node">
<title>n_0_1_2_3_4_5_6</title>
<polygon fill="none" stroke="black" points="373.12,-445 373.12,-513 443.38,-513 443.38,-445 373.12,-445"/>
<text text-anchor="start" x="385.38" y="-498.45" font-family="Times New Roman,serif" font-weight="bold" font-size="9.00">Primary (P)</text>
<text text-anchor="start" x="389.12" y="-489.45" font-family="Times New Roman,serif" font-weight="bold" font-size="9.00">Preschool</text>
<text text-anchor="start" x="380.88" y="-480.45" font-family="Times New Roman,serif" font-weight="bold" font-size="9.00">Secondary (P)</text>
<text text-anchor="start" x="380.12" y="-471.45" font-family="Times New Roman,serif" font-weight="bold" font-size="9.00">Secondary (G)</text>
<text text-anchor="start" x="388.75" y="-462.45" font-family="Times New Roman,serif" font-weight="bold" font-size="9.00">Technical</text>
<text text-anchor="start" x="388" y="-453.45" font-family="Times New Roman,serif" font-weight="bold" font-size="9.00">University</text>
<polygon fill="none" stroke="black" points="443.38,-445 443.38,-513 504.62,-513 504.62,-445 443.38,-445"/>
<text text-anchor="start" x="450.38" y="-477.07" font-family="Times New Roman,serif" font-weight="bold" font-size="9.00">Primary (G)</text>
<polygon fill="none" stroke="black" points="372.12,-444 372.12,-514 505.62,-514 505.62,-444 372.12,-444"/>
</g>
<!-- n_0_2_3_4_5_6 -->
<g id="node2" class="node">
<title>n_0_2_3_4_5_6</title>
<polygon fill="none" stroke="black" points="296.38,-342 296.38,-392 365.12,-392 365.12,-342 296.38,-342"/>
<text text-anchor="start" x="307.88" y="-377.45" font-family="Times New Roman,serif" font-weight="bold" font-size="9.00">Primary (P)</text>
<text text-anchor="start" x="311.62" y="-368.45" font-family="Times New Roman,serif" font-weight="bold" font-size="9.00">Preschool</text>
<text text-anchor="start" x="303.38" y="-359.45" font-family="Times New Roman,serif" font-weight="bold" font-size="9.00">Secondary (P)</text>
<text text-anchor="start" x="310.5" y="-350.45" font-family="Times New Roman,serif" font-weight="bold" font-size="9.00">University</text>
<polygon fill="none" stroke="black" points="365.12,-342 365.12,-392 435.38,-392 435.38,-342 365.12,-342"/>
<text text-anchor="start" x="372.12" y="-368.45" font-family="Times New Roman,serif" font-weight="bold" font-size="9.00">Secondary (G)</text>
<text text-anchor="start" x="380.75" y="-359.45" font-family="Times New Roman,serif" font-weight="bold" font-size="9.00">Technical</text>
<polygon fill="none" stroke="black" points="295.38,-341 295.38,-393 436.38,-393 436.38,-341 295.38,-341"/>
</g>
<!-- n_0_1_2_3_4_5_6&#45;&gt;n_0_2_3_4_5_6 -->
<g id="edge1" class="edge">
<title>n_0_1_2_3_4_5_6&#45;&gt;n_0_2_3_4_5_6</title>
<path fill="none" stroke="black" d="M413.75,-440.14C406.48,-429.19 398.54,-417.22 391.25,-406.23"/>
<polygon fill="black" stroke="black" points="394.33,-404.55 385.88,-398.15 388.5,-408.42 394.33,-404.55"/>
</g>
<!-- n_1 -->
<g id="node13" class="node">
<title>n_1</title>
<polygon fill="none" stroke="black" points="482.25,-354.38 482.25,-379.62 543.5,-379.62 543.5,-354.38 482.25,-354.38"/>
<text text-anchor="start" x="489.25" y="-365.07" font-family="Times New Roman,serif" font-weight="bold" font-size="9.00">Primary (G)</text>
<polygon fill="none" stroke="black" points="481.25,-353.38 481.25,-380.62 544.5,-380.62 544.5,-353.38 481.25,-353.38"/>
</g>
<!-- n_0_1_2_3_4_5_6&#45;&gt;n_1 -->
<g id="edge12" class="edge">
<title>n_0_1_2_3_4_5_6&#45;&gt;n_1</title>
<path fill="none" stroke="black" d="M464.34,-440.14C474.5,-425.04 485.95,-408.02 495.18,-394.31"/>
<polygon fill="black" stroke="black" points="497.93,-396.49 500.61,-386.24 492.12,-392.58 497.93,-396.49"/>
</g>
<!-- n_0_2_3_6 -->
<g id="node3" class="node">
<title>n_0_2_3_6</title>
<polygon fill="none" stroke="black" points="221.38,-248 221.38,-289 290.12,-289 290.12,-248 221.38,-248"/>
<text text-anchor="start" x="232.88" y="-274.45" font-family="Times New Roman,serif" font-weight="bold" font-size="9.00">Primary (P)</text>
<text text-anchor="start" x="228.38" y="-265.45" font-family="Times New Roman,serif" font-weight="bold" font-size="9.00">Secondary (P)</text>
<text text-anchor="start" x="235.5" y="-256.45" font-family="Times New Roman,serif" font-weight="bold" font-size="9.00">University</text>
<polygon fill="none" stroke="black" points="290.12,-248 290.12,-289 342.38,-289 342.38,-248 290.12,-248"/>
<text text-anchor="start" x="297.12" y="-266.57" font-family="Times New Roman,serif" font-weight="bold" font-size="9.00">Preschool</text>
<polygon fill="none" stroke="black" points="220.38,-247 220.38,-290 343.38,-290 343.38,-247 220.38,-247"/>
</g>
<!-- n_0_2_3_4_5_6&#45;&gt;n_0_2_3_6 -->
<g id="edge2" class="edge">
<title>n_0_2_3_4_5_6&#45;&gt;n_0_2_3_6</title>
<path fill="none" stroke="black" d="M340.67,-337.05C331.22,-326.18 320.4,-313.76 310.64,-302.55"/>
<polygon fill="black" stroke="black" points="313.29,-300.26 304.09,-295.02 308.01,-304.86 313.29,-300.26"/>
</g>
<!-- n_4_5 -->
<g id="node10" class="node">
<title>n_4_5</title>
<polygon fill="none" stroke="black" points="389.25,-255.88 389.25,-281.12 459.5,-281.12 459.5,-255.88 389.25,-255.88"/>
<text text-anchor="start" x="396.25" y="-266.57" font-family="Times New Roman,serif" font-weight="bold" font-size="9.00">Secondary (G)</text>
<polygon fill="none" stroke="black" points="459.5,-255.88 459.5,-281.12 512.5,-281.12 512.5,-255.88 459.5,-255.88"/>
<text text-anchor="start" x="466.5" y="-266.57" font-family="Times New Roman,serif" font-weight="bold" font-size="9.00">Technical</text>
<polygon fill="none" stroke="black" points="388.25,-254.88 388.25,-282.12 513.5,-282.12 513.5,-254.88 388.25,-254.88"/>
</g>
<!-- n_0_2_3_4_5_6&#45;&gt;n_4_5 -->
<g id="edge9" class="edge">
<title>n_0_2_3_4_5_6&#45;&gt;n_4_5</title>
<path fill="none" stroke="black" d="M391.38,-337.05C403.22,-323.6 417.17,-307.77 428.58,-294.81"/>
<polygon fill="black" stroke="black" points="431.04,-297.32 435.02,-287.5 425.78,-292.69 431.04,-297.32"/>
</g>
<!-- n_0_3_6 -->
<g id="node4" class="node">
<title>n_0_3_6</title>
<polygon fill="none" stroke="black" points="101.25,-163 101.25,-195 170,-195 170,-163 101.25,-163"/>
<text text-anchor="start" x="112.75" y="-180.45" font-family="Times New Roman,serif" font-weight="bold" font-size="9.00">Primary (P)</text>
<text text-anchor="start" x="108.25" y="-171.45" font-family="Times New Roman,serif" font-weight="bold" font-size="9.00">Secondary (P)</text>
<polygon fill="none" stroke="black" points="170,-163 170,-195 224.5,-195 224.5,-163 170,-163"/>
<text text-anchor="start" x="177" y="-177.07" font-family="Times New Roman,serif" font-weight="bold" font-size="9.00">University</text>
<polygon fill="none" stroke="black" points="100.25,-162 100.25,-196 225.5,-196 225.5,-162 100.25,-162"/>
</g>
<!-- n_0_2_3_6&#45;&gt;n_0_3_6 -->
<g id="edge3" class="edge">
<title>n_0_2_3_6&#45;&gt;n_0_3_6</title>
<path fill="none" stroke="black" d="M248.73,-243.13C233.2,-231.71 214.68,-218.1 198.83,-206.43"/>
<polygon fill="black" stroke="black" points="201.19,-203.83 191.06,-200.72 197.04,-209.47 201.19,-203.83"/>
</g>
<!-- n_2 -->
<g id="node9" class="node">
<title>n_2</title>
<polygon fill="none" stroke="black" points="271.75,-166.38 271.75,-191.62 324,-191.62 324,-166.38 271.75,-166.38"/>
<text text-anchor="start" x="278.75" y="-177.07" font-family="Times New Roman,serif" font-weight="bold" font-size="9.00">Preschool</text>
<polygon fill="none" stroke="black" points="270.75,-165.38 270.75,-192.62 325,-192.62 325,-165.38 270.75,-165.38"/>
</g>
<!-- n_0_2_3_6&#45;&gt;n_2 -->
<g id="edge8" class="edge">
<title>n_0_2_3_6&#45;&gt;n_2</title>
<path fill="none" stroke="black" d="M286.33,-243.13C288.34,-232.17 290.71,-219.18 292.79,-207.84"/>
<polygon fill="black" stroke="black" points="296.18,-208.73 294.54,-198.26 289.29,-207.47 296.18,-208.73"/>
</g>
<!-- n_0_3 -->
<g id="node5" class="node">
<title>n_0_3</title>
<polygon fill="none" stroke="black" points="29.62,-84.38 29.62,-109.62 89.38,-109.62 89.38,-84.38 29.62,-84.38"/>
<text text-anchor="start" x="36.62" y="-95.08" font-family="Times New Roman,serif" font-weight="bold" font-size="9.00">Primary (P)</text>
<polygon fill="none" stroke="black" points="89.38,-84.38 89.38,-109.62 158.12,-109.62 158.12,-84.38 89.38,-84.38"/>
<text text-anchor="start" x="96.38" y="-95.08" font-family="Times New Roman,serif" font-weight="bold" font-size="9.00">Secondary (P)</text>
<polygon fill="none" stroke="black" points="28.62,-83.38 28.62,-110.62 159.12,-110.62 159.12,-83.38 28.62,-83.38"/>
</g>
<!-- n_0_3_6&#45;&gt;n_0_3 -->
<g id="edge4" class="edge">
<title>n_0_3_6&#45;&gt;n_0_3</title>
<path fill="none" stroke="black" d="M145.82,-158.22C136.75,-147.71 125.5,-134.66 115.79,-123.41"/>
<polygon fill="black" stroke="black" points="118.57,-121.28 109.39,-115.99 113.27,-125.85 118.57,-121.28"/>
</g>
<!-- n_6 -->
<g id="node8" class="node">
<title>n_6</title>
<polygon fill="none" stroke="black" points="205.62,-84.38 205.62,-109.62 260.12,-109.62 260.12,-84.38 205.62,-84.38"/>
<text text-anchor="start" x="212.62" y="-95.08" font-family="Times New Roman,serif" font-weight="bold" font-size="9.00">University</text>
<polygon fill="none" stroke="black" points="204.62,-83.38 204.62,-110.62 261.12,-110.62 261.12,-83.38 204.62,-83.38"/>
</g>
<!-- n_0_3_6&#45;&gt;n_6 -->
<g id="edge7" class="edge">
<title>n_0_3_6&#45;&gt;n_6</title>
<path fill="none" stroke="black" d="M180.18,-158.22C189.38,-147.71 200.79,-134.66 210.64,-123.41"/>
<polygon fill="black" stroke="black" points="213.19,-125.81 217.14,-115.98 207.92,-121.2 213.19,-125.81"/>
</g>
<!-- n_0 -->
<g id="node6" class="node">
<title>n_0</title>
<polygon fill="none" stroke="black" points="9,-5.38 9,-30.62 68.75,-30.62 68.75,-5.38 9,-5.38"/>
<text text-anchor="start" x="16" y="-16.07" font-family="Times New Roman,serif" font-weight="bold" font-size="9.00">Primary (P)</text>
<polygon fill="none" stroke="black" points="8,-4.38 8,-31.62 69.75,-31.62 69.75,-4.38 8,-4.38"/>
</g>
<!-- n_0_3&#45;&gt;n_0 -->
<g id="edge5" class="edge">
<title>n_0_3&#45;&gt;n_0</title>
<path fill="none" stroke="black" d="M81.94,-79.29C74.78,-69.27 65.53,-56.31 57.43,-44.98"/>
<polygon fill="black" stroke="black" points="60.52,-43.28 51.86,-37.17 54.82,-47.34 60.52,-43.28"/>
</g>
<!-- n_3 -->
<g id="node7" class="node">
<title>n_3</title>
<polygon fill="none" stroke="black" points="115.5,-5.38 115.5,-30.62 184.25,-30.62 184.25,-5.38 115.5,-5.38"/>
<text text-anchor="start" x="122.5" y="-16.07" font-family="Times New Roman,serif" font-weight="bold" font-size="9.00">Secondary (P)</text>
<polygon fill="none" stroke="black" points="114.5,-4.38 114.5,-31.62 185.25,-31.62 185.25,-4.38 114.5,-4.38"/>
</g>
<!-- n_0_3&#45;&gt;n_3 -->
<g id="edge6" class="edge">
<title>n_0_3&#45;&gt;n_3</title>
<path fill="none" stroke="black" d="M106.03,-79.29C113.31,-69.27 122.74,-56.31 130.98,-44.98"/>
<polygon fill="black" stroke="black" points="133.61,-47.31 136.66,-37.17 127.95,-43.19 133.61,-47.31"/>
</g>
<!-- n_4 -->
<g id="node11" class="node">
<title>n_4</title>
<polygon fill="none" stroke="black" points="400.75,-166.38 400.75,-191.62 471,-191.62 471,-166.38 400.75,-166.38"/>
<text text-anchor="start" x="407.75" y="-177.07" font-family="Times New Roman,serif" font-weight="bold" font-size="9.00">Secondary (G)</text>
<polygon fill="none" stroke="black" points="399.75,-165.38 399.75,-192.62 472,-192.62 472,-165.38 399.75,-165.38"/>
</g>
<!-- n_4_5&#45;&gt;n_4 -->
<g id="edge10" class="edge">
<title>n_4_5&#45;&gt;n_4</title>
<path fill="none" stroke="black" d="M447.98,-250.63C445.91,-238.52 443.06,-221.94 440.65,-207.88"/>
<polygon fill="black" stroke="black" points="444.15,-207.58 439.01,-198.31 437.25,-208.76 444.15,-207.58"/>
</g>
<!-- n_5 -->
<g id="node12" class="node">
<title>n_5</title>
<polygon fill="none" stroke="black" points="518.38,-166.38 518.38,-191.62 571.38,-191.62 571.38,-166.38 518.38,-166.38"/>
<text text-anchor="start" x="525.38" y="-177.07" font-family="Times New Roman,serif" font-weight="bold" font-size="9.00">Technical</text>
<polygon fill="none" stroke="black" points="517.38,-165.38 517.38,-192.62 572.38,-192.62 572.38,-165.38 517.38,-165.38"/>
</g>
<!-- n_4_5&#45;&gt;n_5 -->
<g id="edge11" class="edge">
<title>n_4_5&#45;&gt;n_5</title>
<path fill="none" stroke="black" d="M469,-250.63C483.04,-237.56 502.7,-219.25 518.49,-204.56"/>
<polygon fill="black" stroke="black" points="520.76,-207.23 525.7,-197.85 515.99,-202.1 520.76,-207.23"/>
</g>
</g>
</svg>
