<?xml version="1.0" encoding="UTF-8" standalone="no"?>
<!DOCTYPE svg PUBLIC "-//W3C//DTD SVG 1.1//EN"
 "http://www.w3.org/Graphics/SVG/1.1/DTD/svg11.dtd">
<!-- Generated by graphviz version 10.0.1 (20240210.2158)
 -->
<!-- Title: ND Pages: 1 -->
<svg width="599pt" height="526pt"
 viewBox="0.00 0.00 598.50 526.00" xmlns="http://www.w3.org/2000/svg" xmlns:xlink="http://www.w3.org/1999/xlink">
<g id="graph0" class="graph" transform="scale(1 1) rotate(0) translate(4 522)">
<title>ND</title>
<polygon fill="white" stroke="none" points="-4,4 -4,-522 594.5,-522 594.5,4 -4,4"/>
<!-- n_0_1_2_3_4_5_6 -->
<g id="node1" class="node">
<title>n_0_1_2_3_4_5_6</title>
<polygon fill="none" stroke="black" points="377.62,-445 377.62,-513 447.88,-513 447.88,-445 377.62,-445"/>
<text text-anchor="start" x="389.88" y="-498.45" font-family="Times New Roman,serif" font-weight="bold" font-size="9.00">Primary (P)</text>
<text text-anchor="start" x="393.62" y="-489.45" font-family="Times New Roman,serif" font-weight="bold" font-size="9.00">Preschool</text>
<text text-anchor="start" x="385.38" y="-480.45" font-family="Times New Roman,serif" font-weight="bold" font-size="9.00">Secondary (P)</text>
<text text-anchor="start" x="384.62" y="-471.45" font-family="Times New Roman,serif" font-weight="bold" font-size="9.00">Secondary (G)</text>
<text text-anchor="start" x="393.25" y="-462.45" font-family="Times New Roman,serif" font-weight="bold" font-size="9.00">Technical</text>
<text text-anchor="start" x="392.5" y="-453.45" font-family="Times New Roman,serif" font-weight="bold" font-size="9.00">University</text>
<polygon fill="none" stroke="black" points="447.88,-445 447.88,-513 509.12,-513 509.12,-445 447.88,-445"/>
<text text-anchor="start" x="454.88" y="-477.07" font-family="Times New Roman,serif" font-weight="bold" font-size="9.00">Primary (G)</text>
<polygon fill="none" stroke="black" points="376.62,-444 376.62,-514 510.12,-514 510.12,-444 376.62,-444"/>
</g>
<!-- n_0_2_3_4_5_6 -->
<g id="node2" class="node">
<title>n_0_2_3_4_5_6</title>
<polygon fill="none" stroke="black" points="300.88,-342 300.88,-392 369.62,-392 369.62,-342 300.88,-342"/>
<text text-anchor="start" x="312.38" y="-377.45" font-family="Times New Roman,serif" font-weight="bold" font-size="9.00">Primary (P)</text>
<text text-anchor="start" x="307.88" y="-368.45" font-family="Times New Roman,serif" font-weight="bold" font-size="9.00">Secondary (P)</text>
<text text-anchor="start" x="315.75" y="-359.45" font-family="Times New Roman,serif" font-weight="bold" font-size="9.00">Technical</text>
<text text-anchor="start" x="315" y="-350.45" font-family="Times New Roman,serif" font-weight="bold" font-size="9.00">University</text>
<polygon fill="none" stroke="black" points="369.62,-342 369.62,-392 439.88,-392 439.88,-342 369.62,-342"/>
<text text-anchor="start" x="385.62" y="-368.45" font-family="Times New Roman,serif" font-weight="bold" font-size="9.00">Preschool</text>
<text text-anchor="start" x="376.62" y="-359.45" font-family="Times New Roman,serif" font-weight="bold" font-size="9.00">Secondary (G)</text>
<polygon fill="none" stroke="black" points="299.88,-341 299.88,-393 440.88,-393 440.88,-341 299.88,-341"/>
</g>
<!-- n_0_1_2_3_4_5_6&#45;&gt;n_0_2_3_4_5_6 -->
<g id="edge1" class="edge">
<title>n_0_1_2_3_4_5_6&#45;&gt;n_0_2_3_4_5_6</title>
<path fill="none" stroke="black" d="M418.25,-440.14C410.98,-429.19 403.04,-417.22 395.75,-406.23"/>
<polygon fill="black" stroke="black" points="398.83,-404.55 390.38,-398.15 393,-408.42 398.83,-404.55"/>
</g>
<!-- n_1 -->
<g id="node13" class="node">
<title>n_1</title>
<polygon fill="none" stroke="black" points="486.75,-354.38 486.75,-379.62 548,-379.62 548,-354.38 486.75,-354.38"/>
<text text-anchor="start" x="493.75" y="-365.07" font-family="Times New Roman,serif" font-weight="bold" font-size="9.00">Primary (G)</text>
<polygon fill="none" stroke="black" points="485.75,-353.38 485.75,-380.62 549,-380.62 549,-353.38 485.75,-353.38"/>
</g>
<!-- n_0_1_2_3_4_5_6&#45;&gt;n_1 -->
<g id="edge12" class="edge">
<title>n_0_1_2_3_4_5_6&#45;&gt;n_1</title>
<path fill="none" stroke="black" d="M468.84,-440.14C479,-425.04 490.45,-408.02 499.68,-394.31"/>
<polygon fill="black" stroke="black" points="502.43,-396.49 505.11,-386.24 496.62,-392.58 502.43,-396.49"/>
</g>
<!-- n_0_3_5_6 -->
<g id="node3" class="node">
<title>n_0_3_5_6</title>
<polygon fill="none" stroke="black" points="225.5,-248 225.5,-289 294.25,-289 294.25,-248 225.5,-248"/>
<text text-anchor="start" x="237" y="-274.45" font-family="Times New Roman,serif" font-weight="bold" font-size="9.00">Primary (P)</text>
<text text-anchor="start" x="232.5" y="-265.45" font-family="Times New Roman,serif" font-weight="bold" font-size="9.00">Secondary (P)</text>
<text text-anchor="start" x="239.62" y="-256.45" font-family="Times New Roman,serif" font-weight="bold" font-size="9.00">University</text>
<polygon fill="none" stroke="black" points="294.25,-248 294.25,-289 347.25,-289 347.25,-248 294.25,-248"/>
<text text-anchor="start" x="301.25" y="-266.57" font-family="Times New Roman,serif" font-weight="bold" font-size="9.00">Technical</text>
<polygon fill="none" stroke="black" points="224.5,-247 224.5,-290 348.25,-290 348.25,-247 224.5,-247"/>
</g>
<!-- n_0_2_3_4_5_6&#45;&gt;n_0_3_5_6 -->
<g id="edge2" class="edge">
<title>n_0_2_3_4_5_6&#45;&gt;n_0_3_5_6</title>
<path fill="none" stroke="black" d="M345.17,-337.05C335.72,-326.18 324.9,-313.76 315.14,-302.55"/>
<polygon fill="black" stroke="black" points="317.79,-300.26 308.59,-295.02 312.51,-304.86 317.79,-300.26"/>
</g>
<!-- n_2_4 -->
<g id="node10" class="node">
<title>n_2_4</title>
<polygon fill="none" stroke="black" points="394.12,-255.88 394.12,-281.12 446.38,-281.12 446.38,-255.88 394.12,-255.88"/>
<text text-anchor="start" x="401.12" y="-266.57" font-family="Times New Roman,serif" font-weight="bold" font-size="9.00">Preschool</text>
<polygon fill="none" stroke="black" points="446.38,-255.88 446.38,-281.12 516.62,-281.12 516.62,-255.88 446.38,-255.88"/>
<text text-anchor="start" x="453.38" y="-266.57" font-family="Times New Roman,serif" font-weight="bold" font-size="9.00">Secondary (G)</text>
<polygon fill="none" stroke="black" points="393.12,-254.88 393.12,-282.12 517.62,-282.12 517.62,-254.88 393.12,-254.88"/>
</g>
<!-- n_0_2_3_4_5_6&#45;&gt;n_2_4 -->
<g id="edge9" class="edge">
<title>n_0_2_3_4_5_6&#45;&gt;n_2_4</title>
<path fill="none" stroke="black" d="M395.88,-337.05C407.72,-323.6 421.67,-307.77 433.08,-294.81"/>
<polygon fill="black" stroke="black" points="435.54,-297.32 439.52,-287.5 430.28,-292.69 435.54,-297.32"/>
</g>
<!-- n_0_3_6 -->
<g id="node4" class="node">
<title>n_0_3_6</title>
<polygon fill="none" stroke="black" points="102.12,-163 102.12,-195 170.88,-195 170.88,-163 102.12,-163"/>
<text text-anchor="start" x="109.12" y="-180.45" font-family="Times New Roman,serif" font-weight="bold" font-size="9.00">Secondary (P)</text>
<text text-anchor="start" x="116.25" y="-171.45" font-family="Times New Roman,serif" font-weight="bold" font-size="9.00">University</text>
<polygon fill="none" stroke="black" points="170.88,-163 170.88,-195 230.62,-195 230.62,-163 170.88,-163"/>
<text text-anchor="start" x="177.88" y="-177.07" font-family="Times New Roman,serif" font-weight="bold" font-size="9.00">Primary (P)</text>
<polygon fill="none" stroke="black" points="101.12,-162 101.12,-196 231.62,-196 231.62,-162 101.12,-162"/>
</g>
<!-- n_0_3_5_6&#45;&gt;n_0_3_6 -->
<g id="edge3" class="edge">
<title>n_0_3_5_6&#45;&gt;n_0_3_6</title>
<path fill="none" stroke="black" d="M252.95,-243.13C237.3,-231.71 218.62,-218.1 202.63,-206.43"/>
<polygon fill="black" stroke="black" points="204.93,-203.78 194.79,-200.72 200.81,-209.44 204.93,-203.78"/>
</g>
<!-- n_5 -->
<g id="node9" class="node">
<title>n_5</title>
<polygon fill="none" stroke="black" points="277.88,-166.38 277.88,-191.62 330.88,-191.62 330.88,-166.38 277.88,-166.38"/>
<text text-anchor="start" x="284.88" y="-177.07" font-family="Times New Roman,serif" font-weight="bold" font-size="9.00">Technical</text>
<polygon fill="none" stroke="black" points="276.88,-165.38 276.88,-192.62 331.88,-192.62 331.88,-165.38 276.88,-165.38"/>
</g>
<!-- n_0_3_5_6&#45;&gt;n_5 -->
<g id="edge8" class="edge">
<title>n_0_3_5_6&#45;&gt;n_5</title>
<path fill="none" stroke="black" d="M291.39,-243.13C293.64,-232.17 296.32,-219.18 298.65,-207.84"/>
<polygon fill="black" stroke="black" points="302.03,-208.75 300.62,-198.25 295.18,-207.34 302.03,-208.75"/>
</g>
<!-- n_3_6 -->
<g id="node5" class="node">
<title>n_3_6</title>
<polygon fill="none" stroke="black" points="35.75,-84.38 35.75,-109.62 104.5,-109.62 104.5,-84.38 35.75,-84.38"/>
<text text-anchor="start" x="42.75" y="-95.08" font-family="Times New Roman,serif" font-weight="bold" font-size="9.00">Secondary (P)</text>
<polygon fill="none" stroke="black" points="104.5,-84.38 104.5,-109.62 159,-109.62 159,-84.38 104.5,-84.38"/>
<text text-anchor="start" x="111.5" y="-95.08" font-family="Times New Roman,serif" font-weight="bold" font-size="9.00">University</text>
<polygon fill="none" stroke="black" points="34.75,-83.38 34.75,-110.62 160,-110.62 160,-83.38 34.75,-83.38"/>
</g>
<!-- n_0_3_6&#45;&gt;n_3_6 -->
<g id="edge4" class="edge">
<title>n_0_3_6&#45;&gt;n_3_6</title>
<path fill="none" stroke="black" d="M149.32,-158.22C140.25,-147.71 129,-134.66 119.29,-123.41"/>
<polygon fill="black" stroke="black" points="122.07,-121.28 112.89,-115.99 116.77,-125.85 122.07,-121.28"/>
</g>
<!-- n_0 -->
<g id="node8" class="node">
<title>n_0</title>
<polygon fill="none" stroke="black" points="206.5,-84.38 206.5,-109.62 266.25,-109.62 266.25,-84.38 206.5,-84.38"/>
<text text-anchor="start" x="213.5" y="-95.08" font-family="Times New Roman,serif" font-weight="bold" font-size="9.00">Primary (P)</text>
<polygon fill="none" stroke="black" points="205.5,-83.38 205.5,-110.62 267.25,-110.62 267.25,-83.38 205.5,-83.38"/>
</g>
<!-- n_0_3_6&#45;&gt;n_0 -->
<g id="edge7" class="edge">
<title>n_0_3_6&#45;&gt;n_0</title>
<path fill="none" stroke="black" d="M183.68,-158.22C192.88,-147.71 204.29,-134.66 214.14,-123.41"/>
<polygon fill="black" stroke="black" points="216.69,-125.81 220.64,-115.98 211.42,-121.2 216.69,-125.81"/>
</g>
<!-- n_3 -->
<g id="node6" class="node">
<title>n_3</title>
<polygon fill="none" stroke="black" points="9,-5.38 9,-30.62 77.75,-30.62 77.75,-5.38 9,-5.38"/>
<text text-anchor="start" x="16" y="-16.07" font-family="Times New Roman,serif" font-weight="bold" font-size="9.00">Secondary (P)</text>
<polygon fill="none" stroke="black" points="8,-4.38 8,-31.62 78.75,-31.62 78.75,-4.38 8,-4.38"/>
</g>
<!-- n_3_6&#45;&gt;n_3 -->
<g id="edge5" class="edge">
<title>n_3_6&#45;&gt;n_3</title>
<path fill="none" stroke="black" d="M85.66,-79.29C78.7,-69.37 69.72,-56.57 61.83,-45.32"/>
<polygon fill="black" stroke="black" points="64.73,-43.36 56.12,-37.18 59,-47.38 64.73,-43.36"/>
</g>
<!-- n_6 -->
<g id="node7" class="node">
<title>n_6</title>
<polygon fill="none" stroke="black" points="125.12,-5.38 125.12,-30.62 179.62,-30.62 179.62,-5.38 125.12,-5.38"/>
<text text-anchor="start" x="132.12" y="-16.07" font-family="Times New Roman,serif" font-weight="bold" font-size="9.00">University</text>
<polygon fill="none" stroke="black" points="124.12,-4.38 124.12,-31.62 180.62,-31.62 180.62,-4.38 124.12,-4.38"/>
</g>
<!-- n_3_6&#45;&gt;n_6 -->
<g id="edge6" class="edge">
<title>n_3_6&#45;&gt;n_6</title>
<path fill="none" stroke="black" d="M109.31,-79.29C116.47,-69.27 125.72,-56.31 133.82,-44.98"/>
<polygon fill="black" stroke="black" points="136.43,-47.34 139.39,-37.17 130.73,-43.28 136.43,-47.34"/>
</g>
<!-- n_2 -->
<g id="node11" class="node">
<title>n_2</title>
<polygon fill="none" stroke="black" points="412.25,-166.38 412.25,-191.62 464.5,-191.62 464.5,-166.38 412.25,-166.38"/>
<text text-anchor="start" x="419.25" y="-177.07" font-family="Times New Roman,serif" font-weight="bold" font-size="9.00">Preschool</text>
<polygon fill="none" stroke="black" points="411.25,-165.38 411.25,-192.62 465.5,-192.62 465.5,-165.38 411.25,-165.38"/>
</g>
<!-- n_2_4&#45;&gt;n_2 -->
<g id="edge10" class="edge">
<title>n_2_4&#45;&gt;n_2</title>
<path fill="none" stroke="black" d="M452.1,-250.63C449.75,-238.52 446.52,-221.94 443.79,-207.88"/>
<polygon fill="black" stroke="black" points="447.27,-207.45 441.93,-198.3 440.4,-208.79 447.27,-207.45"/>
</g>
<!-- n_4 -->
<g id="node12" class="node">
<title>n_4</title>
<polygon fill="none" stroke="black" points="511.25,-166.38 511.25,-191.62 581.5,-191.62 581.5,-166.38 511.25,-166.38"/>
<text text-anchor="start" x="518.25" y="-177.07" font-family="Times New Roman,serif" font-weight="bold" font-size="9.00">Secondary (G)</text>
<polygon fill="none" stroke="black" points="510.25,-165.38 510.25,-192.62 582.5,-192.62 582.5,-165.38 510.25,-165.38"/>
</g>
<!-- n_2_4&#45;&gt;n_4 -->
<g id="edge11" class="edge">
<title>n_2_4&#45;&gt;n_4</title>
<path fill="none" stroke="black" d="M472.92,-250.63C486.52,-237.56 505.55,-219.25 520.84,-204.56"/>
<polygon fill="black" stroke="black" points="523.01,-207.32 527.79,-197.87 518.16,-202.28 523.01,-207.32"/>
</g>
</g>
</svg>
