<?xml version="1.0" encoding="UTF-8" standalone="no"?>
<!DOCTYPE svg PUBLIC "-//W3C//DTD SVG 1.1//EN"
 "http://www.w3.org/Graphics/SVG/1.1/DTD/svg11.dtd">
<!-- Generated by graphviz version 10.0.1 (20240210.2158)
 -->
<!-- Title: ND Pages: 1 -->
<svg width="552pt" height="638pt"
 viewBox="0.00 0.00 551.62 638.00" xmlns="http://www.w3.org/2000/svg" xmlns:xlink="http://www.w3.org/1999/xlink">
<g id="graph0" class="graph" transform="scale(1 1) rotate(0) translate(4 634)">
<title>ND</title>
<polygon fill="white" stroke="none" points="-4,4 -4,-634 547.62,-634 547.62,4 -4,4"/>
<!-- n_0_1_2_3_4_5_6 -->
<g id="node1" class="node">
<title>n_0_1_2_3_4_5_6</title>
<polygon fill="none" stroke="black" points="374.5,-557 374.5,-625 444.75,-625 444.75,-557 374.5,-557"/>
<text text-anchor="start" x="386.75" y="-610.45" font-family="Times New Roman,serif" font-weight="bold" font-size="9.00">Primary (P)</text>
<text text-anchor="start" x="386" y="-601.45" font-family="Times New Roman,serif" font-weight="bold" font-size="9.00">Primary (G)</text>
<text text-anchor="start" x="390.5" y="-592.45" font-family="Times New Roman,serif" font-weight="bold" font-size="9.00">Preschool</text>
<text text-anchor="start" x="382.25" y="-583.45" font-family="Times New Roman,serif" font-weight="bold" font-size="9.00">Secondary (P)</text>
<text text-anchor="start" x="381.5" y="-574.45" font-family="Times New Roman,serif" font-weight="bold" font-size="9.00">Secondary (G)</text>
<text text-anchor="start" x="389.38" y="-565.45" font-family="Times New Roman,serif" font-weight="bold" font-size="9.00">University</text>
<polygon fill="none" stroke="black" points="444.75,-557 444.75,-625 497.75,-625 497.75,-557 444.75,-557"/>
<text text-anchor="start" x="451.75" y="-589.08" font-family="Times New Roman,serif" font-weight="bold" font-size="9.00">Technical</text>
<polygon fill="none" stroke="black" points="373.5,-556 373.5,-626 498.75,-626 498.75,-556 373.5,-556"/>
</g>
<!-- n_0_1_2_3_4_6 -->
<g id="node2" class="node">
<title>n_0_1_2_3_4_6</title>
<polygon fill="none" stroke="black" points="295.62,-445 295.62,-504 364.38,-504 364.38,-445 295.62,-445"/>
<text text-anchor="start" x="307.12" y="-489.45" font-family="Times New Roman,serif" font-weight="bold" font-size="9.00">Primary (P)</text>
<text text-anchor="start" x="306.38" y="-480.45" font-family="Times New Roman,serif" font-weight="bold" font-size="9.00">Primary (G)</text>
<text text-anchor="start" x="310.88" y="-471.45" font-family="Times New Roman,serif" font-weight="bold" font-size="9.00">Preschool</text>
<text text-anchor="start" x="302.62" y="-462.45" font-family="Times New Roman,serif" font-weight="bold" font-size="9.00">Secondary (P)</text>
<text text-anchor="start" x="309.75" y="-453.45" font-family="Times New Roman,serif" font-weight="bold" font-size="9.00">University</text>
<polygon fill="none" stroke="black" points="364.38,-445 364.38,-504 434.62,-504 434.62,-445 364.38,-445"/>
<text text-anchor="start" x="371.38" y="-472.57" font-family="Times New Roman,serif" font-weight="bold" font-size="9.00">Secondary (G)</text>
<polygon fill="none" stroke="black" points="294.62,-444 294.62,-505 435.62,-505 435.62,-444 294.62,-444"/>
</g>
<!-- n_0_1_2_3_4_5_6&#45;&gt;n_0_1_2_3_4_6 -->
<g id="edge1" class="edge">
<title>n_0_1_2_3_4_5_6&#45;&gt;n_0_1_2_3_4_6</title>
<path fill="none" stroke="black" d="M412.68,-552.19C405.93,-541.31 398.52,-529.36 391.61,-518.21"/>
<polygon fill="black" stroke="black" points="394.72,-516.59 386.48,-509.94 388.78,-520.28 394.72,-516.59"/>
</g>
<!-- n_5 -->
<g id="node13" class="node">
<title>n_5</title>
<polygon fill="none" stroke="black" points="481.62,-461.88 481.62,-487.12 534.62,-487.12 534.62,-461.88 481.62,-461.88"/>
<text text-anchor="start" x="488.62" y="-472.57" font-family="Times New Roman,serif" font-weight="bold" font-size="9.00">Technical</text>
<polygon fill="none" stroke="black" points="480.62,-460.88 480.62,-488.12 535.62,-488.12 535.62,-460.88 480.62,-460.88"/>
</g>
<!-- n_0_1_2_3_4_5_6&#45;&gt;n_5 -->
<g id="edge12" class="edge">
<title>n_0_1_2_3_4_5_6&#45;&gt;n_5</title>
<path fill="none" stroke="black" d="M459.9,-552.19C470.22,-535.78 482.05,-516.96 491.42,-502.07"/>
<polygon fill="black" stroke="black" points="494.29,-504.07 496.65,-493.74 488.37,-500.35 494.29,-504.07"/>
</g>
<!-- n_0_1_2_3_6 -->
<g id="node3" class="node">
<title>n_0_1_2_3_6</title>
<polygon fill="none" stroke="black" points="227.12,-342 227.12,-392 295.88,-392 295.88,-342 227.12,-342"/>
<text text-anchor="start" x="238.62" y="-377.45" font-family="Times New Roman,serif" font-weight="bold" font-size="9.00">Primary (P)</text>
<text text-anchor="start" x="242.38" y="-368.45" font-family="Times New Roman,serif" font-weight="bold" font-size="9.00">Preschool</text>
<text text-anchor="start" x="234.12" y="-359.45" font-family="Times New Roman,serif" font-weight="bold" font-size="9.00">Secondary (P)</text>
<text text-anchor="start" x="241.25" y="-350.45" font-family="Times New Roman,serif" font-weight="bold" font-size="9.00">University</text>
<polygon fill="none" stroke="black" points="295.88,-342 295.88,-392 357.12,-392 357.12,-342 295.88,-342"/>
<text text-anchor="start" x="302.88" y="-365.07" font-family="Times New Roman,serif" font-weight="bold" font-size="9.00">Primary (G)</text>
<polygon fill="none" stroke="black" points="226.12,-341 226.12,-393 358.12,-393 358.12,-341 226.12,-341"/>
</g>
<!-- n_0_1_2_3_4_6&#45;&gt;n_0_1_2_3_6 -->
<g id="edge2" class="edge">
<title>n_0_1_2_3_4_6&#45;&gt;n_0_1_2_3_6</title>
<path fill="none" stroke="black" d="M342.03,-440.12C334.6,-429.38 326.31,-417.4 318.65,-406.33"/>
<polygon fill="black" stroke="black" points="321.55,-404.37 312.98,-398.14 315.79,-408.36 321.55,-404.37"/>
</g>
<!-- n_4 -->
<g id="node12" class="node">
<title>n_4</title>
<polygon fill="none" stroke="black" points="404,-354.38 404,-379.62 474.25,-379.62 474.25,-354.38 404,-354.38"/>
<text text-anchor="start" x="411" y="-365.07" font-family="Times New Roman,serif" font-weight="bold" font-size="9.00">Secondary (G)</text>
<polygon fill="none" stroke="black" points="403,-353.38 403,-380.62 475.25,-380.62 475.25,-353.38 403,-353.38"/>
</g>
<!-- n_0_1_2_3_4_6&#45;&gt;n_4 -->
<g id="edge11" class="edge">
<title>n_0_1_2_3_4_6&#45;&gt;n_4</title>
<path fill="none" stroke="black" d="M388.54,-440.12C399,-425.21 411.14,-407.9 420.9,-393.98"/>
<polygon fill="black" stroke="black" points="423.49,-396.39 426.37,-386.19 417.76,-392.37 423.49,-396.39"/>
</g>
<!-- n_0_2_3_6 -->
<g id="node4" class="node">
<title>n_0_2_3_6</title>
<polygon fill="none" stroke="black" points="156.88,-248 156.88,-289 225.62,-289 225.62,-248 156.88,-248"/>
<text text-anchor="start" x="172.12" y="-274.45" font-family="Times New Roman,serif" font-weight="bold" font-size="9.00">Preschool</text>
<text text-anchor="start" x="163.88" y="-265.45" font-family="Times New Roman,serif" font-weight="bold" font-size="9.00">Secondary (P)</text>
<text text-anchor="start" x="171" y="-256.45" font-family="Times New Roman,serif" font-weight="bold" font-size="9.00">University</text>
<polygon fill="none" stroke="black" points="225.62,-248 225.62,-289 285.38,-289 285.38,-248 225.62,-248"/>
<text text-anchor="start" x="232.62" y="-266.57" font-family="Times New Roman,serif" font-weight="bold" font-size="9.00">Primary (P)</text>
<polygon fill="none" stroke="black" points="155.88,-247 155.88,-290 286.38,-290 286.38,-247 155.88,-247"/>
</g>
<!-- n_0_1_2_3_6&#45;&gt;n_0_2_3_6 -->
<g id="edge3" class="edge">
<title>n_0_1_2_3_6&#45;&gt;n_0_2_3_6</title>
<path fill="none" stroke="black" d="M270.82,-337.05C262.91,-326.29 253.87,-314 245.69,-302.88"/>
<polygon fill="black" stroke="black" points="248.7,-301.07 239.96,-295.09 243.06,-305.22 248.7,-301.07"/>
</g>
<!-- n_1 -->
<g id="node11" class="node">
<title>n_1</title>
<polygon fill="none" stroke="black" points="332.5,-255.88 332.5,-281.12 393.75,-281.12 393.75,-255.88 332.5,-255.88"/>
<text text-anchor="start" x="339.5" y="-266.57" font-family="Times New Roman,serif" font-weight="bold" font-size="9.00">Primary (G)</text>
<polygon fill="none" stroke="black" points="331.5,-254.88 331.5,-282.12 394.75,-282.12 394.75,-254.88 331.5,-254.88"/>
</g>
<!-- n_0_1_2_3_6&#45;&gt;n_1 -->
<g id="edge10" class="edge">
<title>n_0_1_2_3_6&#45;&gt;n_1</title>
<path fill="none" stroke="black" d="M313.43,-337.05C323.13,-323.86 334.52,-308.38 343.95,-295.56"/>
<polygon fill="black" stroke="black" points="346.71,-297.71 349.82,-287.59 341.07,-293.57 346.71,-297.71"/>
</g>
<!-- n_2_3_6 -->
<g id="node5" class="node">
<title>n_2_3_6</title>
<polygon fill="none" stroke="black" points="90.5,-163 90.5,-195 145,-195 145,-163 90.5,-163"/>
<text text-anchor="start" x="98.62" y="-180.45" font-family="Times New Roman,serif" font-weight="bold" font-size="9.00">Preschool</text>
<text text-anchor="start" x="97.5" y="-171.45" font-family="Times New Roman,serif" font-weight="bold" font-size="9.00">University</text>
<polygon fill="none" stroke="black" points="145,-163 145,-195 213.75,-195 213.75,-163 145,-163"/>
<text text-anchor="start" x="152" y="-177.07" font-family="Times New Roman,serif" font-weight="bold" font-size="9.00">Secondary (P)</text>
<polygon fill="none" stroke="black" points="89.5,-162 89.5,-196 214.75,-196 214.75,-162 89.5,-162"/>
</g>
<!-- n_0_2_3_6&#45;&gt;n_2_3_6 -->
<g id="edge4" class="edge">
<title>n_0_2_3_6&#45;&gt;n_2_3_6</title>
<path fill="none" stroke="black" d="M201.9,-243.13C193.49,-232.46 183.56,-219.87 174.79,-208.75"/>
<polygon fill="black" stroke="black" points="177.64,-206.7 168.7,-201.01 172.14,-211.03 177.64,-206.7"/>
</g>
<!-- n_0 -->
<g id="node10" class="node">
<title>n_0</title>
<polygon fill="none" stroke="black" points="261.25,-166.38 261.25,-191.62 321,-191.62 321,-166.38 261.25,-166.38"/>
<text text-anchor="start" x="268.25" y="-177.07" font-family="Times New Roman,serif" font-weight="bold" font-size="9.00">Primary (P)</text>
<polygon fill="none" stroke="black" points="260.25,-165.38 260.25,-192.62 322,-192.62 322,-165.38 260.25,-165.38"/>
</g>
<!-- n_0_2_3_6&#45;&gt;n_0 -->
<g id="edge9" class="edge">
<title>n_0_2_3_6&#45;&gt;n_0</title>
<path fill="none" stroke="black" d="M240.62,-243.13C249.94,-231.48 261.1,-217.53 270.56,-205.71"/>
<polygon fill="black" stroke="black" points="273.25,-207.95 276.76,-197.95 267.78,-203.57 273.25,-207.95"/>
</g>
<!-- n_2_6 -->
<g id="node6" class="node">
<title>n_2_6</title>
<polygon fill="none" stroke="black" points="31.75,-84.38 31.75,-109.62 84,-109.62 84,-84.38 31.75,-84.38"/>
<text text-anchor="start" x="38.75" y="-95.08" font-family="Times New Roman,serif" font-weight="bold" font-size="9.00">Preschool</text>
<polygon fill="none" stroke="black" points="84,-84.38 84,-109.62 138.5,-109.62 138.5,-84.38 84,-84.38"/>
<text text-anchor="start" x="91" y="-95.08" font-family="Times New Roman,serif" font-weight="bold" font-size="9.00">University</text>
<polygon fill="none" stroke="black" points="30.75,-83.38 30.75,-110.62 139.5,-110.62 139.5,-83.38 30.75,-83.38"/>
</g>
<!-- n_2_3_6&#45;&gt;n_2_6 -->
<g id="edge5" class="edge">
<title>n_2_3_6&#45;&gt;n_2_6</title>
<path fill="none" stroke="black" d="M135.56,-158.22C126.76,-147.71 115.83,-134.66 106.4,-123.41"/>
<polygon fill="black" stroke="black" points="109.31,-121.42 100.2,-116 103.94,-125.92 109.31,-121.42"/>
</g>
<!-- n_3 -->
<g id="node9" class="node">
<title>n_3</title>
<polygon fill="none" stroke="black" points="185.75,-84.38 185.75,-109.62 254.5,-109.62 254.5,-84.38 185.75,-84.38"/>
<text text-anchor="start" x="192.75" y="-95.08" font-family="Times New Roman,serif" font-weight="bold" font-size="9.00">Secondary (P)</text>
<polygon fill="none" stroke="black" points="184.75,-83.38 184.75,-110.62 255.5,-110.62 255.5,-83.38 184.75,-83.38"/>
</g>
<!-- n_2_3_6&#45;&gt;n_3 -->
<g id="edge8" class="edge">
<title>n_2_3_6&#45;&gt;n_3</title>
<path fill="none" stroke="black" d="M168.93,-158.22C177.87,-147.71 188.96,-134.66 198.53,-123.41"/>
<polygon fill="black" stroke="black" points="201.02,-125.88 204.83,-116 195.68,-121.35 201.02,-125.88"/>
</g>
<!-- n_2 -->
<g id="node7" class="node">
<title>n_2</title>
<polygon fill="none" stroke="black" points="9,-5.38 9,-30.62 61.25,-30.62 61.25,-5.38 9,-5.38"/>
<text text-anchor="start" x="16" y="-16.07" font-family="Times New Roman,serif" font-weight="bold" font-size="9.00">Preschool</text>
<polygon fill="none" stroke="black" points="8,-4.38 8,-31.62 62.25,-31.62 62.25,-4.38 8,-4.38"/>
</g>
<!-- n_2_6&#45;&gt;n_2 -->
<g id="edge6" class="edge">
<title>n_2_6&#45;&gt;n_2</title>
<path fill="none" stroke="black" d="M74.28,-79.29C67.83,-69.37 59.52,-56.57 52.22,-45.32"/>
<polygon fill="black" stroke="black" points="55.33,-43.69 46.95,-37.21 49.46,-47.5 55.33,-43.69"/>
</g>
<!-- n_6 -->
<g id="node8" class="node">
<title>n_6</title>
<polygon fill="none" stroke="black" points="107.88,-5.38 107.88,-30.62 162.38,-30.62 162.38,-5.38 107.88,-5.38"/>
<text text-anchor="start" x="114.88" y="-16.07" font-family="Times New Roman,serif" font-weight="bold" font-size="9.00">University</text>
<polygon fill="none" stroke="black" points="106.88,-4.38 106.88,-31.62 163.38,-31.62 163.38,-4.38 106.88,-4.38"/>
</g>
<!-- n_2_6&#45;&gt;n_6 -->
<g id="edge7" class="edge">
<title>n_2_6&#45;&gt;n_6</title>
<path fill="none" stroke="black" d="M95.97,-79.29C102.42,-69.37 110.73,-56.57 118.03,-45.32"/>
<polygon fill="black" stroke="black" points="120.79,-47.5 123.3,-37.21 114.92,-43.69 120.79,-47.5"/>
</g>
</g>
</svg>
