<?xml version="1.0" encoding="UTF-8" standalone="no"?>
<!DOCTYPE svg PUBLIC "-//W3C//DTD SVG 1.1//EN"
 "http://www.w3.org/Graphics/SVG/1.1/DTD/svg11.dtd">
<!-- Generated by graphviz version 10.0.1 (20240210.2158)
 -->
<!-- Title: ND Pages: 1 -->
<svg width="663pt" height="517pt"
 viewBox="0.00 0.00 662.62 517.00" xmlns="http://www.w3.org/2000/svg" xmlns:xlink="http://www.w3.org/1999/xlink">
<g id="graph0" class="graph" transform="scale(1 1) rotate(0) translate(4 513)">
<title>ND</title>
<polygon fill="white" stroke="none" points="-4,4 -4,-513 658.62,-513 658.62,4 -4,4"/>
<!-- n_0_1_2_3_4_5_6 -->
<g id="node1" class="node">
<title>n_0_1_2_3_4_5_6</title>
<polygon fill="none" stroke="black" points="354.75,-445 354.75,-504 416,-504 416,-445 354.75,-445"/>
<text text-anchor="start" x="362.5" y="-489.45" font-family="Times New Roman,serif" font-weight="bold" font-size="9.00">Primary (P)</text>
<text text-anchor="start" x="361.75" y="-480.45" font-family="Times New Roman,serif" font-weight="bold" font-size="9.00">Primary (G)</text>
<text text-anchor="start" x="366.25" y="-471.45" font-family="Times New Roman,serif" font-weight="bold" font-size="9.00">Preschool</text>
<text text-anchor="start" x="365.88" y="-462.45" font-family="Times New Roman,serif" font-weight="bold" font-size="9.00">Technical</text>
<text text-anchor="start" x="365.12" y="-453.45" font-family="Times New Roman,serif" font-weight="bold" font-size="9.00">University</text>
<polygon fill="none" stroke="black" points="416,-445 416,-504 486.25,-504 486.25,-445 416,-445"/>
<text text-anchor="start" x="423.75" y="-475.95" font-family="Times New Roman,serif" font-weight="bold" font-size="9.00">Secondary (P)</text>
<text text-anchor="start" x="423" y="-466.95" font-family="Times New Roman,serif" font-weight="bold" font-size="9.00">Secondary (G)</text>
<polygon fill="none" stroke="black" points="353.75,-444 353.75,-505 487.25,-505 487.25,-444 353.75,-444"/>
</g>
<!-- n_0_1_2_5_6 -->
<g id="node2" class="node">
<title>n_0_1_2_5_6</title>
<polygon fill="none" stroke="black" points="272,-342 272,-392 333.25,-392 333.25,-342 272,-342"/>
<text text-anchor="start" x="279" y="-377.45" font-family="Times New Roman,serif" font-weight="bold" font-size="9.00">Primary (G)</text>
<text text-anchor="start" x="283.5" y="-368.45" font-family="Times New Roman,serif" font-weight="bold" font-size="9.00">Preschool</text>
<text text-anchor="start" x="283.12" y="-359.45" font-family="Times New Roman,serif" font-weight="bold" font-size="9.00">Technical</text>
<text text-anchor="start" x="282.38" y="-350.45" font-family="Times New Roman,serif" font-weight="bold" font-size="9.00">University</text>
<polygon fill="none" stroke="black" points="333.25,-342 333.25,-392 393,-392 393,-342 333.25,-342"/>
<text text-anchor="start" x="340.25" y="-365.07" font-family="Times New Roman,serif" font-weight="bold" font-size="9.00">Primary (P)</text>
<polygon fill="none" stroke="black" points="271,-341 271,-393 394,-393 394,-341 271,-341"/>
</g>
<!-- n_0_1_2_3_4_5_6&#45;&gt;n_0_1_2_5_6 -->
<g id="edge1" class="edge">
<title>n_0_1_2_3_4_5_6&#45;&gt;n_0_1_2_5_6</title>
<path fill="none" stroke="black" d="M392.66,-440.12C383.52,-429.16 373.3,-416.91 363.92,-405.66"/>
<polygon fill="black" stroke="black" points="366.67,-403.5 357.57,-398.06 361.29,-407.98 366.67,-403.5"/>
</g>
<!-- n_3_4 -->
<g id="node11" class="node">
<title>n_3_4</title>
<polygon fill="none" stroke="black" points="440,-354.38 440,-379.62 508.75,-379.62 508.75,-354.38 440,-354.38"/>
<text text-anchor="start" x="447" y="-365.07" font-family="Times New Roman,serif" font-weight="bold" font-size="9.00">Secondary (P)</text>
<polygon fill="none" stroke="black" points="508.75,-354.38 508.75,-379.62 579,-379.62 579,-354.38 508.75,-354.38"/>
<text text-anchor="start" x="515.75" y="-365.07" font-family="Times New Roman,serif" font-weight="bold" font-size="9.00">Secondary (G)</text>
<polygon fill="none" stroke="black" points="439,-353.38 439,-380.62 580,-380.62 580,-353.38 439,-353.38"/>
</g>
<!-- n_0_1_2_3_4_5_6&#45;&gt;n_3_4 -->
<g id="edge10" class="edge">
<title>n_0_1_2_3_4_5_6&#45;&gt;n_3_4</title>
<path fill="none" stroke="black" d="M448.66,-440.12C461.36,-425.06 476.12,-407.57 487.92,-393.58"/>
<polygon fill="black" stroke="black" points="490.45,-396.01 494.22,-386.11 485.1,-391.49 490.45,-396.01"/>
</g>
<!-- n_1_2_5_6 -->
<g id="node3" class="node">
<title>n_1_2_5_6</title>
<polygon fill="none" stroke="black" points="158.75,-248 158.75,-289 220,-289 220,-248 158.75,-248"/>
<text text-anchor="start" x="165.75" y="-274.45" font-family="Times New Roman,serif" font-weight="bold" font-size="9.00">Primary (G)</text>
<text text-anchor="start" x="169.88" y="-265.45" font-family="Times New Roman,serif" font-weight="bold" font-size="9.00">Technical</text>
<text text-anchor="start" x="169.12" y="-256.45" font-family="Times New Roman,serif" font-weight="bold" font-size="9.00">University</text>
<polygon fill="none" stroke="black" points="220,-248 220,-289 272.25,-289 272.25,-248 220,-248"/>
<text text-anchor="start" x="227" y="-266.57" font-family="Times New Roman,serif" font-weight="bold" font-size="9.00">Preschool</text>
<polygon fill="none" stroke="black" points="157.75,-247 157.75,-290 273.25,-290 273.25,-247 157.75,-247"/>
</g>
<!-- n_0_1_2_5_6&#45;&gt;n_1_2_5_6 -->
<g id="edge2" class="edge">
<title>n_0_1_2_5_6&#45;&gt;n_1_2_5_6</title>
<path fill="none" stroke="black" d="M297.4,-337.05C283.57,-325.65 267.66,-312.52 253.56,-300.89"/>
<polygon fill="black" stroke="black" points="256.16,-298.5 246.22,-294.84 251.71,-303.9 256.16,-298.5"/>
</g>
<!-- n_0 -->
<g id="node10" class="node">
<title>n_0</title>
<polygon fill="none" stroke="black" points="319.62,-255.88 319.62,-281.12 379.38,-281.12 379.38,-255.88 319.62,-255.88"/>
<text text-anchor="start" x="326.62" y="-266.57" font-family="Times New Roman,serif" font-weight="bold" font-size="9.00">Primary (P)</text>
<polygon fill="none" stroke="black" points="318.62,-254.88 318.62,-282.12 380.38,-282.12 380.38,-254.88 318.62,-254.88"/>
</g>
<!-- n_0_1_2_5_6&#45;&gt;n_0 -->
<g id="edge9" class="edge">
<title>n_0_1_2_5_6&#45;&gt;n_0</title>
<path fill="none" stroke="black" d="M337.6,-337.05C339.81,-324.51 342.38,-309.89 344.57,-297.47"/>
<polygon fill="black" stroke="black" points="347.98,-298.31 346.27,-287.86 341.08,-297.1 347.98,-298.31"/>
</g>
<!-- n_1_5_6 -->
<g id="node4" class="node">
<title>n_1_5_6</title>
<polygon fill="none" stroke="black" points="92.62,-163 92.62,-195 147.12,-195 147.12,-163 92.62,-163"/>
<text text-anchor="start" x="100.38" y="-180.45" font-family="Times New Roman,serif" font-weight="bold" font-size="9.00">Technical</text>
<text text-anchor="start" x="99.62" y="-171.45" font-family="Times New Roman,serif" font-weight="bold" font-size="9.00">University</text>
<polygon fill="none" stroke="black" points="147.12,-163 147.12,-195 208.38,-195 208.38,-163 147.12,-163"/>
<text text-anchor="start" x="154.12" y="-177.07" font-family="Times New Roman,serif" font-weight="bold" font-size="9.00">Primary (G)</text>
<polygon fill="none" stroke="black" points="91.62,-162 91.62,-196 209.38,-196 209.38,-162 91.62,-162"/>
</g>
<!-- n_1_2_5_6&#45;&gt;n_1_5_6 -->
<g id="edge3" class="edge">
<title>n_1_2_5_6&#45;&gt;n_1_5_6</title>
<path fill="none" stroke="black" d="M197.39,-243.13C189.47,-232.46 180.12,-219.87 171.85,-208.75"/>
<polygon fill="black" stroke="black" points="174.9,-206.98 166.13,-201.04 169.28,-211.16 174.9,-206.98"/>
</g>
<!-- n_2 -->
<g id="node9" class="node">
<title>n_2</title>
<polygon fill="none" stroke="black" points="255.38,-166.38 255.38,-191.62 307.62,-191.62 307.62,-166.38 255.38,-166.38"/>
<text text-anchor="start" x="262.38" y="-177.07" font-family="Times New Roman,serif" font-weight="bold" font-size="9.00">Preschool</text>
<polygon fill="none" stroke="black" points="254.38,-165.38 254.38,-192.62 308.62,-192.62 308.62,-165.38 254.38,-165.38"/>
</g>
<!-- n_1_2_5_6&#45;&gt;n_2 -->
<g id="edge8" class="edge">
<title>n_1_2_5_6&#45;&gt;n_2</title>
<path fill="none" stroke="black" d="M233.88,-243.13C242.67,-231.48 253.19,-217.53 262.11,-205.71"/>
<polygon fill="black" stroke="black" points="264.71,-208.07 267.94,-197.98 259.12,-203.85 264.71,-208.07"/>
</g>
<!-- n_5_6 -->
<g id="node5" class="node">
<title>n_5_6</title>
<polygon fill="none" stroke="black" points="31.75,-84.38 31.75,-109.62 84.75,-109.62 84.75,-84.38 31.75,-84.38"/>
<text text-anchor="start" x="38.75" y="-95.08" font-family="Times New Roman,serif" font-weight="bold" font-size="9.00">Technical</text>
<polygon fill="none" stroke="black" points="84.75,-84.38 84.75,-109.62 139.25,-109.62 139.25,-84.38 84.75,-84.38"/>
<text text-anchor="start" x="91.75" y="-95.08" font-family="Times New Roman,serif" font-weight="bold" font-size="9.00">University</text>
<polygon fill="none" stroke="black" points="30.75,-83.38 30.75,-110.62 140.25,-110.62 140.25,-83.38 30.75,-83.38"/>
</g>
<!-- n_1_5_6&#45;&gt;n_5_6 -->
<g id="edge4" class="edge">
<title>n_1_5_6&#45;&gt;n_5_6</title>
<path fill="none" stroke="black" d="M134.43,-158.22C125.97,-147.81 115.5,-134.92 106.42,-123.74"/>
<polygon fill="black" stroke="black" points="109.16,-121.57 100.14,-116.02 103.73,-125.99 109.16,-121.57"/>
</g>
<!-- n_1 -->
<g id="node8" class="node">
<title>n_1</title>
<polygon fill="none" stroke="black" points="185.88,-84.38 185.88,-109.62 247.12,-109.62 247.12,-84.38 185.88,-84.38"/>
<text text-anchor="start" x="192.88" y="-95.08" font-family="Times New Roman,serif" font-weight="bold" font-size="9.00">Primary (G)</text>
<polygon fill="none" stroke="black" points="184.88,-83.38 184.88,-110.62 248.12,-110.62 248.12,-83.38 184.88,-83.38"/>
</g>
<!-- n_1_5_6&#45;&gt;n_1 -->
<g id="edge7" class="edge">
<title>n_1_5_6&#45;&gt;n_1</title>
<path fill="none" stroke="black" d="M166.81,-158.22C175.49,-147.71 186.25,-134.66 195.54,-123.41"/>
<polygon fill="black" stroke="black" points="197.98,-125.95 201.64,-116.01 192.58,-121.5 197.98,-125.95"/>
</g>
<!-- n_5 -->
<g id="node6" class="node">
<title>n_5</title>
<polygon fill="none" stroke="black" points="9,-5.38 9,-30.62 62,-30.62 62,-5.38 9,-5.38"/>
<text text-anchor="start" x="16" y="-16.07" font-family="Times New Roman,serif" font-weight="bold" font-size="9.00">Technical</text>
<polygon fill="none" stroke="black" points="8,-4.38 8,-31.62 63,-31.62 63,-4.38 8,-4.38"/>
</g>
<!-- n_5_6&#45;&gt;n_5 -->
<g id="edge5" class="edge">
<title>n_5_6&#45;&gt;n_5</title>
<path fill="none" stroke="black" d="M74.65,-79.29C68.21,-69.37 59.9,-56.57 52.59,-45.32"/>
<polygon fill="black" stroke="black" points="55.71,-43.69 47.33,-37.21 49.84,-47.5 55.71,-43.69"/>
</g>
<!-- n_6 -->
<g id="node7" class="node">
<title>n_6</title>
<polygon fill="none" stroke="black" points="109.25,-5.38 109.25,-30.62 163.75,-30.62 163.75,-5.38 109.25,-5.38"/>
<text text-anchor="start" x="116.25" y="-16.07" font-family="Times New Roman,serif" font-weight="bold" font-size="9.00">University</text>
<polygon fill="none" stroke="black" points="108.25,-4.38 108.25,-31.62 164.75,-31.62 164.75,-4.38 108.25,-4.38"/>
</g>
<!-- n_5_6&#45;&gt;n_6 -->
<g id="edge6" class="edge">
<title>n_5_6&#45;&gt;n_6</title>
<path fill="none" stroke="black" d="M96.57,-79.29C103.14,-69.37 111.61,-56.57 119.07,-45.32"/>
<polygon fill="black" stroke="black" points="121.84,-47.47 124.44,-37.2 116,-43.61 121.84,-47.47"/>
</g>
<!-- n_3 -->
<g id="node12" class="node">
<title>n_3</title>
<polygon fill="none" stroke="black" points="459.12,-255.88 459.12,-281.12 527.88,-281.12 527.88,-255.88 459.12,-255.88"/>
<text text-anchor="start" x="466.12" y="-266.57" font-family="Times New Roman,serif" font-weight="bold" font-size="9.00">Secondary (P)</text>
<polygon fill="none" stroke="black" points="458.12,-254.88 458.12,-282.12 528.88,-282.12 528.88,-254.88 458.12,-254.88"/>
</g>
<!-- n_3_4&#45;&gt;n_3 -->
<g id="edge11" class="edge">
<title>n_3_4&#45;&gt;n_3</title>
<path fill="none" stroke="black" d="M506.71,-349.19C504.36,-335.03 500.95,-314.46 498.19,-297.76"/>
<polygon fill="black" stroke="black" points="501.64,-297.23 496.56,-287.93 494.74,-298.37 501.64,-297.23"/>
</g>
<!-- n_4 -->
<g id="node13" class="node">
<title>n_4</title>
<polygon fill="none" stroke="black" points="575.38,-255.88 575.38,-281.12 645.62,-281.12 645.62,-255.88 575.38,-255.88"/>
<text text-anchor="start" x="582.38" y="-266.57" font-family="Times New Roman,serif" font-weight="bold" font-size="9.00">Secondary (G)</text>
<polygon fill="none" stroke="black" points="574.38,-254.88 574.38,-282.12 646.62,-282.12 646.62,-254.88 574.38,-254.88"/>
</g>
<!-- n_3_4&#45;&gt;n_4 -->
<g id="edge12" class="edge">
<title>n_3_4&#45;&gt;n_4</title>
<path fill="none" stroke="black" d="M527.09,-349.19C543.07,-333.93 566.83,-311.22 584.91,-293.95"/>
<polygon fill="black" stroke="black" points="586.86,-296.92 591.68,-287.49 582.03,-291.86 586.86,-296.92"/>
</g>
</g>
</svg>
