<?xml version="1.0" encoding="UTF-8" standalone="no"?>
<!DOCTYPE svg PUBLIC "-//W3C//DTD SVG 1.1//EN"
 "http://www.w3.org/Graphics/SVG/1.1/DTD/svg11.dtd">
<!-- Generated by graphviz version 10.0.1 (20240210.2158)
 -->
<!-- Title: ND Pages: 1 -->
<svg width="552pt" height="638pt"
 viewBox="0.00 0.00 551.50 638.00" xmlns="http://www.w3.org/2000/svg" xmlns:xlink="http://www.w3.org/1999/xlink">
<g id="graph0" class="graph" transform="scale(1 1) rotate(0) translate(4 634)">
<title>ND</title>
<polygon fill="white" stroke="none" points="-4,4 -4,-634 547.5,-634 547.5,4 -4,4"/>
<!-- n_0_1_2_3_4_5_6 -->
<g id="node1" class="node">
<title>n_0_1_2_3_4_5_6</title>
<polygon fill="none" stroke="black" points="356.62,-557 356.62,-625 426.88,-625 426.88,-557 356.62,-557"/>
<text text-anchor="start" x="368.88" y="-610.45" font-family="Times New Roman,serif" font-weight="bold" font-size="9.00">Primary (P)</text>
<text text-anchor="start" x="368.12" y="-601.45" font-family="Times New Roman,serif" font-weight="bold" font-size="9.00">Primary (G)</text>
<text text-anchor="start" x="372.62" y="-592.45" font-family="Times New Roman,serif" font-weight="bold" font-size="9.00">Preschool</text>
<text text-anchor="start" x="363.62" y="-583.45" font-family="Times New Roman,serif" font-weight="bold" font-size="9.00">Secondary (G)</text>
<text text-anchor="start" x="372.25" y="-574.45" font-family="Times New Roman,serif" font-weight="bold" font-size="9.00">Technical</text>
<text text-anchor="start" x="371.5" y="-565.45" font-family="Times New Roman,serif" font-weight="bold" font-size="9.00">University</text>
<polygon fill="none" stroke="black" points="426.88,-557 426.88,-625 495.62,-625 495.62,-557 426.88,-557"/>
<text text-anchor="start" x="433.88" y="-589.08" font-family="Times New Roman,serif" font-weight="bold" font-size="9.00">Secondary (P)</text>
<polygon fill="none" stroke="black" points="355.62,-556 355.62,-626 496.62,-626 496.62,-556 355.62,-556"/>
</g>
<!-- n_0_1_2_4_5_6 -->
<g id="node2" class="node">
<title>n_0_1_2_4_5_6</title>
<polygon fill="none" stroke="black" points="287.38,-445 287.38,-504 348.62,-504 348.62,-445 287.38,-445"/>
<text text-anchor="start" x="295.12" y="-489.45" font-family="Times New Roman,serif" font-weight="bold" font-size="9.00">Primary (P)</text>
<text text-anchor="start" x="294.38" y="-480.45" font-family="Times New Roman,serif" font-weight="bold" font-size="9.00">Primary (G)</text>
<text text-anchor="start" x="298.88" y="-471.45" font-family="Times New Roman,serif" font-weight="bold" font-size="9.00">Preschool</text>
<text text-anchor="start" x="298.5" y="-462.45" font-family="Times New Roman,serif" font-weight="bold" font-size="9.00">Technical</text>
<text text-anchor="start" x="297.75" y="-453.45" font-family="Times New Roman,serif" font-weight="bold" font-size="9.00">University</text>
<polygon fill="none" stroke="black" points="348.62,-445 348.62,-504 418.88,-504 418.88,-445 348.62,-445"/>
<text text-anchor="start" x="355.62" y="-472.57" font-family="Times New Roman,serif" font-weight="bold" font-size="9.00">Secondary (G)</text>
<polygon fill="none" stroke="black" points="286.38,-444 286.38,-505 419.88,-505 419.88,-444 286.38,-444"/>
</g>
<!-- n_0_1_2_3_4_5_6&#45;&gt;n_0_1_2_4_5_6 -->
<g id="edge1" class="edge">
<title>n_0_1_2_3_4_5_6&#45;&gt;n_0_1_2_4_5_6</title>
<path fill="none" stroke="black" d="M402.02,-552.19C395.08,-541.31 387.47,-529.36 380.35,-518.21"/>
<polygon fill="black" stroke="black" points="383.4,-516.48 375.07,-509.93 377.5,-520.24 383.4,-516.48"/>
</g>
<!-- n_3 -->
<g id="node13" class="node">
<title>n_3</title>
<polygon fill="none" stroke="black" points="465.75,-461.88 465.75,-487.12 534.5,-487.12 534.5,-461.88 465.75,-461.88"/>
<text text-anchor="start" x="472.75" y="-472.57" font-family="Times New Roman,serif" font-weight="bold" font-size="9.00">Secondary (P)</text>
<polygon fill="none" stroke="black" points="464.75,-460.88 464.75,-488.12 535.5,-488.12 535.5,-460.88 464.75,-460.88"/>
</g>
<!-- n_0_1_2_3_4_5_6&#45;&gt;n_3 -->
<g id="edge12" class="edge">
<title>n_0_1_2_3_4_5_6&#45;&gt;n_3</title>
<path fill="none" stroke="black" d="M450.56,-552.19C461.16,-535.78 473.33,-516.96 482.95,-502.07"/>
<polygon fill="black" stroke="black" points="485.85,-504.03 488.34,-493.73 479.97,-500.23 485.85,-504.03"/>
</g>
<!-- n_0_1_2_5_6 -->
<g id="node3" class="node">
<title>n_0_1_2_5_6</title>
<polygon fill="none" stroke="black" points="221.62,-342 221.62,-392 281.38,-392 281.38,-342 221.62,-342"/>
<text text-anchor="start" x="228.62" y="-377.45" font-family="Times New Roman,serif" font-weight="bold" font-size="9.00">Primary (P)</text>
<text text-anchor="start" x="232.38" y="-368.45" font-family="Times New Roman,serif" font-weight="bold" font-size="9.00">Preschool</text>
<text text-anchor="start" x="232" y="-359.45" font-family="Times New Roman,serif" font-weight="bold" font-size="9.00">Technical</text>
<text text-anchor="start" x="231.25" y="-350.45" font-family="Times New Roman,serif" font-weight="bold" font-size="9.00">University</text>
<polygon fill="none" stroke="black" points="281.38,-342 281.38,-392 342.62,-392 342.62,-342 281.38,-342"/>
<text text-anchor="start" x="288.38" y="-365.07" font-family="Times New Roman,serif" font-weight="bold" font-size="9.00">Primary (G)</text>
<polygon fill="none" stroke="black" points="220.62,-341 220.62,-393 343.62,-393 343.62,-341 220.62,-341"/>
</g>
<!-- n_0_1_2_4_5_6&#45;&gt;n_0_1_2_5_6 -->
<g id="edge2" class="edge">
<title>n_0_1_2_4_5_6&#45;&gt;n_0_1_2_5_6</title>
<path fill="none" stroke="black" d="M330.66,-440.12C323.43,-429.38 315.37,-417.4 307.92,-406.33"/>
<polygon fill="black" stroke="black" points="310.91,-404.5 302.42,-398.15 305.1,-408.4 310.91,-404.5"/>
</g>
<!-- n_4 -->
<g id="node12" class="node">
<title>n_4</title>
<polygon fill="none" stroke="black" points="390,-354.38 390,-379.62 460.25,-379.62 460.25,-354.38 390,-354.38"/>
<text text-anchor="start" x="397" y="-365.07" font-family="Times New Roman,serif" font-weight="bold" font-size="9.00">Secondary (G)</text>
<polygon fill="none" stroke="black" points="389,-353.38 389,-380.62 461.25,-380.62 461.25,-353.38 389,-353.38"/>
</g>
<!-- n_0_1_2_4_5_6&#45;&gt;n_4 -->
<g id="edge11" class="edge">
<title>n_0_1_2_4_5_6&#45;&gt;n_4</title>
<path fill="none" stroke="black" d="M375.91,-440.12C385.98,-425.35 397.67,-408.23 407.12,-394.38"/>
<polygon fill="black" stroke="black" points="409.96,-396.43 412.7,-386.2 404.18,-392.49 409.96,-396.43"/>
</g>
<!-- n_0_2_5_6 -->
<g id="node4" class="node">
<title>n_0_2_5_6</title>
<polygon fill="none" stroke="black" points="158.75,-248 158.75,-289 218.5,-289 218.5,-248 158.75,-248"/>
<text text-anchor="start" x="165.75" y="-274.45" font-family="Times New Roman,serif" font-weight="bold" font-size="9.00">Primary (P)</text>
<text text-anchor="start" x="169.5" y="-265.45" font-family="Times New Roman,serif" font-weight="bold" font-size="9.00">Preschool</text>
<text text-anchor="start" x="168.38" y="-256.45" font-family="Times New Roman,serif" font-weight="bold" font-size="9.00">University</text>
<polygon fill="none" stroke="black" points="218.5,-248 218.5,-289 271.5,-289 271.5,-248 218.5,-248"/>
<text text-anchor="start" x="225.5" y="-266.57" font-family="Times New Roman,serif" font-weight="bold" font-size="9.00">Technical</text>
<polygon fill="none" stroke="black" points="157.75,-247 157.75,-290 272.5,-290 272.5,-247 157.75,-247"/>
</g>
<!-- n_0_1_2_5_6&#45;&gt;n_0_2_5_6 -->
<g id="edge3" class="edge">
<title>n_0_1_2_5_6&#45;&gt;n_0_2_5_6</title>
<path fill="none" stroke="black" d="M262.02,-337.05C254.63,-326.4 246.19,-314.25 238.53,-303.22"/>
<polygon fill="black" stroke="black" points="241.49,-301.34 232.91,-295.12 235.74,-305.33 241.49,-301.34"/>
</g>
<!-- n_1 -->
<g id="node11" class="node">
<title>n_1</title>
<polygon fill="none" stroke="black" points="318.5,-255.88 318.5,-281.12 379.75,-281.12 379.75,-255.88 318.5,-255.88"/>
<text text-anchor="start" x="325.5" y="-266.57" font-family="Times New Roman,serif" font-weight="bold" font-size="9.00">Primary (G)</text>
<polygon fill="none" stroke="black" points="317.5,-254.88 317.5,-282.12 380.75,-282.12 380.75,-254.88 317.5,-254.88"/>
</g>
<!-- n_0_1_2_5_6&#45;&gt;n_1 -->
<g id="edge10" class="edge">
<title>n_0_1_2_5_6&#45;&gt;n_1</title>
<path fill="none" stroke="black" d="M302.23,-337.05C311.38,-323.86 322.13,-308.38 331.03,-295.56"/>
<polygon fill="black" stroke="black" points="333.72,-297.82 336.55,-287.61 327.97,-293.83 333.72,-297.82"/>
</g>
<!-- n_0_2_6 -->
<g id="node5" class="node">
<title>n_0_2_6</title>
<polygon fill="none" stroke="black" points="93,-163 93,-195 147.5,-195 147.5,-163 93,-163"/>
<text text-anchor="start" x="101.12" y="-180.45" font-family="Times New Roman,serif" font-weight="bold" font-size="9.00">Preschool</text>
<text text-anchor="start" x="100" y="-171.45" font-family="Times New Roman,serif" font-weight="bold" font-size="9.00">University</text>
<polygon fill="none" stroke="black" points="147.5,-163 147.5,-195 207.25,-195 207.25,-163 147.5,-163"/>
<text text-anchor="start" x="154.5" y="-177.07" font-family="Times New Roman,serif" font-weight="bold" font-size="9.00">Primary (P)</text>
<polygon fill="none" stroke="black" points="92,-162 92,-196 208.25,-196 208.25,-162 92,-162"/>
</g>
<!-- n_0_2_5_6&#45;&gt;n_0_2_6 -->
<g id="edge4" class="edge">
<title>n_0_2_5_6&#45;&gt;n_0_2_6</title>
<path fill="none" stroke="black" d="M197.02,-243.13C189.1,-232.46 179.74,-219.87 171.48,-208.75"/>
<polygon fill="black" stroke="black" points="174.53,-206.98 165.76,-201.04 168.91,-211.16 174.53,-206.98"/>
</g>
<!-- n_5 -->
<g id="node10" class="node">
<title>n_5</title>
<polygon fill="none" stroke="black" points="254.62,-166.38 254.62,-191.62 307.62,-191.62 307.62,-166.38 254.62,-166.38"/>
<text text-anchor="start" x="261.62" y="-177.07" font-family="Times New Roman,serif" font-weight="bold" font-size="9.00">Technical</text>
<polygon fill="none" stroke="black" points="253.62,-165.38 253.62,-192.62 308.62,-192.62 308.62,-165.38 253.62,-165.38"/>
</g>
<!-- n_0_2_5_6&#45;&gt;n_5 -->
<g id="edge9" class="edge">
<title>n_0_2_5_6&#45;&gt;n_5</title>
<path fill="none" stroke="black" d="M233.51,-243.13C242.3,-231.48 252.82,-217.53 261.73,-205.71"/>
<polygon fill="black" stroke="black" points="264.34,-208.07 267.56,-197.98 258.75,-203.85 264.34,-208.07"/>
</g>
<!-- n_2_6 -->
<g id="node6" class="node">
<title>n_2_6</title>
<polygon fill="none" stroke="black" points="31.75,-84.38 31.75,-109.62 84,-109.62 84,-84.38 31.75,-84.38"/>
<text text-anchor="start" x="38.75" y="-95.08" font-family="Times New Roman,serif" font-weight="bold" font-size="9.00">Preschool</text>
<polygon fill="none" stroke="black" points="84,-84.38 84,-109.62 138.5,-109.62 138.5,-84.38 84,-84.38"/>
<text text-anchor="start" x="91" y="-95.08" font-family="Times New Roman,serif" font-weight="bold" font-size="9.00">University</text>
<polygon fill="none" stroke="black" points="30.75,-83.38 30.75,-110.62 139.5,-110.62 139.5,-83.38 30.75,-83.38"/>
</g>
<!-- n_0_2_6&#45;&gt;n_2_6 -->
<g id="edge5" class="edge">
<title>n_0_2_6&#45;&gt;n_2_6</title>
<path fill="none" stroke="black" d="M134.06,-158.22C125.6,-147.81 115.12,-134.92 106.04,-123.74"/>
<polygon fill="black" stroke="black" points="108.79,-121.57 99.77,-116.02 103.35,-125.99 108.79,-121.57"/>
</g>
<!-- n_0 -->
<g id="node9" class="node">
<title>n_0</title>
<polygon fill="none" stroke="black" points="185.25,-84.38 185.25,-109.62 245,-109.62 245,-84.38 185.25,-84.38"/>
<text text-anchor="start" x="192.25" y="-95.08" font-family="Times New Roman,serif" font-weight="bold" font-size="9.00">Primary (P)</text>
<polygon fill="none" stroke="black" points="184.25,-83.38 184.25,-110.62 246,-110.62 246,-83.38 184.25,-83.38"/>
</g>
<!-- n_0_2_6&#45;&gt;n_0 -->
<g id="edge8" class="edge">
<title>n_0_2_6&#45;&gt;n_0</title>
<path fill="none" stroke="black" d="M166.19,-158.22C174.65,-147.81 185.13,-134.92 194.21,-123.74"/>
<polygon fill="black" stroke="black" points="196.9,-125.99 200.48,-116.02 191.46,-121.57 196.9,-125.99"/>
</g>
<!-- n_2 -->
<g id="node7" class="node">
<title>n_2</title>
<polygon fill="none" stroke="black" points="9,-5.38 9,-30.62 61.25,-30.62 61.25,-5.38 9,-5.38"/>
<text text-anchor="start" x="16" y="-16.07" font-family="Times New Roman,serif" font-weight="bold" font-size="9.00">Preschool</text>
<polygon fill="none" stroke="black" points="8,-4.38 8,-31.62 62.25,-31.62 62.25,-4.38 8,-4.38"/>
</g>
<!-- n_2_6&#45;&gt;n_2 -->
<g id="edge6" class="edge">
<title>n_2_6&#45;&gt;n_2</title>
<path fill="none" stroke="black" d="M74.28,-79.29C67.83,-69.37 59.52,-56.57 52.22,-45.32"/>
<polygon fill="black" stroke="black" points="55.33,-43.69 46.95,-37.21 49.46,-47.5 55.33,-43.69"/>
</g>
<!-- n_6 -->
<g id="node8" class="node">
<title>n_6</title>
<polygon fill="none" stroke="black" points="107.88,-5.38 107.88,-30.62 162.38,-30.62 162.38,-5.38 107.88,-5.38"/>
<text text-anchor="start" x="114.88" y="-16.07" font-family="Times New Roman,serif" font-weight="bold" font-size="9.00">University</text>
<polygon fill="none" stroke="black" points="106.88,-4.38 106.88,-31.62 163.38,-31.62 163.38,-4.38 106.88,-4.38"/>
</g>
<!-- n_2_6&#45;&gt;n_6 -->
<g id="edge7" class="edge">
<title>n_2_6&#45;&gt;n_6</title>
<path fill="none" stroke="black" d="M95.97,-79.29C102.42,-69.37 110.73,-56.57 118.03,-45.32"/>
<polygon fill="black" stroke="black" points="120.79,-47.5 123.3,-37.21 114.92,-43.69 120.79,-47.5"/>
</g>
</g>
</svg>
