<?xml version="1.0" encoding="UTF-8" standalone="no"?>
<!DOCTYPE svg PUBLIC "-//W3C//DTD SVG 1.1//EN"
 "http://www.w3.org/Graphics/SVG/1.1/DTD/svg11.dtd">
<!-- Generated by graphviz version 10.0.1 (20240210.2158)
 -->
<!-- Title: ND Pages: 1 -->
<svg width="540pt" height="544pt"
 viewBox="0.00 0.00 540.12 544.00" xmlns="http://www.w3.org/2000/svg" xmlns:xlink="http://www.w3.org/1999/xlink">
<g id="graph0" class="graph" transform="scale(1 1) rotate(0) translate(4 540)">
<title>ND</title>
<polygon fill="white" stroke="none" points="-4,4 -4,-540 536.12,-540 536.12,4 -4,4"/>
<!-- n_0_1_2_3_4_5_6 -->
<g id="node1" class="node">
<title>n_0_1_2_3_4_5_6</title>
<polygon fill="none" stroke="black" points="365,-463 365,-531 435.25,-531 435.25,-463 365,-463"/>
<text text-anchor="start" x="377.25" y="-516.45" font-family="Times New Roman,serif" font-weight="bold" font-size="9.00">Primary (P)</text>
<text text-anchor="start" x="376.5" y="-507.45" font-family="Times New Roman,serif" font-weight="bold" font-size="9.00">Primary (G)</text>
<text text-anchor="start" x="381" y="-498.45" font-family="Times New Roman,serif" font-weight="bold" font-size="9.00">Preschool</text>
<text text-anchor="start" x="372.75" y="-489.45" font-family="Times New Roman,serif" font-weight="bold" font-size="9.00">Secondary (P)</text>
<text text-anchor="start" x="372" y="-480.45" font-family="Times New Roman,serif" font-weight="bold" font-size="9.00">Secondary (G)</text>
<text text-anchor="start" x="379.88" y="-471.45" font-family="Times New Roman,serif" font-weight="bold" font-size="9.00">University</text>
<polygon fill="none" stroke="black" points="435.25,-463 435.25,-531 488.25,-531 488.25,-463 435.25,-463"/>
<text text-anchor="start" x="442.25" y="-495.07" font-family="Times New Roman,serif" font-weight="bold" font-size="9.00">Technical</text>
<polygon fill="none" stroke="black" points="364,-462 364,-532 489.25,-532 489.25,-462 364,-462"/>
</g>
<!-- n_0_1_2_3_4_6 -->
<g id="node2" class="node">
<title>n_0_1_2_3_4_6</title>
<polygon fill="none" stroke="black" points="292.62,-351 292.62,-410 362.88,-410 362.88,-351 292.62,-351"/>
<text text-anchor="start" x="304.12" y="-395.45" font-family="Times New Roman,serif" font-weight="bold" font-size="9.00">Primary (G)</text>
<text text-anchor="start" x="308.62" y="-386.45" font-family="Times New Roman,serif" font-weight="bold" font-size="9.00">Preschool</text>
<text text-anchor="start" x="300.38" y="-377.45" font-family="Times New Roman,serif" font-weight="bold" font-size="9.00">Secondary (P)</text>
<text text-anchor="start" x="299.62" y="-368.45" font-family="Times New Roman,serif" font-weight="bold" font-size="9.00">Secondary (G)</text>
<text text-anchor="start" x="307.5" y="-359.45" font-family="Times New Roman,serif" font-weight="bold" font-size="9.00">University</text>
<polygon fill="none" stroke="black" points="362.88,-351 362.88,-410 422.62,-410 422.62,-351 362.88,-351"/>
<text text-anchor="start" x="369.88" y="-378.57" font-family="Times New Roman,serif" font-weight="bold" font-size="9.00">Primary (P)</text>
<polygon fill="none" stroke="black" points="291.62,-350 291.62,-411 423.62,-411 423.62,-350 291.62,-350"/>
</g>
<!-- n_0_1_2_3_4_5_6&#45;&gt;n_0_1_2_3_4_6 -->
<g id="edge1" class="edge">
<title>n_0_1_2_3_4_5_6&#45;&gt;n_0_1_2_3_4_6</title>
<path fill="none" stroke="black" d="M403.84,-458.19C397.28,-447.31 390.08,-435.36 383.36,-424.21"/>
<polygon fill="black" stroke="black" points="386.54,-422.71 378.38,-415.95 380.55,-426.32 386.54,-422.71"/>
</g>
<!-- n_5 -->
<g id="node13" class="node">
<title>n_5</title>
<polygon fill="none" stroke="black" points="470.12,-367.88 470.12,-393.12 523.12,-393.12 523.12,-367.88 470.12,-367.88"/>
<text text-anchor="start" x="477.12" y="-378.57" font-family="Times New Roman,serif" font-weight="bold" font-size="9.00">Technical</text>
<polygon fill="none" stroke="black" points="469.12,-366.88 469.12,-394.12 524.12,-394.12 524.12,-366.88 469.12,-366.88"/>
</g>
<!-- n_0_1_2_3_4_5_6&#45;&gt;n_5 -->
<g id="edge12" class="edge">
<title>n_0_1_2_3_4_5_6&#45;&gt;n_5</title>
<path fill="none" stroke="black" d="M449.74,-458.19C459.77,-441.78 471.28,-422.96 480.38,-408.07"/>
<polygon fill="black" stroke="black" points="483.24,-410.11 485.47,-399.75 477.26,-406.46 483.24,-410.11"/>
</g>
<!-- n_1_2_3_4_6 -->
<g id="node3" class="node">
<title>n_1_2_3_4_6</title>
<polygon fill="none" stroke="black" points="215.12,-248 215.12,-298 285.38,-298 285.38,-248 215.12,-248"/>
<text text-anchor="start" x="226.62" y="-283.45" font-family="Times New Roman,serif" font-weight="bold" font-size="9.00">Primary (G)</text>
<text text-anchor="start" x="231.12" y="-274.45" font-family="Times New Roman,serif" font-weight="bold" font-size="9.00">Preschool</text>
<text text-anchor="start" x="222.12" y="-265.45" font-family="Times New Roman,serif" font-weight="bold" font-size="9.00">Secondary (G)</text>
<text text-anchor="start" x="230" y="-256.45" font-family="Times New Roman,serif" font-weight="bold" font-size="9.00">University</text>
<polygon fill="none" stroke="black" points="285.38,-248 285.38,-298 354.12,-298 354.12,-248 285.38,-248"/>
<text text-anchor="start" x="292.38" y="-271.07" font-family="Times New Roman,serif" font-weight="bold" font-size="9.00">Secondary (P)</text>
<polygon fill="none" stroke="black" points="214.12,-247 214.12,-299 355.12,-299 355.12,-247 214.12,-247"/>
</g>
<!-- n_0_1_2_3_4_6&#45;&gt;n_1_2_3_4_6 -->
<g id="edge2" class="edge">
<title>n_0_1_2_3_4_6&#45;&gt;n_1_2_3_4_6</title>
<path fill="none" stroke="black" d="M334.53,-346.12C327.1,-335.38 318.81,-323.4 311.15,-312.33"/>
<polygon fill="black" stroke="black" points="314.05,-310.37 305.48,-304.14 308.29,-314.36 314.05,-310.37"/>
</g>
<!-- n_0 -->
<g id="node12" class="node">
<title>n_0</title>
<polygon fill="none" stroke="black" points="400.75,-260.38 400.75,-285.62 460.5,-285.62 460.5,-260.38 400.75,-260.38"/>
<text text-anchor="start" x="407.75" y="-271.07" font-family="Times New Roman,serif" font-weight="bold" font-size="9.00">Primary (P)</text>
<polygon fill="none" stroke="black" points="399.75,-259.38 399.75,-286.62 461.5,-286.62 461.5,-259.38 399.75,-259.38"/>
</g>
<!-- n_0_1_2_3_4_6&#45;&gt;n_0 -->
<g id="edge11" class="edge">
<title>n_0_1_2_3_4_6&#45;&gt;n_0</title>
<path fill="none" stroke="black" d="M380.72,-346.12C390.94,-331.35 402.79,-314.23 412.37,-300.38"/>
<polygon fill="black" stroke="black" points="415.22,-302.41 418.04,-292.2 409.47,-298.43 415.22,-302.41"/>
</g>
<!-- n_1_2_4_6 -->
<g id="node4" class="node">
<title>n_1_2_4_6</title>
<polygon fill="none" stroke="black" points="145.88,-163 145.88,-195 207.12,-195 207.12,-163 145.88,-163"/>
<text text-anchor="start" x="152.88" y="-180.45" font-family="Times New Roman,serif" font-weight="bold" font-size="9.00">Primary (G)</text>
<text text-anchor="start" x="157.38" y="-171.45" font-family="Times New Roman,serif" font-weight="bold" font-size="9.00">Preschool</text>
<polygon fill="none" stroke="black" points="207.12,-163 207.12,-195 277.38,-195 277.38,-163 207.12,-163"/>
<text text-anchor="start" x="214.12" y="-180.45" font-family="Times New Roman,serif" font-weight="bold" font-size="9.00">Secondary (G)</text>
<text text-anchor="start" x="222" y="-171.45" font-family="Times New Roman,serif" font-weight="bold" font-size="9.00">University</text>
<polygon fill="none" stroke="black" points="144.88,-162 144.88,-196 278.38,-196 278.38,-162 144.88,-162"/>
</g>
<!-- n_1_2_3_4_6&#45;&gt;n_1_2_4_6 -->
<g id="edge3" class="edge">
<title>n_1_2_3_4_6&#45;&gt;n_1_2_4_6</title>
<path fill="none" stroke="black" d="M261.73,-243.14C252.97,-232.11 243,-219.54 234.27,-208.54"/>
<polygon fill="black" stroke="black" points="237.18,-206.57 228.22,-200.92 231.7,-210.93 237.18,-206.57"/>
</g>
<!-- n_3 -->
<g id="node11" class="node">
<title>n_3</title>
<polygon fill="none" stroke="black" points="324.25,-166.38 324.25,-191.62 393,-191.62 393,-166.38 324.25,-166.38"/>
<text text-anchor="start" x="331.25" y="-177.07" font-family="Times New Roman,serif" font-weight="bold" font-size="9.00">Secondary (P)</text>
<polygon fill="none" stroke="black" points="323.25,-165.38 323.25,-192.62 394,-192.62 394,-165.38 323.25,-165.38"/>
</g>
<!-- n_1_2_3_4_6&#45;&gt;n_3 -->
<g id="edge10" class="edge">
<title>n_1_2_3_4_6&#45;&gt;n_3</title>
<path fill="none" stroke="black" d="M307.84,-243.14C317.47,-231.17 328.56,-217.38 337.91,-205.76"/>
<polygon fill="black" stroke="black" points="340.49,-208.13 344.03,-198.15 335.03,-203.75 340.49,-208.13"/>
</g>
<!-- n_1_2 -->
<g id="node5" class="node">
<title>n_1_2</title>
<polygon fill="none" stroke="black" points="71.88,-84.38 71.88,-109.62 133.12,-109.62 133.12,-84.38 71.88,-84.38"/>
<text text-anchor="start" x="78.88" y="-95.08" font-family="Times New Roman,serif" font-weight="bold" font-size="9.00">Primary (G)</text>
<polygon fill="none" stroke="black" points="133.12,-84.38 133.12,-109.62 185.38,-109.62 185.38,-84.38 133.12,-84.38"/>
<text text-anchor="start" x="140.12" y="-95.08" font-family="Times New Roman,serif" font-weight="bold" font-size="9.00">Preschool</text>
<polygon fill="none" stroke="black" points="70.88,-83.38 70.88,-110.62 186.38,-110.62 186.38,-83.38 70.88,-83.38"/>
</g>
<!-- n_1_2_4_6&#45;&gt;n_1_2 -->
<g id="edge4" class="edge">
<title>n_1_2_4_6&#45;&gt;n_1_2</title>
<path fill="none" stroke="black" d="M191.11,-158.22C179.98,-147.5 166.13,-134.15 154.29,-122.74"/>
<polygon fill="black" stroke="black" points="156.82,-120.31 147.19,-115.89 151.96,-125.35 156.82,-120.31"/>
</g>
<!-- n_4_6 -->
<g id="node8" class="node">
<title>n_4_6</title>
<polygon fill="none" stroke="black" points="232.25,-84.38 232.25,-109.62 302.5,-109.62 302.5,-84.38 232.25,-84.38"/>
<text text-anchor="start" x="239.25" y="-95.08" font-family="Times New Roman,serif" font-weight="bold" font-size="9.00">Secondary (G)</text>
<polygon fill="none" stroke="black" points="302.5,-84.38 302.5,-109.62 357,-109.62 357,-84.38 302.5,-84.38"/>
<text text-anchor="start" x="309.5" y="-95.08" font-family="Times New Roman,serif" font-weight="bold" font-size="9.00">University</text>
<polygon fill="none" stroke="black" points="231.25,-83.38 231.25,-110.62 358,-110.62 358,-83.38 231.25,-83.38"/>
</g>
<!-- n_1_2_4_6&#45;&gt;n_4_6 -->
<g id="edge7" class="edge">
<title>n_1_2_4_6&#45;&gt;n_4_6</title>
<path fill="none" stroke="black" d="M232.14,-158.22C243.27,-147.5 257.12,-134.15 268.96,-122.74"/>
<polygon fill="black" stroke="black" points="271.29,-125.35 276.06,-115.89 266.43,-120.31 271.29,-125.35"/>
</g>
<!-- n_1 -->
<g id="node6" class="node">
<title>n_1</title>
<polygon fill="none" stroke="black" points="9,-5.38 9,-30.62 70.25,-30.62 70.25,-5.38 9,-5.38"/>
<text text-anchor="start" x="16" y="-16.07" font-family="Times New Roman,serif" font-weight="bold" font-size="9.00">Primary (G)</text>
<polygon fill="none" stroke="black" points="8,-4.38 8,-31.62 71.25,-31.62 71.25,-4.38 8,-4.38"/>
</g>
<!-- n_1_2&#45;&gt;n_1 -->
<g id="edge5" class="edge">
<title>n_1_2&#45;&gt;n_1</title>
<path fill="none" stroke="black" d="M109.31,-79.29C97.15,-68.77 81.25,-55.01 67.7,-43.29"/>
<polygon fill="black" stroke="black" points="70.2,-40.83 60.35,-36.93 65.62,-46.12 70.2,-40.83"/>
</g>
<!-- n_2 -->
<g id="node7" class="node">
<title>n_2</title>
<polygon fill="none" stroke="black" points="117.5,-5.38 117.5,-30.62 169.75,-30.62 169.75,-5.38 117.5,-5.38"/>
<text text-anchor="start" x="124.5" y="-16.07" font-family="Times New Roman,serif" font-weight="bold" font-size="9.00">Preschool</text>
<polygon fill="none" stroke="black" points="116.5,-4.38 116.5,-31.62 170.75,-31.62 170.75,-4.38 116.5,-4.38"/>
</g>
<!-- n_1_2&#45;&gt;n_2 -->
<g id="edge6" class="edge">
<title>n_1_2&#45;&gt;n_2</title>
<path fill="none" stroke="black" d="M131.88,-79.29C133.71,-69.87 136.06,-57.86 138.16,-47.04"/>
<polygon fill="black" stroke="black" points="141.56,-47.91 140.04,-37.43 134.69,-46.57 141.56,-47.91"/>
</g>
<!-- n_4 -->
<g id="node9" class="node">
<title>n_4</title>
<polygon fill="none" stroke="black" points="245.5,-5.38 245.5,-30.62 315.75,-30.62 315.75,-5.38 245.5,-5.38"/>
<text text-anchor="start" x="252.5" y="-16.07" font-family="Times New Roman,serif" font-weight="bold" font-size="9.00">Secondary (G)</text>
<polygon fill="none" stroke="black" points="244.5,-4.38 244.5,-31.62 316.75,-31.62 316.75,-4.38 244.5,-4.38"/>
</g>
<!-- n_4_6&#45;&gt;n_4 -->
<g id="edge8" class="edge">
<title>n_4_6&#45;&gt;n_4</title>
<path fill="none" stroke="black" d="M291.59,-79.29C289.87,-69.87 287.69,-57.86 285.72,-47.04"/>
<polygon fill="black" stroke="black" points="289.21,-46.64 283.98,-37.43 282.32,-47.9 289.21,-46.64"/>
</g>
<!-- n_6 -->
<g id="node10" class="node">
<title>n_6</title>
<polygon fill="none" stroke="black" points="362.38,-5.38 362.38,-30.62 416.88,-30.62 416.88,-5.38 362.38,-5.38"/>
<text text-anchor="start" x="369.38" y="-16.07" font-family="Times New Roman,serif" font-weight="bold" font-size="9.00">University</text>
<polygon fill="none" stroke="black" points="361.38,-4.38 361.38,-31.62 417.88,-31.62 417.88,-4.38 361.38,-4.38"/>
</g>
<!-- n_4_6&#45;&gt;n_6 -->
<g id="edge9" class="edge">
<title>n_4_6&#45;&gt;n_6</title>
<path fill="none" stroke="black" d="M315.24,-79.29C328.34,-68.67 345.52,-54.75 360.07,-42.96"/>
<polygon fill="black" stroke="black" points="361.98,-45.91 367.55,-36.89 357.58,-40.47 361.98,-45.91"/>
</g>
</g>
</svg>
