<?xml version="1.0" encoding="UTF-8" standalone="no"?>
<!DOCTYPE svg PUBLIC "-//W3C//DTD SVG 1.1//EN"
 "http://www.w3.org/Graphics/SVG/1.1/DTD/svg11.dtd">
<!-- Generated by graphviz version 10.0.1 (20240210.2158)
 -->
<!-- Title: ND Pages: 1 -->
<svg width="592pt" height="405pt"
 viewBox="0.00 0.00 592.12 405.00" xmlns="http://www.w3.org/2000/svg" xmlns:xlink="http://www.w3.org/1999/xlink">
<g id="graph0" class="graph" transform="scale(1 1) rotate(0) translate(4 401)">
<title>ND</title>
<polygon fill="white" stroke="none" points="-4,4 -4,-401 588.12,-401 588.12,4 -4,4"/>
<!-- n_0_1_2_3_4_5_6 -->
<g id="node1" class="node">
<title>n_0_1_2_3_4_5_6</title>
<polygon fill="none" stroke="black" points="273.12,-342 273.12,-392 343.38,-392 343.38,-342 273.12,-342"/>
<text text-anchor="start" x="285.38" y="-377.45" font-family="Times New Roman,serif" font-weight="bold" font-size="9.00">Primary (P)</text>
<text text-anchor="start" x="289.12" y="-368.45" font-family="Times New Roman,serif" font-weight="bold" font-size="9.00">Preschool</text>
<text text-anchor="start" x="280.88" y="-359.45" font-family="Times New Roman,serif" font-weight="bold" font-size="9.00">Secondary (P)</text>
<text text-anchor="start" x="280.12" y="-350.45" font-family="Times New Roman,serif" font-weight="bold" font-size="9.00">Secondary (G)</text>
<polygon fill="none" stroke="black" points="343.38,-342 343.38,-392 404.62,-392 404.62,-342 343.38,-342"/>
<text text-anchor="start" x="350.38" y="-372.95" font-family="Times New Roman,serif" font-weight="bold" font-size="9.00">Primary (G)</text>
<text text-anchor="start" x="354.5" y="-363.95" font-family="Times New Roman,serif" font-weight="bold" font-size="9.00">Technical</text>
<text text-anchor="start" x="353.75" y="-354.95" font-family="Times New Roman,serif" font-weight="bold" font-size="9.00">University</text>
<polygon fill="none" stroke="black" points="272.12,-341 272.12,-393 405.62,-393 405.62,-341 272.12,-341"/>
</g>
<!-- n_0_2_3_4 -->
<g id="node2" class="node">
<title>n_0_2_3_4</title>
<polygon fill="none" stroke="black" points="182.38,-248 182.38,-289 251.12,-289 251.12,-248 182.38,-248"/>
<text text-anchor="start" x="193.88" y="-274.45" font-family="Times New Roman,serif" font-weight="bold" font-size="9.00">Primary (P)</text>
<text text-anchor="start" x="197.62" y="-265.45" font-family="Times New Roman,serif" font-weight="bold" font-size="9.00">Preschool</text>
<text text-anchor="start" x="189.38" y="-256.45" font-family="Times New Roman,serif" font-weight="bold" font-size="9.00">Secondary (P)</text>
<polygon fill="none" stroke="black" points="251.12,-248 251.12,-289 321.38,-289 321.38,-248 251.12,-248"/>
<text text-anchor="start" x="258.12" y="-266.57" font-family="Times New Roman,serif" font-weight="bold" font-size="9.00">Secondary (G)</text>
<polygon fill="none" stroke="black" points="181.38,-247 181.38,-290 322.38,-290 322.38,-247 181.38,-247"/>
</g>
<!-- n_0_1_2_3_4_5_6&#45;&gt;n_0_2_3_4 -->
<g id="edge1" class="edge">
<title>n_0_1_2_3_4_5_6&#45;&gt;n_0_2_3_4</title>
<path fill="none" stroke="black" d="M312.77,-337.05C302.88,-326.08 291.55,-313.51 281.37,-302.22"/>
<polygon fill="black" stroke="black" points="284.16,-300.08 274.86,-295 278.96,-304.77 284.16,-300.08"/>
</g>
<!-- n_1_5_6 -->
<g id="node9" class="node">
<title>n_1_5_6</title>
<polygon fill="none" stroke="black" points="368,-252.5 368,-284.5 429.25,-284.5 429.25,-252.5 368,-252.5"/>
<text text-anchor="start" x="375" y="-269.95" font-family="Times New Roman,serif" font-weight="bold" font-size="9.00">Primary (G)</text>
<text text-anchor="start" x="379.12" y="-260.95" font-family="Times New Roman,serif" font-weight="bold" font-size="9.00">Technical</text>
<polygon fill="none" stroke="black" points="429.25,-252.5 429.25,-284.5 483.75,-284.5 483.75,-252.5 429.25,-252.5"/>
<text text-anchor="start" x="436.25" y="-266.57" font-family="Times New Roman,serif" font-weight="bold" font-size="9.00">University</text>
<polygon fill="none" stroke="black" points="367,-251.5 367,-285.5 484.75,-285.5 484.75,-251.5 367,-251.5"/>
</g>
<!-- n_0_1_2_3_4_5_6&#45;&gt;n_1_5_6 -->
<g id="edge8" class="edge">
<title>n_0_1_2_3_4_5_6&#45;&gt;n_1_5_6</title>
<path fill="none" stroke="black" d="M364.98,-337.05C376.28,-324.51 389.47,-309.89 400.67,-297.46"/>
<polygon fill="black" stroke="black" points="402.95,-300.15 407.05,-290.38 397.75,-295.47 402.95,-300.15"/>
</g>
<!-- n_0_2_3 -->
<g id="node3" class="node">
<title>n_0_2_3</title>
<polygon fill="none" stroke="black" points="50.62,-163 50.62,-195 110.38,-195 110.38,-163 50.62,-163"/>
<text text-anchor="start" x="57.62" y="-180.45" font-family="Times New Roman,serif" font-weight="bold" font-size="9.00">Primary (P)</text>
<text text-anchor="start" x="61.38" y="-171.45" font-family="Times New Roman,serif" font-weight="bold" font-size="9.00">Preschool</text>
<polygon fill="none" stroke="black" points="110.38,-163 110.38,-195 179.12,-195 179.12,-163 110.38,-163"/>
<text text-anchor="start" x="117.38" y="-177.07" font-family="Times New Roman,serif" font-weight="bold" font-size="9.00">Secondary (P)</text>
<polygon fill="none" stroke="black" points="49.62,-162 49.62,-196 180.12,-196 180.12,-162 49.62,-162"/>
</g>
<!-- n_0_2_3_4&#45;&gt;n_0_2_3 -->
<g id="edge2" class="edge">
<title>n_0_2_3_4&#45;&gt;n_0_2_3</title>
<path fill="none" stroke="black" d="M213.71,-243.13C195.59,-231.55 173.92,-217.71 155.5,-205.94"/>
<polygon fill="black" stroke="black" points="157.5,-203.07 147.19,-200.64 153.74,-208.97 157.5,-203.07"/>
</g>
<!-- n_4 -->
<g id="node8" class="node">
<title>n_4</title>
<polygon fill="none" stroke="black" points="225.75,-166.38 225.75,-191.62 296,-191.62 296,-166.38 225.75,-166.38"/>
<text text-anchor="start" x="232.75" y="-177.07" font-family="Times New Roman,serif" font-weight="bold" font-size="9.00">Secondary (G)</text>
<polygon fill="none" stroke="black" points="224.75,-165.38 224.75,-192.62 297,-192.62 297,-165.38 224.75,-165.38"/>
</g>
<!-- n_0_2_3_4&#45;&gt;n_4 -->
<g id="edge7" class="edge">
<title>n_0_2_3_4&#45;&gt;n_4</title>
<path fill="none" stroke="black" d="M254.38,-243.13C255.5,-232.28 256.82,-219.45 257.97,-208.19"/>
<polygon fill="black" stroke="black" points="261.45,-208.58 259,-198.28 254.49,-207.87 261.45,-208.58"/>
</g>
<!-- n_0_2 -->
<g id="node4" class="node">
<title>n_0_2</title>
<polygon fill="none" stroke="black" points="33.88,-84.38 33.88,-109.62 93.62,-109.62 93.62,-84.38 33.88,-84.38"/>
<text text-anchor="start" x="40.88" y="-95.08" font-family="Times New Roman,serif" font-weight="bold" font-size="9.00">Primary (P)</text>
<polygon fill="none" stroke="black" points="93.62,-84.38 93.62,-109.62 145.88,-109.62 145.88,-84.38 93.62,-84.38"/>
<text text-anchor="start" x="100.62" y="-95.08" font-family="Times New Roman,serif" font-weight="bold" font-size="9.00">Preschool</text>
<polygon fill="none" stroke="black" points="32.88,-83.38 32.88,-110.62 146.88,-110.62 146.88,-83.38 32.88,-83.38"/>
</g>
<!-- n_0_2_3&#45;&gt;n_0_2 -->
<g id="edge3" class="edge">
<title>n_0_2_3&#45;&gt;n_0_2</title>
<path fill="none" stroke="black" d="M108.7,-158.22C105.64,-148.44 101.89,-136.46 98.55,-125.77"/>
<polygon fill="black" stroke="black" points="101.91,-124.79 95.59,-116.29 95.23,-126.88 101.91,-124.79"/>
</g>
<!-- n_3 -->
<g id="node7" class="node">
<title>n_3</title>
<polygon fill="none" stroke="black" points="192.5,-84.38 192.5,-109.62 261.25,-109.62 261.25,-84.38 192.5,-84.38"/>
<text text-anchor="start" x="199.5" y="-95.08" font-family="Times New Roman,serif" font-weight="bold" font-size="9.00">Secondary (P)</text>
<polygon fill="none" stroke="black" points="191.5,-83.38 191.5,-110.62 262.25,-110.62 262.25,-83.38 191.5,-83.38"/>
</g>
<!-- n_0_2_3&#45;&gt;n_3 -->
<g id="edge6" class="edge">
<title>n_0_2_3&#45;&gt;n_3</title>
<path fill="none" stroke="black" d="M142.85,-158.02C158.45,-146.88 177.95,-132.94 194.25,-121.31"/>
<polygon fill="black" stroke="black" points="196.08,-124.3 202.18,-115.64 192.01,-118.6 196.08,-124.3"/>
</g>
<!-- n_0 -->
<g id="node5" class="node">
<title>n_0</title>
<polygon fill="none" stroke="black" points="9,-5.38 9,-30.62 68.75,-30.62 68.75,-5.38 9,-5.38"/>
<text text-anchor="start" x="16" y="-16.07" font-family="Times New Roman,serif" font-weight="bold" font-size="9.00">Primary (P)</text>
<polygon fill="none" stroke="black" points="8,-4.38 8,-31.62 69.75,-31.62 69.75,-4.38 8,-4.38"/>
</g>
<!-- n_0_2&#45;&gt;n_0 -->
<g id="edge4" class="edge">
<title>n_0_2&#45;&gt;n_0</title>
<path fill="none" stroke="black" d="M78.81,-79.29C72.24,-69.37 63.76,-56.57 56.31,-45.32"/>
<polygon fill="black" stroke="black" points="59.37,-43.61 50.93,-37.2 53.54,-47.47 59.37,-43.61"/>
</g>
<!-- n_2 -->
<g id="node6" class="node">
<title>n_2</title>
<polygon fill="none" stroke="black" points="115.75,-5.38 115.75,-30.62 168,-30.62 168,-5.38 115.75,-5.38"/>
<text text-anchor="start" x="122.75" y="-16.07" font-family="Times New Roman,serif" font-weight="bold" font-size="9.00">Preschool</text>
<polygon fill="none" stroke="black" points="114.75,-4.38 114.75,-31.62 169,-31.62 169,-4.38 114.75,-4.38"/>
</g>
<!-- n_0_2&#45;&gt;n_2 -->
<g id="edge5" class="edge">
<title>n_0_2&#45;&gt;n_2</title>
<path fill="none" stroke="black" d="M101.16,-79.29C107.86,-69.37 116.5,-56.57 124.1,-45.32"/>
<polygon fill="black" stroke="black" points="126.89,-47.44 129.59,-37.2 121.09,-43.52 126.89,-47.44"/>
</g>
<!-- n_1_5 -->
<g id="node10" class="node">
<title>n_1_5</title>
<polygon fill="none" stroke="black" points="359.75,-166.38 359.75,-191.62 421,-191.62 421,-166.38 359.75,-166.38"/>
<text text-anchor="start" x="366.75" y="-177.07" font-family="Times New Roman,serif" font-weight="bold" font-size="9.00">Primary (G)</text>
<polygon fill="none" stroke="black" points="421,-166.38 421,-191.62 474,-191.62 474,-166.38 421,-166.38"/>
<text text-anchor="start" x="428" y="-177.07" font-family="Times New Roman,serif" font-weight="bold" font-size="9.00">Technical</text>
<polygon fill="none" stroke="black" points="358.75,-165.38 358.75,-192.62 475,-192.62 475,-165.38 358.75,-165.38"/>
</g>
<!-- n_1_5_6&#45;&gt;n_1_5 -->
<g id="edge9" class="edge">
<title>n_1_5_6&#45;&gt;n_1_5</title>
<path fill="none" stroke="black" d="M423.83,-247.64C422.63,-235.91 421.08,-220.86 419.75,-207.94"/>
<polygon fill="black" stroke="black" points="423.27,-207.93 418.76,-198.34 416.3,-208.64 423.27,-207.93"/>
</g>
<!-- n_6 -->
<g id="node13" class="node">
<title>n_6</title>
<polygon fill="none" stroke="black" points="520.62,-166.38 520.62,-191.62 575.12,-191.62 575.12,-166.38 520.62,-166.38"/>
<text text-anchor="start" x="527.62" y="-177.07" font-family="Times New Roman,serif" font-weight="bold" font-size="9.00">University</text>
<polygon fill="none" stroke="black" points="519.62,-165.38 519.62,-192.62 576.12,-192.62 576.12,-165.38 519.62,-165.38"/>
</g>
<!-- n_1_5_6&#45;&gt;n_6 -->
<g id="edge12" class="edge">
<title>n_1_5_6&#45;&gt;n_6</title>
<path fill="none" stroke="black" d="M453.56,-247.64C471.84,-234.53 495.89,-217.29 515.12,-203.49"/>
<polygon fill="black" stroke="black" points="517.09,-206.39 523.18,-197.71 513.01,-200.7 517.09,-206.39"/>
</g>
<!-- n_1 -->
<g id="node11" class="node">
<title>n_1</title>
<polygon fill="none" stroke="black" points="347.25,-84.38 347.25,-109.62 408.5,-109.62 408.5,-84.38 347.25,-84.38"/>
<text text-anchor="start" x="354.25" y="-95.08" font-family="Times New Roman,serif" font-weight="bold" font-size="9.00">Primary (G)</text>
<polygon fill="none" stroke="black" points="346.25,-83.38 346.25,-110.62 409.5,-110.62 409.5,-83.38 346.25,-83.38"/>
</g>
<!-- n_1_5&#45;&gt;n_1 -->
<g id="edge10" class="edge">
<title>n_1_5&#45;&gt;n_1</title>
<path fill="none" stroke="black" d="M408.6,-161.03C403.54,-150.64 396.94,-137.1 391.15,-125.23"/>
<polygon fill="black" stroke="black" points="394.33,-123.76 386.8,-116.3 388.03,-126.82 394.33,-123.76"/>
</g>
<!-- n_5 -->
<g id="node12" class="node">
<title>n_5</title>
<polygon fill="none" stroke="black" points="455.38,-84.38 455.38,-109.62 508.38,-109.62 508.38,-84.38 455.38,-84.38"/>
<text text-anchor="start" x="462.38" y="-95.08" font-family="Times New Roman,serif" font-weight="bold" font-size="9.00">Technical</text>
<polygon fill="none" stroke="black" points="454.38,-83.38 454.38,-110.62 509.38,-110.62 509.38,-83.38 454.38,-83.38"/>
</g>
<!-- n_1_5&#45;&gt;n_5 -->
<g id="edge11" class="edge">
<title>n_1_5&#45;&gt;n_5</title>
<path fill="none" stroke="black" d="M430.66,-161.03C439.45,-150.22 451.01,-135.99 460.92,-123.79"/>
<polygon fill="black" stroke="black" points="463.57,-126.08 467.16,-116.12 458.13,-121.67 463.57,-126.08"/>
</g>
</g>
</svg>
