<?xml version="1.0" encoding="UTF-8" standalone="no"?>
<!DOCTYPE svg PUBLIC "-//W3C//DTD SVG 1.1//EN"
 "http://www.w3.org/Graphics/SVG/1.1/DTD/svg11.dtd">
<!-- Generated by graphviz version 10.0.1 (20240210.2158)
 -->
<!-- Title: ND Pages: 1 -->
<svg width="570pt" height="638pt"
 viewBox="0.00 0.00 569.50 638.00" xmlns="http://www.w3.org/2000/svg" xmlns:xlink="http://www.w3.org/1999/xlink">
<g id="graph0" class="graph" transform="scale(1 1) rotate(0) translate(4 634)">
<title>ND</title>
<polygon fill="white" stroke="none" points="-4,4 -4,-634 565.5,-634 565.5,4 -4,4"/>
<!-- n_0_1_2_3_4_5_6 -->
<g id="node1" class="node">
<title>n_0_1_2_3_4_5_6</title>
<polygon fill="none" stroke="black" points="375.88,-557 375.88,-625 444.62,-625 444.62,-557 375.88,-557"/>
<text text-anchor="start" x="387.38" y="-610.45" font-family="Times New Roman,serif" font-weight="bold" font-size="9.00">Primary (P)</text>
<text text-anchor="start" x="386.62" y="-601.45" font-family="Times New Roman,serif" font-weight="bold" font-size="9.00">Primary (G)</text>
<text text-anchor="start" x="391.12" y="-592.45" font-family="Times New Roman,serif" font-weight="bold" font-size="9.00">Preschool</text>
<text text-anchor="start" x="382.88" y="-583.45" font-family="Times New Roman,serif" font-weight="bold" font-size="9.00">Secondary (P)</text>
<text text-anchor="start" x="390.75" y="-574.45" font-family="Times New Roman,serif" font-weight="bold" font-size="9.00">Technical</text>
<text text-anchor="start" x="390" y="-565.45" font-family="Times New Roman,serif" font-weight="bold" font-size="9.00">University</text>
<polygon fill="none" stroke="black" points="444.62,-557 444.62,-625 514.88,-625 514.88,-557 444.62,-557"/>
<text text-anchor="start" x="451.62" y="-589.08" font-family="Times New Roman,serif" font-weight="bold" font-size="9.00">Secondary (G)</text>
<polygon fill="none" stroke="black" points="374.88,-556 374.88,-626 515.88,-626 515.88,-556 374.88,-556"/>
</g>
<!-- n_0_1_2_3_5_6 -->
<g id="node2" class="node">
<title>n_0_1_2_3_5_6</title>
<polygon fill="none" stroke="black" points="311.75,-445 311.75,-504 380.5,-504 380.5,-445 311.75,-445"/>
<text text-anchor="start" x="323.25" y="-489.45" font-family="Times New Roman,serif" font-weight="bold" font-size="9.00">Primary (P)</text>
<text text-anchor="start" x="322.5" y="-480.45" font-family="Times New Roman,serif" font-weight="bold" font-size="9.00">Primary (G)</text>
<text text-anchor="start" x="327" y="-471.45" font-family="Times New Roman,serif" font-weight="bold" font-size="9.00">Preschool</text>
<text text-anchor="start" x="318.75" y="-462.45" font-family="Times New Roman,serif" font-weight="bold" font-size="9.00">Secondary (P)</text>
<text text-anchor="start" x="326.62" y="-453.45" font-family="Times New Roman,serif" font-weight="bold" font-size="9.00">Technical</text>
<polygon fill="none" stroke="black" points="380.5,-445 380.5,-504 435,-504 435,-445 380.5,-445"/>
<text text-anchor="start" x="387.5" y="-472.57" font-family="Times New Roman,serif" font-weight="bold" font-size="9.00">University</text>
<polygon fill="none" stroke="black" points="310.75,-444 310.75,-505 436,-505 436,-444 310.75,-444"/>
</g>
<!-- n_0_1_2_3_4_5_6&#45;&gt;n_0_1_2_3_5_6 -->
<g id="edge1" class="edge">
<title>n_0_1_2_3_4_5_6&#45;&gt;n_0_1_2_3_5_6</title>
<path fill="none" stroke="black" d="M421.6,-552.19C414.76,-541.31 407.25,-529.36 400.23,-518.21"/>
<polygon fill="black" stroke="black" points="403.31,-516.54 395.03,-509.93 397.39,-520.26 403.31,-516.54"/>
</g>
<!-- n_4 -->
<g id="node13" class="node">
<title>n_4</title>
<polygon fill="none" stroke="black" points="482.25,-461.88 482.25,-487.12 552.5,-487.12 552.5,-461.88 482.25,-461.88"/>
<text text-anchor="start" x="489.25" y="-472.57" font-family="Times New Roman,serif" font-weight="bold" font-size="9.00">Secondary (G)</text>
<polygon fill="none" stroke="black" points="481.25,-460.88 481.25,-488.12 553.5,-488.12 553.5,-460.88 481.25,-460.88"/>
</g>
<!-- n_0_1_2_3_4_5_6&#45;&gt;n_4 -->
<g id="edge12" class="edge">
<title>n_0_1_2_3_4_5_6&#45;&gt;n_4</title>
<path fill="none" stroke="black" d="M469.15,-552.19C479.47,-535.78 491.3,-516.96 500.67,-502.07"/>
<polygon fill="black" stroke="black" points="503.54,-504.07 505.9,-493.74 497.62,-500.35 503.54,-504.07"/>
</g>
<!-- n_0_1_2_3_5 -->
<g id="node3" class="node">
<title>n_0_1_2_3_5</title>
<polygon fill="none" stroke="black" points="245.88,-342 245.88,-392 314.62,-392 314.62,-342 245.88,-342"/>
<text text-anchor="start" x="257.38" y="-377.45" font-family="Times New Roman,serif" font-weight="bold" font-size="9.00">Primary (P)</text>
<text text-anchor="start" x="256.62" y="-368.45" font-family="Times New Roman,serif" font-weight="bold" font-size="9.00">Primary (G)</text>
<text text-anchor="start" x="252.88" y="-359.45" font-family="Times New Roman,serif" font-weight="bold" font-size="9.00">Secondary (P)</text>
<text text-anchor="start" x="260.75" y="-350.45" font-family="Times New Roman,serif" font-weight="bold" font-size="9.00">Technical</text>
<polygon fill="none" stroke="black" points="314.62,-342 314.62,-392 366.88,-392 366.88,-342 314.62,-342"/>
<text text-anchor="start" x="321.62" y="-365.07" font-family="Times New Roman,serif" font-weight="bold" font-size="9.00">Preschool</text>
<polygon fill="none" stroke="black" points="244.88,-341 244.88,-393 367.88,-393 367.88,-341 244.88,-341"/>
</g>
<!-- n_0_1_2_3_5_6&#45;&gt;n_0_1_2_3_5 -->
<g id="edge2" class="edge">
<title>n_0_1_2_3_5_6&#45;&gt;n_0_1_2_3_5</title>
<path fill="none" stroke="black" d="M352.18,-440.12C345.36,-429.38 337.75,-417.4 330.72,-406.33"/>
<polygon fill="black" stroke="black" points="333.85,-404.74 325.54,-398.18 327.95,-408.49 333.85,-404.74"/>
</g>
<!-- n_6 -->
<g id="node12" class="node">
<title>n_6</title>
<polygon fill="none" stroke="black" points="414.12,-354.38 414.12,-379.62 468.62,-379.62 468.62,-354.38 414.12,-354.38"/>
<text text-anchor="start" x="421.12" y="-365.07" font-family="Times New Roman,serif" font-weight="bold" font-size="9.00">University</text>
<polygon fill="none" stroke="black" points="413.12,-353.38 413.12,-380.62 469.62,-380.62 469.62,-353.38 413.12,-353.38"/>
</g>
<!-- n_0_1_2_3_5_6&#45;&gt;n_6 -->
<g id="edge11" class="edge">
<title>n_0_1_2_3_5_6&#45;&gt;n_6</title>
<path fill="none" stroke="black" d="M394.89,-440.12C404.41,-425.35 415.44,-408.23 424.37,-394.38"/>
<polygon fill="black" stroke="black" points="427.15,-396.52 429.63,-386.22 421.27,-392.73 427.15,-396.52"/>
</g>
<!-- n_0_1_3_5 -->
<g id="node4" class="node">
<title>n_0_1_3_5</title>
<polygon fill="none" stroke="black" points="172.38,-248 172.38,-289 241.12,-289 241.12,-248 172.38,-248"/>
<text text-anchor="start" x="183.88" y="-274.45" font-family="Times New Roman,serif" font-weight="bold" font-size="9.00">Primary (P)</text>
<text text-anchor="start" x="179.38" y="-265.45" font-family="Times New Roman,serif" font-weight="bold" font-size="9.00">Secondary (P)</text>
<text text-anchor="start" x="187.25" y="-256.45" font-family="Times New Roman,serif" font-weight="bold" font-size="9.00">Technical</text>
<polygon fill="none" stroke="black" points="241.12,-248 241.12,-289 302.38,-289 302.38,-248 241.12,-248"/>
<text text-anchor="start" x="248.12" y="-266.57" font-family="Times New Roman,serif" font-weight="bold" font-size="9.00">Primary (G)</text>
<polygon fill="none" stroke="black" points="171.38,-247 171.38,-290 303.38,-290 303.38,-247 171.38,-247"/>
</g>
<!-- n_0_1_2_3_5&#45;&gt;n_0_1_3_5 -->
<g id="edge3" class="edge">
<title>n_0_1_2_3_5&#45;&gt;n_0_1_3_5</title>
<path fill="none" stroke="black" d="M285.67,-337.05C278.06,-326.4 269.37,-314.25 261.48,-303.22"/>
<polygon fill="black" stroke="black" points="264.35,-301.2 255.68,-295.11 258.65,-305.28 264.35,-301.2"/>
</g>
<!-- n_2 -->
<g id="node11" class="node">
<title>n_2</title>
<polygon fill="none" stroke="black" points="349.25,-255.88 349.25,-281.12 401.5,-281.12 401.5,-255.88 349.25,-255.88"/>
<text text-anchor="start" x="356.25" y="-266.57" font-family="Times New Roman,serif" font-weight="bold" font-size="9.00">Preschool</text>
<polygon fill="none" stroke="black" points="348.25,-254.88 348.25,-282.12 402.5,-282.12 402.5,-254.88 348.25,-254.88"/>
</g>
<!-- n_0_1_2_3_5&#45;&gt;n_2 -->
<g id="edge10" class="edge">
<title>n_0_1_2_3_5&#45;&gt;n_2</title>
<path fill="none" stroke="black" d="M327.08,-337.05C336.5,-323.86 347.58,-308.38 356.74,-295.56"/>
<polygon fill="black" stroke="black" points="359.47,-297.77 362.44,-287.6 353.77,-293.7 359.47,-297.77"/>
</g>
<!-- n_0_3_5 -->
<g id="node5" class="node">
<title>n_0_3_5</title>
<polygon fill="none" stroke="black" points="102.12,-163 102.12,-195 170.88,-195 170.88,-163 102.12,-163"/>
<text text-anchor="start" x="109.12" y="-180.45" font-family="Times New Roman,serif" font-weight="bold" font-size="9.00">Secondary (P)</text>
<text text-anchor="start" x="117" y="-171.45" font-family="Times New Roman,serif" font-weight="bold" font-size="9.00">Technical</text>
<polygon fill="none" stroke="black" points="170.88,-163 170.88,-195 230.62,-195 230.62,-163 170.88,-163"/>
<text text-anchor="start" x="177.88" y="-177.07" font-family="Times New Roman,serif" font-weight="bold" font-size="9.00">Primary (P)</text>
<polygon fill="none" stroke="black" points="101.12,-162 101.12,-196 231.62,-196 231.62,-162 101.12,-162"/>
</g>
<!-- n_0_1_3_5&#45;&gt;n_0_3_5 -->
<g id="edge4" class="edge">
<title>n_0_1_3_5&#45;&gt;n_0_3_5</title>
<path fill="none" stroke="black" d="M217.6,-243.13C208.94,-232.46 198.72,-219.87 189.7,-208.75"/>
<polygon fill="black" stroke="black" points="192.43,-206.56 183.42,-201 187,-210.97 192.43,-206.56"/>
</g>
<!-- n_1 -->
<g id="node10" class="node">
<title>n_1</title>
<polygon fill="none" stroke="black" points="277.75,-166.38 277.75,-191.62 339,-191.62 339,-166.38 277.75,-166.38"/>
<text text-anchor="start" x="284.75" y="-177.07" font-family="Times New Roman,serif" font-weight="bold" font-size="9.00">Primary (G)</text>
<polygon fill="none" stroke="black" points="276.75,-165.38 276.75,-192.62 340,-192.62 340,-165.38 276.75,-165.38"/>
</g>
<!-- n_0_1_3_5&#45;&gt;n_1 -->
<g id="edge9" class="edge">
<title>n_0_1_3_5&#45;&gt;n_1</title>
<path fill="none" stroke="black" d="M257.15,-243.13C266.61,-231.48 277.92,-217.53 287.51,-205.71"/>
<polygon fill="black" stroke="black" points="290.23,-207.92 293.81,-197.95 284.79,-203.51 290.23,-207.92"/>
</g>
<!-- n_3_5 -->
<g id="node6" class="node">
<title>n_3_5</title>
<polygon fill="none" stroke="black" points="36.5,-84.38 36.5,-109.62 105.25,-109.62 105.25,-84.38 36.5,-84.38"/>
<text text-anchor="start" x="43.5" y="-95.08" font-family="Times New Roman,serif" font-weight="bold" font-size="9.00">Secondary (P)</text>
<polygon fill="none" stroke="black" points="105.25,-84.38 105.25,-109.62 158.25,-109.62 158.25,-84.38 105.25,-84.38"/>
<text text-anchor="start" x="112.25" y="-95.08" font-family="Times New Roman,serif" font-weight="bold" font-size="9.00">Technical</text>
<polygon fill="none" stroke="black" points="35.5,-83.38 35.5,-110.62 159.25,-110.62 159.25,-83.38 35.5,-83.38"/>
</g>
<!-- n_0_3_5&#45;&gt;n_3_5 -->
<g id="edge5" class="edge">
<title>n_0_3_5&#45;&gt;n_3_5</title>
<path fill="none" stroke="black" d="M149.32,-158.22C140.25,-147.71 129,-134.66 119.29,-123.41"/>
<polygon fill="black" stroke="black" points="122.07,-121.28 112.89,-115.99 116.77,-125.85 122.07,-121.28"/>
</g>
<!-- n_0 -->
<g id="node9" class="node">
<title>n_0</title>
<polygon fill="none" stroke="black" points="205.5,-84.38 205.5,-109.62 265.25,-109.62 265.25,-84.38 205.5,-84.38"/>
<text text-anchor="start" x="212.5" y="-95.08" font-family="Times New Roman,serif" font-weight="bold" font-size="9.00">Primary (P)</text>
<polygon fill="none" stroke="black" points="204.5,-83.38 204.5,-110.62 266.25,-110.62 266.25,-83.38 204.5,-83.38"/>
</g>
<!-- n_0_3_5&#45;&gt;n_0 -->
<g id="edge8" class="edge">
<title>n_0_3_5&#45;&gt;n_0</title>
<path fill="none" stroke="black" d="M183.43,-158.22C192.5,-147.71 203.75,-134.66 213.46,-123.41"/>
<polygon fill="black" stroke="black" points="215.98,-125.85 219.86,-115.99 210.68,-121.28 215.98,-125.85"/>
</g>
<!-- n_3 -->
<g id="node7" class="node">
<title>n_3</title>
<polygon fill="none" stroke="black" points="9,-5.38 9,-30.62 77.75,-30.62 77.75,-5.38 9,-5.38"/>
<text text-anchor="start" x="16" y="-16.07" font-family="Times New Roman,serif" font-weight="bold" font-size="9.00">Secondary (P)</text>
<polygon fill="none" stroke="black" points="8,-4.38 8,-31.62 78.75,-31.62 78.75,-4.38 8,-4.38"/>
</g>
<!-- n_3_5&#45;&gt;n_3 -->
<g id="edge6" class="edge">
<title>n_3_5&#45;&gt;n_3</title>
<path fill="none" stroke="black" d="M85.66,-79.29C78.7,-69.37 69.72,-56.57 61.83,-45.32"/>
<polygon fill="black" stroke="black" points="64.73,-43.36 56.12,-37.18 59,-47.38 64.73,-43.36"/>
</g>
<!-- n_5 -->
<g id="node8" class="node">
<title>n_5</title>
<polygon fill="none" stroke="black" points="124.88,-5.38 124.88,-30.62 177.88,-30.62 177.88,-5.38 124.88,-5.38"/>
<text text-anchor="start" x="131.88" y="-16.07" font-family="Times New Roman,serif" font-weight="bold" font-size="9.00">Technical</text>
<polygon fill="none" stroke="black" points="123.88,-4.38 123.88,-31.62 178.88,-31.62 178.88,-4.38 123.88,-4.38"/>
</g>
<!-- n_3_5&#45;&gt;n_5 -->
<g id="edge7" class="edge">
<title>n_3_5&#45;&gt;n_5</title>
<path fill="none" stroke="black" d="M109.09,-79.29C116.05,-69.37 125.03,-56.57 132.92,-45.32"/>
<polygon fill="black" stroke="black" points="135.75,-47.38 138.63,-37.18 130.02,-43.36 135.75,-47.38"/>
</g>
</g>
</svg>
