<?xml version="1.0" encoding="UTF-8" standalone="no"?>
<!DOCTYPE svg PUBLIC "-//W3C//DTD SVG 1.1//EN"
 "http://www.w3.org/Graphics/SVG/1.1/DTD/svg11.dtd">
<!-- Generated by graphviz version 10.0.1 (20240210.2158)
 -->
<!-- Title: ND Pages: 1 -->
<svg width="607pt" height="432pt"
 viewBox="0.00 0.00 607.12 432.00" xmlns="http://www.w3.org/2000/svg" xmlns:xlink="http://www.w3.org/1999/xlink">
<g id="graph0" class="graph" transform="scale(1 1) rotate(0) translate(4 428)">
<title>ND</title>
<polygon fill="white" stroke="none" points="-4,4 -4,-428 603.12,-428 603.12,4 -4,4"/>
<!-- n_0_1_2_3_4_5_6 -->
<g id="node1" class="node">
<title>n_0_1_2_3_4_5_6</title>
<polygon fill="none" stroke="black" points="390.62,-351 390.62,-419 460.88,-419 460.88,-351 390.62,-351"/>
<text text-anchor="start" x="402.12" y="-404.45" font-family="Times New Roman,serif" font-weight="bold" font-size="9.00">Primary (G)</text>
<text text-anchor="start" x="406.62" y="-395.45" font-family="Times New Roman,serif" font-weight="bold" font-size="9.00">Preschool</text>
<text text-anchor="start" x="398.38" y="-386.45" font-family="Times New Roman,serif" font-weight="bold" font-size="9.00">Secondary (P)</text>
<text text-anchor="start" x="397.62" y="-377.45" font-family="Times New Roman,serif" font-weight="bold" font-size="9.00">Secondary (G)</text>
<text text-anchor="start" x="406.25" y="-368.45" font-family="Times New Roman,serif" font-weight="bold" font-size="9.00">Technical</text>
<text text-anchor="start" x="405.5" y="-359.45" font-family="Times New Roman,serif" font-weight="bold" font-size="9.00">University</text>
<polygon fill="none" stroke="black" points="460.88,-351 460.88,-419 520.62,-419 520.62,-351 460.88,-351"/>
<text text-anchor="start" x="467.88" y="-383.07" font-family="Times New Roman,serif" font-weight="bold" font-size="9.00">Primary (P)</text>
<polygon fill="none" stroke="black" points="389.62,-350 389.62,-420 521.62,-420 521.62,-350 389.62,-350"/>
</g>
<!-- n_1_2_3_4_5_6 -->
<g id="node2" class="node">
<title>n_1_2_3_4_5_6</title>
<polygon fill="none" stroke="black" points="325,-248 325,-298 395.25,-298 395.25,-248 325,-248"/>
<text text-anchor="start" x="336.5" y="-283.45" font-family="Times New Roman,serif" font-weight="bold" font-size="9.00">Primary (G)</text>
<text text-anchor="start" x="332.75" y="-274.45" font-family="Times New Roman,serif" font-weight="bold" font-size="9.00">Secondary (P)</text>
<text text-anchor="start" x="332" y="-265.45" font-family="Times New Roman,serif" font-weight="bold" font-size="9.00">Secondary (G)</text>
<text text-anchor="start" x="339.88" y="-256.45" font-family="Times New Roman,serif" font-weight="bold" font-size="9.00">University</text>
<polygon fill="none" stroke="black" points="395.25,-248 395.25,-298 448.25,-298 448.25,-248 395.25,-248"/>
<text text-anchor="start" x="402.62" y="-274.45" font-family="Times New Roman,serif" font-weight="bold" font-size="9.00">Preschool</text>
<text text-anchor="start" x="402.25" y="-265.45" font-family="Times New Roman,serif" font-weight="bold" font-size="9.00">Technical</text>
<polygon fill="none" stroke="black" points="324,-247 324,-299 449.25,-299 449.25,-247 324,-247"/>
</g>
<!-- n_0_1_2_3_4_5_6&#45;&gt;n_1_2_3_4_5_6 -->
<g id="edge1" class="edge">
<title>n_0_1_2_3_4_5_6&#45;&gt;n_1_2_3_4_5_6</title>
<path fill="none" stroke="black" d="M431.88,-346.14C425.07,-335.3 417.65,-323.46 410.82,-312.57"/>
<polygon fill="black" stroke="black" points="413.83,-310.78 405.55,-304.17 407.9,-314.5 413.83,-310.78"/>
</g>
<!-- n_0 -->
<g id="node13" class="node">
<title>n_0</title>
<polygon fill="none" stroke="black" points="495.75,-260.38 495.75,-285.62 555.5,-285.62 555.5,-260.38 495.75,-260.38"/>
<text text-anchor="start" x="502.75" y="-271.07" font-family="Times New Roman,serif" font-weight="bold" font-size="9.00">Primary (P)</text>
<polygon fill="none" stroke="black" points="494.75,-259.38 494.75,-286.62 556.5,-286.62 556.5,-259.38 494.75,-259.38"/>
</g>
<!-- n_0_1_2_3_4_5_6&#45;&gt;n_0 -->
<g id="edge12" class="edge">
<title>n_0_1_2_3_4_5_6&#45;&gt;n_0</title>
<path fill="none" stroke="black" d="M479.72,-346.14C489.33,-331.04 500.16,-314.02 508.88,-300.31"/>
<polygon fill="black" stroke="black" points="511.59,-302.57 514.01,-292.26 505.68,-298.82 511.59,-302.57"/>
</g>
<!-- n_1_3_4_6 -->
<g id="node3" class="node">
<title>n_1_3_4_6</title>
<polygon fill="none" stroke="black" points="233.12,-163 233.12,-195 303.38,-195 303.38,-163 233.12,-163"/>
<text text-anchor="start" x="244.62" y="-180.45" font-family="Times New Roman,serif" font-weight="bold" font-size="9.00">Primary (G)</text>
<text text-anchor="start" x="240.12" y="-171.45" font-family="Times New Roman,serif" font-weight="bold" font-size="9.00">Secondary (G)</text>
<polygon fill="none" stroke="black" points="303.38,-163 303.38,-195 372.12,-195 372.12,-163 303.38,-163"/>
<text text-anchor="start" x="310.38" y="-180.45" font-family="Times New Roman,serif" font-weight="bold" font-size="9.00">Secondary (P)</text>
<text text-anchor="start" x="317.5" y="-171.45" font-family="Times New Roman,serif" font-weight="bold" font-size="9.00">University</text>
<polygon fill="none" stroke="black" points="232.12,-162 232.12,-196 373.12,-196 373.12,-162 232.12,-162"/>
</g>
<!-- n_1_2_3_4_5_6&#45;&gt;n_1_3_4_6 -->
<g id="edge2" class="edge">
<title>n_1_2_3_4_5_6&#45;&gt;n_1_3_4_6</title>
<path fill="none" stroke="black" d="M360.28,-243.14C350.1,-232 338.5,-219.29 328.38,-208.21"/>
<polygon fill="black" stroke="black" points="330.99,-205.87 321.66,-200.85 325.82,-210.59 330.99,-205.87"/>
</g>
<!-- n_2_5 -->
<g id="node10" class="node">
<title>n_2_5</title>
<polygon fill="none" stroke="black" points="419,-166.38 419,-191.62 471.25,-191.62 471.25,-166.38 419,-166.38"/>
<text text-anchor="start" x="426" y="-177.07" font-family="Times New Roman,serif" font-weight="bold" font-size="9.00">Preschool</text>
<polygon fill="none" stroke="black" points="471.25,-166.38 471.25,-191.62 524.25,-191.62 524.25,-166.38 471.25,-166.38"/>
<text text-anchor="start" x="478.25" y="-177.07" font-family="Times New Roman,serif" font-weight="bold" font-size="9.00">Technical</text>
<polygon fill="none" stroke="black" points="418,-165.38 418,-192.62 525.25,-192.62 525.25,-165.38 418,-165.38"/>
</g>
<!-- n_1_2_3_4_5_6&#45;&gt;n_2_5 -->
<g id="edge9" class="edge">
<title>n_1_2_3_4_5_6&#45;&gt;n_2_5</title>
<path fill="none" stroke="black" d="M413.29,-243.14C424.46,-231.05 437.34,-217.11 448.15,-205.41"/>
<polygon fill="black" stroke="black" points="450.71,-207.8 454.92,-198.08 445.56,-203.05 450.71,-207.8"/>
</g>
<!-- n_1_4 -->
<g id="node4" class="node">
<title>n_1_4</title>
<polygon fill="none" stroke="black" points="71.88,-84.38 71.88,-109.62 133.12,-109.62 133.12,-84.38 71.88,-84.38"/>
<text text-anchor="start" x="78.88" y="-95.08" font-family="Times New Roman,serif" font-weight="bold" font-size="9.00">Primary (G)</text>
<polygon fill="none" stroke="black" points="133.12,-84.38 133.12,-109.62 203.38,-109.62 203.38,-84.38 133.12,-84.38"/>
<text text-anchor="start" x="140.12" y="-95.08" font-family="Times New Roman,serif" font-weight="bold" font-size="9.00">Secondary (G)</text>
<polygon fill="none" stroke="black" points="70.88,-83.38 70.88,-110.62 204.38,-110.62 204.38,-83.38 70.88,-83.38"/>
</g>
<!-- n_1_3_4_6&#45;&gt;n_1_4 -->
<g id="edge3" class="edge">
<title>n_1_3_4_6&#45;&gt;n_1_4</title>
<path fill="none" stroke="black" d="M261.41,-158.02C237.44,-146.4 207.21,-131.74 182.62,-119.81"/>
<polygon fill="black" stroke="black" points="184.35,-116.76 173.82,-115.55 181.29,-123.06 184.35,-116.76"/>
</g>
<!-- n_3_6 -->
<g id="node7" class="node">
<title>n_3_6</title>
<polygon fill="none" stroke="black" points="250,-84.38 250,-109.62 318.75,-109.62 318.75,-84.38 250,-84.38"/>
<text text-anchor="start" x="257" y="-95.08" font-family="Times New Roman,serif" font-weight="bold" font-size="9.00">Secondary (P)</text>
<polygon fill="none" stroke="black" points="318.75,-84.38 318.75,-109.62 373.25,-109.62 373.25,-84.38 318.75,-84.38"/>
<text text-anchor="start" x="325.75" y="-95.08" font-family="Times New Roman,serif" font-weight="bold" font-size="9.00">University</text>
<polygon fill="none" stroke="black" points="249,-83.38 249,-110.62 374.25,-110.62 374.25,-83.38 249,-83.38"/>
</g>
<!-- n_1_3_4_6&#45;&gt;n_3_6 -->
<g id="edge6" class="edge">
<title>n_1_3_4_6&#45;&gt;n_3_6</title>
<path fill="none" stroke="black" d="M304.85,-158.22C305.94,-148.54 307.27,-136.72 308.46,-126.11"/>
<polygon fill="black" stroke="black" points="311.92,-126.68 309.56,-116.35 304.96,-125.89 311.92,-126.68"/>
</g>
<!-- n_1 -->
<g id="node5" class="node">
<title>n_1</title>
<polygon fill="none" stroke="black" points="9,-5.38 9,-30.62 70.25,-30.62 70.25,-5.38 9,-5.38"/>
<text text-anchor="start" x="16" y="-16.07" font-family="Times New Roman,serif" font-weight="bold" font-size="9.00">Primary (G)</text>
<polygon fill="none" stroke="black" points="8,-4.38 8,-31.62 71.25,-31.62 71.25,-4.38 8,-4.38"/>
</g>
<!-- n_1_4&#45;&gt;n_1 -->
<g id="edge4" class="edge">
<title>n_1_4&#45;&gt;n_1</title>
<path fill="none" stroke="black" d="M116.36,-79.29C102.84,-68.67 85.12,-54.75 70.12,-42.96"/>
<polygon fill="black" stroke="black" points="72.4,-40.3 62.38,-36.88 68.08,-45.81 72.4,-40.3"/>
</g>
<!-- n_4 -->
<g id="node6" class="node">
<title>n_4</title>
<polygon fill="none" stroke="black" points="117.5,-5.38 117.5,-30.62 187.75,-30.62 187.75,-5.38 117.5,-5.38"/>
<text text-anchor="start" x="124.5" y="-16.07" font-family="Times New Roman,serif" font-weight="bold" font-size="9.00">Secondary (G)</text>
<polygon fill="none" stroke="black" points="116.5,-4.38 116.5,-31.62 188.75,-31.62 188.75,-4.38 116.5,-4.38"/>
</g>
<!-- n_1_4&#45;&gt;n_4 -->
<g id="edge5" class="edge">
<title>n_1_4&#45;&gt;n_4</title>
<path fill="none" stroke="black" d="M140.88,-79.29C142.71,-69.87 145.06,-57.86 147.16,-47.04"/>
<polygon fill="black" stroke="black" points="150.56,-47.91 149.04,-37.43 143.69,-46.57 150.56,-47.91"/>
</g>
<!-- n_3 -->
<g id="node8" class="node">
<title>n_3</title>
<polygon fill="none" stroke="black" points="263.25,-5.38 263.25,-30.62 332,-30.62 332,-5.38 263.25,-5.38"/>
<text text-anchor="start" x="270.25" y="-16.07" font-family="Times New Roman,serif" font-weight="bold" font-size="9.00">Secondary (P)</text>
<polygon fill="none" stroke="black" points="262.25,-4.38 262.25,-31.62 333,-31.62 333,-4.38 262.25,-4.38"/>
</g>
<!-- n_3_6&#45;&gt;n_3 -->
<g id="edge7" class="edge">
<title>n_3_6&#45;&gt;n_3</title>
<path fill="none" stroke="black" d="M308.59,-79.29C306.87,-69.87 304.69,-57.86 302.72,-47.04"/>
<polygon fill="black" stroke="black" points="306.21,-46.64 300.98,-37.43 299.32,-47.9 306.21,-46.64"/>
</g>
<!-- n_6 -->
<g id="node9" class="node">
<title>n_6</title>
<polygon fill="none" stroke="black" points="379.38,-5.38 379.38,-30.62 433.88,-30.62 433.88,-5.38 379.38,-5.38"/>
<text text-anchor="start" x="386.38" y="-16.07" font-family="Times New Roman,serif" font-weight="bold" font-size="9.00">University</text>
<polygon fill="none" stroke="black" points="378.38,-4.38 378.38,-31.62 434.88,-31.62 434.88,-4.38 378.38,-4.38"/>
</g>
<!-- n_3_6&#45;&gt;n_6 -->
<g id="edge8" class="edge">
<title>n_3_6&#45;&gt;n_6</title>
<path fill="none" stroke="black" d="M332.24,-79.29C345.34,-68.67 362.52,-54.75 377.07,-42.96"/>
<polygon fill="black" stroke="black" points="378.98,-45.91 384.55,-36.89 374.58,-40.47 378.98,-45.91"/>
</g>
<!-- n_2 -->
<g id="node11" class="node">
<title>n_2</title>
<polygon fill="none" stroke="black" points="437.5,-84.38 437.5,-109.62 489.75,-109.62 489.75,-84.38 437.5,-84.38"/>
<text text-anchor="start" x="444.5" y="-95.08" font-family="Times New Roman,serif" font-weight="bold" font-size="9.00">Preschool</text>
<polygon fill="none" stroke="black" points="436.5,-83.38 436.5,-110.62 490.75,-110.62 490.75,-83.38 436.5,-83.38"/>
</g>
<!-- n_2_5&#45;&gt;n_2 -->
<g id="edge10" class="edge">
<title>n_2_5&#45;&gt;n_2</title>
<path fill="none" stroke="black" d="M469.93,-161.03C468.92,-150.96 467.62,-137.92 466.46,-126.32"/>
<polygon fill="black" stroke="black" points="469.95,-126.05 465.47,-116.45 462.98,-126.75 469.95,-126.05"/>
</g>
<!-- n_5 -->
<g id="node12" class="node">
<title>n_5</title>
<polygon fill="none" stroke="black" points="537.12,-84.38 537.12,-109.62 590.12,-109.62 590.12,-84.38 537.12,-84.38"/>
<text text-anchor="start" x="544.12" y="-95.08" font-family="Times New Roman,serif" font-weight="bold" font-size="9.00">Technical</text>
<polygon fill="none" stroke="black" points="536.12,-83.38 536.12,-110.62 591.12,-110.62 591.12,-83.38 536.12,-83.38"/>
</g>
<!-- n_2_5&#45;&gt;n_5 -->
<g id="edge11" class="edge">
<title>n_2_5&#45;&gt;n_5</title>
<path fill="none" stroke="black" d="M491.14,-161.03C504.07,-149.79 521.23,-134.87 535.61,-122.36"/>
<polygon fill="black" stroke="black" points="537.75,-125.14 543,-115.93 533.16,-119.86 537.75,-125.14"/>
</g>
</g>
</svg>
