<?xml version="1.0" encoding="UTF-8" standalone="no"?>
<!DOCTYPE svg PUBLIC "-//W3C//DTD SVG 1.1//EN"
 "http://www.w3.org/Graphics/SVG/1.1/DTD/svg11.dtd">
<!-- Generated by graphviz version 10.0.1 (20240210.2158)
 -->
<!-- Title: ND Pages: 1 -->
<svg width="604pt" height="405pt"
 viewBox="0.00 0.00 604.00 405.00" xmlns="http://www.w3.org/2000/svg" xmlns:xlink="http://www.w3.org/1999/xlink">
<g id="graph0" class="graph" transform="scale(1 1) rotate(0) translate(4 401)">
<title>ND</title>
<polygon fill="white" stroke="none" points="-4,4 -4,-401 600,-401 600,4 -4,4"/>
<!-- n_0_1_2_3_4_5_6 -->
<g id="node1" class="node">
<title>n_0_1_2_3_4_5_6</title>
<polygon fill="none" stroke="black" points="273.12,-342 273.12,-392 343.38,-392 343.38,-342 273.12,-342"/>
<text text-anchor="start" x="285.38" y="-377.45" font-family="Times New Roman,serif" font-weight="bold" font-size="9.00">Primary (P)</text>
<text text-anchor="start" x="284.62" y="-368.45" font-family="Times New Roman,serif" font-weight="bold" font-size="9.00">Primary (G)</text>
<text text-anchor="start" x="289.12" y="-359.45" font-family="Times New Roman,serif" font-weight="bold" font-size="9.00">Preschool</text>
<text text-anchor="start" x="280.12" y="-350.45" font-family="Times New Roman,serif" font-weight="bold" font-size="9.00">Secondary (G)</text>
<polygon fill="none" stroke="black" points="343.38,-342 343.38,-392 412.12,-392 412.12,-342 343.38,-342"/>
<text text-anchor="start" x="350.38" y="-372.95" font-family="Times New Roman,serif" font-weight="bold" font-size="9.00">Secondary (P)</text>
<text text-anchor="start" x="358.25" y="-363.95" font-family="Times New Roman,serif" font-weight="bold" font-size="9.00">Technical</text>
<text text-anchor="start" x="357.5" y="-354.95" font-family="Times New Roman,serif" font-weight="bold" font-size="9.00">University</text>
<polygon fill="none" stroke="black" points="272.12,-341 272.12,-393 413.12,-393 413.12,-341 272.12,-341"/>
</g>
<!-- n_0_1_2_4 -->
<g id="node2" class="node">
<title>n_0_1_2_4</title>
<polygon fill="none" stroke="black" points="190.62,-248 190.62,-289 260.88,-289 260.88,-248 190.62,-248"/>
<text text-anchor="start" x="202.12" y="-274.45" font-family="Times New Roman,serif" font-weight="bold" font-size="9.00">Primary (G)</text>
<text text-anchor="start" x="206.62" y="-265.45" font-family="Times New Roman,serif" font-weight="bold" font-size="9.00">Preschool</text>
<text text-anchor="start" x="197.62" y="-256.45" font-family="Times New Roman,serif" font-weight="bold" font-size="9.00">Secondary (G)</text>
<polygon fill="none" stroke="black" points="260.88,-248 260.88,-289 320.62,-289 320.62,-248 260.88,-248"/>
<text text-anchor="start" x="267.88" y="-266.57" font-family="Times New Roman,serif" font-weight="bold" font-size="9.00">Primary (P)</text>
<polygon fill="none" stroke="black" points="189.62,-247 189.62,-290 321.62,-290 321.62,-247 189.62,-247"/>
</g>
<!-- n_0_1_2_3_4_5_6&#45;&gt;n_0_1_2_4 -->
<g id="edge1" class="edge">
<title>n_0_1_2_3_4_5_6&#45;&gt;n_0_1_2_4</title>
<path fill="none" stroke="black" d="M316.52,-337.05C306.63,-326.08 295.3,-313.51 285.12,-302.22"/>
<polygon fill="black" stroke="black" points="287.91,-300.08 278.61,-295 282.71,-304.77 287.91,-300.08"/>
</g>
<!-- n_3_5_6 -->
<g id="node9" class="node">
<title>n_3_5_6</title>
<polygon fill="none" stroke="black" points="368,-252.5 368,-284.5 422.5,-284.5 422.5,-252.5 368,-252.5"/>
<text text-anchor="start" x="375.75" y="-269.95" font-family="Times New Roman,serif" font-weight="bold" font-size="9.00">Technical</text>
<text text-anchor="start" x="375" y="-260.95" font-family="Times New Roman,serif" font-weight="bold" font-size="9.00">University</text>
<polygon fill="none" stroke="black" points="422.5,-252.5 422.5,-284.5 491.25,-284.5 491.25,-252.5 422.5,-252.5"/>
<text text-anchor="start" x="429.5" y="-266.57" font-family="Times New Roman,serif" font-weight="bold" font-size="9.00">Secondary (P)</text>
<polygon fill="none" stroke="black" points="367,-251.5 367,-285.5 492.25,-285.5 492.25,-251.5 367,-251.5"/>
</g>
<!-- n_0_1_2_3_4_5_6&#45;&gt;n_3_5_6 -->
<g id="edge8" class="edge">
<title>n_0_1_2_3_4_5_6&#45;&gt;n_3_5_6</title>
<path fill="none" stroke="black" d="M368.73,-337.05C380.03,-324.51 393.22,-309.89 404.42,-297.46"/>
<polygon fill="black" stroke="black" points="406.7,-300.15 410.8,-290.38 401.5,-295.47 406.7,-300.15"/>
</g>
<!-- n_1_2_4 -->
<g id="node3" class="node">
<title>n_1_2_4</title>
<polygon fill="none" stroke="black" points="69.38,-163 69.38,-195 139.62,-195 139.62,-163 69.38,-163"/>
<text text-anchor="start" x="80.88" y="-180.45" font-family="Times New Roman,serif" font-weight="bold" font-size="9.00">Primary (G)</text>
<text text-anchor="start" x="76.38" y="-171.45" font-family="Times New Roman,serif" font-weight="bold" font-size="9.00">Secondary (G)</text>
<polygon fill="none" stroke="black" points="139.62,-163 139.62,-195 191.88,-195 191.88,-163 139.62,-163"/>
<text text-anchor="start" x="146.62" y="-177.07" font-family="Times New Roman,serif" font-weight="bold" font-size="9.00">Preschool</text>
<polygon fill="none" stroke="black" points="68.38,-162 68.38,-196 192.88,-196 192.88,-162 68.38,-162"/>
</g>
<!-- n_0_1_2_4&#45;&gt;n_1_2_4 -->
<g id="edge2" class="edge">
<title>n_0_1_2_4&#45;&gt;n_1_2_4</title>
<path fill="none" stroke="black" d="M220.81,-243.13C204.35,-231.61 184.68,-217.84 167.92,-206.11"/>
<polygon fill="black" stroke="black" points="170.39,-203.56 160.19,-200.69 166.37,-209.3 170.39,-203.56"/>
</g>
<!-- n_0 -->
<g id="node8" class="node">
<title>n_0</title>
<polygon fill="none" stroke="black" points="238.75,-166.38 238.75,-191.62 298.5,-191.62 298.5,-166.38 238.75,-166.38"/>
<text text-anchor="start" x="245.75" y="-177.07" font-family="Times New Roman,serif" font-weight="bold" font-size="9.00">Primary (P)</text>
<polygon fill="none" stroke="black" points="237.75,-165.38 237.75,-192.62 299.5,-192.62 299.5,-165.38 237.75,-165.38"/>
</g>
<!-- n_0_1_2_4&#45;&gt;n_0 -->
<g id="edge7" class="edge">
<title>n_0_1_2_4&#45;&gt;n_0</title>
<path fill="none" stroke="black" d="M259.25,-243.13C260.87,-232.17 262.8,-219.18 264.49,-207.84"/>
<polygon fill="black" stroke="black" points="267.9,-208.67 265.91,-198.27 260.98,-207.64 267.9,-208.67"/>
</g>
<!-- n_1_4 -->
<g id="node4" class="node">
<title>n_1_4</title>
<polygon fill="none" stroke="black" points="29.88,-84.38 29.88,-109.62 91.12,-109.62 91.12,-84.38 29.88,-84.38"/>
<text text-anchor="start" x="36.88" y="-95.08" font-family="Times New Roman,serif" font-weight="bold" font-size="9.00">Primary (G)</text>
<polygon fill="none" stroke="black" points="91.12,-84.38 91.12,-109.62 161.38,-109.62 161.38,-84.38 91.12,-84.38"/>
<text text-anchor="start" x="98.12" y="-95.08" font-family="Times New Roman,serif" font-weight="bold" font-size="9.00">Secondary (G)</text>
<polygon fill="none" stroke="black" points="28.88,-83.38 28.88,-110.62 162.38,-110.62 162.38,-83.38 28.88,-83.38"/>
</g>
<!-- n_1_2_4&#45;&gt;n_1_4 -->
<g id="edge3" class="edge">
<title>n_1_2_4&#45;&gt;n_1_4</title>
<path fill="none" stroke="black" d="M121.97,-158.22C117.6,-148.23 112.23,-135.95 107.48,-125.09"/>
<polygon fill="black" stroke="black" points="110.82,-123.99 103.6,-116.23 104.4,-126.79 110.82,-123.99"/>
</g>
<!-- n_2 -->
<g id="node7" class="node">
<title>n_2</title>
<polygon fill="none" stroke="black" points="208.5,-84.38 208.5,-109.62 260.75,-109.62 260.75,-84.38 208.5,-84.38"/>
<text text-anchor="start" x="215.5" y="-95.08" font-family="Times New Roman,serif" font-weight="bold" font-size="9.00">Preschool</text>
<polygon fill="none" stroke="black" points="207.5,-83.38 207.5,-110.62 261.75,-110.62 261.75,-83.38 207.5,-83.38"/>
</g>
<!-- n_1_2_4&#45;&gt;n_2 -->
<g id="edge6" class="edge">
<title>n_1_2_4&#45;&gt;n_2</title>
<path fill="none" stroke="black" d="M156.6,-158.02C170.95,-146.98 188.86,-133.2 203.9,-121.63"/>
<polygon fill="black" stroke="black" points="205.85,-124.55 211.64,-115.68 201.58,-119 205.85,-124.55"/>
</g>
<!-- n_1 -->
<g id="node5" class="node">
<title>n_1</title>
<polygon fill="none" stroke="black" points="9,-5.38 9,-30.62 70.25,-30.62 70.25,-5.38 9,-5.38"/>
<text text-anchor="start" x="16" y="-16.07" font-family="Times New Roman,serif" font-weight="bold" font-size="9.00">Primary (G)</text>
<polygon fill="none" stroke="black" points="8,-4.38 8,-31.62 71.25,-31.62 71.25,-4.38 8,-4.38"/>
</g>
<!-- n_1_4&#45;&gt;n_1 -->
<g id="edge4" class="edge">
<title>n_1_4&#45;&gt;n_1</title>
<path fill="none" stroke="black" d="M83.47,-79.29C76.19,-69.27 66.76,-56.31 58.52,-44.98"/>
<polygon fill="black" stroke="black" points="61.55,-43.19 52.84,-37.17 55.89,-47.31 61.55,-43.19"/>
</g>
<!-- n_4 -->
<g id="node6" class="node">
<title>n_4</title>
<polygon fill="none" stroke="black" points="117.5,-5.38 117.5,-30.62 187.75,-30.62 187.75,-5.38 117.5,-5.38"/>
<text text-anchor="start" x="124.5" y="-16.07" font-family="Times New Roman,serif" font-weight="bold" font-size="9.00">Secondary (G)</text>
<polygon fill="none" stroke="black" points="116.5,-4.38 116.5,-31.62 188.75,-31.62 188.75,-4.38 116.5,-4.38"/>
</g>
<!-- n_1_4&#45;&gt;n_4 -->
<g id="edge5" class="edge">
<title>n_1_4&#45;&gt;n_4</title>
<path fill="none" stroke="black" d="M107.99,-79.29C115.41,-69.27 125,-56.31 133.39,-44.98"/>
<polygon fill="black" stroke="black" points="136.05,-47.28 139.18,-37.16 130.42,-43.11 136.05,-47.28"/>
</g>
<!-- n_5_6 -->
<g id="node10" class="node">
<title>n_5_6</title>
<polygon fill="none" stroke="black" points="363.88,-166.38 363.88,-191.62 416.88,-191.62 416.88,-166.38 363.88,-166.38"/>
<text text-anchor="start" x="370.88" y="-177.07" font-family="Times New Roman,serif" font-weight="bold" font-size="9.00">Technical</text>
<polygon fill="none" stroke="black" points="416.88,-166.38 416.88,-191.62 471.38,-191.62 471.38,-166.38 416.88,-166.38"/>
<text text-anchor="start" x="423.88" y="-177.07" font-family="Times New Roman,serif" font-weight="bold" font-size="9.00">University</text>
<polygon fill="none" stroke="black" points="362.88,-165.38 362.88,-192.62 472.38,-192.62 472.38,-165.38 362.88,-165.38"/>
</g>
<!-- n_3_5_6&#45;&gt;n_5_6 -->
<g id="edge9" class="edge">
<title>n_3_5_6&#45;&gt;n_5_6</title>
<path fill="none" stroke="black" d="M426.9,-247.64C425.29,-235.91 423.23,-220.86 421.46,-207.94"/>
<polygon fill="black" stroke="black" points="424.97,-207.76 420.14,-198.33 418.03,-208.71 424.97,-207.76"/>
</g>
<!-- n_3 -->
<g id="node13" class="node">
<title>n_3</title>
<polygon fill="none" stroke="black" points="518.25,-166.38 518.25,-191.62 587,-191.62 587,-166.38 518.25,-166.38"/>
<text text-anchor="start" x="525.25" y="-177.07" font-family="Times New Roman,serif" font-weight="bold" font-size="9.00">Secondary (P)</text>
<polygon fill="none" stroke="black" points="517.25,-165.38 517.25,-192.62 588,-192.62 588,-165.38 517.25,-165.38"/>
</g>
<!-- n_3_5_6&#45;&gt;n_3 -->
<g id="edge12" class="edge">
<title>n_3_5_6&#45;&gt;n_3</title>
<path fill="none" stroke="black" d="M457.54,-247.64C475.97,-234.53 500.21,-217.29 519.6,-203.49"/>
<polygon fill="black" stroke="black" points="521.61,-206.36 527.73,-197.71 517.55,-200.65 521.61,-206.36"/>
</g>
<!-- n_5 -->
<g id="node11" class="node">
<title>n_5</title>
<polygon fill="none" stroke="black" points="349.12,-84.38 349.12,-109.62 402.12,-109.62 402.12,-84.38 349.12,-84.38"/>
<text text-anchor="start" x="356.12" y="-95.08" font-family="Times New Roman,serif" font-weight="bold" font-size="9.00">Technical</text>
<polygon fill="none" stroke="black" points="348.12,-83.38 348.12,-110.62 403.12,-110.62 403.12,-83.38 348.12,-83.38"/>
</g>
<!-- n_5_6&#45;&gt;n_5 -->
<g id="edge10" class="edge">
<title>n_5_6&#45;&gt;n_5</title>
<path fill="none" stroke="black" d="M408.72,-161.03C403.21,-150.53 396.01,-136.82 389.73,-124.87"/>
<polygon fill="black" stroke="black" points="392.97,-123.51 385.22,-116.28 386.77,-126.76 392.97,-123.51"/>
</g>
<!-- n_6 -->
<g id="node12" class="node">
<title>n_6</title>
<polygon fill="none" stroke="black" points="449.38,-84.38 449.38,-109.62 503.88,-109.62 503.88,-84.38 449.38,-84.38"/>
<text text-anchor="start" x="456.38" y="-95.08" font-family="Times New Roman,serif" font-weight="bold" font-size="9.00">University</text>
<polygon fill="none" stroke="black" points="448.38,-83.38 448.38,-110.62 504.88,-110.62 504.88,-83.38 448.38,-83.38"/>
</g>
<!-- n_5_6&#45;&gt;n_6 -->
<g id="edge11" class="edge">
<title>n_5_6&#45;&gt;n_6</title>
<path fill="none" stroke="black" d="M430.14,-161.03C438.04,-150.32 448.4,-136.27 457.34,-124.15"/>
<polygon fill="black" stroke="black" points="460.11,-126.29 463.23,-116.16 454.48,-122.13 460.11,-126.29"/>
</g>
</g>
</svg>
