<?xml version="1.0" encoding="UTF-8" standalone="no"?>
<!DOCTYPE svg PUBLIC "-//W3C//DTD SVG 1.1//EN"
 "http://www.w3.org/Graphics/SVG/1.1/DTD/svg11.dtd">
<!-- Generated by graphviz version 10.0.1 (20240210.2158)
 -->
<!-- Title: ND Pages: 1 -->
<svg width="610pt" height="405pt"
 viewBox="0.00 0.00 609.50 405.00" xmlns="http://www.w3.org/2000/svg" xmlns:xlink="http://www.w3.org/1999/xlink">
<g id="graph0" class="graph" transform="scale(1 1) rotate(0) translate(4 401)">
<title>ND</title>
<polygon fill="white" stroke="none" points="-4,4 -4,-401 605.5,-401 605.5,4 -4,4"/>
<!-- n_0_1_2_3_4_5_6 -->
<g id="node1" class="node">
<title>n_0_1_2_3_4_5_6</title>
<polygon fill="none" stroke="black" points="291.62,-342 291.62,-392 361.88,-392 361.88,-342 291.62,-342"/>
<text text-anchor="start" x="299.38" y="-377.45" font-family="Times New Roman,serif" font-weight="bold" font-size="9.00">Secondary (P)</text>
<text text-anchor="start" x="298.62" y="-368.45" font-family="Times New Roman,serif" font-weight="bold" font-size="9.00">Secondary (G)</text>
<text text-anchor="start" x="307.25" y="-359.45" font-family="Times New Roman,serif" font-weight="bold" font-size="9.00">Technical</text>
<text text-anchor="start" x="306.5" y="-350.45" font-family="Times New Roman,serif" font-weight="bold" font-size="9.00">University</text>
<polygon fill="none" stroke="black" points="361.88,-342 361.88,-392 423.12,-392 423.12,-342 361.88,-342"/>
<text text-anchor="start" x="369.62" y="-372.95" font-family="Times New Roman,serif" font-weight="bold" font-size="9.00">Primary (P)</text>
<text text-anchor="start" x="368.88" y="-363.95" font-family="Times New Roman,serif" font-weight="bold" font-size="9.00">Primary (G)</text>
<text text-anchor="start" x="373.38" y="-354.95" font-family="Times New Roman,serif" font-weight="bold" font-size="9.00">Preschool</text>
<polygon fill="none" stroke="black" points="290.62,-341 290.62,-393 424.12,-393 424.12,-341 290.62,-341"/>
</g>
<!-- n_3_4_5_6 -->
<g id="node2" class="node">
<title>n_3_4_5_6</title>
<polygon fill="none" stroke="black" points="213.75,-248 213.75,-289 284,-289 284,-248 213.75,-248"/>
<text text-anchor="start" x="221.5" y="-274.45" font-family="Times New Roman,serif" font-weight="bold" font-size="9.00">Secondary (P)</text>
<text text-anchor="start" x="220.75" y="-265.45" font-family="Times New Roman,serif" font-weight="bold" font-size="9.00">Secondary (G)</text>
<text text-anchor="start" x="228.62" y="-256.45" font-family="Times New Roman,serif" font-weight="bold" font-size="9.00">University</text>
<polygon fill="none" stroke="black" points="284,-248 284,-289 337,-289 337,-248 284,-248"/>
<text text-anchor="start" x="291" y="-266.57" font-family="Times New Roman,serif" font-weight="bold" font-size="9.00">Technical</text>
<polygon fill="none" stroke="black" points="212.75,-247 212.75,-290 338,-290 338,-247 212.75,-247"/>
</g>
<!-- n_0_1_2_3_4_5_6&#45;&gt;n_3_4_5_6 -->
<g id="edge1" class="edge">
<title>n_0_1_2_3_4_5_6&#45;&gt;n_3_4_5_6</title>
<path fill="none" stroke="black" d="M332.77,-337.05C323.54,-326.18 312.98,-313.76 303.46,-302.55"/>
<polygon fill="black" stroke="black" points="306.21,-300.38 297.07,-295.03 300.88,-304.91 306.21,-300.38"/>
</g>
<!-- n_0_1_2 -->
<g id="node9" class="node">
<title>n_0_1_2</title>
<polygon fill="none" stroke="black" points="383.62,-252.5 383.62,-284.5 444.88,-284.5 444.88,-252.5 383.62,-252.5"/>
<text text-anchor="start" x="391.38" y="-269.95" font-family="Times New Roman,serif" font-weight="bold" font-size="9.00">Primary (P)</text>
<text text-anchor="start" x="390.62" y="-260.95" font-family="Times New Roman,serif" font-weight="bold" font-size="9.00">Primary (G)</text>
<polygon fill="none" stroke="black" points="444.88,-252.5 444.88,-284.5 497.12,-284.5 497.12,-252.5 444.88,-252.5"/>
<text text-anchor="start" x="451.88" y="-266.57" font-family="Times New Roman,serif" font-weight="bold" font-size="9.00">Preschool</text>
<polygon fill="none" stroke="black" points="382.62,-251.5 382.62,-285.5 498.12,-285.5 498.12,-251.5 382.62,-251.5"/>
</g>
<!-- n_0_1_2_3_4_5_6&#45;&gt;n_0_1_2 -->
<g id="edge8" class="edge">
<title>n_0_1_2_3_4_5_6&#45;&gt;n_0_1_2</title>
<path fill="none" stroke="black" d="M382.28,-337.05C392.96,-324.63 405.4,-310.17 416.02,-297.82"/>
<polygon fill="black" stroke="black" points="418.53,-300.27 422.39,-290.41 413.22,-295.71 418.53,-300.27"/>
</g>
<!-- n_3_4_6 -->
<g id="node3" class="node">
<title>n_3_4_6</title>
<polygon fill="none" stroke="black" points="70.88,-163 70.88,-195 139.62,-195 139.62,-163 70.88,-163"/>
<text text-anchor="start" x="77.88" y="-180.45" font-family="Times New Roman,serif" font-weight="bold" font-size="9.00">Secondary (P)</text>
<text text-anchor="start" x="85" y="-171.45" font-family="Times New Roman,serif" font-weight="bold" font-size="9.00">University</text>
<polygon fill="none" stroke="black" points="139.62,-163 139.62,-195 209.88,-195 209.88,-163 139.62,-163"/>
<text text-anchor="start" x="146.62" y="-177.07" font-family="Times New Roman,serif" font-weight="bold" font-size="9.00">Secondary (G)</text>
<polygon fill="none" stroke="black" points="69.88,-162 69.88,-196 210.88,-196 210.88,-162 69.88,-162"/>
</g>
<!-- n_3_4_5_6&#45;&gt;n_3_4_6 -->
<g id="edge2" class="edge">
<title>n_3_4_5_6&#45;&gt;n_3_4_6</title>
<path fill="none" stroke="black" d="M237.77,-243.13C219.91,-231.55 198.56,-217.71 180.4,-205.94"/>
<polygon fill="black" stroke="black" points="182.53,-203.15 172.23,-200.65 178.72,-209.03 182.53,-203.15"/>
</g>
<!-- n_5 -->
<g id="node8" class="node">
<title>n_5</title>
<polygon fill="none" stroke="black" points="256.88,-166.38 256.88,-191.62 309.88,-191.62 309.88,-166.38 256.88,-166.38"/>
<text text-anchor="start" x="263.88" y="-177.07" font-family="Times New Roman,serif" font-weight="bold" font-size="9.00">Technical</text>
<polygon fill="none" stroke="black" points="255.88,-165.38 255.88,-192.62 310.88,-192.62 310.88,-165.38 255.88,-165.38"/>
</g>
<!-- n_3_4_5_6&#45;&gt;n_5 -->
<g id="edge7" class="edge">
<title>n_3_4_5_6&#45;&gt;n_5</title>
<path fill="none" stroke="black" d="M277.6,-243.13C278.59,-232.28 279.77,-219.45 280.8,-208.19"/>
<polygon fill="black" stroke="black" points="284.28,-208.56 281.7,-198.28 277.31,-207.92 284.28,-208.56"/>
</g>
<!-- n_3_6 -->
<g id="node4" class="node">
<title>n_3_6</title>
<polygon fill="none" stroke="black" points="35.75,-84.38 35.75,-109.62 104.5,-109.62 104.5,-84.38 35.75,-84.38"/>
<text text-anchor="start" x="42.75" y="-95.08" font-family="Times New Roman,serif" font-weight="bold" font-size="9.00">Secondary (P)</text>
<polygon fill="none" stroke="black" points="104.5,-84.38 104.5,-109.62 159,-109.62 159,-84.38 104.5,-84.38"/>
<text text-anchor="start" x="111.5" y="-95.08" font-family="Times New Roman,serif" font-weight="bold" font-size="9.00">University</text>
<polygon fill="none" stroke="black" points="34.75,-83.38 34.75,-110.62 160,-110.62 160,-83.38 34.75,-83.38"/>
</g>
<!-- n_3_4_6&#45;&gt;n_3_6 -->
<g id="edge3" class="edge">
<title>n_3_4_6&#45;&gt;n_3_6</title>
<path fill="none" stroke="black" d="M129.75,-158.22C124.32,-148.13 117.64,-135.69 111.75,-124.75"/>
<polygon fill="black" stroke="black" points="114.96,-123.33 107.15,-116.18 108.8,-126.64 114.96,-123.33"/>
</g>
<!-- n_4 -->
<g id="node7" class="node">
<title>n_4</title>
<polygon fill="none" stroke="black" points="206.25,-84.38 206.25,-109.62 276.5,-109.62 276.5,-84.38 206.25,-84.38"/>
<text text-anchor="start" x="213.25" y="-95.08" font-family="Times New Roman,serif" font-weight="bold" font-size="9.00">Secondary (G)</text>
<polygon fill="none" stroke="black" points="205.25,-83.38 205.25,-110.62 277.5,-110.62 277.5,-83.38 205.25,-83.38"/>
</g>
<!-- n_3_4_6&#45;&gt;n_4 -->
<g id="edge6" class="edge">
<title>n_3_4_6&#45;&gt;n_4</title>
<path fill="none" stroke="black" d="M165.6,-158.02C179.54,-146.98 196.93,-133.2 211.54,-121.63"/>
<polygon fill="black" stroke="black" points="213.37,-124.65 219.03,-115.7 209.02,-119.16 213.37,-124.65"/>
</g>
<!-- n_3 -->
<g id="node5" class="node">
<title>n_3</title>
<polygon fill="none" stroke="black" points="9,-5.38 9,-30.62 77.75,-30.62 77.75,-5.38 9,-5.38"/>
<text text-anchor="start" x="16" y="-16.07" font-family="Times New Roman,serif" font-weight="bold" font-size="9.00">Secondary (P)</text>
<polygon fill="none" stroke="black" points="8,-4.38 8,-31.62 78.75,-31.62 78.75,-4.38 8,-4.38"/>
</g>
<!-- n_3_6&#45;&gt;n_3 -->
<g id="edge4" class="edge">
<title>n_3_6&#45;&gt;n_3</title>
<path fill="none" stroke="black" d="M85.66,-79.29C78.7,-69.37 69.72,-56.57 61.83,-45.32"/>
<polygon fill="black" stroke="black" points="64.73,-43.36 56.12,-37.18 59,-47.38 64.73,-43.36"/>
</g>
<!-- n_6 -->
<g id="node6" class="node">
<title>n_6</title>
<polygon fill="none" stroke="black" points="125.12,-5.38 125.12,-30.62 179.62,-30.62 179.62,-5.38 125.12,-5.38"/>
<text text-anchor="start" x="132.12" y="-16.07" font-family="Times New Roman,serif" font-weight="bold" font-size="9.00">University</text>
<polygon fill="none" stroke="black" points="124.12,-4.38 124.12,-31.62 180.62,-31.62 180.62,-4.38 124.12,-4.38"/>
</g>
<!-- n_3_6&#45;&gt;n_6 -->
<g id="edge5" class="edge">
<title>n_3_6&#45;&gt;n_6</title>
<path fill="none" stroke="black" d="M109.31,-79.29C116.47,-69.27 125.72,-56.31 133.82,-44.98"/>
<polygon fill="black" stroke="black" points="136.43,-47.34 139.39,-37.17 130.73,-43.28 136.43,-47.34"/>
</g>
<!-- n_0_1 -->
<g id="node10" class="node">
<title>n_0_1</title>
<polygon fill="none" stroke="black" points="371.88,-166.38 371.88,-191.62 431.62,-191.62 431.62,-166.38 371.88,-166.38"/>
<text text-anchor="start" x="378.88" y="-177.07" font-family="Times New Roman,serif" font-weight="bold" font-size="9.00">Primary (P)</text>
<polygon fill="none" stroke="black" points="431.62,-166.38 431.62,-191.62 492.88,-191.62 492.88,-166.38 431.62,-166.38"/>
<text text-anchor="start" x="438.62" y="-177.07" font-family="Times New Roman,serif" font-weight="bold" font-size="9.00">Primary (G)</text>
<polygon fill="none" stroke="black" points="370.88,-165.38 370.88,-192.62 493.88,-192.62 493.88,-165.38 370.88,-165.38"/>
</g>
<!-- n_0_1_2&#45;&gt;n_0_1 -->
<g id="edge9" class="edge">
<title>n_0_1_2&#45;&gt;n_0_1</title>
<path fill="none" stroke="black" d="M438.56,-247.64C437.49,-235.91 436.11,-220.86 434.93,-207.94"/>
<polygon fill="black" stroke="black" points="438.45,-207.98 434.05,-198.34 431.48,-208.62 438.45,-207.98"/>
</g>
<!-- n_2 -->
<g id="node13" class="node">
<title>n_2</title>
<polygon fill="none" stroke="black" points="540.25,-166.38 540.25,-191.62 592.5,-191.62 592.5,-166.38 540.25,-166.38"/>
<text text-anchor="start" x="547.25" y="-177.07" font-family="Times New Roman,serif" font-weight="bold" font-size="9.00">Preschool</text>
<polygon fill="none" stroke="black" points="539.25,-165.38 539.25,-192.62 593.5,-192.62 593.5,-165.38 539.25,-165.38"/>
</g>
<!-- n_0_1_2&#45;&gt;n_2 -->
<g id="edge12" class="edge">
<title>n_0_1_2&#45;&gt;n_2</title>
<path fill="none" stroke="black" d="M468.97,-247.64C487.94,-234.47 512.91,-217.13 532.82,-203.3"/>
<polygon fill="black" stroke="black" points="534.68,-206.27 540.89,-197.7 530.68,-200.52 534.68,-206.27"/>
</g>
<!-- n_0 -->
<g id="node11" class="node">
<title>n_0</title>
<polygon fill="none" stroke="black" points="362.5,-84.38 362.5,-109.62 422.25,-109.62 422.25,-84.38 362.5,-84.38"/>
<text text-anchor="start" x="369.5" y="-95.08" font-family="Times New Roman,serif" font-weight="bold" font-size="9.00">Primary (P)</text>
<polygon fill="none" stroke="black" points="361.5,-83.38 361.5,-110.62 423.25,-110.62 423.25,-83.38 361.5,-83.38"/>
</g>
<!-- n_0_1&#45;&gt;n_0 -->
<g id="edge10" class="edge">
<title>n_0_1&#45;&gt;n_0</title>
<path fill="none" stroke="black" d="M423.89,-161.03C418.69,-150.64 411.92,-137.1 405.99,-125.23"/>
<polygon fill="black" stroke="black" points="409.13,-123.67 401.52,-116.3 402.86,-126.8 409.13,-123.67"/>
</g>
<!-- n_1 -->
<g id="node12" class="node">
<title>n_1</title>
<polygon fill="none" stroke="black" points="469.75,-84.38 469.75,-109.62 531,-109.62 531,-84.38 469.75,-84.38"/>
<text text-anchor="start" x="476.75" y="-95.08" font-family="Times New Roman,serif" font-weight="bold" font-size="9.00">Primary (G)</text>
<polygon fill="none" stroke="black" points="468.75,-83.38 468.75,-110.62 532,-110.62 532,-83.38 468.75,-83.38"/>
</g>
<!-- n_0_1&#45;&gt;n_1 -->
<g id="edge11" class="edge">
<title>n_0_1&#45;&gt;n_1</title>
<path fill="none" stroke="black" d="M446.8,-161.03C456.08,-150.11 468.32,-135.71 478.76,-123.43"/>
<polygon fill="black" stroke="black" points="481.18,-125.98 484.99,-116.09 475.85,-121.45 481.18,-125.98"/>
</g>
</g>
</svg>
