<?xml version="1.0" encoding="UTF-8" standalone="no"?>
<!DOCTYPE svg PUBLIC "-//W3C//DTD SVG 1.1//EN"
 "http://www.w3.org/Graphics/SVG/1.1/DTD/svg11.dtd">
<!-- Generated by graphviz version 10.0.1 (20240210.2158)
 -->
<!-- Title: ND Pages: 1 -->
<svg width="667pt" height="517pt"
 viewBox="0.00 0.00 667.00 517.00" xmlns="http://www.w3.org/2000/svg" xmlns:xlink="http://www.w3.org/1999/xlink">
<g id="graph0" class="graph" transform="scale(1 1) rotate(0) translate(4 513)">
<title>ND</title>
<polygon fill="white" stroke="none" points="-4,4 -4,-513 663,-513 663,4 -4,4"/>
<!-- n_0_1_2_3_4_5_6 -->
<g id="node1" class="node">
<title>n_0_1_2_3_4_5_6</title>
<polygon fill="none" stroke="black" points="361.12,-445 361.12,-504 422.38,-504 422.38,-445 361.12,-445"/>
<text text-anchor="start" x="368.88" y="-489.45" font-family="Times New Roman,serif" font-weight="bold" font-size="9.00">Primary (P)</text>
<text text-anchor="start" x="368.12" y="-480.45" font-family="Times New Roman,serif" font-weight="bold" font-size="9.00">Primary (G)</text>
<text text-anchor="start" x="372.62" y="-471.45" font-family="Times New Roman,serif" font-weight="bold" font-size="9.00">Preschool</text>
<text text-anchor="start" x="372.25" y="-462.45" font-family="Times New Roman,serif" font-weight="bold" font-size="9.00">Technical</text>
<text text-anchor="start" x="371.5" y="-453.45" font-family="Times New Roman,serif" font-weight="bold" font-size="9.00">University</text>
<polygon fill="none" stroke="black" points="422.38,-445 422.38,-504 492.62,-504 492.62,-445 422.38,-445"/>
<text text-anchor="start" x="430.12" y="-475.95" font-family="Times New Roman,serif" font-weight="bold" font-size="9.00">Secondary (P)</text>
<text text-anchor="start" x="429.38" y="-466.95" font-family="Times New Roman,serif" font-weight="bold" font-size="9.00">Secondary (G)</text>
<polygon fill="none" stroke="black" points="360.12,-444 360.12,-505 493.62,-505 493.62,-444 360.12,-444"/>
</g>
<!-- n_0_1_2_5_6 -->
<g id="node2" class="node">
<title>n_0_1_2_5_6</title>
<polygon fill="none" stroke="black" points="282.75,-342 282.75,-392 344,-392 344,-342 282.75,-342"/>
<text text-anchor="start" x="290.5" y="-377.45" font-family="Times New Roman,serif" font-weight="bold" font-size="9.00">Primary (P)</text>
<text text-anchor="start" x="289.75" y="-368.45" font-family="Times New Roman,serif" font-weight="bold" font-size="9.00">Primary (G)</text>
<text text-anchor="start" x="294.25" y="-359.45" font-family="Times New Roman,serif" font-weight="bold" font-size="9.00">Preschool</text>
<text text-anchor="start" x="293.12" y="-350.45" font-family="Times New Roman,serif" font-weight="bold" font-size="9.00">University</text>
<polygon fill="none" stroke="black" points="344,-342 344,-392 397,-392 397,-342 344,-342"/>
<text text-anchor="start" x="351" y="-365.07" font-family="Times New Roman,serif" font-weight="bold" font-size="9.00">Technical</text>
<polygon fill="none" stroke="black" points="281.75,-341 281.75,-393 398,-393 398,-341 281.75,-341"/>
</g>
<!-- n_0_1_2_3_4_5_6&#45;&gt;n_0_1_2_5_6 -->
<g id="edge1" class="edge">
<title>n_0_1_2_3_4_5_6&#45;&gt;n_0_1_2_5_6</title>
<path fill="none" stroke="black" d="M399.35,-440.12C390.31,-429.16 380.21,-416.91 370.93,-405.66"/>
<polygon fill="black" stroke="black" points="373.73,-403.55 364.67,-398.07 368.33,-408.01 373.73,-403.55"/>
</g>
<!-- n_3_4 -->
<g id="node11" class="node">
<title>n_3_4</title>
<polygon fill="none" stroke="black" points="444.38,-354.38 444.38,-379.62 513.12,-379.62 513.12,-354.38 444.38,-354.38"/>
<text text-anchor="start" x="451.38" y="-365.07" font-family="Times New Roman,serif" font-weight="bold" font-size="9.00">Secondary (P)</text>
<polygon fill="none" stroke="black" points="513.12,-354.38 513.12,-379.62 583.38,-379.62 583.38,-354.38 513.12,-354.38"/>
<text text-anchor="start" x="520.12" y="-365.07" font-family="Times New Roman,serif" font-weight="bold" font-size="9.00">Secondary (G)</text>
<polygon fill="none" stroke="black" points="443.38,-353.38 443.38,-380.62 584.38,-380.62 584.38,-353.38 443.38,-353.38"/>
</g>
<!-- n_0_1_2_3_4_5_6&#45;&gt;n_3_4 -->
<g id="edge10" class="edge">
<title>n_0_1_2_3_4_5_6&#45;&gt;n_3_4</title>
<path fill="none" stroke="black" d="M454.4,-440.12C466.82,-425.06 481.25,-407.57 492.78,-393.58"/>
<polygon fill="black" stroke="black" points="495.27,-396.06 498.93,-386.12 489.87,-391.61 495.27,-396.06"/>
</g>
<!-- n_0_1_2_6 -->
<g id="node3" class="node">
<title>n_0_1_2_6</title>
<polygon fill="none" stroke="black" points="162.38,-248 162.38,-289 222.12,-289 222.12,-248 162.38,-248"/>
<text text-anchor="start" x="169.38" y="-274.45" font-family="Times New Roman,serif" font-weight="bold" font-size="9.00">Primary (P)</text>
<text text-anchor="start" x="173.12" y="-265.45" font-family="Times New Roman,serif" font-weight="bold" font-size="9.00">Preschool</text>
<text text-anchor="start" x="172" y="-256.45" font-family="Times New Roman,serif" font-weight="bold" font-size="9.00">University</text>
<polygon fill="none" stroke="black" points="222.12,-248 222.12,-289 283.38,-289 283.38,-248 222.12,-248"/>
<text text-anchor="start" x="229.12" y="-266.57" font-family="Times New Roman,serif" font-weight="bold" font-size="9.00">Primary (G)</text>
<polygon fill="none" stroke="black" points="161.38,-247 161.38,-290 284.38,-290 284.38,-247 161.38,-247"/>
</g>
<!-- n_0_1_2_5_6&#45;&gt;n_0_1_2_6 -->
<g id="edge2" class="edge">
<title>n_0_1_2_5_6&#45;&gt;n_0_1_2_6</title>
<path fill="none" stroke="black" d="M304.77,-337.05C290.95,-325.65 275.04,-312.52 260.94,-300.89"/>
<polygon fill="black" stroke="black" points="263.54,-298.5 253.6,-294.84 259.08,-303.9 263.54,-298.5"/>
</g>
<!-- n_5 -->
<g id="node10" class="node">
<title>n_5</title>
<polygon fill="none" stroke="black" points="330.38,-255.88 330.38,-281.12 383.38,-281.12 383.38,-255.88 330.38,-255.88"/>
<text text-anchor="start" x="337.38" y="-266.57" font-family="Times New Roman,serif" font-weight="bold" font-size="9.00">Technical</text>
<polygon fill="none" stroke="black" points="329.38,-254.88 329.38,-282.12 384.38,-282.12 384.38,-254.88 329.38,-254.88"/>
</g>
<!-- n_0_1_2_5_6&#45;&gt;n_5 -->
<g id="edge9" class="edge">
<title>n_0_1_2_5_6&#45;&gt;n_5</title>
<path fill="none" stroke="black" d="M344.98,-337.05C347.18,-324.51 349.76,-309.89 351.95,-297.47"/>
<polygon fill="black" stroke="black" points="355.35,-298.31 353.64,-287.86 348.46,-297.1 355.35,-298.31"/>
</g>
<!-- n_0_2_6 -->
<g id="node4" class="node">
<title>n_0_2_6</title>
<polygon fill="none" stroke="black" points="99.88,-163 99.88,-195 159.62,-195 159.62,-163 99.88,-163"/>
<text text-anchor="start" x="106.88" y="-180.45" font-family="Times New Roman,serif" font-weight="bold" font-size="9.00">Primary (P)</text>
<text text-anchor="start" x="109.5" y="-171.45" font-family="Times New Roman,serif" font-weight="bold" font-size="9.00">University</text>
<polygon fill="none" stroke="black" points="159.62,-163 159.62,-195 211.88,-195 211.88,-163 159.62,-163"/>
<text text-anchor="start" x="166.62" y="-177.07" font-family="Times New Roman,serif" font-weight="bold" font-size="9.00">Preschool</text>
<polygon fill="none" stroke="black" points="98.88,-162 98.88,-196 212.88,-196 212.88,-162 98.88,-162"/>
</g>
<!-- n_0_1_2_6&#45;&gt;n_0_2_6 -->
<g id="edge3" class="edge">
<title>n_0_1_2_6&#45;&gt;n_0_2_6</title>
<path fill="none" stroke="black" d="M204.21,-243.13C196.04,-232.46 186.4,-219.87 177.89,-208.75"/>
<polygon fill="black" stroke="black" points="180.83,-206.84 171.98,-201.03 175.28,-211.1 180.83,-206.84"/>
</g>
<!-- n_1 -->
<g id="node9" class="node">
<title>n_1</title>
<polygon fill="none" stroke="black" points="259.25,-166.38 259.25,-191.62 320.5,-191.62 320.5,-166.38 259.25,-166.38"/>
<text text-anchor="start" x="266.25" y="-177.07" font-family="Times New Roman,serif" font-weight="bold" font-size="9.00">Primary (G)</text>
<polygon fill="none" stroke="black" points="258.25,-165.38 258.25,-192.62 321.5,-192.62 321.5,-165.38 258.25,-165.38"/>
</g>
<!-- n_0_1_2_6&#45;&gt;n_1 -->
<g id="edge8" class="edge">
<title>n_0_1_2_6&#45;&gt;n_1</title>
<path fill="none" stroke="black" d="M241.54,-243.13C250.46,-231.48 261.14,-217.53 270.19,-205.71"/>
<polygon fill="black" stroke="black" points="272.81,-208.04 276.11,-197.97 267.25,-203.78 272.81,-208.04"/>
</g>
<!-- n_0_6 -->
<g id="node5" class="node">
<title>n_0_6</title>
<polygon fill="none" stroke="black" points="33.75,-84.38 33.75,-109.62 93.5,-109.62 93.5,-84.38 33.75,-84.38"/>
<text text-anchor="start" x="40.75" y="-95.08" font-family="Times New Roman,serif" font-weight="bold" font-size="9.00">Primary (P)</text>
<polygon fill="none" stroke="black" points="93.5,-84.38 93.5,-109.62 148,-109.62 148,-84.38 93.5,-84.38"/>
<text text-anchor="start" x="100.5" y="-95.08" font-family="Times New Roman,serif" font-weight="bold" font-size="9.00">University</text>
<polygon fill="none" stroke="black" points="32.75,-83.38 32.75,-110.62 149,-110.62 149,-83.38 32.75,-83.38"/>
</g>
<!-- n_0_2_6&#45;&gt;n_0_6 -->
<g id="edge4" class="edge">
<title>n_0_2_6&#45;&gt;n_0_6</title>
<path fill="none" stroke="black" d="M139.81,-158.22C131.35,-147.81 120.87,-134.92 111.79,-123.74"/>
<polygon fill="black" stroke="black" points="114.54,-121.57 105.52,-116.02 109.1,-125.99 114.54,-121.57"/>
</g>
<!-- n_2 -->
<g id="node8" class="node">
<title>n_2</title>
<polygon fill="none" stroke="black" points="194.75,-84.38 194.75,-109.62 247,-109.62 247,-84.38 194.75,-84.38"/>
<text text-anchor="start" x="201.75" y="-95.08" font-family="Times New Roman,serif" font-weight="bold" font-size="9.00">Preschool</text>
<polygon fill="none" stroke="black" points="193.75,-83.38 193.75,-110.62 248,-110.62 248,-83.38 193.75,-83.38"/>
</g>
<!-- n_0_2_6&#45;&gt;n_2 -->
<g id="edge7" class="edge">
<title>n_0_2_6&#45;&gt;n_2</title>
<path fill="none" stroke="black" d="M171.94,-158.22C180.4,-147.81 190.88,-134.92 199.96,-123.74"/>
<polygon fill="black" stroke="black" points="202.65,-125.99 206.23,-116.02 197.21,-121.57 202.65,-125.99"/>
</g>
<!-- n_0 -->
<g id="node6" class="node">
<title>n_0</title>
<polygon fill="none" stroke="black" points="9,-5.38 9,-30.62 68.75,-30.62 68.75,-5.38 9,-5.38"/>
<text text-anchor="start" x="16" y="-16.07" font-family="Times New Roman,serif" font-weight="bold" font-size="9.00">Primary (P)</text>
<polygon fill="none" stroke="black" points="8,-4.38 8,-31.62 69.75,-31.62 69.75,-4.38 8,-4.38"/>
</g>
<!-- n_0_6&#45;&gt;n_0 -->
<g id="edge5" class="edge">
<title>n_0_6&#45;&gt;n_0</title>
<path fill="none" stroke="black" d="M79.59,-79.29C72.89,-69.37 64.25,-56.57 56.65,-45.32"/>
<polygon fill="black" stroke="black" points="59.66,-43.52 51.16,-37.2 53.86,-47.44 59.66,-43.52"/>
</g>
<!-- n_6 -->
<g id="node7" class="node">
<title>n_6</title>
<polygon fill="none" stroke="black" points="115.62,-5.38 115.62,-30.62 170.12,-30.62 170.12,-5.38 115.62,-5.38"/>
<text text-anchor="start" x="122.62" y="-16.07" font-family="Times New Roman,serif" font-weight="bold" font-size="9.00">University</text>
<polygon fill="none" stroke="black" points="114.62,-4.38 114.62,-31.62 171.12,-31.62 171.12,-4.38 114.62,-4.38"/>
</g>
<!-- n_0_6&#45;&gt;n_6 -->
<g id="edge6" class="edge">
<title>n_0_6&#45;&gt;n_6</title>
<path fill="none" stroke="black" d="M102.16,-79.29C108.86,-69.37 117.5,-56.57 125.1,-45.32"/>
<polygon fill="black" stroke="black" points="127.89,-47.44 130.59,-37.2 122.09,-43.52 127.89,-47.44"/>
</g>
<!-- n_3 -->
<g id="node12" class="node">
<title>n_3</title>
<polygon fill="none" stroke="black" points="463.5,-255.88 463.5,-281.12 532.25,-281.12 532.25,-255.88 463.5,-255.88"/>
<text text-anchor="start" x="470.5" y="-266.57" font-family="Times New Roman,serif" font-weight="bold" font-size="9.00">Secondary (P)</text>
<polygon fill="none" stroke="black" points="462.5,-254.88 462.5,-282.12 533.25,-282.12 533.25,-254.88 462.5,-254.88"/>
</g>
<!-- n_3_4&#45;&gt;n_3 -->
<g id="edge11" class="edge">
<title>n_3_4&#45;&gt;n_3</title>
<path fill="none" stroke="black" d="M511.09,-349.19C508.74,-335.03 505.33,-314.46 502.56,-297.76"/>
<polygon fill="black" stroke="black" points="506.02,-297.23 500.93,-287.93 499.11,-298.37 506.02,-297.23"/>
</g>
<!-- n_4 -->
<g id="node13" class="node">
<title>n_4</title>
<polygon fill="none" stroke="black" points="579.75,-255.88 579.75,-281.12 650,-281.12 650,-255.88 579.75,-255.88"/>
<text text-anchor="start" x="586.75" y="-266.57" font-family="Times New Roman,serif" font-weight="bold" font-size="9.00">Secondary (G)</text>
<polygon fill="none" stroke="black" points="578.75,-254.88 578.75,-282.12 651,-282.12 651,-254.88 578.75,-254.88"/>
</g>
<!-- n_3_4&#45;&gt;n_4 -->
<g id="edge12" class="edge">
<title>n_3_4&#45;&gt;n_4</title>
<path fill="none" stroke="black" d="M531.47,-349.19C547.45,-333.93 571.21,-311.22 589.29,-293.95"/>
<polygon fill="black" stroke="black" points="591.24,-296.92 596.05,-287.49 586.4,-291.86 591.24,-296.92"/>
</g>
</g>
</svg>
