<?xml version="1.0" encoding="UTF-8" standalone="no"?>
<!DOCTYPE svg PUBLIC "-//W3C//DTD SVG 1.1//EN"
 "http://www.w3.org/Graphics/SVG/1.1/DTD/svg11.dtd">
<!-- Generated by graphviz version 10.0.1 (20240210.2158)
 -->
<!-- Title: ND Pages: 1 -->
<svg width="603pt" height="405pt"
 viewBox="0.00 0.00 603.12 405.00" xmlns="http://www.w3.org/2000/svg" xmlns:xlink="http://www.w3.org/1999/xlink">
<g id="graph0" class="graph" transform="scale(1 1) rotate(0) translate(4 401)">
<title>ND</title>
<polygon fill="white" stroke="none" points="-4,4 -4,-401 599.12,-401 599.12,4 -4,4"/>
<!-- n_0_1_2_3_4_5_6 -->
<g id="node1" class="node">
<title>n_0_1_2_3_4_5_6</title>
<polygon fill="none" stroke="black" points="278.12,-342 278.12,-392 348.38,-392 348.38,-342 278.12,-342"/>
<text text-anchor="start" x="290.38" y="-377.45" font-family="Times New Roman,serif" font-weight="bold" font-size="9.00">Primary (P)</text>
<text text-anchor="start" x="289.62" y="-368.45" font-family="Times New Roman,serif" font-weight="bold" font-size="9.00">Primary (G)</text>
<text text-anchor="start" x="285.12" y="-359.45" font-family="Times New Roman,serif" font-weight="bold" font-size="9.00">Secondary (G)</text>
<text text-anchor="start" x="293" y="-350.45" font-family="Times New Roman,serif" font-weight="bold" font-size="9.00">University</text>
<polygon fill="none" stroke="black" points="348.38,-342 348.38,-392 417.12,-392 417.12,-342 348.38,-342"/>
<text text-anchor="start" x="363.62" y="-372.95" font-family="Times New Roman,serif" font-weight="bold" font-size="9.00">Preschool</text>
<text text-anchor="start" x="355.38" y="-363.95" font-family="Times New Roman,serif" font-weight="bold" font-size="9.00">Secondary (P)</text>
<text text-anchor="start" x="363.25" y="-354.95" font-family="Times New Roman,serif" font-weight="bold" font-size="9.00">Technical</text>
<polygon fill="none" stroke="black" points="277.12,-341 277.12,-393 418.12,-393 418.12,-341 277.12,-341"/>
</g>
<!-- n_0_1_4_6 -->
<g id="node2" class="node">
<title>n_0_1_4_6</title>
<polygon fill="none" stroke="black" points="196.62,-248 196.62,-289 266.88,-289 266.88,-248 196.62,-248"/>
<text text-anchor="start" x="208.12" y="-274.45" font-family="Times New Roman,serif" font-weight="bold" font-size="9.00">Primary (G)</text>
<text text-anchor="start" x="203.62" y="-265.45" font-family="Times New Roman,serif" font-weight="bold" font-size="9.00">Secondary (G)</text>
<text text-anchor="start" x="211.5" y="-256.45" font-family="Times New Roman,serif" font-weight="bold" font-size="9.00">University</text>
<polygon fill="none" stroke="black" points="266.88,-248 266.88,-289 326.62,-289 326.62,-248 266.88,-248"/>
<text text-anchor="start" x="273.88" y="-266.57" font-family="Times New Roman,serif" font-weight="bold" font-size="9.00">Primary (P)</text>
<polygon fill="none" stroke="black" points="195.62,-247 195.62,-290 327.62,-290 327.62,-247 195.62,-247"/>
</g>
<!-- n_0_1_2_3_4_5_6&#45;&gt;n_0_1_4_6 -->
<g id="edge1" class="edge">
<title>n_0_1_2_3_4_5_6&#45;&gt;n_0_1_4_6</title>
<path fill="none" stroke="black" d="M321.82,-337.05C312.04,-326.08 300.85,-313.51 290.78,-302.22"/>
<polygon fill="black" stroke="black" points="293.62,-300.14 284.35,-295 288.39,-304.8 293.62,-300.14"/>
</g>
<!-- n_2_3_5 -->
<g id="node9" class="node">
<title>n_2_3_5</title>
<polygon fill="none" stroke="black" points="373.75,-252.5 373.75,-284.5 442.5,-284.5 442.5,-252.5 373.75,-252.5"/>
<text text-anchor="start" x="389" y="-269.95" font-family="Times New Roman,serif" font-weight="bold" font-size="9.00">Preschool</text>
<text text-anchor="start" x="380.75" y="-260.95" font-family="Times New Roman,serif" font-weight="bold" font-size="9.00">Secondary (P)</text>
<polygon fill="none" stroke="black" points="442.5,-252.5 442.5,-284.5 495.5,-284.5 495.5,-252.5 442.5,-252.5"/>
<text text-anchor="start" x="449.5" y="-266.57" font-family="Times New Roman,serif" font-weight="bold" font-size="9.00">Technical</text>
<polygon fill="none" stroke="black" points="372.75,-251.5 372.75,-285.5 496.5,-285.5 496.5,-251.5 372.75,-251.5"/>
</g>
<!-- n_0_1_2_3_4_5_6&#45;&gt;n_2_3_5 -->
<g id="edge8" class="edge">
<title>n_0_1_2_3_4_5_6&#45;&gt;n_2_3_5</title>
<path fill="none" stroke="black" d="M373.73,-337.05C385.03,-324.51 398.22,-309.89 409.42,-297.46"/>
<polygon fill="black" stroke="black" points="411.7,-300.15 415.8,-290.38 406.5,-295.47 411.7,-300.15"/>
</g>
<!-- n_1_4_6 -->
<g id="node3" class="node">
<title>n_1_4_6</title>
<polygon fill="none" stroke="black" points="69.25,-163 69.25,-195 139.5,-195 139.5,-163 69.25,-163"/>
<text text-anchor="start" x="80.75" y="-180.45" font-family="Times New Roman,serif" font-weight="bold" font-size="9.00">Primary (G)</text>
<text text-anchor="start" x="76.25" y="-171.45" font-family="Times New Roman,serif" font-weight="bold" font-size="9.00">Secondary (G)</text>
<polygon fill="none" stroke="black" points="139.5,-163 139.5,-195 194,-195 194,-163 139.5,-163"/>
<text text-anchor="start" x="146.5" y="-177.07" font-family="Times New Roman,serif" font-weight="bold" font-size="9.00">University</text>
<polygon fill="none" stroke="black" points="68.25,-162 68.25,-196 195,-196 195,-162 68.25,-162"/>
</g>
<!-- n_0_1_4_6&#45;&gt;n_1_4_6 -->
<g id="edge2" class="edge">
<title>n_0_1_4_6&#45;&gt;n_1_4_6</title>
<path fill="none" stroke="black" d="M225.41,-243.13C208.3,-231.61 187.85,-217.84 170.41,-206.11"/>
<polygon fill="black" stroke="black" points="172.59,-203.35 162.34,-200.67 168.68,-209.16 172.59,-203.35"/>
</g>
<!-- n_0 -->
<g id="node8" class="node">
<title>n_0</title>
<polygon fill="none" stroke="black" points="240.75,-166.38 240.75,-191.62 300.5,-191.62 300.5,-166.38 240.75,-166.38"/>
<text text-anchor="start" x="247.75" y="-177.07" font-family="Times New Roman,serif" font-weight="bold" font-size="9.00">Primary (P)</text>
<polygon fill="none" stroke="black" points="239.75,-165.38 239.75,-192.62 301.5,-192.62 301.5,-165.38 239.75,-165.38"/>
</g>
<!-- n_0_1_4_6&#45;&gt;n_0 -->
<g id="edge7" class="edge">
<title>n_0_1_4_6&#45;&gt;n_0</title>
<path fill="none" stroke="black" d="M264.13,-243.13C265.25,-232.28 266.57,-219.45 267.72,-208.19"/>
<polygon fill="black" stroke="black" points="271.2,-208.58 268.75,-198.28 264.24,-207.87 271.2,-208.58"/>
</g>
<!-- n_1_4 -->
<g id="node4" class="node">
<title>n_1_4</title>
<polygon fill="none" stroke="black" points="29.88,-84.38 29.88,-109.62 91.12,-109.62 91.12,-84.38 29.88,-84.38"/>
<text text-anchor="start" x="36.88" y="-95.08" font-family="Times New Roman,serif" font-weight="bold" font-size="9.00">Primary (G)</text>
<polygon fill="none" stroke="black" points="91.12,-84.38 91.12,-109.62 161.38,-109.62 161.38,-84.38 91.12,-84.38"/>
<text text-anchor="start" x="98.12" y="-95.08" font-family="Times New Roman,serif" font-weight="bold" font-size="9.00">Secondary (G)</text>
<polygon fill="none" stroke="black" points="28.88,-83.38 28.88,-110.62 162.38,-110.62 162.38,-83.38 28.88,-83.38"/>
</g>
<!-- n_1_4_6&#45;&gt;n_1_4 -->
<g id="edge3" class="edge">
<title>n_1_4_6&#45;&gt;n_1_4</title>
<path fill="none" stroke="black" d="M122.73,-158.22C118.23,-148.23 112.7,-135.95 107.82,-125.09"/>
<polygon fill="black" stroke="black" points="111.12,-123.91 103.83,-116.22 104.74,-126.78 111.12,-123.91"/>
</g>
<!-- n_6 -->
<g id="node7" class="node">
<title>n_6</title>
<polygon fill="none" stroke="black" points="208.38,-84.38 208.38,-109.62 262.88,-109.62 262.88,-84.38 208.38,-84.38"/>
<text text-anchor="start" x="215.38" y="-95.08" font-family="Times New Roman,serif" font-weight="bold" font-size="9.00">University</text>
<polygon fill="none" stroke="black" points="207.38,-83.38 207.38,-110.62 263.88,-110.62 263.88,-83.38 207.38,-83.38"/>
</g>
<!-- n_1_4_6&#45;&gt;n_6 -->
<g id="edge6" class="edge">
<title>n_1_4_6&#45;&gt;n_6</title>
<path fill="none" stroke="black" d="M157.6,-158.02C171.95,-146.98 189.86,-133.2 204.9,-121.63"/>
<polygon fill="black" stroke="black" points="206.85,-124.55 212.64,-115.68 202.58,-119 206.85,-124.55"/>
</g>
<!-- n_1 -->
<g id="node5" class="node">
<title>n_1</title>
<polygon fill="none" stroke="black" points="9,-5.38 9,-30.62 70.25,-30.62 70.25,-5.38 9,-5.38"/>
<text text-anchor="start" x="16" y="-16.07" font-family="Times New Roman,serif" font-weight="bold" font-size="9.00">Primary (G)</text>
<polygon fill="none" stroke="black" points="8,-4.38 8,-31.62 71.25,-31.62 71.25,-4.38 8,-4.38"/>
</g>
<!-- n_1_4&#45;&gt;n_1 -->
<g id="edge4" class="edge">
<title>n_1_4&#45;&gt;n_1</title>
<path fill="none" stroke="black" d="M83.47,-79.29C76.19,-69.27 66.76,-56.31 58.52,-44.98"/>
<polygon fill="black" stroke="black" points="61.55,-43.19 52.84,-37.17 55.89,-47.31 61.55,-43.19"/>
</g>
<!-- n_4 -->
<g id="node6" class="node">
<title>n_4</title>
<polygon fill="none" stroke="black" points="117.5,-5.38 117.5,-30.62 187.75,-30.62 187.75,-5.38 117.5,-5.38"/>
<text text-anchor="start" x="124.5" y="-16.07" font-family="Times New Roman,serif" font-weight="bold" font-size="9.00">Secondary (G)</text>
<polygon fill="none" stroke="black" points="116.5,-4.38 116.5,-31.62 188.75,-31.62 188.75,-4.38 116.5,-4.38"/>
</g>
<!-- n_1_4&#45;&gt;n_4 -->
<g id="edge5" class="edge">
<title>n_1_4&#45;&gt;n_4</title>
<path fill="none" stroke="black" d="M107.99,-79.29C115.41,-69.27 125,-56.31 133.39,-44.98"/>
<polygon fill="black" stroke="black" points="136.05,-47.28 139.18,-37.16 130.42,-43.11 136.05,-47.28"/>
</g>
<!-- n_2_3 -->
<g id="node10" class="node">
<title>n_2_3</title>
<polygon fill="none" stroke="black" points="365.12,-166.38 365.12,-191.62 417.38,-191.62 417.38,-166.38 365.12,-166.38"/>
<text text-anchor="start" x="372.12" y="-177.07" font-family="Times New Roman,serif" font-weight="bold" font-size="9.00">Preschool</text>
<polygon fill="none" stroke="black" points="417.38,-166.38 417.38,-191.62 486.12,-191.62 486.12,-166.38 417.38,-166.38"/>
<text text-anchor="start" x="424.38" y="-177.07" font-family="Times New Roman,serif" font-weight="bold" font-size="9.00">Secondary (P)</text>
<polygon fill="none" stroke="black" points="364.12,-165.38 364.12,-192.62 487.12,-192.62 487.12,-165.38 364.12,-165.38"/>
</g>
<!-- n_2_3_5&#45;&gt;n_2_3 -->
<g id="edge9" class="edge">
<title>n_2_3_5&#45;&gt;n_2_3</title>
<path fill="none" stroke="black" d="M432.58,-247.64C431.38,-235.91 429.83,-220.86 428.5,-207.94"/>
<polygon fill="black" stroke="black" points="432.02,-207.93 427.51,-198.34 425.05,-208.64 432.02,-207.93"/>
</g>
<!-- n_5 -->
<g id="node13" class="node">
<title>n_5</title>
<polygon fill="none" stroke="black" points="533.12,-166.38 533.12,-191.62 586.12,-191.62 586.12,-166.38 533.12,-166.38"/>
<text text-anchor="start" x="540.12" y="-177.07" font-family="Times New Roman,serif" font-weight="bold" font-size="9.00">Technical</text>
<polygon fill="none" stroke="black" points="532.12,-165.38 532.12,-192.62 587.12,-192.62 587.12,-165.38 532.12,-165.38"/>
</g>
<!-- n_2_3_5&#45;&gt;n_5 -->
<g id="edge12" class="edge">
<title>n_2_3_5&#45;&gt;n_5</title>
<path fill="none" stroke="black" d="M462.99,-247.64C481.81,-234.47 506.58,-217.13 526.33,-203.3"/>
<polygon fill="black" stroke="black" points="528.15,-206.3 534.34,-197.7 524.14,-200.57 528.15,-206.3"/>
</g>
<!-- n_2 -->
<g id="node11" class="node">
<title>n_2</title>
<polygon fill="none" stroke="black" points="354.5,-84.38 354.5,-109.62 406.75,-109.62 406.75,-84.38 354.5,-84.38"/>
<text text-anchor="start" x="361.5" y="-95.08" font-family="Times New Roman,serif" font-weight="bold" font-size="9.00">Preschool</text>
<polygon fill="none" stroke="black" points="353.5,-83.38 353.5,-110.62 407.75,-110.62 407.75,-83.38 353.5,-83.38"/>
</g>
<!-- n_2_3&#45;&gt;n_2 -->
<g id="edge10" class="edge">
<title>n_2_3&#45;&gt;n_2</title>
<path fill="none" stroke="black" d="M416.08,-161.03C410.18,-150.53 402.46,-136.82 395.74,-124.87"/>
<polygon fill="black" stroke="black" points="398.85,-123.26 390.9,-116.26 392.75,-126.69 398.85,-123.26"/>
</g>
<!-- n_3 -->
<g id="node12" class="node">
<title>n_3</title>
<polygon fill="none" stroke="black" points="454.25,-84.38 454.25,-109.62 523,-109.62 523,-84.38 454.25,-84.38"/>
<text text-anchor="start" x="461.25" y="-95.08" font-family="Times New Roman,serif" font-weight="bold" font-size="9.00">Secondary (P)</text>
<polygon fill="none" stroke="black" points="453.25,-83.38 453.25,-110.62 524,-110.62 524,-83.38 453.25,-83.38"/>
</g>
<!-- n_2_3&#45;&gt;n_3 -->
<g id="edge11" class="edge">
<title>n_2_3&#45;&gt;n_3</title>
<path fill="none" stroke="black" d="M438.99,-161.03C447.51,-150.22 458.71,-135.99 468.32,-123.79"/>
<polygon fill="black" stroke="black" points="470.91,-126.15 474.35,-116.13 465.41,-121.82 470.91,-126.15"/>
</g>
</g>
</svg>
