<?xml version="1.0" encoding="UTF-8" standalone="no"?>
<!DOCTYPE svg PUBLIC "-//W3C//DTD SVG 1.1//EN"
 "http://www.w3.org/Graphics/SVG/1.1/DTD/svg11.dtd">
<!-- Generated by graphviz version 10.0.1 (20240210.2158)
 -->
<!-- Title: ND Pages: 1 -->
<svg width="653pt" height="423pt"
 viewBox="0.00 0.00 653.00 423.00" xmlns="http://www.w3.org/2000/svg" xmlns:xlink="http://www.w3.org/1999/xlink">
<g id="graph0" class="graph" transform="scale(1 1) rotate(0) translate(4 419)">
<title>ND</title>
<polygon fill="white" stroke="none" points="-4,4 -4,-419 649,-419 649,4 -4,4"/>
<!-- n_0_1_2_3_4_5_6 -->
<g id="node1" class="node">
<title>n_0_1_2_3_4_5_6</title>
<polygon fill="none" stroke="black" points="345.12,-351 345.12,-410 406.38,-410 406.38,-351 345.12,-351"/>
<text text-anchor="start" x="352.88" y="-395.45" font-family="Times New Roman,serif" font-weight="bold" font-size="9.00">Primary (P)</text>
<text text-anchor="start" x="352.12" y="-386.45" font-family="Times New Roman,serif" font-weight="bold" font-size="9.00">Primary (G)</text>
<text text-anchor="start" x="356.62" y="-377.45" font-family="Times New Roman,serif" font-weight="bold" font-size="9.00">Preschool</text>
<text text-anchor="start" x="356.25" y="-368.45" font-family="Times New Roman,serif" font-weight="bold" font-size="9.00">Technical</text>
<text text-anchor="start" x="355.5" y="-359.45" font-family="Times New Roman,serif" font-weight="bold" font-size="9.00">University</text>
<polygon fill="none" stroke="black" points="406.38,-351 406.38,-410 476.62,-410 476.62,-351 406.38,-351"/>
<text text-anchor="start" x="414.12" y="-381.95" font-family="Times New Roman,serif" font-weight="bold" font-size="9.00">Secondary (P)</text>
<text text-anchor="start" x="413.38" y="-372.95" font-family="Times New Roman,serif" font-weight="bold" font-size="9.00">Secondary (G)</text>
<polygon fill="none" stroke="black" points="344.12,-350 344.12,-411 477.62,-411 477.62,-350 344.12,-350"/>
</g>
<!-- n_0_1_2_5_6 -->
<g id="node2" class="node">
<title>n_0_1_2_5_6</title>
<polygon fill="none" stroke="black" points="262.38,-248 262.38,-298 322.12,-298 322.12,-248 262.38,-248"/>
<text text-anchor="start" x="269.38" y="-283.45" font-family="Times New Roman,serif" font-weight="bold" font-size="9.00">Primary (P)</text>
<text text-anchor="start" x="273.12" y="-274.45" font-family="Times New Roman,serif" font-weight="bold" font-size="9.00">Preschool</text>
<text text-anchor="start" x="272.75" y="-265.45" font-family="Times New Roman,serif" font-weight="bold" font-size="9.00">Technical</text>
<text text-anchor="start" x="272" y="-256.45" font-family="Times New Roman,serif" font-weight="bold" font-size="9.00">University</text>
<polygon fill="none" stroke="black" points="322.12,-248 322.12,-298 383.38,-298 383.38,-248 322.12,-248"/>
<text text-anchor="start" x="329.12" y="-271.07" font-family="Times New Roman,serif" font-weight="bold" font-size="9.00">Primary (G)</text>
<polygon fill="none" stroke="black" points="261.38,-247 261.38,-299 384.38,-299 384.38,-247 261.38,-247"/>
</g>
<!-- n_0_1_2_3_4_5_6&#45;&gt;n_0_1_2_5_6 -->
<g id="edge1" class="edge">
<title>n_0_1_2_3_4_5_6&#45;&gt;n_0_1_2_5_6</title>
<path fill="none" stroke="black" d="M383.03,-346.12C373.89,-335.16 363.67,-322.91 354.29,-311.66"/>
<polygon fill="black" stroke="black" points="357.04,-309.5 347.95,-304.06 351.67,-313.98 357.04,-309.5"/>
</g>
<!-- n_3_4 -->
<g id="node11" class="node">
<title>n_3_4</title>
<polygon fill="none" stroke="black" points="430.38,-260.38 430.38,-285.62 499.12,-285.62 499.12,-260.38 430.38,-260.38"/>
<text text-anchor="start" x="437.38" y="-271.07" font-family="Times New Roman,serif" font-weight="bold" font-size="9.00">Secondary (P)</text>
<polygon fill="none" stroke="black" points="499.12,-260.38 499.12,-285.62 569.38,-285.62 569.38,-260.38 499.12,-260.38"/>
<text text-anchor="start" x="506.12" y="-271.07" font-family="Times New Roman,serif" font-weight="bold" font-size="9.00">Secondary (G)</text>
<polygon fill="none" stroke="black" points="429.38,-259.38 429.38,-286.62 570.38,-286.62 570.38,-259.38 429.38,-259.38"/>
</g>
<!-- n_0_1_2_3_4_5_6&#45;&gt;n_3_4 -->
<g id="edge10" class="edge">
<title>n_0_1_2_3_4_5_6&#45;&gt;n_3_4</title>
<path fill="none" stroke="black" d="M439.04,-346.12C451.73,-331.06 466.5,-313.57 478.3,-299.58"/>
<polygon fill="black" stroke="black" points="480.83,-302.01 484.6,-292.11 475.48,-297.49 480.83,-302.01"/>
</g>
<!-- n_0_2_5_6 -->
<g id="node3" class="node">
<title>n_0_2_5_6</title>
<polygon fill="none" stroke="black" points="149.5,-163 149.5,-195 209.25,-195 209.25,-163 149.5,-163"/>
<text text-anchor="start" x="156.5" y="-180.45" font-family="Times New Roman,serif" font-weight="bold" font-size="9.00">Primary (P)</text>
<text text-anchor="start" x="159.12" y="-171.45" font-family="Times New Roman,serif" font-weight="bold" font-size="9.00">University</text>
<polygon fill="none" stroke="black" points="209.25,-163 209.25,-195 262.25,-195 262.25,-163 209.25,-163"/>
<text text-anchor="start" x="216.62" y="-180.45" font-family="Times New Roman,serif" font-weight="bold" font-size="9.00">Preschool</text>
<text text-anchor="start" x="216.25" y="-171.45" font-family="Times New Roman,serif" font-weight="bold" font-size="9.00">Technical</text>
<polygon fill="none" stroke="black" points="148.5,-162 148.5,-196 263.25,-196 263.25,-162 148.5,-162"/>
</g>
<!-- n_0_1_2_5_6&#45;&gt;n_0_2_5_6 -->
<g id="edge2" class="edge">
<title>n_0_1_2_5_6&#45;&gt;n_0_2_5_6</title>
<path fill="none" stroke="black" d="M286.18,-243.14C271.3,-231.45 254.24,-218.03 239.67,-206.57"/>
<polygon fill="black" stroke="black" points="242.18,-204.1 232.16,-200.67 237.85,-209.6 242.18,-204.1"/>
</g>
<!-- n_1 -->
<g id="node10" class="node">
<title>n_1</title>
<polygon fill="none" stroke="black" points="309.25,-166.38 309.25,-191.62 370.5,-191.62 370.5,-166.38 309.25,-166.38"/>
<text text-anchor="start" x="316.25" y="-177.07" font-family="Times New Roman,serif" font-weight="bold" font-size="9.00">Primary (G)</text>
<polygon fill="none" stroke="black" points="308.25,-165.38 308.25,-192.62 371.5,-192.62 371.5,-165.38 308.25,-165.38"/>
</g>
<!-- n_0_1_2_5_6&#45;&gt;n_1 -->
<g id="edge9" class="edge">
<title>n_0_1_2_5_6&#45;&gt;n_1</title>
<path fill="none" stroke="black" d="M328.21,-243.14C330.27,-232 332.62,-219.29 334.66,-208.2"/>
<polygon fill="black" stroke="black" points="338.09,-208.93 336.46,-198.46 331.21,-207.65 338.09,-208.93"/>
</g>
<!-- n_0_6 -->
<g id="node4" class="node">
<title>n_0_6</title>
<polygon fill="none" stroke="black" points="70.75,-84.38 70.75,-109.62 130.5,-109.62 130.5,-84.38 70.75,-84.38"/>
<text text-anchor="start" x="77.75" y="-95.08" font-family="Times New Roman,serif" font-weight="bold" font-size="9.00">Primary (P)</text>
<polygon fill="none" stroke="black" points="130.5,-84.38 130.5,-109.62 185,-109.62 185,-84.38 130.5,-84.38"/>
<text text-anchor="start" x="137.5" y="-95.08" font-family="Times New Roman,serif" font-weight="bold" font-size="9.00">University</text>
<polygon fill="none" stroke="black" points="69.75,-83.38 69.75,-110.62 186,-110.62 186,-83.38 69.75,-83.38"/>
</g>
<!-- n_0_2_5_6&#45;&gt;n_0_6 -->
<g id="edge3" class="edge">
<title>n_0_2_5_6&#45;&gt;n_0_6</title>
<path fill="none" stroke="black" d="M186.59,-158.22C176.24,-147.61 163.37,-134.41 152.32,-123.07"/>
<polygon fill="black" stroke="black" points="154.84,-120.64 145.35,-115.93 149.83,-125.53 154.84,-120.64"/>
</g>
<!-- n_2_5 -->
<g id="node7" class="node">
<title>n_2_5</title>
<polygon fill="none" stroke="black" points="232.25,-84.38 232.25,-109.62 284.5,-109.62 284.5,-84.38 232.25,-84.38"/>
<text text-anchor="start" x="239.25" y="-95.08" font-family="Times New Roman,serif" font-weight="bold" font-size="9.00">Preschool</text>
<polygon fill="none" stroke="black" points="284.5,-84.38 284.5,-109.62 337.5,-109.62 337.5,-84.38 284.5,-84.38"/>
<text text-anchor="start" x="291.5" y="-95.08" font-family="Times New Roman,serif" font-weight="bold" font-size="9.00">Technical</text>
<polygon fill="none" stroke="black" points="231.25,-83.38 231.25,-110.62 338.5,-110.62 338.5,-83.38 231.25,-83.38"/>
</g>
<!-- n_0_2_5_6&#45;&gt;n_2_5 -->
<g id="edge6" class="edge">
<title>n_0_2_5_6&#45;&gt;n_2_5</title>
<path fill="none" stroke="black" d="M225.4,-158.22C235.99,-147.5 249.18,-134.15 260.44,-122.74"/>
<polygon fill="black" stroke="black" points="262.64,-125.5 267.18,-115.92 257.66,-120.58 262.64,-125.5"/>
</g>
<!-- n_0 -->
<g id="node5" class="node">
<title>n_0</title>
<polygon fill="none" stroke="black" points="9,-5.38 9,-30.62 68.75,-30.62 68.75,-5.38 9,-5.38"/>
<text text-anchor="start" x="16" y="-16.07" font-family="Times New Roman,serif" font-weight="bold" font-size="9.00">Primary (P)</text>
<polygon fill="none" stroke="black" points="8,-4.38 8,-31.62 69.75,-31.62 69.75,-4.38 8,-4.38"/>
</g>
<!-- n_0_6&#45;&gt;n_0 -->
<g id="edge4" class="edge">
<title>n_0_6&#45;&gt;n_0</title>
<path fill="none" stroke="black" d="M108.56,-79.29C96.4,-68.77 80.5,-55.01 66.95,-43.29"/>
<polygon fill="black" stroke="black" points="69.45,-40.83 59.6,-36.93 64.87,-46.12 69.45,-40.83"/>
</g>
<!-- n_6 -->
<g id="node6" class="node">
<title>n_6</title>
<polygon fill="none" stroke="black" points="115.62,-5.38 115.62,-30.62 170.12,-30.62 170.12,-5.38 115.62,-5.38"/>
<text text-anchor="start" x="122.62" y="-16.07" font-family="Times New Roman,serif" font-weight="bold" font-size="9.00">University</text>
<polygon fill="none" stroke="black" points="114.62,-4.38 114.62,-31.62 171.12,-31.62 171.12,-4.38 114.62,-4.38"/>
</g>
<!-- n_0_6&#45;&gt;n_6 -->
<g id="edge5" class="edge">
<title>n_0_6&#45;&gt;n_6</title>
<path fill="none" stroke="black" d="M131.13,-79.29C132.96,-69.87 135.31,-57.86 137.41,-47.04"/>
<polygon fill="black" stroke="black" points="140.81,-47.91 139.29,-37.43 133.94,-46.57 140.81,-47.91"/>
</g>
<!-- n_2 -->
<g id="node8" class="node">
<title>n_2</title>
<polygon fill="none" stroke="black" points="244.75,-5.38 244.75,-30.62 297,-30.62 297,-5.38 244.75,-5.38"/>
<text text-anchor="start" x="251.75" y="-16.07" font-family="Times New Roman,serif" font-weight="bold" font-size="9.00">Preschool</text>
<polygon fill="none" stroke="black" points="243.75,-4.38 243.75,-31.62 298,-31.62 298,-4.38 243.75,-4.38"/>
</g>
<!-- n_2_5&#45;&gt;n_2 -->
<g id="edge7" class="edge">
<title>n_2_5&#45;&gt;n_2</title>
<path fill="none" stroke="black" d="M281.84,-79.29C280.12,-69.87 277.94,-57.86 275.97,-47.04"/>
<polygon fill="black" stroke="black" points="279.46,-46.64 274.23,-37.43 272.57,-47.9 279.46,-46.64"/>
</g>
<!-- n_5 -->
<g id="node9" class="node">
<title>n_5</title>
<polygon fill="none" stroke="black" points="344.38,-5.38 344.38,-30.62 397.38,-30.62 397.38,-5.38 344.38,-5.38"/>
<text text-anchor="start" x="351.38" y="-16.07" font-family="Times New Roman,serif" font-weight="bold" font-size="9.00">Technical</text>
<polygon fill="none" stroke="black" points="343.38,-4.38 343.38,-31.62 398.38,-31.62 398.38,-4.38 343.38,-4.38"/>
</g>
<!-- n_2_5&#45;&gt;n_5 -->
<g id="edge8" class="edge">
<title>n_2_5&#45;&gt;n_5</title>
<path fill="none" stroke="black" d="M303.54,-79.29C315.29,-68.77 330.66,-55.01 343.74,-43.29"/>
<polygon fill="black" stroke="black" points="345.71,-46.23 350.83,-36.95 341.04,-41.01 345.71,-46.23"/>
</g>
<!-- n_3 -->
<g id="node12" class="node">
<title>n_3</title>
<polygon fill="none" stroke="black" points="449.5,-166.38 449.5,-191.62 518.25,-191.62 518.25,-166.38 449.5,-166.38"/>
<text text-anchor="start" x="456.5" y="-177.07" font-family="Times New Roman,serif" font-weight="bold" font-size="9.00">Secondary (P)</text>
<polygon fill="none" stroke="black" points="448.5,-165.38 448.5,-192.62 519.25,-192.62 519.25,-165.38 448.5,-165.38"/>
</g>
<!-- n_3_4&#45;&gt;n_3 -->
<g id="edge11" class="edge">
<title>n_3_4&#45;&gt;n_3</title>
<path fill="none" stroke="black" d="M496.94,-255.13C494.64,-241.9 491.39,-223.21 488.71,-207.78"/>
<polygon fill="black" stroke="black" points="492.21,-207.51 487.05,-198.26 485.32,-208.71 492.21,-207.51"/>
</g>
<!-- n_4 -->
<g id="node13" class="node">
<title>n_4</title>
<polygon fill="none" stroke="black" points="565.75,-166.38 565.75,-191.62 636,-191.62 636,-166.38 565.75,-166.38"/>
<text text-anchor="start" x="572.75" y="-177.07" font-family="Times New Roman,serif" font-weight="bold" font-size="9.00">Secondary (G)</text>
<polygon fill="none" stroke="black" points="564.75,-165.38 564.75,-192.62 637,-192.62 637,-165.38 564.75,-165.38"/>
</g>
<!-- n_3_4&#45;&gt;n_4 -->
<g id="edge12" class="edge">
<title>n_3_4&#45;&gt;n_4</title>
<path fill="none" stroke="black" d="M518.4,-255.13C534.06,-240.86 556.69,-220.25 574.29,-204.22"/>
<polygon fill="black" stroke="black" points="576.31,-207.11 581.35,-197.79 571.6,-201.93 576.31,-207.11"/>
</g>
</g>
</svg>
