<?xml version="1.0" encoding="UTF-8" standalone="no"?>
<!DOCTYPE svg PUBLIC "-//W3C//DTD SVG 1.1//EN"
 "http://www.w3.org/Graphics/SVG/1.1/DTD/svg11.dtd">
<!-- Generated by graphviz version 10.0.1 (20240210.2158)
 -->
<!-- Title: ND Pages: 1 -->
<svg width="677pt" height="517pt"
 viewBox="0.00 0.00 676.75 517.00" xmlns="http://www.w3.org/2000/svg" xmlns:xlink="http://www.w3.org/1999/xlink">
<g id="graph0" class="graph" transform="scale(1 1) rotate(0) translate(4 513)">
<title>ND</title>
<polygon fill="white" stroke="none" points="-4,4 -4,-513 672.75,-513 672.75,4 -4,4"/>
<!-- n_0_1_2_3_4_5_6 -->
<g id="node1" class="node">
<title>n_0_1_2_3_4_5_6</title>
<polygon fill="none" stroke="black" points="382.38,-445 382.38,-504 452.62,-504 452.62,-445 382.38,-445"/>
<text text-anchor="start" x="398.38" y="-489.45" font-family="Times New Roman,serif" font-weight="bold" font-size="9.00">Preschool</text>
<text text-anchor="start" x="390.12" y="-480.45" font-family="Times New Roman,serif" font-weight="bold" font-size="9.00">Secondary (P)</text>
<text text-anchor="start" x="389.38" y="-471.45" font-family="Times New Roman,serif" font-weight="bold" font-size="9.00">Secondary (G)</text>
<text text-anchor="start" x="398" y="-462.45" font-family="Times New Roman,serif" font-weight="bold" font-size="9.00">Technical</text>
<text text-anchor="start" x="397.25" y="-453.45" font-family="Times New Roman,serif" font-weight="bold" font-size="9.00">University</text>
<polygon fill="none" stroke="black" points="452.62,-445 452.62,-504 513.88,-504 513.88,-445 452.62,-445"/>
<text text-anchor="start" x="460.38" y="-475.95" font-family="Times New Roman,serif" font-weight="bold" font-size="9.00">Primary (P)</text>
<text text-anchor="start" x="459.62" y="-466.95" font-family="Times New Roman,serif" font-weight="bold" font-size="9.00">Primary (G)</text>
<polygon fill="none" stroke="black" points="381.38,-444 381.38,-505 514.88,-505 514.88,-444 381.38,-444"/>
</g>
<!-- n_2_3_4_5_6 -->
<g id="node2" class="node">
<title>n_2_3_4_5_6</title>
<polygon fill="none" stroke="black" points="290.62,-342 290.62,-392 360.88,-392 360.88,-342 290.62,-342"/>
<text text-anchor="start" x="306.62" y="-377.45" font-family="Times New Roman,serif" font-weight="bold" font-size="9.00">Preschool</text>
<text text-anchor="start" x="297.62" y="-368.45" font-family="Times New Roman,serif" font-weight="bold" font-size="9.00">Secondary (G)</text>
<text text-anchor="start" x="306.25" y="-359.45" font-family="Times New Roman,serif" font-weight="bold" font-size="9.00">Technical</text>
<text text-anchor="start" x="305.5" y="-350.45" font-family="Times New Roman,serif" font-weight="bold" font-size="9.00">University</text>
<polygon fill="none" stroke="black" points="360.88,-342 360.88,-392 429.62,-392 429.62,-342 360.88,-342"/>
<text text-anchor="start" x="367.88" y="-365.07" font-family="Times New Roman,serif" font-weight="bold" font-size="9.00">Secondary (P)</text>
<polygon fill="none" stroke="black" points="289.62,-341 289.62,-393 430.62,-393 430.62,-341 289.62,-341"/>
</g>
<!-- n_0_1_2_3_4_5_6&#45;&gt;n_2_3_4_5_6 -->
<g id="edge1" class="edge">
<title>n_0_1_2_3_4_5_6&#45;&gt;n_2_3_4_5_6</title>
<path fill="none" stroke="black" d="M420.28,-440.12C411.14,-429.16 400.92,-416.91 391.54,-405.66"/>
<polygon fill="black" stroke="black" points="394.29,-403.5 385.2,-398.06 388.92,-407.98 394.29,-403.5"/>
</g>
<!-- n_0_1 -->
<g id="node11" class="node">
<title>n_0_1</title>
<polygon fill="none" stroke="black" points="476.62,-354.38 476.62,-379.62 536.38,-379.62 536.38,-354.38 476.62,-354.38"/>
<text text-anchor="start" x="483.62" y="-365.07" font-family="Times New Roman,serif" font-weight="bold" font-size="9.00">Primary (P)</text>
<polygon fill="none" stroke="black" points="536.38,-354.38 536.38,-379.62 597.62,-379.62 597.62,-354.38 536.38,-354.38"/>
<text text-anchor="start" x="543.38" y="-365.07" font-family="Times New Roman,serif" font-weight="bold" font-size="9.00">Primary (G)</text>
<polygon fill="none" stroke="black" points="475.62,-353.38 475.62,-380.62 598.62,-380.62 598.62,-353.38 475.62,-353.38"/>
</g>
<!-- n_0_1_2_3_4_5_6&#45;&gt;n_0_1 -->
<g id="edge10" class="edge">
<title>n_0_1_2_3_4_5_6&#45;&gt;n_0_1</title>
<path fill="none" stroke="black" d="M476.29,-440.12C488.98,-425.06 503.75,-407.57 515.55,-393.58"/>
<polygon fill="black" stroke="black" points="518.08,-396.01 521.85,-386.11 512.73,-391.49 518.08,-396.01"/>
</g>
<!-- n_2_4_5_6 -->
<g id="node3" class="node">
<title>n_2_4_5_6</title>
<polygon fill="none" stroke="black" points="170.75,-248 170.75,-289 241,-289 241,-248 170.75,-248"/>
<text text-anchor="start" x="186.75" y="-274.45" font-family="Times New Roman,serif" font-weight="bold" font-size="9.00">Preschool</text>
<text text-anchor="start" x="177.75" y="-265.45" font-family="Times New Roman,serif" font-weight="bold" font-size="9.00">Secondary (G)</text>
<text text-anchor="start" x="186.38" y="-256.45" font-family="Times New Roman,serif" font-weight="bold" font-size="9.00">Technical</text>
<polygon fill="none" stroke="black" points="241,-248 241,-289 295.5,-289 295.5,-248 241,-248"/>
<text text-anchor="start" x="248" y="-266.57" font-family="Times New Roman,serif" font-weight="bold" font-size="9.00">University</text>
<polygon fill="none" stroke="black" points="169.75,-247 169.75,-290 296.5,-290 296.5,-247 169.75,-247"/>
</g>
<!-- n_2_3_4_5_6&#45;&gt;n_2_4_5_6 -->
<g id="edge2" class="edge">
<title>n_2_3_4_5_6&#45;&gt;n_2_4_5_6</title>
<path fill="none" stroke="black" d="M322.02,-337.05C306.87,-325.54 289.42,-312.27 274.01,-300.56"/>
<polygon fill="black" stroke="black" points="276.49,-298.05 266.41,-294.79 272.25,-303.63 276.49,-298.05"/>
</g>
<!-- n_3 -->
<g id="node10" class="node">
<title>n_3</title>
<polygon fill="none" stroke="black" points="342.75,-255.88 342.75,-281.12 411.5,-281.12 411.5,-255.88 342.75,-255.88"/>
<text text-anchor="start" x="349.75" y="-266.57" font-family="Times New Roman,serif" font-weight="bold" font-size="9.00">Secondary (P)</text>
<polygon fill="none" stroke="black" points="341.75,-254.88 341.75,-282.12 412.5,-282.12 412.5,-254.88 341.75,-254.88"/>
</g>
<!-- n_2_3_4_5_6&#45;&gt;n_3 -->
<g id="edge9" class="edge">
<title>n_2_3_4_5_6&#45;&gt;n_3</title>
<path fill="none" stroke="black" d="M365.23,-337.05C367.43,-324.51 370.01,-309.89 372.2,-297.47"/>
<polygon fill="black" stroke="black" points="375.6,-298.31 373.89,-287.86 368.71,-297.1 375.6,-298.31"/>
</g>
<!-- n_2_4_5 -->
<g id="node4" class="node">
<title>n_2_4_5</title>
<polygon fill="none" stroke="black" points="103.88,-163 103.88,-195 174.12,-195 174.12,-163 103.88,-163"/>
<text text-anchor="start" x="110.88" y="-180.45" font-family="Times New Roman,serif" font-weight="bold" font-size="9.00">Secondary (G)</text>
<text text-anchor="start" x="119.5" y="-171.45" font-family="Times New Roman,serif" font-weight="bold" font-size="9.00">Technical</text>
<polygon fill="none" stroke="black" points="174.12,-163 174.12,-195 226.38,-195 226.38,-163 174.12,-163"/>
<text text-anchor="start" x="181.12" y="-177.07" font-family="Times New Roman,serif" font-weight="bold" font-size="9.00">Preschool</text>
<polygon fill="none" stroke="black" points="102.88,-162 102.88,-196 227.38,-196 227.38,-162 102.88,-162"/>
</g>
<!-- n_2_4_5_6&#45;&gt;n_2_4_5 -->
<g id="edge3" class="edge">
<title>n_2_4_5_6&#45;&gt;n_2_4_5</title>
<path fill="none" stroke="black" d="M214.18,-243.13C205.89,-232.46 196.11,-219.87 187.47,-208.75"/>
<polygon fill="black" stroke="black" points="190.36,-206.77 181.46,-201.02 184.83,-211.06 190.36,-206.77"/>
</g>
<!-- n_6 -->
<g id="node9" class="node">
<title>n_6</title>
<polygon fill="none" stroke="black" points="273.88,-166.38 273.88,-191.62 328.38,-191.62 328.38,-166.38 273.88,-166.38"/>
<text text-anchor="start" x="280.88" y="-177.07" font-family="Times New Roman,serif" font-weight="bold" font-size="9.00">University</text>
<polygon fill="none" stroke="black" points="272.88,-165.38 272.88,-192.62 329.38,-192.62 329.38,-165.38 272.88,-165.38"/>
</g>
<!-- n_2_4_5_6&#45;&gt;n_6 -->
<g id="edge8" class="edge">
<title>n_2_4_5_6&#45;&gt;n_6</title>
<path fill="none" stroke="black" d="M252.07,-243.13C261.12,-231.48 271.96,-217.53 281.15,-205.71"/>
<polygon fill="black" stroke="black" points="283.79,-208.01 287.16,-197.97 278.26,-203.71 283.79,-208.01"/>
</g>
<!-- n_4_5 -->
<g id="node5" class="node">
<title>n_4_5</title>
<polygon fill="none" stroke="black" points="36.5,-84.38 36.5,-109.62 106.75,-109.62 106.75,-84.38 36.5,-84.38"/>
<text text-anchor="start" x="43.5" y="-95.08" font-family="Times New Roman,serif" font-weight="bold" font-size="9.00">Secondary (G)</text>
<polygon fill="none" stroke="black" points="106.75,-84.38 106.75,-109.62 159.75,-109.62 159.75,-84.38 106.75,-84.38"/>
<text text-anchor="start" x="113.75" y="-95.08" font-family="Times New Roman,serif" font-weight="bold" font-size="9.00">Technical</text>
<polygon fill="none" stroke="black" points="35.5,-83.38 35.5,-110.62 160.75,-110.62 160.75,-83.38 35.5,-83.38"/>
</g>
<!-- n_2_4_5&#45;&gt;n_4_5 -->
<g id="edge4" class="edge">
<title>n_2_4_5&#45;&gt;n_4_5</title>
<path fill="none" stroke="black" d="M148.56,-158.22C139.76,-147.71 128.83,-134.66 119.4,-123.41"/>
<polygon fill="black" stroke="black" points="122.31,-121.42 113.2,-116 116.94,-125.92 122.31,-121.42"/>
</g>
<!-- n_2 -->
<g id="node8" class="node">
<title>n_2</title>
<polygon fill="none" stroke="black" points="207,-84.38 207,-109.62 259.25,-109.62 259.25,-84.38 207,-84.38"/>
<text text-anchor="start" x="214" y="-95.08" font-family="Times New Roman,serif" font-weight="bold" font-size="9.00">Preschool</text>
<polygon fill="none" stroke="black" points="206,-83.38 206,-110.62 260.25,-110.62 260.25,-83.38 206,-83.38"/>
</g>
<!-- n_2_4_5&#45;&gt;n_2 -->
<g id="edge7" class="edge">
<title>n_2_4_5&#45;&gt;n_2</title>
<path fill="none" stroke="black" d="M181.93,-158.22C190.87,-147.71 201.96,-134.66 211.53,-123.41"/>
<polygon fill="black" stroke="black" points="214.02,-125.88 217.83,-116 208.68,-121.35 214.02,-125.88"/>
</g>
<!-- n_4 -->
<g id="node6" class="node">
<title>n_4</title>
<polygon fill="none" stroke="black" points="9,-5.38 9,-30.62 79.25,-30.62 79.25,-5.38 9,-5.38"/>
<text text-anchor="start" x="16" y="-16.07" font-family="Times New Roman,serif" font-weight="bold" font-size="9.00">Secondary (G)</text>
<polygon fill="none" stroke="black" points="8,-4.38 8,-31.62 80.25,-31.62 80.25,-4.38 8,-4.38"/>
</g>
<!-- n_4_5&#45;&gt;n_4 -->
<g id="edge5" class="edge">
<title>n_4_5&#45;&gt;n_4</title>
<path fill="none" stroke="black" d="M86.41,-79.29C79.45,-69.37 70.47,-56.57 62.58,-45.32"/>
<polygon fill="black" stroke="black" points="65.48,-43.36 56.87,-37.18 59.75,-47.38 65.48,-43.36"/>
</g>
<!-- n_5 -->
<g id="node7" class="node">
<title>n_5</title>
<polygon fill="none" stroke="black" points="126.62,-5.38 126.62,-30.62 179.62,-30.62 179.62,-5.38 126.62,-5.38"/>
<text text-anchor="start" x="133.62" y="-16.07" font-family="Times New Roman,serif" font-weight="bold" font-size="9.00">Technical</text>
<polygon fill="none" stroke="black" points="125.62,-4.38 125.62,-31.62 180.62,-31.62 180.62,-4.38 125.62,-4.38"/>
</g>
<!-- n_4_5&#45;&gt;n_5 -->
<g id="edge6" class="edge">
<title>n_4_5&#45;&gt;n_5</title>
<path fill="none" stroke="black" d="M110.06,-79.29C117.22,-69.27 126.47,-56.31 134.57,-44.98"/>
<polygon fill="black" stroke="black" points="137.18,-47.34 140.14,-37.17 131.48,-43.28 137.18,-47.34"/>
</g>
<!-- n_0 -->
<g id="node12" class="node">
<title>n_0</title>
<polygon fill="none" stroke="black" points="491.25,-255.88 491.25,-281.12 551,-281.12 551,-255.88 491.25,-255.88"/>
<text text-anchor="start" x="498.25" y="-266.57" font-family="Times New Roman,serif" font-weight="bold" font-size="9.00">Primary (P)</text>
<polygon fill="none" stroke="black" points="490.25,-254.88 490.25,-282.12 552,-282.12 552,-254.88 490.25,-254.88"/>
</g>
<!-- n_0_1&#45;&gt;n_0 -->
<g id="edge11" class="edge">
<title>n_0_1&#45;&gt;n_0</title>
<path fill="none" stroke="black" d="M534.34,-349.19C531.99,-335.03 528.58,-314.46 525.81,-297.76"/>
<polygon fill="black" stroke="black" points="529.27,-297.23 524.18,-287.93 522.36,-298.37 529.27,-297.23"/>
</g>
<!-- n_1 -->
<g id="node13" class="node">
<title>n_1</title>
<polygon fill="none" stroke="black" points="598.5,-255.88 598.5,-281.12 659.75,-281.12 659.75,-255.88 598.5,-255.88"/>
<text text-anchor="start" x="605.5" y="-266.57" font-family="Times New Roman,serif" font-weight="bold" font-size="9.00">Primary (G)</text>
<polygon fill="none" stroke="black" points="597.5,-254.88 597.5,-282.12 660.75,-282.12 660.75,-254.88 597.5,-254.88"/>
</g>
<!-- n_0_1&#45;&gt;n_1 -->
<g id="edge12" class="edge">
<title>n_0_1&#45;&gt;n_1</title>
<path fill="none" stroke="black" d="M553.15,-349.19C567.57,-334.06 588.96,-311.63 605.37,-294.42"/>
<polygon fill="black" stroke="black" points="607.56,-297.19 611.93,-287.54 602.5,-292.36 607.56,-297.19"/>
</g>
</g>
</svg>
