<?xml version="1.0" encoding="UTF-8" standalone="no"?>
<!DOCTYPE svg PUBLIC "-//W3C//DTD SVG 1.1//EN"
 "http://www.w3.org/Graphics/SVG/1.1/DTD/svg11.dtd">
<!-- Generated by graphviz version 10.0.1 (20240210.2158)
 -->
<!-- Title: ND Pages: 1 -->
<svg width="537pt" height="544pt"
 viewBox="0.00 0.00 536.75 544.00" xmlns="http://www.w3.org/2000/svg" xmlns:xlink="http://www.w3.org/1999/xlink">
<g id="graph0" class="graph" transform="scale(1 1) rotate(0) translate(4 540)">
<title>ND</title>
<polygon fill="white" stroke="none" points="-4,4 -4,-540 532.75,-540 532.75,4 -4,4"/>
<!-- n_0_1_2_3_4_5_6 -->
<g id="node1" class="node">
<title>n_0_1_2_3_4_5_6</title>
<polygon fill="none" stroke="black" points="351.38,-463 351.38,-531 421.62,-531 421.62,-463 351.38,-463"/>
<text text-anchor="start" x="363.62" y="-516.45" font-family="Times New Roman,serif" font-weight="bold" font-size="9.00">Primary (P)</text>
<text text-anchor="start" x="367.38" y="-507.45" font-family="Times New Roman,serif" font-weight="bold" font-size="9.00">Preschool</text>
<text text-anchor="start" x="359.12" y="-498.45" font-family="Times New Roman,serif" font-weight="bold" font-size="9.00">Secondary (P)</text>
<text text-anchor="start" x="358.38" y="-489.45" font-family="Times New Roman,serif" font-weight="bold" font-size="9.00">Secondary (G)</text>
<text text-anchor="start" x="367" y="-480.45" font-family="Times New Roman,serif" font-weight="bold" font-size="9.00">Technical</text>
<text text-anchor="start" x="366.25" y="-471.45" font-family="Times New Roman,serif" font-weight="bold" font-size="9.00">University</text>
<polygon fill="none" stroke="black" points="421.62,-463 421.62,-531 482.88,-531 482.88,-463 421.62,-463"/>
<text text-anchor="start" x="428.62" y="-495.07" font-family="Times New Roman,serif" font-weight="bold" font-size="9.00">Primary (G)</text>
<polygon fill="none" stroke="black" points="350.38,-462 350.38,-532 483.88,-532 483.88,-462 350.38,-462"/>
</g>
<!-- n_0_2_3_4_5_6 -->
<g id="node2" class="node">
<title>n_0_2_3_4_5_6</title>
<polygon fill="none" stroke="black" points="281.12,-351 281.12,-410 351.38,-410 351.38,-351 281.12,-351"/>
<text text-anchor="start" x="297.12" y="-395.45" font-family="Times New Roman,serif" font-weight="bold" font-size="9.00">Preschool</text>
<text text-anchor="start" x="288.88" y="-386.45" font-family="Times New Roman,serif" font-weight="bold" font-size="9.00">Secondary (P)</text>
<text text-anchor="start" x="288.12" y="-377.45" font-family="Times New Roman,serif" font-weight="bold" font-size="9.00">Secondary (G)</text>
<text text-anchor="start" x="296.75" y="-368.45" font-family="Times New Roman,serif" font-weight="bold" font-size="9.00">Technical</text>
<text text-anchor="start" x="296" y="-359.45" font-family="Times New Roman,serif" font-weight="bold" font-size="9.00">University</text>
<polygon fill="none" stroke="black" points="351.38,-351 351.38,-410 411.12,-410 411.12,-351 351.38,-351"/>
<text text-anchor="start" x="358.38" y="-378.57" font-family="Times New Roman,serif" font-weight="bold" font-size="9.00">Primary (P)</text>
<polygon fill="none" stroke="black" points="280.12,-350 280.12,-411 412.12,-411 412.12,-350 280.12,-350"/>
</g>
<!-- n_0_1_2_3_4_5_6&#45;&gt;n_0_2_3_4_5_6 -->
<g id="edge1" class="edge">
<title>n_0_1_2_3_4_5_6&#45;&gt;n_0_2_3_4_5_6</title>
<path fill="none" stroke="black" d="M393.68,-458.19C386.93,-447.31 379.52,-435.36 372.61,-424.21"/>
<polygon fill="black" stroke="black" points="375.72,-422.59 367.48,-415.94 369.78,-426.28 375.72,-422.59"/>
</g>
<!-- n_1 -->
<g id="node13" class="node">
<title>n_1</title>
<polygon fill="none" stroke="black" points="458.5,-367.88 458.5,-393.12 519.75,-393.12 519.75,-367.88 458.5,-367.88"/>
<text text-anchor="start" x="465.5" y="-378.57" font-family="Times New Roman,serif" font-weight="bold" font-size="9.00">Primary (G)</text>
<polygon fill="none" stroke="black" points="457.5,-366.88 457.5,-394.12 520.75,-394.12 520.75,-366.88 457.5,-366.88"/>
</g>
<!-- n_0_1_2_3_4_5_6&#45;&gt;n_1 -->
<g id="edge12" class="edge">
<title>n_0_1_2_3_4_5_6&#45;&gt;n_1</title>
<path fill="none" stroke="black" d="M440.9,-458.19C451.22,-441.78 463.05,-422.96 472.42,-408.07"/>
<polygon fill="black" stroke="black" points="475.29,-410.07 477.65,-399.74 469.37,-406.35 475.29,-410.07"/>
</g>
<!-- n_2_3_4_5_6 -->
<g id="node3" class="node">
<title>n_2_3_4_5_6</title>
<polygon fill="none" stroke="black" points="203.62,-248 203.62,-298 273.88,-298 273.88,-248 203.62,-248"/>
<text text-anchor="start" x="219.62" y="-283.45" font-family="Times New Roman,serif" font-weight="bold" font-size="9.00">Preschool</text>
<text text-anchor="start" x="210.62" y="-274.45" font-family="Times New Roman,serif" font-weight="bold" font-size="9.00">Secondary (G)</text>
<text text-anchor="start" x="219.25" y="-265.45" font-family="Times New Roman,serif" font-weight="bold" font-size="9.00">Technical</text>
<text text-anchor="start" x="218.5" y="-256.45" font-family="Times New Roman,serif" font-weight="bold" font-size="9.00">University</text>
<polygon fill="none" stroke="black" points="273.88,-248 273.88,-298 342.62,-298 342.62,-248 273.88,-248"/>
<text text-anchor="start" x="280.88" y="-271.07" font-family="Times New Roman,serif" font-weight="bold" font-size="9.00">Secondary (P)</text>
<polygon fill="none" stroke="black" points="202.62,-247 202.62,-299 343.62,-299 343.62,-247 202.62,-247"/>
</g>
<!-- n_0_2_3_4_5_6&#45;&gt;n_2_3_4_5_6 -->
<g id="edge2" class="edge">
<title>n_0_2_3_4_5_6&#45;&gt;n_2_3_4_5_6</title>
<path fill="none" stroke="black" d="M323.03,-346.12C315.6,-335.38 307.31,-323.4 299.65,-312.33"/>
<polygon fill="black" stroke="black" points="302.55,-310.37 293.98,-304.14 296.79,-314.36 302.55,-310.37"/>
</g>
<!-- n_0 -->
<g id="node12" class="node">
<title>n_0</title>
<polygon fill="none" stroke="black" points="389.25,-260.38 389.25,-285.62 449,-285.62 449,-260.38 389.25,-260.38"/>
<text text-anchor="start" x="396.25" y="-271.07" font-family="Times New Roman,serif" font-weight="bold" font-size="9.00">Primary (P)</text>
<polygon fill="none" stroke="black" points="388.25,-259.38 388.25,-286.62 450,-286.62 450,-259.38 388.25,-259.38"/>
</g>
<!-- n_0_2_3_4_5_6&#45;&gt;n_0 -->
<g id="edge11" class="edge">
<title>n_0_2_3_4_5_6&#45;&gt;n_0</title>
<path fill="none" stroke="black" d="M369.22,-346.12C379.44,-331.35 391.29,-314.23 400.87,-300.38"/>
<polygon fill="black" stroke="black" points="403.72,-302.41 406.54,-292.2 397.97,-298.43 403.72,-302.41"/>
</g>
<!-- n_2_4_5_6 -->
<g id="node4" class="node">
<title>n_2_4_5_6</title>
<polygon fill="none" stroke="black" points="140.5,-163 140.5,-195 193.5,-195 193.5,-163 140.5,-163"/>
<text text-anchor="start" x="147.88" y="-180.45" font-family="Times New Roman,serif" font-weight="bold" font-size="9.00">Preschool</text>
<text text-anchor="start" x="147.5" y="-171.45" font-family="Times New Roman,serif" font-weight="bold" font-size="9.00">Technical</text>
<polygon fill="none" stroke="black" points="193.5,-163 193.5,-195 263.75,-195 263.75,-163 193.5,-163"/>
<text text-anchor="start" x="200.5" y="-180.45" font-family="Times New Roman,serif" font-weight="bold" font-size="9.00">Secondary (G)</text>
<text text-anchor="start" x="208.38" y="-171.45" font-family="Times New Roman,serif" font-weight="bold" font-size="9.00">University</text>
<polygon fill="none" stroke="black" points="139.5,-162 139.5,-196 264.75,-196 264.75,-162 139.5,-162"/>
</g>
<!-- n_2_3_4_5_6&#45;&gt;n_2_4_5_6 -->
<g id="edge3" class="edge">
<title>n_2_3_4_5_6&#45;&gt;n_2_4_5_6</title>
<path fill="none" stroke="black" d="M250.85,-243.14C242.34,-232.11 232.64,-219.54 224.15,-208.54"/>
<polygon fill="black" stroke="black" points="227.16,-206.71 218.28,-200.93 221.62,-210.98 227.16,-206.71"/>
</g>
<!-- n_3 -->
<g id="node11" class="node">
<title>n_3</title>
<polygon fill="none" stroke="black" points="310.75,-166.38 310.75,-191.62 379.5,-191.62 379.5,-166.38 310.75,-166.38"/>
<text text-anchor="start" x="317.75" y="-177.07" font-family="Times New Roman,serif" font-weight="bold" font-size="9.00">Secondary (P)</text>
<polygon fill="none" stroke="black" points="309.75,-165.38 309.75,-192.62 380.5,-192.62 380.5,-165.38 309.75,-165.38"/>
</g>
<!-- n_2_3_4_5_6&#45;&gt;n_3 -->
<g id="edge10" class="edge">
<title>n_2_3_4_5_6&#45;&gt;n_3</title>
<path fill="none" stroke="black" d="M295.71,-243.14C305.08,-231.17 315.87,-217.38 324.97,-205.76"/>
<polygon fill="black" stroke="black" points="327.51,-208.19 330.91,-198.16 321.99,-203.88 327.51,-208.19"/>
</g>
<!-- n_2_5 -->
<g id="node5" class="node">
<title>n_2_5</title>
<polygon fill="none" stroke="black" points="68.5,-84.38 68.5,-109.62 120.75,-109.62 120.75,-84.38 68.5,-84.38"/>
<text text-anchor="start" x="75.5" y="-95.08" font-family="Times New Roman,serif" font-weight="bold" font-size="9.00">Preschool</text>
<polygon fill="none" stroke="black" points="120.75,-84.38 120.75,-109.62 173.75,-109.62 173.75,-84.38 120.75,-84.38"/>
<text text-anchor="start" x="127.75" y="-95.08" font-family="Times New Roman,serif" font-weight="bold" font-size="9.00">Technical</text>
<polygon fill="none" stroke="black" points="67.5,-83.38 67.5,-110.62 174.75,-110.62 174.75,-83.38 67.5,-83.38"/>
</g>
<!-- n_2_4_5_6&#45;&gt;n_2_5 -->
<g id="edge4" class="edge">
<title>n_2_4_5_6&#45;&gt;n_2_5</title>
<path fill="none" stroke="black" d="M182.1,-158.22C171.25,-147.5 157.72,-134.15 146.17,-122.74"/>
<polygon fill="black" stroke="black" points="148.83,-120.44 139.26,-115.91 143.91,-125.42 148.83,-120.44"/>
</g>
<!-- n_4_6 -->
<g id="node8" class="node">
<title>n_4_6</title>
<polygon fill="none" stroke="black" points="220.75,-84.38 220.75,-109.62 291,-109.62 291,-84.38 220.75,-84.38"/>
<text text-anchor="start" x="227.75" y="-95.08" font-family="Times New Roman,serif" font-weight="bold" font-size="9.00">Secondary (G)</text>
<polygon fill="none" stroke="black" points="291,-84.38 291,-109.62 345.5,-109.62 345.5,-84.38 291,-84.38"/>
<text text-anchor="start" x="298" y="-95.08" font-family="Times New Roman,serif" font-weight="bold" font-size="9.00">University</text>
<polygon fill="none" stroke="black" points="219.75,-83.38 219.75,-110.62 346.5,-110.62 346.5,-83.38 219.75,-83.38"/>
</g>
<!-- n_2_4_5_6&#45;&gt;n_4_6 -->
<g id="edge7" class="edge">
<title>n_2_4_5_6&#45;&gt;n_4_6</title>
<path fill="none" stroke="black" d="M222.15,-158.22C233,-147.5 246.53,-134.15 258.08,-122.74"/>
<polygon fill="black" stroke="black" points="260.34,-125.42 264.99,-115.91 255.42,-120.44 260.34,-125.42"/>
</g>
<!-- n_2 -->
<g id="node6" class="node">
<title>n_2</title>
<polygon fill="none" stroke="black" points="9,-5.38 9,-30.62 61.25,-30.62 61.25,-5.38 9,-5.38"/>
<text text-anchor="start" x="16" y="-16.07" font-family="Times New Roman,serif" font-weight="bold" font-size="9.00">Preschool</text>
<polygon fill="none" stroke="black" points="8,-4.38 8,-31.62 62.25,-31.62 62.25,-4.38 8,-4.38"/>
</g>
<!-- n_2_5&#45;&gt;n_2 -->
<g id="edge5" class="edge">
<title>n_2_5&#45;&gt;n_2</title>
<path fill="none" stroke="black" d="M102.46,-79.29C90.71,-68.77 75.34,-55.01 62.26,-43.29"/>
<polygon fill="black" stroke="black" points="64.96,-41.01 55.17,-36.95 60.29,-46.23 64.96,-41.01"/>
</g>
<!-- n_5 -->
<g id="node7" class="node">
<title>n_5</title>
<polygon fill="none" stroke="black" points="108.62,-5.38 108.62,-30.62 161.62,-30.62 161.62,-5.38 108.62,-5.38"/>
<text text-anchor="start" x="115.62" y="-16.07" font-family="Times New Roman,serif" font-weight="bold" font-size="9.00">Technical</text>
<polygon fill="none" stroke="black" points="107.62,-4.38 107.62,-31.62 162.62,-31.62 162.62,-4.38 107.62,-4.38"/>
</g>
<!-- n_2_5&#45;&gt;n_5 -->
<g id="edge6" class="edge">
<title>n_2_5&#45;&gt;n_5</title>
<path fill="none" stroke="black" d="M124.16,-79.29C125.88,-69.87 128.06,-57.86 130.03,-47.04"/>
<polygon fill="black" stroke="black" points="133.43,-47.9 131.77,-37.43 126.54,-46.64 133.43,-47.9"/>
</g>
<!-- n_4 -->
<g id="node9" class="node">
<title>n_4</title>
<polygon fill="none" stroke="black" points="235,-5.38 235,-30.62 305.25,-30.62 305.25,-5.38 235,-5.38"/>
<text text-anchor="start" x="242" y="-16.07" font-family="Times New Roman,serif" font-weight="bold" font-size="9.00">Secondary (G)</text>
<polygon fill="none" stroke="black" points="234,-4.38 234,-31.62 306.25,-31.62 306.25,-4.38 234,-4.38"/>
</g>
<!-- n_4_6&#45;&gt;n_4 -->
<g id="edge8" class="edge">
<title>n_4_6&#45;&gt;n_4</title>
<path fill="none" stroke="black" d="M280.3,-79.29C278.71,-69.87 276.69,-57.86 274.86,-47.04"/>
<polygon fill="black" stroke="black" points="278.35,-46.71 273.24,-37.43 271.45,-47.88 278.35,-46.71"/>
</g>
<!-- n_6 -->
<g id="node10" class="node">
<title>n_6</title>
<polygon fill="none" stroke="black" points="351.88,-5.38 351.88,-30.62 406.38,-30.62 406.38,-5.38 351.88,-5.38"/>
<text text-anchor="start" x="358.88" y="-16.07" font-family="Times New Roman,serif" font-weight="bold" font-size="9.00">University</text>
<polygon fill="none" stroke="black" points="350.88,-4.38 350.88,-31.62 407.38,-31.62 407.38,-4.38 350.88,-4.38"/>
</g>
<!-- n_4_6&#45;&gt;n_6 -->
<g id="edge9" class="edge">
<title>n_4_6&#45;&gt;n_6</title>
<path fill="none" stroke="black" d="M303.96,-79.29C317.2,-68.67 334.56,-54.75 349.26,-42.96"/>
<polygon fill="black" stroke="black" points="351.21,-45.88 356.82,-36.89 346.83,-40.41 351.21,-45.88"/>
</g>
</g>
</svg>
