<?xml version="1.0" encoding="UTF-8" standalone="no"?>
<!DOCTYPE svg PUBLIC "-//W3C//DTD SVG 1.1//EN"
 "http://www.w3.org/Graphics/SVG/1.1/DTD/svg11.dtd">
<!-- Generated by graphviz version 10.0.1 (20240210.2158)
 -->
<!-- Title: ND Pages: 1 -->
<svg width="537pt" height="423pt"
 viewBox="0.00 0.00 536.50 423.00" xmlns="http://www.w3.org/2000/svg" xmlns:xlink="http://www.w3.org/1999/xlink">
<g id="graph0" class="graph" transform="scale(1 1) rotate(0) translate(4 419)">
<title>ND</title>
<polygon fill="white" stroke="none" points="-4,4 -4,-419 532.5,-419 532.5,4 -4,4"/>
<!-- n_0_1_2_3_4_5_6 -->
<g id="node1" class="node">
<title>n_0_1_2_3_4_5_6</title>
<polygon fill="none" stroke="black" points="277.62,-342 277.62,-410 347.88,-410 347.88,-342 277.62,-342"/>
<text text-anchor="start" x="289.88" y="-395.45" font-family="Times New Roman,serif" font-weight="bold" font-size="9.00">Primary (P)</text>
<text text-anchor="start" x="293.62" y="-386.45" font-family="Times New Roman,serif" font-weight="bold" font-size="9.00">Preschool</text>
<text text-anchor="start" x="285.38" y="-377.45" font-family="Times New Roman,serif" font-weight="bold" font-size="9.00">Secondary (P)</text>
<text text-anchor="start" x="284.62" y="-368.45" font-family="Times New Roman,serif" font-weight="bold" font-size="9.00">Secondary (G)</text>
<text text-anchor="start" x="293.25" y="-359.45" font-family="Times New Roman,serif" font-weight="bold" font-size="9.00">Technical</text>
<text text-anchor="start" x="292.5" y="-350.45" font-family="Times New Roman,serif" font-weight="bold" font-size="9.00">University</text>
<polygon fill="none" stroke="black" points="347.88,-342 347.88,-410 409.12,-410 409.12,-342 347.88,-342"/>
<text text-anchor="start" x="354.88" y="-374.07" font-family="Times New Roman,serif" font-weight="bold" font-size="9.00">Primary (G)</text>
<polygon fill="none" stroke="black" points="276.62,-341 276.62,-411 410.12,-411 410.12,-341 276.62,-341"/>
</g>
<!-- n_0_2_3_4_5_6 -->
<g id="node2" class="node">
<title>n_0_2_3_4_5_6</title>
<polygon fill="none" stroke="black" points="207.38,-248 207.38,-289 267.12,-289 267.12,-248 207.38,-248"/>
<text text-anchor="start" x="214.38" y="-274.45" font-family="Times New Roman,serif" font-weight="bold" font-size="9.00">Primary (P)</text>
<text text-anchor="start" x="217.75" y="-265.45" font-family="Times New Roman,serif" font-weight="bold" font-size="9.00">Technical</text>
<text text-anchor="start" x="217" y="-256.45" font-family="Times New Roman,serif" font-weight="bold" font-size="9.00">University</text>
<polygon fill="none" stroke="black" points="267.12,-248 267.12,-289 337.38,-289 337.38,-248 267.12,-248"/>
<text text-anchor="start" x="283.12" y="-274.45" font-family="Times New Roman,serif" font-weight="bold" font-size="9.00">Preschool</text>
<text text-anchor="start" x="274.88" y="-265.45" font-family="Times New Roman,serif" font-weight="bold" font-size="9.00">Secondary (P)</text>
<text text-anchor="start" x="274.12" y="-256.45" font-family="Times New Roman,serif" font-weight="bold" font-size="9.00">Secondary (G)</text>
<polygon fill="none" stroke="black" points="206.38,-247 206.38,-290 338.38,-290 338.38,-247 206.38,-247"/>
</g>
<!-- n_0_1_2_3_4_5_6&#45;&gt;n_0_2_3_4_5_6 -->
<g id="edge1" class="edge">
<title>n_0_1_2_3_4_5_6&#45;&gt;n_0_2_3_4_5_6</title>
<path fill="none" stroke="black" d="M317.94,-337.21C310.51,-326.16 302.43,-314.17 295.17,-303.38"/>
<polygon fill="black" stroke="black" points="298.11,-301.47 289.62,-295.13 292.3,-305.38 298.11,-301.47"/>
</g>
<!-- n_1 -->
<g id="node13" class="node">
<title>n_1</title>
<polygon fill="none" stroke="black" points="384.75,-255.88 384.75,-281.12 446,-281.12 446,-255.88 384.75,-255.88"/>
<text text-anchor="start" x="391.75" y="-266.57" font-family="Times New Roman,serif" font-weight="bold" font-size="9.00">Primary (G)</text>
<polygon fill="none" stroke="black" points="383.75,-254.88 383.75,-282.12 447,-282.12 447,-254.88 383.75,-254.88"/>
</g>
<!-- n_0_1_2_3_4_5_6&#45;&gt;n_1 -->
<g id="edge12" class="edge">
<title>n_0_1_2_3_4_5_6&#45;&gt;n_1</title>
<path fill="none" stroke="black" d="M369.17,-337.21C378.53,-323.49 388.89,-308.31 397.43,-295.8"/>
<polygon fill="black" stroke="black" points="400.23,-297.9 402.98,-287.67 394.45,-293.96 400.23,-297.9"/>
</g>
<!-- n_0_5_6 -->
<g id="node3" class="node">
<title>n_0_5_6</title>
<polygon fill="none" stroke="black" points="133.25,-163 133.25,-195 193,-195 193,-163 133.25,-163"/>
<text text-anchor="start" x="140.25" y="-180.45" font-family="Times New Roman,serif" font-weight="bold" font-size="9.00">Primary (P)</text>
<text text-anchor="start" x="143.62" y="-171.45" font-family="Times New Roman,serif" font-weight="bold" font-size="9.00">Technical</text>
<polygon fill="none" stroke="black" points="193,-163 193,-195 247.5,-195 247.5,-163 193,-163"/>
<text text-anchor="start" x="200" y="-177.07" font-family="Times New Roman,serif" font-weight="bold" font-size="9.00">University</text>
<polygon fill="none" stroke="black" points="132.25,-162 132.25,-196 248.5,-196 248.5,-162 132.25,-162"/>
</g>
<!-- n_0_2_3_4_5_6&#45;&gt;n_0_5_6 -->
<g id="edge2" class="edge">
<title>n_0_2_3_4_5_6&#45;&gt;n_0_5_6</title>
<path fill="none" stroke="black" d="M249.53,-243.13C239.34,-232.25 227.26,-219.36 216.69,-208.08"/>
<polygon fill="black" stroke="black" points="219.38,-205.83 209.99,-200.93 214.27,-210.62 219.38,-205.83"/>
</g>
<!-- n_2_3_4 -->
<g id="node8" class="node">
<title>n_2_3_4</title>
<polygon fill="none" stroke="black" points="294.12,-163 294.12,-195 364.38,-195 364.38,-163 294.12,-163"/>
<text text-anchor="start" x="301.88" y="-180.45" font-family="Times New Roman,serif" font-weight="bold" font-size="9.00">Secondary (P)</text>
<text text-anchor="start" x="301.12" y="-171.45" font-family="Times New Roman,serif" font-weight="bold" font-size="9.00">Secondary (G)</text>
<polygon fill="none" stroke="black" points="364.38,-163 364.38,-195 416.62,-195 416.62,-163 364.38,-163"/>
<text text-anchor="start" x="371.38" y="-177.07" font-family="Times New Roman,serif" font-weight="bold" font-size="9.00">Preschool</text>
<polygon fill="none" stroke="black" points="293.12,-162 293.12,-196 417.62,-196 417.62,-162 293.12,-162"/>
</g>
<!-- n_0_2_3_4_5_6&#45;&gt;n_2_3_4 -->
<g id="edge7" class="edge">
<title>n_0_2_3_4_5_6&#45;&gt;n_2_3_4</title>
<path fill="none" stroke="black" d="M295.5,-243.13C305.82,-232.25 318.04,-219.36 328.74,-208.08"/>
<polygon fill="black" stroke="black" points="331.18,-210.59 335.53,-200.92 326.11,-205.77 331.18,-210.59"/>
</g>
<!-- n_0_5 -->
<g id="node4" class="node">
<title>n_0_5</title>
<polygon fill="none" stroke="black" points="9,-84.38 9,-109.62 68.75,-109.62 68.75,-84.38 9,-84.38"/>
<text text-anchor="start" x="16" y="-95.08" font-family="Times New Roman,serif" font-weight="bold" font-size="9.00">Primary (P)</text>
<polygon fill="none" stroke="black" points="68.75,-84.38 68.75,-109.62 121.75,-109.62 121.75,-84.38 68.75,-84.38"/>
<text text-anchor="start" x="75.75" y="-95.08" font-family="Times New Roman,serif" font-weight="bold" font-size="9.00">Technical</text>
<polygon fill="none" stroke="black" points="8,-83.38 8,-110.62 122.75,-110.62 122.75,-83.38 8,-83.38"/>
</g>
<!-- n_0_5_6&#45;&gt;n_0_5 -->
<g id="edge3" class="edge">
<title>n_0_5_6&#45;&gt;n_0_5</title>
<path fill="none" stroke="black" d="M159.15,-158.02C141.5,-146.72 119.36,-132.55 101.03,-120.82"/>
<polygon fill="black" stroke="black" points="103.14,-118.02 92.83,-115.57 99.37,-123.91 103.14,-118.02"/>
</g>
<!-- n_6 -->
<g id="node7" class="node">
<title>n_6</title>
<polygon fill="none" stroke="black" points="169.12,-84.38 169.12,-109.62 223.62,-109.62 223.62,-84.38 169.12,-84.38"/>
<text text-anchor="start" x="176.12" y="-95.08" font-family="Times New Roman,serif" font-weight="bold" font-size="9.00">University</text>
<polygon fill="none" stroke="black" points="168.12,-83.38 168.12,-110.62 224.62,-110.62 224.62,-83.38 168.12,-83.38"/>
</g>
<!-- n_0_5_6&#45;&gt;n_6 -->
<g id="edge6" class="edge">
<title>n_0_5_6&#45;&gt;n_6</title>
<path fill="none" stroke="black" d="M191.86,-158.22C192.58,-148.54 193.47,-136.72 194.27,-126.11"/>
<polygon fill="black" stroke="black" points="197.74,-126.59 195,-116.35 190.76,-126.06 197.74,-126.59"/>
</g>
<!-- n_0 -->
<g id="node5" class="node">
<title>n_0</title>
<polygon fill="none" stroke="black" points="9.5,-5.38 9.5,-30.62 69.25,-30.62 69.25,-5.38 9.5,-5.38"/>
<text text-anchor="start" x="16.5" y="-16.07" font-family="Times New Roman,serif" font-weight="bold" font-size="9.00">Primary (P)</text>
<polygon fill="none" stroke="black" points="8.5,-4.38 8.5,-31.62 70.25,-31.62 70.25,-4.38 8.5,-4.38"/>
</g>
<!-- n_0_5&#45;&gt;n_0 -->
<g id="edge4" class="edge">
<title>n_0_5&#45;&gt;n_0</title>
<path fill="none" stroke="black" d="M59.73,-79.29C56.52,-69.77 52.41,-57.6 48.73,-46.69"/>
<polygon fill="black" stroke="black" points="52.09,-45.73 45.58,-37.38 45.46,-47.97 52.09,-45.73"/>
</g>
<!-- n_5 -->
<g id="node6" class="node">
<title>n_5</title>
<polygon fill="none" stroke="black" points="115.88,-5.38 115.88,-30.62 168.88,-30.62 168.88,-5.38 115.88,-5.38"/>
<text text-anchor="start" x="122.88" y="-16.07" font-family="Times New Roman,serif" font-weight="bold" font-size="9.00">Technical</text>
<polygon fill="none" stroke="black" points="114.88,-4.38 114.88,-31.62 169.88,-31.62 169.88,-4.38 114.88,-4.38"/>
</g>
<!-- n_0_5&#45;&gt;n_5 -->
<g id="edge5" class="edge">
<title>n_0_5&#45;&gt;n_5</title>
<path fill="none" stroke="black" d="M82.08,-79.29C92.4,-68.97 105.84,-55.53 117.41,-43.96"/>
<polygon fill="black" stroke="black" points="119.77,-46.56 124.36,-37.01 114.82,-41.61 119.77,-46.56"/>
</g>
<!-- n_3_4 -->
<g id="node9" class="node">
<title>n_3_4</title>
<polygon fill="none" stroke="black" points="280.88,-84.38 280.88,-109.62 349.62,-109.62 349.62,-84.38 280.88,-84.38"/>
<text text-anchor="start" x="287.88" y="-95.08" font-family="Times New Roman,serif" font-weight="bold" font-size="9.00">Secondary (P)</text>
<polygon fill="none" stroke="black" points="349.62,-84.38 349.62,-109.62 419.88,-109.62 419.88,-84.38 349.62,-84.38"/>
<text text-anchor="start" x="356.62" y="-95.08" font-family="Times New Roman,serif" font-weight="bold" font-size="9.00">Secondary (G)</text>
<polygon fill="none" stroke="black" points="279.88,-83.38 279.88,-110.62 420.88,-110.62 420.88,-83.38 279.88,-83.38"/>
</g>
<!-- n_2_3_4&#45;&gt;n_3_4 -->
<g id="edge8" class="edge">
<title>n_2_3_4&#45;&gt;n_3_4</title>
<path fill="none" stroke="black" d="M354.14,-158.22C353.53,-148.54 352.79,-136.72 352.13,-126.11"/>
<polygon fill="black" stroke="black" points="355.64,-126.12 351.52,-116.35 348.65,-126.55 355.64,-126.12"/>
</g>
<!-- n_2 -->
<g id="node12" class="node">
<title>n_2</title>
<polygon fill="none" stroke="black" points="467.25,-84.38 467.25,-109.62 519.5,-109.62 519.5,-84.38 467.25,-84.38"/>
<text text-anchor="start" x="474.25" y="-95.08" font-family="Times New Roman,serif" font-weight="bold" font-size="9.00">Preschool</text>
<polygon fill="none" stroke="black" points="466.25,-83.38 466.25,-110.62 520.5,-110.62 520.5,-83.38 466.25,-83.38"/>
</g>
<!-- n_2_3_4&#45;&gt;n_2 -->
<g id="edge11" class="edge">
<title>n_2_3_4&#45;&gt;n_2</title>
<path fill="none" stroke="black" d="M389.84,-158.02C409.51,-146.62 434.22,-132.29 454.57,-120.49"/>
<polygon fill="black" stroke="black" points="456.26,-123.56 463.16,-115.52 452.75,-117.5 456.26,-123.56"/>
</g>
<!-- n_3 -->
<g id="node10" class="node">
<title>n_3</title>
<polygon fill="none" stroke="black" points="261,-5.38 261,-30.62 329.75,-30.62 329.75,-5.38 261,-5.38"/>
<text text-anchor="start" x="268" y="-16.07" font-family="Times New Roman,serif" font-weight="bold" font-size="9.00">Secondary (P)</text>
<polygon fill="none" stroke="black" points="260,-4.38 260,-31.62 330.75,-31.62 330.75,-4.38 260,-4.38"/>
</g>
<!-- n_3_4&#45;&gt;n_3 -->
<g id="edge9" class="edge">
<title>n_3_4&#45;&gt;n_3</title>
<path fill="none" stroke="black" d="M338.44,-79.29C331.28,-69.27 322.03,-56.31 313.93,-44.98"/>
<polygon fill="black" stroke="black" points="317.02,-43.28 308.36,-37.17 311.32,-47.34 317.02,-43.28"/>
</g>
<!-- n_4 -->
<g id="node11" class="node">
<title>n_4</title>
<polygon fill="none" stroke="black" points="377.25,-5.38 377.25,-30.62 447.5,-30.62 447.5,-5.38 377.25,-5.38"/>
<text text-anchor="start" x="384.25" y="-16.07" font-family="Times New Roman,serif" font-weight="bold" font-size="9.00">Secondary (G)</text>
<polygon fill="none" stroke="black" points="376.25,-4.38 376.25,-31.62 448.5,-31.62 448.5,-4.38 376.25,-4.38"/>
</g>
<!-- n_3_4&#45;&gt;n_4 -->
<g id="edge10" class="edge">
<title>n_3_4&#45;&gt;n_4</title>
<path fill="none" stroke="black" d="M363.83,-79.29C371.98,-69.17 382.54,-56.05 391.73,-44.64"/>
<polygon fill="black" stroke="black" points="394.24,-47.1 397.78,-37.12 388.79,-42.71 394.24,-47.1"/>
</g>
</g>
</svg>
