<?xml version="1.0" encoding="UTF-8" standalone="no"?>
<!DOCTYPE svg PUBLIC "-//W3C//DTD SVG 1.1//EN"
 "http://www.w3.org/Graphics/SVG/1.1/DTD/svg11.dtd">
<!-- Generated by graphviz version 10.0.1 (20240210.2158)
 -->
<!-- Title: ND Pages: 1 -->
<svg width="569pt" height="535pt"
 viewBox="0.00 0.00 568.50 535.00" xmlns="http://www.w3.org/2000/svg" xmlns:xlink="http://www.w3.org/1999/xlink">
<g id="graph0" class="graph" transform="scale(1 1) rotate(0) translate(4 531)">
<title>ND</title>
<polygon fill="white" stroke="none" points="-4,4 -4,-531 564.5,-531 564.5,4 -4,4"/>
<!-- n_0_1_2_3_4_5_6 -->
<g id="node1" class="node">
<title>n_0_1_2_3_4_5_6</title>
<polygon fill="none" stroke="black" points="375.62,-454 375.62,-522 445.88,-522 445.88,-454 375.62,-454"/>
<text text-anchor="start" x="387.88" y="-507.45" font-family="Times New Roman,serif" font-weight="bold" font-size="9.00">Primary (P)</text>
<text text-anchor="start" x="387.12" y="-498.45" font-family="Times New Roman,serif" font-weight="bold" font-size="9.00">Primary (G)</text>
<text text-anchor="start" x="391.62" y="-489.45" font-family="Times New Roman,serif" font-weight="bold" font-size="9.00">Preschool</text>
<text text-anchor="start" x="382.62" y="-480.45" font-family="Times New Roman,serif" font-weight="bold" font-size="9.00">Secondary (G)</text>
<text text-anchor="start" x="391.25" y="-471.45" font-family="Times New Roman,serif" font-weight="bold" font-size="9.00">Technical</text>
<text text-anchor="start" x="390.5" y="-462.45" font-family="Times New Roman,serif" font-weight="bold" font-size="9.00">University</text>
<polygon fill="none" stroke="black" points="445.88,-454 445.88,-522 514.62,-522 514.62,-454 445.88,-454"/>
<text text-anchor="start" x="452.88" y="-486.07" font-family="Times New Roman,serif" font-weight="bold" font-size="9.00">Secondary (P)</text>
<polygon fill="none" stroke="black" points="374.62,-453 374.62,-523 515.62,-523 515.62,-453 374.62,-453"/>
</g>
<!-- n_0_1_2_4_5_6 -->
<g id="node2" class="node">
<title>n_0_1_2_4_5_6</title>
<polygon fill="none" stroke="black" points="312.88,-342 312.88,-401 383.12,-401 383.12,-342 312.88,-342"/>
<text text-anchor="start" x="325.12" y="-386.45" font-family="Times New Roman,serif" font-weight="bold" font-size="9.00">Primary (P)</text>
<text text-anchor="start" x="324.38" y="-377.45" font-family="Times New Roman,serif" font-weight="bold" font-size="9.00">Primary (G)</text>
<text text-anchor="start" x="319.88" y="-368.45" font-family="Times New Roman,serif" font-weight="bold" font-size="9.00">Secondary (G)</text>
<text text-anchor="start" x="328.5" y="-359.45" font-family="Times New Roman,serif" font-weight="bold" font-size="9.00">Technical</text>
<text text-anchor="start" x="327.75" y="-350.45" font-family="Times New Roman,serif" font-weight="bold" font-size="9.00">University</text>
<polygon fill="none" stroke="black" points="383.12,-342 383.12,-401 435.38,-401 435.38,-342 383.12,-342"/>
<text text-anchor="start" x="390.12" y="-369.57" font-family="Times New Roman,serif" font-weight="bold" font-size="9.00">Preschool</text>
<polygon fill="none" stroke="black" points="311.88,-341 311.88,-402 436.38,-402 436.38,-341 311.88,-341"/>
</g>
<!-- n_0_1_2_3_4_5_6&#45;&gt;n_0_1_2_4_5_6 -->
<g id="edge1" class="edge">
<title>n_0_1_2_3_4_5_6&#45;&gt;n_0_1_2_4_5_6</title>
<path fill="none" stroke="black" d="M421.68,-449.19C414.93,-438.31 407.52,-426.36 400.61,-415.21"/>
<polygon fill="black" stroke="black" points="403.72,-413.59 395.48,-406.94 397.78,-417.28 403.72,-413.59"/>
</g>
<!-- n_3 -->
<g id="node13" class="node">
<title>n_3</title>
<polygon fill="none" stroke="black" points="482.75,-358.88 482.75,-384.12 551.5,-384.12 551.5,-358.88 482.75,-358.88"/>
<text text-anchor="start" x="489.75" y="-369.57" font-family="Times New Roman,serif" font-weight="bold" font-size="9.00">Secondary (P)</text>
<polygon fill="none" stroke="black" points="481.75,-357.88 481.75,-385.12 552.5,-385.12 552.5,-357.88 481.75,-357.88"/>
</g>
<!-- n_0_1_2_3_4_5_6&#45;&gt;n_3 -->
<g id="edge12" class="edge">
<title>n_0_1_2_3_4_5_6&#45;&gt;n_3</title>
<path fill="none" stroke="black" d="M468.9,-449.19C479.22,-432.78 491.05,-413.96 500.42,-399.07"/>
<polygon fill="black" stroke="black" points="503.29,-401.07 505.65,-390.74 497.37,-397.35 503.29,-401.07"/>
</g>
<!-- n_0_1_4_5_6 -->
<g id="node3" class="node">
<title>n_0_1_4_5_6</title>
<polygon fill="none" stroke="black" points="239.38,-248 239.38,-289 309.62,-289 309.62,-248 239.38,-248"/>
<text text-anchor="start" x="251.62" y="-274.45" font-family="Times New Roman,serif" font-weight="bold" font-size="9.00">Primary (P)</text>
<text text-anchor="start" x="246.38" y="-265.45" font-family="Times New Roman,serif" font-weight="bold" font-size="9.00">Secondary (G)</text>
<text text-anchor="start" x="254.25" y="-256.45" font-family="Times New Roman,serif" font-weight="bold" font-size="9.00">University</text>
<polygon fill="none" stroke="black" points="309.62,-248 309.62,-289 370.88,-289 370.88,-248 309.62,-248"/>
<text text-anchor="start" x="316.62" y="-269.95" font-family="Times New Roman,serif" font-weight="bold" font-size="9.00">Primary (G)</text>
<text text-anchor="start" x="320.75" y="-260.95" font-family="Times New Roman,serif" font-weight="bold" font-size="9.00">Technical</text>
<polygon fill="none" stroke="black" points="238.38,-247 238.38,-290 371.88,-290 371.88,-247 238.38,-247"/>
</g>
<!-- n_0_1_2_4_5_6&#45;&gt;n_0_1_4_5_6 -->
<g id="edge2" class="edge">
<title>n_0_1_2_4_5_6&#45;&gt;n_0_1_4_5_6</title>
<path fill="none" stroke="black" d="M351.34,-337.15C343.87,-326.22 335.57,-314.07 328.09,-303.12"/>
<polygon fill="black" stroke="black" points="331.15,-301.39 322.62,-295.11 325.37,-305.34 331.15,-301.39"/>
</g>
<!-- n_2 -->
<g id="node12" class="node">
<title>n_2</title>
<polygon fill="none" stroke="black" points="418,-255.88 418,-281.12 470.25,-281.12 470.25,-255.88 418,-255.88"/>
<text text-anchor="start" x="425" y="-266.57" font-family="Times New Roman,serif" font-weight="bold" font-size="9.00">Preschool</text>
<polygon fill="none" stroke="black" points="417,-254.88 417,-282.12 471.25,-282.12 471.25,-254.88 417,-254.88"/>
</g>
<!-- n_0_1_2_4_5_6&#45;&gt;n_2 -->
<g id="edge11" class="edge">
<title>n_0_1_2_4_5_6&#45;&gt;n_2</title>
<path fill="none" stroke="black" d="M397.24,-337.15C406.63,-323.6 417.32,-308.17 426.12,-295.48"/>
<polygon fill="black" stroke="black" points="428.74,-297.84 431.56,-287.62 422.99,-293.85 428.74,-297.84"/>
</g>
<!-- n_0_4_6 -->
<g id="node4" class="node">
<title>n_0_4_6</title>
<polygon fill="none" stroke="black" points="156.12,-163 156.12,-195 226.38,-195 226.38,-163 156.12,-163"/>
<text text-anchor="start" x="163.12" y="-180.45" font-family="Times New Roman,serif" font-weight="bold" font-size="9.00">Secondary (G)</text>
<text text-anchor="start" x="171" y="-171.45" font-family="Times New Roman,serif" font-weight="bold" font-size="9.00">University</text>
<polygon fill="none" stroke="black" points="226.38,-163 226.38,-195 286.12,-195 286.12,-163 226.38,-163"/>
<text text-anchor="start" x="233.38" y="-177.07" font-family="Times New Roman,serif" font-weight="bold" font-size="9.00">Primary (P)</text>
<polygon fill="none" stroke="black" points="155.12,-162 155.12,-196 287.12,-196 287.12,-162 155.12,-162"/>
</g>
<!-- n_0_1_4_5_6&#45;&gt;n_0_4_6 -->
<g id="edge3" class="edge">
<title>n_0_1_4_5_6&#45;&gt;n_0_4_6</title>
<path fill="none" stroke="black" d="M281.73,-243.13C271.28,-232.25 258.91,-219.36 248.08,-208.08"/>
<polygon fill="black" stroke="black" points="250.66,-205.71 241.21,-200.92 245.61,-210.56 250.66,-205.71"/>
</g>
<!-- n_1_5 -->
<g id="node9" class="node">
<title>n_1_5</title>
<polygon fill="none" stroke="black" points="333,-166.38 333,-191.62 394.25,-191.62 394.25,-166.38 333,-166.38"/>
<text text-anchor="start" x="340" y="-177.07" font-family="Times New Roman,serif" font-weight="bold" font-size="9.00">Primary (G)</text>
<polygon fill="none" stroke="black" points="394.25,-166.38 394.25,-191.62 447.25,-191.62 447.25,-166.38 394.25,-166.38"/>
<text text-anchor="start" x="401.25" y="-177.07" font-family="Times New Roman,serif" font-weight="bold" font-size="9.00">Technical</text>
<polygon fill="none" stroke="black" points="332,-165.38 332,-192.62 448.25,-192.62 448.25,-165.38 332,-165.38"/>
</g>
<!-- n_0_1_4_5_6&#45;&gt;n_1_5 -->
<g id="edge8" class="edge">
<title>n_0_1_4_5_6&#45;&gt;n_1_5</title>
<path fill="none" stroke="black" d="M328.8,-243.13C340.34,-231.24 354.21,-216.97 365.83,-205.01"/>
<polygon fill="black" stroke="black" points="368.32,-207.47 372.78,-197.86 363.3,-202.59 368.32,-207.47"/>
</g>
<!-- n_4_6 -->
<g id="node5" class="node">
<title>n_4_6</title>
<polygon fill="none" stroke="black" points="35.75,-84.38 35.75,-109.62 106,-109.62 106,-84.38 35.75,-84.38"/>
<text text-anchor="start" x="42.75" y="-95.08" font-family="Times New Roman,serif" font-weight="bold" font-size="9.00">Secondary (G)</text>
<polygon fill="none" stroke="black" points="106,-84.38 106,-109.62 160.5,-109.62 160.5,-84.38 106,-84.38"/>
<text text-anchor="start" x="113" y="-95.08" font-family="Times New Roman,serif" font-weight="bold" font-size="9.00">University</text>
<polygon fill="none" stroke="black" points="34.75,-83.38 34.75,-110.62 161.5,-110.62 161.5,-83.38 34.75,-83.38"/>
</g>
<!-- n_0_4_6&#45;&gt;n_4_6 -->
<g id="edge4" class="edge">
<title>n_0_4_6&#45;&gt;n_4_6</title>
<path fill="none" stroke="black" d="M190.4,-158.02C173.11,-146.77 151.45,-132.68 133.46,-120.98"/>
<polygon fill="black" stroke="black" points="135.45,-118.1 125.16,-115.58 131.63,-123.97 135.45,-118.1"/>
</g>
<!-- n_0 -->
<g id="node8" class="node">
<title>n_0</title>
<polygon fill="none" stroke="black" points="207.25,-84.38 207.25,-109.62 267,-109.62 267,-84.38 207.25,-84.38"/>
<text text-anchor="start" x="214.25" y="-95.08" font-family="Times New Roman,serif" font-weight="bold" font-size="9.00">Primary (P)</text>
<polygon fill="none" stroke="black" points="206.25,-83.38 206.25,-110.62 268,-110.62 268,-83.38 206.25,-83.38"/>
</g>
<!-- n_0_4_6&#45;&gt;n_0 -->
<g id="edge7" class="edge">
<title>n_0_4_6&#45;&gt;n_0</title>
<path fill="none" stroke="black" d="M225.08,-158.22C227.02,-148.54 229.38,-136.72 231.5,-126.11"/>
<polygon fill="black" stroke="black" points="234.93,-126.82 233.46,-116.33 228.07,-125.45 234.93,-126.82"/>
</g>
<!-- n_4 -->
<g id="node6" class="node">
<title>n_4</title>
<polygon fill="none" stroke="black" points="9,-5.38 9,-30.62 79.25,-30.62 79.25,-5.38 9,-5.38"/>
<text text-anchor="start" x="16" y="-16.07" font-family="Times New Roman,serif" font-weight="bold" font-size="9.00">Secondary (G)</text>
<polygon fill="none" stroke="black" points="8,-4.38 8,-31.62 80.25,-31.62 80.25,-4.38 8,-4.38"/>
</g>
<!-- n_4_6&#45;&gt;n_4 -->
<g id="edge5" class="edge">
<title>n_4_6&#45;&gt;n_4</title>
<path fill="none" stroke="black" d="M86.41,-79.29C79.45,-69.37 70.47,-56.57 62.58,-45.32"/>
<polygon fill="black" stroke="black" points="65.48,-43.36 56.87,-37.18 59.75,-47.38 65.48,-43.36"/>
</g>
<!-- n_6 -->
<g id="node7" class="node">
<title>n_6</title>
<polygon fill="none" stroke="black" points="125.88,-5.38 125.88,-30.62 180.38,-30.62 180.38,-5.38 125.88,-5.38"/>
<text text-anchor="start" x="132.88" y="-16.07" font-family="Times New Roman,serif" font-weight="bold" font-size="9.00">University</text>
<polygon fill="none" stroke="black" points="124.88,-4.38 124.88,-31.62 181.38,-31.62 181.38,-4.38 124.88,-4.38"/>
</g>
<!-- n_4_6&#45;&gt;n_6 -->
<g id="edge6" class="edge">
<title>n_4_6&#45;&gt;n_6</title>
<path fill="none" stroke="black" d="M110.06,-79.29C117.22,-69.27 126.47,-56.31 134.57,-44.98"/>
<polygon fill="black" stroke="black" points="137.18,-47.34 140.14,-37.17 131.48,-43.28 137.18,-47.34"/>
</g>
<!-- n_1 -->
<g id="node10" class="node">
<title>n_1</title>
<polygon fill="none" stroke="black" points="344.5,-84.38 344.5,-109.62 405.75,-109.62 405.75,-84.38 344.5,-84.38"/>
<text text-anchor="start" x="351.5" y="-95.08" font-family="Times New Roman,serif" font-weight="bold" font-size="9.00">Primary (G)</text>
<polygon fill="none" stroke="black" points="343.5,-83.38 343.5,-110.62 406.75,-110.62 406.75,-83.38 343.5,-83.38"/>
</g>
<!-- n_1_5&#45;&gt;n_1 -->
<g id="edge9" class="edge">
<title>n_1_5&#45;&gt;n_1</title>
<path fill="none" stroke="black" d="M386.94,-161.03C385.03,-150.85 382.56,-137.65 380.37,-125.96"/>
<polygon fill="black" stroke="black" points="383.86,-125.61 378.58,-116.43 376.98,-126.9 383.86,-125.61"/>
</g>
<!-- n_5 -->
<g id="node11" class="node">
<title>n_5</title>
<polygon fill="none" stroke="black" points="452.62,-84.38 452.62,-109.62 505.62,-109.62 505.62,-84.38 452.62,-84.38"/>
<text text-anchor="start" x="459.62" y="-95.08" font-family="Times New Roman,serif" font-weight="bold" font-size="9.00">Technical</text>
<polygon fill="none" stroke="black" points="451.62,-83.38 451.62,-110.62 506.62,-110.62 506.62,-83.38 451.62,-83.38"/>
</g>
<!-- n_1_5&#45;&gt;n_5 -->
<g id="edge10" class="edge">
<title>n_1_5&#45;&gt;n_5</title>
<path fill="none" stroke="black" d="M409,-161.03C421.51,-149.79 438.11,-134.87 452.02,-122.36"/>
<polygon fill="black" stroke="black" points="454.05,-125.24 459.15,-115.95 449.38,-120.04 454.05,-125.24"/>
</g>
</g>
</svg>
