<?xml version="1.0" encoding="UTF-8" standalone="no"?>
<!DOCTYPE svg PUBLIC "-//W3C//DTD SVG 1.1//EN"
 "http://www.w3.org/Graphics/SVG/1.1/DTD/svg11.dtd">
<!-- Generated by graphviz version 10.0.1 (20240210.2158)
 -->
<!-- Title: ND Pages: 1 -->
<svg width="634pt" height="423pt"
 viewBox="0.00 0.00 634.12 423.00" xmlns="http://www.w3.org/2000/svg" xmlns:xlink="http://www.w3.org/1999/xlink">
<g id="graph0" class="graph" transform="scale(1 1) rotate(0) translate(4 419)">
<title>ND</title>
<polygon fill="white" stroke="none" points="-4,4 -4,-419 630.12,-419 630.12,4 -4,4"/>
<!-- n_0_1_2_3_4_5_6 -->
<g id="node1" class="node">
<title>n_0_1_2_3_4_5_6</title>
<polygon fill="none" stroke="black" points="358.5,-351 358.5,-410 428.75,-410 428.75,-351 358.5,-351"/>
<text text-anchor="start" x="370.75" y="-395.45" font-family="Times New Roman,serif" font-weight="bold" font-size="9.00">Primary (P)</text>
<text text-anchor="start" x="370" y="-386.45" font-family="Times New Roman,serif" font-weight="bold" font-size="9.00">Primary (G)</text>
<text text-anchor="start" x="374.5" y="-377.45" font-family="Times New Roman,serif" font-weight="bold" font-size="9.00">Preschool</text>
<text text-anchor="start" x="366.25" y="-368.45" font-family="Times New Roman,serif" font-weight="bold" font-size="9.00">Secondary (P)</text>
<text text-anchor="start" x="365.5" y="-359.45" font-family="Times New Roman,serif" font-weight="bold" font-size="9.00">Secondary (G)</text>
<polygon fill="none" stroke="black" points="428.75,-351 428.75,-410 483.25,-410 483.25,-351 428.75,-351"/>
<text text-anchor="start" x="436.5" y="-381.95" font-family="Times New Roman,serif" font-weight="bold" font-size="9.00">Technical</text>
<text text-anchor="start" x="435.75" y="-372.95" font-family="Times New Roman,serif" font-weight="bold" font-size="9.00">University</text>
<polygon fill="none" stroke="black" points="357.5,-350 357.5,-411 484.25,-411 484.25,-350 357.5,-350"/>
</g>
<!-- n_0_1_2_3_4 -->
<g id="node2" class="node">
<title>n_0_1_2_3_4</title>
<polygon fill="none" stroke="black" points="272.12,-248 272.12,-298 342.38,-298 342.38,-248 272.12,-248"/>
<text text-anchor="start" x="284.38" y="-283.45" font-family="Times New Roman,serif" font-weight="bold" font-size="9.00">Primary (P)</text>
<text text-anchor="start" x="288.12" y="-274.45" font-family="Times New Roman,serif" font-weight="bold" font-size="9.00">Preschool</text>
<text text-anchor="start" x="279.88" y="-265.45" font-family="Times New Roman,serif" font-weight="bold" font-size="9.00">Secondary (P)</text>
<text text-anchor="start" x="279.12" y="-256.45" font-family="Times New Roman,serif" font-weight="bold" font-size="9.00">Secondary (G)</text>
<polygon fill="none" stroke="black" points="342.38,-248 342.38,-298 403.62,-298 403.62,-248 342.38,-248"/>
<text text-anchor="start" x="349.38" y="-271.07" font-family="Times New Roman,serif" font-weight="bold" font-size="9.00">Primary (G)</text>
<polygon fill="none" stroke="black" points="271.12,-247 271.12,-299 404.62,-299 404.62,-247 271.12,-247"/>
</g>
<!-- n_0_1_2_3_4_5_6&#45;&gt;n_0_1_2_3_4 -->
<g id="edge1" class="edge">
<title>n_0_1_2_3_4_5_6&#45;&gt;n_0_1_2_3_4</title>
<path fill="none" stroke="black" d="M394.61,-346.12C385.99,-335.16 376.36,-322.91 367.51,-311.66"/>
<polygon fill="black" stroke="black" points="370.48,-309.78 361.55,-304.09 364.98,-314.11 370.48,-309.78"/>
</g>
<!-- n_5_6 -->
<g id="node11" class="node">
<title>n_5_6</title>
<polygon fill="none" stroke="black" points="451.12,-260.38 451.12,-285.62 504.12,-285.62 504.12,-260.38 451.12,-260.38"/>
<text text-anchor="start" x="458.12" y="-271.07" font-family="Times New Roman,serif" font-weight="bold" font-size="9.00">Technical</text>
<polygon fill="none" stroke="black" points="504.12,-260.38 504.12,-285.62 558.62,-285.62 558.62,-260.38 504.12,-260.38"/>
<text text-anchor="start" x="511.12" y="-271.07" font-family="Times New Roman,serif" font-weight="bold" font-size="9.00">University</text>
<polygon fill="none" stroke="black" points="450.12,-259.38 450.12,-286.62 559.62,-286.62 559.62,-259.38 450.12,-259.38"/>
</g>
<!-- n_0_1_2_3_4_5_6&#45;&gt;n_5_6 -->
<g id="edge10" class="edge">
<title>n_0_1_2_3_4_5_6&#45;&gt;n_5_6</title>
<path fill="none" stroke="black" d="M447.45,-346.12C459.44,-331.06 473.37,-313.57 484.51,-299.58"/>
<polygon fill="black" stroke="black" points="486.95,-302.14 490.44,-292.13 481.47,-297.78 486.95,-302.14"/>
</g>
<!-- n_0_2_3_4 -->
<g id="node3" class="node">
<title>n_0_2_3_4</title>
<polygon fill="none" stroke="black" points="145.88,-163 145.88,-195 205.62,-195 205.62,-163 145.88,-163"/>
<text text-anchor="start" x="152.88" y="-180.45" font-family="Times New Roman,serif" font-weight="bold" font-size="9.00">Primary (P)</text>
<text text-anchor="start" x="156.62" y="-171.45" font-family="Times New Roman,serif" font-weight="bold" font-size="9.00">Preschool</text>
<polygon fill="none" stroke="black" points="205.62,-163 205.62,-195 275.88,-195 275.88,-163 205.62,-163"/>
<text text-anchor="start" x="213.38" y="-180.45" font-family="Times New Roman,serif" font-weight="bold" font-size="9.00">Secondary (P)</text>
<text text-anchor="start" x="212.62" y="-171.45" font-family="Times New Roman,serif" font-weight="bold" font-size="9.00">Secondary (G)</text>
<polygon fill="none" stroke="black" points="144.88,-162 144.88,-196 276.88,-196 276.88,-162 144.88,-162"/>
</g>
<!-- n_0_1_2_3_4&#45;&gt;n_0_2_3_4 -->
<g id="edge2" class="edge">
<title>n_0_1_2_3_4&#45;&gt;n_0_2_3_4</title>
<path fill="none" stroke="black" d="M298.04,-243.14C281.74,-231.34 263.02,-217.77 247.11,-206.25"/>
<polygon fill="black" stroke="black" points="249.49,-203.65 239.34,-200.62 245.38,-209.32 249.49,-203.65"/>
</g>
<!-- n_1 -->
<g id="node10" class="node">
<title>n_1</title>
<polygon fill="none" stroke="black" points="323.25,-166.38 323.25,-191.62 384.5,-191.62 384.5,-166.38 323.25,-166.38"/>
<text text-anchor="start" x="330.25" y="-177.07" font-family="Times New Roman,serif" font-weight="bold" font-size="9.00">Primary (G)</text>
<polygon fill="none" stroke="black" points="322.25,-165.38 322.25,-192.62 385.5,-192.62 385.5,-165.38 322.25,-165.38"/>
</g>
<!-- n_0_1_2_3_4&#45;&gt;n_1 -->
<g id="edge9" class="edge">
<title>n_0_1_2_3_4&#45;&gt;n_1</title>
<path fill="none" stroke="black" d="M342.89,-243.14C344.83,-232 347.04,-219.29 348.97,-208.2"/>
<polygon fill="black" stroke="black" points="352.4,-208.91 350.66,-198.46 345.5,-207.71 352.4,-208.91"/>
</g>
<!-- n_0_2 -->
<g id="node4" class="node">
<title>n_0_2</title>
<polygon fill="none" stroke="black" points="68.88,-84.38 68.88,-109.62 128.62,-109.62 128.62,-84.38 68.88,-84.38"/>
<text text-anchor="start" x="75.88" y="-95.08" font-family="Times New Roman,serif" font-weight="bold" font-size="9.00">Primary (P)</text>
<polygon fill="none" stroke="black" points="128.62,-84.38 128.62,-109.62 180.88,-109.62 180.88,-84.38 128.62,-84.38"/>
<text text-anchor="start" x="135.62" y="-95.08" font-family="Times New Roman,serif" font-weight="bold" font-size="9.00">Preschool</text>
<polygon fill="none" stroke="black" points="67.88,-83.38 67.88,-110.62 181.88,-110.62 181.88,-83.38 67.88,-83.38"/>
</g>
<!-- n_0_2_3_4&#45;&gt;n_0_2 -->
<g id="edge3" class="edge">
<title>n_0_2_3_4&#45;&gt;n_0_2</title>
<path fill="none" stroke="black" d="M189.62,-158.22C177.98,-147.4 163.45,-133.89 151.11,-122.41"/>
<polygon fill="black" stroke="black" points="153.8,-120.12 144.09,-115.87 149.03,-125.25 153.8,-120.12"/>
</g>
<!-- n_3_4 -->
<g id="node7" class="node">
<title>n_3_4</title>
<polygon fill="none" stroke="black" points="228.38,-84.38 228.38,-109.62 297.12,-109.62 297.12,-84.38 228.38,-84.38"/>
<text text-anchor="start" x="235.38" y="-95.08" font-family="Times New Roman,serif" font-weight="bold" font-size="9.00">Secondary (P)</text>
<polygon fill="none" stroke="black" points="297.12,-84.38 297.12,-109.62 367.38,-109.62 367.38,-84.38 297.12,-84.38"/>
<text text-anchor="start" x="304.12" y="-95.08" font-family="Times New Roman,serif" font-weight="bold" font-size="9.00">Secondary (G)</text>
<polygon fill="none" stroke="black" points="227.38,-83.38 227.38,-110.62 368.38,-110.62 368.38,-83.38 227.38,-83.38"/>
</g>
<!-- n_0_2_3_4&#45;&gt;n_3_4 -->
<g id="edge6" class="edge">
<title>n_0_2_3_4&#45;&gt;n_3_4</title>
<path fill="none" stroke="black" d="M232.38,-158.22C244.16,-147.4 258.85,-133.89 271.33,-122.41"/>
<polygon fill="black" stroke="black" points="273.45,-125.21 278.44,-115.87 268.71,-120.06 273.45,-125.21"/>
</g>
<!-- n_0 -->
<g id="node5" class="node">
<title>n_0</title>
<polygon fill="none" stroke="black" points="9,-5.38 9,-30.62 68.75,-30.62 68.75,-5.38 9,-5.38"/>
<text text-anchor="start" x="16" y="-16.07" font-family="Times New Roman,serif" font-weight="bold" font-size="9.00">Primary (P)</text>
<polygon fill="none" stroke="black" points="8,-4.38 8,-31.62 69.75,-31.62 69.75,-4.38 8,-4.38"/>
</g>
<!-- n_0_2&#45;&gt;n_0 -->
<g id="edge4" class="edge">
<title>n_0_2&#45;&gt;n_0</title>
<path fill="none" stroke="black" d="M106.21,-79.29C94.46,-68.77 79.09,-55.01 66.01,-43.29"/>
<polygon fill="black" stroke="black" points="68.71,-41.01 58.92,-36.95 64.04,-46.23 68.71,-41.01"/>
</g>
<!-- n_2 -->
<g id="node6" class="node">
<title>n_2</title>
<polygon fill="none" stroke="black" points="115.75,-5.38 115.75,-30.62 168,-30.62 168,-5.38 115.75,-5.38"/>
<text text-anchor="start" x="122.75" y="-16.07" font-family="Times New Roman,serif" font-weight="bold" font-size="9.00">Preschool</text>
<polygon fill="none" stroke="black" points="114.75,-4.38 114.75,-31.62 169,-31.62 169,-4.38 114.75,-4.38"/>
</g>
<!-- n_0_2&#45;&gt;n_2 -->
<g id="edge5" class="edge">
<title>n_0_2&#45;&gt;n_2</title>
<path fill="none" stroke="black" d="M128.56,-79.29C130.64,-69.87 133.3,-57.86 135.69,-47.04"/>
<polygon fill="black" stroke="black" points="139.07,-47.94 137.81,-37.42 132.23,-46.43 139.07,-47.94"/>
</g>
<!-- n_3 -->
<g id="node8" class="node">
<title>n_3</title>
<polygon fill="none" stroke="black" points="247.5,-5.38 247.5,-30.62 316.25,-30.62 316.25,-5.38 247.5,-5.38"/>
<text text-anchor="start" x="254.5" y="-16.07" font-family="Times New Roman,serif" font-weight="bold" font-size="9.00">Secondary (P)</text>
<polygon fill="none" stroke="black" points="246.5,-4.38 246.5,-31.62 317.25,-31.62 317.25,-4.38 246.5,-4.38"/>
</g>
<!-- n_3_4&#45;&gt;n_3 -->
<g id="edge7" class="edge">
<title>n_3_4&#45;&gt;n_3</title>
<path fill="none" stroke="black" d="M294.4,-79.29C292.45,-69.87 289.95,-57.86 287.7,-47.04"/>
<polygon fill="black" stroke="black" points="291.16,-46.5 285.7,-37.42 284.31,-47.93 291.16,-46.5"/>
</g>
<!-- n_4 -->
<g id="node9" class="node">
<title>n_4</title>
<polygon fill="none" stroke="black" points="363.75,-5.38 363.75,-30.62 434,-30.62 434,-5.38 363.75,-5.38"/>
<text text-anchor="start" x="370.75" y="-16.07" font-family="Times New Roman,serif" font-weight="bold" font-size="9.00">Secondary (G)</text>
<polygon fill="none" stroke="black" points="362.75,-4.38 362.75,-31.62 435,-31.62 435,-4.38 362.75,-4.38"/>
</g>
<!-- n_3_4&#45;&gt;n_4 -->
<g id="edge8" class="edge">
<title>n_3_4&#45;&gt;n_4</title>
<path fill="none" stroke="black" d="M319.79,-79.29C333.86,-68.57 352.33,-54.48 367.89,-42.62"/>
<polygon fill="black" stroke="black" points="369.62,-45.71 375.45,-36.86 365.38,-40.14 369.62,-45.71"/>
</g>
<!-- n_5 -->
<g id="node12" class="node">
<title>n_5</title>
<polygon fill="none" stroke="black" points="462.38,-166.38 462.38,-191.62 515.38,-191.62 515.38,-166.38 462.38,-166.38"/>
<text text-anchor="start" x="469.38" y="-177.07" font-family="Times New Roman,serif" font-weight="bold" font-size="9.00">Technical</text>
<polygon fill="none" stroke="black" points="461.38,-165.38 461.38,-192.62 516.38,-192.62 516.38,-165.38 461.38,-165.38"/>
</g>
<!-- n_5_6&#45;&gt;n_5 -->
<g id="edge11" class="edge">
<title>n_5_6&#45;&gt;n_5</title>
<path fill="none" stroke="black" d="M501.94,-255.13C499.64,-241.9 496.39,-223.21 493.71,-207.78"/>
<polygon fill="black" stroke="black" points="497.21,-207.51 492.05,-198.26 490.32,-208.71 497.21,-207.51"/>
</g>
<!-- n_6 -->
<g id="node13" class="node">
<title>n_6</title>
<polygon fill="none" stroke="black" points="562.62,-166.38 562.62,-191.62 617.12,-191.62 617.12,-166.38 562.62,-166.38"/>
<text text-anchor="start" x="569.62" y="-177.07" font-family="Times New Roman,serif" font-weight="bold" font-size="9.00">University</text>
<polygon fill="none" stroke="black" points="561.62,-165.38 561.62,-192.62 618.12,-192.62 618.12,-165.38 561.62,-165.38"/>
</g>
<!-- n_5_6&#45;&gt;n_6 -->
<g id="edge12" class="edge">
<title>n_5_6&#45;&gt;n_6</title>
<path fill="none" stroke="black" d="M520.47,-255.13C533.41,-241.12 552,-220.99 566.69,-205.1"/>
<polygon fill="black" stroke="black" points="569.14,-207.6 573.36,-197.88 564,-202.85 569.14,-207.6"/>
</g>
</g>
</svg>
