<?xml version="1.0" encoding="UTF-8" standalone="no"?>
<!DOCTYPE svg PUBLIC "-//W3C//DTD SVG 1.1//EN"
 "http://www.w3.org/Graphics/SVG/1.1/DTD/svg11.dtd">
<!-- Generated by graphviz version 10.0.1 (20240210.2158)
 -->
<!-- Title: ND Pages: 1 -->
<svg width="563pt" height="535pt"
 viewBox="0.00 0.00 563.00 535.00" xmlns="http://www.w3.org/2000/svg" xmlns:xlink="http://www.w3.org/1999/xlink">
<g id="graph0" class="graph" transform="scale(1 1) rotate(0) translate(4 531)">
<title>ND</title>
<polygon fill="white" stroke="none" points="-4,4 -4,-531 559,-531 559,4 -4,4"/>
<!-- n_0_1_2_3_4_5_6 -->
<g id="node1" class="node">
<title>n_0_1_2_3_4_5_6</title>
<polygon fill="none" stroke="black" points="381.12,-454 381.12,-522 451.38,-522 451.38,-454 381.12,-454"/>
<text text-anchor="start" x="392.62" y="-507.45" font-family="Times New Roman,serif" font-weight="bold" font-size="9.00">Primary (G)</text>
<text text-anchor="start" x="397.12" y="-498.45" font-family="Times New Roman,serif" font-weight="bold" font-size="9.00">Preschool</text>
<text text-anchor="start" x="388.88" y="-489.45" font-family="Times New Roman,serif" font-weight="bold" font-size="9.00">Secondary (P)</text>
<text text-anchor="start" x="388.12" y="-480.45" font-family="Times New Roman,serif" font-weight="bold" font-size="9.00">Secondary (G)</text>
<text text-anchor="start" x="396.75" y="-471.45" font-family="Times New Roman,serif" font-weight="bold" font-size="9.00">Technical</text>
<text text-anchor="start" x="396" y="-462.45" font-family="Times New Roman,serif" font-weight="bold" font-size="9.00">University</text>
<polygon fill="none" stroke="black" points="451.38,-454 451.38,-522 511.12,-522 511.12,-454 451.38,-454"/>
<text text-anchor="start" x="458.38" y="-486.07" font-family="Times New Roman,serif" font-weight="bold" font-size="9.00">Primary (P)</text>
<polygon fill="none" stroke="black" points="380.12,-453 380.12,-523 512.12,-523 512.12,-453 380.12,-453"/>
</g>
<!-- n_1_2_3_4_5_6 -->
<g id="node2" class="node">
<title>n_1_2_3_4_5_6</title>
<polygon fill="none" stroke="black" points="315.5,-342 315.5,-401 385.75,-401 385.75,-342 315.5,-342"/>
<text text-anchor="start" x="327" y="-386.45" font-family="Times New Roman,serif" font-weight="bold" font-size="9.00">Primary (G)</text>
<text text-anchor="start" x="331.5" y="-377.45" font-family="Times New Roman,serif" font-weight="bold" font-size="9.00">Preschool</text>
<text text-anchor="start" x="323.25" y="-368.45" font-family="Times New Roman,serif" font-weight="bold" font-size="9.00">Secondary (P)</text>
<text text-anchor="start" x="322.5" y="-359.45" font-family="Times New Roman,serif" font-weight="bold" font-size="9.00">Secondary (G)</text>
<text text-anchor="start" x="330.38" y="-350.45" font-family="Times New Roman,serif" font-weight="bold" font-size="9.00">University</text>
<polygon fill="none" stroke="black" points="385.75,-342 385.75,-401 438.75,-401 438.75,-342 385.75,-342"/>
<text text-anchor="start" x="392.75" y="-369.57" font-family="Times New Roman,serif" font-weight="bold" font-size="9.00">Technical</text>
<polygon fill="none" stroke="black" points="314.5,-341 314.5,-402 439.75,-402 439.75,-341 314.5,-341"/>
</g>
<!-- n_0_1_2_3_4_5_6&#45;&gt;n_1_2_3_4_5_6 -->
<g id="edge1" class="edge">
<title>n_0_1_2_3_4_5_6&#45;&gt;n_1_2_3_4_5_6</title>
<path fill="none" stroke="black" d="M423.34,-449.19C416.78,-438.31 409.58,-426.36 402.86,-415.21"/>
<polygon fill="black" stroke="black" points="406.04,-413.71 397.88,-406.95 400.05,-417.32 406.04,-413.71"/>
</g>
<!-- n_0 -->
<g id="node13" class="node">
<title>n_0</title>
<polygon fill="none" stroke="black" points="486.25,-358.88 486.25,-384.12 546,-384.12 546,-358.88 486.25,-358.88"/>
<text text-anchor="start" x="493.25" y="-369.57" font-family="Times New Roman,serif" font-weight="bold" font-size="9.00">Primary (P)</text>
<polygon fill="none" stroke="black" points="485.25,-357.88 485.25,-385.12 547,-385.12 547,-357.88 485.25,-357.88"/>
</g>
<!-- n_0_1_2_3_4_5_6&#45;&gt;n_0 -->
<g id="edge12" class="edge">
<title>n_0_1_2_3_4_5_6&#45;&gt;n_0</title>
<path fill="none" stroke="black" d="M469.24,-449.19C479.27,-432.78 490.78,-413.96 499.88,-399.07"/>
<polygon fill="black" stroke="black" points="502.74,-401.11 504.97,-390.75 496.76,-397.46 502.74,-401.11"/>
</g>
<!-- n_1_2_3_4_6 -->
<g id="node3" class="node">
<title>n_1_2_3_4_6</title>
<polygon fill="none" stroke="black" points="236.62,-248 236.62,-289 306.88,-289 306.88,-248 236.62,-248"/>
<text text-anchor="start" x="248.12" y="-274.45" font-family="Times New Roman,serif" font-weight="bold" font-size="9.00">Primary (G)</text>
<text text-anchor="start" x="243.62" y="-265.45" font-family="Times New Roman,serif" font-weight="bold" font-size="9.00">Secondary (G)</text>
<text text-anchor="start" x="251.5" y="-256.45" font-family="Times New Roman,serif" font-weight="bold" font-size="9.00">University</text>
<polygon fill="none" stroke="black" points="306.88,-248 306.88,-289 375.62,-289 375.62,-248 306.88,-248"/>
<text text-anchor="start" x="322.12" y="-269.95" font-family="Times New Roman,serif" font-weight="bold" font-size="9.00">Preschool</text>
<text text-anchor="start" x="313.88" y="-260.95" font-family="Times New Roman,serif" font-weight="bold" font-size="9.00">Secondary (P)</text>
<polygon fill="none" stroke="black" points="235.62,-247 235.62,-290 376.62,-290 376.62,-247 235.62,-247"/>
</g>
<!-- n_1_2_3_4_5_6&#45;&gt;n_1_2_3_4_6 -->
<g id="edge2" class="edge">
<title>n_1_2_3_4_5_6&#45;&gt;n_1_2_3_4_6</title>
<path fill="none" stroke="black" d="M353.68,-337.15C345.99,-326.22 337.45,-314.07 329.76,-303.12"/>
<polygon fill="black" stroke="black" points="332.73,-301.27 324.12,-295.1 327.01,-305.29 332.73,-301.27"/>
</g>
<!-- n_5 -->
<g id="node12" class="node">
<title>n_5</title>
<polygon fill="none" stroke="black" points="422.62,-255.88 422.62,-281.12 475.62,-281.12 475.62,-255.88 422.62,-255.88"/>
<text text-anchor="start" x="429.62" y="-266.57" font-family="Times New Roman,serif" font-weight="bold" font-size="9.00">Technical</text>
<polygon fill="none" stroke="black" points="421.62,-254.88 421.62,-282.12 476.62,-282.12 476.62,-254.88 421.62,-254.88"/>
</g>
<!-- n_1_2_3_4_5_6&#45;&gt;n_5 -->
<g id="edge11" class="edge">
<title>n_1_2_3_4_5_6&#45;&gt;n_5</title>
<path fill="none" stroke="black" d="M400.9,-337.15C410.56,-323.6 421.56,-308.17 430.61,-295.48"/>
<polygon fill="black" stroke="black" points="433.26,-297.79 436.21,-287.61 427.56,-293.72 433.26,-297.79"/>
</g>
<!-- n_1_4_6 -->
<g id="node4" class="node">
<title>n_1_4_6</title>
<polygon fill="none" stroke="black" points="154.38,-163 154.38,-195 224.62,-195 224.62,-163 154.38,-163"/>
<text text-anchor="start" x="161.38" y="-180.45" font-family="Times New Roman,serif" font-weight="bold" font-size="9.00">Secondary (G)</text>
<text text-anchor="start" x="169.25" y="-171.45" font-family="Times New Roman,serif" font-weight="bold" font-size="9.00">University</text>
<polygon fill="none" stroke="black" points="224.62,-163 224.62,-195 285.88,-195 285.88,-163 224.62,-163"/>
<text text-anchor="start" x="231.62" y="-177.07" font-family="Times New Roman,serif" font-weight="bold" font-size="9.00">Primary (G)</text>
<polygon fill="none" stroke="black" points="153.38,-162 153.38,-196 286.88,-196 286.88,-162 153.38,-162"/>
</g>
<!-- n_1_2_3_4_6&#45;&gt;n_1_4_6 -->
<g id="edge3" class="edge">
<title>n_1_2_3_4_6&#45;&gt;n_1_4_6</title>
<path fill="none" stroke="black" d="M282.17,-243.13C271.37,-232.14 258.56,-219.11 247.4,-207.75"/>
<polygon fill="black" stroke="black" points="250.18,-205.58 240.67,-200.91 245.19,-210.49 250.18,-205.58"/>
</g>
<!-- n_2_3 -->
<g id="node9" class="node">
<title>n_2_3</title>
<polygon fill="none" stroke="black" points="332.62,-166.38 332.62,-191.62 384.88,-191.62 384.88,-166.38 332.62,-166.38"/>
<text text-anchor="start" x="339.62" y="-177.07" font-family="Times New Roman,serif" font-weight="bold" font-size="9.00">Preschool</text>
<polygon fill="none" stroke="black" points="384.88,-166.38 384.88,-191.62 453.62,-191.62 453.62,-166.38 384.88,-166.38"/>
<text text-anchor="start" x="391.88" y="-177.07" font-family="Times New Roman,serif" font-weight="bold" font-size="9.00">Secondary (P)</text>
<polygon fill="none" stroke="black" points="331.62,-165.38 331.62,-192.62 454.62,-192.62 454.62,-165.38 331.62,-165.38"/>
</g>
<!-- n_1_2_3_4_6&#45;&gt;n_2_3 -->
<g id="edge8" class="edge">
<title>n_1_2_3_4_6&#45;&gt;n_2_3</title>
<path fill="none" stroke="black" d="M330.36,-243.13C342.29,-231.13 356.64,-216.7 368.61,-204.66"/>
<polygon fill="black" stroke="black" points="370.81,-207.4 375.38,-197.84 365.85,-202.47 370.81,-207.4"/>
</g>
<!-- n_4_6 -->
<g id="node5" class="node">
<title>n_4_6</title>
<polygon fill="none" stroke="black" points="35.75,-84.38 35.75,-109.62 106,-109.62 106,-84.38 35.75,-84.38"/>
<text text-anchor="start" x="42.75" y="-95.08" font-family="Times New Roman,serif" font-weight="bold" font-size="9.00">Secondary (G)</text>
<polygon fill="none" stroke="black" points="106,-84.38 106,-109.62 160.5,-109.62 160.5,-84.38 106,-84.38"/>
<text text-anchor="start" x="113" y="-95.08" font-family="Times New Roman,serif" font-weight="bold" font-size="9.00">University</text>
<polygon fill="none" stroke="black" points="34.75,-83.38 34.75,-110.62 161.5,-110.62 161.5,-83.38 34.75,-83.38"/>
</g>
<!-- n_1_4_6&#45;&gt;n_4_6 -->
<g id="edge4" class="edge">
<title>n_1_4_6&#45;&gt;n_4_6</title>
<path fill="none" stroke="black" d="M189.65,-158.02C172.5,-146.77 151.02,-132.68 133.17,-120.98"/>
<polygon fill="black" stroke="black" points="135.23,-118.15 124.95,-115.59 131.39,-124 135.23,-118.15"/>
</g>
<!-- n_1 -->
<g id="node8" class="node">
<title>n_1</title>
<polygon fill="none" stroke="black" points="207.5,-84.38 207.5,-109.62 268.75,-109.62 268.75,-84.38 207.5,-84.38"/>
<text text-anchor="start" x="214.5" y="-95.08" font-family="Times New Roman,serif" font-weight="bold" font-size="9.00">Primary (G)</text>
<polygon fill="none" stroke="black" points="206.5,-83.38 206.5,-110.62 269.75,-110.62 269.75,-83.38 206.5,-83.38"/>
</g>
<!-- n_1_4_6&#45;&gt;n_1 -->
<g id="edge7" class="edge">
<title>n_1_4_6&#45;&gt;n_1</title>
<path fill="none" stroke="black" d="M224.57,-158.22C226.78,-148.44 229.47,-136.46 231.88,-125.77"/>
<polygon fill="black" stroke="black" points="235.22,-126.84 234,-116.32 228.39,-125.31 235.22,-126.84"/>
</g>
<!-- n_4 -->
<g id="node6" class="node">
<title>n_4</title>
<polygon fill="none" stroke="black" points="9,-5.38 9,-30.62 79.25,-30.62 79.25,-5.38 9,-5.38"/>
<text text-anchor="start" x="16" y="-16.07" font-family="Times New Roman,serif" font-weight="bold" font-size="9.00">Secondary (G)</text>
<polygon fill="none" stroke="black" points="8,-4.38 8,-31.62 80.25,-31.62 80.25,-4.38 8,-4.38"/>
</g>
<!-- n_4_6&#45;&gt;n_4 -->
<g id="edge5" class="edge">
<title>n_4_6&#45;&gt;n_4</title>
<path fill="none" stroke="black" d="M86.41,-79.29C79.45,-69.37 70.47,-56.57 62.58,-45.32"/>
<polygon fill="black" stroke="black" points="65.48,-43.36 56.87,-37.18 59.75,-47.38 65.48,-43.36"/>
</g>
<!-- n_6 -->
<g id="node7" class="node">
<title>n_6</title>
<polygon fill="none" stroke="black" points="125.88,-5.38 125.88,-30.62 180.38,-30.62 180.38,-5.38 125.88,-5.38"/>
<text text-anchor="start" x="132.88" y="-16.07" font-family="Times New Roman,serif" font-weight="bold" font-size="9.00">University</text>
<polygon fill="none" stroke="black" points="124.88,-4.38 124.88,-31.62 181.38,-31.62 181.38,-4.38 124.88,-4.38"/>
</g>
<!-- n_4_6&#45;&gt;n_6 -->
<g id="edge6" class="edge">
<title>n_4_6&#45;&gt;n_6</title>
<path fill="none" stroke="black" d="M110.06,-79.29C117.22,-69.27 126.47,-56.31 134.57,-44.98"/>
<polygon fill="black" stroke="black" points="137.18,-47.34 140.14,-37.17 131.48,-43.28 137.18,-47.34"/>
</g>
<!-- n_2 -->
<g id="node10" class="node">
<title>n_2</title>
<polygon fill="none" stroke="black" points="350,-84.38 350,-109.62 402.25,-109.62 402.25,-84.38 350,-84.38"/>
<text text-anchor="start" x="357" y="-95.08" font-family="Times New Roman,serif" font-weight="bold" font-size="9.00">Preschool</text>
<polygon fill="none" stroke="black" points="349,-83.38 349,-110.62 403.25,-110.62 403.25,-83.38 349,-83.38"/>
</g>
<!-- n_2_3&#45;&gt;n_2 -->
<g id="edge9" class="edge">
<title>n_2_3&#45;&gt;n_2</title>
<path fill="none" stroke="black" d="M389.52,-161.03C387.36,-150.85 384.55,-137.65 382.07,-125.96"/>
<polygon fill="black" stroke="black" points="385.54,-125.48 380.04,-116.42 378.69,-126.93 385.54,-125.48"/>
</g>
<!-- n_3 -->
<g id="node11" class="node">
<title>n_3</title>
<polygon fill="none" stroke="black" points="449.75,-84.38 449.75,-109.62 518.5,-109.62 518.5,-84.38 449.75,-84.38"/>
<text text-anchor="start" x="456.75" y="-95.08" font-family="Times New Roman,serif" font-weight="bold" font-size="9.00">Secondary (P)</text>
<polygon fill="none" stroke="black" points="448.75,-83.38 448.75,-110.62 519.5,-110.62 519.5,-83.38 448.75,-83.38"/>
</g>
<!-- n_2_3&#45;&gt;n_3 -->
<g id="edge10" class="edge">
<title>n_2_3&#45;&gt;n_3</title>
<path fill="none" stroke="black" d="M412.42,-161.03C425.21,-149.79 442.19,-134.87 456.42,-122.36"/>
<polygon fill="black" stroke="black" points="458.52,-125.17 463.72,-115.94 453.9,-119.91 458.52,-125.17"/>
</g>
</g>
</svg>
