<?xml version="1.0" encoding="UTF-8" standalone="no"?>
<!DOCTYPE svg PUBLIC "-//W3C//DTD SVG 1.1//EN"
 "http://www.w3.org/Graphics/SVG/1.1/DTD/svg11.dtd">
<!-- Generated by graphviz version 10.0.1 (20240210.2158)
 -->
<!-- Title: ND Pages: 1 -->
<svg width="608pt" height="526pt"
 viewBox="0.00 0.00 607.50 526.00" xmlns="http://www.w3.org/2000/svg" xmlns:xlink="http://www.w3.org/1999/xlink">
<g id="graph0" class="graph" transform="scale(1 1) rotate(0) translate(4 522)">
<title>ND</title>
<polygon fill="white" stroke="none" points="-4,4 -4,-522 603.5,-522 603.5,4 -4,4"/>
<!-- n_0_1_2_3_4_5_6 -->
<g id="node1" class="node">
<title>n_0_1_2_3_4_5_6</title>
<polygon fill="none" stroke="black" points="384.88,-445 384.88,-513 455.12,-513 455.12,-445 384.88,-445"/>
<text text-anchor="start" x="397.12" y="-498.45" font-family="Times New Roman,serif" font-weight="bold" font-size="9.00">Primary (P)</text>
<text text-anchor="start" x="396.38" y="-489.45" font-family="Times New Roman,serif" font-weight="bold" font-size="9.00">Primary (G)</text>
<text text-anchor="start" x="392.62" y="-480.45" font-family="Times New Roman,serif" font-weight="bold" font-size="9.00">Secondary (P)</text>
<text text-anchor="start" x="391.88" y="-471.45" font-family="Times New Roman,serif" font-weight="bold" font-size="9.00">Secondary (G)</text>
<text text-anchor="start" x="400.5" y="-462.45" font-family="Times New Roman,serif" font-weight="bold" font-size="9.00">Technical</text>
<text text-anchor="start" x="399.75" y="-453.45" font-family="Times New Roman,serif" font-weight="bold" font-size="9.00">University</text>
<polygon fill="none" stroke="black" points="455.12,-445 455.12,-513 507.38,-513 507.38,-445 455.12,-445"/>
<text text-anchor="start" x="462.12" y="-477.07" font-family="Times New Roman,serif" font-weight="bold" font-size="9.00">Preschool</text>
<polygon fill="none" stroke="black" points="383.88,-444 383.88,-514 508.38,-514 508.38,-444 383.88,-444"/>
</g>
<!-- n_0_1_3_4_5_6 -->
<g id="node2" class="node">
<title>n_0_1_3_4_5_6</title>
<polygon fill="none" stroke="black" points="305.62,-342 305.62,-392 375.88,-392 375.88,-342 305.62,-342"/>
<text text-anchor="start" x="317.12" y="-377.45" font-family="Times New Roman,serif" font-weight="bold" font-size="9.00">Primary (G)</text>
<text text-anchor="start" x="312.62" y="-368.45" font-family="Times New Roman,serif" font-weight="bold" font-size="9.00">Secondary (G)</text>
<text text-anchor="start" x="321.25" y="-359.45" font-family="Times New Roman,serif" font-weight="bold" font-size="9.00">Technical</text>
<text text-anchor="start" x="320.5" y="-350.45" font-family="Times New Roman,serif" font-weight="bold" font-size="9.00">University</text>
<polygon fill="none" stroke="black" points="375.88,-342 375.88,-392 444.62,-392 444.62,-342 375.88,-342"/>
<text text-anchor="start" x="387.38" y="-368.45" font-family="Times New Roman,serif" font-weight="bold" font-size="9.00">Primary (P)</text>
<text text-anchor="start" x="382.88" y="-359.45" font-family="Times New Roman,serif" font-weight="bold" font-size="9.00">Secondary (P)</text>
<polygon fill="none" stroke="black" points="304.62,-341 304.62,-393 445.62,-393 445.62,-341 304.62,-341"/>
</g>
<!-- n_0_1_2_3_4_5_6&#45;&gt;n_0_1_3_4_5_6 -->
<g id="edge1" class="edge">
<title>n_0_1_2_3_4_5_6&#45;&gt;n_0_1_3_4_5_6</title>
<path fill="none" stroke="black" d="M421.69,-440.14C414.62,-429.19 406.89,-417.22 399.8,-406.23"/>
<polygon fill="black" stroke="black" points="402.96,-404.66 394.59,-398.16 397.07,-408.46 402.96,-404.66"/>
</g>
<!-- n_2 -->
<g id="node13" class="node">
<title>n_2</title>
<polygon fill="none" stroke="black" points="492,-354.38 492,-379.62 544.25,-379.62 544.25,-354.38 492,-354.38"/>
<text text-anchor="start" x="499" y="-365.07" font-family="Times New Roman,serif" font-weight="bold" font-size="9.00">Preschool</text>
<polygon fill="none" stroke="black" points="491,-353.38 491,-380.62 545.25,-380.62 545.25,-353.38 491,-353.38"/>
</g>
<!-- n_0_1_2_3_4_5_6&#45;&gt;n_2 -->
<g id="edge12" class="edge">
<title>n_0_1_2_3_4_5_6&#45;&gt;n_2</title>
<path fill="none" stroke="black" d="M470.9,-440.14C480.79,-425.04 491.93,-408.02 500.9,-394.31"/>
<polygon fill="black" stroke="black" points="503.63,-396.53 506.18,-386.25 497.78,-392.7 503.63,-396.53"/>
</g>
<!-- n_1_4_5_6 -->
<g id="node3" class="node">
<title>n_1_4_5_6</title>
<polygon fill="none" stroke="black" points="227.5,-248 227.5,-289 297.75,-289 297.75,-248 227.5,-248"/>
<text text-anchor="start" x="239" y="-274.45" font-family="Times New Roman,serif" font-weight="bold" font-size="9.00">Primary (G)</text>
<text text-anchor="start" x="234.5" y="-265.45" font-family="Times New Roman,serif" font-weight="bold" font-size="9.00">Secondary (G)</text>
<text text-anchor="start" x="242.38" y="-256.45" font-family="Times New Roman,serif" font-weight="bold" font-size="9.00">University</text>
<polygon fill="none" stroke="black" points="297.75,-248 297.75,-289 350.75,-289 350.75,-248 297.75,-248"/>
<text text-anchor="start" x="304.75" y="-266.57" font-family="Times New Roman,serif" font-weight="bold" font-size="9.00">Technical</text>
<polygon fill="none" stroke="black" points="226.5,-247 226.5,-290 351.75,-290 351.75,-247 226.5,-247"/>
</g>
<!-- n_0_1_3_4_5_6&#45;&gt;n_1_4_5_6 -->
<g id="edge2" class="edge">
<title>n_0_1_3_4_5_6&#45;&gt;n_1_4_5_6</title>
<path fill="none" stroke="black" d="M349.32,-337.05C339.54,-326.08 328.35,-313.51 318.28,-302.22"/>
<polygon fill="black" stroke="black" points="321.12,-300.14 311.85,-295 315.89,-304.8 321.12,-300.14"/>
</g>
<!-- n_0_3 -->
<g id="node10" class="node">
<title>n_0_3</title>
<polygon fill="none" stroke="black" points="397.88,-255.88 397.88,-281.12 457.62,-281.12 457.62,-255.88 397.88,-255.88"/>
<text text-anchor="start" x="404.88" y="-266.57" font-family="Times New Roman,serif" font-weight="bold" font-size="9.00">Primary (P)</text>
<polygon fill="none" stroke="black" points="457.62,-255.88 457.62,-281.12 526.38,-281.12 526.38,-255.88 457.62,-255.88"/>
<text text-anchor="start" x="464.62" y="-266.57" font-family="Times New Roman,serif" font-weight="bold" font-size="9.00">Secondary (P)</text>
<polygon fill="none" stroke="black" points="396.88,-254.88 396.88,-282.12 527.38,-282.12 527.38,-254.88 396.88,-254.88"/>
</g>
<!-- n_0_1_3_4_5_6&#45;&gt;n_0_3 -->
<g id="edge9" class="edge">
<title>n_0_1_3_4_5_6&#45;&gt;n_0_3</title>
<path fill="none" stroke="black" d="M401.23,-337.05C413.35,-323.6 427.62,-307.77 439.3,-294.81"/>
<polygon fill="black" stroke="black" points="441.81,-297.26 445.91,-287.49 436.61,-292.57 441.81,-297.26"/>
</g>
<!-- n_1_4_6 -->
<g id="node4" class="node">
<title>n_1_4_6</title>
<polygon fill="none" stroke="black" points="102.38,-163 102.38,-195 172.62,-195 172.62,-163 102.38,-163"/>
<text text-anchor="start" x="109.38" y="-180.45" font-family="Times New Roman,serif" font-weight="bold" font-size="9.00">Secondary (G)</text>
<text text-anchor="start" x="117.25" y="-171.45" font-family="Times New Roman,serif" font-weight="bold" font-size="9.00">University</text>
<polygon fill="none" stroke="black" points="172.62,-163 172.62,-195 233.88,-195 233.88,-163 172.62,-163"/>
<text text-anchor="start" x="179.62" y="-177.07" font-family="Times New Roman,serif" font-weight="bold" font-size="9.00">Primary (G)</text>
<polygon fill="none" stroke="black" points="101.38,-162 101.38,-196 234.88,-196 234.88,-162 101.38,-162"/>
</g>
<!-- n_1_4_5_6&#45;&gt;n_1_4_6 -->
<g id="edge3" class="edge">
<title>n_1_4_5_6&#45;&gt;n_1_4_6</title>
<path fill="none" stroke="black" d="M255.42,-243.13C239.64,-231.71 220.81,-218.1 204.68,-206.43"/>
<polygon fill="black" stroke="black" points="206.92,-203.74 196.77,-200.71 202.82,-209.41 206.92,-203.74"/>
</g>
<!-- n_5 -->
<g id="node9" class="node">
<title>n_5</title>
<polygon fill="none" stroke="black" points="280.62,-166.38 280.62,-191.62 333.62,-191.62 333.62,-166.38 280.62,-166.38"/>
<text text-anchor="start" x="287.62" y="-177.07" font-family="Times New Roman,serif" font-weight="bold" font-size="9.00">Technical</text>
<polygon fill="none" stroke="black" points="279.62,-165.38 279.62,-192.62 334.62,-192.62 334.62,-165.38 279.62,-165.38"/>
</g>
<!-- n_1_4_5_6&#45;&gt;n_5 -->
<g id="edge8" class="edge">
<title>n_1_4_5_6&#45;&gt;n_5</title>
<path fill="none" stroke="black" d="M294.14,-243.13C296.39,-232.17 299.07,-219.18 301.4,-207.84"/>
<polygon fill="black" stroke="black" points="304.78,-208.75 303.37,-198.25 297.93,-207.34 304.78,-208.75"/>
</g>
<!-- n_4_6 -->
<g id="node5" class="node">
<title>n_4_6</title>
<polygon fill="none" stroke="black" points="35.75,-84.38 35.75,-109.62 106,-109.62 106,-84.38 35.75,-84.38"/>
<text text-anchor="start" x="42.75" y="-95.08" font-family="Times New Roman,serif" font-weight="bold" font-size="9.00">Secondary (G)</text>
<polygon fill="none" stroke="black" points="106,-84.38 106,-109.62 160.5,-109.62 160.5,-84.38 106,-84.38"/>
<text text-anchor="start" x="113" y="-95.08" font-family="Times New Roman,serif" font-weight="bold" font-size="9.00">University</text>
<polygon fill="none" stroke="black" points="34.75,-83.38 34.75,-110.62 161.5,-110.62 161.5,-83.38 34.75,-83.38"/>
</g>
<!-- n_1_4_6&#45;&gt;n_4_6 -->
<g id="edge4" class="edge">
<title>n_1_4_6&#45;&gt;n_4_6</title>
<path fill="none" stroke="black" d="M150.82,-158.22C141.62,-147.71 130.21,-134.66 120.36,-123.41"/>
<polygon fill="black" stroke="black" points="123.08,-121.2 113.86,-115.98 117.81,-125.81 123.08,-121.2"/>
</g>
<!-- n_1 -->
<g id="node8" class="node">
<title>n_1</title>
<polygon fill="none" stroke="black" points="207.5,-84.38 207.5,-109.62 268.75,-109.62 268.75,-84.38 207.5,-84.38"/>
<text text-anchor="start" x="214.5" y="-95.08" font-family="Times New Roman,serif" font-weight="bold" font-size="9.00">Primary (G)</text>
<polygon fill="none" stroke="black" points="206.5,-83.38 206.5,-110.62 269.75,-110.62 269.75,-83.38 206.5,-83.38"/>
</g>
<!-- n_1_4_6&#45;&gt;n_1 -->
<g id="edge7" class="edge">
<title>n_1_4_6&#45;&gt;n_1</title>
<path fill="none" stroke="black" d="M185.43,-158.22C194.63,-147.71 206.04,-134.66 215.89,-123.41"/>
<polygon fill="black" stroke="black" points="218.44,-125.81 222.39,-115.98 213.17,-121.2 218.44,-125.81"/>
</g>
<!-- n_4 -->
<g id="node6" class="node">
<title>n_4</title>
<polygon fill="none" stroke="black" points="9,-5.38 9,-30.62 79.25,-30.62 79.25,-5.38 9,-5.38"/>
<text text-anchor="start" x="16" y="-16.07" font-family="Times New Roman,serif" font-weight="bold" font-size="9.00">Secondary (G)</text>
<polygon fill="none" stroke="black" points="8,-4.38 8,-31.62 80.25,-31.62 80.25,-4.38 8,-4.38"/>
</g>
<!-- n_4_6&#45;&gt;n_4 -->
<g id="edge5" class="edge">
<title>n_4_6&#45;&gt;n_4</title>
<path fill="none" stroke="black" d="M86.41,-79.29C79.45,-69.37 70.47,-56.57 62.58,-45.32"/>
<polygon fill="black" stroke="black" points="65.48,-43.36 56.87,-37.18 59.75,-47.38 65.48,-43.36"/>
</g>
<!-- n_6 -->
<g id="node7" class="node">
<title>n_6</title>
<polygon fill="none" stroke="black" points="125.88,-5.38 125.88,-30.62 180.38,-30.62 180.38,-5.38 125.88,-5.38"/>
<text text-anchor="start" x="132.88" y="-16.07" font-family="Times New Roman,serif" font-weight="bold" font-size="9.00">University</text>
<polygon fill="none" stroke="black" points="124.88,-4.38 124.88,-31.62 181.38,-31.62 181.38,-4.38 124.88,-4.38"/>
</g>
<!-- n_4_6&#45;&gt;n_6 -->
<g id="edge6" class="edge">
<title>n_4_6&#45;&gt;n_6</title>
<path fill="none" stroke="black" d="M110.06,-79.29C117.22,-69.27 126.47,-56.31 134.57,-44.98"/>
<polygon fill="black" stroke="black" points="137.18,-47.34 140.14,-37.17 131.48,-43.28 137.18,-47.34"/>
</g>
<!-- n_0 -->
<g id="node11" class="node">
<title>n_0</title>
<polygon fill="none" stroke="black" points="415.25,-166.38 415.25,-191.62 475,-191.62 475,-166.38 415.25,-166.38"/>
<text text-anchor="start" x="422.25" y="-177.07" font-family="Times New Roman,serif" font-weight="bold" font-size="9.00">Primary (P)</text>
<polygon fill="none" stroke="black" points="414.25,-165.38 414.25,-192.62 476,-192.62 476,-165.38 414.25,-165.38"/>
</g>
<!-- n_0_3&#45;&gt;n_0 -->
<g id="edge10" class="edge">
<title>n_0_3&#45;&gt;n_0</title>
<path fill="none" stroke="black" d="M458.85,-250.63C456.5,-238.52 453.27,-221.94 450.54,-207.88"/>
<polygon fill="black" stroke="black" points="454.02,-207.45 448.68,-198.3 447.15,-208.79 454.02,-207.45"/>
</g>
<!-- n_3 -->
<g id="node12" class="node">
<title>n_3</title>
<polygon fill="none" stroke="black" points="521.75,-166.38 521.75,-191.62 590.5,-191.62 590.5,-166.38 521.75,-166.38"/>
<text text-anchor="start" x="528.75" y="-177.07" font-family="Times New Roman,serif" font-weight="bold" font-size="9.00">Secondary (P)</text>
<polygon fill="none" stroke="black" points="520.75,-165.38 520.75,-192.62 591.5,-192.62 591.5,-165.38 520.75,-165.38"/>
</g>
<!-- n_0_3&#45;&gt;n_3 -->
<g id="edge11" class="edge">
<title>n_0_3&#45;&gt;n_3</title>
<path fill="none" stroke="black" d="M480.25,-250.63C494.29,-237.56 513.95,-219.25 529.74,-204.56"/>
<polygon fill="black" stroke="black" points="532.01,-207.23 536.95,-197.85 527.24,-202.1 532.01,-207.23"/>
</g>
</g>
</svg>
