<?xml version="1.0" encoding="UTF-8" standalone="no"?>
<!DOCTYPE svg PUBLIC "-//W3C//DTD SVG 1.1//EN"
 "http://www.w3.org/Graphics/SVG/1.1/DTD/svg11.dtd">
<!-- Generated by graphviz version 10.0.1 (20240210.2158)
 -->
<!-- Title: ND Pages: 1 -->
<svg width="594pt" height="432pt"
 viewBox="0.00 0.00 594.12 432.00" xmlns="http://www.w3.org/2000/svg" xmlns:xlink="http://www.w3.org/1999/xlink">
<g id="graph0" class="graph" transform="scale(1 1) rotate(0) translate(4 428)">
<title>ND</title>
<polygon fill="white" stroke="none" points="-4,4 -4,-428 590.12,-428 590.12,4 -4,4"/>
<!-- n_0_1_2_3_4_5_6 -->
<g id="node1" class="node">
<title>n_0_1_2_3_4_5_6</title>
<polygon fill="none" stroke="black" points="377.38,-351 377.38,-419 446.12,-419 446.12,-351 377.38,-351"/>
<text text-anchor="start" x="388.88" y="-404.45" font-family="Times New Roman,serif" font-weight="bold" font-size="9.00">Primary (P)</text>
<text text-anchor="start" x="388.12" y="-395.45" font-family="Times New Roman,serif" font-weight="bold" font-size="9.00">Primary (G)</text>
<text text-anchor="start" x="392.62" y="-386.45" font-family="Times New Roman,serif" font-weight="bold" font-size="9.00">Preschool</text>
<text text-anchor="start" x="384.38" y="-377.45" font-family="Times New Roman,serif" font-weight="bold" font-size="9.00">Secondary (P)</text>
<text text-anchor="start" x="392.25" y="-368.45" font-family="Times New Roman,serif" font-weight="bold" font-size="9.00">Technical</text>
<text text-anchor="start" x="391.5" y="-359.45" font-family="Times New Roman,serif" font-weight="bold" font-size="9.00">University</text>
<polygon fill="none" stroke="black" points="446.12,-351 446.12,-419 516.38,-419 516.38,-351 446.12,-351"/>
<text text-anchor="start" x="453.12" y="-383.07" font-family="Times New Roman,serif" font-weight="bold" font-size="9.00">Secondary (G)</text>
<polygon fill="none" stroke="black" points="376.38,-350 376.38,-420 517.38,-420 517.38,-350 376.38,-350"/>
</g>
<!-- n_0_1_2_3_5_6 -->
<g id="node2" class="node">
<title>n_0_1_2_3_5_6</title>
<polygon fill="none" stroke="black" points="313.25,-248 313.25,-298 382,-298 382,-248 313.25,-248"/>
<text text-anchor="start" x="324.75" y="-283.45" font-family="Times New Roman,serif" font-weight="bold" font-size="9.00">Primary (P)</text>
<text text-anchor="start" x="324" y="-274.45" font-family="Times New Roman,serif" font-weight="bold" font-size="9.00">Primary (G)</text>
<text text-anchor="start" x="320.25" y="-265.45" font-family="Times New Roman,serif" font-weight="bold" font-size="9.00">Secondary (P)</text>
<text text-anchor="start" x="328.12" y="-256.45" font-family="Times New Roman,serif" font-weight="bold" font-size="9.00">Technical</text>
<polygon fill="none" stroke="black" points="382,-248 382,-298 436.5,-298 436.5,-248 382,-248"/>
<text text-anchor="start" x="390.12" y="-274.45" font-family="Times New Roman,serif" font-weight="bold" font-size="9.00">Preschool</text>
<text text-anchor="start" x="389" y="-265.45" font-family="Times New Roman,serif" font-weight="bold" font-size="9.00">University</text>
<polygon fill="none" stroke="black" points="312.25,-247 312.25,-299 437.5,-299 437.5,-247 312.25,-247"/>
</g>
<!-- n_0_1_2_3_4_5_6&#45;&gt;n_0_1_2_3_5_6 -->
<g id="edge1" class="edge">
<title>n_0_1_2_3_4_5_6&#45;&gt;n_0_1_2_3_5_6</title>
<path fill="none" stroke="black" d="M422.1,-346.14C414.92,-335.19 407.09,-323.22 399.9,-312.23"/>
<polygon fill="black" stroke="black" points="403.02,-310.6 394.61,-304.15 397.16,-314.44 403.02,-310.6"/>
</g>
<!-- n_4 -->
<g id="node13" class="node">
<title>n_4</title>
<polygon fill="none" stroke="black" points="483.75,-260.38 483.75,-285.62 554,-285.62 554,-260.38 483.75,-260.38"/>
<text text-anchor="start" x="490.75" y="-271.07" font-family="Times New Roman,serif" font-weight="bold" font-size="9.00">Secondary (G)</text>
<polygon fill="none" stroke="black" points="482.75,-259.38 482.75,-286.62 555,-286.62 555,-259.38 482.75,-259.38"/>
</g>
<!-- n_0_1_2_3_4_5_6&#45;&gt;n_4 -->
<g id="edge12" class="edge">
<title>n_0_1_2_3_4_5_6&#45;&gt;n_4</title>
<path fill="none" stroke="black" d="M471.65,-346.14C481.54,-331.04 492.68,-314.02 501.65,-300.31"/>
<polygon fill="black" stroke="black" points="504.38,-302.53 506.93,-292.25 498.53,-298.7 504.38,-302.53"/>
</g>
<!-- n_0_1_3_5 -->
<g id="node3" class="node">
<title>n_0_1_3_5</title>
<polygon fill="none" stroke="black" points="227.88,-163 227.88,-195 289.12,-195 289.12,-163 227.88,-163"/>
<text text-anchor="start" x="235.62" y="-180.45" font-family="Times New Roman,serif" font-weight="bold" font-size="9.00">Primary (P)</text>
<text text-anchor="start" x="234.88" y="-171.45" font-family="Times New Roman,serif" font-weight="bold" font-size="9.00">Primary (G)</text>
<polygon fill="none" stroke="black" points="289.12,-163 289.12,-195 357.88,-195 357.88,-163 289.12,-163"/>
<text text-anchor="start" x="296.12" y="-180.45" font-family="Times New Roman,serif" font-weight="bold" font-size="9.00">Secondary (P)</text>
<text text-anchor="start" x="304" y="-171.45" font-family="Times New Roman,serif" font-weight="bold" font-size="9.00">Technical</text>
<polygon fill="none" stroke="black" points="226.88,-162 226.88,-196 358.88,-196 358.88,-162 226.88,-162"/>
</g>
<!-- n_0_1_2_3_5_6&#45;&gt;n_0_1_3_5 -->
<g id="edge2" class="edge">
<title>n_0_1_2_3_5_6&#45;&gt;n_0_1_3_5</title>
<path fill="none" stroke="black" d="M349.15,-243.14C339.22,-232 327.89,-219.29 318.02,-208.21"/>
<polygon fill="black" stroke="black" points="320.73,-206 311.47,-200.86 315.51,-210.65 320.73,-206"/>
</g>
<!-- n_2_6 -->
<g id="node10" class="node">
<title>n_2_6</title>
<polygon fill="none" stroke="black" points="404.5,-166.38 404.5,-191.62 456.75,-191.62 456.75,-166.38 404.5,-166.38"/>
<text text-anchor="start" x="411.5" y="-177.07" font-family="Times New Roman,serif" font-weight="bold" font-size="9.00">Preschool</text>
<polygon fill="none" stroke="black" points="456.75,-166.38 456.75,-191.62 511.25,-191.62 511.25,-166.38 456.75,-166.38"/>
<text text-anchor="start" x="463.75" y="-177.07" font-family="Times New Roman,serif" font-weight="bold" font-size="9.00">University</text>
<polygon fill="none" stroke="black" points="403.5,-165.38 403.5,-192.62 512.25,-192.62 512.25,-165.38 403.5,-165.38"/>
</g>
<!-- n_0_1_2_3_5_6&#45;&gt;n_2_6 -->
<g id="edge9" class="edge">
<title>n_0_1_2_3_5_6&#45;&gt;n_2_6</title>
<path fill="none" stroke="black" d="M400.91,-243.14C411.82,-231.05 424.39,-217.11 434.95,-205.41"/>
<polygon fill="black" stroke="black" points="437.45,-207.86 441.55,-198.09 432.26,-203.17 437.45,-207.86"/>
</g>
<!-- n_0_1 -->
<g id="node4" class="node">
<title>n_0_1</title>
<polygon fill="none" stroke="black" points="72.38,-84.38 72.38,-109.62 132.12,-109.62 132.12,-84.38 72.38,-84.38"/>
<text text-anchor="start" x="79.38" y="-95.08" font-family="Times New Roman,serif" font-weight="bold" font-size="9.00">Primary (P)</text>
<polygon fill="none" stroke="black" points="132.12,-84.38 132.12,-109.62 193.38,-109.62 193.38,-84.38 132.12,-84.38"/>
<text text-anchor="start" x="139.12" y="-95.08" font-family="Times New Roman,serif" font-weight="bold" font-size="9.00">Primary (G)</text>
<polygon fill="none" stroke="black" points="71.38,-83.38 71.38,-110.62 194.38,-110.62 194.38,-83.38 71.38,-83.38"/>
</g>
<!-- n_0_1_3_5&#45;&gt;n_0_1 -->
<g id="edge3" class="edge">
<title>n_0_1_3_5&#45;&gt;n_0_1</title>
<path fill="none" stroke="black" d="M252.91,-158.02C229.77,-146.45 200.61,-131.87 176.82,-119.97"/>
<polygon fill="black" stroke="black" points="178.52,-116.91 168.01,-115.57 175.39,-123.17 178.52,-116.91"/>
</g>
<!-- n_3_5 -->
<g id="node7" class="node">
<title>n_3_5</title>
<polygon fill="none" stroke="black" points="240,-84.38 240,-109.62 308.75,-109.62 308.75,-84.38 240,-84.38"/>
<text text-anchor="start" x="247" y="-95.08" font-family="Times New Roman,serif" font-weight="bold" font-size="9.00">Secondary (P)</text>
<polygon fill="none" stroke="black" points="308.75,-84.38 308.75,-109.62 361.75,-109.62 361.75,-84.38 308.75,-84.38"/>
<text text-anchor="start" x="315.75" y="-95.08" font-family="Times New Roman,serif" font-weight="bold" font-size="9.00">Technical</text>
<polygon fill="none" stroke="black" points="239,-83.38 239,-110.62 362.75,-110.62 362.75,-83.38 239,-83.38"/>
</g>
<!-- n_0_1_3_5&#45;&gt;n_3_5 -->
<g id="edge6" class="edge">
<title>n_0_1_3_5&#45;&gt;n_3_5</title>
<path fill="none" stroke="black" d="M294.85,-158.22C295.82,-148.54 297,-136.72 298.06,-126.11"/>
<polygon fill="black" stroke="black" points="301.53,-126.65 299.04,-116.35 294.56,-125.95 301.53,-126.65"/>
</g>
<!-- n_0 -->
<g id="node5" class="node">
<title>n_0</title>
<polygon fill="none" stroke="black" points="9,-5.38 9,-30.62 68.75,-30.62 68.75,-5.38 9,-5.38"/>
<text text-anchor="start" x="16" y="-16.07" font-family="Times New Roman,serif" font-weight="bold" font-size="9.00">Primary (P)</text>
<polygon fill="none" stroke="black" points="8,-4.38 8,-31.62 69.75,-31.62 69.75,-4.38 8,-4.38"/>
</g>
<!-- n_0_1&#45;&gt;n_0 -->
<g id="edge4" class="edge">
<title>n_0_1&#45;&gt;n_0</title>
<path fill="none" stroke="black" d="M112.48,-79.29C99.51,-68.67 82.51,-54.75 68.12,-42.96"/>
<polygon fill="black" stroke="black" points="70.68,-40.53 60.73,-36.9 66.25,-45.94 70.68,-40.53"/>
</g>
<!-- n_1 -->
<g id="node6" class="node">
<title>n_1</title>
<polygon fill="none" stroke="black" points="116.25,-5.38 116.25,-30.62 177.5,-30.62 177.5,-5.38 116.25,-5.38"/>
<text text-anchor="start" x="123.25" y="-16.07" font-family="Times New Roman,serif" font-weight="bold" font-size="9.00">Primary (G)</text>
<polygon fill="none" stroke="black" points="115.25,-4.38 115.25,-31.62 178.5,-31.62 178.5,-4.38 115.25,-4.38"/>
</g>
<!-- n_0_1&#45;&gt;n_1 -->
<g id="edge5" class="edge">
<title>n_0_1&#45;&gt;n_1</title>
<path fill="none" stroke="black" d="M135.91,-79.29C137.63,-69.87 139.81,-57.86 141.78,-47.04"/>
<polygon fill="black" stroke="black" points="145.18,-47.9 143.52,-37.43 138.29,-46.64 145.18,-47.9"/>
</g>
<!-- n_3 -->
<g id="node8" class="node">
<title>n_3</title>
<polygon fill="none" stroke="black" points="252.5,-5.38 252.5,-30.62 321.25,-30.62 321.25,-5.38 252.5,-5.38"/>
<text text-anchor="start" x="259.5" y="-16.07" font-family="Times New Roman,serif" font-weight="bold" font-size="9.00">Secondary (P)</text>
<polygon fill="none" stroke="black" points="251.5,-4.38 251.5,-31.62 322.25,-31.62 322.25,-4.38 251.5,-4.38"/>
</g>
<!-- n_3_5&#45;&gt;n_3 -->
<g id="edge7" class="edge">
<title>n_3_5&#45;&gt;n_3</title>
<path fill="none" stroke="black" d="M297.84,-79.29C296.12,-69.87 293.94,-57.86 291.97,-47.04"/>
<polygon fill="black" stroke="black" points="295.46,-46.64 290.23,-37.43 288.57,-47.9 295.46,-46.64"/>
</g>
<!-- n_5 -->
<g id="node9" class="node">
<title>n_5</title>
<polygon fill="none" stroke="black" points="368.38,-5.38 368.38,-30.62 421.38,-30.62 421.38,-5.38 368.38,-5.38"/>
<text text-anchor="start" x="375.38" y="-16.07" font-family="Times New Roman,serif" font-weight="bold" font-size="9.00">Technical</text>
<polygon fill="none" stroke="black" points="367.38,-4.38 367.38,-31.62 422.38,-31.62 422.38,-4.38 367.38,-4.38"/>
</g>
<!-- n_3_5&#45;&gt;n_5 -->
<g id="edge8" class="edge">
<title>n_3_5&#45;&gt;n_5</title>
<path fill="none" stroke="black" d="M321.27,-79.29C334.24,-68.67 351.24,-54.75 365.63,-42.96"/>
<polygon fill="black" stroke="black" points="367.5,-45.94 373.02,-36.9 363.07,-40.53 367.5,-45.94"/>
</g>
<!-- n_2 -->
<g id="node11" class="node">
<title>n_2</title>
<polygon fill="none" stroke="black" points="423.75,-84.38 423.75,-109.62 476,-109.62 476,-84.38 423.75,-84.38"/>
<text text-anchor="start" x="430.75" y="-95.08" font-family="Times New Roman,serif" font-weight="bold" font-size="9.00">Preschool</text>
<polygon fill="none" stroke="black" points="422.75,-83.38 422.75,-110.62 477,-110.62 477,-83.38 422.75,-83.38"/>
</g>
<!-- n_2_6&#45;&gt;n_2 -->
<g id="edge10" class="edge">
<title>n_2_6&#45;&gt;n_2</title>
<path fill="none" stroke="black" d="M456.18,-161.03C455.17,-150.96 453.87,-137.92 452.71,-126.32"/>
<polygon fill="black" stroke="black" points="456.2,-126.05 451.72,-116.45 449.23,-126.75 456.2,-126.05"/>
</g>
<!-- n_6 -->
<g id="node12" class="node">
<title>n_6</title>
<polygon fill="none" stroke="black" points="522.62,-84.38 522.62,-109.62 577.12,-109.62 577.12,-84.38 522.62,-84.38"/>
<text text-anchor="start" x="529.62" y="-95.08" font-family="Times New Roman,serif" font-weight="bold" font-size="9.00">University</text>
<polygon fill="none" stroke="black" points="521.62,-83.38 521.62,-110.62 578.12,-110.62 578.12,-83.38 521.62,-83.38"/>
</g>
<!-- n_2_6&#45;&gt;n_6 -->
<g id="edge11" class="edge">
<title>n_2_6&#45;&gt;n_6</title>
<path fill="none" stroke="black" d="M477.39,-161.03C490.32,-149.79 507.48,-134.87 521.86,-122.36"/>
<polygon fill="black" stroke="black" points="524,-125.14 529.25,-115.93 519.41,-119.86 524,-125.14"/>
</g>
</g>
</svg>
