<?xml version="1.0" encoding="UTF-8" standalone="no"?>
<!DOCTYPE svg PUBLIC "-//W3C//DTD SVG 1.1//EN"
 "http://www.w3.org/Graphics/SVG/1.1/DTD/svg11.dtd">
<!-- Generated by graphviz version 10.0.1 (20240210.2158)
 -->
<!-- Title: ND Pages: 1 -->
<svg width="554pt" height="638pt"
 viewBox="0.00 0.00 553.62 638.00" xmlns="http://www.w3.org/2000/svg" xmlns:xlink="http://www.w3.org/1999/xlink">
<g id="graph0" class="graph" transform="scale(1 1) rotate(0) translate(4 634)">
<title>ND</title>
<polygon fill="white" stroke="none" points="-4,4 -4,-634 549.62,-634 549.62,4 -4,4"/>
<!-- n_0_1_2_3_4_5_6 -->
<g id="node1" class="node">
<title>n_0_1_2_3_4_5_6</title>
<polygon fill="none" stroke="black" points="380.5,-557 380.5,-625 450.75,-625 450.75,-557 380.5,-557"/>
<text text-anchor="start" x="392.75" y="-610.45" font-family="Times New Roman,serif" font-weight="bold" font-size="9.00">Primary (P)</text>
<text text-anchor="start" x="392" y="-601.45" font-family="Times New Roman,serif" font-weight="bold" font-size="9.00">Primary (G)</text>
<text text-anchor="start" x="396.5" y="-592.45" font-family="Times New Roman,serif" font-weight="bold" font-size="9.00">Preschool</text>
<text text-anchor="start" x="388.25" y="-583.45" font-family="Times New Roman,serif" font-weight="bold" font-size="9.00">Secondary (P)</text>
<text text-anchor="start" x="387.5" y="-574.45" font-family="Times New Roman,serif" font-weight="bold" font-size="9.00">Secondary (G)</text>
<text text-anchor="start" x="395.38" y="-565.45" font-family="Times New Roman,serif" font-weight="bold" font-size="9.00">University</text>
<polygon fill="none" stroke="black" points="450.75,-557 450.75,-625 503.75,-625 503.75,-557 450.75,-557"/>
<text text-anchor="start" x="457.75" y="-589.08" font-family="Times New Roman,serif" font-weight="bold" font-size="9.00">Technical</text>
<polygon fill="none" stroke="black" points="379.5,-556 379.5,-626 504.75,-626 504.75,-556 379.5,-556"/>
</g>
<!-- n_0_1_2_3_4_6 -->
<g id="node2" class="node">
<title>n_0_1_2_3_4_6</title>
<polygon fill="none" stroke="black" points="311.75,-445 311.75,-504 382,-504 382,-445 311.75,-445"/>
<text text-anchor="start" x="324" y="-489.45" font-family="Times New Roman,serif" font-weight="bold" font-size="9.00">Primary (P)</text>
<text text-anchor="start" x="323.25" y="-480.45" font-family="Times New Roman,serif" font-weight="bold" font-size="9.00">Primary (G)</text>
<text text-anchor="start" x="327.75" y="-471.45" font-family="Times New Roman,serif" font-weight="bold" font-size="9.00">Preschool</text>
<text text-anchor="start" x="319.5" y="-462.45" font-family="Times New Roman,serif" font-weight="bold" font-size="9.00">Secondary (P)</text>
<text text-anchor="start" x="318.75" y="-453.45" font-family="Times New Roman,serif" font-weight="bold" font-size="9.00">Secondary (G)</text>
<polygon fill="none" stroke="black" points="382,-445 382,-504 436.5,-504 436.5,-445 382,-445"/>
<text text-anchor="start" x="389" y="-472.57" font-family="Times New Roman,serif" font-weight="bold" font-size="9.00">University</text>
<polygon fill="none" stroke="black" points="310.75,-444 310.75,-505 437.5,-505 437.5,-444 310.75,-444"/>
</g>
<!-- n_0_1_2_3_4_5_6&#45;&gt;n_0_1_2_3_4_6 -->
<g id="edge1" class="edge">
<title>n_0_1_2_3_4_5_6&#45;&gt;n_0_1_2_3_4_6</title>
<path fill="none" stroke="black" d="M419.67,-552.19C413.27,-541.42 406.26,-529.6 399.69,-518.54"/>
<polygon fill="black" stroke="black" points="402.7,-516.76 394.59,-509.95 396.68,-520.34 402.7,-516.76"/>
</g>
<!-- n_5 -->
<g id="node13" class="node">
<title>n_5</title>
<polygon fill="none" stroke="black" points="483.62,-461.88 483.62,-487.12 536.62,-487.12 536.62,-461.88 483.62,-461.88"/>
<text text-anchor="start" x="490.62" y="-472.57" font-family="Times New Roman,serif" font-weight="bold" font-size="9.00">Technical</text>
<polygon fill="none" stroke="black" points="482.62,-460.88 482.62,-488.12 537.62,-488.12 537.62,-460.88 482.62,-460.88"/>
</g>
<!-- n_0_1_2_3_4_5_6&#45;&gt;n_5 -->
<g id="edge12" class="edge">
<title>n_0_1_2_3_4_5_6&#45;&gt;n_5</title>
<path fill="none" stroke="black" d="M464.58,-552.19C474.32,-535.78 485.5,-516.96 494.35,-502.07"/>
<polygon fill="black" stroke="black" points="497.18,-504.15 499.28,-493.76 491.16,-500.58 497.18,-504.15"/>
</g>
<!-- n_0_1_2_3_4 -->
<g id="node3" class="node">
<title>n_0_1_2_3_4</title>
<polygon fill="none" stroke="black" points="238.38,-342 238.38,-392 308.62,-392 308.62,-342 238.38,-342"/>
<text text-anchor="start" x="250.62" y="-377.45" font-family="Times New Roman,serif" font-weight="bold" font-size="9.00">Primary (P)</text>
<text text-anchor="start" x="254.38" y="-368.45" font-family="Times New Roman,serif" font-weight="bold" font-size="9.00">Preschool</text>
<text text-anchor="start" x="246.12" y="-359.45" font-family="Times New Roman,serif" font-weight="bold" font-size="9.00">Secondary (P)</text>
<text text-anchor="start" x="245.38" y="-350.45" font-family="Times New Roman,serif" font-weight="bold" font-size="9.00">Secondary (G)</text>
<polygon fill="none" stroke="black" points="308.62,-342 308.62,-392 369.88,-392 369.88,-342 308.62,-342"/>
<text text-anchor="start" x="315.62" y="-365.07" font-family="Times New Roman,serif" font-weight="bold" font-size="9.00">Primary (G)</text>
<polygon fill="none" stroke="black" points="237.38,-341 237.38,-393 370.88,-393 370.88,-341 237.38,-341"/>
</g>
<!-- n_0_1_2_3_4_6&#45;&gt;n_0_1_2_3_4 -->
<g id="edge2" class="edge">
<title>n_0_1_2_3_4_6&#45;&gt;n_0_1_2_3_4</title>
<path fill="none" stroke="black" d="M351.98,-440.12C344.85,-429.38 336.9,-417.4 329.56,-406.33"/>
<polygon fill="black" stroke="black" points="332.58,-404.56 324.14,-398.16 326.75,-408.43 332.58,-404.56"/>
</g>
<!-- n_6 -->
<g id="node12" class="node">
<title>n_6</title>
<polygon fill="none" stroke="black" points="416.88,-354.38 416.88,-379.62 471.38,-379.62 471.38,-354.38 416.88,-354.38"/>
<text text-anchor="start" x="423.88" y="-365.07" font-family="Times New Roman,serif" font-weight="bold" font-size="9.00">University</text>
<polygon fill="none" stroke="black" points="415.88,-353.38 415.88,-380.62 472.38,-380.62 472.38,-353.38 415.88,-353.38"/>
</g>
<!-- n_0_1_2_3_4_6&#45;&gt;n_6 -->
<g id="edge11" class="edge">
<title>n_0_1_2_3_4_6&#45;&gt;n_6</title>
<path fill="none" stroke="black" d="M396.27,-440.12C406.07,-425.35 417.43,-408.23 426.62,-394.38"/>
<polygon fill="black" stroke="black" points="429.43,-396.48 432.04,-386.21 423.6,-392.61 429.43,-396.48"/>
</g>
<!-- n_0_2_3_4 -->
<g id="node4" class="node">
<title>n_0_2_3_4</title>
<polygon fill="none" stroke="black" points="161.62,-248 161.62,-289 231.88,-289 231.88,-248 161.62,-248"/>
<text text-anchor="start" x="173.88" y="-274.45" font-family="Times New Roman,serif" font-weight="bold" font-size="9.00">Primary (P)</text>
<text text-anchor="start" x="177.62" y="-265.45" font-family="Times New Roman,serif" font-weight="bold" font-size="9.00">Preschool</text>
<text text-anchor="start" x="168.62" y="-256.45" font-family="Times New Roman,serif" font-weight="bold" font-size="9.00">Secondary (G)</text>
<polygon fill="none" stroke="black" points="231.88,-248 231.88,-289 300.62,-289 300.62,-248 231.88,-248"/>
<text text-anchor="start" x="238.88" y="-266.57" font-family="Times New Roman,serif" font-weight="bold" font-size="9.00">Secondary (P)</text>
<polygon fill="none" stroke="black" points="160.62,-247 160.62,-290 301.62,-290 301.62,-247 160.62,-247"/>
</g>
<!-- n_0_1_2_3_4&#45;&gt;n_0_2_3_4 -->
<g id="edge3" class="edge">
<title>n_0_1_2_3_4&#45;&gt;n_0_2_3_4</title>
<path fill="none" stroke="black" d="M282.22,-337.05C274.09,-326.29 264.79,-314 256.38,-302.88"/>
<polygon fill="black" stroke="black" points="259.3,-300.95 250.48,-295.08 253.72,-305.17 259.3,-300.95"/>
</g>
<!-- n_1 -->
<g id="node11" class="node">
<title>n_1</title>
<polygon fill="none" stroke="black" points="347.5,-255.88 347.5,-281.12 408.75,-281.12 408.75,-255.88 347.5,-255.88"/>
<text text-anchor="start" x="354.5" y="-266.57" font-family="Times New Roman,serif" font-weight="bold" font-size="9.00">Primary (G)</text>
<polygon fill="none" stroke="black" points="346.5,-254.88 346.5,-282.12 409.75,-282.12 409.75,-254.88 346.5,-254.88"/>
</g>
<!-- n_0_1_2_3_4&#45;&gt;n_1 -->
<g id="edge10" class="edge">
<title>n_0_1_2_3_4&#45;&gt;n_1</title>
<path fill="none" stroke="black" d="M326.33,-337.05C336.54,-323.73 348.54,-308.07 358.43,-295.19"/>
<polygon fill="black" stroke="black" points="360.96,-297.63 364.27,-287.57 355.41,-293.37 360.96,-297.63"/>
</g>
<!-- n_0_2_4 -->
<g id="node5" class="node">
<title>n_0_2_4</title>
<polygon fill="none" stroke="black" points="93.12,-163 93.12,-195 163.38,-195 163.38,-163 93.12,-163"/>
<text text-anchor="start" x="109.12" y="-180.45" font-family="Times New Roman,serif" font-weight="bold" font-size="9.00">Preschool</text>
<text text-anchor="start" x="100.12" y="-171.45" font-family="Times New Roman,serif" font-weight="bold" font-size="9.00">Secondary (G)</text>
<polygon fill="none" stroke="black" points="163.38,-163 163.38,-195 223.12,-195 223.12,-163 163.38,-163"/>
<text text-anchor="start" x="170.38" y="-177.07" font-family="Times New Roman,serif" font-weight="bold" font-size="9.00">Primary (P)</text>
<polygon fill="none" stroke="black" points="92.12,-162 92.12,-196 224.12,-196 224.12,-162 92.12,-162"/>
</g>
<!-- n_0_2_3_4&#45;&gt;n_0_2_4 -->
<g id="edge4" class="edge">
<title>n_0_2_3_4&#45;&gt;n_0_2_4</title>
<path fill="none" stroke="black" d="M210.79,-243.13C201.8,-232.35 191.18,-219.62 181.83,-208.41"/>
<polygon fill="black" stroke="black" points="184.73,-206.42 175.64,-200.99 179.35,-210.91 184.73,-206.42"/>
</g>
<!-- n_3 -->
<g id="node10" class="node">
<title>n_3</title>
<polygon fill="none" stroke="black" points="269.75,-166.38 269.75,-191.62 338.5,-191.62 338.5,-166.38 269.75,-166.38"/>
<text text-anchor="start" x="276.75" y="-177.07" font-family="Times New Roman,serif" font-weight="bold" font-size="9.00">Secondary (P)</text>
<polygon fill="none" stroke="black" points="268.75,-165.38 268.75,-192.62 339.5,-192.62 339.5,-165.38 268.75,-165.38"/>
</g>
<!-- n_0_2_3_4&#45;&gt;n_3 -->
<g id="edge9" class="edge">
<title>n_0_2_3_4&#45;&gt;n_3</title>
<path fill="none" stroke="black" d="M251.46,-243.13C261.28,-231.36 273.05,-217.25 282.97,-205.36"/>
<polygon fill="black" stroke="black" points="285.45,-207.85 289.16,-197.93 280.07,-203.37 285.45,-207.85"/>
</g>
<!-- n_2_4 -->
<g id="node6" class="node">
<title>n_2_4</title>
<polygon fill="none" stroke="black" points="27.88,-84.38 27.88,-109.62 80.12,-109.62 80.12,-84.38 27.88,-84.38"/>
<text text-anchor="start" x="34.88" y="-95.08" font-family="Times New Roman,serif" font-weight="bold" font-size="9.00">Preschool</text>
<polygon fill="none" stroke="black" points="80.12,-84.38 80.12,-109.62 150.38,-109.62 150.38,-84.38 80.12,-84.38"/>
<text text-anchor="start" x="87.12" y="-95.08" font-family="Times New Roman,serif" font-weight="bold" font-size="9.00">Secondary (G)</text>
<polygon fill="none" stroke="black" points="26.88,-83.38 26.88,-110.62 151.38,-110.62 151.38,-83.38 26.88,-83.38"/>
</g>
<!-- n_0_2_4&#45;&gt;n_2_4 -->
<g id="edge5" class="edge">
<title>n_0_2_4&#45;&gt;n_2_4</title>
<path fill="none" stroke="black" d="M141.07,-158.22C132,-147.71 120.75,-134.66 111.04,-123.41"/>
<polygon fill="black" stroke="black" points="113.82,-121.28 104.64,-115.99 108.52,-125.85 113.82,-121.28"/>
</g>
<!-- n_0 -->
<g id="node9" class="node">
<title>n_0</title>
<polygon fill="none" stroke="black" points="197.25,-84.38 197.25,-109.62 257,-109.62 257,-84.38 197.25,-84.38"/>
<text text-anchor="start" x="204.25" y="-95.08" font-family="Times New Roman,serif" font-weight="bold" font-size="9.00">Primary (P)</text>
<polygon fill="none" stroke="black" points="196.25,-83.38 196.25,-110.62 258,-110.62 258,-83.38 196.25,-83.38"/>
</g>
<!-- n_0_2_4&#45;&gt;n_0 -->
<g id="edge8" class="edge">
<title>n_0_2_4&#45;&gt;n_0</title>
<path fill="none" stroke="black" d="M175.18,-158.22C184.25,-147.71 195.5,-134.66 205.21,-123.41"/>
<polygon fill="black" stroke="black" points="207.73,-125.85 211.61,-115.99 202.43,-121.28 207.73,-125.85"/>
</g>
<!-- n_2 -->
<g id="node7" class="node">
<title>n_2</title>
<polygon fill="none" stroke="black" points="9,-5.38 9,-30.62 61.25,-30.62 61.25,-5.38 9,-5.38"/>
<text text-anchor="start" x="16" y="-16.07" font-family="Times New Roman,serif" font-weight="bold" font-size="9.00">Preschool</text>
<polygon fill="none" stroke="black" points="8,-4.38 8,-31.62 62.25,-31.62 62.25,-4.38 8,-4.38"/>
</g>
<!-- n_2_4&#45;&gt;n_2 -->
<g id="edge6" class="edge">
<title>n_2_4&#45;&gt;n_2</title>
<path fill="none" stroke="black" d="M77.41,-79.29C70.45,-69.37 61.47,-56.57 53.58,-45.32"/>
<polygon fill="black" stroke="black" points="56.48,-43.36 47.87,-37.18 50.75,-47.38 56.48,-43.36"/>
</g>
<!-- n_4 -->
<g id="node8" class="node">
<title>n_4</title>
<polygon fill="none" stroke="black" points="108,-5.38 108,-30.62 178.25,-30.62 178.25,-5.38 108,-5.38"/>
<text text-anchor="start" x="115" y="-16.07" font-family="Times New Roman,serif" font-weight="bold" font-size="9.00">Secondary (G)</text>
<polygon fill="none" stroke="black" points="107,-4.38 107,-31.62 179.25,-31.62 179.25,-4.38 107,-4.38"/>
</g>
<!-- n_2_4&#45;&gt;n_4 -->
<g id="edge7" class="edge">
<title>n_2_4&#45;&gt;n_4</title>
<path fill="none" stroke="black" d="M100.84,-79.29C107.8,-69.37 116.78,-56.57 124.67,-45.32"/>
<polygon fill="black" stroke="black" points="127.5,-47.38 130.38,-37.18 121.77,-43.36 127.5,-47.38"/>
</g>
</g>
</svg>
