<?xml version="1.0" encoding="UTF-8" standalone="no"?>
<!DOCTYPE svg PUBLIC "-//W3C//DTD SVG 1.1//EN"
 "http://www.w3.org/Graphics/SVG/1.1/DTD/svg11.dtd">
<!-- Generated by graphviz version 10.0.1 (20240210.2158)
 -->
<!-- Title: ND Pages: 1 -->
<svg width="611pt" height="405pt"
 viewBox="0.00 0.00 610.75 405.00" xmlns="http://www.w3.org/2000/svg" xmlns:xlink="http://www.w3.org/1999/xlink">
<g id="graph0" class="graph" transform="scale(1 1) rotate(0) translate(4 401)">
<title>ND</title>
<polygon fill="white" stroke="none" points="-4,4 -4,-401 606.75,-401 606.75,4 -4,4"/>
<!-- n_0_1_2_3_4_5_6 -->
<g id="node1" class="node">
<title>n_0_1_2_3_4_5_6</title>
<polygon fill="none" stroke="black" points="276.12,-342 276.12,-392 344.88,-392 344.88,-342 276.12,-342"/>
<text text-anchor="start" x="286.88" y="-377.45" font-family="Times New Roman,serif" font-weight="bold" font-size="9.00">Primary (G)</text>
<text text-anchor="start" x="283.12" y="-368.45" font-family="Times New Roman,serif" font-weight="bold" font-size="9.00">Secondary (P)</text>
<text text-anchor="start" x="291" y="-359.45" font-family="Times New Roman,serif" font-weight="bold" font-size="9.00">Technical</text>
<text text-anchor="start" x="290.25" y="-350.45" font-family="Times New Roman,serif" font-weight="bold" font-size="9.00">University</text>
<polygon fill="none" stroke="black" points="344.88,-342 344.88,-392 415.12,-392 415.12,-342 344.88,-342"/>
<text text-anchor="start" x="357.12" y="-372.95" font-family="Times New Roman,serif" font-weight="bold" font-size="9.00">Primary (P)</text>
<text text-anchor="start" x="360.88" y="-363.95" font-family="Times New Roman,serif" font-weight="bold" font-size="9.00">Preschool</text>
<text text-anchor="start" x="351.88" y="-354.95" font-family="Times New Roman,serif" font-weight="bold" font-size="9.00">Secondary (G)</text>
<polygon fill="none" stroke="black" points="275.12,-341 275.12,-393 416.12,-393 416.12,-341 275.12,-341"/>
</g>
<!-- n_1_3_5_6 -->
<g id="node2" class="node">
<title>n_1_3_5_6</title>
<polygon fill="none" stroke="black" points="197,-248 197,-289 265.75,-289 265.75,-248 197,-248"/>
<text text-anchor="start" x="207.75" y="-274.45" font-family="Times New Roman,serif" font-weight="bold" font-size="9.00">Primary (G)</text>
<text text-anchor="start" x="204" y="-265.45" font-family="Times New Roman,serif" font-weight="bold" font-size="9.00">Secondary (P)</text>
<text text-anchor="start" x="211.88" y="-256.45" font-family="Times New Roman,serif" font-weight="bold" font-size="9.00">Technical</text>
<polygon fill="none" stroke="black" points="265.75,-248 265.75,-289 320.25,-289 320.25,-248 265.75,-248"/>
<text text-anchor="start" x="272.75" y="-266.57" font-family="Times New Roman,serif" font-weight="bold" font-size="9.00">University</text>
<polygon fill="none" stroke="black" points="196,-247 196,-290 321.25,-290 321.25,-247 196,-247"/>
</g>
<!-- n_0_1_2_3_4_5_6&#45;&gt;n_1_3_5_6 -->
<g id="edge1" class="edge">
<title>n_0_1_2_3_4_5_6&#45;&gt;n_1_3_5_6</title>
<path fill="none" stroke="black" d="M319.52,-337.05C309.63,-326.08 298.3,-313.51 288.12,-302.22"/>
<polygon fill="black" stroke="black" points="290.91,-300.08 281.61,-295 285.71,-304.77 290.91,-300.08"/>
</g>
<!-- n_0_2_4 -->
<g id="node9" class="node">
<title>n_0_2_4</title>
<polygon fill="none" stroke="black" points="367.62,-252.5 367.62,-284.5 427.38,-284.5 427.38,-252.5 367.62,-252.5"/>
<text text-anchor="start" x="374.62" y="-269.95" font-family="Times New Roman,serif" font-weight="bold" font-size="9.00">Primary (P)</text>
<text text-anchor="start" x="378.38" y="-260.95" font-family="Times New Roman,serif" font-weight="bold" font-size="9.00">Preschool</text>
<polygon fill="none" stroke="black" points="427.38,-252.5 427.38,-284.5 497.62,-284.5 497.62,-252.5 427.38,-252.5"/>
<text text-anchor="start" x="434.38" y="-266.57" font-family="Times New Roman,serif" font-weight="bold" font-size="9.00">Secondary (G)</text>
<polygon fill="none" stroke="black" points="366.62,-251.5 366.62,-285.5 498.62,-285.5 498.62,-251.5 366.62,-251.5"/>
</g>
<!-- n_0_1_2_3_4_5_6&#45;&gt;n_0_2_4 -->
<g id="edge8" class="edge">
<title>n_0_1_2_3_4_5_6&#45;&gt;n_0_2_4</title>
<path fill="none" stroke="black" d="M371.73,-337.05C383.03,-324.51 396.22,-309.89 407.42,-297.46"/>
<polygon fill="black" stroke="black" points="409.7,-300.15 413.8,-290.38 404.5,-295.47 409.7,-300.15"/>
</g>
<!-- n_1_3_5 -->
<g id="node3" class="node">
<title>n_1_3_5</title>
<polygon fill="none" stroke="black" points="74.75,-163 74.75,-195 143.5,-195 143.5,-163 74.75,-163"/>
<text text-anchor="start" x="85.5" y="-180.45" font-family="Times New Roman,serif" font-weight="bold" font-size="9.00">Primary (G)</text>
<text text-anchor="start" x="81.75" y="-171.45" font-family="Times New Roman,serif" font-weight="bold" font-size="9.00">Secondary (P)</text>
<polygon fill="none" stroke="black" points="143.5,-163 143.5,-195 196.5,-195 196.5,-163 143.5,-163"/>
<text text-anchor="start" x="150.5" y="-177.07" font-family="Times New Roman,serif" font-weight="bold" font-size="9.00">Technical</text>
<polygon fill="none" stroke="black" points="73.75,-162 73.75,-196 197.5,-196 197.5,-162 73.75,-162"/>
</g>
<!-- n_1_3_5_6&#45;&gt;n_1_3_5 -->
<g id="edge2" class="edge">
<title>n_1_3_5_6&#45;&gt;n_1_3_5</title>
<path fill="none" stroke="black" d="M224.36,-243.13C208.32,-231.71 189.18,-218.1 172.78,-206.43"/>
<polygon fill="black" stroke="black" points="174.91,-203.65 164.73,-200.7 170.85,-209.35 174.91,-203.65"/>
</g>
<!-- n_6 -->
<g id="node8" class="node">
<title>n_6</title>
<polygon fill="none" stroke="black" points="243.38,-166.38 243.38,-191.62 297.88,-191.62 297.88,-166.38 243.38,-166.38"/>
<text text-anchor="start" x="250.38" y="-177.07" font-family="Times New Roman,serif" font-weight="bold" font-size="9.00">University</text>
<polygon fill="none" stroke="black" points="242.38,-165.38 242.38,-192.62 298.88,-192.62 298.88,-165.38 242.38,-165.38"/>
</g>
<!-- n_1_3_5_6&#45;&gt;n_6 -->
<g id="edge7" class="edge">
<title>n_1_3_5_6&#45;&gt;n_6</title>
<path fill="none" stroke="black" d="M261.97,-243.13C263.47,-232.17 265.25,-219.18 266.81,-207.84"/>
<polygon fill="black" stroke="black" points="270.23,-208.65 268.12,-198.27 263.29,-207.7 270.23,-208.65"/>
</g>
<!-- n_1_3 -->
<g id="node4" class="node">
<title>n_1_3</title>
<polygon fill="none" stroke="black" points="30.62,-84.38 30.62,-109.62 91.88,-109.62 91.88,-84.38 30.62,-84.38"/>
<text text-anchor="start" x="37.62" y="-95.08" font-family="Times New Roman,serif" font-weight="bold" font-size="9.00">Primary (G)</text>
<polygon fill="none" stroke="black" points="91.88,-84.38 91.88,-109.62 160.62,-109.62 160.62,-84.38 91.88,-84.38"/>
<text text-anchor="start" x="98.88" y="-95.08" font-family="Times New Roman,serif" font-weight="bold" font-size="9.00">Secondary (P)</text>
<polygon fill="none" stroke="black" points="29.62,-83.38 29.62,-110.62 161.62,-110.62 161.62,-83.38 29.62,-83.38"/>
</g>
<!-- n_1_3_5&#45;&gt;n_1_3 -->
<g id="edge3" class="edge">
<title>n_1_3_5&#45;&gt;n_1_3</title>
<path fill="none" stroke="black" d="M125.74,-158.22C120.74,-148.23 114.6,-135.95 109.17,-125.09"/>
<polygon fill="black" stroke="black" points="112.33,-123.58 104.72,-116.2 106.07,-126.71 112.33,-123.58"/>
</g>
<!-- n_5 -->
<g id="node7" class="node">
<title>n_5</title>
<polygon fill="none" stroke="black" points="208.12,-84.38 208.12,-109.62 261.12,-109.62 261.12,-84.38 208.12,-84.38"/>
<text text-anchor="start" x="215.12" y="-95.08" font-family="Times New Roman,serif" font-weight="bold" font-size="9.00">Technical</text>
<polygon fill="none" stroke="black" points="207.12,-83.38 207.12,-110.62 262.12,-110.62 262.12,-83.38 207.12,-83.38"/>
</g>
<!-- n_1_3_5&#45;&gt;n_5 -->
<g id="edge6" class="edge">
<title>n_1_3_5&#45;&gt;n_5</title>
<path fill="none" stroke="black" d="M160.35,-158.02C173.88,-147.09 190.74,-133.46 204.97,-121.96"/>
<polygon fill="black" stroke="black" points="207.13,-124.72 212.71,-115.71 202.73,-119.27 207.13,-124.72"/>
</g>
<!-- n_1 -->
<g id="node5" class="node">
<title>n_1</title>
<polygon fill="none" stroke="black" points="9,-5.38 9,-30.62 70.25,-30.62 70.25,-5.38 9,-5.38"/>
<text text-anchor="start" x="16" y="-16.07" font-family="Times New Roman,serif" font-weight="bold" font-size="9.00">Primary (G)</text>
<polygon fill="none" stroke="black" points="8,-4.38 8,-31.62 71.25,-31.62 71.25,-4.38 8,-4.38"/>
</g>
<!-- n_1_3&#45;&gt;n_1 -->
<g id="edge4" class="edge">
<title>n_1_3&#45;&gt;n_1</title>
<path fill="none" stroke="black" d="M83.47,-79.29C76.19,-69.27 66.76,-56.31 58.52,-44.98"/>
<polygon fill="black" stroke="black" points="61.55,-43.19 52.84,-37.17 55.89,-47.31 61.55,-43.19"/>
</g>
<!-- n_3 -->
<g id="node6" class="node">
<title>n_3</title>
<polygon fill="none" stroke="black" points="117.25,-5.38 117.25,-30.62 186,-30.62 186,-5.38 117.25,-5.38"/>
<text text-anchor="start" x="124.25" y="-16.07" font-family="Times New Roman,serif" font-weight="bold" font-size="9.00">Secondary (P)</text>
<polygon fill="none" stroke="black" points="116.25,-4.38 116.25,-31.62 187,-31.62 187,-4.38 116.25,-4.38"/>
</g>
<!-- n_1_3&#45;&gt;n_3 -->
<g id="edge5" class="edge">
<title>n_1_3&#45;&gt;n_3</title>
<path fill="none" stroke="black" d="M107.78,-79.29C115.06,-69.27 124.49,-56.31 132.73,-44.98"/>
<polygon fill="black" stroke="black" points="135.36,-47.31 138.41,-37.17 129.7,-43.19 135.36,-47.31"/>
</g>
<!-- n_0_2 -->
<g id="node10" class="node">
<title>n_0_2</title>
<polygon fill="none" stroke="black" points="364.62,-166.38 364.62,-191.62 424.38,-191.62 424.38,-166.38 364.62,-166.38"/>
<text text-anchor="start" x="371.62" y="-177.07" font-family="Times New Roman,serif" font-weight="bold" font-size="9.00">Primary (P)</text>
<polygon fill="none" stroke="black" points="424.38,-166.38 424.38,-191.62 476.62,-191.62 476.62,-166.38 424.38,-166.38"/>
<text text-anchor="start" x="431.38" y="-177.07" font-family="Times New Roman,serif" font-weight="bold" font-size="9.00">Preschool</text>
<polygon fill="none" stroke="black" points="363.62,-165.38 363.62,-192.62 477.62,-192.62 477.62,-165.38 363.62,-165.38"/>
</g>
<!-- n_0_2_4&#45;&gt;n_0_2 -->
<g id="edge9" class="edge">
<title>n_0_2_4&#45;&gt;n_0_2</title>
<path fill="none" stroke="black" d="M429.9,-247.64C428.29,-235.91 426.23,-220.86 424.46,-207.94"/>
<polygon fill="black" stroke="black" points="427.97,-207.76 423.14,-198.33 421.03,-208.71 427.97,-207.76"/>
</g>
<!-- n_4 -->
<g id="node13" class="node">
<title>n_4</title>
<polygon fill="none" stroke="black" points="523.5,-166.38 523.5,-191.62 593.75,-191.62 593.75,-166.38 523.5,-166.38"/>
<text text-anchor="start" x="530.5" y="-177.07" font-family="Times New Roman,serif" font-weight="bold" font-size="9.00">Secondary (G)</text>
<polygon fill="none" stroke="black" points="522.5,-165.38 522.5,-192.62 594.75,-192.62 594.75,-165.38 522.5,-165.38"/>
</g>
<!-- n_0_2_4&#45;&gt;n_4 -->
<g id="edge12" class="edge">
<title>n_0_2_4&#45;&gt;n_4</title>
<path fill="none" stroke="black" d="M461.22,-247.64C480.19,-234.47 505.16,-217.13 525.07,-203.3"/>
<polygon fill="black" stroke="black" points="526.93,-206.27 533.14,-197.7 522.93,-200.52 526.93,-206.27"/>
</g>
<!-- n_0 -->
<g id="node11" class="node">
<title>n_0</title>
<polygon fill="none" stroke="black" points="348.75,-84.38 348.75,-109.62 408.5,-109.62 408.5,-84.38 348.75,-84.38"/>
<text text-anchor="start" x="355.75" y="-95.08" font-family="Times New Roman,serif" font-weight="bold" font-size="9.00">Primary (P)</text>
<polygon fill="none" stroke="black" points="347.75,-83.38 347.75,-110.62 409.5,-110.62 409.5,-83.38 347.75,-83.38"/>
</g>
<!-- n_0_2&#45;&gt;n_0 -->
<g id="edge10" class="edge">
<title>n_0_2&#45;&gt;n_0</title>
<path fill="none" stroke="black" d="M411.72,-161.03C406.21,-150.53 399.01,-136.82 392.73,-124.87"/>
<polygon fill="black" stroke="black" points="395.97,-123.51 388.22,-116.28 389.77,-126.76 395.97,-123.51"/>
</g>
<!-- n_2 -->
<g id="node12" class="node">
<title>n_2</title>
<polygon fill="none" stroke="black" points="455.5,-84.38 455.5,-109.62 507.75,-109.62 507.75,-84.38 455.5,-84.38"/>
<text text-anchor="start" x="462.5" y="-95.08" font-family="Times New Roman,serif" font-weight="bold" font-size="9.00">Preschool</text>
<polygon fill="none" stroke="black" points="454.5,-83.38 454.5,-110.62 508.75,-110.62 508.75,-83.38 454.5,-83.38"/>
</g>
<!-- n_0_2&#45;&gt;n_2 -->
<g id="edge11" class="edge">
<title>n_0_2&#45;&gt;n_2</title>
<path fill="none" stroke="black" d="M433.56,-161.03C441.81,-150.22 452.66,-135.99 461.96,-123.79"/>
<polygon fill="black" stroke="black" points="464.51,-126.22 467.79,-116.15 458.94,-121.97 464.51,-126.22"/>
</g>
</g>
</svg>
