<?xml version="1.0" encoding="UTF-8" standalone="no"?>
<!DOCTYPE svg PUBLIC "-//W3C//DTD SVG 1.1//EN"
 "http://www.w3.org/Graphics/SVG/1.1/DTD/svg11.dtd">
<!-- Generated by graphviz version 10.0.1 (20240210.2158)
 -->
<!-- Title: ND Pages: 1 -->
<svg width="539pt" height="544pt"
 viewBox="0.00 0.00 539.00 544.00" xmlns="http://www.w3.org/2000/svg" xmlns:xlink="http://www.w3.org/1999/xlink">
<g id="graph0" class="graph" transform="scale(1 1) rotate(0) translate(4 540)">
<title>ND</title>
<polygon fill="white" stroke="none" points="-4,4 -4,-540 535,-540 535,4 -4,4"/>
<!-- n_0_1_2_3_4_5_6 -->
<g id="node1" class="node">
<title>n_0_1_2_3_4_5_6</title>
<polygon fill="none" stroke="black" points="362.62,-463 362.62,-531 432.88,-531 432.88,-463 362.62,-463"/>
<text text-anchor="start" x="374.88" y="-516.45" font-family="Times New Roman,serif" font-weight="bold" font-size="9.00">Primary (P)</text>
<text text-anchor="start" x="374.12" y="-507.45" font-family="Times New Roman,serif" font-weight="bold" font-size="9.00">Primary (G)</text>
<text text-anchor="start" x="370.38" y="-498.45" font-family="Times New Roman,serif" font-weight="bold" font-size="9.00">Secondary (P)</text>
<text text-anchor="start" x="369.62" y="-489.45" font-family="Times New Roman,serif" font-weight="bold" font-size="9.00">Secondary (G)</text>
<text text-anchor="start" x="378.25" y="-480.45" font-family="Times New Roman,serif" font-weight="bold" font-size="9.00">Technical</text>
<text text-anchor="start" x="377.5" y="-471.45" font-family="Times New Roman,serif" font-weight="bold" font-size="9.00">University</text>
<polygon fill="none" stroke="black" points="432.88,-463 432.88,-531 485.12,-531 485.12,-463 432.88,-463"/>
<text text-anchor="start" x="439.88" y="-495.07" font-family="Times New Roman,serif" font-weight="bold" font-size="9.00">Preschool</text>
<polygon fill="none" stroke="black" points="361.62,-462 361.62,-532 486.12,-532 486.12,-462 361.62,-462"/>
</g>
<!-- n_0_1_3_4_5_6 -->
<g id="node2" class="node">
<title>n_0_1_3_4_5_6</title>
<polygon fill="none" stroke="black" points="283.38,-351 283.38,-410 352.12,-410 352.12,-351 283.38,-351"/>
<text text-anchor="start" x="294.88" y="-395.45" font-family="Times New Roman,serif" font-weight="bold" font-size="9.00">Primary (P)</text>
<text text-anchor="start" x="294.12" y="-386.45" font-family="Times New Roman,serif" font-weight="bold" font-size="9.00">Primary (G)</text>
<text text-anchor="start" x="290.38" y="-377.45" font-family="Times New Roman,serif" font-weight="bold" font-size="9.00">Secondary (P)</text>
<text text-anchor="start" x="298.25" y="-368.45" font-family="Times New Roman,serif" font-weight="bold" font-size="9.00">Technical</text>
<text text-anchor="start" x="297.5" y="-359.45" font-family="Times New Roman,serif" font-weight="bold" font-size="9.00">University</text>
<polygon fill="none" stroke="black" points="352.12,-351 352.12,-410 422.38,-410 422.38,-351 352.12,-351"/>
<text text-anchor="start" x="359.12" y="-378.57" font-family="Times New Roman,serif" font-weight="bold" font-size="9.00">Secondary (G)</text>
<polygon fill="none" stroke="black" points="282.38,-350 282.38,-411 423.38,-411 423.38,-350 282.38,-350"/>
</g>
<!-- n_0_1_2_3_4_5_6&#45;&gt;n_0_1_3_4_5_6 -->
<g id="edge1" class="edge">
<title>n_0_1_2_3_4_5_6&#45;&gt;n_0_1_3_4_5_6</title>
<path fill="none" stroke="black" d="M400.43,-458.19C393.68,-447.31 386.27,-435.36 379.36,-424.21"/>
<polygon fill="black" stroke="black" points="382.47,-422.59 374.23,-415.94 376.53,-426.28 382.47,-422.59"/>
</g>
<!-- n_2 -->
<g id="node13" class="node">
<title>n_2</title>
<polygon fill="none" stroke="black" points="469.75,-367.88 469.75,-393.12 522,-393.12 522,-367.88 469.75,-367.88"/>
<text text-anchor="start" x="476.75" y="-378.57" font-family="Times New Roman,serif" font-weight="bold" font-size="9.00">Preschool</text>
<polygon fill="none" stroke="black" points="468.75,-366.88 468.75,-394.12 523,-394.12 523,-366.88 468.75,-366.88"/>
</g>
<!-- n_0_1_2_3_4_5_6&#45;&gt;n_2 -->
<g id="edge12" class="edge">
<title>n_0_1_2_3_4_5_6&#45;&gt;n_2</title>
<path fill="none" stroke="black" d="M447.65,-458.19C457.97,-441.78 469.8,-422.96 479.17,-408.07"/>
<polygon fill="black" stroke="black" points="482.04,-410.07 484.4,-399.74 476.12,-406.35 482.04,-410.07"/>
</g>
<!-- n_0_1_3_5_6 -->
<g id="node3" class="node">
<title>n_0_1_3_5_6</title>
<polygon fill="none" stroke="black" points="214.88,-248 214.88,-298 276.12,-298 276.12,-248 214.88,-248"/>
<text text-anchor="start" x="222.62" y="-283.45" font-family="Times New Roman,serif" font-weight="bold" font-size="9.00">Primary (P)</text>
<text text-anchor="start" x="221.88" y="-274.45" font-family="Times New Roman,serif" font-weight="bold" font-size="9.00">Primary (G)</text>
<text text-anchor="start" x="226" y="-265.45" font-family="Times New Roman,serif" font-weight="bold" font-size="9.00">Technical</text>
<text text-anchor="start" x="225.25" y="-256.45" font-family="Times New Roman,serif" font-weight="bold" font-size="9.00">University</text>
<polygon fill="none" stroke="black" points="276.12,-248 276.12,-298 344.88,-298 344.88,-248 276.12,-248"/>
<text text-anchor="start" x="283.12" y="-271.07" font-family="Times New Roman,serif" font-weight="bold" font-size="9.00">Secondary (P)</text>
<polygon fill="none" stroke="black" points="213.88,-247 213.88,-299 345.88,-299 345.88,-247 213.88,-247"/>
</g>
<!-- n_0_1_3_4_5_6&#45;&gt;n_0_1_3_5_6 -->
<g id="edge2" class="edge">
<title>n_0_1_3_4_5_6&#45;&gt;n_0_1_3_5_6</title>
<path fill="none" stroke="black" d="M329.78,-346.12C322.35,-335.38 314.06,-323.4 306.4,-312.33"/>
<polygon fill="black" stroke="black" points="309.3,-310.37 300.73,-304.14 303.54,-314.36 309.3,-310.37"/>
</g>
<!-- n_4 -->
<g id="node12" class="node">
<title>n_4</title>
<polygon fill="none" stroke="black" points="391.75,-260.38 391.75,-285.62 462,-285.62 462,-260.38 391.75,-260.38"/>
<text text-anchor="start" x="398.75" y="-271.07" font-family="Times New Roman,serif" font-weight="bold" font-size="9.00">Secondary (G)</text>
<polygon fill="none" stroke="black" points="390.75,-259.38 390.75,-286.62 463,-286.62 463,-259.38 390.75,-259.38"/>
</g>
<!-- n_0_1_3_4_5_6&#45;&gt;n_4 -->
<g id="edge11" class="edge">
<title>n_0_1_3_4_5_6&#45;&gt;n_4</title>
<path fill="none" stroke="black" d="M376.29,-346.12C386.75,-331.21 398.89,-313.9 408.65,-299.98"/>
<polygon fill="black" stroke="black" points="411.24,-302.39 414.12,-292.19 405.51,-298.37 411.24,-302.39"/>
</g>
<!-- n_0_1_5_6 -->
<g id="node4" class="node">
<title>n_0_1_5_6</title>
<polygon fill="none" stroke="black" points="148.38,-163 148.38,-195 208.12,-195 208.12,-163 148.38,-163"/>
<text text-anchor="start" x="155.38" y="-180.45" font-family="Times New Roman,serif" font-weight="bold" font-size="9.00">Primary (P)</text>
<text text-anchor="start" x="158" y="-171.45" font-family="Times New Roman,serif" font-weight="bold" font-size="9.00">University</text>
<polygon fill="none" stroke="black" points="208.12,-163 208.12,-195 269.38,-195 269.38,-163 208.12,-163"/>
<text text-anchor="start" x="215.12" y="-180.45" font-family="Times New Roman,serif" font-weight="bold" font-size="9.00">Primary (G)</text>
<text text-anchor="start" x="219.25" y="-171.45" font-family="Times New Roman,serif" font-weight="bold" font-size="9.00">Technical</text>
<polygon fill="none" stroke="black" points="147.38,-162 147.38,-196 270.38,-196 270.38,-162 147.38,-162"/>
</g>
<!-- n_0_1_3_5_6&#45;&gt;n_0_1_5_6 -->
<g id="edge3" class="edge">
<title>n_0_1_3_5_6&#45;&gt;n_0_1_5_6</title>
<path fill="none" stroke="black" d="M257.6,-243.14C249.09,-232.11 239.39,-219.54 230.9,-208.54"/>
<polygon fill="black" stroke="black" points="233.91,-206.71 225.03,-200.93 228.37,-210.98 233.91,-206.71"/>
</g>
<!-- n_3 -->
<g id="node11" class="node">
<title>n_3</title>
<polygon fill="none" stroke="black" points="316.5,-166.38 316.5,-191.62 385.25,-191.62 385.25,-166.38 316.5,-166.38"/>
<text text-anchor="start" x="323.5" y="-177.07" font-family="Times New Roman,serif" font-weight="bold" font-size="9.00">Secondary (P)</text>
<polygon fill="none" stroke="black" points="315.5,-165.38 315.5,-192.62 386.25,-192.62 386.25,-165.38 315.5,-165.38"/>
</g>
<!-- n_0_1_3_5_6&#45;&gt;n_3 -->
<g id="edge10" class="edge">
<title>n_0_1_3_5_6&#45;&gt;n_3</title>
<path fill="none" stroke="black" d="M302.15,-243.14C311.39,-231.17 322.02,-217.38 331,-205.76"/>
<polygon fill="black" stroke="black" points="333.52,-208.22 336.86,-198.17 327.97,-203.94 333.52,-208.22"/>
</g>
<!-- n_0_6 -->
<g id="node5" class="node">
<title>n_0_6</title>
<polygon fill="none" stroke="black" points="71.75,-84.38 71.75,-109.62 131.5,-109.62 131.5,-84.38 71.75,-84.38"/>
<text text-anchor="start" x="78.75" y="-95.08" font-family="Times New Roman,serif" font-weight="bold" font-size="9.00">Primary (P)</text>
<polygon fill="none" stroke="black" points="131.5,-84.38 131.5,-109.62 186,-109.62 186,-84.38 131.5,-84.38"/>
<text text-anchor="start" x="138.5" y="-95.08" font-family="Times New Roman,serif" font-weight="bold" font-size="9.00">University</text>
<polygon fill="none" stroke="black" points="70.75,-83.38 70.75,-110.62 187,-110.62 187,-83.38 70.75,-83.38"/>
</g>
<!-- n_0_1_5_6&#45;&gt;n_0_6 -->
<g id="edge4" class="edge">
<title>n_0_1_5_6&#45;&gt;n_0_6</title>
<path fill="none" stroke="black" d="M189.1,-158.22C178.38,-147.5 165.02,-134.15 153.62,-122.74"/>
<polygon fill="black" stroke="black" points="156.33,-120.51 146.79,-115.91 151.39,-125.46 156.33,-120.51"/>
</g>
<!-- n_1_5 -->
<g id="node8" class="node">
<title>n_1_5</title>
<polygon fill="none" stroke="black" points="232.75,-84.38 232.75,-109.62 294,-109.62 294,-84.38 232.75,-84.38"/>
<text text-anchor="start" x="239.75" y="-95.08" font-family="Times New Roman,serif" font-weight="bold" font-size="9.00">Primary (G)</text>
<polygon fill="none" stroke="black" points="294,-84.38 294,-109.62 347,-109.62 347,-84.38 294,-84.38"/>
<text text-anchor="start" x="301" y="-95.08" font-family="Times New Roman,serif" font-weight="bold" font-size="9.00">Technical</text>
<polygon fill="none" stroke="black" points="231.75,-83.38 231.75,-110.62 348,-110.62 348,-83.38 231.75,-83.38"/>
</g>
<!-- n_0_1_5_6&#45;&gt;n_1_5 -->
<g id="edge7" class="edge">
<title>n_0_1_5_6&#45;&gt;n_1_5</title>
<path fill="none" stroke="black" d="M228.9,-158.22C239.75,-147.5 253.28,-134.15 264.83,-122.74"/>
<polygon fill="black" stroke="black" points="267.09,-125.42 271.74,-115.91 262.17,-120.44 267.09,-125.42"/>
</g>
<!-- n_0 -->
<g id="node6" class="node">
<title>n_0</title>
<polygon fill="none" stroke="black" points="9,-5.38 9,-30.62 68.75,-30.62 68.75,-5.38 9,-5.38"/>
<text text-anchor="start" x="16" y="-16.07" font-family="Times New Roman,serif" font-weight="bold" font-size="9.00">Primary (P)</text>
<polygon fill="none" stroke="black" points="8,-4.38 8,-31.62 69.75,-31.62 69.75,-4.38 8,-4.38"/>
</g>
<!-- n_0_6&#45;&gt;n_0 -->
<g id="edge5" class="edge">
<title>n_0_6&#45;&gt;n_0</title>
<path fill="none" stroke="black" d="M109.35,-79.29C97.05,-68.77 80.96,-55.01 67.27,-43.29"/>
<polygon fill="black" stroke="black" points="69.7,-40.77 59.83,-36.93 65.15,-46.09 69.7,-40.77"/>
</g>
<!-- n_6 -->
<g id="node7" class="node">
<title>n_6</title>
<polygon fill="none" stroke="black" points="115.62,-5.38 115.62,-30.62 170.12,-30.62 170.12,-5.38 115.62,-5.38"/>
<text text-anchor="start" x="122.62" y="-16.07" font-family="Times New Roman,serif" font-weight="bold" font-size="9.00">University</text>
<polygon fill="none" stroke="black" points="114.62,-4.38 114.62,-31.62 171.12,-31.62 171.12,-4.38 114.62,-4.38"/>
</g>
<!-- n_0_6&#45;&gt;n_6 -->
<g id="edge6" class="edge">
<title>n_0_6&#45;&gt;n_6</title>
<path fill="none" stroke="black" d="M131.91,-79.29C133.63,-69.87 135.81,-57.86 137.78,-47.04"/>
<polygon fill="black" stroke="black" points="141.18,-47.9 139.52,-37.43 134.29,-46.64 141.18,-47.9"/>
</g>
<!-- n_1 -->
<g id="node9" class="node">
<title>n_1</title>
<polygon fill="none" stroke="black" points="245.25,-5.38 245.25,-30.62 306.5,-30.62 306.5,-5.38 245.25,-5.38"/>
<text text-anchor="start" x="252.25" y="-16.07" font-family="Times New Roman,serif" font-weight="bold" font-size="9.00">Primary (G)</text>
<polygon fill="none" stroke="black" points="244.25,-4.38 244.25,-31.62 307.5,-31.62 307.5,-4.38 244.25,-4.38"/>
</g>
<!-- n_1_5&#45;&gt;n_1 -->
<g id="edge8" class="edge">
<title>n_1_5&#45;&gt;n_1</title>
<path fill="none" stroke="black" d="M286.84,-79.29C285.12,-69.87 282.94,-57.86 280.97,-47.04"/>
<polygon fill="black" stroke="black" points="284.46,-46.64 279.23,-37.43 277.57,-47.9 284.46,-46.64"/>
</g>
<!-- n_5 -->
<g id="node10" class="node">
<title>n_5</title>
<polygon fill="none" stroke="black" points="353.38,-5.38 353.38,-30.62 406.38,-30.62 406.38,-5.38 353.38,-5.38"/>
<text text-anchor="start" x="360.38" y="-16.07" font-family="Times New Roman,serif" font-weight="bold" font-size="9.00">Technical</text>
<polygon fill="none" stroke="black" points="352.38,-4.38 352.38,-31.62 407.38,-31.62 407.38,-4.38 352.38,-4.38"/>
</g>
<!-- n_1_5&#45;&gt;n_5 -->
<g id="edge9" class="edge">
<title>n_1_5&#45;&gt;n_5</title>
<path fill="none" stroke="black" d="M309.4,-79.29C321.7,-68.77 337.79,-55.01 351.48,-43.29"/>
<polygon fill="black" stroke="black" points="353.6,-46.09 358.92,-36.93 349.05,-40.77 353.6,-46.09"/>
</g>
</g>
</svg>
