<?xml version="1.0" encoding="UTF-8" standalone="no"?>
<!DOCTYPE svg PUBLIC "-//W3C//DTD SVG 1.1//EN"
 "http://www.w3.org/Graphics/SVG/1.1/DTD/svg11.dtd">
<!-- Generated by graphviz version 10.0.1 (20240210.2158)
 -->
<!-- Title: ND Pages: 1 -->
<svg width="549pt" height="638pt"
 viewBox="0.00 0.00 549.38 638.00" xmlns="http://www.w3.org/2000/svg" xmlns:xlink="http://www.w3.org/1999/xlink">
<g id="graph0" class="graph" transform="scale(1 1) rotate(0) translate(4 634)">
<title>ND</title>
<polygon fill="white" stroke="none" points="-4,4 -4,-634 545.38,-634 545.38,4 -4,4"/>
<!-- n_0_1_2_3_4_5_6 -->
<g id="node1" class="node">
<title>n_0_1_2_3_4_5_6</title>
<polygon fill="none" stroke="black" points="364.5,-557 364.5,-625 434.75,-625 434.75,-557 364.5,-557"/>
<text text-anchor="start" x="376" y="-610.45" font-family="Times New Roman,serif" font-weight="bold" font-size="9.00">Primary (G)</text>
<text text-anchor="start" x="380.5" y="-601.45" font-family="Times New Roman,serif" font-weight="bold" font-size="9.00">Preschool</text>
<text text-anchor="start" x="372.25" y="-592.45" font-family="Times New Roman,serif" font-weight="bold" font-size="9.00">Secondary (P)</text>
<text text-anchor="start" x="371.5" y="-583.45" font-family="Times New Roman,serif" font-weight="bold" font-size="9.00">Secondary (G)</text>
<text text-anchor="start" x="380.12" y="-574.45" font-family="Times New Roman,serif" font-weight="bold" font-size="9.00">Technical</text>
<text text-anchor="start" x="379.38" y="-565.45" font-family="Times New Roman,serif" font-weight="bold" font-size="9.00">University</text>
<polygon fill="none" stroke="black" points="434.75,-557 434.75,-625 494.5,-625 494.5,-557 434.75,-557"/>
<text text-anchor="start" x="441.75" y="-589.08" font-family="Times New Roman,serif" font-weight="bold" font-size="9.00">Primary (P)</text>
<polygon fill="none" stroke="black" points="363.5,-556 363.5,-626 495.5,-626 495.5,-556 363.5,-556"/>
</g>
<!-- n_1_2_3_4_5_6 -->
<g id="node2" class="node">
<title>n_1_2_3_4_5_6</title>
<polygon fill="none" stroke="black" points="287,-445 287,-504 357.25,-504 357.25,-445 287,-445"/>
<text text-anchor="start" x="298.5" y="-489.45" font-family="Times New Roman,serif" font-weight="bold" font-size="9.00">Primary (G)</text>
<text text-anchor="start" x="303" y="-480.45" font-family="Times New Roman,serif" font-weight="bold" font-size="9.00">Preschool</text>
<text text-anchor="start" x="294" y="-471.45" font-family="Times New Roman,serif" font-weight="bold" font-size="9.00">Secondary (G)</text>
<text text-anchor="start" x="302.62" y="-462.45" font-family="Times New Roman,serif" font-weight="bold" font-size="9.00">Technical</text>
<text text-anchor="start" x="301.88" y="-453.45" font-family="Times New Roman,serif" font-weight="bold" font-size="9.00">University</text>
<polygon fill="none" stroke="black" points="357.25,-445 357.25,-504 426,-504 426,-445 357.25,-445"/>
<text text-anchor="start" x="364.25" y="-472.57" font-family="Times New Roman,serif" font-weight="bold" font-size="9.00">Secondary (P)</text>
<polygon fill="none" stroke="black" points="286,-444 286,-505 427,-505 427,-444 286,-444"/>
</g>
<!-- n_0_1_2_3_4_5_6&#45;&gt;n_1_2_3_4_5_6 -->
<g id="edge1" class="edge">
<title>n_0_1_2_3_4_5_6&#45;&gt;n_1_2_3_4_5_6</title>
<path fill="none" stroke="black" d="M405.39,-552.19C398.46,-541.31 390.84,-529.36 383.73,-518.21"/>
<polygon fill="black" stroke="black" points="386.78,-516.48 378.45,-509.93 380.87,-520.24 386.78,-516.48"/>
</g>
<!-- n_0 -->
<g id="node13" class="node">
<title>n_0</title>
<polygon fill="none" stroke="black" points="472.62,-461.88 472.62,-487.12 532.38,-487.12 532.38,-461.88 472.62,-461.88"/>
<text text-anchor="start" x="479.62" y="-472.57" font-family="Times New Roman,serif" font-weight="bold" font-size="9.00">Primary (P)</text>
<polygon fill="none" stroke="black" points="471.62,-460.88 471.62,-488.12 533.38,-488.12 533.38,-460.88 471.62,-460.88"/>
</g>
<!-- n_0_1_2_3_4_5_6&#45;&gt;n_0 -->
<g id="edge12" class="edge">
<title>n_0_1_2_3_4_5_6&#45;&gt;n_0</title>
<path fill="none" stroke="black" d="M453.61,-552.19C464.07,-535.78 476.07,-516.96 485.56,-502.07"/>
<polygon fill="black" stroke="black" points="488.45,-504.05 490.87,-493.74 482.54,-500.29 488.45,-504.05"/>
</g>
<!-- n_1_2_4_5_6 -->
<g id="node3" class="node">
<title>n_1_2_4_5_6</title>
<polygon fill="none" stroke="black" points="217.75,-342 217.75,-392 279,-392 279,-342 217.75,-342"/>
<text text-anchor="start" x="224.75" y="-377.45" font-family="Times New Roman,serif" font-weight="bold" font-size="9.00">Primary (G)</text>
<text text-anchor="start" x="229.25" y="-368.45" font-family="Times New Roman,serif" font-weight="bold" font-size="9.00">Preschool</text>
<text text-anchor="start" x="228.88" y="-359.45" font-family="Times New Roman,serif" font-weight="bold" font-size="9.00">Technical</text>
<text text-anchor="start" x="228.12" y="-350.45" font-family="Times New Roman,serif" font-weight="bold" font-size="9.00">University</text>
<polygon fill="none" stroke="black" points="279,-342 279,-392 349.25,-392 349.25,-342 279,-342"/>
<text text-anchor="start" x="286" y="-365.07" font-family="Times New Roman,serif" font-weight="bold" font-size="9.00">Secondary (G)</text>
<polygon fill="none" stroke="black" points="216.75,-341 216.75,-393 350.25,-393 350.25,-341 216.75,-341"/>
</g>
<!-- n_1_2_3_4_5_6&#45;&gt;n_1_2_4_5_6 -->
<g id="edge2" class="edge">
<title>n_1_2_3_4_5_6&#45;&gt;n_1_2_4_5_6</title>
<path fill="none" stroke="black" d="M333.4,-440.12C325.97,-429.38 317.68,-417.4 310.02,-406.33"/>
<polygon fill="black" stroke="black" points="312.93,-404.37 304.36,-398.14 307.17,-408.36 312.93,-404.37"/>
</g>
<!-- n_3 -->
<g id="node12" class="node">
<title>n_3</title>
<polygon fill="none" stroke="black" points="396.12,-354.38 396.12,-379.62 464.88,-379.62 464.88,-354.38 396.12,-354.38"/>
<text text-anchor="start" x="403.12" y="-365.07" font-family="Times New Roman,serif" font-weight="bold" font-size="9.00">Secondary (P)</text>
<polygon fill="none" stroke="black" points="395.12,-353.38 395.12,-380.62 465.88,-380.62 465.88,-353.38 395.12,-353.38"/>
</g>
<!-- n_1_2_3_4_5_6&#45;&gt;n_3 -->
<g id="edge11" class="edge">
<title>n_1_2_3_4_5_6&#45;&gt;n_3</title>
<path fill="none" stroke="black" d="M379.91,-440.12C390.37,-425.21 402.51,-407.9 412.28,-393.98"/>
<polygon fill="black" stroke="black" points="414.86,-396.39 417.74,-386.19 409.13,-392.37 414.86,-396.39"/>
</g>
<!-- n_1_2_5_6 -->
<g id="node4" class="node">
<title>n_1_2_5_6</title>
<polygon fill="none" stroke="black" points="155.62,-248 155.62,-289 210.12,-289 210.12,-248 155.62,-248"/>
<text text-anchor="start" x="163.75" y="-274.45" font-family="Times New Roman,serif" font-weight="bold" font-size="9.00">Preschool</text>
<text text-anchor="start" x="163.38" y="-265.45" font-family="Times New Roman,serif" font-weight="bold" font-size="9.00">Technical</text>
<text text-anchor="start" x="162.62" y="-256.45" font-family="Times New Roman,serif" font-weight="bold" font-size="9.00">University</text>
<polygon fill="none" stroke="black" points="210.12,-248 210.12,-289 271.38,-289 271.38,-248 210.12,-248"/>
<text text-anchor="start" x="217.12" y="-266.57" font-family="Times New Roman,serif" font-weight="bold" font-size="9.00">Primary (G)</text>
<polygon fill="none" stroke="black" points="154.62,-247 154.62,-290 272.38,-290 272.38,-247 154.62,-247"/>
</g>
<!-- n_1_2_4_5_6&#45;&gt;n_1_2_5_6 -->
<g id="edge3" class="edge">
<title>n_1_2_4_5_6&#45;&gt;n_1_2_5_6</title>
<path fill="none" stroke="black" d="M262.5,-337.05C254.7,-326.29 245.78,-314 237.71,-302.88"/>
<polygon fill="black" stroke="black" points="240.77,-301.14 232.07,-295.1 235.11,-305.25 240.77,-301.14"/>
</g>
<!-- n_4 -->
<g id="node11" class="node">
<title>n_4</title>
<polygon fill="none" stroke="black" points="318.38,-255.88 318.38,-281.12 388.62,-281.12 388.62,-255.88 318.38,-255.88"/>
<text text-anchor="start" x="325.38" y="-266.57" font-family="Times New Roman,serif" font-weight="bold" font-size="9.00">Secondary (G)</text>
<polygon fill="none" stroke="black" points="317.38,-254.88 317.38,-282.12 389.62,-282.12 389.62,-254.88 317.38,-254.88"/>
</g>
<!-- n_1_2_4_5_6&#45;&gt;n_4 -->
<g id="edge10" class="edge">
<title>n_1_2_4_5_6&#45;&gt;n_4</title>
<path fill="none" stroke="black" d="M304.5,-337.05C314.07,-323.86 325.3,-308.38 334.59,-295.56"/>
<polygon fill="black" stroke="black" points="337.34,-297.74 340.38,-287.59 331.67,-293.63 337.34,-297.74"/>
</g>
<!-- n_2_5_6 -->
<g id="node5" class="node">
<title>n_2_5_6</title>
<polygon fill="none" stroke="black" points="95.12,-163 95.12,-195 149.62,-195 149.62,-163 95.12,-163"/>
<text text-anchor="start" x="102.88" y="-180.45" font-family="Times New Roman,serif" font-weight="bold" font-size="9.00">Technical</text>
<text text-anchor="start" x="102.12" y="-171.45" font-family="Times New Roman,serif" font-weight="bold" font-size="9.00">University</text>
<polygon fill="none" stroke="black" points="149.62,-163 149.62,-195 201.88,-195 201.88,-163 149.62,-163"/>
<text text-anchor="start" x="156.62" y="-177.07" font-family="Times New Roman,serif" font-weight="bold" font-size="9.00">Preschool</text>
<polygon fill="none" stroke="black" points="94.12,-162 94.12,-196 202.88,-196 202.88,-162 94.12,-162"/>
</g>
<!-- n_1_2_5_6&#45;&gt;n_2_5_6 -->
<g id="edge4" class="edge">
<title>n_1_2_5_6&#45;&gt;n_2_5_6</title>
<path fill="none" stroke="black" d="M195.39,-243.13C187.47,-232.46 178.12,-219.87 169.85,-208.75"/>
<polygon fill="black" stroke="black" points="172.9,-206.98 164.13,-201.04 167.28,-211.16 172.9,-206.98"/>
</g>
<!-- n_1 -->
<g id="node10" class="node">
<title>n_1</title>
<polygon fill="none" stroke="black" points="248.88,-166.38 248.88,-191.62 310.12,-191.62 310.12,-166.38 248.88,-166.38"/>
<text text-anchor="start" x="255.88" y="-177.07" font-family="Times New Roman,serif" font-weight="bold" font-size="9.00">Primary (G)</text>
<polygon fill="none" stroke="black" points="247.88,-165.38 247.88,-192.62 311.12,-192.62 311.12,-165.38 247.88,-165.38"/>
</g>
<!-- n_1_2_5_6&#45;&gt;n_1 -->
<g id="edge9" class="edge">
<title>n_1_2_5_6&#45;&gt;n_1</title>
<path fill="none" stroke="black" d="M231.88,-243.13C240.67,-231.48 251.19,-217.53 260.11,-205.71"/>
<polygon fill="black" stroke="black" points="262.71,-208.07 265.94,-197.98 257.12,-203.85 262.71,-208.07"/>
</g>
<!-- n_5_6 -->
<g id="node6" class="node">
<title>n_5_6</title>
<polygon fill="none" stroke="black" points="31.75,-84.38 31.75,-109.62 84.75,-109.62 84.75,-84.38 31.75,-84.38"/>
<text text-anchor="start" x="38.75" y="-95.08" font-family="Times New Roman,serif" font-weight="bold" font-size="9.00">Technical</text>
<polygon fill="none" stroke="black" points="84.75,-84.38 84.75,-109.62 139.25,-109.62 139.25,-84.38 84.75,-84.38"/>
<text text-anchor="start" x="91.75" y="-95.08" font-family="Times New Roman,serif" font-weight="bold" font-size="9.00">University</text>
<polygon fill="none" stroke="black" points="30.75,-83.38 30.75,-110.62 140.25,-110.62 140.25,-83.38 30.75,-83.38"/>
</g>
<!-- n_2_5_6&#45;&gt;n_5_6 -->
<g id="edge5" class="edge">
<title>n_2_5_6&#45;&gt;n_5_6</title>
<path fill="none" stroke="black" d="M132.93,-158.22C124.73,-147.81 114.58,-134.92 105.77,-123.74"/>
<polygon fill="black" stroke="black" points="108.64,-121.72 99.7,-116.03 103.14,-126.05 108.64,-121.72"/>
</g>
<!-- n_2 -->
<g id="node9" class="node">
<title>n_2</title>
<polygon fill="none" stroke="black" points="186.38,-84.38 186.38,-109.62 238.62,-109.62 238.62,-84.38 186.38,-84.38"/>
<text text-anchor="start" x="193.38" y="-95.08" font-family="Times New Roman,serif" font-weight="bold" font-size="9.00">Preschool</text>
<polygon fill="none" stroke="black" points="185.38,-83.38 185.38,-110.62 239.62,-110.62 239.62,-83.38 185.38,-83.38"/>
</g>
<!-- n_2_5_6&#45;&gt;n_2 -->
<g id="edge8" class="edge">
<title>n_2_5_6&#45;&gt;n_2</title>
<path fill="none" stroke="black" d="M164.32,-158.22C172.65,-147.81 182.96,-134.92 191.91,-123.74"/>
<polygon fill="black" stroke="black" points="194.57,-126.02 198.08,-116.03 189.1,-121.65 194.57,-126.02"/>
</g>
<!-- n_5 -->
<g id="node7" class="node">
<title>n_5</title>
<polygon fill="none" stroke="black" points="9,-5.38 9,-30.62 62,-30.62 62,-5.38 9,-5.38"/>
<text text-anchor="start" x="16" y="-16.07" font-family="Times New Roman,serif" font-weight="bold" font-size="9.00">Technical</text>
<polygon fill="none" stroke="black" points="8,-4.38 8,-31.62 63,-31.62 63,-4.38 8,-4.38"/>
</g>
<!-- n_5_6&#45;&gt;n_5 -->
<g id="edge6" class="edge">
<title>n_5_6&#45;&gt;n_5</title>
<path fill="none" stroke="black" d="M74.65,-79.29C68.21,-69.37 59.9,-56.57 52.59,-45.32"/>
<polygon fill="black" stroke="black" points="55.71,-43.69 47.33,-37.21 49.84,-47.5 55.71,-43.69"/>
</g>
<!-- n_6 -->
<g id="node8" class="node">
<title>n_6</title>
<polygon fill="none" stroke="black" points="109.25,-5.38 109.25,-30.62 163.75,-30.62 163.75,-5.38 109.25,-5.38"/>
<text text-anchor="start" x="116.25" y="-16.07" font-family="Times New Roman,serif" font-weight="bold" font-size="9.00">University</text>
<polygon fill="none" stroke="black" points="108.25,-4.38 108.25,-31.62 164.75,-31.62 164.75,-4.38 108.25,-4.38"/>
</g>
<!-- n_5_6&#45;&gt;n_6 -->
<g id="edge7" class="edge">
<title>n_5_6&#45;&gt;n_6</title>
<path fill="none" stroke="black" d="M96.57,-79.29C103.14,-69.37 111.61,-56.57 119.07,-45.32"/>
<polygon fill="black" stroke="black" points="121.84,-47.47 124.44,-37.2 116,-43.61 121.84,-47.47"/>
</g>
</g>
</svg>
