<?xml version="1.0" encoding="UTF-8" standalone="no"?>
<!DOCTYPE svg PUBLIC "-//W3C//DTD SVG 1.1//EN"
 "http://www.w3.org/Graphics/SVG/1.1/DTD/svg11.dtd">
<!-- Generated by graphviz version 10.0.1 (20240210.2158)
 -->
<!-- Title: ND Pages: 1 -->
<svg width="580pt" height="526pt"
 viewBox="0.00 0.00 580.12 526.00" xmlns="http://www.w3.org/2000/svg" xmlns:xlink="http://www.w3.org/1999/xlink">
<g id="graph0" class="graph" transform="scale(1 1) rotate(0) translate(4 522)">
<title>ND</title>
<polygon fill="white" stroke="none" points="-4,4 -4,-522 576.12,-522 576.12,4 -4,4"/>
<!-- n_0_1_2_3_4_5_6 -->
<g id="node1" class="node">
<title>n_0_1_2_3_4_5_6</title>
<polygon fill="none" stroke="black" points="370.38,-445 370.38,-513 439.12,-513 439.12,-445 370.38,-445"/>
<text text-anchor="start" x="381.88" y="-498.45" font-family="Times New Roman,serif" font-weight="bold" font-size="9.00">Primary (P)</text>
<text text-anchor="start" x="381.12" y="-489.45" font-family="Times New Roman,serif" font-weight="bold" font-size="9.00">Primary (G)</text>
<text text-anchor="start" x="385.62" y="-480.45" font-family="Times New Roman,serif" font-weight="bold" font-size="9.00">Preschool</text>
<text text-anchor="start" x="377.38" y="-471.45" font-family="Times New Roman,serif" font-weight="bold" font-size="9.00">Secondary (P)</text>
<text text-anchor="start" x="385.25" y="-462.45" font-family="Times New Roman,serif" font-weight="bold" font-size="9.00">Technical</text>
<text text-anchor="start" x="384.5" y="-453.45" font-family="Times New Roman,serif" font-weight="bold" font-size="9.00">University</text>
<polygon fill="none" stroke="black" points="439.12,-445 439.12,-513 509.38,-513 509.38,-445 439.12,-445"/>
<text text-anchor="start" x="446.12" y="-477.07" font-family="Times New Roman,serif" font-weight="bold" font-size="9.00">Secondary (G)</text>
<polygon fill="none" stroke="black" points="369.38,-444 369.38,-514 510.38,-514 510.38,-444 369.38,-444"/>
</g>
<!-- n_0_1_2_3_5_6 -->
<g id="node2" class="node">
<title>n_0_1_2_3_5_6</title>
<polygon fill="none" stroke="black" points="306.25,-342 306.25,-392 375,-392 375,-342 306.25,-342"/>
<text text-anchor="start" x="317.75" y="-377.45" font-family="Times New Roman,serif" font-weight="bold" font-size="9.00">Primary (P)</text>
<text text-anchor="start" x="317" y="-368.45" font-family="Times New Roman,serif" font-weight="bold" font-size="9.00">Primary (G)</text>
<text text-anchor="start" x="313.25" y="-359.45" font-family="Times New Roman,serif" font-weight="bold" font-size="9.00">Secondary (P)</text>
<text text-anchor="start" x="321.12" y="-350.45" font-family="Times New Roman,serif" font-weight="bold" font-size="9.00">Technical</text>
<polygon fill="none" stroke="black" points="375,-342 375,-392 429.5,-392 429.5,-342 375,-342"/>
<text text-anchor="start" x="383.12" y="-368.45" font-family="Times New Roman,serif" font-weight="bold" font-size="9.00">Preschool</text>
<text text-anchor="start" x="382" y="-359.45" font-family="Times New Roman,serif" font-weight="bold" font-size="9.00">University</text>
<polygon fill="none" stroke="black" points="305.25,-341 305.25,-393 430.5,-393 430.5,-341 305.25,-341"/>
</g>
<!-- n_0_1_2_3_4_5_6&#45;&gt;n_0_1_2_3_5_6 -->
<g id="edge1" class="edge">
<title>n_0_1_2_3_4_5_6&#45;&gt;n_0_1_2_3_5_6</title>
<path fill="none" stroke="black" d="M415.1,-440.14C407.92,-429.19 400.09,-417.22 392.9,-406.23"/>
<polygon fill="black" stroke="black" points="396.02,-404.6 387.61,-398.15 390.16,-408.44 396.02,-404.6"/>
</g>
<!-- n_4 -->
<g id="node13" class="node">
<title>n_4</title>
<polygon fill="none" stroke="black" points="476.75,-354.38 476.75,-379.62 547,-379.62 547,-354.38 476.75,-354.38"/>
<text text-anchor="start" x="483.75" y="-365.07" font-family="Times New Roman,serif" font-weight="bold" font-size="9.00">Secondary (G)</text>
<polygon fill="none" stroke="black" points="475.75,-353.38 475.75,-380.62 548,-380.62 548,-353.38 475.75,-353.38"/>
</g>
<!-- n_0_1_2_3_4_5_6&#45;&gt;n_4 -->
<g id="edge12" class="edge">
<title>n_0_1_2_3_4_5_6&#45;&gt;n_4</title>
<path fill="none" stroke="black" d="M464.65,-440.14C474.54,-425.04 485.68,-408.02 494.65,-394.31"/>
<polygon fill="black" stroke="black" points="497.38,-396.53 499.93,-386.25 491.53,-392.7 497.38,-396.53"/>
</g>
<!-- n_0_1_3_5 -->
<g id="node3" class="node">
<title>n_0_1_3_5</title>
<polygon fill="none" stroke="black" points="220.88,-248 220.88,-289 289.62,-289 289.62,-248 220.88,-248"/>
<text text-anchor="start" x="232.38" y="-274.45" font-family="Times New Roman,serif" font-weight="bold" font-size="9.00">Primary (P)</text>
<text text-anchor="start" x="227.88" y="-265.45" font-family="Times New Roman,serif" font-weight="bold" font-size="9.00">Secondary (P)</text>
<text text-anchor="start" x="235.75" y="-256.45" font-family="Times New Roman,serif" font-weight="bold" font-size="9.00">Technical</text>
<polygon fill="none" stroke="black" points="289.62,-248 289.62,-289 350.88,-289 350.88,-248 289.62,-248"/>
<text text-anchor="start" x="296.62" y="-266.57" font-family="Times New Roman,serif" font-weight="bold" font-size="9.00">Primary (G)</text>
<polygon fill="none" stroke="black" points="219.88,-247 219.88,-290 351.88,-290 351.88,-247 219.88,-247"/>
</g>
<!-- n_0_1_2_3_5_6&#45;&gt;n_0_1_3_5 -->
<g id="edge2" class="edge">
<title>n_0_1_2_3_5_6&#45;&gt;n_0_1_3_5</title>
<path fill="none" stroke="black" d="M343.27,-337.05C334.04,-326.18 323.48,-313.76 313.96,-302.55"/>
<polygon fill="black" stroke="black" points="316.71,-300.38 307.57,-295.03 311.38,-304.91 316.71,-300.38"/>
</g>
<!-- n_2_6 -->
<g id="node10" class="node">
<title>n_2_6</title>
<polygon fill="none" stroke="black" points="397.5,-255.88 397.5,-281.12 449.75,-281.12 449.75,-255.88 397.5,-255.88"/>
<text text-anchor="start" x="404.5" y="-266.57" font-family="Times New Roman,serif" font-weight="bold" font-size="9.00">Preschool</text>
<polygon fill="none" stroke="black" points="449.75,-255.88 449.75,-281.12 504.25,-281.12 504.25,-255.88 449.75,-255.88"/>
<text text-anchor="start" x="456.75" y="-266.57" font-family="Times New Roman,serif" font-weight="bold" font-size="9.00">University</text>
<polygon fill="none" stroke="black" points="396.5,-254.88 396.5,-282.12 505.25,-282.12 505.25,-254.88 396.5,-254.88"/>
</g>
<!-- n_0_1_2_3_5_6&#45;&gt;n_2_6 -->
<g id="edge9" class="edge">
<title>n_0_1_2_3_5_6&#45;&gt;n_2_6</title>
<path fill="none" stroke="black" d="M392.78,-337.05C404.34,-323.6 417.96,-307.77 429.1,-294.81"/>
<polygon fill="black" stroke="black" points="431.51,-297.38 435.38,-287.51 426.21,-292.81 431.51,-297.38"/>
</g>
<!-- n_0_3_5 -->
<g id="node4" class="node">
<title>n_0_3_5</title>
<polygon fill="none" stroke="black" points="102,-163 102,-195 170.75,-195 170.75,-163 102,-163"/>
<text text-anchor="start" x="113.5" y="-180.45" font-family="Times New Roman,serif" font-weight="bold" font-size="9.00">Primary (P)</text>
<text text-anchor="start" x="109" y="-171.45" font-family="Times New Roman,serif" font-weight="bold" font-size="9.00">Secondary (P)</text>
<polygon fill="none" stroke="black" points="170.75,-163 170.75,-195 223.75,-195 223.75,-163 170.75,-163"/>
<text text-anchor="start" x="177.75" y="-177.07" font-family="Times New Roman,serif" font-weight="bold" font-size="9.00">Technical</text>
<polygon fill="none" stroke="black" points="101,-162 101,-196 224.75,-196 224.75,-162 101,-162"/>
</g>
<!-- n_0_1_3_5&#45;&gt;n_0_3_5 -->
<g id="edge3" class="edge">
<title>n_0_1_3_5&#45;&gt;n_0_3_5</title>
<path fill="none" stroke="black" d="M251.61,-243.13C235.57,-231.71 216.43,-218.1 200.03,-206.43"/>
<polygon fill="black" stroke="black" points="202.16,-203.65 191.98,-200.7 198.1,-209.35 202.16,-203.65"/>
</g>
<!-- n_1 -->
<g id="node9" class="node">
<title>n_1</title>
<polygon fill="none" stroke="black" points="271.25,-166.38 271.25,-191.62 332.5,-191.62 332.5,-166.38 271.25,-166.38"/>
<text text-anchor="start" x="278.25" y="-177.07" font-family="Times New Roman,serif" font-weight="bold" font-size="9.00">Primary (G)</text>
<polygon fill="none" stroke="black" points="270.25,-165.38 270.25,-192.62 333.5,-192.62 333.5,-165.38 270.25,-165.38"/>
</g>
<!-- n_0_1_3_5&#45;&gt;n_1 -->
<g id="edge8" class="edge">
<title>n_0_1_3_5&#45;&gt;n_1</title>
<path fill="none" stroke="black" d="M290.33,-243.13C292.34,-232.17 294.71,-219.18 296.79,-207.84"/>
<polygon fill="black" stroke="black" points="300.18,-208.73 298.54,-198.26 293.29,-207.47 300.18,-208.73"/>
</g>
<!-- n_0_3 -->
<g id="node5" class="node">
<title>n_0_3</title>
<polygon fill="none" stroke="black" points="29.62,-84.38 29.62,-109.62 89.38,-109.62 89.38,-84.38 29.62,-84.38"/>
<text text-anchor="start" x="36.62" y="-95.08" font-family="Times New Roman,serif" font-weight="bold" font-size="9.00">Primary (P)</text>
<polygon fill="none" stroke="black" points="89.38,-84.38 89.38,-109.62 158.12,-109.62 158.12,-84.38 89.38,-84.38"/>
<text text-anchor="start" x="96.38" y="-95.08" font-family="Times New Roman,serif" font-weight="bold" font-size="9.00">Secondary (P)</text>
<polygon fill="none" stroke="black" points="28.62,-83.38 28.62,-110.62 159.12,-110.62 159.12,-83.38 28.62,-83.38"/>
</g>
<!-- n_0_3_5&#45;&gt;n_0_3 -->
<g id="edge4" class="edge">
<title>n_0_3_5&#45;&gt;n_0_3</title>
<path fill="none" stroke="black" d="M145.82,-158.22C136.75,-147.71 125.5,-134.66 115.79,-123.41"/>
<polygon fill="black" stroke="black" points="118.57,-121.28 109.39,-115.99 113.27,-125.85 118.57,-121.28"/>
</g>
<!-- n_5 -->
<g id="node8" class="node">
<title>n_5</title>
<polygon fill="none" stroke="black" points="205.38,-84.38 205.38,-109.62 258.38,-109.62 258.38,-84.38 205.38,-84.38"/>
<text text-anchor="start" x="212.38" y="-95.08" font-family="Times New Roman,serif" font-weight="bold" font-size="9.00">Technical</text>
<polygon fill="none" stroke="black" points="204.38,-83.38 204.38,-110.62 259.38,-110.62 259.38,-83.38 204.38,-83.38"/>
</g>
<!-- n_0_3_5&#45;&gt;n_5 -->
<g id="edge7" class="edge">
<title>n_0_3_5&#45;&gt;n_5</title>
<path fill="none" stroke="black" d="M179.93,-158.22C189,-147.71 200.25,-134.66 209.96,-123.41"/>
<polygon fill="black" stroke="black" points="212.48,-125.85 216.36,-115.99 207.18,-121.28 212.48,-125.85"/>
</g>
<!-- n_0 -->
<g id="node6" class="node">
<title>n_0</title>
<polygon fill="none" stroke="black" points="9,-5.38 9,-30.62 68.75,-30.62 68.75,-5.38 9,-5.38"/>
<text text-anchor="start" x="16" y="-16.07" font-family="Times New Roman,serif" font-weight="bold" font-size="9.00">Primary (P)</text>
<polygon fill="none" stroke="black" points="8,-4.38 8,-31.62 69.75,-31.62 69.75,-4.38 8,-4.38"/>
</g>
<!-- n_0_3&#45;&gt;n_0 -->
<g id="edge5" class="edge">
<title>n_0_3&#45;&gt;n_0</title>
<path fill="none" stroke="black" d="M81.94,-79.29C74.78,-69.27 65.53,-56.31 57.43,-44.98"/>
<polygon fill="black" stroke="black" points="60.52,-43.28 51.86,-37.17 54.82,-47.34 60.52,-43.28"/>
</g>
<!-- n_3 -->
<g id="node7" class="node">
<title>n_3</title>
<polygon fill="none" stroke="black" points="115.5,-5.38 115.5,-30.62 184.25,-30.62 184.25,-5.38 115.5,-5.38"/>
<text text-anchor="start" x="122.5" y="-16.07" font-family="Times New Roman,serif" font-weight="bold" font-size="9.00">Secondary (P)</text>
<polygon fill="none" stroke="black" points="114.5,-4.38 114.5,-31.62 185.25,-31.62 185.25,-4.38 114.5,-4.38"/>
</g>
<!-- n_0_3&#45;&gt;n_3 -->
<g id="edge6" class="edge">
<title>n_0_3&#45;&gt;n_3</title>
<path fill="none" stroke="black" d="M106.03,-79.29C113.31,-69.27 122.74,-56.31 130.98,-44.98"/>
<polygon fill="black" stroke="black" points="133.61,-47.31 136.66,-37.17 127.95,-43.19 133.61,-47.31"/>
</g>
<!-- n_2 -->
<g id="node11" class="node">
<title>n_2</title>
<polygon fill="none" stroke="black" points="409.75,-166.38 409.75,-191.62 462,-191.62 462,-166.38 409.75,-166.38"/>
<text text-anchor="start" x="416.75" y="-177.07" font-family="Times New Roman,serif" font-weight="bold" font-size="9.00">Preschool</text>
<polygon fill="none" stroke="black" points="408.75,-165.38 408.75,-192.62 463,-192.62 463,-165.38 408.75,-165.38"/>
</g>
<!-- n_2_6&#45;&gt;n_2 -->
<g id="edge10" class="edge">
<title>n_2_6&#45;&gt;n_2</title>
<path fill="none" stroke="black" d="M447.98,-250.63C445.91,-238.52 443.06,-221.94 440.65,-207.88"/>
<polygon fill="black" stroke="black" points="444.15,-207.58 439.01,-198.31 437.25,-208.76 444.15,-207.58"/>
</g>
<!-- n_6 -->
<g id="node12" class="node">
<title>n_6</title>
<polygon fill="none" stroke="black" points="508.62,-166.38 508.62,-191.62 563.12,-191.62 563.12,-166.38 508.62,-166.38"/>
<text text-anchor="start" x="515.62" y="-177.07" font-family="Times New Roman,serif" font-weight="bold" font-size="9.00">University</text>
<polygon fill="none" stroke="black" points="507.62,-165.38 507.62,-192.62 564.12,-192.62 564.12,-165.38 507.62,-165.38"/>
</g>
<!-- n_2_6&#45;&gt;n_6 -->
<g id="edge11" class="edge">
<title>n_2_6&#45;&gt;n_6</title>
<path fill="none" stroke="black" d="M467.26,-250.63C479.85,-237.68 497.41,-219.59 511.62,-204.97"/>
<polygon fill="black" stroke="black" points="514.02,-207.52 518.48,-197.9 509,-202.64 514.02,-207.52"/>
</g>
</g>
</svg>
