<?xml version="1.0" encoding="UTF-8" standalone="no"?>
<!DOCTYPE svg PUBLIC "-//W3C//DTD SVG 1.1//EN"
 "http://www.w3.org/Graphics/SVG/1.1/DTD/svg11.dtd">
<!-- Generated by graphviz version 10.0.1 (20240210.2158)
 -->
<!-- Title: ND Pages: 1 -->
<svg width="603pt" height="405pt"
 viewBox="0.00 0.00 603.38 405.00" xmlns="http://www.w3.org/2000/svg" xmlns:xlink="http://www.w3.org/1999/xlink">
<g id="graph0" class="graph" transform="scale(1 1) rotate(0) translate(4 401)">
<title>ND</title>
<polygon fill="white" stroke="none" points="-4,4 -4,-401 599.38,-401 599.38,4 -4,4"/>
<!-- n_0_1_2_3_4_5_6 -->
<g id="node1" class="node">
<title>n_0_1_2_3_4_5_6</title>
<polygon fill="none" stroke="black" points="278.38,-342 278.38,-392 347.12,-392 347.12,-342 278.38,-342"/>
<text text-anchor="start" x="289.88" y="-377.45" font-family="Times New Roman,serif" font-weight="bold" font-size="9.00">Primary (P)</text>
<text text-anchor="start" x="289.12" y="-368.45" font-family="Times New Roman,serif" font-weight="bold" font-size="9.00">Primary (G)</text>
<text text-anchor="start" x="285.38" y="-359.45" font-family="Times New Roman,serif" font-weight="bold" font-size="9.00">Secondary (P)</text>
<text text-anchor="start" x="292.5" y="-350.45" font-family="Times New Roman,serif" font-weight="bold" font-size="9.00">University</text>
<polygon fill="none" stroke="black" points="347.12,-342 347.12,-392 417.38,-392 417.38,-342 347.12,-342"/>
<text text-anchor="start" x="363.12" y="-372.95" font-family="Times New Roman,serif" font-weight="bold" font-size="9.00">Preschool</text>
<text text-anchor="start" x="354.12" y="-363.95" font-family="Times New Roman,serif" font-weight="bold" font-size="9.00">Secondary (G)</text>
<text text-anchor="start" x="362.75" y="-354.95" font-family="Times New Roman,serif" font-weight="bold" font-size="9.00">Technical</text>
<polygon fill="none" stroke="black" points="277.38,-341 277.38,-393 418.38,-393 418.38,-341 277.38,-341"/>
</g>
<!-- n_0_1_3_6 -->
<g id="node2" class="node">
<title>n_0_1_3_6</title>
<polygon fill="none" stroke="black" points="201.25,-248 201.25,-289 270,-289 270,-248 201.25,-248"/>
<text text-anchor="start" x="212.75" y="-274.45" font-family="Times New Roman,serif" font-weight="bold" font-size="9.00">Primary (P)</text>
<text text-anchor="start" x="212" y="-265.45" font-family="Times New Roman,serif" font-weight="bold" font-size="9.00">Primary (G)</text>
<text text-anchor="start" x="208.25" y="-256.45" font-family="Times New Roman,serif" font-weight="bold" font-size="9.00">Secondary (P)</text>
<polygon fill="none" stroke="black" points="270,-248 270,-289 324.5,-289 324.5,-248 270,-248"/>
<text text-anchor="start" x="277" y="-266.57" font-family="Times New Roman,serif" font-weight="bold" font-size="9.00">University</text>
<polygon fill="none" stroke="black" points="200.25,-247 200.25,-290 325.5,-290 325.5,-247 200.25,-247"/>
</g>
<!-- n_0_1_2_3_4_5_6&#45;&gt;n_0_1_3_6 -->
<g id="edge1" class="edge">
<title>n_0_1_2_3_4_5_6&#45;&gt;n_0_1_3_6</title>
<path fill="none" stroke="black" d="M322.37,-337.05C312.71,-326.08 301.64,-313.51 291.69,-302.22"/>
<polygon fill="black" stroke="black" points="294.58,-300.2 285.35,-295.01 289.33,-304.83 294.58,-300.2"/>
</g>
<!-- n_2_4_5 -->
<g id="node9" class="node">
<title>n_2_4_5</title>
<polygon fill="none" stroke="black" points="371.25,-252.5 371.25,-284.5 441.5,-284.5 441.5,-252.5 371.25,-252.5"/>
<text text-anchor="start" x="387.25" y="-269.95" font-family="Times New Roman,serif" font-weight="bold" font-size="9.00">Preschool</text>
<text text-anchor="start" x="378.25" y="-260.95" font-family="Times New Roman,serif" font-weight="bold" font-size="9.00">Secondary (G)</text>
<polygon fill="none" stroke="black" points="441.5,-252.5 441.5,-284.5 494.5,-284.5 494.5,-252.5 441.5,-252.5"/>
<text text-anchor="start" x="448.5" y="-266.57" font-family="Times New Roman,serif" font-weight="bold" font-size="9.00">Technical</text>
<polygon fill="none" stroke="black" points="370.25,-251.5 370.25,-285.5 495.5,-285.5 495.5,-251.5 370.25,-251.5"/>
</g>
<!-- n_0_1_2_3_4_5_6&#45;&gt;n_2_4_5 -->
<g id="edge8" class="edge">
<title>n_0_1_2_3_4_5_6&#45;&gt;n_2_4_5</title>
<path fill="none" stroke="black" d="M373.38,-337.05C384.32,-324.63 397.06,-310.17 407.93,-297.82"/>
<polygon fill="black" stroke="black" points="410.49,-300.21 414.47,-290.4 405.23,-295.59 410.49,-300.21"/>
</g>
<!-- n_0_1_3 -->
<g id="node3" class="node">
<title>n_0_1_3</title>
<polygon fill="none" stroke="black" points="67.88,-163 67.88,-195 136.62,-195 136.62,-163 67.88,-163"/>
<text text-anchor="start" x="79.38" y="-180.45" font-family="Times New Roman,serif" font-weight="bold" font-size="9.00">Primary (P)</text>
<text text-anchor="start" x="74.88" y="-171.45" font-family="Times New Roman,serif" font-weight="bold" font-size="9.00">Secondary (P)</text>
<polygon fill="none" stroke="black" points="136.62,-163 136.62,-195 197.88,-195 197.88,-163 136.62,-163"/>
<text text-anchor="start" x="143.62" y="-177.07" font-family="Times New Roman,serif" font-weight="bold" font-size="9.00">Primary (G)</text>
<polygon fill="none" stroke="black" points="66.88,-162 66.88,-196 198.88,-196 198.88,-162 66.88,-162"/>
</g>
<!-- n_0_1_3_6&#45;&gt;n_0_1_3 -->
<g id="edge2" class="edge">
<title>n_0_1_3_6&#45;&gt;n_0_1_3</title>
<path fill="none" stroke="black" d="M226.66,-243.13C209.55,-231.61 189.1,-217.84 171.66,-206.11"/>
<polygon fill="black" stroke="black" points="173.84,-203.35 163.59,-200.67 169.93,-209.16 173.84,-203.35"/>
</g>
<!-- n_6 -->
<g id="node8" class="node">
<title>n_6</title>
<polygon fill="none" stroke="black" points="244.62,-166.38 244.62,-191.62 299.12,-191.62 299.12,-166.38 244.62,-166.38"/>
<text text-anchor="start" x="251.62" y="-177.07" font-family="Times New Roman,serif" font-weight="bold" font-size="9.00">University</text>
<polygon fill="none" stroke="black" points="243.62,-165.38 243.62,-192.62 300.12,-192.62 300.12,-165.38 243.62,-165.38"/>
</g>
<!-- n_0_1_3_6&#45;&gt;n_6 -->
<g id="edge7" class="edge">
<title>n_0_1_3_6&#45;&gt;n_6</title>
<path fill="none" stroke="black" d="M265.38,-243.13C266.5,-232.28 267.82,-219.45 268.97,-208.19"/>
<polygon fill="black" stroke="black" points="272.45,-208.58 270,-198.28 265.49,-207.87 272.45,-208.58"/>
</g>
<!-- n_0_3 -->
<g id="node4" class="node">
<title>n_0_3</title>
<polygon fill="none" stroke="black" points="29.62,-84.38 29.62,-109.62 89.38,-109.62 89.38,-84.38 29.62,-84.38"/>
<text text-anchor="start" x="36.62" y="-95.08" font-family="Times New Roman,serif" font-weight="bold" font-size="9.00">Primary (P)</text>
<polygon fill="none" stroke="black" points="89.38,-84.38 89.38,-109.62 158.12,-109.62 158.12,-84.38 89.38,-84.38"/>
<text text-anchor="start" x="96.38" y="-95.08" font-family="Times New Roman,serif" font-weight="bold" font-size="9.00">Secondary (P)</text>
<polygon fill="none" stroke="black" points="28.62,-83.38 28.62,-110.62 159.12,-110.62 159.12,-83.38 28.62,-83.38"/>
</g>
<!-- n_0_1_3&#45;&gt;n_0_3 -->
<g id="edge3" class="edge">
<title>n_0_1_3&#45;&gt;n_0_3</title>
<path fill="none" stroke="black" d="M123.23,-158.22C118.36,-148.23 112.38,-135.95 107.08,-125.09"/>
<polygon fill="black" stroke="black" points="110.28,-123.66 102.75,-116.2 103.99,-126.73 110.28,-123.66"/>
</g>
<!-- n_1 -->
<g id="node7" class="node">
<title>n_1</title>
<polygon fill="none" stroke="black" points="205.25,-84.38 205.25,-109.62 266.5,-109.62 266.5,-84.38 205.25,-84.38"/>
<text text-anchor="start" x="212.25" y="-95.08" font-family="Times New Roman,serif" font-weight="bold" font-size="9.00">Primary (G)</text>
<polygon fill="none" stroke="black" points="204.25,-83.38 204.25,-110.62 267.5,-110.62 267.5,-83.38 204.25,-83.38"/>
</g>
<!-- n_0_1_3&#45;&gt;n_1 -->
<g id="edge6" class="edge">
<title>n_0_1_3&#45;&gt;n_1</title>
<path fill="none" stroke="black" d="M158.6,-158.02C172.81,-146.98 190.55,-133.2 205.45,-121.63"/>
<polygon fill="black" stroke="black" points="207.35,-124.59 213.1,-115.69 203.06,-119.06 207.35,-124.59"/>
</g>
<!-- n_0 -->
<g id="node5" class="node">
<title>n_0</title>
<polygon fill="none" stroke="black" points="9,-5.38 9,-30.62 68.75,-30.62 68.75,-5.38 9,-5.38"/>
<text text-anchor="start" x="16" y="-16.07" font-family="Times New Roman,serif" font-weight="bold" font-size="9.00">Primary (P)</text>
<polygon fill="none" stroke="black" points="8,-4.38 8,-31.62 69.75,-31.62 69.75,-4.38 8,-4.38"/>
</g>
<!-- n_0_3&#45;&gt;n_0 -->
<g id="edge4" class="edge">
<title>n_0_3&#45;&gt;n_0</title>
<path fill="none" stroke="black" d="M81.94,-79.29C74.78,-69.27 65.53,-56.31 57.43,-44.98"/>
<polygon fill="black" stroke="black" points="60.52,-43.28 51.86,-37.17 54.82,-47.34 60.52,-43.28"/>
</g>
<!-- n_3 -->
<g id="node6" class="node">
<title>n_3</title>
<polygon fill="none" stroke="black" points="115.5,-5.38 115.5,-30.62 184.25,-30.62 184.25,-5.38 115.5,-5.38"/>
<text text-anchor="start" x="122.5" y="-16.07" font-family="Times New Roman,serif" font-weight="bold" font-size="9.00">Secondary (P)</text>
<polygon fill="none" stroke="black" points="114.5,-4.38 114.5,-31.62 185.25,-31.62 185.25,-4.38 114.5,-4.38"/>
</g>
<!-- n_0_3&#45;&gt;n_3 -->
<g id="edge5" class="edge">
<title>n_0_3&#45;&gt;n_3</title>
<path fill="none" stroke="black" d="M106.03,-79.29C113.31,-69.27 122.74,-56.31 130.98,-44.98"/>
<polygon fill="black" stroke="black" points="133.61,-47.31 136.66,-37.17 127.95,-43.19 133.61,-47.31"/>
</g>
<!-- n_2_4 -->
<g id="node10" class="node">
<title>n_2_4</title>
<polygon fill="none" stroke="black" points="363.62,-166.38 363.62,-191.62 415.88,-191.62 415.88,-166.38 363.62,-166.38"/>
<text text-anchor="start" x="370.62" y="-177.07" font-family="Times New Roman,serif" font-weight="bold" font-size="9.00">Preschool</text>
<polygon fill="none" stroke="black" points="415.88,-166.38 415.88,-191.62 486.12,-191.62 486.12,-166.38 415.88,-166.38"/>
<text text-anchor="start" x="422.88" y="-177.07" font-family="Times New Roman,serif" font-weight="bold" font-size="9.00">Secondary (G)</text>
<polygon fill="none" stroke="black" points="362.62,-165.38 362.62,-192.62 487.12,-192.62 487.12,-165.38 362.62,-165.38"/>
</g>
<!-- n_2_4_5&#45;&gt;n_2_4 -->
<g id="edge9" class="edge">
<title>n_2_4_5&#45;&gt;n_2_4</title>
<path fill="none" stroke="black" d="M431.06,-247.64C429.99,-235.91 428.61,-220.86 427.43,-207.94"/>
<polygon fill="black" stroke="black" points="430.95,-207.98 426.55,-198.34 423.98,-208.62 430.95,-207.98"/>
</g>
<!-- n_5 -->
<g id="node13" class="node">
<title>n_5</title>
<polygon fill="none" stroke="black" points="533.38,-166.38 533.38,-191.62 586.38,-191.62 586.38,-166.38 533.38,-166.38"/>
<text text-anchor="start" x="540.38" y="-177.07" font-family="Times New Roman,serif" font-weight="bold" font-size="9.00">Technical</text>
<polygon fill="none" stroke="black" points="532.38,-165.38 532.38,-192.62 587.38,-192.62 587.38,-165.38 532.38,-165.38"/>
</g>
<!-- n_2_4_5&#45;&gt;n_5 -->
<g id="edge12" class="edge">
<title>n_2_4_5&#45;&gt;n_5</title>
<path fill="none" stroke="black" d="M461.69,-247.64C480.81,-234.47 505.98,-217.13 526.05,-203.3"/>
<polygon fill="black" stroke="black" points="527.95,-206.25 534.2,-197.69 523.98,-200.48 527.95,-206.25"/>
</g>
<!-- n_2 -->
<g id="node11" class="node">
<title>n_2</title>
<polygon fill="none" stroke="black" points="355.75,-84.38 355.75,-109.62 408,-109.62 408,-84.38 355.75,-84.38"/>
<text text-anchor="start" x="362.75" y="-95.08" font-family="Times New Roman,serif" font-weight="bold" font-size="9.00">Preschool</text>
<polygon fill="none" stroke="black" points="354.75,-83.38 354.75,-110.62 409,-110.62 409,-83.38 354.75,-83.38"/>
</g>
<!-- n_2_4&#45;&gt;n_2 -->
<g id="edge10" class="edge">
<title>n_2_4&#45;&gt;n_2</title>
<path fill="none" stroke="black" d="M415.76,-161.03C410.11,-150.53 402.74,-136.82 396.32,-124.87"/>
<polygon fill="black" stroke="black" points="399.51,-123.43 391.7,-116.27 393.35,-126.74 399.51,-123.43"/>
</g>
<!-- n_4 -->
<g id="node12" class="node">
<title>n_4</title>
<polygon fill="none" stroke="black" points="454.75,-84.38 454.75,-109.62 525,-109.62 525,-84.38 454.75,-84.38"/>
<text text-anchor="start" x="461.75" y="-95.08" font-family="Times New Roman,serif" font-weight="bold" font-size="9.00">Secondary (G)</text>
<polygon fill="none" stroke="black" points="453.75,-83.38 453.75,-110.62 526,-110.62 526,-83.38 453.75,-83.38"/>
</g>
<!-- n_2_4&#45;&gt;n_4 -->
<g id="edge11" class="edge">
<title>n_2_4&#45;&gt;n_4</title>
<path fill="none" stroke="black" d="M438.66,-161.03C447.45,-150.22 459.01,-135.99 468.92,-123.79"/>
<polygon fill="black" stroke="black" points="471.57,-126.08 475.16,-116.12 466.13,-121.67 471.57,-126.08"/>
</g>
</g>
</svg>
