<?xml version="1.0" encoding="UTF-8" standalone="no"?>
<!DOCTYPE svg PUBLIC "-//W3C//DTD SVG 1.1//EN"
 "http://www.w3.org/Graphics/SVG/1.1/DTD/svg11.dtd">
<!-- Generated by graphviz version 10.0.1 (20240210.2158)
 -->
<!-- Title: ND Pages: 1 -->
<svg width="691pt" height="414pt"
 viewBox="0.00 0.00 691.12 414.00" xmlns="http://www.w3.org/2000/svg" xmlns:xlink="http://www.w3.org/1999/xlink">
<g id="graph0" class="graph" transform="scale(1 1) rotate(0) translate(4 410)">
<title>ND</title>
<polygon fill="white" stroke="none" points="-4,4 -4,-410 687.12,-410 687.12,4 -4,4"/>
<!-- n_0_1_2_3_4_5_6 -->
<g id="node1" class="node">
<title>n_0_1_2_3_4_5_6</title>
<polygon fill="none" stroke="black" points="390.12,-342 390.12,-401 460.38,-401 460.38,-342 390.12,-342"/>
<text text-anchor="start" x="402.38" y="-386.45" font-family="Times New Roman,serif" font-weight="bold" font-size="9.00">Primary (P)</text>
<text text-anchor="start" x="401.62" y="-377.45" font-family="Times New Roman,serif" font-weight="bold" font-size="9.00">Primary (G)</text>
<text text-anchor="start" x="406.12" y="-368.45" font-family="Times New Roman,serif" font-weight="bold" font-size="9.00">Preschool</text>
<text text-anchor="start" x="397.12" y="-359.45" font-family="Times New Roman,serif" font-weight="bold" font-size="9.00">Secondary (G)</text>
<text text-anchor="start" x="405" y="-350.45" font-family="Times New Roman,serif" font-weight="bold" font-size="9.00">University</text>
<polygon fill="none" stroke="black" points="460.38,-342 460.38,-401 529.12,-401 529.12,-342 460.38,-342"/>
<text text-anchor="start" x="467.38" y="-372.95" font-family="Times New Roman,serif" font-weight="bold" font-size="9.00">Secondary (P)</text>
<text text-anchor="start" x="475.25" y="-363.95" font-family="Times New Roman,serif" font-weight="bold" font-size="9.00">Technical</text>
<polygon fill="none" stroke="black" points="389.12,-341 389.12,-402 530.12,-402 530.12,-341 389.12,-341"/>
</g>
<!-- n_0_1_2_4_6 -->
<g id="node2" class="node">
<title>n_0_1_2_4_6</title>
<polygon fill="none" stroke="black" points="306.88,-248 306.88,-289 368.12,-289 368.12,-248 306.88,-248"/>
<text text-anchor="start" x="314.62" y="-274.45" font-family="Times New Roman,serif" font-weight="bold" font-size="9.00">Primary (P)</text>
<text text-anchor="start" x="313.88" y="-265.45" font-family="Times New Roman,serif" font-weight="bold" font-size="9.00">Primary (G)</text>
<text text-anchor="start" x="318.38" y="-256.45" font-family="Times New Roman,serif" font-weight="bold" font-size="9.00">Preschool</text>
<polygon fill="none" stroke="black" points="368.12,-248 368.12,-289 438.38,-289 438.38,-248 368.12,-248"/>
<text text-anchor="start" x="375.12" y="-269.95" font-family="Times New Roman,serif" font-weight="bold" font-size="9.00">Secondary (G)</text>
<text text-anchor="start" x="383" y="-260.95" font-family="Times New Roman,serif" font-weight="bold" font-size="9.00">University</text>
<polygon fill="none" stroke="black" points="305.88,-247 305.88,-290 439.38,-290 439.38,-247 305.88,-247"/>
</g>
<!-- n_0_1_2_3_4_5_6&#45;&gt;n_0_1_2_4_6 -->
<g id="edge1" class="edge">
<title>n_0_1_2_3_4_5_6&#45;&gt;n_0_1_2_4_6</title>
<path fill="none" stroke="black" d="M430.9,-337.15C421.29,-326 410.59,-313.58 401.01,-302.45"/>
<polygon fill="black" stroke="black" points="403.77,-300.3 394.6,-295.01 398.47,-304.87 403.77,-300.3"/>
</g>
<!-- n_3_5 -->
<g id="node11" class="node">
<title>n_3_5</title>
<polygon fill="none" stroke="black" points="485.75,-255.88 485.75,-281.12 554.5,-281.12 554.5,-255.88 485.75,-255.88"/>
<text text-anchor="start" x="492.75" y="-266.57" font-family="Times New Roman,serif" font-weight="bold" font-size="9.00">Secondary (P)</text>
<polygon fill="none" stroke="black" points="554.5,-255.88 554.5,-281.12 607.5,-281.12 607.5,-255.88 554.5,-255.88"/>
<text text-anchor="start" x="561.5" y="-266.57" font-family="Times New Roman,serif" font-weight="bold" font-size="9.00">Technical</text>
<polygon fill="none" stroke="black" points="484.75,-254.88 484.75,-282.12 608.5,-282.12 608.5,-254.88 484.75,-254.88"/>
</g>
<!-- n_0_1_2_3_4_5_6&#45;&gt;n_3_5 -->
<g id="edge10" class="edge">
<title>n_0_1_2_3_4_5_6&#45;&gt;n_3_5</title>
<path fill="none" stroke="black" d="M488.35,-337.15C500.26,-323.33 513.83,-307.57 524.89,-294.74"/>
<polygon fill="black" stroke="black" points="527.22,-297.39 531.1,-287.53 521.92,-292.82 527.22,-297.39"/>
</g>
<!-- n_0_1_2 -->
<g id="node3" class="node">
<title>n_0_1_2</title>
<polygon fill="none" stroke="black" points="150.12,-163 150.12,-195 211.38,-195 211.38,-163 150.12,-163"/>
<text text-anchor="start" x="157.12" y="-180.45" font-family="Times New Roman,serif" font-weight="bold" font-size="9.00">Primary (G)</text>
<text text-anchor="start" x="161.62" y="-171.45" font-family="Times New Roman,serif" font-weight="bold" font-size="9.00">Preschool</text>
<polygon fill="none" stroke="black" points="211.38,-163 211.38,-195 271.12,-195 271.12,-163 211.38,-163"/>
<text text-anchor="start" x="218.38" y="-177.07" font-family="Times New Roman,serif" font-weight="bold" font-size="9.00">Primary (P)</text>
<polygon fill="none" stroke="black" points="149.12,-162 149.12,-196 272.12,-196 272.12,-162 149.12,-162"/>
</g>
<!-- n_0_1_2_4_6&#45;&gt;n_0_1_2 -->
<g id="edge2" class="edge">
<title>n_0_1_2_4_6&#45;&gt;n_0_1_2</title>
<path fill="none" stroke="black" d="M327.5,-243.13C305.76,-231.38 279.7,-217.31 257.7,-205.43"/>
<polygon fill="black" stroke="black" points="259.39,-202.36 248.93,-200.69 256.06,-208.52 259.39,-202.36"/>
</g>
<!-- n_4_6 -->
<g id="node8" class="node">
<title>n_4_6</title>
<polygon fill="none" stroke="black" points="318.25,-166.38 318.25,-191.62 388.5,-191.62 388.5,-166.38 318.25,-166.38"/>
<text text-anchor="start" x="325.25" y="-177.07" font-family="Times New Roman,serif" font-weight="bold" font-size="9.00">Secondary (G)</text>
<polygon fill="none" stroke="black" points="388.5,-166.38 388.5,-191.62 443,-191.62 443,-166.38 388.5,-166.38"/>
<text text-anchor="start" x="395.5" y="-177.07" font-family="Times New Roman,serif" font-weight="bold" font-size="9.00">University</text>
<polygon fill="none" stroke="black" points="317.25,-165.38 317.25,-192.62 444,-192.62 444,-165.38 317.25,-165.38"/>
</g>
<!-- n_0_1_2_4_6&#45;&gt;n_4_6 -->
<g id="edge7" class="edge">
<title>n_0_1_2_4_6&#45;&gt;n_4_6</title>
<path fill="none" stroke="black" d="M374.85,-243.13C375.84,-232.28 377.02,-219.45 378.05,-208.19"/>
<polygon fill="black" stroke="black" points="381.53,-208.56 378.95,-198.28 374.56,-207.92 381.53,-208.56"/>
</g>
<!-- n_1_2 -->
<g id="node4" class="node">
<title>n_1_2</title>
<polygon fill="none" stroke="black" points="34.88,-84.38 34.88,-109.62 96.12,-109.62 96.12,-84.38 34.88,-84.38"/>
<text text-anchor="start" x="41.88" y="-95.08" font-family="Times New Roman,serif" font-weight="bold" font-size="9.00">Primary (G)</text>
<polygon fill="none" stroke="black" points="96.12,-84.38 96.12,-109.62 148.38,-109.62 148.38,-84.38 96.12,-84.38"/>
<text text-anchor="start" x="103.12" y="-95.08" font-family="Times New Roman,serif" font-weight="bold" font-size="9.00">Preschool</text>
<polygon fill="none" stroke="black" points="33.88,-83.38 33.88,-110.62 149.38,-110.62 149.38,-83.38 33.88,-83.38"/>
</g>
<!-- n_0_1_2&#45;&gt;n_1_2 -->
<g id="edge3" class="edge">
<title>n_0_1_2&#45;&gt;n_1_2</title>
<path fill="none" stroke="black" d="M180.9,-158.02C164.17,-146.77 143.21,-132.68 125.81,-120.98"/>
<polygon fill="black" stroke="black" points="128.06,-118.28 117.81,-115.6 124.16,-124.09 128.06,-118.28"/>
</g>
<!-- n_0 -->
<g id="node7" class="node">
<title>n_0</title>
<polygon fill="none" stroke="black" points="195.75,-84.38 195.75,-109.62 255.5,-109.62 255.5,-84.38 195.75,-84.38"/>
<text text-anchor="start" x="202.75" y="-95.08" font-family="Times New Roman,serif" font-weight="bold" font-size="9.00">Primary (P)</text>
<polygon fill="none" stroke="black" points="194.75,-83.38 194.75,-110.62 256.5,-110.62 256.5,-83.38 194.75,-83.38"/>
</g>
<!-- n_0_1_2&#45;&gt;n_0 -->
<g id="edge6" class="edge">
<title>n_0_1_2&#45;&gt;n_0</title>
<path fill="none" stroke="black" d="M214.33,-158.22C216.15,-148.54 218.37,-136.72 220.35,-126.11"/>
<polygon fill="black" stroke="black" points="223.78,-126.81 222.19,-116.33 216.9,-125.52 223.78,-126.81"/>
</g>
<!-- n_1 -->
<g id="node5" class="node">
<title>n_1</title>
<polygon fill="none" stroke="black" points="9,-5.38 9,-30.62 70.25,-30.62 70.25,-5.38 9,-5.38"/>
<text text-anchor="start" x="16" y="-16.07" font-family="Times New Roman,serif" font-weight="bold" font-size="9.00">Primary (G)</text>
<polygon fill="none" stroke="black" points="8,-4.38 8,-31.62 71.25,-31.62 71.25,-4.38 8,-4.38"/>
</g>
<!-- n_1_2&#45;&gt;n_1 -->
<g id="edge4" class="edge">
<title>n_1_2&#45;&gt;n_1</title>
<path fill="none" stroke="black" d="M80.34,-79.29C73.64,-69.37 65,-56.57 57.4,-45.32"/>
<polygon fill="black" stroke="black" points="60.41,-43.52 51.91,-37.2 54.61,-47.44 60.41,-43.52"/>
</g>
<!-- n_2 -->
<g id="node6" class="node">
<title>n_2</title>
<polygon fill="none" stroke="black" points="117.5,-5.38 117.5,-30.62 169.75,-30.62 169.75,-5.38 117.5,-5.38"/>
<text text-anchor="start" x="124.5" y="-16.07" font-family="Times New Roman,serif" font-weight="bold" font-size="9.00">Preschool</text>
<polygon fill="none" stroke="black" points="116.5,-4.38 116.5,-31.62 170.75,-31.62 170.75,-4.38 116.5,-4.38"/>
</g>
<!-- n_1_2&#45;&gt;n_2 -->
<g id="edge5" class="edge">
<title>n_1_2&#45;&gt;n_2</title>
<path fill="none" stroke="black" d="M102.91,-79.29C109.61,-69.37 118.25,-56.57 125.85,-45.32"/>
<polygon fill="black" stroke="black" points="128.64,-47.44 131.34,-37.2 122.84,-43.52 128.64,-47.44"/>
</g>
<!-- n_4 -->
<g id="node9" class="node">
<title>n_4</title>
<polygon fill="none" stroke="black" points="331.5,-84.38 331.5,-109.62 401.75,-109.62 401.75,-84.38 331.5,-84.38"/>
<text text-anchor="start" x="338.5" y="-95.08" font-family="Times New Roman,serif" font-weight="bold" font-size="9.00">Secondary (G)</text>
<polygon fill="none" stroke="black" points="330.5,-83.38 330.5,-110.62 402.75,-110.62 402.75,-83.38 330.5,-83.38"/>
</g>
<!-- n_4_6&#45;&gt;n_4 -->
<g id="edge8" class="edge">
<title>n_4_6&#45;&gt;n_4</title>
<path fill="none" stroke="black" d="M377.66,-161.03C375.87,-150.85 373.56,-137.65 371.52,-125.96"/>
<polygon fill="black" stroke="black" points="375.02,-125.68 369.85,-116.43 368.13,-126.89 375.02,-125.68"/>
</g>
<!-- n_6 -->
<g id="node10" class="node">
<title>n_6</title>
<polygon fill="none" stroke="black" points="448.38,-84.38 448.38,-109.62 502.88,-109.62 502.88,-84.38 448.38,-84.38"/>
<text text-anchor="start" x="455.38" y="-95.08" font-family="Times New Roman,serif" font-weight="bold" font-size="9.00">University</text>
<polygon fill="none" stroke="black" points="447.38,-83.38 447.38,-110.62 503.88,-110.62 503.88,-83.38 447.38,-83.38"/>
</g>
<!-- n_4_6&#45;&gt;n_6 -->
<g id="edge9" class="edge">
<title>n_4_6&#45;&gt;n_6</title>
<path fill="none" stroke="black" d="M400.77,-161.03C414.25,-149.69 432.18,-134.58 447.12,-122.01"/>
<polygon fill="black" stroke="black" points="448.95,-125.04 454.35,-115.92 444.45,-119.68 448.95,-125.04"/>
</g>
<!-- n_3 -->
<g id="node12" class="node">
<title>n_3</title>
<polygon fill="none" stroke="black" points="505.25,-166.38 505.25,-191.62 574,-191.62 574,-166.38 505.25,-166.38"/>
<text text-anchor="start" x="512.25" y="-177.07" font-family="Times New Roman,serif" font-weight="bold" font-size="9.00">Secondary (P)</text>
<polygon fill="none" stroke="black" points="504.25,-165.38 504.25,-192.62 575,-192.62 575,-165.38 504.25,-165.38"/>
</g>
<!-- n_3_5&#45;&gt;n_3 -->
<g id="edge11" class="edge">
<title>n_3_5&#45;&gt;n_3</title>
<path fill="none" stroke="black" d="M545.28,-250.63C544.31,-238.52 542.98,-221.94 541.86,-207.88"/>
<polygon fill="black" stroke="black" points="545.38,-208.02 541.09,-198.33 538.4,-208.58 545.38,-208.02"/>
</g>
<!-- n_5 -->
<g id="node13" class="node">
<title>n_5</title>
<polygon fill="none" stroke="black" points="621.12,-166.38 621.12,-191.62 674.12,-191.62 674.12,-166.38 621.12,-166.38"/>
<text text-anchor="start" x="628.12" y="-177.07" font-family="Times New Roman,serif" font-weight="bold" font-size="9.00">Technical</text>
<polygon fill="none" stroke="black" points="620.12,-165.38 620.12,-192.62 675.12,-192.62 675.12,-165.38 620.12,-165.38"/>
</g>
<!-- n_3_5&#45;&gt;n_5 -->
<g id="edge12" class="edge">
<title>n_3_5&#45;&gt;n_5</title>
<path fill="none" stroke="black" d="M566.1,-250.63C581.33,-237.43 602.71,-218.92 619.75,-204.15"/>
<polygon fill="black" stroke="black" points="621.8,-207 627.07,-197.81 617.22,-201.71 621.8,-207"/>
</g>
</g>
</svg>
