<?xml version="1.0" encoding="UTF-8" standalone="no"?>
<!DOCTYPE svg PUBLIC "-//W3C//DTD SVG 1.1//EN"
 "http://www.w3.org/Graphics/SVG/1.1/DTD/svg11.dtd">
<!-- Generated by graphviz version 10.0.1 (20240210.2158)
 -->
<!-- Title: ND Pages: 1 -->
<svg width="560pt" height="638pt"
 viewBox="0.00 0.00 559.50 638.00" xmlns="http://www.w3.org/2000/svg" xmlns:xlink="http://www.w3.org/1999/xlink">
<g id="graph0" class="graph" transform="scale(1 1) rotate(0) translate(4 634)">
<title>ND</title>
<polygon fill="white" stroke="none" points="-4,4 -4,-634 555.5,-634 555.5,4 -4,4"/>
<!-- n_0_1_2_3_4_5_6 -->
<g id="node1" class="node">
<title>n_0_1_2_3_4_5_6</title>
<polygon fill="none" stroke="black" points="372.12,-557 372.12,-625 442.38,-625 442.38,-557 372.12,-557"/>
<text text-anchor="start" x="384.38" y="-610.45" font-family="Times New Roman,serif" font-weight="bold" font-size="9.00">Primary (P)</text>
<text text-anchor="start" x="388.12" y="-601.45" font-family="Times New Roman,serif" font-weight="bold" font-size="9.00">Preschool</text>
<text text-anchor="start" x="379.88" y="-592.45" font-family="Times New Roman,serif" font-weight="bold" font-size="9.00">Secondary (P)</text>
<text text-anchor="start" x="379.12" y="-583.45" font-family="Times New Roman,serif" font-weight="bold" font-size="9.00">Secondary (G)</text>
<text text-anchor="start" x="387.75" y="-574.45" font-family="Times New Roman,serif" font-weight="bold" font-size="9.00">Technical</text>
<text text-anchor="start" x="387" y="-565.45" font-family="Times New Roman,serif" font-weight="bold" font-size="9.00">University</text>
<polygon fill="none" stroke="black" points="442.38,-557 442.38,-625 503.62,-625 503.62,-557 442.38,-557"/>
<text text-anchor="start" x="449.38" y="-589.08" font-family="Times New Roman,serif" font-weight="bold" font-size="9.00">Primary (G)</text>
<polygon fill="none" stroke="black" points="371.12,-556 371.12,-626 504.62,-626 504.62,-556 371.12,-556"/>
</g>
<!-- n_0_2_3_4_5_6 -->
<g id="node2" class="node">
<title>n_0_2_3_4_5_6</title>
<polygon fill="none" stroke="black" points="295.38,-445 295.38,-504 365.62,-504 365.62,-445 295.38,-445"/>
<text text-anchor="start" x="307.62" y="-489.45" font-family="Times New Roman,serif" font-weight="bold" font-size="9.00">Primary (P)</text>
<text text-anchor="start" x="311.38" y="-480.45" font-family="Times New Roman,serif" font-weight="bold" font-size="9.00">Preschool</text>
<text text-anchor="start" x="302.38" y="-471.45" font-family="Times New Roman,serif" font-weight="bold" font-size="9.00">Secondary (G)</text>
<text text-anchor="start" x="311" y="-462.45" font-family="Times New Roman,serif" font-weight="bold" font-size="9.00">Technical</text>
<text text-anchor="start" x="310.25" y="-453.45" font-family="Times New Roman,serif" font-weight="bold" font-size="9.00">University</text>
<polygon fill="none" stroke="black" points="365.62,-445 365.62,-504 434.38,-504 434.38,-445 365.62,-445"/>
<text text-anchor="start" x="372.62" y="-472.57" font-family="Times New Roman,serif" font-weight="bold" font-size="9.00">Secondary (P)</text>
<polygon fill="none" stroke="black" points="294.38,-444 294.38,-505 435.38,-505 435.38,-444 294.38,-444"/>
</g>
<!-- n_0_1_2_3_4_5_6&#45;&gt;n_0_2_3_4_5_6 -->
<g id="edge1" class="edge">
<title>n_0_1_2_3_4_5_6&#45;&gt;n_0_2_3_4_5_6</title>
<path fill="none" stroke="black" d="M413.77,-552.19C406.83,-541.31 399.22,-529.36 392.1,-518.21"/>
<polygon fill="black" stroke="black" points="395.15,-516.48 386.82,-509.93 389.25,-520.24 395.15,-516.48"/>
</g>
<!-- n_1 -->
<g id="node13" class="node">
<title>n_1</title>
<polygon fill="none" stroke="black" points="481.25,-461.88 481.25,-487.12 542.5,-487.12 542.5,-461.88 481.25,-461.88"/>
<text text-anchor="start" x="488.25" y="-472.57" font-family="Times New Roman,serif" font-weight="bold" font-size="9.00">Primary (G)</text>
<polygon fill="none" stroke="black" points="480.25,-460.88 480.25,-488.12 543.5,-488.12 543.5,-460.88 480.25,-460.88"/>
</g>
<!-- n_0_1_2_3_4_5_6&#45;&gt;n_1 -->
<g id="edge12" class="edge">
<title>n_0_1_2_3_4_5_6&#45;&gt;n_1</title>
<path fill="none" stroke="black" d="M462.31,-552.19C472.91,-535.78 485.08,-516.96 494.7,-502.07"/>
<polygon fill="black" stroke="black" points="497.6,-504.03 500.09,-493.73 491.72,-500.23 497.6,-504.03"/>
</g>
<!-- n_0_2_4_5_6 -->
<g id="node3" class="node">
<title>n_0_2_4_5_6</title>
<polygon fill="none" stroke="black" points="230.5,-342 230.5,-392 300.75,-392 300.75,-342 230.5,-342"/>
<text text-anchor="start" x="242.75" y="-377.45" font-family="Times New Roman,serif" font-weight="bold" font-size="9.00">Primary (P)</text>
<text text-anchor="start" x="246.5" y="-368.45" font-family="Times New Roman,serif" font-weight="bold" font-size="9.00">Preschool</text>
<text text-anchor="start" x="237.5" y="-359.45" font-family="Times New Roman,serif" font-weight="bold" font-size="9.00">Secondary (G)</text>
<text text-anchor="start" x="246.12" y="-350.45" font-family="Times New Roman,serif" font-weight="bold" font-size="9.00">Technical</text>
<polygon fill="none" stroke="black" points="300.75,-342 300.75,-392 355.25,-392 355.25,-342 300.75,-342"/>
<text text-anchor="start" x="307.75" y="-365.07" font-family="Times New Roman,serif" font-weight="bold" font-size="9.00">University</text>
<polygon fill="none" stroke="black" points="229.5,-341 229.5,-393 356.25,-393 356.25,-341 229.5,-341"/>
</g>
<!-- n_0_2_3_4_5_6&#45;&gt;n_0_2_4_5_6 -->
<g id="edge2" class="edge">
<title>n_0_2_3_4_5_6&#45;&gt;n_0_2_4_5_6</title>
<path fill="none" stroke="black" d="M342.09,-440.12C334.76,-429.38 326.59,-417.4 319.04,-406.33"/>
<polygon fill="black" stroke="black" points="321.98,-404.44 313.45,-398.15 316.2,-408.38 321.98,-404.44"/>
</g>
<!-- n_3 -->
<g id="node12" class="node">
<title>n_3</title>
<polygon fill="none" stroke="black" points="402.5,-354.38 402.5,-379.62 471.25,-379.62 471.25,-354.38 402.5,-354.38"/>
<text text-anchor="start" x="409.5" y="-365.07" font-family="Times New Roman,serif" font-weight="bold" font-size="9.00">Secondary (P)</text>
<polygon fill="none" stroke="black" points="401.5,-353.38 401.5,-380.62 472.25,-380.62 472.25,-353.38 401.5,-353.38"/>
</g>
<!-- n_0_2_3_4_5_6&#45;&gt;n_3 -->
<g id="edge11" class="edge">
<title>n_0_2_3_4_5_6&#45;&gt;n_3</title>
<path fill="none" stroke="black" d="M387.66,-440.12C397.73,-425.35 409.42,-408.23 418.87,-394.38"/>
<polygon fill="black" stroke="black" points="421.71,-396.43 424.45,-386.2 415.93,-392.49 421.71,-396.43"/>
</g>
<!-- n_0_2_4_5 -->
<g id="node4" class="node">
<title>n_0_2_4_5</title>
<polygon fill="none" stroke="black" points="158.88,-248 158.88,-289 218.62,-289 218.62,-248 158.88,-248"/>
<text text-anchor="start" x="165.88" y="-274.45" font-family="Times New Roman,serif" font-weight="bold" font-size="9.00">Primary (P)</text>
<text text-anchor="start" x="169.62" y="-265.45" font-family="Times New Roman,serif" font-weight="bold" font-size="9.00">Preschool</text>
<text text-anchor="start" x="169.25" y="-256.45" font-family="Times New Roman,serif" font-weight="bold" font-size="9.00">Technical</text>
<polygon fill="none" stroke="black" points="218.62,-248 218.62,-289 288.88,-289 288.88,-248 218.62,-248"/>
<text text-anchor="start" x="225.62" y="-266.57" font-family="Times New Roman,serif" font-weight="bold" font-size="9.00">Secondary (G)</text>
<polygon fill="none" stroke="black" points="157.88,-247 157.88,-290 289.88,-290 289.88,-247 157.88,-247"/>
</g>
<!-- n_0_2_4_5_6&#45;&gt;n_0_2_4_5 -->
<g id="edge3" class="edge">
<title>n_0_2_4_5_6&#45;&gt;n_0_2_4_5</title>
<path fill="none" stroke="black" d="M272.17,-337.05C264.56,-326.4 255.87,-314.25 247.98,-303.22"/>
<polygon fill="black" stroke="black" points="250.85,-301.2 242.18,-295.11 245.15,-305.28 250.85,-301.2"/>
</g>
<!-- n_6 -->
<g id="node11" class="node">
<title>n_6</title>
<polygon fill="none" stroke="black" points="335.62,-255.88 335.62,-281.12 390.12,-281.12 390.12,-255.88 335.62,-255.88"/>
<text text-anchor="start" x="342.62" y="-266.57" font-family="Times New Roman,serif" font-weight="bold" font-size="9.00">University</text>
<polygon fill="none" stroke="black" points="334.62,-254.88 334.62,-282.12 391.12,-282.12 391.12,-254.88 334.62,-254.88"/>
</g>
<!-- n_0_2_4_5_6&#45;&gt;n_6 -->
<g id="edge10" class="edge">
<title>n_0_2_4_5_6&#45;&gt;n_6</title>
<path fill="none" stroke="black" d="M313.88,-337.05C323.44,-323.86 334.67,-308.38 343.97,-295.56"/>
<polygon fill="black" stroke="black" points="346.71,-297.74 349.75,-287.59 341.05,-293.63 346.71,-297.74"/>
</g>
<!-- n_0_2_5 -->
<g id="node5" class="node">
<title>n_0_2_5</title>
<polygon fill="none" stroke="black" points="98.88,-163 98.88,-195 158.62,-195 158.62,-163 98.88,-163"/>
<text text-anchor="start" x="105.88" y="-180.45" font-family="Times New Roman,serif" font-weight="bold" font-size="9.00">Primary (P)</text>
<text text-anchor="start" x="109.25" y="-171.45" font-family="Times New Roman,serif" font-weight="bold" font-size="9.00">Technical</text>
<polygon fill="none" stroke="black" points="158.62,-163 158.62,-195 210.88,-195 210.88,-163 158.62,-163"/>
<text text-anchor="start" x="165.62" y="-177.07" font-family="Times New Roman,serif" font-weight="bold" font-size="9.00">Preschool</text>
<polygon fill="none" stroke="black" points="97.88,-162 97.88,-196 211.88,-196 211.88,-162 97.88,-162"/>
</g>
<!-- n_0_2_4_5&#45;&gt;n_0_2_5 -->
<g id="edge4" class="edge">
<title>n_0_2_4_5&#45;&gt;n_0_2_5</title>
<path fill="none" stroke="black" d="M204.65,-243.13C196.24,-232.46 186.31,-219.87 177.54,-208.75"/>
<polygon fill="black" stroke="black" points="180.39,-206.7 171.45,-201.01 174.89,-211.03 180.39,-206.7"/>
</g>
<!-- n_4 -->
<g id="node10" class="node">
<title>n_4</title>
<polygon fill="none" stroke="black" points="257.75,-166.38 257.75,-191.62 328,-191.62 328,-166.38 257.75,-166.38"/>
<text text-anchor="start" x="264.75" y="-177.07" font-family="Times New Roman,serif" font-weight="bold" font-size="9.00">Secondary (G)</text>
<polygon fill="none" stroke="black" points="256.75,-165.38 256.75,-192.62 329,-192.62 329,-165.38 256.75,-165.38"/>
</g>
<!-- n_0_2_4_5&#45;&gt;n_4 -->
<g id="edge9" class="edge">
<title>n_0_2_4_5&#45;&gt;n_4</title>
<path fill="none" stroke="black" d="M243.1,-243.13C252.28,-231.48 263.28,-217.53 272.6,-205.71"/>
<polygon fill="black" stroke="black" points="275.27,-207.98 278.71,-197.96 269.77,-203.64 275.27,-207.98"/>
</g>
<!-- n_0_5 -->
<g id="node6" class="node">
<title>n_0_5</title>
<polygon fill="none" stroke="black" points="33.5,-84.38 33.5,-109.62 93.25,-109.62 93.25,-84.38 33.5,-84.38"/>
<text text-anchor="start" x="40.5" y="-95.08" font-family="Times New Roman,serif" font-weight="bold" font-size="9.00">Primary (P)</text>
<polygon fill="none" stroke="black" points="93.25,-84.38 93.25,-109.62 146.25,-109.62 146.25,-84.38 93.25,-84.38"/>
<text text-anchor="start" x="100.25" y="-95.08" font-family="Times New Roman,serif" font-weight="bold" font-size="9.00">Technical</text>
<polygon fill="none" stroke="black" points="32.5,-83.38 32.5,-110.62 147.25,-110.62 147.25,-83.38 32.5,-83.38"/>
</g>
<!-- n_0_2_5&#45;&gt;n_0_5 -->
<g id="edge5" class="edge">
<title>n_0_2_5&#45;&gt;n_0_5</title>
<path fill="none" stroke="black" d="M138.81,-158.22C130.35,-147.81 119.87,-134.92 110.79,-123.74"/>
<polygon fill="black" stroke="black" points="113.54,-121.57 104.52,-116.02 108.1,-125.99 113.54,-121.57"/>
</g>
<!-- n_2 -->
<g id="node9" class="node">
<title>n_2</title>
<polygon fill="none" stroke="black" points="193.75,-84.38 193.75,-109.62 246,-109.62 246,-84.38 193.75,-84.38"/>
<text text-anchor="start" x="200.75" y="-95.08" font-family="Times New Roman,serif" font-weight="bold" font-size="9.00">Preschool</text>
<polygon fill="none" stroke="black" points="192.75,-83.38 192.75,-110.62 247,-110.62 247,-83.38 192.75,-83.38"/>
</g>
<!-- n_0_2_5&#45;&gt;n_2 -->
<g id="edge8" class="edge">
<title>n_0_2_5&#45;&gt;n_2</title>
<path fill="none" stroke="black" d="M170.94,-158.22C179.4,-147.81 189.88,-134.92 198.96,-123.74"/>
<polygon fill="black" stroke="black" points="201.65,-125.99 205.23,-116.02 196.21,-121.57 201.65,-125.99"/>
</g>
<!-- n_0 -->
<g id="node7" class="node">
<title>n_0</title>
<polygon fill="none" stroke="black" points="9,-5.38 9,-30.62 68.75,-30.62 68.75,-5.38 9,-5.38"/>
<text text-anchor="start" x="16" y="-16.07" font-family="Times New Roman,serif" font-weight="bold" font-size="9.00">Primary (P)</text>
<polygon fill="none" stroke="black" points="8,-4.38 8,-31.62 69.75,-31.62 69.75,-4.38 8,-4.38"/>
</g>
<!-- n_0_5&#45;&gt;n_0 -->
<g id="edge6" class="edge">
<title>n_0_5&#45;&gt;n_0</title>
<path fill="none" stroke="black" d="M78.81,-79.29C72.24,-69.37 63.76,-56.57 56.31,-45.32"/>
<polygon fill="black" stroke="black" points="59.37,-43.61 50.93,-37.2 53.54,-47.47 59.37,-43.61"/>
</g>
<!-- n_5 -->
<g id="node8" class="node">
<title>n_5</title>
<polygon fill="none" stroke="black" points="115.38,-5.38 115.38,-30.62 168.38,-30.62 168.38,-5.38 115.38,-5.38"/>
<text text-anchor="start" x="122.38" y="-16.07" font-family="Times New Roman,serif" font-weight="bold" font-size="9.00">Technical</text>
<polygon fill="none" stroke="black" points="114.38,-4.38 114.38,-31.62 169.38,-31.62 169.38,-4.38 114.38,-4.38"/>
</g>
<!-- n_0_5&#45;&gt;n_5 -->
<g id="edge7" class="edge">
<title>n_0_5&#45;&gt;n_5</title>
<path fill="none" stroke="black" d="M101.16,-79.29C107.86,-69.37 116.5,-56.57 124.1,-45.32"/>
<polygon fill="black" stroke="black" points="126.89,-47.44 129.59,-37.2 121.09,-43.52 126.89,-47.44"/>
</g>
</g>
</svg>
