<?xml version="1.0" encoding="UTF-8" standalone="no"?>
<!DOCTYPE svg PUBLIC "-//W3C//DTD SVG 1.1//EN"
 "http://www.w3.org/Graphics/SVG/1.1/DTD/svg11.dtd">
<!-- Generated by graphviz version 10.0.1 (20240210.2158)
 -->
<!-- Title: ND Pages: 1 -->
<svg width="609pt" height="405pt"
 viewBox="0.00 0.00 608.75 405.00" xmlns="http://www.w3.org/2000/svg" xmlns:xlink="http://www.w3.org/1999/xlink">
<g id="graph0" class="graph" transform="scale(1 1) rotate(0) translate(4 401)">
<title>ND</title>
<polygon fill="white" stroke="none" points="-4,4 -4,-401 604.75,-401 604.75,4 -4,4"/>
<!-- n_0_1_2_3_4_5_6 -->
<g id="node1" class="node">
<title>n_0_1_2_3_4_5_6</title>
<polygon fill="none" stroke="black" points="290.38,-342 290.38,-392 360.62,-392 360.62,-342 290.38,-342"/>
<text text-anchor="start" x="302.62" y="-377.45" font-family="Times New Roman,serif" font-weight="bold" font-size="9.00">Primary (P)</text>
<text text-anchor="start" x="298.12" y="-368.45" font-family="Times New Roman,serif" font-weight="bold" font-size="9.00">Secondary (P)</text>
<text text-anchor="start" x="297.38" y="-359.45" font-family="Times New Roman,serif" font-weight="bold" font-size="9.00">Secondary (G)</text>
<text text-anchor="start" x="305.25" y="-350.45" font-family="Times New Roman,serif" font-weight="bold" font-size="9.00">University</text>
<polygon fill="none" stroke="black" points="360.62,-342 360.62,-392 421.88,-392 421.88,-342 360.62,-342"/>
<text text-anchor="start" x="367.62" y="-372.95" font-family="Times New Roman,serif" font-weight="bold" font-size="9.00">Primary (G)</text>
<text text-anchor="start" x="372.12" y="-363.95" font-family="Times New Roman,serif" font-weight="bold" font-size="9.00">Preschool</text>
<text text-anchor="start" x="371.75" y="-354.95" font-family="Times New Roman,serif" font-weight="bold" font-size="9.00">Technical</text>
<polygon fill="none" stroke="black" points="289.38,-341 289.38,-393 422.88,-393 422.88,-341 289.38,-341"/>
</g>
<!-- n_0_3_4_6 -->
<g id="node2" class="node">
<title>n_0_3_4_6</title>
<polygon fill="none" stroke="black" points="207.12,-248 207.12,-289 277.38,-289 277.38,-248 207.12,-248"/>
<text text-anchor="start" x="214.88" y="-274.45" font-family="Times New Roman,serif" font-weight="bold" font-size="9.00">Secondary (P)</text>
<text text-anchor="start" x="214.12" y="-265.45" font-family="Times New Roman,serif" font-weight="bold" font-size="9.00">Secondary (G)</text>
<text text-anchor="start" x="222" y="-256.45" font-family="Times New Roman,serif" font-weight="bold" font-size="9.00">University</text>
<polygon fill="none" stroke="black" points="277.38,-248 277.38,-289 337.12,-289 337.12,-248 277.38,-248"/>
<text text-anchor="start" x="284.38" y="-266.57" font-family="Times New Roman,serif" font-weight="bold" font-size="9.00">Primary (P)</text>
<polygon fill="none" stroke="black" points="206.12,-247 206.12,-290 338.12,-290 338.12,-247 206.12,-247"/>
</g>
<!-- n_0_1_2_3_4_5_6&#45;&gt;n_0_3_4_6 -->
<g id="edge1" class="edge">
<title>n_0_1_2_3_4_5_6&#45;&gt;n_0_3_4_6</title>
<path fill="none" stroke="black" d="M330.92,-337.05C321.47,-326.18 310.65,-313.76 300.89,-302.55"/>
<polygon fill="black" stroke="black" points="303.54,-300.26 294.34,-295.02 298.26,-304.86 303.54,-300.26"/>
</g>
<!-- n_1_2_5 -->
<g id="node9" class="node">
<title>n_1_2_5</title>
<polygon fill="none" stroke="black" points="384,-252.5 384,-284.5 437,-284.5 437,-252.5 384,-252.5"/>
<text text-anchor="start" x="391.38" y="-269.95" font-family="Times New Roman,serif" font-weight="bold" font-size="9.00">Preschool</text>
<text text-anchor="start" x="391" y="-260.95" font-family="Times New Roman,serif" font-weight="bold" font-size="9.00">Technical</text>
<polygon fill="none" stroke="black" points="437,-252.5 437,-284.5 498.25,-284.5 498.25,-252.5 437,-252.5"/>
<text text-anchor="start" x="444" y="-266.57" font-family="Times New Roman,serif" font-weight="bold" font-size="9.00">Primary (G)</text>
<polygon fill="none" stroke="black" points="383,-251.5 383,-285.5 499.25,-285.5 499.25,-251.5 383,-251.5"/>
</g>
<!-- n_0_1_2_3_4_5_6&#45;&gt;n_1_2_5 -->
<g id="edge8" class="edge">
<title>n_0_1_2_3_4_5_6&#45;&gt;n_1_2_5</title>
<path fill="none" stroke="black" d="M381.63,-337.05C392.57,-324.63 405.31,-310.17 416.18,-297.82"/>
<polygon fill="black" stroke="black" points="418.74,-300.21 422.72,-290.4 413.48,-295.59 418.74,-300.21"/>
</g>
<!-- n_3_4_6 -->
<g id="node3" class="node">
<title>n_3_4_6</title>
<polygon fill="none" stroke="black" points="66.62,-163 66.62,-195 136.88,-195 136.88,-163 66.62,-163"/>
<text text-anchor="start" x="73.62" y="-180.45" font-family="Times New Roman,serif" font-weight="bold" font-size="9.00">Secondary (G)</text>
<text text-anchor="start" x="81.5" y="-171.45" font-family="Times New Roman,serif" font-weight="bold" font-size="9.00">University</text>
<polygon fill="none" stroke="black" points="136.88,-163 136.88,-195 205.62,-195 205.62,-163 136.88,-163"/>
<text text-anchor="start" x="143.88" y="-177.07" font-family="Times New Roman,serif" font-weight="bold" font-size="9.00">Secondary (P)</text>
<polygon fill="none" stroke="black" points="65.62,-162 65.62,-196 206.62,-196 206.62,-162 65.62,-162"/>
</g>
<!-- n_0_3_4_6&#45;&gt;n_3_4_6 -->
<g id="edge2" class="edge">
<title>n_0_3_4_6&#45;&gt;n_3_4_6</title>
<path fill="none" stroke="black" d="M234.24,-243.13C216.25,-231.55 194.74,-217.71 176.45,-205.94"/>
<polygon fill="black" stroke="black" points="178.52,-203.11 168.21,-200.64 174.73,-209 178.52,-203.11"/>
</g>
<!-- n_0 -->
<g id="node8" class="node">
<title>n_0</title>
<polygon fill="none" stroke="black" points="252.25,-166.38 252.25,-191.62 312,-191.62 312,-166.38 252.25,-166.38"/>
<text text-anchor="start" x="259.25" y="-177.07" font-family="Times New Roman,serif" font-weight="bold" font-size="9.00">Primary (P)</text>
<polygon fill="none" stroke="black" points="251.25,-165.38 251.25,-192.62 313,-192.62 313,-165.38 251.25,-165.38"/>
</g>
<!-- n_0_3_4_6&#45;&gt;n_0 -->
<g id="edge7" class="edge">
<title>n_0_3_4_6&#45;&gt;n_0</title>
<path fill="none" stroke="black" d="M274.91,-243.13C276.15,-232.28 277.62,-219.45 278.9,-208.19"/>
<polygon fill="black" stroke="black" points="282.38,-208.61 280.04,-198.27 275.42,-207.81 282.38,-208.61"/>
</g>
<!-- n_4_6 -->
<g id="node4" class="node">
<title>n_4_6</title>
<polygon fill="none" stroke="black" points="35.75,-84.38 35.75,-109.62 106,-109.62 106,-84.38 35.75,-84.38"/>
<text text-anchor="start" x="42.75" y="-95.08" font-family="Times New Roman,serif" font-weight="bold" font-size="9.00">Secondary (G)</text>
<polygon fill="none" stroke="black" points="106,-84.38 106,-109.62 160.5,-109.62 160.5,-84.38 106,-84.38"/>
<text text-anchor="start" x="113" y="-95.08" font-family="Times New Roman,serif" font-weight="bold" font-size="9.00">University</text>
<polygon fill="none" stroke="black" points="34.75,-83.38 34.75,-110.62 161.5,-110.62 161.5,-83.38 34.75,-83.38"/>
</g>
<!-- n_3_4_6&#45;&gt;n_4_6 -->
<g id="edge3" class="edge">
<title>n_3_4_6&#45;&gt;n_4_6</title>
<path fill="none" stroke="black" d="M126.73,-158.22C121.98,-148.23 116.15,-135.95 110.99,-125.09"/>
<polygon fill="black" stroke="black" points="114.23,-123.74 106.78,-116.21 107.9,-126.75 114.23,-123.74"/>
</g>
<!-- n_3 -->
<g id="node7" class="node">
<title>n_3</title>
<polygon fill="none" stroke="black" points="207.75,-84.38 207.75,-109.62 276.5,-109.62 276.5,-84.38 207.75,-84.38"/>
<text text-anchor="start" x="214.75" y="-95.08" font-family="Times New Roman,serif" font-weight="bold" font-size="9.00">Secondary (P)</text>
<polygon fill="none" stroke="black" points="206.75,-83.38 206.75,-110.62 277.5,-110.62 277.5,-83.38 206.75,-83.38"/>
</g>
<!-- n_3_4_6&#45;&gt;n_3 -->
<g id="edge6" class="edge">
<title>n_3_4_6&#45;&gt;n_3</title>
<path fill="none" stroke="black" d="M162.6,-158.02C177.22,-146.98 195.48,-133.2 210.81,-121.63"/>
<polygon fill="black" stroke="black" points="212.84,-124.49 218.71,-115.67 208.62,-118.9 212.84,-124.49"/>
</g>
<!-- n_4 -->
<g id="node5" class="node">
<title>n_4</title>
<polygon fill="none" stroke="black" points="9,-5.38 9,-30.62 79.25,-30.62 79.25,-5.38 9,-5.38"/>
<text text-anchor="start" x="16" y="-16.07" font-family="Times New Roman,serif" font-weight="bold" font-size="9.00">Secondary (G)</text>
<polygon fill="none" stroke="black" points="8,-4.38 8,-31.62 80.25,-31.62 80.25,-4.38 8,-4.38"/>
</g>
<!-- n_4_6&#45;&gt;n_4 -->
<g id="edge4" class="edge">
<title>n_4_6&#45;&gt;n_4</title>
<path fill="none" stroke="black" d="M86.41,-79.29C79.45,-69.37 70.47,-56.57 62.58,-45.32"/>
<polygon fill="black" stroke="black" points="65.48,-43.36 56.87,-37.18 59.75,-47.38 65.48,-43.36"/>
</g>
<!-- n_6 -->
<g id="node6" class="node">
<title>n_6</title>
<polygon fill="none" stroke="black" points="125.88,-5.38 125.88,-30.62 180.38,-30.62 180.38,-5.38 125.88,-5.38"/>
<text text-anchor="start" x="132.88" y="-16.07" font-family="Times New Roman,serif" font-weight="bold" font-size="9.00">University</text>
<polygon fill="none" stroke="black" points="124.88,-4.38 124.88,-31.62 181.38,-31.62 181.38,-4.38 124.88,-4.38"/>
</g>
<!-- n_4_6&#45;&gt;n_6 -->
<g id="edge5" class="edge">
<title>n_4_6&#45;&gt;n_6</title>
<path fill="none" stroke="black" d="M110.06,-79.29C117.22,-69.27 126.47,-56.31 134.57,-44.98"/>
<polygon fill="black" stroke="black" points="137.18,-47.34 140.14,-37.17 131.48,-43.28 137.18,-47.34"/>
</g>
<!-- n_2_5 -->
<g id="node10" class="node">
<title>n_2_5</title>
<polygon fill="none" stroke="black" points="378.5,-166.38 378.5,-191.62 430.75,-191.62 430.75,-166.38 378.5,-166.38"/>
<text text-anchor="start" x="385.5" y="-177.07" font-family="Times New Roman,serif" font-weight="bold" font-size="9.00">Preschool</text>
<polygon fill="none" stroke="black" points="430.75,-166.38 430.75,-191.62 483.75,-191.62 483.75,-166.38 430.75,-166.38"/>
<text text-anchor="start" x="437.75" y="-177.07" font-family="Times New Roman,serif" font-weight="bold" font-size="9.00">Technical</text>
<polygon fill="none" stroke="black" points="377.5,-165.38 377.5,-192.62 484.75,-192.62 484.75,-165.38 377.5,-165.38"/>
</g>
<!-- n_1_2_5&#45;&gt;n_2_5 -->
<g id="edge9" class="edge">
<title>n_1_2_5&#45;&gt;n_2_5</title>
<path fill="none" stroke="black" d="M438.86,-247.64C437.51,-235.91 435.8,-220.86 434.32,-207.94"/>
<polygon fill="black" stroke="black" points="437.83,-207.87 433.22,-198.34 430.88,-208.67 437.83,-207.87"/>
</g>
<!-- n_1 -->
<g id="node13" class="node">
<title>n_1</title>
<polygon fill="none" stroke="black" points="530.5,-166.38 530.5,-191.62 591.75,-191.62 591.75,-166.38 530.5,-166.38"/>
<text text-anchor="start" x="537.5" y="-177.07" font-family="Times New Roman,serif" font-weight="bold" font-size="9.00">Primary (G)</text>
<polygon fill="none" stroke="black" points="529.5,-165.38 529.5,-192.62 592.75,-192.62 592.75,-165.38 529.5,-165.38"/>
</g>
<!-- n_1_2_5&#45;&gt;n_1 -->
<g id="edge12" class="edge">
<title>n_1_2_5&#45;&gt;n_1</title>
<path fill="none" stroke="black" d="M468.35,-247.64C486.34,-234.53 509.99,-217.29 528.91,-203.49"/>
<polygon fill="black" stroke="black" points="530.8,-206.44 536.82,-197.72 526.68,-200.79 530.8,-206.44"/>
</g>
<!-- n_2 -->
<g id="node11" class="node">
<title>n_2</title>
<polygon fill="none" stroke="black" points="364,-84.38 364,-109.62 416.25,-109.62 416.25,-84.38 364,-84.38"/>
<text text-anchor="start" x="371" y="-95.08" font-family="Times New Roman,serif" font-weight="bold" font-size="9.00">Preschool</text>
<polygon fill="none" stroke="black" points="363,-83.38 363,-110.62 417.25,-110.62 417.25,-83.38 363,-83.38"/>
</g>
<!-- n_2_5&#45;&gt;n_2 -->
<g id="edge10" class="edge">
<title>n_2_5&#45;&gt;n_2</title>
<path fill="none" stroke="black" d="M422.43,-161.03C417.05,-150.53 410.02,-136.82 403.89,-124.87"/>
<polygon fill="black" stroke="black" points="407.17,-123.59 399.5,-116.29 400.94,-126.78 407.17,-123.59"/>
</g>
<!-- n_5 -->
<g id="node12" class="node">
<title>n_5</title>
<polygon fill="none" stroke="black" points="463.62,-84.38 463.62,-109.62 516.62,-109.62 516.62,-84.38 463.62,-84.38"/>
<text text-anchor="start" x="470.62" y="-95.08" font-family="Times New Roman,serif" font-weight="bold" font-size="9.00">Technical</text>
<polygon fill="none" stroke="black" points="462.62,-83.38 462.62,-110.62 517.62,-110.62 517.62,-83.38 462.62,-83.38"/>
</g>
<!-- n_2_5&#45;&gt;n_5 -->
<g id="edge11" class="edge">
<title>n_2_5&#45;&gt;n_5</title>
<path fill="none" stroke="black" d="M443.64,-161.03C451.54,-150.32 461.9,-136.27 470.84,-124.15"/>
<polygon fill="black" stroke="black" points="473.61,-126.29 476.73,-116.16 467.98,-122.13 473.61,-126.29"/>
</g>
</g>
</svg>
