<?xml version="1.0" encoding="UTF-8" standalone="no"?>
<!DOCTYPE svg PUBLIC "-//W3C//DTD SVG 1.1//EN"
 "http://www.w3.org/Graphics/SVG/1.1/DTD/svg11.dtd">
<!-- Generated by graphviz version 10.0.1 (20240210.2158)
 -->
<!-- Title: ND Pages: 1 -->
<svg width="563pt" height="638pt"
 viewBox="0.00 0.00 563.25 638.00" xmlns="http://www.w3.org/2000/svg" xmlns:xlink="http://www.w3.org/1999/xlink">
<g id="graph0" class="graph" transform="scale(1 1) rotate(0) translate(4 634)">
<title>ND</title>
<polygon fill="white" stroke="none" points="-4,4 -4,-634 559.25,-634 559.25,4 -4,4"/>
<!-- n_0_1_2_3_4_5_6 -->
<g id="node1" class="node">
<title>n_0_1_2_3_4_5_6</title>
<polygon fill="none" stroke="black" points="382.38,-557 382.38,-625 452.62,-625 452.62,-557 382.38,-557"/>
<text text-anchor="start" x="393.88" y="-610.45" font-family="Times New Roman,serif" font-weight="bold" font-size="9.00">Primary (G)</text>
<text text-anchor="start" x="398.38" y="-601.45" font-family="Times New Roman,serif" font-weight="bold" font-size="9.00">Preschool</text>
<text text-anchor="start" x="390.12" y="-592.45" font-family="Times New Roman,serif" font-weight="bold" font-size="9.00">Secondary (P)</text>
<text text-anchor="start" x="389.38" y="-583.45" font-family="Times New Roman,serif" font-weight="bold" font-size="9.00">Secondary (G)</text>
<text text-anchor="start" x="398" y="-574.45" font-family="Times New Roman,serif" font-weight="bold" font-size="9.00">Technical</text>
<text text-anchor="start" x="397.25" y="-565.45" font-family="Times New Roman,serif" font-weight="bold" font-size="9.00">University</text>
<polygon fill="none" stroke="black" points="452.62,-557 452.62,-625 512.38,-625 512.38,-557 452.62,-557"/>
<text text-anchor="start" x="459.62" y="-589.08" font-family="Times New Roman,serif" font-weight="bold" font-size="9.00">Primary (P)</text>
<polygon fill="none" stroke="black" points="381.38,-556 381.38,-626 513.38,-626 513.38,-556 381.38,-556"/>
</g>
<!-- n_1_2_3_4_5_6 -->
<g id="node2" class="node">
<title>n_1_2_3_4_5_6</title>
<polygon fill="none" stroke="black" points="317.12,-445 317.12,-504 387.38,-504 387.38,-445 317.12,-445"/>
<text text-anchor="start" x="328.62" y="-489.45" font-family="Times New Roman,serif" font-weight="bold" font-size="9.00">Primary (G)</text>
<text text-anchor="start" x="324.88" y="-480.45" font-family="Times New Roman,serif" font-weight="bold" font-size="9.00">Secondary (P)</text>
<text text-anchor="start" x="324.12" y="-471.45" font-family="Times New Roman,serif" font-weight="bold" font-size="9.00">Secondary (G)</text>
<text text-anchor="start" x="332.75" y="-462.45" font-family="Times New Roman,serif" font-weight="bold" font-size="9.00">Technical</text>
<text text-anchor="start" x="332" y="-453.45" font-family="Times New Roman,serif" font-weight="bold" font-size="9.00">University</text>
<polygon fill="none" stroke="black" points="387.38,-445 387.38,-504 439.62,-504 439.62,-445 387.38,-445"/>
<text text-anchor="start" x="394.38" y="-472.57" font-family="Times New Roman,serif" font-weight="bold" font-size="9.00">Preschool</text>
<polygon fill="none" stroke="black" points="316.12,-444 316.12,-505 440.62,-505 440.62,-444 316.12,-444"/>
</g>
<!-- n_0_1_2_3_4_5_6&#45;&gt;n_1_2_3_4_5_6 -->
<g id="edge1" class="edge">
<title>n_0_1_2_3_4_5_6&#45;&gt;n_1_2_3_4_5_6</title>
<path fill="none" stroke="black" d="M424.59,-552.19C418.03,-541.31 410.83,-529.36 404.11,-518.21"/>
<polygon fill="black" stroke="black" points="407.29,-516.71 399.13,-509.95 401.3,-520.32 407.29,-516.71"/>
</g>
<!-- n_0 -->
<g id="node13" class="node">
<title>n_0</title>
<polygon fill="none" stroke="black" points="486.5,-461.88 486.5,-487.12 546.25,-487.12 546.25,-461.88 486.5,-461.88"/>
<text text-anchor="start" x="493.5" y="-472.57" font-family="Times New Roman,serif" font-weight="bold" font-size="9.00">Primary (P)</text>
<polygon fill="none" stroke="black" points="485.5,-460.88 485.5,-488.12 547.25,-488.12 547.25,-460.88 485.5,-460.88"/>
</g>
<!-- n_0_1_2_3_4_5_6&#45;&gt;n_0 -->
<g id="edge12" class="edge">
<title>n_0_1_2_3_4_5_6&#45;&gt;n_0</title>
<path fill="none" stroke="black" d="M470.16,-552.19C480.05,-535.78 491.39,-516.96 500.37,-502.07"/>
<polygon fill="black" stroke="black" points="503.21,-504.13 505.37,-493.76 497.21,-500.52 503.21,-504.13"/>
</g>
<!-- n_1_3_4_5_6 -->
<g id="node3" class="node">
<title>n_1_3_4_5_6</title>
<polygon fill="none" stroke="black" points="243.62,-342 243.62,-392 313.88,-392 313.88,-342 243.62,-342"/>
<text text-anchor="start" x="251.38" y="-377.45" font-family="Times New Roman,serif" font-weight="bold" font-size="9.00">Secondary (P)</text>
<text text-anchor="start" x="250.62" y="-368.45" font-family="Times New Roman,serif" font-weight="bold" font-size="9.00">Secondary (G)</text>
<text text-anchor="start" x="259.25" y="-359.45" font-family="Times New Roman,serif" font-weight="bold" font-size="9.00">Technical</text>
<text text-anchor="start" x="258.5" y="-350.45" font-family="Times New Roman,serif" font-weight="bold" font-size="9.00">University</text>
<polygon fill="none" stroke="black" points="313.88,-342 313.88,-392 375.12,-392 375.12,-342 313.88,-342"/>
<text text-anchor="start" x="320.88" y="-365.07" font-family="Times New Roman,serif" font-weight="bold" font-size="9.00">Primary (G)</text>
<polygon fill="none" stroke="black" points="242.62,-341 242.62,-393 376.12,-393 376.12,-341 242.62,-341"/>
</g>
<!-- n_1_2_3_4_5_6&#45;&gt;n_1_3_4_5_6 -->
<g id="edge2" class="edge">
<title>n_1_2_3_4_5_6&#45;&gt;n_1_3_4_5_6</title>
<path fill="none" stroke="black" d="M356.54,-440.12C349.52,-429.38 341.68,-417.4 334.45,-406.33"/>
<polygon fill="black" stroke="black" points="337.51,-404.62 329.1,-398.16 331.65,-408.45 337.51,-404.62"/>
</g>
<!-- n_2 -->
<g id="node12" class="node">
<title>n_2</title>
<polygon fill="none" stroke="black" points="422.25,-354.38 422.25,-379.62 474.5,-379.62 474.5,-354.38 422.25,-354.38"/>
<text text-anchor="start" x="429.25" y="-365.07" font-family="Times New Roman,serif" font-weight="bold" font-size="9.00">Preschool</text>
<polygon fill="none" stroke="black" points="421.25,-353.38 421.25,-380.62 475.5,-380.62 475.5,-353.38 421.25,-353.38"/>
</g>
<!-- n_1_2_3_4_5_6&#45;&gt;n_2 -->
<g id="edge11" class="edge">
<title>n_1_2_3_4_5_6&#45;&gt;n_2</title>
<path fill="none" stroke="black" d="M400.52,-440.12C410.32,-425.35 421.68,-408.23 430.87,-394.38"/>
<polygon fill="black" stroke="black" points="433.68,-396.48 436.29,-386.21 427.85,-392.61 433.68,-396.48"/>
</g>
<!-- n_3_4_5_6 -->
<g id="node4" class="node">
<title>n_3_4_5_6</title>
<polygon fill="none" stroke="black" points="178.75,-248 178.75,-289 249,-289 249,-248 178.75,-248"/>
<text text-anchor="start" x="186.5" y="-274.45" font-family="Times New Roman,serif" font-weight="bold" font-size="9.00">Secondary (P)</text>
<text text-anchor="start" x="185.75" y="-265.45" font-family="Times New Roman,serif" font-weight="bold" font-size="9.00">Secondary (G)</text>
<text text-anchor="start" x="193.62" y="-256.45" font-family="Times New Roman,serif" font-weight="bold" font-size="9.00">University</text>
<polygon fill="none" stroke="black" points="249,-248 249,-289 302,-289 302,-248 249,-248"/>
<text text-anchor="start" x="256" y="-266.57" font-family="Times New Roman,serif" font-weight="bold" font-size="9.00">Technical</text>
<polygon fill="none" stroke="black" points="177.75,-247 177.75,-290 303,-290 303,-247 177.75,-247"/>
</g>
<!-- n_1_3_4_5_6&#45;&gt;n_3_4_5_6 -->
<g id="edge3" class="edge">
<title>n_1_3_4_5_6&#45;&gt;n_3_4_5_6</title>
<path fill="none" stroke="black" d="M288.67,-337.05C281.06,-326.4 272.37,-314.25 264.48,-303.22"/>
<polygon fill="black" stroke="black" points="267.35,-301.2 258.68,-295.11 261.65,-305.28 267.35,-301.2"/>
</g>
<!-- n_1 -->
<g id="node11" class="node">
<title>n_1</title>
<polygon fill="none" stroke="black" points="348.75,-255.88 348.75,-281.12 410,-281.12 410,-255.88 348.75,-255.88"/>
<text text-anchor="start" x="355.75" y="-266.57" font-family="Times New Roman,serif" font-weight="bold" font-size="9.00">Primary (G)</text>
<polygon fill="none" stroke="black" points="347.75,-254.88 347.75,-282.12 411,-282.12 411,-254.88 347.75,-254.88"/>
</g>
<!-- n_1_3_4_5_6&#45;&gt;n_1 -->
<g id="edge10" class="edge">
<title>n_1_3_4_5_6&#45;&gt;n_1</title>
<path fill="none" stroke="black" d="M330.38,-337.05C339.94,-323.86 351.17,-308.38 360.47,-295.56"/>
<polygon fill="black" stroke="black" points="363.21,-297.74 366.25,-287.59 357.55,-293.63 363.21,-297.74"/>
</g>
<!-- n_3_4_6 -->
<g id="node5" class="node">
<title>n_3_4_6</title>
<polygon fill="none" stroke="black" points="99.88,-163 99.88,-195 168.62,-195 168.62,-163 99.88,-163"/>
<text text-anchor="start" x="106.88" y="-180.45" font-family="Times New Roman,serif" font-weight="bold" font-size="9.00">Secondary (P)</text>
<text text-anchor="start" x="114" y="-171.45" font-family="Times New Roman,serif" font-weight="bold" font-size="9.00">University</text>
<polygon fill="none" stroke="black" points="168.62,-163 168.62,-195 238.88,-195 238.88,-163 168.62,-163"/>
<text text-anchor="start" x="175.62" y="-177.07" font-family="Times New Roman,serif" font-weight="bold" font-size="9.00">Secondary (G)</text>
<polygon fill="none" stroke="black" points="98.88,-162 98.88,-196 239.88,-196 239.88,-162 98.88,-162"/>
</g>
<!-- n_3_4_5_6&#45;&gt;n_3_4_6 -->
<g id="edge4" class="edge">
<title>n_3_4_5_6&#45;&gt;n_3_4_6</title>
<path fill="none" stroke="black" d="M220.6,-243.13C211.94,-232.46 201.72,-219.87 192.7,-208.75"/>
<polygon fill="black" stroke="black" points="195.43,-206.56 186.42,-201 190,-210.97 195.43,-206.56"/>
</g>
<!-- n_5 -->
<g id="node10" class="node">
<title>n_5</title>
<polygon fill="none" stroke="black" points="285.88,-166.38 285.88,-191.62 338.88,-191.62 338.88,-166.38 285.88,-166.38"/>
<text text-anchor="start" x="292.88" y="-177.07" font-family="Times New Roman,serif" font-weight="bold" font-size="9.00">Technical</text>
<polygon fill="none" stroke="black" points="284.88,-165.38 284.88,-192.62 339.88,-192.62 339.88,-165.38 284.88,-165.38"/>
</g>
<!-- n_3_4_5_6&#45;&gt;n_5 -->
<g id="edge9" class="edge">
<title>n_3_4_5_6&#45;&gt;n_5</title>
<path fill="none" stroke="black" d="M260.43,-243.13C270.11,-231.36 281.72,-217.25 291.51,-205.36"/>
<polygon fill="black" stroke="black" points="293.96,-207.89 297.61,-197.94 288.56,-203.44 293.96,-207.89"/>
</g>
<!-- n_3_6 -->
<g id="node6" class="node">
<title>n_3_6</title>
<polygon fill="none" stroke="black" points="35.75,-84.38 35.75,-109.62 104.5,-109.62 104.5,-84.38 35.75,-84.38"/>
<text text-anchor="start" x="42.75" y="-95.08" font-family="Times New Roman,serif" font-weight="bold" font-size="9.00">Secondary (P)</text>
<polygon fill="none" stroke="black" points="104.5,-84.38 104.5,-109.62 159,-109.62 159,-84.38 104.5,-84.38"/>
<text text-anchor="start" x="111.5" y="-95.08" font-family="Times New Roman,serif" font-weight="bold" font-size="9.00">University</text>
<polygon fill="none" stroke="black" points="34.75,-83.38 34.75,-110.62 160,-110.62 160,-83.38 34.75,-83.38"/>
</g>
<!-- n_3_4_6&#45;&gt;n_3_6 -->
<g id="edge5" class="edge">
<title>n_3_4_6&#45;&gt;n_3_6</title>
<path fill="none" stroke="black" d="M151.58,-158.22C142.02,-147.61 130.14,-134.41 119.94,-123.07"/>
<polygon fill="black" stroke="black" points="122.84,-121.06 113.55,-115.97 117.64,-125.74 122.84,-121.06"/>
</g>
<!-- n_4 -->
<g id="node9" class="node">
<title>n_4</title>
<polygon fill="none" stroke="black" points="206.25,-84.38 206.25,-109.62 276.5,-109.62 276.5,-84.38 206.25,-84.38"/>
<text text-anchor="start" x="213.25" y="-95.08" font-family="Times New Roman,serif" font-weight="bold" font-size="9.00">Secondary (G)</text>
<polygon fill="none" stroke="black" points="205.25,-83.38 205.25,-110.62 277.5,-110.62 277.5,-83.38 205.25,-83.38"/>
</g>
<!-- n_3_4_6&#45;&gt;n_4 -->
<g id="edge8" class="edge">
<title>n_3_4_6&#45;&gt;n_4</title>
<path fill="none" stroke="black" d="M187.17,-158.22C196.73,-147.61 208.61,-134.41 218.81,-123.07"/>
<polygon fill="black" stroke="black" points="221.11,-125.74 225.2,-115.97 215.91,-121.06 221.11,-125.74"/>
</g>
<!-- n_3 -->
<g id="node7" class="node">
<title>n_3</title>
<polygon fill="none" stroke="black" points="9,-5.38 9,-30.62 77.75,-30.62 77.75,-5.38 9,-5.38"/>
<text text-anchor="start" x="16" y="-16.07" font-family="Times New Roman,serif" font-weight="bold" font-size="9.00">Secondary (P)</text>
<polygon fill="none" stroke="black" points="8,-4.38 8,-31.62 78.75,-31.62 78.75,-4.38 8,-4.38"/>
</g>
<!-- n_3_6&#45;&gt;n_3 -->
<g id="edge6" class="edge">
<title>n_3_6&#45;&gt;n_3</title>
<path fill="none" stroke="black" d="M85.66,-79.29C78.7,-69.37 69.72,-56.57 61.83,-45.32"/>
<polygon fill="black" stroke="black" points="64.73,-43.36 56.12,-37.18 59,-47.38 64.73,-43.36"/>
</g>
<!-- n_6 -->
<g id="node8" class="node">
<title>n_6</title>
<polygon fill="none" stroke="black" points="125.12,-5.38 125.12,-30.62 179.62,-30.62 179.62,-5.38 125.12,-5.38"/>
<text text-anchor="start" x="132.12" y="-16.07" font-family="Times New Roman,serif" font-weight="bold" font-size="9.00">University</text>
<polygon fill="none" stroke="black" points="124.12,-4.38 124.12,-31.62 180.62,-31.62 180.62,-4.38 124.12,-4.38"/>
</g>
<!-- n_3_6&#45;&gt;n_6 -->
<g id="edge7" class="edge">
<title>n_3_6&#45;&gt;n_6</title>
<path fill="none" stroke="black" d="M109.31,-79.29C116.47,-69.27 125.72,-56.31 133.82,-44.98"/>
<polygon fill="black" stroke="black" points="136.43,-47.34 139.39,-37.17 130.73,-43.28 136.43,-47.34"/>
</g>
</g>
</svg>
