<?xml version="1.0" encoding="UTF-8" standalone="no"?>
<!DOCTYPE svg PUBLIC "-//W3C//DTD SVG 1.1//EN"
 "http://www.w3.org/Graphics/SVG/1.1/DTD/svg11.dtd">
<!-- Generated by graphviz version 10.0.1 (20240210.2158)
 -->
<!-- Title: ND Pages: 1 -->
<svg width="648pt" height="423pt"
 viewBox="0.00 0.00 648.12 423.00" xmlns="http://www.w3.org/2000/svg" xmlns:xlink="http://www.w3.org/1999/xlink">
<g id="graph0" class="graph" transform="scale(1 1) rotate(0) translate(4 419)">
<title>ND</title>
<polygon fill="white" stroke="none" points="-4,4 -4,-419 644.12,-419 644.12,4 -4,4"/>
<!-- n_0_1_2_3_4_5_6 -->
<g id="node1" class="node">
<title>n_0_1_2_3_4_5_6</title>
<polygon fill="none" stroke="black" points="373.5,-351 373.5,-410 443.75,-410 443.75,-351 373.5,-351"/>
<text text-anchor="start" x="385.75" y="-395.45" font-family="Times New Roman,serif" font-weight="bold" font-size="9.00">Primary (P)</text>
<text text-anchor="start" x="385" y="-386.45" font-family="Times New Roman,serif" font-weight="bold" font-size="9.00">Primary (G)</text>
<text text-anchor="start" x="381.25" y="-377.45" font-family="Times New Roman,serif" font-weight="bold" font-size="9.00">Secondary (P)</text>
<text text-anchor="start" x="380.5" y="-368.45" font-family="Times New Roman,serif" font-weight="bold" font-size="9.00">Secondary (G)</text>
<text text-anchor="start" x="389.12" y="-359.45" font-family="Times New Roman,serif" font-weight="bold" font-size="9.00">Technical</text>
<polygon fill="none" stroke="black" points="443.75,-351 443.75,-410 498.25,-410 498.25,-351 443.75,-351"/>
<text text-anchor="start" x="451.88" y="-381.95" font-family="Times New Roman,serif" font-weight="bold" font-size="9.00">Preschool</text>
<text text-anchor="start" x="450.75" y="-372.95" font-family="Times New Roman,serif" font-weight="bold" font-size="9.00">University</text>
<polygon fill="none" stroke="black" points="372.5,-350 372.5,-411 499.25,-411 499.25,-350 372.5,-350"/>
</g>
<!-- n_0_1_3_4_5 -->
<g id="node2" class="node">
<title>n_0_1_3_4_5</title>
<polygon fill="none" stroke="black" points="287.12,-248 287.12,-298 357.38,-298 357.38,-248 287.12,-248"/>
<text text-anchor="start" x="299.38" y="-283.45" font-family="Times New Roman,serif" font-weight="bold" font-size="9.00">Primary (P)</text>
<text text-anchor="start" x="294.88" y="-274.45" font-family="Times New Roman,serif" font-weight="bold" font-size="9.00">Secondary (P)</text>
<text text-anchor="start" x="294.12" y="-265.45" font-family="Times New Roman,serif" font-weight="bold" font-size="9.00">Secondary (G)</text>
<text text-anchor="start" x="302.75" y="-256.45" font-family="Times New Roman,serif" font-weight="bold" font-size="9.00">Technical</text>
<polygon fill="none" stroke="black" points="357.38,-248 357.38,-298 418.62,-298 418.62,-248 357.38,-248"/>
<text text-anchor="start" x="364.38" y="-271.07" font-family="Times New Roman,serif" font-weight="bold" font-size="9.00">Primary (G)</text>
<polygon fill="none" stroke="black" points="286.12,-247 286.12,-299 419.62,-299 419.62,-247 286.12,-247"/>
</g>
<!-- n_0_1_2_3_4_5_6&#45;&gt;n_0_1_3_4_5 -->
<g id="edge1" class="edge">
<title>n_0_1_2_3_4_5_6&#45;&gt;n_0_1_3_4_5</title>
<path fill="none" stroke="black" d="M409.61,-346.12C400.99,-335.16 391.36,-322.91 382.51,-311.66"/>
<polygon fill="black" stroke="black" points="385.48,-309.78 376.55,-304.09 379.98,-314.11 385.48,-309.78"/>
</g>
<!-- n_2_6 -->
<g id="node11" class="node">
<title>n_2_6</title>
<polygon fill="none" stroke="black" points="465.5,-260.38 465.5,-285.62 517.75,-285.62 517.75,-260.38 465.5,-260.38"/>
<text text-anchor="start" x="472.5" y="-271.07" font-family="Times New Roman,serif" font-weight="bold" font-size="9.00">Preschool</text>
<polygon fill="none" stroke="black" points="517.75,-260.38 517.75,-285.62 572.25,-285.62 572.25,-260.38 517.75,-260.38"/>
<text text-anchor="start" x="524.75" y="-271.07" font-family="Times New Roman,serif" font-weight="bold" font-size="9.00">University</text>
<polygon fill="none" stroke="black" points="464.5,-259.38 464.5,-286.62 573.25,-286.62 573.25,-259.38 464.5,-259.38"/>
</g>
<!-- n_0_1_2_3_4_5_6&#45;&gt;n_2_6 -->
<g id="edge10" class="edge">
<title>n_0_1_2_3_4_5_6&#45;&gt;n_2_6</title>
<path fill="none" stroke="black" d="M462.14,-346.12C473.87,-331.21 487.48,-313.9 498.44,-299.98"/>
<polygon fill="black" stroke="black" points="501.17,-302.16 504.6,-292.14 495.67,-297.84 501.17,-302.16"/>
</g>
<!-- n_0_3_4_5 -->
<g id="node3" class="node">
<title>n_0_3_4_5</title>
<polygon fill="none" stroke="black" points="152.38,-163 152.38,-195 221.12,-195 221.12,-163 152.38,-163"/>
<text text-anchor="start" x="163.88" y="-180.45" font-family="Times New Roman,serif" font-weight="bold" font-size="9.00">Primary (P)</text>
<text text-anchor="start" x="159.38" y="-171.45" font-family="Times New Roman,serif" font-weight="bold" font-size="9.00">Secondary (P)</text>
<polygon fill="none" stroke="black" points="221.12,-163 221.12,-195 291.38,-195 291.38,-163 221.12,-163"/>
<text text-anchor="start" x="228.12" y="-180.45" font-family="Times New Roman,serif" font-weight="bold" font-size="9.00">Secondary (G)</text>
<text text-anchor="start" x="236.75" y="-171.45" font-family="Times New Roman,serif" font-weight="bold" font-size="9.00">Technical</text>
<polygon fill="none" stroke="black" points="151.38,-162 151.38,-196 292.38,-196 292.38,-162 151.38,-162"/>
</g>
<!-- n_0_1_3_4_5&#45;&gt;n_0_3_4_5 -->
<g id="edge2" class="edge">
<title>n_0_1_3_4_5&#45;&gt;n_0_3_4_5</title>
<path fill="none" stroke="black" d="M311.79,-243.14C294.97,-231.34 275.66,-217.77 259.25,-206.25"/>
<polygon fill="black" stroke="black" points="261.4,-203.48 251.21,-200.6 257.38,-209.21 261.4,-203.48"/>
</g>
<!-- n_1 -->
<g id="node10" class="node">
<title>n_1</title>
<polygon fill="none" stroke="black" points="338.25,-166.38 338.25,-191.62 399.5,-191.62 399.5,-166.38 338.25,-166.38"/>
<text text-anchor="start" x="345.25" y="-177.07" font-family="Times New Roman,serif" font-weight="bold" font-size="9.00">Primary (G)</text>
<polygon fill="none" stroke="black" points="337.25,-165.38 337.25,-192.62 400.5,-192.62 400.5,-165.38 337.25,-165.38"/>
</g>
<!-- n_0_1_3_4_5&#45;&gt;n_1 -->
<g id="edge9" class="edge">
<title>n_0_1_3_4_5&#45;&gt;n_1</title>
<path fill="none" stroke="black" d="M357.89,-243.14C359.83,-232 362.04,-219.29 363.97,-208.2"/>
<polygon fill="black" stroke="black" points="367.4,-208.91 365.66,-198.46 360.5,-207.71 367.4,-208.91"/>
</g>
<!-- n_0_3 -->
<g id="node4" class="node">
<title>n_0_3</title>
<polygon fill="none" stroke="black" points="71.62,-84.38 71.62,-109.62 131.38,-109.62 131.38,-84.38 71.62,-84.38"/>
<text text-anchor="start" x="78.62" y="-95.08" font-family="Times New Roman,serif" font-weight="bold" font-size="9.00">Primary (P)</text>
<polygon fill="none" stroke="black" points="131.38,-84.38 131.38,-109.62 200.12,-109.62 200.12,-84.38 131.38,-84.38"/>
<text text-anchor="start" x="138.38" y="-95.08" font-family="Times New Roman,serif" font-weight="bold" font-size="9.00">Secondary (P)</text>
<polygon fill="none" stroke="black" points="70.62,-83.38 70.62,-110.62 201.12,-110.62 201.12,-83.38 70.62,-83.38"/>
</g>
<!-- n_0_3_4_5&#45;&gt;n_0_3 -->
<g id="edge3" class="edge">
<title>n_0_3_4_5&#45;&gt;n_0_3</title>
<path fill="none" stroke="black" d="M200.62,-158.22C188.98,-147.4 174.45,-133.89 162.11,-122.41"/>
<polygon fill="black" stroke="black" points="164.8,-120.12 155.09,-115.87 160.03,-125.25 164.8,-120.12"/>
</g>
<!-- n_4_5 -->
<g id="node7" class="node">
<title>n_4_5</title>
<polygon fill="none" stroke="black" points="247.25,-84.38 247.25,-109.62 317.5,-109.62 317.5,-84.38 247.25,-84.38"/>
<text text-anchor="start" x="254.25" y="-95.08" font-family="Times New Roman,serif" font-weight="bold" font-size="9.00">Secondary (G)</text>
<polygon fill="none" stroke="black" points="317.5,-84.38 317.5,-109.62 370.5,-109.62 370.5,-84.38 317.5,-84.38"/>
<text text-anchor="start" x="324.5" y="-95.08" font-family="Times New Roman,serif" font-weight="bold" font-size="9.00">Technical</text>
<polygon fill="none" stroke="black" points="246.25,-83.38 246.25,-110.62 371.5,-110.62 371.5,-83.38 246.25,-83.38"/>
</g>
<!-- n_0_3_4_5&#45;&gt;n_4_5 -->
<g id="edge6" class="edge">
<title>n_0_3_4_5&#45;&gt;n_4_5</title>
<path fill="none" stroke="black" d="M243.38,-158.22C255.16,-147.4 269.85,-133.89 282.33,-122.41"/>
<polygon fill="black" stroke="black" points="284.45,-125.21 289.44,-115.87 279.71,-120.06 284.45,-125.21"/>
</g>
<!-- n_0 -->
<g id="node5" class="node">
<title>n_0</title>
<polygon fill="none" stroke="black" points="9,-5.38 9,-30.62 68.75,-30.62 68.75,-5.38 9,-5.38"/>
<text text-anchor="start" x="16" y="-16.07" font-family="Times New Roman,serif" font-weight="bold" font-size="9.00">Primary (P)</text>
<polygon fill="none" stroke="black" points="8,-4.38 8,-31.62 69.75,-31.62 69.75,-4.38 8,-4.38"/>
</g>
<!-- n_0_3&#45;&gt;n_0 -->
<g id="edge4" class="edge">
<title>n_0_3&#45;&gt;n_0</title>
<path fill="none" stroke="black" d="M114.83,-79.29C101.45,-68.67 83.91,-54.75 69.06,-42.96"/>
<polygon fill="black" stroke="black" points="71.41,-40.36 61.4,-36.88 67.06,-45.84 71.41,-40.36"/>
</g>
<!-- n_3 -->
<g id="node6" class="node">
<title>n_3</title>
<polygon fill="none" stroke="black" points="115.5,-5.38 115.5,-30.62 184.25,-30.62 184.25,-5.38 115.5,-5.38"/>
<text text-anchor="start" x="122.5" y="-16.07" font-family="Times New Roman,serif" font-weight="bold" font-size="9.00">Secondary (P)</text>
<polygon fill="none" stroke="black" points="114.5,-4.38 114.5,-31.62 185.25,-31.62 185.25,-4.38 114.5,-4.38"/>
</g>
<!-- n_0_3&#45;&gt;n_3 -->
<g id="edge5" class="edge">
<title>n_0_3&#45;&gt;n_3</title>
<path fill="none" stroke="black" d="M138.91,-79.29C140.63,-69.87 142.81,-57.86 144.78,-47.04"/>
<polygon fill="black" stroke="black" points="148.18,-47.9 146.52,-37.43 141.29,-46.64 148.18,-47.9"/>
</g>
<!-- n_4 -->
<g id="node8" class="node">
<title>n_4</title>
<polygon fill="none" stroke="black" points="259.75,-5.38 259.75,-30.62 330,-30.62 330,-5.38 259.75,-5.38"/>
<text text-anchor="start" x="266.75" y="-16.07" font-family="Times New Roman,serif" font-weight="bold" font-size="9.00">Secondary (G)</text>
<polygon fill="none" stroke="black" points="258.75,-4.38 258.75,-31.62 331,-31.62 331,-4.38 258.75,-4.38"/>
</g>
<!-- n_4_5&#45;&gt;n_4 -->
<g id="edge7" class="edge">
<title>n_4_5&#45;&gt;n_4</title>
<path fill="none" stroke="black" d="M305.84,-79.29C304.12,-69.87 301.94,-57.86 299.97,-47.04"/>
<polygon fill="black" stroke="black" points="303.46,-46.64 298.23,-37.43 296.57,-47.9 303.46,-46.64"/>
</g>
<!-- n_5 -->
<g id="node9" class="node">
<title>n_5</title>
<polygon fill="none" stroke="black" points="377.38,-5.38 377.38,-30.62 430.38,-30.62 430.38,-5.38 377.38,-5.38"/>
<text text-anchor="start" x="384.38" y="-16.07" font-family="Times New Roman,serif" font-weight="bold" font-size="9.00">Technical</text>
<polygon fill="none" stroke="black" points="376.38,-4.38 376.38,-31.62 431.38,-31.62 431.38,-4.38 376.38,-4.38"/>
</g>
<!-- n_4_5&#45;&gt;n_5 -->
<g id="edge8" class="edge">
<title>n_4_5&#45;&gt;n_5</title>
<path fill="none" stroke="black" d="M329.49,-79.29C342.59,-68.67 359.77,-54.75 374.32,-42.96"/>
<polygon fill="black" stroke="black" points="376.23,-45.91 381.8,-36.89 371.83,-40.47 376.23,-45.91"/>
</g>
<!-- n_2 -->
<g id="node12" class="node">
<title>n_2</title>
<polygon fill="none" stroke="black" points="477.75,-166.38 477.75,-191.62 530,-191.62 530,-166.38 477.75,-166.38"/>
<text text-anchor="start" x="484.75" y="-177.07" font-family="Times New Roman,serif" font-weight="bold" font-size="9.00">Preschool</text>
<polygon fill="none" stroke="black" points="476.75,-165.38 476.75,-192.62 531,-192.62 531,-165.38 476.75,-165.38"/>
</g>
<!-- n_2_6&#45;&gt;n_2 -->
<g id="edge11" class="edge">
<title>n_2_6&#45;&gt;n_2</title>
<path fill="none" stroke="black" d="M516.12,-255.13C513.97,-241.9 510.92,-223.21 508.41,-207.78"/>
<polygon fill="black" stroke="black" points="511.92,-207.57 506.85,-198.26 505.01,-208.69 511.92,-207.57"/>
</g>
<!-- n_6 -->
<g id="node13" class="node">
<title>n_6</title>
<polygon fill="none" stroke="black" points="576.62,-166.38 576.62,-191.62 631.12,-191.62 631.12,-166.38 576.62,-166.38"/>
<text text-anchor="start" x="583.62" y="-177.07" font-family="Times New Roman,serif" font-weight="bold" font-size="9.00">University</text>
<polygon fill="none" stroke="black" points="575.62,-165.38 575.62,-192.62 632.12,-192.62 632.12,-165.38 575.62,-165.38"/>
</g>
<!-- n_2_6&#45;&gt;n_6 -->
<g id="edge12" class="edge">
<title>n_2_6&#45;&gt;n_6</title>
<path fill="none" stroke="black" d="M534.47,-255.13C547.41,-241.12 566,-220.99 580.69,-205.1"/>
<polygon fill="black" stroke="black" points="583.14,-207.6 587.36,-197.88 578,-202.85 583.14,-207.6"/>
</g>
</g>
</svg>
