<?xml version="1.0" encoding="UTF-8" standalone="no"?>
<!DOCTYPE svg PUBLIC "-//W3C//DTD SVG 1.1//EN"
 "http://www.w3.org/Graphics/SVG/1.1/DTD/svg11.dtd">
<!-- Generated by graphviz version 10.0.1 (20240210.2158)
 -->
<!-- Title: ND Pages: 1 -->
<svg width="558pt" height="535pt"
 viewBox="0.00 0.00 557.62 535.00" xmlns="http://www.w3.org/2000/svg" xmlns:xlink="http://www.w3.org/1999/xlink">
<g id="graph0" class="graph" transform="scale(1 1) rotate(0) translate(4 531)">
<title>ND</title>
<polygon fill="white" stroke="none" points="-4,4 -4,-531 553.62,-531 553.62,4 -4,4"/>
<!-- n_0_1_2_3_4_5_6 -->
<g id="node1" class="node">
<title>n_0_1_2_3_4_5_6</title>
<polygon fill="none" stroke="black" points="382.5,-454 382.5,-522 452.75,-522 452.75,-454 382.5,-454"/>
<text text-anchor="start" x="394.75" y="-507.45" font-family="Times New Roman,serif" font-weight="bold" font-size="9.00">Primary (P)</text>
<text text-anchor="start" x="394" y="-498.45" font-family="Times New Roman,serif" font-weight="bold" font-size="9.00">Primary (G)</text>
<text text-anchor="start" x="398.5" y="-489.45" font-family="Times New Roman,serif" font-weight="bold" font-size="9.00">Preschool</text>
<text text-anchor="start" x="390.25" y="-480.45" font-family="Times New Roman,serif" font-weight="bold" font-size="9.00">Secondary (P)</text>
<text text-anchor="start" x="389.5" y="-471.45" font-family="Times New Roman,serif" font-weight="bold" font-size="9.00">Secondary (G)</text>
<text text-anchor="start" x="397.38" y="-462.45" font-family="Times New Roman,serif" font-weight="bold" font-size="9.00">University</text>
<polygon fill="none" stroke="black" points="452.75,-454 452.75,-522 505.75,-522 505.75,-454 452.75,-454"/>
<text text-anchor="start" x="459.75" y="-486.07" font-family="Times New Roman,serif" font-weight="bold" font-size="9.00">Technical</text>
<polygon fill="none" stroke="black" points="381.5,-453 381.5,-523 506.75,-523 506.75,-453 381.5,-453"/>
</g>
<!-- n_0_1_2_3_4_6 -->
<g id="node2" class="node">
<title>n_0_1_2_3_4_6</title>
<polygon fill="none" stroke="black" points="309.38,-342 309.38,-401 379.62,-401 379.62,-342 309.38,-342"/>
<text text-anchor="start" x="321.62" y="-386.45" font-family="Times New Roman,serif" font-weight="bold" font-size="9.00">Primary (P)</text>
<text text-anchor="start" x="325.38" y="-377.45" font-family="Times New Roman,serif" font-weight="bold" font-size="9.00">Preschool</text>
<text text-anchor="start" x="317.12" y="-368.45" font-family="Times New Roman,serif" font-weight="bold" font-size="9.00">Secondary (P)</text>
<text text-anchor="start" x="316.38" y="-359.45" font-family="Times New Roman,serif" font-weight="bold" font-size="9.00">Secondary (G)</text>
<text text-anchor="start" x="324.25" y="-350.45" font-family="Times New Roman,serif" font-weight="bold" font-size="9.00">University</text>
<polygon fill="none" stroke="black" points="379.62,-342 379.62,-401 440.88,-401 440.88,-342 379.62,-342"/>
<text text-anchor="start" x="386.62" y="-369.57" font-family="Times New Roman,serif" font-weight="bold" font-size="9.00">Primary (G)</text>
<polygon fill="none" stroke="black" points="308.38,-341 308.38,-402 441.88,-402 441.88,-341 308.38,-341"/>
</g>
<!-- n_0_1_2_3_4_5_6&#45;&gt;n_0_1_2_3_4_6 -->
<g id="edge1" class="edge">
<title>n_0_1_2_3_4_5_6&#45;&gt;n_0_1_2_3_4_6</title>
<path fill="none" stroke="black" d="M421.34,-449.19C414.78,-438.31 407.58,-426.36 400.86,-415.21"/>
<polygon fill="black" stroke="black" points="404.04,-413.71 395.88,-406.95 398.05,-417.32 404.04,-413.71"/>
</g>
<!-- n_5 -->
<g id="node13" class="node">
<title>n_5</title>
<polygon fill="none" stroke="black" points="487.62,-358.88 487.62,-384.12 540.62,-384.12 540.62,-358.88 487.62,-358.88"/>
<text text-anchor="start" x="494.62" y="-369.57" font-family="Times New Roman,serif" font-weight="bold" font-size="9.00">Technical</text>
<polygon fill="none" stroke="black" points="486.62,-357.88 486.62,-385.12 541.62,-385.12 541.62,-357.88 486.62,-357.88"/>
</g>
<!-- n_0_1_2_3_4_5_6&#45;&gt;n_5 -->
<g id="edge12" class="edge">
<title>n_0_1_2_3_4_5_6&#45;&gt;n_5</title>
<path fill="none" stroke="black" d="M467.24,-449.19C477.27,-432.78 488.78,-413.96 497.88,-399.07"/>
<polygon fill="black" stroke="black" points="500.74,-401.11 502.97,-390.75 494.76,-397.46 500.74,-401.11"/>
</g>
<!-- n_0_2_3_4_6 -->
<g id="node3" class="node">
<title>n_0_2_3_4_6</title>
<polygon fill="none" stroke="black" points="232.62,-248 232.62,-289 302.88,-289 302.88,-248 232.62,-248"/>
<text text-anchor="start" x="248.62" y="-274.45" font-family="Times New Roman,serif" font-weight="bold" font-size="9.00">Preschool</text>
<text text-anchor="start" x="239.62" y="-265.45" font-family="Times New Roman,serif" font-weight="bold" font-size="9.00">Secondary (G)</text>
<text text-anchor="start" x="247.5" y="-256.45" font-family="Times New Roman,serif" font-weight="bold" font-size="9.00">University</text>
<polygon fill="none" stroke="black" points="302.88,-248 302.88,-289 371.62,-289 371.62,-248 302.88,-248"/>
<text text-anchor="start" x="314.38" y="-269.95" font-family="Times New Roman,serif" font-weight="bold" font-size="9.00">Primary (P)</text>
<text text-anchor="start" x="309.88" y="-260.95" font-family="Times New Roman,serif" font-weight="bold" font-size="9.00">Secondary (P)</text>
<polygon fill="none" stroke="black" points="231.62,-247 231.62,-290 372.62,-290 372.62,-247 231.62,-247"/>
</g>
<!-- n_0_1_2_3_4_6&#45;&gt;n_0_2_3_4_6 -->
<g id="edge2" class="edge">
<title>n_0_1_2_3_4_6&#45;&gt;n_0_2_3_4_6</title>
<path fill="none" stroke="black" d="M351.02,-337.15C343.12,-326.22 334.34,-314.07 326.42,-303.12"/>
<polygon fill="black" stroke="black" points="329.31,-301.14 320.62,-295.09 323.64,-305.24 329.31,-301.14"/>
</g>
<!-- n_1 -->
<g id="node12" class="node">
<title>n_1</title>
<polygon fill="none" stroke="black" points="418.5,-255.88 418.5,-281.12 479.75,-281.12 479.75,-255.88 418.5,-255.88"/>
<text text-anchor="start" x="425.5" y="-266.57" font-family="Times New Roman,serif" font-weight="bold" font-size="9.00">Primary (G)</text>
<polygon fill="none" stroke="black" points="417.5,-254.88 417.5,-282.12 480.75,-282.12 480.75,-254.88 417.5,-254.88"/>
</g>
<!-- n_0_1_2_3_4_6&#45;&gt;n_1 -->
<g id="edge11" class="edge">
<title>n_0_1_2_3_4_6&#45;&gt;n_1</title>
<path fill="none" stroke="black" d="M399.56,-337.15C409.49,-323.6 420.79,-308.17 430.09,-295.48"/>
<polygon fill="black" stroke="black" points="432.78,-297.74 435.86,-287.6 427.13,-293.6 432.78,-297.74"/>
</g>
<!-- n_2_4_6 -->
<g id="node4" class="node">
<title>n_2_4_6</title>
<polygon fill="none" stroke="black" points="154.88,-163 154.88,-195 225.12,-195 225.12,-163 154.88,-163"/>
<text text-anchor="start" x="161.88" y="-180.45" font-family="Times New Roman,serif" font-weight="bold" font-size="9.00">Secondary (G)</text>
<text text-anchor="start" x="169.75" y="-171.45" font-family="Times New Roman,serif" font-weight="bold" font-size="9.00">University</text>
<polygon fill="none" stroke="black" points="225.12,-163 225.12,-195 277.38,-195 277.38,-163 225.12,-163"/>
<text text-anchor="start" x="232.12" y="-177.07" font-family="Times New Roman,serif" font-weight="bold" font-size="9.00">Preschool</text>
<polygon fill="none" stroke="black" points="153.88,-162 153.88,-196 278.38,-196 278.38,-162 153.88,-162"/>
</g>
<!-- n_0_2_3_4_6&#45;&gt;n_2_4_6 -->
<g id="edge3" class="edge">
<title>n_0_2_3_4_6&#45;&gt;n_2_4_6</title>
<path fill="none" stroke="black" d="M278.17,-243.13C267.37,-232.14 254.56,-219.11 243.4,-207.75"/>
<polygon fill="black" stroke="black" points="246.18,-205.58 236.67,-200.91 241.19,-210.49 246.18,-205.58"/>
</g>
<!-- n_0_3 -->
<g id="node9" class="node">
<title>n_0_3</title>
<polygon fill="none" stroke="black" points="324.88,-166.38 324.88,-191.62 384.62,-191.62 384.62,-166.38 324.88,-166.38"/>
<text text-anchor="start" x="331.88" y="-177.07" font-family="Times New Roman,serif" font-weight="bold" font-size="9.00">Primary (P)</text>
<polygon fill="none" stroke="black" points="384.62,-166.38 384.62,-191.62 453.38,-191.62 453.38,-166.38 384.62,-166.38"/>
<text text-anchor="start" x="391.62" y="-177.07" font-family="Times New Roman,serif" font-weight="bold" font-size="9.00">Secondary (P)</text>
<polygon fill="none" stroke="black" points="323.88,-165.38 323.88,-192.62 454.38,-192.62 454.38,-165.38 323.88,-165.38"/>
</g>
<!-- n_0_2_3_4_6&#45;&gt;n_0_3 -->
<g id="edge8" class="edge">
<title>n_0_2_3_4_6&#45;&gt;n_0_3</title>
<path fill="none" stroke="black" d="M326.36,-243.13C338.29,-231.13 352.64,-216.7 364.61,-204.66"/>
<polygon fill="black" stroke="black" points="366.81,-207.4 371.38,-197.84 361.85,-202.47 366.81,-207.4"/>
</g>
<!-- n_4_6 -->
<g id="node5" class="node">
<title>n_4_6</title>
<polygon fill="none" stroke="black" points="35.75,-84.38 35.75,-109.62 106,-109.62 106,-84.38 35.75,-84.38"/>
<text text-anchor="start" x="42.75" y="-95.08" font-family="Times New Roman,serif" font-weight="bold" font-size="9.00">Secondary (G)</text>
<polygon fill="none" stroke="black" points="106,-84.38 106,-109.62 160.5,-109.62 160.5,-84.38 106,-84.38"/>
<text text-anchor="start" x="113" y="-95.08" font-family="Times New Roman,serif" font-weight="bold" font-size="9.00">University</text>
<polygon fill="none" stroke="black" points="34.75,-83.38 34.75,-110.62 161.5,-110.62 161.5,-83.38 34.75,-83.38"/>
</g>
<!-- n_2_4_6&#45;&gt;n_4_6 -->
<g id="edge4" class="edge">
<title>n_2_4_6&#45;&gt;n_4_6</title>
<path fill="none" stroke="black" d="M186.65,-158.02C170.07,-146.77 149.28,-132.68 132.02,-120.98"/>
<polygon fill="black" stroke="black" points="134.34,-118.32 124.1,-115.61 130.41,-124.12 134.34,-118.32"/>
</g>
<!-- n_2 -->
<g id="node8" class="node">
<title>n_2</title>
<polygon fill="none" stroke="black" points="208,-84.38 208,-109.62 260.25,-109.62 260.25,-84.38 208,-84.38"/>
<text text-anchor="start" x="215" y="-95.08" font-family="Times New Roman,serif" font-weight="bold" font-size="9.00">Preschool</text>
<polygon fill="none" stroke="black" points="207,-83.38 207,-110.62 261.25,-110.62 261.25,-83.38 207,-83.38"/>
</g>
<!-- n_2_4_6&#45;&gt;n_2 -->
<g id="edge7" class="edge">
<title>n_2_4_6&#45;&gt;n_2</title>
<path fill="none" stroke="black" d="M220.57,-158.22C222.78,-148.44 225.47,-136.46 227.88,-125.77"/>
<polygon fill="black" stroke="black" points="231.22,-126.84 230,-116.32 224.39,-125.31 231.22,-126.84"/>
</g>
<!-- n_4 -->
<g id="node6" class="node">
<title>n_4</title>
<polygon fill="none" stroke="black" points="9,-5.38 9,-30.62 79.25,-30.62 79.25,-5.38 9,-5.38"/>
<text text-anchor="start" x="16" y="-16.07" font-family="Times New Roman,serif" font-weight="bold" font-size="9.00">Secondary (G)</text>
<polygon fill="none" stroke="black" points="8,-4.38 8,-31.62 80.25,-31.62 80.25,-4.38 8,-4.38"/>
</g>
<!-- n_4_6&#45;&gt;n_4 -->
<g id="edge5" class="edge">
<title>n_4_6&#45;&gt;n_4</title>
<path fill="none" stroke="black" d="M86.41,-79.29C79.45,-69.37 70.47,-56.57 62.58,-45.32"/>
<polygon fill="black" stroke="black" points="65.48,-43.36 56.87,-37.18 59.75,-47.38 65.48,-43.36"/>
</g>
<!-- n_6 -->
<g id="node7" class="node">
<title>n_6</title>
<polygon fill="none" stroke="black" points="125.88,-5.38 125.88,-30.62 180.38,-30.62 180.38,-5.38 125.88,-5.38"/>
<text text-anchor="start" x="132.88" y="-16.07" font-family="Times New Roman,serif" font-weight="bold" font-size="9.00">University</text>
<polygon fill="none" stroke="black" points="124.88,-4.38 124.88,-31.62 181.38,-31.62 181.38,-4.38 124.88,-4.38"/>
</g>
<!-- n_4_6&#45;&gt;n_6 -->
<g id="edge6" class="edge">
<title>n_4_6&#45;&gt;n_6</title>
<path fill="none" stroke="black" d="M110.06,-79.29C117.22,-69.27 126.47,-56.31 134.57,-44.98"/>
<polygon fill="black" stroke="black" points="137.18,-47.34 140.14,-37.17 131.48,-43.28 137.18,-47.34"/>
</g>
<!-- n_0 -->
<g id="node10" class="node">
<title>n_0</title>
<polygon fill="none" stroke="black" points="342.25,-84.38 342.25,-109.62 402,-109.62 402,-84.38 342.25,-84.38"/>
<text text-anchor="start" x="349.25" y="-95.08" font-family="Times New Roman,serif" font-weight="bold" font-size="9.00">Primary (P)</text>
<polygon fill="none" stroke="black" points="341.25,-83.38 341.25,-110.62 403,-110.62 403,-83.38 341.25,-83.38"/>
</g>
<!-- n_0_3&#45;&gt;n_0 -->
<g id="edge9" class="edge">
<title>n_0_3&#45;&gt;n_0</title>
<path fill="none" stroke="black" d="M385.52,-161.03C383.36,-150.85 380.55,-137.65 378.07,-125.96"/>
<polygon fill="black" stroke="black" points="381.54,-125.48 376.04,-116.42 374.69,-126.93 381.54,-125.48"/>
</g>
<!-- n_3 -->
<g id="node11" class="node">
<title>n_3</title>
<polygon fill="none" stroke="black" points="448.75,-84.38 448.75,-109.62 517.5,-109.62 517.5,-84.38 448.75,-84.38"/>
<text text-anchor="start" x="455.75" y="-95.08" font-family="Times New Roman,serif" font-weight="bold" font-size="9.00">Secondary (P)</text>
<polygon fill="none" stroke="black" points="447.75,-83.38 447.75,-110.62 518.5,-110.62 518.5,-83.38 447.75,-83.38"/>
</g>
<!-- n_0_3&#45;&gt;n_3 -->
<g id="edge10" class="edge">
<title>n_0_3&#45;&gt;n_3</title>
<path fill="none" stroke="black" d="M409.06,-161.03C422.27,-149.79 439.81,-134.87 454.5,-122.36"/>
<polygon fill="black" stroke="black" points="456.72,-125.07 462.07,-115.92 452.18,-119.74 456.72,-125.07"/>
</g>
</g>
</svg>
