<?xml version="1.0" encoding="UTF-8" standalone="no"?>
<!DOCTYPE svg PUBLIC "-//W3C//DTD SVG 1.1//EN"
 "http://www.w3.org/Graphics/SVG/1.1/DTD/svg11.dtd">
<!-- Generated by graphviz version 10.0.1 (20240210.2158)
 -->
<!-- Title: ND Pages: 1 -->
<svg width="544pt" height="423pt"
 viewBox="0.00 0.00 543.50 423.00" xmlns="http://www.w3.org/2000/svg" xmlns:xlink="http://www.w3.org/1999/xlink">
<g id="graph0" class="graph" transform="scale(1 1) rotate(0) translate(4 419)">
<title>ND</title>
<polygon fill="white" stroke="none" points="-4,4 -4,-419 539.5,-419 539.5,4 -4,4"/>
<!-- n_0_1_2_3_4_5_6 -->
<g id="node1" class="node">
<title>n_0_1_2_3_4_5_6</title>
<polygon fill="none" stroke="black" points="295,-342 295,-410 365.25,-410 365.25,-342 295,-342"/>
<text text-anchor="start" x="306.5" y="-395.45" font-family="Times New Roman,serif" font-weight="bold" font-size="9.00">Primary (G)</text>
<text text-anchor="start" x="311" y="-386.45" font-family="Times New Roman,serif" font-weight="bold" font-size="9.00">Preschool</text>
<text text-anchor="start" x="302.75" y="-377.45" font-family="Times New Roman,serif" font-weight="bold" font-size="9.00">Secondary (P)</text>
<text text-anchor="start" x="302" y="-368.45" font-family="Times New Roman,serif" font-weight="bold" font-size="9.00">Secondary (G)</text>
<text text-anchor="start" x="310.62" y="-359.45" font-family="Times New Roman,serif" font-weight="bold" font-size="9.00">Technical</text>
<text text-anchor="start" x="309.88" y="-350.45" font-family="Times New Roman,serif" font-weight="bold" font-size="9.00">University</text>
<polygon fill="none" stroke="black" points="365.25,-342 365.25,-410 425,-410 425,-342 365.25,-342"/>
<text text-anchor="start" x="372.25" y="-374.07" font-family="Times New Roman,serif" font-weight="bold" font-size="9.00">Primary (P)</text>
<polygon fill="none" stroke="black" points="294,-341 294,-411 426,-411 426,-341 294,-341"/>
</g>
<!-- n_1_2_3_4_5_6 -->
<g id="node2" class="node">
<title>n_1_2_3_4_5_6</title>
<polygon fill="none" stroke="black" points="217.5,-248 217.5,-289 286.25,-289 286.25,-248 217.5,-248"/>
<text text-anchor="start" x="228.25" y="-274.45" font-family="Times New Roman,serif" font-weight="bold" font-size="9.00">Primary (G)</text>
<text text-anchor="start" x="232.75" y="-265.45" font-family="Times New Roman,serif" font-weight="bold" font-size="9.00">Preschool</text>
<text text-anchor="start" x="224.5" y="-256.45" font-family="Times New Roman,serif" font-weight="bold" font-size="9.00">Secondary (P)</text>
<polygon fill="none" stroke="black" points="286.25,-248 286.25,-289 356.5,-289 356.5,-248 286.25,-248"/>
<text text-anchor="start" x="293.25" y="-274.45" font-family="Times New Roman,serif" font-weight="bold" font-size="9.00">Secondary (G)</text>
<text text-anchor="start" x="301.88" y="-265.45" font-family="Times New Roman,serif" font-weight="bold" font-size="9.00">Technical</text>
<text text-anchor="start" x="301.12" y="-256.45" font-family="Times New Roman,serif" font-weight="bold" font-size="9.00">University</text>
<polygon fill="none" stroke="black" points="216.5,-247 216.5,-290 357.5,-290 357.5,-247 216.5,-247"/>
</g>
<!-- n_0_1_2_3_4_5_6&#45;&gt;n_1_2_3_4_5_6 -->
<g id="edge1" class="edge">
<title>n_0_1_2_3_4_5_6&#45;&gt;n_1_2_3_4_5_6</title>
<path fill="none" stroke="black" d="M333.85,-337.21C326.13,-326.05 317.74,-313.92 310.21,-303.05"/>
<polygon fill="black" stroke="black" points="313.3,-301.35 304.73,-295.12 307.54,-305.34 313.3,-301.35"/>
</g>
<!-- n_0 -->
<g id="node13" class="node">
<title>n_0</title>
<polygon fill="none" stroke="black" points="403.12,-255.88 403.12,-281.12 462.88,-281.12 462.88,-255.88 403.12,-255.88"/>
<text text-anchor="start" x="410.12" y="-266.57" font-family="Times New Roman,serif" font-weight="bold" font-size="9.00">Primary (P)</text>
<polygon fill="none" stroke="black" points="402.12,-254.88 402.12,-282.12 463.88,-282.12 463.88,-254.88 402.12,-254.88"/>
</g>
<!-- n_0_1_2_3_4_5_6&#45;&gt;n_0 -->
<g id="edge12" class="edge">
<title>n_0_1_2_3_4_5_6&#45;&gt;n_0</title>
<path fill="none" stroke="black" d="M386.15,-337.21C395.64,-323.49 406.15,-308.31 414.8,-295.8"/>
<polygon fill="black" stroke="black" points="417.62,-297.88 420.43,-287.66 411.86,-293.89 417.62,-297.88"/>
</g>
<!-- n_1_2_3 -->
<g id="node3" class="node">
<title>n_1_2_3</title>
<polygon fill="none" stroke="black" points="142.5,-163 142.5,-195 211.25,-195 211.25,-163 142.5,-163"/>
<text text-anchor="start" x="153.25" y="-180.45" font-family="Times New Roman,serif" font-weight="bold" font-size="9.00">Primary (G)</text>
<text text-anchor="start" x="149.5" y="-171.45" font-family="Times New Roman,serif" font-weight="bold" font-size="9.00">Secondary (P)</text>
<polygon fill="none" stroke="black" points="211.25,-163 211.25,-195 263.5,-195 263.5,-163 211.25,-163"/>
<text text-anchor="start" x="218.25" y="-177.07" font-family="Times New Roman,serif" font-weight="bold" font-size="9.00">Preschool</text>
<polygon fill="none" stroke="black" points="141.5,-162 141.5,-196 264.5,-196 264.5,-162 141.5,-162"/>
</g>
<!-- n_1_2_3_4_5_6&#45;&gt;n_1_2_3 -->
<g id="edge2" class="edge">
<title>n_1_2_3_4_5_6&#45;&gt;n_1_2_3</title>
<path fill="none" stroke="black" d="M263.6,-243.13C253.16,-232.25 240.79,-219.36 229.96,-208.08"/>
<polygon fill="black" stroke="black" points="232.53,-205.71 223.08,-200.92 227.48,-210.56 232.53,-205.71"/>
</g>
<!-- n_4_5_6 -->
<g id="node8" class="node">
<title>n_4_5_6</title>
<polygon fill="none" stroke="black" points="310.38,-163 310.38,-195 380.62,-195 380.62,-163 310.38,-163"/>
<text text-anchor="start" x="317.38" y="-180.45" font-family="Times New Roman,serif" font-weight="bold" font-size="9.00">Secondary (G)</text>
<text text-anchor="start" x="325.25" y="-171.45" font-family="Times New Roman,serif" font-weight="bold" font-size="9.00">University</text>
<polygon fill="none" stroke="black" points="380.62,-163 380.62,-195 433.62,-195 433.62,-163 380.62,-163"/>
<text text-anchor="start" x="387.62" y="-177.07" font-family="Times New Roman,serif" font-weight="bold" font-size="9.00">Technical</text>
<polygon fill="none" stroke="black" points="309.38,-162 309.38,-196 434.62,-196 434.62,-162 309.38,-162"/>
</g>
<!-- n_1_2_3_4_5_6&#45;&gt;n_4_5_6 -->
<g id="edge7" class="edge">
<title>n_1_2_3_4_5_6&#45;&gt;n_4_5_6</title>
<path fill="none" stroke="black" d="M310.68,-243.13C321.25,-232.25 333.76,-219.36 344.72,-208.08"/>
<polygon fill="black" stroke="black" points="347.23,-210.52 351.69,-200.91 342.21,-205.65 347.23,-210.52"/>
</g>
<!-- n_1_3 -->
<g id="node4" class="node">
<title>n_1_3</title>
<polygon fill="none" stroke="black" points="9,-84.38 9,-109.62 70.25,-109.62 70.25,-84.38 9,-84.38"/>
<text text-anchor="start" x="16" y="-95.08" font-family="Times New Roman,serif" font-weight="bold" font-size="9.00">Primary (G)</text>
<polygon fill="none" stroke="black" points="70.25,-84.38 70.25,-109.62 139,-109.62 139,-84.38 70.25,-84.38"/>
<text text-anchor="start" x="77.25" y="-95.08" font-family="Times New Roman,serif" font-weight="bold" font-size="9.00">Secondary (P)</text>
<polygon fill="none" stroke="black" points="8,-83.38 8,-110.62 140,-110.62 140,-83.38 8,-83.38"/>
</g>
<!-- n_1_2_3&#45;&gt;n_1_3 -->
<g id="edge3" class="edge">
<title>n_1_2_3&#45;&gt;n_1_3</title>
<path fill="none" stroke="black" d="M170.78,-158.02C152.56,-146.72 129.71,-132.55 110.79,-120.82"/>
<polygon fill="black" stroke="black" points="112.65,-117.85 102.31,-115.56 108.96,-123.8 112.65,-117.85"/>
</g>
<!-- n_2 -->
<g id="node7" class="node">
<title>n_2</title>
<polygon fill="none" stroke="black" points="185.88,-84.38 185.88,-109.62 238.12,-109.62 238.12,-84.38 185.88,-84.38"/>
<text text-anchor="start" x="192.88" y="-95.08" font-family="Times New Roman,serif" font-weight="bold" font-size="9.00">Preschool</text>
<polygon fill="none" stroke="black" points="184.88,-83.38 184.88,-110.62 239.12,-110.62 239.12,-83.38 184.88,-83.38"/>
</g>
<!-- n_1_2_3&#45;&gt;n_2 -->
<g id="edge6" class="edge">
<title>n_1_2_3&#45;&gt;n_2</title>
<path fill="none" stroke="black" d="M205.22,-158.22C206.31,-148.54 207.64,-136.72 208.84,-126.11"/>
<polygon fill="black" stroke="black" points="212.3,-126.68 209.94,-116.35 205.34,-125.89 212.3,-126.68"/>
</g>
<!-- n_1 -->
<g id="node5" class="node">
<title>n_1</title>
<polygon fill="none" stroke="black" points="11.38,-5.38 11.38,-30.62 72.62,-30.62 72.62,-5.38 11.38,-5.38"/>
<text text-anchor="start" x="18.38" y="-16.07" font-family="Times New Roman,serif" font-weight="bold" font-size="9.00">Primary (G)</text>
<polygon fill="none" stroke="black" points="10.38,-4.38 10.38,-31.62 73.62,-31.62 73.62,-4.38 10.38,-4.38"/>
</g>
<!-- n_1_3&#45;&gt;n_1 -->
<g id="edge4" class="edge">
<title>n_1_3&#45;&gt;n_1</title>
<path fill="none" stroke="black" d="M67.06,-79.29C63.06,-69.67 57.94,-57.34 53.36,-46.35"/>
<polygon fill="black" stroke="black" points="56.69,-45.23 49.62,-37.34 50.23,-47.92 56.69,-45.23"/>
</g>
<!-- n_3 -->
<g id="node6" class="node">
<title>n_3</title>
<polygon fill="none" stroke="black" points="119.62,-5.38 119.62,-30.62 188.38,-30.62 188.38,-5.38 119.62,-5.38"/>
<text text-anchor="start" x="126.62" y="-16.07" font-family="Times New Roman,serif" font-weight="bold" font-size="9.00">Secondary (P)</text>
<polygon fill="none" stroke="black" points="118.62,-4.38 118.62,-31.62 189.38,-31.62 189.38,-4.38 118.62,-4.38"/>
</g>
<!-- n_1_3&#45;&gt;n_3 -->
<g id="edge5" class="edge">
<title>n_1_3&#45;&gt;n_3</title>
<path fill="none" stroke="black" d="M91.36,-79.29C102.19,-68.87 116.32,-55.27 128.41,-43.63"/>
<polygon fill="black" stroke="black" points="130.53,-46.45 135.31,-36.99 125.68,-41.4 130.53,-46.45"/>
</g>
<!-- n_4_6 -->
<g id="node9" class="node">
<title>n_4_6</title>
<polygon fill="none" stroke="black" points="301.62,-84.38 301.62,-109.62 371.88,-109.62 371.88,-84.38 301.62,-84.38"/>
<text text-anchor="start" x="308.62" y="-95.08" font-family="Times New Roman,serif" font-weight="bold" font-size="9.00">Secondary (G)</text>
<polygon fill="none" stroke="black" points="371.88,-84.38 371.88,-109.62 426.38,-109.62 426.38,-84.38 371.88,-84.38"/>
<text text-anchor="start" x="378.88" y="-95.08" font-family="Times New Roman,serif" font-weight="bold" font-size="9.00">University</text>
<polygon fill="none" stroke="black" points="300.62,-83.38 300.62,-110.62 427.38,-110.62 427.38,-83.38 300.62,-83.38"/>
</g>
<!-- n_4_5_6&#45;&gt;n_4_6 -->
<g id="edge8" class="edge">
<title>n_4_5_6&#45;&gt;n_4_6</title>
<path fill="none" stroke="black" d="M370.02,-158.22C369.05,-148.54 367.87,-136.72 366.81,-126.11"/>
<polygon fill="black" stroke="black" points="370.31,-125.95 365.83,-116.35 363.35,-126.65 370.31,-125.95"/>
</g>
<!-- n_5 -->
<g id="node12" class="node">
<title>n_5</title>
<polygon fill="none" stroke="black" points="473.5,-84.38 473.5,-109.62 526.5,-109.62 526.5,-84.38 473.5,-84.38"/>
<text text-anchor="start" x="480.5" y="-95.08" font-family="Times New Roman,serif" font-weight="bold" font-size="9.00">Technical</text>
<polygon fill="none" stroke="black" points="472.5,-83.38 472.5,-110.62 527.5,-110.62 527.5,-83.38 472.5,-83.38"/>
</g>
<!-- n_4_5_6&#45;&gt;n_5 -->
<g id="edge11" class="edge">
<title>n_4_5_6&#45;&gt;n_5</title>
<path fill="none" stroke="black" d="M403.97,-158.02C422.05,-146.72 444.72,-132.55 463.49,-120.82"/>
<polygon fill="black" stroke="black" points="465.28,-123.83 471.9,-115.56 461.57,-117.89 465.28,-123.83"/>
</g>
<!-- n_4 -->
<g id="node10" class="node">
<title>n_4</title>
<polygon fill="none" stroke="black" points="273.88,-5.38 273.88,-30.62 344.12,-30.62 344.12,-5.38 273.88,-5.38"/>
<text text-anchor="start" x="280.88" y="-16.07" font-family="Times New Roman,serif" font-weight="bold" font-size="9.00">Secondary (G)</text>
<polygon fill="none" stroke="black" points="272.88,-4.38 272.88,-31.62 345.12,-31.62 345.12,-4.38 272.88,-4.38"/>
</g>
<!-- n_4_6&#45;&gt;n_4 -->
<g id="edge9" class="edge">
<title>n_4_6&#45;&gt;n_4</title>
<path fill="none" stroke="black" d="M352.07,-79.29C344.91,-69.27 335.65,-56.31 327.56,-44.98"/>
<polygon fill="black" stroke="black" points="330.64,-43.28 321.98,-37.17 324.94,-47.34 330.64,-43.28"/>
</g>
<!-- n_6 -->
<g id="node11" class="node">
<title>n_6</title>
<polygon fill="none" stroke="black" points="390.75,-5.38 390.75,-30.62 445.25,-30.62 445.25,-5.38 390.75,-5.38"/>
<text text-anchor="start" x="397.75" y="-16.07" font-family="Times New Roman,serif" font-weight="bold" font-size="9.00">University</text>
<polygon fill="none" stroke="black" points="389.75,-4.38 389.75,-31.62 446.25,-31.62 446.25,-4.38 389.75,-4.38"/>
</g>
<!-- n_4_6&#45;&gt;n_6 -->
<g id="edge10" class="edge">
<title>n_4_6&#45;&gt;n_6</title>
<path fill="none" stroke="black" d="M375.72,-79.29C382.67,-69.37 391.65,-56.57 399.54,-45.32"/>
<polygon fill="black" stroke="black" points="402.37,-47.38 405.25,-37.18 396.64,-43.36 402.37,-47.38"/>
</g>
</g>
</svg>
