<?xml version="1.0" encoding="UTF-8" standalone="no"?>
<!DOCTYPE svg PUBLIC "-//W3C//DTD SVG 1.1//EN"
 "http://www.w3.org/Graphics/SVG/1.1/DTD/svg11.dtd">
<!-- Generated by graphviz version 10.0.1 (20240210.2158)
 -->
<!-- Title: ND Pages: 1 -->
<svg width="662pt" height="517pt"
 viewBox="0.00 0.00 661.88 517.00" xmlns="http://www.w3.org/2000/svg" xmlns:xlink="http://www.w3.org/1999/xlink">
<g id="graph0" class="graph" transform="scale(1 1) rotate(0) translate(4 513)">
<title>ND</title>
<polygon fill="white" stroke="none" points="-4,4 -4,-513 657.88,-513 657.88,4 -4,4"/>
<!-- n_0_1_2_3_4_5_6 -->
<g id="node1" class="node">
<title>n_0_1_2_3_4_5_6</title>
<polygon fill="none" stroke="black" points="366.12,-445 366.12,-504 434.88,-504 434.88,-445 366.12,-445"/>
<text text-anchor="start" x="377.62" y="-489.45" font-family="Times New Roman,serif" font-weight="bold" font-size="9.00">Primary (P)</text>
<text text-anchor="start" x="376.88" y="-480.45" font-family="Times New Roman,serif" font-weight="bold" font-size="9.00">Primary (G)</text>
<text text-anchor="start" x="381.38" y="-471.45" font-family="Times New Roman,serif" font-weight="bold" font-size="9.00">Preschool</text>
<text text-anchor="start" x="373.12" y="-462.45" font-family="Times New Roman,serif" font-weight="bold" font-size="9.00">Secondary (P)</text>
<text text-anchor="start" x="381" y="-453.45" font-family="Times New Roman,serif" font-weight="bold" font-size="9.00">Technical</text>
<polygon fill="none" stroke="black" points="434.88,-445 434.88,-504 505.12,-504 505.12,-445 434.88,-445"/>
<text text-anchor="start" x="441.88" y="-475.95" font-family="Times New Roman,serif" font-weight="bold" font-size="9.00">Secondary (G)</text>
<text text-anchor="start" x="449.75" y="-466.95" font-family="Times New Roman,serif" font-weight="bold" font-size="9.00">University</text>
<polygon fill="none" stroke="black" points="365.12,-444 365.12,-505 506.12,-505 506.12,-444 365.12,-444"/>
</g>
<!-- n_0_1_2_3_5 -->
<g id="node2" class="node">
<title>n_0_1_2_3_5</title>
<polygon fill="none" stroke="black" points="283.62,-342 283.62,-392 344.88,-392 344.88,-342 283.62,-342"/>
<text text-anchor="start" x="291.38" y="-377.45" font-family="Times New Roman,serif" font-weight="bold" font-size="9.00">Primary (P)</text>
<text text-anchor="start" x="290.62" y="-368.45" font-family="Times New Roman,serif" font-weight="bold" font-size="9.00">Primary (G)</text>
<text text-anchor="start" x="295.12" y="-359.45" font-family="Times New Roman,serif" font-weight="bold" font-size="9.00">Preschool</text>
<text text-anchor="start" x="294.75" y="-350.45" font-family="Times New Roman,serif" font-weight="bold" font-size="9.00">Technical</text>
<polygon fill="none" stroke="black" points="344.88,-342 344.88,-392 413.62,-392 413.62,-342 344.88,-342"/>
<text text-anchor="start" x="351.88" y="-365.07" font-family="Times New Roman,serif" font-weight="bold" font-size="9.00">Secondary (P)</text>
<polygon fill="none" stroke="black" points="282.62,-341 282.62,-393 414.62,-393 414.62,-341 282.62,-341"/>
</g>
<!-- n_0_1_2_3_4_5_6&#45;&gt;n_0_1_2_3_5 -->
<g id="edge1" class="edge">
<title>n_0_1_2_3_4_5_6&#45;&gt;n_0_1_2_3_5</title>
<path fill="none" stroke="black" d="M408.1,-440.12C399.06,-429.16 388.96,-416.91 379.68,-405.66"/>
<polygon fill="black" stroke="black" points="382.48,-403.55 373.42,-398.07 377.08,-408.01 382.48,-403.55"/>
</g>
<!-- n_4_6 -->
<g id="node11" class="node">
<title>n_4_6</title>
<polygon fill="none" stroke="black" points="460.25,-354.38 460.25,-379.62 530.5,-379.62 530.5,-354.38 460.25,-354.38"/>
<text text-anchor="start" x="467.25" y="-365.07" font-family="Times New Roman,serif" font-weight="bold" font-size="9.00">Secondary (G)</text>
<polygon fill="none" stroke="black" points="530.5,-354.38 530.5,-379.62 585,-379.62 585,-354.38 530.5,-354.38"/>
<text text-anchor="start" x="537.5" y="-365.07" font-family="Times New Roman,serif" font-weight="bold" font-size="9.00">University</text>
<polygon fill="none" stroke="black" points="459.25,-353.38 459.25,-380.62 586,-380.62 586,-353.38 459.25,-353.38"/>
</g>
<!-- n_0_1_2_3_4_5_6&#45;&gt;n_4_6 -->
<g id="edge10" class="edge">
<title>n_0_1_2_3_4_5_6&#45;&gt;n_4_6</title>
<path fill="none" stroke="black" d="M463.15,-440.12C475.57,-425.06 490,-407.57 501.53,-393.58"/>
<polygon fill="black" stroke="black" points="504.02,-396.06 507.68,-386.12 498.62,-391.61 504.02,-396.06"/>
</g>
<!-- n_0_1_2_5 -->
<g id="node3" class="node">
<title>n_0_1_2_5</title>
<polygon fill="none" stroke="black" points="168.88,-248 168.88,-289 230.12,-289 230.12,-248 168.88,-248"/>
<text text-anchor="start" x="176.62" y="-274.45" font-family="Times New Roman,serif" font-weight="bold" font-size="9.00">Primary (P)</text>
<text text-anchor="start" x="175.88" y="-265.45" font-family="Times New Roman,serif" font-weight="bold" font-size="9.00">Primary (G)</text>
<text text-anchor="start" x="180" y="-256.45" font-family="Times New Roman,serif" font-weight="bold" font-size="9.00">Technical</text>
<polygon fill="none" stroke="black" points="230.12,-248 230.12,-289 282.38,-289 282.38,-248 230.12,-248"/>
<text text-anchor="start" x="237.12" y="-266.57" font-family="Times New Roman,serif" font-weight="bold" font-size="9.00">Preschool</text>
<polygon fill="none" stroke="black" points="167.88,-247 167.88,-290 283.38,-290 283.38,-247 167.88,-247"/>
</g>
<!-- n_0_1_2_3_5&#45;&gt;n_0_1_2_5 -->
<g id="edge2" class="edge">
<title>n_0_1_2_3_5&#45;&gt;n_0_1_2_5</title>
<path fill="none" stroke="black" d="M311.72,-337.05C297.19,-325.65 280.46,-312.52 265.64,-300.89"/>
<polygon fill="black" stroke="black" points="267.91,-298.23 257.88,-294.81 263.59,-303.73 267.91,-298.23"/>
</g>
<!-- n_3 -->
<g id="node10" class="node">
<title>n_3</title>
<polygon fill="none" stroke="black" points="329.25,-255.88 329.25,-281.12 398,-281.12 398,-255.88 329.25,-255.88"/>
<text text-anchor="start" x="336.25" y="-266.57" font-family="Times New Roman,serif" font-weight="bold" font-size="9.00">Secondary (P)</text>
<polygon fill="none" stroke="black" points="328.25,-254.88 328.25,-282.12 399,-282.12 399,-254.88 328.25,-254.88"/>
</g>
<!-- n_0_1_2_3_5&#45;&gt;n_3 -->
<g id="edge9" class="edge">
<title>n_0_1_2_3_5&#45;&gt;n_3</title>
<path fill="none" stroke="black" d="M353.13,-337.05C355.07,-324.51 357.35,-309.89 359.28,-297.47"/>
<polygon fill="black" stroke="black" points="362.69,-298.28 360.77,-287.86 355.78,-297.21 362.69,-298.28"/>
</g>
<!-- n_0_1_5 -->
<g id="node4" class="node">
<title>n_0_1_5</title>
<polygon fill="none" stroke="black" points="98.12,-163 98.12,-195 159.38,-195 159.38,-163 98.12,-163"/>
<text text-anchor="start" x="105.12" y="-180.45" font-family="Times New Roman,serif" font-weight="bold" font-size="9.00">Primary (G)</text>
<text text-anchor="start" x="109.25" y="-171.45" font-family="Times New Roman,serif" font-weight="bold" font-size="9.00">Technical</text>
<polygon fill="none" stroke="black" points="159.38,-163 159.38,-195 219.12,-195 219.12,-163 159.38,-163"/>
<text text-anchor="start" x="166.38" y="-177.07" font-family="Times New Roman,serif" font-weight="bold" font-size="9.00">Primary (P)</text>
<polygon fill="none" stroke="black" points="97.12,-162 97.12,-196 220.12,-196 220.12,-162 97.12,-162"/>
</g>
<!-- n_0_1_2_5&#45;&gt;n_0_1_5 -->
<g id="edge3" class="edge">
<title>n_0_1_2_5&#45;&gt;n_0_1_5</title>
<path fill="none" stroke="black" d="M206.96,-243.13C198.79,-232.46 189.15,-219.87 180.64,-208.75"/>
<polygon fill="black" stroke="black" points="183.58,-206.84 174.73,-201.03 178.03,-211.1 183.58,-206.84"/>
</g>
<!-- n_2 -->
<g id="node9" class="node">
<title>n_2</title>
<polygon fill="none" stroke="black" points="266.5,-166.38 266.5,-191.62 318.75,-191.62 318.75,-166.38 266.5,-166.38"/>
<text text-anchor="start" x="273.5" y="-177.07" font-family="Times New Roman,serif" font-weight="bold" font-size="9.00">Preschool</text>
<polygon fill="none" stroke="black" points="265.5,-165.38 265.5,-192.62 319.75,-192.62 319.75,-165.38 265.5,-165.38"/>
</g>
<!-- n_0_1_2_5&#45;&gt;n_2 -->
<g id="edge8" class="edge">
<title>n_0_1_2_5&#45;&gt;n_2</title>
<path fill="none" stroke="black" d="M244.29,-243.13C253.21,-231.48 263.89,-217.53 272.94,-205.71"/>
<polygon fill="black" stroke="black" points="275.56,-208.04 278.86,-197.97 270,-203.78 275.56,-208.04"/>
</g>
<!-- n_1_5 -->
<g id="node5" class="node">
<title>n_1_5</title>
<polygon fill="none" stroke="black" points="34.5,-84.38 34.5,-109.62 95.75,-109.62 95.75,-84.38 34.5,-84.38"/>
<text text-anchor="start" x="41.5" y="-95.08" font-family="Times New Roman,serif" font-weight="bold" font-size="9.00">Primary (G)</text>
<polygon fill="none" stroke="black" points="95.75,-84.38 95.75,-109.62 148.75,-109.62 148.75,-84.38 95.75,-84.38"/>
<text text-anchor="start" x="102.75" y="-95.08" font-family="Times New Roman,serif" font-weight="bold" font-size="9.00">Technical</text>
<polygon fill="none" stroke="black" points="33.5,-83.38 33.5,-110.62 149.75,-110.62 149.75,-83.38 33.5,-83.38"/>
</g>
<!-- n_0_1_5&#45;&gt;n_1_5 -->
<g id="edge4" class="edge">
<title>n_0_1_5&#45;&gt;n_1_5</title>
<path fill="none" stroke="black" d="M142.06,-158.22C133.26,-147.71 122.33,-134.66 112.9,-123.41"/>
<polygon fill="black" stroke="black" points="115.81,-121.42 106.7,-116 110.44,-125.92 115.81,-121.42"/>
</g>
<!-- n_0 -->
<g id="node8" class="node">
<title>n_0</title>
<polygon fill="none" stroke="black" points="195.75,-84.38 195.75,-109.62 255.5,-109.62 255.5,-84.38 195.75,-84.38"/>
<text text-anchor="start" x="202.75" y="-95.08" font-family="Times New Roman,serif" font-weight="bold" font-size="9.00">Primary (P)</text>
<polygon fill="none" stroke="black" points="194.75,-83.38 194.75,-110.62 256.5,-110.62 256.5,-83.38 194.75,-83.38"/>
</g>
<!-- n_0_1_5&#45;&gt;n_0 -->
<g id="edge7" class="edge">
<title>n_0_1_5&#45;&gt;n_0</title>
<path fill="none" stroke="black" d="M175.19,-158.22C183.99,-147.71 194.92,-134.66 204.35,-123.41"/>
<polygon fill="black" stroke="black" points="206.81,-125.92 210.55,-116 201.44,-121.42 206.81,-125.92"/>
</g>
<!-- n_1 -->
<g id="node6" class="node">
<title>n_1</title>
<polygon fill="none" stroke="black" points="9,-5.38 9,-30.62 70.25,-30.62 70.25,-5.38 9,-5.38"/>
<text text-anchor="start" x="16" y="-16.07" font-family="Times New Roman,serif" font-weight="bold" font-size="9.00">Primary (G)</text>
<polygon fill="none" stroke="black" points="8,-4.38 8,-31.62 71.25,-31.62 71.25,-4.38 8,-4.38"/>
</g>
<!-- n_1_5&#45;&gt;n_1 -->
<g id="edge5" class="edge">
<title>n_1_5&#45;&gt;n_1</title>
<path fill="none" stroke="black" d="M80.34,-79.29C73.64,-69.37 65,-56.57 57.4,-45.32"/>
<polygon fill="black" stroke="black" points="60.41,-43.52 51.91,-37.2 54.61,-47.44 60.41,-43.52"/>
</g>
<!-- n_5 -->
<g id="node7" class="node">
<title>n_5</title>
<polygon fill="none" stroke="black" points="117.12,-5.38 117.12,-30.62 170.12,-30.62 170.12,-5.38 117.12,-5.38"/>
<text text-anchor="start" x="124.12" y="-16.07" font-family="Times New Roman,serif" font-weight="bold" font-size="9.00">Technical</text>
<polygon fill="none" stroke="black" points="116.12,-4.38 116.12,-31.62 171.12,-31.62 171.12,-4.38 116.12,-4.38"/>
</g>
<!-- n_1_5&#45;&gt;n_5 -->
<g id="edge6" class="edge">
<title>n_1_5&#45;&gt;n_5</title>
<path fill="none" stroke="black" d="M102.91,-79.29C109.61,-69.37 118.25,-56.57 125.85,-45.32"/>
<polygon fill="black" stroke="black" points="128.64,-47.44 131.34,-37.2 122.84,-43.52 128.64,-47.44"/>
</g>
<!-- n_4 -->
<g id="node12" class="node">
<title>n_4</title>
<polygon fill="none" stroke="black" points="473.5,-255.88 473.5,-281.12 543.75,-281.12 543.75,-255.88 473.5,-255.88"/>
<text text-anchor="start" x="480.5" y="-266.57" font-family="Times New Roman,serif" font-weight="bold" font-size="9.00">Secondary (G)</text>
<polygon fill="none" stroke="black" points="472.5,-254.88 472.5,-282.12 544.75,-282.12 544.75,-254.88 472.5,-254.88"/>
</g>
<!-- n_4_6&#45;&gt;n_4 -->
<g id="edge11" class="edge">
<title>n_4_6&#45;&gt;n_4</title>
<path fill="none" stroke="black" d="M520.19,-349.19C518.13,-335.03 515.15,-314.46 512.73,-297.76"/>
<polygon fill="black" stroke="black" points="516.2,-297.33 511.3,-287.94 509.27,-298.34 516.2,-297.33"/>
</g>
<!-- n_6 -->
<g id="node13" class="node">
<title>n_6</title>
<polygon fill="none" stroke="black" points="590.38,-255.88 590.38,-281.12 644.88,-281.12 644.88,-255.88 590.38,-255.88"/>
<text text-anchor="start" x="597.38" y="-266.57" font-family="Times New Roman,serif" font-weight="bold" font-size="9.00">University</text>
<polygon fill="none" stroke="black" points="589.38,-254.88 589.38,-282.12 645.88,-282.12 645.88,-254.88 589.38,-254.88"/>
</g>
<!-- n_4_6&#45;&gt;n_6 -->
<g id="edge12" class="edge">
<title>n_4_6&#45;&gt;n_6</title>
<path fill="none" stroke="black" d="M539.17,-349.19C554.07,-334.06 576.15,-311.63 593.1,-294.42"/>
<polygon fill="black" stroke="black" points="595.37,-297.1 599.89,-287.52 590.38,-292.19 595.37,-297.1"/>
</g>
</g>
</svg>
