<?xml version="1.0" encoding="UTF-8" standalone="no"?>
<!DOCTYPE svg PUBLIC "-//W3C//DTD SVG 1.1//EN"
 "http://www.w3.org/Graphics/SVG/1.1/DTD/svg11.dtd">
<!-- Generated by graphviz version 10.0.1 (20240210.2158)
 -->
<!-- Title: ND Pages: 1 -->
<svg width="557pt" height="638pt"
 viewBox="0.00 0.00 557.12 638.00" xmlns="http://www.w3.org/2000/svg" xmlns:xlink="http://www.w3.org/1999/xlink">
<g id="graph0" class="graph" transform="scale(1 1) rotate(0) translate(4 634)">
<title>ND</title>
<polygon fill="white" stroke="none" points="-4,4 -4,-634 553.12,-634 553.12,4 -4,4"/>
<!-- n_0_1_2_3_4_5_6 -->
<g id="node1" class="node">
<title>n_0_1_2_3_4_5_6</title>
<polygon fill="none" stroke="black" points="382.5,-557 382.5,-625 452.75,-625 452.75,-557 382.5,-557"/>
<text text-anchor="start" x="394.75" y="-610.45" font-family="Times New Roman,serif" font-weight="bold" font-size="9.00">Primary (P)</text>
<text text-anchor="start" x="394" y="-601.45" font-family="Times New Roman,serif" font-weight="bold" font-size="9.00">Primary (G)</text>
<text text-anchor="start" x="398.5" y="-592.45" font-family="Times New Roman,serif" font-weight="bold" font-size="9.00">Preschool</text>
<text text-anchor="start" x="390.25" y="-583.45" font-family="Times New Roman,serif" font-weight="bold" font-size="9.00">Secondary (P)</text>
<text text-anchor="start" x="389.5" y="-574.45" font-family="Times New Roman,serif" font-weight="bold" font-size="9.00">Secondary (G)</text>
<text text-anchor="start" x="398.12" y="-565.45" font-family="Times New Roman,serif" font-weight="bold" font-size="9.00">Technical</text>
<polygon fill="none" stroke="black" points="452.75,-557 452.75,-625 507.25,-625 507.25,-557 452.75,-557"/>
<text text-anchor="start" x="459.75" y="-589.08" font-family="Times New Roman,serif" font-weight="bold" font-size="9.00">University</text>
<polygon fill="none" stroke="black" points="381.5,-556 381.5,-626 508.25,-626 508.25,-556 381.5,-556"/>
</g>
<!-- n_0_1_2_3_4_5 -->
<g id="node2" class="node">
<title>n_0_1_2_3_4_5</title>
<polygon fill="none" stroke="black" points="315.25,-445 315.25,-504 385.5,-504 385.5,-445 315.25,-445"/>
<text text-anchor="start" x="327.5" y="-489.45" font-family="Times New Roman,serif" font-weight="bold" font-size="9.00">Primary (P)</text>
<text text-anchor="start" x="326.75" y="-480.45" font-family="Times New Roman,serif" font-weight="bold" font-size="9.00">Primary (G)</text>
<text text-anchor="start" x="331.25" y="-471.45" font-family="Times New Roman,serif" font-weight="bold" font-size="9.00">Preschool</text>
<text text-anchor="start" x="323" y="-462.45" font-family="Times New Roman,serif" font-weight="bold" font-size="9.00">Secondary (P)</text>
<text text-anchor="start" x="322.25" y="-453.45" font-family="Times New Roman,serif" font-weight="bold" font-size="9.00">Secondary (G)</text>
<polygon fill="none" stroke="black" points="385.5,-445 385.5,-504 438.5,-504 438.5,-445 385.5,-445"/>
<text text-anchor="start" x="392.5" y="-472.57" font-family="Times New Roman,serif" font-weight="bold" font-size="9.00">Technical</text>
<polygon fill="none" stroke="black" points="314.25,-444 314.25,-505 439.5,-505 439.5,-444 314.25,-444"/>
</g>
<!-- n_0_1_2_3_4_5_6&#45;&gt;n_0_1_2_3_4_5 -->
<g id="edge1" class="edge">
<title>n_0_1_2_3_4_5_6&#45;&gt;n_0_1_2_3_4_5</title>
<path fill="none" stroke="black" d="M422.42,-552.19C416.02,-541.42 409.01,-529.6 402.44,-518.54"/>
<polygon fill="black" stroke="black" points="405.45,-516.76 397.34,-509.95 399.43,-520.34 405.45,-516.76"/>
</g>
<!-- n_6 -->
<g id="node13" class="node">
<title>n_6</title>
<polygon fill="none" stroke="black" points="485.62,-461.88 485.62,-487.12 540.12,-487.12 540.12,-461.88 485.62,-461.88"/>
<text text-anchor="start" x="492.62" y="-472.57" font-family="Times New Roman,serif" font-weight="bold" font-size="9.00">University</text>
<polygon fill="none" stroke="black" points="484.62,-460.88 484.62,-488.12 541.12,-488.12 541.12,-460.88 484.62,-460.88"/>
</g>
<!-- n_0_1_2_3_4_5_6&#45;&gt;n_6 -->
<g id="edge12" class="edge">
<title>n_0_1_2_3_4_5_6&#45;&gt;n_6</title>
<path fill="none" stroke="black" d="M467.33,-552.19C477.07,-535.78 488.25,-516.96 497.1,-502.07"/>
<polygon fill="black" stroke="black" points="499.93,-504.15 502.03,-493.76 493.91,-500.58 499.93,-504.15"/>
</g>
<!-- n_0_1_2_3_4 -->
<g id="node3" class="node">
<title>n_0_1_2_3_4</title>
<polygon fill="none" stroke="black" points="242.12,-342 242.12,-392 312.38,-392 312.38,-342 242.12,-342"/>
<text text-anchor="start" x="254.38" y="-377.45" font-family="Times New Roman,serif" font-weight="bold" font-size="9.00">Primary (P)</text>
<text text-anchor="start" x="258.12" y="-368.45" font-family="Times New Roman,serif" font-weight="bold" font-size="9.00">Preschool</text>
<text text-anchor="start" x="249.88" y="-359.45" font-family="Times New Roman,serif" font-weight="bold" font-size="9.00">Secondary (P)</text>
<text text-anchor="start" x="249.12" y="-350.45" font-family="Times New Roman,serif" font-weight="bold" font-size="9.00">Secondary (G)</text>
<polygon fill="none" stroke="black" points="312.38,-342 312.38,-392 373.62,-392 373.62,-342 312.38,-342"/>
<text text-anchor="start" x="319.38" y="-365.07" font-family="Times New Roman,serif" font-weight="bold" font-size="9.00">Primary (G)</text>
<polygon fill="none" stroke="black" points="241.12,-341 241.12,-393 374.62,-393 374.62,-341 241.12,-341"/>
</g>
<!-- n_0_1_2_3_4_5&#45;&gt;n_0_1_2_3_4 -->
<g id="edge2" class="edge">
<title>n_0_1_2_3_4_5&#45;&gt;n_0_1_2_3_4</title>
<path fill="none" stroke="black" d="M355.04,-440.12C348.02,-429.38 340.18,-417.4 332.95,-406.33"/>
<polygon fill="black" stroke="black" points="336.01,-404.62 327.6,-398.16 330.15,-408.45 336.01,-404.62"/>
</g>
<!-- n_5 -->
<g id="node12" class="node">
<title>n_5</title>
<polygon fill="none" stroke="black" points="420.38,-354.38 420.38,-379.62 473.38,-379.62 473.38,-354.38 420.38,-354.38"/>
<text text-anchor="start" x="427.38" y="-365.07" font-family="Times New Roman,serif" font-weight="bold" font-size="9.00">Technical</text>
<polygon fill="none" stroke="black" points="419.38,-353.38 419.38,-380.62 474.38,-380.62 474.38,-353.38 419.38,-353.38"/>
</g>
<!-- n_0_1_2_3_4_5&#45;&gt;n_5 -->
<g id="edge11" class="edge">
<title>n_0_1_2_3_4_5&#45;&gt;n_5</title>
<path fill="none" stroke="black" d="M399.02,-440.12C408.82,-425.35 420.18,-408.23 429.37,-394.38"/>
<polygon fill="black" stroke="black" points="432.18,-396.48 434.79,-386.21 426.35,-392.61 432.18,-396.48"/>
</g>
<!-- n_0_2_3_4 -->
<g id="node4" class="node">
<title>n_0_2_3_4</title>
<polygon fill="none" stroke="black" points="177.62,-248 177.62,-289 247.88,-289 247.88,-248 177.62,-248"/>
<text text-anchor="start" x="189.88" y="-274.45" font-family="Times New Roman,serif" font-weight="bold" font-size="9.00">Primary (P)</text>
<text text-anchor="start" x="185.38" y="-265.45" font-family="Times New Roman,serif" font-weight="bold" font-size="9.00">Secondary (P)</text>
<text text-anchor="start" x="184.62" y="-256.45" font-family="Times New Roman,serif" font-weight="bold" font-size="9.00">Secondary (G)</text>
<polygon fill="none" stroke="black" points="247.88,-248 247.88,-289 300.12,-289 300.12,-248 247.88,-248"/>
<text text-anchor="start" x="254.88" y="-266.57" font-family="Times New Roman,serif" font-weight="bold" font-size="9.00">Preschool</text>
<polygon fill="none" stroke="black" points="176.62,-247 176.62,-290 301.12,-290 301.12,-247 176.62,-247"/>
</g>
<!-- n_0_1_2_3_4&#45;&gt;n_0_2_3_4 -->
<g id="edge3" class="edge">
<title>n_0_1_2_3_4&#45;&gt;n_0_2_3_4</title>
<path fill="none" stroke="black" d="M287.17,-337.05C279.56,-326.4 270.87,-314.25 262.98,-303.22"/>
<polygon fill="black" stroke="black" points="265.85,-301.2 257.18,-295.11 260.15,-305.28 265.85,-301.2"/>
</g>
<!-- n_1 -->
<g id="node11" class="node">
<title>n_1</title>
<polygon fill="none" stroke="black" points="347.25,-255.88 347.25,-281.12 408.5,-281.12 408.5,-255.88 347.25,-255.88"/>
<text text-anchor="start" x="354.25" y="-266.57" font-family="Times New Roman,serif" font-weight="bold" font-size="9.00">Primary (G)</text>
<polygon fill="none" stroke="black" points="346.25,-254.88 346.25,-282.12 409.5,-282.12 409.5,-254.88 346.25,-254.88"/>
</g>
<!-- n_0_1_2_3_4&#45;&gt;n_1 -->
<g id="edge10" class="edge">
<title>n_0_1_2_3_4&#45;&gt;n_1</title>
<path fill="none" stroke="black" d="M328.88,-337.05C338.44,-323.86 349.67,-308.38 358.97,-295.56"/>
<polygon fill="black" stroke="black" points="361.71,-297.74 364.75,-287.59 356.05,-293.63 361.71,-297.74"/>
</g>
<!-- n_0_3_4 -->
<g id="node5" class="node">
<title>n_0_3_4</title>
<polygon fill="none" stroke="black" points="98.38,-163 98.38,-195 168.62,-195 168.62,-163 98.38,-163"/>
<text text-anchor="start" x="110.62" y="-180.45" font-family="Times New Roman,serif" font-weight="bold" font-size="9.00">Primary (P)</text>
<text text-anchor="start" x="105.38" y="-171.45" font-family="Times New Roman,serif" font-weight="bold" font-size="9.00">Secondary (G)</text>
<polygon fill="none" stroke="black" points="168.62,-163 168.62,-195 237.38,-195 237.38,-163 168.62,-163"/>
<text text-anchor="start" x="175.62" y="-177.07" font-family="Times New Roman,serif" font-weight="bold" font-size="9.00">Secondary (P)</text>
<polygon fill="none" stroke="black" points="97.38,-162 97.38,-196 238.38,-196 238.38,-162 97.38,-162"/>
</g>
<!-- n_0_2_3_4&#45;&gt;n_0_3_4 -->
<g id="edge4" class="edge">
<title>n_0_2_3_4&#45;&gt;n_0_3_4</title>
<path fill="none" stroke="black" d="M219.1,-243.13C210.44,-232.46 200.22,-219.87 191.2,-208.75"/>
<polygon fill="black" stroke="black" points="193.93,-206.56 184.92,-201 188.5,-210.97 193.93,-206.56"/>
</g>
<!-- n_2 -->
<g id="node10" class="node">
<title>n_2</title>
<polygon fill="none" stroke="black" points="284.75,-166.38 284.75,-191.62 337,-191.62 337,-166.38 284.75,-166.38"/>
<text text-anchor="start" x="291.75" y="-177.07" font-family="Times New Roman,serif" font-weight="bold" font-size="9.00">Preschool</text>
<polygon fill="none" stroke="black" points="283.75,-165.38 283.75,-192.62 338,-192.62 338,-165.38 283.75,-165.38"/>
</g>
<!-- n_0_2_3_4&#45;&gt;n_2 -->
<g id="edge9" class="edge">
<title>n_0_2_3_4&#45;&gt;n_2</title>
<path fill="none" stroke="black" d="M258.93,-243.13C268.61,-231.36 280.22,-217.25 290.01,-205.36"/>
<polygon fill="black" stroke="black" points="292.46,-207.89 296.11,-197.94 287.06,-203.44 292.46,-207.89"/>
</g>
<!-- n_0_4 -->
<g id="node6" class="node">
<title>n_0_4</title>
<polygon fill="none" stroke="black" points="29.88,-84.38 29.88,-109.62 89.62,-109.62 89.62,-84.38 29.88,-84.38"/>
<text text-anchor="start" x="36.88" y="-95.08" font-family="Times New Roman,serif" font-weight="bold" font-size="9.00">Primary (P)</text>
<polygon fill="none" stroke="black" points="89.62,-84.38 89.62,-109.62 159.88,-109.62 159.88,-84.38 89.62,-84.38"/>
<text text-anchor="start" x="96.62" y="-95.08" font-family="Times New Roman,serif" font-weight="bold" font-size="9.00">Secondary (G)</text>
<polygon fill="none" stroke="black" points="28.88,-83.38 28.88,-110.62 160.88,-110.62 160.88,-83.38 28.88,-83.38"/>
</g>
<!-- n_0_3_4&#45;&gt;n_0_4 -->
<g id="edge5" class="edge">
<title>n_0_3_4&#45;&gt;n_0_4</title>
<path fill="none" stroke="black" d="M149.83,-158.22C140.14,-147.61 128.1,-134.41 117.75,-123.07"/>
<polygon fill="black" stroke="black" points="120.59,-120.99 111.27,-115.96 115.42,-125.71 120.59,-120.99"/>
</g>
<!-- n_3 -->
<g id="node9" class="node">
<title>n_3</title>
<polygon fill="none" stroke="black" points="206.5,-84.38 206.5,-109.62 275.25,-109.62 275.25,-84.38 206.5,-84.38"/>
<text text-anchor="start" x="213.5" y="-95.08" font-family="Times New Roman,serif" font-weight="bold" font-size="9.00">Secondary (P)</text>
<polygon fill="none" stroke="black" points="205.5,-83.38 205.5,-110.62 276.25,-110.62 276.25,-83.38 205.5,-83.38"/>
</g>
<!-- n_0_3_4&#45;&gt;n_3 -->
<g id="edge8" class="edge">
<title>n_0_3_4&#45;&gt;n_3</title>
<path fill="none" stroke="black" d="M185.92,-158.22C195.61,-147.61 207.65,-134.41 218,-123.07"/>
<polygon fill="black" stroke="black" points="220.33,-125.71 224.48,-115.96 215.16,-120.99 220.33,-125.71"/>
</g>
<!-- n_0 -->
<g id="node7" class="node">
<title>n_0</title>
<polygon fill="none" stroke="black" points="9,-5.38 9,-30.62 68.75,-30.62 68.75,-5.38 9,-5.38"/>
<text text-anchor="start" x="16" y="-16.07" font-family="Times New Roman,serif" font-weight="bold" font-size="9.00">Primary (P)</text>
<polygon fill="none" stroke="black" points="8,-4.38 8,-31.62 69.75,-31.62 69.75,-4.38 8,-4.38"/>
</g>
<!-- n_0_4&#45;&gt;n_0 -->
<g id="edge6" class="edge">
<title>n_0_4&#45;&gt;n_0</title>
<path fill="none" stroke="black" d="M82.72,-79.29C75.44,-69.27 66.01,-56.31 57.77,-44.98"/>
<polygon fill="black" stroke="black" points="60.8,-43.19 52.09,-37.17 55.14,-47.31 60.8,-43.19"/>
</g>
<!-- n_4 -->
<g id="node8" class="node">
<title>n_4</title>
<polygon fill="none" stroke="black" points="115.75,-5.38 115.75,-30.62 186,-30.62 186,-5.38 115.75,-5.38"/>
<text text-anchor="start" x="122.75" y="-16.07" font-family="Times New Roman,serif" font-weight="bold" font-size="9.00">Secondary (G)</text>
<polygon fill="none" stroke="black" points="114.75,-4.38 114.75,-31.62 187,-31.62 187,-4.38 114.75,-4.38"/>
</g>
<!-- n_0_4&#45;&gt;n_4 -->
<g id="edge7" class="edge">
<title>n_0_4&#45;&gt;n_4</title>
<path fill="none" stroke="black" d="M107.03,-79.29C114.31,-69.27 123.74,-56.31 131.98,-44.98"/>
<polygon fill="black" stroke="black" points="134.61,-47.31 137.66,-37.17 128.95,-43.19 134.61,-47.31"/>
</g>
</g>
</svg>
