<?xml version="1.0" encoding="UTF-8" standalone="no"?>
<!DOCTYPE svg PUBLIC "-//W3C//DTD SVG 1.1//EN"
 "http://www.w3.org/Graphics/SVG/1.1/DTD/svg11.dtd">
<!-- Generated by graphviz version 10.0.1 (20240210.2158)
 -->
<!-- Title: ND Pages: 1 -->
<svg width="599pt" height="432pt"
 viewBox="0.00 0.00 599.00 432.00" xmlns="http://www.w3.org/2000/svg" xmlns:xlink="http://www.w3.org/1999/xlink">
<g id="graph0" class="graph" transform="scale(1 1) rotate(0) translate(4 428)">
<title>ND</title>
<polygon fill="white" stroke="none" points="-4,4 -4,-428 595,-428 595,4 -4,4"/>
<!-- n_0_1_2_3_4_5_6 -->
<g id="node1" class="node">
<title>n_0_1_2_3_4_5_6</title>
<polygon fill="none" stroke="black" points="365.12,-351 365.12,-419 433.88,-419 433.88,-351 365.12,-351"/>
<text text-anchor="start" x="376.62" y="-404.45" font-family="Times New Roman,serif" font-weight="bold" font-size="9.00">Primary (P)</text>
<text text-anchor="start" x="375.88" y="-395.45" font-family="Times New Roman,serif" font-weight="bold" font-size="9.00">Primary (G)</text>
<text text-anchor="start" x="380.38" y="-386.45" font-family="Times New Roman,serif" font-weight="bold" font-size="9.00">Preschool</text>
<text text-anchor="start" x="372.12" y="-377.45" font-family="Times New Roman,serif" font-weight="bold" font-size="9.00">Secondary (P)</text>
<text text-anchor="start" x="380" y="-368.45" font-family="Times New Roman,serif" font-weight="bold" font-size="9.00">Technical</text>
<text text-anchor="start" x="379.25" y="-359.45" font-family="Times New Roman,serif" font-weight="bold" font-size="9.00">University</text>
<polygon fill="none" stroke="black" points="433.88,-351 433.88,-419 504.12,-419 504.12,-351 433.88,-351"/>
<text text-anchor="start" x="440.88" y="-383.07" font-family="Times New Roman,serif" font-weight="bold" font-size="9.00">Secondary (G)</text>
<polygon fill="none" stroke="black" points="364.12,-350 364.12,-420 505.12,-420 505.12,-350 364.12,-350"/>
</g>
<!-- n_0_1_2_3_5_6 -->
<g id="node2" class="node">
<title>n_0_1_2_3_5_6</title>
<polygon fill="none" stroke="black" points="296.62,-248 296.62,-298 357.88,-298 357.88,-248 296.62,-248"/>
<text text-anchor="start" x="303.62" y="-283.45" font-family="Times New Roman,serif" font-weight="bold" font-size="9.00">Primary (G)</text>
<text text-anchor="start" x="308.12" y="-274.45" font-family="Times New Roman,serif" font-weight="bold" font-size="9.00">Preschool</text>
<text text-anchor="start" x="307.75" y="-265.45" font-family="Times New Roman,serif" font-weight="bold" font-size="9.00">Technical</text>
<text text-anchor="start" x="307" y="-256.45" font-family="Times New Roman,serif" font-weight="bold" font-size="9.00">University</text>
<polygon fill="none" stroke="black" points="357.88,-248 357.88,-298 426.62,-298 426.62,-248 357.88,-248"/>
<text text-anchor="start" x="369.38" y="-274.45" font-family="Times New Roman,serif" font-weight="bold" font-size="9.00">Primary (P)</text>
<text text-anchor="start" x="364.88" y="-265.45" font-family="Times New Roman,serif" font-weight="bold" font-size="9.00">Secondary (P)</text>
<polygon fill="none" stroke="black" points="295.62,-247 295.62,-299 427.62,-299 427.62,-247 295.62,-247"/>
</g>
<!-- n_0_1_2_3_4_5_6&#45;&gt;n_0_1_2_3_5_6 -->
<g id="edge1" class="edge">
<title>n_0_1_2_3_4_5_6&#45;&gt;n_0_1_2_3_5_6</title>
<path fill="none" stroke="black" d="M409.5,-346.14C402.23,-335.19 394.29,-323.22 387,-312.23"/>
<polygon fill="black" stroke="black" points="390.08,-310.55 381.63,-304.15 384.25,-314.42 390.08,-310.55"/>
</g>
<!-- n_4 -->
<g id="node13" class="node">
<title>n_4</title>
<polygon fill="none" stroke="black" points="473.5,-260.38 473.5,-285.62 543.75,-285.62 543.75,-260.38 473.5,-260.38"/>
<text text-anchor="start" x="480.5" y="-271.07" font-family="Times New Roman,serif" font-weight="bold" font-size="9.00">Secondary (G)</text>
<polygon fill="none" stroke="black" points="472.5,-259.38 472.5,-286.62 544.75,-286.62 544.75,-259.38 472.5,-259.38"/>
</g>
<!-- n_0_1_2_3_4_5_6&#45;&gt;n_4 -->
<g id="edge12" class="edge">
<title>n_0_1_2_3_4_5_6&#45;&gt;n_4</title>
<path fill="none" stroke="black" d="M460.09,-346.14C470.25,-331.04 481.7,-314.02 490.93,-300.31"/>
<polygon fill="black" stroke="black" points="493.68,-302.49 496.36,-292.24 487.87,-298.58 493.68,-302.49"/>
</g>
<!-- n_1_2_5_6 -->
<g id="node3" class="node">
<title>n_1_2_5_6</title>
<polygon fill="none" stroke="black" points="220.5,-163 220.5,-195 281.75,-195 281.75,-163 220.5,-163"/>
<text text-anchor="start" x="227.5" y="-180.45" font-family="Times New Roman,serif" font-weight="bold" font-size="9.00">Primary (G)</text>
<text text-anchor="start" x="230.88" y="-171.45" font-family="Times New Roman,serif" font-weight="bold" font-size="9.00">University</text>
<polygon fill="none" stroke="black" points="281.75,-163 281.75,-195 334.75,-195 334.75,-163 281.75,-163"/>
<text text-anchor="start" x="289.12" y="-180.45" font-family="Times New Roman,serif" font-weight="bold" font-size="9.00">Preschool</text>
<text text-anchor="start" x="288.75" y="-171.45" font-family="Times New Roman,serif" font-weight="bold" font-size="9.00">Technical</text>
<polygon fill="none" stroke="black" points="219.5,-162 219.5,-196 335.75,-196 335.75,-162 219.5,-162"/>
</g>
<!-- n_0_1_2_3_5_6&#45;&gt;n_1_2_5_6 -->
<g id="edge2" class="edge">
<title>n_0_1_2_3_5_6&#45;&gt;n_1_2_5_6</title>
<path fill="none" stroke="black" d="M335.28,-243.14C325.1,-232 313.5,-219.29 303.38,-208.21"/>
<polygon fill="black" stroke="black" points="305.99,-205.87 296.66,-200.85 300.82,-210.59 305.99,-205.87"/>
</g>
<!-- n_0_3 -->
<g id="node10" class="node">
<title>n_0_3</title>
<polygon fill="none" stroke="black" points="381.38,-166.38 381.38,-191.62 441.12,-191.62 441.12,-166.38 381.38,-166.38"/>
<text text-anchor="start" x="388.38" y="-177.07" font-family="Times New Roman,serif" font-weight="bold" font-size="9.00">Primary (P)</text>
<polygon fill="none" stroke="black" points="441.12,-166.38 441.12,-191.62 509.88,-191.62 509.88,-166.38 441.12,-166.38"/>
<text text-anchor="start" x="448.12" y="-177.07" font-family="Times New Roman,serif" font-weight="bold" font-size="9.00">Secondary (P)</text>
<polygon fill="none" stroke="black" points="380.38,-165.38 380.38,-192.62 510.88,-192.62 510.88,-165.38 380.38,-165.38"/>
</g>
<!-- n_0_1_2_3_5_6&#45;&gt;n_0_3 -->
<g id="edge9" class="edge">
<title>n_0_1_2_3_5_6&#45;&gt;n_0_3</title>
<path fill="none" stroke="black" d="M387.97,-243.14C399.01,-231.05 411.74,-217.11 422.42,-205.41"/>
<polygon fill="black" stroke="black" points="424.95,-207.83 429.11,-198.09 419.78,-203.11 424.95,-207.83"/>
</g>
<!-- n_1_6 -->
<g id="node4" class="node">
<title>n_1_6</title>
<polygon fill="none" stroke="black" points="71.75,-84.38 71.75,-109.62 133,-109.62 133,-84.38 71.75,-84.38"/>
<text text-anchor="start" x="78.75" y="-95.08" font-family="Times New Roman,serif" font-weight="bold" font-size="9.00">Primary (G)</text>
<polygon fill="none" stroke="black" points="133,-84.38 133,-109.62 187.5,-109.62 187.5,-84.38 133,-84.38"/>
<text text-anchor="start" x="140" y="-95.08" font-family="Times New Roman,serif" font-weight="bold" font-size="9.00">University</text>
<polygon fill="none" stroke="black" points="70.75,-83.38 70.75,-110.62 188.5,-110.62 188.5,-83.38 70.75,-83.38"/>
</g>
<!-- n_1_2_5_6&#45;&gt;n_1_6 -->
<g id="edge3" class="edge">
<title>n_1_2_5_6&#45;&gt;n_1_6</title>
<path fill="none" stroke="black" d="M240.66,-158.02C219.37,-146.51 192.58,-132.03 170.64,-120.17"/>
<polygon fill="black" stroke="black" points="172.42,-117.15 161.96,-115.48 169.09,-123.31 172.42,-117.15"/>
</g>
<!-- n_2_5 -->
<g id="node7" class="node">
<title>n_2_5</title>
<polygon fill="none" stroke="black" points="235,-84.38 235,-109.62 287.25,-109.62 287.25,-84.38 235,-84.38"/>
<text text-anchor="start" x="242" y="-95.08" font-family="Times New Roman,serif" font-weight="bold" font-size="9.00">Preschool</text>
<polygon fill="none" stroke="black" points="287.25,-84.38 287.25,-109.62 340.25,-109.62 340.25,-84.38 287.25,-84.38"/>
<text text-anchor="start" x="294.25" y="-95.08" font-family="Times New Roman,serif" font-weight="bold" font-size="9.00">Technical</text>
<polygon fill="none" stroke="black" points="234,-83.38 234,-110.62 341.25,-110.62 341.25,-83.38 234,-83.38"/>
</g>
<!-- n_1_2_5_6&#45;&gt;n_2_5 -->
<g id="edge6" class="edge">
<title>n_1_2_5_6&#45;&gt;n_2_5</title>
<path fill="none" stroke="black" d="M280.1,-158.22C281.31,-148.54 282.79,-136.72 284.11,-126.11"/>
<polygon fill="black" stroke="black" points="287.56,-126.7 285.33,-116.35 280.62,-125.83 287.56,-126.7"/>
</g>
<!-- n_1 -->
<g id="node5" class="node">
<title>n_1</title>
<polygon fill="none" stroke="black" points="9,-5.38 9,-30.62 70.25,-30.62 70.25,-5.38 9,-5.38"/>
<text text-anchor="start" x="16" y="-16.07" font-family="Times New Roman,serif" font-weight="bold" font-size="9.00">Primary (G)</text>
<polygon fill="none" stroke="black" points="8,-4.38 8,-31.62 71.25,-31.62 71.25,-4.38 8,-4.38"/>
</g>
<!-- n_1_6&#45;&gt;n_1 -->
<g id="edge4" class="edge">
<title>n_1_6&#45;&gt;n_1</title>
<path fill="none" stroke="black" d="M110.1,-79.29C97.8,-68.77 81.71,-55.01 68.02,-43.29"/>
<polygon fill="black" stroke="black" points="70.45,-40.77 60.58,-36.93 65.9,-46.09 70.45,-40.77"/>
</g>
<!-- n_6 -->
<g id="node6" class="node">
<title>n_6</title>
<polygon fill="none" stroke="black" points="117.38,-5.38 117.38,-30.62 171.88,-30.62 171.88,-5.38 117.38,-5.38"/>
<text text-anchor="start" x="124.38" y="-16.07" font-family="Times New Roman,serif" font-weight="bold" font-size="9.00">University</text>
<polygon fill="none" stroke="black" points="116.38,-4.38 116.38,-31.62 172.88,-31.62 172.88,-4.38 116.38,-4.38"/>
</g>
<!-- n_1_6&#45;&gt;n_6 -->
<g id="edge5" class="edge">
<title>n_1_6&#45;&gt;n_6</title>
<path fill="none" stroke="black" d="M132.88,-79.29C134.71,-69.87 137.06,-57.86 139.16,-47.04"/>
<polygon fill="black" stroke="black" points="142.56,-47.91 141.04,-37.43 135.69,-46.57 142.56,-47.91"/>
</g>
<!-- n_2 -->
<g id="node8" class="node">
<title>n_2</title>
<polygon fill="none" stroke="black" points="247.5,-5.38 247.5,-30.62 299.75,-30.62 299.75,-5.38 247.5,-5.38"/>
<text text-anchor="start" x="254.5" y="-16.07" font-family="Times New Roman,serif" font-weight="bold" font-size="9.00">Preschool</text>
<polygon fill="none" stroke="black" points="246.5,-4.38 246.5,-31.62 300.75,-31.62 300.75,-4.38 246.5,-4.38"/>
</g>
<!-- n_2_5&#45;&gt;n_2 -->
<g id="edge7" class="edge">
<title>n_2_5&#45;&gt;n_2</title>
<path fill="none" stroke="black" d="M284.59,-79.29C282.87,-69.87 280.69,-57.86 278.72,-47.04"/>
<polygon fill="black" stroke="black" points="282.21,-46.64 276.98,-37.43 275.32,-47.9 282.21,-46.64"/>
</g>
<!-- n_5 -->
<g id="node9" class="node">
<title>n_5</title>
<polygon fill="none" stroke="black" points="347.12,-5.38 347.12,-30.62 400.12,-30.62 400.12,-5.38 347.12,-5.38"/>
<text text-anchor="start" x="354.12" y="-16.07" font-family="Times New Roman,serif" font-weight="bold" font-size="9.00">Technical</text>
<polygon fill="none" stroke="black" points="346.12,-4.38 346.12,-31.62 401.12,-31.62 401.12,-4.38 346.12,-4.38"/>
</g>
<!-- n_2_5&#45;&gt;n_5 -->
<g id="edge8" class="edge">
<title>n_2_5&#45;&gt;n_5</title>
<path fill="none" stroke="black" d="M306.29,-79.29C318.04,-68.77 333.41,-55.01 346.49,-43.29"/>
<polygon fill="black" stroke="black" points="348.46,-46.23 353.58,-36.95 343.79,-41.01 348.46,-46.23"/>
</g>
<!-- n_0 -->
<g id="node11" class="node">
<title>n_0</title>
<polygon fill="none" stroke="black" points="406.75,-84.38 406.75,-109.62 466.5,-109.62 466.5,-84.38 406.75,-84.38"/>
<text text-anchor="start" x="413.75" y="-95.08" font-family="Times New Roman,serif" font-weight="bold" font-size="9.00">Primary (P)</text>
<polygon fill="none" stroke="black" points="405.75,-83.38 405.75,-110.62 467.5,-110.62 467.5,-83.38 405.75,-83.38"/>
</g>
<!-- n_0_3&#45;&gt;n_0 -->
<g id="edge10" class="edge">
<title>n_0_3&#45;&gt;n_0</title>
<path fill="none" stroke="black" d="M443.72,-161.03C442.58,-150.96 441.12,-137.92 439.81,-126.32"/>
<polygon fill="black" stroke="black" points="443.3,-125.99 438.7,-116.45 436.34,-126.77 443.3,-125.99"/>
</g>
<!-- n_3 -->
<g id="node12" class="node">
<title>n_3</title>
<polygon fill="none" stroke="black" points="513.25,-84.38 513.25,-109.62 582,-109.62 582,-84.38 513.25,-84.38"/>
<text text-anchor="start" x="520.25" y="-95.08" font-family="Times New Roman,serif" font-weight="bold" font-size="9.00">Secondary (P)</text>
<polygon fill="none" stroke="black" points="512.25,-83.38 512.25,-110.62 583,-110.62 583,-83.38 512.25,-83.38"/>
</g>
<!-- n_0_3&#45;&gt;n_3 -->
<g id="edge11" class="edge">
<title>n_0_3&#45;&gt;n_3</title>
<path fill="none" stroke="black" d="M467.26,-161.03C481.73,-149.69 500.98,-134.58 517.02,-122.01"/>
<polygon fill="black" stroke="black" points="519.13,-124.8 524.83,-115.88 514.81,-119.29 519.13,-124.8"/>
</g>
</g>
</svg>
