<?xml version="1.0" encoding="UTF-8" standalone="no"?>
<!DOCTYPE svg PUBLIC "-//W3C//DTD SVG 1.1//EN"
 "http://www.w3.org/Graphics/SVG/1.1/DTD/svg11.dtd">
<!-- Generated by graphviz version 10.0.1 (20240210.2158)
 -->
<!-- Title: ND Pages: 1 -->
<svg width="677pt" height="517pt"
 viewBox="0.00 0.00 676.50 517.00" xmlns="http://www.w3.org/2000/svg" xmlns:xlink="http://www.w3.org/1999/xlink">
<g id="graph0" class="graph" transform="scale(1 1) rotate(0) translate(4 513)">
<title>ND</title>
<polygon fill="white" stroke="none" points="-4,4 -4,-513 672.5,-513 672.5,4 -4,4"/>
<!-- n_0_1_2_3_4_5_6 -->
<g id="node1" class="node">
<title>n_0_1_2_3_4_5_6</title>
<polygon fill="none" stroke="black" points="369.88,-445 369.88,-504 438.62,-504 438.62,-445 369.88,-445"/>
<text text-anchor="start" x="381.38" y="-489.45" font-family="Times New Roman,serif" font-weight="bold" font-size="9.00">Primary (P)</text>
<text text-anchor="start" x="385.12" y="-480.45" font-family="Times New Roman,serif" font-weight="bold" font-size="9.00">Preschool</text>
<text text-anchor="start" x="376.88" y="-471.45" font-family="Times New Roman,serif" font-weight="bold" font-size="9.00">Secondary (P)</text>
<text text-anchor="start" x="384.75" y="-462.45" font-family="Times New Roman,serif" font-weight="bold" font-size="9.00">Technical</text>
<text text-anchor="start" x="384" y="-453.45" font-family="Times New Roman,serif" font-weight="bold" font-size="9.00">University</text>
<polygon fill="none" stroke="black" points="438.62,-445 438.62,-504 508.88,-504 508.88,-445 438.62,-445"/>
<text text-anchor="start" x="450.12" y="-475.95" font-family="Times New Roman,serif" font-weight="bold" font-size="9.00">Primary (G)</text>
<text text-anchor="start" x="445.62" y="-466.95" font-family="Times New Roman,serif" font-weight="bold" font-size="9.00">Secondary (G)</text>
<polygon fill="none" stroke="black" points="368.88,-444 368.88,-505 509.88,-505 509.88,-444 368.88,-444"/>
</g>
<!-- n_0_2_3_5_6 -->
<g id="node2" class="node">
<title>n_0_2_3_5_6</title>
<polygon fill="none" stroke="black" points="287.12,-342 287.12,-392 355.88,-392 355.88,-342 287.12,-342"/>
<text text-anchor="start" x="302.38" y="-377.45" font-family="Times New Roman,serif" font-weight="bold" font-size="9.00">Preschool</text>
<text text-anchor="start" x="294.12" y="-368.45" font-family="Times New Roman,serif" font-weight="bold" font-size="9.00">Secondary (P)</text>
<text text-anchor="start" x="302" y="-359.45" font-family="Times New Roman,serif" font-weight="bold" font-size="9.00">Technical</text>
<text text-anchor="start" x="301.25" y="-350.45" font-family="Times New Roman,serif" font-weight="bold" font-size="9.00">University</text>
<polygon fill="none" stroke="black" points="355.88,-342 355.88,-392 415.62,-392 415.62,-342 355.88,-342"/>
<text text-anchor="start" x="362.88" y="-365.07" font-family="Times New Roman,serif" font-weight="bold" font-size="9.00">Primary (P)</text>
<polygon fill="none" stroke="black" points="286.12,-341 286.12,-393 416.62,-393 416.62,-341 286.12,-341"/>
</g>
<!-- n_0_1_2_3_4_5_6&#45;&gt;n_0_2_3_5_6 -->
<g id="edge1" class="edge">
<title>n_0_1_2_3_4_5_6&#45;&gt;n_0_2_3_5_6</title>
<path fill="none" stroke="black" d="M411.53,-440.12C402.39,-429.16 392.17,-416.91 382.79,-405.66"/>
<polygon fill="black" stroke="black" points="385.54,-403.5 376.45,-398.06 380.17,-407.98 385.54,-403.5"/>
</g>
<!-- n_1_4 -->
<g id="node11" class="node">
<title>n_1_4</title>
<polygon fill="none" stroke="black" points="462.62,-354.38 462.62,-379.62 523.88,-379.62 523.88,-354.38 462.62,-354.38"/>
<text text-anchor="start" x="469.62" y="-365.07" font-family="Times New Roman,serif" font-weight="bold" font-size="9.00">Primary (G)</text>
<polygon fill="none" stroke="black" points="523.88,-354.38 523.88,-379.62 594.12,-379.62 594.12,-354.38 523.88,-354.38"/>
<text text-anchor="start" x="530.88" y="-365.07" font-family="Times New Roman,serif" font-weight="bold" font-size="9.00">Secondary (G)</text>
<polygon fill="none" stroke="black" points="461.62,-353.38 461.62,-380.62 595.12,-380.62 595.12,-353.38 461.62,-353.38"/>
</g>
<!-- n_0_1_2_3_4_5_6&#45;&gt;n_1_4 -->
<g id="edge10" class="edge">
<title>n_0_1_2_3_4_5_6&#45;&gt;n_1_4</title>
<path fill="none" stroke="black" d="M467.54,-440.12C480.23,-425.06 495,-407.57 506.8,-393.58"/>
<polygon fill="black" stroke="black" points="509.33,-396.01 513.1,-386.11 503.98,-391.49 509.33,-396.01"/>
</g>
<!-- n_2_3_5_6 -->
<g id="node3" class="node">
<title>n_2_3_5_6</title>
<polygon fill="none" stroke="black" points="170.5,-248 170.5,-289 239.25,-289 239.25,-248 170.5,-248"/>
<text text-anchor="start" x="185.75" y="-274.45" font-family="Times New Roman,serif" font-weight="bold" font-size="9.00">Preschool</text>
<text text-anchor="start" x="177.5" y="-265.45" font-family="Times New Roman,serif" font-weight="bold" font-size="9.00">Secondary (P)</text>
<text text-anchor="start" x="184.62" y="-256.45" font-family="Times New Roman,serif" font-weight="bold" font-size="9.00">University</text>
<polygon fill="none" stroke="black" points="239.25,-248 239.25,-289 292.25,-289 292.25,-248 239.25,-248"/>
<text text-anchor="start" x="246.25" y="-266.57" font-family="Times New Roman,serif" font-weight="bold" font-size="9.00">Technical</text>
<polygon fill="none" stroke="black" points="169.5,-247 169.5,-290 293.25,-290 293.25,-247 169.5,-247"/>
</g>
<!-- n_0_2_3_5_6&#45;&gt;n_2_3_5_6 -->
<g id="edge2" class="edge">
<title>n_0_2_3_5_6&#45;&gt;n_2_3_5_6</title>
<path fill="none" stroke="black" d="M315.37,-337.05C301.19,-325.65 284.87,-312.52 270.41,-300.89"/>
<polygon fill="black" stroke="black" points="272.85,-298.36 262.86,-294.82 268.46,-303.82 272.85,-298.36"/>
</g>
<!-- n_0 -->
<g id="node10" class="node">
<title>n_0</title>
<polygon fill="none" stroke="black" points="339.5,-255.88 339.5,-281.12 399.25,-281.12 399.25,-255.88 339.5,-255.88"/>
<text text-anchor="start" x="346.5" y="-266.57" font-family="Times New Roman,serif" font-weight="bold" font-size="9.00">Primary (P)</text>
<polygon fill="none" stroke="black" points="338.5,-254.88 338.5,-282.12 400.25,-282.12 400.25,-254.88 338.5,-254.88"/>
</g>
<!-- n_0_2_3_5_6&#45;&gt;n_0 -->
<g id="edge9" class="edge">
<title>n_0_2_3_5_6&#45;&gt;n_0</title>
<path fill="none" stroke="black" d="M356.78,-337.05C359.11,-324.51 361.84,-309.89 364.16,-297.47"/>
<polygon fill="black" stroke="black" points="367.56,-298.33 365.95,-287.85 360.68,-297.04 367.56,-298.33"/>
</g>
<!-- n_2_3_6 -->
<g id="node4" class="node">
<title>n_2_3_6</title>
<polygon fill="none" stroke="black" points="103.88,-163 103.88,-195 172.62,-195 172.62,-163 103.88,-163"/>
<text text-anchor="start" x="110.88" y="-180.45" font-family="Times New Roman,serif" font-weight="bold" font-size="9.00">Secondary (P)</text>
<text text-anchor="start" x="118" y="-171.45" font-family="Times New Roman,serif" font-weight="bold" font-size="9.00">University</text>
<polygon fill="none" stroke="black" points="172.62,-163 172.62,-195 224.88,-195 224.88,-163 172.62,-163"/>
<text text-anchor="start" x="179.62" y="-177.07" font-family="Times New Roman,serif" font-weight="bold" font-size="9.00">Preschool</text>
<polygon fill="none" stroke="black" points="102.88,-162 102.88,-196 225.88,-196 225.88,-162 102.88,-162"/>
</g>
<!-- n_2_3_5_6&#45;&gt;n_2_3_6 -->
<g id="edge3" class="edge">
<title>n_2_3_5_6&#45;&gt;n_2_3_6</title>
<path fill="none" stroke="black" d="M212.71,-243.13C204.54,-232.46 194.9,-219.87 186.39,-208.75"/>
<polygon fill="black" stroke="black" points="189.33,-206.84 180.48,-201.03 183.78,-211.1 189.33,-206.84"/>
</g>
<!-- n_5 -->
<g id="node9" class="node">
<title>n_5</title>
<polygon fill="none" stroke="black" points="271.88,-166.38 271.88,-191.62 324.88,-191.62 324.88,-166.38 271.88,-166.38"/>
<text text-anchor="start" x="278.88" y="-177.07" font-family="Times New Roman,serif" font-weight="bold" font-size="9.00">Technical</text>
<polygon fill="none" stroke="black" points="270.88,-165.38 270.88,-192.62 325.88,-192.62 325.88,-165.38 270.88,-165.38"/>
</g>
<!-- n_2_3_5_6&#45;&gt;n_5 -->
<g id="edge8" class="edge">
<title>n_2_3_5_6&#45;&gt;n_5</title>
<path fill="none" stroke="black" d="M250.04,-243.13C258.96,-231.48 269.64,-217.53 278.69,-205.71"/>
<polygon fill="black" stroke="black" points="281.31,-208.04 284.61,-197.97 275.75,-203.78 281.31,-208.04"/>
</g>
<!-- n_3_6 -->
<g id="node5" class="node">
<title>n_3_6</title>
<polygon fill="none" stroke="black" points="35.75,-84.38 35.75,-109.62 104.5,-109.62 104.5,-84.38 35.75,-84.38"/>
<text text-anchor="start" x="42.75" y="-95.08" font-family="Times New Roman,serif" font-weight="bold" font-size="9.00">Secondary (P)</text>
<polygon fill="none" stroke="black" points="104.5,-84.38 104.5,-109.62 159,-109.62 159,-84.38 104.5,-84.38"/>
<text text-anchor="start" x="111.5" y="-95.08" font-family="Times New Roman,serif" font-weight="bold" font-size="9.00">University</text>
<polygon fill="none" stroke="black" points="34.75,-83.38 34.75,-110.62 160,-110.62 160,-83.38 34.75,-83.38"/>
</g>
<!-- n_2_3_6&#45;&gt;n_3_6 -->
<g id="edge4" class="edge">
<title>n_2_3_6&#45;&gt;n_3_6</title>
<path fill="none" stroke="black" d="M147.81,-158.22C139.01,-147.71 128.08,-134.66 118.65,-123.41"/>
<polygon fill="black" stroke="black" points="121.56,-121.42 112.45,-116 116.19,-125.92 121.56,-121.42"/>
</g>
<!-- n_2 -->
<g id="node8" class="node">
<title>n_2</title>
<polygon fill="none" stroke="black" points="206.25,-84.38 206.25,-109.62 258.5,-109.62 258.5,-84.38 206.25,-84.38"/>
<text text-anchor="start" x="213.25" y="-95.08" font-family="Times New Roman,serif" font-weight="bold" font-size="9.00">Preschool</text>
<polygon fill="none" stroke="black" points="205.25,-83.38 205.25,-110.62 259.5,-110.62 259.5,-83.38 205.25,-83.38"/>
</g>
<!-- n_2_3_6&#45;&gt;n_2 -->
<g id="edge7" class="edge">
<title>n_2_3_6&#45;&gt;n_2</title>
<path fill="none" stroke="black" d="M181.18,-158.22C190.12,-147.71 201.21,-134.66 210.78,-123.41"/>
<polygon fill="black" stroke="black" points="213.27,-125.88 217.08,-116 207.93,-121.35 213.27,-125.88"/>
</g>
<!-- n_3 -->
<g id="node6" class="node">
<title>n_3</title>
<polygon fill="none" stroke="black" points="9,-5.38 9,-30.62 77.75,-30.62 77.75,-5.38 9,-5.38"/>
<text text-anchor="start" x="16" y="-16.07" font-family="Times New Roman,serif" font-weight="bold" font-size="9.00">Secondary (P)</text>
<polygon fill="none" stroke="black" points="8,-4.38 8,-31.62 78.75,-31.62 78.75,-4.38 8,-4.38"/>
</g>
<!-- n_3_6&#45;&gt;n_3 -->
<g id="edge5" class="edge">
<title>n_3_6&#45;&gt;n_3</title>
<path fill="none" stroke="black" d="M85.66,-79.29C78.7,-69.37 69.72,-56.57 61.83,-45.32"/>
<polygon fill="black" stroke="black" points="64.73,-43.36 56.12,-37.18 59,-47.38 64.73,-43.36"/>
</g>
<!-- n_6 -->
<g id="node7" class="node">
<title>n_6</title>
<polygon fill="none" stroke="black" points="125.12,-5.38 125.12,-30.62 179.62,-30.62 179.62,-5.38 125.12,-5.38"/>
<text text-anchor="start" x="132.12" y="-16.07" font-family="Times New Roman,serif" font-weight="bold" font-size="9.00">University</text>
<polygon fill="none" stroke="black" points="124.12,-4.38 124.12,-31.62 180.62,-31.62 180.62,-4.38 124.12,-4.38"/>
</g>
<!-- n_3_6&#45;&gt;n_6 -->
<g id="edge6" class="edge">
<title>n_3_6&#45;&gt;n_6</title>
<path fill="none" stroke="black" d="M109.31,-79.29C116.47,-69.27 125.72,-56.31 133.82,-44.98"/>
<polygon fill="black" stroke="black" points="136.43,-47.34 139.39,-37.17 130.73,-43.28 136.43,-47.34"/>
</g>
<!-- n_1 -->
<g id="node12" class="node">
<title>n_1</title>
<polygon fill="none" stroke="black" points="480.75,-255.88 480.75,-281.12 542,-281.12 542,-255.88 480.75,-255.88"/>
<text text-anchor="start" x="487.75" y="-266.57" font-family="Times New Roman,serif" font-weight="bold" font-size="9.00">Primary (G)</text>
<polygon fill="none" stroke="black" points="479.75,-254.88 479.75,-282.12 543,-282.12 543,-254.88 479.75,-254.88"/>
</g>
<!-- n_1_4&#45;&gt;n_1 -->
<g id="edge11" class="edge">
<title>n_1_4&#45;&gt;n_1</title>
<path fill="none" stroke="black" d="M525.41,-349.19C522.92,-335.03 519.29,-314.46 516.35,-297.76"/>
<polygon fill="black" stroke="black" points="519.8,-297.17 514.62,-287.93 512.91,-298.39 519.8,-297.17"/>
</g>
<!-- n_4 -->
<g id="node13" class="node">
<title>n_4</title>
<polygon fill="none" stroke="black" points="589.25,-255.88 589.25,-281.12 659.5,-281.12 659.5,-255.88 589.25,-255.88"/>
<text text-anchor="start" x="596.25" y="-266.57" font-family="Times New Roman,serif" font-weight="bold" font-size="9.00">Secondary (G)</text>
<polygon fill="none" stroke="black" points="588.25,-254.88 588.25,-282.12 660.5,-282.12 660.5,-254.88 588.25,-254.88"/>
</g>
<!-- n_1_4&#45;&gt;n_4 -->
<g id="edge12" class="edge">
<title>n_1_4&#45;&gt;n_4</title>
<path fill="none" stroke="black" d="M545.1,-349.19C560.15,-334.06 582.46,-311.63 599.59,-294.42"/>
<polygon fill="black" stroke="black" points="601.88,-297.07 606.46,-287.51 596.92,-292.13 601.88,-297.07"/>
</g>
</g>
</svg>
