<?xml version="1.0" encoding="UTF-8" standalone="no"?>
<!DOCTYPE svg PUBLIC "-//W3C//DTD SVG 1.1//EN"
 "http://www.w3.org/Graphics/SVG/1.1/DTD/svg11.dtd">
<!-- Generated by graphviz version 10.0.1 (20240210.2158)
 -->
<!-- Title: ND Pages: 1 -->
<svg width="667pt" height="311pt"
 viewBox="0.00 0.00 667.38 311.00" xmlns="http://www.w3.org/2000/svg" xmlns:xlink="http://www.w3.org/1999/xlink">
<g id="graph0" class="graph" transform="scale(1 1) rotate(0) translate(4 307)">
<title>ND</title>
<polygon fill="white" stroke="none" points="-4,4 -4,-307 663.38,-307 663.38,4 -4,4"/>
<!-- n_0_1_2_3_4_5_6 -->
<g id="node1" class="node">
<title>n_0_1_2_3_4_5_6</title>
<polygon fill="none" stroke="black" points="342.12,-248 342.12,-298 412.38,-298 412.38,-248 342.12,-248"/>
<text text-anchor="start" x="354.38" y="-283.45" font-family="Times New Roman,serif" font-weight="bold" font-size="9.00">Primary (P)</text>
<text text-anchor="start" x="349.88" y="-274.45" font-family="Times New Roman,serif" font-weight="bold" font-size="9.00">Secondary (P)</text>
<text text-anchor="start" x="349.12" y="-265.45" font-family="Times New Roman,serif" font-weight="bold" font-size="9.00">Secondary (G)</text>
<text text-anchor="start" x="357" y="-256.45" font-family="Times New Roman,serif" font-weight="bold" font-size="9.00">University</text>
<polygon fill="none" stroke="black" points="412.38,-248 412.38,-298 473.62,-298 473.62,-248 412.38,-248"/>
<text text-anchor="start" x="419.38" y="-278.95" font-family="Times New Roman,serif" font-weight="bold" font-size="9.00">Primary (G)</text>
<text text-anchor="start" x="423.88" y="-269.95" font-family="Times New Roman,serif" font-weight="bold" font-size="9.00">Preschool</text>
<text text-anchor="start" x="423.5" y="-260.95" font-family="Times New Roman,serif" font-weight="bold" font-size="9.00">Technical</text>
<polygon fill="none" stroke="black" points="341.12,-247 341.12,-299 474.62,-299 474.62,-247 341.12,-247"/>
</g>
<!-- n_0_3_4_6 -->
<g id="node2" class="node">
<title>n_0_3_4_6</title>
<polygon fill="none" stroke="black" points="251.38,-163 251.38,-195 320.12,-195 320.12,-163 251.38,-163"/>
<text text-anchor="start" x="262.88" y="-180.45" font-family="Times New Roman,serif" font-weight="bold" font-size="9.00">Primary (P)</text>
<text text-anchor="start" x="258.38" y="-171.45" font-family="Times New Roman,serif" font-weight="bold" font-size="9.00">Secondary (P)</text>
<polygon fill="none" stroke="black" points="320.12,-163 320.12,-195 390.38,-195 390.38,-163 320.12,-163"/>
<text text-anchor="start" x="327.12" y="-180.45" font-family="Times New Roman,serif" font-weight="bold" font-size="9.00">Secondary (G)</text>
<text text-anchor="start" x="335" y="-171.45" font-family="Times New Roman,serif" font-weight="bold" font-size="9.00">University</text>
<polygon fill="none" stroke="black" points="250.38,-162 250.38,-196 391.38,-196 391.38,-162 250.38,-162"/>
</g>
<!-- n_0_1_2_3_4_5_6&#45;&gt;n_0_3_4_6 -->
<g id="edge1" class="edge">
<title>n_0_1_2_3_4_5_6&#45;&gt;n_0_3_4_6</title>
<path fill="none" stroke="black" d="M380.59,-243.14C369.94,-231.89 357.79,-219.04 347.24,-207.88"/>
<polygon fill="black" stroke="black" points="349.99,-205.69 340.57,-200.83 344.9,-210.5 349.99,-205.69"/>
</g>
<!-- n_1_2_5 -->
<g id="node9" class="node">
<title>n_1_2_5</title>
<polygon fill="none" stroke="black" points="437.75,-163 437.75,-195 499,-195 499,-163 437.75,-163"/>
<text text-anchor="start" x="444.75" y="-180.45" font-family="Times New Roman,serif" font-weight="bold" font-size="9.00">Primary (G)</text>
<text text-anchor="start" x="449.25" y="-171.45" font-family="Times New Roman,serif" font-weight="bold" font-size="9.00">Preschool</text>
<polygon fill="none" stroke="black" points="499,-163 499,-195 552,-195 552,-163 499,-163"/>
<text text-anchor="start" x="506" y="-177.07" font-family="Times New Roman,serif" font-weight="bold" font-size="9.00">Technical</text>
<polygon fill="none" stroke="black" points="436.75,-162 436.75,-196 553,-196 553,-162 436.75,-162"/>
</g>
<!-- n_0_1_2_3_4_5_6&#45;&gt;n_1_2_5 -->
<g id="edge8" class="edge">
<title>n_0_1_2_3_4_5_6&#45;&gt;n_1_2_5</title>
<path fill="none" stroke="black" d="M435.16,-243.14C445.81,-231.89 457.96,-219.04 468.51,-207.88"/>
<polygon fill="black" stroke="black" points="470.85,-210.5 475.18,-200.83 465.76,-205.69 470.85,-210.5"/>
</g>
<!-- n_0_3 -->
<g id="node3" class="node">
<title>n_0_3</title>
<polygon fill="none" stroke="black" points="84.62,-84.38 84.62,-109.62 144.38,-109.62 144.38,-84.38 84.62,-84.38"/>
<text text-anchor="start" x="91.62" y="-95.08" font-family="Times New Roman,serif" font-weight="bold" font-size="9.00">Primary (P)</text>
<polygon fill="none" stroke="black" points="144.38,-84.38 144.38,-109.62 213.12,-109.62 213.12,-84.38 144.38,-84.38"/>
<text text-anchor="start" x="151.38" y="-95.08" font-family="Times New Roman,serif" font-weight="bold" font-size="9.00">Secondary (P)</text>
<polygon fill="none" stroke="black" points="83.62,-83.38 83.62,-110.62 214.12,-110.62 214.12,-83.38 83.62,-83.38"/>
</g>
<!-- n_0_3_4_6&#45;&gt;n_0_3 -->
<g id="edge2" class="edge">
<title>n_0_3_4_6&#45;&gt;n_0_3</title>
<path fill="none" stroke="black" d="M277.92,-158.02C252.82,-146.34 221.13,-131.61 195.43,-119.66"/>
<polygon fill="black" stroke="black" points="197.1,-116.57 186.56,-115.53 194.15,-122.92 197.1,-116.57"/>
</g>
<!-- n_4_6 -->
<g id="node6" class="node">
<title>n_4_6</title>
<polygon fill="none" stroke="black" points="260.5,-84.38 260.5,-109.62 330.75,-109.62 330.75,-84.38 260.5,-84.38"/>
<text text-anchor="start" x="267.5" y="-95.08" font-family="Times New Roman,serif" font-weight="bold" font-size="9.00">Secondary (G)</text>
<polygon fill="none" stroke="black" points="330.75,-84.38 330.75,-109.62 385.25,-109.62 385.25,-84.38 330.75,-84.38"/>
<text text-anchor="start" x="337.75" y="-95.08" font-family="Times New Roman,serif" font-weight="bold" font-size="9.00">University</text>
<polygon fill="none" stroke="black" points="259.5,-83.38 259.5,-110.62 386.25,-110.62 386.25,-83.38 259.5,-83.38"/>
</g>
<!-- n_0_3_4_6&#45;&gt;n_4_6 -->
<g id="edge5" class="edge">
<title>n_0_3_4_6&#45;&gt;n_4_6</title>
<path fill="none" stroke="black" d="M321.37,-158.22C321.61,-148.54 321.91,-136.72 322.17,-126.11"/>
<polygon fill="black" stroke="black" points="325.66,-126.44 322.42,-116.36 318.67,-126.27 325.66,-126.44"/>
</g>
<!-- n_0 -->
<g id="node4" class="node">
<title>n_0</title>
<polygon fill="none" stroke="black" points="9,-5.38 9,-30.62 68.75,-30.62 68.75,-5.38 9,-5.38"/>
<text text-anchor="start" x="16" y="-16.07" font-family="Times New Roman,serif" font-weight="bold" font-size="9.00">Primary (P)</text>
<polygon fill="none" stroke="black" points="8,-4.38 8,-31.62 69.75,-31.62 69.75,-4.38 8,-4.38"/>
</g>
<!-- n_0_3&#45;&gt;n_0 -->
<g id="edge3" class="edge">
<title>n_0_3&#45;&gt;n_0</title>
<path fill="none" stroke="black" d="M124.74,-79.1C109.26,-68.27 88.97,-54.06 71.99,-42.18"/>
<polygon fill="black" stroke="black" points="74.4,-39.59 64.2,-36.73 70.38,-45.33 74.4,-39.59"/>
</g>
<!-- n_3 -->
<g id="node5" class="node">
<title>n_3</title>
<polygon fill="none" stroke="black" points="115.5,-5.38 115.5,-30.62 184.25,-30.62 184.25,-5.38 115.5,-5.38"/>
<text text-anchor="start" x="122.5" y="-16.07" font-family="Times New Roman,serif" font-weight="bold" font-size="9.00">Secondary (P)</text>
<polygon fill="none" stroke="black" points="114.5,-4.38 114.5,-31.62 185.25,-31.62 185.25,-4.38 114.5,-4.38"/>
</g>
<!-- n_0_3&#45;&gt;n_3 -->
<g id="edge4" class="edge">
<title>n_0_3&#45;&gt;n_3</title>
<path fill="none" stroke="black" d="M149.09,-79.29C149.21,-69.97 149.37,-58.11 149.51,-47.38"/>
<polygon fill="black" stroke="black" points="153.01,-47.5 149.64,-37.45 146.01,-47.41 153.01,-47.5"/>
</g>
<!-- n_4 -->
<g id="node7" class="node">
<title>n_4</title>
<polygon fill="none" stroke="black" points="239.75,-5.38 239.75,-30.62 310,-30.62 310,-5.38 239.75,-5.38"/>
<text text-anchor="start" x="246.75" y="-16.07" font-family="Times New Roman,serif" font-weight="bold" font-size="9.00">Secondary (G)</text>
<polygon fill="none" stroke="black" points="238.75,-4.38 238.75,-31.62 311,-31.62 311,-4.38 238.75,-4.38"/>
</g>
<!-- n_4_6&#45;&gt;n_4 -->
<g id="edge6" class="edge">
<title>n_4_6&#45;&gt;n_4</title>
<path fill="none" stroke="black" d="M312.46,-79.29C306.34,-69.47 298.46,-56.83 291.49,-45.66"/>
<polygon fill="black" stroke="black" points="294.5,-43.86 286.24,-37.23 288.56,-47.56 294.5,-43.86"/>
</g>
<!-- n_6 -->
<g id="node8" class="node">
<title>n_6</title>
<polygon fill="none" stroke="black" points="356.62,-5.38 356.62,-30.62 411.12,-30.62 411.12,-5.38 356.62,-5.38"/>
<text text-anchor="start" x="363.62" y="-16.07" font-family="Times New Roman,serif" font-weight="bold" font-size="9.00">University</text>
<polygon fill="none" stroke="black" points="355.62,-4.38 355.62,-31.62 412.12,-31.62 412.12,-4.38 355.62,-4.38"/>
</g>
<!-- n_4_6&#45;&gt;n_6 -->
<g id="edge7" class="edge">
<title>n_4_6&#45;&gt;n_6</title>
<path fill="none" stroke="black" d="M336.11,-79.29C344.13,-69.17 354.52,-56.05 363.56,-44.64"/>
<polygon fill="black" stroke="black" points="366.05,-47.14 369.51,-37.13 360.56,-42.79 366.05,-47.14"/>
</g>
<!-- n_1_2 -->
<g id="node10" class="node">
<title>n_1_2</title>
<polygon fill="none" stroke="black" points="437.12,-84.38 437.12,-109.62 498.38,-109.62 498.38,-84.38 437.12,-84.38"/>
<text text-anchor="start" x="444.12" y="-95.08" font-family="Times New Roman,serif" font-weight="bold" font-size="9.00">Primary (G)</text>
<polygon fill="none" stroke="black" points="498.38,-84.38 498.38,-109.62 550.62,-109.62 550.62,-84.38 498.38,-84.38"/>
<text text-anchor="start" x="505.38" y="-95.08" font-family="Times New Roman,serif" font-weight="bold" font-size="9.00">Preschool</text>
<polygon fill="none" stroke="black" points="436.12,-83.38 436.12,-110.62 551.62,-110.62 551.62,-83.38 436.12,-83.38"/>
</g>
<!-- n_1_2_5&#45;&gt;n_1_2 -->
<g id="edge9" class="edge">
<title>n_1_2_5&#45;&gt;n_1_2</title>
<path fill="none" stroke="black" d="M494.63,-158.22C494.51,-148.54 494.36,-136.72 494.23,-126.11"/>
<polygon fill="black" stroke="black" points="497.73,-126.31 494.1,-116.36 490.73,-126.4 497.73,-126.31"/>
</g>
<!-- n_5 -->
<g id="node13" class="node">
<title>n_5</title>
<polygon fill="none" stroke="black" points="597.38,-84.38 597.38,-109.62 650.38,-109.62 650.38,-84.38 597.38,-84.38"/>
<text text-anchor="start" x="604.38" y="-95.08" font-family="Times New Roman,serif" font-weight="bold" font-size="9.00">Technical</text>
<polygon fill="none" stroke="black" points="596.38,-83.38 596.38,-110.62 651.38,-110.62 651.38,-83.38 596.38,-83.38"/>
</g>
<!-- n_1_2_5&#45;&gt;n_5 -->
<g id="edge12" class="edge">
<title>n_1_2_5&#45;&gt;n_5</title>
<path fill="none" stroke="black" d="M527.09,-158.02C545.31,-146.72 568.16,-132.55 587.08,-120.82"/>
<polygon fill="black" stroke="black" points="588.91,-123.8 595.57,-115.56 585.22,-117.85 588.91,-123.8"/>
</g>
<!-- n_1 -->
<g id="node11" class="node">
<title>n_1</title>
<polygon fill="none" stroke="black" points="462.25,-5.38 462.25,-30.62 523.5,-30.62 523.5,-5.38 462.25,-5.38"/>
<text text-anchor="start" x="469.25" y="-16.07" font-family="Times New Roman,serif" font-weight="bold" font-size="9.00">Primary (G)</text>
<polygon fill="none" stroke="black" points="461.25,-4.38 461.25,-31.62 524.5,-31.62 524.5,-4.38 461.25,-4.38"/>
</g>
<!-- n_1_2&#45;&gt;n_1 -->
<g id="edge10" class="edge">
<title>n_1_2&#45;&gt;n_1</title>
<path fill="none" stroke="black" d="M493.66,-79.29C493.54,-69.97 493.38,-58.11 493.24,-47.38"/>
<polygon fill="black" stroke="black" points="496.74,-47.41 493.11,-37.45 489.74,-47.5 496.74,-47.41"/>
</g>
<!-- n_2 -->
<g id="node12" class="node">
<title>n_2</title>
<polygon fill="none" stroke="black" points="570.75,-5.38 570.75,-30.62 623,-30.62 623,-5.38 570.75,-5.38"/>
<text text-anchor="start" x="577.75" y="-16.07" font-family="Times New Roman,serif" font-weight="bold" font-size="9.00">Preschool</text>
<polygon fill="none" stroke="black" points="569.75,-4.38 569.75,-31.62 624,-31.62 624,-4.38 569.75,-4.38"/>
</g>
<!-- n_1_2&#45;&gt;n_2 -->
<g id="edge11" class="edge">
<title>n_1_2&#45;&gt;n_2</title>
<path fill="none" stroke="black" d="M516.48,-79.1C530.83,-68.37 549.62,-54.33 565.42,-42.51"/>
<polygon fill="black" stroke="black" points="567.2,-45.56 573.11,-36.76 563.01,-39.95 567.2,-45.56"/>
</g>
</g>
</svg>
