<?xml version="1.0" encoding="UTF-8" standalone="no"?>
<!DOCTYPE svg PUBLIC "-//W3C//DTD SVG 1.1//EN"
 "http://www.w3.org/Graphics/SVG/1.1/DTD/svg11.dtd">
<!-- Generated by graphviz version 10.0.1 (20240210.2158)
 -->
<!-- Title: ND Pages: 1 -->
<svg width="665pt" height="517pt"
 viewBox="0.00 0.00 665.25 517.00" xmlns="http://www.w3.org/2000/svg" xmlns:xlink="http://www.w3.org/1999/xlink">
<g id="graph0" class="graph" transform="scale(1 1) rotate(0) translate(4 513)">
<title>ND</title>
<polygon fill="white" stroke="none" points="-4,4 -4,-513 661.25,-513 661.25,4 -4,4"/>
<!-- n_0_1_2_3_4_5_6 -->
<g id="node1" class="node">
<title>n_0_1_2_3_4_5_6</title>
<polygon fill="none" stroke="black" points="366.38,-445 366.38,-504 436.62,-504 436.62,-445 366.38,-445"/>
<text text-anchor="start" x="378.62" y="-489.45" font-family="Times New Roman,serif" font-weight="bold" font-size="9.00">Primary (P)</text>
<text text-anchor="start" x="377.88" y="-480.45" font-family="Times New Roman,serif" font-weight="bold" font-size="9.00">Primary (G)</text>
<text text-anchor="start" x="373.38" y="-471.45" font-family="Times New Roman,serif" font-weight="bold" font-size="9.00">Secondary (G)</text>
<text text-anchor="start" x="382" y="-462.45" font-family="Times New Roman,serif" font-weight="bold" font-size="9.00">Technical</text>
<text text-anchor="start" x="381.25" y="-453.45" font-family="Times New Roman,serif" font-weight="bold" font-size="9.00">University</text>
<polygon fill="none" stroke="black" points="436.62,-445 436.62,-504 505.38,-504 505.38,-445 436.62,-445"/>
<text text-anchor="start" x="451.88" y="-475.95" font-family="Times New Roman,serif" font-weight="bold" font-size="9.00">Preschool</text>
<text text-anchor="start" x="443.62" y="-466.95" font-family="Times New Roman,serif" font-weight="bold" font-size="9.00">Secondary (P)</text>
<polygon fill="none" stroke="black" points="365.38,-444 365.38,-505 506.38,-505 506.38,-444 365.38,-444"/>
</g>
<!-- n_0_1_4_5_6 -->
<g id="node2" class="node">
<title>n_0_1_4_5_6</title>
<polygon fill="none" stroke="black" points="284.12,-342 284.12,-392 354.38,-392 354.38,-342 284.12,-342"/>
<text text-anchor="start" x="296.38" y="-377.45" font-family="Times New Roman,serif" font-weight="bold" font-size="9.00">Primary (P)</text>
<text text-anchor="start" x="291.12" y="-368.45" font-family="Times New Roman,serif" font-weight="bold" font-size="9.00">Secondary (G)</text>
<text text-anchor="start" x="299.75" y="-359.45" font-family="Times New Roman,serif" font-weight="bold" font-size="9.00">Technical</text>
<text text-anchor="start" x="299" y="-350.45" font-family="Times New Roman,serif" font-weight="bold" font-size="9.00">University</text>
<polygon fill="none" stroke="black" points="354.38,-342 354.38,-392 415.62,-392 415.62,-342 354.38,-342"/>
<text text-anchor="start" x="361.38" y="-365.07" font-family="Times New Roman,serif" font-weight="bold" font-size="9.00">Primary (G)</text>
<polygon fill="none" stroke="black" points="283.12,-341 283.12,-393 416.62,-393 416.62,-341 283.12,-341"/>
</g>
<!-- n_0_1_2_3_4_5_6&#45;&gt;n_0_1_4_5_6 -->
<g id="edge1" class="edge">
<title>n_0_1_2_3_4_5_6&#45;&gt;n_0_1_4_5_6</title>
<path fill="none" stroke="black" d="M408.66,-440.12C399.73,-429.16 389.75,-416.91 380.58,-405.66"/>
<polygon fill="black" stroke="black" points="383.42,-403.61 374.39,-398.07 377.99,-408.03 383.42,-403.61"/>
</g>
<!-- n_2_3 -->
<g id="node11" class="node">
<title>n_2_3</title>
<polygon fill="none" stroke="black" points="462.38,-354.38 462.38,-379.62 514.62,-379.62 514.62,-354.38 462.38,-354.38"/>
<text text-anchor="start" x="469.38" y="-365.07" font-family="Times New Roman,serif" font-weight="bold" font-size="9.00">Preschool</text>
<polygon fill="none" stroke="black" points="514.62,-354.38 514.62,-379.62 583.38,-379.62 583.38,-354.38 514.62,-354.38"/>
<text text-anchor="start" x="521.62" y="-365.07" font-family="Times New Roman,serif" font-weight="bold" font-size="9.00">Secondary (P)</text>
<polygon fill="none" stroke="black" points="461.38,-353.38 461.38,-380.62 584.38,-380.62 584.38,-353.38 461.38,-353.38"/>
</g>
<!-- n_0_1_2_3_4_5_6&#45;&gt;n_2_3 -->
<g id="edge10" class="edge">
<title>n_0_1_2_3_4_5_6&#45;&gt;n_2_3</title>
<path fill="none" stroke="black" d="M463.4,-440.12C475.82,-425.06 490.25,-407.57 501.78,-393.58"/>
<polygon fill="black" stroke="black" points="504.27,-396.06 507.93,-386.12 498.87,-391.61 504.27,-396.06"/>
</g>
<!-- n_0_4_5_6 -->
<g id="node3" class="node">
<title>n_0_4_5_6</title>
<polygon fill="none" stroke="black" points="159.88,-248 159.88,-289 219.62,-289 219.62,-248 159.88,-248"/>
<text text-anchor="start" x="166.88" y="-274.45" font-family="Times New Roman,serif" font-weight="bold" font-size="9.00">Primary (P)</text>
<text text-anchor="start" x="170.25" y="-265.45" font-family="Times New Roman,serif" font-weight="bold" font-size="9.00">Technical</text>
<text text-anchor="start" x="169.5" y="-256.45" font-family="Times New Roman,serif" font-weight="bold" font-size="9.00">University</text>
<polygon fill="none" stroke="black" points="219.62,-248 219.62,-289 289.88,-289 289.88,-248 219.62,-248"/>
<text text-anchor="start" x="226.62" y="-266.57" font-family="Times New Roman,serif" font-weight="bold" font-size="9.00">Secondary (G)</text>
<polygon fill="none" stroke="black" points="158.88,-247 158.88,-290 290.88,-290 290.88,-247 158.88,-247"/>
</g>
<!-- n_0_1_4_5_6&#45;&gt;n_0_4_5_6 -->
<g id="edge2" class="edge">
<title>n_0_1_4_5_6&#45;&gt;n_0_4_5_6</title>
<path fill="none" stroke="black" d="M312.37,-337.05C297.6,-325.65 280.6,-312.52 265.54,-300.89"/>
<polygon fill="black" stroke="black" points="267.7,-298.14 257.65,-294.8 263.42,-303.68 267.7,-298.14"/>
</g>
<!-- n_1 -->
<g id="node10" class="node">
<title>n_1</title>
<polygon fill="none" stroke="black" points="337.25,-255.88 337.25,-281.12 398.5,-281.12 398.5,-255.88 337.25,-255.88"/>
<text text-anchor="start" x="344.25" y="-266.57" font-family="Times New Roman,serif" font-weight="bold" font-size="9.00">Primary (G)</text>
<polygon fill="none" stroke="black" points="336.25,-254.88 336.25,-282.12 399.5,-282.12 399.5,-254.88 336.25,-254.88"/>
</g>
<!-- n_0_1_4_5_6&#45;&gt;n_1 -->
<g id="edge9" class="edge">
<title>n_0_1_4_5_6&#45;&gt;n_1</title>
<path fill="none" stroke="black" d="M355.28,-337.05C357.61,-324.51 360.34,-309.89 362.66,-297.47"/>
<polygon fill="black" stroke="black" points="366.06,-298.33 364.45,-287.85 359.18,-297.04 366.06,-298.33"/>
</g>
<!-- n_0_5_6 -->
<g id="node4" class="node">
<title>n_0_5_6</title>
<polygon fill="none" stroke="black" points="99.5,-163 99.5,-195 159.25,-195 159.25,-163 99.5,-163"/>
<text text-anchor="start" x="106.5" y="-180.45" font-family="Times New Roman,serif" font-weight="bold" font-size="9.00">Primary (P)</text>
<text text-anchor="start" x="109.12" y="-171.45" font-family="Times New Roman,serif" font-weight="bold" font-size="9.00">University</text>
<polygon fill="none" stroke="black" points="159.25,-163 159.25,-195 212.25,-195 212.25,-163 159.25,-163"/>
<text text-anchor="start" x="166.25" y="-177.07" font-family="Times New Roman,serif" font-weight="bold" font-size="9.00">Technical</text>
<polygon fill="none" stroke="black" points="98.5,-162 98.5,-196 213.25,-196 213.25,-162 98.5,-162"/>
</g>
<!-- n_0_4_5_6&#45;&gt;n_0_5_6 -->
<g id="edge3" class="edge">
<title>n_0_4_5_6&#45;&gt;n_0_5_6</title>
<path fill="none" stroke="black" d="M205.65,-243.13C197.24,-232.46 187.31,-219.87 178.54,-208.75"/>
<polygon fill="black" stroke="black" points="181.39,-206.7 172.45,-201.01 175.89,-211.03 181.39,-206.7"/>
</g>
<!-- n_4 -->
<g id="node9" class="node">
<title>n_4</title>
<polygon fill="none" stroke="black" points="259.75,-166.38 259.75,-191.62 330,-191.62 330,-166.38 259.75,-166.38"/>
<text text-anchor="start" x="266.75" y="-177.07" font-family="Times New Roman,serif" font-weight="bold" font-size="9.00">Secondary (G)</text>
<polygon fill="none" stroke="black" points="258.75,-165.38 258.75,-192.62 331,-192.62 331,-165.38 258.75,-165.38"/>
</g>
<!-- n_0_4_5_6&#45;&gt;n_4 -->
<g id="edge8" class="edge">
<title>n_0_4_5_6&#45;&gt;n_4</title>
<path fill="none" stroke="black" d="M244.37,-243.13C253.69,-231.48 264.85,-217.53 274.31,-205.71"/>
<polygon fill="black" stroke="black" points="277,-207.95 280.51,-197.95 271.53,-203.57 277,-207.95"/>
</g>
<!-- n_0_6 -->
<g id="node5" class="node">
<title>n_0_6</title>
<polygon fill="none" stroke="black" points="33.75,-84.38 33.75,-109.62 93.5,-109.62 93.5,-84.38 33.75,-84.38"/>
<text text-anchor="start" x="40.75" y="-95.08" font-family="Times New Roman,serif" font-weight="bold" font-size="9.00">Primary (P)</text>
<polygon fill="none" stroke="black" points="93.5,-84.38 93.5,-109.62 148,-109.62 148,-84.38 93.5,-84.38"/>
<text text-anchor="start" x="100.5" y="-95.08" font-family="Times New Roman,serif" font-weight="bold" font-size="9.00">University</text>
<polygon fill="none" stroke="black" points="32.75,-83.38 32.75,-110.62 149,-110.62 149,-83.38 32.75,-83.38"/>
</g>
<!-- n_0_5_6&#45;&gt;n_0_6 -->
<g id="edge4" class="edge">
<title>n_0_5_6&#45;&gt;n_0_6</title>
<path fill="none" stroke="black" d="M139.81,-158.22C131.35,-147.81 120.87,-134.92 111.79,-123.74"/>
<polygon fill="black" stroke="black" points="114.54,-121.57 105.52,-116.02 109.1,-125.99 114.54,-121.57"/>
</g>
<!-- n_5 -->
<g id="node8" class="node">
<title>n_5</title>
<polygon fill="none" stroke="black" points="195.38,-84.38 195.38,-109.62 248.38,-109.62 248.38,-84.38 195.38,-84.38"/>
<text text-anchor="start" x="202.38" y="-95.08" font-family="Times New Roman,serif" font-weight="bold" font-size="9.00">Technical</text>
<polygon fill="none" stroke="black" points="194.38,-83.38 194.38,-110.62 249.38,-110.62 249.38,-83.38 194.38,-83.38"/>
</g>
<!-- n_0_5_6&#45;&gt;n_5 -->
<g id="edge7" class="edge">
<title>n_0_5_6&#45;&gt;n_5</title>
<path fill="none" stroke="black" d="M172.19,-158.22C180.86,-147.71 191.63,-134.66 200.91,-123.41"/>
<polygon fill="black" stroke="black" points="203.35,-125.95 207.02,-116.01 197.95,-121.5 203.35,-125.95"/>
</g>
<!-- n_0 -->
<g id="node6" class="node">
<title>n_0</title>
<polygon fill="none" stroke="black" points="9,-5.38 9,-30.62 68.75,-30.62 68.75,-5.38 9,-5.38"/>
<text text-anchor="start" x="16" y="-16.07" font-family="Times New Roman,serif" font-weight="bold" font-size="9.00">Primary (P)</text>
<polygon fill="none" stroke="black" points="8,-4.38 8,-31.62 69.75,-31.62 69.75,-4.38 8,-4.38"/>
</g>
<!-- n_0_6&#45;&gt;n_0 -->
<g id="edge5" class="edge">
<title>n_0_6&#45;&gt;n_0</title>
<path fill="none" stroke="black" d="M79.59,-79.29C72.89,-69.37 64.25,-56.57 56.65,-45.32"/>
<polygon fill="black" stroke="black" points="59.66,-43.52 51.16,-37.2 53.86,-47.44 59.66,-43.52"/>
</g>
<!-- n_6 -->
<g id="node7" class="node">
<title>n_6</title>
<polygon fill="none" stroke="black" points="115.62,-5.38 115.62,-30.62 170.12,-30.62 170.12,-5.38 115.62,-5.38"/>
<text text-anchor="start" x="122.62" y="-16.07" font-family="Times New Roman,serif" font-weight="bold" font-size="9.00">University</text>
<polygon fill="none" stroke="black" points="114.62,-4.38 114.62,-31.62 171.12,-31.62 171.12,-4.38 114.62,-4.38"/>
</g>
<!-- n_0_6&#45;&gt;n_6 -->
<g id="edge6" class="edge">
<title>n_0_6&#45;&gt;n_6</title>
<path fill="none" stroke="black" d="M102.16,-79.29C108.86,-69.37 117.5,-56.57 125.1,-45.32"/>
<polygon fill="black" stroke="black" points="127.89,-47.44 130.59,-37.2 122.09,-43.52 127.89,-47.44"/>
</g>
<!-- n_2 -->
<g id="node12" class="node">
<title>n_2</title>
<polygon fill="none" stroke="black" points="479.75,-255.88 479.75,-281.12 532,-281.12 532,-255.88 479.75,-255.88"/>
<text text-anchor="start" x="486.75" y="-266.57" font-family="Times New Roman,serif" font-weight="bold" font-size="9.00">Preschool</text>
<polygon fill="none" stroke="black" points="478.75,-254.88 478.75,-282.12 533,-282.12 533,-254.88 478.75,-254.88"/>
</g>
<!-- n_2_3&#45;&gt;n_2 -->
<g id="edge11" class="edge">
<title>n_2_3&#45;&gt;n_2</title>
<path fill="none" stroke="black" d="M519.91,-349.19C517.42,-335.03 513.79,-314.46 510.85,-297.76"/>
<polygon fill="black" stroke="black" points="514.3,-297.17 509.12,-287.93 507.41,-298.39 514.3,-297.17"/>
</g>
<!-- n_3 -->
<g id="node13" class="node">
<title>n_3</title>
<polygon fill="none" stroke="black" points="579.5,-255.88 579.5,-281.12 648.25,-281.12 648.25,-255.88 579.5,-255.88"/>
<text text-anchor="start" x="586.5" y="-266.57" font-family="Times New Roman,serif" font-weight="bold" font-size="9.00">Secondary (P)</text>
<polygon fill="none" stroke="black" points="578.5,-254.88 578.5,-282.12 649.25,-282.12 649.25,-254.88 578.5,-254.88"/>
</g>
<!-- n_2_3&#45;&gt;n_3 -->
<g id="edge12" class="edge">
<title>n_2_3&#45;&gt;n_3</title>
<path fill="none" stroke="black" d="M538.73,-349.19C552.99,-334.06 574.15,-311.63 590.38,-294.42"/>
<polygon fill="black" stroke="black" points="592.55,-297.22 596.86,-287.54 587.45,-292.42 592.55,-297.22"/>
</g>
</g>
</svg>
