<?xml version="1.0" encoding="UTF-8" standalone="no"?>
<!DOCTYPE svg PUBLIC "-//W3C//DTD SVG 1.1//EN"
 "http://www.w3.org/Graphics/SVG/1.1/DTD/svg11.dtd">
<!-- Generated by graphviz version 10.0.1 (20240210.2158)
 -->
<!-- Title: ND Pages: 1 -->
<svg width="558pt" height="638pt"
 viewBox="0.00 0.00 558.25 638.00" xmlns="http://www.w3.org/2000/svg" xmlns:xlink="http://www.w3.org/1999/xlink">
<g id="graph0" class="graph" transform="scale(1 1) rotate(0) translate(4 634)">
<title>ND</title>
<polygon fill="white" stroke="none" points="-4,4 -4,-634 554.25,-634 554.25,4 -4,4"/>
<!-- n_0_1_2_3_4_5_6 -->
<g id="node1" class="node">
<title>n_0_1_2_3_4_5_6</title>
<polygon fill="none" stroke="black" points="362.62,-557 362.62,-625 431.38,-625 431.38,-557 362.62,-557"/>
<text text-anchor="start" x="374.12" y="-610.45" font-family="Times New Roman,serif" font-weight="bold" font-size="9.00">Primary (P)</text>
<text text-anchor="start" x="373.38" y="-601.45" font-family="Times New Roman,serif" font-weight="bold" font-size="9.00">Primary (G)</text>
<text text-anchor="start" x="377.88" y="-592.45" font-family="Times New Roman,serif" font-weight="bold" font-size="9.00">Preschool</text>
<text text-anchor="start" x="369.62" y="-583.45" font-family="Times New Roman,serif" font-weight="bold" font-size="9.00">Secondary (P)</text>
<text text-anchor="start" x="377.5" y="-574.45" font-family="Times New Roman,serif" font-weight="bold" font-size="9.00">Technical</text>
<text text-anchor="start" x="376.75" y="-565.45" font-family="Times New Roman,serif" font-weight="bold" font-size="9.00">University</text>
<polygon fill="none" stroke="black" points="431.38,-557 431.38,-625 501.62,-625 501.62,-557 431.38,-557"/>
<text text-anchor="start" x="438.38" y="-589.08" font-family="Times New Roman,serif" font-weight="bold" font-size="9.00">Secondary (G)</text>
<polygon fill="none" stroke="black" points="361.62,-556 361.62,-626 502.62,-626 502.62,-556 361.62,-556"/>
</g>
<!-- n_0_1_2_3_5_6 -->
<g id="node2" class="node">
<title>n_0_1_2_3_5_6</title>
<polygon fill="none" stroke="black" points="294.12,-445 294.12,-504 362.88,-504 362.88,-445 294.12,-445"/>
<text text-anchor="start" x="305.62" y="-489.45" font-family="Times New Roman,serif" font-weight="bold" font-size="9.00">Primary (P)</text>
<text text-anchor="start" x="309.38" y="-480.45" font-family="Times New Roman,serif" font-weight="bold" font-size="9.00">Preschool</text>
<text text-anchor="start" x="301.12" y="-471.45" font-family="Times New Roman,serif" font-weight="bold" font-size="9.00">Secondary (P)</text>
<text text-anchor="start" x="309" y="-462.45" font-family="Times New Roman,serif" font-weight="bold" font-size="9.00">Technical</text>
<text text-anchor="start" x="308.25" y="-453.45" font-family="Times New Roman,serif" font-weight="bold" font-size="9.00">University</text>
<polygon fill="none" stroke="black" points="362.88,-445 362.88,-504 424.12,-504 424.12,-445 362.88,-445"/>
<text text-anchor="start" x="369.88" y="-472.57" font-family="Times New Roman,serif" font-weight="bold" font-size="9.00">Primary (G)</text>
<polygon fill="none" stroke="black" points="293.12,-444 293.12,-505 425.12,-505 425.12,-444 293.12,-444"/>
</g>
<!-- n_0_1_2_3_4_5_6&#45;&gt;n_0_1_2_3_5_6 -->
<g id="edge1" class="edge">
<title>n_0_1_2_3_4_5_6&#45;&gt;n_0_1_2_3_5_6</title>
<path fill="none" stroke="black" d="M408.02,-552.19C401.08,-541.31 393.47,-529.36 386.35,-518.21"/>
<polygon fill="black" stroke="black" points="389.4,-516.48 381.07,-509.93 383.5,-520.24 389.4,-516.48"/>
</g>
<!-- n_4 -->
<g id="node13" class="node">
<title>n_4</title>
<polygon fill="none" stroke="black" points="471,-461.88 471,-487.12 541.25,-487.12 541.25,-461.88 471,-461.88"/>
<text text-anchor="start" x="478" y="-472.57" font-family="Times New Roman,serif" font-weight="bold" font-size="9.00">Secondary (G)</text>
<polygon fill="none" stroke="black" points="470,-460.88 470,-488.12 542.25,-488.12 542.25,-460.88 470,-460.88"/>
</g>
<!-- n_0_1_2_3_4_5_6&#45;&gt;n_4 -->
<g id="edge12" class="edge">
<title>n_0_1_2_3_4_5_6&#45;&gt;n_4</title>
<path fill="none" stroke="black" d="M456.56,-552.19C467.16,-535.78 479.33,-516.96 488.95,-502.07"/>
<polygon fill="black" stroke="black" points="491.85,-504.03 494.34,-493.73 485.97,-500.23 491.85,-504.03"/>
</g>
<!-- n_0_2_3_5_6 -->
<g id="node3" class="node">
<title>n_0_2_3_5_6</title>
<polygon fill="none" stroke="black" points="223.88,-342 223.88,-392 292.62,-392 292.62,-342 223.88,-342"/>
<text text-anchor="start" x="239.12" y="-377.45" font-family="Times New Roman,serif" font-weight="bold" font-size="9.00">Preschool</text>
<text text-anchor="start" x="230.88" y="-368.45" font-family="Times New Roman,serif" font-weight="bold" font-size="9.00">Secondary (P)</text>
<text text-anchor="start" x="238.75" y="-359.45" font-family="Times New Roman,serif" font-weight="bold" font-size="9.00">Technical</text>
<text text-anchor="start" x="238" y="-350.45" font-family="Times New Roman,serif" font-weight="bold" font-size="9.00">University</text>
<polygon fill="none" stroke="black" points="292.62,-342 292.62,-392 352.38,-392 352.38,-342 292.62,-342"/>
<text text-anchor="start" x="299.62" y="-365.07" font-family="Times New Roman,serif" font-weight="bold" font-size="9.00">Primary (P)</text>
<polygon fill="none" stroke="black" points="222.88,-341 222.88,-393 353.38,-393 353.38,-341 222.88,-341"/>
</g>
<!-- n_0_1_2_3_5_6&#45;&gt;n_0_2_3_5_6 -->
<g id="edge2" class="edge">
<title>n_0_1_2_3_5_6&#45;&gt;n_0_2_3_5_6</title>
<path fill="none" stroke="black" d="M336.66,-440.12C329.43,-429.38 321.37,-417.4 313.92,-406.33"/>
<polygon fill="black" stroke="black" points="316.91,-404.5 308.42,-398.15 311.1,-408.4 316.91,-404.5"/>
</g>
<!-- n_1 -->
<g id="node12" class="node">
<title>n_1</title>
<polygon fill="none" stroke="black" points="399.5,-354.38 399.5,-379.62 460.75,-379.62 460.75,-354.38 399.5,-354.38"/>
<text text-anchor="start" x="406.5" y="-365.07" font-family="Times New Roman,serif" font-weight="bold" font-size="9.00">Primary (G)</text>
<polygon fill="none" stroke="black" points="398.5,-353.38 398.5,-380.62 461.75,-380.62 461.75,-353.38 398.5,-353.38"/>
</g>
<!-- n_0_1_2_3_5_6&#45;&gt;n_1 -->
<g id="edge11" class="edge">
<title>n_0_1_2_3_5_6&#45;&gt;n_1</title>
<path fill="none" stroke="black" d="M381.59,-440.12C391.53,-425.35 403.05,-408.23 412.37,-394.38"/>
<polygon fill="black" stroke="black" points="415.19,-396.46 417.87,-386.21 409.39,-392.55 415.19,-396.46"/>
</g>
<!-- n_2_3_5_6 -->
<g id="node4" class="node">
<title>n_2_3_5_6</title>
<polygon fill="none" stroke="black" points="157.5,-248 157.5,-289 226.25,-289 226.25,-248 157.5,-248"/>
<text text-anchor="start" x="172.75" y="-274.45" font-family="Times New Roman,serif" font-weight="bold" font-size="9.00">Preschool</text>
<text text-anchor="start" x="164.5" y="-265.45" font-family="Times New Roman,serif" font-weight="bold" font-size="9.00">Secondary (P)</text>
<text text-anchor="start" x="172.38" y="-256.45" font-family="Times New Roman,serif" font-weight="bold" font-size="9.00">Technical</text>
<polygon fill="none" stroke="black" points="226.25,-248 226.25,-289 280.75,-289 280.75,-248 226.25,-248"/>
<text text-anchor="start" x="233.25" y="-266.57" font-family="Times New Roman,serif" font-weight="bold" font-size="9.00">University</text>
<polygon fill="none" stroke="black" points="156.5,-247 156.5,-290 281.75,-290 281.75,-247 156.5,-247"/>
</g>
<!-- n_0_2_3_5_6&#45;&gt;n_2_3_5_6 -->
<g id="edge3" class="edge">
<title>n_0_2_3_5_6&#45;&gt;n_2_3_5_6</title>
<path fill="none" stroke="black" d="M267.42,-337.05C259.81,-326.4 251.12,-314.25 243.23,-303.22"/>
<polygon fill="black" stroke="black" points="246.1,-301.2 237.43,-295.11 240.4,-305.28 246.1,-301.2"/>
</g>
<!-- n_0 -->
<g id="node11" class="node">
<title>n_0</title>
<polygon fill="none" stroke="black" points="328.25,-255.88 328.25,-281.12 388,-281.12 388,-255.88 328.25,-255.88"/>
<text text-anchor="start" x="335.25" y="-266.57" font-family="Times New Roman,serif" font-weight="bold" font-size="9.00">Primary (P)</text>
<polygon fill="none" stroke="black" points="327.25,-254.88 327.25,-282.12 389,-282.12 389,-254.88 327.25,-254.88"/>
</g>
<!-- n_0_2_3_5_6&#45;&gt;n_0 -->
<g id="edge10" class="edge">
<title>n_0_2_3_5_6&#45;&gt;n_0</title>
<path fill="none" stroke="black" d="M309.13,-337.05C318.69,-323.86 329.92,-308.38 339.22,-295.56"/>
<polygon fill="black" stroke="black" points="341.96,-297.74 345,-287.59 336.3,-293.63 341.96,-297.74"/>
</g>
<!-- n_2_3_5 -->
<g id="node5" class="node">
<title>n_2_3_5</title>
<polygon fill="none" stroke="black" points="91.25,-163 91.25,-195 144.25,-195 144.25,-163 91.25,-163"/>
<text text-anchor="start" x="98.62" y="-180.45" font-family="Times New Roman,serif" font-weight="bold" font-size="9.00">Preschool</text>
<text text-anchor="start" x="98.25" y="-171.45" font-family="Times New Roman,serif" font-weight="bold" font-size="9.00">Technical</text>
<polygon fill="none" stroke="black" points="144.25,-163 144.25,-195 213,-195 213,-163 144.25,-163"/>
<text text-anchor="start" x="151.25" y="-177.07" font-family="Times New Roman,serif" font-weight="bold" font-size="9.00">Secondary (P)</text>
<polygon fill="none" stroke="black" points="90.25,-162 90.25,-196 214,-196 214,-162 90.25,-162"/>
</g>
<!-- n_2_3_5_6&#45;&gt;n_2_3_5 -->
<g id="edge4" class="edge">
<title>n_2_3_5_6&#45;&gt;n_2_3_5</title>
<path fill="none" stroke="black" d="M200.46,-243.13C192.29,-232.46 182.65,-219.87 174.14,-208.75"/>
<polygon fill="black" stroke="black" points="177.08,-206.84 168.23,-201.03 171.53,-211.1 177.08,-206.84"/>
</g>
<!-- n_6 -->
<g id="node10" class="node">
<title>n_6</title>
<polygon fill="none" stroke="black" points="259.88,-166.38 259.88,-191.62 314.38,-191.62 314.38,-166.38 259.88,-166.38"/>
<text text-anchor="start" x="266.88" y="-177.07" font-family="Times New Roman,serif" font-weight="bold" font-size="9.00">University</text>
<polygon fill="none" stroke="black" points="258.88,-165.38 258.88,-192.62 315.38,-192.62 315.38,-165.38 258.88,-165.38"/>
</g>
<!-- n_2_3_5_6&#45;&gt;n_6 -->
<g id="edge9" class="edge">
<title>n_2_3_5_6&#45;&gt;n_6</title>
<path fill="none" stroke="black" d="M238.07,-243.13C247.12,-231.48 257.96,-217.53 267.15,-205.71"/>
<polygon fill="black" stroke="black" points="269.79,-208.01 273.16,-197.97 264.26,-203.71 269.79,-208.01"/>
</g>
<!-- n_2_5 -->
<g id="node6" class="node">
<title>n_2_5</title>
<polygon fill="none" stroke="black" points="32.5,-84.38 32.5,-109.62 84.75,-109.62 84.75,-84.38 32.5,-84.38"/>
<text text-anchor="start" x="39.5" y="-95.08" font-family="Times New Roman,serif" font-weight="bold" font-size="9.00">Preschool</text>
<polygon fill="none" stroke="black" points="84.75,-84.38 84.75,-109.62 137.75,-109.62 137.75,-84.38 84.75,-84.38"/>
<text text-anchor="start" x="91.75" y="-95.08" font-family="Times New Roman,serif" font-weight="bold" font-size="9.00">Technical</text>
<polygon fill="none" stroke="black" points="31.5,-83.38 31.5,-110.62 138.75,-110.62 138.75,-83.38 31.5,-83.38"/>
</g>
<!-- n_2_3_5&#45;&gt;n_2_5 -->
<g id="edge5" class="edge">
<title>n_2_3_5&#45;&gt;n_2_5</title>
<path fill="none" stroke="black" d="M135.56,-158.22C126.76,-147.71 115.83,-134.66 106.4,-123.41"/>
<polygon fill="black" stroke="black" points="109.31,-121.42 100.2,-116 103.94,-125.92 109.31,-121.42"/>
</g>
<!-- n_3 -->
<g id="node9" class="node">
<title>n_3</title>
<polygon fill="none" stroke="black" points="184.75,-84.38 184.75,-109.62 253.5,-109.62 253.5,-84.38 184.75,-84.38"/>
<text text-anchor="start" x="191.75" y="-95.08" font-family="Times New Roman,serif" font-weight="bold" font-size="9.00">Secondary (P)</text>
<polygon fill="none" stroke="black" points="183.75,-83.38 183.75,-110.62 254.5,-110.62 254.5,-83.38 183.75,-83.38"/>
</g>
<!-- n_2_3_5&#45;&gt;n_3 -->
<g id="edge8" class="edge">
<title>n_2_3_5&#45;&gt;n_3</title>
<path fill="none" stroke="black" d="M168.69,-158.22C177.49,-147.71 188.42,-134.66 197.85,-123.41"/>
<polygon fill="black" stroke="black" points="200.31,-125.92 204.05,-116 194.94,-121.42 200.31,-125.92"/>
</g>
<!-- n_2 -->
<g id="node7" class="node">
<title>n_2</title>
<polygon fill="none" stroke="black" points="9,-5.38 9,-30.62 61.25,-30.62 61.25,-5.38 9,-5.38"/>
<text text-anchor="start" x="16" y="-16.07" font-family="Times New Roman,serif" font-weight="bold" font-size="9.00">Preschool</text>
<polygon fill="none" stroke="black" points="8,-4.38 8,-31.62 62.25,-31.62 62.25,-4.38 8,-4.38"/>
</g>
<!-- n_2_5&#45;&gt;n_2 -->
<g id="edge6" class="edge">
<title>n_2_5&#45;&gt;n_2</title>
<path fill="none" stroke="black" d="M74.28,-79.29C67.83,-69.37 59.52,-56.57 52.22,-45.32"/>
<polygon fill="black" stroke="black" points="55.33,-43.69 46.95,-37.21 49.46,-47.5 55.33,-43.69"/>
</g>
<!-- n_5 -->
<g id="node8" class="node">
<title>n_5</title>
<polygon fill="none" stroke="black" points="108.62,-5.38 108.62,-30.62 161.62,-30.62 161.62,-5.38 108.62,-5.38"/>
<text text-anchor="start" x="115.62" y="-16.07" font-family="Times New Roman,serif" font-weight="bold" font-size="9.00">Technical</text>
<polygon fill="none" stroke="black" points="107.62,-4.38 107.62,-31.62 162.62,-31.62 162.62,-4.38 107.62,-4.38"/>
</g>
<!-- n_2_5&#45;&gt;n_5 -->
<g id="edge7" class="edge">
<title>n_2_5&#45;&gt;n_5</title>
<path fill="none" stroke="black" d="M95.97,-79.29C102.42,-69.37 110.73,-56.57 118.03,-45.32"/>
<polygon fill="black" stroke="black" points="120.79,-47.5 123.3,-37.21 114.92,-43.69 120.79,-47.5"/>
</g>
</g>
</svg>
