<?xml version="1.0" encoding="UTF-8" standalone="no"?>
<!DOCTYPE svg PUBLIC "-//W3C//DTD SVG 1.1//EN"
 "http://www.w3.org/Graphics/SVG/1.1/DTD/svg11.dtd">
<!-- Generated by graphviz version 10.0.1 (20240210.2158)
 -->
<!-- Title: ND Pages: 1 -->
<svg width="663pt" height="517pt"
 viewBox="0.00 0.00 662.88 517.00" xmlns="http://www.w3.org/2000/svg" xmlns:xlink="http://www.w3.org/1999/xlink">
<g id="graph0" class="graph" transform="scale(1 1) rotate(0) translate(4 513)">
<title>ND</title>
<polygon fill="white" stroke="none" points="-4,4 -4,-513 658.88,-513 658.88,4 -4,4"/>
<!-- n_0_1_2_3_4_5_6 -->
<g id="node1" class="node">
<title>n_0_1_2_3_4_5_6</title>
<polygon fill="none" stroke="black" points="380.62,-445 380.62,-504 450.88,-504 450.88,-445 380.62,-445"/>
<text text-anchor="start" x="392.88" y="-489.45" font-family="Times New Roman,serif" font-weight="bold" font-size="9.00">Primary (P)</text>
<text text-anchor="start" x="396.62" y="-480.45" font-family="Times New Roman,serif" font-weight="bold" font-size="9.00">Preschool</text>
<text text-anchor="start" x="388.38" y="-471.45" font-family="Times New Roman,serif" font-weight="bold" font-size="9.00">Secondary (P)</text>
<text text-anchor="start" x="387.62" y="-462.45" font-family="Times New Roman,serif" font-weight="bold" font-size="9.00">Secondary (G)</text>
<text text-anchor="start" x="395.5" y="-453.45" font-family="Times New Roman,serif" font-weight="bold" font-size="9.00">University</text>
<polygon fill="none" stroke="black" points="450.88,-445 450.88,-504 512.12,-504 512.12,-445 450.88,-445"/>
<text text-anchor="start" x="457.88" y="-475.95" font-family="Times New Roman,serif" font-weight="bold" font-size="9.00">Primary (G)</text>
<text text-anchor="start" x="462" y="-466.95" font-family="Times New Roman,serif" font-weight="bold" font-size="9.00">Technical</text>
<polygon fill="none" stroke="black" points="379.62,-444 379.62,-505 513.12,-505 513.12,-444 379.62,-444"/>
</g>
<!-- n_0_2_3_4_6 -->
<g id="node2" class="node">
<title>n_0_2_3_4_6</title>
<polygon fill="none" stroke="black" points="301,-342 301,-392 371.25,-392 371.25,-342 301,-342"/>
<text text-anchor="start" x="313.25" y="-377.45" font-family="Times New Roman,serif" font-weight="bold" font-size="9.00">Primary (P)</text>
<text text-anchor="start" x="317" y="-368.45" font-family="Times New Roman,serif" font-weight="bold" font-size="9.00">Preschool</text>
<text text-anchor="start" x="308.75" y="-359.45" font-family="Times New Roman,serif" font-weight="bold" font-size="9.00">Secondary (P)</text>
<text text-anchor="start" x="308" y="-350.45" font-family="Times New Roman,serif" font-weight="bold" font-size="9.00">Secondary (G)</text>
<polygon fill="none" stroke="black" points="371.25,-342 371.25,-392 425.75,-392 425.75,-342 371.25,-342"/>
<text text-anchor="start" x="378.25" y="-365.07" font-family="Times New Roman,serif" font-weight="bold" font-size="9.00">University</text>
<polygon fill="none" stroke="black" points="300,-341 300,-393 426.75,-393 426.75,-341 300,-341"/>
</g>
<!-- n_0_1_2_3_4_5_6&#45;&gt;n_0_2_3_4_6 -->
<g id="edge1" class="edge">
<title>n_0_1_2_3_4_5_6&#45;&gt;n_0_2_3_4_6</title>
<path fill="none" stroke="black" d="M420.11,-440.12C411.49,-429.16 401.86,-416.91 393.01,-405.66"/>
<polygon fill="black" stroke="black" points="395.98,-403.78 387.05,-398.09 390.48,-408.11 395.98,-403.78"/>
</g>
<!-- n_1_5 -->
<g id="node11" class="node">
<title>n_1_5</title>
<polygon fill="none" stroke="black" points="473.25,-354.38 473.25,-379.62 534.5,-379.62 534.5,-354.38 473.25,-354.38"/>
<text text-anchor="start" x="480.25" y="-365.07" font-family="Times New Roman,serif" font-weight="bold" font-size="9.00">Primary (G)</text>
<polygon fill="none" stroke="black" points="534.5,-354.38 534.5,-379.62 587.5,-379.62 587.5,-354.38 534.5,-354.38"/>
<text text-anchor="start" x="541.5" y="-365.07" font-family="Times New Roman,serif" font-weight="bold" font-size="9.00">Technical</text>
<polygon fill="none" stroke="black" points="472.25,-353.38 472.25,-380.62 588.5,-380.62 588.5,-353.38 472.25,-353.38"/>
</g>
<!-- n_0_1_2_3_4_5_6&#45;&gt;n_1_5 -->
<g id="edge10" class="edge">
<title>n_0_1_2_3_4_5_6&#45;&gt;n_1_5</title>
<path fill="none" stroke="black" d="M472.95,-440.12C484.94,-425.06 498.87,-407.57 510.01,-393.58"/>
<polygon fill="black" stroke="black" points="512.45,-396.14 515.94,-386.13 506.97,-391.78 512.45,-396.14"/>
</g>
<!-- n_0_2_3_4 -->
<g id="node3" class="node">
<title>n_0_2_3_4</title>
<polygon fill="none" stroke="black" points="182.12,-248 182.12,-289 252.38,-289 252.38,-248 182.12,-248"/>
<text text-anchor="start" x="194.38" y="-274.45" font-family="Times New Roman,serif" font-weight="bold" font-size="9.00">Primary (P)</text>
<text text-anchor="start" x="189.88" y="-265.45" font-family="Times New Roman,serif" font-weight="bold" font-size="9.00">Secondary (P)</text>
<text text-anchor="start" x="189.12" y="-256.45" font-family="Times New Roman,serif" font-weight="bold" font-size="9.00">Secondary (G)</text>
<polygon fill="none" stroke="black" points="252.38,-248 252.38,-289 304.62,-289 304.62,-248 252.38,-248"/>
<text text-anchor="start" x="259.38" y="-266.57" font-family="Times New Roman,serif" font-weight="bold" font-size="9.00">Preschool</text>
<polygon fill="none" stroke="black" points="181.12,-247 181.12,-290 305.62,-290 305.62,-247 181.12,-247"/>
</g>
<!-- n_0_2_3_4_6&#45;&gt;n_0_2_3_4 -->
<g id="edge2" class="edge">
<title>n_0_2_3_4_6&#45;&gt;n_0_2_3_4</title>
<path fill="none" stroke="black" d="M327.37,-337.05C313.19,-325.65 296.87,-312.52 282.41,-300.89"/>
<polygon fill="black" stroke="black" points="284.85,-298.36 274.86,-294.82 280.46,-303.82 284.85,-298.36"/>
</g>
<!-- n_6 -->
<g id="node10" class="node">
<title>n_6</title>
<polygon fill="none" stroke="black" points="352.12,-255.88 352.12,-281.12 406.62,-281.12 406.62,-255.88 352.12,-255.88"/>
<text text-anchor="start" x="359.12" y="-266.57" font-family="Times New Roman,serif" font-weight="bold" font-size="9.00">University</text>
<polygon fill="none" stroke="black" points="351.12,-254.88 351.12,-282.12 407.62,-282.12 407.62,-254.88 351.12,-254.88"/>
</g>
<!-- n_0_2_3_4_6&#45;&gt;n_6 -->
<g id="edge9" class="edge">
<title>n_0_2_3_4_6&#45;&gt;n_6</title>
<path fill="none" stroke="black" d="M368.18,-337.05C370.25,-324.51 372.68,-309.89 374.74,-297.47"/>
<polygon fill="black" stroke="black" points="378.15,-298.3 376.33,-287.86 371.24,-297.15 378.15,-298.3"/>
</g>
<!-- n_0_3_4 -->
<g id="node4" class="node">
<title>n_0_3_4</title>
<polygon fill="none" stroke="black" points="109.38,-163 109.38,-195 179.62,-195 179.62,-163 109.38,-163"/>
<text text-anchor="start" x="117.12" y="-180.45" font-family="Times New Roman,serif" font-weight="bold" font-size="9.00">Secondary (P)</text>
<text text-anchor="start" x="116.38" y="-171.45" font-family="Times New Roman,serif" font-weight="bold" font-size="9.00">Secondary (G)</text>
<polygon fill="none" stroke="black" points="179.62,-163 179.62,-195 239.38,-195 239.38,-163 179.62,-163"/>
<text text-anchor="start" x="186.62" y="-177.07" font-family="Times New Roman,serif" font-weight="bold" font-size="9.00">Primary (P)</text>
<polygon fill="none" stroke="black" points="108.38,-162 108.38,-196 240.38,-196 240.38,-162 108.38,-162"/>
</g>
<!-- n_0_2_3_4&#45;&gt;n_0_3_4 -->
<g id="edge3" class="edge">
<title>n_0_2_3_4&#45;&gt;n_0_3_4</title>
<path fill="none" stroke="black" d="M224.15,-243.13C215.74,-232.46 205.81,-219.87 197.04,-208.75"/>
<polygon fill="black" stroke="black" points="199.89,-206.7 190.95,-201.01 194.39,-211.03 199.89,-206.7"/>
</g>
<!-- n_2 -->
<g id="node9" class="node">
<title>n_2</title>
<polygon fill="none" stroke="black" points="286.25,-166.38 286.25,-191.62 338.5,-191.62 338.5,-166.38 286.25,-166.38"/>
<text text-anchor="start" x="293.25" y="-177.07" font-family="Times New Roman,serif" font-weight="bold" font-size="9.00">Preschool</text>
<polygon fill="none" stroke="black" points="285.25,-165.38 285.25,-192.62 339.5,-192.62 339.5,-165.38 285.25,-165.38"/>
</g>
<!-- n_0_2_3_4&#45;&gt;n_2 -->
<g id="edge8" class="edge">
<title>n_0_2_3_4&#45;&gt;n_2</title>
<path fill="none" stroke="black" d="M262.6,-243.13C271.78,-231.48 282.78,-217.53 292.1,-205.71"/>
<polygon fill="black" stroke="black" points="294.77,-207.98 298.21,-197.96 289.27,-203.64 294.77,-207.98"/>
</g>
<!-- n_3_4 -->
<g id="node5" class="node">
<title>n_3_4</title>
<polygon fill="none" stroke="black" points="31.88,-84.38 31.88,-109.62 100.62,-109.62 100.62,-84.38 31.88,-84.38"/>
<text text-anchor="start" x="38.88" y="-95.08" font-family="Times New Roman,serif" font-weight="bold" font-size="9.00">Secondary (P)</text>
<polygon fill="none" stroke="black" points="100.62,-84.38 100.62,-109.62 170.88,-109.62 170.88,-84.38 100.62,-84.38"/>
<text text-anchor="start" x="107.62" y="-95.08" font-family="Times New Roman,serif" font-weight="bold" font-size="9.00">Secondary (G)</text>
<polygon fill="none" stroke="black" points="30.88,-83.38 30.88,-110.62 171.88,-110.62 171.88,-83.38 30.88,-83.38"/>
</g>
<!-- n_0_3_4&#45;&gt;n_3_4 -->
<g id="edge4" class="edge">
<title>n_0_3_4&#45;&gt;n_3_4</title>
<path fill="none" stroke="black" d="M156.33,-158.22C146.64,-147.61 134.6,-134.41 124.25,-123.07"/>
<polygon fill="black" stroke="black" points="127.09,-120.99 117.77,-115.96 121.92,-125.71 127.09,-120.99"/>
</g>
<!-- n_0 -->
<g id="node8" class="node">
<title>n_0</title>
<polygon fill="none" stroke="black" points="217.5,-84.38 217.5,-109.62 277.25,-109.62 277.25,-84.38 217.5,-84.38"/>
<text text-anchor="start" x="224.5" y="-95.08" font-family="Times New Roman,serif" font-weight="bold" font-size="9.00">Primary (P)</text>
<polygon fill="none" stroke="black" points="216.5,-83.38 216.5,-110.62 278.25,-110.62 278.25,-83.38 216.5,-83.38"/>
</g>
<!-- n_0_3_4&#45;&gt;n_0 -->
<g id="edge7" class="edge">
<title>n_0_3_4&#45;&gt;n_0</title>
<path fill="none" stroke="black" d="M192.42,-158.22C202.11,-147.61 214.15,-134.41 224.5,-123.07"/>
<polygon fill="black" stroke="black" points="226.83,-125.71 230.98,-115.96 221.66,-120.99 226.83,-125.71"/>
</g>
<!-- n_3 -->
<g id="node6" class="node">
<title>n_3</title>
<polygon fill="none" stroke="black" points="9,-5.38 9,-30.62 77.75,-30.62 77.75,-5.38 9,-5.38"/>
<text text-anchor="start" x="16" y="-16.07" font-family="Times New Roman,serif" font-weight="bold" font-size="9.00">Secondary (P)</text>
<polygon fill="none" stroke="black" points="8,-4.38 8,-31.62 78.75,-31.62 78.75,-4.38 8,-4.38"/>
</g>
<!-- n_3_4&#45;&gt;n_3 -->
<g id="edge5" class="edge">
<title>n_3_4&#45;&gt;n_3</title>
<path fill="none" stroke="black" d="M88.79,-79.29C81.24,-69.27 71.48,-56.31 62.94,-44.98"/>
<polygon fill="black" stroke="black" points="65.86,-43.03 57.05,-37.15 60.27,-47.24 65.86,-43.03"/>
</g>
<!-- n_4 -->
<g id="node7" class="node">
<title>n_4</title>
<polygon fill="none" stroke="black" points="125.25,-5.38 125.25,-30.62 195.5,-30.62 195.5,-5.38 125.25,-5.38"/>
<text text-anchor="start" x="132.25" y="-16.07" font-family="Times New Roman,serif" font-weight="bold" font-size="9.00">Secondary (G)</text>
<polygon fill="none" stroke="black" points="124.25,-4.38 124.25,-31.62 196.5,-31.62 196.5,-4.38 124.25,-4.38"/>
</g>
<!-- n_3_4&#45;&gt;n_4 -->
<g id="edge6" class="edge">
<title>n_3_4&#45;&gt;n_4</title>
<path fill="none" stroke="black" d="M114.18,-79.29C121.86,-69.27 131.78,-56.31 140.47,-44.98"/>
<polygon fill="black" stroke="black" points="143.17,-47.21 146.47,-37.14 137.61,-42.95 143.17,-47.21"/>
</g>
<!-- n_1 -->
<g id="node12" class="node">
<title>n_1</title>
<polygon fill="none" stroke="black" points="484.75,-255.88 484.75,-281.12 546,-281.12 546,-255.88 484.75,-255.88"/>
<text text-anchor="start" x="491.75" y="-266.57" font-family="Times New Roman,serif" font-weight="bold" font-size="9.00">Primary (G)</text>
<polygon fill="none" stroke="black" points="483.75,-254.88 483.75,-282.12 547,-282.12 547,-254.88 483.75,-254.88"/>
</g>
<!-- n_1_5&#45;&gt;n_1 -->
<g id="edge11" class="edge">
<title>n_1_5&#45;&gt;n_1</title>
<path fill="none" stroke="black" d="M527.76,-349.19C525.56,-335.03 522.36,-314.46 519.77,-297.76"/>
<polygon fill="black" stroke="black" points="523.24,-297.28 518.24,-287.94 516.32,-298.35 523.24,-297.28"/>
</g>
<!-- n_5 -->
<g id="node13" class="node">
<title>n_5</title>
<polygon fill="none" stroke="black" points="592.88,-255.88 592.88,-281.12 645.88,-281.12 645.88,-255.88 592.88,-255.88"/>
<text text-anchor="start" x="599.88" y="-266.57" font-family="Times New Roman,serif" font-weight="bold" font-size="9.00">Technical</text>
<polygon fill="none" stroke="black" points="591.88,-254.88 591.88,-282.12 646.88,-282.12 646.88,-254.88 591.88,-254.88"/>
</g>
<!-- n_1_5&#45;&gt;n_5 -->
<g id="edge12" class="edge">
<title>n_1_5&#45;&gt;n_5</title>
<path fill="none" stroke="black" d="M545.88,-349.19C559.7,-334.2 580.14,-312.04 595.96,-294.89"/>
<polygon fill="black" stroke="black" points="598.52,-297.28 602.73,-287.55 593.37,-292.53 598.52,-297.28"/>
</g>
</g>
</svg>
