<?xml version="1.0" encoding="UTF-8" standalone="no"?>
<!DOCTYPE svg PUBLIC "-//W3C//DTD SVG 1.1//EN"
 "http://www.w3.org/Graphics/SVG/1.1/DTD/svg11.dtd">
<!-- Generated by graphviz version 10.0.1 (20240210.2158)
 -->
<!-- Title: ND Pages: 1 -->
<svg width="586pt" height="526pt"
 viewBox="0.00 0.00 585.62 526.00" xmlns="http://www.w3.org/2000/svg" xmlns:xlink="http://www.w3.org/1999/xlink">
<g id="graph0" class="graph" transform="scale(1 1) rotate(0) translate(4 522)">
<title>ND</title>
<polygon fill="white" stroke="none" points="-4,4 -4,-522 581.62,-522 581.62,4 -4,4"/>
<!-- n_0_1_2_3_4_5_6 -->
<g id="node1" class="node">
<title>n_0_1_2_3_4_5_6</title>
<polygon fill="none" stroke="black" points="368.38,-445 368.38,-513 438.62,-513 438.62,-445 368.38,-445"/>
<text text-anchor="start" x="380.62" y="-498.45" font-family="Times New Roman,serif" font-weight="bold" font-size="9.00">Primary (P)</text>
<text text-anchor="start" x="384.38" y="-489.45" font-family="Times New Roman,serif" font-weight="bold" font-size="9.00">Preschool</text>
<text text-anchor="start" x="376.12" y="-480.45" font-family="Times New Roman,serif" font-weight="bold" font-size="9.00">Secondary (P)</text>
<text text-anchor="start" x="375.38" y="-471.45" font-family="Times New Roman,serif" font-weight="bold" font-size="9.00">Secondary (G)</text>
<text text-anchor="start" x="384" y="-462.45" font-family="Times New Roman,serif" font-weight="bold" font-size="9.00">Technical</text>
<text text-anchor="start" x="383.25" y="-453.45" font-family="Times New Roman,serif" font-weight="bold" font-size="9.00">University</text>
<polygon fill="none" stroke="black" points="438.62,-445 438.62,-513 499.88,-513 499.88,-445 438.62,-445"/>
<text text-anchor="start" x="445.62" y="-477.07" font-family="Times New Roman,serif" font-weight="bold" font-size="9.00">Primary (G)</text>
<polygon fill="none" stroke="black" points="367.38,-444 367.38,-514 500.88,-514 500.88,-444 367.38,-444"/>
</g>
<!-- n_0_2_3_4_5_6 -->
<g id="node2" class="node">
<title>n_0_2_3_4_5_6</title>
<polygon fill="none" stroke="black" points="291.62,-342 291.62,-392 361.88,-392 361.88,-342 291.62,-342"/>
<text text-anchor="start" x="303.88" y="-377.45" font-family="Times New Roman,serif" font-weight="bold" font-size="9.00">Primary (P)</text>
<text text-anchor="start" x="307.62" y="-368.45" font-family="Times New Roman,serif" font-weight="bold" font-size="9.00">Preschool</text>
<text text-anchor="start" x="298.62" y="-359.45" font-family="Times New Roman,serif" font-weight="bold" font-size="9.00">Secondary (G)</text>
<text text-anchor="start" x="306.5" y="-350.45" font-family="Times New Roman,serif" font-weight="bold" font-size="9.00">University</text>
<polygon fill="none" stroke="black" points="361.88,-342 361.88,-392 430.62,-392 430.62,-342 361.88,-342"/>
<text text-anchor="start" x="368.88" y="-368.45" font-family="Times New Roman,serif" font-weight="bold" font-size="9.00">Secondary (P)</text>
<text text-anchor="start" x="376.75" y="-359.45" font-family="Times New Roman,serif" font-weight="bold" font-size="9.00">Technical</text>
<polygon fill="none" stroke="black" points="290.62,-341 290.62,-393 431.62,-393 431.62,-341 290.62,-341"/>
</g>
<!-- n_0_1_2_3_4_5_6&#45;&gt;n_0_2_3_4_5_6 -->
<g id="edge1" class="edge">
<title>n_0_1_2_3_4_5_6&#45;&gt;n_0_2_3_4_5_6</title>
<path fill="none" stroke="black" d="M409,-440.14C401.73,-429.19 393.79,-417.22 386.5,-406.23"/>
<polygon fill="black" stroke="black" points="389.58,-404.55 381.13,-398.15 383.75,-408.42 389.58,-404.55"/>
</g>
<!-- n_1 -->
<g id="node13" class="node">
<title>n_1</title>
<polygon fill="none" stroke="black" points="477.5,-354.38 477.5,-379.62 538.75,-379.62 538.75,-354.38 477.5,-354.38"/>
<text text-anchor="start" x="484.5" y="-365.07" font-family="Times New Roman,serif" font-weight="bold" font-size="9.00">Primary (G)</text>
<polygon fill="none" stroke="black" points="476.5,-353.38 476.5,-380.62 539.75,-380.62 539.75,-353.38 476.5,-353.38"/>
</g>
<!-- n_0_1_2_3_4_5_6&#45;&gt;n_1 -->
<g id="edge12" class="edge">
<title>n_0_1_2_3_4_5_6&#45;&gt;n_1</title>
<path fill="none" stroke="black" d="M459.59,-440.14C469.75,-425.04 481.2,-408.02 490.43,-394.31"/>
<polygon fill="black" stroke="black" points="493.18,-396.49 495.86,-386.24 487.37,-392.58 493.18,-396.49"/>
</g>
<!-- n_0_2_4_6 -->
<g id="node3" class="node">
<title>n_0_2_4_6</title>
<polygon fill="none" stroke="black" points="210.12,-248 210.12,-289 269.88,-289 269.88,-248 210.12,-248"/>
<text text-anchor="start" x="217.12" y="-274.45" font-family="Times New Roman,serif" font-weight="bold" font-size="9.00">Primary (P)</text>
<text text-anchor="start" x="220.88" y="-265.45" font-family="Times New Roman,serif" font-weight="bold" font-size="9.00">Preschool</text>
<text text-anchor="start" x="219.75" y="-256.45" font-family="Times New Roman,serif" font-weight="bold" font-size="9.00">University</text>
<polygon fill="none" stroke="black" points="269.88,-248 269.88,-289 340.12,-289 340.12,-248 269.88,-248"/>
<text text-anchor="start" x="276.88" y="-266.57" font-family="Times New Roman,serif" font-weight="bold" font-size="9.00">Secondary (G)</text>
<polygon fill="none" stroke="black" points="209.12,-247 209.12,-290 341.12,-290 341.12,-247 209.12,-247"/>
</g>
<!-- n_0_2_3_4_5_6&#45;&gt;n_0_2_4_6 -->
<g id="edge2" class="edge">
<title>n_0_2_3_4_5_6&#45;&gt;n_0_2_4_6</title>
<path fill="none" stroke="black" d="M335.32,-337.05C325.54,-326.08 314.35,-313.51 304.28,-302.22"/>
<polygon fill="black" stroke="black" points="307.12,-300.14 297.85,-295 301.89,-304.8 307.12,-300.14"/>
</g>
<!-- n_3_5 -->
<g id="node10" class="node">
<title>n_3_5</title>
<polygon fill="none" stroke="black" points="387.25,-255.88 387.25,-281.12 456,-281.12 456,-255.88 387.25,-255.88"/>
<text text-anchor="start" x="394.25" y="-266.57" font-family="Times New Roman,serif" font-weight="bold" font-size="9.00">Secondary (P)</text>
<polygon fill="none" stroke="black" points="456,-255.88 456,-281.12 509,-281.12 509,-255.88 456,-255.88"/>
<text text-anchor="start" x="463" y="-266.57" font-family="Times New Roman,serif" font-weight="bold" font-size="9.00">Technical</text>
<polygon fill="none" stroke="black" points="386.25,-254.88 386.25,-282.12 510,-282.12 510,-254.88 386.25,-254.88"/>
</g>
<!-- n_0_2_3_4_5_6&#45;&gt;n_3_5 -->
<g id="edge9" class="edge">
<title>n_0_2_3_4_5_6&#45;&gt;n_3_5</title>
<path fill="none" stroke="black" d="M387.23,-337.05C399.35,-323.6 413.62,-307.77 425.3,-294.81"/>
<polygon fill="black" stroke="black" points="427.81,-297.26 431.91,-287.49 422.61,-292.57 427.81,-297.26"/>
</g>
<!-- n_0_2_6 -->
<g id="node4" class="node">
<title>n_0_2_6</title>
<polygon fill="none" stroke="black" points="93,-163 93,-195 147.5,-195 147.5,-163 93,-163"/>
<text text-anchor="start" x="101.12" y="-180.45" font-family="Times New Roman,serif" font-weight="bold" font-size="9.00">Preschool</text>
<text text-anchor="start" x="100" y="-171.45" font-family="Times New Roman,serif" font-weight="bold" font-size="9.00">University</text>
<polygon fill="none" stroke="black" points="147.5,-163 147.5,-195 207.25,-195 207.25,-163 147.5,-163"/>
<text text-anchor="start" x="154.5" y="-177.07" font-family="Times New Roman,serif" font-weight="bold" font-size="9.00">Primary (P)</text>
<polygon fill="none" stroke="black" points="92,-162 92,-196 208.25,-196 208.25,-162 92,-162"/>
</g>
<!-- n_0_2_4_6&#45;&gt;n_0_2_6 -->
<g id="edge3" class="edge">
<title>n_0_2_4_6&#45;&gt;n_0_2_6</title>
<path fill="none" stroke="black" d="M240.31,-243.13C223.85,-231.61 204.18,-217.84 187.42,-206.11"/>
<polygon fill="black" stroke="black" points="189.89,-203.56 179.69,-200.69 185.87,-209.3 189.89,-203.56"/>
</g>
<!-- n_4 -->
<g id="node9" class="node">
<title>n_4</title>
<polygon fill="none" stroke="black" points="254,-166.38 254,-191.62 324.25,-191.62 324.25,-166.38 254,-166.38"/>
<text text-anchor="start" x="261" y="-177.07" font-family="Times New Roman,serif" font-weight="bold" font-size="9.00">Secondary (G)</text>
<polygon fill="none" stroke="black" points="253,-165.38 253,-192.62 325.25,-192.62 325.25,-165.38 253,-165.38"/>
</g>
<!-- n_0_2_4_6&#45;&gt;n_4 -->
<g id="edge8" class="edge">
<title>n_0_2_4_6&#45;&gt;n_4</title>
<path fill="none" stroke="black" d="M279.02,-243.13C280.78,-232.17 282.86,-219.18 284.67,-207.84"/>
<polygon fill="black" stroke="black" points="288.08,-208.69 286.2,-198.27 281.17,-207.59 288.08,-208.69"/>
</g>
<!-- n_2_6 -->
<g id="node5" class="node">
<title>n_2_6</title>
<polygon fill="none" stroke="black" points="31.75,-84.38 31.75,-109.62 84,-109.62 84,-84.38 31.75,-84.38"/>
<text text-anchor="start" x="38.75" y="-95.08" font-family="Times New Roman,serif" font-weight="bold" font-size="9.00">Preschool</text>
<polygon fill="none" stroke="black" points="84,-84.38 84,-109.62 138.5,-109.62 138.5,-84.38 84,-84.38"/>
<text text-anchor="start" x="91" y="-95.08" font-family="Times New Roman,serif" font-weight="bold" font-size="9.00">University</text>
<polygon fill="none" stroke="black" points="30.75,-83.38 30.75,-110.62 139.5,-110.62 139.5,-83.38 30.75,-83.38"/>
</g>
<!-- n_0_2_6&#45;&gt;n_2_6 -->
<g id="edge4" class="edge">
<title>n_0_2_6&#45;&gt;n_2_6</title>
<path fill="none" stroke="black" d="M134.06,-158.22C125.6,-147.81 115.12,-134.92 106.04,-123.74"/>
<polygon fill="black" stroke="black" points="108.79,-121.57 99.77,-116.02 103.35,-125.99 108.79,-121.57"/>
</g>
<!-- n_0 -->
<g id="node8" class="node">
<title>n_0</title>
<polygon fill="none" stroke="black" points="185.25,-84.38 185.25,-109.62 245,-109.62 245,-84.38 185.25,-84.38"/>
<text text-anchor="start" x="192.25" y="-95.08" font-family="Times New Roman,serif" font-weight="bold" font-size="9.00">Primary (P)</text>
<polygon fill="none" stroke="black" points="184.25,-83.38 184.25,-110.62 246,-110.62 246,-83.38 184.25,-83.38"/>
</g>
<!-- n_0_2_6&#45;&gt;n_0 -->
<g id="edge7" class="edge">
<title>n_0_2_6&#45;&gt;n_0</title>
<path fill="none" stroke="black" d="M166.19,-158.22C174.65,-147.81 185.13,-134.92 194.21,-123.74"/>
<polygon fill="black" stroke="black" points="196.9,-125.99 200.48,-116.02 191.46,-121.57 196.9,-125.99"/>
</g>
<!-- n_2 -->
<g id="node6" class="node">
<title>n_2</title>
<polygon fill="none" stroke="black" points="9,-5.38 9,-30.62 61.25,-30.62 61.25,-5.38 9,-5.38"/>
<text text-anchor="start" x="16" y="-16.07" font-family="Times New Roman,serif" font-weight="bold" font-size="9.00">Preschool</text>
<polygon fill="none" stroke="black" points="8,-4.38 8,-31.62 62.25,-31.62 62.25,-4.38 8,-4.38"/>
</g>
<!-- n_2_6&#45;&gt;n_2 -->
<g id="edge5" class="edge">
<title>n_2_6&#45;&gt;n_2</title>
<path fill="none" stroke="black" d="M74.28,-79.29C67.83,-69.37 59.52,-56.57 52.22,-45.32"/>
<polygon fill="black" stroke="black" points="55.33,-43.69 46.95,-37.21 49.46,-47.5 55.33,-43.69"/>
</g>
<!-- n_6 -->
<g id="node7" class="node">
<title>n_6</title>
<polygon fill="none" stroke="black" points="107.88,-5.38 107.88,-30.62 162.38,-30.62 162.38,-5.38 107.88,-5.38"/>
<text text-anchor="start" x="114.88" y="-16.07" font-family="Times New Roman,serif" font-weight="bold" font-size="9.00">University</text>
<polygon fill="none" stroke="black" points="106.88,-4.38 106.88,-31.62 163.38,-31.62 163.38,-4.38 106.88,-4.38"/>
</g>
<!-- n_2_6&#45;&gt;n_6 -->
<g id="edge6" class="edge">
<title>n_2_6&#45;&gt;n_6</title>
<path fill="none" stroke="black" d="M95.97,-79.29C102.42,-69.37 110.73,-56.57 118.03,-45.32"/>
<polygon fill="black" stroke="black" points="120.79,-47.5 123.3,-37.21 114.92,-43.69 120.79,-47.5"/>
</g>
<!-- n_3 -->
<g id="node11" class="node">
<title>n_3</title>
<polygon fill="none" stroke="black" points="399.75,-166.38 399.75,-191.62 468.5,-191.62 468.5,-166.38 399.75,-166.38"/>
<text text-anchor="start" x="406.75" y="-177.07" font-family="Times New Roman,serif" font-weight="bold" font-size="9.00">Secondary (P)</text>
<polygon fill="none" stroke="black" points="398.75,-165.38 398.75,-192.62 469.5,-192.62 469.5,-165.38 398.75,-165.38"/>
</g>
<!-- n_3_5&#45;&gt;n_3 -->
<g id="edge10" class="edge">
<title>n_3_5&#45;&gt;n_3</title>
<path fill="none" stroke="black" d="M445.43,-250.63C443.49,-238.52 440.83,-221.94 438.59,-207.88"/>
<polygon fill="black" stroke="black" points="442.09,-207.64 437.06,-198.31 435.18,-208.74 442.09,-207.64"/>
</g>
<!-- n_5 -->
<g id="node12" class="node">
<title>n_5</title>
<polygon fill="none" stroke="black" points="515.62,-166.38 515.62,-191.62 568.62,-191.62 568.62,-166.38 515.62,-166.38"/>
<text text-anchor="start" x="522.62" y="-177.07" font-family="Times New Roman,serif" font-weight="bold" font-size="9.00">Technical</text>
<polygon fill="none" stroke="black" points="514.62,-165.38 514.62,-192.62 569.62,-192.62 569.62,-165.38 514.62,-165.38"/>
</g>
<!-- n_3_5&#45;&gt;n_5 -->
<g id="edge11" class="edge">
<title>n_3_5&#45;&gt;n_5</title>
<path fill="none" stroke="black" d="M466.25,-250.63C480.29,-237.56 499.95,-219.25 515.74,-204.56"/>
<polygon fill="black" stroke="black" points="518.01,-207.23 522.95,-197.85 513.24,-202.1 518.01,-207.23"/>
</g>
</g>
</svg>
