<?xml version="1.0" encoding="UTF-8" standalone="no"?>
<!DOCTYPE svg PUBLIC "-//W3C//DTD SVG 1.1//EN"
 "http://www.w3.org/Graphics/SVG/1.1/DTD/svg11.dtd">
<!-- Generated by graphviz version 10.0.1 (20240210.2158)
 -->
<!-- Title: ND Pages: 1 -->
<svg width="560pt" height="638pt"
 viewBox="0.00 0.00 560.00 638.00" xmlns="http://www.w3.org/2000/svg" xmlns:xlink="http://www.w3.org/1999/xlink">
<g id="graph0" class="graph" transform="scale(1 1) rotate(0) translate(4 634)">
<title>ND</title>
<polygon fill="white" stroke="none" points="-4,4 -4,-634 556,-634 556,4 -4,4"/>
<!-- n_0_1_2_3_4_5_6 -->
<g id="node1" class="node">
<title>n_0_1_2_3_4_5_6</title>
<polygon fill="none" stroke="black" points="383.62,-557 383.62,-625 453.88,-625 453.88,-557 383.62,-557"/>
<text text-anchor="start" x="395.88" y="-610.45" font-family="Times New Roman,serif" font-weight="bold" font-size="9.00">Primary (P)</text>
<text text-anchor="start" x="395.12" y="-601.45" font-family="Times New Roman,serif" font-weight="bold" font-size="9.00">Primary (G)</text>
<text text-anchor="start" x="391.38" y="-592.45" font-family="Times New Roman,serif" font-weight="bold" font-size="9.00">Secondary (P)</text>
<text text-anchor="start" x="390.62" y="-583.45" font-family="Times New Roman,serif" font-weight="bold" font-size="9.00">Secondary (G)</text>
<text text-anchor="start" x="399.25" y="-574.45" font-family="Times New Roman,serif" font-weight="bold" font-size="9.00">Technical</text>
<text text-anchor="start" x="398.5" y="-565.45" font-family="Times New Roman,serif" font-weight="bold" font-size="9.00">University</text>
<polygon fill="none" stroke="black" points="453.88,-557 453.88,-625 506.12,-625 506.12,-557 453.88,-557"/>
<text text-anchor="start" x="460.88" y="-589.08" font-family="Times New Roman,serif" font-weight="bold" font-size="9.00">Preschool</text>
<polygon fill="none" stroke="black" points="382.62,-556 382.62,-626 507.12,-626 507.12,-556 382.62,-556"/>
</g>
<!-- n_0_1_3_4_5_6 -->
<g id="node2" class="node">
<title>n_0_1_3_4_5_6</title>
<polygon fill="none" stroke="black" points="304.38,-445 304.38,-504 374.62,-504 374.62,-445 304.38,-445"/>
<text text-anchor="start" x="316.62" y="-489.45" font-family="Times New Roman,serif" font-weight="bold" font-size="9.00">Primary (P)</text>
<text text-anchor="start" x="315.88" y="-480.45" font-family="Times New Roman,serif" font-weight="bold" font-size="9.00">Primary (G)</text>
<text text-anchor="start" x="311.38" y="-471.45" font-family="Times New Roman,serif" font-weight="bold" font-size="9.00">Secondary (G)</text>
<text text-anchor="start" x="320" y="-462.45" font-family="Times New Roman,serif" font-weight="bold" font-size="9.00">Technical</text>
<text text-anchor="start" x="319.25" y="-453.45" font-family="Times New Roman,serif" font-weight="bold" font-size="9.00">University</text>
<polygon fill="none" stroke="black" points="374.62,-445 374.62,-504 443.38,-504 443.38,-445 374.62,-445"/>
<text text-anchor="start" x="381.62" y="-472.57" font-family="Times New Roman,serif" font-weight="bold" font-size="9.00">Secondary (P)</text>
<polygon fill="none" stroke="black" points="303.38,-444 303.38,-505 444.38,-505 444.38,-444 303.38,-444"/>
</g>
<!-- n_0_1_2_3_4_5_6&#45;&gt;n_0_1_3_4_5_6 -->
<g id="edge1" class="edge">
<title>n_0_1_2_3_4_5_6&#45;&gt;n_0_1_3_4_5_6</title>
<path fill="none" stroke="black" d="M421.43,-552.19C414.68,-541.31 407.27,-529.36 400.36,-518.21"/>
<polygon fill="black" stroke="black" points="403.47,-516.59 395.23,-509.94 397.53,-520.28 403.47,-516.59"/>
</g>
<!-- n_2 -->
<g id="node13" class="node">
<title>n_2</title>
<polygon fill="none" stroke="black" points="490.75,-461.88 490.75,-487.12 543,-487.12 543,-461.88 490.75,-461.88"/>
<text text-anchor="start" x="497.75" y="-472.57" font-family="Times New Roman,serif" font-weight="bold" font-size="9.00">Preschool</text>
<polygon fill="none" stroke="black" points="489.75,-460.88 489.75,-488.12 544,-488.12 544,-460.88 489.75,-460.88"/>
</g>
<!-- n_0_1_2_3_4_5_6&#45;&gt;n_2 -->
<g id="edge12" class="edge">
<title>n_0_1_2_3_4_5_6&#45;&gt;n_2</title>
<path fill="none" stroke="black" d="M468.65,-552.19C478.97,-535.78 490.8,-516.96 500.17,-502.07"/>
<polygon fill="black" stroke="black" points="503.04,-504.07 505.4,-493.74 497.12,-500.35 503.04,-504.07"/>
</g>
<!-- n_0_1_4_5_6 -->
<g id="node3" class="node">
<title>n_0_1_4_5_6</title>
<polygon fill="none" stroke="black" points="235.12,-342 235.12,-392 305.38,-392 305.38,-342 235.12,-342"/>
<text text-anchor="start" x="247.38" y="-377.45" font-family="Times New Roman,serif" font-weight="bold" font-size="9.00">Primary (P)</text>
<text text-anchor="start" x="242.12" y="-368.45" font-family="Times New Roman,serif" font-weight="bold" font-size="9.00">Secondary (G)</text>
<text text-anchor="start" x="250.75" y="-359.45" font-family="Times New Roman,serif" font-weight="bold" font-size="9.00">Technical</text>
<text text-anchor="start" x="250" y="-350.45" font-family="Times New Roman,serif" font-weight="bold" font-size="9.00">University</text>
<polygon fill="none" stroke="black" points="305.38,-342 305.38,-392 366.62,-392 366.62,-342 305.38,-342"/>
<text text-anchor="start" x="312.38" y="-365.07" font-family="Times New Roman,serif" font-weight="bold" font-size="9.00">Primary (G)</text>
<polygon fill="none" stroke="black" points="234.12,-341 234.12,-393 367.62,-393 367.62,-341 234.12,-341"/>
</g>
<!-- n_0_1_3_4_5_6&#45;&gt;n_0_1_4_5_6 -->
<g id="edge2" class="edge">
<title>n_0_1_3_4_5_6&#45;&gt;n_0_1_4_5_6</title>
<path fill="none" stroke="black" d="M350.78,-440.12C343.35,-429.38 335.06,-417.4 327.4,-406.33"/>
<polygon fill="black" stroke="black" points="330.3,-404.37 321.73,-398.14 324.54,-408.36 330.3,-404.37"/>
</g>
<!-- n_3 -->
<g id="node12" class="node">
<title>n_3</title>
<polygon fill="none" stroke="black" points="413.5,-354.38 413.5,-379.62 482.25,-379.62 482.25,-354.38 413.5,-354.38"/>
<text text-anchor="start" x="420.5" y="-365.07" font-family="Times New Roman,serif" font-weight="bold" font-size="9.00">Secondary (P)</text>
<polygon fill="none" stroke="black" points="412.5,-353.38 412.5,-380.62 483.25,-380.62 483.25,-353.38 412.5,-353.38"/>
</g>
<!-- n_0_1_3_4_5_6&#45;&gt;n_3 -->
<g id="edge11" class="edge">
<title>n_0_1_3_4_5_6&#45;&gt;n_3</title>
<path fill="none" stroke="black" d="M397.29,-440.12C407.75,-425.21 419.89,-407.9 429.65,-393.98"/>
<polygon fill="black" stroke="black" points="432.24,-396.39 435.12,-386.19 426.51,-392.37 432.24,-396.39"/>
</g>
<!-- n_0_4_5_6 -->
<g id="node4" class="node">
<title>n_0_4_5_6</title>
<polygon fill="none" stroke="black" points="170.25,-248 170.25,-289 240.5,-289 240.5,-248 170.25,-248"/>
<text text-anchor="start" x="182.5" y="-274.45" font-family="Times New Roman,serif" font-weight="bold" font-size="9.00">Primary (P)</text>
<text text-anchor="start" x="177.25" y="-265.45" font-family="Times New Roman,serif" font-weight="bold" font-size="9.00">Secondary (G)</text>
<text text-anchor="start" x="185.12" y="-256.45" font-family="Times New Roman,serif" font-weight="bold" font-size="9.00">University</text>
<polygon fill="none" stroke="black" points="240.5,-248 240.5,-289 293.5,-289 293.5,-248 240.5,-248"/>
<text text-anchor="start" x="247.5" y="-266.57" font-family="Times New Roman,serif" font-weight="bold" font-size="9.00">Technical</text>
<polygon fill="none" stroke="black" points="169.25,-247 169.25,-290 294.5,-290 294.5,-247 169.25,-247"/>
</g>
<!-- n_0_1_4_5_6&#45;&gt;n_0_4_5_6 -->
<g id="edge3" class="edge">
<title>n_0_1_4_5_6&#45;&gt;n_0_4_5_6</title>
<path fill="none" stroke="black" d="M280.17,-337.05C272.56,-326.4 263.87,-314.25 255.98,-303.22"/>
<polygon fill="black" stroke="black" points="258.85,-301.2 250.18,-295.11 253.15,-305.28 258.85,-301.2"/>
</g>
<!-- n_1 -->
<g id="node11" class="node">
<title>n_1</title>
<polygon fill="none" stroke="black" points="340.25,-255.88 340.25,-281.12 401.5,-281.12 401.5,-255.88 340.25,-255.88"/>
<text text-anchor="start" x="347.25" y="-266.57" font-family="Times New Roman,serif" font-weight="bold" font-size="9.00">Primary (G)</text>
<polygon fill="none" stroke="black" points="339.25,-254.88 339.25,-282.12 402.5,-282.12 402.5,-254.88 339.25,-254.88"/>
</g>
<!-- n_0_1_4_5_6&#45;&gt;n_1 -->
<g id="edge10" class="edge">
<title>n_0_1_4_5_6&#45;&gt;n_1</title>
<path fill="none" stroke="black" d="M321.88,-337.05C331.44,-323.86 342.67,-308.38 351.97,-295.56"/>
<polygon fill="black" stroke="black" points="354.71,-297.74 357.75,-287.59 349.05,-293.63 354.71,-297.74"/>
</g>
<!-- n_0_4_6 -->
<g id="node5" class="node">
<title>n_0_4_6</title>
<polygon fill="none" stroke="black" points="101.5,-163 101.5,-195 171.75,-195 171.75,-163 101.5,-163"/>
<text text-anchor="start" x="113.75" y="-180.45" font-family="Times New Roman,serif" font-weight="bold" font-size="9.00">Primary (P)</text>
<text text-anchor="start" x="108.5" y="-171.45" font-family="Times New Roman,serif" font-weight="bold" font-size="9.00">Secondary (G)</text>
<polygon fill="none" stroke="black" points="171.75,-163 171.75,-195 226.25,-195 226.25,-163 171.75,-163"/>
<text text-anchor="start" x="178.75" y="-177.07" font-family="Times New Roman,serif" font-weight="bold" font-size="9.00">University</text>
<polygon fill="none" stroke="black" points="100.5,-162 100.5,-196 227.25,-196 227.25,-162 100.5,-162"/>
</g>
<!-- n_0_4_5_6&#45;&gt;n_0_4_6 -->
<g id="edge4" class="edge">
<title>n_0_4_5_6&#45;&gt;n_0_4_6</title>
<path fill="none" stroke="black" d="M212.93,-243.13C204.64,-232.46 194.86,-219.87 186.22,-208.75"/>
<polygon fill="black" stroke="black" points="189.11,-206.77 180.21,-201.02 183.58,-211.06 189.11,-206.77"/>
</g>
<!-- n_5 -->
<g id="node10" class="node">
<title>n_5</title>
<polygon fill="none" stroke="black" points="273.38,-166.38 273.38,-191.62 326.38,-191.62 326.38,-166.38 273.38,-166.38"/>
<text text-anchor="start" x="280.38" y="-177.07" font-family="Times New Roman,serif" font-weight="bold" font-size="9.00">Technical</text>
<polygon fill="none" stroke="black" points="272.38,-165.38 272.38,-192.62 327.38,-192.62 327.38,-165.38 272.38,-165.38"/>
</g>
<!-- n_0_4_5_6&#45;&gt;n_5 -->
<g id="edge9" class="edge">
<title>n_0_4_5_6&#45;&gt;n_5</title>
<path fill="none" stroke="black" d="M250.82,-243.13C259.87,-231.48 270.71,-217.53 279.9,-205.71"/>
<polygon fill="black" stroke="black" points="282.54,-208.01 285.91,-197.97 277.01,-203.71 282.54,-208.01"/>
</g>
<!-- n_0_4 -->
<g id="node6" class="node">
<title>n_0_4</title>
<polygon fill="none" stroke="black" points="29.88,-84.38 29.88,-109.62 89.62,-109.62 89.62,-84.38 29.88,-84.38"/>
<text text-anchor="start" x="36.88" y="-95.08" font-family="Times New Roman,serif" font-weight="bold" font-size="9.00">Primary (P)</text>
<polygon fill="none" stroke="black" points="89.62,-84.38 89.62,-109.62 159.88,-109.62 159.88,-84.38 89.62,-84.38"/>
<text text-anchor="start" x="96.62" y="-95.08" font-family="Times New Roman,serif" font-weight="bold" font-size="9.00">Secondary (G)</text>
<polygon fill="none" stroke="black" points="28.88,-83.38 28.88,-110.62 160.88,-110.62 160.88,-83.38 28.88,-83.38"/>
</g>
<!-- n_0_4_6&#45;&gt;n_0_4 -->
<g id="edge5" class="edge">
<title>n_0_4_6&#45;&gt;n_0_4</title>
<path fill="none" stroke="black" d="M146.82,-158.22C137.75,-147.71 126.5,-134.66 116.79,-123.41"/>
<polygon fill="black" stroke="black" points="119.57,-121.28 110.39,-115.99 114.27,-125.85 119.57,-121.28"/>
</g>
<!-- n_6 -->
<g id="node9" class="node">
<title>n_6</title>
<polygon fill="none" stroke="black" points="206.62,-84.38 206.62,-109.62 261.12,-109.62 261.12,-84.38 206.62,-84.38"/>
<text text-anchor="start" x="213.62" y="-95.08" font-family="Times New Roman,serif" font-weight="bold" font-size="9.00">University</text>
<polygon fill="none" stroke="black" points="205.62,-83.38 205.62,-110.62 262.12,-110.62 262.12,-83.38 205.62,-83.38"/>
</g>
<!-- n_0_4_6&#45;&gt;n_6 -->
<g id="edge8" class="edge">
<title>n_0_4_6&#45;&gt;n_6</title>
<path fill="none" stroke="black" d="M181.18,-158.22C190.38,-147.71 201.79,-134.66 211.64,-123.41"/>
<polygon fill="black" stroke="black" points="214.19,-125.81 218.14,-115.98 208.92,-121.2 214.19,-125.81"/>
</g>
<!-- n_0 -->
<g id="node7" class="node">
<title>n_0</title>
<polygon fill="none" stroke="black" points="9,-5.38 9,-30.62 68.75,-30.62 68.75,-5.38 9,-5.38"/>
<text text-anchor="start" x="16" y="-16.07" font-family="Times New Roman,serif" font-weight="bold" font-size="9.00">Primary (P)</text>
<polygon fill="none" stroke="black" points="8,-4.38 8,-31.62 69.75,-31.62 69.75,-4.38 8,-4.38"/>
</g>
<!-- n_0_4&#45;&gt;n_0 -->
<g id="edge6" class="edge">
<title>n_0_4&#45;&gt;n_0</title>
<path fill="none" stroke="black" d="M82.72,-79.29C75.44,-69.27 66.01,-56.31 57.77,-44.98"/>
<polygon fill="black" stroke="black" points="60.8,-43.19 52.09,-37.17 55.14,-47.31 60.8,-43.19"/>
</g>
<!-- n_4 -->
<g id="node8" class="node">
<title>n_4</title>
<polygon fill="none" stroke="black" points="115.75,-5.38 115.75,-30.62 186,-30.62 186,-5.38 115.75,-5.38"/>
<text text-anchor="start" x="122.75" y="-16.07" font-family="Times New Roman,serif" font-weight="bold" font-size="9.00">Secondary (G)</text>
<polygon fill="none" stroke="black" points="114.75,-4.38 114.75,-31.62 187,-31.62 187,-4.38 114.75,-4.38"/>
</g>
<!-- n_0_4&#45;&gt;n_4 -->
<g id="edge7" class="edge">
<title>n_0_4&#45;&gt;n_4</title>
<path fill="none" stroke="black" d="M107.03,-79.29C114.31,-69.27 123.74,-56.31 131.98,-44.98"/>
<polygon fill="black" stroke="black" points="134.61,-47.31 137.66,-37.17 128.95,-43.19 134.61,-47.31"/>
</g>
</g>
</svg>
