<?xml version="1.0" encoding="UTF-8" standalone="no"?>
<!DOCTYPE svg PUBLIC "-//W3C//DTD SVG 1.1//EN"
 "http://www.w3.org/Graphics/SVG/1.1/DTD/svg11.dtd">
<!-- Generated by graphviz version 10.0.1 (20240210.2158)
 -->
<!-- Title: ND Pages: 1 -->
<svg width="562pt" height="535pt"
 viewBox="0.00 0.00 561.50 535.00" xmlns="http://www.w3.org/2000/svg" xmlns:xlink="http://www.w3.org/1999/xlink">
<g id="graph0" class="graph" transform="scale(1 1) rotate(0) translate(4 531)">
<title>ND</title>
<polygon fill="white" stroke="none" points="-4,4 -4,-531 557.5,-531 557.5,4 -4,4"/>
<!-- n_0_1_2_3_4_5_6 -->
<g id="node1" class="node">
<title>n_0_1_2_3_4_5_6</title>
<polygon fill="none" stroke="black" points="374.12,-454 374.12,-522 444.38,-522 444.38,-454 374.12,-454"/>
<text text-anchor="start" x="386.38" y="-507.45" font-family="Times New Roman,serif" font-weight="bold" font-size="9.00">Primary (P)</text>
<text text-anchor="start" x="390.12" y="-498.45" font-family="Times New Roman,serif" font-weight="bold" font-size="9.00">Preschool</text>
<text text-anchor="start" x="381.88" y="-489.45" font-family="Times New Roman,serif" font-weight="bold" font-size="9.00">Secondary (P)</text>
<text text-anchor="start" x="381.12" y="-480.45" font-family="Times New Roman,serif" font-weight="bold" font-size="9.00">Secondary (G)</text>
<text text-anchor="start" x="389.75" y="-471.45" font-family="Times New Roman,serif" font-weight="bold" font-size="9.00">Technical</text>
<text text-anchor="start" x="389" y="-462.45" font-family="Times New Roman,serif" font-weight="bold" font-size="9.00">University</text>
<polygon fill="none" stroke="black" points="444.38,-454 444.38,-522 505.62,-522 505.62,-454 444.38,-454"/>
<text text-anchor="start" x="451.38" y="-486.07" font-family="Times New Roman,serif" font-weight="bold" font-size="9.00">Primary (G)</text>
<polygon fill="none" stroke="black" points="373.12,-453 373.12,-523 506.62,-523 506.62,-453 373.12,-453"/>
</g>
<!-- n_0_2_3_4_5_6 -->
<g id="node2" class="node">
<title>n_0_2_3_4_5_6</title>
<polygon fill="none" stroke="black" points="297.38,-342 297.38,-401 366.12,-401 366.12,-342 297.38,-342"/>
<text text-anchor="start" x="308.88" y="-386.45" font-family="Times New Roman,serif" font-weight="bold" font-size="9.00">Primary (P)</text>
<text text-anchor="start" x="312.62" y="-377.45" font-family="Times New Roman,serif" font-weight="bold" font-size="9.00">Preschool</text>
<text text-anchor="start" x="304.38" y="-368.45" font-family="Times New Roman,serif" font-weight="bold" font-size="9.00">Secondary (P)</text>
<text text-anchor="start" x="312.25" y="-359.45" font-family="Times New Roman,serif" font-weight="bold" font-size="9.00">Technical</text>
<text text-anchor="start" x="311.5" y="-350.45" font-family="Times New Roman,serif" font-weight="bold" font-size="9.00">University</text>
<polygon fill="none" stroke="black" points="366.12,-342 366.12,-401 436.38,-401 436.38,-342 366.12,-342"/>
<text text-anchor="start" x="373.12" y="-369.57" font-family="Times New Roman,serif" font-weight="bold" font-size="9.00">Secondary (G)</text>
<polygon fill="none" stroke="black" points="296.38,-341 296.38,-402 437.38,-402 437.38,-341 296.38,-341"/>
</g>
<!-- n_0_1_2_3_4_5_6&#45;&gt;n_0_2_3_4_5_6 -->
<g id="edge1" class="edge">
<title>n_0_1_2_3_4_5_6&#45;&gt;n_0_2_3_4_5_6</title>
<path fill="none" stroke="black" d="M415.77,-449.19C408.83,-438.31 401.22,-426.36 394.1,-415.21"/>
<polygon fill="black" stroke="black" points="397.15,-413.48 388.82,-406.93 391.25,-417.24 397.15,-413.48"/>
</g>
<!-- n_1 -->
<g id="node13" class="node">
<title>n_1</title>
<polygon fill="none" stroke="black" points="483.25,-358.88 483.25,-384.12 544.5,-384.12 544.5,-358.88 483.25,-358.88"/>
<text text-anchor="start" x="490.25" y="-369.57" font-family="Times New Roman,serif" font-weight="bold" font-size="9.00">Primary (G)</text>
<polygon fill="none" stroke="black" points="482.25,-357.88 482.25,-385.12 545.5,-385.12 545.5,-357.88 482.25,-357.88"/>
</g>
<!-- n_0_1_2_3_4_5_6&#45;&gt;n_1 -->
<g id="edge12" class="edge">
<title>n_0_1_2_3_4_5_6&#45;&gt;n_1</title>
<path fill="none" stroke="black" d="M464.31,-449.19C474.91,-432.78 487.08,-413.96 496.7,-399.07"/>
<polygon fill="black" stroke="black" points="499.6,-401.03 502.09,-390.73 493.72,-397.23 499.6,-401.03"/>
</g>
<!-- n_0_2_3_5_6 -->
<g id="node3" class="node">
<title>n_0_2_3_5_6</title>
<polygon fill="none" stroke="black" points="233.25,-248 233.25,-289 302,-289 302,-248 233.25,-248"/>
<text text-anchor="start" x="244.75" y="-274.45" font-family="Times New Roman,serif" font-weight="bold" font-size="9.00">Primary (P)</text>
<text text-anchor="start" x="248.5" y="-265.45" font-family="Times New Roman,serif" font-weight="bold" font-size="9.00">Preschool</text>
<text text-anchor="start" x="240.25" y="-256.45" font-family="Times New Roman,serif" font-weight="bold" font-size="9.00">Secondary (P)</text>
<polygon fill="none" stroke="black" points="302,-248 302,-289 356.5,-289 356.5,-248 302,-248"/>
<text text-anchor="start" x="309.75" y="-269.95" font-family="Times New Roman,serif" font-weight="bold" font-size="9.00">Technical</text>
<text text-anchor="start" x="309" y="-260.95" font-family="Times New Roman,serif" font-weight="bold" font-size="9.00">University</text>
<polygon fill="none" stroke="black" points="232.25,-247 232.25,-290 357.5,-290 357.5,-247 232.25,-247"/>
</g>
<!-- n_0_2_3_4_5_6&#45;&gt;n_0_2_3_5_6 -->
<g id="edge2" class="edge">
<title>n_0_2_3_4_5_6&#45;&gt;n_0_2_3_5_6</title>
<path fill="none" stroke="black" d="M343.1,-337.15C335.31,-326.22 326.65,-314.07 318.84,-303.12"/>
<polygon fill="black" stroke="black" points="321.77,-301.2 313.12,-295.09 316.07,-305.27 321.77,-301.2"/>
</g>
<!-- n_4 -->
<g id="node12" class="node">
<title>n_4</title>
<polygon fill="none" stroke="black" points="403.75,-255.88 403.75,-281.12 474,-281.12 474,-255.88 403.75,-255.88"/>
<text text-anchor="start" x="410.75" y="-266.57" font-family="Times New Roman,serif" font-weight="bold" font-size="9.00">Secondary (G)</text>
<polygon fill="none" stroke="black" points="402.75,-254.88 402.75,-282.12 475,-282.12 475,-254.88 402.75,-254.88"/>
</g>
<!-- n_0_2_3_4_5_6&#45;&gt;n_4 -->
<g id="edge11" class="edge">
<title>n_0_2_3_4_5_6&#45;&gt;n_4</title>
<path fill="none" stroke="black" d="M390.65,-337.15C400.31,-323.6 411.31,-308.17 420.36,-295.48"/>
<polygon fill="black" stroke="black" points="423.01,-297.79 425.96,-287.61 417.31,-293.72 423.01,-297.79"/>
</g>
<!-- n_0_2_3 -->
<g id="node4" class="node">
<title>n_0_2_3</title>
<polygon fill="none" stroke="black" points="154.38,-163 154.38,-195 223.12,-195 223.12,-163 154.38,-163"/>
<text text-anchor="start" x="165.88" y="-180.45" font-family="Times New Roman,serif" font-weight="bold" font-size="9.00">Primary (P)</text>
<text text-anchor="start" x="161.38" y="-171.45" font-family="Times New Roman,serif" font-weight="bold" font-size="9.00">Secondary (P)</text>
<polygon fill="none" stroke="black" points="223.12,-163 223.12,-195 275.38,-195 275.38,-163 223.12,-163"/>
<text text-anchor="start" x="230.12" y="-177.07" font-family="Times New Roman,serif" font-weight="bold" font-size="9.00">Preschool</text>
<polygon fill="none" stroke="black" points="153.38,-162 153.38,-196 276.38,-196 276.38,-162 153.38,-162"/>
</g>
<!-- n_0_2_3_5_6&#45;&gt;n_0_2_3 -->
<g id="edge3" class="edge">
<title>n_0_2_3_5_6&#45;&gt;n_0_2_3</title>
<path fill="none" stroke="black" d="M272.59,-243.13C262.64,-232.25 250.86,-219.36 240.55,-208.08"/>
<polygon fill="black" stroke="black" points="243.35,-205.96 234.02,-200.94 238.19,-210.69 243.35,-205.96"/>
</g>
<!-- n_5_6 -->
<g id="node9" class="node">
<title>n_5_6</title>
<polygon fill="none" stroke="black" points="322.12,-166.38 322.12,-191.62 375.12,-191.62 375.12,-166.38 322.12,-166.38"/>
<text text-anchor="start" x="329.12" y="-177.07" font-family="Times New Roman,serif" font-weight="bold" font-size="9.00">Technical</text>
<polygon fill="none" stroke="black" points="375.12,-166.38 375.12,-191.62 429.62,-191.62 429.62,-166.38 375.12,-166.38"/>
<text text-anchor="start" x="382.12" y="-177.07" font-family="Times New Roman,serif" font-weight="bold" font-size="9.00">University</text>
<polygon fill="none" stroke="black" points="321.12,-165.38 321.12,-192.62 430.62,-192.62 430.62,-165.38 321.12,-165.38"/>
</g>
<!-- n_0_2_3_5_6&#45;&gt;n_5_6 -->
<g id="edge8" class="edge">
<title>n_0_2_3_5_6&#45;&gt;n_5_6</title>
<path fill="none" stroke="black" d="M317.44,-243.13C328.44,-231.24 341.65,-216.97 352.72,-205.01"/>
<polygon fill="black" stroke="black" points="355.1,-207.6 359.32,-197.88 349.96,-202.84 355.1,-207.6"/>
</g>
<!-- n_0_3 -->
<g id="node5" class="node">
<title>n_0_3</title>
<polygon fill="none" stroke="black" points="29.62,-84.38 29.62,-109.62 89.38,-109.62 89.38,-84.38 29.62,-84.38"/>
<text text-anchor="start" x="36.62" y="-95.08" font-family="Times New Roman,serif" font-weight="bold" font-size="9.00">Primary (P)</text>
<polygon fill="none" stroke="black" points="89.38,-84.38 89.38,-109.62 158.12,-109.62 158.12,-84.38 89.38,-84.38"/>
<text text-anchor="start" x="96.38" y="-95.08" font-family="Times New Roman,serif" font-weight="bold" font-size="9.00">Secondary (P)</text>
<polygon fill="none" stroke="black" points="28.62,-83.38 28.62,-110.62 159.12,-110.62 159.12,-83.38 28.62,-83.38"/>
</g>
<!-- n_0_2_3&#45;&gt;n_0_3 -->
<g id="edge4" class="edge">
<title>n_0_2_3&#45;&gt;n_0_3</title>
<path fill="none" stroke="black" d="M184.65,-158.02C167.64,-146.77 146.33,-132.68 128.63,-120.98"/>
<polygon fill="black" stroke="black" points="130.76,-118.19 120.48,-115.59 126.9,-124.03 130.76,-118.19"/>
</g>
<!-- n_2 -->
<g id="node8" class="node">
<title>n_2</title>
<polygon fill="none" stroke="black" points="204.75,-84.38 204.75,-109.62 257,-109.62 257,-84.38 204.75,-84.38"/>
<text text-anchor="start" x="211.75" y="-95.08" font-family="Times New Roman,serif" font-weight="bold" font-size="9.00">Preschool</text>
<polygon fill="none" stroke="black" points="203.75,-83.38 203.75,-110.62 258,-110.62 258,-83.38 203.75,-83.38"/>
</g>
<!-- n_0_2_3&#45;&gt;n_2 -->
<g id="edge7" class="edge">
<title>n_0_2_3&#45;&gt;n_2</title>
<path fill="none" stroke="black" d="M218.83,-158.22C220.77,-148.54 223.13,-136.72 225.25,-126.11"/>
<polygon fill="black" stroke="black" points="228.68,-126.82 227.21,-116.33 221.82,-125.45 228.68,-126.82"/>
</g>
<!-- n_0 -->
<g id="node6" class="node">
<title>n_0</title>
<polygon fill="none" stroke="black" points="9,-5.38 9,-30.62 68.75,-30.62 68.75,-5.38 9,-5.38"/>
<text text-anchor="start" x="16" y="-16.07" font-family="Times New Roman,serif" font-weight="bold" font-size="9.00">Primary (P)</text>
<polygon fill="none" stroke="black" points="8,-4.38 8,-31.62 69.75,-31.62 69.75,-4.38 8,-4.38"/>
</g>
<!-- n_0_3&#45;&gt;n_0 -->
<g id="edge5" class="edge">
<title>n_0_3&#45;&gt;n_0</title>
<path fill="none" stroke="black" d="M81.94,-79.29C74.78,-69.27 65.53,-56.31 57.43,-44.98"/>
<polygon fill="black" stroke="black" points="60.52,-43.28 51.86,-37.17 54.82,-47.34 60.52,-43.28"/>
</g>
<!-- n_3 -->
<g id="node7" class="node">
<title>n_3</title>
<polygon fill="none" stroke="black" points="115.5,-5.38 115.5,-30.62 184.25,-30.62 184.25,-5.38 115.5,-5.38"/>
<text text-anchor="start" x="122.5" y="-16.07" font-family="Times New Roman,serif" font-weight="bold" font-size="9.00">Secondary (P)</text>
<polygon fill="none" stroke="black" points="114.5,-4.38 114.5,-31.62 185.25,-31.62 185.25,-4.38 114.5,-4.38"/>
</g>
<!-- n_0_3&#45;&gt;n_3 -->
<g id="edge6" class="edge">
<title>n_0_3&#45;&gt;n_3</title>
<path fill="none" stroke="black" d="M106.03,-79.29C113.31,-69.27 122.74,-56.31 130.98,-44.98"/>
<polygon fill="black" stroke="black" points="133.61,-47.31 136.66,-37.17 127.95,-43.19 133.61,-47.31"/>
</g>
<!-- n_5 -->
<g id="node10" class="node">
<title>n_5</title>
<polygon fill="none" stroke="black" points="334.38,-84.38 334.38,-109.62 387.38,-109.62 387.38,-84.38 334.38,-84.38"/>
<text text-anchor="start" x="341.38" y="-95.08" font-family="Times New Roman,serif" font-weight="bold" font-size="9.00">Technical</text>
<polygon fill="none" stroke="black" points="333.38,-83.38 333.38,-110.62 388.38,-110.62 388.38,-83.38 333.38,-83.38"/>
</g>
<!-- n_5_6&#45;&gt;n_5 -->
<g id="edge9" class="edge">
<title>n_5_6&#45;&gt;n_5</title>
<path fill="none" stroke="black" d="M372.69,-161.03C370.78,-150.85 368.31,-137.65 366.12,-125.96"/>
<polygon fill="black" stroke="black" points="369.61,-125.61 364.33,-116.43 362.73,-126.9 369.61,-125.61"/>
</g>
<!-- n_6 -->
<g id="node11" class="node">
<title>n_6</title>
<polygon fill="none" stroke="black" points="434.62,-84.38 434.62,-109.62 489.12,-109.62 489.12,-84.38 434.62,-84.38"/>
<text text-anchor="start" x="441.62" y="-95.08" font-family="Times New Roman,serif" font-weight="bold" font-size="9.00">University</text>
<polygon fill="none" stroke="black" points="433.62,-83.38 433.62,-110.62 490.12,-110.62 490.12,-83.38 433.62,-83.38"/>
</g>
<!-- n_5_6&#45;&gt;n_6 -->
<g id="edge10" class="edge">
<title>n_5_6&#45;&gt;n_6</title>
<path fill="none" stroke="black" d="M394.11,-161.03C406.09,-149.9 421.94,-135.15 435.31,-122.71"/>
<polygon fill="black" stroke="black" points="437.62,-125.35 442.55,-115.97 432.85,-120.22 437.62,-125.35"/>
</g>
</g>
</svg>
