<?xml version="1.0" encoding="UTF-8" standalone="no"?>
<!DOCTYPE svg PUBLIC "-//W3C//DTD SVG 1.1//EN"
 "http://www.w3.org/Graphics/SVG/1.1/DTD/svg11.dtd">
<!-- Generated by graphviz version 10.0.1 (20240210.2158)
 -->
<!-- Title: ND Pages: 1 -->
<svg width="598pt" height="526pt"
 viewBox="0.00 0.00 598.38 526.00" xmlns="http://www.w3.org/2000/svg" xmlns:xlink="http://www.w3.org/1999/xlink">
<g id="graph0" class="graph" transform="scale(1 1) rotate(0) translate(4 522)">
<title>ND</title>
<polygon fill="white" stroke="none" points="-4,4 -4,-522 594.38,-522 594.38,4 -4,4"/>
<!-- n_0_1_2_3_4_5_6 -->
<g id="node1" class="node">
<title>n_0_1_2_3_4_5_6</title>
<polygon fill="none" stroke="black" points="383.12,-445 383.12,-513 453.38,-513 453.38,-445 383.12,-445"/>
<text text-anchor="start" x="394.62" y="-498.45" font-family="Times New Roman,serif" font-weight="bold" font-size="9.00">Primary (G)</text>
<text text-anchor="start" x="399.12" y="-489.45" font-family="Times New Roman,serif" font-weight="bold" font-size="9.00">Preschool</text>
<text text-anchor="start" x="390.88" y="-480.45" font-family="Times New Roman,serif" font-weight="bold" font-size="9.00">Secondary (P)</text>
<text text-anchor="start" x="390.12" y="-471.45" font-family="Times New Roman,serif" font-weight="bold" font-size="9.00">Secondary (G)</text>
<text text-anchor="start" x="398.75" y="-462.45" font-family="Times New Roman,serif" font-weight="bold" font-size="9.00">Technical</text>
<text text-anchor="start" x="398" y="-453.45" font-family="Times New Roman,serif" font-weight="bold" font-size="9.00">University</text>
<polygon fill="none" stroke="black" points="453.38,-445 453.38,-513 513.12,-513 513.12,-445 453.38,-445"/>
<text text-anchor="start" x="460.38" y="-477.07" font-family="Times New Roman,serif" font-weight="bold" font-size="9.00">Primary (P)</text>
<polygon fill="none" stroke="black" points="382.12,-444 382.12,-514 514.12,-514 514.12,-444 382.12,-444"/>
</g>
<!-- n_1_2_3_4_5_6 -->
<g id="node2" class="node">
<title>n_1_2_3_4_5_6</title>
<polygon fill="none" stroke="black" points="305.62,-342 305.62,-392 375.88,-392 375.88,-342 305.62,-342"/>
<text text-anchor="start" x="317.12" y="-377.45" font-family="Times New Roman,serif" font-weight="bold" font-size="9.00">Primary (G)</text>
<text text-anchor="start" x="321.62" y="-368.45" font-family="Times New Roman,serif" font-weight="bold" font-size="9.00">Preschool</text>
<text text-anchor="start" x="312.62" y="-359.45" font-family="Times New Roman,serif" font-weight="bold" font-size="9.00">Secondary (G)</text>
<text text-anchor="start" x="321.25" y="-350.45" font-family="Times New Roman,serif" font-weight="bold" font-size="9.00">Technical</text>
<polygon fill="none" stroke="black" points="375.88,-342 375.88,-392 444.62,-392 444.62,-342 375.88,-342"/>
<text text-anchor="start" x="382.88" y="-368.45" font-family="Times New Roman,serif" font-weight="bold" font-size="9.00">Secondary (P)</text>
<text text-anchor="start" x="390" y="-359.45" font-family="Times New Roman,serif" font-weight="bold" font-size="9.00">University</text>
<polygon fill="none" stroke="black" points="304.62,-341 304.62,-393 445.62,-393 445.62,-341 304.62,-341"/>
</g>
<!-- n_0_1_2_3_4_5_6&#45;&gt;n_1_2_3_4_5_6 -->
<g id="edge1" class="edge">
<title>n_0_1_2_3_4_5_6&#45;&gt;n_1_2_3_4_5_6</title>
<path fill="none" stroke="black" d="M423,-440.14C415.73,-429.19 407.79,-417.22 400.5,-406.23"/>
<polygon fill="black" stroke="black" points="403.58,-404.55 395.13,-398.15 397.75,-408.42 403.58,-404.55"/>
</g>
<!-- n_0 -->
<g id="node13" class="node">
<title>n_0</title>
<polygon fill="none" stroke="black" points="491.25,-354.38 491.25,-379.62 551,-379.62 551,-354.38 491.25,-354.38"/>
<text text-anchor="start" x="498.25" y="-365.07" font-family="Times New Roman,serif" font-weight="bold" font-size="9.00">Primary (P)</text>
<polygon fill="none" stroke="black" points="490.25,-353.38 490.25,-380.62 552,-380.62 552,-353.38 490.25,-353.38"/>
</g>
<!-- n_0_1_2_3_4_5_6&#45;&gt;n_0 -->
<g id="edge12" class="edge">
<title>n_0_1_2_3_4_5_6&#45;&gt;n_0</title>
<path fill="none" stroke="black" d="M473.25,-440.14C483.27,-425.04 494.56,-408.02 503.67,-394.31"/>
<polygon fill="black" stroke="black" points="506.4,-396.51 509.02,-386.24 500.57,-392.64 506.4,-396.51"/>
</g>
<!-- n_1_2_4_5 -->
<g id="node3" class="node">
<title>n_1_2_4_5</title>
<polygon fill="none" stroke="black" points="228.88,-248 228.88,-289 299.12,-289 299.12,-248 228.88,-248"/>
<text text-anchor="start" x="240.38" y="-274.45" font-family="Times New Roman,serif" font-weight="bold" font-size="9.00">Primary (G)</text>
<text text-anchor="start" x="235.88" y="-265.45" font-family="Times New Roman,serif" font-weight="bold" font-size="9.00">Secondary (G)</text>
<text text-anchor="start" x="244.5" y="-256.45" font-family="Times New Roman,serif" font-weight="bold" font-size="9.00">Technical</text>
<polygon fill="none" stroke="black" points="299.12,-248 299.12,-289 351.38,-289 351.38,-248 299.12,-248"/>
<text text-anchor="start" x="306.12" y="-266.57" font-family="Times New Roman,serif" font-weight="bold" font-size="9.00">Preschool</text>
<polygon fill="none" stroke="black" points="227.88,-247 227.88,-290 352.38,-290 352.38,-247 227.88,-247"/>
</g>
<!-- n_1_2_3_4_5_6&#45;&gt;n_1_2_4_5 -->
<g id="edge2" class="edge">
<title>n_1_2_3_4_5_6&#45;&gt;n_1_2_4_5</title>
<path fill="none" stroke="black" d="M349.62,-337.05C339.96,-326.08 328.89,-313.51 318.94,-302.22"/>
<polygon fill="black" stroke="black" points="321.83,-300.2 312.6,-295.01 316.58,-304.83 321.83,-300.2"/>
</g>
<!-- n_3_6 -->
<g id="node10" class="node">
<title>n_3_6</title>
<polygon fill="none" stroke="black" points="398.5,-255.88 398.5,-281.12 467.25,-281.12 467.25,-255.88 398.5,-255.88"/>
<text text-anchor="start" x="405.5" y="-266.57" font-family="Times New Roman,serif" font-weight="bold" font-size="9.00">Secondary (P)</text>
<polygon fill="none" stroke="black" points="467.25,-255.88 467.25,-281.12 521.75,-281.12 521.75,-255.88 467.25,-255.88"/>
<text text-anchor="start" x="474.25" y="-266.57" font-family="Times New Roman,serif" font-weight="bold" font-size="9.00">University</text>
<polygon fill="none" stroke="black" points="397.5,-254.88 397.5,-282.12 522.75,-282.12 522.75,-254.88 397.5,-254.88"/>
</g>
<!-- n_1_2_3_4_5_6&#45;&gt;n_3_6 -->
<g id="edge9" class="edge">
<title>n_1_2_3_4_5_6&#45;&gt;n_3_6</title>
<path fill="none" stroke="black" d="M400.63,-337.05C412.47,-323.6 426.42,-307.77 437.83,-294.81"/>
<polygon fill="black" stroke="black" points="440.29,-297.32 444.27,-287.5 435.03,-292.69 440.29,-297.32"/>
</g>
<!-- n_1_4_5 -->
<g id="node4" class="node">
<title>n_1_4_5</title>
<polygon fill="none" stroke="black" points="101.38,-163 101.38,-195 171.62,-195 171.62,-163 101.38,-163"/>
<text text-anchor="start" x="108.38" y="-180.45" font-family="Times New Roman,serif" font-weight="bold" font-size="9.00">Secondary (G)</text>
<text text-anchor="start" x="117" y="-171.45" font-family="Times New Roman,serif" font-weight="bold" font-size="9.00">Technical</text>
<polygon fill="none" stroke="black" points="171.62,-163 171.62,-195 232.88,-195 232.88,-163 171.62,-163"/>
<text text-anchor="start" x="178.62" y="-177.07" font-family="Times New Roman,serif" font-weight="bold" font-size="9.00">Primary (G)</text>
<polygon fill="none" stroke="black" points="100.38,-162 100.38,-196 233.88,-196 233.88,-162 100.38,-162"/>
</g>
<!-- n_1_2_4_5&#45;&gt;n_1_4_5 -->
<g id="edge3" class="edge">
<title>n_1_2_4_5&#45;&gt;n_1_4_5</title>
<path fill="none" stroke="black" d="M255.86,-243.13C239.82,-231.71 220.68,-218.1 204.28,-206.43"/>
<polygon fill="black" stroke="black" points="206.41,-203.65 196.23,-200.7 202.35,-209.35 206.41,-203.65"/>
</g>
<!-- n_2 -->
<g id="node9" class="node">
<title>n_2</title>
<polygon fill="none" stroke="black" points="280,-166.38 280,-191.62 332.25,-191.62 332.25,-166.38 280,-166.38"/>
<text text-anchor="start" x="287" y="-177.07" font-family="Times New Roman,serif" font-weight="bold" font-size="9.00">Preschool</text>
<polygon fill="none" stroke="black" points="279,-165.38 279,-192.62 333.25,-192.62 333.25,-165.38 279,-165.38"/>
</g>
<!-- n_1_2_4_5&#45;&gt;n_2 -->
<g id="edge8" class="edge">
<title>n_1_2_4_5&#45;&gt;n_2</title>
<path fill="none" stroke="black" d="M294.58,-243.13C296.59,-232.17 298.96,-219.18 301.04,-207.84"/>
<polygon fill="black" stroke="black" points="304.43,-208.73 302.79,-198.26 297.54,-207.47 304.43,-208.73"/>
</g>
<!-- n_4_5 -->
<g id="node5" class="node">
<title>n_4_5</title>
<polygon fill="none" stroke="black" points="36.5,-84.38 36.5,-109.62 106.75,-109.62 106.75,-84.38 36.5,-84.38"/>
<text text-anchor="start" x="43.5" y="-95.08" font-family="Times New Roman,serif" font-weight="bold" font-size="9.00">Secondary (G)</text>
<polygon fill="none" stroke="black" points="106.75,-84.38 106.75,-109.62 159.75,-109.62 159.75,-84.38 106.75,-84.38"/>
<text text-anchor="start" x="113.75" y="-95.08" font-family="Times New Roman,serif" font-weight="bold" font-size="9.00">Technical</text>
<polygon fill="none" stroke="black" points="35.5,-83.38 35.5,-110.62 160.75,-110.62 160.75,-83.38 35.5,-83.38"/>
</g>
<!-- n_1_4_5&#45;&gt;n_4_5 -->
<g id="edge4" class="edge">
<title>n_1_4_5&#45;&gt;n_4_5</title>
<path fill="none" stroke="black" d="M150.07,-158.22C141,-147.71 129.75,-134.66 120.04,-123.41"/>
<polygon fill="black" stroke="black" points="122.82,-121.28 113.64,-115.99 117.52,-125.85 122.82,-121.28"/>
</g>
<!-- n_1 -->
<g id="node8" class="node">
<title>n_1</title>
<polygon fill="none" stroke="black" points="206.5,-84.38 206.5,-109.62 267.75,-109.62 267.75,-84.38 206.5,-84.38"/>
<text text-anchor="start" x="213.5" y="-95.08" font-family="Times New Roman,serif" font-weight="bold" font-size="9.00">Primary (G)</text>
<polygon fill="none" stroke="black" points="205.5,-83.38 205.5,-110.62 268.75,-110.62 268.75,-83.38 205.5,-83.38"/>
</g>
<!-- n_1_4_5&#45;&gt;n_1 -->
<g id="edge7" class="edge">
<title>n_1_4_5&#45;&gt;n_1</title>
<path fill="none" stroke="black" d="M184.43,-158.22C193.63,-147.71 205.04,-134.66 214.89,-123.41"/>
<polygon fill="black" stroke="black" points="217.44,-125.81 221.39,-115.98 212.17,-121.2 217.44,-125.81"/>
</g>
<!-- n_4 -->
<g id="node6" class="node">
<title>n_4</title>
<polygon fill="none" stroke="black" points="9,-5.38 9,-30.62 79.25,-30.62 79.25,-5.38 9,-5.38"/>
<text text-anchor="start" x="16" y="-16.07" font-family="Times New Roman,serif" font-weight="bold" font-size="9.00">Secondary (G)</text>
<polygon fill="none" stroke="black" points="8,-4.38 8,-31.62 80.25,-31.62 80.25,-4.38 8,-4.38"/>
</g>
<!-- n_4_5&#45;&gt;n_4 -->
<g id="edge5" class="edge">
<title>n_4_5&#45;&gt;n_4</title>
<path fill="none" stroke="black" d="M86.41,-79.29C79.45,-69.37 70.47,-56.57 62.58,-45.32"/>
<polygon fill="black" stroke="black" points="65.48,-43.36 56.87,-37.18 59.75,-47.38 65.48,-43.36"/>
</g>
<!-- n_5 -->
<g id="node7" class="node">
<title>n_5</title>
<polygon fill="none" stroke="black" points="126.62,-5.38 126.62,-30.62 179.62,-30.62 179.62,-5.38 126.62,-5.38"/>
<text text-anchor="start" x="133.62" y="-16.07" font-family="Times New Roman,serif" font-weight="bold" font-size="9.00">Technical</text>
<polygon fill="none" stroke="black" points="125.62,-4.38 125.62,-31.62 180.62,-31.62 180.62,-4.38 125.62,-4.38"/>
</g>
<!-- n_4_5&#45;&gt;n_5 -->
<g id="edge6" class="edge">
<title>n_4_5&#45;&gt;n_5</title>
<path fill="none" stroke="black" d="M110.06,-79.29C117.22,-69.27 126.47,-56.31 134.57,-44.98"/>
<polygon fill="black" stroke="black" points="137.18,-47.34 140.14,-37.17 131.48,-43.28 137.18,-47.34"/>
</g>
<!-- n_3 -->
<g id="node11" class="node">
<title>n_3</title>
<polygon fill="none" stroke="black" points="410.75,-166.38 410.75,-191.62 479.5,-191.62 479.5,-166.38 410.75,-166.38"/>
<text text-anchor="start" x="417.75" y="-177.07" font-family="Times New Roman,serif" font-weight="bold" font-size="9.00">Secondary (P)</text>
<polygon fill="none" stroke="black" points="409.75,-165.38 409.75,-192.62 480.5,-192.62 480.5,-165.38 409.75,-165.38"/>
</g>
<!-- n_3_6&#45;&gt;n_3 -->
<g id="edge10" class="edge">
<title>n_3_6&#45;&gt;n_3</title>
<path fill="none" stroke="black" d="M457.23,-250.63C455.16,-238.52 452.31,-221.94 449.9,-207.88"/>
<polygon fill="black" stroke="black" points="453.4,-207.58 448.26,-198.31 446.5,-208.76 453.4,-207.58"/>
</g>
<!-- n_6 -->
<g id="node12" class="node">
<title>n_6</title>
<polygon fill="none" stroke="black" points="526.88,-166.38 526.88,-191.62 581.38,-191.62 581.38,-166.38 526.88,-166.38"/>
<text text-anchor="start" x="533.88" y="-177.07" font-family="Times New Roman,serif" font-weight="bold" font-size="9.00">University</text>
<polygon fill="none" stroke="black" points="525.88,-165.38 525.88,-192.62 582.38,-192.62 582.38,-165.38 525.88,-165.38"/>
</g>
<!-- n_3_6&#45;&gt;n_6 -->
<g id="edge11" class="edge">
<title>n_3_6&#45;&gt;n_6</title>
<path fill="none" stroke="black" d="M478.25,-250.63C492.29,-237.56 511.95,-219.25 527.74,-204.56"/>
<polygon fill="black" stroke="black" points="530.01,-207.23 534.95,-197.85 525.24,-202.1 530.01,-207.23"/>
</g>
</g>
</svg>
