<?xml version="1.0" encoding="UTF-8" standalone="no"?>
<!DOCTYPE svg PUBLIC "-//W3C//DTD SVG 1.1//EN"
 "http://www.w3.org/Graphics/SVG/1.1/DTD/svg11.dtd">
<!-- Generated by graphviz version 10.0.1 (20240210.2158)
 -->
<!-- Title: ND Pages: 1 -->
<svg width="582pt" height="526pt"
 viewBox="0.00 0.00 582.12 526.00" xmlns="http://www.w3.org/2000/svg" xmlns:xlink="http://www.w3.org/1999/xlink">
<g id="graph0" class="graph" transform="scale(1 1) rotate(0) translate(4 522)">
<title>ND</title>
<polygon fill="white" stroke="none" points="-4,4 -4,-522 578.12,-522 578.12,4 -4,4"/>
<!-- n_0_1_2_3_4_5_6 -->
<g id="node1" class="node">
<title>n_0_1_2_3_4_5_6</title>
<polygon fill="none" stroke="black" points="371.38,-445 371.38,-513 441.62,-513 441.62,-445 371.38,-445"/>
<text text-anchor="start" x="383.62" y="-498.45" font-family="Times New Roman,serif" font-weight="bold" font-size="9.00">Primary (P)</text>
<text text-anchor="start" x="382.88" y="-489.45" font-family="Times New Roman,serif" font-weight="bold" font-size="9.00">Primary (G)</text>
<text text-anchor="start" x="387.38" y="-480.45" font-family="Times New Roman,serif" font-weight="bold" font-size="9.00">Preschool</text>
<text text-anchor="start" x="378.38" y="-471.45" font-family="Times New Roman,serif" font-weight="bold" font-size="9.00">Secondary (G)</text>
<text text-anchor="start" x="387" y="-462.45" font-family="Times New Roman,serif" font-weight="bold" font-size="9.00">Technical</text>
<text text-anchor="start" x="386.25" y="-453.45" font-family="Times New Roman,serif" font-weight="bold" font-size="9.00">University</text>
<polygon fill="none" stroke="black" points="441.62,-445 441.62,-513 510.38,-513 510.38,-445 441.62,-445"/>
<text text-anchor="start" x="448.62" y="-477.07" font-family="Times New Roman,serif" font-weight="bold" font-size="9.00">Secondary (P)</text>
<polygon fill="none" stroke="black" points="370.38,-444 370.38,-514 511.38,-514 511.38,-444 370.38,-444"/>
</g>
<!-- n_0_1_2_4_5_6 -->
<g id="node2" class="node">
<title>n_0_1_2_4_5_6</title>
<polygon fill="none" stroke="black" points="306.5,-342 306.5,-392 376.75,-392 376.75,-342 306.5,-342"/>
<text text-anchor="start" x="318.75" y="-377.45" font-family="Times New Roman,serif" font-weight="bold" font-size="9.00">Primary (P)</text>
<text text-anchor="start" x="318" y="-368.45" font-family="Times New Roman,serif" font-weight="bold" font-size="9.00">Primary (G)</text>
<text text-anchor="start" x="322.5" y="-359.45" font-family="Times New Roman,serif" font-weight="bold" font-size="9.00">Preschool</text>
<text text-anchor="start" x="313.5" y="-350.45" font-family="Times New Roman,serif" font-weight="bold" font-size="9.00">Secondary (G)</text>
<polygon fill="none" stroke="black" points="376.75,-342 376.75,-392 431.25,-392 431.25,-342 376.75,-342"/>
<text text-anchor="start" x="384.5" y="-368.45" font-family="Times New Roman,serif" font-weight="bold" font-size="9.00">Technical</text>
<text text-anchor="start" x="383.75" y="-359.45" font-family="Times New Roman,serif" font-weight="bold" font-size="9.00">University</text>
<polygon fill="none" stroke="black" points="305.5,-341 305.5,-393 432.25,-393 432.25,-341 305.5,-341"/>
</g>
<!-- n_0_1_2_3_4_5_6&#45;&gt;n_0_1_2_4_5_6 -->
<g id="edge1" class="edge">
<title>n_0_1_2_3_4_5_6&#45;&gt;n_0_1_2_4_5_6</title>
<path fill="none" stroke="black" d="M416.1,-440.14C408.92,-429.19 401.09,-417.22 393.9,-406.23"/>
<polygon fill="black" stroke="black" points="397.02,-404.6 388.61,-398.15 391.16,-408.44 397.02,-404.6"/>
</g>
<!-- n_3 -->
<g id="node13" class="node">
<title>n_3</title>
<polygon fill="none" stroke="black" points="478.5,-354.38 478.5,-379.62 547.25,-379.62 547.25,-354.38 478.5,-354.38"/>
<text text-anchor="start" x="485.5" y="-365.07" font-family="Times New Roman,serif" font-weight="bold" font-size="9.00">Secondary (P)</text>
<polygon fill="none" stroke="black" points="477.5,-353.38 477.5,-380.62 548.25,-380.62 548.25,-353.38 477.5,-353.38"/>
</g>
<!-- n_0_1_2_3_4_5_6&#45;&gt;n_3 -->
<g id="edge12" class="edge">
<title>n_0_1_2_3_4_5_6&#45;&gt;n_3</title>
<path fill="none" stroke="black" d="M465.65,-440.14C475.54,-425.04 486.68,-408.02 495.65,-394.31"/>
<polygon fill="black" stroke="black" points="498.38,-396.53 500.93,-386.25 492.53,-392.7 498.38,-396.53"/>
</g>
<!-- n_0_1_2_4 -->
<g id="node3" class="node">
<title>n_0_1_2_4</title>
<polygon fill="none" stroke="black" points="220.12,-248 220.12,-289 290.38,-289 290.38,-248 220.12,-248"/>
<text text-anchor="start" x="232.38" y="-274.45" font-family="Times New Roman,serif" font-weight="bold" font-size="9.00">Primary (P)</text>
<text text-anchor="start" x="236.12" y="-265.45" font-family="Times New Roman,serif" font-weight="bold" font-size="9.00">Preschool</text>
<text text-anchor="start" x="227.12" y="-256.45" font-family="Times New Roman,serif" font-weight="bold" font-size="9.00">Secondary (G)</text>
<polygon fill="none" stroke="black" points="290.38,-248 290.38,-289 351.62,-289 351.62,-248 290.38,-248"/>
<text text-anchor="start" x="297.38" y="-266.57" font-family="Times New Roman,serif" font-weight="bold" font-size="9.00">Primary (G)</text>
<polygon fill="none" stroke="black" points="219.12,-247 219.12,-290 352.62,-290 352.62,-247 219.12,-247"/>
</g>
<!-- n_0_1_2_4_5_6&#45;&gt;n_0_1_2_4 -->
<g id="edge2" class="edge">
<title>n_0_1_2_4_5_6&#45;&gt;n_0_1_2_4</title>
<path fill="none" stroke="black" d="M343.97,-337.05C334.63,-326.18 323.94,-313.76 314.3,-302.55"/>
<polygon fill="black" stroke="black" points="317,-300.32 307.83,-295.02 311.69,-304.89 317,-300.32"/>
</g>
<!-- n_5_6 -->
<g id="node10" class="node">
<title>n_5_6</title>
<polygon fill="none" stroke="black" points="399.12,-255.88 399.12,-281.12 452.12,-281.12 452.12,-255.88 399.12,-255.88"/>
<text text-anchor="start" x="406.12" y="-266.57" font-family="Times New Roman,serif" font-weight="bold" font-size="9.00">Technical</text>
<polygon fill="none" stroke="black" points="452.12,-255.88 452.12,-281.12 506.62,-281.12 506.62,-255.88 452.12,-255.88"/>
<text text-anchor="start" x="459.12" y="-266.57" font-family="Times New Roman,serif" font-weight="bold" font-size="9.00">University</text>
<polygon fill="none" stroke="black" points="398.12,-254.88 398.12,-282.12 507.62,-282.12 507.62,-254.88 398.12,-254.88"/>
</g>
<!-- n_0_1_2_4_5_6&#45;&gt;n_5_6 -->
<g id="edge9" class="edge">
<title>n_0_1_2_4_5_6&#45;&gt;n_5_6</title>
<path fill="none" stroke="black" d="M394.08,-337.05C405.78,-323.6 419.56,-307.77 430.84,-294.81"/>
<polygon fill="black" stroke="black" points="433.27,-297.35 437.2,-287.51 427.99,-292.75 433.27,-297.35"/>
</g>
<!-- n_0_2_4 -->
<g id="node4" class="node">
<title>n_0_2_4</title>
<polygon fill="none" stroke="black" points="93.88,-163 93.88,-195 153.62,-195 153.62,-163 93.88,-163"/>
<text text-anchor="start" x="100.88" y="-180.45" font-family="Times New Roman,serif" font-weight="bold" font-size="9.00">Primary (P)</text>
<text text-anchor="start" x="104.62" y="-171.45" font-family="Times New Roman,serif" font-weight="bold" font-size="9.00">Preschool</text>
<polygon fill="none" stroke="black" points="153.62,-163 153.62,-195 223.88,-195 223.88,-163 153.62,-163"/>
<text text-anchor="start" x="160.62" y="-177.07" font-family="Times New Roman,serif" font-weight="bold" font-size="9.00">Secondary (G)</text>
<polygon fill="none" stroke="black" points="92.88,-162 92.88,-196 224.88,-196 224.88,-162 92.88,-162"/>
</g>
<!-- n_0_1_2_4&#45;&gt;n_0_2_4 -->
<g id="edge3" class="edge">
<title>n_0_1_2_4&#45;&gt;n_0_2_4</title>
<path fill="none" stroke="black" d="M250.5,-243.13C233.78,-231.61 213.8,-217.84 196.77,-206.11"/>
<polygon fill="black" stroke="black" points="199.12,-203.48 188.9,-200.68 195.15,-209.24 199.12,-203.48"/>
</g>
<!-- n_1 -->
<g id="node9" class="node">
<title>n_1</title>
<polygon fill="none" stroke="black" points="271.25,-166.38 271.25,-191.62 332.5,-191.62 332.5,-166.38 271.25,-166.38"/>
<text text-anchor="start" x="278.25" y="-177.07" font-family="Times New Roman,serif" font-weight="bold" font-size="9.00">Primary (G)</text>
<polygon fill="none" stroke="black" points="270.25,-165.38 270.25,-192.62 333.5,-192.62 333.5,-165.38 270.25,-165.38"/>
</g>
<!-- n_0_1_2_4&#45;&gt;n_1 -->
<g id="edge8" class="edge">
<title>n_0_1_2_4&#45;&gt;n_1</title>
<path fill="none" stroke="black" d="M290.33,-243.13C292.34,-232.17 294.71,-219.18 296.79,-207.84"/>
<polygon fill="black" stroke="black" points="300.18,-208.73 298.54,-198.26 293.29,-207.47 300.18,-208.73"/>
</g>
<!-- n_0_2 -->
<g id="node5" class="node">
<title>n_0_2</title>
<polygon fill="none" stroke="black" points="33.88,-84.38 33.88,-109.62 93.62,-109.62 93.62,-84.38 33.88,-84.38"/>
<text text-anchor="start" x="40.88" y="-95.08" font-family="Times New Roman,serif" font-weight="bold" font-size="9.00">Primary (P)</text>
<polygon fill="none" stroke="black" points="93.62,-84.38 93.62,-109.62 145.88,-109.62 145.88,-84.38 93.62,-84.38"/>
<text text-anchor="start" x="100.62" y="-95.08" font-family="Times New Roman,serif" font-weight="bold" font-size="9.00">Preschool</text>
<polygon fill="none" stroke="black" points="32.88,-83.38 32.88,-110.62 146.88,-110.62 146.88,-83.38 32.88,-83.38"/>
</g>
<!-- n_0_2_4&#45;&gt;n_0_2 -->
<g id="edge4" class="edge">
<title>n_0_2_4&#45;&gt;n_0_2</title>
<path fill="none" stroke="black" d="M141.82,-158.22C132.75,-147.71 121.5,-134.66 111.79,-123.41"/>
<polygon fill="black" stroke="black" points="114.57,-121.28 105.39,-115.99 109.27,-125.85 114.57,-121.28"/>
</g>
<!-- n_4 -->
<g id="node8" class="node">
<title>n_4</title>
<polygon fill="none" stroke="black" points="192.75,-84.38 192.75,-109.62 263,-109.62 263,-84.38 192.75,-84.38"/>
<text text-anchor="start" x="199.75" y="-95.08" font-family="Times New Roman,serif" font-weight="bold" font-size="9.00">Secondary (G)</text>
<polygon fill="none" stroke="black" points="191.75,-83.38 191.75,-110.62 264,-110.62 264,-83.38 191.75,-83.38"/>
</g>
<!-- n_0_2_4&#45;&gt;n_4 -->
<g id="edge7" class="edge">
<title>n_0_2_4&#45;&gt;n_4</title>
<path fill="none" stroke="black" d="M175.93,-158.22C185,-147.71 196.25,-134.66 205.96,-123.41"/>
<polygon fill="black" stroke="black" points="208.48,-125.85 212.36,-115.99 203.18,-121.28 208.48,-125.85"/>
</g>
<!-- n_0 -->
<g id="node6" class="node">
<title>n_0</title>
<polygon fill="none" stroke="black" points="9,-5.38 9,-30.62 68.75,-30.62 68.75,-5.38 9,-5.38"/>
<text text-anchor="start" x="16" y="-16.07" font-family="Times New Roman,serif" font-weight="bold" font-size="9.00">Primary (P)</text>
<polygon fill="none" stroke="black" points="8,-4.38 8,-31.62 69.75,-31.62 69.75,-4.38 8,-4.38"/>
</g>
<!-- n_0_2&#45;&gt;n_0 -->
<g id="edge5" class="edge">
<title>n_0_2&#45;&gt;n_0</title>
<path fill="none" stroke="black" d="M78.81,-79.29C72.24,-69.37 63.76,-56.57 56.31,-45.32"/>
<polygon fill="black" stroke="black" points="59.37,-43.61 50.93,-37.2 53.54,-47.47 59.37,-43.61"/>
</g>
<!-- n_2 -->
<g id="node7" class="node">
<title>n_2</title>
<polygon fill="none" stroke="black" points="115.75,-5.38 115.75,-30.62 168,-30.62 168,-5.38 115.75,-5.38"/>
<text text-anchor="start" x="122.75" y="-16.07" font-family="Times New Roman,serif" font-weight="bold" font-size="9.00">Preschool</text>
<polygon fill="none" stroke="black" points="114.75,-4.38 114.75,-31.62 169,-31.62 169,-4.38 114.75,-4.38"/>
</g>
<!-- n_0_2&#45;&gt;n_2 -->
<g id="edge6" class="edge">
<title>n_0_2&#45;&gt;n_2</title>
<path fill="none" stroke="black" d="M101.16,-79.29C107.86,-69.37 116.5,-56.57 124.1,-45.32"/>
<polygon fill="black" stroke="black" points="126.89,-47.44 129.59,-37.2 121.09,-43.52 126.89,-47.44"/>
</g>
<!-- n_5 -->
<g id="node11" class="node">
<title>n_5</title>
<polygon fill="none" stroke="black" points="410.38,-166.38 410.38,-191.62 463.38,-191.62 463.38,-166.38 410.38,-166.38"/>
<text text-anchor="start" x="417.38" y="-177.07" font-family="Times New Roman,serif" font-weight="bold" font-size="9.00">Technical</text>
<polygon fill="none" stroke="black" points="409.38,-165.38 409.38,-192.62 464.38,-192.62 464.38,-165.38 409.38,-165.38"/>
</g>
<!-- n_5_6&#45;&gt;n_5 -->
<g id="edge10" class="edge">
<title>n_5_6&#45;&gt;n_5</title>
<path fill="none" stroke="black" d="M449.79,-250.63C447.58,-238.52 444.54,-221.94 441.97,-207.88"/>
<polygon fill="black" stroke="black" points="445.46,-207.52 440.22,-198.31 438.58,-208.77 445.46,-207.52"/>
</g>
<!-- n_6 -->
<g id="node12" class="node">
<title>n_6</title>
<polygon fill="none" stroke="black" points="510.62,-166.38 510.62,-191.62 565.12,-191.62 565.12,-166.38 510.62,-166.38"/>
<text text-anchor="start" x="517.62" y="-177.07" font-family="Times New Roman,serif" font-weight="bold" font-size="9.00">University</text>
<polygon fill="none" stroke="black" points="509.62,-165.38 509.62,-192.62 566.12,-192.62 566.12,-165.38 509.62,-165.38"/>
</g>
<!-- n_5_6&#45;&gt;n_6 -->
<g id="edge11" class="edge">
<title>n_5_6&#45;&gt;n_6</title>
<path fill="none" stroke="black" d="M469.26,-250.63C481.85,-237.68 499.41,-219.59 513.62,-204.97"/>
<polygon fill="black" stroke="black" points="516.02,-207.52 520.48,-197.9 511,-202.64 516.02,-207.52"/>
</g>
</g>
</svg>
