<?xml version="1.0" encoding="UTF-8" standalone="no"?>
<!DOCTYPE svg PUBLIC "-//W3C//DTD SVG 1.1//EN"
 "http://www.w3.org/Graphics/SVG/1.1/DTD/svg11.dtd">
<!-- Generated by graphviz version 10.0.1 (20240210.2158)
 -->
<!-- Title: ND Pages: 1 -->
<svg width="598pt" height="432pt"
 viewBox="0.00 0.00 598.12 432.00" xmlns="http://www.w3.org/2000/svg" xmlns:xlink="http://www.w3.org/1999/xlink">
<g id="graph0" class="graph" transform="scale(1 1) rotate(0) translate(4 428)">
<title>ND</title>
<polygon fill="white" stroke="none" points="-4,4 -4,-428 594.12,-428 594.12,4 -4,4"/>
<!-- n_0_1_2_3_4_5_6 -->
<g id="node1" class="node">
<title>n_0_1_2_3_4_5_6</title>
<polygon fill="none" stroke="black" points="382.38,-351 382.38,-419 452.62,-419 452.62,-351 382.38,-351"/>
<text text-anchor="start" x="394.62" y="-404.45" font-family="Times New Roman,serif" font-weight="bold" font-size="9.00">Primary (P)</text>
<text text-anchor="start" x="393.88" y="-395.45" font-family="Times New Roman,serif" font-weight="bold" font-size="9.00">Primary (G)</text>
<text text-anchor="start" x="398.38" y="-386.45" font-family="Times New Roman,serif" font-weight="bold" font-size="9.00">Preschool</text>
<text text-anchor="start" x="389.38" y="-377.45" font-family="Times New Roman,serif" font-weight="bold" font-size="9.00">Secondary (G)</text>
<text text-anchor="start" x="398" y="-368.45" font-family="Times New Roman,serif" font-weight="bold" font-size="9.00">Technical</text>
<text text-anchor="start" x="397.25" y="-359.45" font-family="Times New Roman,serif" font-weight="bold" font-size="9.00">University</text>
<polygon fill="none" stroke="black" points="452.62,-351 452.62,-419 521.38,-419 521.38,-351 452.62,-351"/>
<text text-anchor="start" x="459.62" y="-383.07" font-family="Times New Roman,serif" font-weight="bold" font-size="9.00">Secondary (P)</text>
<polygon fill="none" stroke="black" points="381.38,-350 381.38,-420 522.38,-420 522.38,-350 381.38,-350"/>
</g>
<!-- n_0_1_2_4_5_6 -->
<g id="node2" class="node">
<title>n_0_1_2_4_5_6</title>
<polygon fill="none" stroke="black" points="317.5,-248 317.5,-298 387.75,-298 387.75,-248 317.5,-248"/>
<text text-anchor="start" x="329.75" y="-283.45" font-family="Times New Roman,serif" font-weight="bold" font-size="9.00">Primary (P)</text>
<text text-anchor="start" x="329" y="-274.45" font-family="Times New Roman,serif" font-weight="bold" font-size="9.00">Primary (G)</text>
<text text-anchor="start" x="324.5" y="-265.45" font-family="Times New Roman,serif" font-weight="bold" font-size="9.00">Secondary (G)</text>
<text text-anchor="start" x="333.12" y="-256.45" font-family="Times New Roman,serif" font-weight="bold" font-size="9.00">Technical</text>
<polygon fill="none" stroke="black" points="387.75,-248 387.75,-298 442.25,-298 442.25,-248 387.75,-248"/>
<text text-anchor="start" x="395.88" y="-274.45" font-family="Times New Roman,serif" font-weight="bold" font-size="9.00">Preschool</text>
<text text-anchor="start" x="394.75" y="-265.45" font-family="Times New Roman,serif" font-weight="bold" font-size="9.00">University</text>
<polygon fill="none" stroke="black" points="316.5,-247 316.5,-299 443.25,-299 443.25,-247 316.5,-247"/>
</g>
<!-- n_0_1_2_3_4_5_6&#45;&gt;n_0_1_2_4_5_6 -->
<g id="edge1" class="edge">
<title>n_0_1_2_3_4_5_6&#45;&gt;n_0_1_2_4_5_6</title>
<path fill="none" stroke="black" d="M427.1,-346.14C419.92,-335.19 412.09,-323.22 404.9,-312.23"/>
<polygon fill="black" stroke="black" points="408.02,-310.6 399.61,-304.15 402.16,-314.44 408.02,-310.6"/>
</g>
<!-- n_3 -->
<g id="node13" class="node">
<title>n_3</title>
<polygon fill="none" stroke="black" points="489.5,-260.38 489.5,-285.62 558.25,-285.62 558.25,-260.38 489.5,-260.38"/>
<text text-anchor="start" x="496.5" y="-271.07" font-family="Times New Roman,serif" font-weight="bold" font-size="9.00">Secondary (P)</text>
<polygon fill="none" stroke="black" points="488.5,-259.38 488.5,-286.62 559.25,-286.62 559.25,-259.38 488.5,-259.38"/>
</g>
<!-- n_0_1_2_3_4_5_6&#45;&gt;n_3 -->
<g id="edge12" class="edge">
<title>n_0_1_2_3_4_5_6&#45;&gt;n_3</title>
<path fill="none" stroke="black" d="M476.65,-346.14C486.54,-331.04 497.68,-314.02 506.65,-300.31"/>
<polygon fill="black" stroke="black" points="509.38,-302.53 511.93,-292.25 503.53,-298.7 509.38,-302.53"/>
</g>
<!-- n_0_1_4_5 -->
<g id="node3" class="node">
<title>n_0_1_4_5</title>
<polygon fill="none" stroke="black" points="231.12,-163 231.12,-195 301.38,-195 301.38,-163 231.12,-163"/>
<text text-anchor="start" x="243.38" y="-180.45" font-family="Times New Roman,serif" font-weight="bold" font-size="9.00">Primary (P)</text>
<text text-anchor="start" x="238.12" y="-171.45" font-family="Times New Roman,serif" font-weight="bold" font-size="9.00">Secondary (G)</text>
<polygon fill="none" stroke="black" points="301.38,-163 301.38,-195 362.62,-195 362.62,-163 301.38,-163"/>
<text text-anchor="start" x="308.38" y="-180.45" font-family="Times New Roman,serif" font-weight="bold" font-size="9.00">Primary (G)</text>
<text text-anchor="start" x="312.5" y="-171.45" font-family="Times New Roman,serif" font-weight="bold" font-size="9.00">Technical</text>
<polygon fill="none" stroke="black" points="230.12,-162 230.12,-196 363.62,-196 363.62,-162 230.12,-162"/>
</g>
<!-- n_0_1_2_4_5_6&#45;&gt;n_0_1_4_5 -->
<g id="edge2" class="edge">
<title>n_0_1_2_4_5_6&#45;&gt;n_0_1_4_5</title>
<path fill="none" stroke="black" d="M353.84,-243.14C343.79,-232 332.32,-219.29 322.32,-208.21"/>
<polygon fill="black" stroke="black" points="324.99,-205.94 315.69,-200.85 319.79,-210.62 324.99,-205.94"/>
</g>
<!-- n_2_6 -->
<g id="node10" class="node">
<title>n_2_6</title>
<polygon fill="none" stroke="black" points="409.5,-166.38 409.5,-191.62 461.75,-191.62 461.75,-166.38 409.5,-166.38"/>
<text text-anchor="start" x="416.5" y="-177.07" font-family="Times New Roman,serif" font-weight="bold" font-size="9.00">Preschool</text>
<polygon fill="none" stroke="black" points="461.75,-166.38 461.75,-191.62 516.25,-191.62 516.25,-166.38 461.75,-166.38"/>
<text text-anchor="start" x="468.75" y="-177.07" font-family="Times New Roman,serif" font-weight="bold" font-size="9.00">University</text>
<polygon fill="none" stroke="black" points="408.5,-165.38 408.5,-192.62 517.25,-192.62 517.25,-165.38 408.5,-165.38"/>
</g>
<!-- n_0_1_2_4_5_6&#45;&gt;n_2_6 -->
<g id="edge9" class="edge">
<title>n_0_1_2_4_5_6&#45;&gt;n_2_6</title>
<path fill="none" stroke="black" d="M405.91,-243.14C416.82,-231.05 429.39,-217.11 439.95,-205.41"/>
<polygon fill="black" stroke="black" points="442.45,-207.86 446.55,-198.09 437.26,-203.17 442.45,-207.86"/>
</g>
<!-- n_0_4 -->
<g id="node4" class="node">
<title>n_0_4</title>
<polygon fill="none" stroke="black" points="71.88,-84.38 71.88,-109.62 131.62,-109.62 131.62,-84.38 71.88,-84.38"/>
<text text-anchor="start" x="78.88" y="-95.08" font-family="Times New Roman,serif" font-weight="bold" font-size="9.00">Primary (P)</text>
<polygon fill="none" stroke="black" points="131.62,-84.38 131.62,-109.62 201.88,-109.62 201.88,-84.38 131.62,-84.38"/>
<text text-anchor="start" x="138.62" y="-95.08" font-family="Times New Roman,serif" font-weight="bold" font-size="9.00">Secondary (G)</text>
<polygon fill="none" stroke="black" points="70.88,-83.38 70.88,-110.62 202.88,-110.62 202.88,-83.38 70.88,-83.38"/>
</g>
<!-- n_0_1_4_5&#45;&gt;n_0_4 -->
<g id="edge3" class="edge">
<title>n_0_1_4_5&#45;&gt;n_0_4</title>
<path fill="none" stroke="black" d="M256.91,-158.02C233.77,-146.45 204.61,-131.87 180.82,-119.97"/>
<polygon fill="black" stroke="black" points="182.52,-116.91 172.01,-115.57 179.39,-123.17 182.52,-116.91"/>
</g>
<!-- n_1_5 -->
<g id="node7" class="node">
<title>n_1_5</title>
<polygon fill="none" stroke="black" points="248.75,-84.38 248.75,-109.62 310,-109.62 310,-84.38 248.75,-84.38"/>
<text text-anchor="start" x="255.75" y="-95.08" font-family="Times New Roman,serif" font-weight="bold" font-size="9.00">Primary (G)</text>
<polygon fill="none" stroke="black" points="310,-84.38 310,-109.62 363,-109.62 363,-84.38 310,-84.38"/>
<text text-anchor="start" x="317" y="-95.08" font-family="Times New Roman,serif" font-weight="bold" font-size="9.00">Technical</text>
<polygon fill="none" stroke="black" points="247.75,-83.38 247.75,-110.62 364,-110.62 364,-83.38 247.75,-83.38"/>
</g>
<!-- n_0_1_4_5&#45;&gt;n_1_5 -->
<g id="edge6" class="edge">
<title>n_0_1_4_5&#45;&gt;n_1_5</title>
<path fill="none" stroke="black" d="M299.1,-158.22C300.19,-148.54 301.52,-136.72 302.71,-126.11"/>
<polygon fill="black" stroke="black" points="306.17,-126.68 303.81,-116.35 299.21,-125.89 306.17,-126.68"/>
</g>
<!-- n_0 -->
<g id="node5" class="node">
<title>n_0</title>
<polygon fill="none" stroke="black" points="9,-5.38 9,-30.62 68.75,-30.62 68.75,-5.38 9,-5.38"/>
<text text-anchor="start" x="16" y="-16.07" font-family="Times New Roman,serif" font-weight="bold" font-size="9.00">Primary (P)</text>
<polygon fill="none" stroke="black" points="8,-4.38 8,-31.62 69.75,-31.62 69.75,-4.38 8,-4.38"/>
</g>
<!-- n_0_4&#45;&gt;n_0 -->
<g id="edge4" class="edge">
<title>n_0_4&#45;&gt;n_0</title>
<path fill="none" stroke="black" d="M115.61,-79.29C102.09,-68.67 84.37,-54.75 69.37,-42.96"/>
<polygon fill="black" stroke="black" points="71.65,-40.3 61.63,-36.88 67.33,-45.81 71.65,-40.3"/>
</g>
<!-- n_4 -->
<g id="node6" class="node">
<title>n_4</title>
<polygon fill="none" stroke="black" points="115.75,-5.38 115.75,-30.62 186,-30.62 186,-5.38 115.75,-5.38"/>
<text text-anchor="start" x="122.75" y="-16.07" font-family="Times New Roman,serif" font-weight="bold" font-size="9.00">Secondary (G)</text>
<polygon fill="none" stroke="black" points="114.75,-4.38 114.75,-31.62 187,-31.62 187,-4.38 114.75,-4.38"/>
</g>
<!-- n_0_4&#45;&gt;n_4 -->
<g id="edge5" class="edge">
<title>n_0_4&#45;&gt;n_4</title>
<path fill="none" stroke="black" d="M139.91,-79.29C141.63,-69.87 143.81,-57.86 145.78,-47.04"/>
<polygon fill="black" stroke="black" points="149.18,-47.9 147.52,-37.43 142.29,-46.64 149.18,-47.9"/>
</g>
<!-- n_1 -->
<g id="node8" class="node">
<title>n_1</title>
<polygon fill="none" stroke="black" points="261.25,-5.38 261.25,-30.62 322.5,-30.62 322.5,-5.38 261.25,-5.38"/>
<text text-anchor="start" x="268.25" y="-16.07" font-family="Times New Roman,serif" font-weight="bold" font-size="9.00">Primary (G)</text>
<polygon fill="none" stroke="black" points="260.25,-4.38 260.25,-31.62 323.5,-31.62 323.5,-4.38 260.25,-4.38"/>
</g>
<!-- n_1_5&#45;&gt;n_1 -->
<g id="edge7" class="edge">
<title>n_1_5&#45;&gt;n_1</title>
<path fill="none" stroke="black" d="M302.84,-79.29C301.12,-69.87 298.94,-57.86 296.97,-47.04"/>
<polygon fill="black" stroke="black" points="300.46,-46.64 295.23,-37.43 293.57,-47.9 300.46,-46.64"/>
</g>
<!-- n_5 -->
<g id="node9" class="node">
<title>n_5</title>
<polygon fill="none" stroke="black" points="369.38,-5.38 369.38,-30.62 422.38,-30.62 422.38,-5.38 369.38,-5.38"/>
<text text-anchor="start" x="376.38" y="-16.07" font-family="Times New Roman,serif" font-weight="bold" font-size="9.00">Technical</text>
<polygon fill="none" stroke="black" points="368.38,-4.38 368.38,-31.62 423.38,-31.62 423.38,-4.38 368.38,-4.38"/>
</g>
<!-- n_1_5&#45;&gt;n_5 -->
<g id="edge8" class="edge">
<title>n_1_5&#45;&gt;n_5</title>
<path fill="none" stroke="black" d="M325.4,-79.29C337.7,-68.77 353.79,-55.01 367.48,-43.29"/>
<polygon fill="black" stroke="black" points="369.6,-46.09 374.92,-36.93 365.05,-40.77 369.6,-46.09"/>
</g>
<!-- n_2 -->
<g id="node11" class="node">
<title>n_2</title>
<polygon fill="none" stroke="black" points="427.75,-84.38 427.75,-109.62 480,-109.62 480,-84.38 427.75,-84.38"/>
<text text-anchor="start" x="434.75" y="-95.08" font-family="Times New Roman,serif" font-weight="bold" font-size="9.00">Preschool</text>
<polygon fill="none" stroke="black" points="426.75,-83.38 426.75,-110.62 481,-110.62 481,-83.38 426.75,-83.38"/>
</g>
<!-- n_2_6&#45;&gt;n_2 -->
<g id="edge10" class="edge">
<title>n_2_6&#45;&gt;n_2</title>
<path fill="none" stroke="black" d="M460.97,-161.03C459.83,-150.96 458.37,-137.92 457.06,-126.32"/>
<polygon fill="black" stroke="black" points="460.55,-125.99 455.95,-116.45 453.59,-126.77 460.55,-125.99"/>
</g>
<!-- n_6 -->
<g id="node12" class="node">
<title>n_6</title>
<polygon fill="none" stroke="black" points="526.62,-84.38 526.62,-109.62 581.12,-109.62 581.12,-84.38 526.62,-84.38"/>
<text text-anchor="start" x="533.62" y="-95.08" font-family="Times New Roman,serif" font-weight="bold" font-size="9.00">University</text>
<polygon fill="none" stroke="black" points="525.62,-83.38 525.62,-110.62 582.12,-110.62 582.12,-83.38 525.62,-83.38"/>
</g>
<!-- n_2_6&#45;&gt;n_6 -->
<g id="edge11" class="edge">
<title>n_2_6&#45;&gt;n_6</title>
<path fill="none" stroke="black" d="M482.17,-161.03C494.96,-149.79 511.94,-134.87 526.17,-122.36"/>
<polygon fill="black" stroke="black" points="528.27,-125.17 533.47,-115.94 523.65,-119.91 528.27,-125.17"/>
</g>
</g>
</svg>
