<?xml version="1.0" encoding="UTF-8" standalone="no"?>
<!DOCTYPE svg PUBLIC "-//W3C//DTD SVG 1.1//EN"
 "http://www.w3.org/Graphics/SVG/1.1/DTD/svg11.dtd">
<!-- Generated by graphviz version 10.0.1 (20240210.2158)
 -->
<!-- Title: ND Pages: 1 -->
<svg width="604pt" height="526pt"
 viewBox="0.00 0.00 604.38 526.00" xmlns="http://www.w3.org/2000/svg" xmlns:xlink="http://www.w3.org/1999/xlink">
<g id="graph0" class="graph" transform="scale(1 1) rotate(0) translate(4 522)">
<title>ND</title>
<polygon fill="white" stroke="none" points="-4,4 -4,-522 600.38,-522 600.38,4 -4,4"/>
<!-- n_0_1_2_3_4_5_6 -->
<g id="node1" class="node">
<title>n_0_1_2_3_4_5_6</title>
<polygon fill="none" stroke="black" points="392.88,-445 392.88,-513 463.12,-513 463.12,-445 392.88,-445"/>
<text text-anchor="start" x="405.12" y="-498.45" font-family="Times New Roman,serif" font-weight="bold" font-size="9.00">Primary (P)</text>
<text text-anchor="start" x="404.38" y="-489.45" font-family="Times New Roman,serif" font-weight="bold" font-size="9.00">Primary (G)</text>
<text text-anchor="start" x="400.62" y="-480.45" font-family="Times New Roman,serif" font-weight="bold" font-size="9.00">Secondary (P)</text>
<text text-anchor="start" x="399.88" y="-471.45" font-family="Times New Roman,serif" font-weight="bold" font-size="9.00">Secondary (G)</text>
<text text-anchor="start" x="408.5" y="-462.45" font-family="Times New Roman,serif" font-weight="bold" font-size="9.00">Technical</text>
<text text-anchor="start" x="407.75" y="-453.45" font-family="Times New Roman,serif" font-weight="bold" font-size="9.00">University</text>
<polygon fill="none" stroke="black" points="463.12,-445 463.12,-513 515.38,-513 515.38,-445 463.12,-445"/>
<text text-anchor="start" x="470.12" y="-477.07" font-family="Times New Roman,serif" font-weight="bold" font-size="9.00">Preschool</text>
<polygon fill="none" stroke="black" points="391.88,-444 391.88,-514 516.38,-514 516.38,-444 391.88,-444"/>
</g>
<!-- n_0_1_3_4_5_6 -->
<g id="node2" class="node">
<title>n_0_1_3_4_5_6</title>
<polygon fill="none" stroke="black" points="320.12,-342 320.12,-392 390.38,-392 390.38,-342 320.12,-342"/>
<text text-anchor="start" x="331.62" y="-377.45" font-family="Times New Roman,serif" font-weight="bold" font-size="9.00">Primary (G)</text>
<text text-anchor="start" x="327.88" y="-368.45" font-family="Times New Roman,serif" font-weight="bold" font-size="9.00">Secondary (P)</text>
<text text-anchor="start" x="327.12" y="-359.45" font-family="Times New Roman,serif" font-weight="bold" font-size="9.00">Secondary (G)</text>
<text text-anchor="start" x="335.75" y="-350.45" font-family="Times New Roman,serif" font-weight="bold" font-size="9.00">Technical</text>
<polygon fill="none" stroke="black" points="390.38,-342 390.38,-392 450.12,-392 450.12,-342 390.38,-342"/>
<text text-anchor="start" x="397.38" y="-368.45" font-family="Times New Roman,serif" font-weight="bold" font-size="9.00">Primary (P)</text>
<text text-anchor="start" x="400" y="-359.45" font-family="Times New Roman,serif" font-weight="bold" font-size="9.00">University</text>
<polygon fill="none" stroke="black" points="319.12,-341 319.12,-393 451.12,-393 451.12,-341 319.12,-341"/>
</g>
<!-- n_0_1_2_3_4_5_6&#45;&gt;n_0_1_3_4_5_6 -->
<g id="edge1" class="edge">
<title>n_0_1_2_3_4_5_6&#45;&gt;n_0_1_3_4_5_6</title>
<path fill="none" stroke="black" d="M430.38,-440.14C423.57,-429.3 416.15,-417.46 409.32,-406.57"/>
<polygon fill="black" stroke="black" points="412.33,-404.78 404.05,-398.17 406.4,-408.5 412.33,-404.78"/>
</g>
<!-- n_2 -->
<g id="node13" class="node">
<title>n_2</title>
<polygon fill="none" stroke="black" points="497,-354.38 497,-379.62 549.25,-379.62 549.25,-354.38 497,-354.38"/>
<text text-anchor="start" x="504" y="-365.07" font-family="Times New Roman,serif" font-weight="bold" font-size="9.00">Preschool</text>
<polygon fill="none" stroke="black" points="496,-353.38 496,-380.62 550.25,-380.62 550.25,-353.38 496,-353.38"/>
</g>
<!-- n_0_1_2_3_4_5_6&#45;&gt;n_2 -->
<g id="edge12" class="edge">
<title>n_0_1_2_3_4_5_6&#45;&gt;n_2</title>
<path fill="none" stroke="black" d="M477.87,-440.14C487.25,-425.19 497.81,-408.35 506.37,-394.71"/>
<polygon fill="black" stroke="black" points="509.32,-396.6 511.67,-386.26 503.39,-392.88 509.32,-396.6"/>
</g>
<!-- n_1_3_4_5 -->
<g id="node3" class="node">
<title>n_1_3_4_5</title>
<polygon fill="none" stroke="black" points="228.62,-248 228.62,-289 298.88,-289 298.88,-248 228.62,-248"/>
<text text-anchor="start" x="240.12" y="-274.45" font-family="Times New Roman,serif" font-weight="bold" font-size="9.00">Primary (G)</text>
<text text-anchor="start" x="235.62" y="-265.45" font-family="Times New Roman,serif" font-weight="bold" font-size="9.00">Secondary (G)</text>
<text text-anchor="start" x="244.25" y="-256.45" font-family="Times New Roman,serif" font-weight="bold" font-size="9.00">Technical</text>
<polygon fill="none" stroke="black" points="298.88,-248 298.88,-289 367.62,-289 367.62,-248 298.88,-248"/>
<text text-anchor="start" x="305.88" y="-266.57" font-family="Times New Roman,serif" font-weight="bold" font-size="9.00">Secondary (P)</text>
<polygon fill="none" stroke="black" points="227.62,-247 227.62,-290 368.62,-290 368.62,-247 227.62,-247"/>
</g>
<!-- n_0_1_3_4_5_6&#45;&gt;n_1_3_4_5 -->
<g id="edge2" class="edge">
<title>n_0_1_3_4_5_6&#45;&gt;n_1_3_4_5</title>
<path fill="none" stroke="black" d="M359.02,-337.05C349.13,-326.08 337.8,-313.51 327.62,-302.22"/>
<polygon fill="black" stroke="black" points="330.41,-300.08 321.11,-295 325.21,-304.77 330.41,-300.08"/>
</g>
<!-- n_0_6 -->
<g id="node10" class="node">
<title>n_0_6</title>
<polygon fill="none" stroke="black" points="415,-255.88 415,-281.12 474.75,-281.12 474.75,-255.88 415,-255.88"/>
<text text-anchor="start" x="422" y="-266.57" font-family="Times New Roman,serif" font-weight="bold" font-size="9.00">Primary (P)</text>
<polygon fill="none" stroke="black" points="474.75,-255.88 474.75,-281.12 529.25,-281.12 529.25,-255.88 474.75,-255.88"/>
<text text-anchor="start" x="481.75" y="-266.57" font-family="Times New Roman,serif" font-weight="bold" font-size="9.00">University</text>
<polygon fill="none" stroke="black" points="414,-254.88 414,-282.12 530.25,-282.12 530.25,-254.88 414,-254.88"/>
</g>
<!-- n_0_1_3_4_5_6&#45;&gt;n_0_6 -->
<g id="edge9" class="edge">
<title>n_0_1_3_4_5_6&#45;&gt;n_0_6</title>
<path fill="none" stroke="black" d="M411.23,-337.05C423.35,-323.6 437.62,-307.77 449.3,-294.81"/>
<polygon fill="black" stroke="black" points="451.81,-297.26 455.91,-287.49 446.61,-292.57 451.81,-297.26"/>
</g>
<!-- n_1_4_5 -->
<g id="node4" class="node">
<title>n_1_4_5</title>
<polygon fill="none" stroke="black" points="101.38,-163 101.38,-195 171.62,-195 171.62,-163 101.38,-163"/>
<text text-anchor="start" x="108.38" y="-180.45" font-family="Times New Roman,serif" font-weight="bold" font-size="9.00">Secondary (G)</text>
<text text-anchor="start" x="117" y="-171.45" font-family="Times New Roman,serif" font-weight="bold" font-size="9.00">Technical</text>
<polygon fill="none" stroke="black" points="171.62,-163 171.62,-195 232.88,-195 232.88,-163 171.62,-163"/>
<text text-anchor="start" x="178.62" y="-177.07" font-family="Times New Roman,serif" font-weight="bold" font-size="9.00">Primary (G)</text>
<polygon fill="none" stroke="black" points="100.38,-162 100.38,-196 233.88,-196 233.88,-162 100.38,-162"/>
</g>
<!-- n_1_3_4_5&#45;&gt;n_1_4_5 -->
<g id="edge3" class="edge">
<title>n_1_3_4_5&#45;&gt;n_1_4_5</title>
<path fill="none" stroke="black" d="M261.63,-243.13C244.39,-231.61 223.78,-217.84 206.21,-206.11"/>
<polygon fill="black" stroke="black" points="208.33,-203.31 198.07,-200.67 204.44,-209.13 208.33,-203.31"/>
</g>
<!-- n_3 -->
<g id="node9" class="node">
<title>n_3</title>
<polygon fill="none" stroke="black" points="279.75,-166.38 279.75,-191.62 348.5,-191.62 348.5,-166.38 279.75,-166.38"/>
<text text-anchor="start" x="286.75" y="-177.07" font-family="Times New Roman,serif" font-weight="bold" font-size="9.00">Secondary (P)</text>
<polygon fill="none" stroke="black" points="278.75,-165.38 278.75,-192.62 349.5,-192.62 349.5,-165.38 278.75,-165.38"/>
</g>
<!-- n_1_3_4_5&#45;&gt;n_3 -->
<g id="edge8" class="edge">
<title>n_1_3_4_5&#45;&gt;n_3</title>
<path fill="none" stroke="black" d="M302.58,-243.13C304.59,-232.17 306.96,-219.18 309.04,-207.84"/>
<polygon fill="black" stroke="black" points="312.43,-208.73 310.79,-198.26 305.54,-207.47 312.43,-208.73"/>
</g>
<!-- n_4_5 -->
<g id="node5" class="node">
<title>n_4_5</title>
<polygon fill="none" stroke="black" points="36.5,-84.38 36.5,-109.62 106.75,-109.62 106.75,-84.38 36.5,-84.38"/>
<text text-anchor="start" x="43.5" y="-95.08" font-family="Times New Roman,serif" font-weight="bold" font-size="9.00">Secondary (G)</text>
<polygon fill="none" stroke="black" points="106.75,-84.38 106.75,-109.62 159.75,-109.62 159.75,-84.38 106.75,-84.38"/>
<text text-anchor="start" x="113.75" y="-95.08" font-family="Times New Roman,serif" font-weight="bold" font-size="9.00">Technical</text>
<polygon fill="none" stroke="black" points="35.5,-83.38 35.5,-110.62 160.75,-110.62 160.75,-83.38 35.5,-83.38"/>
</g>
<!-- n_1_4_5&#45;&gt;n_4_5 -->
<g id="edge4" class="edge">
<title>n_1_4_5&#45;&gt;n_4_5</title>
<path fill="none" stroke="black" d="M150.07,-158.22C141,-147.71 129.75,-134.66 120.04,-123.41"/>
<polygon fill="black" stroke="black" points="122.82,-121.28 113.64,-115.99 117.52,-125.85 122.82,-121.28"/>
</g>
<!-- n_1 -->
<g id="node8" class="node">
<title>n_1</title>
<polygon fill="none" stroke="black" points="206.5,-84.38 206.5,-109.62 267.75,-109.62 267.75,-84.38 206.5,-84.38"/>
<text text-anchor="start" x="213.5" y="-95.08" font-family="Times New Roman,serif" font-weight="bold" font-size="9.00">Primary (G)</text>
<polygon fill="none" stroke="black" points="205.5,-83.38 205.5,-110.62 268.75,-110.62 268.75,-83.38 205.5,-83.38"/>
</g>
<!-- n_1_4_5&#45;&gt;n_1 -->
<g id="edge7" class="edge">
<title>n_1_4_5&#45;&gt;n_1</title>
<path fill="none" stroke="black" d="M184.43,-158.22C193.63,-147.71 205.04,-134.66 214.89,-123.41"/>
<polygon fill="black" stroke="black" points="217.44,-125.81 221.39,-115.98 212.17,-121.2 217.44,-125.81"/>
</g>
<!-- n_4 -->
<g id="node6" class="node">
<title>n_4</title>
<polygon fill="none" stroke="black" points="9,-5.38 9,-30.62 79.25,-30.62 79.25,-5.38 9,-5.38"/>
<text text-anchor="start" x="16" y="-16.07" font-family="Times New Roman,serif" font-weight="bold" font-size="9.00">Secondary (G)</text>
<polygon fill="none" stroke="black" points="8,-4.38 8,-31.62 80.25,-31.62 80.25,-4.38 8,-4.38"/>
</g>
<!-- n_4_5&#45;&gt;n_4 -->
<g id="edge5" class="edge">
<title>n_4_5&#45;&gt;n_4</title>
<path fill="none" stroke="black" d="M86.41,-79.29C79.45,-69.37 70.47,-56.57 62.58,-45.32"/>
<polygon fill="black" stroke="black" points="65.48,-43.36 56.87,-37.18 59.75,-47.38 65.48,-43.36"/>
</g>
<!-- n_5 -->
<g id="node7" class="node">
<title>n_5</title>
<polygon fill="none" stroke="black" points="126.62,-5.38 126.62,-30.62 179.62,-30.62 179.62,-5.38 126.62,-5.38"/>
<text text-anchor="start" x="133.62" y="-16.07" font-family="Times New Roman,serif" font-weight="bold" font-size="9.00">Technical</text>
<polygon fill="none" stroke="black" points="125.62,-4.38 125.62,-31.62 180.62,-31.62 180.62,-4.38 125.62,-4.38"/>
</g>
<!-- n_4_5&#45;&gt;n_5 -->
<g id="edge6" class="edge">
<title>n_4_5&#45;&gt;n_5</title>
<path fill="none" stroke="black" d="M110.06,-79.29C117.22,-69.27 126.47,-56.31 134.57,-44.98"/>
<polygon fill="black" stroke="black" points="137.18,-47.34 140.14,-37.17 131.48,-43.28 137.18,-47.34"/>
</g>
<!-- n_0 -->
<g id="node11" class="node">
<title>n_0</title>
<polygon fill="none" stroke="black" points="426.25,-166.38 426.25,-191.62 486,-191.62 486,-166.38 426.25,-166.38"/>
<text text-anchor="start" x="433.25" y="-177.07" font-family="Times New Roman,serif" font-weight="bold" font-size="9.00">Primary (P)</text>
<polygon fill="none" stroke="black" points="425.25,-165.38 425.25,-192.62 487,-192.62 487,-165.38 425.25,-165.38"/>
</g>
<!-- n_0_6&#45;&gt;n_0 -->
<g id="edge10" class="edge">
<title>n_0_6&#45;&gt;n_0</title>
<path fill="none" stroke="black" d="M469.04,-250.63C466.83,-238.52 463.79,-221.94 461.22,-207.88"/>
<polygon fill="black" stroke="black" points="464.71,-207.52 459.47,-198.31 457.83,-208.77 464.71,-207.52"/>
</g>
<!-- n_6 -->
<g id="node12" class="node">
<title>n_6</title>
<polygon fill="none" stroke="black" points="532.88,-166.38 532.88,-191.62 587.38,-191.62 587.38,-166.38 532.88,-166.38"/>
<text text-anchor="start" x="539.88" y="-177.07" font-family="Times New Roman,serif" font-weight="bold" font-size="9.00">University</text>
<polygon fill="none" stroke="black" points="531.88,-165.38 531.88,-192.62 588.38,-192.62 588.38,-165.38 531.88,-165.38"/>
</g>
<!-- n_0_6&#45;&gt;n_6 -->
<g id="edge11" class="edge">
<title>n_0_6&#45;&gt;n_6</title>
<path fill="none" stroke="black" d="M489.09,-250.63C502.24,-237.56 520.65,-219.25 535.43,-204.56"/>
<polygon fill="black" stroke="black" points="537.51,-207.42 542.14,-197.89 532.58,-202.46 537.51,-207.42"/>
</g>
</g>
</svg>
