<?xml version="1.0" encoding="UTF-8" standalone="no"?>
<!DOCTYPE svg PUBLIC "-//W3C//DTD SVG 1.1//EN"
 "http://www.w3.org/Graphics/SVG/1.1/DTD/svg11.dtd">
<!-- Generated by graphviz version 10.0.1 (20240210.2158)
 -->
<!-- Title: ND Pages: 1 -->
<svg width="547pt" height="544pt"
 viewBox="0.00 0.00 546.50 544.00" xmlns="http://www.w3.org/2000/svg" xmlns:xlink="http://www.w3.org/1999/xlink">
<g id="graph0" class="graph" transform="scale(1 1) rotate(0) translate(4 540)">
<title>ND</title>
<polygon fill="white" stroke="none" points="-4,4 -4,-540 542.5,-540 542.5,4 -4,4"/>
<!-- n_0_1_2_3_4_5_6 -->
<g id="node1" class="node">
<title>n_0_1_2_3_4_5_6</title>
<polygon fill="none" stroke="black" points="363.12,-463 363.12,-531 433.38,-531 433.38,-463 363.12,-463"/>
<text text-anchor="start" x="375.38" y="-516.45" font-family="Times New Roman,serif" font-weight="bold" font-size="9.00">Primary (P)</text>
<text text-anchor="start" x="379.12" y="-507.45" font-family="Times New Roman,serif" font-weight="bold" font-size="9.00">Preschool</text>
<text text-anchor="start" x="370.88" y="-498.45" font-family="Times New Roman,serif" font-weight="bold" font-size="9.00">Secondary (P)</text>
<text text-anchor="start" x="370.12" y="-489.45" font-family="Times New Roman,serif" font-weight="bold" font-size="9.00">Secondary (G)</text>
<text text-anchor="start" x="378.75" y="-480.45" font-family="Times New Roman,serif" font-weight="bold" font-size="9.00">Technical</text>
<text text-anchor="start" x="378" y="-471.45" font-family="Times New Roman,serif" font-weight="bold" font-size="9.00">University</text>
<polygon fill="none" stroke="black" points="433.38,-463 433.38,-531 494.62,-531 494.62,-463 433.38,-463"/>
<text text-anchor="start" x="440.38" y="-495.07" font-family="Times New Roman,serif" font-weight="bold" font-size="9.00">Primary (G)</text>
<polygon fill="none" stroke="black" points="362.12,-462 362.12,-532 495.62,-532 495.62,-462 362.12,-462"/>
</g>
<!-- n_0_2_3_4_5_6 -->
<g id="node2" class="node">
<title>n_0_2_3_4_5_6</title>
<polygon fill="none" stroke="black" points="298.25,-351 298.25,-410 368.5,-410 368.5,-351 298.25,-351"/>
<text text-anchor="start" x="310.5" y="-395.45" font-family="Times New Roman,serif" font-weight="bold" font-size="9.00">Primary (P)</text>
<text text-anchor="start" x="314.25" y="-386.45" font-family="Times New Roman,serif" font-weight="bold" font-size="9.00">Preschool</text>
<text text-anchor="start" x="306" y="-377.45" font-family="Times New Roman,serif" font-weight="bold" font-size="9.00">Secondary (P)</text>
<text text-anchor="start" x="305.25" y="-368.45" font-family="Times New Roman,serif" font-weight="bold" font-size="9.00">Secondary (G)</text>
<text text-anchor="start" x="313.12" y="-359.45" font-family="Times New Roman,serif" font-weight="bold" font-size="9.00">University</text>
<polygon fill="none" stroke="black" points="368.5,-351 368.5,-410 421.5,-410 421.5,-351 368.5,-351"/>
<text text-anchor="start" x="375.5" y="-378.57" font-family="Times New Roman,serif" font-weight="bold" font-size="9.00">Technical</text>
<polygon fill="none" stroke="black" points="297.25,-350 297.25,-411 422.5,-411 422.5,-350 297.25,-350"/>
</g>
<!-- n_0_1_2_3_4_5_6&#45;&gt;n_0_2_3_4_5_6 -->
<g id="edge1" class="edge">
<title>n_0_1_2_3_4_5_6&#45;&gt;n_0_2_3_4_5_6</title>
<path fill="none" stroke="black" d="M406.09,-458.19C399.53,-447.31 392.33,-435.36 385.61,-424.21"/>
<polygon fill="black" stroke="black" points="388.79,-422.71 380.63,-415.95 382.8,-426.32 388.79,-422.71"/>
</g>
<!-- n_1 -->
<g id="node13" class="node">
<title>n_1</title>
<polygon fill="none" stroke="black" points="468.25,-367.88 468.25,-393.12 529.5,-393.12 529.5,-367.88 468.25,-367.88"/>
<text text-anchor="start" x="475.25" y="-378.57" font-family="Times New Roman,serif" font-weight="bold" font-size="9.00">Primary (G)</text>
<polygon fill="none" stroke="black" points="467.25,-366.88 467.25,-394.12 530.5,-394.12 530.5,-366.88 467.25,-366.88"/>
</g>
<!-- n_0_1_2_3_4_5_6&#45;&gt;n_1 -->
<g id="edge12" class="edge">
<title>n_0_1_2_3_4_5_6&#45;&gt;n_1</title>
<path fill="none" stroke="black" d="M451.99,-458.19C462.02,-441.78 473.53,-422.96 482.63,-408.07"/>
<polygon fill="black" stroke="black" points="485.49,-410.11 487.72,-399.75 479.51,-406.46 485.49,-410.11"/>
</g>
<!-- n_0_2_3_4_6 -->
<g id="node3" class="node">
<title>n_0_2_3_4_6</title>
<polygon fill="none" stroke="black" points="231.62,-248 231.62,-298 301.88,-298 301.88,-248 231.62,-248"/>
<text text-anchor="start" x="243.88" y="-283.45" font-family="Times New Roman,serif" font-weight="bold" font-size="9.00">Primary (P)</text>
<text text-anchor="start" x="239.38" y="-274.45" font-family="Times New Roman,serif" font-weight="bold" font-size="9.00">Secondary (P)</text>
<text text-anchor="start" x="238.62" y="-265.45" font-family="Times New Roman,serif" font-weight="bold" font-size="9.00">Secondary (G)</text>
<text text-anchor="start" x="246.5" y="-256.45" font-family="Times New Roman,serif" font-weight="bold" font-size="9.00">University</text>
<polygon fill="none" stroke="black" points="301.88,-248 301.88,-298 354.12,-298 354.12,-248 301.88,-248"/>
<text text-anchor="start" x="308.88" y="-271.07" font-family="Times New Roman,serif" font-weight="bold" font-size="9.00">Preschool</text>
<polygon fill="none" stroke="black" points="230.62,-247 230.62,-299 355.12,-299 355.12,-247 230.62,-247"/>
</g>
<!-- n_0_2_3_4_5_6&#45;&gt;n_0_2_3_4_6 -->
<g id="edge2" class="edge">
<title>n_0_2_3_4_5_6&#45;&gt;n_0_2_3_4_6</title>
<path fill="none" stroke="black" d="M338.68,-346.12C331.86,-335.38 324.25,-323.4 317.22,-312.33"/>
<polygon fill="black" stroke="black" points="320.35,-310.74 312.04,-304.18 314.45,-314.49 320.35,-310.74"/>
</g>
<!-- n_5 -->
<g id="node12" class="node">
<title>n_5</title>
<polygon fill="none" stroke="black" points="401.38,-260.38 401.38,-285.62 454.38,-285.62 454.38,-260.38 401.38,-260.38"/>
<text text-anchor="start" x="408.38" y="-271.07" font-family="Times New Roman,serif" font-weight="bold" font-size="9.00">Technical</text>
<polygon fill="none" stroke="black" points="400.38,-259.38 400.38,-286.62 455.38,-286.62 455.38,-259.38 400.38,-259.38"/>
</g>
<!-- n_0_2_3_4_5_6&#45;&gt;n_5 -->
<g id="edge11" class="edge">
<title>n_0_2_3_4_5_6&#45;&gt;n_5</title>
<path fill="none" stroke="black" d="M381.39,-346.12C390.91,-331.35 401.94,-314.23 410.87,-300.38"/>
<polygon fill="black" stroke="black" points="413.65,-302.52 416.13,-292.22 407.77,-298.73 413.65,-302.52"/>
</g>
<!-- n_0_3_4_6 -->
<g id="node4" class="node">
<title>n_0_3_4_6</title>
<polygon fill="none" stroke="black" points="152.38,-163 152.38,-195 221.12,-195 221.12,-163 152.38,-163"/>
<text text-anchor="start" x="163.88" y="-180.45" font-family="Times New Roman,serif" font-weight="bold" font-size="9.00">Primary (P)</text>
<text text-anchor="start" x="159.38" y="-171.45" font-family="Times New Roman,serif" font-weight="bold" font-size="9.00">Secondary (P)</text>
<polygon fill="none" stroke="black" points="221.12,-163 221.12,-195 291.38,-195 291.38,-163 221.12,-163"/>
<text text-anchor="start" x="228.12" y="-180.45" font-family="Times New Roman,serif" font-weight="bold" font-size="9.00">Secondary (G)</text>
<text text-anchor="start" x="236" y="-171.45" font-family="Times New Roman,serif" font-weight="bold" font-size="9.00">University</text>
<polygon fill="none" stroke="black" points="151.38,-162 151.38,-196 292.38,-196 292.38,-162 151.38,-162"/>
</g>
<!-- n_0_2_3_4_6&#45;&gt;n_0_3_4_6 -->
<g id="edge3" class="edge">
<title>n_0_2_3_4_6&#45;&gt;n_0_3_4_6</title>
<path fill="none" stroke="black" d="M270.6,-243.14C262.09,-232.11 252.39,-219.54 243.9,-208.54"/>
<polygon fill="black" stroke="black" points="246.91,-206.71 238.03,-200.93 241.37,-210.98 246.91,-206.71"/>
</g>
<!-- n_2 -->
<g id="node11" class="node">
<title>n_2</title>
<polygon fill="none" stroke="black" points="338.75,-166.38 338.75,-191.62 391,-191.62 391,-166.38 338.75,-166.38"/>
<text text-anchor="start" x="345.75" y="-177.07" font-family="Times New Roman,serif" font-weight="bold" font-size="9.00">Preschool</text>
<polygon fill="none" stroke="black" points="337.75,-165.38 337.75,-192.62 392,-192.62 392,-165.38 337.75,-165.38"/>
</g>
<!-- n_0_2_3_4_6&#45;&gt;n_2 -->
<g id="edge10" class="edge">
<title>n_0_2_3_4_6&#45;&gt;n_2</title>
<path fill="none" stroke="black" d="M315.46,-243.14C324.83,-231.17 335.62,-217.38 344.72,-205.76"/>
<polygon fill="black" stroke="black" points="347.26,-208.19 350.66,-198.16 341.74,-203.88 347.26,-208.19"/>
</g>
<!-- n_0_3 -->
<g id="node5" class="node">
<title>n_0_3</title>
<polygon fill="none" stroke="black" points="70.62,-84.38 70.62,-109.62 130.38,-109.62 130.38,-84.38 70.62,-84.38"/>
<text text-anchor="start" x="77.62" y="-95.08" font-family="Times New Roman,serif" font-weight="bold" font-size="9.00">Primary (P)</text>
<polygon fill="none" stroke="black" points="130.38,-84.38 130.38,-109.62 199.12,-109.62 199.12,-84.38 130.38,-84.38"/>
<text text-anchor="start" x="137.38" y="-95.08" font-family="Times New Roman,serif" font-weight="bold" font-size="9.00">Secondary (P)</text>
<polygon fill="none" stroke="black" points="69.62,-83.38 69.62,-110.62 200.12,-110.62 200.12,-83.38 69.62,-83.38"/>
</g>
<!-- n_0_3_4_6&#45;&gt;n_0_3 -->
<g id="edge4" class="edge">
<title>n_0_3_4_6&#45;&gt;n_0_3</title>
<path fill="none" stroke="black" d="M200.37,-158.22C188.59,-147.4 173.9,-133.89 161.42,-122.41"/>
<polygon fill="black" stroke="black" points="164.04,-120.06 154.31,-115.87 159.3,-125.21 164.04,-120.06"/>
</g>
<!-- n_4_6 -->
<g id="node8" class="node">
<title>n_4_6</title>
<polygon fill="none" stroke="black" points="246.5,-84.38 246.5,-109.62 316.75,-109.62 316.75,-84.38 246.5,-84.38"/>
<text text-anchor="start" x="253.5" y="-95.08" font-family="Times New Roman,serif" font-weight="bold" font-size="9.00">Secondary (G)</text>
<polygon fill="none" stroke="black" points="316.75,-84.38 316.75,-109.62 371.25,-109.62 371.25,-84.38 316.75,-84.38"/>
<text text-anchor="start" x="323.75" y="-95.08" font-family="Times New Roman,serif" font-weight="bold" font-size="9.00">University</text>
<polygon fill="none" stroke="black" points="245.5,-83.38 245.5,-110.62 372.25,-110.62 372.25,-83.38 245.5,-83.38"/>
</g>
<!-- n_0_3_4_6&#45;&gt;n_4_6 -->
<g id="edge7" class="edge">
<title>n_0_3_4_6&#45;&gt;n_4_6</title>
<path fill="none" stroke="black" d="M243.38,-158.22C255.16,-147.4 269.85,-133.89 282.33,-122.41"/>
<polygon fill="black" stroke="black" points="284.45,-125.21 289.44,-115.87 279.71,-120.06 284.45,-125.21"/>
</g>
<!-- n_0 -->
<g id="node6" class="node">
<title>n_0</title>
<polygon fill="none" stroke="black" points="9,-5.38 9,-30.62 68.75,-30.62 68.75,-5.38 9,-5.38"/>
<text text-anchor="start" x="16" y="-16.07" font-family="Times New Roman,serif" font-weight="bold" font-size="9.00">Primary (P)</text>
<polygon fill="none" stroke="black" points="8,-4.38 8,-31.62 69.75,-31.62 69.75,-4.38 8,-4.38"/>
</g>
<!-- n_0_3&#45;&gt;n_0 -->
<g id="edge5" class="edge">
<title>n_0_3&#45;&gt;n_0</title>
<path fill="none" stroke="black" d="M114.04,-79.29C100.8,-68.67 83.44,-54.75 68.74,-42.96"/>
<polygon fill="black" stroke="black" points="71.17,-40.41 61.18,-36.89 66.79,-45.88 71.17,-40.41"/>
</g>
<!-- n_3 -->
<g id="node7" class="node">
<title>n_3</title>
<polygon fill="none" stroke="black" points="115.5,-5.38 115.5,-30.62 184.25,-30.62 184.25,-5.38 115.5,-5.38"/>
<text text-anchor="start" x="122.5" y="-16.07" font-family="Times New Roman,serif" font-weight="bold" font-size="9.00">Secondary (P)</text>
<polygon fill="none" stroke="black" points="114.5,-4.38 114.5,-31.62 185.25,-31.62 185.25,-4.38 114.5,-4.38"/>
</g>
<!-- n_0_3&#45;&gt;n_3 -->
<g id="edge6" class="edge">
<title>n_0_3&#45;&gt;n_3</title>
<path fill="none" stroke="black" d="M138.13,-79.29C139.96,-69.87 142.31,-57.86 144.41,-47.04"/>
<polygon fill="black" stroke="black" points="147.81,-47.91 146.29,-37.43 140.94,-46.57 147.81,-47.91"/>
</g>
<!-- n_4 -->
<g id="node9" class="node">
<title>n_4</title>
<polygon fill="none" stroke="black" points="259.75,-5.38 259.75,-30.62 330,-30.62 330,-5.38 259.75,-5.38"/>
<text text-anchor="start" x="266.75" y="-16.07" font-family="Times New Roman,serif" font-weight="bold" font-size="9.00">Secondary (G)</text>
<polygon fill="none" stroke="black" points="258.75,-4.38 258.75,-31.62 331,-31.62 331,-4.38 258.75,-4.38"/>
</g>
<!-- n_4_6&#45;&gt;n_4 -->
<g id="edge8" class="edge">
<title>n_4_6&#45;&gt;n_4</title>
<path fill="none" stroke="black" d="M305.84,-79.29C304.12,-69.87 301.94,-57.86 299.97,-47.04"/>
<polygon fill="black" stroke="black" points="303.46,-46.64 298.23,-37.43 296.57,-47.9 303.46,-46.64"/>
</g>
<!-- n_6 -->
<g id="node10" class="node">
<title>n_6</title>
<polygon fill="none" stroke="black" points="376.62,-5.38 376.62,-30.62 431.12,-30.62 431.12,-5.38 376.62,-5.38"/>
<text text-anchor="start" x="383.62" y="-16.07" font-family="Times New Roman,serif" font-weight="bold" font-size="9.00">University</text>
<polygon fill="none" stroke="black" points="375.62,-4.38 375.62,-31.62 432.12,-31.62 432.12,-4.38 375.62,-4.38"/>
</g>
<!-- n_4_6&#45;&gt;n_6 -->
<g id="edge9" class="edge">
<title>n_4_6&#45;&gt;n_6</title>
<path fill="none" stroke="black" d="M329.49,-79.29C342.59,-68.67 359.77,-54.75 374.32,-42.96"/>
<polygon fill="black" stroke="black" points="376.23,-45.91 381.8,-36.89 371.83,-40.47 376.23,-45.91"/>
</g>
</g>
</svg>
