<?xml version="1.0" encoding="UTF-8" standalone="no"?>
<!DOCTYPE svg PUBLIC "-//W3C//DTD SVG 1.1//EN"
 "http://www.w3.org/Graphics/SVG/1.1/DTD/svg11.dtd">
<!-- Generated by graphviz version 10.0.1 (20240210.2158)
 -->
<!-- Title: ND Pages: 1 -->
<svg width="546pt" height="423pt"
 viewBox="0.00 0.00 546.25 423.00" xmlns="http://www.w3.org/2000/svg" xmlns:xlink="http://www.w3.org/1999/xlink">
<g id="graph0" class="graph" transform="scale(1 1) rotate(0) translate(4 419)">
<title>ND</title>
<polygon fill="white" stroke="none" points="-4,4 -4,-419 542.25,-419 542.25,4 -4,4"/>
<!-- n_0_1_2_3_4_5_6 -->
<g id="node1" class="node">
<title>n_0_1_2_3_4_5_6</title>
<polygon fill="none" stroke="black" points="291.38,-342 291.38,-410 361.62,-410 361.62,-342 291.38,-342"/>
<text text-anchor="start" x="303.62" y="-395.45" font-family="Times New Roman,serif" font-weight="bold" font-size="9.00">Primary (P)</text>
<text text-anchor="start" x="302.88" y="-386.45" font-family="Times New Roman,serif" font-weight="bold" font-size="9.00">Primary (G)</text>
<text text-anchor="start" x="307.38" y="-377.45" font-family="Times New Roman,serif" font-weight="bold" font-size="9.00">Preschool</text>
<text text-anchor="start" x="299.12" y="-368.45" font-family="Times New Roman,serif" font-weight="bold" font-size="9.00">Secondary (P)</text>
<text text-anchor="start" x="298.38" y="-359.45" font-family="Times New Roman,serif" font-weight="bold" font-size="9.00">Secondary (G)</text>
<text text-anchor="start" x="306.25" y="-350.45" font-family="Times New Roman,serif" font-weight="bold" font-size="9.00">University</text>
<polygon fill="none" stroke="black" points="361.62,-342 361.62,-410 414.62,-410 414.62,-342 361.62,-342"/>
<text text-anchor="start" x="368.62" y="-374.07" font-family="Times New Roman,serif" font-weight="bold" font-size="9.00">Technical</text>
<polygon fill="none" stroke="black" points="290.38,-341 290.38,-411 415.62,-411 415.62,-341 290.38,-341"/>
</g>
<!-- n_0_1_2_3_4_6 -->
<g id="node2" class="node">
<title>n_0_1_2_3_4_6</title>
<polygon fill="none" stroke="black" points="212.5,-248 212.5,-289 281.25,-289 281.25,-248 212.5,-248"/>
<text text-anchor="start" x="224" y="-274.45" font-family="Times New Roman,serif" font-weight="bold" font-size="9.00">Primary (P)</text>
<text text-anchor="start" x="227.75" y="-265.45" font-family="Times New Roman,serif" font-weight="bold" font-size="9.00">Preschool</text>
<text text-anchor="start" x="219.5" y="-256.45" font-family="Times New Roman,serif" font-weight="bold" font-size="9.00">Secondary (P)</text>
<polygon fill="none" stroke="black" points="281.25,-248 281.25,-289 351.5,-289 351.5,-248 281.25,-248"/>
<text text-anchor="start" x="292.75" y="-274.45" font-family="Times New Roman,serif" font-weight="bold" font-size="9.00">Primary (G)</text>
<text text-anchor="start" x="288.25" y="-265.45" font-family="Times New Roman,serif" font-weight="bold" font-size="9.00">Secondary (G)</text>
<text text-anchor="start" x="296.12" y="-256.45" font-family="Times New Roman,serif" font-weight="bold" font-size="9.00">University</text>
<polygon fill="none" stroke="black" points="211.5,-247 211.5,-290 352.5,-290 352.5,-247 211.5,-247"/>
</g>
<!-- n_0_1_2_3_4_5_6&#45;&gt;n_0_1_2_3_4_6 -->
<g id="edge1" class="edge">
<title>n_0_1_2_3_4_5_6&#45;&gt;n_0_1_2_3_4_6</title>
<path fill="none" stroke="black" d="M327.57,-337.21C320.13,-326.16 312.06,-314.17 304.8,-303.38"/>
<polygon fill="black" stroke="black" points="307.74,-301.47 299.25,-295.13 301.93,-305.38 307.74,-301.47"/>
</g>
<!-- n_5 -->
<g id="node13" class="node">
<title>n_5</title>
<polygon fill="none" stroke="black" points="398.5,-255.88 398.5,-281.12 451.5,-281.12 451.5,-255.88 398.5,-255.88"/>
<text text-anchor="start" x="405.5" y="-266.57" font-family="Times New Roman,serif" font-weight="bold" font-size="9.00">Technical</text>
<polygon fill="none" stroke="black" points="397.5,-254.88 397.5,-282.12 452.5,-282.12 452.5,-254.88 397.5,-254.88"/>
</g>
<!-- n_0_1_2_3_4_5_6&#45;&gt;n_5 -->
<g id="edge12" class="edge">
<title>n_0_1_2_3_4_5_6&#45;&gt;n_5</title>
<path fill="none" stroke="black" d="M378.79,-337.21C388.15,-323.49 398.52,-308.31 407.05,-295.8"/>
<polygon fill="black" stroke="black" points="409.85,-297.9 412.6,-287.67 404.07,-293.96 409.85,-297.9"/>
</g>
<!-- n_0_2_3 -->
<g id="node3" class="node">
<title>n_0_2_3</title>
<polygon fill="none" stroke="black" points="130.75,-163 130.75,-195 190.5,-195 190.5,-163 130.75,-163"/>
<text text-anchor="start" x="137.75" y="-180.45" font-family="Times New Roman,serif" font-weight="bold" font-size="9.00">Primary (P)</text>
<text text-anchor="start" x="141.5" y="-171.45" font-family="Times New Roman,serif" font-weight="bold" font-size="9.00">Preschool</text>
<polygon fill="none" stroke="black" points="190.5,-163 190.5,-195 259.25,-195 259.25,-163 190.5,-163"/>
<text text-anchor="start" x="197.5" y="-177.07" font-family="Times New Roman,serif" font-weight="bold" font-size="9.00">Secondary (P)</text>
<polygon fill="none" stroke="black" points="129.75,-162 129.75,-196 260.25,-196 260.25,-162 129.75,-162"/>
</g>
<!-- n_0_1_2_3_4_6&#45;&gt;n_0_2_3 -->
<g id="edge2" class="edge">
<title>n_0_1_2_3_4_6&#45;&gt;n_0_2_3</title>
<path fill="none" stroke="black" d="M257.77,-243.13C246.84,-232.14 233.89,-219.11 222.59,-207.75"/>
<polygon fill="black" stroke="black" points="225.31,-205.52 215.78,-200.9 220.35,-210.46 225.31,-205.52"/>
</g>
<!-- n_1_4_6 -->
<g id="node8" class="node">
<title>n_1_4_6</title>
<polygon fill="none" stroke="black" points="306.62,-163 306.62,-195 376.88,-195 376.88,-163 306.62,-163"/>
<text text-anchor="start" x="318.12" y="-180.45" font-family="Times New Roman,serif" font-weight="bold" font-size="9.00">Primary (G)</text>
<text text-anchor="start" x="313.62" y="-171.45" font-family="Times New Roman,serif" font-weight="bold" font-size="9.00">Secondary (G)</text>
<polygon fill="none" stroke="black" points="376.88,-163 376.88,-195 431.38,-195 431.38,-163 376.88,-163"/>
<text text-anchor="start" x="383.88" y="-177.07" font-family="Times New Roman,serif" font-weight="bold" font-size="9.00">University</text>
<polygon fill="none" stroke="black" points="305.62,-162 305.62,-196 432.38,-196 432.38,-162 305.62,-162"/>
</g>
<!-- n_0_1_2_3_4_6&#45;&gt;n_1_4_6 -->
<g id="edge7" class="edge">
<title>n_0_1_2_3_4_6&#45;&gt;n_1_4_6</title>
<path fill="none" stroke="black" d="M306.23,-243.13C317.16,-232.14 330.11,-219.11 341.41,-207.75"/>
<polygon fill="black" stroke="black" points="343.65,-210.46 348.22,-200.9 338.69,-205.52 343.65,-210.46"/>
</g>
<!-- n_0_2 -->
<g id="node4" class="node">
<title>n_0_2</title>
<polygon fill="none" stroke="black" points="9,-84.38 9,-109.62 68.75,-109.62 68.75,-84.38 9,-84.38"/>
<text text-anchor="start" x="16" y="-95.08" font-family="Times New Roman,serif" font-weight="bold" font-size="9.00">Primary (P)</text>
<polygon fill="none" stroke="black" points="68.75,-84.38 68.75,-109.62 121,-109.62 121,-84.38 68.75,-84.38"/>
<text text-anchor="start" x="75.75" y="-95.08" font-family="Times New Roman,serif" font-weight="bold" font-size="9.00">Preschool</text>
<polygon fill="none" stroke="black" points="8,-83.38 8,-110.62 122,-110.62 122,-83.38 8,-83.38"/>
</g>
<!-- n_0_2_3&#45;&gt;n_0_2 -->
<g id="edge3" class="edge">
<title>n_0_2_3&#45;&gt;n_0_2</title>
<path fill="none" stroke="black" d="M162.53,-158.02C144.09,-146.67 120.93,-132.42 101.82,-120.66"/>
<polygon fill="black" stroke="black" points="103.87,-117.81 93.52,-115.55 100.2,-123.77 103.87,-117.81"/>
</g>
<!-- n_3 -->
<g id="node7" class="node">
<title>n_3</title>
<polygon fill="none" stroke="black" points="167.62,-84.38 167.62,-109.62 236.38,-109.62 236.38,-84.38 167.62,-84.38"/>
<text text-anchor="start" x="174.62" y="-95.08" font-family="Times New Roman,serif" font-weight="bold" font-size="9.00">Secondary (P)</text>
<polygon fill="none" stroke="black" points="166.62,-83.38 166.62,-110.62 237.38,-110.62 237.38,-83.38 166.62,-83.38"/>
</g>
<!-- n_0_2_3&#45;&gt;n_3 -->
<g id="edge6" class="edge">
<title>n_0_2_3&#45;&gt;n_3</title>
<path fill="none" stroke="black" d="M196.73,-158.22C197.58,-148.54 198.61,-136.72 199.54,-126.11"/>
<polygon fill="black" stroke="black" points="203.01,-126.62 200.39,-116.35 196.04,-126.01 203.01,-126.62"/>
</g>
<!-- n_0 -->
<g id="node5" class="node">
<title>n_0</title>
<polygon fill="none" stroke="black" points="17.12,-5.38 17.12,-30.62 76.88,-30.62 76.88,-5.38 17.12,-5.38"/>
<text text-anchor="start" x="24.12" y="-16.07" font-family="Times New Roman,serif" font-weight="bold" font-size="9.00">Primary (P)</text>
<polygon fill="none" stroke="black" points="16.12,-4.38 16.12,-31.62 77.88,-31.62 77.88,-4.38 16.12,-4.38"/>
</g>
<!-- n_0_2&#45;&gt;n_0 -->
<g id="edge4" class="edge">
<title>n_0_2&#45;&gt;n_0</title>
<path fill="none" stroke="black" d="M61.09,-79.29C58.89,-69.87 56.08,-57.86 53.55,-47.04"/>
<polygon fill="black" stroke="black" points="56.99,-46.36 51.3,-37.41 50.17,-47.95 56.99,-46.36"/>
</g>
<!-- n_2 -->
<g id="node6" class="node">
<title>n_2</title>
<polygon fill="none" stroke="black" points="123.88,-5.38 123.88,-30.62 176.12,-30.62 176.12,-5.38 123.88,-5.38"/>
<text text-anchor="start" x="130.88" y="-16.07" font-family="Times New Roman,serif" font-weight="bold" font-size="9.00">Preschool</text>
<polygon fill="none" stroke="black" points="122.88,-4.38 122.88,-31.62 177.12,-31.62 177.12,-4.38 122.88,-4.38"/>
</g>
<!-- n_0_2&#45;&gt;n_2 -->
<g id="edge5" class="edge">
<title>n_0_2&#45;&gt;n_2</title>
<path fill="none" stroke="black" d="M83.44,-79.29C94.95,-68.87 109.96,-55.27 122.81,-43.63"/>
<polygon fill="black" stroke="black" points="125.12,-46.26 130.18,-36.96 120.42,-41.08 125.12,-46.26"/>
</g>
<!-- n_1_4 -->
<g id="node9" class="node">
<title>n_1_4</title>
<polygon fill="none" stroke="black" points="296.25,-84.38 296.25,-109.62 357.5,-109.62 357.5,-84.38 296.25,-84.38"/>
<text text-anchor="start" x="303.25" y="-95.08" font-family="Times New Roman,serif" font-weight="bold" font-size="9.00">Primary (G)</text>
<polygon fill="none" stroke="black" points="357.5,-84.38 357.5,-109.62 427.75,-109.62 427.75,-84.38 357.5,-84.38"/>
<text text-anchor="start" x="364.5" y="-95.08" font-family="Times New Roman,serif" font-weight="bold" font-size="9.00">Secondary (G)</text>
<polygon fill="none" stroke="black" points="295.25,-83.38 295.25,-110.62 428.75,-110.62 428.75,-83.38 295.25,-83.38"/>
</g>
<!-- n_1_4_6&#45;&gt;n_1_4 -->
<g id="edge8" class="edge">
<title>n_1_4_6&#45;&gt;n_1_4</title>
<path fill="none" stroke="black" d="M367.27,-158.22C366.42,-148.54 365.39,-136.72 364.46,-126.11"/>
<polygon fill="black" stroke="black" points="367.96,-126.01 363.61,-116.35 360.99,-126.62 367.96,-126.01"/>
</g>
<!-- n_6 -->
<g id="node12" class="node">
<title>n_6</title>
<polygon fill="none" stroke="black" points="474.75,-84.38 474.75,-109.62 529.25,-109.62 529.25,-84.38 474.75,-84.38"/>
<text text-anchor="start" x="481.75" y="-95.08" font-family="Times New Roman,serif" font-weight="bold" font-size="9.00">University</text>
<polygon fill="none" stroke="black" points="473.75,-83.38 473.75,-110.62 530.25,-110.62 530.25,-83.38 473.75,-83.38"/>
</g>
<!-- n_1_4_6&#45;&gt;n_6 -->
<g id="edge11" class="edge">
<title>n_1_4_6&#45;&gt;n_6</title>
<path fill="none" stroke="black" d="M402.22,-158.02C421.09,-146.67 444.77,-132.42 464.33,-120.66"/>
<polygon fill="black" stroke="black" points="466.08,-123.69 472.84,-115.54 462.47,-117.69 466.08,-123.69"/>
</g>
<!-- n_1 -->
<g id="node10" class="node">
<title>n_1</title>
<polygon fill="none" stroke="black" points="270.38,-5.38 270.38,-30.62 331.62,-30.62 331.62,-5.38 270.38,-5.38"/>
<text text-anchor="start" x="277.38" y="-16.07" font-family="Times New Roman,serif" font-weight="bold" font-size="9.00">Primary (G)</text>
<polygon fill="none" stroke="black" points="269.38,-4.38 269.38,-31.62 332.62,-31.62 332.62,-4.38 269.38,-4.38"/>
</g>
<!-- n_1_4&#45;&gt;n_1 -->
<g id="edge9" class="edge">
<title>n_1_4&#45;&gt;n_1</title>
<path fill="none" stroke="black" d="M348.76,-79.29C340.75,-69.17 330.35,-56.05 321.31,-44.64"/>
<polygon fill="black" stroke="black" points="324.31,-42.79 315.36,-37.13 318.83,-47.14 324.31,-42.79"/>
</g>
<!-- n_4 -->
<g id="node11" class="node">
<title>n_4</title>
<polygon fill="none" stroke="black" points="378.88,-5.38 378.88,-30.62 449.12,-30.62 449.12,-5.38 378.88,-5.38"/>
<text text-anchor="start" x="385.88" y="-16.07" font-family="Times New Roman,serif" font-weight="bold" font-size="9.00">Secondary (G)</text>
<polygon fill="none" stroke="black" points="377.88,-4.38 377.88,-31.62 450.12,-31.62 450.12,-4.38 377.88,-4.38"/>
</g>
<!-- n_1_4&#45;&gt;n_4 -->
<g id="edge10" class="edge">
<title>n_1_4&#45;&gt;n_4</title>
<path fill="none" stroke="black" d="M373.28,-79.29C379.98,-69.37 388.63,-56.57 396.23,-45.32"/>
<polygon fill="black" stroke="black" points="399.02,-47.44 401.71,-37.2 393.22,-43.52 399.02,-47.44"/>
</g>
</g>
</svg>
