<?xml version="1.0" encoding="UTF-8" standalone="no"?>
<!DOCTYPE svg PUBLIC "-//W3C//DTD SVG 1.1//EN"
 "http://www.w3.org/Graphics/SVG/1.1/DTD/svg11.dtd">
<!-- Generated by graphviz version 10.0.1 (20240210.2158)
 -->
<!-- Title: ND Pages: 1 -->
<svg width="662pt" height="517pt"
 viewBox="0.00 0.00 662.38 517.00" xmlns="http://www.w3.org/2000/svg" xmlns:xlink="http://www.w3.org/1999/xlink">
<g id="graph0" class="graph" transform="scale(1 1) rotate(0) translate(4 513)">
<title>ND</title>
<polygon fill="white" stroke="none" points="-4,4 -4,-513 658.38,-513 658.38,4 -4,4"/>
<!-- n_0_1_2_3_4_5_6 -->
<g id="node1" class="node">
<title>n_0_1_2_3_4_5_6</title>
<polygon fill="none" stroke="black" points="378.12,-445 378.12,-504 448.38,-504 448.38,-445 378.12,-445"/>
<text text-anchor="start" x="389.62" y="-489.45" font-family="Times New Roman,serif" font-weight="bold" font-size="9.00">Primary (G)</text>
<text text-anchor="start" x="394.12" y="-480.45" font-family="Times New Roman,serif" font-weight="bold" font-size="9.00">Preschool</text>
<text text-anchor="start" x="385.88" y="-471.45" font-family="Times New Roman,serif" font-weight="bold" font-size="9.00">Secondary (P)</text>
<text text-anchor="start" x="385.12" y="-462.45" font-family="Times New Roman,serif" font-weight="bold" font-size="9.00">Secondary (G)</text>
<text text-anchor="start" x="393.75" y="-453.45" font-family="Times New Roman,serif" font-weight="bold" font-size="9.00">Technical</text>
<polygon fill="none" stroke="black" points="448.38,-445 448.38,-504 508.12,-504 508.12,-445 448.38,-445"/>
<text text-anchor="start" x="455.38" y="-475.95" font-family="Times New Roman,serif" font-weight="bold" font-size="9.00">Primary (P)</text>
<text text-anchor="start" x="458" y="-466.95" font-family="Times New Roman,serif" font-weight="bold" font-size="9.00">University</text>
<polygon fill="none" stroke="black" points="377.12,-444 377.12,-505 509.12,-505 509.12,-444 377.12,-444"/>
</g>
<!-- n_1_2_3_4_5 -->
<g id="node2" class="node">
<title>n_1_2_3_4_5</title>
<polygon fill="none" stroke="black" points="286.62,-342 286.62,-392 356.88,-392 356.88,-342 286.62,-342"/>
<text text-anchor="start" x="298.12" y="-377.45" font-family="Times New Roman,serif" font-weight="bold" font-size="9.00">Primary (G)</text>
<text text-anchor="start" x="302.62" y="-368.45" font-family="Times New Roman,serif" font-weight="bold" font-size="9.00">Preschool</text>
<text text-anchor="start" x="293.62" y="-359.45" font-family="Times New Roman,serif" font-weight="bold" font-size="9.00">Secondary (G)</text>
<text text-anchor="start" x="302.25" y="-350.45" font-family="Times New Roman,serif" font-weight="bold" font-size="9.00">Technical</text>
<polygon fill="none" stroke="black" points="356.88,-342 356.88,-392 425.62,-392 425.62,-342 356.88,-342"/>
<text text-anchor="start" x="363.88" y="-365.07" font-family="Times New Roman,serif" font-weight="bold" font-size="9.00">Secondary (P)</text>
<polygon fill="none" stroke="black" points="285.62,-341 285.62,-393 426.62,-393 426.62,-341 285.62,-341"/>
</g>
<!-- n_0_1_2_3_4_5_6&#45;&gt;n_1_2_3_4_5 -->
<g id="edge1" class="edge">
<title>n_0_1_2_3_4_5_6&#45;&gt;n_1_2_3_4_5</title>
<path fill="none" stroke="black" d="M415.6,-440.12C406.56,-429.16 396.46,-416.91 387.18,-405.66"/>
<polygon fill="black" stroke="black" points="389.98,-403.55 380.92,-398.07 384.58,-408.01 389.98,-403.55"/>
</g>
<!-- n_0_6 -->
<g id="node11" class="node">
<title>n_0_6</title>
<polygon fill="none" stroke="black" points="473,-354.38 473,-379.62 532.75,-379.62 532.75,-354.38 473,-354.38"/>
<text text-anchor="start" x="480" y="-365.07" font-family="Times New Roman,serif" font-weight="bold" font-size="9.00">Primary (P)</text>
<polygon fill="none" stroke="black" points="532.75,-354.38 532.75,-379.62 587.25,-379.62 587.25,-354.38 532.75,-354.38"/>
<text text-anchor="start" x="539.75" y="-365.07" font-family="Times New Roman,serif" font-weight="bold" font-size="9.00">University</text>
<polygon fill="none" stroke="black" points="472,-353.38 472,-380.62 588.25,-380.62 588.25,-353.38 472,-353.38"/>
</g>
<!-- n_0_1_2_3_4_5_6&#45;&gt;n_0_6 -->
<g id="edge10" class="edge">
<title>n_0_1_2_3_4_5_6&#45;&gt;n_0_6</title>
<path fill="none" stroke="black" d="M470.65,-440.12C483.07,-425.06 497.5,-407.57 509.03,-393.58"/>
<polygon fill="black" stroke="black" points="511.52,-396.06 515.18,-386.12 506.12,-391.61 511.52,-396.06"/>
</g>
<!-- n_1_2_4_5 -->
<g id="node3" class="node">
<title>n_1_2_4_5</title>
<polygon fill="none" stroke="black" points="159.38,-248 159.38,-289 229.62,-289 229.62,-248 159.38,-248"/>
<text text-anchor="start" x="175.38" y="-274.45" font-family="Times New Roman,serif" font-weight="bold" font-size="9.00">Preschool</text>
<text text-anchor="start" x="166.38" y="-265.45" font-family="Times New Roman,serif" font-weight="bold" font-size="9.00">Secondary (G)</text>
<text text-anchor="start" x="175" y="-256.45" font-family="Times New Roman,serif" font-weight="bold" font-size="9.00">Technical</text>
<polygon fill="none" stroke="black" points="229.62,-248 229.62,-289 290.88,-289 290.88,-248 229.62,-248"/>
<text text-anchor="start" x="236.62" y="-266.57" font-family="Times New Roman,serif" font-weight="bold" font-size="9.00">Primary (G)</text>
<polygon fill="none" stroke="black" points="158.38,-247 158.38,-290 291.88,-290 291.88,-247 158.38,-247"/>
</g>
<!-- n_1_2_3_4_5&#45;&gt;n_1_2_4_5 -->
<g id="edge2" class="edge">
<title>n_1_2_3_4_5&#45;&gt;n_1_2_4_5</title>
<path fill="none" stroke="black" d="M316.82,-337.05C301.2,-325.54 283.19,-312.27 267.3,-300.56"/>
<polygon fill="black" stroke="black" points="269.56,-297.89 259.43,-294.77 265.41,-303.52 269.56,-297.89"/>
</g>
<!-- n_3 -->
<g id="node10" class="node">
<title>n_3</title>
<polygon fill="none" stroke="black" points="337.75,-255.88 337.75,-281.12 406.5,-281.12 406.5,-255.88 337.75,-255.88"/>
<text text-anchor="start" x="344.75" y="-266.57" font-family="Times New Roman,serif" font-weight="bold" font-size="9.00">Secondary (P)</text>
<polygon fill="none" stroke="black" points="336.75,-254.88 336.75,-282.12 407.5,-282.12 407.5,-254.88 336.75,-254.88"/>
</g>
<!-- n_1_2_3_4_5&#45;&gt;n_3 -->
<g id="edge9" class="edge">
<title>n_1_2_3_4_5&#45;&gt;n_3</title>
<path fill="none" stroke="black" d="M360.93,-337.05C363,-324.51 365.43,-309.89 367.49,-297.47"/>
<polygon fill="black" stroke="black" points="370.9,-298.3 369.08,-287.86 363.99,-297.15 370.9,-298.3"/>
</g>
<!-- n_2_4_5 -->
<g id="node4" class="node">
<title>n_2_4_5</title>
<polygon fill="none" stroke="black" points="94.5,-163 94.5,-195 164.75,-195 164.75,-163 94.5,-163"/>
<text text-anchor="start" x="110.5" y="-180.45" font-family="Times New Roman,serif" font-weight="bold" font-size="9.00">Preschool</text>
<text text-anchor="start" x="101.5" y="-171.45" font-family="Times New Roman,serif" font-weight="bold" font-size="9.00">Secondary (G)</text>
<polygon fill="none" stroke="black" points="164.75,-163 164.75,-195 217.75,-195 217.75,-163 164.75,-163"/>
<text text-anchor="start" x="171.75" y="-177.07" font-family="Times New Roman,serif" font-weight="bold" font-size="9.00">Technical</text>
<polygon fill="none" stroke="black" points="93.5,-162 93.5,-196 218.75,-196 218.75,-162 93.5,-162"/>
</g>
<!-- n_1_2_4_5&#45;&gt;n_2_4_5 -->
<g id="edge3" class="edge">
<title>n_1_2_4_5&#45;&gt;n_2_4_5</title>
<path fill="none" stroke="black" d="M205.9,-243.13C197.49,-232.46 187.56,-219.87 178.79,-208.75"/>
<polygon fill="black" stroke="black" points="181.64,-206.7 172.7,-201.01 176.14,-211.03 181.64,-206.7"/>
</g>
<!-- n_1 -->
<g id="node9" class="node">
<title>n_1</title>
<polygon fill="none" stroke="black" points="264.5,-166.38 264.5,-191.62 325.75,-191.62 325.75,-166.38 264.5,-166.38"/>
<text text-anchor="start" x="271.5" y="-177.07" font-family="Times New Roman,serif" font-weight="bold" font-size="9.00">Primary (G)</text>
<polygon fill="none" stroke="black" points="263.5,-165.38 263.5,-192.62 326.75,-192.62 326.75,-165.38 263.5,-165.38"/>
</g>
<!-- n_1_2_4_5&#45;&gt;n_1 -->
<g id="edge8" class="edge">
<title>n_1_2_4_5&#45;&gt;n_1</title>
<path fill="none" stroke="black" d="M244.62,-243.13C253.94,-231.48 265.1,-217.53 274.56,-205.71"/>
<polygon fill="black" stroke="black" points="277.25,-207.95 280.76,-197.95 271.78,-203.57 277.25,-207.95"/>
</g>
<!-- n_2_4 -->
<g id="node5" class="node">
<title>n_2_4</title>
<polygon fill="none" stroke="black" points="27.88,-84.38 27.88,-109.62 80.12,-109.62 80.12,-84.38 27.88,-84.38"/>
<text text-anchor="start" x="34.88" y="-95.08" font-family="Times New Roman,serif" font-weight="bold" font-size="9.00">Preschool</text>
<polygon fill="none" stroke="black" points="80.12,-84.38 80.12,-109.62 150.38,-109.62 150.38,-84.38 80.12,-84.38"/>
<text text-anchor="start" x="87.12" y="-95.08" font-family="Times New Roman,serif" font-weight="bold" font-size="9.00">Secondary (G)</text>
<polygon fill="none" stroke="black" points="26.88,-83.38 26.88,-110.62 151.38,-110.62 151.38,-83.38 26.88,-83.38"/>
</g>
<!-- n_2_4_5&#45;&gt;n_2_4 -->
<g id="edge4" class="edge">
<title>n_2_4_5&#45;&gt;n_2_4</title>
<path fill="none" stroke="black" d="M139.56,-158.22C130.76,-147.71 119.83,-134.66 110.4,-123.41"/>
<polygon fill="black" stroke="black" points="113.31,-121.42 104.2,-116 107.94,-125.92 113.31,-121.42"/>
</g>
<!-- n_5 -->
<g id="node8" class="node">
<title>n_5</title>
<polygon fill="none" stroke="black" points="197.62,-84.38 197.62,-109.62 250.62,-109.62 250.62,-84.38 197.62,-84.38"/>
<text text-anchor="start" x="204.62" y="-95.08" font-family="Times New Roman,serif" font-weight="bold" font-size="9.00">Technical</text>
<polygon fill="none" stroke="black" points="196.62,-83.38 196.62,-110.62 251.62,-110.62 251.62,-83.38 196.62,-83.38"/>
</g>
<!-- n_2_4_5&#45;&gt;n_5 -->
<g id="edge7" class="edge">
<title>n_2_4_5&#45;&gt;n_5</title>
<path fill="none" stroke="black" d="M172.93,-158.22C181.87,-147.71 192.96,-134.66 202.53,-123.41"/>
<polygon fill="black" stroke="black" points="205.02,-125.88 208.83,-116 199.68,-121.35 205.02,-125.88"/>
</g>
<!-- n_2 -->
<g id="node6" class="node">
<title>n_2</title>
<polygon fill="none" stroke="black" points="9,-5.38 9,-30.62 61.25,-30.62 61.25,-5.38 9,-5.38"/>
<text text-anchor="start" x="16" y="-16.07" font-family="Times New Roman,serif" font-weight="bold" font-size="9.00">Preschool</text>
<polygon fill="none" stroke="black" points="8,-4.38 8,-31.62 62.25,-31.62 62.25,-4.38 8,-4.38"/>
</g>
<!-- n_2_4&#45;&gt;n_2 -->
<g id="edge5" class="edge">
<title>n_2_4&#45;&gt;n_2</title>
<path fill="none" stroke="black" d="M77.41,-79.29C70.45,-69.37 61.47,-56.57 53.58,-45.32"/>
<polygon fill="black" stroke="black" points="56.48,-43.36 47.87,-37.18 50.75,-47.38 56.48,-43.36"/>
</g>
<!-- n_4 -->
<g id="node7" class="node">
<title>n_4</title>
<polygon fill="none" stroke="black" points="108,-5.38 108,-30.62 178.25,-30.62 178.25,-5.38 108,-5.38"/>
<text text-anchor="start" x="115" y="-16.07" font-family="Times New Roman,serif" font-weight="bold" font-size="9.00">Secondary (G)</text>
<polygon fill="none" stroke="black" points="107,-4.38 107,-31.62 179.25,-31.62 179.25,-4.38 107,-4.38"/>
</g>
<!-- n_2_4&#45;&gt;n_4 -->
<g id="edge6" class="edge">
<title>n_2_4&#45;&gt;n_4</title>
<path fill="none" stroke="black" d="M100.84,-79.29C107.8,-69.37 116.78,-56.57 124.67,-45.32"/>
<polygon fill="black" stroke="black" points="127.5,-47.38 130.38,-37.18 121.77,-43.36 127.5,-47.38"/>
</g>
<!-- n_0 -->
<g id="node12" class="node">
<title>n_0</title>
<polygon fill="none" stroke="black" points="484.25,-255.88 484.25,-281.12 544,-281.12 544,-255.88 484.25,-255.88"/>
<text text-anchor="start" x="491.25" y="-266.57" font-family="Times New Roman,serif" font-weight="bold" font-size="9.00">Primary (P)</text>
<polygon fill="none" stroke="black" points="483.25,-254.88 483.25,-282.12 545,-282.12 545,-254.88 483.25,-254.88"/>
</g>
<!-- n_0_6&#45;&gt;n_0 -->
<g id="edge11" class="edge">
<title>n_0_6&#45;&gt;n_0</title>
<path fill="none" stroke="black" d="M527.34,-349.19C524.99,-335.03 521.58,-314.46 518.81,-297.76"/>
<polygon fill="black" stroke="black" points="522.27,-297.23 517.18,-287.93 515.36,-298.37 522.27,-297.23"/>
</g>
<!-- n_6 -->
<g id="node13" class="node">
<title>n_6</title>
<polygon fill="none" stroke="black" points="590.88,-255.88 590.88,-281.12 645.38,-281.12 645.38,-255.88 590.88,-255.88"/>
<text text-anchor="start" x="597.88" y="-266.57" font-family="Times New Roman,serif" font-weight="bold" font-size="9.00">University</text>
<polygon fill="none" stroke="black" points="589.88,-254.88 589.88,-282.12 646.38,-282.12 646.38,-254.88 589.88,-254.88"/>
</g>
<!-- n_0_6&#45;&gt;n_6 -->
<g id="edge12" class="edge">
<title>n_0_6&#45;&gt;n_6</title>
<path fill="none" stroke="black" d="M545.45,-349.19C559.12,-334.2 579.33,-312.04 594.97,-294.89"/>
<polygon fill="black" stroke="black" points="597.51,-297.31 601.66,-287.56 592.33,-292.59 597.51,-297.31"/>
</g>
</g>
</svg>
