<?xml version="1.0" encoding="UTF-8" standalone="no"?>
<!DOCTYPE svg PUBLIC "-//W3C//DTD SVG 1.1//EN"
 "http://www.w3.org/Graphics/SVG/1.1/DTD/svg11.dtd">
<!-- Generated by graphviz version 10.0.1 (20240210.2158)
 -->
<!-- Title: ND Pages: 1 -->
<svg width="661pt" height="517pt"
 viewBox="0.00 0.00 661.38 517.00" xmlns="http://www.w3.org/2000/svg" xmlns:xlink="http://www.w3.org/1999/xlink">
<g id="graph0" class="graph" transform="scale(1 1) rotate(0) translate(4 513)">
<title>ND</title>
<polygon fill="white" stroke="none" points="-4,4 -4,-513 657.38,-513 657.38,4 -4,4"/>
<!-- n_0_1_2_3_4_5_6 -->
<g id="node1" class="node">
<title>n_0_1_2_3_4_5_6</title>
<polygon fill="none" stroke="black" points="366.38,-445 366.38,-504 435.12,-504 435.12,-445 366.38,-445"/>
<text text-anchor="start" x="377.88" y="-489.45" font-family="Times New Roman,serif" font-weight="bold" font-size="9.00">Primary (P)</text>
<text text-anchor="start" x="377.12" y="-480.45" font-family="Times New Roman,serif" font-weight="bold" font-size="9.00">Primary (G)</text>
<text text-anchor="start" x="381.62" y="-471.45" font-family="Times New Roman,serif" font-weight="bold" font-size="9.00">Preschool</text>
<text text-anchor="start" x="373.38" y="-462.45" font-family="Times New Roman,serif" font-weight="bold" font-size="9.00">Secondary (P)</text>
<text text-anchor="start" x="380.5" y="-453.45" font-family="Times New Roman,serif" font-weight="bold" font-size="9.00">University</text>
<polygon fill="none" stroke="black" points="435.12,-445 435.12,-504 505.38,-504 505.38,-445 435.12,-445"/>
<text text-anchor="start" x="442.12" y="-475.95" font-family="Times New Roman,serif" font-weight="bold" font-size="9.00">Secondary (G)</text>
<text text-anchor="start" x="450.75" y="-466.95" font-family="Times New Roman,serif" font-weight="bold" font-size="9.00">Technical</text>
<polygon fill="none" stroke="black" points="365.38,-444 365.38,-505 506.38,-505 506.38,-444 365.38,-444"/>
</g>
<!-- n_0_1_2_3_6 -->
<g id="node2" class="node">
<title>n_0_1_2_3_6</title>
<polygon fill="none" stroke="black" points="283.88,-342 283.88,-392 345.12,-392 345.12,-342 283.88,-342"/>
<text text-anchor="start" x="291.62" y="-377.45" font-family="Times New Roman,serif" font-weight="bold" font-size="9.00">Primary (P)</text>
<text text-anchor="start" x="290.88" y="-368.45" font-family="Times New Roman,serif" font-weight="bold" font-size="9.00">Primary (G)</text>
<text text-anchor="start" x="295.38" y="-359.45" font-family="Times New Roman,serif" font-weight="bold" font-size="9.00">Preschool</text>
<text text-anchor="start" x="294.25" y="-350.45" font-family="Times New Roman,serif" font-weight="bold" font-size="9.00">University</text>
<polygon fill="none" stroke="black" points="345.12,-342 345.12,-392 413.88,-392 413.88,-342 345.12,-342"/>
<text text-anchor="start" x="352.12" y="-365.07" font-family="Times New Roman,serif" font-weight="bold" font-size="9.00">Secondary (P)</text>
<polygon fill="none" stroke="black" points="282.88,-341 282.88,-393 414.88,-393 414.88,-341 282.88,-341"/>
</g>
<!-- n_0_1_2_3_4_5_6&#45;&gt;n_0_1_2_3_6 -->
<g id="edge1" class="edge">
<title>n_0_1_2_3_4_5_6&#45;&gt;n_0_1_2_3_6</title>
<path fill="none" stroke="black" d="M408.35,-440.12C399.31,-429.16 389.21,-416.91 379.93,-405.66"/>
<polygon fill="black" stroke="black" points="382.73,-403.55 373.67,-398.07 377.33,-408.01 382.73,-403.55"/>
</g>
<!-- n_4_5 -->
<g id="node11" class="node">
<title>n_4_5</title>
<polygon fill="none" stroke="black" points="461.25,-354.38 461.25,-379.62 531.5,-379.62 531.5,-354.38 461.25,-354.38"/>
<text text-anchor="start" x="468.25" y="-365.07" font-family="Times New Roman,serif" font-weight="bold" font-size="9.00">Secondary (G)</text>
<polygon fill="none" stroke="black" points="531.5,-354.38 531.5,-379.62 584.5,-379.62 584.5,-354.38 531.5,-354.38"/>
<text text-anchor="start" x="538.5" y="-365.07" font-family="Times New Roman,serif" font-weight="bold" font-size="9.00">Technical</text>
<polygon fill="none" stroke="black" points="460.25,-353.38 460.25,-380.62 585.5,-380.62 585.5,-353.38 460.25,-353.38"/>
</g>
<!-- n_0_1_2_3_4_5_6&#45;&gt;n_4_5 -->
<g id="edge10" class="edge">
<title>n_0_1_2_3_4_5_6&#45;&gt;n_4_5</title>
<path fill="none" stroke="black" d="M463.4,-440.12C475.82,-425.06 490.25,-407.57 501.78,-393.58"/>
<polygon fill="black" stroke="black" points="504.27,-396.06 507.93,-386.12 498.87,-391.61 504.27,-396.06"/>
</g>
<!-- n_0_1_2_6 -->
<g id="node3" class="node">
<title>n_0_1_2_6</title>
<polygon fill="none" stroke="black" points="167,-248 167,-289 228.25,-289 228.25,-248 167,-248"/>
<text text-anchor="start" x="174.75" y="-274.45" font-family="Times New Roman,serif" font-weight="bold" font-size="9.00">Primary (P)</text>
<text text-anchor="start" x="174" y="-265.45" font-family="Times New Roman,serif" font-weight="bold" font-size="9.00">Primary (G)</text>
<text text-anchor="start" x="178.5" y="-256.45" font-family="Times New Roman,serif" font-weight="bold" font-size="9.00">Preschool</text>
<polygon fill="none" stroke="black" points="228.25,-248 228.25,-289 282.75,-289 282.75,-248 228.25,-248"/>
<text text-anchor="start" x="235.25" y="-266.57" font-family="Times New Roman,serif" font-weight="bold" font-size="9.00">University</text>
<polygon fill="none" stroke="black" points="166,-247 166,-290 283.75,-290 283.75,-247 166,-247"/>
</g>
<!-- n_0_1_2_3_6&#45;&gt;n_0_1_2_6 -->
<g id="edge2" class="edge">
<title>n_0_1_2_3_6&#45;&gt;n_0_1_2_6</title>
<path fill="none" stroke="black" d="M311.67,-337.05C297.02,-325.65 280.16,-312.52 265.21,-300.89"/>
<polygon fill="black" stroke="black" points="267.43,-298.18 257.39,-294.8 263.13,-303.71 267.43,-298.18"/>
</g>
<!-- n_3 -->
<g id="node10" class="node">
<title>n_3</title>
<polygon fill="none" stroke="black" points="329.5,-255.88 329.5,-281.12 398.25,-281.12 398.25,-255.88 329.5,-255.88"/>
<text text-anchor="start" x="336.5" y="-266.57" font-family="Times New Roman,serif" font-weight="bold" font-size="9.00">Secondary (P)</text>
<polygon fill="none" stroke="black" points="328.5,-254.88 328.5,-282.12 399.25,-282.12 399.25,-254.88 328.5,-254.88"/>
</g>
<!-- n_0_1_2_3_6&#45;&gt;n_3 -->
<g id="edge9" class="edge">
<title>n_0_1_2_3_6&#45;&gt;n_3</title>
<path fill="none" stroke="black" d="M353.38,-337.05C355.32,-324.51 357.6,-309.89 359.53,-297.47"/>
<polygon fill="black" stroke="black" points="362.94,-298.28 361.02,-287.86 356.03,-297.21 362.94,-298.28"/>
</g>
<!-- n_0_1_2 -->
<g id="node4" class="node">
<title>n_0_1_2</title>
<polygon fill="none" stroke="black" points="103.12,-163 103.12,-195 164.38,-195 164.38,-163 103.12,-163"/>
<text text-anchor="start" x="110.88" y="-180.45" font-family="Times New Roman,serif" font-weight="bold" font-size="9.00">Primary (P)</text>
<text text-anchor="start" x="110.12" y="-171.45" font-family="Times New Roman,serif" font-weight="bold" font-size="9.00">Primary (G)</text>
<polygon fill="none" stroke="black" points="164.38,-163 164.38,-195 216.62,-195 216.62,-163 164.38,-163"/>
<text text-anchor="start" x="171.38" y="-177.07" font-family="Times New Roman,serif" font-weight="bold" font-size="9.00">Preschool</text>
<polygon fill="none" stroke="black" points="102.12,-162 102.12,-196 217.62,-196 217.62,-162 102.12,-162"/>
</g>
<!-- n_0_1_2_6&#45;&gt;n_0_1_2 -->
<g id="edge3" class="edge">
<title>n_0_1_2_6&#45;&gt;n_0_1_2</title>
<path fill="none" stroke="black" d="M206.77,-243.13C198.85,-232.46 189.49,-219.87 181.23,-208.75"/>
<polygon fill="black" stroke="black" points="184.28,-206.98 175.51,-201.04 178.66,-211.16 184.28,-206.98"/>
</g>
<!-- n_6 -->
<g id="node9" class="node">
<title>n_6</title>
<polygon fill="none" stroke="black" points="263.62,-166.38 263.62,-191.62 318.12,-191.62 318.12,-166.38 263.62,-166.38"/>
<text text-anchor="start" x="270.62" y="-177.07" font-family="Times New Roman,serif" font-weight="bold" font-size="9.00">University</text>
<polygon fill="none" stroke="black" points="262.62,-165.38 262.62,-192.62 319.12,-192.62 319.12,-165.38 262.62,-165.38"/>
</g>
<!-- n_0_1_2_6&#45;&gt;n_6 -->
<g id="edge8" class="edge">
<title>n_0_1_2_6&#45;&gt;n_6</title>
<path fill="none" stroke="black" d="M243.26,-243.13C252.05,-231.48 262.57,-217.53 271.48,-205.71"/>
<polygon fill="black" stroke="black" points="274.09,-208.07 277.31,-197.98 268.5,-203.85 274.09,-208.07"/>
</g>
<!-- n_0_1 -->
<g id="node5" class="node">
<title>n_0_1</title>
<polygon fill="none" stroke="black" points="32.38,-84.38 32.38,-109.62 92.12,-109.62 92.12,-84.38 32.38,-84.38"/>
<text text-anchor="start" x="39.38" y="-95.08" font-family="Times New Roman,serif" font-weight="bold" font-size="9.00">Primary (P)</text>
<polygon fill="none" stroke="black" points="92.12,-84.38 92.12,-109.62 153.38,-109.62 153.38,-84.38 92.12,-84.38"/>
<text text-anchor="start" x="99.12" y="-95.08" font-family="Times New Roman,serif" font-weight="bold" font-size="9.00">Primary (G)</text>
<polygon fill="none" stroke="black" points="31.38,-83.38 31.38,-110.62 154.38,-110.62 154.38,-83.38 31.38,-83.38"/>
</g>
<!-- n_0_1_2&#45;&gt;n_0_1 -->
<g id="edge4" class="edge">
<title>n_0_1_2&#45;&gt;n_0_1</title>
<path fill="none" stroke="black" d="M143.31,-158.22C134.51,-147.71 123.58,-134.66 114.15,-123.41"/>
<polygon fill="black" stroke="black" points="117.06,-121.42 107.95,-116 111.69,-125.92 117.06,-121.42"/>
</g>
<!-- n_2 -->
<g id="node8" class="node">
<title>n_2</title>
<polygon fill="none" stroke="black" points="200.75,-84.38 200.75,-109.62 253,-109.62 253,-84.38 200.75,-84.38"/>
<text text-anchor="start" x="207.75" y="-95.08" font-family="Times New Roman,serif" font-weight="bold" font-size="9.00">Preschool</text>
<polygon fill="none" stroke="black" points="199.75,-83.38 199.75,-110.62 254,-110.62 254,-83.38 199.75,-83.38"/>
</g>
<!-- n_0_1_2&#45;&gt;n_2 -->
<g id="edge7" class="edge">
<title>n_0_1_2&#45;&gt;n_2</title>
<path fill="none" stroke="black" d="M176.44,-158.22C185.24,-147.71 196.17,-134.66 205.6,-123.41"/>
<polygon fill="black" stroke="black" points="208.06,-125.92 211.8,-116 202.69,-121.42 208.06,-125.92"/>
</g>
<!-- n_0 -->
<g id="node6" class="node">
<title>n_0</title>
<polygon fill="none" stroke="black" points="9,-5.38 9,-30.62 68.75,-30.62 68.75,-5.38 9,-5.38"/>
<text text-anchor="start" x="16" y="-16.07" font-family="Times New Roman,serif" font-weight="bold" font-size="9.00">Primary (P)</text>
<polygon fill="none" stroke="black" points="8,-4.38 8,-31.62 69.75,-31.62 69.75,-4.38 8,-4.38"/>
</g>
<!-- n_0_1&#45;&gt;n_0 -->
<g id="edge5" class="edge">
<title>n_0_1&#45;&gt;n_0</title>
<path fill="none" stroke="black" d="M81.16,-79.29C74.2,-69.37 65.22,-56.57 57.33,-45.32"/>
<polygon fill="black" stroke="black" points="60.23,-43.36 51.62,-37.18 54.5,-47.38 60.23,-43.36"/>
</g>
<!-- n_1 -->
<g id="node7" class="node">
<title>n_1</title>
<polygon fill="none" stroke="black" points="116.25,-5.38 116.25,-30.62 177.5,-30.62 177.5,-5.38 116.25,-5.38"/>
<text text-anchor="start" x="123.25" y="-16.07" font-family="Times New Roman,serif" font-weight="bold" font-size="9.00">Primary (G)</text>
<polygon fill="none" stroke="black" points="115.25,-4.38 115.25,-31.62 178.5,-31.62 178.5,-4.38 115.25,-4.38"/>
</g>
<!-- n_0_1&#45;&gt;n_1 -->
<g id="edge6" class="edge">
<title>n_0_1&#45;&gt;n_1</title>
<path fill="none" stroke="black" d="M104.59,-79.29C111.55,-69.37 120.53,-56.57 128.42,-45.32"/>
<polygon fill="black" stroke="black" points="131.25,-47.38 134.13,-37.18 125.52,-43.36 131.25,-47.38"/>
</g>
<!-- n_4 -->
<g id="node12" class="node">
<title>n_4</title>
<polygon fill="none" stroke="black" points="473.75,-255.88 473.75,-281.12 544,-281.12 544,-255.88 473.75,-255.88"/>
<text text-anchor="start" x="480.75" y="-266.57" font-family="Times New Roman,serif" font-weight="bold" font-size="9.00">Secondary (G)</text>
<polygon fill="none" stroke="black" points="472.75,-254.88 472.75,-282.12 545,-282.12 545,-254.88 472.75,-254.88"/>
</g>
<!-- n_4_5&#45;&gt;n_4 -->
<g id="edge11" class="edge">
<title>n_4_5&#45;&gt;n_4</title>
<path fill="none" stroke="black" d="M520.44,-349.19C518.38,-335.03 515.4,-314.46 512.98,-297.76"/>
<polygon fill="black" stroke="black" points="516.45,-297.33 511.55,-287.94 509.52,-298.34 516.45,-297.33"/>
</g>
<!-- n_5 -->
<g id="node13" class="node">
<title>n_5</title>
<polygon fill="none" stroke="black" points="591.38,-255.88 591.38,-281.12 644.38,-281.12 644.38,-255.88 591.38,-255.88"/>
<text text-anchor="start" x="598.38" y="-266.57" font-family="Times New Roman,serif" font-weight="bold" font-size="9.00">Technical</text>
<polygon fill="none" stroke="black" points="590.38,-254.88 590.38,-282.12 645.38,-282.12 645.38,-254.88 590.38,-254.88"/>
</g>
<!-- n_4_5&#45;&gt;n_5 -->
<g id="edge12" class="edge">
<title>n_4_5&#45;&gt;n_5</title>
<path fill="none" stroke="black" d="M539.42,-349.19C554.32,-334.06 576.4,-311.63 593.35,-294.42"/>
<polygon fill="black" stroke="black" points="595.62,-297.1 600.14,-287.52 590.63,-292.19 595.62,-297.1"/>
</g>
</g>
</svg>
