<?xml version="1.0" encoding="UTF-8" standalone="no"?>
<!DOCTYPE svg PUBLIC "-//W3C//DTD SVG 1.1//EN"
 "http://www.w3.org/Graphics/SVG/1.1/DTD/svg11.dtd">
<!-- Generated by graphviz version 10.0.1 (20240210.2158)
 -->
<!-- Title: ND Pages: 1 -->
<svg width="556pt" height="638pt"
 viewBox="0.00 0.00 556.00 638.00" xmlns="http://www.w3.org/2000/svg" xmlns:xlink="http://www.w3.org/1999/xlink">
<g id="graph0" class="graph" transform="scale(1 1) rotate(0) translate(4 634)">
<title>ND</title>
<polygon fill="white" stroke="none" points="-4,4 -4,-634 552,-634 552,4 -4,4"/>
<!-- n_0_1_2_3_4_5_6 -->
<g id="node1" class="node">
<title>n_0_1_2_3_4_5_6</title>
<polygon fill="none" stroke="black" points="371.12,-557 371.12,-625 441.38,-625 441.38,-557 371.12,-557"/>
<text text-anchor="start" x="382.62" y="-610.45" font-family="Times New Roman,serif" font-weight="bold" font-size="9.00">Primary (G)</text>
<text text-anchor="start" x="387.12" y="-601.45" font-family="Times New Roman,serif" font-weight="bold" font-size="9.00">Preschool</text>
<text text-anchor="start" x="378.88" y="-592.45" font-family="Times New Roman,serif" font-weight="bold" font-size="9.00">Secondary (P)</text>
<text text-anchor="start" x="378.12" y="-583.45" font-family="Times New Roman,serif" font-weight="bold" font-size="9.00">Secondary (G)</text>
<text text-anchor="start" x="386.75" y="-574.45" font-family="Times New Roman,serif" font-weight="bold" font-size="9.00">Technical</text>
<text text-anchor="start" x="386" y="-565.45" font-family="Times New Roman,serif" font-weight="bold" font-size="9.00">University</text>
<polygon fill="none" stroke="black" points="441.38,-557 441.38,-625 501.12,-625 501.12,-557 441.38,-557"/>
<text text-anchor="start" x="448.38" y="-589.08" font-family="Times New Roman,serif" font-weight="bold" font-size="9.00">Primary (P)</text>
<polygon fill="none" stroke="black" points="370.12,-556 370.12,-626 502.12,-626 502.12,-556 370.12,-556"/>
</g>
<!-- n_1_2_3_4_5_6 -->
<g id="node2" class="node">
<title>n_1_2_3_4_5_6</title>
<polygon fill="none" stroke="black" points="293.62,-445 293.62,-504 363.88,-504 363.88,-445 293.62,-445"/>
<text text-anchor="start" x="305.12" y="-489.45" font-family="Times New Roman,serif" font-weight="bold" font-size="9.00">Primary (G)</text>
<text text-anchor="start" x="309.62" y="-480.45" font-family="Times New Roman,serif" font-weight="bold" font-size="9.00">Preschool</text>
<text text-anchor="start" x="300.62" y="-471.45" font-family="Times New Roman,serif" font-weight="bold" font-size="9.00">Secondary (G)</text>
<text text-anchor="start" x="309.25" y="-462.45" font-family="Times New Roman,serif" font-weight="bold" font-size="9.00">Technical</text>
<text text-anchor="start" x="308.5" y="-453.45" font-family="Times New Roman,serif" font-weight="bold" font-size="9.00">University</text>
<polygon fill="none" stroke="black" points="363.88,-445 363.88,-504 432.62,-504 432.62,-445 363.88,-445"/>
<text text-anchor="start" x="370.88" y="-472.57" font-family="Times New Roman,serif" font-weight="bold" font-size="9.00">Secondary (P)</text>
<polygon fill="none" stroke="black" points="292.62,-444 292.62,-505 433.62,-505 433.62,-444 292.62,-444"/>
</g>
<!-- n_0_1_2_3_4_5_6&#45;&gt;n_1_2_3_4_5_6 -->
<g id="edge1" class="edge">
<title>n_0_1_2_3_4_5_6&#45;&gt;n_1_2_3_4_5_6</title>
<path fill="none" stroke="black" d="M412.02,-552.19C405.08,-541.31 397.47,-529.36 390.35,-518.21"/>
<polygon fill="black" stroke="black" points="393.4,-516.48 385.07,-509.93 387.5,-520.24 393.4,-516.48"/>
</g>
<!-- n_0 -->
<g id="node13" class="node">
<title>n_0</title>
<polygon fill="none" stroke="black" points="479.25,-461.88 479.25,-487.12 539,-487.12 539,-461.88 479.25,-461.88"/>
<text text-anchor="start" x="486.25" y="-472.57" font-family="Times New Roman,serif" font-weight="bold" font-size="9.00">Primary (P)</text>
<polygon fill="none" stroke="black" points="478.25,-460.88 478.25,-488.12 540,-488.12 540,-460.88 478.25,-460.88"/>
</g>
<!-- n_0_1_2_3_4_5_6&#45;&gt;n_0 -->
<g id="edge12" class="edge">
<title>n_0_1_2_3_4_5_6&#45;&gt;n_0</title>
<path fill="none" stroke="black" d="M460.23,-552.19C470.69,-535.78 482.69,-516.96 492.19,-502.07"/>
<polygon fill="black" stroke="black" points="495.07,-504.05 497.5,-493.74 489.17,-500.29 495.07,-504.05"/>
</g>
<!-- n_1_2_4_5_6 -->
<g id="node3" class="node">
<title>n_1_2_4_5_6</title>
<polygon fill="none" stroke="black" points="224.38,-342 224.38,-392 294.62,-392 294.62,-342 224.38,-342"/>
<text text-anchor="start" x="240.38" y="-377.45" font-family="Times New Roman,serif" font-weight="bold" font-size="9.00">Preschool</text>
<text text-anchor="start" x="231.38" y="-368.45" font-family="Times New Roman,serif" font-weight="bold" font-size="9.00">Secondary (G)</text>
<text text-anchor="start" x="240" y="-359.45" font-family="Times New Roman,serif" font-weight="bold" font-size="9.00">Technical</text>
<text text-anchor="start" x="239.25" y="-350.45" font-family="Times New Roman,serif" font-weight="bold" font-size="9.00">University</text>
<polygon fill="none" stroke="black" points="294.62,-342 294.62,-392 355.88,-392 355.88,-342 294.62,-342"/>
<text text-anchor="start" x="301.62" y="-365.07" font-family="Times New Roman,serif" font-weight="bold" font-size="9.00">Primary (G)</text>
<polygon fill="none" stroke="black" points="223.38,-341 223.38,-393 356.88,-393 356.88,-341 223.38,-341"/>
</g>
<!-- n_1_2_3_4_5_6&#45;&gt;n_1_2_4_5_6 -->
<g id="edge2" class="edge">
<title>n_1_2_3_4_5_6&#45;&gt;n_1_2_4_5_6</title>
<path fill="none" stroke="black" d="M340.03,-440.12C332.6,-429.38 324.31,-417.4 316.65,-406.33"/>
<polygon fill="black" stroke="black" points="319.55,-404.37 310.98,-398.14 313.79,-408.36 319.55,-404.37"/>
</g>
<!-- n_3 -->
<g id="node12" class="node">
<title>n_3</title>
<polygon fill="none" stroke="black" points="402.75,-354.38 402.75,-379.62 471.5,-379.62 471.5,-354.38 402.75,-354.38"/>
<text text-anchor="start" x="409.75" y="-365.07" font-family="Times New Roman,serif" font-weight="bold" font-size="9.00">Secondary (P)</text>
<polygon fill="none" stroke="black" points="401.75,-353.38 401.75,-380.62 472.5,-380.62 472.5,-353.38 401.75,-353.38"/>
</g>
<!-- n_1_2_3_4_5_6&#45;&gt;n_3 -->
<g id="edge11" class="edge">
<title>n_1_2_3_4_5_6&#45;&gt;n_3</title>
<path fill="none" stroke="black" d="M386.54,-440.12C397,-425.21 409.14,-407.9 418.9,-393.98"/>
<polygon fill="black" stroke="black" points="421.49,-396.39 424.37,-386.19 415.76,-392.37 421.49,-396.39"/>
</g>
<!-- n_2_4_5_6 -->
<g id="node4" class="node">
<title>n_2_4_5_6</title>
<polygon fill="none" stroke="black" points="157.75,-248 157.75,-289 228,-289 228,-248 157.75,-248"/>
<text text-anchor="start" x="173.75" y="-274.45" font-family="Times New Roman,serif" font-weight="bold" font-size="9.00">Preschool</text>
<text text-anchor="start" x="164.75" y="-265.45" font-family="Times New Roman,serif" font-weight="bold" font-size="9.00">Secondary (G)</text>
<text text-anchor="start" x="173.38" y="-256.45" font-family="Times New Roman,serif" font-weight="bold" font-size="9.00">Technical</text>
<polygon fill="none" stroke="black" points="228,-248 228,-289 282.5,-289 282.5,-248 228,-248"/>
<text text-anchor="start" x="235" y="-266.57" font-family="Times New Roman,serif" font-weight="bold" font-size="9.00">University</text>
<polygon fill="none" stroke="black" points="156.75,-247 156.75,-290 283.5,-290 283.5,-247 156.75,-247"/>
</g>
<!-- n_1_2_4_5_6&#45;&gt;n_2_4_5_6 -->
<g id="edge3" class="edge">
<title>n_1_2_4_5_6&#45;&gt;n_2_4_5_6</title>
<path fill="none" stroke="black" d="M269.12,-337.05C261.32,-326.29 252.41,-314 244.34,-302.88"/>
<polygon fill="black" stroke="black" points="247.4,-301.14 238.69,-295.1 241.73,-305.25 247.4,-301.14"/>
</g>
<!-- n_1 -->
<g id="node11" class="node">
<title>n_1</title>
<polygon fill="none" stroke="black" points="329.5,-255.88 329.5,-281.12 390.75,-281.12 390.75,-255.88 329.5,-255.88"/>
<text text-anchor="start" x="336.5" y="-266.57" font-family="Times New Roman,serif" font-weight="bold" font-size="9.00">Primary (G)</text>
<polygon fill="none" stroke="black" points="328.5,-254.88 328.5,-282.12 391.75,-282.12 391.75,-254.88 328.5,-254.88"/>
</g>
<!-- n_1_2_4_5_6&#45;&gt;n_1 -->
<g id="edge10" class="edge">
<title>n_1_2_4_5_6&#45;&gt;n_1</title>
<path fill="none" stroke="black" d="M311.13,-337.05C320.69,-323.86 331.92,-308.38 341.22,-295.56"/>
<polygon fill="black" stroke="black" points="343.96,-297.74 347,-287.59 338.3,-293.63 343.96,-297.74"/>
</g>
<!-- n_2_4_5 -->
<g id="node5" class="node">
<title>n_2_4_5</title>
<polygon fill="none" stroke="black" points="90.5,-163 90.5,-195 143.5,-195 143.5,-163 90.5,-163"/>
<text text-anchor="start" x="97.88" y="-180.45" font-family="Times New Roman,serif" font-weight="bold" font-size="9.00">Preschool</text>
<text text-anchor="start" x="97.5" y="-171.45" font-family="Times New Roman,serif" font-weight="bold" font-size="9.00">Technical</text>
<polygon fill="none" stroke="black" points="143.5,-163 143.5,-195 213.75,-195 213.75,-163 143.5,-163"/>
<text text-anchor="start" x="150.5" y="-177.07" font-family="Times New Roman,serif" font-weight="bold" font-size="9.00">Secondary (G)</text>
<polygon fill="none" stroke="black" points="89.5,-162 89.5,-196 214.75,-196 214.75,-162 89.5,-162"/>
</g>
<!-- n_2_4_5_6&#45;&gt;n_2_4_5 -->
<g id="edge4" class="edge">
<title>n_2_4_5_6&#45;&gt;n_2_4_5</title>
<path fill="none" stroke="black" d="M201.18,-243.13C192.89,-232.46 183.11,-219.87 174.47,-208.75"/>
<polygon fill="black" stroke="black" points="177.36,-206.77 168.46,-201.02 171.83,-211.06 177.36,-206.77"/>
</g>
<!-- n_6 -->
<g id="node10" class="node">
<title>n_6</title>
<polygon fill="none" stroke="black" points="260.88,-166.38 260.88,-191.62 315.38,-191.62 315.38,-166.38 260.88,-166.38"/>
<text text-anchor="start" x="267.88" y="-177.07" font-family="Times New Roman,serif" font-weight="bold" font-size="9.00">University</text>
<polygon fill="none" stroke="black" points="259.88,-165.38 259.88,-192.62 316.38,-192.62 316.38,-165.38 259.88,-165.38"/>
</g>
<!-- n_2_4_5_6&#45;&gt;n_6 -->
<g id="edge9" class="edge">
<title>n_2_4_5_6&#45;&gt;n_6</title>
<path fill="none" stroke="black" d="M239.07,-243.13C248.12,-231.48 258.96,-217.53 268.15,-205.71"/>
<polygon fill="black" stroke="black" points="270.79,-208.01 274.16,-197.97 265.26,-203.71 270.79,-208.01"/>
</g>
<!-- n_2_5 -->
<g id="node6" class="node">
<title>n_2_5</title>
<polygon fill="none" stroke="black" points="32.5,-84.38 32.5,-109.62 84.75,-109.62 84.75,-84.38 32.5,-84.38"/>
<text text-anchor="start" x="39.5" y="-95.08" font-family="Times New Roman,serif" font-weight="bold" font-size="9.00">Preschool</text>
<polygon fill="none" stroke="black" points="84.75,-84.38 84.75,-109.62 137.75,-109.62 137.75,-84.38 84.75,-84.38"/>
<text text-anchor="start" x="91.75" y="-95.08" font-family="Times New Roman,serif" font-weight="bold" font-size="9.00">Technical</text>
<polygon fill="none" stroke="black" points="31.5,-83.38 31.5,-110.62 138.75,-110.62 138.75,-83.38 31.5,-83.38"/>
</g>
<!-- n_2_4_5&#45;&gt;n_2_5 -->
<g id="edge5" class="edge">
<title>n_2_4_5&#45;&gt;n_2_5</title>
<path fill="none" stroke="black" d="M135.56,-158.22C126.76,-147.71 115.83,-134.66 106.4,-123.41"/>
<polygon fill="black" stroke="black" points="109.31,-121.42 100.2,-116 103.94,-125.92 109.31,-121.42"/>
</g>
<!-- n_4 -->
<g id="node9" class="node">
<title>n_4</title>
<polygon fill="none" stroke="black" points="185,-84.38 185,-109.62 255.25,-109.62 255.25,-84.38 185,-84.38"/>
<text text-anchor="start" x="192" y="-95.08" font-family="Times New Roman,serif" font-weight="bold" font-size="9.00">Secondary (G)</text>
<polygon fill="none" stroke="black" points="184,-83.38 184,-110.62 256.25,-110.62 256.25,-83.38 184,-83.38"/>
</g>
<!-- n_2_4_5&#45;&gt;n_4 -->
<g id="edge8" class="edge">
<title>n_2_4_5&#45;&gt;n_4</title>
<path fill="none" stroke="black" d="M168.93,-158.22C177.87,-147.71 188.96,-134.66 198.53,-123.41"/>
<polygon fill="black" stroke="black" points="201.02,-125.88 204.83,-116 195.68,-121.35 201.02,-125.88"/>
</g>
<!-- n_2 -->
<g id="node7" class="node">
<title>n_2</title>
<polygon fill="none" stroke="black" points="9,-5.38 9,-30.62 61.25,-30.62 61.25,-5.38 9,-5.38"/>
<text text-anchor="start" x="16" y="-16.07" font-family="Times New Roman,serif" font-weight="bold" font-size="9.00">Preschool</text>
<polygon fill="none" stroke="black" points="8,-4.38 8,-31.62 62.25,-31.62 62.25,-4.38 8,-4.38"/>
</g>
<!-- n_2_5&#45;&gt;n_2 -->
<g id="edge6" class="edge">
<title>n_2_5&#45;&gt;n_2</title>
<path fill="none" stroke="black" d="M74.28,-79.29C67.83,-69.37 59.52,-56.57 52.22,-45.32"/>
<polygon fill="black" stroke="black" points="55.33,-43.69 46.95,-37.21 49.46,-47.5 55.33,-43.69"/>
</g>
<!-- n_5 -->
<g id="node8" class="node">
<title>n_5</title>
<polygon fill="none" stroke="black" points="108.62,-5.38 108.62,-30.62 161.62,-30.62 161.62,-5.38 108.62,-5.38"/>
<text text-anchor="start" x="115.62" y="-16.07" font-family="Times New Roman,serif" font-weight="bold" font-size="9.00">Technical</text>
<polygon fill="none" stroke="black" points="107.62,-4.38 107.62,-31.62 162.62,-31.62 162.62,-4.38 107.62,-4.38"/>
</g>
<!-- n_2_5&#45;&gt;n_5 -->
<g id="edge7" class="edge">
<title>n_2_5&#45;&gt;n_5</title>
<path fill="none" stroke="black" d="M95.97,-79.29C102.42,-69.37 110.73,-56.57 118.03,-45.32"/>
<polygon fill="black" stroke="black" points="120.79,-47.5 123.3,-37.21 114.92,-43.69 120.79,-47.5"/>
</g>
</g>
</svg>
