<?xml version="1.0" encoding="UTF-8" standalone="no"?>
<!DOCTYPE svg PUBLIC "-//W3C//DTD SVG 1.1//EN"
 "http://www.w3.org/Graphics/SVG/1.1/DTD/svg11.dtd">
<!-- Generated by graphviz version 10.0.1 (20240210.2158)
 -->
<!-- Title: ND Pages: 1 -->
<svg width="535pt" height="423pt"
 viewBox="0.00 0.00 534.75 423.00" xmlns="http://www.w3.org/2000/svg" xmlns:xlink="http://www.w3.org/1999/xlink">
<g id="graph0" class="graph" transform="scale(1 1) rotate(0) translate(4 419)">
<title>ND</title>
<polygon fill="white" stroke="none" points="-4,4 -4,-419 530.75,-419 530.75,4 -4,4"/>
<!-- n_0_1_2_3_4_5_6 -->
<g id="node1" class="node">
<title>n_0_1_2_3_4_5_6</title>
<polygon fill="none" stroke="black" points="286.75,-342 286.75,-410 357,-410 357,-342 286.75,-342"/>
<text text-anchor="start" x="299" y="-395.45" font-family="Times New Roman,serif" font-weight="bold" font-size="9.00">Primary (P)</text>
<text text-anchor="start" x="298.25" y="-386.45" font-family="Times New Roman,serif" font-weight="bold" font-size="9.00">Primary (G)</text>
<text text-anchor="start" x="302.75" y="-377.45" font-family="Times New Roman,serif" font-weight="bold" font-size="9.00">Preschool</text>
<text text-anchor="start" x="293.75" y="-368.45" font-family="Times New Roman,serif" font-weight="bold" font-size="9.00">Secondary (G)</text>
<text text-anchor="start" x="302.38" y="-359.45" font-family="Times New Roman,serif" font-weight="bold" font-size="9.00">Technical</text>
<text text-anchor="start" x="301.62" y="-350.45" font-family="Times New Roman,serif" font-weight="bold" font-size="9.00">University</text>
<polygon fill="none" stroke="black" points="357,-342 357,-410 425.75,-410 425.75,-342 357,-342"/>
<text text-anchor="start" x="364" y="-374.07" font-family="Times New Roman,serif" font-weight="bold" font-size="9.00">Secondary (P)</text>
<polygon fill="none" stroke="black" points="285.75,-341 285.75,-411 426.75,-411 426.75,-341 285.75,-341"/>
</g>
<!-- n_0_1_2_4_5_6 -->
<g id="node2" class="node">
<title>n_0_1_2_4_5_6</title>
<polygon fill="none" stroke="black" points="217.5,-248 217.5,-289 287.75,-289 287.75,-248 217.5,-248"/>
<text text-anchor="start" x="229.75" y="-274.45" font-family="Times New Roman,serif" font-weight="bold" font-size="9.00">Primary (P)</text>
<text text-anchor="start" x="233.5" y="-265.45" font-family="Times New Roman,serif" font-weight="bold" font-size="9.00">Preschool</text>
<text text-anchor="start" x="224.5" y="-256.45" font-family="Times New Roman,serif" font-weight="bold" font-size="9.00">Secondary (G)</text>
<polygon fill="none" stroke="black" points="287.75,-248 287.75,-289 349,-289 349,-248 287.75,-248"/>
<text text-anchor="start" x="294.75" y="-274.45" font-family="Times New Roman,serif" font-weight="bold" font-size="9.00">Primary (G)</text>
<text text-anchor="start" x="298.88" y="-265.45" font-family="Times New Roman,serif" font-weight="bold" font-size="9.00">Technical</text>
<text text-anchor="start" x="298.12" y="-256.45" font-family="Times New Roman,serif" font-weight="bold" font-size="9.00">University</text>
<polygon fill="none" stroke="black" points="216.5,-247 216.5,-290 350,-290 350,-247 216.5,-247"/>
</g>
<!-- n_0_1_2_3_4_5_6&#45;&gt;n_0_1_2_4_5_6 -->
<g id="edge1" class="edge">
<title>n_0_1_2_3_4_5_6&#45;&gt;n_0_1_2_4_5_6</title>
<path fill="none" stroke="black" d="M330.1,-337.21C322.38,-326.05 313.99,-313.92 306.46,-303.05"/>
<polygon fill="black" stroke="black" points="309.55,-301.35 300.98,-295.12 303.79,-305.34 309.55,-301.35"/>
</g>
<!-- n_3 -->
<g id="node13" class="node">
<title>n_3</title>
<polygon fill="none" stroke="black" points="395.88,-255.88 395.88,-281.12 464.62,-281.12 464.62,-255.88 395.88,-255.88"/>
<text text-anchor="start" x="402.88" y="-266.57" font-family="Times New Roman,serif" font-weight="bold" font-size="9.00">Secondary (P)</text>
<polygon fill="none" stroke="black" points="394.88,-254.88 394.88,-282.12 465.62,-282.12 465.62,-254.88 394.88,-254.88"/>
</g>
<!-- n_0_1_2_3_4_5_6&#45;&gt;n_3 -->
<g id="edge12" class="edge">
<title>n_0_1_2_3_4_5_6&#45;&gt;n_3</title>
<path fill="none" stroke="black" d="M382.76,-337.21C392.38,-323.49 403.03,-308.31 411.8,-295.8"/>
<polygon fill="black" stroke="black" points="414.64,-297.85 417.51,-287.66 408.91,-293.83 414.64,-297.85"/>
</g>
<!-- n_0_2_4 -->
<g id="node3" class="node">
<title>n_0_2_4</title>
<polygon fill="none" stroke="black" points="134.25,-163 134.25,-195 204.5,-195 204.5,-163 134.25,-163"/>
<text text-anchor="start" x="150.25" y="-180.45" font-family="Times New Roman,serif" font-weight="bold" font-size="9.00">Preschool</text>
<text text-anchor="start" x="141.25" y="-171.45" font-family="Times New Roman,serif" font-weight="bold" font-size="9.00">Secondary (G)</text>
<polygon fill="none" stroke="black" points="204.5,-163 204.5,-195 264.25,-195 264.25,-163 204.5,-163"/>
<text text-anchor="start" x="211.5" y="-177.07" font-family="Times New Roman,serif" font-weight="bold" font-size="9.00">Primary (P)</text>
<polygon fill="none" stroke="black" points="133.25,-162 133.25,-196 265.25,-196 265.25,-162 133.25,-162"/>
</g>
<!-- n_0_1_2_4_5_6&#45;&gt;n_0_2_4 -->
<g id="edge2" class="edge">
<title>n_0_1_2_4_5_6&#45;&gt;n_0_2_4</title>
<path fill="none" stroke="black" d="M259.85,-243.13C249.41,-232.25 237.04,-219.36 226.21,-208.08"/>
<polygon fill="black" stroke="black" points="228.78,-205.71 219.33,-200.92 223.73,-210.56 228.78,-205.71"/>
</g>
<!-- n_1_5_6 -->
<g id="node8" class="node">
<title>n_1_5_6</title>
<polygon fill="none" stroke="black" points="311.12,-163 311.12,-195 372.38,-195 372.38,-163 311.12,-163"/>
<text text-anchor="start" x="318.12" y="-180.45" font-family="Times New Roman,serif" font-weight="bold" font-size="9.00">Primary (G)</text>
<text text-anchor="start" x="321.5" y="-171.45" font-family="Times New Roman,serif" font-weight="bold" font-size="9.00">University</text>
<polygon fill="none" stroke="black" points="372.38,-163 372.38,-195 425.38,-195 425.38,-163 372.38,-163"/>
<text text-anchor="start" x="379.38" y="-177.07" font-family="Times New Roman,serif" font-weight="bold" font-size="9.00">Technical</text>
<polygon fill="none" stroke="black" points="310.12,-162 310.12,-196 426.38,-196 426.38,-162 310.12,-162"/>
</g>
<!-- n_0_1_2_4_5_6&#45;&gt;n_1_5_6 -->
<g id="edge7" class="edge">
<title>n_0_1_2_4_5_6&#45;&gt;n_1_5_6</title>
<path fill="none" stroke="black" d="M306.93,-243.13C317.5,-232.25 330.01,-219.36 340.97,-208.08"/>
<polygon fill="black" stroke="black" points="343.48,-210.52 347.94,-200.91 338.46,-205.65 343.48,-210.52"/>
</g>
<!-- n_2_4 -->
<g id="node4" class="node">
<title>n_2_4</title>
<polygon fill="none" stroke="black" points="9,-84.38 9,-109.62 61.25,-109.62 61.25,-84.38 9,-84.38"/>
<text text-anchor="start" x="16" y="-95.08" font-family="Times New Roman,serif" font-weight="bold" font-size="9.00">Preschool</text>
<polygon fill="none" stroke="black" points="61.25,-84.38 61.25,-109.62 131.5,-109.62 131.5,-84.38 61.25,-84.38"/>
<text text-anchor="start" x="68.25" y="-95.08" font-family="Times New Roman,serif" font-weight="bold" font-size="9.00">Secondary (G)</text>
<polygon fill="none" stroke="black" points="8,-83.38 8,-110.62 132.5,-110.62 132.5,-83.38 8,-83.38"/>
</g>
<!-- n_0_2_4&#45;&gt;n_2_4 -->
<g id="edge3" class="edge">
<title>n_0_2_4&#45;&gt;n_2_4</title>
<path fill="none" stroke="black" d="M167.03,-158.02C148.81,-146.72 125.96,-132.55 107.04,-120.82"/>
<polygon fill="black" stroke="black" points="108.9,-117.85 98.56,-115.56 105.21,-123.8 108.9,-117.85"/>
</g>
<!-- n_0 -->
<g id="node7" class="node">
<title>n_0</title>
<polygon fill="none" stroke="black" points="178.38,-84.38 178.38,-109.62 238.12,-109.62 238.12,-84.38 178.38,-84.38"/>
<text text-anchor="start" x="185.38" y="-95.08" font-family="Times New Roman,serif" font-weight="bold" font-size="9.00">Primary (P)</text>
<polygon fill="none" stroke="black" points="177.38,-83.38 177.38,-110.62 239.12,-110.62 239.12,-83.38 177.38,-83.38"/>
</g>
<!-- n_0_2_4&#45;&gt;n_0 -->
<g id="edge6" class="edge">
<title>n_0_2_4&#45;&gt;n_0</title>
<path fill="none" stroke="black" d="M201.47,-158.22C202.56,-148.54 203.89,-136.72 205.09,-126.11"/>
<polygon fill="black" stroke="black" points="208.55,-126.68 206.19,-116.35 201.59,-125.89 208.55,-126.68"/>
</g>
<!-- n_2 -->
<g id="node5" class="node">
<title>n_2</title>
<polygon fill="none" stroke="black" points="18.12,-5.38 18.12,-30.62 70.38,-30.62 70.38,-5.38 18.12,-5.38"/>
<text text-anchor="start" x="25.12" y="-16.07" font-family="Times New Roman,serif" font-weight="bold" font-size="9.00">Preschool</text>
<polygon fill="none" stroke="black" points="17.12,-4.38 17.12,-31.62 71.38,-31.62 71.38,-4.38 17.12,-4.38"/>
</g>
<!-- n_2_4&#45;&gt;n_2 -->
<g id="edge4" class="edge">
<title>n_2_4&#45;&gt;n_2</title>
<path fill="none" stroke="black" d="M64.61,-79.29C61.39,-69.77 57.28,-57.6 53.6,-46.69"/>
<polygon fill="black" stroke="black" points="56.97,-45.73 50.45,-37.38 50.34,-47.97 56.97,-45.73"/>
</g>
<!-- n_4 -->
<g id="node6" class="node">
<title>n_4</title>
<polygon fill="none" stroke="black" points="117.12,-5.38 117.12,-30.62 187.38,-30.62 187.38,-5.38 117.12,-5.38"/>
<text text-anchor="start" x="124.12" y="-16.07" font-family="Times New Roman,serif" font-weight="bold" font-size="9.00">Secondary (G)</text>
<polygon fill="none" stroke="black" points="116.12,-4.38 116.12,-31.62 188.38,-31.62 188.38,-4.38 116.12,-4.38"/>
</g>
<!-- n_2_4&#45;&gt;n_4 -->
<g id="edge5" class="edge">
<title>n_2_4&#45;&gt;n_4</title>
<path fill="none" stroke="black" d="M88.04,-79.29C99.14,-68.87 113.62,-55.27 126.02,-43.63"/>
<polygon fill="black" stroke="black" points="128.21,-46.37 133.11,-36.98 123.42,-41.27 128.21,-46.37"/>
</g>
<!-- n_1_6 -->
<g id="node9" class="node">
<title>n_1_6</title>
<polygon fill="none" stroke="black" points="302.38,-84.38 302.38,-109.62 363.62,-109.62 363.62,-84.38 302.38,-84.38"/>
<text text-anchor="start" x="309.38" y="-95.08" font-family="Times New Roman,serif" font-weight="bold" font-size="9.00">Primary (G)</text>
<polygon fill="none" stroke="black" points="363.62,-84.38 363.62,-109.62 418.12,-109.62 418.12,-84.38 363.62,-84.38"/>
<text text-anchor="start" x="370.62" y="-95.08" font-family="Times New Roman,serif" font-weight="bold" font-size="9.00">University</text>
<polygon fill="none" stroke="black" points="301.38,-83.38 301.38,-110.62 419.12,-110.62 419.12,-83.38 301.38,-83.38"/>
</g>
<!-- n_1_5_6&#45;&gt;n_1_6 -->
<g id="edge8" class="edge">
<title>n_1_5_6&#45;&gt;n_1_6</title>
<path fill="none" stroke="black" d="M366.27,-158.22C365.3,-148.54 364.12,-136.72 363.06,-126.11"/>
<polygon fill="black" stroke="black" points="366.56,-125.95 362.08,-116.35 359.6,-126.65 366.56,-125.95"/>
</g>
<!-- n_5 -->
<g id="node12" class="node">
<title>n_5</title>
<polygon fill="none" stroke="black" points="464.75,-84.38 464.75,-109.62 517.75,-109.62 517.75,-84.38 464.75,-84.38"/>
<text text-anchor="start" x="471.75" y="-95.08" font-family="Times New Roman,serif" font-weight="bold" font-size="9.00">Technical</text>
<polygon fill="none" stroke="black" points="463.75,-83.38 463.75,-110.62 518.75,-110.62 518.75,-83.38 463.75,-83.38"/>
</g>
<!-- n_1_5_6&#45;&gt;n_5 -->
<g id="edge11" class="edge">
<title>n_1_5_6&#45;&gt;n_5</title>
<path fill="none" stroke="black" d="M398.97,-158.02C416.26,-146.77 437.93,-132.68 455.92,-120.98"/>
<polygon fill="black" stroke="black" points="457.74,-123.97 464.22,-115.58 453.92,-118.1 457.74,-123.97"/>
</g>
<!-- n_1 -->
<g id="node10" class="node">
<title>n_1</title>
<polygon fill="none" stroke="black" points="273.62,-5.38 273.62,-30.62 334.88,-30.62 334.88,-5.38 273.62,-5.38"/>
<text text-anchor="start" x="280.62" y="-16.07" font-family="Times New Roman,serif" font-weight="bold" font-size="9.00">Primary (G)</text>
<polygon fill="none" stroke="black" points="272.62,-4.38 272.62,-31.62 335.88,-31.62 335.88,-4.38 272.62,-4.38"/>
</g>
<!-- n_1_6&#45;&gt;n_1 -->
<g id="edge9" class="edge">
<title>n_1_6&#45;&gt;n_1</title>
<path fill="none" stroke="black" d="M348.1,-79.29C340.81,-69.27 331.39,-56.31 323.14,-44.98"/>
<polygon fill="black" stroke="black" points="326.17,-43.19 317.46,-37.17 320.51,-47.31 326.17,-43.19"/>
</g>
<!-- n_6 -->
<g id="node11" class="node">
<title>n_6</title>
<polygon fill="none" stroke="black" points="382,-5.38 382,-30.62 436.5,-30.62 436.5,-5.38 382,-5.38"/>
<text text-anchor="start" x="389" y="-16.07" font-family="Times New Roman,serif" font-weight="bold" font-size="9.00">University</text>
<polygon fill="none" stroke="black" points="381,-4.38 381,-31.62 437.5,-31.62 437.5,-4.38 381,-4.38"/>
</g>
<!-- n_1_6&#45;&gt;n_6 -->
<g id="edge10" class="edge">
<title>n_1_6&#45;&gt;n_6</title>
<path fill="none" stroke="black" d="M370.88,-79.29C377.2,-69.37 385.34,-56.57 392.5,-45.32"/>
<polygon fill="black" stroke="black" points="395.24,-47.53 397.66,-37.22 389.34,-43.78 395.24,-47.53"/>
</g>
</g>
</svg>
