<?xml version="1.0" encoding="UTF-8" standalone="no"?>
<!DOCTYPE svg PUBLIC "-//W3C//DTD SVG 1.1//EN"
 "http://www.w3.org/Graphics/SVG/1.1/DTD/svg11.dtd">
<!-- Generated by graphviz version 10.0.1 (20240210.2158)
 -->
<!-- Title: ND Pages: 1 -->
<svg width="660pt" height="517pt"
 viewBox="0.00 0.00 660.12 517.00" xmlns="http://www.w3.org/2000/svg" xmlns:xlink="http://www.w3.org/1999/xlink">
<g id="graph0" class="graph" transform="scale(1 1) rotate(0) translate(4 513)">
<title>ND</title>
<polygon fill="white" stroke="none" points="-4,4 -4,-513 656.12,-513 656.12,4 -4,4"/>
<!-- n_0_1_2_3_4_5_6 -->
<g id="node1" class="node">
<title>n_0_1_2_3_4_5_6</title>
<polygon fill="none" stroke="black" points="383.5,-445 383.5,-504 453.75,-504 453.75,-445 383.5,-445"/>
<text text-anchor="start" x="395.75" y="-489.45" font-family="Times New Roman,serif" font-weight="bold" font-size="9.00">Primary (P)</text>
<text text-anchor="start" x="395" y="-480.45" font-family="Times New Roman,serif" font-weight="bold" font-size="9.00">Primary (G)</text>
<text text-anchor="start" x="391.25" y="-471.45" font-family="Times New Roman,serif" font-weight="bold" font-size="9.00">Secondary (P)</text>
<text text-anchor="start" x="390.5" y="-462.45" font-family="Times New Roman,serif" font-weight="bold" font-size="9.00">Secondary (G)</text>
<text text-anchor="start" x="399.12" y="-453.45" font-family="Times New Roman,serif" font-weight="bold" font-size="9.00">Technical</text>
<polygon fill="none" stroke="black" points="453.75,-445 453.75,-504 508.25,-504 508.25,-445 453.75,-445"/>
<text text-anchor="start" x="461.88" y="-475.95" font-family="Times New Roman,serif" font-weight="bold" font-size="9.00">Preschool</text>
<text text-anchor="start" x="460.75" y="-466.95" font-family="Times New Roman,serif" font-weight="bold" font-size="9.00">University</text>
<polygon fill="none" stroke="black" points="382.5,-444 382.5,-505 509.25,-505 509.25,-444 382.5,-444"/>
</g>
<!-- n_0_1_3_4_5 -->
<g id="node2" class="node">
<title>n_0_1_3_4_5</title>
<polygon fill="none" stroke="black" points="291.38,-342 291.38,-392 361.62,-392 361.62,-342 291.38,-342"/>
<text text-anchor="start" x="303.62" y="-377.45" font-family="Times New Roman,serif" font-weight="bold" font-size="9.00">Primary (P)</text>
<text text-anchor="start" x="302.88" y="-368.45" font-family="Times New Roman,serif" font-weight="bold" font-size="9.00">Primary (G)</text>
<text text-anchor="start" x="298.38" y="-359.45" font-family="Times New Roman,serif" font-weight="bold" font-size="9.00">Secondary (G)</text>
<text text-anchor="start" x="307" y="-350.45" font-family="Times New Roman,serif" font-weight="bold" font-size="9.00">Technical</text>
<polygon fill="none" stroke="black" points="361.62,-342 361.62,-392 430.38,-392 430.38,-342 361.62,-342"/>
<text text-anchor="start" x="368.62" y="-365.07" font-family="Times New Roman,serif" font-weight="bold" font-size="9.00">Secondary (P)</text>
<polygon fill="none" stroke="black" points="290.38,-341 290.38,-393 431.38,-393 431.38,-341 290.38,-341"/>
</g>
<!-- n_0_1_2_3_4_5_6&#45;&gt;n_0_1_3_4_5 -->
<g id="edge1" class="edge">
<title>n_0_1_2_3_4_5_6&#45;&gt;n_0_1_3_4_5</title>
<path fill="none" stroke="black" d="M418.98,-440.12C410.15,-429.16 400.28,-416.91 391.22,-405.66"/>
<polygon fill="black" stroke="black" points="394.11,-403.67 385.11,-398.08 388.66,-408.06 394.11,-403.67"/>
</g>
<!-- n_2_6 -->
<g id="node11" class="node">
<title>n_2_6</title>
<polygon fill="none" stroke="black" points="477.5,-354.38 477.5,-379.62 529.75,-379.62 529.75,-354.38 477.5,-354.38"/>
<text text-anchor="start" x="484.5" y="-365.07" font-family="Times New Roman,serif" font-weight="bold" font-size="9.00">Preschool</text>
<polygon fill="none" stroke="black" points="529.75,-354.38 529.75,-379.62 584.25,-379.62 584.25,-354.38 529.75,-354.38"/>
<text text-anchor="start" x="536.75" y="-365.07" font-family="Times New Roman,serif" font-weight="bold" font-size="9.00">University</text>
<polygon fill="none" stroke="black" points="476.5,-353.38 476.5,-380.62 585.25,-380.62 585.25,-353.38 476.5,-353.38"/>
</g>
<!-- n_0_1_2_3_4_5_6&#45;&gt;n_2_6 -->
<g id="edge10" class="edge">
<title>n_0_1_2_3_4_5_6&#45;&gt;n_2_6</title>
<path fill="none" stroke="black" d="M472.77,-440.12C484.9,-425.06 499,-407.57 510.27,-393.58"/>
<polygon fill="black" stroke="black" points="512.72,-396.11 516.27,-386.13 507.27,-391.72 512.72,-396.11"/>
</g>
<!-- n_0_1_4_5 -->
<g id="node3" class="node">
<title>n_0_1_4_5</title>
<polygon fill="none" stroke="black" points="164.12,-248 164.12,-289 234.38,-289 234.38,-248 164.12,-248"/>
<text text-anchor="start" x="176.38" y="-274.45" font-family="Times New Roman,serif" font-weight="bold" font-size="9.00">Primary (P)</text>
<text text-anchor="start" x="171.12" y="-265.45" font-family="Times New Roman,serif" font-weight="bold" font-size="9.00">Secondary (G)</text>
<text text-anchor="start" x="179.75" y="-256.45" font-family="Times New Roman,serif" font-weight="bold" font-size="9.00">Technical</text>
<polygon fill="none" stroke="black" points="234.38,-248 234.38,-289 295.62,-289 295.62,-248 234.38,-248"/>
<text text-anchor="start" x="241.38" y="-266.57" font-family="Times New Roman,serif" font-weight="bold" font-size="9.00">Primary (G)</text>
<polygon fill="none" stroke="black" points="163.12,-247 163.12,-290 296.62,-290 296.62,-247 163.12,-247"/>
</g>
<!-- n_0_1_3_4_5&#45;&gt;n_0_1_4_5 -->
<g id="edge2" class="edge">
<title>n_0_1_3_4_5&#45;&gt;n_0_1_4_5</title>
<path fill="none" stroke="black" d="M321.57,-337.05C305.95,-325.54 287.94,-312.27 272.05,-300.56"/>
<polygon fill="black" stroke="black" points="274.31,-297.89 264.18,-294.77 270.16,-303.52 274.31,-297.89"/>
</g>
<!-- n_3 -->
<g id="node10" class="node">
<title>n_3</title>
<polygon fill="none" stroke="black" points="342.5,-255.88 342.5,-281.12 411.25,-281.12 411.25,-255.88 342.5,-255.88"/>
<text text-anchor="start" x="349.5" y="-266.57" font-family="Times New Roman,serif" font-weight="bold" font-size="9.00">Secondary (P)</text>
<polygon fill="none" stroke="black" points="341.5,-254.88 341.5,-282.12 412.25,-282.12 412.25,-254.88 341.5,-254.88"/>
</g>
<!-- n_0_1_3_4_5&#45;&gt;n_3 -->
<g id="edge9" class="edge">
<title>n_0_1_3_4_5&#45;&gt;n_3</title>
<path fill="none" stroke="black" d="M365.68,-337.05C367.75,-324.51 370.18,-309.89 372.24,-297.47"/>
<polygon fill="black" stroke="black" points="375.65,-298.3 373.83,-287.86 368.74,-297.15 375.65,-298.3"/>
</g>
<!-- n_0_4_5 -->
<g id="node4" class="node">
<title>n_0_4_5</title>
<polygon fill="none" stroke="black" points="93.88,-163 93.88,-195 153.62,-195 153.62,-163 93.88,-163"/>
<text text-anchor="start" x="100.88" y="-180.45" font-family="Times New Roman,serif" font-weight="bold" font-size="9.00">Primary (P)</text>
<text text-anchor="start" x="104.25" y="-171.45" font-family="Times New Roman,serif" font-weight="bold" font-size="9.00">Technical</text>
<polygon fill="none" stroke="black" points="153.62,-163 153.62,-195 223.88,-195 223.88,-163 153.62,-163"/>
<text text-anchor="start" x="160.62" y="-177.07" font-family="Times New Roman,serif" font-weight="bold" font-size="9.00">Secondary (G)</text>
<polygon fill="none" stroke="black" points="92.88,-162 92.88,-196 224.88,-196 224.88,-162 92.88,-162"/>
</g>
<!-- n_0_1_4_5&#45;&gt;n_0_4_5 -->
<g id="edge3" class="edge">
<title>n_0_1_4_5&#45;&gt;n_0_4_5</title>
<path fill="none" stroke="black" d="M210.1,-243.13C201.44,-232.46 191.22,-219.87 182.2,-208.75"/>
<polygon fill="black" stroke="black" points="184.93,-206.56 175.92,-201 179.5,-210.97 184.93,-206.56"/>
</g>
<!-- n_1 -->
<g id="node9" class="node">
<title>n_1</title>
<polygon fill="none" stroke="black" points="271.25,-166.38 271.25,-191.62 332.5,-191.62 332.5,-166.38 271.25,-166.38"/>
<text text-anchor="start" x="278.25" y="-177.07" font-family="Times New Roman,serif" font-weight="bold" font-size="9.00">Primary (G)</text>
<polygon fill="none" stroke="black" points="270.25,-165.38 270.25,-192.62 333.5,-192.62 333.5,-165.38 270.25,-165.38"/>
</g>
<!-- n_0_1_4_5&#45;&gt;n_1 -->
<g id="edge8" class="edge">
<title>n_0_1_4_5&#45;&gt;n_1</title>
<path fill="none" stroke="black" d="M249.93,-243.13C259.61,-231.36 271.22,-217.25 281.01,-205.36"/>
<polygon fill="black" stroke="black" points="283.46,-207.89 287.11,-197.94 278.06,-203.44 283.46,-207.89"/>
</g>
<!-- n_0_5 -->
<g id="node5" class="node">
<title>n_0_5</title>
<polygon fill="none" stroke="black" points="33.5,-84.38 33.5,-109.62 93.25,-109.62 93.25,-84.38 33.5,-84.38"/>
<text text-anchor="start" x="40.5" y="-95.08" font-family="Times New Roman,serif" font-weight="bold" font-size="9.00">Primary (P)</text>
<polygon fill="none" stroke="black" points="93.25,-84.38 93.25,-109.62 146.25,-109.62 146.25,-84.38 93.25,-84.38"/>
<text text-anchor="start" x="100.25" y="-95.08" font-family="Times New Roman,serif" font-weight="bold" font-size="9.00">Technical</text>
<polygon fill="none" stroke="black" points="32.5,-83.38 32.5,-110.62 147.25,-110.62 147.25,-83.38 32.5,-83.38"/>
</g>
<!-- n_0_4_5&#45;&gt;n_0_5 -->
<g id="edge4" class="edge">
<title>n_0_4_5&#45;&gt;n_0_5</title>
<path fill="none" stroke="black" d="M141.82,-158.22C132.75,-147.71 121.5,-134.66 111.79,-123.41"/>
<polygon fill="black" stroke="black" points="114.57,-121.28 105.39,-115.99 109.27,-125.85 114.57,-121.28"/>
</g>
<!-- n_4 -->
<g id="node8" class="node">
<title>n_4</title>
<polygon fill="none" stroke="black" points="193.75,-84.38 193.75,-109.62 264,-109.62 264,-84.38 193.75,-84.38"/>
<text text-anchor="start" x="200.75" y="-95.08" font-family="Times New Roman,serif" font-weight="bold" font-size="9.00">Secondary (G)</text>
<polygon fill="none" stroke="black" points="192.75,-83.38 192.75,-110.62 265,-110.62 265,-83.38 192.75,-83.38"/>
</g>
<!-- n_0_4_5&#45;&gt;n_4 -->
<g id="edge7" class="edge">
<title>n_0_4_5&#45;&gt;n_4</title>
<path fill="none" stroke="black" d="M176.18,-158.22C185.38,-147.71 196.79,-134.66 206.64,-123.41"/>
<polygon fill="black" stroke="black" points="209.19,-125.81 213.14,-115.98 203.92,-121.2 209.19,-125.81"/>
</g>
<!-- n_0 -->
<g id="node6" class="node">
<title>n_0</title>
<polygon fill="none" stroke="black" points="9,-5.38 9,-30.62 68.75,-30.62 68.75,-5.38 9,-5.38"/>
<text text-anchor="start" x="16" y="-16.07" font-family="Times New Roman,serif" font-weight="bold" font-size="9.00">Primary (P)</text>
<polygon fill="none" stroke="black" points="8,-4.38 8,-31.62 69.75,-31.62 69.75,-4.38 8,-4.38"/>
</g>
<!-- n_0_5&#45;&gt;n_0 -->
<g id="edge5" class="edge">
<title>n_0_5&#45;&gt;n_0</title>
<path fill="none" stroke="black" d="M78.81,-79.29C72.24,-69.37 63.76,-56.57 56.31,-45.32"/>
<polygon fill="black" stroke="black" points="59.37,-43.61 50.93,-37.2 53.54,-47.47 59.37,-43.61"/>
</g>
<!-- n_5 -->
<g id="node7" class="node">
<title>n_5</title>
<polygon fill="none" stroke="black" points="115.38,-5.38 115.38,-30.62 168.38,-30.62 168.38,-5.38 115.38,-5.38"/>
<text text-anchor="start" x="122.38" y="-16.07" font-family="Times New Roman,serif" font-weight="bold" font-size="9.00">Technical</text>
<polygon fill="none" stroke="black" points="114.38,-4.38 114.38,-31.62 169.38,-31.62 169.38,-4.38 114.38,-4.38"/>
</g>
<!-- n_0_5&#45;&gt;n_5 -->
<g id="edge6" class="edge">
<title>n_0_5&#45;&gt;n_5</title>
<path fill="none" stroke="black" d="M101.16,-79.29C107.86,-69.37 116.5,-56.57 124.1,-45.32"/>
<polygon fill="black" stroke="black" points="126.89,-47.44 129.59,-37.2 121.09,-43.52 126.89,-47.44"/>
</g>
<!-- n_2 -->
<g id="node12" class="node">
<title>n_2</title>
<polygon fill="none" stroke="black" points="489.75,-255.88 489.75,-281.12 542,-281.12 542,-255.88 489.75,-255.88"/>
<text text-anchor="start" x="496.75" y="-266.57" font-family="Times New Roman,serif" font-weight="bold" font-size="9.00">Preschool</text>
<polygon fill="none" stroke="black" points="488.75,-254.88 488.75,-282.12 543,-282.12 543,-254.88 488.75,-254.88"/>
</g>
<!-- n_2_6&#45;&gt;n_2 -->
<g id="edge11" class="edge">
<title>n_2_6&#45;&gt;n_2</title>
<path fill="none" stroke="black" d="M528.26,-349.19C526.06,-335.03 522.86,-314.46 520.27,-297.76"/>
<polygon fill="black" stroke="black" points="523.74,-297.28 518.74,-287.94 516.82,-298.35 523.74,-297.28"/>
</g>
<!-- n_6 -->
<g id="node13" class="node">
<title>n_6</title>
<polygon fill="none" stroke="black" points="588.62,-255.88 588.62,-281.12 643.12,-281.12 643.12,-255.88 588.62,-255.88"/>
<text text-anchor="start" x="595.62" y="-266.57" font-family="Times New Roman,serif" font-weight="bold" font-size="9.00">University</text>
<polygon fill="none" stroke="black" points="587.62,-254.88 587.62,-282.12 644.12,-282.12 644.12,-254.88 587.62,-254.88"/>
</g>
<!-- n_2_6&#45;&gt;n_6 -->
<g id="edge12" class="edge">
<title>n_2_6&#45;&gt;n_6</title>
<path fill="none" stroke="black" d="M545.68,-349.19C558.89,-334.2 578.41,-312.04 593.51,-294.89"/>
<polygon fill="black" stroke="black" points="595.97,-297.39 599.95,-287.58 590.72,-292.77 595.97,-297.39"/>
</g>
</g>
</svg>
