<?xml version="1.0" encoding="UTF-8" standalone="no"?>
<!DOCTYPE svg PUBLIC "-//W3C//DTD SVG 1.1//EN"
 "http://www.w3.org/Graphics/SVG/1.1/DTD/svg11.dtd">
<!-- Generated by graphviz version 10.0.1 (20240210.2158)
 -->
<!-- Title: ND Pages: 1 -->
<svg width="689pt" height="414pt"
 viewBox="0.00 0.00 689.12 414.00" xmlns="http://www.w3.org/2000/svg" xmlns:xlink="http://www.w3.org/1999/xlink">
<g id="graph0" class="graph" transform="scale(1 1) rotate(0) translate(4 410)">
<title>ND</title>
<polygon fill="white" stroke="none" points="-4,4 -4,-410 685.12,-410 685.12,4 -4,4"/>
<!-- n_0_1_2_3_4_5_6 -->
<g id="node1" class="node">
<title>n_0_1_2_3_4_5_6</title>
<polygon fill="none" stroke="black" points="399.62,-342 399.62,-401 469.88,-401 469.88,-342 399.62,-342"/>
<text text-anchor="start" x="411.12" y="-386.45" font-family="Times New Roman,serif" font-weight="bold" font-size="9.00">Primary (G)</text>
<text text-anchor="start" x="415.62" y="-377.45" font-family="Times New Roman,serif" font-weight="bold" font-size="9.00">Preschool</text>
<text text-anchor="start" x="407.38" y="-368.45" font-family="Times New Roman,serif" font-weight="bold" font-size="9.00">Secondary (P)</text>
<text text-anchor="start" x="406.62" y="-359.45" font-family="Times New Roman,serif" font-weight="bold" font-size="9.00">Secondary (G)</text>
<text text-anchor="start" x="414.5" y="-350.45" font-family="Times New Roman,serif" font-weight="bold" font-size="9.00">University</text>
<polygon fill="none" stroke="black" points="469.88,-342 469.88,-401 529.62,-401 529.62,-342 469.88,-342"/>
<text text-anchor="start" x="476.88" y="-372.95" font-family="Times New Roman,serif" font-weight="bold" font-size="9.00">Primary (P)</text>
<text text-anchor="start" x="480.25" y="-363.95" font-family="Times New Roman,serif" font-weight="bold" font-size="9.00">Technical</text>
<polygon fill="none" stroke="black" points="398.62,-341 398.62,-402 530.62,-402 530.62,-341 398.62,-341"/>
</g>
<!-- n_1_2_3_4_6 -->
<g id="node2" class="node">
<title>n_1_2_3_4_6</title>
<polygon fill="none" stroke="black" points="309.12,-248 309.12,-289 379.38,-289 379.38,-248 309.12,-248"/>
<text text-anchor="start" x="320.62" y="-274.45" font-family="Times New Roman,serif" font-weight="bold" font-size="9.00">Primary (G)</text>
<text text-anchor="start" x="316.12" y="-265.45" font-family="Times New Roman,serif" font-weight="bold" font-size="9.00">Secondary (G)</text>
<text text-anchor="start" x="324" y="-256.45" font-family="Times New Roman,serif" font-weight="bold" font-size="9.00">University</text>
<polygon fill="none" stroke="black" points="379.38,-248 379.38,-289 448.12,-289 448.12,-248 379.38,-248"/>
<text text-anchor="start" x="394.62" y="-269.95" font-family="Times New Roman,serif" font-weight="bold" font-size="9.00">Preschool</text>
<text text-anchor="start" x="386.38" y="-260.95" font-family="Times New Roman,serif" font-weight="bold" font-size="9.00">Secondary (P)</text>
<polygon fill="none" stroke="black" points="308.12,-247 308.12,-290 449.12,-290 449.12,-247 308.12,-247"/>
</g>
<!-- n_0_1_2_3_4_5_6&#45;&gt;n_1_2_3_4_6 -->
<g id="edge1" class="edge">
<title>n_0_1_2_3_4_5_6&#45;&gt;n_1_2_3_4_6</title>
<path fill="none" stroke="black" d="M436.23,-337.15C426.73,-326 416.15,-313.58 406.68,-302.45"/>
<polygon fill="black" stroke="black" points="409.5,-300.36 400.35,-295.01 404.17,-304.9 409.5,-300.36"/>
</g>
<!-- n_0_5 -->
<g id="node11" class="node">
<title>n_0_5</title>
<polygon fill="none" stroke="black" points="495.25,-255.88 495.25,-281.12 555,-281.12 555,-255.88 495.25,-255.88"/>
<text text-anchor="start" x="502.25" y="-266.57" font-family="Times New Roman,serif" font-weight="bold" font-size="9.00">Primary (P)</text>
<polygon fill="none" stroke="black" points="555,-255.88 555,-281.12 608,-281.12 608,-255.88 555,-255.88"/>
<text text-anchor="start" x="562" y="-266.57" font-family="Times New Roman,serif" font-weight="bold" font-size="9.00">Technical</text>
<polygon fill="none" stroke="black" points="494.25,-254.88 494.25,-282.12 609,-282.12 609,-254.88 494.25,-254.88"/>
</g>
<!-- n_0_1_2_3_4_5_6&#45;&gt;n_0_5 -->
<g id="edge10" class="edge">
<title>n_0_1_2_3_4_5_6&#45;&gt;n_0_5</title>
<path fill="none" stroke="black" d="M493.35,-337.15C505.26,-323.33 518.83,-307.57 529.89,-294.74"/>
<polygon fill="black" stroke="black" points="532.22,-297.39 536.1,-287.53 526.92,-292.82 532.22,-297.39"/>
</g>
<!-- n_1_4_6 -->
<g id="node3" class="node">
<title>n_1_4_6</title>
<polygon fill="none" stroke="black" points="155.25,-163 155.25,-195 225.5,-195 225.5,-163 155.25,-163"/>
<text text-anchor="start" x="166.75" y="-180.45" font-family="Times New Roman,serif" font-weight="bold" font-size="9.00">Primary (G)</text>
<text text-anchor="start" x="162.25" y="-171.45" font-family="Times New Roman,serif" font-weight="bold" font-size="9.00">Secondary (G)</text>
<polygon fill="none" stroke="black" points="225.5,-163 225.5,-195 280,-195 280,-163 225.5,-163"/>
<text text-anchor="start" x="232.5" y="-177.07" font-family="Times New Roman,serif" font-weight="bold" font-size="9.00">University</text>
<polygon fill="none" stroke="black" points="154.25,-162 154.25,-196 281,-196 281,-162 154.25,-162"/>
</g>
<!-- n_1_2_3_4_6&#45;&gt;n_1_4_6 -->
<g id="edge2" class="edge">
<title>n_1_2_3_4_6&#45;&gt;n_1_4_6</title>
<path fill="none" stroke="black" d="M333.78,-243.13C312.17,-231.38 286.27,-217.31 264.41,-205.43"/>
<polygon fill="black" stroke="black" points="266.16,-202.39 255.7,-200.69 262.81,-208.54 266.16,-202.39"/>
</g>
<!-- n_2_3 -->
<g id="node8" class="node">
<title>n_2_3</title>
<polygon fill="none" stroke="black" points="327.12,-166.38 327.12,-191.62 379.38,-191.62 379.38,-166.38 327.12,-166.38"/>
<text text-anchor="start" x="334.12" y="-177.07" font-family="Times New Roman,serif" font-weight="bold" font-size="9.00">Preschool</text>
<polygon fill="none" stroke="black" points="379.38,-166.38 379.38,-191.62 448.12,-191.62 448.12,-166.38 379.38,-166.38"/>
<text text-anchor="start" x="386.38" y="-177.07" font-family="Times New Roman,serif" font-weight="bold" font-size="9.00">Secondary (P)</text>
<polygon fill="none" stroke="black" points="326.12,-165.38 326.12,-192.62 449.12,-192.62 449.12,-165.38 326.12,-165.38"/>
</g>
<!-- n_1_2_3_4_6&#45;&gt;n_2_3 -->
<g id="edge7" class="edge">
<title>n_1_2_3_4_6&#45;&gt;n_2_3</title>
<path fill="none" stroke="black" d="M381.13,-243.13C382.25,-232.28 383.57,-219.45 384.72,-208.19"/>
<polygon fill="black" stroke="black" points="388.2,-208.58 385.75,-198.28 381.24,-207.87 388.2,-208.58"/>
</g>
<!-- n_1_4 -->
<g id="node4" class="node">
<title>n_1_4</title>
<polygon fill="none" stroke="black" points="29.88,-84.38 29.88,-109.62 91.12,-109.62 91.12,-84.38 29.88,-84.38"/>
<text text-anchor="start" x="36.88" y="-95.08" font-family="Times New Roman,serif" font-weight="bold" font-size="9.00">Primary (G)</text>
<polygon fill="none" stroke="black" points="91.12,-84.38 91.12,-109.62 161.38,-109.62 161.38,-84.38 91.12,-84.38"/>
<text text-anchor="start" x="98.12" y="-95.08" font-family="Times New Roman,serif" font-weight="bold" font-size="9.00">Secondary (G)</text>
<polygon fill="none" stroke="black" points="28.88,-83.38 28.88,-110.62 162.38,-110.62 162.38,-83.38 28.88,-83.38"/>
</g>
<!-- n_1_4_6&#45;&gt;n_1_4 -->
<g id="edge3" class="edge">
<title>n_1_4_6&#45;&gt;n_1_4</title>
<path fill="none" stroke="black" d="M187.15,-158.02C170,-146.77 148.52,-132.68 130.67,-120.98"/>
<polygon fill="black" stroke="black" points="132.73,-118.15 122.45,-115.59 128.89,-124 132.73,-118.15"/>
</g>
<!-- n_6 -->
<g id="node7" class="node">
<title>n_6</title>
<polygon fill="none" stroke="black" points="208.38,-84.38 208.38,-109.62 262.88,-109.62 262.88,-84.38 208.38,-84.38"/>
<text text-anchor="start" x="215.38" y="-95.08" font-family="Times New Roman,serif" font-weight="bold" font-size="9.00">University</text>
<polygon fill="none" stroke="black" points="207.38,-83.38 207.38,-110.62 263.88,-110.62 263.88,-83.38 207.38,-83.38"/>
</g>
<!-- n_1_4_6&#45;&gt;n_6 -->
<g id="edge6" class="edge">
<title>n_1_4_6&#45;&gt;n_6</title>
<path fill="none" stroke="black" d="M222.07,-158.22C224.28,-148.44 226.97,-136.46 229.38,-125.77"/>
<polygon fill="black" stroke="black" points="232.72,-126.84 231.5,-116.32 225.89,-125.31 232.72,-126.84"/>
</g>
<!-- n_1 -->
<g id="node5" class="node">
<title>n_1</title>
<polygon fill="none" stroke="black" points="9,-5.38 9,-30.62 70.25,-30.62 70.25,-5.38 9,-5.38"/>
<text text-anchor="start" x="16" y="-16.07" font-family="Times New Roman,serif" font-weight="bold" font-size="9.00">Primary (G)</text>
<polygon fill="none" stroke="black" points="8,-4.38 8,-31.62 71.25,-31.62 71.25,-4.38 8,-4.38"/>
</g>
<!-- n_1_4&#45;&gt;n_1 -->
<g id="edge4" class="edge">
<title>n_1_4&#45;&gt;n_1</title>
<path fill="none" stroke="black" d="M83.47,-79.29C76.19,-69.27 66.76,-56.31 58.52,-44.98"/>
<polygon fill="black" stroke="black" points="61.55,-43.19 52.84,-37.17 55.89,-47.31 61.55,-43.19"/>
</g>
<!-- n_4 -->
<g id="node6" class="node">
<title>n_4</title>
<polygon fill="none" stroke="black" points="117.5,-5.38 117.5,-30.62 187.75,-30.62 187.75,-5.38 117.5,-5.38"/>
<text text-anchor="start" x="124.5" y="-16.07" font-family="Times New Roman,serif" font-weight="bold" font-size="9.00">Secondary (G)</text>
<polygon fill="none" stroke="black" points="116.5,-4.38 116.5,-31.62 188.75,-31.62 188.75,-4.38 116.5,-4.38"/>
</g>
<!-- n_1_4&#45;&gt;n_4 -->
<g id="edge5" class="edge">
<title>n_1_4&#45;&gt;n_4</title>
<path fill="none" stroke="black" d="M107.99,-79.29C115.41,-69.27 125,-56.31 133.39,-44.98"/>
<polygon fill="black" stroke="black" points="136.05,-47.28 139.18,-37.16 130.42,-43.11 136.05,-47.28"/>
</g>
<!-- n_2 -->
<g id="node9" class="node">
<title>n_2</title>
<polygon fill="none" stroke="black" points="344.5,-84.38 344.5,-109.62 396.75,-109.62 396.75,-84.38 344.5,-84.38"/>
<text text-anchor="start" x="351.5" y="-95.08" font-family="Times New Roman,serif" font-weight="bold" font-size="9.00">Preschool</text>
<polygon fill="none" stroke="black" points="343.5,-83.38 343.5,-110.62 397.75,-110.62 397.75,-83.38 343.5,-83.38"/>
</g>
<!-- n_2_3&#45;&gt;n_2 -->
<g id="edge8" class="edge">
<title>n_2_3&#45;&gt;n_2</title>
<path fill="none" stroke="black" d="M384.02,-161.03C381.86,-150.85 379.05,-137.65 376.57,-125.96"/>
<polygon fill="black" stroke="black" points="380.04,-125.48 374.54,-116.42 373.19,-126.93 380.04,-125.48"/>
</g>
<!-- n_3 -->
<g id="node10" class="node">
<title>n_3</title>
<polygon fill="none" stroke="black" points="444.25,-84.38 444.25,-109.62 513,-109.62 513,-84.38 444.25,-84.38"/>
<text text-anchor="start" x="451.25" y="-95.08" font-family="Times New Roman,serif" font-weight="bold" font-size="9.00">Secondary (P)</text>
<polygon fill="none" stroke="black" points="443.25,-83.38 443.25,-110.62 514,-110.62 514,-83.38 443.25,-83.38"/>
</g>
<!-- n_2_3&#45;&gt;n_3 -->
<g id="edge9" class="edge">
<title>n_2_3&#45;&gt;n_3</title>
<path fill="none" stroke="black" d="M406.92,-161.03C419.71,-149.79 436.69,-134.87 450.92,-122.36"/>
<polygon fill="black" stroke="black" points="453.02,-125.17 458.22,-115.94 448.4,-119.91 453.02,-125.17"/>
</g>
<!-- n_0 -->
<g id="node12" class="node">
<title>n_0</title>
<polygon fill="none" stroke="black" points="512.75,-166.38 512.75,-191.62 572.5,-191.62 572.5,-166.38 512.75,-166.38"/>
<text text-anchor="start" x="519.75" y="-177.07" font-family="Times New Roman,serif" font-weight="bold" font-size="9.00">Primary (P)</text>
<polygon fill="none" stroke="black" points="511.75,-165.38 511.75,-192.62 573.5,-192.62 573.5,-165.38 511.75,-165.38"/>
</g>
<!-- n_0_5&#45;&gt;n_0 -->
<g id="edge11" class="edge">
<title>n_0_5&#45;&gt;n_0</title>
<path fill="none" stroke="black" d="M549.89,-250.63C548.64,-238.52 546.94,-221.94 545.49,-207.88"/>
<polygon fill="black" stroke="black" points="549.01,-207.91 544.51,-198.32 542.05,-208.63 549.01,-207.91"/>
</g>
<!-- n_5 -->
<g id="node13" class="node">
<title>n_5</title>
<polygon fill="none" stroke="black" points="619.12,-166.38 619.12,-191.62 672.12,-191.62 672.12,-166.38 619.12,-166.38"/>
<text text-anchor="start" x="626.12" y="-177.07" font-family="Times New Roman,serif" font-weight="bold" font-size="9.00">Technical</text>
<polygon fill="none" stroke="black" points="618.12,-165.38 618.12,-192.62 673.12,-192.62 673.12,-165.38 618.12,-165.38"/>
</g>
<!-- n_0_5&#45;&gt;n_5 -->
<g id="edge12" class="edge">
<title>n_0_5&#45;&gt;n_5</title>
<path fill="none" stroke="black" d="M569.75,-250.63C583.79,-237.56 603.45,-219.25 619.24,-204.56"/>
<polygon fill="black" stroke="black" points="621.51,-207.23 626.45,-197.85 616.74,-202.1 621.51,-207.23"/>
</g>
</g>
</svg>
