<?xml version="1.0" encoding="UTF-8" standalone="no"?>
<!DOCTYPE svg PUBLIC "-//W3C//DTD SVG 1.1//EN"
 "http://www.w3.org/Graphics/SVG/1.1/DTD/svg11.dtd">
<!-- Generated by graphviz version 10.0.1 (20240210.2158)
 -->
<!-- Title: ND Pages: 1 -->
<svg width="599pt" height="526pt"
 viewBox="0.00 0.00 598.88 526.00" xmlns="http://www.w3.org/2000/svg" xmlns:xlink="http://www.w3.org/1999/xlink">
<g id="graph0" class="graph" transform="scale(1 1) rotate(0) translate(4 522)">
<title>ND</title>
<polygon fill="white" stroke="none" points="-4,4 -4,-522 594.88,-522 594.88,4 -4,4"/>
<!-- n_0_1_2_3_4_5_6 -->
<g id="node1" class="node">
<title>n_0_1_2_3_4_5_6</title>
<polygon fill="none" stroke="black" points="384.38,-445 384.38,-513 454.62,-513 454.62,-445 384.38,-445"/>
<text text-anchor="start" x="396.62" y="-498.45" font-family="Times New Roman,serif" font-weight="bold" font-size="9.00">Primary (P)</text>
<text text-anchor="start" x="395.88" y="-489.45" font-family="Times New Roman,serif" font-weight="bold" font-size="9.00">Primary (G)</text>
<text text-anchor="start" x="392.12" y="-480.45" font-family="Times New Roman,serif" font-weight="bold" font-size="9.00">Secondary (P)</text>
<text text-anchor="start" x="391.38" y="-471.45" font-family="Times New Roman,serif" font-weight="bold" font-size="9.00">Secondary (G)</text>
<text text-anchor="start" x="400" y="-462.45" font-family="Times New Roman,serif" font-weight="bold" font-size="9.00">Technical</text>
<text text-anchor="start" x="399.25" y="-453.45" font-family="Times New Roman,serif" font-weight="bold" font-size="9.00">University</text>
<polygon fill="none" stroke="black" points="454.62,-445 454.62,-513 506.88,-513 506.88,-445 454.62,-445"/>
<text text-anchor="start" x="461.62" y="-477.07" font-family="Times New Roman,serif" font-weight="bold" font-size="9.00">Preschool</text>
<polygon fill="none" stroke="black" points="383.38,-444 383.38,-514 507.88,-514 507.88,-444 383.38,-444"/>
</g>
<!-- n_0_1_3_4_5_6 -->
<g id="node2" class="node">
<title>n_0_1_3_4_5_6</title>
<polygon fill="none" stroke="black" points="305.12,-342 305.12,-392 375.38,-392 375.38,-342 305.12,-342"/>
<text text-anchor="start" x="317.38" y="-377.45" font-family="Times New Roman,serif" font-weight="bold" font-size="9.00">Primary (P)</text>
<text text-anchor="start" x="316.62" y="-368.45" font-family="Times New Roman,serif" font-weight="bold" font-size="9.00">Primary (G)</text>
<text text-anchor="start" x="312.12" y="-359.45" font-family="Times New Roman,serif" font-weight="bold" font-size="9.00">Secondary (G)</text>
<text text-anchor="start" x="320.75" y="-350.45" font-family="Times New Roman,serif" font-weight="bold" font-size="9.00">Technical</text>
<polygon fill="none" stroke="black" points="375.38,-342 375.38,-392 444.12,-392 444.12,-342 375.38,-342"/>
<text text-anchor="start" x="382.38" y="-368.45" font-family="Times New Roman,serif" font-weight="bold" font-size="9.00">Secondary (P)</text>
<text text-anchor="start" x="389.5" y="-359.45" font-family="Times New Roman,serif" font-weight="bold" font-size="9.00">University</text>
<polygon fill="none" stroke="black" points="304.12,-341 304.12,-393 445.12,-393 445.12,-341 304.12,-341"/>
</g>
<!-- n_0_1_2_3_4_5_6&#45;&gt;n_0_1_3_4_5_6 -->
<g id="edge1" class="edge">
<title>n_0_1_2_3_4_5_6&#45;&gt;n_0_1_3_4_5_6</title>
<path fill="none" stroke="black" d="M421.19,-440.14C414.12,-429.19 406.39,-417.22 399.3,-406.23"/>
<polygon fill="black" stroke="black" points="402.46,-404.66 394.09,-398.16 396.57,-408.46 402.46,-404.66"/>
</g>
<!-- n_2 -->
<g id="node13" class="node">
<title>n_2</title>
<polygon fill="none" stroke="black" points="491.5,-354.38 491.5,-379.62 543.75,-379.62 543.75,-354.38 491.5,-354.38"/>
<text text-anchor="start" x="498.5" y="-365.07" font-family="Times New Roman,serif" font-weight="bold" font-size="9.00">Preschool</text>
<polygon fill="none" stroke="black" points="490.5,-353.38 490.5,-380.62 544.75,-380.62 544.75,-353.38 490.5,-353.38"/>
</g>
<!-- n_0_1_2_3_4_5_6&#45;&gt;n_2 -->
<g id="edge12" class="edge">
<title>n_0_1_2_3_4_5_6&#45;&gt;n_2</title>
<path fill="none" stroke="black" d="M470.4,-440.14C480.29,-425.04 491.43,-408.02 500.4,-394.31"/>
<polygon fill="black" stroke="black" points="503.13,-396.53 505.68,-386.25 497.28,-392.7 503.13,-396.53"/>
</g>
<!-- n_0_1_4_5 -->
<g id="node3" class="node">
<title>n_0_1_4_5</title>
<polygon fill="none" stroke="black" points="222.62,-248 222.62,-289 292.88,-289 292.88,-248 222.62,-248"/>
<text text-anchor="start" x="234.12" y="-274.45" font-family="Times New Roman,serif" font-weight="bold" font-size="9.00">Primary (G)</text>
<text text-anchor="start" x="229.62" y="-265.45" font-family="Times New Roman,serif" font-weight="bold" font-size="9.00">Secondary (G)</text>
<text text-anchor="start" x="238.25" y="-256.45" font-family="Times New Roman,serif" font-weight="bold" font-size="9.00">Technical</text>
<polygon fill="none" stroke="black" points="292.88,-248 292.88,-289 352.62,-289 352.62,-248 292.88,-248"/>
<text text-anchor="start" x="299.88" y="-266.57" font-family="Times New Roman,serif" font-weight="bold" font-size="9.00">Primary (P)</text>
<polygon fill="none" stroke="black" points="221.62,-247 221.62,-290 353.62,-290 353.62,-247 221.62,-247"/>
</g>
<!-- n_0_1_3_4_5_6&#45;&gt;n_0_1_4_5 -->
<g id="edge2" class="edge">
<title>n_0_1_3_4_5_6&#45;&gt;n_0_1_4_5</title>
<path fill="none" stroke="black" d="M348.52,-337.05C338.63,-326.08 327.3,-313.51 317.12,-302.22"/>
<polygon fill="black" stroke="black" points="319.91,-300.08 310.61,-295 314.71,-304.77 319.91,-300.08"/>
</g>
<!-- n_3_6 -->
<g id="node10" class="node">
<title>n_3_6</title>
<polygon fill="none" stroke="black" points="400,-255.88 400,-281.12 468.75,-281.12 468.75,-255.88 400,-255.88"/>
<text text-anchor="start" x="407" y="-266.57" font-family="Times New Roman,serif" font-weight="bold" font-size="9.00">Secondary (P)</text>
<polygon fill="none" stroke="black" points="468.75,-255.88 468.75,-281.12 523.25,-281.12 523.25,-255.88 468.75,-255.88"/>
<text text-anchor="start" x="475.75" y="-266.57" font-family="Times New Roman,serif" font-weight="bold" font-size="9.00">University</text>
<polygon fill="none" stroke="black" points="399,-254.88 399,-282.12 524.25,-282.12 524.25,-254.88 399,-254.88"/>
</g>
<!-- n_0_1_3_4_5_6&#45;&gt;n_3_6 -->
<g id="edge9" class="edge">
<title>n_0_1_3_4_5_6&#45;&gt;n_3_6</title>
<path fill="none" stroke="black" d="M400.73,-337.05C412.85,-323.6 427.12,-307.77 438.8,-294.81"/>
<polygon fill="black" stroke="black" points="441.31,-297.26 445.41,-287.49 436.11,-292.57 441.31,-297.26"/>
</g>
<!-- n_1_4_5 -->
<g id="node4" class="node">
<title>n_1_4_5</title>
<polygon fill="none" stroke="black" points="103,-163 103,-195 173.25,-195 173.25,-163 103,-163"/>
<text text-anchor="start" x="114.5" y="-180.45" font-family="Times New Roman,serif" font-weight="bold" font-size="9.00">Primary (G)</text>
<text text-anchor="start" x="110" y="-171.45" font-family="Times New Roman,serif" font-weight="bold" font-size="9.00">Secondary (G)</text>
<polygon fill="none" stroke="black" points="173.25,-163 173.25,-195 226.25,-195 226.25,-163 173.25,-163"/>
<text text-anchor="start" x="180.25" y="-177.07" font-family="Times New Roman,serif" font-weight="bold" font-size="9.00">Technical</text>
<polygon fill="none" stroke="black" points="102,-162 102,-196 227.25,-196 227.25,-162 102,-162"/>
</g>
<!-- n_0_1_4_5&#45;&gt;n_1_4_5 -->
<g id="edge3" class="edge">
<title>n_0_1_4_5&#45;&gt;n_1_4_5</title>
<path fill="none" stroke="black" d="M253.36,-243.13C237.32,-231.71 218.18,-218.1 201.78,-206.43"/>
<polygon fill="black" stroke="black" points="203.91,-203.65 193.73,-200.7 199.85,-209.35 203.91,-203.65"/>
</g>
<!-- n_0 -->
<g id="node9" class="node">
<title>n_0</title>
<polygon fill="none" stroke="black" points="273.75,-166.38 273.75,-191.62 333.5,-191.62 333.5,-166.38 273.75,-166.38"/>
<text text-anchor="start" x="280.75" y="-177.07" font-family="Times New Roman,serif" font-weight="bold" font-size="9.00">Primary (P)</text>
<polygon fill="none" stroke="black" points="272.75,-165.38 272.75,-192.62 334.5,-192.62 334.5,-165.38 272.75,-165.38"/>
</g>
<!-- n_0_1_4_5&#45;&gt;n_0 -->
<g id="edge8" class="edge">
<title>n_0_1_4_5&#45;&gt;n_0</title>
<path fill="none" stroke="black" d="M292.08,-243.13C294.09,-232.17 296.46,-219.18 298.54,-207.84"/>
<polygon fill="black" stroke="black" points="301.93,-208.73 300.29,-198.26 295.04,-207.47 301.93,-208.73"/>
</g>
<!-- n_1_4 -->
<g id="node5" class="node">
<title>n_1_4</title>
<polygon fill="none" stroke="black" points="29.88,-84.38 29.88,-109.62 91.12,-109.62 91.12,-84.38 29.88,-84.38"/>
<text text-anchor="start" x="36.88" y="-95.08" font-family="Times New Roman,serif" font-weight="bold" font-size="9.00">Primary (G)</text>
<polygon fill="none" stroke="black" points="91.12,-84.38 91.12,-109.62 161.38,-109.62 161.38,-84.38 91.12,-84.38"/>
<text text-anchor="start" x="98.12" y="-95.08" font-family="Times New Roman,serif" font-weight="bold" font-size="9.00">Secondary (G)</text>
<polygon fill="none" stroke="black" points="28.88,-83.38 28.88,-110.62 162.38,-110.62 162.38,-83.38 28.88,-83.38"/>
</g>
<!-- n_1_4_5&#45;&gt;n_1_4 -->
<g id="edge4" class="edge">
<title>n_1_4_5&#45;&gt;n_1_4</title>
<path fill="none" stroke="black" d="M147.57,-158.22C138.5,-147.71 127.25,-134.66 117.54,-123.41"/>
<polygon fill="black" stroke="black" points="120.32,-121.28 111.14,-115.99 115.02,-125.85 120.32,-121.28"/>
</g>
<!-- n_5 -->
<g id="node8" class="node">
<title>n_5</title>
<polygon fill="none" stroke="black" points="208.12,-84.38 208.12,-109.62 261.12,-109.62 261.12,-84.38 208.12,-84.38"/>
<text text-anchor="start" x="215.12" y="-95.08" font-family="Times New Roman,serif" font-weight="bold" font-size="9.00">Technical</text>
<polygon fill="none" stroke="black" points="207.12,-83.38 207.12,-110.62 262.12,-110.62 262.12,-83.38 207.12,-83.38"/>
</g>
<!-- n_1_4_5&#45;&gt;n_5 -->
<g id="edge7" class="edge">
<title>n_1_4_5&#45;&gt;n_5</title>
<path fill="none" stroke="black" d="M181.93,-158.22C191.13,-147.71 202.54,-134.66 212.39,-123.41"/>
<polygon fill="black" stroke="black" points="214.94,-125.81 218.89,-115.98 209.67,-121.2 214.94,-125.81"/>
</g>
<!-- n_1 -->
<g id="node6" class="node">
<title>n_1</title>
<polygon fill="none" stroke="black" points="9,-5.38 9,-30.62 70.25,-30.62 70.25,-5.38 9,-5.38"/>
<text text-anchor="start" x="16" y="-16.07" font-family="Times New Roman,serif" font-weight="bold" font-size="9.00">Primary (G)</text>
<polygon fill="none" stroke="black" points="8,-4.38 8,-31.62 71.25,-31.62 71.25,-4.38 8,-4.38"/>
</g>
<!-- n_1_4&#45;&gt;n_1 -->
<g id="edge5" class="edge">
<title>n_1_4&#45;&gt;n_1</title>
<path fill="none" stroke="black" d="M83.47,-79.29C76.19,-69.27 66.76,-56.31 58.52,-44.98"/>
<polygon fill="black" stroke="black" points="61.55,-43.19 52.84,-37.17 55.89,-47.31 61.55,-43.19"/>
</g>
<!-- n_4 -->
<g id="node7" class="node">
<title>n_4</title>
<polygon fill="none" stroke="black" points="117.5,-5.38 117.5,-30.62 187.75,-30.62 187.75,-5.38 117.5,-5.38"/>
<text text-anchor="start" x="124.5" y="-16.07" font-family="Times New Roman,serif" font-weight="bold" font-size="9.00">Secondary (G)</text>
<polygon fill="none" stroke="black" points="116.5,-4.38 116.5,-31.62 188.75,-31.62 188.75,-4.38 116.5,-4.38"/>
</g>
<!-- n_1_4&#45;&gt;n_4 -->
<g id="edge6" class="edge">
<title>n_1_4&#45;&gt;n_4</title>
<path fill="none" stroke="black" d="M107.99,-79.29C115.41,-69.27 125,-56.31 133.39,-44.98"/>
<polygon fill="black" stroke="black" points="136.05,-47.28 139.18,-37.16 130.42,-43.11 136.05,-47.28"/>
</g>
<!-- n_3 -->
<g id="node11" class="node">
<title>n_3</title>
<polygon fill="none" stroke="black" points="411.25,-166.38 411.25,-191.62 480,-191.62 480,-166.38 411.25,-166.38"/>
<text text-anchor="start" x="418.25" y="-177.07" font-family="Times New Roman,serif" font-weight="bold" font-size="9.00">Secondary (P)</text>
<polygon fill="none" stroke="black" points="410.25,-165.38 410.25,-192.62 481,-192.62 481,-165.38 410.25,-165.38"/>
</g>
<!-- n_3_6&#45;&gt;n_3 -->
<g id="edge10" class="edge">
<title>n_3_6&#45;&gt;n_3</title>
<path fill="none" stroke="black" d="M458.54,-250.63C456.33,-238.52 453.29,-221.94 450.72,-207.88"/>
<polygon fill="black" stroke="black" points="454.21,-207.52 448.97,-198.31 447.33,-208.77 454.21,-207.52"/>
</g>
<!-- n_6 -->
<g id="node12" class="node">
<title>n_6</title>
<polygon fill="none" stroke="black" points="527.38,-166.38 527.38,-191.62 581.88,-191.62 581.88,-166.38 527.38,-166.38"/>
<text text-anchor="start" x="534.38" y="-177.07" font-family="Times New Roman,serif" font-weight="bold" font-size="9.00">University</text>
<polygon fill="none" stroke="black" points="526.38,-165.38 526.38,-192.62 582.88,-192.62 582.88,-165.38 526.38,-165.38"/>
</g>
<!-- n_3_6&#45;&gt;n_6 -->
<g id="edge11" class="edge">
<title>n_3_6&#45;&gt;n_6</title>
<path fill="none" stroke="black" d="M479.56,-250.63C493.45,-237.56 512.9,-219.25 528.52,-204.56"/>
<polygon fill="black" stroke="black" points="530.76,-207.26 535.65,-197.86 525.96,-202.16 530.76,-207.26"/>
</g>
</g>
</svg>
