<?xml version="1.0" encoding="UTF-8" standalone="no"?>
<!DOCTYPE svg PUBLIC "-//W3C//DTD SVG 1.1//EN"
 "http://www.w3.org/Graphics/SVG/1.1/DTD/svg11.dtd">
<!-- Generated by graphviz version 10.0.1 (20240210.2158)
 -->
<!-- Title: ND Pages: 1 -->
<svg width="594pt" height="526pt"
 viewBox="0.00 0.00 593.62 526.00" xmlns="http://www.w3.org/2000/svg" xmlns:xlink="http://www.w3.org/1999/xlink">
<g id="graph0" class="graph" transform="scale(1 1) rotate(0) translate(4 522)">
<title>ND</title>
<polygon fill="white" stroke="none" points="-4,4 -4,-522 589.62,-522 589.62,4 -4,4"/>
<!-- n_0_1_2_3_4_5_6 -->
<g id="node1" class="node">
<title>n_0_1_2_3_4_5_6</title>
<polygon fill="none" stroke="black" points="382.62,-445 382.62,-513 452.88,-513 452.88,-445 382.62,-445"/>
<text text-anchor="start" x="394.88" y="-498.45" font-family="Times New Roman,serif" font-weight="bold" font-size="9.00">Primary (P)</text>
<text text-anchor="start" x="398.62" y="-489.45" font-family="Times New Roman,serif" font-weight="bold" font-size="9.00">Preschool</text>
<text text-anchor="start" x="390.38" y="-480.45" font-family="Times New Roman,serif" font-weight="bold" font-size="9.00">Secondary (P)</text>
<text text-anchor="start" x="389.62" y="-471.45" font-family="Times New Roman,serif" font-weight="bold" font-size="9.00">Secondary (G)</text>
<text text-anchor="start" x="398.25" y="-462.45" font-family="Times New Roman,serif" font-weight="bold" font-size="9.00">Technical</text>
<text text-anchor="start" x="397.5" y="-453.45" font-family="Times New Roman,serif" font-weight="bold" font-size="9.00">University</text>
<polygon fill="none" stroke="black" points="452.88,-445 452.88,-513 514.12,-513 514.12,-445 452.88,-445"/>
<text text-anchor="start" x="459.88" y="-477.07" font-family="Times New Roman,serif" font-weight="bold" font-size="9.00">Primary (G)</text>
<polygon fill="none" stroke="black" points="381.62,-444 381.62,-514 515.12,-514 515.12,-444 381.62,-444"/>
</g>
<!-- n_0_2_3_4_5_6 -->
<g id="node2" class="node">
<title>n_0_2_3_4_5_6</title>
<polygon fill="none" stroke="black" points="312.38,-342 312.38,-392 382.62,-392 382.62,-342 312.38,-342"/>
<text text-anchor="start" x="328.38" y="-377.45" font-family="Times New Roman,serif" font-weight="bold" font-size="9.00">Preschool</text>
<text text-anchor="start" x="320.12" y="-368.45" font-family="Times New Roman,serif" font-weight="bold" font-size="9.00">Secondary (P)</text>
<text text-anchor="start" x="319.38" y="-359.45" font-family="Times New Roman,serif" font-weight="bold" font-size="9.00">Secondary (G)</text>
<text text-anchor="start" x="328" y="-350.45" font-family="Times New Roman,serif" font-weight="bold" font-size="9.00">Technical</text>
<polygon fill="none" stroke="black" points="382.62,-342 382.62,-392 442.38,-392 442.38,-342 382.62,-342"/>
<text text-anchor="start" x="389.62" y="-368.45" font-family="Times New Roman,serif" font-weight="bold" font-size="9.00">Primary (P)</text>
<text text-anchor="start" x="392.25" y="-359.45" font-family="Times New Roman,serif" font-weight="bold" font-size="9.00">University</text>
<polygon fill="none" stroke="black" points="311.38,-341 311.38,-393 443.38,-393 443.38,-341 311.38,-341"/>
</g>
<!-- n_0_1_2_3_4_5_6&#45;&gt;n_0_2_3_4_5_6 -->
<g id="edge1" class="edge">
<title>n_0_1_2_3_4_5_6&#45;&gt;n_0_2_3_4_5_6</title>
<path fill="none" stroke="black" d="M423.94,-440.14C416.87,-429.19 409.14,-417.22 402.05,-406.23"/>
<polygon fill="black" stroke="black" points="405.21,-404.66 396.84,-398.16 399.32,-408.46 405.21,-404.66"/>
</g>
<!-- n_1 -->
<g id="node13" class="node">
<title>n_1</title>
<polygon fill="none" stroke="black" points="489.75,-354.38 489.75,-379.62 551,-379.62 551,-354.38 489.75,-354.38"/>
<text text-anchor="start" x="496.75" y="-365.07" font-family="Times New Roman,serif" font-weight="bold" font-size="9.00">Primary (G)</text>
<polygon fill="none" stroke="black" points="488.75,-353.38 488.75,-380.62 552,-380.62 552,-353.38 488.75,-353.38"/>
</g>
<!-- n_0_1_2_3_4_5_6&#45;&gt;n_1 -->
<g id="edge12" class="edge">
<title>n_0_1_2_3_4_5_6&#45;&gt;n_1</title>
<path fill="none" stroke="black" d="M473.15,-440.14C483.04,-425.04 494.18,-408.02 503.15,-394.31"/>
<polygon fill="black" stroke="black" points="505.88,-396.53 508.43,-386.25 500.03,-392.7 505.88,-396.53"/>
</g>
<!-- n_2_3_4_5 -->
<g id="node3" class="node">
<title>n_2_3_4_5</title>
<polygon fill="none" stroke="black" points="234.12,-248 234.12,-289 304.38,-289 304.38,-248 234.12,-248"/>
<text text-anchor="start" x="241.88" y="-274.45" font-family="Times New Roman,serif" font-weight="bold" font-size="9.00">Secondary (P)</text>
<text text-anchor="start" x="241.12" y="-265.45" font-family="Times New Roman,serif" font-weight="bold" font-size="9.00">Secondary (G)</text>
<text text-anchor="start" x="249.75" y="-256.45" font-family="Times New Roman,serif" font-weight="bold" font-size="9.00">Technical</text>
<polygon fill="none" stroke="black" points="304.38,-248 304.38,-289 356.62,-289 356.62,-248 304.38,-248"/>
<text text-anchor="start" x="311.38" y="-266.57" font-family="Times New Roman,serif" font-weight="bold" font-size="9.00">Preschool</text>
<polygon fill="none" stroke="black" points="233.12,-247 233.12,-290 357.62,-290 357.62,-247 233.12,-247"/>
</g>
<!-- n_0_2_3_4_5_6&#45;&gt;n_2_3_4_5 -->
<g id="edge2" class="edge">
<title>n_0_2_3_4_5_6&#45;&gt;n_2_3_4_5</title>
<path fill="none" stroke="black" d="M352.77,-337.05C343.54,-326.18 332.98,-313.76 323.46,-302.55"/>
<polygon fill="black" stroke="black" points="326.21,-300.38 317.07,-295.03 320.88,-304.91 326.21,-300.38"/>
</g>
<!-- n_0_6 -->
<g id="node10" class="node">
<title>n_0_6</title>
<polygon fill="none" stroke="black" points="403.25,-255.88 403.25,-281.12 463,-281.12 463,-255.88 403.25,-255.88"/>
<text text-anchor="start" x="410.25" y="-266.57" font-family="Times New Roman,serif" font-weight="bold" font-size="9.00">Primary (P)</text>
<polygon fill="none" stroke="black" points="463,-255.88 463,-281.12 517.5,-281.12 517.5,-255.88 463,-255.88"/>
<text text-anchor="start" x="470" y="-266.57" font-family="Times New Roman,serif" font-weight="bold" font-size="9.00">University</text>
<polygon fill="none" stroke="black" points="402.25,-254.88 402.25,-282.12 518.5,-282.12 518.5,-254.88 402.25,-254.88"/>
</g>
<!-- n_0_2_3_4_5_6&#45;&gt;n_0_6 -->
<g id="edge9" class="edge">
<title>n_0_2_3_4_5_6&#45;&gt;n_0_6</title>
<path fill="none" stroke="black" d="M402.28,-337.05C413.84,-323.6 427.46,-307.77 438.6,-294.81"/>
<polygon fill="black" stroke="black" points="441.01,-297.38 444.88,-287.51 435.71,-292.81 441.01,-297.38"/>
</g>
<!-- n_3_4_5 -->
<g id="node4" class="node">
<title>n_3_4_5</title>
<polygon fill="none" stroke="black" points="98.88,-163 98.88,-195 167.62,-195 167.62,-163 98.88,-163"/>
<text text-anchor="start" x="105.88" y="-180.45" font-family="Times New Roman,serif" font-weight="bold" font-size="9.00">Secondary (P)</text>
<text text-anchor="start" x="113.75" y="-171.45" font-family="Times New Roman,serif" font-weight="bold" font-size="9.00">Technical</text>
<polygon fill="none" stroke="black" points="167.62,-163 167.62,-195 237.88,-195 237.88,-163 167.62,-163"/>
<text text-anchor="start" x="174.62" y="-177.07" font-family="Times New Roman,serif" font-weight="bold" font-size="9.00">Secondary (G)</text>
<polygon fill="none" stroke="black" points="97.88,-162 97.88,-196 238.88,-196 238.88,-162 97.88,-162"/>
</g>
<!-- n_2_3_4_5&#45;&gt;n_3_4_5 -->
<g id="edge3" class="edge">
<title>n_2_3_4_5&#45;&gt;n_3_4_5</title>
<path fill="none" stroke="black" d="M260,-243.13C243.28,-231.61 223.3,-217.84 206.27,-206.11"/>
<polygon fill="black" stroke="black" points="208.62,-203.48 198.4,-200.68 204.65,-209.24 208.62,-203.48"/>
</g>
<!-- n_2 -->
<g id="node9" class="node">
<title>n_2</title>
<polygon fill="none" stroke="black" points="285.25,-166.38 285.25,-191.62 337.5,-191.62 337.5,-166.38 285.25,-166.38"/>
<text text-anchor="start" x="292.25" y="-177.07" font-family="Times New Roman,serif" font-weight="bold" font-size="9.00">Preschool</text>
<polygon fill="none" stroke="black" points="284.25,-165.38 284.25,-192.62 338.5,-192.62 338.5,-165.38 284.25,-165.38"/>
</g>
<!-- n_2_3_4_5&#45;&gt;n_2 -->
<g id="edge8" class="edge">
<title>n_2_3_4_5&#45;&gt;n_2</title>
<path fill="none" stroke="black" d="M299.83,-243.13C301.84,-232.17 304.21,-219.18 306.29,-207.84"/>
<polygon fill="black" stroke="black" points="309.68,-208.73 308.04,-198.26 302.79,-207.47 309.68,-208.73"/>
</g>
<!-- n_3_5 -->
<g id="node5" class="node">
<title>n_3_5</title>
<polygon fill="none" stroke="black" points="36.5,-84.38 36.5,-109.62 105.25,-109.62 105.25,-84.38 36.5,-84.38"/>
<text text-anchor="start" x="43.5" y="-95.08" font-family="Times New Roman,serif" font-weight="bold" font-size="9.00">Secondary (P)</text>
<polygon fill="none" stroke="black" points="105.25,-84.38 105.25,-109.62 158.25,-109.62 158.25,-84.38 105.25,-84.38"/>
<text text-anchor="start" x="112.25" y="-95.08" font-family="Times New Roman,serif" font-weight="bold" font-size="9.00">Technical</text>
<polygon fill="none" stroke="black" points="35.5,-83.38 35.5,-110.62 159.25,-110.62 159.25,-83.38 35.5,-83.38"/>
</g>
<!-- n_3_4_5&#45;&gt;n_3_5 -->
<g id="edge4" class="edge">
<title>n_3_4_5&#45;&gt;n_3_5</title>
<path fill="none" stroke="black" d="M150.82,-158.22C141.49,-147.71 129.91,-134.66 119.92,-123.41"/>
<polygon fill="black" stroke="black" points="122.58,-121.13 113.33,-115.98 117.35,-125.78 122.58,-121.13"/>
</g>
<!-- n_4 -->
<g id="node8" class="node">
<title>n_4</title>
<polygon fill="none" stroke="black" points="205.25,-84.38 205.25,-109.62 275.5,-109.62 275.5,-84.38 205.25,-84.38"/>
<text text-anchor="start" x="212.25" y="-95.08" font-family="Times New Roman,serif" font-weight="bold" font-size="9.00">Secondary (G)</text>
<polygon fill="none" stroke="black" points="204.25,-83.38 204.25,-110.62 276.5,-110.62 276.5,-83.38 204.25,-83.38"/>
</g>
<!-- n_3_4_5&#45;&gt;n_4 -->
<g id="edge7" class="edge">
<title>n_3_4_5&#45;&gt;n_4</title>
<path fill="none" stroke="black" d="M186.17,-158.22C195.73,-147.61 207.61,-134.41 217.81,-123.07"/>
<polygon fill="black" stroke="black" points="220.11,-125.74 224.2,-115.97 214.91,-121.06 220.11,-125.74"/>
</g>
<!-- n_3 -->
<g id="node6" class="node">
<title>n_3</title>
<polygon fill="none" stroke="black" points="9,-5.38 9,-30.62 77.75,-30.62 77.75,-5.38 9,-5.38"/>
<text text-anchor="start" x="16" y="-16.07" font-family="Times New Roman,serif" font-weight="bold" font-size="9.00">Secondary (P)</text>
<polygon fill="none" stroke="black" points="8,-4.38 8,-31.62 78.75,-31.62 78.75,-4.38 8,-4.38"/>
</g>
<!-- n_3_5&#45;&gt;n_3 -->
<g id="edge5" class="edge">
<title>n_3_5&#45;&gt;n_3</title>
<path fill="none" stroke="black" d="M85.66,-79.29C78.7,-69.37 69.72,-56.57 61.83,-45.32"/>
<polygon fill="black" stroke="black" points="64.73,-43.36 56.12,-37.18 59,-47.38 64.73,-43.36"/>
</g>
<!-- n_5 -->
<g id="node7" class="node">
<title>n_5</title>
<polygon fill="none" stroke="black" points="124.88,-5.38 124.88,-30.62 177.88,-30.62 177.88,-5.38 124.88,-5.38"/>
<text text-anchor="start" x="131.88" y="-16.07" font-family="Times New Roman,serif" font-weight="bold" font-size="9.00">Technical</text>
<polygon fill="none" stroke="black" points="123.88,-4.38 123.88,-31.62 178.88,-31.62 178.88,-4.38 123.88,-4.38"/>
</g>
<!-- n_3_5&#45;&gt;n_5 -->
<g id="edge6" class="edge">
<title>n_3_5&#45;&gt;n_5</title>
<path fill="none" stroke="black" d="M109.09,-79.29C116.05,-69.37 125.03,-56.57 132.92,-45.32"/>
<polygon fill="black" stroke="black" points="135.75,-47.38 138.63,-37.18 130.02,-43.36 135.75,-47.38"/>
</g>
<!-- n_0 -->
<g id="node11" class="node">
<title>n_0</title>
<polygon fill="none" stroke="black" points="415.5,-166.38 415.5,-191.62 475.25,-191.62 475.25,-166.38 415.5,-166.38"/>
<text text-anchor="start" x="422.5" y="-177.07" font-family="Times New Roman,serif" font-weight="bold" font-size="9.00">Primary (P)</text>
<polygon fill="none" stroke="black" points="414.5,-165.38 414.5,-192.62 476.25,-192.62 476.25,-165.38 414.5,-165.38"/>
</g>
<!-- n_0_6&#45;&gt;n_0 -->
<g id="edge10" class="edge">
<title>n_0_6&#45;&gt;n_0</title>
<path fill="none" stroke="black" d="M457.48,-250.63C455.41,-238.52 452.56,-221.94 450.15,-207.88"/>
<polygon fill="black" stroke="black" points="453.65,-207.58 448.51,-198.31 446.75,-208.76 453.65,-207.58"/>
</g>
<!-- n_6 -->
<g id="node12" class="node">
<title>n_6</title>
<polygon fill="none" stroke="black" points="522.12,-166.38 522.12,-191.62 576.62,-191.62 576.62,-166.38 522.12,-166.38"/>
<text text-anchor="start" x="529.12" y="-177.07" font-family="Times New Roman,serif" font-weight="bold" font-size="9.00">University</text>
<polygon fill="none" stroke="black" points="521.12,-165.38 521.12,-192.62 577.62,-192.62 577.62,-165.38 521.12,-165.38"/>
</g>
<!-- n_0_6&#45;&gt;n_6 -->
<g id="edge11" class="edge">
<title>n_0_6&#45;&gt;n_6</title>
<path fill="none" stroke="black" d="M477.54,-250.63C490.83,-237.56 509.45,-219.25 524.4,-204.56"/>
<polygon fill="black" stroke="black" points="526.51,-207.39 531.19,-197.88 521.6,-202.4 526.51,-207.39"/>
</g>
</g>
</svg>
