<?xml version="1.0" encoding="UTF-8" standalone="no"?>
<!DOCTYPE svg PUBLIC "-//W3C//DTD SVG 1.1//EN"
 "http://www.w3.org/Graphics/SVG/1.1/DTD/svg11.dtd">
<!-- Generated by graphviz version 10.0.1 (20240210.2158)
 -->
<!-- Title: ND Pages: 1 -->
<svg width="670pt" height="517pt"
 viewBox="0.00 0.00 670.25 517.00" xmlns="http://www.w3.org/2000/svg" xmlns:xlink="http://www.w3.org/1999/xlink">
<g id="graph0" class="graph" transform="scale(1 1) rotate(0) translate(4 513)">
<title>ND</title>
<polygon fill="white" stroke="none" points="-4,4 -4,-513 666.25,-513 666.25,4 -4,4"/>
<!-- n_0_1_2_3_4_5_6 -->
<g id="node1" class="node">
<title>n_0_1_2_3_4_5_6</title>
<polygon fill="none" stroke="black" points="367.38,-445 367.38,-504 437.62,-504 437.62,-445 367.38,-445"/>
<text text-anchor="start" x="379.62" y="-489.45" font-family="Times New Roman,serif" font-weight="bold" font-size="9.00">Primary (P)</text>
<text text-anchor="start" x="383.38" y="-480.45" font-family="Times New Roman,serif" font-weight="bold" font-size="9.00">Preschool</text>
<text text-anchor="start" x="374.38" y="-471.45" font-family="Times New Roman,serif" font-weight="bold" font-size="9.00">Secondary (G)</text>
<text text-anchor="start" x="383" y="-462.45" font-family="Times New Roman,serif" font-weight="bold" font-size="9.00">Technical</text>
<text text-anchor="start" x="382.25" y="-453.45" font-family="Times New Roman,serif" font-weight="bold" font-size="9.00">University</text>
<polygon fill="none" stroke="black" points="437.62,-445 437.62,-504 506.38,-504 506.38,-445 437.62,-445"/>
<text text-anchor="start" x="448.38" y="-475.95" font-family="Times New Roman,serif" font-weight="bold" font-size="9.00">Primary (G)</text>
<text text-anchor="start" x="444.62" y="-466.95" font-family="Times New Roman,serif" font-weight="bold" font-size="9.00">Secondary (P)</text>
<polygon fill="none" stroke="black" points="366.38,-444 366.38,-505 507.38,-505 507.38,-444 366.38,-444"/>
</g>
<!-- n_0_2_4_5_6 -->
<g id="node2" class="node">
<title>n_0_2_4_5_6</title>
<polygon fill="none" stroke="black" points="288.25,-342 288.25,-392 358.5,-392 358.5,-342 288.25,-342"/>
<text text-anchor="start" x="300.5" y="-377.45" font-family="Times New Roman,serif" font-weight="bold" font-size="9.00">Primary (P)</text>
<text text-anchor="start" x="304.25" y="-368.45" font-family="Times New Roman,serif" font-weight="bold" font-size="9.00">Preschool</text>
<text text-anchor="start" x="295.25" y="-359.45" font-family="Times New Roman,serif" font-weight="bold" font-size="9.00">Secondary (G)</text>
<text text-anchor="start" x="303.12" y="-350.45" font-family="Times New Roman,serif" font-weight="bold" font-size="9.00">University</text>
<polygon fill="none" stroke="black" points="358.5,-342 358.5,-392 411.5,-392 411.5,-342 358.5,-342"/>
<text text-anchor="start" x="365.5" y="-365.07" font-family="Times New Roman,serif" font-weight="bold" font-size="9.00">Technical</text>
<polygon fill="none" stroke="black" points="287.25,-341 287.25,-393 412.5,-393 412.5,-341 287.25,-341"/>
</g>
<!-- n_0_1_2_3_4_5_6&#45;&gt;n_0_2_4_5_6 -->
<g id="edge1" class="edge">
<title>n_0_1_2_3_4_5_6&#45;&gt;n_0_2_4_5_6</title>
<path fill="none" stroke="black" d="M409.35,-440.12C400.31,-429.16 390.21,-416.91 380.93,-405.66"/>
<polygon fill="black" stroke="black" points="383.73,-403.55 374.67,-398.07 378.33,-408.01 383.73,-403.55"/>
</g>
<!-- n_1_3 -->
<g id="node11" class="node">
<title>n_1_3</title>
<polygon fill="none" stroke="black" points="458.88,-354.38 458.88,-379.62 520.12,-379.62 520.12,-354.38 458.88,-354.38"/>
<text text-anchor="start" x="465.88" y="-365.07" font-family="Times New Roman,serif" font-weight="bold" font-size="9.00">Primary (G)</text>
<polygon fill="none" stroke="black" points="520.12,-354.38 520.12,-379.62 588.88,-379.62 588.88,-354.38 520.12,-354.38"/>
<text text-anchor="start" x="527.12" y="-365.07" font-family="Times New Roman,serif" font-weight="bold" font-size="9.00">Secondary (P)</text>
<polygon fill="none" stroke="black" points="457.88,-353.38 457.88,-380.62 589.88,-380.62 589.88,-353.38 457.88,-353.38"/>
</g>
<!-- n_0_1_2_3_4_5_6&#45;&gt;n_1_3 -->
<g id="edge10" class="edge">
<title>n_0_1_2_3_4_5_6&#45;&gt;n_1_3</title>
<path fill="none" stroke="black" d="M464.4,-440.12C476.82,-425.06 491.25,-407.57 502.78,-393.58"/>
<polygon fill="black" stroke="black" points="505.27,-396.06 508.93,-386.12 499.87,-391.61 505.27,-396.06"/>
</g>
<!-- n_0_2_4_6 -->
<g id="node3" class="node">
<title>n_0_2_4_6</title>
<polygon fill="none" stroke="black" points="169.5,-248 169.5,-289 239.75,-289 239.75,-248 169.5,-248"/>
<text text-anchor="start" x="181.75" y="-274.45" font-family="Times New Roman,serif" font-weight="bold" font-size="9.00">Primary (P)</text>
<text text-anchor="start" x="185.5" y="-265.45" font-family="Times New Roman,serif" font-weight="bold" font-size="9.00">Preschool</text>
<text text-anchor="start" x="176.5" y="-256.45" font-family="Times New Roman,serif" font-weight="bold" font-size="9.00">Secondary (G)</text>
<polygon fill="none" stroke="black" points="239.75,-248 239.75,-289 294.25,-289 294.25,-248 239.75,-248"/>
<text text-anchor="start" x="246.75" y="-266.57" font-family="Times New Roman,serif" font-weight="bold" font-size="9.00">University</text>
<polygon fill="none" stroke="black" points="168.5,-247 168.5,-290 295.25,-290 295.25,-247 168.5,-247"/>
</g>
<!-- n_0_2_4_5_6&#45;&gt;n_0_2_4_6 -->
<g id="edge2" class="edge">
<title>n_0_2_4_5_6&#45;&gt;n_0_2_4_6</title>
<path fill="none" stroke="black" d="M314.47,-337.05C300.53,-325.65 284.48,-312.52 270.26,-300.89"/>
<polygon fill="black" stroke="black" points="272.81,-298.45 262.85,-294.83 268.38,-303.87 272.81,-298.45"/>
</g>
<!-- n_5 -->
<g id="node10" class="node">
<title>n_5</title>
<polygon fill="none" stroke="black" points="341.38,-255.88 341.38,-281.12 394.38,-281.12 394.38,-255.88 341.38,-255.88"/>
<text text-anchor="start" x="348.38" y="-266.57" font-family="Times New Roman,serif" font-weight="bold" font-size="9.00">Technical</text>
<polygon fill="none" stroke="black" points="340.38,-254.88 340.38,-282.12 395.38,-282.12 395.38,-254.88 340.38,-254.88"/>
</g>
<!-- n_0_2_4_5_6&#45;&gt;n_5 -->
<g id="edge9" class="edge">
<title>n_0_2_4_5_6&#45;&gt;n_5</title>
<path fill="none" stroke="black" d="M355.28,-337.05C357.61,-324.51 360.34,-309.89 362.66,-297.47"/>
<polygon fill="black" stroke="black" points="366.06,-298.33 364.45,-287.85 359.18,-297.04 366.06,-298.33"/>
</g>
<!-- n_0_2_4 -->
<g id="node4" class="node">
<title>n_0_2_4</title>
<polygon fill="none" stroke="black" points="102.62,-163 102.62,-195 172.88,-195 172.88,-163 102.62,-163"/>
<text text-anchor="start" x="114.88" y="-180.45" font-family="Times New Roman,serif" font-weight="bold" font-size="9.00">Primary (P)</text>
<text text-anchor="start" x="109.62" y="-171.45" font-family="Times New Roman,serif" font-weight="bold" font-size="9.00">Secondary (G)</text>
<polygon fill="none" stroke="black" points="172.88,-163 172.88,-195 225.12,-195 225.12,-163 172.88,-163"/>
<text text-anchor="start" x="179.88" y="-177.07" font-family="Times New Roman,serif" font-weight="bold" font-size="9.00">Preschool</text>
<polygon fill="none" stroke="black" points="101.62,-162 101.62,-196 226.12,-196 226.12,-162 101.62,-162"/>
</g>
<!-- n_0_2_4_6&#45;&gt;n_0_2_4 -->
<g id="edge3" class="edge">
<title>n_0_2_4_6&#45;&gt;n_0_2_4</title>
<path fill="none" stroke="black" d="M212.93,-243.13C204.64,-232.46 194.86,-219.87 186.22,-208.75"/>
<polygon fill="black" stroke="black" points="189.11,-206.77 180.21,-201.02 183.58,-211.06 189.11,-206.77"/>
</g>
<!-- n_6 -->
<g id="node9" class="node">
<title>n_6</title>
<polygon fill="none" stroke="black" points="272.62,-166.38 272.62,-191.62 327.12,-191.62 327.12,-166.38 272.62,-166.38"/>
<text text-anchor="start" x="279.62" y="-177.07" font-family="Times New Roman,serif" font-weight="bold" font-size="9.00">University</text>
<polygon fill="none" stroke="black" points="271.62,-165.38 271.62,-192.62 328.12,-192.62 328.12,-165.38 271.62,-165.38"/>
</g>
<!-- n_0_2_4_6&#45;&gt;n_6 -->
<g id="edge8" class="edge">
<title>n_0_2_4_6&#45;&gt;n_6</title>
<path fill="none" stroke="black" d="M250.82,-243.13C259.87,-231.48 270.71,-217.53 279.9,-205.71"/>
<polygon fill="black" stroke="black" points="282.54,-208.01 285.91,-197.97 277.01,-203.71 282.54,-208.01"/>
</g>
<!-- n_0_4 -->
<g id="node5" class="node">
<title>n_0_4</title>
<polygon fill="none" stroke="black" points="29.88,-84.38 29.88,-109.62 89.62,-109.62 89.62,-84.38 29.88,-84.38"/>
<text text-anchor="start" x="36.88" y="-95.08" font-family="Times New Roman,serif" font-weight="bold" font-size="9.00">Primary (P)</text>
<polygon fill="none" stroke="black" points="89.62,-84.38 89.62,-109.62 159.88,-109.62 159.88,-84.38 89.62,-84.38"/>
<text text-anchor="start" x="96.62" y="-95.08" font-family="Times New Roman,serif" font-weight="bold" font-size="9.00">Secondary (G)</text>
<polygon fill="none" stroke="black" points="28.88,-83.38 28.88,-110.62 160.88,-110.62 160.88,-83.38 28.88,-83.38"/>
</g>
<!-- n_0_2_4&#45;&gt;n_0_4 -->
<g id="edge4" class="edge">
<title>n_0_2_4&#45;&gt;n_0_4</title>
<path fill="none" stroke="black" d="M146.82,-158.22C137.75,-147.71 126.5,-134.66 116.79,-123.41"/>
<polygon fill="black" stroke="black" points="119.57,-121.28 110.39,-115.99 114.27,-125.85 119.57,-121.28"/>
</g>
<!-- n_2 -->
<g id="node8" class="node">
<title>n_2</title>
<polygon fill="none" stroke="black" points="206.75,-84.38 206.75,-109.62 259,-109.62 259,-84.38 206.75,-84.38"/>
<text text-anchor="start" x="213.75" y="-95.08" font-family="Times New Roman,serif" font-weight="bold" font-size="9.00">Preschool</text>
<polygon fill="none" stroke="black" points="205.75,-83.38 205.75,-110.62 260,-110.62 260,-83.38 205.75,-83.38"/>
</g>
<!-- n_0_2_4&#45;&gt;n_2 -->
<g id="edge7" class="edge">
<title>n_0_2_4&#45;&gt;n_2</title>
<path fill="none" stroke="black" d="M180.93,-158.22C190,-147.71 201.25,-134.66 210.96,-123.41"/>
<polygon fill="black" stroke="black" points="213.48,-125.85 217.36,-115.99 208.18,-121.28 213.48,-125.85"/>
</g>
<!-- n_0 -->
<g id="node6" class="node">
<title>n_0</title>
<polygon fill="none" stroke="black" points="9,-5.38 9,-30.62 68.75,-30.62 68.75,-5.38 9,-5.38"/>
<text text-anchor="start" x="16" y="-16.07" font-family="Times New Roman,serif" font-weight="bold" font-size="9.00">Primary (P)</text>
<polygon fill="none" stroke="black" points="8,-4.38 8,-31.62 69.75,-31.62 69.75,-4.38 8,-4.38"/>
</g>
<!-- n_0_4&#45;&gt;n_0 -->
<g id="edge5" class="edge">
<title>n_0_4&#45;&gt;n_0</title>
<path fill="none" stroke="black" d="M82.72,-79.29C75.44,-69.27 66.01,-56.31 57.77,-44.98"/>
<polygon fill="black" stroke="black" points="60.8,-43.19 52.09,-37.17 55.14,-47.31 60.8,-43.19"/>
</g>
<!-- n_4 -->
<g id="node7" class="node">
<title>n_4</title>
<polygon fill="none" stroke="black" points="115.75,-5.38 115.75,-30.62 186,-30.62 186,-5.38 115.75,-5.38"/>
<text text-anchor="start" x="122.75" y="-16.07" font-family="Times New Roman,serif" font-weight="bold" font-size="9.00">Secondary (G)</text>
<polygon fill="none" stroke="black" points="114.75,-4.38 114.75,-31.62 187,-31.62 187,-4.38 114.75,-4.38"/>
</g>
<!-- n_0_4&#45;&gt;n_4 -->
<g id="edge6" class="edge">
<title>n_0_4&#45;&gt;n_4</title>
<path fill="none" stroke="black" d="M107.03,-79.29C114.31,-69.27 123.74,-56.31 131.98,-44.98"/>
<polygon fill="black" stroke="black" points="134.61,-47.31 137.66,-37.17 128.95,-43.19 134.61,-47.31"/>
</g>
<!-- n_1 -->
<g id="node12" class="node">
<title>n_1</title>
<polygon fill="none" stroke="black" points="476.25,-255.88 476.25,-281.12 537.5,-281.12 537.5,-255.88 476.25,-255.88"/>
<text text-anchor="start" x="483.25" y="-266.57" font-family="Times New Roman,serif" font-weight="bold" font-size="9.00">Primary (G)</text>
<polygon fill="none" stroke="black" points="475.25,-254.88 475.25,-282.12 538.5,-282.12 538.5,-254.88 475.25,-254.88"/>
</g>
<!-- n_1_3&#45;&gt;n_1 -->
<g id="edge11" class="edge">
<title>n_1_3&#45;&gt;n_1</title>
<path fill="none" stroke="black" d="M520.91,-349.19C518.42,-335.03 514.79,-314.46 511.85,-297.76"/>
<polygon fill="black" stroke="black" points="515.3,-297.17 510.12,-287.93 508.41,-298.39 515.3,-297.17"/>
</g>
<!-- n_3 -->
<g id="node13" class="node">
<title>n_3</title>
<polygon fill="none" stroke="black" points="584.5,-255.88 584.5,-281.12 653.25,-281.12 653.25,-255.88 584.5,-255.88"/>
<text text-anchor="start" x="591.5" y="-266.57" font-family="Times New Roman,serif" font-weight="bold" font-size="9.00">Secondary (P)</text>
<polygon fill="none" stroke="black" points="583.5,-254.88 583.5,-282.12 654.25,-282.12 654.25,-254.88 583.5,-254.88"/>
</g>
<!-- n_1_3&#45;&gt;n_3 -->
<g id="edge12" class="edge">
<title>n_1_3&#45;&gt;n_3</title>
<path fill="none" stroke="black" d="M540.42,-349.19C555.32,-334.06 577.4,-311.63 594.35,-294.42"/>
<polygon fill="black" stroke="black" points="596.62,-297.1 601.14,-287.52 591.63,-292.19 596.62,-297.1"/>
</g>
</g>
</svg>
