<?xml version="1.0" encoding="UTF-8" standalone="no"?>
<!DOCTYPE svg PUBLIC "-//W3C//DTD SVG 1.1//EN"
 "http://www.w3.org/Graphics/SVG/1.1/DTD/svg11.dtd">
<!-- Generated by graphviz version 10.0.1 (20240210.2158)
 -->
<!-- Title: ND Pages: 1 -->
<svg width="660pt" height="517pt"
 viewBox="0.00 0.00 659.50 517.00" xmlns="http://www.w3.org/2000/svg" xmlns:xlink="http://www.w3.org/1999/xlink">
<g id="graph0" class="graph" transform="scale(1 1) rotate(0) translate(4 513)">
<title>ND</title>
<polygon fill="white" stroke="none" points="-4,4 -4,-513 655.5,-513 655.5,4 -4,4"/>
<!-- n_0_1_2_3_4_5_6 -->
<g id="node1" class="node">
<title>n_0_1_2_3_4_5_6</title>
<polygon fill="none" stroke="black" points="380.38,-445 380.38,-504 450.62,-504 450.62,-445 380.38,-445"/>
<text text-anchor="start" x="391.88" y="-489.45" font-family="Times New Roman,serif" font-weight="bold" font-size="9.00">Primary (G)</text>
<text text-anchor="start" x="388.12" y="-480.45" font-family="Times New Roman,serif" font-weight="bold" font-size="9.00">Secondary (P)</text>
<text text-anchor="start" x="387.38" y="-471.45" font-family="Times New Roman,serif" font-weight="bold" font-size="9.00">Secondary (G)</text>
<text text-anchor="start" x="396" y="-462.45" font-family="Times New Roman,serif" font-weight="bold" font-size="9.00">Technical</text>
<text text-anchor="start" x="395.25" y="-453.45" font-family="Times New Roman,serif" font-weight="bold" font-size="9.00">University</text>
<polygon fill="none" stroke="black" points="450.62,-445 450.62,-504 510.38,-504 510.38,-445 450.62,-445"/>
<text text-anchor="start" x="457.62" y="-475.95" font-family="Times New Roman,serif" font-weight="bold" font-size="9.00">Primary (P)</text>
<text text-anchor="start" x="461.38" y="-466.95" font-family="Times New Roman,serif" font-weight="bold" font-size="9.00">Preschool</text>
<polygon fill="none" stroke="black" points="379.38,-444 379.38,-505 511.38,-505 511.38,-444 379.38,-444"/>
</g>
<!-- n_1_3_4_5_6 -->
<g id="node2" class="node">
<title>n_1_3_4_5_6</title>
<polygon fill="none" stroke="black" points="301,-342 301,-392 371.25,-392 371.25,-342 301,-342"/>
<text text-anchor="start" x="312.5" y="-377.45" font-family="Times New Roman,serif" font-weight="bold" font-size="9.00">Primary (G)</text>
<text text-anchor="start" x="308.75" y="-368.45" font-family="Times New Roman,serif" font-weight="bold" font-size="9.00">Secondary (P)</text>
<text text-anchor="start" x="308" y="-359.45" font-family="Times New Roman,serif" font-weight="bold" font-size="9.00">Secondary (G)</text>
<text text-anchor="start" x="316.62" y="-350.45" font-family="Times New Roman,serif" font-weight="bold" font-size="9.00">Technical</text>
<polygon fill="none" stroke="black" points="371.25,-342 371.25,-392 425.75,-392 425.75,-342 371.25,-342"/>
<text text-anchor="start" x="378.25" y="-365.07" font-family="Times New Roman,serif" font-weight="bold" font-size="9.00">University</text>
<polygon fill="none" stroke="black" points="300,-341 300,-393 426.75,-393 426.75,-341 300,-341"/>
</g>
<!-- n_0_1_2_3_4_5_6&#45;&gt;n_1_3_4_5_6 -->
<g id="edge1" class="edge">
<title>n_0_1_2_3_4_5_6&#45;&gt;n_1_3_4_5_6</title>
<path fill="none" stroke="black" d="M419.43,-440.12C410.91,-429.16 401.39,-416.91 392.65,-405.66"/>
<polygon fill="black" stroke="black" points="395.67,-403.84 386.76,-398.09 390.14,-408.14 395.67,-403.84"/>
</g>
<!-- n_0_2 -->
<g id="node11" class="node">
<title>n_0_2</title>
<polygon fill="none" stroke="black" points="472.38,-354.38 472.38,-379.62 532.12,-379.62 532.12,-354.38 472.38,-354.38"/>
<text text-anchor="start" x="479.38" y="-365.07" font-family="Times New Roman,serif" font-weight="bold" font-size="9.00">Primary (P)</text>
<polygon fill="none" stroke="black" points="532.12,-354.38 532.12,-379.62 584.38,-379.62 584.38,-354.38 532.12,-354.38"/>
<text text-anchor="start" x="539.12" y="-365.07" font-family="Times New Roman,serif" font-weight="bold" font-size="9.00">Preschool</text>
<polygon fill="none" stroke="black" points="471.38,-353.38 471.38,-380.62 585.38,-380.62 585.38,-353.38 471.38,-353.38"/>
</g>
<!-- n_0_1_2_3_4_5_6&#45;&gt;n_0_2 -->
<g id="edge10" class="edge">
<title>n_0_1_2_3_4_5_6&#45;&gt;n_0_2</title>
<path fill="none" stroke="black" d="M471.64,-440.12C483.37,-425.21 496.98,-407.9 507.94,-393.98"/>
<polygon fill="black" stroke="black" points="510.67,-396.16 514.1,-386.14 505.17,-391.84 510.67,-396.16"/>
</g>
<!-- n_1_3_4_5 -->
<g id="node3" class="node">
<title>n_1_3_4_5</title>
<polygon fill="none" stroke="black" points="181.75,-248 181.75,-289 252,-289 252,-248 181.75,-248"/>
<text text-anchor="start" x="193.25" y="-274.45" font-family="Times New Roman,serif" font-weight="bold" font-size="9.00">Primary (G)</text>
<text text-anchor="start" x="189.5" y="-265.45" font-family="Times New Roman,serif" font-weight="bold" font-size="9.00">Secondary (P)</text>
<text text-anchor="start" x="188.75" y="-256.45" font-family="Times New Roman,serif" font-weight="bold" font-size="9.00">Secondary (G)</text>
<polygon fill="none" stroke="black" points="252,-248 252,-289 305,-289 305,-248 252,-248"/>
<text text-anchor="start" x="259" y="-266.57" font-family="Times New Roman,serif" font-weight="bold" font-size="9.00">Technical</text>
<polygon fill="none" stroke="black" points="180.75,-247 180.75,-290 306,-290 306,-247 180.75,-247"/>
</g>
<!-- n_1_3_4_5_6&#45;&gt;n_1_3_4_5 -->
<g id="edge2" class="edge">
<title>n_1_3_4_5_6&#45;&gt;n_1_3_4_5</title>
<path fill="none" stroke="black" d="M327.37,-337.05C313.19,-325.65 296.87,-312.52 282.41,-300.89"/>
<polygon fill="black" stroke="black" points="284.85,-298.36 274.86,-294.82 280.46,-303.82 284.85,-298.36"/>
</g>
<!-- n_6 -->
<g id="node10" class="node">
<title>n_6</title>
<polygon fill="none" stroke="black" points="352.12,-255.88 352.12,-281.12 406.62,-281.12 406.62,-255.88 352.12,-255.88"/>
<text text-anchor="start" x="359.12" y="-266.57" font-family="Times New Roman,serif" font-weight="bold" font-size="9.00">University</text>
<polygon fill="none" stroke="black" points="351.12,-254.88 351.12,-282.12 407.62,-282.12 407.62,-254.88 351.12,-254.88"/>
</g>
<!-- n_1_3_4_5_6&#45;&gt;n_6 -->
<g id="edge9" class="edge">
<title>n_1_3_4_5_6&#45;&gt;n_6</title>
<path fill="none" stroke="black" d="M368.18,-337.05C370.25,-324.51 372.68,-309.89 374.74,-297.47"/>
<polygon fill="black" stroke="black" points="378.15,-298.3 376.33,-287.86 371.24,-297.15 378.15,-298.3"/>
</g>
<!-- n_1_3_4 -->
<g id="node4" class="node">
<title>n_1_3_4</title>
<polygon fill="none" stroke="black" points="108.62,-163 108.62,-195 178.88,-195 178.88,-163 108.62,-163"/>
<text text-anchor="start" x="116.38" y="-180.45" font-family="Times New Roman,serif" font-weight="bold" font-size="9.00">Secondary (P)</text>
<text text-anchor="start" x="115.62" y="-171.45" font-family="Times New Roman,serif" font-weight="bold" font-size="9.00">Secondary (G)</text>
<polygon fill="none" stroke="black" points="178.88,-163 178.88,-195 240.12,-195 240.12,-163 178.88,-163"/>
<text text-anchor="start" x="185.88" y="-177.07" font-family="Times New Roman,serif" font-weight="bold" font-size="9.00">Primary (G)</text>
<polygon fill="none" stroke="black" points="107.62,-162 107.62,-196 241.12,-196 241.12,-162 107.62,-162"/>
</g>
<!-- n_1_3_4_5&#45;&gt;n_1_3_4 -->
<g id="edge3" class="edge">
<title>n_1_3_4_5&#45;&gt;n_1_3_4</title>
<path fill="none" stroke="black" d="M224.15,-243.13C215.74,-232.46 205.81,-219.87 197.04,-208.75"/>
<polygon fill="black" stroke="black" points="199.89,-206.7 190.95,-201.01 194.39,-211.03 199.89,-206.7"/>
</g>
<!-- n_5 -->
<g id="node9" class="node">
<title>n_5</title>
<polygon fill="none" stroke="black" points="286.88,-166.38 286.88,-191.62 339.88,-191.62 339.88,-166.38 286.88,-166.38"/>
<text text-anchor="start" x="293.88" y="-177.07" font-family="Times New Roman,serif" font-weight="bold" font-size="9.00">Technical</text>
<polygon fill="none" stroke="black" points="285.88,-165.38 285.88,-192.62 340.88,-192.62 340.88,-165.38 285.88,-165.38"/>
</g>
<!-- n_1_3_4_5&#45;&gt;n_5 -->
<g id="edge8" class="edge">
<title>n_1_3_4_5&#45;&gt;n_5</title>
<path fill="none" stroke="black" d="M262.87,-243.13C272.19,-231.48 283.35,-217.53 292.81,-205.71"/>
<polygon fill="black" stroke="black" points="295.5,-207.95 299.01,-197.95 290.03,-203.57 295.5,-207.95"/>
</g>
<!-- n_3_4 -->
<g id="node5" class="node">
<title>n_3_4</title>
<polygon fill="none" stroke="black" points="31.88,-84.38 31.88,-109.62 100.62,-109.62 100.62,-84.38 31.88,-84.38"/>
<text text-anchor="start" x="38.88" y="-95.08" font-family="Times New Roman,serif" font-weight="bold" font-size="9.00">Secondary (P)</text>
<polygon fill="none" stroke="black" points="100.62,-84.38 100.62,-109.62 170.88,-109.62 170.88,-84.38 100.62,-84.38"/>
<text text-anchor="start" x="107.62" y="-95.08" font-family="Times New Roman,serif" font-weight="bold" font-size="9.00">Secondary (G)</text>
<polygon fill="none" stroke="black" points="30.88,-83.38 30.88,-110.62 171.88,-110.62 171.88,-83.38 30.88,-83.38"/>
</g>
<!-- n_1_3_4&#45;&gt;n_3_4 -->
<g id="edge4" class="edge">
<title>n_1_3_4&#45;&gt;n_3_4</title>
<path fill="none" stroke="black" d="M156.33,-158.22C146.64,-147.61 134.6,-134.41 124.25,-123.07"/>
<polygon fill="black" stroke="black" points="127.09,-120.99 117.77,-115.96 121.92,-125.71 127.09,-120.99"/>
</g>
<!-- n_1 -->
<g id="node8" class="node">
<title>n_1</title>
<polygon fill="none" stroke="black" points="217.75,-84.38 217.75,-109.62 279,-109.62 279,-84.38 217.75,-84.38"/>
<text text-anchor="start" x="224.75" y="-95.08" font-family="Times New Roman,serif" font-weight="bold" font-size="9.00">Primary (G)</text>
<polygon fill="none" stroke="black" points="216.75,-83.38 216.75,-110.62 280,-110.62 280,-83.38 216.75,-83.38"/>
</g>
<!-- n_1_3_4&#45;&gt;n_1 -->
<g id="edge7" class="edge">
<title>n_1_3_4&#45;&gt;n_1</title>
<path fill="none" stroke="black" d="M192.67,-158.22C202.49,-147.61 214.7,-134.41 225.18,-123.07"/>
<polygon fill="black" stroke="black" points="227.55,-125.67 231.77,-115.95 222.41,-120.92 227.55,-125.67"/>
</g>
<!-- n_3 -->
<g id="node6" class="node">
<title>n_3</title>
<polygon fill="none" stroke="black" points="9,-5.38 9,-30.62 77.75,-30.62 77.75,-5.38 9,-5.38"/>
<text text-anchor="start" x="16" y="-16.07" font-family="Times New Roman,serif" font-weight="bold" font-size="9.00">Secondary (P)</text>
<polygon fill="none" stroke="black" points="8,-4.38 8,-31.62 78.75,-31.62 78.75,-4.38 8,-4.38"/>
</g>
<!-- n_3_4&#45;&gt;n_3 -->
<g id="edge5" class="edge">
<title>n_3_4&#45;&gt;n_3</title>
<path fill="none" stroke="black" d="M88.79,-79.29C81.24,-69.27 71.48,-56.31 62.94,-44.98"/>
<polygon fill="black" stroke="black" points="65.86,-43.03 57.05,-37.15 60.27,-47.24 65.86,-43.03"/>
</g>
<!-- n_4 -->
<g id="node7" class="node">
<title>n_4</title>
<polygon fill="none" stroke="black" points="125.25,-5.38 125.25,-30.62 195.5,-30.62 195.5,-5.38 125.25,-5.38"/>
<text text-anchor="start" x="132.25" y="-16.07" font-family="Times New Roman,serif" font-weight="bold" font-size="9.00">Secondary (G)</text>
<polygon fill="none" stroke="black" points="124.25,-4.38 124.25,-31.62 196.5,-31.62 196.5,-4.38 124.25,-4.38"/>
</g>
<!-- n_3_4&#45;&gt;n_4 -->
<g id="edge6" class="edge">
<title>n_3_4&#45;&gt;n_4</title>
<path fill="none" stroke="black" d="M114.18,-79.29C121.86,-69.27 131.78,-56.31 140.47,-44.98"/>
<polygon fill="black" stroke="black" points="143.17,-47.21 146.47,-37.14 137.61,-42.95 143.17,-47.21"/>
</g>
<!-- n_0 -->
<g id="node12" class="node">
<title>n_0</title>
<polygon fill="none" stroke="black" points="483.5,-255.88 483.5,-281.12 543.25,-281.12 543.25,-255.88 483.5,-255.88"/>
<text text-anchor="start" x="490.5" y="-266.57" font-family="Times New Roman,serif" font-weight="bold" font-size="9.00">Primary (P)</text>
<polygon fill="none" stroke="black" points="482.5,-254.88 482.5,-282.12 544.25,-282.12 544.25,-254.88 482.5,-254.88"/>
</g>
<!-- n_0_2&#45;&gt;n_0 -->
<g id="edge11" class="edge">
<title>n_0_2&#45;&gt;n_0</title>
<path fill="none" stroke="black" d="M525.76,-349.19C523.56,-335.03 520.36,-314.46 517.77,-297.76"/>
<polygon fill="black" stroke="black" points="521.24,-297.28 516.24,-287.94 514.32,-298.35 521.24,-297.28"/>
</g>
<!-- n_2 -->
<g id="node13" class="node">
<title>n_2</title>
<polygon fill="none" stroke="black" points="590.25,-255.88 590.25,-281.12 642.5,-281.12 642.5,-255.88 590.25,-255.88"/>
<text text-anchor="start" x="597.25" y="-266.57" font-family="Times New Roman,serif" font-weight="bold" font-size="9.00">Preschool</text>
<polygon fill="none" stroke="black" points="589.25,-254.88 589.25,-282.12 643.5,-282.12 643.5,-254.88 589.25,-254.88"/>
</g>
<!-- n_0_2&#45;&gt;n_2 -->
<g id="edge12" class="edge">
<title>n_0_2&#45;&gt;n_2</title>
<path fill="none" stroke="black" d="M543.7,-349.19C557.37,-334.2 577.58,-312.04 593.22,-294.89"/>
<polygon fill="black" stroke="black" points="595.76,-297.31 599.91,-287.56 590.58,-292.59 595.76,-297.31"/>
</g>
</g>
</svg>
