<?xml version="1.0" encoding="UTF-8" standalone="no"?>
<!DOCTYPE svg PUBLIC "-//W3C//DTD SVG 1.1//EN"
 "http://www.w3.org/Graphics/SVG/1.1/DTD/svg11.dtd">
<!-- Generated by graphviz version 10.0.1 (20240210.2158)
 -->
<!-- Title: ND Pages: 1 -->
<svg width="604pt" height="405pt"
 viewBox="0.00 0.00 603.75 405.00" xmlns="http://www.w3.org/2000/svg" xmlns:xlink="http://www.w3.org/1999/xlink">
<g id="graph0" class="graph" transform="scale(1 1) rotate(0) translate(4 401)">
<title>ND</title>
<polygon fill="white" stroke="none" points="-4,4 -4,-401 599.75,-401 599.75,4 -4,4"/>
<!-- n_0_1_2_3_4_5_6 -->
<g id="node1" class="node">
<title>n_0_1_2_3_4_5_6</title>
<polygon fill="none" stroke="black" points="273.12,-342 273.12,-392 341.88,-392 341.88,-342 273.12,-342"/>
<text text-anchor="start" x="284.62" y="-377.45" font-family="Times New Roman,serif" font-weight="bold" font-size="9.00">Primary (P)</text>
<text text-anchor="start" x="283.88" y="-368.45" font-family="Times New Roman,serif" font-weight="bold" font-size="9.00">Primary (G)</text>
<text text-anchor="start" x="280.12" y="-359.45" font-family="Times New Roman,serif" font-weight="bold" font-size="9.00">Secondary (P)</text>
<text text-anchor="start" x="287.25" y="-350.45" font-family="Times New Roman,serif" font-weight="bold" font-size="9.00">University</text>
<polygon fill="none" stroke="black" points="341.88,-342 341.88,-392 412.12,-392 412.12,-342 341.88,-342"/>
<text text-anchor="start" x="357.88" y="-372.95" font-family="Times New Roman,serif" font-weight="bold" font-size="9.00">Preschool</text>
<text text-anchor="start" x="348.88" y="-363.95" font-family="Times New Roman,serif" font-weight="bold" font-size="9.00">Secondary (G)</text>
<text text-anchor="start" x="357.5" y="-354.95" font-family="Times New Roman,serif" font-weight="bold" font-size="9.00">Technical</text>
<polygon fill="none" stroke="black" points="272.12,-341 272.12,-393 413.12,-393 413.12,-341 272.12,-341"/>
</g>
<!-- n_0_1_3_6 -->
<g id="node2" class="node">
<title>n_0_1_3_6</title>
<polygon fill="none" stroke="black" points="192.38,-248 192.38,-289 261.12,-289 261.12,-248 192.38,-248"/>
<text text-anchor="start" x="203.12" y="-274.45" font-family="Times New Roman,serif" font-weight="bold" font-size="9.00">Primary (G)</text>
<text text-anchor="start" x="199.38" y="-265.45" font-family="Times New Roman,serif" font-weight="bold" font-size="9.00">Secondary (P)</text>
<text text-anchor="start" x="206.5" y="-256.45" font-family="Times New Roman,serif" font-weight="bold" font-size="9.00">University</text>
<polygon fill="none" stroke="black" points="261.12,-248 261.12,-289 320.88,-289 320.88,-248 261.12,-248"/>
<text text-anchor="start" x="268.12" y="-266.57" font-family="Times New Roman,serif" font-weight="bold" font-size="9.00">Primary (P)</text>
<polygon fill="none" stroke="black" points="191.38,-247 191.38,-290 321.88,-290 321.88,-247 191.38,-247"/>
</g>
<!-- n_0_1_2_3_4_5_6&#45;&gt;n_0_1_3_6 -->
<g id="edge1" class="edge">
<title>n_0_1_2_3_4_5_6&#45;&gt;n_0_1_3_6</title>
<path fill="none" stroke="black" d="M316.82,-337.05C307.04,-326.08 295.85,-313.51 285.78,-302.22"/>
<polygon fill="black" stroke="black" points="288.62,-300.14 279.35,-295 283.39,-304.8 288.62,-300.14"/>
</g>
<!-- n_2_4_5 -->
<g id="node9" class="node">
<title>n_2_4_5</title>
<polygon fill="none" stroke="black" points="368,-252.5 368,-284.5 421,-284.5 421,-252.5 368,-252.5"/>
<text text-anchor="start" x="375.38" y="-269.95" font-family="Times New Roman,serif" font-weight="bold" font-size="9.00">Preschool</text>
<text text-anchor="start" x="375" y="-260.95" font-family="Times New Roman,serif" font-weight="bold" font-size="9.00">Technical</text>
<polygon fill="none" stroke="black" points="421,-252.5 421,-284.5 491.25,-284.5 491.25,-252.5 421,-252.5"/>
<text text-anchor="start" x="428" y="-266.57" font-family="Times New Roman,serif" font-weight="bold" font-size="9.00">Secondary (G)</text>
<polygon fill="none" stroke="black" points="367,-251.5 367,-285.5 492.25,-285.5 492.25,-251.5 367,-251.5"/>
</g>
<!-- n_0_1_2_3_4_5_6&#45;&gt;n_2_4_5 -->
<g id="edge8" class="edge">
<title>n_0_1_2_3_4_5_6&#45;&gt;n_2_4_5</title>
<path fill="none" stroke="black" d="M368.73,-337.05C380.03,-324.51 393.22,-309.89 404.42,-297.46"/>
<polygon fill="black" stroke="black" points="406.7,-300.15 410.8,-290.38 401.5,-295.47 406.7,-300.15"/>
</g>
<!-- n_1_3_6 -->
<g id="node3" class="node">
<title>n_1_3_6</title>
<polygon fill="none" stroke="black" points="69,-163 69,-195 137.75,-195 137.75,-163 69,-163"/>
<text text-anchor="start" x="79.75" y="-180.45" font-family="Times New Roman,serif" font-weight="bold" font-size="9.00">Primary (G)</text>
<text text-anchor="start" x="76" y="-171.45" font-family="Times New Roman,serif" font-weight="bold" font-size="9.00">Secondary (P)</text>
<polygon fill="none" stroke="black" points="137.75,-163 137.75,-195 192.25,-195 192.25,-163 137.75,-163"/>
<text text-anchor="start" x="144.75" y="-177.07" font-family="Times New Roman,serif" font-weight="bold" font-size="9.00">University</text>
<polygon fill="none" stroke="black" points="68,-162 68,-196 193.25,-196 193.25,-162 68,-162"/>
</g>
<!-- n_0_1_3_6&#45;&gt;n_1_3_6 -->
<g id="edge2" class="edge">
<title>n_0_1_3_6&#45;&gt;n_1_3_6</title>
<path fill="none" stroke="black" d="M221.53,-243.13C204.94,-231.61 185.12,-217.84 168.22,-206.11"/>
<polygon fill="black" stroke="black" points="170.63,-203.52 160.42,-200.69 166.64,-209.27 170.63,-203.52"/>
</g>
<!-- n_0 -->
<g id="node8" class="node">
<title>n_0</title>
<polygon fill="none" stroke="black" points="239.75,-166.38 239.75,-191.62 299.5,-191.62 299.5,-166.38 239.75,-166.38"/>
<text text-anchor="start" x="246.75" y="-177.07" font-family="Times New Roman,serif" font-weight="bold" font-size="9.00">Primary (P)</text>
<polygon fill="none" stroke="black" points="238.75,-165.38 238.75,-192.62 300.5,-192.62 300.5,-165.38 238.75,-165.38"/>
</g>
<!-- n_0_1_3_6&#45;&gt;n_0 -->
<g id="edge7" class="edge">
<title>n_0_1_3_6&#45;&gt;n_0</title>
<path fill="none" stroke="black" d="M260.25,-243.13C261.87,-232.17 263.8,-219.18 265.49,-207.84"/>
<polygon fill="black" stroke="black" points="268.9,-208.67 266.91,-198.27 261.98,-207.64 268.9,-208.67"/>
</g>
<!-- n_1_3 -->
<g id="node4" class="node">
<title>n_1_3</title>
<polygon fill="none" stroke="black" points="30.62,-84.38 30.62,-109.62 91.88,-109.62 91.88,-84.38 30.62,-84.38"/>
<text text-anchor="start" x="37.62" y="-95.08" font-family="Times New Roman,serif" font-weight="bold" font-size="9.00">Primary (G)</text>
<polygon fill="none" stroke="black" points="91.88,-84.38 91.88,-109.62 160.62,-109.62 160.62,-84.38 91.88,-84.38"/>
<text text-anchor="start" x="98.88" y="-95.08" font-family="Times New Roman,serif" font-weight="bold" font-size="9.00">Secondary (P)</text>
<polygon fill="none" stroke="black" points="29.62,-83.38 29.62,-110.62 161.62,-110.62 161.62,-83.38 29.62,-83.38"/>
</g>
<!-- n_1_3_6&#45;&gt;n_1_3 -->
<g id="edge3" class="edge">
<title>n_1_3_6&#45;&gt;n_1_3</title>
<path fill="none" stroke="black" d="M121.97,-158.22C117.6,-148.23 112.23,-135.95 107.48,-125.09"/>
<polygon fill="black" stroke="black" points="110.82,-123.99 103.6,-116.23 104.4,-126.79 110.82,-123.99"/>
</g>
<!-- n_6 -->
<g id="node7" class="node">
<title>n_6</title>
<polygon fill="none" stroke="black" points="207.38,-84.38 207.38,-109.62 261.88,-109.62 261.88,-84.38 207.38,-84.38"/>
<text text-anchor="start" x="214.38" y="-95.08" font-family="Times New Roman,serif" font-weight="bold" font-size="9.00">University</text>
<polygon fill="none" stroke="black" points="206.38,-83.38 206.38,-110.62 262.88,-110.62 262.88,-83.38 206.38,-83.38"/>
</g>
<!-- n_1_3_6&#45;&gt;n_6 -->
<g id="edge6" class="edge">
<title>n_1_3_6&#45;&gt;n_6</title>
<path fill="none" stroke="black" d="M156.6,-158.02C170.95,-146.98 188.86,-133.2 203.9,-121.63"/>
<polygon fill="black" stroke="black" points="205.85,-124.55 211.64,-115.68 201.58,-119 205.85,-124.55"/>
</g>
<!-- n_1 -->
<g id="node5" class="node">
<title>n_1</title>
<polygon fill="none" stroke="black" points="9,-5.38 9,-30.62 70.25,-30.62 70.25,-5.38 9,-5.38"/>
<text text-anchor="start" x="16" y="-16.07" font-family="Times New Roman,serif" font-weight="bold" font-size="9.00">Primary (G)</text>
<polygon fill="none" stroke="black" points="8,-4.38 8,-31.62 71.25,-31.62 71.25,-4.38 8,-4.38"/>
</g>
<!-- n_1_3&#45;&gt;n_1 -->
<g id="edge4" class="edge">
<title>n_1_3&#45;&gt;n_1</title>
<path fill="none" stroke="black" d="M83.47,-79.29C76.19,-69.27 66.76,-56.31 58.52,-44.98"/>
<polygon fill="black" stroke="black" points="61.55,-43.19 52.84,-37.17 55.89,-47.31 61.55,-43.19"/>
</g>
<!-- n_3 -->
<g id="node6" class="node">
<title>n_3</title>
<polygon fill="none" stroke="black" points="117.25,-5.38 117.25,-30.62 186,-30.62 186,-5.38 117.25,-5.38"/>
<text text-anchor="start" x="124.25" y="-16.07" font-family="Times New Roman,serif" font-weight="bold" font-size="9.00">Secondary (P)</text>
<polygon fill="none" stroke="black" points="116.25,-4.38 116.25,-31.62 187,-31.62 187,-4.38 116.25,-4.38"/>
</g>
<!-- n_1_3&#45;&gt;n_3 -->
<g id="edge5" class="edge">
<title>n_1_3&#45;&gt;n_3</title>
<path fill="none" stroke="black" d="M107.78,-79.29C115.06,-69.27 124.49,-56.31 132.73,-44.98"/>
<polygon fill="black" stroke="black" points="135.36,-47.31 138.41,-37.17 129.7,-43.19 135.36,-47.31"/>
</g>
<!-- n_2_5 -->
<g id="node10" class="node">
<title>n_2_5</title>
<polygon fill="none" stroke="black" points="364,-166.38 364,-191.62 416.25,-191.62 416.25,-166.38 364,-166.38"/>
<text text-anchor="start" x="371" y="-177.07" font-family="Times New Roman,serif" font-weight="bold" font-size="9.00">Preschool</text>
<polygon fill="none" stroke="black" points="416.25,-166.38 416.25,-191.62 469.25,-191.62 469.25,-166.38 416.25,-166.38"/>
<text text-anchor="start" x="423.25" y="-177.07" font-family="Times New Roman,serif" font-weight="bold" font-size="9.00">Technical</text>
<polygon fill="none" stroke="black" points="363,-165.38 363,-192.62 470.25,-192.62 470.25,-165.38 363,-165.38"/>
</g>
<!-- n_2_4_5&#45;&gt;n_2_5 -->
<g id="edge9" class="edge">
<title>n_2_4_5&#45;&gt;n_2_5</title>
<path fill="none" stroke="black" d="M426.68,-247.64C424.93,-235.91 422.7,-220.86 420.78,-207.94"/>
<polygon fill="black" stroke="black" points="424.28,-207.71 419.35,-198.33 417.36,-208.73 424.28,-207.71"/>
</g>
<!-- n_4 -->
<g id="node13" class="node">
<title>n_4</title>
<polygon fill="none" stroke="black" points="516.5,-166.38 516.5,-191.62 586.75,-191.62 586.75,-166.38 516.5,-166.38"/>
<text text-anchor="start" x="523.5" y="-177.07" font-family="Times New Roman,serif" font-weight="bold" font-size="9.00">Secondary (G)</text>
<polygon fill="none" stroke="black" points="515.5,-165.38 515.5,-192.62 587.75,-192.62 587.75,-165.38 515.5,-165.38"/>
</g>
<!-- n_2_4_5&#45;&gt;n_4 -->
<g id="edge12" class="edge">
<title>n_2_4_5&#45;&gt;n_4</title>
<path fill="none" stroke="black" d="M457.31,-247.64C475.59,-234.53 499.64,-217.29 518.87,-203.49"/>
<polygon fill="black" stroke="black" points="520.84,-206.39 526.93,-197.71 516.76,-200.7 520.84,-206.39"/>
</g>
<!-- n_2 -->
<g id="node11" class="node">
<title>n_2</title>
<polygon fill="none" stroke="black" points="349.5,-84.38 349.5,-109.62 401.75,-109.62 401.75,-84.38 349.5,-84.38"/>
<text text-anchor="start" x="356.5" y="-95.08" font-family="Times New Roman,serif" font-weight="bold" font-size="9.00">Preschool</text>
<polygon fill="none" stroke="black" points="348.5,-83.38 348.5,-110.62 402.75,-110.62 402.75,-83.38 348.5,-83.38"/>
</g>
<!-- n_2_5&#45;&gt;n_2 -->
<g id="edge10" class="edge">
<title>n_2_5&#45;&gt;n_2</title>
<path fill="none" stroke="black" d="M407.93,-161.03C402.55,-150.53 395.52,-136.82 389.39,-124.87"/>
<polygon fill="black" stroke="black" points="392.67,-123.59 385,-116.29 386.44,-126.78 392.67,-123.59"/>
</g>
<!-- n_5 -->
<g id="node12" class="node">
<title>n_5</title>
<polygon fill="none" stroke="black" points="449.12,-84.38 449.12,-109.62 502.12,-109.62 502.12,-84.38 449.12,-84.38"/>
<text text-anchor="start" x="456.12" y="-95.08" font-family="Times New Roman,serif" font-weight="bold" font-size="9.00">Technical</text>
<polygon fill="none" stroke="black" points="448.12,-83.38 448.12,-110.62 503.12,-110.62 503.12,-83.38 448.12,-83.38"/>
</g>
<!-- n_2_5&#45;&gt;n_5 -->
<g id="edge11" class="edge">
<title>n_2_5&#45;&gt;n_5</title>
<path fill="none" stroke="black" d="M429.14,-161.03C437.04,-150.32 447.4,-136.27 456.34,-124.15"/>
<polygon fill="black" stroke="black" points="459.11,-126.29 462.23,-116.16 453.48,-122.13 459.11,-126.29"/>
</g>
</g>
</svg>
