<?xml version="1.0" encoding="UTF-8" standalone="no"?>
<!DOCTYPE svg PUBLIC "-//W3C//DTD SVG 1.1//EN"
 "http://www.w3.org/Graphics/SVG/1.1/DTD/svg11.dtd">
<!-- Generated by graphviz version 10.0.1 (20240210.2158)
 -->
<!-- Title: ND Pages: 1 -->
<svg width="553pt" height="423pt"
 viewBox="0.00 0.00 552.88 423.00" xmlns="http://www.w3.org/2000/svg" xmlns:xlink="http://www.w3.org/1999/xlink">
<g id="graph0" class="graph" transform="scale(1 1) rotate(0) translate(4 419)">
<title>ND</title>
<polygon fill="white" stroke="none" points="-4,4 -4,-419 548.88,-419 548.88,4 -4,4"/>
<!-- n_0_1_2_3_4_5_6 -->
<g id="node1" class="node">
<title>n_0_1_2_3_4_5_6</title>
<polygon fill="none" stroke="black" points="303.62,-342 303.62,-410 373.88,-410 373.88,-342 303.62,-342"/>
<text text-anchor="start" x="315.88" y="-395.45" font-family="Times New Roman,serif" font-weight="bold" font-size="9.00">Primary (P)</text>
<text text-anchor="start" x="315.12" y="-386.45" font-family="Times New Roman,serif" font-weight="bold" font-size="9.00">Primary (G)</text>
<text text-anchor="start" x="319.62" y="-377.45" font-family="Times New Roman,serif" font-weight="bold" font-size="9.00">Preschool</text>
<text text-anchor="start" x="311.38" y="-368.45" font-family="Times New Roman,serif" font-weight="bold" font-size="9.00">Secondary (P)</text>
<text text-anchor="start" x="310.62" y="-359.45" font-family="Times New Roman,serif" font-weight="bold" font-size="9.00">Secondary (G)</text>
<text text-anchor="start" x="318.5" y="-350.45" font-family="Times New Roman,serif" font-weight="bold" font-size="9.00">University</text>
<polygon fill="none" stroke="black" points="373.88,-342 373.88,-410 426.88,-410 426.88,-342 373.88,-342"/>
<text text-anchor="start" x="380.88" y="-374.07" font-family="Times New Roman,serif" font-weight="bold" font-size="9.00">Technical</text>
<polygon fill="none" stroke="black" points="302.62,-341 302.62,-411 427.88,-411 427.88,-341 302.62,-341"/>
</g>
<!-- n_0_1_2_3_4_6 -->
<g id="node2" class="node">
<title>n_0_1_2_3_4_6</title>
<polygon fill="none" stroke="black" points="230.5,-248 230.5,-289 300.75,-289 300.75,-248 230.5,-248"/>
<text text-anchor="start" x="242.75" y="-274.45" font-family="Times New Roman,serif" font-weight="bold" font-size="9.00">Primary (P)</text>
<text text-anchor="start" x="238.25" y="-265.45" font-family="Times New Roman,serif" font-weight="bold" font-size="9.00">Secondary (P)</text>
<text text-anchor="start" x="237.5" y="-256.45" font-family="Times New Roman,serif" font-weight="bold" font-size="9.00">Secondary (G)</text>
<polygon fill="none" stroke="black" points="300.75,-248 300.75,-289 362,-289 362,-248 300.75,-248"/>
<text text-anchor="start" x="307.75" y="-274.45" font-family="Times New Roman,serif" font-weight="bold" font-size="9.00">Primary (G)</text>
<text text-anchor="start" x="312.25" y="-265.45" font-family="Times New Roman,serif" font-weight="bold" font-size="9.00">Preschool</text>
<text text-anchor="start" x="311.12" y="-256.45" font-family="Times New Roman,serif" font-weight="bold" font-size="9.00">University</text>
<polygon fill="none" stroke="black" points="229.5,-247 229.5,-290 363,-290 363,-247 229.5,-247"/>
</g>
<!-- n_0_1_2_3_4_5_6&#45;&gt;n_0_1_2_3_4_6 -->
<g id="edge1" class="edge">
<title>n_0_1_2_3_4_5_6&#45;&gt;n_0_1_2_3_4_6</title>
<path fill="none" stroke="black" d="M340.53,-337.21C333.31,-326.16 325.46,-314.17 318.41,-303.38"/>
<polygon fill="black" stroke="black" points="321.42,-301.6 313.02,-295.14 315.57,-305.43 321.42,-301.6"/>
</g>
<!-- n_5 -->
<g id="node13" class="node">
<title>n_5</title>
<polygon fill="none" stroke="black" points="408.75,-255.88 408.75,-281.12 461.75,-281.12 461.75,-255.88 408.75,-255.88"/>
<text text-anchor="start" x="415.75" y="-266.57" font-family="Times New Roman,serif" font-weight="bold" font-size="9.00">Technical</text>
<polygon fill="none" stroke="black" points="407.75,-254.88 407.75,-282.12 462.75,-282.12 462.75,-254.88 407.75,-254.88"/>
</g>
<!-- n_0_1_2_3_4_5_6&#45;&gt;n_5 -->
<g id="edge12" class="edge">
<title>n_0_1_2_3_4_5_6&#45;&gt;n_5</title>
<path fill="none" stroke="black" d="M390.32,-337.21C399.42,-323.49 409.5,-308.31 417.8,-295.8"/>
<polygon fill="black" stroke="black" points="420.58,-297.95 423.19,-287.68 414.74,-294.08 420.58,-297.95"/>
</g>
<!-- n_0_3_4 -->
<g id="node3" class="node">
<title>n_0_3_4</title>
<polygon fill="none" stroke="black" points="139.75,-163 139.75,-195 208.5,-195 208.5,-163 139.75,-163"/>
<text text-anchor="start" x="151.25" y="-180.45" font-family="Times New Roman,serif" font-weight="bold" font-size="9.00">Primary (P)</text>
<text text-anchor="start" x="146.75" y="-171.45" font-family="Times New Roman,serif" font-weight="bold" font-size="9.00">Secondary (P)</text>
<polygon fill="none" stroke="black" points="208.5,-163 208.5,-195 278.75,-195 278.75,-163 208.5,-163"/>
<text text-anchor="start" x="215.5" y="-177.07" font-family="Times New Roman,serif" font-weight="bold" font-size="9.00">Secondary (G)</text>
<polygon fill="none" stroke="black" points="138.75,-162 138.75,-196 279.75,-196 279.75,-162 138.75,-162"/>
</g>
<!-- n_0_1_2_3_4_6&#45;&gt;n_0_3_4 -->
<g id="edge2" class="edge">
<title>n_0_1_2_3_4_6&#45;&gt;n_0_3_4</title>
<path fill="none" stroke="black" d="M272.02,-243.13C261.09,-232.14 248.14,-219.11 236.84,-207.75"/>
<polygon fill="black" stroke="black" points="239.56,-205.52 230.03,-200.9 234.6,-210.46 239.56,-205.52"/>
</g>
<!-- n_1_2_6 -->
<g id="node8" class="node">
<title>n_1_2_6</title>
<polygon fill="none" stroke="black" points="325.38,-163 325.38,-195 379.88,-195 379.88,-163 325.38,-163"/>
<text text-anchor="start" x="333.5" y="-180.45" font-family="Times New Roman,serif" font-weight="bold" font-size="9.00">Preschool</text>
<text text-anchor="start" x="332.38" y="-171.45" font-family="Times New Roman,serif" font-weight="bold" font-size="9.00">University</text>
<polygon fill="none" stroke="black" points="379.88,-163 379.88,-195 441.12,-195 441.12,-163 379.88,-163"/>
<text text-anchor="start" x="386.88" y="-177.07" font-family="Times New Roman,serif" font-weight="bold" font-size="9.00">Primary (G)</text>
<polygon fill="none" stroke="black" points="324.38,-162 324.38,-196 442.12,-196 442.12,-162 324.38,-162"/>
</g>
<!-- n_0_1_2_3_4_6&#45;&gt;n_1_2_6 -->
<g id="edge7" class="edge">
<title>n_0_1_2_3_4_6&#45;&gt;n_1_2_6</title>
<path fill="none" stroke="black" d="M320.48,-243.13C331.41,-232.14 344.36,-219.11 355.66,-207.75"/>
<polygon fill="black" stroke="black" points="357.9,-210.46 362.47,-200.9 352.94,-205.52 357.9,-210.46"/>
</g>
<!-- n_0_3 -->
<g id="node4" class="node">
<title>n_0_3</title>
<polygon fill="none" stroke="black" points="9,-84.38 9,-109.62 68.75,-109.62 68.75,-84.38 9,-84.38"/>
<text text-anchor="start" x="16" y="-95.08" font-family="Times New Roman,serif" font-weight="bold" font-size="9.00">Primary (P)</text>
<polygon fill="none" stroke="black" points="68.75,-84.38 68.75,-109.62 137.5,-109.62 137.5,-84.38 68.75,-84.38"/>
<text text-anchor="start" x="75.75" y="-95.08" font-family="Times New Roman,serif" font-weight="bold" font-size="9.00">Secondary (P)</text>
<polygon fill="none" stroke="black" points="8,-83.38 8,-110.62 138.5,-110.62 138.5,-83.38 8,-83.38"/>
</g>
<!-- n_0_3_4&#45;&gt;n_0_3 -->
<g id="edge3" class="edge">
<title>n_0_3_4&#45;&gt;n_0_3</title>
<path fill="none" stroke="black" d="M175.28,-158.02C155.9,-146.62 131.54,-132.29 111.49,-120.49"/>
<polygon fill="black" stroke="black" points="113.44,-117.58 103.04,-115.53 109.89,-123.61 113.44,-117.58"/>
</g>
<!-- n_4 -->
<g id="node7" class="node">
<title>n_4</title>
<polygon fill="none" stroke="black" points="184.12,-84.38 184.12,-109.62 254.38,-109.62 254.38,-84.38 184.12,-84.38"/>
<text text-anchor="start" x="191.12" y="-95.08" font-family="Times New Roman,serif" font-weight="bold" font-size="9.00">Secondary (G)</text>
<polygon fill="none" stroke="black" points="183.12,-83.38 183.12,-110.62 255.38,-110.62 255.38,-83.38 183.12,-83.38"/>
</g>
<!-- n_0_3_4&#45;&gt;n_4 -->
<g id="edge6" class="edge">
<title>n_0_3_4&#45;&gt;n_4</title>
<path fill="none" stroke="black" d="M211.72,-158.22C212.93,-148.54 214.41,-136.72 215.74,-126.11"/>
<polygon fill="black" stroke="black" points="219.19,-126.7 216.96,-116.35 212.24,-125.83 219.19,-126.7"/>
</g>
<!-- n_0 -->
<g id="node5" class="node">
<title>n_0</title>
<polygon fill="none" stroke="black" points="25.38,-5.38 25.38,-30.62 85.12,-30.62 85.12,-5.38 25.38,-5.38"/>
<text text-anchor="start" x="32.38" y="-16.07" font-family="Times New Roman,serif" font-weight="bold" font-size="9.00">Primary (P)</text>
<polygon fill="none" stroke="black" points="24.38,-4.38 24.38,-31.62 86.12,-31.62 86.12,-4.38 24.38,-4.38"/>
</g>
<!-- n_0_3&#45;&gt;n_0 -->
<g id="edge4" class="edge">
<title>n_0_3&#45;&gt;n_0</title>
<path fill="none" stroke="black" d="M69.34,-79.29C67.14,-69.87 64.33,-57.86 61.8,-47.04"/>
<polygon fill="black" stroke="black" points="65.24,-46.36 59.55,-37.41 58.42,-47.95 65.24,-46.36"/>
</g>
<!-- n_3 -->
<g id="node6" class="node">
<title>n_3</title>
<polygon fill="none" stroke="black" points="131.88,-5.38 131.88,-30.62 200.62,-30.62 200.62,-5.38 131.88,-5.38"/>
<text text-anchor="start" x="138.88" y="-16.07" font-family="Times New Roman,serif" font-weight="bold" font-size="9.00">Secondary (P)</text>
<polygon fill="none" stroke="black" points="130.88,-4.38 130.88,-31.62 201.62,-31.62 201.62,-4.38 130.88,-4.38"/>
</g>
<!-- n_0_3&#45;&gt;n_3 -->
<g id="edge5" class="edge">
<title>n_0_3&#45;&gt;n_3</title>
<path fill="none" stroke="black" d="M93.43,-79.29C106.26,-68.67 123.07,-54.75 137.31,-42.96"/>
<polygon fill="black" stroke="black" points="139.15,-45.98 144.62,-36.91 134.69,-40.59 139.15,-45.98"/>
</g>
<!-- n_2_6 -->
<g id="node9" class="node">
<title>n_2_6</title>
<polygon fill="none" stroke="black" points="320.88,-84.38 320.88,-109.62 373.12,-109.62 373.12,-84.38 320.88,-84.38"/>
<text text-anchor="start" x="327.88" y="-95.08" font-family="Times New Roman,serif" font-weight="bold" font-size="9.00">Preschool</text>
<polygon fill="none" stroke="black" points="373.12,-84.38 373.12,-109.62 427.62,-109.62 427.62,-84.38 373.12,-84.38"/>
<text text-anchor="start" x="380.12" y="-95.08" font-family="Times New Roman,serif" font-weight="bold" font-size="9.00">University</text>
<polygon fill="none" stroke="black" points="319.88,-83.38 319.88,-110.62 428.62,-110.62 428.62,-83.38 319.88,-83.38"/>
</g>
<!-- n_1_2_6&#45;&gt;n_2_6 -->
<g id="edge8" class="edge">
<title>n_1_2_6&#45;&gt;n_2_6</title>
<path fill="none" stroke="black" d="M381.03,-158.22C379.94,-148.54 378.61,-136.72 377.41,-126.11"/>
<polygon fill="black" stroke="black" points="380.91,-125.89 376.31,-116.35 373.95,-126.68 380.91,-125.89"/>
</g>
<!-- n_1 -->
<g id="node12" class="node">
<title>n_1</title>
<polygon fill="none" stroke="black" points="474.62,-84.38 474.62,-109.62 535.88,-109.62 535.88,-84.38 474.62,-84.38"/>
<text text-anchor="start" x="481.62" y="-95.08" font-family="Times New Roman,serif" font-weight="bold" font-size="9.00">Primary (G)</text>
<polygon fill="none" stroke="black" points="473.62,-83.38 473.62,-110.62 536.88,-110.62 536.88,-83.38 473.62,-83.38"/>
</g>
<!-- n_1_2_6&#45;&gt;n_1 -->
<g id="edge11" class="edge">
<title>n_1_2_6&#45;&gt;n_1</title>
<path fill="none" stroke="black" d="M413.72,-158.02C430.87,-146.77 452.36,-132.68 470.2,-120.98"/>
<polygon fill="black" stroke="black" points="471.98,-124 478.43,-115.59 468.15,-118.15 471.98,-124"/>
</g>
<!-- n_2 -->
<g id="node10" class="node">
<title>n_2</title>
<polygon fill="none" stroke="black" points="288.12,-5.38 288.12,-30.62 340.38,-30.62 340.38,-5.38 288.12,-5.38"/>
<text text-anchor="start" x="295.12" y="-16.07" font-family="Times New Roman,serif" font-weight="bold" font-size="9.00">Preschool</text>
<polygon fill="none" stroke="black" points="287.12,-4.38 287.12,-31.62 341.38,-31.62 341.38,-4.38 287.12,-4.38"/>
</g>
<!-- n_2_6&#45;&gt;n_2 -->
<g id="edge9" class="edge">
<title>n_2_6&#45;&gt;n_2</title>
<path fill="none" stroke="black" d="M361.23,-79.29C353.42,-69.27 343.32,-56.31 334.49,-44.98"/>
<polygon fill="black" stroke="black" points="337.29,-42.87 328.38,-37.14 331.77,-47.17 337.29,-42.87"/>
</g>
<!-- n_6 -->
<g id="node11" class="node">
<title>n_6</title>
<polygon fill="none" stroke="black" points="387,-5.38 387,-30.62 441.5,-30.62 441.5,-5.38 387,-5.38"/>
<text text-anchor="start" x="394" y="-16.07" font-family="Times New Roman,serif" font-weight="bold" font-size="9.00">University</text>
<polygon fill="none" stroke="black" points="386,-4.38 386,-31.62 442.5,-31.62 442.5,-4.38 386,-4.38"/>
</g>
<!-- n_2_6&#45;&gt;n_6 -->
<g id="edge10" class="edge">
<title>n_2_6&#45;&gt;n_6</title>
<path fill="none" stroke="black" d="M382.93,-79.29C387.98,-69.57 394.46,-57.09 400.22,-46"/>
<polygon fill="black" stroke="black" points="403.25,-47.77 404.75,-37.28 397.04,-44.54 403.25,-47.77"/>
</g>
</g>
</svg>
