<?xml version="1.0" encoding="UTF-8" standalone="no"?>
<!DOCTYPE svg PUBLIC "-//W3C//DTD SVG 1.1//EN"
 "http://www.w3.org/Graphics/SVG/1.1/DTD/svg11.dtd">
<!-- Generated by graphviz version 10.0.1 (20240210.2158)
 -->
<!-- Title: ND Pages: 1 -->
<svg width="671pt" height="311pt"
 viewBox="0.00 0.00 671.25 311.00" xmlns="http://www.w3.org/2000/svg" xmlns:xlink="http://www.w3.org/1999/xlink">
<g id="graph0" class="graph" transform="scale(1 1) rotate(0) translate(4 307)">
<title>ND</title>
<polygon fill="white" stroke="none" points="-4,4 -4,-307 667.25,-307 667.25,4 -4,4"/>
<!-- n_0_1_2_3_4_5_6 -->
<g id="node1" class="node">
<title>n_0_1_2_3_4_5_6</title>
<polygon fill="none" stroke="black" points="329.38,-248 329.38,-298 399.62,-298 399.62,-248 329.38,-248"/>
<text text-anchor="start" x="341.62" y="-283.45" font-family="Times New Roman,serif" font-weight="bold" font-size="9.00">Primary (P)</text>
<text text-anchor="start" x="340.88" y="-274.45" font-family="Times New Roman,serif" font-weight="bold" font-size="9.00">Primary (G)</text>
<text text-anchor="start" x="336.38" y="-265.45" font-family="Times New Roman,serif" font-weight="bold" font-size="9.00">Secondary (G)</text>
<text text-anchor="start" x="345" y="-256.45" font-family="Times New Roman,serif" font-weight="bold" font-size="9.00">Technical</text>
<polygon fill="none" stroke="black" points="399.62,-248 399.62,-298 468.38,-298 468.38,-248 399.62,-248"/>
<text text-anchor="start" x="414.88" y="-278.95" font-family="Times New Roman,serif" font-weight="bold" font-size="9.00">Preschool</text>
<text text-anchor="start" x="406.62" y="-269.95" font-family="Times New Roman,serif" font-weight="bold" font-size="9.00">Secondary (P)</text>
<text text-anchor="start" x="413.75" y="-260.95" font-family="Times New Roman,serif" font-weight="bold" font-size="9.00">University</text>
<polygon fill="none" stroke="black" points="328.38,-247 328.38,-299 469.38,-299 469.38,-247 328.38,-247"/>
</g>
<!-- n_0_1_4_5 -->
<g id="node2" class="node">
<title>n_0_1_4_5</title>
<polygon fill="none" stroke="black" points="246.12,-163 246.12,-195 307.38,-195 307.38,-163 246.12,-163"/>
<text text-anchor="start" x="253.88" y="-180.45" font-family="Times New Roman,serif" font-weight="bold" font-size="9.00">Primary (P)</text>
<text text-anchor="start" x="253.12" y="-171.45" font-family="Times New Roman,serif" font-weight="bold" font-size="9.00">Primary (G)</text>
<polygon fill="none" stroke="black" points="307.38,-163 307.38,-195 377.62,-195 377.62,-163 307.38,-163"/>
<text text-anchor="start" x="314.38" y="-180.45" font-family="Times New Roman,serif" font-weight="bold" font-size="9.00">Secondary (G)</text>
<text text-anchor="start" x="323" y="-171.45" font-family="Times New Roman,serif" font-weight="bold" font-size="9.00">Technical</text>
<polygon fill="none" stroke="black" points="245.12,-162 245.12,-196 378.62,-196 378.62,-162 245.12,-162"/>
</g>
<!-- n_0_1_2_3_4_5_6&#45;&gt;n_0_1_4_5 -->
<g id="edge1" class="edge">
<title>n_0_1_2_3_4_5_6&#45;&gt;n_0_1_4_5</title>
<path fill="none" stroke="black" d="M371.59,-243.14C360.94,-231.89 348.79,-219.04 338.24,-207.88"/>
<polygon fill="black" stroke="black" points="340.99,-205.69 331.57,-200.83 335.9,-210.5 340.99,-205.69"/>
</g>
<!-- n_2_3_6 -->
<g id="node9" class="node">
<title>n_2_3_6</title>
<polygon fill="none" stroke="black" points="424.25,-163 424.25,-195 478.75,-195 478.75,-163 424.25,-163"/>
<text text-anchor="start" x="432.38" y="-180.45" font-family="Times New Roman,serif" font-weight="bold" font-size="9.00">Preschool</text>
<text text-anchor="start" x="431.25" y="-171.45" font-family="Times New Roman,serif" font-weight="bold" font-size="9.00">University</text>
<polygon fill="none" stroke="black" points="478.75,-163 478.75,-195 547.5,-195 547.5,-163 478.75,-163"/>
<text text-anchor="start" x="485.75" y="-177.07" font-family="Times New Roman,serif" font-weight="bold" font-size="9.00">Secondary (P)</text>
<polygon fill="none" stroke="black" points="423.25,-162 423.25,-196 548.5,-196 548.5,-162 423.25,-162"/>
</g>
<!-- n_0_1_2_3_4_5_6&#45;&gt;n_2_3_6 -->
<g id="edge8" class="edge">
<title>n_0_1_2_3_4_5_6&#45;&gt;n_2_3_6</title>
<path fill="none" stroke="black" d="M426.16,-243.14C436.81,-231.89 448.96,-219.04 459.51,-207.88"/>
<polygon fill="black" stroke="black" points="461.85,-210.5 466.18,-200.83 456.76,-205.69 461.85,-210.5"/>
</g>
<!-- n_0_1 -->
<g id="node3" class="node">
<title>n_0_1</title>
<polygon fill="none" stroke="black" points="85.38,-84.38 85.38,-109.62 145.12,-109.62 145.12,-84.38 85.38,-84.38"/>
<text text-anchor="start" x="92.38" y="-95.08" font-family="Times New Roman,serif" font-weight="bold" font-size="9.00">Primary (P)</text>
<polygon fill="none" stroke="black" points="145.12,-84.38 145.12,-109.62 206.38,-109.62 206.38,-84.38 145.12,-84.38"/>
<text text-anchor="start" x="152.12" y="-95.08" font-family="Times New Roman,serif" font-weight="bold" font-size="9.00">Primary (G)</text>
<polygon fill="none" stroke="black" points="84.38,-83.38 84.38,-110.62 207.38,-110.62 207.38,-83.38 84.38,-83.38"/>
</g>
<!-- n_0_1_4_5&#45;&gt;n_0_1 -->
<g id="edge2" class="edge">
<title>n_0_1_4_5&#45;&gt;n_0_1</title>
<path fill="none" stroke="black" d="M270.41,-158.02C246.3,-146.4 215.88,-131.74 191.14,-119.81"/>
<polygon fill="black" stroke="black" points="192.81,-116.74 182.29,-115.55 189.77,-123.04 192.81,-116.74"/>
</g>
<!-- n_4_5 -->
<g id="node6" class="node">
<title>n_4_5</title>
<polygon fill="none" stroke="black" points="253.25,-84.38 253.25,-109.62 323.5,-109.62 323.5,-84.38 253.25,-84.38"/>
<text text-anchor="start" x="260.25" y="-95.08" font-family="Times New Roman,serif" font-weight="bold" font-size="9.00">Secondary (G)</text>
<polygon fill="none" stroke="black" points="323.5,-84.38 323.5,-109.62 376.5,-109.62 376.5,-84.38 323.5,-84.38"/>
<text text-anchor="start" x="330.5" y="-95.08" font-family="Times New Roman,serif" font-weight="bold" font-size="9.00">Technical</text>
<polygon fill="none" stroke="black" points="252.25,-83.38 252.25,-110.62 377.5,-110.62 377.5,-83.38 252.25,-83.38"/>
</g>
<!-- n_0_1_4_5&#45;&gt;n_4_5 -->
<g id="edge5" class="edge">
<title>n_0_1_4_5&#45;&gt;n_4_5</title>
<path fill="none" stroke="black" d="M312.62,-158.22C312.98,-148.54 313.42,-136.72 313.82,-126.11"/>
<polygon fill="black" stroke="black" points="317.31,-126.48 314.19,-116.36 310.31,-126.22 317.31,-126.48"/>
</g>
<!-- n_0 -->
<g id="node4" class="node">
<title>n_0</title>
<polygon fill="none" stroke="black" points="9,-5.38 9,-30.62 68.75,-30.62 68.75,-5.38 9,-5.38"/>
<text text-anchor="start" x="16" y="-16.07" font-family="Times New Roman,serif" font-weight="bold" font-size="9.00">Primary (P)</text>
<polygon fill="none" stroke="black" points="8,-4.38 8,-31.62 69.75,-31.62 69.75,-4.38 8,-4.38"/>
</g>
<!-- n_0_1&#45;&gt;n_0 -->
<g id="edge3" class="edge">
<title>n_0_1&#45;&gt;n_0</title>
<path fill="none" stroke="black" d="M122.39,-79.1C107.48,-68.37 87.97,-54.33 71.55,-42.51"/>
<polygon fill="black" stroke="black" points="73.69,-39.74 63.53,-36.74 69.6,-45.42 73.69,-39.74"/>
</g>
<!-- n_1 -->
<g id="node5" class="node">
<title>n_1</title>
<polygon fill="none" stroke="black" points="116.25,-5.38 116.25,-30.62 177.5,-30.62 177.5,-5.38 116.25,-5.38"/>
<text text-anchor="start" x="123.25" y="-16.07" font-family="Times New Roman,serif" font-weight="bold" font-size="9.00">Primary (G)</text>
<polygon fill="none" stroke="black" points="115.25,-4.38 115.25,-31.62 178.5,-31.62 178.5,-4.38 115.25,-4.38"/>
</g>
<!-- n_0_1&#45;&gt;n_1 -->
<g id="edge4" class="edge">
<title>n_0_1&#45;&gt;n_1</title>
<path fill="none" stroke="black" d="M146.09,-79.29C146.21,-69.97 146.37,-58.11 146.51,-47.38"/>
<polygon fill="black" stroke="black" points="150.01,-47.5 146.64,-37.45 143.01,-47.41 150.01,-47.5"/>
</g>
<!-- n_4 -->
<g id="node7" class="node">
<title>n_4</title>
<polygon fill="none" stroke="black" points="234.75,-5.38 234.75,-30.62 305,-30.62 305,-5.38 234.75,-5.38"/>
<text text-anchor="start" x="241.75" y="-16.07" font-family="Times New Roman,serif" font-weight="bold" font-size="9.00">Secondary (G)</text>
<polygon fill="none" stroke="black" points="233.75,-4.38 233.75,-31.62 306,-31.62 306,-4.38 233.75,-4.38"/>
</g>
<!-- n_4_5&#45;&gt;n_4 -->
<g id="edge6" class="edge">
<title>n_4_5&#45;&gt;n_4</title>
<path fill="none" stroke="black" d="M305.11,-79.29C299.37,-69.47 291.98,-56.83 285.46,-45.66"/>
<polygon fill="black" stroke="black" points="288.61,-44.12 280.54,-37.25 282.56,-47.65 288.61,-44.12"/>
</g>
<!-- n_5 -->
<g id="node8" class="node">
<title>n_5</title>
<polygon fill="none" stroke="black" points="352.38,-5.38 352.38,-30.62 405.38,-30.62 405.38,-5.38 352.38,-5.38"/>
<text text-anchor="start" x="359.38" y="-16.07" font-family="Times New Roman,serif" font-weight="bold" font-size="9.00">Technical</text>
<polygon fill="none" stroke="black" points="351.38,-4.38 351.38,-31.62 406.38,-31.62 406.38,-4.38 351.38,-4.38"/>
</g>
<!-- n_4_5&#45;&gt;n_5 -->
<g id="edge7" class="edge">
<title>n_4_5&#45;&gt;n_5</title>
<path fill="none" stroke="black" d="M328.76,-79.29C337.17,-69.17 348.08,-56.05 357.56,-44.64"/>
<polygon fill="black" stroke="black" points="360.13,-47.03 363.83,-37.11 354.74,-42.56 360.13,-47.03"/>
</g>
<!-- n_2_6 -->
<g id="node10" class="node">
<title>n_2_6</title>
<polygon fill="none" stroke="black" points="431.5,-84.38 431.5,-109.62 483.75,-109.62 483.75,-84.38 431.5,-84.38"/>
<text text-anchor="start" x="438.5" y="-95.08" font-family="Times New Roman,serif" font-weight="bold" font-size="9.00">Preschool</text>
<polygon fill="none" stroke="black" points="483.75,-84.38 483.75,-109.62 538.25,-109.62 538.25,-84.38 483.75,-84.38"/>
<text text-anchor="start" x="490.75" y="-95.08" font-family="Times New Roman,serif" font-weight="bold" font-size="9.00">University</text>
<polygon fill="none" stroke="black" points="430.5,-83.38 430.5,-110.62 539.25,-110.62 539.25,-83.38 430.5,-83.38"/>
</g>
<!-- n_2_3_6&#45;&gt;n_2_6 -->
<g id="edge9" class="edge">
<title>n_2_3_6&#45;&gt;n_2_6</title>
<path fill="none" stroke="black" d="M485.63,-158.22C485.51,-148.54 485.36,-136.72 485.23,-126.11"/>
<polygon fill="black" stroke="black" points="488.73,-126.31 485.1,-116.36 481.73,-126.4 488.73,-126.31"/>
</g>
<!-- n_3 -->
<g id="node13" class="node">
<title>n_3</title>
<polygon fill="none" stroke="black" points="585.5,-84.38 585.5,-109.62 654.25,-109.62 654.25,-84.38 585.5,-84.38"/>
<text text-anchor="start" x="592.5" y="-95.08" font-family="Times New Roman,serif" font-weight="bold" font-size="9.00">Secondary (P)</text>
<polygon fill="none" stroke="black" points="584.5,-83.38 584.5,-110.62 655.25,-110.62 655.25,-83.38 584.5,-83.38"/>
</g>
<!-- n_2_3_6&#45;&gt;n_3 -->
<g id="edge12" class="edge">
<title>n_2_3_6&#45;&gt;n_3</title>
<path fill="none" stroke="black" d="M519.34,-158.02C538.35,-146.67 562.22,-132.42 581.93,-120.66"/>
<polygon fill="black" stroke="black" points="583.71,-123.67 590.51,-115.53 580.12,-117.66 583.71,-123.67"/>
</g>
<!-- n_2 -->
<g id="node11" class="node">
<title>n_2</title>
<polygon fill="none" stroke="black" points="457.75,-5.38 457.75,-30.62 510,-30.62 510,-5.38 457.75,-5.38"/>
<text text-anchor="start" x="464.75" y="-16.07" font-family="Times New Roman,serif" font-weight="bold" font-size="9.00">Preschool</text>
<polygon fill="none" stroke="black" points="456.75,-4.38 456.75,-31.62 511,-31.62 511,-4.38 456.75,-4.38"/>
</g>
<!-- n_2_6&#45;&gt;n_2 -->
<g id="edge10" class="edge">
<title>n_2_6&#45;&gt;n_2</title>
<path fill="none" stroke="black" d="M484.66,-79.29C484.54,-69.97 484.38,-58.11 484.24,-47.38"/>
<polygon fill="black" stroke="black" points="487.74,-47.41 484.11,-37.45 480.74,-47.5 487.74,-47.41"/>
</g>
<!-- n_6 -->
<g id="node12" class="node">
<title>n_6</title>
<polygon fill="none" stroke="black" points="556.62,-5.38 556.62,-30.62 611.12,-30.62 611.12,-5.38 556.62,-5.38"/>
<text text-anchor="start" x="563.62" y="-16.07" font-family="Times New Roman,serif" font-weight="bold" font-size="9.00">University</text>
<polygon fill="none" stroke="black" points="555.62,-4.38 555.62,-31.62 612.12,-31.62 612.12,-4.38 555.62,-4.38"/>
</g>
<!-- n_2_6&#45;&gt;n_6 -->
<g id="edge11" class="edge">
<title>n_2_6&#45;&gt;n_6</title>
<path fill="none" stroke="black" d="M506.36,-79.29C520.01,-68.67 537.91,-54.75 553.07,-42.96"/>
<polygon fill="black" stroke="black" points="555.15,-45.77 560.9,-36.87 550.86,-40.25 555.15,-45.77"/>
</g>
</g>
</svg>
