<?xml version="1.0" encoding="UTF-8" standalone="no"?>
<!DOCTYPE svg PUBLIC "-//W3C//DTD SVG 1.1//EN"
 "http://www.w3.org/Graphics/SVG/1.1/DTD/svg11.dtd">
<!-- Generated by graphviz version 10.0.1 (20240210.2158)
 -->
<!-- Title: ND Pages: 1 -->
<svg width="598pt" height="526pt"
 viewBox="0.00 0.00 598.12 526.00" xmlns="http://www.w3.org/2000/svg" xmlns:xlink="http://www.w3.org/1999/xlink">
<g id="graph0" class="graph" transform="scale(1 1) rotate(0) translate(4 522)">
<title>ND</title>
<polygon fill="white" stroke="none" points="-4,4 -4,-522 594.12,-522 594.12,4 -4,4"/>
<!-- n_0_1_2_3_4_5_6 -->
<g id="node1" class="node">
<title>n_0_1_2_3_4_5_6</title>
<polygon fill="none" stroke="black" points="387.38,-445 387.38,-513 457.62,-513 457.62,-445 387.38,-445"/>
<text text-anchor="start" x="399.62" y="-498.45" font-family="Times New Roman,serif" font-weight="bold" font-size="9.00">Primary (P)</text>
<text text-anchor="start" x="398.88" y="-489.45" font-family="Times New Roman,serif" font-weight="bold" font-size="9.00">Primary (G)</text>
<text text-anchor="start" x="395.12" y="-480.45" font-family="Times New Roman,serif" font-weight="bold" font-size="9.00">Secondary (P)</text>
<text text-anchor="start" x="394.38" y="-471.45" font-family="Times New Roman,serif" font-weight="bold" font-size="9.00">Secondary (G)</text>
<text text-anchor="start" x="403" y="-462.45" font-family="Times New Roman,serif" font-weight="bold" font-size="9.00">Technical</text>
<text text-anchor="start" x="402.25" y="-453.45" font-family="Times New Roman,serif" font-weight="bold" font-size="9.00">University</text>
<polygon fill="none" stroke="black" points="457.62,-445 457.62,-513 509.88,-513 509.88,-445 457.62,-445"/>
<text text-anchor="start" x="464.62" y="-477.07" font-family="Times New Roman,serif" font-weight="bold" font-size="9.00">Preschool</text>
<polygon fill="none" stroke="black" points="386.38,-444 386.38,-514 510.88,-514 510.88,-444 386.38,-444"/>
</g>
<!-- n_0_1_3_4_5_6 -->
<g id="node2" class="node">
<title>n_0_1_3_4_5_6</title>
<polygon fill="none" stroke="black" points="314.62,-342 314.62,-392 384.88,-392 384.88,-342 314.62,-342"/>
<text text-anchor="start" x="326.12" y="-377.45" font-family="Times New Roman,serif" font-weight="bold" font-size="9.00">Primary (G)</text>
<text text-anchor="start" x="322.38" y="-368.45" font-family="Times New Roman,serif" font-weight="bold" font-size="9.00">Secondary (P)</text>
<text text-anchor="start" x="321.62" y="-359.45" font-family="Times New Roman,serif" font-weight="bold" font-size="9.00">Secondary (G)</text>
<text text-anchor="start" x="329.5" y="-350.45" font-family="Times New Roman,serif" font-weight="bold" font-size="9.00">University</text>
<polygon fill="none" stroke="black" points="384.88,-342 384.88,-392 444.62,-392 444.62,-342 384.88,-342"/>
<text text-anchor="start" x="391.88" y="-368.45" font-family="Times New Roman,serif" font-weight="bold" font-size="9.00">Primary (P)</text>
<text text-anchor="start" x="395.25" y="-359.45" font-family="Times New Roman,serif" font-weight="bold" font-size="9.00">Technical</text>
<polygon fill="none" stroke="black" points="313.62,-341 313.62,-393 445.62,-393 445.62,-341 313.62,-341"/>
</g>
<!-- n_0_1_2_3_4_5_6&#45;&gt;n_0_1_3_4_5_6 -->
<g id="edge1" class="edge">
<title>n_0_1_2_3_4_5_6&#45;&gt;n_0_1_3_4_5_6</title>
<path fill="none" stroke="black" d="M424.88,-440.14C418.07,-429.3 410.65,-417.46 403.82,-406.57"/>
<polygon fill="black" stroke="black" points="406.83,-404.78 398.55,-398.17 400.9,-408.5 406.83,-404.78"/>
</g>
<!-- n_2 -->
<g id="node13" class="node">
<title>n_2</title>
<polygon fill="none" stroke="black" points="491.5,-354.38 491.5,-379.62 543.75,-379.62 543.75,-354.38 491.5,-354.38"/>
<text text-anchor="start" x="498.5" y="-365.07" font-family="Times New Roman,serif" font-weight="bold" font-size="9.00">Preschool</text>
<polygon fill="none" stroke="black" points="490.5,-353.38 490.5,-380.62 544.75,-380.62 544.75,-353.38 490.5,-353.38"/>
</g>
<!-- n_0_1_2_3_4_5_6&#45;&gt;n_2 -->
<g id="edge12" class="edge">
<title>n_0_1_2_3_4_5_6&#45;&gt;n_2</title>
<path fill="none" stroke="black" d="M472.37,-440.14C481.75,-425.19 492.31,-408.35 500.87,-394.71"/>
<polygon fill="black" stroke="black" points="503.82,-396.6 506.17,-386.26 497.89,-392.88 503.82,-396.6"/>
</g>
<!-- n_1_3_4_6 -->
<g id="node3" class="node">
<title>n_1_3_4_6</title>
<polygon fill="none" stroke="black" points="224.12,-248 224.12,-289 294.38,-289 294.38,-248 224.12,-248"/>
<text text-anchor="start" x="235.62" y="-274.45" font-family="Times New Roman,serif" font-weight="bold" font-size="9.00">Primary (G)</text>
<text text-anchor="start" x="231.12" y="-265.45" font-family="Times New Roman,serif" font-weight="bold" font-size="9.00">Secondary (G)</text>
<text text-anchor="start" x="239" y="-256.45" font-family="Times New Roman,serif" font-weight="bold" font-size="9.00">University</text>
<polygon fill="none" stroke="black" points="294.38,-248 294.38,-289 363.12,-289 363.12,-248 294.38,-248"/>
<text text-anchor="start" x="301.38" y="-266.57" font-family="Times New Roman,serif" font-weight="bold" font-size="9.00">Secondary (P)</text>
<polygon fill="none" stroke="black" points="223.12,-247 223.12,-290 364.12,-290 364.12,-247 223.12,-247"/>
</g>
<!-- n_0_1_3_4_5_6&#45;&gt;n_1_3_4_6 -->
<g id="edge2" class="edge">
<title>n_0_1_3_4_5_6&#45;&gt;n_1_3_4_6</title>
<path fill="none" stroke="black" d="M353.82,-337.05C344.04,-326.08 332.85,-313.51 322.78,-302.22"/>
<polygon fill="black" stroke="black" points="325.62,-300.14 316.35,-295 320.39,-304.8 325.62,-300.14"/>
</g>
<!-- n_0_5 -->
<g id="node10" class="node">
<title>n_0_5</title>
<polygon fill="none" stroke="black" points="410.25,-255.88 410.25,-281.12 470,-281.12 470,-255.88 410.25,-255.88"/>
<text text-anchor="start" x="417.25" y="-266.57" font-family="Times New Roman,serif" font-weight="bold" font-size="9.00">Primary (P)</text>
<polygon fill="none" stroke="black" points="470,-255.88 470,-281.12 523,-281.12 523,-255.88 470,-255.88"/>
<text text-anchor="start" x="477" y="-266.57" font-family="Times New Roman,serif" font-weight="bold" font-size="9.00">Technical</text>
<polygon fill="none" stroke="black" points="409.25,-254.88 409.25,-282.12 524,-282.12 524,-254.88 409.25,-254.88"/>
</g>
<!-- n_0_1_3_4_5_6&#45;&gt;n_0_5 -->
<g id="edge9" class="edge">
<title>n_0_1_3_4_5_6&#45;&gt;n_0_5</title>
<path fill="none" stroke="black" d="M405.73,-337.05C417.85,-323.6 432.12,-307.77 443.8,-294.81"/>
<polygon fill="black" stroke="black" points="446.31,-297.26 450.41,-287.49 441.11,-292.57 446.31,-297.26"/>
</g>
<!-- n_1_4_6 -->
<g id="node4" class="node">
<title>n_1_4_6</title>
<polygon fill="none" stroke="black" points="103.25,-163 103.25,-195 173.5,-195 173.5,-163 103.25,-163"/>
<text text-anchor="start" x="114.75" y="-180.45" font-family="Times New Roman,serif" font-weight="bold" font-size="9.00">Primary (G)</text>
<text text-anchor="start" x="110.25" y="-171.45" font-family="Times New Roman,serif" font-weight="bold" font-size="9.00">Secondary (G)</text>
<polygon fill="none" stroke="black" points="173.5,-163 173.5,-195 228,-195 228,-163 173.5,-163"/>
<text text-anchor="start" x="180.5" y="-177.07" font-family="Times New Roman,serif" font-weight="bold" font-size="9.00">University</text>
<polygon fill="none" stroke="black" points="102.25,-162 102.25,-196 229,-196 229,-162 102.25,-162"/>
</g>
<!-- n_1_3_4_6&#45;&gt;n_1_4_6 -->
<g id="edge3" class="edge">
<title>n_1_3_4_6&#45;&gt;n_1_4_6</title>
<path fill="none" stroke="black" d="M257.97,-243.13C241.12,-231.61 220.98,-217.84 203.82,-206.11"/>
<polygon fill="black" stroke="black" points="206.11,-203.43 195.88,-200.68 202.16,-209.21 206.11,-203.43"/>
</g>
<!-- n_3 -->
<g id="node9" class="node">
<title>n_3</title>
<polygon fill="none" stroke="black" points="275.25,-166.38 275.25,-191.62 344,-191.62 344,-166.38 275.25,-166.38"/>
<text text-anchor="start" x="282.25" y="-177.07" font-family="Times New Roman,serif" font-weight="bold" font-size="9.00">Secondary (P)</text>
<polygon fill="none" stroke="black" points="274.25,-165.38 274.25,-192.62 345,-192.62 345,-165.38 274.25,-165.38"/>
</g>
<!-- n_1_3_4_6&#45;&gt;n_3 -->
<g id="edge8" class="edge">
<title>n_1_3_4_6&#45;&gt;n_3</title>
<path fill="none" stroke="black" d="M298.08,-243.13C300.09,-232.17 302.46,-219.18 304.54,-207.84"/>
<polygon fill="black" stroke="black" points="307.93,-208.73 306.29,-198.26 301.04,-207.47 307.93,-208.73"/>
</g>
<!-- n_1_4 -->
<g id="node5" class="node">
<title>n_1_4</title>
<polygon fill="none" stroke="black" points="29.88,-84.38 29.88,-109.62 91.12,-109.62 91.12,-84.38 29.88,-84.38"/>
<text text-anchor="start" x="36.88" y="-95.08" font-family="Times New Roman,serif" font-weight="bold" font-size="9.00">Primary (G)</text>
<polygon fill="none" stroke="black" points="91.12,-84.38 91.12,-109.62 161.38,-109.62 161.38,-84.38 91.12,-84.38"/>
<text text-anchor="start" x="98.12" y="-95.08" font-family="Times New Roman,serif" font-weight="bold" font-size="9.00">Secondary (G)</text>
<polygon fill="none" stroke="black" points="28.88,-83.38 28.88,-110.62 162.38,-110.62 162.38,-83.38 28.88,-83.38"/>
</g>
<!-- n_1_4_6&#45;&gt;n_1_4 -->
<g id="edge4" class="edge">
<title>n_1_4_6&#45;&gt;n_1_4</title>
<path fill="none" stroke="black" d="M148.32,-158.22C139.12,-147.71 127.71,-134.66 117.86,-123.41"/>
<polygon fill="black" stroke="black" points="120.58,-121.2 111.36,-115.98 115.31,-125.81 120.58,-121.2"/>
</g>
<!-- n_6 -->
<g id="node8" class="node">
<title>n_6</title>
<polygon fill="none" stroke="black" points="208.38,-84.38 208.38,-109.62 262.88,-109.62 262.88,-84.38 208.38,-84.38"/>
<text text-anchor="start" x="215.38" y="-95.08" font-family="Times New Roman,serif" font-weight="bold" font-size="9.00">University</text>
<polygon fill="none" stroke="black" points="207.38,-83.38 207.38,-110.62 263.88,-110.62 263.88,-83.38 207.38,-83.38"/>
</g>
<!-- n_1_4_6&#45;&gt;n_6 -->
<g id="edge7" class="edge">
<title>n_1_4_6&#45;&gt;n_6</title>
<path fill="none" stroke="black" d="M182.93,-158.22C192.13,-147.71 203.54,-134.66 213.39,-123.41"/>
<polygon fill="black" stroke="black" points="215.94,-125.81 219.89,-115.98 210.67,-121.2 215.94,-125.81"/>
</g>
<!-- n_1 -->
<g id="node6" class="node">
<title>n_1</title>
<polygon fill="none" stroke="black" points="9,-5.38 9,-30.62 70.25,-30.62 70.25,-5.38 9,-5.38"/>
<text text-anchor="start" x="16" y="-16.07" font-family="Times New Roman,serif" font-weight="bold" font-size="9.00">Primary (G)</text>
<polygon fill="none" stroke="black" points="8,-4.38 8,-31.62 71.25,-31.62 71.25,-4.38 8,-4.38"/>
</g>
<!-- n_1_4&#45;&gt;n_1 -->
<g id="edge5" class="edge">
<title>n_1_4&#45;&gt;n_1</title>
<path fill="none" stroke="black" d="M83.47,-79.29C76.19,-69.27 66.76,-56.31 58.52,-44.98"/>
<polygon fill="black" stroke="black" points="61.55,-43.19 52.84,-37.17 55.89,-47.31 61.55,-43.19"/>
</g>
<!-- n_4 -->
<g id="node7" class="node">
<title>n_4</title>
<polygon fill="none" stroke="black" points="117.5,-5.38 117.5,-30.62 187.75,-30.62 187.75,-5.38 117.5,-5.38"/>
<text text-anchor="start" x="124.5" y="-16.07" font-family="Times New Roman,serif" font-weight="bold" font-size="9.00">Secondary (G)</text>
<polygon fill="none" stroke="black" points="116.5,-4.38 116.5,-31.62 188.75,-31.62 188.75,-4.38 116.5,-4.38"/>
</g>
<!-- n_1_4&#45;&gt;n_4 -->
<g id="edge6" class="edge">
<title>n_1_4&#45;&gt;n_4</title>
<path fill="none" stroke="black" d="M107.99,-79.29C115.41,-69.27 125,-56.31 133.39,-44.98"/>
<polygon fill="black" stroke="black" points="136.05,-47.28 139.18,-37.16 130.42,-43.11 136.05,-47.28"/>
</g>
<!-- n_0 -->
<g id="node11" class="node">
<title>n_0</title>
<polygon fill="none" stroke="black" points="421.75,-166.38 421.75,-191.62 481.5,-191.62 481.5,-166.38 421.75,-166.38"/>
<text text-anchor="start" x="428.75" y="-177.07" font-family="Times New Roman,serif" font-weight="bold" font-size="9.00">Primary (P)</text>
<polygon fill="none" stroke="black" points="420.75,-165.38 420.75,-192.62 482.5,-192.62 482.5,-165.38 420.75,-165.38"/>
</g>
<!-- n_0_5&#45;&gt;n_0 -->
<g id="edge10" class="edge">
<title>n_0_5&#45;&gt;n_0</title>
<path fill="none" stroke="black" d="M463.73,-250.63C461.66,-238.52 458.81,-221.94 456.4,-207.88"/>
<polygon fill="black" stroke="black" points="459.9,-207.58 454.76,-198.31 453,-208.76 459.9,-207.58"/>
</g>
<!-- n_5 -->
<g id="node12" class="node">
<title>n_5</title>
<polygon fill="none" stroke="black" points="528.12,-166.38 528.12,-191.62 581.12,-191.62 581.12,-166.38 528.12,-166.38"/>
<text text-anchor="start" x="535.12" y="-177.07" font-family="Times New Roman,serif" font-weight="bold" font-size="9.00">Technical</text>
<polygon fill="none" stroke="black" points="527.12,-165.38 527.12,-192.62 582.12,-192.62 582.12,-165.38 527.12,-165.38"/>
</g>
<!-- n_0_5&#45;&gt;n_5 -->
<g id="edge11" class="edge">
<title>n_0_5&#45;&gt;n_5</title>
<path fill="none" stroke="black" d="M483.59,-250.63C496.74,-237.56 515.15,-219.25 529.93,-204.56"/>
<polygon fill="black" stroke="black" points="532.01,-207.42 536.64,-197.89 527.08,-202.46 532.01,-207.42"/>
</g>
</g>
</svg>
