<?xml version="1.0" encoding="UTF-8" standalone="no"?>
<!DOCTYPE svg PUBLIC "-//W3C//DTD SVG 1.1//EN"
 "http://www.w3.org/Graphics/SVG/1.1/DTD/svg11.dtd">
<!-- Generated by graphviz version 10.0.1 (20240210.2158)
 -->
<!-- Title: ND Pages: 1 -->
<svg width="558pt" height="638pt"
 viewBox="0.00 0.00 557.50 638.00" xmlns="http://www.w3.org/2000/svg" xmlns:xlink="http://www.w3.org/1999/xlink">
<g id="graph0" class="graph" transform="scale(1 1) rotate(0) translate(4 634)">
<title>ND</title>
<polygon fill="white" stroke="none" points="-4,4 -4,-634 553.5,-634 553.5,4 -4,4"/>
<!-- n_0_1_2_3_4_5_6 -->
<g id="node1" class="node">
<title>n_0_1_2_3_4_5_6</title>
<polygon fill="none" stroke="black" points="370.12,-557 370.12,-625 440.38,-625 440.38,-557 370.12,-557"/>
<text text-anchor="start" x="382.38" y="-610.45" font-family="Times New Roman,serif" font-weight="bold" font-size="9.00">Primary (P)</text>
<text text-anchor="start" x="386.12" y="-601.45" font-family="Times New Roman,serif" font-weight="bold" font-size="9.00">Preschool</text>
<text text-anchor="start" x="377.88" y="-592.45" font-family="Times New Roman,serif" font-weight="bold" font-size="9.00">Secondary (P)</text>
<text text-anchor="start" x="377.12" y="-583.45" font-family="Times New Roman,serif" font-weight="bold" font-size="9.00">Secondary (G)</text>
<text text-anchor="start" x="385.75" y="-574.45" font-family="Times New Roman,serif" font-weight="bold" font-size="9.00">Technical</text>
<text text-anchor="start" x="385" y="-565.45" font-family="Times New Roman,serif" font-weight="bold" font-size="9.00">University</text>
<polygon fill="none" stroke="black" points="440.38,-557 440.38,-625 501.62,-625 501.62,-557 440.38,-557"/>
<text text-anchor="start" x="447.38" y="-589.08" font-family="Times New Roman,serif" font-weight="bold" font-size="9.00">Primary (G)</text>
<polygon fill="none" stroke="black" points="369.12,-556 369.12,-626 502.62,-626 502.62,-556 369.12,-556"/>
</g>
<!-- n_0_2_3_4_5_6 -->
<g id="node2" class="node">
<title>n_0_2_3_4_5_6</title>
<polygon fill="none" stroke="black" points="293.38,-445 293.38,-504 362.12,-504 362.12,-445 293.38,-445"/>
<text text-anchor="start" x="304.88" y="-489.45" font-family="Times New Roman,serif" font-weight="bold" font-size="9.00">Primary (P)</text>
<text text-anchor="start" x="308.62" y="-480.45" font-family="Times New Roman,serif" font-weight="bold" font-size="9.00">Preschool</text>
<text text-anchor="start" x="300.38" y="-471.45" font-family="Times New Roman,serif" font-weight="bold" font-size="9.00">Secondary (P)</text>
<text text-anchor="start" x="308.25" y="-462.45" font-family="Times New Roman,serif" font-weight="bold" font-size="9.00">Technical</text>
<text text-anchor="start" x="307.5" y="-453.45" font-family="Times New Roman,serif" font-weight="bold" font-size="9.00">University</text>
<polygon fill="none" stroke="black" points="362.12,-445 362.12,-504 432.38,-504 432.38,-445 362.12,-445"/>
<text text-anchor="start" x="369.12" y="-472.57" font-family="Times New Roman,serif" font-weight="bold" font-size="9.00">Secondary (G)</text>
<polygon fill="none" stroke="black" points="292.38,-444 292.38,-505 433.38,-505 433.38,-444 292.38,-444"/>
</g>
<!-- n_0_1_2_3_4_5_6&#45;&gt;n_0_2_3_4_5_6 -->
<g id="edge1" class="edge">
<title>n_0_1_2_3_4_5_6&#45;&gt;n_0_2_3_4_5_6</title>
<path fill="none" stroke="black" d="M411.77,-552.19C404.83,-541.31 397.22,-529.36 390.1,-518.21"/>
<polygon fill="black" stroke="black" points="393.15,-516.48 384.82,-509.93 387.25,-520.24 393.15,-516.48"/>
</g>
<!-- n_1 -->
<g id="node13" class="node">
<title>n_1</title>
<polygon fill="none" stroke="black" points="479.25,-461.88 479.25,-487.12 540.5,-487.12 540.5,-461.88 479.25,-461.88"/>
<text text-anchor="start" x="486.25" y="-472.57" font-family="Times New Roman,serif" font-weight="bold" font-size="9.00">Primary (G)</text>
<polygon fill="none" stroke="black" points="478.25,-460.88 478.25,-488.12 541.5,-488.12 541.5,-460.88 478.25,-460.88"/>
</g>
<!-- n_0_1_2_3_4_5_6&#45;&gt;n_1 -->
<g id="edge12" class="edge">
<title>n_0_1_2_3_4_5_6&#45;&gt;n_1</title>
<path fill="none" stroke="black" d="M460.31,-552.19C470.91,-535.78 483.08,-516.96 492.7,-502.07"/>
<polygon fill="black" stroke="black" points="495.6,-504.03 498.09,-493.73 489.72,-500.23 495.6,-504.03"/>
</g>
<!-- n_0_2_3_5_6 -->
<g id="node3" class="node">
<title>n_0_2_3_5_6</title>
<polygon fill="none" stroke="black" points="231.38,-342 231.38,-392 300.12,-392 300.12,-342 231.38,-342"/>
<text text-anchor="start" x="242.88" y="-377.45" font-family="Times New Roman,serif" font-weight="bold" font-size="9.00">Primary (P)</text>
<text text-anchor="start" x="238.38" y="-368.45" font-family="Times New Roman,serif" font-weight="bold" font-size="9.00">Secondary (P)</text>
<text text-anchor="start" x="246.25" y="-359.45" font-family="Times New Roman,serif" font-weight="bold" font-size="9.00">Technical</text>
<text text-anchor="start" x="245.5" y="-350.45" font-family="Times New Roman,serif" font-weight="bold" font-size="9.00">University</text>
<polygon fill="none" stroke="black" points="300.12,-342 300.12,-392 352.38,-392 352.38,-342 300.12,-342"/>
<text text-anchor="start" x="307.12" y="-365.07" font-family="Times New Roman,serif" font-weight="bold" font-size="9.00">Preschool</text>
<polygon fill="none" stroke="black" points="230.38,-341 230.38,-393 353.38,-393 353.38,-341 230.38,-341"/>
</g>
<!-- n_0_2_3_4_5_6&#45;&gt;n_0_2_3_5_6 -->
<g id="edge2" class="edge">
<title>n_0_2_3_4_5_6&#45;&gt;n_0_2_3_5_6</title>
<path fill="none" stroke="black" d="M340.41,-440.12C333.18,-429.38 325.12,-417.4 317.67,-406.33"/>
<polygon fill="black" stroke="black" points="320.66,-404.5 312.17,-398.15 314.85,-408.4 320.66,-404.5"/>
</g>
<!-- n_4 -->
<g id="node12" class="node">
<title>n_4</title>
<polygon fill="none" stroke="black" points="399.75,-354.38 399.75,-379.62 470,-379.62 470,-354.38 399.75,-354.38"/>
<text text-anchor="start" x="406.75" y="-365.07" font-family="Times New Roman,serif" font-weight="bold" font-size="9.00">Secondary (G)</text>
<polygon fill="none" stroke="black" points="398.75,-353.38 398.75,-380.62 471,-380.62 471,-353.38 398.75,-353.38"/>
</g>
<!-- n_0_2_3_4_5_6&#45;&gt;n_4 -->
<g id="edge11" class="edge">
<title>n_0_2_3_4_5_6&#45;&gt;n_4</title>
<path fill="none" stroke="black" d="M385.66,-440.12C395.73,-425.35 407.42,-408.23 416.87,-394.38"/>
<polygon fill="black" stroke="black" points="419.71,-396.43 422.45,-386.2 413.93,-392.49 419.71,-396.43"/>
</g>
<!-- n_0_3_5_6 -->
<g id="node4" class="node">
<title>n_0_3_5_6</title>
<polygon fill="none" stroke="black" points="159.62,-248 159.62,-289 219.38,-289 219.38,-248 159.62,-248"/>
<text text-anchor="start" x="166.62" y="-274.45" font-family="Times New Roman,serif" font-weight="bold" font-size="9.00">Primary (P)</text>
<text text-anchor="start" x="170" y="-265.45" font-family="Times New Roman,serif" font-weight="bold" font-size="9.00">Technical</text>
<text text-anchor="start" x="169.25" y="-256.45" font-family="Times New Roman,serif" font-weight="bold" font-size="9.00">University</text>
<polygon fill="none" stroke="black" points="219.38,-248 219.38,-289 288.12,-289 288.12,-248 219.38,-248"/>
<text text-anchor="start" x="226.38" y="-266.57" font-family="Times New Roman,serif" font-weight="bold" font-size="9.00">Secondary (P)</text>
<polygon fill="none" stroke="black" points="158.62,-247 158.62,-290 289.12,-290 289.12,-247 158.62,-247"/>
</g>
<!-- n_0_2_3_5_6&#45;&gt;n_0_3_5_6 -->
<g id="edge3" class="edge">
<title>n_0_2_3_5_6&#45;&gt;n_0_3_5_6</title>
<path fill="none" stroke="black" d="M271.47,-337.05C263.97,-326.4 255.41,-314.25 247.63,-303.22"/>
<polygon fill="black" stroke="black" points="250.54,-301.27 241.92,-295.11 244.82,-305.3 250.54,-301.27"/>
</g>
<!-- n_2 -->
<g id="node11" class="node">
<title>n_2</title>
<polygon fill="none" stroke="black" points="334.75,-255.88 334.75,-281.12 387,-281.12 387,-255.88 334.75,-255.88"/>
<text text-anchor="start" x="341.75" y="-266.57" font-family="Times New Roman,serif" font-weight="bold" font-size="9.00">Preschool</text>
<polygon fill="none" stroke="black" points="333.75,-254.88 333.75,-282.12 388,-282.12 388,-254.88 333.75,-254.88"/>
</g>
<!-- n_0_2_3_5_6&#45;&gt;n_2 -->
<g id="edge10" class="edge">
<title>n_0_2_3_5_6&#45;&gt;n_2</title>
<path fill="none" stroke="black" d="M312.58,-337.05C322,-323.86 333.08,-308.38 342.24,-295.56"/>
<polygon fill="black" stroke="black" points="344.97,-297.77 347.94,-287.6 339.27,-293.7 344.97,-297.77"/>
</g>
<!-- n_0_5_6 -->
<g id="node5" class="node">
<title>n_0_5_6</title>
<polygon fill="none" stroke="black" points="97.75,-163 97.75,-195 157.5,-195 157.5,-163 97.75,-163"/>
<text text-anchor="start" x="104.75" y="-180.45" font-family="Times New Roman,serif" font-weight="bold" font-size="9.00">Primary (P)</text>
<text text-anchor="start" x="108.12" y="-171.45" font-family="Times New Roman,serif" font-weight="bold" font-size="9.00">Technical</text>
<polygon fill="none" stroke="black" points="157.5,-163 157.5,-195 212,-195 212,-163 157.5,-163"/>
<text text-anchor="start" x="164.5" y="-177.07" font-family="Times New Roman,serif" font-weight="bold" font-size="9.00">University</text>
<polygon fill="none" stroke="black" points="96.75,-162 96.75,-196 213,-196 213,-162 96.75,-162"/>
</g>
<!-- n_0_3_5_6&#45;&gt;n_0_5_6 -->
<g id="edge4" class="edge">
<title>n_0_3_5_6&#45;&gt;n_0_5_6</title>
<path fill="none" stroke="black" d="M204.65,-243.13C196.24,-232.46 186.31,-219.87 177.54,-208.75"/>
<polygon fill="black" stroke="black" points="180.39,-206.7 171.45,-201.01 174.89,-211.03 180.39,-206.7"/>
</g>
<!-- n_3 -->
<g id="node10" class="node">
<title>n_3</title>
<polygon fill="none" stroke="black" points="259.5,-166.38 259.5,-191.62 328.25,-191.62 328.25,-166.38 259.5,-166.38"/>
<text text-anchor="start" x="266.5" y="-177.07" font-family="Times New Roman,serif" font-weight="bold" font-size="9.00">Secondary (P)</text>
<polygon fill="none" stroke="black" points="258.5,-165.38 258.5,-192.62 329.25,-192.62 329.25,-165.38 258.5,-165.38"/>
</g>
<!-- n_0_3_5_6&#45;&gt;n_3 -->
<g id="edge9" class="edge">
<title>n_0_3_5_6&#45;&gt;n_3</title>
<path fill="none" stroke="black" d="M243.37,-243.13C252.69,-231.48 263.85,-217.53 273.31,-205.71"/>
<polygon fill="black" stroke="black" points="276,-207.95 279.51,-197.95 270.53,-203.57 276,-207.95"/>
</g>
<!-- n_0_5 -->
<g id="node6" class="node">
<title>n_0_5</title>
<polygon fill="none" stroke="black" points="33.5,-84.38 33.5,-109.62 93.25,-109.62 93.25,-84.38 33.5,-84.38"/>
<text text-anchor="start" x="40.5" y="-95.08" font-family="Times New Roman,serif" font-weight="bold" font-size="9.00">Primary (P)</text>
<polygon fill="none" stroke="black" points="93.25,-84.38 93.25,-109.62 146.25,-109.62 146.25,-84.38 93.25,-84.38"/>
<text text-anchor="start" x="100.25" y="-95.08" font-family="Times New Roman,serif" font-weight="bold" font-size="9.00">Technical</text>
<polygon fill="none" stroke="black" points="32.5,-83.38 32.5,-110.62 147.25,-110.62 147.25,-83.38 32.5,-83.38"/>
</g>
<!-- n_0_5_6&#45;&gt;n_0_5 -->
<g id="edge5" class="edge">
<title>n_0_5_6&#45;&gt;n_0_5</title>
<path fill="none" stroke="black" d="M138.81,-158.22C130.35,-147.81 119.87,-134.92 110.79,-123.74"/>
<polygon fill="black" stroke="black" points="113.54,-121.57 104.52,-116.02 108.1,-125.99 113.54,-121.57"/>
</g>
<!-- n_6 -->
<g id="node9" class="node">
<title>n_6</title>
<polygon fill="none" stroke="black" points="193.62,-84.38 193.62,-109.62 248.12,-109.62 248.12,-84.38 193.62,-84.38"/>
<text text-anchor="start" x="200.62" y="-95.08" font-family="Times New Roman,serif" font-weight="bold" font-size="9.00">University</text>
<polygon fill="none" stroke="black" points="192.62,-83.38 192.62,-110.62 249.12,-110.62 249.12,-83.38 192.62,-83.38"/>
</g>
<!-- n_0_5_6&#45;&gt;n_6 -->
<g id="edge8" class="edge">
<title>n_0_5_6&#45;&gt;n_6</title>
<path fill="none" stroke="black" d="M171.19,-158.22C179.86,-147.71 190.63,-134.66 199.91,-123.41"/>
<polygon fill="black" stroke="black" points="202.35,-125.95 206.02,-116.01 196.95,-121.5 202.35,-125.95"/>
</g>
<!-- n_0 -->
<g id="node7" class="node">
<title>n_0</title>
<polygon fill="none" stroke="black" points="9,-5.38 9,-30.62 68.75,-30.62 68.75,-5.38 9,-5.38"/>
<text text-anchor="start" x="16" y="-16.07" font-family="Times New Roman,serif" font-weight="bold" font-size="9.00">Primary (P)</text>
<polygon fill="none" stroke="black" points="8,-4.38 8,-31.62 69.75,-31.62 69.75,-4.38 8,-4.38"/>
</g>
<!-- n_0_5&#45;&gt;n_0 -->
<g id="edge6" class="edge">
<title>n_0_5&#45;&gt;n_0</title>
<path fill="none" stroke="black" d="M78.81,-79.29C72.24,-69.37 63.76,-56.57 56.31,-45.32"/>
<polygon fill="black" stroke="black" points="59.37,-43.61 50.93,-37.2 53.54,-47.47 59.37,-43.61"/>
</g>
<!-- n_5 -->
<g id="node8" class="node">
<title>n_5</title>
<polygon fill="none" stroke="black" points="115.38,-5.38 115.38,-30.62 168.38,-30.62 168.38,-5.38 115.38,-5.38"/>
<text text-anchor="start" x="122.38" y="-16.07" font-family="Times New Roman,serif" font-weight="bold" font-size="9.00">Technical</text>
<polygon fill="none" stroke="black" points="114.38,-4.38 114.38,-31.62 169.38,-31.62 169.38,-4.38 114.38,-4.38"/>
</g>
<!-- n_0_5&#45;&gt;n_5 -->
<g id="edge7" class="edge">
<title>n_0_5&#45;&gt;n_5</title>
<path fill="none" stroke="black" d="M101.16,-79.29C107.86,-69.37 116.5,-56.57 124.1,-45.32"/>
<polygon fill="black" stroke="black" points="126.89,-47.44 129.59,-37.2 121.09,-43.52 126.89,-47.44"/>
</g>
</g>
</svg>
