<?xml version="1.0" encoding="UTF-8" standalone="no"?>
<!DOCTYPE svg PUBLIC "-//W3C//DTD SVG 1.1//EN"
 "http://www.w3.org/Graphics/SVG/1.1/DTD/svg11.dtd">
<!-- Generated by graphviz version 10.0.1 (20240210.2158)
 -->
<!-- Title: ND Pages: 1 -->
<svg width="546pt" height="535pt"
 viewBox="0.00 0.00 545.50 535.00" xmlns="http://www.w3.org/2000/svg" xmlns:xlink="http://www.w3.org/1999/xlink">
<g id="graph0" class="graph" transform="scale(1 1) rotate(0) translate(4 531)">
<title>ND</title>
<polygon fill="white" stroke="none" points="-4,4 -4,-531 541.5,-531 541.5,4 -4,4"/>
<!-- n_0_1_2_3_4_5_6 -->
<g id="node1" class="node">
<title>n_0_1_2_3_4_5_6</title>
<polygon fill="none" stroke="black" points="350.62,-454 350.62,-522 420.88,-522 420.88,-454 350.62,-454"/>
<text text-anchor="start" x="362.88" y="-507.45" font-family="Times New Roman,serif" font-weight="bold" font-size="9.00">Primary (P)</text>
<text text-anchor="start" x="362.12" y="-498.45" font-family="Times New Roman,serif" font-weight="bold" font-size="9.00">Primary (G)</text>
<text text-anchor="start" x="366.62" y="-489.45" font-family="Times New Roman,serif" font-weight="bold" font-size="9.00">Preschool</text>
<text text-anchor="start" x="357.62" y="-480.45" font-family="Times New Roman,serif" font-weight="bold" font-size="9.00">Secondary (G)</text>
<text text-anchor="start" x="366.25" y="-471.45" font-family="Times New Roman,serif" font-weight="bold" font-size="9.00">Technical</text>
<text text-anchor="start" x="365.5" y="-462.45" font-family="Times New Roman,serif" font-weight="bold" font-size="9.00">University</text>
<polygon fill="none" stroke="black" points="420.88,-454 420.88,-522 489.62,-522 489.62,-454 420.88,-454"/>
<text text-anchor="start" x="427.88" y="-486.07" font-family="Times New Roman,serif" font-weight="bold" font-size="9.00">Secondary (P)</text>
<polygon fill="none" stroke="black" points="349.62,-453 349.62,-523 490.62,-523 490.62,-453 349.62,-453"/>
</g>
<!-- n_0_1_2_4_5_6 -->
<g id="node2" class="node">
<title>n_0_1_2_4_5_6</title>
<polygon fill="none" stroke="black" points="281.38,-342 281.38,-401 342.62,-401 342.62,-342 281.38,-342"/>
<text text-anchor="start" x="289.12" y="-386.45" font-family="Times New Roman,serif" font-weight="bold" font-size="9.00">Primary (P)</text>
<text text-anchor="start" x="288.38" y="-377.45" font-family="Times New Roman,serif" font-weight="bold" font-size="9.00">Primary (G)</text>
<text text-anchor="start" x="292.88" y="-368.45" font-family="Times New Roman,serif" font-weight="bold" font-size="9.00">Preschool</text>
<text text-anchor="start" x="292.5" y="-359.45" font-family="Times New Roman,serif" font-weight="bold" font-size="9.00">Technical</text>
<text text-anchor="start" x="291.75" y="-350.45" font-family="Times New Roman,serif" font-weight="bold" font-size="9.00">University</text>
<polygon fill="none" stroke="black" points="342.62,-342 342.62,-401 412.88,-401 412.88,-342 342.62,-342"/>
<text text-anchor="start" x="349.62" y="-369.57" font-family="Times New Roman,serif" font-weight="bold" font-size="9.00">Secondary (G)</text>
<polygon fill="none" stroke="black" points="280.38,-341 280.38,-402 413.88,-402 413.88,-341 280.38,-341"/>
</g>
<!-- n_0_1_2_3_4_5_6&#45;&gt;n_0_1_2_4_5_6 -->
<g id="edge1" class="edge">
<title>n_0_1_2_3_4_5_6&#45;&gt;n_0_1_2_4_5_6</title>
<path fill="none" stroke="black" d="M396.02,-449.19C389.08,-438.31 381.47,-426.36 374.35,-415.21"/>
<polygon fill="black" stroke="black" points="377.4,-413.48 369.07,-406.93 371.5,-417.24 377.4,-413.48"/>
</g>
<!-- n_3 -->
<g id="node13" class="node">
<title>n_3</title>
<polygon fill="none" stroke="black" points="459.75,-358.88 459.75,-384.12 528.5,-384.12 528.5,-358.88 459.75,-358.88"/>
<text text-anchor="start" x="466.75" y="-369.57" font-family="Times New Roman,serif" font-weight="bold" font-size="9.00">Secondary (P)</text>
<polygon fill="none" stroke="black" points="458.75,-357.88 458.75,-385.12 529.5,-385.12 529.5,-357.88 458.75,-357.88"/>
</g>
<!-- n_0_1_2_3_4_5_6&#45;&gt;n_3 -->
<g id="edge12" class="edge">
<title>n_0_1_2_3_4_5_6&#45;&gt;n_3</title>
<path fill="none" stroke="black" d="M444.56,-449.19C455.16,-432.78 467.33,-413.96 476.95,-399.07"/>
<polygon fill="black" stroke="black" points="479.85,-401.03 482.34,-390.73 473.97,-397.23 479.85,-401.03"/>
</g>
<!-- n_0_1_2_5_6 -->
<g id="node3" class="node">
<title>n_0_1_2_5_6</title>
<polygon fill="none" stroke="black" points="219.25,-248 219.25,-289 273.75,-289 273.75,-248 219.25,-248"/>
<text text-anchor="start" x="227.38" y="-274.45" font-family="Times New Roman,serif" font-weight="bold" font-size="9.00">Preschool</text>
<text text-anchor="start" x="227" y="-265.45" font-family="Times New Roman,serif" font-weight="bold" font-size="9.00">Technical</text>
<text text-anchor="start" x="226.25" y="-256.45" font-family="Times New Roman,serif" font-weight="bold" font-size="9.00">University</text>
<polygon fill="none" stroke="black" points="273.75,-248 273.75,-289 335,-289 335,-248 273.75,-248"/>
<text text-anchor="start" x="281.5" y="-269.95" font-family="Times New Roman,serif" font-weight="bold" font-size="9.00">Primary (P)</text>
<text text-anchor="start" x="280.75" y="-260.95" font-family="Times New Roman,serif" font-weight="bold" font-size="9.00">Primary (G)</text>
<polygon fill="none" stroke="black" points="218.25,-247 218.25,-290 336,-290 336,-247 218.25,-247"/>
</g>
<!-- n_0_1_2_4_5_6&#45;&gt;n_0_1_2_5_6 -->
<g id="edge2" class="edge">
<title>n_0_1_2_4_5_6&#45;&gt;n_0_1_2_5_6</title>
<path fill="none" stroke="black" d="M324.01,-337.15C316.43,-326.22 308.01,-314.07 300.42,-303.12"/>
<polygon fill="black" stroke="black" points="303.44,-301.33 294.87,-295.1 297.69,-305.32 303.44,-301.33"/>
</g>
<!-- n_4 -->
<g id="node12" class="node">
<title>n_4</title>
<polygon fill="none" stroke="black" points="382,-255.88 382,-281.12 452.25,-281.12 452.25,-255.88 382,-255.88"/>
<text text-anchor="start" x="389" y="-266.57" font-family="Times New Roman,serif" font-weight="bold" font-size="9.00">Secondary (G)</text>
<polygon fill="none" stroke="black" points="381,-254.88 381,-282.12 453.25,-282.12 453.25,-254.88 381,-254.88"/>
</g>
<!-- n_0_1_2_4_5_6&#45;&gt;n_4 -->
<g id="edge11" class="edge">
<title>n_0_1_2_4_5_6&#45;&gt;n_4</title>
<path fill="none" stroke="black" d="M370.24,-337.15C379.63,-323.6 390.32,-308.17 399.12,-295.48"/>
<polygon fill="black" stroke="black" points="401.74,-297.84 404.56,-287.62 395.99,-293.85 401.74,-297.84"/>
</g>
<!-- n_2_5_6 -->
<g id="node4" class="node">
<title>n_2_5_6</title>
<polygon fill="none" stroke="black" points="143.38,-163 143.38,-195 197.88,-195 197.88,-163 143.38,-163"/>
<text text-anchor="start" x="151.5" y="-180.45" font-family="Times New Roman,serif" font-weight="bold" font-size="9.00">Preschool</text>
<text text-anchor="start" x="150.38" y="-171.45" font-family="Times New Roman,serif" font-weight="bold" font-size="9.00">University</text>
<polygon fill="none" stroke="black" points="197.88,-163 197.88,-195 250.88,-195 250.88,-163 197.88,-163"/>
<text text-anchor="start" x="204.88" y="-177.07" font-family="Times New Roman,serif" font-weight="bold" font-size="9.00">Technical</text>
<polygon fill="none" stroke="black" points="142.38,-162 142.38,-196 251.88,-196 251.88,-162 142.38,-162"/>
</g>
<!-- n_0_1_2_5_6&#45;&gt;n_2_5_6 -->
<g id="edge3" class="edge">
<title>n_0_1_2_5_6&#45;&gt;n_2_5_6</title>
<path fill="none" stroke="black" d="M254.84,-243.13C244.89,-232.25 233.11,-219.36 222.8,-208.08"/>
<polygon fill="black" stroke="black" points="225.6,-205.96 216.27,-200.94 220.44,-210.69 225.6,-205.96"/>
</g>
<!-- n_0_1 -->
<g id="node9" class="node">
<title>n_0_1</title>
<polygon fill="none" stroke="black" points="297.62,-166.38 297.62,-191.62 357.38,-191.62 357.38,-166.38 297.62,-166.38"/>
<text text-anchor="start" x="304.62" y="-177.07" font-family="Times New Roman,serif" font-weight="bold" font-size="9.00">Primary (P)</text>
<polygon fill="none" stroke="black" points="357.38,-166.38 357.38,-191.62 418.62,-191.62 418.62,-166.38 357.38,-166.38"/>
<text text-anchor="start" x="364.38" y="-177.07" font-family="Times New Roman,serif" font-weight="bold" font-size="9.00">Primary (G)</text>
<polygon fill="none" stroke="black" points="296.62,-165.38 296.62,-192.62 419.62,-192.62 419.62,-165.38 296.62,-165.38"/>
</g>
<!-- n_0_1_2_5_6&#45;&gt;n_0_1 -->
<g id="edge8" class="edge">
<title>n_0_1_2_5_6&#45;&gt;n_0_1</title>
<path fill="none" stroke="black" d="M299.69,-243.13C310.69,-231.24 323.9,-216.97 334.97,-205.01"/>
<polygon fill="black" stroke="black" points="337.35,-207.6 341.57,-197.88 332.21,-202.84 337.35,-207.6"/>
</g>
<!-- n_2_6 -->
<g id="node5" class="node">
<title>n_2_6</title>
<polygon fill="none" stroke="black" points="31.75,-84.38 31.75,-109.62 84,-109.62 84,-84.38 31.75,-84.38"/>
<text text-anchor="start" x="38.75" y="-95.08" font-family="Times New Roman,serif" font-weight="bold" font-size="9.00">Preschool</text>
<polygon fill="none" stroke="black" points="84,-84.38 84,-109.62 138.5,-109.62 138.5,-84.38 84,-84.38"/>
<text text-anchor="start" x="91" y="-95.08" font-family="Times New Roman,serif" font-weight="bold" font-size="9.00">University</text>
<polygon fill="none" stroke="black" points="30.75,-83.38 30.75,-110.62 139.5,-110.62 139.5,-83.38 30.75,-83.38"/>
</g>
<!-- n_2_5_6&#45;&gt;n_2_6 -->
<g id="edge4" class="edge">
<title>n_2_5_6&#45;&gt;n_2_6</title>
<path fill="none" stroke="black" d="M169.15,-158.02C153.55,-146.88 134.05,-132.94 117.75,-121.31"/>
<polygon fill="black" stroke="black" points="119.99,-118.6 109.82,-115.64 115.92,-124.3 119.99,-118.6"/>
</g>
<!-- n_5 -->
<g id="node8" class="node">
<title>n_5</title>
<polygon fill="none" stroke="black" points="185.62,-84.38 185.62,-109.62 238.62,-109.62 238.62,-84.38 185.62,-84.38"/>
<text text-anchor="start" x="192.62" y="-95.08" font-family="Times New Roman,serif" font-weight="bold" font-size="9.00">Technical</text>
<polygon fill="none" stroke="black" points="184.62,-83.38 184.62,-110.62 239.62,-110.62 239.62,-83.38 184.62,-83.38"/>
</g>
<!-- n_2_5_6&#45;&gt;n_5 -->
<g id="edge7" class="edge">
<title>n_2_5_6&#45;&gt;n_5</title>
<path fill="none" stroke="black" d="M200.83,-158.22C202.65,-148.54 204.87,-136.72 206.85,-126.11"/>
<polygon fill="black" stroke="black" points="210.28,-126.81 208.69,-116.33 203.4,-125.52 210.28,-126.81"/>
</g>
<!-- n_2 -->
<g id="node6" class="node">
<title>n_2</title>
<polygon fill="none" stroke="black" points="9,-5.38 9,-30.62 61.25,-30.62 61.25,-5.38 9,-5.38"/>
<text text-anchor="start" x="16" y="-16.07" font-family="Times New Roman,serif" font-weight="bold" font-size="9.00">Preschool</text>
<polygon fill="none" stroke="black" points="8,-4.38 8,-31.62 62.25,-31.62 62.25,-4.38 8,-4.38"/>
</g>
<!-- n_2_6&#45;&gt;n_2 -->
<g id="edge5" class="edge">
<title>n_2_6&#45;&gt;n_2</title>
<path fill="none" stroke="black" d="M74.28,-79.29C67.83,-69.37 59.52,-56.57 52.22,-45.32"/>
<polygon fill="black" stroke="black" points="55.33,-43.69 46.95,-37.21 49.46,-47.5 55.33,-43.69"/>
</g>
<!-- n_6 -->
<g id="node7" class="node">
<title>n_6</title>
<polygon fill="none" stroke="black" points="107.88,-5.38 107.88,-30.62 162.38,-30.62 162.38,-5.38 107.88,-5.38"/>
<text text-anchor="start" x="114.88" y="-16.07" font-family="Times New Roman,serif" font-weight="bold" font-size="9.00">University</text>
<polygon fill="none" stroke="black" points="106.88,-4.38 106.88,-31.62 163.38,-31.62 163.38,-4.38 106.88,-4.38"/>
</g>
<!-- n_2_6&#45;&gt;n_6 -->
<g id="edge6" class="edge">
<title>n_2_6&#45;&gt;n_6</title>
<path fill="none" stroke="black" d="M95.97,-79.29C102.42,-69.37 110.73,-56.57 118.03,-45.32"/>
<polygon fill="black" stroke="black" points="120.79,-47.5 123.3,-37.21 114.92,-43.69 120.79,-47.5"/>
</g>
<!-- n_0 -->
<g id="node10" class="node">
<title>n_0</title>
<polygon fill="none" stroke="black" points="314.25,-84.38 314.25,-109.62 374,-109.62 374,-84.38 314.25,-84.38"/>
<text text-anchor="start" x="321.25" y="-95.08" font-family="Times New Roman,serif" font-weight="bold" font-size="9.00">Primary (P)</text>
<polygon fill="none" stroke="black" points="313.25,-83.38 313.25,-110.62 375,-110.62 375,-83.38 313.25,-83.38"/>
</g>
<!-- n_0_1&#45;&gt;n_0 -->
<g id="edge9" class="edge">
<title>n_0_1&#45;&gt;n_0</title>
<path fill="none" stroke="black" d="M355.16,-161.03C353.37,-150.85 351.06,-137.65 349.02,-125.96"/>
<polygon fill="black" stroke="black" points="352.52,-125.68 347.35,-116.43 345.63,-126.89 352.52,-125.68"/>
</g>
<!-- n_1 -->
<g id="node11" class="node">
<title>n_1</title>
<polygon fill="none" stroke="black" points="421.5,-84.38 421.5,-109.62 482.75,-109.62 482.75,-84.38 421.5,-84.38"/>
<text text-anchor="start" x="428.5" y="-95.08" font-family="Times New Roman,serif" font-weight="bold" font-size="9.00">Primary (G)</text>
<polygon fill="none" stroke="black" points="420.5,-83.38 420.5,-110.62 483.75,-110.62 483.75,-83.38 420.5,-83.38"/>
</g>
<!-- n_0_1&#45;&gt;n_1 -->
<g id="edge10" class="edge">
<title>n_0_1&#45;&gt;n_1</title>
<path fill="none" stroke="black" d="M378.06,-161.03C391.27,-149.79 408.81,-134.87 423.5,-122.36"/>
<polygon fill="black" stroke="black" points="425.72,-125.07 431.07,-115.92 421.18,-119.74 425.72,-125.07"/>
</g>
</g>
</svg>
