<?xml version="1.0" encoding="UTF-8" standalone="no"?>
<!DOCTYPE svg PUBLIC "-//W3C//DTD SVG 1.1//EN"
 "http://www.w3.org/Graphics/SVG/1.1/DTD/svg11.dtd">
<!-- Generated by graphviz version 10.0.1 (20240210.2158)
 -->
<!-- Title: ND Pages: 1 -->
<svg width="606pt" height="405pt"
 viewBox="0.00 0.00 606.38 405.00" xmlns="http://www.w3.org/2000/svg" xmlns:xlink="http://www.w3.org/1999/xlink">
<g id="graph0" class="graph" transform="scale(1 1) rotate(0) translate(4 401)">
<title>ND</title>
<polygon fill="white" stroke="none" points="-4,4 -4,-401 602.38,-401 602.38,4 -4,4"/>
<!-- n_0_1_2_3_4_5_6 -->
<g id="node1" class="node">
<title>n_0_1_2_3_4_5_6</title>
<polygon fill="none" stroke="black" points="274.12,-342 274.12,-392 335.38,-392 335.38,-342 274.12,-342"/>
<text text-anchor="start" x="281.88" y="-377.45" font-family="Times New Roman,serif" font-weight="bold" font-size="9.00">Primary (P)</text>
<text text-anchor="start" x="281.12" y="-368.45" font-family="Times New Roman,serif" font-weight="bold" font-size="9.00">Primary (G)</text>
<text text-anchor="start" x="285.62" y="-359.45" font-family="Times New Roman,serif" font-weight="bold" font-size="9.00">Preschool</text>
<text text-anchor="start" x="284.5" y="-350.45" font-family="Times New Roman,serif" font-weight="bold" font-size="9.00">University</text>
<polygon fill="none" stroke="black" points="335.38,-342 335.38,-392 405.62,-392 405.62,-342 335.38,-342"/>
<text text-anchor="start" x="343.12" y="-372.95" font-family="Times New Roman,serif" font-weight="bold" font-size="9.00">Secondary (P)</text>
<text text-anchor="start" x="342.38" y="-363.95" font-family="Times New Roman,serif" font-weight="bold" font-size="9.00">Secondary (G)</text>
<text text-anchor="start" x="351" y="-354.95" font-family="Times New Roman,serif" font-weight="bold" font-size="9.00">Technical</text>
<polygon fill="none" stroke="black" points="273.12,-341 273.12,-393 406.62,-393 406.62,-341 273.12,-341"/>
</g>
<!-- n_0_1_2_6 -->
<g id="node2" class="node">
<title>n_0_1_2_6</title>
<polygon fill="none" stroke="black" points="195.38,-248 195.38,-289 255.12,-289 255.12,-248 195.38,-248"/>
<text text-anchor="start" x="202.38" y="-274.45" font-family="Times New Roman,serif" font-weight="bold" font-size="9.00">Primary (P)</text>
<text text-anchor="start" x="206.12" y="-265.45" font-family="Times New Roman,serif" font-weight="bold" font-size="9.00">Preschool</text>
<text text-anchor="start" x="205" y="-256.45" font-family="Times New Roman,serif" font-weight="bold" font-size="9.00">University</text>
<polygon fill="none" stroke="black" points="255.12,-248 255.12,-289 316.38,-289 316.38,-248 255.12,-248"/>
<text text-anchor="start" x="262.12" y="-266.57" font-family="Times New Roman,serif" font-weight="bold" font-size="9.00">Primary (G)</text>
<polygon fill="none" stroke="black" points="194.38,-247 194.38,-290 317.38,-290 317.38,-247 194.38,-247"/>
</g>
<!-- n_0_1_2_3_4_5_6&#45;&gt;n_0_1_2_6 -->
<g id="edge1" class="edge">
<title>n_0_1_2_3_4_5_6&#45;&gt;n_0_1_2_6</title>
<path fill="none" stroke="black" d="M314.67,-337.05C305.22,-326.18 294.4,-313.76 284.64,-302.55"/>
<polygon fill="black" stroke="black" points="287.29,-300.26 278.09,-295.02 282.01,-304.86 287.29,-300.26"/>
</g>
<!-- n_3_4_5 -->
<g id="node9" class="node">
<title>n_3_4_5</title>
<polygon fill="none" stroke="black" points="363.25,-252.5 363.25,-284.5 433.5,-284.5 433.5,-252.5 363.25,-252.5"/>
<text text-anchor="start" x="371" y="-269.95" font-family="Times New Roman,serif" font-weight="bold" font-size="9.00">Secondary (P)</text>
<text text-anchor="start" x="370.25" y="-260.95" font-family="Times New Roman,serif" font-weight="bold" font-size="9.00">Secondary (G)</text>
<polygon fill="none" stroke="black" points="433.5,-252.5 433.5,-284.5 486.5,-284.5 486.5,-252.5 433.5,-252.5"/>
<text text-anchor="start" x="440.5" y="-266.57" font-family="Times New Roman,serif" font-weight="bold" font-size="9.00">Technical</text>
<polygon fill="none" stroke="black" points="362.25,-251.5 362.25,-285.5 487.5,-285.5 487.5,-251.5 362.25,-251.5"/>
</g>
<!-- n_0_1_2_3_4_5_6&#45;&gt;n_3_4_5 -->
<g id="edge8" class="edge">
<title>n_0_1_2_3_4_5_6&#45;&gt;n_3_4_5</title>
<path fill="none" stroke="black" d="M365.38,-337.05C376.32,-324.63 389.06,-310.17 399.93,-297.82"/>
<polygon fill="black" stroke="black" points="402.49,-300.21 406.47,-290.4 397.23,-295.59 402.49,-300.21"/>
</g>
<!-- n_0_2_6 -->
<g id="node3" class="node">
<title>n_0_2_6</title>
<polygon fill="none" stroke="black" points="69.75,-163 69.75,-195 129.5,-195 129.5,-163 69.75,-163"/>
<text text-anchor="start" x="76.75" y="-180.45" font-family="Times New Roman,serif" font-weight="bold" font-size="9.00">Primary (P)</text>
<text text-anchor="start" x="80.5" y="-171.45" font-family="Times New Roman,serif" font-weight="bold" font-size="9.00">Preschool</text>
<polygon fill="none" stroke="black" points="129.5,-163 129.5,-195 184,-195 184,-163 129.5,-163"/>
<text text-anchor="start" x="136.5" y="-177.07" font-family="Times New Roman,serif" font-weight="bold" font-size="9.00">University</text>
<polygon fill="none" stroke="black" points="68.75,-162 68.75,-196 185,-196 185,-162 68.75,-162"/>
</g>
<!-- n_0_1_2_6&#45;&gt;n_0_2_6 -->
<g id="edge2" class="edge">
<title>n_0_1_2_6&#45;&gt;n_0_2_6</title>
<path fill="none" stroke="black" d="M219.94,-243.13C202.96,-231.61 182.66,-217.84 165.37,-206.11"/>
<polygon fill="black" stroke="black" points="167.6,-203.39 157.36,-200.68 163.67,-209.19 167.6,-203.39"/>
</g>
<!-- n_1 -->
<g id="node8" class="node">
<title>n_1</title>
<polygon fill="none" stroke="black" points="231.25,-166.38 231.25,-191.62 292.5,-191.62 292.5,-166.38 231.25,-166.38"/>
<text text-anchor="start" x="238.25" y="-177.07" font-family="Times New Roman,serif" font-weight="bold" font-size="9.00">Primary (G)</text>
<polygon fill="none" stroke="black" points="230.25,-165.38 230.25,-192.62 293.5,-192.62 293.5,-165.38 230.25,-165.38"/>
</g>
<!-- n_0_1_2_6&#45;&gt;n_1 -->
<g id="edge7" class="edge">
<title>n_0_1_2_6&#45;&gt;n_1</title>
<path fill="none" stroke="black" d="M257.55,-243.13C258.29,-232.28 259.17,-219.45 259.94,-208.19"/>
<polygon fill="black" stroke="black" points="263.43,-208.5 260.62,-198.28 256.45,-208.02 263.43,-208.5"/>
</g>
<!-- n_0_2 -->
<g id="node4" class="node">
<title>n_0_2</title>
<polygon fill="none" stroke="black" points="33.88,-84.38 33.88,-109.62 93.62,-109.62 93.62,-84.38 33.88,-84.38"/>
<text text-anchor="start" x="40.88" y="-95.08" font-family="Times New Roman,serif" font-weight="bold" font-size="9.00">Primary (P)</text>
<polygon fill="none" stroke="black" points="93.62,-84.38 93.62,-109.62 145.88,-109.62 145.88,-84.38 93.62,-84.38"/>
<text text-anchor="start" x="100.62" y="-95.08" font-family="Times New Roman,serif" font-weight="bold" font-size="9.00">Preschool</text>
<polygon fill="none" stroke="black" points="32.88,-83.38 32.88,-110.62 146.88,-110.62 146.88,-83.38 32.88,-83.38"/>
</g>
<!-- n_0_2_6&#45;&gt;n_0_2 -->
<g id="edge3" class="edge">
<title>n_0_2_6&#45;&gt;n_0_2</title>
<path fill="none" stroke="black" d="M117.73,-158.22C113.11,-148.23 107.43,-135.95 102.4,-125.09"/>
<polygon fill="black" stroke="black" points="105.68,-123.82 98.3,-116.22 99.32,-126.76 105.68,-123.82"/>
</g>
<!-- n_6 -->
<g id="node7" class="node">
<title>n_6</title>
<polygon fill="none" stroke="black" points="192.62,-84.38 192.62,-109.62 247.12,-109.62 247.12,-84.38 192.62,-84.38"/>
<text text-anchor="start" x="199.62" y="-95.08" font-family="Times New Roman,serif" font-weight="bold" font-size="9.00">University</text>
<polygon fill="none" stroke="black" points="191.62,-83.38 191.62,-110.62 248.12,-110.62 248.12,-83.38 191.62,-83.38"/>
</g>
<!-- n_0_2_6&#45;&gt;n_6 -->
<g id="edge6" class="edge">
<title>n_0_2_6&#45;&gt;n_6</title>
<path fill="none" stroke="black" d="M149.86,-158.22C162.57,-147.29 178.46,-133.63 191.88,-122.08"/>
<polygon fill="black" stroke="black" points="193.85,-125.01 199.15,-115.83 189.28,-119.7 193.85,-125.01"/>
</g>
<!-- n_0 -->
<g id="node5" class="node">
<title>n_0</title>
<polygon fill="none" stroke="black" points="9,-5.38 9,-30.62 68.75,-30.62 68.75,-5.38 9,-5.38"/>
<text text-anchor="start" x="16" y="-16.07" font-family="Times New Roman,serif" font-weight="bold" font-size="9.00">Primary (P)</text>
<polygon fill="none" stroke="black" points="8,-4.38 8,-31.62 69.75,-31.62 69.75,-4.38 8,-4.38"/>
</g>
<!-- n_0_2&#45;&gt;n_0 -->
<g id="edge4" class="edge">
<title>n_0_2&#45;&gt;n_0</title>
<path fill="none" stroke="black" d="M78.81,-79.29C72.24,-69.37 63.76,-56.57 56.31,-45.32"/>
<polygon fill="black" stroke="black" points="59.37,-43.61 50.93,-37.2 53.54,-47.47 59.37,-43.61"/>
</g>
<!-- n_2 -->
<g id="node6" class="node">
<title>n_2</title>
<polygon fill="none" stroke="black" points="115.75,-5.38 115.75,-30.62 168,-30.62 168,-5.38 115.75,-5.38"/>
<text text-anchor="start" x="122.75" y="-16.07" font-family="Times New Roman,serif" font-weight="bold" font-size="9.00">Preschool</text>
<polygon fill="none" stroke="black" points="114.75,-4.38 114.75,-31.62 169,-31.62 169,-4.38 114.75,-4.38"/>
</g>
<!-- n_0_2&#45;&gt;n_2 -->
<g id="edge5" class="edge">
<title>n_0_2&#45;&gt;n_2</title>
<path fill="none" stroke="black" d="M101.16,-79.29C107.86,-69.37 116.5,-56.57 124.1,-45.32"/>
<polygon fill="black" stroke="black" points="126.89,-47.44 129.59,-37.2 121.09,-43.52 126.89,-47.44"/>
</g>
<!-- n_3_4 -->
<g id="node10" class="node">
<title>n_3_4</title>
<polygon fill="none" stroke="black" points="350.38,-166.38 350.38,-191.62 419.12,-191.62 419.12,-166.38 350.38,-166.38"/>
<text text-anchor="start" x="357.38" y="-177.07" font-family="Times New Roman,serif" font-weight="bold" font-size="9.00">Secondary (P)</text>
<polygon fill="none" stroke="black" points="419.12,-166.38 419.12,-191.62 489.38,-191.62 489.38,-166.38 419.12,-166.38"/>
<text text-anchor="start" x="426.12" y="-177.07" font-family="Times New Roman,serif" font-weight="bold" font-size="9.00">Secondary (G)</text>
<polygon fill="none" stroke="black" points="349.38,-165.38 349.38,-192.62 490.38,-192.62 490.38,-165.38 349.38,-165.38"/>
</g>
<!-- n_3_4_5&#45;&gt;n_3_4 -->
<g id="edge9" class="edge">
<title>n_3_4_5&#45;&gt;n_3_4</title>
<path fill="none" stroke="black" d="M423.74,-247.64C423.07,-235.91 422.21,-220.86 421.47,-207.94"/>
<polygon fill="black" stroke="black" points="424.99,-208.13 420.92,-198.34 418,-208.53 424.99,-208.13"/>
</g>
<!-- n_5 -->
<g id="node13" class="node">
<title>n_5</title>
<polygon fill="none" stroke="black" points="536.38,-166.38 536.38,-191.62 589.38,-191.62 589.38,-166.38 536.38,-166.38"/>
<text text-anchor="start" x="543.38" y="-177.07" font-family="Times New Roman,serif" font-weight="bold" font-size="9.00">Technical</text>
<polygon fill="none" stroke="black" points="535.38,-165.38 535.38,-192.62 590.38,-192.62 590.38,-165.38 535.38,-165.38"/>
</g>
<!-- n_3_4_5&#45;&gt;n_5 -->
<g id="edge12" class="edge">
<title>n_3_4_5&#45;&gt;n_5</title>
<path fill="none" stroke="black" d="M456.19,-247.64C477.15,-234.35 504.81,-216.81 526.72,-202.93"/>
<polygon fill="black" stroke="black" points="528.48,-205.95 535.05,-197.64 524.73,-200.04 528.48,-205.95"/>
</g>
<!-- n_3 -->
<g id="node11" class="node">
<title>n_3</title>
<polygon fill="none" stroke="black" points="339.5,-84.38 339.5,-109.62 408.25,-109.62 408.25,-84.38 339.5,-84.38"/>
<text text-anchor="start" x="346.5" y="-95.08" font-family="Times New Roman,serif" font-weight="bold" font-size="9.00">Secondary (P)</text>
<polygon fill="none" stroke="black" points="338.5,-83.38 338.5,-110.62 409.25,-110.62 409.25,-83.38 338.5,-83.38"/>
</g>
<!-- n_3_4&#45;&gt;n_3 -->
<g id="edge10" class="edge">
<title>n_3_4&#45;&gt;n_3</title>
<path fill="none" stroke="black" d="M410.12,-161.03C404.08,-150.53 396.2,-136.82 389.32,-124.87"/>
<polygon fill="black" stroke="black" points="392.39,-123.18 384.37,-116.25 386.32,-126.67 392.39,-123.18"/>
</g>
<!-- n_4 -->
<g id="node12" class="node">
<title>n_4</title>
<polygon fill="none" stroke="black" points="455.75,-84.38 455.75,-109.62 526,-109.62 526,-84.38 455.75,-84.38"/>
<text text-anchor="start" x="462.75" y="-95.08" font-family="Times New Roman,serif" font-weight="bold" font-size="9.00">Secondary (G)</text>
<polygon fill="none" stroke="black" points="454.75,-83.38 454.75,-110.62 527,-110.62 527,-83.38 454.75,-83.38"/>
</g>
<!-- n_3_4&#45;&gt;n_4 -->
<g id="edge11" class="edge">
<title>n_3_4&#45;&gt;n_4</title>
<path fill="none" stroke="black" d="M434.93,-161.03C444.63,-150.11 457.41,-135.71 468.31,-123.43"/>
<polygon fill="black" stroke="black" points="470.81,-125.88 474.83,-116.07 465.58,-121.23 470.81,-125.88"/>
</g>
</g>
</svg>
