<?xml version="1.0" encoding="UTF-8" standalone="no"?>
<!DOCTYPE svg PUBLIC "-//W3C//DTD SVG 1.1//EN"
 "http://www.w3.org/Graphics/SVG/1.1/DTD/svg11.dtd">
<!-- Generated by graphviz version 10.0.1 (20240210.2158)
 -->
<!-- Title: ND Pages: 1 -->
<svg width="668pt" height="311pt"
 viewBox="0.00 0.00 667.50 311.00" xmlns="http://www.w3.org/2000/svg" xmlns:xlink="http://www.w3.org/1999/xlink">
<g id="graph0" class="graph" transform="scale(1 1) rotate(0) translate(4 307)">
<title>ND</title>
<polygon fill="white" stroke="none" points="-4,4 -4,-307 663.5,-307 663.5,4 -4,4"/>
<!-- n_0_1_2_3_4_5_6 -->
<g id="node1" class="node">
<title>n_0_1_2_3_4_5_6</title>
<polygon fill="none" stroke="black" points="324.12,-248 324.12,-298 392.88,-298 392.88,-248 324.12,-248"/>
<text text-anchor="start" x="334.88" y="-283.45" font-family="Times New Roman,serif" font-weight="bold" font-size="9.00">Primary (G)</text>
<text text-anchor="start" x="339.38" y="-274.45" font-family="Times New Roman,serif" font-weight="bold" font-size="9.00">Preschool</text>
<text text-anchor="start" x="331.12" y="-265.45" font-family="Times New Roman,serif" font-weight="bold" font-size="9.00">Secondary (P)</text>
<text text-anchor="start" x="338.25" y="-256.45" font-family="Times New Roman,serif" font-weight="bold" font-size="9.00">University</text>
<polygon fill="none" stroke="black" points="392.88,-248 392.88,-298 463.12,-298 463.12,-248 392.88,-248"/>
<text text-anchor="start" x="405.12" y="-278.95" font-family="Times New Roman,serif" font-weight="bold" font-size="9.00">Primary (P)</text>
<text text-anchor="start" x="399.88" y="-269.95" font-family="Times New Roman,serif" font-weight="bold" font-size="9.00">Secondary (G)</text>
<text text-anchor="start" x="408.5" y="-260.95" font-family="Times New Roman,serif" font-weight="bold" font-size="9.00">Technical</text>
<polygon fill="none" stroke="black" points="323.12,-247 323.12,-299 464.12,-299 464.12,-247 323.12,-247"/>
</g>
<!-- n_1_2_3_6 -->
<g id="node2" class="node">
<title>n_1_2_3_6</title>
<polygon fill="none" stroke="black" points="240.62,-163 240.62,-195 301.88,-195 301.88,-163 240.62,-163"/>
<text text-anchor="start" x="247.62" y="-180.45" font-family="Times New Roman,serif" font-weight="bold" font-size="9.00">Primary (G)</text>
<text text-anchor="start" x="252.12" y="-171.45" font-family="Times New Roman,serif" font-weight="bold" font-size="9.00">Preschool</text>
<polygon fill="none" stroke="black" points="301.88,-163 301.88,-195 370.62,-195 370.62,-163 301.88,-163"/>
<text text-anchor="start" x="308.88" y="-180.45" font-family="Times New Roman,serif" font-weight="bold" font-size="9.00">Secondary (P)</text>
<text text-anchor="start" x="316" y="-171.45" font-family="Times New Roman,serif" font-weight="bold" font-size="9.00">University</text>
<polygon fill="none" stroke="black" points="239.62,-162 239.62,-196 371.62,-196 371.62,-162 239.62,-162"/>
</g>
<!-- n_0_1_2_3_4_5_6&#45;&gt;n_1_2_3_6 -->
<g id="edge1" class="edge">
<title>n_0_1_2_3_4_5_6&#45;&gt;n_1_2_3_6</title>
<path fill="none" stroke="black" d="M366.02,-243.14C355.26,-231.89 342.97,-219.04 332.29,-207.88"/>
<polygon fill="black" stroke="black" points="334.99,-205.63 325.54,-200.82 329.93,-210.47 334.99,-205.63"/>
</g>
<!-- n_0_4_5 -->
<g id="node9" class="node">
<title>n_0_4_5</title>
<polygon fill="none" stroke="black" points="417.62,-163 417.62,-195 487.88,-195 487.88,-163 417.62,-163"/>
<text text-anchor="start" x="424.62" y="-180.45" font-family="Times New Roman,serif" font-weight="bold" font-size="9.00">Secondary (G)</text>
<text text-anchor="start" x="433.25" y="-171.45" font-family="Times New Roman,serif" font-weight="bold" font-size="9.00">Technical</text>
<polygon fill="none" stroke="black" points="487.88,-163 487.88,-195 547.62,-195 547.62,-163 487.88,-163"/>
<text text-anchor="start" x="494.88" y="-177.07" font-family="Times New Roman,serif" font-weight="bold" font-size="9.00">Primary (P)</text>
<polygon fill="none" stroke="black" points="416.62,-162 416.62,-196 548.62,-196 548.62,-162 416.62,-162"/>
</g>
<!-- n_0_1_2_3_4_5_6&#45;&gt;n_0_4_5 -->
<g id="edge8" class="edge">
<title>n_0_1_2_3_4_5_6&#45;&gt;n_0_4_5</title>
<path fill="none" stroke="black" d="M421.54,-243.14C432.43,-231.89 444.86,-219.04 455.65,-207.88"/>
<polygon fill="black" stroke="black" points="458.05,-210.44 462.49,-200.82 453.02,-205.57 458.05,-210.44"/>
</g>
<!-- n_1_2 -->
<g id="node3" class="node">
<title>n_1_2</title>
<polygon fill="none" stroke="black" points="85.88,-84.38 85.88,-109.62 147.12,-109.62 147.12,-84.38 85.88,-84.38"/>
<text text-anchor="start" x="92.88" y="-95.08" font-family="Times New Roman,serif" font-weight="bold" font-size="9.00">Primary (G)</text>
<polygon fill="none" stroke="black" points="147.12,-84.38 147.12,-109.62 199.38,-109.62 199.38,-84.38 147.12,-84.38"/>
<text text-anchor="start" x="154.12" y="-95.08" font-family="Times New Roman,serif" font-weight="bold" font-size="9.00">Preschool</text>
<polygon fill="none" stroke="black" points="84.88,-83.38 84.88,-110.62 200.38,-110.62 200.38,-83.38 84.88,-83.38"/>
</g>
<!-- n_1_2_3_6&#45;&gt;n_1_2 -->
<g id="edge2" class="edge">
<title>n_1_2_3_6&#45;&gt;n_1_2</title>
<path fill="none" stroke="black" d="M264.91,-158.02C241.23,-146.4 211.36,-131.74 187.07,-119.81"/>
<polygon fill="black" stroke="black" points="188.92,-116.82 178.4,-115.56 185.83,-123.1 188.92,-116.82"/>
</g>
<!-- n_3_6 -->
<g id="node6" class="node">
<title>n_3_6</title>
<polygon fill="none" stroke="black" points="246,-84.38 246,-109.62 314.75,-109.62 314.75,-84.38 246,-84.38"/>
<text text-anchor="start" x="253" y="-95.08" font-family="Times New Roman,serif" font-weight="bold" font-size="9.00">Secondary (P)</text>
<polygon fill="none" stroke="black" points="314.75,-84.38 314.75,-109.62 369.25,-109.62 369.25,-84.38 314.75,-84.38"/>
<text text-anchor="start" x="321.75" y="-95.08" font-family="Times New Roman,serif" font-weight="bold" font-size="9.00">University</text>
<polygon fill="none" stroke="black" points="245,-83.38 245,-110.62 370.25,-110.62 370.25,-83.38 245,-83.38"/>
</g>
<!-- n_1_2_3_6&#45;&gt;n_3_6 -->
<g id="edge5" class="edge">
<title>n_1_2_3_6&#45;&gt;n_3_6</title>
<path fill="none" stroke="black" d="M306.12,-158.22C306.36,-148.54 306.66,-136.72 306.92,-126.11"/>
<polygon fill="black" stroke="black" points="310.41,-126.44 307.17,-116.36 303.42,-126.27 310.41,-126.44"/>
</g>
<!-- n_1 -->
<g id="node4" class="node">
<title>n_1</title>
<polygon fill="none" stroke="black" points="9,-5.38 9,-30.62 70.25,-30.62 70.25,-5.38 9,-5.38"/>
<text text-anchor="start" x="16" y="-16.07" font-family="Times New Roman,serif" font-weight="bold" font-size="9.00">Primary (G)</text>
<polygon fill="none" stroke="black" points="8,-4.38 8,-31.62 71.25,-31.62 71.25,-4.38 8,-4.38"/>
</g>
<!-- n_1_2&#45;&gt;n_1 -->
<g id="edge3" class="edge">
<title>n_1_2&#45;&gt;n_1</title>
<path fill="none" stroke="black" d="M120.02,-79.1C105.67,-68.37 86.88,-54.33 71.08,-42.51"/>
<polygon fill="black" stroke="black" points="73.49,-39.95 63.39,-36.76 69.3,-45.56 73.49,-39.95"/>
</g>
<!-- n_2 -->
<g id="node5" class="node">
<title>n_2</title>
<polygon fill="none" stroke="black" points="117.5,-5.38 117.5,-30.62 169.75,-30.62 169.75,-5.38 117.5,-5.38"/>
<text text-anchor="start" x="124.5" y="-16.07" font-family="Times New Roman,serif" font-weight="bold" font-size="9.00">Preschool</text>
<polygon fill="none" stroke="black" points="116.5,-4.38 116.5,-31.62 170.75,-31.62 170.75,-4.38 116.5,-4.38"/>
</g>
<!-- n_1_2&#45;&gt;n_2 -->
<g id="edge4" class="edge">
<title>n_1_2&#45;&gt;n_2</title>
<path fill="none" stroke="black" d="M142.84,-79.29C142.96,-69.97 143.12,-58.11 143.26,-47.38"/>
<polygon fill="black" stroke="black" points="146.76,-47.5 143.39,-37.45 139.76,-47.41 146.76,-47.5"/>
</g>
<!-- n_3 -->
<g id="node7" class="node">
<title>n_3</title>
<polygon fill="none" stroke="black" points="225.25,-5.38 225.25,-30.62 294,-30.62 294,-5.38 225.25,-5.38"/>
<text text-anchor="start" x="232.25" y="-16.07" font-family="Times New Roman,serif" font-weight="bold" font-size="9.00">Secondary (P)</text>
<polygon fill="none" stroke="black" points="224.25,-4.38 224.25,-31.62 295,-31.62 295,-4.38 224.25,-4.38"/>
</g>
<!-- n_3_6&#45;&gt;n_3 -->
<g id="edge6" class="edge">
<title>n_3_6&#45;&gt;n_3</title>
<path fill="none" stroke="black" d="M297.21,-79.29C291.09,-69.47 283.21,-56.83 276.24,-45.66"/>
<polygon fill="black" stroke="black" points="279.25,-43.86 270.99,-37.23 273.31,-47.56 279.25,-43.86"/>
</g>
<!-- n_6 -->
<g id="node8" class="node">
<title>n_6</title>
<polygon fill="none" stroke="black" points="341.38,-5.38 341.38,-30.62 395.88,-30.62 395.88,-5.38 341.38,-5.38"/>
<text text-anchor="start" x="348.38" y="-16.07" font-family="Times New Roman,serif" font-weight="bold" font-size="9.00">University</text>
<polygon fill="none" stroke="black" points="340.38,-4.38 340.38,-31.62 396.88,-31.62 396.88,-4.38 340.38,-4.38"/>
</g>
<!-- n_3_6&#45;&gt;n_6 -->
<g id="edge7" class="edge">
<title>n_3_6&#45;&gt;n_6</title>
<path fill="none" stroke="black" d="M320.86,-79.29C328.88,-69.17 339.27,-56.05 348.31,-44.64"/>
<polygon fill="black" stroke="black" points="350.8,-47.14 354.26,-37.13 345.31,-42.79 350.8,-47.14"/>
</g>
<!-- n_4_5 -->
<g id="node10" class="node">
<title>n_4_5</title>
<polygon fill="none" stroke="black" points="420,-84.38 420,-109.62 490.25,-109.62 490.25,-84.38 420,-84.38"/>
<text text-anchor="start" x="427" y="-95.08" font-family="Times New Roman,serif" font-weight="bold" font-size="9.00">Secondary (G)</text>
<polygon fill="none" stroke="black" points="490.25,-84.38 490.25,-109.62 543.25,-109.62 543.25,-84.38 490.25,-84.38"/>
<text text-anchor="start" x="497.25" y="-95.08" font-family="Times New Roman,serif" font-weight="bold" font-size="9.00">Technical</text>
<polygon fill="none" stroke="black" points="419,-83.38 419,-110.62 544.25,-110.62 544.25,-83.38 419,-83.38"/>
</g>
<!-- n_0_4_5&#45;&gt;n_4_5 -->
<g id="edge9" class="edge">
<title>n_0_4_5&#45;&gt;n_4_5</title>
<path fill="none" stroke="black" d="M482.38,-158.22C482.26,-148.54 482.11,-136.72 481.98,-126.11"/>
<polygon fill="black" stroke="black" points="485.48,-126.31 481.85,-116.36 478.48,-126.4 485.48,-126.31"/>
</g>
<!-- n_0 -->
<g id="node13" class="node">
<title>n_0</title>
<polygon fill="none" stroke="black" points="590.75,-84.38 590.75,-109.62 650.5,-109.62 650.5,-84.38 590.75,-84.38"/>
<text text-anchor="start" x="597.75" y="-95.08" font-family="Times New Roman,serif" font-weight="bold" font-size="9.00">Primary (P)</text>
<polygon fill="none" stroke="black" points="589.75,-83.38 589.75,-110.62 651.5,-110.62 651.5,-83.38 589.75,-83.38"/>
</g>
<!-- n_0_4_5&#45;&gt;n_0 -->
<g id="edge12" class="edge">
<title>n_0_4_5&#45;&gt;n_0</title>
<path fill="none" stroke="black" d="M517.09,-158.02C536.76,-146.62 561.47,-132.29 581.82,-120.49"/>
<polygon fill="black" stroke="black" points="583.51,-123.56 590.41,-115.52 580,-117.5 583.51,-123.56"/>
</g>
<!-- n_4 -->
<g id="node11" class="node">
<title>n_4</title>
<polygon fill="none" stroke="black" points="446.5,-5.38 446.5,-30.62 516.75,-30.62 516.75,-5.38 446.5,-5.38"/>
<text text-anchor="start" x="453.5" y="-16.07" font-family="Times New Roman,serif" font-weight="bold" font-size="9.00">Secondary (G)</text>
<polygon fill="none" stroke="black" points="445.5,-4.38 445.5,-31.62 517.75,-31.62 517.75,-4.38 445.5,-4.38"/>
</g>
<!-- n_4_5&#45;&gt;n_4 -->
<g id="edge10" class="edge">
<title>n_4_5&#45;&gt;n_4</title>
<path fill="none" stroke="black" d="M481.62,-79.29C481.62,-69.97 481.62,-58.11 481.62,-47.38"/>
<polygon fill="black" stroke="black" points="485.13,-47.45 481.63,-37.45 478.13,-47.45 485.13,-47.45"/>
</g>
<!-- n_5 -->
<g id="node12" class="node">
<title>n_5</title>
<polygon fill="none" stroke="black" points="564.12,-5.38 564.12,-30.62 617.12,-30.62 617.12,-5.38 564.12,-5.38"/>
<text text-anchor="start" x="571.12" y="-16.07" font-family="Times New Roman,serif" font-weight="bold" font-size="9.00">Technical</text>
<polygon fill="none" stroke="black" points="563.12,-4.38 563.12,-31.62 618.12,-31.62 618.12,-4.38 563.12,-4.38"/>
</g>
<!-- n_4_5&#45;&gt;n_5 -->
<g id="edge11" class="edge">
<title>n_4_5&#45;&gt;n_5</title>
<path fill="none" stroke="black" d="M505.55,-79.1C520.88,-68.27 540.99,-54.06 557.81,-42.18"/>
<polygon fill="black" stroke="black" points="559.38,-45.36 565.52,-36.73 555.34,-39.64 559.38,-45.36"/>
</g>
</g>
</svg>
