<?xml version="1.0" encoding="UTF-8" standalone="no"?>
<!DOCTYPE svg PUBLIC "-//W3C//DTD SVG 1.1//EN"
 "http://www.w3.org/Graphics/SVG/1.1/DTD/svg11.dtd">
<!-- Generated by graphviz version 10.0.1 (20240210.2158)
 -->
<!-- Title: ND Pages: 1 -->
<svg width="552pt" height="423pt"
 viewBox="0.00 0.00 552.25 423.00" xmlns="http://www.w3.org/2000/svg" xmlns:xlink="http://www.w3.org/1999/xlink">
<g id="graph0" class="graph" transform="scale(1 1) rotate(0) translate(4 419)">
<title>ND</title>
<polygon fill="white" stroke="none" points="-4,4 -4,-419 548.25,-419 548.25,4 -4,4"/>
<!-- n_0_1_2_3_4_5_6 -->
<g id="node1" class="node">
<title>n_0_1_2_3_4_5_6</title>
<polygon fill="none" stroke="black" points="281.88,-342 281.88,-410 352.12,-410 352.12,-342 281.88,-342"/>
<text text-anchor="start" x="294.12" y="-395.45" font-family="Times New Roman,serif" font-weight="bold" font-size="9.00">Primary (P)</text>
<text text-anchor="start" x="293.38" y="-386.45" font-family="Times New Roman,serif" font-weight="bold" font-size="9.00">Primary (G)</text>
<text text-anchor="start" x="289.62" y="-377.45" font-family="Times New Roman,serif" font-weight="bold" font-size="9.00">Secondary (P)</text>
<text text-anchor="start" x="288.88" y="-368.45" font-family="Times New Roman,serif" font-weight="bold" font-size="9.00">Secondary (G)</text>
<text text-anchor="start" x="297.5" y="-359.45" font-family="Times New Roman,serif" font-weight="bold" font-size="9.00">Technical</text>
<text text-anchor="start" x="296.75" y="-350.45" font-family="Times New Roman,serif" font-weight="bold" font-size="9.00">University</text>
<polygon fill="none" stroke="black" points="352.12,-342 352.12,-410 404.38,-410 404.38,-342 352.12,-342"/>
<text text-anchor="start" x="359.12" y="-374.07" font-family="Times New Roman,serif" font-weight="bold" font-size="9.00">Preschool</text>
<polygon fill="none" stroke="black" points="280.88,-341 280.88,-411 405.38,-411 405.38,-341 280.88,-341"/>
</g>
<!-- n_0_1_3_4_5_6 -->
<g id="node2" class="node">
<title>n_0_1_3_4_5_6</title>
<polygon fill="none" stroke="black" points="209.12,-248 209.12,-289 268.88,-289 268.88,-248 209.12,-248"/>
<text text-anchor="start" x="216.12" y="-274.45" font-family="Times New Roman,serif" font-weight="bold" font-size="9.00">Primary (P)</text>
<text text-anchor="start" x="219.5" y="-265.45" font-family="Times New Roman,serif" font-weight="bold" font-size="9.00">Technical</text>
<text text-anchor="start" x="218.75" y="-256.45" font-family="Times New Roman,serif" font-weight="bold" font-size="9.00">University</text>
<polygon fill="none" stroke="black" points="268.88,-248 268.88,-289 339.12,-289 339.12,-248 268.88,-248"/>
<text text-anchor="start" x="280.38" y="-274.45" font-family="Times New Roman,serif" font-weight="bold" font-size="9.00">Primary (G)</text>
<text text-anchor="start" x="276.62" y="-265.45" font-family="Times New Roman,serif" font-weight="bold" font-size="9.00">Secondary (P)</text>
<text text-anchor="start" x="275.88" y="-256.45" font-family="Times New Roman,serif" font-weight="bold" font-size="9.00">Secondary (G)</text>
<polygon fill="none" stroke="black" points="208.12,-247 208.12,-290 340.12,-290 340.12,-247 208.12,-247"/>
</g>
<!-- n_0_1_2_3_4_5_6&#45;&gt;n_0_1_3_4_5_6 -->
<g id="edge1" class="edge">
<title>n_0_1_2_3_4_5_6&#45;&gt;n_0_1_3_4_5_6</title>
<path fill="none" stroke="black" d="M318.41,-337.21C311.19,-326.16 303.34,-314.17 296.28,-303.38"/>
<polygon fill="black" stroke="black" points="299.3,-301.6 290.9,-295.14 293.44,-305.43 299.3,-301.6"/>
</g>
<!-- n_2 -->
<g id="node13" class="node">
<title>n_2</title>
<polygon fill="none" stroke="black" points="386,-255.88 386,-281.12 438.25,-281.12 438.25,-255.88 386,-255.88"/>
<text text-anchor="start" x="393" y="-266.57" font-family="Times New Roman,serif" font-weight="bold" font-size="9.00">Preschool</text>
<polygon fill="none" stroke="black" points="385,-254.88 385,-282.12 439.25,-282.12 439.25,-254.88 385,-254.88"/>
</g>
<!-- n_0_1_2_3_4_5_6&#45;&gt;n_2 -->
<g id="edge12" class="edge">
<title>n_0_1_2_3_4_5_6&#45;&gt;n_2</title>
<path fill="none" stroke="black" d="M367.84,-337.21C376.81,-323.49 386.74,-308.31 394.93,-295.8"/>
<polygon fill="black" stroke="black" points="397.69,-297.97 400.23,-287.69 391.83,-294.14 397.69,-297.97"/>
</g>
<!-- n_0_5_6 -->
<g id="node3" class="node">
<title>n_0_5_6</title>
<polygon fill="none" stroke="black" points="131.75,-163 131.75,-195 191.5,-195 191.5,-163 131.75,-163"/>
<text text-anchor="start" x="138.75" y="-180.45" font-family="Times New Roman,serif" font-weight="bold" font-size="9.00">Primary (P)</text>
<text text-anchor="start" x="141.38" y="-171.45" font-family="Times New Roman,serif" font-weight="bold" font-size="9.00">University</text>
<polygon fill="none" stroke="black" points="191.5,-163 191.5,-195 244.5,-195 244.5,-163 191.5,-163"/>
<text text-anchor="start" x="198.5" y="-177.07" font-family="Times New Roman,serif" font-weight="bold" font-size="9.00">Technical</text>
<polygon fill="none" stroke="black" points="130.75,-162 130.75,-196 245.5,-196 245.5,-162 130.75,-162"/>
</g>
<!-- n_0_1_3_4_5_6&#45;&gt;n_0_5_6 -->
<g id="edge2" class="edge">
<title>n_0_1_3_4_5_6&#45;&gt;n_0_5_6</title>
<path fill="none" stroke="black" d="M250.17,-243.13C239.37,-232.14 226.56,-219.11 215.4,-207.75"/>
<polygon fill="black" stroke="black" points="218.18,-205.58 208.67,-200.91 213.19,-210.49 218.18,-205.58"/>
</g>
<!-- n_1_3_4 -->
<g id="node8" class="node">
<title>n_1_3_4</title>
<polygon fill="none" stroke="black" points="291.62,-163 291.62,-195 360.38,-195 360.38,-163 291.62,-163"/>
<text text-anchor="start" x="302.38" y="-180.45" font-family="Times New Roman,serif" font-weight="bold" font-size="9.00">Primary (G)</text>
<text text-anchor="start" x="298.62" y="-171.45" font-family="Times New Roman,serif" font-weight="bold" font-size="9.00">Secondary (P)</text>
<polygon fill="none" stroke="black" points="360.38,-163 360.38,-195 430.62,-195 430.62,-163 360.38,-163"/>
<text text-anchor="start" x="367.38" y="-177.07" font-family="Times New Roman,serif" font-weight="bold" font-size="9.00">Secondary (G)</text>
<polygon fill="none" stroke="black" points="290.62,-162 290.62,-196 431.62,-196 431.62,-162 290.62,-162"/>
</g>
<!-- n_0_1_3_4_5_6&#45;&gt;n_1_3_4 -->
<g id="edge7" class="edge">
<title>n_0_1_3_4_5_6&#45;&gt;n_1_3_4</title>
<path fill="none" stroke="black" d="M298.36,-243.13C309.28,-232.14 322.24,-219.11 333.53,-207.75"/>
<polygon fill="black" stroke="black" points="335.78,-210.46 340.35,-200.9 330.81,-205.52 335.78,-210.46"/>
</g>
<!-- n_0_6 -->
<g id="node4" class="node">
<title>n_0_6</title>
<polygon fill="none" stroke="black" points="9,-84.38 9,-109.62 68.75,-109.62 68.75,-84.38 9,-84.38"/>
<text text-anchor="start" x="16" y="-95.08" font-family="Times New Roman,serif" font-weight="bold" font-size="9.00">Primary (P)</text>
<polygon fill="none" stroke="black" points="68.75,-84.38 68.75,-109.62 123.25,-109.62 123.25,-84.38 68.75,-84.38"/>
<text text-anchor="start" x="75.75" y="-95.08" font-family="Times New Roman,serif" font-weight="bold" font-size="9.00">University</text>
<polygon fill="none" stroke="black" points="8,-83.38 8,-110.62 124.25,-110.62 124.25,-83.38 8,-83.38"/>
</g>
<!-- n_0_5_6&#45;&gt;n_0_6 -->
<g id="edge3" class="edge">
<title>n_0_5_6&#45;&gt;n_0_6</title>
<path fill="none" stroke="black" d="M157.65,-158.02C140.5,-146.77 119.02,-132.68 101.17,-120.98"/>
<polygon fill="black" stroke="black" points="103.23,-118.15 92.95,-115.59 99.39,-124 103.23,-118.15"/>
</g>
<!-- n_5 -->
<g id="node7" class="node">
<title>n_5</title>
<polygon fill="none" stroke="black" points="170.62,-84.38 170.62,-109.62 223.62,-109.62 223.62,-84.38 170.62,-84.38"/>
<text text-anchor="start" x="177.62" y="-95.08" font-family="Times New Roman,serif" font-weight="bold" font-size="9.00">Technical</text>
<polygon fill="none" stroke="black" points="169.62,-83.38 169.62,-110.62 224.62,-110.62 224.62,-83.38 169.62,-83.38"/>
</g>
<!-- n_0_5_6&#45;&gt;n_5 -->
<g id="edge6" class="edge">
<title>n_0_5_6&#45;&gt;n_5</title>
<path fill="none" stroke="black" d="M190.35,-158.22C191.44,-148.54 192.77,-136.72 193.96,-126.11"/>
<polygon fill="black" stroke="black" points="197.42,-126.68 195.06,-116.35 190.46,-125.89 197.42,-126.68"/>
</g>
<!-- n_0 -->
<g id="node5" class="node">
<title>n_0</title>
<polygon fill="none" stroke="black" points="11.25,-5.38 11.25,-30.62 71,-30.62 71,-5.38 11.25,-5.38"/>
<text text-anchor="start" x="18.25" y="-16.07" font-family="Times New Roman,serif" font-weight="bold" font-size="9.00">Primary (P)</text>
<polygon fill="none" stroke="black" points="10.25,-4.38 10.25,-31.62 72,-31.62 72,-4.38 10.25,-4.38"/>
</g>
<!-- n_0_6&#45;&gt;n_0 -->
<g id="edge4" class="edge">
<title>n_0_6&#45;&gt;n_0</title>
<path fill="none" stroke="black" d="M60.7,-79.29C57.61,-69.77 53.66,-57.6 50.12,-46.69"/>
<polygon fill="black" stroke="black" points="53.51,-45.81 47.09,-37.38 46.85,-47.97 53.51,-45.81"/>
</g>
<!-- n_6 -->
<g id="node6" class="node">
<title>n_6</title>
<polygon fill="none" stroke="black" points="117.88,-5.38 117.88,-30.62 172.38,-30.62 172.38,-5.38 117.88,-5.38"/>
<text text-anchor="start" x="124.88" y="-16.07" font-family="Times New Roman,serif" font-weight="bold" font-size="9.00">University</text>
<polygon fill="none" stroke="black" points="116.88,-4.38 116.88,-31.62 173.38,-31.62 173.38,-4.38 116.88,-4.38"/>
</g>
<!-- n_0_6&#45;&gt;n_6 -->
<g id="edge5" class="edge">
<title>n_0_6&#45;&gt;n_6</title>
<path fill="none" stroke="black" d="M83.27,-79.29C93.86,-68.97 107.64,-55.53 119.51,-43.96"/>
<polygon fill="black" stroke="black" points="121.94,-46.48 126.66,-37 117.06,-41.47 121.94,-46.48"/>
</g>
<!-- n_1_3 -->
<g id="node9" class="node">
<title>n_1_3</title>
<polygon fill="none" stroke="black" points="288.12,-84.38 288.12,-109.62 349.38,-109.62 349.38,-84.38 288.12,-84.38"/>
<text text-anchor="start" x="295.12" y="-95.08" font-family="Times New Roman,serif" font-weight="bold" font-size="9.00">Primary (G)</text>
<polygon fill="none" stroke="black" points="349.38,-84.38 349.38,-109.62 418.12,-109.62 418.12,-84.38 349.38,-84.38"/>
<text text-anchor="start" x="356.38" y="-95.08" font-family="Times New Roman,serif" font-weight="bold" font-size="9.00">Secondary (P)</text>
<polygon fill="none" stroke="black" points="287.12,-83.38 287.12,-110.62 419.12,-110.62 419.12,-83.38 287.12,-83.38"/>
</g>
<!-- n_1_3_4&#45;&gt;n_1_3 -->
<g id="edge8" class="edge">
<title>n_1_3_4&#45;&gt;n_1_3</title>
<path fill="none" stroke="black" d="M359.15,-158.22C358.18,-148.54 357,-136.72 355.94,-126.11"/>
<polygon fill="black" stroke="black" points="359.44,-125.95 354.96,-116.35 352.47,-126.65 359.44,-125.95"/>
</g>
<!-- n_4 -->
<g id="node12" class="node">
<title>n_4</title>
<polygon fill="none" stroke="black" points="465,-84.38 465,-109.62 535.25,-109.62 535.25,-84.38 465,-84.38"/>
<text text-anchor="start" x="472" y="-95.08" font-family="Times New Roman,serif" font-weight="bold" font-size="9.00">Secondary (G)</text>
<polygon fill="none" stroke="black" points="464,-83.38 464,-110.62 536.25,-110.62 536.25,-83.38 464,-83.38"/>
</g>
<!-- n_1_3_4&#45;&gt;n_4 -->
<g id="edge11" class="edge">
<title>n_1_3_4&#45;&gt;n_4</title>
<path fill="none" stroke="black" d="M395.84,-158.02C415.65,-146.62 440.55,-132.29 461.04,-120.49"/>
<polygon fill="black" stroke="black" points="462.77,-123.54 469.7,-115.51 459.28,-117.47 462.77,-123.54"/>
</g>
<!-- n_1 -->
<g id="node10" class="node">
<title>n_1</title>
<polygon fill="none" stroke="black" points="262.5,-5.38 262.5,-30.62 323.75,-30.62 323.75,-5.38 262.5,-5.38"/>
<text text-anchor="start" x="269.5" y="-16.07" font-family="Times New Roman,serif" font-weight="bold" font-size="9.00">Primary (G)</text>
<polygon fill="none" stroke="black" points="261.5,-4.38 261.5,-31.62 324.75,-31.62 324.75,-4.38 261.5,-4.38"/>
</g>
<!-- n_1_3&#45;&gt;n_1 -->
<g id="edge9" class="edge">
<title>n_1_3&#45;&gt;n_1</title>
<path fill="none" stroke="black" d="M340.11,-79.29C332.3,-69.27 322.2,-56.31 313.37,-44.98"/>
<polygon fill="black" stroke="black" points="316.16,-42.87 307.26,-37.14 310.64,-47.17 316.16,-42.87"/>
</g>
<!-- n_3 -->
<g id="node11" class="node">
<title>n_3</title>
<polygon fill="none" stroke="black" points="370.75,-5.38 370.75,-30.62 439.5,-30.62 439.5,-5.38 370.75,-5.38"/>
<text text-anchor="start" x="377.75" y="-16.07" font-family="Times New Roman,serif" font-weight="bold" font-size="9.00">Secondary (P)</text>
<polygon fill="none" stroke="black" points="369.75,-4.38 369.75,-31.62 440.5,-31.62 440.5,-4.38 369.75,-4.38"/>
</g>
<!-- n_1_3&#45;&gt;n_3 -->
<g id="edge10" class="edge">
<title>n_1_3&#45;&gt;n_3</title>
<path fill="none" stroke="black" d="M364.41,-79.29C371.11,-69.37 379.75,-56.57 387.35,-45.32"/>
<polygon fill="black" stroke="black" points="390.14,-47.44 392.84,-37.2 384.34,-43.52 390.14,-47.44"/>
</g>
</g>
</svg>
