<?xml version="1.0" encoding="UTF-8" standalone="no"?>
<!DOCTYPE svg PUBLIC "-//W3C//DTD SVG 1.1//EN"
 "http://www.w3.org/Graphics/SVG/1.1/DTD/svg11.dtd">
<!-- Generated by graphviz version 10.0.1 (20240210.2158)
 -->
<!-- Title: ND Pages: 1 -->
<svg width="540pt" height="423pt"
 viewBox="0.00 0.00 540.25 423.00" xmlns="http://www.w3.org/2000/svg" xmlns:xlink="http://www.w3.org/1999/xlink">
<g id="graph0" class="graph" transform="scale(1 1) rotate(0) translate(4 419)">
<title>ND</title>
<polygon fill="white" stroke="none" points="-4,4 -4,-419 536.25,-419 536.25,4 -4,4"/>
<!-- n_0_1_2_3_4_5_6 -->
<g id="node1" class="node">
<title>n_0_1_2_3_4_5_6</title>
<polygon fill="none" stroke="black" points="288.25,-342 288.25,-410 358.5,-410 358.5,-342 288.25,-342"/>
<text text-anchor="start" x="300.5" y="-395.45" font-family="Times New Roman,serif" font-weight="bold" font-size="9.00">Primary (P)</text>
<text text-anchor="start" x="304.25" y="-386.45" font-family="Times New Roman,serif" font-weight="bold" font-size="9.00">Preschool</text>
<text text-anchor="start" x="296" y="-377.45" font-family="Times New Roman,serif" font-weight="bold" font-size="9.00">Secondary (P)</text>
<text text-anchor="start" x="295.25" y="-368.45" font-family="Times New Roman,serif" font-weight="bold" font-size="9.00">Secondary (G)</text>
<text text-anchor="start" x="303.88" y="-359.45" font-family="Times New Roman,serif" font-weight="bold" font-size="9.00">Technical</text>
<text text-anchor="start" x="303.12" y="-350.45" font-family="Times New Roman,serif" font-weight="bold" font-size="9.00">University</text>
<polygon fill="none" stroke="black" points="358.5,-342 358.5,-410 419.75,-410 419.75,-342 358.5,-342"/>
<text text-anchor="start" x="365.5" y="-374.07" font-family="Times New Roman,serif" font-weight="bold" font-size="9.00">Primary (G)</text>
<polygon fill="none" stroke="black" points="287.25,-341 287.25,-411 420.75,-411 420.75,-341 287.25,-341"/>
</g>
<!-- n_0_2_3_4_5_6 -->
<g id="node2" class="node">
<title>n_0_2_3_4_5_6</title>
<polygon fill="none" stroke="black" points="211.5,-248 211.5,-289 280.25,-289 280.25,-248 211.5,-248"/>
<text text-anchor="start" x="223" y="-274.45" font-family="Times New Roman,serif" font-weight="bold" font-size="9.00">Primary (P)</text>
<text text-anchor="start" x="226.75" y="-265.45" font-family="Times New Roman,serif" font-weight="bold" font-size="9.00">Preschool</text>
<text text-anchor="start" x="218.5" y="-256.45" font-family="Times New Roman,serif" font-weight="bold" font-size="9.00">Secondary (P)</text>
<polygon fill="none" stroke="black" points="280.25,-248 280.25,-289 350.5,-289 350.5,-248 280.25,-248"/>
<text text-anchor="start" x="287.25" y="-274.45" font-family="Times New Roman,serif" font-weight="bold" font-size="9.00">Secondary (G)</text>
<text text-anchor="start" x="295.88" y="-265.45" font-family="Times New Roman,serif" font-weight="bold" font-size="9.00">Technical</text>
<text text-anchor="start" x="295.12" y="-256.45" font-family="Times New Roman,serif" font-weight="bold" font-size="9.00">University</text>
<polygon fill="none" stroke="black" points="210.5,-247 210.5,-290 351.5,-290 351.5,-247 210.5,-247"/>
</g>
<!-- n_0_1_2_3_4_5_6&#45;&gt;n_0_2_3_4_5_6 -->
<g id="edge1" class="edge">
<title>n_0_1_2_3_4_5_6&#45;&gt;n_0_2_3_4_5_6</title>
<path fill="none" stroke="black" d="M327.85,-337.21C320.13,-326.05 311.74,-313.92 304.21,-303.05"/>
<polygon fill="black" stroke="black" points="307.3,-301.35 298.73,-295.12 301.54,-305.34 307.3,-301.35"/>
</g>
<!-- n_1 -->
<g id="node13" class="node">
<title>n_1</title>
<polygon fill="none" stroke="black" points="397.38,-255.88 397.38,-281.12 458.62,-281.12 458.62,-255.88 397.38,-255.88"/>
<text text-anchor="start" x="404.38" y="-266.57" font-family="Times New Roman,serif" font-weight="bold" font-size="9.00">Primary (G)</text>
<polygon fill="none" stroke="black" points="396.38,-254.88 396.38,-282.12 459.62,-282.12 459.62,-254.88 396.38,-254.88"/>
</g>
<!-- n_0_1_2_3_4_5_6&#45;&gt;n_1 -->
<g id="edge12" class="edge">
<title>n_0_1_2_3_4_5_6&#45;&gt;n_1</title>
<path fill="none" stroke="black" d="M380.51,-337.21C390.13,-323.49 400.78,-308.31 409.55,-295.8"/>
<polygon fill="black" stroke="black" points="412.39,-297.85 415.26,-287.66 406.66,-293.83 412.39,-297.85"/>
</g>
<!-- n_0_2_3 -->
<g id="node3" class="node">
<title>n_0_2_3</title>
<polygon fill="none" stroke="black" points="129.75,-163 129.75,-195 189.5,-195 189.5,-163 129.75,-163"/>
<text text-anchor="start" x="136.75" y="-180.45" font-family="Times New Roman,serif" font-weight="bold" font-size="9.00">Primary (P)</text>
<text text-anchor="start" x="140.5" y="-171.45" font-family="Times New Roman,serif" font-weight="bold" font-size="9.00">Preschool</text>
<polygon fill="none" stroke="black" points="189.5,-163 189.5,-195 258.25,-195 258.25,-163 189.5,-163"/>
<text text-anchor="start" x="196.5" y="-177.07" font-family="Times New Roman,serif" font-weight="bold" font-size="9.00">Secondary (P)</text>
<polygon fill="none" stroke="black" points="128.75,-162 128.75,-196 259.25,-196 259.25,-162 128.75,-162"/>
</g>
<!-- n_0_2_3_4_5_6&#45;&gt;n_0_2_3 -->
<g id="edge2" class="edge">
<title>n_0_2_3_4_5_6&#45;&gt;n_0_2_3</title>
<path fill="none" stroke="black" d="M256.77,-243.13C245.84,-232.14 232.89,-219.11 221.59,-207.75"/>
<polygon fill="black" stroke="black" points="224.31,-205.52 214.78,-200.9 219.35,-210.46 224.31,-205.52"/>
</g>
<!-- n_4_5_6 -->
<g id="node8" class="node">
<title>n_4_5_6</title>
<polygon fill="none" stroke="black" points="305.62,-163 305.62,-195 375.88,-195 375.88,-163 305.62,-163"/>
<text text-anchor="start" x="312.62" y="-180.45" font-family="Times New Roman,serif" font-weight="bold" font-size="9.00">Secondary (G)</text>
<text text-anchor="start" x="321.25" y="-171.45" font-family="Times New Roman,serif" font-weight="bold" font-size="9.00">Technical</text>
<polygon fill="none" stroke="black" points="375.88,-163 375.88,-195 430.38,-195 430.38,-163 375.88,-163"/>
<text text-anchor="start" x="382.88" y="-177.07" font-family="Times New Roman,serif" font-weight="bold" font-size="9.00">University</text>
<polygon fill="none" stroke="black" points="304.62,-162 304.62,-196 431.38,-196 431.38,-162 304.62,-162"/>
</g>
<!-- n_0_2_3_4_5_6&#45;&gt;n_4_5_6 -->
<g id="edge7" class="edge">
<title>n_0_2_3_4_5_6&#45;&gt;n_4_5_6</title>
<path fill="none" stroke="black" d="M305.23,-243.13C316.16,-232.14 329.11,-219.11 340.41,-207.75"/>
<polygon fill="black" stroke="black" points="342.65,-210.46 347.22,-200.9 337.69,-205.52 342.65,-210.46"/>
</g>
<!-- n_0_2 -->
<g id="node4" class="node">
<title>n_0_2</title>
<polygon fill="none" stroke="black" points="9,-84.38 9,-109.62 68.75,-109.62 68.75,-84.38 9,-84.38"/>
<text text-anchor="start" x="16" y="-95.08" font-family="Times New Roman,serif" font-weight="bold" font-size="9.00">Primary (P)</text>
<polygon fill="none" stroke="black" points="68.75,-84.38 68.75,-109.62 121,-109.62 121,-84.38 68.75,-84.38"/>
<text text-anchor="start" x="75.75" y="-95.08" font-family="Times New Roman,serif" font-weight="bold" font-size="9.00">Preschool</text>
<polygon fill="none" stroke="black" points="8,-83.38 8,-110.62 122,-110.62 122,-83.38 8,-83.38"/>
</g>
<!-- n_0_2_3&#45;&gt;n_0_2 -->
<g id="edge3" class="edge">
<title>n_0_2_3&#45;&gt;n_0_2</title>
<path fill="none" stroke="black" d="M161.78,-158.02C143.56,-146.72 120.71,-132.55 101.79,-120.82"/>
<polygon fill="black" stroke="black" points="103.65,-117.85 93.31,-115.56 99.96,-123.8 103.65,-117.85"/>
</g>
<!-- n_3 -->
<g id="node7" class="node">
<title>n_3</title>
<polygon fill="none" stroke="black" points="167.62,-84.38 167.62,-109.62 236.38,-109.62 236.38,-84.38 167.62,-84.38"/>
<text text-anchor="start" x="174.62" y="-95.08" font-family="Times New Roman,serif" font-weight="bold" font-size="9.00">Secondary (P)</text>
<polygon fill="none" stroke="black" points="166.62,-83.38 166.62,-110.62 237.38,-110.62 237.38,-83.38 166.62,-83.38"/>
</g>
<!-- n_0_2_3&#45;&gt;n_3 -->
<g id="edge6" class="edge">
<title>n_0_2_3&#45;&gt;n_3</title>
<path fill="none" stroke="black" d="M195.98,-158.22C196.95,-148.54 198.13,-136.72 199.19,-126.11"/>
<polygon fill="black" stroke="black" points="202.65,-126.65 200.17,-116.35 195.69,-125.95 202.65,-126.65"/>
</g>
<!-- n_0 -->
<g id="node5" class="node">
<title>n_0</title>
<polygon fill="none" stroke="black" points="15.12,-5.38 15.12,-30.62 74.88,-30.62 74.88,-5.38 15.12,-5.38"/>
<text text-anchor="start" x="22.12" y="-16.07" font-family="Times New Roman,serif" font-weight="bold" font-size="9.00">Primary (P)</text>
<polygon fill="none" stroke="black" points="14.12,-4.38 14.12,-31.62 75.88,-31.62 75.88,-4.38 14.12,-4.38"/>
</g>
<!-- n_0_2&#45;&gt;n_0 -->
<g id="edge4" class="edge">
<title>n_0_2&#45;&gt;n_0</title>
<path fill="none" stroke="black" d="M60.66,-79.29C58.21,-69.87 55.09,-57.86 52.28,-47.04"/>
<polygon fill="black" stroke="black" points="55.68,-46.21 49.78,-37.41 48.91,-47.96 55.68,-46.21"/>
</g>
<!-- n_2 -->
<g id="node6" class="node">
<title>n_2</title>
<polygon fill="none" stroke="black" points="121.88,-5.38 121.88,-30.62 174.12,-30.62 174.12,-5.38 121.88,-5.38"/>
<text text-anchor="start" x="128.88" y="-16.07" font-family="Times New Roman,serif" font-weight="bold" font-size="9.00">Preschool</text>
<polygon fill="none" stroke="black" points="120.88,-4.38 120.88,-31.62 175.12,-31.62 175.12,-4.38 120.88,-4.38"/>
</g>
<!-- n_0_2&#45;&gt;n_2 -->
<g id="edge5" class="edge">
<title>n_0_2&#45;&gt;n_2</title>
<path fill="none" stroke="black" d="M83.01,-79.29C94.24,-68.87 108.9,-55.27 121.45,-43.63"/>
<polygon fill="black" stroke="black" points="123.68,-46.34 128.63,-36.97 118.92,-41.21 123.68,-46.34"/>
</g>
<!-- n_4_5 -->
<g id="node9" class="node">
<title>n_4_5</title>
<polygon fill="none" stroke="black" points="298.38,-84.38 298.38,-109.62 368.62,-109.62 368.62,-84.38 298.38,-84.38"/>
<text text-anchor="start" x="305.38" y="-95.08" font-family="Times New Roman,serif" font-weight="bold" font-size="9.00">Secondary (G)</text>
<polygon fill="none" stroke="black" points="368.62,-84.38 368.62,-109.62 421.62,-109.62 421.62,-84.38 368.62,-84.38"/>
<text text-anchor="start" x="375.62" y="-95.08" font-family="Times New Roman,serif" font-weight="bold" font-size="9.00">Technical</text>
<polygon fill="none" stroke="black" points="297.38,-83.38 297.38,-110.62 422.62,-110.62 422.62,-83.38 297.38,-83.38"/>
</g>
<!-- n_4_5_6&#45;&gt;n_4_5 -->
<g id="edge8" class="edge">
<title>n_4_5_6&#45;&gt;n_4_5</title>
<path fill="none" stroke="black" d="M366.02,-158.22C365.05,-148.54 363.87,-136.72 362.81,-126.11"/>
<polygon fill="black" stroke="black" points="366.31,-125.95 361.83,-116.35 359.35,-126.65 366.31,-125.95"/>
</g>
<!-- n_6 -->
<g id="node12" class="node">
<title>n_6</title>
<polygon fill="none" stroke="black" points="468.75,-84.38 468.75,-109.62 523.25,-109.62 523.25,-84.38 468.75,-84.38"/>
<text text-anchor="start" x="475.75" y="-95.08" font-family="Times New Roman,serif" font-weight="bold" font-size="9.00">University</text>
<polygon fill="none" stroke="black" points="467.75,-83.38 467.75,-110.62 524.25,-110.62 524.25,-83.38 467.75,-83.38"/>
</g>
<!-- n_4_5_6&#45;&gt;n_6 -->
<g id="edge11" class="edge">
<title>n_4_5_6&#45;&gt;n_6</title>
<path fill="none" stroke="black" d="M399.97,-158.02C418.05,-146.72 440.72,-132.55 459.49,-120.82"/>
<polygon fill="black" stroke="black" points="461.28,-123.83 467.9,-115.56 457.57,-117.89 461.28,-123.83"/>
</g>
<!-- n_4 -->
<g id="node10" class="node">
<title>n_4</title>
<polygon fill="none" stroke="black" points="264.88,-5.38 264.88,-30.62 335.12,-30.62 335.12,-5.38 264.88,-5.38"/>
<text text-anchor="start" x="271.88" y="-16.07" font-family="Times New Roman,serif" font-weight="bold" font-size="9.00">Secondary (G)</text>
<polygon fill="none" stroke="black" points="263.88,-4.38 263.88,-31.62 336.12,-31.62 336.12,-4.38 263.88,-4.38"/>
</g>
<!-- n_4_5&#45;&gt;n_4 -->
<g id="edge9" class="edge">
<title>n_4_5&#45;&gt;n_4</title>
<path fill="none" stroke="black" d="M346.98,-79.29C339.17,-69.27 329.07,-56.31 320.24,-44.98"/>
<polygon fill="black" stroke="black" points="323.04,-42.87 314.13,-37.14 317.52,-47.17 323.04,-42.87"/>
</g>
<!-- n_5 -->
<g id="node11" class="node">
<title>n_5</title>
<polygon fill="none" stroke="black" points="382.5,-5.38 382.5,-30.62 435.5,-30.62 435.5,-5.38 382.5,-5.38"/>
<text text-anchor="start" x="389.5" y="-16.07" font-family="Times New Roman,serif" font-weight="bold" font-size="9.00">Technical</text>
<polygon fill="none" stroke="black" points="381.5,-4.38 381.5,-31.62 436.5,-31.62 436.5,-4.38 381.5,-4.38"/>
</g>
<!-- n_4_5&#45;&gt;n_5 -->
<g id="edge10" class="edge">
<title>n_4_5&#45;&gt;n_5</title>
<path fill="none" stroke="black" d="M370.63,-79.29C376.95,-69.37 385.09,-56.57 392.25,-45.32"/>
<polygon fill="black" stroke="black" points="394.99,-47.53 397.41,-37.22 389.09,-43.78 394.99,-47.53"/>
</g>
</g>
</svg>
