<?xml version="1.0" encoding="UTF-8" standalone="no"?>
<!DOCTYPE svg PUBLIC "-//W3C//DTD SVG 1.1//EN"
 "http://www.w3.org/Graphics/SVG/1.1/DTD/svg11.dtd">
<!-- Generated by graphviz version 10.0.1 (20240210.2158)
 -->
<!-- Title: ND Pages: 1 -->
<svg width="557pt" height="535pt"
 viewBox="0.00 0.00 557.00 535.00" xmlns="http://www.w3.org/2000/svg" xmlns:xlink="http://www.w3.org/1999/xlink">
<g id="graph0" class="graph" transform="scale(1 1) rotate(0) translate(4 531)">
<title>ND</title>
<polygon fill="white" stroke="none" points="-4,4 -4,-531 553,-531 553,4 -4,4"/>
<!-- n_0_1_2_3_4_5_6 -->
<g id="node1" class="node">
<title>n_0_1_2_3_4_5_6</title>
<polygon fill="none" stroke="black" points="372.12,-454 372.12,-522 442.38,-522 442.38,-454 372.12,-454"/>
<text text-anchor="start" x="383.62" y="-507.45" font-family="Times New Roman,serif" font-weight="bold" font-size="9.00">Primary (G)</text>
<text text-anchor="start" x="388.12" y="-498.45" font-family="Times New Roman,serif" font-weight="bold" font-size="9.00">Preschool</text>
<text text-anchor="start" x="379.88" y="-489.45" font-family="Times New Roman,serif" font-weight="bold" font-size="9.00">Secondary (P)</text>
<text text-anchor="start" x="379.12" y="-480.45" font-family="Times New Roman,serif" font-weight="bold" font-size="9.00">Secondary (G)</text>
<text text-anchor="start" x="387.75" y="-471.45" font-family="Times New Roman,serif" font-weight="bold" font-size="9.00">Technical</text>
<text text-anchor="start" x="387" y="-462.45" font-family="Times New Roman,serif" font-weight="bold" font-size="9.00">University</text>
<polygon fill="none" stroke="black" points="442.38,-454 442.38,-522 502.12,-522 502.12,-454 442.38,-454"/>
<text text-anchor="start" x="449.38" y="-486.07" font-family="Times New Roman,serif" font-weight="bold" font-size="9.00">Primary (P)</text>
<polygon fill="none" stroke="black" points="371.12,-453 371.12,-523 503.12,-523 503.12,-453 371.12,-453"/>
</g>
<!-- n_1_2_3_4_5_6 -->
<g id="node2" class="node">
<title>n_1_2_3_4_5_6</title>
<polygon fill="none" stroke="black" points="294.62,-342 294.62,-401 363.38,-401 363.38,-342 294.62,-342"/>
<text text-anchor="start" x="305.38" y="-386.45" font-family="Times New Roman,serif" font-weight="bold" font-size="9.00">Primary (G)</text>
<text text-anchor="start" x="309.88" y="-377.45" font-family="Times New Roman,serif" font-weight="bold" font-size="9.00">Preschool</text>
<text text-anchor="start" x="301.62" y="-368.45" font-family="Times New Roman,serif" font-weight="bold" font-size="9.00">Secondary (P)</text>
<text text-anchor="start" x="309.5" y="-359.45" font-family="Times New Roman,serif" font-weight="bold" font-size="9.00">Technical</text>
<text text-anchor="start" x="308.75" y="-350.45" font-family="Times New Roman,serif" font-weight="bold" font-size="9.00">University</text>
<polygon fill="none" stroke="black" points="363.38,-342 363.38,-401 433.62,-401 433.62,-342 363.38,-342"/>
<text text-anchor="start" x="370.38" y="-369.57" font-family="Times New Roman,serif" font-weight="bold" font-size="9.00">Secondary (G)</text>
<polygon fill="none" stroke="black" points="293.62,-341 293.62,-402 434.62,-402 434.62,-341 293.62,-341"/>
</g>
<!-- n_0_1_2_3_4_5_6&#45;&gt;n_1_2_3_4_5_6 -->
<g id="edge1" class="edge">
<title>n_0_1_2_3_4_5_6&#45;&gt;n_1_2_3_4_5_6</title>
<path fill="none" stroke="black" d="M413.02,-449.19C406.08,-438.31 398.47,-426.36 391.35,-415.21"/>
<polygon fill="black" stroke="black" points="394.4,-413.48 386.07,-406.93 388.5,-417.24 394.4,-413.48"/>
</g>
<!-- n_0 -->
<g id="node13" class="node">
<title>n_0</title>
<polygon fill="none" stroke="black" points="480.25,-358.88 480.25,-384.12 540,-384.12 540,-358.88 480.25,-358.88"/>
<text text-anchor="start" x="487.25" y="-369.57" font-family="Times New Roman,serif" font-weight="bold" font-size="9.00">Primary (P)</text>
<polygon fill="none" stroke="black" points="479.25,-357.88 479.25,-385.12 541,-385.12 541,-357.88 479.25,-357.88"/>
</g>
<!-- n_0_1_2_3_4_5_6&#45;&gt;n_0 -->
<g id="edge12" class="edge">
<title>n_0_1_2_3_4_5_6&#45;&gt;n_0</title>
<path fill="none" stroke="black" d="M461.23,-449.19C471.69,-432.78 483.69,-413.96 493.19,-399.07"/>
<polygon fill="black" stroke="black" points="496.07,-401.05 498.5,-390.74 490.17,-397.29 496.07,-401.05"/>
</g>
<!-- n_1_2_3_5_6 -->
<g id="node3" class="node">
<title>n_1_2_3_5_6</title>
<polygon fill="none" stroke="black" points="226.12,-248 226.12,-289 294.88,-289 294.88,-248 226.12,-248"/>
<text text-anchor="start" x="241.38" y="-274.45" font-family="Times New Roman,serif" font-weight="bold" font-size="9.00">Preschool</text>
<text text-anchor="start" x="233.12" y="-265.45" font-family="Times New Roman,serif" font-weight="bold" font-size="9.00">Secondary (P)</text>
<text text-anchor="start" x="240.25" y="-256.45" font-family="Times New Roman,serif" font-weight="bold" font-size="9.00">University</text>
<polygon fill="none" stroke="black" points="294.88,-248 294.88,-289 356.12,-289 356.12,-248 294.88,-248"/>
<text text-anchor="start" x="301.88" y="-269.95" font-family="Times New Roman,serif" font-weight="bold" font-size="9.00">Primary (G)</text>
<text text-anchor="start" x="306" y="-260.95" font-family="Times New Roman,serif" font-weight="bold" font-size="9.00">Technical</text>
<polygon fill="none" stroke="black" points="225.12,-247 225.12,-290 357.12,-290 357.12,-247 225.12,-247"/>
</g>
<!-- n_1_2_3_4_5_6&#45;&gt;n_1_2_3_5_6 -->
<g id="edge2" class="edge">
<title>n_1_2_3_4_5_6&#45;&gt;n_1_2_3_5_6</title>
<path fill="none" stroke="black" d="M340.02,-337.15C332.12,-326.22 323.34,-314.07 315.42,-303.12"/>
<polygon fill="black" stroke="black" points="318.31,-301.14 309.62,-295.09 312.64,-305.24 318.31,-301.14"/>
</g>
<!-- n_4 -->
<g id="node12" class="node">
<title>n_4</title>
<polygon fill="none" stroke="black" points="403,-255.88 403,-281.12 473.25,-281.12 473.25,-255.88 403,-255.88"/>
<text text-anchor="start" x="410" y="-266.57" font-family="Times New Roman,serif" font-weight="bold" font-size="9.00">Secondary (G)</text>
<polygon fill="none" stroke="black" points="402,-254.88 402,-282.12 474.25,-282.12 474.25,-254.88 402,-254.88"/>
</g>
<!-- n_1_2_3_4_5_6&#45;&gt;n_4 -->
<g id="edge11" class="edge">
<title>n_1_2_3_4_5_6&#45;&gt;n_4</title>
<path fill="none" stroke="black" d="M388.56,-337.15C398.49,-323.6 409.79,-308.17 419.09,-295.48"/>
<polygon fill="black" stroke="black" points="421.78,-297.74 424.86,-287.6 416.13,-293.6 421.78,-297.74"/>
</g>
<!-- n_2_3_6 -->
<g id="node4" class="node">
<title>n_2_3_6</title>
<polygon fill="none" stroke="black" points="146.5,-163 146.5,-195 215.25,-195 215.25,-163 146.5,-163"/>
<text text-anchor="start" x="161.75" y="-180.45" font-family="Times New Roman,serif" font-weight="bold" font-size="9.00">Preschool</text>
<text text-anchor="start" x="153.5" y="-171.45" font-family="Times New Roman,serif" font-weight="bold" font-size="9.00">Secondary (P)</text>
<polygon fill="none" stroke="black" points="215.25,-163 215.25,-195 269.75,-195 269.75,-163 215.25,-163"/>
<text text-anchor="start" x="222.25" y="-177.07" font-family="Times New Roman,serif" font-weight="bold" font-size="9.00">University</text>
<polygon fill="none" stroke="black" points="145.5,-162 145.5,-196 270.75,-196 270.75,-162 145.5,-162"/>
</g>
<!-- n_1_2_3_5_6&#45;&gt;n_2_3_6 -->
<g id="edge3" class="edge">
<title>n_1_2_3_5_6&#45;&gt;n_2_3_6</title>
<path fill="none" stroke="black" d="M268,-243.13C257.68,-232.25 245.46,-219.36 234.76,-208.08"/>
<polygon fill="black" stroke="black" points="237.39,-205.77 227.97,-200.92 232.32,-210.59 237.39,-205.77"/>
</g>
<!-- n_1_5 -->
<g id="node9" class="node">
<title>n_1_5</title>
<polygon fill="none" stroke="black" points="317,-166.38 317,-191.62 378.25,-191.62 378.25,-166.38 317,-166.38"/>
<text text-anchor="start" x="324" y="-177.07" font-family="Times New Roman,serif" font-weight="bold" font-size="9.00">Primary (G)</text>
<polygon fill="none" stroke="black" points="378.25,-166.38 378.25,-191.62 431.25,-191.62 431.25,-166.38 378.25,-166.38"/>
<text text-anchor="start" x="385.25" y="-177.07" font-family="Times New Roman,serif" font-weight="bold" font-size="9.00">Technical</text>
<polygon fill="none" stroke="black" points="316,-165.38 316,-192.62 432.25,-192.62 432.25,-165.38 316,-165.38"/>
</g>
<!-- n_1_2_3_5_6&#45;&gt;n_1_5 -->
<g id="edge8" class="edge">
<title>n_1_2_3_5_6&#45;&gt;n_1_5</title>
<path fill="none" stroke="black" d="M314.25,-243.13C325.52,-231.24 339.05,-216.97 350.4,-205.01"/>
<polygon fill="black" stroke="black" points="352.83,-207.53 357.18,-197.87 347.75,-202.72 352.83,-207.53"/>
</g>
<!-- n_2_3 -->
<g id="node5" class="node">
<title>n_2_3</title>
<polygon fill="none" stroke="black" points="28.62,-84.38 28.62,-109.62 80.88,-109.62 80.88,-84.38 28.62,-84.38"/>
<text text-anchor="start" x="35.62" y="-95.08" font-family="Times New Roman,serif" font-weight="bold" font-size="9.00">Preschool</text>
<polygon fill="none" stroke="black" points="80.88,-84.38 80.88,-109.62 149.62,-109.62 149.62,-84.38 80.88,-84.38"/>
<text text-anchor="start" x="87.88" y="-95.08" font-family="Times New Roman,serif" font-weight="bold" font-size="9.00">Secondary (P)</text>
<polygon fill="none" stroke="black" points="27.62,-83.38 27.62,-110.62 150.62,-110.62 150.62,-83.38 27.62,-83.38"/>
</g>
<!-- n_2_3_6&#45;&gt;n_2_3 -->
<g id="edge4" class="edge">
<title>n_2_3_6&#45;&gt;n_2_3</title>
<path fill="none" stroke="black" d="M178.4,-158.02C161.67,-146.77 140.71,-132.68 123.31,-120.98"/>
<polygon fill="black" stroke="black" points="125.56,-118.28 115.31,-115.6 121.66,-124.09 125.56,-118.28"/>
</g>
<!-- n_6 -->
<g id="node8" class="node">
<title>n_6</title>
<polygon fill="none" stroke="black" points="196.88,-84.38 196.88,-109.62 251.38,-109.62 251.38,-84.38 196.88,-84.38"/>
<text text-anchor="start" x="203.88" y="-95.08" font-family="Times New Roman,serif" font-weight="bold" font-size="9.00">University</text>
<polygon fill="none" stroke="black" points="195.88,-83.38 195.88,-110.62 252.38,-110.62 252.38,-83.38 195.88,-83.38"/>
</g>
<!-- n_2_3_6&#45;&gt;n_6 -->
<g id="edge7" class="edge">
<title>n_2_3_6&#45;&gt;n_6</title>
<path fill="none" stroke="black" d="M212.08,-158.22C214.02,-148.54 216.38,-136.72 218.5,-126.11"/>
<polygon fill="black" stroke="black" points="221.93,-126.82 220.46,-116.33 215.07,-125.45 221.93,-126.82"/>
</g>
<!-- n_2 -->
<g id="node6" class="node">
<title>n_2</title>
<polygon fill="none" stroke="black" points="9,-5.38 9,-30.62 61.25,-30.62 61.25,-5.38 9,-5.38"/>
<text text-anchor="start" x="16" y="-16.07" font-family="Times New Roman,serif" font-weight="bold" font-size="9.00">Preschool</text>
<polygon fill="none" stroke="black" points="8,-4.38 8,-31.62 62.25,-31.62 62.25,-4.38 8,-4.38"/>
</g>
<!-- n_2_3&#45;&gt;n_2 -->
<g id="edge5" class="edge">
<title>n_2_3&#45;&gt;n_2</title>
<path fill="none" stroke="black" d="M77.41,-79.29C70.45,-69.37 61.47,-56.57 53.58,-45.32"/>
<polygon fill="black" stroke="black" points="56.48,-43.36 47.87,-37.18 50.75,-47.38 56.48,-43.36"/>
</g>
<!-- n_3 -->
<g id="node7" class="node">
<title>n_3</title>
<polygon fill="none" stroke="black" points="108.75,-5.38 108.75,-30.62 177.5,-30.62 177.5,-5.38 108.75,-5.38"/>
<text text-anchor="start" x="115.75" y="-16.07" font-family="Times New Roman,serif" font-weight="bold" font-size="9.00">Secondary (P)</text>
<polygon fill="none" stroke="black" points="107.75,-4.38 107.75,-31.62 178.5,-31.62 178.5,-4.38 107.75,-4.38"/>
</g>
<!-- n_2_3&#45;&gt;n_3 -->
<g id="edge6" class="edge">
<title>n_2_3&#45;&gt;n_3</title>
<path fill="none" stroke="black" d="M100.84,-79.29C107.8,-69.37 116.78,-56.57 124.67,-45.32"/>
<polygon fill="black" stroke="black" points="127.5,-47.38 130.38,-37.18 121.77,-43.36 127.5,-47.38"/>
</g>
<!-- n_1 -->
<g id="node10" class="node">
<title>n_1</title>
<polygon fill="none" stroke="black" points="328.5,-84.38 328.5,-109.62 389.75,-109.62 389.75,-84.38 328.5,-84.38"/>
<text text-anchor="start" x="335.5" y="-95.08" font-family="Times New Roman,serif" font-weight="bold" font-size="9.00">Primary (G)</text>
<polygon fill="none" stroke="black" points="327.5,-83.38 327.5,-110.62 390.75,-110.62 390.75,-83.38 327.5,-83.38"/>
</g>
<!-- n_1_5&#45;&gt;n_1 -->
<g id="edge9" class="edge">
<title>n_1_5&#45;&gt;n_1</title>
<path fill="none" stroke="black" d="M370.94,-161.03C369.03,-150.85 366.56,-137.65 364.37,-125.96"/>
<polygon fill="black" stroke="black" points="367.86,-125.61 362.58,-116.43 360.98,-126.9 367.86,-125.61"/>
</g>
<!-- n_5 -->
<g id="node11" class="node">
<title>n_5</title>
<polygon fill="none" stroke="black" points="436.62,-84.38 436.62,-109.62 489.62,-109.62 489.62,-84.38 436.62,-84.38"/>
<text text-anchor="start" x="443.62" y="-95.08" font-family="Times New Roman,serif" font-weight="bold" font-size="9.00">Technical</text>
<polygon fill="none" stroke="black" points="435.62,-83.38 435.62,-110.62 490.62,-110.62 490.62,-83.38 435.62,-83.38"/>
</g>
<!-- n_1_5&#45;&gt;n_5 -->
<g id="edge10" class="edge">
<title>n_1_5&#45;&gt;n_5</title>
<path fill="none" stroke="black" d="M393,-161.03C405.51,-149.79 422.11,-134.87 436.02,-122.36"/>
<polygon fill="black" stroke="black" points="438.05,-125.24 443.15,-115.95 433.38,-120.04 438.05,-125.24"/>
</g>
</g>
</svg>
