<?xml version="1.0" encoding="UTF-8" standalone="no"?>
<!DOCTYPE svg PUBLIC "-//W3C//DTD SVG 1.1//EN"
 "http://www.w3.org/Graphics/SVG/1.1/DTD/svg11.dtd">
<!-- Generated by graphviz version 10.0.1 (20240210.2158)
 -->
<!-- Title: ND Pages: 1 -->
<svg width="665pt" height="517pt"
 viewBox="0.00 0.00 665.00 517.00" xmlns="http://www.w3.org/2000/svg" xmlns:xlink="http://www.w3.org/1999/xlink">
<g id="graph0" class="graph" transform="scale(1 1) rotate(0) translate(4 513)">
<title>ND</title>
<polygon fill="white" stroke="none" points="-4,4 -4,-513 661,-513 661,4 -4,4"/>
<!-- n_0_1_2_3_4_5_6 -->
<g id="node1" class="node">
<title>n_0_1_2_3_4_5_6</title>
<polygon fill="none" stroke="black" points="359.12,-445 359.12,-504 420.38,-504 420.38,-445 359.12,-445"/>
<text text-anchor="start" x="366.88" y="-489.45" font-family="Times New Roman,serif" font-weight="bold" font-size="9.00">Primary (P)</text>
<text text-anchor="start" x="366.12" y="-480.45" font-family="Times New Roman,serif" font-weight="bold" font-size="9.00">Primary (G)</text>
<text text-anchor="start" x="370.62" y="-471.45" font-family="Times New Roman,serif" font-weight="bold" font-size="9.00">Preschool</text>
<text text-anchor="start" x="370.25" y="-462.45" font-family="Times New Roman,serif" font-weight="bold" font-size="9.00">Technical</text>
<text text-anchor="start" x="369.5" y="-453.45" font-family="Times New Roman,serif" font-weight="bold" font-size="9.00">University</text>
<polygon fill="none" stroke="black" points="420.38,-445 420.38,-504 490.62,-504 490.62,-445 420.38,-445"/>
<text text-anchor="start" x="428.12" y="-475.95" font-family="Times New Roman,serif" font-weight="bold" font-size="9.00">Secondary (P)</text>
<text text-anchor="start" x="427.38" y="-466.95" font-family="Times New Roman,serif" font-weight="bold" font-size="9.00">Secondary (G)</text>
<polygon fill="none" stroke="black" points="358.12,-444 358.12,-505 491.62,-505 491.62,-444 358.12,-444"/>
</g>
<!-- n_0_1_2_5_6 -->
<g id="node2" class="node">
<title>n_0_1_2_5_6</title>
<polygon fill="none" stroke="black" points="280.75,-342 280.75,-392 342,-392 342,-342 280.75,-342"/>
<text text-anchor="start" x="288.5" y="-377.45" font-family="Times New Roman,serif" font-weight="bold" font-size="9.00">Primary (P)</text>
<text text-anchor="start" x="287.75" y="-368.45" font-family="Times New Roman,serif" font-weight="bold" font-size="9.00">Primary (G)</text>
<text text-anchor="start" x="292.25" y="-359.45" font-family="Times New Roman,serif" font-weight="bold" font-size="9.00">Preschool</text>
<text text-anchor="start" x="291.12" y="-350.45" font-family="Times New Roman,serif" font-weight="bold" font-size="9.00">University</text>
<polygon fill="none" stroke="black" points="342,-342 342,-392 395,-392 395,-342 342,-342"/>
<text text-anchor="start" x="349" y="-365.07" font-family="Times New Roman,serif" font-weight="bold" font-size="9.00">Technical</text>
<polygon fill="none" stroke="black" points="279.75,-341 279.75,-393 396,-393 396,-341 279.75,-341"/>
</g>
<!-- n_0_1_2_3_4_5_6&#45;&gt;n_0_1_2_5_6 -->
<g id="edge1" class="edge">
<title>n_0_1_2_3_4_5_6&#45;&gt;n_0_1_2_5_6</title>
<path fill="none" stroke="black" d="M397.35,-440.12C388.31,-429.16 378.21,-416.91 368.93,-405.66"/>
<polygon fill="black" stroke="black" points="371.73,-403.55 362.67,-398.07 366.33,-408.01 371.73,-403.55"/>
</g>
<!-- n_3_4 -->
<g id="node11" class="node">
<title>n_3_4</title>
<polygon fill="none" stroke="black" points="442.38,-354.38 442.38,-379.62 511.12,-379.62 511.12,-354.38 442.38,-354.38"/>
<text text-anchor="start" x="449.38" y="-365.07" font-family="Times New Roman,serif" font-weight="bold" font-size="9.00">Secondary (P)</text>
<polygon fill="none" stroke="black" points="511.12,-354.38 511.12,-379.62 581.38,-379.62 581.38,-354.38 511.12,-354.38"/>
<text text-anchor="start" x="518.12" y="-365.07" font-family="Times New Roman,serif" font-weight="bold" font-size="9.00">Secondary (G)</text>
<polygon fill="none" stroke="black" points="441.38,-353.38 441.38,-380.62 582.38,-380.62 582.38,-353.38 441.38,-353.38"/>
</g>
<!-- n_0_1_2_3_4_5_6&#45;&gt;n_3_4 -->
<g id="edge10" class="edge">
<title>n_0_1_2_3_4_5_6&#45;&gt;n_3_4</title>
<path fill="none" stroke="black" d="M452.4,-440.12C464.82,-425.06 479.25,-407.57 490.78,-393.58"/>
<polygon fill="black" stroke="black" points="493.27,-396.06 496.93,-386.12 487.87,-391.61 493.27,-396.06"/>
</g>
<!-- n_0_1_2_6 -->
<g id="node3" class="node">
<title>n_0_1_2_6</title>
<polygon fill="none" stroke="black" points="168.12,-248 168.12,-289 229.38,-289 229.38,-248 168.12,-248"/>
<text text-anchor="start" x="175.88" y="-274.45" font-family="Times New Roman,serif" font-weight="bold" font-size="9.00">Primary (P)</text>
<text text-anchor="start" x="175.12" y="-265.45" font-family="Times New Roman,serif" font-weight="bold" font-size="9.00">Primary (G)</text>
<text text-anchor="start" x="178.5" y="-256.45" font-family="Times New Roman,serif" font-weight="bold" font-size="9.00">University</text>
<polygon fill="none" stroke="black" points="229.38,-248 229.38,-289 281.62,-289 281.62,-248 229.38,-248"/>
<text text-anchor="start" x="236.38" y="-266.57" font-family="Times New Roman,serif" font-weight="bold" font-size="9.00">Preschool</text>
<polygon fill="none" stroke="black" points="167.12,-247 167.12,-290 282.62,-290 282.62,-247 167.12,-247"/>
</g>
<!-- n_0_1_2_5_6&#45;&gt;n_0_1_2_6 -->
<g id="edge2" class="edge">
<title>n_0_1_2_5_6&#45;&gt;n_0_1_2_6</title>
<path fill="none" stroke="black" d="M303.97,-337.05C290.75,-325.75 275.54,-312.77 262.02,-301.22"/>
<polygon fill="black" stroke="black" points="264.45,-298.69 254.57,-294.86 259.9,-304.01 264.45,-298.69"/>
</g>
<!-- n_5 -->
<g id="node10" class="node">
<title>n_5</title>
<polygon fill="none" stroke="black" points="328.38,-255.88 328.38,-281.12 381.38,-281.12 381.38,-255.88 328.38,-255.88"/>
<text text-anchor="start" x="335.38" y="-266.57" font-family="Times New Roman,serif" font-weight="bold" font-size="9.00">Technical</text>
<polygon fill="none" stroke="black" points="327.38,-254.88 327.38,-282.12 382.38,-282.12 382.38,-254.88 327.38,-254.88"/>
</g>
<!-- n_0_1_2_5_6&#45;&gt;n_5 -->
<g id="edge9" class="edge">
<title>n_0_1_2_5_6&#45;&gt;n_5</title>
<path fill="none" stroke="black" d="M342.98,-337.05C345.18,-324.51 347.76,-309.89 349.95,-297.47"/>
<polygon fill="black" stroke="black" points="353.35,-298.31 351.64,-287.86 346.46,-297.1 353.35,-298.31"/>
</g>
<!-- n_0_1_6 -->
<g id="node4" class="node">
<title>n_0_1_6</title>
<polygon fill="none" stroke="black" points="102,-163 102,-195 163.25,-195 163.25,-163 102,-163"/>
<text text-anchor="start" x="109.75" y="-180.45" font-family="Times New Roman,serif" font-weight="bold" font-size="9.00">Primary (P)</text>
<text text-anchor="start" x="109" y="-171.45" font-family="Times New Roman,serif" font-weight="bold" font-size="9.00">Primary (G)</text>
<polygon fill="none" stroke="black" points="163.25,-163 163.25,-195 217.75,-195 217.75,-163 163.25,-163"/>
<text text-anchor="start" x="170.25" y="-177.07" font-family="Times New Roman,serif" font-weight="bold" font-size="9.00">University</text>
<polygon fill="none" stroke="black" points="101,-162 101,-196 218.75,-196 218.75,-162 101,-162"/>
</g>
<!-- n_0_1_2_6&#45;&gt;n_0_1_6 -->
<g id="edge3" class="edge">
<title>n_0_1_2_6&#45;&gt;n_0_1_6</title>
<path fill="none" stroke="black" d="M206.77,-243.13C198.85,-232.46 189.49,-219.87 181.23,-208.75"/>
<polygon fill="black" stroke="black" points="184.28,-206.98 175.51,-201.04 178.66,-211.16 184.28,-206.98"/>
</g>
<!-- n_2 -->
<g id="node9" class="node">
<title>n_2</title>
<polygon fill="none" stroke="black" points="264.75,-166.38 264.75,-191.62 317,-191.62 317,-166.38 264.75,-166.38"/>
<text text-anchor="start" x="271.75" y="-177.07" font-family="Times New Roman,serif" font-weight="bold" font-size="9.00">Preschool</text>
<polygon fill="none" stroke="black" points="263.75,-165.38 263.75,-192.62 318,-192.62 318,-165.38 263.75,-165.38"/>
</g>
<!-- n_0_1_2_6&#45;&gt;n_2 -->
<g id="edge8" class="edge">
<title>n_0_1_2_6&#45;&gt;n_2</title>
<path fill="none" stroke="black" d="M243.26,-243.13C252.05,-231.48 262.57,-217.53 271.48,-205.71"/>
<polygon fill="black" stroke="black" points="274.09,-208.07 277.31,-197.98 268.5,-203.85 274.09,-208.07"/>
</g>
<!-- n_0_1 -->
<g id="node5" class="node">
<title>n_0_1</title>
<polygon fill="none" stroke="black" points="32.38,-84.38 32.38,-109.62 92.12,-109.62 92.12,-84.38 32.38,-84.38"/>
<text text-anchor="start" x="39.38" y="-95.08" font-family="Times New Roman,serif" font-weight="bold" font-size="9.00">Primary (P)</text>
<polygon fill="none" stroke="black" points="92.12,-84.38 92.12,-109.62 153.38,-109.62 153.38,-84.38 92.12,-84.38"/>
<text text-anchor="start" x="99.12" y="-95.08" font-family="Times New Roman,serif" font-weight="bold" font-size="9.00">Primary (G)</text>
<polygon fill="none" stroke="black" points="31.38,-83.38 31.38,-110.62 154.38,-110.62 154.38,-83.38 31.38,-83.38"/>
</g>
<!-- n_0_1_6&#45;&gt;n_0_1 -->
<g id="edge4" class="edge">
<title>n_0_1_6&#45;&gt;n_0_1</title>
<path fill="none" stroke="black" d="M143.31,-158.22C134.51,-147.71 123.58,-134.66 114.15,-123.41"/>
<polygon fill="black" stroke="black" points="117.06,-121.42 107.95,-116 111.69,-125.92 117.06,-121.42"/>
</g>
<!-- n_6 -->
<g id="node8" class="node">
<title>n_6</title>
<polygon fill="none" stroke="black" points="200.62,-84.38 200.62,-109.62 255.12,-109.62 255.12,-84.38 200.62,-84.38"/>
<text text-anchor="start" x="207.62" y="-95.08" font-family="Times New Roman,serif" font-weight="bold" font-size="9.00">University</text>
<polygon fill="none" stroke="black" points="199.62,-83.38 199.62,-110.62 256.12,-110.62 256.12,-83.38 199.62,-83.38"/>
</g>
<!-- n_0_1_6&#45;&gt;n_6 -->
<g id="edge7" class="edge">
<title>n_0_1_6&#45;&gt;n_6</title>
<path fill="none" stroke="black" d="M176.68,-158.22C185.62,-147.71 196.71,-134.66 206.28,-123.41"/>
<polygon fill="black" stroke="black" points="208.77,-125.88 212.58,-116 203.43,-121.35 208.77,-125.88"/>
</g>
<!-- n_0 -->
<g id="node6" class="node">
<title>n_0</title>
<polygon fill="none" stroke="black" points="9,-5.38 9,-30.62 68.75,-30.62 68.75,-5.38 9,-5.38"/>
<text text-anchor="start" x="16" y="-16.07" font-family="Times New Roman,serif" font-weight="bold" font-size="9.00">Primary (P)</text>
<polygon fill="none" stroke="black" points="8,-4.38 8,-31.62 69.75,-31.62 69.75,-4.38 8,-4.38"/>
</g>
<!-- n_0_1&#45;&gt;n_0 -->
<g id="edge5" class="edge">
<title>n_0_1&#45;&gt;n_0</title>
<path fill="none" stroke="black" d="M81.16,-79.29C74.2,-69.37 65.22,-56.57 57.33,-45.32"/>
<polygon fill="black" stroke="black" points="60.23,-43.36 51.62,-37.18 54.5,-47.38 60.23,-43.36"/>
</g>
<!-- n_1 -->
<g id="node7" class="node">
<title>n_1</title>
<polygon fill="none" stroke="black" points="116.25,-5.38 116.25,-30.62 177.5,-30.62 177.5,-5.38 116.25,-5.38"/>
<text text-anchor="start" x="123.25" y="-16.07" font-family="Times New Roman,serif" font-weight="bold" font-size="9.00">Primary (G)</text>
<polygon fill="none" stroke="black" points="115.25,-4.38 115.25,-31.62 178.5,-31.62 178.5,-4.38 115.25,-4.38"/>
</g>
<!-- n_0_1&#45;&gt;n_1 -->
<g id="edge6" class="edge">
<title>n_0_1&#45;&gt;n_1</title>
<path fill="none" stroke="black" d="M104.59,-79.29C111.55,-69.37 120.53,-56.57 128.42,-45.32"/>
<polygon fill="black" stroke="black" points="131.25,-47.38 134.13,-37.18 125.52,-43.36 131.25,-47.38"/>
</g>
<!-- n_3 -->
<g id="node12" class="node">
<title>n_3</title>
<polygon fill="none" stroke="black" points="461.5,-255.88 461.5,-281.12 530.25,-281.12 530.25,-255.88 461.5,-255.88"/>
<text text-anchor="start" x="468.5" y="-266.57" font-family="Times New Roman,serif" font-weight="bold" font-size="9.00">Secondary (P)</text>
<polygon fill="none" stroke="black" points="460.5,-254.88 460.5,-282.12 531.25,-282.12 531.25,-254.88 460.5,-254.88"/>
</g>
<!-- n_3_4&#45;&gt;n_3 -->
<g id="edge11" class="edge">
<title>n_3_4&#45;&gt;n_3</title>
<path fill="none" stroke="black" d="M509.09,-349.19C506.74,-335.03 503.33,-314.46 500.56,-297.76"/>
<polygon fill="black" stroke="black" points="504.02,-297.23 498.93,-287.93 497.11,-298.37 504.02,-297.23"/>
</g>
<!-- n_4 -->
<g id="node13" class="node">
<title>n_4</title>
<polygon fill="none" stroke="black" points="577.75,-255.88 577.75,-281.12 648,-281.12 648,-255.88 577.75,-255.88"/>
<text text-anchor="start" x="584.75" y="-266.57" font-family="Times New Roman,serif" font-weight="bold" font-size="9.00">Secondary (G)</text>
<polygon fill="none" stroke="black" points="576.75,-254.88 576.75,-282.12 649,-282.12 649,-254.88 576.75,-254.88"/>
</g>
<!-- n_3_4&#45;&gt;n_4 -->
<g id="edge12" class="edge">
<title>n_3_4&#45;&gt;n_4</title>
<path fill="none" stroke="black" d="M529.47,-349.19C545.45,-333.93 569.21,-311.22 587.29,-293.95"/>
<polygon fill="black" stroke="black" points="589.24,-296.92 594.05,-287.49 584.4,-291.86 589.24,-296.92"/>
</g>
</g>
</svg>
