<?xml version="1.0" encoding="UTF-8" standalone="no"?>
<!DOCTYPE svg PUBLIC "-//W3C//DTD SVG 1.1//EN"
 "http://www.w3.org/Graphics/SVG/1.1/DTD/svg11.dtd">
<!-- Generated by graphviz version 10.0.1 (20240210.2158)
 -->
<!-- Title: ND Pages: 1 -->
<svg width="658pt" height="517pt"
 viewBox="0.00 0.00 658.00 517.00" xmlns="http://www.w3.org/2000/svg" xmlns:xlink="http://www.w3.org/1999/xlink">
<g id="graph0" class="graph" transform="scale(1 1) rotate(0) translate(4 513)">
<title>ND</title>
<polygon fill="white" stroke="none" points="-4,4 -4,-513 654,-513 654,4 -4,4"/>
<!-- n_0_1_2_3_4_5_6 -->
<g id="node1" class="node">
<title>n_0_1_2_3_4_5_6</title>
<polygon fill="none" stroke="black" points="377.12,-445 377.12,-504 447.38,-504 447.38,-445 377.12,-445"/>
<text text-anchor="start" x="389.38" y="-489.45" font-family="Times New Roman,serif" font-weight="bold" font-size="9.00">Primary (P)</text>
<text text-anchor="start" x="384.88" y="-480.45" font-family="Times New Roman,serif" font-weight="bold" font-size="9.00">Secondary (P)</text>
<text text-anchor="start" x="384.12" y="-471.45" font-family="Times New Roman,serif" font-weight="bold" font-size="9.00">Secondary (G)</text>
<text text-anchor="start" x="392.75" y="-462.45" font-family="Times New Roman,serif" font-weight="bold" font-size="9.00">Technical</text>
<text text-anchor="start" x="392" y="-453.45" font-family="Times New Roman,serif" font-weight="bold" font-size="9.00">University</text>
<polygon fill="none" stroke="black" points="447.38,-445 447.38,-504 508.62,-504 508.62,-445 447.38,-445"/>
<text text-anchor="start" x="454.38" y="-475.95" font-family="Times New Roman,serif" font-weight="bold" font-size="9.00">Primary (G)</text>
<text text-anchor="start" x="458.88" y="-466.95" font-family="Times New Roman,serif" font-weight="bold" font-size="9.00">Preschool</text>
<polygon fill="none" stroke="black" points="376.12,-444 376.12,-505 509.62,-505 509.62,-444 376.12,-444"/>
</g>
<!-- n_0_3_4_5_6 -->
<g id="node2" class="node">
<title>n_0_3_4_5_6</title>
<polygon fill="none" stroke="black" points="297.5,-342 297.5,-392 367.75,-392 367.75,-342 297.5,-342"/>
<text text-anchor="start" x="309.75" y="-377.45" font-family="Times New Roman,serif" font-weight="bold" font-size="9.00">Primary (P)</text>
<text text-anchor="start" x="305.25" y="-368.45" font-family="Times New Roman,serif" font-weight="bold" font-size="9.00">Secondary (P)</text>
<text text-anchor="start" x="304.5" y="-359.45" font-family="Times New Roman,serif" font-weight="bold" font-size="9.00">Secondary (G)</text>
<text text-anchor="start" x="313.12" y="-350.45" font-family="Times New Roman,serif" font-weight="bold" font-size="9.00">Technical</text>
<polygon fill="none" stroke="black" points="367.75,-342 367.75,-392 422.25,-392 422.25,-342 367.75,-342"/>
<text text-anchor="start" x="374.75" y="-365.07" font-family="Times New Roman,serif" font-weight="bold" font-size="9.00">University</text>
<polygon fill="none" stroke="black" points="296.5,-341 296.5,-393 423.25,-393 423.25,-341 296.5,-341"/>
</g>
<!-- n_0_1_2_3_4_5_6&#45;&gt;n_0_3_4_5_6 -->
<g id="edge1" class="edge">
<title>n_0_1_2_3_4_5_6&#45;&gt;n_0_3_4_5_6</title>
<path fill="none" stroke="black" d="M416.61,-440.12C407.99,-429.16 398.36,-416.91 389.51,-405.66"/>
<polygon fill="black" stroke="black" points="392.48,-403.78 383.55,-398.09 386.98,-408.11 392.48,-403.78"/>
</g>
<!-- n_1_2 -->
<g id="node11" class="node">
<title>n_1_2</title>
<polygon fill="none" stroke="black" points="469.12,-354.38 469.12,-379.62 530.38,-379.62 530.38,-354.38 469.12,-354.38"/>
<text text-anchor="start" x="476.12" y="-365.07" font-family="Times New Roman,serif" font-weight="bold" font-size="9.00">Primary (G)</text>
<polygon fill="none" stroke="black" points="530.38,-354.38 530.38,-379.62 582.62,-379.62 582.62,-354.38 530.38,-354.38"/>
<text text-anchor="start" x="537.38" y="-365.07" font-family="Times New Roman,serif" font-weight="bold" font-size="9.00">Preschool</text>
<polygon fill="none" stroke="black" points="468.12,-353.38 468.12,-380.62 583.62,-380.62 583.62,-353.38 468.12,-353.38"/>
</g>
<!-- n_0_1_2_3_4_5_6&#45;&gt;n_1_2 -->
<g id="edge10" class="edge">
<title>n_0_1_2_3_4_5_6&#45;&gt;n_1_2</title>
<path fill="none" stroke="black" d="M469.14,-440.12C480.87,-425.21 494.48,-407.9 505.44,-393.98"/>
<polygon fill="black" stroke="black" points="508.17,-396.16 511.6,-386.14 502.67,-391.84 508.17,-396.16"/>
</g>
<!-- n_0_3_4_5 -->
<g id="node3" class="node">
<title>n_0_3_4_5</title>
<polygon fill="none" stroke="black" points="162.38,-248 162.38,-289 232.62,-289 232.62,-248 162.38,-248"/>
<text text-anchor="start" x="174.62" y="-274.45" font-family="Times New Roman,serif" font-weight="bold" font-size="9.00">Primary (P)</text>
<text text-anchor="start" x="169.38" y="-265.45" font-family="Times New Roman,serif" font-weight="bold" font-size="9.00">Secondary (G)</text>
<text text-anchor="start" x="178" y="-256.45" font-family="Times New Roman,serif" font-weight="bold" font-size="9.00">Technical</text>
<polygon fill="none" stroke="black" points="232.62,-248 232.62,-289 301.38,-289 301.38,-248 232.62,-248"/>
<text text-anchor="start" x="239.62" y="-266.57" font-family="Times New Roman,serif" font-weight="bold" font-size="9.00">Secondary (P)</text>
<polygon fill="none" stroke="black" points="161.38,-247 161.38,-290 302.38,-290 302.38,-247 161.38,-247"/>
</g>
<!-- n_0_3_4_5_6&#45;&gt;n_0_3_4_5 -->
<g id="edge2" class="edge">
<title>n_0_3_4_5_6&#45;&gt;n_0_3_4_5</title>
<path fill="none" stroke="black" d="M321.47,-337.05C306.2,-325.54 288.61,-312.27 273.08,-300.56"/>
<polygon fill="black" stroke="black" points="275.51,-298.01 265.41,-294.79 271.29,-303.6 275.51,-298.01"/>
</g>
<!-- n_6 -->
<g id="node10" class="node">
<title>n_6</title>
<polygon fill="none" stroke="black" points="348.62,-255.88 348.62,-281.12 403.12,-281.12 403.12,-255.88 348.62,-255.88"/>
<text text-anchor="start" x="355.62" y="-266.57" font-family="Times New Roman,serif" font-weight="bold" font-size="9.00">University</text>
<polygon fill="none" stroke="black" points="347.62,-254.88 347.62,-282.12 404.12,-282.12 404.12,-254.88 347.62,-254.88"/>
</g>
<!-- n_0_3_4_5_6&#45;&gt;n_6 -->
<g id="edge9" class="edge">
<title>n_0_3_4_5_6&#45;&gt;n_6</title>
<path fill="none" stroke="black" d="M364.68,-337.05C366.75,-324.51 369.18,-309.89 371.24,-297.47"/>
<polygon fill="black" stroke="black" points="374.65,-298.3 372.83,-287.86 367.74,-297.15 374.65,-298.3"/>
</g>
<!-- n_0_4_5 -->
<g id="node4" class="node">
<title>n_0_4_5</title>
<polygon fill="none" stroke="black" points="93.88,-163 93.88,-195 153.62,-195 153.62,-163 93.88,-163"/>
<text text-anchor="start" x="100.88" y="-180.45" font-family="Times New Roman,serif" font-weight="bold" font-size="9.00">Primary (P)</text>
<text text-anchor="start" x="104.25" y="-171.45" font-family="Times New Roman,serif" font-weight="bold" font-size="9.00">Technical</text>
<polygon fill="none" stroke="black" points="153.62,-163 153.62,-195 223.88,-195 223.88,-163 153.62,-163"/>
<text text-anchor="start" x="160.62" y="-177.07" font-family="Times New Roman,serif" font-weight="bold" font-size="9.00">Secondary (G)</text>
<polygon fill="none" stroke="black" points="92.88,-162 92.88,-196 224.88,-196 224.88,-162 92.88,-162"/>
</g>
<!-- n_0_3_4_5&#45;&gt;n_0_4_5 -->
<g id="edge3" class="edge">
<title>n_0_3_4_5&#45;&gt;n_0_4_5</title>
<path fill="none" stroke="black" d="M211.54,-243.13C202.55,-232.35 191.93,-219.62 182.58,-208.41"/>
<polygon fill="black" stroke="black" points="185.48,-206.42 176.39,-200.99 180.1,-210.91 185.48,-206.42"/>
</g>
<!-- n_3 -->
<g id="node9" class="node">
<title>n_3</title>
<polygon fill="none" stroke="black" points="270.5,-166.38 270.5,-191.62 339.25,-191.62 339.25,-166.38 270.5,-166.38"/>
<text text-anchor="start" x="277.5" y="-177.07" font-family="Times New Roman,serif" font-weight="bold" font-size="9.00">Secondary (P)</text>
<polygon fill="none" stroke="black" points="269.5,-165.38 269.5,-192.62 340.25,-192.62 340.25,-165.38 269.5,-165.38"/>
</g>
<!-- n_0_3_4_5&#45;&gt;n_3 -->
<g id="edge8" class="edge">
<title>n_0_3_4_5&#45;&gt;n_3</title>
<path fill="none" stroke="black" d="M252.21,-243.13C262.03,-231.36 273.8,-217.25 283.72,-205.36"/>
<polygon fill="black" stroke="black" points="286.2,-207.85 289.91,-197.93 280.82,-203.37 286.2,-207.85"/>
</g>
<!-- n_0_5 -->
<g id="node5" class="node">
<title>n_0_5</title>
<polygon fill="none" stroke="black" points="33.5,-84.38 33.5,-109.62 93.25,-109.62 93.25,-84.38 33.5,-84.38"/>
<text text-anchor="start" x="40.5" y="-95.08" font-family="Times New Roman,serif" font-weight="bold" font-size="9.00">Primary (P)</text>
<polygon fill="none" stroke="black" points="93.25,-84.38 93.25,-109.62 146.25,-109.62 146.25,-84.38 93.25,-84.38"/>
<text text-anchor="start" x="100.25" y="-95.08" font-family="Times New Roman,serif" font-weight="bold" font-size="9.00">Technical</text>
<polygon fill="none" stroke="black" points="32.5,-83.38 32.5,-110.62 147.25,-110.62 147.25,-83.38 32.5,-83.38"/>
</g>
<!-- n_0_4_5&#45;&gt;n_0_5 -->
<g id="edge4" class="edge">
<title>n_0_4_5&#45;&gt;n_0_5</title>
<path fill="none" stroke="black" d="M141.82,-158.22C132.75,-147.71 121.5,-134.66 111.79,-123.41"/>
<polygon fill="black" stroke="black" points="114.57,-121.28 105.39,-115.99 109.27,-125.85 114.57,-121.28"/>
</g>
<!-- n_4 -->
<g id="node8" class="node">
<title>n_4</title>
<polygon fill="none" stroke="black" points="193.75,-84.38 193.75,-109.62 264,-109.62 264,-84.38 193.75,-84.38"/>
<text text-anchor="start" x="200.75" y="-95.08" font-family="Times New Roman,serif" font-weight="bold" font-size="9.00">Secondary (G)</text>
<polygon fill="none" stroke="black" points="192.75,-83.38 192.75,-110.62 265,-110.62 265,-83.38 192.75,-83.38"/>
</g>
<!-- n_0_4_5&#45;&gt;n_4 -->
<g id="edge7" class="edge">
<title>n_0_4_5&#45;&gt;n_4</title>
<path fill="none" stroke="black" d="M176.18,-158.22C185.38,-147.71 196.79,-134.66 206.64,-123.41"/>
<polygon fill="black" stroke="black" points="209.19,-125.81 213.14,-115.98 203.92,-121.2 209.19,-125.81"/>
</g>
<!-- n_0 -->
<g id="node6" class="node">
<title>n_0</title>
<polygon fill="none" stroke="black" points="9,-5.38 9,-30.62 68.75,-30.62 68.75,-5.38 9,-5.38"/>
<text text-anchor="start" x="16" y="-16.07" font-family="Times New Roman,serif" font-weight="bold" font-size="9.00">Primary (P)</text>
<polygon fill="none" stroke="black" points="8,-4.38 8,-31.62 69.75,-31.62 69.75,-4.38 8,-4.38"/>
</g>
<!-- n_0_5&#45;&gt;n_0 -->
<g id="edge5" class="edge">
<title>n_0_5&#45;&gt;n_0</title>
<path fill="none" stroke="black" d="M78.81,-79.29C72.24,-69.37 63.76,-56.57 56.31,-45.32"/>
<polygon fill="black" stroke="black" points="59.37,-43.61 50.93,-37.2 53.54,-47.47 59.37,-43.61"/>
</g>
<!-- n_5 -->
<g id="node7" class="node">
<title>n_5</title>
<polygon fill="none" stroke="black" points="115.38,-5.38 115.38,-30.62 168.38,-30.62 168.38,-5.38 115.38,-5.38"/>
<text text-anchor="start" x="122.38" y="-16.07" font-family="Times New Roman,serif" font-weight="bold" font-size="9.00">Technical</text>
<polygon fill="none" stroke="black" points="114.38,-4.38 114.38,-31.62 169.38,-31.62 169.38,-4.38 114.38,-4.38"/>
</g>
<!-- n_0_5&#45;&gt;n_5 -->
<g id="edge6" class="edge">
<title>n_0_5&#45;&gt;n_5</title>
<path fill="none" stroke="black" d="M101.16,-79.29C107.86,-69.37 116.5,-56.57 124.1,-45.32"/>
<polygon fill="black" stroke="black" points="126.89,-47.44 129.59,-37.2 121.09,-43.52 126.89,-47.44"/>
</g>
<!-- n_1 -->
<g id="node12" class="node">
<title>n_1</title>
<polygon fill="none" stroke="black" points="480.25,-255.88 480.25,-281.12 541.5,-281.12 541.5,-255.88 480.25,-255.88"/>
<text text-anchor="start" x="487.25" y="-266.57" font-family="Times New Roman,serif" font-weight="bold" font-size="9.00">Primary (G)</text>
<polygon fill="none" stroke="black" points="479.25,-254.88 479.25,-282.12 542.5,-282.12 542.5,-254.88 479.25,-254.88"/>
</g>
<!-- n_1_2&#45;&gt;n_1 -->
<g id="edge11" class="edge">
<title>n_1_2&#45;&gt;n_1</title>
<path fill="none" stroke="black" d="M523.26,-349.19C521.06,-335.03 517.86,-314.46 515.27,-297.76"/>
<polygon fill="black" stroke="black" points="518.74,-297.28 513.74,-287.94 511.82,-298.35 518.74,-297.28"/>
</g>
<!-- n_2 -->
<g id="node13" class="node">
<title>n_2</title>
<polygon fill="none" stroke="black" points="588.75,-255.88 588.75,-281.12 641,-281.12 641,-255.88 588.75,-255.88"/>
<text text-anchor="start" x="595.75" y="-266.57" font-family="Times New Roman,serif" font-weight="bold" font-size="9.00">Preschool</text>
<polygon fill="none" stroke="black" points="587.75,-254.88 587.75,-282.12 642,-282.12 642,-254.88 587.75,-254.88"/>
</g>
<!-- n_1_2&#45;&gt;n_2 -->
<g id="edge12" class="edge">
<title>n_1_2&#45;&gt;n_2</title>
<path fill="none" stroke="black" d="M541.38,-349.19C555.2,-334.2 575.64,-312.04 591.46,-294.89"/>
<polygon fill="black" stroke="black" points="594.02,-297.28 598.23,-287.55 588.87,-292.53 594.02,-297.28"/>
</g>
</g>
</svg>
