<?xml version="1.0" encoding="UTF-8" standalone="no"?>
<!DOCTYPE svg PUBLIC "-//W3C//DTD SVG 1.1//EN"
 "http://www.w3.org/Graphics/SVG/1.1/DTD/svg11.dtd">
<!-- Generated by graphviz version 10.0.1 (20240210.2158)
 -->
<!-- Title: ND Pages: 1 -->
<svg width="608pt" height="405pt"
 viewBox="0.00 0.00 607.75 405.00" xmlns="http://www.w3.org/2000/svg" xmlns:xlink="http://www.w3.org/1999/xlink">
<g id="graph0" class="graph" transform="scale(1 1) rotate(0) translate(4 401)">
<title>ND</title>
<polygon fill="white" stroke="none" points="-4,4 -4,-401 603.75,-401 603.75,4 -4,4"/>
<!-- n_0_1_2_3_4_5_6 -->
<g id="node1" class="node">
<title>n_0_1_2_3_4_5_6</title>
<polygon fill="none" stroke="black" points="275.12,-342 275.12,-392 343.88,-392 343.88,-342 275.12,-342"/>
<text text-anchor="start" x="286.62" y="-377.45" font-family="Times New Roman,serif" font-weight="bold" font-size="9.00">Primary (P)</text>
<text text-anchor="start" x="285.88" y="-368.45" font-family="Times New Roman,serif" font-weight="bold" font-size="9.00">Primary (G)</text>
<text text-anchor="start" x="290.38" y="-359.45" font-family="Times New Roman,serif" font-weight="bold" font-size="9.00">Preschool</text>
<text text-anchor="start" x="282.12" y="-350.45" font-family="Times New Roman,serif" font-weight="bold" font-size="9.00">Secondary (P)</text>
<polygon fill="none" stroke="black" points="343.88,-342 343.88,-392 414.12,-392 414.12,-342 343.88,-342"/>
<text text-anchor="start" x="350.88" y="-372.95" font-family="Times New Roman,serif" font-weight="bold" font-size="9.00">Secondary (G)</text>
<text text-anchor="start" x="359.5" y="-363.95" font-family="Times New Roman,serif" font-weight="bold" font-size="9.00">Technical</text>
<text text-anchor="start" x="358.75" y="-354.95" font-family="Times New Roman,serif" font-weight="bold" font-size="9.00">University</text>
<polygon fill="none" stroke="black" points="274.12,-341 274.12,-393 415.12,-393 415.12,-341 274.12,-341"/>
</g>
<!-- n_0_1_2_3 -->
<g id="node2" class="node">
<title>n_0_1_2_3</title>
<polygon fill="none" stroke="black" points="193.38,-248 193.38,-289 262.12,-289 262.12,-248 193.38,-248"/>
<text text-anchor="start" x="204.12" y="-274.45" font-family="Times New Roman,serif" font-weight="bold" font-size="9.00">Primary (G)</text>
<text text-anchor="start" x="208.62" y="-265.45" font-family="Times New Roman,serif" font-weight="bold" font-size="9.00">Preschool</text>
<text text-anchor="start" x="200.38" y="-256.45" font-family="Times New Roman,serif" font-weight="bold" font-size="9.00">Secondary (P)</text>
<polygon fill="none" stroke="black" points="262.12,-248 262.12,-289 321.88,-289 321.88,-248 262.12,-248"/>
<text text-anchor="start" x="269.12" y="-266.57" font-family="Times New Roman,serif" font-weight="bold" font-size="9.00">Primary (P)</text>
<polygon fill="none" stroke="black" points="192.38,-247 192.38,-290 322.88,-290 322.88,-247 192.38,-247"/>
</g>
<!-- n_0_1_2_3_4_5_6&#45;&gt;n_0_1_2_3 -->
<g id="edge1" class="edge">
<title>n_0_1_2_3_4_5_6&#45;&gt;n_0_1_2_3</title>
<path fill="none" stroke="black" d="M318.52,-337.05C308.63,-326.08 297.3,-313.51 287.12,-302.22"/>
<polygon fill="black" stroke="black" points="289.91,-300.08 280.61,-295 284.71,-304.77 289.91,-300.08"/>
</g>
<!-- n_4_5_6 -->
<g id="node9" class="node">
<title>n_4_5_6</title>
<polygon fill="none" stroke="black" points="369.25,-252.5 369.25,-284.5 423.75,-284.5 423.75,-252.5 369.25,-252.5"/>
<text text-anchor="start" x="377" y="-269.95" font-family="Times New Roman,serif" font-weight="bold" font-size="9.00">Technical</text>
<text text-anchor="start" x="376.25" y="-260.95" font-family="Times New Roman,serif" font-weight="bold" font-size="9.00">University</text>
<polygon fill="none" stroke="black" points="423.75,-252.5 423.75,-284.5 494,-284.5 494,-252.5 423.75,-252.5"/>
<text text-anchor="start" x="430.75" y="-266.57" font-family="Times New Roman,serif" font-weight="bold" font-size="9.00">Secondary (G)</text>
<polygon fill="none" stroke="black" points="368.25,-251.5 368.25,-285.5 495,-285.5 495,-251.5 368.25,-251.5"/>
</g>
<!-- n_0_1_2_3_4_5_6&#45;&gt;n_4_5_6 -->
<g id="edge8" class="edge">
<title>n_0_1_2_3_4_5_6&#45;&gt;n_4_5_6</title>
<path fill="none" stroke="black" d="M370.73,-337.05C382.03,-324.51 395.22,-309.89 406.42,-297.46"/>
<polygon fill="black" stroke="black" points="408.7,-300.15 412.8,-290.38 403.5,-295.47 408.7,-300.15"/>
</g>
<!-- n_1_2_3 -->
<g id="node3" class="node">
<title>n_1_2_3</title>
<polygon fill="none" stroke="black" points="63.62,-163 63.62,-195 124.88,-195 124.88,-163 63.62,-163"/>
<text text-anchor="start" x="70.62" y="-180.45" font-family="Times New Roman,serif" font-weight="bold" font-size="9.00">Primary (G)</text>
<text text-anchor="start" x="75.12" y="-171.45" font-family="Times New Roman,serif" font-weight="bold" font-size="9.00">Preschool</text>
<polygon fill="none" stroke="black" points="124.88,-163 124.88,-195 193.62,-195 193.62,-163 124.88,-163"/>
<text text-anchor="start" x="131.88" y="-177.07" font-family="Times New Roman,serif" font-weight="bold" font-size="9.00">Secondary (P)</text>
<polygon fill="none" stroke="black" points="62.62,-162 62.62,-196 194.62,-196 194.62,-162 62.62,-162"/>
</g>
<!-- n_0_1_2_3&#45;&gt;n_1_2_3 -->
<g id="edge2" class="edge">
<title>n_0_1_2_3&#45;&gt;n_1_2_3</title>
<path fill="none" stroke="black" d="M221.69,-243.13C204.71,-231.61 184.41,-217.84 167.12,-206.11"/>
<polygon fill="black" stroke="black" points="169.35,-203.39 159.11,-200.68 165.42,-209.19 169.35,-203.39"/>
</g>
<!-- n_0 -->
<g id="node8" class="node">
<title>n_0</title>
<polygon fill="none" stroke="black" points="240.75,-166.38 240.75,-191.62 300.5,-191.62 300.5,-166.38 240.75,-166.38"/>
<text text-anchor="start" x="247.75" y="-177.07" font-family="Times New Roman,serif" font-weight="bold" font-size="9.00">Primary (P)</text>
<polygon fill="none" stroke="black" points="239.75,-165.38 239.75,-192.62 301.5,-192.62 301.5,-165.38 239.75,-165.38"/>
</g>
<!-- n_0_1_2_3&#45;&gt;n_0 -->
<g id="edge7" class="edge">
<title>n_0_1_2_3&#45;&gt;n_0</title>
<path fill="none" stroke="black" d="M261.25,-243.13C262.87,-232.17 264.8,-219.18 266.49,-207.84"/>
<polygon fill="black" stroke="black" points="269.9,-208.67 267.91,-198.27 262.98,-207.64 269.9,-208.67"/>
</g>
<!-- n_1_2 -->
<g id="node4" class="node">
<title>n_1_2</title>
<polygon fill="none" stroke="black" points="34.88,-84.38 34.88,-109.62 96.12,-109.62 96.12,-84.38 34.88,-84.38"/>
<text text-anchor="start" x="41.88" y="-95.08" font-family="Times New Roman,serif" font-weight="bold" font-size="9.00">Primary (G)</text>
<polygon fill="none" stroke="black" points="96.12,-84.38 96.12,-109.62 148.38,-109.62 148.38,-84.38 96.12,-84.38"/>
<text text-anchor="start" x="103.12" y="-95.08" font-family="Times New Roman,serif" font-weight="bold" font-size="9.00">Preschool</text>
<polygon fill="none" stroke="black" points="33.88,-83.38 33.88,-110.62 149.38,-110.62 149.38,-83.38 33.88,-83.38"/>
</g>
<!-- n_1_2_3&#45;&gt;n_1_2 -->
<g id="edge3" class="edge">
<title>n_1_2_3&#45;&gt;n_1_2</title>
<path fill="none" stroke="black" d="M119.48,-158.22C114.86,-148.23 109.18,-135.95 104.15,-125.09"/>
<polygon fill="black" stroke="black" points="107.43,-123.82 100.05,-116.22 101.07,-126.76 107.43,-123.82"/>
</g>
<!-- n_3 -->
<g id="node7" class="node">
<title>n_3</title>
<polygon fill="none" stroke="black" points="195.25,-84.38 195.25,-109.62 264,-109.62 264,-84.38 195.25,-84.38"/>
<text text-anchor="start" x="202.25" y="-95.08" font-family="Times New Roman,serif" font-weight="bold" font-size="9.00">Secondary (P)</text>
<polygon fill="none" stroke="black" points="194.25,-83.38 194.25,-110.62 265,-110.62 265,-83.38 194.25,-83.38"/>
</g>
<!-- n_1_2_3&#45;&gt;n_3 -->
<g id="edge6" class="edge">
<title>n_1_2_3&#45;&gt;n_3</title>
<path fill="none" stroke="black" d="M153.85,-158.02C167.79,-146.98 185.18,-133.2 199.79,-121.63"/>
<polygon fill="black" stroke="black" points="201.62,-124.65 207.28,-115.7 197.27,-119.16 201.62,-124.65"/>
</g>
<!-- n_1 -->
<g id="node5" class="node">
<title>n_1</title>
<polygon fill="none" stroke="black" points="9,-5.38 9,-30.62 70.25,-30.62 70.25,-5.38 9,-5.38"/>
<text text-anchor="start" x="16" y="-16.07" font-family="Times New Roman,serif" font-weight="bold" font-size="9.00">Primary (G)</text>
<polygon fill="none" stroke="black" points="8,-4.38 8,-31.62 71.25,-31.62 71.25,-4.38 8,-4.38"/>
</g>
<!-- n_1_2&#45;&gt;n_1 -->
<g id="edge4" class="edge">
<title>n_1_2&#45;&gt;n_1</title>
<path fill="none" stroke="black" d="M80.34,-79.29C73.64,-69.37 65,-56.57 57.4,-45.32"/>
<polygon fill="black" stroke="black" points="60.41,-43.52 51.91,-37.2 54.61,-47.44 60.41,-43.52"/>
</g>
<!-- n_2 -->
<g id="node6" class="node">
<title>n_2</title>
<polygon fill="none" stroke="black" points="117.5,-5.38 117.5,-30.62 169.75,-30.62 169.75,-5.38 117.5,-5.38"/>
<text text-anchor="start" x="124.5" y="-16.07" font-family="Times New Roman,serif" font-weight="bold" font-size="9.00">Preschool</text>
<polygon fill="none" stroke="black" points="116.5,-4.38 116.5,-31.62 170.75,-31.62 170.75,-4.38 116.5,-4.38"/>
</g>
<!-- n_1_2&#45;&gt;n_2 -->
<g id="edge5" class="edge">
<title>n_1_2&#45;&gt;n_2</title>
<path fill="none" stroke="black" d="M102.91,-79.29C109.61,-69.37 118.25,-56.57 125.85,-45.32"/>
<polygon fill="black" stroke="black" points="128.64,-47.44 131.34,-37.2 122.84,-43.52 128.64,-47.44"/>
</g>
<!-- n_5_6 -->
<g id="node10" class="node">
<title>n_5_6</title>
<polygon fill="none" stroke="black" points="365.88,-166.38 365.88,-191.62 418.88,-191.62 418.88,-166.38 365.88,-166.38"/>
<text text-anchor="start" x="372.88" y="-177.07" font-family="Times New Roman,serif" font-weight="bold" font-size="9.00">Technical</text>
<polygon fill="none" stroke="black" points="418.88,-166.38 418.88,-191.62 473.38,-191.62 473.38,-166.38 418.88,-166.38"/>
<text text-anchor="start" x="425.88" y="-177.07" font-family="Times New Roman,serif" font-weight="bold" font-size="9.00">University</text>
<polygon fill="none" stroke="black" points="364.88,-165.38 364.88,-192.62 474.38,-192.62 474.38,-165.38 364.88,-165.38"/>
</g>
<!-- n_4_5_6&#45;&gt;n_5_6 -->
<g id="edge9" class="edge">
<title>n_4_5_6&#45;&gt;n_5_6</title>
<path fill="none" stroke="black" d="M428.9,-247.64C427.29,-235.91 425.23,-220.86 423.46,-207.94"/>
<polygon fill="black" stroke="black" points="426.97,-207.76 422.14,-198.33 420.03,-208.71 426.97,-207.76"/>
</g>
<!-- n_4 -->
<g id="node13" class="node">
<title>n_4</title>
<polygon fill="none" stroke="black" points="520.5,-166.38 520.5,-191.62 590.75,-191.62 590.75,-166.38 520.5,-166.38"/>
<text text-anchor="start" x="527.5" y="-177.07" font-family="Times New Roman,serif" font-weight="bold" font-size="9.00">Secondary (G)</text>
<polygon fill="none" stroke="black" points="519.5,-165.38 519.5,-192.62 591.75,-192.62 591.75,-165.38 519.5,-165.38"/>
</g>
<!-- n_4_5_6&#45;&gt;n_4 -->
<g id="edge12" class="edge">
<title>n_4_5_6&#45;&gt;n_4</title>
<path fill="none" stroke="black" d="M459.76,-247.64C478.43,-234.47 503.01,-217.13 522.6,-203.3"/>
<polygon fill="black" stroke="black" points="524.38,-206.33 530.53,-197.7 520.35,-200.61 524.38,-206.33"/>
</g>
<!-- n_5 -->
<g id="node11" class="node">
<title>n_5</title>
<polygon fill="none" stroke="black" points="352.12,-84.38 352.12,-109.62 405.12,-109.62 405.12,-84.38 352.12,-84.38"/>
<text text-anchor="start" x="359.12" y="-95.08" font-family="Times New Roman,serif" font-weight="bold" font-size="9.00">Technical</text>
<polygon fill="none" stroke="black" points="351.12,-83.38 351.12,-110.62 406.12,-110.62 406.12,-83.38 351.12,-83.38"/>
</g>
<!-- n_5_6&#45;&gt;n_5 -->
<g id="edge10" class="edge">
<title>n_5_6&#45;&gt;n_5</title>
<path fill="none" stroke="black" d="M410.93,-161.03C405.55,-150.53 398.52,-136.82 392.39,-124.87"/>
<polygon fill="black" stroke="black" points="395.67,-123.59 388,-116.29 389.44,-126.78 395.67,-123.59"/>
</g>
<!-- n_6 -->
<g id="node12" class="node">
<title>n_6</title>
<polygon fill="none" stroke="black" points="452.38,-84.38 452.38,-109.62 506.88,-109.62 506.88,-84.38 452.38,-84.38"/>
<text text-anchor="start" x="459.38" y="-95.08" font-family="Times New Roman,serif" font-weight="bold" font-size="9.00">University</text>
<polygon fill="none" stroke="black" points="451.38,-83.38 451.38,-110.62 507.88,-110.62 507.88,-83.38 451.38,-83.38"/>
</g>
<!-- n_5_6&#45;&gt;n_6 -->
<g id="edge11" class="edge">
<title>n_5_6&#45;&gt;n_6</title>
<path fill="none" stroke="black" d="M432.35,-161.03C440.38,-150.32 450.93,-136.27 460.02,-124.15"/>
<polygon fill="black" stroke="black" points="462.81,-126.25 466.01,-116.15 457.21,-122.05 462.81,-126.25"/>
</g>
</g>
</svg>
