<?xml version="1.0" encoding="UTF-8" standalone="no"?>
<!DOCTYPE svg PUBLIC "-//W3C//DTD SVG 1.1//EN"
 "http://www.w3.org/Graphics/SVG/1.1/DTD/svg11.dtd">
<!-- Generated by graphviz version 10.0.1 (20240210.2158)
 -->
<!-- Title: ND Pages: 1 -->
<svg width="538pt" height="423pt"
 viewBox="0.00 0.00 537.62 423.00" xmlns="http://www.w3.org/2000/svg" xmlns:xlink="http://www.w3.org/1999/xlink">
<g id="graph0" class="graph" transform="scale(1 1) rotate(0) translate(4 419)">
<title>ND</title>
<polygon fill="white" stroke="none" points="-4,4 -4,-419 533.62,-419 533.62,4 -4,4"/>
<!-- n_0_1_2_3_4_5_6 -->
<g id="node1" class="node">
<title>n_0_1_2_3_4_5_6</title>
<polygon fill="none" stroke="black" points="280,-342 280,-410 350.25,-410 350.25,-342 280,-342"/>
<text text-anchor="start" x="292.25" y="-395.45" font-family="Times New Roman,serif" font-weight="bold" font-size="9.00">Primary (P)</text>
<text text-anchor="start" x="291.5" y="-386.45" font-family="Times New Roman,serif" font-weight="bold" font-size="9.00">Primary (G)</text>
<text text-anchor="start" x="296" y="-377.45" font-family="Times New Roman,serif" font-weight="bold" font-size="9.00">Preschool</text>
<text text-anchor="start" x="287" y="-368.45" font-family="Times New Roman,serif" font-weight="bold" font-size="9.00">Secondary (G)</text>
<text text-anchor="start" x="295.62" y="-359.45" font-family="Times New Roman,serif" font-weight="bold" font-size="9.00">Technical</text>
<text text-anchor="start" x="294.88" y="-350.45" font-family="Times New Roman,serif" font-weight="bold" font-size="9.00">University</text>
<polygon fill="none" stroke="black" points="350.25,-342 350.25,-410 419,-410 419,-342 350.25,-342"/>
<text text-anchor="start" x="357.25" y="-374.07" font-family="Times New Roman,serif" font-weight="bold" font-size="9.00">Secondary (P)</text>
<polygon fill="none" stroke="black" points="279,-341 279,-411 420,-411 420,-341 279,-341"/>
</g>
<!-- n_0_1_2_4_5_6 -->
<g id="node2" class="node">
<title>n_0_1_2_4_5_6</title>
<polygon fill="none" stroke="black" points="210.75,-248 210.75,-289 272,-289 272,-248 210.75,-248"/>
<text text-anchor="start" x="218.5" y="-274.45" font-family="Times New Roman,serif" font-weight="bold" font-size="9.00">Primary (P)</text>
<text text-anchor="start" x="217.75" y="-265.45" font-family="Times New Roman,serif" font-weight="bold" font-size="9.00">Primary (G)</text>
<text text-anchor="start" x="222.25" y="-256.45" font-family="Times New Roman,serif" font-weight="bold" font-size="9.00">Preschool</text>
<polygon fill="none" stroke="black" points="272,-248 272,-289 342.25,-289 342.25,-248 272,-248"/>
<text text-anchor="start" x="279" y="-274.45" font-family="Times New Roman,serif" font-weight="bold" font-size="9.00">Secondary (G)</text>
<text text-anchor="start" x="287.62" y="-265.45" font-family="Times New Roman,serif" font-weight="bold" font-size="9.00">Technical</text>
<text text-anchor="start" x="286.88" y="-256.45" font-family="Times New Roman,serif" font-weight="bold" font-size="9.00">University</text>
<polygon fill="none" stroke="black" points="209.75,-247 209.75,-290 343.25,-290 343.25,-247 209.75,-247"/>
</g>
<!-- n_0_1_2_3_4_5_6&#45;&gt;n_0_1_2_4_5_6 -->
<g id="edge1" class="edge">
<title>n_0_1_2_3_4_5_6&#45;&gt;n_0_1_2_4_5_6</title>
<path fill="none" stroke="black" d="M323.35,-337.21C315.63,-326.05 307.24,-313.92 299.71,-303.05"/>
<polygon fill="black" stroke="black" points="302.8,-301.35 294.23,-295.12 297.04,-305.34 302.8,-301.35"/>
</g>
<!-- n_3 -->
<g id="node13" class="node">
<title>n_3</title>
<polygon fill="none" stroke="black" points="389.12,-255.88 389.12,-281.12 457.88,-281.12 457.88,-255.88 389.12,-255.88"/>
<text text-anchor="start" x="396.12" y="-266.57" font-family="Times New Roman,serif" font-weight="bold" font-size="9.00">Secondary (P)</text>
<polygon fill="none" stroke="black" points="388.12,-254.88 388.12,-282.12 458.88,-282.12 458.88,-254.88 388.12,-254.88"/>
</g>
<!-- n_0_1_2_3_4_5_6&#45;&gt;n_3 -->
<g id="edge12" class="edge">
<title>n_0_1_2_3_4_5_6&#45;&gt;n_3</title>
<path fill="none" stroke="black" d="M376.01,-337.21C385.63,-323.49 396.28,-308.31 405.05,-295.8"/>
<polygon fill="black" stroke="black" points="407.89,-297.85 410.76,-287.66 402.16,-293.83 407.89,-297.85"/>
</g>
<!-- n_0_1_2 -->
<g id="node3" class="node">
<title>n_0_1_2</title>
<polygon fill="none" stroke="black" points="136.75,-163 136.75,-195 198,-195 198,-163 136.75,-163"/>
<text text-anchor="start" x="144.5" y="-180.45" font-family="Times New Roman,serif" font-weight="bold" font-size="9.00">Primary (P)</text>
<text text-anchor="start" x="143.75" y="-171.45" font-family="Times New Roman,serif" font-weight="bold" font-size="9.00">Primary (G)</text>
<polygon fill="none" stroke="black" points="198,-163 198,-195 250.25,-195 250.25,-163 198,-163"/>
<text text-anchor="start" x="205" y="-177.07" font-family="Times New Roman,serif" font-weight="bold" font-size="9.00">Preschool</text>
<polygon fill="none" stroke="black" points="135.75,-162 135.75,-196 251.25,-196 251.25,-162 135.75,-162"/>
</g>
<!-- n_0_1_2_4_5_6&#45;&gt;n_0_1_2 -->
<g id="edge2" class="edge">
<title>n_0_1_2_4_5_6&#45;&gt;n_0_1_2</title>
<path fill="none" stroke="black" d="M253.38,-243.13C243.06,-232.25 230.84,-219.36 220.14,-208.08"/>
<polygon fill="black" stroke="black" points="222.77,-205.77 213.35,-200.92 217.69,-210.59 222.77,-205.77"/>
</g>
<!-- n_4_5_6 -->
<g id="node8" class="node">
<title>n_4_5_6</title>
<polygon fill="none" stroke="black" points="297.12,-163 297.12,-195 351.62,-195 351.62,-163 297.12,-163"/>
<text text-anchor="start" x="304.88" y="-180.45" font-family="Times New Roman,serif" font-weight="bold" font-size="9.00">Technical</text>
<text text-anchor="start" x="304.12" y="-171.45" font-family="Times New Roman,serif" font-weight="bold" font-size="9.00">University</text>
<polygon fill="none" stroke="black" points="351.62,-163 351.62,-195 421.88,-195 421.88,-163 351.62,-163"/>
<text text-anchor="start" x="358.62" y="-177.07" font-family="Times New Roman,serif" font-weight="bold" font-size="9.00">Secondary (G)</text>
<polygon fill="none" stroke="black" points="296.12,-162 296.12,-196 422.88,-196 422.88,-162 296.12,-162"/>
</g>
<!-- n_0_1_2_4_5_6&#45;&gt;n_4_5_6 -->
<g id="edge7" class="edge">
<title>n_0_1_2_4_5_6&#45;&gt;n_4_5_6</title>
<path fill="none" stroke="black" d="M299.62,-243.13C309.94,-232.25 322.16,-219.36 332.86,-208.08"/>
<polygon fill="black" stroke="black" points="335.31,-210.59 339.65,-200.92 330.23,-205.77 335.31,-210.59"/>
</g>
<!-- n_0_1 -->
<g id="node4" class="node">
<title>n_0_1</title>
<polygon fill="none" stroke="black" points="9,-84.38 9,-109.62 68.75,-109.62 68.75,-84.38 9,-84.38"/>
<text text-anchor="start" x="16" y="-95.08" font-family="Times New Roman,serif" font-weight="bold" font-size="9.00">Primary (P)</text>
<polygon fill="none" stroke="black" points="68.75,-84.38 68.75,-109.62 130,-109.62 130,-84.38 68.75,-84.38"/>
<text text-anchor="start" x="75.75" y="-95.08" font-family="Times New Roman,serif" font-weight="bold" font-size="9.00">Primary (G)</text>
<polygon fill="none" stroke="black" points="8,-83.38 8,-110.62 131,-110.62 131,-83.38 8,-83.38"/>
</g>
<!-- n_0_1_2&#45;&gt;n_0_1 -->
<g id="edge3" class="edge">
<title>n_0_1_2&#45;&gt;n_0_1</title>
<path fill="none" stroke="black" d="M162.53,-158.02C145.1,-146.77 123.26,-132.68 105.12,-120.98"/>
<polygon fill="black" stroke="black" points="107.05,-118.06 96.75,-115.58 103.25,-123.94 107.05,-118.06"/>
</g>
<!-- n_2 -->
<g id="node7" class="node">
<title>n_2</title>
<polygon fill="none" stroke="black" points="177.38,-84.38 177.38,-109.62 229.62,-109.62 229.62,-84.38 177.38,-84.38"/>
<text text-anchor="start" x="184.38" y="-95.08" font-family="Times New Roman,serif" font-weight="bold" font-size="9.00">Preschool</text>
<polygon fill="none" stroke="black" points="176.38,-83.38 176.38,-110.62 230.62,-110.62 230.62,-83.38 176.38,-83.38"/>
</g>
<!-- n_0_1_2&#45;&gt;n_2 -->
<g id="edge6" class="edge">
<title>n_0_1_2&#45;&gt;n_2</title>
<path fill="none" stroke="black" d="M195.97,-158.22C197.18,-148.54 198.66,-136.72 199.99,-126.11"/>
<polygon fill="black" stroke="black" points="203.44,-126.7 201.21,-116.35 196.49,-125.83 203.44,-126.7"/>
</g>
<!-- n_0 -->
<g id="node5" class="node">
<title>n_0</title>
<polygon fill="none" stroke="black" points="13.62,-5.38 13.62,-30.62 73.38,-30.62 73.38,-5.38 13.62,-5.38"/>
<text text-anchor="start" x="20.62" y="-16.07" font-family="Times New Roman,serif" font-weight="bold" font-size="9.00">Primary (P)</text>
<polygon fill="none" stroke="black" points="12.62,-4.38 12.62,-31.62 74.38,-31.62 74.38,-4.38 12.62,-4.38"/>
</g>
<!-- n_0_1&#45;&gt;n_0 -->
<g id="edge4" class="edge">
<title>n_0_1&#45;&gt;n_0</title>
<path fill="none" stroke="black" d="M63.86,-79.29C60.64,-69.77 56.53,-57.6 52.85,-46.69"/>
<polygon fill="black" stroke="black" points="56.22,-45.73 49.7,-37.38 49.59,-47.97 56.22,-45.73"/>
</g>
<!-- n_1 -->
<g id="node6" class="node">
<title>n_1</title>
<polygon fill="none" stroke="black" points="120.88,-5.38 120.88,-30.62 182.12,-30.62 182.12,-5.38 120.88,-5.38"/>
<text text-anchor="start" x="127.88" y="-16.07" font-family="Times New Roman,serif" font-weight="bold" font-size="9.00">Primary (G)</text>
<polygon fill="none" stroke="black" points="119.88,-4.38 119.88,-31.62 183.12,-31.62 183.12,-4.38 119.88,-4.38"/>
</g>
<!-- n_0_1&#45;&gt;n_1 -->
<g id="edge5" class="edge">
<title>n_0_1&#45;&gt;n_1</title>
<path fill="none" stroke="black" d="M87.29,-79.29C98.39,-68.87 112.87,-55.27 125.27,-43.63"/>
<polygon fill="black" stroke="black" points="127.46,-46.37 132.36,-36.98 122.67,-41.27 127.46,-46.37"/>
</g>
<!-- n_5_6 -->
<g id="node9" class="node">
<title>n_5_6</title>
<polygon fill="none" stroke="black" points="295.75,-84.38 295.75,-109.62 348.75,-109.62 348.75,-84.38 295.75,-84.38"/>
<text text-anchor="start" x="302.75" y="-95.08" font-family="Times New Roman,serif" font-weight="bold" font-size="9.00">Technical</text>
<polygon fill="none" stroke="black" points="348.75,-84.38 348.75,-109.62 403.25,-109.62 403.25,-84.38 348.75,-84.38"/>
<text text-anchor="start" x="355.75" y="-95.08" font-family="Times New Roman,serif" font-weight="bold" font-size="9.00">University</text>
<polygon fill="none" stroke="black" points="294.75,-83.38 294.75,-110.62 404.25,-110.62 404.25,-83.38 294.75,-83.38"/>
</g>
<!-- n_4_5_6&#45;&gt;n_5_6 -->
<g id="edge8" class="edge">
<title>n_4_5_6&#45;&gt;n_5_6</title>
<path fill="none" stroke="black" d="M357.03,-158.22C355.82,-148.54 354.34,-136.72 353.01,-126.11"/>
<polygon fill="black" stroke="black" points="356.51,-125.83 351.79,-116.35 349.56,-126.7 356.51,-125.83"/>
</g>
<!-- n_4 -->
<g id="node12" class="node">
<title>n_4</title>
<polygon fill="none" stroke="black" points="450.38,-84.38 450.38,-109.62 520.62,-109.62 520.62,-84.38 450.38,-84.38"/>
<text text-anchor="start" x="457.38" y="-95.08" font-family="Times New Roman,serif" font-weight="bold" font-size="9.00">Secondary (G)</text>
<polygon fill="none" stroke="black" points="449.38,-83.38 449.38,-110.62 521.62,-110.62 521.62,-83.38 449.38,-83.38"/>
</g>
<!-- n_4_5_6&#45;&gt;n_4 -->
<g id="edge11" class="edge">
<title>n_4_5_6&#45;&gt;n_4</title>
<path fill="none" stroke="black" d="M390.97,-158.02C408.76,-146.72 431.08,-132.55 449.56,-120.82"/>
<polygon fill="black" stroke="black" points="451.26,-123.88 457.83,-115.57 447.51,-117.98 451.26,-123.88"/>
</g>
<!-- n_5 -->
<g id="node10" class="node">
<title>n_5</title>
<polygon fill="none" stroke="black" points="266,-5.38 266,-30.62 319,-30.62 319,-5.38 266,-5.38"/>
<text text-anchor="start" x="273" y="-16.07" font-family="Times New Roman,serif" font-weight="bold" font-size="9.00">Technical</text>
<polygon fill="none" stroke="black" points="265,-4.38 265,-31.62 320,-31.62 320,-4.38 265,-4.38"/>
</g>
<!-- n_5_6&#45;&gt;n_5 -->
<g id="edge9" class="edge">
<title>n_5_6&#45;&gt;n_5</title>
<path fill="none" stroke="black" d="M337.13,-79.29C329.71,-69.27 320.12,-56.31 311.73,-44.98"/>
<polygon fill="black" stroke="black" points="314.7,-43.11 305.94,-37.16 309.08,-47.28 314.7,-43.11"/>
</g>
<!-- n_6 -->
<g id="node11" class="node">
<title>n_6</title>
<polygon fill="none" stroke="black" points="366.25,-5.38 366.25,-30.62 420.75,-30.62 420.75,-5.38 366.25,-5.38"/>
<text text-anchor="start" x="373.25" y="-16.07" font-family="Times New Roman,serif" font-weight="bold" font-size="9.00">University</text>
<polygon fill="none" stroke="black" points="365.25,-4.38 365.25,-31.62 421.75,-31.62 421.75,-4.38 365.25,-4.38"/>
</g>
<!-- n_5_6&#45;&gt;n_6 -->
<g id="edge10" class="edge">
<title>n_5_6&#45;&gt;n_6</title>
<path fill="none" stroke="black" d="M359.05,-79.29C364.66,-69.47 371.88,-56.83 378.27,-45.66"/>
<polygon fill="black" stroke="black" points="381.15,-47.67 383.07,-37.26 375.07,-44.2 381.15,-47.67"/>
</g>
</g>
</svg>
