<?xml version="1.0" encoding="UTF-8" standalone="no"?>
<!DOCTYPE svg PUBLIC "-//W3C//DTD SVG 1.1//EN"
 "http://www.w3.org/Graphics/SVG/1.1/DTD/svg11.dtd">
<!-- Generated by graphviz version 10.0.1 (20240210.2158)
 -->
<!-- Title: ND Pages: 1 -->
<svg width="592pt" height="526pt"
 viewBox="0.00 0.00 591.62 526.00" xmlns="http://www.w3.org/2000/svg" xmlns:xlink="http://www.w3.org/1999/xlink">
<g id="graph0" class="graph" transform="scale(1 1) rotate(0) translate(4 522)">
<title>ND</title>
<polygon fill="white" stroke="none" points="-4,4 -4,-522 587.62,-522 587.62,4 -4,4"/>
<!-- n_0_1_2_3_4_5_6 -->
<g id="node1" class="node">
<title>n_0_1_2_3_4_5_6</title>
<polygon fill="none" stroke="black" points="376.12,-445 376.12,-513 446.38,-513 446.38,-445 376.12,-445"/>
<text text-anchor="start" x="387.62" y="-498.45" font-family="Times New Roman,serif" font-weight="bold" font-size="9.00">Primary (G)</text>
<text text-anchor="start" x="392.12" y="-489.45" font-family="Times New Roman,serif" font-weight="bold" font-size="9.00">Preschool</text>
<text text-anchor="start" x="383.88" y="-480.45" font-family="Times New Roman,serif" font-weight="bold" font-size="9.00">Secondary (P)</text>
<text text-anchor="start" x="383.12" y="-471.45" font-family="Times New Roman,serif" font-weight="bold" font-size="9.00">Secondary (G)</text>
<text text-anchor="start" x="391.75" y="-462.45" font-family="Times New Roman,serif" font-weight="bold" font-size="9.00">Technical</text>
<text text-anchor="start" x="391" y="-453.45" font-family="Times New Roman,serif" font-weight="bold" font-size="9.00">University</text>
<polygon fill="none" stroke="black" points="446.38,-445 446.38,-513 506.12,-513 506.12,-445 446.38,-445"/>
<text text-anchor="start" x="453.38" y="-477.07" font-family="Times New Roman,serif" font-weight="bold" font-size="9.00">Primary (P)</text>
<polygon fill="none" stroke="black" points="375.12,-444 375.12,-514 507.12,-514 507.12,-444 375.12,-444"/>
</g>
<!-- n_1_2_3_4_5_6 -->
<g id="node2" class="node">
<title>n_1_2_3_4_5_6</title>
<polygon fill="none" stroke="black" points="298.62,-342 298.62,-392 368.88,-392 368.88,-342 298.62,-342"/>
<text text-anchor="start" x="310.12" y="-377.45" font-family="Times New Roman,serif" font-weight="bold" font-size="9.00">Primary (G)</text>
<text text-anchor="start" x="314.62" y="-368.45" font-family="Times New Roman,serif" font-weight="bold" font-size="9.00">Preschool</text>
<text text-anchor="start" x="305.62" y="-359.45" font-family="Times New Roman,serif" font-weight="bold" font-size="9.00">Secondary (G)</text>
<text text-anchor="start" x="313.5" y="-350.45" font-family="Times New Roman,serif" font-weight="bold" font-size="9.00">University</text>
<polygon fill="none" stroke="black" points="368.88,-342 368.88,-392 437.62,-392 437.62,-342 368.88,-342"/>
<text text-anchor="start" x="375.88" y="-368.45" font-family="Times New Roman,serif" font-weight="bold" font-size="9.00">Secondary (P)</text>
<text text-anchor="start" x="383.75" y="-359.45" font-family="Times New Roman,serif" font-weight="bold" font-size="9.00">Technical</text>
<polygon fill="none" stroke="black" points="297.62,-341 297.62,-393 438.62,-393 438.62,-341 297.62,-341"/>
</g>
<!-- n_0_1_2_3_4_5_6&#45;&gt;n_1_2_3_4_5_6 -->
<g id="edge1" class="edge">
<title>n_0_1_2_3_4_5_6&#45;&gt;n_1_2_3_4_5_6</title>
<path fill="none" stroke="black" d="M416,-440.14C408.73,-429.19 400.79,-417.22 393.5,-406.23"/>
<polygon fill="black" stroke="black" points="396.58,-404.55 388.13,-398.15 390.75,-408.42 396.58,-404.55"/>
</g>
<!-- n_0 -->
<g id="node13" class="node">
<title>n_0</title>
<polygon fill="none" stroke="black" points="484.25,-354.38 484.25,-379.62 544,-379.62 544,-354.38 484.25,-354.38"/>
<text text-anchor="start" x="491.25" y="-365.07" font-family="Times New Roman,serif" font-weight="bold" font-size="9.00">Primary (P)</text>
<polygon fill="none" stroke="black" points="483.25,-353.38 483.25,-380.62 545,-380.62 545,-353.38 483.25,-353.38"/>
</g>
<!-- n_0_1_2_3_4_5_6&#45;&gt;n_0 -->
<g id="edge12" class="edge">
<title>n_0_1_2_3_4_5_6&#45;&gt;n_0</title>
<path fill="none" stroke="black" d="M466.25,-440.14C476.27,-425.04 487.56,-408.02 496.67,-394.31"/>
<polygon fill="black" stroke="black" points="499.4,-396.51 502.02,-386.24 493.57,-392.64 499.4,-396.51"/>
</g>
<!-- n_1_2_4_6 -->
<g id="node3" class="node">
<title>n_1_2_4_6</title>
<polygon fill="none" stroke="black" points="215.38,-248 215.38,-289 285.62,-289 285.62,-248 215.38,-248"/>
<text text-anchor="start" x="231.38" y="-274.45" font-family="Times New Roman,serif" font-weight="bold" font-size="9.00">Preschool</text>
<text text-anchor="start" x="222.38" y="-265.45" font-family="Times New Roman,serif" font-weight="bold" font-size="9.00">Secondary (G)</text>
<text text-anchor="start" x="230.25" y="-256.45" font-family="Times New Roman,serif" font-weight="bold" font-size="9.00">University</text>
<polygon fill="none" stroke="black" points="285.62,-248 285.62,-289 346.88,-289 346.88,-248 285.62,-248"/>
<text text-anchor="start" x="292.62" y="-266.57" font-family="Times New Roman,serif" font-weight="bold" font-size="9.00">Primary (G)</text>
<polygon fill="none" stroke="black" points="214.38,-247 214.38,-290 347.88,-290 347.88,-247 214.38,-247"/>
</g>
<!-- n_1_2_3_4_5_6&#45;&gt;n_1_2_4_6 -->
<g id="edge2" class="edge">
<title>n_1_2_3_4_5_6&#45;&gt;n_1_2_4_6</title>
<path fill="none" stroke="black" d="M342.02,-337.05C332.13,-326.08 320.8,-313.51 310.62,-302.22"/>
<polygon fill="black" stroke="black" points="313.41,-300.08 304.11,-295 308.21,-304.77 313.41,-300.08"/>
</g>
<!-- n_3_5 -->
<g id="node10" class="node">
<title>n_3_5</title>
<polygon fill="none" stroke="black" points="394.25,-255.88 394.25,-281.12 463,-281.12 463,-255.88 394.25,-255.88"/>
<text text-anchor="start" x="401.25" y="-266.57" font-family="Times New Roman,serif" font-weight="bold" font-size="9.00">Secondary (P)</text>
<polygon fill="none" stroke="black" points="463,-255.88 463,-281.12 516,-281.12 516,-255.88 463,-255.88"/>
<text text-anchor="start" x="470" y="-266.57" font-family="Times New Roman,serif" font-weight="bold" font-size="9.00">Technical</text>
<polygon fill="none" stroke="black" points="393.25,-254.88 393.25,-282.12 517,-282.12 517,-254.88 393.25,-254.88"/>
</g>
<!-- n_1_2_3_4_5_6&#45;&gt;n_3_5 -->
<g id="edge9" class="edge">
<title>n_1_2_3_4_5_6&#45;&gt;n_3_5</title>
<path fill="none" stroke="black" d="M394.23,-337.05C406.35,-323.6 420.62,-307.77 432.3,-294.81"/>
<polygon fill="black" stroke="black" points="434.81,-297.26 438.91,-287.49 429.61,-292.57 434.81,-297.26"/>
</g>
<!-- n_2_4_6 -->
<g id="node4" class="node">
<title>n_2_4_6</title>
<polygon fill="none" stroke="black" points="94.75,-163 94.75,-195 165,-195 165,-163 94.75,-163"/>
<text text-anchor="start" x="110.75" y="-180.45" font-family="Times New Roman,serif" font-weight="bold" font-size="9.00">Preschool</text>
<text text-anchor="start" x="101.75" y="-171.45" font-family="Times New Roman,serif" font-weight="bold" font-size="9.00">Secondary (G)</text>
<polygon fill="none" stroke="black" points="165,-163 165,-195 219.5,-195 219.5,-163 165,-163"/>
<text text-anchor="start" x="172" y="-177.07" font-family="Times New Roman,serif" font-weight="bold" font-size="9.00">University</text>
<polygon fill="none" stroke="black" points="93.75,-162 93.75,-196 220.5,-196 220.5,-162 93.75,-162"/>
</g>
<!-- n_1_2_4_6&#45;&gt;n_2_4_6 -->
<g id="edge3" class="edge">
<title>n_1_2_4_6&#45;&gt;n_2_4_6</title>
<path fill="none" stroke="black" d="M246.58,-243.13C230.41,-231.71 211.11,-218.1 194.59,-206.43"/>
<polygon fill="black" stroke="black" points="196.65,-203.6 186.46,-200.7 192.61,-209.32 196.65,-203.6"/>
</g>
<!-- n_1 -->
<g id="node9" class="node">
<title>n_1</title>
<polygon fill="none" stroke="black" points="266.5,-166.38 266.5,-191.62 327.75,-191.62 327.75,-166.38 266.5,-166.38"/>
<text text-anchor="start" x="273.5" y="-177.07" font-family="Times New Roman,serif" font-weight="bold" font-size="9.00">Primary (G)</text>
<polygon fill="none" stroke="black" points="265.5,-165.38 265.5,-192.62 328.75,-192.62 328.75,-165.38 265.5,-165.38"/>
</g>
<!-- n_1_2_4_6&#45;&gt;n_1 -->
<g id="edge8" class="edge">
<title>n_1_2_4_6&#45;&gt;n_1</title>
<path fill="none" stroke="black" d="M285.58,-243.13C287.59,-232.17 289.96,-219.18 292.04,-207.84"/>
<polygon fill="black" stroke="black" points="295.43,-208.73 293.79,-198.26 288.54,-207.47 295.43,-208.73"/>
</g>
<!-- n_2_4 -->
<g id="node5" class="node">
<title>n_2_4</title>
<polygon fill="none" stroke="black" points="27.88,-84.38 27.88,-109.62 80.12,-109.62 80.12,-84.38 27.88,-84.38"/>
<text text-anchor="start" x="34.88" y="-95.08" font-family="Times New Roman,serif" font-weight="bold" font-size="9.00">Preschool</text>
<polygon fill="none" stroke="black" points="80.12,-84.38 80.12,-109.62 150.38,-109.62 150.38,-84.38 80.12,-84.38"/>
<text text-anchor="start" x="87.12" y="-95.08" font-family="Times New Roman,serif" font-weight="bold" font-size="9.00">Secondary (G)</text>
<polygon fill="none" stroke="black" points="26.88,-83.38 26.88,-110.62 151.38,-110.62 151.38,-83.38 26.88,-83.38"/>
</g>
<!-- n_2_4_6&#45;&gt;n_2_4 -->
<g id="edge4" class="edge">
<title>n_2_4_6&#45;&gt;n_2_4</title>
<path fill="none" stroke="black" d="M140.32,-158.22C131.38,-147.71 120.29,-134.66 110.72,-123.41"/>
<polygon fill="black" stroke="black" points="113.57,-121.35 104.42,-116 108.23,-125.88 113.57,-121.35"/>
</g>
<!-- n_6 -->
<g id="node8" class="node">
<title>n_6</title>
<polygon fill="none" stroke="black" points="197.88,-84.38 197.88,-109.62 252.38,-109.62 252.38,-84.38 197.88,-84.38"/>
<text text-anchor="start" x="204.88" y="-95.08" font-family="Times New Roman,serif" font-weight="bold" font-size="9.00">University</text>
<polygon fill="none" stroke="black" points="196.88,-83.38 196.88,-110.62 253.38,-110.62 253.38,-83.38 196.88,-83.38"/>
</g>
<!-- n_2_4_6&#45;&gt;n_6 -->
<g id="edge7" class="edge">
<title>n_2_4_6&#45;&gt;n_6</title>
<path fill="none" stroke="black" d="M173.93,-158.22C182.87,-147.71 193.96,-134.66 203.53,-123.41"/>
<polygon fill="black" stroke="black" points="206.02,-125.88 209.83,-116 200.68,-121.35 206.02,-125.88"/>
</g>
<!-- n_2 -->
<g id="node6" class="node">
<title>n_2</title>
<polygon fill="none" stroke="black" points="9,-5.38 9,-30.62 61.25,-30.62 61.25,-5.38 9,-5.38"/>
<text text-anchor="start" x="16" y="-16.07" font-family="Times New Roman,serif" font-weight="bold" font-size="9.00">Preschool</text>
<polygon fill="none" stroke="black" points="8,-4.38 8,-31.62 62.25,-31.62 62.25,-4.38 8,-4.38"/>
</g>
<!-- n_2_4&#45;&gt;n_2 -->
<g id="edge5" class="edge">
<title>n_2_4&#45;&gt;n_2</title>
<path fill="none" stroke="black" d="M77.41,-79.29C70.45,-69.37 61.47,-56.57 53.58,-45.32"/>
<polygon fill="black" stroke="black" points="56.48,-43.36 47.87,-37.18 50.75,-47.38 56.48,-43.36"/>
</g>
<!-- n_4 -->
<g id="node7" class="node">
<title>n_4</title>
<polygon fill="none" stroke="black" points="108,-5.38 108,-30.62 178.25,-30.62 178.25,-5.38 108,-5.38"/>
<text text-anchor="start" x="115" y="-16.07" font-family="Times New Roman,serif" font-weight="bold" font-size="9.00">Secondary (G)</text>
<polygon fill="none" stroke="black" points="107,-4.38 107,-31.62 179.25,-31.62 179.25,-4.38 107,-4.38"/>
</g>
<!-- n_2_4&#45;&gt;n_4 -->
<g id="edge6" class="edge">
<title>n_2_4&#45;&gt;n_4</title>
<path fill="none" stroke="black" d="M100.84,-79.29C107.8,-69.37 116.78,-56.57 124.67,-45.32"/>
<polygon fill="black" stroke="black" points="127.5,-47.38 130.38,-37.18 121.77,-43.36 127.5,-47.38"/>
</g>
<!-- n_3 -->
<g id="node11" class="node">
<title>n_3</title>
<polygon fill="none" stroke="black" points="405.75,-166.38 405.75,-191.62 474.5,-191.62 474.5,-166.38 405.75,-166.38"/>
<text text-anchor="start" x="412.75" y="-177.07" font-family="Times New Roman,serif" font-weight="bold" font-size="9.00">Secondary (P)</text>
<polygon fill="none" stroke="black" points="404.75,-165.38 404.75,-192.62 475.5,-192.62 475.5,-165.38 404.75,-165.38"/>
</g>
<!-- n_3_5&#45;&gt;n_3 -->
<g id="edge10" class="edge">
<title>n_3_5&#45;&gt;n_3</title>
<path fill="none" stroke="black" d="M452.23,-250.63C450.16,-238.52 447.31,-221.94 444.9,-207.88"/>
<polygon fill="black" stroke="black" points="448.4,-207.58 443.26,-198.31 441.5,-208.76 448.4,-207.58"/>
</g>
<!-- n_5 -->
<g id="node12" class="node">
<title>n_5</title>
<polygon fill="none" stroke="black" points="521.62,-166.38 521.62,-191.62 574.62,-191.62 574.62,-166.38 521.62,-166.38"/>
<text text-anchor="start" x="528.62" y="-177.07" font-family="Times New Roman,serif" font-weight="bold" font-size="9.00">Technical</text>
<polygon fill="none" stroke="black" points="520.62,-165.38 520.62,-192.62 575.62,-192.62 575.62,-165.38 520.62,-165.38"/>
</g>
<!-- n_3_5&#45;&gt;n_5 -->
<g id="edge11" class="edge">
<title>n_3_5&#45;&gt;n_5</title>
<path fill="none" stroke="black" d="M473.06,-250.63C486.95,-237.56 506.4,-219.25 522.02,-204.56"/>
<polygon fill="black" stroke="black" points="524.26,-207.26 529.15,-197.86 519.46,-202.16 524.26,-207.26"/>
</g>
</g>
</svg>
