<?xml version="1.0" encoding="UTF-8" standalone="no"?>
<!DOCTYPE svg PUBLIC "-//W3C//DTD SVG 1.1//EN"
 "http://www.w3.org/Graphics/SVG/1.1/DTD/svg11.dtd">
<!-- Generated by graphviz version 10.0.1 (20240210.2158)
 -->
<!-- Title: ND Pages: 1 -->
<svg width="606pt" height="405pt"
 viewBox="0.00 0.00 605.50 405.00" xmlns="http://www.w3.org/2000/svg" xmlns:xlink="http://www.w3.org/1999/xlink">
<g id="graph0" class="graph" transform="scale(1 1) rotate(0) translate(4 401)">
<title>ND</title>
<polygon fill="white" stroke="none" points="-4,4 -4,-401 601.5,-401 601.5,4 -4,4"/>
<!-- n_0_1_2_3_4_5_6 -->
<g id="node1" class="node">
<title>n_0_1_2_3_4_5_6</title>
<polygon fill="none" stroke="black" points="282.62,-342 282.62,-392 352.88,-392 352.88,-342 282.62,-342"/>
<text text-anchor="start" x="290.38" y="-377.45" font-family="Times New Roman,serif" font-weight="bold" font-size="9.00">Secondary (P)</text>
<text text-anchor="start" x="289.62" y="-368.45" font-family="Times New Roman,serif" font-weight="bold" font-size="9.00">Secondary (G)</text>
<text text-anchor="start" x="298.25" y="-359.45" font-family="Times New Roman,serif" font-weight="bold" font-size="9.00">Technical</text>
<text text-anchor="start" x="297.5" y="-350.45" font-family="Times New Roman,serif" font-weight="bold" font-size="9.00">University</text>
<polygon fill="none" stroke="black" points="352.88,-342 352.88,-392 414.12,-392 414.12,-342 352.88,-342"/>
<text text-anchor="start" x="360.62" y="-372.95" font-family="Times New Roman,serif" font-weight="bold" font-size="9.00">Primary (P)</text>
<text text-anchor="start" x="359.88" y="-363.95" font-family="Times New Roman,serif" font-weight="bold" font-size="9.00">Primary (G)</text>
<text text-anchor="start" x="364.38" y="-354.95" font-family="Times New Roman,serif" font-weight="bold" font-size="9.00">Preschool</text>
<polygon fill="none" stroke="black" points="281.62,-341 281.62,-393 415.12,-393 415.12,-341 281.62,-341"/>
</g>
<!-- n_3_4_5_6 -->
<g id="node2" class="node">
<title>n_3_4_5_6</title>
<polygon fill="none" stroke="black" points="192.88,-248 192.88,-289 261.62,-289 261.62,-248 192.88,-248"/>
<text text-anchor="start" x="199.88" y="-274.45" font-family="Times New Roman,serif" font-weight="bold" font-size="9.00">Secondary (P)</text>
<text text-anchor="start" x="207.75" y="-265.45" font-family="Times New Roman,serif" font-weight="bold" font-size="9.00">Technical</text>
<text text-anchor="start" x="207" y="-256.45" font-family="Times New Roman,serif" font-weight="bold" font-size="9.00">University</text>
<polygon fill="none" stroke="black" points="261.62,-248 261.62,-289 331.88,-289 331.88,-248 261.62,-248"/>
<text text-anchor="start" x="268.62" y="-266.57" font-family="Times New Roman,serif" font-weight="bold" font-size="9.00">Secondary (G)</text>
<polygon fill="none" stroke="black" points="191.88,-247 191.88,-290 332.88,-290 332.88,-247 191.88,-247"/>
</g>
<!-- n_0_1_2_3_4_5_6&#45;&gt;n_3_4_5_6 -->
<g id="edge1" class="edge">
<title>n_0_1_2_3_4_5_6&#45;&gt;n_3_4_5_6</title>
<path fill="none" stroke="black" d="M322.57,-337.05C312.79,-326.08 301.6,-313.51 291.53,-302.22"/>
<polygon fill="black" stroke="black" points="294.37,-300.14 285.1,-295 289.14,-304.8 294.37,-300.14"/>
</g>
<!-- n_0_1_2 -->
<g id="node9" class="node">
<title>n_0_1_2</title>
<polygon fill="none" stroke="black" points="378.62,-252.5 378.62,-284.5 439.88,-284.5 439.88,-252.5 378.62,-252.5"/>
<text text-anchor="start" x="386.38" y="-269.95" font-family="Times New Roman,serif" font-weight="bold" font-size="9.00">Primary (P)</text>
<text text-anchor="start" x="385.62" y="-260.95" font-family="Times New Roman,serif" font-weight="bold" font-size="9.00">Primary (G)</text>
<polygon fill="none" stroke="black" points="439.88,-252.5 439.88,-284.5 492.12,-284.5 492.12,-252.5 439.88,-252.5"/>
<text text-anchor="start" x="446.88" y="-266.57" font-family="Times New Roman,serif" font-weight="bold" font-size="9.00">Preschool</text>
<polygon fill="none" stroke="black" points="377.62,-251.5 377.62,-285.5 493.12,-285.5 493.12,-251.5 377.62,-251.5"/>
</g>
<!-- n_0_1_2_3_4_5_6&#45;&gt;n_0_1_2 -->
<g id="edge8" class="edge">
<title>n_0_1_2_3_4_5_6&#45;&gt;n_0_1_2</title>
<path fill="none" stroke="black" d="M374.48,-337.05C385.78,-324.51 398.97,-309.89 410.17,-297.46"/>
<polygon fill="black" stroke="black" points="412.45,-300.15 416.55,-290.38 407.25,-295.47 412.45,-300.15"/>
</g>
<!-- n_3_5_6 -->
<g id="node3" class="node">
<title>n_3_5_6</title>
<polygon fill="none" stroke="black" points="66.5,-163 66.5,-195 135.25,-195 135.25,-163 66.5,-163"/>
<text text-anchor="start" x="73.5" y="-180.45" font-family="Times New Roman,serif" font-weight="bold" font-size="9.00">Secondary (P)</text>
<text text-anchor="start" x="80.62" y="-171.45" font-family="Times New Roman,serif" font-weight="bold" font-size="9.00">University</text>
<polygon fill="none" stroke="black" points="135.25,-163 135.25,-195 188.25,-195 188.25,-163 135.25,-163"/>
<text text-anchor="start" x="142.25" y="-177.07" font-family="Times New Roman,serif" font-weight="bold" font-size="9.00">Technical</text>
<polygon fill="none" stroke="black" points="65.5,-162 65.5,-196 189.25,-196 189.25,-162 65.5,-162"/>
</g>
<!-- n_3_4_5_6&#45;&gt;n_3_5_6 -->
<g id="edge2" class="edge">
<title>n_3_4_5_6&#45;&gt;n_3_5_6</title>
<path fill="none" stroke="black" d="M224.77,-243.13C206.91,-231.55 185.56,-217.71 167.4,-205.94"/>
<polygon fill="black" stroke="black" points="169.53,-203.15 159.23,-200.65 165.72,-209.03 169.53,-203.15"/>
</g>
<!-- n_4 -->
<g id="node8" class="node">
<title>n_4</title>
<polygon fill="none" stroke="black" points="235.25,-166.38 235.25,-191.62 305.5,-191.62 305.5,-166.38 235.25,-166.38"/>
<text text-anchor="start" x="242.25" y="-177.07" font-family="Times New Roman,serif" font-weight="bold" font-size="9.00">Secondary (G)</text>
<polygon fill="none" stroke="black" points="234.25,-165.38 234.25,-192.62 306.5,-192.62 306.5,-165.38 234.25,-165.38"/>
</g>
<!-- n_3_4_5_6&#45;&gt;n_4 -->
<g id="edge7" class="edge">
<title>n_3_4_5_6&#45;&gt;n_4</title>
<path fill="none" stroke="black" d="M264.6,-243.13C265.59,-232.28 266.77,-219.45 267.8,-208.19"/>
<polygon fill="black" stroke="black" points="271.28,-208.56 268.7,-198.28 264.31,-207.92 271.28,-208.56"/>
</g>
<!-- n_3_6 -->
<g id="node4" class="node">
<title>n_3_6</title>
<polygon fill="none" stroke="black" points="35.75,-84.38 35.75,-109.62 104.5,-109.62 104.5,-84.38 35.75,-84.38"/>
<text text-anchor="start" x="42.75" y="-95.08" font-family="Times New Roman,serif" font-weight="bold" font-size="9.00">Secondary (P)</text>
<polygon fill="none" stroke="black" points="104.5,-84.38 104.5,-109.62 159,-109.62 159,-84.38 104.5,-84.38"/>
<text text-anchor="start" x="111.5" y="-95.08" font-family="Times New Roman,serif" font-weight="bold" font-size="9.00">University</text>
<polygon fill="none" stroke="black" points="34.75,-83.38 34.75,-110.62 160,-110.62 160,-83.38 34.75,-83.38"/>
</g>
<!-- n_3_5_6&#45;&gt;n_3_6 -->
<g id="edge3" class="edge">
<title>n_3_5_6&#45;&gt;n_3_6</title>
<path fill="none" stroke="black" d="M119.96,-158.22C116.25,-148.33 111.7,-136.21 107.66,-125.43"/>
<polygon fill="black" stroke="black" points="111.01,-124.4 104.22,-116.26 104.46,-126.85 111.01,-124.4"/>
</g>
<!-- n_5 -->
<g id="node7" class="node">
<title>n_5</title>
<polygon fill="none" stroke="black" points="205.88,-84.38 205.88,-109.62 258.88,-109.62 258.88,-84.38 205.88,-84.38"/>
<text text-anchor="start" x="212.88" y="-95.08" font-family="Times New Roman,serif" font-weight="bold" font-size="9.00">Technical</text>
<polygon fill="none" stroke="black" points="204.88,-83.38 204.88,-110.62 259.88,-110.62 259.88,-83.38 204.88,-83.38"/>
</g>
<!-- n_3_5_6&#45;&gt;n_5 -->
<g id="edge6" class="edge">
<title>n_3_5_6&#45;&gt;n_5</title>
<path fill="none" stroke="black" d="M153.6,-158.02C168.09,-146.98 186.17,-133.2 201.36,-121.63"/>
<polygon fill="black" stroke="black" points="203.34,-124.52 209.18,-115.68 199.1,-118.95 203.34,-124.52"/>
</g>
<!-- n_3 -->
<g id="node5" class="node">
<title>n_3</title>
<polygon fill="none" stroke="black" points="9,-5.38 9,-30.62 77.75,-30.62 77.75,-5.38 9,-5.38"/>
<text text-anchor="start" x="16" y="-16.07" font-family="Times New Roman,serif" font-weight="bold" font-size="9.00">Secondary (P)</text>
<polygon fill="none" stroke="black" points="8,-4.38 8,-31.62 78.75,-31.62 78.75,-4.38 8,-4.38"/>
</g>
<!-- n_3_6&#45;&gt;n_3 -->
<g id="edge4" class="edge">
<title>n_3_6&#45;&gt;n_3</title>
<path fill="none" stroke="black" d="M85.66,-79.29C78.7,-69.37 69.72,-56.57 61.83,-45.32"/>
<polygon fill="black" stroke="black" points="64.73,-43.36 56.12,-37.18 59,-47.38 64.73,-43.36"/>
</g>
<!-- n_6 -->
<g id="node6" class="node">
<title>n_6</title>
<polygon fill="none" stroke="black" points="125.12,-5.38 125.12,-30.62 179.62,-30.62 179.62,-5.38 125.12,-5.38"/>
<text text-anchor="start" x="132.12" y="-16.07" font-family="Times New Roman,serif" font-weight="bold" font-size="9.00">University</text>
<polygon fill="none" stroke="black" points="124.12,-4.38 124.12,-31.62 180.62,-31.62 180.62,-4.38 124.12,-4.38"/>
</g>
<!-- n_3_6&#45;&gt;n_6 -->
<g id="edge5" class="edge">
<title>n_3_6&#45;&gt;n_6</title>
<path fill="none" stroke="black" d="M109.31,-79.29C116.47,-69.27 125.72,-56.31 133.82,-44.98"/>
<polygon fill="black" stroke="black" points="136.43,-47.34 139.39,-37.17 130.73,-43.28 136.43,-47.34"/>
</g>
<!-- n_0_1 -->
<g id="node10" class="node">
<title>n_0_1</title>
<polygon fill="none" stroke="black" points="367.88,-166.38 367.88,-191.62 427.62,-191.62 427.62,-166.38 367.88,-166.38"/>
<text text-anchor="start" x="374.88" y="-177.07" font-family="Times New Roman,serif" font-weight="bold" font-size="9.00">Primary (P)</text>
<polygon fill="none" stroke="black" points="427.62,-166.38 427.62,-191.62 488.88,-191.62 488.88,-166.38 427.62,-166.38"/>
<text text-anchor="start" x="434.62" y="-177.07" font-family="Times New Roman,serif" font-weight="bold" font-size="9.00">Primary (G)</text>
<polygon fill="none" stroke="black" points="366.88,-165.38 366.88,-192.62 489.88,-192.62 489.88,-165.38 366.88,-165.38"/>
</g>
<!-- n_0_1_2&#45;&gt;n_0_1 -->
<g id="edge9" class="edge">
<title>n_0_1_2&#45;&gt;n_0_1</title>
<path fill="none" stroke="black" d="M433.79,-247.64C432.85,-235.91 431.64,-220.86 430.61,-207.94"/>
<polygon fill="black" stroke="black" points="434.13,-208.03 429.84,-198.34 427.15,-208.59 434.13,-208.03"/>
</g>
<!-- n_2 -->
<g id="node13" class="node">
<title>n_2</title>
<polygon fill="none" stroke="black" points="536.25,-166.38 536.25,-191.62 588.5,-191.62 588.5,-166.38 536.25,-166.38"/>
<text text-anchor="start" x="543.25" y="-177.07" font-family="Times New Roman,serif" font-weight="bold" font-size="9.00">Preschool</text>
<polygon fill="none" stroke="black" points="535.25,-165.38 535.25,-192.62 589.5,-192.62 589.5,-165.38 535.25,-165.38"/>
</g>
<!-- n_0_1_2&#45;&gt;n_2 -->
<g id="edge12" class="edge">
<title>n_0_1_2&#45;&gt;n_2</title>
<path fill="none" stroke="black" d="M464.19,-247.64C483.31,-234.47 508.48,-217.13 528.55,-203.3"/>
<polygon fill="black" stroke="black" points="530.45,-206.25 536.7,-197.69 526.48,-200.48 530.45,-206.25"/>
</g>
<!-- n_0 -->
<g id="node11" class="node">
<title>n_0</title>
<polygon fill="none" stroke="black" points="351.5,-84.38 351.5,-109.62 411.25,-109.62 411.25,-84.38 351.5,-84.38"/>
<text text-anchor="start" x="358.5" y="-95.08" font-family="Times New Roman,serif" font-weight="bold" font-size="9.00">Primary (P)</text>
<polygon fill="none" stroke="black" points="350.5,-83.38 350.5,-110.62 412.25,-110.62 412.25,-83.38 350.5,-83.38"/>
</g>
<!-- n_0_1&#45;&gt;n_0 -->
<g id="edge10" class="edge">
<title>n_0_1&#45;&gt;n_0</title>
<path fill="none" stroke="black" d="M418.41,-161.03C412.24,-150.53 404.18,-136.82 397.16,-124.87"/>
<polygon fill="black" stroke="black" points="400.18,-123.1 392.09,-116.25 394.14,-126.64 400.18,-123.1"/>
</g>
<!-- n_1 -->
<g id="node12" class="node">
<title>n_1</title>
<polygon fill="none" stroke="black" points="458.75,-84.38 458.75,-109.62 520,-109.62 520,-84.38 458.75,-84.38"/>
<text text-anchor="start" x="465.75" y="-95.08" font-family="Times New Roman,serif" font-weight="bold" font-size="9.00">Primary (G)</text>
<polygon fill="none" stroke="black" points="457.75,-83.38 457.75,-110.62 521,-110.62 521,-83.38 457.75,-83.38"/>
</g>
<!-- n_0_1&#45;&gt;n_1 -->
<g id="edge11" class="edge">
<title>n_0_1&#45;&gt;n_1</title>
<path fill="none" stroke="black" d="M441.31,-161.03C449.56,-150.22 460.41,-135.99 469.71,-123.79"/>
<polygon fill="black" stroke="black" points="472.26,-126.22 475.54,-116.15 466.69,-121.97 472.26,-126.22"/>
</g>
</g>
</svg>
