<?xml version="1.0" encoding="UTF-8" standalone="no"?>
<!DOCTYPE svg PUBLIC "-//W3C//DTD SVG 1.1//EN"
 "http://www.w3.org/Graphics/SVG/1.1/DTD/svg11.dtd">
<!-- Generated by graphviz version 10.0.1 (20240210.2158)
 -->
<!-- Title: ND Pages: 1 -->
<svg width="565pt" height="638pt"
 viewBox="0.00 0.00 565.25 638.00" xmlns="http://www.w3.org/2000/svg" xmlns:xlink="http://www.w3.org/1999/xlink">
<g id="graph0" class="graph" transform="scale(1 1) rotate(0) translate(4 634)">
<title>ND</title>
<polygon fill="white" stroke="none" points="-4,4 -4,-634 561.25,-634 561.25,4 -4,4"/>
<!-- n_0_1_2_3_4_5_6 -->
<g id="node1" class="node">
<title>n_0_1_2_3_4_5_6</title>
<polygon fill="none" stroke="black" points="383.38,-557 383.38,-625 453.62,-625 453.62,-557 383.38,-557"/>
<text text-anchor="start" x="394.88" y="-610.45" font-family="Times New Roman,serif" font-weight="bold" font-size="9.00">Primary (G)</text>
<text text-anchor="start" x="399.38" y="-601.45" font-family="Times New Roman,serif" font-weight="bold" font-size="9.00">Preschool</text>
<text text-anchor="start" x="391.12" y="-592.45" font-family="Times New Roman,serif" font-weight="bold" font-size="9.00">Secondary (P)</text>
<text text-anchor="start" x="390.38" y="-583.45" font-family="Times New Roman,serif" font-weight="bold" font-size="9.00">Secondary (G)</text>
<text text-anchor="start" x="399" y="-574.45" font-family="Times New Roman,serif" font-weight="bold" font-size="9.00">Technical</text>
<text text-anchor="start" x="398.25" y="-565.45" font-family="Times New Roman,serif" font-weight="bold" font-size="9.00">University</text>
<polygon fill="none" stroke="black" points="453.62,-557 453.62,-625 513.38,-625 513.38,-557 453.62,-557"/>
<text text-anchor="start" x="460.62" y="-589.08" font-family="Times New Roman,serif" font-weight="bold" font-size="9.00">Primary (P)</text>
<polygon fill="none" stroke="black" points="382.38,-556 382.38,-626 514.38,-626 514.38,-556 382.38,-556"/>
</g>
<!-- n_1_2_3_4_5_6 -->
<g id="node2" class="node">
<title>n_1_2_3_4_5_6</title>
<polygon fill="none" stroke="black" points="317.75,-445 317.75,-504 388,-504 388,-445 317.75,-445"/>
<text text-anchor="start" x="329.25" y="-489.45" font-family="Times New Roman,serif" font-weight="bold" font-size="9.00">Primary (G)</text>
<text text-anchor="start" x="333.75" y="-480.45" font-family="Times New Roman,serif" font-weight="bold" font-size="9.00">Preschool</text>
<text text-anchor="start" x="325.5" y="-471.45" font-family="Times New Roman,serif" font-weight="bold" font-size="9.00">Secondary (P)</text>
<text text-anchor="start" x="324.75" y="-462.45" font-family="Times New Roman,serif" font-weight="bold" font-size="9.00">Secondary (G)</text>
<text text-anchor="start" x="332.62" y="-453.45" font-family="Times New Roman,serif" font-weight="bold" font-size="9.00">University</text>
<polygon fill="none" stroke="black" points="388,-445 388,-504 441,-504 441,-445 388,-445"/>
<text text-anchor="start" x="395" y="-472.57" font-family="Times New Roman,serif" font-weight="bold" font-size="9.00">Technical</text>
<polygon fill="none" stroke="black" points="316.75,-444 316.75,-505 442,-505 442,-444 316.75,-444"/>
</g>
<!-- n_0_1_2_3_4_5_6&#45;&gt;n_1_2_3_4_5_6 -->
<g id="edge1" class="edge">
<title>n_0_1_2_3_4_5_6&#45;&gt;n_1_2_3_4_5_6</title>
<path fill="none" stroke="black" d="M425.59,-552.19C419.03,-541.31 411.83,-529.36 405.11,-518.21"/>
<polygon fill="black" stroke="black" points="408.29,-516.71 400.13,-509.95 402.3,-520.32 408.29,-516.71"/>
</g>
<!-- n_0 -->
<g id="node13" class="node">
<title>n_0</title>
<polygon fill="none" stroke="black" points="488.5,-461.88 488.5,-487.12 548.25,-487.12 548.25,-461.88 488.5,-461.88"/>
<text text-anchor="start" x="495.5" y="-472.57" font-family="Times New Roman,serif" font-weight="bold" font-size="9.00">Primary (P)</text>
<polygon fill="none" stroke="black" points="487.5,-460.88 487.5,-488.12 549.25,-488.12 549.25,-460.88 487.5,-460.88"/>
</g>
<!-- n_0_1_2_3_4_5_6&#45;&gt;n_0 -->
<g id="edge12" class="edge">
<title>n_0_1_2_3_4_5_6&#45;&gt;n_0</title>
<path fill="none" stroke="black" d="M471.49,-552.19C481.52,-535.78 493.03,-516.96 502.13,-502.07"/>
<polygon fill="black" stroke="black" points="504.99,-504.11 507.22,-493.75 499.01,-500.46 504.99,-504.11"/>
</g>
<!-- n_1_2_3_4_6 -->
<g id="node3" class="node">
<title>n_1_2_3_4_6</title>
<polygon fill="none" stroke="black" points="251.12,-342 251.12,-392 321.38,-392 321.38,-342 251.12,-342"/>
<text text-anchor="start" x="262.62" y="-377.45" font-family="Times New Roman,serif" font-weight="bold" font-size="9.00">Primary (G)</text>
<text text-anchor="start" x="258.88" y="-368.45" font-family="Times New Roman,serif" font-weight="bold" font-size="9.00">Secondary (P)</text>
<text text-anchor="start" x="258.12" y="-359.45" font-family="Times New Roman,serif" font-weight="bold" font-size="9.00">Secondary (G)</text>
<text text-anchor="start" x="266" y="-350.45" font-family="Times New Roman,serif" font-weight="bold" font-size="9.00">University</text>
<polygon fill="none" stroke="black" points="321.38,-342 321.38,-392 373.62,-392 373.62,-342 321.38,-342"/>
<text text-anchor="start" x="328.38" y="-365.07" font-family="Times New Roman,serif" font-weight="bold" font-size="9.00">Preschool</text>
<polygon fill="none" stroke="black" points="250.12,-341 250.12,-393 374.62,-393 374.62,-341 250.12,-341"/>
</g>
<!-- n_1_2_3_4_5_6&#45;&gt;n_1_2_3_4_6 -->
<g id="edge2" class="edge">
<title>n_1_2_3_4_5_6&#45;&gt;n_1_2_3_4_6</title>
<path fill="none" stroke="black" d="M358.18,-440.12C351.36,-429.38 343.75,-417.4 336.72,-406.33"/>
<polygon fill="black" stroke="black" points="339.85,-404.74 331.54,-398.18 333.95,-408.49 339.85,-404.74"/>
</g>
<!-- n_5 -->
<g id="node12" class="node">
<title>n_5</title>
<polygon fill="none" stroke="black" points="420.88,-354.38 420.88,-379.62 473.88,-379.62 473.88,-354.38 420.88,-354.38"/>
<text text-anchor="start" x="427.88" y="-365.07" font-family="Times New Roman,serif" font-weight="bold" font-size="9.00">Technical</text>
<polygon fill="none" stroke="black" points="419.88,-353.38 419.88,-380.62 474.88,-380.62 474.88,-353.38 419.88,-353.38"/>
</g>
<!-- n_1_2_3_4_5_6&#45;&gt;n_5 -->
<g id="edge11" class="edge">
<title>n_1_2_3_4_5_6&#45;&gt;n_5</title>
<path fill="none" stroke="black" d="M400.89,-440.12C410.41,-425.35 421.44,-408.23 430.37,-394.38"/>
<polygon fill="black" stroke="black" points="433.15,-396.52 435.63,-386.22 427.27,-392.73 433.15,-396.52"/>
</g>
<!-- n_1_3_4_6 -->
<g id="node4" class="node">
<title>n_1_3_4_6</title>
<polygon fill="none" stroke="black" points="182,-248 182,-289 252.25,-289 252.25,-248 182,-248"/>
<text text-anchor="start" x="193.5" y="-274.45" font-family="Times New Roman,serif" font-weight="bold" font-size="9.00">Primary (G)</text>
<text text-anchor="start" x="189.75" y="-265.45" font-family="Times New Roman,serif" font-weight="bold" font-size="9.00">Secondary (P)</text>
<text text-anchor="start" x="189" y="-256.45" font-family="Times New Roman,serif" font-weight="bold" font-size="9.00">Secondary (G)</text>
<polygon fill="none" stroke="black" points="252.25,-248 252.25,-289 306.75,-289 306.75,-248 252.25,-248"/>
<text text-anchor="start" x="259.25" y="-266.57" font-family="Times New Roman,serif" font-weight="bold" font-size="9.00">University</text>
<polygon fill="none" stroke="black" points="181,-247 181,-290 307.75,-290 307.75,-247 181,-247"/>
</g>
<!-- n_1_2_3_4_6&#45;&gt;n_1_3_4_6 -->
<g id="edge3" class="edge">
<title>n_1_2_3_4_6&#45;&gt;n_1_3_4_6</title>
<path fill="none" stroke="black" d="M291.97,-337.05C284.47,-326.4 275.91,-314.25 268.13,-303.22"/>
<polygon fill="black" stroke="black" points="271.04,-301.27 262.42,-295.11 265.32,-305.3 271.04,-301.27"/>
</g>
<!-- n_2 -->
<g id="node11" class="node">
<title>n_2</title>
<polygon fill="none" stroke="black" points="354.25,-255.88 354.25,-281.12 406.5,-281.12 406.5,-255.88 354.25,-255.88"/>
<text text-anchor="start" x="361.25" y="-266.57" font-family="Times New Roman,serif" font-weight="bold" font-size="9.00">Preschool</text>
<polygon fill="none" stroke="black" points="353.25,-254.88 353.25,-282.12 407.5,-282.12 407.5,-254.88 353.25,-254.88"/>
</g>
<!-- n_1_2_3_4_6&#45;&gt;n_2 -->
<g id="edge10" class="edge">
<title>n_1_2_3_4_6&#45;&gt;n_2</title>
<path fill="none" stroke="black" d="M332.78,-337.05C342.07,-323.86 352.98,-308.38 362.01,-295.56"/>
<polygon fill="black" stroke="black" points="364.72,-297.79 367.62,-287.6 359,-293.76 364.72,-297.79"/>
</g>
<!-- n_1_3_4 -->
<g id="node5" class="node">
<title>n_1_3_4</title>
<polygon fill="none" stroke="black" points="108.62,-163 108.62,-195 178.88,-195 178.88,-163 108.62,-163"/>
<text text-anchor="start" x="116.38" y="-180.45" font-family="Times New Roman,serif" font-weight="bold" font-size="9.00">Secondary (P)</text>
<text text-anchor="start" x="115.62" y="-171.45" font-family="Times New Roman,serif" font-weight="bold" font-size="9.00">Secondary (G)</text>
<polygon fill="none" stroke="black" points="178.88,-163 178.88,-195 240.12,-195 240.12,-163 178.88,-163"/>
<text text-anchor="start" x="185.88" y="-177.07" font-family="Times New Roman,serif" font-weight="bold" font-size="9.00">Primary (G)</text>
<polygon fill="none" stroke="black" points="107.62,-162 107.62,-196 241.12,-196 241.12,-162 107.62,-162"/>
</g>
<!-- n_1_3_4_6&#45;&gt;n_1_3_4 -->
<g id="edge4" class="edge">
<title>n_1_3_4_6&#45;&gt;n_1_3_4</title>
<path fill="none" stroke="black" d="M224.88,-243.13C216.34,-232.46 206.27,-219.87 197.37,-208.75"/>
<polygon fill="black" stroke="black" points="200.16,-206.63 191.18,-201.01 194.7,-211 200.16,-206.63"/>
</g>
<!-- n_6 -->
<g id="node10" class="node">
<title>n_6</title>
<polygon fill="none" stroke="black" points="287.12,-166.38 287.12,-191.62 341.62,-191.62 341.62,-166.38 287.12,-166.38"/>
<text text-anchor="start" x="294.12" y="-177.07" font-family="Times New Roman,serif" font-weight="bold" font-size="9.00">University</text>
<polygon fill="none" stroke="black" points="286.12,-165.38 286.12,-192.62 342.62,-192.62 342.62,-165.38 286.12,-165.38"/>
</g>
<!-- n_1_3_4_6&#45;&gt;n_6 -->
<g id="edge9" class="edge">
<title>n_1_3_4_6&#45;&gt;n_6</title>
<path fill="none" stroke="black" d="M263.87,-243.13C273.19,-231.48 284.35,-217.53 293.81,-205.71"/>
<polygon fill="black" stroke="black" points="296.5,-207.95 300.01,-197.95 291.03,-203.57 296.5,-207.95"/>
</g>
<!-- n_3_4 -->
<g id="node6" class="node">
<title>n_3_4</title>
<polygon fill="none" stroke="black" points="31.88,-84.38 31.88,-109.62 100.62,-109.62 100.62,-84.38 31.88,-84.38"/>
<text text-anchor="start" x="38.88" y="-95.08" font-family="Times New Roman,serif" font-weight="bold" font-size="9.00">Secondary (P)</text>
<polygon fill="none" stroke="black" points="100.62,-84.38 100.62,-109.62 170.88,-109.62 170.88,-84.38 100.62,-84.38"/>
<text text-anchor="start" x="107.62" y="-95.08" font-family="Times New Roman,serif" font-weight="bold" font-size="9.00">Secondary (G)</text>
<polygon fill="none" stroke="black" points="30.88,-83.38 30.88,-110.62 171.88,-110.62 171.88,-83.38 30.88,-83.38"/>
</g>
<!-- n_1_3_4&#45;&gt;n_3_4 -->
<g id="edge5" class="edge">
<title>n_1_3_4&#45;&gt;n_3_4</title>
<path fill="none" stroke="black" d="M156.33,-158.22C146.64,-147.61 134.6,-134.41 124.25,-123.07"/>
<polygon fill="black" stroke="black" points="127.09,-120.99 117.77,-115.96 121.92,-125.71 127.09,-120.99"/>
</g>
<!-- n_1 -->
<g id="node9" class="node">
<title>n_1</title>
<polygon fill="none" stroke="black" points="217.75,-84.38 217.75,-109.62 279,-109.62 279,-84.38 217.75,-84.38"/>
<text text-anchor="start" x="224.75" y="-95.08" font-family="Times New Roman,serif" font-weight="bold" font-size="9.00">Primary (G)</text>
<polygon fill="none" stroke="black" points="216.75,-83.38 216.75,-110.62 280,-110.62 280,-83.38 216.75,-83.38"/>
</g>
<!-- n_1_3_4&#45;&gt;n_1 -->
<g id="edge8" class="edge">
<title>n_1_3_4&#45;&gt;n_1</title>
<path fill="none" stroke="black" d="M192.67,-158.22C202.49,-147.61 214.7,-134.41 225.18,-123.07"/>
<polygon fill="black" stroke="black" points="227.55,-125.67 231.77,-115.95 222.41,-120.92 227.55,-125.67"/>
</g>
<!-- n_3 -->
<g id="node7" class="node">
<title>n_3</title>
<polygon fill="none" stroke="black" points="9,-5.38 9,-30.62 77.75,-30.62 77.75,-5.38 9,-5.38"/>
<text text-anchor="start" x="16" y="-16.07" font-family="Times New Roman,serif" font-weight="bold" font-size="9.00">Secondary (P)</text>
<polygon fill="none" stroke="black" points="8,-4.38 8,-31.62 78.75,-31.62 78.75,-4.38 8,-4.38"/>
</g>
<!-- n_3_4&#45;&gt;n_3 -->
<g id="edge6" class="edge">
<title>n_3_4&#45;&gt;n_3</title>
<path fill="none" stroke="black" d="M88.79,-79.29C81.24,-69.27 71.48,-56.31 62.94,-44.98"/>
<polygon fill="black" stroke="black" points="65.86,-43.03 57.05,-37.15 60.27,-47.24 65.86,-43.03"/>
</g>
<!-- n_4 -->
<g id="node8" class="node">
<title>n_4</title>
<polygon fill="none" stroke="black" points="125.25,-5.38 125.25,-30.62 195.5,-30.62 195.5,-5.38 125.25,-5.38"/>
<text text-anchor="start" x="132.25" y="-16.07" font-family="Times New Roman,serif" font-weight="bold" font-size="9.00">Secondary (G)</text>
<polygon fill="none" stroke="black" points="124.25,-4.38 124.25,-31.62 196.5,-31.62 196.5,-4.38 124.25,-4.38"/>
</g>
<!-- n_3_4&#45;&gt;n_4 -->
<g id="edge7" class="edge">
<title>n_3_4&#45;&gt;n_4</title>
<path fill="none" stroke="black" d="M114.18,-79.29C121.86,-69.27 131.78,-56.31 140.47,-44.98"/>
<polygon fill="black" stroke="black" points="143.17,-47.21 146.47,-37.14 137.61,-42.95 143.17,-47.21"/>
</g>
</g>
</svg>
