<?xml version="1.0" encoding="UTF-8" standalone="no"?>
<!DOCTYPE svg PUBLIC "-//W3C//DTD SVG 1.1//EN"
 "http://www.w3.org/Graphics/SVG/1.1/DTD/svg11.dtd">
<!-- Generated by graphviz version 10.0.1 (20240210.2158)
 -->
<!-- Title: ND Pages: 1 -->
<svg width="671pt" height="311pt"
 viewBox="0.00 0.00 671.00 311.00" xmlns="http://www.w3.org/2000/svg" xmlns:xlink="http://www.w3.org/1999/xlink">
<g id="graph0" class="graph" transform="scale(1 1) rotate(0) translate(4 307)">
<title>ND</title>
<polygon fill="white" stroke="none" points="-4,4 -4,-307 667,-307 667,4 -4,4"/>
<!-- n_0_1_2_3_4_5_6 -->
<g id="node1" class="node">
<title>n_0_1_2_3_4_5_6</title>
<polygon fill="none" stroke="black" points="324.12,-248 324.12,-298 394.38,-298 394.38,-248 324.12,-248"/>
<text text-anchor="start" x="335.62" y="-283.45" font-family="Times New Roman,serif" font-weight="bold" font-size="9.00">Primary (G)</text>
<text text-anchor="start" x="340.12" y="-274.45" font-family="Times New Roman,serif" font-weight="bold" font-size="9.00">Preschool</text>
<text text-anchor="start" x="331.12" y="-265.45" font-family="Times New Roman,serif" font-weight="bold" font-size="9.00">Secondary (G)</text>
<text text-anchor="start" x="339" y="-256.45" font-family="Times New Roman,serif" font-weight="bold" font-size="9.00">University</text>
<polygon fill="none" stroke="black" points="394.38,-248 394.38,-298 463.12,-298 463.12,-248 394.38,-248"/>
<text text-anchor="start" x="405.88" y="-278.95" font-family="Times New Roman,serif" font-weight="bold" font-size="9.00">Primary (P)</text>
<text text-anchor="start" x="401.38" y="-269.95" font-family="Times New Roman,serif" font-weight="bold" font-size="9.00">Secondary (P)</text>
<text text-anchor="start" x="409.25" y="-260.95" font-family="Times New Roman,serif" font-weight="bold" font-size="9.00">Technical</text>
<polygon fill="none" stroke="black" points="323.12,-247 323.12,-299 464.12,-299 464.12,-247 323.12,-247"/>
</g>
<!-- n_1_2_4_6 -->
<g id="node2" class="node">
<title>n_1_2_4_6</title>
<polygon fill="none" stroke="black" points="239.88,-163 239.88,-195 301.12,-195 301.12,-163 239.88,-163"/>
<text text-anchor="start" x="246.88" y="-180.45" font-family="Times New Roman,serif" font-weight="bold" font-size="9.00">Primary (G)</text>
<text text-anchor="start" x="251.38" y="-171.45" font-family="Times New Roman,serif" font-weight="bold" font-size="9.00">Preschool</text>
<polygon fill="none" stroke="black" points="301.12,-163 301.12,-195 371.38,-195 371.38,-163 301.12,-163"/>
<text text-anchor="start" x="308.12" y="-180.45" font-family="Times New Roman,serif" font-weight="bold" font-size="9.00">Secondary (G)</text>
<text text-anchor="start" x="316" y="-171.45" font-family="Times New Roman,serif" font-weight="bold" font-size="9.00">University</text>
<polygon fill="none" stroke="black" points="238.88,-162 238.88,-196 372.38,-196 372.38,-162 238.88,-162"/>
</g>
<!-- n_0_1_2_3_4_5_6&#45;&gt;n_1_2_4_6 -->
<g id="edge1" class="edge">
<title>n_0_1_2_3_4_5_6&#45;&gt;n_1_2_4_6</title>
<path fill="none" stroke="black" d="M366.02,-243.14C355.26,-231.89 342.97,-219.04 332.29,-207.88"/>
<polygon fill="black" stroke="black" points="334.99,-205.63 325.54,-200.82 329.93,-210.47 334.99,-205.63"/>
</g>
<!-- n_0_3_5 -->
<g id="node9" class="node">
<title>n_0_3_5</title>
<polygon fill="none" stroke="black" points="418.38,-163 418.38,-195 478.12,-195 478.12,-163 418.38,-163"/>
<text text-anchor="start" x="425.38" y="-180.45" font-family="Times New Roman,serif" font-weight="bold" font-size="9.00">Primary (P)</text>
<text text-anchor="start" x="428.75" y="-171.45" font-family="Times New Roman,serif" font-weight="bold" font-size="9.00">Technical</text>
<polygon fill="none" stroke="black" points="478.12,-163 478.12,-195 546.88,-195 546.88,-163 478.12,-163"/>
<text text-anchor="start" x="485.12" y="-177.07" font-family="Times New Roman,serif" font-weight="bold" font-size="9.00">Secondary (P)</text>
<polygon fill="none" stroke="black" points="417.38,-162 417.38,-196 547.88,-196 547.88,-162 417.38,-162"/>
</g>
<!-- n_0_1_2_3_4_5_6&#45;&gt;n_0_3_5 -->
<g id="edge8" class="edge">
<title>n_0_1_2_3_4_5_6&#45;&gt;n_0_3_5</title>
<path fill="none" stroke="black" d="M421.54,-243.14C432.43,-231.89 444.86,-219.04 455.65,-207.88"/>
<polygon fill="black" stroke="black" points="458.05,-210.44 462.49,-200.82 453.02,-205.57 458.05,-210.44"/>
</g>
<!-- n_1_2 -->
<g id="node3" class="node">
<title>n_1_2</title>
<polygon fill="none" stroke="black" points="85.88,-84.38 85.88,-109.62 147.12,-109.62 147.12,-84.38 85.88,-84.38"/>
<text text-anchor="start" x="92.88" y="-95.08" font-family="Times New Roman,serif" font-weight="bold" font-size="9.00">Primary (G)</text>
<polygon fill="none" stroke="black" points="147.12,-84.38 147.12,-109.62 199.38,-109.62 199.38,-84.38 147.12,-84.38"/>
<text text-anchor="start" x="154.12" y="-95.08" font-family="Times New Roman,serif" font-weight="bold" font-size="9.00">Preschool</text>
<polygon fill="none" stroke="black" points="84.88,-83.38 84.88,-110.62 200.38,-110.62 200.38,-83.38 84.88,-83.38"/>
</g>
<!-- n_1_2_4_6&#45;&gt;n_1_2 -->
<g id="edge2" class="edge">
<title>n_1_2_4_6&#45;&gt;n_1_2</title>
<path fill="none" stroke="black" d="M264.91,-158.02C241.23,-146.4 211.36,-131.74 187.07,-119.81"/>
<polygon fill="black" stroke="black" points="188.92,-116.82 178.4,-115.56 185.83,-123.1 188.92,-116.82"/>
</g>
<!-- n_4_6 -->
<g id="node6" class="node">
<title>n_4_6</title>
<polygon fill="none" stroke="black" points="246.25,-84.38 246.25,-109.62 316.5,-109.62 316.5,-84.38 246.25,-84.38"/>
<text text-anchor="start" x="253.25" y="-95.08" font-family="Times New Roman,serif" font-weight="bold" font-size="9.00">Secondary (G)</text>
<polygon fill="none" stroke="black" points="316.5,-84.38 316.5,-109.62 371,-109.62 371,-84.38 316.5,-84.38"/>
<text text-anchor="start" x="323.5" y="-95.08" font-family="Times New Roman,serif" font-weight="bold" font-size="9.00">University</text>
<polygon fill="none" stroke="black" points="245.25,-83.38 245.25,-110.62 372,-110.62 372,-83.38 245.25,-83.38"/>
</g>
<!-- n_1_2_4_6&#45;&gt;n_4_6 -->
<g id="edge5" class="edge">
<title>n_1_2_4_6&#45;&gt;n_4_6</title>
<path fill="none" stroke="black" d="M306.37,-158.22C306.73,-148.54 307.17,-136.72 307.57,-126.11"/>
<polygon fill="black" stroke="black" points="311.06,-126.48 307.94,-116.36 304.06,-126.22 311.06,-126.48"/>
</g>
<!-- n_1 -->
<g id="node4" class="node">
<title>n_1</title>
<polygon fill="none" stroke="black" points="9,-5.38 9,-30.62 70.25,-30.62 70.25,-5.38 9,-5.38"/>
<text text-anchor="start" x="16" y="-16.07" font-family="Times New Roman,serif" font-weight="bold" font-size="9.00">Primary (G)</text>
<polygon fill="none" stroke="black" points="8,-4.38 8,-31.62 71.25,-31.62 71.25,-4.38 8,-4.38"/>
</g>
<!-- n_1_2&#45;&gt;n_1 -->
<g id="edge3" class="edge">
<title>n_1_2&#45;&gt;n_1</title>
<path fill="none" stroke="black" d="M120.02,-79.1C105.67,-68.37 86.88,-54.33 71.08,-42.51"/>
<polygon fill="black" stroke="black" points="73.49,-39.95 63.39,-36.76 69.3,-45.56 73.49,-39.95"/>
</g>
<!-- n_2 -->
<g id="node5" class="node">
<title>n_2</title>
<polygon fill="none" stroke="black" points="117.5,-5.38 117.5,-30.62 169.75,-30.62 169.75,-5.38 117.5,-5.38"/>
<text text-anchor="start" x="124.5" y="-16.07" font-family="Times New Roman,serif" font-weight="bold" font-size="9.00">Preschool</text>
<polygon fill="none" stroke="black" points="116.5,-4.38 116.5,-31.62 170.75,-31.62 170.75,-4.38 116.5,-4.38"/>
</g>
<!-- n_1_2&#45;&gt;n_2 -->
<g id="edge4" class="edge">
<title>n_1_2&#45;&gt;n_2</title>
<path fill="none" stroke="black" d="M142.84,-79.29C142.96,-69.97 143.12,-58.11 143.26,-47.38"/>
<polygon fill="black" stroke="black" points="146.76,-47.5 143.39,-37.45 139.76,-47.41 146.76,-47.5"/>
</g>
<!-- n_4 -->
<g id="node7" class="node">
<title>n_4</title>
<polygon fill="none" stroke="black" points="227.5,-5.38 227.5,-30.62 297.75,-30.62 297.75,-5.38 227.5,-5.38"/>
<text text-anchor="start" x="234.5" y="-16.07" font-family="Times New Roman,serif" font-weight="bold" font-size="9.00">Secondary (G)</text>
<polygon fill="none" stroke="black" points="226.5,-4.38 226.5,-31.62 298.75,-31.62 298.75,-4.38 226.5,-4.38"/>
</g>
<!-- n_4_6&#45;&gt;n_4 -->
<g id="edge6" class="edge">
<title>n_4_6&#45;&gt;n_4</title>
<path fill="none" stroke="black" d="M298.64,-79.29C292.78,-69.47 285.22,-56.83 278.55,-45.66"/>
<polygon fill="black" stroke="black" points="281.66,-44.03 273.52,-37.24 275.65,-47.62 281.66,-44.03"/>
</g>
<!-- n_6 -->
<g id="node8" class="node">
<title>n_6</title>
<polygon fill="none" stroke="black" points="344.38,-5.38 344.38,-30.62 398.88,-30.62 398.88,-5.38 344.38,-5.38"/>
<text text-anchor="start" x="351.38" y="-16.07" font-family="Times New Roman,serif" font-weight="bold" font-size="9.00">University</text>
<polygon fill="none" stroke="black" points="343.38,-4.38 343.38,-31.62 399.88,-31.62 399.88,-4.38 343.38,-4.38"/>
</g>
<!-- n_4_6&#45;&gt;n_6 -->
<g id="edge7" class="edge">
<title>n_4_6&#45;&gt;n_6</title>
<path fill="none" stroke="black" d="M322.3,-79.29C330.58,-69.17 341.31,-56.05 350.65,-44.64"/>
<polygon fill="black" stroke="black" points="353.18,-47.07 356.81,-37.11 347.76,-42.64 353.18,-47.07"/>
</g>
<!-- n_0_5 -->
<g id="node10" class="node">
<title>n_0_5</title>
<polygon fill="none" stroke="black" points="425.25,-84.38 425.25,-109.62 485,-109.62 485,-84.38 425.25,-84.38"/>
<text text-anchor="start" x="432.25" y="-95.08" font-family="Times New Roman,serif" font-weight="bold" font-size="9.00">Primary (P)</text>
<polygon fill="none" stroke="black" points="485,-84.38 485,-109.62 538,-109.62 538,-84.38 485,-84.38"/>
<text text-anchor="start" x="492" y="-95.08" font-family="Times New Roman,serif" font-weight="bold" font-size="9.00">Technical</text>
<polygon fill="none" stroke="black" points="424.25,-83.38 424.25,-110.62 539,-110.62 539,-83.38 424.25,-83.38"/>
</g>
<!-- n_0_3_5&#45;&gt;n_0_5 -->
<g id="edge9" class="edge">
<title>n_0_3_5&#45;&gt;n_0_5</title>
<path fill="none" stroke="black" d="M482.38,-158.22C482.26,-148.54 482.11,-136.72 481.98,-126.11"/>
<polygon fill="black" stroke="black" points="485.48,-126.31 481.85,-116.36 478.48,-126.4 485.48,-126.31"/>
</g>
<!-- n_3 -->
<g id="node13" class="node">
<title>n_3</title>
<polygon fill="none" stroke="black" points="585.25,-84.38 585.25,-109.62 654,-109.62 654,-84.38 585.25,-84.38"/>
<text text-anchor="start" x="592.25" y="-95.08" font-family="Times New Roman,serif" font-weight="bold" font-size="9.00">Secondary (P)</text>
<polygon fill="none" stroke="black" points="584.25,-83.38 584.25,-110.62 655,-110.62 655,-83.38 584.25,-83.38"/>
</g>
<!-- n_0_3_5&#45;&gt;n_3 -->
<g id="edge12" class="edge">
<title>n_0_3_5&#45;&gt;n_3</title>
<path fill="none" stroke="black" d="M516.84,-158.02C536.37,-146.62 560.9,-132.29 581.1,-120.49"/>
<polygon fill="black" stroke="black" points="582.75,-123.59 589.62,-115.52 579.22,-117.54 582.75,-123.59"/>
</g>
<!-- n_0 -->
<g id="node11" class="node">
<title>n_0</title>
<polygon fill="none" stroke="black" points="450.75,-5.38 450.75,-30.62 510.5,-30.62 510.5,-5.38 450.75,-5.38"/>
<text text-anchor="start" x="457.75" y="-16.07" font-family="Times New Roman,serif" font-weight="bold" font-size="9.00">Primary (P)</text>
<polygon fill="none" stroke="black" points="449.75,-4.38 449.75,-31.62 511.5,-31.62 511.5,-4.38 449.75,-4.38"/>
</g>
<!-- n_0_5&#45;&gt;n_0 -->
<g id="edge10" class="edge">
<title>n_0_5&#45;&gt;n_0</title>
<path fill="none" stroke="black" d="M481.41,-79.29C481.29,-69.97 481.13,-58.11 480.99,-47.38"/>
<polygon fill="black" stroke="black" points="484.49,-47.41 480.86,-37.45 477.49,-47.5 484.49,-47.41"/>
</g>
<!-- n_5 -->
<g id="node12" class="node">
<title>n_5</title>
<polygon fill="none" stroke="black" points="557.12,-5.38 557.12,-30.62 610.12,-30.62 610.12,-5.38 557.12,-5.38"/>
<text text-anchor="start" x="564.12" y="-16.07" font-family="Times New Roman,serif" font-weight="bold" font-size="9.00">Technical</text>
<polygon fill="none" stroke="black" points="556.12,-4.38 556.12,-31.62 611.12,-31.62 611.12,-4.38 556.12,-4.38"/>
</g>
<!-- n_0_5&#45;&gt;n_5 -->
<g id="edge11" class="edge">
<title>n_0_5&#45;&gt;n_5</title>
<path fill="none" stroke="black" d="M504.01,-79.1C518.23,-68.37 536.83,-54.33 552.48,-42.51"/>
<polygon fill="black" stroke="black" points="554.21,-45.59 560.08,-36.77 549.99,-40 554.21,-45.59"/>
</g>
</g>
</svg>
