<?xml version="1.0" encoding="UTF-8" standalone="no"?>
<!DOCTYPE svg PUBLIC "-//W3C//DTD SVG 1.1//EN"
 "http://www.w3.org/Graphics/SVG/1.1/DTD/svg11.dtd">
<!-- Generated by graphviz version 10.0.1 (20240210.2158)
 -->
<!-- Title: ND Pages: 1 -->
<svg width="602pt" height="405pt"
 viewBox="0.00 0.00 602.00 405.00" xmlns="http://www.w3.org/2000/svg" xmlns:xlink="http://www.w3.org/1999/xlink">
<g id="graph0" class="graph" transform="scale(1 1) rotate(0) translate(4 401)">
<title>ND</title>
<polygon fill="white" stroke="none" points="-4,4 -4,-401 598,-401 598,4 -4,4"/>
<!-- n_0_1_2_3_4_5_6 -->
<g id="node1" class="node">
<title>n_0_1_2_3_4_5_6</title>
<polygon fill="none" stroke="black" points="267.12,-342 267.12,-392 337.38,-392 337.38,-342 267.12,-342"/>
<text text-anchor="start" x="278.62" y="-377.45" font-family="Times New Roman,serif" font-weight="bold" font-size="9.00">Primary (G)</text>
<text text-anchor="start" x="274.12" y="-368.45" font-family="Times New Roman,serif" font-weight="bold" font-size="9.00">Secondary (G)</text>
<text text-anchor="start" x="282.75" y="-359.45" font-family="Times New Roman,serif" font-weight="bold" font-size="9.00">Technical</text>
<text text-anchor="start" x="282" y="-350.45" font-family="Times New Roman,serif" font-weight="bold" font-size="9.00">University</text>
<polygon fill="none" stroke="black" points="337.38,-342 337.38,-392 406.12,-392 406.12,-342 337.38,-342"/>
<text text-anchor="start" x="348.88" y="-372.95" font-family="Times New Roman,serif" font-weight="bold" font-size="9.00">Primary (P)</text>
<text text-anchor="start" x="352.62" y="-363.95" font-family="Times New Roman,serif" font-weight="bold" font-size="9.00">Preschool</text>
<text text-anchor="start" x="344.38" y="-354.95" font-family="Times New Roman,serif" font-weight="bold" font-size="9.00">Secondary (P)</text>
<polygon fill="none" stroke="black" points="266.12,-341 266.12,-393 407.12,-393 407.12,-341 266.12,-341"/>
</g>
<!-- n_1_4_5_6 -->
<g id="node2" class="node">
<title>n_1_4_5_6</title>
<polygon fill="none" stroke="black" points="182.88,-248 182.88,-289 244.12,-289 244.12,-248 182.88,-248"/>
<text text-anchor="start" x="189.88" y="-274.45" font-family="Times New Roman,serif" font-weight="bold" font-size="9.00">Primary (G)</text>
<text text-anchor="start" x="194" y="-265.45" font-family="Times New Roman,serif" font-weight="bold" font-size="9.00">Technical</text>
<text text-anchor="start" x="193.25" y="-256.45" font-family="Times New Roman,serif" font-weight="bold" font-size="9.00">University</text>
<polygon fill="none" stroke="black" points="244.12,-248 244.12,-289 314.38,-289 314.38,-248 244.12,-248"/>
<text text-anchor="start" x="251.12" y="-266.57" font-family="Times New Roman,serif" font-weight="bold" font-size="9.00">Secondary (G)</text>
<polygon fill="none" stroke="black" points="181.88,-247 181.88,-290 315.38,-290 315.38,-247 181.88,-247"/>
</g>
<!-- n_0_1_2_3_4_5_6&#45;&gt;n_1_4_5_6 -->
<g id="edge1" class="edge">
<title>n_0_1_2_3_4_5_6&#45;&gt;n_1_4_5_6</title>
<path fill="none" stroke="black" d="M310.22,-337.05C300.22,-326.08 288.76,-313.51 278.46,-302.22"/>
<polygon fill="black" stroke="black" points="281.2,-300.02 271.87,-294.99 276.02,-304.74 281.2,-300.02"/>
</g>
<!-- n_0_2_3 -->
<g id="node9" class="node">
<title>n_0_2_3</title>
<polygon fill="none" stroke="black" points="361.38,-252.5 361.38,-284.5 421.12,-284.5 421.12,-252.5 361.38,-252.5"/>
<text text-anchor="start" x="368.38" y="-269.95" font-family="Times New Roman,serif" font-weight="bold" font-size="9.00">Primary (P)</text>
<text text-anchor="start" x="372.12" y="-260.95" font-family="Times New Roman,serif" font-weight="bold" font-size="9.00">Preschool</text>
<polygon fill="none" stroke="black" points="421.12,-252.5 421.12,-284.5 489.88,-284.5 489.88,-252.5 421.12,-252.5"/>
<text text-anchor="start" x="428.12" y="-266.57" font-family="Times New Roman,serif" font-weight="bold" font-size="9.00">Secondary (P)</text>
<polygon fill="none" stroke="black" points="360.38,-251.5 360.38,-285.5 490.88,-285.5 490.88,-251.5 360.38,-251.5"/>
</g>
<!-- n_0_1_2_3_4_5_6&#45;&gt;n_0_2_3 -->
<g id="edge8" class="edge">
<title>n_0_1_2_3_4_5_6&#45;&gt;n_0_2_3</title>
<path fill="none" stroke="black" d="M363.33,-337.05C374.89,-324.51 388.38,-309.89 399.84,-297.46"/>
<polygon fill="black" stroke="black" points="402.17,-300.1 406.38,-290.37 397.02,-295.35 402.17,-300.1"/>
</g>
<!-- n_1_5_6 -->
<g id="node3" class="node">
<title>n_1_5_6</title>
<polygon fill="none" stroke="black" points="64.5,-163 64.5,-195 125.75,-195 125.75,-163 64.5,-163"/>
<text text-anchor="start" x="71.5" y="-180.45" font-family="Times New Roman,serif" font-weight="bold" font-size="9.00">Primary (G)</text>
<text text-anchor="start" x="74.88" y="-171.45" font-family="Times New Roman,serif" font-weight="bold" font-size="9.00">University</text>
<polygon fill="none" stroke="black" points="125.75,-163 125.75,-195 178.75,-195 178.75,-163 125.75,-163"/>
<text text-anchor="start" x="132.75" y="-177.07" font-family="Times New Roman,serif" font-weight="bold" font-size="9.00">Technical</text>
<polygon fill="none" stroke="black" points="63.5,-162 63.5,-196 179.75,-196 179.75,-162 63.5,-162"/>
</g>
<!-- n_1_4_5_6&#45;&gt;n_1_5_6 -->
<g id="edge2" class="edge">
<title>n_1_4_5_6&#45;&gt;n_1_5_6</title>
<path fill="none" stroke="black" d="M213.25,-243.13C196.53,-231.61 176.55,-217.84 159.52,-206.11"/>
<polygon fill="black" stroke="black" points="161.87,-203.48 151.65,-200.68 157.9,-209.24 161.87,-203.48"/>
</g>
<!-- n_4 -->
<g id="node8" class="node">
<title>n_4</title>
<polygon fill="none" stroke="black" points="225.5,-166.38 225.5,-191.62 295.75,-191.62 295.75,-166.38 225.5,-166.38"/>
<text text-anchor="start" x="232.5" y="-177.07" font-family="Times New Roman,serif" font-weight="bold" font-size="9.00">Secondary (G)</text>
<polygon fill="none" stroke="black" points="224.5,-165.38 224.5,-192.62 296.75,-192.62 296.75,-165.38 224.5,-165.38"/>
</g>
<!-- n_1_4_5_6&#45;&gt;n_4 -->
<g id="edge7" class="edge">
<title>n_1_4_5_6&#45;&gt;n_4</title>
<path fill="none" stroke="black" d="M251.97,-243.13C253.47,-232.17 255.25,-219.18 256.81,-207.84"/>
<polygon fill="black" stroke="black" points="260.23,-208.65 258.12,-198.27 253.29,-207.7 260.23,-208.65"/>
</g>
<!-- n_1_6 -->
<g id="node4" class="node">
<title>n_1_6</title>
<polygon fill="none" stroke="black" points="33.75,-84.38 33.75,-109.62 95,-109.62 95,-84.38 33.75,-84.38"/>
<text text-anchor="start" x="40.75" y="-95.08" font-family="Times New Roman,serif" font-weight="bold" font-size="9.00">Primary (G)</text>
<polygon fill="none" stroke="black" points="95,-84.38 95,-109.62 149.5,-109.62 149.5,-84.38 95,-84.38"/>
<text text-anchor="start" x="102" y="-95.08" font-family="Times New Roman,serif" font-weight="bold" font-size="9.00">University</text>
<polygon fill="none" stroke="black" points="32.75,-83.38 32.75,-110.62 150.5,-110.62 150.5,-83.38 32.75,-83.38"/>
</g>
<!-- n_1_5_6&#45;&gt;n_1_6 -->
<g id="edge3" class="edge">
<title>n_1_5_6&#45;&gt;n_1_6</title>
<path fill="none" stroke="black" d="M114.21,-158.22C110.5,-148.33 105.95,-136.21 101.91,-125.43"/>
<polygon fill="black" stroke="black" points="105.26,-124.4 98.47,-116.26 98.71,-126.85 105.26,-124.4"/>
</g>
<!-- n_5 -->
<g id="node7" class="node">
<title>n_5</title>
<polygon fill="none" stroke="black" points="196.12,-84.38 196.12,-109.62 249.12,-109.62 249.12,-84.38 196.12,-84.38"/>
<text text-anchor="start" x="203.12" y="-95.08" font-family="Times New Roman,serif" font-weight="bold" font-size="9.00">Technical</text>
<polygon fill="none" stroke="black" points="195.12,-83.38 195.12,-110.62 250.12,-110.62 250.12,-83.38 195.12,-83.38"/>
</g>
<!-- n_1_5_6&#45;&gt;n_5 -->
<g id="edge6" class="edge">
<title>n_1_5_6&#45;&gt;n_5</title>
<path fill="none" stroke="black" d="M146.85,-158.02C160.79,-146.98 178.18,-133.2 192.79,-121.63"/>
<polygon fill="black" stroke="black" points="194.62,-124.65 200.28,-115.7 190.27,-119.16 194.62,-124.65"/>
</g>
<!-- n_1 -->
<g id="node5" class="node">
<title>n_1</title>
<polygon fill="none" stroke="black" points="9,-5.38 9,-30.62 70.25,-30.62 70.25,-5.38 9,-5.38"/>
<text text-anchor="start" x="16" y="-16.07" font-family="Times New Roman,serif" font-weight="bold" font-size="9.00">Primary (G)</text>
<polygon fill="none" stroke="black" points="8,-4.38 8,-31.62 71.25,-31.62 71.25,-4.38 8,-4.38"/>
</g>
<!-- n_1_6&#45;&gt;n_1 -->
<g id="edge4" class="edge">
<title>n_1_6&#45;&gt;n_1</title>
<path fill="none" stroke="black" d="M80.34,-79.29C73.64,-69.37 65,-56.57 57.4,-45.32"/>
<polygon fill="black" stroke="black" points="60.41,-43.52 51.91,-37.2 54.61,-47.44 60.41,-43.52"/>
</g>
<!-- n_6 -->
<g id="node6" class="node">
<title>n_6</title>
<polygon fill="none" stroke="black" points="117.38,-5.38 117.38,-30.62 171.88,-30.62 171.88,-5.38 117.38,-5.38"/>
<text text-anchor="start" x="124.38" y="-16.07" font-family="Times New Roman,serif" font-weight="bold" font-size="9.00">University</text>
<polygon fill="none" stroke="black" points="116.38,-4.38 116.38,-31.62 172.88,-31.62 172.88,-4.38 116.38,-4.38"/>
</g>
<!-- n_1_6&#45;&gt;n_6 -->
<g id="edge5" class="edge">
<title>n_1_6&#45;&gt;n_6</title>
<path fill="none" stroke="black" d="M103.13,-79.29C109.95,-69.37 118.76,-56.57 126.51,-45.32"/>
<polygon fill="black" stroke="black" points="129.32,-47.41 132.11,-37.19 123.55,-43.44 129.32,-47.41"/>
</g>
<!-- n_0_2 -->
<g id="node10" class="node">
<title>n_0_2</title>
<polygon fill="none" stroke="black" points="357.62,-166.38 357.62,-191.62 417.38,-191.62 417.38,-166.38 357.62,-166.38"/>
<text text-anchor="start" x="364.62" y="-177.07" font-family="Times New Roman,serif" font-weight="bold" font-size="9.00">Primary (P)</text>
<polygon fill="none" stroke="black" points="417.38,-166.38 417.38,-191.62 469.62,-191.62 469.62,-166.38 417.38,-166.38"/>
<text text-anchor="start" x="424.38" y="-177.07" font-family="Times New Roman,serif" font-weight="bold" font-size="9.00">Preschool</text>
<polygon fill="none" stroke="black" points="356.62,-165.38 356.62,-192.62 470.62,-192.62 470.62,-165.38 356.62,-165.38"/>
</g>
<!-- n_0_2_3&#45;&gt;n_0_2 -->
<g id="edge9" class="edge">
<title>n_0_2_3&#45;&gt;n_0_2</title>
<path fill="none" stroke="black" d="M422.9,-247.64C421.29,-235.91 419.23,-220.86 417.46,-207.94"/>
<polygon fill="black" stroke="black" points="420.97,-207.76 416.14,-198.33 414.03,-208.71 420.97,-207.76"/>
</g>
<!-- n_3 -->
<g id="node13" class="node">
<title>n_3</title>
<polygon fill="none" stroke="black" points="516.25,-166.38 516.25,-191.62 585,-191.62 585,-166.38 516.25,-166.38"/>
<text text-anchor="start" x="523.25" y="-177.07" font-family="Times New Roman,serif" font-weight="bold" font-size="9.00">Secondary (P)</text>
<polygon fill="none" stroke="black" points="515.25,-165.38 515.25,-192.62 586,-192.62 586,-165.38 515.25,-165.38"/>
</g>
<!-- n_0_2_3&#45;&gt;n_3 -->
<g id="edge12" class="edge">
<title>n_0_2_3&#45;&gt;n_3</title>
<path fill="none" stroke="black" d="M453.99,-247.64C472.81,-234.47 497.58,-217.13 517.33,-203.3"/>
<polygon fill="black" stroke="black" points="519.15,-206.3 525.34,-197.7 515.14,-200.57 519.15,-206.3"/>
</g>
<!-- n_0 -->
<g id="node11" class="node">
<title>n_0</title>
<polygon fill="none" stroke="black" points="339.75,-84.38 339.75,-109.62 399.5,-109.62 399.5,-84.38 339.75,-84.38"/>
<text text-anchor="start" x="346.75" y="-95.08" font-family="Times New Roman,serif" font-weight="bold" font-size="9.00">Primary (P)</text>
<polygon fill="none" stroke="black" points="338.75,-83.38 338.75,-110.62 400.5,-110.62 400.5,-83.38 338.75,-83.38"/>
</g>
<!-- n_0_2&#45;&gt;n_0 -->
<g id="edge10" class="edge">
<title>n_0_2&#45;&gt;n_0</title>
<path fill="none" stroke="black" d="M404.29,-161.03C398.52,-150.53 390.98,-136.82 384.4,-124.87"/>
<polygon fill="black" stroke="black" points="387.56,-123.34 379.67,-116.27 381.42,-126.72 387.56,-123.34"/>
</g>
<!-- n_2 -->
<g id="node12" class="node">
<title>n_2</title>
<polygon fill="none" stroke="black" points="446.5,-84.38 446.5,-109.62 498.75,-109.62 498.75,-84.38 446.5,-84.38"/>
<text text-anchor="start" x="453.5" y="-95.08" font-family="Times New Roman,serif" font-weight="bold" font-size="9.00">Preschool</text>
<polygon fill="none" stroke="black" points="445.5,-83.38 445.5,-110.62 499.75,-110.62 499.75,-83.38 445.5,-83.38"/>
</g>
<!-- n_0_2&#45;&gt;n_2 -->
<g id="edge11" class="edge">
<title>n_0_2&#45;&gt;n_2</title>
<path fill="none" stroke="black" d="M426.14,-161.03C434.04,-150.32 444.4,-136.27 453.34,-124.15"/>
<polygon fill="black" stroke="black" points="456.11,-126.29 459.23,-116.16 450.48,-122.13 456.11,-126.29"/>
</g>
</g>
</svg>
