<?xml version="1.0" encoding="UTF-8" standalone="no"?>
<!DOCTYPE svg PUBLIC "-//W3C//DTD SVG 1.1//EN"
 "http://www.w3.org/Graphics/SVG/1.1/DTD/svg11.dtd">
<!-- Generated by graphviz version 10.0.1 (20240210.2158)
 -->
<!-- Title: ND Pages: 1 -->
<svg width="551pt" height="638pt"
 viewBox="0.00 0.00 550.62 638.00" xmlns="http://www.w3.org/2000/svg" xmlns:xlink="http://www.w3.org/1999/xlink">
<g id="graph0" class="graph" transform="scale(1 1) rotate(0) translate(4 634)">
<title>ND</title>
<polygon fill="white" stroke="none" points="-4,4 -4,-634 546.62,-634 546.62,4 -4,4"/>
<!-- n_0_1_2_3_4_5_6 -->
<g id="node1" class="node">
<title>n_0_1_2_3_4_5_6</title>
<polygon fill="none" stroke="black" points="375.5,-557 375.5,-625 445.75,-625 445.75,-557 375.5,-557"/>
<text text-anchor="start" x="387.75" y="-610.45" font-family="Times New Roman,serif" font-weight="bold" font-size="9.00">Primary (P)</text>
<text text-anchor="start" x="387" y="-601.45" font-family="Times New Roman,serif" font-weight="bold" font-size="9.00">Primary (G)</text>
<text text-anchor="start" x="391.5" y="-592.45" font-family="Times New Roman,serif" font-weight="bold" font-size="9.00">Preschool</text>
<text text-anchor="start" x="383.25" y="-583.45" font-family="Times New Roman,serif" font-weight="bold" font-size="9.00">Secondary (P)</text>
<text text-anchor="start" x="382.5" y="-574.45" font-family="Times New Roman,serif" font-weight="bold" font-size="9.00">Secondary (G)</text>
<text text-anchor="start" x="390.38" y="-565.45" font-family="Times New Roman,serif" font-weight="bold" font-size="9.00">University</text>
<polygon fill="none" stroke="black" points="445.75,-557 445.75,-625 498.75,-625 498.75,-557 445.75,-557"/>
<text text-anchor="start" x="452.75" y="-589.08" font-family="Times New Roman,serif" font-weight="bold" font-size="9.00">Technical</text>
<polygon fill="none" stroke="black" points="374.5,-556 374.5,-626 499.75,-626 499.75,-556 374.5,-556"/>
</g>
<!-- n_0_1_2_3_4_6 -->
<g id="node2" class="node">
<title>n_0_1_2_3_4_6</title>
<polygon fill="none" stroke="black" points="303.12,-445 303.12,-504 373.38,-504 373.38,-445 303.12,-445"/>
<text text-anchor="start" x="314.62" y="-489.45" font-family="Times New Roman,serif" font-weight="bold" font-size="9.00">Primary (G)</text>
<text text-anchor="start" x="319.12" y="-480.45" font-family="Times New Roman,serif" font-weight="bold" font-size="9.00">Preschool</text>
<text text-anchor="start" x="310.88" y="-471.45" font-family="Times New Roman,serif" font-weight="bold" font-size="9.00">Secondary (P)</text>
<text text-anchor="start" x="310.12" y="-462.45" font-family="Times New Roman,serif" font-weight="bold" font-size="9.00">Secondary (G)</text>
<text text-anchor="start" x="318" y="-453.45" font-family="Times New Roman,serif" font-weight="bold" font-size="9.00">University</text>
<polygon fill="none" stroke="black" points="373.38,-445 373.38,-504 433.12,-504 433.12,-445 373.38,-445"/>
<text text-anchor="start" x="380.38" y="-472.57" font-family="Times New Roman,serif" font-weight="bold" font-size="9.00">Primary (P)</text>
<polygon fill="none" stroke="black" points="302.12,-444 302.12,-505 434.12,-505 434.12,-444 302.12,-444"/>
</g>
<!-- n_0_1_2_3_4_5_6&#45;&gt;n_0_1_2_3_4_6 -->
<g id="edge1" class="edge">
<title>n_0_1_2_3_4_5_6&#45;&gt;n_0_1_2_3_4_6</title>
<path fill="none" stroke="black" d="M414.34,-552.19C407.78,-541.31 400.58,-529.36 393.86,-518.21"/>
<polygon fill="black" stroke="black" points="397.04,-516.71 388.88,-509.95 391.05,-520.32 397.04,-516.71"/>
</g>
<!-- n_5 -->
<g id="node13" class="node">
<title>n_5</title>
<polygon fill="none" stroke="black" points="480.62,-461.88 480.62,-487.12 533.62,-487.12 533.62,-461.88 480.62,-461.88"/>
<text text-anchor="start" x="487.62" y="-472.57" font-family="Times New Roman,serif" font-weight="bold" font-size="9.00">Technical</text>
<polygon fill="none" stroke="black" points="479.62,-460.88 479.62,-488.12 534.62,-488.12 534.62,-460.88 479.62,-460.88"/>
</g>
<!-- n_0_1_2_3_4_5_6&#45;&gt;n_5 -->
<g id="edge12" class="edge">
<title>n_0_1_2_3_4_5_6&#45;&gt;n_5</title>
<path fill="none" stroke="black" d="M460.24,-552.19C470.27,-535.78 481.78,-516.96 490.88,-502.07"/>
<polygon fill="black" stroke="black" points="493.74,-504.11 495.97,-493.75 487.76,-500.46 493.74,-504.11"/>
</g>
<!-- n_1_2_3_4_6 -->
<g id="node3" class="node">
<title>n_1_2_3_4_6</title>
<polygon fill="none" stroke="black" points="231.38,-342 231.38,-392 301.62,-392 301.62,-342 231.38,-342"/>
<text text-anchor="start" x="247.38" y="-377.45" font-family="Times New Roman,serif" font-weight="bold" font-size="9.00">Preschool</text>
<text text-anchor="start" x="239.12" y="-368.45" font-family="Times New Roman,serif" font-weight="bold" font-size="9.00">Secondary (P)</text>
<text text-anchor="start" x="238.38" y="-359.45" font-family="Times New Roman,serif" font-weight="bold" font-size="9.00">Secondary (G)</text>
<text text-anchor="start" x="246.25" y="-350.45" font-family="Times New Roman,serif" font-weight="bold" font-size="9.00">University</text>
<polygon fill="none" stroke="black" points="301.62,-342 301.62,-392 362.88,-392 362.88,-342 301.62,-342"/>
<text text-anchor="start" x="308.62" y="-365.07" font-family="Times New Roman,serif" font-weight="bold" font-size="9.00">Primary (G)</text>
<polygon fill="none" stroke="black" points="230.38,-341 230.38,-393 363.88,-393 363.88,-341 230.38,-341"/>
</g>
<!-- n_0_1_2_3_4_6&#45;&gt;n_1_2_3_4_6 -->
<g id="edge2" class="edge">
<title>n_0_1_2_3_4_6&#45;&gt;n_1_2_3_4_6</title>
<path fill="none" stroke="black" d="M345.66,-440.12C338.43,-429.38 330.37,-417.4 322.92,-406.33"/>
<polygon fill="black" stroke="black" points="325.91,-404.5 317.42,-398.15 320.1,-408.4 325.91,-404.5"/>
</g>
<!-- n_0 -->
<g id="node12" class="node">
<title>n_0</title>
<polygon fill="none" stroke="black" points="410.25,-354.38 410.25,-379.62 470,-379.62 470,-354.38 410.25,-354.38"/>
<text text-anchor="start" x="417.25" y="-365.07" font-family="Times New Roman,serif" font-weight="bold" font-size="9.00">Primary (P)</text>
<polygon fill="none" stroke="black" points="409.25,-353.38 409.25,-380.62 471,-380.62 471,-353.38 409.25,-353.38"/>
</g>
<!-- n_0_1_2_3_4_6&#45;&gt;n_0 -->
<g id="edge11" class="edge">
<title>n_0_1_2_3_4_6&#45;&gt;n_0</title>
<path fill="none" stroke="black" d="M390.91,-440.12C400.98,-425.35 412.67,-408.23 422.12,-394.38"/>
<polygon fill="black" stroke="black" points="424.96,-396.43 427.7,-386.2 419.18,-392.49 424.96,-396.43"/>
</g>
<!-- n_2_3_4_6 -->
<g id="node4" class="node">
<title>n_2_3_4_6</title>
<polygon fill="none" stroke="black" points="154.62,-248 154.62,-289 223.38,-289 223.38,-248 154.62,-248"/>
<text text-anchor="start" x="169.88" y="-274.45" font-family="Times New Roman,serif" font-weight="bold" font-size="9.00">Preschool</text>
<text text-anchor="start" x="161.62" y="-265.45" font-family="Times New Roman,serif" font-weight="bold" font-size="9.00">Secondary (P)</text>
<text text-anchor="start" x="168.75" y="-256.45" font-family="Times New Roman,serif" font-weight="bold" font-size="9.00">University</text>
<polygon fill="none" stroke="black" points="223.38,-248 223.38,-289 293.62,-289 293.62,-248 223.38,-248"/>
<text text-anchor="start" x="230.38" y="-266.57" font-family="Times New Roman,serif" font-weight="bold" font-size="9.00">Secondary (G)</text>
<polygon fill="none" stroke="black" points="153.62,-247 153.62,-290 294.62,-290 294.62,-247 153.62,-247"/>
</g>
<!-- n_1_2_3_4_6&#45;&gt;n_2_3_4_6 -->
<g id="edge3" class="edge">
<title>n_1_2_3_4_6&#45;&gt;n_2_3_4_6</title>
<path fill="none" stroke="black" d="M275.22,-337.05C267.09,-326.29 257.79,-314 249.38,-302.88"/>
<polygon fill="black" stroke="black" points="252.3,-300.95 243.48,-295.08 246.72,-305.17 252.3,-300.95"/>
</g>
<!-- n_1 -->
<g id="node11" class="node">
<title>n_1</title>
<polygon fill="none" stroke="black" points="340.5,-255.88 340.5,-281.12 401.75,-281.12 401.75,-255.88 340.5,-255.88"/>
<text text-anchor="start" x="347.5" y="-266.57" font-family="Times New Roman,serif" font-weight="bold" font-size="9.00">Primary (G)</text>
<polygon fill="none" stroke="black" points="339.5,-254.88 339.5,-282.12 402.75,-282.12 402.75,-254.88 339.5,-254.88"/>
</g>
<!-- n_1_2_3_4_6&#45;&gt;n_1 -->
<g id="edge10" class="edge">
<title>n_1_2_3_4_6&#45;&gt;n_1</title>
<path fill="none" stroke="black" d="M319.33,-337.05C329.54,-323.73 341.54,-308.07 351.43,-295.19"/>
<polygon fill="black" stroke="black" points="353.96,-297.63 357.27,-287.57 348.41,-293.37 353.96,-297.63"/>
</g>
<!-- n_2_3_6 -->
<g id="node5" class="node">
<title>n_2_3_6</title>
<polygon fill="none" stroke="black" points="90.5,-163 90.5,-195 145,-195 145,-163 90.5,-163"/>
<text text-anchor="start" x="98.62" y="-180.45" font-family="Times New Roman,serif" font-weight="bold" font-size="9.00">Preschool</text>
<text text-anchor="start" x="97.5" y="-171.45" font-family="Times New Roman,serif" font-weight="bold" font-size="9.00">University</text>
<polygon fill="none" stroke="black" points="145,-163 145,-195 213.75,-195 213.75,-163 145,-163"/>
<text text-anchor="start" x="152" y="-177.07" font-family="Times New Roman,serif" font-weight="bold" font-size="9.00">Secondary (P)</text>
<polygon fill="none" stroke="black" points="89.5,-162 89.5,-196 214.75,-196 214.75,-162 89.5,-162"/>
</g>
<!-- n_2_3_4_6&#45;&gt;n_2_3_6 -->
<g id="edge4" class="edge">
<title>n_2_3_4_6&#45;&gt;n_2_3_6</title>
<path fill="none" stroke="black" d="M204.07,-243.13C195.2,-232.35 184.72,-219.62 175.51,-208.41"/>
<polygon fill="black" stroke="black" points="178.46,-206.49 169.4,-200.99 173.05,-210.94 178.46,-206.49"/>
</g>
<!-- n_4 -->
<g id="node10" class="node">
<title>n_4</title>
<polygon fill="none" stroke="black" points="261,-166.38 261,-191.62 331.25,-191.62 331.25,-166.38 261,-166.38"/>
<text text-anchor="start" x="268" y="-177.07" font-family="Times New Roman,serif" font-weight="bold" font-size="9.00">Secondary (G)</text>
<polygon fill="none" stroke="black" points="260,-165.38 260,-192.62 332.25,-192.62 332.25,-165.38 260,-165.38"/>
</g>
<!-- n_2_3_4_6&#45;&gt;n_4 -->
<g id="edge9" class="edge">
<title>n_2_3_4_6&#45;&gt;n_4</title>
<path fill="none" stroke="black" d="M244.18,-243.13C253.86,-231.36 265.47,-217.25 275.26,-205.36"/>
<polygon fill="black" stroke="black" points="277.71,-207.89 281.36,-197.94 272.31,-203.44 277.71,-207.89"/>
</g>
<!-- n_2_6 -->
<g id="node6" class="node">
<title>n_2_6</title>
<polygon fill="none" stroke="black" points="31.75,-84.38 31.75,-109.62 84,-109.62 84,-84.38 31.75,-84.38"/>
<text text-anchor="start" x="38.75" y="-95.08" font-family="Times New Roman,serif" font-weight="bold" font-size="9.00">Preschool</text>
<polygon fill="none" stroke="black" points="84,-84.38 84,-109.62 138.5,-109.62 138.5,-84.38 84,-84.38"/>
<text text-anchor="start" x="91" y="-95.08" font-family="Times New Roman,serif" font-weight="bold" font-size="9.00">University</text>
<polygon fill="none" stroke="black" points="30.75,-83.38 30.75,-110.62 139.5,-110.62 139.5,-83.38 30.75,-83.38"/>
</g>
<!-- n_2_3_6&#45;&gt;n_2_6 -->
<g id="edge5" class="edge">
<title>n_2_3_6&#45;&gt;n_2_6</title>
<path fill="none" stroke="black" d="M135.56,-158.22C126.76,-147.71 115.83,-134.66 106.4,-123.41"/>
<polygon fill="black" stroke="black" points="109.31,-121.42 100.2,-116 103.94,-125.92 109.31,-121.42"/>
</g>
<!-- n_3 -->
<g id="node9" class="node">
<title>n_3</title>
<polygon fill="none" stroke="black" points="185.75,-84.38 185.75,-109.62 254.5,-109.62 254.5,-84.38 185.75,-84.38"/>
<text text-anchor="start" x="192.75" y="-95.08" font-family="Times New Roman,serif" font-weight="bold" font-size="9.00">Secondary (P)</text>
<polygon fill="none" stroke="black" points="184.75,-83.38 184.75,-110.62 255.5,-110.62 255.5,-83.38 184.75,-83.38"/>
</g>
<!-- n_2_3_6&#45;&gt;n_3 -->
<g id="edge8" class="edge">
<title>n_2_3_6&#45;&gt;n_3</title>
<path fill="none" stroke="black" d="M168.93,-158.22C177.87,-147.71 188.96,-134.66 198.53,-123.41"/>
<polygon fill="black" stroke="black" points="201.02,-125.88 204.83,-116 195.68,-121.35 201.02,-125.88"/>
</g>
<!-- n_2 -->
<g id="node7" class="node">
<title>n_2</title>
<polygon fill="none" stroke="black" points="9,-5.38 9,-30.62 61.25,-30.62 61.25,-5.38 9,-5.38"/>
<text text-anchor="start" x="16" y="-16.07" font-family="Times New Roman,serif" font-weight="bold" font-size="9.00">Preschool</text>
<polygon fill="none" stroke="black" points="8,-4.38 8,-31.62 62.25,-31.62 62.25,-4.38 8,-4.38"/>
</g>
<!-- n_2_6&#45;&gt;n_2 -->
<g id="edge6" class="edge">
<title>n_2_6&#45;&gt;n_2</title>
<path fill="none" stroke="black" d="M74.28,-79.29C67.83,-69.37 59.52,-56.57 52.22,-45.32"/>
<polygon fill="black" stroke="black" points="55.33,-43.69 46.95,-37.21 49.46,-47.5 55.33,-43.69"/>
</g>
<!-- n_6 -->
<g id="node8" class="node">
<title>n_6</title>
<polygon fill="none" stroke="black" points="107.88,-5.38 107.88,-30.62 162.38,-30.62 162.38,-5.38 107.88,-5.38"/>
<text text-anchor="start" x="114.88" y="-16.07" font-family="Times New Roman,serif" font-weight="bold" font-size="9.00">University</text>
<polygon fill="none" stroke="black" points="106.88,-4.38 106.88,-31.62 163.38,-31.62 163.38,-4.38 106.88,-4.38"/>
</g>
<!-- n_2_6&#45;&gt;n_6 -->
<g id="edge7" class="edge">
<title>n_2_6&#45;&gt;n_6</title>
<path fill="none" stroke="black" d="M95.97,-79.29C102.42,-69.37 110.73,-56.57 118.03,-45.32"/>
<polygon fill="black" stroke="black" points="120.79,-47.5 123.3,-37.21 114.92,-43.69 120.79,-47.5"/>
</g>
</g>
</svg>
