<?xml version="1.0" encoding="UTF-8" standalone="no"?>
<!DOCTYPE svg PUBLIC "-//W3C//DTD SVG 1.1//EN"
 "http://www.w3.org/Graphics/SVG/1.1/DTD/svg11.dtd">
<!-- Generated by graphviz version 10.0.1 (20240210.2158)
 -->
<!-- Title: ND Pages: 1 -->
<svg width="687pt" height="414pt"
 viewBox="0.00 0.00 686.62 414.00" xmlns="http://www.w3.org/2000/svg" xmlns:xlink="http://www.w3.org/1999/xlink">
<g id="graph0" class="graph" transform="scale(1 1) rotate(0) translate(4 410)">
<title>ND</title>
<polygon fill="white" stroke="none" points="-4,4 -4,-410 682.62,-410 682.62,4 -4,4"/>
<!-- n_0_1_2_3_4_5_6 -->
<g id="node1" class="node">
<title>n_0_1_2_3_4_5_6</title>
<polygon fill="none" stroke="black" points="394.38,-342 394.38,-401 464.62,-401 464.62,-342 394.38,-342"/>
<text text-anchor="start" x="406.62" y="-386.45" font-family="Times New Roman,serif" font-weight="bold" font-size="9.00">Primary (P)</text>
<text text-anchor="start" x="410.38" y="-377.45" font-family="Times New Roman,serif" font-weight="bold" font-size="9.00">Preschool</text>
<text text-anchor="start" x="402.12" y="-368.45" font-family="Times New Roman,serif" font-weight="bold" font-size="9.00">Secondary (P)</text>
<text text-anchor="start" x="401.38" y="-359.45" font-family="Times New Roman,serif" font-weight="bold" font-size="9.00">Secondary (G)</text>
<text text-anchor="start" x="409.25" y="-350.45" font-family="Times New Roman,serif" font-weight="bold" font-size="9.00">University</text>
<polygon fill="none" stroke="black" points="464.62,-342 464.62,-401 525.88,-401 525.88,-342 464.62,-342"/>
<text text-anchor="start" x="471.62" y="-372.95" font-family="Times New Roman,serif" font-weight="bold" font-size="9.00">Primary (G)</text>
<text text-anchor="start" x="475.75" y="-363.95" font-family="Times New Roman,serif" font-weight="bold" font-size="9.00">Technical</text>
<polygon fill="none" stroke="black" points="393.38,-341 393.38,-402 526.88,-402 526.88,-341 393.38,-341"/>
</g>
<!-- n_0_2_3_4_6 -->
<g id="node2" class="node">
<title>n_0_2_3_4_6</title>
<polygon fill="none" stroke="black" points="303.62,-248 303.62,-289 373.88,-289 373.88,-248 303.62,-248"/>
<text text-anchor="start" x="319.62" y="-274.45" font-family="Times New Roman,serif" font-weight="bold" font-size="9.00">Preschool</text>
<text text-anchor="start" x="310.62" y="-265.45" font-family="Times New Roman,serif" font-weight="bold" font-size="9.00">Secondary (G)</text>
<text text-anchor="start" x="318.5" y="-256.45" font-family="Times New Roman,serif" font-weight="bold" font-size="9.00">University</text>
<polygon fill="none" stroke="black" points="373.88,-248 373.88,-289 442.62,-289 442.62,-248 373.88,-248"/>
<text text-anchor="start" x="385.38" y="-269.95" font-family="Times New Roman,serif" font-weight="bold" font-size="9.00">Primary (P)</text>
<text text-anchor="start" x="380.88" y="-260.95" font-family="Times New Roman,serif" font-weight="bold" font-size="9.00">Secondary (P)</text>
<polygon fill="none" stroke="black" points="302.62,-247 302.62,-290 443.62,-290 443.62,-247 302.62,-247"/>
</g>
<!-- n_0_1_2_3_4_5_6&#45;&gt;n_0_2_3_4_6 -->
<g id="edge1" class="edge">
<title>n_0_1_2_3_4_5_6&#45;&gt;n_0_2_3_4_6</title>
<path fill="none" stroke="black" d="M431.4,-337.15C421.79,-326 411.09,-313.58 401.51,-302.45"/>
<polygon fill="black" stroke="black" points="404.27,-300.3 395.1,-295.01 398.97,-304.87 404.27,-300.3"/>
</g>
<!-- n_1_5 -->
<g id="node11" class="node">
<title>n_1_5</title>
<polygon fill="none" stroke="black" points="490,-255.88 490,-281.12 551.25,-281.12 551.25,-255.88 490,-255.88"/>
<text text-anchor="start" x="497" y="-266.57" font-family="Times New Roman,serif" font-weight="bold" font-size="9.00">Primary (G)</text>
<polygon fill="none" stroke="black" points="551.25,-255.88 551.25,-281.12 604.25,-281.12 604.25,-255.88 551.25,-255.88"/>
<text text-anchor="start" x="558.25" y="-266.57" font-family="Times New Roman,serif" font-weight="bold" font-size="9.00">Technical</text>
<polygon fill="none" stroke="black" points="489,-254.88 489,-282.12 605.25,-282.12 605.25,-254.88 489,-254.88"/>
</g>
<!-- n_0_1_2_3_4_5_6&#45;&gt;n_1_5 -->
<g id="edge10" class="edge">
<title>n_0_1_2_3_4_5_6&#45;&gt;n_1_5</title>
<path fill="none" stroke="black" d="M488.85,-337.15C500.76,-323.33 514.33,-307.57 525.39,-294.74"/>
<polygon fill="black" stroke="black" points="527.72,-297.39 531.6,-287.53 522.42,-292.82 527.72,-297.39"/>
</g>
<!-- n_2_4_6 -->
<g id="node3" class="node">
<title>n_2_4_6</title>
<polygon fill="none" stroke="black" points="144.75,-163 144.75,-195 215,-195 215,-163 144.75,-163"/>
<text text-anchor="start" x="160.75" y="-180.45" font-family="Times New Roman,serif" font-weight="bold" font-size="9.00">Preschool</text>
<text text-anchor="start" x="151.75" y="-171.45" font-family="Times New Roman,serif" font-weight="bold" font-size="9.00">Secondary (G)</text>
<polygon fill="none" stroke="black" points="215,-163 215,-195 269.5,-195 269.5,-163 215,-163"/>
<text text-anchor="start" x="222" y="-177.07" font-family="Times New Roman,serif" font-weight="bold" font-size="9.00">University</text>
<polygon fill="none" stroke="black" points="143.75,-162 143.75,-196 270.5,-196 270.5,-162 143.75,-162"/>
</g>
<!-- n_0_2_3_4_6&#45;&gt;n_2_4_6 -->
<g id="edge2" class="edge">
<title>n_0_2_3_4_6&#45;&gt;n_2_4_6</title>
<path fill="none" stroke="black" d="M326.88,-243.13C304.51,-231.33 277.66,-217.18 255.06,-205.27"/>
<polygon fill="black" stroke="black" points="256.83,-202.24 246.35,-200.67 253.56,-208.43 256.83,-202.24"/>
</g>
<!-- n_0_3 -->
<g id="node8" class="node">
<title>n_0_3</title>
<polygon fill="none" stroke="black" points="316.88,-166.38 316.88,-191.62 376.62,-191.62 376.62,-166.38 316.88,-166.38"/>
<text text-anchor="start" x="323.88" y="-177.07" font-family="Times New Roman,serif" font-weight="bold" font-size="9.00">Primary (P)</text>
<polygon fill="none" stroke="black" points="376.62,-166.38 376.62,-191.62 445.38,-191.62 445.38,-166.38 376.62,-166.38"/>
<text text-anchor="start" x="383.62" y="-177.07" font-family="Times New Roman,serif" font-weight="bold" font-size="9.00">Secondary (P)</text>
<polygon fill="none" stroke="black" points="315.88,-165.38 315.88,-192.62 446.38,-192.62 446.38,-165.38 315.88,-165.38"/>
</g>
<!-- n_0_2_3_4_6&#45;&gt;n_0_3 -->
<g id="edge7" class="edge">
<title>n_0_2_3_4_6&#45;&gt;n_0_3</title>
<path fill="none" stroke="black" d="M375.35,-243.13C376.34,-232.28 377.52,-219.45 378.55,-208.19"/>
<polygon fill="black" stroke="black" points="382.03,-208.56 379.45,-198.28 375.06,-207.92 382.03,-208.56"/>
</g>
<!-- n_2_4 -->
<g id="node4" class="node">
<title>n_2_4</title>
<polygon fill="none" stroke="black" points="27.88,-84.38 27.88,-109.62 80.12,-109.62 80.12,-84.38 27.88,-84.38"/>
<text text-anchor="start" x="34.88" y="-95.08" font-family="Times New Roman,serif" font-weight="bold" font-size="9.00">Preschool</text>
<polygon fill="none" stroke="black" points="80.12,-84.38 80.12,-109.62 150.38,-109.62 150.38,-84.38 80.12,-84.38"/>
<text text-anchor="start" x="87.12" y="-95.08" font-family="Times New Roman,serif" font-weight="bold" font-size="9.00">Secondary (G)</text>
<polygon fill="none" stroke="black" points="26.88,-83.38 26.88,-110.62 151.38,-110.62 151.38,-83.38 26.88,-83.38"/>
</g>
<!-- n_2_4_6&#45;&gt;n_2_4 -->
<g id="edge3" class="edge">
<title>n_2_4_6&#45;&gt;n_2_4</title>
<path fill="none" stroke="black" d="M177.65,-158.02C161.07,-146.77 140.28,-132.68 123.02,-120.98"/>
<polygon fill="black" stroke="black" points="125.34,-118.32 115.1,-115.61 121.41,-124.12 125.34,-118.32"/>
</g>
<!-- n_6 -->
<g id="node7" class="node">
<title>n_6</title>
<polygon fill="none" stroke="black" points="197.88,-84.38 197.88,-109.62 252.38,-109.62 252.38,-84.38 197.88,-84.38"/>
<text text-anchor="start" x="204.88" y="-95.08" font-family="Times New Roman,serif" font-weight="bold" font-size="9.00">University</text>
<polygon fill="none" stroke="black" points="196.88,-83.38 196.88,-110.62 253.38,-110.62 253.38,-83.38 196.88,-83.38"/>
</g>
<!-- n_2_4_6&#45;&gt;n_6 -->
<g id="edge6" class="edge">
<title>n_2_4_6&#45;&gt;n_6</title>
<path fill="none" stroke="black" d="M211.57,-158.22C213.78,-148.44 216.47,-136.46 218.88,-125.77"/>
<polygon fill="black" stroke="black" points="222.22,-126.84 221,-116.32 215.39,-125.31 222.22,-126.84"/>
</g>
<!-- n_2 -->
<g id="node5" class="node">
<title>n_2</title>
<polygon fill="none" stroke="black" points="9,-5.38 9,-30.62 61.25,-30.62 61.25,-5.38 9,-5.38"/>
<text text-anchor="start" x="16" y="-16.07" font-family="Times New Roman,serif" font-weight="bold" font-size="9.00">Preschool</text>
<polygon fill="none" stroke="black" points="8,-4.38 8,-31.62 62.25,-31.62 62.25,-4.38 8,-4.38"/>
</g>
<!-- n_2_4&#45;&gt;n_2 -->
<g id="edge4" class="edge">
<title>n_2_4&#45;&gt;n_2</title>
<path fill="none" stroke="black" d="M77.41,-79.29C70.45,-69.37 61.47,-56.57 53.58,-45.32"/>
<polygon fill="black" stroke="black" points="56.48,-43.36 47.87,-37.18 50.75,-47.38 56.48,-43.36"/>
</g>
<!-- n_4 -->
<g id="node6" class="node">
<title>n_4</title>
<polygon fill="none" stroke="black" points="108,-5.38 108,-30.62 178.25,-30.62 178.25,-5.38 108,-5.38"/>
<text text-anchor="start" x="115" y="-16.07" font-family="Times New Roman,serif" font-weight="bold" font-size="9.00">Secondary (G)</text>
<polygon fill="none" stroke="black" points="107,-4.38 107,-31.62 179.25,-31.62 179.25,-4.38 107,-4.38"/>
</g>
<!-- n_2_4&#45;&gt;n_4 -->
<g id="edge5" class="edge">
<title>n_2_4&#45;&gt;n_4</title>
<path fill="none" stroke="black" d="M100.84,-79.29C107.8,-69.37 116.78,-56.57 124.67,-45.32"/>
<polygon fill="black" stroke="black" points="127.5,-47.38 130.38,-37.18 121.77,-43.36 127.5,-47.38"/>
</g>
<!-- n_0 -->
<g id="node9" class="node">
<title>n_0</title>
<polygon fill="none" stroke="black" points="334.25,-84.38 334.25,-109.62 394,-109.62 394,-84.38 334.25,-84.38"/>
<text text-anchor="start" x="341.25" y="-95.08" font-family="Times New Roman,serif" font-weight="bold" font-size="9.00">Primary (P)</text>
<polygon fill="none" stroke="black" points="333.25,-83.38 333.25,-110.62 395,-110.62 395,-83.38 333.25,-83.38"/>
</g>
<!-- n_0_3&#45;&gt;n_0 -->
<g id="edge8" class="edge">
<title>n_0_3&#45;&gt;n_0</title>
<path fill="none" stroke="black" d="M377.52,-161.03C375.36,-150.85 372.55,-137.65 370.07,-125.96"/>
<polygon fill="black" stroke="black" points="373.54,-125.48 368.04,-116.42 366.69,-126.93 373.54,-125.48"/>
</g>
<!-- n_3 -->
<g id="node10" class="node">
<title>n_3</title>
<polygon fill="none" stroke="black" points="440.75,-84.38 440.75,-109.62 509.5,-109.62 509.5,-84.38 440.75,-84.38"/>
<text text-anchor="start" x="447.75" y="-95.08" font-family="Times New Roman,serif" font-weight="bold" font-size="9.00">Secondary (P)</text>
<polygon fill="none" stroke="black" points="439.75,-83.38 439.75,-110.62 510.5,-110.62 510.5,-83.38 439.75,-83.38"/>
</g>
<!-- n_0_3&#45;&gt;n_3 -->
<g id="edge9" class="edge">
<title>n_0_3&#45;&gt;n_3</title>
<path fill="none" stroke="black" d="M401.06,-161.03C414.27,-149.79 431.81,-134.87 446.5,-122.36"/>
<polygon fill="black" stroke="black" points="448.72,-125.07 454.07,-115.92 444.18,-119.74 448.72,-125.07"/>
</g>
<!-- n_1 -->
<g id="node12" class="node">
<title>n_1</title>
<polygon fill="none" stroke="black" points="508.5,-166.38 508.5,-191.62 569.75,-191.62 569.75,-166.38 508.5,-166.38"/>
<text text-anchor="start" x="515.5" y="-177.07" font-family="Times New Roman,serif" font-weight="bold" font-size="9.00">Primary (G)</text>
<polygon fill="none" stroke="black" points="507.5,-165.38 507.5,-192.62 570.75,-192.62 570.75,-165.38 507.5,-165.38"/>
</g>
<!-- n_1_5&#45;&gt;n_1 -->
<g id="edge11" class="edge">
<title>n_1_5&#45;&gt;n_1</title>
<path fill="none" stroke="black" d="M545.58,-250.63C544.48,-238.52 542.96,-221.94 541.67,-207.88"/>
<polygon fill="black" stroke="black" points="545.2,-207.97 540.8,-198.33 538.23,-208.6 545.2,-207.97"/>
</g>
<!-- n_5 -->
<g id="node13" class="node">
<title>n_5</title>
<polygon fill="none" stroke="black" points="616.62,-166.38 616.62,-191.62 669.62,-191.62 669.62,-166.38 616.62,-166.38"/>
<text text-anchor="start" x="623.62" y="-177.07" font-family="Times New Roman,serif" font-weight="bold" font-size="9.00">Technical</text>
<polygon fill="none" stroke="black" points="615.62,-165.38 615.62,-192.62 670.62,-192.62 670.62,-165.38 615.62,-165.38"/>
</g>
<!-- n_1_5&#45;&gt;n_5 -->
<g id="edge12" class="edge">
<title>n_1_5&#45;&gt;n_5</title>
<path fill="none" stroke="black" d="M565.63,-250.63C579.98,-237.56 600.06,-219.25 616.18,-204.56"/>
<polygon fill="black" stroke="black" points="618.52,-207.16 623.55,-197.84 613.81,-201.99 618.52,-207.16"/>
</g>
</g>
</svg>
