<?xml version="1.0" encoding="UTF-8" standalone="no"?>
<!DOCTYPE svg PUBLIC "-//W3C//DTD SVG 1.1//EN"
 "http://www.w3.org/Graphics/SVG/1.1/DTD/svg11.dtd">
<!-- Generated by graphviz version 10.0.1 (20240210.2158)
 -->
<!-- Title: ND Pages: 1 -->
<svg width="693pt" height="414pt"
 viewBox="0.00 0.00 692.88 414.00" xmlns="http://www.w3.org/2000/svg" xmlns:xlink="http://www.w3.org/1999/xlink">
<g id="graph0" class="graph" transform="scale(1 1) rotate(0) translate(4 410)">
<title>ND</title>
<polygon fill="white" stroke="none" points="-4,4 -4,-410 688.88,-410 688.88,4 -4,4"/>
<!-- n_0_1_2_3_4_5_6 -->
<g id="node1" class="node">
<title>n_0_1_2_3_4_5_6</title>
<polygon fill="none" stroke="black" points="404.38,-342 404.38,-401 474.62,-401 474.62,-342 404.38,-342"/>
<text text-anchor="start" x="415.88" y="-386.45" font-family="Times New Roman,serif" font-weight="bold" font-size="9.00">Primary (G)</text>
<text text-anchor="start" x="420.38" y="-377.45" font-family="Times New Roman,serif" font-weight="bold" font-size="9.00">Preschool</text>
<text text-anchor="start" x="412.12" y="-368.45" font-family="Times New Roman,serif" font-weight="bold" font-size="9.00">Secondary (P)</text>
<text text-anchor="start" x="411.38" y="-359.45" font-family="Times New Roman,serif" font-weight="bold" font-size="9.00">Secondary (G)</text>
<text text-anchor="start" x="419.25" y="-350.45" font-family="Times New Roman,serif" font-weight="bold" font-size="9.00">University</text>
<polygon fill="none" stroke="black" points="474.62,-342 474.62,-401 534.38,-401 534.38,-342 474.62,-342"/>
<text text-anchor="start" x="481.62" y="-372.95" font-family="Times New Roman,serif" font-weight="bold" font-size="9.00">Primary (P)</text>
<text text-anchor="start" x="485" y="-363.95" font-family="Times New Roman,serif" font-weight="bold" font-size="9.00">Technical</text>
<polygon fill="none" stroke="black" points="403.38,-341 403.38,-402 535.38,-402 535.38,-341 403.38,-341"/>
</g>
<!-- n_1_2_3_4_6 -->
<g id="node2" class="node">
<title>n_1_2_3_4_6</title>
<polygon fill="none" stroke="black" points="319.62,-248 319.62,-289 389.88,-289 389.88,-248 319.62,-248"/>
<text text-anchor="start" x="335.62" y="-274.45" font-family="Times New Roman,serif" font-weight="bold" font-size="9.00">Preschool</text>
<text text-anchor="start" x="327.38" y="-265.45" font-family="Times New Roman,serif" font-weight="bold" font-size="9.00">Secondary (P)</text>
<text text-anchor="start" x="326.62" y="-256.45" font-family="Times New Roman,serif" font-weight="bold" font-size="9.00">Secondary (G)</text>
<polygon fill="none" stroke="black" points="389.88,-248 389.88,-289 451.12,-289 451.12,-248 389.88,-248"/>
<text text-anchor="start" x="396.88" y="-269.95" font-family="Times New Roman,serif" font-weight="bold" font-size="9.00">Primary (G)</text>
<text text-anchor="start" x="400.25" y="-260.95" font-family="Times New Roman,serif" font-weight="bold" font-size="9.00">University</text>
<polygon fill="none" stroke="black" points="318.62,-247 318.62,-290 452.12,-290 452.12,-247 318.62,-247"/>
</g>
<!-- n_0_1_2_3_4_5_6&#45;&gt;n_1_2_3_4_6 -->
<g id="edge1" class="edge">
<title>n_0_1_2_3_4_5_6&#45;&gt;n_1_2_3_4_6</title>
<path fill="none" stroke="black" d="M441.64,-337.15C432.36,-326 422.03,-313.58 412.78,-302.45"/>
<polygon fill="black" stroke="black" points="415.69,-300.47 406.6,-295.02 410.31,-304.95 415.69,-300.47"/>
</g>
<!-- n_0_5 -->
<g id="node11" class="node">
<title>n_0_5</title>
<polygon fill="none" stroke="black" points="498,-255.88 498,-281.12 557.75,-281.12 557.75,-255.88 498,-255.88"/>
<text text-anchor="start" x="505" y="-266.57" font-family="Times New Roman,serif" font-weight="bold" font-size="9.00">Primary (P)</text>
<polygon fill="none" stroke="black" points="557.75,-255.88 557.75,-281.12 610.75,-281.12 610.75,-255.88 557.75,-255.88"/>
<text text-anchor="start" x="564.75" y="-266.57" font-family="Times New Roman,serif" font-weight="bold" font-size="9.00">Technical</text>
<polygon fill="none" stroke="black" points="497,-254.88 497,-282.12 611.75,-282.12 611.75,-254.88 497,-254.88"/>
</g>
<!-- n_0_1_2_3_4_5_6&#45;&gt;n_0_5 -->
<g id="edge10" class="edge">
<title>n_0_1_2_3_4_5_6&#45;&gt;n_0_5</title>
<path fill="none" stroke="black" d="M497.44,-337.15C508.96,-323.46 522.08,-307.87 532.83,-295.11"/>
<polygon fill="black" stroke="black" points="535.43,-297.44 539.19,-287.54 530.08,-292.94 535.43,-297.44"/>
</g>
<!-- n_2_3_4 -->
<g id="node3" class="node">
<title>n_2_3_4</title>
<polygon fill="none" stroke="black" points="167.12,-163 167.12,-195 237.38,-195 237.38,-163 167.12,-163"/>
<text text-anchor="start" x="174.88" y="-180.45" font-family="Times New Roman,serif" font-weight="bold" font-size="9.00">Secondary (P)</text>
<text text-anchor="start" x="174.12" y="-171.45" font-family="Times New Roman,serif" font-weight="bold" font-size="9.00">Secondary (G)</text>
<polygon fill="none" stroke="black" points="237.38,-163 237.38,-195 289.62,-195 289.62,-163 237.38,-163"/>
<text text-anchor="start" x="244.38" y="-177.07" font-family="Times New Roman,serif" font-weight="bold" font-size="9.00">Preschool</text>
<polygon fill="none" stroke="black" points="166.12,-162 166.12,-196 290.62,-196 290.62,-162 166.12,-162"/>
</g>
<!-- n_1_2_3_4_6&#45;&gt;n_2_3_4 -->
<g id="edge2" class="edge">
<title>n_1_2_3_4_6&#45;&gt;n_2_3_4</title>
<path fill="none" stroke="black" d="M341.64,-243.13C320.57,-231.38 295.31,-217.31 274,-205.43"/>
<polygon fill="black" stroke="black" points="275.97,-202.52 265.53,-200.71 272.56,-208.63 275.97,-202.52"/>
</g>
<!-- n_1_6 -->
<g id="node8" class="node">
<title>n_1_6</title>
<polygon fill="none" stroke="black" points="336.5,-166.38 336.5,-191.62 397.75,-191.62 397.75,-166.38 336.5,-166.38"/>
<text text-anchor="start" x="343.5" y="-177.07" font-family="Times New Roman,serif" font-weight="bold" font-size="9.00">Primary (G)</text>
<polygon fill="none" stroke="black" points="397.75,-166.38 397.75,-191.62 452.25,-191.62 452.25,-166.38 397.75,-166.38"/>
<text text-anchor="start" x="404.75" y="-177.07" font-family="Times New Roman,serif" font-weight="bold" font-size="9.00">University</text>
<polygon fill="none" stroke="black" points="335.5,-165.38 335.5,-192.62 453.25,-192.62 453.25,-165.38 335.5,-165.38"/>
</g>
<!-- n_1_2_3_4_6&#45;&gt;n_1_6 -->
<g id="edge7" class="edge">
<title>n_1_2_3_4_6&#45;&gt;n_1_6</title>
<path fill="none" stroke="black" d="M387.88,-243.13C389,-232.28 390.32,-219.45 391.47,-208.19"/>
<polygon fill="black" stroke="black" points="394.95,-208.58 392.5,-198.28 387.99,-207.87 394.95,-208.58"/>
</g>
<!-- n_3_4 -->
<g id="node4" class="node">
<title>n_3_4</title>
<polygon fill="none" stroke="black" points="31.88,-84.38 31.88,-109.62 100.62,-109.62 100.62,-84.38 31.88,-84.38"/>
<text text-anchor="start" x="38.88" y="-95.08" font-family="Times New Roman,serif" font-weight="bold" font-size="9.00">Secondary (P)</text>
<polygon fill="none" stroke="black" points="100.62,-84.38 100.62,-109.62 170.88,-109.62 170.88,-84.38 100.62,-84.38"/>
<text text-anchor="start" x="107.62" y="-95.08" font-family="Times New Roman,serif" font-weight="bold" font-size="9.00">Secondary (G)</text>
<polygon fill="none" stroke="black" points="30.88,-83.38 30.88,-110.62 171.88,-110.62 171.88,-83.38 30.88,-83.38"/>
</g>
<!-- n_2_3_4&#45;&gt;n_3_4 -->
<g id="edge3" class="edge">
<title>n_2_3_4&#45;&gt;n_3_4</title>
<path fill="none" stroke="black" d="M196.66,-158.02C178.72,-146.72 156.23,-132.55 137.6,-120.82"/>
<polygon fill="black" stroke="black" points="139.59,-117.93 129.26,-115.57 135.86,-123.86 139.59,-117.93"/>
</g>
<!-- n_2 -->
<g id="node7" class="node">
<title>n_2</title>
<polygon fill="none" stroke="black" points="218.25,-84.38 218.25,-109.62 270.5,-109.62 270.5,-84.38 218.25,-84.38"/>
<text text-anchor="start" x="225.25" y="-95.08" font-family="Times New Roman,serif" font-weight="bold" font-size="9.00">Preschool</text>
<polygon fill="none" stroke="black" points="217.25,-83.38 217.25,-110.62 271.5,-110.62 271.5,-83.38 217.25,-83.38"/>
</g>
<!-- n_2_3_4&#45;&gt;n_2 -->
<g id="edge6" class="edge">
<title>n_2_3_4&#45;&gt;n_2</title>
<path fill="none" stroke="black" d="M232.33,-158.22C234.27,-148.54 236.63,-136.72 238.75,-126.11"/>
<polygon fill="black" stroke="black" points="242.18,-126.82 240.71,-116.33 235.32,-125.45 242.18,-126.82"/>
</g>
<!-- n_3 -->
<g id="node5" class="node">
<title>n_3</title>
<polygon fill="none" stroke="black" points="9,-5.38 9,-30.62 77.75,-30.62 77.75,-5.38 9,-5.38"/>
<text text-anchor="start" x="16" y="-16.07" font-family="Times New Roman,serif" font-weight="bold" font-size="9.00">Secondary (P)</text>
<polygon fill="none" stroke="black" points="8,-4.38 8,-31.62 78.75,-31.62 78.75,-4.38 8,-4.38"/>
</g>
<!-- n_3_4&#45;&gt;n_3 -->
<g id="edge4" class="edge">
<title>n_3_4&#45;&gt;n_3</title>
<path fill="none" stroke="black" d="M88.79,-79.29C81.24,-69.27 71.48,-56.31 62.94,-44.98"/>
<polygon fill="black" stroke="black" points="65.86,-43.03 57.05,-37.15 60.27,-47.24 65.86,-43.03"/>
</g>
<!-- n_4 -->
<g id="node6" class="node">
<title>n_4</title>
<polygon fill="none" stroke="black" points="125.25,-5.38 125.25,-30.62 195.5,-30.62 195.5,-5.38 125.25,-5.38"/>
<text text-anchor="start" x="132.25" y="-16.07" font-family="Times New Roman,serif" font-weight="bold" font-size="9.00">Secondary (G)</text>
<polygon fill="none" stroke="black" points="124.25,-4.38 124.25,-31.62 196.5,-31.62 196.5,-4.38 124.25,-4.38"/>
</g>
<!-- n_3_4&#45;&gt;n_4 -->
<g id="edge5" class="edge">
<title>n_3_4&#45;&gt;n_4</title>
<path fill="none" stroke="black" d="M114.18,-79.29C121.86,-69.27 131.78,-56.31 140.47,-44.98"/>
<polygon fill="black" stroke="black" points="143.17,-47.21 146.47,-37.14 137.61,-42.95 143.17,-47.21"/>
</g>
<!-- n_1 -->
<g id="node9" class="node">
<title>n_1</title>
<polygon fill="none" stroke="black" points="348.75,-84.38 348.75,-109.62 410,-109.62 410,-84.38 348.75,-84.38"/>
<text text-anchor="start" x="355.75" y="-95.08" font-family="Times New Roman,serif" font-weight="bold" font-size="9.00">Primary (G)</text>
<polygon fill="none" stroke="black" points="347.75,-83.38 347.75,-110.62 411,-110.62 411,-83.38 347.75,-83.38"/>
</g>
<!-- n_1_6&#45;&gt;n_1 -->
<g id="edge8" class="edge">
<title>n_1_6&#45;&gt;n_1</title>
<path fill="none" stroke="black" d="M391.19,-161.03C389.28,-150.85 386.81,-137.65 384.62,-125.96"/>
<polygon fill="black" stroke="black" points="388.11,-125.61 382.83,-116.43 381.23,-126.9 388.11,-125.61"/>
</g>
<!-- n_6 -->
<g id="node10" class="node">
<title>n_6</title>
<polygon fill="none" stroke="black" points="457.12,-84.38 457.12,-109.62 511.62,-109.62 511.62,-84.38 457.12,-84.38"/>
<text text-anchor="start" x="464.12" y="-95.08" font-family="Times New Roman,serif" font-weight="bold" font-size="9.00">University</text>
<polygon fill="none" stroke="black" points="456.12,-83.38 456.12,-110.62 512.62,-110.62 512.62,-83.38 456.12,-83.38"/>
</g>
<!-- n_1_6&#45;&gt;n_6 -->
<g id="edge9" class="edge">
<title>n_1_6&#45;&gt;n_6</title>
<path fill="none" stroke="black" d="M413.46,-161.03C426.11,-149.79 442.9,-134.87 456.97,-122.36"/>
<polygon fill="black" stroke="black" points="459.04,-125.21 464.18,-115.95 454.39,-119.97 459.04,-125.21"/>
</g>
<!-- n_0 -->
<g id="node12" class="node">
<title>n_0</title>
<polygon fill="none" stroke="black" points="516.5,-166.38 516.5,-191.62 576.25,-191.62 576.25,-166.38 516.5,-166.38"/>
<text text-anchor="start" x="523.5" y="-177.07" font-family="Times New Roman,serif" font-weight="bold" font-size="9.00">Primary (P)</text>
<polygon fill="none" stroke="black" points="515.5,-165.38 515.5,-192.62 577.25,-192.62 577.25,-165.38 515.5,-165.38"/>
</g>
<!-- n_0_5&#45;&gt;n_0 -->
<g id="edge11" class="edge">
<title>n_0_5&#45;&gt;n_0</title>
<path fill="none" stroke="black" d="M552.83,-250.63C551.73,-238.52 550.21,-221.94 548.92,-207.88"/>
<polygon fill="black" stroke="black" points="552.45,-207.97 548.05,-198.33 545.48,-208.6 552.45,-207.97"/>
</g>
<!-- n_5 -->
<g id="node13" class="node">
<title>n_5</title>
<polygon fill="none" stroke="black" points="622.88,-166.38 622.88,-191.62 675.88,-191.62 675.88,-166.38 622.88,-166.38"/>
<text text-anchor="start" x="629.88" y="-177.07" font-family="Times New Roman,serif" font-weight="bold" font-size="9.00">Technical</text>
<polygon fill="none" stroke="black" points="621.88,-165.38 621.88,-192.62 676.88,-192.62 676.88,-165.38 621.88,-165.38"/>
</g>
<!-- n_0_5&#45;&gt;n_5 -->
<g id="edge12" class="edge">
<title>n_0_5&#45;&gt;n_5</title>
<path fill="none" stroke="black" d="M572.69,-250.63C586.89,-237.56 606.76,-219.25 622.71,-204.56"/>
<polygon fill="black" stroke="black" points="625.02,-207.19 630,-197.84 620.27,-202.04 625.02,-207.19"/>
</g>
</g>
</svg>
