<?xml version="1.0" encoding="UTF-8" standalone="no"?>
<!DOCTYPE svg PUBLIC "-//W3C//DTD SVG 1.1//EN"
 "http://www.w3.org/Graphics/SVG/1.1/DTD/svg11.dtd">
<!-- Generated by graphviz version 10.0.1 (20240210.2158)
 -->
<!-- Title: ND Pages: 1 -->
<svg width="605pt" height="405pt"
 viewBox="0.00 0.00 605.00 405.00" xmlns="http://www.w3.org/2000/svg" xmlns:xlink="http://www.w3.org/1999/xlink">
<g id="graph0" class="graph" transform="scale(1 1) rotate(0) translate(4 401)">
<title>ND</title>
<polygon fill="white" stroke="none" points="-4,4 -4,-401 601,-401 601,4 -4,4"/>
<!-- n_0_1_2_3_4_5_6 -->
<g id="node1" class="node">
<title>n_0_1_2_3_4_5_6</title>
<polygon fill="none" stroke="black" points="268.62,-342 268.62,-392 337.38,-392 337.38,-342 268.62,-342"/>
<text text-anchor="start" x="279.38" y="-377.45" font-family="Times New Roman,serif" font-weight="bold" font-size="9.00">Primary (G)</text>
<text text-anchor="start" x="283.88" y="-368.45" font-family="Times New Roman,serif" font-weight="bold" font-size="9.00">Preschool</text>
<text text-anchor="start" x="275.62" y="-359.45" font-family="Times New Roman,serif" font-weight="bold" font-size="9.00">Secondary (P)</text>
<text text-anchor="start" x="282.75" y="-350.45" font-family="Times New Roman,serif" font-weight="bold" font-size="9.00">University</text>
<polygon fill="none" stroke="black" points="337.38,-342 337.38,-392 407.62,-392 407.62,-342 337.38,-342"/>
<text text-anchor="start" x="349.62" y="-372.95" font-family="Times New Roman,serif" font-weight="bold" font-size="9.00">Primary (P)</text>
<text text-anchor="start" x="344.38" y="-363.95" font-family="Times New Roman,serif" font-weight="bold" font-size="9.00">Secondary (G)</text>
<text text-anchor="start" x="353" y="-354.95" font-family="Times New Roman,serif" font-weight="bold" font-size="9.00">Technical</text>
<polygon fill="none" stroke="black" points="267.62,-341 267.62,-393 408.62,-393 408.62,-341 267.62,-341"/>
</g>
<!-- n_1_2_3_6 -->
<g id="node2" class="node">
<title>n_1_2_3_6</title>
<polygon fill="none" stroke="black" points="185.12,-248 185.12,-289 246.38,-289 246.38,-248 185.12,-248"/>
<text text-anchor="start" x="192.12" y="-274.45" font-family="Times New Roman,serif" font-weight="bold" font-size="9.00">Primary (G)</text>
<text text-anchor="start" x="196.62" y="-265.45" font-family="Times New Roman,serif" font-weight="bold" font-size="9.00">Preschool</text>
<text text-anchor="start" x="195.5" y="-256.45" font-family="Times New Roman,serif" font-weight="bold" font-size="9.00">University</text>
<polygon fill="none" stroke="black" points="246.38,-248 246.38,-289 315.12,-289 315.12,-248 246.38,-248"/>
<text text-anchor="start" x="253.38" y="-266.57" font-family="Times New Roman,serif" font-weight="bold" font-size="9.00">Secondary (P)</text>
<polygon fill="none" stroke="black" points="184.12,-247 184.12,-290 316.12,-290 316.12,-247 184.12,-247"/>
</g>
<!-- n_0_1_2_3_4_5_6&#45;&gt;n_1_2_3_6 -->
<g id="edge1" class="edge">
<title>n_0_1_2_3_4_5_6&#45;&gt;n_1_2_3_6</title>
<path fill="none" stroke="black" d="M311.72,-337.05C301.72,-326.08 290.26,-313.51 279.96,-302.22"/>
<polygon fill="black" stroke="black" points="282.7,-300.02 273.37,-294.99 277.52,-304.74 282.7,-300.02"/>
</g>
<!-- n_0_4_5 -->
<g id="node9" class="node">
<title>n_0_4_5</title>
<polygon fill="none" stroke="black" points="362.12,-252.5 362.12,-284.5 432.38,-284.5 432.38,-252.5 362.12,-252.5"/>
<text text-anchor="start" x="369.12" y="-269.95" font-family="Times New Roman,serif" font-weight="bold" font-size="9.00">Secondary (G)</text>
<text text-anchor="start" x="377.75" y="-260.95" font-family="Times New Roman,serif" font-weight="bold" font-size="9.00">Technical</text>
<polygon fill="none" stroke="black" points="432.38,-252.5 432.38,-284.5 492.12,-284.5 492.12,-252.5 432.38,-252.5"/>
<text text-anchor="start" x="439.38" y="-266.57" font-family="Times New Roman,serif" font-weight="bold" font-size="9.00">Primary (P)</text>
<polygon fill="none" stroke="black" points="361.12,-251.5 361.12,-285.5 493.12,-285.5 493.12,-251.5 361.12,-251.5"/>
</g>
<!-- n_0_1_2_3_4_5_6&#45;&gt;n_0_4_5 -->
<g id="edge8" class="edge">
<title>n_0_1_2_3_4_5_6&#45;&gt;n_0_4_5</title>
<path fill="none" stroke="black" d="M364.83,-337.05C376.39,-324.51 389.88,-309.89 401.34,-297.46"/>
<polygon fill="black" stroke="black" points="403.67,-300.1 407.88,-290.37 398.52,-295.35 403.67,-300.1"/>
</g>
<!-- n_1_2_6 -->
<g id="node3" class="node">
<title>n_1_2_6</title>
<polygon fill="none" stroke="black" points="62.25,-163 62.25,-195 116.75,-195 116.75,-163 62.25,-163"/>
<text text-anchor="start" x="70.38" y="-180.45" font-family="Times New Roman,serif" font-weight="bold" font-size="9.00">Preschool</text>
<text text-anchor="start" x="69.25" y="-171.45" font-family="Times New Roman,serif" font-weight="bold" font-size="9.00">University</text>
<polygon fill="none" stroke="black" points="116.75,-163 116.75,-195 178,-195 178,-163 116.75,-163"/>
<text text-anchor="start" x="123.75" y="-177.07" font-family="Times New Roman,serif" font-weight="bold" font-size="9.00">Primary (G)</text>
<polygon fill="none" stroke="black" points="61.25,-162 61.25,-196 179,-196 179,-162 61.25,-162"/>
</g>
<!-- n_1_2_3_6&#45;&gt;n_1_2_6 -->
<g id="edge2" class="edge">
<title>n_1_2_3_6&#45;&gt;n_1_2_6</title>
<path fill="none" stroke="black" d="M213.91,-243.13C196.8,-231.61 176.35,-217.84 158.91,-206.11"/>
<polygon fill="black" stroke="black" points="161.09,-203.35 150.84,-200.67 157.18,-209.16 161.09,-203.35"/>
</g>
<!-- n_3 -->
<g id="node8" class="node">
<title>n_3</title>
<polygon fill="none" stroke="black" points="224.75,-166.38 224.75,-191.62 293.5,-191.62 293.5,-166.38 224.75,-166.38"/>
<text text-anchor="start" x="231.75" y="-177.07" font-family="Times New Roman,serif" font-weight="bold" font-size="9.00">Secondary (P)</text>
<polygon fill="none" stroke="black" points="223.75,-165.38 223.75,-192.62 294.5,-192.62 294.5,-165.38 223.75,-165.38"/>
</g>
<!-- n_1_2_3_6&#45;&gt;n_3 -->
<g id="edge7" class="edge">
<title>n_1_2_3_6&#45;&gt;n_3</title>
<path fill="none" stroke="black" d="M252.63,-243.13C253.75,-232.28 255.07,-219.45 256.22,-208.19"/>
<polygon fill="black" stroke="black" points="259.7,-208.58 257.25,-198.28 252.74,-207.87 259.7,-208.58"/>
</g>
<!-- n_2_6 -->
<g id="node4" class="node">
<title>n_2_6</title>
<polygon fill="none" stroke="black" points="31.75,-84.38 31.75,-109.62 84,-109.62 84,-84.38 31.75,-84.38"/>
<text text-anchor="start" x="38.75" y="-95.08" font-family="Times New Roman,serif" font-weight="bold" font-size="9.00">Preschool</text>
<polygon fill="none" stroke="black" points="84,-84.38 84,-109.62 138.5,-109.62 138.5,-84.38 84,-84.38"/>
<text text-anchor="start" x="91" y="-95.08" font-family="Times New Roman,serif" font-weight="bold" font-size="9.00">University</text>
<polygon fill="none" stroke="black" points="30.75,-83.38 30.75,-110.62 139.5,-110.62 139.5,-83.38 30.75,-83.38"/>
</g>
<!-- n_1_2_6&#45;&gt;n_2_6 -->
<g id="edge3" class="edge">
<title>n_1_2_6&#45;&gt;n_2_6</title>
<path fill="none" stroke="black" d="M111.47,-158.22C107.1,-148.23 101.73,-135.95 96.98,-125.09"/>
<polygon fill="black" stroke="black" points="100.32,-123.99 93.1,-116.23 93.9,-126.79 100.32,-123.99"/>
</g>
<!-- n_1 -->
<g id="node7" class="node">
<title>n_1</title>
<polygon fill="none" stroke="black" points="185.5,-84.38 185.5,-109.62 246.75,-109.62 246.75,-84.38 185.5,-84.38"/>
<text text-anchor="start" x="192.5" y="-95.08" font-family="Times New Roman,serif" font-weight="bold" font-size="9.00">Primary (G)</text>
<polygon fill="none" stroke="black" points="184.5,-83.38 184.5,-110.62 247.75,-110.62 247.75,-83.38 184.5,-83.38"/>
</g>
<!-- n_1_2_6&#45;&gt;n_1 -->
<g id="edge6" class="edge">
<title>n_1_2_6&#45;&gt;n_1</title>
<path fill="none" stroke="black" d="M143.86,-158.22C156.97,-147.29 173.37,-133.63 187.23,-122.08"/>
<polygon fill="black" stroke="black" points="189.31,-124.9 194.75,-115.81 184.83,-119.53 189.31,-124.9"/>
</g>
<!-- n_2 -->
<g id="node5" class="node">
<title>n_2</title>
<polygon fill="none" stroke="black" points="9,-5.38 9,-30.62 61.25,-30.62 61.25,-5.38 9,-5.38"/>
<text text-anchor="start" x="16" y="-16.07" font-family="Times New Roman,serif" font-weight="bold" font-size="9.00">Preschool</text>
<polygon fill="none" stroke="black" points="8,-4.38 8,-31.62 62.25,-31.62 62.25,-4.38 8,-4.38"/>
</g>
<!-- n_2_6&#45;&gt;n_2 -->
<g id="edge4" class="edge">
<title>n_2_6&#45;&gt;n_2</title>
<path fill="none" stroke="black" d="M74.28,-79.29C67.83,-69.37 59.52,-56.57 52.22,-45.32"/>
<polygon fill="black" stroke="black" points="55.33,-43.69 46.95,-37.21 49.46,-47.5 55.33,-43.69"/>
</g>
<!-- n_6 -->
<g id="node6" class="node">
<title>n_6</title>
<polygon fill="none" stroke="black" points="107.88,-5.38 107.88,-30.62 162.38,-30.62 162.38,-5.38 107.88,-5.38"/>
<text text-anchor="start" x="114.88" y="-16.07" font-family="Times New Roman,serif" font-weight="bold" font-size="9.00">University</text>
<polygon fill="none" stroke="black" points="106.88,-4.38 106.88,-31.62 163.38,-31.62 163.38,-4.38 106.88,-4.38"/>
</g>
<!-- n_2_6&#45;&gt;n_6 -->
<g id="edge5" class="edge">
<title>n_2_6&#45;&gt;n_6</title>
<path fill="none" stroke="black" d="M95.97,-79.29C102.42,-69.37 110.73,-56.57 118.03,-45.32"/>
<polygon fill="black" stroke="black" points="120.79,-47.5 123.3,-37.21 114.92,-43.69 120.79,-47.5"/>
</g>
<!-- n_4_5 -->
<g id="node10" class="node">
<title>n_4_5</title>
<polygon fill="none" stroke="black" points="357.5,-166.38 357.5,-191.62 427.75,-191.62 427.75,-166.38 357.5,-166.38"/>
<text text-anchor="start" x="364.5" y="-177.07" font-family="Times New Roman,serif" font-weight="bold" font-size="9.00">Secondary (G)</text>
<polygon fill="none" stroke="black" points="427.75,-166.38 427.75,-191.62 480.75,-191.62 480.75,-166.38 427.75,-166.38"/>
<text text-anchor="start" x="434.75" y="-177.07" font-family="Times New Roman,serif" font-weight="bold" font-size="9.00">Technical</text>
<polygon fill="none" stroke="black" points="356.5,-165.38 356.5,-192.62 481.75,-192.62 481.75,-165.38 356.5,-165.38"/>
</g>
<!-- n_0_4_5&#45;&gt;n_4_5 -->
<g id="edge9" class="edge">
<title>n_0_4_5&#45;&gt;n_4_5</title>
<path fill="none" stroke="black" d="M425.31,-247.64C424.24,-235.91 422.86,-220.86 421.68,-207.94"/>
<polygon fill="black" stroke="black" points="425.2,-207.98 420.8,-198.34 418.23,-208.62 425.2,-207.98"/>
</g>
<!-- n_0 -->
<g id="node13" class="node">
<title>n_0</title>
<polygon fill="none" stroke="black" points="528.25,-166.38 528.25,-191.62 588,-191.62 588,-166.38 528.25,-166.38"/>
<text text-anchor="start" x="535.25" y="-177.07" font-family="Times New Roman,serif" font-weight="bold" font-size="9.00">Primary (P)</text>
<polygon fill="none" stroke="black" points="527.25,-165.38 527.25,-192.62 589,-192.62 589,-165.38 527.25,-165.38"/>
</g>
<!-- n_0_4_5&#45;&gt;n_0 -->
<g id="edge12" class="edge">
<title>n_0_4_5&#45;&gt;n_0</title>
<path fill="none" stroke="black" d="M456.85,-247.64C476.66,-234.41 502.77,-216.97 523.52,-203.12"/>
<polygon fill="black" stroke="black" points="525.29,-206.14 531.67,-197.67 521.41,-200.32 525.29,-206.14"/>
</g>
<!-- n_4 -->
<g id="node11" class="node">
<title>n_4</title>
<polygon fill="none" stroke="black" points="339,-84.38 339,-109.62 409.25,-109.62 409.25,-84.38 339,-84.38"/>
<text text-anchor="start" x="346" y="-95.08" font-family="Times New Roman,serif" font-weight="bold" font-size="9.00">Secondary (G)</text>
<polygon fill="none" stroke="black" points="338,-83.38 338,-110.62 410.25,-110.62 410.25,-83.38 338,-83.38"/>
</g>
<!-- n_4_5&#45;&gt;n_4 -->
<g id="edge10" class="edge">
<title>n_4_5&#45;&gt;n_4</title>
<path fill="none" stroke="black" d="M409.58,-161.03C403.68,-150.53 395.96,-136.82 389.24,-124.87"/>
<polygon fill="black" stroke="black" points="392.35,-123.26 384.4,-116.26 386.25,-126.69 392.35,-123.26"/>
</g>
<!-- n_5 -->
<g id="node12" class="node">
<title>n_5</title>
<polygon fill="none" stroke="black" points="456.62,-84.38 456.62,-109.62 509.62,-109.62 509.62,-84.38 456.62,-84.38"/>
<text text-anchor="start" x="463.62" y="-95.08" font-family="Times New Roman,serif" font-weight="bold" font-size="9.00">Technical</text>
<polygon fill="none" stroke="black" points="455.62,-83.38 455.62,-110.62 510.62,-110.62 510.62,-83.38 455.62,-83.38"/>
</g>
<!-- n_4_5&#45;&gt;n_5 -->
<g id="edge11" class="edge">
<title>n_4_5&#45;&gt;n_5</title>
<path fill="none" stroke="black" d="M432.7,-161.03C441.35,-150.22 452.74,-135.99 462.5,-123.79"/>
<polygon fill="black" stroke="black" points="465.11,-126.12 468.63,-116.12 459.65,-121.75 465.11,-126.12"/>
</g>
</g>
</svg>
