<?xml version="1.0" encoding="UTF-8" standalone="no"?>
<!DOCTYPE svg PUBLIC "-//W3C//DTD SVG 1.1//EN"
 "http://www.w3.org/Graphics/SVG/1.1/DTD/svg11.dtd">
<!-- Generated by graphviz version 10.0.1 (20240210.2158)
 -->
<!-- Title: ND Pages: 1 -->
<svg width="554pt" height="423pt"
 viewBox="0.00 0.00 553.62 423.00" xmlns="http://www.w3.org/2000/svg" xmlns:xlink="http://www.w3.org/1999/xlink">
<g id="graph0" class="graph" transform="scale(1 1) rotate(0) translate(4 419)">
<title>ND</title>
<polygon fill="white" stroke="none" points="-4,4 -4,-419 549.62,-419 549.62,4 -4,4"/>
<!-- n_0_1_2_3_4_5_6 -->
<g id="node1" class="node">
<title>n_0_1_2_3_4_5_6</title>
<polygon fill="none" stroke="black" points="289.25,-342 289.25,-410 359.5,-410 359.5,-342 289.25,-342"/>
<text text-anchor="start" x="301.5" y="-395.45" font-family="Times New Roman,serif" font-weight="bold" font-size="9.00">Primary (P)</text>
<text text-anchor="start" x="300.75" y="-386.45" font-family="Times New Roman,serif" font-weight="bold" font-size="9.00">Primary (G)</text>
<text text-anchor="start" x="297" y="-377.45" font-family="Times New Roman,serif" font-weight="bold" font-size="9.00">Secondary (P)</text>
<text text-anchor="start" x="296.25" y="-368.45" font-family="Times New Roman,serif" font-weight="bold" font-size="9.00">Secondary (G)</text>
<text text-anchor="start" x="304.88" y="-359.45" font-family="Times New Roman,serif" font-weight="bold" font-size="9.00">Technical</text>
<text text-anchor="start" x="304.12" y="-350.45" font-family="Times New Roman,serif" font-weight="bold" font-size="9.00">University</text>
<polygon fill="none" stroke="black" points="359.5,-342 359.5,-410 411.75,-410 411.75,-342 359.5,-342"/>
<text text-anchor="start" x="366.5" y="-374.07" font-family="Times New Roman,serif" font-weight="bold" font-size="9.00">Preschool</text>
<polygon fill="none" stroke="black" points="288.25,-341 288.25,-411 412.75,-411 412.75,-341 288.25,-341"/>
</g>
<!-- n_0_1_3_4_5_6 -->
<g id="node2" class="node">
<title>n_0_1_3_4_5_6</title>
<polygon fill="none" stroke="black" points="215.75,-248 215.75,-289 277,-289 277,-248 215.75,-248"/>
<text text-anchor="start" x="223.5" y="-274.45" font-family="Times New Roman,serif" font-weight="bold" font-size="9.00">Primary (P)</text>
<text text-anchor="start" x="222.75" y="-265.45" font-family="Times New Roman,serif" font-weight="bold" font-size="9.00">Primary (G)</text>
<text text-anchor="start" x="226.12" y="-256.45" font-family="Times New Roman,serif" font-weight="bold" font-size="9.00">University</text>
<polygon fill="none" stroke="black" points="277,-248 277,-289 347.25,-289 347.25,-248 277,-248"/>
<text text-anchor="start" x="284.75" y="-274.45" font-family="Times New Roman,serif" font-weight="bold" font-size="9.00">Secondary (P)</text>
<text text-anchor="start" x="284" y="-265.45" font-family="Times New Roman,serif" font-weight="bold" font-size="9.00">Secondary (G)</text>
<text text-anchor="start" x="292.62" y="-256.45" font-family="Times New Roman,serif" font-weight="bold" font-size="9.00">Technical</text>
<polygon fill="none" stroke="black" points="214.75,-247 214.75,-290 348.25,-290 348.25,-247 214.75,-247"/>
</g>
<!-- n_0_1_2_3_4_5_6&#45;&gt;n_0_1_3_4_5_6 -->
<g id="edge1" class="edge">
<title>n_0_1_2_3_4_5_6&#45;&gt;n_0_1_3_4_5_6</title>
<path fill="none" stroke="black" d="M325.78,-337.21C318.56,-326.16 310.71,-314.17 303.66,-303.38"/>
<polygon fill="black" stroke="black" points="306.67,-301.6 298.27,-295.14 300.82,-305.43 306.67,-301.6"/>
</g>
<!-- n_2 -->
<g id="node13" class="node">
<title>n_2</title>
<polygon fill="none" stroke="black" points="394.38,-255.88 394.38,-281.12 446.62,-281.12 446.62,-255.88 394.38,-255.88"/>
<text text-anchor="start" x="401.38" y="-266.57" font-family="Times New Roman,serif" font-weight="bold" font-size="9.00">Preschool</text>
<polygon fill="none" stroke="black" points="393.38,-254.88 393.38,-282.12 447.62,-282.12 447.62,-254.88 393.38,-254.88"/>
</g>
<!-- n_0_1_2_3_4_5_6&#45;&gt;n_2 -->
<g id="edge12" class="edge">
<title>n_0_1_2_3_4_5_6&#45;&gt;n_2</title>
<path fill="none" stroke="black" d="M375.57,-337.21C384.67,-323.49 394.75,-308.31 403.05,-295.8"/>
<polygon fill="black" stroke="black" points="405.83,-297.95 408.44,-287.68 399.99,-294.08 405.83,-297.95"/>
</g>
<!-- n_0_1_6 -->
<g id="node3" class="node">
<title>n_0_1_6</title>
<polygon fill="none" stroke="black" points="136.62,-163 136.62,-195 197.88,-195 197.88,-163 136.62,-163"/>
<text text-anchor="start" x="144.38" y="-180.45" font-family="Times New Roman,serif" font-weight="bold" font-size="9.00">Primary (P)</text>
<text text-anchor="start" x="143.62" y="-171.45" font-family="Times New Roman,serif" font-weight="bold" font-size="9.00">Primary (G)</text>
<polygon fill="none" stroke="black" points="197.88,-163 197.88,-195 252.38,-195 252.38,-163 197.88,-163"/>
<text text-anchor="start" x="204.88" y="-177.07" font-family="Times New Roman,serif" font-weight="bold" font-size="9.00">University</text>
<polygon fill="none" stroke="black" points="135.62,-162 135.62,-196 253.38,-196 253.38,-162 135.62,-162"/>
</g>
<!-- n_0_1_3_4_5_6&#45;&gt;n_0_1_6 -->
<g id="edge2" class="edge">
<title>n_0_1_3_4_5_6&#45;&gt;n_0_1_6</title>
<path fill="none" stroke="black" d="M257.27,-243.13C246.34,-232.14 233.39,-219.11 222.09,-207.75"/>
<polygon fill="black" stroke="black" points="224.81,-205.52 215.28,-200.9 219.85,-210.46 224.81,-205.52"/>
</g>
<!-- n_3_4_5 -->
<g id="node8" class="node">
<title>n_3_4_5</title>
<polygon fill="none" stroke="black" points="299,-163 299,-195 367.75,-195 367.75,-163 299,-163"/>
<text text-anchor="start" x="306" y="-180.45" font-family="Times New Roman,serif" font-weight="bold" font-size="9.00">Secondary (P)</text>
<text text-anchor="start" x="313.88" y="-171.45" font-family="Times New Roman,serif" font-weight="bold" font-size="9.00">Technical</text>
<polygon fill="none" stroke="black" points="367.75,-163 367.75,-195 438,-195 438,-163 367.75,-163"/>
<text text-anchor="start" x="374.75" y="-177.07" font-family="Times New Roman,serif" font-weight="bold" font-size="9.00">Secondary (G)</text>
<polygon fill="none" stroke="black" points="298,-162 298,-196 439,-196 439,-162 298,-162"/>
</g>
<!-- n_0_1_3_4_5_6&#45;&gt;n_3_4_5 -->
<g id="edge7" class="edge">
<title>n_0_1_3_4_5_6&#45;&gt;n_3_4_5</title>
<path fill="none" stroke="black" d="M305.73,-243.13C316.66,-232.14 329.61,-219.11 340.91,-207.75"/>
<polygon fill="black" stroke="black" points="343.15,-210.46 347.72,-200.9 338.19,-205.52 343.15,-210.46"/>
</g>
<!-- n_0_1 -->
<g id="node4" class="node">
<title>n_0_1</title>
<polygon fill="none" stroke="black" points="9,-84.38 9,-109.62 68.75,-109.62 68.75,-84.38 9,-84.38"/>
<text text-anchor="start" x="16" y="-95.08" font-family="Times New Roman,serif" font-weight="bold" font-size="9.00">Primary (P)</text>
<polygon fill="none" stroke="black" points="68.75,-84.38 68.75,-109.62 130,-109.62 130,-84.38 68.75,-84.38"/>
<text text-anchor="start" x="75.75" y="-95.08" font-family="Times New Roman,serif" font-weight="bold" font-size="9.00">Primary (G)</text>
<polygon fill="none" stroke="black" points="8,-83.38 8,-110.62 131,-110.62 131,-83.38 8,-83.38"/>
</g>
<!-- n_0_1_6&#45;&gt;n_0_1 -->
<g id="edge3" class="edge">
<title>n_0_1_6&#45;&gt;n_0_1</title>
<path fill="none" stroke="black" d="M163.28,-158.02C145.63,-146.72 123.49,-132.55 105.15,-120.82"/>
<polygon fill="black" stroke="black" points="107.27,-118.02 96.96,-115.57 103.5,-123.91 107.27,-118.02"/>
</g>
<!-- n_6 -->
<g id="node7" class="node">
<title>n_6</title>
<polygon fill="none" stroke="black" points="177.25,-84.38 177.25,-109.62 231.75,-109.62 231.75,-84.38 177.25,-84.38"/>
<text text-anchor="start" x="184.25" y="-95.08" font-family="Times New Roman,serif" font-weight="bold" font-size="9.00">University</text>
<polygon fill="none" stroke="black" points="176.25,-83.38 176.25,-110.62 232.75,-110.62 232.75,-83.38 176.25,-83.38"/>
</g>
<!-- n_0_1_6&#45;&gt;n_6 -->
<g id="edge6" class="edge">
<title>n_0_1_6&#45;&gt;n_6</title>
<path fill="none" stroke="black" d="M196.97,-158.22C198.18,-148.54 199.66,-136.72 200.99,-126.11"/>
<polygon fill="black" stroke="black" points="204.44,-126.7 202.21,-116.35 197.49,-125.83 204.44,-126.7"/>
</g>
<!-- n_0 -->
<g id="node5" class="node">
<title>n_0</title>
<polygon fill="none" stroke="black" points="10.62,-5.38 10.62,-30.62 70.38,-30.62 70.38,-5.38 10.62,-5.38"/>
<text text-anchor="start" x="17.62" y="-16.07" font-family="Times New Roman,serif" font-weight="bold" font-size="9.00">Primary (P)</text>
<polygon fill="none" stroke="black" points="9.62,-4.38 9.62,-31.62 71.38,-31.62 71.38,-4.38 9.62,-4.38"/>
</g>
<!-- n_0_1&#45;&gt;n_0 -->
<g id="edge4" class="edge">
<title>n_0_1&#45;&gt;n_0</title>
<path fill="none" stroke="black" d="M63.21,-79.29C59.62,-69.77 55.04,-57.6 50.93,-46.69"/>
<polygon fill="black" stroke="black" points="54.21,-45.48 47.41,-37.36 47.66,-47.95 54.21,-45.48"/>
</g>
<!-- n_1 -->
<g id="node6" class="node">
<title>n_1</title>
<polygon fill="none" stroke="black" points="117.88,-5.38 117.88,-30.62 179.12,-30.62 179.12,-5.38 117.88,-5.38"/>
<text text-anchor="start" x="124.88" y="-16.07" font-family="Times New Roman,serif" font-weight="bold" font-size="9.00">Primary (G)</text>
<polygon fill="none" stroke="black" points="116.88,-4.38 116.88,-31.62 180.12,-31.62 180.12,-4.38 116.88,-4.38"/>
</g>
<!-- n_0_1&#45;&gt;n_1 -->
<g id="edge5" class="edge">
<title>n_0_1&#45;&gt;n_1</title>
<path fill="none" stroke="black" d="M86.64,-79.29C97.23,-68.97 111.02,-55.53 122.89,-43.96"/>
<polygon fill="black" stroke="black" points="125.32,-46.48 130.03,-37 120.43,-41.47 125.32,-46.48"/>
</g>
<!-- n_3_5 -->
<g id="node9" class="node">
<title>n_3_5</title>
<polygon fill="none" stroke="black" points="297.62,-84.38 297.62,-109.62 366.38,-109.62 366.38,-84.38 297.62,-84.38"/>
<text text-anchor="start" x="304.62" y="-95.08" font-family="Times New Roman,serif" font-weight="bold" font-size="9.00">Secondary (P)</text>
<polygon fill="none" stroke="black" points="366.38,-84.38 366.38,-109.62 419.38,-109.62 419.38,-84.38 366.38,-84.38"/>
<text text-anchor="start" x="373.38" y="-95.08" font-family="Times New Roman,serif" font-weight="bold" font-size="9.00">Technical</text>
<polygon fill="none" stroke="black" points="296.62,-83.38 296.62,-110.62 420.38,-110.62 420.38,-83.38 296.62,-83.38"/>
</g>
<!-- n_3_4_5&#45;&gt;n_3_5 -->
<g id="edge8" class="edge">
<title>n_3_4_5&#45;&gt;n_3_5</title>
<path fill="none" stroke="black" d="M366.03,-158.22C364.82,-148.54 363.34,-136.72 362.01,-126.11"/>
<polygon fill="black" stroke="black" points="365.51,-125.83 360.79,-116.35 358.56,-126.7 365.51,-125.83"/>
</g>
<!-- n_4 -->
<g id="node12" class="node">
<title>n_4</title>
<polygon fill="none" stroke="black" points="466.38,-84.38 466.38,-109.62 536.62,-109.62 536.62,-84.38 466.38,-84.38"/>
<text text-anchor="start" x="473.38" y="-95.08" font-family="Times New Roman,serif" font-weight="bold" font-size="9.00">Secondary (G)</text>
<polygon fill="none" stroke="black" points="465.38,-83.38 465.38,-110.62 537.62,-110.62 537.62,-83.38 465.38,-83.38"/>
</g>
<!-- n_3_4_5&#45;&gt;n_4 -->
<g id="edge11" class="edge">
<title>n_3_4_5&#45;&gt;n_4</title>
<path fill="none" stroke="black" d="M401.72,-158.02C420.59,-146.67 444.27,-132.42 463.83,-120.66"/>
<polygon fill="black" stroke="black" points="465.58,-123.69 472.34,-115.54 461.97,-117.69 465.58,-123.69"/>
</g>
<!-- n_3 -->
<g id="node10" class="node">
<title>n_3</title>
<polygon fill="none" stroke="black" points="265.12,-5.38 265.12,-30.62 333.88,-30.62 333.88,-5.38 265.12,-5.38"/>
<text text-anchor="start" x="272.12" y="-16.07" font-family="Times New Roman,serif" font-weight="bold" font-size="9.00">Secondary (P)</text>
<polygon fill="none" stroke="black" points="264.12,-4.38 264.12,-31.62 334.88,-31.62 334.88,-4.38 264.12,-4.38"/>
</g>
<!-- n_3_5&#45;&gt;n_3 -->
<g id="edge9" class="edge">
<title>n_3_5&#45;&gt;n_3</title>
<path fill="none" stroke="black" d="M345.7,-79.29C338.02,-69.27 328.09,-56.31 319.41,-44.98"/>
<polygon fill="black" stroke="black" points="322.26,-42.95 313.4,-37.14 316.71,-47.21 322.26,-42.95"/>
</g>
<!-- n_5 -->
<g id="node11" class="node">
<title>n_5</title>
<polygon fill="none" stroke="black" points="381,-5.38 381,-30.62 434,-30.62 434,-5.38 381,-5.38"/>
<text text-anchor="start" x="388" y="-16.07" font-family="Times New Roman,serif" font-weight="bold" font-size="9.00">Technical</text>
<polygon fill="none" stroke="black" points="380,-4.38 380,-31.62 435,-31.62 435,-4.38 380,-4.38"/>
</g>
<!-- n_3_5&#45;&gt;n_5 -->
<g id="edge10" class="edge">
<title>n_3_5&#45;&gt;n_5</title>
<path fill="none" stroke="black" d="M369.13,-79.29C375.45,-69.37 383.59,-56.57 390.75,-45.32"/>
<polygon fill="black" stroke="black" points="393.49,-47.53 395.91,-37.22 387.59,-43.78 393.49,-47.53"/>
</g>
</g>
</svg>
