<?xml version="1.0" encoding="UTF-8" standalone="no"?>
<!DOCTYPE svg PUBLIC "-//W3C//DTD SVG 1.1//EN"
 "http://www.w3.org/Graphics/SVG/1.1/DTD/svg11.dtd">
<!-- Generated by graphviz version 10.0.1 (20240210.2158)
 -->
<!-- Title: ND Pages: 1 -->
<svg width="610pt" height="405pt"
 viewBox="0.00 0.00 609.75 405.00" xmlns="http://www.w3.org/2000/svg" xmlns:xlink="http://www.w3.org/1999/xlink">
<g id="graph0" class="graph" transform="scale(1 1) rotate(0) translate(4 401)">
<title>ND</title>
<polygon fill="white" stroke="none" points="-4,4 -4,-401 605.75,-401 605.75,4 -4,4"/>
<!-- n_0_1_2_3_4_5_6 -->
<g id="node1" class="node">
<title>n_0_1_2_3_4_5_6</title>
<polygon fill="none" stroke="black" points="283.12,-342 283.12,-392 351.88,-392 351.88,-342 283.12,-342"/>
<text text-anchor="start" x="294.62" y="-377.45" font-family="Times New Roman,serif" font-weight="bold" font-size="9.00">Primary (P)</text>
<text text-anchor="start" x="293.88" y="-368.45" font-family="Times New Roman,serif" font-weight="bold" font-size="9.00">Primary (G)</text>
<text text-anchor="start" x="290.12" y="-359.45" font-family="Times New Roman,serif" font-weight="bold" font-size="9.00">Secondary (P)</text>
<text text-anchor="start" x="297.25" y="-350.45" font-family="Times New Roman,serif" font-weight="bold" font-size="9.00">University</text>
<polygon fill="none" stroke="black" points="351.88,-342 351.88,-392 422.12,-392 422.12,-342 351.88,-342"/>
<text text-anchor="start" x="367.88" y="-372.95" font-family="Times New Roman,serif" font-weight="bold" font-size="9.00">Preschool</text>
<text text-anchor="start" x="358.88" y="-363.95" font-family="Times New Roman,serif" font-weight="bold" font-size="9.00">Secondary (G)</text>
<text text-anchor="start" x="367.5" y="-354.95" font-family="Times New Roman,serif" font-weight="bold" font-size="9.00">Technical</text>
<polygon fill="none" stroke="black" points="282.12,-341 282.12,-393 423.12,-393 423.12,-341 282.12,-341"/>
</g>
<!-- n_0_1_3_6 -->
<g id="node2" class="node">
<title>n_0_1_3_6</title>
<polygon fill="none" stroke="black" points="202.38,-248 202.38,-289 271.12,-289 271.12,-248 202.38,-248"/>
<text text-anchor="start" x="213.12" y="-274.45" font-family="Times New Roman,serif" font-weight="bold" font-size="9.00">Primary (G)</text>
<text text-anchor="start" x="209.38" y="-265.45" font-family="Times New Roman,serif" font-weight="bold" font-size="9.00">Secondary (P)</text>
<text text-anchor="start" x="216.5" y="-256.45" font-family="Times New Roman,serif" font-weight="bold" font-size="9.00">University</text>
<polygon fill="none" stroke="black" points="271.12,-248 271.12,-289 330.88,-289 330.88,-248 271.12,-248"/>
<text text-anchor="start" x="278.12" y="-266.57" font-family="Times New Roman,serif" font-weight="bold" font-size="9.00">Primary (P)</text>
<polygon fill="none" stroke="black" points="201.38,-247 201.38,-290 331.88,-290 331.88,-247 201.38,-247"/>
</g>
<!-- n_0_1_2_3_4_5_6&#45;&gt;n_0_1_3_6 -->
<g id="edge1" class="edge">
<title>n_0_1_2_3_4_5_6&#45;&gt;n_0_1_3_6</title>
<path fill="none" stroke="black" d="M326.82,-337.05C317.04,-326.08 305.85,-313.51 295.78,-302.22"/>
<polygon fill="black" stroke="black" points="298.62,-300.14 289.35,-295 293.39,-304.8 298.62,-300.14"/>
</g>
<!-- n_2_4_5 -->
<g id="node9" class="node">
<title>n_2_4_5</title>
<polygon fill="none" stroke="black" points="378.38,-252.5 378.38,-284.5 448.62,-284.5 448.62,-252.5 378.38,-252.5"/>
<text text-anchor="start" x="385.38" y="-269.95" font-family="Times New Roman,serif" font-weight="bold" font-size="9.00">Secondary (G)</text>
<text text-anchor="start" x="394" y="-260.95" font-family="Times New Roman,serif" font-weight="bold" font-size="9.00">Technical</text>
<polygon fill="none" stroke="black" points="448.62,-252.5 448.62,-284.5 500.88,-284.5 500.88,-252.5 448.62,-252.5"/>
<text text-anchor="start" x="455.62" y="-266.57" font-family="Times New Roman,serif" font-weight="bold" font-size="9.00">Preschool</text>
<polygon fill="none" stroke="black" points="377.38,-251.5 377.38,-285.5 501.88,-285.5 501.88,-251.5 377.38,-251.5"/>
</g>
<!-- n_0_1_2_3_4_5_6&#45;&gt;n_2_4_5 -->
<g id="edge8" class="edge">
<title>n_0_1_2_3_4_5_6&#45;&gt;n_2_4_5</title>
<path fill="none" stroke="black" d="M378.73,-337.05C390.03,-324.51 403.22,-309.89 414.42,-297.46"/>
<polygon fill="black" stroke="black" points="416.7,-300.15 420.8,-290.38 411.5,-295.47 416.7,-300.15"/>
</g>
<!-- n_1_3_6 -->
<g id="node3" class="node">
<title>n_1_3_6</title>
<polygon fill="none" stroke="black" points="68.62,-163 68.62,-195 129.88,-195 129.88,-163 68.62,-163"/>
<text text-anchor="start" x="75.62" y="-180.45" font-family="Times New Roman,serif" font-weight="bold" font-size="9.00">Primary (G)</text>
<text text-anchor="start" x="79" y="-171.45" font-family="Times New Roman,serif" font-weight="bold" font-size="9.00">University</text>
<polygon fill="none" stroke="black" points="129.88,-163 129.88,-195 198.62,-195 198.62,-163 129.88,-163"/>
<text text-anchor="start" x="136.88" y="-177.07" font-family="Times New Roman,serif" font-weight="bold" font-size="9.00">Secondary (P)</text>
<polygon fill="none" stroke="black" points="67.62,-162 67.62,-196 199.62,-196 199.62,-162 67.62,-162"/>
</g>
<!-- n_0_1_3_6&#45;&gt;n_1_3_6 -->
<g id="edge2" class="edge">
<title>n_0_1_3_6&#45;&gt;n_1_3_6</title>
<path fill="none" stroke="black" d="M229.58,-243.13C212.07,-231.61 191.14,-217.84 173.31,-206.11"/>
<polygon fill="black" stroke="black" points="175.3,-203.23 165.03,-200.66 171.46,-209.08 175.3,-203.23"/>
</g>
<!-- n_0 -->
<g id="node8" class="node">
<title>n_0</title>
<polygon fill="none" stroke="black" points="245.75,-166.38 245.75,-191.62 305.5,-191.62 305.5,-166.38 245.75,-166.38"/>
<text text-anchor="start" x="252.75" y="-177.07" font-family="Times New Roman,serif" font-weight="bold" font-size="9.00">Primary (P)</text>
<polygon fill="none" stroke="black" points="244.75,-165.38 244.75,-192.62 306.5,-192.62 306.5,-165.38 244.75,-165.38"/>
</g>
<!-- n_0_1_3_6&#45;&gt;n_0 -->
<g id="edge7" class="edge">
<title>n_0_1_3_6&#45;&gt;n_0</title>
<path fill="none" stroke="black" d="M269.13,-243.13C270.25,-232.28 271.57,-219.45 272.72,-208.19"/>
<polygon fill="black" stroke="black" points="276.2,-208.58 273.75,-198.28 269.24,-207.87 276.2,-208.58"/>
</g>
<!-- n_1_6 -->
<g id="node4" class="node">
<title>n_1_6</title>
<polygon fill="none" stroke="black" points="33.75,-84.38 33.75,-109.62 95,-109.62 95,-84.38 33.75,-84.38"/>
<text text-anchor="start" x="40.75" y="-95.08" font-family="Times New Roman,serif" font-weight="bold" font-size="9.00">Primary (G)</text>
<polygon fill="none" stroke="black" points="95,-84.38 95,-109.62 149.5,-109.62 149.5,-84.38 95,-84.38"/>
<text text-anchor="start" x="102" y="-95.08" font-family="Times New Roman,serif" font-weight="bold" font-size="9.00">University</text>
<polygon fill="none" stroke="black" points="32.75,-83.38 32.75,-110.62 150.5,-110.62 150.5,-83.38 32.75,-83.38"/>
</g>
<!-- n_1_3_6&#45;&gt;n_1_6 -->
<g id="edge3" class="edge">
<title>n_1_3_6&#45;&gt;n_1_6</title>
<path fill="none" stroke="black" d="M123.24,-158.22C117.94,-148.13 111.41,-135.69 105.67,-124.75"/>
<polygon fill="black" stroke="black" points="108.92,-123.41 101.17,-116.18 102.72,-126.66 108.92,-123.41"/>
</g>
<!-- n_3 -->
<g id="node7" class="node">
<title>n_3</title>
<polygon fill="none" stroke="black" points="196.25,-84.38 196.25,-109.62 265,-109.62 265,-84.38 196.25,-84.38"/>
<text text-anchor="start" x="203.25" y="-95.08" font-family="Times New Roman,serif" font-weight="bold" font-size="9.00">Secondary (P)</text>
<polygon fill="none" stroke="black" points="195.25,-83.38 195.25,-110.62 266,-110.62 266,-83.38 195.25,-83.38"/>
</g>
<!-- n_1_3_6&#45;&gt;n_3 -->
<g id="edge6" class="edge">
<title>n_1_3_6&#45;&gt;n_3</title>
<path fill="none" stroke="black" d="M157.6,-158.22C170.86,-147.29 187.43,-133.63 201.43,-122.08"/>
<polygon fill="black" stroke="black" points="203.55,-124.87 209.03,-115.81 199.09,-119.47 203.55,-124.87"/>
</g>
<!-- n_1 -->
<g id="node5" class="node">
<title>n_1</title>
<polygon fill="none" stroke="black" points="9,-5.38 9,-30.62 70.25,-30.62 70.25,-5.38 9,-5.38"/>
<text text-anchor="start" x="16" y="-16.07" font-family="Times New Roman,serif" font-weight="bold" font-size="9.00">Primary (G)</text>
<polygon fill="none" stroke="black" points="8,-4.38 8,-31.62 71.25,-31.62 71.25,-4.38 8,-4.38"/>
</g>
<!-- n_1_6&#45;&gt;n_1 -->
<g id="edge4" class="edge">
<title>n_1_6&#45;&gt;n_1</title>
<path fill="none" stroke="black" d="M80.34,-79.29C73.64,-69.37 65,-56.57 57.4,-45.32"/>
<polygon fill="black" stroke="black" points="60.41,-43.52 51.91,-37.2 54.61,-47.44 60.41,-43.52"/>
</g>
<!-- n_6 -->
<g id="node6" class="node">
<title>n_6</title>
<polygon fill="none" stroke="black" points="117.38,-5.38 117.38,-30.62 171.88,-30.62 171.88,-5.38 117.38,-5.38"/>
<text text-anchor="start" x="124.38" y="-16.07" font-family="Times New Roman,serif" font-weight="bold" font-size="9.00">University</text>
<polygon fill="none" stroke="black" points="116.38,-4.38 116.38,-31.62 172.88,-31.62 172.88,-4.38 116.38,-4.38"/>
</g>
<!-- n_1_6&#45;&gt;n_6 -->
<g id="edge5" class="edge">
<title>n_1_6&#45;&gt;n_6</title>
<path fill="none" stroke="black" d="M103.13,-79.29C109.95,-69.37 118.76,-56.57 126.51,-45.32"/>
<polygon fill="black" stroke="black" points="129.32,-47.41 132.11,-37.19 123.55,-43.44 129.32,-47.41"/>
</g>
<!-- n_4_5 -->
<g id="node10" class="node">
<title>n_4_5</title>
<polygon fill="none" stroke="black" points="370,-166.38 370,-191.62 440.25,-191.62 440.25,-166.38 370,-166.38"/>
<text text-anchor="start" x="377" y="-177.07" font-family="Times New Roman,serif" font-weight="bold" font-size="9.00">Secondary (G)</text>
<polygon fill="none" stroke="black" points="440.25,-166.38 440.25,-191.62 493.25,-191.62 493.25,-166.38 440.25,-166.38"/>
<text text-anchor="start" x="447.25" y="-177.07" font-family="Times New Roman,serif" font-weight="bold" font-size="9.00">Technical</text>
<polygon fill="none" stroke="black" points="369,-165.38 369,-192.62 494.25,-192.62 494.25,-165.38 369,-165.38"/>
</g>
<!-- n_2_4_5&#45;&gt;n_4_5 -->
<g id="edge9" class="edge">
<title>n_2_4_5&#45;&gt;n_4_5</title>
<path fill="none" stroke="black" d="M437.81,-247.64C436.74,-235.91 435.36,-220.86 434.18,-207.94"/>
<polygon fill="black" stroke="black" points="437.7,-207.98 433.3,-198.34 430.73,-208.62 437.7,-207.98"/>
</g>
<!-- n_2 -->
<g id="node13" class="node">
<title>n_2</title>
<polygon fill="none" stroke="black" points="540.5,-166.38 540.5,-191.62 592.75,-191.62 592.75,-166.38 540.5,-166.38"/>
<text text-anchor="start" x="547.5" y="-177.07" font-family="Times New Roman,serif" font-weight="bold" font-size="9.00">Preschool</text>
<polygon fill="none" stroke="black" points="539.5,-165.38 539.5,-192.62 593.75,-192.62 593.75,-165.38 539.5,-165.38"/>
</g>
<!-- n_2_4_5&#45;&gt;n_2 -->
<g id="edge12" class="edge">
<title>n_2_4_5&#45;&gt;n_2</title>
<path fill="none" stroke="black" d="M468.44,-247.64C487.56,-234.47 512.73,-217.13 532.8,-203.3"/>
<polygon fill="black" stroke="black" points="534.7,-206.25 540.95,-197.69 530.73,-200.48 534.7,-206.25"/>
</g>
<!-- n_4 -->
<g id="node11" class="node">
<title>n_4</title>
<polygon fill="none" stroke="black" points="354.5,-84.38 354.5,-109.62 424.75,-109.62 424.75,-84.38 354.5,-84.38"/>
<text text-anchor="start" x="361.5" y="-95.08" font-family="Times New Roman,serif" font-weight="bold" font-size="9.00">Secondary (G)</text>
<polygon fill="none" stroke="black" points="353.5,-83.38 353.5,-110.62 425.75,-110.62 425.75,-83.38 353.5,-83.38"/>
</g>
<!-- n_4_5&#45;&gt;n_4 -->
<g id="edge10" class="edge">
<title>n_4_5&#45;&gt;n_4</title>
<path fill="none" stroke="black" d="M422.72,-161.03C417.21,-150.53 410.01,-136.82 403.73,-124.87"/>
<polygon fill="black" stroke="black" points="406.97,-123.51 399.22,-116.28 400.77,-126.76 406.97,-123.51"/>
</g>
<!-- n_5 -->
<g id="node12" class="node">
<title>n_5</title>
<polygon fill="none" stroke="black" points="472.12,-84.38 472.12,-109.62 525.12,-109.62 525.12,-84.38 472.12,-84.38"/>
<text text-anchor="start" x="479.12" y="-95.08" font-family="Times New Roman,serif" font-weight="bold" font-size="9.00">Technical</text>
<polygon fill="none" stroke="black" points="471.12,-83.38 471.12,-110.62 526.12,-110.62 526.12,-83.38 471.12,-83.38"/>
</g>
<!-- n_4_5&#45;&gt;n_5 -->
<g id="edge11" class="edge">
<title>n_4_5&#45;&gt;n_5</title>
<path fill="none" stroke="black" d="M445.83,-161.03C454.98,-150.11 467.05,-135.71 477.33,-123.43"/>
<polygon fill="black" stroke="black" points="479.73,-126.02 483.46,-116.1 474.36,-121.52 479.73,-126.02"/>
</g>
</g>
</svg>
