<?xml version="1.0" encoding="UTF-8" standalone="no"?>
<!DOCTYPE svg PUBLIC "-//W3C//DTD SVG 1.1//EN"
 "http://www.w3.org/Graphics/SVG/1.1/DTD/svg11.dtd">
<!-- Generated by graphviz version 10.0.1 (20240210.2158)
 -->
<!-- Title: ND Pages: 1 -->
<svg width="604pt" height="405pt"
 viewBox="0.00 0.00 604.00 405.00" xmlns="http://www.w3.org/2000/svg" xmlns:xlink="http://www.w3.org/1999/xlink">
<g id="graph0" class="graph" transform="scale(1 1) rotate(0) translate(4 401)">
<title>ND</title>
<polygon fill="white" stroke="none" points="-4,4 -4,-401 600,-401 600,4 -4,4"/>
<!-- n_0_1_2_3_4_5_6 -->
<g id="node1" class="node">
<title>n_0_1_2_3_4_5_6</title>
<polygon fill="none" stroke="black" points="285.62,-342 285.62,-392 355.88,-392 355.88,-342 285.62,-342"/>
<text text-anchor="start" x="297.88" y="-377.45" font-family="Times New Roman,serif" font-weight="bold" font-size="9.00">Primary (P)</text>
<text text-anchor="start" x="293.38" y="-368.45" font-family="Times New Roman,serif" font-weight="bold" font-size="9.00">Secondary (P)</text>
<text text-anchor="start" x="292.62" y="-359.45" font-family="Times New Roman,serif" font-weight="bold" font-size="9.00">Secondary (G)</text>
<text text-anchor="start" x="301.25" y="-350.45" font-family="Times New Roman,serif" font-weight="bold" font-size="9.00">Technical</text>
<polygon fill="none" stroke="black" points="355.88,-342 355.88,-392 417.12,-392 417.12,-342 355.88,-342"/>
<text text-anchor="start" x="362.88" y="-372.95" font-family="Times New Roman,serif" font-weight="bold" font-size="9.00">Primary (G)</text>
<text text-anchor="start" x="367.38" y="-363.95" font-family="Times New Roman,serif" font-weight="bold" font-size="9.00">Preschool</text>
<text text-anchor="start" x="366.25" y="-354.95" font-family="Times New Roman,serif" font-weight="bold" font-size="9.00">University</text>
<polygon fill="none" stroke="black" points="284.62,-341 284.62,-393 418.12,-393 418.12,-341 284.62,-341"/>
</g>
<!-- n_0_3_4_5 -->
<g id="node2" class="node">
<title>n_0_3_4_5</title>
<polygon fill="none" stroke="black" points="201.38,-248 201.38,-289 271.62,-289 271.62,-248 201.38,-248"/>
<text text-anchor="start" x="209.12" y="-274.45" font-family="Times New Roman,serif" font-weight="bold" font-size="9.00">Secondary (P)</text>
<text text-anchor="start" x="208.38" y="-265.45" font-family="Times New Roman,serif" font-weight="bold" font-size="9.00">Secondary (G)</text>
<text text-anchor="start" x="217" y="-256.45" font-family="Times New Roman,serif" font-weight="bold" font-size="9.00">Technical</text>
<polygon fill="none" stroke="black" points="271.62,-248 271.62,-289 331.38,-289 331.38,-248 271.62,-248"/>
<text text-anchor="start" x="278.62" y="-266.57" font-family="Times New Roman,serif" font-weight="bold" font-size="9.00">Primary (P)</text>
<polygon fill="none" stroke="black" points="200.38,-247 200.38,-290 332.38,-290 332.38,-247 200.38,-247"/>
</g>
<!-- n_0_1_2_3_4_5_6&#45;&gt;n_0_3_4_5 -->
<g id="edge1" class="edge">
<title>n_0_1_2_3_4_5_6&#45;&gt;n_0_3_4_5</title>
<path fill="none" stroke="black" d="M325.87,-337.05C316.21,-326.08 305.14,-313.51 295.19,-302.22"/>
<polygon fill="black" stroke="black" points="298.08,-300.2 288.85,-295.01 292.83,-304.83 298.08,-300.2"/>
</g>
<!-- n_1_2_6 -->
<g id="node9" class="node">
<title>n_1_2_6</title>
<polygon fill="none" stroke="black" points="378.5,-252.5 378.5,-284.5 433,-284.5 433,-252.5 378.5,-252.5"/>
<text text-anchor="start" x="386.62" y="-269.95" font-family="Times New Roman,serif" font-weight="bold" font-size="9.00">Preschool</text>
<text text-anchor="start" x="385.5" y="-260.95" font-family="Times New Roman,serif" font-weight="bold" font-size="9.00">University</text>
<polygon fill="none" stroke="black" points="433,-252.5 433,-284.5 494.25,-284.5 494.25,-252.5 433,-252.5"/>
<text text-anchor="start" x="440" y="-266.57" font-family="Times New Roman,serif" font-weight="bold" font-size="9.00">Primary (G)</text>
<polygon fill="none" stroke="black" points="377.5,-251.5 377.5,-285.5 495.25,-285.5 495.25,-251.5 377.5,-251.5"/>
</g>
<!-- n_0_1_2_3_4_5_6&#45;&gt;n_1_2_6 -->
<g id="edge8" class="edge">
<title>n_0_1_2_3_4_5_6&#45;&gt;n_1_2_6</title>
<path fill="none" stroke="black" d="M376.88,-337.05C387.82,-324.63 400.56,-310.17 411.43,-297.82"/>
<polygon fill="black" stroke="black" points="413.99,-300.21 417.97,-290.4 408.73,-295.59 413.99,-300.21"/>
</g>
<!-- n_3_4_5 -->
<g id="node3" class="node">
<title>n_3_4_5</title>
<polygon fill="none" stroke="black" points="76.75,-163 76.75,-195 147,-195 147,-163 76.75,-163"/>
<text text-anchor="start" x="84.5" y="-180.45" font-family="Times New Roman,serif" font-weight="bold" font-size="9.00">Secondary (P)</text>
<text text-anchor="start" x="83.75" y="-171.45" font-family="Times New Roman,serif" font-weight="bold" font-size="9.00">Secondary (G)</text>
<polygon fill="none" stroke="black" points="147,-163 147,-195 200,-195 200,-163 147,-163"/>
<text text-anchor="start" x="154" y="-177.07" font-family="Times New Roman,serif" font-weight="bold" font-size="9.00">Technical</text>
<polygon fill="none" stroke="black" points="75.75,-162 75.75,-196 201,-196 201,-162 75.75,-162"/>
</g>
<!-- n_0_3_4_5&#45;&gt;n_3_4_5 -->
<g id="edge2" class="edge">
<title>n_0_3_4_5&#45;&gt;n_3_4_5</title>
<path fill="none" stroke="black" d="M230.72,-243.13C213.87,-231.61 193.73,-217.84 176.57,-206.11"/>
<polygon fill="black" stroke="black" points="178.86,-203.43 168.63,-200.68 174.91,-209.21 178.86,-203.43"/>
</g>
<!-- n_0 -->
<g id="node8" class="node">
<title>n_0</title>
<polygon fill="none" stroke="black" points="247.5,-166.38 247.5,-191.62 307.25,-191.62 307.25,-166.38 247.5,-166.38"/>
<text text-anchor="start" x="254.5" y="-177.07" font-family="Times New Roman,serif" font-weight="bold" font-size="9.00">Primary (P)</text>
<polygon fill="none" stroke="black" points="246.5,-165.38 246.5,-192.62 308.25,-192.62 308.25,-165.38 246.5,-165.38"/>
</g>
<!-- n_0_3_4_5&#45;&gt;n_0 -->
<g id="edge7" class="edge">
<title>n_0_3_4_5&#45;&gt;n_0</title>
<path fill="none" stroke="black" d="M269.44,-243.13C270.82,-232.17 272.45,-219.18 273.88,-207.84"/>
<polygon fill="black" stroke="black" points="277.3,-208.63 275.08,-198.27 270.36,-207.76 277.3,-208.63"/>
</g>
<!-- n_3_4 -->
<g id="node4" class="node">
<title>n_3_4</title>
<polygon fill="none" stroke="black" points="31.88,-84.38 31.88,-109.62 100.62,-109.62 100.62,-84.38 31.88,-84.38"/>
<text text-anchor="start" x="38.88" y="-95.08" font-family="Times New Roman,serif" font-weight="bold" font-size="9.00">Secondary (P)</text>
<polygon fill="none" stroke="black" points="100.62,-84.38 100.62,-109.62 170.88,-109.62 170.88,-84.38 100.62,-84.38"/>
<text text-anchor="start" x="107.62" y="-95.08" font-family="Times New Roman,serif" font-weight="bold" font-size="9.00">Secondary (G)</text>
<polygon fill="none" stroke="black" points="30.88,-83.38 30.88,-110.62 171.88,-110.62 171.88,-83.38 30.88,-83.38"/>
</g>
<!-- n_3_4_5&#45;&gt;n_3_4 -->
<g id="edge3" class="edge">
<title>n_3_4_5&#45;&gt;n_3_4</title>
<path fill="none" stroke="black" d="M129.23,-158.22C124.61,-148.23 118.93,-135.95 113.9,-125.09"/>
<polygon fill="black" stroke="black" points="117.18,-123.82 109.8,-116.22 110.82,-126.76 117.18,-123.82"/>
</g>
<!-- n_5 -->
<g id="node7" class="node">
<title>n_5</title>
<polygon fill="none" stroke="black" points="217.88,-84.38 217.88,-109.62 270.88,-109.62 270.88,-84.38 217.88,-84.38"/>
<text text-anchor="start" x="224.88" y="-95.08" font-family="Times New Roman,serif" font-weight="bold" font-size="9.00">Technical</text>
<polygon fill="none" stroke="black" points="216.88,-83.38 216.88,-110.62 271.88,-110.62 271.88,-83.38 216.88,-83.38"/>
</g>
<!-- n_3_4_5&#45;&gt;n_5 -->
<g id="edge6" class="edge">
<title>n_3_4_5&#45;&gt;n_5</title>
<path fill="none" stroke="black" d="M164.85,-158.02C179.47,-146.98 197.73,-133.2 213.06,-121.63"/>
<polygon fill="black" stroke="black" points="215.09,-124.49 220.96,-115.67 210.87,-118.9 215.09,-124.49"/>
</g>
<!-- n_3 -->
<g id="node5" class="node">
<title>n_3</title>
<polygon fill="none" stroke="black" points="9,-5.38 9,-30.62 77.75,-30.62 77.75,-5.38 9,-5.38"/>
<text text-anchor="start" x="16" y="-16.07" font-family="Times New Roman,serif" font-weight="bold" font-size="9.00">Secondary (P)</text>
<polygon fill="none" stroke="black" points="8,-4.38 8,-31.62 78.75,-31.62 78.75,-4.38 8,-4.38"/>
</g>
<!-- n_3_4&#45;&gt;n_3 -->
<g id="edge4" class="edge">
<title>n_3_4&#45;&gt;n_3</title>
<path fill="none" stroke="black" d="M88.79,-79.29C81.24,-69.27 71.48,-56.31 62.94,-44.98"/>
<polygon fill="black" stroke="black" points="65.86,-43.03 57.05,-37.15 60.27,-47.24 65.86,-43.03"/>
</g>
<!-- n_4 -->
<g id="node6" class="node">
<title>n_4</title>
<polygon fill="none" stroke="black" points="125.25,-5.38 125.25,-30.62 195.5,-30.62 195.5,-5.38 125.25,-5.38"/>
<text text-anchor="start" x="132.25" y="-16.07" font-family="Times New Roman,serif" font-weight="bold" font-size="9.00">Secondary (G)</text>
<polygon fill="none" stroke="black" points="124.25,-4.38 124.25,-31.62 196.5,-31.62 196.5,-4.38 124.25,-4.38"/>
</g>
<!-- n_3_4&#45;&gt;n_4 -->
<g id="edge5" class="edge">
<title>n_3_4&#45;&gt;n_4</title>
<path fill="none" stroke="black" d="M114.18,-79.29C121.86,-69.27 131.78,-56.31 140.47,-44.98"/>
<polygon fill="black" stroke="black" points="143.17,-47.21 146.47,-37.14 137.61,-42.95 143.17,-47.21"/>
</g>
<!-- n_2_6 -->
<g id="node10" class="node">
<title>n_2_6</title>
<polygon fill="none" stroke="black" points="372,-166.38 372,-191.62 424.25,-191.62 424.25,-166.38 372,-166.38"/>
<text text-anchor="start" x="379" y="-177.07" font-family="Times New Roman,serif" font-weight="bold" font-size="9.00">Preschool</text>
<polygon fill="none" stroke="black" points="424.25,-166.38 424.25,-191.62 478.75,-191.62 478.75,-166.38 424.25,-166.38"/>
<text text-anchor="start" x="431.25" y="-177.07" font-family="Times New Roman,serif" font-weight="bold" font-size="9.00">University</text>
<polygon fill="none" stroke="black" points="371,-165.38 371,-192.62 479.75,-192.62 479.75,-165.38 371,-165.38"/>
</g>
<!-- n_1_2_6&#45;&gt;n_2_6 -->
<g id="edge9" class="edge">
<title>n_1_2_6&#45;&gt;n_2_6</title>
<path fill="none" stroke="black" d="M433.88,-247.64C432.4,-235.91 430.51,-220.86 428.89,-207.94"/>
<polygon fill="black" stroke="black" points="432.4,-207.82 427.68,-198.33 425.45,-208.69 432.4,-207.82"/>
</g>
<!-- n_1 -->
<g id="node13" class="node">
<title>n_1</title>
<polygon fill="none" stroke="black" points="525.75,-166.38 525.75,-191.62 587,-191.62 587,-166.38 525.75,-166.38"/>
<text text-anchor="start" x="532.75" y="-177.07" font-family="Times New Roman,serif" font-weight="bold" font-size="9.00">Primary (G)</text>
<polygon fill="none" stroke="black" points="524.75,-165.38 524.75,-192.62 588,-192.62 588,-165.38 524.75,-165.38"/>
</g>
<!-- n_1_2_6&#45;&gt;n_1 -->
<g id="edge12" class="edge">
<title>n_1_2_6&#45;&gt;n_1</title>
<path fill="none" stroke="black" d="M463.6,-247.64C481.59,-234.53 505.24,-217.29 524.16,-203.49"/>
<polygon fill="black" stroke="black" points="526.05,-206.44 532.07,-197.72 521.93,-200.79 526.05,-206.44"/>
</g>
<!-- n_2 -->
<g id="node11" class="node">
<title>n_2</title>
<polygon fill="none" stroke="black" points="358.25,-84.38 358.25,-109.62 410.5,-109.62 410.5,-84.38 358.25,-84.38"/>
<text text-anchor="start" x="365.25" y="-95.08" font-family="Times New Roman,serif" font-weight="bold" font-size="9.00">Preschool</text>
<polygon fill="none" stroke="black" points="357.25,-83.38 357.25,-110.62 411.5,-110.62 411.5,-83.38 357.25,-83.38"/>
</g>
<!-- n_2_6&#45;&gt;n_2 -->
<g id="edge10" class="edge">
<title>n_2_6&#45;&gt;n_2</title>
<path fill="none" stroke="black" d="M416.68,-161.03C411.3,-150.53 404.27,-136.82 398.14,-124.87"/>
<polygon fill="black" stroke="black" points="401.42,-123.59 393.75,-116.29 395.19,-126.78 401.42,-123.59"/>
</g>
<!-- n_6 -->
<g id="node12" class="node">
<title>n_6</title>
<polygon fill="none" stroke="black" points="457.12,-84.38 457.12,-109.62 511.62,-109.62 511.62,-84.38 457.12,-84.38"/>
<text text-anchor="start" x="464.12" y="-95.08" font-family="Times New Roman,serif" font-weight="bold" font-size="9.00">University</text>
<polygon fill="none" stroke="black" points="456.12,-83.38 456.12,-110.62 512.62,-110.62 512.62,-83.38 456.12,-83.38"/>
</g>
<!-- n_2_6&#45;&gt;n_6 -->
<g id="edge11" class="edge">
<title>n_2_6&#45;&gt;n_6</title>
<path fill="none" stroke="black" d="M437.89,-161.03C445.79,-150.32 456.15,-136.27 465.09,-124.15"/>
<polygon fill="black" stroke="black" points="467.86,-126.29 470.98,-116.16 462.23,-122.13 467.86,-126.29"/>
</g>
</g>
</svg>
