<?xml version="1.0" encoding="UTF-8" standalone="no"?>
<!DOCTYPE svg PUBLIC "-//W3C//DTD SVG 1.1//EN"
 "http://www.w3.org/Graphics/SVG/1.1/DTD/svg11.dtd">
<!-- Generated by graphviz version 10.0.1 (20240210.2158)
 -->
<!-- Title: ND Pages: 1 -->
<svg width="626pt" height="405pt"
 viewBox="0.00 0.00 626.00 405.00" xmlns="http://www.w3.org/2000/svg" xmlns:xlink="http://www.w3.org/1999/xlink">
<g id="graph0" class="graph" transform="scale(1 1) rotate(0) translate(4 401)">
<title>ND</title>
<polygon fill="white" stroke="none" points="-4,4 -4,-401 622,-401 622,4 -4,4"/>
<!-- n_0_1_2_3_4_5_6 -->
<g id="node1" class="node">
<title>n_0_1_2_3_4_5_6</title>
<polygon fill="none" stroke="black" points="273.88,-342 273.88,-392 341.88,-392 341.88,-342 273.88,-342"/>
<text text-anchor="start" x="292.88" y="-377.45" font-family="Times New Roman,serif" font-weight="bold" font-size="9.00">Normal</text>
<text text-anchor="start" x="280.88" y="-368.45" font-family="Times New Roman,serif" font-weight="bold" font-size="9.00">Overweight II</text>
<text text-anchor="start" x="288.38" y="-359.45" font-family="Times New Roman,serif" font-weight="bold" font-size="9.00">Obesity II</text>
<text text-anchor="start" x="286.88" y="-350.45" font-family="Times New Roman,serif" font-weight="bold" font-size="9.00">Obesity III</text>
<polygon fill="none" stroke="black" points="341.88,-342 341.88,-392 430.12,-392 430.12,-342 341.88,-342"/>
<text text-anchor="start" x="348.88" y="-372.95" font-family="Times New Roman,serif" font-weight="bold" font-size="9.00">Insufficient weight</text>
<text text-anchor="start" x="360.5" y="-363.95" font-family="Times New Roman,serif" font-weight="bold" font-size="9.00">Overweight I</text>
<text text-anchor="start" x="368" y="-354.95" font-family="Times New Roman,serif" font-weight="bold" font-size="9.00">Obesity I</text>
<polygon fill="none" stroke="black" points="272.88,-341 272.88,-393 431.12,-393 431.12,-341 272.88,-341"/>
</g>
<!-- n_1_3_5_6 -->
<g id="node2" class="node">
<title>n_1_3_5_6</title>
<polygon fill="none" stroke="black" points="201,-248 201,-289 269,-289 269,-248 201,-248"/>
<text text-anchor="start" x="220" y="-274.45" font-family="Times New Roman,serif" font-weight="bold" font-size="9.00">Normal</text>
<text text-anchor="start" x="208" y="-265.45" font-family="Times New Roman,serif" font-weight="bold" font-size="9.00">Overweight II</text>
<text text-anchor="start" x="215.5" y="-256.45" font-family="Times New Roman,serif" font-weight="bold" font-size="9.00">Obesity II</text>
<polygon fill="none" stroke="black" points="269,-248 269,-289 325,-289 325,-248 269,-248"/>
<text text-anchor="start" x="276" y="-266.57" font-family="Times New Roman,serif" font-weight="bold" font-size="9.00">Obesity III</text>
<polygon fill="none" stroke="black" points="200,-247 200,-290 326,-290 326,-247 200,-247"/>
</g>
<!-- n_0_1_2_3_4_5_6&#45;&gt;n_1_3_5_6 -->
<g id="edge1" class="edge">
<title>n_0_1_2_3_4_5_6&#45;&gt;n_1_3_5_6</title>
<path fill="none" stroke="black" d="M325.3,-337.05C315.18,-326.08 303.59,-313.51 293.17,-302.22"/>
<polygon fill="black" stroke="black" points="295.86,-299.97 286.51,-294.99 290.71,-304.71 295.86,-299.97"/>
</g>
<!-- n_0_2_4 -->
<g id="node9" class="node">
<title>n_0_2_4</title>
<polygon fill="none" stroke="black" points="371.88,-252.5 371.88,-284.5 460.12,-284.5 460.12,-252.5 371.88,-252.5"/>
<text text-anchor="start" x="378.88" y="-269.95" font-family="Times New Roman,serif" font-weight="bold" font-size="9.00">Insufficient weight</text>
<text text-anchor="start" x="390.5" y="-260.95" font-family="Times New Roman,serif" font-weight="bold" font-size="9.00">Overweight I</text>
<polygon fill="none" stroke="black" points="460.12,-252.5 460.12,-284.5 510.12,-284.5 510.12,-252.5 460.12,-252.5"/>
<text text-anchor="start" x="467.12" y="-266.57" font-family="Times New Roman,serif" font-weight="bold" font-size="9.00">Obesity I</text>
<polygon fill="none" stroke="black" points="370.88,-251.5 370.88,-285.5 511.12,-285.5 511.12,-251.5 370.88,-251.5"/>
</g>
<!-- n_0_1_2_3_4_5_6&#45;&gt;n_0_2_4 -->
<g id="edge8" class="edge">
<title>n_0_1_2_3_4_5_6&#45;&gt;n_0_2_4</title>
<path fill="none" stroke="black" d="M378.7,-337.05C390.27,-324.51 403.75,-309.89 415.21,-297.46"/>
<polygon fill="black" stroke="black" points="417.54,-300.1 421.75,-290.37 412.4,-295.35 417.54,-300.1"/>
</g>
<!-- n_1_3_5 -->
<g id="node3" class="node">
<title>n_1_3_5</title>
<polygon fill="none" stroke="black" points="83,-163 83,-195 151,-195 151,-163 83,-163"/>
<text text-anchor="start" x="90" y="-180.45" font-family="Times New Roman,serif" font-weight="bold" font-size="9.00">Overweight II</text>
<text text-anchor="start" x="97.5" y="-171.45" font-family="Times New Roman,serif" font-weight="bold" font-size="9.00">Obesity II</text>
<polygon fill="none" stroke="black" points="151,-163 151,-195 195,-195 195,-163 151,-163"/>
<text text-anchor="start" x="158" y="-177.07" font-family="Times New Roman,serif" font-weight="bold" font-size="9.00">Normal</text>
<polygon fill="none" stroke="black" points="82,-162 82,-196 196,-196 196,-162 82,-162"/>
</g>
<!-- n_1_3_5_6&#45;&gt;n_1_3_5 -->
<g id="edge2" class="edge">
<title>n_1_3_5_6&#45;&gt;n_1_3_5</title>
<path fill="none" stroke="black" d="M228.46,-243.13C212.28,-231.71 192.99,-218.1 176.46,-206.43"/>
<polygon fill="black" stroke="black" points="178.52,-203.6 168.33,-200.7 174.49,-209.32 178.52,-203.6"/>
</g>
<!-- n_6 -->
<g id="node8" class="node">
<title>n_6</title>
<polygon fill="none" stroke="black" points="242,-166.38 242,-191.62 298,-191.62 298,-166.38 242,-166.38"/>
<text text-anchor="start" x="249" y="-177.07" font-family="Times New Roman,serif" font-weight="bold" font-size="9.00">Obesity III</text>
<polygon fill="none" stroke="black" points="241,-165.38 241,-192.62 299,-192.62 299,-165.38 241,-165.38"/>
</g>
<!-- n_1_3_5_6&#45;&gt;n_6 -->
<g id="edge7" class="edge">
<title>n_1_3_5_6&#45;&gt;n_6</title>
<path fill="none" stroke="black" d="M264.95,-243.13C265.82,-232.28 266.84,-219.45 267.74,-208.19"/>
<polygon fill="black" stroke="black" points="271.23,-208.53 268.54,-198.28 264.25,-207.97 271.23,-208.53"/>
</g>
<!-- n_3_5 -->
<g id="node4" class="node">
<title>n_3_5</title>
<polygon fill="none" stroke="black" points="36.5,-84.38 36.5,-109.62 104.5,-109.62 104.5,-84.38 36.5,-84.38"/>
<text text-anchor="start" x="43.5" y="-95.08" font-family="Times New Roman,serif" font-weight="bold" font-size="9.00">Overweight II</text>
<polygon fill="none" stroke="black" points="104.5,-84.38 104.5,-109.62 157.5,-109.62 157.5,-84.38 104.5,-84.38"/>
<text text-anchor="start" x="111.5" y="-95.08" font-family="Times New Roman,serif" font-weight="bold" font-size="9.00">Obesity II</text>
<polygon fill="none" stroke="black" points="35.5,-83.38 35.5,-110.62 158.5,-110.62 158.5,-83.38 35.5,-83.38"/>
</g>
<!-- n_1_3_5&#45;&gt;n_3_5 -->
<g id="edge3" class="edge">
<title>n_1_3_5&#45;&gt;n_3_5</title>
<path fill="none" stroke="black" d="M128.62,-158.22C123.32,-148.13 116.79,-135.69 111.05,-124.75"/>
<polygon fill="black" stroke="black" points="114.29,-123.41 106.55,-116.18 108.1,-126.66 114.29,-123.41"/>
</g>
<!-- n_1 -->
<g id="node7" class="node">
<title>n_1</title>
<polygon fill="none" stroke="black" points="205,-84.38 205,-109.62 249,-109.62 249,-84.38 205,-84.38"/>
<text text-anchor="start" x="212" y="-95.08" font-family="Times New Roman,serif" font-weight="bold" font-size="9.00">Normal</text>
<polygon fill="none" stroke="black" points="204,-83.38 204,-110.62 250,-110.62 250,-83.38 204,-83.38"/>
</g>
<!-- n_1_3_5&#45;&gt;n_1 -->
<g id="edge6" class="edge">
<title>n_1_3_5&#45;&gt;n_1</title>
<path fill="none" stroke="black" d="M160.75,-158.22C172.66,-147.4 187.52,-133.89 200.15,-122.41"/>
<polygon fill="black" stroke="black" points="202.31,-125.18 207.35,-115.86 197.6,-120 202.31,-125.18"/>
</g>
<!-- n_3 -->
<g id="node5" class="node">
<title>n_3</title>
<polygon fill="none" stroke="black" points="9,-5.38 9,-30.62 77,-30.62 77,-5.38 9,-5.38"/>
<text text-anchor="start" x="16" y="-16.07" font-family="Times New Roman,serif" font-weight="bold" font-size="9.00">Overweight II</text>
<polygon fill="none" stroke="black" points="8,-4.38 8,-31.62 78,-31.62 78,-4.38 8,-4.38"/>
</g>
<!-- n_3_5&#45;&gt;n_3 -->
<g id="edge4" class="edge">
<title>n_3_5&#45;&gt;n_3</title>
<path fill="none" stroke="black" d="M85.28,-79.29C78.33,-69.37 69.35,-56.57 61.46,-45.32"/>
<polygon fill="black" stroke="black" points="64.36,-43.36 55.75,-37.18 58.63,-47.38 64.36,-43.36"/>
</g>
<!-- n_5 -->
<g id="node6" class="node">
<title>n_5</title>
<polygon fill="none" stroke="black" points="124.5,-5.38 124.5,-30.62 177.5,-30.62 177.5,-5.38 124.5,-5.38"/>
<text text-anchor="start" x="131.5" y="-16.07" font-family="Times New Roman,serif" font-weight="bold" font-size="9.00">Obesity II</text>
<polygon fill="none" stroke="black" points="123.5,-4.38 123.5,-31.62 178.5,-31.62 178.5,-4.38 123.5,-4.38"/>
</g>
<!-- n_3_5&#45;&gt;n_5 -->
<g id="edge5" class="edge">
<title>n_3_5&#45;&gt;n_5</title>
<path fill="none" stroke="black" d="M108.72,-79.29C115.67,-69.37 124.65,-56.57 132.54,-45.32"/>
<polygon fill="black" stroke="black" points="135.37,-47.38 138.25,-37.18 129.64,-43.36 135.37,-47.38"/>
</g>
<!-- n_0_2 -->
<g id="node10" class="node">
<title>n_0_2</title>
<polygon fill="none" stroke="black" points="358.38,-166.38 358.38,-191.62 446.62,-191.62 446.62,-166.38 358.38,-166.38"/>
<text text-anchor="start" x="365.38" y="-177.07" font-family="Times New Roman,serif" font-weight="bold" font-size="9.00">Insufficient weight</text>
<polygon fill="none" stroke="black" points="446.62,-166.38 446.62,-191.62 511.62,-191.62 511.62,-166.38 446.62,-166.38"/>
<text text-anchor="start" x="453.62" y="-177.07" font-family="Times New Roman,serif" font-weight="bold" font-size="9.00">Overweight I</text>
<polygon fill="none" stroke="black" points="357.38,-165.38 357.38,-192.62 512.62,-192.62 512.62,-165.38 357.38,-165.38"/>
</g>
<!-- n_0_2_4&#45;&gt;n_0_2 -->
<g id="edge9" class="edge">
<title>n_0_2_4&#45;&gt;n_0_2</title>
<path fill="none" stroke="black" d="M439.64,-247.64C438.83,-235.91 437.8,-220.86 436.92,-207.94"/>
<polygon fill="black" stroke="black" points="440.43,-208.08 436.26,-198.34 433.45,-208.56 440.43,-208.08"/>
</g>
<!-- n_4 -->
<g id="node13" class="node">
<title>n_4</title>
<polygon fill="none" stroke="black" points="559,-166.38 559,-191.62 609,-191.62 609,-166.38 559,-166.38"/>
<text text-anchor="start" x="566" y="-177.07" font-family="Times New Roman,serif" font-weight="bold" font-size="9.00">Obesity I</text>
<polygon fill="none" stroke="black" points="558,-165.38 558,-192.62 610,-192.62 610,-165.38 558,-165.38"/>
</g>
<!-- n_0_2_4&#45;&gt;n_4 -->
<g id="edge12" class="edge">
<title>n_0_2_4&#45;&gt;n_4</title>
<path fill="none" stroke="black" d="M473.45,-247.64C495.27,-234.29 524.09,-216.66 546.84,-202.74"/>
<polygon fill="black" stroke="black" points="548.5,-205.83 555.2,-197.62 544.84,-199.86 548.5,-205.83"/>
</g>
<!-- n_0 -->
<g id="node11" class="node">
<title>n_0</title>
<polygon fill="none" stroke="black" points="342.88,-84.38 342.88,-109.62 431.12,-109.62 431.12,-84.38 342.88,-84.38"/>
<text text-anchor="start" x="349.88" y="-95.08" font-family="Times New Roman,serif" font-weight="bold" font-size="9.00">Insufficient weight</text>
<polygon fill="none" stroke="black" points="341.88,-83.38 341.88,-110.62 432.12,-110.62 432.12,-83.38 341.88,-83.38"/>
</g>
<!-- n_0_2&#45;&gt;n_0 -->
<g id="edge10" class="edge">
<title>n_0_2&#45;&gt;n_0</title>
<path fill="none" stroke="black" d="M424.82,-161.03C418.46,-150.43 410.13,-136.54 402.9,-124.51"/>
<polygon fill="black" stroke="black" points="406.09,-123.01 397.94,-116.24 400.09,-126.62 406.09,-123.01"/>
</g>
<!-- n_2 -->
<g id="node12" class="node">
<title>n_2</title>
<polygon fill="none" stroke="black" points="478.5,-84.38 478.5,-109.62 543.5,-109.62 543.5,-84.38 478.5,-84.38"/>
<text text-anchor="start" x="485.5" y="-95.08" font-family="Times New Roman,serif" font-weight="bold" font-size="9.00">Overweight I</text>
<polygon fill="none" stroke="black" points="477.5,-83.38 477.5,-110.62 544.5,-110.62 544.5,-83.38 477.5,-83.38"/>
</g>
<!-- n_0_2&#45;&gt;n_2 -->
<g id="edge11" class="edge">
<title>n_0_2&#45;&gt;n_2</title>
<path fill="none" stroke="black" d="M451.12,-161.03C461.6,-150 475.44,-135.43 487.18,-123.07"/>
<polygon fill="black" stroke="black" points="489.51,-125.7 493.86,-116.04 484.44,-120.88 489.51,-125.7"/>
</g>
</g>
</svg>
