<?xml version="1.0" encoding="UTF-8" standalone="no"?>
<!DOCTYPE svg PUBLIC "-//W3C//DTD SVG 1.1//EN"
 "http://www.w3.org/Graphics/SVG/1.1/DTD/svg11.dtd">
<!-- Generated by graphviz version 10.0.1 (20240210.2158)
 -->
<!-- Title: ND Pages: 1 -->
<svg width="612pt" height="405pt"
 viewBox="0.00 0.00 612.00 405.00" xmlns="http://www.w3.org/2000/svg" xmlns:xlink="http://www.w3.org/1999/xlink">
<g id="graph0" class="graph" transform="scale(1 1) rotate(0) translate(4 401)">
<title>ND</title>
<polygon fill="white" stroke="none" points="-4,4 -4,-401 608,-401 608,4 -4,4"/>
<!-- n_0_1_2_3_4_5_6 -->
<g id="node1" class="node">
<title>n_0_1_2_3_4_5_6</title>
<polygon fill="none" stroke="black" points="253.38,-342 253.38,-392 318.38,-392 318.38,-342 253.38,-342"/>
<text text-anchor="start" x="270.88" y="-377.45" font-family="Times New Roman,serif" font-weight="bold" font-size="9.00">Normal</text>
<text text-anchor="start" x="260.38" y="-368.45" font-family="Times New Roman,serif" font-weight="bold" font-size="9.00">Overweight I</text>
<text text-anchor="start" x="267.88" y="-359.45" font-family="Times New Roman,serif" font-weight="bold" font-size="9.00">Obesity I</text>
<text text-anchor="start" x="266.38" y="-350.45" font-family="Times New Roman,serif" font-weight="bold" font-size="9.00">Obesity II</text>
<polygon fill="none" stroke="black" points="318.38,-342 318.38,-392 406.62,-392 406.62,-342 318.38,-342"/>
<text text-anchor="start" x="325.38" y="-372.95" font-family="Times New Roman,serif" font-weight="bold" font-size="9.00">Insufficient weight</text>
<text text-anchor="start" x="335.5" y="-363.95" font-family="Times New Roman,serif" font-weight="bold" font-size="9.00">Overweight II</text>
<text text-anchor="start" x="341.5" y="-354.95" font-family="Times New Roman,serif" font-weight="bold" font-size="9.00">Obesity III</text>
<polygon fill="none" stroke="black" points="252.38,-341 252.38,-393 407.62,-393 407.62,-341 252.38,-341"/>
</g>
<!-- n_1_2_4_5 -->
<g id="node2" class="node">
<title>n_1_2_4_5</title>
<polygon fill="none" stroke="black" points="182,-248 182,-289 235,-289 235,-248 182,-248"/>
<text text-anchor="start" x="193.5" y="-274.45" font-family="Times New Roman,serif" font-weight="bold" font-size="9.00">Normal</text>
<text text-anchor="start" x="190.5" y="-265.45" font-family="Times New Roman,serif" font-weight="bold" font-size="9.00">Obesity I</text>
<text text-anchor="start" x="189" y="-256.45" font-family="Times New Roman,serif" font-weight="bold" font-size="9.00">Obesity II</text>
<polygon fill="none" stroke="black" points="235,-248 235,-289 300,-289 300,-248 235,-248"/>
<text text-anchor="start" x="242" y="-266.57" font-family="Times New Roman,serif" font-weight="bold" font-size="9.00">Overweight I</text>
<polygon fill="none" stroke="black" points="181,-247 181,-290 301,-290 301,-247 181,-247"/>
</g>
<!-- n_0_1_2_3_4_5_6&#45;&gt;n_1_2_4_5 -->
<g id="edge1" class="edge">
<title>n_0_1_2_3_4_5_6&#45;&gt;n_1_2_4_5</title>
<path fill="none" stroke="black" d="M303.3,-337.05C293.18,-326.08 281.59,-313.51 271.17,-302.22"/>
<polygon fill="black" stroke="black" points="273.86,-299.97 264.51,-294.99 268.71,-304.71 273.86,-299.97"/>
</g>
<!-- n_0_3_6 -->
<g id="node9" class="node">
<title>n_0_3_6</title>
<polygon fill="none" stroke="black" points="346.88,-252.5 346.88,-284.5 435.12,-284.5 435.12,-252.5 346.88,-252.5"/>
<text text-anchor="start" x="353.88" y="-269.95" font-family="Times New Roman,serif" font-weight="bold" font-size="9.00">Insufficient weight</text>
<text text-anchor="start" x="364" y="-260.95" font-family="Times New Roman,serif" font-weight="bold" font-size="9.00">Overweight II</text>
<polygon fill="none" stroke="black" points="435.12,-252.5 435.12,-284.5 491.12,-284.5 491.12,-252.5 435.12,-252.5"/>
<text text-anchor="start" x="442.12" y="-266.57" font-family="Times New Roman,serif" font-weight="bold" font-size="9.00">Obesity III</text>
<polygon fill="none" stroke="black" points="345.88,-251.5 345.88,-285.5 492.12,-285.5 492.12,-251.5 345.88,-251.5"/>
</g>
<!-- n_0_1_2_3_4_5_6&#45;&gt;n_0_3_6 -->
<g id="edge8" class="edge">
<title>n_0_1_2_3_4_5_6&#45;&gt;n_0_3_6</title>
<path fill="none" stroke="black" d="M356.7,-337.05C368.27,-324.51 381.75,-309.89 393.21,-297.46"/>
<polygon fill="black" stroke="black" points="395.54,-300.1 399.75,-290.37 390.4,-295.35 395.54,-300.1"/>
</g>
<!-- n_1_4_5 -->
<g id="node3" class="node">
<title>n_1_4_5</title>
<polygon fill="none" stroke="black" points="63.5,-163 63.5,-195 116.5,-195 116.5,-163 63.5,-163"/>
<text text-anchor="start" x="75" y="-180.45" font-family="Times New Roman,serif" font-weight="bold" font-size="9.00">Normal</text>
<text text-anchor="start" x="70.5" y="-171.45" font-family="Times New Roman,serif" font-weight="bold" font-size="9.00">Obesity II</text>
<polygon fill="none" stroke="black" points="116.5,-163 116.5,-195 166.5,-195 166.5,-163 116.5,-163"/>
<text text-anchor="start" x="123.5" y="-177.07" font-family="Times New Roman,serif" font-weight="bold" font-size="9.00">Obesity I</text>
<polygon fill="none" stroke="black" points="62.5,-162 62.5,-196 167.5,-196 167.5,-162 62.5,-162"/>
</g>
<!-- n_1_2_4_5&#45;&gt;n_1_4_5 -->
<g id="edge2" class="edge">
<title>n_1_2_4_5&#45;&gt;n_1_4_5</title>
<path fill="none" stroke="black" d="M205.9,-243.13C189.31,-231.61 169.49,-217.84 152.6,-206.11"/>
<polygon fill="black" stroke="black" points="155,-203.52 144.79,-200.69 151.01,-209.27 155,-203.52"/>
</g>
<!-- n_2 -->
<g id="node8" class="node">
<title>n_2</title>
<polygon fill="none" stroke="black" points="213.5,-166.38 213.5,-191.62 278.5,-191.62 278.5,-166.38 213.5,-166.38"/>
<text text-anchor="start" x="220.5" y="-177.07" font-family="Times New Roman,serif" font-weight="bold" font-size="9.00">Overweight I</text>
<polygon fill="none" stroke="black" points="212.5,-165.38 212.5,-192.62 279.5,-192.62 279.5,-165.38 212.5,-165.38"/>
</g>
<!-- n_1_2_4_5&#45;&gt;n_2 -->
<g id="edge7" class="edge">
<title>n_1_2_4_5&#45;&gt;n_2</title>
<path fill="none" stroke="black" d="M242.39,-243.13C243.01,-232.28 243.75,-219.45 244.39,-208.19"/>
<polygon fill="black" stroke="black" points="247.88,-208.47 244.96,-198.28 240.89,-208.07 247.88,-208.47"/>
</g>
<!-- n_1_5 -->
<g id="node4" class="node">
<title>n_1_5</title>
<polygon fill="none" stroke="black" points="30.5,-84.38 30.5,-109.62 74.5,-109.62 74.5,-84.38 30.5,-84.38"/>
<text text-anchor="start" x="37.5" y="-95.08" font-family="Times New Roman,serif" font-weight="bold" font-size="9.00">Normal</text>
<polygon fill="none" stroke="black" points="74.5,-84.38 74.5,-109.62 127.5,-109.62 127.5,-84.38 74.5,-84.38"/>
<text text-anchor="start" x="81.5" y="-95.08" font-family="Times New Roman,serif" font-weight="bold" font-size="9.00">Obesity II</text>
<polygon fill="none" stroke="black" points="29.5,-83.38 29.5,-110.62 128.5,-110.62 128.5,-83.38 29.5,-83.38"/>
</g>
<!-- n_1_4_5&#45;&gt;n_1_5 -->
<g id="edge3" class="edge">
<title>n_1_4_5&#45;&gt;n_1_5</title>
<path fill="none" stroke="black" d="M106.1,-158.22C101.6,-148.23 96.08,-135.95 91.19,-125.09"/>
<polygon fill="black" stroke="black" points="94.5,-123.91 87.2,-116.22 88.11,-126.78 94.5,-123.91"/>
</g>
<!-- n_4 -->
<g id="node7" class="node">
<title>n_4</title>
<polygon fill="none" stroke="black" points="175,-84.38 175,-109.62 225,-109.62 225,-84.38 175,-84.38"/>
<text text-anchor="start" x="182" y="-95.08" font-family="Times New Roman,serif" font-weight="bold" font-size="9.00">Obesity I</text>
<polygon fill="none" stroke="black" points="174,-83.38 174,-110.62 226,-110.62 226,-83.38 174,-83.38"/>
</g>
<!-- n_1_4_5&#45;&gt;n_4 -->
<g id="edge6" class="edge">
<title>n_1_4_5&#45;&gt;n_4</title>
<path fill="none" stroke="black" d="M136.01,-158.22C147.52,-147.4 161.87,-133.89 174.07,-122.41"/>
<polygon fill="black" stroke="black" points="176.12,-125.28 181,-115.88 171.32,-120.19 176.12,-125.28"/>
</g>
<!-- n_1 -->
<g id="node5" class="node">
<title>n_1</title>
<polygon fill="none" stroke="black" points="9,-5.38 9,-30.62 53,-30.62 53,-5.38 9,-5.38"/>
<text text-anchor="start" x="16" y="-16.07" font-family="Times New Roman,serif" font-weight="bold" font-size="9.00">Normal</text>
<polygon fill="none" stroke="black" points="8,-4.38 8,-31.62 54,-31.62 54,-4.38 8,-4.38"/>
</g>
<!-- n_1_5&#45;&gt;n_1 -->
<g id="edge4" class="edge">
<title>n_1_5&#45;&gt;n_1</title>
<path fill="none" stroke="black" d="M68.58,-79.29C62.46,-69.47 54.58,-56.83 47.62,-45.66"/>
<polygon fill="black" stroke="black" points="50.62,-43.86 42.36,-37.23 44.68,-47.56 50.62,-43.86"/>
</g>
<!-- n_5 -->
<g id="node6" class="node">
<title>n_5</title>
<polygon fill="none" stroke="black" points="100.5,-5.38 100.5,-30.62 153.5,-30.62 153.5,-5.38 100.5,-5.38"/>
<text text-anchor="start" x="107.5" y="-16.07" font-family="Times New Roman,serif" font-weight="bold" font-size="9.00">Obesity II</text>
<polygon fill="none" stroke="black" points="99.5,-4.38 99.5,-31.62 154.5,-31.62 154.5,-4.38 99.5,-4.38"/>
</g>
<!-- n_1_5&#45;&gt;n_5 -->
<g id="edge5" class="edge">
<title>n_1_5&#45;&gt;n_5</title>
<path fill="none" stroke="black" d="M89.42,-79.29C95.54,-69.47 103.42,-56.83 110.38,-45.66"/>
<polygon fill="black" stroke="black" points="113.32,-47.56 115.64,-37.23 107.38,-43.86 113.32,-47.56"/>
</g>
<!-- n_0_3 -->
<g id="node10" class="node">
<title>n_0_3</title>
<polygon fill="none" stroke="black" points="335.88,-166.38 335.88,-191.62 424.12,-191.62 424.12,-166.38 335.88,-166.38"/>
<text text-anchor="start" x="342.88" y="-177.07" font-family="Times New Roman,serif" font-weight="bold" font-size="9.00">Insufficient weight</text>
<polygon fill="none" stroke="black" points="424.12,-166.38 424.12,-191.62 492.12,-191.62 492.12,-166.38 424.12,-166.38"/>
<text text-anchor="start" x="431.12" y="-177.07" font-family="Times New Roman,serif" font-weight="bold" font-size="9.00">Overweight II</text>
<polygon fill="none" stroke="black" points="334.88,-165.38 334.88,-192.62 493.12,-192.62 493.12,-165.38 334.88,-165.38"/>
</g>
<!-- n_0_3_6&#45;&gt;n_0_3 -->
<g id="edge9" class="edge">
<title>n_0_3_6&#45;&gt;n_0_3</title>
<path fill="none" stroke="black" d="M417.87,-247.64C417.19,-235.91 416.34,-220.86 415.6,-207.94"/>
<polygon fill="black" stroke="black" points="419.11,-208.13 415.05,-198.34 412.12,-208.53 419.11,-208.13"/>
</g>
<!-- n_6 -->
<g id="node13" class="node">
<title>n_6</title>
<polygon fill="none" stroke="black" points="539,-166.38 539,-191.62 595,-191.62 595,-166.38 539,-166.38"/>
<text text-anchor="start" x="546" y="-177.07" font-family="Times New Roman,serif" font-weight="bold" font-size="9.00">Obesity III</text>
<polygon fill="none" stroke="black" points="538,-165.38 538,-192.62 596,-192.62 596,-165.38 538,-165.38"/>
</g>
<!-- n_0_3_6&#45;&gt;n_6 -->
<g id="edge12" class="edge">
<title>n_0_3_6&#45;&gt;n_6</title>
<path fill="none" stroke="black" d="M452.58,-247.64C475.27,-234.23 505.27,-216.5 528.85,-202.55"/>
<polygon fill="black" stroke="black" points="530.4,-205.7 537.23,-197.6 526.84,-199.68 530.4,-205.7"/>
</g>
<!-- n_0 -->
<g id="node11" class="node">
<title>n_0</title>
<polygon fill="none" stroke="black" points="320.88,-84.38 320.88,-109.62 409.12,-109.62 409.12,-84.38 320.88,-84.38"/>
<text text-anchor="start" x="327.88" y="-95.08" font-family="Times New Roman,serif" font-weight="bold" font-size="9.00">Insufficient weight</text>
<polygon fill="none" stroke="black" points="319.88,-83.38 319.88,-110.62 410.12,-110.62 410.12,-83.38 319.88,-83.38"/>
</g>
<!-- n_0_3&#45;&gt;n_0 -->
<g id="edge10" class="edge">
<title>n_0_3&#45;&gt;n_0</title>
<path fill="none" stroke="black" d="M403.61,-161.03C397.11,-150.43 388.61,-136.54 381.23,-124.51"/>
<polygon fill="black" stroke="black" points="384.38,-122.93 376.17,-116.23 378.41,-126.59 384.38,-122.93"/>
</g>
<!-- n_3 -->
<g id="node12" class="node">
<title>n_3</title>
<polygon fill="none" stroke="black" points="456,-84.38 456,-109.62 524,-109.62 524,-84.38 456,-84.38"/>
<text text-anchor="start" x="463" y="-95.08" font-family="Times New Roman,serif" font-weight="bold" font-size="9.00">Overweight II</text>
<polygon fill="none" stroke="black" points="455,-83.38 455,-110.62 525,-110.62 525,-83.38 455,-83.38"/>
</g>
<!-- n_0_3&#45;&gt;n_3 -->
<g id="edge11" class="edge">
<title>n_0_3&#45;&gt;n_3</title>
<path fill="none" stroke="black" d="M430.12,-161.03C440.6,-150 454.44,-135.43 466.18,-123.07"/>
<polygon fill="black" stroke="black" points="468.51,-125.7 472.86,-116.04 463.44,-120.88 468.51,-125.7"/>
</g>
</g>
</svg>
