<?xml version="1.0" encoding="UTF-8" standalone="no"?>
<!DOCTYPE svg PUBLIC "-//W3C//DTD SVG 1.1//EN"
 "http://www.w3.org/Graphics/SVG/1.1/DTD/svg11.dtd">
<!-- Generated by graphviz version 10.0.1 (20240210.2158)
 -->
<!-- Title: ND Pages: 1 -->
<svg width="590pt" height="544pt"
 viewBox="0.00 0.00 589.62 544.00" xmlns="http://www.w3.org/2000/svg" xmlns:xlink="http://www.w3.org/1999/xlink">
<g id="graph0" class="graph" transform="scale(1 1) rotate(0) translate(4 540)">
<title>ND</title>
<polygon fill="white" stroke="none" points="-4,4 -4,-540 585.62,-540 585.62,4 -4,4"/>
<!-- n_0_1_2_3_4_5_6 -->
<g id="node1" class="node">
<title>n_0_1_2_3_4_5_6</title>
<polygon fill="none" stroke="black" points="388.5,-463 388.5,-531 476.75,-531 476.75,-463 388.5,-463"/>
<text text-anchor="start" x="395.5" y="-516.45" font-family="Times New Roman,serif" font-weight="bold" font-size="9.00">Insufficient weight</text>
<text text-anchor="start" x="417.62" y="-507.45" font-family="Times New Roman,serif" font-weight="bold" font-size="9.00">Normal</text>
<text text-anchor="start" x="405.62" y="-498.45" font-family="Times New Roman,serif" font-weight="bold" font-size="9.00">Overweight II</text>
<text text-anchor="start" x="414.62" y="-489.45" font-family="Times New Roman,serif" font-weight="bold" font-size="9.00">Obesity I</text>
<text text-anchor="start" x="413.12" y="-480.45" font-family="Times New Roman,serif" font-weight="bold" font-size="9.00">Obesity II</text>
<text text-anchor="start" x="411.62" y="-471.45" font-family="Times New Roman,serif" font-weight="bold" font-size="9.00">Obesity III</text>
<polygon fill="none" stroke="black" points="476.75,-463 476.75,-531 541.75,-531 541.75,-463 476.75,-463"/>
<text text-anchor="start" x="483.75" y="-495.07" font-family="Times New Roman,serif" font-weight="bold" font-size="9.00">Overweight I</text>
<polygon fill="none" stroke="black" points="387.5,-462 387.5,-532 542.75,-532 542.75,-462 387.5,-462"/>
</g>
<!-- n_0_1_3_4_5_6 -->
<g id="node2" class="node">
<title>n_0_1_3_4_5_6</title>
<polygon fill="none" stroke="black" points="319.5,-351 319.5,-410 407.75,-410 407.75,-351 319.5,-351"/>
<text text-anchor="start" x="326.5" y="-395.45" font-family="Times New Roman,serif" font-weight="bold" font-size="9.00">Insufficient weight</text>
<text text-anchor="start" x="348.62" y="-386.45" font-family="Times New Roman,serif" font-weight="bold" font-size="9.00">Normal</text>
<text text-anchor="start" x="336.62" y="-377.45" font-family="Times New Roman,serif" font-weight="bold" font-size="9.00">Overweight II</text>
<text text-anchor="start" x="345.62" y="-368.45" font-family="Times New Roman,serif" font-weight="bold" font-size="9.00">Obesity I</text>
<text text-anchor="start" x="342.62" y="-359.45" font-family="Times New Roman,serif" font-weight="bold" font-size="9.00">Obesity III</text>
<polygon fill="none" stroke="black" points="407.75,-351 407.75,-410 460.75,-410 460.75,-351 407.75,-351"/>
<text text-anchor="start" x="414.75" y="-378.57" font-family="Times New Roman,serif" font-weight="bold" font-size="9.00">Obesity II</text>
<polygon fill="none" stroke="black" points="318.5,-350 318.5,-411 461.75,-411 461.75,-350 318.5,-350"/>
</g>
<!-- n_0_1_2_3_4_5_6&#45;&gt;n_0_1_3_4_5_6 -->
<g id="edge1" class="edge">
<title>n_0_1_2_3_4_5_6&#45;&gt;n_0_1_3_4_5_6</title>
<path fill="none" stroke="black" d="M440.36,-458.19C433.23,-447.31 425.41,-435.36 418.1,-424.21"/>
<polygon fill="black" stroke="black" points="421.08,-422.37 412.67,-415.92 415.22,-426.2 421.08,-422.37"/>
</g>
<!-- n_2 -->
<g id="node13" class="node">
<title>n_2</title>
<polygon fill="none" stroke="black" points="507.62,-367.88 507.62,-393.12 572.62,-393.12 572.62,-367.88 507.62,-367.88"/>
<text text-anchor="start" x="514.62" y="-378.57" font-family="Times New Roman,serif" font-weight="bold" font-size="9.00">Overweight I</text>
<polygon fill="none" stroke="black" points="506.62,-366.88 506.62,-394.12 573.62,-394.12 573.62,-366.88 506.62,-366.88"/>
</g>
<!-- n_0_1_2_3_4_5_6&#45;&gt;n_2 -->
<g id="edge12" class="edge">
<title>n_0_1_2_3_4_5_6&#45;&gt;n_2</title>
<path fill="none" stroke="black" d="M489.89,-458.19C500.64,-441.78 512.97,-422.96 522.72,-408.07"/>
<polygon fill="black" stroke="black" points="525.63,-410.01 528.18,-399.73 519.78,-406.18 525.63,-410.01"/>
</g>
<!-- n_0_1_3_4_6 -->
<g id="node3" class="node">
<title>n_0_1_3_4_6</title>
<polygon fill="none" stroke="black" points="250,-248 250,-298 338.25,-298 338.25,-248 250,-248"/>
<text text-anchor="start" x="257" y="-283.45" font-family="Times New Roman,serif" font-weight="bold" font-size="9.00">Insufficient weight</text>
<text text-anchor="start" x="279.12" y="-274.45" font-family="Times New Roman,serif" font-weight="bold" font-size="9.00">Normal</text>
<text text-anchor="start" x="267.12" y="-265.45" font-family="Times New Roman,serif" font-weight="bold" font-size="9.00">Overweight II</text>
<text text-anchor="start" x="273.12" y="-256.45" font-family="Times New Roman,serif" font-weight="bold" font-size="9.00">Obesity III</text>
<polygon fill="none" stroke="black" points="338.25,-248 338.25,-298 388.25,-298 388.25,-248 338.25,-248"/>
<text text-anchor="start" x="345.25" y="-271.07" font-family="Times New Roman,serif" font-weight="bold" font-size="9.00">Obesity I</text>
<polygon fill="none" stroke="black" points="249,-247 249,-299 389.25,-299 389.25,-247 249,-247"/>
</g>
<!-- n_0_1_3_4_5_6&#45;&gt;n_0_1_3_4_6 -->
<g id="edge2" class="edge">
<title>n_0_1_3_4_5_6&#45;&gt;n_0_1_3_4_6</title>
<path fill="none" stroke="black" d="M367.66,-346.12C360.43,-335.38 352.37,-323.4 344.92,-312.33"/>
<polygon fill="black" stroke="black" points="347.91,-310.5 339.42,-304.15 342.1,-314.4 347.91,-310.5"/>
</g>
<!-- n_5 -->
<g id="node12" class="node">
<title>n_5</title>
<polygon fill="none" stroke="black" points="435.62,-260.38 435.62,-285.62 488.62,-285.62 488.62,-260.38 435.62,-260.38"/>
<text text-anchor="start" x="442.62" y="-271.07" font-family="Times New Roman,serif" font-weight="bold" font-size="9.00">Obesity II</text>
<polygon fill="none" stroke="black" points="434.62,-259.38 434.62,-286.62 489.62,-286.62 489.62,-259.38 434.62,-259.38"/>
</g>
<!-- n_0_1_3_4_5_6&#45;&gt;n_5 -->
<g id="edge11" class="edge">
<title>n_0_1_3_4_5_6&#45;&gt;n_5</title>
<path fill="none" stroke="black" d="M412.91,-346.12C422.98,-331.35 434.67,-314.23 444.12,-300.38"/>
<polygon fill="black" stroke="black" points="446.96,-302.43 449.7,-292.2 441.18,-298.49 446.96,-302.43"/>
</g>
<!-- n_0_1_3_6 -->
<g id="node4" class="node">
<title>n_0_1_3_6</title>
<polygon fill="none" stroke="black" points="175,-163 175,-195 263.25,-195 263.25,-163 175,-163"/>
<text text-anchor="start" x="182" y="-180.45" font-family="Times New Roman,serif" font-weight="bold" font-size="9.00">Insufficient weight</text>
<text text-anchor="start" x="192.12" y="-171.45" font-family="Times New Roman,serif" font-weight="bold" font-size="9.00">Overweight II</text>
<polygon fill="none" stroke="black" points="263.25,-163 263.25,-195 319.25,-195 319.25,-163 263.25,-163"/>
<text text-anchor="start" x="276.25" y="-180.45" font-family="Times New Roman,serif" font-weight="bold" font-size="9.00">Normal</text>
<text text-anchor="start" x="270.25" y="-171.45" font-family="Times New Roman,serif" font-weight="bold" font-size="9.00">Obesity III</text>
<polygon fill="none" stroke="black" points="174,-162 174,-196 320.25,-196 320.25,-162 174,-162"/>
</g>
<!-- n_0_1_3_4_6&#45;&gt;n_0_1_3_6 -->
<g id="edge3" class="edge">
<title>n_0_1_3_4_6&#45;&gt;n_0_1_3_6</title>
<path fill="none" stroke="black" d="M296.54,-243.14C287.91,-232.11 278.07,-219.54 269.46,-208.54"/>
<polygon fill="black" stroke="black" points="272.42,-206.64 263.5,-200.92 266.91,-210.96 272.42,-206.64"/>
</g>
<!-- n_4 -->
<g id="node11" class="node">
<title>n_4</title>
<polygon fill="none" stroke="black" points="366.12,-166.38 366.12,-191.62 416.12,-191.62 416.12,-166.38 366.12,-166.38"/>
<text text-anchor="start" x="373.12" y="-177.07" font-family="Times New Roman,serif" font-weight="bold" font-size="9.00">Obesity I</text>
<polygon fill="none" stroke="black" points="365.12,-165.38 365.12,-192.62 417.12,-192.62 417.12,-165.38 365.12,-165.38"/>
</g>
<!-- n_0_1_3_4_6&#45;&gt;n_4 -->
<g id="edge10" class="edge">
<title>n_0_1_3_4_6&#45;&gt;n_4</title>
<path fill="none" stroke="black" d="M341.71,-243.14C351.08,-231.17 361.87,-217.38 370.97,-205.76"/>
<polygon fill="black" stroke="black" points="373.51,-208.19 376.91,-198.16 367.99,-203.88 373.51,-208.19"/>
</g>
<!-- n_0_3 -->
<g id="node5" class="node">
<title>n_0_3</title>
<polygon fill="none" stroke="black" points="82,-84.38 82,-109.62 170.25,-109.62 170.25,-84.38 82,-84.38"/>
<text text-anchor="start" x="89" y="-95.08" font-family="Times New Roman,serif" font-weight="bold" font-size="9.00">Insufficient weight</text>
<polygon fill="none" stroke="black" points="170.25,-84.38 170.25,-109.62 238.25,-109.62 238.25,-84.38 170.25,-84.38"/>
<text text-anchor="start" x="177.25" y="-95.08" font-family="Times New Roman,serif" font-weight="bold" font-size="9.00">Overweight II</text>
<polygon fill="none" stroke="black" points="81,-83.38 81,-110.62 239.25,-110.62 239.25,-83.38 81,-83.38"/>
</g>
<!-- n_0_1_3_6&#45;&gt;n_0_3 -->
<g id="edge4" class="edge">
<title>n_0_1_3_6&#45;&gt;n_0_3</title>
<path fill="none" stroke="black" d="M225.62,-158.22C213.84,-147.4 199.15,-133.89 186.67,-122.41"/>
<polygon fill="black" stroke="black" points="189.29,-120.06 179.56,-115.87 184.55,-125.21 189.29,-120.06"/>
</g>
<!-- n_1_6 -->
<g id="node8" class="node">
<title>n_1_6</title>
<polygon fill="none" stroke="black" points="285.12,-84.38 285.12,-109.62 329.12,-109.62 329.12,-84.38 285.12,-84.38"/>
<text text-anchor="start" x="292.12" y="-95.08" font-family="Times New Roman,serif" font-weight="bold" font-size="9.00">Normal</text>
<polygon fill="none" stroke="black" points="329.12,-84.38 329.12,-109.62 385.12,-109.62 385.12,-84.38 329.12,-84.38"/>
<text text-anchor="start" x="336.12" y="-95.08" font-family="Times New Roman,serif" font-weight="bold" font-size="9.00">Obesity III</text>
<polygon fill="none" stroke="black" points="284.12,-83.38 284.12,-110.62 386.12,-110.62 386.12,-83.38 284.12,-83.38"/>
</g>
<!-- n_0_1_3_6&#45;&gt;n_1_6 -->
<g id="edge7" class="edge">
<title>n_0_1_3_6&#45;&gt;n_1_6</title>
<path fill="none" stroke="black" d="M268.88,-158.22C280.79,-147.4 295.65,-133.89 308.28,-122.41"/>
<polygon fill="black" stroke="black" points="310.43,-125.18 315.48,-115.86 305.72,-120 310.43,-125.18"/>
</g>
<!-- n_0 -->
<g id="node6" class="node">
<title>n_0</title>
<polygon fill="none" stroke="black" points="9,-5.38 9,-30.62 97.25,-30.62 97.25,-5.38 9,-5.38"/>
<text text-anchor="start" x="16" y="-16.07" font-family="Times New Roman,serif" font-weight="bold" font-size="9.00">Insufficient weight</text>
<polygon fill="none" stroke="black" points="8,-4.38 8,-31.62 98.25,-31.62 98.25,-4.38 8,-4.38"/>
</g>
<!-- n_0_3&#45;&gt;n_0 -->
<g id="edge5" class="edge">
<title>n_0_3&#45;&gt;n_0</title>
<path fill="none" stroke="black" d="M136.64,-79.1C121.73,-68.37 102.22,-54.33 85.8,-42.51"/>
<polygon fill="black" stroke="black" points="87.94,-39.74 77.78,-36.74 83.85,-45.42 87.94,-39.74"/>
</g>
<!-- n_3 -->
<g id="node7" class="node">
<title>n_3</title>
<polygon fill="none" stroke="black" points="144.12,-5.38 144.12,-30.62 212.12,-30.62 212.12,-5.38 144.12,-5.38"/>
<text text-anchor="start" x="151.12" y="-16.07" font-family="Times New Roman,serif" font-weight="bold" font-size="9.00">Overweight II</text>
<polygon fill="none" stroke="black" points="143.12,-4.38 143.12,-31.62 213.12,-31.62 213.12,-4.38 143.12,-4.38"/>
</g>
<!-- n_0_3&#45;&gt;n_3 -->
<g id="edge6" class="edge">
<title>n_0_3&#45;&gt;n_3</title>
<path fill="none" stroke="black" d="M164.03,-79.29C166.23,-69.87 169.04,-57.86 171.57,-47.04"/>
<polygon fill="black" stroke="black" points="174.95,-47.95 173.82,-37.41 168.14,-46.36 174.95,-47.95"/>
</g>
<!-- n_1 -->
<g id="node9" class="node">
<title>n_1</title>
<polygon fill="none" stroke="black" points="295.12,-5.38 295.12,-30.62 339.12,-30.62 339.12,-5.38 295.12,-5.38"/>
<text text-anchor="start" x="302.12" y="-16.07" font-family="Times New Roman,serif" font-weight="bold" font-size="9.00">Normal</text>
<polygon fill="none" stroke="black" points="294.12,-4.38 294.12,-31.62 340.12,-31.62 340.12,-4.38 294.12,-4.38"/>
</g>
<!-- n_1_6&#45;&gt;n_1 -->
<g id="edge8" class="edge">
<title>n_1_6&#45;&gt;n_1</title>
<path fill="none" stroke="black" d="M331.22,-79.29C329.02,-69.87 326.21,-57.86 323.68,-47.04"/>
<polygon fill="black" stroke="black" points="327.11,-46.36 321.43,-37.41 320.3,-47.95 327.11,-46.36"/>
</g>
<!-- n_6 -->
<g id="node10" class="node">
<title>n_6</title>
<polygon fill="none" stroke="black" points="386.12,-5.38 386.12,-30.62 442.12,-30.62 442.12,-5.38 386.12,-5.38"/>
<text text-anchor="start" x="393.12" y="-16.07" font-family="Times New Roman,serif" font-weight="bold" font-size="9.00">Obesity III</text>
<polygon fill="none" stroke="black" points="385.12,-4.38 385.12,-31.62 443.12,-31.62 443.12,-4.38 385.12,-4.38"/>
</g>
<!-- n_1_6&#45;&gt;n_6 -->
<g id="edge9" class="edge">
<title>n_1_6&#45;&gt;n_6</title>
<path fill="none" stroke="black" d="M352.27,-79.29C362.86,-68.97 376.64,-55.53 388.51,-43.96"/>
<polygon fill="black" stroke="black" points="390.94,-46.48 395.66,-37 386.06,-41.47 390.94,-46.48"/>
</g>
</g>
</svg>
