<?xml version="1.0" encoding="UTF-8" standalone="no"?>
<!DOCTYPE svg PUBLIC "-//W3C//DTD SVG 1.1//EN"
 "http://www.w3.org/Graphics/SVG/1.1/DTD/svg11.dtd">
<!-- Generated by graphviz version 10.0.1 (20240210.2158)
 -->
<!-- Title: ND Pages: 1 -->
<svg width="611pt" height="405pt"
 viewBox="0.00 0.00 610.62 405.00" xmlns="http://www.w3.org/2000/svg" xmlns:xlink="http://www.w3.org/1999/xlink">
<g id="graph0" class="graph" transform="scale(1 1) rotate(0) translate(4 401)">
<title>ND</title>
<polygon fill="white" stroke="none" points="-4,4 -4,-401 606.62,-401 606.62,4 -4,4"/>
<!-- n_0_1_2_3_4_5_6 -->
<g id="node1" class="node">
<title>n_0_1_2_3_4_5_6</title>
<polygon fill="none" stroke="black" points="285.5,-342 285.5,-392 373.75,-392 373.75,-342 285.5,-342"/>
<text text-anchor="start" x="292.5" y="-377.45" font-family="Times New Roman,serif" font-weight="bold" font-size="9.00">Insufficient weight</text>
<text text-anchor="start" x="302.62" y="-368.45" font-family="Times New Roman,serif" font-weight="bold" font-size="9.00">Overweight II</text>
<text text-anchor="start" x="310.12" y="-359.45" font-family="Times New Roman,serif" font-weight="bold" font-size="9.00">Obesity II</text>
<text text-anchor="start" x="308.62" y="-350.45" font-family="Times New Roman,serif" font-weight="bold" font-size="9.00">Obesity III</text>
<polygon fill="none" stroke="black" points="373.75,-342 373.75,-392 438.75,-392 438.75,-342 373.75,-342"/>
<text text-anchor="start" x="391.25" y="-372.95" font-family="Times New Roman,serif" font-weight="bold" font-size="9.00">Normal</text>
<text text-anchor="start" x="380.75" y="-363.95" font-family="Times New Roman,serif" font-weight="bold" font-size="9.00">Overweight I</text>
<text text-anchor="start" x="388.25" y="-354.95" font-family="Times New Roman,serif" font-weight="bold" font-size="9.00">Obesity I</text>
<polygon fill="none" stroke="black" points="284.5,-341 284.5,-393 439.75,-393 439.75,-341 284.5,-341"/>
</g>
<!-- n_0_3_5_6 -->
<g id="node2" class="node">
<title>n_0_3_5_6</title>
<polygon fill="none" stroke="black" points="193,-248 193,-289 281.25,-289 281.25,-248 193,-248"/>
<text text-anchor="start" x="200" y="-274.45" font-family="Times New Roman,serif" font-weight="bold" font-size="9.00">Insufficient weight</text>
<text text-anchor="start" x="217.62" y="-265.45" font-family="Times New Roman,serif" font-weight="bold" font-size="9.00">Obesity II</text>
<text text-anchor="start" x="216.12" y="-256.45" font-family="Times New Roman,serif" font-weight="bold" font-size="9.00">Obesity III</text>
<polygon fill="none" stroke="black" points="281.25,-248 281.25,-289 349.25,-289 349.25,-248 281.25,-248"/>
<text text-anchor="start" x="288.25" y="-266.57" font-family="Times New Roman,serif" font-weight="bold" font-size="9.00">Overweight II</text>
<polygon fill="none" stroke="black" points="192,-247 192,-290 350.25,-290 350.25,-247 192,-247"/>
</g>
<!-- n_0_1_2_3_4_5_6&#45;&gt;n_0_3_5_6 -->
<g id="edge1" class="edge">
<title>n_0_1_2_3_4_5_6&#45;&gt;n_0_3_5_6</title>
<path fill="none" stroke="black" d="M334.82,-337.05C324.48,-326.08 312.63,-313.51 301.98,-302.22"/>
<polygon fill="black" stroke="black" points="304.56,-299.85 295.15,-294.98 299.46,-304.65 304.56,-299.85"/>
</g>
<!-- n_1_2_4 -->
<g id="node9" class="node">
<title>n_1_2_4</title>
<polygon fill="none" stroke="black" points="396.62,-252.5 396.62,-284.5 446.62,-284.5 446.62,-252.5 396.62,-252.5"/>
<text text-anchor="start" x="406.62" y="-269.95" font-family="Times New Roman,serif" font-weight="bold" font-size="9.00">Normal</text>
<text text-anchor="start" x="403.62" y="-260.95" font-family="Times New Roman,serif" font-weight="bold" font-size="9.00">Obesity I</text>
<polygon fill="none" stroke="black" points="446.62,-252.5 446.62,-284.5 511.62,-284.5 511.62,-252.5 446.62,-252.5"/>
<text text-anchor="start" x="453.62" y="-266.57" font-family="Times New Roman,serif" font-weight="bold" font-size="9.00">Overweight I</text>
<polygon fill="none" stroke="black" points="395.62,-251.5 395.62,-285.5 512.62,-285.5 512.62,-251.5 395.62,-251.5"/>
</g>
<!-- n_0_1_2_3_4_5_6&#45;&gt;n_1_2_4 -->
<g id="edge8" class="edge">
<title>n_0_1_2_3_4_5_6&#45;&gt;n_1_2_4</title>
<path fill="none" stroke="black" d="M389.73,-337.05C401.68,-324.51 415.62,-309.89 427.47,-297.46"/>
<polygon fill="black" stroke="black" points="429.88,-300.01 434.24,-290.35 424.81,-295.18 429.88,-300.01"/>
</g>
<!-- n_0_5_6 -->
<g id="node3" class="node">
<title>n_0_5_6</title>
<polygon fill="none" stroke="black" points="69.5,-163 69.5,-195 157.75,-195 157.75,-163 69.5,-163"/>
<text text-anchor="start" x="76.5" y="-180.45" font-family="Times New Roman,serif" font-weight="bold" font-size="9.00">Insufficient weight</text>
<text text-anchor="start" x="92.62" y="-171.45" font-family="Times New Roman,serif" font-weight="bold" font-size="9.00">Obesity III</text>
<polygon fill="none" stroke="black" points="157.75,-163 157.75,-195 210.75,-195 210.75,-163 157.75,-163"/>
<text text-anchor="start" x="164.75" y="-177.07" font-family="Times New Roman,serif" font-weight="bold" font-size="9.00">Obesity II</text>
<polygon fill="none" stroke="black" points="68.5,-162 68.5,-196 211.75,-196 211.75,-162 68.5,-162"/>
</g>
<!-- n_0_3_5_6&#45;&gt;n_0_5_6 -->
<g id="edge2" class="edge">
<title>n_0_3_5_6&#45;&gt;n_0_5_6</title>
<path fill="none" stroke="black" d="M234.63,-243.13C217.39,-231.61 196.78,-217.84 179.21,-206.11"/>
<polygon fill="black" stroke="black" points="181.33,-203.31 171.07,-200.67 177.44,-209.13 181.33,-203.31"/>
</g>
<!-- n_3 -->
<g id="node8" class="node">
<title>n_3</title>
<polygon fill="none" stroke="black" points="258.12,-166.38 258.12,-191.62 326.12,-191.62 326.12,-166.38 258.12,-166.38"/>
<text text-anchor="start" x="265.12" y="-177.07" font-family="Times New Roman,serif" font-weight="bold" font-size="9.00">Overweight II</text>
<polygon fill="none" stroke="black" points="257.12,-165.38 257.12,-192.62 327.12,-192.62 327.12,-165.38 257.12,-165.38"/>
</g>
<!-- n_0_3_5_6&#45;&gt;n_3 -->
<g id="edge7" class="edge">
<title>n_0_3_5_6&#45;&gt;n_3</title>
<path fill="none" stroke="black" d="M276.97,-243.13C279.6,-232.17 282.72,-219.18 285.44,-207.84"/>
<polygon fill="black" stroke="black" points="288.82,-208.78 287.75,-198.24 282.01,-207.15 288.82,-208.78"/>
</g>
<!-- n_0_6 -->
<g id="node4" class="node">
<title>n_0_6</title>
<polygon fill="none" stroke="black" points="40,-84.38 40,-109.62 128.25,-109.62 128.25,-84.38 40,-84.38"/>
<text text-anchor="start" x="47" y="-95.08" font-family="Times New Roman,serif" font-weight="bold" font-size="9.00">Insufficient weight</text>
<polygon fill="none" stroke="black" points="128.25,-84.38 128.25,-109.62 184.25,-109.62 184.25,-84.38 128.25,-84.38"/>
<text text-anchor="start" x="135.25" y="-95.08" font-family="Times New Roman,serif" font-weight="bold" font-size="9.00">Obesity III</text>
<polygon fill="none" stroke="black" points="39,-83.38 39,-110.62 185.25,-110.62 185.25,-83.38 39,-83.38"/>
</g>
<!-- n_0_5_6&#45;&gt;n_0_6 -->
<g id="edge3" class="edge">
<title>n_0_5_6&#45;&gt;n_0_6</title>
<path fill="none" stroke="black" d="M133.2,-158.22C129.74,-148.33 125.5,-136.21 121.73,-125.43"/>
<polygon fill="black" stroke="black" points="125.13,-124.55 118.52,-116.27 118.52,-126.87 125.13,-124.55"/>
</g>
<!-- n_5 -->
<g id="node7" class="node">
<title>n_5</title>
<polygon fill="none" stroke="black" points="231.62,-84.38 231.62,-109.62 284.62,-109.62 284.62,-84.38 231.62,-84.38"/>
<text text-anchor="start" x="238.62" y="-95.08" font-family="Times New Roman,serif" font-weight="bold" font-size="9.00">Obesity II</text>
<polygon fill="none" stroke="black" points="230.62,-83.38 230.62,-110.62 285.62,-110.62 285.62,-83.38 230.62,-83.38"/>
</g>
<!-- n_0_5_6&#45;&gt;n_5 -->
<g id="edge6" class="edge">
<title>n_0_5_6&#45;&gt;n_5</title>
<path fill="none" stroke="black" d="M169.6,-158.02C186.18,-146.77 206.97,-132.68 224.23,-120.98"/>
<polygon fill="black" stroke="black" points="225.84,-124.12 232.15,-115.61 221.91,-118.32 225.84,-124.12"/>
</g>
<!-- n_0 -->
<g id="node5" class="node">
<title>n_0</title>
<polygon fill="none" stroke="black" points="9,-5.38 9,-30.62 97.25,-30.62 97.25,-5.38 9,-5.38"/>
<text text-anchor="start" x="16" y="-16.07" font-family="Times New Roman,serif" font-weight="bold" font-size="9.00">Insufficient weight</text>
<polygon fill="none" stroke="black" points="8,-4.38 8,-31.62 98.25,-31.62 98.25,-4.38 8,-4.38"/>
</g>
<!-- n_0_6&#45;&gt;n_0 -->
<g id="edge4" class="edge">
<title>n_0_6&#45;&gt;n_0</title>
<path fill="none" stroke="black" d="M99.32,-79.29C91.64,-69.27 81.72,-56.31 73.03,-44.98"/>
<polygon fill="black" stroke="black" points="75.89,-42.95 67.03,-37.14 70.33,-47.21 75.89,-42.95"/>
</g>
<!-- n_6 -->
<g id="node6" class="node">
<title>n_6</title>
<polygon fill="none" stroke="black" points="144.12,-5.38 144.12,-30.62 200.12,-30.62 200.12,-5.38 144.12,-5.38"/>
<text text-anchor="start" x="151.12" y="-16.07" font-family="Times New Roman,serif" font-weight="bold" font-size="9.00">Obesity III</text>
<polygon fill="none" stroke="black" points="143.12,-4.38 143.12,-31.62 201.12,-31.62 201.12,-4.38 143.12,-4.38"/>
</g>
<!-- n_0_6&#45;&gt;n_6 -->
<g id="edge5" class="edge">
<title>n_0_6&#45;&gt;n_6</title>
<path fill="none" stroke="black" d="M125.14,-79.29C132.95,-69.27 143.05,-56.31 151.88,-44.98"/>
<polygon fill="black" stroke="black" points="154.61,-47.17 157.99,-37.14 149.09,-42.87 154.61,-47.17"/>
</g>
<!-- n_1_4 -->
<g id="node10" class="node">
<title>n_1_4</title>
<polygon fill="none" stroke="black" points="387.12,-166.38 387.12,-191.62 431.12,-191.62 431.12,-166.38 387.12,-166.38"/>
<text text-anchor="start" x="394.12" y="-177.07" font-family="Times New Roman,serif" font-weight="bold" font-size="9.00">Normal</text>
<polygon fill="none" stroke="black" points="431.12,-166.38 431.12,-191.62 481.12,-191.62 481.12,-166.38 431.12,-166.38"/>
<text text-anchor="start" x="438.12" y="-177.07" font-family="Times New Roman,serif" font-weight="bold" font-size="9.00">Obesity I</text>
<polygon fill="none" stroke="black" points="386.12,-165.38 386.12,-192.62 482.12,-192.62 482.12,-165.38 386.12,-165.38"/>
</g>
<!-- n_1_2_4&#45;&gt;n_1_4 -->
<g id="edge9" class="edge">
<title>n_1_2_4&#45;&gt;n_1_4</title>
<path fill="none" stroke="black" d="M449.59,-247.64C446.9,-235.91 443.47,-220.86 440.51,-207.94"/>
<polygon fill="black" stroke="black" points="443.95,-207.28 438.31,-198.31 437.13,-208.84 443.95,-207.28"/>
</g>
<!-- n_2 -->
<g id="node13" class="node">
<title>n_2</title>
<polygon fill="none" stroke="black" points="528.62,-166.38 528.62,-191.62 593.62,-191.62 593.62,-166.38 528.62,-166.38"/>
<text text-anchor="start" x="535.62" y="-177.07" font-family="Times New Roman,serif" font-weight="bold" font-size="9.00">Overweight I</text>
<polygon fill="none" stroke="black" points="527.62,-165.38 527.62,-192.62 594.62,-192.62 594.62,-165.38 527.62,-165.38"/>
</g>
<!-- n_1_2_4&#45;&gt;n_2 -->
<g id="edge12" class="edge">
<title>n_1_2_4&#45;&gt;n_2</title>
<path fill="none" stroke="black" d="M478.4,-247.64C494.22,-234.71 514.95,-217.76 531.7,-204.06"/>
<polygon fill="black" stroke="black" points="533.84,-206.83 539.37,-197.79 529.41,-201.41 533.84,-206.83"/>
</g>
<!-- n_1 -->
<g id="node11" class="node">
<title>n_1</title>
<polygon fill="none" stroke="black" points="372.12,-84.38 372.12,-109.62 416.12,-109.62 416.12,-84.38 372.12,-84.38"/>
<text text-anchor="start" x="379.12" y="-95.08" font-family="Times New Roman,serif" font-weight="bold" font-size="9.00">Normal</text>
<polygon fill="none" stroke="black" points="371.12,-83.38 371.12,-110.62 417.12,-110.62 417.12,-83.38 371.12,-83.38"/>
</g>
<!-- n_1_4&#45;&gt;n_1 -->
<g id="edge10" class="edge">
<title>n_1_4&#45;&gt;n_1</title>
<path fill="none" stroke="black" d="M425.64,-161.03C420.44,-150.64 413.67,-137.1 407.74,-125.23"/>
<polygon fill="black" stroke="black" points="410.88,-123.67 403.27,-116.3 404.61,-126.8 410.88,-123.67"/>
</g>
<!-- n_4 -->
<g id="node12" class="node">
<title>n_4</title>
<polygon fill="none" stroke="black" points="463.12,-84.38 463.12,-109.62 513.12,-109.62 513.12,-84.38 463.12,-84.38"/>
<text text-anchor="start" x="470.12" y="-95.08" font-family="Times New Roman,serif" font-weight="bold" font-size="9.00">Obesity I</text>
<polygon fill="none" stroke="black" points="462.12,-83.38 462.12,-110.62 514.12,-110.62 514.12,-83.38 462.12,-83.38"/>
</g>
<!-- n_1_4&#45;&gt;n_4 -->
<g id="edge11" class="edge">
<title>n_1_4&#45;&gt;n_4</title>
<path fill="none" stroke="black" d="M445.58,-161.03C452.81,-150.32 462.3,-136.27 470.48,-124.15"/>
<polygon fill="black" stroke="black" points="473.15,-126.44 475.84,-116.2 467.35,-122.53 473.15,-126.44"/>
</g>
</g>
</svg>
