<?xml version="1.0" encoding="UTF-8" standalone="no"?>
<!DOCTYPE svg PUBLIC "-//W3C//DTD SVG 1.1//EN"
 "http://www.w3.org/Graphics/SVG/1.1/DTD/svg11.dtd">
<!-- Generated by graphviz version 10.0.1 (20240210.2158)
 -->
<!-- Title: ND Pages: 1 -->
<svg width="656pt" height="423pt"
 viewBox="0.00 0.00 655.50 423.00" xmlns="http://www.w3.org/2000/svg" xmlns:xlink="http://www.w3.org/1999/xlink">
<g id="graph0" class="graph" transform="scale(1 1) rotate(0) translate(4 419)">
<title>ND</title>
<polygon fill="white" stroke="none" points="-4,4 -4,-419 651.5,-419 651.5,4 -4,4"/>
<!-- n_0_1_2_3_4_5_6 -->
<g id="node1" class="node">
<title>n_0_1_2_3_4_5_6</title>
<polygon fill="none" stroke="black" points="379.38,-351 379.38,-410 467.62,-410 467.62,-351 379.38,-351"/>
<text text-anchor="start" x="386.38" y="-395.45" font-family="Times New Roman,serif" font-weight="bold" font-size="9.00">Insufficient weight</text>
<text text-anchor="start" x="398" y="-386.45" font-family="Times New Roman,serif" font-weight="bold" font-size="9.00">Overweight I</text>
<text text-anchor="start" x="396.5" y="-377.45" font-family="Times New Roman,serif" font-weight="bold" font-size="9.00">Overweight II</text>
<text text-anchor="start" x="404" y="-368.45" font-family="Times New Roman,serif" font-weight="bold" font-size="9.00">Obesity II</text>
<text text-anchor="start" x="402.5" y="-359.45" font-family="Times New Roman,serif" font-weight="bold" font-size="9.00">Obesity III</text>
<polygon fill="none" stroke="black" points="467.62,-351 467.62,-410 517.62,-410 517.62,-351 467.62,-351"/>
<text text-anchor="start" x="477.62" y="-381.95" font-family="Times New Roman,serif" font-weight="bold" font-size="9.00">Normal</text>
<text text-anchor="start" x="474.62" y="-372.95" font-family="Times New Roman,serif" font-weight="bold" font-size="9.00">Obesity I</text>
<polygon fill="none" stroke="black" points="378.38,-350 378.38,-411 518.62,-411 518.62,-350 378.38,-350"/>
</g>
<!-- n_0_2_3_5_6 -->
<g id="node2" class="node">
<title>n_0_2_3_5_6</title>
<polygon fill="none" stroke="black" points="284.38,-248 284.38,-298 352.38,-298 352.38,-248 284.38,-248"/>
<text text-anchor="start" x="292.88" y="-283.45" font-family="Times New Roman,serif" font-weight="bold" font-size="9.00">Overweight I</text>
<text text-anchor="start" x="291.38" y="-274.45" font-family="Times New Roman,serif" font-weight="bold" font-size="9.00">Overweight II</text>
<text text-anchor="start" x="298.88" y="-265.45" font-family="Times New Roman,serif" font-weight="bold" font-size="9.00">Obesity II</text>
<text text-anchor="start" x="297.38" y="-256.45" font-family="Times New Roman,serif" font-weight="bold" font-size="9.00">Obesity III</text>
<polygon fill="none" stroke="black" points="352.38,-248 352.38,-298 440.62,-298 440.62,-248 352.38,-248"/>
<text text-anchor="start" x="359.38" y="-271.07" font-family="Times New Roman,serif" font-weight="bold" font-size="9.00">Insufficient weight</text>
<polygon fill="none" stroke="black" points="283.38,-247 283.38,-299 441.62,-299 441.62,-247 283.38,-247"/>
</g>
<!-- n_0_1_2_3_4_5_6&#45;&gt;n_0_2_3_5_6 -->
<g id="edge1" class="edge">
<title>n_0_1_2_3_4_5_6&#45;&gt;n_0_2_3_5_6</title>
<path fill="none" stroke="black" d="M421.29,-346.12C412.36,-335.16 402.37,-322.91 393.2,-311.66"/>
<polygon fill="black" stroke="black" points="396.04,-309.61 387.01,-304.07 390.62,-314.03 396.04,-309.61"/>
</g>
<!-- n_1_4 -->
<g id="node11" class="node">
<title>n_1_4</title>
<polygon fill="none" stroke="black" points="487.5,-260.38 487.5,-285.62 531.5,-285.62 531.5,-260.38 487.5,-260.38"/>
<text text-anchor="start" x="494.5" y="-271.07" font-family="Times New Roman,serif" font-weight="bold" font-size="9.00">Normal</text>
<polygon fill="none" stroke="black" points="531.5,-260.38 531.5,-285.62 581.5,-285.62 581.5,-260.38 531.5,-260.38"/>
<text text-anchor="start" x="538.5" y="-271.07" font-family="Times New Roman,serif" font-weight="bold" font-size="9.00">Obesity I</text>
<polygon fill="none" stroke="black" points="486.5,-259.38 486.5,-286.62 582.5,-286.62 582.5,-259.38 486.5,-259.38"/>
</g>
<!-- n_0_1_2_3_4_5_6&#45;&gt;n_1_4 -->
<g id="edge10" class="edge">
<title>n_0_1_2_3_4_5_6&#45;&gt;n_1_4</title>
<path fill="none" stroke="black" d="M475.71,-346.12C487.98,-331.06 502.25,-313.57 513.65,-299.58"/>
<polygon fill="black" stroke="black" points="516.12,-302.09 519.73,-292.12 510.7,-297.66 516.12,-302.09"/>
</g>
<!-- n_2_3_5_6 -->
<g id="node3" class="node">
<title>n_2_3_5_6</title>
<polygon fill="none" stroke="black" points="162.5,-163 162.5,-195 230.5,-195 230.5,-163 162.5,-163"/>
<text text-anchor="start" x="171" y="-180.45" font-family="Times New Roman,serif" font-weight="bold" font-size="9.00">Overweight I</text>
<text text-anchor="start" x="169.5" y="-171.45" font-family="Times New Roman,serif" font-weight="bold" font-size="9.00">Overweight II</text>
<polygon fill="none" stroke="black" points="230.5,-163 230.5,-195 286.5,-195 286.5,-163 230.5,-163"/>
<text text-anchor="start" x="239" y="-180.45" font-family="Times New Roman,serif" font-weight="bold" font-size="9.00">Obesity II</text>
<text text-anchor="start" x="237.5" y="-171.45" font-family="Times New Roman,serif" font-weight="bold" font-size="9.00">Obesity III</text>
<polygon fill="none" stroke="black" points="161.5,-162 161.5,-196 287.5,-196 287.5,-162 161.5,-162"/>
</g>
<!-- n_0_2_3_5_6&#45;&gt;n_2_3_5_6 -->
<g id="edge2" class="edge">
<title>n_0_2_3_5_6&#45;&gt;n_2_3_5_6</title>
<path fill="none" stroke="black" d="M319.21,-243.14C301.34,-231.23 280.78,-217.52 263.39,-205.93"/>
<polygon fill="black" stroke="black" points="265.62,-203.21 255.36,-200.57 261.73,-209.03 265.62,-203.21"/>
</g>
<!-- n_0 -->
<g id="node10" class="node">
<title>n_0</title>
<polygon fill="none" stroke="black" points="333.38,-166.38 333.38,-191.62 421.62,-191.62 421.62,-166.38 333.38,-166.38"/>
<text text-anchor="start" x="340.38" y="-177.07" font-family="Times New Roman,serif" font-weight="bold" font-size="9.00">Insufficient weight</text>
<polygon fill="none" stroke="black" points="332.38,-165.38 332.38,-192.62 422.62,-192.62 422.62,-165.38 332.38,-165.38"/>
</g>
<!-- n_0_2_3_5_6&#45;&gt;n_0 -->
<g id="edge9" class="edge">
<title>n_0_2_3_5_6&#45;&gt;n_0</title>
<path fill="none" stroke="black" d="M367.2,-243.14C369.02,-232 371.09,-219.29 372.9,-208.2"/>
<polygon fill="black" stroke="black" points="376.34,-208.89 374.49,-198.46 369.43,-207.77 376.34,-208.89"/>
</g>
<!-- n_2_3 -->
<g id="node4" class="node">
<title>n_2_3</title>
<polygon fill="none" stroke="black" points="74,-84.38 74,-109.62 139,-109.62 139,-84.38 74,-84.38"/>
<text text-anchor="start" x="81" y="-95.08" font-family="Times New Roman,serif" font-weight="bold" font-size="9.00">Overweight I</text>
<polygon fill="none" stroke="black" points="139,-84.38 139,-109.62 207,-109.62 207,-84.38 139,-84.38"/>
<text text-anchor="start" x="146" y="-95.08" font-family="Times New Roman,serif" font-weight="bold" font-size="9.00">Overweight II</text>
<polygon fill="none" stroke="black" points="73,-83.38 73,-110.62 208,-110.62 208,-83.38 73,-83.38"/>
</g>
<!-- n_2_3_5_6&#45;&gt;n_2_3 -->
<g id="edge3" class="edge">
<title>n_2_3_5_6&#45;&gt;n_2_3</title>
<path fill="none" stroke="black" d="M203.74,-158.22C192.48,-147.5 178.45,-134.15 166.48,-122.74"/>
<polygon fill="black" stroke="black" points="168.94,-120.25 159.28,-115.89 164.11,-125.32 168.94,-120.25"/>
</g>
<!-- n_5_6 -->
<g id="node7" class="node">
<title>n_5_6</title>
<polygon fill="none" stroke="black" points="254,-84.38 254,-109.62 307,-109.62 307,-84.38 254,-84.38"/>
<text text-anchor="start" x="261" y="-95.08" font-family="Times New Roman,serif" font-weight="bold" font-size="9.00">Obesity II</text>
<polygon fill="none" stroke="black" points="307,-84.38 307,-109.62 363,-109.62 363,-84.38 307,-84.38"/>
<text text-anchor="start" x="314" y="-95.08" font-family="Times New Roman,serif" font-weight="bold" font-size="9.00">Obesity III</text>
<polygon fill="none" stroke="black" points="253,-83.38 253,-110.62 364,-110.62 364,-83.38 253,-83.38"/>
</g>
<!-- n_2_3_5_6&#45;&gt;n_5_6 -->
<g id="edge6" class="edge">
<title>n_2_3_5_6&#45;&gt;n_5_6</title>
<path fill="none" stroke="black" d="M245.26,-158.22C256.52,-147.5 270.55,-134.15 282.52,-122.74"/>
<polygon fill="black" stroke="black" points="284.89,-125.32 289.72,-115.89 280.06,-120.25 284.89,-125.32"/>
</g>
<!-- n_2 -->
<g id="node5" class="node">
<title>n_2</title>
<polygon fill="none" stroke="black" points="9,-5.38 9,-30.62 74,-30.62 74,-5.38 9,-5.38"/>
<text text-anchor="start" x="16" y="-16.07" font-family="Times New Roman,serif" font-weight="bold" font-size="9.00">Overweight I</text>
<polygon fill="none" stroke="black" points="8,-4.38 8,-31.62 75,-31.62 75,-4.38 8,-4.38"/>
</g>
<!-- n_2_3&#45;&gt;n_2 -->
<g id="edge4" class="edge">
<title>n_2_3&#45;&gt;n_2</title>
<path fill="none" stroke="black" d="M119.02,-79.29C105.36,-68.67 87.46,-54.75 72.3,-42.96"/>
<polygon fill="black" stroke="black" points="74.52,-40.25 64.48,-36.87 70.22,-45.77 74.52,-40.25"/>
</g>
<!-- n_3 -->
<g id="node6" class="node">
<title>n_3</title>
<polygon fill="none" stroke="black" points="121.5,-5.38 121.5,-30.62 189.5,-30.62 189.5,-5.38 121.5,-5.38"/>
<text text-anchor="start" x="128.5" y="-16.07" font-family="Times New Roman,serif" font-weight="bold" font-size="9.00">Overweight II</text>
<polygon fill="none" stroke="black" points="120.5,-4.38 120.5,-31.62 190.5,-31.62 190.5,-4.38 120.5,-4.38"/>
</g>
<!-- n_2_3&#45;&gt;n_3 -->
<g id="edge5" class="edge">
<title>n_2_3&#45;&gt;n_3</title>
<path fill="none" stroke="black" d="M143.75,-79.29C145.59,-69.87 147.93,-57.86 150.04,-47.04"/>
<polygon fill="black" stroke="black" points="153.43,-47.91 151.91,-37.43 146.56,-46.57 153.43,-47.91"/>
</g>
<!-- n_5 -->
<g id="node8" class="node">
<title>n_5</title>
<polygon fill="none" stroke="black" points="267,-5.38 267,-30.62 320,-30.62 320,-5.38 267,-5.38"/>
<text text-anchor="start" x="274" y="-16.07" font-family="Times New Roman,serif" font-weight="bold" font-size="9.00">Obesity II</text>
<polygon fill="none" stroke="black" points="266,-4.38 266,-31.62 321,-31.62 321,-4.38 266,-4.38"/>
</g>
<!-- n_5_6&#45;&gt;n_5 -->
<g id="edge7" class="edge">
<title>n_5_6&#45;&gt;n_5</title>
<path fill="none" stroke="black" d="M305.25,-79.29C303.41,-69.87 301.07,-57.86 298.96,-47.04"/>
<polygon fill="black" stroke="black" points="302.44,-46.57 297.09,-37.43 295.57,-47.91 302.44,-46.57"/>
</g>
<!-- n_6 -->
<g id="node9" class="node">
<title>n_6</title>
<polygon fill="none" stroke="black" points="367.5,-5.38 367.5,-30.62 423.5,-30.62 423.5,-5.38 367.5,-5.38"/>
<text text-anchor="start" x="374.5" y="-16.07" font-family="Times New Roman,serif" font-weight="bold" font-size="9.00">Obesity III</text>
<polygon fill="none" stroke="black" points="366.5,-4.38 366.5,-31.62 424.5,-31.62 424.5,-4.38 366.5,-4.38"/>
</g>
<!-- n_5_6&#45;&gt;n_6 -->
<g id="edge8" class="edge">
<title>n_5_6&#45;&gt;n_6</title>
<path fill="none" stroke="black" d="M327.38,-79.29C339.27,-68.77 354.81,-55.01 368.05,-43.29"/>
<polygon fill="black" stroke="black" points="370.06,-46.19 375.23,-36.94 365.42,-40.95 370.06,-46.19"/>
</g>
<!-- n_1 -->
<g id="node12" class="node">
<title>n_1</title>
<polygon fill="none" stroke="black" points="497.5,-166.38 497.5,-191.62 541.5,-191.62 541.5,-166.38 497.5,-166.38"/>
<text text-anchor="start" x="504.5" y="-177.07" font-family="Times New Roman,serif" font-weight="bold" font-size="9.00">Normal</text>
<polygon fill="none" stroke="black" points="496.5,-165.38 496.5,-192.62 542.5,-192.62 542.5,-165.38 496.5,-165.38"/>
</g>
<!-- n_1_4&#45;&gt;n_1 -->
<g id="edge11" class="edge">
<title>n_1_4&#45;&gt;n_1</title>
<path fill="none" stroke="black" d="M531.75,-255.13C529.59,-241.9 526.55,-223.21 524.03,-207.78"/>
<polygon fill="black" stroke="black" points="527.54,-207.57 522.48,-198.26 520.63,-208.69 527.54,-207.57"/>
</g>
<!-- n_4 -->
<g id="node13" class="node">
<title>n_4</title>
<polygon fill="none" stroke="black" points="588.5,-166.38 588.5,-191.62 638.5,-191.62 638.5,-166.38 588.5,-166.38"/>
<text text-anchor="start" x="595.5" y="-177.07" font-family="Times New Roman,serif" font-weight="bold" font-size="9.00">Obesity I</text>
<polygon fill="none" stroke="black" points="587.5,-165.38 587.5,-192.62 639.5,-192.62 639.5,-165.38 587.5,-165.38"/>
</g>
<!-- n_1_4&#45;&gt;n_4 -->
<g id="edge12" class="edge">
<title>n_1_4&#45;&gt;n_4</title>
<path fill="none" stroke="black" d="M548.99,-255.13C561.02,-241.12 578.3,-220.99 591.95,-205.1"/>
<polygon fill="black" stroke="black" points="594.26,-207.78 598.12,-197.92 588.95,-203.22 594.26,-207.78"/>
</g>
</g>
</svg>
