<?xml version="1.0" encoding="UTF-8" standalone="no"?>
<!DOCTYPE svg PUBLIC "-//W3C//DTD SVG 1.1//EN"
 "http://www.w3.org/Graphics/SVG/1.1/DTD/svg11.dtd">
<!-- Generated by graphviz version 10.0.1 (20240210.2158)
 -->
<!-- Title: ND Pages: 1 -->
<svg width="613pt" height="405pt"
 viewBox="0.00 0.00 613.00 405.00" xmlns="http://www.w3.org/2000/svg" xmlns:xlink="http://www.w3.org/1999/xlink">
<g id="graph0" class="graph" transform="scale(1 1) rotate(0) translate(4 401)">
<title>ND</title>
<polygon fill="white" stroke="none" points="-4,4 -4,-401 609,-401 609,4 -4,4"/>
<!-- n_0_1_2_3_4_5_6 -->
<g id="node1" class="node">
<title>n_0_1_2_3_4_5_6</title>
<polygon fill="none" stroke="black" points="265.88,-342 265.88,-392 333.88,-392 333.88,-342 265.88,-342"/>
<text text-anchor="start" x="284.88" y="-377.45" font-family="Times New Roman,serif" font-weight="bold" font-size="9.00">Normal</text>
<text text-anchor="start" x="274.38" y="-368.45" font-family="Times New Roman,serif" font-weight="bold" font-size="9.00">Overweight I</text>
<text text-anchor="start" x="272.88" y="-359.45" font-family="Times New Roman,serif" font-weight="bold" font-size="9.00">Overweight II</text>
<text text-anchor="start" x="278.88" y="-350.45" font-family="Times New Roman,serif" font-weight="bold" font-size="9.00">Obesity III</text>
<polygon fill="none" stroke="black" points="333.88,-342 333.88,-392 422.12,-392 422.12,-342 333.88,-342"/>
<text text-anchor="start" x="340.88" y="-372.95" font-family="Times New Roman,serif" font-weight="bold" font-size="9.00">Insufficient weight</text>
<text text-anchor="start" x="360" y="-363.95" font-family="Times New Roman,serif" font-weight="bold" font-size="9.00">Obesity I</text>
<text text-anchor="start" x="358.5" y="-354.95" font-family="Times New Roman,serif" font-weight="bold" font-size="9.00">Obesity II</text>
<polygon fill="none" stroke="black" points="264.88,-341 264.88,-393 423.12,-393 423.12,-341 264.88,-341"/>
</g>
<!-- n_1_2_3_6 -->
<g id="node2" class="node">
<title>n_1_2_3_6</title>
<polygon fill="none" stroke="black" points="186.5,-248 186.5,-289 254.5,-289 254.5,-248 186.5,-248"/>
<text text-anchor="start" x="205.5" y="-274.45" font-family="Times New Roman,serif" font-weight="bold" font-size="9.00">Normal</text>
<text text-anchor="start" x="193.5" y="-265.45" font-family="Times New Roman,serif" font-weight="bold" font-size="9.00">Overweight II</text>
<text text-anchor="start" x="199.5" y="-256.45" font-family="Times New Roman,serif" font-weight="bold" font-size="9.00">Obesity III</text>
<polygon fill="none" stroke="black" points="254.5,-248 254.5,-289 319.5,-289 319.5,-248 254.5,-248"/>
<text text-anchor="start" x="261.5" y="-266.57" font-family="Times New Roman,serif" font-weight="bold" font-size="9.00">Overweight I</text>
<polygon fill="none" stroke="black" points="185.5,-247 185.5,-290 320.5,-290 320.5,-247 185.5,-247"/>
</g>
<!-- n_0_1_2_3_4_5_6&#45;&gt;n_1_2_3_6 -->
<g id="edge1" class="edge">
<title>n_0_1_2_3_4_5_6&#45;&gt;n_1_2_3_6</title>
<path fill="none" stroke="black" d="M316.7,-337.05C306.35,-326.08 294.5,-313.51 283.85,-302.22"/>
<polygon fill="black" stroke="black" points="286.43,-299.85 277.02,-294.98 281.34,-304.65 286.43,-299.85"/>
</g>
<!-- n_0_4_5 -->
<g id="node9" class="node">
<title>n_0_4_5</title>
<polygon fill="none" stroke="black" points="366.88,-252.5 366.88,-284.5 455.12,-284.5 455.12,-252.5 366.88,-252.5"/>
<text text-anchor="start" x="373.88" y="-269.95" font-family="Times New Roman,serif" font-weight="bold" font-size="9.00">Insufficient weight</text>
<text text-anchor="start" x="391.5" y="-260.95" font-family="Times New Roman,serif" font-weight="bold" font-size="9.00">Obesity II</text>
<polygon fill="none" stroke="black" points="455.12,-252.5 455.12,-284.5 505.12,-284.5 505.12,-252.5 455.12,-252.5"/>
<text text-anchor="start" x="462.12" y="-266.57" font-family="Times New Roman,serif" font-weight="bold" font-size="9.00">Obesity I</text>
<polygon fill="none" stroke="black" points="365.88,-251.5 365.88,-285.5 506.12,-285.5 506.12,-251.5 365.88,-251.5"/>
</g>
<!-- n_0_1_2_3_4_5_6&#45;&gt;n_0_4_5 -->
<g id="edge8" class="edge">
<title>n_0_1_2_3_4_5_6&#45;&gt;n_0_4_5</title>
<path fill="none" stroke="black" d="M371.6,-337.05C383.56,-324.51 397.5,-309.89 409.35,-297.46"/>
<polygon fill="black" stroke="black" points="411.75,-300.01 416.12,-290.35 406.68,-295.18 411.75,-300.01"/>
</g>
<!-- n_1_3_6 -->
<g id="node3" class="node">
<title>n_1_3_6</title>
<polygon fill="none" stroke="black" points="58,-163 58,-195 126,-195 126,-163 58,-163"/>
<text text-anchor="start" x="77" y="-180.45" font-family="Times New Roman,serif" font-weight="bold" font-size="9.00">Normal</text>
<text text-anchor="start" x="65" y="-171.45" font-family="Times New Roman,serif" font-weight="bold" font-size="9.00">Overweight II</text>
<polygon fill="none" stroke="black" points="126,-163 126,-195 182,-195 182,-163 126,-163"/>
<text text-anchor="start" x="133" y="-177.07" font-family="Times New Roman,serif" font-weight="bold" font-size="9.00">Obesity III</text>
<polygon fill="none" stroke="black" points="57,-162 57,-196 183,-196 183,-162 57,-162"/>
</g>
<!-- n_1_2_3_6&#45;&gt;n_1_3_6 -->
<g id="edge2" class="edge">
<title>n_1_2_3_6&#45;&gt;n_1_3_6</title>
<path fill="none" stroke="black" d="M215.95,-243.13C198.44,-231.61 177.52,-217.84 159.68,-206.11"/>
<polygon fill="black" stroke="black" points="161.68,-203.23 151.4,-200.66 157.83,-209.08 161.68,-203.23"/>
</g>
<!-- n_2 -->
<g id="node8" class="node">
<title>n_2</title>
<polygon fill="none" stroke="black" points="229.5,-166.38 229.5,-191.62 294.5,-191.62 294.5,-166.38 229.5,-166.38"/>
<text text-anchor="start" x="236.5" y="-177.07" font-family="Times New Roman,serif" font-weight="bold" font-size="9.00">Overweight I</text>
<polygon fill="none" stroke="black" points="228.5,-165.38 228.5,-192.62 295.5,-192.62 295.5,-165.38 228.5,-165.38"/>
</g>
<!-- n_1_2_3_6&#45;&gt;n_2 -->
<g id="edge7" class="edge">
<title>n_1_2_3_6&#45;&gt;n_2</title>
<path fill="none" stroke="black" d="M255.51,-243.13C256.62,-232.28 257.94,-219.45 259.1,-208.19"/>
<polygon fill="black" stroke="black" points="262.58,-208.58 260.12,-198.28 255.62,-207.87 262.58,-208.58"/>
</g>
<!-- n_1_3 -->
<g id="node4" class="node">
<title>n_1_3</title>
<polygon fill="none" stroke="black" points="26,-84.38 26,-109.62 70,-109.62 70,-84.38 26,-84.38"/>
<text text-anchor="start" x="33" y="-95.08" font-family="Times New Roman,serif" font-weight="bold" font-size="9.00">Normal</text>
<polygon fill="none" stroke="black" points="70,-84.38 70,-109.62 138,-109.62 138,-84.38 70,-84.38"/>
<text text-anchor="start" x="77" y="-95.08" font-family="Times New Roman,serif" font-weight="bold" font-size="9.00">Overweight II</text>
<polygon fill="none" stroke="black" points="25,-83.38 25,-110.62 139,-110.62 139,-83.38 25,-83.38"/>
</g>
<!-- n_1_3_6&#45;&gt;n_1_3 -->
<g id="edge3" class="edge">
<title>n_1_3_6&#45;&gt;n_1_3</title>
<path fill="none" stroke="black" d="M110.61,-158.22C105.86,-148.23 100.03,-135.95 94.87,-125.09"/>
<polygon fill="black" stroke="black" points="98.1,-123.74 90.65,-116.21 91.78,-126.75 98.1,-123.74"/>
</g>
<!-- n_6 -->
<g id="node7" class="node">
<title>n_6</title>
<polygon fill="none" stroke="black" points="185,-84.38 185,-109.62 241,-109.62 241,-84.38 185,-84.38"/>
<text text-anchor="start" x="192" y="-95.08" font-family="Times New Roman,serif" font-weight="bold" font-size="9.00">Obesity III</text>
<polygon fill="none" stroke="black" points="184,-83.38 184,-110.62 242,-110.62 242,-83.38 184,-83.38"/>
</g>
<!-- n_1_3_6&#45;&gt;n_6 -->
<g id="edge6" class="edge">
<title>n_1_3_6&#45;&gt;n_6</title>
<path fill="none" stroke="black" d="M142.99,-158.22C155.7,-147.29 171.58,-133.63 185.01,-122.08"/>
<polygon fill="black" stroke="black" points="186.97,-125.01 192.27,-115.83 182.41,-119.7 186.97,-125.01"/>
</g>
<!-- n_1 -->
<g id="node5" class="node">
<title>n_1</title>
<polygon fill="none" stroke="black" points="9,-5.38 9,-30.62 53,-30.62 53,-5.38 9,-5.38"/>
<text text-anchor="start" x="16" y="-16.07" font-family="Times New Roman,serif" font-weight="bold" font-size="9.00">Normal</text>
<polygon fill="none" stroke="black" points="8,-4.38 8,-31.62 54,-31.62 54,-4.38 8,-4.38"/>
</g>
<!-- n_1_3&#45;&gt;n_1 -->
<g id="edge4" class="edge">
<title>n_1_3&#45;&gt;n_1</title>
<path fill="none" stroke="black" d="M70.93,-79.29C64.36,-69.37 55.89,-56.57 48.43,-45.32"/>
<polygon fill="black" stroke="black" points="51.5,-43.61 43.06,-37.2 45.66,-47.47 51.5,-43.61"/>
</g>
<!-- n_3 -->
<g id="node6" class="node">
<title>n_3</title>
<polygon fill="none" stroke="black" points="100,-5.38 100,-30.62 168,-30.62 168,-5.38 100,-5.38"/>
<text text-anchor="start" x="107" y="-16.07" font-family="Times New Roman,serif" font-weight="bold" font-size="9.00">Overweight II</text>
<polygon fill="none" stroke="black" points="99,-4.38 99,-31.62 169,-31.62 169,-4.38 99,-4.38"/>
</g>
<!-- n_1_3&#45;&gt;n_3 -->
<g id="edge5" class="edge">
<title>n_1_3&#45;&gt;n_3</title>
<path fill="none" stroke="black" d="M93.28,-79.29C99.98,-69.37 108.63,-56.57 116.23,-45.32"/>
<polygon fill="black" stroke="black" points="119.02,-47.44 121.71,-37.2 113.22,-43.52 119.02,-47.44"/>
</g>
<!-- n_0_5 -->
<g id="node10" class="node">
<title>n_0_5</title>
<polygon fill="none" stroke="black" points="357.38,-166.38 357.38,-191.62 445.62,-191.62 445.62,-166.38 357.38,-166.38"/>
<text text-anchor="start" x="364.38" y="-177.07" font-family="Times New Roman,serif" font-weight="bold" font-size="9.00">Insufficient weight</text>
<polygon fill="none" stroke="black" points="445.62,-166.38 445.62,-191.62 498.62,-191.62 498.62,-166.38 445.62,-166.38"/>
<text text-anchor="start" x="452.62" y="-177.07" font-family="Times New Roman,serif" font-weight="bold" font-size="9.00">Obesity II</text>
<polygon fill="none" stroke="black" points="356.38,-165.38 356.38,-192.62 499.62,-192.62 499.62,-165.38 356.38,-165.38"/>
</g>
<!-- n_0_4_5&#45;&gt;n_0_5 -->
<g id="edge9" class="edge">
<title>n_0_4_5&#45;&gt;n_0_5</title>
<path fill="none" stroke="black" d="M434.18,-247.64C433.11,-235.91 431.74,-220.86 430.55,-207.94"/>
<polygon fill="black" stroke="black" points="434.07,-207.98 429.68,-198.34 427.1,-208.62 434.07,-207.98"/>
</g>
<!-- n_4 -->
<g id="node13" class="node">
<title>n_4</title>
<polygon fill="none" stroke="black" points="546,-166.38 546,-191.62 596,-191.62 596,-166.38 546,-166.38"/>
<text text-anchor="start" x="553" y="-177.07" font-family="Times New Roman,serif" font-weight="bold" font-size="9.00">Obesity I</text>
<polygon fill="none" stroke="black" points="545,-165.38 545,-192.62 597,-192.62 597,-165.38 545,-165.38"/>
</g>
<!-- n_0_4_5&#45;&gt;n_4 -->
<g id="edge12" class="edge">
<title>n_0_4_5&#45;&gt;n_4</title>
<path fill="none" stroke="black" d="M466.63,-247.64C487.14,-234.35 514.2,-216.81 535.63,-202.93"/>
<polygon fill="black" stroke="black" points="537.27,-206.03 543.76,-197.66 533.47,-200.16 537.27,-206.03"/>
</g>
<!-- n_0 -->
<g id="node11" class="node">
<title>n_0</title>
<polygon fill="none" stroke="black" points="335.88,-84.38 335.88,-109.62 424.12,-109.62 424.12,-84.38 335.88,-84.38"/>
<text text-anchor="start" x="342.88" y="-95.08" font-family="Times New Roman,serif" font-weight="bold" font-size="9.00">Insufficient weight</text>
<polygon fill="none" stroke="black" points="334.88,-83.38 334.88,-110.62 425.12,-110.62 425.12,-83.38 334.88,-83.38"/>
</g>
<!-- n_0_5&#45;&gt;n_0 -->
<g id="edge10" class="edge">
<title>n_0_5&#45;&gt;n_0</title>
<path fill="none" stroke="black" d="M417.82,-161.03C411.46,-150.43 403.13,-136.54 395.9,-124.51"/>
<polygon fill="black" stroke="black" points="399.09,-123.01 390.94,-116.24 393.09,-126.62 399.09,-123.01"/>
</g>
<!-- n_5 -->
<g id="node12" class="node">
<title>n_5</title>
<polygon fill="none" stroke="black" points="471.5,-84.38 471.5,-109.62 524.5,-109.62 524.5,-84.38 471.5,-84.38"/>
<text text-anchor="start" x="478.5" y="-95.08" font-family="Times New Roman,serif" font-weight="bold" font-size="9.00">Obesity II</text>
<polygon fill="none" stroke="black" points="470.5,-83.38 470.5,-110.62 525.5,-110.62 525.5,-83.38 470.5,-83.38"/>
</g>
<!-- n_0_5&#45;&gt;n_5 -->
<g id="edge11" class="edge">
<title>n_0_5&#45;&gt;n_5</title>
<path fill="none" stroke="black" d="M442.85,-161.03C452.4,-150.11 465.01,-135.71 475.75,-123.43"/>
<polygon fill="black" stroke="black" points="478.23,-125.91 482.18,-116.08 472.96,-121.3 478.23,-125.91"/>
</g>
</g>
</svg>
