<?xml version="1.0" encoding="UTF-8" standalone="no"?>
<!DOCTYPE svg PUBLIC "-//W3C//DTD SVG 1.1//EN"
 "http://www.w3.org/Graphics/SVG/1.1/DTD/svg11.dtd">
<!-- Generated by graphviz version 10.0.1 (20240210.2158)
 -->
<!-- Title: ND Pages: 1 -->
<svg width="724pt" height="414pt"
 viewBox="0.00 0.00 723.62 414.00" xmlns="http://www.w3.org/2000/svg" xmlns:xlink="http://www.w3.org/1999/xlink">
<g id="graph0" class="graph" transform="scale(1 1) rotate(0) translate(4 410)">
<title>ND</title>
<polygon fill="white" stroke="none" points="-4,4 -4,-410 719.62,-410 719.62,4 -4,4"/>
<!-- n_0_1_2_3_4_5_6 -->
<g id="node1" class="node">
<title>n_0_1_2_3_4_5_6</title>
<polygon fill="none" stroke="black" points="421.5,-342 421.5,-401 509.75,-401 509.75,-342 421.5,-342"/>
<text text-anchor="start" x="428.5" y="-386.45" font-family="Times New Roman,serif" font-weight="bold" font-size="9.00">Insufficient weight</text>
<text text-anchor="start" x="438.62" y="-377.45" font-family="Times New Roman,serif" font-weight="bold" font-size="9.00">Overweight II</text>
<text text-anchor="start" x="447.62" y="-368.45" font-family="Times New Roman,serif" font-weight="bold" font-size="9.00">Obesity I</text>
<text text-anchor="start" x="446.12" y="-359.45" font-family="Times New Roman,serif" font-weight="bold" font-size="9.00">Obesity II</text>
<text text-anchor="start" x="444.62" y="-350.45" font-family="Times New Roman,serif" font-weight="bold" font-size="9.00">Obesity III</text>
<polygon fill="none" stroke="black" points="509.75,-342 509.75,-401 574.75,-401 574.75,-342 509.75,-342"/>
<text text-anchor="start" x="527.25" y="-372.95" font-family="Times New Roman,serif" font-weight="bold" font-size="9.00">Normal</text>
<text text-anchor="start" x="516.75" y="-363.95" font-family="Times New Roman,serif" font-weight="bold" font-size="9.00">Overweight I</text>
<polygon fill="none" stroke="black" points="420.5,-341 420.5,-402 575.75,-402 575.75,-341 420.5,-341"/>
</g>
<!-- n_0_3_4_5_6 -->
<g id="node2" class="node">
<title>n_0_3_4_5_6</title>
<polygon fill="none" stroke="black" points="339,-248 339,-289 427.25,-289 427.25,-248 339,-248"/>
<text text-anchor="start" x="346" y="-274.45" font-family="Times New Roman,serif" font-weight="bold" font-size="9.00">Insufficient weight</text>
<text text-anchor="start" x="356.12" y="-265.45" font-family="Times New Roman,serif" font-weight="bold" font-size="9.00">Overweight II</text>
<text text-anchor="start" x="363.62" y="-256.45" font-family="Times New Roman,serif" font-weight="bold" font-size="9.00">Obesity II</text>
<polygon fill="none" stroke="black" points="427.25,-248 427.25,-289 483.25,-289 483.25,-248 427.25,-248"/>
<text text-anchor="start" x="437.25" y="-269.95" font-family="Times New Roman,serif" font-weight="bold" font-size="9.00">Obesity I</text>
<text text-anchor="start" x="434.25" y="-260.95" font-family="Times New Roman,serif" font-weight="bold" font-size="9.00">Obesity III</text>
<polygon fill="none" stroke="black" points="338,-247 338,-290 484.25,-290 484.25,-247 338,-247"/>
</g>
<!-- n_0_1_2_3_4_5_6&#45;&gt;n_0_3_4_5_6 -->
<g id="edge1" class="edge">
<title>n_0_1_2_3_4_5_6&#45;&gt;n_0_3_4_5_6</title>
<path fill="none" stroke="black" d="M469.4,-337.15C459.79,-326 449.09,-313.58 439.51,-302.45"/>
<polygon fill="black" stroke="black" points="442.27,-300.3 433.1,-295.01 436.97,-304.87 442.27,-300.3"/>
</g>
<!-- n_1_2 -->
<g id="node11" class="node">
<title>n_1_2</title>
<polygon fill="none" stroke="black" points="530.62,-255.88 530.62,-281.12 574.62,-281.12 574.62,-255.88 530.62,-255.88"/>
<text text-anchor="start" x="537.62" y="-266.57" font-family="Times New Roman,serif" font-weight="bold" font-size="9.00">Normal</text>
<polygon fill="none" stroke="black" points="574.62,-255.88 574.62,-281.12 639.62,-281.12 639.62,-255.88 574.62,-255.88"/>
<text text-anchor="start" x="581.62" y="-266.57" font-family="Times New Roman,serif" font-weight="bold" font-size="9.00">Overweight I</text>
<polygon fill="none" stroke="black" points="529.62,-254.88 529.62,-282.12 640.62,-282.12 640.62,-254.88 529.62,-254.88"/>
</g>
<!-- n_0_1_2_3_4_5_6&#45;&gt;n_1_2 -->
<g id="edge10" class="edge">
<title>n_0_1_2_3_4_5_6&#45;&gt;n_1_2</title>
<path fill="none" stroke="black" d="M526.85,-337.15C538.76,-323.33 552.33,-307.57 563.39,-294.74"/>
<polygon fill="black" stroke="black" points="565.72,-297.39 569.6,-287.53 560.42,-292.82 565.72,-297.39"/>
</g>
<!-- n_0_3_5 -->
<g id="node3" class="node">
<title>n_0_3_5</title>
<polygon fill="none" stroke="black" points="168,-163 168,-195 256.25,-195 256.25,-163 168,-163"/>
<text text-anchor="start" x="175" y="-180.45" font-family="Times New Roman,serif" font-weight="bold" font-size="9.00">Insufficient weight</text>
<text text-anchor="start" x="192.62" y="-171.45" font-family="Times New Roman,serif" font-weight="bold" font-size="9.00">Obesity II</text>
<polygon fill="none" stroke="black" points="256.25,-163 256.25,-195 324.25,-195 324.25,-163 256.25,-163"/>
<text text-anchor="start" x="263.25" y="-177.07" font-family="Times New Roman,serif" font-weight="bold" font-size="9.00">Overweight II</text>
<polygon fill="none" stroke="black" points="167,-162 167,-196 325.25,-196 325.25,-162 167,-162"/>
</g>
<!-- n_0_3_4_5_6&#45;&gt;n_0_3_5 -->
<g id="edge2" class="edge">
<title>n_0_3_4_5_6&#45;&gt;n_0_3_5</title>
<path fill="none" stroke="black" d="M365.16,-243.13C342.92,-231.33 316.23,-217.18 293.77,-205.27"/>
<polygon fill="black" stroke="black" points="295.59,-202.27 285.12,-200.68 292.31,-208.46 295.59,-202.27"/>
</g>
<!-- n_4_6 -->
<g id="node8" class="node">
<title>n_4_6</title>
<polygon fill="none" stroke="black" points="371.12,-166.38 371.12,-191.62 421.12,-191.62 421.12,-166.38 371.12,-166.38"/>
<text text-anchor="start" x="378.12" y="-177.07" font-family="Times New Roman,serif" font-weight="bold" font-size="9.00">Obesity I</text>
<polygon fill="none" stroke="black" points="421.12,-166.38 421.12,-191.62 477.12,-191.62 477.12,-166.38 421.12,-166.38"/>
<text text-anchor="start" x="428.12" y="-177.07" font-family="Times New Roman,serif" font-weight="bold" font-size="9.00">Obesity III</text>
<polygon fill="none" stroke="black" points="370.12,-165.38 370.12,-192.62 478.12,-192.62 478.12,-165.38 370.12,-165.38"/>
</g>
<!-- n_0_3_4_5_6&#45;&gt;n_4_6 -->
<g id="edge7" class="edge">
<title>n_0_3_4_5_6&#45;&gt;n_4_6</title>
<path fill="none" stroke="black" d="M414.75,-243.13C416.37,-232.17 418.3,-219.18 419.99,-207.84"/>
<polygon fill="black" stroke="black" points="423.4,-208.67 421.41,-198.27 416.48,-207.64 423.4,-208.67"/>
</g>
<!-- n_0_5 -->
<g id="node4" class="node">
<title>n_0_5</title>
<polygon fill="none" stroke="black" points="41.5,-84.38 41.5,-109.62 129.75,-109.62 129.75,-84.38 41.5,-84.38"/>
<text text-anchor="start" x="48.5" y="-95.08" font-family="Times New Roman,serif" font-weight="bold" font-size="9.00">Insufficient weight</text>
<polygon fill="none" stroke="black" points="129.75,-84.38 129.75,-109.62 182.75,-109.62 182.75,-84.38 129.75,-84.38"/>
<text text-anchor="start" x="136.75" y="-95.08" font-family="Times New Roman,serif" font-weight="bold" font-size="9.00">Obesity II</text>
<polygon fill="none" stroke="black" points="40.5,-83.38 40.5,-110.62 183.75,-110.62 183.75,-83.38 40.5,-83.38"/>
</g>
<!-- n_0_3_5&#45;&gt;n_0_5 -->
<g id="edge3" class="edge">
<title>n_0_3_5&#45;&gt;n_0_5</title>
<path fill="none" stroke="black" d="M212.66,-158.02C193.65,-146.67 169.78,-132.42 150.07,-120.66"/>
<polygon fill="black" stroke="black" points="151.88,-117.66 141.49,-115.53 148.29,-123.67 151.88,-117.66"/>
</g>
<!-- n_3 -->
<g id="node7" class="node">
<title>n_3</title>
<polygon fill="none" stroke="black" points="230.12,-84.38 230.12,-109.62 298.12,-109.62 298.12,-84.38 230.12,-84.38"/>
<text text-anchor="start" x="237.12" y="-95.08" font-family="Times New Roman,serif" font-weight="bold" font-size="9.00">Overweight II</text>
<polygon fill="none" stroke="black" points="229.12,-83.38 229.12,-110.62 299.12,-110.62 299.12,-83.38 229.12,-83.38"/>
</g>
<!-- n_0_3_5&#45;&gt;n_3 -->
<g id="edge6" class="edge">
<title>n_0_3_5&#45;&gt;n_3</title>
<path fill="none" stroke="black" d="M250.57,-158.22C252.78,-148.44 255.47,-136.46 257.88,-125.77"/>
<polygon fill="black" stroke="black" points="261.22,-126.84 260,-116.32 254.39,-125.31 261.22,-126.84"/>
</g>
<!-- n_0 -->
<g id="node5" class="node">
<title>n_0</title>
<polygon fill="none" stroke="black" points="9,-5.38 9,-30.62 97.25,-30.62 97.25,-5.38 9,-5.38"/>
<text text-anchor="start" x="16" y="-16.07" font-family="Times New Roman,serif" font-weight="bold" font-size="9.00">Insufficient weight</text>
<polygon fill="none" stroke="black" points="8,-4.38 8,-31.62 98.25,-31.62 98.25,-4.38 8,-4.38"/>
</g>
<!-- n_0_5&#45;&gt;n_0 -->
<g id="edge4" class="edge">
<title>n_0_5&#45;&gt;n_0</title>
<path fill="none" stroke="black" d="M99.32,-79.29C91.64,-69.27 81.72,-56.31 73.03,-44.98"/>
<polygon fill="black" stroke="black" points="75.89,-42.95 67.03,-37.14 70.33,-47.21 75.89,-42.95"/>
</g>
<!-- n_5 -->
<g id="node6" class="node">
<title>n_5</title>
<polygon fill="none" stroke="black" points="144.62,-5.38 144.62,-30.62 197.62,-30.62 197.62,-5.38 144.62,-5.38"/>
<text text-anchor="start" x="151.62" y="-16.07" font-family="Times New Roman,serif" font-weight="bold" font-size="9.00">Obesity II</text>
<polygon fill="none" stroke="black" points="143.62,-4.38 143.62,-31.62 198.62,-31.62 198.62,-4.38 143.62,-4.38"/>
</g>
<!-- n_0_5&#45;&gt;n_5 -->
<g id="edge5" class="edge">
<title>n_0_5&#45;&gt;n_5</title>
<path fill="none" stroke="black" d="M124.93,-79.29C132.61,-69.27 142.53,-56.31 151.22,-44.98"/>
<polygon fill="black" stroke="black" points="153.92,-47.21 157.22,-37.14 148.36,-42.95 153.92,-47.21"/>
</g>
<!-- n_4 -->
<g id="node9" class="node">
<title>n_4</title>
<polygon fill="none" stroke="black" points="381.12,-84.38 381.12,-109.62 431.12,-109.62 431.12,-84.38 381.12,-84.38"/>
<text text-anchor="start" x="388.12" y="-95.08" font-family="Times New Roman,serif" font-weight="bold" font-size="9.00">Obesity I</text>
<polygon fill="none" stroke="black" points="380.12,-83.38 380.12,-110.62 432.12,-110.62 432.12,-83.38 380.12,-83.38"/>
</g>
<!-- n_4_6&#45;&gt;n_4 -->
<g id="edge8" class="edge">
<title>n_4_6&#45;&gt;n_4</title>
<path fill="none" stroke="black" d="M420.31,-161.03C418.02,-150.85 415.05,-137.65 412.42,-125.96"/>
<polygon fill="black" stroke="black" points="415.88,-125.41 410.27,-116.42 409.05,-126.94 415.88,-125.41"/>
</g>
<!-- n_6 -->
<g id="node10" class="node">
<title>n_6</title>
<polygon fill="none" stroke="black" points="478.12,-84.38 478.12,-109.62 534.12,-109.62 534.12,-84.38 478.12,-84.38"/>
<text text-anchor="start" x="485.12" y="-95.08" font-family="Times New Roman,serif" font-weight="bold" font-size="9.00">Obesity III</text>
<polygon fill="none" stroke="black" points="477.12,-83.38 477.12,-110.62 535.12,-110.62 535.12,-83.38 477.12,-83.38"/>
</g>
<!-- n_4_6&#45;&gt;n_6 -->
<g id="edge9" class="edge">
<title>n_4_6&#45;&gt;n_6</title>
<path fill="none" stroke="black" d="M441.52,-161.03C452.93,-149.9 468.05,-135.15 480.79,-122.71"/>
<polygon fill="black" stroke="black" points="482.96,-125.49 487.68,-116 478.07,-120.48 482.96,-125.49"/>
</g>
<!-- n_1 -->
<g id="node12" class="node">
<title>n_1</title>
<polygon fill="none" stroke="black" points="550.12,-166.38 550.12,-191.62 594.12,-191.62 594.12,-166.38 550.12,-166.38"/>
<text text-anchor="start" x="557.12" y="-177.07" font-family="Times New Roman,serif" font-weight="bold" font-size="9.00">Normal</text>
<polygon fill="none" stroke="black" points="549.12,-165.38 549.12,-192.62 595.12,-192.62 595.12,-165.38 549.12,-165.38"/>
</g>
<!-- n_1_2&#45;&gt;n_1 -->
<g id="edge11" class="edge">
<title>n_1_2&#45;&gt;n_1</title>
<path fill="none" stroke="black" d="M582.62,-250.63C580.82,-238.52 578.36,-221.94 576.27,-207.88"/>
<polygon fill="black" stroke="black" points="579.78,-207.69 574.85,-198.32 572.85,-208.72 579.78,-207.69"/>
</g>
<!-- n_2 -->
<g id="node13" class="node">
<title>n_2</title>
<polygon fill="none" stroke="black" points="641.62,-166.38 641.62,-191.62 706.62,-191.62 706.62,-166.38 641.62,-166.38"/>
<text text-anchor="start" x="648.62" y="-177.07" font-family="Times New Roman,serif" font-weight="bold" font-size="9.00">Overweight I</text>
<polygon fill="none" stroke="black" points="640.62,-165.38 640.62,-192.62 707.62,-192.62 707.62,-165.38 640.62,-165.38"/>
</g>
<!-- n_1_2&#45;&gt;n_2 -->
<g id="edge12" class="edge">
<title>n_1_2&#45;&gt;n_2</title>
<path fill="none" stroke="black" d="M602.29,-250.63C615.58,-237.56 634.2,-219.25 649.15,-204.56"/>
<polygon fill="black" stroke="black" points="651.26,-207.39 655.94,-197.88 646.35,-202.4 651.26,-207.39"/>
</g>
</g>
</svg>
