<?xml version="1.0" encoding="UTF-8" standalone="no"?>
<!DOCTYPE svg PUBLIC "-//W3C//DTD SVG 1.1//EN"
 "http://www.w3.org/Graphics/SVG/1.1/DTD/svg11.dtd">
<!-- Generated by graphviz version 10.0.1 (20240210.2158)
 -->
<!-- Title: ND Pages: 1 -->
<svg width="573pt" height="535pt"
 viewBox="0.00 0.00 572.50 535.00" xmlns="http://www.w3.org/2000/svg" xmlns:xlink="http://www.w3.org/1999/xlink">
<g id="graph0" class="graph" transform="scale(1 1) rotate(0) translate(4 531)">
<title>ND</title>
<polygon fill="white" stroke="none" points="-4,4 -4,-531 568.5,-531 568.5,4 -4,4"/>
<!-- n_0_1_2_3_4_5_6 -->
<g id="node1" class="node">
<title>n_0_1_2_3_4_5_6</title>
<polygon fill="none" stroke="black" points="369.38,-454 369.38,-522 457.62,-522 457.62,-454 369.38,-454"/>
<text text-anchor="start" x="376.38" y="-507.45" font-family="Times New Roman,serif" font-weight="bold" font-size="9.00">Insufficient weight</text>
<text text-anchor="start" x="398.5" y="-498.45" font-family="Times New Roman,serif" font-weight="bold" font-size="9.00">Normal</text>
<text text-anchor="start" x="388" y="-489.45" font-family="Times New Roman,serif" font-weight="bold" font-size="9.00">Overweight I</text>
<text text-anchor="start" x="395.5" y="-480.45" font-family="Times New Roman,serif" font-weight="bold" font-size="9.00">Obesity I</text>
<text text-anchor="start" x="394" y="-471.45" font-family="Times New Roman,serif" font-weight="bold" font-size="9.00">Obesity II</text>
<text text-anchor="start" x="392.5" y="-462.45" font-family="Times New Roman,serif" font-weight="bold" font-size="9.00">Obesity III</text>
<polygon fill="none" stroke="black" points="457.62,-454 457.62,-522 525.62,-522 525.62,-454 457.62,-454"/>
<text text-anchor="start" x="464.62" y="-486.07" font-family="Times New Roman,serif" font-weight="bold" font-size="9.00">Overweight II</text>
<polygon fill="none" stroke="black" points="368.38,-453 368.38,-523 526.62,-523 526.62,-453 368.38,-453"/>
</g>
<!-- n_0_1_2_4_5_6 -->
<g id="node2" class="node">
<title>n_0_1_2_4_5_6</title>
<polygon fill="none" stroke="black" points="308.38,-342 308.38,-401 396.62,-401 396.62,-342 308.38,-342"/>
<text text-anchor="start" x="315.38" y="-386.45" font-family="Times New Roman,serif" font-weight="bold" font-size="9.00">Insufficient weight</text>
<text text-anchor="start" x="327" y="-377.45" font-family="Times New Roman,serif" font-weight="bold" font-size="9.00">Overweight I</text>
<text text-anchor="start" x="334.5" y="-368.45" font-family="Times New Roman,serif" font-weight="bold" font-size="9.00">Obesity I</text>
<text text-anchor="start" x="333" y="-359.45" font-family="Times New Roman,serif" font-weight="bold" font-size="9.00">Obesity II</text>
<text text-anchor="start" x="331.5" y="-350.45" font-family="Times New Roman,serif" font-weight="bold" font-size="9.00">Obesity III</text>
<polygon fill="none" stroke="black" points="396.62,-342 396.62,-401 440.62,-401 440.62,-342 396.62,-342"/>
<text text-anchor="start" x="403.62" y="-369.57" font-family="Times New Roman,serif" font-weight="bold" font-size="9.00">Normal</text>
<polygon fill="none" stroke="black" points="307.38,-341 307.38,-402 441.62,-402 441.62,-341 307.38,-341"/>
</g>
<!-- n_0_1_2_3_4_5_6&#45;&gt;n_0_1_2_4_5_6 -->
<g id="edge1" class="edge">
<title>n_0_1_2_3_4_5_6&#45;&gt;n_0_1_2_4_5_6</title>
<path fill="none" stroke="black" d="M423.39,-449.19C416.46,-438.31 408.84,-426.36 401.73,-415.21"/>
<polygon fill="black" stroke="black" points="404.78,-413.48 396.45,-406.93 398.87,-417.24 404.78,-413.48"/>
</g>
<!-- n_3 -->
<g id="node13" class="node">
<title>n_3</title>
<polygon fill="none" stroke="black" points="487.5,-358.88 487.5,-384.12 555.5,-384.12 555.5,-358.88 487.5,-358.88"/>
<text text-anchor="start" x="494.5" y="-369.57" font-family="Times New Roman,serif" font-weight="bold" font-size="9.00">Overweight II</text>
<polygon fill="none" stroke="black" points="486.5,-357.88 486.5,-385.12 556.5,-385.12 556.5,-357.88 486.5,-357.88"/>
</g>
<!-- n_0_1_2_3_4_5_6&#45;&gt;n_3 -->
<g id="edge12" class="edge">
<title>n_0_1_2_3_4_5_6&#45;&gt;n_3</title>
<path fill="none" stroke="black" d="M471.94,-449.19C482.54,-432.78 494.7,-413.96 504.33,-399.07"/>
<polygon fill="black" stroke="black" points="507.23,-401.03 509.72,-390.73 501.35,-397.23 507.23,-401.03"/>
</g>
<!-- n_0_2_4_5_6 -->
<g id="node3" class="node">
<title>n_0_2_4_5_6</title>
<polygon fill="none" stroke="black" points="224.88,-248 224.88,-289 289.88,-289 289.88,-248 224.88,-248"/>
<text text-anchor="start" x="231.88" y="-274.45" font-family="Times New Roman,serif" font-weight="bold" font-size="9.00">Overweight I</text>
<text text-anchor="start" x="237.88" y="-265.45" font-family="Times New Roman,serif" font-weight="bold" font-size="9.00">Obesity II</text>
<text text-anchor="start" x="236.38" y="-256.45" font-family="Times New Roman,serif" font-weight="bold" font-size="9.00">Obesity III</text>
<polygon fill="none" stroke="black" points="289.88,-248 289.88,-289 378.12,-289 378.12,-248 289.88,-248"/>
<text text-anchor="start" x="296.88" y="-269.95" font-family="Times New Roman,serif" font-weight="bold" font-size="9.00">Insufficient weight</text>
<text text-anchor="start" x="316" y="-260.95" font-family="Times New Roman,serif" font-weight="bold" font-size="9.00">Obesity I</text>
<polygon fill="none" stroke="black" points="223.88,-247 223.88,-290 379.12,-290 379.12,-247 223.88,-247"/>
</g>
<!-- n_0_1_2_4_5_6&#45;&gt;n_0_2_4_5_6 -->
<g id="edge2" class="edge">
<title>n_0_1_2_4_5_6&#45;&gt;n_0_2_4_5_6</title>
<path fill="none" stroke="black" d="M350.39,-337.15C342.49,-326.22 333.71,-314.07 325.8,-303.12"/>
<polygon fill="black" stroke="black" points="328.69,-301.14 319.99,-295.09 323.01,-305.24 328.69,-301.14"/>
</g>
<!-- n_1 -->
<g id="node12" class="node">
<title>n_1</title>
<polygon fill="none" stroke="black" points="425.5,-255.88 425.5,-281.12 469.5,-281.12 469.5,-255.88 425.5,-255.88"/>
<text text-anchor="start" x="432.5" y="-266.57" font-family="Times New Roman,serif" font-weight="bold" font-size="9.00">Normal</text>
<polygon fill="none" stroke="black" points="424.5,-254.88 424.5,-282.12 470.5,-282.12 470.5,-254.88 424.5,-254.88"/>
</g>
<!-- n_0_1_2_4_5_6&#45;&gt;n_1 -->
<g id="edge11" class="edge">
<title>n_0_1_2_4_5_6&#45;&gt;n_1</title>
<path fill="none" stroke="black" d="M398.61,-337.15C408.4,-323.6 419.55,-308.17 428.72,-295.48"/>
<polygon fill="black" stroke="black" points="431.39,-297.76 434.41,-287.61 425.72,-293.66 431.39,-297.76"/>
</g>
<!-- n_2_5_6 -->
<g id="node4" class="node">
<title>n_2_5_6</title>
<polygon fill="none" stroke="black" points="153,-163 153,-195 218,-195 218,-163 153,-163"/>
<text text-anchor="start" x="160" y="-180.45" font-family="Times New Roman,serif" font-weight="bold" font-size="9.00">Overweight I</text>
<text text-anchor="start" x="166" y="-171.45" font-family="Times New Roman,serif" font-weight="bold" font-size="9.00">Obesity II</text>
<polygon fill="none" stroke="black" points="218,-163 218,-195 274,-195 274,-163 218,-163"/>
<text text-anchor="start" x="225" y="-177.07" font-family="Times New Roman,serif" font-weight="bold" font-size="9.00">Obesity III</text>
<polygon fill="none" stroke="black" points="152,-162 152,-196 275,-196 275,-162 152,-162"/>
</g>
<!-- n_0_2_4_5_6&#45;&gt;n_2_5_6 -->
<g id="edge3" class="edge">
<title>n_0_2_4_5_6&#45;&gt;n_2_5_6</title>
<path fill="none" stroke="black" d="M276.99,-243.13C265.94,-232.14 252.83,-219.11 241.41,-207.75"/>
<polygon fill="black" stroke="black" points="244.07,-205.46 234.51,-200.89 239.14,-210.43 244.07,-205.46"/>
</g>
<!-- n_0_4 -->
<g id="node9" class="node">
<title>n_0_4</title>
<polygon fill="none" stroke="black" points="321.38,-166.38 321.38,-191.62 409.62,-191.62 409.62,-166.38 321.38,-166.38"/>
<text text-anchor="start" x="328.38" y="-177.07" font-family="Times New Roman,serif" font-weight="bold" font-size="9.00">Insufficient weight</text>
<polygon fill="none" stroke="black" points="409.62,-166.38 409.62,-191.62 459.62,-191.62 459.62,-166.38 409.62,-166.38"/>
<text text-anchor="start" x="416.62" y="-177.07" font-family="Times New Roman,serif" font-weight="bold" font-size="9.00">Obesity I</text>
<polygon fill="none" stroke="black" points="320.38,-165.38 320.38,-192.62 460.62,-192.62 460.62,-165.38 320.38,-165.38"/>
</g>
<!-- n_0_2_4_5_6&#45;&gt;n_0_4 -->
<g id="edge8" class="edge">
<title>n_0_2_4_5_6&#45;&gt;n_0_4</title>
<path fill="none" stroke="black" d="M326.29,-243.13C338.49,-231.13 353.17,-216.7 365.42,-204.66"/>
<polygon fill="black" stroke="black" points="367.69,-207.34 372.36,-197.83 362.78,-202.35 367.69,-207.34"/>
</g>
<!-- n_2_5 -->
<g id="node5" class="node">
<title>n_2_5</title>
<polygon fill="none" stroke="black" points="35.5,-84.38 35.5,-109.62 100.5,-109.62 100.5,-84.38 35.5,-84.38"/>
<text text-anchor="start" x="42.5" y="-95.08" font-family="Times New Roman,serif" font-weight="bold" font-size="9.00">Overweight I</text>
<polygon fill="none" stroke="black" points="100.5,-84.38 100.5,-109.62 153.5,-109.62 153.5,-84.38 100.5,-84.38"/>
<text text-anchor="start" x="107.5" y="-95.08" font-family="Times New Roman,serif" font-weight="bold" font-size="9.00">Obesity II</text>
<polygon fill="none" stroke="black" points="34.5,-83.38 34.5,-110.62 154.5,-110.62 154.5,-83.38 34.5,-83.38"/>
</g>
<!-- n_2_5_6&#45;&gt;n_2_5 -->
<g id="edge4" class="edge">
<title>n_2_5_6&#45;&gt;n_2_5</title>
<path fill="none" stroke="black" d="M183.78,-158.02C167.05,-146.77 146.09,-132.68 128.68,-120.98"/>
<polygon fill="black" stroke="black" points="130.94,-118.28 120.68,-115.6 127.03,-124.09 130.94,-118.28"/>
</g>
<!-- n_6 -->
<g id="node8" class="node">
<title>n_6</title>
<polygon fill="none" stroke="black" points="200.5,-84.38 200.5,-109.62 256.5,-109.62 256.5,-84.38 200.5,-84.38"/>
<text text-anchor="start" x="207.5" y="-95.08" font-family="Times New Roman,serif" font-weight="bold" font-size="9.00">Obesity III</text>
<polygon fill="none" stroke="black" points="199.5,-83.38 199.5,-110.62 257.5,-110.62 257.5,-83.38 199.5,-83.38"/>
</g>
<!-- n_2_5_6&#45;&gt;n_6 -->
<g id="edge7" class="edge">
<title>n_2_5_6&#45;&gt;n_6</title>
<path fill="none" stroke="black" d="M217.21,-158.22C219.02,-148.54 221.24,-136.72 223.23,-126.11"/>
<polygon fill="black" stroke="black" points="226.66,-126.81 225.06,-116.33 219.78,-125.52 226.66,-126.81"/>
</g>
<!-- n_2 -->
<g id="node6" class="node">
<title>n_2</title>
<polygon fill="none" stroke="black" points="9,-5.38 9,-30.62 74,-30.62 74,-5.38 9,-5.38"/>
<text text-anchor="start" x="16" y="-16.07" font-family="Times New Roman,serif" font-weight="bold" font-size="9.00">Overweight I</text>
<polygon fill="none" stroke="black" points="8,-4.38 8,-31.62 75,-31.62 75,-4.38 8,-4.38"/>
</g>
<!-- n_2_5&#45;&gt;n_2 -->
<g id="edge5" class="edge">
<title>n_2_5&#45;&gt;n_2</title>
<path fill="none" stroke="black" d="M83,-79.29C76.17,-69.37 67.36,-56.57 59.62,-45.32"/>
<polygon fill="black" stroke="black" points="62.57,-43.44 54.02,-37.19 56.81,-47.41 62.57,-43.44"/>
</g>
<!-- n_5 -->
<g id="node7" class="node">
<title>n_5</title>
<polygon fill="none" stroke="black" points="121,-5.38 121,-30.62 174,-30.62 174,-5.38 121,-5.38"/>
<text text-anchor="start" x="128" y="-16.07" font-family="Times New Roman,serif" font-weight="bold" font-size="9.00">Obesity II</text>
<polygon fill="none" stroke="black" points="120,-4.38 120,-31.62 175,-31.62 175,-4.38 120,-4.38"/>
</g>
<!-- n_2_5&#45;&gt;n_5 -->
<g id="edge6" class="edge">
<title>n_2_5&#45;&gt;n_5</title>
<path fill="none" stroke="black" d="M106,-79.29C112.83,-69.37 121.64,-56.57 129.38,-45.32"/>
<polygon fill="black" stroke="black" points="132.19,-47.41 134.98,-37.19 126.43,-43.44 132.19,-47.41"/>
</g>
<!-- n_0 -->
<g id="node10" class="node">
<title>n_0</title>
<polygon fill="none" stroke="black" points="332.38,-84.38 332.38,-109.62 420.62,-109.62 420.62,-84.38 332.38,-84.38"/>
<text text-anchor="start" x="339.38" y="-95.08" font-family="Times New Roman,serif" font-weight="bold" font-size="9.00">Insufficient weight</text>
<polygon fill="none" stroke="black" points="331.38,-83.38 331.38,-110.62 421.62,-110.62 421.62,-83.38 331.38,-83.38"/>
</g>
<!-- n_0_4&#45;&gt;n_0 -->
<g id="edge9" class="edge">
<title>n_0_4&#45;&gt;n_0</title>
<path fill="none" stroke="black" d="M387.53,-161.03C385.75,-150.85 383.44,-137.65 381.39,-125.96"/>
<polygon fill="black" stroke="black" points="384.9,-125.68 379.73,-116.43 378,-126.89 384.9,-125.68"/>
</g>
<!-- n_4 -->
<g id="node11" class="node">
<title>n_4</title>
<polygon fill="none" stroke="black" points="467.5,-84.38 467.5,-109.62 517.5,-109.62 517.5,-84.38 467.5,-84.38"/>
<text text-anchor="start" x="474.5" y="-95.08" font-family="Times New Roman,serif" font-weight="bold" font-size="9.00">Obesity I</text>
<polygon fill="none" stroke="black" points="466.5,-83.38 466.5,-110.62 518.5,-110.62 518.5,-83.38 466.5,-83.38"/>
</g>
<!-- n_0_4&#45;&gt;n_4 -->
<g id="edge10" class="edge">
<title>n_0_4&#45;&gt;n_4</title>
<path fill="none" stroke="black" d="M412.13,-161.03C426.6,-149.69 445.86,-134.58 461.89,-122.01"/>
<polygon fill="black" stroke="black" points="464,-124.8 469.71,-115.88 459.68,-119.29 464,-124.8"/>
</g>
</g>
</svg>
