<?xml version="1.0" encoding="UTF-8" standalone="no"?>
<!DOCTYPE svg PUBLIC "-//W3C//DTD SVG 1.1//EN"
 "http://www.w3.org/Graphics/SVG/1.1/DTD/svg11.dtd">
<!-- Generated by graphviz version 10.0.1 (20240210.2158)
 -->
<!-- Title: ND Pages: 1 -->
<svg width="598pt" height="535pt"
 viewBox="0.00 0.00 597.62 535.00" xmlns="http://www.w3.org/2000/svg" xmlns:xlink="http://www.w3.org/1999/xlink">
<g id="graph0" class="graph" transform="scale(1 1) rotate(0) translate(4 531)">
<title>ND</title>
<polygon fill="white" stroke="none" points="-4,4 -4,-531 593.62,-531 593.62,4 -4,4"/>
<!-- n_0_1_2_3_4_5_6 -->
<g id="node1" class="node">
<title>n_0_1_2_3_4_5_6</title>
<polygon fill="none" stroke="black" points="392.5,-454 392.5,-522 480.75,-522 480.75,-454 392.5,-454"/>
<text text-anchor="start" x="399.5" y="-507.45" font-family="Times New Roman,serif" font-weight="bold" font-size="9.00">Insufficient weight</text>
<text text-anchor="start" x="421.62" y="-498.45" font-family="Times New Roman,serif" font-weight="bold" font-size="9.00">Normal</text>
<text text-anchor="start" x="409.62" y="-489.45" font-family="Times New Roman,serif" font-weight="bold" font-size="9.00">Overweight II</text>
<text text-anchor="start" x="418.62" y="-480.45" font-family="Times New Roman,serif" font-weight="bold" font-size="9.00">Obesity I</text>
<text text-anchor="start" x="417.12" y="-471.45" font-family="Times New Roman,serif" font-weight="bold" font-size="9.00">Obesity II</text>
<text text-anchor="start" x="415.62" y="-462.45" font-family="Times New Roman,serif" font-weight="bold" font-size="9.00">Obesity III</text>
<polygon fill="none" stroke="black" points="480.75,-454 480.75,-522 545.75,-522 545.75,-454 480.75,-454"/>
<text text-anchor="start" x="487.75" y="-486.07" font-family="Times New Roman,serif" font-weight="bold" font-size="9.00">Overweight I</text>
<polygon fill="none" stroke="black" points="391.5,-453 391.5,-523 546.75,-523 546.75,-453 391.5,-453"/>
</g>
<!-- n_0_1_3_4_5_6 -->
<g id="node2" class="node">
<title>n_0_1_3_4_5_6</title>
<polygon fill="none" stroke="black" points="312,-342 312,-401 400.25,-401 400.25,-342 312,-342"/>
<text text-anchor="start" x="319" y="-386.45" font-family="Times New Roman,serif" font-weight="bold" font-size="9.00">Insufficient weight</text>
<text text-anchor="start" x="341.12" y="-377.45" font-family="Times New Roman,serif" font-weight="bold" font-size="9.00">Normal</text>
<text text-anchor="start" x="338.12" y="-368.45" font-family="Times New Roman,serif" font-weight="bold" font-size="9.00">Obesity I</text>
<text text-anchor="start" x="336.62" y="-359.45" font-family="Times New Roman,serif" font-weight="bold" font-size="9.00">Obesity II</text>
<text text-anchor="start" x="335.12" y="-350.45" font-family="Times New Roman,serif" font-weight="bold" font-size="9.00">Obesity III</text>
<polygon fill="none" stroke="black" points="400.25,-342 400.25,-401 468.25,-401 468.25,-342 400.25,-342"/>
<text text-anchor="start" x="407.25" y="-369.57" font-family="Times New Roman,serif" font-weight="bold" font-size="9.00">Overweight II</text>
<polygon fill="none" stroke="black" points="311,-341 311,-402 469.25,-402 469.25,-341 311,-341"/>
</g>
<!-- n_0_1_2_3_4_5_6&#45;&gt;n_0_1_3_4_5_6 -->
<g id="edge1" class="edge">
<title>n_0_1_2_3_4_5_6&#45;&gt;n_0_1_3_4_5_6</title>
<path fill="none" stroke="black" d="M443.04,-449.19C435.45,-438.2 427.12,-426.12 419.36,-414.87"/>
<polygon fill="black" stroke="black" points="422.42,-413.14 413.86,-406.9 416.66,-417.12 422.42,-413.14"/>
</g>
<!-- n_2 -->
<g id="node13" class="node">
<title>n_2</title>
<polygon fill="none" stroke="black" points="515.62,-358.88 515.62,-384.12 580.62,-384.12 580.62,-358.88 515.62,-358.88"/>
<text text-anchor="start" x="522.62" y="-369.57" font-family="Times New Roman,serif" font-weight="bold" font-size="9.00">Overweight I</text>
<polygon fill="none" stroke="black" points="514.62,-357.88 514.62,-385.12 581.62,-385.12 581.62,-357.88 514.62,-357.88"/>
</g>
<!-- n_0_1_2_3_4_5_6&#45;&gt;n_2 -->
<g id="edge12" class="edge">
<title>n_0_1_2_3_4_5_6&#45;&gt;n_2</title>
<path fill="none" stroke="black" d="M495.21,-449.19C506.64,-432.63 519.77,-413.6 530.09,-398.64"/>
<polygon fill="black" stroke="black" points="532.76,-400.93 535.56,-390.71 527,-396.95 532.76,-400.93"/>
</g>
<!-- n_0_1_4_5_6 -->
<g id="node3" class="node">
<title>n_0_1_4_5_6</title>
<polygon fill="none" stroke="black" points="242,-248 242,-289 330.25,-289 330.25,-248 242,-248"/>
<text text-anchor="start" x="249" y="-274.45" font-family="Times New Roman,serif" font-weight="bold" font-size="9.00">Insufficient weight</text>
<text text-anchor="start" x="271.12" y="-265.45" font-family="Times New Roman,serif" font-weight="bold" font-size="9.00">Normal</text>
<text text-anchor="start" x="268.12" y="-256.45" font-family="Times New Roman,serif" font-weight="bold" font-size="9.00">Obesity I</text>
<polygon fill="none" stroke="black" points="330.25,-248 330.25,-289 386.25,-289 386.25,-248 330.25,-248"/>
<text text-anchor="start" x="338.75" y="-269.95" font-family="Times New Roman,serif" font-weight="bold" font-size="9.00">Obesity II</text>
<text text-anchor="start" x="337.25" y="-260.95" font-family="Times New Roman,serif" font-weight="bold" font-size="9.00">Obesity III</text>
<polygon fill="none" stroke="black" points="241,-247 241,-290 387.25,-290 387.25,-247 241,-247"/>
</g>
<!-- n_0_1_3_4_5_6&#45;&gt;n_0_1_4_5_6 -->
<g id="edge2" class="edge">
<title>n_0_1_3_4_5_6&#45;&gt;n_0_1_4_5_6</title>
<path fill="none" stroke="black" d="M365.03,-337.15C356.72,-326.11 347.48,-313.82 339.17,-302.78"/>
<polygon fill="black" stroke="black" points="342.17,-300.96 333.37,-295.07 336.58,-305.16 342.17,-300.96"/>
</g>
<!-- n_3 -->
<g id="node12" class="node">
<title>n_3</title>
<polygon fill="none" stroke="black" points="433.12,-255.88 433.12,-281.12 501.12,-281.12 501.12,-255.88 433.12,-255.88"/>
<text text-anchor="start" x="440.12" y="-266.57" font-family="Times New Roman,serif" font-weight="bold" font-size="9.00">Overweight II</text>
<polygon fill="none" stroke="black" points="432.12,-254.88 432.12,-282.12 502.12,-282.12 502.12,-254.88 432.12,-254.88"/>
</g>
<!-- n_0_1_3_4_5_6&#45;&gt;n_3 -->
<g id="edge11" class="edge">
<title>n_0_1_3_4_5_6&#45;&gt;n_3</title>
<path fill="none" stroke="black" d="M415.55,-337.15C425.88,-323.6 437.64,-308.17 447.32,-295.48"/>
<polygon fill="black" stroke="black" points="450.06,-297.66 453.34,-287.58 444.49,-293.41 450.06,-297.66"/>
</g>
<!-- n_0_1_4 -->
<g id="node4" class="node">
<title>n_0_1_4</title>
<polygon fill="none" stroke="black" points="160,-163 160,-195 248.25,-195 248.25,-163 160,-163"/>
<text text-anchor="start" x="167" y="-180.45" font-family="Times New Roman,serif" font-weight="bold" font-size="9.00">Insufficient weight</text>
<text text-anchor="start" x="189.12" y="-171.45" font-family="Times New Roman,serif" font-weight="bold" font-size="9.00">Normal</text>
<polygon fill="none" stroke="black" points="248.25,-163 248.25,-195 298.25,-195 298.25,-163 248.25,-163"/>
<text text-anchor="start" x="255.25" y="-177.07" font-family="Times New Roman,serif" font-weight="bold" font-size="9.00">Obesity I</text>
<polygon fill="none" stroke="black" points="159,-162 159,-196 299.25,-196 299.25,-162 159,-162"/>
</g>
<!-- n_0_1_4_5_6&#45;&gt;n_0_1_4 -->
<g id="edge3" class="edge">
<title>n_0_1_4_5_6&#45;&gt;n_0_1_4</title>
<path fill="none" stroke="black" d="M290.45,-243.13C279.88,-232.25 267.36,-219.36 256.4,-208.08"/>
<polygon fill="black" stroke="black" points="258.92,-205.65 249.44,-200.91 253.9,-210.52 258.92,-205.65"/>
</g>
<!-- n_5_6 -->
<g id="node9" class="node">
<title>n_5_6</title>
<polygon fill="none" stroke="black" points="345.62,-166.38 345.62,-191.62 398.62,-191.62 398.62,-166.38 345.62,-166.38"/>
<text text-anchor="start" x="352.62" y="-177.07" font-family="Times New Roman,serif" font-weight="bold" font-size="9.00">Obesity II</text>
<polygon fill="none" stroke="black" points="398.62,-166.38 398.62,-191.62 454.62,-191.62 454.62,-166.38 398.62,-166.38"/>
<text text-anchor="start" x="405.62" y="-177.07" font-family="Times New Roman,serif" font-weight="bold" font-size="9.00">Obesity III</text>
<polygon fill="none" stroke="black" points="344.62,-165.38 344.62,-192.62 455.62,-192.62 455.62,-165.38 344.62,-165.38"/>
</g>
<!-- n_0_1_4_5_6&#45;&gt;n_5_6 -->
<g id="edge8" class="edge">
<title>n_0_1_4_5_6&#45;&gt;n_5_6</title>
<path fill="none" stroke="black" d="M338.08,-243.13C349.87,-231.13 364.06,-216.7 375.89,-204.66"/>
<polygon fill="black" stroke="black" points="378.07,-207.44 382.58,-197.85 373.08,-202.53 378.07,-207.44"/>
</g>
<!-- n_0_1 -->
<g id="node5" class="node">
<title>n_0_1</title>
<polygon fill="none" stroke="black" points="43,-84.38 43,-109.62 131.25,-109.62 131.25,-84.38 43,-84.38"/>
<text text-anchor="start" x="50" y="-95.08" font-family="Times New Roman,serif" font-weight="bold" font-size="9.00">Insufficient weight</text>
<polygon fill="none" stroke="black" points="131.25,-84.38 131.25,-109.62 175.25,-109.62 175.25,-84.38 131.25,-84.38"/>
<text text-anchor="start" x="138.25" y="-95.08" font-family="Times New Roman,serif" font-weight="bold" font-size="9.00">Normal</text>
<polygon fill="none" stroke="black" points="42,-83.38 42,-110.62 176.25,-110.62 176.25,-83.38 42,-83.38"/>
</g>
<!-- n_0_1_4&#45;&gt;n_0_1 -->
<g id="edge4" class="edge">
<title>n_0_1_4&#45;&gt;n_0_1</title>
<path fill="none" stroke="black" d="M199.15,-158.02C182.28,-146.77 161.15,-132.68 143.6,-120.98"/>
<polygon fill="black" stroke="black" points="145.78,-118.23 135.52,-115.6 141.9,-124.06 145.78,-118.23"/>
</g>
<!-- n_4 -->
<g id="node8" class="node">
<title>n_4</title>
<polygon fill="none" stroke="black" points="222.12,-84.38 222.12,-109.62 272.12,-109.62 272.12,-84.38 222.12,-84.38"/>
<text text-anchor="start" x="229.12" y="-95.08" font-family="Times New Roman,serif" font-weight="bold" font-size="9.00">Obesity I</text>
<polygon fill="none" stroke="black" points="221.12,-83.38 221.12,-110.62 273.12,-110.62 273.12,-83.38 221.12,-83.38"/>
</g>
<!-- n_0_1_4&#45;&gt;n_4 -->
<g id="edge7" class="edge">
<title>n_0_1_4&#45;&gt;n_4</title>
<path fill="none" stroke="black" d="M233.57,-158.22C235.78,-148.44 238.47,-136.46 240.88,-125.77"/>
<polygon fill="black" stroke="black" points="244.22,-126.84 243,-116.32 237.39,-125.31 244.22,-126.84"/>
</g>
<!-- n_0 -->
<g id="node6" class="node">
<title>n_0</title>
<polygon fill="none" stroke="black" points="9,-5.38 9,-30.62 97.25,-30.62 97.25,-5.38 9,-5.38"/>
<text text-anchor="start" x="16" y="-16.07" font-family="Times New Roman,serif" font-weight="bold" font-size="9.00">Insufficient weight</text>
<polygon fill="none" stroke="black" points="8,-4.38 8,-31.62 98.25,-31.62 98.25,-4.38 8,-4.38"/>
</g>
<!-- n_0_1&#45;&gt;n_0 -->
<g id="edge5" class="edge">
<title>n_0_1&#45;&gt;n_0</title>
<path fill="none" stroke="black" d="M96.97,-79.29C89.69,-69.27 80.26,-56.31 72.02,-44.98"/>
<polygon fill="black" stroke="black" points="75.05,-43.19 66.34,-37.17 69.39,-47.31 75.05,-43.19"/>
</g>
<!-- n_1 -->
<g id="node7" class="node">
<title>n_1</title>
<polygon fill="none" stroke="black" points="144.12,-5.38 144.12,-30.62 188.12,-30.62 188.12,-5.38 144.12,-5.38"/>
<text text-anchor="start" x="151.12" y="-16.07" font-family="Times New Roman,serif" font-weight="bold" font-size="9.00">Normal</text>
<polygon fill="none" stroke="black" points="143.12,-4.38 143.12,-31.62 189.12,-31.62 189.12,-4.38 143.12,-4.38"/>
</g>
<!-- n_0_1&#45;&gt;n_1 -->
<g id="edge6" class="edge">
<title>n_0_1&#45;&gt;n_1</title>
<path fill="none" stroke="black" d="M121.49,-79.29C128.91,-69.27 138.5,-56.31 146.89,-44.98"/>
<polygon fill="black" stroke="black" points="149.55,-47.28 152.68,-37.16 143.92,-43.11 149.55,-47.28"/>
</g>
<!-- n_5 -->
<g id="node10" class="node">
<title>n_5</title>
<polygon fill="none" stroke="black" points="355.62,-84.38 355.62,-109.62 408.62,-109.62 408.62,-84.38 355.62,-84.38"/>
<text text-anchor="start" x="362.62" y="-95.08" font-family="Times New Roman,serif" font-weight="bold" font-size="9.00">Obesity II</text>
<polygon fill="none" stroke="black" points="354.62,-83.38 354.62,-110.62 409.62,-110.62 409.62,-83.38 354.62,-83.38"/>
</g>
<!-- n_5_6&#45;&gt;n_5 -->
<g id="edge9" class="edge">
<title>n_5_6&#45;&gt;n_5</title>
<path fill="none" stroke="black" d="M396.31,-161.03C394.02,-150.85 391.05,-137.65 388.42,-125.96"/>
<polygon fill="black" stroke="black" points="391.88,-125.41 386.27,-116.42 385.05,-126.94 391.88,-125.41"/>
</g>
<!-- n_6 -->
<g id="node11" class="node">
<title>n_6</title>
<polygon fill="none" stroke="black" points="456.12,-84.38 456.12,-109.62 512.12,-109.62 512.12,-84.38 456.12,-84.38"/>
<text text-anchor="start" x="463.12" y="-95.08" font-family="Times New Roman,serif" font-weight="bold" font-size="9.00">Obesity III</text>
<polygon fill="none" stroke="black" points="455.12,-83.38 455.12,-110.62 513.12,-110.62 513.12,-83.38 455.12,-83.38"/>
</g>
<!-- n_5_6&#45;&gt;n_6 -->
<g id="edge10" class="edge">
<title>n_5_6&#45;&gt;n_6</title>
<path fill="none" stroke="black" d="M417.94,-161.03C429.63,-149.9 445.12,-135.15 458.17,-122.71"/>
<polygon fill="black" stroke="black" points="460.41,-125.42 465.24,-115.99 455.59,-120.35 460.41,-125.42"/>
</g>
</g>
</svg>
