<?xml version="1.0" encoding="UTF-8" standalone="no"?>
<!DOCTYPE svg PUBLIC "-//W3C//DTD SVG 1.1//EN"
 "http://www.w3.org/Graphics/SVG/1.1/DTD/svg11.dtd">
<!-- Generated by graphviz version 10.0.1 (20240210.2158)
 -->
<!-- Title: ND Pages: 1 -->
<svg width="578pt" height="526pt"
 viewBox="0.00 0.00 578.12 526.00" xmlns="http://www.w3.org/2000/svg" xmlns:xlink="http://www.w3.org/1999/xlink">
<g id="graph0" class="graph" transform="scale(1 1) rotate(0) translate(4 522)">
<title>ND</title>
<polygon fill="white" stroke="none" points="-4,4 -4,-522 574.12,-522 574.12,4 -4,4"/>
<!-- n_0_1_2_3_4_5_6 -->
<g id="node1" class="node">
<title>n_0_1_2_3_4_5_6</title>
<polygon fill="none" stroke="black" points="362.88,-445 362.88,-513 430.88,-513 430.88,-445 362.88,-445"/>
<text text-anchor="start" x="381.88" y="-498.45" font-family="Times New Roman,serif" font-weight="bold" font-size="9.00">Normal</text>
<text text-anchor="start" x="371.38" y="-489.45" font-family="Times New Roman,serif" font-weight="bold" font-size="9.00">Overweight I</text>
<text text-anchor="start" x="369.88" y="-480.45" font-family="Times New Roman,serif" font-weight="bold" font-size="9.00">Overweight II</text>
<text text-anchor="start" x="378.88" y="-471.45" font-family="Times New Roman,serif" font-weight="bold" font-size="9.00">Obesity I</text>
<text text-anchor="start" x="377.38" y="-462.45" font-family="Times New Roman,serif" font-weight="bold" font-size="9.00">Obesity II</text>
<text text-anchor="start" x="375.88" y="-453.45" font-family="Times New Roman,serif" font-weight="bold" font-size="9.00">Obesity III</text>
<polygon fill="none" stroke="black" points="430.88,-445 430.88,-513 519.12,-513 519.12,-445 430.88,-445"/>
<text text-anchor="start" x="437.88" y="-477.07" font-family="Times New Roman,serif" font-weight="bold" font-size="9.00">Insufficient weight</text>
<polygon fill="none" stroke="black" points="361.88,-444 361.88,-514 520.12,-514 520.12,-444 361.88,-444"/>
</g>
<!-- n_1_2_3_4_5_6 -->
<g id="node2" class="node">
<title>n_1_2_3_4_5_6</title>
<polygon fill="none" stroke="black" points="304.5,-342 304.5,-392 372.5,-392 372.5,-342 304.5,-342"/>
<text text-anchor="start" x="323.5" y="-377.45" font-family="Times New Roman,serif" font-weight="bold" font-size="9.00">Normal</text>
<text text-anchor="start" x="313" y="-368.45" font-family="Times New Roman,serif" font-weight="bold" font-size="9.00">Overweight I</text>
<text text-anchor="start" x="311.5" y="-359.45" font-family="Times New Roman,serif" font-weight="bold" font-size="9.00">Overweight II</text>
<text text-anchor="start" x="317.5" y="-350.45" font-family="Times New Roman,serif" font-weight="bold" font-size="9.00">Obesity III</text>
<polygon fill="none" stroke="black" points="372.5,-342 372.5,-392 425.5,-392 425.5,-342 372.5,-342"/>
<text text-anchor="start" x="381" y="-368.45" font-family="Times New Roman,serif" font-weight="bold" font-size="9.00">Obesity I</text>
<text text-anchor="start" x="379.5" y="-359.45" font-family="Times New Roman,serif" font-weight="bold" font-size="9.00">Obesity II</text>
<polygon fill="none" stroke="black" points="303.5,-341 303.5,-393 426.5,-393 426.5,-341 303.5,-341"/>
</g>
<!-- n_0_1_2_3_4_5_6&#45;&gt;n_1_2_3_4_5_6 -->
<g id="edge1" class="edge">
<title>n_0_1_2_3_4_5_6&#45;&gt;n_1_2_3_4_5_6</title>
<path fill="none" stroke="black" d="M414.85,-440.14C407.27,-429.19 399,-417.22 391.42,-406.23"/>
<polygon fill="black" stroke="black" points="394.38,-404.37 385.82,-398.13 388.62,-408.35 394.38,-404.37"/>
</g>
<!-- n_0 -->
<g id="node13" class="node">
<title>n_0</title>
<polygon fill="none" stroke="black" points="472.88,-354.38 472.88,-379.62 561.12,-379.62 561.12,-354.38 472.88,-354.38"/>
<text text-anchor="start" x="479.88" y="-365.07" font-family="Times New Roman,serif" font-weight="bold" font-size="9.00">Insufficient weight</text>
<polygon fill="none" stroke="black" points="471.88,-353.38 471.88,-380.62 562.12,-380.62 562.12,-353.38 471.88,-353.38"/>
</g>
<!-- n_0_1_2_3_4_5_6&#45;&gt;n_0 -->
<g id="edge12" class="edge">
<title>n_0_1_2_3_4_5_6&#45;&gt;n_0</title>
<path fill="none" stroke="black" d="M467.15,-440.14C477.59,-425.04 489.35,-408.02 498.82,-394.31"/>
<polygon fill="black" stroke="black" points="501.6,-396.44 504.41,-386.23 495.84,-392.47 501.6,-396.44"/>
</g>
<!-- n_1_2_3_6 -->
<g id="node3" class="node">
<title>n_1_2_3_6</title>
<polygon fill="none" stroke="black" points="232,-248 232,-289 300,-289 300,-248 232,-248"/>
<text text-anchor="start" x="240.5" y="-274.45" font-family="Times New Roman,serif" font-weight="bold" font-size="9.00">Overweight I</text>
<text text-anchor="start" x="239" y="-265.45" font-family="Times New Roman,serif" font-weight="bold" font-size="9.00">Overweight II</text>
<text text-anchor="start" x="245" y="-256.45" font-family="Times New Roman,serif" font-weight="bold" font-size="9.00">Obesity III</text>
<polygon fill="none" stroke="black" points="300,-248 300,-289 344,-289 344,-248 300,-248"/>
<text text-anchor="start" x="307" y="-266.57" font-family="Times New Roman,serif" font-weight="bold" font-size="9.00">Normal</text>
<polygon fill="none" stroke="black" points="231,-247 231,-290 345,-290 345,-247 231,-247"/>
</g>
<!-- n_1_2_3_4_5_6&#45;&gt;n_1_2_3_6 -->
<g id="edge2" class="edge">
<title>n_1_2_3_4_5_6&#45;&gt;n_1_2_3_6</title>
<path fill="none" stroke="black" d="M341.9,-337.05C333.23,-326.18 323.31,-313.76 314.37,-302.55"/>
<polygon fill="black" stroke="black" points="317.37,-300.69 308.39,-295.06 311.89,-305.06 317.37,-300.69"/>
</g>
<!-- n_4_5 -->
<g id="node10" class="node">
<title>n_4_5</title>
<polygon fill="none" stroke="black" points="391.5,-255.88 391.5,-281.12 441.5,-281.12 441.5,-255.88 391.5,-255.88"/>
<text text-anchor="start" x="398.5" y="-266.57" font-family="Times New Roman,serif" font-weight="bold" font-size="9.00">Obesity I</text>
<polygon fill="none" stroke="black" points="441.5,-255.88 441.5,-281.12 494.5,-281.12 494.5,-255.88 441.5,-255.88"/>
<text text-anchor="start" x="448.5" y="-266.57" font-family="Times New Roman,serif" font-weight="bold" font-size="9.00">Obesity II</text>
<polygon fill="none" stroke="black" points="390.5,-254.88 390.5,-282.12 495.5,-282.12 495.5,-254.88 390.5,-254.88"/>
</g>
<!-- n_1_2_3_4_5_6&#45;&gt;n_4_5 -->
<g id="edge9" class="edge">
<title>n_1_2_3_4_5_6&#45;&gt;n_4_5</title>
<path fill="none" stroke="black" d="M388.4,-337.05C399.16,-323.73 411.82,-308.07 422.24,-295.19"/>
<polygon fill="black" stroke="black" points="424.85,-297.52 428.42,-287.54 419.41,-293.12 424.85,-297.52"/>
</g>
<!-- n_2_3_6 -->
<g id="node4" class="node">
<title>n_2_3_6</title>
<polygon fill="none" stroke="black" points="101.5,-163 101.5,-195 169.5,-195 169.5,-163 101.5,-163"/>
<text text-anchor="start" x="108.5" y="-180.45" font-family="Times New Roman,serif" font-weight="bold" font-size="9.00">Overweight II</text>
<text text-anchor="start" x="114.5" y="-171.45" font-family="Times New Roman,serif" font-weight="bold" font-size="9.00">Obesity III</text>
<polygon fill="none" stroke="black" points="169.5,-163 169.5,-195 234.5,-195 234.5,-163 169.5,-163"/>
<text text-anchor="start" x="176.5" y="-177.07" font-family="Times New Roman,serif" font-weight="bold" font-size="9.00">Overweight I</text>
<polygon fill="none" stroke="black" points="100.5,-162 100.5,-196 235.5,-196 235.5,-162 100.5,-162"/>
</g>
<!-- n_1_2_3_6&#45;&gt;n_2_3_6 -->
<g id="edge3" class="edge">
<title>n_1_2_3_6&#45;&gt;n_2_3_6</title>
<path fill="none" stroke="black" d="M254.57,-243.13C238.92,-231.71 220.24,-218.1 204.25,-206.43"/>
<polygon fill="black" stroke="black" points="206.56,-203.78 196.41,-200.72 202.43,-209.44 206.56,-203.78"/>
</g>
<!-- n_1 -->
<g id="node9" class="node">
<title>n_1</title>
<polygon fill="none" stroke="black" points="282,-166.38 282,-191.62 326,-191.62 326,-166.38 282,-166.38"/>
<text text-anchor="start" x="289" y="-177.07" font-family="Times New Roman,serif" font-weight="bold" font-size="9.00">Normal</text>
<polygon fill="none" stroke="black" points="281,-165.38 281,-192.62 327,-192.62 327,-165.38 281,-165.38"/>
</g>
<!-- n_1_2_3_6&#45;&gt;n_1 -->
<g id="edge8" class="edge">
<title>n_1_2_3_6&#45;&gt;n_1</title>
<path fill="none" stroke="black" d="M292.46,-243.13C294.46,-232.17 296.84,-219.18 298.91,-207.84"/>
<polygon fill="black" stroke="black" points="302.31,-208.73 300.66,-198.26 295.42,-207.47 302.31,-208.73"/>
</g>
<!-- n_3_6 -->
<g id="node5" class="node">
<title>n_3_6</title>
<polygon fill="none" stroke="black" points="35,-84.38 35,-109.62 103,-109.62 103,-84.38 35,-84.38"/>
<text text-anchor="start" x="42" y="-95.08" font-family="Times New Roman,serif" font-weight="bold" font-size="9.00">Overweight II</text>
<polygon fill="none" stroke="black" points="103,-84.38 103,-109.62 159,-109.62 159,-84.38 103,-84.38"/>
<text text-anchor="start" x="110" y="-95.08" font-family="Times New Roman,serif" font-weight="bold" font-size="9.00">Obesity III</text>
<polygon fill="none" stroke="black" points="34,-83.38 34,-110.62 160,-110.62 160,-83.38 34,-83.38"/>
</g>
<!-- n_2_3_6&#45;&gt;n_3_6 -->
<g id="edge4" class="edge">
<title>n_2_3_6&#45;&gt;n_3_6</title>
<path fill="none" stroke="black" d="M150.45,-158.22C141.12,-147.71 129.54,-134.66 119.55,-123.41"/>
<polygon fill="black" stroke="black" points="122.21,-121.13 112.95,-115.98 116.97,-125.78 122.21,-121.13"/>
</g>
<!-- n_2 -->
<g id="node8" class="node">
<title>n_2</title>
<polygon fill="none" stroke="black" points="206.5,-84.38 206.5,-109.62 271.5,-109.62 271.5,-84.38 206.5,-84.38"/>
<text text-anchor="start" x="213.5" y="-95.08" font-family="Times New Roman,serif" font-weight="bold" font-size="9.00">Overweight I</text>
<polygon fill="none" stroke="black" points="205.5,-83.38 205.5,-110.62 272.5,-110.62 272.5,-83.38 205.5,-83.38"/>
</g>
<!-- n_2_3_6&#45;&gt;n_2 -->
<g id="edge7" class="edge">
<title>n_2_3_6&#45;&gt;n_2</title>
<path fill="none" stroke="black" d="M185.55,-158.22C194.88,-147.71 206.46,-134.66 216.45,-123.41"/>
<polygon fill="black" stroke="black" points="219.03,-125.78 223.05,-115.98 213.79,-121.13 219.03,-125.78"/>
</g>
<!-- n_3 -->
<g id="node6" class="node">
<title>n_3</title>
<polygon fill="none" stroke="black" points="9,-5.38 9,-30.62 77,-30.62 77,-5.38 9,-5.38"/>
<text text-anchor="start" x="16" y="-16.07" font-family="Times New Roman,serif" font-weight="bold" font-size="9.00">Overweight II</text>
<polygon fill="none" stroke="black" points="8,-4.38 8,-31.62 78,-31.62 78,-4.38 8,-4.38"/>
</g>
<!-- n_3_6&#45;&gt;n_3 -->
<g id="edge5" class="edge">
<title>n_3_6&#45;&gt;n_3</title>
<path fill="none" stroke="black" d="M85.28,-79.29C78.33,-69.37 69.35,-56.57 61.46,-45.32"/>
<polygon fill="black" stroke="black" points="64.36,-43.36 55.75,-37.18 58.63,-47.38 64.36,-43.36"/>
</g>
<!-- n_6 -->
<g id="node7" class="node">
<title>n_6</title>
<polygon fill="none" stroke="black" points="124,-5.38 124,-30.62 180,-30.62 180,-5.38 124,-5.38"/>
<text text-anchor="start" x="131" y="-16.07" font-family="Times New Roman,serif" font-weight="bold" font-size="9.00">Obesity III</text>
<polygon fill="none" stroke="black" points="123,-4.38 123,-31.62 181,-31.62 181,-4.38 123,-4.38"/>
</g>
<!-- n_3_6&#45;&gt;n_6 -->
<g id="edge6" class="edge">
<title>n_3_6&#45;&gt;n_6</title>
<path fill="none" stroke="black" d="M108.93,-79.29C116.09,-69.27 125.35,-56.31 133.44,-44.98"/>
<polygon fill="black" stroke="black" points="136.06,-47.34 139.02,-37.17 130.36,-43.28 136.06,-47.34"/>
</g>
<!-- n_4 -->
<g id="node11" class="node">
<title>n_4</title>
<polygon fill="none" stroke="black" points="403,-166.38 403,-191.62 453,-191.62 453,-166.38 403,-166.38"/>
<text text-anchor="start" x="410" y="-177.07" font-family="Times New Roman,serif" font-weight="bold" font-size="9.00">Obesity I</text>
<polygon fill="none" stroke="black" points="402,-165.38 402,-192.62 454,-192.62 454,-165.38 402,-165.38"/>
</g>
<!-- n_4_5&#45;&gt;n_4 -->
<g id="edge10" class="edge">
<title>n_4_5&#45;&gt;n_4</title>
<path fill="none" stroke="black" d="M440.11,-250.63C438.03,-238.52 435.19,-221.94 432.78,-207.88"/>
<polygon fill="black" stroke="black" points="436.28,-207.58 431.14,-198.31 429.38,-208.76 436.28,-207.58"/>
</g>
<!-- n_5 -->
<g id="node12" class="node">
<title>n_5</title>
<polygon fill="none" stroke="black" points="500.5,-166.38 500.5,-191.62 553.5,-191.62 553.5,-166.38 500.5,-166.38"/>
<text text-anchor="start" x="507.5" y="-177.07" font-family="Times New Roman,serif" font-weight="bold" font-size="9.00">Obesity II</text>
<polygon fill="none" stroke="black" points="499.5,-165.38 499.5,-192.62 554.5,-192.62 554.5,-165.38 499.5,-165.38"/>
</g>
<!-- n_4_5&#45;&gt;n_5 -->
<g id="edge11" class="edge">
<title>n_4_5&#45;&gt;n_5</title>
<path fill="none" stroke="black" d="M459.2,-250.63C471.63,-237.68 488.99,-219.59 503.03,-204.97"/>
<polygon fill="black" stroke="black" points="505.41,-207.55 509.81,-197.91 500.36,-202.7 505.41,-207.55"/>
</g>
</g>
</svg>
