<?xml version="1.0" encoding="UTF-8" standalone="no"?>
<!DOCTYPE svg PUBLIC "-//W3C//DTD SVG 1.1//EN"
 "http://www.w3.org/Graphics/SVG/1.1/DTD/svg11.dtd">
<!-- Generated by graphviz version 10.0.1 (20240210.2158)
 -->
<!-- Title: ND Pages: 1 -->
<svg width="549pt" height="544pt"
 viewBox="0.00 0.00 549.12 544.00" xmlns="http://www.w3.org/2000/svg" xmlns:xlink="http://www.w3.org/1999/xlink">
<g id="graph0" class="graph" transform="scale(1 1) rotate(0) translate(4 540)">
<title>ND</title>
<polygon fill="white" stroke="none" points="-4,4 -4,-540 545.12,-540 545.12,4 -4,4"/>
<!-- n_0_1_2_3_4_5_6 -->
<g id="node1" class="node">
<title>n_0_1_2_3_4_5_6</title>
<polygon fill="none" stroke="black" points="334.88,-463 334.88,-531 402.88,-531 402.88,-463 334.88,-463"/>
<text text-anchor="start" x="353.88" y="-516.45" font-family="Times New Roman,serif" font-weight="bold" font-size="9.00">Normal</text>
<text text-anchor="start" x="343.38" y="-507.45" font-family="Times New Roman,serif" font-weight="bold" font-size="9.00">Overweight I</text>
<text text-anchor="start" x="341.88" y="-498.45" font-family="Times New Roman,serif" font-weight="bold" font-size="9.00">Overweight II</text>
<text text-anchor="start" x="350.88" y="-489.45" font-family="Times New Roman,serif" font-weight="bold" font-size="9.00">Obesity I</text>
<text text-anchor="start" x="349.38" y="-480.45" font-family="Times New Roman,serif" font-weight="bold" font-size="9.00">Obesity II</text>
<text text-anchor="start" x="347.88" y="-471.45" font-family="Times New Roman,serif" font-weight="bold" font-size="9.00">Obesity III</text>
<polygon fill="none" stroke="black" points="402.88,-463 402.88,-531 491.12,-531 491.12,-463 402.88,-463"/>
<text text-anchor="start" x="409.88" y="-495.07" font-family="Times New Roman,serif" font-weight="bold" font-size="9.00">Insufficient weight</text>
<polygon fill="none" stroke="black" points="333.88,-462 333.88,-532 492.12,-532 492.12,-462 333.88,-462"/>
</g>
<!-- n_1_2_3_4_5_6 -->
<g id="node2" class="node">
<title>n_1_2_3_4_5_6</title>
<polygon fill="none" stroke="black" points="279,-351 279,-410 347,-410 347,-351 279,-351"/>
<text text-anchor="start" x="298" y="-395.45" font-family="Times New Roman,serif" font-weight="bold" font-size="9.00">Normal</text>
<text text-anchor="start" x="287.5" y="-386.45" font-family="Times New Roman,serif" font-weight="bold" font-size="9.00">Overweight I</text>
<text text-anchor="start" x="286" y="-377.45" font-family="Times New Roman,serif" font-weight="bold" font-size="9.00">Overweight II</text>
<text text-anchor="start" x="293.5" y="-368.45" font-family="Times New Roman,serif" font-weight="bold" font-size="9.00">Obesity II</text>
<text text-anchor="start" x="292" y="-359.45" font-family="Times New Roman,serif" font-weight="bold" font-size="9.00">Obesity III</text>
<polygon fill="none" stroke="black" points="347,-351 347,-410 397,-410 397,-351 347,-351"/>
<text text-anchor="start" x="354" y="-378.57" font-family="Times New Roman,serif" font-weight="bold" font-size="9.00">Obesity I</text>
<polygon fill="none" stroke="black" points="278,-350 278,-411 398,-411 398,-350 278,-350"/>
</g>
<!-- n_0_1_2_3_4_5_6&#45;&gt;n_1_2_3_4_5_6 -->
<g id="edge1" class="edge">
<title>n_0_1_2_3_4_5_6&#45;&gt;n_1_2_3_4_5_6</title>
<path fill="none" stroke="black" d="M388.23,-458.19C381.11,-447.31 373.28,-435.36 365.97,-424.21"/>
<polygon fill="black" stroke="black" points="368.95,-422.37 360.54,-415.92 363.1,-426.2 368.95,-422.37"/>
</g>
<!-- n_0 -->
<g id="node13" class="node">
<title>n_0</title>
<polygon fill="none" stroke="black" points="443.88,-367.88 443.88,-393.12 532.12,-393.12 532.12,-367.88 443.88,-367.88"/>
<text text-anchor="start" x="450.88" y="-378.57" font-family="Times New Roman,serif" font-weight="bold" font-size="9.00">Insufficient weight</text>
<polygon fill="none" stroke="black" points="442.88,-366.88 442.88,-394.12 533.12,-394.12 533.12,-366.88 442.88,-366.88"/>
</g>
<!-- n_0_1_2_3_4_5_6&#45;&gt;n_0 -->
<g id="edge12" class="edge">
<title>n_0_1_2_3_4_5_6&#45;&gt;n_0</title>
<path fill="none" stroke="black" d="M437.77,-458.19C448.51,-441.78 460.84,-422.96 470.6,-408.07"/>
<polygon fill="black" stroke="black" points="473.51,-410.01 476.06,-399.73 467.65,-406.18 473.51,-410.01"/>
</g>
<!-- n_1_2_3_5_6 -->
<g id="node3" class="node">
<title>n_1_2_3_5_6</title>
<polygon fill="none" stroke="black" points="202.5,-248 202.5,-298 267.5,-298 267.5,-248 202.5,-248"/>
<text text-anchor="start" x="220" y="-283.45" font-family="Times New Roman,serif" font-weight="bold" font-size="9.00">Normal</text>
<text text-anchor="start" x="209.5" y="-274.45" font-family="Times New Roman,serif" font-weight="bold" font-size="9.00">Overweight I</text>
<text text-anchor="start" x="215.5" y="-265.45" font-family="Times New Roman,serif" font-weight="bold" font-size="9.00">Obesity II</text>
<text text-anchor="start" x="214" y="-256.45" font-family="Times New Roman,serif" font-weight="bold" font-size="9.00">Obesity III</text>
<polygon fill="none" stroke="black" points="267.5,-248 267.5,-298 335.5,-298 335.5,-248 267.5,-248"/>
<text text-anchor="start" x="274.5" y="-271.07" font-family="Times New Roman,serif" font-weight="bold" font-size="9.00">Overweight II</text>
<polygon fill="none" stroke="black" points="201.5,-247 201.5,-299 336.5,-299 336.5,-247 201.5,-247"/>
</g>
<!-- n_1_2_3_4_5_6&#45;&gt;n_1_2_3_5_6 -->
<g id="edge2" class="edge">
<title>n_1_2_3_4_5_6&#45;&gt;n_1_2_3_5_6</title>
<path fill="none" stroke="black" d="M316.17,-346.12C309.14,-335.38 301.31,-323.4 294.07,-312.33"/>
<polygon fill="black" stroke="black" points="297.13,-310.62 288.73,-304.16 291.27,-314.45 297.13,-310.62"/>
</g>
<!-- n_4 -->
<g id="node12" class="node">
<title>n_4</title>
<polygon fill="none" stroke="black" points="383,-260.38 383,-285.62 433,-285.62 433,-260.38 383,-260.38"/>
<text text-anchor="start" x="390" y="-271.07" font-family="Times New Roman,serif" font-weight="bold" font-size="9.00">Obesity I</text>
<polygon fill="none" stroke="black" points="382,-259.38 382,-286.62 434,-286.62 434,-259.38 382,-259.38"/>
</g>
<!-- n_1_2_3_4_5_6&#45;&gt;n_4 -->
<g id="edge11" class="edge">
<title>n_1_2_3_4_5_6&#45;&gt;n_4</title>
<path fill="none" stroke="black" d="M360.15,-346.12C369.95,-331.35 381.31,-314.23 390.5,-300.38"/>
<polygon fill="black" stroke="black" points="393.3,-302.48 395.92,-292.21 387.47,-298.61 393.3,-302.48"/>
</g>
<!-- n_1_2_5_6 -->
<g id="node4" class="node">
<title>n_1_2_5_6</title>
<polygon fill="none" stroke="black" points="137.5,-163 137.5,-195 202.5,-195 202.5,-163 137.5,-163"/>
<text text-anchor="start" x="155" y="-180.45" font-family="Times New Roman,serif" font-weight="bold" font-size="9.00">Normal</text>
<text text-anchor="start" x="144.5" y="-171.45" font-family="Times New Roman,serif" font-weight="bold" font-size="9.00">Overweight I</text>
<polygon fill="none" stroke="black" points="202.5,-163 202.5,-195 258.5,-195 258.5,-163 202.5,-163"/>
<text text-anchor="start" x="211" y="-180.45" font-family="Times New Roman,serif" font-weight="bold" font-size="9.00">Obesity II</text>
<text text-anchor="start" x="209.5" y="-171.45" font-family="Times New Roman,serif" font-weight="bold" font-size="9.00">Obesity III</text>
<polygon fill="none" stroke="black" points="136.5,-162 136.5,-196 259.5,-196 259.5,-162 136.5,-162"/>
</g>
<!-- n_1_2_3_5_6&#45;&gt;n_1_2_5_6 -->
<g id="edge3" class="edge">
<title>n_1_2_3_5_6&#45;&gt;n_1_2_5_6</title>
<path fill="none" stroke="black" d="M246.73,-243.14C238.22,-232.11 228.52,-219.54 220.02,-208.54"/>
<polygon fill="black" stroke="black" points="223.03,-206.71 214.15,-200.93 217.49,-210.98 223.03,-206.71"/>
</g>
<!-- n_3 -->
<g id="node11" class="node">
<title>n_3</title>
<polygon fill="none" stroke="black" points="306,-166.38 306,-191.62 374,-191.62 374,-166.38 306,-166.38"/>
<text text-anchor="start" x="313" y="-177.07" font-family="Times New Roman,serif" font-weight="bold" font-size="9.00">Overweight II</text>
<polygon fill="none" stroke="black" points="305,-165.38 305,-192.62 375,-192.62 375,-165.38 305,-165.38"/>
</g>
<!-- n_1_2_3_5_6&#45;&gt;n_3 -->
<g id="edge10" class="edge">
<title>n_1_2_3_5_6&#45;&gt;n_3</title>
<path fill="none" stroke="black" d="M291.27,-243.14C300.51,-231.17 311.15,-217.38 320.12,-205.76"/>
<polygon fill="black" stroke="black" points="322.64,-208.22 325.98,-198.17 317.1,-203.94 322.64,-208.22"/>
</g>
<!-- n_1_2 -->
<g id="node5" class="node">
<title>n_1_2</title>
<polygon fill="none" stroke="black" points="65.5,-84.38 65.5,-109.62 109.5,-109.62 109.5,-84.38 65.5,-84.38"/>
<text text-anchor="start" x="72.5" y="-95.08" font-family="Times New Roman,serif" font-weight="bold" font-size="9.00">Normal</text>
<polygon fill="none" stroke="black" points="109.5,-84.38 109.5,-109.62 174.5,-109.62 174.5,-84.38 109.5,-84.38"/>
<text text-anchor="start" x="116.5" y="-95.08" font-family="Times New Roman,serif" font-weight="bold" font-size="9.00">Overweight I</text>
<polygon fill="none" stroke="black" points="64.5,-83.38 64.5,-110.62 175.5,-110.62 175.5,-83.38 64.5,-83.38"/>
</g>
<!-- n_1_2_5_6&#45;&gt;n_1_2 -->
<g id="edge4" class="edge">
<title>n_1_2_5_6&#45;&gt;n_1_2</title>
<path fill="none" stroke="black" d="M178.72,-158.22C168.37,-147.61 155.5,-134.41 144.45,-123.07"/>
<polygon fill="black" stroke="black" points="146.97,-120.64 137.48,-115.93 141.95,-125.53 146.97,-120.64"/>
</g>
<!-- n_5_6 -->
<g id="node8" class="node">
<title>n_5_6</title>
<polygon fill="none" stroke="black" points="221.5,-84.38 221.5,-109.62 274.5,-109.62 274.5,-84.38 221.5,-84.38"/>
<text text-anchor="start" x="228.5" y="-95.08" font-family="Times New Roman,serif" font-weight="bold" font-size="9.00">Obesity II</text>
<polygon fill="none" stroke="black" points="274.5,-84.38 274.5,-109.62 330.5,-109.62 330.5,-84.38 274.5,-84.38"/>
<text text-anchor="start" x="281.5" y="-95.08" font-family="Times New Roman,serif" font-weight="bold" font-size="9.00">Obesity III</text>
<polygon fill="none" stroke="black" points="220.5,-83.38 220.5,-110.62 331.5,-110.62 331.5,-83.38 220.5,-83.38"/>
</g>
<!-- n_1_2_5_6&#45;&gt;n_5_6 -->
<g id="edge7" class="edge">
<title>n_1_2_5_6&#45;&gt;n_5_6</title>
<path fill="none" stroke="black" d="M217.28,-158.22C227.63,-147.61 240.5,-134.41 251.55,-123.07"/>
<polygon fill="black" stroke="black" points="254.05,-125.53 258.52,-115.93 249.03,-120.64 254.05,-125.53"/>
</g>
<!-- n_1 -->
<g id="node6" class="node">
<title>n_1</title>
<polygon fill="none" stroke="black" points="9,-5.38 9,-30.62 53,-30.62 53,-5.38 9,-5.38"/>
<text text-anchor="start" x="16" y="-16.07" font-family="Times New Roman,serif" font-weight="bold" font-size="9.00">Normal</text>
<polygon fill="none" stroke="black" points="8,-4.38 8,-31.62 54,-31.62 54,-4.38 8,-4.38"/>
</g>
<!-- n_1_2&#45;&gt;n_1 -->
<g id="edge5" class="edge">
<title>n_1_2&#45;&gt;n_1</title>
<path fill="none" stroke="black" d="M100.69,-79.29C88.53,-68.77 72.62,-55.01 59.08,-43.29"/>
<polygon fill="black" stroke="black" points="61.58,-40.83 51.73,-36.93 57,-46.12 61.58,-40.83"/>
</g>
<!-- n_2 -->
<g id="node7" class="node">
<title>n_2</title>
<polygon fill="none" stroke="black" points="100.5,-5.38 100.5,-30.62 165.5,-30.62 165.5,-5.38 100.5,-5.38"/>
<text text-anchor="start" x="107.5" y="-16.07" font-family="Times New Roman,serif" font-weight="bold" font-size="9.00">Overweight I</text>
<polygon fill="none" stroke="black" points="99.5,-4.38 99.5,-31.62 166.5,-31.62 166.5,-4.38 99.5,-4.38"/>
</g>
<!-- n_1_2&#45;&gt;n_2 -->
<g id="edge6" class="edge">
<title>n_1_2&#45;&gt;n_2</title>
<path fill="none" stroke="black" d="M122.82,-79.29C124.41,-69.87 126.44,-57.86 128.27,-47.04"/>
<polygon fill="black" stroke="black" points="131.67,-47.88 129.89,-37.43 124.77,-46.71 131.67,-47.88"/>
</g>
<!-- n_5 -->
<g id="node9" class="node">
<title>n_5</title>
<polygon fill="none" stroke="black" points="237.5,-5.38 237.5,-30.62 290.5,-30.62 290.5,-5.38 237.5,-5.38"/>
<text text-anchor="start" x="244.5" y="-16.07" font-family="Times New Roman,serif" font-weight="bold" font-size="9.00">Obesity II</text>
<polygon fill="none" stroke="black" points="236.5,-4.38 236.5,-31.62 291.5,-31.62 291.5,-4.38 236.5,-4.38"/>
</g>
<!-- n_5_6&#45;&gt;n_5 -->
<g id="edge8" class="edge">
<title>n_5_6&#45;&gt;n_5</title>
<path fill="none" stroke="black" d="M273.4,-79.29C271.93,-69.87 270.06,-57.86 268.37,-47.04"/>
<polygon fill="black" stroke="black" points="271.87,-46.78 266.87,-37.44 264.95,-47.86 271.87,-46.78"/>
</g>
<!-- n_6 -->
<g id="node10" class="node">
<title>n_6</title>
<polygon fill="none" stroke="black" points="338,-5.38 338,-30.62 394,-30.62 394,-5.38 338,-5.38"/>
<text text-anchor="start" x="345" y="-16.07" font-family="Times New Roman,serif" font-weight="bold" font-size="9.00">Obesity III</text>
<polygon fill="none" stroke="black" points="337,-4.38 337,-31.62 395,-31.62 395,-4.38 337,-4.38"/>
</g>
<!-- n_5_6&#45;&gt;n_6 -->
<g id="edge9" class="edge">
<title>n_5_6&#45;&gt;n_6</title>
<path fill="none" stroke="black" d="M295.53,-79.29C307.83,-68.77 323.91,-55.01 337.61,-43.29"/>
<polygon fill="black" stroke="black" points="339.73,-46.09 345.05,-36.93 335.17,-40.77 339.73,-46.09"/>
</g>
</g>
</svg>
