<?xml version="1.0" encoding="UTF-8" standalone="no"?>
<!DOCTYPE svg PUBLIC "-//W3C//DTD SVG 1.1//EN"
 "http://www.w3.org/Graphics/SVG/1.1/DTD/svg11.dtd">
<!-- Generated by graphviz version 10.0.1 (20240210.2158)
 -->
<!-- Title: ND Pages: 1 -->
<svg width="572pt" height="535pt"
 viewBox="0.00 0.00 572.00 535.00" xmlns="http://www.w3.org/2000/svg" xmlns:xlink="http://www.w3.org/1999/xlink">
<g id="graph0" class="graph" transform="scale(1 1) rotate(0) translate(4 531)">
<title>ND</title>
<polygon fill="white" stroke="none" points="-4,4 -4,-531 568,-531 568,4 -4,4"/>
<!-- n_0_1_2_3_4_5_6 -->
<g id="node1" class="node">
<title>n_0_1_2_3_4_5_6</title>
<polygon fill="none" stroke="black" points="363.88,-454 363.88,-522 452.12,-522 452.12,-454 363.88,-454"/>
<text text-anchor="start" x="370.88" y="-507.45" font-family="Times New Roman,serif" font-weight="bold" font-size="9.00">Insufficient weight</text>
<text text-anchor="start" x="393" y="-498.45" font-family="Times New Roman,serif" font-weight="bold" font-size="9.00">Normal</text>
<text text-anchor="start" x="382.5" y="-489.45" font-family="Times New Roman,serif" font-weight="bold" font-size="9.00">Overweight I</text>
<text text-anchor="start" x="390" y="-480.45" font-family="Times New Roman,serif" font-weight="bold" font-size="9.00">Obesity I</text>
<text text-anchor="start" x="388.5" y="-471.45" font-family="Times New Roman,serif" font-weight="bold" font-size="9.00">Obesity II</text>
<text text-anchor="start" x="387" y="-462.45" font-family="Times New Roman,serif" font-weight="bold" font-size="9.00">Obesity III</text>
<polygon fill="none" stroke="black" points="452.12,-454 452.12,-522 520.12,-522 520.12,-454 452.12,-454"/>
<text text-anchor="start" x="459.12" y="-486.07" font-family="Times New Roman,serif" font-weight="bold" font-size="9.00">Overweight II</text>
<polygon fill="none" stroke="black" points="362.88,-453 362.88,-523 521.12,-523 521.12,-453 362.88,-453"/>
</g>
<!-- n_0_1_2_4_5_6 -->
<g id="node2" class="node">
<title>n_0_1_2_4_5_6</title>
<polygon fill="none" stroke="black" points="286.38,-342 286.38,-401 374.62,-401 374.62,-342 286.38,-342"/>
<text text-anchor="start" x="293.38" y="-386.45" font-family="Times New Roman,serif" font-weight="bold" font-size="9.00">Insufficient weight</text>
<text text-anchor="start" x="315.5" y="-377.45" font-family="Times New Roman,serif" font-weight="bold" font-size="9.00">Normal</text>
<text text-anchor="start" x="312.5" y="-368.45" font-family="Times New Roman,serif" font-weight="bold" font-size="9.00">Obesity I</text>
<text text-anchor="start" x="311" y="-359.45" font-family="Times New Roman,serif" font-weight="bold" font-size="9.00">Obesity II</text>
<text text-anchor="start" x="309.5" y="-350.45" font-family="Times New Roman,serif" font-weight="bold" font-size="9.00">Obesity III</text>
<polygon fill="none" stroke="black" points="374.62,-342 374.62,-401 439.62,-401 439.62,-342 374.62,-342"/>
<text text-anchor="start" x="381.62" y="-369.57" font-family="Times New Roman,serif" font-weight="bold" font-size="9.00">Overweight I</text>
<polygon fill="none" stroke="black" points="285.38,-341 285.38,-402 440.62,-402 440.62,-341 285.38,-341"/>
</g>
<!-- n_0_1_2_3_4_5_6&#45;&gt;n_0_1_2_4_5_6 -->
<g id="edge1" class="edge">
<title>n_0_1_2_3_4_5_6&#45;&gt;n_0_1_2_4_5_6</title>
<path fill="none" stroke="black" d="M415.91,-449.19C408.33,-438.2 400,-426.12 392.23,-414.87"/>
<polygon fill="black" stroke="black" points="395.29,-413.14 386.73,-406.9 389.53,-417.12 395.29,-413.14"/>
</g>
<!-- n_3 -->
<g id="node13" class="node">
<title>n_3</title>
<polygon fill="none" stroke="black" points="487,-358.88 487,-384.12 555,-384.12 555,-358.88 487,-358.88"/>
<text text-anchor="start" x="494" y="-369.57" font-family="Times New Roman,serif" font-weight="bold" font-size="9.00">Overweight II</text>
<polygon fill="none" stroke="black" points="486,-357.88 486,-385.12 556,-385.12 556,-357.88 486,-357.88"/>
</g>
<!-- n_0_1_2_3_4_5_6&#45;&gt;n_3 -->
<g id="edge12" class="edge">
<title>n_0_1_2_3_4_5_6&#45;&gt;n_3</title>
<path fill="none" stroke="black" d="M468.09,-449.19C479.52,-432.63 492.64,-413.6 502.97,-398.64"/>
<polygon fill="black" stroke="black" points="505.64,-400.93 508.44,-390.71 499.88,-396.95 505.64,-400.93"/>
</g>
<!-- n_0_1_4_5_6 -->
<g id="node3" class="node">
<title>n_0_1_4_5_6</title>
<polygon fill="none" stroke="black" points="214.88,-248 214.88,-289 303.12,-289 303.12,-248 214.88,-248"/>
<text text-anchor="start" x="221.88" y="-274.45" font-family="Times New Roman,serif" font-weight="bold" font-size="9.00">Insufficient weight</text>
<text text-anchor="start" x="244" y="-265.45" font-family="Times New Roman,serif" font-weight="bold" font-size="9.00">Normal</text>
<text text-anchor="start" x="241" y="-256.45" font-family="Times New Roman,serif" font-weight="bold" font-size="9.00">Obesity I</text>
<polygon fill="none" stroke="black" points="303.12,-248 303.12,-289 359.12,-289 359.12,-248 303.12,-248"/>
<text text-anchor="start" x="311.62" y="-269.95" font-family="Times New Roman,serif" font-weight="bold" font-size="9.00">Obesity II</text>
<text text-anchor="start" x="310.12" y="-260.95" font-family="Times New Roman,serif" font-weight="bold" font-size="9.00">Obesity III</text>
<polygon fill="none" stroke="black" points="213.88,-247 213.88,-290 360.12,-290 360.12,-247 213.88,-247"/>
</g>
<!-- n_0_1_2_4_5_6&#45;&gt;n_0_1_4_5_6 -->
<g id="edge2" class="edge">
<title>n_0_1_2_4_5_6&#45;&gt;n_0_1_4_5_6</title>
<path fill="none" stroke="black" d="M337.9,-337.15C329.59,-326.11 320.35,-313.82 312.05,-302.78"/>
<polygon fill="black" stroke="black" points="315.05,-300.96 306.24,-295.07 309.46,-305.16 315.05,-300.96"/>
</g>
<!-- n_2 -->
<g id="node12" class="node">
<title>n_2</title>
<polygon fill="none" stroke="black" points="406.5,-255.88 406.5,-281.12 471.5,-281.12 471.5,-255.88 406.5,-255.88"/>
<text text-anchor="start" x="413.5" y="-266.57" font-family="Times New Roman,serif" font-weight="bold" font-size="9.00">Overweight I</text>
<polygon fill="none" stroke="black" points="405.5,-254.88 405.5,-282.12 472.5,-282.12 472.5,-254.88 405.5,-254.88"/>
</g>
<!-- n_0_1_2_4_5_6&#45;&gt;n_2 -->
<g id="edge11" class="edge">
<title>n_0_1_2_4_5_6&#45;&gt;n_2</title>
<path fill="none" stroke="black" d="M388.1,-337.15C398.29,-323.6 409.9,-308.17 419.45,-295.48"/>
<polygon fill="black" stroke="black" points="422.17,-297.68 425.39,-287.59 416.58,-293.48 422.17,-297.68"/>
</g>
<!-- n_0_1_4 -->
<g id="node4" class="node">
<title>n_0_1_4</title>
<polygon fill="none" stroke="black" points="132.88,-163 132.88,-195 182.88,-195 182.88,-163 132.88,-163"/>
<text text-anchor="start" x="142.88" y="-180.45" font-family="Times New Roman,serif" font-weight="bold" font-size="9.00">Normal</text>
<text text-anchor="start" x="139.88" y="-171.45" font-family="Times New Roman,serif" font-weight="bold" font-size="9.00">Obesity I</text>
<polygon fill="none" stroke="black" points="182.88,-163 182.88,-195 271.12,-195 271.12,-163 182.88,-163"/>
<text text-anchor="start" x="189.88" y="-177.07" font-family="Times New Roman,serif" font-weight="bold" font-size="9.00">Insufficient weight</text>
<polygon fill="none" stroke="black" points="131.88,-162 131.88,-196 272.12,-196 272.12,-162 131.88,-162"/>
</g>
<!-- n_0_1_4_5_6&#45;&gt;n_0_1_4 -->
<g id="edge3" class="edge">
<title>n_0_1_4_5_6&#45;&gt;n_0_1_4</title>
<path fill="none" stroke="black" d="M263.32,-243.13C252.75,-232.25 240.24,-219.36 229.28,-208.08"/>
<polygon fill="black" stroke="black" points="231.79,-205.65 222.31,-200.91 226.77,-210.52 231.79,-205.65"/>
</g>
<!-- n_5_6 -->
<g id="node9" class="node">
<title>n_5_6</title>
<polygon fill="none" stroke="black" points="318.5,-166.38 318.5,-191.62 371.5,-191.62 371.5,-166.38 318.5,-166.38"/>
<text text-anchor="start" x="325.5" y="-177.07" font-family="Times New Roman,serif" font-weight="bold" font-size="9.00">Obesity II</text>
<polygon fill="none" stroke="black" points="371.5,-166.38 371.5,-191.62 427.5,-191.62 427.5,-166.38 371.5,-166.38"/>
<text text-anchor="start" x="378.5" y="-177.07" font-family="Times New Roman,serif" font-weight="bold" font-size="9.00">Obesity III</text>
<polygon fill="none" stroke="black" points="317.5,-165.38 317.5,-192.62 428.5,-192.62 428.5,-165.38 317.5,-165.38"/>
</g>
<!-- n_0_1_4_5_6&#45;&gt;n_5_6 -->
<g id="edge8" class="edge">
<title>n_0_1_4_5_6&#45;&gt;n_5_6</title>
<path fill="none" stroke="black" d="M310.96,-243.13C322.75,-231.13 336.93,-216.7 348.76,-204.66"/>
<polygon fill="black" stroke="black" points="350.94,-207.44 355.46,-197.85 345.95,-202.53 350.94,-207.44"/>
</g>
<!-- n_1_4 -->
<g id="node5" class="node">
<title>n_1_4</title>
<polygon fill="none" stroke="black" points="31,-84.38 31,-109.62 75,-109.62 75,-84.38 31,-84.38"/>
<text text-anchor="start" x="38" y="-95.08" font-family="Times New Roman,serif" font-weight="bold" font-size="9.00">Normal</text>
<polygon fill="none" stroke="black" points="75,-84.38 75,-109.62 125,-109.62 125,-84.38 75,-84.38"/>
<text text-anchor="start" x="82" y="-95.08" font-family="Times New Roman,serif" font-weight="bold" font-size="9.00">Obesity I</text>
<polygon fill="none" stroke="black" points="30,-83.38 30,-110.62 126,-110.62 126,-83.38 30,-83.38"/>
</g>
<!-- n_0_1_4&#45;&gt;n_1_4 -->
<g id="edge4" class="edge">
<title>n_0_1_4&#45;&gt;n_1_4</title>
<path fill="none" stroke="black" d="M171.03,-158.02C153.6,-146.77 131.76,-132.68 113.62,-120.98"/>
<polygon fill="black" stroke="black" points="115.55,-118.06 105.25,-115.58 111.75,-123.94 115.55,-118.06"/>
</g>
<!-- n_0 -->
<g id="node8" class="node">
<title>n_0</title>
<polygon fill="none" stroke="black" points="171.88,-84.38 171.88,-109.62 260.12,-109.62 260.12,-84.38 171.88,-84.38"/>
<text text-anchor="start" x="178.88" y="-95.08" font-family="Times New Roman,serif" font-weight="bold" font-size="9.00">Insufficient weight</text>
<polygon fill="none" stroke="black" points="170.88,-83.38 170.88,-110.62 261.12,-110.62 261.12,-83.38 170.88,-83.38"/>
</g>
<!-- n_0_1_4&#45;&gt;n_0 -->
<g id="edge7" class="edge">
<title>n_0_1_4&#45;&gt;n_0</title>
<path fill="none" stroke="black" d="M205.46,-158.22C207.16,-148.54 209.22,-136.72 211.08,-126.11"/>
<polygon fill="black" stroke="black" points="214.52,-126.79 212.79,-116.33 207.62,-125.58 214.52,-126.79"/>
</g>
<!-- n_1 -->
<g id="node6" class="node">
<title>n_1</title>
<polygon fill="none" stroke="black" points="9,-5.38 9,-30.62 53,-30.62 53,-5.38 9,-5.38"/>
<text text-anchor="start" x="16" y="-16.07" font-family="Times New Roman,serif" font-weight="bold" font-size="9.00">Normal</text>
<polygon fill="none" stroke="black" points="8,-4.38 8,-31.62 54,-31.62 54,-4.38 8,-4.38"/>
</g>
<!-- n_1_4&#45;&gt;n_1 -->
<g id="edge5" class="edge">
<title>n_1_4&#45;&gt;n_1</title>
<path fill="none" stroke="black" d="M67.8,-79.29C61.81,-69.47 54.09,-56.83 47.27,-45.66"/>
<polygon fill="black" stroke="black" points="50.33,-43.95 42.13,-37.23 44.35,-47.59 50.33,-43.95"/>
</g>
<!-- n_4 -->
<g id="node7" class="node">
<title>n_4</title>
<polygon fill="none" stroke="black" points="100,-5.38 100,-30.62 150,-30.62 150,-5.38 100,-5.38"/>
<text text-anchor="start" x="107" y="-16.07" font-family="Times New Roman,serif" font-weight="bold" font-size="9.00">Obesity I</text>
<polygon fill="none" stroke="black" points="99,-4.38 99,-31.62 151,-31.62 151,-4.38 99,-4.38"/>
</g>
<!-- n_1_4&#45;&gt;n_4 -->
<g id="edge6" class="edge">
<title>n_1_4&#45;&gt;n_4</title>
<path fill="none" stroke="black" d="M88.2,-79.29C94.19,-69.47 101.91,-56.83 108.73,-45.66"/>
<polygon fill="black" stroke="black" points="111.65,-47.59 113.87,-37.23 105.67,-43.95 111.65,-47.59"/>
</g>
<!-- n_5 -->
<g id="node10" class="node">
<title>n_5</title>
<polygon fill="none" stroke="black" points="333.5,-84.38 333.5,-109.62 386.5,-109.62 386.5,-84.38 333.5,-84.38"/>
<text text-anchor="start" x="340.5" y="-95.08" font-family="Times New Roman,serif" font-weight="bold" font-size="9.00">Obesity II</text>
<polygon fill="none" stroke="black" points="332.5,-83.38 332.5,-110.62 387.5,-110.62 387.5,-83.38 332.5,-83.38"/>
</g>
<!-- n_5_6&#45;&gt;n_5 -->
<g id="edge9" class="edge">
<title>n_5_6&#45;&gt;n_5</title>
<path fill="none" stroke="black" d="M370.24,-161.03C368.59,-150.85 366.44,-137.65 364.54,-125.96"/>
<polygon fill="black" stroke="black" points="368.05,-125.74 363,-116.44 361.15,-126.87 368.05,-125.74"/>
</g>
<!-- n_6 -->
<g id="node11" class="node">
<title>n_6</title>
<polygon fill="none" stroke="black" points="434,-84.38 434,-109.62 490,-109.62 490,-84.38 434,-84.38"/>
<text text-anchor="start" x="441" y="-95.08" font-family="Times New Roman,serif" font-weight="bold" font-size="9.00">Obesity III</text>
<polygon fill="none" stroke="black" points="433,-83.38 433,-110.62 491,-110.62 491,-83.38 433,-83.38"/>
</g>
<!-- n_5_6&#45;&gt;n_6 -->
<g id="edge10" class="edge">
<title>n_5_6&#45;&gt;n_6</title>
<path fill="none" stroke="black" d="M391.87,-161.03C404.38,-149.79 420.99,-134.87 434.9,-122.36"/>
<polygon fill="black" stroke="black" points="436.93,-125.24 442.03,-115.95 432.25,-120.04 436.93,-125.24"/>
</g>
</g>
</svg>
