<?xml version="1.0" encoding="UTF-8" standalone="no"?>
<!DOCTYPE svg PUBLIC "-//W3C//DTD SVG 1.1//EN"
 "http://www.w3.org/Graphics/SVG/1.1/DTD/svg11.dtd">
<!-- Generated by graphviz version 10.0.1 (20240210.2158)
 -->
<!-- Title: ND Pages: 1 -->
<svg width="578pt" height="535pt"
 viewBox="0.00 0.00 577.50 535.00" xmlns="http://www.w3.org/2000/svg" xmlns:xlink="http://www.w3.org/1999/xlink">
<g id="graph0" class="graph" transform="scale(1 1) rotate(0) translate(4 531)">
<title>ND</title>
<polygon fill="white" stroke="none" points="-4,4 -4,-531 573.5,-531 573.5,4 -4,4"/>
<!-- n_0_1_2_3_4_5_6 -->
<g id="node1" class="node">
<title>n_0_1_2_3_4_5_6</title>
<polygon fill="none" stroke="black" points="374.38,-454 374.38,-522 462.62,-522 462.62,-454 374.38,-454"/>
<text text-anchor="start" x="381.38" y="-507.45" font-family="Times New Roman,serif" font-weight="bold" font-size="9.00">Insufficient weight</text>
<text text-anchor="start" x="403.5" y="-498.45" font-family="Times New Roman,serif" font-weight="bold" font-size="9.00">Normal</text>
<text text-anchor="start" x="393" y="-489.45" font-family="Times New Roman,serif" font-weight="bold" font-size="9.00">Overweight I</text>
<text text-anchor="start" x="400.5" y="-480.45" font-family="Times New Roman,serif" font-weight="bold" font-size="9.00">Obesity I</text>
<text text-anchor="start" x="399" y="-471.45" font-family="Times New Roman,serif" font-weight="bold" font-size="9.00">Obesity II</text>
<text text-anchor="start" x="397.5" y="-462.45" font-family="Times New Roman,serif" font-weight="bold" font-size="9.00">Obesity III</text>
<polygon fill="none" stroke="black" points="462.62,-454 462.62,-522 530.62,-522 530.62,-454 462.62,-454"/>
<text text-anchor="start" x="469.62" y="-486.07" font-family="Times New Roman,serif" font-weight="bold" font-size="9.00">Overweight II</text>
<polygon fill="none" stroke="black" points="373.38,-453 373.38,-523 531.62,-523 531.62,-453 373.38,-453"/>
</g>
<!-- n_0_1_2_4_5_6 -->
<g id="node2" class="node">
<title>n_0_1_2_4_5_6</title>
<polygon fill="none" stroke="black" points="313.38,-342 313.38,-401 401.62,-401 401.62,-342 313.38,-342"/>
<text text-anchor="start" x="320.38" y="-386.45" font-family="Times New Roman,serif" font-weight="bold" font-size="9.00">Insufficient weight</text>
<text text-anchor="start" x="332" y="-377.45" font-family="Times New Roman,serif" font-weight="bold" font-size="9.00">Overweight I</text>
<text text-anchor="start" x="339.5" y="-368.45" font-family="Times New Roman,serif" font-weight="bold" font-size="9.00">Obesity I</text>
<text text-anchor="start" x="338" y="-359.45" font-family="Times New Roman,serif" font-weight="bold" font-size="9.00">Obesity II</text>
<text text-anchor="start" x="336.5" y="-350.45" font-family="Times New Roman,serif" font-weight="bold" font-size="9.00">Obesity III</text>
<polygon fill="none" stroke="black" points="401.62,-342 401.62,-401 445.62,-401 445.62,-342 401.62,-342"/>
<text text-anchor="start" x="408.62" y="-369.57" font-family="Times New Roman,serif" font-weight="bold" font-size="9.00">Normal</text>
<polygon fill="none" stroke="black" points="312.38,-341 312.38,-402 446.62,-402 446.62,-341 312.38,-341"/>
</g>
<!-- n_0_1_2_3_4_5_6&#45;&gt;n_0_1_2_4_5_6 -->
<g id="edge1" class="edge">
<title>n_0_1_2_3_4_5_6&#45;&gt;n_0_1_2_4_5_6</title>
<path fill="none" stroke="black" d="M428.39,-449.19C421.46,-438.31 413.84,-426.36 406.73,-415.21"/>
<polygon fill="black" stroke="black" points="409.78,-413.48 401.45,-406.93 403.87,-417.24 409.78,-413.48"/>
</g>
<!-- n_3 -->
<g id="node13" class="node">
<title>n_3</title>
<polygon fill="none" stroke="black" points="492.5,-358.88 492.5,-384.12 560.5,-384.12 560.5,-358.88 492.5,-358.88"/>
<text text-anchor="start" x="499.5" y="-369.57" font-family="Times New Roman,serif" font-weight="bold" font-size="9.00">Overweight II</text>
<polygon fill="none" stroke="black" points="491.5,-357.88 491.5,-385.12 561.5,-385.12 561.5,-357.88 491.5,-357.88"/>
</g>
<!-- n_0_1_2_3_4_5_6&#45;&gt;n_3 -->
<g id="edge12" class="edge">
<title>n_0_1_2_3_4_5_6&#45;&gt;n_3</title>
<path fill="none" stroke="black" d="M476.94,-449.19C487.54,-432.78 499.7,-413.96 509.33,-399.07"/>
<polygon fill="black" stroke="black" points="512.23,-401.03 514.72,-390.73 506.35,-397.23 512.23,-401.03"/>
</g>
<!-- n_0_2_4_5_6 -->
<g id="node3" class="node">
<title>n_0_2_4_5_6</title>
<polygon fill="none" stroke="black" points="229.88,-248 229.88,-289 318.12,-289 318.12,-248 229.88,-248"/>
<text text-anchor="start" x="236.88" y="-274.45" font-family="Times New Roman,serif" font-weight="bold" font-size="9.00">Insufficient weight</text>
<text text-anchor="start" x="254.5" y="-265.45" font-family="Times New Roman,serif" font-weight="bold" font-size="9.00">Obesity II</text>
<text text-anchor="start" x="253" y="-256.45" font-family="Times New Roman,serif" font-weight="bold" font-size="9.00">Obesity III</text>
<polygon fill="none" stroke="black" points="318.12,-248 318.12,-289 383.12,-289 383.12,-248 318.12,-248"/>
<text text-anchor="start" x="325.12" y="-269.95" font-family="Times New Roman,serif" font-weight="bold" font-size="9.00">Overweight I</text>
<text text-anchor="start" x="332.62" y="-260.95" font-family="Times New Roman,serif" font-weight="bold" font-size="9.00">Obesity I</text>
<polygon fill="none" stroke="black" points="228.88,-247 228.88,-290 384.12,-290 384.12,-247 228.88,-247"/>
</g>
<!-- n_0_1_2_4_5_6&#45;&gt;n_0_2_4_5_6 -->
<g id="edge2" class="edge">
<title>n_0_1_2_4_5_6&#45;&gt;n_0_2_4_5_6</title>
<path fill="none" stroke="black" d="M355.39,-337.15C347.49,-326.22 338.71,-314.07 330.8,-303.12"/>
<polygon fill="black" stroke="black" points="333.69,-301.14 324.99,-295.09 328.01,-305.24 333.69,-301.14"/>
</g>
<!-- n_1 -->
<g id="node12" class="node">
<title>n_1</title>
<polygon fill="none" stroke="black" points="430.5,-255.88 430.5,-281.12 474.5,-281.12 474.5,-255.88 430.5,-255.88"/>
<text text-anchor="start" x="437.5" y="-266.57" font-family="Times New Roman,serif" font-weight="bold" font-size="9.00">Normal</text>
<polygon fill="none" stroke="black" points="429.5,-254.88 429.5,-282.12 475.5,-282.12 475.5,-254.88 429.5,-254.88"/>
</g>
<!-- n_0_1_2_4_5_6&#45;&gt;n_1 -->
<g id="edge11" class="edge">
<title>n_0_1_2_4_5_6&#45;&gt;n_1</title>
<path fill="none" stroke="black" d="M403.61,-337.15C413.4,-323.6 424.55,-308.17 433.72,-295.48"/>
<polygon fill="black" stroke="black" points="436.39,-297.76 439.41,-287.61 430.72,-293.66 436.39,-297.76"/>
</g>
<!-- n_0_5_6 -->
<g id="node4" class="node">
<title>n_0_5_6</title>
<polygon fill="none" stroke="black" points="146.38,-163 146.38,-195 202.38,-195 202.38,-163 146.38,-163"/>
<text text-anchor="start" x="154.88" y="-180.45" font-family="Times New Roman,serif" font-weight="bold" font-size="9.00">Obesity II</text>
<text text-anchor="start" x="153.38" y="-171.45" font-family="Times New Roman,serif" font-weight="bold" font-size="9.00">Obesity III</text>
<polygon fill="none" stroke="black" points="202.38,-163 202.38,-195 290.62,-195 290.62,-163 202.38,-163"/>
<text text-anchor="start" x="209.38" y="-177.07" font-family="Times New Roman,serif" font-weight="bold" font-size="9.00">Insufficient weight</text>
<polygon fill="none" stroke="black" points="145.38,-162 145.38,-196 291.62,-196 291.62,-162 145.38,-162"/>
</g>
<!-- n_0_2_4_5_6&#45;&gt;n_0_5_6 -->
<g id="edge3" class="edge">
<title>n_0_2_4_5_6&#45;&gt;n_0_5_6</title>
<path fill="none" stroke="black" d="M281.99,-243.13C270.94,-232.14 257.83,-219.11 246.41,-207.75"/>
<polygon fill="black" stroke="black" points="249.07,-205.46 239.51,-200.89 244.14,-210.43 249.07,-205.46"/>
</g>
<!-- n_2_4 -->
<g id="node9" class="node">
<title>n_2_4</title>
<polygon fill="none" stroke="black" points="338,-166.38 338,-191.62 403,-191.62 403,-166.38 338,-166.38"/>
<text text-anchor="start" x="345" y="-177.07" font-family="Times New Roman,serif" font-weight="bold" font-size="9.00">Overweight I</text>
<polygon fill="none" stroke="black" points="403,-166.38 403,-191.62 453,-191.62 453,-166.38 403,-166.38"/>
<text text-anchor="start" x="410" y="-177.07" font-family="Times New Roman,serif" font-weight="bold" font-size="9.00">Obesity I</text>
<polygon fill="none" stroke="black" points="337,-165.38 337,-192.62 454,-192.62 454,-165.38 337,-165.38"/>
</g>
<!-- n_0_2_4_5_6&#45;&gt;n_2_4 -->
<g id="edge8" class="edge">
<title>n_0_2_4_5_6&#45;&gt;n_2_4</title>
<path fill="none" stroke="black" d="M331.29,-243.13C343.49,-231.13 358.17,-216.7 370.42,-204.66"/>
<polygon fill="black" stroke="black" points="372.69,-207.34 377.36,-197.83 367.78,-202.35 372.69,-207.34"/>
</g>
<!-- n_5_6 -->
<g id="node5" class="node">
<title>n_5_6</title>
<polygon fill="none" stroke="black" points="32,-84.38 32,-109.62 85,-109.62 85,-84.38 32,-84.38"/>
<text text-anchor="start" x="39" y="-95.08" font-family="Times New Roman,serif" font-weight="bold" font-size="9.00">Obesity II</text>
<polygon fill="none" stroke="black" points="85,-84.38 85,-109.62 141,-109.62 141,-84.38 85,-84.38"/>
<text text-anchor="start" x="92" y="-95.08" font-family="Times New Roman,serif" font-weight="bold" font-size="9.00">Obesity III</text>
<polygon fill="none" stroke="black" points="31,-83.38 31,-110.62 142,-110.62 142,-83.38 31,-83.38"/>
</g>
<!-- n_0_5_6&#45;&gt;n_5_6 -->
<g id="edge4" class="edge">
<title>n_0_5_6&#45;&gt;n_5_6</title>
<path fill="none" stroke="black" d="M185.53,-158.02C166.8,-146.67 143.29,-132.42 123.88,-120.66"/>
<polygon fill="black" stroke="black" points="125.81,-117.73 115.45,-115.54 122.18,-123.72 125.81,-117.73"/>
</g>
<!-- n_0 -->
<g id="node8" class="node">
<title>n_0</title>
<polygon fill="none" stroke="black" points="188.38,-84.38 188.38,-109.62 276.62,-109.62 276.62,-84.38 188.38,-84.38"/>
<text text-anchor="start" x="195.38" y="-95.08" font-family="Times New Roman,serif" font-weight="bold" font-size="9.00">Insufficient weight</text>
<polygon fill="none" stroke="black" points="187.38,-83.38 187.38,-110.62 277.62,-110.62 277.62,-83.38 187.38,-83.38"/>
</g>
<!-- n_0_5_6&#45;&gt;n_0 -->
<g id="edge7" class="edge">
<title>n_0_5_6&#45;&gt;n_0</title>
<path fill="none" stroke="black" d="M221.96,-158.22C223.66,-148.54 225.72,-136.72 227.58,-126.11"/>
<polygon fill="black" stroke="black" points="231.02,-126.79 229.29,-116.33 224.12,-125.58 231.02,-126.79"/>
</g>
<!-- n_5 -->
<g id="node6" class="node">
<title>n_5</title>
<polygon fill="none" stroke="black" points="9,-5.38 9,-30.62 62,-30.62 62,-5.38 9,-5.38"/>
<text text-anchor="start" x="16" y="-16.07" font-family="Times New Roman,serif" font-weight="bold" font-size="9.00">Obesity II</text>
<polygon fill="none" stroke="black" points="8,-4.38 8,-31.62 63,-31.62 63,-4.38 8,-4.38"/>
</g>
<!-- n_5_6&#45;&gt;n_5 -->
<g id="edge5" class="edge">
<title>n_5_6&#45;&gt;n_5</title>
<path fill="none" stroke="black" d="M75.43,-79.29C68.86,-69.37 60.39,-56.57 52.93,-45.32"/>
<polygon fill="black" stroke="black" points="56,-43.61 47.56,-37.2 50.16,-47.47 56,-43.61"/>
</g>
<!-- n_6 -->
<g id="node7" class="node">
<title>n_6</title>
<polygon fill="none" stroke="black" points="109.5,-5.38 109.5,-30.62 165.5,-30.62 165.5,-5.38 109.5,-5.38"/>
<text text-anchor="start" x="116.5" y="-16.07" font-family="Times New Roman,serif" font-weight="bold" font-size="9.00">Obesity III</text>
<polygon fill="none" stroke="black" points="108.5,-4.38 108.5,-31.62 166.5,-31.62 166.5,-4.38 108.5,-4.38"/>
</g>
<!-- n_5_6&#45;&gt;n_6 -->
<g id="edge6" class="edge">
<title>n_5_6&#45;&gt;n_6</title>
<path fill="none" stroke="black" d="M97.57,-79.29C104.14,-69.37 112.61,-56.57 120.07,-45.32"/>
<polygon fill="black" stroke="black" points="122.84,-47.47 125.44,-37.2 117,-43.61 122.84,-47.47"/>
</g>
<!-- n_2 -->
<g id="node10" class="node">
<title>n_2</title>
<polygon fill="none" stroke="black" points="350,-84.38 350,-109.62 415,-109.62 415,-84.38 350,-84.38"/>
<text text-anchor="start" x="357" y="-95.08" font-family="Times New Roman,serif" font-weight="bold" font-size="9.00">Overweight I</text>
<polygon fill="none" stroke="black" points="349,-83.38 349,-110.62 416,-110.62 416,-83.38 349,-83.38"/>
</g>
<!-- n_2_4&#45;&gt;n_2 -->
<g id="edge9" class="edge">
<title>n_2_4&#45;&gt;n_2</title>
<path fill="none" stroke="black" d="M392.74,-161.03C391.09,-150.85 388.94,-137.65 387.04,-125.96"/>
<polygon fill="black" stroke="black" points="390.55,-125.74 385.5,-116.44 383.65,-126.87 390.55,-125.74"/>
</g>
<!-- n_4 -->
<g id="node11" class="node">
<title>n_4</title>
<polygon fill="none" stroke="black" points="462.5,-84.38 462.5,-109.62 512.5,-109.62 512.5,-84.38 462.5,-84.38"/>
<text text-anchor="start" x="469.5" y="-95.08" font-family="Times New Roman,serif" font-weight="bold" font-size="9.00">Obesity I</text>
<polygon fill="none" stroke="black" points="461.5,-83.38 461.5,-110.62 513.5,-110.62 513.5,-83.38 461.5,-83.38"/>
</g>
<!-- n_2_4&#45;&gt;n_4 -->
<g id="edge10" class="edge">
<title>n_2_4&#45;&gt;n_4</title>
<path fill="none" stroke="black" d="M415.01,-161.03C427.94,-149.79 445.1,-134.87 459.49,-122.36"/>
<polygon fill="black" stroke="black" points="461.63,-125.14 466.88,-115.93 457.03,-119.86 461.63,-125.14"/>
</g>
</g>
</svg>
