<?xml version="1.0" encoding="UTF-8" standalone="no"?>
<!DOCTYPE svg PUBLIC "-//W3C//DTD SVG 1.1//EN"
 "http://www.w3.org/Graphics/SVG/1.1/DTD/svg11.dtd">
<!-- Generated by graphviz version 10.0.1 (20240210.2158)
 -->
<!-- Title: ND Pages: 1 -->
<svg width="618pt" height="526pt"
 viewBox="0.00 0.00 618.12 526.00" xmlns="http://www.w3.org/2000/svg" xmlns:xlink="http://www.w3.org/1999/xlink">
<g id="graph0" class="graph" transform="scale(1 1) rotate(0) translate(4 522)">
<title>ND</title>
<polygon fill="white" stroke="none" points="-4,4 -4,-522 614.12,-522 614.12,4 -4,4"/>
<!-- n_0_1_2_3_4_5_6 -->
<g id="node1" class="node">
<title>n_0_1_2_3_4_5_6</title>
<polygon fill="none" stroke="black" points="413.5,-445 413.5,-513 501.75,-513 501.75,-445 413.5,-445"/>
<text text-anchor="start" x="420.5" y="-498.45" font-family="Times New Roman,serif" font-weight="bold" font-size="9.00">Insufficient weight</text>
<text text-anchor="start" x="442.62" y="-489.45" font-family="Times New Roman,serif" font-weight="bold" font-size="9.00">Normal</text>
<text text-anchor="start" x="432.12" y="-480.45" font-family="Times New Roman,serif" font-weight="bold" font-size="9.00">Overweight I</text>
<text text-anchor="start" x="430.62" y="-471.45" font-family="Times New Roman,serif" font-weight="bold" font-size="9.00">Overweight II</text>
<text text-anchor="start" x="439.62" y="-462.45" font-family="Times New Roman,serif" font-weight="bold" font-size="9.00">Obesity I</text>
<text text-anchor="start" x="436.62" y="-453.45" font-family="Times New Roman,serif" font-weight="bold" font-size="9.00">Obesity III</text>
<polygon fill="none" stroke="black" points="501.75,-445 501.75,-513 554.75,-513 554.75,-445 501.75,-445"/>
<text text-anchor="start" x="508.75" y="-477.07" font-family="Times New Roman,serif" font-weight="bold" font-size="9.00">Obesity II</text>
<polygon fill="none" stroke="black" points="412.5,-444 412.5,-514 555.75,-514 555.75,-444 412.5,-444"/>
</g>
<!-- n_0_1_2_3_4_6 -->
<g id="node2" class="node">
<title>n_0_1_2_3_4_6</title>
<polygon fill="none" stroke="black" points="344,-342 344,-392 432.25,-392 432.25,-342 344,-342"/>
<text text-anchor="start" x="351" y="-377.45" font-family="Times New Roman,serif" font-weight="bold" font-size="9.00">Insufficient weight</text>
<text text-anchor="start" x="362.62" y="-368.45" font-family="Times New Roman,serif" font-weight="bold" font-size="9.00">Overweight I</text>
<text text-anchor="start" x="361.12" y="-359.45" font-family="Times New Roman,serif" font-weight="bold" font-size="9.00">Overweight II</text>
<text text-anchor="start" x="367.12" y="-350.45" font-family="Times New Roman,serif" font-weight="bold" font-size="9.00">Obesity III</text>
<polygon fill="none" stroke="black" points="432.25,-342 432.25,-392 482.25,-392 482.25,-342 432.25,-342"/>
<text text-anchor="start" x="442.25" y="-368.45" font-family="Times New Roman,serif" font-weight="bold" font-size="9.00">Normal</text>
<text text-anchor="start" x="439.25" y="-359.45" font-family="Times New Roman,serif" font-weight="bold" font-size="9.00">Obesity I</text>
<polygon fill="none" stroke="black" points="343,-341 343,-393 483.25,-393 483.25,-341 343,-341"/>
</g>
<!-- n_0_1_2_3_4_5_6&#45;&gt;n_0_1_2_3_4_6 -->
<g id="edge1" class="edge">
<title>n_0_1_2_3_4_5_6&#45;&gt;n_0_1_2_3_4_6</title>
<path fill="none" stroke="black" d="M459.69,-440.14C452.62,-429.19 444.89,-417.22 437.8,-406.23"/>
<polygon fill="black" stroke="black" points="440.96,-404.66 432.59,-398.16 435.07,-408.46 440.96,-404.66"/>
</g>
<!-- n_5 -->
<g id="node13" class="node">
<title>n_5</title>
<polygon fill="none" stroke="black" points="529.62,-354.38 529.62,-379.62 582.62,-379.62 582.62,-354.38 529.62,-354.38"/>
<text text-anchor="start" x="536.62" y="-365.07" font-family="Times New Roman,serif" font-weight="bold" font-size="9.00">Obesity II</text>
<polygon fill="none" stroke="black" points="528.62,-353.38 528.62,-380.62 583.62,-380.62 583.62,-353.38 528.62,-353.38"/>
</g>
<!-- n_0_1_2_3_4_5_6&#45;&gt;n_5 -->
<g id="edge12" class="edge">
<title>n_0_1_2_3_4_5_6&#45;&gt;n_5</title>
<path fill="none" stroke="black" d="M508.9,-440.14C518.79,-425.04 529.93,-408.02 538.9,-394.31"/>
<polygon fill="black" stroke="black" points="541.63,-396.53 544.18,-386.25 535.78,-392.7 541.63,-396.53"/>
</g>
<!-- n_0_2_3_6 -->
<g id="node3" class="node">
<title>n_0_2_3_6</title>
<polygon fill="none" stroke="black" points="251.5,-248 251.5,-289 339.75,-289 339.75,-248 251.5,-248"/>
<text text-anchor="start" x="258.5" y="-274.45" font-family="Times New Roman,serif" font-weight="bold" font-size="9.00">Insufficient weight</text>
<text text-anchor="start" x="268.62" y="-265.45" font-family="Times New Roman,serif" font-weight="bold" font-size="9.00">Overweight II</text>
<text text-anchor="start" x="274.62" y="-256.45" font-family="Times New Roman,serif" font-weight="bold" font-size="9.00">Obesity III</text>
<polygon fill="none" stroke="black" points="339.75,-248 339.75,-289 404.75,-289 404.75,-248 339.75,-248"/>
<text text-anchor="start" x="346.75" y="-266.57" font-family="Times New Roman,serif" font-weight="bold" font-size="9.00">Overweight I</text>
<polygon fill="none" stroke="black" points="250.5,-247 250.5,-290 405.75,-290 405.75,-247 250.5,-247"/>
</g>
<!-- n_0_1_2_3_4_6&#45;&gt;n_0_2_3_6 -->
<g id="edge2" class="edge">
<title>n_0_1_2_3_4_6&#45;&gt;n_0_2_3_6</title>
<path fill="none" stroke="black" d="M387.62,-337.05C377.96,-326.08 366.89,-313.51 356.94,-302.22"/>
<polygon fill="black" stroke="black" points="359.83,-300.2 350.6,-295.01 354.58,-304.83 359.83,-300.2"/>
</g>
<!-- n_1_4 -->
<g id="node10" class="node">
<title>n_1_4</title>
<polygon fill="none" stroke="black" points="452.12,-255.88 452.12,-281.12 496.12,-281.12 496.12,-255.88 452.12,-255.88"/>
<text text-anchor="start" x="459.12" y="-266.57" font-family="Times New Roman,serif" font-weight="bold" font-size="9.00">Normal</text>
<polygon fill="none" stroke="black" points="496.12,-255.88 496.12,-281.12 546.12,-281.12 546.12,-255.88 496.12,-255.88"/>
<text text-anchor="start" x="503.12" y="-266.57" font-family="Times New Roman,serif" font-weight="bold" font-size="9.00">Obesity I</text>
<polygon fill="none" stroke="black" points="451.12,-254.88 451.12,-282.12 547.12,-282.12 547.12,-254.88 451.12,-254.88"/>
</g>
<!-- n_0_1_2_3_4_6&#45;&gt;n_1_4 -->
<g id="edge9" class="edge">
<title>n_0_1_2_3_4_6&#45;&gt;n_1_4</title>
<path fill="none" stroke="black" d="M438.93,-337.05C450.91,-323.6 465.02,-307.77 476.57,-294.81"/>
<polygon fill="black" stroke="black" points="479.05,-297.29 483.09,-287.5 473.82,-292.63 479.05,-297.29"/>
</g>
<!-- n_0_3_6 -->
<g id="node4" class="node">
<title>n_0_3_6</title>
<polygon fill="none" stroke="black" points="110,-163 110,-195 198.25,-195 198.25,-163 110,-163"/>
<text text-anchor="start" x="117" y="-180.45" font-family="Times New Roman,serif" font-weight="bold" font-size="9.00">Insufficient weight</text>
<text text-anchor="start" x="133.12" y="-171.45" font-family="Times New Roman,serif" font-weight="bold" font-size="9.00">Obesity III</text>
<polygon fill="none" stroke="black" points="198.25,-163 198.25,-195 266.25,-195 266.25,-163 198.25,-163"/>
<text text-anchor="start" x="205.25" y="-177.07" font-family="Times New Roman,serif" font-weight="bold" font-size="9.00">Overweight II</text>
<polygon fill="none" stroke="black" points="109,-162 109,-196 267.25,-196 267.25,-162 109,-162"/>
</g>
<!-- n_0_2_3_6&#45;&gt;n_0_3_6 -->
<g id="edge3" class="edge">
<title>n_0_2_3_6&#45;&gt;n_0_3_6</title>
<path fill="none" stroke="black" d="M289.13,-243.13C270.52,-231.5 248.26,-217.59 229.38,-205.78"/>
<polygon fill="black" stroke="black" points="231.47,-202.96 221.13,-200.63 227.76,-208.9 231.47,-202.96"/>
</g>
<!-- n_2 -->
<g id="node9" class="node">
<title>n_2</title>
<polygon fill="none" stroke="black" points="313.62,-166.38 313.62,-191.62 378.62,-191.62 378.62,-166.38 313.62,-166.38"/>
<text text-anchor="start" x="320.62" y="-177.07" font-family="Times New Roman,serif" font-weight="bold" font-size="9.00">Overweight I</text>
<polygon fill="none" stroke="black" points="312.62,-165.38 312.62,-192.62 379.62,-192.62 379.62,-165.38 312.62,-165.38"/>
</g>
<!-- n_0_2_3_6&#45;&gt;n_2 -->
<g id="edge8" class="edge">
<title>n_0_2_3_6&#45;&gt;n_2</title>
<path fill="none" stroke="black" d="M333.14,-243.13C335.39,-232.17 338.07,-219.18 340.4,-207.84"/>
<polygon fill="black" stroke="black" points="343.78,-208.75 342.37,-198.25 336.93,-207.34 343.78,-208.75"/>
</g>
<!-- n_0_6 -->
<g id="node5" class="node">
<title>n_0_6</title>
<polygon fill="none" stroke="black" points="40,-84.38 40,-109.62 128.25,-109.62 128.25,-84.38 40,-84.38"/>
<text text-anchor="start" x="47" y="-95.08" font-family="Times New Roman,serif" font-weight="bold" font-size="9.00">Insufficient weight</text>
<polygon fill="none" stroke="black" points="128.25,-84.38 128.25,-109.62 184.25,-109.62 184.25,-84.38 128.25,-84.38"/>
<text text-anchor="start" x="135.25" y="-95.08" font-family="Times New Roman,serif" font-weight="bold" font-size="9.00">Obesity III</text>
<polygon fill="none" stroke="black" points="39,-83.38 39,-110.62 185.25,-110.62 185.25,-83.38 39,-83.38"/>
</g>
<!-- n_0_3_6&#45;&gt;n_0_6 -->
<g id="edge4" class="edge">
<title>n_0_3_6&#45;&gt;n_0_6</title>
<path fill="none" stroke="black" d="M169.34,-158.22C159.25,-147.61 146.71,-134.41 135.94,-123.07"/>
<polygon fill="black" stroke="black" points="138.59,-120.78 129.17,-115.94 133.52,-125.6 138.59,-120.78"/>
</g>
<!-- n_3 -->
<g id="node8" class="node">
<title>n_3</title>
<polygon fill="none" stroke="black" points="231.12,-84.38 231.12,-109.62 299.12,-109.62 299.12,-84.38 231.12,-84.38"/>
<text text-anchor="start" x="238.12" y="-95.08" font-family="Times New Roman,serif" font-weight="bold" font-size="9.00">Overweight II</text>
<polygon fill="none" stroke="black" points="230.12,-83.38 230.12,-110.62 300.12,-110.62 300.12,-83.38 230.12,-83.38"/>
</g>
<!-- n_0_3_6&#45;&gt;n_3 -->
<g id="edge7" class="edge">
<title>n_0_3_6&#45;&gt;n_3</title>
<path fill="none" stroke="black" d="M207.16,-158.22C217.38,-147.61 230.08,-134.41 240.99,-123.07"/>
<polygon fill="black" stroke="black" points="243.45,-125.57 247.86,-115.93 238.41,-120.71 243.45,-125.57"/>
</g>
<!-- n_0 -->
<g id="node6" class="node">
<title>n_0</title>
<polygon fill="none" stroke="black" points="9,-5.38 9,-30.62 97.25,-30.62 97.25,-5.38 9,-5.38"/>
<text text-anchor="start" x="16" y="-16.07" font-family="Times New Roman,serif" font-weight="bold" font-size="9.00">Insufficient weight</text>
<polygon fill="none" stroke="black" points="8,-4.38 8,-31.62 98.25,-31.62 98.25,-4.38 8,-4.38"/>
</g>
<!-- n_0_6&#45;&gt;n_0 -->
<g id="edge5" class="edge">
<title>n_0_6&#45;&gt;n_0</title>
<path fill="none" stroke="black" d="M99.32,-79.29C91.64,-69.27 81.72,-56.31 73.03,-44.98"/>
<polygon fill="black" stroke="black" points="75.89,-42.95 67.03,-37.14 70.33,-47.21 75.89,-42.95"/>
</g>
<!-- n_6 -->
<g id="node7" class="node">
<title>n_6</title>
<polygon fill="none" stroke="black" points="144.12,-5.38 144.12,-30.62 200.12,-30.62 200.12,-5.38 144.12,-5.38"/>
<text text-anchor="start" x="151.12" y="-16.07" font-family="Times New Roman,serif" font-weight="bold" font-size="9.00">Obesity III</text>
<polygon fill="none" stroke="black" points="143.12,-4.38 143.12,-31.62 201.12,-31.62 201.12,-4.38 143.12,-4.38"/>
</g>
<!-- n_0_6&#45;&gt;n_6 -->
<g id="edge6" class="edge">
<title>n_0_6&#45;&gt;n_6</title>
<path fill="none" stroke="black" d="M125.14,-79.29C132.95,-69.27 143.05,-56.31 151.88,-44.98"/>
<polygon fill="black" stroke="black" points="154.61,-47.17 157.99,-37.14 149.09,-42.87 154.61,-47.17"/>
</g>
<!-- n_1 -->
<g id="node11" class="node">
<title>n_1</title>
<polygon fill="none" stroke="black" points="460.12,-166.38 460.12,-191.62 504.12,-191.62 504.12,-166.38 460.12,-166.38"/>
<text text-anchor="start" x="467.12" y="-177.07" font-family="Times New Roman,serif" font-weight="bold" font-size="9.00">Normal</text>
<polygon fill="none" stroke="black" points="459.12,-165.38 459.12,-192.62 505.12,-192.62 505.12,-165.38 459.12,-165.38"/>
</g>
<!-- n_1_4&#45;&gt;n_1 -->
<g id="edge10" class="edge">
<title>n_1_4&#45;&gt;n_1</title>
<path fill="none" stroke="black" d="M495.85,-250.63C493.5,-238.52 490.27,-221.94 487.54,-207.88"/>
<polygon fill="black" stroke="black" points="491.02,-207.45 485.68,-198.3 484.15,-208.79 491.02,-207.45"/>
</g>
<!-- n_4 -->
<g id="node12" class="node">
<title>n_4</title>
<polygon fill="none" stroke="black" points="551.12,-166.38 551.12,-191.62 601.12,-191.62 601.12,-166.38 551.12,-166.38"/>
<text text-anchor="start" x="558.12" y="-177.07" font-family="Times New Roman,serif" font-weight="bold" font-size="9.00">Obesity I</text>
<polygon fill="none" stroke="black" points="550.12,-165.38 550.12,-192.62 602.12,-192.62 602.12,-165.38 550.12,-165.38"/>
</g>
<!-- n_1_4&#45;&gt;n_4 -->
<g id="edge11" class="edge">
<title>n_1_4&#45;&gt;n_4</title>
<path fill="none" stroke="black" d="M513.97,-250.63C525.26,-237.8 540.99,-219.93 553.79,-205.38"/>
<polygon fill="black" stroke="black" points="556.35,-207.77 560.32,-197.96 551.09,-203.15 556.35,-207.77"/>
</g>
</g>
</svg>
