<?xml version="1.0" encoding="UTF-8" standalone="no"?>
<!DOCTYPE svg PUBLIC "-//W3C//DTD SVG 1.1//EN"
 "http://www.w3.org/Graphics/SVG/1.1/DTD/svg11.dtd">
<!-- Generated by graphviz version 10.0.1 (20240210.2158)
 -->
<!-- Title: ND Pages: 1 -->
<svg width="515pt" height="423pt"
 viewBox="0.00 0.00 515.00 423.00" xmlns="http://www.w3.org/2000/svg" xmlns:xlink="http://www.w3.org/1999/xlink">
<g id="graph0" class="graph" transform="scale(1 1) rotate(0) translate(4 419)">
<title>ND</title>
<polygon fill="white" stroke="none" points="-4,4 -4,-419 511,-419 511,4 -4,4"/>
<!-- n_0_1_2_3_4_5_6 -->
<g id="node1" class="node">
<title>n_0_1_2_3_4_5_6</title>
<polygon fill="none" stroke="black" points="249.88,-342 249.88,-410 317.88,-410 317.88,-342 249.88,-342"/>
<text text-anchor="start" x="268.88" y="-395.45" font-family="Times New Roman,serif" font-weight="bold" font-size="9.00">Normal</text>
<text text-anchor="start" x="258.38" y="-386.45" font-family="Times New Roman,serif" font-weight="bold" font-size="9.00">Overweight I</text>
<text text-anchor="start" x="256.88" y="-377.45" font-family="Times New Roman,serif" font-weight="bold" font-size="9.00">Overweight II</text>
<text text-anchor="start" x="265.88" y="-368.45" font-family="Times New Roman,serif" font-weight="bold" font-size="9.00">Obesity I</text>
<text text-anchor="start" x="264.38" y="-359.45" font-family="Times New Roman,serif" font-weight="bold" font-size="9.00">Obesity II</text>
<text text-anchor="start" x="262.88" y="-350.45" font-family="Times New Roman,serif" font-weight="bold" font-size="9.00">Obesity III</text>
<polygon fill="none" stroke="black" points="317.88,-342 317.88,-410 406.12,-410 406.12,-342 317.88,-342"/>
<text text-anchor="start" x="324.88" y="-374.07" font-family="Times New Roman,serif" font-weight="bold" font-size="9.00">Insufficient weight</text>
<polygon fill="none" stroke="black" points="248.88,-341 248.88,-411 407.12,-411 407.12,-341 248.88,-341"/>
</g>
<!-- n_1_2_3_4_5_6 -->
<g id="node2" class="node">
<title>n_1_2_3_4_5_6</title>
<polygon fill="none" stroke="black" points="191.5,-248 191.5,-289 244.5,-289 244.5,-248 191.5,-248"/>
<text text-anchor="start" x="203" y="-274.45" font-family="Times New Roman,serif" font-weight="bold" font-size="9.00">Normal</text>
<text text-anchor="start" x="200" y="-265.45" font-family="Times New Roman,serif" font-weight="bold" font-size="9.00">Obesity I</text>
<text text-anchor="start" x="198.5" y="-256.45" font-family="Times New Roman,serif" font-weight="bold" font-size="9.00">Obesity II</text>
<polygon fill="none" stroke="black" points="244.5,-248 244.5,-289 312.5,-289 312.5,-248 244.5,-248"/>
<text text-anchor="start" x="253" y="-274.45" font-family="Times New Roman,serif" font-weight="bold" font-size="9.00">Overweight I</text>
<text text-anchor="start" x="251.5" y="-265.45" font-family="Times New Roman,serif" font-weight="bold" font-size="9.00">Overweight II</text>
<text text-anchor="start" x="257.5" y="-256.45" font-family="Times New Roman,serif" font-weight="bold" font-size="9.00">Obesity III</text>
<polygon fill="none" stroke="black" points="190.5,-247 190.5,-290 313.5,-290 313.5,-247 190.5,-247"/>
</g>
<!-- n_0_1_2_3_4_5_6&#45;&gt;n_1_2_3_4_5_6 -->
<g id="edge1" class="edge">
<title>n_0_1_2_3_4_5_6&#45;&gt;n_1_2_3_4_5_6</title>
<path fill="none" stroke="black" d="M300.78,-337.21C292.74,-326.05 284,-313.92 276.17,-303.05"/>
<polygon fill="black" stroke="black" points="279.13,-301.17 270.44,-295.1 273.45,-305.26 279.13,-301.17"/>
</g>
<!-- n_0 -->
<g id="node13" class="node">
<title>n_0</title>
<polygon fill="none" stroke="black" points="359.88,-255.88 359.88,-281.12 448.12,-281.12 448.12,-255.88 359.88,-255.88"/>
<text text-anchor="start" x="366.88" y="-266.57" font-family="Times New Roman,serif" font-weight="bold" font-size="9.00">Insufficient weight</text>
<polygon fill="none" stroke="black" points="358.88,-254.88 358.88,-282.12 449.12,-282.12 449.12,-254.88 358.88,-254.88"/>
</g>
<!-- n_0_1_2_3_4_5_6&#45;&gt;n_0 -->
<g id="edge12" class="edge">
<title>n_0_1_2_3_4_5_6&#45;&gt;n_0</title>
<path fill="none" stroke="black" d="M355.22,-337.21C365.2,-323.36 376.26,-308.01 385.32,-295.43"/>
<polygon fill="black" stroke="black" points="387.92,-297.81 390.93,-287.65 382.24,-293.71 387.92,-297.81"/>
</g>
<!-- n_1_4_5 -->
<g id="node3" class="node">
<title>n_1_4_5</title>
<polygon fill="none" stroke="black" points="120.5,-163 120.5,-195 170.5,-195 170.5,-163 120.5,-163"/>
<text text-anchor="start" x="130.5" y="-180.45" font-family="Times New Roman,serif" font-weight="bold" font-size="9.00">Normal</text>
<text text-anchor="start" x="127.5" y="-171.45" font-family="Times New Roman,serif" font-weight="bold" font-size="9.00">Obesity I</text>
<polygon fill="none" stroke="black" points="170.5,-163 170.5,-195 223.5,-195 223.5,-163 170.5,-163"/>
<text text-anchor="start" x="177.5" y="-177.07" font-family="Times New Roman,serif" font-weight="bold" font-size="9.00">Obesity II</text>
<polygon fill="none" stroke="black" points="119.5,-162 119.5,-196 224.5,-196 224.5,-162 119.5,-162"/>
</g>
<!-- n_1_2_3_4_5_6&#45;&gt;n_1_4_5 -->
<g id="edge2" class="edge">
<title>n_1_2_3_4_5_6&#45;&gt;n_1_4_5</title>
<path fill="none" stroke="black" d="M229.72,-243.13C219.77,-232.25 207.99,-219.36 197.67,-208.08"/>
<polygon fill="black" stroke="black" points="200.48,-205.96 191.15,-200.94 195.31,-210.69 200.48,-205.96"/>
</g>
<!-- n_2_3_6 -->
<g id="node8" class="node">
<title>n_2_3_6</title>
<polygon fill="none" stroke="black" points="271,-163 271,-195 339,-195 339,-163 271,-163"/>
<text text-anchor="start" x="279.5" y="-180.45" font-family="Times New Roman,serif" font-weight="bold" font-size="9.00">Overweight I</text>
<text text-anchor="start" x="278" y="-171.45" font-family="Times New Roman,serif" font-weight="bold" font-size="9.00">Overweight II</text>
<polygon fill="none" stroke="black" points="339,-163 339,-195 395,-195 395,-163 339,-163"/>
<text text-anchor="start" x="346" y="-177.07" font-family="Times New Roman,serif" font-weight="bold" font-size="9.00">Obesity III</text>
<polygon fill="none" stroke="black" points="270,-162 270,-196 396,-196 396,-162 270,-162"/>
</g>
<!-- n_1_2_3_4_5_6&#45;&gt;n_2_3_6 -->
<g id="edge7" class="edge">
<title>n_1_2_3_4_5_6&#45;&gt;n_2_3_6</title>
<path fill="none" stroke="black" d="M274.56,-243.13C284.63,-232.25 296.56,-219.36 307,-208.08"/>
<polygon fill="black" stroke="black" points="309.39,-210.65 313.62,-200.94 304.26,-205.9 309.39,-210.65"/>
</g>
<!-- n_1_4 -->
<g id="node4" class="node">
<title>n_1_4</title>
<polygon fill="none" stroke="black" points="10,-84.38 10,-109.62 54,-109.62 54,-84.38 10,-84.38"/>
<text text-anchor="start" x="17" y="-95.08" font-family="Times New Roman,serif" font-weight="bold" font-size="9.00">Normal</text>
<polygon fill="none" stroke="black" points="54,-84.38 54,-109.62 104,-109.62 104,-84.38 54,-84.38"/>
<text text-anchor="start" x="61" y="-95.08" font-family="Times New Roman,serif" font-weight="bold" font-size="9.00">Obesity I</text>
<polygon fill="none" stroke="black" points="9,-83.38 9,-110.62 105,-110.62 105,-83.38 9,-83.38"/>
</g>
<!-- n_1_4_5&#45;&gt;n_1_4 -->
<g id="edge3" class="edge">
<title>n_1_4_5&#45;&gt;n_1_4</title>
<path fill="none" stroke="black" d="M143.28,-158.02C127.26,-146.88 107.23,-132.94 90.5,-121.31"/>
<polygon fill="black" stroke="black" points="92.54,-118.46 82.33,-115.62 88.54,-124.21 92.54,-118.46"/>
</g>
<!-- n_5 -->
<g id="node7" class="node">
<title>n_5</title>
<polygon fill="none" stroke="black" points="151.5,-84.38 151.5,-109.62 204.5,-109.62 204.5,-84.38 151.5,-84.38"/>
<text text-anchor="start" x="158.5" y="-95.08" font-family="Times New Roman,serif" font-weight="bold" font-size="9.00">Obesity II</text>
<polygon fill="none" stroke="black" points="150.5,-83.38 150.5,-110.62 205.5,-110.62 205.5,-83.38 150.5,-83.38"/>
</g>
<!-- n_1_4_5&#45;&gt;n_5 -->
<g id="edge6" class="edge">
<title>n_1_4_5&#45;&gt;n_5</title>
<path fill="none" stroke="black" d="M173.48,-158.22C174.21,-148.54 175.1,-136.72 175.89,-126.11"/>
<polygon fill="black" stroke="black" points="179.37,-126.59 176.62,-116.35 172.39,-126.06 179.37,-126.59"/>
</g>
<!-- n_1 -->
<g id="node5" class="node">
<title>n_1</title>
<polygon fill="none" stroke="black" points="9,-5.38 9,-30.62 53,-30.62 53,-5.38 9,-5.38"/>
<text text-anchor="start" x="16" y="-16.07" font-family="Times New Roman,serif" font-weight="bold" font-size="9.00">Normal</text>
<polygon fill="none" stroke="black" points="8,-4.38 8,-31.62 54,-31.62 54,-4.38 8,-4.38"/>
</g>
<!-- n_1_4&#45;&gt;n_1 -->
<g id="edge4" class="edge">
<title>n_1_4&#45;&gt;n_1</title>
<path fill="none" stroke="black" d="M51.36,-79.29C48.14,-69.77 44.03,-57.6 40.35,-46.69"/>
<polygon fill="black" stroke="black" points="43.72,-45.73 37.2,-37.38 37.09,-47.97 43.72,-45.73"/>
</g>
<!-- n_4 -->
<g id="node6" class="node">
<title>n_4</title>
<polygon fill="none" stroke="black" points="100,-5.38 100,-30.62 150,-30.62 150,-5.38 100,-5.38"/>
<text text-anchor="start" x="107" y="-16.07" font-family="Times New Roman,serif" font-weight="bold" font-size="9.00">Obesity I</text>
<polygon fill="none" stroke="black" points="99,-4.38 99,-31.62 151,-31.62 151,-4.38 99,-4.38"/>
</g>
<!-- n_1_4&#45;&gt;n_4 -->
<g id="edge5" class="edge">
<title>n_1_4&#45;&gt;n_4</title>
<path fill="none" stroke="black" d="M71.75,-79.29C80.78,-69.07 92.51,-55.79 102.66,-44.3"/>
<polygon fill="black" stroke="black" points="105.04,-46.89 109.04,-37.08 99.79,-42.25 105.04,-46.89"/>
</g>
<!-- n_2_3 -->
<g id="node9" class="node">
<title>n_2_3</title>
<polygon fill="none" stroke="black" points="261.5,-84.38 261.5,-109.62 326.5,-109.62 326.5,-84.38 261.5,-84.38"/>
<text text-anchor="start" x="268.5" y="-95.08" font-family="Times New Roman,serif" font-weight="bold" font-size="9.00">Overweight I</text>
<polygon fill="none" stroke="black" points="326.5,-84.38 326.5,-109.62 394.5,-109.62 394.5,-84.38 326.5,-84.38"/>
<text text-anchor="start" x="333.5" y="-95.08" font-family="Times New Roman,serif" font-weight="bold" font-size="9.00">Overweight II</text>
<polygon fill="none" stroke="black" points="260.5,-83.38 260.5,-110.62 395.5,-110.62 395.5,-83.38 260.5,-83.38"/>
</g>
<!-- n_2_3_6&#45;&gt;n_2_3 -->
<g id="edge8" class="edge">
<title>n_2_3_6&#45;&gt;n_2_3</title>
<path fill="none" stroke="black" d="M331.76,-158.22C331.16,-148.54 330.42,-136.72 329.76,-126.11"/>
<polygon fill="black" stroke="black" points="333.26,-126.12 329.15,-116.35 326.28,-126.55 333.26,-126.12"/>
</g>
<!-- n_6 -->
<g id="node12" class="node">
<title>n_6</title>
<polygon fill="none" stroke="black" points="442,-84.38 442,-109.62 498,-109.62 498,-84.38 442,-84.38"/>
<text text-anchor="start" x="449" y="-95.08" font-family="Times New Roman,serif" font-weight="bold" font-size="9.00">Obesity III</text>
<polygon fill="none" stroke="black" points="441,-83.38 441,-110.62 499,-110.62 499,-83.38 441,-83.38"/>
</g>
<!-- n_2_3_6&#45;&gt;n_6 -->
<g id="edge11" class="edge">
<title>n_2_3_6&#45;&gt;n_6</title>
<path fill="none" stroke="black" d="M367.22,-158.02C386.74,-146.62 411.28,-132.29 431.48,-120.49"/>
<polygon fill="black" stroke="black" points="433.12,-123.59 439.99,-115.52 429.59,-117.54 433.12,-123.59"/>
</g>
<!-- n_2 -->
<g id="node10" class="node">
<title>n_2</title>
<polygon fill="none" stroke="black" points="241.5,-5.38 241.5,-30.62 306.5,-30.62 306.5,-5.38 241.5,-5.38"/>
<text text-anchor="start" x="248.5" y="-16.07" font-family="Times New Roman,serif" font-weight="bold" font-size="9.00">Overweight I</text>
<polygon fill="none" stroke="black" points="240.5,-4.38 240.5,-31.62 307.5,-31.62 307.5,-4.38 240.5,-4.38"/>
</g>
<!-- n_2_3&#45;&gt;n_2 -->
<g id="edge9" class="edge">
<title>n_2_3&#45;&gt;n_2</title>
<path fill="none" stroke="black" d="M316.28,-79.29C309.33,-69.37 300.35,-56.57 292.46,-45.32"/>
<polygon fill="black" stroke="black" points="295.36,-43.36 286.75,-37.18 289.63,-47.38 295.36,-43.36"/>
</g>
<!-- n_3 -->
<g id="node11" class="node">
<title>n_3</title>
<polygon fill="none" stroke="black" points="354,-5.38 354,-30.62 422,-30.62 422,-5.38 354,-5.38"/>
<text text-anchor="start" x="361" y="-16.07" font-family="Times New Roman,serif" font-weight="bold" font-size="9.00">Overweight II</text>
<polygon fill="none" stroke="black" points="353,-4.38 353,-31.62 423,-31.62 423,-4.38 353,-4.38"/>
</g>
<!-- n_2_3&#45;&gt;n_3 -->
<g id="edge10" class="edge">
<title>n_2_3&#45;&gt;n_3</title>
<path fill="none" stroke="black" d="M341.02,-79.29C348.83,-69.27 358.93,-56.31 367.76,-44.98"/>
<polygon fill="black" stroke="black" points="370.48,-47.17 373.87,-37.14 364.96,-42.87 370.48,-47.17"/>
</g>
</g>
</svg>
