<?xml version="1.0" encoding="UTF-8" standalone="no"?>
<!DOCTYPE svg PUBLIC "-//W3C//DTD SVG 1.1//EN"
 "http://www.w3.org/Graphics/SVG/1.1/DTD/svg11.dtd">
<!-- Generated by graphviz version 10.0.1 (20240210.2158)
 -->
<!-- Title: ND Pages: 1 -->
<svg width="565pt" height="638pt"
 viewBox="0.00 0.00 565.00 638.00" xmlns="http://www.w3.org/2000/svg" xmlns:xlink="http://www.w3.org/1999/xlink">
<g id="graph0" class="graph" transform="scale(1 1) rotate(0) translate(4 634)">
<title>ND</title>
<polygon fill="white" stroke="none" points="-4,4 -4,-634 561,-634 561,4 -4,4"/>
<!-- n_0_1_2_3_4_5_6 -->
<g id="node1" class="node">
<title>n_0_1_2_3_4_5_6</title>
<polygon fill="none" stroke="black" points="374.88,-557 374.88,-625 463.12,-625 463.12,-557 374.88,-557"/>
<text text-anchor="start" x="381.88" y="-610.45" font-family="Times New Roman,serif" font-weight="bold" font-size="9.00">Insufficient weight</text>
<text text-anchor="start" x="404" y="-601.45" font-family="Times New Roman,serif" font-weight="bold" font-size="9.00">Normal</text>
<text text-anchor="start" x="393.5" y="-592.45" font-family="Times New Roman,serif" font-weight="bold" font-size="9.00">Overweight I</text>
<text text-anchor="start" x="392" y="-583.45" font-family="Times New Roman,serif" font-weight="bold" font-size="9.00">Overweight II</text>
<text text-anchor="start" x="401" y="-574.45" font-family="Times New Roman,serif" font-weight="bold" font-size="9.00">Obesity I</text>
<text text-anchor="start" x="399.5" y="-565.45" font-family="Times New Roman,serif" font-weight="bold" font-size="9.00">Obesity II</text>
<polygon fill="none" stroke="black" points="463.12,-557 463.12,-625 519.12,-625 519.12,-557 463.12,-557"/>
<text text-anchor="start" x="470.12" y="-589.08" font-family="Times New Roman,serif" font-weight="bold" font-size="9.00">Obesity III</text>
<polygon fill="none" stroke="black" points="373.88,-556 373.88,-626 520.12,-626 520.12,-556 373.88,-556"/>
</g>
<!-- n_0_1_2_3_4_5 -->
<g id="node2" class="node">
<title>n_0_1_2_3_4_5</title>
<polygon fill="none" stroke="black" points="303.38,-445 303.38,-504 391.62,-504 391.62,-445 303.38,-445"/>
<text text-anchor="start" x="310.38" y="-489.45" font-family="Times New Roman,serif" font-weight="bold" font-size="9.00">Insufficient weight</text>
<text text-anchor="start" x="332.5" y="-480.45" font-family="Times New Roman,serif" font-weight="bold" font-size="9.00">Normal</text>
<text text-anchor="start" x="322" y="-471.45" font-family="Times New Roman,serif" font-weight="bold" font-size="9.00">Overweight I</text>
<text text-anchor="start" x="320.5" y="-462.45" font-family="Times New Roman,serif" font-weight="bold" font-size="9.00">Overweight II</text>
<text text-anchor="start" x="329.5" y="-453.45" font-family="Times New Roman,serif" font-weight="bold" font-size="9.00">Obesity I</text>
<polygon fill="none" stroke="black" points="391.62,-445 391.62,-504 444.62,-504 444.62,-445 391.62,-445"/>
<text text-anchor="start" x="398.62" y="-472.57" font-family="Times New Roman,serif" font-weight="bold" font-size="9.00">Obesity II</text>
<polygon fill="none" stroke="black" points="302.38,-444 302.38,-505 445.62,-505 445.62,-444 302.38,-444"/>
</g>
<!-- n_0_1_2_3_4_5_6&#45;&gt;n_0_1_2_3_4_5 -->
<g id="edge1" class="edge">
<title>n_0_1_2_3_4_5_6&#45;&gt;n_0_1_2_3_4_5</title>
<path fill="none" stroke="black" d="M422.89,-552.19C415.96,-541.31 408.34,-529.36 401.23,-518.21"/>
<polygon fill="black" stroke="black" points="404.28,-516.48 395.95,-509.93 398.37,-520.24 404.28,-516.48"/>
</g>
<!-- n_6 -->
<g id="node13" class="node">
<title>n_6</title>
<polygon fill="none" stroke="black" points="492,-461.88 492,-487.12 548,-487.12 548,-461.88 492,-461.88"/>
<text text-anchor="start" x="499" y="-472.57" font-family="Times New Roman,serif" font-weight="bold" font-size="9.00">Obesity III</text>
<polygon fill="none" stroke="black" points="491,-460.88 491,-488.12 549,-488.12 549,-460.88 491,-460.88"/>
</g>
<!-- n_0_1_2_3_4_5_6&#45;&gt;n_6 -->
<g id="edge12" class="edge">
<title>n_0_1_2_3_4_5_6&#45;&gt;n_6</title>
<path fill="none" stroke="black" d="M471.11,-552.19C481.57,-535.78 493.57,-516.96 503.06,-502.07"/>
<polygon fill="black" stroke="black" points="505.95,-504.05 508.37,-493.74 500.04,-500.29 505.95,-504.05"/>
</g>
<!-- n_0_1_2_3_4 -->
<g id="node3" class="node">
<title>n_0_1_2_3_4</title>
<polygon fill="none" stroke="black" points="219.88,-342 219.88,-392 308.12,-392 308.12,-342 219.88,-342"/>
<text text-anchor="start" x="226.88" y="-377.45" font-family="Times New Roman,serif" font-weight="bold" font-size="9.00">Insufficient weight</text>
<text text-anchor="start" x="249" y="-368.45" font-family="Times New Roman,serif" font-weight="bold" font-size="9.00">Normal</text>
<text text-anchor="start" x="238.5" y="-359.45" font-family="Times New Roman,serif" font-weight="bold" font-size="9.00">Overweight I</text>
<text text-anchor="start" x="246" y="-350.45" font-family="Times New Roman,serif" font-weight="bold" font-size="9.00">Obesity I</text>
<polygon fill="none" stroke="black" points="308.12,-342 308.12,-392 376.12,-392 376.12,-342 308.12,-342"/>
<text text-anchor="start" x="315.12" y="-365.07" font-family="Times New Roman,serif" font-weight="bold" font-size="9.00">Overweight II</text>
<polygon fill="none" stroke="black" points="218.88,-341 218.88,-393 377.12,-393 377.12,-341 218.88,-341"/>
</g>
<!-- n_0_1_2_3_4_5&#45;&gt;n_0_1_2_3_4 -->
<g id="edge2" class="edge">
<title>n_0_1_2_3_4_5&#45;&gt;n_0_1_2_3_4</title>
<path fill="none" stroke="black" d="M349.95,-440.12C342.14,-429.27 333.41,-417.16 325.37,-406"/>
<polygon fill="black" stroke="black" points="328.39,-404.19 319.7,-398.13 322.71,-408.29 328.39,-404.19"/>
</g>
<!-- n_5 -->
<g id="node12" class="node">
<title>n_5</title>
<polygon fill="none" stroke="black" points="423.5,-354.38 423.5,-379.62 476.5,-379.62 476.5,-354.38 423.5,-354.38"/>
<text text-anchor="start" x="430.5" y="-365.07" font-family="Times New Roman,serif" font-weight="bold" font-size="9.00">Obesity II</text>
<polygon fill="none" stroke="black" points="422.5,-353.38 422.5,-380.62 477.5,-380.62 477.5,-353.38 422.5,-353.38"/>
</g>
<!-- n_0_1_2_3_4_5&#45;&gt;n_5 -->
<g id="edge11" class="edge">
<title>n_0_1_2_3_4_5&#45;&gt;n_5</title>
<path fill="none" stroke="black" d="M398.05,-440.12C408.79,-425.21 421.26,-407.9 431.29,-393.98"/>
<polygon fill="black" stroke="black" points="433.9,-396.34 436.9,-386.18 428.22,-392.25 433.9,-396.34"/>
</g>
<!-- n_0_1_2_4 -->
<g id="node4" class="node">
<title>n_0_1_2_4</title>
<polygon fill="none" stroke="black" points="142.38,-248 142.38,-289 207.38,-289 207.38,-248 142.38,-248"/>
<text text-anchor="start" x="159.88" y="-274.45" font-family="Times New Roman,serif" font-weight="bold" font-size="9.00">Normal</text>
<text text-anchor="start" x="149.38" y="-265.45" font-family="Times New Roman,serif" font-weight="bold" font-size="9.00">Overweight I</text>
<text text-anchor="start" x="156.88" y="-256.45" font-family="Times New Roman,serif" font-weight="bold" font-size="9.00">Obesity I</text>
<polygon fill="none" stroke="black" points="207.38,-248 207.38,-289 295.62,-289 295.62,-248 207.38,-248"/>
<text text-anchor="start" x="214.38" y="-266.57" font-family="Times New Roman,serif" font-weight="bold" font-size="9.00">Insufficient weight</text>
<polygon fill="none" stroke="black" points="141.38,-247 141.38,-290 296.62,-290 296.62,-247 141.38,-247"/>
</g>
<!-- n_0_1_2_3_4&#45;&gt;n_0_1_2_4 -->
<g id="edge3" class="edge">
<title>n_0_1_2_3_4&#45;&gt;n_0_1_2_4</title>
<path fill="none" stroke="black" d="M274.3,-337.05C265.4,-326.18 255.23,-313.76 246.06,-302.55"/>
<polygon fill="black" stroke="black" points="248.96,-300.57 239.91,-295.05 243.54,-305 248.96,-300.57"/>
</g>
<!-- n_3 -->
<g id="node11" class="node">
<title>n_3</title>
<polygon fill="none" stroke="black" points="343,-255.88 343,-281.12 411,-281.12 411,-255.88 343,-255.88"/>
<text text-anchor="start" x="350" y="-266.57" font-family="Times New Roman,serif" font-weight="bold" font-size="9.00">Overweight II</text>
<polygon fill="none" stroke="black" points="342,-254.88 342,-282.12 412,-282.12 412,-254.88 342,-254.88"/>
</g>
<!-- n_0_1_2_3_4&#45;&gt;n_3 -->
<g id="edge10" class="edge">
<title>n_0_1_2_3_4&#45;&gt;n_3</title>
<path fill="none" stroke="black" d="M321.7,-337.05C332.6,-323.73 345.42,-308.07 355.97,-295.19"/>
<polygon fill="black" stroke="black" points="358.61,-297.49 362.23,-287.54 353.19,-293.06 358.61,-297.49"/>
</g>
<!-- n_1_2_4 -->
<g id="node5" class="node">
<title>n_1_2_4</title>
<polygon fill="none" stroke="black" points="87.5,-163 87.5,-195 152.5,-195 152.5,-163 87.5,-163"/>
<text text-anchor="start" x="105" y="-180.45" font-family="Times New Roman,serif" font-weight="bold" font-size="9.00">Normal</text>
<text text-anchor="start" x="94.5" y="-171.45" font-family="Times New Roman,serif" font-weight="bold" font-size="9.00">Overweight I</text>
<polygon fill="none" stroke="black" points="152.5,-163 152.5,-195 202.5,-195 202.5,-163 152.5,-163"/>
<text text-anchor="start" x="159.5" y="-177.07" font-family="Times New Roman,serif" font-weight="bold" font-size="9.00">Obesity I</text>
<polygon fill="none" stroke="black" points="86.5,-162 86.5,-196 203.5,-196 203.5,-162 86.5,-162"/>
</g>
<!-- n_0_1_2_4&#45;&gt;n_1_2_4 -->
<g id="edge4" class="edge">
<title>n_0_1_2_4&#45;&gt;n_1_2_4</title>
<path fill="none" stroke="black" d="M198.39,-243.13C189.28,-232.35 178.5,-219.62 169.03,-208.41"/>
<polygon fill="black" stroke="black" points="171.87,-206.36 162.74,-200.98 166.53,-210.88 171.87,-206.36"/>
</g>
<!-- n_0 -->
<g id="node10" class="node">
<title>n_0</title>
<polygon fill="none" stroke="black" points="249.88,-166.38 249.88,-191.62 338.12,-191.62 338.12,-166.38 249.88,-166.38"/>
<text text-anchor="start" x="256.88" y="-177.07" font-family="Times New Roman,serif" font-weight="bold" font-size="9.00">Insufficient weight</text>
<polygon fill="none" stroke="black" points="248.88,-165.38 248.88,-192.62 339.12,-192.62 339.12,-165.38 248.88,-165.38"/>
</g>
<!-- n_0_1_2_4&#45;&gt;n_0 -->
<g id="edge9" class="edge">
<title>n_0_1_2_4&#45;&gt;n_0</title>
<path fill="none" stroke="black" d="M239.89,-243.13C249.98,-231.36 262.07,-217.25 272.27,-205.36"/>
<polygon fill="black" stroke="black" points="274.79,-207.79 278.64,-197.92 269.47,-203.23 274.79,-207.79"/>
</g>
<!-- n_1_2 -->
<g id="node6" class="node">
<title>n_1_2</title>
<polygon fill="none" stroke="black" points="27.5,-84.38 27.5,-109.62 71.5,-109.62 71.5,-84.38 27.5,-84.38"/>
<text text-anchor="start" x="34.5" y="-95.08" font-family="Times New Roman,serif" font-weight="bold" font-size="9.00">Normal</text>
<polygon fill="none" stroke="black" points="71.5,-84.38 71.5,-109.62 136.5,-109.62 136.5,-84.38 71.5,-84.38"/>
<text text-anchor="start" x="78.5" y="-95.08" font-family="Times New Roman,serif" font-weight="bold" font-size="9.00">Overweight I</text>
<polygon fill="none" stroke="black" points="26.5,-83.38 26.5,-110.62 137.5,-110.62 137.5,-83.38 26.5,-83.38"/>
</g>
<!-- n_1_2_4&#45;&gt;n_1_2 -->
<g id="edge5" class="edge">
<title>n_1_2_4&#45;&gt;n_1_2</title>
<path fill="none" stroke="black" d="M129.43,-158.22C121.23,-147.81 111.08,-134.92 102.27,-123.74"/>
<polygon fill="black" stroke="black" points="105.14,-121.72 96.2,-116.03 99.64,-126.05 105.14,-121.72"/>
</g>
<!-- n_4 -->
<g id="node9" class="node">
<title>n_4</title>
<polygon fill="none" stroke="black" points="184,-84.38 184,-109.62 234,-109.62 234,-84.38 184,-84.38"/>
<text text-anchor="start" x="191" y="-95.08" font-family="Times New Roman,serif" font-weight="bold" font-size="9.00">Obesity I</text>
<polygon fill="none" stroke="black" points="183,-83.38 183,-110.62 235,-110.62 235,-83.38 183,-83.38"/>
</g>
<!-- n_1_2_4&#45;&gt;n_4 -->
<g id="edge8" class="edge">
<title>n_1_2_4&#45;&gt;n_4</title>
<path fill="none" stroke="black" d="M160.82,-158.22C169.15,-147.81 179.46,-134.92 188.41,-123.74"/>
<polygon fill="black" stroke="black" points="191.07,-126.02 194.58,-116.03 185.6,-121.65 191.07,-126.02"/>
</g>
<!-- n_1 -->
<g id="node7" class="node">
<title>n_1</title>
<polygon fill="none" stroke="black" points="9,-5.38 9,-30.62 53,-30.62 53,-5.38 9,-5.38"/>
<text text-anchor="start" x="16" y="-16.07" font-family="Times New Roman,serif" font-weight="bold" font-size="9.00">Normal</text>
<polygon fill="none" stroke="black" points="8,-4.38 8,-31.62 54,-31.62 54,-4.38 8,-4.38"/>
</g>
<!-- n_1_2&#45;&gt;n_1 -->
<g id="edge6" class="edge">
<title>n_1_2&#45;&gt;n_1</title>
<path fill="none" stroke="black" d="M70.93,-79.29C64.36,-69.37 55.89,-56.57 48.43,-45.32"/>
<polygon fill="black" stroke="black" points="51.5,-43.61 43.06,-37.2 45.66,-47.47 51.5,-43.61"/>
</g>
<!-- n_2 -->
<g id="node8" class="node">
<title>n_2</title>
<polygon fill="none" stroke="black" points="100.5,-5.38 100.5,-30.62 165.5,-30.62 165.5,-5.38 100.5,-5.38"/>
<text text-anchor="start" x="107.5" y="-16.07" font-family="Times New Roman,serif" font-weight="bold" font-size="9.00">Overweight I</text>
<polygon fill="none" stroke="black" points="99.5,-4.38 99.5,-31.62 166.5,-31.62 166.5,-4.38 99.5,-4.38"/>
</g>
<!-- n_1_2&#45;&gt;n_2 -->
<g id="edge7" class="edge">
<title>n_1_2&#45;&gt;n_2</title>
<path fill="none" stroke="black" d="M93.07,-79.29C99.64,-69.37 108.11,-56.57 115.57,-45.32"/>
<polygon fill="black" stroke="black" points="118.34,-47.47 120.94,-37.2 112.5,-43.61 118.34,-47.47"/>
</g>
</g>
</svg>
