<?xml version="1.0" encoding="UTF-8" standalone="no"?>
<!DOCTYPE svg PUBLIC "-//W3C//DTD SVG 1.1//EN"
 "http://www.w3.org/Graphics/SVG/1.1/DTD/svg11.dtd">
<!-- Generated by graphviz version 10.0.1 (20240210.2158)
 -->
<!-- Title: ND Pages: 1 -->
<svg width="570pt" height="638pt"
 viewBox="0.00 0.00 569.50 638.00" xmlns="http://www.w3.org/2000/svg" xmlns:xlink="http://www.w3.org/1999/xlink">
<g id="graph0" class="graph" transform="scale(1 1) rotate(0) translate(4 634)">
<title>ND</title>
<polygon fill="white" stroke="none" points="-4,4 -4,-634 565.5,-634 565.5,4 -4,4"/>
<!-- n_0_1_2_3_4_5_6 -->
<g id="node1" class="node">
<title>n_0_1_2_3_4_5_6</title>
<polygon fill="none" stroke="black" points="368.38,-557 368.38,-625 456.62,-625 456.62,-557 368.38,-557"/>
<text text-anchor="start" x="375.38" y="-610.45" font-family="Times New Roman,serif" font-weight="bold" font-size="9.00">Insufficient weight</text>
<text text-anchor="start" x="397.5" y="-601.45" font-family="Times New Roman,serif" font-weight="bold" font-size="9.00">Normal</text>
<text text-anchor="start" x="385.5" y="-592.45" font-family="Times New Roman,serif" font-weight="bold" font-size="9.00">Overweight II</text>
<text text-anchor="start" x="394.5" y="-583.45" font-family="Times New Roman,serif" font-weight="bold" font-size="9.00">Obesity I</text>
<text text-anchor="start" x="393" y="-574.45" font-family="Times New Roman,serif" font-weight="bold" font-size="9.00">Obesity II</text>
<text text-anchor="start" x="391.5" y="-565.45" font-family="Times New Roman,serif" font-weight="bold" font-size="9.00">Obesity III</text>
<polygon fill="none" stroke="black" points="456.62,-557 456.62,-625 521.62,-625 521.62,-557 456.62,-557"/>
<text text-anchor="start" x="463.62" y="-589.08" font-family="Times New Roman,serif" font-weight="bold" font-size="9.00">Overweight I</text>
<polygon fill="none" stroke="black" points="367.38,-556 367.38,-626 522.62,-626 522.62,-556 367.38,-556"/>
</g>
<!-- n_0_1_3_4_5_6 -->
<g id="node2" class="node">
<title>n_0_1_3_4_5_6</title>
<polygon fill="none" stroke="black" points="301.88,-445 301.88,-504 390.12,-504 390.12,-445 301.88,-445"/>
<text text-anchor="start" x="308.88" y="-489.45" font-family="Times New Roman,serif" font-weight="bold" font-size="9.00">Insufficient weight</text>
<text text-anchor="start" x="331" y="-480.45" font-family="Times New Roman,serif" font-weight="bold" font-size="9.00">Normal</text>
<text text-anchor="start" x="319" y="-471.45" font-family="Times New Roman,serif" font-weight="bold" font-size="9.00">Overweight II</text>
<text text-anchor="start" x="326.5" y="-462.45" font-family="Times New Roman,serif" font-weight="bold" font-size="9.00">Obesity II</text>
<text text-anchor="start" x="325" y="-453.45" font-family="Times New Roman,serif" font-weight="bold" font-size="9.00">Obesity III</text>
<polygon fill="none" stroke="black" points="390.12,-445 390.12,-504 440.12,-504 440.12,-445 390.12,-445"/>
<text text-anchor="start" x="397.12" y="-472.57" font-family="Times New Roman,serif" font-weight="bold" font-size="9.00">Obesity I</text>
<polygon fill="none" stroke="black" points="300.88,-444 300.88,-505 441.12,-505 441.12,-444 300.88,-444"/>
</g>
<!-- n_0_1_2_3_4_5_6&#45;&gt;n_0_1_3_4_5_6 -->
<g id="edge1" class="edge">
<title>n_0_1_2_3_4_5_6&#45;&gt;n_0_1_3_4_5_6</title>
<path fill="none" stroke="black" d="M420.56,-552.19C413.53,-541.31 405.81,-529.36 398.6,-518.21"/>
<polygon fill="black" stroke="black" points="401.61,-516.42 393.25,-509.92 395.74,-520.22 401.61,-516.42"/>
</g>
<!-- n_2 -->
<g id="node13" class="node">
<title>n_2</title>
<polygon fill="none" stroke="black" points="487.5,-461.88 487.5,-487.12 552.5,-487.12 552.5,-461.88 487.5,-461.88"/>
<text text-anchor="start" x="494.5" y="-472.57" font-family="Times New Roman,serif" font-weight="bold" font-size="9.00">Overweight I</text>
<polygon fill="none" stroke="black" points="486.5,-460.88 486.5,-488.12 553.5,-488.12 553.5,-460.88 486.5,-460.88"/>
</g>
<!-- n_0_1_2_3_4_5_6&#45;&gt;n_2 -->
<g id="edge12" class="edge">
<title>n_0_1_2_3_4_5_6&#45;&gt;n_2</title>
<path fill="none" stroke="black" d="M469.77,-552.19C480.51,-535.78 492.84,-516.96 502.6,-502.07"/>
<polygon fill="black" stroke="black" points="505.51,-504.01 508.06,-493.73 499.65,-500.18 505.51,-504.01"/>
</g>
<!-- n_0_1_3_5_6 -->
<g id="node3" class="node">
<title>n_0_1_3_5_6</title>
<polygon fill="none" stroke="black" points="226.88,-342 226.88,-392 315.12,-392 315.12,-342 226.88,-342"/>
<text text-anchor="start" x="233.88" y="-377.45" font-family="Times New Roman,serif" font-weight="bold" font-size="9.00">Insufficient weight</text>
<text text-anchor="start" x="256" y="-368.45" font-family="Times New Roman,serif" font-weight="bold" font-size="9.00">Normal</text>
<text text-anchor="start" x="244" y="-359.45" font-family="Times New Roman,serif" font-weight="bold" font-size="9.00">Overweight II</text>
<text text-anchor="start" x="251.5" y="-350.45" font-family="Times New Roman,serif" font-weight="bold" font-size="9.00">Obesity II</text>
<polygon fill="none" stroke="black" points="315.12,-342 315.12,-392 371.12,-392 371.12,-342 315.12,-342"/>
<text text-anchor="start" x="322.12" y="-365.07" font-family="Times New Roman,serif" font-weight="bold" font-size="9.00">Obesity III</text>
<polygon fill="none" stroke="black" points="225.88,-341 225.88,-393 372.12,-393 372.12,-341 225.88,-341"/>
</g>
<!-- n_0_1_3_4_5_6&#45;&gt;n_0_1_3_5_6 -->
<g id="edge2" class="edge">
<title>n_0_1_3_4_5_6&#45;&gt;n_0_1_3_5_6</title>
<path fill="none" stroke="black" d="M348.22,-440.12C340.89,-429.38 332.71,-417.4 325.16,-406.33"/>
<polygon fill="black" stroke="black" points="328.1,-404.44 319.58,-398.15 322.32,-408.38 328.1,-404.44"/>
</g>
<!-- n_4 -->
<g id="node12" class="node">
<title>n_4</title>
<polygon fill="none" stroke="black" points="418,-354.38 418,-379.62 468,-379.62 468,-354.38 418,-354.38"/>
<text text-anchor="start" x="425" y="-365.07" font-family="Times New Roman,serif" font-weight="bold" font-size="9.00">Obesity I</text>
<polygon fill="none" stroke="black" points="417,-353.38 417,-380.62 469,-380.62 469,-353.38 417,-353.38"/>
</g>
<!-- n_0_1_3_4_5_6&#45;&gt;n_4 -->
<g id="edge11" class="edge">
<title>n_0_1_3_4_5_6&#45;&gt;n_4</title>
<path fill="none" stroke="black" d="M393.78,-440.12C403.86,-425.35 415.54,-408.23 425,-394.38"/>
<polygon fill="black" stroke="black" points="427.83,-396.43 430.58,-386.2 422.05,-392.49 427.83,-396.43"/>
</g>
<!-- n_0_1_3_5 -->
<g id="node4" class="node">
<title>n_0_1_3_5</title>
<polygon fill="none" stroke="black" points="144.88,-248 144.88,-289 212.88,-289 212.88,-248 144.88,-248"/>
<text text-anchor="start" x="163.88" y="-274.45" font-family="Times New Roman,serif" font-weight="bold" font-size="9.00">Normal</text>
<text text-anchor="start" x="151.88" y="-265.45" font-family="Times New Roman,serif" font-weight="bold" font-size="9.00">Overweight II</text>
<text text-anchor="start" x="159.38" y="-256.45" font-family="Times New Roman,serif" font-weight="bold" font-size="9.00">Obesity II</text>
<polygon fill="none" stroke="black" points="212.88,-248 212.88,-289 301.12,-289 301.12,-248 212.88,-248"/>
<text text-anchor="start" x="219.88" y="-266.57" font-family="Times New Roman,serif" font-weight="bold" font-size="9.00">Insufficient weight</text>
<polygon fill="none" stroke="black" points="143.88,-247 143.88,-290 302.12,-290 302.12,-247 143.88,-247"/>
</g>
<!-- n_0_1_3_5_6&#45;&gt;n_0_1_3_5 -->
<g id="edge3" class="edge">
<title>n_0_1_3_5_6&#45;&gt;n_0_1_3_5</title>
<path fill="none" stroke="black" d="M276.2,-337.05C267.73,-326.29 258.05,-314 249.29,-302.88"/>
<polygon fill="black" stroke="black" points="252.07,-300.75 243.13,-295.06 246.57,-305.09 252.07,-300.75"/>
</g>
<!-- n_6 -->
<g id="node11" class="node">
<title>n_6</title>
<polygon fill="none" stroke="black" points="348,-255.88 348,-281.12 404,-281.12 404,-255.88 348,-255.88"/>
<text text-anchor="start" x="355" y="-266.57" font-family="Times New Roman,serif" font-weight="bold" font-size="9.00">Obesity III</text>
<polygon fill="none" stroke="black" points="347,-254.88 347,-282.12 405,-282.12 405,-254.88 347,-254.88"/>
</g>
<!-- n_0_1_3_5_6&#45;&gt;n_6 -->
<g id="edge10" class="edge">
<title>n_0_1_3_5_6&#45;&gt;n_6</title>
<path fill="none" stroke="black" d="M322.1,-337.05C332.73,-323.73 345.22,-308.07 355.5,-295.19"/>
<polygon fill="black" stroke="black" points="358.1,-297.55 361.6,-287.55 352.63,-293.18 358.1,-297.55"/>
</g>
<!-- n_1_3_5 -->
<g id="node5" class="node">
<title>n_1_3_5</title>
<polygon fill="none" stroke="black" points="86.5,-163 86.5,-195 154.5,-195 154.5,-163 86.5,-163"/>
<text text-anchor="start" x="105.5" y="-180.45" font-family="Times New Roman,serif" font-weight="bold" font-size="9.00">Normal</text>
<text text-anchor="start" x="93.5" y="-171.45" font-family="Times New Roman,serif" font-weight="bold" font-size="9.00">Overweight II</text>
<polygon fill="none" stroke="black" points="154.5,-163 154.5,-195 207.5,-195 207.5,-163 154.5,-163"/>
<text text-anchor="start" x="161.5" y="-177.07" font-family="Times New Roman,serif" font-weight="bold" font-size="9.00">Obesity II</text>
<polygon fill="none" stroke="black" points="85.5,-162 85.5,-196 208.5,-196 208.5,-162 85.5,-162"/>
</g>
<!-- n_0_1_3_5&#45;&gt;n_1_3_5 -->
<g id="edge4" class="edge">
<title>n_0_1_3_5&#45;&gt;n_1_3_5</title>
<path fill="none" stroke="black" d="M201.83,-243.13C192.47,-232.35 181.41,-219.62 171.68,-208.41"/>
<polygon fill="black" stroke="black" points="174.41,-206.22 165.21,-200.97 169.13,-210.81 174.41,-206.22"/>
</g>
<!-- n_0 -->
<g id="node10" class="node">
<title>n_0</title>
<polygon fill="none" stroke="black" points="254.88,-166.38 254.88,-191.62 343.12,-191.62 343.12,-166.38 254.88,-166.38"/>
<text text-anchor="start" x="261.88" y="-177.07" font-family="Times New Roman,serif" font-weight="bold" font-size="9.00">Insufficient weight</text>
<polygon fill="none" stroke="black" points="253.88,-165.38 253.88,-192.62 344.12,-192.62 344.12,-165.38 253.88,-165.38"/>
</g>
<!-- n_0_1_3_5&#45;&gt;n_0 -->
<g id="edge9" class="edge">
<title>n_0_1_3_5&#45;&gt;n_0</title>
<path fill="none" stroke="black" d="M244.17,-243.13C254.39,-231.36 266.65,-217.25 276.98,-205.36"/>
<polygon fill="black" stroke="black" points="279.53,-207.76 283.44,-197.91 274.24,-203.17 279.53,-207.76"/>
</g>
<!-- n_1_3 -->
<g id="node6" class="node">
<title>n_1_3</title>
<polygon fill="none" stroke="black" points="26,-84.38 26,-109.62 70,-109.62 70,-84.38 26,-84.38"/>
<text text-anchor="start" x="33" y="-95.08" font-family="Times New Roman,serif" font-weight="bold" font-size="9.00">Normal</text>
<polygon fill="none" stroke="black" points="70,-84.38 70,-109.62 138,-109.62 138,-84.38 70,-84.38"/>
<text text-anchor="start" x="77" y="-95.08" font-family="Times New Roman,serif" font-weight="bold" font-size="9.00">Overweight II</text>
<polygon fill="none" stroke="black" points="25,-83.38 25,-110.62 139,-110.62 139,-83.38 25,-83.38"/>
</g>
<!-- n_1_3_5&#45;&gt;n_1_3 -->
<g id="edge5" class="edge">
<title>n_1_3_5&#45;&gt;n_1_3</title>
<path fill="none" stroke="black" d="M130.93,-158.22C122.47,-147.81 112,-134.92 102.92,-123.74"/>
<polygon fill="black" stroke="black" points="105.66,-121.57 96.64,-116.02 100.23,-125.99 105.66,-121.57"/>
</g>
<!-- n_5 -->
<g id="node9" class="node">
<title>n_5</title>
<polygon fill="none" stroke="black" points="185.5,-84.38 185.5,-109.62 238.5,-109.62 238.5,-84.38 185.5,-84.38"/>
<text text-anchor="start" x="192.5" y="-95.08" font-family="Times New Roman,serif" font-weight="bold" font-size="9.00">Obesity II</text>
<polygon fill="none" stroke="black" points="184.5,-83.38 184.5,-110.62 239.5,-110.62 239.5,-83.38 184.5,-83.38"/>
</g>
<!-- n_1_3_5&#45;&gt;n_5 -->
<g id="edge8" class="edge">
<title>n_1_3_5&#45;&gt;n_5</title>
<path fill="none" stroke="black" d="M163.07,-158.22C171.53,-147.81 182,-134.92 191.08,-123.74"/>
<polygon fill="black" stroke="black" points="193.77,-125.99 197.36,-116.02 188.34,-121.57 193.77,-125.99"/>
</g>
<!-- n_1 -->
<g id="node7" class="node">
<title>n_1</title>
<polygon fill="none" stroke="black" points="9,-5.38 9,-30.62 53,-30.62 53,-5.38 9,-5.38"/>
<text text-anchor="start" x="16" y="-16.07" font-family="Times New Roman,serif" font-weight="bold" font-size="9.00">Normal</text>
<polygon fill="none" stroke="black" points="8,-4.38 8,-31.62 54,-31.62 54,-4.38 8,-4.38"/>
</g>
<!-- n_1_3&#45;&gt;n_1 -->
<g id="edge6" class="edge">
<title>n_1_3&#45;&gt;n_1</title>
<path fill="none" stroke="black" d="M70.93,-79.29C64.36,-69.37 55.89,-56.57 48.43,-45.32"/>
<polygon fill="black" stroke="black" points="51.5,-43.61 43.06,-37.2 45.66,-47.47 51.5,-43.61"/>
</g>
<!-- n_3 -->
<g id="node8" class="node">
<title>n_3</title>
<polygon fill="none" stroke="black" points="100,-5.38 100,-30.62 168,-30.62 168,-5.38 100,-5.38"/>
<text text-anchor="start" x="107" y="-16.07" font-family="Times New Roman,serif" font-weight="bold" font-size="9.00">Overweight II</text>
<polygon fill="none" stroke="black" points="99,-4.38 99,-31.62 169,-31.62 169,-4.38 99,-4.38"/>
</g>
<!-- n_1_3&#45;&gt;n_3 -->
<g id="edge7" class="edge">
<title>n_1_3&#45;&gt;n_3</title>
<path fill="none" stroke="black" d="M93.28,-79.29C99.98,-69.37 108.63,-56.57 116.23,-45.32"/>
<polygon fill="black" stroke="black" points="119.02,-47.44 121.71,-37.2 113.22,-43.52 119.02,-47.44"/>
</g>
</g>
</svg>
