<?xml version="1.0" encoding="UTF-8" standalone="no"?>
<!DOCTYPE svg PUBLIC "-//W3C//DTD SVG 1.1//EN"
 "http://www.w3.org/Graphics/SVG/1.1/DTD/svg11.dtd">
<!-- Generated by graphviz version 10.0.1 (20240210.2158)
 -->
<!-- Title: ND Pages: 1 -->
<svg width="584pt" height="526pt"
 viewBox="0.00 0.00 584.00 526.00" xmlns="http://www.w3.org/2000/svg" xmlns:xlink="http://www.w3.org/1999/xlink">
<g id="graph0" class="graph" transform="scale(1 1) rotate(0) translate(4 522)">
<title>ND</title>
<polygon fill="white" stroke="none" points="-4,4 -4,-522 580,-522 580,4 -4,4"/>
<!-- n_0_1_2_3_4_5_6 -->
<g id="node1" class="node">
<title>n_0_1_2_3_4_5_6</title>
<polygon fill="none" stroke="black" points="360.38,-445 360.38,-513 448.62,-513 448.62,-445 360.38,-445"/>
<text text-anchor="start" x="367.38" y="-498.45" font-family="Times New Roman,serif" font-weight="bold" font-size="9.00">Insufficient weight</text>
<text text-anchor="start" x="389.5" y="-489.45" font-family="Times New Roman,serif" font-weight="bold" font-size="9.00">Normal</text>
<text text-anchor="start" x="377.5" y="-480.45" font-family="Times New Roman,serif" font-weight="bold" font-size="9.00">Overweight II</text>
<text text-anchor="start" x="386.5" y="-471.45" font-family="Times New Roman,serif" font-weight="bold" font-size="9.00">Obesity I</text>
<text text-anchor="start" x="385" y="-462.45" font-family="Times New Roman,serif" font-weight="bold" font-size="9.00">Obesity II</text>
<text text-anchor="start" x="383.5" y="-453.45" font-family="Times New Roman,serif" font-weight="bold" font-size="9.00">Obesity III</text>
<polygon fill="none" stroke="black" points="448.62,-445 448.62,-513 513.62,-513 513.62,-445 448.62,-445"/>
<text text-anchor="start" x="455.62" y="-477.07" font-family="Times New Roman,serif" font-weight="bold" font-size="9.00">Overweight I</text>
<polygon fill="none" stroke="black" points="359.38,-444 359.38,-514 514.62,-514 514.62,-444 359.38,-444"/>
</g>
<!-- n_0_1_3_4_5_6 -->
<g id="node2" class="node">
<title>n_0_1_3_4_5_6</title>
<polygon fill="none" stroke="black" points="279.88,-342 279.88,-392 347.88,-392 347.88,-342 279.88,-342"/>
<text text-anchor="start" x="286.88" y="-377.45" font-family="Times New Roman,serif" font-weight="bold" font-size="9.00">Overweight II</text>
<text text-anchor="start" x="295.88" y="-368.45" font-family="Times New Roman,serif" font-weight="bold" font-size="9.00">Obesity I</text>
<text text-anchor="start" x="294.38" y="-359.45" font-family="Times New Roman,serif" font-weight="bold" font-size="9.00">Obesity II</text>
<text text-anchor="start" x="292.88" y="-350.45" font-family="Times New Roman,serif" font-weight="bold" font-size="9.00">Obesity III</text>
<polygon fill="none" stroke="black" points="347.88,-342 347.88,-392 436.12,-392 436.12,-342 347.88,-342"/>
<text text-anchor="start" x="354.88" y="-368.45" font-family="Times New Roman,serif" font-weight="bold" font-size="9.00">Insufficient weight</text>
<text text-anchor="start" x="377" y="-359.45" font-family="Times New Roman,serif" font-weight="bold" font-size="9.00">Normal</text>
<polygon fill="none" stroke="black" points="278.88,-341 278.88,-393 437.12,-393 437.12,-341 278.88,-341"/>
</g>
<!-- n_0_1_2_3_4_5_6&#45;&gt;n_0_1_3_4_5_6 -->
<g id="edge1" class="edge">
<title>n_0_1_2_3_4_5_6&#45;&gt;n_0_1_3_4_5_6</title>
<path fill="none" stroke="black" d="M409.81,-440.14C401.94,-429.19 393.35,-417.22 385.46,-406.23"/>
<polygon fill="black" stroke="black" points="388.31,-404.2 379.63,-398.12 382.62,-408.28 388.31,-404.2"/>
</g>
<!-- n_2 -->
<g id="node13" class="node">
<title>n_2</title>
<polygon fill="none" stroke="black" points="483.5,-354.38 483.5,-379.62 548.5,-379.62 548.5,-354.38 483.5,-354.38"/>
<text text-anchor="start" x="490.5" y="-365.07" font-family="Times New Roman,serif" font-weight="bold" font-size="9.00">Overweight I</text>
<polygon fill="none" stroke="black" points="482.5,-353.38 482.5,-380.62 549.5,-380.62 549.5,-353.38 482.5,-353.38"/>
</g>
<!-- n_0_1_2_3_4_5_6&#45;&gt;n_2 -->
<g id="edge12" class="edge">
<title>n_0_1_2_3_4_5_6&#45;&gt;n_2</title>
<path fill="none" stroke="black" d="M464.19,-440.14C475.03,-425.04 487.26,-408.02 497.11,-394.31"/>
<polygon fill="black" stroke="black" points="499.93,-396.38 502.92,-386.21 494.24,-392.29 499.93,-396.38"/>
</g>
<!-- n_3_4_5_6 -->
<g id="node3" class="node">
<title>n_3_4_5_6</title>
<polygon fill="none" stroke="black" points="209,-248 209,-289 277,-289 277,-248 209,-248"/>
<text text-anchor="start" x="216" y="-274.45" font-family="Times New Roman,serif" font-weight="bold" font-size="9.00">Overweight II</text>
<text text-anchor="start" x="225" y="-265.45" font-family="Times New Roman,serif" font-weight="bold" font-size="9.00">Obesity I</text>
<text text-anchor="start" x="223.5" y="-256.45" font-family="Times New Roman,serif" font-weight="bold" font-size="9.00">Obesity II</text>
<polygon fill="none" stroke="black" points="277,-248 277,-289 333,-289 333,-248 277,-248"/>
<text text-anchor="start" x="284" y="-266.57" font-family="Times New Roman,serif" font-weight="bold" font-size="9.00">Obesity III</text>
<polygon fill="none" stroke="black" points="208,-247 208,-290 334,-290 334,-247 208,-247"/>
</g>
<!-- n_0_1_3_4_5_6&#45;&gt;n_3_4_5_6 -->
<g id="edge2" class="edge">
<title>n_0_1_3_4_5_6&#45;&gt;n_3_4_5_6</title>
<path fill="none" stroke="black" d="M331.9,-337.05C322.01,-326.08 310.68,-313.51 300.5,-302.22"/>
<polygon fill="black" stroke="black" points="303.28,-300.08 293.99,-295 298.08,-304.77 303.28,-300.08"/>
</g>
<!-- n_0_1 -->
<g id="node10" class="node">
<title>n_0_1</title>
<polygon fill="none" stroke="black" points="379.88,-255.88 379.88,-281.12 468.12,-281.12 468.12,-255.88 379.88,-255.88"/>
<text text-anchor="start" x="386.88" y="-266.57" font-family="Times New Roman,serif" font-weight="bold" font-size="9.00">Insufficient weight</text>
<polygon fill="none" stroke="black" points="468.12,-255.88 468.12,-281.12 512.12,-281.12 512.12,-255.88 468.12,-255.88"/>
<text text-anchor="start" x="475.12" y="-266.57" font-family="Times New Roman,serif" font-weight="bold" font-size="9.00">Normal</text>
<polygon fill="none" stroke="black" points="378.88,-254.88 378.88,-282.12 513.12,-282.12 513.12,-254.88 378.88,-254.88"/>
</g>
<!-- n_0_1_3_4_5_6&#45;&gt;n_0_1 -->
<g id="edge9" class="edge">
<title>n_0_1_3_4_5_6&#45;&gt;n_0_1</title>
<path fill="none" stroke="black" d="M384.4,-337.05C396.66,-323.6 411.1,-307.77 422.92,-294.81"/>
<polygon fill="black" stroke="black" points="425.45,-297.23 429.6,-287.48 420.28,-292.51 425.45,-297.23"/>
</g>
<!-- n_3_4_5 -->
<g id="node4" class="node">
<title>n_3_4_5</title>
<polygon fill="none" stroke="black" points="88.5,-163 88.5,-195 141.5,-195 141.5,-163 88.5,-163"/>
<text text-anchor="start" x="97" y="-180.45" font-family="Times New Roman,serif" font-weight="bold" font-size="9.00">Obesity I</text>
<text text-anchor="start" x="95.5" y="-171.45" font-family="Times New Roman,serif" font-weight="bold" font-size="9.00">Obesity II</text>
<polygon fill="none" stroke="black" points="141.5,-163 141.5,-195 209.5,-195 209.5,-163 141.5,-163"/>
<text text-anchor="start" x="148.5" y="-177.07" font-family="Times New Roman,serif" font-weight="bold" font-size="9.00">Overweight II</text>
<polygon fill="none" stroke="black" points="87.5,-162 87.5,-196 210.5,-196 210.5,-162 87.5,-162"/>
</g>
<!-- n_3_4_5_6&#45;&gt;n_3_4_5 -->
<g id="edge3" class="edge">
<title>n_3_4_5_6&#45;&gt;n_3_4_5</title>
<path fill="none" stroke="black" d="M237.02,-243.13C221.1,-231.71 202.12,-218.1 185.86,-206.43"/>
<polygon fill="black" stroke="black" points="188.04,-203.69 177.87,-200.71 183.96,-209.38 188.04,-203.69"/>
</g>
<!-- n_6 -->
<g id="node9" class="node">
<title>n_6</title>
<polygon fill="none" stroke="black" points="257,-166.38 257,-191.62 313,-191.62 313,-166.38 257,-166.38"/>
<text text-anchor="start" x="264" y="-177.07" font-family="Times New Roman,serif" font-weight="bold" font-size="9.00">Obesity III</text>
<polygon fill="none" stroke="black" points="256,-165.38 256,-192.62 314,-192.62 314,-165.38 256,-165.38"/>
</g>
<!-- n_3_4_5_6&#45;&gt;n_6 -->
<g id="edge8" class="edge">
<title>n_3_4_5_6&#45;&gt;n_6</title>
<path fill="none" stroke="black" d="M274.9,-243.13C276.65,-232.17 278.73,-219.18 280.55,-207.84"/>
<polygon fill="black" stroke="black" points="283.95,-208.69 282.08,-198.27 277.04,-207.59 283.95,-208.69"/>
</g>
<!-- n_4_5 -->
<g id="node5" class="node">
<title>n_4_5</title>
<polygon fill="none" stroke="black" points="31.5,-84.38 31.5,-109.62 81.5,-109.62 81.5,-84.38 31.5,-84.38"/>
<text text-anchor="start" x="38.5" y="-95.08" font-family="Times New Roman,serif" font-weight="bold" font-size="9.00">Obesity I</text>
<polygon fill="none" stroke="black" points="81.5,-84.38 81.5,-109.62 134.5,-109.62 134.5,-84.38 81.5,-84.38"/>
<text text-anchor="start" x="88.5" y="-95.08" font-family="Times New Roman,serif" font-weight="bold" font-size="9.00">Obesity II</text>
<polygon fill="none" stroke="black" points="30.5,-83.38 30.5,-110.62 135.5,-110.62 135.5,-83.38 30.5,-83.38"/>
</g>
<!-- n_3_4_5&#45;&gt;n_4_5 -->
<g id="edge4" class="edge">
<title>n_3_4_5&#45;&gt;n_4_5</title>
<path fill="none" stroke="black" d="M132.69,-158.22C124.01,-147.71 113.25,-134.66 103.96,-123.41"/>
<polygon fill="black" stroke="black" points="106.92,-121.5 97.86,-116.01 101.52,-125.95 106.92,-121.5"/>
</g>
<!-- n_3 -->
<g id="node8" class="node">
<title>n_3</title>
<polygon fill="none" stroke="black" points="182,-84.38 182,-109.62 250,-109.62 250,-84.38 182,-84.38"/>
<text text-anchor="start" x="189" y="-95.08" font-family="Times New Roman,serif" font-weight="bold" font-size="9.00">Overweight II</text>
<polygon fill="none" stroke="black" points="181,-83.38 181,-110.62 251,-110.62 251,-83.38 181,-83.38"/>
</g>
<!-- n_3_4_5&#45;&gt;n_3 -->
<g id="edge7" class="edge">
<title>n_3_4_5&#45;&gt;n_3</title>
<path fill="none" stroke="black" d="M165.56,-158.22C174.37,-147.71 185.29,-134.66 194.72,-123.41"/>
<polygon fill="black" stroke="black" points="197.18,-125.92 200.92,-116 191.82,-121.42 197.18,-125.92"/>
</g>
<!-- n_4 -->
<g id="node6" class="node">
<title>n_4</title>
<polygon fill="none" stroke="black" points="9,-5.38 9,-30.62 59,-30.62 59,-5.38 9,-5.38"/>
<text text-anchor="start" x="16" y="-16.07" font-family="Times New Roman,serif" font-weight="bold" font-size="9.00">Obesity I</text>
<polygon fill="none" stroke="black" points="8,-4.38 8,-31.62 60,-31.62 60,-4.38 8,-4.38"/>
</g>
<!-- n_4_5&#45;&gt;n_4 -->
<g id="edge5" class="edge">
<title>n_4_5&#45;&gt;n_4</title>
<path fill="none" stroke="black" d="M72.37,-79.29C66.05,-69.37 57.91,-56.57 50.75,-45.32"/>
<polygon fill="black" stroke="black" points="53.91,-43.78 45.59,-37.22 48.01,-47.53 53.91,-43.78"/>
</g>
<!-- n_5 -->
<g id="node7" class="node">
<title>n_5</title>
<polygon fill="none" stroke="black" points="106.5,-5.38 106.5,-30.62 159.5,-30.62 159.5,-5.38 106.5,-5.38"/>
<text text-anchor="start" x="113.5" y="-16.07" font-family="Times New Roman,serif" font-weight="bold" font-size="9.00">Obesity II</text>
<polygon fill="none" stroke="black" points="105.5,-4.38 105.5,-31.62 160.5,-31.62 160.5,-4.38 105.5,-4.38"/>
</g>
<!-- n_4_5&#45;&gt;n_5 -->
<g id="edge6" class="edge">
<title>n_4_5&#45;&gt;n_5</title>
<path fill="none" stroke="black" d="M93.85,-79.29C100.29,-69.37 108.6,-56.57 115.91,-45.32"/>
<polygon fill="black" stroke="black" points="118.66,-47.5 121.17,-37.21 112.79,-43.69 118.66,-47.5"/>
</g>
<!-- n_0 -->
<g id="node11" class="node">
<title>n_0</title>
<polygon fill="none" stroke="black" points="387.88,-166.38 387.88,-191.62 476.12,-191.62 476.12,-166.38 387.88,-166.38"/>
<text text-anchor="start" x="394.88" y="-177.07" font-family="Times New Roman,serif" font-weight="bold" font-size="9.00">Insufficient weight</text>
<polygon fill="none" stroke="black" points="386.88,-165.38 386.88,-192.62 477.12,-192.62 477.12,-165.38 386.88,-165.38"/>
</g>
<!-- n_0_1&#45;&gt;n_0 -->
<g id="edge10" class="edge">
<title>n_0_1&#45;&gt;n_0</title>
<path fill="none" stroke="black" d="M443.3,-250.63C441.36,-238.52 438.71,-221.94 436.46,-207.88"/>
<polygon fill="black" stroke="black" points="439.97,-207.64 434.93,-198.31 433.05,-208.74 439.97,-207.64"/>
</g>
<!-- n_1 -->
<g id="node12" class="node">
<title>n_1</title>
<polygon fill="none" stroke="black" points="523,-166.38 523,-191.62 567,-191.62 567,-166.38 523,-166.38"/>
<text text-anchor="start" x="530" y="-177.07" font-family="Times New Roman,serif" font-weight="bold" font-size="9.00">Normal</text>
<polygon fill="none" stroke="black" points="522,-165.38 522,-192.62 568,-192.62 568,-165.38 522,-165.38"/>
</g>
<!-- n_0_1&#45;&gt;n_1 -->
<g id="edge11" class="edge">
<title>n_0_1&#45;&gt;n_1</title>
<path fill="none" stroke="black" d="M465.09,-250.63C480.02,-237.43 500.97,-218.92 517.68,-204.15"/>
<polygon fill="black" stroke="black" points="519.66,-207.07 524.84,-197.82 515.03,-201.82 519.66,-207.07"/>
</g>
</g>
</svg>
