<?xml version="1.0" encoding="UTF-8" standalone="no"?>
<!DOCTYPE svg PUBLIC "-//W3C//DTD SVG 1.1//EN"
 "http://www.w3.org/Graphics/SVG/1.1/DTD/svg11.dtd">
<!-- Generated by graphviz version 10.0.1 (20240210.2158)
 -->
<!-- Title: ND Pages: 1 -->
<svg width="604pt" height="638pt"
 viewBox="0.00 0.00 603.62 638.00" xmlns="http://www.w3.org/2000/svg" xmlns:xlink="http://www.w3.org/1999/xlink">
<g id="graph0" class="graph" transform="scale(1 1) rotate(0) translate(4 634)">
<title>ND</title>
<polygon fill="white" stroke="none" points="-4,4 -4,-634 599.62,-634 599.62,4 -4,4"/>
<!-- n_0_1_2_3_4_5_6 -->
<g id="node1" class="node">
<title>n_0_1_2_3_4_5_6</title>
<polygon fill="none" stroke="black" points="401.5,-557 401.5,-625 489.75,-625 489.75,-557 401.5,-557"/>
<text text-anchor="start" x="408.5" y="-610.45" font-family="Times New Roman,serif" font-weight="bold" font-size="9.00">Insufficient weight</text>
<text text-anchor="start" x="430.62" y="-601.45" font-family="Times New Roman,serif" font-weight="bold" font-size="9.00">Normal</text>
<text text-anchor="start" x="418.62" y="-592.45" font-family="Times New Roman,serif" font-weight="bold" font-size="9.00">Overweight II</text>
<text text-anchor="start" x="427.62" y="-583.45" font-family="Times New Roman,serif" font-weight="bold" font-size="9.00">Obesity I</text>
<text text-anchor="start" x="426.12" y="-574.45" font-family="Times New Roman,serif" font-weight="bold" font-size="9.00">Obesity II</text>
<text text-anchor="start" x="424.62" y="-565.45" font-family="Times New Roman,serif" font-weight="bold" font-size="9.00">Obesity III</text>
<polygon fill="none" stroke="black" points="489.75,-557 489.75,-625 554.75,-625 554.75,-557 489.75,-557"/>
<text text-anchor="start" x="496.75" y="-589.08" font-family="Times New Roman,serif" font-weight="bold" font-size="9.00">Overweight I</text>
<polygon fill="none" stroke="black" points="400.5,-556 400.5,-626 555.75,-626 555.75,-556 400.5,-556"/>
</g>
<!-- n_0_1_3_4_5_6 -->
<g id="node2" class="node">
<title>n_0_1_3_4_5_6</title>
<polygon fill="none" stroke="black" points="330,-445 330,-504 418.25,-504 418.25,-445 330,-445"/>
<text text-anchor="start" x="337" y="-489.45" font-family="Times New Roman,serif" font-weight="bold" font-size="9.00">Insufficient weight</text>
<text text-anchor="start" x="359.12" y="-480.45" font-family="Times New Roman,serif" font-weight="bold" font-size="9.00">Normal</text>
<text text-anchor="start" x="347.12" y="-471.45" font-family="Times New Roman,serif" font-weight="bold" font-size="9.00">Overweight II</text>
<text text-anchor="start" x="356.12" y="-462.45" font-family="Times New Roman,serif" font-weight="bold" font-size="9.00">Obesity I</text>
<text text-anchor="start" x="354.62" y="-453.45" font-family="Times New Roman,serif" font-weight="bold" font-size="9.00">Obesity II</text>
<polygon fill="none" stroke="black" points="418.25,-445 418.25,-504 474.25,-504 474.25,-445 418.25,-445"/>
<text text-anchor="start" x="425.25" y="-472.57" font-family="Times New Roman,serif" font-weight="bold" font-size="9.00">Obesity III</text>
<polygon fill="none" stroke="black" points="329,-444 329,-505 475.25,-505 475.25,-444 329,-444"/>
</g>
<!-- n_0_1_2_3_4_5_6&#45;&gt;n_0_1_3_4_5_6 -->
<g id="edge1" class="edge">
<title>n_0_1_2_3_4_5_6&#45;&gt;n_0_1_3_4_5_6</title>
<path fill="none" stroke="black" d="M453.03,-552.19C445.81,-541.31 437.88,-529.36 430.47,-518.21"/>
<polygon fill="black" stroke="black" points="433.41,-516.31 424.97,-509.91 427.58,-520.18 433.41,-516.31"/>
</g>
<!-- n_2 -->
<g id="node13" class="node">
<title>n_2</title>
<polygon fill="none" stroke="black" points="521.62,-461.88 521.62,-487.12 586.62,-487.12 586.62,-461.88 521.62,-461.88"/>
<text text-anchor="start" x="528.62" y="-472.57" font-family="Times New Roman,serif" font-weight="bold" font-size="9.00">Overweight I</text>
<polygon fill="none" stroke="black" points="520.62,-460.88 520.62,-488.12 587.62,-488.12 587.62,-460.88 520.62,-460.88"/>
</g>
<!-- n_0_1_2_3_4_5_6&#45;&gt;n_2 -->
<g id="edge12" class="edge">
<title>n_0_1_2_3_4_5_6&#45;&gt;n_2</title>
<path fill="none" stroke="black" d="M503.22,-552.19C514.22,-535.63 526.85,-516.6 536.78,-501.64"/>
<polygon fill="black" stroke="black" points="539.41,-503.99 542.03,-493.72 533.58,-500.12 539.41,-503.99"/>
</g>
<!-- n_0_1_3_4_5 -->
<g id="node3" class="node">
<title>n_0_1_3_4_5</title>
<polygon fill="none" stroke="black" points="261,-342 261,-392 349.25,-392 349.25,-342 261,-342"/>
<text text-anchor="start" x="268" y="-377.45" font-family="Times New Roman,serif" font-weight="bold" font-size="9.00">Insufficient weight</text>
<text text-anchor="start" x="290.12" y="-368.45" font-family="Times New Roman,serif" font-weight="bold" font-size="9.00">Normal</text>
<text text-anchor="start" x="278.12" y="-359.45" font-family="Times New Roman,serif" font-weight="bold" font-size="9.00">Overweight II</text>
<text text-anchor="start" x="285.62" y="-350.45" font-family="Times New Roman,serif" font-weight="bold" font-size="9.00">Obesity II</text>
<polygon fill="none" stroke="black" points="349.25,-342 349.25,-392 399.25,-392 399.25,-342 349.25,-342"/>
<text text-anchor="start" x="356.25" y="-365.07" font-family="Times New Roman,serif" font-weight="bold" font-size="9.00">Obesity I</text>
<polygon fill="none" stroke="black" points="260,-341 260,-393 400.25,-393 400.25,-341 260,-341"/>
</g>
<!-- n_0_1_3_4_5_6&#45;&gt;n_0_1_3_4_5 -->
<g id="edge2" class="edge">
<title>n_0_1_3_4_5_6&#45;&gt;n_0_1_3_4_5</title>
<path fill="none" stroke="black" d="M379.34,-440.12C372.01,-429.38 363.84,-417.4 356.29,-406.33"/>
<polygon fill="black" stroke="black" points="359.23,-404.44 350.7,-398.15 353.45,-408.38 359.23,-404.44"/>
</g>
<!-- n_6 -->
<g id="node12" class="node">
<title>n_6</title>
<polygon fill="none" stroke="black" points="446.12,-354.38 446.12,-379.62 502.12,-379.62 502.12,-354.38 446.12,-354.38"/>
<text text-anchor="start" x="453.12" y="-365.07" font-family="Times New Roman,serif" font-weight="bold" font-size="9.00">Obesity III</text>
<polygon fill="none" stroke="black" points="445.12,-353.38 445.12,-380.62 503.12,-380.62 503.12,-353.38 445.12,-353.38"/>
</g>
<!-- n_0_1_3_4_5_6&#45;&gt;n_6 -->
<g id="edge11" class="edge">
<title>n_0_1_3_4_5_6&#45;&gt;n_6</title>
<path fill="none" stroke="black" d="M424.91,-440.12C434.98,-425.35 446.67,-408.23 456.12,-394.38"/>
<polygon fill="black" stroke="black" points="458.96,-396.43 461.7,-386.2 453.18,-392.49 458.96,-396.43"/>
</g>
<!-- n_0_1_3_5 -->
<g id="node4" class="node">
<title>n_0_1_3_5</title>
<polygon fill="none" stroke="black" points="195,-248 195,-289 283.25,-289 283.25,-248 195,-248"/>
<text text-anchor="start" x="202" y="-274.45" font-family="Times New Roman,serif" font-weight="bold" font-size="9.00">Insufficient weight</text>
<text text-anchor="start" x="212.12" y="-265.45" font-family="Times New Roman,serif" font-weight="bold" font-size="9.00">Overweight II</text>
<text text-anchor="start" x="219.62" y="-256.45" font-family="Times New Roman,serif" font-weight="bold" font-size="9.00">Obesity II</text>
<polygon fill="none" stroke="black" points="283.25,-248 283.25,-289 327.25,-289 327.25,-248 283.25,-248"/>
<text text-anchor="start" x="290.25" y="-266.57" font-family="Times New Roman,serif" font-weight="bold" font-size="9.00">Normal</text>
<polygon fill="none" stroke="black" points="194,-247 194,-290 328.25,-290 328.25,-247 194,-247"/>
</g>
<!-- n_0_1_3_4_5&#45;&gt;n_0_1_3_5 -->
<g id="edge3" class="edge">
<title>n_0_1_3_4_5&#45;&gt;n_0_1_3_5</title>
<path fill="none" stroke="black" d="M309.42,-337.05C301.81,-326.4 293.12,-314.25 285.23,-303.22"/>
<polygon fill="black" stroke="black" points="288.1,-301.2 279.43,-295.11 282.4,-305.28 288.1,-301.2"/>
</g>
<!-- n_4 -->
<g id="node11" class="node">
<title>n_4</title>
<polygon fill="none" stroke="black" points="374.12,-255.88 374.12,-281.12 424.12,-281.12 424.12,-255.88 374.12,-255.88"/>
<text text-anchor="start" x="381.12" y="-266.57" font-family="Times New Roman,serif" font-weight="bold" font-size="9.00">Obesity I</text>
<polygon fill="none" stroke="black" points="373.12,-254.88 373.12,-282.12 425.12,-282.12 425.12,-254.88 373.12,-254.88"/>
</g>
<!-- n_0_1_3_4_5&#45;&gt;n_4 -->
<g id="edge10" class="edge">
<title>n_0_1_3_4_5&#45;&gt;n_4</title>
<path fill="none" stroke="black" d="M350.83,-337.05C360.25,-323.86 371.33,-308.38 380.49,-295.56"/>
<polygon fill="black" stroke="black" points="383.22,-297.77 386.19,-287.6 377.52,-293.7 383.22,-297.77"/>
</g>
<!-- n_0_3_5 -->
<g id="node5" class="node">
<title>n_0_3_5</title>
<polygon fill="none" stroke="black" points="110,-163 110,-195 198.25,-195 198.25,-163 110,-163"/>
<text text-anchor="start" x="117" y="-180.45" font-family="Times New Roman,serif" font-weight="bold" font-size="9.00">Insufficient weight</text>
<text text-anchor="start" x="134.62" y="-171.45" font-family="Times New Roman,serif" font-weight="bold" font-size="9.00">Obesity II</text>
<polygon fill="none" stroke="black" points="198.25,-163 198.25,-195 266.25,-195 266.25,-163 198.25,-163"/>
<text text-anchor="start" x="205.25" y="-177.07" font-family="Times New Roman,serif" font-weight="bold" font-size="9.00">Overweight II</text>
<polygon fill="none" stroke="black" points="109,-162 109,-196 267.25,-196 267.25,-162 109,-162"/>
</g>
<!-- n_0_1_3_5&#45;&gt;n_0_3_5 -->
<g id="edge4" class="edge">
<title>n_0_1_3_5&#45;&gt;n_0_3_5</title>
<path fill="none" stroke="black" d="M240.79,-243.13C231.8,-232.35 221.18,-219.62 211.83,-208.41"/>
<polygon fill="black" stroke="black" points="214.73,-206.42 205.64,-200.99 209.35,-210.91 214.73,-206.42"/>
</g>
<!-- n_1 -->
<g id="node10" class="node">
<title>n_1</title>
<polygon fill="none" stroke="black" points="313.12,-166.38 313.12,-191.62 357.12,-191.62 357.12,-166.38 313.12,-166.38"/>
<text text-anchor="start" x="320.12" y="-177.07" font-family="Times New Roman,serif" font-weight="bold" font-size="9.00">Normal</text>
<polygon fill="none" stroke="black" points="312.12,-165.38 312.12,-192.62 358.12,-192.62 358.12,-165.38 312.12,-165.38"/>
</g>
<!-- n_0_1_3_5&#45;&gt;n_1 -->
<g id="edge9" class="edge">
<title>n_0_1_3_5&#45;&gt;n_1</title>
<path fill="none" stroke="black" d="M281.74,-243.13C291.69,-231.36 303.62,-217.25 313.68,-205.36"/>
<polygon fill="black" stroke="black" points="316.18,-207.82 319.96,-197.93 310.83,-203.3 316.18,-207.82"/>
</g>
<!-- n_0_5 -->
<g id="node6" class="node">
<title>n_0_5</title>
<polygon fill="none" stroke="black" points="41.5,-84.38 41.5,-109.62 129.75,-109.62 129.75,-84.38 41.5,-84.38"/>
<text text-anchor="start" x="48.5" y="-95.08" font-family="Times New Roman,serif" font-weight="bold" font-size="9.00">Insufficient weight</text>
<polygon fill="none" stroke="black" points="129.75,-84.38 129.75,-109.62 182.75,-109.62 182.75,-84.38 129.75,-84.38"/>
<text text-anchor="start" x="136.75" y="-95.08" font-family="Times New Roman,serif" font-weight="bold" font-size="9.00">Obesity II</text>
<polygon fill="none" stroke="black" points="40.5,-83.38 40.5,-110.62 183.75,-110.62 183.75,-83.38 40.5,-83.38"/>
</g>
<!-- n_0_3_5&#45;&gt;n_0_5 -->
<g id="edge5" class="edge">
<title>n_0_3_5&#45;&gt;n_0_5</title>
<path fill="none" stroke="black" d="M169.34,-158.22C159.25,-147.61 146.71,-134.41 135.94,-123.07"/>
<polygon fill="black" stroke="black" points="138.59,-120.78 129.17,-115.94 133.52,-125.6 138.59,-120.78"/>
</g>
<!-- n_3 -->
<g id="node9" class="node">
<title>n_3</title>
<polygon fill="none" stroke="black" points="230.12,-84.38 230.12,-109.62 298.12,-109.62 298.12,-84.38 230.12,-84.38"/>
<text text-anchor="start" x="237.12" y="-95.08" font-family="Times New Roman,serif" font-weight="bold" font-size="9.00">Overweight II</text>
<polygon fill="none" stroke="black" points="229.12,-83.38 229.12,-110.62 299.12,-110.62 299.12,-83.38 229.12,-83.38"/>
</g>
<!-- n_0_3_5&#45;&gt;n_3 -->
<g id="edge8" class="edge">
<title>n_0_3_5&#45;&gt;n_3</title>
<path fill="none" stroke="black" d="M206.91,-158.22C217,-147.61 229.54,-134.41 240.31,-123.07"/>
<polygon fill="black" stroke="black" points="242.73,-125.6 247.08,-115.94 237.66,-120.78 242.73,-125.6"/>
</g>
<!-- n_0 -->
<g id="node7" class="node">
<title>n_0</title>
<polygon fill="none" stroke="black" points="9,-5.38 9,-30.62 97.25,-30.62 97.25,-5.38 9,-5.38"/>
<text text-anchor="start" x="16" y="-16.07" font-family="Times New Roman,serif" font-weight="bold" font-size="9.00">Insufficient weight</text>
<polygon fill="none" stroke="black" points="8,-4.38 8,-31.62 98.25,-31.62 98.25,-4.38 8,-4.38"/>
</g>
<!-- n_0_5&#45;&gt;n_0 -->
<g id="edge6" class="edge">
<title>n_0_5&#45;&gt;n_0</title>
<path fill="none" stroke="black" d="M99.32,-79.29C91.64,-69.27 81.72,-56.31 73.03,-44.98"/>
<polygon fill="black" stroke="black" points="75.89,-42.95 67.03,-37.14 70.33,-47.21 75.89,-42.95"/>
</g>
<!-- n_5 -->
<g id="node8" class="node">
<title>n_5</title>
<polygon fill="none" stroke="black" points="144.62,-5.38 144.62,-30.62 197.62,-30.62 197.62,-5.38 144.62,-5.38"/>
<text text-anchor="start" x="151.62" y="-16.07" font-family="Times New Roman,serif" font-weight="bold" font-size="9.00">Obesity II</text>
<polygon fill="none" stroke="black" points="143.62,-4.38 143.62,-31.62 198.62,-31.62 198.62,-4.38 143.62,-4.38"/>
</g>
<!-- n_0_5&#45;&gt;n_5 -->
<g id="edge7" class="edge">
<title>n_0_5&#45;&gt;n_5</title>
<path fill="none" stroke="black" d="M124.93,-79.29C132.61,-69.27 142.53,-56.31 151.22,-44.98"/>
<polygon fill="black" stroke="black" points="153.92,-47.21 157.22,-37.14 148.36,-42.95 153.92,-47.21"/>
</g>
</g>
</svg>
