<?xml version="1.0" encoding="UTF-8" standalone="no"?>
<!DOCTYPE svg PUBLIC "-//W3C//DTD SVG 1.1//EN"
 "http://www.w3.org/Graphics/SVG/1.1/DTD/svg11.dtd">
<!-- Generated by graphviz version 10.0.1 (20240210.2158)
 -->
<!-- Title: ND Pages: 1 -->
<svg width="610pt" height="432pt"
 viewBox="0.00 0.00 610.00 432.00" xmlns="http://www.w3.org/2000/svg" xmlns:xlink="http://www.w3.org/1999/xlink">
<g id="graph0" class="graph" transform="scale(1 1) rotate(0) translate(4 428)">
<title>ND</title>
<polygon fill="white" stroke="none" points="-4,4 -4,-428 606,-428 606,4 -4,4"/>
<!-- n_0_1_2_3_4_5_6 -->
<g id="node1" class="node">
<title>n_0_1_2_3_4_5_6</title>
<polygon fill="none" stroke="black" points="354.88,-351 354.88,-419 443.12,-419 443.12,-351 354.88,-351"/>
<text text-anchor="start" x="361.88" y="-404.45" font-family="Times New Roman,serif" font-weight="bold" font-size="9.00">Insufficient weight</text>
<text text-anchor="start" x="384" y="-395.45" font-family="Times New Roman,serif" font-weight="bold" font-size="9.00">Normal</text>
<text text-anchor="start" x="373.5" y="-386.45" font-family="Times New Roman,serif" font-weight="bold" font-size="9.00">Overweight I</text>
<text text-anchor="start" x="372" y="-377.45" font-family="Times New Roman,serif" font-weight="bold" font-size="9.00">Overweight II</text>
<text text-anchor="start" x="381" y="-368.45" font-family="Times New Roman,serif" font-weight="bold" font-size="9.00">Obesity I</text>
<text text-anchor="start" x="379.5" y="-359.45" font-family="Times New Roman,serif" font-weight="bold" font-size="9.00">Obesity II</text>
<polygon fill="none" stroke="black" points="443.12,-351 443.12,-419 499.12,-419 499.12,-351 443.12,-351"/>
<text text-anchor="start" x="450.12" y="-383.07" font-family="Times New Roman,serif" font-weight="bold" font-size="9.00">Obesity III</text>
<polygon fill="none" stroke="black" points="353.88,-350 353.88,-420 500.12,-420 500.12,-350 353.88,-350"/>
</g>
<!-- n_0_1_2_3_4_5 -->
<g id="node2" class="node">
<title>n_0_1_2_3_4_5</title>
<polygon fill="none" stroke="black" points="274.38,-248 274.38,-298 339.38,-298 339.38,-248 274.38,-248"/>
<text text-anchor="start" x="291.88" y="-283.45" font-family="Times New Roman,serif" font-weight="bold" font-size="9.00">Normal</text>
<text text-anchor="start" x="281.38" y="-274.45" font-family="Times New Roman,serif" font-weight="bold" font-size="9.00">Overweight I</text>
<text text-anchor="start" x="288.88" y="-265.45" font-family="Times New Roman,serif" font-weight="bold" font-size="9.00">Obesity I</text>
<text text-anchor="start" x="287.38" y="-256.45" font-family="Times New Roman,serif" font-weight="bold" font-size="9.00">Obesity II</text>
<polygon fill="none" stroke="black" points="339.38,-248 339.38,-298 427.62,-298 427.62,-248 339.38,-248"/>
<text text-anchor="start" x="346.38" y="-274.45" font-family="Times New Roman,serif" font-weight="bold" font-size="9.00">Insufficient weight</text>
<text text-anchor="start" x="356.5" y="-265.45" font-family="Times New Roman,serif" font-weight="bold" font-size="9.00">Overweight II</text>
<polygon fill="none" stroke="black" points="273.38,-247 273.38,-299 428.62,-299 428.62,-247 273.38,-247"/>
</g>
<!-- n_0_1_2_3_4_5_6&#45;&gt;n_0_1_2_3_4_5 -->
<g id="edge1" class="edge">
<title>n_0_1_2_3_4_5_6&#45;&gt;n_0_1_2_3_4_5</title>
<path fill="none" stroke="black" d="M400.85,-346.14C393.27,-335.19 385,-323.22 377.42,-312.23"/>
<polygon fill="black" stroke="black" points="380.38,-310.37 371.82,-304.13 374.62,-314.35 380.38,-310.37"/>
</g>
<!-- n_6 -->
<g id="node13" class="node">
<title>n_6</title>
<polygon fill="none" stroke="black" points="475,-260.38 475,-285.62 531,-285.62 531,-260.38 475,-260.38"/>
<text text-anchor="start" x="482" y="-271.07" font-family="Times New Roman,serif" font-weight="bold" font-size="9.00">Obesity III</text>
<polygon fill="none" stroke="black" points="474,-259.38 474,-286.62 532,-286.62 532,-259.38 474,-259.38"/>
</g>
<!-- n_0_1_2_3_4_5_6&#45;&gt;n_6 -->
<g id="edge12" class="edge">
<title>n_0_1_2_3_4_5_6&#45;&gt;n_6</title>
<path fill="none" stroke="black" d="M453.15,-346.14C463.59,-331.04 475.35,-314.02 484.82,-300.31"/>
<polygon fill="black" stroke="black" points="487.6,-302.44 490.41,-292.23 481.84,-298.47 487.6,-302.44"/>
</g>
<!-- n_1_2_4_5 -->
<g id="node3" class="node">
<title>n_1_2_4_5</title>
<polygon fill="none" stroke="black" points="200,-163 200,-195 253,-195 253,-163 200,-163"/>
<text text-anchor="start" x="211.5" y="-180.45" font-family="Times New Roman,serif" font-weight="bold" font-size="9.00">Normal</text>
<text text-anchor="start" x="207" y="-171.45" font-family="Times New Roman,serif" font-weight="bold" font-size="9.00">Obesity II</text>
<polygon fill="none" stroke="black" points="253,-163 253,-195 318,-195 318,-163 253,-163"/>
<text text-anchor="start" x="260" y="-180.45" font-family="Times New Roman,serif" font-weight="bold" font-size="9.00">Overweight I</text>
<text text-anchor="start" x="267.5" y="-171.45" font-family="Times New Roman,serif" font-weight="bold" font-size="9.00">Obesity I</text>
<polygon fill="none" stroke="black" points="199,-162 199,-196 319,-196 319,-162 199,-162"/>
</g>
<!-- n_0_1_2_3_4_5&#45;&gt;n_1_2_4_5 -->
<g id="edge2" class="edge">
<title>n_0_1_2_3_4_5&#45;&gt;n_1_2_4_5</title>
<path fill="none" stroke="black" d="M322.14,-243.14C310.78,-231.78 297.79,-218.79 286.55,-207.55"/>
<polygon fill="black" stroke="black" points="289.35,-205.4 279.8,-200.8 284.4,-210.35 289.35,-205.4"/>
</g>
<!-- n_0_3 -->
<g id="node10" class="node">
<title>n_0_3</title>
<polygon fill="none" stroke="black" points="364.88,-166.38 364.88,-191.62 453.12,-191.62 453.12,-166.38 364.88,-166.38"/>
<text text-anchor="start" x="371.88" y="-177.07" font-family="Times New Roman,serif" font-weight="bold" font-size="9.00">Insufficient weight</text>
<polygon fill="none" stroke="black" points="453.12,-166.38 453.12,-191.62 521.12,-191.62 521.12,-166.38 453.12,-166.38"/>
<text text-anchor="start" x="460.12" y="-177.07" font-family="Times New Roman,serif" font-weight="bold" font-size="9.00">Overweight II</text>
<polygon fill="none" stroke="black" points="363.88,-165.38 363.88,-192.62 522.12,-192.62 522.12,-165.38 363.88,-165.38"/>
</g>
<!-- n_0_1_2_3_4_5&#45;&gt;n_0_3 -->
<g id="edge9" class="edge">
<title>n_0_1_2_3_4_5&#45;&gt;n_0_3</title>
<path fill="none" stroke="black" d="M379.86,-243.14C392.07,-230.93 406.16,-216.84 417.93,-205.07"/>
<polygon fill="black" stroke="black" points="420.37,-207.58 424.96,-198.04 415.42,-202.63 420.37,-207.58"/>
</g>
<!-- n_1_5 -->
<g id="node4" class="node">
<title>n_1_5</title>
<polygon fill="none" stroke="black" points="66.5,-84.38 66.5,-109.62 110.5,-109.62 110.5,-84.38 66.5,-84.38"/>
<text text-anchor="start" x="73.5" y="-95.08" font-family="Times New Roman,serif" font-weight="bold" font-size="9.00">Normal</text>
<polygon fill="none" stroke="black" points="110.5,-84.38 110.5,-109.62 163.5,-109.62 163.5,-84.38 110.5,-84.38"/>
<text text-anchor="start" x="117.5" y="-95.08" font-family="Times New Roman,serif" font-weight="bold" font-size="9.00">Obesity II</text>
<polygon fill="none" stroke="black" points="65.5,-83.38 65.5,-110.62 164.5,-110.62 164.5,-83.38 65.5,-83.38"/>
</g>
<!-- n_1_2_4_5&#45;&gt;n_1_5 -->
<g id="edge3" class="edge">
<title>n_1_2_4_5&#45;&gt;n_1_5</title>
<path fill="none" stroke="black" d="M223.03,-158.02C202.42,-146.56 176.49,-132.16 155.2,-120.33"/>
<polygon fill="black" stroke="black" points="156.93,-117.29 146.49,-115.49 153.53,-123.41 156.93,-117.29"/>
</g>
<!-- n_2_4 -->
<g id="node7" class="node">
<title>n_2_4</title>
<polygon fill="none" stroke="black" points="210.5,-84.38 210.5,-109.62 275.5,-109.62 275.5,-84.38 210.5,-84.38"/>
<text text-anchor="start" x="217.5" y="-95.08" font-family="Times New Roman,serif" font-weight="bold" font-size="9.00">Overweight I</text>
<polygon fill="none" stroke="black" points="275.5,-84.38 275.5,-109.62 325.5,-109.62 325.5,-84.38 275.5,-84.38"/>
<text text-anchor="start" x="282.5" y="-95.08" font-family="Times New Roman,serif" font-weight="bold" font-size="9.00">Obesity I</text>
<polygon fill="none" stroke="black" points="209.5,-83.38 209.5,-110.62 326.5,-110.62 326.5,-83.38 209.5,-83.38"/>
</g>
<!-- n_1_2_4_5&#45;&gt;n_2_4 -->
<g id="edge6" class="edge">
<title>n_1_2_4_5&#45;&gt;n_2_4</title>
<path fill="none" stroke="black" d="M261.22,-158.22C262.31,-148.54 263.64,-136.72 264.84,-126.11"/>
<polygon fill="black" stroke="black" points="268.3,-126.68 265.94,-116.35 261.34,-125.89 268.3,-126.68"/>
</g>
<!-- n_1 -->
<g id="node5" class="node">
<title>n_1</title>
<polygon fill="none" stroke="black" points="9,-5.38 9,-30.62 53,-30.62 53,-5.38 9,-5.38"/>
<text text-anchor="start" x="16" y="-16.07" font-family="Times New Roman,serif" font-weight="bold" font-size="9.00">Normal</text>
<polygon fill="none" stroke="black" points="8,-4.38 8,-31.62 54,-31.62 54,-4.38 8,-4.38"/>
</g>
<!-- n_1_5&#45;&gt;n_1 -->
<g id="edge4" class="edge">
<title>n_1_5&#45;&gt;n_1</title>
<path fill="none" stroke="black" d="M96.77,-79.29C85.4,-68.87 70.57,-55.27 57.87,-43.63"/>
<polygon fill="black" stroke="black" points="60.33,-41.14 50.6,-36.96 55.6,-46.3 60.33,-41.14"/>
</g>
<!-- n_5 -->
<g id="node6" class="node">
<title>n_5</title>
<polygon fill="none" stroke="black" points="100.5,-5.38 100.5,-30.62 153.5,-30.62 153.5,-5.38 100.5,-5.38"/>
<text text-anchor="start" x="107.5" y="-16.07" font-family="Times New Roman,serif" font-weight="bold" font-size="9.00">Obesity II</text>
<polygon fill="none" stroke="black" points="99.5,-4.38 99.5,-31.62 154.5,-31.62 154.5,-4.38 99.5,-4.38"/>
</g>
<!-- n_1_5&#45;&gt;n_5 -->
<g id="edge5" class="edge">
<title>n_1_5&#45;&gt;n_5</title>
<path fill="none" stroke="black" d="M117.6,-79.29C119.07,-69.87 120.94,-57.86 122.63,-47.04"/>
<polygon fill="black" stroke="black" points="126.05,-47.86 124.13,-37.44 119.13,-46.78 126.05,-47.86"/>
</g>
<!-- n_2 -->
<g id="node8" class="node">
<title>n_2</title>
<polygon fill="none" stroke="black" points="223.5,-5.38 223.5,-30.62 288.5,-30.62 288.5,-5.38 223.5,-5.38"/>
<text text-anchor="start" x="230.5" y="-16.07" font-family="Times New Roman,serif" font-weight="bold" font-size="9.00">Overweight I</text>
<polygon fill="none" stroke="black" points="222.5,-4.38 222.5,-31.62 289.5,-31.62 289.5,-4.38 222.5,-4.38"/>
</g>
<!-- n_2_4&#45;&gt;n_2 -->
<g id="edge7" class="edge">
<title>n_2_4&#45;&gt;n_2</title>
<path fill="none" stroke="black" d="M265.4,-79.29C263.93,-69.87 262.06,-57.86 260.37,-47.04"/>
<polygon fill="black" stroke="black" points="263.87,-46.78 258.87,-37.44 256.95,-47.86 263.87,-46.78"/>
</g>
<!-- n_4 -->
<g id="node9" class="node">
<title>n_4</title>
<polygon fill="none" stroke="black" points="336,-5.38 336,-30.62 386,-30.62 386,-5.38 336,-5.38"/>
<text text-anchor="start" x="343" y="-16.07" font-family="Times New Roman,serif" font-weight="bold" font-size="9.00">Obesity I</text>
<polygon fill="none" stroke="black" points="335,-4.38 335,-31.62 387,-31.62 387,-4.38 335,-4.38"/>
</g>
<!-- n_2_4&#45;&gt;n_4 -->
<g id="edge8" class="edge">
<title>n_2_4&#45;&gt;n_4</title>
<path fill="none" stroke="black" d="M288.18,-79.29C301.01,-68.67 317.82,-54.75 332.06,-42.96"/>
<polygon fill="black" stroke="black" points="333.9,-45.98 339.37,-36.91 329.44,-40.59 333.9,-45.98"/>
</g>
<!-- n_0 -->
<g id="node11" class="node">
<title>n_0</title>
<polygon fill="none" stroke="black" points="389.88,-84.38 389.88,-109.62 478.12,-109.62 478.12,-84.38 389.88,-84.38"/>
<text text-anchor="start" x="396.88" y="-95.08" font-family="Times New Roman,serif" font-weight="bold" font-size="9.00">Insufficient weight</text>
<polygon fill="none" stroke="black" points="388.88,-83.38 388.88,-110.62 479.12,-110.62 479.12,-83.38 388.88,-83.38"/>
</g>
<!-- n_0_3&#45;&gt;n_0 -->
<g id="edge10" class="edge">
<title>n_0_3&#45;&gt;n_0</title>
<path fill="none" stroke="black" d="M441.09,-161.03C439.96,-150.96 438.49,-137.92 437.19,-126.32"/>
<polygon fill="black" stroke="black" points="440.67,-125.99 436.08,-116.45 433.72,-126.77 440.67,-125.99"/>
</g>
<!-- n_3 -->
<g id="node12" class="node">
<title>n_3</title>
<polygon fill="none" stroke="black" points="525,-84.38 525,-109.62 593,-109.62 593,-84.38 525,-84.38"/>
<text text-anchor="start" x="532" y="-95.08" font-family="Times New Roman,serif" font-weight="bold" font-size="9.00">Overweight II</text>
<polygon fill="none" stroke="black" points="524,-83.38 524,-110.62 594,-110.62 594,-83.38 524,-83.38"/>
</g>
<!-- n_0_3&#45;&gt;n_3 -->
<g id="edge11" class="edge">
<title>n_0_3&#45;&gt;n_3</title>
<path fill="none" stroke="black" d="M467.6,-161.03C484.36,-149.47 506.77,-134.02 525.21,-121.3"/>
<polygon fill="black" stroke="black" points="526.94,-124.36 533.19,-115.8 522.97,-118.6 526.94,-124.36"/>
</g>
</g>
</svg>
