<?xml version="1.0" encoding="UTF-8" standalone="no"?>
<!DOCTYPE svg PUBLIC "-//W3C//DTD SVG 1.1//EN"
 "http://www.w3.org/Graphics/SVG/1.1/DTD/svg11.dtd">
<!-- Generated by graphviz version 10.0.1 (20240210.2158)
 -->
<!-- Title: ND Pages: 1 -->
<svg width="633pt" height="405pt"
 viewBox="0.00 0.00 633.12 405.00" xmlns="http://www.w3.org/2000/svg" xmlns:xlink="http://www.w3.org/1999/xlink">
<g id="graph0" class="graph" transform="scale(1 1) rotate(0) translate(4 401)">
<title>ND</title>
<polygon fill="white" stroke="none" points="-4,4 -4,-401 629.12,-401 629.12,4 -4,4"/>
<!-- n_0_1_2_3_4_5_6 -->
<g id="node1" class="node">
<title>n_0_1_2_3_4_5_6</title>
<polygon fill="none" stroke="black" points="269.88,-342 269.88,-392 337.88,-392 337.88,-342 269.88,-342"/>
<text text-anchor="start" x="288.88" y="-377.45" font-family="Times New Roman,serif" font-weight="bold" font-size="9.00">Normal</text>
<text text-anchor="start" x="276.88" y="-368.45" font-family="Times New Roman,serif" font-weight="bold" font-size="9.00">Overweight II</text>
<text text-anchor="start" x="284.38" y="-359.45" font-family="Times New Roman,serif" font-weight="bold" font-size="9.00">Obesity II</text>
<text text-anchor="start" x="282.88" y="-350.45" font-family="Times New Roman,serif" font-weight="bold" font-size="9.00">Obesity III</text>
<polygon fill="none" stroke="black" points="337.88,-342 337.88,-392 426.12,-392 426.12,-342 337.88,-342"/>
<text text-anchor="start" x="344.88" y="-372.95" font-family="Times New Roman,serif" font-weight="bold" font-size="9.00">Insufficient weight</text>
<text text-anchor="start" x="356.5" y="-363.95" font-family="Times New Roman,serif" font-weight="bold" font-size="9.00">Overweight I</text>
<text text-anchor="start" x="364" y="-354.95" font-family="Times New Roman,serif" font-weight="bold" font-size="9.00">Obesity I</text>
<polygon fill="none" stroke="black" points="268.88,-341 268.88,-393 427.12,-393 427.12,-341 268.88,-341"/>
</g>
<!-- n_1_3_5_6 -->
<g id="node2" class="node">
<title>n_1_3_5_6</title>
<polygon fill="none" stroke="black" points="202,-248 202,-289 270,-289 270,-248 202,-248"/>
<text text-anchor="start" x="209" y="-274.45" font-family="Times New Roman,serif" font-weight="bold" font-size="9.00">Overweight II</text>
<text text-anchor="start" x="216.5" y="-265.45" font-family="Times New Roman,serif" font-weight="bold" font-size="9.00">Obesity II</text>
<text text-anchor="start" x="215" y="-256.45" font-family="Times New Roman,serif" font-weight="bold" font-size="9.00">Obesity III</text>
<polygon fill="none" stroke="black" points="270,-248 270,-289 314,-289 314,-248 270,-248"/>
<text text-anchor="start" x="277" y="-266.57" font-family="Times New Roman,serif" font-weight="bold" font-size="9.00">Normal</text>
<polygon fill="none" stroke="black" points="201,-247 201,-290 315,-290 315,-247 201,-247"/>
</g>
<!-- n_0_1_2_3_4_5_6&#45;&gt;n_1_3_5_6 -->
<g id="edge1" class="edge">
<title>n_0_1_2_3_4_5_6&#45;&gt;n_1_3_5_6</title>
<path fill="none" stroke="black" d="M321,-337.05C310.76,-326.08 299.05,-313.51 288.51,-302.22"/>
<polygon fill="black" stroke="black" points="291.15,-299.91 281.76,-294.98 286.03,-304.68 291.15,-299.91"/>
</g>
<!-- n_0_2_4 -->
<g id="node9" class="node">
<title>n_0_2_4</title>
<polygon fill="none" stroke="black" points="361.38,-252.5 361.38,-284.5 426.38,-284.5 426.38,-252.5 361.38,-252.5"/>
<text text-anchor="start" x="368.38" y="-269.95" font-family="Times New Roman,serif" font-weight="bold" font-size="9.00">Overweight I</text>
<text text-anchor="start" x="375.88" y="-260.95" font-family="Times New Roman,serif" font-weight="bold" font-size="9.00">Obesity I</text>
<polygon fill="none" stroke="black" points="426.38,-252.5 426.38,-284.5 514.62,-284.5 514.62,-252.5 426.38,-252.5"/>
<text text-anchor="start" x="433.38" y="-266.57" font-family="Times New Roman,serif" font-weight="bold" font-size="9.00">Insufficient weight</text>
<polygon fill="none" stroke="black" points="360.38,-251.5 360.38,-285.5 515.62,-285.5 515.62,-251.5 360.38,-251.5"/>
</g>
<!-- n_0_1_2_3_4_5_6&#45;&gt;n_0_2_4 -->
<g id="edge8" class="edge">
<title>n_0_1_2_3_4_5_6&#45;&gt;n_0_2_4</title>
<path fill="none" stroke="black" d="M375,-337.05C386.7,-324.51 400.34,-309.89 411.92,-297.46"/>
<polygon fill="black" stroke="black" points="414.28,-300.07 418.54,-290.37 409.16,-295.29 414.28,-300.07"/>
</g>
<!-- n_3_5_6 -->
<g id="node3" class="node">
<title>n_3_5_6</title>
<polygon fill="none" stroke="black" points="80,-163 80,-195 148,-195 148,-163 80,-163"/>
<text text-anchor="start" x="87" y="-180.45" font-family="Times New Roman,serif" font-weight="bold" font-size="9.00">Overweight II</text>
<text text-anchor="start" x="94.5" y="-171.45" font-family="Times New Roman,serif" font-weight="bold" font-size="9.00">Obesity II</text>
<polygon fill="none" stroke="black" points="148,-163 148,-195 204,-195 204,-163 148,-163"/>
<text text-anchor="start" x="155" y="-177.07" font-family="Times New Roman,serif" font-weight="bold" font-size="9.00">Obesity III</text>
<polygon fill="none" stroke="black" points="79,-162 79,-196 205,-196 205,-162 79,-162"/>
</g>
<!-- n_1_3_5_6&#45;&gt;n_3_5_6 -->
<g id="edge2" class="edge">
<title>n_1_3_5_6&#45;&gt;n_3_5_6</title>
<path fill="none" stroke="black" d="M225.69,-243.13C210.56,-231.71 192.5,-218.1 177.04,-206.43"/>
<polygon fill="black" stroke="black" points="179.58,-203.97 169.49,-200.74 175.37,-209.55 179.58,-203.97"/>
</g>
<!-- n_1 -->
<g id="node8" class="node">
<title>n_1</title>
<polygon fill="none" stroke="black" points="251,-166.38 251,-191.62 295,-191.62 295,-166.38 251,-166.38"/>
<text text-anchor="start" x="258" y="-177.07" font-family="Times New Roman,serif" font-weight="bold" font-size="9.00">Normal</text>
<polygon fill="none" stroke="black" points="250,-165.38 250,-192.62 296,-192.62 296,-165.38 250,-165.38"/>
</g>
<!-- n_1_3_5_6&#45;&gt;n_1 -->
<g id="edge7" class="edge">
<title>n_1_3_5_6&#45;&gt;n_1</title>
<path fill="none" stroke="black" d="M262.18,-243.13C264.06,-232.17 266.28,-219.18 268.23,-207.84"/>
<polygon fill="black" stroke="black" points="271.63,-208.71 269.87,-198.26 264.73,-207.53 271.63,-208.71"/>
</g>
<!-- n_3_5 -->
<g id="node4" class="node">
<title>n_3_5</title>
<polygon fill="none" stroke="black" points="36.5,-84.38 36.5,-109.62 104.5,-109.62 104.5,-84.38 36.5,-84.38"/>
<text text-anchor="start" x="43.5" y="-95.08" font-family="Times New Roman,serif" font-weight="bold" font-size="9.00">Overweight II</text>
<polygon fill="none" stroke="black" points="104.5,-84.38 104.5,-109.62 157.5,-109.62 157.5,-84.38 104.5,-84.38"/>
<text text-anchor="start" x="111.5" y="-95.08" font-family="Times New Roman,serif" font-weight="bold" font-size="9.00">Obesity II</text>
<polygon fill="none" stroke="black" points="35.5,-83.38 35.5,-110.62 158.5,-110.62 158.5,-83.38 35.5,-83.38"/>
</g>
<!-- n_3_5_6&#45;&gt;n_3_5 -->
<g id="edge3" class="edge">
<title>n_3_5_6&#45;&gt;n_3_5</title>
<path fill="none" stroke="black" d="M130.88,-158.22C125.2,-148.13 118.2,-135.69 112.05,-124.75"/>
<polygon fill="black" stroke="black" points="115.17,-123.16 107.22,-116.16 109.07,-126.59 115.17,-123.16"/>
</g>
<!-- n_6 -->
<g id="node7" class="node">
<title>n_6</title>
<polygon fill="none" stroke="black" points="205,-84.38 205,-109.62 261,-109.62 261,-84.38 205,-84.38"/>
<text text-anchor="start" x="212" y="-95.08" font-family="Times New Roman,serif" font-weight="bold" font-size="9.00">Obesity III</text>
<polygon fill="none" stroke="black" points="204,-83.38 204,-110.62 262,-110.62 262,-83.38 204,-83.38"/>
</g>
<!-- n_3_5_6&#45;&gt;n_6 -->
<g id="edge6" class="edge">
<title>n_3_5_6&#45;&gt;n_6</title>
<path fill="none" stroke="black" d="M164.49,-158.22C176.81,-147.4 192.18,-133.89 205.24,-122.41"/>
<polygon fill="black" stroke="black" points="207.5,-125.07 212.7,-115.84 202.88,-119.82 207.5,-125.07"/>
</g>
<!-- n_3 -->
<g id="node5" class="node">
<title>n_3</title>
<polygon fill="none" stroke="black" points="9,-5.38 9,-30.62 77,-30.62 77,-5.38 9,-5.38"/>
<text text-anchor="start" x="16" y="-16.07" font-family="Times New Roman,serif" font-weight="bold" font-size="9.00">Overweight II</text>
<polygon fill="none" stroke="black" points="8,-4.38 8,-31.62 78,-31.62 78,-4.38 8,-4.38"/>
</g>
<!-- n_3_5&#45;&gt;n_3 -->
<g id="edge4" class="edge">
<title>n_3_5&#45;&gt;n_3</title>
<path fill="none" stroke="black" d="M85.28,-79.29C78.33,-69.37 69.35,-56.57 61.46,-45.32"/>
<polygon fill="black" stroke="black" points="64.36,-43.36 55.75,-37.18 58.63,-47.38 64.36,-43.36"/>
</g>
<!-- n_5 -->
<g id="node6" class="node">
<title>n_5</title>
<polygon fill="none" stroke="black" points="124.5,-5.38 124.5,-30.62 177.5,-30.62 177.5,-5.38 124.5,-5.38"/>
<text text-anchor="start" x="131.5" y="-16.07" font-family="Times New Roman,serif" font-weight="bold" font-size="9.00">Obesity II</text>
<polygon fill="none" stroke="black" points="123.5,-4.38 123.5,-31.62 178.5,-31.62 178.5,-4.38 123.5,-4.38"/>
</g>
<!-- n_3_5&#45;&gt;n_5 -->
<g id="edge5" class="edge">
<title>n_3_5&#45;&gt;n_5</title>
<path fill="none" stroke="black" d="M108.72,-79.29C115.67,-69.37 124.65,-56.57 132.54,-45.32"/>
<polygon fill="black" stroke="black" points="135.37,-47.38 138.25,-37.18 129.64,-43.36 135.37,-47.38"/>
</g>
<!-- n_2_4 -->
<g id="node10" class="node">
<title>n_2_4</title>
<polygon fill="none" stroke="black" points="365.5,-166.38 365.5,-191.62 430.5,-191.62 430.5,-166.38 365.5,-166.38"/>
<text text-anchor="start" x="372.5" y="-177.07" font-family="Times New Roman,serif" font-weight="bold" font-size="9.00">Overweight I</text>
<polygon fill="none" stroke="black" points="430.5,-166.38 430.5,-191.62 480.5,-191.62 480.5,-166.38 430.5,-166.38"/>
<text text-anchor="start" x="437.5" y="-177.07" font-family="Times New Roman,serif" font-weight="bold" font-size="9.00">Obesity I</text>
<polygon fill="none" stroke="black" points="364.5,-165.38 364.5,-192.62 481.5,-192.62 481.5,-165.38 364.5,-165.38"/>
</g>
<!-- n_0_2_4&#45;&gt;n_2_4 -->
<g id="edge9" class="edge">
<title>n_0_2_4&#45;&gt;n_2_4</title>
<path fill="none" stroke="black" d="M434.6,-247.64C432.58,-235.91 430.01,-220.86 427.79,-207.94"/>
<polygon fill="black" stroke="black" points="431.28,-207.59 426.14,-198.32 424.38,-208.77 431.28,-207.59"/>
</g>
<!-- n_0 -->
<g id="node13" class="node">
<title>n_0</title>
<polygon fill="none" stroke="black" points="527.88,-166.38 527.88,-191.62 616.12,-191.62 616.12,-166.38 527.88,-166.38"/>
<text text-anchor="start" x="534.88" y="-177.07" font-family="Times New Roman,serif" font-weight="bold" font-size="9.00">Insufficient weight</text>
<polygon fill="none" stroke="black" points="526.88,-165.38 526.88,-192.62 617.12,-192.62 617.12,-165.38 526.88,-165.38"/>
</g>
<!-- n_0_2_4&#45;&gt;n_0 -->
<g id="edge12" class="edge">
<title>n_0_2_4&#45;&gt;n_0</title>
<path fill="none" stroke="black" d="M468.41,-247.64C488.67,-234.41 515.38,-216.97 536.6,-203.12"/>
<polygon fill="black" stroke="black" points="538.5,-206.06 544.96,-197.66 534.67,-200.2 538.5,-206.06"/>
</g>
<!-- n_2 -->
<g id="node11" class="node">
<title>n_2</title>
<polygon fill="none" stroke="black" points="349.5,-84.38 349.5,-109.62 414.5,-109.62 414.5,-84.38 349.5,-84.38"/>
<text text-anchor="start" x="356.5" y="-95.08" font-family="Times New Roman,serif" font-weight="bold" font-size="9.00">Overweight I</text>
<polygon fill="none" stroke="black" points="348.5,-83.38 348.5,-110.62 415.5,-110.62 415.5,-83.38 348.5,-83.38"/>
</g>
<!-- n_2_4&#45;&gt;n_2 -->
<g id="edge10" class="edge">
<title>n_2_4&#45;&gt;n_2</title>
<path fill="none" stroke="black" d="M414.3,-161.03C408.92,-150.53 401.9,-136.82 395.77,-124.87"/>
<polygon fill="black" stroke="black" points="399.05,-123.59 391.37,-116.29 392.82,-126.78 399.05,-123.59"/>
</g>
<!-- n_4 -->
<g id="node12" class="node">
<title>n_4</title>
<polygon fill="none" stroke="black" points="462,-84.38 462,-109.62 512,-109.62 512,-84.38 462,-84.38"/>
<text text-anchor="start" x="469" y="-95.08" font-family="Times New Roman,serif" font-weight="bold" font-size="9.00">Obesity I</text>
<polygon fill="none" stroke="black" points="461,-83.38 461,-110.62 513,-110.62 513,-83.38 461,-83.38"/>
</g>
<!-- n_2_4&#45;&gt;n_4 -->
<g id="edge11" class="edge">
<title>n_2_4&#45;&gt;n_4</title>
<path fill="none" stroke="black" d="M436.57,-161.03C445.23,-150.22 456.61,-135.99 466.37,-123.79"/>
<polygon fill="black" stroke="black" points="468.99,-126.12 472.5,-116.12 463.52,-121.75 468.99,-126.12"/>
</g>
</g>
</svg>
