<?xml version="1.0" encoding="UTF-8" standalone="no"?>
<!DOCTYPE svg PUBLIC "-//W3C//DTD SVG 1.1//EN"
 "http://www.w3.org/Graphics/SVG/1.1/DTD/svg11.dtd">
<!-- Generated by graphviz version 10.0.1 (20240210.2158)
 -->
<!-- Title: ND Pages: 1 -->
<svg width="570pt" height="638pt"
 viewBox="0.00 0.00 569.50 638.00" xmlns="http://www.w3.org/2000/svg" xmlns:xlink="http://www.w3.org/1999/xlink">
<g id="graph0" class="graph" transform="scale(1 1) rotate(0) translate(4 634)">
<title>ND</title>
<polygon fill="white" stroke="none" points="-4,4 -4,-634 565.5,-634 565.5,4 -4,4"/>
<!-- n_0_1_2_3_4_5_6 -->
<g id="node1" class="node">
<title>n_0_1_2_3_4_5_6</title>
<polygon fill="none" stroke="black" points="375.38,-557 375.38,-625 463.62,-625 463.62,-557 375.38,-557"/>
<text text-anchor="start" x="382.38" y="-610.45" font-family="Times New Roman,serif" font-weight="bold" font-size="9.00">Insufficient weight</text>
<text text-anchor="start" x="404.5" y="-601.45" font-family="Times New Roman,serif" font-weight="bold" font-size="9.00">Normal</text>
<text text-anchor="start" x="394" y="-592.45" font-family="Times New Roman,serif" font-weight="bold" font-size="9.00">Overweight I</text>
<text text-anchor="start" x="392.5" y="-583.45" font-family="Times New Roman,serif" font-weight="bold" font-size="9.00">Overweight II</text>
<text text-anchor="start" x="401.5" y="-574.45" font-family="Times New Roman,serif" font-weight="bold" font-size="9.00">Obesity I</text>
<text text-anchor="start" x="400" y="-565.45" font-family="Times New Roman,serif" font-weight="bold" font-size="9.00">Obesity II</text>
<polygon fill="none" stroke="black" points="463.62,-557 463.62,-625 519.62,-625 519.62,-557 463.62,-557"/>
<text text-anchor="start" x="470.62" y="-589.08" font-family="Times New Roman,serif" font-weight="bold" font-size="9.00">Obesity III</text>
<polygon fill="none" stroke="black" points="374.38,-556 374.38,-626 520.62,-626 520.62,-556 374.38,-556"/>
</g>
<!-- n_0_1_2_3_4_5 -->
<g id="node2" class="node">
<title>n_0_1_2_3_4_5</title>
<polygon fill="none" stroke="black" points="293.38,-445 293.38,-504 361.38,-504 361.38,-445 293.38,-445"/>
<text text-anchor="start" x="312.38" y="-489.45" font-family="Times New Roman,serif" font-weight="bold" font-size="9.00">Normal</text>
<text text-anchor="start" x="301.88" y="-480.45" font-family="Times New Roman,serif" font-weight="bold" font-size="9.00">Overweight I</text>
<text text-anchor="start" x="300.38" y="-471.45" font-family="Times New Roman,serif" font-weight="bold" font-size="9.00">Overweight II</text>
<text text-anchor="start" x="309.38" y="-462.45" font-family="Times New Roman,serif" font-weight="bold" font-size="9.00">Obesity I</text>
<text text-anchor="start" x="307.88" y="-453.45" font-family="Times New Roman,serif" font-weight="bold" font-size="9.00">Obesity II</text>
<polygon fill="none" stroke="black" points="361.38,-445 361.38,-504 449.62,-504 449.62,-445 361.38,-445"/>
<text text-anchor="start" x="368.38" y="-472.57" font-family="Times New Roman,serif" font-weight="bold" font-size="9.00">Insufficient weight</text>
<polygon fill="none" stroke="black" points="292.38,-444 292.38,-505 450.62,-505 450.62,-444 292.38,-444"/>
</g>
<!-- n_0_1_2_3_4_5_6&#45;&gt;n_0_1_2_3_4_5 -->
<g id="edge1" class="edge">
<title>n_0_1_2_3_4_5_6&#45;&gt;n_0_1_2_3_4_5</title>
<path fill="none" stroke="black" d="M422.4,-552.19C415.18,-541.31 407.25,-529.36 399.85,-518.21"/>
<polygon fill="black" stroke="black" points="402.79,-516.31 394.34,-509.91 396.96,-520.18 402.79,-516.31"/>
</g>
<!-- n_6 -->
<g id="node13" class="node">
<title>n_6</title>
<polygon fill="none" stroke="black" points="496.5,-461.88 496.5,-487.12 552.5,-487.12 552.5,-461.88 496.5,-461.88"/>
<text text-anchor="start" x="503.5" y="-472.57" font-family="Times New Roman,serif" font-weight="bold" font-size="9.00">Obesity III</text>
<polygon fill="none" stroke="black" points="495.5,-460.88 495.5,-488.12 553.5,-488.12 553.5,-460.88 495.5,-460.88"/>
</g>
<!-- n_0_1_2_3_4_5_6&#45;&gt;n_6 -->
<g id="edge12" class="edge">
<title>n_0_1_2_3_4_5_6&#45;&gt;n_6</title>
<path fill="none" stroke="black" d="M472.93,-552.19C484.07,-535.63 496.86,-516.6 506.92,-501.64"/>
<polygon fill="black" stroke="black" points="509.57,-503.97 512.25,-493.72 503.76,-500.06 509.57,-503.97"/>
</g>
<!-- n_1_2_3_4_5 -->
<g id="node3" class="node">
<title>n_1_2_3_4_5</title>
<polygon fill="none" stroke="black" points="242.5,-342 242.5,-392 310.5,-392 310.5,-342 242.5,-342"/>
<text text-anchor="start" x="251" y="-377.45" font-family="Times New Roman,serif" font-weight="bold" font-size="9.00">Overweight I</text>
<text text-anchor="start" x="249.5" y="-368.45" font-family="Times New Roman,serif" font-weight="bold" font-size="9.00">Overweight II</text>
<text text-anchor="start" x="258.5" y="-359.45" font-family="Times New Roman,serif" font-weight="bold" font-size="9.00">Obesity I</text>
<text text-anchor="start" x="257" y="-350.45" font-family="Times New Roman,serif" font-weight="bold" font-size="9.00">Obesity II</text>
<polygon fill="none" stroke="black" points="310.5,-342 310.5,-392 354.5,-392 354.5,-342 310.5,-342"/>
<text text-anchor="start" x="317.5" y="-365.07" font-family="Times New Roman,serif" font-weight="bold" font-size="9.00">Normal</text>
<polygon fill="none" stroke="black" points="241.5,-341 241.5,-393 355.5,-393 355.5,-341 241.5,-341"/>
</g>
<!-- n_0_1_2_3_4_5&#45;&gt;n_1_2_3_4_5 -->
<g id="edge2" class="edge">
<title>n_0_1_2_3_4_5&#45;&gt;n_1_2_3_4_5</title>
<path fill="none" stroke="black" d="M348.4,-440.12C340.97,-429.38 332.68,-417.4 325.02,-406.33"/>
<polygon fill="black" stroke="black" points="327.93,-404.37 319.36,-398.14 322.17,-408.36 327.93,-404.37"/>
</g>
<!-- n_0 -->
<g id="node12" class="node">
<title>n_0</title>
<polygon fill="none" stroke="black" points="401.38,-354.38 401.38,-379.62 489.62,-379.62 489.62,-354.38 401.38,-354.38"/>
<text text-anchor="start" x="408.38" y="-365.07" font-family="Times New Roman,serif" font-weight="bold" font-size="9.00">Insufficient weight</text>
<polygon fill="none" stroke="black" points="400.38,-353.38 400.38,-380.62 490.62,-380.62 490.62,-353.38 400.38,-353.38"/>
</g>
<!-- n_0_1_2_3_4_5&#45;&gt;n_0 -->
<g id="edge11" class="edge">
<title>n_0_1_2_3_4_5&#45;&gt;n_0</title>
<path fill="none" stroke="black" d="M394.91,-440.12C405.37,-425.21 417.51,-407.9 427.28,-393.98"/>
<polygon fill="black" stroke="black" points="429.86,-396.39 432.74,-386.19 424.13,-392.37 429.86,-396.39"/>
</g>
<!-- n_2_3_4_5 -->
<g id="node4" class="node">
<title>n_2_3_4_5</title>
<polygon fill="none" stroke="black" points="175.5,-248 175.5,-289 243.5,-289 243.5,-248 175.5,-248"/>
<text text-anchor="start" x="184" y="-274.45" font-family="Times New Roman,serif" font-weight="bold" font-size="9.00">Overweight I</text>
<text text-anchor="start" x="182.5" y="-265.45" font-family="Times New Roman,serif" font-weight="bold" font-size="9.00">Overweight II</text>
<text text-anchor="start" x="190" y="-256.45" font-family="Times New Roman,serif" font-weight="bold" font-size="9.00">Obesity II</text>
<polygon fill="none" stroke="black" points="243.5,-248 243.5,-289 293.5,-289 293.5,-248 243.5,-248"/>
<text text-anchor="start" x="250.5" y="-266.57" font-family="Times New Roman,serif" font-weight="bold" font-size="9.00">Obesity I</text>
<polygon fill="none" stroke="black" points="174.5,-247 174.5,-290 294.5,-290 294.5,-247 174.5,-247"/>
</g>
<!-- n_1_2_3_4_5&#45;&gt;n_2_3_4_5 -->
<g id="edge3" class="edge">
<title>n_1_2_3_4_5&#45;&gt;n_2_3_4_5</title>
<path fill="none" stroke="black" d="M279.3,-337.05C272.24,-326.4 264.18,-314.25 256.86,-303.22"/>
<polygon fill="black" stroke="black" points="259.95,-301.54 251.5,-295.14 254.11,-305.4 259.95,-301.54"/>
</g>
<!-- n_1 -->
<g id="node11" class="node">
<title>n_1</title>
<polygon fill="none" stroke="black" points="340.5,-255.88 340.5,-281.12 384.5,-281.12 384.5,-255.88 340.5,-255.88"/>
<text text-anchor="start" x="347.5" y="-266.57" font-family="Times New Roman,serif" font-weight="bold" font-size="9.00">Normal</text>
<polygon fill="none" stroke="black" points="339.5,-254.88 339.5,-282.12 385.5,-282.12 385.5,-254.88 339.5,-254.88"/>
</g>
<!-- n_1_2_3_4_5&#45;&gt;n_1 -->
<g id="edge10" class="edge">
<title>n_1_2_3_4_5&#45;&gt;n_1</title>
<path fill="none" stroke="black" d="M317.7,-337.05C326.36,-323.99 336.51,-308.68 344.96,-295.94"/>
<polygon fill="black" stroke="black" points="347.87,-297.9 350.48,-287.63 342.03,-294.03 347.87,-297.9"/>
</g>
<!-- n_2_3_5 -->
<g id="node5" class="node">
<title>n_2_3_5</title>
<polygon fill="none" stroke="black" points="108,-163 108,-195 176,-195 176,-163 108,-163"/>
<text text-anchor="start" x="116.5" y="-180.45" font-family="Times New Roman,serif" font-weight="bold" font-size="9.00">Overweight I</text>
<text text-anchor="start" x="115" y="-171.45" font-family="Times New Roman,serif" font-weight="bold" font-size="9.00">Overweight II</text>
<polygon fill="none" stroke="black" points="176,-163 176,-195 229,-195 229,-163 176,-163"/>
<text text-anchor="start" x="183" y="-177.07" font-family="Times New Roman,serif" font-weight="bold" font-size="9.00">Obesity II</text>
<polygon fill="none" stroke="black" points="107,-162 107,-196 230,-196 230,-162 107,-162"/>
</g>
<!-- n_2_3_4_5&#45;&gt;n_2_3_5 -->
<g id="edge4" class="edge">
<title>n_2_3_4_5&#45;&gt;n_2_3_5</title>
<path fill="none" stroke="black" d="M216.12,-243.13C208.07,-232.46 198.57,-219.87 190.18,-208.75"/>
<polygon fill="black" stroke="black" points="193.18,-206.91 184.37,-201.03 187.59,-211.13 193.18,-206.91"/>
</g>
<!-- n_4 -->
<g id="node10" class="node">
<title>n_4</title>
<polygon fill="none" stroke="black" points="276.5,-166.38 276.5,-191.62 326.5,-191.62 326.5,-166.38 276.5,-166.38"/>
<text text-anchor="start" x="283.5" y="-177.07" font-family="Times New Roman,serif" font-weight="bold" font-size="9.00">Obesity I</text>
<polygon fill="none" stroke="black" points="275.5,-165.38 275.5,-192.62 327.5,-192.62 327.5,-165.38 275.5,-165.38"/>
</g>
<!-- n_2_3_4_5&#45;&gt;n_4 -->
<g id="edge9" class="edge">
<title>n_2_3_4_5&#45;&gt;n_4</title>
<path fill="none" stroke="black" d="M253.16,-243.13C262.08,-231.48 272.77,-217.53 281.82,-205.71"/>
<polygon fill="black" stroke="black" points="284.44,-208.04 287.74,-197.97 278.88,-203.78 284.44,-208.04"/>
</g>
<!-- n_2_3 -->
<g id="node6" class="node">
<title>n_2_3</title>
<polygon fill="none" stroke="black" points="32,-84.38 32,-109.62 97,-109.62 97,-84.38 32,-84.38"/>
<text text-anchor="start" x="39" y="-95.08" font-family="Times New Roman,serif" font-weight="bold" font-size="9.00">Overweight I</text>
<polygon fill="none" stroke="black" points="97,-84.38 97,-109.62 165,-109.62 165,-84.38 97,-84.38"/>
<text text-anchor="start" x="104" y="-95.08" font-family="Times New Roman,serif" font-weight="bold" font-size="9.00">Overweight II</text>
<polygon fill="none" stroke="black" points="31,-83.38 31,-110.62 166,-110.62 166,-83.38 31,-83.38"/>
</g>
<!-- n_2_3_5&#45;&gt;n_2_3 -->
<g id="edge5" class="edge">
<title>n_2_3_5&#45;&gt;n_2_3</title>
<path fill="none" stroke="black" d="M151.2,-158.22C142,-147.71 130.58,-134.66 120.73,-123.41"/>
<polygon fill="black" stroke="black" points="123.45,-121.2 114.23,-115.98 118.19,-125.81 123.45,-121.2"/>
</g>
<!-- n_5 -->
<g id="node9" class="node">
<title>n_5</title>
<polygon fill="none" stroke="black" points="212,-84.38 212,-109.62 265,-109.62 265,-84.38 212,-84.38"/>
<text text-anchor="start" x="219" y="-95.08" font-family="Times New Roman,serif" font-weight="bold" font-size="9.00">Obesity II</text>
<polygon fill="none" stroke="black" points="211,-83.38 211,-110.62 266,-110.62 266,-83.38 211,-83.38"/>
</g>
<!-- n_2_3_5&#45;&gt;n_5 -->
<g id="edge8" class="edge">
<title>n_2_3_5&#45;&gt;n_5</title>
<path fill="none" stroke="black" d="M185.8,-158.22C195,-147.71 206.42,-134.66 216.27,-123.41"/>
<polygon fill="black" stroke="black" points="218.81,-125.81 222.77,-115.98 213.55,-121.2 218.81,-125.81"/>
</g>
<!-- n_2 -->
<g id="node7" class="node">
<title>n_2</title>
<polygon fill="none" stroke="black" points="9,-5.38 9,-30.62 74,-30.62 74,-5.38 9,-5.38"/>
<text text-anchor="start" x="16" y="-16.07" font-family="Times New Roman,serif" font-weight="bold" font-size="9.00">Overweight I</text>
<polygon fill="none" stroke="black" points="8,-4.38 8,-31.62 75,-31.62 75,-4.38 8,-4.38"/>
</g>
<!-- n_2_3&#45;&gt;n_2 -->
<g id="edge6" class="edge">
<title>n_2_3&#45;&gt;n_2</title>
<path fill="none" stroke="black" d="M86.13,-79.29C78.71,-69.27 69.12,-56.31 60.73,-44.98"/>
<polygon fill="black" stroke="black" points="63.7,-43.11 54.94,-37.16 58.08,-47.28 63.7,-43.11"/>
</g>
<!-- n_3 -->
<g id="node8" class="node">
<title>n_3</title>
<polygon fill="none" stroke="black" points="121.5,-5.38 121.5,-30.62 189.5,-30.62 189.5,-5.38 121.5,-5.38"/>
<text text-anchor="start" x="128.5" y="-16.07" font-family="Times New Roman,serif" font-weight="bold" font-size="9.00">Overweight II</text>
<polygon fill="none" stroke="black" points="120.5,-4.38 120.5,-31.62 190.5,-31.62 190.5,-4.38 120.5,-4.38"/>
</g>
<!-- n_2_3&#45;&gt;n_3 -->
<g id="edge7" class="edge">
<title>n_2_3&#45;&gt;n_3</title>
<path fill="none" stroke="black" d="M110.87,-79.29C118.29,-69.27 127.88,-56.31 136.27,-44.98"/>
<polygon fill="black" stroke="black" points="138.92,-47.28 142.06,-37.16 133.3,-43.11 138.92,-47.28"/>
</g>
</g>
</svg>
