<?xml version="1.0" encoding="UTF-8" standalone="no"?>
<!DOCTYPE svg PUBLIC "-//W3C//DTD SVG 1.1//EN"
 "http://www.w3.org/Graphics/SVG/1.1/DTD/svg11.dtd">
<!-- Generated by graphviz version 10.0.1 (20240210.2158)
 -->
<!-- Title: ND Pages: 1 -->
<svg width="556pt" height="535pt"
 viewBox="0.00 0.00 555.50 535.00" xmlns="http://www.w3.org/2000/svg" xmlns:xlink="http://www.w3.org/1999/xlink">
<g id="graph0" class="graph" transform="scale(1 1) rotate(0) translate(4 531)">
<title>ND</title>
<polygon fill="white" stroke="none" points="-4,4 -4,-531 551.5,-531 551.5,4 -4,4"/>
<!-- n_0_1_2_3_4_5_6 -->
<g id="node1" class="node">
<title>n_0_1_2_3_4_5_6</title>
<polygon fill="none" stroke="black" points="365.38,-454 365.38,-522 453.62,-522 453.62,-454 365.38,-454"/>
<text text-anchor="start" x="372.38" y="-507.45" font-family="Times New Roman,serif" font-weight="bold" font-size="9.00">Insufficient weight</text>
<text text-anchor="start" x="394.5" y="-498.45" font-family="Times New Roman,serif" font-weight="bold" font-size="9.00">Normal</text>
<text text-anchor="start" x="384" y="-489.45" font-family="Times New Roman,serif" font-weight="bold" font-size="9.00">Overweight I</text>
<text text-anchor="start" x="382.5" y="-480.45" font-family="Times New Roman,serif" font-weight="bold" font-size="9.00">Overweight II</text>
<text text-anchor="start" x="391.5" y="-471.45" font-family="Times New Roman,serif" font-weight="bold" font-size="9.00">Obesity I</text>
<text text-anchor="start" x="388.5" y="-462.45" font-family="Times New Roman,serif" font-weight="bold" font-size="9.00">Obesity III</text>
<polygon fill="none" stroke="black" points="453.62,-454 453.62,-522 506.62,-522 506.62,-454 453.62,-454"/>
<text text-anchor="start" x="460.62" y="-486.07" font-family="Times New Roman,serif" font-weight="bold" font-size="9.00">Obesity II</text>
<polygon fill="none" stroke="black" points="364.38,-453 364.38,-523 507.62,-523 507.62,-453 364.38,-453"/>
</g>
<!-- n_0_1_2_3_4_6 -->
<g id="node2" class="node">
<title>n_0_1_2_3_4_6</title>
<polygon fill="none" stroke="black" points="281.88,-342 281.88,-401 349.88,-401 349.88,-342 281.88,-342"/>
<text text-anchor="start" x="300.88" y="-386.45" font-family="Times New Roman,serif" font-weight="bold" font-size="9.00">Normal</text>
<text text-anchor="start" x="290.38" y="-377.45" font-family="Times New Roman,serif" font-weight="bold" font-size="9.00">Overweight I</text>
<text text-anchor="start" x="288.88" y="-368.45" font-family="Times New Roman,serif" font-weight="bold" font-size="9.00">Overweight II</text>
<text text-anchor="start" x="297.88" y="-359.45" font-family="Times New Roman,serif" font-weight="bold" font-size="9.00">Obesity I</text>
<text text-anchor="start" x="294.88" y="-350.45" font-family="Times New Roman,serif" font-weight="bold" font-size="9.00">Obesity III</text>
<polygon fill="none" stroke="black" points="349.88,-342 349.88,-401 438.12,-401 438.12,-342 349.88,-342"/>
<text text-anchor="start" x="356.88" y="-369.57" font-family="Times New Roman,serif" font-weight="bold" font-size="9.00">Insufficient weight</text>
<polygon fill="none" stroke="black" points="280.88,-341 280.88,-402 439.12,-402 439.12,-341 280.88,-341"/>
</g>
<!-- n_0_1_2_3_4_5_6&#45;&gt;n_0_1_2_3_4_6 -->
<g id="edge1" class="edge">
<title>n_0_1_2_3_4_5_6&#45;&gt;n_0_1_2_3_4_6</title>
<path fill="none" stroke="black" d="M410.9,-449.19C403.68,-438.31 395.75,-426.36 388.35,-415.21"/>
<polygon fill="black" stroke="black" points="391.29,-413.31 382.84,-406.91 385.46,-417.18 391.29,-413.31"/>
</g>
<!-- n_5 -->
<g id="node13" class="node">
<title>n_5</title>
<polygon fill="none" stroke="black" points="485.5,-358.88 485.5,-384.12 538.5,-384.12 538.5,-358.88 485.5,-358.88"/>
<text text-anchor="start" x="492.5" y="-369.57" font-family="Times New Roman,serif" font-weight="bold" font-size="9.00">Obesity II</text>
<polygon fill="none" stroke="black" points="484.5,-357.88 484.5,-385.12 539.5,-385.12 539.5,-357.88 484.5,-357.88"/>
</g>
<!-- n_0_1_2_3_4_5_6&#45;&gt;n_5 -->
<g id="edge12" class="edge">
<title>n_0_1_2_3_4_5_6&#45;&gt;n_5</title>
<path fill="none" stroke="black" d="M461.1,-449.19C472.09,-432.63 484.72,-413.6 494.65,-398.64"/>
<polygon fill="black" stroke="black" points="497.29,-400.99 499.9,-390.72 491.46,-397.12 497.29,-400.99"/>
</g>
<!-- n_1_2_3_4_6 -->
<g id="node3" class="node">
<title>n_1_2_3_4_6</title>
<polygon fill="none" stroke="black" points="214.5,-248 214.5,-289 282.5,-289 282.5,-248 214.5,-248"/>
<text text-anchor="start" x="233.5" y="-274.45" font-family="Times New Roman,serif" font-weight="bold" font-size="9.00">Normal</text>
<text text-anchor="start" x="221.5" y="-265.45" font-family="Times New Roman,serif" font-weight="bold" font-size="9.00">Overweight II</text>
<text text-anchor="start" x="227.5" y="-256.45" font-family="Times New Roman,serif" font-weight="bold" font-size="9.00">Obesity III</text>
<polygon fill="none" stroke="black" points="282.5,-248 282.5,-289 347.5,-289 347.5,-248 282.5,-248"/>
<text text-anchor="start" x="289.5" y="-269.95" font-family="Times New Roman,serif" font-weight="bold" font-size="9.00">Overweight I</text>
<text text-anchor="start" x="297" y="-260.95" font-family="Times New Roman,serif" font-weight="bold" font-size="9.00">Obesity I</text>
<polygon fill="none" stroke="black" points="213.5,-247 213.5,-290 348.5,-290 348.5,-247 213.5,-247"/>
</g>
<!-- n_0_1_2_3_4_6&#45;&gt;n_1_2_3_4_6 -->
<g id="edge2" class="edge">
<title>n_0_1_2_3_4_6&#45;&gt;n_1_2_3_4_6</title>
<path fill="none" stroke="black" d="M333.91,-337.15C325.28,-326.11 315.67,-313.82 307.03,-302.78"/>
<polygon fill="black" stroke="black" points="309.9,-300.77 300.99,-295.05 304.39,-305.08 309.9,-300.77"/>
</g>
<!-- n_0 -->
<g id="node12" class="node">
<title>n_0</title>
<polygon fill="none" stroke="black" points="394.88,-255.88 394.88,-281.12 483.12,-281.12 483.12,-255.88 394.88,-255.88"/>
<text text-anchor="start" x="401.88" y="-266.57" font-family="Times New Roman,serif" font-weight="bold" font-size="9.00">Insufficient weight</text>
<polygon fill="none" stroke="black" points="393.88,-254.88 393.88,-282.12 484.12,-282.12 484.12,-254.88 393.88,-254.88"/>
</g>
<!-- n_0_1_2_3_4_6&#45;&gt;n_0 -->
<g id="edge11" class="edge">
<title>n_0_1_2_3_4_6&#45;&gt;n_0</title>
<path fill="none" stroke="black" d="M386.09,-337.15C396.79,-323.46 408.99,-307.87 418.97,-295.11"/>
<polygon fill="black" stroke="black" points="421.46,-297.61 424.86,-287.57 415.95,-293.29 421.46,-297.61"/>
</g>
<!-- n_1_3_6 -->
<g id="node4" class="node">
<title>n_1_3_6</title>
<polygon fill="none" stroke="black" points="136,-163 136,-195 204,-195 204,-163 136,-163"/>
<text text-anchor="start" x="155" y="-180.45" font-family="Times New Roman,serif" font-weight="bold" font-size="9.00">Normal</text>
<text text-anchor="start" x="143" y="-171.45" font-family="Times New Roman,serif" font-weight="bold" font-size="9.00">Overweight II</text>
<polygon fill="none" stroke="black" points="204,-163 204,-195 260,-195 260,-163 204,-163"/>
<text text-anchor="start" x="211" y="-177.07" font-family="Times New Roman,serif" font-weight="bold" font-size="9.00">Obesity III</text>
<polygon fill="none" stroke="black" points="135,-162 135,-196 261,-196 261,-162 135,-162"/>
</g>
<!-- n_1_2_3_4_6&#45;&gt;n_1_3_6 -->
<g id="edge3" class="edge">
<title>n_1_2_3_4_6&#45;&gt;n_1_3_6</title>
<path fill="none" stroke="black" d="M257.88,-243.13C247.56,-232.25 235.34,-219.36 224.64,-208.08"/>
<polygon fill="black" stroke="black" points="227.27,-205.77 217.85,-200.92 222.19,-210.59 227.27,-205.77"/>
</g>
<!-- n_2_4 -->
<g id="node9" class="node">
<title>n_2_4</title>
<polygon fill="none" stroke="black" points="307.5,-166.38 307.5,-191.62 372.5,-191.62 372.5,-166.38 307.5,-166.38"/>
<text text-anchor="start" x="314.5" y="-177.07" font-family="Times New Roman,serif" font-weight="bold" font-size="9.00">Overweight I</text>
<polygon fill="none" stroke="black" points="372.5,-166.38 372.5,-191.62 422.5,-191.62 422.5,-166.38 372.5,-166.38"/>
<text text-anchor="start" x="379.5" y="-177.07" font-family="Times New Roman,serif" font-weight="bold" font-size="9.00">Obesity I</text>
<polygon fill="none" stroke="black" points="306.5,-165.38 306.5,-192.62 423.5,-192.62 423.5,-165.38 306.5,-165.38"/>
</g>
<!-- n_1_2_3_4_6&#45;&gt;n_2_4 -->
<g id="edge8" class="edge">
<title>n_1_2_3_4_6&#45;&gt;n_2_4</title>
<path fill="none" stroke="black" d="M304.4,-243.13C315.81,-231.24 329.51,-216.97 340.99,-205.01"/>
<polygon fill="black" stroke="black" points="343.45,-207.5 347.85,-197.86 338.4,-202.65 343.45,-207.5"/>
</g>
<!-- n_1_3 -->
<g id="node5" class="node">
<title>n_1_3</title>
<polygon fill="none" stroke="black" points="26,-84.38 26,-109.62 70,-109.62 70,-84.38 26,-84.38"/>
<text text-anchor="start" x="33" y="-95.08" font-family="Times New Roman,serif" font-weight="bold" font-size="9.00">Normal</text>
<polygon fill="none" stroke="black" points="70,-84.38 70,-109.62 138,-109.62 138,-84.38 70,-84.38"/>
<text text-anchor="start" x="77" y="-95.08" font-family="Times New Roman,serif" font-weight="bold" font-size="9.00">Overweight II</text>
<polygon fill="none" stroke="black" points="25,-83.38 25,-110.62 139,-110.62 139,-83.38 25,-83.38"/>
</g>
<!-- n_1_3_6&#45;&gt;n_1_3 -->
<g id="edge4" class="edge">
<title>n_1_3_6&#45;&gt;n_1_3</title>
<path fill="none" stroke="black" d="M169.03,-158.02C152.72,-146.77 132.29,-132.68 115.32,-120.98"/>
<polygon fill="black" stroke="black" points="117.76,-118.41 107.55,-115.62 113.79,-124.18 117.76,-118.41"/>
</g>
<!-- n_6 -->
<g id="node8" class="node">
<title>n_6</title>
<polygon fill="none" stroke="black" points="185,-84.38 185,-109.62 241,-109.62 241,-84.38 185,-84.38"/>
<text text-anchor="start" x="192" y="-95.08" font-family="Times New Roman,serif" font-weight="bold" font-size="9.00">Obesity III</text>
<polygon fill="none" stroke="black" points="184,-83.38 184,-110.62 242,-110.62 242,-83.38 184,-83.38"/>
</g>
<!-- n_1_3_6&#45;&gt;n_6 -->
<g id="edge7" class="edge">
<title>n_1_3_6&#45;&gt;n_6</title>
<path fill="none" stroke="black" d="M201.71,-158.22C203.52,-148.54 205.74,-136.72 207.73,-126.11"/>
<polygon fill="black" stroke="black" points="211.16,-126.81 209.56,-116.33 204.28,-125.52 211.16,-126.81"/>
</g>
<!-- n_1 -->
<g id="node6" class="node">
<title>n_1</title>
<polygon fill="none" stroke="black" points="9,-5.38 9,-30.62 53,-30.62 53,-5.38 9,-5.38"/>
<text text-anchor="start" x="16" y="-16.07" font-family="Times New Roman,serif" font-weight="bold" font-size="9.00">Normal</text>
<polygon fill="none" stroke="black" points="8,-4.38 8,-31.62 54,-31.62 54,-4.38 8,-4.38"/>
</g>
<!-- n_1_3&#45;&gt;n_1 -->
<g id="edge5" class="edge">
<title>n_1_3&#45;&gt;n_1</title>
<path fill="none" stroke="black" d="M70.93,-79.29C64.36,-69.37 55.89,-56.57 48.43,-45.32"/>
<polygon fill="black" stroke="black" points="51.5,-43.61 43.06,-37.2 45.66,-47.47 51.5,-43.61"/>
</g>
<!-- n_3 -->
<g id="node7" class="node">
<title>n_3</title>
<polygon fill="none" stroke="black" points="100,-5.38 100,-30.62 168,-30.62 168,-5.38 100,-5.38"/>
<text text-anchor="start" x="107" y="-16.07" font-family="Times New Roman,serif" font-weight="bold" font-size="9.00">Overweight II</text>
<polygon fill="none" stroke="black" points="99,-4.38 99,-31.62 169,-31.62 169,-4.38 99,-4.38"/>
</g>
<!-- n_1_3&#45;&gt;n_3 -->
<g id="edge6" class="edge">
<title>n_1_3&#45;&gt;n_3</title>
<path fill="none" stroke="black" d="M93.28,-79.29C99.98,-69.37 108.63,-56.57 116.23,-45.32"/>
<polygon fill="black" stroke="black" points="119.02,-47.44 121.71,-37.2 113.22,-43.52 119.02,-47.44"/>
</g>
<!-- n_2 -->
<g id="node10" class="node">
<title>n_2</title>
<polygon fill="none" stroke="black" points="317.5,-84.38 317.5,-109.62 382.5,-109.62 382.5,-84.38 317.5,-84.38"/>
<text text-anchor="start" x="324.5" y="-95.08" font-family="Times New Roman,serif" font-weight="bold" font-size="9.00">Overweight I</text>
<polygon fill="none" stroke="black" points="316.5,-83.38 316.5,-110.62 383.5,-110.62 383.5,-83.38 316.5,-83.38"/>
</g>
<!-- n_2_4&#45;&gt;n_2 -->
<g id="edge9" class="edge">
<title>n_2_4&#45;&gt;n_2</title>
<path fill="none" stroke="black" d="M361.82,-161.03C359.91,-150.85 357.43,-137.65 355.24,-125.96"/>
<polygon fill="black" stroke="black" points="358.74,-125.61 353.46,-116.43 351.86,-126.9 358.74,-125.61"/>
</g>
<!-- n_4 -->
<g id="node11" class="node">
<title>n_4</title>
<polygon fill="none" stroke="black" points="430,-84.38 430,-109.62 480,-109.62 480,-84.38 430,-84.38"/>
<text text-anchor="start" x="437" y="-95.08" font-family="Times New Roman,serif" font-weight="bold" font-size="9.00">Obesity I</text>
<polygon fill="none" stroke="black" points="429,-83.38 429,-110.62 481,-110.62 481,-83.38 429,-83.38"/>
</g>
<!-- n_2_4&#45;&gt;n_4 -->
<g id="edge10" class="edge">
<title>n_2_4&#45;&gt;n_4</title>
<path fill="none" stroke="black" d="M384.09,-161.03C396.73,-149.79 413.53,-134.87 427.59,-122.36"/>
<polygon fill="black" stroke="black" points="429.66,-125.21 434.81,-115.95 425.01,-119.97 429.66,-125.21"/>
</g>
</g>
</svg>
