<?xml version="1.0" encoding="UTF-8" standalone="no"?>
<!DOCTYPE svg PUBLIC "-//W3C//DTD SVG 1.1//EN"
 "http://www.w3.org/Graphics/SVG/1.1/DTD/svg11.dtd">
<!-- Generated by graphviz version 10.0.1 (20240210.2158)
 -->
<!-- Title: ND Pages: 1 -->
<svg width="560pt" height="535pt"
 viewBox="0.00 0.00 560.00 535.00" xmlns="http://www.w3.org/2000/svg" xmlns:xlink="http://www.w3.org/1999/xlink">
<g id="graph0" class="graph" transform="scale(1 1) rotate(0) translate(4 531)">
<title>ND</title>
<polygon fill="white" stroke="none" points="-4,4 -4,-531 556,-531 556,4 -4,4"/>
<!-- n_0_1_2_3_4_5_6 -->
<g id="node1" class="node">
<title>n_0_1_2_3_4_5_6</title>
<polygon fill="none" stroke="black" points="366.88,-454 366.88,-522 455.12,-522 455.12,-454 366.88,-454"/>
<text text-anchor="start" x="373.88" y="-507.45" font-family="Times New Roman,serif" font-weight="bold" font-size="9.00">Insufficient weight</text>
<text text-anchor="start" x="396" y="-498.45" font-family="Times New Roman,serif" font-weight="bold" font-size="9.00">Normal</text>
<text text-anchor="start" x="385.5" y="-489.45" font-family="Times New Roman,serif" font-weight="bold" font-size="9.00">Overweight I</text>
<text text-anchor="start" x="384" y="-480.45" font-family="Times New Roman,serif" font-weight="bold" font-size="9.00">Overweight II</text>
<text text-anchor="start" x="393" y="-471.45" font-family="Times New Roman,serif" font-weight="bold" font-size="9.00">Obesity I</text>
<text text-anchor="start" x="391.5" y="-462.45" font-family="Times New Roman,serif" font-weight="bold" font-size="9.00">Obesity II</text>
<polygon fill="none" stroke="black" points="455.12,-454 455.12,-522 511.12,-522 511.12,-454 455.12,-454"/>
<text text-anchor="start" x="462.12" y="-486.07" font-family="Times New Roman,serif" font-weight="bold" font-size="9.00">Obesity III</text>
<polygon fill="none" stroke="black" points="365.88,-453 365.88,-523 512.12,-523 512.12,-453 365.88,-453"/>
</g>
<!-- n_0_1_2_3_4_5 -->
<g id="node2" class="node">
<title>n_0_1_2_3_4_5</title>
<polygon fill="none" stroke="black" points="286.38,-342 286.38,-401 374.62,-401 374.62,-342 286.38,-342"/>
<text text-anchor="start" x="293.38" y="-386.45" font-family="Times New Roman,serif" font-weight="bold" font-size="9.00">Insufficient weight</text>
<text text-anchor="start" x="315.5" y="-377.45" font-family="Times New Roman,serif" font-weight="bold" font-size="9.00">Normal</text>
<text text-anchor="start" x="303.5" y="-368.45" font-family="Times New Roman,serif" font-weight="bold" font-size="9.00">Overweight II</text>
<text text-anchor="start" x="312.5" y="-359.45" font-family="Times New Roman,serif" font-weight="bold" font-size="9.00">Obesity I</text>
<text text-anchor="start" x="311" y="-350.45" font-family="Times New Roman,serif" font-weight="bold" font-size="9.00">Obesity II</text>
<polygon fill="none" stroke="black" points="374.62,-342 374.62,-401 439.62,-401 439.62,-342 374.62,-342"/>
<text text-anchor="start" x="381.62" y="-369.57" font-family="Times New Roman,serif" font-weight="bold" font-size="9.00">Overweight I</text>
<polygon fill="none" stroke="black" points="285.38,-341 285.38,-402 440.62,-402 440.62,-341 285.38,-341"/>
</g>
<!-- n_0_1_2_3_4_5_6&#45;&gt;n_0_1_2_3_4_5 -->
<g id="edge1" class="edge">
<title>n_0_1_2_3_4_5_6&#45;&gt;n_0_1_2_3_4_5</title>
<path fill="none" stroke="black" d="M413.9,-449.19C406.68,-438.31 398.75,-426.36 391.35,-415.21"/>
<polygon fill="black" stroke="black" points="394.29,-413.31 385.84,-406.91 388.46,-417.18 394.29,-413.31"/>
</g>
<!-- n_6 -->
<g id="node13" class="node">
<title>n_6</title>
<polygon fill="none" stroke="black" points="487,-358.88 487,-384.12 543,-384.12 543,-358.88 487,-358.88"/>
<text text-anchor="start" x="494" y="-369.57" font-family="Times New Roman,serif" font-weight="bold" font-size="9.00">Obesity III</text>
<polygon fill="none" stroke="black" points="486,-357.88 486,-385.12 544,-385.12 544,-357.88 486,-357.88"/>
</g>
<!-- n_0_1_2_3_4_5_6&#45;&gt;n_6 -->
<g id="edge12" class="edge">
<title>n_0_1_2_3_4_5_6&#45;&gt;n_6</title>
<path fill="none" stroke="black" d="M464.1,-449.19C475.09,-432.63 487.72,-413.6 497.65,-398.64"/>
<polygon fill="black" stroke="black" points="500.29,-400.99 502.9,-390.72 494.46,-397.12 500.29,-400.99"/>
</g>
<!-- n_0_1_3_4_5 -->
<g id="node3" class="node">
<title>n_0_1_3_4_5</title>
<polygon fill="none" stroke="black" points="205.88,-248 205.88,-289 273.88,-289 273.88,-248 205.88,-248"/>
<text text-anchor="start" x="224.88" y="-274.45" font-family="Times New Roman,serif" font-weight="bold" font-size="9.00">Normal</text>
<text text-anchor="start" x="212.88" y="-265.45" font-family="Times New Roman,serif" font-weight="bold" font-size="9.00">Overweight II</text>
<text text-anchor="start" x="220.38" y="-256.45" font-family="Times New Roman,serif" font-weight="bold" font-size="9.00">Obesity II</text>
<polygon fill="none" stroke="black" points="273.88,-248 273.88,-289 362.12,-289 362.12,-248 273.88,-248"/>
<text text-anchor="start" x="280.88" y="-269.95" font-family="Times New Roman,serif" font-weight="bold" font-size="9.00">Insufficient weight</text>
<text text-anchor="start" x="300" y="-260.95" font-family="Times New Roman,serif" font-weight="bold" font-size="9.00">Obesity I</text>
<polygon fill="none" stroke="black" points="204.88,-247 204.88,-290 363.12,-290 363.12,-247 204.88,-247"/>
</g>
<!-- n_0_1_2_3_4_5&#45;&gt;n_0_1_3_4_5 -->
<g id="edge2" class="edge">
<title>n_0_1_2_3_4_5&#45;&gt;n_0_1_3_4_5</title>
<path fill="none" stroke="black" d="M336.91,-337.15C328.28,-326.11 318.67,-313.82 310.03,-302.78"/>
<polygon fill="black" stroke="black" points="312.9,-300.77 303.99,-295.05 307.39,-305.08 312.9,-300.77"/>
</g>
<!-- n_2 -->
<g id="node12" class="node">
<title>n_2</title>
<polygon fill="none" stroke="black" points="409.5,-255.88 409.5,-281.12 474.5,-281.12 474.5,-255.88 409.5,-255.88"/>
<text text-anchor="start" x="416.5" y="-266.57" font-family="Times New Roman,serif" font-weight="bold" font-size="9.00">Overweight I</text>
<polygon fill="none" stroke="black" points="408.5,-254.88 408.5,-282.12 475.5,-282.12 475.5,-254.88 408.5,-254.88"/>
</g>
<!-- n_0_1_2_3_4_5&#45;&gt;n_2 -->
<g id="edge11" class="edge">
<title>n_0_1_2_3_4_5&#45;&gt;n_2</title>
<path fill="none" stroke="black" d="M389.09,-337.15C399.79,-323.46 411.99,-307.87 421.97,-295.11"/>
<polygon fill="black" stroke="black" points="424.46,-297.61 427.86,-287.57 418.95,-293.29 424.46,-297.61"/>
</g>
<!-- n_1_3_5 -->
<g id="node4" class="node">
<title>n_1_3_5</title>
<polygon fill="none" stroke="black" points="135.5,-163 135.5,-195 188.5,-195 188.5,-163 135.5,-163"/>
<text text-anchor="start" x="147" y="-180.45" font-family="Times New Roman,serif" font-weight="bold" font-size="9.00">Normal</text>
<text text-anchor="start" x="142.5" y="-171.45" font-family="Times New Roman,serif" font-weight="bold" font-size="9.00">Obesity II</text>
<polygon fill="none" stroke="black" points="188.5,-163 188.5,-195 256.5,-195 256.5,-163 188.5,-163"/>
<text text-anchor="start" x="195.5" y="-177.07" font-family="Times New Roman,serif" font-weight="bold" font-size="9.00">Overweight II</text>
<polygon fill="none" stroke="black" points="134.5,-162 134.5,-196 257.5,-196 257.5,-162 134.5,-162"/>
</g>
<!-- n_0_1_3_4_5&#45;&gt;n_1_3_5 -->
<g id="edge3" class="edge">
<title>n_0_1_3_4_5&#45;&gt;n_1_3_5</title>
<path fill="none" stroke="black" d="M259.49,-243.13C248.44,-232.14 235.33,-219.11 223.91,-207.75"/>
<polygon fill="black" stroke="black" points="226.57,-205.46 217.01,-200.89 221.64,-210.43 226.57,-205.46"/>
</g>
<!-- n_0_4 -->
<g id="node9" class="node">
<title>n_0_4</title>
<polygon fill="none" stroke="black" points="303.88,-166.38 303.88,-191.62 392.12,-191.62 392.12,-166.38 303.88,-166.38"/>
<text text-anchor="start" x="310.88" y="-177.07" font-family="Times New Roman,serif" font-weight="bold" font-size="9.00">Insufficient weight</text>
<polygon fill="none" stroke="black" points="392.12,-166.38 392.12,-191.62 442.12,-191.62 442.12,-166.38 392.12,-166.38"/>
<text text-anchor="start" x="399.12" y="-177.07" font-family="Times New Roman,serif" font-weight="bold" font-size="9.00">Obesity I</text>
<polygon fill="none" stroke="black" points="302.88,-165.38 302.88,-192.62 443.12,-192.62 443.12,-165.38 302.88,-165.38"/>
</g>
<!-- n_0_1_3_4_5&#45;&gt;n_0_4 -->
<g id="edge8" class="edge">
<title>n_0_1_3_4_5&#45;&gt;n_0_4</title>
<path fill="none" stroke="black" d="M308.79,-243.13C320.99,-231.13 335.67,-216.7 347.92,-204.66"/>
<polygon fill="black" stroke="black" points="350.19,-207.34 354.86,-197.83 345.28,-202.35 350.19,-207.34"/>
</g>
<!-- n_1_5 -->
<g id="node5" class="node">
<title>n_1_5</title>
<polygon fill="none" stroke="black" points="30.5,-84.38 30.5,-109.62 74.5,-109.62 74.5,-84.38 30.5,-84.38"/>
<text text-anchor="start" x="37.5" y="-95.08" font-family="Times New Roman,serif" font-weight="bold" font-size="9.00">Normal</text>
<polygon fill="none" stroke="black" points="74.5,-84.38 74.5,-109.62 127.5,-109.62 127.5,-84.38 74.5,-84.38"/>
<text text-anchor="start" x="81.5" y="-95.08" font-family="Times New Roman,serif" font-weight="bold" font-size="9.00">Obesity II</text>
<polygon fill="none" stroke="black" points="29.5,-83.38 29.5,-110.62 128.5,-110.62 128.5,-83.38 29.5,-83.38"/>
</g>
<!-- n_1_3_5&#45;&gt;n_1_5 -->
<g id="edge4" class="edge">
<title>n_1_3_5&#45;&gt;n_1_5</title>
<path fill="none" stroke="black" d="M166.78,-158.02C150.33,-146.77 129.72,-132.68 112.61,-120.98"/>
<polygon fill="black" stroke="black" points="114.99,-118.37 104.76,-115.61 111.04,-124.15 114.99,-118.37"/>
</g>
<!-- n_3 -->
<g id="node8" class="node">
<title>n_3</title>
<polygon fill="none" stroke="black" points="175,-84.38 175,-109.62 243,-109.62 243,-84.38 175,-84.38"/>
<text text-anchor="start" x="182" y="-95.08" font-family="Times New Roman,serif" font-weight="bold" font-size="9.00">Overweight II</text>
<polygon fill="none" stroke="black" points="174,-83.38 174,-110.62 244,-110.62 244,-83.38 174,-83.38"/>
</g>
<!-- n_1_3_5&#45;&gt;n_3 -->
<g id="edge7" class="edge">
<title>n_1_3_5&#45;&gt;n_3</title>
<path fill="none" stroke="black" d="M199.21,-158.22C200.79,-148.54 202.71,-136.72 204.43,-126.11"/>
<polygon fill="black" stroke="black" points="207.87,-126.77 206.02,-116.34 200.96,-125.65 207.87,-126.77"/>
</g>
<!-- n_1 -->
<g id="node6" class="node">
<title>n_1</title>
<polygon fill="none" stroke="black" points="9,-5.38 9,-30.62 53,-30.62 53,-5.38 9,-5.38"/>
<text text-anchor="start" x="16" y="-16.07" font-family="Times New Roman,serif" font-weight="bold" font-size="9.00">Normal</text>
<polygon fill="none" stroke="black" points="8,-4.38 8,-31.62 54,-31.62 54,-4.38 8,-4.38"/>
</g>
<!-- n_1_5&#45;&gt;n_1 -->
<g id="edge5" class="edge">
<title>n_1_5&#45;&gt;n_1</title>
<path fill="none" stroke="black" d="M68.58,-79.29C62.46,-69.47 54.58,-56.83 47.62,-45.66"/>
<polygon fill="black" stroke="black" points="50.62,-43.86 42.36,-37.23 44.68,-47.56 50.62,-43.86"/>
</g>
<!-- n_5 -->
<g id="node7" class="node">
<title>n_5</title>
<polygon fill="none" stroke="black" points="100.5,-5.38 100.5,-30.62 153.5,-30.62 153.5,-5.38 100.5,-5.38"/>
<text text-anchor="start" x="107.5" y="-16.07" font-family="Times New Roman,serif" font-weight="bold" font-size="9.00">Obesity II</text>
<polygon fill="none" stroke="black" points="99.5,-4.38 99.5,-31.62 154.5,-31.62 154.5,-4.38 99.5,-4.38"/>
</g>
<!-- n_1_5&#45;&gt;n_5 -->
<g id="edge6" class="edge">
<title>n_1_5&#45;&gt;n_5</title>
<path fill="none" stroke="black" d="M89.42,-79.29C95.54,-69.47 103.42,-56.83 110.38,-45.66"/>
<polygon fill="black" stroke="black" points="113.32,-47.56 115.64,-37.23 107.38,-43.86 113.32,-47.56"/>
</g>
<!-- n_0 -->
<g id="node10" class="node">
<title>n_0</title>
<polygon fill="none" stroke="black" points="315.88,-84.38 315.88,-109.62 404.12,-109.62 404.12,-84.38 315.88,-84.38"/>
<text text-anchor="start" x="322.88" y="-95.08" font-family="Times New Roman,serif" font-weight="bold" font-size="9.00">Insufficient weight</text>
<polygon fill="none" stroke="black" points="314.88,-83.38 314.88,-110.62 405.12,-110.62 405.12,-83.38 314.88,-83.38"/>
</g>
<!-- n_0_4&#45;&gt;n_0 -->
<g id="edge9" class="edge">
<title>n_0_4&#45;&gt;n_0</title>
<path fill="none" stroke="black" d="M370.24,-161.03C368.59,-150.85 366.44,-137.65 364.54,-125.96"/>
<polygon fill="black" stroke="black" points="368.05,-125.74 363,-116.44 361.15,-126.87 368.05,-125.74"/>
</g>
<!-- n_4 -->
<g id="node11" class="node">
<title>n_4</title>
<polygon fill="none" stroke="black" points="451,-84.38 451,-109.62 501,-109.62 501,-84.38 451,-84.38"/>
<text text-anchor="start" x="458" y="-95.08" font-family="Times New Roman,serif" font-weight="bold" font-size="9.00">Obesity I</text>
<polygon fill="none" stroke="black" points="450,-83.38 450,-110.62 502,-110.62 502,-83.38 450,-83.38"/>
</g>
<!-- n_0_4&#45;&gt;n_4 -->
<g id="edge10" class="edge">
<title>n_0_4&#45;&gt;n_4</title>
<path fill="none" stroke="black" d="M394.84,-161.03C409.59,-149.58 429.26,-134.3 445.54,-121.66"/>
<polygon fill="black" stroke="black" points="447.24,-124.77 452.99,-115.87 442.95,-119.24 447.24,-124.77"/>
</g>
</g>
</svg>
