<?xml version="1.0" encoding="UTF-8" standalone="no"?>
<!DOCTYPE svg PUBLIC "-//W3C//DTD SVG 1.1//EN"
 "http://www.w3.org/Graphics/SVG/1.1/DTD/svg11.dtd">
<!-- Generated by graphviz version 10.0.1 (20240210.2158)
 -->
<!-- Title: ND Pages: 1 -->
<svg width="689pt" height="311pt"
 viewBox="0.00 0.00 689.12 311.00" xmlns="http://www.w3.org/2000/svg" xmlns:xlink="http://www.w3.org/1999/xlink">
<g id="graph0" class="graph" transform="scale(1 1) rotate(0) translate(4 307)">
<title>ND</title>
<polygon fill="white" stroke="none" points="-4,4 -4,-307 685.12,-307 685.12,4 -4,4"/>
<!-- n_0_1_2_3_4_5_6 -->
<g id="node1" class="node">
<title>n_0_1_2_3_4_5_6</title>
<polygon fill="none" stroke="black" points="368,-248 368,-298 456.25,-298 456.25,-248 368,-248"/>
<text text-anchor="start" x="375" y="-283.45" font-family="Times New Roman,serif" font-weight="bold" font-size="9.00">Insufficient weight</text>
<text text-anchor="start" x="386.62" y="-274.45" font-family="Times New Roman,serif" font-weight="bold" font-size="9.00">Overweight I</text>
<text text-anchor="start" x="385.12" y="-265.45" font-family="Times New Roman,serif" font-weight="bold" font-size="9.00">Overweight II</text>
<text text-anchor="start" x="394.12" y="-256.45" font-family="Times New Roman,serif" font-weight="bold" font-size="9.00">Obesity I</text>
<polygon fill="none" stroke="black" points="456.25,-248 456.25,-298 512.25,-298 512.25,-248 456.25,-248"/>
<text text-anchor="start" x="469.25" y="-278.95" font-family="Times New Roman,serif" font-weight="bold" font-size="9.00">Normal</text>
<text text-anchor="start" x="464.75" y="-269.95" font-family="Times New Roman,serif" font-weight="bold" font-size="9.00">Obesity II</text>
<text text-anchor="start" x="463.25" y="-260.95" font-family="Times New Roman,serif" font-weight="bold" font-size="9.00">Obesity III</text>
<polygon fill="none" stroke="black" points="367,-247 367,-299 513.25,-299 513.25,-247 367,-247"/>
</g>
<!-- n_0_2_3_4 -->
<g id="node2" class="node">
<title>n_0_2_3_4</title>
<polygon fill="none" stroke="black" points="275,-163 275,-195 363.25,-195 363.25,-163 275,-163"/>
<text text-anchor="start" x="282" y="-180.45" font-family="Times New Roman,serif" font-weight="bold" font-size="9.00">Insufficient weight</text>
<text text-anchor="start" x="293.62" y="-171.45" font-family="Times New Roman,serif" font-weight="bold" font-size="9.00">Overweight I</text>
<polygon fill="none" stroke="black" points="363.25,-163 363.25,-195 431.25,-195 431.25,-163 363.25,-163"/>
<text text-anchor="start" x="370.25" y="-180.45" font-family="Times New Roman,serif" font-weight="bold" font-size="9.00">Overweight II</text>
<text text-anchor="start" x="379.25" y="-171.45" font-family="Times New Roman,serif" font-weight="bold" font-size="9.00">Obesity I</text>
<polygon fill="none" stroke="black" points="274,-162 274,-196 432.25,-196 432.25,-162 274,-162"/>
</g>
<!-- n_0_1_2_3_4_5_6&#45;&gt;n_0_2_3_4 -->
<g id="edge1" class="edge">
<title>n_0_1_2_3_4_5_6&#45;&gt;n_0_2_3_4</title>
<path fill="none" stroke="black" d="M412.84,-243.14C402.19,-231.89 390.04,-219.04 379.49,-207.88"/>
<polygon fill="black" stroke="black" points="382.24,-205.69 372.82,-200.83 377.15,-210.5 382.24,-205.69"/>
</g>
<!-- n_1_5_6 -->
<g id="node9" class="node">
<title>n_1_5_6</title>
<polygon fill="none" stroke="black" points="478.12,-163 478.12,-195 534.12,-195 534.12,-163 478.12,-163"/>
<text text-anchor="start" x="486.62" y="-180.45" font-family="Times New Roman,serif" font-weight="bold" font-size="9.00">Obesity II</text>
<text text-anchor="start" x="485.12" y="-171.45" font-family="Times New Roman,serif" font-weight="bold" font-size="9.00">Obesity III</text>
<polygon fill="none" stroke="black" points="534.12,-163 534.12,-195 578.12,-195 578.12,-163 534.12,-163"/>
<text text-anchor="start" x="541.12" y="-177.07" font-family="Times New Roman,serif" font-weight="bold" font-size="9.00">Normal</text>
<polygon fill="none" stroke="black" points="477.12,-162 477.12,-196 579.12,-196 579.12,-162 477.12,-162"/>
</g>
<!-- n_0_1_2_3_4_5_6&#45;&gt;n_1_5_6 -->
<g id="edge8" class="edge">
<title>n_0_1_2_3_4_5_6&#45;&gt;n_1_5_6</title>
<path fill="none" stroke="black" d="M467.73,-243.14C478.49,-231.89 490.78,-219.04 501.46,-207.88"/>
<polygon fill="black" stroke="black" points="503.82,-210.47 508.21,-200.82 498.76,-205.63 503.82,-210.47"/>
</g>
<!-- n_0_2 -->
<g id="node3" class="node">
<title>n_0_2</title>
<polygon fill="none" stroke="black" points="98.5,-84.38 98.5,-109.62 186.75,-109.62 186.75,-84.38 98.5,-84.38"/>
<text text-anchor="start" x="105.5" y="-95.08" font-family="Times New Roman,serif" font-weight="bold" font-size="9.00">Insufficient weight</text>
<polygon fill="none" stroke="black" points="186.75,-84.38 186.75,-109.62 251.75,-109.62 251.75,-84.38 186.75,-84.38"/>
<text text-anchor="start" x="193.75" y="-95.08" font-family="Times New Roman,serif" font-weight="bold" font-size="9.00">Overweight I</text>
<polygon fill="none" stroke="black" points="97.5,-83.38 97.5,-110.62 252.75,-110.62 252.75,-83.38 97.5,-83.38"/>
</g>
<!-- n_0_2_3_4&#45;&gt;n_0_2 -->
<g id="edge2" class="edge">
<title>n_0_2_3_4&#45;&gt;n_0_2</title>
<path fill="none" stroke="black" d="M308.67,-158.02C282.58,-146.29 249.61,-131.47 222.95,-119.5"/>
<polygon fill="black" stroke="black" points="224.64,-116.42 214.09,-115.51 221.77,-122.8 224.64,-116.42"/>
</g>
<!-- n_3_4 -->
<g id="node6" class="node">
<title>n_3_4</title>
<polygon fill="none" stroke="black" points="299.12,-84.38 299.12,-109.62 367.12,-109.62 367.12,-84.38 299.12,-84.38"/>
<text text-anchor="start" x="306.12" y="-95.08" font-family="Times New Roman,serif" font-weight="bold" font-size="9.00">Overweight II</text>
<polygon fill="none" stroke="black" points="367.12,-84.38 367.12,-109.62 417.12,-109.62 417.12,-84.38 367.12,-84.38"/>
<text text-anchor="start" x="374.12" y="-95.08" font-family="Times New Roman,serif" font-weight="bold" font-size="9.00">Obesity I</text>
<polygon fill="none" stroke="black" points="298.12,-83.38 298.12,-110.62 418.12,-110.62 418.12,-83.38 298.12,-83.38"/>
</g>
<!-- n_0_2_3_4&#45;&gt;n_3_4 -->
<g id="edge5" class="edge">
<title>n_0_2_3_4&#45;&gt;n_3_4</title>
<path fill="none" stroke="black" d="M354.36,-158.22C354.97,-148.54 355.71,-136.72 356.37,-126.11"/>
<polygon fill="black" stroke="black" points="359.85,-126.55 356.98,-116.35 352.86,-126.12 359.85,-126.55"/>
</g>
<!-- n_0 -->
<g id="node4" class="node">
<title>n_0</title>
<polygon fill="none" stroke="black" points="9,-5.38 9,-30.62 97.25,-30.62 97.25,-5.38 9,-5.38"/>
<text text-anchor="start" x="16" y="-16.07" font-family="Times New Roman,serif" font-weight="bold" font-size="9.00">Insufficient weight</text>
<polygon fill="none" stroke="black" points="8,-4.38 8,-31.62 98.25,-31.62 98.25,-4.38 8,-4.38"/>
</g>
<!-- n_0_2&#45;&gt;n_0 -->
<g id="edge3" class="edge">
<title>n_0_2&#45;&gt;n_0</title>
<path fill="none" stroke="black" d="M148.35,-79.1C131.03,-68.17 108.26,-53.8 89.34,-41.85"/>
<polygon fill="black" stroke="black" points="91.44,-39.04 81.12,-36.67 87.7,-44.96 91.44,-39.04"/>
</g>
<!-- n_2 -->
<g id="node5" class="node">
<title>n_2</title>
<polygon fill="none" stroke="black" points="144.62,-5.38 144.62,-30.62 209.62,-30.62 209.62,-5.38 144.62,-5.38"/>
<text text-anchor="start" x="151.62" y="-16.07" font-family="Times New Roman,serif" font-weight="bold" font-size="9.00">Overweight I</text>
<polygon fill="none" stroke="black" points="143.62,-4.38 143.62,-31.62 210.62,-31.62 210.62,-4.38 143.62,-4.38"/>
</g>
<!-- n_0_2&#45;&gt;n_2 -->
<g id="edge4" class="edge">
<title>n_0_2&#45;&gt;n_2</title>
<path fill="none" stroke="black" d="M175.56,-79.29C175.8,-69.97 176.11,-58.11 176.39,-47.38"/>
<polygon fill="black" stroke="black" points="179.88,-47.54 176.65,-37.45 172.89,-47.36 179.88,-47.54"/>
</g>
<!-- n_3 -->
<g id="node7" class="node">
<title>n_3</title>
<polygon fill="none" stroke="black" points="276.12,-5.38 276.12,-30.62 344.12,-30.62 344.12,-5.38 276.12,-5.38"/>
<text text-anchor="start" x="283.12" y="-16.07" font-family="Times New Roman,serif" font-weight="bold" font-size="9.00">Overweight II</text>
<polygon fill="none" stroke="black" points="275.12,-4.38 275.12,-31.62 345.12,-31.62 345.12,-4.38 275.12,-4.38"/>
</g>
<!-- n_3_4&#45;&gt;n_3 -->
<g id="edge6" class="edge">
<title>n_3_4&#45;&gt;n_3</title>
<path fill="none" stroke="black" d="M347.71,-79.29C341.59,-69.47 333.71,-56.83 326.74,-45.66"/>
<polygon fill="black" stroke="black" points="329.75,-43.86 321.49,-37.23 323.81,-47.56 329.75,-43.86"/>
</g>
<!-- n_4 -->
<g id="node8" class="node">
<title>n_4</title>
<polygon fill="none" stroke="black" points="391.12,-5.38 391.12,-30.62 441.12,-30.62 441.12,-5.38 391.12,-5.38"/>
<text text-anchor="start" x="398.12" y="-16.07" font-family="Times New Roman,serif" font-weight="bold" font-size="9.00">Obesity I</text>
<polygon fill="none" stroke="black" points="390.12,-4.38 390.12,-31.62 442.12,-31.62 442.12,-4.38 390.12,-4.38"/>
</g>
<!-- n_3_4&#45;&gt;n_4 -->
<g id="edge7" class="edge">
<title>n_3_4&#45;&gt;n_4</title>
<path fill="none" stroke="black" d="M370.71,-79.29C378.26,-69.27 388.02,-56.31 396.56,-44.98"/>
<polygon fill="black" stroke="black" points="399.23,-47.24 402.45,-37.15 393.64,-43.03 399.23,-47.24"/>
</g>
<!-- n_5_6 -->
<g id="node10" class="node">
<title>n_5_6</title>
<polygon fill="none" stroke="black" points="471.62,-84.38 471.62,-109.62 524.62,-109.62 524.62,-84.38 471.62,-84.38"/>
<text text-anchor="start" x="478.62" y="-95.08" font-family="Times New Roman,serif" font-weight="bold" font-size="9.00">Obesity II</text>
<polygon fill="none" stroke="black" points="524.62,-84.38 524.62,-109.62 580.62,-109.62 580.62,-84.38 524.62,-84.38"/>
<text text-anchor="start" x="531.62" y="-95.08" font-family="Times New Roman,serif" font-weight="bold" font-size="9.00">Obesity III</text>
<polygon fill="none" stroke="black" points="470.62,-83.38 470.62,-110.62 581.62,-110.62 581.62,-83.38 470.62,-83.38"/>
</g>
<!-- n_1_5_6&#45;&gt;n_5_6 -->
<g id="edge9" class="edge">
<title>n_1_5_6&#45;&gt;n_5_6</title>
<path fill="none" stroke="black" d="M527.63,-158.22C527.39,-148.54 527.09,-136.72 526.83,-126.11"/>
<polygon fill="black" stroke="black" points="530.33,-126.27 526.58,-116.36 523.34,-126.44 530.33,-126.27"/>
</g>
<!-- n_1 -->
<g id="node13" class="node">
<title>n_1</title>
<polygon fill="none" stroke="black" points="628.12,-84.38 628.12,-109.62 672.12,-109.62 672.12,-84.38 628.12,-84.38"/>
<text text-anchor="start" x="635.12" y="-95.08" font-family="Times New Roman,serif" font-weight="bold" font-size="9.00">Normal</text>
<polygon fill="none" stroke="black" points="627.12,-83.38 627.12,-110.62 673.12,-110.62 673.12,-83.38 627.12,-83.38"/>
</g>
<!-- n_1_5_6&#45;&gt;n_1 -->
<g id="edge12" class="edge">
<title>n_1_5_6&#45;&gt;n_1</title>
<path fill="none" stroke="black" d="M558.6,-158.02C575.75,-146.77 597.23,-132.68 615.08,-120.98"/>
<polygon fill="black" stroke="black" points="616.86,-124 623.3,-115.59 613.02,-118.15 616.86,-124"/>
</g>
<!-- n_5 -->
<g id="node11" class="node">
<title>n_5</title>
<polygon fill="none" stroke="black" points="498.62,-5.38 498.62,-30.62 551.62,-30.62 551.62,-5.38 498.62,-5.38"/>
<text text-anchor="start" x="505.62" y="-16.07" font-family="Times New Roman,serif" font-weight="bold" font-size="9.00">Obesity II</text>
<polygon fill="none" stroke="black" points="497.62,-4.38 497.62,-31.62 552.62,-31.62 552.62,-4.38 497.62,-4.38"/>
</g>
<!-- n_5_6&#45;&gt;n_5 -->
<g id="edge10" class="edge">
<title>n_5_6&#45;&gt;n_5</title>
<path fill="none" stroke="black" d="M525.91,-79.29C525.79,-69.97 525.63,-58.11 525.49,-47.38"/>
<polygon fill="black" stroke="black" points="528.99,-47.41 525.36,-37.45 521.99,-47.5 528.99,-47.41"/>
</g>
<!-- n_6 -->
<g id="node12" class="node">
<title>n_6</title>
<polygon fill="none" stroke="black" points="599.12,-5.38 599.12,-30.62 655.12,-30.62 655.12,-5.38 599.12,-5.38"/>
<text text-anchor="start" x="606.12" y="-16.07" font-family="Times New Roman,serif" font-weight="bold" font-size="9.00">Obesity III</text>
<polygon fill="none" stroke="black" points="598.12,-4.38 598.12,-31.62 656.12,-31.62 656.12,-4.38 598.12,-4.38"/>
</g>
<!-- n_5_6&#45;&gt;n_6 -->
<g id="edge11" class="edge">
<title>n_5_6&#45;&gt;n_6</title>
<path fill="none" stroke="black" d="M548.04,-79.29C562.11,-68.57 580.58,-54.48 596.14,-42.62"/>
<polygon fill="black" stroke="black" points="597.87,-45.71 603.7,-36.86 593.63,-40.14 597.87,-45.71"/>
</g>
</g>
</svg>
