<?xml version="1.0" encoding="UTF-8" standalone="no"?>
<!DOCTYPE svg PUBLIC "-//W3C//DTD SVG 1.1//EN"
 "http://www.w3.org/Graphics/SVG/1.1/DTD/svg11.dtd">
<!-- Generated by graphviz version 10.0.1 (20240210.2158)
 -->
<!-- Title: ND Pages: 1 -->
<svg width="569pt" height="638pt"
 viewBox="0.00 0.00 568.50 638.00" xmlns="http://www.w3.org/2000/svg" xmlns:xlink="http://www.w3.org/1999/xlink">
<g id="graph0" class="graph" transform="scale(1 1) rotate(0) translate(4 634)">
<title>ND</title>
<polygon fill="white" stroke="none" points="-4,4 -4,-634 564.5,-634 564.5,4 -4,4"/>
<!-- n_0_1_2_3_4_5_6 -->
<g id="node1" class="node">
<title>n_0_1_2_3_4_5_6</title>
<polygon fill="none" stroke="black" points="363.38,-557 363.38,-625 451.62,-625 451.62,-557 363.38,-557"/>
<text text-anchor="start" x="370.38" y="-610.45" font-family="Times New Roman,serif" font-weight="bold" font-size="9.00">Insufficient weight</text>
<text text-anchor="start" x="392.5" y="-601.45" font-family="Times New Roman,serif" font-weight="bold" font-size="9.00">Normal</text>
<text text-anchor="start" x="380.5" y="-592.45" font-family="Times New Roman,serif" font-weight="bold" font-size="9.00">Overweight II</text>
<text text-anchor="start" x="389.5" y="-583.45" font-family="Times New Roman,serif" font-weight="bold" font-size="9.00">Obesity I</text>
<text text-anchor="start" x="388" y="-574.45" font-family="Times New Roman,serif" font-weight="bold" font-size="9.00">Obesity II</text>
<text text-anchor="start" x="386.5" y="-565.45" font-family="Times New Roman,serif" font-weight="bold" font-size="9.00">Obesity III</text>
<polygon fill="none" stroke="black" points="451.62,-557 451.62,-625 516.62,-625 516.62,-557 451.62,-557"/>
<text text-anchor="start" x="458.62" y="-589.08" font-family="Times New Roman,serif" font-weight="bold" font-size="9.00">Overweight I</text>
<polygon fill="none" stroke="black" points="362.38,-556 362.38,-626 517.62,-626 517.62,-556 362.38,-556"/>
</g>
<!-- n_0_1_3_4_5_6 -->
<g id="node2" class="node">
<title>n_0_1_3_4_5_6</title>
<polygon fill="none" stroke="black" points="282.88,-445 282.88,-504 371.12,-504 371.12,-445 282.88,-445"/>
<text text-anchor="start" x="289.88" y="-489.45" font-family="Times New Roman,serif" font-weight="bold" font-size="9.00">Insufficient weight</text>
<text text-anchor="start" x="312" y="-480.45" font-family="Times New Roman,serif" font-weight="bold" font-size="9.00">Normal</text>
<text text-anchor="start" x="309" y="-471.45" font-family="Times New Roman,serif" font-weight="bold" font-size="9.00">Obesity I</text>
<text text-anchor="start" x="307.5" y="-462.45" font-family="Times New Roman,serif" font-weight="bold" font-size="9.00">Obesity II</text>
<text text-anchor="start" x="306" y="-453.45" font-family="Times New Roman,serif" font-weight="bold" font-size="9.00">Obesity III</text>
<polygon fill="none" stroke="black" points="371.12,-445 371.12,-504 439.12,-504 439.12,-445 371.12,-445"/>
<text text-anchor="start" x="378.12" y="-472.57" font-family="Times New Roman,serif" font-weight="bold" font-size="9.00">Overweight II</text>
<polygon fill="none" stroke="black" points="281.88,-444 281.88,-505 440.12,-505 440.12,-444 281.88,-444"/>
</g>
<!-- n_0_1_2_3_4_5_6&#45;&gt;n_0_1_3_4_5_6 -->
<g id="edge1" class="edge">
<title>n_0_1_2_3_4_5_6&#45;&gt;n_0_1_3_4_5_6</title>
<path fill="none" stroke="black" d="M413.91,-552.19C406.33,-541.2 398,-529.12 390.23,-517.87"/>
<polygon fill="black" stroke="black" points="393.29,-516.14 384.73,-509.9 387.53,-520.12 393.29,-516.14"/>
</g>
<!-- n_2 -->
<g id="node13" class="node">
<title>n_2</title>
<polygon fill="none" stroke="black" points="486.5,-461.88 486.5,-487.12 551.5,-487.12 551.5,-461.88 486.5,-461.88"/>
<text text-anchor="start" x="493.5" y="-472.57" font-family="Times New Roman,serif" font-weight="bold" font-size="9.00">Overweight I</text>
<polygon fill="none" stroke="black" points="485.5,-460.88 485.5,-488.12 552.5,-488.12 552.5,-460.88 485.5,-460.88"/>
</g>
<!-- n_0_1_2_3_4_5_6&#45;&gt;n_2 -->
<g id="edge12" class="edge">
<title>n_0_1_2_3_4_5_6&#45;&gt;n_2</title>
<path fill="none" stroke="black" d="M466.09,-552.19C477.52,-535.63 490.64,-516.6 500.97,-501.64"/>
<polygon fill="black" stroke="black" points="503.64,-503.93 506.44,-493.71 497.88,-499.95 503.64,-503.93"/>
</g>
<!-- n_0_1_4_5_6 -->
<g id="node3" class="node">
<title>n_0_1_4_5_6</title>
<polygon fill="none" stroke="black" points="216.88,-342 216.88,-392 305.12,-392 305.12,-342 216.88,-342"/>
<text text-anchor="start" x="223.88" y="-377.45" font-family="Times New Roman,serif" font-weight="bold" font-size="9.00">Insufficient weight</text>
<text text-anchor="start" x="246" y="-368.45" font-family="Times New Roman,serif" font-weight="bold" font-size="9.00">Normal</text>
<text text-anchor="start" x="241.5" y="-359.45" font-family="Times New Roman,serif" font-weight="bold" font-size="9.00">Obesity II</text>
<text text-anchor="start" x="240" y="-350.45" font-family="Times New Roman,serif" font-weight="bold" font-size="9.00">Obesity III</text>
<polygon fill="none" stroke="black" points="305.12,-342 305.12,-392 355.12,-392 355.12,-342 305.12,-342"/>
<text text-anchor="start" x="312.12" y="-365.07" font-family="Times New Roman,serif" font-weight="bold" font-size="9.00">Obesity I</text>
<polygon fill="none" stroke="black" points="215.88,-341 215.88,-393 356.12,-393 356.12,-341 215.88,-341"/>
</g>
<!-- n_0_1_3_4_5_6&#45;&gt;n_0_1_4_5_6 -->
<g id="edge2" class="edge">
<title>n_0_1_3_4_5_6&#45;&gt;n_0_1_4_5_6</title>
<path fill="none" stroke="black" d="M337.27,-440.12C329.56,-429.27 320.94,-417.16 313.01,-406"/>
<polygon fill="black" stroke="black" points="316.07,-404.25 307.42,-398.13 310.36,-408.31 316.07,-404.25"/>
</g>
<!-- n_3 -->
<g id="node12" class="node">
<title>n_3</title>
<polygon fill="none" stroke="black" points="402,-354.38 402,-379.62 470,-379.62 470,-354.38 402,-354.38"/>
<text text-anchor="start" x="409" y="-365.07" font-family="Times New Roman,serif" font-weight="bold" font-size="9.00">Overweight II</text>
<polygon fill="none" stroke="black" points="401,-353.38 401,-380.62 471,-380.62 471,-353.38 401,-353.38"/>
</g>
<!-- n_0_1_3_4_5_6&#45;&gt;n_3 -->
<g id="edge11" class="edge">
<title>n_0_1_3_4_5_6&#45;&gt;n_3</title>
<path fill="none" stroke="black" d="M384.73,-440.12C395.33,-425.21 407.64,-407.9 417.53,-393.98"/>
<polygon fill="black" stroke="black" points="420.13,-396.36 423.07,-386.18 414.43,-392.31 420.13,-396.36"/>
</g>
<!-- n_0_1_5_6 -->
<g id="node4" class="node">
<title>n_0_1_5_6</title>
<polygon fill="none" stroke="black" points="141.88,-248 141.88,-289 197.88,-289 197.88,-248 141.88,-248"/>
<text text-anchor="start" x="154.88" y="-274.45" font-family="Times New Roman,serif" font-weight="bold" font-size="9.00">Normal</text>
<text text-anchor="start" x="150.38" y="-265.45" font-family="Times New Roman,serif" font-weight="bold" font-size="9.00">Obesity II</text>
<text text-anchor="start" x="148.88" y="-256.45" font-family="Times New Roman,serif" font-weight="bold" font-size="9.00">Obesity III</text>
<polygon fill="none" stroke="black" points="197.88,-248 197.88,-289 286.12,-289 286.12,-248 197.88,-248"/>
<text text-anchor="start" x="204.88" y="-266.57" font-family="Times New Roman,serif" font-weight="bold" font-size="9.00">Insufficient weight</text>
<polygon fill="none" stroke="black" points="140.88,-247 140.88,-290 287.12,-290 287.12,-247 140.88,-247"/>
</g>
<!-- n_0_1_4_5_6&#45;&gt;n_0_1_5_6 -->
<g id="edge3" class="edge">
<title>n_0_1_4_5_6&#45;&gt;n_0_1_5_6</title>
<path fill="none" stroke="black" d="M264.4,-337.05C256.37,-326.29 247.2,-314 238.91,-302.88"/>
<polygon fill="black" stroke="black" points="241.88,-301.01 233.09,-295.09 236.27,-305.2 241.88,-301.01"/>
</g>
<!-- n_4 -->
<g id="node11" class="node">
<title>n_4</title>
<polygon fill="none" stroke="black" points="333,-255.88 333,-281.12 383,-281.12 383,-255.88 333,-255.88"/>
<text text-anchor="start" x="340" y="-266.57" font-family="Times New Roman,serif" font-weight="bold" font-size="9.00">Obesity I</text>
<polygon fill="none" stroke="black" points="332,-254.88 332,-282.12 384,-282.12 384,-254.88 332,-254.88"/>
</g>
<!-- n_0_1_4_5_6&#45;&gt;n_4 -->
<g id="edge10" class="edge">
<title>n_0_1_4_5_6&#45;&gt;n_4</title>
<path fill="none" stroke="black" d="M307.6,-337.05C317.44,-323.86 328.99,-308.38 338.55,-295.56"/>
<polygon fill="black" stroke="black" points="341.34,-297.69 344.51,-287.58 335.73,-293.5 341.34,-297.69"/>
</g>
<!-- n_1_5_6 -->
<g id="node5" class="node">
<title>n_1_5_6</title>
<polygon fill="none" stroke="black" points="86.5,-163 86.5,-195 139.5,-195 139.5,-163 86.5,-163"/>
<text text-anchor="start" x="98" y="-180.45" font-family="Times New Roman,serif" font-weight="bold" font-size="9.00">Normal</text>
<text text-anchor="start" x="93.5" y="-171.45" font-family="Times New Roman,serif" font-weight="bold" font-size="9.00">Obesity II</text>
<polygon fill="none" stroke="black" points="139.5,-163 139.5,-195 195.5,-195 195.5,-163 139.5,-163"/>
<text text-anchor="start" x="146.5" y="-177.07" font-family="Times New Roman,serif" font-weight="bold" font-size="9.00">Obesity III</text>
<polygon fill="none" stroke="black" points="85.5,-162 85.5,-196 196.5,-196 196.5,-162 85.5,-162"/>
</g>
<!-- n_0_1_5_6&#45;&gt;n_1_5_6 -->
<g id="edge4" class="edge">
<title>n_0_1_5_6&#45;&gt;n_1_5_6</title>
<path fill="none" stroke="black" d="M193.67,-243.13C184.68,-232.35 174.05,-219.62 164.71,-208.41"/>
<polygon fill="black" stroke="black" points="167.6,-206.42 158.51,-200.99 162.23,-210.91 167.6,-206.42"/>
</g>
<!-- n_0 -->
<g id="node10" class="node">
<title>n_0</title>
<polygon fill="none" stroke="black" points="242.88,-166.38 242.88,-191.62 331.12,-191.62 331.12,-166.38 242.88,-166.38"/>
<text text-anchor="start" x="249.88" y="-177.07" font-family="Times New Roman,serif" font-weight="bold" font-size="9.00">Insufficient weight</text>
<polygon fill="none" stroke="black" points="241.88,-165.38 241.88,-192.62 332.12,-192.62 332.12,-165.38 241.88,-165.38"/>
</g>
<!-- n_0_1_5_6&#45;&gt;n_0 -->
<g id="edge9" class="edge">
<title>n_0_1_5_6&#45;&gt;n_0</title>
<path fill="none" stroke="black" d="M234.33,-243.13C244.15,-231.36 255.92,-217.25 265.84,-205.36"/>
<polygon fill="black" stroke="black" points="268.32,-207.85 272.04,-197.93 262.95,-203.37 268.32,-207.85"/>
</g>
<!-- n_1_5 -->
<g id="node6" class="node">
<title>n_1_5</title>
<polygon fill="none" stroke="black" points="30.5,-84.38 30.5,-109.62 74.5,-109.62 74.5,-84.38 30.5,-84.38"/>
<text text-anchor="start" x="37.5" y="-95.08" font-family="Times New Roman,serif" font-weight="bold" font-size="9.00">Normal</text>
<polygon fill="none" stroke="black" points="74.5,-84.38 74.5,-109.62 127.5,-109.62 127.5,-84.38 74.5,-84.38"/>
<text text-anchor="start" x="81.5" y="-95.08" font-family="Times New Roman,serif" font-weight="bold" font-size="9.00">Obesity II</text>
<polygon fill="none" stroke="black" points="29.5,-83.38 29.5,-110.62 128.5,-110.62 128.5,-83.38 29.5,-83.38"/>
</g>
<!-- n_1_5_6&#45;&gt;n_1_5 -->
<g id="edge5" class="edge">
<title>n_1_5_6&#45;&gt;n_1_5</title>
<path fill="none" stroke="black" d="M125.67,-158.22C117.61,-147.81 107.62,-134.92 98.95,-123.74"/>
<polygon fill="black" stroke="black" points="101.87,-121.8 92.98,-116.04 96.34,-126.09 101.87,-121.8"/>
</g>
<!-- n_6 -->
<g id="node9" class="node">
<title>n_6</title>
<polygon fill="none" stroke="black" points="175,-84.38 175,-109.62 231,-109.62 231,-84.38 175,-84.38"/>
<text text-anchor="start" x="182" y="-95.08" font-family="Times New Roman,serif" font-weight="bold" font-size="9.00">Obesity III</text>
<polygon fill="none" stroke="black" points="174,-83.38 174,-110.62 232,-110.62 232,-83.38 174,-83.38"/>
</g>
<!-- n_1_5_6&#45;&gt;n_6 -->
<g id="edge8" class="edge">
<title>n_1_5_6&#45;&gt;n_6</title>
<path fill="none" stroke="black" d="M156.33,-158.22C164.39,-147.81 174.38,-134.92 183.05,-123.74"/>
<polygon fill="black" stroke="black" points="185.66,-126.09 189.02,-116.04 180.13,-121.8 185.66,-126.09"/>
</g>
<!-- n_1 -->
<g id="node7" class="node">
<title>n_1</title>
<polygon fill="none" stroke="black" points="9,-5.38 9,-30.62 53,-30.62 53,-5.38 9,-5.38"/>
<text text-anchor="start" x="16" y="-16.07" font-family="Times New Roman,serif" font-weight="bold" font-size="9.00">Normal</text>
<polygon fill="none" stroke="black" points="8,-4.38 8,-31.62 54,-31.62 54,-4.38 8,-4.38"/>
</g>
<!-- n_1_5&#45;&gt;n_1 -->
<g id="edge6" class="edge">
<title>n_1_5&#45;&gt;n_1</title>
<path fill="none" stroke="black" d="M68.58,-79.29C62.46,-69.47 54.58,-56.83 47.62,-45.66"/>
<polygon fill="black" stroke="black" points="50.62,-43.86 42.36,-37.23 44.68,-47.56 50.62,-43.86"/>
</g>
<!-- n_5 -->
<g id="node8" class="node">
<title>n_5</title>
<polygon fill="none" stroke="black" points="100.5,-5.38 100.5,-30.62 153.5,-30.62 153.5,-5.38 100.5,-5.38"/>
<text text-anchor="start" x="107.5" y="-16.07" font-family="Times New Roman,serif" font-weight="bold" font-size="9.00">Obesity II</text>
<polygon fill="none" stroke="black" points="99.5,-4.38 99.5,-31.62 154.5,-31.62 154.5,-4.38 99.5,-4.38"/>
</g>
<!-- n_1_5&#45;&gt;n_5 -->
<g id="edge7" class="edge">
<title>n_1_5&#45;&gt;n_5</title>
<path fill="none" stroke="black" d="M89.42,-79.29C95.54,-69.47 103.42,-56.83 110.38,-45.66"/>
<polygon fill="black" stroke="black" points="113.32,-47.56 115.64,-37.23 107.38,-43.86 113.32,-47.56"/>
</g>
</g>
</svg>
