<?xml version="1.0" encoding="UTF-8" standalone="no"?>
<!DOCTYPE svg PUBLIC "-//W3C//DTD SVG 1.1//EN"
 "http://www.w3.org/Graphics/SVG/1.1/DTD/svg11.dtd">
<!-- Generated by graphviz version 10.0.1 (20240210.2158)
 -->
<!-- Title: ND Pages: 1 -->
<svg width="608pt" height="432pt"
 viewBox="0.00 0.00 608.00 432.00" xmlns="http://www.w3.org/2000/svg" xmlns:xlink="http://www.w3.org/1999/xlink">
<g id="graph0" class="graph" transform="scale(1 1) rotate(0) translate(4 428)">
<title>ND</title>
<polygon fill="white" stroke="none" points="-4,4 -4,-428 604,-428 604,4 -4,4"/>
<!-- n_0_1_2_3_4_5_6 -->
<g id="node1" class="node">
<title>n_0_1_2_3_4_5_6</title>
<polygon fill="none" stroke="black" points="364.88,-351 364.88,-419 453.12,-419 453.12,-351 364.88,-351"/>
<text text-anchor="start" x="371.88" y="-404.45" font-family="Times New Roman,serif" font-weight="bold" font-size="9.00">Insufficient weight</text>
<text text-anchor="start" x="394" y="-395.45" font-family="Times New Roman,serif" font-weight="bold" font-size="9.00">Normal</text>
<text text-anchor="start" x="383.5" y="-386.45" font-family="Times New Roman,serif" font-weight="bold" font-size="9.00">Overweight I</text>
<text text-anchor="start" x="382" y="-377.45" font-family="Times New Roman,serif" font-weight="bold" font-size="9.00">Overweight II</text>
<text text-anchor="start" x="389.5" y="-368.45" font-family="Times New Roman,serif" font-weight="bold" font-size="9.00">Obesity II</text>
<text text-anchor="start" x="388" y="-359.45" font-family="Times New Roman,serif" font-weight="bold" font-size="9.00">Obesity III</text>
<polygon fill="none" stroke="black" points="453.12,-351 453.12,-419 503.12,-419 503.12,-351 453.12,-351"/>
<text text-anchor="start" x="460.12" y="-383.07" font-family="Times New Roman,serif" font-weight="bold" font-size="9.00">Obesity I</text>
<polygon fill="none" stroke="black" points="363.88,-350 363.88,-420 504.12,-420 504.12,-350 363.88,-350"/>
</g>
<!-- n_0_1_2_3_5_6 -->
<g id="node2" class="node">
<title>n_0_1_2_3_5_6</title>
<polygon fill="none" stroke="black" points="280.88,-248 280.88,-298 348.88,-298 348.88,-248 280.88,-248"/>
<text text-anchor="start" x="299.88" y="-283.45" font-family="Times New Roman,serif" font-weight="bold" font-size="9.00">Normal</text>
<text text-anchor="start" x="289.38" y="-274.45" font-family="Times New Roman,serif" font-weight="bold" font-size="9.00">Overweight I</text>
<text text-anchor="start" x="287.88" y="-265.45" font-family="Times New Roman,serif" font-weight="bold" font-size="9.00">Overweight II</text>
<text text-anchor="start" x="295.38" y="-256.45" font-family="Times New Roman,serif" font-weight="bold" font-size="9.00">Obesity II</text>
<polygon fill="none" stroke="black" points="348.88,-248 348.88,-298 437.12,-298 437.12,-248 348.88,-248"/>
<text text-anchor="start" x="355.88" y="-274.45" font-family="Times New Roman,serif" font-weight="bold" font-size="9.00">Insufficient weight</text>
<text text-anchor="start" x="372" y="-265.45" font-family="Times New Roman,serif" font-weight="bold" font-size="9.00">Obesity III</text>
<polygon fill="none" stroke="black" points="279.88,-247 279.88,-299 438.12,-299 438.12,-247 279.88,-247"/>
</g>
<!-- n_0_1_2_3_4_5_6&#45;&gt;n_0_1_2_3_5_6 -->
<g id="edge1" class="edge">
<title>n_0_1_2_3_4_5_6&#45;&gt;n_0_1_2_3_5_6</title>
<path fill="none" stroke="black" d="M408.19,-346.14C400.72,-335.19 392.56,-323.22 385.07,-312.23"/>
<polygon fill="black" stroke="black" points="388.07,-310.43 379.55,-304.14 382.29,-314.37 388.07,-310.43"/>
</g>
<!-- n_4 -->
<g id="node13" class="node">
<title>n_4</title>
<polygon fill="none" stroke="black" points="484,-260.38 484,-285.62 534,-285.62 534,-260.38 484,-260.38"/>
<text text-anchor="start" x="491" y="-271.07" font-family="Times New Roman,serif" font-weight="bold" font-size="9.00">Obesity I</text>
<polygon fill="none" stroke="black" points="483,-259.38 483,-286.62 535,-286.62 535,-259.38 483,-259.38"/>
</g>
<!-- n_0_1_2_3_4_5_6&#45;&gt;n_4 -->
<g id="edge12" class="edge">
<title>n_0_1_2_3_4_5_6&#45;&gt;n_4</title>
<path fill="none" stroke="black" d="M459.81,-346.14C470.11,-331.04 481.71,-314.02 491.06,-300.31"/>
<polygon fill="black" stroke="black" points="493.83,-302.47 496.57,-292.23 488.04,-298.52 493.83,-302.47"/>
</g>
<!-- n_1_2_3_5 -->
<g id="node3" class="node">
<title>n_1_2_3_5</title>
<polygon fill="none" stroke="black" points="208.5,-163 208.5,-195 261.5,-195 261.5,-163 208.5,-163"/>
<text text-anchor="start" x="220" y="-180.45" font-family="Times New Roman,serif" font-weight="bold" font-size="9.00">Normal</text>
<text text-anchor="start" x="215.5" y="-171.45" font-family="Times New Roman,serif" font-weight="bold" font-size="9.00">Obesity II</text>
<polygon fill="none" stroke="black" points="261.5,-163 261.5,-195 329.5,-195 329.5,-163 261.5,-163"/>
<text text-anchor="start" x="270" y="-180.45" font-family="Times New Roman,serif" font-weight="bold" font-size="9.00">Overweight I</text>
<text text-anchor="start" x="268.5" y="-171.45" font-family="Times New Roman,serif" font-weight="bold" font-size="9.00">Overweight II</text>
<polygon fill="none" stroke="black" points="207.5,-162 207.5,-196 330.5,-196 330.5,-162 207.5,-162"/>
</g>
<!-- n_0_1_2_3_5_6&#45;&gt;n_1_2_3_5 -->
<g id="edge2" class="edge">
<title>n_0_1_2_3_5_6&#45;&gt;n_1_2_3_5</title>
<path fill="none" stroke="black" d="M330.77,-243.14C319.76,-231.89 307.19,-219.04 296.27,-207.88"/>
<polygon fill="black" stroke="black" points="298.86,-205.51 289.36,-200.81 293.85,-210.41 298.86,-205.51"/>
</g>
<!-- n_0_6 -->
<g id="node10" class="node">
<title>n_0_6</title>
<polygon fill="none" stroke="black" points="376.88,-166.38 376.88,-191.62 465.12,-191.62 465.12,-166.38 376.88,-166.38"/>
<text text-anchor="start" x="383.88" y="-177.07" font-family="Times New Roman,serif" font-weight="bold" font-size="9.00">Insufficient weight</text>
<polygon fill="none" stroke="black" points="465.12,-166.38 465.12,-191.62 521.12,-191.62 521.12,-166.38 465.12,-166.38"/>
<text text-anchor="start" x="472.12" y="-177.07" font-family="Times New Roman,serif" font-weight="bold" font-size="9.00">Obesity III</text>
<polygon fill="none" stroke="black" points="375.88,-165.38 375.88,-192.62 522.12,-192.62 522.12,-165.38 375.88,-165.38"/>
</g>
<!-- n_0_1_2_3_5_6&#45;&gt;n_0_6 -->
<g id="edge9" class="edge">
<title>n_0_1_2_3_5_6&#45;&gt;n_0_6</title>
<path fill="none" stroke="black" d="M387.23,-243.14C399.18,-230.93 412.96,-216.84 424.48,-205.07"/>
<polygon fill="black" stroke="black" points="426.85,-207.65 431.34,-198.05 421.85,-202.75 426.85,-207.65"/>
</g>
<!-- n_1_5 -->
<g id="node4" class="node">
<title>n_1_5</title>
<polygon fill="none" stroke="black" points="64.5,-84.38 64.5,-109.62 108.5,-109.62 108.5,-84.38 64.5,-84.38"/>
<text text-anchor="start" x="71.5" y="-95.08" font-family="Times New Roman,serif" font-weight="bold" font-size="9.00">Normal</text>
<polygon fill="none" stroke="black" points="108.5,-84.38 108.5,-109.62 161.5,-109.62 161.5,-84.38 108.5,-84.38"/>
<text text-anchor="start" x="115.5" y="-95.08" font-family="Times New Roman,serif" font-weight="bold" font-size="9.00">Obesity II</text>
<polygon fill="none" stroke="black" points="63.5,-83.38 63.5,-110.62 162.5,-110.62 162.5,-83.38 63.5,-83.38"/>
</g>
<!-- n_1_2_3_5&#45;&gt;n_1_5 -->
<g id="edge3" class="edge">
<title>n_1_2_3_5&#45;&gt;n_1_5</title>
<path fill="none" stroke="black" d="M230.04,-158.02C207.58,-146.5 179.3,-132 156.16,-120.13"/>
<polygon fill="black" stroke="black" points="157.78,-117.03 147.28,-115.58 154.58,-123.26 157.78,-117.03"/>
</g>
<!-- n_2_3 -->
<g id="node7" class="node">
<title>n_2_3</title>
<polygon fill="none" stroke="black" points="208.5,-84.38 208.5,-109.62 273.5,-109.62 273.5,-84.38 208.5,-84.38"/>
<text text-anchor="start" x="215.5" y="-95.08" font-family="Times New Roman,serif" font-weight="bold" font-size="9.00">Overweight I</text>
<polygon fill="none" stroke="black" points="273.5,-84.38 273.5,-109.62 341.5,-109.62 341.5,-84.38 273.5,-84.38"/>
<text text-anchor="start" x="280.5" y="-95.08" font-family="Times New Roman,serif" font-weight="bold" font-size="9.00">Overweight II</text>
<polygon fill="none" stroke="black" points="207.5,-83.38 207.5,-110.62 342.5,-110.62 342.5,-83.38 207.5,-83.38"/>
</g>
<!-- n_1_2_3_5&#45;&gt;n_2_3 -->
<g id="edge6" class="edge">
<title>n_1_2_3_5&#45;&gt;n_2_3</title>
<path fill="none" stroke="black" d="M270.48,-158.22C271.21,-148.54 272.1,-136.72 272.89,-126.11"/>
<polygon fill="black" stroke="black" points="276.37,-126.59 273.62,-116.35 269.39,-126.06 276.37,-126.59"/>
</g>
<!-- n_1 -->
<g id="node5" class="node">
<title>n_1</title>
<polygon fill="none" stroke="black" points="9,-5.38 9,-30.62 53,-30.62 53,-5.38 9,-5.38"/>
<text text-anchor="start" x="16" y="-16.07" font-family="Times New Roman,serif" font-weight="bold" font-size="9.00">Normal</text>
<polygon fill="none" stroke="black" points="8,-4.38 8,-31.62 54,-31.62 54,-4.38 8,-4.38"/>
</g>
<!-- n_1_5&#45;&gt;n_1 -->
<g id="edge4" class="edge">
<title>n_1_5&#45;&gt;n_1</title>
<path fill="none" stroke="black" d="M95.21,-79.29C84.11,-68.87 69.63,-55.27 57.23,-43.63"/>
<polygon fill="black" stroke="black" points="59.83,-41.27 50.14,-36.98 55.04,-46.37 59.83,-41.27"/>
</g>
<!-- n_5 -->
<g id="node6" class="node">
<title>n_5</title>
<polygon fill="none" stroke="black" points="100.5,-5.38 100.5,-30.62 153.5,-30.62 153.5,-5.38 100.5,-5.38"/>
<text text-anchor="start" x="107.5" y="-16.07" font-family="Times New Roman,serif" font-weight="bold" font-size="9.00">Obesity II</text>
<polygon fill="none" stroke="black" points="99.5,-4.38 99.5,-31.62 154.5,-31.62 154.5,-4.38 99.5,-4.38"/>
</g>
<!-- n_1_5&#45;&gt;n_5 -->
<g id="edge5" class="edge">
<title>n_1_5&#45;&gt;n_5</title>
<path fill="none" stroke="black" d="M116.04,-79.29C117.75,-69.87 119.94,-57.86 121.9,-47.04"/>
<polygon fill="black" stroke="black" points="125.3,-47.9 123.65,-37.43 118.42,-46.64 125.3,-47.9"/>
</g>
<!-- n_2 -->
<g id="node8" class="node">
<title>n_2</title>
<polygon fill="none" stroke="black" points="228.5,-5.38 228.5,-30.62 293.5,-30.62 293.5,-5.38 228.5,-5.38"/>
<text text-anchor="start" x="235.5" y="-16.07" font-family="Times New Roman,serif" font-weight="bold" font-size="9.00">Overweight I</text>
<polygon fill="none" stroke="black" points="227.5,-4.38 227.5,-31.62 294.5,-31.62 294.5,-4.38 227.5,-4.38"/>
</g>
<!-- n_2_3&#45;&gt;n_2 -->
<g id="edge7" class="edge">
<title>n_2_3&#45;&gt;n_2</title>
<path fill="none" stroke="black" d="M271.96,-79.29C270.25,-69.87 268.06,-57.86 266.1,-47.04"/>
<polygon fill="black" stroke="black" points="269.58,-46.64 264.35,-37.43 262.7,-47.9 269.58,-46.64"/>
</g>
<!-- n_3 -->
<g id="node9" class="node">
<title>n_3</title>
<polygon fill="none" stroke="black" points="341,-5.38 341,-30.62 409,-30.62 409,-5.38 341,-5.38"/>
<text text-anchor="start" x="348" y="-16.07" font-family="Times New Roman,serif" font-weight="bold" font-size="9.00">Overweight II</text>
<polygon fill="none" stroke="black" points="340,-4.38 340,-31.62 410,-31.62 410,-4.38 340,-4.38"/>
</g>
<!-- n_2_3&#45;&gt;n_3 -->
<g id="edge8" class="edge">
<title>n_2_3&#45;&gt;n_3</title>
<path fill="none" stroke="black" d="M296.7,-79.29C310.49,-68.67 328.57,-54.75 343.89,-42.96"/>
<polygon fill="black" stroke="black" points="346.01,-45.74 351.8,-36.86 341.74,-40.19 346.01,-45.74"/>
</g>
<!-- n_0 -->
<g id="node11" class="node">
<title>n_0</title>
<polygon fill="none" stroke="black" points="399.88,-84.38 399.88,-109.62 488.12,-109.62 488.12,-84.38 399.88,-84.38"/>
<text text-anchor="start" x="406.88" y="-95.08" font-family="Times New Roman,serif" font-weight="bold" font-size="9.00">Insufficient weight</text>
<polygon fill="none" stroke="black" points="398.88,-83.38 398.88,-110.62 489.12,-110.62 489.12,-83.38 398.88,-83.38"/>
</g>
<!-- n_0_6&#45;&gt;n_0 -->
<g id="edge10" class="edge">
<title>n_0_6&#45;&gt;n_0</title>
<path fill="none" stroke="black" d="M447.94,-161.03C447.31,-150.96 446.5,-137.92 445.77,-126.32"/>
<polygon fill="black" stroke="black" points="449.27,-126.21 445.15,-116.45 442.28,-126.65 449.27,-126.21"/>
</g>
<!-- n_6 -->
<g id="node12" class="node">
<title>n_6</title>
<polygon fill="none" stroke="black" points="535,-84.38 535,-109.62 591,-109.62 591,-84.38 535,-84.38"/>
<text text-anchor="start" x="542" y="-95.08" font-family="Times New Roman,serif" font-weight="bold" font-size="9.00">Obesity III</text>
<polygon fill="none" stroke="black" points="534,-83.38 534,-110.62 592,-110.62 592,-83.38 534,-83.38"/>
</g>
<!-- n_0_6&#45;&gt;n_6 -->
<g id="edge11" class="edge">
<title>n_0_6&#45;&gt;n_6</title>
<path fill="none" stroke="black" d="M473.18,-161.03C489.65,-149.47 511.67,-134.02 529.79,-121.3"/>
<polygon fill="black" stroke="black" points="531.44,-124.42 537.62,-115.81 527.42,-118.69 531.44,-124.42"/>
</g>
</g>
</svg>
