<?xml version="1.0" encoding="UTF-8" standalone="no"?>
<!DOCTYPE svg PUBLIC "-//W3C//DTD SVG 1.1//EN"
 "http://www.w3.org/Graphics/SVG/1.1/DTD/svg11.dtd">
<!-- Generated by graphviz version 10.0.1 (20240210.2158)
 -->
<!-- Title: ND Pages: 1 -->
<svg width="701pt" height="414pt"
 viewBox="0.00 0.00 700.50 414.00" xmlns="http://www.w3.org/2000/svg" xmlns:xlink="http://www.w3.org/1999/xlink">
<g id="graph0" class="graph" transform="scale(1 1) rotate(0) translate(4 410)">
<title>ND</title>
<polygon fill="white" stroke="none" points="-4,4 -4,-410 696.5,-410 696.5,4 -4,4"/>
<!-- n_0_1_2_3_4_5_6 -->
<g id="node1" class="node">
<title>n_0_1_2_3_4_5_6</title>
<polygon fill="none" stroke="black" points="373.38,-342 373.38,-401 441.38,-401 441.38,-342 373.38,-342"/>
<text text-anchor="start" x="392.38" y="-386.45" font-family="Times New Roman,serif" font-weight="bold" font-size="9.00">Normal</text>
<text text-anchor="start" x="381.88" y="-377.45" font-family="Times New Roman,serif" font-weight="bold" font-size="9.00">Overweight I</text>
<text text-anchor="start" x="380.38" y="-368.45" font-family="Times New Roman,serif" font-weight="bold" font-size="9.00">Overweight II</text>
<text text-anchor="start" x="389.38" y="-359.45" font-family="Times New Roman,serif" font-weight="bold" font-size="9.00">Obesity I</text>
<text text-anchor="start" x="387.88" y="-350.45" font-family="Times New Roman,serif" font-weight="bold" font-size="9.00">Obesity II</text>
<polygon fill="none" stroke="black" points="441.38,-342 441.38,-401 529.62,-401 529.62,-342 441.38,-342"/>
<text text-anchor="start" x="448.38" y="-372.95" font-family="Times New Roman,serif" font-weight="bold" font-size="9.00">Insufficient weight</text>
<text text-anchor="start" x="464.5" y="-363.95" font-family="Times New Roman,serif" font-weight="bold" font-size="9.00">Obesity III</text>
<polygon fill="none" stroke="black" points="372.38,-341 372.38,-402 530.62,-402 530.62,-341 372.38,-341"/>
</g>
<!-- n_1_2_3_4_5 -->
<g id="node2" class="node">
<title>n_1_2_3_4_5</title>
<polygon fill="none" stroke="black" points="292,-248 292,-289 357,-289 357,-248 292,-248"/>
<text text-anchor="start" x="309.5" y="-274.45" font-family="Times New Roman,serif" font-weight="bold" font-size="9.00">Normal</text>
<text text-anchor="start" x="299" y="-265.45" font-family="Times New Roman,serif" font-weight="bold" font-size="9.00">Overweight I</text>
<text text-anchor="start" x="306.5" y="-256.45" font-family="Times New Roman,serif" font-weight="bold" font-size="9.00">Obesity I</text>
<polygon fill="none" stroke="black" points="357,-248 357,-289 425,-289 425,-248 357,-248"/>
<text text-anchor="start" x="364" y="-269.95" font-family="Times New Roman,serif" font-weight="bold" font-size="9.00">Overweight II</text>
<text text-anchor="start" x="371.5" y="-260.95" font-family="Times New Roman,serif" font-weight="bold" font-size="9.00">Obesity II</text>
<polygon fill="none" stroke="black" points="291,-247 291,-290 426,-290 426,-247 291,-247"/>
</g>
<!-- n_0_1_2_3_4_5_6&#45;&gt;n_1_2_3_4_5 -->
<g id="edge1" class="edge">
<title>n_0_1_2_3_4_5_6&#45;&gt;n_1_2_3_4_5</title>
<path fill="none" stroke="black" d="M420.79,-337.15C410.42,-325.89 398.86,-313.33 388.54,-302.12"/>
<polygon fill="black" stroke="black" points="391.3,-299.96 381.96,-294.97 386.15,-304.7 391.3,-299.96"/>
</g>
<!-- n_0_6 -->
<g id="node11" class="node">
<title>n_0_6</title>
<polygon fill="none" stroke="black" points="472.38,-255.88 472.38,-281.12 560.62,-281.12 560.62,-255.88 472.38,-255.88"/>
<text text-anchor="start" x="479.38" y="-266.57" font-family="Times New Roman,serif" font-weight="bold" font-size="9.00">Insufficient weight</text>
<polygon fill="none" stroke="black" points="560.62,-255.88 560.62,-281.12 616.62,-281.12 616.62,-255.88 560.62,-255.88"/>
<text text-anchor="start" x="567.62" y="-266.57" font-family="Times New Roman,serif" font-weight="bold" font-size="9.00">Obesity III</text>
<polygon fill="none" stroke="black" points="471.38,-254.88 471.38,-282.12 617.62,-282.12 617.62,-254.88 471.38,-254.88"/>
</g>
<!-- n_0_1_2_3_4_5_6&#45;&gt;n_0_6 -->
<g id="edge10" class="edge">
<title>n_0_1_2_3_4_5_6&#45;&gt;n_0_6</title>
<path fill="none" stroke="black" d="M482.21,-337.15C494.93,-323.33 509.45,-307.57 521.26,-294.74"/>
<polygon fill="black" stroke="black" points="523.73,-297.22 527.93,-287.49 518.58,-292.48 523.73,-297.22"/>
</g>
<!-- n_1_2_4 -->
<g id="node3" class="node">
<title>n_1_2_4</title>
<polygon fill="none" stroke="black" points="151,-163 151,-195 216,-195 216,-163 151,-163"/>
<text text-anchor="start" x="158" y="-180.45" font-family="Times New Roman,serif" font-weight="bold" font-size="9.00">Overweight I</text>
<text text-anchor="start" x="165.5" y="-171.45" font-family="Times New Roman,serif" font-weight="bold" font-size="9.00">Obesity I</text>
<polygon fill="none" stroke="black" points="216,-163 216,-195 260,-195 260,-163 216,-163"/>
<text text-anchor="start" x="223" y="-177.07" font-family="Times New Roman,serif" font-weight="bold" font-size="9.00">Normal</text>
<polygon fill="none" stroke="black" points="150,-162 150,-196 261,-196 261,-162 150,-162"/>
</g>
<!-- n_1_2_3_4_5&#45;&gt;n_1_2_4 -->
<g id="edge2" class="edge">
<title>n_1_2_3_4_5&#45;&gt;n_1_2_4</title>
<path fill="none" stroke="black" d="M315.88,-243.13C295.44,-231.44 270.96,-217.43 250.25,-205.59"/>
<polygon fill="black" stroke="black" points="252.15,-202.65 241.73,-200.72 248.67,-208.72 252.15,-202.65"/>
</g>
<!-- n_3_5 -->
<g id="node8" class="node">
<title>n_3_5</title>
<polygon fill="none" stroke="black" points="307,-166.38 307,-191.62 375,-191.62 375,-166.38 307,-166.38"/>
<text text-anchor="start" x="314" y="-177.07" font-family="Times New Roman,serif" font-weight="bold" font-size="9.00">Overweight II</text>
<polygon fill="none" stroke="black" points="375,-166.38 375,-191.62 428,-191.62 428,-166.38 375,-166.38"/>
<text text-anchor="start" x="382" y="-177.07" font-family="Times New Roman,serif" font-weight="bold" font-size="9.00">Obesity II</text>
<polygon fill="none" stroke="black" points="306,-165.38 306,-192.62 429,-192.62 429,-165.38 306,-165.38"/>
</g>
<!-- n_1_2_3_4_5&#45;&gt;n_3_5 -->
<g id="edge7" class="edge">
<title>n_1_2_3_4_5&#45;&gt;n_3_5</title>
<path fill="none" stroke="black" d="M361.01,-243.13C362.12,-232.28 363.44,-219.45 364.6,-208.19"/>
<polygon fill="black" stroke="black" points="368.08,-208.58 365.62,-198.28 361.12,-207.87 368.08,-208.58"/>
</g>
<!-- n_2_4 -->
<g id="node4" class="node">
<title>n_2_4</title>
<polygon fill="none" stroke="black" points="36,-84.38 36,-109.62 101,-109.62 101,-84.38 36,-84.38"/>
<text text-anchor="start" x="43" y="-95.08" font-family="Times New Roman,serif" font-weight="bold" font-size="9.00">Overweight I</text>
<polygon fill="none" stroke="black" points="101,-84.38 101,-109.62 151,-109.62 151,-84.38 101,-84.38"/>
<text text-anchor="start" x="108" y="-95.08" font-family="Times New Roman,serif" font-weight="bold" font-size="9.00">Obesity I</text>
<polygon fill="none" stroke="black" points="35,-83.38 35,-110.62 152,-110.62 152,-83.38 35,-83.38"/>
</g>
<!-- n_1_2_4&#45;&gt;n_2_4 -->
<g id="edge3" class="edge">
<title>n_1_2_4&#45;&gt;n_2_4</title>
<path fill="none" stroke="black" d="M177.53,-158.02C161.93,-146.88 142.42,-132.94 126.13,-121.31"/>
<polygon fill="black" stroke="black" points="128.37,-118.6 118.19,-115.64 124.3,-124.3 128.37,-118.6"/>
</g>
<!-- n_1 -->
<g id="node7" class="node">
<title>n_1</title>
<polygon fill="none" stroke="black" points="198.5,-84.38 198.5,-109.62 242.5,-109.62 242.5,-84.38 198.5,-84.38"/>
<text text-anchor="start" x="205.5" y="-95.08" font-family="Times New Roman,serif" font-weight="bold" font-size="9.00">Normal</text>
<polygon fill="none" stroke="black" points="197.5,-83.38 197.5,-110.62 243.5,-110.62 243.5,-83.38 197.5,-83.38"/>
</g>
<!-- n_1_2_4&#45;&gt;n_1 -->
<g id="edge6" class="edge">
<title>n_1_2_4&#45;&gt;n_1</title>
<path fill="none" stroke="black" d="M209.21,-158.22C211.02,-148.54 213.24,-136.72 215.23,-126.11"/>
<polygon fill="black" stroke="black" points="218.66,-126.81 217.06,-116.33 211.78,-125.52 218.66,-126.81"/>
</g>
<!-- n_2 -->
<g id="node5" class="node">
<title>n_2</title>
<polygon fill="none" stroke="black" points="9,-5.38 9,-30.62 74,-30.62 74,-5.38 9,-5.38"/>
<text text-anchor="start" x="16" y="-16.07" font-family="Times New Roman,serif" font-weight="bold" font-size="9.00">Overweight I</text>
<polygon fill="none" stroke="black" points="8,-4.38 8,-31.62 75,-31.62 75,-4.38 8,-4.38"/>
</g>
<!-- n_2_4&#45;&gt;n_2 -->
<g id="edge4" class="edge">
<title>n_2_4&#45;&gt;n_2</title>
<path fill="none" stroke="black" d="M82.22,-79.29C75.52,-69.37 66.87,-56.57 59.27,-45.32"/>
<polygon fill="black" stroke="black" points="62.28,-43.52 53.79,-37.2 56.48,-47.44 62.28,-43.52"/>
</g>
<!-- n_4 -->
<g id="node6" class="node">
<title>n_4</title>
<polygon fill="none" stroke="black" points="121.5,-5.38 121.5,-30.62 171.5,-30.62 171.5,-5.38 121.5,-5.38"/>
<text text-anchor="start" x="128.5" y="-16.07" font-family="Times New Roman,serif" font-weight="bold" font-size="9.00">Obesity I</text>
<polygon fill="none" stroke="black" points="120.5,-4.38 120.5,-31.62 172.5,-31.62 172.5,-4.38 120.5,-4.38"/>
</g>
<!-- n_2_4&#45;&gt;n_4 -->
<g id="edge5" class="edge">
<title>n_2_4&#45;&gt;n_4</title>
<path fill="none" stroke="black" d="M105,-79.29C111.83,-69.37 120.64,-56.57 128.38,-45.32"/>
<polygon fill="black" stroke="black" points="131.19,-47.41 133.98,-37.19 125.43,-43.44 131.19,-47.41"/>
</g>
<!-- n_3 -->
<g id="node9" class="node">
<title>n_3</title>
<polygon fill="none" stroke="black" points="318.5,-84.38 318.5,-109.62 386.5,-109.62 386.5,-84.38 318.5,-84.38"/>
<text text-anchor="start" x="325.5" y="-95.08" font-family="Times New Roman,serif" font-weight="bold" font-size="9.00">Overweight II</text>
<polygon fill="none" stroke="black" points="317.5,-83.38 317.5,-110.62 387.5,-110.62 387.5,-83.38 317.5,-83.38"/>
</g>
<!-- n_3_5&#45;&gt;n_3 -->
<g id="edge8" class="edge">
<title>n_3_5&#45;&gt;n_3</title>
<path fill="none" stroke="black" d="M364.32,-161.03C362.41,-150.85 359.93,-137.65 357.74,-125.96"/>
<polygon fill="black" stroke="black" points="361.24,-125.61 355.96,-116.43 354.36,-126.9 361.24,-125.61"/>
</g>
<!-- n_5 -->
<g id="node10" class="node">
<title>n_5</title>
<polygon fill="none" stroke="black" points="434,-84.38 434,-109.62 487,-109.62 487,-84.38 434,-84.38"/>
<text text-anchor="start" x="441" y="-95.08" font-family="Times New Roman,serif" font-weight="bold" font-size="9.00">Obesity II</text>
<polygon fill="none" stroke="black" points="433,-83.38 433,-110.62 488,-110.62 488,-83.38 433,-83.38"/>
</g>
<!-- n_3_5&#45;&gt;n_5 -->
<g id="edge9" class="edge">
<title>n_3_5&#45;&gt;n_5</title>
<path fill="none" stroke="black" d="M387.22,-161.03C400.29,-149.79 417.64,-134.87 432.18,-122.36"/>
<polygon fill="black" stroke="black" points="434.36,-125.1 439.66,-115.93 429.79,-119.8 434.36,-125.1"/>
</g>
<!-- n_0 -->
<g id="node12" class="node">
<title>n_0</title>
<polygon fill="none" stroke="black" points="492.38,-166.38 492.38,-191.62 580.62,-191.62 580.62,-166.38 492.38,-166.38"/>
<text text-anchor="start" x="499.38" y="-177.07" font-family="Times New Roman,serif" font-weight="bold" font-size="9.00">Insufficient weight</text>
<polygon fill="none" stroke="black" points="491.38,-165.38 491.38,-192.62 581.62,-192.62 581.62,-165.38 491.38,-165.38"/>
</g>
<!-- n_0_6&#45;&gt;n_0 -->
<g id="edge11" class="edge">
<title>n_0_6&#45;&gt;n_0</title>
<path fill="none" stroke="black" d="M542.96,-250.63C541.85,-238.52 540.33,-221.94 539.05,-207.88"/>
<polygon fill="black" stroke="black" points="542.57,-207.97 538.18,-198.33 535.6,-208.6 542.57,-207.97"/>
</g>
<!-- n_6 -->
<g id="node13" class="node">
<title>n_6</title>
<polygon fill="none" stroke="black" points="627.5,-166.38 627.5,-191.62 683.5,-191.62 683.5,-166.38 627.5,-166.38"/>
<text text-anchor="start" x="634.5" y="-177.07" font-family="Times New Roman,serif" font-weight="bold" font-size="9.00">Obesity III</text>
<polygon fill="none" stroke="black" points="626.5,-165.38 626.5,-192.62 684.5,-192.62 684.5,-165.38 626.5,-165.38"/>
</g>
<!-- n_0_6&#45;&gt;n_6 -->
<g id="edge12" class="edge">
<title>n_0_6&#45;&gt;n_6</title>
<path fill="none" stroke="black" d="M565.9,-250.63C582.79,-237.31 606.56,-218.57 625.38,-203.74"/>
<polygon fill="black" stroke="black" points="627.29,-206.7 632.98,-197.76 622.96,-201.2 627.29,-206.7"/>
</g>
</g>
</svg>
