<?xml version="1.0" encoding="UTF-8" standalone="no"?>
<!DOCTYPE svg PUBLIC "-//W3C//DTD SVG 1.1//EN"
 "http://www.w3.org/Graphics/SVG/1.1/DTD/svg11.dtd">
<!-- Generated by graphviz version 10.0.1 (20240210.2158)
 -->
<!-- Title: ND Pages: 1 -->
<svg width="570pt" height="423pt"
 viewBox="0.00 0.00 569.62 423.00" xmlns="http://www.w3.org/2000/svg" xmlns:xlink="http://www.w3.org/1999/xlink">
<g id="graph0" class="graph" transform="scale(1 1) rotate(0) translate(4 419)">
<title>ND</title>
<polygon fill="white" stroke="none" points="-4,4 -4,-419 565.62,-419 565.62,4 -4,4"/>
<!-- n_0_1_2_3_4_5_6 -->
<g id="node1" class="node">
<title>n_0_1_2_3_4_5_6</title>
<polygon fill="none" stroke="black" points="325.5,-342 325.5,-410 413.75,-410 413.75,-342 325.5,-342"/>
<text text-anchor="start" x="332.5" y="-395.45" font-family="Times New Roman,serif" font-weight="bold" font-size="9.00">Insufficient weight</text>
<text text-anchor="start" x="344.12" y="-386.45" font-family="Times New Roman,serif" font-weight="bold" font-size="9.00">Overweight I</text>
<text text-anchor="start" x="342.62" y="-377.45" font-family="Times New Roman,serif" font-weight="bold" font-size="9.00">Overweight II</text>
<text text-anchor="start" x="351.62" y="-368.45" font-family="Times New Roman,serif" font-weight="bold" font-size="9.00">Obesity I</text>
<text text-anchor="start" x="350.12" y="-359.45" font-family="Times New Roman,serif" font-weight="bold" font-size="9.00">Obesity II</text>
<text text-anchor="start" x="348.62" y="-350.45" font-family="Times New Roman,serif" font-weight="bold" font-size="9.00">Obesity III</text>
<polygon fill="none" stroke="black" points="413.75,-342 413.75,-410 457.75,-410 457.75,-342 413.75,-342"/>
<text text-anchor="start" x="420.75" y="-374.07" font-family="Times New Roman,serif" font-weight="bold" font-size="9.00">Normal</text>
<polygon fill="none" stroke="black" points="324.5,-341 324.5,-411 458.75,-411 458.75,-341 324.5,-341"/>
</g>
<!-- n_0_2_3_4_5_6 -->
<g id="node2" class="node">
<title>n_0_2_3_4_5_6</title>
<polygon fill="none" stroke="black" points="249.5,-248 249.5,-289 337.75,-289 337.75,-248 249.5,-248"/>
<text text-anchor="start" x="256.5" y="-274.45" font-family="Times New Roman,serif" font-weight="bold" font-size="9.00">Insufficient weight</text>
<text text-anchor="start" x="268.12" y="-265.45" font-family="Times New Roman,serif" font-weight="bold" font-size="9.00">Overweight I</text>
<text text-anchor="start" x="266.62" y="-256.45" font-family="Times New Roman,serif" font-weight="bold" font-size="9.00">Overweight II</text>
<polygon fill="none" stroke="black" points="337.75,-248 337.75,-289 393.75,-289 393.75,-248 337.75,-248"/>
<text text-anchor="start" x="347.75" y="-274.45" font-family="Times New Roman,serif" font-weight="bold" font-size="9.00">Obesity I</text>
<text text-anchor="start" x="346.25" y="-265.45" font-family="Times New Roman,serif" font-weight="bold" font-size="9.00">Obesity II</text>
<text text-anchor="start" x="344.75" y="-256.45" font-family="Times New Roman,serif" font-weight="bold" font-size="9.00">Obesity III</text>
<polygon fill="none" stroke="black" points="248.5,-247 248.5,-290 394.75,-290 394.75,-247 248.5,-247"/>
</g>
<!-- n_0_1_2_3_4_5_6&#45;&gt;n_0_2_3_4_5_6 -->
<g id="edge1" class="edge">
<title>n_0_1_2_3_4_5_6&#45;&gt;n_0_2_3_4_5_6</title>
<path fill="none" stroke="black" d="M366.55,-337.21C359.22,-326.16 351.26,-314.17 344.1,-303.38"/>
<polygon fill="black" stroke="black" points="347.08,-301.53 338.64,-295.14 341.25,-305.4 347.08,-301.53"/>
</g>
<!-- n_1 -->
<g id="node13" class="node">
<title>n_1</title>
<polygon fill="none" stroke="black" points="440.62,-255.88 440.62,-281.12 484.62,-281.12 484.62,-255.88 440.62,-255.88"/>
<text text-anchor="start" x="447.62" y="-266.57" font-family="Times New Roman,serif" font-weight="bold" font-size="9.00">Normal</text>
<polygon fill="none" stroke="black" points="439.62,-254.88 439.62,-282.12 485.62,-282.12 485.62,-254.88 439.62,-254.88"/>
</g>
<!-- n_0_1_2_3_4_5_6&#45;&gt;n_1 -->
<g id="edge12" class="edge">
<title>n_0_1_2_3_4_5_6&#45;&gt;n_1</title>
<path fill="none" stroke="black" d="M417.06,-337.21C426.29,-323.49 436.51,-308.31 444.93,-295.8"/>
<polygon fill="black" stroke="black" points="447.71,-297.92 450.39,-287.67 441.91,-294.02 447.71,-297.92"/>
</g>
<!-- n_0_2_3 -->
<g id="node3" class="node">
<title>n_0_2_3</title>
<polygon fill="none" stroke="black" points="154.5,-163 154.5,-195 242.75,-195 242.75,-163 154.5,-163"/>
<text text-anchor="start" x="161.5" y="-180.45" font-family="Times New Roman,serif" font-weight="bold" font-size="9.00">Insufficient weight</text>
<text text-anchor="start" x="173.12" y="-171.45" font-family="Times New Roman,serif" font-weight="bold" font-size="9.00">Overweight I</text>
<polygon fill="none" stroke="black" points="242.75,-163 242.75,-195 310.75,-195 310.75,-163 242.75,-163"/>
<text text-anchor="start" x="249.75" y="-177.07" font-family="Times New Roman,serif" font-weight="bold" font-size="9.00">Overweight II</text>
<polygon fill="none" stroke="black" points="153.5,-162 153.5,-196 311.75,-196 311.75,-162 153.5,-162"/>
</g>
<!-- n_0_2_3_4_5_6&#45;&gt;n_0_2_3 -->
<g id="edge2" class="edge">
<title>n_0_2_3_4_5_6&#45;&gt;n_0_2_3</title>
<path fill="none" stroke="black" d="M296.83,-243.13C285.66,-232.14 272.41,-219.11 260.85,-207.75"/>
<polygon fill="black" stroke="black" points="263.45,-205.4 253.87,-200.89 258.55,-210.39 263.45,-205.4"/>
</g>
<!-- n_4_5_6 -->
<g id="node8" class="node">
<title>n_4_5_6</title>
<polygon fill="none" stroke="black" points="357.62,-163 357.62,-195 413.62,-195 413.62,-163 357.62,-163"/>
<text text-anchor="start" x="366.12" y="-180.45" font-family="Times New Roman,serif" font-weight="bold" font-size="9.00">Obesity II</text>
<text text-anchor="start" x="364.62" y="-171.45" font-family="Times New Roman,serif" font-weight="bold" font-size="9.00">Obesity III</text>
<polygon fill="none" stroke="black" points="413.62,-163 413.62,-195 463.62,-195 463.62,-163 413.62,-163"/>
<text text-anchor="start" x="420.62" y="-177.07" font-family="Times New Roman,serif" font-weight="bold" font-size="9.00">Obesity I</text>
<polygon fill="none" stroke="black" points="356.62,-162 356.62,-196 464.62,-196 464.62,-162 356.62,-162"/>
</g>
<!-- n_0_2_3_4_5_6&#45;&gt;n_4_5_6 -->
<g id="edge7" class="edge">
<title>n_0_2_3_4_5_6&#45;&gt;n_4_5_6</title>
<path fill="none" stroke="black" d="M346.42,-243.13C357.59,-232.14 370.84,-219.11 382.4,-207.75"/>
<polygon fill="black" stroke="black" points="384.7,-210.39 389.38,-200.89 379.8,-205.4 384.7,-210.39"/>
</g>
<!-- n_0_2 -->
<g id="node4" class="node">
<title>n_0_2</title>
<polygon fill="none" stroke="black" points="9,-84.38 9,-109.62 97.25,-109.62 97.25,-84.38 9,-84.38"/>
<text text-anchor="start" x="16" y="-95.08" font-family="Times New Roman,serif" font-weight="bold" font-size="9.00">Insufficient weight</text>
<polygon fill="none" stroke="black" points="97.25,-84.38 97.25,-109.62 162.25,-109.62 162.25,-84.38 97.25,-84.38"/>
<text text-anchor="start" x="104.25" y="-95.08" font-family="Times New Roman,serif" font-weight="bold" font-size="9.00">Overweight I</text>
<polygon fill="none" stroke="black" points="8,-83.38 8,-110.62 163.25,-110.62 163.25,-83.38 8,-83.38"/>
</g>
<!-- n_0_2_3&#45;&gt;n_0_2 -->
<g id="edge3" class="edge">
<title>n_0_2_3&#45;&gt;n_0_2</title>
<path fill="none" stroke="black" d="M195.91,-158.02C174.77,-146.51 148.15,-132.03 126.37,-120.17"/>
<polygon fill="black" stroke="black" points="128.2,-117.19 117.75,-115.48 124.86,-123.34 128.2,-117.19"/>
</g>
<!-- n_3 -->
<g id="node7" class="node">
<title>n_3</title>
<polygon fill="none" stroke="black" points="209.62,-84.38 209.62,-109.62 277.62,-109.62 277.62,-84.38 209.62,-84.38"/>
<text text-anchor="start" x="216.62" y="-95.08" font-family="Times New Roman,serif" font-weight="bold" font-size="9.00">Overweight II</text>
<polygon fill="none" stroke="black" points="208.62,-83.38 208.62,-110.62 278.62,-110.62 278.62,-83.38 208.62,-83.38"/>
</g>
<!-- n_0_2_3&#45;&gt;n_3 -->
<g id="edge6" class="edge">
<title>n_0_2_3&#45;&gt;n_3</title>
<path fill="none" stroke="black" d="M235.34,-158.22C236.68,-148.54 238.3,-136.72 239.76,-126.11"/>
<polygon fill="black" stroke="black" points="243.21,-126.73 241.1,-116.34 236.27,-125.77 243.21,-126.73"/>
</g>
<!-- n_0 -->
<g id="node5" class="node">
<title>n_0</title>
<polygon fill="none" stroke="black" points="22.5,-5.38 22.5,-30.62 110.75,-30.62 110.75,-5.38 22.5,-5.38"/>
<text text-anchor="start" x="29.5" y="-16.07" font-family="Times New Roman,serif" font-weight="bold" font-size="9.00">Insufficient weight</text>
<polygon fill="none" stroke="black" points="21.5,-4.38 21.5,-31.62 111.75,-31.62 111.75,-4.38 21.5,-4.38"/>
</g>
<!-- n_0_2&#45;&gt;n_0 -->
<g id="edge4" class="edge">
<title>n_0_2&#45;&gt;n_0</title>
<path fill="none" stroke="black" d="M81.5,-79.29C79.18,-69.87 76.21,-57.86 73.54,-47.04"/>
<polygon fill="black" stroke="black" points="76.96,-46.28 71.17,-37.41 70.17,-47.96 76.96,-46.28"/>
</g>
<!-- n_2 -->
<g id="node6" class="node">
<title>n_2</title>
<polygon fill="none" stroke="black" points="158.12,-5.38 158.12,-30.62 223.12,-30.62 223.12,-5.38 158.12,-5.38"/>
<text text-anchor="start" x="165.12" y="-16.07" font-family="Times New Roman,serif" font-weight="bold" font-size="9.00">Overweight I</text>
<polygon fill="none" stroke="black" points="157.12,-4.38 157.12,-31.62 224.12,-31.62 224.12,-4.38 157.12,-4.38"/>
</g>
<!-- n_0_2&#45;&gt;n_2 -->
<g id="edge5" class="edge">
<title>n_0_2&#45;&gt;n_2</title>
<path fill="none" stroke="black" d="M108.67,-79.1C123.3,-68.37 142.45,-54.33 158.56,-42.51"/>
<polygon fill="black" stroke="black" points="160.42,-45.49 166.42,-36.75 156.28,-39.84 160.42,-45.49"/>
</g>
<!-- n_5_6 -->
<g id="node9" class="node">
<title>n_5_6</title>
<polygon fill="none" stroke="black" points="346.12,-84.38 346.12,-109.62 399.12,-109.62 399.12,-84.38 346.12,-84.38"/>
<text text-anchor="start" x="353.12" y="-95.08" font-family="Times New Roman,serif" font-weight="bold" font-size="9.00">Obesity II</text>
<polygon fill="none" stroke="black" points="399.12,-84.38 399.12,-109.62 455.12,-109.62 455.12,-84.38 399.12,-84.38"/>
<text text-anchor="start" x="406.12" y="-95.08" font-family="Times New Roman,serif" font-weight="bold" font-size="9.00">Obesity III</text>
<polygon fill="none" stroke="black" points="345.12,-83.38 345.12,-110.62 456.12,-110.62 456.12,-83.38 345.12,-83.38"/>
</g>
<!-- n_4_5_6&#45;&gt;n_5_6 -->
<g id="edge8" class="edge">
<title>n_4_5_6&#45;&gt;n_5_6</title>
<path fill="none" stroke="black" d="M408.15,-158.22C406.94,-148.54 405.46,-136.72 404.14,-126.11"/>
<polygon fill="black" stroke="black" points="407.63,-125.83 402.92,-116.35 400.69,-126.7 407.63,-125.83"/>
</g>
<!-- n_4 -->
<g id="node12" class="node">
<title>n_4</title>
<polygon fill="none" stroke="black" points="502.62,-84.38 502.62,-109.62 552.62,-109.62 552.62,-84.38 502.62,-84.38"/>
<text text-anchor="start" x="509.62" y="-95.08" font-family="Times New Roman,serif" font-weight="bold" font-size="9.00">Obesity I</text>
<polygon fill="none" stroke="black" points="501.62,-83.38 501.62,-110.62 553.62,-110.62 553.62,-83.38 501.62,-83.38"/>
</g>
<!-- n_4_5_6&#45;&gt;n_4 -->
<g id="edge11" class="edge">
<title>n_4_5_6&#45;&gt;n_4</title>
<path fill="none" stroke="black" d="M439.85,-158.02C456.29,-146.77 476.9,-132.68 494.02,-120.98"/>
<polygon fill="black" stroke="black" points="495.59,-124.15 501.87,-115.61 491.64,-118.37 495.59,-124.15"/>
</g>
<!-- n_5 -->
<g id="node10" class="node">
<title>n_5</title>
<polygon fill="none" stroke="black" points="311.12,-5.38 311.12,-30.62 364.12,-30.62 364.12,-5.38 311.12,-5.38"/>
<text text-anchor="start" x="318.12" y="-16.07" font-family="Times New Roman,serif" font-weight="bold" font-size="9.00">Obesity II</text>
<polygon fill="none" stroke="black" points="310.12,-4.38 310.12,-31.62 365.12,-31.62 365.12,-4.38 310.12,-4.38"/>
</g>
<!-- n_5_6&#45;&gt;n_5 -->
<g id="edge9" class="edge">
<title>n_5_6&#45;&gt;n_5</title>
<path fill="none" stroke="black" d="M386.95,-79.29C378.67,-69.17 367.94,-56.05 358.6,-44.64"/>
<polygon fill="black" stroke="black" points="361.49,-42.64 352.44,-37.11 356.07,-47.07 361.49,-42.64"/>
</g>
<!-- n_6 -->
<g id="node11" class="node">
<title>n_6</title>
<polygon fill="none" stroke="black" points="411.62,-5.38 411.62,-30.62 467.62,-30.62 467.62,-5.38 411.62,-5.38"/>
<text text-anchor="start" x="418.62" y="-16.07" font-family="Times New Roman,serif" font-weight="bold" font-size="9.00">Obesity III</text>
<polygon fill="none" stroke="black" points="410.62,-4.38 410.62,-31.62 468.62,-31.62 468.62,-4.38 410.62,-4.38"/>
</g>
<!-- n_5_6&#45;&gt;n_6 -->
<g id="edge10" class="edge">
<title>n_5_6&#45;&gt;n_6</title>
<path fill="none" stroke="black" d="M409.09,-79.29C414.01,-69.57 420.33,-57.09 425.95,-46"/>
<polygon fill="black" stroke="black" points="428.96,-47.79 430.36,-37.29 422.72,-44.63 428.96,-47.79"/>
</g>
</g>
</svg>
