<?xml version="1.0" encoding="UTF-8" standalone="no"?>
<!DOCTYPE svg PUBLIC "-//W3C//DTD SVG 1.1//EN"
 "http://www.w3.org/Graphics/SVG/1.1/DTD/svg11.dtd">
<!-- Generated by graphviz version 10.0.1 (20240210.2158)
 -->
<!-- Title: ND Pages: 1 -->
<svg width="558pt" height="535pt"
 viewBox="0.00 0.00 557.50 535.00" xmlns="http://www.w3.org/2000/svg" xmlns:xlink="http://www.w3.org/1999/xlink">
<g id="graph0" class="graph" transform="scale(1 1) rotate(0) translate(4 531)">
<title>ND</title>
<polygon fill="white" stroke="none" points="-4,4 -4,-531 553.5,-531 553.5,4 -4,4"/>
<!-- n_0_1_2_3_4_5_6 -->
<g id="node1" class="node">
<title>n_0_1_2_3_4_5_6</title>
<polygon fill="none" stroke="black" points="367.38,-454 367.38,-522 455.62,-522 455.62,-454 367.38,-454"/>
<text text-anchor="start" x="374.38" y="-507.45" font-family="Times New Roman,serif" font-weight="bold" font-size="9.00">Insufficient weight</text>
<text text-anchor="start" x="396.5" y="-498.45" font-family="Times New Roman,serif" font-weight="bold" font-size="9.00">Normal</text>
<text text-anchor="start" x="386" y="-489.45" font-family="Times New Roman,serif" font-weight="bold" font-size="9.00">Overweight I</text>
<text text-anchor="start" x="384.5" y="-480.45" font-family="Times New Roman,serif" font-weight="bold" font-size="9.00">Overweight II</text>
<text text-anchor="start" x="393.5" y="-471.45" font-family="Times New Roman,serif" font-weight="bold" font-size="9.00">Obesity I</text>
<text text-anchor="start" x="390.5" y="-462.45" font-family="Times New Roman,serif" font-weight="bold" font-size="9.00">Obesity III</text>
<polygon fill="none" stroke="black" points="455.62,-454 455.62,-522 508.62,-522 508.62,-454 455.62,-454"/>
<text text-anchor="start" x="462.62" y="-486.07" font-family="Times New Roman,serif" font-weight="bold" font-size="9.00">Obesity II</text>
<polygon fill="none" stroke="black" points="366.38,-453 366.38,-523 509.62,-523 509.62,-453 366.38,-453"/>
</g>
<!-- n_0_1_2_3_4_6 -->
<g id="node2" class="node">
<title>n_0_1_2_3_4_6</title>
<polygon fill="none" stroke="black" points="283.88,-342 283.88,-401 351.88,-401 351.88,-342 283.88,-342"/>
<text text-anchor="start" x="302.88" y="-386.45" font-family="Times New Roman,serif" font-weight="bold" font-size="9.00">Normal</text>
<text text-anchor="start" x="292.38" y="-377.45" font-family="Times New Roman,serif" font-weight="bold" font-size="9.00">Overweight I</text>
<text text-anchor="start" x="290.88" y="-368.45" font-family="Times New Roman,serif" font-weight="bold" font-size="9.00">Overweight II</text>
<text text-anchor="start" x="299.88" y="-359.45" font-family="Times New Roman,serif" font-weight="bold" font-size="9.00">Obesity I</text>
<text text-anchor="start" x="296.88" y="-350.45" font-family="Times New Roman,serif" font-weight="bold" font-size="9.00">Obesity III</text>
<polygon fill="none" stroke="black" points="351.88,-342 351.88,-401 440.12,-401 440.12,-342 351.88,-342"/>
<text text-anchor="start" x="358.88" y="-369.57" font-family="Times New Roman,serif" font-weight="bold" font-size="9.00">Insufficient weight</text>
<polygon fill="none" stroke="black" points="282.88,-341 282.88,-402 441.12,-402 441.12,-341 282.88,-341"/>
</g>
<!-- n_0_1_2_3_4_5_6&#45;&gt;n_0_1_2_3_4_6 -->
<g id="edge1" class="edge">
<title>n_0_1_2_3_4_5_6&#45;&gt;n_0_1_2_3_4_6</title>
<path fill="none" stroke="black" d="M412.9,-449.19C405.68,-438.31 397.75,-426.36 390.35,-415.21"/>
<polygon fill="black" stroke="black" points="393.29,-413.31 384.84,-406.91 387.46,-417.18 393.29,-413.31"/>
</g>
<!-- n_5 -->
<g id="node13" class="node">
<title>n_5</title>
<polygon fill="none" stroke="black" points="487.5,-358.88 487.5,-384.12 540.5,-384.12 540.5,-358.88 487.5,-358.88"/>
<text text-anchor="start" x="494.5" y="-369.57" font-family="Times New Roman,serif" font-weight="bold" font-size="9.00">Obesity II</text>
<polygon fill="none" stroke="black" points="486.5,-357.88 486.5,-385.12 541.5,-385.12 541.5,-357.88 486.5,-357.88"/>
</g>
<!-- n_0_1_2_3_4_5_6&#45;&gt;n_5 -->
<g id="edge12" class="edge">
<title>n_0_1_2_3_4_5_6&#45;&gt;n_5</title>
<path fill="none" stroke="black" d="M463.1,-449.19C474.09,-432.63 486.72,-413.6 496.65,-398.64"/>
<polygon fill="black" stroke="black" points="499.29,-400.99 501.9,-390.72 493.46,-397.12 499.29,-400.99"/>
</g>
<!-- n_1_2_3_4_6 -->
<g id="node3" class="node">
<title>n_1_2_3_4_6</title>
<polygon fill="none" stroke="black" points="216.5,-248 216.5,-289 281.5,-289 281.5,-248 216.5,-248"/>
<text text-anchor="start" x="223.5" y="-274.45" font-family="Times New Roman,serif" font-weight="bold" font-size="9.00">Overweight I</text>
<text text-anchor="start" x="231" y="-265.45" font-family="Times New Roman,serif" font-weight="bold" font-size="9.00">Obesity I</text>
<text text-anchor="start" x="228" y="-256.45" font-family="Times New Roman,serif" font-weight="bold" font-size="9.00">Obesity III</text>
<polygon fill="none" stroke="black" points="281.5,-248 281.5,-289 349.5,-289 349.5,-248 281.5,-248"/>
<text text-anchor="start" x="300.5" y="-269.95" font-family="Times New Roman,serif" font-weight="bold" font-size="9.00">Normal</text>
<text text-anchor="start" x="288.5" y="-260.95" font-family="Times New Roman,serif" font-weight="bold" font-size="9.00">Overweight II</text>
<polygon fill="none" stroke="black" points="215.5,-247 215.5,-290 350.5,-290 350.5,-247 215.5,-247"/>
</g>
<!-- n_0_1_2_3_4_6&#45;&gt;n_1_2_3_4_6 -->
<g id="edge2" class="edge">
<title>n_0_1_2_3_4_6&#45;&gt;n_1_2_3_4_6</title>
<path fill="none" stroke="black" d="M335.91,-337.15C327.28,-326.11 317.67,-313.82 309.03,-302.78"/>
<polygon fill="black" stroke="black" points="311.9,-300.77 302.99,-295.05 306.39,-305.08 311.9,-300.77"/>
</g>
<!-- n_0 -->
<g id="node12" class="node">
<title>n_0</title>
<polygon fill="none" stroke="black" points="396.88,-255.88 396.88,-281.12 485.12,-281.12 485.12,-255.88 396.88,-255.88"/>
<text text-anchor="start" x="403.88" y="-266.57" font-family="Times New Roman,serif" font-weight="bold" font-size="9.00">Insufficient weight</text>
<polygon fill="none" stroke="black" points="395.88,-254.88 395.88,-282.12 486.12,-282.12 486.12,-254.88 395.88,-254.88"/>
</g>
<!-- n_0_1_2_3_4_6&#45;&gt;n_0 -->
<g id="edge11" class="edge">
<title>n_0_1_2_3_4_6&#45;&gt;n_0</title>
<path fill="none" stroke="black" d="M388.09,-337.15C398.79,-323.46 410.99,-307.87 420.97,-295.11"/>
<polygon fill="black" stroke="black" points="423.46,-297.61 426.86,-287.57 417.95,-293.29 423.46,-297.61"/>
</g>
<!-- n_2_4_6 -->
<g id="node4" class="node">
<title>n_2_4_6</title>
<polygon fill="none" stroke="black" points="140.5,-163 140.5,-195 196.5,-195 196.5,-163 140.5,-163"/>
<text text-anchor="start" x="150.5" y="-180.45" font-family="Times New Roman,serif" font-weight="bold" font-size="9.00">Obesity I</text>
<text text-anchor="start" x="147.5" y="-171.45" font-family="Times New Roman,serif" font-weight="bold" font-size="9.00">Obesity III</text>
<polygon fill="none" stroke="black" points="196.5,-163 196.5,-195 261.5,-195 261.5,-163 196.5,-163"/>
<text text-anchor="start" x="203.5" y="-177.07" font-family="Times New Roman,serif" font-weight="bold" font-size="9.00">Overweight I</text>
<polygon fill="none" stroke="black" points="139.5,-162 139.5,-196 262.5,-196 262.5,-162 139.5,-162"/>
</g>
<!-- n_1_2_3_4_6&#45;&gt;n_2_4_6 -->
<g id="edge3" class="edge">
<title>n_1_2_3_4_6&#45;&gt;n_2_4_6</title>
<path fill="none" stroke="black" d="M260.16,-243.13C249.96,-232.25 237.89,-219.36 227.32,-208.08"/>
<polygon fill="black" stroke="black" points="230.01,-205.83 220.61,-200.93 224.9,-210.62 230.01,-205.83"/>
</g>
<!-- n_1_3 -->
<g id="node9" class="node">
<title>n_1_3</title>
<polygon fill="none" stroke="black" points="309,-166.38 309,-191.62 353,-191.62 353,-166.38 309,-166.38"/>
<text text-anchor="start" x="316" y="-177.07" font-family="Times New Roman,serif" font-weight="bold" font-size="9.00">Normal</text>
<polygon fill="none" stroke="black" points="353,-166.38 353,-191.62 421,-191.62 421,-166.38 353,-166.38"/>
<text text-anchor="start" x="360" y="-177.07" font-family="Times New Roman,serif" font-weight="bold" font-size="9.00">Overweight II</text>
<polygon fill="none" stroke="black" points="308,-165.38 308,-192.62 422,-192.62 422,-165.38 308,-165.38"/>
</g>
<!-- n_1_2_3_4_6&#45;&gt;n_1_3 -->
<g id="edge8" class="edge">
<title>n_1_2_3_4_6&#45;&gt;n_1_3</title>
<path fill="none" stroke="black" d="M305.84,-243.13C316.98,-231.24 330.35,-216.97 341.56,-205.01"/>
<polygon fill="black" stroke="black" points="343.96,-207.56 348.25,-197.87 338.86,-202.78 343.96,-207.56"/>
</g>
<!-- n_4_6 -->
<g id="node5" class="node">
<title>n_4_6</title>
<polygon fill="none" stroke="black" points="31,-84.38 31,-109.62 81,-109.62 81,-84.38 31,-84.38"/>
<text text-anchor="start" x="38" y="-95.08" font-family="Times New Roman,serif" font-weight="bold" font-size="9.00">Obesity I</text>
<polygon fill="none" stroke="black" points="81,-84.38 81,-109.62 137,-109.62 137,-84.38 81,-84.38"/>
<text text-anchor="start" x="88" y="-95.08" font-family="Times New Roman,serif" font-weight="bold" font-size="9.00">Obesity III</text>
<polygon fill="none" stroke="black" points="30,-83.38 30,-110.62 138,-110.62 138,-83.38 30,-83.38"/>
</g>
<!-- n_2_4_6&#45;&gt;n_4_6 -->
<g id="edge4" class="edge">
<title>n_2_4_6&#45;&gt;n_4_6</title>
<path fill="none" stroke="black" d="M171.78,-158.02C155.33,-146.77 134.72,-132.68 117.61,-120.98"/>
<polygon fill="black" stroke="black" points="119.99,-118.37 109.76,-115.61 116.04,-124.15 119.99,-118.37"/>
</g>
<!-- n_2 -->
<g id="node8" class="node">
<title>n_2</title>
<polygon fill="none" stroke="black" points="184.5,-84.38 184.5,-109.62 249.5,-109.62 249.5,-84.38 184.5,-84.38"/>
<text text-anchor="start" x="191.5" y="-95.08" font-family="Times New Roman,serif" font-weight="bold" font-size="9.00">Overweight I</text>
<polygon fill="none" stroke="black" points="183.5,-83.38 183.5,-110.62 250.5,-110.62 250.5,-83.38 183.5,-83.38"/>
</g>
<!-- n_2_4_6&#45;&gt;n_2 -->
<g id="edge7" class="edge">
<title>n_2_4_6&#45;&gt;n_2</title>
<path fill="none" stroke="black" d="M204.96,-158.22C206.89,-148.54 209.26,-136.72 211.38,-126.11"/>
<polygon fill="black" stroke="black" points="214.81,-126.82 213.33,-116.33 207.94,-125.45 214.81,-126.82"/>
</g>
<!-- n_4 -->
<g id="node6" class="node">
<title>n_4</title>
<polygon fill="none" stroke="black" points="9,-5.38 9,-30.62 59,-30.62 59,-5.38 9,-5.38"/>
<text text-anchor="start" x="16" y="-16.07" font-family="Times New Roman,serif" font-weight="bold" font-size="9.00">Obesity I</text>
<polygon fill="none" stroke="black" points="8,-4.38 8,-31.62 60,-31.62 60,-4.38 8,-4.38"/>
</g>
<!-- n_4_6&#45;&gt;n_4 -->
<g id="edge5" class="edge">
<title>n_4_6&#45;&gt;n_4</title>
<path fill="none" stroke="black" d="M73.15,-79.29C66.71,-69.37 58.4,-56.57 51.09,-45.32"/>
<polygon fill="black" stroke="black" points="54.21,-43.69 45.83,-37.21 48.34,-47.5 54.21,-43.69"/>
</g>
<!-- n_6 -->
<g id="node7" class="node">
<title>n_6</title>
<polygon fill="none" stroke="black" points="106,-5.38 106,-30.62 162,-30.62 162,-5.38 106,-5.38"/>
<text text-anchor="start" x="113" y="-16.07" font-family="Times New Roman,serif" font-weight="bold" font-size="9.00">Obesity III</text>
<polygon fill="none" stroke="black" points="105,-4.38 105,-31.62 163,-31.62 163,-4.38 105,-4.38"/>
</g>
<!-- n_4_6&#45;&gt;n_6 -->
<g id="edge6" class="edge">
<title>n_4_6&#45;&gt;n_6</title>
<path fill="none" stroke="black" d="M94.85,-79.29C101.29,-69.37 109.6,-56.57 116.91,-45.32"/>
<polygon fill="black" stroke="black" points="119.66,-47.5 122.17,-37.21 113.79,-43.69 119.66,-47.5"/>
</g>
<!-- n_1 -->
<g id="node10" class="node">
<title>n_1</title>
<polygon fill="none" stroke="black" points="328,-84.38 328,-109.62 372,-109.62 372,-84.38 328,-84.38"/>
<text text-anchor="start" x="335" y="-95.08" font-family="Times New Roman,serif" font-weight="bold" font-size="9.00">Normal</text>
<polygon fill="none" stroke="black" points="327,-83.38 327,-110.62 373,-110.62 373,-83.38 327,-83.38"/>
</g>
<!-- n_1_3&#45;&gt;n_1 -->
<g id="edge9" class="edge">
<title>n_1_3&#45;&gt;n_1</title>
<path fill="none" stroke="black" d="M361.82,-161.03C359.91,-150.85 357.43,-137.65 355.24,-125.96"/>
<polygon fill="black" stroke="black" points="358.74,-125.61 353.46,-116.43 351.86,-126.9 358.74,-125.61"/>
</g>
<!-- n_3 -->
<g id="node11" class="node">
<title>n_3</title>
<polygon fill="none" stroke="black" points="419,-84.38 419,-109.62 487,-109.62 487,-84.38 419,-84.38"/>
<text text-anchor="start" x="426" y="-95.08" font-family="Times New Roman,serif" font-weight="bold" font-size="9.00">Overweight II</text>
<polygon fill="none" stroke="black" points="418,-83.38 418,-110.62 488,-110.62 488,-83.38 418,-83.38"/>
</g>
<!-- n_1_3&#45;&gt;n_3 -->
<g id="edge10" class="edge">
<title>n_1_3&#45;&gt;n_3</title>
<path fill="none" stroke="black" d="M383.66,-161.03C396.03,-149.79 412.45,-134.87 426.2,-122.36"/>
<polygon fill="black" stroke="black" points="428.2,-125.28 433.24,-115.96 423.49,-120.1 428.2,-125.28"/>
</g>
</g>
</svg>
