<?xml version="1.0" encoding="UTF-8" standalone="no"?>
<!DOCTYPE svg PUBLIC "-//W3C//DTD SVG 1.1//EN"
 "http://www.w3.org/Graphics/SVG/1.1/DTD/svg11.dtd">
<!-- Generated by graphviz version 10.0.1 (20240210.2158)
 -->
<!-- Title: ND Pages: 1 -->
<svg width="586pt" height="544pt"
 viewBox="0.00 0.00 585.62 544.00" xmlns="http://www.w3.org/2000/svg" xmlns:xlink="http://www.w3.org/1999/xlink">
<g id="graph0" class="graph" transform="scale(1 1) rotate(0) translate(4 540)">
<title>ND</title>
<polygon fill="white" stroke="none" points="-4,4 -4,-540 581.62,-540 581.62,4 -4,4"/>
<!-- n_0_1_2_3_4_5_6 -->
<g id="node1" class="node">
<title>n_0_1_2_3_4_5_6</title>
<polygon fill="none" stroke="black" points="395.5,-463 395.5,-531 483.75,-531 483.75,-463 395.5,-463"/>
<text text-anchor="start" x="402.5" y="-516.45" font-family="Times New Roman,serif" font-weight="bold" font-size="9.00">Insufficient weight</text>
<text text-anchor="start" x="424.62" y="-507.45" font-family="Times New Roman,serif" font-weight="bold" font-size="9.00">Normal</text>
<text text-anchor="start" x="414.12" y="-498.45" font-family="Times New Roman,serif" font-weight="bold" font-size="9.00">Overweight I</text>
<text text-anchor="start" x="412.62" y="-489.45" font-family="Times New Roman,serif" font-weight="bold" font-size="9.00">Overweight II</text>
<text text-anchor="start" x="421.62" y="-480.45" font-family="Times New Roman,serif" font-weight="bold" font-size="9.00">Obesity I</text>
<text text-anchor="start" x="418.62" y="-471.45" font-family="Times New Roman,serif" font-weight="bold" font-size="9.00">Obesity III</text>
<polygon fill="none" stroke="black" points="483.75,-463 483.75,-531 536.75,-531 536.75,-463 483.75,-463"/>
<text text-anchor="start" x="490.75" y="-495.07" font-family="Times New Roman,serif" font-weight="bold" font-size="9.00">Obesity II</text>
<polygon fill="none" stroke="black" points="394.5,-462 394.5,-532 537.75,-532 537.75,-462 394.5,-462"/>
</g>
<!-- n_0_1_2_3_4_6 -->
<g id="node2" class="node">
<title>n_0_1_2_3_4_6</title>
<polygon fill="none" stroke="black" points="312,-351 312,-410 400.25,-410 400.25,-351 312,-351"/>
<text text-anchor="start" x="319" y="-395.45" font-family="Times New Roman,serif" font-weight="bold" font-size="9.00">Insufficient weight</text>
<text text-anchor="start" x="341.12" y="-386.45" font-family="Times New Roman,serif" font-weight="bold" font-size="9.00">Normal</text>
<text text-anchor="start" x="330.62" y="-377.45" font-family="Times New Roman,serif" font-weight="bold" font-size="9.00">Overweight I</text>
<text text-anchor="start" x="338.12" y="-368.45" font-family="Times New Roman,serif" font-weight="bold" font-size="9.00">Obesity I</text>
<text text-anchor="start" x="335.12" y="-359.45" font-family="Times New Roman,serif" font-weight="bold" font-size="9.00">Obesity III</text>
<polygon fill="none" stroke="black" points="400.25,-351 400.25,-410 468.25,-410 468.25,-351 400.25,-351"/>
<text text-anchor="start" x="407.25" y="-378.57" font-family="Times New Roman,serif" font-weight="bold" font-size="9.00">Overweight II</text>
<polygon fill="none" stroke="black" points="311,-350 311,-411 469.25,-411 469.25,-350 311,-350"/>
</g>
<!-- n_0_1_2_3_4_5_6&#45;&gt;n_0_1_2_3_4_6 -->
<g id="edge1" class="edge">
<title>n_0_1_2_3_4_5_6&#45;&gt;n_0_1_2_3_4_6</title>
<path fill="none" stroke="black" d="M441.03,-458.19C433.81,-447.31 425.88,-435.36 418.47,-424.21"/>
<polygon fill="black" stroke="black" points="421.41,-422.31 412.97,-415.91 415.58,-426.18 421.41,-422.31"/>
</g>
<!-- n_5 -->
<g id="node13" class="node">
<title>n_5</title>
<polygon fill="none" stroke="black" points="515.62,-367.88 515.62,-393.12 568.62,-393.12 568.62,-367.88 515.62,-367.88"/>
<text text-anchor="start" x="522.62" y="-378.57" font-family="Times New Roman,serif" font-weight="bold" font-size="9.00">Obesity II</text>
<polygon fill="none" stroke="black" points="514.62,-366.88 514.62,-394.12 569.62,-394.12 569.62,-366.88 514.62,-366.88"/>
</g>
<!-- n_0_1_2_3_4_5_6&#45;&gt;n_5 -->
<g id="edge12" class="edge">
<title>n_0_1_2_3_4_5_6&#45;&gt;n_5</title>
<path fill="none" stroke="black" d="M491.22,-458.19C502.22,-441.63 514.85,-422.6 524.78,-407.64"/>
<polygon fill="black" stroke="black" points="527.41,-409.99 530.03,-399.72 521.58,-406.12 527.41,-409.99"/>
</g>
<!-- n_0_1_2_4_6 -->
<g id="node3" class="node">
<title>n_0_1_2_4_6</title>
<polygon fill="none" stroke="black" points="234.5,-248 234.5,-298 322.75,-298 322.75,-248 234.5,-248"/>
<text text-anchor="start" x="241.5" y="-283.45" font-family="Times New Roman,serif" font-weight="bold" font-size="9.00">Insufficient weight</text>
<text text-anchor="start" x="263.62" y="-274.45" font-family="Times New Roman,serif" font-weight="bold" font-size="9.00">Normal</text>
<text text-anchor="start" x="260.62" y="-265.45" font-family="Times New Roman,serif" font-weight="bold" font-size="9.00">Obesity I</text>
<text text-anchor="start" x="257.62" y="-256.45" font-family="Times New Roman,serif" font-weight="bold" font-size="9.00">Obesity III</text>
<polygon fill="none" stroke="black" points="322.75,-248 322.75,-298 387.75,-298 387.75,-248 322.75,-248"/>
<text text-anchor="start" x="329.75" y="-271.07" font-family="Times New Roman,serif" font-weight="bold" font-size="9.00">Overweight I</text>
<polygon fill="none" stroke="black" points="233.5,-247 233.5,-299 388.75,-299 388.75,-247 233.5,-247"/>
</g>
<!-- n_0_1_2_3_4_6&#45;&gt;n_0_1_2_4_6 -->
<g id="edge2" class="edge">
<title>n_0_1_2_3_4_6&#45;&gt;n_0_1_2_4_6</title>
<path fill="none" stroke="black" d="M365.13,-346.12C357.01,-335.27 347.93,-323.16 339.58,-312"/>
<polygon fill="black" stroke="black" points="342.47,-310.02 333.67,-304.11 336.86,-314.21 342.47,-310.02"/>
</g>
<!-- n_3 -->
<g id="node12" class="node">
<title>n_3</title>
<polygon fill="none" stroke="black" points="435.12,-260.38 435.12,-285.62 503.12,-285.62 503.12,-260.38 435.12,-260.38"/>
<text text-anchor="start" x="442.12" y="-271.07" font-family="Times New Roman,serif" font-weight="bold" font-size="9.00">Overweight II</text>
<polygon fill="none" stroke="black" points="434.12,-259.38 434.12,-286.62 504.12,-286.62 504.12,-259.38 434.12,-259.38"/>
</g>
<!-- n_0_1_2_3_4_6&#45;&gt;n_3 -->
<g id="edge11" class="edge">
<title>n_0_1_2_3_4_6&#45;&gt;n_3</title>
<path fill="none" stroke="black" d="M415.12,-346.12C426.29,-331.21 439.25,-313.9 449.67,-299.98"/>
<polygon fill="black" stroke="black" points="452.33,-302.26 455.53,-292.16 446.73,-298.07 452.33,-302.26"/>
</g>
<!-- n_0_1_4_6 -->
<g id="node4" class="node">
<title>n_0_1_4_6</title>
<polygon fill="none" stroke="black" points="168,-163 168,-195 256.25,-195 256.25,-163 168,-163"/>
<text text-anchor="start" x="175" y="-180.45" font-family="Times New Roman,serif" font-weight="bold" font-size="9.00">Insufficient weight</text>
<text text-anchor="start" x="191.12" y="-171.45" font-family="Times New Roman,serif" font-weight="bold" font-size="9.00">Obesity III</text>
<polygon fill="none" stroke="black" points="256.25,-163 256.25,-195 306.25,-195 306.25,-163 256.25,-163"/>
<text text-anchor="start" x="266.25" y="-180.45" font-family="Times New Roman,serif" font-weight="bold" font-size="9.00">Normal</text>
<text text-anchor="start" x="263.25" y="-171.45" font-family="Times New Roman,serif" font-weight="bold" font-size="9.00">Obesity I</text>
<polygon fill="none" stroke="black" points="167,-162 167,-196 307.25,-196 307.25,-162 167,-162"/>
</g>
<!-- n_0_1_2_4_6&#45;&gt;n_0_1_4_6 -->
<g id="edge3" class="edge">
<title>n_0_1_2_4_6&#45;&gt;n_0_1_4_6</title>
<path fill="none" stroke="black" d="M287.91,-243.14C279.04,-232.11 268.93,-219.54 260.08,-208.54"/>
<polygon fill="black" stroke="black" points="262.94,-206.51 253.94,-200.91 257.48,-210.9 262.94,-206.51"/>
</g>
<!-- n_2 -->
<g id="node11" class="node">
<title>n_2</title>
<polygon fill="none" stroke="black" points="353.62,-166.38 353.62,-191.62 418.62,-191.62 418.62,-166.38 353.62,-166.38"/>
<text text-anchor="start" x="360.62" y="-177.07" font-family="Times New Roman,serif" font-weight="bold" font-size="9.00">Overweight I</text>
<polygon fill="none" stroke="black" points="352.62,-165.38 352.62,-192.62 419.62,-192.62 419.62,-165.38 352.62,-165.38"/>
</g>
<!-- n_0_1_2_4_6&#45;&gt;n_2 -->
<g id="edge10" class="edge">
<title>n_0_1_2_4_6&#45;&gt;n_2</title>
<path fill="none" stroke="black" d="M334.65,-243.14C344.41,-231.17 355.65,-217.38 365.13,-205.76"/>
<polygon fill="black" stroke="black" points="367.73,-208.1 371.34,-198.14 362.3,-203.68 367.73,-208.1"/>
</g>
<!-- n_0_6 -->
<g id="node5" class="node">
<title>n_0_6</title>
<polygon fill="none" stroke="black" points="82,-84.38 82,-109.62 170.25,-109.62 170.25,-84.38 82,-84.38"/>
<text text-anchor="start" x="89" y="-95.08" font-family="Times New Roman,serif" font-weight="bold" font-size="9.00">Insufficient weight</text>
<polygon fill="none" stroke="black" points="170.25,-84.38 170.25,-109.62 226.25,-109.62 226.25,-84.38 170.25,-84.38"/>
<text text-anchor="start" x="177.25" y="-95.08" font-family="Times New Roman,serif" font-weight="bold" font-size="9.00">Obesity III</text>
<polygon fill="none" stroke="black" points="81,-83.38 81,-110.62 227.25,-110.62 227.25,-83.38 81,-83.38"/>
</g>
<!-- n_0_1_4_6&#45;&gt;n_0_6 -->
<g id="edge4" class="edge">
<title>n_0_1_4_6&#45;&gt;n_0_6</title>
<path fill="none" stroke="black" d="M216.61,-158.22C205.48,-147.5 191.63,-134.15 179.79,-122.74"/>
<polygon fill="black" stroke="black" points="182.32,-120.31 172.69,-115.89 177.46,-125.35 182.32,-120.31"/>
</g>
<!-- n_1_4 -->
<g id="node8" class="node">
<title>n_1_4</title>
<polygon fill="none" stroke="black" points="273.12,-84.38 273.12,-109.62 317.12,-109.62 317.12,-84.38 273.12,-84.38"/>
<text text-anchor="start" x="280.12" y="-95.08" font-family="Times New Roman,serif" font-weight="bold" font-size="9.00">Normal</text>
<polygon fill="none" stroke="black" points="317.12,-84.38 317.12,-109.62 367.12,-109.62 367.12,-84.38 317.12,-84.38"/>
<text text-anchor="start" x="324.12" y="-95.08" font-family="Times New Roman,serif" font-weight="bold" font-size="9.00">Obesity I</text>
<polygon fill="none" stroke="black" points="272.12,-83.38 272.12,-110.62 368.12,-110.62 368.12,-83.38 272.12,-83.38"/>
</g>
<!-- n_0_1_4_6&#45;&gt;n_1_4 -->
<g id="edge7" class="edge">
<title>n_0_1_4_6&#45;&gt;n_1_4</title>
<path fill="none" stroke="black" d="M257.64,-158.22C268.77,-147.5 282.62,-134.15 294.46,-122.74"/>
<polygon fill="black" stroke="black" points="296.79,-125.35 301.56,-115.89 291.93,-120.31 296.79,-125.35"/>
</g>
<!-- n_0 -->
<g id="node6" class="node">
<title>n_0</title>
<polygon fill="none" stroke="black" points="9,-5.38 9,-30.62 97.25,-30.62 97.25,-5.38 9,-5.38"/>
<text text-anchor="start" x="16" y="-16.07" font-family="Times New Roman,serif" font-weight="bold" font-size="9.00">Insufficient weight</text>
<polygon fill="none" stroke="black" points="8,-4.38 8,-31.62 98.25,-31.62 98.25,-4.38 8,-4.38"/>
</g>
<!-- n_0_6&#45;&gt;n_0 -->
<g id="edge5" class="edge">
<title>n_0_6&#45;&gt;n_0</title>
<path fill="none" stroke="black" d="M132.21,-79.29C118.14,-68.57 99.67,-54.48 84.11,-42.62"/>
<polygon fill="black" stroke="black" points="86.62,-40.14 76.55,-36.86 82.38,-45.71 86.62,-40.14"/>
</g>
<!-- n_6 -->
<g id="node7" class="node">
<title>n_6</title>
<polygon fill="none" stroke="black" points="144.12,-5.38 144.12,-30.62 200.12,-30.62 200.12,-5.38 144.12,-5.38"/>
<text text-anchor="start" x="151.12" y="-16.07" font-family="Times New Roman,serif" font-weight="bold" font-size="9.00">Obesity III</text>
<polygon fill="none" stroke="black" points="143.12,-4.38 143.12,-31.62 201.12,-31.62 201.12,-4.38 143.12,-4.38"/>
</g>
<!-- n_0_6&#45;&gt;n_6 -->
<g id="edge6" class="edge">
<title>n_0_6&#45;&gt;n_6</title>
<path fill="none" stroke="black" d="M158.03,-79.29C160.23,-69.87 163.04,-57.86 165.57,-47.04"/>
<polygon fill="black" stroke="black" points="168.95,-47.95 167.82,-37.41 162.14,-46.36 168.95,-47.95"/>
</g>
<!-- n_1 -->
<g id="node9" class="node">
<title>n_1</title>
<polygon fill="none" stroke="black" points="281.12,-5.38 281.12,-30.62 325.12,-30.62 325.12,-5.38 281.12,-5.38"/>
<text text-anchor="start" x="288.12" y="-16.07" font-family="Times New Roman,serif" font-weight="bold" font-size="9.00">Normal</text>
<polygon fill="none" stroke="black" points="280.12,-4.38 280.12,-31.62 326.12,-31.62 326.12,-4.38 280.12,-4.38"/>
</g>
<!-- n_1_4&#45;&gt;n_1 -->
<g id="edge8" class="edge">
<title>n_1_4&#45;&gt;n_1</title>
<path fill="none" stroke="black" d="M316.44,-79.29C314.36,-69.87 311.7,-57.86 309.31,-47.04"/>
<polygon fill="black" stroke="black" points="312.77,-46.43 307.19,-37.42 305.93,-47.94 312.77,-46.43"/>
</g>
<!-- n_4 -->
<g id="node10" class="node">
<title>n_4</title>
<polygon fill="none" stroke="black" points="372.12,-5.38 372.12,-30.62 422.12,-30.62 422.12,-5.38 372.12,-5.38"/>
<text text-anchor="start" x="379.12" y="-16.07" font-family="Times New Roman,serif" font-weight="bold" font-size="9.00">Obesity I</text>
<polygon fill="none" stroke="black" points="371.12,-4.38 371.12,-31.62 423.12,-31.62 423.12,-4.38 371.12,-4.38"/>
</g>
<!-- n_1_4&#45;&gt;n_4 -->
<g id="edge9" class="edge">
<title>n_1_4&#45;&gt;n_4</title>
<path fill="none" stroke="black" d="M336.83,-79.29C347.15,-68.97 360.59,-55.53 372.16,-43.96"/>
<polygon fill="black" stroke="black" points="374.52,-46.56 379.11,-37.01 369.57,-41.61 374.52,-46.56"/>
</g>
</g>
</svg>
