<?xml version="1.0" encoding="UTF-8" standalone="no"?>
<!DOCTYPE svg PUBLIC "-//W3C//DTD SVG 1.1//EN"
 "http://www.w3.org/Graphics/SVG/1.1/DTD/svg11.dtd">
<!-- Generated by graphviz version 10.0.1 (20240210.2158)
 -->
<!-- Title: ND Pages: 1 -->
<svg width="670pt" height="517pt"
 viewBox="0.00 0.00 670.00 517.00" xmlns="http://www.w3.org/2000/svg" xmlns:xlink="http://www.w3.org/1999/xlink">
<g id="graph0" class="graph" transform="scale(1 1) rotate(0) translate(4 513)">
<title>ND</title>
<polygon fill="white" stroke="none" points="-4,4 -4,-513 666,-513 666,4 -4,4"/>
<!-- n_0_1_2_3_4_5_6 -->
<g id="node1" class="node">
<title>n_0_1_2_3_4_5_6</title>
<polygon fill="none" stroke="black" points="342.38,-445 342.38,-504 407.38,-504 407.38,-445 342.38,-445"/>
<text text-anchor="start" x="359.88" y="-489.45" font-family="Times New Roman,serif" font-weight="bold" font-size="9.00">Normal</text>
<text text-anchor="start" x="349.38" y="-480.45" font-family="Times New Roman,serif" font-weight="bold" font-size="9.00">Overweight I</text>
<text text-anchor="start" x="356.88" y="-471.45" font-family="Times New Roman,serif" font-weight="bold" font-size="9.00">Obesity I</text>
<text text-anchor="start" x="355.38" y="-462.45" font-family="Times New Roman,serif" font-weight="bold" font-size="9.00">Obesity II</text>
<text text-anchor="start" x="353.88" y="-453.45" font-family="Times New Roman,serif" font-weight="bold" font-size="9.00">Obesity III</text>
<polygon fill="none" stroke="black" points="407.38,-445 407.38,-504 495.62,-504 495.62,-445 407.38,-445"/>
<text text-anchor="start" x="414.38" y="-475.95" font-family="Times New Roman,serif" font-weight="bold" font-size="9.00">Insufficient weight</text>
<text text-anchor="start" x="424.5" y="-466.95" font-family="Times New Roman,serif" font-weight="bold" font-size="9.00">Overweight II</text>
<polygon fill="none" stroke="black" points="341.38,-444 341.38,-505 496.62,-505 496.62,-444 341.38,-444"/>
</g>
<!-- n_1_2_4_5_6 -->
<g id="node2" class="node">
<title>n_1_2_4_5_6</title>
<polygon fill="none" stroke="black" points="270.5,-342 270.5,-392 335.5,-392 335.5,-342 270.5,-342"/>
<text text-anchor="start" x="288" y="-377.45" font-family="Times New Roman,serif" font-weight="bold" font-size="9.00">Normal</text>
<text text-anchor="start" x="277.5" y="-368.45" font-family="Times New Roman,serif" font-weight="bold" font-size="9.00">Overweight I</text>
<text text-anchor="start" x="283.5" y="-359.45" font-family="Times New Roman,serif" font-weight="bold" font-size="9.00">Obesity II</text>
<text text-anchor="start" x="282" y="-350.45" font-family="Times New Roman,serif" font-weight="bold" font-size="9.00">Obesity III</text>
<polygon fill="none" stroke="black" points="335.5,-342 335.5,-392 385.5,-392 385.5,-342 335.5,-342"/>
<text text-anchor="start" x="342.5" y="-365.07" font-family="Times New Roman,serif" font-weight="bold" font-size="9.00">Obesity I</text>
<polygon fill="none" stroke="black" points="269.5,-341 269.5,-393 386.5,-393 386.5,-341 269.5,-341"/>
</g>
<!-- n_0_1_2_3_4_5_6&#45;&gt;n_1_2_4_5_6 -->
<g id="edge1" class="edge">
<title>n_0_1_2_3_4_5_6&#45;&gt;n_1_2_4_5_6</title>
<path fill="none" stroke="black" d="M390.21,-440.12C380.66,-429.05 369.98,-416.67 360.2,-405.33"/>
<polygon fill="black" stroke="black" points="363.1,-403.33 353.91,-398.04 357.8,-407.9 363.1,-403.33"/>
</g>
<!-- n_0_3 -->
<g id="node11" class="node">
<title>n_0_3</title>
<polygon fill="none" stroke="black" points="432.88,-354.38 432.88,-379.62 521.12,-379.62 521.12,-354.38 432.88,-354.38"/>
<text text-anchor="start" x="439.88" y="-365.07" font-family="Times New Roman,serif" font-weight="bold" font-size="9.00">Insufficient weight</text>
<polygon fill="none" stroke="black" points="521.12,-354.38 521.12,-379.62 589.12,-379.62 589.12,-354.38 521.12,-354.38"/>
<text text-anchor="start" x="528.12" y="-365.07" font-family="Times New Roman,serif" font-weight="bold" font-size="9.00">Overweight II</text>
<polygon fill="none" stroke="black" points="431.88,-353.38 431.88,-380.62 590.12,-380.62 590.12,-353.38 431.88,-353.38"/>
</g>
<!-- n_0_1_2_3_4_5_6&#45;&gt;n_0_3 -->
<g id="edge10" class="edge">
<title>n_0_1_2_3_4_5_6&#45;&gt;n_0_3</title>
<path fill="none" stroke="black" d="M448.11,-440.12C461.24,-425.06 476.5,-407.57 488.7,-393.58"/>
<polygon fill="black" stroke="black" points="491.29,-395.93 495.22,-386.09 486.01,-391.33 491.29,-395.93"/>
</g>
<!-- n_1_2_5_6 -->
<g id="node3" class="node">
<title>n_1_2_5_6</title>
<polygon fill="none" stroke="black" points="155,-248 155,-289 220,-289 220,-248 155,-248"/>
<text text-anchor="start" x="172.5" y="-274.45" font-family="Times New Roman,serif" font-weight="bold" font-size="9.00">Normal</text>
<text text-anchor="start" x="162" y="-265.45" font-family="Times New Roman,serif" font-weight="bold" font-size="9.00">Overweight I</text>
<text text-anchor="start" x="166.5" y="-256.45" font-family="Times New Roman,serif" font-weight="bold" font-size="9.00">Obesity III</text>
<polygon fill="none" stroke="black" points="220,-248 220,-289 273,-289 273,-248 220,-248"/>
<text text-anchor="start" x="227" y="-266.57" font-family="Times New Roman,serif" font-weight="bold" font-size="9.00">Obesity II</text>
<polygon fill="none" stroke="black" points="154,-247 154,-290 274,-290 274,-247 154,-247"/>
</g>
<!-- n_1_2_4_5_6&#45;&gt;n_1_2_5_6 -->
<g id="edge2" class="edge">
<title>n_1_2_4_5_6&#45;&gt;n_1_2_5_6</title>
<path fill="none" stroke="black" d="M293.8,-337.05C280.45,-325.75 265.12,-312.77 251.48,-301.22"/>
<polygon fill="black" stroke="black" points="253.84,-298.64 243.95,-294.85 249.32,-303.98 253.84,-298.64"/>
</g>
<!-- n_4 -->
<g id="node10" class="node">
<title>n_4</title>
<polygon fill="none" stroke="black" points="320,-255.88 320,-281.12 370,-281.12 370,-255.88 320,-255.88"/>
<text text-anchor="start" x="327" y="-266.57" font-family="Times New Roman,serif" font-weight="bold" font-size="9.00">Obesity I</text>
<polygon fill="none" stroke="black" points="319,-254.88 319,-282.12 371,-282.12 371,-254.88 319,-254.88"/>
</g>
<!-- n_1_2_4_5_6&#45;&gt;n_4 -->
<g id="edge9" class="edge">
<title>n_1_2_4_5_6&#45;&gt;n_4</title>
<path fill="none" stroke="black" d="M333.1,-337.05C335.31,-324.51 337.88,-309.89 340.07,-297.47"/>
<polygon fill="black" stroke="black" points="343.48,-298.31 341.77,-287.86 336.58,-297.1 343.48,-298.31"/>
</g>
<!-- n_1_2_6 -->
<g id="node4" class="node">
<title>n_1_2_6</title>
<polygon fill="none" stroke="black" points="86.5,-163 86.5,-195 151.5,-195 151.5,-163 86.5,-163"/>
<text text-anchor="start" x="104" y="-180.45" font-family="Times New Roman,serif" font-weight="bold" font-size="9.00">Normal</text>
<text text-anchor="start" x="93.5" y="-171.45" font-family="Times New Roman,serif" font-weight="bold" font-size="9.00">Overweight I</text>
<polygon fill="none" stroke="black" points="151.5,-163 151.5,-195 207.5,-195 207.5,-163 151.5,-163"/>
<text text-anchor="start" x="158.5" y="-177.07" font-family="Times New Roman,serif" font-weight="bold" font-size="9.00">Obesity III</text>
<polygon fill="none" stroke="black" points="85.5,-162 85.5,-196 208.5,-196 208.5,-162 85.5,-162"/>
</g>
<!-- n_1_2_5_6&#45;&gt;n_1_2_6 -->
<g id="edge3" class="edge">
<title>n_1_2_5_6&#45;&gt;n_1_2_6</title>
<path fill="none" stroke="black" d="M195.34,-243.13C187.17,-232.46 177.53,-219.87 169.01,-208.75"/>
<polygon fill="black" stroke="black" points="171.96,-206.84 163.1,-201.03 166.4,-211.1 171.96,-206.84"/>
</g>
<!-- n_5 -->
<g id="node9" class="node">
<title>n_5</title>
<polygon fill="none" stroke="black" points="254.5,-166.38 254.5,-191.62 307.5,-191.62 307.5,-166.38 254.5,-166.38"/>
<text text-anchor="start" x="261.5" y="-177.07" font-family="Times New Roman,serif" font-weight="bold" font-size="9.00">Obesity II</text>
<polygon fill="none" stroke="black" points="253.5,-165.38 253.5,-192.62 308.5,-192.62 308.5,-165.38 253.5,-165.38"/>
</g>
<!-- n_1_2_5_6&#45;&gt;n_5 -->
<g id="edge8" class="edge">
<title>n_1_2_5_6&#45;&gt;n_5</title>
<path fill="none" stroke="black" d="M232.66,-243.13C241.58,-231.48 252.27,-217.53 261.32,-205.71"/>
<polygon fill="black" stroke="black" points="263.94,-208.04 267.24,-197.97 258.38,-203.78 263.94,-208.04"/>
</g>
<!-- n_1_2 -->
<g id="node5" class="node">
<title>n_1_2</title>
<polygon fill="none" stroke="black" points="27.5,-84.38 27.5,-109.62 71.5,-109.62 71.5,-84.38 27.5,-84.38"/>
<text text-anchor="start" x="34.5" y="-95.08" font-family="Times New Roman,serif" font-weight="bold" font-size="9.00">Normal</text>
<polygon fill="none" stroke="black" points="71.5,-84.38 71.5,-109.62 136.5,-109.62 136.5,-84.38 71.5,-84.38"/>
<text text-anchor="start" x="78.5" y="-95.08" font-family="Times New Roman,serif" font-weight="bold" font-size="9.00">Overweight I</text>
<polygon fill="none" stroke="black" points="26.5,-83.38 26.5,-110.62 137.5,-110.62 137.5,-83.38 26.5,-83.38"/>
</g>
<!-- n_1_2_6&#45;&gt;n_1_2 -->
<g id="edge4" class="edge">
<title>n_1_2_6&#45;&gt;n_1_2</title>
<path fill="none" stroke="black" d="M130.93,-158.22C122.47,-147.81 112,-134.92 102.92,-123.74"/>
<polygon fill="black" stroke="black" points="105.66,-121.57 96.64,-116.02 100.23,-125.99 105.66,-121.57"/>
</g>
<!-- n_6 -->
<g id="node8" class="node">
<title>n_6</title>
<polygon fill="none" stroke="black" points="184,-84.38 184,-109.62 240,-109.62 240,-84.38 184,-84.38"/>
<text text-anchor="start" x="191" y="-95.08" font-family="Times New Roman,serif" font-weight="bold" font-size="9.00">Obesity III</text>
<polygon fill="none" stroke="black" points="183,-83.38 183,-110.62 241,-110.62 241,-83.38 183,-83.38"/>
</g>
<!-- n_1_2_6&#45;&gt;n_6 -->
<g id="edge7" class="edge">
<title>n_1_2_6&#45;&gt;n_6</title>
<path fill="none" stroke="black" d="M163.07,-158.22C171.53,-147.81 182,-134.92 191.08,-123.74"/>
<polygon fill="black" stroke="black" points="193.77,-125.99 197.36,-116.02 188.34,-121.57 193.77,-125.99"/>
</g>
<!-- n_1 -->
<g id="node6" class="node">
<title>n_1</title>
<polygon fill="none" stroke="black" points="9,-5.38 9,-30.62 53,-30.62 53,-5.38 9,-5.38"/>
<text text-anchor="start" x="16" y="-16.07" font-family="Times New Roman,serif" font-weight="bold" font-size="9.00">Normal</text>
<polygon fill="none" stroke="black" points="8,-4.38 8,-31.62 54,-31.62 54,-4.38 8,-4.38"/>
</g>
<!-- n_1_2&#45;&gt;n_1 -->
<g id="edge5" class="edge">
<title>n_1_2&#45;&gt;n_1</title>
<path fill="none" stroke="black" d="M70.93,-79.29C64.36,-69.37 55.89,-56.57 48.43,-45.32"/>
<polygon fill="black" stroke="black" points="51.5,-43.61 43.06,-37.2 45.66,-47.47 51.5,-43.61"/>
</g>
<!-- n_2 -->
<g id="node7" class="node">
<title>n_2</title>
<polygon fill="none" stroke="black" points="100.5,-5.38 100.5,-30.62 165.5,-30.62 165.5,-5.38 100.5,-5.38"/>
<text text-anchor="start" x="107.5" y="-16.07" font-family="Times New Roman,serif" font-weight="bold" font-size="9.00">Overweight I</text>
<polygon fill="none" stroke="black" points="99.5,-4.38 99.5,-31.62 166.5,-31.62 166.5,-4.38 99.5,-4.38"/>
</g>
<!-- n_1_2&#45;&gt;n_2 -->
<g id="edge6" class="edge">
<title>n_1_2&#45;&gt;n_2</title>
<path fill="none" stroke="black" d="M93.07,-79.29C99.64,-69.37 108.11,-56.57 115.57,-45.32"/>
<polygon fill="black" stroke="black" points="118.34,-47.47 120.94,-37.2 112.5,-43.61 118.34,-47.47"/>
</g>
<!-- n_0 -->
<g id="node12" class="node">
<title>n_0</title>
<polygon fill="none" stroke="black" points="449.88,-255.88 449.88,-281.12 538.12,-281.12 538.12,-255.88 449.88,-255.88"/>
<text text-anchor="start" x="456.88" y="-266.57" font-family="Times New Roman,serif" font-weight="bold" font-size="9.00">Insufficient weight</text>
<polygon fill="none" stroke="black" points="448.88,-254.88 448.88,-282.12 539.12,-282.12 539.12,-254.88 448.88,-254.88"/>
</g>
<!-- n_0_3&#45;&gt;n_0 -->
<g id="edge11" class="edge">
<title>n_0_3&#45;&gt;n_0</title>
<path fill="none" stroke="black" d="M508.04,-349.19C505.54,-335.03 501.92,-314.46 498.98,-297.76"/>
<polygon fill="black" stroke="black" points="502.43,-297.17 497.25,-287.93 495.53,-298.39 502.43,-297.17"/>
</g>
<!-- n_3 -->
<g id="node13" class="node">
<title>n_3</title>
<polygon fill="none" stroke="black" points="585,-255.88 585,-281.12 653,-281.12 653,-255.88 585,-255.88"/>
<text text-anchor="start" x="592" y="-266.57" font-family="Times New Roman,serif" font-weight="bold" font-size="9.00">Overweight II</text>
<polygon fill="none" stroke="black" points="584,-254.88 584,-282.12 654,-282.12 654,-254.88 584,-254.88"/>
</g>
<!-- n_0_3&#45;&gt;n_3 -->
<g id="edge12" class="edge">
<title>n_0_3&#45;&gt;n_3</title>
<path fill="none" stroke="black" d="M529.81,-349.19C546.9,-333.93 572.31,-311.22 591.64,-293.95"/>
<polygon fill="black" stroke="black" points="593.79,-296.72 598.91,-287.45 589.12,-291.5 593.79,-296.72"/>
</g>
</g>
</svg>
