<?xml version="1.0" encoding="UTF-8" standalone="no"?>
<!DOCTYPE svg PUBLIC "-//W3C//DTD SVG 1.1//EN"
 "http://www.w3.org/Graphics/SVG/1.1/DTD/svg11.dtd">
<!-- Generated by graphviz version 10.0.1 (20240210.2158)
 -->
<!-- Title: ND Pages: 1 -->
<svg width="565pt" height="638pt"
 viewBox="0.00 0.00 565.12 638.00" xmlns="http://www.w3.org/2000/svg" xmlns:xlink="http://www.w3.org/1999/xlink">
<g id="graph0" class="graph" transform="scale(1 1) rotate(0) translate(4 634)">
<title>ND</title>
<polygon fill="white" stroke="none" points="-4,4 -4,-634 561.12,-634 561.12,4 -4,4"/>
<!-- n_0_1_2_3_4_5_6 -->
<g id="node1" class="node">
<title>n_0_1_2_3_4_5_6</title>
<polygon fill="none" stroke="black" points="346.88,-557 346.88,-625 414.88,-625 414.88,-557 346.88,-557"/>
<text text-anchor="start" x="365.88" y="-610.45" font-family="Times New Roman,serif" font-weight="bold" font-size="9.00">Normal</text>
<text text-anchor="start" x="355.38" y="-601.45" font-family="Times New Roman,serif" font-weight="bold" font-size="9.00">Overweight I</text>
<text text-anchor="start" x="353.88" y="-592.45" font-family="Times New Roman,serif" font-weight="bold" font-size="9.00">Overweight II</text>
<text text-anchor="start" x="362.88" y="-583.45" font-family="Times New Roman,serif" font-weight="bold" font-size="9.00">Obesity I</text>
<text text-anchor="start" x="361.38" y="-574.45" font-family="Times New Roman,serif" font-weight="bold" font-size="9.00">Obesity II</text>
<text text-anchor="start" x="359.88" y="-565.45" font-family="Times New Roman,serif" font-weight="bold" font-size="9.00">Obesity III</text>
<polygon fill="none" stroke="black" points="414.88,-557 414.88,-625 503.12,-625 503.12,-557 414.88,-557"/>
<text text-anchor="start" x="421.88" y="-589.08" font-family="Times New Roman,serif" font-weight="bold" font-size="9.00">Insufficient weight</text>
<polygon fill="none" stroke="black" points="345.88,-556 345.88,-626 504.12,-626 504.12,-556 345.88,-556"/>
</g>
<!-- n_1_2_3_4_5_6 -->
<g id="node2" class="node">
<title>n_1_2_3_4_5_6</title>
<polygon fill="none" stroke="black" points="279.5,-445 279.5,-504 347.5,-504 347.5,-445 279.5,-445"/>
<text text-anchor="start" x="298.5" y="-489.45" font-family="Times New Roman,serif" font-weight="bold" font-size="9.00">Normal</text>
<text text-anchor="start" x="286.5" y="-480.45" font-family="Times New Roman,serif" font-weight="bold" font-size="9.00">Overweight II</text>
<text text-anchor="start" x="295.5" y="-471.45" font-family="Times New Roman,serif" font-weight="bold" font-size="9.00">Obesity I</text>
<text text-anchor="start" x="294" y="-462.45" font-family="Times New Roman,serif" font-weight="bold" font-size="9.00">Obesity II</text>
<text text-anchor="start" x="292.5" y="-453.45" font-family="Times New Roman,serif" font-weight="bold" font-size="9.00">Obesity III</text>
<polygon fill="none" stroke="black" points="347.5,-445 347.5,-504 412.5,-504 412.5,-445 347.5,-445"/>
<text text-anchor="start" x="354.5" y="-472.57" font-family="Times New Roman,serif" font-weight="bold" font-size="9.00">Overweight I</text>
<polygon fill="none" stroke="black" points="278.5,-444 278.5,-505 413.5,-505 413.5,-444 278.5,-444"/>
</g>
<!-- n_0_1_2_3_4_5_6&#45;&gt;n_1_2_3_4_5_6 -->
<g id="edge1" class="edge">
<title>n_0_1_2_3_4_5_6&#45;&gt;n_1_2_3_4_5_6</title>
<path fill="none" stroke="black" d="M398.91,-552.19C391.33,-541.2 383,-529.12 375.23,-517.87"/>
<polygon fill="black" stroke="black" points="378.29,-516.14 369.73,-509.9 372.53,-520.12 378.29,-516.14"/>
</g>
<!-- n_0 -->
<g id="node13" class="node">
<title>n_0</title>
<polygon fill="none" stroke="black" points="459.88,-461.88 459.88,-487.12 548.12,-487.12 548.12,-461.88 459.88,-461.88"/>
<text text-anchor="start" x="466.88" y="-472.57" font-family="Times New Roman,serif" font-weight="bold" font-size="9.00">Insufficient weight</text>
<polygon fill="none" stroke="black" points="458.88,-460.88 458.88,-488.12 549.12,-488.12 549.12,-460.88 458.88,-460.88"/>
</g>
<!-- n_0_1_2_3_4_5_6&#45;&gt;n_0 -->
<g id="edge12" class="edge">
<title>n_0_1_2_3_4_5_6&#45;&gt;n_0</title>
<path fill="none" stroke="black" d="M451.09,-552.19C462.52,-535.63 475.64,-516.6 485.97,-501.64"/>
<polygon fill="black" stroke="black" points="488.64,-503.93 491.44,-493.71 482.88,-499.95 488.64,-503.93"/>
</g>
<!-- n_1_3_4_5_6 -->
<g id="node3" class="node">
<title>n_1_3_4_5_6</title>
<polygon fill="none" stroke="black" points="213,-342 213,-392 269,-392 269,-342 213,-342"/>
<text text-anchor="start" x="226" y="-377.45" font-family="Times New Roman,serif" font-weight="bold" font-size="9.00">Normal</text>
<text text-anchor="start" x="223" y="-368.45" font-family="Times New Roman,serif" font-weight="bold" font-size="9.00">Obesity I</text>
<text text-anchor="start" x="221.5" y="-359.45" font-family="Times New Roman,serif" font-weight="bold" font-size="9.00">Obesity II</text>
<text text-anchor="start" x="220" y="-350.45" font-family="Times New Roman,serif" font-weight="bold" font-size="9.00">Obesity III</text>
<polygon fill="none" stroke="black" points="269,-342 269,-392 337,-392 337,-342 269,-342"/>
<text text-anchor="start" x="276" y="-365.07" font-family="Times New Roman,serif" font-weight="bold" font-size="9.00">Overweight II</text>
<polygon fill="none" stroke="black" points="212,-341 212,-393 338,-393 338,-341 212,-341"/>
</g>
<!-- n_1_2_3_4_5_6&#45;&gt;n_1_3_4_5_6 -->
<g id="edge2" class="edge">
<title>n_1_2_3_4_5_6&#45;&gt;n_1_3_4_5_6</title>
<path fill="none" stroke="black" d="M323.54,-440.12C316.31,-429.38 308.24,-417.4 300.8,-406.33"/>
<polygon fill="black" stroke="black" points="303.78,-404.5 295.29,-398.15 297.97,-408.4 303.78,-404.5"/>
</g>
<!-- n_2 -->
<g id="node12" class="node">
<title>n_2</title>
<polygon fill="none" stroke="black" points="384.5,-354.38 384.5,-379.62 449.5,-379.62 449.5,-354.38 384.5,-354.38"/>
<text text-anchor="start" x="391.5" y="-365.07" font-family="Times New Roman,serif" font-weight="bold" font-size="9.00">Overweight I</text>
<polygon fill="none" stroke="black" points="383.5,-353.38 383.5,-380.62 450.5,-380.62 450.5,-353.38 383.5,-353.38"/>
</g>
<!-- n_1_2_3_4_5_6&#45;&gt;n_2 -->
<g id="edge11" class="edge">
<title>n_1_2_3_4_5_6&#45;&gt;n_2</title>
<path fill="none" stroke="black" d="M368.46,-440.12C378.4,-425.35 389.92,-408.23 399.25,-394.38"/>
<polygon fill="black" stroke="black" points="402.07,-396.46 404.75,-386.21 396.26,-392.55 402.07,-396.46"/>
</g>
<!-- n_1_4_5_6 -->
<g id="node4" class="node">
<title>n_1_4_5_6</title>
<polygon fill="none" stroke="black" points="152.5,-248 152.5,-289 208.5,-289 208.5,-248 152.5,-248"/>
<text text-anchor="start" x="165.5" y="-274.45" font-family="Times New Roman,serif" font-weight="bold" font-size="9.00">Normal</text>
<text text-anchor="start" x="162.5" y="-265.45" font-family="Times New Roman,serif" font-weight="bold" font-size="9.00">Obesity I</text>
<text text-anchor="start" x="159.5" y="-256.45" font-family="Times New Roman,serif" font-weight="bold" font-size="9.00">Obesity III</text>
<polygon fill="none" stroke="black" points="208.5,-248 208.5,-289 261.5,-289 261.5,-248 208.5,-248"/>
<text text-anchor="start" x="215.5" y="-266.57" font-family="Times New Roman,serif" font-weight="bold" font-size="9.00">Obesity II</text>
<polygon fill="none" stroke="black" points="151.5,-247 151.5,-290 262.5,-290 262.5,-247 151.5,-247"/>
</g>
<!-- n_1_3_4_5_6&#45;&gt;n_1_4_5_6 -->
<g id="edge3" class="edge">
<title>n_1_3_4_5_6&#45;&gt;n_1_4_5_6</title>
<path fill="none" stroke="black" d="M254.6,-337.05C247.09,-326.4 238.53,-314.25 230.76,-303.22"/>
<polygon fill="black" stroke="black" points="233.67,-301.27 225.05,-295.11 227.95,-305.3 233.67,-301.27"/>
</g>
<!-- n_3 -->
<g id="node11" class="node">
<title>n_3</title>
<polygon fill="none" stroke="black" points="309,-255.88 309,-281.12 377,-281.12 377,-255.88 309,-255.88"/>
<text text-anchor="start" x="316" y="-266.57" font-family="Times New Roman,serif" font-weight="bold" font-size="9.00">Overweight II</text>
<polygon fill="none" stroke="black" points="308,-254.88 308,-282.12 378,-282.12 378,-254.88 308,-254.88"/>
</g>
<!-- n_1_3_4_5_6&#45;&gt;n_3 -->
<g id="edge10" class="edge">
<title>n_1_3_4_5_6&#45;&gt;n_3</title>
<path fill="none" stroke="black" d="M295.4,-337.05C304.69,-323.86 315.6,-308.38 324.63,-295.56"/>
<polygon fill="black" stroke="black" points="327.34,-297.79 330.24,-287.6 321.62,-293.76 327.34,-297.79"/>
</g>
<!-- n_1_4_6 -->
<g id="node5" class="node">
<title>n_1_4_6</title>
<polygon fill="none" stroke="black" points="95,-163 95,-195 151,-195 151,-163 95,-163"/>
<text text-anchor="start" x="105" y="-180.45" font-family="Times New Roman,serif" font-weight="bold" font-size="9.00">Obesity I</text>
<text text-anchor="start" x="102" y="-171.45" font-family="Times New Roman,serif" font-weight="bold" font-size="9.00">Obesity III</text>
<polygon fill="none" stroke="black" points="151,-163 151,-195 195,-195 195,-163 151,-163"/>
<text text-anchor="start" x="158" y="-177.07" font-family="Times New Roman,serif" font-weight="bold" font-size="9.00">Normal</text>
<polygon fill="none" stroke="black" points="94,-162 94,-196 196,-196 196,-162 94,-162"/>
</g>
<!-- n_1_4_5_6&#45;&gt;n_1_4_6 -->
<g id="edge4" class="edge">
<title>n_1_4_5_6&#45;&gt;n_1_4_6</title>
<path fill="none" stroke="black" d="M189.73,-243.13C182.25,-232.57 173.43,-220.12 165.61,-209.08"/>
<polygon fill="black" stroke="black" points="168.56,-207.2 159.92,-201.06 162.85,-211.24 168.56,-207.2"/>
</g>
<!-- n_5 -->
<g id="node10" class="node">
<title>n_5</title>
<polygon fill="none" stroke="black" points="242.5,-166.38 242.5,-191.62 295.5,-191.62 295.5,-166.38 242.5,-166.38"/>
<text text-anchor="start" x="249.5" y="-177.07" font-family="Times New Roman,serif" font-weight="bold" font-size="9.00">Obesity II</text>
<polygon fill="none" stroke="black" points="241.5,-165.38 241.5,-192.62 296.5,-192.62 296.5,-165.38 241.5,-165.38"/>
</g>
<!-- n_1_4_5_6&#45;&gt;n_5 -->
<g id="edge9" class="edge">
<title>n_1_4_5_6&#45;&gt;n_5</title>
<path fill="none" stroke="black" d="M224.27,-243.13C232.44,-231.59 242.21,-217.8 250.53,-206.06"/>
<polygon fill="black" stroke="black" points="253.32,-208.19 256.24,-198.01 247.6,-204.14 253.32,-208.19"/>
</g>
<!-- n_4_6 -->
<g id="node6" class="node">
<title>n_4_6</title>
<polygon fill="none" stroke="black" points="31,-84.38 31,-109.62 81,-109.62 81,-84.38 31,-84.38"/>
<text text-anchor="start" x="38" y="-95.08" font-family="Times New Roman,serif" font-weight="bold" font-size="9.00">Obesity I</text>
<polygon fill="none" stroke="black" points="81,-84.38 81,-109.62 137,-109.62 137,-84.38 81,-84.38"/>
<text text-anchor="start" x="88" y="-95.08" font-family="Times New Roman,serif" font-weight="bold" font-size="9.00">Obesity III</text>
<polygon fill="none" stroke="black" points="30,-83.38 30,-110.62 138,-110.62 138,-83.38 30,-83.38"/>
</g>
<!-- n_1_4_6&#45;&gt;n_4_6 -->
<g id="edge5" class="edge">
<title>n_1_4_6&#45;&gt;n_4_6</title>
<path fill="none" stroke="black" d="M129.92,-158.22C121.98,-147.81 112.15,-134.92 103.63,-123.74"/>
<polygon fill="black" stroke="black" points="106.61,-121.88 97.76,-116.05 101.04,-126.12 106.61,-121.88"/>
</g>
<!-- n_1 -->
<g id="node9" class="node">
<title>n_1</title>
<polygon fill="none" stroke="black" points="184,-84.38 184,-109.62 228,-109.62 228,-84.38 184,-84.38"/>
<text text-anchor="start" x="191" y="-95.08" font-family="Times New Roman,serif" font-weight="bold" font-size="9.00">Normal</text>
<polygon fill="none" stroke="black" points="183,-83.38 183,-110.62 229,-110.62 229,-83.38 183,-83.38"/>
</g>
<!-- n_1_4_6&#45;&gt;n_1 -->
<g id="edge8" class="edge">
<title>n_1_4_6&#45;&gt;n_1</title>
<path fill="none" stroke="black" d="M160.08,-158.22C168.02,-147.81 177.85,-134.92 186.37,-123.74"/>
<polygon fill="black" stroke="black" points="188.96,-126.12 192.24,-116.05 183.39,-121.88 188.96,-126.12"/>
</g>
<!-- n_4 -->
<g id="node7" class="node">
<title>n_4</title>
<polygon fill="none" stroke="black" points="9,-5.38 9,-30.62 59,-30.62 59,-5.38 9,-5.38"/>
<text text-anchor="start" x="16" y="-16.07" font-family="Times New Roman,serif" font-weight="bold" font-size="9.00">Obesity I</text>
<polygon fill="none" stroke="black" points="8,-4.38 8,-31.62 60,-31.62 60,-4.38 8,-4.38"/>
</g>
<!-- n_4_6&#45;&gt;n_4 -->
<g id="edge6" class="edge">
<title>n_4_6&#45;&gt;n_4</title>
<path fill="none" stroke="black" d="M73.15,-79.29C66.71,-69.37 58.4,-56.57 51.09,-45.32"/>
<polygon fill="black" stroke="black" points="54.21,-43.69 45.83,-37.21 48.34,-47.5 54.21,-43.69"/>
</g>
<!-- n_6 -->
<g id="node8" class="node">
<title>n_6</title>
<polygon fill="none" stroke="black" points="106,-5.38 106,-30.62 162,-30.62 162,-5.38 106,-5.38"/>
<text text-anchor="start" x="113" y="-16.07" font-family="Times New Roman,serif" font-weight="bold" font-size="9.00">Obesity III</text>
<polygon fill="none" stroke="black" points="105,-4.38 105,-31.62 163,-31.62 163,-4.38 105,-4.38"/>
</g>
<!-- n_4_6&#45;&gt;n_6 -->
<g id="edge7" class="edge">
<title>n_4_6&#45;&gt;n_6</title>
<path fill="none" stroke="black" d="M94.85,-79.29C101.29,-69.37 109.6,-56.57 116.91,-45.32"/>
<polygon fill="black" stroke="black" points="119.66,-47.5 122.17,-37.21 113.79,-43.69 119.66,-47.5"/>
</g>
</g>
</svg>
