<?xml version="1.0" encoding="UTF-8" standalone="no"?>
<!DOCTYPE svg PUBLIC "-//W3C//DTD SVG 1.1//EN"
 "http://www.w3.org/Graphics/SVG/1.1/DTD/svg11.dtd">
<!-- Generated by graphviz version 10.0.1 (20240210.2158)
 -->
<!-- Title: ND Pages: 1 -->
<svg width="608pt" height="405pt"
 viewBox="0.00 0.00 608.00 405.00" xmlns="http://www.w3.org/2000/svg" xmlns:xlink="http://www.w3.org/1999/xlink">
<g id="graph0" class="graph" transform="scale(1 1) rotate(0) translate(4 401)">
<title>ND</title>
<polygon fill="white" stroke="none" points="-4,4 -4,-401 604,-401 604,4 -4,4"/>
<!-- n_0_1_2_3_4_5_6 -->
<g id="node1" class="node">
<title>n_0_1_2_3_4_5_6</title>
<polygon fill="none" stroke="black" points="271.88,-342 271.88,-392 360.12,-392 360.12,-342 271.88,-342"/>
<text text-anchor="start" x="278.88" y="-377.45" font-family="Times New Roman,serif" font-weight="bold" font-size="9.00">Insufficient weight</text>
<text text-anchor="start" x="301" y="-368.45" font-family="Times New Roman,serif" font-weight="bold" font-size="9.00">Normal</text>
<text text-anchor="start" x="290.5" y="-359.45" font-family="Times New Roman,serif" font-weight="bold" font-size="9.00">Overweight I</text>
<text text-anchor="start" x="296.5" y="-350.45" font-family="Times New Roman,serif" font-weight="bold" font-size="9.00">Obesity II</text>
<polygon fill="none" stroke="black" points="360.12,-342 360.12,-392 428.12,-392 428.12,-342 360.12,-342"/>
<text text-anchor="start" x="367.12" y="-372.95" font-family="Times New Roman,serif" font-weight="bold" font-size="9.00">Overweight II</text>
<text text-anchor="start" x="376.12" y="-363.95" font-family="Times New Roman,serif" font-weight="bold" font-size="9.00">Obesity I</text>
<text text-anchor="start" x="373.12" y="-354.95" font-family="Times New Roman,serif" font-weight="bold" font-size="9.00">Obesity III</text>
<polygon fill="none" stroke="black" points="270.88,-341 270.88,-393 429.12,-393 429.12,-341 270.88,-341"/>
</g>
<!-- n_0_1_2_5 -->
<g id="node2" class="node">
<title>n_0_1_2_5</title>
<polygon fill="none" stroke="black" points="182.38,-248 182.38,-289 270.62,-289 270.62,-248 182.38,-248"/>
<text text-anchor="start" x="189.38" y="-274.45" font-family="Times New Roman,serif" font-weight="bold" font-size="9.00">Insufficient weight</text>
<text text-anchor="start" x="211.5" y="-265.45" font-family="Times New Roman,serif" font-weight="bold" font-size="9.00">Normal</text>
<text text-anchor="start" x="207" y="-256.45" font-family="Times New Roman,serif" font-weight="bold" font-size="9.00">Obesity II</text>
<polygon fill="none" stroke="black" points="270.62,-248 270.62,-289 335.62,-289 335.62,-248 270.62,-248"/>
<text text-anchor="start" x="277.62" y="-266.57" font-family="Times New Roman,serif" font-weight="bold" font-size="9.00">Overweight I</text>
<polygon fill="none" stroke="black" points="181.38,-247 181.38,-290 336.62,-290 336.62,-247 181.38,-247"/>
</g>
<!-- n_0_1_2_3_4_5_6&#45;&gt;n_0_1_2_5 -->
<g id="edge1" class="edge">
<title>n_0_1_2_3_4_5_6&#45;&gt;n_0_1_2_5</title>
<path fill="none" stroke="black" d="M322.7,-337.05C312.35,-326.08 300.5,-313.51 289.85,-302.22"/>
<polygon fill="black" stroke="black" points="292.43,-299.85 283.02,-294.98 287.34,-304.65 292.43,-299.85"/>
</g>
<!-- n_3_4_6 -->
<g id="node9" class="node">
<title>n_3_4_6</title>
<polygon fill="none" stroke="black" points="383,-252.5 383,-284.5 451,-284.5 451,-252.5 383,-252.5"/>
<text text-anchor="start" x="390" y="-269.95" font-family="Times New Roman,serif" font-weight="bold" font-size="9.00">Overweight II</text>
<text text-anchor="start" x="396" y="-260.95" font-family="Times New Roman,serif" font-weight="bold" font-size="9.00">Obesity III</text>
<polygon fill="none" stroke="black" points="451,-252.5 451,-284.5 501,-284.5 501,-252.5 451,-252.5"/>
<text text-anchor="start" x="458" y="-266.57" font-family="Times New Roman,serif" font-weight="bold" font-size="9.00">Obesity I</text>
<polygon fill="none" stroke="black" points="382,-251.5 382,-285.5 502,-285.5 502,-251.5 382,-251.5"/>
</g>
<!-- n_0_1_2_3_4_5_6&#45;&gt;n_3_4_6 -->
<g id="edge8" class="edge">
<title>n_0_1_2_3_4_5_6&#45;&gt;n_3_4_6</title>
<path fill="none" stroke="black" d="M377.6,-337.05C389.56,-324.51 403.5,-309.89 415.35,-297.46"/>
<polygon fill="black" stroke="black" points="417.75,-300.01 422.12,-290.35 412.68,-295.18 417.75,-300.01"/>
</g>
<!-- n_0_1_5 -->
<g id="node3" class="node">
<title>n_0_1_5</title>
<polygon fill="none" stroke="black" points="49.38,-163 49.38,-195 102.38,-195 102.38,-163 49.38,-163"/>
<text text-anchor="start" x="60.88" y="-180.45" font-family="Times New Roman,serif" font-weight="bold" font-size="9.00">Normal</text>
<text text-anchor="start" x="56.38" y="-171.45" font-family="Times New Roman,serif" font-weight="bold" font-size="9.00">Obesity II</text>
<polygon fill="none" stroke="black" points="102.38,-163 102.38,-195 190.62,-195 190.62,-163 102.38,-163"/>
<text text-anchor="start" x="109.38" y="-177.07" font-family="Times New Roman,serif" font-weight="bold" font-size="9.00">Insufficient weight</text>
<polygon fill="none" stroke="black" points="48.38,-162 48.38,-196 191.62,-196 191.62,-162 48.38,-162"/>
</g>
<!-- n_0_1_2_5&#45;&gt;n_0_1_5 -->
<g id="edge2" class="edge">
<title>n_0_1_2_5&#45;&gt;n_0_1_5</title>
<path fill="none" stroke="black" d="M220.28,-243.13C201.9,-231.55 179.91,-217.71 161.22,-205.94"/>
<polygon fill="black" stroke="black" points="163.1,-203 152.78,-200.63 159.37,-208.92 163.1,-203"/>
</g>
<!-- n_2 -->
<g id="node8" class="node">
<title>n_2</title>
<polygon fill="none" stroke="black" points="237.5,-166.38 237.5,-191.62 302.5,-191.62 302.5,-166.38 237.5,-166.38"/>
<text text-anchor="start" x="244.5" y="-177.07" font-family="Times New Roman,serif" font-weight="bold" font-size="9.00">Overweight I</text>
<polygon fill="none" stroke="black" points="236.5,-165.38 236.5,-192.62 303.5,-192.62 303.5,-165.38 236.5,-165.38"/>
</g>
<!-- n_0_1_2_5&#45;&gt;n_2 -->
<g id="edge7" class="edge">
<title>n_0_1_2_5&#45;&gt;n_2</title>
<path fill="none" stroke="black" d="M262.06,-243.13C263.44,-232.17 265.08,-219.18 266.5,-207.84"/>
<polygon fill="black" stroke="black" points="269.93,-208.63 267.7,-198.27 262.98,-207.76 269.93,-208.63"/>
</g>
<!-- n_1_5 -->
<g id="node4" class="node">
<title>n_1_5</title>
<polygon fill="none" stroke="black" points="30.5,-84.38 30.5,-109.62 74.5,-109.62 74.5,-84.38 30.5,-84.38"/>
<text text-anchor="start" x="37.5" y="-95.08" font-family="Times New Roman,serif" font-weight="bold" font-size="9.00">Normal</text>
<polygon fill="none" stroke="black" points="74.5,-84.38 74.5,-109.62 127.5,-109.62 127.5,-84.38 74.5,-84.38"/>
<text text-anchor="start" x="81.5" y="-95.08" font-family="Times New Roman,serif" font-weight="bold" font-size="9.00">Obesity II</text>
<polygon fill="none" stroke="black" points="29.5,-83.38 29.5,-110.62 128.5,-110.62 128.5,-83.38 29.5,-83.38"/>
</g>
<!-- n_0_1_5&#45;&gt;n_1_5 -->
<g id="edge3" class="edge">
<title>n_0_1_5&#45;&gt;n_1_5</title>
<path fill="none" stroke="black" d="M109.87,-158.22C104.69,-148.13 98.32,-135.69 92.71,-124.75"/>
<polygon fill="black" stroke="black" points="96,-123.49 88.32,-116.19 89.77,-126.69 96,-123.49"/>
</g>
<!-- n_0 -->
<g id="node7" class="node">
<title>n_0</title>
<polygon fill="none" stroke="black" points="174.88,-84.38 174.88,-109.62 263.12,-109.62 263.12,-84.38 174.88,-84.38"/>
<text text-anchor="start" x="181.88" y="-95.08" font-family="Times New Roman,serif" font-weight="bold" font-size="9.00">Insufficient weight</text>
<polygon fill="none" stroke="black" points="173.88,-83.38 173.88,-110.62 264.12,-110.62 264.12,-83.38 173.88,-83.38"/>
</g>
<!-- n_0_1_5&#45;&gt;n_0 -->
<g id="edge6" class="edge">
<title>n_0_1_5&#45;&gt;n_0</title>
<path fill="none" stroke="black" d="M144.73,-158.02C158.26,-147.09 175.11,-133.46 189.35,-121.96"/>
<polygon fill="black" stroke="black" points="191.51,-124.72 197.08,-115.71 187.11,-119.27 191.51,-124.72"/>
</g>
<!-- n_1 -->
<g id="node5" class="node">
<title>n_1</title>
<polygon fill="none" stroke="black" points="9,-5.38 9,-30.62 53,-30.62 53,-5.38 9,-5.38"/>
<text text-anchor="start" x="16" y="-16.07" font-family="Times New Roman,serif" font-weight="bold" font-size="9.00">Normal</text>
<polygon fill="none" stroke="black" points="8,-4.38 8,-31.62 54,-31.62 54,-4.38 8,-4.38"/>
</g>
<!-- n_1_5&#45;&gt;n_1 -->
<g id="edge4" class="edge">
<title>n_1_5&#45;&gt;n_1</title>
<path fill="none" stroke="black" d="M68.58,-79.29C62.46,-69.47 54.58,-56.83 47.62,-45.66"/>
<polygon fill="black" stroke="black" points="50.62,-43.86 42.36,-37.23 44.68,-47.56 50.62,-43.86"/>
</g>
<!-- n_5 -->
<g id="node6" class="node">
<title>n_5</title>
<polygon fill="none" stroke="black" points="100.5,-5.38 100.5,-30.62 153.5,-30.62 153.5,-5.38 100.5,-5.38"/>
<text text-anchor="start" x="107.5" y="-16.07" font-family="Times New Roman,serif" font-weight="bold" font-size="9.00">Obesity II</text>
<polygon fill="none" stroke="black" points="99.5,-4.38 99.5,-31.62 154.5,-31.62 154.5,-4.38 99.5,-4.38"/>
</g>
<!-- n_1_5&#45;&gt;n_5 -->
<g id="edge5" class="edge">
<title>n_1_5&#45;&gt;n_5</title>
<path fill="none" stroke="black" d="M89.42,-79.29C95.54,-69.47 103.42,-56.83 110.38,-45.66"/>
<polygon fill="black" stroke="black" points="113.32,-47.56 115.64,-37.23 107.38,-43.86 113.32,-47.56"/>
</g>
<!-- n_3_6 -->
<g id="node10" class="node">
<title>n_3_6</title>
<polygon fill="none" stroke="black" points="370,-166.38 370,-191.62 438,-191.62 438,-166.38 370,-166.38"/>
<text text-anchor="start" x="377" y="-177.07" font-family="Times New Roman,serif" font-weight="bold" font-size="9.00">Overweight II</text>
<polygon fill="none" stroke="black" points="438,-166.38 438,-191.62 494,-191.62 494,-166.38 438,-166.38"/>
<text text-anchor="start" x="445" y="-177.07" font-family="Times New Roman,serif" font-weight="bold" font-size="9.00">Obesity III</text>
<polygon fill="none" stroke="black" points="369,-165.38 369,-192.62 495,-192.62 495,-165.38 369,-165.38"/>
</g>
<!-- n_3_4_6&#45;&gt;n_3_6 -->
<g id="edge9" class="edge">
<title>n_3_4_6&#45;&gt;n_3_6</title>
<path fill="none" stroke="black" d="M439.73,-247.64C438.39,-235.91 436.67,-220.86 435.19,-207.94"/>
<polygon fill="black" stroke="black" points="438.71,-207.87 434.1,-198.34 431.75,-208.67 438.71,-207.87"/>
</g>
<!-- n_4 -->
<g id="node13" class="node">
<title>n_4</title>
<polygon fill="none" stroke="black" points="541,-166.38 541,-191.62 591,-191.62 591,-166.38 541,-166.38"/>
<text text-anchor="start" x="548" y="-177.07" font-family="Times New Roman,serif" font-weight="bold" font-size="9.00">Obesity I</text>
<polygon fill="none" stroke="black" points="540,-165.38 540,-192.62 592,-192.62 592,-165.38 540,-165.38"/>
</g>
<!-- n_3_4_6&#45;&gt;n_4 -->
<g id="edge12" class="edge">
<title>n_3_4_6&#45;&gt;n_4</title>
<path fill="none" stroke="black" d="M470.14,-247.64C488.81,-234.47 513.38,-217.13 532.98,-203.3"/>
<polygon fill="black" stroke="black" points="534.76,-206.33 540.91,-197.7 530.72,-200.61 534.76,-206.33"/>
</g>
<!-- n_3 -->
<g id="node11" class="node">
<title>n_3</title>
<polygon fill="none" stroke="black" points="354,-84.38 354,-109.62 422,-109.62 422,-84.38 354,-84.38"/>
<text text-anchor="start" x="361" y="-95.08" font-family="Times New Roman,serif" font-weight="bold" font-size="9.00">Overweight II</text>
<polygon fill="none" stroke="black" points="353,-83.38 353,-110.62 423,-110.62 423,-83.38 353,-83.38"/>
</g>
<!-- n_3_6&#45;&gt;n_3 -->
<g id="edge10" class="edge">
<title>n_3_6&#45;&gt;n_3</title>
<path fill="none" stroke="black" d="M422.67,-161.03C416.89,-150.53 409.35,-136.82 402.78,-124.87"/>
<polygon fill="black" stroke="black" points="405.93,-123.34 398.05,-116.27 399.8,-126.72 405.93,-123.34"/>
</g>
<!-- n_6 -->
<g id="node12" class="node">
<title>n_6</title>
<polygon fill="none" stroke="black" points="469,-84.38 469,-109.62 525,-109.62 525,-84.38 469,-84.38"/>
<text text-anchor="start" x="476" y="-95.08" font-family="Times New Roman,serif" font-weight="bold" font-size="9.00">Obesity III</text>
<polygon fill="none" stroke="black" points="468,-83.38 468,-110.62 526,-110.62 526,-83.38 468,-83.38"/>
</g>
<!-- n_3_6&#45;&gt;n_6 -->
<g id="edge11" class="edge">
<title>n_3_6&#45;&gt;n_6</title>
<path fill="none" stroke="black" d="M445.78,-161.03C454.57,-150.22 466.14,-135.99 476.05,-123.79"/>
<polygon fill="black" stroke="black" points="478.69,-126.08 482.28,-116.12 473.26,-121.67 478.69,-126.08"/>
</g>
</g>
</svg>
