<?xml version="1.0" encoding="UTF-8" standalone="no"?>
<!DOCTYPE svg PUBLIC "-//W3C//DTD SVG 1.1//EN"
 "http://www.w3.org/Graphics/SVG/1.1/DTD/svg11.dtd">
<!-- Generated by graphviz version 10.0.1 (20240210.2158)
 -->
<!-- Title: ND Pages: 1 -->
<svg width="719pt" height="414pt"
 viewBox="0.00 0.00 718.62 414.00" xmlns="http://www.w3.org/2000/svg" xmlns:xlink="http://www.w3.org/1999/xlink">
<g id="graph0" class="graph" transform="scale(1 1) rotate(0) translate(4 410)">
<title>ND</title>
<polygon fill="white" stroke="none" points="-4,4 -4,-410 714.62,-410 714.62,4 -4,4"/>
<!-- n_0_1_2_3_4_5_6 -->
<g id="node1" class="node">
<title>n_0_1_2_3_4_5_6</title>
<polygon fill="none" stroke="black" points="431.5,-342 431.5,-401 519.75,-401 519.75,-342 431.5,-342"/>
<text text-anchor="start" x="438.5" y="-386.45" font-family="Times New Roman,serif" font-weight="bold" font-size="9.00">Insufficient weight</text>
<text text-anchor="start" x="460.62" y="-377.45" font-family="Times New Roman,serif" font-weight="bold" font-size="9.00">Normal</text>
<text text-anchor="start" x="450.12" y="-368.45" font-family="Times New Roman,serif" font-weight="bold" font-size="9.00">Overweight I</text>
<text text-anchor="start" x="448.62" y="-359.45" font-family="Times New Roman,serif" font-weight="bold" font-size="9.00">Overweight II</text>
<text text-anchor="start" x="454.62" y="-350.45" font-family="Times New Roman,serif" font-weight="bold" font-size="9.00">Obesity III</text>
<polygon fill="none" stroke="black" points="519.75,-342 519.75,-401 572.75,-401 572.75,-342 519.75,-342"/>
<text text-anchor="start" x="528.25" y="-372.95" font-family="Times New Roman,serif" font-weight="bold" font-size="9.00">Obesity I</text>
<text text-anchor="start" x="526.75" y="-363.95" font-family="Times New Roman,serif" font-weight="bold" font-size="9.00">Obesity II</text>
<polygon fill="none" stroke="black" points="430.5,-341 430.5,-402 573.75,-402 573.75,-341 430.5,-341"/>
</g>
<!-- n_0_1_2_3_6 -->
<g id="node2" class="node">
<title>n_0_1_2_3_6</title>
<polygon fill="none" stroke="black" points="345,-248 345,-289 433.25,-289 433.25,-248 345,-248"/>
<text text-anchor="start" x="352" y="-274.45" font-family="Times New Roman,serif" font-weight="bold" font-size="9.00">Insufficient weight</text>
<text text-anchor="start" x="363.62" y="-265.45" font-family="Times New Roman,serif" font-weight="bold" font-size="9.00">Overweight I</text>
<text text-anchor="start" x="362.12" y="-256.45" font-family="Times New Roman,serif" font-weight="bold" font-size="9.00">Overweight II</text>
<polygon fill="none" stroke="black" points="433.25,-248 433.25,-289 489.25,-289 489.25,-248 433.25,-248"/>
<text text-anchor="start" x="446.25" y="-269.95" font-family="Times New Roman,serif" font-weight="bold" font-size="9.00">Normal</text>
<text text-anchor="start" x="440.25" y="-260.95" font-family="Times New Roman,serif" font-weight="bold" font-size="9.00">Obesity III</text>
<polygon fill="none" stroke="black" points="344,-247 344,-290 490.25,-290 490.25,-247 344,-247"/>
</g>
<!-- n_0_1_2_3_4_5_6&#45;&gt;n_0_1_2_3_6 -->
<g id="edge1" class="edge">
<title>n_0_1_2_3_4_5_6&#45;&gt;n_0_1_2_3_6</title>
<path fill="none" stroke="black" d="M474.06,-337.15C464.67,-326 454.22,-313.58 444.86,-302.45"/>
<polygon fill="black" stroke="black" points="447.72,-300.42 438.6,-295.02 442.36,-304.92 447.72,-300.42"/>
</g>
<!-- n_4_5 -->
<g id="node11" class="node">
<title>n_4_5</title>
<polygon fill="none" stroke="black" points="536.62,-255.88 536.62,-281.12 586.62,-281.12 586.62,-255.88 536.62,-255.88"/>
<text text-anchor="start" x="543.62" y="-266.57" font-family="Times New Roman,serif" font-weight="bold" font-size="9.00">Obesity I</text>
<polygon fill="none" stroke="black" points="586.62,-255.88 586.62,-281.12 639.62,-281.12 639.62,-255.88 586.62,-255.88"/>
<text text-anchor="start" x="593.62" y="-266.57" font-family="Times New Roman,serif" font-weight="bold" font-size="9.00">Obesity II</text>
<polygon fill="none" stroke="black" points="535.62,-254.88 535.62,-282.12 640.62,-282.12 640.62,-254.88 535.62,-254.88"/>
</g>
<!-- n_0_1_2_3_4_5_6&#45;&gt;n_4_5 -->
<g id="edge10" class="edge">
<title>n_0_1_2_3_4_5_6&#45;&gt;n_4_5</title>
<path fill="none" stroke="black" d="M530.52,-337.15C542.18,-323.46 555.45,-307.87 566.32,-295.11"/>
<polygon fill="black" stroke="black" points="568.95,-297.42 572.77,-287.53 563.62,-292.88 568.95,-297.42"/>
</g>
<!-- n_0_2_3 -->
<g id="node3" class="node">
<title>n_0_2_3</title>
<polygon fill="none" stroke="black" points="177,-163 177,-195 265.25,-195 265.25,-163 177,-163"/>
<text text-anchor="start" x="184" y="-180.45" font-family="Times New Roman,serif" font-weight="bold" font-size="9.00">Insufficient weight</text>
<text text-anchor="start" x="195.62" y="-171.45" font-family="Times New Roman,serif" font-weight="bold" font-size="9.00">Overweight I</text>
<polygon fill="none" stroke="black" points="265.25,-163 265.25,-195 333.25,-195 333.25,-163 265.25,-163"/>
<text text-anchor="start" x="272.25" y="-177.07" font-family="Times New Roman,serif" font-weight="bold" font-size="9.00">Overweight II</text>
<polygon fill="none" stroke="black" points="176,-162 176,-196 334.25,-196 334.25,-162 176,-162"/>
</g>
<!-- n_0_1_2_3_6&#45;&gt;n_0_2_3 -->
<g id="edge2" class="edge">
<title>n_0_1_2_3_6&#45;&gt;n_0_2_3</title>
<path fill="none" stroke="black" d="M372,-243.13C350.26,-231.38 324.2,-217.31 302.2,-205.43"/>
<polygon fill="black" stroke="black" points="303.89,-202.36 293.43,-200.69 300.56,-208.52 303.89,-202.36"/>
</g>
<!-- n_1_6 -->
<g id="node8" class="node">
<title>n_1_6</title>
<polygon fill="none" stroke="black" points="380.12,-166.38 380.12,-191.62 424.12,-191.62 424.12,-166.38 380.12,-166.38"/>
<text text-anchor="start" x="387.12" y="-177.07" font-family="Times New Roman,serif" font-weight="bold" font-size="9.00">Normal</text>
<polygon fill="none" stroke="black" points="424.12,-166.38 424.12,-191.62 480.12,-191.62 480.12,-166.38 424.12,-166.38"/>
<text text-anchor="start" x="431.12" y="-177.07" font-family="Times New Roman,serif" font-weight="bold" font-size="9.00">Obesity III</text>
<polygon fill="none" stroke="black" points="379.12,-165.38 379.12,-192.62 481.12,-192.62 481.12,-165.38 379.12,-165.38"/>
</g>
<!-- n_0_1_2_3_6&#45;&gt;n_1_6 -->
<g id="edge7" class="edge">
<title>n_0_1_2_3_6&#45;&gt;n_1_6</title>
<path fill="none" stroke="black" d="M420.75,-243.13C422.37,-232.17 424.3,-219.18 425.99,-207.84"/>
<polygon fill="black" stroke="black" points="429.4,-208.67 427.41,-198.27 422.48,-207.64 429.4,-208.67"/>
</g>
<!-- n_0_2 -->
<g id="node4" class="node">
<title>n_0_2</title>
<polygon fill="none" stroke="black" points="38.5,-84.38 38.5,-109.62 126.75,-109.62 126.75,-84.38 38.5,-84.38"/>
<text text-anchor="start" x="45.5" y="-95.08" font-family="Times New Roman,serif" font-weight="bold" font-size="9.00">Insufficient weight</text>
<polygon fill="none" stroke="black" points="126.75,-84.38 126.75,-109.62 191.75,-109.62 191.75,-84.38 126.75,-84.38"/>
<text text-anchor="start" x="133.75" y="-95.08" font-family="Times New Roman,serif" font-weight="bold" font-size="9.00">Overweight I</text>
<polygon fill="none" stroke="black" points="37.5,-83.38 37.5,-110.62 192.75,-110.62 192.75,-83.38 37.5,-83.38"/>
</g>
<!-- n_0_2_3&#45;&gt;n_0_2 -->
<g id="edge3" class="edge">
<title>n_0_2_3&#45;&gt;n_0_2</title>
<path fill="none" stroke="black" d="M220.16,-158.02C200.11,-146.56 174.9,-132.16 154.21,-120.33"/>
<polygon fill="black" stroke="black" points="156.19,-117.43 145.77,-115.51 152.71,-123.51 156.19,-117.43"/>
</g>
<!-- n_3 -->
<g id="node7" class="node">
<title>n_3</title>
<polygon fill="none" stroke="black" points="239.12,-84.38 239.12,-109.62 307.12,-109.62 307.12,-84.38 239.12,-84.38"/>
<text text-anchor="start" x="246.12" y="-95.08" font-family="Times New Roman,serif" font-weight="bold" font-size="9.00">Overweight II</text>
<polygon fill="none" stroke="black" points="238.12,-83.38 238.12,-110.62 308.12,-110.62 308.12,-83.38 238.12,-83.38"/>
</g>
<!-- n_0_2_3&#45;&gt;n_3 -->
<g id="edge6" class="edge">
<title>n_0_2_3&#45;&gt;n_3</title>
<path fill="none" stroke="black" d="M259.57,-158.22C261.78,-148.44 264.47,-136.46 266.88,-125.77"/>
<polygon fill="black" stroke="black" points="270.22,-126.84 269,-116.32 263.39,-125.31 270.22,-126.84"/>
</g>
<!-- n_0 -->
<g id="node5" class="node">
<title>n_0</title>
<polygon fill="none" stroke="black" points="9,-5.38 9,-30.62 97.25,-30.62 97.25,-5.38 9,-5.38"/>
<text text-anchor="start" x="16" y="-16.07" font-family="Times New Roman,serif" font-weight="bold" font-size="9.00">Insufficient weight</text>
<polygon fill="none" stroke="black" points="8,-4.38 8,-31.62 98.25,-31.62 98.25,-4.38 8,-4.38"/>
</g>
<!-- n_0_2&#45;&gt;n_0 -->
<g id="edge4" class="edge">
<title>n_0_2&#45;&gt;n_0</title>
<path fill="none" stroke="black" d="M101.67,-79.29C93.52,-69.17 82.96,-56.05 73.77,-44.64"/>
<polygon fill="black" stroke="black" points="76.71,-42.71 67.72,-37.12 71.26,-47.1 76.71,-42.71"/>
</g>
<!-- n_2 -->
<g id="node6" class="node">
<title>n_2</title>
<polygon fill="none" stroke="black" points="144.62,-5.38 144.62,-30.62 209.62,-30.62 209.62,-5.38 144.62,-5.38"/>
<text text-anchor="start" x="151.62" y="-16.07" font-family="Times New Roman,serif" font-weight="bold" font-size="9.00">Overweight I</text>
<polygon fill="none" stroke="black" points="143.62,-4.38 143.62,-31.62 210.62,-31.62 210.62,-4.38 143.62,-4.38"/>
</g>
<!-- n_0_2&#45;&gt;n_2 -->
<g id="edge5" class="edge">
<title>n_0_2&#45;&gt;n_2</title>
<path fill="none" stroke="black" d="M128.58,-79.29C136.73,-69.17 147.29,-56.05 156.48,-44.64"/>
<polygon fill="black" stroke="black" points="158.99,-47.1 162.53,-37.12 153.54,-42.71 158.99,-47.1"/>
</g>
<!-- n_1 -->
<g id="node9" class="node">
<title>n_1</title>
<polygon fill="none" stroke="black" points="390.12,-84.38 390.12,-109.62 434.12,-109.62 434.12,-84.38 390.12,-84.38"/>
<text text-anchor="start" x="397.12" y="-95.08" font-family="Times New Roman,serif" font-weight="bold" font-size="9.00">Normal</text>
<polygon fill="none" stroke="black" points="389.12,-83.38 389.12,-110.62 435.12,-110.62 435.12,-83.38 389.12,-83.38"/>
</g>
<!-- n_1_6&#45;&gt;n_1 -->
<g id="edge8" class="edge">
<title>n_1_6&#45;&gt;n_1</title>
<path fill="none" stroke="black" d="M426.31,-161.03C424.02,-150.85 421.05,-137.65 418.42,-125.96"/>
<polygon fill="black" stroke="black" points="421.88,-125.41 416.27,-116.42 415.05,-126.94 421.88,-125.41"/>
</g>
<!-- n_6 -->
<g id="node10" class="node">
<title>n_6</title>
<polygon fill="none" stroke="black" points="481.12,-84.38 481.12,-109.62 537.12,-109.62 537.12,-84.38 481.12,-84.38"/>
<text text-anchor="start" x="488.12" y="-95.08" font-family="Times New Roman,serif" font-weight="bold" font-size="9.00">Obesity III</text>
<polygon fill="none" stroke="black" points="480.12,-83.38 480.12,-110.62 538.12,-110.62 538.12,-83.38 480.12,-83.38"/>
</g>
<!-- n_1_6&#45;&gt;n_6 -->
<g id="edge9" class="edge">
<title>n_1_6&#45;&gt;n_6</title>
<path fill="none" stroke="black" d="M446.88,-161.03C457.77,-150 472.17,-135.43 484.37,-123.07"/>
<polygon fill="black" stroke="black" points="486.8,-125.59 491.33,-116.02 481.81,-120.67 486.8,-125.59"/>
</g>
<!-- n_4 -->
<g id="node12" class="node">
<title>n_4</title>
<polygon fill="none" stroke="black" points="551.12,-166.38 551.12,-191.62 601.12,-191.62 601.12,-166.38 551.12,-166.38"/>
<text text-anchor="start" x="558.12" y="-177.07" font-family="Times New Roman,serif" font-weight="bold" font-size="9.00">Obesity I</text>
<polygon fill="none" stroke="black" points="550.12,-165.38 550.12,-192.62 602.12,-192.62 602.12,-165.38 550.12,-165.38"/>
</g>
<!-- n_4_5&#45;&gt;n_4 -->
<g id="edge11" class="edge">
<title>n_4_5&#45;&gt;n_4</title>
<path fill="none" stroke="black" d="M585.81,-250.63C584.15,-238.52 581.88,-221.94 579.95,-207.88"/>
<polygon fill="black" stroke="black" points="583.46,-207.75 578.64,-198.32 576.53,-208.7 583.46,-207.75"/>
</g>
<!-- n_5 -->
<g id="node13" class="node">
<title>n_5</title>
<polygon fill="none" stroke="black" points="648.62,-166.38 648.62,-191.62 701.62,-191.62 701.62,-166.38 648.62,-166.38"/>
<text text-anchor="start" x="655.62" y="-177.07" font-family="Times New Roman,serif" font-weight="bold" font-size="9.00">Obesity II</text>
<polygon fill="none" stroke="black" points="647.62,-165.38 647.62,-192.62 702.62,-192.62 702.62,-165.38 647.62,-165.38"/>
</g>
<!-- n_4_5&#45;&gt;n_5 -->
<g id="edge12" class="edge">
<title>n_4_5&#45;&gt;n_5</title>
<path fill="none" stroke="black" d="M604.9,-250.63C617.78,-237.68 635.76,-219.59 650.3,-204.97"/>
<polygon fill="black" stroke="black" points="652.77,-207.45 657.33,-197.89 647.8,-202.52 652.77,-207.45"/>
</g>
</g>
</svg>
