<?xml version="1.0" encoding="UTF-8" standalone="no"?>
<!DOCTYPE svg PUBLIC "-//W3C//DTD SVG 1.1//EN"
 "http://www.w3.org/Graphics/SVG/1.1/DTD/svg11.dtd">
<!-- Generated by graphviz version 10.0.1 (20240210.2158)
 -->
<!-- Title: ND Pages: 1 -->
<svg width="585pt" height="526pt"
 viewBox="0.00 0.00 584.50 526.00" xmlns="http://www.w3.org/2000/svg" xmlns:xlink="http://www.w3.org/1999/xlink">
<g id="graph0" class="graph" transform="scale(1 1) rotate(0) translate(4 522)">
<title>ND</title>
<polygon fill="white" stroke="none" points="-4,4 -4,-522 580.5,-522 580.5,4 -4,4"/>
<!-- n_0_1_2_3_4_5_6 -->
<g id="node1" class="node">
<title>n_0_1_2_3_4_5_6</title>
<polygon fill="none" stroke="black" points="373.88,-445 373.88,-513 462.12,-513 462.12,-445 373.88,-445"/>
<text text-anchor="start" x="380.88" y="-498.45" font-family="Times New Roman,serif" font-weight="bold" font-size="9.00">Insufficient weight</text>
<text text-anchor="start" x="403" y="-489.45" font-family="Times New Roman,serif" font-weight="bold" font-size="9.00">Normal</text>
<text text-anchor="start" x="392.5" y="-480.45" font-family="Times New Roman,serif" font-weight="bold" font-size="9.00">Overweight I</text>
<text text-anchor="start" x="400" y="-471.45" font-family="Times New Roman,serif" font-weight="bold" font-size="9.00">Obesity I</text>
<text text-anchor="start" x="398.5" y="-462.45" font-family="Times New Roman,serif" font-weight="bold" font-size="9.00">Obesity II</text>
<text text-anchor="start" x="397" y="-453.45" font-family="Times New Roman,serif" font-weight="bold" font-size="9.00">Obesity III</text>
<polygon fill="none" stroke="black" points="462.12,-445 462.12,-513 530.12,-513 530.12,-445 462.12,-445"/>
<text text-anchor="start" x="469.12" y="-477.07" font-family="Times New Roman,serif" font-weight="bold" font-size="9.00">Overweight II</text>
<polygon fill="none" stroke="black" points="372.88,-444 372.88,-514 531.12,-514 531.12,-444 372.88,-444"/>
</g>
<!-- n_0_1_2_4_5_6 -->
<g id="node2" class="node">
<title>n_0_1_2_4_5_6</title>
<polygon fill="none" stroke="black" points="305.38,-342 305.38,-392 393.62,-392 393.62,-342 305.38,-342"/>
<text text-anchor="start" x="312.38" y="-377.45" font-family="Times New Roman,serif" font-weight="bold" font-size="9.00">Insufficient weight</text>
<text text-anchor="start" x="324" y="-368.45" font-family="Times New Roman,serif" font-weight="bold" font-size="9.00">Overweight I</text>
<text text-anchor="start" x="331.5" y="-359.45" font-family="Times New Roman,serif" font-weight="bold" font-size="9.00">Obesity I</text>
<text text-anchor="start" x="328.5" y="-350.45" font-family="Times New Roman,serif" font-weight="bold" font-size="9.00">Obesity III</text>
<polygon fill="none" stroke="black" points="393.62,-342 393.62,-392 446.62,-392 446.62,-342 393.62,-342"/>
<text text-anchor="start" x="405.12" y="-368.45" font-family="Times New Roman,serif" font-weight="bold" font-size="9.00">Normal</text>
<text text-anchor="start" x="400.62" y="-359.45" font-family="Times New Roman,serif" font-weight="bold" font-size="9.00">Obesity II</text>
<polygon fill="none" stroke="black" points="304.38,-341 304.38,-393 447.62,-393 447.62,-341 304.38,-341"/>
</g>
<!-- n_0_1_2_3_4_5_6&#45;&gt;n_0_1_2_4_5_6 -->
<g id="edge1" class="edge">
<title>n_0_1_2_3_4_5_6&#45;&gt;n_0_1_2_4_5_6</title>
<path fill="none" stroke="black" d="M425.85,-440.14C418.27,-429.19 410,-417.22 402.42,-406.23"/>
<polygon fill="black" stroke="black" points="405.38,-404.37 396.82,-398.13 399.62,-408.35 405.38,-404.37"/>
</g>
<!-- n_3 -->
<g id="node13" class="node">
<title>n_3</title>
<polygon fill="none" stroke="black" points="494,-354.38 494,-379.62 562,-379.62 562,-354.38 494,-354.38"/>
<text text-anchor="start" x="501" y="-365.07" font-family="Times New Roman,serif" font-weight="bold" font-size="9.00">Overweight II</text>
<polygon fill="none" stroke="black" points="493,-353.38 493,-380.62 563,-380.62 563,-353.38 493,-353.38"/>
</g>
<!-- n_0_1_2_3_4_5_6&#45;&gt;n_3 -->
<g id="edge12" class="edge">
<title>n_0_1_2_3_4_5_6&#45;&gt;n_3</title>
<path fill="none" stroke="black" d="M478.15,-440.14C488.59,-425.04 500.35,-408.02 509.82,-394.31"/>
<polygon fill="black" stroke="black" points="512.6,-396.44 515.41,-386.23 506.84,-392.47 512.6,-396.44"/>
</g>
<!-- n_0_2_4_6 -->
<g id="node3" class="node">
<title>n_0_2_4_6</title>
<polygon fill="none" stroke="black" points="213.38,-248 213.38,-289 301.62,-289 301.62,-248 213.38,-248"/>
<text text-anchor="start" x="220.38" y="-274.45" font-family="Times New Roman,serif" font-weight="bold" font-size="9.00">Insufficient weight</text>
<text text-anchor="start" x="239.5" y="-265.45" font-family="Times New Roman,serif" font-weight="bold" font-size="9.00">Obesity I</text>
<text text-anchor="start" x="236.5" y="-256.45" font-family="Times New Roman,serif" font-weight="bold" font-size="9.00">Obesity III</text>
<polygon fill="none" stroke="black" points="301.62,-248 301.62,-289 366.62,-289 366.62,-248 301.62,-248"/>
<text text-anchor="start" x="308.62" y="-266.57" font-family="Times New Roman,serif" font-weight="bold" font-size="9.00">Overweight I</text>
<polygon fill="none" stroke="black" points="212.38,-247 212.38,-290 367.62,-290 367.62,-247 212.38,-247"/>
</g>
<!-- n_0_1_2_4_5_6&#45;&gt;n_0_2_4_6 -->
<g id="edge2" class="edge">
<title>n_0_1_2_4_5_6&#45;&gt;n_0_2_4_6</title>
<path fill="none" stroke="black" d="M350.2,-337.05C340.42,-326.08 329.22,-313.51 319.16,-302.22"/>
<polygon fill="black" stroke="black" points="322,-300.14 312.73,-295 316.77,-304.8 322,-300.14"/>
</g>
<!-- n_1_5 -->
<g id="node10" class="node">
<title>n_1_5</title>
<polygon fill="none" stroke="black" points="413.5,-255.88 413.5,-281.12 457.5,-281.12 457.5,-255.88 413.5,-255.88"/>
<text text-anchor="start" x="420.5" y="-266.57" font-family="Times New Roman,serif" font-weight="bold" font-size="9.00">Normal</text>
<polygon fill="none" stroke="black" points="457.5,-255.88 457.5,-281.12 510.5,-281.12 510.5,-255.88 457.5,-255.88"/>
<text text-anchor="start" x="464.5" y="-266.57" font-family="Times New Roman,serif" font-weight="bold" font-size="9.00">Obesity II</text>
<polygon fill="none" stroke="black" points="412.5,-254.88 412.5,-282.12 511.5,-282.12 511.5,-254.88 412.5,-254.88"/>
</g>
<!-- n_0_1_2_4_5_6&#45;&gt;n_1_5 -->
<g id="edge9" class="edge">
<title>n_0_1_2_4_5_6&#45;&gt;n_1_5</title>
<path fill="none" stroke="black" d="M401.8,-337.05C413.78,-323.6 427.89,-307.77 439.44,-294.81"/>
<polygon fill="black" stroke="black" points="441.92,-297.29 445.96,-287.5 436.7,-292.63 441.92,-297.29"/>
</g>
<!-- n_0_4_6 -->
<g id="node4" class="node">
<title>n_0_4_6</title>
<polygon fill="none" stroke="black" points="83.88,-163 83.88,-195 139.88,-195 139.88,-163 83.88,-163"/>
<text text-anchor="start" x="93.88" y="-180.45" font-family="Times New Roman,serif" font-weight="bold" font-size="9.00">Obesity I</text>
<text text-anchor="start" x="90.88" y="-171.45" font-family="Times New Roman,serif" font-weight="bold" font-size="9.00">Obesity III</text>
<polygon fill="none" stroke="black" points="139.88,-163 139.88,-195 228.12,-195 228.12,-163 139.88,-163"/>
<text text-anchor="start" x="146.88" y="-177.07" font-family="Times New Roman,serif" font-weight="bold" font-size="9.00">Insufficient weight</text>
<polygon fill="none" stroke="black" points="82.88,-162 82.88,-196 229.12,-196 229.12,-162 82.88,-162"/>
</g>
<!-- n_0_2_4_6&#45;&gt;n_0_4_6 -->
<g id="edge3" class="edge">
<title>n_0_2_4_6&#45;&gt;n_0_4_6</title>
<path fill="none" stroke="black" d="M252.67,-243.13C235.03,-231.61 213.95,-217.84 195.98,-206.11"/>
<polygon fill="black" stroke="black" points="197.92,-203.19 187.63,-200.65 194.09,-209.05 197.92,-203.19"/>
</g>
<!-- n_2 -->
<g id="node9" class="node">
<title>n_2</title>
<polygon fill="none" stroke="black" points="275.5,-166.38 275.5,-191.62 340.5,-191.62 340.5,-166.38 275.5,-166.38"/>
<text text-anchor="start" x="282.5" y="-177.07" font-family="Times New Roman,serif" font-weight="bold" font-size="9.00">Overweight I</text>
<polygon fill="none" stroke="black" points="274.5,-165.38 274.5,-192.62 341.5,-192.62 341.5,-165.38 274.5,-165.38"/>
</g>
<!-- n_0_2_4_6&#45;&gt;n_2 -->
<g id="edge8" class="edge">
<title>n_0_2_4_6&#45;&gt;n_2</title>
<path fill="none" stroke="black" d="M295.01,-243.13C297.27,-232.17 299.94,-219.18 302.27,-207.84"/>
<polygon fill="black" stroke="black" points="305.66,-208.75 304.25,-198.25 298.8,-207.34 305.66,-208.75"/>
</g>
<!-- n_4_6 -->
<g id="node5" class="node">
<title>n_4_6</title>
<polygon fill="none" stroke="black" points="31,-84.38 31,-109.62 81,-109.62 81,-84.38 31,-84.38"/>
<text text-anchor="start" x="38" y="-95.08" font-family="Times New Roman,serif" font-weight="bold" font-size="9.00">Obesity I</text>
<polygon fill="none" stroke="black" points="81,-84.38 81,-109.62 137,-109.62 137,-84.38 81,-84.38"/>
<text text-anchor="start" x="88" y="-95.08" font-family="Times New Roman,serif" font-weight="bold" font-size="9.00">Obesity III</text>
<polygon fill="none" stroke="black" points="30,-83.38 30,-110.62 138,-110.62 138,-83.38 30,-83.38"/>
</g>
<!-- n_0_4_6&#45;&gt;n_4_6 -->
<g id="edge4" class="edge">
<title>n_0_4_6&#45;&gt;n_4_6</title>
<path fill="none" stroke="black" d="M138.2,-158.22C128.65,-147.61 116.77,-134.41 106.57,-123.07"/>
<polygon fill="black" stroke="black" points="109.46,-121.06 100.17,-115.97 104.26,-125.74 109.46,-121.06"/>
</g>
<!-- n_0 -->
<g id="node8" class="node">
<title>n_0</title>
<polygon fill="none" stroke="black" points="183.88,-84.38 183.88,-109.62 272.12,-109.62 272.12,-84.38 183.88,-84.38"/>
<text text-anchor="start" x="190.88" y="-95.08" font-family="Times New Roman,serif" font-weight="bold" font-size="9.00">Insufficient weight</text>
<polygon fill="none" stroke="black" points="182.88,-83.38 182.88,-110.62 273.12,-110.62 273.12,-83.38 182.88,-83.38"/>
</g>
<!-- n_0_4_6&#45;&gt;n_0 -->
<g id="edge7" class="edge">
<title>n_0_4_6&#45;&gt;n_0</title>
<path fill="none" stroke="black" d="M173.8,-158.22C183.35,-147.61 195.23,-134.41 205.43,-123.07"/>
<polygon fill="black" stroke="black" points="207.74,-125.74 211.83,-115.97 202.54,-121.06 207.74,-125.74"/>
</g>
<!-- n_4 -->
<g id="node6" class="node">
<title>n_4</title>
<polygon fill="none" stroke="black" points="9,-5.38 9,-30.62 59,-30.62 59,-5.38 9,-5.38"/>
<text text-anchor="start" x="16" y="-16.07" font-family="Times New Roman,serif" font-weight="bold" font-size="9.00">Obesity I</text>
<polygon fill="none" stroke="black" points="8,-4.38 8,-31.62 60,-31.62 60,-4.38 8,-4.38"/>
</g>
<!-- n_4_6&#45;&gt;n_4 -->
<g id="edge5" class="edge">
<title>n_4_6&#45;&gt;n_4</title>
<path fill="none" stroke="black" d="M73.15,-79.29C66.71,-69.37 58.4,-56.57 51.09,-45.32"/>
<polygon fill="black" stroke="black" points="54.21,-43.69 45.83,-37.21 48.34,-47.5 54.21,-43.69"/>
</g>
<!-- n_6 -->
<g id="node7" class="node">
<title>n_6</title>
<polygon fill="none" stroke="black" points="106,-5.38 106,-30.62 162,-30.62 162,-5.38 106,-5.38"/>
<text text-anchor="start" x="113" y="-16.07" font-family="Times New Roman,serif" font-weight="bold" font-size="9.00">Obesity III</text>
<polygon fill="none" stroke="black" points="105,-4.38 105,-31.62 163,-31.62 163,-4.38 105,-4.38"/>
</g>
<!-- n_4_6&#45;&gt;n_6 -->
<g id="edge6" class="edge">
<title>n_4_6&#45;&gt;n_6</title>
<path fill="none" stroke="black" d="M94.85,-79.29C101.29,-69.37 109.6,-56.57 116.91,-45.32"/>
<polygon fill="black" stroke="black" points="119.66,-47.5 122.17,-37.21 113.79,-43.69 119.66,-47.5"/>
</g>
<!-- n_1 -->
<g id="node11" class="node">
<title>n_1</title>
<polygon fill="none" stroke="black" points="423,-166.38 423,-191.62 467,-191.62 467,-166.38 423,-166.38"/>
<text text-anchor="start" x="430" y="-177.07" font-family="Times New Roman,serif" font-weight="bold" font-size="9.00">Normal</text>
<polygon fill="none" stroke="black" points="422,-165.38 422,-192.62 468,-192.62 468,-165.38 422,-165.38"/>
</g>
<!-- n_1_5&#45;&gt;n_1 -->
<g id="edge10" class="edge">
<title>n_1_5&#45;&gt;n_1</title>
<path fill="none" stroke="black" d="M458.72,-250.63C456.37,-238.52 453.15,-221.94 450.42,-207.88"/>
<polygon fill="black" stroke="black" points="453.9,-207.45 448.56,-198.3 447.03,-208.79 453.9,-207.45"/>
</g>
<!-- n_5 -->
<g id="node12" class="node">
<title>n_5</title>
<polygon fill="none" stroke="black" points="514.5,-166.38 514.5,-191.62 567.5,-191.62 567.5,-166.38 514.5,-166.38"/>
<text text-anchor="start" x="521.5" y="-177.07" font-family="Times New Roman,serif" font-weight="bold" font-size="9.00">Obesity II</text>
<polygon fill="none" stroke="black" points="513.5,-165.38 513.5,-192.62 568.5,-192.62 568.5,-165.38 513.5,-165.38"/>
</g>
<!-- n_1_5&#45;&gt;n_5 -->
<g id="edge11" class="edge">
<title>n_1_5&#45;&gt;n_5</title>
<path fill="none" stroke="black" d="M477.23,-250.63C488.93,-237.68 505.25,-219.59 518.46,-204.97"/>
<polygon fill="black" stroke="black" points="520.7,-207.71 524.8,-197.94 515.5,-203.02 520.7,-207.71"/>
</g>
</g>
</svg>
