<?xml version="1.0" encoding="UTF-8" standalone="no"?>
<!DOCTYPE svg PUBLIC "-//W3C//DTD SVG 1.1//EN"
 "http://www.w3.org/Graphics/SVG/1.1/DTD/svg11.dtd">
<!-- Generated by graphviz version 10.0.1 (20240210.2158)
 -->
<!-- Title: ND Pages: 1 -->
<svg width="566pt" height="544pt"
 viewBox="0.00 0.00 565.62 544.00" xmlns="http://www.w3.org/2000/svg" xmlns:xlink="http://www.w3.org/1999/xlink">
<g id="graph0" class="graph" transform="scale(1 1) rotate(0) translate(4 540)">
<title>ND</title>
<polygon fill="white" stroke="none" points="-4,4 -4,-540 561.62,-540 561.62,4 -4,4"/>
<!-- n_0_1_2_3_4_5_6 -->
<g id="node1" class="node">
<title>n_0_1_2_3_4_5_6</title>
<polygon fill="none" stroke="black" points="350.38,-463 350.38,-531 418.38,-531 418.38,-463 350.38,-463"/>
<text text-anchor="start" x="369.38" y="-516.45" font-family="Times New Roman,serif" font-weight="bold" font-size="9.00">Normal</text>
<text text-anchor="start" x="358.88" y="-507.45" font-family="Times New Roman,serif" font-weight="bold" font-size="9.00">Overweight I</text>
<text text-anchor="start" x="357.38" y="-498.45" font-family="Times New Roman,serif" font-weight="bold" font-size="9.00">Overweight II</text>
<text text-anchor="start" x="366.38" y="-489.45" font-family="Times New Roman,serif" font-weight="bold" font-size="9.00">Obesity I</text>
<text text-anchor="start" x="364.88" y="-480.45" font-family="Times New Roman,serif" font-weight="bold" font-size="9.00">Obesity II</text>
<text text-anchor="start" x="363.38" y="-471.45" font-family="Times New Roman,serif" font-weight="bold" font-size="9.00">Obesity III</text>
<polygon fill="none" stroke="black" points="418.38,-463 418.38,-531 506.62,-531 506.62,-463 418.38,-463"/>
<text text-anchor="start" x="425.38" y="-495.07" font-family="Times New Roman,serif" font-weight="bold" font-size="9.00">Insufficient weight</text>
<polygon fill="none" stroke="black" points="349.38,-462 349.38,-532 507.62,-532 507.62,-462 349.38,-462"/>
</g>
<!-- n_1_2_3_4_5_6 -->
<g id="node2" class="node">
<title>n_1_2_3_4_5_6</title>
<polygon fill="none" stroke="black" points="292,-351 292,-410 360,-410 360,-351 292,-351"/>
<text text-anchor="start" x="311" y="-395.45" font-family="Times New Roman,serif" font-weight="bold" font-size="9.00">Normal</text>
<text text-anchor="start" x="300.5" y="-386.45" font-family="Times New Roman,serif" font-weight="bold" font-size="9.00">Overweight I</text>
<text text-anchor="start" x="299" y="-377.45" font-family="Times New Roman,serif" font-weight="bold" font-size="9.00">Overweight II</text>
<text text-anchor="start" x="308" y="-368.45" font-family="Times New Roman,serif" font-weight="bold" font-size="9.00">Obesity I</text>
<text text-anchor="start" x="305" y="-359.45" font-family="Times New Roman,serif" font-weight="bold" font-size="9.00">Obesity III</text>
<polygon fill="none" stroke="black" points="360,-351 360,-410 413,-410 413,-351 360,-351"/>
<text text-anchor="start" x="367" y="-378.57" font-family="Times New Roman,serif" font-weight="bold" font-size="9.00">Obesity II</text>
<polygon fill="none" stroke="black" points="291,-350 291,-411 414,-411 414,-350 291,-350"/>
</g>
<!-- n_0_1_2_3_4_5_6&#45;&gt;n_1_2_3_4_5_6 -->
<g id="edge1" class="edge">
<title>n_0_1_2_3_4_5_6&#45;&gt;n_1_2_3_4_5_6</title>
<path fill="none" stroke="black" d="M403.4,-458.19C396.18,-447.31 388.25,-435.36 380.85,-424.21"/>
<polygon fill="black" stroke="black" points="383.79,-422.31 375.34,-415.91 377.96,-426.18 383.79,-422.31"/>
</g>
<!-- n_0 -->
<g id="node13" class="node">
<title>n_0</title>
<polygon fill="none" stroke="black" points="460.38,-367.88 460.38,-393.12 548.62,-393.12 548.62,-367.88 460.38,-367.88"/>
<text text-anchor="start" x="467.38" y="-378.57" font-family="Times New Roman,serif" font-weight="bold" font-size="9.00">Insufficient weight</text>
<polygon fill="none" stroke="black" points="459.38,-366.88 459.38,-394.12 549.62,-394.12 549.62,-366.88 459.38,-366.88"/>
</g>
<!-- n_0_1_2_3_4_5_6&#45;&gt;n_0 -->
<g id="edge12" class="edge">
<title>n_0_1_2_3_4_5_6&#45;&gt;n_0</title>
<path fill="none" stroke="black" d="M453.6,-458.19C464.59,-441.63 477.22,-422.6 487.15,-407.64"/>
<polygon fill="black" stroke="black" points="489.79,-409.99 492.4,-399.72 483.96,-406.12 489.79,-409.99"/>
</g>
<!-- n_1_2_3_4_6 -->
<g id="node3" class="node">
<title>n_1_2_3_4_6</title>
<polygon fill="none" stroke="black" points="231.5,-248 231.5,-298 299.5,-298 299.5,-248 231.5,-248"/>
<text text-anchor="start" x="240" y="-283.45" font-family="Times New Roman,serif" font-weight="bold" font-size="9.00">Overweight I</text>
<text text-anchor="start" x="238.5" y="-274.45" font-family="Times New Roman,serif" font-weight="bold" font-size="9.00">Overweight II</text>
<text text-anchor="start" x="247.5" y="-265.45" font-family="Times New Roman,serif" font-weight="bold" font-size="9.00">Obesity I</text>
<text text-anchor="start" x="244.5" y="-256.45" font-family="Times New Roman,serif" font-weight="bold" font-size="9.00">Obesity III</text>
<polygon fill="none" stroke="black" points="299.5,-248 299.5,-298 343.5,-298 343.5,-248 299.5,-248"/>
<text text-anchor="start" x="306.5" y="-271.07" font-family="Times New Roman,serif" font-weight="bold" font-size="9.00">Normal</text>
<polygon fill="none" stroke="black" points="230.5,-247 230.5,-299 344.5,-299 344.5,-247 230.5,-247"/>
</g>
<!-- n_1_2_3_4_5_6&#45;&gt;n_1_2_3_4_6 -->
<g id="edge2" class="edge">
<title>n_1_2_3_4_5_6&#45;&gt;n_1_2_3_4_6</title>
<path fill="none" stroke="black" d="M331.93,-346.12C325.38,-335.49 318.08,-323.64 311.32,-312.67"/>
<polygon fill="black" stroke="black" points="314.32,-310.86 306.1,-304.19 308.36,-314.54 314.32,-310.86"/>
</g>
<!-- n_5 -->
<g id="node12" class="node">
<title>n_5</title>
<polygon fill="none" stroke="black" points="391,-260.38 391,-285.62 444,-285.62 444,-260.38 391,-260.38"/>
<text text-anchor="start" x="398" y="-271.07" font-family="Times New Roman,serif" font-weight="bold" font-size="9.00">Obesity II</text>
<polygon fill="none" stroke="black" points="390,-259.38 390,-286.62 445,-286.62 445,-259.38 390,-259.38"/>
</g>
<!-- n_1_2_3_4_5_6&#45;&gt;n_5 -->
<g id="edge11" class="edge">
<title>n_1_2_3_4_5_6&#45;&gt;n_5</title>
<path fill="none" stroke="black" d="M373.07,-346.12C382.16,-331.35 392.71,-314.23 401.25,-300.38"/>
<polygon fill="black" stroke="black" points="404,-302.59 406.26,-292.24 398.04,-298.92 404,-302.59"/>
</g>
<!-- n_2_3_4_6 -->
<g id="node4" class="node">
<title>n_2_3_4_6</title>
<polygon fill="none" stroke="black" points="160.5,-163 160.5,-195 228.5,-195 228.5,-163 160.5,-163"/>
<text text-anchor="start" x="169" y="-180.45" font-family="Times New Roman,serif" font-weight="bold" font-size="9.00">Overweight I</text>
<text text-anchor="start" x="167.5" y="-171.45" font-family="Times New Roman,serif" font-weight="bold" font-size="9.00">Overweight II</text>
<polygon fill="none" stroke="black" points="228.5,-163 228.5,-195 284.5,-195 284.5,-163 228.5,-163"/>
<text text-anchor="start" x="238.5" y="-180.45" font-family="Times New Roman,serif" font-weight="bold" font-size="9.00">Obesity I</text>
<text text-anchor="start" x="235.5" y="-171.45" font-family="Times New Roman,serif" font-weight="bold" font-size="9.00">Obesity III</text>
<polygon fill="none" stroke="black" points="159.5,-162 159.5,-196 285.5,-196 285.5,-162 159.5,-162"/>
</g>
<!-- n_1_2_3_4_6&#45;&gt;n_2_3_4_6 -->
<g id="edge3" class="edge">
<title>n_1_2_3_4_6&#45;&gt;n_2_3_4_6</title>
<path fill="none" stroke="black" d="M267.11,-243.14C259.39,-232.22 250.61,-219.79 242.9,-208.87"/>
<polygon fill="black" stroke="black" points="245.94,-207.11 237.31,-200.97 240.23,-211.15 245.94,-207.11"/>
</g>
<!-- n_1 -->
<g id="node11" class="node">
<title>n_1</title>
<polygon fill="none" stroke="black" points="331.5,-166.38 331.5,-191.62 375.5,-191.62 375.5,-166.38 331.5,-166.38"/>
<text text-anchor="start" x="338.5" y="-177.07" font-family="Times New Roman,serif" font-weight="bold" font-size="9.00">Normal</text>
<polygon fill="none" stroke="black" points="330.5,-165.38 330.5,-192.62 376.5,-192.62 376.5,-165.38 330.5,-165.38"/>
</g>
<!-- n_1_2_3_4_6&#45;&gt;n_1 -->
<g id="edge10" class="edge">
<title>n_1_2_3_4_6&#45;&gt;n_1</title>
<path fill="none" stroke="black" d="M308.2,-243.14C316.71,-231.29 326.49,-217.66 334.77,-206.1"/>
<polygon fill="black" stroke="black" points="337.46,-208.36 340.45,-198.2 331.77,-204.28 337.46,-208.36"/>
</g>
<!-- n_2_3 -->
<g id="node5" class="node">
<title>n_2_3</title>
<polygon fill="none" stroke="black" points="73,-84.38 73,-109.62 138,-109.62 138,-84.38 73,-84.38"/>
<text text-anchor="start" x="80" y="-95.08" font-family="Times New Roman,serif" font-weight="bold" font-size="9.00">Overweight I</text>
<polygon fill="none" stroke="black" points="138,-84.38 138,-109.62 206,-109.62 206,-84.38 138,-84.38"/>
<text text-anchor="start" x="145" y="-95.08" font-family="Times New Roman,serif" font-weight="bold" font-size="9.00">Overweight II</text>
<polygon fill="none" stroke="black" points="72,-83.38 72,-110.62 207,-110.62 207,-83.38 72,-83.38"/>
</g>
<!-- n_2_3_4_6&#45;&gt;n_2_3 -->
<g id="edge4" class="edge">
<title>n_2_3_4_6&#45;&gt;n_2_3</title>
<path fill="none" stroke="black" d="M201.98,-158.22C190.86,-147.5 177,-134.15 165.17,-122.74"/>
<polygon fill="black" stroke="black" points="167.69,-120.31 158.07,-115.89 162.84,-125.35 167.69,-120.31"/>
</g>
<!-- n_4_6 -->
<g id="node8" class="node">
<title>n_4_6</title>
<polygon fill="none" stroke="black" points="253.5,-84.38 253.5,-109.62 303.5,-109.62 303.5,-84.38 253.5,-84.38"/>
<text text-anchor="start" x="260.5" y="-95.08" font-family="Times New Roman,serif" font-weight="bold" font-size="9.00">Obesity I</text>
<polygon fill="none" stroke="black" points="303.5,-84.38 303.5,-109.62 359.5,-109.62 359.5,-84.38 303.5,-84.38"/>
<text text-anchor="start" x="310.5" y="-95.08" font-family="Times New Roman,serif" font-weight="bold" font-size="9.00">Obesity III</text>
<polygon fill="none" stroke="black" points="252.5,-83.38 252.5,-110.62 360.5,-110.62 360.5,-83.38 252.5,-83.38"/>
</g>
<!-- n_2_3_4_6&#45;&gt;n_4_6 -->
<g id="edge7" class="edge">
<title>n_2_3_4_6&#45;&gt;n_4_6</title>
<path fill="none" stroke="black" d="M243.26,-158.22C254.52,-147.5 268.55,-134.15 280.52,-122.74"/>
<polygon fill="black" stroke="black" points="282.89,-125.32 287.72,-115.89 278.06,-120.25 282.89,-125.32"/>
</g>
<!-- n_2 -->
<g id="node6" class="node">
<title>n_2</title>
<polygon fill="none" stroke="black" points="9,-5.38 9,-30.62 74,-30.62 74,-5.38 9,-5.38"/>
<text text-anchor="start" x="16" y="-16.07" font-family="Times New Roman,serif" font-weight="bold" font-size="9.00">Overweight I</text>
<polygon fill="none" stroke="black" points="8,-4.38 8,-31.62 75,-31.62 75,-4.38 8,-4.38"/>
</g>
<!-- n_2_3&#45;&gt;n_2 -->
<g id="edge5" class="edge">
<title>n_2_3&#45;&gt;n_2</title>
<path fill="none" stroke="black" d="M118.24,-79.29C104.72,-68.67 87,-54.75 71.99,-42.96"/>
<polygon fill="black" stroke="black" points="74.28,-40.3 64.25,-36.88 69.95,-45.81 74.28,-40.3"/>
</g>
<!-- n_3 -->
<g id="node7" class="node">
<title>n_3</title>
<polygon fill="none" stroke="black" points="121.5,-5.38 121.5,-30.62 189.5,-30.62 189.5,-5.38 121.5,-5.38"/>
<text text-anchor="start" x="128.5" y="-16.07" font-family="Times New Roman,serif" font-weight="bold" font-size="9.00">Overweight II</text>
<polygon fill="none" stroke="black" points="120.5,-4.38 120.5,-31.62 190.5,-31.62 190.5,-4.38 120.5,-4.38"/>
</g>
<!-- n_2_3&#45;&gt;n_3 -->
<g id="edge6" class="edge">
<title>n_2_3&#45;&gt;n_3</title>
<path fill="none" stroke="black" d="M142.97,-79.29C144.93,-69.87 147.43,-57.86 149.67,-47.04"/>
<polygon fill="black" stroke="black" points="153.06,-47.93 151.67,-37.42 146.21,-46.5 153.06,-47.93"/>
</g>
<!-- n_4 -->
<g id="node9" class="node">
<title>n_4</title>
<polygon fill="none" stroke="black" points="266.5,-5.38 266.5,-30.62 316.5,-30.62 316.5,-5.38 266.5,-5.38"/>
<text text-anchor="start" x="273.5" y="-16.07" font-family="Times New Roman,serif" font-weight="bold" font-size="9.00">Obesity I</text>
<polygon fill="none" stroke="black" points="265.5,-4.38 265.5,-31.62 317.5,-31.62 317.5,-4.38 265.5,-4.38"/>
</g>
<!-- n_4_6&#45;&gt;n_4 -->
<g id="edge8" class="edge">
<title>n_4_6&#45;&gt;n_4</title>
<path fill="none" stroke="black" d="M303.25,-79.29C301.41,-69.87 299.07,-57.86 296.96,-47.04"/>
<polygon fill="black" stroke="black" points="300.44,-46.57 295.09,-37.43 293.57,-47.91 300.44,-46.57"/>
</g>
<!-- n_6 -->
<g id="node10" class="node">
<title>n_6</title>
<polygon fill="none" stroke="black" points="363.5,-5.38 363.5,-30.62 419.5,-30.62 419.5,-5.38 363.5,-5.38"/>
<text text-anchor="start" x="370.5" y="-16.07" font-family="Times New Roman,serif" font-weight="bold" font-size="9.00">Obesity III</text>
<polygon fill="none" stroke="black" points="362.5,-4.38 362.5,-31.62 420.5,-31.62 420.5,-4.38 362.5,-4.38"/>
</g>
<!-- n_4_6&#45;&gt;n_6 -->
<g id="edge9" class="edge">
<title>n_4_6&#45;&gt;n_6</title>
<path fill="none" stroke="black" d="M324.94,-79.29C336.45,-68.87 351.46,-55.27 364.31,-43.63"/>
<polygon fill="black" stroke="black" points="366.62,-46.26 371.68,-36.96 361.92,-41.08 366.62,-46.26"/>
</g>
</g>
</svg>
