<?xml version="1.0" encoding="UTF-8" standalone="no"?>
<!DOCTYPE svg PUBLIC "-//W3C//DTD SVG 1.1//EN"
 "http://www.w3.org/Graphics/SVG/1.1/DTD/svg11.dtd">
<!-- Generated by graphviz version 10.0.1 (20240210.2158)
 -->
<!-- Title: ND Pages: 1 -->
<svg width="570pt" height="638pt"
 viewBox="0.00 0.00 570.12 638.00" xmlns="http://www.w3.org/2000/svg" xmlns:xlink="http://www.w3.org/1999/xlink">
<g id="graph0" class="graph" transform="scale(1 1) rotate(0) translate(4 634)">
<title>ND</title>
<polygon fill="white" stroke="none" points="-4,4 -4,-634 566.12,-634 566.12,4 -4,4"/>
<!-- n_0_1_2_3_4_5_6 -->
<g id="node1" class="node">
<title>n_0_1_2_3_4_5_6</title>
<polygon fill="none" stroke="black" points="351.88,-557 351.88,-625 419.88,-625 419.88,-557 351.88,-557"/>
<text text-anchor="start" x="370.88" y="-610.45" font-family="Times New Roman,serif" font-weight="bold" font-size="9.00">Normal</text>
<text text-anchor="start" x="360.38" y="-601.45" font-family="Times New Roman,serif" font-weight="bold" font-size="9.00">Overweight I</text>
<text text-anchor="start" x="358.88" y="-592.45" font-family="Times New Roman,serif" font-weight="bold" font-size="9.00">Overweight II</text>
<text text-anchor="start" x="367.88" y="-583.45" font-family="Times New Roman,serif" font-weight="bold" font-size="9.00">Obesity I</text>
<text text-anchor="start" x="366.38" y="-574.45" font-family="Times New Roman,serif" font-weight="bold" font-size="9.00">Obesity II</text>
<text text-anchor="start" x="364.88" y="-565.45" font-family="Times New Roman,serif" font-weight="bold" font-size="9.00">Obesity III</text>
<polygon fill="none" stroke="black" points="419.88,-557 419.88,-625 508.12,-625 508.12,-557 419.88,-557"/>
<text text-anchor="start" x="426.88" y="-589.08" font-family="Times New Roman,serif" font-weight="bold" font-size="9.00">Insufficient weight</text>
<polygon fill="none" stroke="black" points="350.88,-556 350.88,-626 509.12,-626 509.12,-556 350.88,-556"/>
</g>
<!-- n_1_2_3_4_5_6 -->
<g id="node2" class="node">
<title>n_1_2_3_4_5_6</title>
<polygon fill="none" stroke="black" points="284.5,-445 284.5,-504 352.5,-504 352.5,-445 284.5,-445"/>
<text text-anchor="start" x="303.5" y="-489.45" font-family="Times New Roman,serif" font-weight="bold" font-size="9.00">Normal</text>
<text text-anchor="start" x="291.5" y="-480.45" font-family="Times New Roman,serif" font-weight="bold" font-size="9.00">Overweight II</text>
<text text-anchor="start" x="300.5" y="-471.45" font-family="Times New Roman,serif" font-weight="bold" font-size="9.00">Obesity I</text>
<text text-anchor="start" x="299" y="-462.45" font-family="Times New Roman,serif" font-weight="bold" font-size="9.00">Obesity II</text>
<text text-anchor="start" x="297.5" y="-453.45" font-family="Times New Roman,serif" font-weight="bold" font-size="9.00">Obesity III</text>
<polygon fill="none" stroke="black" points="352.5,-445 352.5,-504 417.5,-504 417.5,-445 352.5,-445"/>
<text text-anchor="start" x="359.5" y="-472.57" font-family="Times New Roman,serif" font-weight="bold" font-size="9.00">Overweight I</text>
<polygon fill="none" stroke="black" points="283.5,-444 283.5,-505 418.5,-505 418.5,-444 283.5,-444"/>
</g>
<!-- n_0_1_2_3_4_5_6&#45;&gt;n_1_2_3_4_5_6 -->
<g id="edge1" class="edge">
<title>n_0_1_2_3_4_5_6&#45;&gt;n_1_2_3_4_5_6</title>
<path fill="none" stroke="black" d="M403.91,-552.19C396.33,-541.2 388,-529.12 380.23,-517.87"/>
<polygon fill="black" stroke="black" points="383.29,-516.14 374.73,-509.9 377.53,-520.12 383.29,-516.14"/>
</g>
<!-- n_0 -->
<g id="node13" class="node">
<title>n_0</title>
<polygon fill="none" stroke="black" points="464.88,-461.88 464.88,-487.12 553.12,-487.12 553.12,-461.88 464.88,-461.88"/>
<text text-anchor="start" x="471.88" y="-472.57" font-family="Times New Roman,serif" font-weight="bold" font-size="9.00">Insufficient weight</text>
<polygon fill="none" stroke="black" points="463.88,-460.88 463.88,-488.12 554.12,-488.12 554.12,-460.88 463.88,-460.88"/>
</g>
<!-- n_0_1_2_3_4_5_6&#45;&gt;n_0 -->
<g id="edge12" class="edge">
<title>n_0_1_2_3_4_5_6&#45;&gt;n_0</title>
<path fill="none" stroke="black" d="M456.09,-552.19C467.52,-535.63 480.64,-516.6 490.97,-501.64"/>
<polygon fill="black" stroke="black" points="493.64,-503.93 496.44,-493.71 487.88,-499.95 493.64,-503.93"/>
</g>
<!-- n_1_3_4_5_6 -->
<g id="node3" class="node">
<title>n_1_3_4_5_6</title>
<polygon fill="none" stroke="black" points="220.5,-342 220.5,-392 288.5,-392 288.5,-342 220.5,-342"/>
<text text-anchor="start" x="239.5" y="-377.45" font-family="Times New Roman,serif" font-weight="bold" font-size="9.00">Normal</text>
<text text-anchor="start" x="227.5" y="-368.45" font-family="Times New Roman,serif" font-weight="bold" font-size="9.00">Overweight II</text>
<text text-anchor="start" x="236.5" y="-359.45" font-family="Times New Roman,serif" font-weight="bold" font-size="9.00">Obesity I</text>
<text text-anchor="start" x="233.5" y="-350.45" font-family="Times New Roman,serif" font-weight="bold" font-size="9.00">Obesity III</text>
<polygon fill="none" stroke="black" points="288.5,-342 288.5,-392 341.5,-392 341.5,-342 288.5,-342"/>
<text text-anchor="start" x="295.5" y="-365.07" font-family="Times New Roman,serif" font-weight="bold" font-size="9.00">Obesity II</text>
<polygon fill="none" stroke="black" points="219.5,-341 219.5,-393 342.5,-393 342.5,-341 219.5,-341"/>
</g>
<!-- n_1_2_3_4_5_6&#45;&gt;n_1_3_4_5_6 -->
<g id="edge2" class="edge">
<title>n_1_2_3_4_5_6&#45;&gt;n_1_3_4_5_6</title>
<path fill="none" stroke="black" d="M328.85,-440.12C321.73,-429.38 313.78,-417.4 306.43,-406.33"/>
<polygon fill="black" stroke="black" points="309.46,-404.56 301.01,-398.16 303.62,-408.43 309.46,-404.56"/>
</g>
<!-- n_2 -->
<g id="node12" class="node">
<title>n_2</title>
<polygon fill="none" stroke="black" points="388.5,-354.38 388.5,-379.62 453.5,-379.62 453.5,-354.38 388.5,-354.38"/>
<text text-anchor="start" x="395.5" y="-365.07" font-family="Times New Roman,serif" font-weight="bold" font-size="9.00">Overweight I</text>
<polygon fill="none" stroke="black" points="387.5,-353.38 387.5,-380.62 454.5,-380.62 454.5,-353.38 387.5,-353.38"/>
</g>
<!-- n_1_2_3_4_5_6&#45;&gt;n_2 -->
<g id="edge11" class="edge">
<title>n_1_2_3_4_5_6&#45;&gt;n_2</title>
<path fill="none" stroke="black" d="M373.15,-440.12C382.95,-425.35 394.31,-408.23 403.5,-394.38"/>
<polygon fill="black" stroke="black" points="406.3,-396.48 408.92,-386.21 400.47,-392.61 406.3,-396.48"/>
</g>
<!-- n_1_3_4_6 -->
<g id="node4" class="node">
<title>n_1_3_4_6</title>
<polygon fill="none" stroke="black" points="151,-248 151,-289 219,-289 219,-248 151,-248"/>
<text text-anchor="start" x="170" y="-274.45" font-family="Times New Roman,serif" font-weight="bold" font-size="9.00">Normal</text>
<text text-anchor="start" x="158" y="-265.45" font-family="Times New Roman,serif" font-weight="bold" font-size="9.00">Overweight II</text>
<text text-anchor="start" x="167" y="-256.45" font-family="Times New Roman,serif" font-weight="bold" font-size="9.00">Obesity I</text>
<polygon fill="none" stroke="black" points="219,-248 219,-289 275,-289 275,-248 219,-248"/>
<text text-anchor="start" x="226" y="-266.57" font-family="Times New Roman,serif" font-weight="bold" font-size="9.00">Obesity III</text>
<polygon fill="none" stroke="black" points="150,-247 150,-290 276,-290 276,-247 150,-247"/>
</g>
<!-- n_1_3_4_5_6&#45;&gt;n_1_3_4_6 -->
<g id="edge3" class="edge">
<title>n_1_3_4_5_6&#45;&gt;n_1_3_4_6</title>
<path fill="none" stroke="black" d="M260.6,-337.05C253.09,-326.4 244.53,-314.25 236.76,-303.22"/>
<polygon fill="black" stroke="black" points="239.67,-301.27 231.05,-295.11 233.95,-305.3 239.67,-301.27"/>
</g>
<!-- n_5 -->
<g id="node11" class="node">
<title>n_5</title>
<polygon fill="none" stroke="black" points="322.5,-255.88 322.5,-281.12 375.5,-281.12 375.5,-255.88 322.5,-255.88"/>
<text text-anchor="start" x="329.5" y="-266.57" font-family="Times New Roman,serif" font-weight="bold" font-size="9.00">Obesity II</text>
<polygon fill="none" stroke="black" points="321.5,-254.88 321.5,-282.12 376.5,-282.12 376.5,-254.88 321.5,-254.88"/>
</g>
<!-- n_1_3_4_5_6&#45;&gt;n_5 -->
<g id="edge10" class="edge">
<title>n_1_3_4_5_6&#45;&gt;n_5</title>
<path fill="none" stroke="black" d="M301.4,-337.05C310.69,-323.86 321.6,-308.38 330.63,-295.56"/>
<polygon fill="black" stroke="black" points="333.34,-297.79 336.24,-287.6 327.62,-293.76 333.34,-297.79"/>
</g>
<!-- n_1_3_4 -->
<g id="node5" class="node">
<title>n_1_3_4</title>
<polygon fill="none" stroke="black" points="87,-163 87,-195 155,-195 155,-163 87,-163"/>
<text text-anchor="start" x="106" y="-180.45" font-family="Times New Roman,serif" font-weight="bold" font-size="9.00">Normal</text>
<text text-anchor="start" x="94" y="-171.45" font-family="Times New Roman,serif" font-weight="bold" font-size="9.00">Overweight II</text>
<polygon fill="none" stroke="black" points="155,-163 155,-195 205,-195 205,-163 155,-163"/>
<text text-anchor="start" x="162" y="-177.07" font-family="Times New Roman,serif" font-weight="bold" font-size="9.00">Obesity I</text>
<polygon fill="none" stroke="black" points="86,-162 86,-196 206,-196 206,-162 86,-162"/>
</g>
<!-- n_1_3_4_6&#45;&gt;n_1_3_4 -->
<g id="edge4" class="edge">
<title>n_1_3_4_6&#45;&gt;n_1_3_4</title>
<path fill="none" stroke="black" d="M194.34,-243.13C186.17,-232.46 176.53,-219.87 168.01,-208.75"/>
<polygon fill="black" stroke="black" points="170.96,-206.84 162.1,-201.03 165.4,-211.1 170.96,-206.84"/>
</g>
<!-- n_6 -->
<g id="node10" class="node">
<title>n_6</title>
<polygon fill="none" stroke="black" points="252,-166.38 252,-191.62 308,-191.62 308,-166.38 252,-166.38"/>
<text text-anchor="start" x="259" y="-177.07" font-family="Times New Roman,serif" font-weight="bold" font-size="9.00">Obesity III</text>
<polygon fill="none" stroke="black" points="251,-165.38 251,-192.62 309,-192.62 309,-165.38 251,-165.38"/>
</g>
<!-- n_1_3_4_6&#45;&gt;n_6 -->
<g id="edge9" class="edge">
<title>n_1_3_4_6&#45;&gt;n_6</title>
<path fill="none" stroke="black" d="M231.66,-243.13C240.58,-231.48 251.27,-217.53 260.32,-205.71"/>
<polygon fill="black" stroke="black" points="262.94,-208.04 266.24,-197.97 257.38,-203.78 262.94,-208.04"/>
</g>
<!-- n_1_3 -->
<g id="node6" class="node">
<title>n_1_3</title>
<polygon fill="none" stroke="black" points="26,-84.38 26,-109.62 70,-109.62 70,-84.38 26,-84.38"/>
<text text-anchor="start" x="33" y="-95.08" font-family="Times New Roman,serif" font-weight="bold" font-size="9.00">Normal</text>
<polygon fill="none" stroke="black" points="70,-84.38 70,-109.62 138,-109.62 138,-84.38 70,-84.38"/>
<text text-anchor="start" x="77" y="-95.08" font-family="Times New Roman,serif" font-weight="bold" font-size="9.00">Overweight II</text>
<polygon fill="none" stroke="black" points="25,-83.38 25,-110.62 139,-110.62 139,-83.38 25,-83.38"/>
</g>
<!-- n_1_3_4&#45;&gt;n_1_3 -->
<g id="edge5" class="edge">
<title>n_1_3_4&#45;&gt;n_1_3</title>
<path fill="none" stroke="black" d="M130.18,-158.22C121.85,-147.81 111.54,-134.92 102.59,-123.74"/>
<polygon fill="black" stroke="black" points="105.4,-121.65 96.42,-116.03 99.93,-126.02 105.4,-121.65"/>
</g>
<!-- n_4 -->
<g id="node9" class="node">
<title>n_4</title>
<polygon fill="none" stroke="black" points="185,-84.38 185,-109.62 235,-109.62 235,-84.38 185,-84.38"/>
<text text-anchor="start" x="192" y="-95.08" font-family="Times New Roman,serif" font-weight="bold" font-size="9.00">Obesity I</text>
<polygon fill="none" stroke="black" points="184,-83.38 184,-110.62 236,-110.62 236,-83.38 184,-83.38"/>
</g>
<!-- n_1_3_4&#45;&gt;n_4 -->
<g id="edge8" class="edge">
<title>n_1_3_4&#45;&gt;n_4</title>
<path fill="none" stroke="black" d="M161.82,-158.22C170.15,-147.81 180.46,-134.92 189.41,-123.74"/>
<polygon fill="black" stroke="black" points="192.07,-126.02 195.58,-116.03 186.6,-121.65 192.07,-126.02"/>
</g>
<!-- n_1 -->
<g id="node7" class="node">
<title>n_1</title>
<polygon fill="none" stroke="black" points="9,-5.38 9,-30.62 53,-30.62 53,-5.38 9,-5.38"/>
<text text-anchor="start" x="16" y="-16.07" font-family="Times New Roman,serif" font-weight="bold" font-size="9.00">Normal</text>
<polygon fill="none" stroke="black" points="8,-4.38 8,-31.62 54,-31.62 54,-4.38 8,-4.38"/>
</g>
<!-- n_1_3&#45;&gt;n_1 -->
<g id="edge6" class="edge">
<title>n_1_3&#45;&gt;n_1</title>
<path fill="none" stroke="black" d="M70.93,-79.29C64.36,-69.37 55.89,-56.57 48.43,-45.32"/>
<polygon fill="black" stroke="black" points="51.5,-43.61 43.06,-37.2 45.66,-47.47 51.5,-43.61"/>
</g>
<!-- n_3 -->
<g id="node8" class="node">
<title>n_3</title>
<polygon fill="none" stroke="black" points="100,-5.38 100,-30.62 168,-30.62 168,-5.38 100,-5.38"/>
<text text-anchor="start" x="107" y="-16.07" font-family="Times New Roman,serif" font-weight="bold" font-size="9.00">Overweight II</text>
<polygon fill="none" stroke="black" points="99,-4.38 99,-31.62 169,-31.62 169,-4.38 99,-4.38"/>
</g>
<!-- n_1_3&#45;&gt;n_3 -->
<g id="edge7" class="edge">
<title>n_1_3&#45;&gt;n_3</title>
<path fill="none" stroke="black" d="M93.28,-79.29C99.98,-69.37 108.63,-56.57 116.23,-45.32"/>
<polygon fill="black" stroke="black" points="119.02,-47.44 121.71,-37.2 113.22,-43.52 119.02,-47.44"/>
</g>
</g>
</svg>
