<?xml version="1.0" encoding="UTF-8" standalone="no"?>
<!DOCTYPE svg PUBLIC "-//W3C//DTD SVG 1.1//EN"
 "http://www.w3.org/Graphics/SVG/1.1/DTD/svg11.dtd">
<!-- Generated by graphviz version 10.0.1 (20240210.2158)
 -->
<!-- Title: ND Pages: 1 -->
<svg width="578pt" height="526pt"
 viewBox="0.00 0.00 578.00 526.00" xmlns="http://www.w3.org/2000/svg" xmlns:xlink="http://www.w3.org/1999/xlink">
<g id="graph0" class="graph" transform="scale(1 1) rotate(0) translate(4 522)">
<title>ND</title>
<polygon fill="white" stroke="none" points="-4,4 -4,-522 574,-522 574,4 -4,4"/>
<!-- n_0_1_2_3_4_5_6 -->
<g id="node1" class="node">
<title>n_0_1_2_3_4_5_6</title>
<polygon fill="none" stroke="black" points="358.88,-445 358.88,-513 426.88,-513 426.88,-445 358.88,-445"/>
<text text-anchor="start" x="377.88" y="-498.45" font-family="Times New Roman,serif" font-weight="bold" font-size="9.00">Normal</text>
<text text-anchor="start" x="367.38" y="-489.45" font-family="Times New Roman,serif" font-weight="bold" font-size="9.00">Overweight I</text>
<text text-anchor="start" x="365.88" y="-480.45" font-family="Times New Roman,serif" font-weight="bold" font-size="9.00">Overweight II</text>
<text text-anchor="start" x="374.88" y="-471.45" font-family="Times New Roman,serif" font-weight="bold" font-size="9.00">Obesity I</text>
<text text-anchor="start" x="373.38" y="-462.45" font-family="Times New Roman,serif" font-weight="bold" font-size="9.00">Obesity II</text>
<text text-anchor="start" x="371.88" y="-453.45" font-family="Times New Roman,serif" font-weight="bold" font-size="9.00">Obesity III</text>
<polygon fill="none" stroke="black" points="426.88,-445 426.88,-513 515.12,-513 515.12,-445 426.88,-445"/>
<text text-anchor="start" x="433.88" y="-477.07" font-family="Times New Roman,serif" font-weight="bold" font-size="9.00">Insufficient weight</text>
<polygon fill="none" stroke="black" points="357.88,-444 357.88,-514 516.12,-514 516.12,-444 357.88,-444"/>
</g>
<!-- n_1_2_3_4_5_6 -->
<g id="node2" class="node">
<title>n_1_2_3_4_5_6</title>
<polygon fill="none" stroke="black" points="291.5,-342 291.5,-392 359.5,-392 359.5,-342 291.5,-342"/>
<text text-anchor="start" x="310.5" y="-377.45" font-family="Times New Roman,serif" font-weight="bold" font-size="9.00">Normal</text>
<text text-anchor="start" x="298.5" y="-368.45" font-family="Times New Roman,serif" font-weight="bold" font-size="9.00">Overweight II</text>
<text text-anchor="start" x="307.5" y="-359.45" font-family="Times New Roman,serif" font-weight="bold" font-size="9.00">Obesity I</text>
<text text-anchor="start" x="306" y="-350.45" font-family="Times New Roman,serif" font-weight="bold" font-size="9.00">Obesity II</text>
<polygon fill="none" stroke="black" points="359.5,-342 359.5,-392 424.5,-392 424.5,-342 359.5,-342"/>
<text text-anchor="start" x="366.5" y="-368.45" font-family="Times New Roman,serif" font-weight="bold" font-size="9.00">Overweight I</text>
<text text-anchor="start" x="371" y="-359.45" font-family="Times New Roman,serif" font-weight="bold" font-size="9.00">Obesity III</text>
<polygon fill="none" stroke="black" points="290.5,-341 290.5,-393 425.5,-393 425.5,-341 290.5,-341"/>
</g>
<!-- n_0_1_2_3_4_5_6&#45;&gt;n_1_2_3_4_5_6 -->
<g id="edge1" class="edge">
<title>n_0_1_2_3_4_5_6&#45;&gt;n_1_2_3_4_5_6</title>
<path fill="none" stroke="black" d="M409.81,-440.14C401.94,-429.19 393.35,-417.22 385.46,-406.23"/>
<polygon fill="black" stroke="black" points="388.31,-404.2 379.63,-398.12 382.62,-408.28 388.31,-404.2"/>
</g>
<!-- n_0 -->
<g id="node13" class="node">
<title>n_0</title>
<polygon fill="none" stroke="black" points="471.88,-354.38 471.88,-379.62 560.12,-379.62 560.12,-354.38 471.88,-354.38"/>
<text text-anchor="start" x="478.88" y="-365.07" font-family="Times New Roman,serif" font-weight="bold" font-size="9.00">Insufficient weight</text>
<polygon fill="none" stroke="black" points="470.88,-353.38 470.88,-380.62 561.12,-380.62 561.12,-353.38 470.88,-353.38"/>
</g>
<!-- n_0_1_2_3_4_5_6&#45;&gt;n_0 -->
<g id="edge12" class="edge">
<title>n_0_1_2_3_4_5_6&#45;&gt;n_0</title>
<path fill="none" stroke="black" d="M464.19,-440.14C475.03,-425.04 487.26,-408.02 497.11,-394.31"/>
<polygon fill="black" stroke="black" points="499.93,-396.38 502.92,-386.21 494.24,-392.29 499.93,-396.38"/>
</g>
<!-- n_1_3_4_5 -->
<g id="node3" class="node">
<title>n_1_3_4_5</title>
<polygon fill="none" stroke="black" points="220,-248 220,-289 288,-289 288,-248 220,-248"/>
<text text-anchor="start" x="227" y="-274.45" font-family="Times New Roman,serif" font-weight="bold" font-size="9.00">Overweight II</text>
<text text-anchor="start" x="236" y="-265.45" font-family="Times New Roman,serif" font-weight="bold" font-size="9.00">Obesity I</text>
<text text-anchor="start" x="234.5" y="-256.45" font-family="Times New Roman,serif" font-weight="bold" font-size="9.00">Obesity II</text>
<polygon fill="none" stroke="black" points="288,-248 288,-289 332,-289 332,-248 288,-248"/>
<text text-anchor="start" x="295" y="-266.57" font-family="Times New Roman,serif" font-weight="bold" font-size="9.00">Normal</text>
<polygon fill="none" stroke="black" points="219,-247 219,-290 333,-290 333,-247 219,-247"/>
</g>
<!-- n_1_2_3_4_5_6&#45;&gt;n_1_3_4_5 -->
<g id="edge2" class="edge">
<title>n_1_2_3_4_5_6&#45;&gt;n_1_3_4_5</title>
<path fill="none" stroke="black" d="M333.4,-337.05C324.17,-326.18 313.61,-313.76 304.08,-302.55"/>
<polygon fill="black" stroke="black" points="306.83,-300.38 297.69,-295.03 301.5,-304.91 306.83,-300.38"/>
</g>
<!-- n_2_6 -->
<g id="node10" class="node">
<title>n_2_6</title>
<polygon fill="none" stroke="black" points="379.5,-255.88 379.5,-281.12 444.5,-281.12 444.5,-255.88 379.5,-255.88"/>
<text text-anchor="start" x="386.5" y="-266.57" font-family="Times New Roman,serif" font-weight="bold" font-size="9.00">Overweight I</text>
<polygon fill="none" stroke="black" points="444.5,-255.88 444.5,-281.12 500.5,-281.12 500.5,-255.88 444.5,-255.88"/>
<text text-anchor="start" x="451.5" y="-266.57" font-family="Times New Roman,serif" font-weight="bold" font-size="9.00">Obesity III</text>
<polygon fill="none" stroke="black" points="378.5,-254.88 378.5,-282.12 501.5,-282.12 501.5,-254.88 378.5,-254.88"/>
</g>
<!-- n_1_2_3_4_5_6&#45;&gt;n_2_6 -->
<g id="edge9" class="edge">
<title>n_1_2_3_4_5_6&#45;&gt;n_2_6</title>
<path fill="none" stroke="black" d="M382.6,-337.05C394.02,-323.6 407.48,-307.77 418.49,-294.81"/>
<polygon fill="black" stroke="black" points="420.88,-297.41 424.69,-287.52 415.55,-292.87 420.88,-297.41"/>
</g>
<!-- n_3_4_5 -->
<g id="node4" class="node">
<title>n_3_4_5</title>
<polygon fill="none" stroke="black" points="101.5,-163 101.5,-195 169.5,-195 169.5,-163 101.5,-163"/>
<text text-anchor="start" x="108.5" y="-180.45" font-family="Times New Roman,serif" font-weight="bold" font-size="9.00">Overweight II</text>
<text text-anchor="start" x="117.5" y="-171.45" font-family="Times New Roman,serif" font-weight="bold" font-size="9.00">Obesity I</text>
<polygon fill="none" stroke="black" points="169.5,-163 169.5,-195 222.5,-195 222.5,-163 169.5,-163"/>
<text text-anchor="start" x="176.5" y="-177.07" font-family="Times New Roman,serif" font-weight="bold" font-size="9.00">Obesity II</text>
<polygon fill="none" stroke="black" points="100.5,-162 100.5,-196 223.5,-196 223.5,-162 100.5,-162"/>
</g>
<!-- n_1_3_4_5&#45;&gt;n_3_4_5 -->
<g id="edge3" class="edge">
<title>n_1_3_4_5&#45;&gt;n_3_4_5</title>
<path fill="none" stroke="black" d="M244.24,-243.13C229.51,-231.82 211.96,-218.35 196.87,-206.76"/>
<polygon fill="black" stroke="black" points="199.09,-204.06 189.03,-200.75 194.83,-209.61 199.09,-204.06"/>
</g>
<!-- n_1 -->
<g id="node9" class="node">
<title>n_1</title>
<polygon fill="none" stroke="black" points="270,-166.38 270,-191.62 314,-191.62 314,-166.38 270,-166.38"/>
<text text-anchor="start" x="277" y="-177.07" font-family="Times New Roman,serif" font-weight="bold" font-size="9.00">Normal</text>
<polygon fill="none" stroke="black" points="269,-165.38 269,-192.62 315,-192.62 315,-165.38 269,-165.38"/>
</g>
<!-- n_1_3_4_5&#45;&gt;n_1 -->
<g id="edge8" class="edge">
<title>n_1_3_4_5&#45;&gt;n_1</title>
<path fill="none" stroke="black" d="M280.46,-243.13C282.46,-232.17 284.84,-219.18 286.91,-207.84"/>
<polygon fill="black" stroke="black" points="290.31,-208.73 288.66,-198.26 283.42,-207.47 290.31,-208.73"/>
</g>
<!-- n_3_4 -->
<g id="node5" class="node">
<title>n_3_4</title>
<polygon fill="none" stroke="black" points="37,-84.38 37,-109.62 105,-109.62 105,-84.38 37,-84.38"/>
<text text-anchor="start" x="44" y="-95.08" font-family="Times New Roman,serif" font-weight="bold" font-size="9.00">Overweight II</text>
<polygon fill="none" stroke="black" points="105,-84.38 105,-109.62 155,-109.62 155,-84.38 105,-84.38"/>
<text text-anchor="start" x="112" y="-95.08" font-family="Times New Roman,serif" font-weight="bold" font-size="9.00">Obesity I</text>
<polygon fill="none" stroke="black" points="36,-83.38 36,-110.62 156,-110.62 156,-83.38 36,-83.38"/>
</g>
<!-- n_3_4_5&#45;&gt;n_3_4 -->
<g id="edge4" class="edge">
<title>n_3_4_5&#45;&gt;n_3_4</title>
<path fill="none" stroke="black" d="M145.69,-158.22C137.01,-147.71 126.25,-134.66 116.96,-123.41"/>
<polygon fill="black" stroke="black" points="119.92,-121.5 110.86,-116.01 114.52,-125.95 119.92,-121.5"/>
</g>
<!-- n_5 -->
<g id="node8" class="node">
<title>n_5</title>
<polygon fill="none" stroke="black" points="202.5,-84.38 202.5,-109.62 255.5,-109.62 255.5,-84.38 202.5,-84.38"/>
<text text-anchor="start" x="209.5" y="-95.08" font-family="Times New Roman,serif" font-weight="bold" font-size="9.00">Obesity II</text>
<polygon fill="none" stroke="black" points="201.5,-83.38 201.5,-110.62 256.5,-110.62 256.5,-83.38 201.5,-83.38"/>
</g>
<!-- n_3_4_5&#45;&gt;n_5 -->
<g id="edge7" class="edge">
<title>n_3_4_5&#45;&gt;n_5</title>
<path fill="none" stroke="black" d="M178.56,-158.22C187.37,-147.71 198.29,-134.66 207.72,-123.41"/>
<polygon fill="black" stroke="black" points="210.18,-125.92 213.92,-116 204.82,-121.42 210.18,-125.92"/>
</g>
<!-- n_3 -->
<g id="node6" class="node">
<title>n_3</title>
<polygon fill="none" stroke="black" points="9,-5.38 9,-30.62 77,-30.62 77,-5.38 9,-5.38"/>
<text text-anchor="start" x="16" y="-16.07" font-family="Times New Roman,serif" font-weight="bold" font-size="9.00">Overweight II</text>
<polygon fill="none" stroke="black" points="8,-4.38 8,-31.62 78,-31.62 78,-4.38 8,-4.38"/>
</g>
<!-- n_3_4&#45;&gt;n_3 -->
<g id="edge5" class="edge">
<title>n_3_4&#45;&gt;n_3</title>
<path fill="none" stroke="black" d="M84.5,-79.29C77.67,-69.37 68.86,-56.57 61.12,-45.32"/>
<polygon fill="black" stroke="black" points="64.07,-43.44 55.52,-37.19 58.31,-47.41 64.07,-43.44"/>
</g>
<!-- n_4 -->
<g id="node7" class="node">
<title>n_4</title>
<polygon fill="none" stroke="black" points="124,-5.38 124,-30.62 174,-30.62 174,-5.38 124,-5.38"/>
<text text-anchor="start" x="131" y="-16.07" font-family="Times New Roman,serif" font-weight="bold" font-size="9.00">Obesity I</text>
<polygon fill="none" stroke="black" points="123,-4.38 123,-31.62 175,-31.62 175,-4.38 123,-4.38"/>
</g>
<!-- n_3_4&#45;&gt;n_4 -->
<g id="edge6" class="edge">
<title>n_3_4&#45;&gt;n_4</title>
<path fill="none" stroke="black" d="M107.5,-79.29C114.33,-69.37 123.14,-56.57 130.88,-45.32"/>
<polygon fill="black" stroke="black" points="133.69,-47.41 136.48,-37.19 127.93,-43.44 133.69,-47.41"/>
</g>
<!-- n_2 -->
<g id="node11" class="node">
<title>n_2</title>
<polygon fill="none" stroke="black" points="392.5,-166.38 392.5,-191.62 457.5,-191.62 457.5,-166.38 392.5,-166.38"/>
<text text-anchor="start" x="399.5" y="-177.07" font-family="Times New Roman,serif" font-weight="bold" font-size="9.00">Overweight I</text>
<polygon fill="none" stroke="black" points="391.5,-165.38 391.5,-192.62 458.5,-192.62 458.5,-165.38 391.5,-165.38"/>
</g>
<!-- n_2_6&#45;&gt;n_2 -->
<g id="edge10" class="edge">
<title>n_2_6&#45;&gt;n_2</title>
<path fill="none" stroke="black" d="M437.11,-250.63C435.03,-238.52 432.19,-221.94 429.78,-207.88"/>
<polygon fill="black" stroke="black" points="433.28,-207.58 428.14,-198.31 426.38,-208.76 433.28,-207.58"/>
</g>
<!-- n_6 -->
<g id="node12" class="node">
<title>n_6</title>
<polygon fill="none" stroke="black" points="505,-166.38 505,-191.62 561,-191.62 561,-166.38 505,-166.38"/>
<text text-anchor="start" x="512" y="-177.07" font-family="Times New Roman,serif" font-weight="bold" font-size="9.00">Obesity III</text>
<polygon fill="none" stroke="black" points="504,-165.38 504,-192.62 562,-192.62 562,-165.38 504,-165.38"/>
</g>
<!-- n_2_6&#45;&gt;n_6 -->
<g id="edge11" class="edge">
<title>n_2_6&#45;&gt;n_6</title>
<path fill="none" stroke="black" d="M457.93,-250.63C471.83,-237.56 491.28,-219.25 506.9,-204.56"/>
<polygon fill="black" stroke="black" points="509.14,-207.26 514.02,-197.86 504.34,-202.16 509.14,-207.26"/>
</g>
</g>
</svg>
