<?xml version="1.0" encoding="UTF-8" standalone="no"?>
<!DOCTYPE svg PUBLIC "-//W3C//DTD SVG 1.1//EN"
 "http://www.w3.org/Graphics/SVG/1.1/DTD/svg11.dtd">
<!-- Generated by graphviz version 10.0.1 (20240210.2158)
 -->
<!-- Title: ND Pages: 1 -->
<svg width="696pt" height="414pt"
 viewBox="0.00 0.00 695.50 414.00" xmlns="http://www.w3.org/2000/svg" xmlns:xlink="http://www.w3.org/1999/xlink">
<g id="graph0" class="graph" transform="scale(1 1) rotate(0) translate(4 410)">
<title>ND</title>
<polygon fill="white" stroke="none" points="-4,4 -4,-410 691.5,-410 691.5,4 -4,4"/>
<!-- n_0_1_2_3_4_5_6 -->
<g id="node1" class="node">
<title>n_0_1_2_3_4_5_6</title>
<polygon fill="none" stroke="black" points="388.88,-342 388.88,-401 477.12,-401 477.12,-342 388.88,-342"/>
<text text-anchor="start" x="395.88" y="-386.45" font-family="Times New Roman,serif" font-weight="bold" font-size="9.00">Insufficient weight</text>
<text text-anchor="start" x="418" y="-377.45" font-family="Times New Roman,serif" font-weight="bold" font-size="9.00">Normal</text>
<text text-anchor="start" x="406" y="-368.45" font-family="Times New Roman,serif" font-weight="bold" font-size="9.00">Overweight II</text>
<text text-anchor="start" x="413.5" y="-359.45" font-family="Times New Roman,serif" font-weight="bold" font-size="9.00">Obesity II</text>
<text text-anchor="start" x="412" y="-350.45" font-family="Times New Roman,serif" font-weight="bold" font-size="9.00">Obesity III</text>
<polygon fill="none" stroke="black" points="477.12,-342 477.12,-401 542.12,-401 542.12,-342 477.12,-342"/>
<text text-anchor="start" x="484.12" y="-372.95" font-family="Times New Roman,serif" font-weight="bold" font-size="9.00">Overweight I</text>
<text text-anchor="start" x="491.62" y="-363.95" font-family="Times New Roman,serif" font-weight="bold" font-size="9.00">Obesity I</text>
<polygon fill="none" stroke="black" points="387.88,-341 387.88,-402 543.12,-402 543.12,-341 387.88,-341"/>
</g>
<!-- n_0_1_3_5_6 -->
<g id="node2" class="node">
<title>n_0_1_3_5_6</title>
<polygon fill="none" stroke="black" points="296.38,-248 296.38,-289 364.38,-289 364.38,-248 296.38,-248"/>
<text text-anchor="start" x="303.38" y="-274.45" font-family="Times New Roman,serif" font-weight="bold" font-size="9.00">Overweight II</text>
<text text-anchor="start" x="310.88" y="-265.45" font-family="Times New Roman,serif" font-weight="bold" font-size="9.00">Obesity II</text>
<text text-anchor="start" x="309.38" y="-256.45" font-family="Times New Roman,serif" font-weight="bold" font-size="9.00">Obesity III</text>
<polygon fill="none" stroke="black" points="364.38,-248 364.38,-289 452.62,-289 452.62,-248 364.38,-248"/>
<text text-anchor="start" x="371.38" y="-269.95" font-family="Times New Roman,serif" font-weight="bold" font-size="9.00">Insufficient weight</text>
<text text-anchor="start" x="393.5" y="-260.95" font-family="Times New Roman,serif" font-weight="bold" font-size="9.00">Normal</text>
<polygon fill="none" stroke="black" points="295.38,-247 295.38,-290 453.62,-290 453.62,-247 295.38,-247"/>
</g>
<!-- n_0_1_2_3_4_5_6&#45;&gt;n_0_1_3_5_6 -->
<g id="edge1" class="edge">
<title>n_0_1_2_3_4_5_6&#45;&gt;n_0_1_3_5_6</title>
<path fill="none" stroke="black" d="M435.45,-337.15C425.3,-325.89 413.99,-313.33 403.89,-302.12"/>
<polygon fill="black" stroke="black" points="406.76,-300.07 397.46,-294.98 401.55,-304.76 406.76,-300.07"/>
</g>
<!-- n_2_4 -->
<g id="node11" class="node">
<title>n_2_4</title>
<polygon fill="none" stroke="black" points="500,-255.88 500,-281.12 565,-281.12 565,-255.88 500,-255.88"/>
<text text-anchor="start" x="507" y="-266.57" font-family="Times New Roman,serif" font-weight="bold" font-size="9.00">Overweight I</text>
<polygon fill="none" stroke="black" points="565,-255.88 565,-281.12 615,-281.12 615,-255.88 565,-255.88"/>
<text text-anchor="start" x="572" y="-266.57" font-family="Times New Roman,serif" font-weight="bold" font-size="9.00">Obesity I</text>
<polygon fill="none" stroke="black" points="499,-254.88 499,-282.12 616,-282.12 616,-254.88 499,-254.88"/>
</g>
<!-- n_0_1_2_3_4_5_6&#45;&gt;n_2_4 -->
<g id="edge10" class="edge">
<title>n_0_1_2_3_4_5_6&#45;&gt;n_2_4</title>
<path fill="none" stroke="black" d="M495.88,-337.15C508.47,-323.33 522.83,-307.57 534.51,-294.74"/>
<polygon fill="black" stroke="black" points="536.96,-297.25 541.1,-287.5 531.78,-292.54 536.96,-297.25"/>
</g>
<!-- n_3_5_6 -->
<g id="node3" class="node">
<title>n_3_5_6</title>
<polygon fill="none" stroke="black" points="147.5,-163 147.5,-195 203.5,-195 203.5,-163 147.5,-163"/>
<text text-anchor="start" x="156" y="-180.45" font-family="Times New Roman,serif" font-weight="bold" font-size="9.00">Obesity II</text>
<text text-anchor="start" x="154.5" y="-171.45" font-family="Times New Roman,serif" font-weight="bold" font-size="9.00">Obesity III</text>
<polygon fill="none" stroke="black" points="203.5,-163 203.5,-195 271.5,-195 271.5,-163 203.5,-163"/>
<text text-anchor="start" x="210.5" y="-177.07" font-family="Times New Roman,serif" font-weight="bold" font-size="9.00">Overweight II</text>
<polygon fill="none" stroke="black" points="146.5,-162 146.5,-196 272.5,-196 272.5,-162 146.5,-162"/>
</g>
<!-- n_0_1_3_5_6&#45;&gt;n_3_5_6 -->
<g id="edge2" class="edge">
<title>n_0_1_3_5_6&#45;&gt;n_3_5_6</title>
<path fill="none" stroke="black" d="M328.54,-243.13C306.29,-231.33 279.61,-217.18 257.15,-205.27"/>
<polygon fill="black" stroke="black" points="258.97,-202.27 248.49,-200.68 255.69,-208.46 258.97,-202.27"/>
</g>
<!-- n_0_1 -->
<g id="node8" class="node">
<title>n_0_1</title>
<polygon fill="none" stroke="black" points="318.38,-166.38 318.38,-191.62 406.62,-191.62 406.62,-166.38 318.38,-166.38"/>
<text text-anchor="start" x="325.38" y="-177.07" font-family="Times New Roman,serif" font-weight="bold" font-size="9.00">Insufficient weight</text>
<polygon fill="none" stroke="black" points="406.62,-166.38 406.62,-191.62 450.62,-191.62 450.62,-166.38 406.62,-166.38"/>
<text text-anchor="start" x="413.62" y="-177.07" font-family="Times New Roman,serif" font-weight="bold" font-size="9.00">Normal</text>
<polygon fill="none" stroke="black" points="317.38,-165.38 317.38,-192.62 451.62,-192.62 451.62,-165.38 317.38,-165.38"/>
</g>
<!-- n_0_1_3_5_6&#45;&gt;n_0_1 -->
<g id="edge7" class="edge">
<title>n_0_1_3_5_6&#45;&gt;n_0_1</title>
<path fill="none" stroke="black" d="M377.29,-243.13C378.52,-232.28 379.99,-219.45 381.28,-208.19"/>
<polygon fill="black" stroke="black" points="384.75,-208.61 382.41,-198.27 377.8,-207.81 384.75,-208.61"/>
</g>
<!-- n_5_6 -->
<g id="node4" class="node">
<title>n_5_6</title>
<polygon fill="none" stroke="black" points="32,-84.38 32,-109.62 85,-109.62 85,-84.38 32,-84.38"/>
<text text-anchor="start" x="39" y="-95.08" font-family="Times New Roman,serif" font-weight="bold" font-size="9.00">Obesity II</text>
<polygon fill="none" stroke="black" points="85,-84.38 85,-109.62 141,-109.62 141,-84.38 85,-84.38"/>
<text text-anchor="start" x="92" y="-95.08" font-family="Times New Roman,serif" font-weight="bold" font-size="9.00">Obesity III</text>
<polygon fill="none" stroke="black" points="31,-83.38 31,-110.62 142,-110.62 142,-83.38 31,-83.38"/>
</g>
<!-- n_3_5_6&#45;&gt;n_5_6 -->
<g id="edge3" class="edge">
<title>n_3_5_6&#45;&gt;n_5_6</title>
<path fill="none" stroke="black" d="M178.78,-158.02C161.49,-146.77 139.82,-132.68 121.83,-120.98"/>
<polygon fill="black" stroke="black" points="123.83,-118.1 113.53,-115.58 120.01,-123.97 123.83,-118.1"/>
</g>
<!-- n_3 -->
<g id="node7" class="node">
<title>n_3</title>
<polygon fill="none" stroke="black" points="188.5,-84.38 188.5,-109.62 256.5,-109.62 256.5,-84.38 188.5,-84.38"/>
<text text-anchor="start" x="195.5" y="-95.08" font-family="Times New Roman,serif" font-weight="bold" font-size="9.00">Overweight II</text>
<polygon fill="none" stroke="black" points="187.5,-83.38 187.5,-110.62 257.5,-110.62 257.5,-83.38 187.5,-83.38"/>
</g>
<!-- n_3_5_6&#45;&gt;n_3 -->
<g id="edge6" class="edge">
<title>n_3_5_6&#45;&gt;n_3</title>
<path fill="none" stroke="black" d="M212.71,-158.22C214.29,-148.54 216.21,-136.72 217.93,-126.11"/>
<polygon fill="black" stroke="black" points="221.37,-126.77 219.52,-116.34 214.46,-125.65 221.37,-126.77"/>
</g>
<!-- n_5 -->
<g id="node5" class="node">
<title>n_5</title>
<polygon fill="none" stroke="black" points="9,-5.38 9,-30.62 62,-30.62 62,-5.38 9,-5.38"/>
<text text-anchor="start" x="16" y="-16.07" font-family="Times New Roman,serif" font-weight="bold" font-size="9.00">Obesity II</text>
<polygon fill="none" stroke="black" points="8,-4.38 8,-31.62 63,-31.62 63,-4.38 8,-4.38"/>
</g>
<!-- n_5_6&#45;&gt;n_5 -->
<g id="edge4" class="edge">
<title>n_5_6&#45;&gt;n_5</title>
<path fill="none" stroke="black" d="M75.43,-79.29C68.86,-69.37 60.39,-56.57 52.93,-45.32"/>
<polygon fill="black" stroke="black" points="56,-43.61 47.56,-37.2 50.16,-47.47 56,-43.61"/>
</g>
<!-- n_6 -->
<g id="node6" class="node">
<title>n_6</title>
<polygon fill="none" stroke="black" points="109.5,-5.38 109.5,-30.62 165.5,-30.62 165.5,-5.38 109.5,-5.38"/>
<text text-anchor="start" x="116.5" y="-16.07" font-family="Times New Roman,serif" font-weight="bold" font-size="9.00">Obesity III</text>
<polygon fill="none" stroke="black" points="108.5,-4.38 108.5,-31.62 166.5,-31.62 166.5,-4.38 108.5,-4.38"/>
</g>
<!-- n_5_6&#45;&gt;n_6 -->
<g id="edge5" class="edge">
<title>n_5_6&#45;&gt;n_6</title>
<path fill="none" stroke="black" d="M97.57,-79.29C104.14,-69.37 112.61,-56.57 120.07,-45.32"/>
<polygon fill="black" stroke="black" points="122.84,-47.47 125.44,-37.2 117,-43.61 122.84,-47.47"/>
</g>
<!-- n_0 -->
<g id="node9" class="node">
<title>n_0</title>
<polygon fill="none" stroke="black" points="328.38,-84.38 328.38,-109.62 416.62,-109.62 416.62,-84.38 328.38,-84.38"/>
<text text-anchor="start" x="335.38" y="-95.08" font-family="Times New Roman,serif" font-weight="bold" font-size="9.00">Insufficient weight</text>
<polygon fill="none" stroke="black" points="327.38,-83.38 327.38,-110.62 417.62,-110.62 417.62,-83.38 327.38,-83.38"/>
</g>
<!-- n_0_1&#45;&gt;n_0 -->
<g id="edge8" class="edge">
<title>n_0_1&#45;&gt;n_0</title>
<path fill="none" stroke="black" d="M381.96,-161.03C380.44,-150.96 378.49,-137.92 376.75,-126.32"/>
<polygon fill="black" stroke="black" points="380.21,-125.81 375.27,-116.44 373.29,-126.85 380.21,-125.81"/>
</g>
<!-- n_1 -->
<g id="node10" class="node">
<title>n_1</title>
<polygon fill="none" stroke="black" points="463.5,-84.38 463.5,-109.62 507.5,-109.62 507.5,-84.38 463.5,-84.38"/>
<text text-anchor="start" x="470.5" y="-95.08" font-family="Times New Roman,serif" font-weight="bold" font-size="9.00">Normal</text>
<polygon fill="none" stroke="black" points="462.5,-83.38 462.5,-110.62 508.5,-110.62 508.5,-83.38 462.5,-83.38"/>
</g>
<!-- n_0_1&#45;&gt;n_1 -->
<g id="edge9" class="edge">
<title>n_0_1&#45;&gt;n_1</title>
<path fill="none" stroke="black" d="M405.92,-161.03C420.25,-149.69 439.31,-134.58 455.19,-122.01"/>
<polygon fill="black" stroke="black" points="457.26,-124.83 462.92,-115.88 452.91,-119.35 457.26,-124.83"/>
</g>
<!-- n_2 -->
<g id="node12" class="node">
<title>n_2</title>
<polygon fill="none" stroke="black" points="516,-166.38 516,-191.62 581,-191.62 581,-166.38 516,-166.38"/>
<text text-anchor="start" x="523" y="-177.07" font-family="Times New Roman,serif" font-weight="bold" font-size="9.00">Overweight I</text>
<polygon fill="none" stroke="black" points="515,-165.38 515,-192.62 582,-192.62 582,-165.38 515,-165.38"/>
</g>
<!-- n_2_4&#45;&gt;n_2 -->
<g id="edge11" class="edge">
<title>n_2_4&#45;&gt;n_2</title>
<path fill="none" stroke="black" d="M555.76,-250.63C554.52,-238.52 552.81,-221.94 551.37,-207.88"/>
<polygon fill="black" stroke="black" points="554.89,-207.91 550.38,-198.32 547.93,-208.63 554.89,-207.91"/>
</g>
<!-- n_4 -->
<g id="node13" class="node">
<title>n_4</title>
<polygon fill="none" stroke="black" points="628.5,-166.38 628.5,-191.62 678.5,-191.62 678.5,-166.38 628.5,-166.38"/>
<text text-anchor="start" x="635.5" y="-177.07" font-family="Times New Roman,serif" font-weight="bold" font-size="9.00">Obesity I</text>
<polygon fill="none" stroke="black" points="627.5,-165.38 627.5,-192.62 679.5,-192.62 679.5,-165.38 627.5,-165.38"/>
</g>
<!-- n_2_4&#45;&gt;n_4 -->
<g id="edge12" class="edge">
<title>n_2_4&#45;&gt;n_4</title>
<path fill="none" stroke="black" d="M576.01,-250.63C590.35,-237.56 610.43,-219.25 626.56,-204.56"/>
<polygon fill="black" stroke="black" points="628.9,-207.16 633.93,-197.84 624.18,-201.99 628.9,-207.16"/>
</g>
</g>
</svg>
