<?xml version="1.0" encoding="UTF-8" standalone="no"?>
<!DOCTYPE svg PUBLIC "-//W3C//DTD SVG 1.1//EN"
 "http://www.w3.org/Graphics/SVG/1.1/DTD/svg11.dtd">
<!-- Generated by graphviz version 10.0.1 (20240210.2158)
 -->
<!-- Title: ND Pages: 1 -->
<svg width="594pt" height="535pt"
 viewBox="0.00 0.00 594.12 535.00" xmlns="http://www.w3.org/2000/svg" xmlns:xlink="http://www.w3.org/1999/xlink">
<g id="graph0" class="graph" transform="scale(1 1) rotate(0) translate(4 531)">
<title>ND</title>
<polygon fill="white" stroke="none" points="-4,4 -4,-531 590.12,-531 590.12,4 -4,4"/>
<!-- n_0_1_2_3_4_5_6 -->
<g id="node1" class="node">
<title>n_0_1_2_3_4_5_6</title>
<polygon fill="none" stroke="black" points="420,-454 420,-522 508.25,-522 508.25,-454 420,-454"/>
<text text-anchor="start" x="427" y="-507.45" font-family="Times New Roman,serif" font-weight="bold" font-size="9.00">Insufficient weight</text>
<text text-anchor="start" x="438.62" y="-498.45" font-family="Times New Roman,serif" font-weight="bold" font-size="9.00">Overweight I</text>
<text text-anchor="start" x="437.12" y="-489.45" font-family="Times New Roman,serif" font-weight="bold" font-size="9.00">Overweight II</text>
<text text-anchor="start" x="446.12" y="-480.45" font-family="Times New Roman,serif" font-weight="bold" font-size="9.00">Obesity I</text>
<text text-anchor="start" x="444.62" y="-471.45" font-family="Times New Roman,serif" font-weight="bold" font-size="9.00">Obesity II</text>
<text text-anchor="start" x="443.12" y="-462.45" font-family="Times New Roman,serif" font-weight="bold" font-size="9.00">Obesity III</text>
<polygon fill="none" stroke="black" points="508.25,-454 508.25,-522 552.25,-522 552.25,-454 508.25,-454"/>
<text text-anchor="start" x="515.25" y="-486.07" font-family="Times New Roman,serif" font-weight="bold" font-size="9.00">Normal</text>
<polygon fill="none" stroke="black" points="419,-453 419,-523 553.25,-523 553.25,-453 419,-453"/>
</g>
<!-- n_0_2_3_4_5_6 -->
<g id="node2" class="node">
<title>n_0_2_3_4_5_6</title>
<polygon fill="none" stroke="black" points="348,-342 348,-401 436.25,-401 436.25,-342 348,-342"/>
<text text-anchor="start" x="355" y="-386.45" font-family="Times New Roman,serif" font-weight="bold" font-size="9.00">Insufficient weight</text>
<text text-anchor="start" x="366.62" y="-377.45" font-family="Times New Roman,serif" font-weight="bold" font-size="9.00">Overweight I</text>
<text text-anchor="start" x="365.12" y="-368.45" font-family="Times New Roman,serif" font-weight="bold" font-size="9.00">Overweight II</text>
<text text-anchor="start" x="372.62" y="-359.45" font-family="Times New Roman,serif" font-weight="bold" font-size="9.00">Obesity II</text>
<text text-anchor="start" x="371.12" y="-350.45" font-family="Times New Roman,serif" font-weight="bold" font-size="9.00">Obesity III</text>
<polygon fill="none" stroke="black" points="436.25,-342 436.25,-401 486.25,-401 486.25,-342 436.25,-342"/>
<text text-anchor="start" x="443.25" y="-369.57" font-family="Times New Roman,serif" font-weight="bold" font-size="9.00">Obesity I</text>
<polygon fill="none" stroke="black" points="347,-341 347,-402 487.25,-402 487.25,-341 347,-341"/>
</g>
<!-- n_0_1_2_3_4_5_6&#45;&gt;n_0_2_3_4_5_6 -->
<g id="edge1" class="edge">
<title>n_0_1_2_3_4_5_6&#45;&gt;n_0_2_3_4_5_6</title>
<path fill="none" stroke="black" d="M463.34,-449.19C456.78,-438.31 449.58,-426.36 442.86,-415.21"/>
<polygon fill="black" stroke="black" points="446.04,-413.71 437.88,-406.95 440.05,-417.32 446.04,-413.71"/>
</g>
<!-- n_1 -->
<g id="node13" class="node">
<title>n_1</title>
<polygon fill="none" stroke="black" points="533.12,-358.88 533.12,-384.12 577.12,-384.12 577.12,-358.88 533.12,-358.88"/>
<text text-anchor="start" x="540.12" y="-369.57" font-family="Times New Roman,serif" font-weight="bold" font-size="9.00">Normal</text>
<polygon fill="none" stroke="black" points="532.12,-357.88 532.12,-385.12 578.12,-385.12 578.12,-357.88 532.12,-357.88"/>
</g>
<!-- n_0_1_2_3_4_5_6&#45;&gt;n_1 -->
<g id="edge12" class="edge">
<title>n_0_1_2_3_4_5_6&#45;&gt;n_1</title>
<path fill="none" stroke="black" d="M508.91,-449.19C518.8,-432.78 530.14,-413.96 539.12,-399.07"/>
<polygon fill="black" stroke="black" points="541.96,-401.13 544.12,-390.76 535.96,-397.52 541.96,-401.13"/>
</g>
<!-- n_0_2_3_5_6 -->
<g id="node3" class="node">
<title>n_0_2_3_5_6</title>
<polygon fill="none" stroke="black" points="273,-248 273,-289 361.25,-289 361.25,-248 273,-248"/>
<text text-anchor="start" x="280" y="-274.45" font-family="Times New Roman,serif" font-weight="bold" font-size="9.00">Insufficient weight</text>
<text text-anchor="start" x="291.62" y="-265.45" font-family="Times New Roman,serif" font-weight="bold" font-size="9.00">Overweight I</text>
<text text-anchor="start" x="290.12" y="-256.45" font-family="Times New Roman,serif" font-weight="bold" font-size="9.00">Overweight II</text>
<polygon fill="none" stroke="black" points="361.25,-248 361.25,-289 417.25,-289 417.25,-248 361.25,-248"/>
<text text-anchor="start" x="369.75" y="-269.95" font-family="Times New Roman,serif" font-weight="bold" font-size="9.00">Obesity II</text>
<text text-anchor="start" x="368.25" y="-260.95" font-family="Times New Roman,serif" font-weight="bold" font-size="9.00">Obesity III</text>
<polygon fill="none" stroke="black" points="272,-247 272,-290 418.25,-290 418.25,-247 272,-247"/>
</g>
<!-- n_0_2_3_4_5_6&#45;&gt;n_0_2_3_5_6 -->
<g id="edge2" class="edge">
<title>n_0_2_3_4_5_6&#45;&gt;n_0_2_3_5_6</title>
<path fill="none" stroke="black" d="M393.35,-337.15C385.56,-326.22 376.9,-314.07 369.09,-303.12"/>
<polygon fill="black" stroke="black" points="372.02,-301.2 363.37,-295.09 366.32,-305.27 372.02,-301.2"/>
</g>
<!-- n_4 -->
<g id="node12" class="node">
<title>n_4</title>
<polygon fill="none" stroke="black" points="464.12,-255.88 464.12,-281.12 514.12,-281.12 514.12,-255.88 464.12,-255.88"/>
<text text-anchor="start" x="471.12" y="-266.57" font-family="Times New Roman,serif" font-weight="bold" font-size="9.00">Obesity I</text>
<polygon fill="none" stroke="black" points="463.12,-254.88 463.12,-282.12 515.12,-282.12 515.12,-254.88 463.12,-254.88"/>
</g>
<!-- n_0_2_3_4_5_6&#45;&gt;n_4 -->
<g id="edge11" class="edge">
<title>n_0_2_3_4_5_6&#45;&gt;n_4</title>
<path fill="none" stroke="black" d="M440.9,-337.15C450.56,-323.6 461.56,-308.17 470.61,-295.48"/>
<polygon fill="black" stroke="black" points="473.26,-297.79 476.21,-287.61 467.56,-293.72 473.26,-297.79"/>
</g>
<!-- n_0_2_3 -->
<g id="node4" class="node">
<title>n_0_2_3</title>
<polygon fill="none" stroke="black" points="177,-163 177,-195 265.25,-195 265.25,-163 177,-163"/>
<text text-anchor="start" x="184" y="-180.45" font-family="Times New Roman,serif" font-weight="bold" font-size="9.00">Insufficient weight</text>
<text text-anchor="start" x="195.62" y="-171.45" font-family="Times New Roman,serif" font-weight="bold" font-size="9.00">Overweight I</text>
<polygon fill="none" stroke="black" points="265.25,-163 265.25,-195 333.25,-195 333.25,-163 265.25,-163"/>
<text text-anchor="start" x="272.25" y="-177.07" font-family="Times New Roman,serif" font-weight="bold" font-size="9.00">Overweight II</text>
<polygon fill="none" stroke="black" points="176,-162 176,-196 334.25,-196 334.25,-162 176,-162"/>
</g>
<!-- n_0_2_3_5_6&#45;&gt;n_0_2_3 -->
<g id="edge3" class="edge">
<title>n_0_2_3_5_6&#45;&gt;n_0_2_3</title>
<path fill="none" stroke="black" d="M320.05,-243.13C308.75,-232.14 295.35,-219.11 283.67,-207.75"/>
<polygon fill="black" stroke="black" points="286.21,-205.34 276.6,-200.88 281.33,-210.36 286.21,-205.34"/>
</g>
<!-- n_5_6 -->
<g id="node9" class="node">
<title>n_5_6</title>
<polygon fill="none" stroke="black" points="380.62,-166.38 380.62,-191.62 433.62,-191.62 433.62,-166.38 380.62,-166.38"/>
<text text-anchor="start" x="387.62" y="-177.07" font-family="Times New Roman,serif" font-weight="bold" font-size="9.00">Obesity II</text>
<polygon fill="none" stroke="black" points="433.62,-166.38 433.62,-191.62 489.62,-191.62 489.62,-166.38 433.62,-166.38"/>
<text text-anchor="start" x="440.62" y="-177.07" font-family="Times New Roman,serif" font-weight="bold" font-size="9.00">Obesity III</text>
<polygon fill="none" stroke="black" points="379.62,-165.38 379.62,-192.62 490.62,-192.62 490.62,-165.38 379.62,-165.38"/>
</g>
<!-- n_0_2_3_5_6&#45;&gt;n_5_6 -->
<g id="edge8" class="edge">
<title>n_0_2_3_5_6&#45;&gt;n_5_6</title>
<path fill="none" stroke="black" d="M370.2,-243.13C382.53,-231.13 397.38,-216.7 409.76,-204.66"/>
<polygon fill="black" stroke="black" points="412.06,-207.31 416.79,-197.83 407.18,-202.29 412.06,-207.31"/>
</g>
<!-- n_0_2 -->
<g id="node5" class="node">
<title>n_0_2</title>
<polygon fill="none" stroke="black" points="38.5,-84.38 38.5,-109.62 126.75,-109.62 126.75,-84.38 38.5,-84.38"/>
<text text-anchor="start" x="45.5" y="-95.08" font-family="Times New Roman,serif" font-weight="bold" font-size="9.00">Insufficient weight</text>
<polygon fill="none" stroke="black" points="126.75,-84.38 126.75,-109.62 191.75,-109.62 191.75,-84.38 126.75,-84.38"/>
<text text-anchor="start" x="133.75" y="-95.08" font-family="Times New Roman,serif" font-weight="bold" font-size="9.00">Overweight I</text>
<polygon fill="none" stroke="black" points="37.5,-83.38 37.5,-110.62 192.75,-110.62 192.75,-83.38 37.5,-83.38"/>
</g>
<!-- n_0_2_3&#45;&gt;n_0_2 -->
<g id="edge4" class="edge">
<title>n_0_2_3&#45;&gt;n_0_2</title>
<path fill="none" stroke="black" d="M220.16,-158.02C200.11,-146.56 174.9,-132.16 154.21,-120.33"/>
<polygon fill="black" stroke="black" points="156.19,-117.43 145.77,-115.51 152.71,-123.51 156.19,-117.43"/>
</g>
<!-- n_3 -->
<g id="node8" class="node">
<title>n_3</title>
<polygon fill="none" stroke="black" points="239.12,-84.38 239.12,-109.62 307.12,-109.62 307.12,-84.38 239.12,-84.38"/>
<text text-anchor="start" x="246.12" y="-95.08" font-family="Times New Roman,serif" font-weight="bold" font-size="9.00">Overweight II</text>
<polygon fill="none" stroke="black" points="238.12,-83.38 238.12,-110.62 308.12,-110.62 308.12,-83.38 238.12,-83.38"/>
</g>
<!-- n_0_2_3&#45;&gt;n_3 -->
<g id="edge7" class="edge">
<title>n_0_2_3&#45;&gt;n_3</title>
<path fill="none" stroke="black" d="M259.57,-158.22C261.78,-148.44 264.47,-136.46 266.88,-125.77"/>
<polygon fill="black" stroke="black" points="270.22,-126.84 269,-116.32 263.39,-125.31 270.22,-126.84"/>
</g>
<!-- n_0 -->
<g id="node6" class="node">
<title>n_0</title>
<polygon fill="none" stroke="black" points="9,-5.38 9,-30.62 97.25,-30.62 97.25,-5.38 9,-5.38"/>
<text text-anchor="start" x="16" y="-16.07" font-family="Times New Roman,serif" font-weight="bold" font-size="9.00">Insufficient weight</text>
<polygon fill="none" stroke="black" points="8,-4.38 8,-31.62 98.25,-31.62 98.25,-4.38 8,-4.38"/>
</g>
<!-- n_0_2&#45;&gt;n_0 -->
<g id="edge5" class="edge">
<title>n_0_2&#45;&gt;n_0</title>
<path fill="none" stroke="black" d="M101.67,-79.29C93.52,-69.17 82.96,-56.05 73.77,-44.64"/>
<polygon fill="black" stroke="black" points="76.71,-42.71 67.72,-37.12 71.26,-47.1 76.71,-42.71"/>
</g>
<!-- n_2 -->
<g id="node7" class="node">
<title>n_2</title>
<polygon fill="none" stroke="black" points="144.62,-5.38 144.62,-30.62 209.62,-30.62 209.62,-5.38 144.62,-5.38"/>
<text text-anchor="start" x="151.62" y="-16.07" font-family="Times New Roman,serif" font-weight="bold" font-size="9.00">Overweight I</text>
<polygon fill="none" stroke="black" points="143.62,-4.38 143.62,-31.62 210.62,-31.62 210.62,-4.38 143.62,-4.38"/>
</g>
<!-- n_0_2&#45;&gt;n_2 -->
<g id="edge6" class="edge">
<title>n_0_2&#45;&gt;n_2</title>
<path fill="none" stroke="black" d="M128.58,-79.29C136.73,-69.17 147.29,-56.05 156.48,-44.64"/>
<polygon fill="black" stroke="black" points="158.99,-47.1 162.53,-37.12 153.54,-42.71 158.99,-47.1"/>
</g>
<!-- n_5 -->
<g id="node10" class="node">
<title>n_5</title>
<polygon fill="none" stroke="black" points="390.62,-84.38 390.62,-109.62 443.62,-109.62 443.62,-84.38 390.62,-84.38"/>
<text text-anchor="start" x="397.62" y="-95.08" font-family="Times New Roman,serif" font-weight="bold" font-size="9.00">Obesity II</text>
<polygon fill="none" stroke="black" points="389.62,-83.38 389.62,-110.62 444.62,-110.62 444.62,-83.38 389.62,-83.38"/>
</g>
<!-- n_5_6&#45;&gt;n_5 -->
<g id="edge9" class="edge">
<title>n_5_6&#45;&gt;n_5</title>
<path fill="none" stroke="black" d="M431.31,-161.03C429.02,-150.85 426.05,-137.65 423.42,-125.96"/>
<polygon fill="black" stroke="black" points="426.88,-125.41 421.27,-116.42 420.05,-126.94 426.88,-125.41"/>
</g>
<!-- n_6 -->
<g id="node11" class="node">
<title>n_6</title>
<polygon fill="none" stroke="black" points="491.12,-84.38 491.12,-109.62 547.12,-109.62 547.12,-84.38 491.12,-84.38"/>
<text text-anchor="start" x="498.12" y="-95.08" font-family="Times New Roman,serif" font-weight="bold" font-size="9.00">Obesity III</text>
<polygon fill="none" stroke="black" points="490.12,-83.38 490.12,-110.62 548.12,-110.62 548.12,-83.38 490.12,-83.38"/>
</g>
<!-- n_5_6&#45;&gt;n_6 -->
<g id="edge10" class="edge">
<title>n_5_6&#45;&gt;n_6</title>
<path fill="none" stroke="black" d="M452.94,-161.03C464.63,-149.9 480.12,-135.15 493.17,-122.71"/>
<polygon fill="black" stroke="black" points="495.41,-125.42 500.24,-115.99 490.59,-120.35 495.41,-125.42"/>
</g>
</g>
</svg>
