<?xml version="1.0" encoding="UTF-8" standalone="no"?>
<!DOCTYPE svg PUBLIC "-//W3C//DTD SVG 1.1//EN"
 "http://www.w3.org/Graphics/SVG/1.1/DTD/svg11.dtd">
<!-- Generated by graphviz version 10.0.1 (20240210.2158)
 -->
<!-- Title: ND Pages: 1 -->
<svg width="628pt" height="405pt"
 viewBox="0.00 0.00 628.12 405.00" xmlns="http://www.w3.org/2000/svg" xmlns:xlink="http://www.w3.org/1999/xlink">
<g id="graph0" class="graph" transform="scale(1 1) rotate(0) translate(4 401)">
<title>ND</title>
<polygon fill="white" stroke="none" points="-4,4 -4,-401 624.12,-401 624.12,4 -4,4"/>
<!-- n_0_1_2_3_4_5_6 -->
<g id="node1" class="node">
<title>n_0_1_2_3_4_5_6</title>
<polygon fill="none" stroke="black" points="305,-342 305,-392 393.25,-392 393.25,-342 305,-342"/>
<text text-anchor="start" x="312" y="-377.45" font-family="Times New Roman,serif" font-weight="bold" font-size="9.00">Insufficient weight</text>
<text text-anchor="start" x="323.62" y="-368.45" font-family="Times New Roman,serif" font-weight="bold" font-size="9.00">Overweight I</text>
<text text-anchor="start" x="331.12" y="-359.45" font-family="Times New Roman,serif" font-weight="bold" font-size="9.00">Obesity I</text>
<text text-anchor="start" x="328.12" y="-350.45" font-family="Times New Roman,serif" font-weight="bold" font-size="9.00">Obesity III</text>
<polygon fill="none" stroke="black" points="393.25,-342 393.25,-392 461.25,-392 461.25,-342 393.25,-342"/>
<text text-anchor="start" x="412.25" y="-372.95" font-family="Times New Roman,serif" font-weight="bold" font-size="9.00">Normal</text>
<text text-anchor="start" x="400.25" y="-363.95" font-family="Times New Roman,serif" font-weight="bold" font-size="9.00">Overweight II</text>
<text text-anchor="start" x="407.75" y="-354.95" font-family="Times New Roman,serif" font-weight="bold" font-size="9.00">Obesity II</text>
<polygon fill="none" stroke="black" points="304,-341 304,-393 462.25,-393 462.25,-341 304,-341"/>
</g>
<!-- n_0_2_4_6 -->
<g id="node2" class="node">
<title>n_0_2_4_6</title>
<polygon fill="none" stroke="black" points="228,-248 228,-289 316.25,-289 316.25,-248 228,-248"/>
<text text-anchor="start" x="235" y="-274.45" font-family="Times New Roman,serif" font-weight="bold" font-size="9.00">Insufficient weight</text>
<text text-anchor="start" x="246.62" y="-265.45" font-family="Times New Roman,serif" font-weight="bold" font-size="9.00">Overweight I</text>
<text text-anchor="start" x="251.12" y="-256.45" font-family="Times New Roman,serif" font-weight="bold" font-size="9.00">Obesity III</text>
<polygon fill="none" stroke="black" points="316.25,-248 316.25,-289 366.25,-289 366.25,-248 316.25,-248"/>
<text text-anchor="start" x="323.25" y="-266.57" font-family="Times New Roman,serif" font-weight="bold" font-size="9.00">Obesity I</text>
<polygon fill="none" stroke="black" points="227,-247 227,-290 367.25,-290 367.25,-247 227,-247"/>
</g>
<!-- n_0_1_2_3_4_5_6&#45;&gt;n_0_2_4_6 -->
<g id="edge1" class="edge">
<title>n_0_1_2_3_4_5_6&#45;&gt;n_0_2_4_6</title>
<path fill="none" stroke="black" d="M357.32,-337.05C347.54,-326.08 336.35,-313.51 326.28,-302.22"/>
<polygon fill="black" stroke="black" points="329.12,-300.14 319.85,-295 323.89,-304.8 329.12,-300.14"/>
</g>
<!-- n_1_3_5 -->
<g id="node9" class="node">
<title>n_1_3_5</title>
<polygon fill="none" stroke="black" points="413.12,-252.5 413.12,-284.5 481.12,-284.5 481.12,-252.5 413.12,-252.5"/>
<text text-anchor="start" x="420.12" y="-269.95" font-family="Times New Roman,serif" font-weight="bold" font-size="9.00">Overweight II</text>
<text text-anchor="start" x="427.62" y="-260.95" font-family="Times New Roman,serif" font-weight="bold" font-size="9.00">Obesity II</text>
<polygon fill="none" stroke="black" points="481.12,-252.5 481.12,-284.5 525.12,-284.5 525.12,-252.5 481.12,-252.5"/>
<text text-anchor="start" x="488.12" y="-266.57" font-family="Times New Roman,serif" font-weight="bold" font-size="9.00">Normal</text>
<polygon fill="none" stroke="black" points="412.12,-251.5 412.12,-285.5 526.12,-285.5 526.12,-251.5 412.12,-251.5"/>
</g>
<!-- n_0_1_2_3_4_5_6&#45;&gt;n_1_3_5 -->
<g id="edge8" class="edge">
<title>n_0_1_2_3_4_5_6&#45;&gt;n_1_3_5</title>
<path fill="none" stroke="black" d="M408.93,-337.05C420,-324.63 432.88,-310.17 443.89,-297.82"/>
<polygon fill="black" stroke="black" points="446.47,-300.18 450.51,-290.39 441.24,-295.53 446.47,-300.18"/>
</g>
<!-- n_0_2_6 -->
<g id="node3" class="node">
<title>n_0_2_6</title>
<polygon fill="none" stroke="black" points="81.5,-163 81.5,-195 169.75,-195 169.75,-163 81.5,-163"/>
<text text-anchor="start" x="88.5" y="-180.45" font-family="Times New Roman,serif" font-weight="bold" font-size="9.00">Insufficient weight</text>
<text text-anchor="start" x="104.62" y="-171.45" font-family="Times New Roman,serif" font-weight="bold" font-size="9.00">Obesity III</text>
<polygon fill="none" stroke="black" points="169.75,-163 169.75,-195 234.75,-195 234.75,-163 169.75,-163"/>
<text text-anchor="start" x="176.75" y="-177.07" font-family="Times New Roman,serif" font-weight="bold" font-size="9.00">Overweight I</text>
<polygon fill="none" stroke="black" points="80.5,-162 80.5,-196 235.75,-196 235.75,-162 80.5,-162"/>
</g>
<!-- n_0_2_4_6&#45;&gt;n_0_2_6 -->
<g id="edge2" class="edge">
<title>n_0_2_4_6&#45;&gt;n_0_2_6</title>
<path fill="none" stroke="black" d="M258.41,-243.13C240.02,-231.55 218.03,-217.71 199.34,-205.94"/>
<polygon fill="black" stroke="black" points="201.23,-203 190.9,-200.63 197.5,-208.92 201.23,-203"/>
</g>
<!-- n_4 -->
<g id="node8" class="node">
<title>n_4</title>
<polygon fill="none" stroke="black" points="282.12,-166.38 282.12,-191.62 332.12,-191.62 332.12,-166.38 282.12,-166.38"/>
<text text-anchor="start" x="289.12" y="-177.07" font-family="Times New Roman,serif" font-weight="bold" font-size="9.00">Obesity I</text>
<polygon fill="none" stroke="black" points="281.12,-165.38 281.12,-192.62 333.12,-192.62 333.12,-165.38 281.12,-165.38"/>
</g>
<!-- n_0_2_4_6&#45;&gt;n_4 -->
<g id="edge7" class="edge">
<title>n_0_2_4_6&#45;&gt;n_4</title>
<path fill="none" stroke="black" d="M299.91,-243.13C301.15,-232.28 302.62,-219.45 303.9,-208.19"/>
<polygon fill="black" stroke="black" points="307.38,-208.61 305.04,-198.27 300.42,-207.81 307.38,-208.61"/>
</g>
<!-- n_0_6 -->
<g id="node4" class="node">
<title>n_0_6</title>
<polygon fill="none" stroke="black" points="40,-84.38 40,-109.62 128.25,-109.62 128.25,-84.38 40,-84.38"/>
<text text-anchor="start" x="47" y="-95.08" font-family="Times New Roman,serif" font-weight="bold" font-size="9.00">Insufficient weight</text>
<polygon fill="none" stroke="black" points="128.25,-84.38 128.25,-109.62 184.25,-109.62 184.25,-84.38 128.25,-84.38"/>
<text text-anchor="start" x="135.25" y="-95.08" font-family="Times New Roman,serif" font-weight="bold" font-size="9.00">Obesity III</text>
<polygon fill="none" stroke="black" points="39,-83.38 39,-110.62 185.25,-110.62 185.25,-83.38 39,-83.38"/>
</g>
<!-- n_0_2_6&#45;&gt;n_0_6 -->
<g id="edge3" class="edge">
<title>n_0_2_6&#45;&gt;n_0_6</title>
<path fill="none" stroke="black" d="M146.75,-158.22C140.95,-148.13 133.8,-135.69 127.51,-124.75"/>
<polygon fill="black" stroke="black" points="130.58,-123.08 122.56,-116.16 124.52,-126.57 130.58,-123.08"/>
</g>
<!-- n_2 -->
<g id="node7" class="node">
<title>n_2</title>
<polygon fill="none" stroke="black" points="231.62,-84.38 231.62,-109.62 296.62,-109.62 296.62,-84.38 231.62,-84.38"/>
<text text-anchor="start" x="238.62" y="-95.08" font-family="Times New Roman,serif" font-weight="bold" font-size="9.00">Overweight I</text>
<polygon fill="none" stroke="black" points="230.62,-83.38 230.62,-110.62 297.62,-110.62 297.62,-83.38 230.62,-83.38"/>
</g>
<!-- n_0_2_6&#45;&gt;n_2 -->
<g id="edge6" class="edge">
<title>n_0_2_6&#45;&gt;n_2</title>
<path fill="none" stroke="black" d="M184.6,-158.02C199.22,-146.98 217.48,-133.2 232.81,-121.63"/>
<polygon fill="black" stroke="black" points="234.84,-124.49 240.71,-115.67 230.62,-118.9 234.84,-124.49"/>
</g>
<!-- n_0 -->
<g id="node5" class="node">
<title>n_0</title>
<polygon fill="none" stroke="black" points="9,-5.38 9,-30.62 97.25,-30.62 97.25,-5.38 9,-5.38"/>
<text text-anchor="start" x="16" y="-16.07" font-family="Times New Roman,serif" font-weight="bold" font-size="9.00">Insufficient weight</text>
<polygon fill="none" stroke="black" points="8,-4.38 8,-31.62 98.25,-31.62 98.25,-4.38 8,-4.38"/>
</g>
<!-- n_0_6&#45;&gt;n_0 -->
<g id="edge4" class="edge">
<title>n_0_6&#45;&gt;n_0</title>
<path fill="none" stroke="black" d="M99.32,-79.29C91.64,-69.27 81.72,-56.31 73.03,-44.98"/>
<polygon fill="black" stroke="black" points="75.89,-42.95 67.03,-37.14 70.33,-47.21 75.89,-42.95"/>
</g>
<!-- n_6 -->
<g id="node6" class="node">
<title>n_6</title>
<polygon fill="none" stroke="black" points="144.12,-5.38 144.12,-30.62 200.12,-30.62 200.12,-5.38 144.12,-5.38"/>
<text text-anchor="start" x="151.12" y="-16.07" font-family="Times New Roman,serif" font-weight="bold" font-size="9.00">Obesity III</text>
<polygon fill="none" stroke="black" points="143.12,-4.38 143.12,-31.62 201.12,-31.62 201.12,-4.38 143.12,-4.38"/>
</g>
<!-- n_0_6&#45;&gt;n_6 -->
<g id="edge5" class="edge">
<title>n_0_6&#45;&gt;n_6</title>
<path fill="none" stroke="black" d="M125.14,-79.29C132.95,-69.27 143.05,-56.31 151.88,-44.98"/>
<polygon fill="black" stroke="black" points="154.61,-47.17 157.99,-37.14 149.09,-42.87 154.61,-47.17"/>
</g>
<!-- n_3_5 -->
<g id="node10" class="node">
<title>n_3_5</title>
<polygon fill="none" stroke="black" points="398.62,-166.38 398.62,-191.62 466.62,-191.62 466.62,-166.38 398.62,-166.38"/>
<text text-anchor="start" x="405.62" y="-177.07" font-family="Times New Roman,serif" font-weight="bold" font-size="9.00">Overweight II</text>
<polygon fill="none" stroke="black" points="466.62,-166.38 466.62,-191.62 519.62,-191.62 519.62,-166.38 466.62,-166.38"/>
<text text-anchor="start" x="473.62" y="-177.07" font-family="Times New Roman,serif" font-weight="bold" font-size="9.00">Obesity II</text>
<polygon fill="none" stroke="black" points="397.62,-165.38 397.62,-192.62 520.62,-192.62 520.62,-165.38 397.62,-165.38"/>
</g>
<!-- n_1_3_5&#45;&gt;n_3_5 -->
<g id="edge9" class="edge">
<title>n_1_3_5&#45;&gt;n_3_5</title>
<path fill="none" stroke="black" d="M466.86,-247.64C465.51,-235.91 463.8,-220.86 462.32,-207.94"/>
<polygon fill="black" stroke="black" points="465.83,-207.87 461.22,-198.34 458.88,-208.67 465.83,-207.87"/>
</g>
<!-- n_1 -->
<g id="node13" class="node">
<title>n_1</title>
<polygon fill="none" stroke="black" points="567.12,-166.38 567.12,-191.62 611.12,-191.62 611.12,-166.38 567.12,-166.38"/>
<text text-anchor="start" x="574.12" y="-177.07" font-family="Times New Roman,serif" font-weight="bold" font-size="9.00">Normal</text>
<polygon fill="none" stroke="black" points="566.12,-165.38 566.12,-192.62 612.12,-192.62 612.12,-165.38 566.12,-165.38"/>
</g>
<!-- n_1_3_5&#45;&gt;n_1 -->
<g id="edge12" class="edge">
<title>n_1_3_5&#45;&gt;n_1</title>
<path fill="none" stroke="black" d="M496.35,-247.64C514.34,-234.53 537.99,-217.29 556.91,-203.49"/>
<polygon fill="black" stroke="black" points="558.8,-206.44 564.82,-197.72 554.68,-200.79 558.8,-206.44"/>
</g>
<!-- n_3 -->
<g id="node11" class="node">
<title>n_3</title>
<polygon fill="none" stroke="black" points="384.12,-84.38 384.12,-109.62 452.12,-109.62 452.12,-84.38 384.12,-84.38"/>
<text text-anchor="start" x="391.12" y="-95.08" font-family="Times New Roman,serif" font-weight="bold" font-size="9.00">Overweight II</text>
<polygon fill="none" stroke="black" points="383.12,-83.38 383.12,-110.62 453.12,-110.62 453.12,-83.38 383.12,-83.38"/>
</g>
<!-- n_3_5&#45;&gt;n_3 -->
<g id="edge10" class="edge">
<title>n_3_5&#45;&gt;n_3</title>
<path fill="none" stroke="black" d="M450.43,-161.03C445.05,-150.53 438.02,-136.82 431.89,-124.87"/>
<polygon fill="black" stroke="black" points="435.17,-123.59 427.5,-116.29 428.94,-126.78 435.17,-123.59"/>
</g>
<!-- n_5 -->
<g id="node12" class="node">
<title>n_5</title>
<polygon fill="none" stroke="black" points="499.62,-84.38 499.62,-109.62 552.62,-109.62 552.62,-84.38 499.62,-84.38"/>
<text text-anchor="start" x="506.62" y="-95.08" font-family="Times New Roman,serif" font-weight="bold" font-size="9.00">Obesity II</text>
<polygon fill="none" stroke="black" points="498.62,-83.38 498.62,-110.62 553.62,-110.62 553.62,-83.38 498.62,-83.38"/>
</g>
<!-- n_3_5&#45;&gt;n_5 -->
<g id="edge11" class="edge">
<title>n_3_5&#45;&gt;n_5</title>
<path fill="none" stroke="black" d="M473.33,-161.03C482.48,-150.11 494.55,-135.71 504.83,-123.43"/>
<polygon fill="black" stroke="black" points="507.23,-126.02 510.96,-116.1 501.86,-121.52 507.23,-126.02"/>
</g>
</g>
</svg>
