<?xml version="1.0" encoding="UTF-8" standalone="no"?>
<!DOCTYPE svg PUBLIC "-//W3C//DTD SVG 1.1//EN"
 "http://www.w3.org/Graphics/SVG/1.1/DTD/svg11.dtd">
<!-- Generated by graphviz version 10.0.1 (20240210.2158)
 -->
<!-- Title: ND Pages: 1 -->
<svg width="591pt" height="544pt"
 viewBox="0.00 0.00 590.62 544.00" xmlns="http://www.w3.org/2000/svg" xmlns:xlink="http://www.w3.org/1999/xlink">
<g id="graph0" class="graph" transform="scale(1 1) rotate(0) translate(4 540)">
<title>ND</title>
<polygon fill="white" stroke="none" points="-4,4 -4,-540 586.62,-540 586.62,4 -4,4"/>
<!-- n_0_1_2_3_4_5_6 -->
<g id="node1" class="node">
<title>n_0_1_2_3_4_5_6</title>
<polygon fill="none" stroke="black" points="389.5,-463 389.5,-531 477.75,-531 477.75,-463 389.5,-463"/>
<text text-anchor="start" x="396.5" y="-516.45" font-family="Times New Roman,serif" font-weight="bold" font-size="9.00">Insufficient weight</text>
<text text-anchor="start" x="418.62" y="-507.45" font-family="Times New Roman,serif" font-weight="bold" font-size="9.00">Normal</text>
<text text-anchor="start" x="406.62" y="-498.45" font-family="Times New Roman,serif" font-weight="bold" font-size="9.00">Overweight II</text>
<text text-anchor="start" x="415.62" y="-489.45" font-family="Times New Roman,serif" font-weight="bold" font-size="9.00">Obesity I</text>
<text text-anchor="start" x="414.12" y="-480.45" font-family="Times New Roman,serif" font-weight="bold" font-size="9.00">Obesity II</text>
<text text-anchor="start" x="412.62" y="-471.45" font-family="Times New Roman,serif" font-weight="bold" font-size="9.00">Obesity III</text>
<polygon fill="none" stroke="black" points="477.75,-463 477.75,-531 542.75,-531 542.75,-463 477.75,-463"/>
<text text-anchor="start" x="484.75" y="-495.07" font-family="Times New Roman,serif" font-weight="bold" font-size="9.00">Overweight I</text>
<polygon fill="none" stroke="black" points="388.5,-462 388.5,-532 543.75,-532 543.75,-462 388.5,-462"/>
</g>
<!-- n_0_1_3_4_5_6 -->
<g id="node2" class="node">
<title>n_0_1_3_4_5_6</title>
<polygon fill="none" stroke="black" points="320.5,-351 320.5,-410 408.75,-410 408.75,-351 320.5,-351"/>
<text text-anchor="start" x="327.5" y="-395.45" font-family="Times New Roman,serif" font-weight="bold" font-size="9.00">Insufficient weight</text>
<text text-anchor="start" x="349.62" y="-386.45" font-family="Times New Roman,serif" font-weight="bold" font-size="9.00">Normal</text>
<text text-anchor="start" x="337.62" y="-377.45" font-family="Times New Roman,serif" font-weight="bold" font-size="9.00">Overweight II</text>
<text text-anchor="start" x="346.62" y="-368.45" font-family="Times New Roman,serif" font-weight="bold" font-size="9.00">Obesity I</text>
<text text-anchor="start" x="343.62" y="-359.45" font-family="Times New Roman,serif" font-weight="bold" font-size="9.00">Obesity III</text>
<polygon fill="none" stroke="black" points="408.75,-351 408.75,-410 461.75,-410 461.75,-351 408.75,-351"/>
<text text-anchor="start" x="415.75" y="-378.57" font-family="Times New Roman,serif" font-weight="bold" font-size="9.00">Obesity II</text>
<polygon fill="none" stroke="black" points="319.5,-350 319.5,-411 462.75,-411 462.75,-350 319.5,-350"/>
</g>
<!-- n_0_1_2_3_4_5_6&#45;&gt;n_0_1_3_4_5_6 -->
<g id="edge1" class="edge">
<title>n_0_1_2_3_4_5_6&#45;&gt;n_0_1_3_4_5_6</title>
<path fill="none" stroke="black" d="M441.36,-458.19C434.23,-447.31 426.41,-435.36 419.1,-424.21"/>
<polygon fill="black" stroke="black" points="422.08,-422.37 413.67,-415.92 416.22,-426.2 422.08,-422.37"/>
</g>
<!-- n_2 -->
<g id="node13" class="node">
<title>n_2</title>
<polygon fill="none" stroke="black" points="508.62,-367.88 508.62,-393.12 573.62,-393.12 573.62,-367.88 508.62,-367.88"/>
<text text-anchor="start" x="515.62" y="-378.57" font-family="Times New Roman,serif" font-weight="bold" font-size="9.00">Overweight I</text>
<polygon fill="none" stroke="black" points="507.62,-366.88 507.62,-394.12 574.62,-394.12 574.62,-366.88 507.62,-366.88"/>
</g>
<!-- n_0_1_2_3_4_5_6&#45;&gt;n_2 -->
<g id="edge12" class="edge">
<title>n_0_1_2_3_4_5_6&#45;&gt;n_2</title>
<path fill="none" stroke="black" d="M490.89,-458.19C501.64,-441.78 513.97,-422.96 523.72,-408.07"/>
<polygon fill="black" stroke="black" points="526.63,-410.01 529.18,-399.73 520.78,-406.18 526.63,-410.01"/>
</g>
<!-- n_0_1_3_4_6 -->
<g id="node3" class="node">
<title>n_0_1_3_4_6</title>
<polygon fill="none" stroke="black" points="246,-248 246,-298 334.25,-298 334.25,-248 246,-248"/>
<text text-anchor="start" x="253" y="-283.45" font-family="Times New Roman,serif" font-weight="bold" font-size="9.00">Insufficient weight</text>
<text text-anchor="start" x="275.12" y="-274.45" font-family="Times New Roman,serif" font-weight="bold" font-size="9.00">Normal</text>
<text text-anchor="start" x="263.12" y="-265.45" font-family="Times New Roman,serif" font-weight="bold" font-size="9.00">Overweight II</text>
<text text-anchor="start" x="272.12" y="-256.45" font-family="Times New Roman,serif" font-weight="bold" font-size="9.00">Obesity I</text>
<polygon fill="none" stroke="black" points="334.25,-248 334.25,-298 390.25,-298 390.25,-248 334.25,-248"/>
<text text-anchor="start" x="341.25" y="-271.07" font-family="Times New Roman,serif" font-weight="bold" font-size="9.00">Obesity III</text>
<polygon fill="none" stroke="black" points="245,-247 245,-299 391.25,-299 391.25,-247 245,-247"/>
</g>
<!-- n_0_1_3_4_5_6&#45;&gt;n_0_1_3_4_6 -->
<g id="edge2" class="edge">
<title>n_0_1_3_4_5_6&#45;&gt;n_0_1_3_4_6</title>
<path fill="none" stroke="black" d="M368.03,-346.12C360.6,-335.38 352.31,-323.4 344.65,-312.33"/>
<polygon fill="black" stroke="black" points="347.55,-310.37 338.98,-304.14 341.79,-314.36 347.55,-310.37"/>
</g>
<!-- n_5 -->
<g id="node12" class="node">
<title>n_5</title>
<polygon fill="none" stroke="black" points="437.62,-260.38 437.62,-285.62 490.62,-285.62 490.62,-260.38 437.62,-260.38"/>
<text text-anchor="start" x="444.62" y="-271.07" font-family="Times New Roman,serif" font-weight="bold" font-size="9.00">Obesity II</text>
<polygon fill="none" stroke="black" points="436.62,-259.38 436.62,-286.62 491.62,-286.62 491.62,-259.38 436.62,-259.38"/>
</g>
<!-- n_0_1_3_4_5_6&#45;&gt;n_5 -->
<g id="edge11" class="edge">
<title>n_0_1_3_4_5_6&#45;&gt;n_5</title>
<path fill="none" stroke="black" d="M414.22,-346.12C424.44,-331.35 436.29,-314.23 445.87,-300.38"/>
<polygon fill="black" stroke="black" points="448.72,-302.41 451.54,-292.2 442.97,-298.43 448.72,-302.41"/>
</g>
<!-- n_0_1_3_4 -->
<g id="node4" class="node">
<title>n_0_1_3_4</title>
<polygon fill="none" stroke="black" points="177,-163 177,-195 265.25,-195 265.25,-163 177,-163"/>
<text text-anchor="start" x="184" y="-180.45" font-family="Times New Roman,serif" font-weight="bold" font-size="9.00">Insufficient weight</text>
<text text-anchor="start" x="194.12" y="-171.45" font-family="Times New Roman,serif" font-weight="bold" font-size="9.00">Overweight II</text>
<polygon fill="none" stroke="black" points="265.25,-163 265.25,-195 315.25,-195 315.25,-163 265.25,-163"/>
<text text-anchor="start" x="275.25" y="-180.45" font-family="Times New Roman,serif" font-weight="bold" font-size="9.00">Normal</text>
<text text-anchor="start" x="272.25" y="-171.45" font-family="Times New Roman,serif" font-weight="bold" font-size="9.00">Obesity I</text>
<polygon fill="none" stroke="black" points="176,-162 176,-196 316.25,-196 316.25,-162 176,-162"/>
</g>
<!-- n_0_1_3_4_6&#45;&gt;n_0_1_3_4 -->
<g id="edge3" class="edge">
<title>n_0_1_3_4_6&#45;&gt;n_0_1_3_4</title>
<path fill="none" stroke="black" d="M295.54,-243.14C286.91,-232.11 277.07,-219.54 268.46,-208.54"/>
<polygon fill="black" stroke="black" points="271.42,-206.64 262.5,-200.92 265.91,-210.96 271.42,-206.64"/>
</g>
<!-- n_6 -->
<g id="node11" class="node">
<title>n_6</title>
<polygon fill="none" stroke="black" points="362.12,-166.38 362.12,-191.62 418.12,-191.62 418.12,-166.38 362.12,-166.38"/>
<text text-anchor="start" x="369.12" y="-177.07" font-family="Times New Roman,serif" font-weight="bold" font-size="9.00">Obesity III</text>
<polygon fill="none" stroke="black" points="361.12,-165.38 361.12,-192.62 419.12,-192.62 419.12,-165.38 361.12,-165.38"/>
</g>
<!-- n_0_1_3_4_6&#45;&gt;n_6 -->
<g id="edge10" class="edge">
<title>n_0_1_3_4_6&#45;&gt;n_6</title>
<path fill="none" stroke="black" d="M340.71,-243.14C350.08,-231.17 360.87,-217.38 369.97,-205.76"/>
<polygon fill="black" stroke="black" points="372.51,-208.19 375.91,-198.16 366.99,-203.88 372.51,-208.19"/>
</g>
<!-- n_0_3 -->
<g id="node5" class="node">
<title>n_0_3</title>
<polygon fill="none" stroke="black" points="82,-84.38 82,-109.62 170.25,-109.62 170.25,-84.38 82,-84.38"/>
<text text-anchor="start" x="89" y="-95.08" font-family="Times New Roman,serif" font-weight="bold" font-size="9.00">Insufficient weight</text>
<polygon fill="none" stroke="black" points="170.25,-84.38 170.25,-109.62 238.25,-109.62 238.25,-84.38 170.25,-84.38"/>
<text text-anchor="start" x="177.25" y="-95.08" font-family="Times New Roman,serif" font-weight="bold" font-size="9.00">Overweight II</text>
<polygon fill="none" stroke="black" points="81,-83.38 81,-110.62 239.25,-110.62 239.25,-83.38 81,-83.38"/>
</g>
<!-- n_0_1_3_4&#45;&gt;n_0_3 -->
<g id="edge4" class="edge">
<title>n_0_1_3_4&#45;&gt;n_0_3</title>
<path fill="none" stroke="black" d="M224.87,-158.22C213.23,-147.4 198.7,-133.89 186.36,-122.41"/>
<polygon fill="black" stroke="black" points="189.05,-120.12 179.34,-115.87 184.28,-125.25 189.05,-120.12"/>
</g>
<!-- n_1_4 -->
<g id="node8" class="node">
<title>n_1_4</title>
<polygon fill="none" stroke="black" points="285.12,-84.38 285.12,-109.62 329.12,-109.62 329.12,-84.38 285.12,-84.38"/>
<text text-anchor="start" x="292.12" y="-95.08" font-family="Times New Roman,serif" font-weight="bold" font-size="9.00">Normal</text>
<polygon fill="none" stroke="black" points="329.12,-84.38 329.12,-109.62 379.12,-109.62 379.12,-84.38 329.12,-84.38"/>
<text text-anchor="start" x="336.12" y="-95.08" font-family="Times New Roman,serif" font-weight="bold" font-size="9.00">Obesity I</text>
<polygon fill="none" stroke="black" points="284.12,-83.38 284.12,-110.62 380.12,-110.62 380.12,-83.38 284.12,-83.38"/>
</g>
<!-- n_0_1_3_4&#45;&gt;n_1_4 -->
<g id="edge7" class="edge">
<title>n_0_1_3_4&#45;&gt;n_1_4</title>
<path fill="none" stroke="black" d="M267.38,-158.22C279.02,-147.4 293.55,-133.89 305.89,-122.41"/>
<polygon fill="black" stroke="black" points="307.97,-125.25 312.91,-115.87 303.2,-120.12 307.97,-125.25"/>
</g>
<!-- n_0 -->
<g id="node6" class="node">
<title>n_0</title>
<polygon fill="none" stroke="black" points="9,-5.38 9,-30.62 97.25,-30.62 97.25,-5.38 9,-5.38"/>
<text text-anchor="start" x="16" y="-16.07" font-family="Times New Roman,serif" font-weight="bold" font-size="9.00">Insufficient weight</text>
<polygon fill="none" stroke="black" points="8,-4.38 8,-31.62 98.25,-31.62 98.25,-4.38 8,-4.38"/>
</g>
<!-- n_0_3&#45;&gt;n_0 -->
<g id="edge5" class="edge">
<title>n_0_3&#45;&gt;n_0</title>
<path fill="none" stroke="black" d="M136.64,-79.1C121.73,-68.37 102.22,-54.33 85.8,-42.51"/>
<polygon fill="black" stroke="black" points="87.94,-39.74 77.78,-36.74 83.85,-45.42 87.94,-39.74"/>
</g>
<!-- n_3 -->
<g id="node7" class="node">
<title>n_3</title>
<polygon fill="none" stroke="black" points="144.12,-5.38 144.12,-30.62 212.12,-30.62 212.12,-5.38 144.12,-5.38"/>
<text text-anchor="start" x="151.12" y="-16.07" font-family="Times New Roman,serif" font-weight="bold" font-size="9.00">Overweight II</text>
<polygon fill="none" stroke="black" points="143.12,-4.38 143.12,-31.62 213.12,-31.62 213.12,-4.38 143.12,-4.38"/>
</g>
<!-- n_0_3&#45;&gt;n_3 -->
<g id="edge6" class="edge">
<title>n_0_3&#45;&gt;n_3</title>
<path fill="none" stroke="black" d="M164.03,-79.29C166.23,-69.87 169.04,-57.86 171.57,-47.04"/>
<polygon fill="black" stroke="black" points="174.95,-47.95 173.82,-37.41 168.14,-46.36 174.95,-47.95"/>
</g>
<!-- n_1 -->
<g id="node9" class="node">
<title>n_1</title>
<polygon fill="none" stroke="black" points="293.12,-5.38 293.12,-30.62 337.12,-30.62 337.12,-5.38 293.12,-5.38"/>
<text text-anchor="start" x="300.12" y="-16.07" font-family="Times New Roman,serif" font-weight="bold" font-size="9.00">Normal</text>
<polygon fill="none" stroke="black" points="292.12,-4.38 292.12,-31.62 338.12,-31.62 338.12,-4.38 292.12,-4.38"/>
</g>
<!-- n_1_4&#45;&gt;n_1 -->
<g id="edge8" class="edge">
<title>n_1_4&#45;&gt;n_1</title>
<path fill="none" stroke="black" d="M328.44,-79.29C326.36,-69.87 323.7,-57.86 321.31,-47.04"/>
<polygon fill="black" stroke="black" points="324.77,-46.43 319.19,-37.42 317.93,-47.94 324.77,-46.43"/>
</g>
<!-- n_4 -->
<g id="node10" class="node">
<title>n_4</title>
<polygon fill="none" stroke="black" points="384.12,-5.38 384.12,-30.62 434.12,-30.62 434.12,-5.38 384.12,-5.38"/>
<text text-anchor="start" x="391.12" y="-16.07" font-family="Times New Roman,serif" font-weight="bold" font-size="9.00">Obesity I</text>
<polygon fill="none" stroke="black" points="383.12,-4.38 383.12,-31.62 435.12,-31.62 435.12,-4.38 383.12,-4.38"/>
</g>
<!-- n_1_4&#45;&gt;n_4 -->
<g id="edge9" class="edge">
<title>n_1_4&#45;&gt;n_4</title>
<path fill="none" stroke="black" d="M348.83,-79.29C359.15,-68.97 372.59,-55.53 384.16,-43.96"/>
<polygon fill="black" stroke="black" points="386.52,-46.56 391.11,-37.01 381.57,-41.61 386.52,-46.56"/>
</g>
</g>
</svg>
