<?xml version="1.0" encoding="UTF-8" standalone="no"?>
<!DOCTYPE svg PUBLIC "-//W3C//DTD SVG 1.1//EN"
 "http://www.w3.org/Graphics/SVG/1.1/DTD/svg11.dtd">
<!-- Generated by graphviz version 10.0.1 (20240210.2158)
 -->
<!-- Title: ND Pages: 1 -->
<svg width="700pt" height="311pt"
 viewBox="0.00 0.00 700.12 311.00" xmlns="http://www.w3.org/2000/svg" xmlns:xlink="http://www.w3.org/1999/xlink">
<g id="graph0" class="graph" transform="scale(1 1) rotate(0) translate(4 307)">
<title>ND</title>
<polygon fill="white" stroke="none" points="-4,4 -4,-307 696.12,-307 696.12,4 -4,4"/>
<!-- n_0_1_2_3_4_5_6 -->
<g id="node1" class="node">
<title>n_0_1_2_3_4_5_6</title>
<polygon fill="none" stroke="black" points="346,-248 346,-298 434.25,-298 434.25,-248 346,-248"/>
<text text-anchor="start" x="353" y="-283.45" font-family="Times New Roman,serif" font-weight="bold" font-size="9.00">Insufficient weight</text>
<text text-anchor="start" x="372.12" y="-274.45" font-family="Times New Roman,serif" font-weight="bold" font-size="9.00">Obesity I</text>
<text text-anchor="start" x="370.62" y="-265.45" font-family="Times New Roman,serif" font-weight="bold" font-size="9.00">Obesity II</text>
<text text-anchor="start" x="369.12" y="-256.45" font-family="Times New Roman,serif" font-weight="bold" font-size="9.00">Obesity III</text>
<polygon fill="none" stroke="black" points="434.25,-248 434.25,-298 502.25,-298 502.25,-248 434.25,-248"/>
<text text-anchor="start" x="453.25" y="-278.95" font-family="Times New Roman,serif" font-weight="bold" font-size="9.00">Normal</text>
<text text-anchor="start" x="442.75" y="-269.95" font-family="Times New Roman,serif" font-weight="bold" font-size="9.00">Overweight I</text>
<text text-anchor="start" x="441.25" y="-260.95" font-family="Times New Roman,serif" font-weight="bold" font-size="9.00">Overweight II</text>
<polygon fill="none" stroke="black" points="345,-247 345,-299 503.25,-299 503.25,-247 345,-247"/>
</g>
<!-- n_0_4_5_6 -->
<g id="node2" class="node">
<title>n_0_4_5_6</title>
<polygon fill="none" stroke="black" points="259,-163 259,-195 347.25,-195 347.25,-163 259,-163"/>
<text text-anchor="start" x="266" y="-180.45" font-family="Times New Roman,serif" font-weight="bold" font-size="9.00">Insufficient weight</text>
<text text-anchor="start" x="285.12" y="-171.45" font-family="Times New Roman,serif" font-weight="bold" font-size="9.00">Obesity I</text>
<polygon fill="none" stroke="black" points="347.25,-163 347.25,-195 403.25,-195 403.25,-163 347.25,-163"/>
<text text-anchor="start" x="355.75" y="-180.45" font-family="Times New Roman,serif" font-weight="bold" font-size="9.00">Obesity II</text>
<text text-anchor="start" x="354.25" y="-171.45" font-family="Times New Roman,serif" font-weight="bold" font-size="9.00">Obesity III</text>
<polygon fill="none" stroke="black" points="258,-162 258,-196 404.25,-196 404.25,-162 258,-162"/>
</g>
<!-- n_0_1_2_3_4_5_6&#45;&gt;n_0_4_5_6 -->
<g id="edge1" class="edge">
<title>n_0_1_2_3_4_5_6&#45;&gt;n_0_4_5_6</title>
<path fill="none" stroke="black" d="M394.95,-243.14C383.47,-231.78 370.33,-218.79 358.98,-207.55"/>
<polygon fill="black" stroke="black" points="361.72,-205.34 352.15,-200.8 356.79,-210.32 361.72,-205.34"/>
</g>
<!-- n_1_2_3 -->
<g id="node9" class="node">
<title>n_1_2_3</title>
<polygon fill="none" stroke="black" points="450.62,-163 450.62,-195 515.62,-195 515.62,-163 450.62,-163"/>
<text text-anchor="start" x="468.12" y="-180.45" font-family="Times New Roman,serif" font-weight="bold" font-size="9.00">Normal</text>
<text text-anchor="start" x="457.62" y="-171.45" font-family="Times New Roman,serif" font-weight="bold" font-size="9.00">Overweight I</text>
<polygon fill="none" stroke="black" points="515.62,-163 515.62,-195 583.62,-195 583.62,-163 515.62,-163"/>
<text text-anchor="start" x="522.62" y="-177.07" font-family="Times New Roman,serif" font-weight="bold" font-size="9.00">Overweight II</text>
<polygon fill="none" stroke="black" points="449.62,-162 449.62,-196 584.62,-196 584.62,-162 449.62,-162"/>
</g>
<!-- n_0_1_2_3_4_5_6&#45;&gt;n_1_2_3 -->
<g id="edge8" class="edge">
<title>n_0_1_2_3_4_5_6&#45;&gt;n_1_2_3</title>
<path fill="none" stroke="black" d="M453.3,-243.14C464.78,-231.78 477.92,-218.79 489.27,-207.55"/>
<polygon fill="black" stroke="black" points="491.46,-210.32 496.1,-200.8 486.53,-205.34 491.46,-210.32"/>
</g>
<!-- n_0_4 -->
<g id="node3" class="node">
<title>n_0_4</title>
<polygon fill="none" stroke="black" points="98,-84.38 98,-109.62 186.25,-109.62 186.25,-84.38 98,-84.38"/>
<text text-anchor="start" x="105" y="-95.08" font-family="Times New Roman,serif" font-weight="bold" font-size="9.00">Insufficient weight</text>
<polygon fill="none" stroke="black" points="186.25,-84.38 186.25,-109.62 236.25,-109.62 236.25,-84.38 186.25,-84.38"/>
<text text-anchor="start" x="193.25" y="-95.08" font-family="Times New Roman,serif" font-weight="bold" font-size="9.00">Obesity I</text>
<polygon fill="none" stroke="black" points="97,-83.38 97,-110.62 237.25,-110.62 237.25,-83.38 97,-83.38"/>
</g>
<!-- n_0_4_5_6&#45;&gt;n_0_4 -->
<g id="edge2" class="edge">
<title>n_0_4_5_6&#45;&gt;n_0_4</title>
<path fill="none" stroke="black" d="M290.16,-158.02C266.34,-146.4 236.29,-131.74 211.85,-119.81"/>
<polygon fill="black" stroke="black" points="213.63,-116.79 203.11,-115.55 210.56,-123.08 213.63,-116.79"/>
</g>
<!-- n_5_6 -->
<g id="node6" class="node">
<title>n_5_6</title>
<polygon fill="none" stroke="black" points="283.62,-84.38 283.62,-109.62 336.62,-109.62 336.62,-84.38 283.62,-84.38"/>
<text text-anchor="start" x="290.62" y="-95.08" font-family="Times New Roman,serif" font-weight="bold" font-size="9.00">Obesity II</text>
<polygon fill="none" stroke="black" points="336.62,-84.38 336.62,-109.62 392.62,-109.62 392.62,-84.38 336.62,-84.38"/>
<text text-anchor="start" x="343.62" y="-95.08" font-family="Times New Roman,serif" font-weight="bold" font-size="9.00">Obesity III</text>
<polygon fill="none" stroke="black" points="282.62,-83.38 282.62,-110.62 393.62,-110.62 393.62,-83.38 282.62,-83.38"/>
</g>
<!-- n_0_4_5_6&#45;&gt;n_5_6 -->
<g id="edge5" class="edge">
<title>n_0_4_5_6&#45;&gt;n_5_6</title>
<path fill="none" stroke="black" d="M332.86,-158.22C333.7,-148.54 334.74,-136.72 335.67,-126.11"/>
<polygon fill="black" stroke="black" points="339.13,-126.62 336.52,-116.35 332.16,-126.01 339.13,-126.62"/>
</g>
<!-- n_0 -->
<g id="node4" class="node">
<title>n_0</title>
<polygon fill="none" stroke="black" points="9,-5.38 9,-30.62 97.25,-30.62 97.25,-5.38 9,-5.38"/>
<text text-anchor="start" x="16" y="-16.07" font-family="Times New Roman,serif" font-weight="bold" font-size="9.00">Insufficient weight</text>
<polygon fill="none" stroke="black" points="8,-4.38 8,-31.62 98.25,-31.62 98.25,-4.38 8,-4.38"/>
</g>
<!-- n_0_4&#45;&gt;n_0 -->
<g id="edge3" class="edge">
<title>n_0_4&#45;&gt;n_0</title>
<path fill="none" stroke="black" d="M142.11,-79.1C126.07,-68.27 105.04,-54.06 87.45,-42.18"/>
<polygon fill="black" stroke="black" points="89.58,-39.4 79.34,-36.71 85.67,-45.2 89.58,-39.4"/>
</g>
<!-- n_4 -->
<g id="node5" class="node">
<title>n_4</title>
<polygon fill="none" stroke="black" points="144.12,-5.38 144.12,-30.62 194.12,-30.62 194.12,-5.38 144.12,-5.38"/>
<text text-anchor="start" x="151.12" y="-16.07" font-family="Times New Roman,serif" font-weight="bold" font-size="9.00">Obesity I</text>
<polygon fill="none" stroke="black" points="143.12,-4.38 143.12,-31.62 195.12,-31.62 195.12,-4.38 143.12,-4.38"/>
</g>
<!-- n_0_4&#45;&gt;n_4 -->
<g id="edge4" class="edge">
<title>n_0_4&#45;&gt;n_4</title>
<path fill="none" stroke="black" d="M167.56,-79.29C167.8,-69.97 168.11,-58.11 168.39,-47.38"/>
<polygon fill="black" stroke="black" points="171.88,-47.54 168.65,-37.45 164.89,-47.36 171.88,-47.54"/>
</g>
<!-- n_5 -->
<g id="node7" class="node">
<title>n_5</title>
<polygon fill="none" stroke="black" points="270.62,-5.38 270.62,-30.62 323.62,-30.62 323.62,-5.38 270.62,-5.38"/>
<text text-anchor="start" x="277.62" y="-16.07" font-family="Times New Roman,serif" font-weight="bold" font-size="9.00">Obesity II</text>
<polygon fill="none" stroke="black" points="269.62,-4.38 269.62,-31.62 324.62,-31.62 324.62,-4.38 269.62,-4.38"/>
</g>
<!-- n_5_6&#45;&gt;n_5 -->
<g id="edge6" class="edge">
<title>n_5_6&#45;&gt;n_5</title>
<path fill="none" stroke="black" d="M329.23,-79.29C324.05,-69.57 317.41,-57.09 311.5,-46"/>
<polygon fill="black" stroke="black" points="314.65,-44.46 306.86,-37.28 308.47,-47.75 314.65,-44.46"/>
</g>
<!-- n_6 -->
<g id="node8" class="node">
<title>n_6</title>
<polygon fill="none" stroke="black" points="371.12,-5.38 371.12,-30.62 427.12,-30.62 427.12,-5.38 371.12,-5.38"/>
<text text-anchor="start" x="378.12" y="-16.07" font-family="Times New Roman,serif" font-weight="bold" font-size="9.00">Obesity III</text>
<polygon fill="none" stroke="black" points="370.12,-4.38 370.12,-31.62 428.12,-31.62 428.12,-4.38 370.12,-4.38"/>
</g>
<!-- n_5_6&#45;&gt;n_6 -->
<g id="edge7" class="edge">
<title>n_5_6&#45;&gt;n_6</title>
<path fill="none" stroke="black" d="M351.36,-79.29C359.38,-69.17 369.77,-56.05 378.81,-44.64"/>
<polygon fill="black" stroke="black" points="381.3,-47.14 384.76,-37.13 375.81,-42.79 381.3,-47.14"/>
</g>
<!-- n_1_2 -->
<g id="node10" class="node">
<title>n_1_2</title>
<polygon fill="none" stroke="black" points="458.62,-84.38 458.62,-109.62 502.62,-109.62 502.62,-84.38 458.62,-84.38"/>
<text text-anchor="start" x="465.62" y="-95.08" font-family="Times New Roman,serif" font-weight="bold" font-size="9.00">Normal</text>
<polygon fill="none" stroke="black" points="502.62,-84.38 502.62,-109.62 567.62,-109.62 567.62,-84.38 502.62,-84.38"/>
<text text-anchor="start" x="509.62" y="-95.08" font-family="Times New Roman,serif" font-weight="bold" font-size="9.00">Overweight I</text>
<polygon fill="none" stroke="black" points="457.62,-83.38 457.62,-110.62 568.62,-110.62 568.62,-83.38 457.62,-83.38"/>
</g>
<!-- n_1_2_3&#45;&gt;n_1_2 -->
<g id="edge9" class="edge">
<title>n_1_2_3&#45;&gt;n_1_2</title>
<path fill="none" stroke="black" d="M516.14,-158.22C515.65,-148.54 515.06,-136.72 514.53,-126.11"/>
<polygon fill="black" stroke="black" points="518.04,-126.17 514.04,-116.36 511.05,-126.52 518.04,-126.17"/>
</g>
<!-- n_3 -->
<g id="node13" class="node">
<title>n_3</title>
<polygon fill="none" stroke="black" points="615.12,-84.38 615.12,-109.62 683.12,-109.62 683.12,-84.38 615.12,-84.38"/>
<text text-anchor="start" x="622.12" y="-95.08" font-family="Times New Roman,serif" font-weight="bold" font-size="9.00">Overweight II</text>
<polygon fill="none" stroke="black" points="614.12,-83.38 614.12,-110.62 684.12,-110.62 684.12,-83.38 614.12,-83.38"/>
</g>
<!-- n_1_2_3&#45;&gt;n_3 -->
<g id="edge12" class="edge">
<title>n_1_2_3&#45;&gt;n_3</title>
<path fill="none" stroke="black" d="M550.09,-158.02C568.82,-146.67 592.33,-132.42 611.74,-120.66"/>
<polygon fill="black" stroke="black" points="613.44,-123.72 620.18,-115.54 609.81,-117.73 613.44,-123.72"/>
</g>
<!-- n_1 -->
<g id="node11" class="node">
<title>n_1</title>
<polygon fill="none" stroke="black" points="489.12,-5.38 489.12,-30.62 533.12,-30.62 533.12,-5.38 489.12,-5.38"/>
<text text-anchor="start" x="496.12" y="-16.07" font-family="Times New Roman,serif" font-weight="bold" font-size="9.00">Normal</text>
<polygon fill="none" stroke="black" points="488.12,-4.38 488.12,-31.62 534.12,-31.62 534.12,-4.38 488.12,-4.38"/>
</g>
<!-- n_1_2&#45;&gt;n_1 -->
<g id="edge10" class="edge">
<title>n_1_2&#45;&gt;n_1</title>
<path fill="none" stroke="black" d="M512.69,-79.29C512.45,-69.97 512.14,-58.11 511.86,-47.38"/>
<polygon fill="black" stroke="black" points="515.36,-47.36 511.6,-37.45 508.37,-47.54 515.36,-47.36"/>
</g>
<!-- n_2 -->
<g id="node12" class="node">
<title>n_2</title>
<polygon fill="none" stroke="black" points="580.62,-5.38 580.62,-30.62 645.62,-30.62 645.62,-5.38 580.62,-5.38"/>
<text text-anchor="start" x="587.62" y="-16.07" font-family="Times New Roman,serif" font-weight="bold" font-size="9.00">Overweight I</text>
<polygon fill="none" stroke="black" points="579.62,-4.38 579.62,-31.62 646.62,-31.62 646.62,-4.38 579.62,-4.38"/>
</g>
<!-- n_1_2&#45;&gt;n_2 -->
<g id="edge11" class="edge">
<title>n_1_2&#45;&gt;n_2</title>
<path fill="none" stroke="black" d="M534.82,-79.29C548.62,-68.67 566.7,-54.75 582.01,-42.96"/>
<polygon fill="black" stroke="black" points="584.14,-45.74 589.92,-36.86 579.87,-40.19 584.14,-45.74"/>
</g>
</g>
</svg>
