<?xml version="1.0" encoding="UTF-8" standalone="no"?>
<!DOCTYPE svg PUBLIC "-//W3C//DTD SVG 1.1//EN"
 "http://www.w3.org/Graphics/SVG/1.1/DTD/svg11.dtd">
<!-- Generated by graphviz version 10.0.1 (20240210.2158)
 -->
<!-- Title: ND Pages: 1 -->
<svg width="591pt" height="526pt"
 viewBox="0.00 0.00 590.50 526.00" xmlns="http://www.w3.org/2000/svg" xmlns:xlink="http://www.w3.org/1999/xlink">
<g id="graph0" class="graph" transform="scale(1 1) rotate(0) translate(4 522)">
<title>ND</title>
<polygon fill="white" stroke="none" points="-4,4 -4,-522 586.5,-522 586.5,4 -4,4"/>
<!-- n_0_1_2_3_4_5_6 -->
<g id="node1" class="node">
<title>n_0_1_2_3_4_5_6</title>
<polygon fill="none" stroke="black" points="366.38,-445 366.38,-513 454.62,-513 454.62,-445 366.38,-445"/>
<text text-anchor="start" x="373.38" y="-498.45" font-family="Times New Roman,serif" font-weight="bold" font-size="9.00">Insufficient weight</text>
<text text-anchor="start" x="395.5" y="-489.45" font-family="Times New Roman,serif" font-weight="bold" font-size="9.00">Normal</text>
<text text-anchor="start" x="385" y="-480.45" font-family="Times New Roman,serif" font-weight="bold" font-size="9.00">Overweight I</text>
<text text-anchor="start" x="392.5" y="-471.45" font-family="Times New Roman,serif" font-weight="bold" font-size="9.00">Obesity I</text>
<text text-anchor="start" x="391" y="-462.45" font-family="Times New Roman,serif" font-weight="bold" font-size="9.00">Obesity II</text>
<text text-anchor="start" x="389.5" y="-453.45" font-family="Times New Roman,serif" font-weight="bold" font-size="9.00">Obesity III</text>
<polygon fill="none" stroke="black" points="454.62,-445 454.62,-513 522.62,-513 522.62,-445 454.62,-445"/>
<text text-anchor="start" x="461.62" y="-477.07" font-family="Times New Roman,serif" font-weight="bold" font-size="9.00">Overweight II</text>
<polygon fill="none" stroke="black" points="365.38,-444 365.38,-514 523.62,-514 523.62,-444 365.38,-444"/>
</g>
<!-- n_0_1_2_4_5_6 -->
<g id="node2" class="node">
<title>n_0_1_2_4_5_6</title>
<polygon fill="none" stroke="black" points="288.88,-342 288.88,-392 353.88,-392 353.88,-342 288.88,-342"/>
<text text-anchor="start" x="295.88" y="-377.45" font-family="Times New Roman,serif" font-weight="bold" font-size="9.00">Overweight I</text>
<text text-anchor="start" x="303.38" y="-368.45" font-family="Times New Roman,serif" font-weight="bold" font-size="9.00">Obesity I</text>
<text text-anchor="start" x="301.88" y="-359.45" font-family="Times New Roman,serif" font-weight="bold" font-size="9.00">Obesity II</text>
<text text-anchor="start" x="300.38" y="-350.45" font-family="Times New Roman,serif" font-weight="bold" font-size="9.00">Obesity III</text>
<polygon fill="none" stroke="black" points="353.88,-342 353.88,-392 442.12,-392 442.12,-342 353.88,-342"/>
<text text-anchor="start" x="360.88" y="-368.45" font-family="Times New Roman,serif" font-weight="bold" font-size="9.00">Insufficient weight</text>
<text text-anchor="start" x="383" y="-359.45" font-family="Times New Roman,serif" font-weight="bold" font-size="9.00">Normal</text>
<polygon fill="none" stroke="black" points="287.88,-341 287.88,-393 443.12,-393 443.12,-341 287.88,-341"/>
</g>
<!-- n_0_1_2_3_4_5_6&#45;&gt;n_0_1_2_4_5_6 -->
<g id="edge1" class="edge">
<title>n_0_1_2_3_4_5_6&#45;&gt;n_0_1_2_4_5_6</title>
<path fill="none" stroke="black" d="M417.31,-440.14C409.44,-429.19 400.85,-417.22 392.96,-406.23"/>
<polygon fill="black" stroke="black" points="395.81,-404.2 387.13,-398.12 390.12,-408.28 395.81,-404.2"/>
</g>
<!-- n_3 -->
<g id="node13" class="node">
<title>n_3</title>
<polygon fill="none" stroke="black" points="489.5,-354.38 489.5,-379.62 557.5,-379.62 557.5,-354.38 489.5,-354.38"/>
<text text-anchor="start" x="496.5" y="-365.07" font-family="Times New Roman,serif" font-weight="bold" font-size="9.00">Overweight II</text>
<polygon fill="none" stroke="black" points="488.5,-353.38 488.5,-380.62 558.5,-380.62 558.5,-353.38 488.5,-353.38"/>
</g>
<!-- n_0_1_2_3_4_5_6&#45;&gt;n_3 -->
<g id="edge12" class="edge">
<title>n_0_1_2_3_4_5_6&#45;&gt;n_3</title>
<path fill="none" stroke="black" d="M471.69,-440.14C482.53,-425.04 494.76,-408.02 504.61,-394.31"/>
<polygon fill="black" stroke="black" points="507.43,-396.38 510.42,-386.21 501.74,-392.29 507.43,-396.38"/>
</g>
<!-- n_2_4_5_6 -->
<g id="node3" class="node">
<title>n_2_4_5_6</title>
<polygon fill="none" stroke="black" points="218,-248 218,-289 283,-289 283,-248 218,-248"/>
<text text-anchor="start" x="225" y="-274.45" font-family="Times New Roman,serif" font-weight="bold" font-size="9.00">Overweight I</text>
<text text-anchor="start" x="232.5" y="-265.45" font-family="Times New Roman,serif" font-weight="bold" font-size="9.00">Obesity I</text>
<text text-anchor="start" x="231" y="-256.45" font-family="Times New Roman,serif" font-weight="bold" font-size="9.00">Obesity II</text>
<polygon fill="none" stroke="black" points="283,-248 283,-289 339,-289 339,-248 283,-248"/>
<text text-anchor="start" x="290" y="-266.57" font-family="Times New Roman,serif" font-weight="bold" font-size="9.00">Obesity III</text>
<polygon fill="none" stroke="black" points="217,-247 217,-290 340,-290 340,-247 217,-247"/>
</g>
<!-- n_0_1_2_4_5_6&#45;&gt;n_2_4_5_6 -->
<g id="edge2" class="edge">
<title>n_0_1_2_4_5_6&#45;&gt;n_2_4_5_6</title>
<path fill="none" stroke="black" d="M339.4,-337.05C329.51,-326.08 318.18,-313.51 308,-302.22"/>
<polygon fill="black" stroke="black" points="310.78,-300.08 301.49,-295 305.58,-304.77 310.78,-300.08"/>
</g>
<!-- n_0_1 -->
<g id="node10" class="node">
<title>n_0_1</title>
<polygon fill="none" stroke="black" points="386.38,-255.88 386.38,-281.12 474.62,-281.12 474.62,-255.88 386.38,-255.88"/>
<text text-anchor="start" x="393.38" y="-266.57" font-family="Times New Roman,serif" font-weight="bold" font-size="9.00">Insufficient weight</text>
<polygon fill="none" stroke="black" points="474.62,-255.88 474.62,-281.12 518.62,-281.12 518.62,-255.88 474.62,-255.88"/>
<text text-anchor="start" x="481.62" y="-266.57" font-family="Times New Roman,serif" font-weight="bold" font-size="9.00">Normal</text>
<polygon fill="none" stroke="black" points="385.38,-254.88 385.38,-282.12 519.62,-282.12 519.62,-254.88 385.38,-254.88"/>
</g>
<!-- n_0_1_2_4_5_6&#45;&gt;n_0_1 -->
<g id="edge9" class="edge">
<title>n_0_1_2_4_5_6&#45;&gt;n_0_1</title>
<path fill="none" stroke="black" d="M391.6,-337.05C403.72,-323.6 418,-307.77 429.68,-294.81"/>
<polygon fill="black" stroke="black" points="432.18,-297.26 436.28,-287.49 426.99,-292.57 432.18,-297.26"/>
</g>
<!-- n_2_4_5 -->
<g id="node4" class="node">
<title>n_2_4_5</title>
<polygon fill="none" stroke="black" points="102,-163 102,-195 167,-195 167,-163 102,-163"/>
<text text-anchor="start" x="109" y="-180.45" font-family="Times New Roman,serif" font-weight="bold" font-size="9.00">Overweight I</text>
<text text-anchor="start" x="115" y="-171.45" font-family="Times New Roman,serif" font-weight="bold" font-size="9.00">Obesity II</text>
<polygon fill="none" stroke="black" points="167,-163 167,-195 217,-195 217,-163 167,-163"/>
<text text-anchor="start" x="174" y="-177.07" font-family="Times New Roman,serif" font-weight="bold" font-size="9.00">Obesity I</text>
<polygon fill="none" stroke="black" points="101,-162 101,-196 218,-196 218,-162 101,-162"/>
</g>
<!-- n_2_4_5_6&#45;&gt;n_2_4_5 -->
<g id="edge3" class="edge">
<title>n_2_4_5_6&#45;&gt;n_2_4_5</title>
<path fill="none" stroke="black" d="M245.35,-243.13C229.83,-231.71 211.31,-218.1 195.45,-206.43"/>
<polygon fill="black" stroke="black" points="197.81,-203.83 187.68,-200.72 193.67,-209.47 197.81,-203.83"/>
</g>
<!-- n_6 -->
<g id="node9" class="node">
<title>n_6</title>
<polygon fill="none" stroke="black" points="264.5,-166.38 264.5,-191.62 320.5,-191.62 320.5,-166.38 264.5,-166.38"/>
<text text-anchor="start" x="271.5" y="-177.07" font-family="Times New Roman,serif" font-weight="bold" font-size="9.00">Obesity III</text>
<polygon fill="none" stroke="black" points="263.5,-165.38 263.5,-192.62 321.5,-192.62 321.5,-165.38 263.5,-165.38"/>
</g>
<!-- n_2_4_5_6&#45;&gt;n_6 -->
<g id="edge8" class="edge">
<title>n_2_4_5_6&#45;&gt;n_6</title>
<path fill="none" stroke="black" d="M282.4,-243.13C284.15,-232.17 286.23,-219.18 288.05,-207.84"/>
<polygon fill="black" stroke="black" points="291.45,-208.69 289.58,-198.27 284.54,-207.59 291.45,-208.69"/>
</g>
<!-- n_2_5 -->
<g id="node5" class="node">
<title>n_2_5</title>
<polygon fill="none" stroke="black" points="35.5,-84.38 35.5,-109.62 100.5,-109.62 100.5,-84.38 35.5,-84.38"/>
<text text-anchor="start" x="42.5" y="-95.08" font-family="Times New Roman,serif" font-weight="bold" font-size="9.00">Overweight I</text>
<polygon fill="none" stroke="black" points="100.5,-84.38 100.5,-109.62 153.5,-109.62 153.5,-84.38 100.5,-84.38"/>
<text text-anchor="start" x="107.5" y="-95.08" font-family="Times New Roman,serif" font-weight="bold" font-size="9.00">Obesity II</text>
<polygon fill="none" stroke="black" points="34.5,-83.38 34.5,-110.62 154.5,-110.62 154.5,-83.38 34.5,-83.38"/>
</g>
<!-- n_2_4_5&#45;&gt;n_2_5 -->
<g id="edge4" class="edge">
<title>n_2_4_5&#45;&gt;n_2_5</title>
<path fill="none" stroke="black" d="M143.43,-158.22C134.97,-147.81 124.5,-134.92 115.42,-123.74"/>
<polygon fill="black" stroke="black" points="118.16,-121.57 109.14,-116.02 112.73,-125.99 118.16,-121.57"/>
</g>
<!-- n_4 -->
<g id="node8" class="node">
<title>n_4</title>
<polygon fill="none" stroke="black" points="200.5,-84.38 200.5,-109.62 250.5,-109.62 250.5,-84.38 200.5,-84.38"/>
<text text-anchor="start" x="207.5" y="-95.08" font-family="Times New Roman,serif" font-weight="bold" font-size="9.00">Obesity I</text>
<polygon fill="none" stroke="black" points="199.5,-83.38 199.5,-110.62 251.5,-110.62 251.5,-83.38 199.5,-83.38"/>
</g>
<!-- n_2_4_5&#45;&gt;n_4 -->
<g id="edge7" class="edge">
<title>n_2_4_5&#45;&gt;n_4</title>
<path fill="none" stroke="black" d="M175.81,-158.22C184.49,-147.71 195.25,-134.66 204.54,-123.41"/>
<polygon fill="black" stroke="black" points="206.98,-125.95 210.64,-116.01 201.58,-121.5 206.98,-125.95"/>
</g>
<!-- n_2 -->
<g id="node6" class="node">
<title>n_2</title>
<polygon fill="none" stroke="black" points="9,-5.38 9,-30.62 74,-30.62 74,-5.38 9,-5.38"/>
<text text-anchor="start" x="16" y="-16.07" font-family="Times New Roman,serif" font-weight="bold" font-size="9.00">Overweight I</text>
<polygon fill="none" stroke="black" points="8,-4.38 8,-31.62 75,-31.62 75,-4.38 8,-4.38"/>
</g>
<!-- n_2_5&#45;&gt;n_2 -->
<g id="edge5" class="edge">
<title>n_2_5&#45;&gt;n_2</title>
<path fill="none" stroke="black" d="M83,-79.29C76.17,-69.37 67.36,-56.57 59.62,-45.32"/>
<polygon fill="black" stroke="black" points="62.57,-43.44 54.02,-37.19 56.81,-47.41 62.57,-43.44"/>
</g>
<!-- n_5 -->
<g id="node7" class="node">
<title>n_5</title>
<polygon fill="none" stroke="black" points="121,-5.38 121,-30.62 174,-30.62 174,-5.38 121,-5.38"/>
<text text-anchor="start" x="128" y="-16.07" font-family="Times New Roman,serif" font-weight="bold" font-size="9.00">Obesity II</text>
<polygon fill="none" stroke="black" points="120,-4.38 120,-31.62 175,-31.62 175,-4.38 120,-4.38"/>
</g>
<!-- n_2_5&#45;&gt;n_5 -->
<g id="edge6" class="edge">
<title>n_2_5&#45;&gt;n_5</title>
<path fill="none" stroke="black" d="M106,-79.29C112.83,-69.37 121.64,-56.57 129.38,-45.32"/>
<polygon fill="black" stroke="black" points="132.19,-47.41 134.98,-37.19 126.43,-43.44 132.19,-47.41"/>
</g>
<!-- n_0 -->
<g id="node11" class="node">
<title>n_0</title>
<polygon fill="none" stroke="black" points="394.38,-166.38 394.38,-191.62 482.62,-191.62 482.62,-166.38 394.38,-166.38"/>
<text text-anchor="start" x="401.38" y="-177.07" font-family="Times New Roman,serif" font-weight="bold" font-size="9.00">Insufficient weight</text>
<polygon fill="none" stroke="black" points="393.38,-165.38 393.38,-192.62 483.62,-192.62 483.62,-165.38 393.38,-165.38"/>
</g>
<!-- n_0_1&#45;&gt;n_0 -->
<g id="edge10" class="edge">
<title>n_0_1&#45;&gt;n_0</title>
<path fill="none" stroke="black" d="M449.8,-250.63C447.86,-238.52 445.21,-221.94 442.96,-207.88"/>
<polygon fill="black" stroke="black" points="446.47,-207.64 441.43,-198.31 439.55,-208.74 446.47,-207.64"/>
</g>
<!-- n_1 -->
<g id="node12" class="node">
<title>n_1</title>
<polygon fill="none" stroke="black" points="529.5,-166.38 529.5,-191.62 573.5,-191.62 573.5,-166.38 529.5,-166.38"/>
<text text-anchor="start" x="536.5" y="-177.07" font-family="Times New Roman,serif" font-weight="bold" font-size="9.00">Normal</text>
<polygon fill="none" stroke="black" points="528.5,-165.38 528.5,-192.62 574.5,-192.62 574.5,-165.38 528.5,-165.38"/>
</g>
<!-- n_0_1&#45;&gt;n_1 -->
<g id="edge11" class="edge">
<title>n_0_1&#45;&gt;n_1</title>
<path fill="none" stroke="black" d="M471.59,-250.63C486.52,-237.43 507.47,-218.92 524.18,-204.15"/>
<polygon fill="black" stroke="black" points="526.16,-207.07 531.34,-197.82 521.53,-201.82 526.16,-207.07"/>
</g>
</g>
</svg>
