<?xml version="1.0" encoding="UTF-8" standalone="no"?>
<!DOCTYPE svg PUBLIC "-//W3C//DTD SVG 1.1//EN"
 "http://www.w3.org/Graphics/SVG/1.1/DTD/svg11.dtd">
<!-- Generated by graphviz version 10.0.1 (20240210.2158)
 -->
<!-- Title: ND Pages: 1 -->
<svg width="597pt" height="526pt"
 viewBox="0.00 0.00 597.00 526.00" xmlns="http://www.w3.org/2000/svg" xmlns:xlink="http://www.w3.org/1999/xlink">
<g id="graph0" class="graph" transform="scale(1 1) rotate(0) translate(4 522)">
<title>ND</title>
<polygon fill="white" stroke="none" points="-4,4 -4,-522 593,-522 593,4 -4,4"/>
<!-- n_0_1_2_3_4_5_6 -->
<g id="node1" class="node">
<title>n_0_1_2_3_4_5_6</title>
<polygon fill="none" stroke="black" points="379.38,-445 379.38,-513 467.62,-513 467.62,-445 379.38,-445"/>
<text text-anchor="start" x="386.38" y="-498.45" font-family="Times New Roman,serif" font-weight="bold" font-size="9.00">Insufficient weight</text>
<text text-anchor="start" x="408.5" y="-489.45" font-family="Times New Roman,serif" font-weight="bold" font-size="9.00">Normal</text>
<text text-anchor="start" x="398" y="-480.45" font-family="Times New Roman,serif" font-weight="bold" font-size="9.00">Overweight I</text>
<text text-anchor="start" x="396.5" y="-471.45" font-family="Times New Roman,serif" font-weight="bold" font-size="9.00">Overweight II</text>
<text text-anchor="start" x="405.5" y="-462.45" font-family="Times New Roman,serif" font-weight="bold" font-size="9.00">Obesity I</text>
<text text-anchor="start" x="402.5" y="-453.45" font-family="Times New Roman,serif" font-weight="bold" font-size="9.00">Obesity III</text>
<polygon fill="none" stroke="black" points="467.62,-445 467.62,-513 520.62,-513 520.62,-445 467.62,-445"/>
<text text-anchor="start" x="474.62" y="-477.07" font-family="Times New Roman,serif" font-weight="bold" font-size="9.00">Obesity II</text>
<polygon fill="none" stroke="black" points="378.38,-444 378.38,-514 521.62,-514 521.62,-444 378.38,-444"/>
</g>
<!-- n_0_1_2_3_4_6 -->
<g id="node2" class="node">
<title>n_0_1_2_3_4_6</title>
<polygon fill="none" stroke="black" points="298.38,-342 298.38,-392 386.62,-392 386.62,-342 298.38,-342"/>
<text text-anchor="start" x="305.38" y="-377.45" font-family="Times New Roman,serif" font-weight="bold" font-size="9.00">Insufficient weight</text>
<text text-anchor="start" x="327.5" y="-368.45" font-family="Times New Roman,serif" font-weight="bold" font-size="9.00">Normal</text>
<text text-anchor="start" x="315.5" y="-359.45" font-family="Times New Roman,serif" font-weight="bold" font-size="9.00">Overweight II</text>
<text text-anchor="start" x="321.5" y="-350.45" font-family="Times New Roman,serif" font-weight="bold" font-size="9.00">Obesity III</text>
<polygon fill="none" stroke="black" points="386.62,-342 386.62,-392 451.62,-392 451.62,-342 386.62,-342"/>
<text text-anchor="start" x="393.62" y="-368.45" font-family="Times New Roman,serif" font-weight="bold" font-size="9.00">Overweight I</text>
<text text-anchor="start" x="401.12" y="-359.45" font-family="Times New Roman,serif" font-weight="bold" font-size="9.00">Obesity I</text>
<polygon fill="none" stroke="black" points="297.38,-341 297.38,-393 452.62,-393 452.62,-341 297.38,-341"/>
</g>
<!-- n_0_1_2_3_4_5_6&#45;&gt;n_0_1_2_3_4_6 -->
<g id="edge1" class="edge">
<title>n_0_1_2_3_4_5_6&#45;&gt;n_0_1_2_3_4_6</title>
<path fill="none" stroke="black" d="M424.19,-440.14C416.72,-429.19 408.56,-417.22 401.07,-406.23"/>
<polygon fill="black" stroke="black" points="404.07,-404.43 395.55,-398.14 398.29,-408.37 404.07,-404.43"/>
</g>
<!-- n_5 -->
<g id="node13" class="node">
<title>n_5</title>
<polygon fill="none" stroke="black" points="498.5,-354.38 498.5,-379.62 551.5,-379.62 551.5,-354.38 498.5,-354.38"/>
<text text-anchor="start" x="505.5" y="-365.07" font-family="Times New Roman,serif" font-weight="bold" font-size="9.00">Obesity II</text>
<polygon fill="none" stroke="black" points="497.5,-353.38 497.5,-380.62 552.5,-380.62 552.5,-353.38 497.5,-353.38"/>
</g>
<!-- n_0_1_2_3_4_5_6&#45;&gt;n_5 -->
<g id="edge12" class="edge">
<title>n_0_1_2_3_4_5_6&#45;&gt;n_5</title>
<path fill="none" stroke="black" d="M475.81,-440.14C486.11,-425.04 497.71,-408.02 507.06,-394.31"/>
<polygon fill="black" stroke="black" points="509.83,-396.47 512.57,-386.23 504.04,-392.52 509.83,-396.47"/>
</g>
<!-- n_0_1_3_6 -->
<g id="node3" class="node">
<title>n_0_1_3_6</title>
<polygon fill="none" stroke="black" points="205.88,-248 205.88,-289 294.12,-289 294.12,-248 205.88,-248"/>
<text text-anchor="start" x="212.88" y="-274.45" font-family="Times New Roman,serif" font-weight="bold" font-size="9.00">Insufficient weight</text>
<text text-anchor="start" x="235" y="-265.45" font-family="Times New Roman,serif" font-weight="bold" font-size="9.00">Normal</text>
<text text-anchor="start" x="229" y="-256.45" font-family="Times New Roman,serif" font-weight="bold" font-size="9.00">Obesity III</text>
<polygon fill="none" stroke="black" points="294.12,-248 294.12,-289 362.12,-289 362.12,-248 294.12,-248"/>
<text text-anchor="start" x="301.12" y="-266.57" font-family="Times New Roman,serif" font-weight="bold" font-size="9.00">Overweight II</text>
<polygon fill="none" stroke="black" points="204.88,-247 204.88,-290 363.12,-290 363.12,-247 204.88,-247"/>
</g>
<!-- n_0_1_2_3_4_6&#45;&gt;n_0_1_3_6 -->
<g id="edge2" class="edge">
<title>n_0_1_2_3_4_6&#45;&gt;n_0_1_3_6</title>
<path fill="none" stroke="black" d="M347.7,-337.05C337.35,-326.08 325.5,-313.51 314.85,-302.22"/>
<polygon fill="black" stroke="black" points="317.43,-299.85 308.02,-294.98 312.34,-304.65 317.43,-299.85"/>
</g>
<!-- n_2_4 -->
<g id="node10" class="node">
<title>n_2_4</title>
<polygon fill="none" stroke="black" points="409.5,-255.88 409.5,-281.12 474.5,-281.12 474.5,-255.88 409.5,-255.88"/>
<text text-anchor="start" x="416.5" y="-266.57" font-family="Times New Roman,serif" font-weight="bold" font-size="9.00">Overweight I</text>
<polygon fill="none" stroke="black" points="474.5,-255.88 474.5,-281.12 524.5,-281.12 524.5,-255.88 474.5,-255.88"/>
<text text-anchor="start" x="481.5" y="-266.57" font-family="Times New Roman,serif" font-weight="bold" font-size="9.00">Obesity I</text>
<polygon fill="none" stroke="black" points="408.5,-254.88 408.5,-282.12 525.5,-282.12 525.5,-254.88 408.5,-254.88"/>
</g>
<!-- n_0_1_2_3_4_6&#45;&gt;n_2_4 -->
<g id="edge9" class="edge">
<title>n_0_1_2_3_4_6&#45;&gt;n_2_4</title>
<path fill="none" stroke="black" d="M402.6,-337.05C415.54,-323.48 430.8,-307.47 443.22,-294.44"/>
<polygon fill="black" stroke="black" points="445.51,-297.11 449.88,-287.46 440.44,-292.28 445.51,-297.11"/>
</g>
<!-- n_0_1_6 -->
<g id="node4" class="node">
<title>n_0_1_6</title>
<polygon fill="none" stroke="black" points="76.88,-163 76.88,-195 132.88,-195 132.88,-163 76.88,-163"/>
<text text-anchor="start" x="89.88" y="-180.45" font-family="Times New Roman,serif" font-weight="bold" font-size="9.00">Normal</text>
<text text-anchor="start" x="83.88" y="-171.45" font-family="Times New Roman,serif" font-weight="bold" font-size="9.00">Obesity III</text>
<polygon fill="none" stroke="black" points="132.88,-163 132.88,-195 221.12,-195 221.12,-163 132.88,-163"/>
<text text-anchor="start" x="139.88" y="-177.07" font-family="Times New Roman,serif" font-weight="bold" font-size="9.00">Insufficient weight</text>
<polygon fill="none" stroke="black" points="75.88,-162 75.88,-196 222.12,-196 222.12,-162 75.88,-162"/>
</g>
<!-- n_0_1_3_6&#45;&gt;n_0_1_6 -->
<g id="edge3" class="edge">
<title>n_0_1_3_6&#45;&gt;n_0_1_6</title>
<path fill="none" stroke="black" d="M246.39,-243.13C228.54,-231.55 207.19,-217.71 189.03,-205.94"/>
<polygon fill="black" stroke="black" points="191.15,-203.15 180.86,-200.65 187.35,-209.03 191.15,-203.15"/>
</g>
<!-- n_3 -->
<g id="node9" class="node">
<title>n_3</title>
<polygon fill="none" stroke="black" points="268,-166.38 268,-191.62 336,-191.62 336,-166.38 268,-166.38"/>
<text text-anchor="start" x="275" y="-177.07" font-family="Times New Roman,serif" font-weight="bold" font-size="9.00">Overweight II</text>
<polygon fill="none" stroke="black" points="267,-165.38 267,-192.62 337,-192.62 337,-165.38 267,-165.38"/>
</g>
<!-- n_0_1_3_6&#45;&gt;n_3 -->
<g id="edge8" class="edge">
<title>n_0_1_3_6&#45;&gt;n_3</title>
<path fill="none" stroke="black" d="M289.01,-243.13C291.27,-232.17 293.94,-219.18 296.27,-207.84"/>
<polygon fill="black" stroke="black" points="299.66,-208.75 298.25,-198.25 292.8,-207.34 299.66,-208.75"/>
</g>
<!-- n_1_6 -->
<g id="node5" class="node">
<title>n_1_6</title>
<polygon fill="none" stroke="black" points="29,-84.38 29,-109.62 73,-109.62 73,-84.38 29,-84.38"/>
<text text-anchor="start" x="36" y="-95.08" font-family="Times New Roman,serif" font-weight="bold" font-size="9.00">Normal</text>
<polygon fill="none" stroke="black" points="73,-84.38 73,-109.62 129,-109.62 129,-84.38 73,-84.38"/>
<text text-anchor="start" x="80" y="-95.08" font-family="Times New Roman,serif" font-weight="bold" font-size="9.00">Obesity III</text>
<polygon fill="none" stroke="black" points="28,-83.38 28,-110.62 130,-110.62 130,-83.38 28,-83.38"/>
</g>
<!-- n_0_1_6&#45;&gt;n_1_6 -->
<g id="edge4" class="edge">
<title>n_0_1_6&#45;&gt;n_1_6</title>
<path fill="none" stroke="black" d="M131.7,-158.22C122.5,-147.71 111.08,-134.66 101.23,-123.41"/>
<polygon fill="black" stroke="black" points="103.95,-121.2 94.73,-115.98 98.69,-125.81 103.95,-121.2"/>
</g>
<!-- n_0 -->
<g id="node8" class="node">
<title>n_0</title>
<polygon fill="none" stroke="black" points="175.88,-84.38 175.88,-109.62 264.12,-109.62 264.12,-84.38 175.88,-84.38"/>
<text text-anchor="start" x="182.88" y="-95.08" font-family="Times New Roman,serif" font-weight="bold" font-size="9.00">Insufficient weight</text>
<polygon fill="none" stroke="black" points="174.88,-83.38 174.88,-110.62 265.12,-110.62 265.12,-83.38 174.88,-83.38"/>
</g>
<!-- n_0_1_6&#45;&gt;n_0 -->
<g id="edge7" class="edge">
<title>n_0_1_6&#45;&gt;n_0</title>
<path fill="none" stroke="black" d="M166.55,-158.22C175.88,-147.71 187.46,-134.66 197.45,-123.41"/>
<polygon fill="black" stroke="black" points="200.03,-125.78 204.05,-115.98 194.79,-121.13 200.03,-125.78"/>
</g>
<!-- n_1 -->
<g id="node6" class="node">
<title>n_1</title>
<polygon fill="none" stroke="black" points="9,-5.38 9,-30.62 53,-30.62 53,-5.38 9,-5.38"/>
<text text-anchor="start" x="16" y="-16.07" font-family="Times New Roman,serif" font-weight="bold" font-size="9.00">Normal</text>
<polygon fill="none" stroke="black" points="8,-4.38 8,-31.62 54,-31.62 54,-4.38 8,-4.38"/>
</g>
<!-- n_1_6&#45;&gt;n_1 -->
<g id="edge5" class="edge">
<title>n_1_6&#45;&gt;n_1</title>
<path fill="none" stroke="black" d="M68.58,-79.29C62.46,-69.47 54.58,-56.83 47.62,-45.66"/>
<polygon fill="black" stroke="black" points="50.62,-43.86 42.36,-37.23 44.68,-47.56 50.62,-43.86"/>
</g>
<!-- n_6 -->
<g id="node7" class="node">
<title>n_6</title>
<polygon fill="none" stroke="black" points="100,-5.38 100,-30.62 156,-30.62 156,-5.38 100,-5.38"/>
<text text-anchor="start" x="107" y="-16.07" font-family="Times New Roman,serif" font-weight="bold" font-size="9.00">Obesity III</text>
<polygon fill="none" stroke="black" points="99,-4.38 99,-31.62 157,-31.62 157,-4.38 99,-4.38"/>
</g>
<!-- n_1_6&#45;&gt;n_6 -->
<g id="edge6" class="edge">
<title>n_1_6&#45;&gt;n_6</title>
<path fill="none" stroke="black" d="M89.63,-79.29C95.95,-69.37 104.09,-56.57 111.25,-45.32"/>
<polygon fill="black" stroke="black" points="113.99,-47.53 116.41,-37.22 108.09,-43.78 113.99,-47.53"/>
</g>
<!-- n_2 -->
<g id="node11" class="node">
<title>n_2</title>
<polygon fill="none" stroke="black" points="417.5,-166.38 417.5,-191.62 482.5,-191.62 482.5,-166.38 417.5,-166.38"/>
<text text-anchor="start" x="424.5" y="-177.07" font-family="Times New Roman,serif" font-weight="bold" font-size="9.00">Overweight I</text>
<polygon fill="none" stroke="black" points="416.5,-165.38 416.5,-192.62 483.5,-192.62 483.5,-165.38 416.5,-165.38"/>
</g>
<!-- n_2_4&#45;&gt;n_2 -->
<g id="edge10" class="edge">
<title>n_2_4&#45;&gt;n_2</title>
<path fill="none" stroke="black" d="M463.72,-250.63C461.37,-238.52 458.15,-221.94 455.42,-207.88"/>
<polygon fill="black" stroke="black" points="458.9,-207.45 453.56,-198.3 452.03,-208.79 458.9,-207.45"/>
</g>
<!-- n_4 -->
<g id="node12" class="node">
<title>n_4</title>
<polygon fill="none" stroke="black" points="530,-166.38 530,-191.62 580,-191.62 580,-166.38 530,-166.38"/>
<text text-anchor="start" x="537" y="-177.07" font-family="Times New Roman,serif" font-weight="bold" font-size="9.00">Obesity I</text>
<polygon fill="none" stroke="black" points="529,-165.38 529,-192.62 581,-192.62 581,-165.38 529,-165.38"/>
</g>
<!-- n_2_4&#45;&gt;n_4 -->
<g id="edge11" class="edge">
<title>n_2_4&#45;&gt;n_4</title>
<path fill="none" stroke="black" d="M483.97,-250.63C497.12,-237.56 515.52,-219.25 530.3,-204.56"/>
<polygon fill="black" stroke="black" points="532.39,-207.42 537.01,-197.89 527.45,-202.46 532.39,-207.42"/>
</g>
</g>
</svg>
