<?xml version="1.0" encoding="UTF-8" standalone="no"?>
<!DOCTYPE svg PUBLIC "-//W3C//DTD SVG 1.1//EN"
 "http://www.w3.org/Graphics/SVG/1.1/DTD/svg11.dtd">
<!-- Generated by graphviz version 10.0.1 (20240210.2158)
 -->
<!-- Title: ND Pages: 1 -->
<svg width="571pt" height="535pt"
 viewBox="0.00 0.00 571.12 535.00" xmlns="http://www.w3.org/2000/svg" xmlns:xlink="http://www.w3.org/1999/xlink">
<g id="graph0" class="graph" transform="scale(1 1) rotate(0) translate(4 531)">
<title>ND</title>
<polygon fill="white" stroke="none" points="-4,4 -4,-531 567.12,-531 567.12,4 -4,4"/>
<!-- n_0_1_2_3_4_5_6 -->
<g id="node1" class="node">
<title>n_0_1_2_3_4_5_6</title>
<polygon fill="none" stroke="black" points="352.88,-454 352.88,-522 420.88,-522 420.88,-454 352.88,-454"/>
<text text-anchor="start" x="371.88" y="-507.45" font-family="Times New Roman,serif" font-weight="bold" font-size="9.00">Normal</text>
<text text-anchor="start" x="361.38" y="-498.45" font-family="Times New Roman,serif" font-weight="bold" font-size="9.00">Overweight I</text>
<text text-anchor="start" x="359.88" y="-489.45" font-family="Times New Roman,serif" font-weight="bold" font-size="9.00">Overweight II</text>
<text text-anchor="start" x="368.88" y="-480.45" font-family="Times New Roman,serif" font-weight="bold" font-size="9.00">Obesity I</text>
<text text-anchor="start" x="367.38" y="-471.45" font-family="Times New Roman,serif" font-weight="bold" font-size="9.00">Obesity II</text>
<text text-anchor="start" x="365.88" y="-462.45" font-family="Times New Roman,serif" font-weight="bold" font-size="9.00">Obesity III</text>
<polygon fill="none" stroke="black" points="420.88,-454 420.88,-522 509.12,-522 509.12,-454 420.88,-454"/>
<text text-anchor="start" x="427.88" y="-486.07" font-family="Times New Roman,serif" font-weight="bold" font-size="9.00">Insufficient weight</text>
<polygon fill="none" stroke="black" points="351.88,-453 351.88,-523 510.12,-523 510.12,-453 351.88,-453"/>
</g>
<!-- n_1_2_3_4_5_6 -->
<g id="node2" class="node">
<title>n_1_2_3_4_5_6</title>
<polygon fill="none" stroke="black" points="285.5,-342 285.5,-401 353.5,-401 353.5,-342 285.5,-342"/>
<text text-anchor="start" x="304.5" y="-386.45" font-family="Times New Roman,serif" font-weight="bold" font-size="9.00">Normal</text>
<text text-anchor="start" x="292.5" y="-377.45" font-family="Times New Roman,serif" font-weight="bold" font-size="9.00">Overweight II</text>
<text text-anchor="start" x="301.5" y="-368.45" font-family="Times New Roman,serif" font-weight="bold" font-size="9.00">Obesity I</text>
<text text-anchor="start" x="300" y="-359.45" font-family="Times New Roman,serif" font-weight="bold" font-size="9.00">Obesity II</text>
<text text-anchor="start" x="298.5" y="-350.45" font-family="Times New Roman,serif" font-weight="bold" font-size="9.00">Obesity III</text>
<polygon fill="none" stroke="black" points="353.5,-342 353.5,-401 418.5,-401 418.5,-342 353.5,-342"/>
<text text-anchor="start" x="360.5" y="-369.57" font-family="Times New Roman,serif" font-weight="bold" font-size="9.00">Overweight I</text>
<polygon fill="none" stroke="black" points="284.5,-341 284.5,-402 419.5,-402 419.5,-341 284.5,-341"/>
</g>
<!-- n_0_1_2_3_4_5_6&#45;&gt;n_1_2_3_4_5_6 -->
<g id="edge1" class="edge">
<title>n_0_1_2_3_4_5_6&#45;&gt;n_1_2_3_4_5_6</title>
<path fill="none" stroke="black" d="M404.91,-449.19C397.33,-438.2 389,-426.12 381.23,-414.87"/>
<polygon fill="black" stroke="black" points="384.29,-413.14 375.73,-406.9 378.53,-417.12 384.29,-413.14"/>
</g>
<!-- n_0 -->
<g id="node13" class="node">
<title>n_0</title>
<polygon fill="none" stroke="black" points="465.88,-358.88 465.88,-384.12 554.12,-384.12 554.12,-358.88 465.88,-358.88"/>
<text text-anchor="start" x="472.88" y="-369.57" font-family="Times New Roman,serif" font-weight="bold" font-size="9.00">Insufficient weight</text>
<polygon fill="none" stroke="black" points="464.88,-357.88 464.88,-385.12 555.12,-385.12 555.12,-357.88 464.88,-357.88"/>
</g>
<!-- n_0_1_2_3_4_5_6&#45;&gt;n_0 -->
<g id="edge12" class="edge">
<title>n_0_1_2_3_4_5_6&#45;&gt;n_0</title>
<path fill="none" stroke="black" d="M457.09,-449.19C468.52,-432.63 481.64,-413.6 491.97,-398.64"/>
<polygon fill="black" stroke="black" points="494.64,-400.93 497.44,-390.71 488.88,-396.95 494.64,-400.93"/>
</g>
<!-- n_1_3_4_5_6 -->
<g id="node3" class="node">
<title>n_1_3_4_5_6</title>
<polygon fill="none" stroke="black" points="219,-248 219,-289 287,-289 287,-248 219,-248"/>
<text text-anchor="start" x="226" y="-274.45" font-family="Times New Roman,serif" font-weight="bold" font-size="9.00">Overweight II</text>
<text text-anchor="start" x="235" y="-265.45" font-family="Times New Roman,serif" font-weight="bold" font-size="9.00">Obesity I</text>
<text text-anchor="start" x="233.5" y="-256.45" font-family="Times New Roman,serif" font-weight="bold" font-size="9.00">Obesity II</text>
<polygon fill="none" stroke="black" points="287,-248 287,-289 343,-289 343,-248 287,-248"/>
<text text-anchor="start" x="300" y="-269.95" font-family="Times New Roman,serif" font-weight="bold" font-size="9.00">Normal</text>
<text text-anchor="start" x="294" y="-260.95" font-family="Times New Roman,serif" font-weight="bold" font-size="9.00">Obesity III</text>
<polygon fill="none" stroke="black" points="218,-247 218,-290 344,-290 344,-247 218,-247"/>
</g>
<!-- n_1_2_3_4_5_6&#45;&gt;n_1_3_4_5_6 -->
<g id="edge2" class="edge">
<title>n_1_2_3_4_5_6&#45;&gt;n_1_3_4_5_6</title>
<path fill="none" stroke="black" d="M328.56,-337.15C320.87,-326.22 312.33,-314.07 304.63,-303.12"/>
<polygon fill="black" stroke="black" points="307.61,-301.27 298.99,-295.1 301.88,-305.29 307.61,-301.27"/>
</g>
<!-- n_2 -->
<g id="node12" class="node">
<title>n_2</title>
<polygon fill="none" stroke="black" points="390.5,-255.88 390.5,-281.12 455.5,-281.12 455.5,-255.88 390.5,-255.88"/>
<text text-anchor="start" x="397.5" y="-266.57" font-family="Times New Roman,serif" font-weight="bold" font-size="9.00">Overweight I</text>
<polygon fill="none" stroke="black" points="389.5,-254.88 389.5,-282.12 456.5,-282.12 456.5,-254.88 389.5,-254.88"/>
</g>
<!-- n_1_2_3_4_5_6&#45;&gt;n_2 -->
<g id="edge11" class="edge">
<title>n_1_2_3_4_5_6&#45;&gt;n_2</title>
<path fill="none" stroke="black" d="M375.44,-337.15C384.97,-323.6 395.81,-308.17 404.74,-295.48"/>
<polygon fill="black" stroke="black" points="407.38,-297.81 410.26,-287.62 401.65,-293.79 407.38,-297.81"/>
</g>
<!-- n_3_4_5 -->
<g id="node4" class="node">
<title>n_3_4_5</title>
<polygon fill="none" stroke="black" points="141.5,-163 141.5,-195 194.5,-195 194.5,-163 141.5,-163"/>
<text text-anchor="start" x="150" y="-180.45" font-family="Times New Roman,serif" font-weight="bold" font-size="9.00">Obesity I</text>
<text text-anchor="start" x="148.5" y="-171.45" font-family="Times New Roman,serif" font-weight="bold" font-size="9.00">Obesity II</text>
<polygon fill="none" stroke="black" points="194.5,-163 194.5,-195 262.5,-195 262.5,-163 194.5,-163"/>
<text text-anchor="start" x="201.5" y="-177.07" font-family="Times New Roman,serif" font-weight="bold" font-size="9.00">Overweight II</text>
<polygon fill="none" stroke="black" points="140.5,-162 140.5,-196 263.5,-196 263.5,-162 140.5,-162"/>
</g>
<!-- n_1_3_4_5_6&#45;&gt;n_3_4_5 -->
<g id="edge3" class="edge">
<title>n_1_3_4_5_6&#45;&gt;n_3_4_5</title>
<path fill="none" stroke="black" d="M258.99,-243.13C249.17,-232.25 237.54,-219.36 227.35,-208.08"/>
<polygon fill="black" stroke="black" points="230.21,-206.03 220.91,-200.95 225.02,-210.72 230.21,-206.03"/>
</g>
<!-- n_1_6 -->
<g id="node9" class="node">
<title>n_1_6</title>
<polygon fill="none" stroke="black" points="310,-166.38 310,-191.62 354,-191.62 354,-166.38 310,-166.38"/>
<text text-anchor="start" x="317" y="-177.07" font-family="Times New Roman,serif" font-weight="bold" font-size="9.00">Normal</text>
<polygon fill="none" stroke="black" points="354,-166.38 354,-191.62 410,-191.62 410,-166.38 354,-166.38"/>
<text text-anchor="start" x="361" y="-177.07" font-family="Times New Roman,serif" font-weight="bold" font-size="9.00">Obesity III</text>
<polygon fill="none" stroke="black" points="309,-165.38 309,-192.62 411,-192.62 411,-165.38 309,-165.38"/>
</g>
<!-- n_1_3_4_5_6&#45;&gt;n_1_6 -->
<g id="edge8" class="edge">
<title>n_1_3_4_5_6&#45;&gt;n_1_6</title>
<path fill="none" stroke="black" d="M303.01,-243.13C313.73,-231.24 326.62,-216.97 337.42,-205.01"/>
<polygon fill="black" stroke="black" points="339.74,-207.66 343.84,-197.89 334.55,-202.97 339.74,-207.66"/>
</g>
<!-- n_4_5 -->
<g id="node5" class="node">
<title>n_4_5</title>
<polygon fill="none" stroke="black" points="31.5,-84.38 31.5,-109.62 81.5,-109.62 81.5,-84.38 31.5,-84.38"/>
<text text-anchor="start" x="38.5" y="-95.08" font-family="Times New Roman,serif" font-weight="bold" font-size="9.00">Obesity I</text>
<polygon fill="none" stroke="black" points="81.5,-84.38 81.5,-109.62 134.5,-109.62 134.5,-84.38 81.5,-84.38"/>
<text text-anchor="start" x="88.5" y="-95.08" font-family="Times New Roman,serif" font-weight="bold" font-size="9.00">Obesity II</text>
<polygon fill="none" stroke="black" points="30.5,-83.38 30.5,-110.62 135.5,-110.62 135.5,-83.38 30.5,-83.38"/>
</g>
<!-- n_3_4_5&#45;&gt;n_4_5 -->
<g id="edge4" class="edge">
<title>n_3_4_5&#45;&gt;n_4_5</title>
<path fill="none" stroke="black" d="M172.28,-158.02C155.55,-146.77 134.59,-132.68 117.18,-120.98"/>
<polygon fill="black" stroke="black" points="119.44,-118.28 109.18,-115.6 115.53,-124.09 119.44,-118.28"/>
</g>
<!-- n_3 -->
<g id="node8" class="node">
<title>n_3</title>
<polygon fill="none" stroke="black" points="182,-84.38 182,-109.62 250,-109.62 250,-84.38 182,-84.38"/>
<text text-anchor="start" x="189" y="-95.08" font-family="Times New Roman,serif" font-weight="bold" font-size="9.00">Overweight II</text>
<polygon fill="none" stroke="black" points="181,-83.38 181,-110.62 251,-110.62 251,-83.38 181,-83.38"/>
</g>
<!-- n_3_4_5&#45;&gt;n_3 -->
<g id="edge7" class="edge">
<title>n_3_4_5&#45;&gt;n_3</title>
<path fill="none" stroke="black" d="M205.46,-158.22C207.16,-148.54 209.22,-136.72 211.08,-126.11"/>
<polygon fill="black" stroke="black" points="214.52,-126.79 212.79,-116.33 207.62,-125.58 214.52,-126.79"/>
</g>
<!-- n_4 -->
<g id="node6" class="node">
<title>n_4</title>
<polygon fill="none" stroke="black" points="9,-5.38 9,-30.62 59,-30.62 59,-5.38 9,-5.38"/>
<text text-anchor="start" x="16" y="-16.07" font-family="Times New Roman,serif" font-weight="bold" font-size="9.00">Obesity I</text>
<polygon fill="none" stroke="black" points="8,-4.38 8,-31.62 60,-31.62 60,-4.38 8,-4.38"/>
</g>
<!-- n_4_5&#45;&gt;n_4 -->
<g id="edge5" class="edge">
<title>n_4_5&#45;&gt;n_4</title>
<path fill="none" stroke="black" d="M72.37,-79.29C66.05,-69.37 57.91,-56.57 50.75,-45.32"/>
<polygon fill="black" stroke="black" points="53.91,-43.78 45.59,-37.22 48.01,-47.53 53.91,-43.78"/>
</g>
<!-- n_5 -->
<g id="node7" class="node">
<title>n_5</title>
<polygon fill="none" stroke="black" points="106.5,-5.38 106.5,-30.62 159.5,-30.62 159.5,-5.38 106.5,-5.38"/>
<text text-anchor="start" x="113.5" y="-16.07" font-family="Times New Roman,serif" font-weight="bold" font-size="9.00">Obesity II</text>
<polygon fill="none" stroke="black" points="105.5,-4.38 105.5,-31.62 160.5,-31.62 160.5,-4.38 105.5,-4.38"/>
</g>
<!-- n_4_5&#45;&gt;n_5 -->
<g id="edge6" class="edge">
<title>n_4_5&#45;&gt;n_5</title>
<path fill="none" stroke="black" d="M93.85,-79.29C100.29,-69.37 108.6,-56.57 115.91,-45.32"/>
<polygon fill="black" stroke="black" points="118.66,-47.5 121.17,-37.21 112.79,-43.69 118.66,-47.5"/>
</g>
<!-- n_1 -->
<g id="node10" class="node">
<title>n_1</title>
<polygon fill="none" stroke="black" points="324,-84.38 324,-109.62 368,-109.62 368,-84.38 324,-84.38"/>
<text text-anchor="start" x="331" y="-95.08" font-family="Times New Roman,serif" font-weight="bold" font-size="9.00">Normal</text>
<polygon fill="none" stroke="black" points="323,-83.38 323,-110.62 369,-110.62 369,-83.38 323,-83.38"/>
</g>
<!-- n_1_6&#45;&gt;n_1 -->
<g id="edge9" class="edge">
<title>n_1_6&#45;&gt;n_1</title>
<path fill="none" stroke="black" d="M357.03,-161.03C355.25,-150.85 352.94,-137.65 350.89,-125.96"/>
<polygon fill="black" stroke="black" points="354.4,-125.68 349.23,-116.43 347.5,-126.89 354.4,-125.68"/>
</g>
<!-- n_6 -->
<g id="node11" class="node">
<title>n_6</title>
<polygon fill="none" stroke="black" points="415,-84.38 415,-109.62 471,-109.62 471,-84.38 415,-84.38"/>
<text text-anchor="start" x="422" y="-95.08" font-family="Times New Roman,serif" font-weight="bold" font-size="9.00">Obesity III</text>
<polygon fill="none" stroke="black" points="414,-83.38 414,-110.62 472,-110.62 472,-83.38 414,-83.38"/>
</g>
<!-- n_1_6&#45;&gt;n_6 -->
<g id="edge10" class="edge">
<title>n_1_6&#45;&gt;n_6</title>
<path fill="none" stroke="black" d="M377.6,-161.03C389.16,-149.9 404.46,-135.15 417.36,-122.71"/>
<polygon fill="black" stroke="black" points="419.56,-125.45 424.33,-115.99 414.7,-120.41 419.56,-125.45"/>
</g>
</g>
</svg>
