<?xml version="1.0" encoding="UTF-8" standalone="no"?>
<!DOCTYPE svg PUBLIC "-//W3C//DTD SVG 1.1//EN"
 "http://www.w3.org/Graphics/SVG/1.1/DTD/svg11.dtd">
<!-- Generated by graphviz version 10.0.1 (20240210.2158)
 -->
<!-- Title: ND Pages: 1 -->
<svg width="564pt" height="638pt"
 viewBox="0.00 0.00 564.00 638.00" xmlns="http://www.w3.org/2000/svg" xmlns:xlink="http://www.w3.org/1999/xlink">
<g id="graph0" class="graph" transform="scale(1 1) rotate(0) translate(4 634)">
<title>ND</title>
<polygon fill="white" stroke="none" points="-4,4 -4,-634 560,-634 560,4 -4,4"/>
<!-- n_0_1_2_3_4_5_6 -->
<g id="node1" class="node">
<title>n_0_1_2_3_4_5_6</title>
<polygon fill="none" stroke="black" points="369.88,-557 369.88,-625 458.12,-625 458.12,-557 369.88,-557"/>
<text text-anchor="start" x="376.88" y="-610.45" font-family="Times New Roman,serif" font-weight="bold" font-size="9.00">Insufficient weight</text>
<text text-anchor="start" x="399" y="-601.45" font-family="Times New Roman,serif" font-weight="bold" font-size="9.00">Normal</text>
<text text-anchor="start" x="388.5" y="-592.45" font-family="Times New Roman,serif" font-weight="bold" font-size="9.00">Overweight I</text>
<text text-anchor="start" x="387" y="-583.45" font-family="Times New Roman,serif" font-weight="bold" font-size="9.00">Overweight II</text>
<text text-anchor="start" x="396" y="-574.45" font-family="Times New Roman,serif" font-weight="bold" font-size="9.00">Obesity I</text>
<text text-anchor="start" x="394.5" y="-565.45" font-family="Times New Roman,serif" font-weight="bold" font-size="9.00">Obesity II</text>
<polygon fill="none" stroke="black" points="458.12,-557 458.12,-625 514.12,-625 514.12,-557 458.12,-557"/>
<text text-anchor="start" x="465.12" y="-589.08" font-family="Times New Roman,serif" font-weight="bold" font-size="9.00">Obesity III</text>
<polygon fill="none" stroke="black" points="368.88,-556 368.88,-626 515.12,-626 515.12,-556 368.88,-556"/>
</g>
<!-- n_0_1_2_3_4_5 -->
<g id="node2" class="node">
<title>n_0_1_2_3_4_5</title>
<polygon fill="none" stroke="black" points="287.88,-445 287.88,-504 376.12,-504 376.12,-445 287.88,-445"/>
<text text-anchor="start" x="294.88" y="-489.45" font-family="Times New Roman,serif" font-weight="bold" font-size="9.00">Insufficient weight</text>
<text text-anchor="start" x="317" y="-480.45" font-family="Times New Roman,serif" font-weight="bold" font-size="9.00">Normal</text>
<text text-anchor="start" x="306.5" y="-471.45" font-family="Times New Roman,serif" font-weight="bold" font-size="9.00">Overweight I</text>
<text text-anchor="start" x="314" y="-462.45" font-family="Times New Roman,serif" font-weight="bold" font-size="9.00">Obesity I</text>
<text text-anchor="start" x="312.5" y="-453.45" font-family="Times New Roman,serif" font-weight="bold" font-size="9.00">Obesity II</text>
<polygon fill="none" stroke="black" points="376.12,-445 376.12,-504 444.12,-504 444.12,-445 376.12,-445"/>
<text text-anchor="start" x="383.12" y="-472.57" font-family="Times New Roman,serif" font-weight="bold" font-size="9.00">Overweight II</text>
<polygon fill="none" stroke="black" points="286.88,-444 286.88,-505 445.12,-505 445.12,-444 286.88,-444"/>
</g>
<!-- n_0_1_2_3_4_5_6&#45;&gt;n_0_1_2_3_4_5 -->
<g id="edge1" class="edge">
<title>n_0_1_2_3_4_5_6&#45;&gt;n_0_1_2_3_4_5</title>
<path fill="none" stroke="black" d="M416.9,-552.19C409.68,-541.31 401.75,-529.36 394.35,-518.21"/>
<polygon fill="black" stroke="black" points="397.29,-516.31 388.84,-509.91 391.46,-520.18 397.29,-516.31"/>
</g>
<!-- n_6 -->
<g id="node13" class="node">
<title>n_6</title>
<polygon fill="none" stroke="black" points="491,-461.88 491,-487.12 547,-487.12 547,-461.88 491,-461.88"/>
<text text-anchor="start" x="498" y="-472.57" font-family="Times New Roman,serif" font-weight="bold" font-size="9.00">Obesity III</text>
<polygon fill="none" stroke="black" points="490,-460.88 490,-488.12 548,-488.12 548,-460.88 490,-460.88"/>
</g>
<!-- n_0_1_2_3_4_5_6&#45;&gt;n_6 -->
<g id="edge12" class="edge">
<title>n_0_1_2_3_4_5_6&#45;&gt;n_6</title>
<path fill="none" stroke="black" d="M467.43,-552.19C478.57,-535.63 491.36,-516.6 501.42,-501.64"/>
<polygon fill="black" stroke="black" points="504.07,-503.97 506.75,-493.72 498.26,-500.06 504.07,-503.97"/>
</g>
<!-- n_0_1_2_4_5 -->
<g id="node3" class="node">
<title>n_0_1_2_4_5</title>
<polygon fill="none" stroke="black" points="219.38,-342 219.38,-392 307.62,-392 307.62,-342 219.38,-342"/>
<text text-anchor="start" x="226.38" y="-377.45" font-family="Times New Roman,serif" font-weight="bold" font-size="9.00">Insufficient weight</text>
<text text-anchor="start" x="248.5" y="-368.45" font-family="Times New Roman,serif" font-weight="bold" font-size="9.00">Normal</text>
<text text-anchor="start" x="238" y="-359.45" font-family="Times New Roman,serif" font-weight="bold" font-size="9.00">Overweight I</text>
<text text-anchor="start" x="245.5" y="-350.45" font-family="Times New Roman,serif" font-weight="bold" font-size="9.00">Obesity I</text>
<polygon fill="none" stroke="black" points="307.62,-342 307.62,-392 360.62,-392 360.62,-342 307.62,-342"/>
<text text-anchor="start" x="314.62" y="-365.07" font-family="Times New Roman,serif" font-weight="bold" font-size="9.00">Obesity II</text>
<polygon fill="none" stroke="black" points="218.38,-341 218.38,-393 361.62,-393 361.62,-341 218.38,-341"/>
</g>
<!-- n_0_1_2_3_4_5&#45;&gt;n_0_1_2_4_5 -->
<g id="edge2" class="edge">
<title>n_0_1_2_3_4_5&#45;&gt;n_0_1_2_4_5</title>
<path fill="none" stroke="black" d="M341.95,-440.12C334.14,-429.27 325.41,-417.16 317.37,-406"/>
<polygon fill="black" stroke="black" points="320.39,-404.19 311.7,-398.13 314.71,-408.29 320.39,-404.19"/>
</g>
<!-- n_3 -->
<g id="node12" class="node">
<title>n_3</title>
<polygon fill="none" stroke="black" points="408,-354.38 408,-379.62 476,-379.62 476,-354.38 408,-354.38"/>
<text text-anchor="start" x="415" y="-365.07" font-family="Times New Roman,serif" font-weight="bold" font-size="9.00">Overweight II</text>
<polygon fill="none" stroke="black" points="407,-353.38 407,-380.62 477,-380.62 477,-353.38 407,-353.38"/>
</g>
<!-- n_0_1_2_3_4_5&#45;&gt;n_3 -->
<g id="edge11" class="edge">
<title>n_0_1_2_3_4_5&#45;&gt;n_3</title>
<path fill="none" stroke="black" d="M390.05,-440.12C400.79,-425.21 413.26,-407.9 423.29,-393.98"/>
<polygon fill="black" stroke="black" points="425.9,-396.34 428.9,-386.18 420.22,-392.25 425.9,-396.34"/>
</g>
<!-- n_0_1_2_4 -->
<g id="node4" class="node">
<title>n_0_1_2_4</title>
<polygon fill="none" stroke="black" points="138.38,-248 138.38,-289 203.38,-289 203.38,-248 138.38,-248"/>
<text text-anchor="start" x="155.88" y="-274.45" font-family="Times New Roman,serif" font-weight="bold" font-size="9.00">Normal</text>
<text text-anchor="start" x="145.38" y="-265.45" font-family="Times New Roman,serif" font-weight="bold" font-size="9.00">Overweight I</text>
<text text-anchor="start" x="152.88" y="-256.45" font-family="Times New Roman,serif" font-weight="bold" font-size="9.00">Obesity I</text>
<polygon fill="none" stroke="black" points="203.38,-248 203.38,-289 291.62,-289 291.62,-248 203.38,-248"/>
<text text-anchor="start" x="210.38" y="-266.57" font-family="Times New Roman,serif" font-weight="bold" font-size="9.00">Insufficient weight</text>
<polygon fill="none" stroke="black" points="137.38,-247 137.38,-290 292.62,-290 292.62,-247 137.38,-247"/>
</g>
<!-- n_0_1_2_4_5&#45;&gt;n_0_1_2_4 -->
<g id="edge3" class="edge">
<title>n_0_1_2_4_5&#45;&gt;n_0_1_2_4</title>
<path fill="none" stroke="black" d="M267.5,-337.05C259.14,-326.29 249.59,-314 240.94,-302.88"/>
<polygon fill="black" stroke="black" points="243.77,-300.82 234.87,-295.07 238.25,-305.11 243.77,-300.82"/>
</g>
<!-- n_5 -->
<g id="node11" class="node">
<title>n_5</title>
<polygon fill="none" stroke="black" points="338.5,-255.88 338.5,-281.12 391.5,-281.12 391.5,-255.88 338.5,-255.88"/>
<text text-anchor="start" x="345.5" y="-266.57" font-family="Times New Roman,serif" font-weight="bold" font-size="9.00">Obesity II</text>
<polygon fill="none" stroke="black" points="337.5,-254.88 337.5,-282.12 392.5,-282.12 392.5,-254.88 337.5,-254.88"/>
</g>
<!-- n_0_1_2_4_5&#45;&gt;n_5 -->
<g id="edge10" class="edge">
<title>n_0_1_2_4_5&#45;&gt;n_5</title>
<path fill="none" stroke="black" d="M312.5,-337.05C322.85,-323.73 335.02,-308.07 345.04,-295.19"/>
<polygon fill="black" stroke="black" points="347.59,-297.6 350.96,-287.56 342.06,-293.31 347.59,-297.6"/>
</g>
<!-- n_1_2_4 -->
<g id="node5" class="node">
<title>n_1_2_4</title>
<polygon fill="none" stroke="black" points="83.5,-163 83.5,-195 133.5,-195 133.5,-163 83.5,-163"/>
<text text-anchor="start" x="93.5" y="-180.45" font-family="Times New Roman,serif" font-weight="bold" font-size="9.00">Normal</text>
<text text-anchor="start" x="90.5" y="-171.45" font-family="Times New Roman,serif" font-weight="bold" font-size="9.00">Obesity I</text>
<polygon fill="none" stroke="black" points="133.5,-163 133.5,-195 198.5,-195 198.5,-163 133.5,-163"/>
<text text-anchor="start" x="140.5" y="-177.07" font-family="Times New Roman,serif" font-weight="bold" font-size="9.00">Overweight I</text>
<polygon fill="none" stroke="black" points="82.5,-162 82.5,-196 199.5,-196 199.5,-162 82.5,-162"/>
</g>
<!-- n_0_1_2_4&#45;&gt;n_1_2_4 -->
<g id="edge4" class="edge">
<title>n_0_1_2_4&#45;&gt;n_1_2_4</title>
<path fill="none" stroke="black" d="M194.39,-243.13C185.28,-232.35 174.5,-219.62 165.03,-208.41"/>
<polygon fill="black" stroke="black" points="167.87,-206.36 158.74,-200.98 162.53,-210.88 167.87,-206.36"/>
</g>
<!-- n_0 -->
<g id="node10" class="node">
<title>n_0</title>
<polygon fill="none" stroke="black" points="245.88,-166.38 245.88,-191.62 334.12,-191.62 334.12,-166.38 245.88,-166.38"/>
<text text-anchor="start" x="252.88" y="-177.07" font-family="Times New Roman,serif" font-weight="bold" font-size="9.00">Insufficient weight</text>
<polygon fill="none" stroke="black" points="244.88,-165.38 244.88,-192.62 335.12,-192.62 335.12,-165.38 244.88,-165.38"/>
</g>
<!-- n_0_1_2_4&#45;&gt;n_0 -->
<g id="edge9" class="edge">
<title>n_0_1_2_4&#45;&gt;n_0</title>
<path fill="none" stroke="black" d="M235.89,-243.13C245.98,-231.36 258.07,-217.25 268.27,-205.36"/>
<polygon fill="black" stroke="black" points="270.79,-207.79 274.64,-197.92 265.47,-203.23 270.79,-207.79"/>
</g>
<!-- n_1_4 -->
<g id="node6" class="node">
<title>n_1_4</title>
<polygon fill="none" stroke="black" points="31,-84.38 31,-109.62 75,-109.62 75,-84.38 31,-84.38"/>
<text text-anchor="start" x="38" y="-95.08" font-family="Times New Roman,serif" font-weight="bold" font-size="9.00">Normal</text>
<polygon fill="none" stroke="black" points="75,-84.38 75,-109.62 125,-109.62 125,-84.38 75,-84.38"/>
<text text-anchor="start" x="82" y="-95.08" font-family="Times New Roman,serif" font-weight="bold" font-size="9.00">Obesity I</text>
<polygon fill="none" stroke="black" points="30,-83.38 30,-110.62 126,-110.62 126,-83.38 30,-83.38"/>
</g>
<!-- n_1_2_4&#45;&gt;n_1_4 -->
<g id="edge5" class="edge">
<title>n_1_2_4&#45;&gt;n_1_4</title>
<path fill="none" stroke="black" d="M125.43,-158.22C117.23,-147.81 107.08,-134.92 98.27,-123.74"/>
<polygon fill="black" stroke="black" points="101.14,-121.72 92.2,-116.03 95.64,-126.05 101.14,-121.72"/>
</g>
<!-- n_2 -->
<g id="node9" class="node">
<title>n_2</title>
<polygon fill="none" stroke="black" points="172.5,-84.38 172.5,-109.62 237.5,-109.62 237.5,-84.38 172.5,-84.38"/>
<text text-anchor="start" x="179.5" y="-95.08" font-family="Times New Roman,serif" font-weight="bold" font-size="9.00">Overweight I</text>
<polygon fill="none" stroke="black" points="171.5,-83.38 171.5,-110.62 238.5,-110.62 238.5,-83.38 171.5,-83.38"/>
</g>
<!-- n_1_2_4&#45;&gt;n_2 -->
<g id="edge8" class="edge">
<title>n_1_2_4&#45;&gt;n_2</title>
<path fill="none" stroke="black" d="M156.82,-158.22C165.15,-147.81 175.46,-134.92 184.41,-123.74"/>
<polygon fill="black" stroke="black" points="187.07,-126.02 190.58,-116.03 181.6,-121.65 187.07,-126.02"/>
</g>
<!-- n_1 -->
<g id="node7" class="node">
<title>n_1</title>
<polygon fill="none" stroke="black" points="9,-5.38 9,-30.62 53,-30.62 53,-5.38 9,-5.38"/>
<text text-anchor="start" x="16" y="-16.07" font-family="Times New Roman,serif" font-weight="bold" font-size="9.00">Normal</text>
<polygon fill="none" stroke="black" points="8,-4.38 8,-31.62 54,-31.62 54,-4.38 8,-4.38"/>
</g>
<!-- n_1_4&#45;&gt;n_1 -->
<g id="edge6" class="edge">
<title>n_1_4&#45;&gt;n_1</title>
<path fill="none" stroke="black" d="M67.8,-79.29C61.81,-69.47 54.09,-56.83 47.27,-45.66"/>
<polygon fill="black" stroke="black" points="50.33,-43.95 42.13,-37.23 44.35,-47.59 50.33,-43.95"/>
</g>
<!-- n_4 -->
<g id="node8" class="node">
<title>n_4</title>
<polygon fill="none" stroke="black" points="100,-5.38 100,-30.62 150,-30.62 150,-5.38 100,-5.38"/>
<text text-anchor="start" x="107" y="-16.07" font-family="Times New Roman,serif" font-weight="bold" font-size="9.00">Obesity I</text>
<polygon fill="none" stroke="black" points="99,-4.38 99,-31.62 151,-31.62 151,-4.38 99,-4.38"/>
</g>
<!-- n_1_4&#45;&gt;n_4 -->
<g id="edge7" class="edge">
<title>n_1_4&#45;&gt;n_4</title>
<path fill="none" stroke="black" d="M88.2,-79.29C94.19,-69.47 101.91,-56.83 108.73,-45.66"/>
<polygon fill="black" stroke="black" points="111.65,-47.59 113.87,-37.23 105.67,-43.95 111.65,-47.59"/>
</g>
</g>
</svg>
