<?xml version="1.0" encoding="UTF-8" standalone="no"?>
<!DOCTYPE svg PUBLIC "-//W3C//DTD SVG 1.1//EN"
 "http://www.w3.org/Graphics/SVG/1.1/DTD/svg11.dtd">
<!-- Generated by graphviz version 10.0.1 (20240210.2158)
 -->
<!-- Title: ND Pages: 1 -->
<svg width="631pt" height="432pt"
 viewBox="0.00 0.00 630.62 432.00" xmlns="http://www.w3.org/2000/svg" xmlns:xlink="http://www.w3.org/1999/xlink">
<g id="graph0" class="graph" transform="scale(1 1) rotate(0) translate(4 428)">
<title>ND</title>
<polygon fill="white" stroke="none" points="-4,4 -4,-428 626.62,-428 626.62,4 -4,4"/>
<!-- n_0_1_2_3_4_5_6 -->
<g id="node1" class="node">
<title>n_0_1_2_3_4_5_6</title>
<polygon fill="none" stroke="black" points="404,-351 404,-419 492.25,-419 492.25,-351 404,-351"/>
<text text-anchor="start" x="411" y="-404.45" font-family="Times New Roman,serif" font-weight="bold" font-size="9.00">Insufficient weight</text>
<text text-anchor="start" x="433.12" y="-395.45" font-family="Times New Roman,serif" font-weight="bold" font-size="9.00">Normal</text>
<text text-anchor="start" x="422.62" y="-386.45" font-family="Times New Roman,serif" font-weight="bold" font-size="9.00">Overweight I</text>
<text text-anchor="start" x="421.12" y="-377.45" font-family="Times New Roman,serif" font-weight="bold" font-size="9.00">Overweight II</text>
<text text-anchor="start" x="430.12" y="-368.45" font-family="Times New Roman,serif" font-weight="bold" font-size="9.00">Obesity I</text>
<text text-anchor="start" x="428.62" y="-359.45" font-family="Times New Roman,serif" font-weight="bold" font-size="9.00">Obesity II</text>
<polygon fill="none" stroke="black" points="492.25,-351 492.25,-419 548.25,-419 548.25,-351 492.25,-351"/>
<text text-anchor="start" x="499.25" y="-383.07" font-family="Times New Roman,serif" font-weight="bold" font-size="9.00">Obesity III</text>
<polygon fill="none" stroke="black" points="403,-350 403,-420 549.25,-420 549.25,-350 403,-350"/>
</g>
<!-- n_0_1_2_3_4_5 -->
<g id="node2" class="node">
<title>n_0_1_2_3_4_5</title>
<polygon fill="none" stroke="black" points="323.5,-248 323.5,-298 411.75,-298 411.75,-248 323.5,-248"/>
<text text-anchor="start" x="330.5" y="-283.45" font-family="Times New Roman,serif" font-weight="bold" font-size="9.00">Insufficient weight</text>
<text text-anchor="start" x="352.62" y="-274.45" font-family="Times New Roman,serif" font-weight="bold" font-size="9.00">Normal</text>
<text text-anchor="start" x="340.62" y="-265.45" font-family="Times New Roman,serif" font-weight="bold" font-size="9.00">Overweight II</text>
<text text-anchor="start" x="349.62" y="-256.45" font-family="Times New Roman,serif" font-weight="bold" font-size="9.00">Obesity I</text>
<polygon fill="none" stroke="black" points="411.75,-248 411.75,-298 476.75,-298 476.75,-248 411.75,-248"/>
<text text-anchor="start" x="418.75" y="-274.45" font-family="Times New Roman,serif" font-weight="bold" font-size="9.00">Overweight I</text>
<text text-anchor="start" x="424.75" y="-265.45" font-family="Times New Roman,serif" font-weight="bold" font-size="9.00">Obesity II</text>
<polygon fill="none" stroke="black" points="322.5,-247 322.5,-299 477.75,-299 477.75,-247 322.5,-247"/>
</g>
<!-- n_0_1_2_3_4_5_6&#45;&gt;n_0_1_2_3_4_5 -->
<g id="edge1" class="edge">
<title>n_0_1_2_3_4_5_6&#45;&gt;n_0_1_2_3_4_5</title>
<path fill="none" stroke="black" d="M449.97,-346.14C442.4,-335.19 434.13,-323.22 426.54,-312.23"/>
<polygon fill="black" stroke="black" points="429.51,-310.37 420.94,-304.13 423.75,-314.35 429.51,-310.37"/>
</g>
<!-- n_6 -->
<g id="node13" class="node">
<title>n_6</title>
<polygon fill="none" stroke="black" points="524.12,-260.38 524.12,-285.62 580.12,-285.62 580.12,-260.38 524.12,-260.38"/>
<text text-anchor="start" x="531.12" y="-271.07" font-family="Times New Roman,serif" font-weight="bold" font-size="9.00">Obesity III</text>
<polygon fill="none" stroke="black" points="523.12,-259.38 523.12,-286.62 581.12,-286.62 581.12,-259.38 523.12,-259.38"/>
</g>
<!-- n_0_1_2_3_4_5_6&#45;&gt;n_6 -->
<g id="edge12" class="edge">
<title>n_0_1_2_3_4_5_6&#45;&gt;n_6</title>
<path fill="none" stroke="black" d="M502.28,-346.14C512.71,-331.04 524.47,-314.02 533.95,-300.31"/>
<polygon fill="black" stroke="black" points="536.73,-302.44 539.53,-292.23 530.97,-298.47 536.73,-302.44"/>
</g>
<!-- n_0_1_3_4 -->
<g id="node3" class="node">
<title>n_0_1_3_4</title>
<polygon fill="none" stroke="black" points="230,-163 230,-195 318.25,-195 318.25,-163 230,-163"/>
<text text-anchor="start" x="237" y="-180.45" font-family="Times New Roman,serif" font-weight="bold" font-size="9.00">Insufficient weight</text>
<text text-anchor="start" x="259.12" y="-171.45" font-family="Times New Roman,serif" font-weight="bold" font-size="9.00">Normal</text>
<polygon fill="none" stroke="black" points="318.25,-163 318.25,-195 386.25,-195 386.25,-163 318.25,-163"/>
<text text-anchor="start" x="325.25" y="-180.45" font-family="Times New Roman,serif" font-weight="bold" font-size="9.00">Overweight II</text>
<text text-anchor="start" x="334.25" y="-171.45" font-family="Times New Roman,serif" font-weight="bold" font-size="9.00">Obesity I</text>
<polygon fill="none" stroke="black" points="229,-162 229,-196 387.25,-196 387.25,-162 229,-162"/>
</g>
<!-- n_0_1_2_3_4_5&#45;&gt;n_0_1_3_4 -->
<g id="edge2" class="edge">
<title>n_0_1_2_3_4_5&#45;&gt;n_0_1_3_4</title>
<path fill="none" stroke="black" d="M371.27,-243.14C359.9,-231.78 346.91,-218.79 335.68,-207.55"/>
<polygon fill="black" stroke="black" points="338.47,-205.4 328.93,-200.8 333.52,-210.35 338.47,-205.4"/>
</g>
<!-- n_2_5 -->
<g id="node10" class="node">
<title>n_2_5</title>
<polygon fill="none" stroke="black" points="433.12,-166.38 433.12,-191.62 498.12,-191.62 498.12,-166.38 433.12,-166.38"/>
<text text-anchor="start" x="440.12" y="-177.07" font-family="Times New Roman,serif" font-weight="bold" font-size="9.00">Overweight I</text>
<polygon fill="none" stroke="black" points="498.12,-166.38 498.12,-191.62 551.12,-191.62 551.12,-166.38 498.12,-166.38"/>
<text text-anchor="start" x="505.12" y="-177.07" font-family="Times New Roman,serif" font-weight="bold" font-size="9.00">Obesity II</text>
<polygon fill="none" stroke="black" points="432.12,-165.38 432.12,-192.62 552.12,-192.62 552.12,-165.38 432.12,-165.38"/>
</g>
<!-- n_0_1_2_3_4_5&#45;&gt;n_2_5 -->
<g id="edge9" class="edge">
<title>n_0_1_2_3_4_5&#45;&gt;n_2_5</title>
<path fill="none" stroke="black" d="M428.98,-243.14C441.19,-230.93 455.29,-216.84 467.06,-205.07"/>
<polygon fill="black" stroke="black" points="469.49,-207.58 474.09,-198.04 464.54,-202.63 469.49,-207.58"/>
</g>
<!-- n_0_1 -->
<g id="node4" class="node">
<title>n_0_1</title>
<polygon fill="none" stroke="black" points="82,-84.38 82,-109.62 170.25,-109.62 170.25,-84.38 82,-84.38"/>
<text text-anchor="start" x="89" y="-95.08" font-family="Times New Roman,serif" font-weight="bold" font-size="9.00">Insufficient weight</text>
<polygon fill="none" stroke="black" points="170.25,-84.38 170.25,-109.62 214.25,-109.62 214.25,-84.38 170.25,-84.38"/>
<text text-anchor="start" x="177.25" y="-95.08" font-family="Times New Roman,serif" font-weight="bold" font-size="9.00">Normal</text>
<polygon fill="none" stroke="black" points="81,-83.38 81,-110.62 215.25,-110.62 215.25,-83.38 81,-83.38"/>
</g>
<!-- n_0_1_3_4&#45;&gt;n_0_1 -->
<g id="edge3" class="edge">
<title>n_0_1_3_4&#45;&gt;n_0_1</title>
<path fill="none" stroke="black" d="M268.16,-158.02C245.02,-146.45 215.86,-131.87 192.07,-119.97"/>
<polygon fill="black" stroke="black" points="193.77,-116.91 183.26,-115.57 190.64,-123.17 193.77,-116.91"/>
</g>
<!-- n_3_4 -->
<g id="node7" class="node">
<title>n_3_4</title>
<polygon fill="none" stroke="black" points="261.12,-84.38 261.12,-109.62 329.12,-109.62 329.12,-84.38 261.12,-84.38"/>
<text text-anchor="start" x="268.12" y="-95.08" font-family="Times New Roman,serif" font-weight="bold" font-size="9.00">Overweight II</text>
<polygon fill="none" stroke="black" points="329.12,-84.38 329.12,-109.62 379.12,-109.62 379.12,-84.38 329.12,-84.38"/>
<text text-anchor="start" x="336.12" y="-95.08" font-family="Times New Roman,serif" font-weight="bold" font-size="9.00">Obesity I</text>
<polygon fill="none" stroke="black" points="260.12,-83.38 260.12,-110.62 380.12,-110.62 380.12,-83.38 260.12,-83.38"/>
</g>
<!-- n_0_1_3_4&#45;&gt;n_3_4 -->
<g id="edge6" class="edge">
<title>n_0_1_3_4&#45;&gt;n_3_4</title>
<path fill="none" stroke="black" d="M311.09,-158.22C312.54,-148.54 314.32,-136.72 315.91,-126.11"/>
<polygon fill="black" stroke="black" points="319.35,-126.75 317.37,-116.34 312.43,-125.71 319.35,-126.75"/>
</g>
<!-- n_0 -->
<g id="node5" class="node">
<title>n_0</title>
<polygon fill="none" stroke="black" points="9,-5.38 9,-30.62 97.25,-30.62 97.25,-5.38 9,-5.38"/>
<text text-anchor="start" x="16" y="-16.07" font-family="Times New Roman,serif" font-weight="bold" font-size="9.00">Insufficient weight</text>
<polygon fill="none" stroke="black" points="8,-4.38 8,-31.62 98.25,-31.62 98.25,-4.38 8,-4.38"/>
</g>
<!-- n_0_1&#45;&gt;n_0 -->
<g id="edge4" class="edge">
<title>n_0_1&#45;&gt;n_0</title>
<path fill="none" stroke="black" d="M127.51,-79.29C114.41,-68.67 97.23,-54.75 82.68,-42.96"/>
<polygon fill="black" stroke="black" points="85.17,-40.47 75.2,-36.89 80.77,-45.91 85.17,-40.47"/>
</g>
<!-- n_1 -->
<g id="node6" class="node">
<title>n_1</title>
<polygon fill="none" stroke="black" points="144.12,-5.38 144.12,-30.62 188.12,-30.62 188.12,-5.38 144.12,-5.38"/>
<text text-anchor="start" x="151.12" y="-16.07" font-family="Times New Roman,serif" font-weight="bold" font-size="9.00">Normal</text>
<polygon fill="none" stroke="black" points="143.12,-4.38 143.12,-31.62 189.12,-31.62 189.12,-4.38 143.12,-4.38"/>
</g>
<!-- n_0_1&#45;&gt;n_1 -->
<g id="edge5" class="edge">
<title>n_0_1&#45;&gt;n_1</title>
<path fill="none" stroke="black" d="M152.03,-79.29C154.23,-69.87 157.04,-57.86 159.57,-47.04"/>
<polygon fill="black" stroke="black" points="162.95,-47.95 161.82,-37.41 156.14,-46.36 162.95,-47.95"/>
</g>
<!-- n_3 -->
<g id="node8" class="node">
<title>n_3</title>
<polygon fill="none" stroke="black" points="269.12,-5.38 269.12,-30.62 337.12,-30.62 337.12,-5.38 269.12,-5.38"/>
<text text-anchor="start" x="276.12" y="-16.07" font-family="Times New Roman,serif" font-weight="bold" font-size="9.00">Overweight II</text>
<polygon fill="none" stroke="black" points="268.12,-4.38 268.12,-31.62 338.12,-31.62 338.12,-4.38 268.12,-4.38"/>
</g>
<!-- n_3_4&#45;&gt;n_3 -->
<g id="edge7" class="edge">
<title>n_3_4&#45;&gt;n_3</title>
<path fill="none" stroke="black" d="M316.44,-79.29C314.36,-69.87 311.7,-57.86 309.31,-47.04"/>
<polygon fill="black" stroke="black" points="312.77,-46.43 307.19,-37.42 305.93,-47.94 312.77,-46.43"/>
</g>
<!-- n_4 -->
<g id="node9" class="node">
<title>n_4</title>
<polygon fill="none" stroke="black" points="384.12,-5.38 384.12,-30.62 434.12,-30.62 434.12,-5.38 384.12,-5.38"/>
<text text-anchor="start" x="391.12" y="-16.07" font-family="Times New Roman,serif" font-weight="bold" font-size="9.00">Obesity I</text>
<polygon fill="none" stroke="black" points="383.12,-4.38 383.12,-31.62 435.12,-31.62 435.12,-4.38 383.12,-4.38"/>
</g>
<!-- n_3_4&#45;&gt;n_4 -->
<g id="edge8" class="edge">
<title>n_3_4&#45;&gt;n_4</title>
<path fill="none" stroke="black" d="M339.44,-79.29C351.6,-68.77 367.5,-55.01 381.05,-43.29"/>
<polygon fill="black" stroke="black" points="383.13,-46.12 388.4,-36.93 378.55,-40.83 383.13,-46.12"/>
</g>
<!-- n_2 -->
<g id="node11" class="node">
<title>n_2</title>
<polygon fill="none" stroke="black" points="448.62,-84.38 448.62,-109.62 513.62,-109.62 513.62,-84.38 448.62,-84.38"/>
<text text-anchor="start" x="455.62" y="-95.08" font-family="Times New Roman,serif" font-weight="bold" font-size="9.00">Overweight I</text>
<polygon fill="none" stroke="black" points="447.62,-83.38 447.62,-110.62 514.62,-110.62 514.62,-83.38 447.62,-83.38"/>
</g>
<!-- n_2_5&#45;&gt;n_2 -->
<g id="edge10" class="edge">
<title>n_2_5&#45;&gt;n_2</title>
<path fill="none" stroke="black" d="M489.79,-161.03C488.41,-150.96 486.61,-137.92 485.02,-126.32"/>
<polygon fill="black" stroke="black" points="488.49,-125.87 483.66,-116.44 481.56,-126.82 488.49,-125.87"/>
</g>
<!-- n_5 -->
<g id="node12" class="node">
<title>n_5</title>
<polygon fill="none" stroke="black" points="560.62,-84.38 560.62,-109.62 613.62,-109.62 613.62,-84.38 560.62,-84.38"/>
<text text-anchor="start" x="567.62" y="-95.08" font-family="Times New Roman,serif" font-weight="bold" font-size="9.00">Obesity II</text>
<polygon fill="none" stroke="black" points="559.62,-83.38 559.62,-110.62 614.62,-110.62 614.62,-83.38 559.62,-83.38"/>
</g>
<!-- n_2_5&#45;&gt;n_5 -->
<g id="edge11" class="edge">
<title>n_2_5&#45;&gt;n_5</title>
<path fill="none" stroke="black" d="M512.27,-161.03C525.75,-149.69 543.68,-134.58 558.62,-122.01"/>
<polygon fill="black" stroke="black" points="560.45,-125.04 565.85,-115.92 555.95,-119.68 560.45,-125.04"/>
</g>
</g>
</svg>
