<?xml version="1.0" encoding="UTF-8" standalone="no"?>
<!DOCTYPE svg PUBLIC "-//W3C//DTD SVG 1.1//EN"
 "http://www.w3.org/Graphics/SVG/1.1/DTD/svg11.dtd">
<!-- Generated by graphviz version 10.0.1 (20240210.2158)
 -->
<!-- Title: ND Pages: 1 -->
<svg width="525pt" height="423pt"
 viewBox="0.00 0.00 524.50 423.00" xmlns="http://www.w3.org/2000/svg" xmlns:xlink="http://www.w3.org/1999/xlink">
<g id="graph0" class="graph" transform="scale(1 1) rotate(0) translate(4 419)">
<title>ND</title>
<polygon fill="white" stroke="none" points="-4,4 -4,-419 520.5,-419 520.5,4 -4,4"/>
<!-- n_0_1_2_3_4_5_6 -->
<g id="node1" class="node">
<title>n_0_1_2_3_4_5_6</title>
<polygon fill="none" stroke="black" points="258.88,-342 258.88,-410 326.88,-410 326.88,-342 258.88,-342"/>
<text text-anchor="start" x="277.88" y="-395.45" font-family="Times New Roman,serif" font-weight="bold" font-size="9.00">Normal</text>
<text text-anchor="start" x="267.38" y="-386.45" font-family="Times New Roman,serif" font-weight="bold" font-size="9.00">Overweight I</text>
<text text-anchor="start" x="265.88" y="-377.45" font-family="Times New Roman,serif" font-weight="bold" font-size="9.00">Overweight II</text>
<text text-anchor="start" x="274.88" y="-368.45" font-family="Times New Roman,serif" font-weight="bold" font-size="9.00">Obesity I</text>
<text text-anchor="start" x="273.38" y="-359.45" font-family="Times New Roman,serif" font-weight="bold" font-size="9.00">Obesity II</text>
<text text-anchor="start" x="271.88" y="-350.45" font-family="Times New Roman,serif" font-weight="bold" font-size="9.00">Obesity III</text>
<polygon fill="none" stroke="black" points="326.88,-342 326.88,-410 415.12,-410 415.12,-342 326.88,-342"/>
<text text-anchor="start" x="333.88" y="-374.07" font-family="Times New Roman,serif" font-weight="bold" font-size="9.00">Insufficient weight</text>
<polygon fill="none" stroke="black" points="257.88,-341 257.88,-411 416.12,-411 416.12,-341 257.88,-341"/>
</g>
<!-- n_1_2_3_4_5_6 -->
<g id="node2" class="node">
<title>n_1_2_3_4_5_6</title>
<polygon fill="none" stroke="black" points="199,-248 199,-289 255,-289 255,-248 199,-248"/>
<text text-anchor="start" x="212" y="-274.45" font-family="Times New Roman,serif" font-weight="bold" font-size="9.00">Normal</text>
<text text-anchor="start" x="209" y="-265.45" font-family="Times New Roman,serif" font-weight="bold" font-size="9.00">Obesity I</text>
<text text-anchor="start" x="206" y="-256.45" font-family="Times New Roman,serif" font-weight="bold" font-size="9.00">Obesity III</text>
<polygon fill="none" stroke="black" points="255,-248 255,-289 323,-289 323,-248 255,-248"/>
<text text-anchor="start" x="263.5" y="-274.45" font-family="Times New Roman,serif" font-weight="bold" font-size="9.00">Overweight I</text>
<text text-anchor="start" x="262" y="-265.45" font-family="Times New Roman,serif" font-weight="bold" font-size="9.00">Overweight II</text>
<text text-anchor="start" x="269.5" y="-256.45" font-family="Times New Roman,serif" font-weight="bold" font-size="9.00">Obesity II</text>
<polygon fill="none" stroke="black" points="198,-247 198,-290 324,-290 324,-247 198,-247"/>
</g>
<!-- n_0_1_2_3_4_5_6&#45;&gt;n_1_2_3_4_5_6 -->
<g id="edge1" class="edge">
<title>n_0_1_2_3_4_5_6&#45;&gt;n_1_2_3_4_5_6</title>
<path fill="none" stroke="black" d="M309.78,-337.21C301.74,-326.05 293,-313.92 285.17,-303.05"/>
<polygon fill="black" stroke="black" points="288.13,-301.17 279.44,-295.1 282.45,-305.26 288.13,-301.17"/>
</g>
<!-- n_0 -->
<g id="node13" class="node">
<title>n_0</title>
<polygon fill="none" stroke="black" points="369.88,-255.88 369.88,-281.12 458.12,-281.12 458.12,-255.88 369.88,-255.88"/>
<text text-anchor="start" x="376.88" y="-266.57" font-family="Times New Roman,serif" font-weight="bold" font-size="9.00">Insufficient weight</text>
<polygon fill="none" stroke="black" points="368.88,-254.88 368.88,-282.12 459.12,-282.12 459.12,-254.88 368.88,-254.88"/>
</g>
<!-- n_0_1_2_3_4_5_6&#45;&gt;n_0 -->
<g id="edge12" class="edge">
<title>n_0_1_2_3_4_5_6&#45;&gt;n_0</title>
<path fill="none" stroke="black" d="M364.58,-337.21C374.69,-323.36 385.9,-308.01 395.08,-295.43"/>
<polygon fill="black" stroke="black" points="397.69,-297.78 400.76,-287.64 392.04,-293.65 397.69,-297.78"/>
</g>
<!-- n_1_4_6 -->
<g id="node3" class="node">
<title>n_1_4_6</title>
<polygon fill="none" stroke="black" points="129,-163 129,-195 185,-195 185,-163 129,-163"/>
<text text-anchor="start" x="139" y="-180.45" font-family="Times New Roman,serif" font-weight="bold" font-size="9.00">Obesity I</text>
<text text-anchor="start" x="136" y="-171.45" font-family="Times New Roman,serif" font-weight="bold" font-size="9.00">Obesity III</text>
<polygon fill="none" stroke="black" points="185,-163 185,-195 229,-195 229,-163 185,-163"/>
<text text-anchor="start" x="192" y="-177.07" font-family="Times New Roman,serif" font-weight="bold" font-size="9.00">Normal</text>
<polygon fill="none" stroke="black" points="128,-162 128,-196 230,-196 230,-162 128,-162"/>
</g>
<!-- n_1_2_3_4_5_6&#45;&gt;n_1_4_6 -->
<g id="edge2" class="edge">
<title>n_1_2_3_4_5_6&#45;&gt;n_1_4_6</title>
<path fill="none" stroke="black" d="M238.16,-243.13C227.96,-232.25 215.89,-219.36 205.32,-208.08"/>
<polygon fill="black" stroke="black" points="208.01,-205.83 198.61,-200.93 202.9,-210.62 208.01,-205.83"/>
</g>
<!-- n_2_3_5 -->
<g id="node8" class="node">
<title>n_2_3_5</title>
<polygon fill="none" stroke="black" points="276.5,-163 276.5,-195 344.5,-195 344.5,-163 276.5,-163"/>
<text text-anchor="start" x="283.5" y="-180.45" font-family="Times New Roman,serif" font-weight="bold" font-size="9.00">Overweight II</text>
<text text-anchor="start" x="291" y="-171.45" font-family="Times New Roman,serif" font-weight="bold" font-size="9.00">Obesity II</text>
<polygon fill="none" stroke="black" points="344.5,-163 344.5,-195 409.5,-195 409.5,-163 344.5,-163"/>
<text text-anchor="start" x="351.5" y="-177.07" font-family="Times New Roman,serif" font-weight="bold" font-size="9.00">Overweight I</text>
<polygon fill="none" stroke="black" points="275.5,-162 275.5,-196 410.5,-196 410.5,-162 275.5,-162"/>
</g>
<!-- n_1_2_3_4_5_6&#45;&gt;n_2_3_5 -->
<g id="edge7" class="edge">
<title>n_1_2_3_4_5_6&#45;&gt;n_2_3_5</title>
<path fill="none" stroke="black" d="M283.84,-243.13C294.04,-232.25 306.11,-219.36 316.68,-208.08"/>
<polygon fill="black" stroke="black" points="319.1,-210.62 323.39,-200.93 313.99,-205.83 319.1,-210.62"/>
</g>
<!-- n_4_6 -->
<g id="node4" class="node">
<title>n_4_6</title>
<polygon fill="none" stroke="black" points="13,-84.38 13,-109.62 63,-109.62 63,-84.38 13,-84.38"/>
<text text-anchor="start" x="20" y="-95.08" font-family="Times New Roman,serif" font-weight="bold" font-size="9.00">Obesity I</text>
<polygon fill="none" stroke="black" points="63,-84.38 63,-109.62 119,-109.62 119,-84.38 63,-84.38"/>
<text text-anchor="start" x="70" y="-95.08" font-family="Times New Roman,serif" font-weight="bold" font-size="9.00">Obesity III</text>
<polygon fill="none" stroke="black" points="12,-83.38 12,-110.62 120,-110.62 120,-83.38 12,-83.38"/>
</g>
<!-- n_1_4_6&#45;&gt;n_4_6 -->
<g id="edge3" class="edge">
<title>n_1_4_6&#45;&gt;n_4_6</title>
<path fill="none" stroke="black" d="M150.78,-158.02C135.04,-146.88 115.36,-132.94 98.92,-121.31"/>
<polygon fill="black" stroke="black" points="101.09,-118.55 90.91,-115.63 97.05,-124.27 101.09,-118.55"/>
</g>
<!-- n_1 -->
<g id="node7" class="node">
<title>n_1</title>
<polygon fill="none" stroke="black" points="166,-84.38 166,-109.62 210,-109.62 210,-84.38 166,-84.38"/>
<text text-anchor="start" x="173" y="-95.08" font-family="Times New Roman,serif" font-weight="bold" font-size="9.00">Normal</text>
<polygon fill="none" stroke="black" points="165,-83.38 165,-110.62 211,-110.62 211,-83.38 165,-83.38"/>
</g>
<!-- n_1_4_6&#45;&gt;n_1 -->
<g id="edge6" class="edge">
<title>n_1_4_6&#45;&gt;n_1</title>
<path fill="none" stroke="black" d="M181.22,-158.22C182.31,-148.54 183.64,-136.72 184.84,-126.11"/>
<polygon fill="black" stroke="black" points="188.3,-126.68 185.94,-116.35 181.34,-125.89 188.3,-126.68"/>
</g>
<!-- n_4 -->
<g id="node5" class="node">
<title>n_4</title>
<polygon fill="none" stroke="black" points="9,-5.38 9,-30.62 59,-30.62 59,-5.38 9,-5.38"/>
<text text-anchor="start" x="16" y="-16.07" font-family="Times New Roman,serif" font-weight="bold" font-size="9.00">Obesity I</text>
<polygon fill="none" stroke="black" points="8,-4.38 8,-31.62 60,-31.62 60,-4.38 8,-4.38"/>
</g>
<!-- n_4_6&#45;&gt;n_4 -->
<g id="edge4" class="edge">
<title>n_4_6&#45;&gt;n_4</title>
<path fill="none" stroke="black" d="M59.06,-79.29C55.06,-69.67 49.94,-57.34 45.36,-46.35"/>
<polygon fill="black" stroke="black" points="48.69,-45.23 41.62,-37.34 42.23,-47.92 48.69,-45.23"/>
</g>
<!-- n_6 -->
<g id="node6" class="node">
<title>n_6</title>
<polygon fill="none" stroke="black" points="106,-5.38 106,-30.62 162,-30.62 162,-5.38 106,-5.38"/>
<text text-anchor="start" x="113" y="-16.07" font-family="Times New Roman,serif" font-weight="bold" font-size="9.00">Obesity III</text>
<polygon fill="none" stroke="black" points="105,-4.38 105,-31.62 163,-31.62 163,-4.38 105,-4.38"/>
</g>
<!-- n_4_6&#45;&gt;n_6 -->
<g id="edge5" class="edge">
<title>n_4_6&#45;&gt;n_6</title>
<path fill="none" stroke="black" d="M80.75,-79.29C89.78,-69.07 101.51,-55.79 111.66,-44.3"/>
<polygon fill="black" stroke="black" points="114.04,-46.89 118.04,-37.08 108.79,-42.25 114.04,-46.89"/>
</g>
<!-- n_3_5 -->
<g id="node9" class="node">
<title>n_3_5</title>
<polygon fill="none" stroke="black" points="274.5,-84.38 274.5,-109.62 342.5,-109.62 342.5,-84.38 274.5,-84.38"/>
<text text-anchor="start" x="281.5" y="-95.08" font-family="Times New Roman,serif" font-weight="bold" font-size="9.00">Overweight II</text>
<polygon fill="none" stroke="black" points="342.5,-84.38 342.5,-109.62 395.5,-109.62 395.5,-84.38 342.5,-84.38"/>
<text text-anchor="start" x="349.5" y="-95.08" font-family="Times New Roman,serif" font-weight="bold" font-size="9.00">Obesity II</text>
<polygon fill="none" stroke="black" points="273.5,-83.38 273.5,-110.62 396.5,-110.62 396.5,-83.38 273.5,-83.38"/>
</g>
<!-- n_2_3_5&#45;&gt;n_3_5 -->
<g id="edge8" class="edge">
<title>n_2_3_5&#45;&gt;n_3_5</title>
<path fill="none" stroke="black" d="M341.02,-158.22C340.05,-148.54 338.87,-136.72 337.81,-126.11"/>
<polygon fill="black" stroke="black" points="341.31,-125.95 336.83,-116.35 334.35,-126.65 341.31,-125.95"/>
</g>
<!-- n_2 -->
<g id="node12" class="node">
<title>n_2</title>
<polygon fill="none" stroke="black" points="442.5,-84.38 442.5,-109.62 507.5,-109.62 507.5,-84.38 442.5,-84.38"/>
<text text-anchor="start" x="449.5" y="-95.08" font-family="Times New Roman,serif" font-weight="bold" font-size="9.00">Overweight I</text>
<polygon fill="none" stroke="black" points="441.5,-83.38 441.5,-110.62 508.5,-110.62 508.5,-83.38 441.5,-83.38"/>
</g>
<!-- n_2_3_5&#45;&gt;n_2 -->
<g id="edge11" class="edge">
<title>n_2_3_5&#45;&gt;n_2</title>
<path fill="none" stroke="black" d="M375.97,-158.02C394.7,-146.67 418.21,-132.42 437.62,-120.66"/>
<polygon fill="black" stroke="black" points="439.32,-123.72 446.05,-115.54 435.69,-117.73 439.32,-123.72"/>
</g>
<!-- n_3 -->
<g id="node10" class="node">
<title>n_3</title>
<polygon fill="none" stroke="black" points="246,-5.38 246,-30.62 314,-30.62 314,-5.38 246,-5.38"/>
<text text-anchor="start" x="253" y="-16.07" font-family="Times New Roman,serif" font-weight="bold" font-size="9.00">Overweight II</text>
<polygon fill="none" stroke="black" points="245,-4.38 245,-31.62 315,-31.62 315,-4.38 245,-4.38"/>
</g>
<!-- n_3_5&#45;&gt;n_3 -->
<g id="edge9" class="edge">
<title>n_3_5&#45;&gt;n_3</title>
<path fill="none" stroke="black" d="M323.07,-79.29C315.91,-69.27 306.65,-56.31 298.56,-44.98"/>
<polygon fill="black" stroke="black" points="301.64,-43.28 292.98,-37.17 295.94,-47.34 301.64,-43.28"/>
</g>
<!-- n_5 -->
<g id="node11" class="node">
<title>n_5</title>
<polygon fill="none" stroke="black" points="361.5,-5.38 361.5,-30.62 414.5,-30.62 414.5,-5.38 361.5,-5.38"/>
<text text-anchor="start" x="368.5" y="-16.07" font-family="Times New Roman,serif" font-weight="bold" font-size="9.00">Obesity II</text>
<polygon fill="none" stroke="black" points="360.5,-4.38 360.5,-31.62 415.5,-31.62 415.5,-4.38 360.5,-4.38"/>
</g>
<!-- n_3_5&#45;&gt;n_5 -->
<g id="edge10" class="edge">
<title>n_3_5&#45;&gt;n_5</title>
<path fill="none" stroke="black" d="M346.5,-79.29C353.33,-69.37 362.14,-56.57 369.88,-45.32"/>
<polygon fill="black" stroke="black" points="372.69,-47.41 375.48,-37.19 366.93,-43.44 372.69,-47.41"/>
</g>
</g>
</svg>
