<?xml version="1.0" encoding="UTF-8" standalone="no"?>
<!DOCTYPE svg PUBLIC "-//W3C//DTD SVG 1.1//EN"
 "http://www.w3.org/Graphics/SVG/1.1/DTD/svg11.dtd">
<!-- Generated by graphviz version 10.0.1 (20240210.2158)
 -->
<!-- Title: ND Pages: 1 -->
<svg width="570pt" height="638pt"
 viewBox="0.00 0.00 569.50 638.00" xmlns="http://www.w3.org/2000/svg" xmlns:xlink="http://www.w3.org/1999/xlink">
<g id="graph0" class="graph" transform="scale(1 1) rotate(0) translate(4 634)">
<title>ND</title>
<polygon fill="white" stroke="none" points="-4,4 -4,-634 565.5,-634 565.5,4 -4,4"/>
<!-- n_0_1_2_3_4_5_6 -->
<g id="node1" class="node">
<title>n_0_1_2_3_4_5_6</title>
<polygon fill="none" stroke="black" points="385.38,-557 385.38,-625 473.62,-625 473.62,-557 385.38,-557"/>
<text text-anchor="start" x="392.38" y="-610.45" font-family="Times New Roman,serif" font-weight="bold" font-size="9.00">Insufficient weight</text>
<text text-anchor="start" x="414.5" y="-601.45" font-family="Times New Roman,serif" font-weight="bold" font-size="9.00">Normal</text>
<text text-anchor="start" x="404" y="-592.45" font-family="Times New Roman,serif" font-weight="bold" font-size="9.00">Overweight I</text>
<text text-anchor="start" x="402.5" y="-583.45" font-family="Times New Roman,serif" font-weight="bold" font-size="9.00">Overweight II</text>
<text text-anchor="start" x="411.5" y="-574.45" font-family="Times New Roman,serif" font-weight="bold" font-size="9.00">Obesity I</text>
<text text-anchor="start" x="408.5" y="-565.45" font-family="Times New Roman,serif" font-weight="bold" font-size="9.00">Obesity III</text>
<polygon fill="none" stroke="black" points="473.62,-557 473.62,-625 526.62,-625 526.62,-557 473.62,-557"/>
<text text-anchor="start" x="480.62" y="-589.08" font-family="Times New Roman,serif" font-weight="bold" font-size="9.00">Obesity II</text>
<polygon fill="none" stroke="black" points="384.38,-556 384.38,-626 527.62,-626 527.62,-556 384.38,-556"/>
</g>
<!-- n_0_1_2_3_4_6 -->
<g id="node2" class="node">
<title>n_0_1_2_3_4_6</title>
<polygon fill="none" stroke="black" points="319.88,-445 319.88,-504 408.12,-504 408.12,-445 319.88,-445"/>
<text text-anchor="start" x="326.88" y="-489.45" font-family="Times New Roman,serif" font-weight="bold" font-size="9.00">Insufficient weight</text>
<text text-anchor="start" x="338.5" y="-480.45" font-family="Times New Roman,serif" font-weight="bold" font-size="9.00">Overweight I</text>
<text text-anchor="start" x="337" y="-471.45" font-family="Times New Roman,serif" font-weight="bold" font-size="9.00">Overweight II</text>
<text text-anchor="start" x="346" y="-462.45" font-family="Times New Roman,serif" font-weight="bold" font-size="9.00">Obesity I</text>
<text text-anchor="start" x="343" y="-453.45" font-family="Times New Roman,serif" font-weight="bold" font-size="9.00">Obesity III</text>
<polygon fill="none" stroke="black" points="408.12,-445 408.12,-504 452.12,-504 452.12,-445 408.12,-445"/>
<text text-anchor="start" x="415.12" y="-472.57" font-family="Times New Roman,serif" font-weight="bold" font-size="9.00">Normal</text>
<polygon fill="none" stroke="black" points="318.88,-444 318.88,-505 453.12,-505 453.12,-444 318.88,-444"/>
</g>
<!-- n_0_1_2_3_4_5_6&#45;&gt;n_0_1_2_3_4_6 -->
<g id="edge1" class="edge">
<title>n_0_1_2_3_4_5_6&#45;&gt;n_0_1_2_3_4_6</title>
<path fill="none" stroke="black" d="M432.89,-552.19C426.23,-541.31 418.93,-529.36 412.11,-518.21"/>
<polygon fill="black" stroke="black" points="415.26,-516.65 407.06,-509.94 409.29,-520.3 415.26,-516.65"/>
</g>
<!-- n_5 -->
<g id="node13" class="node">
<title>n_5</title>
<polygon fill="none" stroke="black" points="499.5,-461.88 499.5,-487.12 552.5,-487.12 552.5,-461.88 499.5,-461.88"/>
<text text-anchor="start" x="506.5" y="-472.57" font-family="Times New Roman,serif" font-weight="bold" font-size="9.00">Obesity II</text>
<polygon fill="none" stroke="black" points="498.5,-460.88 498.5,-488.12 553.5,-488.12 553.5,-460.88 498.5,-460.88"/>
</g>
<!-- n_0_1_2_3_4_5_6&#45;&gt;n_5 -->
<g id="edge12" class="edge">
<title>n_0_1_2_3_4_5_6&#45;&gt;n_5</title>
<path fill="none" stroke="black" d="M479.11,-552.19C489.15,-535.78 500.65,-516.96 509.76,-502.07"/>
<polygon fill="black" stroke="black" points="512.61,-504.11 514.84,-493.75 506.64,-500.46 512.61,-504.11"/>
</g>
<!-- n_0_2_3_4_6 -->
<g id="node3" class="node">
<title>n_0_2_3_4_6</title>
<polygon fill="none" stroke="black" points="234.88,-342 234.88,-392 302.88,-392 302.88,-342 234.88,-342"/>
<text text-anchor="start" x="243.38" y="-377.45" font-family="Times New Roman,serif" font-weight="bold" font-size="9.00">Overweight I</text>
<text text-anchor="start" x="241.88" y="-368.45" font-family="Times New Roman,serif" font-weight="bold" font-size="9.00">Overweight II</text>
<text text-anchor="start" x="250.88" y="-359.45" font-family="Times New Roman,serif" font-weight="bold" font-size="9.00">Obesity I</text>
<text text-anchor="start" x="247.88" y="-350.45" font-family="Times New Roman,serif" font-weight="bold" font-size="9.00">Obesity III</text>
<polygon fill="none" stroke="black" points="302.88,-342 302.88,-392 391.12,-392 391.12,-342 302.88,-342"/>
<text text-anchor="start" x="309.88" y="-365.07" font-family="Times New Roman,serif" font-weight="bold" font-size="9.00">Insufficient weight</text>
<polygon fill="none" stroke="black" points="233.88,-341 233.88,-393 392.12,-393 392.12,-341 233.88,-341"/>
</g>
<!-- n_0_1_2_3_4_6&#45;&gt;n_0_2_3_4_6 -->
<g id="edge2" class="edge">
<title>n_0_1_2_3_4_6&#45;&gt;n_0_2_3_4_6</title>
<path fill="none" stroke="black" d="M362.9,-440.12C355.47,-429.38 347.18,-417.4 339.52,-406.33"/>
<polygon fill="black" stroke="black" points="342.43,-404.37 333.86,-398.14 336.67,-408.36 342.43,-404.37"/>
</g>
<!-- n_1 -->
<g id="node12" class="node">
<title>n_1</title>
<polygon fill="none" stroke="black" points="438,-354.38 438,-379.62 482,-379.62 482,-354.38 438,-354.38"/>
<text text-anchor="start" x="445" y="-365.07" font-family="Times New Roman,serif" font-weight="bold" font-size="9.00">Normal</text>
<polygon fill="none" stroke="black" points="437,-353.38 437,-380.62 483,-380.62 483,-353.38 437,-353.38"/>
</g>
<!-- n_0_1_2_3_4_6&#45;&gt;n_1 -->
<g id="edge11" class="edge">
<title>n_0_1_2_3_4_6&#45;&gt;n_1</title>
<path fill="none" stroke="black" d="M409.41,-440.12C419.87,-425.21 432.01,-407.9 441.78,-393.98"/>
<polygon fill="black" stroke="black" points="444.36,-396.39 447.24,-386.19 438.63,-392.37 444.36,-396.39"/>
</g>
<!-- n_2_3_4_6 -->
<g id="node4" class="node">
<title>n_2_3_4_6</title>
<polygon fill="none" stroke="black" points="167.5,-248 167.5,-289 235.5,-289 235.5,-248 167.5,-248"/>
<text text-anchor="start" x="174.5" y="-274.45" font-family="Times New Roman,serif" font-weight="bold" font-size="9.00">Overweight II</text>
<text text-anchor="start" x="183.5" y="-265.45" font-family="Times New Roman,serif" font-weight="bold" font-size="9.00">Obesity I</text>
<text text-anchor="start" x="180.5" y="-256.45" font-family="Times New Roman,serif" font-weight="bold" font-size="9.00">Obesity III</text>
<polygon fill="none" stroke="black" points="235.5,-248 235.5,-289 300.5,-289 300.5,-248 235.5,-248"/>
<text text-anchor="start" x="242.5" y="-266.57" font-family="Times New Roman,serif" font-weight="bold" font-size="9.00">Overweight I</text>
<polygon fill="none" stroke="black" points="166.5,-247 166.5,-290 301.5,-290 301.5,-247 166.5,-247"/>
</g>
<!-- n_0_2_3_4_6&#45;&gt;n_2_3_4_6 -->
<g id="edge3" class="edge">
<title>n_0_2_3_4_6&#45;&gt;n_2_3_4_6</title>
<path fill="none" stroke="black" d="M289.3,-337.05C280.4,-326.18 270.23,-313.76 261.06,-302.55"/>
<polygon fill="black" stroke="black" points="263.96,-300.57 254.91,-295.05 258.54,-305 263.96,-300.57"/>
</g>
<!-- n_0 -->
<g id="node11" class="node">
<title>n_0</title>
<polygon fill="none" stroke="black" points="347.88,-255.88 347.88,-281.12 436.12,-281.12 436.12,-255.88 347.88,-255.88"/>
<text text-anchor="start" x="354.88" y="-266.57" font-family="Times New Roman,serif" font-weight="bold" font-size="9.00">Insufficient weight</text>
<polygon fill="none" stroke="black" points="346.88,-254.88 346.88,-282.12 437.12,-282.12 437.12,-254.88 346.88,-254.88"/>
</g>
<!-- n_0_2_3_4_6&#45;&gt;n_0 -->
<g id="edge10" class="edge">
<title>n_0_2_3_4_6&#45;&gt;n_0</title>
<path fill="none" stroke="black" d="M336.7,-337.05C347.6,-323.73 360.42,-308.07 370.97,-295.19"/>
<polygon fill="black" stroke="black" points="373.61,-297.49 377.23,-287.54 368.19,-293.06 373.61,-297.49"/>
</g>
<!-- n_3_4_6 -->
<g id="node5" class="node">
<title>n_3_4_6</title>
<polygon fill="none" stroke="black" points="101,-163 101,-195 169,-195 169,-163 101,-163"/>
<text text-anchor="start" x="108" y="-180.45" font-family="Times New Roman,serif" font-weight="bold" font-size="9.00">Overweight II</text>
<text text-anchor="start" x="117" y="-171.45" font-family="Times New Roman,serif" font-weight="bold" font-size="9.00">Obesity I</text>
<polygon fill="none" stroke="black" points="169,-163 169,-195 225,-195 225,-163 169,-163"/>
<text text-anchor="start" x="176" y="-177.07" font-family="Times New Roman,serif" font-weight="bold" font-size="9.00">Obesity III</text>
<polygon fill="none" stroke="black" points="100,-162 100,-196 226,-196 226,-162 100,-162"/>
</g>
<!-- n_2_3_4_6&#45;&gt;n_3_4_6 -->
<g id="edge4" class="edge">
<title>n_2_3_4_6&#45;&gt;n_3_4_6</title>
<path fill="none" stroke="black" d="M214.22,-243.13C205.57,-232.46 195.35,-219.87 186.33,-208.75"/>
<polygon fill="black" stroke="black" points="189.06,-206.56 180.04,-201 183.62,-210.97 189.06,-206.56"/>
</g>
<!-- n_2 -->
<g id="node10" class="node">
<title>n_2</title>
<polygon fill="none" stroke="black" points="272.5,-166.38 272.5,-191.62 337.5,-191.62 337.5,-166.38 272.5,-166.38"/>
<text text-anchor="start" x="279.5" y="-177.07" font-family="Times New Roman,serif" font-weight="bold" font-size="9.00">Overweight I</text>
<polygon fill="none" stroke="black" points="271.5,-165.38 271.5,-192.62 338.5,-192.62 338.5,-165.38 271.5,-165.38"/>
</g>
<!-- n_2_3_4_6&#45;&gt;n_2 -->
<g id="edge9" class="edge">
<title>n_2_3_4_6&#45;&gt;n_2</title>
<path fill="none" stroke="black" d="M253.78,-243.13C263.23,-231.48 274.55,-217.53 284.14,-205.71"/>
<polygon fill="black" stroke="black" points="286.86,-207.92 290.44,-197.95 281.42,-203.51 286.86,-207.92"/>
</g>
<!-- n_3_4 -->
<g id="node6" class="node">
<title>n_3_4</title>
<polygon fill="none" stroke="black" points="37,-84.38 37,-109.62 105,-109.62 105,-84.38 37,-84.38"/>
<text text-anchor="start" x="44" y="-95.08" font-family="Times New Roman,serif" font-weight="bold" font-size="9.00">Overweight II</text>
<polygon fill="none" stroke="black" points="105,-84.38 105,-109.62 155,-109.62 155,-84.38 105,-84.38"/>
<text text-anchor="start" x="112" y="-95.08" font-family="Times New Roman,serif" font-weight="bold" font-size="9.00">Obesity I</text>
<polygon fill="none" stroke="black" points="36,-83.38 36,-110.62 156,-110.62 156,-83.38 36,-83.38"/>
</g>
<!-- n_3_4_6&#45;&gt;n_3_4 -->
<g id="edge5" class="edge">
<title>n_3_4_6&#45;&gt;n_3_4</title>
<path fill="none" stroke="black" d="M146.44,-158.22C137.63,-147.71 126.71,-134.66 117.28,-123.41"/>
<polygon fill="black" stroke="black" points="120.18,-121.42 111.08,-116 114.82,-125.92 120.18,-121.42"/>
</g>
<!-- n_6 -->
<g id="node9" class="node">
<title>n_6</title>
<polygon fill="none" stroke="black" points="202,-84.38 202,-109.62 258,-109.62 258,-84.38 202,-84.38"/>
<text text-anchor="start" x="209" y="-95.08" font-family="Times New Roman,serif" font-weight="bold" font-size="9.00">Obesity III</text>
<polygon fill="none" stroke="black" points="201,-83.38 201,-110.62 259,-110.62 259,-83.38 201,-83.38"/>
</g>
<!-- n_3_4_6&#45;&gt;n_6 -->
<g id="edge8" class="edge">
<title>n_3_4_6&#45;&gt;n_6</title>
<path fill="none" stroke="black" d="M179.56,-158.22C188.37,-147.71 199.29,-134.66 208.72,-123.41"/>
<polygon fill="black" stroke="black" points="211.18,-125.92 214.92,-116 205.82,-121.42 211.18,-125.92"/>
</g>
<!-- n_3 -->
<g id="node7" class="node">
<title>n_3</title>
<polygon fill="none" stroke="black" points="9,-5.38 9,-30.62 77,-30.62 77,-5.38 9,-5.38"/>
<text text-anchor="start" x="16" y="-16.07" font-family="Times New Roman,serif" font-weight="bold" font-size="9.00">Overweight II</text>
<polygon fill="none" stroke="black" points="8,-4.38 8,-31.62 78,-31.62 78,-4.38 8,-4.38"/>
</g>
<!-- n_3_4&#45;&gt;n_3 -->
<g id="edge6" class="edge">
<title>n_3_4&#45;&gt;n_3</title>
<path fill="none" stroke="black" d="M84.5,-79.29C77.67,-69.37 68.86,-56.57 61.12,-45.32"/>
<polygon fill="black" stroke="black" points="64.07,-43.44 55.52,-37.19 58.31,-47.41 64.07,-43.44"/>
</g>
<!-- n_4 -->
<g id="node8" class="node">
<title>n_4</title>
<polygon fill="none" stroke="black" points="124,-5.38 124,-30.62 174,-30.62 174,-5.38 124,-5.38"/>
<text text-anchor="start" x="131" y="-16.07" font-family="Times New Roman,serif" font-weight="bold" font-size="9.00">Obesity I</text>
<polygon fill="none" stroke="black" points="123,-4.38 123,-31.62 175,-31.62 175,-4.38 123,-4.38"/>
</g>
<!-- n_3_4&#45;&gt;n_4 -->
<g id="edge7" class="edge">
<title>n_3_4&#45;&gt;n_4</title>
<path fill="none" stroke="black" d="M107.5,-79.29C114.33,-69.37 123.14,-56.57 130.88,-45.32"/>
<polygon fill="black" stroke="black" points="133.69,-47.41 136.48,-37.19 127.93,-43.44 133.69,-47.41"/>
</g>
</g>
</svg>
