<?xml version="1.0" encoding="UTF-8" standalone="no"?>
<!DOCTYPE svg PUBLIC "-//W3C//DTD SVG 1.1//EN"
 "http://www.w3.org/Graphics/SVG/1.1/DTD/svg11.dtd">
<!-- Generated by graphviz version 10.0.1 (20240210.2158)
 -->
<!-- Title: ND Pages: 1 -->
<svg width="616pt" height="432pt"
 viewBox="0.00 0.00 615.50 432.00" xmlns="http://www.w3.org/2000/svg" xmlns:xlink="http://www.w3.org/1999/xlink">
<g id="graph0" class="graph" transform="scale(1 1) rotate(0) translate(4 428)">
<title>ND</title>
<polygon fill="white" stroke="none" points="-4,4 -4,-428 611.5,-428 611.5,4 -4,4"/>
<!-- n_0_1_2_3_4_5_6 -->
<g id="node1" class="node">
<title>n_0_1_2_3_4_5_6</title>
<polygon fill="none" stroke="black" points="385.88,-351 385.88,-419 474.12,-419 474.12,-351 385.88,-351"/>
<text text-anchor="start" x="392.88" y="-404.45" font-family="Times New Roman,serif" font-weight="bold" font-size="9.00">Insufficient weight</text>
<text text-anchor="start" x="415" y="-395.45" font-family="Times New Roman,serif" font-weight="bold" font-size="9.00">Normal</text>
<text text-anchor="start" x="404.5" y="-386.45" font-family="Times New Roman,serif" font-weight="bold" font-size="9.00">Overweight I</text>
<text text-anchor="start" x="403" y="-377.45" font-family="Times New Roman,serif" font-weight="bold" font-size="9.00">Overweight II</text>
<text text-anchor="start" x="412" y="-368.45" font-family="Times New Roman,serif" font-weight="bold" font-size="9.00">Obesity I</text>
<text text-anchor="start" x="409" y="-359.45" font-family="Times New Roman,serif" font-weight="bold" font-size="9.00">Obesity III</text>
<polygon fill="none" stroke="black" points="474.12,-351 474.12,-419 527.12,-419 527.12,-351 474.12,-351"/>
<text text-anchor="start" x="481.12" y="-383.07" font-family="Times New Roman,serif" font-weight="bold" font-size="9.00">Obesity II</text>
<polygon fill="none" stroke="black" points="384.88,-350 384.88,-420 528.12,-420 528.12,-350 384.88,-350"/>
</g>
<!-- n_0_1_2_3_4_6 -->
<g id="node2" class="node">
<title>n_0_1_2_3_4_6</title>
<polygon fill="none" stroke="black" points="302.38,-248 302.38,-298 370.38,-298 370.38,-248 302.38,-248"/>
<text text-anchor="start" x="310.88" y="-283.45" font-family="Times New Roman,serif" font-weight="bold" font-size="9.00">Overweight I</text>
<text text-anchor="start" x="309.38" y="-274.45" font-family="Times New Roman,serif" font-weight="bold" font-size="9.00">Overweight II</text>
<text text-anchor="start" x="318.38" y="-265.45" font-family="Times New Roman,serif" font-weight="bold" font-size="9.00">Obesity I</text>
<text text-anchor="start" x="315.38" y="-256.45" font-family="Times New Roman,serif" font-weight="bold" font-size="9.00">Obesity III</text>
<polygon fill="none" stroke="black" points="370.38,-248 370.38,-298 458.62,-298 458.62,-248 370.38,-248"/>
<text text-anchor="start" x="377.38" y="-274.45" font-family="Times New Roman,serif" font-weight="bold" font-size="9.00">Insufficient weight</text>
<text text-anchor="start" x="399.5" y="-265.45" font-family="Times New Roman,serif" font-weight="bold" font-size="9.00">Normal</text>
<polygon fill="none" stroke="black" points="301.38,-247 301.38,-299 459.62,-299 459.62,-247 301.38,-247"/>
</g>
<!-- n_0_1_2_3_4_5_6&#45;&gt;n_0_1_2_3_4_6 -->
<g id="edge1" class="edge">
<title>n_0_1_2_3_4_5_6&#45;&gt;n_0_1_2_3_4_6</title>
<path fill="none" stroke="black" d="M430.35,-346.14C422.77,-335.19 414.5,-323.22 406.92,-312.23"/>
<polygon fill="black" stroke="black" points="409.88,-310.37 401.32,-304.13 404.12,-314.35 409.88,-310.37"/>
</g>
<!-- n_5 -->
<g id="node13" class="node">
<title>n_5</title>
<polygon fill="none" stroke="black" points="506,-260.38 506,-285.62 559,-285.62 559,-260.38 506,-260.38"/>
<text text-anchor="start" x="513" y="-271.07" font-family="Times New Roman,serif" font-weight="bold" font-size="9.00">Obesity II</text>
<polygon fill="none" stroke="black" points="505,-259.38 505,-286.62 560,-286.62 560,-259.38 505,-259.38"/>
</g>
<!-- n_0_1_2_3_4_5_6&#45;&gt;n_5 -->
<g id="edge12" class="edge">
<title>n_0_1_2_3_4_5_6&#45;&gt;n_5</title>
<path fill="none" stroke="black" d="M482.65,-346.14C493.09,-331.04 504.85,-314.02 514.32,-300.31"/>
<polygon fill="black" stroke="black" points="517.1,-302.44 519.91,-292.23 511.34,-298.47 517.1,-302.44"/>
</g>
<!-- n_2_3_4_6 -->
<g id="node3" class="node">
<title>n_2_3_4_6</title>
<polygon fill="none" stroke="black" points="224,-163 224,-195 289,-195 289,-163 224,-163"/>
<text text-anchor="start" x="231" y="-180.45" font-family="Times New Roman,serif" font-weight="bold" font-size="9.00">Overweight I</text>
<text text-anchor="start" x="238.5" y="-171.45" font-family="Times New Roman,serif" font-weight="bold" font-size="9.00">Obesity I</text>
<polygon fill="none" stroke="black" points="289,-163 289,-195 357,-195 357,-163 289,-163"/>
<text text-anchor="start" x="296" y="-180.45" font-family="Times New Roman,serif" font-weight="bold" font-size="9.00">Overweight II</text>
<text text-anchor="start" x="302" y="-171.45" font-family="Times New Roman,serif" font-weight="bold" font-size="9.00">Obesity III</text>
<polygon fill="none" stroke="black" points="223,-162 223,-196 358,-196 358,-162 223,-162"/>
</g>
<!-- n_0_1_2_3_4_6&#45;&gt;n_2_3_4_6 -->
<g id="edge2" class="edge">
<title>n_0_1_2_3_4_6&#45;&gt;n_2_3_4_6</title>
<path fill="none" stroke="black" d="M352.27,-243.14C341.26,-231.89 328.69,-219.04 317.77,-207.88"/>
<polygon fill="black" stroke="black" points="320.36,-205.51 310.86,-200.81 315.35,-210.41 320.36,-205.51"/>
</g>
<!-- n_0_1 -->
<g id="node10" class="node">
<title>n_0_1</title>
<polygon fill="none" stroke="black" points="404.38,-166.38 404.38,-191.62 492.62,-191.62 492.62,-166.38 404.38,-166.38"/>
<text text-anchor="start" x="411.38" y="-177.07" font-family="Times New Roman,serif" font-weight="bold" font-size="9.00">Insufficient weight</text>
<polygon fill="none" stroke="black" points="492.62,-166.38 492.62,-191.62 536.62,-191.62 536.62,-166.38 492.62,-166.38"/>
<text text-anchor="start" x="499.62" y="-177.07" font-family="Times New Roman,serif" font-weight="bold" font-size="9.00">Normal</text>
<polygon fill="none" stroke="black" points="403.38,-165.38 403.38,-192.62 537.62,-192.62 537.62,-165.38 403.38,-165.38"/>
</g>
<!-- n_0_1_2_3_4_6&#45;&gt;n_0_1 -->
<g id="edge9" class="edge">
<title>n_0_1_2_3_4_6&#45;&gt;n_0_1</title>
<path fill="none" stroke="black" d="M408.73,-243.14C420.68,-230.93 434.46,-216.84 445.98,-205.07"/>
<polygon fill="black" stroke="black" points="448.35,-207.65 452.84,-198.05 443.35,-202.75 448.35,-207.65"/>
</g>
<!-- n_2_4 -->
<g id="node4" class="node">
<title>n_2_4</title>
<polygon fill="none" stroke="black" points="73,-84.38 73,-109.62 138,-109.62 138,-84.38 73,-84.38"/>
<text text-anchor="start" x="80" y="-95.08" font-family="Times New Roman,serif" font-weight="bold" font-size="9.00">Overweight I</text>
<polygon fill="none" stroke="black" points="138,-84.38 138,-109.62 188,-109.62 188,-84.38 138,-84.38"/>
<text text-anchor="start" x="145" y="-95.08" font-family="Times New Roman,serif" font-weight="bold" font-size="9.00">Obesity I</text>
<polygon fill="none" stroke="black" points="72,-83.38 72,-110.62 189,-110.62 189,-83.38 72,-83.38"/>
</g>
<!-- n_2_3_4_6&#45;&gt;n_2_4 -->
<g id="edge3" class="edge">
<title>n_2_3_4_6&#45;&gt;n_2_4</title>
<path fill="none" stroke="black" d="M250.54,-158.02C227.4,-146.45 198.24,-131.87 174.45,-119.97"/>
<polygon fill="black" stroke="black" points="176.14,-116.91 165.63,-115.57 173.01,-123.17 176.14,-116.91"/>
</g>
<!-- n_3_6 -->
<g id="node7" class="node">
<title>n_3_6</title>
<polygon fill="none" stroke="black" points="235.5,-84.38 235.5,-109.62 303.5,-109.62 303.5,-84.38 235.5,-84.38"/>
<text text-anchor="start" x="242.5" y="-95.08" font-family="Times New Roman,serif" font-weight="bold" font-size="9.00">Overweight II</text>
<polygon fill="none" stroke="black" points="303.5,-84.38 303.5,-109.62 359.5,-109.62 359.5,-84.38 303.5,-84.38"/>
<text text-anchor="start" x="310.5" y="-95.08" font-family="Times New Roman,serif" font-weight="bold" font-size="9.00">Obesity III</text>
<polygon fill="none" stroke="black" points="234.5,-83.38 234.5,-110.62 360.5,-110.62 360.5,-83.38 234.5,-83.38"/>
</g>
<!-- n_2_3_4_6&#45;&gt;n_3_6 -->
<g id="edge6" class="edge">
<title>n_2_3_4_6&#45;&gt;n_3_6</title>
<path fill="none" stroke="black" d="M292.23,-158.22C293.08,-148.54 294.11,-136.72 295.04,-126.11"/>
<polygon fill="black" stroke="black" points="298.51,-126.62 295.89,-116.35 291.54,-126.01 298.51,-126.62"/>
</g>
<!-- n_2 -->
<g id="node5" class="node">
<title>n_2</title>
<polygon fill="none" stroke="black" points="9,-5.38 9,-30.62 74,-30.62 74,-5.38 9,-5.38"/>
<text text-anchor="start" x="16" y="-16.07" font-family="Times New Roman,serif" font-weight="bold" font-size="9.00">Overweight I</text>
<polygon fill="none" stroke="black" points="8,-4.38 8,-31.62 75,-31.62 75,-4.38 8,-4.38"/>
</g>
<!-- n_2_4&#45;&gt;n_2 -->
<g id="edge4" class="edge">
<title>n_2_4&#45;&gt;n_2</title>
<path fill="none" stroke="black" d="M111.19,-79.29C99.03,-68.77 83.12,-55.01 69.58,-43.29"/>
<polygon fill="black" stroke="black" points="72.08,-40.83 62.23,-36.93 67.5,-46.12 72.08,-40.83"/>
</g>
<!-- n_4 -->
<g id="node6" class="node">
<title>n_4</title>
<polygon fill="none" stroke="black" points="121.5,-5.38 121.5,-30.62 171.5,-30.62 171.5,-5.38 121.5,-5.38"/>
<text text-anchor="start" x="128.5" y="-16.07" font-family="Times New Roman,serif" font-weight="bold" font-size="9.00">Obesity I</text>
<polygon fill="none" stroke="black" points="120.5,-4.38 120.5,-31.62 172.5,-31.62 172.5,-4.38 120.5,-4.38"/>
</g>
<!-- n_2_4&#45;&gt;n_4 -->
<g id="edge5" class="edge">
<title>n_2_4&#45;&gt;n_4</title>
<path fill="none" stroke="black" d="M133.97,-79.29C135.93,-69.87 138.43,-57.86 140.67,-47.04"/>
<polygon fill="black" stroke="black" points="144.06,-47.93 142.67,-37.42 137.21,-46.5 144.06,-47.93"/>
</g>
<!-- n_3 -->
<g id="node8" class="node">
<title>n_3</title>
<polygon fill="none" stroke="black" points="248.5,-5.38 248.5,-30.62 316.5,-30.62 316.5,-5.38 248.5,-5.38"/>
<text text-anchor="start" x="255.5" y="-16.07" font-family="Times New Roman,serif" font-weight="bold" font-size="9.00">Overweight II</text>
<polygon fill="none" stroke="black" points="247.5,-4.38 247.5,-31.62 317.5,-31.62 317.5,-4.38 247.5,-4.38"/>
</g>
<!-- n_3_6&#45;&gt;n_3 -->
<g id="edge7" class="edge">
<title>n_3_6&#45;&gt;n_3</title>
<path fill="none" stroke="black" d="M294.25,-79.29C292.41,-69.87 290.07,-57.86 287.96,-47.04"/>
<polygon fill="black" stroke="black" points="291.44,-46.57 286.09,-37.43 284.57,-47.91 291.44,-46.57"/>
</g>
<!-- n_6 -->
<g id="node9" class="node">
<title>n_6</title>
<polygon fill="none" stroke="black" points="363.5,-5.38 363.5,-30.62 419.5,-30.62 419.5,-5.38 363.5,-5.38"/>
<text text-anchor="start" x="370.5" y="-16.07" font-family="Times New Roman,serif" font-weight="bold" font-size="9.00">Obesity III</text>
<polygon fill="none" stroke="black" points="362.5,-4.38 362.5,-31.62 420.5,-31.62 420.5,-4.38 362.5,-4.38"/>
</g>
<!-- n_3_6&#45;&gt;n_6 -->
<g id="edge8" class="edge">
<title>n_3_6&#45;&gt;n_6</title>
<path fill="none" stroke="black" d="M317.9,-79.29C330.86,-68.67 347.86,-54.75 362.25,-42.96"/>
<polygon fill="black" stroke="black" points="364.13,-45.94 369.65,-36.9 359.69,-40.53 364.13,-45.94"/>
</g>
<!-- n_0 -->
<g id="node11" class="node">
<title>n_0</title>
<polygon fill="none" stroke="black" points="419.38,-84.38 419.38,-109.62 507.62,-109.62 507.62,-84.38 419.38,-84.38"/>
<text text-anchor="start" x="426.38" y="-95.08" font-family="Times New Roman,serif" font-weight="bold" font-size="9.00">Insufficient weight</text>
<polygon fill="none" stroke="black" points="418.38,-83.38 418.38,-110.62 508.62,-110.62 508.62,-83.38 418.38,-83.38"/>
</g>
<!-- n_0_1&#45;&gt;n_0 -->
<g id="edge10" class="edge">
<title>n_0_1&#45;&gt;n_0</title>
<path fill="none" stroke="black" d="M469.02,-161.03C468.13,-150.96 466.99,-137.92 465.98,-126.32"/>
<polygon fill="black" stroke="black" points="469.47,-126.11 465.11,-116.45 462.5,-126.72 469.47,-126.11"/>
</g>
<!-- n_1 -->
<g id="node12" class="node">
<title>n_1</title>
<polygon fill="none" stroke="black" points="554.5,-84.38 554.5,-109.62 598.5,-109.62 598.5,-84.38 554.5,-84.38"/>
<text text-anchor="start" x="561.5" y="-95.08" font-family="Times New Roman,serif" font-weight="bold" font-size="9.00">Normal</text>
<polygon fill="none" stroke="black" points="553.5,-83.38 553.5,-110.62 599.5,-110.62 599.5,-83.38 553.5,-83.38"/>
</g>
<!-- n_0_1&#45;&gt;n_1 -->
<g id="edge11" class="edge">
<title>n_0_1&#45;&gt;n_1</title>
<path fill="none" stroke="black" d="M492.98,-161.03C508.16,-149.58 528.4,-134.3 545.16,-121.66"/>
<polygon fill="black" stroke="black" points="546.97,-124.67 552.84,-115.85 542.75,-119.08 546.97,-124.67"/>
</g>
</g>
</svg>
