<?xml version="1.0" encoding="UTF-8" standalone="no"?>
<!DOCTYPE svg PUBLIC "-//W3C//DTD SVG 1.1//EN"
 "http://www.w3.org/Graphics/SVG/1.1/DTD/svg11.dtd">
<!-- Generated by graphviz version 10.0.1 (20240210.2158)
 -->
<!-- Title: ND Pages: 1 -->
<svg width="695pt" height="414pt"
 viewBox="0.00 0.00 694.50 414.00" xmlns="http://www.w3.org/2000/svg" xmlns:xlink="http://www.w3.org/1999/xlink">
<g id="graph0" class="graph" transform="scale(1 1) rotate(0) translate(4 410)">
<title>ND</title>
<polygon fill="white" stroke="none" points="-4,4 -4,-410 690.5,-410 690.5,4 -4,4"/>
<!-- n_0_1_2_3_4_5_6 -->
<g id="node1" class="node">
<title>n_0_1_2_3_4_5_6</title>
<polygon fill="none" stroke="black" points="357.88,-342 357.88,-401 422.88,-401 422.88,-342 357.88,-342"/>
<text text-anchor="start" x="375.38" y="-386.45" font-family="Times New Roman,serif" font-weight="bold" font-size="9.00">Normal</text>
<text text-anchor="start" x="364.88" y="-377.45" font-family="Times New Roman,serif" font-weight="bold" font-size="9.00">Overweight I</text>
<text text-anchor="start" x="372.38" y="-368.45" font-family="Times New Roman,serif" font-weight="bold" font-size="9.00">Obesity I</text>
<text text-anchor="start" x="370.88" y="-359.45" font-family="Times New Roman,serif" font-weight="bold" font-size="9.00">Obesity II</text>
<text text-anchor="start" x="369.38" y="-350.45" font-family="Times New Roman,serif" font-weight="bold" font-size="9.00">Obesity III</text>
<polygon fill="none" stroke="black" points="422.88,-342 422.88,-401 511.12,-401 511.12,-342 422.88,-342"/>
<text text-anchor="start" x="429.88" y="-372.95" font-family="Times New Roman,serif" font-weight="bold" font-size="9.00">Insufficient weight</text>
<text text-anchor="start" x="440" y="-363.95" font-family="Times New Roman,serif" font-weight="bold" font-size="9.00">Overweight II</text>
<polygon fill="none" stroke="black" points="356.88,-341 356.88,-402 512.12,-402 512.12,-341 356.88,-341"/>
</g>
<!-- n_1_2_4_5_6 -->
<g id="node2" class="node">
<title>n_1_2_4_5_6</title>
<polygon fill="none" stroke="black" points="281,-248 281,-289 337,-289 337,-248 281,-248"/>
<text text-anchor="start" x="294" y="-274.45" font-family="Times New Roman,serif" font-weight="bold" font-size="9.00">Normal</text>
<text text-anchor="start" x="289.5" y="-265.45" font-family="Times New Roman,serif" font-weight="bold" font-size="9.00">Obesity II</text>
<text text-anchor="start" x="288" y="-256.45" font-family="Times New Roman,serif" font-weight="bold" font-size="9.00">Obesity III</text>
<polygon fill="none" stroke="black" points="337,-248 337,-289 402,-289 402,-248 337,-248"/>
<text text-anchor="start" x="344" y="-269.95" font-family="Times New Roman,serif" font-weight="bold" font-size="9.00">Overweight I</text>
<text text-anchor="start" x="351.5" y="-260.95" font-family="Times New Roman,serif" font-weight="bold" font-size="9.00">Obesity I</text>
<polygon fill="none" stroke="black" points="280,-247 280,-290 403,-290 403,-247 280,-247"/>
</g>
<!-- n_0_1_2_3_4_5_6&#45;&gt;n_1_2_4_5_6 -->
<g id="edge1" class="edge">
<title>n_0_1_2_3_4_5_6&#45;&gt;n_1_2_4_5_6</title>
<path fill="none" stroke="black" d="M403.79,-337.15C393.42,-325.89 381.86,-313.33 371.54,-302.12"/>
<polygon fill="black" stroke="black" points="374.3,-299.96 364.96,-294.97 369.15,-304.7 374.3,-299.96"/>
</g>
<!-- n_0_3 -->
<g id="node11" class="node">
<title>n_0_3</title>
<polygon fill="none" stroke="black" points="449.38,-255.88 449.38,-281.12 537.62,-281.12 537.62,-255.88 449.38,-255.88"/>
<text text-anchor="start" x="456.38" y="-266.57" font-family="Times New Roman,serif" font-weight="bold" font-size="9.00">Insufficient weight</text>
<polygon fill="none" stroke="black" points="537.62,-255.88 537.62,-281.12 605.62,-281.12 605.62,-255.88 537.62,-255.88"/>
<text text-anchor="start" x="544.62" y="-266.57" font-family="Times New Roman,serif" font-weight="bold" font-size="9.00">Overweight II</text>
<polygon fill="none" stroke="black" points="448.38,-254.88 448.38,-282.12 606.62,-282.12 606.62,-254.88 448.38,-254.88"/>
</g>
<!-- n_0_1_2_3_4_5_6&#45;&gt;n_0_3 -->
<g id="edge10" class="edge">
<title>n_0_1_2_3_4_5_6&#45;&gt;n_0_3</title>
<path fill="none" stroke="black" d="M465.21,-337.15C477.93,-323.33 492.45,-307.57 504.26,-294.74"/>
<polygon fill="black" stroke="black" points="506.73,-297.22 510.93,-287.49 501.58,-292.48 506.73,-297.22"/>
</g>
<!-- n_1_5_6 -->
<g id="node3" class="node">
<title>n_1_5_6</title>
<polygon fill="none" stroke="black" points="146.5,-163 146.5,-195 202.5,-195 202.5,-163 146.5,-163"/>
<text text-anchor="start" x="155" y="-180.45" font-family="Times New Roman,serif" font-weight="bold" font-size="9.00">Obesity II</text>
<text text-anchor="start" x="153.5" y="-171.45" font-family="Times New Roman,serif" font-weight="bold" font-size="9.00">Obesity III</text>
<polygon fill="none" stroke="black" points="202.5,-163 202.5,-195 246.5,-195 246.5,-163 202.5,-163"/>
<text text-anchor="start" x="209.5" y="-177.07" font-family="Times New Roman,serif" font-weight="bold" font-size="9.00">Normal</text>
<polygon fill="none" stroke="black" points="145.5,-162 145.5,-196 247.5,-196 247.5,-162 145.5,-162"/>
</g>
<!-- n_1_2_4_5_6&#45;&gt;n_1_5_6 -->
<g id="edge2" class="edge">
<title>n_1_2_4_5_6&#45;&gt;n_1_5_6</title>
<path fill="none" stroke="black" d="M301.11,-243.13C281.75,-231.45 258.57,-217.46 238.96,-205.62"/>
<polygon fill="black" stroke="black" points="241.02,-202.78 230.65,-200.61 237.4,-208.77 241.02,-202.78"/>
</g>
<!-- n_2_4 -->
<g id="node8" class="node">
<title>n_2_4</title>
<polygon fill="none" stroke="black" points="294,-166.38 294,-191.62 359,-191.62 359,-166.38 294,-166.38"/>
<text text-anchor="start" x="301" y="-177.07" font-family="Times New Roman,serif" font-weight="bold" font-size="9.00">Overweight I</text>
<polygon fill="none" stroke="black" points="359,-166.38 359,-191.62 409,-191.62 409,-166.38 359,-166.38"/>
<text text-anchor="start" x="366" y="-177.07" font-family="Times New Roman,serif" font-weight="bold" font-size="9.00">Obesity I</text>
<polygon fill="none" stroke="black" points="293,-165.38 293,-192.62 410,-192.62 410,-165.38 293,-165.38"/>
</g>
<!-- n_1_2_4_5_6&#45;&gt;n_2_4 -->
<g id="edge7" class="edge">
<title>n_1_2_4_5_6&#45;&gt;n_2_4</title>
<path fill="none" stroke="black" d="M344.29,-243.13C345.52,-232.28 346.99,-219.45 348.28,-208.19"/>
<polygon fill="black" stroke="black" points="351.75,-208.61 349.41,-198.27 344.8,-207.81 351.75,-208.61"/>
</g>
<!-- n_5_6 -->
<g id="node4" class="node">
<title>n_5_6</title>
<polygon fill="none" stroke="black" points="32,-84.38 32,-109.62 85,-109.62 85,-84.38 32,-84.38"/>
<text text-anchor="start" x="39" y="-95.08" font-family="Times New Roman,serif" font-weight="bold" font-size="9.00">Obesity II</text>
<polygon fill="none" stroke="black" points="85,-84.38 85,-109.62 141,-109.62 141,-84.38 85,-84.38"/>
<text text-anchor="start" x="92" y="-95.08" font-family="Times New Roman,serif" font-weight="bold" font-size="9.00">Obesity III</text>
<polygon fill="none" stroke="black" points="31,-83.38 31,-110.62 142,-110.62 142,-83.38 31,-83.38"/>
</g>
<!-- n_1_5_6&#45;&gt;n_5_6 -->
<g id="edge3" class="edge">
<title>n_1_5_6&#45;&gt;n_5_6</title>
<path fill="none" stroke="black" d="M169.03,-158.02C153.71,-146.88 134.55,-132.94 118.55,-121.31"/>
<polygon fill="black" stroke="black" points="120.91,-118.7 110.77,-115.65 116.8,-124.36 120.91,-118.7"/>
</g>
<!-- n_1 -->
<g id="node7" class="node">
<title>n_1</title>
<polygon fill="none" stroke="black" points="188.5,-84.38 188.5,-109.62 232.5,-109.62 232.5,-84.38 188.5,-84.38"/>
<text text-anchor="start" x="195.5" y="-95.08" font-family="Times New Roman,serif" font-weight="bold" font-size="9.00">Normal</text>
<polygon fill="none" stroke="black" points="187.5,-83.38 187.5,-110.62 233.5,-110.62 233.5,-83.38 187.5,-83.38"/>
</g>
<!-- n_1_5_6&#45;&gt;n_1 -->
<g id="edge6" class="edge">
<title>n_1_5_6&#45;&gt;n_1</title>
<path fill="none" stroke="black" d="M199.96,-158.22C201.66,-148.54 203.72,-136.72 205.58,-126.11"/>
<polygon fill="black" stroke="black" points="209.02,-126.79 207.29,-116.33 202.12,-125.58 209.02,-126.79"/>
</g>
<!-- n_5 -->
<g id="node5" class="node">
<title>n_5</title>
<polygon fill="none" stroke="black" points="9,-5.38 9,-30.62 62,-30.62 62,-5.38 9,-5.38"/>
<text text-anchor="start" x="16" y="-16.07" font-family="Times New Roman,serif" font-weight="bold" font-size="9.00">Obesity II</text>
<polygon fill="none" stroke="black" points="8,-4.38 8,-31.62 63,-31.62 63,-4.38 8,-4.38"/>
</g>
<!-- n_5_6&#45;&gt;n_5 -->
<g id="edge4" class="edge">
<title>n_5_6&#45;&gt;n_5</title>
<path fill="none" stroke="black" d="M75.43,-79.29C68.86,-69.37 60.39,-56.57 52.93,-45.32"/>
<polygon fill="black" stroke="black" points="56,-43.61 47.56,-37.2 50.16,-47.47 56,-43.61"/>
</g>
<!-- n_6 -->
<g id="node6" class="node">
<title>n_6</title>
<polygon fill="none" stroke="black" points="109.5,-5.38 109.5,-30.62 165.5,-30.62 165.5,-5.38 109.5,-5.38"/>
<text text-anchor="start" x="116.5" y="-16.07" font-family="Times New Roman,serif" font-weight="bold" font-size="9.00">Obesity III</text>
<polygon fill="none" stroke="black" points="108.5,-4.38 108.5,-31.62 166.5,-31.62 166.5,-4.38 108.5,-4.38"/>
</g>
<!-- n_5_6&#45;&gt;n_6 -->
<g id="edge5" class="edge">
<title>n_5_6&#45;&gt;n_6</title>
<path fill="none" stroke="black" d="M97.57,-79.29C104.14,-69.37 112.61,-56.57 120.07,-45.32"/>
<polygon fill="black" stroke="black" points="122.84,-47.47 125.44,-37.2 117,-43.61 122.84,-47.47"/>
</g>
<!-- n_2 -->
<g id="node9" class="node">
<title>n_2</title>
<polygon fill="none" stroke="black" points="306,-84.38 306,-109.62 371,-109.62 371,-84.38 306,-84.38"/>
<text text-anchor="start" x="313" y="-95.08" font-family="Times New Roman,serif" font-weight="bold" font-size="9.00">Overweight I</text>
<polygon fill="none" stroke="black" points="305,-83.38 305,-110.62 372,-110.62 372,-83.38 305,-83.38"/>
</g>
<!-- n_2_4&#45;&gt;n_2 -->
<g id="edge8" class="edge">
<title>n_2_4&#45;&gt;n_2</title>
<path fill="none" stroke="black" d="M348.74,-161.03C347.09,-150.85 344.94,-137.65 343.04,-125.96"/>
<polygon fill="black" stroke="black" points="346.55,-125.74 341.5,-116.44 339.65,-126.87 346.55,-125.74"/>
</g>
<!-- n_4 -->
<g id="node10" class="node">
<title>n_4</title>
<polygon fill="none" stroke="black" points="418.5,-84.38 418.5,-109.62 468.5,-109.62 468.5,-84.38 418.5,-84.38"/>
<text text-anchor="start" x="425.5" y="-95.08" font-family="Times New Roman,serif" font-weight="bold" font-size="9.00">Obesity I</text>
<polygon fill="none" stroke="black" points="417.5,-83.38 417.5,-110.62 469.5,-110.62 469.5,-83.38 417.5,-83.38"/>
</g>
<!-- n_2_4&#45;&gt;n_4 -->
<g id="edge9" class="edge">
<title>n_2_4&#45;&gt;n_4</title>
<path fill="none" stroke="black" d="M371.01,-161.03C383.94,-149.79 401.1,-134.87 415.49,-122.36"/>
<polygon fill="black" stroke="black" points="417.63,-125.14 422.88,-115.93 413.03,-119.86 417.63,-125.14"/>
</g>
<!-- n_0 -->
<g id="node12" class="node">
<title>n_0</title>
<polygon fill="none" stroke="black" points="474.38,-166.38 474.38,-191.62 562.62,-191.62 562.62,-166.38 474.38,-166.38"/>
<text text-anchor="start" x="481.38" y="-177.07" font-family="Times New Roman,serif" font-weight="bold" font-size="9.00">Insufficient weight</text>
<polygon fill="none" stroke="black" points="473.38,-165.38 473.38,-192.62 563.62,-192.62 563.62,-165.38 473.38,-165.38"/>
</g>
<!-- n_0_3&#45;&gt;n_0 -->
<g id="edge11" class="edge">
<title>n_0_3&#45;&gt;n_0</title>
<path fill="none" stroke="black" d="M525.76,-250.63C524.52,-238.52 522.81,-221.94 521.37,-207.88"/>
<polygon fill="black" stroke="black" points="524.89,-207.91 520.38,-198.32 517.93,-208.63 524.89,-207.91"/>
</g>
<!-- n_3 -->
<g id="node13" class="node">
<title>n_3</title>
<polygon fill="none" stroke="black" points="609.5,-166.38 609.5,-191.62 677.5,-191.62 677.5,-166.38 609.5,-166.38"/>
<text text-anchor="start" x="616.5" y="-177.07" font-family="Times New Roman,serif" font-weight="bold" font-size="9.00">Overweight II</text>
<polygon fill="none" stroke="black" points="608.5,-165.38 608.5,-192.62 678.5,-192.62 678.5,-165.38 608.5,-165.38"/>
</g>
<!-- n_0_3&#45;&gt;n_3 -->
<g id="edge12" class="edge">
<title>n_0_3&#45;&gt;n_3</title>
<path fill="none" stroke="black" d="M549.87,-250.63C567.52,-237.31 592.36,-218.57 612.02,-203.74"/>
<polygon fill="black" stroke="black" points="614.12,-206.55 619.99,-197.73 609.9,-200.96 614.12,-206.55"/>
</g>
</g>
</svg>
