<?xml version="1.0" encoding="UTF-8" standalone="no"?>
<!DOCTYPE svg PUBLIC "-//W3C//DTD SVG 1.1//EN"
 "http://www.w3.org/Graphics/SVG/1.1/DTD/svg11.dtd">
<!-- Generated by graphviz version 10.0.1 (20240210.2158)
 -->
<!-- Title: ND Pages: 1 -->
<svg width="551pt" height="544pt"
 viewBox="0.00 0.00 551.12 544.00" xmlns="http://www.w3.org/2000/svg" xmlns:xlink="http://www.w3.org/1999/xlink">
<g id="graph0" class="graph" transform="scale(1 1) rotate(0) translate(4 540)">
<title>ND</title>
<polygon fill="white" stroke="none" points="-4,4 -4,-540 547.12,-540 547.12,4 -4,4"/>
<!-- n_0_1_2_3_4_5_6 -->
<g id="node1" class="node">
<title>n_0_1_2_3_4_5_6</title>
<polygon fill="none" stroke="black" points="336.88,-463 336.88,-531 404.88,-531 404.88,-463 336.88,-463"/>
<text text-anchor="start" x="355.88" y="-516.45" font-family="Times New Roman,serif" font-weight="bold" font-size="9.00">Normal</text>
<text text-anchor="start" x="345.38" y="-507.45" font-family="Times New Roman,serif" font-weight="bold" font-size="9.00">Overweight I</text>
<text text-anchor="start" x="343.88" y="-498.45" font-family="Times New Roman,serif" font-weight="bold" font-size="9.00">Overweight II</text>
<text text-anchor="start" x="352.88" y="-489.45" font-family="Times New Roman,serif" font-weight="bold" font-size="9.00">Obesity I</text>
<text text-anchor="start" x="351.38" y="-480.45" font-family="Times New Roman,serif" font-weight="bold" font-size="9.00">Obesity II</text>
<text text-anchor="start" x="349.88" y="-471.45" font-family="Times New Roman,serif" font-weight="bold" font-size="9.00">Obesity III</text>
<polygon fill="none" stroke="black" points="404.88,-463 404.88,-531 493.12,-531 493.12,-463 404.88,-463"/>
<text text-anchor="start" x="411.88" y="-495.07" font-family="Times New Roman,serif" font-weight="bold" font-size="9.00">Insufficient weight</text>
<polygon fill="none" stroke="black" points="335.88,-462 335.88,-532 494.12,-532 494.12,-462 335.88,-462"/>
</g>
<!-- n_1_2_3_4_5_6 -->
<g id="node2" class="node">
<title>n_1_2_3_4_5_6</title>
<polygon fill="none" stroke="black" points="281,-351 281,-410 349,-410 349,-351 281,-351"/>
<text text-anchor="start" x="300" y="-395.45" font-family="Times New Roman,serif" font-weight="bold" font-size="9.00">Normal</text>
<text text-anchor="start" x="289.5" y="-386.45" font-family="Times New Roman,serif" font-weight="bold" font-size="9.00">Overweight I</text>
<text text-anchor="start" x="288" y="-377.45" font-family="Times New Roman,serif" font-weight="bold" font-size="9.00">Overweight II</text>
<text text-anchor="start" x="295.5" y="-368.45" font-family="Times New Roman,serif" font-weight="bold" font-size="9.00">Obesity II</text>
<text text-anchor="start" x="294" y="-359.45" font-family="Times New Roman,serif" font-weight="bold" font-size="9.00">Obesity III</text>
<polygon fill="none" stroke="black" points="349,-351 349,-410 399,-410 399,-351 349,-351"/>
<text text-anchor="start" x="356" y="-378.57" font-family="Times New Roman,serif" font-weight="bold" font-size="9.00">Obesity I</text>
<polygon fill="none" stroke="black" points="280,-350 280,-411 400,-411 400,-350 280,-350"/>
</g>
<!-- n_0_1_2_3_4_5_6&#45;&gt;n_1_2_3_4_5_6 -->
<g id="edge1" class="edge">
<title>n_0_1_2_3_4_5_6&#45;&gt;n_1_2_3_4_5_6</title>
<path fill="none" stroke="black" d="M390.23,-458.19C383.11,-447.31 375.28,-435.36 367.97,-424.21"/>
<polygon fill="black" stroke="black" points="370.95,-422.37 362.54,-415.92 365.1,-426.2 370.95,-422.37"/>
</g>
<!-- n_0 -->
<g id="node13" class="node">
<title>n_0</title>
<polygon fill="none" stroke="black" points="445.88,-367.88 445.88,-393.12 534.12,-393.12 534.12,-367.88 445.88,-367.88"/>
<text text-anchor="start" x="452.88" y="-378.57" font-family="Times New Roman,serif" font-weight="bold" font-size="9.00">Insufficient weight</text>
<polygon fill="none" stroke="black" points="444.88,-366.88 444.88,-394.12 535.12,-394.12 535.12,-366.88 444.88,-366.88"/>
</g>
<!-- n_0_1_2_3_4_5_6&#45;&gt;n_0 -->
<g id="edge12" class="edge">
<title>n_0_1_2_3_4_5_6&#45;&gt;n_0</title>
<path fill="none" stroke="black" d="M439.77,-458.19C450.51,-441.78 462.84,-422.96 472.6,-408.07"/>
<polygon fill="black" stroke="black" points="475.51,-410.01 478.06,-399.73 469.65,-406.18 475.51,-410.01"/>
</g>
<!-- n_1_2_3_5_6 -->
<g id="node3" class="node">
<title>n_1_2_3_5_6</title>
<polygon fill="none" stroke="black" points="204.5,-248 204.5,-298 272.5,-298 272.5,-248 204.5,-248"/>
<text text-anchor="start" x="223.5" y="-283.45" font-family="Times New Roman,serif" font-weight="bold" font-size="9.00">Normal</text>
<text text-anchor="start" x="211.5" y="-274.45" font-family="Times New Roman,serif" font-weight="bold" font-size="9.00">Overweight II</text>
<text text-anchor="start" x="219" y="-265.45" font-family="Times New Roman,serif" font-weight="bold" font-size="9.00">Obesity II</text>
<text text-anchor="start" x="217.5" y="-256.45" font-family="Times New Roman,serif" font-weight="bold" font-size="9.00">Obesity III</text>
<polygon fill="none" stroke="black" points="272.5,-248 272.5,-298 337.5,-298 337.5,-248 272.5,-248"/>
<text text-anchor="start" x="279.5" y="-271.07" font-family="Times New Roman,serif" font-weight="bold" font-size="9.00">Overweight I</text>
<polygon fill="none" stroke="black" points="203.5,-247 203.5,-299 338.5,-299 338.5,-247 203.5,-247"/>
</g>
<!-- n_1_2_3_4_5_6&#45;&gt;n_1_2_3_5_6 -->
<g id="edge2" class="edge">
<title>n_1_2_3_4_5_6&#45;&gt;n_1_2_3_5_6</title>
<path fill="none" stroke="black" d="M318.17,-346.12C311.14,-335.38 303.31,-323.4 296.07,-312.33"/>
<polygon fill="black" stroke="black" points="299.13,-310.62 290.73,-304.16 293.27,-314.45 299.13,-310.62"/>
</g>
<!-- n_4 -->
<g id="node12" class="node">
<title>n_4</title>
<polygon fill="none" stroke="black" points="385,-260.38 385,-285.62 435,-285.62 435,-260.38 385,-260.38"/>
<text text-anchor="start" x="392" y="-271.07" font-family="Times New Roman,serif" font-weight="bold" font-size="9.00">Obesity I</text>
<polygon fill="none" stroke="black" points="384,-259.38 384,-286.62 436,-286.62 436,-259.38 384,-259.38"/>
</g>
<!-- n_1_2_3_4_5_6&#45;&gt;n_4 -->
<g id="edge11" class="edge">
<title>n_1_2_3_4_5_6&#45;&gt;n_4</title>
<path fill="none" stroke="black" d="M362.15,-346.12C371.95,-331.35 383.31,-314.23 392.5,-300.38"/>
<polygon fill="black" stroke="black" points="395.3,-302.48 397.92,-292.21 389.47,-298.61 395.3,-302.48"/>
</g>
<!-- n_1_3_5_6 -->
<g id="node4" class="node">
<title>n_1_3_5_6</title>
<polygon fill="none" stroke="black" points="138,-163 138,-195 206,-195 206,-163 138,-163"/>
<text text-anchor="start" x="157" y="-180.45" font-family="Times New Roman,serif" font-weight="bold" font-size="9.00">Normal</text>
<text text-anchor="start" x="145" y="-171.45" font-family="Times New Roman,serif" font-weight="bold" font-size="9.00">Overweight II</text>
<polygon fill="none" stroke="black" points="206,-163 206,-195 262,-195 262,-163 206,-163"/>
<text text-anchor="start" x="214.5" y="-180.45" font-family="Times New Roman,serif" font-weight="bold" font-size="9.00">Obesity II</text>
<text text-anchor="start" x="213" y="-171.45" font-family="Times New Roman,serif" font-weight="bold" font-size="9.00">Obesity III</text>
<polygon fill="none" stroke="black" points="137,-162 137,-196 263,-196 263,-162 137,-162"/>
</g>
<!-- n_1_2_3_5_6&#45;&gt;n_1_3_5_6 -->
<g id="edge3" class="edge">
<title>n_1_2_3_5_6&#45;&gt;n_1_3_5_6</title>
<path fill="none" stroke="black" d="M248.73,-243.14C240.22,-232.11 230.52,-219.54 222.02,-208.54"/>
<polygon fill="black" stroke="black" points="225.03,-206.71 216.15,-200.93 219.49,-210.98 225.03,-206.71"/>
</g>
<!-- n_2 -->
<g id="node11" class="node">
<title>n_2</title>
<polygon fill="none" stroke="black" points="309.5,-166.38 309.5,-191.62 374.5,-191.62 374.5,-166.38 309.5,-166.38"/>
<text text-anchor="start" x="316.5" y="-177.07" font-family="Times New Roman,serif" font-weight="bold" font-size="9.00">Overweight I</text>
<polygon fill="none" stroke="black" points="308.5,-165.38 308.5,-192.62 375.5,-192.62 375.5,-165.38 308.5,-165.38"/>
</g>
<!-- n_1_2_3_5_6&#45;&gt;n_2 -->
<g id="edge10" class="edge">
<title>n_1_2_3_5_6&#45;&gt;n_2</title>
<path fill="none" stroke="black" d="M293.27,-243.14C302.51,-231.17 313.15,-217.38 322.12,-205.76"/>
<polygon fill="black" stroke="black" points="324.64,-208.22 327.98,-198.17 319.1,-203.94 324.64,-208.22"/>
</g>
<!-- n_1_3 -->
<g id="node5" class="node">
<title>n_1_3</title>
<polygon fill="none" stroke="black" points="65,-84.38 65,-109.62 109,-109.62 109,-84.38 65,-84.38"/>
<text text-anchor="start" x="72" y="-95.08" font-family="Times New Roman,serif" font-weight="bold" font-size="9.00">Normal</text>
<polygon fill="none" stroke="black" points="109,-84.38 109,-109.62 177,-109.62 177,-84.38 109,-84.38"/>
<text text-anchor="start" x="116" y="-95.08" font-family="Times New Roman,serif" font-weight="bold" font-size="9.00">Overweight II</text>
<polygon fill="none" stroke="black" points="64,-83.38 64,-110.62 178,-110.62 178,-83.38 64,-83.38"/>
</g>
<!-- n_1_3_5_6&#45;&gt;n_1_3 -->
<g id="edge4" class="edge">
<title>n_1_3_5_6&#45;&gt;n_1_3</title>
<path fill="none" stroke="black" d="M180.47,-158.22C169.88,-147.5 156.7,-134.15 145.43,-122.74"/>
<polygon fill="black" stroke="black" points="148.21,-120.58 138.7,-115.92 143.23,-125.5 148.21,-120.58"/>
</g>
<!-- n_5_6 -->
<g id="node8" class="node">
<title>n_5_6</title>
<polygon fill="none" stroke="black" points="224.5,-84.38 224.5,-109.62 277.5,-109.62 277.5,-84.38 224.5,-84.38"/>
<text text-anchor="start" x="231.5" y="-95.08" font-family="Times New Roman,serif" font-weight="bold" font-size="9.00">Obesity II</text>
<polygon fill="none" stroke="black" points="277.5,-84.38 277.5,-109.62 333.5,-109.62 333.5,-84.38 277.5,-84.38"/>
<text text-anchor="start" x="284.5" y="-95.08" font-family="Times New Roman,serif" font-weight="bold" font-size="9.00">Obesity III</text>
<polygon fill="none" stroke="black" points="223.5,-83.38 223.5,-110.62 334.5,-110.62 334.5,-83.38 223.5,-83.38"/>
</g>
<!-- n_1_3_5_6&#45;&gt;n_5_6 -->
<g id="edge7" class="edge">
<title>n_1_3_5_6&#45;&gt;n_5_6</title>
<path fill="none" stroke="black" d="M219.53,-158.22C230.12,-147.5 243.3,-134.15 254.57,-122.74"/>
<polygon fill="black" stroke="black" points="256.77,-125.5 261.3,-115.92 251.79,-120.58 256.77,-125.5"/>
</g>
<!-- n_1 -->
<g id="node6" class="node">
<title>n_1</title>
<polygon fill="none" stroke="black" points="9,-5.38 9,-30.62 53,-30.62 53,-5.38 9,-5.38"/>
<text text-anchor="start" x="16" y="-16.07" font-family="Times New Roman,serif" font-weight="bold" font-size="9.00">Normal</text>
<polygon fill="none" stroke="black" points="8,-4.38 8,-31.62 54,-31.62 54,-4.38 8,-4.38"/>
</g>
<!-- n_1_3&#45;&gt;n_1 -->
<g id="edge5" class="edge">
<title>n_1_3&#45;&gt;n_1</title>
<path fill="none" stroke="black" d="M101.47,-79.29C89.17,-68.77 73.09,-55.01 59.39,-43.29"/>
<polygon fill="black" stroke="black" points="61.83,-40.77 51.95,-36.93 57.27,-46.09 61.83,-40.77"/>
</g>
<!-- n_3 -->
<g id="node7" class="node">
<title>n_3</title>
<polygon fill="none" stroke="black" points="100,-5.38 100,-30.62 168,-30.62 168,-5.38 100,-5.38"/>
<text text-anchor="start" x="107" y="-16.07" font-family="Times New Roman,serif" font-weight="bold" font-size="9.00">Overweight II</text>
<polygon fill="none" stroke="black" points="99,-4.38 99,-31.62 169,-31.62 169,-4.38 99,-4.38"/>
</g>
<!-- n_1_3&#45;&gt;n_3 -->
<g id="edge6" class="edge">
<title>n_1_3&#45;&gt;n_3</title>
<path fill="none" stroke="black" d="M123.82,-79.29C125.41,-69.87 127.44,-57.86 129.27,-47.04"/>
<polygon fill="black" stroke="black" points="132.67,-47.88 130.89,-37.43 125.77,-46.71 132.67,-47.88"/>
</g>
<!-- n_5 -->
<g id="node9" class="node">
<title>n_5</title>
<polygon fill="none" stroke="black" points="240.5,-5.38 240.5,-30.62 293.5,-30.62 293.5,-5.38 240.5,-5.38"/>
<text text-anchor="start" x="247.5" y="-16.07" font-family="Times New Roman,serif" font-weight="bold" font-size="9.00">Obesity II</text>
<polygon fill="none" stroke="black" points="239.5,-4.38 239.5,-31.62 294.5,-31.62 294.5,-4.38 239.5,-4.38"/>
</g>
<!-- n_5_6&#45;&gt;n_5 -->
<g id="edge8" class="edge">
<title>n_5_6&#45;&gt;n_5</title>
<path fill="none" stroke="black" d="M276.4,-79.29C274.93,-69.87 273.06,-57.86 271.37,-47.04"/>
<polygon fill="black" stroke="black" points="274.87,-46.78 269.87,-37.44 267.95,-47.86 274.87,-46.78"/>
</g>
<!-- n_6 -->
<g id="node10" class="node">
<title>n_6</title>
<polygon fill="none" stroke="black" points="341,-5.38 341,-30.62 397,-30.62 397,-5.38 341,-5.38"/>
<text text-anchor="start" x="348" y="-16.07" font-family="Times New Roman,serif" font-weight="bold" font-size="9.00">Obesity III</text>
<polygon fill="none" stroke="black" points="340,-4.38 340,-31.62 398,-31.62 398,-4.38 340,-4.38"/>
</g>
<!-- n_5_6&#45;&gt;n_6 -->
<g id="edge9" class="edge">
<title>n_5_6&#45;&gt;n_6</title>
<path fill="none" stroke="black" d="M298.53,-79.29C310.83,-68.77 326.91,-55.01 340.61,-43.29"/>
<polygon fill="black" stroke="black" points="342.73,-46.09 348.05,-36.93 338.17,-40.77 342.73,-46.09"/>
</g>
</g>
</svg>
