<?xml version="1.0" encoding="UTF-8" standalone="no"?>
<!DOCTYPE svg PUBLIC "-//W3C//DTD SVG 1.1//EN"
 "http://www.w3.org/Graphics/SVG/1.1/DTD/svg11.dtd">
<!-- Generated by graphviz version 10.0.1 (20240210.2158)
 -->
<!-- Title: ND Pages: 1 -->
<svg width="686pt" height="311pt"
 viewBox="0.00 0.00 686.12 311.00" xmlns="http://www.w3.org/2000/svg" xmlns:xlink="http://www.w3.org/1999/xlink">
<g id="graph0" class="graph" transform="scale(1 1) rotate(0) translate(4 307)">
<title>ND</title>
<polygon fill="white" stroke="none" points="-4,4 -4,-307 682.12,-307 682.12,4 -4,4"/>
<!-- n_0_1_2_3_4_5_6 -->
<g id="node1" class="node">
<title>n_0_1_2_3_4_5_6</title>
<polygon fill="none" stroke="black" points="354.5,-248 354.5,-298 442.75,-298 442.75,-248 354.5,-248"/>
<text text-anchor="start" x="361.5" y="-283.45" font-family="Times New Roman,serif" font-weight="bold" font-size="9.00">Insufficient weight</text>
<text text-anchor="start" x="371.62" y="-274.45" font-family="Times New Roman,serif" font-weight="bold" font-size="9.00">Overweight II</text>
<text text-anchor="start" x="380.62" y="-265.45" font-family="Times New Roman,serif" font-weight="bold" font-size="9.00">Obesity I</text>
<text text-anchor="start" x="377.62" y="-256.45" font-family="Times New Roman,serif" font-weight="bold" font-size="9.00">Obesity III</text>
<polygon fill="none" stroke="black" points="442.75,-248 442.75,-298 507.75,-298 507.75,-248 442.75,-248"/>
<text text-anchor="start" x="460.25" y="-278.95" font-family="Times New Roman,serif" font-weight="bold" font-size="9.00">Normal</text>
<text text-anchor="start" x="449.75" y="-269.95" font-family="Times New Roman,serif" font-weight="bold" font-size="9.00">Overweight I</text>
<text text-anchor="start" x="455.75" y="-260.95" font-family="Times New Roman,serif" font-weight="bold" font-size="9.00">Obesity II</text>
<polygon fill="none" stroke="black" points="353.5,-247 353.5,-299 508.75,-299 508.75,-247 353.5,-247"/>
</g>
<!-- n_0_3_4_6 -->
<g id="node2" class="node">
<title>n_0_3_4_6</title>
<polygon fill="none" stroke="black" points="263,-163 263,-195 351.25,-195 351.25,-163 263,-163"/>
<text text-anchor="start" x="270" y="-180.45" font-family="Times New Roman,serif" font-weight="bold" font-size="9.00">Insufficient weight</text>
<text text-anchor="start" x="289.12" y="-171.45" font-family="Times New Roman,serif" font-weight="bold" font-size="9.00">Obesity I</text>
<polygon fill="none" stroke="black" points="351.25,-163 351.25,-195 419.25,-195 419.25,-163 351.25,-163"/>
<text text-anchor="start" x="358.25" y="-180.45" font-family="Times New Roman,serif" font-weight="bold" font-size="9.00">Overweight II</text>
<text text-anchor="start" x="364.25" y="-171.45" font-family="Times New Roman,serif" font-weight="bold" font-size="9.00">Obesity III</text>
<polygon fill="none" stroke="black" points="262,-162 262,-196 420.25,-196 420.25,-162 262,-162"/>
</g>
<!-- n_0_1_2_3_4_5_6&#45;&gt;n_0_3_4_6 -->
<g id="edge1" class="edge">
<title>n_0_1_2_3_4_5_6&#45;&gt;n_0_3_4_6</title>
<path fill="none" stroke="black" d="M402.9,-243.14C391.89,-231.89 379.31,-219.04 368.4,-207.88"/>
<polygon fill="black" stroke="black" points="370.98,-205.51 361.49,-200.81 365.98,-210.41 370.98,-205.51"/>
</g>
<!-- n_1_2_5 -->
<g id="node9" class="node">
<title>n_1_2_5</title>
<polygon fill="none" stroke="black" points="466.62,-163 466.62,-195 531.62,-195 531.62,-163 466.62,-163"/>
<text text-anchor="start" x="473.62" y="-180.45" font-family="Times New Roman,serif" font-weight="bold" font-size="9.00">Overweight I</text>
<text text-anchor="start" x="479.62" y="-171.45" font-family="Times New Roman,serif" font-weight="bold" font-size="9.00">Obesity II</text>
<polygon fill="none" stroke="black" points="531.62,-163 531.62,-195 575.62,-195 575.62,-163 531.62,-163"/>
<text text-anchor="start" x="538.62" y="-177.07" font-family="Times New Roman,serif" font-weight="bold" font-size="9.00">Normal</text>
<polygon fill="none" stroke="black" points="465.62,-162 465.62,-196 576.62,-196 576.62,-162 465.62,-162"/>
</g>
<!-- n_0_1_2_3_4_5_6&#45;&gt;n_1_2_5 -->
<g id="edge8" class="edge">
<title>n_0_1_2_3_4_5_6&#45;&gt;n_1_2_5</title>
<path fill="none" stroke="black" d="M459.35,-243.14C470.36,-231.89 482.94,-219.04 493.85,-207.88"/>
<polygon fill="black" stroke="black" points="496.27,-210.41 500.76,-200.81 491.27,-205.51 496.27,-210.41"/>
</g>
<!-- n_0_4 -->
<g id="node3" class="node">
<title>n_0_4</title>
<polygon fill="none" stroke="black" points="98,-84.38 98,-109.62 186.25,-109.62 186.25,-84.38 98,-84.38"/>
<text text-anchor="start" x="105" y="-95.08" font-family="Times New Roman,serif" font-weight="bold" font-size="9.00">Insufficient weight</text>
<polygon fill="none" stroke="black" points="186.25,-84.38 186.25,-109.62 236.25,-109.62 236.25,-84.38 186.25,-84.38"/>
<text text-anchor="start" x="193.25" y="-95.08" font-family="Times New Roman,serif" font-weight="bold" font-size="9.00">Obesity I</text>
<polygon fill="none" stroke="black" points="97,-83.38 97,-110.62 237.25,-110.62 237.25,-83.38 97,-83.38"/>
</g>
<!-- n_0_3_4_6&#45;&gt;n_0_4 -->
<g id="edge2" class="edge">
<title>n_0_3_4_6&#45;&gt;n_0_4</title>
<path fill="none" stroke="black" d="M297.67,-158.02C272.28,-146.34 240.22,-131.61 214.23,-119.66"/>
<polygon fill="black" stroke="black" points="215.78,-116.52 205.24,-115.52 212.86,-122.88 215.78,-116.52"/>
</g>
<!-- n_3_6 -->
<g id="node6" class="node">
<title>n_3_6</title>
<polygon fill="none" stroke="black" points="283.12,-84.38 283.12,-109.62 351.12,-109.62 351.12,-84.38 283.12,-84.38"/>
<text text-anchor="start" x="290.12" y="-95.08" font-family="Times New Roman,serif" font-weight="bold" font-size="9.00">Overweight II</text>
<polygon fill="none" stroke="black" points="351.12,-84.38 351.12,-109.62 407.12,-109.62 407.12,-84.38 351.12,-84.38"/>
<text text-anchor="start" x="358.12" y="-95.08" font-family="Times New Roman,serif" font-weight="bold" font-size="9.00">Obesity III</text>
<polygon fill="none" stroke="black" points="282.12,-83.38 282.12,-110.62 408.12,-110.62 408.12,-83.38 282.12,-83.38"/>
</g>
<!-- n_0_3_4_6&#45;&gt;n_3_6 -->
<g id="edge5" class="edge">
<title>n_0_3_4_6&#45;&gt;n_3_6</title>
<path fill="none" stroke="black" d="M342.11,-158.22C342.6,-148.54 343.19,-136.72 343.72,-126.11"/>
<polygon fill="black" stroke="black" points="347.2,-126.52 344.21,-116.36 340.21,-126.17 347.2,-126.52"/>
</g>
<!-- n_0 -->
<g id="node4" class="node">
<title>n_0</title>
<polygon fill="none" stroke="black" points="9,-5.38 9,-30.62 97.25,-30.62 97.25,-5.38 9,-5.38"/>
<text text-anchor="start" x="16" y="-16.07" font-family="Times New Roman,serif" font-weight="bold" font-size="9.00">Insufficient weight</text>
<polygon fill="none" stroke="black" points="8,-4.38 8,-31.62 98.25,-31.62 98.25,-4.38 8,-4.38"/>
</g>
<!-- n_0_4&#45;&gt;n_0 -->
<g id="edge3" class="edge">
<title>n_0_4&#45;&gt;n_0</title>
<path fill="none" stroke="black" d="M142.11,-79.1C126.07,-68.27 105.04,-54.06 87.45,-42.18"/>
<polygon fill="black" stroke="black" points="89.58,-39.4 79.34,-36.71 85.67,-45.2 89.58,-39.4"/>
</g>
<!-- n_4 -->
<g id="node5" class="node">
<title>n_4</title>
<polygon fill="none" stroke="black" points="144.12,-5.38 144.12,-30.62 194.12,-30.62 194.12,-5.38 144.12,-5.38"/>
<text text-anchor="start" x="151.12" y="-16.07" font-family="Times New Roman,serif" font-weight="bold" font-size="9.00">Obesity I</text>
<polygon fill="none" stroke="black" points="143.12,-4.38 143.12,-31.62 195.12,-31.62 195.12,-4.38 143.12,-4.38"/>
</g>
<!-- n_0_4&#45;&gt;n_4 -->
<g id="edge4" class="edge">
<title>n_0_4&#45;&gt;n_4</title>
<path fill="none" stroke="black" d="M167.56,-79.29C167.8,-69.97 168.11,-58.11 168.39,-47.38"/>
<polygon fill="black" stroke="black" points="171.88,-47.54 168.65,-37.45 164.89,-47.36 171.88,-47.54"/>
</g>
<!-- n_3 -->
<g id="node7" class="node">
<title>n_3</title>
<polygon fill="none" stroke="black" points="258.12,-5.38 258.12,-30.62 326.12,-30.62 326.12,-5.38 258.12,-5.38"/>
<text text-anchor="start" x="265.12" y="-16.07" font-family="Times New Roman,serif" font-weight="bold" font-size="9.00">Overweight II</text>
<polygon fill="none" stroke="black" points="257.12,-4.38 257.12,-31.62 327.12,-31.62 327.12,-4.38 257.12,-4.38"/>
</g>
<!-- n_3_6&#45;&gt;n_3 -->
<g id="edge6" class="edge">
<title>n_3_6&#45;&gt;n_3</title>
<path fill="none" stroke="black" d="M333.62,-79.29C326.8,-69.37 317.99,-56.57 310.24,-45.32"/>
<polygon fill="black" stroke="black" points="313.2,-43.44 304.64,-37.19 307.43,-47.41 313.2,-43.44"/>
</g>
<!-- n_6 -->
<g id="node8" class="node">
<title>n_6</title>
<polygon fill="none" stroke="black" points="373.12,-5.38 373.12,-30.62 429.12,-30.62 429.12,-5.38 373.12,-5.38"/>
<text text-anchor="start" x="380.12" y="-16.07" font-family="Times New Roman,serif" font-weight="bold" font-size="9.00">Obesity III</text>
<polygon fill="none" stroke="black" points="372.12,-4.38 372.12,-31.62 430.12,-31.62 430.12,-4.38 372.12,-4.38"/>
</g>
<!-- n_3_6&#45;&gt;n_6 -->
<g id="edge7" class="edge">
<title>n_3_6&#45;&gt;n_6</title>
<path fill="none" stroke="black" d="M357.28,-79.29C364.56,-69.27 373.99,-56.31 382.23,-44.98"/>
<polygon fill="black" stroke="black" points="384.86,-47.31 387.91,-37.17 379.2,-43.19 384.86,-47.31"/>
</g>
<!-- n_2_5 -->
<g id="node10" class="node">
<title>n_2_5</title>
<polygon fill="none" stroke="black" points="460.12,-84.38 460.12,-109.62 525.12,-109.62 525.12,-84.38 460.12,-84.38"/>
<text text-anchor="start" x="467.12" y="-95.08" font-family="Times New Roman,serif" font-weight="bold" font-size="9.00">Overweight I</text>
<polygon fill="none" stroke="black" points="525.12,-84.38 525.12,-109.62 578.12,-109.62 578.12,-84.38 525.12,-84.38"/>
<text text-anchor="start" x="532.12" y="-95.08" font-family="Times New Roman,serif" font-weight="bold" font-size="9.00">Obesity II</text>
<polygon fill="none" stroke="black" points="459.12,-83.38 459.12,-110.62 579.12,-110.62 579.12,-83.38 459.12,-83.38"/>
</g>
<!-- n_1_2_5&#45;&gt;n_2_5 -->
<g id="edge9" class="edge">
<title>n_1_2_5&#45;&gt;n_2_5</title>
<path fill="none" stroke="black" d="M520.63,-158.22C520.39,-148.54 520.09,-136.72 519.83,-126.11"/>
<polygon fill="black" stroke="black" points="523.33,-126.27 519.58,-116.36 516.34,-126.44 523.33,-126.27"/>
</g>
<!-- n_1 -->
<g id="node13" class="node">
<title>n_1</title>
<polygon fill="none" stroke="black" points="625.12,-84.38 625.12,-109.62 669.12,-109.62 669.12,-84.38 625.12,-84.38"/>
<text text-anchor="start" x="632.12" y="-95.08" font-family="Times New Roman,serif" font-weight="bold" font-size="9.00">Normal</text>
<polygon fill="none" stroke="black" points="624.12,-83.38 624.12,-110.62 670.12,-110.62 670.12,-83.38 624.12,-83.38"/>
</g>
<!-- n_1_2_5&#45;&gt;n_1 -->
<g id="edge12" class="edge">
<title>n_1_2_5&#45;&gt;n_1</title>
<path fill="none" stroke="black" d="M552.6,-158.02C570.39,-146.72 592.71,-132.55 611.19,-120.82"/>
<polygon fill="black" stroke="black" points="612.89,-123.88 619.45,-115.57 609.13,-117.98 612.89,-123.88"/>
</g>
<!-- n_2 -->
<g id="node11" class="node">
<title>n_2</title>
<polygon fill="none" stroke="black" points="485.62,-5.38 485.62,-30.62 550.62,-30.62 550.62,-5.38 485.62,-5.38"/>
<text text-anchor="start" x="492.62" y="-16.07" font-family="Times New Roman,serif" font-weight="bold" font-size="9.00">Overweight I</text>
<polygon fill="none" stroke="black" points="484.62,-4.38 484.62,-31.62 551.62,-31.62 551.62,-4.38 484.62,-4.38"/>
</g>
<!-- n_2_5&#45;&gt;n_2 -->
<g id="edge10" class="edge">
<title>n_2_5&#45;&gt;n_2</title>
<path fill="none" stroke="black" d="M518.91,-79.29C518.79,-69.97 518.63,-58.11 518.49,-47.38"/>
<polygon fill="black" stroke="black" points="521.99,-47.41 518.36,-37.45 514.99,-47.5 521.99,-47.41"/>
</g>
<!-- n_5 -->
<g id="node12" class="node">
<title>n_5</title>
<polygon fill="none" stroke="black" points="597.62,-5.38 597.62,-30.62 650.62,-30.62 650.62,-5.38 597.62,-5.38"/>
<text text-anchor="start" x="604.62" y="-16.07" font-family="Times New Roman,serif" font-weight="bold" font-size="9.00">Obesity II</text>
<polygon fill="none" stroke="black" points="596.62,-4.38 596.62,-31.62 651.62,-31.62 651.62,-4.38 596.62,-4.38"/>
</g>
<!-- n_2_5&#45;&gt;n_5 -->
<g id="edge11" class="edge">
<title>n_2_5&#45;&gt;n_5</title>
<path fill="none" stroke="black" d="M542.17,-79.1C556.8,-68.37 575.95,-54.33 592.06,-42.51"/>
<polygon fill="black" stroke="black" points="593.92,-45.49 599.92,-36.75 589.78,-39.84 593.92,-45.49"/>
</g>
</g>
</svg>
