<?xml version="1.0" encoding="UTF-8" standalone="no"?>
<!DOCTYPE svg PUBLIC "-//W3C//DTD SVG 1.1//EN"
 "http://www.w3.org/Graphics/SVG/1.1/DTD/svg11.dtd">
<!-- Generated by graphviz version 10.0.1 (20240210.2158)
 -->
<!-- Title: ND Pages: 1 -->
<svg width="599pt" height="638pt"
 viewBox="0.00 0.00 599.12 638.00" xmlns="http://www.w3.org/2000/svg" xmlns:xlink="http://www.w3.org/1999/xlink">
<g id="graph0" class="graph" transform="scale(1 1) rotate(0) translate(4 634)">
<title>ND</title>
<polygon fill="white" stroke="none" points="-4,4 -4,-634 595.12,-634 595.12,4 -4,4"/>
<!-- n_0_1_2_3_4_5_6 -->
<g id="node1" class="node">
<title>n_0_1_2_3_4_5_6</title>
<polygon fill="none" stroke="black" points="413,-557 413,-625 501.25,-625 501.25,-557 413,-557"/>
<text text-anchor="start" x="420" y="-610.45" font-family="Times New Roman,serif" font-weight="bold" font-size="9.00">Insufficient weight</text>
<text text-anchor="start" x="442.12" y="-601.45" font-family="Times New Roman,serif" font-weight="bold" font-size="9.00">Normal</text>
<text text-anchor="start" x="431.62" y="-592.45" font-family="Times New Roman,serif" font-weight="bold" font-size="9.00">Overweight I</text>
<text text-anchor="start" x="430.12" y="-583.45" font-family="Times New Roman,serif" font-weight="bold" font-size="9.00">Overweight II</text>
<text text-anchor="start" x="437.62" y="-574.45" font-family="Times New Roman,serif" font-weight="bold" font-size="9.00">Obesity II</text>
<text text-anchor="start" x="436.12" y="-565.45" font-family="Times New Roman,serif" font-weight="bold" font-size="9.00">Obesity III</text>
<polygon fill="none" stroke="black" points="501.25,-557 501.25,-625 551.25,-625 551.25,-557 501.25,-557"/>
<text text-anchor="start" x="508.25" y="-589.08" font-family="Times New Roman,serif" font-weight="bold" font-size="9.00">Obesity I</text>
<polygon fill="none" stroke="black" points="412,-556 412,-626 552.25,-626 552.25,-556 412,-556"/>
</g>
<!-- n_0_1_2_3_5_6 -->
<g id="node2" class="node">
<title>n_0_1_2_3_5_6</title>
<polygon fill="none" stroke="black" points="329,-445 329,-504 417.25,-504 417.25,-445 329,-445"/>
<text text-anchor="start" x="336" y="-489.45" font-family="Times New Roman,serif" font-weight="bold" font-size="9.00">Insufficient weight</text>
<text text-anchor="start" x="358.12" y="-480.45" font-family="Times New Roman,serif" font-weight="bold" font-size="9.00">Normal</text>
<text text-anchor="start" x="347.62" y="-471.45" font-family="Times New Roman,serif" font-weight="bold" font-size="9.00">Overweight I</text>
<text text-anchor="start" x="353.62" y="-462.45" font-family="Times New Roman,serif" font-weight="bold" font-size="9.00">Obesity II</text>
<text text-anchor="start" x="352.12" y="-453.45" font-family="Times New Roman,serif" font-weight="bold" font-size="9.00">Obesity III</text>
<polygon fill="none" stroke="black" points="417.25,-445 417.25,-504 485.25,-504 485.25,-445 417.25,-445"/>
<text text-anchor="start" x="424.25" y="-472.57" font-family="Times New Roman,serif" font-weight="bold" font-size="9.00">Overweight II</text>
<polygon fill="none" stroke="black" points="328,-444 328,-505 486.25,-505 486.25,-444 328,-444"/>
</g>
<!-- n_0_1_2_3_4_5_6&#45;&gt;n_0_1_2_3_5_6 -->
<g id="edge1" class="edge">
<title>n_0_1_2_3_4_5_6&#45;&gt;n_0_1_2_3_5_6</title>
<path fill="none" stroke="black" d="M457.36,-552.19C450.23,-541.31 442.41,-529.36 435.1,-518.21"/>
<polygon fill="black" stroke="black" points="438.08,-516.37 429.67,-509.92 432.22,-520.2 438.08,-516.37"/>
</g>
<!-- n_4 -->
<g id="node13" class="node">
<title>n_4</title>
<polygon fill="none" stroke="black" points="532.12,-461.88 532.12,-487.12 582.12,-487.12 582.12,-461.88 532.12,-461.88"/>
<text text-anchor="start" x="539.12" y="-472.57" font-family="Times New Roman,serif" font-weight="bold" font-size="9.00">Obesity I</text>
<polygon fill="none" stroke="black" points="531.12,-460.88 531.12,-488.12 583.12,-488.12 583.12,-460.88 531.12,-460.88"/>
</g>
<!-- n_0_1_2_3_4_5_6&#45;&gt;n_4 -->
<g id="edge12" class="edge">
<title>n_0_1_2_3_4_5_6&#45;&gt;n_4</title>
<path fill="none" stroke="black" d="M506.89,-552.19C517.64,-535.78 529.97,-516.96 539.72,-502.07"/>
<polygon fill="black" stroke="black" points="542.63,-504.01 545.18,-493.73 536.78,-500.18 542.63,-504.01"/>
</g>
<!-- n_0_1_2_5_6 -->
<g id="node3" class="node">
<title>n_0_1_2_5_6</title>
<polygon fill="none" stroke="black" points="268,-342 268,-392 356.25,-392 356.25,-342 268,-342"/>
<text text-anchor="start" x="275" y="-377.45" font-family="Times New Roman,serif" font-weight="bold" font-size="9.00">Insufficient weight</text>
<text text-anchor="start" x="286.62" y="-368.45" font-family="Times New Roman,serif" font-weight="bold" font-size="9.00">Overweight I</text>
<text text-anchor="start" x="292.62" y="-359.45" font-family="Times New Roman,serif" font-weight="bold" font-size="9.00">Obesity II</text>
<text text-anchor="start" x="291.12" y="-350.45" font-family="Times New Roman,serif" font-weight="bold" font-size="9.00">Obesity III</text>
<polygon fill="none" stroke="black" points="356.25,-342 356.25,-392 400.25,-392 400.25,-342 356.25,-342"/>
<text text-anchor="start" x="363.25" y="-365.07" font-family="Times New Roman,serif" font-weight="bold" font-size="9.00">Normal</text>
<polygon fill="none" stroke="black" points="267,-341 267,-393 401.25,-393 401.25,-341 267,-341"/>
</g>
<!-- n_0_1_2_3_5_6&#45;&gt;n_0_1_2_5_6 -->
<g id="edge2" class="edge">
<title>n_0_1_2_3_5_6&#45;&gt;n_0_1_2_5_6</title>
<path fill="none" stroke="black" d="M384.03,-440.12C376.6,-429.38 368.31,-417.4 360.65,-406.33"/>
<polygon fill="black" stroke="black" points="363.55,-404.37 354.98,-398.14 357.79,-408.36 363.55,-404.37"/>
</g>
<!-- n_3 -->
<g id="node12" class="node">
<title>n_3</title>
<polygon fill="none" stroke="black" points="447.12,-354.38 447.12,-379.62 515.12,-379.62 515.12,-354.38 447.12,-354.38"/>
<text text-anchor="start" x="454.12" y="-365.07" font-family="Times New Roman,serif" font-weight="bold" font-size="9.00">Overweight II</text>
<polygon fill="none" stroke="black" points="446.12,-353.38 446.12,-380.62 516.12,-380.62 516.12,-353.38 446.12,-353.38"/>
</g>
<!-- n_0_1_2_3_5_6&#45;&gt;n_3 -->
<g id="edge11" class="edge">
<title>n_0_1_2_3_5_6&#45;&gt;n_3</title>
<path fill="none" stroke="black" d="M430.54,-440.12C441,-425.21 453.14,-407.9 462.9,-393.98"/>
<polygon fill="black" stroke="black" points="465.49,-396.39 468.37,-386.19 459.76,-392.37 465.49,-396.39"/>
</g>
<!-- n_0_2_5_6 -->
<g id="node4" class="node">
<title>n_0_2_5_6</title>
<polygon fill="none" stroke="black" points="193.5,-248 193.5,-289 281.75,-289 281.75,-248 193.5,-248"/>
<text text-anchor="start" x="200.5" y="-274.45" font-family="Times New Roman,serif" font-weight="bold" font-size="9.00">Insufficient weight</text>
<text text-anchor="start" x="212.12" y="-265.45" font-family="Times New Roman,serif" font-weight="bold" font-size="9.00">Overweight I</text>
<text text-anchor="start" x="216.62" y="-256.45" font-family="Times New Roman,serif" font-weight="bold" font-size="9.00">Obesity III</text>
<polygon fill="none" stroke="black" points="281.75,-248 281.75,-289 334.75,-289 334.75,-248 281.75,-248"/>
<text text-anchor="start" x="288.75" y="-266.57" font-family="Times New Roman,serif" font-weight="bold" font-size="9.00">Obesity II</text>
<polygon fill="none" stroke="black" points="192.5,-247 192.5,-290 335.75,-290 335.75,-247 192.5,-247"/>
</g>
<!-- n_0_1_2_5_6&#45;&gt;n_0_2_5_6 -->
<g id="edge3" class="edge">
<title>n_0_1_2_5_6&#45;&gt;n_0_2_5_6</title>
<path fill="none" stroke="black" d="M313.12,-337.05C305.32,-326.29 296.41,-314 288.34,-302.88"/>
<polygon fill="black" stroke="black" points="291.4,-301.14 282.69,-295.1 285.73,-305.25 291.4,-301.14"/>
</g>
<!-- n_1 -->
<g id="node11" class="node">
<title>n_1</title>
<polygon fill="none" stroke="black" points="382.12,-255.88 382.12,-281.12 426.12,-281.12 426.12,-255.88 382.12,-255.88"/>
<text text-anchor="start" x="389.12" y="-266.57" font-family="Times New Roman,serif" font-weight="bold" font-size="9.00">Normal</text>
<polygon fill="none" stroke="black" points="381.12,-254.88 381.12,-282.12 427.12,-282.12 427.12,-254.88 381.12,-254.88"/>
</g>
<!-- n_0_1_2_5_6&#45;&gt;n_1 -->
<g id="edge10" class="edge">
<title>n_0_1_2_5_6&#45;&gt;n_1</title>
<path fill="none" stroke="black" d="M355.13,-337.05C364.69,-323.86 375.92,-308.38 385.22,-295.56"/>
<polygon fill="black" stroke="black" points="387.96,-297.74 391,-287.59 382.3,-293.63 387.96,-297.74"/>
</g>
<!-- n_0_2_6 -->
<g id="node5" class="node">
<title>n_0_2_6</title>
<polygon fill="none" stroke="black" points="119,-163 119,-195 207.25,-195 207.25,-163 119,-163"/>
<text text-anchor="start" x="126" y="-180.45" font-family="Times New Roman,serif" font-weight="bold" font-size="9.00">Insufficient weight</text>
<text text-anchor="start" x="137.62" y="-171.45" font-family="Times New Roman,serif" font-weight="bold" font-size="9.00">Overweight I</text>
<polygon fill="none" stroke="black" points="207.25,-163 207.25,-195 263.25,-195 263.25,-163 207.25,-163"/>
<text text-anchor="start" x="214.25" y="-177.07" font-family="Times New Roman,serif" font-weight="bold" font-size="9.00">Obesity III</text>
<polygon fill="none" stroke="black" points="118,-162 118,-196 264.25,-196 264.25,-162 118,-162"/>
</g>
<!-- n_0_2_5_6&#45;&gt;n_0_2_6 -->
<g id="edge4" class="edge">
<title>n_0_2_5_6&#45;&gt;n_0_2_6</title>
<path fill="none" stroke="black" d="M243.79,-243.13C234.8,-232.35 224.18,-219.62 214.83,-208.41"/>
<polygon fill="black" stroke="black" points="217.73,-206.42 208.64,-200.99 212.35,-210.91 217.73,-206.42"/>
</g>
<!-- n_5 -->
<g id="node10" class="node">
<title>n_5</title>
<polygon fill="none" stroke="black" points="310.62,-166.38 310.62,-191.62 363.62,-191.62 363.62,-166.38 310.62,-166.38"/>
<text text-anchor="start" x="317.62" y="-177.07" font-family="Times New Roman,serif" font-weight="bold" font-size="9.00">Obesity II</text>
<polygon fill="none" stroke="black" points="309.62,-165.38 309.62,-192.62 364.62,-192.62 364.62,-165.38 309.62,-165.38"/>
</g>
<!-- n_0_2_5_6&#45;&gt;n_5 -->
<g id="edge9" class="edge">
<title>n_0_2_5_6&#45;&gt;n_5</title>
<path fill="none" stroke="black" d="M284.46,-243.13C294.28,-231.36 306.05,-217.25 315.97,-205.36"/>
<polygon fill="black" stroke="black" points="318.45,-207.85 322.16,-197.93 313.07,-203.37 318.45,-207.85"/>
</g>
<!-- n_0_2 -->
<g id="node6" class="node">
<title>n_0_2</title>
<polygon fill="none" stroke="black" points="38.5,-84.38 38.5,-109.62 126.75,-109.62 126.75,-84.38 38.5,-84.38"/>
<text text-anchor="start" x="45.5" y="-95.08" font-family="Times New Roman,serif" font-weight="bold" font-size="9.00">Insufficient weight</text>
<polygon fill="none" stroke="black" points="126.75,-84.38 126.75,-109.62 191.75,-109.62 191.75,-84.38 126.75,-84.38"/>
<text text-anchor="start" x="133.75" y="-95.08" font-family="Times New Roman,serif" font-weight="bold" font-size="9.00">Overweight I</text>
<polygon fill="none" stroke="black" points="37.5,-83.38 37.5,-110.62 192.75,-110.62 192.75,-83.38 37.5,-83.38"/>
</g>
<!-- n_0_2_6&#45;&gt;n_0_2 -->
<g id="edge5" class="edge">
<title>n_0_2_6&#45;&gt;n_0_2</title>
<path fill="none" stroke="black" d="M172.34,-158.22C162.25,-147.61 149.71,-134.41 138.94,-123.07"/>
<polygon fill="black" stroke="black" points="141.59,-120.78 132.17,-115.94 136.52,-125.6 141.59,-120.78"/>
</g>
<!-- n_6 -->
<g id="node9" class="node">
<title>n_6</title>
<polygon fill="none" stroke="black" points="239.12,-84.38 239.12,-109.62 295.12,-109.62 295.12,-84.38 239.12,-84.38"/>
<text text-anchor="start" x="246.12" y="-95.08" font-family="Times New Roman,serif" font-weight="bold" font-size="9.00">Obesity III</text>
<polygon fill="none" stroke="black" points="238.12,-83.38 238.12,-110.62 296.12,-110.62 296.12,-83.38 238.12,-83.38"/>
</g>
<!-- n_0_2_6&#45;&gt;n_6 -->
<g id="edge8" class="edge">
<title>n_0_2_6&#45;&gt;n_6</title>
<path fill="none" stroke="black" d="M209.91,-158.22C220,-147.61 232.54,-134.41 243.31,-123.07"/>
<polygon fill="black" stroke="black" points="245.73,-125.6 250.08,-115.94 240.66,-120.78 245.73,-125.6"/>
</g>
<!-- n_0 -->
<g id="node7" class="node">
<title>n_0</title>
<polygon fill="none" stroke="black" points="9,-5.38 9,-30.62 97.25,-30.62 97.25,-5.38 9,-5.38"/>
<text text-anchor="start" x="16" y="-16.07" font-family="Times New Roman,serif" font-weight="bold" font-size="9.00">Insufficient weight</text>
<polygon fill="none" stroke="black" points="8,-4.38 8,-31.62 98.25,-31.62 98.25,-4.38 8,-4.38"/>
</g>
<!-- n_0_2&#45;&gt;n_0 -->
<g id="edge6" class="edge">
<title>n_0_2&#45;&gt;n_0</title>
<path fill="none" stroke="black" d="M101.67,-79.29C93.52,-69.17 82.96,-56.05 73.77,-44.64"/>
<polygon fill="black" stroke="black" points="76.71,-42.71 67.72,-37.12 71.26,-47.1 76.71,-42.71"/>
</g>
<!-- n_2 -->
<g id="node8" class="node">
<title>n_2</title>
<polygon fill="none" stroke="black" points="144.62,-5.38 144.62,-30.62 209.62,-30.62 209.62,-5.38 144.62,-5.38"/>
<text text-anchor="start" x="151.62" y="-16.07" font-family="Times New Roman,serif" font-weight="bold" font-size="9.00">Overweight I</text>
<polygon fill="none" stroke="black" points="143.62,-4.38 143.62,-31.62 210.62,-31.62 210.62,-4.38 143.62,-4.38"/>
</g>
<!-- n_0_2&#45;&gt;n_2 -->
<g id="edge7" class="edge">
<title>n_0_2&#45;&gt;n_2</title>
<path fill="none" stroke="black" d="M128.58,-79.29C136.73,-69.17 147.29,-56.05 156.48,-44.64"/>
<polygon fill="black" stroke="black" points="158.99,-47.1 162.53,-37.12 153.54,-42.71 158.99,-47.1"/>
</g>
</g>
</svg>
