<?xml version="1.0" encoding="UTF-8" standalone="no"?>
<!DOCTYPE svg PUBLIC "-//W3C//DTD SVG 1.1//EN"
 "http://www.w3.org/Graphics/SVG/1.1/DTD/svg11.dtd">
<!-- Generated by graphviz version 10.0.1 (20240210.2158)
 -->
<!-- Title: ND Pages: 1 -->
<svg width="612pt" height="405pt"
 viewBox="0.00 0.00 612.12 405.00" xmlns="http://www.w3.org/2000/svg" xmlns:xlink="http://www.w3.org/1999/xlink">
<g id="graph0" class="graph" transform="scale(1 1) rotate(0) translate(4 401)">
<title>ND</title>
<polygon fill="white" stroke="none" points="-4,4 -4,-401 608.12,-401 608.12,4 -4,4"/>
<!-- n_0_1_2_3_4_5_6 -->
<g id="node1" class="node">
<title>n_0_1_2_3_4_5_6</title>
<polygon fill="none" stroke="black" points="244.38,-342 244.38,-392 309.38,-392 309.38,-342 244.38,-342"/>
<text text-anchor="start" x="261.88" y="-377.45" font-family="Times New Roman,serif" font-weight="bold" font-size="9.00">Normal</text>
<text text-anchor="start" x="251.38" y="-368.45" font-family="Times New Roman,serif" font-weight="bold" font-size="9.00">Overweight I</text>
<text text-anchor="start" x="258.88" y="-359.45" font-family="Times New Roman,serif" font-weight="bold" font-size="9.00">Obesity I</text>
<text text-anchor="start" x="255.88" y="-350.45" font-family="Times New Roman,serif" font-weight="bold" font-size="9.00">Obesity III</text>
<polygon fill="none" stroke="black" points="309.38,-342 309.38,-392 397.62,-392 397.62,-342 309.38,-342"/>
<text text-anchor="start" x="316.38" y="-372.95" font-family="Times New Roman,serif" font-weight="bold" font-size="9.00">Insufficient weight</text>
<text text-anchor="start" x="326.5" y="-363.95" font-family="Times New Roman,serif" font-weight="bold" font-size="9.00">Overweight II</text>
<text text-anchor="start" x="334" y="-354.95" font-family="Times New Roman,serif" font-weight="bold" font-size="9.00">Obesity II</text>
<polygon fill="none" stroke="black" points="243.38,-341 243.38,-393 398.62,-393 398.62,-341 243.38,-341"/>
</g>
<!-- n_1_2_4_6 -->
<g id="node2" class="node">
<title>n_1_2_4_6</title>
<polygon fill="none" stroke="black" points="167.5,-248 167.5,-289 223.5,-289 223.5,-248 167.5,-248"/>
<text text-anchor="start" x="180.5" y="-274.45" font-family="Times New Roman,serif" font-weight="bold" font-size="9.00">Normal</text>
<text text-anchor="start" x="177.5" y="-265.45" font-family="Times New Roman,serif" font-weight="bold" font-size="9.00">Obesity I</text>
<text text-anchor="start" x="174.5" y="-256.45" font-family="Times New Roman,serif" font-weight="bold" font-size="9.00">Obesity III</text>
<polygon fill="none" stroke="black" points="223.5,-248 223.5,-289 288.5,-289 288.5,-248 223.5,-248"/>
<text text-anchor="start" x="230.5" y="-266.57" font-family="Times New Roman,serif" font-weight="bold" font-size="9.00">Overweight I</text>
<polygon fill="none" stroke="black" points="166.5,-247 166.5,-290 289.5,-290 289.5,-247 166.5,-247"/>
</g>
<!-- n_0_1_2_3_4_5_6&#45;&gt;n_1_2_4_6 -->
<g id="edge1" class="edge">
<title>n_0_1_2_3_4_5_6&#45;&gt;n_1_2_4_6</title>
<path fill="none" stroke="black" d="M293.1,-337.05C282.42,-325.97 270.18,-313.26 259.21,-301.88"/>
<polygon fill="black" stroke="black" points="262,-299.74 252.54,-294.96 256.96,-304.59 262,-299.74"/>
</g>
<!-- n_0_3_5 -->
<g id="node9" class="node">
<title>n_0_3_5</title>
<polygon fill="none" stroke="black" points="335.88,-252.5 335.88,-284.5 403.88,-284.5 403.88,-252.5 335.88,-252.5"/>
<text text-anchor="start" x="342.88" y="-269.95" font-family="Times New Roman,serif" font-weight="bold" font-size="9.00">Overweight II</text>
<text text-anchor="start" x="350.38" y="-260.95" font-family="Times New Roman,serif" font-weight="bold" font-size="9.00">Obesity II</text>
<polygon fill="none" stroke="black" points="403.88,-252.5 403.88,-284.5 492.12,-284.5 492.12,-252.5 403.88,-252.5"/>
<text text-anchor="start" x="410.88" y="-266.57" font-family="Times New Roman,serif" font-weight="bold" font-size="9.00">Insufficient weight</text>
<polygon fill="none" stroke="black" points="334.88,-251.5 334.88,-285.5 493.12,-285.5 493.12,-251.5 334.88,-251.5"/>
</g>
<!-- n_0_1_2_3_4_5_6&#45;&gt;n_0_3_5 -->
<g id="edge8" class="edge">
<title>n_0_1_2_3_4_5_6&#45;&gt;n_0_3_5</title>
<path fill="none" stroke="black" d="M348.9,-337.05C360.99,-324.51 375.08,-309.89 387.06,-297.46"/>
<polygon fill="black" stroke="black" points="389.49,-299.98 393.91,-290.35 384.45,-295.12 389.49,-299.98"/>
</g>
<!-- n_1_4_6 -->
<g id="node3" class="node">
<title>n_1_4_6</title>
<polygon fill="none" stroke="black" points="57,-163 57,-195 113,-195 113,-163 57,-163"/>
<text text-anchor="start" x="70" y="-180.45" font-family="Times New Roman,serif" font-weight="bold" font-size="9.00">Normal</text>
<text text-anchor="start" x="64" y="-171.45" font-family="Times New Roman,serif" font-weight="bold" font-size="9.00">Obesity III</text>
<polygon fill="none" stroke="black" points="113,-163 113,-195 163,-195 163,-163 113,-163"/>
<text text-anchor="start" x="120" y="-177.07" font-family="Times New Roman,serif" font-weight="bold" font-size="9.00">Obesity I</text>
<polygon fill="none" stroke="black" points="56,-162 56,-196 164,-196 164,-162 56,-162"/>
</g>
<!-- n_1_2_4_6&#45;&gt;n_1_4_6 -->
<g id="edge2" class="edge">
<title>n_1_2_4_6&#45;&gt;n_1_4_6</title>
<path fill="none" stroke="black" d="M195.13,-243.13C179.74,-231.71 161.37,-218.1 145.65,-206.43"/>
<polygon fill="black" stroke="black" points="148.07,-203.87 137.95,-200.73 143.9,-209.5 148.07,-203.87"/>
</g>
<!-- n_2 -->
<g id="node8" class="node">
<title>n_2</title>
<polygon fill="none" stroke="black" points="210.5,-166.38 210.5,-191.62 275.5,-191.62 275.5,-166.38 210.5,-166.38"/>
<text text-anchor="start" x="217.5" y="-177.07" font-family="Times New Roman,serif" font-weight="bold" font-size="9.00">Overweight I</text>
<polygon fill="none" stroke="black" points="209.5,-165.38 209.5,-192.62 276.5,-192.62 276.5,-165.38 209.5,-165.38"/>
</g>
<!-- n_1_2_4_6&#45;&gt;n_2 -->
<g id="edge7" class="edge">
<title>n_1_2_4_6&#45;&gt;n_2</title>
<path fill="none" stroke="black" d="M232.18,-243.13C234.06,-232.17 236.28,-219.18 238.23,-207.84"/>
<polygon fill="black" stroke="black" points="241.63,-208.71 239.87,-198.26 234.73,-207.53 241.63,-208.71"/>
</g>
<!-- n_1_6 -->
<g id="node4" class="node">
<title>n_1_6</title>
<polygon fill="none" stroke="black" points="29,-84.38 29,-109.62 73,-109.62 73,-84.38 29,-84.38"/>
<text text-anchor="start" x="36" y="-95.08" font-family="Times New Roman,serif" font-weight="bold" font-size="9.00">Normal</text>
<polygon fill="none" stroke="black" points="73,-84.38 73,-109.62 129,-109.62 129,-84.38 73,-84.38"/>
<text text-anchor="start" x="80" y="-95.08" font-family="Times New Roman,serif" font-weight="bold" font-size="9.00">Obesity III</text>
<polygon fill="none" stroke="black" points="28,-83.38 28,-110.62 130,-110.62 130,-83.38 28,-83.38"/>
</g>
<!-- n_1_4_6&#45;&gt;n_1_6 -->
<g id="edge3" class="edge">
<title>n_1_4_6&#45;&gt;n_1_6</title>
<path fill="none" stroke="black" d="M102.34,-158.22C98.5,-148.33 93.8,-136.21 89.63,-125.43"/>
<polygon fill="black" stroke="black" points="92.95,-124.31 86.07,-116.26 86.42,-126.84 92.95,-124.31"/>
</g>
<!-- n_4 -->
<g id="node7" class="node">
<title>n_4</title>
<polygon fill="none" stroke="black" points="176,-84.38 176,-109.62 226,-109.62 226,-84.38 176,-84.38"/>
<text text-anchor="start" x="183" y="-95.08" font-family="Times New Roman,serif" font-weight="bold" font-size="9.00">Obesity I</text>
<polygon fill="none" stroke="black" points="175,-83.38 175,-110.62 227,-110.62 227,-83.38 175,-83.38"/>
</g>
<!-- n_1_4_6&#45;&gt;n_4 -->
<g id="edge6" class="edge">
<title>n_1_4_6&#45;&gt;n_4</title>
<path fill="none" stroke="black" d="M132.49,-158.22C144.81,-147.4 160.18,-133.89 173.24,-122.41"/>
<polygon fill="black" stroke="black" points="175.5,-125.07 180.7,-115.84 170.88,-119.82 175.5,-125.07"/>
</g>
<!-- n_1 -->
<g id="node5" class="node">
<title>n_1</title>
<polygon fill="none" stroke="black" points="9,-5.38 9,-30.62 53,-30.62 53,-5.38 9,-5.38"/>
<text text-anchor="start" x="16" y="-16.07" font-family="Times New Roman,serif" font-weight="bold" font-size="9.00">Normal</text>
<polygon fill="none" stroke="black" points="8,-4.38 8,-31.62 54,-31.62 54,-4.38 8,-4.38"/>
</g>
<!-- n_1_6&#45;&gt;n_1 -->
<g id="edge4" class="edge">
<title>n_1_6&#45;&gt;n_1</title>
<path fill="none" stroke="black" d="M68.58,-79.29C62.46,-69.47 54.58,-56.83 47.62,-45.66"/>
<polygon fill="black" stroke="black" points="50.62,-43.86 42.36,-37.23 44.68,-47.56 50.62,-43.86"/>
</g>
<!-- n_6 -->
<g id="node6" class="node">
<title>n_6</title>
<polygon fill="none" stroke="black" points="100,-5.38 100,-30.62 156,-30.62 156,-5.38 100,-5.38"/>
<text text-anchor="start" x="107" y="-16.07" font-family="Times New Roman,serif" font-weight="bold" font-size="9.00">Obesity III</text>
<polygon fill="none" stroke="black" points="99,-4.38 99,-31.62 157,-31.62 157,-4.38 99,-4.38"/>
</g>
<!-- n_1_6&#45;&gt;n_6 -->
<g id="edge5" class="edge">
<title>n_1_6&#45;&gt;n_6</title>
<path fill="none" stroke="black" d="M89.63,-79.29C95.95,-69.37 104.09,-56.57 111.25,-45.32"/>
<polygon fill="black" stroke="black" points="113.99,-47.53 116.41,-37.22 108.09,-43.78 113.99,-47.53"/>
</g>
<!-- n_3_5 -->
<g id="node10" class="node">
<title>n_3_5</title>
<polygon fill="none" stroke="black" points="338.5,-166.38 338.5,-191.62 406.5,-191.62 406.5,-166.38 338.5,-166.38"/>
<text text-anchor="start" x="345.5" y="-177.07" font-family="Times New Roman,serif" font-weight="bold" font-size="9.00">Overweight II</text>
<polygon fill="none" stroke="black" points="406.5,-166.38 406.5,-191.62 459.5,-191.62 459.5,-166.38 406.5,-166.38"/>
<text text-anchor="start" x="413.5" y="-177.07" font-family="Times New Roman,serif" font-weight="bold" font-size="9.00">Obesity II</text>
<polygon fill="none" stroke="black" points="337.5,-165.38 337.5,-192.62 460.5,-192.62 460.5,-165.38 337.5,-165.38"/>
</g>
<!-- n_0_3_5&#45;&gt;n_3_5 -->
<g id="edge9" class="edge">
<title>n_0_3_5&#45;&gt;n_3_5</title>
<path fill="none" stroke="black" d="M410.6,-247.64C408.58,-235.91 406.01,-220.86 403.79,-207.94"/>
<polygon fill="black" stroke="black" points="407.28,-207.59 402.14,-198.32 400.38,-208.77 407.28,-207.59"/>
</g>
<!-- n_0 -->
<g id="node13" class="node">
<title>n_0</title>
<polygon fill="none" stroke="black" points="506.88,-166.38 506.88,-191.62 595.12,-191.62 595.12,-166.38 506.88,-166.38"/>
<text text-anchor="start" x="513.88" y="-177.07" font-family="Times New Roman,serif" font-weight="bold" font-size="9.00">Insufficient weight</text>
<polygon fill="none" stroke="black" points="505.88,-165.38 505.88,-192.62 596.12,-192.62 596.12,-165.38 505.88,-165.38"/>
</g>
<!-- n_0_3_5&#45;&gt;n_0 -->
<g id="edge12" class="edge">
<title>n_0_3_5&#45;&gt;n_0</title>
<path fill="none" stroke="black" d="M445.09,-247.64C465.9,-234.35 493.36,-216.81 515.1,-202.93"/>
<polygon fill="black" stroke="black" points="516.83,-205.98 523.37,-197.65 513.06,-200.08 516.83,-205.98"/>
</g>
<!-- n_3 -->
<g id="node11" class="node">
<title>n_3</title>
<polygon fill="none" stroke="black" points="319,-84.38 319,-109.62 387,-109.62 387,-84.38 319,-84.38"/>
<text text-anchor="start" x="326" y="-95.08" font-family="Times New Roman,serif" font-weight="bold" font-size="9.00">Overweight II</text>
<polygon fill="none" stroke="black" points="318,-83.38 318,-110.62 388,-110.62 388,-83.38 318,-83.38"/>
</g>
<!-- n_3_5&#45;&gt;n_3 -->
<g id="edge10" class="edge">
<title>n_3_5&#45;&gt;n_3</title>
<path fill="none" stroke="black" d="M389.24,-161.03C383.21,-150.53 375.32,-136.82 368.45,-124.87"/>
<polygon fill="black" stroke="black" points="371.51,-123.18 363.5,-116.25 365.45,-126.67 371.51,-123.18"/>
</g>
<!-- n_5 -->
<g id="node12" class="node">
<title>n_5</title>
<polygon fill="none" stroke="black" points="434.5,-84.38 434.5,-109.62 487.5,-109.62 487.5,-84.38 434.5,-84.38"/>
<text text-anchor="start" x="441.5" y="-95.08" font-family="Times New Roman,serif" font-weight="bold" font-size="9.00">Obesity II</text>
<polygon fill="none" stroke="black" points="433.5,-83.38 433.5,-110.62 488.5,-110.62 488.5,-83.38 433.5,-83.38"/>
</g>
<!-- n_3_5&#45;&gt;n_5 -->
<g id="edge11" class="edge">
<title>n_3_5&#45;&gt;n_5</title>
<path fill="none" stroke="black" d="M412.15,-161.03C420.53,-150.22 431.56,-135.99 441.02,-123.79"/>
<polygon fill="black" stroke="black" points="443.58,-126.19 446.94,-116.14 438.05,-121.9 443.58,-126.19"/>
</g>
</g>
</svg>
