<?xml version="1.0" encoding="UTF-8" standalone="no"?>
<!DOCTYPE svg PUBLIC "-//W3C//DTD SVG 1.1//EN"
 "http://www.w3.org/Graphics/SVG/1.1/DTD/svg11.dtd">
<!-- Generated by graphviz version 10.0.1 (20240210.2158)
 -->
<!-- Title: ND Pages: 1 -->
<svg width="613pt" height="526pt"
 viewBox="0.00 0.00 612.62 526.00" xmlns="http://www.w3.org/2000/svg" xmlns:xlink="http://www.w3.org/1999/xlink">
<g id="graph0" class="graph" transform="scale(1 1) rotate(0) translate(4 522)">
<title>ND</title>
<polygon fill="white" stroke="none" points="-4,4 -4,-522 608.62,-522 608.62,4 -4,4"/>
<!-- n_0_1_2_3_4_5_6 -->
<g id="node1" class="node">
<title>n_0_1_2_3_4_5_6</title>
<polygon fill="none" stroke="black" points="395,-445 395,-513 483.25,-513 483.25,-445 395,-445"/>
<text text-anchor="start" x="402" y="-498.45" font-family="Times New Roman,serif" font-weight="bold" font-size="9.00">Insufficient weight</text>
<text text-anchor="start" x="424.12" y="-489.45" font-family="Times New Roman,serif" font-weight="bold" font-size="9.00">Normal</text>
<text text-anchor="start" x="413.62" y="-480.45" font-family="Times New Roman,serif" font-weight="bold" font-size="9.00">Overweight I</text>
<text text-anchor="start" x="421.12" y="-471.45" font-family="Times New Roman,serif" font-weight="bold" font-size="9.00">Obesity I</text>
<text text-anchor="start" x="419.62" y="-462.45" font-family="Times New Roman,serif" font-weight="bold" font-size="9.00">Obesity II</text>
<text text-anchor="start" x="418.12" y="-453.45" font-family="Times New Roman,serif" font-weight="bold" font-size="9.00">Obesity III</text>
<polygon fill="none" stroke="black" points="483.25,-445 483.25,-513 551.25,-513 551.25,-445 483.25,-445"/>
<text text-anchor="start" x="490.25" y="-477.07" font-family="Times New Roman,serif" font-weight="bold" font-size="9.00">Overweight II</text>
<polygon fill="none" stroke="black" points="394,-444 394,-514 552.25,-514 552.25,-444 394,-444"/>
</g>
<!-- n_0_1_2_4_5_6 -->
<g id="node2" class="node">
<title>n_0_1_2_4_5_6</title>
<polygon fill="none" stroke="black" points="317.5,-342 317.5,-392 405.75,-392 405.75,-342 317.5,-342"/>
<text text-anchor="start" x="324.5" y="-377.45" font-family="Times New Roman,serif" font-weight="bold" font-size="9.00">Insufficient weight</text>
<text text-anchor="start" x="343.62" y="-368.45" font-family="Times New Roman,serif" font-weight="bold" font-size="9.00">Obesity I</text>
<text text-anchor="start" x="342.12" y="-359.45" font-family="Times New Roman,serif" font-weight="bold" font-size="9.00">Obesity II</text>
<text text-anchor="start" x="340.62" y="-350.45" font-family="Times New Roman,serif" font-weight="bold" font-size="9.00">Obesity III</text>
<polygon fill="none" stroke="black" points="405.75,-342 405.75,-392 470.75,-392 470.75,-342 405.75,-342"/>
<text text-anchor="start" x="423.25" y="-368.45" font-family="Times New Roman,serif" font-weight="bold" font-size="9.00">Normal</text>
<text text-anchor="start" x="412.75" y="-359.45" font-family="Times New Roman,serif" font-weight="bold" font-size="9.00">Overweight I</text>
<polygon fill="none" stroke="black" points="316.5,-341 316.5,-393 471.75,-393 471.75,-341 316.5,-341"/>
</g>
<!-- n_0_1_2_3_4_5_6&#45;&gt;n_0_1_2_4_5_6 -->
<g id="edge1" class="edge">
<title>n_0_1_2_3_4_5_6&#45;&gt;n_0_1_2_4_5_6</title>
<path fill="none" stroke="black" d="M445.94,-440.14C438.07,-429.19 429.47,-417.22 421.58,-406.23"/>
<polygon fill="black" stroke="black" points="424.43,-404.2 415.75,-398.12 418.75,-408.28 424.43,-404.2"/>
</g>
<!-- n_3 -->
<g id="node13" class="node">
<title>n_3</title>
<polygon fill="none" stroke="black" points="518.12,-354.38 518.12,-379.62 586.12,-379.62 586.12,-354.38 518.12,-354.38"/>
<text text-anchor="start" x="525.12" y="-365.07" font-family="Times New Roman,serif" font-weight="bold" font-size="9.00">Overweight II</text>
<polygon fill="none" stroke="black" points="517.12,-353.38 517.12,-380.62 587.12,-380.62 587.12,-353.38 517.12,-353.38"/>
</g>
<!-- n_0_1_2_3_4_5_6&#45;&gt;n_3 -->
<g id="edge12" class="edge">
<title>n_0_1_2_3_4_5_6&#45;&gt;n_3</title>
<path fill="none" stroke="black" d="M500.31,-440.14C511.16,-425.04 523.38,-408.02 533.23,-394.31"/>
<polygon fill="black" stroke="black" points="536.06,-396.38 539.05,-386.21 530.37,-392.29 536.06,-396.38"/>
</g>
<!-- n_0_4_5_6 -->
<g id="node3" class="node">
<title>n_0_4_5_6</title>
<polygon fill="none" stroke="black" points="240,-248 240,-289 328.25,-289 328.25,-248 240,-248"/>
<text text-anchor="start" x="247" y="-274.45" font-family="Times New Roman,serif" font-weight="bold" font-size="9.00">Insufficient weight</text>
<text text-anchor="start" x="264.62" y="-265.45" font-family="Times New Roman,serif" font-weight="bold" font-size="9.00">Obesity II</text>
<text text-anchor="start" x="263.12" y="-256.45" font-family="Times New Roman,serif" font-weight="bold" font-size="9.00">Obesity III</text>
<polygon fill="none" stroke="black" points="328.25,-248 328.25,-289 378.25,-289 378.25,-248 328.25,-248"/>
<text text-anchor="start" x="335.25" y="-266.57" font-family="Times New Roman,serif" font-weight="bold" font-size="9.00">Obesity I</text>
<polygon fill="none" stroke="black" points="239,-247 239,-290 379.25,-290 379.25,-247 239,-247"/>
</g>
<!-- n_0_1_2_4_5_6&#45;&gt;n_0_4_5_6 -->
<g id="edge2" class="edge">
<title>n_0_1_2_4_5_6&#45;&gt;n_0_4_5_6</title>
<path fill="none" stroke="black" d="M368.62,-337.05C358.96,-326.08 347.89,-313.51 337.94,-302.22"/>
<polygon fill="black" stroke="black" points="340.83,-300.2 331.6,-295.01 335.58,-304.83 340.83,-300.2"/>
</g>
<!-- n_1_2 -->
<g id="node10" class="node">
<title>n_1_2</title>
<polygon fill="none" stroke="black" points="425.62,-255.88 425.62,-281.12 469.62,-281.12 469.62,-255.88 425.62,-255.88"/>
<text text-anchor="start" x="432.62" y="-266.57" font-family="Times New Roman,serif" font-weight="bold" font-size="9.00">Normal</text>
<polygon fill="none" stroke="black" points="469.62,-255.88 469.62,-281.12 534.62,-281.12 534.62,-255.88 469.62,-255.88"/>
<text text-anchor="start" x="476.62" y="-266.57" font-family="Times New Roman,serif" font-weight="bold" font-size="9.00">Overweight I</text>
<polygon fill="none" stroke="black" points="424.62,-254.88 424.62,-282.12 535.62,-282.12 535.62,-254.88 424.62,-254.88"/>
</g>
<!-- n_0_1_2_4_5_6&#45;&gt;n_1_2 -->
<g id="edge9" class="edge">
<title>n_0_1_2_4_5_6&#45;&gt;n_1_2</title>
<path fill="none" stroke="black" d="M419.93,-337.05C431.91,-323.6 446.02,-307.77 457.57,-294.81"/>
<polygon fill="black" stroke="black" points="460.05,-297.29 464.09,-287.5 454.82,-292.63 460.05,-297.29"/>
</g>
<!-- n_0_5_6 -->
<g id="node4" class="node">
<title>n_0_5_6</title>
<polygon fill="none" stroke="black" points="113,-163 113,-195 201.25,-195 201.25,-163 113,-163"/>
<text text-anchor="start" x="120" y="-180.45" font-family="Times New Roman,serif" font-weight="bold" font-size="9.00">Insufficient weight</text>
<text text-anchor="start" x="137.62" y="-171.45" font-family="Times New Roman,serif" font-weight="bold" font-size="9.00">Obesity II</text>
<polygon fill="none" stroke="black" points="201.25,-163 201.25,-195 257.25,-195 257.25,-163 201.25,-163"/>
<text text-anchor="start" x="208.25" y="-177.07" font-family="Times New Roman,serif" font-weight="bold" font-size="9.00">Obesity III</text>
<polygon fill="none" stroke="black" points="112,-162 112,-196 258.25,-196 258.25,-162 112,-162"/>
</g>
<!-- n_0_4_5_6&#45;&gt;n_0_5_6 -->
<g id="edge3" class="edge">
<title>n_0_4_5_6&#45;&gt;n_0_5_6</title>
<path fill="none" stroke="black" d="M274.58,-243.13C258.41,-231.71 239.11,-218.1 222.59,-206.43"/>
<polygon fill="black" stroke="black" points="224.65,-203.6 214.46,-200.7 220.61,-209.32 224.65,-203.6"/>
</g>
<!-- n_4 -->
<g id="node9" class="node">
<title>n_4</title>
<polygon fill="none" stroke="black" points="304.12,-166.38 304.12,-191.62 354.12,-191.62 354.12,-166.38 304.12,-166.38"/>
<text text-anchor="start" x="311.12" y="-177.07" font-family="Times New Roman,serif" font-weight="bold" font-size="9.00">Obesity I</text>
<polygon fill="none" stroke="black" points="303.12,-165.38 303.12,-192.62 355.12,-192.62 355.12,-165.38 303.12,-165.38"/>
</g>
<!-- n_0_4_5_6&#45;&gt;n_4 -->
<g id="edge8" class="edge">
<title>n_0_4_5_6&#45;&gt;n_4</title>
<path fill="none" stroke="black" d="M314.7,-243.13C317.2,-232.17 320.17,-219.18 322.76,-207.84"/>
<polygon fill="black" stroke="black" points="326.14,-208.77 324.95,-198.25 319.31,-207.21 326.14,-208.77"/>
</g>
<!-- n_0_5 -->
<g id="node5" class="node">
<title>n_0_5</title>
<polygon fill="none" stroke="black" points="41.5,-84.38 41.5,-109.62 129.75,-109.62 129.75,-84.38 41.5,-84.38"/>
<text text-anchor="start" x="48.5" y="-95.08" font-family="Times New Roman,serif" font-weight="bold" font-size="9.00">Insufficient weight</text>
<polygon fill="none" stroke="black" points="129.75,-84.38 129.75,-109.62 182.75,-109.62 182.75,-84.38 129.75,-84.38"/>
<text text-anchor="start" x="136.75" y="-95.08" font-family="Times New Roman,serif" font-weight="bold" font-size="9.00">Obesity II</text>
<polygon fill="none" stroke="black" points="40.5,-83.38 40.5,-110.62 183.75,-110.62 183.75,-83.38 40.5,-83.38"/>
</g>
<!-- n_0_5_6&#45;&gt;n_0_5 -->
<g id="edge4" class="edge">
<title>n_0_5_6&#45;&gt;n_0_5</title>
<path fill="none" stroke="black" d="M167.08,-158.22C157.39,-147.61 145.35,-134.41 135,-123.07"/>
<polygon fill="black" stroke="black" points="137.84,-120.99 128.52,-115.96 132.67,-125.71 137.84,-120.99"/>
</g>
<!-- n_6 -->
<g id="node8" class="node">
<title>n_6</title>
<polygon fill="none" stroke="black" points="230.12,-84.38 230.12,-109.62 286.12,-109.62 286.12,-84.38 230.12,-84.38"/>
<text text-anchor="start" x="237.12" y="-95.08" font-family="Times New Roman,serif" font-weight="bold" font-size="9.00">Obesity III</text>
<polygon fill="none" stroke="black" points="229.12,-83.38 229.12,-110.62 287.12,-110.62 287.12,-83.38 229.12,-83.38"/>
</g>
<!-- n_0_5_6&#45;&gt;n_6 -->
<g id="edge7" class="edge">
<title>n_0_5_6&#45;&gt;n_6</title>
<path fill="none" stroke="black" d="M203.17,-158.22C212.86,-147.61 224.9,-134.41 235.25,-123.07"/>
<polygon fill="black" stroke="black" points="237.58,-125.71 241.73,-115.96 232.41,-120.99 237.58,-125.71"/>
</g>
<!-- n_0 -->
<g id="node6" class="node">
<title>n_0</title>
<polygon fill="none" stroke="black" points="9,-5.38 9,-30.62 97.25,-30.62 97.25,-5.38 9,-5.38"/>
<text text-anchor="start" x="16" y="-16.07" font-family="Times New Roman,serif" font-weight="bold" font-size="9.00">Insufficient weight</text>
<polygon fill="none" stroke="black" points="8,-4.38 8,-31.62 98.25,-31.62 98.25,-4.38 8,-4.38"/>
</g>
<!-- n_0_5&#45;&gt;n_0 -->
<g id="edge5" class="edge">
<title>n_0_5&#45;&gt;n_0</title>
<path fill="none" stroke="black" d="M99.32,-79.29C91.64,-69.27 81.72,-56.31 73.03,-44.98"/>
<polygon fill="black" stroke="black" points="75.89,-42.95 67.03,-37.14 70.33,-47.21 75.89,-42.95"/>
</g>
<!-- n_5 -->
<g id="node7" class="node">
<title>n_5</title>
<polygon fill="none" stroke="black" points="144.62,-5.38 144.62,-30.62 197.62,-30.62 197.62,-5.38 144.62,-5.38"/>
<text text-anchor="start" x="151.62" y="-16.07" font-family="Times New Roman,serif" font-weight="bold" font-size="9.00">Obesity II</text>
<polygon fill="none" stroke="black" points="143.62,-4.38 143.62,-31.62 198.62,-31.62 198.62,-4.38 143.62,-4.38"/>
</g>
<!-- n_0_5&#45;&gt;n_5 -->
<g id="edge6" class="edge">
<title>n_0_5&#45;&gt;n_5</title>
<path fill="none" stroke="black" d="M124.93,-79.29C132.61,-69.27 142.53,-56.31 151.22,-44.98"/>
<polygon fill="black" stroke="black" points="153.92,-47.21 157.22,-37.14 148.36,-42.95 153.92,-47.21"/>
</g>
<!-- n_1 -->
<g id="node11" class="node">
<title>n_1</title>
<polygon fill="none" stroke="black" points="439.12,-166.38 439.12,-191.62 483.12,-191.62 483.12,-166.38 439.12,-166.38"/>
<text text-anchor="start" x="446.12" y="-177.07" font-family="Times New Roman,serif" font-weight="bold" font-size="9.00">Normal</text>
<polygon fill="none" stroke="black" points="438.12,-165.38 438.12,-192.62 484.12,-192.62 484.12,-165.38 438.12,-165.38"/>
</g>
<!-- n_1_2&#45;&gt;n_1 -->
<g id="edge10" class="edge">
<title>n_1_2&#45;&gt;n_1</title>
<path fill="none" stroke="black" d="M476.46,-250.63C473.83,-238.52 470.23,-221.94 467.18,-207.88"/>
<polygon fill="black" stroke="black" points="470.64,-207.33 465.1,-198.3 463.8,-208.81 470.64,-207.33"/>
</g>
<!-- n_2 -->
<g id="node12" class="node">
<title>n_2</title>
<polygon fill="none" stroke="black" points="530.62,-166.38 530.62,-191.62 595.62,-191.62 595.62,-166.38 530.62,-166.38"/>
<text text-anchor="start" x="537.62" y="-177.07" font-family="Times New Roman,serif" font-weight="bold" font-size="9.00">Overweight I</text>
<polygon fill="none" stroke="black" points="529.62,-165.38 529.62,-192.62 596.62,-192.62 596.62,-165.38 529.62,-165.38"/>
</g>
<!-- n_1_2&#45;&gt;n_2 -->
<g id="edge11" class="edge">
<title>n_1_2&#45;&gt;n_2</title>
<path fill="none" stroke="black" d="M496.13,-250.63C508.41,-237.68 525.57,-219.59 539.44,-204.97"/>
<polygon fill="black" stroke="black" points="541.79,-207.58 546.13,-197.92 536.71,-202.76 541.79,-207.58"/>
</g>
</g>
</svg>
