<?xml version="1.0" encoding="UTF-8" standalone="no"?>
<!DOCTYPE svg PUBLIC "-//W3C//DTD SVG 1.1//EN"
 "http://www.w3.org/Graphics/SVG/1.1/DTD/svg11.dtd">
<!-- Generated by graphviz version 10.0.1 (20240210.2158)
 -->
<!-- Title: ND Pages: 1 -->
<svg width="574pt" height="638pt"
 viewBox="0.00 0.00 573.50 638.00" xmlns="http://www.w3.org/2000/svg" xmlns:xlink="http://www.w3.org/1999/xlink">
<g id="graph0" class="graph" transform="scale(1 1) rotate(0) translate(4 634)">
<title>ND</title>
<polygon fill="white" stroke="none" points="-4,4 -4,-634 569.5,-634 569.5,4 -4,4"/>
<!-- n_0_1_2_3_4_5_6 -->
<g id="node1" class="node">
<title>n_0_1_2_3_4_5_6</title>
<polygon fill="none" stroke="black" points="390.38,-557 390.38,-625 478.62,-625 478.62,-557 390.38,-557"/>
<text text-anchor="start" x="397.38" y="-610.45" font-family="Times New Roman,serif" font-weight="bold" font-size="9.00">Insufficient weight</text>
<text text-anchor="start" x="419.5" y="-601.45" font-family="Times New Roman,serif" font-weight="bold" font-size="9.00">Normal</text>
<text text-anchor="start" x="409" y="-592.45" font-family="Times New Roman,serif" font-weight="bold" font-size="9.00">Overweight I</text>
<text text-anchor="start" x="407.5" y="-583.45" font-family="Times New Roman,serif" font-weight="bold" font-size="9.00">Overweight II</text>
<text text-anchor="start" x="415" y="-574.45" font-family="Times New Roman,serif" font-weight="bold" font-size="9.00">Obesity II</text>
<text text-anchor="start" x="413.5" y="-565.45" font-family="Times New Roman,serif" font-weight="bold" font-size="9.00">Obesity III</text>
<polygon fill="none" stroke="black" points="478.62,-557 478.62,-625 528.62,-625 528.62,-557 478.62,-557"/>
<text text-anchor="start" x="485.62" y="-589.08" font-family="Times New Roman,serif" font-weight="bold" font-size="9.00">Obesity I</text>
<polygon fill="none" stroke="black" points="389.38,-556 389.38,-626 529.62,-626 529.62,-556 389.38,-556"/>
</g>
<!-- n_0_1_2_3_5_6 -->
<g id="node2" class="node">
<title>n_0_1_2_3_5_6</title>
<polygon fill="none" stroke="black" points="317.88,-445 317.88,-504 406.12,-504 406.12,-445 317.88,-445"/>
<text text-anchor="start" x="324.88" y="-489.45" font-family="Times New Roman,serif" font-weight="bold" font-size="9.00">Insufficient weight</text>
<text text-anchor="start" x="347" y="-480.45" font-family="Times New Roman,serif" font-weight="bold" font-size="9.00">Normal</text>
<text text-anchor="start" x="336.5" y="-471.45" font-family="Times New Roman,serif" font-weight="bold" font-size="9.00">Overweight I</text>
<text text-anchor="start" x="335" y="-462.45" font-family="Times New Roman,serif" font-weight="bold" font-size="9.00">Overweight II</text>
<text text-anchor="start" x="341" y="-453.45" font-family="Times New Roman,serif" font-weight="bold" font-size="9.00">Obesity III</text>
<polygon fill="none" stroke="black" points="406.12,-445 406.12,-504 459.12,-504 459.12,-445 406.12,-445"/>
<text text-anchor="start" x="413.12" y="-472.57" font-family="Times New Roman,serif" font-weight="bold" font-size="9.00">Obesity II</text>
<polygon fill="none" stroke="black" points="316.88,-444 316.88,-505 460.12,-505 460.12,-444 316.88,-444"/>
</g>
<!-- n_0_1_2_3_4_5_6&#45;&gt;n_0_1_2_3_5_6 -->
<g id="edge1" class="edge">
<title>n_0_1_2_3_4_5_6&#45;&gt;n_0_1_2_3_5_6</title>
<path fill="none" stroke="black" d="M436.06,-552.19C429.31,-541.31 421.9,-529.36 414.98,-518.21"/>
<polygon fill="black" stroke="black" points="418.1,-516.59 409.85,-509.94 412.15,-520.28 418.1,-516.59"/>
</g>
<!-- n_4 -->
<g id="node13" class="node">
<title>n_4</title>
<polygon fill="none" stroke="black" points="506.5,-461.88 506.5,-487.12 556.5,-487.12 556.5,-461.88 506.5,-461.88"/>
<text text-anchor="start" x="513.5" y="-472.57" font-family="Times New Roman,serif" font-weight="bold" font-size="9.00">Obesity I</text>
<polygon fill="none" stroke="black" points="505.5,-460.88 505.5,-488.12 557.5,-488.12 557.5,-460.88 505.5,-460.88"/>
</g>
<!-- n_0_1_2_3_4_5_6&#45;&gt;n_4 -->
<g id="edge12" class="edge">
<title>n_0_1_2_3_4_5_6&#45;&gt;n_4</title>
<path fill="none" stroke="black" d="M483.28,-552.19C493.59,-535.78 505.43,-516.96 514.79,-502.07"/>
<polygon fill="black" stroke="black" points="517.67,-504.07 520.03,-493.74 511.74,-500.35 517.67,-504.07"/>
</g>
<!-- n_0_1_2_3_6 -->
<g id="node3" class="node">
<title>n_0_1_2_3_6</title>
<polygon fill="none" stroke="black" points="252.38,-342 252.38,-392 340.62,-392 340.62,-342 252.38,-342"/>
<text text-anchor="start" x="259.38" y="-377.45" font-family="Times New Roman,serif" font-weight="bold" font-size="9.00">Insufficient weight</text>
<text text-anchor="start" x="271" y="-368.45" font-family="Times New Roman,serif" font-weight="bold" font-size="9.00">Overweight I</text>
<text text-anchor="start" x="269.5" y="-359.45" font-family="Times New Roman,serif" font-weight="bold" font-size="9.00">Overweight II</text>
<text text-anchor="start" x="275.5" y="-350.45" font-family="Times New Roman,serif" font-weight="bold" font-size="9.00">Obesity III</text>
<polygon fill="none" stroke="black" points="340.62,-342 340.62,-392 384.62,-392 384.62,-342 340.62,-342"/>
<text text-anchor="start" x="347.62" y="-365.07" font-family="Times New Roman,serif" font-weight="bold" font-size="9.00">Normal</text>
<polygon fill="none" stroke="black" points="251.38,-341 251.38,-393 385.62,-393 385.62,-341 251.38,-341"/>
</g>
<!-- n_0_1_2_3_5_6&#45;&gt;n_0_1_2_3_6 -->
<g id="edge2" class="edge">
<title>n_0_1_2_3_5_6&#45;&gt;n_0_1_2_3_6</title>
<path fill="none" stroke="black" d="M366.35,-440.12C359.23,-429.38 351.28,-417.4 343.93,-406.33"/>
<polygon fill="black" stroke="black" points="346.96,-404.56 338.51,-398.16 341.12,-408.43 346.96,-404.56"/>
</g>
<!-- n_5 -->
<g id="node12" class="node">
<title>n_5</title>
<polygon fill="none" stroke="black" points="432,-354.38 432,-379.62 485,-379.62 485,-354.38 432,-354.38"/>
<text text-anchor="start" x="439" y="-365.07" font-family="Times New Roman,serif" font-weight="bold" font-size="9.00">Obesity II</text>
<polygon fill="none" stroke="black" points="431,-353.38 431,-380.62 486,-380.62 486,-353.38 431,-353.38"/>
</g>
<!-- n_0_1_2_3_5_6&#45;&gt;n_5 -->
<g id="edge11" class="edge">
<title>n_0_1_2_3_5_6&#45;&gt;n_5</title>
<path fill="none" stroke="black" d="M410.65,-440.12C420.45,-425.35 431.81,-408.23 441,-394.38"/>
<polygon fill="black" stroke="black" points="443.8,-396.48 446.42,-386.21 437.97,-392.61 443.8,-396.48"/>
</g>
<!-- n_0_2_3_6 -->
<g id="node4" class="node">
<title>n_0_2_3_6</title>
<polygon fill="none" stroke="black" points="167.38,-248 167.38,-289 235.38,-289 235.38,-248 167.38,-248"/>
<text text-anchor="start" x="175.88" y="-274.45" font-family="Times New Roman,serif" font-weight="bold" font-size="9.00">Overweight I</text>
<text text-anchor="start" x="174.38" y="-265.45" font-family="Times New Roman,serif" font-weight="bold" font-size="9.00">Overweight II</text>
<text text-anchor="start" x="180.38" y="-256.45" font-family="Times New Roman,serif" font-weight="bold" font-size="9.00">Obesity III</text>
<polygon fill="none" stroke="black" points="235.38,-248 235.38,-289 323.62,-289 323.62,-248 235.38,-248"/>
<text text-anchor="start" x="242.38" y="-266.57" font-family="Times New Roman,serif" font-weight="bold" font-size="9.00">Insufficient weight</text>
<polygon fill="none" stroke="black" points="166.38,-247 166.38,-290 324.62,-290 324.62,-247 166.38,-247"/>
</g>
<!-- n_0_1_2_3_6&#45;&gt;n_0_2_3_6 -->
<g id="edge3" class="edge">
<title>n_0_1_2_3_6&#45;&gt;n_0_2_3_6</title>
<path fill="none" stroke="black" d="M296.6,-337.05C288.46,-326.29 279.16,-314 270.75,-302.88"/>
<polygon fill="black" stroke="black" points="273.68,-300.95 264.85,-295.08 268.09,-305.17 273.68,-300.95"/>
</g>
<!-- n_1 -->
<g id="node11" class="node">
<title>n_1</title>
<polygon fill="none" stroke="black" points="370.5,-255.88 370.5,-281.12 414.5,-281.12 414.5,-255.88 370.5,-255.88"/>
<text text-anchor="start" x="377.5" y="-266.57" font-family="Times New Roman,serif" font-weight="bold" font-size="9.00">Normal</text>
<polygon fill="none" stroke="black" points="369.5,-254.88 369.5,-282.12 415.5,-282.12 415.5,-254.88 369.5,-254.88"/>
</g>
<!-- n_0_1_2_3_6&#45;&gt;n_1 -->
<g id="edge10" class="edge">
<title>n_0_1_2_3_6&#45;&gt;n_1</title>
<path fill="none" stroke="black" d="M340.7,-337.05C350.91,-323.73 362.92,-308.07 372.8,-295.19"/>
<polygon fill="black" stroke="black" points="375.34,-297.63 378.65,-287.57 369.78,-293.37 375.34,-297.63"/>
</g>
<!-- n_2_3_6 -->
<g id="node5" class="node">
<title>n_2_3_6</title>
<polygon fill="none" stroke="black" points="100,-163 100,-195 165,-195 165,-163 100,-163"/>
<text text-anchor="start" x="107" y="-180.45" font-family="Times New Roman,serif" font-weight="bold" font-size="9.00">Overweight I</text>
<text text-anchor="start" x="111.5" y="-171.45" font-family="Times New Roman,serif" font-weight="bold" font-size="9.00">Obesity III</text>
<polygon fill="none" stroke="black" points="165,-163 165,-195 233,-195 233,-163 165,-163"/>
<text text-anchor="start" x="172" y="-177.07" font-family="Times New Roman,serif" font-weight="bold" font-size="9.00">Overweight II</text>
<polygon fill="none" stroke="black" points="99,-162 99,-196 234,-196 234,-162 99,-162"/>
</g>
<!-- n_0_2_3_6&#45;&gt;n_2_3_6 -->
<g id="edge4" class="edge">
<title>n_0_2_3_6&#45;&gt;n_2_3_6</title>
<path fill="none" stroke="black" d="M223.49,-243.13C213.67,-232.25 202.04,-219.36 191.85,-208.08"/>
<polygon fill="black" stroke="black" points="194.71,-206.03 185.41,-200.95 189.52,-210.72 194.71,-206.03"/>
</g>
<!-- n_0 -->
<g id="node10" class="node">
<title>n_0</title>
<polygon fill="none" stroke="black" points="280.38,-166.38 280.38,-191.62 368.62,-191.62 368.62,-166.38 280.38,-166.38"/>
<text text-anchor="start" x="287.38" y="-177.07" font-family="Times New Roman,serif" font-weight="bold" font-size="9.00">Insufficient weight</text>
<polygon fill="none" stroke="black" points="279.38,-165.38 279.38,-192.62 369.62,-192.62 369.62,-165.38 279.38,-165.38"/>
</g>
<!-- n_0_2_3_6&#45;&gt;n_0 -->
<g id="edge9" class="edge">
<title>n_0_2_3_6&#45;&gt;n_0</title>
<path fill="none" stroke="black" d="M267.51,-243.13C278.23,-231.24 291.12,-216.97 301.92,-205.01"/>
<polygon fill="black" stroke="black" points="304.24,-207.66 308.34,-197.89 299.05,-202.97 304.24,-207.66"/>
</g>
<!-- n_2_6 -->
<g id="node6" class="node">
<title>n_2_6</title>
<polygon fill="none" stroke="black" points="35,-84.38 35,-109.62 100,-109.62 100,-84.38 35,-84.38"/>
<text text-anchor="start" x="42" y="-95.08" font-family="Times New Roman,serif" font-weight="bold" font-size="9.00">Overweight I</text>
<polygon fill="none" stroke="black" points="100,-84.38 100,-109.62 156,-109.62 156,-84.38 100,-84.38"/>
<text text-anchor="start" x="107" y="-95.08" font-family="Times New Roman,serif" font-weight="bold" font-size="9.00">Obesity III</text>
<polygon fill="none" stroke="black" points="34,-83.38 34,-110.62 157,-110.62 157,-83.38 34,-83.38"/>
</g>
<!-- n_2_3_6&#45;&gt;n_2_6 -->
<g id="edge5" class="edge">
<title>n_2_3_6&#45;&gt;n_2_6</title>
<path fill="none" stroke="black" d="M148.95,-158.22C139.62,-147.71 128.04,-134.66 118.05,-123.41"/>
<polygon fill="black" stroke="black" points="120.71,-121.13 111.45,-115.98 115.47,-125.78 120.71,-121.13"/>
</g>
<!-- n_3 -->
<g id="node9" class="node">
<title>n_3</title>
<polygon fill="none" stroke="black" points="203.5,-84.38 203.5,-109.62 271.5,-109.62 271.5,-84.38 203.5,-84.38"/>
<text text-anchor="start" x="210.5" y="-95.08" font-family="Times New Roman,serif" font-weight="bold" font-size="9.00">Overweight II</text>
<polygon fill="none" stroke="black" points="202.5,-83.38 202.5,-110.62 272.5,-110.62 272.5,-83.38 202.5,-83.38"/>
</g>
<!-- n_2_3_6&#45;&gt;n_3 -->
<g id="edge8" class="edge">
<title>n_2_3_6&#45;&gt;n_3</title>
<path fill="none" stroke="black" d="M184.05,-158.22C193.38,-147.71 204.96,-134.66 214.95,-123.41"/>
<polygon fill="black" stroke="black" points="217.53,-125.78 221.55,-115.98 212.29,-121.13 217.53,-125.78"/>
</g>
<!-- n_2 -->
<g id="node7" class="node">
<title>n_2</title>
<polygon fill="none" stroke="black" points="9,-5.38 9,-30.62 74,-30.62 74,-5.38 9,-5.38"/>
<text text-anchor="start" x="16" y="-16.07" font-family="Times New Roman,serif" font-weight="bold" font-size="9.00">Overweight I</text>
<polygon fill="none" stroke="black" points="8,-4.38 8,-31.62 75,-31.62 75,-4.38 8,-4.38"/>
</g>
<!-- n_2_6&#45;&gt;n_2 -->
<g id="edge6" class="edge">
<title>n_2_6&#45;&gt;n_2</title>
<path fill="none" stroke="black" d="M83.78,-79.29C76.83,-69.37 67.85,-56.57 59.96,-45.32"/>
<polygon fill="black" stroke="black" points="62.86,-43.36 54.25,-37.18 57.13,-47.38 62.86,-43.36"/>
</g>
<!-- n_6 -->
<g id="node8" class="node">
<title>n_6</title>
<polygon fill="none" stroke="black" points="121.5,-5.38 121.5,-30.62 177.5,-30.62 177.5,-5.38 121.5,-5.38"/>
<text text-anchor="start" x="128.5" y="-16.07" font-family="Times New Roman,serif" font-weight="bold" font-size="9.00">Obesity III</text>
<polygon fill="none" stroke="black" points="120.5,-4.38 120.5,-31.62 178.5,-31.62 178.5,-4.38 120.5,-4.38"/>
</g>
<!-- n_2_6&#45;&gt;n_6 -->
<g id="edge7" class="edge">
<title>n_2_6&#45;&gt;n_6</title>
<path fill="none" stroke="black" d="M107.22,-79.29C114.17,-69.37 123.15,-56.57 131.04,-45.32"/>
<polygon fill="black" stroke="black" points="133.87,-47.38 136.75,-37.18 128.14,-43.36 133.87,-47.38"/>
</g>
</g>
</svg>
