<?xml version="1.0" encoding="UTF-8" standalone="no"?>
<!DOCTYPE svg PUBLIC "-//W3C//DTD SVG 1.1//EN"
 "http://www.w3.org/Graphics/SVG/1.1/DTD/svg11.dtd">
<!-- Generated by graphviz version 10.0.1 (20240210.2158)
 -->
<!-- Title: ND Pages: 1 -->
<svg width="626pt" height="526pt"
 viewBox="0.00 0.00 626.12 526.00" xmlns="http://www.w3.org/2000/svg" xmlns:xlink="http://www.w3.org/1999/xlink">
<g id="graph0" class="graph" transform="scale(1 1) rotate(0) translate(4 522)">
<title>ND</title>
<polygon fill="white" stroke="none" points="-4,4 -4,-522 622.12,-522 622.12,4 -4,4"/>
<!-- n_0_1_2_3_4_5_6 -->
<g id="node1" class="node">
<title>n_0_1_2_3_4_5_6</title>
<polygon fill="none" stroke="black" points="410,-445 410,-513 498.25,-513 498.25,-445 410,-445"/>
<text text-anchor="start" x="417" y="-498.45" font-family="Times New Roman,serif" font-weight="bold" font-size="9.00">Insufficient weight</text>
<text text-anchor="start" x="439.12" y="-489.45" font-family="Times New Roman,serif" font-weight="bold" font-size="9.00">Normal</text>
<text text-anchor="start" x="428.62" y="-480.45" font-family="Times New Roman,serif" font-weight="bold" font-size="9.00">Overweight I</text>
<text text-anchor="start" x="427.12" y="-471.45" font-family="Times New Roman,serif" font-weight="bold" font-size="9.00">Overweight II</text>
<text text-anchor="start" x="434.62" y="-462.45" font-family="Times New Roman,serif" font-weight="bold" font-size="9.00">Obesity II</text>
<text text-anchor="start" x="433.12" y="-453.45" font-family="Times New Roman,serif" font-weight="bold" font-size="9.00">Obesity III</text>
<polygon fill="none" stroke="black" points="498.25,-445 498.25,-513 548.25,-513 548.25,-445 498.25,-445"/>
<text text-anchor="start" x="505.25" y="-477.07" font-family="Times New Roman,serif" font-weight="bold" font-size="9.00">Obesity I</text>
<polygon fill="none" stroke="black" points="409,-444 409,-514 549.25,-514 549.25,-444 409,-444"/>
</g>
<!-- n_0_1_2_3_5_6 -->
<g id="node2" class="node">
<title>n_0_1_2_3_5_6</title>
<polygon fill="none" stroke="black" points="326,-342 326,-392 414.25,-392 414.25,-342 326,-342"/>
<text text-anchor="start" x="333" y="-377.45" font-family="Times New Roman,serif" font-weight="bold" font-size="9.00">Insufficient weight</text>
<text text-anchor="start" x="344.62" y="-368.45" font-family="Times New Roman,serif" font-weight="bold" font-size="9.00">Overweight I</text>
<text text-anchor="start" x="350.62" y="-359.45" font-family="Times New Roman,serif" font-weight="bold" font-size="9.00">Obesity II</text>
<text text-anchor="start" x="349.12" y="-350.45" font-family="Times New Roman,serif" font-weight="bold" font-size="9.00">Obesity III</text>
<polygon fill="none" stroke="black" points="414.25,-342 414.25,-392 482.25,-392 482.25,-342 414.25,-342"/>
<text text-anchor="start" x="433.25" y="-368.45" font-family="Times New Roman,serif" font-weight="bold" font-size="9.00">Normal</text>
<text text-anchor="start" x="421.25" y="-359.45" font-family="Times New Roman,serif" font-weight="bold" font-size="9.00">Overweight II</text>
<polygon fill="none" stroke="black" points="325,-341 325,-393 483.25,-393 483.25,-341 325,-341"/>
</g>
<!-- n_0_1_2_3_4_5_6&#45;&gt;n_0_1_2_3_5_6 -->
<g id="edge1" class="edge">
<title>n_0_1_2_3_4_5_6&#45;&gt;n_0_1_2_3_5_6</title>
<path fill="none" stroke="black" d="M453.31,-440.14C445.84,-429.19 437.68,-417.22 430.19,-406.23"/>
<polygon fill="black" stroke="black" points="433.2,-404.43 424.67,-398.14 427.42,-408.37 433.2,-404.43"/>
</g>
<!-- n_4 -->
<g id="node13" class="node">
<title>n_4</title>
<polygon fill="none" stroke="black" points="529.12,-354.38 529.12,-379.62 579.12,-379.62 579.12,-354.38 529.12,-354.38"/>
<text text-anchor="start" x="536.12" y="-365.07" font-family="Times New Roman,serif" font-weight="bold" font-size="9.00">Obesity I</text>
<polygon fill="none" stroke="black" points="528.12,-353.38 528.12,-380.62 580.12,-380.62 580.12,-353.38 528.12,-353.38"/>
</g>
<!-- n_0_1_2_3_4_5_6&#45;&gt;n_4 -->
<g id="edge12" class="edge">
<title>n_0_1_2_3_4_5_6&#45;&gt;n_4</title>
<path fill="none" stroke="black" d="M504.94,-440.14C515.23,-425.04 526.84,-408.02 536.19,-394.31"/>
<polygon fill="black" stroke="black" points="538.95,-396.47 541.69,-386.23 533.17,-392.52 538.95,-396.47"/>
</g>
<!-- n_0_2_5_6 -->
<g id="node3" class="node">
<title>n_0_2_5_6</title>
<polygon fill="none" stroke="black" points="246.5,-248 246.5,-289 334.75,-289 334.75,-248 246.5,-248"/>
<text text-anchor="start" x="253.5" y="-274.45" font-family="Times New Roman,serif" font-weight="bold" font-size="9.00">Insufficient weight</text>
<text text-anchor="start" x="265.12" y="-265.45" font-family="Times New Roman,serif" font-weight="bold" font-size="9.00">Overweight I</text>
<text text-anchor="start" x="269.62" y="-256.45" font-family="Times New Roman,serif" font-weight="bold" font-size="9.00">Obesity III</text>
<polygon fill="none" stroke="black" points="334.75,-248 334.75,-289 387.75,-289 387.75,-248 334.75,-248"/>
<text text-anchor="start" x="341.75" y="-266.57" font-family="Times New Roman,serif" font-weight="bold" font-size="9.00">Obesity II</text>
<polygon fill="none" stroke="black" points="245.5,-247 245.5,-290 388.75,-290 388.75,-247 245.5,-247"/>
</g>
<!-- n_0_1_2_3_5_6&#45;&gt;n_0_2_5_6 -->
<g id="edge2" class="edge">
<title>n_0_1_2_3_5_6&#45;&gt;n_0_2_5_6</title>
<path fill="none" stroke="black" d="M378.02,-337.05C368.13,-326.08 356.8,-313.51 346.62,-302.22"/>
<polygon fill="black" stroke="black" points="349.41,-300.08 340.11,-295 344.21,-304.77 349.41,-300.08"/>
</g>
<!-- n_1_3 -->
<g id="node10" class="node">
<title>n_1_3</title>
<polygon fill="none" stroke="black" points="435.12,-255.88 435.12,-281.12 479.12,-281.12 479.12,-255.88 435.12,-255.88"/>
<text text-anchor="start" x="442.12" y="-266.57" font-family="Times New Roman,serif" font-weight="bold" font-size="9.00">Normal</text>
<polygon fill="none" stroke="black" points="479.12,-255.88 479.12,-281.12 547.12,-281.12 547.12,-255.88 479.12,-255.88"/>
<text text-anchor="start" x="486.12" y="-266.57" font-family="Times New Roman,serif" font-weight="bold" font-size="9.00">Overweight II</text>
<polygon fill="none" stroke="black" points="434.12,-254.88 434.12,-282.12 548.12,-282.12 548.12,-254.88 434.12,-254.88"/>
</g>
<!-- n_0_1_2_3_5_6&#45;&gt;n_1_3 -->
<g id="edge9" class="edge">
<title>n_0_1_2_3_5_6&#45;&gt;n_1_3</title>
<path fill="none" stroke="black" d="M430.23,-337.05C442.35,-323.6 456.62,-307.77 468.3,-294.81"/>
<polygon fill="black" stroke="black" points="470.81,-297.26 474.91,-287.49 465.61,-292.57 470.81,-297.26"/>
</g>
<!-- n_0_2_6 -->
<g id="node4" class="node">
<title>n_0_2_6</title>
<polygon fill="none" stroke="black" points="119,-163 119,-195 207.25,-195 207.25,-163 119,-163"/>
<text text-anchor="start" x="126" y="-180.45" font-family="Times New Roman,serif" font-weight="bold" font-size="9.00">Insufficient weight</text>
<text text-anchor="start" x="137.62" y="-171.45" font-family="Times New Roman,serif" font-weight="bold" font-size="9.00">Overweight I</text>
<polygon fill="none" stroke="black" points="207.25,-163 207.25,-195 263.25,-195 263.25,-163 207.25,-163"/>
<text text-anchor="start" x="214.25" y="-177.07" font-family="Times New Roman,serif" font-weight="bold" font-size="9.00">Obesity III</text>
<polygon fill="none" stroke="black" points="118,-162 118,-196 264.25,-196 264.25,-162 118,-162"/>
</g>
<!-- n_0_2_5_6&#45;&gt;n_0_2_6 -->
<g id="edge3" class="edge">
<title>n_0_2_5_6&#45;&gt;n_0_2_6</title>
<path fill="none" stroke="black" d="M282.03,-243.13C265.44,-231.61 245.62,-217.84 228.72,-206.11"/>
<polygon fill="black" stroke="black" points="231.13,-203.52 220.92,-200.69 227.14,-209.27 231.13,-203.52"/>
</g>
<!-- n_5 -->
<g id="node9" class="node">
<title>n_5</title>
<polygon fill="none" stroke="black" points="310.62,-166.38 310.62,-191.62 363.62,-191.62 363.62,-166.38 310.62,-166.38"/>
<text text-anchor="start" x="317.62" y="-177.07" font-family="Times New Roman,serif" font-weight="bold" font-size="9.00">Obesity II</text>
<polygon fill="none" stroke="black" points="309.62,-165.38 309.62,-192.62 364.62,-192.62 364.62,-165.38 309.62,-165.38"/>
</g>
<!-- n_0_2_5_6&#45;&gt;n_5 -->
<g id="edge8" class="edge">
<title>n_0_2_5_6&#45;&gt;n_5</title>
<path fill="none" stroke="black" d="M322.7,-243.13C325.2,-232.17 328.17,-219.18 330.76,-207.84"/>
<polygon fill="black" stroke="black" points="334.14,-208.77 332.95,-198.25 327.31,-207.21 334.14,-208.77"/>
</g>
<!-- n_0_2 -->
<g id="node5" class="node">
<title>n_0_2</title>
<polygon fill="none" stroke="black" points="38.5,-84.38 38.5,-109.62 126.75,-109.62 126.75,-84.38 38.5,-84.38"/>
<text text-anchor="start" x="45.5" y="-95.08" font-family="Times New Roman,serif" font-weight="bold" font-size="9.00">Insufficient weight</text>
<polygon fill="none" stroke="black" points="126.75,-84.38 126.75,-109.62 191.75,-109.62 191.75,-84.38 126.75,-84.38"/>
<text text-anchor="start" x="133.75" y="-95.08" font-family="Times New Roman,serif" font-weight="bold" font-size="9.00">Overweight I</text>
<polygon fill="none" stroke="black" points="37.5,-83.38 37.5,-110.62 192.75,-110.62 192.75,-83.38 37.5,-83.38"/>
</g>
<!-- n_0_2_6&#45;&gt;n_0_2 -->
<g id="edge4" class="edge">
<title>n_0_2_6&#45;&gt;n_0_2</title>
<path fill="none" stroke="black" d="M172.34,-158.22C162.25,-147.61 149.71,-134.41 138.94,-123.07"/>
<polygon fill="black" stroke="black" points="141.59,-120.78 132.17,-115.94 136.52,-125.6 141.59,-120.78"/>
</g>
<!-- n_6 -->
<g id="node8" class="node">
<title>n_6</title>
<polygon fill="none" stroke="black" points="239.12,-84.38 239.12,-109.62 295.12,-109.62 295.12,-84.38 239.12,-84.38"/>
<text text-anchor="start" x="246.12" y="-95.08" font-family="Times New Roman,serif" font-weight="bold" font-size="9.00">Obesity III</text>
<polygon fill="none" stroke="black" points="238.12,-83.38 238.12,-110.62 296.12,-110.62 296.12,-83.38 238.12,-83.38"/>
</g>
<!-- n_0_2_6&#45;&gt;n_6 -->
<g id="edge7" class="edge">
<title>n_0_2_6&#45;&gt;n_6</title>
<path fill="none" stroke="black" d="M209.91,-158.22C220,-147.61 232.54,-134.41 243.31,-123.07"/>
<polygon fill="black" stroke="black" points="245.73,-125.6 250.08,-115.94 240.66,-120.78 245.73,-125.6"/>
</g>
<!-- n_0 -->
<g id="node6" class="node">
<title>n_0</title>
<polygon fill="none" stroke="black" points="9,-5.38 9,-30.62 97.25,-30.62 97.25,-5.38 9,-5.38"/>
<text text-anchor="start" x="16" y="-16.07" font-family="Times New Roman,serif" font-weight="bold" font-size="9.00">Insufficient weight</text>
<polygon fill="none" stroke="black" points="8,-4.38 8,-31.62 98.25,-31.62 98.25,-4.38 8,-4.38"/>
</g>
<!-- n_0_2&#45;&gt;n_0 -->
<g id="edge5" class="edge">
<title>n_0_2&#45;&gt;n_0</title>
<path fill="none" stroke="black" d="M101.67,-79.29C93.52,-69.17 82.96,-56.05 73.77,-44.64"/>
<polygon fill="black" stroke="black" points="76.71,-42.71 67.72,-37.12 71.26,-47.1 76.71,-42.71"/>
</g>
<!-- n_2 -->
<g id="node7" class="node">
<title>n_2</title>
<polygon fill="none" stroke="black" points="144.62,-5.38 144.62,-30.62 209.62,-30.62 209.62,-5.38 144.62,-5.38"/>
<text text-anchor="start" x="151.62" y="-16.07" font-family="Times New Roman,serif" font-weight="bold" font-size="9.00">Overweight I</text>
<polygon fill="none" stroke="black" points="143.62,-4.38 143.62,-31.62 210.62,-31.62 210.62,-4.38 143.62,-4.38"/>
</g>
<!-- n_0_2&#45;&gt;n_2 -->
<g id="edge6" class="edge">
<title>n_0_2&#45;&gt;n_2</title>
<path fill="none" stroke="black" d="M128.58,-79.29C136.73,-69.17 147.29,-56.05 156.48,-44.64"/>
<polygon fill="black" stroke="black" points="158.99,-47.1 162.53,-37.12 153.54,-42.71 158.99,-47.1"/>
</g>
<!-- n_1 -->
<g id="node11" class="node">
<title>n_1</title>
<polygon fill="none" stroke="black" points="450.12,-166.38 450.12,-191.62 494.12,-191.62 494.12,-166.38 450.12,-166.38"/>
<text text-anchor="start" x="457.12" y="-177.07" font-family="Times New Roman,serif" font-weight="bold" font-size="9.00">Normal</text>
<polygon fill="none" stroke="black" points="449.12,-165.38 449.12,-192.62 495.12,-192.62 495.12,-165.38 449.12,-165.38"/>
</g>
<!-- n_1_3&#45;&gt;n_1 -->
<g id="edge10" class="edge">
<title>n_1_3&#45;&gt;n_1</title>
<path fill="none" stroke="black" d="M487.46,-250.63C484.83,-238.52 481.23,-221.94 478.18,-207.88"/>
<polygon fill="black" stroke="black" points="481.64,-207.33 476.1,-198.3 474.8,-208.81 481.64,-207.33"/>
</g>
<!-- n_3 -->
<g id="node12" class="node">
<title>n_3</title>
<polygon fill="none" stroke="black" points="541.12,-166.38 541.12,-191.62 609.12,-191.62 609.12,-166.38 541.12,-166.38"/>
<text text-anchor="start" x="548.12" y="-177.07" font-family="Times New Roman,serif" font-weight="bold" font-size="9.00">Overweight II</text>
<polygon fill="none" stroke="black" points="540.12,-165.38 540.12,-192.62 610.12,-192.62 610.12,-165.38 540.12,-165.38"/>
</g>
<!-- n_1_3&#45;&gt;n_3 -->
<g id="edge11" class="edge">
<title>n_1_3&#45;&gt;n_3</title>
<path fill="none" stroke="black" d="M507.32,-250.63C519.76,-237.68 537.12,-219.59 551.16,-204.97"/>
<polygon fill="black" stroke="black" points="553.53,-207.55 557.93,-197.91 548.48,-202.7 553.53,-207.55"/>
</g>
</g>
</svg>
