<?xml version="1.0" encoding="UTF-8" standalone="no"?>
<!DOCTYPE svg PUBLIC "-//W3C//DTD SVG 1.1//EN"
 "http://www.w3.org/Graphics/SVG/1.1/DTD/svg11.dtd">
<!-- Generated by graphviz version 10.0.1 (20240210.2158)
 -->
<!-- Title: ND Pages: 1 -->
<svg width="616pt" height="405pt"
 viewBox="0.00 0.00 616.12 405.00" xmlns="http://www.w3.org/2000/svg" xmlns:xlink="http://www.w3.org/1999/xlink">
<g id="graph0" class="graph" transform="scale(1 1) rotate(0) translate(4 401)">
<title>ND</title>
<polygon fill="white" stroke="none" points="-4,4 -4,-401 612.12,-401 612.12,4 -4,4"/>
<!-- n_0_1_2_3_4_5_6 -->
<g id="node1" class="node">
<title>n_0_1_2_3_4_5_6</title>
<polygon fill="none" stroke="black" points="309,-342 309,-392 397.25,-392 397.25,-342 309,-342"/>
<text text-anchor="start" x="316" y="-377.45" font-family="Times New Roman,serif" font-weight="bold" font-size="9.00">Insufficient weight</text>
<text text-anchor="start" x="327.62" y="-368.45" font-family="Times New Roman,serif" font-weight="bold" font-size="9.00">Overweight I</text>
<text text-anchor="start" x="326.12" y="-359.45" font-family="Times New Roman,serif" font-weight="bold" font-size="9.00">Overweight II</text>
<text text-anchor="start" x="333.62" y="-350.45" font-family="Times New Roman,serif" font-weight="bold" font-size="9.00">Obesity II</text>
<polygon fill="none" stroke="black" points="397.25,-342 397.25,-392 453.25,-392 453.25,-342 397.25,-342"/>
<text text-anchor="start" x="410.25" y="-372.95" font-family="Times New Roman,serif" font-weight="bold" font-size="9.00">Normal</text>
<text text-anchor="start" x="407.25" y="-363.95" font-family="Times New Roman,serif" font-weight="bold" font-size="9.00">Obesity I</text>
<text text-anchor="start" x="404.25" y="-354.95" font-family="Times New Roman,serif" font-weight="bold" font-size="9.00">Obesity III</text>
<polygon fill="none" stroke="black" points="308,-341 308,-393 454.25,-393 454.25,-341 308,-341"/>
</g>
<!-- n_0_2_3_5 -->
<g id="node2" class="node">
<title>n_0_2_3_5</title>
<polygon fill="none" stroke="black" points="226.5,-248 226.5,-289 314.75,-289 314.75,-248 226.5,-248"/>
<text text-anchor="start" x="233.5" y="-274.45" font-family="Times New Roman,serif" font-weight="bold" font-size="9.00">Insufficient weight</text>
<text text-anchor="start" x="245.12" y="-265.45" font-family="Times New Roman,serif" font-weight="bold" font-size="9.00">Overweight I</text>
<text text-anchor="start" x="243.62" y="-256.45" font-family="Times New Roman,serif" font-weight="bold" font-size="9.00">Overweight II</text>
<polygon fill="none" stroke="black" points="314.75,-248 314.75,-289 367.75,-289 367.75,-248 314.75,-248"/>
<text text-anchor="start" x="321.75" y="-266.57" font-family="Times New Roman,serif" font-weight="bold" font-size="9.00">Obesity II</text>
<polygon fill="none" stroke="black" points="225.5,-247 225.5,-290 368.75,-290 368.75,-247 225.5,-247"/>
</g>
<!-- n_0_1_2_3_4_5_6&#45;&gt;n_0_2_3_5 -->
<g id="edge1" class="edge">
<title>n_0_1_2_3_4_5_6&#45;&gt;n_0_2_3_5</title>
<path fill="none" stroke="black" d="M355.92,-337.05C346.47,-326.18 335.65,-313.76 325.89,-302.55"/>
<polygon fill="black" stroke="black" points="328.54,-300.26 319.34,-295.02 323.26,-304.86 328.54,-300.26"/>
</g>
<!-- n_1_4_6 -->
<g id="node9" class="node">
<title>n_1_4_6</title>
<polygon fill="none" stroke="black" points="415.12,-252.5 415.12,-284.5 471.12,-284.5 471.12,-252.5 415.12,-252.5"/>
<text text-anchor="start" x="425.12" y="-269.95" font-family="Times New Roman,serif" font-weight="bold" font-size="9.00">Obesity I</text>
<text text-anchor="start" x="422.12" y="-260.95" font-family="Times New Roman,serif" font-weight="bold" font-size="9.00">Obesity III</text>
<polygon fill="none" stroke="black" points="471.12,-252.5 471.12,-284.5 515.12,-284.5 515.12,-252.5 471.12,-252.5"/>
<text text-anchor="start" x="478.12" y="-266.57" font-family="Times New Roman,serif" font-weight="bold" font-size="9.00">Normal</text>
<polygon fill="none" stroke="black" points="414.12,-251.5 414.12,-285.5 516.12,-285.5 516.12,-251.5 414.12,-251.5"/>
</g>
<!-- n_0_1_2_3_4_5_6&#45;&gt;n_1_4_6 -->
<g id="edge8" class="edge">
<title>n_0_1_2_3_4_5_6&#45;&gt;n_1_4_6</title>
<path fill="none" stroke="black" d="M406.33,-337.05C417.14,-324.63 429.73,-310.17 440.48,-297.82"/>
<polygon fill="black" stroke="black" points="443.01,-300.24 446.93,-290.4 437.73,-295.65 443.01,-300.24"/>
</g>
<!-- n_0_2_3 -->
<g id="node3" class="node">
<title>n_0_2_3</title>
<polygon fill="none" stroke="black" points="81.5,-163 81.5,-195 169.75,-195 169.75,-163 81.5,-163"/>
<text text-anchor="start" x="88.5" y="-180.45" font-family="Times New Roman,serif" font-weight="bold" font-size="9.00">Insufficient weight</text>
<text text-anchor="start" x="98.62" y="-171.45" font-family="Times New Roman,serif" font-weight="bold" font-size="9.00">Overweight II</text>
<polygon fill="none" stroke="black" points="169.75,-163 169.75,-195 234.75,-195 234.75,-163 169.75,-163"/>
<text text-anchor="start" x="176.75" y="-177.07" font-family="Times New Roman,serif" font-weight="bold" font-size="9.00">Overweight I</text>
<polygon fill="none" stroke="black" points="80.5,-162 80.5,-196 235.75,-196 235.75,-162 80.5,-162"/>
</g>
<!-- n_0_2_3_5&#45;&gt;n_0_2_3 -->
<g id="edge2" class="edge">
<title>n_0_2_3_5&#45;&gt;n_0_2_3</title>
<path fill="none" stroke="black" d="M258.41,-243.13C240.02,-231.55 218.03,-217.71 199.34,-205.94"/>
<polygon fill="black" stroke="black" points="201.23,-203 190.9,-200.63 197.5,-208.92 201.23,-203"/>
</g>
<!-- n_5 -->
<g id="node8" class="node">
<title>n_5</title>
<polygon fill="none" stroke="black" points="281.62,-166.38 281.62,-191.62 334.62,-191.62 334.62,-166.38 281.62,-166.38"/>
<text text-anchor="start" x="288.62" y="-177.07" font-family="Times New Roman,serif" font-weight="bold" font-size="9.00">Obesity II</text>
<polygon fill="none" stroke="black" points="280.62,-165.38 280.62,-192.62 335.62,-192.62 335.62,-165.38 280.62,-165.38"/>
</g>
<!-- n_0_2_3_5&#45;&gt;n_5 -->
<g id="edge7" class="edge">
<title>n_0_2_3_5&#45;&gt;n_5</title>
<path fill="none" stroke="black" d="M300.19,-243.13C301.57,-232.17 303.2,-219.18 304.63,-207.84"/>
<polygon fill="black" stroke="black" points="308.05,-208.63 305.83,-198.27 301.11,-207.76 308.05,-208.63"/>
</g>
<!-- n_0_3 -->
<g id="node4" class="node">
<title>n_0_3</title>
<polygon fill="none" stroke="black" points="37,-84.38 37,-109.62 125.25,-109.62 125.25,-84.38 37,-84.38"/>
<text text-anchor="start" x="44" y="-95.08" font-family="Times New Roman,serif" font-weight="bold" font-size="9.00">Insufficient weight</text>
<polygon fill="none" stroke="black" points="125.25,-84.38 125.25,-109.62 193.25,-109.62 193.25,-84.38 125.25,-84.38"/>
<text text-anchor="start" x="132.25" y="-95.08" font-family="Times New Roman,serif" font-weight="bold" font-size="9.00">Overweight II</text>
<polygon fill="none" stroke="black" points="36,-83.38 36,-110.62 194.25,-110.62 194.25,-83.38 36,-83.38"/>
</g>
<!-- n_0_2_3&#45;&gt;n_0_3 -->
<g id="edge3" class="edge">
<title>n_0_2_3&#45;&gt;n_0_3</title>
<path fill="none" stroke="black" d="M147.5,-158.22C142.07,-148.13 135.39,-135.69 129.5,-124.75"/>
<polygon fill="black" stroke="black" points="132.71,-123.33 124.9,-116.18 126.55,-126.64 132.71,-123.33"/>
</g>
<!-- n_2 -->
<g id="node7" class="node">
<title>n_2</title>
<polygon fill="none" stroke="black" points="240.62,-84.38 240.62,-109.62 305.62,-109.62 305.62,-84.38 240.62,-84.38"/>
<text text-anchor="start" x="247.62" y="-95.08" font-family="Times New Roman,serif" font-weight="bold" font-size="9.00">Overweight I</text>
<polygon fill="none" stroke="black" points="239.62,-83.38 239.62,-110.62 306.62,-110.62 306.62,-83.38 239.62,-83.38"/>
</g>
<!-- n_0_2_3&#45;&gt;n_2 -->
<g id="edge6" class="edge">
<title>n_0_2_3&#45;&gt;n_2</title>
<path fill="none" stroke="black" d="M186.85,-158.02C202.86,-146.88 222.89,-132.94 239.62,-121.31"/>
<polygon fill="black" stroke="black" points="241.58,-124.21 247.79,-115.62 237.58,-118.46 241.58,-124.21"/>
</g>
<!-- n_0 -->
<g id="node5" class="node">
<title>n_0</title>
<polygon fill="none" stroke="black" points="9,-5.38 9,-30.62 97.25,-30.62 97.25,-5.38 9,-5.38"/>
<text text-anchor="start" x="16" y="-16.07" font-family="Times New Roman,serif" font-weight="bold" font-size="9.00">Insufficient weight</text>
<polygon fill="none" stroke="black" points="8,-4.38 8,-31.62 98.25,-31.62 98.25,-4.38 8,-4.38"/>
</g>
<!-- n_0_3&#45;&gt;n_0 -->
<g id="edge4" class="edge">
<title>n_0_3&#45;&gt;n_0</title>
<path fill="none" stroke="black" d="M101.67,-79.29C93.52,-69.17 82.96,-56.05 73.77,-44.64"/>
<polygon fill="black" stroke="black" points="76.71,-42.71 67.72,-37.12 71.26,-47.1 76.71,-42.71"/>
</g>
<!-- n_3 -->
<g id="node6" class="node">
<title>n_3</title>
<polygon fill="none" stroke="black" points="144.12,-5.38 144.12,-30.62 212.12,-30.62 212.12,-5.38 144.12,-5.38"/>
<text text-anchor="start" x="151.12" y="-16.07" font-family="Times New Roman,serif" font-weight="bold" font-size="9.00">Overweight II</text>
<polygon fill="none" stroke="black" points="143.12,-4.38 143.12,-31.62 213.12,-31.62 213.12,-4.38 143.12,-4.38"/>
</g>
<!-- n_0_3&#45;&gt;n_3 -->
<g id="edge5" class="edge">
<title>n_0_3&#45;&gt;n_3</title>
<path fill="none" stroke="black" d="M128.8,-79.29C137.08,-69.17 147.81,-56.05 157.15,-44.64"/>
<polygon fill="black" stroke="black" points="159.68,-47.07 163.31,-37.11 154.26,-42.64 159.68,-47.07"/>
</g>
<!-- n_4_6 -->
<g id="node10" class="node">
<title>n_4_6</title>
<polygon fill="none" stroke="black" points="402.12,-166.38 402.12,-191.62 452.12,-191.62 452.12,-166.38 402.12,-166.38"/>
<text text-anchor="start" x="409.12" y="-177.07" font-family="Times New Roman,serif" font-weight="bold" font-size="9.00">Obesity I</text>
<polygon fill="none" stroke="black" points="452.12,-166.38 452.12,-191.62 508.12,-191.62 508.12,-166.38 452.12,-166.38"/>
<text text-anchor="start" x="459.12" y="-177.07" font-family="Times New Roman,serif" font-weight="bold" font-size="9.00">Obesity III</text>
<polygon fill="none" stroke="black" points="401.12,-165.38 401.12,-192.62 509.12,-192.62 509.12,-165.38 401.12,-165.38"/>
</g>
<!-- n_1_4_6&#45;&gt;n_4_6 -->
<g id="edge9" class="edge">
<title>n_1_4_6&#45;&gt;n_4_6</title>
<path fill="none" stroke="black" d="M462.86,-247.64C461.51,-235.91 459.8,-220.86 458.32,-207.94"/>
<polygon fill="black" stroke="black" points="461.83,-207.87 457.22,-198.34 454.88,-208.67 461.83,-207.87"/>
</g>
<!-- n_1 -->
<g id="node13" class="node">
<title>n_1</title>
<polygon fill="none" stroke="black" points="555.12,-166.38 555.12,-191.62 599.12,-191.62 599.12,-166.38 555.12,-166.38"/>
<text text-anchor="start" x="562.12" y="-177.07" font-family="Times New Roman,serif" font-weight="bold" font-size="9.00">Normal</text>
<polygon fill="none" stroke="black" points="554.12,-165.38 554.12,-192.62 600.12,-192.62 600.12,-165.38 554.12,-165.38"/>
</g>
<!-- n_1_4_6&#45;&gt;n_1 -->
<g id="edge12" class="edge">
<title>n_1_4_6&#45;&gt;n_1</title>
<path fill="none" stroke="black" d="M490.54,-247.64C507.25,-234.59 529.2,-217.45 546.81,-203.68"/>
<polygon fill="black" stroke="black" points="548.66,-206.68 554.39,-197.76 544.35,-201.16 548.66,-206.68"/>
</g>
<!-- n_4 -->
<g id="node11" class="node">
<title>n_4</title>
<polygon fill="none" stroke="black" points="391.12,-84.38 391.12,-109.62 441.12,-109.62 441.12,-84.38 391.12,-84.38"/>
<text text-anchor="start" x="398.12" y="-95.08" font-family="Times New Roman,serif" font-weight="bold" font-size="9.00">Obesity I</text>
<polygon fill="none" stroke="black" points="390.12,-83.38 390.12,-110.62 442.12,-110.62 442.12,-83.38 390.12,-83.38"/>
</g>
<!-- n_4_6&#45;&gt;n_4 -->
<g id="edge10" class="edge">
<title>n_4_6&#45;&gt;n_4</title>
<path fill="none" stroke="black" d="M446.85,-161.03C441.79,-150.64 435.19,-137.1 429.4,-125.23"/>
<polygon fill="black" stroke="black" points="432.58,-123.76 425.05,-116.3 426.28,-126.82 432.58,-123.76"/>
</g>
<!-- n_6 -->
<g id="node12" class="node">
<title>n_6</title>
<polygon fill="none" stroke="black" points="488.12,-84.38 488.12,-109.62 544.12,-109.62 544.12,-84.38 488.12,-84.38"/>
<text text-anchor="start" x="495.12" y="-95.08" font-family="Times New Roman,serif" font-weight="bold" font-size="9.00">Obesity III</text>
<polygon fill="none" stroke="black" points="487.12,-83.38 487.12,-110.62 545.12,-110.62 545.12,-83.38 487.12,-83.38"/>
</g>
<!-- n_4_6&#45;&gt;n_6 -->
<g id="edge11" class="edge">
<title>n_4_6&#45;&gt;n_6</title>
<path fill="none" stroke="black" d="M468.06,-161.03C476.31,-150.22 487.16,-135.99 496.46,-123.79"/>
<polygon fill="black" stroke="black" points="499.01,-126.22 502.29,-116.15 493.44,-121.97 499.01,-126.22"/>
</g>
</g>
</svg>
