<?xml version="1.0" encoding="UTF-8" standalone="no"?>
<!DOCTYPE svg PUBLIC "-//W3C//DTD SVG 1.1//EN"
 "http://www.w3.org/Graphics/SVG/1.1/DTD/svg11.dtd">
<!-- Generated by graphviz version 10.0.1 (20240210.2158)
 -->
<!-- Title: ND Pages: 1 -->
<svg width="595pt" height="405pt"
 viewBox="0.00 0.00 594.50 405.00" xmlns="http://www.w3.org/2000/svg" xmlns:xlink="http://www.w3.org/1999/xlink">
<g id="graph0" class="graph" transform="scale(1 1) rotate(0) translate(4 401)">
<title>ND</title>
<polygon fill="white" stroke="none" points="-4,4 -4,-401 590.5,-401 590.5,4 -4,4"/>
<!-- n_0_1_2_3_4_5_6 -->
<g id="node1" class="node">
<title>n_0_1_2_3_4_5_6</title>
<polygon fill="none" stroke="black" points="245.88,-342 245.88,-392 334.12,-392 334.12,-342 245.88,-342"/>
<text text-anchor="start" x="252.88" y="-377.45" font-family="Times New Roman,serif" font-weight="bold" font-size="9.00">Insufficient weight</text>
<text text-anchor="start" x="275" y="-368.45" font-family="Times New Roman,serif" font-weight="bold" font-size="9.00">Normal</text>
<text text-anchor="start" x="272" y="-359.45" font-family="Times New Roman,serif" font-weight="bold" font-size="9.00">Obesity I</text>
<text text-anchor="start" x="269" y="-350.45" font-family="Times New Roman,serif" font-weight="bold" font-size="9.00">Obesity III</text>
<polygon fill="none" stroke="black" points="334.12,-342 334.12,-392 402.12,-392 402.12,-342 334.12,-342"/>
<text text-anchor="start" x="342.62" y="-372.95" font-family="Times New Roman,serif" font-weight="bold" font-size="9.00">Overweight I</text>
<text text-anchor="start" x="341.12" y="-363.95" font-family="Times New Roman,serif" font-weight="bold" font-size="9.00">Overweight II</text>
<text text-anchor="start" x="348.62" y="-354.95" font-family="Times New Roman,serif" font-weight="bold" font-size="9.00">Obesity II</text>
<polygon fill="none" stroke="black" points="244.88,-341 244.88,-393 403.12,-393 403.12,-341 244.88,-341"/>
</g>
<!-- n_0_1_4_6 -->
<g id="node2" class="node">
<title>n_0_1_4_6</title>
<polygon fill="none" stroke="black" points="158.88,-248 158.88,-289 214.88,-289 214.88,-248 158.88,-248"/>
<text text-anchor="start" x="171.88" y="-274.45" font-family="Times New Roman,serif" font-weight="bold" font-size="9.00">Normal</text>
<text text-anchor="start" x="168.88" y="-265.45" font-family="Times New Roman,serif" font-weight="bold" font-size="9.00">Obesity I</text>
<text text-anchor="start" x="165.88" y="-256.45" font-family="Times New Roman,serif" font-weight="bold" font-size="9.00">Obesity III</text>
<polygon fill="none" stroke="black" points="214.88,-248 214.88,-289 303.12,-289 303.12,-248 214.88,-248"/>
<text text-anchor="start" x="221.88" y="-266.57" font-family="Times New Roman,serif" font-weight="bold" font-size="9.00">Insufficient weight</text>
<polygon fill="none" stroke="black" points="157.88,-247 157.88,-290 304.12,-290 304.12,-247 157.88,-247"/>
</g>
<!-- n_0_1_2_3_4_5_6&#45;&gt;n_0_1_4_6 -->
<g id="edge1" class="edge">
<title>n_0_1_2_3_4_5_6&#45;&gt;n_0_1_4_6</title>
<path fill="none" stroke="black" d="M296.1,-337.05C285.42,-325.97 273.18,-313.26 262.21,-301.88"/>
<polygon fill="black" stroke="black" points="265,-299.74 255.54,-294.96 259.96,-304.59 265,-299.74"/>
</g>
<!-- n_2_3_5 -->
<g id="node9" class="node">
<title>n_2_3_5</title>
<polygon fill="none" stroke="black" points="350.5,-252.5 350.5,-284.5 418.5,-284.5 418.5,-252.5 350.5,-252.5"/>
<text text-anchor="start" x="357.5" y="-269.95" font-family="Times New Roman,serif" font-weight="bold" font-size="9.00">Overweight II</text>
<text text-anchor="start" x="365" y="-260.95" font-family="Times New Roman,serif" font-weight="bold" font-size="9.00">Obesity II</text>
<polygon fill="none" stroke="black" points="418.5,-252.5 418.5,-284.5 483.5,-284.5 483.5,-252.5 418.5,-252.5"/>
<text text-anchor="start" x="425.5" y="-266.57" font-family="Times New Roman,serif" font-weight="bold" font-size="9.00">Overweight I</text>
<polygon fill="none" stroke="black" points="349.5,-251.5 349.5,-285.5 484.5,-285.5 484.5,-251.5 349.5,-251.5"/>
</g>
<!-- n_0_1_2_3_4_5_6&#45;&gt;n_2_3_5 -->
<g id="edge8" class="edge">
<title>n_0_1_2_3_4_5_6&#45;&gt;n_2_3_5</title>
<path fill="none" stroke="black" d="M351.9,-337.05C363.99,-324.51 378.08,-309.89 390.06,-297.46"/>
<polygon fill="black" stroke="black" points="392.49,-299.98 396.91,-290.35 387.45,-295.12 392.49,-299.98"/>
</g>
<!-- n_1_4_6 -->
<g id="node3" class="node">
<title>n_1_4_6</title>
<polygon fill="none" stroke="black" points="46,-163 46,-195 102,-195 102,-163 46,-163"/>
<text text-anchor="start" x="59" y="-180.45" font-family="Times New Roman,serif" font-weight="bold" font-size="9.00">Normal</text>
<text text-anchor="start" x="53" y="-171.45" font-family="Times New Roman,serif" font-weight="bold" font-size="9.00">Obesity III</text>
<polygon fill="none" stroke="black" points="102,-163 102,-195 152,-195 152,-163 102,-163"/>
<text text-anchor="start" x="109" y="-177.07" font-family="Times New Roman,serif" font-weight="bold" font-size="9.00">Obesity I</text>
<polygon fill="none" stroke="black" points="45,-162 45,-196 153,-196 153,-162 45,-162"/>
</g>
<!-- n_0_1_4_6&#45;&gt;n_1_4_6 -->
<g id="edge2" class="edge">
<title>n_0_1_4_6&#45;&gt;n_1_4_6</title>
<path fill="none" stroke="black" d="M194.23,-243.13C176.85,-231.61 156.09,-217.84 138.39,-206.11"/>
<polygon fill="black" stroke="black" points="140.44,-203.27 130.17,-200.66 136.57,-209.1 140.44,-203.27"/>
</g>
<!-- n_0 -->
<g id="node8" class="node">
<title>n_0</title>
<polygon fill="none" stroke="black" points="198.88,-166.38 198.88,-191.62 287.12,-191.62 287.12,-166.38 198.88,-166.38"/>
<text text-anchor="start" x="205.88" y="-177.07" font-family="Times New Roman,serif" font-weight="bold" font-size="9.00">Insufficient weight</text>
<polygon fill="none" stroke="black" points="197.88,-165.38 197.88,-192.62 288.12,-192.62 288.12,-165.38 197.88,-165.38"/>
</g>
<!-- n_0_1_4_6&#45;&gt;n_0 -->
<g id="edge7" class="edge">
<title>n_0_1_4_6&#45;&gt;n_0</title>
<path fill="none" stroke="black" d="M234.34,-243.13C235.85,-232.17 237.63,-219.18 239.18,-207.84"/>
<polygon fill="black" stroke="black" points="242.6,-208.65 240.49,-198.27 235.67,-207.7 242.6,-208.65"/>
</g>
<!-- n_1_6 -->
<g id="node4" class="node">
<title>n_1_6</title>
<polygon fill="none" stroke="black" points="29,-84.38 29,-109.62 73,-109.62 73,-84.38 29,-84.38"/>
<text text-anchor="start" x="36" y="-95.08" font-family="Times New Roman,serif" font-weight="bold" font-size="9.00">Normal</text>
<polygon fill="none" stroke="black" points="73,-84.38 73,-109.62 129,-109.62 129,-84.38 73,-84.38"/>
<text text-anchor="start" x="80" y="-95.08" font-family="Times New Roman,serif" font-weight="bold" font-size="9.00">Obesity III</text>
<polygon fill="none" stroke="black" points="28,-83.38 28,-110.62 130,-110.62 130,-83.38 28,-83.38"/>
</g>
<!-- n_1_4_6&#45;&gt;n_1_6 -->
<g id="edge3" class="edge">
<title>n_1_4_6&#45;&gt;n_1_6</title>
<path fill="none" stroke="black" d="M94.06,-158.22C91.61,-148.44 88.62,-136.46 85.94,-125.77"/>
<polygon fill="black" stroke="black" points="89.4,-125.16 83.58,-116.31 82.61,-126.86 89.4,-125.16"/>
</g>
<!-- n_4 -->
<g id="node7" class="node">
<title>n_4</title>
<polygon fill="none" stroke="black" points="176,-84.38 176,-109.62 226,-109.62 226,-84.38 176,-84.38"/>
<text text-anchor="start" x="183" y="-95.08" font-family="Times New Roman,serif" font-weight="bold" font-size="9.00">Obesity I</text>
<polygon fill="none" stroke="black" points="175,-83.38 175,-110.62 227,-110.62 227,-83.38 175,-83.38"/>
</g>
<!-- n_1_4_6&#45;&gt;n_4 -->
<g id="edge6" class="edge">
<title>n_1_4_6&#45;&gt;n_4</title>
<path fill="none" stroke="black" d="M124.48,-158.02C138.55,-146.98 156.12,-133.2 170.87,-121.63"/>
<polygon fill="black" stroke="black" points="172.73,-124.62 178.44,-115.69 168.41,-119.11 172.73,-124.62"/>
</g>
<!-- n_1 -->
<g id="node5" class="node">
<title>n_1</title>
<polygon fill="none" stroke="black" points="9,-5.38 9,-30.62 53,-30.62 53,-5.38 9,-5.38"/>
<text text-anchor="start" x="16" y="-16.07" font-family="Times New Roman,serif" font-weight="bold" font-size="9.00">Normal</text>
<polygon fill="none" stroke="black" points="8,-4.38 8,-31.62 54,-31.62 54,-4.38 8,-4.38"/>
</g>
<!-- n_1_6&#45;&gt;n_1 -->
<g id="edge4" class="edge">
<title>n_1_6&#45;&gt;n_1</title>
<path fill="none" stroke="black" d="M68.58,-79.29C62.46,-69.47 54.58,-56.83 47.62,-45.66"/>
<polygon fill="black" stroke="black" points="50.62,-43.86 42.36,-37.23 44.68,-47.56 50.62,-43.86"/>
</g>
<!-- n_6 -->
<g id="node6" class="node">
<title>n_6</title>
<polygon fill="none" stroke="black" points="100,-5.38 100,-30.62 156,-30.62 156,-5.38 100,-5.38"/>
<text text-anchor="start" x="107" y="-16.07" font-family="Times New Roman,serif" font-weight="bold" font-size="9.00">Obesity III</text>
<polygon fill="none" stroke="black" points="99,-4.38 99,-31.62 157,-31.62 157,-4.38 99,-4.38"/>
</g>
<!-- n_1_6&#45;&gt;n_6 -->
<g id="edge5" class="edge">
<title>n_1_6&#45;&gt;n_6</title>
<path fill="none" stroke="black" d="M89.63,-79.29C95.95,-69.37 104.09,-56.57 111.25,-45.32"/>
<polygon fill="black" stroke="black" points="113.99,-47.53 116.41,-37.22 108.09,-43.78 113.99,-47.53"/>
</g>
<!-- n_3_5 -->
<g id="node10" class="node">
<title>n_3_5</title>
<polygon fill="none" stroke="black" points="344.5,-166.38 344.5,-191.62 412.5,-191.62 412.5,-166.38 344.5,-166.38"/>
<text text-anchor="start" x="351.5" y="-177.07" font-family="Times New Roman,serif" font-weight="bold" font-size="9.00">Overweight II</text>
<polygon fill="none" stroke="black" points="412.5,-166.38 412.5,-191.62 465.5,-191.62 465.5,-166.38 412.5,-166.38"/>
<text text-anchor="start" x="419.5" y="-177.07" font-family="Times New Roman,serif" font-weight="bold" font-size="9.00">Obesity II</text>
<polygon fill="none" stroke="black" points="343.5,-165.38 343.5,-192.62 466.5,-192.62 466.5,-165.38 343.5,-165.38"/>
</g>
<!-- n_2_3_5&#45;&gt;n_3_5 -->
<g id="edge9" class="edge">
<title>n_2_3_5&#45;&gt;n_3_5</title>
<path fill="none" stroke="black" d="M414.28,-247.64C412.67,-235.91 410.6,-220.86 408.83,-207.94"/>
<polygon fill="black" stroke="black" points="412.34,-207.76 407.51,-198.33 405.41,-208.71 412.34,-207.76"/>
</g>
<!-- n_2 -->
<g id="node13" class="node">
<title>n_2</title>
<polygon fill="none" stroke="black" points="512.5,-166.38 512.5,-191.62 577.5,-191.62 577.5,-166.38 512.5,-166.38"/>
<text text-anchor="start" x="519.5" y="-177.07" font-family="Times New Roman,serif" font-weight="bold" font-size="9.00">Overweight I</text>
<polygon fill="none" stroke="black" points="511.5,-165.38 511.5,-192.62 578.5,-192.62 578.5,-165.38 511.5,-165.38"/>
</g>
<!-- n_2_3_5&#45;&gt;n_2 -->
<g id="edge12" class="edge">
<title>n_2_3_5&#45;&gt;n_2</title>
<path fill="none" stroke="black" d="M446.05,-247.64C465.32,-234.47 490.68,-217.13 510.91,-203.3"/>
<polygon fill="black" stroke="black" points="512.85,-206.22 519.13,-197.69 508.9,-200.44 512.85,-206.22"/>
</g>
<!-- n_3 -->
<g id="node11" class="node">
<title>n_3</title>
<polygon fill="none" stroke="black" points="322,-84.38 322,-109.62 390,-109.62 390,-84.38 322,-84.38"/>
<text text-anchor="start" x="329" y="-95.08" font-family="Times New Roman,serif" font-weight="bold" font-size="9.00">Overweight II</text>
<polygon fill="none" stroke="black" points="321,-83.38 321,-110.62 391,-110.62 391,-83.38 321,-83.38"/>
</g>
<!-- n_3_5&#45;&gt;n_3 -->
<g id="edge10" class="edge">
<title>n_3_5&#45;&gt;n_3</title>
<path fill="none" stroke="black" d="M394.61,-161.03C388.11,-150.43 379.61,-136.54 372.23,-124.51"/>
<polygon fill="black" stroke="black" points="375.38,-122.93 367.17,-116.23 369.41,-126.59 375.38,-122.93"/>
</g>
<!-- n_5 -->
<g id="node12" class="node">
<title>n_5</title>
<polygon fill="none" stroke="black" points="437.5,-84.38 437.5,-109.62 490.5,-109.62 490.5,-84.38 437.5,-84.38"/>
<text text-anchor="start" x="444.5" y="-95.08" font-family="Times New Roman,serif" font-weight="bold" font-size="9.00">Obesity II</text>
<polygon fill="none" stroke="black" points="436.5,-83.38 436.5,-110.62 491.5,-110.62 491.5,-83.38 436.5,-83.38"/>
</g>
<!-- n_3_5&#45;&gt;n_5 -->
<g id="edge11" class="edge">
<title>n_3_5&#45;&gt;n_5</title>
<path fill="none" stroke="black" d="M417.51,-161.03C425.41,-150.32 435.78,-136.27 444.72,-124.15"/>
<polygon fill="black" stroke="black" points="447.49,-126.29 450.61,-116.16 441.86,-122.13 447.49,-126.29"/>
</g>
</g>
</svg>
