<?xml version="1.0" encoding="UTF-8" standalone="no"?>
<!DOCTYPE svg PUBLIC "-//W3C//DTD SVG 1.1//EN"
 "http://www.w3.org/Graphics/SVG/1.1/DTD/svg11.dtd">
<!-- Generated by graphviz version 10.0.1 (20240210.2158)
 -->
<!-- Title: ND Pages: 1 -->
<svg width="566pt" height="638pt"
 viewBox="0.00 0.00 565.50 638.00" xmlns="http://www.w3.org/2000/svg" xmlns:xlink="http://www.w3.org/1999/xlink">
<g id="graph0" class="graph" transform="scale(1 1) rotate(0) translate(4 634)">
<title>ND</title>
<polygon fill="white" stroke="none" points="-4,4 -4,-634 561.5,-634 561.5,4 -4,4"/>
<!-- n_0_1_2_3_4_5_6 -->
<g id="node1" class="node">
<title>n_0_1_2_3_4_5_6</title>
<polygon fill="none" stroke="black" points="391.38,-557 391.38,-625 479.62,-625 479.62,-557 391.38,-557"/>
<text text-anchor="start" x="398.38" y="-610.45" font-family="Times New Roman,serif" font-weight="bold" font-size="9.00">Insufficient weight</text>
<text text-anchor="start" x="410" y="-601.45" font-family="Times New Roman,serif" font-weight="bold" font-size="9.00">Overweight I</text>
<text text-anchor="start" x="408.5" y="-592.45" font-family="Times New Roman,serif" font-weight="bold" font-size="9.00">Overweight II</text>
<text text-anchor="start" x="417.5" y="-583.45" font-family="Times New Roman,serif" font-weight="bold" font-size="9.00">Obesity I</text>
<text text-anchor="start" x="416" y="-574.45" font-family="Times New Roman,serif" font-weight="bold" font-size="9.00">Obesity II</text>
<text text-anchor="start" x="414.5" y="-565.45" font-family="Times New Roman,serif" font-weight="bold" font-size="9.00">Obesity III</text>
<polygon fill="none" stroke="black" points="479.62,-557 479.62,-625 523.62,-625 523.62,-557 479.62,-557"/>
<text text-anchor="start" x="486.62" y="-589.08" font-family="Times New Roman,serif" font-weight="bold" font-size="9.00">Normal</text>
<polygon fill="none" stroke="black" points="390.38,-556 390.38,-626 524.62,-626 524.62,-556 390.38,-556"/>
</g>
<!-- n_0_2_3_4_5_6 -->
<g id="node2" class="node">
<title>n_0_2_3_4_5_6</title>
<polygon fill="none" stroke="black" points="319.38,-445 319.38,-504 407.62,-504 407.62,-445 319.38,-445"/>
<text text-anchor="start" x="326.38" y="-489.45" font-family="Times New Roman,serif" font-weight="bold" font-size="9.00">Insufficient weight</text>
<text text-anchor="start" x="338" y="-480.45" font-family="Times New Roman,serif" font-weight="bold" font-size="9.00">Overweight I</text>
<text text-anchor="start" x="336.5" y="-471.45" font-family="Times New Roman,serif" font-weight="bold" font-size="9.00">Overweight II</text>
<text text-anchor="start" x="344" y="-462.45" font-family="Times New Roman,serif" font-weight="bold" font-size="9.00">Obesity II</text>
<text text-anchor="start" x="342.5" y="-453.45" font-family="Times New Roman,serif" font-weight="bold" font-size="9.00">Obesity III</text>
<polygon fill="none" stroke="black" points="407.62,-445 407.62,-504 457.62,-504 457.62,-445 407.62,-445"/>
<text text-anchor="start" x="414.62" y="-472.57" font-family="Times New Roman,serif" font-weight="bold" font-size="9.00">Obesity I</text>
<polygon fill="none" stroke="black" points="318.38,-444 318.38,-505 458.62,-505 458.62,-444 318.38,-444"/>
</g>
<!-- n_0_1_2_3_4_5_6&#45;&gt;n_0_2_3_4_5_6 -->
<g id="edge1" class="edge">
<title>n_0_1_2_3_4_5_6&#45;&gt;n_0_2_3_4_5_6</title>
<path fill="none" stroke="black" d="M434.72,-552.19C428.16,-541.31 420.96,-529.36 414.24,-518.21"/>
<polygon fill="black" stroke="black" points="417.42,-516.71 409.26,-509.95 411.42,-520.32 417.42,-516.71"/>
</g>
<!-- n_1 -->
<g id="node13" class="node">
<title>n_1</title>
<polygon fill="none" stroke="black" points="504.5,-461.88 504.5,-487.12 548.5,-487.12 548.5,-461.88 504.5,-461.88"/>
<text text-anchor="start" x="511.5" y="-472.57" font-family="Times New Roman,serif" font-weight="bold" font-size="9.00">Normal</text>
<polygon fill="none" stroke="black" points="503.5,-460.88 503.5,-488.12 549.5,-488.12 549.5,-460.88 503.5,-460.88"/>
</g>
<!-- n_0_1_2_3_4_5_6&#45;&gt;n_1 -->
<g id="edge12" class="edge">
<title>n_0_1_2_3_4_5_6&#45;&gt;n_1</title>
<path fill="none" stroke="black" d="M480.28,-552.19C490.17,-535.78 501.52,-516.96 510.49,-502.07"/>
<polygon fill="black" stroke="black" points="513.33,-504.13 515.5,-493.76 507.34,-500.52 513.33,-504.13"/>
</g>
<!-- n_0_2_3_5_6 -->
<g id="node3" class="node">
<title>n_0_2_3_5_6</title>
<polygon fill="none" stroke="black" points="237.88,-342 237.88,-392 326.12,-392 326.12,-342 237.88,-342"/>
<text text-anchor="start" x="244.88" y="-377.45" font-family="Times New Roman,serif" font-weight="bold" font-size="9.00">Insufficient weight</text>
<text text-anchor="start" x="255" y="-368.45" font-family="Times New Roman,serif" font-weight="bold" font-size="9.00">Overweight II</text>
<text text-anchor="start" x="262.5" y="-359.45" font-family="Times New Roman,serif" font-weight="bold" font-size="9.00">Obesity II</text>
<text text-anchor="start" x="261" y="-350.45" font-family="Times New Roman,serif" font-weight="bold" font-size="9.00">Obesity III</text>
<polygon fill="none" stroke="black" points="326.12,-342 326.12,-392 391.12,-392 391.12,-342 326.12,-342"/>
<text text-anchor="start" x="333.12" y="-365.07" font-family="Times New Roman,serif" font-weight="bold" font-size="9.00">Overweight I</text>
<polygon fill="none" stroke="black" points="236.88,-341 236.88,-393 392.12,-393 392.12,-341 236.88,-341"/>
</g>
<!-- n_0_2_3_4_5_6&#45;&gt;n_0_2_3_5_6 -->
<g id="edge2" class="edge">
<title>n_0_2_3_4_5_6&#45;&gt;n_0_2_3_5_6</title>
<path fill="none" stroke="black" d="M365.09,-440.12C357.48,-429.27 348.98,-417.16 341.15,-406"/>
<polygon fill="black" stroke="black" points="344.25,-404.31 335.64,-398.14 338.52,-408.33 344.25,-404.31"/>
</g>
<!-- n_4 -->
<g id="node12" class="node">
<title>n_4</title>
<polygon fill="none" stroke="black" points="438.5,-354.38 438.5,-379.62 488.5,-379.62 488.5,-354.38 438.5,-354.38"/>
<text text-anchor="start" x="445.5" y="-365.07" font-family="Times New Roman,serif" font-weight="bold" font-size="9.00">Obesity I</text>
<polygon fill="none" stroke="black" points="437.5,-353.38 437.5,-380.62 489.5,-380.62 489.5,-353.38 437.5,-353.38"/>
</g>
<!-- n_0_2_3_4_5_6&#45;&gt;n_4 -->
<g id="edge11" class="edge">
<title>n_0_2_3_4_5_6&#45;&gt;n_4</title>
<path fill="none" stroke="black" d="M412.23,-440.12C422.83,-425.21 435.14,-407.9 445.03,-393.98"/>
<polygon fill="black" stroke="black" points="447.63,-396.36 450.57,-386.18 441.93,-392.31 447.63,-396.36"/>
</g>
<!-- n_0_3_5_6 -->
<g id="node4" class="node">
<title>n_0_3_5_6</title>
<polygon fill="none" stroke="black" points="157.38,-248 157.38,-289 245.62,-289 245.62,-248 157.38,-248"/>
<text text-anchor="start" x="164.38" y="-274.45" font-family="Times New Roman,serif" font-weight="bold" font-size="9.00">Insufficient weight</text>
<text text-anchor="start" x="182" y="-265.45" font-family="Times New Roman,serif" font-weight="bold" font-size="9.00">Obesity II</text>
<text text-anchor="start" x="180.5" y="-256.45" font-family="Times New Roman,serif" font-weight="bold" font-size="9.00">Obesity III</text>
<polygon fill="none" stroke="black" points="245.62,-248 245.62,-289 313.62,-289 313.62,-248 245.62,-248"/>
<text text-anchor="start" x="252.62" y="-266.57" font-family="Times New Roman,serif" font-weight="bold" font-size="9.00">Overweight II</text>
<polygon fill="none" stroke="black" points="156.38,-247 156.38,-290 314.62,-290 314.62,-247 156.38,-247"/>
</g>
<!-- n_0_2_3_5_6&#45;&gt;n_0_3_5_6 -->
<g id="edge3" class="edge">
<title>n_0_2_3_5_6&#45;&gt;n_0_3_5_6</title>
<path fill="none" stroke="black" d="M290.8,-337.05C281.9,-326.18 271.73,-313.76 262.56,-302.55"/>
<polygon fill="black" stroke="black" points="265.46,-300.57 256.41,-295.05 260.04,-305 265.46,-300.57"/>
</g>
<!-- n_2 -->
<g id="node11" class="node">
<title>n_2</title>
<polygon fill="none" stroke="black" points="361,-255.88 361,-281.12 426,-281.12 426,-255.88 361,-255.88"/>
<text text-anchor="start" x="368" y="-266.57" font-family="Times New Roman,serif" font-weight="bold" font-size="9.00">Overweight I</text>
<polygon fill="none" stroke="black" points="360,-254.88 360,-282.12 427,-282.12 427,-254.88 360,-254.88"/>
</g>
<!-- n_0_2_3_5_6&#45;&gt;n_2 -->
<g id="edge10" class="edge">
<title>n_0_2_3_5_6&#45;&gt;n_2</title>
<path fill="none" stroke="black" d="M338.2,-337.05C349.1,-323.73 361.92,-308.07 372.47,-295.19"/>
<polygon fill="black" stroke="black" points="375.11,-297.49 378.73,-287.54 369.69,-293.06 375.11,-297.49"/>
</g>
<!-- n_0_5_6 -->
<g id="node5" class="node">
<title>n_0_5_6</title>
<polygon fill="none" stroke="black" points="87.38,-163 87.38,-195 143.38,-195 143.38,-163 87.38,-163"/>
<text text-anchor="start" x="95.88" y="-180.45" font-family="Times New Roman,serif" font-weight="bold" font-size="9.00">Obesity II</text>
<text text-anchor="start" x="94.38" y="-171.45" font-family="Times New Roman,serif" font-weight="bold" font-size="9.00">Obesity III</text>
<polygon fill="none" stroke="black" points="143.38,-163 143.38,-195 231.62,-195 231.62,-163 143.38,-163"/>
<text text-anchor="start" x="150.38" y="-177.07" font-family="Times New Roman,serif" font-weight="bold" font-size="9.00">Insufficient weight</text>
<polygon fill="none" stroke="black" points="86.38,-162 86.38,-196 232.62,-196 232.62,-162 86.38,-162"/>
</g>
<!-- n_0_3_5_6&#45;&gt;n_0_5_6 -->
<g id="edge4" class="edge">
<title>n_0_3_5_6&#45;&gt;n_0_5_6</title>
<path fill="none" stroke="black" d="M214.33,-243.13C204.97,-232.35 193.91,-219.62 184.18,-208.41"/>
<polygon fill="black" stroke="black" points="186.91,-206.22 177.71,-200.97 181.63,-210.81 186.91,-206.22"/>
</g>
<!-- n_3 -->
<g id="node10" class="node">
<title>n_3</title>
<polygon fill="none" stroke="black" points="278.5,-166.38 278.5,-191.62 346.5,-191.62 346.5,-166.38 278.5,-166.38"/>
<text text-anchor="start" x="285.5" y="-177.07" font-family="Times New Roman,serif" font-weight="bold" font-size="9.00">Overweight II</text>
<polygon fill="none" stroke="black" points="277.5,-165.38 277.5,-192.62 347.5,-192.62 347.5,-165.38 277.5,-165.38"/>
</g>
<!-- n_0_3_5_6&#45;&gt;n_3 -->
<g id="edge9" class="edge">
<title>n_0_3_5_6&#45;&gt;n_3</title>
<path fill="none" stroke="black" d="M256.95,-243.13C267.3,-231.36 279.72,-217.25 290.19,-205.36"/>
<polygon fill="black" stroke="black" points="292.76,-207.73 296.74,-197.91 287.51,-203.1 292.76,-207.73"/>
</g>
<!-- n_5_6 -->
<g id="node6" class="node">
<title>n_5_6</title>
<polygon fill="none" stroke="black" points="32,-84.38 32,-109.62 85,-109.62 85,-84.38 32,-84.38"/>
<text text-anchor="start" x="39" y="-95.08" font-family="Times New Roman,serif" font-weight="bold" font-size="9.00">Obesity II</text>
<polygon fill="none" stroke="black" points="85,-84.38 85,-109.62 141,-109.62 141,-84.38 85,-84.38"/>
<text text-anchor="start" x="92" y="-95.08" font-family="Times New Roman,serif" font-weight="bold" font-size="9.00">Obesity III</text>
<polygon fill="none" stroke="black" points="31,-83.38 31,-110.62 142,-110.62 142,-83.38 31,-83.38"/>
</g>
<!-- n_0_5_6&#45;&gt;n_5_6 -->
<g id="edge5" class="edge">
<title>n_0_5_6&#45;&gt;n_5_6</title>
<path fill="none" stroke="black" d="M141.46,-158.22C131.77,-147.61 119.72,-134.41 109.38,-123.07"/>
<polygon fill="black" stroke="black" points="112.22,-120.99 102.89,-115.96 107.05,-125.71 112.22,-120.99"/>
</g>
<!-- n_0 -->
<g id="node9" class="node">
<title>n_0</title>
<polygon fill="none" stroke="black" points="188.38,-84.38 188.38,-109.62 276.62,-109.62 276.62,-84.38 188.38,-84.38"/>
<text text-anchor="start" x="195.38" y="-95.08" font-family="Times New Roman,serif" font-weight="bold" font-size="9.00">Insufficient weight</text>
<polygon fill="none" stroke="black" points="187.38,-83.38 187.38,-110.62 277.62,-110.62 277.62,-83.38 187.38,-83.38"/>
</g>
<!-- n_0_5_6&#45;&gt;n_0 -->
<g id="edge8" class="edge">
<title>n_0_5_6&#45;&gt;n_0</title>
<path fill="none" stroke="black" d="M177.54,-158.22C187.23,-147.61 199.28,-134.41 209.62,-123.07"/>
<polygon fill="black" stroke="black" points="211.95,-125.71 216.11,-115.96 206.78,-120.99 211.95,-125.71"/>
</g>
<!-- n_5 -->
<g id="node7" class="node">
<title>n_5</title>
<polygon fill="none" stroke="black" points="9,-5.38 9,-30.62 62,-30.62 62,-5.38 9,-5.38"/>
<text text-anchor="start" x="16" y="-16.07" font-family="Times New Roman,serif" font-weight="bold" font-size="9.00">Obesity II</text>
<polygon fill="none" stroke="black" points="8,-4.38 8,-31.62 63,-31.62 63,-4.38 8,-4.38"/>
</g>
<!-- n_5_6&#45;&gt;n_5 -->
<g id="edge6" class="edge">
<title>n_5_6&#45;&gt;n_5</title>
<path fill="none" stroke="black" d="M75.43,-79.29C68.86,-69.37 60.39,-56.57 52.93,-45.32"/>
<polygon fill="black" stroke="black" points="56,-43.61 47.56,-37.2 50.16,-47.47 56,-43.61"/>
</g>
<!-- n_6 -->
<g id="node8" class="node">
<title>n_6</title>
<polygon fill="none" stroke="black" points="109.5,-5.38 109.5,-30.62 165.5,-30.62 165.5,-5.38 109.5,-5.38"/>
<text text-anchor="start" x="116.5" y="-16.07" font-family="Times New Roman,serif" font-weight="bold" font-size="9.00">Obesity III</text>
<polygon fill="none" stroke="black" points="108.5,-4.38 108.5,-31.62 166.5,-31.62 166.5,-4.38 108.5,-4.38"/>
</g>
<!-- n_5_6&#45;&gt;n_6 -->
<g id="edge7" class="edge">
<title>n_5_6&#45;&gt;n_6</title>
<path fill="none" stroke="black" d="M97.57,-79.29C104.14,-69.37 112.61,-56.57 120.07,-45.32"/>
<polygon fill="black" stroke="black" points="122.84,-47.47 125.44,-37.2 117,-43.61 122.84,-47.47"/>
</g>
</g>
</svg>
