<?xml version="1.0" encoding="UTF-8" standalone="no"?>
<!DOCTYPE svg PUBLIC "-//W3C//DTD SVG 1.1//EN"
 "http://www.w3.org/Graphics/SVG/1.1/DTD/svg11.dtd">
<!-- Generated by graphviz version 10.0.1 (20240210.2158)
 -->
<!-- Title: ND Pages: 1 -->
<svg width="665pt" height="517pt"
 viewBox="0.00 0.00 665.00 517.00" xmlns="http://www.w3.org/2000/svg" xmlns:xlink="http://www.w3.org/1999/xlink">
<g id="graph0" class="graph" transform="scale(1 1) rotate(0) translate(4 513)">
<title>ND</title>
<polygon fill="white" stroke="none" points="-4,4 -4,-513 661,-513 661,4 -4,4"/>
<!-- n_0_1_2_3_4_5_6 -->
<g id="node1" class="node">
<title>n_0_1_2_3_4_5_6</title>
<polygon fill="none" stroke="black" points="359.88,-445 359.88,-504 448.12,-504 448.12,-445 359.88,-445"/>
<text text-anchor="start" x="366.88" y="-489.45" font-family="Times New Roman,serif" font-weight="bold" font-size="9.00">Insufficient weight</text>
<text text-anchor="start" x="378.5" y="-480.45" font-family="Times New Roman,serif" font-weight="bold" font-size="9.00">Overweight I</text>
<text text-anchor="start" x="386" y="-471.45" font-family="Times New Roman,serif" font-weight="bold" font-size="9.00">Obesity I</text>
<text text-anchor="start" x="384.5" y="-462.45" font-family="Times New Roman,serif" font-weight="bold" font-size="9.00">Obesity II</text>
<text text-anchor="start" x="383" y="-453.45" font-family="Times New Roman,serif" font-weight="bold" font-size="9.00">Obesity III</text>
<polygon fill="none" stroke="black" points="448.12,-445 448.12,-504 516.12,-504 516.12,-445 448.12,-445"/>
<text text-anchor="start" x="467.12" y="-475.95" font-family="Times New Roman,serif" font-weight="bold" font-size="9.00">Normal</text>
<text text-anchor="start" x="455.12" y="-466.95" font-family="Times New Roman,serif" font-weight="bold" font-size="9.00">Overweight II</text>
<polygon fill="none" stroke="black" points="358.88,-444 358.88,-505 517.12,-505 517.12,-444 358.88,-444"/>
</g>
<!-- n_0_2_4_5_6 -->
<g id="node2" class="node">
<title>n_0_2_4_5_6</title>
<polygon fill="none" stroke="black" points="271.38,-342 271.38,-392 336.38,-392 336.38,-342 271.38,-342"/>
<text text-anchor="start" x="278.38" y="-377.45" font-family="Times New Roman,serif" font-weight="bold" font-size="9.00">Overweight I</text>
<text text-anchor="start" x="285.88" y="-368.45" font-family="Times New Roman,serif" font-weight="bold" font-size="9.00">Obesity I</text>
<text text-anchor="start" x="284.38" y="-359.45" font-family="Times New Roman,serif" font-weight="bold" font-size="9.00">Obesity II</text>
<text text-anchor="start" x="282.88" y="-350.45" font-family="Times New Roman,serif" font-weight="bold" font-size="9.00">Obesity III</text>
<polygon fill="none" stroke="black" points="336.38,-342 336.38,-392 424.62,-392 424.62,-342 336.38,-342"/>
<text text-anchor="start" x="343.38" y="-365.07" font-family="Times New Roman,serif" font-weight="bold" font-size="9.00">Insufficient weight</text>
<polygon fill="none" stroke="black" points="270.38,-341 270.38,-393 425.62,-393 425.62,-341 270.38,-341"/>
</g>
<!-- n_0_1_2_3_4_5_6&#45;&gt;n_0_2_4_5_6 -->
<g id="edge1" class="edge">
<title>n_0_1_2_3_4_5_6&#45;&gt;n_0_2_4_5_6</title>
<path fill="none" stroke="black" d="M409.52,-440.12C400.08,-429.05 389.52,-416.67 379.84,-405.33"/>
<polygon fill="black" stroke="black" points="382.79,-403.39 373.63,-398.05 377.46,-407.93 382.79,-403.39"/>
</g>
<!-- n_1_3 -->
<g id="node11" class="node">
<title>n_1_3</title>
<polygon fill="none" stroke="black" points="472,-354.38 472,-379.62 516,-379.62 516,-354.38 472,-354.38"/>
<text text-anchor="start" x="479" y="-365.07" font-family="Times New Roman,serif" font-weight="bold" font-size="9.00">Normal</text>
<polygon fill="none" stroke="black" points="516,-354.38 516,-379.62 584,-379.62 584,-354.38 516,-354.38"/>
<text text-anchor="start" x="523" y="-365.07" font-family="Times New Roman,serif" font-weight="bold" font-size="9.00">Overweight II</text>
<polygon fill="none" stroke="black" points="471,-353.38 471,-380.62 585,-380.62 585,-353.38 471,-353.38"/>
</g>
<!-- n_0_1_2_3_4_5_6&#45;&gt;n_1_3 -->
<g id="edge10" class="edge">
<title>n_0_1_2_3_4_5_6&#45;&gt;n_1_3</title>
<path fill="none" stroke="black" d="M466.48,-440.12C479.32,-425.06 494.25,-407.57 506.18,-393.58"/>
<polygon fill="black" stroke="black" points="508.73,-395.98 512.56,-386.1 503.4,-391.44 508.73,-395.98"/>
</g>
<!-- n_2_4_5_6 -->
<g id="node3" class="node">
<title>n_2_4_5_6</title>
<polygon fill="none" stroke="black" points="152.5,-248 152.5,-289 208.5,-289 208.5,-248 152.5,-248"/>
<text text-anchor="start" x="162.5" y="-274.45" font-family="Times New Roman,serif" font-weight="bold" font-size="9.00">Obesity I</text>
<text text-anchor="start" x="161" y="-265.45" font-family="Times New Roman,serif" font-weight="bold" font-size="9.00">Obesity II</text>
<text text-anchor="start" x="159.5" y="-256.45" font-family="Times New Roman,serif" font-weight="bold" font-size="9.00">Obesity III</text>
<polygon fill="none" stroke="black" points="208.5,-248 208.5,-289 273.5,-289 273.5,-248 208.5,-248"/>
<text text-anchor="start" x="215.5" y="-266.57" font-family="Times New Roman,serif" font-weight="bold" font-size="9.00">Overweight I</text>
<polygon fill="none" stroke="black" points="151.5,-247 151.5,-290 274.5,-290 274.5,-247 151.5,-247"/>
</g>
<!-- n_0_2_4_5_6&#45;&gt;n_2_4_5_6 -->
<g id="edge2" class="edge">
<title>n_0_2_4_5_6&#45;&gt;n_2_4_5_6</title>
<path fill="none" stroke="black" d="M307.5,-337.05C291.39,-325.54 272.84,-312.27 256.46,-300.56"/>
<polygon fill="black" stroke="black" points="258.5,-297.72 248.33,-294.75 254.43,-303.42 258.5,-297.72"/>
</g>
<!-- n_0 -->
<g id="node10" class="node">
<title>n_0</title>
<polygon fill="none" stroke="black" points="320.88,-255.88 320.88,-281.12 409.12,-281.12 409.12,-255.88 320.88,-255.88"/>
<text text-anchor="start" x="327.88" y="-266.57" font-family="Times New Roman,serif" font-weight="bold" font-size="9.00">Insufficient weight</text>
<polygon fill="none" stroke="black" points="319.88,-254.88 319.88,-282.12 410.12,-282.12 410.12,-254.88 319.88,-254.88"/>
</g>
<!-- n_0_2_4_5_6&#45;&gt;n_0 -->
<g id="edge9" class="edge">
<title>n_0_2_4_5_6&#45;&gt;n_0</title>
<path fill="none" stroke="black" d="M353.1,-337.05C355.31,-324.51 357.88,-309.89 360.07,-297.47"/>
<polygon fill="black" stroke="black" points="363.48,-298.31 361.77,-287.86 356.58,-297.1 363.48,-298.31"/>
</g>
<!-- n_4_5_6 -->
<g id="node4" class="node">
<title>n_4_5_6</title>
<polygon fill="none" stroke="black" points="91.5,-163 91.5,-195 144.5,-195 144.5,-163 91.5,-163"/>
<text text-anchor="start" x="100" y="-180.45" font-family="Times New Roman,serif" font-weight="bold" font-size="9.00">Obesity I</text>
<text text-anchor="start" x="98.5" y="-171.45" font-family="Times New Roman,serif" font-weight="bold" font-size="9.00">Obesity II</text>
<polygon fill="none" stroke="black" points="144.5,-163 144.5,-195 200.5,-195 200.5,-163 144.5,-163"/>
<text text-anchor="start" x="151.5" y="-177.07" font-family="Times New Roman,serif" font-weight="bold" font-size="9.00">Obesity III</text>
<polygon fill="none" stroke="black" points="90.5,-162 90.5,-196 201.5,-196 201.5,-162 90.5,-162"/>
</g>
<!-- n_2_4_5_6&#45;&gt;n_4_5_6 -->
<g id="edge3" class="edge">
<title>n_2_4_5_6&#45;&gt;n_4_5_6</title>
<path fill="none" stroke="black" d="M194.34,-243.13C186.17,-232.46 176.53,-219.87 168.01,-208.75"/>
<polygon fill="black" stroke="black" points="170.96,-206.84 162.1,-201.03 165.4,-211.1 170.96,-206.84"/>
</g>
<!-- n_2 -->
<g id="node9" class="node">
<title>n_2</title>
<polygon fill="none" stroke="black" points="247.5,-166.38 247.5,-191.62 312.5,-191.62 312.5,-166.38 247.5,-166.38"/>
<text text-anchor="start" x="254.5" y="-177.07" font-family="Times New Roman,serif" font-weight="bold" font-size="9.00">Overweight I</text>
<polygon fill="none" stroke="black" points="246.5,-165.38 246.5,-192.62 313.5,-192.62 313.5,-165.38 246.5,-165.38"/>
</g>
<!-- n_2_4_5_6&#45;&gt;n_2 -->
<g id="edge8" class="edge">
<title>n_2_4_5_6&#45;&gt;n_2</title>
<path fill="none" stroke="black" d="M231.66,-243.13C240.58,-231.48 251.27,-217.53 260.32,-205.71"/>
<polygon fill="black" stroke="black" points="262.94,-208.04 266.24,-197.97 257.38,-203.78 262.94,-208.04"/>
</g>
<!-- n_4_5 -->
<g id="node5" class="node">
<title>n_4_5</title>
<polygon fill="none" stroke="black" points="31.5,-84.38 31.5,-109.62 81.5,-109.62 81.5,-84.38 31.5,-84.38"/>
<text text-anchor="start" x="38.5" y="-95.08" font-family="Times New Roman,serif" font-weight="bold" font-size="9.00">Obesity I</text>
<polygon fill="none" stroke="black" points="81.5,-84.38 81.5,-109.62 134.5,-109.62 134.5,-84.38 81.5,-84.38"/>
<text text-anchor="start" x="88.5" y="-95.08" font-family="Times New Roman,serif" font-weight="bold" font-size="9.00">Obesity II</text>
<polygon fill="none" stroke="black" points="30.5,-83.38 30.5,-110.62 135.5,-110.62 135.5,-83.38 30.5,-83.38"/>
</g>
<!-- n_4_5_6&#45;&gt;n_4_5 -->
<g id="edge4" class="edge">
<title>n_4_5_6&#45;&gt;n_4_5</title>
<path fill="none" stroke="black" d="M130.43,-158.22C122.23,-147.81 112.08,-134.92 103.27,-123.74"/>
<polygon fill="black" stroke="black" points="106.14,-121.72 97.2,-116.03 100.64,-126.05 106.14,-121.72"/>
</g>
<!-- n_6 -->
<g id="node8" class="node">
<title>n_6</title>
<polygon fill="none" stroke="black" points="182,-84.38 182,-109.62 238,-109.62 238,-84.38 182,-84.38"/>
<text text-anchor="start" x="189" y="-95.08" font-family="Times New Roman,serif" font-weight="bold" font-size="9.00">Obesity III</text>
<polygon fill="none" stroke="black" points="181,-83.38 181,-110.62 239,-110.62 239,-83.38 181,-83.38"/>
</g>
<!-- n_4_5_6&#45;&gt;n_6 -->
<g id="edge7" class="edge">
<title>n_4_5_6&#45;&gt;n_6</title>
<path fill="none" stroke="black" d="M161.82,-158.22C170.15,-147.81 180.46,-134.92 189.41,-123.74"/>
<polygon fill="black" stroke="black" points="192.07,-126.02 195.58,-116.03 186.6,-121.65 192.07,-126.02"/>
</g>
<!-- n_4 -->
<g id="node6" class="node">
<title>n_4</title>
<polygon fill="none" stroke="black" points="9,-5.38 9,-30.62 59,-30.62 59,-5.38 9,-5.38"/>
<text text-anchor="start" x="16" y="-16.07" font-family="Times New Roman,serif" font-weight="bold" font-size="9.00">Obesity I</text>
<polygon fill="none" stroke="black" points="8,-4.38 8,-31.62 60,-31.62 60,-4.38 8,-4.38"/>
</g>
<!-- n_4_5&#45;&gt;n_4 -->
<g id="edge5" class="edge">
<title>n_4_5&#45;&gt;n_4</title>
<path fill="none" stroke="black" d="M72.37,-79.29C66.05,-69.37 57.91,-56.57 50.75,-45.32"/>
<polygon fill="black" stroke="black" points="53.91,-43.78 45.59,-37.22 48.01,-47.53 53.91,-43.78"/>
</g>
<!-- n_5 -->
<g id="node7" class="node">
<title>n_5</title>
<polygon fill="none" stroke="black" points="106.5,-5.38 106.5,-30.62 159.5,-30.62 159.5,-5.38 106.5,-5.38"/>
<text text-anchor="start" x="113.5" y="-16.07" font-family="Times New Roman,serif" font-weight="bold" font-size="9.00">Obesity II</text>
<polygon fill="none" stroke="black" points="105.5,-4.38 105.5,-31.62 160.5,-31.62 160.5,-4.38 105.5,-4.38"/>
</g>
<!-- n_4_5&#45;&gt;n_5 -->
<g id="edge6" class="edge">
<title>n_4_5&#45;&gt;n_5</title>
<path fill="none" stroke="black" d="M93.85,-79.29C100.29,-69.37 108.6,-56.57 115.91,-45.32"/>
<polygon fill="black" stroke="black" points="118.66,-47.5 121.17,-37.21 112.79,-43.69 118.66,-47.5"/>
</g>
<!-- n_1 -->
<g id="node12" class="node">
<title>n_1</title>
<polygon fill="none" stroke="black" points="489,-255.88 489,-281.12 533,-281.12 533,-255.88 489,-255.88"/>
<text text-anchor="start" x="496" y="-266.57" font-family="Times New Roman,serif" font-weight="bold" font-size="9.00">Normal</text>
<polygon fill="none" stroke="black" points="488,-254.88 488,-282.12 534,-282.12 534,-254.88 488,-254.88"/>
</g>
<!-- n_1_3&#45;&gt;n_1 -->
<g id="edge11" class="edge">
<title>n_1_3&#45;&gt;n_1</title>
<path fill="none" stroke="black" d="M525.04,-349.19C522.54,-335.03 518.92,-314.46 515.98,-297.76"/>
<polygon fill="black" stroke="black" points="519.43,-297.17 514.25,-287.93 512.53,-298.39 519.43,-297.17"/>
</g>
<!-- n_3 -->
<g id="node13" class="node">
<title>n_3</title>
<polygon fill="none" stroke="black" points="580,-255.88 580,-281.12 648,-281.12 648,-255.88 580,-255.88"/>
<text text-anchor="start" x="587" y="-266.57" font-family="Times New Roman,serif" font-weight="bold" font-size="9.00">Overweight II</text>
<polygon fill="none" stroke="black" points="579,-254.88 579,-282.12 649,-282.12 649,-254.88 579,-254.88"/>
</g>
<!-- n_1_3&#45;&gt;n_3 -->
<g id="edge12" class="edge">
<title>n_1_3&#45;&gt;n_3</title>
<path fill="none" stroke="black" d="M542.98,-349.19C556.34,-334.2 576.09,-312.04 591.38,-294.89"/>
<polygon fill="black" stroke="black" points="593.86,-297.36 597.9,-287.57 588.63,-292.71 593.86,-297.36"/>
</g>
</g>
</svg>
