<?xml version="1.0" encoding="UTF-8" standalone="no"?>
<!DOCTYPE svg PUBLIC "-//W3C//DTD SVG 1.1//EN"
 "http://www.w3.org/Graphics/SVG/1.1/DTD/svg11.dtd">
<!-- Generated by graphviz version 10.0.1 (20240210.2158)
 -->
<!-- Title: ND Pages: 1 -->
<svg width="583pt" height="526pt"
 viewBox="0.00 0.00 583.12 526.00" xmlns="http://www.w3.org/2000/svg" xmlns:xlink="http://www.w3.org/1999/xlink">
<g id="graph0" class="graph" transform="scale(1 1) rotate(0) translate(4 522)">
<title>ND</title>
<polygon fill="white" stroke="none" points="-4,4 -4,-522 579.12,-522 579.12,4 -4,4"/>
<!-- n_0_1_2_3_4_5_6 -->
<g id="node1" class="node">
<title>n_0_1_2_3_4_5_6</title>
<polygon fill="none" stroke="black" points="368.88,-445 368.88,-513 436.88,-513 436.88,-445 368.88,-445"/>
<text text-anchor="start" x="387.88" y="-498.45" font-family="Times New Roman,serif" font-weight="bold" font-size="9.00">Normal</text>
<text text-anchor="start" x="377.38" y="-489.45" font-family="Times New Roman,serif" font-weight="bold" font-size="9.00">Overweight I</text>
<text text-anchor="start" x="375.88" y="-480.45" font-family="Times New Roman,serif" font-weight="bold" font-size="9.00">Overweight II</text>
<text text-anchor="start" x="384.88" y="-471.45" font-family="Times New Roman,serif" font-weight="bold" font-size="9.00">Obesity I</text>
<text text-anchor="start" x="383.38" y="-462.45" font-family="Times New Roman,serif" font-weight="bold" font-size="9.00">Obesity II</text>
<text text-anchor="start" x="381.88" y="-453.45" font-family="Times New Roman,serif" font-weight="bold" font-size="9.00">Obesity III</text>
<polygon fill="none" stroke="black" points="436.88,-445 436.88,-513 525.12,-513 525.12,-445 436.88,-445"/>
<text text-anchor="start" x="443.88" y="-477.07" font-family="Times New Roman,serif" font-weight="bold" font-size="9.00">Insufficient weight</text>
<polygon fill="none" stroke="black" points="367.88,-444 367.88,-514 526.12,-514 526.12,-444 367.88,-444"/>
</g>
<!-- n_1_2_3_4_5_6 -->
<g id="node2" class="node">
<title>n_1_2_3_4_5_6</title>
<polygon fill="none" stroke="black" points="313,-342 313,-392 381,-392 381,-342 313,-342"/>
<text text-anchor="start" x="321.5" y="-377.45" font-family="Times New Roman,serif" font-weight="bold" font-size="9.00">Overweight I</text>
<text text-anchor="start" x="320" y="-368.45" font-family="Times New Roman,serif" font-weight="bold" font-size="9.00">Overweight II</text>
<text text-anchor="start" x="327.5" y="-359.45" font-family="Times New Roman,serif" font-weight="bold" font-size="9.00">Obesity II</text>
<text text-anchor="start" x="326" y="-350.45" font-family="Times New Roman,serif" font-weight="bold" font-size="9.00">Obesity III</text>
<polygon fill="none" stroke="black" points="381,-342 381,-392 431,-392 431,-342 381,-342"/>
<text text-anchor="start" x="391" y="-368.45" font-family="Times New Roman,serif" font-weight="bold" font-size="9.00">Normal</text>
<text text-anchor="start" x="388" y="-359.45" font-family="Times New Roman,serif" font-weight="bold" font-size="9.00">Obesity I</text>
<polygon fill="none" stroke="black" points="312,-341 312,-393 432,-393 432,-341 312,-341"/>
</g>
<!-- n_0_1_2_3_4_5_6&#45;&gt;n_1_2_3_4_5_6 -->
<g id="edge1" class="edge">
<title>n_0_1_2_3_4_5_6&#45;&gt;n_1_2_3_4_5_6</title>
<path fill="none" stroke="black" d="M421.19,-440.14C413.72,-429.19 405.56,-417.22 398.07,-406.23"/>
<polygon fill="black" stroke="black" points="401.07,-404.43 392.55,-398.14 395.29,-408.37 401.07,-404.43"/>
</g>
<!-- n_0 -->
<g id="node13" class="node">
<title>n_0</title>
<polygon fill="none" stroke="black" points="477.88,-354.38 477.88,-379.62 566.12,-379.62 566.12,-354.38 477.88,-354.38"/>
<text text-anchor="start" x="484.88" y="-365.07" font-family="Times New Roman,serif" font-weight="bold" font-size="9.00">Insufficient weight</text>
<polygon fill="none" stroke="black" points="476.88,-353.38 476.88,-380.62 567.12,-380.62 567.12,-353.38 476.88,-353.38"/>
</g>
<!-- n_0_1_2_3_4_5_6&#45;&gt;n_0 -->
<g id="edge12" class="edge">
<title>n_0_1_2_3_4_5_6&#45;&gt;n_0</title>
<path fill="none" stroke="black" d="M472.81,-440.14C483.11,-425.04 494.71,-408.02 504.06,-394.31"/>
<polygon fill="black" stroke="black" points="506.83,-396.47 509.57,-386.23 501.04,-392.52 506.83,-396.47"/>
</g>
<!-- n_2_3_5_6 -->
<g id="node3" class="node">
<title>n_2_3_5_6</title>
<polygon fill="none" stroke="black" points="232,-248 232,-289 300,-289 300,-248 232,-248"/>
<text text-anchor="start" x="240.5" y="-274.45" font-family="Times New Roman,serif" font-weight="bold" font-size="9.00">Overweight I</text>
<text text-anchor="start" x="239" y="-265.45" font-family="Times New Roman,serif" font-weight="bold" font-size="9.00">Overweight II</text>
<text text-anchor="start" x="246.5" y="-256.45" font-family="Times New Roman,serif" font-weight="bold" font-size="9.00">Obesity II</text>
<polygon fill="none" stroke="black" points="300,-248 300,-289 356,-289 356,-248 300,-248"/>
<text text-anchor="start" x="307" y="-266.57" font-family="Times New Roman,serif" font-weight="bold" font-size="9.00">Obesity III</text>
<polygon fill="none" stroke="black" points="231,-247 231,-290 357,-290 357,-247 231,-247"/>
</g>
<!-- n_1_2_3_4_5_6&#45;&gt;n_2_3_5_6 -->
<g id="edge2" class="edge">
<title>n_1_2_3_4_5_6&#45;&gt;n_2_3_5_6</title>
<path fill="none" stroke="black" d="M348.6,-337.05C339.82,-326.18 329.77,-313.76 320.71,-302.55"/>
<polygon fill="black" stroke="black" points="323.66,-300.63 314.65,-295.05 318.22,-305.03 323.66,-300.63"/>
</g>
<!-- n_1_4 -->
<g id="node10" class="node">
<title>n_1_4</title>
<polygon fill="none" stroke="black" points="403,-255.88 403,-281.12 447,-281.12 447,-255.88 403,-255.88"/>
<text text-anchor="start" x="410" y="-266.57" font-family="Times New Roman,serif" font-weight="bold" font-size="9.00">Normal</text>
<polygon fill="none" stroke="black" points="447,-255.88 447,-281.12 497,-281.12 497,-255.88 447,-255.88"/>
<text text-anchor="start" x="454" y="-266.57" font-family="Times New Roman,serif" font-weight="bold" font-size="9.00">Obesity I</text>
<polygon fill="none" stroke="black" points="402,-254.88 402,-282.12 498,-282.12 498,-254.88 402,-254.88"/>
</g>
<!-- n_1_2_3_4_5_6&#45;&gt;n_1_4 -->
<g id="edge9" class="edge">
<title>n_1_2_3_4_5_6&#45;&gt;n_1_4</title>
<path fill="none" stroke="black" d="M395.4,-337.05C406.16,-323.73 418.82,-308.07 429.24,-295.19"/>
<polygon fill="black" stroke="black" points="431.85,-297.52 435.42,-287.54 426.41,-293.12 431.85,-297.52"/>
</g>
<!-- n_2_3_5 -->
<g id="node4" class="node">
<title>n_2_3_5</title>
<polygon fill="none" stroke="black" points="100.5,-163 100.5,-195 168.5,-195 168.5,-163 100.5,-163"/>
<text text-anchor="start" x="107.5" y="-180.45" font-family="Times New Roman,serif" font-weight="bold" font-size="9.00">Overweight II</text>
<text text-anchor="start" x="115" y="-171.45" font-family="Times New Roman,serif" font-weight="bold" font-size="9.00">Obesity II</text>
<polygon fill="none" stroke="black" points="168.5,-163 168.5,-195 233.5,-195 233.5,-163 168.5,-163"/>
<text text-anchor="start" x="175.5" y="-177.07" font-family="Times New Roman,serif" font-weight="bold" font-size="9.00">Overweight I</text>
<polygon fill="none" stroke="black" points="99.5,-162 99.5,-196 234.5,-196 234.5,-162 99.5,-162"/>
</g>
<!-- n_2_3_5_6&#45;&gt;n_2_3_5 -->
<g id="edge3" class="edge">
<title>n_2_3_5_6&#45;&gt;n_2_3_5</title>
<path fill="none" stroke="black" d="M258.62,-243.13C241.9,-231.61 221.92,-217.84 204.89,-206.11"/>
<polygon fill="black" stroke="black" points="207.24,-203.48 197.02,-200.68 203.27,-209.24 207.24,-203.48"/>
</g>
<!-- n_6 -->
<g id="node9" class="node">
<title>n_6</title>
<polygon fill="none" stroke="black" points="281,-166.38 281,-191.62 337,-191.62 337,-166.38 281,-166.38"/>
<text text-anchor="start" x="288" y="-177.07" font-family="Times New Roman,serif" font-weight="bold" font-size="9.00">Obesity III</text>
<polygon fill="none" stroke="black" points="280,-165.38 280,-192.62 338,-192.62 338,-165.38 280,-165.38"/>
</g>
<!-- n_2_3_5_6&#45;&gt;n_6 -->
<g id="edge8" class="edge">
<title>n_2_3_5_6&#45;&gt;n_6</title>
<path fill="none" stroke="black" d="M298.18,-243.13C300.06,-232.17 302.28,-219.18 304.23,-207.84"/>
<polygon fill="black" stroke="black" points="307.63,-208.71 305.87,-198.26 300.73,-207.53 307.63,-208.71"/>
</g>
<!-- n_3_5 -->
<g id="node5" class="node">
<title>n_3_5</title>
<polygon fill="none" stroke="black" points="36.5,-84.38 36.5,-109.62 104.5,-109.62 104.5,-84.38 36.5,-84.38"/>
<text text-anchor="start" x="43.5" y="-95.08" font-family="Times New Roman,serif" font-weight="bold" font-size="9.00">Overweight II</text>
<polygon fill="none" stroke="black" points="104.5,-84.38 104.5,-109.62 157.5,-109.62 157.5,-84.38 104.5,-84.38"/>
<text text-anchor="start" x="111.5" y="-95.08" font-family="Times New Roman,serif" font-weight="bold" font-size="9.00">Obesity II</text>
<polygon fill="none" stroke="black" points="35.5,-83.38 35.5,-110.62 158.5,-110.62 158.5,-83.38 35.5,-83.38"/>
</g>
<!-- n_2_3_5&#45;&gt;n_3_5 -->
<g id="edge4" class="edge">
<title>n_2_3_5&#45;&gt;n_3_5</title>
<path fill="none" stroke="black" d="M149.7,-158.22C140.5,-147.71 129.08,-134.66 119.23,-123.41"/>
<polygon fill="black" stroke="black" points="121.95,-121.2 112.73,-115.98 116.69,-125.81 121.95,-121.2"/>
</g>
<!-- n_2 -->
<g id="node8" class="node">
<title>n_2</title>
<polygon fill="none" stroke="black" points="204.5,-84.38 204.5,-109.62 269.5,-109.62 269.5,-84.38 204.5,-84.38"/>
<text text-anchor="start" x="211.5" y="-95.08" font-family="Times New Roman,serif" font-weight="bold" font-size="9.00">Overweight I</text>
<polygon fill="none" stroke="black" points="203.5,-83.38 203.5,-110.62 270.5,-110.62 270.5,-83.38 203.5,-83.38"/>
</g>
<!-- n_2_3_5&#45;&gt;n_2 -->
<g id="edge7" class="edge">
<title>n_2_3_5&#45;&gt;n_2</title>
<path fill="none" stroke="black" d="M184.3,-158.22C193.5,-147.71 204.92,-134.66 214.77,-123.41"/>
<polygon fill="black" stroke="black" points="217.31,-125.81 221.27,-115.98 212.05,-121.2 217.31,-125.81"/>
</g>
<!-- n_3 -->
<g id="node6" class="node">
<title>n_3</title>
<polygon fill="none" stroke="black" points="9,-5.38 9,-30.62 77,-30.62 77,-5.38 9,-5.38"/>
<text text-anchor="start" x="16" y="-16.07" font-family="Times New Roman,serif" font-weight="bold" font-size="9.00">Overweight II</text>
<polygon fill="none" stroke="black" points="8,-4.38 8,-31.62 78,-31.62 78,-4.38 8,-4.38"/>
</g>
<!-- n_3_5&#45;&gt;n_3 -->
<g id="edge5" class="edge">
<title>n_3_5&#45;&gt;n_3</title>
<path fill="none" stroke="black" d="M85.28,-79.29C78.33,-69.37 69.35,-56.57 61.46,-45.32"/>
<polygon fill="black" stroke="black" points="64.36,-43.36 55.75,-37.18 58.63,-47.38 64.36,-43.36"/>
</g>
<!-- n_5 -->
<g id="node7" class="node">
<title>n_5</title>
<polygon fill="none" stroke="black" points="124.5,-5.38 124.5,-30.62 177.5,-30.62 177.5,-5.38 124.5,-5.38"/>
<text text-anchor="start" x="131.5" y="-16.07" font-family="Times New Roman,serif" font-weight="bold" font-size="9.00">Obesity II</text>
<polygon fill="none" stroke="black" points="123.5,-4.38 123.5,-31.62 178.5,-31.62 178.5,-4.38 123.5,-4.38"/>
</g>
<!-- n_3_5&#45;&gt;n_5 -->
<g id="edge6" class="edge">
<title>n_3_5&#45;&gt;n_5</title>
<path fill="none" stroke="black" d="M108.72,-79.29C115.67,-69.37 124.65,-56.57 132.54,-45.32"/>
<polygon fill="black" stroke="black" points="135.37,-47.38 138.25,-37.18 129.64,-43.36 135.37,-47.38"/>
</g>
<!-- n_1 -->
<g id="node11" class="node">
<title>n_1</title>
<polygon fill="none" stroke="black" points="413,-166.38 413,-191.62 457,-191.62 457,-166.38 413,-166.38"/>
<text text-anchor="start" x="420" y="-177.07" font-family="Times New Roman,serif" font-weight="bold" font-size="9.00">Normal</text>
<polygon fill="none" stroke="black" points="412,-165.38 412,-192.62 458,-192.62 458,-165.38 412,-165.38"/>
</g>
<!-- n_1_4&#45;&gt;n_1 -->
<g id="edge10" class="edge">
<title>n_1_4&#45;&gt;n_1</title>
<path fill="none" stroke="black" d="M447.11,-250.63C445.03,-238.52 442.19,-221.94 439.78,-207.88"/>
<polygon fill="black" stroke="black" points="443.28,-207.58 438.14,-198.31 436.38,-208.76 443.28,-207.58"/>
</g>
<!-- n_4 -->
<g id="node12" class="node">
<title>n_4</title>
<polygon fill="none" stroke="black" points="504,-166.38 504,-191.62 554,-191.62 554,-166.38 504,-166.38"/>
<text text-anchor="start" x="511" y="-177.07" font-family="Times New Roman,serif" font-weight="bold" font-size="9.00">Obesity I</text>
<polygon fill="none" stroke="black" points="503,-165.38 503,-192.62 555,-192.62 555,-165.38 503,-165.38"/>
</g>
<!-- n_1_4&#45;&gt;n_4 -->
<g id="edge11" class="edge">
<title>n_1_4&#45;&gt;n_4</title>
<path fill="none" stroke="black" d="M465.23,-250.63C476.93,-237.68 493.25,-219.59 506.46,-204.97"/>
<polygon fill="black" stroke="black" points="508.7,-207.71 512.8,-197.94 503.5,-203.02 508.7,-207.71"/>
</g>
</g>
</svg>
