<?xml version="1.0" encoding="UTF-8" standalone="no"?>
<!DOCTYPE svg PUBLIC "-//W3C//DTD SVG 1.1//EN"
 "http://www.w3.org/Graphics/SVG/1.1/DTD/svg11.dtd">
<!-- Generated by graphviz version 10.0.1 (20240210.2158)
 -->
<!-- Title: ND Pages: 1 -->
<svg width="577pt" height="638pt"
 viewBox="0.00 0.00 577.00 638.00" xmlns="http://www.w3.org/2000/svg" xmlns:xlink="http://www.w3.org/1999/xlink">
<g id="graph0" class="graph" transform="scale(1 1) rotate(0) translate(4 634)">
<title>ND</title>
<polygon fill="white" stroke="none" points="-4,4 -4,-634 573,-634 573,4 -4,4"/>
<!-- n_0_1_2_3_4_5_6 -->
<g id="node1" class="node">
<title>n_0_1_2_3_4_5_6</title>
<polygon fill="none" stroke="black" points="392.88,-557 392.88,-625 481.12,-625 481.12,-557 392.88,-557"/>
<text text-anchor="start" x="399.88" y="-610.45" font-family="Times New Roman,serif" font-weight="bold" font-size="9.00">Insufficient weight</text>
<text text-anchor="start" x="422" y="-601.45" font-family="Times New Roman,serif" font-weight="bold" font-size="9.00">Normal</text>
<text text-anchor="start" x="411.5" y="-592.45" font-family="Times New Roman,serif" font-weight="bold" font-size="9.00">Overweight I</text>
<text text-anchor="start" x="410" y="-583.45" font-family="Times New Roman,serif" font-weight="bold" font-size="9.00">Overweight II</text>
<text text-anchor="start" x="419" y="-574.45" font-family="Times New Roman,serif" font-weight="bold" font-size="9.00">Obesity I</text>
<text text-anchor="start" x="416" y="-565.45" font-family="Times New Roman,serif" font-weight="bold" font-size="9.00">Obesity III</text>
<polygon fill="none" stroke="black" points="481.12,-557 481.12,-625 534.12,-625 534.12,-557 481.12,-557"/>
<text text-anchor="start" x="488.12" y="-589.08" font-family="Times New Roman,serif" font-weight="bold" font-size="9.00">Obesity II</text>
<polygon fill="none" stroke="black" points="391.88,-556 391.88,-626 535.12,-626 535.12,-556 391.88,-556"/>
</g>
<!-- n_0_1_2_3_4_6 -->
<g id="node2" class="node">
<title>n_0_1_2_3_4_6</title>
<polygon fill="none" stroke="black" points="327.38,-445 327.38,-504 415.62,-504 415.62,-445 327.38,-445"/>
<text text-anchor="start" x="334.38" y="-489.45" font-family="Times New Roman,serif" font-weight="bold" font-size="9.00">Insufficient weight</text>
<text text-anchor="start" x="346" y="-480.45" font-family="Times New Roman,serif" font-weight="bold" font-size="9.00">Overweight I</text>
<text text-anchor="start" x="344.5" y="-471.45" font-family="Times New Roman,serif" font-weight="bold" font-size="9.00">Overweight II</text>
<text text-anchor="start" x="353.5" y="-462.45" font-family="Times New Roman,serif" font-weight="bold" font-size="9.00">Obesity I</text>
<text text-anchor="start" x="350.5" y="-453.45" font-family="Times New Roman,serif" font-weight="bold" font-size="9.00">Obesity III</text>
<polygon fill="none" stroke="black" points="415.62,-445 415.62,-504 459.62,-504 459.62,-445 415.62,-445"/>
<text text-anchor="start" x="422.62" y="-472.57" font-family="Times New Roman,serif" font-weight="bold" font-size="9.00">Normal</text>
<polygon fill="none" stroke="black" points="326.38,-444 326.38,-505 460.62,-505 460.62,-444 326.38,-444"/>
</g>
<!-- n_0_1_2_3_4_5_6&#45;&gt;n_0_1_2_3_4_6 -->
<g id="edge1" class="edge">
<title>n_0_1_2_3_4_5_6&#45;&gt;n_0_1_2_3_4_6</title>
<path fill="none" stroke="black" d="M440.39,-552.19C433.73,-541.31 426.43,-529.36 419.61,-518.21"/>
<polygon fill="black" stroke="black" points="422.76,-516.65 414.56,-509.94 416.79,-520.3 422.76,-516.65"/>
</g>
<!-- n_5 -->
<g id="node13" class="node">
<title>n_5</title>
<polygon fill="none" stroke="black" points="507,-461.88 507,-487.12 560,-487.12 560,-461.88 507,-461.88"/>
<text text-anchor="start" x="514" y="-472.57" font-family="Times New Roman,serif" font-weight="bold" font-size="9.00">Obesity II</text>
<polygon fill="none" stroke="black" points="506,-460.88 506,-488.12 561,-488.12 561,-460.88 506,-460.88"/>
</g>
<!-- n_0_1_2_3_4_5_6&#45;&gt;n_5 -->
<g id="edge12" class="edge">
<title>n_0_1_2_3_4_5_6&#45;&gt;n_5</title>
<path fill="none" stroke="black" d="M486.61,-552.19C496.65,-535.78 508.15,-516.96 517.26,-502.07"/>
<polygon fill="black" stroke="black" points="520.11,-504.11 522.34,-493.75 514.14,-500.46 520.11,-504.11"/>
</g>
<!-- n_0_2_3_4_6 -->
<g id="node3" class="node">
<title>n_0_2_3_4_6</title>
<polygon fill="none" stroke="black" points="242.38,-342 242.38,-392 330.62,-392 330.62,-342 242.38,-342"/>
<text text-anchor="start" x="249.38" y="-377.45" font-family="Times New Roman,serif" font-weight="bold" font-size="9.00">Insufficient weight</text>
<text text-anchor="start" x="261" y="-368.45" font-family="Times New Roman,serif" font-weight="bold" font-size="9.00">Overweight I</text>
<text text-anchor="start" x="268.5" y="-359.45" font-family="Times New Roman,serif" font-weight="bold" font-size="9.00">Obesity I</text>
<text text-anchor="start" x="265.5" y="-350.45" font-family="Times New Roman,serif" font-weight="bold" font-size="9.00">Obesity III</text>
<polygon fill="none" stroke="black" points="330.62,-342 330.62,-392 398.62,-392 398.62,-342 330.62,-342"/>
<text text-anchor="start" x="337.62" y="-365.07" font-family="Times New Roman,serif" font-weight="bold" font-size="9.00">Overweight II</text>
<polygon fill="none" stroke="black" points="241.38,-341 241.38,-393 399.62,-393 399.62,-341 241.38,-341"/>
</g>
<!-- n_0_1_2_3_4_6&#45;&gt;n_0_2_3_4_6 -->
<g id="edge2" class="edge">
<title>n_0_1_2_3_4_6&#45;&gt;n_0_2_3_4_6</title>
<path fill="none" stroke="black" d="M370.4,-440.12C362.97,-429.38 354.68,-417.4 347.02,-406.33"/>
<polygon fill="black" stroke="black" points="349.93,-404.37 341.36,-398.14 344.17,-408.36 349.93,-404.37"/>
</g>
<!-- n_1 -->
<g id="node12" class="node">
<title>n_1</title>
<polygon fill="none" stroke="black" points="445.5,-354.38 445.5,-379.62 489.5,-379.62 489.5,-354.38 445.5,-354.38"/>
<text text-anchor="start" x="452.5" y="-365.07" font-family="Times New Roman,serif" font-weight="bold" font-size="9.00">Normal</text>
<polygon fill="none" stroke="black" points="444.5,-353.38 444.5,-380.62 490.5,-380.62 490.5,-353.38 444.5,-353.38"/>
</g>
<!-- n_0_1_2_3_4_6&#45;&gt;n_1 -->
<g id="edge11" class="edge">
<title>n_0_1_2_3_4_6&#45;&gt;n_1</title>
<path fill="none" stroke="black" d="M416.91,-440.12C427.37,-425.21 439.51,-407.9 449.28,-393.98"/>
<polygon fill="black" stroke="black" points="451.86,-396.39 454.74,-386.19 446.13,-392.37 451.86,-396.39"/>
</g>
<!-- n_0_2_4_6 -->
<g id="node4" class="node">
<title>n_0_2_4_6</title>
<polygon fill="none" stroke="black" points="176.38,-248 176.38,-289 264.62,-289 264.62,-248 176.38,-248"/>
<text text-anchor="start" x="183.38" y="-274.45" font-family="Times New Roman,serif" font-weight="bold" font-size="9.00">Insufficient weight</text>
<text text-anchor="start" x="195" y="-265.45" font-family="Times New Roman,serif" font-weight="bold" font-size="9.00">Overweight I</text>
<text text-anchor="start" x="199.5" y="-256.45" font-family="Times New Roman,serif" font-weight="bold" font-size="9.00">Obesity III</text>
<polygon fill="none" stroke="black" points="264.62,-248 264.62,-289 314.62,-289 314.62,-248 264.62,-248"/>
<text text-anchor="start" x="271.62" y="-266.57" font-family="Times New Roman,serif" font-weight="bold" font-size="9.00">Obesity I</text>
<polygon fill="none" stroke="black" points="175.38,-247 175.38,-290 315.62,-290 315.62,-247 175.38,-247"/>
</g>
<!-- n_0_2_3_4_6&#45;&gt;n_0_2_4_6 -->
<g id="edge3" class="edge">
<title>n_0_2_3_4_6&#45;&gt;n_0_2_4_6</title>
<path fill="none" stroke="black" d="M298,-337.05C289.64,-326.29 280.09,-314 271.44,-302.88"/>
<polygon fill="black" stroke="black" points="274.27,-300.82 265.37,-295.07 268.75,-305.11 274.27,-300.82"/>
</g>
<!-- n_3 -->
<g id="node11" class="node">
<title>n_3</title>
<polygon fill="none" stroke="black" points="361.5,-255.88 361.5,-281.12 429.5,-281.12 429.5,-255.88 361.5,-255.88"/>
<text text-anchor="start" x="368.5" y="-266.57" font-family="Times New Roman,serif" font-weight="bold" font-size="9.00">Overweight II</text>
<polygon fill="none" stroke="black" points="360.5,-254.88 360.5,-282.12 430.5,-282.12 430.5,-254.88 360.5,-254.88"/>
</g>
<!-- n_0_2_3_4_6&#45;&gt;n_3 -->
<g id="edge10" class="edge">
<title>n_0_2_3_4_6&#45;&gt;n_3</title>
<path fill="none" stroke="black" d="M343,-337.05C353.35,-323.73 365.52,-308.07 375.54,-295.19"/>
<polygon fill="black" stroke="black" points="378.09,-297.6 381.46,-287.56 372.56,-293.31 378.09,-297.6"/>
</g>
<!-- n_0_2_6 -->
<g id="node5" class="node">
<title>n_0_2_6</title>
<polygon fill="none" stroke="black" points="94.88,-163 94.88,-195 159.88,-195 159.88,-163 94.88,-163"/>
<text text-anchor="start" x="101.88" y="-180.45" font-family="Times New Roman,serif" font-weight="bold" font-size="9.00">Overweight I</text>
<text text-anchor="start" x="106.38" y="-171.45" font-family="Times New Roman,serif" font-weight="bold" font-size="9.00">Obesity III</text>
<polygon fill="none" stroke="black" points="159.88,-163 159.88,-195 248.12,-195 248.12,-163 159.88,-163"/>
<text text-anchor="start" x="166.88" y="-177.07" font-family="Times New Roman,serif" font-weight="bold" font-size="9.00">Insufficient weight</text>
<polygon fill="none" stroke="black" points="93.88,-162 93.88,-196 249.12,-196 249.12,-162 93.88,-162"/>
</g>
<!-- n_0_2_4_6&#45;&gt;n_0_2_6 -->
<g id="edge4" class="edge">
<title>n_0_2_4_6&#45;&gt;n_0_2_6</title>
<path fill="none" stroke="black" d="M224.89,-243.13C215.78,-232.35 205,-219.62 195.53,-208.41"/>
<polygon fill="black" stroke="black" points="198.37,-206.36 189.24,-200.98 193.03,-210.88 198.37,-206.36"/>
</g>
<!-- n_4 -->
<g id="node10" class="node">
<title>n_4</title>
<polygon fill="none" stroke="black" points="295.5,-166.38 295.5,-191.62 345.5,-191.62 345.5,-166.38 295.5,-166.38"/>
<text text-anchor="start" x="302.5" y="-177.07" font-family="Times New Roman,serif" font-weight="bold" font-size="9.00">Obesity I</text>
<polygon fill="none" stroke="black" points="294.5,-165.38 294.5,-192.62 346.5,-192.62 346.5,-165.38 294.5,-165.38"/>
</g>
<!-- n_0_2_4_6&#45;&gt;n_4 -->
<g id="edge9" class="edge">
<title>n_0_2_4_6&#45;&gt;n_4</title>
<path fill="none" stroke="black" d="M266.39,-243.13C276.48,-231.36 288.57,-217.25 298.77,-205.36"/>
<polygon fill="black" stroke="black" points="301.29,-207.79 305.14,-197.92 295.97,-203.23 301.29,-207.79"/>
</g>
<!-- n_2_6 -->
<g id="node6" class="node">
<title>n_2_6</title>
<polygon fill="none" stroke="black" points="35,-84.38 35,-109.62 100,-109.62 100,-84.38 35,-84.38"/>
<text text-anchor="start" x="42" y="-95.08" font-family="Times New Roman,serif" font-weight="bold" font-size="9.00">Overweight I</text>
<polygon fill="none" stroke="black" points="100,-84.38 100,-109.62 156,-109.62 156,-84.38 100,-84.38"/>
<text text-anchor="start" x="107" y="-95.08" font-family="Times New Roman,serif" font-weight="bold" font-size="9.00">Obesity III</text>
<polygon fill="none" stroke="black" points="34,-83.38 34,-110.62 157,-110.62 157,-83.38 34,-83.38"/>
</g>
<!-- n_0_2_6&#45;&gt;n_2_6 -->
<g id="edge5" class="edge">
<title>n_0_2_6&#45;&gt;n_2_6</title>
<path fill="none" stroke="black" d="M152.71,-158.22C142.63,-147.61 130.09,-134.41 119.32,-123.07"/>
<polygon fill="black" stroke="black" points="121.97,-120.78 112.54,-115.94 116.89,-125.6 121.97,-120.78"/>
</g>
<!-- n_0 -->
<g id="node9" class="node">
<title>n_0</title>
<polygon fill="none" stroke="black" points="203.38,-84.38 203.38,-109.62 291.62,-109.62 291.62,-84.38 203.38,-84.38"/>
<text text-anchor="start" x="210.38" y="-95.08" font-family="Times New Roman,serif" font-weight="bold" font-size="9.00">Insufficient weight</text>
<polygon fill="none" stroke="black" points="202.38,-83.38 202.38,-110.62 292.62,-110.62 292.62,-83.38 202.38,-83.38"/>
</g>
<!-- n_0_2_6&#45;&gt;n_0 -->
<g id="edge8" class="edge">
<title>n_0_2_6&#45;&gt;n_0</title>
<path fill="none" stroke="black" d="M190.29,-158.22C200.37,-147.61 212.91,-134.41 223.68,-123.07"/>
<polygon fill="black" stroke="black" points="226.11,-125.6 230.46,-115.94 221.03,-120.78 226.11,-125.6"/>
</g>
<!-- n_2 -->
<g id="node7" class="node">
<title>n_2</title>
<polygon fill="none" stroke="black" points="9,-5.38 9,-30.62 74,-30.62 74,-5.38 9,-5.38"/>
<text text-anchor="start" x="16" y="-16.07" font-family="Times New Roman,serif" font-weight="bold" font-size="9.00">Overweight I</text>
<polygon fill="none" stroke="black" points="8,-4.38 8,-31.62 75,-31.62 75,-4.38 8,-4.38"/>
</g>
<!-- n_2_6&#45;&gt;n_2 -->
<g id="edge6" class="edge">
<title>n_2_6&#45;&gt;n_2</title>
<path fill="none" stroke="black" d="M83.78,-79.29C76.83,-69.37 67.85,-56.57 59.96,-45.32"/>
<polygon fill="black" stroke="black" points="62.86,-43.36 54.25,-37.18 57.13,-47.38 62.86,-43.36"/>
</g>
<!-- n_6 -->
<g id="node8" class="node">
<title>n_6</title>
<polygon fill="none" stroke="black" points="121.5,-5.38 121.5,-30.62 177.5,-30.62 177.5,-5.38 121.5,-5.38"/>
<text text-anchor="start" x="128.5" y="-16.07" font-family="Times New Roman,serif" font-weight="bold" font-size="9.00">Obesity III</text>
<polygon fill="none" stroke="black" points="120.5,-4.38 120.5,-31.62 178.5,-31.62 178.5,-4.38 120.5,-4.38"/>
</g>
<!-- n_2_6&#45;&gt;n_6 -->
<g id="edge7" class="edge">
<title>n_2_6&#45;&gt;n_6</title>
<path fill="none" stroke="black" d="M107.22,-79.29C114.17,-69.37 123.15,-56.57 131.04,-45.32"/>
<polygon fill="black" stroke="black" points="133.87,-47.38 136.75,-37.18 128.14,-43.36 133.87,-47.38"/>
</g>
</g>
</svg>
