<?xml version="1.0" encoding="UTF-8" standalone="no"?>
<!DOCTYPE svg PUBLIC "-//W3C//DTD SVG 1.1//EN"
 "http://www.w3.org/Graphics/SVG/1.1/DTD/svg11.dtd">
<!-- Generated by graphviz version 10.0.1 (20240210.2158)
 -->
<!-- Title: ND Pages: 1 -->
<svg width="626pt" height="526pt"
 viewBox="0.00 0.00 626.12 526.00" xmlns="http://www.w3.org/2000/svg" xmlns:xlink="http://www.w3.org/1999/xlink">
<g id="graph0" class="graph" transform="scale(1 1) rotate(0) translate(4 522)">
<title>ND</title>
<polygon fill="white" stroke="none" points="-4,4 -4,-522 622.12,-522 622.12,4 -4,4"/>
<!-- n_0_1_2_3_4_5_6 -->
<g id="node1" class="node">
<title>n_0_1_2_3_4_5_6</title>
<polygon fill="none" stroke="black" points="417,-445 417,-513 505.25,-513 505.25,-445 417,-445"/>
<text text-anchor="start" x="424" y="-498.45" font-family="Times New Roman,serif" font-weight="bold" font-size="9.00">Insufficient weight</text>
<text text-anchor="start" x="435.62" y="-489.45" font-family="Times New Roman,serif" font-weight="bold" font-size="9.00">Overweight I</text>
<text text-anchor="start" x="434.12" y="-480.45" font-family="Times New Roman,serif" font-weight="bold" font-size="9.00">Overweight II</text>
<text text-anchor="start" x="443.12" y="-471.45" font-family="Times New Roman,serif" font-weight="bold" font-size="9.00">Obesity I</text>
<text text-anchor="start" x="441.62" y="-462.45" font-family="Times New Roman,serif" font-weight="bold" font-size="9.00">Obesity II</text>
<text text-anchor="start" x="440.12" y="-453.45" font-family="Times New Roman,serif" font-weight="bold" font-size="9.00">Obesity III</text>
<polygon fill="none" stroke="black" points="505.25,-445 505.25,-513 549.25,-513 549.25,-445 505.25,-445"/>
<text text-anchor="start" x="512.25" y="-477.07" font-family="Times New Roman,serif" font-weight="bold" font-size="9.00">Normal</text>
<polygon fill="none" stroke="black" points="416,-444 416,-514 550.25,-514 550.25,-444 416,-444"/>
</g>
<!-- n_0_2_3_4_5_6 -->
<g id="node2" class="node">
<title>n_0_2_3_4_5_6</title>
<polygon fill="none" stroke="black" points="341,-342 341,-392 429.25,-392 429.25,-342 341,-342"/>
<text text-anchor="start" x="348" y="-377.45" font-family="Times New Roman,serif" font-weight="bold" font-size="9.00">Insufficient weight</text>
<text text-anchor="start" x="359.62" y="-368.45" font-family="Times New Roman,serif" font-weight="bold" font-size="9.00">Overweight I</text>
<text text-anchor="start" x="358.12" y="-359.45" font-family="Times New Roman,serif" font-weight="bold" font-size="9.00">Overweight II</text>
<text text-anchor="start" x="365.62" y="-350.45" font-family="Times New Roman,serif" font-weight="bold" font-size="9.00">Obesity II</text>
<polygon fill="none" stroke="black" points="429.25,-342 429.25,-392 485.25,-392 485.25,-342 429.25,-342"/>
<text text-anchor="start" x="439.25" y="-368.45" font-family="Times New Roman,serif" font-weight="bold" font-size="9.00">Obesity I</text>
<text text-anchor="start" x="436.25" y="-359.45" font-family="Times New Roman,serif" font-weight="bold" font-size="9.00">Obesity III</text>
<polygon fill="none" stroke="black" points="340,-341 340,-393 486.25,-393 486.25,-341 340,-341"/>
</g>
<!-- n_0_1_2_3_4_5_6&#45;&gt;n_0_2_3_4_5_6 -->
<g id="edge1" class="edge">
<title>n_0_1_2_3_4_5_6&#45;&gt;n_0_2_3_4_5_6</title>
<path fill="none" stroke="black" d="M459.03,-440.14C452.13,-429.3 444.6,-417.46 437.67,-406.57"/>
<polygon fill="black" stroke="black" points="440.64,-404.72 432.32,-398.16 434.74,-408.48 440.64,-404.72"/>
</g>
<!-- n_1 -->
<g id="node13" class="node">
<title>n_1</title>
<polygon fill="none" stroke="black" points="532.12,-354.38 532.12,-379.62 576.12,-379.62 576.12,-354.38 532.12,-354.38"/>
<text text-anchor="start" x="539.12" y="-365.07" font-family="Times New Roman,serif" font-weight="bold" font-size="9.00">Normal</text>
<polygon fill="none" stroke="black" points="531.12,-353.38 531.12,-380.62 577.12,-380.62 577.12,-353.38 531.12,-353.38"/>
</g>
<!-- n_0_1_2_3_4_5_6&#45;&gt;n_1 -->
<g id="edge12" class="edge">
<title>n_0_1_2_3_4_5_6&#45;&gt;n_1</title>
<path fill="none" stroke="black" d="M507.56,-440.14C517.31,-425.04 528.29,-408.02 537.14,-394.31"/>
<polygon fill="black" stroke="black" points="539.86,-396.55 542.34,-386.25 533.98,-392.76 539.86,-396.55"/>
</g>
<!-- n_0_2_3_5 -->
<g id="node3" class="node">
<title>n_0_2_3_5</title>
<polygon fill="none" stroke="black" points="257.5,-248 257.5,-289 345.75,-289 345.75,-248 257.5,-248"/>
<text text-anchor="start" x="264.5" y="-274.45" font-family="Times New Roman,serif" font-weight="bold" font-size="9.00">Insufficient weight</text>
<text text-anchor="start" x="276.12" y="-265.45" font-family="Times New Roman,serif" font-weight="bold" font-size="9.00">Overweight I</text>
<text text-anchor="start" x="274.62" y="-256.45" font-family="Times New Roman,serif" font-weight="bold" font-size="9.00">Overweight II</text>
<polygon fill="none" stroke="black" points="345.75,-248 345.75,-289 398.75,-289 398.75,-248 345.75,-248"/>
<text text-anchor="start" x="352.75" y="-266.57" font-family="Times New Roman,serif" font-weight="bold" font-size="9.00">Obesity II</text>
<polygon fill="none" stroke="black" points="256.5,-247 256.5,-290 399.75,-290 399.75,-247 256.5,-247"/>
</g>
<!-- n_0_2_3_4_5_6&#45;&gt;n_0_2_3_5 -->
<g id="edge2" class="edge">
<title>n_0_2_3_4_5_6&#45;&gt;n_0_2_3_5</title>
<path fill="none" stroke="black" d="M387.62,-337.05C377.96,-326.08 366.89,-313.51 356.94,-302.22"/>
<polygon fill="black" stroke="black" points="359.83,-300.2 350.6,-295.01 354.58,-304.83 359.83,-300.2"/>
</g>
<!-- n_4_6 -->
<g id="node10" class="node">
<title>n_4_6</title>
<polygon fill="none" stroke="black" points="446.12,-255.88 446.12,-281.12 496.12,-281.12 496.12,-255.88 446.12,-255.88"/>
<text text-anchor="start" x="453.12" y="-266.57" font-family="Times New Roman,serif" font-weight="bold" font-size="9.00">Obesity I</text>
<polygon fill="none" stroke="black" points="496.12,-255.88 496.12,-281.12 552.12,-281.12 552.12,-255.88 496.12,-255.88"/>
<text text-anchor="start" x="503.12" y="-266.57" font-family="Times New Roman,serif" font-weight="bold" font-size="9.00">Obesity III</text>
<polygon fill="none" stroke="black" points="445.12,-254.88 445.12,-282.12 553.12,-282.12 553.12,-254.88 445.12,-254.88"/>
</g>
<!-- n_0_2_3_4_5_6&#45;&gt;n_4_6 -->
<g id="edge9" class="edge">
<title>n_0_2_3_4_5_6&#45;&gt;n_4_6</title>
<path fill="none" stroke="black" d="M438.93,-337.05C450.91,-323.6 465.02,-307.77 476.57,-294.81"/>
<polygon fill="black" stroke="black" points="479.05,-297.29 483.09,-287.5 473.82,-292.63 479.05,-297.29"/>
</g>
<!-- n_0_2_3 -->
<g id="node4" class="node">
<title>n_0_2_3</title>
<polygon fill="none" stroke="black" points="116,-163 116,-195 204.25,-195 204.25,-163 116,-163"/>
<text text-anchor="start" x="123" y="-180.45" font-family="Times New Roman,serif" font-weight="bold" font-size="9.00">Insufficient weight</text>
<text text-anchor="start" x="134.62" y="-171.45" font-family="Times New Roman,serif" font-weight="bold" font-size="9.00">Overweight I</text>
<polygon fill="none" stroke="black" points="204.25,-163 204.25,-195 272.25,-195 272.25,-163 204.25,-163"/>
<text text-anchor="start" x="211.25" y="-177.07" font-family="Times New Roman,serif" font-weight="bold" font-size="9.00">Overweight II</text>
<polygon fill="none" stroke="black" points="115,-162 115,-196 273.25,-196 273.25,-162 115,-162"/>
</g>
<!-- n_0_2_3_5&#45;&gt;n_0_2_3 -->
<g id="edge3" class="edge">
<title>n_0_2_3_5&#45;&gt;n_0_2_3</title>
<path fill="none" stroke="black" d="M290.8,-243.13C273.16,-231.61 252.07,-217.84 234.11,-206.11"/>
<polygon fill="black" stroke="black" points="236.04,-203.19 225.75,-200.65 232.21,-209.05 236.04,-203.19"/>
</g>
<!-- n_5 -->
<g id="node9" class="node">
<title>n_5</title>
<polygon fill="none" stroke="black" points="319.62,-166.38 319.62,-191.62 372.62,-191.62 372.62,-166.38 319.62,-166.38"/>
<text text-anchor="start" x="326.62" y="-177.07" font-family="Times New Roman,serif" font-weight="bold" font-size="9.00">Obesity II</text>
<polygon fill="none" stroke="black" points="318.62,-165.38 318.62,-192.62 373.62,-192.62 373.62,-165.38 318.62,-165.38"/>
</g>
<!-- n_0_2_3_5&#45;&gt;n_5 -->
<g id="edge8" class="edge">
<title>n_0_2_3_5&#45;&gt;n_5</title>
<path fill="none" stroke="black" d="M333.14,-243.13C335.39,-232.17 338.07,-219.18 340.4,-207.84"/>
<polygon fill="black" stroke="black" points="343.78,-208.75 342.37,-198.25 336.93,-207.34 343.78,-208.75"/>
</g>
<!-- n_0_2 -->
<g id="node5" class="node">
<title>n_0_2</title>
<polygon fill="none" stroke="black" points="38.5,-84.38 38.5,-109.62 126.75,-109.62 126.75,-84.38 38.5,-84.38"/>
<text text-anchor="start" x="45.5" y="-95.08" font-family="Times New Roman,serif" font-weight="bold" font-size="9.00">Insufficient weight</text>
<polygon fill="none" stroke="black" points="126.75,-84.38 126.75,-109.62 191.75,-109.62 191.75,-84.38 126.75,-84.38"/>
<text text-anchor="start" x="133.75" y="-95.08" font-family="Times New Roman,serif" font-weight="bold" font-size="9.00">Overweight I</text>
<polygon fill="none" stroke="black" points="37.5,-83.38 37.5,-110.62 192.75,-110.62 192.75,-83.38 37.5,-83.38"/>
</g>
<!-- n_0_2_3&#45;&gt;n_0_2 -->
<g id="edge4" class="edge">
<title>n_0_2_3&#45;&gt;n_0_2</title>
<path fill="none" stroke="black" d="M174.6,-158.22C164.01,-147.5 150.82,-134.15 139.56,-122.74"/>
<polygon fill="black" stroke="black" points="142.34,-120.58 132.82,-115.92 137.36,-125.5 142.34,-120.58"/>
</g>
<!-- n_3 -->
<g id="node8" class="node">
<title>n_3</title>
<polygon fill="none" stroke="black" points="239.12,-84.38 239.12,-109.62 307.12,-109.62 307.12,-84.38 239.12,-84.38"/>
<text text-anchor="start" x="246.12" y="-95.08" font-family="Times New Roman,serif" font-weight="bold" font-size="9.00">Overweight II</text>
<polygon fill="none" stroke="black" points="238.12,-83.38 238.12,-110.62 308.12,-110.62 308.12,-83.38 238.12,-83.38"/>
</g>
<!-- n_0_2_3&#45;&gt;n_3 -->
<g id="edge7" class="edge">
<title>n_0_2_3&#45;&gt;n_3</title>
<path fill="none" stroke="black" d="M213.65,-158.22C224.24,-147.5 237.43,-134.15 248.69,-122.74"/>
<polygon fill="black" stroke="black" points="250.89,-125.5 255.43,-115.92 245.91,-120.58 250.89,-125.5"/>
</g>
<!-- n_0 -->
<g id="node6" class="node">
<title>n_0</title>
<polygon fill="none" stroke="black" points="9,-5.38 9,-30.62 97.25,-30.62 97.25,-5.38 9,-5.38"/>
<text text-anchor="start" x="16" y="-16.07" font-family="Times New Roman,serif" font-weight="bold" font-size="9.00">Insufficient weight</text>
<polygon fill="none" stroke="black" points="8,-4.38 8,-31.62 98.25,-31.62 98.25,-4.38 8,-4.38"/>
</g>
<!-- n_0_2&#45;&gt;n_0 -->
<g id="edge5" class="edge">
<title>n_0_2&#45;&gt;n_0</title>
<path fill="none" stroke="black" d="M101.67,-79.29C93.52,-69.17 82.96,-56.05 73.77,-44.64"/>
<polygon fill="black" stroke="black" points="76.71,-42.71 67.72,-37.12 71.26,-47.1 76.71,-42.71"/>
</g>
<!-- n_2 -->
<g id="node7" class="node">
<title>n_2</title>
<polygon fill="none" stroke="black" points="144.62,-5.38 144.62,-30.62 209.62,-30.62 209.62,-5.38 144.62,-5.38"/>
<text text-anchor="start" x="151.62" y="-16.07" font-family="Times New Roman,serif" font-weight="bold" font-size="9.00">Overweight I</text>
<polygon fill="none" stroke="black" points="143.62,-4.38 143.62,-31.62 210.62,-31.62 210.62,-4.38 143.62,-4.38"/>
</g>
<!-- n_0_2&#45;&gt;n_2 -->
<g id="edge6" class="edge">
<title>n_0_2&#45;&gt;n_2</title>
<path fill="none" stroke="black" d="M128.58,-79.29C136.73,-69.17 147.29,-56.05 156.48,-44.64"/>
<polygon fill="black" stroke="black" points="158.99,-47.1 162.53,-37.12 153.54,-42.71 158.99,-47.1"/>
</g>
<!-- n_4 -->
<g id="node11" class="node">
<title>n_4</title>
<polygon fill="none" stroke="black" points="456.12,-166.38 456.12,-191.62 506.12,-191.62 506.12,-166.38 456.12,-166.38"/>
<text text-anchor="start" x="463.12" y="-177.07" font-family="Times New Roman,serif" font-weight="bold" font-size="9.00">Obesity I</text>
<polygon fill="none" stroke="black" points="455.12,-165.38 455.12,-192.62 507.12,-192.62 507.12,-165.38 455.12,-165.38"/>
</g>
<!-- n_4_6&#45;&gt;n_4 -->
<g id="edge10" class="edge">
<title>n_4_6&#45;&gt;n_4</title>
<path fill="none" stroke="black" d="M495.65,-250.63C493.16,-238.52 489.75,-221.94 486.86,-207.88"/>
<polygon fill="black" stroke="black" points="490.33,-207.39 484.89,-198.3 483.48,-208.8 490.33,-207.39"/>
</g>
<!-- n_6 -->
<g id="node12" class="node">
<title>n_6</title>
<polygon fill="none" stroke="black" points="553.12,-166.38 553.12,-191.62 609.12,-191.62 609.12,-166.38 553.12,-166.38"/>
<text text-anchor="start" x="560.12" y="-177.07" font-family="Times New Roman,serif" font-weight="bold" font-size="9.00">Obesity III</text>
<polygon fill="none" stroke="black" points="552.12,-165.38 552.12,-192.62 610.12,-192.62 610.12,-165.38 552.12,-165.38"/>
</g>
<!-- n_4_6&#45;&gt;n_6 -->
<g id="edge11" class="edge">
<title>n_4_6&#45;&gt;n_6</title>
<path fill="none" stroke="black" d="M514.94,-250.63C527.07,-237.68 544.02,-219.59 557.73,-204.97"/>
<polygon fill="black" stroke="black" points="560.04,-207.61 564.33,-197.92 554.94,-202.83 560.04,-207.61"/>
</g>
</g>
</svg>
