<?xml version="1.0" encoding="UTF-8" standalone="no"?>
<!DOCTYPE svg PUBLIC "-//W3C//DTD SVG 1.1//EN"
 "http://www.w3.org/Graphics/SVG/1.1/DTD/svg11.dtd">
<!-- Generated by graphviz version 10.0.1 (20240210.2158)
 -->
<!-- Title: ND Pages: 1 -->
<svg width="650pt" height="423pt"
 viewBox="0.00 0.00 650.00 423.00" xmlns="http://www.w3.org/2000/svg" xmlns:xlink="http://www.w3.org/1999/xlink">
<g id="graph0" class="graph" transform="scale(1 1) rotate(0) translate(4 419)">
<title>ND</title>
<polygon fill="white" stroke="none" points="-4,4 -4,-419 646,-419 646,4 -4,4"/>
<!-- n_0_1_2_3_4_5_6 -->
<g id="node1" class="node">
<title>n_0_1_2_3_4_5_6</title>
<polygon fill="none" stroke="black" points="319.38,-351 319.38,-410 384.38,-410 384.38,-351 319.38,-351"/>
<text text-anchor="start" x="336.88" y="-395.45" font-family="Times New Roman,serif" font-weight="bold" font-size="9.00">Normal</text>
<text text-anchor="start" x="326.38" y="-386.45" font-family="Times New Roman,serif" font-weight="bold" font-size="9.00">Overweight I</text>
<text text-anchor="start" x="333.88" y="-377.45" font-family="Times New Roman,serif" font-weight="bold" font-size="9.00">Obesity I</text>
<text text-anchor="start" x="332.38" y="-368.45" font-family="Times New Roman,serif" font-weight="bold" font-size="9.00">Obesity II</text>
<text text-anchor="start" x="330.88" y="-359.45" font-family="Times New Roman,serif" font-weight="bold" font-size="9.00">Obesity III</text>
<polygon fill="none" stroke="black" points="384.38,-351 384.38,-410 472.62,-410 472.62,-351 384.38,-351"/>
<text text-anchor="start" x="391.38" y="-381.95" font-family="Times New Roman,serif" font-weight="bold" font-size="9.00">Insufficient weight</text>
<text text-anchor="start" x="401.5" y="-372.95" font-family="Times New Roman,serif" font-weight="bold" font-size="9.00">Overweight II</text>
<polygon fill="none" stroke="black" points="318.38,-350 318.38,-411 473.62,-411 473.62,-350 318.38,-350"/>
</g>
<!-- n_1_2_4_5_6 -->
<g id="node2" class="node">
<title>n_1_2_4_5_6</title>
<polygon fill="none" stroke="black" points="242.5,-248 242.5,-298 298.5,-298 298.5,-248 242.5,-248"/>
<text text-anchor="start" x="255.5" y="-283.45" font-family="Times New Roman,serif" font-weight="bold" font-size="9.00">Normal</text>
<text text-anchor="start" x="252.5" y="-274.45" font-family="Times New Roman,serif" font-weight="bold" font-size="9.00">Obesity I</text>
<text text-anchor="start" x="251" y="-265.45" font-family="Times New Roman,serif" font-weight="bold" font-size="9.00">Obesity II</text>
<text text-anchor="start" x="249.5" y="-256.45" font-family="Times New Roman,serif" font-weight="bold" font-size="9.00">Obesity III</text>
<polygon fill="none" stroke="black" points="298.5,-248 298.5,-298 363.5,-298 363.5,-248 298.5,-248"/>
<text text-anchor="start" x="305.5" y="-271.07" font-family="Times New Roman,serif" font-weight="bold" font-size="9.00">Overweight I</text>
<polygon fill="none" stroke="black" points="241.5,-247 241.5,-299 364.5,-299 364.5,-247 241.5,-247"/>
</g>
<!-- n_0_1_2_3_4_5_6&#45;&gt;n_1_2_4_5_6 -->
<g id="edge1" class="edge">
<title>n_0_1_2_3_4_5_6&#45;&gt;n_1_2_4_5_6</title>
<path fill="none" stroke="black" d="M366.57,-346.12C356.82,-335.05 345.9,-322.67 335.91,-311.33"/>
<polygon fill="black" stroke="black" points="338.71,-309.22 329.48,-304.03 333.46,-313.85 338.71,-309.22"/>
</g>
<!-- n_0_3 -->
<g id="node11" class="node">
<title>n_0_3</title>
<polygon fill="none" stroke="black" points="410.88,-260.38 410.88,-285.62 499.12,-285.62 499.12,-260.38 410.88,-260.38"/>
<text text-anchor="start" x="417.88" y="-271.07" font-family="Times New Roman,serif" font-weight="bold" font-size="9.00">Insufficient weight</text>
<polygon fill="none" stroke="black" points="499.12,-260.38 499.12,-285.62 567.12,-285.62 567.12,-260.38 499.12,-260.38"/>
<text text-anchor="start" x="506.12" y="-271.07" font-family="Times New Roman,serif" font-weight="bold" font-size="9.00">Overweight II</text>
<polygon fill="none" stroke="black" points="409.88,-259.38 409.88,-286.62 568.12,-286.62 568.12,-259.38 409.88,-259.38"/>
</g>
<!-- n_0_1_2_3_4_5_6&#45;&gt;n_0_3 -->
<g id="edge10" class="edge">
<title>n_0_1_2_3_4_5_6&#45;&gt;n_0_3</title>
<path fill="none" stroke="black" d="M425.43,-346.12C438.7,-331.06 454.12,-313.57 466.45,-299.58"/>
<polygon fill="black" stroke="black" points="469.07,-301.9 473.06,-292.09 463.82,-297.27 469.07,-301.9"/>
</g>
<!-- n_1_4_5_6 -->
<g id="node3" class="node">
<title>n_1_4_5_6</title>
<polygon fill="none" stroke="black" points="133,-163 133,-195 183,-195 183,-163 133,-163"/>
<text text-anchor="start" x="143" y="-180.45" font-family="Times New Roman,serif" font-weight="bold" font-size="9.00">Normal</text>
<text text-anchor="start" x="140" y="-171.45" font-family="Times New Roman,serif" font-weight="bold" font-size="9.00">Obesity I</text>
<polygon fill="none" stroke="black" points="183,-163 183,-195 239,-195 239,-163 183,-163"/>
<text text-anchor="start" x="191.5" y="-180.45" font-family="Times New Roman,serif" font-weight="bold" font-size="9.00">Obesity II</text>
<text text-anchor="start" x="190" y="-171.45" font-family="Times New Roman,serif" font-weight="bold" font-size="9.00">Obesity III</text>
<polygon fill="none" stroke="black" points="132,-162 132,-196 240,-196 240,-162 132,-162"/>
</g>
<!-- n_1_2_4_5_6&#45;&gt;n_1_4_5_6 -->
<g id="edge2" class="edge">
<title>n_1_2_4_5_6&#45;&gt;n_1_4_5_6</title>
<path fill="none" stroke="black" d="M266.3,-243.14C251.43,-231.45 234.36,-218.03 219.8,-206.57"/>
<polygon fill="black" stroke="black" points="222.31,-204.1 212.28,-200.67 217.98,-209.6 222.31,-204.1"/>
</g>
<!-- n_2 -->
<g id="node10" class="node">
<title>n_2</title>
<polygon fill="none" stroke="black" points="286.5,-166.38 286.5,-191.62 351.5,-191.62 351.5,-166.38 286.5,-166.38"/>
<text text-anchor="start" x="293.5" y="-177.07" font-family="Times New Roman,serif" font-weight="bold" font-size="9.00">Overweight I</text>
<polygon fill="none" stroke="black" points="285.5,-165.38 285.5,-192.62 352.5,-192.62 352.5,-165.38 285.5,-165.38"/>
</g>
<!-- n_1_2_4_5_6&#45;&gt;n_2 -->
<g id="edge9" class="edge">
<title>n_1_2_4_5_6&#45;&gt;n_2</title>
<path fill="none" stroke="black" d="M308.02,-243.14C309.96,-232 312.17,-219.29 314.1,-208.2"/>
<polygon fill="black" stroke="black" points="317.52,-208.91 315.79,-198.46 310.63,-207.71 317.52,-208.91"/>
</g>
<!-- n_1_4 -->
<g id="node4" class="node">
<title>n_1_4</title>
<polygon fill="none" stroke="black" points="65,-84.38 65,-109.62 109,-109.62 109,-84.38 65,-84.38"/>
<text text-anchor="start" x="72" y="-95.08" font-family="Times New Roman,serif" font-weight="bold" font-size="9.00">Normal</text>
<polygon fill="none" stroke="black" points="109,-84.38 109,-109.62 159,-109.62 159,-84.38 109,-84.38"/>
<text text-anchor="start" x="116" y="-95.08" font-family="Times New Roman,serif" font-weight="bold" font-size="9.00">Obesity I</text>
<polygon fill="none" stroke="black" points="64,-83.38 64,-110.62 160,-110.62 160,-83.38 64,-83.38"/>
</g>
<!-- n_1_4_5_6&#45;&gt;n_1_4 -->
<g id="edge3" class="edge">
<title>n_1_4_5_6&#45;&gt;n_1_4</title>
<path fill="none" stroke="black" d="M167.71,-158.22C157.89,-147.61 145.68,-134.41 135.19,-123.07"/>
<polygon fill="black" stroke="black" points="137.97,-120.92 128.61,-115.95 132.83,-125.67 137.97,-120.92"/>
</g>
<!-- n_5_6 -->
<g id="node7" class="node">
<title>n_5_6</title>
<polygon fill="none" stroke="black" points="206.5,-84.38 206.5,-109.62 259.5,-109.62 259.5,-84.38 206.5,-84.38"/>
<text text-anchor="start" x="213.5" y="-95.08" font-family="Times New Roman,serif" font-weight="bold" font-size="9.00">Obesity II</text>
<polygon fill="none" stroke="black" points="259.5,-84.38 259.5,-109.62 315.5,-109.62 315.5,-84.38 259.5,-84.38"/>
<text text-anchor="start" x="266.5" y="-95.08" font-family="Times New Roman,serif" font-weight="bold" font-size="9.00">Obesity III</text>
<polygon fill="none" stroke="black" points="205.5,-83.38 205.5,-110.62 316.5,-110.62 316.5,-83.38 205.5,-83.38"/>
</g>
<!-- n_1_4_5_6&#45;&gt;n_5_6 -->
<g id="edge6" class="edge">
<title>n_1_4_5_6&#45;&gt;n_5_6</title>
<path fill="none" stroke="black" d="M204.54,-158.22C214.49,-147.61 226.87,-134.41 237.49,-123.07"/>
<polygon fill="black" stroke="black" points="239.89,-125.64 244.17,-115.95 234.78,-120.85 239.89,-125.64"/>
</g>
<!-- n_1 -->
<g id="node5" class="node">
<title>n_1</title>
<polygon fill="none" stroke="black" points="9,-5.38 9,-30.62 53,-30.62 53,-5.38 9,-5.38"/>
<text text-anchor="start" x="16" y="-16.07" font-family="Times New Roman,serif" font-weight="bold" font-size="9.00">Normal</text>
<polygon fill="none" stroke="black" points="8,-4.38 8,-31.62 54,-31.62 54,-4.38 8,-4.38"/>
</g>
<!-- n_1_4&#45;&gt;n_1 -->
<g id="edge4" class="edge">
<title>n_1_4&#45;&gt;n_1</title>
<path fill="none" stroke="black" d="M94.42,-79.29C83.46,-68.87 69.16,-55.27 56.91,-43.63"/>
<polygon fill="black" stroke="black" points="59.58,-41.34 49.92,-36.98 54.75,-46.41 59.58,-41.34"/>
</g>
<!-- n_4 -->
<g id="node6" class="node">
<title>n_4</title>
<polygon fill="none" stroke="black" points="100,-5.38 100,-30.62 150,-30.62 150,-5.38 100,-5.38"/>
<text text-anchor="start" x="107" y="-16.07" font-family="Times New Roman,serif" font-weight="bold" font-size="9.00">Obesity I</text>
<polygon fill="none" stroke="black" points="99,-4.38 99,-31.62 151,-31.62 151,-4.38 99,-4.38"/>
</g>
<!-- n_1_4&#45;&gt;n_4 -->
<g id="edge5" class="edge">
<title>n_1_4&#45;&gt;n_4</title>
<path fill="none" stroke="black" d="M114.82,-79.29C116.41,-69.87 118.44,-57.86 120.27,-47.04"/>
<polygon fill="black" stroke="black" points="123.67,-47.88 121.89,-37.43 116.77,-46.71 123.67,-47.88"/>
</g>
<!-- n_5 -->
<g id="node8" class="node">
<title>n_5</title>
<polygon fill="none" stroke="black" points="222.5,-5.38 222.5,-30.62 275.5,-30.62 275.5,-5.38 222.5,-5.38"/>
<text text-anchor="start" x="229.5" y="-16.07" font-family="Times New Roman,serif" font-weight="bold" font-size="9.00">Obesity II</text>
<polygon fill="none" stroke="black" points="221.5,-4.38 221.5,-31.62 276.5,-31.62 276.5,-4.38 221.5,-4.38"/>
</g>
<!-- n_5_6&#45;&gt;n_5 -->
<g id="edge7" class="edge">
<title>n_5_6&#45;&gt;n_5</title>
<path fill="none" stroke="black" d="M258.4,-79.29C256.93,-69.87 255.06,-57.86 253.37,-47.04"/>
<polygon fill="black" stroke="black" points="256.87,-46.78 251.87,-37.44 249.95,-47.86 256.87,-46.78"/>
</g>
<!-- n_6 -->
<g id="node9" class="node">
<title>n_6</title>
<polygon fill="none" stroke="black" points="323,-5.38 323,-30.62 379,-30.62 379,-5.38 323,-5.38"/>
<text text-anchor="start" x="330" y="-16.07" font-family="Times New Roman,serif" font-weight="bold" font-size="9.00">Obesity III</text>
<polygon fill="none" stroke="black" points="322,-4.38 322,-31.62 380,-31.62 380,-4.38 322,-4.38"/>
</g>
<!-- n_5_6&#45;&gt;n_6 -->
<g id="edge8" class="edge">
<title>n_5_6&#45;&gt;n_6</title>
<path fill="none" stroke="black" d="M280.53,-79.29C292.83,-68.77 308.91,-55.01 322.61,-43.29"/>
<polygon fill="black" stroke="black" points="324.73,-46.09 330.05,-36.93 320.17,-40.77 324.73,-46.09"/>
</g>
<!-- n_0 -->
<g id="node12" class="node">
<title>n_0</title>
<polygon fill="none" stroke="black" points="429.88,-166.38 429.88,-191.62 518.12,-191.62 518.12,-166.38 429.88,-166.38"/>
<text text-anchor="start" x="436.88" y="-177.07" font-family="Times New Roman,serif" font-weight="bold" font-size="9.00">Insufficient weight</text>
<polygon fill="none" stroke="black" points="428.88,-165.38 428.88,-192.62 519.12,-192.62 519.12,-165.38 428.88,-165.38"/>
</g>
<!-- n_0_3&#45;&gt;n_0 -->
<g id="edge11" class="edge">
<title>n_0_3&#45;&gt;n_0</title>
<path fill="none" stroke="black" d="M486.25,-255.13C484.09,-241.9 481.05,-223.21 478.53,-207.78"/>
<polygon fill="black" stroke="black" points="482.04,-207.57 476.98,-198.26 475.13,-208.69 482.04,-207.57"/>
</g>
<!-- n_3 -->
<g id="node13" class="node">
<title>n_3</title>
<polygon fill="none" stroke="black" points="565,-166.38 565,-191.62 633,-191.62 633,-166.38 565,-166.38"/>
<text text-anchor="start" x="572" y="-177.07" font-family="Times New Roman,serif" font-weight="bold" font-size="9.00">Overweight II</text>
<polygon fill="none" stroke="black" points="564,-165.38 564,-192.62 634,-192.62 634,-165.38 564,-165.38"/>
</g>
<!-- n_0_3&#45;&gt;n_3 -->
<g id="edge12" class="edge">
<title>n_0_3&#45;&gt;n_3</title>
<path fill="none" stroke="black" d="M509.18,-255.13C526.31,-240.8 551.1,-220.06 570.3,-204"/>
<polygon fill="black" stroke="black" points="572.37,-206.84 577.79,-197.74 567.87,-201.47 572.37,-206.84"/>
</g>
</g>
</svg>
