<?xml version="1.0" encoding="UTF-8" standalone="no"?>
<!DOCTYPE svg PUBLIC "-//W3C//DTD SVG 1.1//EN"
 "http://www.w3.org/Graphics/SVG/1.1/DTD/svg11.dtd">
<!-- Generated by graphviz version 10.0.1 (20240210.2158)
 -->
<!-- Title: ND Pages: 1 -->
<svg width="695pt" height="414pt"
 viewBox="0.00 0.00 694.50 414.00" xmlns="http://www.w3.org/2000/svg" xmlns:xlink="http://www.w3.org/1999/xlink">
<g id="graph0" class="graph" transform="scale(1 1) rotate(0) translate(4 410)">
<title>ND</title>
<polygon fill="white" stroke="none" points="-4,4 -4,-410 690.5,-410 690.5,4 -4,4"/>
<!-- n_0_1_2_3_4_5_6 -->
<g id="node1" class="node">
<title>n_0_1_2_3_4_5_6</title>
<polygon fill="none" stroke="black" points="381.38,-342 381.38,-401 449.38,-401 449.38,-342 381.38,-342"/>
<text text-anchor="start" x="389.88" y="-386.45" font-family="Times New Roman,serif" font-weight="bold" font-size="9.00">Overweight I</text>
<text text-anchor="start" x="388.38" y="-377.45" font-family="Times New Roman,serif" font-weight="bold" font-size="9.00">Overweight II</text>
<text text-anchor="start" x="397.38" y="-368.45" font-family="Times New Roman,serif" font-weight="bold" font-size="9.00">Obesity I</text>
<text text-anchor="start" x="395.88" y="-359.45" font-family="Times New Roman,serif" font-weight="bold" font-size="9.00">Obesity II</text>
<text text-anchor="start" x="394.38" y="-350.45" font-family="Times New Roman,serif" font-weight="bold" font-size="9.00">Obesity III</text>
<polygon fill="none" stroke="black" points="449.38,-342 449.38,-401 537.62,-401 537.62,-342 449.38,-342"/>
<text text-anchor="start" x="456.38" y="-372.95" font-family="Times New Roman,serif" font-weight="bold" font-size="9.00">Insufficient weight</text>
<text text-anchor="start" x="478.5" y="-363.95" font-family="Times New Roman,serif" font-weight="bold" font-size="9.00">Normal</text>
<polygon fill="none" stroke="black" points="380.38,-341 380.38,-402 538.62,-402 538.62,-341 380.38,-341"/>
</g>
<!-- n_2_3_4_5_6 -->
<g id="node2" class="node">
<title>n_2_3_4_5_6</title>
<polygon fill="none" stroke="black" points="303,-248 303,-289 368,-289 368,-248 303,-248"/>
<text text-anchor="start" x="310" y="-274.45" font-family="Times New Roman,serif" font-weight="bold" font-size="9.00">Overweight I</text>
<text text-anchor="start" x="317.5" y="-265.45" font-family="Times New Roman,serif" font-weight="bold" font-size="9.00">Obesity I</text>
<text text-anchor="start" x="316" y="-256.45" font-family="Times New Roman,serif" font-weight="bold" font-size="9.00">Obesity II</text>
<polygon fill="none" stroke="black" points="368,-248 368,-289 436,-289 436,-248 368,-248"/>
<text text-anchor="start" x="375" y="-269.95" font-family="Times New Roman,serif" font-weight="bold" font-size="9.00">Overweight II</text>
<text text-anchor="start" x="381" y="-260.95" font-family="Times New Roman,serif" font-weight="bold" font-size="9.00">Obesity III</text>
<polygon fill="none" stroke="black" points="302,-247 302,-290 437,-290 437,-247 302,-247"/>
</g>
<!-- n_0_1_2_3_4_5_6&#45;&gt;n_2_3_4_5_6 -->
<g id="edge1" class="edge">
<title>n_0_1_2_3_4_5_6&#45;&gt;n_2_3_4_5_6</title>
<path fill="none" stroke="black" d="M429.78,-337.15C419.84,-326 408.78,-313.58 398.86,-302.45"/>
<polygon fill="black" stroke="black" points="401.48,-300.13 392.21,-294.99 396.25,-304.78 401.48,-300.13"/>
</g>
<!-- n_0_1 -->
<g id="node11" class="node">
<title>n_0_1</title>
<polygon fill="none" stroke="black" points="483.38,-255.88 483.38,-281.12 571.62,-281.12 571.62,-255.88 483.38,-255.88"/>
<text text-anchor="start" x="490.38" y="-266.57" font-family="Times New Roman,serif" font-weight="bold" font-size="9.00">Insufficient weight</text>
<polygon fill="none" stroke="black" points="571.62,-255.88 571.62,-281.12 615.62,-281.12 615.62,-255.88 571.62,-255.88"/>
<text text-anchor="start" x="578.62" y="-266.57" font-family="Times New Roman,serif" font-weight="bold" font-size="9.00">Normal</text>
<polygon fill="none" stroke="black" points="482.38,-254.88 482.38,-282.12 616.62,-282.12 616.62,-254.88 482.38,-254.88"/>
</g>
<!-- n_0_1_2_3_4_5_6&#45;&gt;n_0_1 -->
<g id="edge10" class="edge">
<title>n_0_1_2_3_4_5_6&#45;&gt;n_0_1</title>
<path fill="none" stroke="black" d="M489.22,-337.15C501.53,-323.33 515.58,-307.57 527.01,-294.74"/>
<polygon fill="black" stroke="black" points="529.41,-297.3 533.45,-287.51 524.19,-292.65 529.41,-297.3"/>
</g>
<!-- n_2_4_5 -->
<g id="node3" class="node">
<title>n_2_4_5</title>
<polygon fill="none" stroke="black" points="152,-163 152,-195 217,-195 217,-163 152,-163"/>
<text text-anchor="start" x="159" y="-180.45" font-family="Times New Roman,serif" font-weight="bold" font-size="9.00">Overweight I</text>
<text text-anchor="start" x="165" y="-171.45" font-family="Times New Roman,serif" font-weight="bold" font-size="9.00">Obesity II</text>
<polygon fill="none" stroke="black" points="217,-163 217,-195 267,-195 267,-163 217,-163"/>
<text text-anchor="start" x="224" y="-177.07" font-family="Times New Roman,serif" font-weight="bold" font-size="9.00">Obesity I</text>
<polygon fill="none" stroke="black" points="151,-162 151,-196 268,-196 268,-162 151,-162"/>
</g>
<!-- n_2_3_4_5_6&#45;&gt;n_2_4_5 -->
<g id="edge2" class="edge">
<title>n_2_3_4_5_6&#45;&gt;n_2_4_5</title>
<path fill="none" stroke="black" d="M324.93,-243.13C303.46,-231.38 277.72,-217.31 256,-205.43"/>
<polygon fill="black" stroke="black" points="257.8,-202.42 247.34,-200.7 254.44,-208.56 257.8,-202.42"/>
</g>
<!-- n_3_6 -->
<g id="node8" class="node">
<title>n_3_6</title>
<polygon fill="none" stroke="black" points="314.5,-166.38 314.5,-191.62 382.5,-191.62 382.5,-166.38 314.5,-166.38"/>
<text text-anchor="start" x="321.5" y="-177.07" font-family="Times New Roman,serif" font-weight="bold" font-size="9.00">Overweight II</text>
<polygon fill="none" stroke="black" points="382.5,-166.38 382.5,-191.62 438.5,-191.62 438.5,-166.38 382.5,-166.38"/>
<text text-anchor="start" x="389.5" y="-177.07" font-family="Times New Roman,serif" font-weight="bold" font-size="9.00">Obesity III</text>
<polygon fill="none" stroke="black" points="313.5,-165.38 313.5,-192.62 439.5,-192.62 439.5,-165.38 313.5,-165.38"/>
</g>
<!-- n_2_3_4_5_6&#45;&gt;n_3_6 -->
<g id="edge7" class="edge">
<title>n_2_3_4_5_6&#45;&gt;n_3_6</title>
<path fill="none" stroke="black" d="M371.45,-243.13C372.32,-232.28 373.34,-219.45 374.24,-208.19"/>
<polygon fill="black" stroke="black" points="377.73,-208.53 375.04,-198.28 370.75,-207.97 377.73,-208.53"/>
</g>
<!-- n_2_5 -->
<g id="node4" class="node">
<title>n_2_5</title>
<polygon fill="none" stroke="black" points="35.5,-84.38 35.5,-109.62 100.5,-109.62 100.5,-84.38 35.5,-84.38"/>
<text text-anchor="start" x="42.5" y="-95.08" font-family="Times New Roman,serif" font-weight="bold" font-size="9.00">Overweight I</text>
<polygon fill="none" stroke="black" points="100.5,-84.38 100.5,-109.62 153.5,-109.62 153.5,-84.38 100.5,-84.38"/>
<text text-anchor="start" x="107.5" y="-95.08" font-family="Times New Roman,serif" font-weight="bold" font-size="9.00">Obesity II</text>
<polygon fill="none" stroke="black" points="34.5,-83.38 34.5,-110.62 154.5,-110.62 154.5,-83.38 34.5,-83.38"/>
</g>
<!-- n_2_4_5&#45;&gt;n_2_5 -->
<g id="edge3" class="edge">
<title>n_2_4_5&#45;&gt;n_2_5</title>
<path fill="none" stroke="black" d="M180.78,-158.02C164.76,-146.88 144.73,-132.94 128,-121.31"/>
<polygon fill="black" stroke="black" points="130.04,-118.46 119.83,-115.62 126.04,-124.21 130.04,-118.46"/>
</g>
<!-- n_4 -->
<g id="node7" class="node">
<title>n_4</title>
<polygon fill="none" stroke="black" points="200.5,-84.38 200.5,-109.62 250.5,-109.62 250.5,-84.38 200.5,-84.38"/>
<text text-anchor="start" x="207.5" y="-95.08" font-family="Times New Roman,serif" font-weight="bold" font-size="9.00">Obesity I</text>
<polygon fill="none" stroke="black" points="199.5,-83.38 199.5,-110.62 251.5,-110.62 251.5,-83.38 199.5,-83.38"/>
</g>
<!-- n_2_4_5&#45;&gt;n_4 -->
<g id="edge6" class="edge">
<title>n_2_4_5&#45;&gt;n_4</title>
<path fill="none" stroke="black" d="M213.46,-158.22C215.39,-148.54 217.76,-136.72 219.88,-126.11"/>
<polygon fill="black" stroke="black" points="223.31,-126.82 221.83,-116.33 216.44,-125.45 223.31,-126.82"/>
</g>
<!-- n_2 -->
<g id="node5" class="node">
<title>n_2</title>
<polygon fill="none" stroke="black" points="9,-5.38 9,-30.62 74,-30.62 74,-5.38 9,-5.38"/>
<text text-anchor="start" x="16" y="-16.07" font-family="Times New Roman,serif" font-weight="bold" font-size="9.00">Overweight I</text>
<polygon fill="none" stroke="black" points="8,-4.38 8,-31.62 75,-31.62 75,-4.38 8,-4.38"/>
</g>
<!-- n_2_5&#45;&gt;n_2 -->
<g id="edge4" class="edge">
<title>n_2_5&#45;&gt;n_2</title>
<path fill="none" stroke="black" d="M83,-79.29C76.17,-69.37 67.36,-56.57 59.62,-45.32"/>
<polygon fill="black" stroke="black" points="62.57,-43.44 54.02,-37.19 56.81,-47.41 62.57,-43.44"/>
</g>
<!-- n_5 -->
<g id="node6" class="node">
<title>n_5</title>
<polygon fill="none" stroke="black" points="121,-5.38 121,-30.62 174,-30.62 174,-5.38 121,-5.38"/>
<text text-anchor="start" x="128" y="-16.07" font-family="Times New Roman,serif" font-weight="bold" font-size="9.00">Obesity II</text>
<polygon fill="none" stroke="black" points="120,-4.38 120,-31.62 175,-31.62 175,-4.38 120,-4.38"/>
</g>
<!-- n_2_5&#45;&gt;n_5 -->
<g id="edge5" class="edge">
<title>n_2_5&#45;&gt;n_5</title>
<path fill="none" stroke="black" d="M106,-79.29C112.83,-69.37 121.64,-56.57 129.38,-45.32"/>
<polygon fill="black" stroke="black" points="132.19,-47.41 134.98,-37.19 126.43,-43.44 132.19,-47.41"/>
</g>
<!-- n_3 -->
<g id="node9" class="node">
<title>n_3</title>
<polygon fill="none" stroke="black" points="327.5,-84.38 327.5,-109.62 395.5,-109.62 395.5,-84.38 327.5,-84.38"/>
<text text-anchor="start" x="334.5" y="-95.08" font-family="Times New Roman,serif" font-weight="bold" font-size="9.00">Overweight II</text>
<polygon fill="none" stroke="black" points="326.5,-83.38 326.5,-110.62 396.5,-110.62 396.5,-83.38 326.5,-83.38"/>
</g>
<!-- n_3_6&#45;&gt;n_3 -->
<g id="edge8" class="edge">
<title>n_3_6&#45;&gt;n_3</title>
<path fill="none" stroke="black" d="M373.32,-161.03C371.41,-150.85 368.93,-137.65 366.74,-125.96"/>
<polygon fill="black" stroke="black" points="370.24,-125.61 364.96,-116.43 363.36,-126.9 370.24,-125.61"/>
</g>
<!-- n_6 -->
<g id="node10" class="node">
<title>n_6</title>
<polygon fill="none" stroke="black" points="442.5,-84.38 442.5,-109.62 498.5,-109.62 498.5,-84.38 442.5,-84.38"/>
<text text-anchor="start" x="449.5" y="-95.08" font-family="Times New Roman,serif" font-weight="bold" font-size="9.00">Obesity III</text>
<polygon fill="none" stroke="black" points="441.5,-83.38 441.5,-110.62 499.5,-110.62 499.5,-83.38 441.5,-83.38"/>
</g>
<!-- n_3_6&#45;&gt;n_6 -->
<g id="edge9" class="edge">
<title>n_3_6&#45;&gt;n_6</title>
<path fill="none" stroke="black" d="M396.43,-161.03C409.65,-149.79 427.18,-134.87 441.88,-122.36"/>
<polygon fill="black" stroke="black" points="444.09,-125.07 449.44,-115.92 439.56,-119.74 444.09,-125.07"/>
</g>
<!-- n_0 -->
<g id="node12" class="node">
<title>n_0</title>
<polygon fill="none" stroke="black" points="498.38,-166.38 498.38,-191.62 586.62,-191.62 586.62,-166.38 498.38,-166.38"/>
<text text-anchor="start" x="505.38" y="-177.07" font-family="Times New Roman,serif" font-weight="bold" font-size="9.00">Insufficient weight</text>
<polygon fill="none" stroke="black" points="497.38,-165.38 497.38,-192.62 587.62,-192.62 587.62,-165.38 497.38,-165.38"/>
</g>
<!-- n_0_1&#45;&gt;n_0 -->
<g id="edge11" class="edge">
<title>n_0_1&#45;&gt;n_0</title>
<path fill="none" stroke="black" d="M548.15,-250.63C547.18,-238.52 545.85,-221.94 544.73,-207.88"/>
<polygon fill="black" stroke="black" points="548.25,-208.02 543.97,-198.33 541.27,-208.58 548.25,-208.02"/>
</g>
<!-- n_1 -->
<g id="node13" class="node">
<title>n_1</title>
<polygon fill="none" stroke="black" points="633.5,-166.38 633.5,-191.62 677.5,-191.62 677.5,-166.38 633.5,-166.38"/>
<text text-anchor="start" x="640.5" y="-177.07" font-family="Times New Roman,serif" font-weight="bold" font-size="9.00">Normal</text>
<polygon fill="none" stroke="black" points="632.5,-165.38 632.5,-192.62 678.5,-192.62 678.5,-165.38 632.5,-165.38"/>
</g>
<!-- n_0_1&#45;&gt;n_1 -->
<g id="edge12" class="edge">
<title>n_0_1&#45;&gt;n_1</title>
<path fill="none" stroke="black" d="M569.94,-250.63C586.07,-237.31 608.77,-218.57 626.74,-203.74"/>
<polygon fill="black" stroke="black" points="628.47,-206.85 633.96,-197.78 624.02,-201.45 628.47,-206.85"/>
</g>
</g>
</svg>
