<?xml version="1.0" encoding="UTF-8" standalone="no"?>
<!DOCTYPE svg PUBLIC "-//W3C//DTD SVG 1.1//EN"
 "http://www.w3.org/Graphics/SVG/1.1/DTD/svg11.dtd">
<!-- Generated by graphviz version 10.0.1 (20240210.2158)
 -->
<!-- Title: ND Pages: 1 -->
<svg width="560pt" height="535pt"
 viewBox="0.00 0.00 560.00 535.00" xmlns="http://www.w3.org/2000/svg" xmlns:xlink="http://www.w3.org/1999/xlink">
<g id="graph0" class="graph" transform="scale(1 1) rotate(0) translate(4 531)">
<title>ND</title>
<polygon fill="white" stroke="none" points="-4,4 -4,-531 556,-531 556,4 -4,4"/>
<!-- n_0_1_2_3_4_5_6 -->
<g id="node1" class="node">
<title>n_0_1_2_3_4_5_6</title>
<polygon fill="none" stroke="black" points="356.88,-454 356.88,-522 445.12,-522 445.12,-454 356.88,-454"/>
<text text-anchor="start" x="363.88" y="-507.45" font-family="Times New Roman,serif" font-weight="bold" font-size="9.00">Insufficient weight</text>
<text text-anchor="start" x="386" y="-498.45" font-family="Times New Roman,serif" font-weight="bold" font-size="9.00">Normal</text>
<text text-anchor="start" x="375.5" y="-489.45" font-family="Times New Roman,serif" font-weight="bold" font-size="9.00">Overweight I</text>
<text text-anchor="start" x="383" y="-480.45" font-family="Times New Roman,serif" font-weight="bold" font-size="9.00">Obesity I</text>
<text text-anchor="start" x="381.5" y="-471.45" font-family="Times New Roman,serif" font-weight="bold" font-size="9.00">Obesity II</text>
<text text-anchor="start" x="380" y="-462.45" font-family="Times New Roman,serif" font-weight="bold" font-size="9.00">Obesity III</text>
<polygon fill="none" stroke="black" points="445.12,-454 445.12,-522 513.12,-522 513.12,-454 445.12,-454"/>
<text text-anchor="start" x="452.12" y="-486.07" font-family="Times New Roman,serif" font-weight="bold" font-size="9.00">Overweight II</text>
<polygon fill="none" stroke="black" points="355.88,-453 355.88,-523 514.12,-523 514.12,-453 355.88,-453"/>
</g>
<!-- n_0_1_2_4_5_6 -->
<g id="node2" class="node">
<title>n_0_1_2_4_5_6</title>
<polygon fill="none" stroke="black" points="295.88,-342 295.88,-401 384.12,-401 384.12,-342 295.88,-342"/>
<text text-anchor="start" x="302.88" y="-386.45" font-family="Times New Roman,serif" font-weight="bold" font-size="9.00">Insufficient weight</text>
<text text-anchor="start" x="314.5" y="-377.45" font-family="Times New Roman,serif" font-weight="bold" font-size="9.00">Overweight I</text>
<text text-anchor="start" x="322" y="-368.45" font-family="Times New Roman,serif" font-weight="bold" font-size="9.00">Obesity I</text>
<text text-anchor="start" x="320.5" y="-359.45" font-family="Times New Roman,serif" font-weight="bold" font-size="9.00">Obesity II</text>
<text text-anchor="start" x="319" y="-350.45" font-family="Times New Roman,serif" font-weight="bold" font-size="9.00">Obesity III</text>
<polygon fill="none" stroke="black" points="384.12,-342 384.12,-401 428.12,-401 428.12,-342 384.12,-342"/>
<text text-anchor="start" x="391.12" y="-369.57" font-family="Times New Roman,serif" font-weight="bold" font-size="9.00">Normal</text>
<polygon fill="none" stroke="black" points="294.88,-341 294.88,-402 429.12,-402 429.12,-341 294.88,-341"/>
</g>
<!-- n_0_1_2_3_4_5_6&#45;&gt;n_0_1_2_4_5_6 -->
<g id="edge1" class="edge">
<title>n_0_1_2_3_4_5_6&#45;&gt;n_0_1_2_4_5_6</title>
<path fill="none" stroke="black" d="M410.89,-449.19C403.96,-438.31 396.34,-426.36 389.23,-415.21"/>
<polygon fill="black" stroke="black" points="392.28,-413.48 383.95,-406.93 386.37,-417.24 392.28,-413.48"/>
</g>
<!-- n_3 -->
<g id="node13" class="node">
<title>n_3</title>
<polygon fill="none" stroke="black" points="475,-358.88 475,-384.12 543,-384.12 543,-358.88 475,-358.88"/>
<text text-anchor="start" x="482" y="-369.57" font-family="Times New Roman,serif" font-weight="bold" font-size="9.00">Overweight II</text>
<polygon fill="none" stroke="black" points="474,-357.88 474,-385.12 544,-385.12 544,-357.88 474,-357.88"/>
</g>
<!-- n_0_1_2_3_4_5_6&#45;&gt;n_3 -->
<g id="edge12" class="edge">
<title>n_0_1_2_3_4_5_6&#45;&gt;n_3</title>
<path fill="none" stroke="black" d="M459.44,-449.19C470.04,-432.78 482.2,-413.96 491.83,-399.07"/>
<polygon fill="black" stroke="black" points="494.73,-401.03 497.22,-390.73 488.85,-397.23 494.73,-401.03"/>
</g>
<!-- n_0_2_4_5_6 -->
<g id="node3" class="node">
<title>n_0_2_4_5_6</title>
<polygon fill="none" stroke="black" points="212.38,-248 212.38,-289 277.38,-289 277.38,-248 212.38,-248"/>
<text text-anchor="start" x="219.38" y="-274.45" font-family="Times New Roman,serif" font-weight="bold" font-size="9.00">Overweight I</text>
<text text-anchor="start" x="226.88" y="-265.45" font-family="Times New Roman,serif" font-weight="bold" font-size="9.00">Obesity I</text>
<text text-anchor="start" x="225.38" y="-256.45" font-family="Times New Roman,serif" font-weight="bold" font-size="9.00">Obesity II</text>
<polygon fill="none" stroke="black" points="277.38,-248 277.38,-289 365.62,-289 365.62,-248 277.38,-248"/>
<text text-anchor="start" x="284.38" y="-269.95" font-family="Times New Roman,serif" font-weight="bold" font-size="9.00">Insufficient weight</text>
<text text-anchor="start" x="300.5" y="-260.95" font-family="Times New Roman,serif" font-weight="bold" font-size="9.00">Obesity III</text>
<polygon fill="none" stroke="black" points="211.38,-247 211.38,-290 366.62,-290 366.62,-247 211.38,-247"/>
</g>
<!-- n_0_1_2_4_5_6&#45;&gt;n_0_2_4_5_6 -->
<g id="edge2" class="edge">
<title>n_0_1_2_4_5_6&#45;&gt;n_0_2_4_5_6</title>
<path fill="none" stroke="black" d="M337.89,-337.15C329.99,-326.22 321.21,-314.07 313.3,-303.12"/>
<polygon fill="black" stroke="black" points="316.19,-301.14 307.49,-295.09 310.51,-305.24 316.19,-301.14"/>
</g>
<!-- n_1 -->
<g id="node12" class="node">
<title>n_1</title>
<polygon fill="none" stroke="black" points="413,-255.88 413,-281.12 457,-281.12 457,-255.88 413,-255.88"/>
<text text-anchor="start" x="420" y="-266.57" font-family="Times New Roman,serif" font-weight="bold" font-size="9.00">Normal</text>
<polygon fill="none" stroke="black" points="412,-254.88 412,-282.12 458,-282.12 458,-254.88 412,-254.88"/>
</g>
<!-- n_0_1_2_4_5_6&#45;&gt;n_1 -->
<g id="edge11" class="edge">
<title>n_0_1_2_4_5_6&#45;&gt;n_1</title>
<path fill="none" stroke="black" d="M386.11,-337.15C395.9,-323.6 407.05,-308.17 416.22,-295.48"/>
<polygon fill="black" stroke="black" points="418.89,-297.76 421.91,-287.61 413.22,-293.66 418.89,-297.76"/>
</g>
<!-- n_2_4_5 -->
<g id="node4" class="node">
<title>n_2_4_5</title>
<polygon fill="none" stroke="black" points="141,-163 141,-195 194,-195 194,-163 141,-163"/>
<text text-anchor="start" x="149.5" y="-180.45" font-family="Times New Roman,serif" font-weight="bold" font-size="9.00">Obesity I</text>
<text text-anchor="start" x="148" y="-171.45" font-family="Times New Roman,serif" font-weight="bold" font-size="9.00">Obesity II</text>
<polygon fill="none" stroke="black" points="194,-163 194,-195 259,-195 259,-163 194,-163"/>
<text text-anchor="start" x="201" y="-177.07" font-family="Times New Roman,serif" font-weight="bold" font-size="9.00">Overweight I</text>
<polygon fill="none" stroke="black" points="140,-162 140,-196 260,-196 260,-162 140,-162"/>
</g>
<!-- n_0_2_4_5_6&#45;&gt;n_2_4_5 -->
<g id="edge3" class="edge">
<title>n_0_2_4_5_6&#45;&gt;n_2_4_5</title>
<path fill="none" stroke="black" d="M264.21,-243.13C253.03,-232.14 239.78,-219.11 228.23,-207.75"/>
<polygon fill="black" stroke="black" points="230.83,-205.4 221.25,-200.89 225.92,-210.39 230.83,-205.4"/>
</g>
<!-- n_0_6 -->
<g id="node9" class="node">
<title>n_0_6</title>
<polygon fill="none" stroke="black" points="305.88,-166.38 305.88,-191.62 394.12,-191.62 394.12,-166.38 305.88,-166.38"/>
<text text-anchor="start" x="312.88" y="-177.07" font-family="Times New Roman,serif" font-weight="bold" font-size="9.00">Insufficient weight</text>
<polygon fill="none" stroke="black" points="394.12,-166.38 394.12,-191.62 450.12,-191.62 450.12,-166.38 394.12,-166.38"/>
<text text-anchor="start" x="401.12" y="-177.07" font-family="Times New Roman,serif" font-weight="bold" font-size="9.00">Obesity III</text>
<polygon fill="none" stroke="black" points="304.88,-165.38 304.88,-192.62 451.12,-192.62 451.12,-165.38 304.88,-165.38"/>
</g>
<!-- n_0_2_4_5_6&#45;&gt;n_0_6 -->
<g id="edge8" class="edge">
<title>n_0_2_4_5_6&#45;&gt;n_0_6</title>
<path fill="none" stroke="black" d="M313.79,-243.13C325.99,-231.13 340.67,-216.7 352.92,-204.66"/>
<polygon fill="black" stroke="black" points="355.19,-207.34 359.86,-197.83 350.28,-202.35 355.19,-207.34"/>
</g>
<!-- n_4_5 -->
<g id="node5" class="node">
<title>n_4_5</title>
<polygon fill="none" stroke="black" points="31.5,-84.38 31.5,-109.62 81.5,-109.62 81.5,-84.38 31.5,-84.38"/>
<text text-anchor="start" x="38.5" y="-95.08" font-family="Times New Roman,serif" font-weight="bold" font-size="9.00">Obesity I</text>
<polygon fill="none" stroke="black" points="81.5,-84.38 81.5,-109.62 134.5,-109.62 134.5,-84.38 81.5,-84.38"/>
<text text-anchor="start" x="88.5" y="-95.08" font-family="Times New Roman,serif" font-weight="bold" font-size="9.00">Obesity II</text>
<polygon fill="none" stroke="black" points="30.5,-83.38 30.5,-110.62 135.5,-110.62 135.5,-83.38 30.5,-83.38"/>
</g>
<!-- n_2_4_5&#45;&gt;n_4_5 -->
<g id="edge4" class="edge">
<title>n_2_4_5&#45;&gt;n_4_5</title>
<path fill="none" stroke="black" d="M170.78,-158.02C154.33,-146.77 133.72,-132.68 116.61,-120.98"/>
<polygon fill="black" stroke="black" points="118.99,-118.37 108.76,-115.61 115.04,-124.15 118.99,-118.37"/>
</g>
<!-- n_2 -->
<g id="node8" class="node">
<title>n_2</title>
<polygon fill="none" stroke="black" points="181.5,-84.38 181.5,-109.62 246.5,-109.62 246.5,-84.38 181.5,-84.38"/>
<text text-anchor="start" x="188.5" y="-95.08" font-family="Times New Roman,serif" font-weight="bold" font-size="9.00">Overweight I</text>
<polygon fill="none" stroke="black" points="180.5,-83.38 180.5,-110.62 247.5,-110.62 247.5,-83.38 180.5,-83.38"/>
</g>
<!-- n_2_4_5&#45;&gt;n_2 -->
<g id="edge7" class="edge">
<title>n_2_4_5&#45;&gt;n_2</title>
<path fill="none" stroke="black" d="M203.46,-158.22C205.16,-148.54 207.22,-136.72 209.08,-126.11"/>
<polygon fill="black" stroke="black" points="212.52,-126.79 210.79,-116.33 205.62,-125.58 212.52,-126.79"/>
</g>
<!-- n_4 -->
<g id="node6" class="node">
<title>n_4</title>
<polygon fill="none" stroke="black" points="9,-5.38 9,-30.62 59,-30.62 59,-5.38 9,-5.38"/>
<text text-anchor="start" x="16" y="-16.07" font-family="Times New Roman,serif" font-weight="bold" font-size="9.00">Obesity I</text>
<polygon fill="none" stroke="black" points="8,-4.38 8,-31.62 60,-31.62 60,-4.38 8,-4.38"/>
</g>
<!-- n_4_5&#45;&gt;n_4 -->
<g id="edge5" class="edge">
<title>n_4_5&#45;&gt;n_4</title>
<path fill="none" stroke="black" d="M72.37,-79.29C66.05,-69.37 57.91,-56.57 50.75,-45.32"/>
<polygon fill="black" stroke="black" points="53.91,-43.78 45.59,-37.22 48.01,-47.53 53.91,-43.78"/>
</g>
<!-- n_5 -->
<g id="node7" class="node">
<title>n_5</title>
<polygon fill="none" stroke="black" points="106.5,-5.38 106.5,-30.62 159.5,-30.62 159.5,-5.38 106.5,-5.38"/>
<text text-anchor="start" x="113.5" y="-16.07" font-family="Times New Roman,serif" font-weight="bold" font-size="9.00">Obesity II</text>
<polygon fill="none" stroke="black" points="105.5,-4.38 105.5,-31.62 160.5,-31.62 160.5,-4.38 105.5,-4.38"/>
</g>
<!-- n_4_5&#45;&gt;n_5 -->
<g id="edge6" class="edge">
<title>n_4_5&#45;&gt;n_5</title>
<path fill="none" stroke="black" d="M93.85,-79.29C100.29,-69.37 108.6,-56.57 115.91,-45.32"/>
<polygon fill="black" stroke="black" points="118.66,-47.5 121.17,-37.21 112.79,-43.69 118.66,-47.5"/>
</g>
<!-- n_0 -->
<g id="node10" class="node">
<title>n_0</title>
<polygon fill="none" stroke="black" points="320.88,-84.38 320.88,-109.62 409.12,-109.62 409.12,-84.38 320.88,-84.38"/>
<text text-anchor="start" x="327.88" y="-95.08" font-family="Times New Roman,serif" font-weight="bold" font-size="9.00">Insufficient weight</text>
<polygon fill="none" stroke="black" points="319.88,-83.38 319.88,-110.62 410.12,-110.62 410.12,-83.38 319.88,-83.38"/>
</g>
<!-- n_0_6&#45;&gt;n_0 -->
<g id="edge9" class="edge">
<title>n_0_6&#45;&gt;n_0</title>
<path fill="none" stroke="black" d="M375.24,-161.03C373.59,-150.85 371.44,-137.65 369.54,-125.96"/>
<polygon fill="black" stroke="black" points="373.05,-125.74 368,-116.44 366.15,-126.87 373.05,-125.74"/>
</g>
<!-- n_6 -->
<g id="node11" class="node">
<title>n_6</title>
<polygon fill="none" stroke="black" points="456,-84.38 456,-109.62 512,-109.62 512,-84.38 456,-84.38"/>
<text text-anchor="start" x="463" y="-95.08" font-family="Times New Roman,serif" font-weight="bold" font-size="9.00">Obesity III</text>
<polygon fill="none" stroke="black" points="455,-83.38 455,-110.62 513,-110.62 513,-83.38 455,-83.38"/>
</g>
<!-- n_0_6&#45;&gt;n_6 -->
<g id="edge10" class="edge">
<title>n_0_6&#45;&gt;n_6</title>
<path fill="none" stroke="black" d="M400.48,-161.03C415.66,-149.58 435.9,-134.3 452.66,-121.66"/>
<polygon fill="black" stroke="black" points="454.47,-124.67 460.34,-115.85 450.25,-119.08 454.47,-124.67"/>
</g>
</g>
</svg>
