<?xml version="1.0" encoding="UTF-8" standalone="no"?>
<!DOCTYPE svg PUBLIC "-//W3C//DTD SVG 1.1//EN"
 "http://www.w3.org/Graphics/SVG/1.1/DTD/svg11.dtd">
<!-- Generated by graphviz version 10.0.1 (20240210.2158)
 -->
<!-- Title: ND Pages: 1 -->
<svg width="617pt" height="432pt"
 viewBox="0.00 0.00 617.12 432.00" xmlns="http://www.w3.org/2000/svg" xmlns:xlink="http://www.w3.org/1999/xlink">
<g id="graph0" class="graph" transform="scale(1 1) rotate(0) translate(4 428)">
<title>ND</title>
<polygon fill="white" stroke="none" points="-4,4 -4,-428 613.12,-428 613.12,4 -4,4"/>
<!-- n_0_1_2_3_4_5_6 -->
<g id="node1" class="node">
<title>n_0_1_2_3_4_5_6</title>
<polygon fill="none" stroke="black" points="402,-351 402,-419 490.25,-419 490.25,-351 402,-351"/>
<text text-anchor="start" x="409" y="-404.45" font-family="Times New Roman,serif" font-weight="bold" font-size="9.00">Insufficient weight</text>
<text text-anchor="start" x="431.12" y="-395.45" font-family="Times New Roman,serif" font-weight="bold" font-size="9.00">Normal</text>
<text text-anchor="start" x="420.62" y="-386.45" font-family="Times New Roman,serif" font-weight="bold" font-size="9.00">Overweight I</text>
<text text-anchor="start" x="428.12" y="-377.45" font-family="Times New Roman,serif" font-weight="bold" font-size="9.00">Obesity I</text>
<text text-anchor="start" x="426.62" y="-368.45" font-family="Times New Roman,serif" font-weight="bold" font-size="9.00">Obesity II</text>
<text text-anchor="start" x="425.12" y="-359.45" font-family="Times New Roman,serif" font-weight="bold" font-size="9.00">Obesity III</text>
<polygon fill="none" stroke="black" points="490.25,-351 490.25,-419 558.25,-419 558.25,-351 490.25,-351"/>
<text text-anchor="start" x="497.25" y="-383.07" font-family="Times New Roman,serif" font-weight="bold" font-size="9.00">Overweight II</text>
<polygon fill="none" stroke="black" points="401,-350 401,-420 559.25,-420 559.25,-350 401,-350"/>
</g>
<!-- n_0_1_2_4_5_6 -->
<g id="node2" class="node">
<title>n_0_1_2_4_5_6</title>
<polygon fill="none" stroke="black" points="336,-248 336,-298 424.25,-298 424.25,-248 336,-248"/>
<text text-anchor="start" x="343" y="-283.45" font-family="Times New Roman,serif" font-weight="bold" font-size="9.00">Insufficient weight</text>
<text text-anchor="start" x="354.62" y="-274.45" font-family="Times New Roman,serif" font-weight="bold" font-size="9.00">Overweight I</text>
<text text-anchor="start" x="360.62" y="-265.45" font-family="Times New Roman,serif" font-weight="bold" font-size="9.00">Obesity II</text>
<text text-anchor="start" x="359.12" y="-256.45" font-family="Times New Roman,serif" font-weight="bold" font-size="9.00">Obesity III</text>
<polygon fill="none" stroke="black" points="424.25,-248 424.25,-298 474.25,-298 474.25,-248 424.25,-248"/>
<text text-anchor="start" x="434.25" y="-274.45" font-family="Times New Roman,serif" font-weight="bold" font-size="9.00">Normal</text>
<text text-anchor="start" x="431.25" y="-265.45" font-family="Times New Roman,serif" font-weight="bold" font-size="9.00">Obesity I</text>
<polygon fill="none" stroke="black" points="335,-247 335,-299 475.25,-299 475.25,-247 335,-247"/>
</g>
<!-- n_0_1_2_3_4_5_6&#45;&gt;n_0_1_2_4_5_6 -->
<g id="edge1" class="edge">
<title>n_0_1_2_3_4_5_6&#45;&gt;n_0_1_2_4_5_6</title>
<path fill="none" stroke="black" d="M454.31,-346.14C446.84,-335.19 438.68,-323.22 431.19,-312.23"/>
<polygon fill="black" stroke="black" points="434.2,-310.43 425.67,-304.14 428.42,-314.37 434.2,-310.43"/>
</g>
<!-- n_3 -->
<g id="node13" class="node">
<title>n_3</title>
<polygon fill="none" stroke="black" points="521.12,-260.38 521.12,-285.62 589.12,-285.62 589.12,-260.38 521.12,-260.38"/>
<text text-anchor="start" x="528.12" y="-271.07" font-family="Times New Roman,serif" font-weight="bold" font-size="9.00">Overweight II</text>
<polygon fill="none" stroke="black" points="520.12,-259.38 520.12,-286.62 590.12,-286.62 590.12,-259.38 520.12,-259.38"/>
</g>
<!-- n_0_1_2_3_4_5_6&#45;&gt;n_3 -->
<g id="edge12" class="edge">
<title>n_0_1_2_3_4_5_6&#45;&gt;n_3</title>
<path fill="none" stroke="black" d="M505.94,-346.14C516.23,-331.04 527.84,-314.02 537.19,-300.31"/>
<polygon fill="black" stroke="black" points="539.95,-302.47 542.69,-292.23 534.17,-298.52 539.95,-302.47"/>
</g>
<!-- n_0_2_5_6 -->
<g id="node3" class="node">
<title>n_0_2_5_6</title>
<polygon fill="none" stroke="black" points="243.5,-163 243.5,-195 331.75,-195 331.75,-163 243.5,-163"/>
<text text-anchor="start" x="250.5" y="-180.45" font-family="Times New Roman,serif" font-weight="bold" font-size="9.00">Insufficient weight</text>
<text text-anchor="start" x="268.12" y="-171.45" font-family="Times New Roman,serif" font-weight="bold" font-size="9.00">Obesity II</text>
<polygon fill="none" stroke="black" points="331.75,-163 331.75,-195 396.75,-195 396.75,-163 331.75,-163"/>
<text text-anchor="start" x="338.75" y="-180.45" font-family="Times New Roman,serif" font-weight="bold" font-size="9.00">Overweight I</text>
<text text-anchor="start" x="343.25" y="-171.45" font-family="Times New Roman,serif" font-weight="bold" font-size="9.00">Obesity III</text>
<polygon fill="none" stroke="black" points="242.5,-162 242.5,-196 397.75,-196 397.75,-162 242.5,-162"/>
</g>
<!-- n_0_1_2_4_5_6&#45;&gt;n_0_2_5_6 -->
<g id="edge2" class="edge">
<title>n_0_1_2_4_5_6&#45;&gt;n_0_2_5_6</title>
<path fill="none" stroke="black" d="M378.46,-243.14C368.07,-231.89 356.19,-219.04 345.88,-207.88"/>
<polygon fill="black" stroke="black" points="348.74,-205.81 339.38,-200.84 343.6,-210.56 348.74,-205.81"/>
</g>
<!-- n_1_4 -->
<g id="node10" class="node">
<title>n_1_4</title>
<polygon fill="none" stroke="black" points="444.12,-166.38 444.12,-191.62 488.12,-191.62 488.12,-166.38 444.12,-166.38"/>
<text text-anchor="start" x="451.12" y="-177.07" font-family="Times New Roman,serif" font-weight="bold" font-size="9.00">Normal</text>
<polygon fill="none" stroke="black" points="488.12,-166.38 488.12,-191.62 538.12,-191.62 538.12,-166.38 488.12,-166.38"/>
<text text-anchor="start" x="495.12" y="-177.07" font-family="Times New Roman,serif" font-weight="bold" font-size="9.00">Obesity I</text>
<polygon fill="none" stroke="black" points="443.12,-165.38 443.12,-192.62 539.12,-192.62 539.12,-165.38 443.12,-165.38"/>
</g>
<!-- n_0_1_2_4_5_6&#45;&gt;n_1_4 -->
<g id="edge9" class="edge">
<title>n_0_1_2_4_5_6&#45;&gt;n_1_4</title>
<path fill="none" stroke="black" d="M432.1,-243.14C443.52,-230.93 456.69,-216.84 467.69,-205.07"/>
<polygon fill="black" stroke="black" points="469.96,-207.77 474.23,-198.07 464.84,-202.99 469.96,-207.77"/>
</g>
<!-- n_0_5 -->
<g id="node4" class="node">
<title>n_0_5</title>
<polygon fill="none" stroke="black" points="82.5,-84.38 82.5,-109.62 170.75,-109.62 170.75,-84.38 82.5,-84.38"/>
<text text-anchor="start" x="89.5" y="-95.08" font-family="Times New Roman,serif" font-weight="bold" font-size="9.00">Insufficient weight</text>
<polygon fill="none" stroke="black" points="170.75,-84.38 170.75,-109.62 223.75,-109.62 223.75,-84.38 170.75,-84.38"/>
<text text-anchor="start" x="177.75" y="-95.08" font-family="Times New Roman,serif" font-weight="bold" font-size="9.00">Obesity II</text>
<polygon fill="none" stroke="black" points="81.5,-83.38 81.5,-110.62 224.75,-110.62 224.75,-83.38 81.5,-83.38"/>
</g>
<!-- n_0_2_5_6&#45;&gt;n_0_5 -->
<g id="edge3" class="edge">
<title>n_0_2_5_6&#45;&gt;n_0_5</title>
<path fill="none" stroke="black" d="M278.41,-158.02C254.15,-146.4 223.55,-131.74 198.66,-119.81"/>
<polygon fill="black" stroke="black" points="200.28,-116.71 189.75,-115.54 197.25,-123.02 200.28,-116.71"/>
</g>
<!-- n_2_6 -->
<g id="node7" class="node">
<title>n_2_6</title>
<polygon fill="none" stroke="black" points="270.62,-84.38 270.62,-109.62 335.62,-109.62 335.62,-84.38 270.62,-84.38"/>
<text text-anchor="start" x="277.62" y="-95.08" font-family="Times New Roman,serif" font-weight="bold" font-size="9.00">Overweight I</text>
<polygon fill="none" stroke="black" points="335.62,-84.38 335.62,-109.62 391.62,-109.62 391.62,-84.38 335.62,-84.38"/>
<text text-anchor="start" x="342.62" y="-95.08" font-family="Times New Roman,serif" font-weight="bold" font-size="9.00">Obesity III</text>
<polygon fill="none" stroke="black" points="269.62,-83.38 269.62,-110.62 392.62,-110.62 392.62,-83.38 269.62,-83.38"/>
</g>
<!-- n_0_2_5_6&#45;&gt;n_2_6 -->
<g id="edge6" class="edge">
<title>n_0_2_5_6&#45;&gt;n_2_6</title>
<path fill="none" stroke="black" d="M322.84,-158.22C324.18,-148.54 325.8,-136.72 327.26,-126.11"/>
<polygon fill="black" stroke="black" points="330.71,-126.73 328.6,-116.34 323.77,-125.77 330.71,-126.73"/>
</g>
<!-- n_0 -->
<g id="node5" class="node">
<title>n_0</title>
<polygon fill="none" stroke="black" points="9,-5.38 9,-30.62 97.25,-30.62 97.25,-5.38 9,-5.38"/>
<text text-anchor="start" x="16" y="-16.07" font-family="Times New Roman,serif" font-weight="bold" font-size="9.00">Insufficient weight</text>
<polygon fill="none" stroke="black" points="8,-4.38 8,-31.62 98.25,-31.62 98.25,-4.38 8,-4.38"/>
</g>
<!-- n_0_5&#45;&gt;n_0 -->
<g id="edge4" class="edge">
<title>n_0_5&#45;&gt;n_0</title>
<path fill="none" stroke="black" d="M131.43,-79.29C117.63,-68.67 99.55,-54.75 84.24,-42.96"/>
<polygon fill="black" stroke="black" points="86.38,-40.19 76.33,-36.86 82.11,-45.74 86.38,-40.19"/>
</g>
<!-- n_5 -->
<g id="node6" class="node">
<title>n_5</title>
<polygon fill="none" stroke="black" points="144.62,-5.38 144.62,-30.62 197.62,-30.62 197.62,-5.38 144.62,-5.38"/>
<text text-anchor="start" x="151.62" y="-16.07" font-family="Times New Roman,serif" font-weight="bold" font-size="9.00">Obesity II</text>
<polygon fill="none" stroke="black" points="143.62,-4.38 143.62,-31.62 198.62,-31.62 198.62,-4.38 143.62,-4.38"/>
</g>
<!-- n_0_5&#45;&gt;n_5 -->
<g id="edge5" class="edge">
<title>n_0_5&#45;&gt;n_5</title>
<path fill="none" stroke="black" d="M157.03,-79.29C159.23,-69.87 162.04,-57.86 164.57,-47.04"/>
<polygon fill="black" stroke="black" points="167.95,-47.95 166.82,-37.41 161.14,-46.36 167.95,-47.95"/>
</g>
<!-- n_2 -->
<g id="node8" class="node">
<title>n_2</title>
<polygon fill="none" stroke="black" points="280.62,-5.38 280.62,-30.62 345.62,-30.62 345.62,-5.38 280.62,-5.38"/>
<text text-anchor="start" x="287.62" y="-16.07" font-family="Times New Roman,serif" font-weight="bold" font-size="9.00">Overweight I</text>
<polygon fill="none" stroke="black" points="279.62,-4.38 279.62,-31.62 346.62,-31.62 346.62,-4.38 279.62,-4.38"/>
</g>
<!-- n_2_6&#45;&gt;n_2 -->
<g id="edge7" class="edge">
<title>n_2_6&#45;&gt;n_2</title>
<path fill="none" stroke="black" d="M327.22,-79.29C325.02,-69.87 322.21,-57.86 319.68,-47.04"/>
<polygon fill="black" stroke="black" points="323.11,-46.36 317.43,-37.41 316.3,-47.95 323.11,-46.36"/>
</g>
<!-- n_6 -->
<g id="node9" class="node">
<title>n_6</title>
<polygon fill="none" stroke="black" points="393.12,-5.38 393.12,-30.62 449.12,-30.62 449.12,-5.38 393.12,-5.38"/>
<text text-anchor="start" x="400.12" y="-16.07" font-family="Times New Roman,serif" font-weight="bold" font-size="9.00">Obesity III</text>
<polygon fill="none" stroke="black" points="392.12,-4.38 392.12,-31.62 450.12,-31.62 450.12,-4.38 392.12,-4.38"/>
</g>
<!-- n_2_6&#45;&gt;n_6 -->
<g id="edge8" class="edge">
<title>n_2_6&#45;&gt;n_6</title>
<path fill="none" stroke="black" d="M350.65,-79.29C362.95,-68.77 379.04,-55.01 392.73,-43.29"/>
<polygon fill="black" stroke="black" points="394.85,-46.09 400.17,-36.93 390.3,-40.77 394.85,-46.09"/>
</g>
<!-- n_1 -->
<g id="node11" class="node">
<title>n_1</title>
<polygon fill="none" stroke="black" points="459.12,-84.38 459.12,-109.62 503.12,-109.62 503.12,-84.38 459.12,-84.38"/>
<text text-anchor="start" x="466.12" y="-95.08" font-family="Times New Roman,serif" font-weight="bold" font-size="9.00">Normal</text>
<polygon fill="none" stroke="black" points="458.12,-83.38 458.12,-110.62 504.12,-110.62 504.12,-83.38 458.12,-83.38"/>
</g>
<!-- n_1_4&#45;&gt;n_1 -->
<g id="edge10" class="edge">
<title>n_1_4&#45;&gt;n_1</title>
<path fill="none" stroke="black" d="M489,-161.03C487.74,-150.96 486.12,-137.92 484.67,-126.32"/>
<polygon fill="black" stroke="black" points="488.14,-125.93 483.43,-116.44 481.2,-126.8 488.14,-125.93"/>
</g>
<!-- n_4 -->
<g id="node12" class="node">
<title>n_4</title>
<polygon fill="none" stroke="black" points="550.12,-84.38 550.12,-109.62 600.12,-109.62 600.12,-84.38 550.12,-84.38"/>
<text text-anchor="start" x="557.12" y="-95.08" font-family="Times New Roman,serif" font-weight="bold" font-size="9.00">Obesity I</text>
<polygon fill="none" stroke="black" points="549.12,-83.38 549.12,-110.62 601.12,-110.62 601.12,-83.38 549.12,-83.38"/>
</g>
<!-- n_1_4&#45;&gt;n_4 -->
<g id="edge11" class="edge">
<title>n_1_4&#45;&gt;n_4</title>
<path fill="none" stroke="black" d="M508.94,-161.03C520.63,-149.9 536.12,-135.15 549.17,-122.71"/>
<polygon fill="black" stroke="black" points="551.41,-125.42 556.24,-115.99 546.59,-120.35 551.41,-125.42"/>
</g>
</g>
</svg>
