<?xml version="1.0" encoding="UTF-8" standalone="no"?>
<!DOCTYPE svg PUBLIC "-//W3C//DTD SVG 1.1//EN"
 "http://www.w3.org/Graphics/SVG/1.1/DTD/svg11.dtd">
<!-- Generated by graphviz version 10.0.1 (20240210.2158)
 -->
<!-- Title: ND Pages: 1 -->
<svg width="621pt" height="405pt"
 viewBox="0.00 0.00 621.00 405.00" xmlns="http://www.w3.org/2000/svg" xmlns:xlink="http://www.w3.org/1999/xlink">
<g id="graph0" class="graph" transform="scale(1 1) rotate(0) translate(4 401)">
<title>ND</title>
<polygon fill="white" stroke="none" points="-4,4 -4,-401 617,-401 617,4 -4,4"/>
<!-- n_0_1_2_3_4_5_6 -->
<g id="node1" class="node">
<title>n_0_1_2_3_4_5_6</title>
<polygon fill="none" stroke="black" points="279.88,-342 279.88,-392 347.88,-392 347.88,-342 279.88,-342"/>
<text text-anchor="start" x="288.38" y="-377.45" font-family="Times New Roman,serif" font-weight="bold" font-size="9.00">Overweight I</text>
<text text-anchor="start" x="286.88" y="-368.45" font-family="Times New Roman,serif" font-weight="bold" font-size="9.00">Overweight II</text>
<text text-anchor="start" x="294.38" y="-359.45" font-family="Times New Roman,serif" font-weight="bold" font-size="9.00">Obesity II</text>
<text text-anchor="start" x="292.88" y="-350.45" font-family="Times New Roman,serif" font-weight="bold" font-size="9.00">Obesity III</text>
<polygon fill="none" stroke="black" points="347.88,-342 347.88,-392 436.12,-392 436.12,-342 347.88,-342"/>
<text text-anchor="start" x="354.88" y="-372.95" font-family="Times New Roman,serif" font-weight="bold" font-size="9.00">Insufficient weight</text>
<text text-anchor="start" x="377" y="-363.95" font-family="Times New Roman,serif" font-weight="bold" font-size="9.00">Normal</text>
<text text-anchor="start" x="374" y="-354.95" font-family="Times New Roman,serif" font-weight="bold" font-size="9.00">Obesity I</text>
<polygon fill="none" stroke="black" points="278.88,-341 278.88,-393 437.12,-393 437.12,-341 278.88,-341"/>
</g>
<!-- n_2_3_5_6 -->
<g id="node2" class="node">
<title>n_2_3_5_6</title>
<polygon fill="none" stroke="black" points="200.5,-248 200.5,-289 268.5,-289 268.5,-248 200.5,-248"/>
<text text-anchor="start" x="207.5" y="-274.45" font-family="Times New Roman,serif" font-weight="bold" font-size="9.00">Overweight II</text>
<text text-anchor="start" x="215" y="-265.45" font-family="Times New Roman,serif" font-weight="bold" font-size="9.00">Obesity II</text>
<text text-anchor="start" x="213.5" y="-256.45" font-family="Times New Roman,serif" font-weight="bold" font-size="9.00">Obesity III</text>
<polygon fill="none" stroke="black" points="268.5,-248 268.5,-289 333.5,-289 333.5,-248 268.5,-248"/>
<text text-anchor="start" x="275.5" y="-266.57" font-family="Times New Roman,serif" font-weight="bold" font-size="9.00">Overweight I</text>
<polygon fill="none" stroke="black" points="199.5,-247 199.5,-290 334.5,-290 334.5,-247 199.5,-247"/>
</g>
<!-- n_0_1_2_3_4_5_6&#45;&gt;n_2_3_5_6 -->
<g id="edge1" class="edge">
<title>n_0_1_2_3_4_5_6&#45;&gt;n_2_3_5_6</title>
<path fill="none" stroke="black" d="M330.7,-337.05C320.35,-326.08 308.5,-313.51 297.85,-302.22"/>
<polygon fill="black" stroke="black" points="300.43,-299.85 291.02,-294.98 295.34,-304.65 300.43,-299.85"/>
</g>
<!-- n_0_1_4 -->
<g id="node9" class="node">
<title>n_0_1_4</title>
<polygon fill="none" stroke="black" points="380.88,-252.5 380.88,-284.5 469.12,-284.5 469.12,-252.5 380.88,-252.5"/>
<text text-anchor="start" x="387.88" y="-269.95" font-family="Times New Roman,serif" font-weight="bold" font-size="9.00">Insufficient weight</text>
<text text-anchor="start" x="410" y="-260.95" font-family="Times New Roman,serif" font-weight="bold" font-size="9.00">Normal</text>
<polygon fill="none" stroke="black" points="469.12,-252.5 469.12,-284.5 519.12,-284.5 519.12,-252.5 469.12,-252.5"/>
<text text-anchor="start" x="476.12" y="-266.57" font-family="Times New Roman,serif" font-weight="bold" font-size="9.00">Obesity I</text>
<polygon fill="none" stroke="black" points="379.88,-251.5 379.88,-285.5 520.12,-285.5 520.12,-251.5 379.88,-251.5"/>
</g>
<!-- n_0_1_2_3_4_5_6&#45;&gt;n_0_1_4 -->
<g id="edge8" class="edge">
<title>n_0_1_2_3_4_5_6&#45;&gt;n_0_1_4</title>
<path fill="none" stroke="black" d="M385.6,-337.05C397.56,-324.51 411.5,-309.89 423.35,-297.46"/>
<polygon fill="black" stroke="black" points="425.75,-300.01 430.12,-290.35 420.68,-295.18 425.75,-300.01"/>
</g>
<!-- n_3_5_6 -->
<g id="node3" class="node">
<title>n_3_5_6</title>
<polygon fill="none" stroke="black" points="76.5,-163 76.5,-195 144.5,-195 144.5,-163 76.5,-163"/>
<text text-anchor="start" x="83.5" y="-180.45" font-family="Times New Roman,serif" font-weight="bold" font-size="9.00">Overweight II</text>
<text text-anchor="start" x="89.5" y="-171.45" font-family="Times New Roman,serif" font-weight="bold" font-size="9.00">Obesity III</text>
<polygon fill="none" stroke="black" points="144.5,-163 144.5,-195 197.5,-195 197.5,-163 144.5,-163"/>
<text text-anchor="start" x="151.5" y="-177.07" font-family="Times New Roman,serif" font-weight="bold" font-size="9.00">Obesity II</text>
<polygon fill="none" stroke="black" points="75.5,-162 75.5,-196 198.5,-196 198.5,-162 75.5,-162"/>
</g>
<!-- n_2_3_5_6&#45;&gt;n_3_5_6 -->
<g id="edge2" class="edge">
<title>n_2_3_5_6&#45;&gt;n_3_5_6</title>
<path fill="none" stroke="black" d="M230.79,-243.13C213.67,-231.61 193.22,-217.84 175.79,-206.11"/>
<polygon fill="black" stroke="black" points="177.96,-203.35 167.71,-200.67 174.05,-209.16 177.96,-203.35"/>
</g>
<!-- n_2 -->
<g id="node8" class="node">
<title>n_2</title>
<polygon fill="none" stroke="black" points="244.5,-166.38 244.5,-191.62 309.5,-191.62 309.5,-166.38 244.5,-166.38"/>
<text text-anchor="start" x="251.5" y="-177.07" font-family="Times New Roman,serif" font-weight="bold" font-size="9.00">Overweight I</text>
<polygon fill="none" stroke="black" points="243.5,-165.38 243.5,-192.62 310.5,-192.62 310.5,-165.38 243.5,-165.38"/>
</g>
<!-- n_2_3_5_6&#45;&gt;n_2 -->
<g id="edge7" class="edge">
<title>n_2_3_5_6&#45;&gt;n_2</title>
<path fill="none" stroke="black" d="M269.79,-243.13C271.02,-232.28 272.49,-219.45 273.78,-208.19"/>
<polygon fill="black" stroke="black" points="277.25,-208.61 274.91,-198.27 270.3,-207.81 277.25,-208.61"/>
</g>
<!-- n_3_6 -->
<g id="node4" class="node">
<title>n_3_6</title>
<polygon fill="none" stroke="black" points="35,-84.38 35,-109.62 103,-109.62 103,-84.38 35,-84.38"/>
<text text-anchor="start" x="42" y="-95.08" font-family="Times New Roman,serif" font-weight="bold" font-size="9.00">Overweight II</text>
<polygon fill="none" stroke="black" points="103,-84.38 103,-109.62 159,-109.62 159,-84.38 103,-84.38"/>
<text text-anchor="start" x="110" y="-95.08" font-family="Times New Roman,serif" font-weight="bold" font-size="9.00">Obesity III</text>
<polygon fill="none" stroke="black" points="34,-83.38 34,-110.62 160,-110.62 160,-83.38 34,-83.38"/>
</g>
<!-- n_3_5_6&#45;&gt;n_3_6 -->
<g id="edge3" class="edge">
<title>n_3_5_6&#45;&gt;n_3_6</title>
<path fill="none" stroke="black" d="M127.11,-158.22C122.12,-148.23 115.98,-135.95 110.55,-125.09"/>
<polygon fill="black" stroke="black" points="113.7,-123.58 106.1,-116.2 107.44,-126.71 113.7,-123.58"/>
</g>
<!-- n_5 -->
<g id="node7" class="node">
<title>n_5</title>
<polygon fill="none" stroke="black" points="206.5,-84.38 206.5,-109.62 259.5,-109.62 259.5,-84.38 206.5,-84.38"/>
<text text-anchor="start" x="213.5" y="-95.08" font-family="Times New Roman,serif" font-weight="bold" font-size="9.00">Obesity II</text>
<polygon fill="none" stroke="black" points="205.5,-83.38 205.5,-110.62 260.5,-110.62 260.5,-83.38 205.5,-83.38"/>
</g>
<!-- n_3_5_6&#45;&gt;n_5 -->
<g id="edge6" class="edge">
<title>n_3_5_6&#45;&gt;n_5</title>
<path fill="none" stroke="black" d="M160.73,-158.22C173.85,-147.29 190.25,-133.63 204.11,-122.08"/>
<polygon fill="black" stroke="black" points="206.18,-124.9 211.62,-115.81 201.7,-119.53 206.18,-124.9"/>
</g>
<!-- n_3 -->
<g id="node5" class="node">
<title>n_3</title>
<polygon fill="none" stroke="black" points="9,-5.38 9,-30.62 77,-30.62 77,-5.38 9,-5.38"/>
<text text-anchor="start" x="16" y="-16.07" font-family="Times New Roman,serif" font-weight="bold" font-size="9.00">Overweight II</text>
<polygon fill="none" stroke="black" points="8,-4.38 8,-31.62 78,-31.62 78,-4.38 8,-4.38"/>
</g>
<!-- n_3_6&#45;&gt;n_3 -->
<g id="edge4" class="edge">
<title>n_3_6&#45;&gt;n_3</title>
<path fill="none" stroke="black" d="M85.28,-79.29C78.33,-69.37 69.35,-56.57 61.46,-45.32"/>
<polygon fill="black" stroke="black" points="64.36,-43.36 55.75,-37.18 58.63,-47.38 64.36,-43.36"/>
</g>
<!-- n_6 -->
<g id="node6" class="node">
<title>n_6</title>
<polygon fill="none" stroke="black" points="124,-5.38 124,-30.62 180,-30.62 180,-5.38 124,-5.38"/>
<text text-anchor="start" x="131" y="-16.07" font-family="Times New Roman,serif" font-weight="bold" font-size="9.00">Obesity III</text>
<polygon fill="none" stroke="black" points="123,-4.38 123,-31.62 181,-31.62 181,-4.38 123,-4.38"/>
</g>
<!-- n_3_6&#45;&gt;n_6 -->
<g id="edge5" class="edge">
<title>n_3_6&#45;&gt;n_6</title>
<path fill="none" stroke="black" d="M108.93,-79.29C116.09,-69.27 125.35,-56.31 133.44,-44.98"/>
<polygon fill="black" stroke="black" points="136.06,-47.34 139.02,-37.17 130.36,-43.28 136.06,-47.34"/>
</g>
<!-- n_0_1 -->
<g id="node10" class="node">
<title>n_0_1</title>
<polygon fill="none" stroke="black" points="374.88,-166.38 374.88,-191.62 463.12,-191.62 463.12,-166.38 374.88,-166.38"/>
<text text-anchor="start" x="381.88" y="-177.07" font-family="Times New Roman,serif" font-weight="bold" font-size="9.00">Insufficient weight</text>
<polygon fill="none" stroke="black" points="463.12,-166.38 463.12,-191.62 507.12,-191.62 507.12,-166.38 463.12,-166.38"/>
<text text-anchor="start" x="470.12" y="-177.07" font-family="Times New Roman,serif" font-weight="bold" font-size="9.00">Normal</text>
<polygon fill="none" stroke="black" points="373.88,-165.38 373.88,-192.62 508.12,-192.62 508.12,-165.38 373.88,-165.38"/>
</g>
<!-- n_0_1_4&#45;&gt;n_0_1 -->
<g id="edge9" class="edge">
<title>n_0_1_4&#45;&gt;n_0_1</title>
<path fill="none" stroke="black" d="M447.96,-247.64C446.75,-235.91 445.2,-220.86 443.87,-207.94"/>
<polygon fill="black" stroke="black" points="447.39,-207.93 442.89,-198.34 440.43,-208.64 447.39,-207.93"/>
</g>
<!-- n_4 -->
<g id="node13" class="node">
<title>n_4</title>
<polygon fill="none" stroke="black" points="554,-166.38 554,-191.62 604,-191.62 604,-166.38 554,-166.38"/>
<text text-anchor="start" x="561" y="-177.07" font-family="Times New Roman,serif" font-weight="bold" font-size="9.00">Obesity I</text>
<polygon fill="none" stroke="black" points="553,-165.38 553,-192.62 605,-192.62 605,-165.38 553,-165.38"/>
</g>
<!-- n_0_1_4&#45;&gt;n_4 -->
<g id="edge12" class="edge">
<title>n_0_1_4&#45;&gt;n_4</title>
<path fill="none" stroke="black" d="M479.27,-247.64C498.78,-234.41 524.49,-216.97 544.92,-203.12"/>
<polygon fill="black" stroke="black" points="546.62,-206.19 552.93,-197.68 542.69,-200.4 546.62,-206.19"/>
</g>
<!-- n_0 -->
<g id="node11" class="node">
<title>n_0</title>
<polygon fill="none" stroke="black" points="351.88,-84.38 351.88,-109.62 440.12,-109.62 440.12,-84.38 351.88,-84.38"/>
<text text-anchor="start" x="358.88" y="-95.08" font-family="Times New Roman,serif" font-weight="bold" font-size="9.00">Insufficient weight</text>
<polygon fill="none" stroke="black" points="350.88,-83.38 350.88,-110.62 441.12,-110.62 441.12,-83.38 350.88,-83.38"/>
</g>
<!-- n_0_1&#45;&gt;n_0 -->
<g id="edge10" class="edge">
<title>n_0_1&#45;&gt;n_0</title>
<path fill="none" stroke="black" d="M431.46,-161.03C425.55,-150.53 417.84,-136.82 411.11,-124.87"/>
<polygon fill="black" stroke="black" points="414.22,-123.26 406.27,-116.26 408.12,-126.69 414.22,-123.26"/>
</g>
<!-- n_1 -->
<g id="node12" class="node">
<title>n_1</title>
<polygon fill="none" stroke="black" points="487,-84.38 487,-109.62 531,-109.62 531,-84.38 487,-84.38"/>
<text text-anchor="start" x="494" y="-95.08" font-family="Times New Roman,serif" font-weight="bold" font-size="9.00">Normal</text>
<polygon fill="none" stroke="black" points="486,-83.38 486,-110.62 532,-110.62 532,-83.38 486,-83.38"/>
</g>
<!-- n_0_1&#45;&gt;n_1 -->
<g id="edge11" class="edge">
<title>n_0_1&#45;&gt;n_1</title>
<path fill="none" stroke="black" d="M455.42,-161.03C464.71,-150.11 476.95,-135.71 487.39,-123.43"/>
<polygon fill="black" stroke="black" points="489.81,-125.98 493.62,-116.09 484.48,-121.45 489.81,-125.98"/>
</g>
</g>
</svg>
