<?xml version="1.0" encoding="UTF-8" standalone="no"?>
<!DOCTYPE svg PUBLIC "-//W3C//DTD SVG 1.1//EN"
 "http://www.w3.org/Graphics/SVG/1.1/DTD/svg11.dtd">
<!-- Generated by graphviz version 10.0.1 (20240210.2158)
 -->
<!-- Title: ND Pages: 1 -->
<svg width="592pt" height="638pt"
 viewBox="0.00 0.00 592.12 638.00" xmlns="http://www.w3.org/2000/svg" xmlns:xlink="http://www.w3.org/1999/xlink">
<g id="graph0" class="graph" transform="scale(1 1) rotate(0) translate(4 634)">
<title>ND</title>
<polygon fill="white" stroke="none" points="-4,4 -4,-634 588.12,-634 588.12,4 -4,4"/>
<!-- n_0_1_2_3_4_5_6 -->
<g id="node1" class="node">
<title>n_0_1_2_3_4_5_6</title>
<polygon fill="none" stroke="black" points="417,-557 417,-625 505.25,-625 505.25,-557 417,-557"/>
<text text-anchor="start" x="424" y="-610.45" font-family="Times New Roman,serif" font-weight="bold" font-size="9.00">Insufficient weight</text>
<text text-anchor="start" x="435.62" y="-601.45" font-family="Times New Roman,serif" font-weight="bold" font-size="9.00">Overweight I</text>
<text text-anchor="start" x="434.12" y="-592.45" font-family="Times New Roman,serif" font-weight="bold" font-size="9.00">Overweight II</text>
<text text-anchor="start" x="443.12" y="-583.45" font-family="Times New Roman,serif" font-weight="bold" font-size="9.00">Obesity I</text>
<text text-anchor="start" x="441.62" y="-574.45" font-family="Times New Roman,serif" font-weight="bold" font-size="9.00">Obesity II</text>
<text text-anchor="start" x="440.12" y="-565.45" font-family="Times New Roman,serif" font-weight="bold" font-size="9.00">Obesity III</text>
<polygon fill="none" stroke="black" points="505.25,-557 505.25,-625 549.25,-625 549.25,-557 505.25,-557"/>
<text text-anchor="start" x="512.25" y="-589.08" font-family="Times New Roman,serif" font-weight="bold" font-size="9.00">Normal</text>
<polygon fill="none" stroke="black" points="416,-556 416,-626 550.25,-626 550.25,-556 416,-556"/>
</g>
<!-- n_0_2_3_4_5_6 -->
<g id="node2" class="node">
<title>n_0_2_3_4_5_6</title>
<polygon fill="none" stroke="black" points="342.5,-445 342.5,-504 430.75,-504 430.75,-445 342.5,-445"/>
<text text-anchor="start" x="349.5" y="-489.45" font-family="Times New Roman,serif" font-weight="bold" font-size="9.00">Insufficient weight</text>
<text text-anchor="start" x="361.12" y="-480.45" font-family="Times New Roman,serif" font-weight="bold" font-size="9.00">Overweight I</text>
<text text-anchor="start" x="359.62" y="-471.45" font-family="Times New Roman,serif" font-weight="bold" font-size="9.00">Overweight II</text>
<text text-anchor="start" x="368.62" y="-462.45" font-family="Times New Roman,serif" font-weight="bold" font-size="9.00">Obesity I</text>
<text text-anchor="start" x="365.62" y="-453.45" font-family="Times New Roman,serif" font-weight="bold" font-size="9.00">Obesity III</text>
<polygon fill="none" stroke="black" points="430.75,-445 430.75,-504 483.75,-504 483.75,-445 430.75,-445"/>
<text text-anchor="start" x="437.75" y="-472.57" font-family="Times New Roman,serif" font-weight="bold" font-size="9.00">Obesity II</text>
<polygon fill="none" stroke="black" points="341.5,-444 341.5,-505 484.75,-505 484.75,-444 341.5,-444"/>
</g>
<!-- n_0_1_2_3_4_5_6&#45;&gt;n_0_2_3_4_5_6 -->
<g id="edge1" class="edge">
<title>n_0_1_2_3_4_5_6&#45;&gt;n_0_2_3_4_5_6</title>
<path fill="none" stroke="black" d="M460.01,-552.19C453.36,-541.31 446.05,-529.36 439.23,-518.21"/>
<polygon fill="black" stroke="black" points="442.38,-516.65 434.18,-509.94 436.41,-520.3 442.38,-516.65"/>
</g>
<!-- n_1 -->
<g id="node13" class="node">
<title>n_1</title>
<polygon fill="none" stroke="black" points="531.12,-461.88 531.12,-487.12 575.12,-487.12 575.12,-461.88 531.12,-461.88"/>
<text text-anchor="start" x="538.12" y="-472.57" font-family="Times New Roman,serif" font-weight="bold" font-size="9.00">Normal</text>
<polygon fill="none" stroke="black" points="530.12,-460.88 530.12,-488.12 576.12,-488.12 576.12,-460.88 530.12,-460.88"/>
</g>
<!-- n_0_1_2_3_4_5_6&#45;&gt;n_1 -->
<g id="edge12" class="edge">
<title>n_0_1_2_3_4_5_6&#45;&gt;n_1</title>
<path fill="none" stroke="black" d="M506.24,-552.19C516.27,-535.78 527.78,-516.96 536.88,-502.07"/>
<polygon fill="black" stroke="black" points="539.74,-504.11 541.97,-493.75 533.76,-500.46 539.74,-504.11"/>
</g>
<!-- n_0_2_3_4_6 -->
<g id="node3" class="node">
<title>n_0_2_3_4_6</title>
<polygon fill="none" stroke="black" points="268,-342 268,-392 356.25,-392 356.25,-342 268,-342"/>
<text text-anchor="start" x="275" y="-377.45" font-family="Times New Roman,serif" font-weight="bold" font-size="9.00">Insufficient weight</text>
<text text-anchor="start" x="286.62" y="-368.45" font-family="Times New Roman,serif" font-weight="bold" font-size="9.00">Overweight I</text>
<text text-anchor="start" x="285.12" y="-359.45" font-family="Times New Roman,serif" font-weight="bold" font-size="9.00">Overweight II</text>
<text text-anchor="start" x="294.12" y="-350.45" font-family="Times New Roman,serif" font-weight="bold" font-size="9.00">Obesity I</text>
<polygon fill="none" stroke="black" points="356.25,-342 356.25,-392 412.25,-392 412.25,-342 356.25,-342"/>
<text text-anchor="start" x="363.25" y="-365.07" font-family="Times New Roman,serif" font-weight="bold" font-size="9.00">Obesity III</text>
<polygon fill="none" stroke="black" points="267,-341 267,-393 413.25,-393 413.25,-341 267,-341"/>
</g>
<!-- n_0_2_3_4_5_6&#45;&gt;n_0_2_3_4_6 -->
<g id="edge2" class="edge">
<title>n_0_2_3_4_5_6&#45;&gt;n_0_2_3_4_6</title>
<path fill="none" stroke="black" d="M390.03,-440.12C382.6,-429.38 374.31,-417.4 366.65,-406.33"/>
<polygon fill="black" stroke="black" points="369.55,-404.37 360.98,-398.14 363.79,-408.36 369.55,-404.37"/>
</g>
<!-- n_5 -->
<g id="node12" class="node">
<title>n_5</title>
<polygon fill="none" stroke="black" points="459.62,-354.38 459.62,-379.62 512.62,-379.62 512.62,-354.38 459.62,-354.38"/>
<text text-anchor="start" x="466.62" y="-365.07" font-family="Times New Roman,serif" font-weight="bold" font-size="9.00">Obesity II</text>
<polygon fill="none" stroke="black" points="458.62,-353.38 458.62,-380.62 513.62,-380.62 513.62,-353.38 458.62,-353.38"/>
</g>
<!-- n_0_2_3_4_5_6&#45;&gt;n_5 -->
<g id="edge11" class="edge">
<title>n_0_2_3_4_5_6&#45;&gt;n_5</title>
<path fill="none" stroke="black" d="M436.22,-440.12C446.44,-425.35 458.29,-408.23 467.87,-394.38"/>
<polygon fill="black" stroke="black" points="470.72,-396.41 473.54,-386.2 464.97,-392.43 470.72,-396.41"/>
</g>
<!-- n_0_2_3_4 -->
<g id="node4" class="node">
<title>n_0_2_3_4</title>
<polygon fill="none" stroke="black" points="186,-248 186,-289 274.25,-289 274.25,-248 186,-248"/>
<text text-anchor="start" x="193" y="-274.45" font-family="Times New Roman,serif" font-weight="bold" font-size="9.00">Insufficient weight</text>
<text text-anchor="start" x="204.62" y="-265.45" font-family="Times New Roman,serif" font-weight="bold" font-size="9.00">Overweight I</text>
<text text-anchor="start" x="212.12" y="-256.45" font-family="Times New Roman,serif" font-weight="bold" font-size="9.00">Obesity I</text>
<polygon fill="none" stroke="black" points="274.25,-248 274.25,-289 342.25,-289 342.25,-248 274.25,-248"/>
<text text-anchor="start" x="281.25" y="-266.57" font-family="Times New Roman,serif" font-weight="bold" font-size="9.00">Overweight II</text>
<polygon fill="none" stroke="black" points="185,-247 185,-290 343.25,-290 343.25,-247 185,-247"/>
</g>
<!-- n_0_2_3_4_6&#45;&gt;n_0_2_3_4 -->
<g id="edge3" class="edge">
<title>n_0_2_3_4_6&#45;&gt;n_0_2_3_4</title>
<path fill="none" stroke="black" d="M317.32,-337.05C308.85,-326.29 299.17,-314 290.42,-302.88"/>
<polygon fill="black" stroke="black" points="293.19,-300.75 284.26,-295.06 287.7,-305.09 293.19,-300.75"/>
</g>
<!-- n_6 -->
<g id="node11" class="node">
<title>n_6</title>
<polygon fill="none" stroke="black" points="389.12,-255.88 389.12,-281.12 445.12,-281.12 445.12,-255.88 389.12,-255.88"/>
<text text-anchor="start" x="396.12" y="-266.57" font-family="Times New Roman,serif" font-weight="bold" font-size="9.00">Obesity III</text>
<polygon fill="none" stroke="black" points="388.12,-254.88 388.12,-282.12 446.12,-282.12 446.12,-254.88 388.12,-254.88"/>
</g>
<!-- n_0_2_3_4_6&#45;&gt;n_6 -->
<g id="edge10" class="edge">
<title>n_0_2_3_4_6&#45;&gt;n_6</title>
<path fill="none" stroke="black" d="M363.23,-337.05C373.85,-323.73 386.35,-308.07 396.63,-295.19"/>
<polygon fill="black" stroke="black" points="399.22,-297.55 402.72,-287.55 393.75,-293.18 399.22,-297.55"/>
</g>
<!-- n_0_2_4 -->
<g id="node5" class="node">
<title>n_0_2_4</title>
<polygon fill="none" stroke="black" points="120,-163 120,-195 208.25,-195 208.25,-163 120,-163"/>
<text text-anchor="start" x="127" y="-180.45" font-family="Times New Roman,serif" font-weight="bold" font-size="9.00">Insufficient weight</text>
<text text-anchor="start" x="138.62" y="-171.45" font-family="Times New Roman,serif" font-weight="bold" font-size="9.00">Overweight I</text>
<polygon fill="none" stroke="black" points="208.25,-163 208.25,-195 258.25,-195 258.25,-163 208.25,-163"/>
<text text-anchor="start" x="215.25" y="-177.07" font-family="Times New Roman,serif" font-weight="bold" font-size="9.00">Obesity I</text>
<polygon fill="none" stroke="black" points="119,-162 119,-196 259.25,-196 259.25,-162 119,-162"/>
</g>
<!-- n_0_2_3_4&#45;&gt;n_0_2_4 -->
<g id="edge4" class="edge">
<title>n_0_2_3_4&#45;&gt;n_0_2_4</title>
<path fill="none" stroke="black" d="M243.23,-243.13C234,-232.35 223.08,-219.62 213.48,-208.41"/>
<polygon fill="black" stroke="black" points="216.27,-206.29 207.1,-200.98 210.95,-210.85 216.27,-206.29"/>
</g>
<!-- n_3 -->
<g id="node10" class="node">
<title>n_3</title>
<polygon fill="none" stroke="black" points="305.12,-166.38 305.12,-191.62 373.12,-191.62 373.12,-166.38 305.12,-166.38"/>
<text text-anchor="start" x="312.12" y="-177.07" font-family="Times New Roman,serif" font-weight="bold" font-size="9.00">Overweight II</text>
<polygon fill="none" stroke="black" points="304.12,-165.38 304.12,-192.62 374.12,-192.62 374.12,-165.38 304.12,-165.38"/>
</g>
<!-- n_0_2_3_4&#45;&gt;n_3 -->
<g id="edge9" class="edge">
<title>n_0_2_3_4&#45;&gt;n_3</title>
<path fill="none" stroke="black" d="M285.02,-243.13C295.1,-231.36 307.2,-217.25 317.39,-205.36"/>
<polygon fill="black" stroke="black" points="319.91,-207.79 323.77,-197.92 314.6,-203.23 319.91,-207.79"/>
</g>
<!-- n_0_2 -->
<g id="node6" class="node">
<title>n_0_2</title>
<polygon fill="none" stroke="black" points="38.5,-84.38 38.5,-109.62 126.75,-109.62 126.75,-84.38 38.5,-84.38"/>
<text text-anchor="start" x="45.5" y="-95.08" font-family="Times New Roman,serif" font-weight="bold" font-size="9.00">Insufficient weight</text>
<polygon fill="none" stroke="black" points="126.75,-84.38 126.75,-109.62 191.75,-109.62 191.75,-84.38 126.75,-84.38"/>
<text text-anchor="start" x="133.75" y="-95.08" font-family="Times New Roman,serif" font-weight="bold" font-size="9.00">Overweight I</text>
<polygon fill="none" stroke="black" points="37.5,-83.38 37.5,-110.62 192.75,-110.62 192.75,-83.38 37.5,-83.38"/>
</g>
<!-- n_0_2_4&#45;&gt;n_0_2 -->
<g id="edge5" class="edge">
<title>n_0_2_4&#45;&gt;n_0_2</title>
<path fill="none" stroke="black" d="M170.83,-158.22C161.01,-147.61 148.8,-134.41 138.32,-123.07"/>
<polygon fill="black" stroke="black" points="141.09,-120.92 131.73,-115.95 135.95,-125.67 141.09,-120.92"/>
</g>
<!-- n_4 -->
<g id="node9" class="node">
<title>n_4</title>
<polygon fill="none" stroke="black" points="239.12,-84.38 239.12,-109.62 289.12,-109.62 289.12,-84.38 239.12,-84.38"/>
<text text-anchor="start" x="246.12" y="-95.08" font-family="Times New Roman,serif" font-weight="bold" font-size="9.00">Obesity I</text>
<polygon fill="none" stroke="black" points="238.12,-83.38 238.12,-110.62 290.12,-110.62 290.12,-83.38 238.12,-83.38"/>
</g>
<!-- n_0_2_4&#45;&gt;n_4 -->
<g id="edge8" class="edge">
<title>n_0_2_4&#45;&gt;n_4</title>
<path fill="none" stroke="black" d="M207.66,-158.22C217.62,-147.61 229.99,-134.41 240.62,-123.07"/>
<polygon fill="black" stroke="black" points="243.01,-125.64 247.3,-115.95 237.91,-120.85 243.01,-125.64"/>
</g>
<!-- n_0 -->
<g id="node7" class="node">
<title>n_0</title>
<polygon fill="none" stroke="black" points="9,-5.38 9,-30.62 97.25,-30.62 97.25,-5.38 9,-5.38"/>
<text text-anchor="start" x="16" y="-16.07" font-family="Times New Roman,serif" font-weight="bold" font-size="9.00">Insufficient weight</text>
<polygon fill="none" stroke="black" points="8,-4.38 8,-31.62 98.25,-31.62 98.25,-4.38 8,-4.38"/>
</g>
<!-- n_0_2&#45;&gt;n_0 -->
<g id="edge6" class="edge">
<title>n_0_2&#45;&gt;n_0</title>
<path fill="none" stroke="black" d="M101.67,-79.29C93.52,-69.17 82.96,-56.05 73.77,-44.64"/>
<polygon fill="black" stroke="black" points="76.71,-42.71 67.72,-37.12 71.26,-47.1 76.71,-42.71"/>
</g>
<!-- n_2 -->
<g id="node8" class="node">
<title>n_2</title>
<polygon fill="none" stroke="black" points="144.62,-5.38 144.62,-30.62 209.62,-30.62 209.62,-5.38 144.62,-5.38"/>
<text text-anchor="start" x="151.62" y="-16.07" font-family="Times New Roman,serif" font-weight="bold" font-size="9.00">Overweight I</text>
<polygon fill="none" stroke="black" points="143.62,-4.38 143.62,-31.62 210.62,-31.62 210.62,-4.38 143.62,-4.38"/>
</g>
<!-- n_0_2&#45;&gt;n_2 -->
<g id="edge7" class="edge">
<title>n_0_2&#45;&gt;n_2</title>
<path fill="none" stroke="black" d="M128.58,-79.29C136.73,-69.17 147.29,-56.05 156.48,-44.64"/>
<polygon fill="black" stroke="black" points="158.99,-47.1 162.53,-37.12 153.54,-42.71 158.99,-47.1"/>
</g>
</g>
</svg>
