<?xml version="1.0" encoding="UTF-8" standalone="no"?>
<!DOCTYPE svg PUBLIC "-//W3C//DTD SVG 1.1//EN"
 "http://www.w3.org/Graphics/SVG/1.1/DTD/svg11.dtd">
<!-- Generated by graphviz version 10.0.1 (20240210.2158)
 -->
<!-- Title: ND Pages: 1 -->
<svg width="540pt" height="544pt"
 viewBox="0.00 0.00 539.50 544.00" xmlns="http://www.w3.org/2000/svg" xmlns:xlink="http://www.w3.org/1999/xlink">
<g id="graph0" class="graph" transform="scale(1 1) rotate(0) translate(4 540)">
<title>ND</title>
<polygon fill="white" stroke="none" points="-4,4 -4,-540 535.5,-540 535.5,4 -4,4"/>
<!-- n_0_1_2_3_4_5_6 -->
<g id="node1" class="node">
<title>n_0_1_2_3_4_5_6</title>
<polygon fill="none" stroke="black" points="349.38,-463 349.38,-531 437.62,-531 437.62,-463 349.38,-463"/>
<text text-anchor="start" x="356.38" y="-516.45" font-family="Times New Roman,serif" font-weight="bold" font-size="9.00">Insufficient weight</text>
<text text-anchor="start" x="378.5" y="-507.45" font-family="Times New Roman,serif" font-weight="bold" font-size="9.00">Normal</text>
<text text-anchor="start" x="368" y="-498.45" font-family="Times New Roman,serif" font-weight="bold" font-size="9.00">Overweight I</text>
<text text-anchor="start" x="366.5" y="-489.45" font-family="Times New Roman,serif" font-weight="bold" font-size="9.00">Overweight II</text>
<text text-anchor="start" x="375.5" y="-480.45" font-family="Times New Roman,serif" font-weight="bold" font-size="9.00">Obesity I</text>
<text text-anchor="start" x="372.5" y="-471.45" font-family="Times New Roman,serif" font-weight="bold" font-size="9.00">Obesity III</text>
<polygon fill="none" stroke="black" points="437.62,-463 437.62,-531 490.62,-531 490.62,-463 437.62,-463"/>
<text text-anchor="start" x="444.62" y="-495.07" font-family="Times New Roman,serif" font-weight="bold" font-size="9.00">Obesity II</text>
<polygon fill="none" stroke="black" points="348.38,-462 348.38,-532 491.62,-532 491.62,-462 348.38,-462"/>
</g>
<!-- n_0_1_2_3_4_6 -->
<g id="node2" class="node">
<title>n_0_1_2_3_4_6</title>
<polygon fill="none" stroke="black" points="265.88,-351 265.88,-410 333.88,-410 333.88,-351 265.88,-351"/>
<text text-anchor="start" x="284.88" y="-395.45" font-family="Times New Roman,serif" font-weight="bold" font-size="9.00">Normal</text>
<text text-anchor="start" x="274.38" y="-386.45" font-family="Times New Roman,serif" font-weight="bold" font-size="9.00">Overweight I</text>
<text text-anchor="start" x="272.88" y="-377.45" font-family="Times New Roman,serif" font-weight="bold" font-size="9.00">Overweight II</text>
<text text-anchor="start" x="281.88" y="-368.45" font-family="Times New Roman,serif" font-weight="bold" font-size="9.00">Obesity I</text>
<text text-anchor="start" x="278.88" y="-359.45" font-family="Times New Roman,serif" font-weight="bold" font-size="9.00">Obesity III</text>
<polygon fill="none" stroke="black" points="333.88,-351 333.88,-410 422.12,-410 422.12,-351 333.88,-351"/>
<text text-anchor="start" x="340.88" y="-378.57" font-family="Times New Roman,serif" font-weight="bold" font-size="9.00">Insufficient weight</text>
<polygon fill="none" stroke="black" points="264.88,-350 264.88,-411 423.12,-411 423.12,-350 264.88,-350"/>
</g>
<!-- n_0_1_2_3_4_5_6&#45;&gt;n_0_1_2_3_4_6 -->
<g id="edge1" class="edge">
<title>n_0_1_2_3_4_5_6&#45;&gt;n_0_1_2_3_4_6</title>
<path fill="none" stroke="black" d="M394.9,-458.19C387.68,-447.31 379.75,-435.36 372.35,-424.21"/>
<polygon fill="black" stroke="black" points="375.29,-422.31 366.84,-415.91 369.46,-426.18 375.29,-422.31"/>
</g>
<!-- n_5 -->
<g id="node13" class="node">
<title>n_5</title>
<polygon fill="none" stroke="black" points="469.5,-367.88 469.5,-393.12 522.5,-393.12 522.5,-367.88 469.5,-367.88"/>
<text text-anchor="start" x="476.5" y="-378.57" font-family="Times New Roman,serif" font-weight="bold" font-size="9.00">Obesity II</text>
<polygon fill="none" stroke="black" points="468.5,-366.88 468.5,-394.12 523.5,-394.12 523.5,-366.88 468.5,-366.88"/>
</g>
<!-- n_0_1_2_3_4_5_6&#45;&gt;n_5 -->
<g id="edge12" class="edge">
<title>n_0_1_2_3_4_5_6&#45;&gt;n_5</title>
<path fill="none" stroke="black" d="M445.1,-458.19C456.09,-441.63 468.72,-422.6 478.65,-407.64"/>
<polygon fill="black" stroke="black" points="481.29,-409.99 483.9,-399.72 475.46,-406.12 481.29,-409.99"/>
</g>
<!-- n_1_2_3_4_6 -->
<g id="node3" class="node">
<title>n_1_2_3_4_6</title>
<polygon fill="none" stroke="black" points="198.5,-248 198.5,-298 266.5,-298 266.5,-248 198.5,-248"/>
<text text-anchor="start" x="217.5" y="-283.45" font-family="Times New Roman,serif" font-weight="bold" font-size="9.00">Normal</text>
<text text-anchor="start" x="205.5" y="-274.45" font-family="Times New Roman,serif" font-weight="bold" font-size="9.00">Overweight II</text>
<text text-anchor="start" x="214.5" y="-265.45" font-family="Times New Roman,serif" font-weight="bold" font-size="9.00">Obesity I</text>
<text text-anchor="start" x="211.5" y="-256.45" font-family="Times New Roman,serif" font-weight="bold" font-size="9.00">Obesity III</text>
<polygon fill="none" stroke="black" points="266.5,-248 266.5,-298 331.5,-298 331.5,-248 266.5,-248"/>
<text text-anchor="start" x="273.5" y="-271.07" font-family="Times New Roman,serif" font-weight="bold" font-size="9.00">Overweight I</text>
<polygon fill="none" stroke="black" points="197.5,-247 197.5,-299 332.5,-299 332.5,-247 197.5,-247"/>
</g>
<!-- n_0_1_2_3_4_6&#45;&gt;n_1_2_3_4_6 -->
<g id="edge2" class="edge">
<title>n_0_1_2_3_4_6&#45;&gt;n_1_2_3_4_6</title>
<path fill="none" stroke="black" d="M319,-346.12C310.88,-335.27 301.81,-323.16 293.45,-312"/>
<polygon fill="black" stroke="black" points="296.34,-310.02 287.55,-304.11 290.74,-314.21 296.34,-310.02"/>
</g>
<!-- n_0 -->
<g id="node12" class="node">
<title>n_0</title>
<polygon fill="none" stroke="black" points="378.88,-260.38 378.88,-285.62 467.12,-285.62 467.12,-260.38 378.88,-260.38"/>
<text text-anchor="start" x="385.88" y="-271.07" font-family="Times New Roman,serif" font-weight="bold" font-size="9.00">Insufficient weight</text>
<polygon fill="none" stroke="black" points="377.88,-259.38 377.88,-286.62 468.12,-286.62 468.12,-259.38 377.88,-259.38"/>
</g>
<!-- n_0_1_2_3_4_6&#45;&gt;n_0 -->
<g id="edge11" class="edge">
<title>n_0_1_2_3_4_6&#45;&gt;n_0</title>
<path fill="none" stroke="black" d="M369,-346.12C380.16,-331.21 393.12,-313.9 403.55,-299.98"/>
<polygon fill="black" stroke="black" points="406.21,-302.26 409.4,-292.16 400.6,-298.07 406.21,-302.26"/>
</g>
<!-- n_1_3_4_6 -->
<g id="node4" class="node">
<title>n_1_3_4_6</title>
<polygon fill="none" stroke="black" points="132,-163 132,-195 188,-195 188,-163 132,-163"/>
<text text-anchor="start" x="145" y="-180.45" font-family="Times New Roman,serif" font-weight="bold" font-size="9.00">Normal</text>
<text text-anchor="start" x="139" y="-171.45" font-family="Times New Roman,serif" font-weight="bold" font-size="9.00">Obesity III</text>
<polygon fill="none" stroke="black" points="188,-163 188,-195 256,-195 256,-163 188,-163"/>
<text text-anchor="start" x="195" y="-180.45" font-family="Times New Roman,serif" font-weight="bold" font-size="9.00">Overweight II</text>
<text text-anchor="start" x="204" y="-171.45" font-family="Times New Roman,serif" font-weight="bold" font-size="9.00">Obesity I</text>
<polygon fill="none" stroke="black" points="131,-162 131,-196 257,-196 257,-162 131,-162"/>
</g>
<!-- n_1_2_3_4_6&#45;&gt;n_1_3_4_6 -->
<g id="edge3" class="edge">
<title>n_1_2_3_4_6&#45;&gt;n_1_3_4_6</title>
<path fill="none" stroke="black" d="M242.73,-243.14C234.22,-232.11 224.52,-219.54 216.02,-208.54"/>
<polygon fill="black" stroke="black" points="219.03,-206.71 210.15,-200.93 213.49,-210.98 219.03,-206.71"/>
</g>
<!-- n_2 -->
<g id="node11" class="node">
<title>n_2</title>
<polygon fill="none" stroke="black" points="303.5,-166.38 303.5,-191.62 368.5,-191.62 368.5,-166.38 303.5,-166.38"/>
<text text-anchor="start" x="310.5" y="-177.07" font-family="Times New Roman,serif" font-weight="bold" font-size="9.00">Overweight I</text>
<polygon fill="none" stroke="black" points="302.5,-165.38 302.5,-192.62 369.5,-192.62 369.5,-165.38 302.5,-165.38"/>
</g>
<!-- n_1_2_3_4_6&#45;&gt;n_2 -->
<g id="edge10" class="edge">
<title>n_1_2_3_4_6&#45;&gt;n_2</title>
<path fill="none" stroke="black" d="M287.27,-243.14C296.51,-231.17 307.15,-217.38 316.12,-205.76"/>
<polygon fill="black" stroke="black" points="318.64,-208.22 321.98,-198.17 313.1,-203.94 318.64,-208.22"/>
</g>
<!-- n_1_6 -->
<g id="node5" class="node">
<title>n_1_6</title>
<polygon fill="none" stroke="black" points="66,-84.38 66,-109.62 110,-109.62 110,-84.38 66,-84.38"/>
<text text-anchor="start" x="73" y="-95.08" font-family="Times New Roman,serif" font-weight="bold" font-size="9.00">Normal</text>
<polygon fill="none" stroke="black" points="110,-84.38 110,-109.62 166,-109.62 166,-84.38 110,-84.38"/>
<text text-anchor="start" x="117" y="-95.08" font-family="Times New Roman,serif" font-weight="bold" font-size="9.00">Obesity III</text>
<polygon fill="none" stroke="black" points="65,-83.38 65,-110.62 167,-110.62 167,-83.38 65,-83.38"/>
</g>
<!-- n_1_3_4_6&#45;&gt;n_1_6 -->
<g id="edge4" class="edge">
<title>n_1_3_4_6&#45;&gt;n_1_6</title>
<path fill="none" stroke="black" d="M174.72,-158.22C164.37,-147.61 151.5,-134.41 140.45,-123.07"/>
<polygon fill="black" stroke="black" points="142.97,-120.64 133.48,-115.93 137.95,-125.53 142.97,-120.64"/>
</g>
<!-- n_3_4 -->
<g id="node8" class="node">
<title>n_3_4</title>
<polygon fill="none" stroke="black" points="213,-84.38 213,-109.62 281,-109.62 281,-84.38 213,-84.38"/>
<text text-anchor="start" x="220" y="-95.08" font-family="Times New Roman,serif" font-weight="bold" font-size="9.00">Overweight II</text>
<polygon fill="none" stroke="black" points="281,-84.38 281,-109.62 331,-109.62 331,-84.38 281,-84.38"/>
<text text-anchor="start" x="288" y="-95.08" font-family="Times New Roman,serif" font-weight="bold" font-size="9.00">Obesity I</text>
<polygon fill="none" stroke="black" points="212,-83.38 212,-110.62 332,-110.62 332,-83.38 212,-83.38"/>
</g>
<!-- n_1_3_4_6&#45;&gt;n_3_4 -->
<g id="edge7" class="edge">
<title>n_1_3_4_6&#45;&gt;n_3_4</title>
<path fill="none" stroke="black" d="M213.28,-158.22C223.63,-147.61 236.5,-134.41 247.55,-123.07"/>
<polygon fill="black" stroke="black" points="250.05,-125.53 254.52,-115.93 245.03,-120.64 250.05,-125.53"/>
</g>
<!-- n_1 -->
<g id="node6" class="node">
<title>n_1</title>
<polygon fill="none" stroke="black" points="9,-5.38 9,-30.62 53,-30.62 53,-5.38 9,-5.38"/>
<text text-anchor="start" x="16" y="-16.07" font-family="Times New Roman,serif" font-weight="bold" font-size="9.00">Normal</text>
<polygon fill="none" stroke="black" points="8,-4.38 8,-31.62 54,-31.62 54,-4.38 8,-4.38"/>
</g>
<!-- n_1_6&#45;&gt;n_1 -->
<g id="edge5" class="edge">
<title>n_1_6&#45;&gt;n_1</title>
<path fill="none" stroke="black" d="M97.56,-79.29C86.05,-68.87 71.04,-55.27 58.19,-43.63"/>
<polygon fill="black" stroke="black" points="60.58,-41.08 50.82,-36.96 55.88,-46.26 60.58,-41.08"/>
</g>
<!-- n_6 -->
<g id="node7" class="node">
<title>n_6</title>
<polygon fill="none" stroke="black" points="100,-5.38 100,-30.62 156,-30.62 156,-5.38 100,-5.38"/>
<text text-anchor="start" x="107" y="-16.07" font-family="Times New Roman,serif" font-weight="bold" font-size="9.00">Obesity III</text>
<polygon fill="none" stroke="black" points="99,-4.38 99,-31.62 157,-31.62 157,-4.38 99,-4.38"/>
</g>
<!-- n_1_6&#45;&gt;n_6 -->
<g id="edge6" class="edge">
<title>n_1_6&#45;&gt;n_6</title>
<path fill="none" stroke="black" d="M118.6,-79.29C120.07,-69.87 121.94,-57.86 123.63,-47.04"/>
<polygon fill="black" stroke="black" points="127.05,-47.86 125.13,-37.44 120.13,-46.78 127.05,-47.86"/>
</g>
<!-- n_3 -->
<g id="node9" class="node">
<title>n_3</title>
<polygon fill="none" stroke="black" points="226,-5.38 226,-30.62 294,-30.62 294,-5.38 226,-5.38"/>
<text text-anchor="start" x="233" y="-16.07" font-family="Times New Roman,serif" font-weight="bold" font-size="9.00">Overweight II</text>
<polygon fill="none" stroke="black" points="225,-4.38 225,-31.62 295,-31.62 295,-4.38 225,-4.38"/>
</g>
<!-- n_3_4&#45;&gt;n_3 -->
<g id="edge8" class="edge">
<title>n_3_4&#45;&gt;n_3</title>
<path fill="none" stroke="black" d="M269.4,-79.29C267.93,-69.87 266.06,-57.86 264.37,-47.04"/>
<polygon fill="black" stroke="black" points="267.87,-46.78 262.87,-37.44 260.95,-47.86 267.87,-46.78"/>
</g>
<!-- n_4 -->
<g id="node10" class="node">
<title>n_4</title>
<polygon fill="none" stroke="black" points="341,-5.38 341,-30.62 391,-30.62 391,-5.38 341,-5.38"/>
<text text-anchor="start" x="348" y="-16.07" font-family="Times New Roman,serif" font-weight="bold" font-size="9.00">Obesity I</text>
<polygon fill="none" stroke="black" points="340,-4.38 340,-31.62 392,-31.62 392,-4.38 340,-4.38"/>
</g>
<!-- n_3_4&#45;&gt;n_4 -->
<g id="edge9" class="edge">
<title>n_3_4&#45;&gt;n_4</title>
<path fill="none" stroke="black" d="M292.4,-79.29C305.36,-68.67 322.36,-54.75 336.75,-42.96"/>
<polygon fill="black" stroke="black" points="338.63,-45.94 344.15,-36.9 334.19,-40.53 338.63,-45.94"/>
</g>
</g>
</svg>
