<?xml version="1.0" encoding="UTF-8" standalone="no"?>
<!DOCTYPE svg PUBLIC "-//W3C//DTD SVG 1.1//EN"
 "http://www.w3.org/Graphics/SVG/1.1/DTD/svg11.dtd">
<!-- Generated by graphviz version 10.0.1 (20240210.2158)
 -->
<!-- Title: ND Pages: 1 -->
<svg width="706pt" height="414pt"
 viewBox="0.00 0.00 705.50 414.00" xmlns="http://www.w3.org/2000/svg" xmlns:xlink="http://www.w3.org/1999/xlink">
<g id="graph0" class="graph" transform="scale(1 1) rotate(0) translate(4 410)">
<title>ND</title>
<polygon fill="white" stroke="none" points="-4,4 -4,-410 701.5,-410 701.5,4 -4,4"/>
<!-- n_0_1_2_3_4_5_6 -->
<g id="node1" class="node">
<title>n_0_1_2_3_4_5_6</title>
<polygon fill="none" stroke="black" points="414.38,-342 414.38,-401 502.62,-401 502.62,-342 414.38,-342"/>
<text text-anchor="start" x="421.38" y="-386.45" font-family="Times New Roman,serif" font-weight="bold" font-size="9.00">Insufficient weight</text>
<text text-anchor="start" x="443.5" y="-377.45" font-family="Times New Roman,serif" font-weight="bold" font-size="9.00">Normal</text>
<text text-anchor="start" x="433" y="-368.45" font-family="Times New Roman,serif" font-weight="bold" font-size="9.00">Overweight I</text>
<text text-anchor="start" x="431.5" y="-359.45" font-family="Times New Roman,serif" font-weight="bold" font-size="9.00">Overweight II</text>
<text text-anchor="start" x="439" y="-350.45" font-family="Times New Roman,serif" font-weight="bold" font-size="9.00">Obesity II</text>
<polygon fill="none" stroke="black" points="502.62,-342 502.62,-401 558.62,-401 558.62,-342 502.62,-342"/>
<text text-anchor="start" x="512.62" y="-372.95" font-family="Times New Roman,serif" font-weight="bold" font-size="9.00">Obesity I</text>
<text text-anchor="start" x="509.62" y="-363.95" font-family="Times New Roman,serif" font-weight="bold" font-size="9.00">Obesity III</text>
<polygon fill="none" stroke="black" points="413.38,-341 413.38,-402 559.62,-402 559.62,-341 413.38,-341"/>
</g>
<!-- n_0_1_2_3_5 -->
<g id="node2" class="node">
<title>n_0_1_2_3_5</title>
<polygon fill="none" stroke="black" points="330.88,-248 330.88,-289 419.12,-289 419.12,-248 330.88,-248"/>
<text text-anchor="start" x="337.88" y="-274.45" font-family="Times New Roman,serif" font-weight="bold" font-size="9.00">Insufficient weight</text>
<text text-anchor="start" x="349.5" y="-265.45" font-family="Times New Roman,serif" font-weight="bold" font-size="9.00">Overweight I</text>
<text text-anchor="start" x="348" y="-256.45" font-family="Times New Roman,serif" font-weight="bold" font-size="9.00">Overweight II</text>
<polygon fill="none" stroke="black" points="419.12,-248 419.12,-289 472.12,-289 472.12,-248 419.12,-248"/>
<text text-anchor="start" x="430.62" y="-269.95" font-family="Times New Roman,serif" font-weight="bold" font-size="9.00">Normal</text>
<text text-anchor="start" x="426.12" y="-260.95" font-family="Times New Roman,serif" font-weight="bold" font-size="9.00">Obesity II</text>
<polygon fill="none" stroke="black" points="329.88,-247 329.88,-290 473.12,-290 473.12,-247 329.88,-247"/>
</g>
<!-- n_0_1_2_3_4_5_6&#45;&gt;n_0_1_2_3_5 -->
<g id="edge1" class="edge">
<title>n_0_1_2_3_4_5_6&#45;&gt;n_0_1_2_3_5</title>
<path fill="none" stroke="black" d="M458.43,-337.15C449.05,-326 438.59,-313.58 429.23,-302.45"/>
<polygon fill="black" stroke="black" points="432.09,-300.42 422.98,-295.02 426.74,-304.92 432.09,-300.42"/>
</g>
<!-- n_4_6 -->
<g id="node11" class="node">
<title>n_4_6</title>
<polygon fill="none" stroke="black" points="519.5,-255.88 519.5,-281.12 569.5,-281.12 569.5,-255.88 519.5,-255.88"/>
<text text-anchor="start" x="526.5" y="-266.57" font-family="Times New Roman,serif" font-weight="bold" font-size="9.00">Obesity I</text>
<polygon fill="none" stroke="black" points="569.5,-255.88 569.5,-281.12 625.5,-281.12 625.5,-255.88 569.5,-255.88"/>
<text text-anchor="start" x="576.5" y="-266.57" font-family="Times New Roman,serif" font-weight="bold" font-size="9.00">Obesity III</text>
<polygon fill="none" stroke="black" points="518.5,-254.88 518.5,-282.12 626.5,-282.12 626.5,-254.88 518.5,-254.88"/>
</g>
<!-- n_0_1_2_3_4_5_6&#45;&gt;n_4_6 -->
<g id="edge10" class="edge">
<title>n_0_1_2_3_4_5_6&#45;&gt;n_4_6</title>
<path fill="none" stroke="black" d="M514.9,-337.15C526.55,-323.46 539.83,-307.87 550.7,-295.11"/>
<polygon fill="black" stroke="black" points="553.33,-297.42 557.15,-287.53 548,-292.88 553.33,-297.42"/>
</g>
<!-- n_0_2_3 -->
<g id="node3" class="node">
<title>n_0_2_3</title>
<polygon fill="none" stroke="black" points="162.38,-163 162.38,-195 230.38,-195 230.38,-163 162.38,-163"/>
<text text-anchor="start" x="170.88" y="-180.45" font-family="Times New Roman,serif" font-weight="bold" font-size="9.00">Overweight I</text>
<text text-anchor="start" x="169.38" y="-171.45" font-family="Times New Roman,serif" font-weight="bold" font-size="9.00">Overweight II</text>
<polygon fill="none" stroke="black" points="230.38,-163 230.38,-195 318.62,-195 318.62,-163 230.38,-163"/>
<text text-anchor="start" x="237.38" y="-177.07" font-family="Times New Roman,serif" font-weight="bold" font-size="9.00">Insufficient weight</text>
<polygon fill="none" stroke="black" points="161.38,-162 161.38,-196 319.62,-196 319.62,-162 161.38,-162"/>
</g>
<!-- n_0_1_2_3_5&#45;&gt;n_0_2_3 -->
<g id="edge2" class="edge">
<title>n_0_1_2_3_5&#45;&gt;n_0_2_3</title>
<path fill="none" stroke="black" d="M356.65,-243.13C335.05,-231.38 309.14,-217.31 287.29,-205.43"/>
<polygon fill="black" stroke="black" points="289.03,-202.39 278.57,-200.69 285.69,-208.54 289.03,-202.39"/>
</g>
<!-- n_1_5 -->
<g id="node8" class="node">
<title>n_1_5</title>
<polygon fill="none" stroke="black" points="366,-166.38 366,-191.62 410,-191.62 410,-166.38 366,-166.38"/>
<text text-anchor="start" x="373" y="-177.07" font-family="Times New Roman,serif" font-weight="bold" font-size="9.00">Normal</text>
<polygon fill="none" stroke="black" points="410,-166.38 410,-191.62 463,-191.62 463,-166.38 410,-166.38"/>
<text text-anchor="start" x="417" y="-177.07" font-family="Times New Roman,serif" font-weight="bold" font-size="9.00">Obesity II</text>
<polygon fill="none" stroke="black" points="365,-165.38 365,-192.62 464,-192.62 464,-165.38 365,-165.38"/>
</g>
<!-- n_0_1_2_3_5&#45;&gt;n_1_5 -->
<g id="edge7" class="edge">
<title>n_0_1_2_3_5&#45;&gt;n_1_5</title>
<path fill="none" stroke="black" d="M405.12,-243.13C406.75,-232.17 408.68,-219.18 410.36,-207.84"/>
<polygon fill="black" stroke="black" points="413.78,-208.67 411.79,-198.27 406.85,-207.64 413.78,-208.67"/>
</g>
<!-- n_2_3 -->
<g id="node4" class="node">
<title>n_2_3</title>
<polygon fill="none" stroke="black" points="32,-84.38 32,-109.62 97,-109.62 97,-84.38 32,-84.38"/>
<text text-anchor="start" x="39" y="-95.08" font-family="Times New Roman,serif" font-weight="bold" font-size="9.00">Overweight I</text>
<polygon fill="none" stroke="black" points="97,-84.38 97,-109.62 165,-109.62 165,-84.38 97,-84.38"/>
<text text-anchor="start" x="104" y="-95.08" font-family="Times New Roman,serif" font-weight="bold" font-size="9.00">Overweight II</text>
<polygon fill="none" stroke="black" points="31,-83.38 31,-110.62 166,-110.62 166,-83.38 31,-83.38"/>
</g>
<!-- n_0_2_3&#45;&gt;n_2_3 -->
<g id="edge3" class="edge">
<title>n_0_2_3&#45;&gt;n_2_3</title>
<path fill="none" stroke="black" d="M205.03,-158.02C184.7,-146.56 159.13,-132.16 138.14,-120.33"/>
<polygon fill="black" stroke="black" points="140,-117.36 129.56,-115.5 136.56,-123.46 140,-117.36"/>
</g>
<!-- n_0 -->
<g id="node7" class="node">
<title>n_0</title>
<polygon fill="none" stroke="black" points="212.38,-84.38 212.38,-109.62 300.62,-109.62 300.62,-84.38 212.38,-84.38"/>
<text text-anchor="start" x="219.38" y="-95.08" font-family="Times New Roman,serif" font-weight="bold" font-size="9.00">Insufficient weight</text>
<polygon fill="none" stroke="black" points="211.38,-83.38 211.38,-110.62 301.62,-110.62 301.62,-83.38 211.38,-83.38"/>
</g>
<!-- n_0_2_3&#45;&gt;n_0 -->
<g id="edge6" class="edge">
<title>n_0_2_3&#45;&gt;n_0</title>
<path fill="none" stroke="black" d="M244.46,-158.22C246.39,-148.54 248.76,-136.72 250.88,-126.11"/>
<polygon fill="black" stroke="black" points="254.31,-126.82 252.83,-116.33 247.44,-125.45 254.31,-126.82"/>
</g>
<!-- n_2 -->
<g id="node5" class="node">
<title>n_2</title>
<polygon fill="none" stroke="black" points="9,-5.38 9,-30.62 74,-30.62 74,-5.38 9,-5.38"/>
<text text-anchor="start" x="16" y="-16.07" font-family="Times New Roman,serif" font-weight="bold" font-size="9.00">Overweight I</text>
<polygon fill="none" stroke="black" points="8,-4.38 8,-31.62 75,-31.62 75,-4.38 8,-4.38"/>
</g>
<!-- n_2_3&#45;&gt;n_2 -->
<g id="edge4" class="edge">
<title>n_2_3&#45;&gt;n_2</title>
<path fill="none" stroke="black" d="M86.13,-79.29C78.71,-69.27 69.12,-56.31 60.73,-44.98"/>
<polygon fill="black" stroke="black" points="63.7,-43.11 54.94,-37.16 58.08,-47.28 63.7,-43.11"/>
</g>
<!-- n_3 -->
<g id="node6" class="node">
<title>n_3</title>
<polygon fill="none" stroke="black" points="121.5,-5.38 121.5,-30.62 189.5,-30.62 189.5,-5.38 121.5,-5.38"/>
<text text-anchor="start" x="128.5" y="-16.07" font-family="Times New Roman,serif" font-weight="bold" font-size="9.00">Overweight II</text>
<polygon fill="none" stroke="black" points="120.5,-4.38 120.5,-31.62 190.5,-31.62 190.5,-4.38 120.5,-4.38"/>
</g>
<!-- n_2_3&#45;&gt;n_3 -->
<g id="edge5" class="edge">
<title>n_2_3&#45;&gt;n_3</title>
<path fill="none" stroke="black" d="M110.87,-79.29C118.29,-69.27 127.88,-56.31 136.27,-44.98"/>
<polygon fill="black" stroke="black" points="138.92,-47.28 142.06,-37.16 133.3,-43.11 138.92,-47.28"/>
</g>
<!-- n_1 -->
<g id="node9" class="node">
<title>n_1</title>
<polygon fill="none" stroke="black" points="377.5,-84.38 377.5,-109.62 421.5,-109.62 421.5,-84.38 377.5,-84.38"/>
<text text-anchor="start" x="384.5" y="-95.08" font-family="Times New Roman,serif" font-weight="bold" font-size="9.00">Normal</text>
<polygon fill="none" stroke="black" points="376.5,-83.38 376.5,-110.62 422.5,-110.62 422.5,-83.38 376.5,-83.38"/>
</g>
<!-- n_1_5&#45;&gt;n_1 -->
<g id="edge8" class="edge">
<title>n_1_5&#45;&gt;n_1</title>
<path fill="none" stroke="black" d="M411.32,-161.03C409.41,-150.85 406.93,-137.65 404.74,-125.96"/>
<polygon fill="black" stroke="black" points="408.24,-125.61 402.96,-116.43 401.36,-126.9 408.24,-125.61"/>
</g>
<!-- n_5 -->
<g id="node10" class="node">
<title>n_5</title>
<polygon fill="none" stroke="black" points="469,-84.38 469,-109.62 522,-109.62 522,-84.38 469,-84.38"/>
<text text-anchor="start" x="476" y="-95.08" font-family="Times New Roman,serif" font-weight="bold" font-size="9.00">Obesity II</text>
<polygon fill="none" stroke="black" points="468,-83.38 468,-110.62 523,-110.62 523,-83.38 468,-83.38"/>
</g>
<!-- n_1_5&#45;&gt;n_5 -->
<g id="edge9" class="edge">
<title>n_1_5&#45;&gt;n_5</title>
<path fill="none" stroke="black" d="M431.68,-161.03C442.95,-149.9 457.89,-135.15 470.48,-122.71"/>
<polygon fill="black" stroke="black" points="472.61,-125.52 477.27,-116.01 467.7,-120.54 472.61,-125.52"/>
</g>
<!-- n_4 -->
<g id="node12" class="node">
<title>n_4</title>
<polygon fill="none" stroke="black" points="535.5,-166.38 535.5,-191.62 585.5,-191.62 585.5,-166.38 535.5,-166.38"/>
<text text-anchor="start" x="542.5" y="-177.07" font-family="Times New Roman,serif" font-weight="bold" font-size="9.00">Obesity I</text>
<polygon fill="none" stroke="black" points="534.5,-165.38 534.5,-192.62 586.5,-192.62 586.5,-165.38 534.5,-165.38"/>
</g>
<!-- n_4_6&#45;&gt;n_4 -->
<g id="edge11" class="edge">
<title>n_4_6&#45;&gt;n_4</title>
<path fill="none" stroke="black" d="M570.19,-250.63C568.53,-238.52 566.25,-221.94 564.32,-207.88"/>
<polygon fill="black" stroke="black" points="567.84,-207.75 563.01,-198.32 560.9,-208.7 567.84,-207.75"/>
</g>
<!-- n_6 -->
<g id="node13" class="node">
<title>n_6</title>
<polygon fill="none" stroke="black" points="632.5,-166.38 632.5,-191.62 688.5,-191.62 688.5,-166.38 632.5,-166.38"/>
<text text-anchor="start" x="639.5" y="-177.07" font-family="Times New Roman,serif" font-weight="bold" font-size="9.00">Obesity III</text>
<polygon fill="none" stroke="black" points="631.5,-165.38 631.5,-192.62 689.5,-192.62 689.5,-165.38 631.5,-165.38"/>
</g>
<!-- n_4_6&#45;&gt;n_6 -->
<g id="edge12" class="edge">
<title>n_4_6&#45;&gt;n_6</title>
<path fill="none" stroke="black" d="M589.47,-250.63C602.62,-237.56 621.02,-219.25 635.8,-204.56"/>
<polygon fill="black" stroke="black" points="637.89,-207.42 642.51,-197.89 632.95,-202.46 637.89,-207.42"/>
</g>
</g>
</svg>
