<?xml version="1.0" encoding="UTF-8" standalone="no"?>
<!DOCTYPE svg PUBLIC "-//W3C//DTD SVG 1.1//EN"
 "http://www.w3.org/Graphics/SVG/1.1/DTD/svg11.dtd">
<!-- Generated by graphviz version 10.0.1 (20240210.2158)
 -->
<!-- Title: ND Pages: 1 -->
<svg width="697pt" height="414pt"
 viewBox="0.00 0.00 697.00 414.00" xmlns="http://www.w3.org/2000/svg" xmlns:xlink="http://www.w3.org/1999/xlink">
<g id="graph0" class="graph" transform="scale(1 1) rotate(0) translate(4 410)">
<title>ND</title>
<polygon fill="white" stroke="none" points="-4,4 -4,-410 693,-410 693,4 -4,4"/>
<!-- n_0_1_2_3_4_5_6 -->
<g id="node1" class="node">
<title>n_0_1_2_3_4_5_6</title>
<polygon fill="none" stroke="black" points="390.38,-342 390.38,-401 478.62,-401 478.62,-342 390.38,-342"/>
<text text-anchor="start" x="397.38" y="-386.45" font-family="Times New Roman,serif" font-weight="bold" font-size="9.00">Insufficient weight</text>
<text text-anchor="start" x="419.5" y="-377.45" font-family="Times New Roman,serif" font-weight="bold" font-size="9.00">Normal</text>
<text text-anchor="start" x="407.5" y="-368.45" font-family="Times New Roman,serif" font-weight="bold" font-size="9.00">Overweight II</text>
<text text-anchor="start" x="416.5" y="-359.45" font-family="Times New Roman,serif" font-weight="bold" font-size="9.00">Obesity I</text>
<text text-anchor="start" x="415" y="-350.45" font-family="Times New Roman,serif" font-weight="bold" font-size="9.00">Obesity II</text>
<polygon fill="none" stroke="black" points="478.62,-342 478.62,-401 543.62,-401 543.62,-342 478.62,-342"/>
<text text-anchor="start" x="485.62" y="-372.95" font-family="Times New Roman,serif" font-weight="bold" font-size="9.00">Overweight I</text>
<text text-anchor="start" x="490.12" y="-363.95" font-family="Times New Roman,serif" font-weight="bold" font-size="9.00">Obesity III</text>
<polygon fill="none" stroke="black" points="389.38,-341 389.38,-402 544.62,-402 544.62,-341 389.38,-341"/>
</g>
<!-- n_0_1_3_4_5 -->
<g id="node2" class="node">
<title>n_0_1_3_4_5</title>
<polygon fill="none" stroke="black" points="307.38,-248 307.38,-289 395.62,-289 395.62,-248 307.38,-248"/>
<text text-anchor="start" x="314.38" y="-274.45" font-family="Times New Roman,serif" font-weight="bold" font-size="9.00">Insufficient weight</text>
<text text-anchor="start" x="336.5" y="-265.45" font-family="Times New Roman,serif" font-weight="bold" font-size="9.00">Normal</text>
<text text-anchor="start" x="324.5" y="-256.45" font-family="Times New Roman,serif" font-weight="bold" font-size="9.00">Overweight II</text>
<polygon fill="none" stroke="black" points="395.62,-248 395.62,-289 448.62,-289 448.62,-248 395.62,-248"/>
<text text-anchor="start" x="404.12" y="-269.95" font-family="Times New Roman,serif" font-weight="bold" font-size="9.00">Obesity I</text>
<text text-anchor="start" x="402.62" y="-260.95" font-family="Times New Roman,serif" font-weight="bold" font-size="9.00">Obesity II</text>
<polygon fill="none" stroke="black" points="306.38,-247 306.38,-290 449.62,-290 449.62,-247 306.38,-247"/>
</g>
<!-- n_0_1_2_3_4_5_6&#45;&gt;n_0_1_3_4_5 -->
<g id="edge1" class="edge">
<title>n_0_1_2_3_4_5_6&#45;&gt;n_0_1_3_4_5</title>
<path fill="none" stroke="black" d="M437.61,-337.15C427.78,-326 416.84,-313.58 407.04,-302.45"/>
<polygon fill="black" stroke="black" points="409.7,-300.18 400.47,-295 404.45,-304.81 409.7,-300.18"/>
</g>
<!-- n_2_6 -->
<g id="node11" class="node">
<title>n_2_6</title>
<polygon fill="none" stroke="black" points="495.5,-255.88 495.5,-281.12 560.5,-281.12 560.5,-255.88 495.5,-255.88"/>
<text text-anchor="start" x="502.5" y="-266.57" font-family="Times New Roman,serif" font-weight="bold" font-size="9.00">Overweight I</text>
<polygon fill="none" stroke="black" points="560.5,-255.88 560.5,-281.12 616.5,-281.12 616.5,-255.88 560.5,-255.88"/>
<text text-anchor="start" x="567.5" y="-266.57" font-family="Times New Roman,serif" font-weight="bold" font-size="9.00">Obesity III</text>
<polygon fill="none" stroke="black" points="494.5,-254.88 494.5,-282.12 617.5,-282.12 617.5,-254.88 494.5,-254.88"/>
</g>
<!-- n_0_1_2_3_4_5_6&#45;&gt;n_2_6 -->
<g id="edge10" class="edge">
<title>n_0_1_2_3_4_5_6&#45;&gt;n_2_6</title>
<path fill="none" stroke="black" d="M496.39,-337.15C508.57,-323.33 522.46,-307.57 533.76,-294.74"/>
<polygon fill="black" stroke="black" points="536.14,-297.33 540.12,-287.52 530.89,-292.7 536.14,-297.33"/>
</g>
<!-- n_0_1_3 -->
<g id="node3" class="node">
<title>n_0_1_3</title>
<polygon fill="none" stroke="black" points="134.88,-163 134.88,-195 202.88,-195 202.88,-163 134.88,-163"/>
<text text-anchor="start" x="153.88" y="-180.45" font-family="Times New Roman,serif" font-weight="bold" font-size="9.00">Normal</text>
<text text-anchor="start" x="141.88" y="-171.45" font-family="Times New Roman,serif" font-weight="bold" font-size="9.00">Overweight II</text>
<polygon fill="none" stroke="black" points="202.88,-163 202.88,-195 291.12,-195 291.12,-163 202.88,-163"/>
<text text-anchor="start" x="209.88" y="-177.07" font-family="Times New Roman,serif" font-weight="bold" font-size="9.00">Insufficient weight</text>
<polygon fill="none" stroke="black" points="133.88,-162 133.88,-196 292.12,-196 292.12,-162 133.88,-162"/>
</g>
<!-- n_0_1_3_4_5&#45;&gt;n_0_1_3 -->
<g id="edge2" class="edge">
<title>n_0_1_3_4_5&#45;&gt;n_0_1_3</title>
<path fill="none" stroke="black" d="M332.04,-243.13C309.79,-231.33 283.11,-217.18 260.65,-205.27"/>
<polygon fill="black" stroke="black" points="262.47,-202.27 251.99,-200.68 259.19,-208.46 262.47,-202.27"/>
</g>
<!-- n_4_5 -->
<g id="node8" class="node">
<title>n_4_5</title>
<polygon fill="none" stroke="black" points="338.5,-166.38 338.5,-191.62 388.5,-191.62 388.5,-166.38 338.5,-166.38"/>
<text text-anchor="start" x="345.5" y="-177.07" font-family="Times New Roman,serif" font-weight="bold" font-size="9.00">Obesity I</text>
<polygon fill="none" stroke="black" points="388.5,-166.38 388.5,-191.62 441.5,-191.62 441.5,-166.38 388.5,-166.38"/>
<text text-anchor="start" x="395.5" y="-177.07" font-family="Times New Roman,serif" font-weight="bold" font-size="9.00">Obesity II</text>
<polygon fill="none" stroke="black" points="337.5,-165.38 337.5,-192.62 442.5,-192.62 442.5,-165.38 337.5,-165.38"/>
</g>
<!-- n_0_1_3_4_5&#45;&gt;n_4_5 -->
<g id="edge7" class="edge">
<title>n_0_1_3_4_5&#45;&gt;n_4_5</title>
<path fill="none" stroke="black" d="M381.34,-243.13C382.85,-232.17 384.63,-219.18 386.18,-207.84"/>
<polygon fill="black" stroke="black" points="389.6,-208.65 387.49,-198.27 382.67,-207.7 389.6,-208.65"/>
</g>
<!-- n_1_3 -->
<g id="node4" class="node">
<title>n_1_3</title>
<polygon fill="none" stroke="black" points="26,-84.38 26,-109.62 70,-109.62 70,-84.38 26,-84.38"/>
<text text-anchor="start" x="33" y="-95.08" font-family="Times New Roman,serif" font-weight="bold" font-size="9.00">Normal</text>
<polygon fill="none" stroke="black" points="70,-84.38 70,-109.62 138,-109.62 138,-84.38 70,-84.38"/>
<text text-anchor="start" x="77" y="-95.08" font-family="Times New Roman,serif" font-weight="bold" font-size="9.00">Overweight II</text>
<polygon fill="none" stroke="black" points="25,-83.38 25,-110.62 139,-110.62 139,-83.38 25,-83.38"/>
</g>
<!-- n_0_1_3&#45;&gt;n_1_3 -->
<g id="edge3" class="edge">
<title>n_0_1_3&#45;&gt;n_1_3</title>
<path fill="none" stroke="black" d="M180.28,-158.02C161.7,-146.67 138.36,-132.42 119.1,-120.66"/>
<polygon fill="black" stroke="black" points="121.09,-117.77 110.73,-115.55 117.44,-123.75 121.09,-117.77"/>
</g>
<!-- n_0 -->
<g id="node7" class="node">
<title>n_0</title>
<polygon fill="none" stroke="black" points="184.88,-84.38 184.88,-109.62 273.12,-109.62 273.12,-84.38 184.88,-84.38"/>
<text text-anchor="start" x="191.88" y="-95.08" font-family="Times New Roman,serif" font-weight="bold" font-size="9.00">Insufficient weight</text>
<polygon fill="none" stroke="black" points="183.88,-83.38 183.88,-110.62 274.12,-110.62 274.12,-83.38 183.88,-83.38"/>
</g>
<!-- n_0_1_3&#45;&gt;n_0 -->
<g id="edge6" class="edge">
<title>n_0_1_3&#45;&gt;n_0</title>
<path fill="none" stroke="black" d="M216.96,-158.22C218.89,-148.54 221.26,-136.72 223.38,-126.11"/>
<polygon fill="black" stroke="black" points="226.81,-126.82 225.33,-116.33 219.94,-125.45 226.81,-126.82"/>
</g>
<!-- n_1 -->
<g id="node5" class="node">
<title>n_1</title>
<polygon fill="none" stroke="black" points="9,-5.38 9,-30.62 53,-30.62 53,-5.38 9,-5.38"/>
<text text-anchor="start" x="16" y="-16.07" font-family="Times New Roman,serif" font-weight="bold" font-size="9.00">Normal</text>
<polygon fill="none" stroke="black" points="8,-4.38 8,-31.62 54,-31.62 54,-4.38 8,-4.38"/>
</g>
<!-- n_1_3&#45;&gt;n_1 -->
<g id="edge4" class="edge">
<title>n_1_3&#45;&gt;n_1</title>
<path fill="none" stroke="black" d="M70.93,-79.29C64.36,-69.37 55.89,-56.57 48.43,-45.32"/>
<polygon fill="black" stroke="black" points="51.5,-43.61 43.06,-37.2 45.66,-47.47 51.5,-43.61"/>
</g>
<!-- n_3 -->
<g id="node6" class="node">
<title>n_3</title>
<polygon fill="none" stroke="black" points="100,-5.38 100,-30.62 168,-30.62 168,-5.38 100,-5.38"/>
<text text-anchor="start" x="107" y="-16.07" font-family="Times New Roman,serif" font-weight="bold" font-size="9.00">Overweight II</text>
<polygon fill="none" stroke="black" points="99,-4.38 99,-31.62 169,-31.62 169,-4.38 99,-4.38"/>
</g>
<!-- n_1_3&#45;&gt;n_3 -->
<g id="edge5" class="edge">
<title>n_1_3&#45;&gt;n_3</title>
<path fill="none" stroke="black" d="M93.28,-79.29C99.98,-69.37 108.63,-56.57 116.23,-45.32"/>
<polygon fill="black" stroke="black" points="119.02,-47.44 121.71,-37.2 113.22,-43.52 119.02,-47.44"/>
</g>
<!-- n_4 -->
<g id="node9" class="node">
<title>n_4</title>
<polygon fill="none" stroke="black" points="350,-84.38 350,-109.62 400,-109.62 400,-84.38 350,-84.38"/>
<text text-anchor="start" x="357" y="-95.08" font-family="Times New Roman,serif" font-weight="bold" font-size="9.00">Obesity I</text>
<polygon fill="none" stroke="black" points="349,-83.38 349,-110.62 401,-110.62 401,-83.38 349,-83.38"/>
</g>
<!-- n_4_5&#45;&gt;n_4 -->
<g id="edge8" class="edge">
<title>n_4_5&#45;&gt;n_4</title>
<path fill="none" stroke="black" d="M386.82,-161.03C384.91,-150.85 382.43,-137.65 380.24,-125.96"/>
<polygon fill="black" stroke="black" points="383.74,-125.61 378.46,-116.43 376.86,-126.9 383.74,-125.61"/>
</g>
<!-- n_5 -->
<g id="node10" class="node">
<title>n_5</title>
<polygon fill="none" stroke="black" points="447.5,-84.38 447.5,-109.62 500.5,-109.62 500.5,-84.38 447.5,-84.38"/>
<text text-anchor="start" x="454.5" y="-95.08" font-family="Times New Roman,serif" font-weight="bold" font-size="9.00">Obesity II</text>
<polygon fill="none" stroke="black" points="446.5,-83.38 446.5,-110.62 501.5,-110.62 501.5,-83.38 446.5,-83.38"/>
</g>
<!-- n_4_5&#45;&gt;n_5 -->
<g id="edge9" class="edge">
<title>n_4_5&#45;&gt;n_5</title>
<path fill="none" stroke="black" d="M407.81,-161.03C419.51,-149.9 435,-135.15 448.05,-122.71"/>
<polygon fill="black" stroke="black" points="450.29,-125.42 455.12,-115.99 445.46,-120.35 450.29,-125.42"/>
</g>
<!-- n_2 -->
<g id="node12" class="node">
<title>n_2</title>
<polygon fill="none" stroke="black" points="511.5,-166.38 511.5,-191.62 576.5,-191.62 576.5,-166.38 511.5,-166.38"/>
<text text-anchor="start" x="518.5" y="-177.07" font-family="Times New Roman,serif" font-weight="bold" font-size="9.00">Overweight I</text>
<polygon fill="none" stroke="black" points="510.5,-165.38 510.5,-192.62 577.5,-192.62 577.5,-165.38 510.5,-165.38"/>
</g>
<!-- n_2_6&#45;&gt;n_2 -->
<g id="edge11" class="edge">
<title>n_2_6&#45;&gt;n_2</title>
<path fill="none" stroke="black" d="M553.69,-250.63C552.03,-238.52 549.75,-221.94 547.82,-207.88"/>
<polygon fill="black" stroke="black" points="551.34,-207.75 546.51,-198.32 544.4,-208.7 551.34,-207.75"/>
</g>
<!-- n_6 -->
<g id="node13" class="node">
<title>n_6</title>
<polygon fill="none" stroke="black" points="624,-166.38 624,-191.62 680,-191.62 680,-166.38 624,-166.38"/>
<text text-anchor="start" x="631" y="-177.07" font-family="Times New Roman,serif" font-weight="bold" font-size="9.00">Obesity III</text>
<polygon fill="none" stroke="black" points="623,-165.38 623,-192.62 681,-192.62 681,-165.38 623,-165.38"/>
</g>
<!-- n_2_6&#45;&gt;n_6 -->
<g id="edge12" class="edge">
<title>n_2_6&#45;&gt;n_6</title>
<path fill="none" stroke="black" d="M574.51,-250.63C588.85,-237.56 608.93,-219.25 625.06,-204.56"/>
<polygon fill="black" stroke="black" points="627.4,-207.16 632.43,-197.84 622.68,-201.99 627.4,-207.16"/>
</g>
</g>
</svg>
