<?xml version="1.0" encoding="UTF-8" standalone="no"?>
<!DOCTYPE svg PUBLIC "-//W3C//DTD SVG 1.1//EN"
 "http://www.w3.org/Graphics/SVG/1.1/DTD/svg11.dtd">
<!-- Generated by graphviz version 10.0.1 (20240210.2158)
 -->
<!-- Title: ND Pages: 1 -->
<svg width="663pt" height="517pt"
 viewBox="0.00 0.00 663.00 517.00" xmlns="http://www.w3.org/2000/svg" xmlns:xlink="http://www.w3.org/1999/xlink">
<g id="graph0" class="graph" transform="scale(1 1) rotate(0) translate(4 513)">
<title>ND</title>
<polygon fill="white" stroke="none" points="-4,4 -4,-513 659,-513 659,4 -4,4"/>
<!-- n_0_1_2_3_4_5_6 -->
<g id="node1" class="node">
<title>n_0_1_2_3_4_5_6</title>
<polygon fill="none" stroke="black" points="359.88,-445 359.88,-504 448.12,-504 448.12,-445 359.88,-445"/>
<text text-anchor="start" x="366.88" y="-489.45" font-family="Times New Roman,serif" font-weight="bold" font-size="9.00">Insufficient weight</text>
<text text-anchor="start" x="389" y="-480.45" font-family="Times New Roman,serif" font-weight="bold" font-size="9.00">Normal</text>
<text text-anchor="start" x="378.5" y="-471.45" font-family="Times New Roman,serif" font-weight="bold" font-size="9.00">Overweight I</text>
<text text-anchor="start" x="386" y="-462.45" font-family="Times New Roman,serif" font-weight="bold" font-size="9.00">Obesity I</text>
<text text-anchor="start" x="384.5" y="-453.45" font-family="Times New Roman,serif" font-weight="bold" font-size="9.00">Obesity II</text>
<polygon fill="none" stroke="black" points="448.12,-445 448.12,-504 516.12,-504 516.12,-445 448.12,-445"/>
<text text-anchor="start" x="455.12" y="-475.95" font-family="Times New Roman,serif" font-weight="bold" font-size="9.00">Overweight II</text>
<text text-anchor="start" x="461.12" y="-466.95" font-family="Times New Roman,serif" font-weight="bold" font-size="9.00">Obesity III</text>
<polygon fill="none" stroke="black" points="358.88,-444 358.88,-505 517.12,-505 517.12,-444 358.88,-444"/>
</g>
<!-- n_0_1_2_4_5 -->
<g id="node2" class="node">
<title>n_0_1_2_4_5</title>
<polygon fill="none" stroke="black" points="279.88,-342 279.88,-392 368.12,-392 368.12,-342 279.88,-342"/>
<text text-anchor="start" x="286.88" y="-377.45" font-family="Times New Roman,serif" font-weight="bold" font-size="9.00">Insufficient weight</text>
<text text-anchor="start" x="309" y="-368.45" font-family="Times New Roman,serif" font-weight="bold" font-size="9.00">Normal</text>
<text text-anchor="start" x="298.5" y="-359.45" font-family="Times New Roman,serif" font-weight="bold" font-size="9.00">Overweight I</text>
<text text-anchor="start" x="304.5" y="-350.45" font-family="Times New Roman,serif" font-weight="bold" font-size="9.00">Obesity II</text>
<polygon fill="none" stroke="black" points="368.12,-342 368.12,-392 418.12,-392 418.12,-342 368.12,-342"/>
<text text-anchor="start" x="375.12" y="-365.07" font-family="Times New Roman,serif" font-weight="bold" font-size="9.00">Obesity I</text>
<polygon fill="none" stroke="black" points="278.88,-341 278.88,-393 419.12,-393 419.12,-341 278.88,-341"/>
</g>
<!-- n_0_1_2_3_4_5_6&#45;&gt;n_0_1_2_4_5 -->
<g id="edge1" class="edge">
<title>n_0_1_2_3_4_5_6&#45;&gt;n_0_1_2_4_5</title>
<path fill="none" stroke="black" d="M409.84,-440.12C400.6,-429.16 390.26,-416.91 380.77,-405.66"/>
<polygon fill="black" stroke="black" points="383.48,-403.44 374.35,-398.05 378.13,-407.96 383.48,-403.44"/>
</g>
<!-- n_3_6 -->
<g id="node11" class="node">
<title>n_3_6</title>
<polygon fill="none" stroke="black" points="465,-354.38 465,-379.62 533,-379.62 533,-354.38 465,-354.38"/>
<text text-anchor="start" x="472" y="-365.07" font-family="Times New Roman,serif" font-weight="bold" font-size="9.00">Overweight II</text>
<polygon fill="none" stroke="black" points="533,-354.38 533,-379.62 589,-379.62 589,-354.38 533,-354.38"/>
<text text-anchor="start" x="540" y="-365.07" font-family="Times New Roman,serif" font-weight="bold" font-size="9.00">Obesity III</text>
<polygon fill="none" stroke="black" points="464,-353.38 464,-380.62 590,-380.62 590,-353.38 464,-353.38"/>
</g>
<!-- n_0_1_2_3_4_5_6&#45;&gt;n_3_6 -->
<g id="edge10" class="edge">
<title>n_0_1_2_3_4_5_6&#45;&gt;n_3_6</title>
<path fill="none" stroke="black" d="M466.16,-440.12C478.86,-425.06 493.62,-407.57 505.42,-393.58"/>
<polygon fill="black" stroke="black" points="507.95,-396.01 511.72,-386.11 502.6,-391.49 507.95,-396.01"/>
</g>
<!-- n_0_1_2_5 -->
<g id="node3" class="node">
<title>n_0_1_2_5</title>
<polygon fill="none" stroke="black" points="141.38,-248 141.38,-289 206.38,-289 206.38,-248 141.38,-248"/>
<text text-anchor="start" x="158.88" y="-274.45" font-family="Times New Roman,serif" font-weight="bold" font-size="9.00">Normal</text>
<text text-anchor="start" x="148.38" y="-265.45" font-family="Times New Roman,serif" font-weight="bold" font-size="9.00">Overweight I</text>
<text text-anchor="start" x="154.38" y="-256.45" font-family="Times New Roman,serif" font-weight="bold" font-size="9.00">Obesity II</text>
<polygon fill="none" stroke="black" points="206.38,-248 206.38,-289 294.62,-289 294.62,-248 206.38,-248"/>
<text text-anchor="start" x="213.38" y="-266.57" font-family="Times New Roman,serif" font-weight="bold" font-size="9.00">Insufficient weight</text>
<polygon fill="none" stroke="black" points="140.38,-247 140.38,-290 295.62,-290 295.62,-247 140.38,-247"/>
</g>
<!-- n_0_1_2_4_5&#45;&gt;n_0_1_2_5 -->
<g id="edge2" class="edge">
<title>n_0_1_2_4_5&#45;&gt;n_0_1_2_5</title>
<path fill="none" stroke="black" d="M309.7,-337.05C294.07,-325.54 276.07,-312.27 260.17,-300.56"/>
<polygon fill="black" stroke="black" points="262.43,-297.89 252.31,-294.77 258.28,-303.52 262.43,-297.89"/>
</g>
<!-- n_4 -->
<g id="node10" class="node">
<title>n_4</title>
<polygon fill="none" stroke="black" points="342,-255.88 342,-281.12 392,-281.12 392,-255.88 342,-255.88"/>
<text text-anchor="start" x="349" y="-266.57" font-family="Times New Roman,serif" font-weight="bold" font-size="9.00">Obesity I</text>
<polygon fill="none" stroke="black" points="341,-254.88 341,-282.12 393,-282.12 393,-254.88 341,-254.88"/>
</g>
<!-- n_0_1_2_4_5&#45;&gt;n_4 -->
<g id="edge9" class="edge">
<title>n_0_1_2_4_5&#45;&gt;n_4</title>
<path fill="none" stroke="black" d="M354.4,-337.05C356.74,-324.51 359.47,-309.89 361.78,-297.47"/>
<polygon fill="black" stroke="black" points="365.18,-298.33 363.58,-287.85 358.3,-297.04 365.18,-298.33"/>
</g>
<!-- n_1_2_5 -->
<g id="node4" class="node">
<title>n_1_2_5</title>
<polygon fill="none" stroke="black" points="84,-163 84,-195 137,-195 137,-163 84,-163"/>
<text text-anchor="start" x="95.5" y="-180.45" font-family="Times New Roman,serif" font-weight="bold" font-size="9.00">Normal</text>
<text text-anchor="start" x="91" y="-171.45" font-family="Times New Roman,serif" font-weight="bold" font-size="9.00">Obesity II</text>
<polygon fill="none" stroke="black" points="137,-163 137,-195 202,-195 202,-163 137,-163"/>
<text text-anchor="start" x="144" y="-177.07" font-family="Times New Roman,serif" font-weight="bold" font-size="9.00">Overweight I</text>
<polygon fill="none" stroke="black" points="83,-162 83,-196 203,-196 203,-162 83,-162"/>
</g>
<!-- n_0_1_2_5&#45;&gt;n_1_2_5 -->
<g id="edge3" class="edge">
<title>n_0_1_2_5&#45;&gt;n_1_2_5</title>
<path fill="none" stroke="black" d="M197.11,-243.13C187.87,-232.35 176.96,-219.62 167.35,-208.41"/>
<polygon fill="black" stroke="black" points="170.14,-206.29 160.98,-200.98 164.83,-210.85 170.14,-206.29"/>
</g>
<!-- n_0 -->
<g id="node9" class="node">
<title>n_0</title>
<polygon fill="none" stroke="black" points="248.88,-166.38 248.88,-191.62 337.12,-191.62 337.12,-166.38 248.88,-166.38"/>
<text text-anchor="start" x="255.88" y="-177.07" font-family="Times New Roman,serif" font-weight="bold" font-size="9.00">Insufficient weight</text>
<polygon fill="none" stroke="black" points="247.88,-165.38 247.88,-192.62 338.12,-192.62 338.12,-165.38 247.88,-165.38"/>
</g>
<!-- n_0_1_2_5&#45;&gt;n_0 -->
<g id="edge8" class="edge">
<title>n_0_1_2_5&#45;&gt;n_0</title>
<path fill="none" stroke="black" d="M238.89,-243.13C248.98,-231.36 261.07,-217.25 271.27,-205.36"/>
<polygon fill="black" stroke="black" points="273.79,-207.79 277.64,-197.92 268.47,-203.23 273.79,-207.79"/>
</g>
<!-- n_1_5 -->
<g id="node5" class="node">
<title>n_1_5</title>
<polygon fill="none" stroke="black" points="30.5,-84.38 30.5,-109.62 74.5,-109.62 74.5,-84.38 30.5,-84.38"/>
<text text-anchor="start" x="37.5" y="-95.08" font-family="Times New Roman,serif" font-weight="bold" font-size="9.00">Normal</text>
<polygon fill="none" stroke="black" points="74.5,-84.38 74.5,-109.62 127.5,-109.62 127.5,-84.38 74.5,-84.38"/>
<text text-anchor="start" x="81.5" y="-95.08" font-family="Times New Roman,serif" font-weight="bold" font-size="9.00">Obesity II</text>
<polygon fill="none" stroke="black" points="29.5,-83.38 29.5,-110.62 128.5,-110.62 128.5,-83.38 29.5,-83.38"/>
</g>
<!-- n_1_2_5&#45;&gt;n_1_5 -->
<g id="edge4" class="edge">
<title>n_1_2_5&#45;&gt;n_1_5</title>
<path fill="none" stroke="black" d="M127.18,-158.22C118.85,-147.81 108.54,-134.92 99.59,-123.74"/>
<polygon fill="black" stroke="black" points="102.4,-121.65 93.42,-116.03 96.93,-126.02 102.4,-121.65"/>
</g>
<!-- n_2 -->
<g id="node8" class="node">
<title>n_2</title>
<polygon fill="none" stroke="black" points="174.5,-84.38 174.5,-109.62 239.5,-109.62 239.5,-84.38 174.5,-84.38"/>
<text text-anchor="start" x="181.5" y="-95.08" font-family="Times New Roman,serif" font-weight="bold" font-size="9.00">Overweight I</text>
<polygon fill="none" stroke="black" points="173.5,-83.38 173.5,-110.62 240.5,-110.62 240.5,-83.38 173.5,-83.38"/>
</g>
<!-- n_1_2_5&#45;&gt;n_2 -->
<g id="edge7" class="edge">
<title>n_1_2_5&#45;&gt;n_2</title>
<path fill="none" stroke="black" d="M158.82,-158.22C167.15,-147.81 177.46,-134.92 186.41,-123.74"/>
<polygon fill="black" stroke="black" points="189.07,-126.02 192.58,-116.03 183.6,-121.65 189.07,-126.02"/>
</g>
<!-- n_1 -->
<g id="node6" class="node">
<title>n_1</title>
<polygon fill="none" stroke="black" points="9,-5.38 9,-30.62 53,-30.62 53,-5.38 9,-5.38"/>
<text text-anchor="start" x="16" y="-16.07" font-family="Times New Roman,serif" font-weight="bold" font-size="9.00">Normal</text>
<polygon fill="none" stroke="black" points="8,-4.38 8,-31.62 54,-31.62 54,-4.38 8,-4.38"/>
</g>
<!-- n_1_5&#45;&gt;n_1 -->
<g id="edge5" class="edge">
<title>n_1_5&#45;&gt;n_1</title>
<path fill="none" stroke="black" d="M68.58,-79.29C62.46,-69.47 54.58,-56.83 47.62,-45.66"/>
<polygon fill="black" stroke="black" points="50.62,-43.86 42.36,-37.23 44.68,-47.56 50.62,-43.86"/>
</g>
<!-- n_5 -->
<g id="node7" class="node">
<title>n_5</title>
<polygon fill="none" stroke="black" points="100.5,-5.38 100.5,-30.62 153.5,-30.62 153.5,-5.38 100.5,-5.38"/>
<text text-anchor="start" x="107.5" y="-16.07" font-family="Times New Roman,serif" font-weight="bold" font-size="9.00">Obesity II</text>
<polygon fill="none" stroke="black" points="99.5,-4.38 99.5,-31.62 154.5,-31.62 154.5,-4.38 99.5,-4.38"/>
</g>
<!-- n_1_5&#45;&gt;n_5 -->
<g id="edge6" class="edge">
<title>n_1_5&#45;&gt;n_5</title>
<path fill="none" stroke="black" d="M89.42,-79.29C95.54,-69.47 103.42,-56.83 110.38,-45.66"/>
<polygon fill="black" stroke="black" points="113.32,-47.56 115.64,-37.23 107.38,-43.86 113.32,-47.56"/>
</g>
<!-- n_3 -->
<g id="node12" class="node">
<title>n_3</title>
<polygon fill="none" stroke="black" points="475,-255.88 475,-281.12 543,-281.12 543,-255.88 475,-255.88"/>
<text text-anchor="start" x="482" y="-266.57" font-family="Times New Roman,serif" font-weight="bold" font-size="9.00">Overweight II</text>
<polygon fill="none" stroke="black" points="474,-254.88 474,-282.12 544,-282.12 544,-254.88 474,-254.88"/>
</g>
<!-- n_3_6&#45;&gt;n_3 -->
<g id="edge11" class="edge">
<title>n_3_6&#45;&gt;n_3</title>
<path fill="none" stroke="black" d="M523.86,-349.19C521.2,-334.89 517.31,-314.06 514.18,-297.28"/>
<polygon fill="black" stroke="black" points="517.71,-297.12 512.44,-287.93 510.83,-298.4 517.71,-297.12"/>
</g>
<!-- n_6 -->
<g id="node13" class="node">
<title>n_6</title>
<polygon fill="none" stroke="black" points="590,-255.88 590,-281.12 646,-281.12 646,-255.88 590,-255.88"/>
<text text-anchor="start" x="597" y="-266.57" font-family="Times New Roman,serif" font-weight="bold" font-size="9.00">Obesity III</text>
<polygon fill="none" stroke="black" points="589,-254.88 589,-282.12 647,-282.12 647,-254.88 589,-254.88"/>
</g>
<!-- n_3_6&#45;&gt;n_6 -->
<g id="edge12" class="edge">
<title>n_3_6&#45;&gt;n_6</title>
<path fill="none" stroke="black" d="M542.85,-349.19C557.12,-334.06 578.27,-311.63 594.5,-294.42"/>
<polygon fill="black" stroke="black" points="596.67,-297.22 600.99,-287.54 591.58,-292.42 596.67,-297.22"/>
</g>
</g>
</svg>
