<?xml version="1.0" encoding="UTF-8" standalone="no"?>
<!DOCTYPE svg PUBLIC "-//W3C//DTD SVG 1.1//EN"
 "http://www.w3.org/Graphics/SVG/1.1/DTD/svg11.dtd">
<!-- Generated by graphviz version 10.0.1 (20240210.2158)
 -->
<!-- Title: ND Pages: 1 -->
<svg width="625pt" height="405pt"
 viewBox="0.00 0.00 624.50 405.00" xmlns="http://www.w3.org/2000/svg" xmlns:xlink="http://www.w3.org/1999/xlink">
<g id="graph0" class="graph" transform="scale(1 1) rotate(0) translate(4 401)">
<title>ND</title>
<polygon fill="white" stroke="none" points="-4,4 -4,-401 620.5,-401 620.5,4 -4,4"/>
<!-- n_0_1_2_3_4_5_6 -->
<g id="node1" class="node">
<title>n_0_1_2_3_4_5_6</title>
<polygon fill="none" stroke="black" points="284.38,-342 284.38,-392 372.62,-392 372.62,-342 284.38,-342"/>
<text text-anchor="start" x="291.38" y="-377.45" font-family="Times New Roman,serif" font-weight="bold" font-size="9.00">Insufficient weight</text>
<text text-anchor="start" x="313.5" y="-368.45" font-family="Times New Roman,serif" font-weight="bold" font-size="9.00">Normal</text>
<text text-anchor="start" x="303" y="-359.45" font-family="Times New Roman,serif" font-weight="bold" font-size="9.00">Overweight I</text>
<text text-anchor="start" x="310.5" y="-350.45" font-family="Times New Roman,serif" font-weight="bold" font-size="9.00">Obesity I</text>
<polygon fill="none" stroke="black" points="372.62,-342 372.62,-392 440.62,-392 440.62,-342 372.62,-342"/>
<text text-anchor="start" x="379.62" y="-372.95" font-family="Times New Roman,serif" font-weight="bold" font-size="9.00">Overweight II</text>
<text text-anchor="start" x="387.12" y="-363.95" font-family="Times New Roman,serif" font-weight="bold" font-size="9.00">Obesity II</text>
<text text-anchor="start" x="385.62" y="-354.95" font-family="Times New Roman,serif" font-weight="bold" font-size="9.00">Obesity III</text>
<polygon fill="none" stroke="black" points="283.38,-341 283.38,-393 441.62,-393 441.62,-341 283.38,-341"/>
</g>
<!-- n_0_1_2_4 -->
<g id="node2" class="node">
<title>n_0_1_2_4</title>
<polygon fill="none" stroke="black" points="209.38,-248 209.38,-289 297.62,-289 297.62,-248 209.38,-248"/>
<text text-anchor="start" x="216.38" y="-274.45" font-family="Times New Roman,serif" font-weight="bold" font-size="9.00">Insufficient weight</text>
<text text-anchor="start" x="228" y="-265.45" font-family="Times New Roman,serif" font-weight="bold" font-size="9.00">Overweight I</text>
<text text-anchor="start" x="235.5" y="-256.45" font-family="Times New Roman,serif" font-weight="bold" font-size="9.00">Obesity I</text>
<polygon fill="none" stroke="black" points="297.62,-248 297.62,-289 341.62,-289 341.62,-248 297.62,-248"/>
<text text-anchor="start" x="304.62" y="-266.57" font-family="Times New Roman,serif" font-weight="bold" font-size="9.00">Normal</text>
<polygon fill="none" stroke="black" points="208.38,-247 208.38,-290 342.62,-290 342.62,-247 208.38,-247"/>
</g>
<!-- n_0_1_2_3_4_5_6&#45;&gt;n_0_1_2_4 -->
<g id="edge1" class="edge">
<title>n_0_1_2_3_4_5_6&#45;&gt;n_0_1_2_4</title>
<path fill="none" stroke="black" d="M336.4,-337.05C326.51,-326.08 315.18,-313.51 305,-302.22"/>
<polygon fill="black" stroke="black" points="307.78,-300.08 298.49,-295 302.58,-304.77 307.78,-300.08"/>
</g>
<!-- n_3_5_6 -->
<g id="node9" class="node">
<title>n_3_5_6</title>
<polygon fill="none" stroke="black" points="388.5,-252.5 388.5,-284.5 444.5,-284.5 444.5,-252.5 388.5,-252.5"/>
<text text-anchor="start" x="397" y="-269.95" font-family="Times New Roman,serif" font-weight="bold" font-size="9.00">Obesity II</text>
<text text-anchor="start" x="395.5" y="-260.95" font-family="Times New Roman,serif" font-weight="bold" font-size="9.00">Obesity III</text>
<polygon fill="none" stroke="black" points="444.5,-252.5 444.5,-284.5 512.5,-284.5 512.5,-252.5 444.5,-252.5"/>
<text text-anchor="start" x="451.5" y="-266.57" font-family="Times New Roman,serif" font-weight="bold" font-size="9.00">Overweight II</text>
<polygon fill="none" stroke="black" points="387.5,-251.5 387.5,-285.5 513.5,-285.5 513.5,-251.5 387.5,-251.5"/>
</g>
<!-- n_0_1_2_3_4_5_6&#45;&gt;n_3_5_6 -->
<g id="edge8" class="edge">
<title>n_0_1_2_3_4_5_6&#45;&gt;n_3_5_6</title>
<path fill="none" stroke="black" d="M388.9,-337.05C400.34,-324.51 413.67,-309.89 425,-297.46"/>
<polygon fill="black" stroke="black" points="427.31,-300.12 431.46,-290.38 422.14,-295.41 427.31,-300.12"/>
</g>
<!-- n_0_2_4 -->
<g id="node3" class="node">
<title>n_0_2_4</title>
<polygon fill="none" stroke="black" points="65.88,-163 65.88,-195 130.88,-195 130.88,-163 65.88,-163"/>
<text text-anchor="start" x="72.88" y="-180.45" font-family="Times New Roman,serif" font-weight="bold" font-size="9.00">Overweight I</text>
<text text-anchor="start" x="80.38" y="-171.45" font-family="Times New Roman,serif" font-weight="bold" font-size="9.00">Obesity I</text>
<polygon fill="none" stroke="black" points="130.88,-163 130.88,-195 219.12,-195 219.12,-163 130.88,-163"/>
<text text-anchor="start" x="137.88" y="-177.07" font-family="Times New Roman,serif" font-weight="bold" font-size="9.00">Insufficient weight</text>
<polygon fill="none" stroke="black" points="64.88,-162 64.88,-196 220.12,-196 220.12,-162 64.88,-162"/>
</g>
<!-- n_0_1_2_4&#45;&gt;n_0_2_4 -->
<g id="edge2" class="edge">
<title>n_0_1_2_4&#45;&gt;n_0_2_4</title>
<path fill="none" stroke="black" d="M238.45,-243.13C220.94,-231.61 200.02,-217.84 182.18,-206.11"/>
<polygon fill="black" stroke="black" points="184.18,-203.23 173.9,-200.66 180.33,-209.08 184.18,-203.23"/>
</g>
<!-- n_1 -->
<g id="node8" class="node">
<title>n_1</title>
<polygon fill="none" stroke="black" points="266.5,-166.38 266.5,-191.62 310.5,-191.62 310.5,-166.38 266.5,-166.38"/>
<text text-anchor="start" x="273.5" y="-177.07" font-family="Times New Roman,serif" font-weight="bold" font-size="9.00">Normal</text>
<polygon fill="none" stroke="black" points="265.5,-165.38 265.5,-192.62 311.5,-192.62 311.5,-165.38 265.5,-165.38"/>
</g>
<!-- n_0_1_2_4&#45;&gt;n_1 -->
<g id="edge7" class="edge">
<title>n_0_1_2_4&#45;&gt;n_1</title>
<path fill="none" stroke="black" d="M279.12,-243.13C280.75,-232.17 282.68,-219.18 284.36,-207.84"/>
<polygon fill="black" stroke="black" points="287.78,-208.67 285.79,-198.27 280.85,-207.64 287.78,-208.67"/>
</g>
<!-- n_2_4 -->
<g id="node4" class="node">
<title>n_2_4</title>
<polygon fill="none" stroke="black" points="36,-84.38 36,-109.62 101,-109.62 101,-84.38 36,-84.38"/>
<text text-anchor="start" x="43" y="-95.08" font-family="Times New Roman,serif" font-weight="bold" font-size="9.00">Overweight I</text>
<polygon fill="none" stroke="black" points="101,-84.38 101,-109.62 151,-109.62 151,-84.38 101,-84.38"/>
<text text-anchor="start" x="108" y="-95.08" font-family="Times New Roman,serif" font-weight="bold" font-size="9.00">Obesity I</text>
<polygon fill="none" stroke="black" points="35,-83.38 35,-110.62 152,-110.62 152,-83.38 35,-83.38"/>
</g>
<!-- n_0_2_4&#45;&gt;n_2_4 -->
<g id="edge3" class="edge">
<title>n_0_2_4&#45;&gt;n_2_4</title>
<path fill="none" stroke="black" d="M130.39,-158.22C124.14,-148.02 116.43,-135.44 109.68,-124.41"/>
<polygon fill="black" stroke="black" points="112.82,-122.83 104.61,-116.13 106.85,-126.49 112.82,-122.83"/>
</g>
<!-- n_0 -->
<g id="node7" class="node">
<title>n_0</title>
<polygon fill="none" stroke="black" points="198.38,-84.38 198.38,-109.62 286.62,-109.62 286.62,-84.38 198.38,-84.38"/>
<text text-anchor="start" x="205.38" y="-95.08" font-family="Times New Roman,serif" font-weight="bold" font-size="9.00">Insufficient weight</text>
<polygon fill="none" stroke="black" points="197.38,-83.38 197.38,-110.62 287.62,-110.62 287.62,-83.38 197.38,-83.38"/>
</g>
<!-- n_0_2_4&#45;&gt;n_0 -->
<g id="edge6" class="edge">
<title>n_0_2_4&#45;&gt;n_0</title>
<path fill="none" stroke="black" d="M167.48,-158.02C181.27,-146.98 198.5,-133.2 212.96,-121.63"/>
<polygon fill="black" stroke="black" points="214.75,-124.68 220.37,-115.7 210.37,-119.22 214.75,-124.68"/>
</g>
<!-- n_2 -->
<g id="node5" class="node">
<title>n_2</title>
<polygon fill="none" stroke="black" points="9,-5.38 9,-30.62 74,-30.62 74,-5.38 9,-5.38"/>
<text text-anchor="start" x="16" y="-16.07" font-family="Times New Roman,serif" font-weight="bold" font-size="9.00">Overweight I</text>
<polygon fill="none" stroke="black" points="8,-4.38 8,-31.62 75,-31.62 75,-4.38 8,-4.38"/>
</g>
<!-- n_2_4&#45;&gt;n_2 -->
<g id="edge4" class="edge">
<title>n_2_4&#45;&gt;n_2</title>
<path fill="none" stroke="black" d="M82.22,-79.29C75.52,-69.37 66.87,-56.57 59.27,-45.32"/>
<polygon fill="black" stroke="black" points="62.28,-43.52 53.79,-37.2 56.48,-47.44 62.28,-43.52"/>
</g>
<!-- n_4 -->
<g id="node6" class="node">
<title>n_4</title>
<polygon fill="none" stroke="black" points="121.5,-5.38 121.5,-30.62 171.5,-30.62 171.5,-5.38 121.5,-5.38"/>
<text text-anchor="start" x="128.5" y="-16.07" font-family="Times New Roman,serif" font-weight="bold" font-size="9.00">Obesity I</text>
<polygon fill="none" stroke="black" points="120.5,-4.38 120.5,-31.62 172.5,-31.62 172.5,-4.38 120.5,-4.38"/>
</g>
<!-- n_2_4&#45;&gt;n_4 -->
<g id="edge5" class="edge">
<title>n_2_4&#45;&gt;n_4</title>
<path fill="none" stroke="black" d="M105,-79.29C111.83,-69.37 120.64,-56.57 128.38,-45.32"/>
<polygon fill="black" stroke="black" points="131.19,-47.41 133.98,-37.19 125.43,-43.44 131.19,-47.41"/>
</g>
<!-- n_5_6 -->
<g id="node10" class="node">
<title>n_5_6</title>
<polygon fill="none" stroke="black" points="383,-166.38 383,-191.62 436,-191.62 436,-166.38 383,-166.38"/>
<text text-anchor="start" x="390" y="-177.07" font-family="Times New Roman,serif" font-weight="bold" font-size="9.00">Obesity II</text>
<polygon fill="none" stroke="black" points="436,-166.38 436,-191.62 492,-191.62 492,-166.38 436,-166.38"/>
<text text-anchor="start" x="443" y="-177.07" font-family="Times New Roman,serif" font-weight="bold" font-size="9.00">Obesity III</text>
<polygon fill="none" stroke="black" points="382,-165.38 382,-192.62 493,-192.62 493,-165.38 382,-165.38"/>
</g>
<!-- n_3_5_6&#45;&gt;n_5_6 -->
<g id="edge9" class="edge">
<title>n_3_5_6&#45;&gt;n_5_6</title>
<path fill="none" stroke="black" d="M447.55,-247.64C445.81,-235.91 443.57,-220.86 441.65,-207.94"/>
<polygon fill="black" stroke="black" points="445.15,-207.71 440.22,-198.33 438.23,-208.73 445.15,-207.71"/>
</g>
<!-- n_3 -->
<g id="node13" class="node">
<title>n_3</title>
<polygon fill="none" stroke="black" points="539.5,-166.38 539.5,-191.62 607.5,-191.62 607.5,-166.38 539.5,-166.38"/>
<text text-anchor="start" x="546.5" y="-177.07" font-family="Times New Roman,serif" font-weight="bold" font-size="9.00">Overweight II</text>
<polygon fill="none" stroke="black" points="538.5,-165.38 538.5,-192.62 608.5,-192.62 608.5,-165.38 538.5,-165.38"/>
</g>
<!-- n_3_5_6&#45;&gt;n_3 -->
<g id="edge12" class="edge">
<title>n_3_5_6&#45;&gt;n_3</title>
<path fill="none" stroke="black" d="M478.41,-247.64C496.84,-234.53 521.08,-217.29 540.48,-203.49"/>
<polygon fill="black" stroke="black" points="542.49,-206.36 548.61,-197.71 538.43,-200.65 542.49,-206.36"/>
</g>
<!-- n_5 -->
<g id="node11" class="node">
<title>n_5</title>
<polygon fill="none" stroke="black" points="372,-84.38 372,-109.62 425,-109.62 425,-84.38 372,-84.38"/>
<text text-anchor="start" x="379" y="-95.08" font-family="Times New Roman,serif" font-weight="bold" font-size="9.00">Obesity II</text>
<polygon fill="none" stroke="black" points="371,-83.38 371,-110.62 426,-110.62 426,-83.38 371,-83.38"/>
</g>
<!-- n_5_6&#45;&gt;n_5 -->
<g id="edge10" class="edge">
<title>n_5_6&#45;&gt;n_5</title>
<path fill="none" stroke="black" d="M429.23,-161.03C424.16,-150.64 417.56,-137.1 411.77,-125.23"/>
<polygon fill="black" stroke="black" points="414.95,-123.76 407.42,-116.3 408.66,-126.82 414.95,-123.76"/>
</g>
<!-- n_6 -->
<g id="node12" class="node">
<title>n_6</title>
<polygon fill="none" stroke="black" points="472.5,-84.38 472.5,-109.62 528.5,-109.62 528.5,-84.38 472.5,-84.38"/>
<text text-anchor="start" x="479.5" y="-95.08" font-family="Times New Roman,serif" font-weight="bold" font-size="9.00">Obesity III</text>
<polygon fill="none" stroke="black" points="471.5,-83.38 471.5,-110.62 529.5,-110.62 529.5,-83.38 471.5,-83.38"/>
</g>
<!-- n_5_6&#45;&gt;n_6 -->
<g id="edge11" class="edge">
<title>n_5_6&#45;&gt;n_6</title>
<path fill="none" stroke="black" d="M450.86,-161.03C459.38,-150.22 470.59,-135.99 480.19,-123.79"/>
<polygon fill="black" stroke="black" points="482.78,-126.15 486.22,-116.13 477.29,-121.82 482.78,-126.15"/>
</g>
</g>
</svg>
