<?xml version="1.0" encoding="UTF-8" standalone="no"?>
<!DOCTYPE svg PUBLIC "-//W3C//DTD SVG 1.1//EN"
 "http://www.w3.org/Graphics/SVG/1.1/DTD/svg11.dtd">
<!-- Generated by graphviz version 10.0.1 (20240210.2158)
 -->
<!-- Title: ND Pages: 1 -->
<svg width="546pt" height="423pt"
 viewBox="0.00 0.00 545.50 423.00" xmlns="http://www.w3.org/2000/svg" xmlns:xlink="http://www.w3.org/1999/xlink">
<g id="graph0" class="graph" transform="scale(1 1) rotate(0) translate(4 419)">
<title>ND</title>
<polygon fill="white" stroke="none" points="-4,4 -4,-419 541.5,-419 541.5,4 -4,4"/>
<!-- n_0_1_2_3_4_5_6 -->
<g id="node1" class="node">
<title>n_0_1_2_3_4_5_6</title>
<polygon fill="none" stroke="black" points="297.38,-342 297.38,-410 385.62,-410 385.62,-342 297.38,-342"/>
<text text-anchor="start" x="304.38" y="-395.45" font-family="Times New Roman,serif" font-weight="bold" font-size="9.00">Insufficient weight</text>
<text text-anchor="start" x="326.5" y="-386.45" font-family="Times New Roman,serif" font-weight="bold" font-size="9.00">Normal</text>
<text text-anchor="start" x="314.5" y="-377.45" font-family="Times New Roman,serif" font-weight="bold" font-size="9.00">Overweight II</text>
<text text-anchor="start" x="323.5" y="-368.45" font-family="Times New Roman,serif" font-weight="bold" font-size="9.00">Obesity I</text>
<text text-anchor="start" x="322" y="-359.45" font-family="Times New Roman,serif" font-weight="bold" font-size="9.00">Obesity II</text>
<text text-anchor="start" x="320.5" y="-350.45" font-family="Times New Roman,serif" font-weight="bold" font-size="9.00">Obesity III</text>
<polygon fill="none" stroke="black" points="385.62,-342 385.62,-410 450.62,-410 450.62,-342 385.62,-342"/>
<text text-anchor="start" x="392.62" y="-374.07" font-family="Times New Roman,serif" font-weight="bold" font-size="9.00">Overweight I</text>
<polygon fill="none" stroke="black" points="296.38,-341 296.38,-411 451.62,-411 451.62,-341 296.38,-341"/>
</g>
<!-- n_0_1_3_4_5_6 -->
<g id="node2" class="node">
<title>n_0_1_3_4_5_6</title>
<polygon fill="none" stroke="black" points="225.88,-248 225.88,-289 314.12,-289 314.12,-248 225.88,-248"/>
<text text-anchor="start" x="232.88" y="-274.45" font-family="Times New Roman,serif" font-weight="bold" font-size="9.00">Insufficient weight</text>
<text text-anchor="start" x="243" y="-265.45" font-family="Times New Roman,serif" font-weight="bold" font-size="9.00">Overweight II</text>
<text text-anchor="start" x="252" y="-256.45" font-family="Times New Roman,serif" font-weight="bold" font-size="9.00">Obesity I</text>
<polygon fill="none" stroke="black" points="314.12,-248 314.12,-289 370.12,-289 370.12,-248 314.12,-248"/>
<text text-anchor="start" x="327.12" y="-274.45" font-family="Times New Roman,serif" font-weight="bold" font-size="9.00">Normal</text>
<text text-anchor="start" x="322.62" y="-265.45" font-family="Times New Roman,serif" font-weight="bold" font-size="9.00">Obesity II</text>
<text text-anchor="start" x="321.12" y="-256.45" font-family="Times New Roman,serif" font-weight="bold" font-size="9.00">Obesity III</text>
<polygon fill="none" stroke="black" points="224.88,-247 224.88,-290 371.12,-290 371.12,-247 224.88,-247"/>
</g>
<!-- n_0_1_2_3_4_5_6&#45;&gt;n_0_1_3_4_5_6 -->
<g id="edge1" class="edge">
<title>n_0_1_2_3_4_5_6&#45;&gt;n_0_1_3_4_5_6</title>
<path fill="none" stroke="black" d="M346.78,-337.21C338.74,-326.05 330,-313.92 322.17,-303.05"/>
<polygon fill="black" stroke="black" points="325.13,-301.17 316.44,-295.1 319.45,-305.26 325.13,-301.17"/>
</g>
<!-- n_2 -->
<g id="node13" class="node">
<title>n_2</title>
<polygon fill="none" stroke="black" points="417.5,-255.88 417.5,-281.12 482.5,-281.12 482.5,-255.88 417.5,-255.88"/>
<text text-anchor="start" x="424.5" y="-266.57" font-family="Times New Roman,serif" font-weight="bold" font-size="9.00">Overweight I</text>
<polygon fill="none" stroke="black" points="416.5,-254.88 416.5,-282.12 483.5,-282.12 483.5,-254.88 416.5,-254.88"/>
</g>
<!-- n_0_1_2_3_4_5_6&#45;&gt;n_2 -->
<g id="edge12" class="edge">
<title>n_0_1_2_3_4_5_6&#45;&gt;n_2</title>
<path fill="none" stroke="black" d="M401.22,-337.21C411.2,-323.36 422.26,-308.01 431.32,-295.43"/>
<polygon fill="black" stroke="black" points="433.92,-297.81 436.93,-287.65 428.24,-293.71 433.92,-297.81"/>
</g>
<!-- n_0_3_4 -->
<g id="node3" class="node">
<title>n_0_3_4</title>
<polygon fill="none" stroke="black" points="129.88,-163 129.88,-195 197.88,-195 197.88,-163 129.88,-163"/>
<text text-anchor="start" x="136.88" y="-180.45" font-family="Times New Roman,serif" font-weight="bold" font-size="9.00">Overweight II</text>
<text text-anchor="start" x="145.88" y="-171.45" font-family="Times New Roman,serif" font-weight="bold" font-size="9.00">Obesity I</text>
<polygon fill="none" stroke="black" points="197.88,-163 197.88,-195 286.12,-195 286.12,-163 197.88,-163"/>
<text text-anchor="start" x="204.88" y="-177.07" font-family="Times New Roman,serif" font-weight="bold" font-size="9.00">Insufficient weight</text>
<polygon fill="none" stroke="black" points="128.88,-162 128.88,-196 287.12,-196 287.12,-162 128.88,-162"/>
</g>
<!-- n_0_1_3_4_5_6&#45;&gt;n_0_3_4 -->
<g id="edge2" class="edge">
<title>n_0_1_3_4_5_6&#45;&gt;n_0_3_4</title>
<path fill="none" stroke="black" d="M272.93,-243.13C261.63,-232.14 248.23,-219.11 236.54,-207.75"/>
<polygon fill="black" stroke="black" points="239.09,-205.34 229.48,-200.88 234.21,-210.36 239.09,-205.34"/>
</g>
<!-- n_1_5_6 -->
<g id="node8" class="node">
<title>n_1_5_6</title>
<polygon fill="none" stroke="black" points="333.5,-163 333.5,-195 389.5,-195 389.5,-163 333.5,-163"/>
<text text-anchor="start" x="346.5" y="-180.45" font-family="Times New Roman,serif" font-weight="bold" font-size="9.00">Normal</text>
<text text-anchor="start" x="340.5" y="-171.45" font-family="Times New Roman,serif" font-weight="bold" font-size="9.00">Obesity III</text>
<polygon fill="none" stroke="black" points="389.5,-163 389.5,-195 442.5,-195 442.5,-163 389.5,-163"/>
<text text-anchor="start" x="396.5" y="-177.07" font-family="Times New Roman,serif" font-weight="bold" font-size="9.00">Obesity II</text>
<polygon fill="none" stroke="black" points="332.5,-162 332.5,-196 443.5,-196 443.5,-162 332.5,-162"/>
</g>
<!-- n_0_1_3_4_5_6&#45;&gt;n_1_5_6 -->
<g id="edge7" class="edge">
<title>n_0_1_3_4_5_6&#45;&gt;n_1_5_6</title>
<path fill="none" stroke="black" d="M323.07,-243.13C334.37,-232.14 347.77,-219.11 359.46,-207.75"/>
<polygon fill="black" stroke="black" points="361.79,-210.36 366.52,-200.88 356.91,-205.34 361.79,-210.36"/>
</g>
<!-- n_3_4 -->
<g id="node4" class="node">
<title>n_3_4</title>
<polygon fill="none" stroke="black" points="9,-84.38 9,-109.62 77,-109.62 77,-84.38 9,-84.38"/>
<text text-anchor="start" x="16" y="-95.08" font-family="Times New Roman,serif" font-weight="bold" font-size="9.00">Overweight II</text>
<polygon fill="none" stroke="black" points="77,-84.38 77,-109.62 127,-109.62 127,-84.38 77,-84.38"/>
<text text-anchor="start" x="84" y="-95.08" font-family="Times New Roman,serif" font-weight="bold" font-size="9.00">Obesity I</text>
<polygon fill="none" stroke="black" points="8,-83.38 8,-110.62 128,-110.62 128,-83.38 8,-83.38"/>
</g>
<!-- n_0_3_4&#45;&gt;n_3_4 -->
<g id="edge3" class="edge">
<title>n_0_3_4&#45;&gt;n_3_4</title>
<path fill="none" stroke="black" d="M173.03,-158.02C152.99,-146.56 127.78,-132.16 107.08,-120.33"/>
<polygon fill="black" stroke="black" points="109.06,-117.43 98.64,-115.51 105.59,-123.51 109.06,-117.43"/>
</g>
<!-- n_0 -->
<g id="node7" class="node">
<title>n_0</title>
<polygon fill="none" stroke="black" points="173.88,-84.38 173.88,-109.62 262.12,-109.62 262.12,-84.38 173.88,-84.38"/>
<text text-anchor="start" x="180.88" y="-95.08" font-family="Times New Roman,serif" font-weight="bold" font-size="9.00">Insufficient weight</text>
<polygon fill="none" stroke="black" points="172.88,-83.38 172.88,-110.62 263.12,-110.62 263.12,-83.38 172.88,-83.38"/>
</g>
<!-- n_0_3_4&#45;&gt;n_0 -->
<g id="edge6" class="edge">
<title>n_0_3_4&#45;&gt;n_0</title>
<path fill="none" stroke="black" d="M210.47,-158.22C211.68,-148.54 213.16,-136.72 214.49,-126.11"/>
<polygon fill="black" stroke="black" points="217.94,-126.7 215.71,-116.35 210.99,-125.83 217.94,-126.7"/>
</g>
<!-- n_3 -->
<g id="node5" class="node">
<title>n_3</title>
<polygon fill="none" stroke="black" points="31,-5.38 31,-30.62 99,-30.62 99,-5.38 31,-5.38"/>
<text text-anchor="start" x="38" y="-16.07" font-family="Times New Roman,serif" font-weight="bold" font-size="9.00">Overweight II</text>
<polygon fill="none" stroke="black" points="30,-4.38 30,-31.62 100,-31.62 100,-4.38 30,-4.38"/>
</g>
<!-- n_3_4&#45;&gt;n_3 -->
<g id="edge4" class="edge">
<title>n_3_4&#45;&gt;n_3</title>
<path fill="none" stroke="black" d="M67.35,-79.29C66.99,-69.97 66.52,-58.11 66.11,-47.38"/>
<polygon fill="black" stroke="black" points="69.61,-47.31 65.72,-37.45 62.61,-47.58 69.61,-47.31"/>
</g>
<!-- n_4 -->
<g id="node6" class="node">
<title>n_4</title>
<polygon fill="none" stroke="black" points="146,-5.38 146,-30.62 196,-30.62 196,-5.38 146,-5.38"/>
<text text-anchor="start" x="153" y="-16.07" font-family="Times New Roman,serif" font-weight="bold" font-size="9.00">Obesity I</text>
<polygon fill="none" stroke="black" points="145,-4.38 145,-31.62 197,-31.62 197,-4.38 145,-4.38"/>
</g>
<!-- n_3_4&#45;&gt;n_4 -->
<g id="edge5" class="edge">
<title>n_3_4&#45;&gt;n_4</title>
<path fill="none" stroke="black" d="M90.6,-79.1C104.96,-68.37 123.74,-54.33 139.55,-42.51"/>
<polygon fill="black" stroke="black" points="141.32,-45.56 147.24,-36.76 137.13,-39.95 141.32,-45.56"/>
</g>
<!-- n_1_6 -->
<g id="node9" class="node">
<title>n_1_6</title>
<polygon fill="none" stroke="black" points="328,-84.38 328,-109.62 372,-109.62 372,-84.38 328,-84.38"/>
<text text-anchor="start" x="335" y="-95.08" font-family="Times New Roman,serif" font-weight="bold" font-size="9.00">Normal</text>
<polygon fill="none" stroke="black" points="372,-84.38 372,-109.62 428,-109.62 428,-84.38 372,-84.38"/>
<text text-anchor="start" x="379" y="-95.08" font-family="Times New Roman,serif" font-weight="bold" font-size="9.00">Obesity III</text>
<polygon fill="none" stroke="black" points="327,-83.38 327,-110.62 429,-110.62 429,-83.38 327,-83.38"/>
</g>
<!-- n_1_5_6&#45;&gt;n_1_6 -->
<g id="edge8" class="edge">
<title>n_1_5_6&#45;&gt;n_1_6</title>
<path fill="none" stroke="black" d="M385.53,-158.22C384.32,-148.54 382.84,-136.72 381.51,-126.11"/>
<polygon fill="black" stroke="black" points="385.01,-125.83 380.29,-116.35 378.06,-126.7 385.01,-125.83"/>
</g>
<!-- n_5 -->
<g id="node12" class="node">
<title>n_5</title>
<polygon fill="none" stroke="black" points="475.5,-84.38 475.5,-109.62 528.5,-109.62 528.5,-84.38 475.5,-84.38"/>
<text text-anchor="start" x="482.5" y="-95.08" font-family="Times New Roman,serif" font-weight="bold" font-size="9.00">Obesity II</text>
<polygon fill="none" stroke="black" points="474.5,-83.38 474.5,-110.62 529.5,-110.62 529.5,-83.38 474.5,-83.38"/>
</g>
<!-- n_1_5_6&#45;&gt;n_5 -->
<g id="edge11" class="edge">
<title>n_1_5_6&#45;&gt;n_5</title>
<path fill="none" stroke="black" d="M416.47,-158.02C432.35,-146.88 452.21,-132.94 468.79,-121.31"/>
<polygon fill="black" stroke="black" points="470.71,-124.24 476.88,-115.63 466.68,-118.51 470.71,-124.24"/>
</g>
<!-- n_1 -->
<g id="node10" class="node">
<title>n_1</title>
<polygon fill="none" stroke="black" points="290,-5.38 290,-30.62 334,-30.62 334,-5.38 290,-5.38"/>
<text text-anchor="start" x="297" y="-16.07" font-family="Times New Roman,serif" font-weight="bold" font-size="9.00">Normal</text>
<polygon fill="none" stroke="black" points="289,-4.38 289,-31.62 335,-31.62 335,-4.38 289,-4.38"/>
</g>
<!-- n_1_6&#45;&gt;n_1 -->
<g id="edge9" class="edge">
<title>n_1_6&#45;&gt;n_1</title>
<path fill="none" stroke="black" d="M363.68,-79.29C355,-69.17 343.76,-56.05 333.98,-44.64"/>
<polygon fill="black" stroke="black" points="336.67,-42.41 327.51,-37.09 331.36,-46.96 336.67,-42.41"/>
</g>
<!-- n_6 -->
<g id="node11" class="node">
<title>n_6</title>
<polygon fill="none" stroke="black" points="381,-5.38 381,-30.62 437,-30.62 437,-5.38 381,-5.38"/>
<text text-anchor="start" x="388" y="-16.07" font-family="Times New Roman,serif" font-weight="bold" font-size="9.00">Obesity III</text>
<polygon fill="none" stroke="black" points="380,-4.38 380,-31.62 438,-31.62 438,-4.38 380,-4.38"/>
</g>
<!-- n_1_6&#45;&gt;n_6 -->
<g id="edge10" class="edge">
<title>n_1_6&#45;&gt;n_6</title>
<path fill="none" stroke="black" d="M384.73,-79.29C388.6,-69.67 393.56,-57.34 397.99,-46.35"/>
<polygon fill="black" stroke="black" points="401.13,-47.93 401.61,-37.35 394.63,-45.31 401.13,-47.93"/>
</g>
</g>
</svg>
