<?xml version="1.0" encoding="UTF-8" standalone="no"?>
<!DOCTYPE svg PUBLIC "-//W3C//DTD SVG 1.1//EN"
 "http://www.w3.org/Graphics/SVG/1.1/DTD/svg11.dtd">
<!-- Generated by graphviz version 10.0.1 (20240210.2158)
 -->
<!-- Title: ND Pages: 1 -->
<svg width="581pt" height="526pt"
 viewBox="0.00 0.00 581.12 526.00" xmlns="http://www.w3.org/2000/svg" xmlns:xlink="http://www.w3.org/1999/xlink">
<g id="graph0" class="graph" transform="scale(1 1) rotate(0) translate(4 522)">
<title>ND</title>
<polygon fill="white" stroke="none" points="-4,4 -4,-522 577.12,-522 577.12,4 -4,4"/>
<!-- n_0_1_2_3_4_5_6 -->
<g id="node1" class="node">
<title>n_0_1_2_3_4_5_6</title>
<polygon fill="none" stroke="black" points="366.88,-445 366.88,-513 434.88,-513 434.88,-445 366.88,-445"/>
<text text-anchor="start" x="385.88" y="-498.45" font-family="Times New Roman,serif" font-weight="bold" font-size="9.00">Normal</text>
<text text-anchor="start" x="375.38" y="-489.45" font-family="Times New Roman,serif" font-weight="bold" font-size="9.00">Overweight I</text>
<text text-anchor="start" x="373.88" y="-480.45" font-family="Times New Roman,serif" font-weight="bold" font-size="9.00">Overweight II</text>
<text text-anchor="start" x="382.88" y="-471.45" font-family="Times New Roman,serif" font-weight="bold" font-size="9.00">Obesity I</text>
<text text-anchor="start" x="381.38" y="-462.45" font-family="Times New Roman,serif" font-weight="bold" font-size="9.00">Obesity II</text>
<text text-anchor="start" x="379.88" y="-453.45" font-family="Times New Roman,serif" font-weight="bold" font-size="9.00">Obesity III</text>
<polygon fill="none" stroke="black" points="434.88,-445 434.88,-513 523.12,-513 523.12,-445 434.88,-445"/>
<text text-anchor="start" x="441.88" y="-477.07" font-family="Times New Roman,serif" font-weight="bold" font-size="9.00">Insufficient weight</text>
<polygon fill="none" stroke="black" points="365.88,-444 365.88,-514 524.12,-514 524.12,-444 365.88,-444"/>
</g>
<!-- n_1_2_3_4_5_6 -->
<g id="node2" class="node">
<title>n_1_2_3_4_5_6</title>
<polygon fill="none" stroke="black" points="311,-342 311,-392 379,-392 379,-342 311,-342"/>
<text text-anchor="start" x="319.5" y="-377.45" font-family="Times New Roman,serif" font-weight="bold" font-size="9.00">Overweight I</text>
<text text-anchor="start" x="318" y="-368.45" font-family="Times New Roman,serif" font-weight="bold" font-size="9.00">Overweight II</text>
<text text-anchor="start" x="325.5" y="-359.45" font-family="Times New Roman,serif" font-weight="bold" font-size="9.00">Obesity II</text>
<text text-anchor="start" x="324" y="-350.45" font-family="Times New Roman,serif" font-weight="bold" font-size="9.00">Obesity III</text>
<polygon fill="none" stroke="black" points="379,-342 379,-392 429,-392 429,-342 379,-342"/>
<text text-anchor="start" x="389" y="-368.45" font-family="Times New Roman,serif" font-weight="bold" font-size="9.00">Normal</text>
<text text-anchor="start" x="386" y="-359.45" font-family="Times New Roman,serif" font-weight="bold" font-size="9.00">Obesity I</text>
<polygon fill="none" stroke="black" points="310,-341 310,-393 430,-393 430,-341 310,-341"/>
</g>
<!-- n_0_1_2_3_4_5_6&#45;&gt;n_1_2_3_4_5_6 -->
<g id="edge1" class="edge">
<title>n_0_1_2_3_4_5_6&#45;&gt;n_1_2_3_4_5_6</title>
<path fill="none" stroke="black" d="M419.19,-440.14C411.72,-429.19 403.56,-417.22 396.07,-406.23"/>
<polygon fill="black" stroke="black" points="399.07,-404.43 390.55,-398.14 393.29,-408.37 399.07,-404.43"/>
</g>
<!-- n_0 -->
<g id="node13" class="node">
<title>n_0</title>
<polygon fill="none" stroke="black" points="475.88,-354.38 475.88,-379.62 564.12,-379.62 564.12,-354.38 475.88,-354.38"/>
<text text-anchor="start" x="482.88" y="-365.07" font-family="Times New Roman,serif" font-weight="bold" font-size="9.00">Insufficient weight</text>
<polygon fill="none" stroke="black" points="474.88,-353.38 474.88,-380.62 565.12,-380.62 565.12,-353.38 474.88,-353.38"/>
</g>
<!-- n_0_1_2_3_4_5_6&#45;&gt;n_0 -->
<g id="edge12" class="edge">
<title>n_0_1_2_3_4_5_6&#45;&gt;n_0</title>
<path fill="none" stroke="black" d="M470.81,-440.14C481.11,-425.04 492.71,-408.02 502.06,-394.31"/>
<polygon fill="black" stroke="black" points="504.83,-396.47 507.57,-386.23 499.04,-392.52 504.83,-396.47"/>
</g>
<!-- n_2_3_5_6 -->
<g id="node3" class="node">
<title>n_2_3_5_6</title>
<polygon fill="none" stroke="black" points="223.5,-248 223.5,-289 291.5,-289 291.5,-248 223.5,-248"/>
<text text-anchor="start" x="230.5" y="-274.45" font-family="Times New Roman,serif" font-weight="bold" font-size="9.00">Overweight II</text>
<text text-anchor="start" x="238" y="-265.45" font-family="Times New Roman,serif" font-weight="bold" font-size="9.00">Obesity II</text>
<text text-anchor="start" x="236.5" y="-256.45" font-family="Times New Roman,serif" font-weight="bold" font-size="9.00">Obesity III</text>
<polygon fill="none" stroke="black" points="291.5,-248 291.5,-289 356.5,-289 356.5,-248 291.5,-248"/>
<text text-anchor="start" x="298.5" y="-266.57" font-family="Times New Roman,serif" font-weight="bold" font-size="9.00">Overweight I</text>
<polygon fill="none" stroke="black" points="222.5,-247 222.5,-290 357.5,-290 357.5,-247 222.5,-247"/>
</g>
<!-- n_1_2_3_4_5_6&#45;&gt;n_2_3_5_6 -->
<g id="edge2" class="edge">
<title>n_1_2_3_4_5_6&#45;&gt;n_2_3_5_6</title>
<path fill="none" stroke="black" d="M346,-337.05C336.99,-326.18 326.69,-313.76 317.4,-302.55"/>
<polygon fill="black" stroke="black" points="320.25,-300.5 311.17,-295.04 314.86,-304.97 320.25,-300.5"/>
</g>
<!-- n_1_4 -->
<g id="node10" class="node">
<title>n_1_4</title>
<polygon fill="none" stroke="black" points="404,-255.88 404,-281.12 448,-281.12 448,-255.88 404,-255.88"/>
<text text-anchor="start" x="411" y="-266.57" font-family="Times New Roman,serif" font-weight="bold" font-size="9.00">Normal</text>
<polygon fill="none" stroke="black" points="448,-255.88 448,-281.12 498,-281.12 498,-255.88 448,-255.88"/>
<text text-anchor="start" x="455" y="-266.57" font-family="Times New Roman,serif" font-weight="bold" font-size="9.00">Obesity I</text>
<polygon fill="none" stroke="black" points="403,-254.88 403,-282.12 499,-282.12 499,-254.88 403,-254.88"/>
</g>
<!-- n_1_2_3_4_5_6&#45;&gt;n_1_4 -->
<g id="edge9" class="edge">
<title>n_1_2_3_4_5_6&#45;&gt;n_1_4</title>
<path fill="none" stroke="black" d="M394.3,-337.05C405.59,-323.6 418.88,-307.77 429.75,-294.81"/>
<polygon fill="black" stroke="black" points="432.12,-297.43 435.87,-287.53 426.76,-292.93 432.12,-297.43"/>
</g>
<!-- n_3_5_6 -->
<g id="node4" class="node">
<title>n_3_5_6</title>
<polygon fill="none" stroke="black" points="104.5,-163 104.5,-195 172.5,-195 172.5,-163 104.5,-163"/>
<text text-anchor="start" x="111.5" y="-180.45" font-family="Times New Roman,serif" font-weight="bold" font-size="9.00">Overweight II</text>
<text text-anchor="start" x="117.5" y="-171.45" font-family="Times New Roman,serif" font-weight="bold" font-size="9.00">Obesity III</text>
<polygon fill="none" stroke="black" points="172.5,-163 172.5,-195 225.5,-195 225.5,-163 172.5,-163"/>
<text text-anchor="start" x="179.5" y="-177.07" font-family="Times New Roman,serif" font-weight="bold" font-size="9.00">Obesity II</text>
<polygon fill="none" stroke="black" points="103.5,-162 103.5,-196 226.5,-196 226.5,-162 103.5,-162"/>
</g>
<!-- n_2_3_5_6&#45;&gt;n_3_5_6 -->
<g id="edge3" class="edge">
<title>n_2_3_5_6&#45;&gt;n_3_5_6</title>
<path fill="none" stroke="black" d="M255.18,-243.13C238.72,-231.61 219.06,-217.84 202.3,-206.11"/>
<polygon fill="black" stroke="black" points="204.76,-203.56 194.56,-200.69 200.75,-209.3 204.76,-203.56"/>
</g>
<!-- n_2 -->
<g id="node9" class="node">
<title>n_2</title>
<polygon fill="none" stroke="black" points="272.5,-166.38 272.5,-191.62 337.5,-191.62 337.5,-166.38 272.5,-166.38"/>
<text text-anchor="start" x="279.5" y="-177.07" font-family="Times New Roman,serif" font-weight="bold" font-size="9.00">Overweight I</text>
<polygon fill="none" stroke="black" points="271.5,-165.38 271.5,-192.62 338.5,-192.62 338.5,-165.38 271.5,-165.38"/>
</g>
<!-- n_2_3_5_6&#45;&gt;n_2 -->
<g id="edge8" class="edge">
<title>n_2_3_5_6&#45;&gt;n_2</title>
<path fill="none" stroke="black" d="M294.18,-243.13C296.06,-232.17 298.28,-219.18 300.23,-207.84"/>
<polygon fill="black" stroke="black" points="303.63,-208.71 301.87,-198.26 296.73,-207.53 303.63,-208.71"/>
</g>
<!-- n_3_6 -->
<g id="node5" class="node">
<title>n_3_6</title>
<polygon fill="none" stroke="black" points="35,-84.38 35,-109.62 103,-109.62 103,-84.38 35,-84.38"/>
<text text-anchor="start" x="42" y="-95.08" font-family="Times New Roman,serif" font-weight="bold" font-size="9.00">Overweight II</text>
<polygon fill="none" stroke="black" points="103,-84.38 103,-109.62 159,-109.62 159,-84.38 103,-84.38"/>
<text text-anchor="start" x="110" y="-95.08" font-family="Times New Roman,serif" font-weight="bold" font-size="9.00">Obesity III</text>
<polygon fill="none" stroke="black" points="34,-83.38 34,-110.62 160,-110.62 160,-83.38 34,-83.38"/>
</g>
<!-- n_3_5_6&#45;&gt;n_3_6 -->
<g id="edge4" class="edge">
<title>n_3_5_6&#45;&gt;n_3_6</title>
<path fill="none" stroke="black" d="M148.19,-158.22C139.25,-147.71 128.16,-134.66 118.6,-123.41"/>
<polygon fill="black" stroke="black" points="121.44,-121.35 112.3,-116 116.11,-125.88 121.44,-121.35"/>
</g>
<!-- n_5 -->
<g id="node8" class="node">
<title>n_5</title>
<polygon fill="none" stroke="black" points="206.5,-84.38 206.5,-109.62 259.5,-109.62 259.5,-84.38 206.5,-84.38"/>
<text text-anchor="start" x="213.5" y="-95.08" font-family="Times New Roman,serif" font-weight="bold" font-size="9.00">Obesity II</text>
<polygon fill="none" stroke="black" points="205.5,-83.38 205.5,-110.62 260.5,-110.62 260.5,-83.38 205.5,-83.38"/>
</g>
<!-- n_3_5_6&#45;&gt;n_5 -->
<g id="edge7" class="edge">
<title>n_3_5_6&#45;&gt;n_5</title>
<path fill="none" stroke="black" d="M181.81,-158.22C190.75,-147.71 201.84,-134.66 211.4,-123.41"/>
<polygon fill="black" stroke="black" points="213.89,-125.88 217.7,-116 208.56,-121.35 213.89,-125.88"/>
</g>
<!-- n_3 -->
<g id="node6" class="node">
<title>n_3</title>
<polygon fill="none" stroke="black" points="9,-5.38 9,-30.62 77,-30.62 77,-5.38 9,-5.38"/>
<text text-anchor="start" x="16" y="-16.07" font-family="Times New Roman,serif" font-weight="bold" font-size="9.00">Overweight II</text>
<polygon fill="none" stroke="black" points="8,-4.38 8,-31.62 78,-31.62 78,-4.38 8,-4.38"/>
</g>
<!-- n_3_6&#45;&gt;n_3 -->
<g id="edge5" class="edge">
<title>n_3_6&#45;&gt;n_3</title>
<path fill="none" stroke="black" d="M85.28,-79.29C78.33,-69.37 69.35,-56.57 61.46,-45.32"/>
<polygon fill="black" stroke="black" points="64.36,-43.36 55.75,-37.18 58.63,-47.38 64.36,-43.36"/>
</g>
<!-- n_6 -->
<g id="node7" class="node">
<title>n_6</title>
<polygon fill="none" stroke="black" points="124,-5.38 124,-30.62 180,-30.62 180,-5.38 124,-5.38"/>
<text text-anchor="start" x="131" y="-16.07" font-family="Times New Roman,serif" font-weight="bold" font-size="9.00">Obesity III</text>
<polygon fill="none" stroke="black" points="123,-4.38 123,-31.62 181,-31.62 181,-4.38 123,-4.38"/>
</g>
<!-- n_3_6&#45;&gt;n_6 -->
<g id="edge6" class="edge">
<title>n_3_6&#45;&gt;n_6</title>
<path fill="none" stroke="black" d="M108.93,-79.29C116.09,-69.27 125.35,-56.31 133.44,-44.98"/>
<polygon fill="black" stroke="black" points="136.06,-47.34 139.02,-37.17 130.36,-43.28 136.06,-47.34"/>
</g>
<!-- n_1 -->
<g id="node11" class="node">
<title>n_1</title>
<polygon fill="none" stroke="black" points="414,-166.38 414,-191.62 458,-191.62 458,-166.38 414,-166.38"/>
<text text-anchor="start" x="421" y="-177.07" font-family="Times New Roman,serif" font-weight="bold" font-size="9.00">Normal</text>
<polygon fill="none" stroke="black" points="413,-165.38 413,-192.62 459,-192.62 459,-165.38 413,-165.38"/>
</g>
<!-- n_1_4&#45;&gt;n_1 -->
<g id="edge10" class="edge">
<title>n_1_4&#45;&gt;n_1</title>
<path fill="none" stroke="black" d="M448.11,-250.63C446.03,-238.52 443.19,-221.94 440.78,-207.88"/>
<polygon fill="black" stroke="black" points="444.28,-207.58 439.14,-198.31 437.38,-208.76 444.28,-207.58"/>
</g>
<!-- n_4 -->
<g id="node12" class="node">
<title>n_4</title>
<polygon fill="none" stroke="black" points="505,-166.38 505,-191.62 555,-191.62 555,-166.38 505,-166.38"/>
<text text-anchor="start" x="512" y="-177.07" font-family="Times New Roman,serif" font-weight="bold" font-size="9.00">Obesity I</text>
<polygon fill="none" stroke="black" points="504,-165.38 504,-192.62 556,-192.62 556,-165.38 504,-165.38"/>
</g>
<!-- n_1_4&#45;&gt;n_4 -->
<g id="edge11" class="edge">
<title>n_1_4&#45;&gt;n_4</title>
<path fill="none" stroke="black" d="M466.23,-250.63C477.93,-237.68 494.25,-219.59 507.46,-204.97"/>
<polygon fill="black" stroke="black" points="509.7,-207.71 513.8,-197.94 504.5,-203.02 509.7,-207.71"/>
</g>
</g>
</svg>
