<?xml version="1.0" encoding="UTF-8" standalone="no"?>
<!DOCTYPE svg PUBLIC "-//W3C//DTD SVG 1.1//EN"
 "http://www.w3.org/Graphics/SVG/1.1/DTD/svg11.dtd">
<!-- Generated by graphviz version 10.0.1 (20240210.2158)
 -->
<!-- Title: ND Pages: 1 -->
<svg width="613pt" height="405pt"
 viewBox="0.00 0.00 613.00 405.00" xmlns="http://www.w3.org/2000/svg" xmlns:xlink="http://www.w3.org/1999/xlink">
<g id="graph0" class="graph" transform="scale(1 1) rotate(0) translate(4 401)">
<title>ND</title>
<polygon fill="white" stroke="none" points="-4,4 -4,-401 609,-401 609,4 -4,4"/>
<!-- n_0_1_2_3_4_5_6 -->
<g id="node1" class="node">
<title>n_0_1_2_3_4_5_6</title>
<polygon fill="none" stroke="black" points="279.38,-342 279.38,-392 367.62,-392 367.62,-342 279.38,-342"/>
<text text-anchor="start" x="286.38" y="-377.45" font-family="Times New Roman,serif" font-weight="bold" font-size="9.00">Insufficient weight</text>
<text text-anchor="start" x="308.5" y="-368.45" font-family="Times New Roman,serif" font-weight="bold" font-size="9.00">Normal</text>
<text text-anchor="start" x="296.5" y="-359.45" font-family="Times New Roman,serif" font-weight="bold" font-size="9.00">Overweight II</text>
<text text-anchor="start" x="305.5" y="-350.45" font-family="Times New Roman,serif" font-weight="bold" font-size="9.00">Obesity I</text>
<polygon fill="none" stroke="black" points="367.62,-342 367.62,-392 432.62,-392 432.62,-342 367.62,-342"/>
<text text-anchor="start" x="374.62" y="-372.95" font-family="Times New Roman,serif" font-weight="bold" font-size="9.00">Overweight I</text>
<text text-anchor="start" x="380.62" y="-363.95" font-family="Times New Roman,serif" font-weight="bold" font-size="9.00">Obesity II</text>
<text text-anchor="start" x="379.12" y="-354.95" font-family="Times New Roman,serif" font-weight="bold" font-size="9.00">Obesity III</text>
<polygon fill="none" stroke="black" points="278.38,-341 278.38,-393 433.62,-393 433.62,-341 278.38,-341"/>
</g>
<!-- n_0_1_3_4 -->
<g id="node2" class="node">
<title>n_0_1_3_4</title>
<polygon fill="none" stroke="black" points="198.88,-248 198.88,-289 287.12,-289 287.12,-248 198.88,-248"/>
<text text-anchor="start" x="205.88" y="-274.45" font-family="Times New Roman,serif" font-weight="bold" font-size="9.00">Insufficient weight</text>
<text text-anchor="start" x="228" y="-265.45" font-family="Times New Roman,serif" font-weight="bold" font-size="9.00">Normal</text>
<text text-anchor="start" x="216" y="-256.45" font-family="Times New Roman,serif" font-weight="bold" font-size="9.00">Overweight II</text>
<polygon fill="none" stroke="black" points="287.12,-248 287.12,-289 337.12,-289 337.12,-248 287.12,-248"/>
<text text-anchor="start" x="294.12" y="-266.57" font-family="Times New Roman,serif" font-weight="bold" font-size="9.00">Obesity I</text>
<polygon fill="none" stroke="black" points="197.88,-247 197.88,-290 338.12,-290 338.12,-247 197.88,-247"/>
</g>
<!-- n_0_1_2_3_4_5_6&#45;&gt;n_0_1_3_4 -->
<g id="edge1" class="edge">
<title>n_0_1_2_3_4_5_6&#45;&gt;n_0_1_3_4</title>
<path fill="none" stroke="black" d="M329.6,-337.05C319.59,-326.08 308.13,-313.51 297.83,-302.22"/>
<polygon fill="black" stroke="black" points="300.57,-300.02 291.25,-294.99 295.4,-304.74 300.57,-300.02"/>
</g>
<!-- n_2_5_6 -->
<g id="node9" class="node">
<title>n_2_5_6</title>
<polygon fill="none" stroke="black" points="384.5,-252.5 384.5,-284.5 449.5,-284.5 449.5,-252.5 384.5,-252.5"/>
<text text-anchor="start" x="391.5" y="-269.95" font-family="Times New Roman,serif" font-weight="bold" font-size="9.00">Overweight I</text>
<text text-anchor="start" x="397.5" y="-260.95" font-family="Times New Roman,serif" font-weight="bold" font-size="9.00">Obesity II</text>
<polygon fill="none" stroke="black" points="449.5,-252.5 449.5,-284.5 505.5,-284.5 505.5,-252.5 449.5,-252.5"/>
<text text-anchor="start" x="456.5" y="-266.57" font-family="Times New Roman,serif" font-weight="bold" font-size="9.00">Obesity III</text>
<polygon fill="none" stroke="black" points="383.5,-251.5 383.5,-285.5 506.5,-285.5 506.5,-251.5 383.5,-251.5"/>
</g>
<!-- n_0_1_2_3_4_5_6&#45;&gt;n_2_5_6 -->
<g id="edge8" class="edge">
<title>n_0_1_2_3_4_5_6&#45;&gt;n_2_5_6</title>
<path fill="none" stroke="black" d="M382.7,-337.05C394.27,-324.51 407.75,-309.89 419.21,-297.46"/>
<polygon fill="black" stroke="black" points="421.54,-300.1 425.75,-290.37 416.4,-295.35 421.54,-300.1"/>
</g>
<!-- n_0_1_3 -->
<g id="node3" class="node">
<title>n_0_1_3</title>
<polygon fill="none" stroke="black" points="51.88,-163 51.88,-195 119.88,-195 119.88,-163 51.88,-163"/>
<text text-anchor="start" x="70.88" y="-180.45" font-family="Times New Roman,serif" font-weight="bold" font-size="9.00">Normal</text>
<text text-anchor="start" x="58.88" y="-171.45" font-family="Times New Roman,serif" font-weight="bold" font-size="9.00">Overweight II</text>
<polygon fill="none" stroke="black" points="119.88,-163 119.88,-195 208.12,-195 208.12,-163 119.88,-163"/>
<text text-anchor="start" x="126.88" y="-177.07" font-family="Times New Roman,serif" font-weight="bold" font-size="9.00">Insufficient weight</text>
<polygon fill="none" stroke="black" points="50.88,-162 50.88,-196 209.12,-196 209.12,-162 50.88,-162"/>
</g>
<!-- n_0_1_3_4&#45;&gt;n_0_1_3 -->
<g id="edge2" class="edge">
<title>n_0_1_3_4&#45;&gt;n_0_1_3</title>
<path fill="none" stroke="black" d="M229.56,-243.13C211.31,-231.55 189.48,-217.71 170.92,-205.94"/>
<polygon fill="black" stroke="black" points="172.87,-203.04 162.55,-200.64 169.12,-208.95 172.87,-203.04"/>
</g>
<!-- n_4 -->
<g id="node8" class="node">
<title>n_4</title>
<polygon fill="none" stroke="black" points="255,-166.38 255,-191.62 305,-191.62 305,-166.38 255,-166.38"/>
<text text-anchor="start" x="262" y="-177.07" font-family="Times New Roman,serif" font-weight="bold" font-size="9.00">Obesity I</text>
<polygon fill="none" stroke="black" points="254,-165.38 254,-192.62 306,-192.62 306,-165.38 254,-165.38"/>
</g>
<!-- n_0_1_3_4&#45;&gt;n_4 -->
<g id="edge7" class="edge">
<title>n_0_1_3_4&#45;&gt;n_4</title>
<path fill="none" stroke="black" d="M271.34,-243.13C272.85,-232.17 274.63,-219.18 276.18,-207.84"/>
<polygon fill="black" stroke="black" points="279.6,-208.65 277.49,-198.27 272.67,-207.7 279.6,-208.65"/>
</g>
<!-- n_1_3 -->
<g id="node4" class="node">
<title>n_1_3</title>
<polygon fill="none" stroke="black" points="26,-84.38 26,-109.62 70,-109.62 70,-84.38 26,-84.38"/>
<text text-anchor="start" x="33" y="-95.08" font-family="Times New Roman,serif" font-weight="bold" font-size="9.00">Normal</text>
<polygon fill="none" stroke="black" points="70,-84.38 70,-109.62 138,-109.62 138,-84.38 70,-84.38"/>
<text text-anchor="start" x="77" y="-95.08" font-family="Times New Roman,serif" font-weight="bold" font-size="9.00">Overweight II</text>
<polygon fill="none" stroke="black" points="25,-83.38 25,-110.62 139,-110.62 139,-83.38 25,-83.38"/>
</g>
<!-- n_0_1_3&#45;&gt;n_1_3 -->
<g id="edge3" class="edge">
<title>n_0_1_3&#45;&gt;n_1_3</title>
<path fill="none" stroke="black" d="M118.13,-158.22C112.01,-148.02 104.46,-135.44 97.85,-124.41"/>
<polygon fill="black" stroke="black" points="101.03,-122.92 92.88,-116.14 95.03,-126.52 101.03,-122.92"/>
</g>
<!-- n_0 -->
<g id="node7" class="node">
<title>n_0</title>
<polygon fill="none" stroke="black" points="184.88,-84.38 184.88,-109.62 273.12,-109.62 273.12,-84.38 184.88,-84.38"/>
<text text-anchor="start" x="191.88" y="-95.08" font-family="Times New Roman,serif" font-weight="bold" font-size="9.00">Insufficient weight</text>
<polygon fill="none" stroke="black" points="183.88,-83.38 183.88,-110.62 274.12,-110.62 274.12,-83.38 183.88,-83.38"/>
</g>
<!-- n_0_1_3&#45;&gt;n_0 -->
<g id="edge6" class="edge">
<title>n_0_1_3&#45;&gt;n_0</title>
<path fill="none" stroke="black" d="M154.73,-158.02C168.26,-147.09 185.11,-133.46 199.35,-121.96"/>
<polygon fill="black" stroke="black" points="201.51,-124.72 207.08,-115.71 197.11,-119.27 201.51,-124.72"/>
</g>
<!-- n_1 -->
<g id="node5" class="node">
<title>n_1</title>
<polygon fill="none" stroke="black" points="9,-5.38 9,-30.62 53,-30.62 53,-5.38 9,-5.38"/>
<text text-anchor="start" x="16" y="-16.07" font-family="Times New Roman,serif" font-weight="bold" font-size="9.00">Normal</text>
<polygon fill="none" stroke="black" points="8,-4.38 8,-31.62 54,-31.62 54,-4.38 8,-4.38"/>
</g>
<!-- n_1_3&#45;&gt;n_1 -->
<g id="edge4" class="edge">
<title>n_1_3&#45;&gt;n_1</title>
<path fill="none" stroke="black" d="M70.93,-79.29C64.36,-69.37 55.89,-56.57 48.43,-45.32"/>
<polygon fill="black" stroke="black" points="51.5,-43.61 43.06,-37.2 45.66,-47.47 51.5,-43.61"/>
</g>
<!-- n_3 -->
<g id="node6" class="node">
<title>n_3</title>
<polygon fill="none" stroke="black" points="100,-5.38 100,-30.62 168,-30.62 168,-5.38 100,-5.38"/>
<text text-anchor="start" x="107" y="-16.07" font-family="Times New Roman,serif" font-weight="bold" font-size="9.00">Overweight II</text>
<polygon fill="none" stroke="black" points="99,-4.38 99,-31.62 169,-31.62 169,-4.38 99,-4.38"/>
</g>
<!-- n_1_3&#45;&gt;n_3 -->
<g id="edge5" class="edge">
<title>n_1_3&#45;&gt;n_3</title>
<path fill="none" stroke="black" d="M93.28,-79.29C99.98,-69.37 108.63,-56.57 116.23,-45.32"/>
<polygon fill="black" stroke="black" points="119.02,-47.44 121.71,-37.2 113.22,-43.52 119.02,-47.44"/>
</g>
<!-- n_2_5 -->
<g id="node10" class="node">
<title>n_2_5</title>
<polygon fill="none" stroke="black" points="375,-166.38 375,-191.62 440,-191.62 440,-166.38 375,-166.38"/>
<text text-anchor="start" x="382" y="-177.07" font-family="Times New Roman,serif" font-weight="bold" font-size="9.00">Overweight I</text>
<polygon fill="none" stroke="black" points="440,-166.38 440,-191.62 493,-191.62 493,-166.38 440,-166.38"/>
<text text-anchor="start" x="447" y="-177.07" font-family="Times New Roman,serif" font-weight="bold" font-size="9.00">Obesity II</text>
<polygon fill="none" stroke="black" points="374,-165.38 374,-192.62 494,-192.62 494,-165.38 374,-165.38"/>
</g>
<!-- n_2_5_6&#45;&gt;n_2_5 -->
<g id="edge9" class="edge">
<title>n_2_5_6&#45;&gt;n_2_5</title>
<path fill="none" stroke="black" d="M442.5,-247.64C441.03,-235.91 439.14,-220.86 437.51,-207.94"/>
<polygon fill="black" stroke="black" points="441.02,-207.82 436.3,-198.33 434.08,-208.69 441.02,-207.82"/>
</g>
<!-- n_6 -->
<g id="node13" class="node">
<title>n_6</title>
<polygon fill="none" stroke="black" points="540,-166.38 540,-191.62 596,-191.62 596,-166.38 540,-166.38"/>
<text text-anchor="start" x="547" y="-177.07" font-family="Times New Roman,serif" font-weight="bold" font-size="9.00">Obesity III</text>
<polygon fill="none" stroke="black" points="539,-165.38 539,-192.62 597,-192.62 597,-165.38 539,-165.38"/>
</g>
<!-- n_2_5_6&#45;&gt;n_6 -->
<g id="edge12" class="edge">
<title>n_2_5_6&#45;&gt;n_6</title>
<path fill="none" stroke="black" d="M472.91,-247.64C491.34,-234.53 515.58,-217.29 534.98,-203.49"/>
<polygon fill="black" stroke="black" points="536.99,-206.36 543.11,-197.71 532.93,-200.65 536.99,-206.36"/>
</g>
<!-- n_2 -->
<g id="node11" class="node">
<title>n_2</title>
<polygon fill="none" stroke="black" points="360.5,-84.38 360.5,-109.62 425.5,-109.62 425.5,-84.38 360.5,-84.38"/>
<text text-anchor="start" x="367.5" y="-95.08" font-family="Times New Roman,serif" font-weight="bold" font-size="9.00">Overweight I</text>
<polygon fill="none" stroke="black" points="359.5,-83.38 359.5,-110.62 426.5,-110.62 426.5,-83.38 359.5,-83.38"/>
</g>
<!-- n_2_5&#45;&gt;n_2 -->
<g id="edge10" class="edge">
<title>n_2_5&#45;&gt;n_2</title>
<path fill="none" stroke="black" d="M425.3,-161.03C419.92,-150.53 412.9,-136.82 406.77,-124.87"/>
<polygon fill="black" stroke="black" points="410.05,-123.59 402.37,-116.29 403.82,-126.78 410.05,-123.59"/>
</g>
<!-- n_5 -->
<g id="node12" class="node">
<title>n_5</title>
<polygon fill="none" stroke="black" points="472.5,-84.38 472.5,-109.62 525.5,-109.62 525.5,-84.38 472.5,-84.38"/>
<text text-anchor="start" x="479.5" y="-95.08" font-family="Times New Roman,serif" font-weight="bold" font-size="9.00">Obesity II</text>
<polygon fill="none" stroke="black" points="471.5,-83.38 471.5,-110.62 526.5,-110.62 526.5,-83.38 471.5,-83.38"/>
</g>
<!-- n_2_5&#45;&gt;n_5 -->
<g id="edge11" class="edge">
<title>n_2_5&#45;&gt;n_5</title>
<path fill="none" stroke="black" d="M447.78,-161.03C456.57,-150.22 468.14,-135.99 478.05,-123.79"/>
<polygon fill="black" stroke="black" points="480.69,-126.08 484.28,-116.12 475.26,-121.67 480.69,-126.08"/>
</g>
</g>
</svg>
