<?xml version="1.0" encoding="UTF-8" standalone="no"?>
<!DOCTYPE svg PUBLIC "-//W3C//DTD SVG 1.1//EN"
 "http://www.w3.org/Graphics/SVG/1.1/DTD/svg11.dtd">
<!-- Generated by graphviz version 10.0.1 (20240210.2158)
 -->
<!-- Title: ND Pages: 1 -->
<svg width="622pt" height="405pt"
 viewBox="0.00 0.00 622.00 405.00" xmlns="http://www.w3.org/2000/svg" xmlns:xlink="http://www.w3.org/1999/xlink">
<g id="graph0" class="graph" transform="scale(1 1) rotate(0) translate(4 401)">
<title>ND</title>
<polygon fill="white" stroke="none" points="-4,4 -4,-401 618,-401 618,4 -4,4"/>
<!-- n_0_1_2_3_4_5_6 -->
<g id="node1" class="node">
<title>n_0_1_2_3_4_5_6</title>
<polygon fill="none" stroke="black" points="274.88,-342 274.88,-392 342.88,-392 342.88,-342 274.88,-342"/>
<text text-anchor="start" x="293.88" y="-377.45" font-family="Times New Roman,serif" font-weight="bold" font-size="9.00">Normal</text>
<text text-anchor="start" x="283.38" y="-368.45" font-family="Times New Roman,serif" font-weight="bold" font-size="9.00">Overweight I</text>
<text text-anchor="start" x="281.88" y="-359.45" font-family="Times New Roman,serif" font-weight="bold" font-size="9.00">Overweight II</text>
<text text-anchor="start" x="287.88" y="-350.45" font-family="Times New Roman,serif" font-weight="bold" font-size="9.00">Obesity III</text>
<polygon fill="none" stroke="black" points="342.88,-342 342.88,-392 431.12,-392 431.12,-342 342.88,-342"/>
<text text-anchor="start" x="349.88" y="-372.95" font-family="Times New Roman,serif" font-weight="bold" font-size="9.00">Insufficient weight</text>
<text text-anchor="start" x="369" y="-363.95" font-family="Times New Roman,serif" font-weight="bold" font-size="9.00">Obesity I</text>
<text text-anchor="start" x="367.5" y="-354.95" font-family="Times New Roman,serif" font-weight="bold" font-size="9.00">Obesity II</text>
<polygon fill="none" stroke="black" points="273.88,-341 273.88,-393 432.12,-393 432.12,-341 273.88,-341"/>
</g>
<!-- n_1_2_3_6 -->
<g id="node2" class="node">
<title>n_1_2_3_6</title>
<polygon fill="none" stroke="black" points="195.5,-248 195.5,-289 263.5,-289 263.5,-248 195.5,-248"/>
<text text-anchor="start" x="214.5" y="-274.45" font-family="Times New Roman,serif" font-weight="bold" font-size="9.00">Normal</text>
<text text-anchor="start" x="202.5" y="-265.45" font-family="Times New Roman,serif" font-weight="bold" font-size="9.00">Overweight II</text>
<text text-anchor="start" x="208.5" y="-256.45" font-family="Times New Roman,serif" font-weight="bold" font-size="9.00">Obesity III</text>
<polygon fill="none" stroke="black" points="263.5,-248 263.5,-289 328.5,-289 328.5,-248 263.5,-248"/>
<text text-anchor="start" x="270.5" y="-266.57" font-family="Times New Roman,serif" font-weight="bold" font-size="9.00">Overweight I</text>
<polygon fill="none" stroke="black" points="194.5,-247 194.5,-290 329.5,-290 329.5,-247 194.5,-247"/>
</g>
<!-- n_0_1_2_3_4_5_6&#45;&gt;n_1_2_3_6 -->
<g id="edge1" class="edge">
<title>n_0_1_2_3_4_5_6&#45;&gt;n_1_2_3_6</title>
<path fill="none" stroke="black" d="M325.7,-337.05C315.35,-326.08 303.5,-313.51 292.85,-302.22"/>
<polygon fill="black" stroke="black" points="295.43,-299.85 286.02,-294.98 290.34,-304.65 295.43,-299.85"/>
</g>
<!-- n_0_4_5 -->
<g id="node9" class="node">
<title>n_0_4_5</title>
<polygon fill="none" stroke="black" points="375.88,-252.5 375.88,-284.5 464.12,-284.5 464.12,-252.5 375.88,-252.5"/>
<text text-anchor="start" x="382.88" y="-269.95" font-family="Times New Roman,serif" font-weight="bold" font-size="9.00">Insufficient weight</text>
<text text-anchor="start" x="400.5" y="-260.95" font-family="Times New Roman,serif" font-weight="bold" font-size="9.00">Obesity II</text>
<polygon fill="none" stroke="black" points="464.12,-252.5 464.12,-284.5 514.12,-284.5 514.12,-252.5 464.12,-252.5"/>
<text text-anchor="start" x="471.12" y="-266.57" font-family="Times New Roman,serif" font-weight="bold" font-size="9.00">Obesity I</text>
<polygon fill="none" stroke="black" points="374.88,-251.5 374.88,-285.5 515.12,-285.5 515.12,-251.5 374.88,-251.5"/>
</g>
<!-- n_0_1_2_3_4_5_6&#45;&gt;n_0_4_5 -->
<g id="edge8" class="edge">
<title>n_0_1_2_3_4_5_6&#45;&gt;n_0_4_5</title>
<path fill="none" stroke="black" d="M380.6,-337.05C392.56,-324.51 406.5,-309.89 418.35,-297.46"/>
<polygon fill="black" stroke="black" points="420.75,-300.01 425.12,-290.35 415.68,-295.18 420.75,-300.01"/>
</g>
<!-- n_1_3_6 -->
<g id="node3" class="node">
<title>n_1_3_6</title>
<polygon fill="none" stroke="black" points="79,-163 79,-195 147,-195 147,-163 79,-163"/>
<text text-anchor="start" x="86" y="-180.45" font-family="Times New Roman,serif" font-weight="bold" font-size="9.00">Overweight II</text>
<text text-anchor="start" x="92" y="-171.45" font-family="Times New Roman,serif" font-weight="bold" font-size="9.00">Obesity III</text>
<polygon fill="none" stroke="black" points="147,-163 147,-195 191,-195 191,-163 147,-163"/>
<text text-anchor="start" x="154" y="-177.07" font-family="Times New Roman,serif" font-weight="bold" font-size="9.00">Normal</text>
<polygon fill="none" stroke="black" points="78,-162 78,-196 192,-196 192,-162 78,-162"/>
</g>
<!-- n_1_2_3_6&#45;&gt;n_1_3_6 -->
<g id="edge2" class="edge">
<title>n_1_2_3_6&#45;&gt;n_1_3_6</title>
<path fill="none" stroke="black" d="M226.62,-243.13C209.9,-231.61 189.92,-217.84 172.89,-206.11"/>
<polygon fill="black" stroke="black" points="175.24,-203.48 165.02,-200.68 171.27,-209.24 175.24,-203.48"/>
</g>
<!-- n_2 -->
<g id="node8" class="node">
<title>n_2</title>
<polygon fill="none" stroke="black" points="238.5,-166.38 238.5,-191.62 303.5,-191.62 303.5,-166.38 238.5,-166.38"/>
<text text-anchor="start" x="245.5" y="-177.07" font-family="Times New Roman,serif" font-weight="bold" font-size="9.00">Overweight I</text>
<polygon fill="none" stroke="black" points="237.5,-165.38 237.5,-192.62 304.5,-192.62 304.5,-165.38 237.5,-165.38"/>
</g>
<!-- n_1_2_3_6&#45;&gt;n_2 -->
<g id="edge7" class="edge">
<title>n_1_2_3_6&#45;&gt;n_2</title>
<path fill="none" stroke="black" d="M264.51,-243.13C265.62,-232.28 266.94,-219.45 268.1,-208.19"/>
<polygon fill="black" stroke="black" points="271.58,-208.58 269.12,-198.28 264.62,-207.87 271.58,-208.58"/>
</g>
<!-- n_3_6 -->
<g id="node4" class="node">
<title>n_3_6</title>
<polygon fill="none" stroke="black" points="35,-84.38 35,-109.62 103,-109.62 103,-84.38 35,-84.38"/>
<text text-anchor="start" x="42" y="-95.08" font-family="Times New Roman,serif" font-weight="bold" font-size="9.00">Overweight II</text>
<polygon fill="none" stroke="black" points="103,-84.38 103,-109.62 159,-109.62 159,-84.38 103,-84.38"/>
<text text-anchor="start" x="110" y="-95.08" font-family="Times New Roman,serif" font-weight="bold" font-size="9.00">Obesity III</text>
<polygon fill="none" stroke="black" points="34,-83.38 34,-110.62 160,-110.62 160,-83.38 34,-83.38"/>
</g>
<!-- n_1_3_6&#45;&gt;n_3_6 -->
<g id="edge3" class="edge">
<title>n_1_3_6&#45;&gt;n_3_6</title>
<path fill="none" stroke="black" d="M125.61,-158.22C120.86,-148.23 115.03,-135.95 109.87,-125.09"/>
<polygon fill="black" stroke="black" points="113.1,-123.74 105.65,-116.21 106.78,-126.75 113.1,-123.74"/>
</g>
<!-- n_1 -->
<g id="node7" class="node">
<title>n_1</title>
<polygon fill="none" stroke="black" points="206,-84.38 206,-109.62 250,-109.62 250,-84.38 206,-84.38"/>
<text text-anchor="start" x="213" y="-95.08" font-family="Times New Roman,serif" font-weight="bold" font-size="9.00">Normal</text>
<polygon fill="none" stroke="black" points="205,-83.38 205,-110.62 251,-110.62 251,-83.38 205,-83.38"/>
</g>
<!-- n_1_3_6&#45;&gt;n_1 -->
<g id="edge6" class="edge">
<title>n_1_3_6&#45;&gt;n_1</title>
<path fill="none" stroke="black" d="M157.99,-158.22C170.7,-147.29 186.58,-133.63 200.01,-122.08"/>
<polygon fill="black" stroke="black" points="201.97,-125.01 207.27,-115.83 197.41,-119.7 201.97,-125.01"/>
</g>
<!-- n_3 -->
<g id="node5" class="node">
<title>n_3</title>
<polygon fill="none" stroke="black" points="9,-5.38 9,-30.62 77,-30.62 77,-5.38 9,-5.38"/>
<text text-anchor="start" x="16" y="-16.07" font-family="Times New Roman,serif" font-weight="bold" font-size="9.00">Overweight II</text>
<polygon fill="none" stroke="black" points="8,-4.38 8,-31.62 78,-31.62 78,-4.38 8,-4.38"/>
</g>
<!-- n_3_6&#45;&gt;n_3 -->
<g id="edge4" class="edge">
<title>n_3_6&#45;&gt;n_3</title>
<path fill="none" stroke="black" d="M85.28,-79.29C78.33,-69.37 69.35,-56.57 61.46,-45.32"/>
<polygon fill="black" stroke="black" points="64.36,-43.36 55.75,-37.18 58.63,-47.38 64.36,-43.36"/>
</g>
<!-- n_6 -->
<g id="node6" class="node">
<title>n_6</title>
<polygon fill="none" stroke="black" points="124,-5.38 124,-30.62 180,-30.62 180,-5.38 124,-5.38"/>
<text text-anchor="start" x="131" y="-16.07" font-family="Times New Roman,serif" font-weight="bold" font-size="9.00">Obesity III</text>
<polygon fill="none" stroke="black" points="123,-4.38 123,-31.62 181,-31.62 181,-4.38 123,-4.38"/>
</g>
<!-- n_3_6&#45;&gt;n_6 -->
<g id="edge5" class="edge">
<title>n_3_6&#45;&gt;n_6</title>
<path fill="none" stroke="black" d="M108.93,-79.29C116.09,-69.27 125.35,-56.31 133.44,-44.98"/>
<polygon fill="black" stroke="black" points="136.06,-47.34 139.02,-37.17 130.36,-43.28 136.06,-47.34"/>
</g>
<!-- n_0_5 -->
<g id="node10" class="node">
<title>n_0_5</title>
<polygon fill="none" stroke="black" points="366.38,-166.38 366.38,-191.62 454.62,-191.62 454.62,-166.38 366.38,-166.38"/>
<text text-anchor="start" x="373.38" y="-177.07" font-family="Times New Roman,serif" font-weight="bold" font-size="9.00">Insufficient weight</text>
<polygon fill="none" stroke="black" points="454.62,-166.38 454.62,-191.62 507.62,-191.62 507.62,-166.38 454.62,-166.38"/>
<text text-anchor="start" x="461.62" y="-177.07" font-family="Times New Roman,serif" font-weight="bold" font-size="9.00">Obesity II</text>
<polygon fill="none" stroke="black" points="365.38,-165.38 365.38,-192.62 508.62,-192.62 508.62,-165.38 365.38,-165.38"/>
</g>
<!-- n_0_4_5&#45;&gt;n_0_5 -->
<g id="edge9" class="edge">
<title>n_0_4_5&#45;&gt;n_0_5</title>
<path fill="none" stroke="black" d="M443.18,-247.64C442.11,-235.91 440.74,-220.86 439.55,-207.94"/>
<polygon fill="black" stroke="black" points="443.07,-207.98 438.68,-198.34 436.1,-208.62 443.07,-207.98"/>
</g>
<!-- n_4 -->
<g id="node13" class="node">
<title>n_4</title>
<polygon fill="none" stroke="black" points="555,-166.38 555,-191.62 605,-191.62 605,-166.38 555,-166.38"/>
<text text-anchor="start" x="562" y="-177.07" font-family="Times New Roman,serif" font-weight="bold" font-size="9.00">Obesity I</text>
<polygon fill="none" stroke="black" points="554,-165.38 554,-192.62 606,-192.62 606,-165.38 554,-165.38"/>
</g>
<!-- n_0_4_5&#45;&gt;n_4 -->
<g id="edge12" class="edge">
<title>n_0_4_5&#45;&gt;n_4</title>
<path fill="none" stroke="black" d="M475.63,-247.64C496.14,-234.35 523.2,-216.81 544.63,-202.93"/>
<polygon fill="black" stroke="black" points="546.27,-206.03 552.76,-197.66 542.47,-200.16 546.27,-206.03"/>
</g>
<!-- n_0 -->
<g id="node11" class="node">
<title>n_0</title>
<polygon fill="none" stroke="black" points="344.88,-84.38 344.88,-109.62 433.12,-109.62 433.12,-84.38 344.88,-84.38"/>
<text text-anchor="start" x="351.88" y="-95.08" font-family="Times New Roman,serif" font-weight="bold" font-size="9.00">Insufficient weight</text>
<polygon fill="none" stroke="black" points="343.88,-83.38 343.88,-110.62 434.12,-110.62 434.12,-83.38 343.88,-83.38"/>
</g>
<!-- n_0_5&#45;&gt;n_0 -->
<g id="edge10" class="edge">
<title>n_0_5&#45;&gt;n_0</title>
<path fill="none" stroke="black" d="M426.82,-161.03C420.46,-150.43 412.13,-136.54 404.9,-124.51"/>
<polygon fill="black" stroke="black" points="408.09,-123.01 399.94,-116.24 402.09,-126.62 408.09,-123.01"/>
</g>
<!-- n_5 -->
<g id="node12" class="node">
<title>n_5</title>
<polygon fill="none" stroke="black" points="480.5,-84.38 480.5,-109.62 533.5,-109.62 533.5,-84.38 480.5,-84.38"/>
<text text-anchor="start" x="487.5" y="-95.08" font-family="Times New Roman,serif" font-weight="bold" font-size="9.00">Obesity II</text>
<polygon fill="none" stroke="black" points="479.5,-83.38 479.5,-110.62 534.5,-110.62 534.5,-83.38 479.5,-83.38"/>
</g>
<!-- n_0_5&#45;&gt;n_5 -->
<g id="edge11" class="edge">
<title>n_0_5&#45;&gt;n_5</title>
<path fill="none" stroke="black" d="M451.85,-161.03C461.4,-150.11 474.01,-135.71 484.75,-123.43"/>
<polygon fill="black" stroke="black" points="487.23,-125.91 491.18,-116.08 481.96,-121.3 487.23,-125.91"/>
</g>
</g>
</svg>
