<?xml version="1.0" encoding="UTF-8" standalone="no"?>
<!DOCTYPE svg PUBLIC "-//W3C//DTD SVG 1.1//EN"
 "http://www.w3.org/Graphics/SVG/1.1/DTD/svg11.dtd">
<!-- Generated by graphviz version 10.0.1 (20240210.2158)
 -->
<!-- Title: ND Pages: 1 -->
<svg width="593pt" height="405pt"
 viewBox="0.00 0.00 593.00 405.00" xmlns="http://www.w3.org/2000/svg" xmlns:xlink="http://www.w3.org/1999/xlink">
<g id="graph0" class="graph" transform="scale(1 1) rotate(0) translate(4 401)">
<title>ND</title>
<polygon fill="white" stroke="none" points="-4,4 -4,-401 589,-401 589,4 -4,4"/>
<!-- n_0_1_2_3_4_5_6 -->
<g id="node1" class="node">
<title>n_0_1_2_3_4_5_6</title>
<polygon fill="none" stroke="black" points="264.38,-342 264.38,-392 352.62,-392 352.62,-342 264.38,-342"/>
<text text-anchor="start" x="271.38" y="-377.45" font-family="Times New Roman,serif" font-weight="bold" font-size="9.00">Insufficient weight</text>
<text text-anchor="start" x="281.5" y="-368.45" font-family="Times New Roman,serif" font-weight="bold" font-size="9.00">Overweight II</text>
<text text-anchor="start" x="290.5" y="-359.45" font-family="Times New Roman,serif" font-weight="bold" font-size="9.00">Obesity I</text>
<text text-anchor="start" x="289" y="-350.45" font-family="Times New Roman,serif" font-weight="bold" font-size="9.00">Obesity II</text>
<polygon fill="none" stroke="black" points="352.62,-342 352.62,-392 417.62,-392 417.62,-342 352.62,-342"/>
<text text-anchor="start" x="370.12" y="-372.95" font-family="Times New Roman,serif" font-weight="bold" font-size="9.00">Normal</text>
<text text-anchor="start" x="359.62" y="-363.95" font-family="Times New Roman,serif" font-weight="bold" font-size="9.00">Overweight I</text>
<text text-anchor="start" x="364.12" y="-354.95" font-family="Times New Roman,serif" font-weight="bold" font-size="9.00">Obesity III</text>
<polygon fill="none" stroke="black" points="263.38,-341 263.38,-393 418.62,-393 418.62,-341 263.38,-341"/>
</g>
<!-- n_0_3_4_5 -->
<g id="node2" class="node">
<title>n_0_3_4_5</title>
<polygon fill="none" stroke="black" points="169.88,-248 169.88,-289 237.88,-289 237.88,-248 169.88,-248"/>
<text text-anchor="start" x="176.88" y="-274.45" font-family="Times New Roman,serif" font-weight="bold" font-size="9.00">Overweight II</text>
<text text-anchor="start" x="185.88" y="-265.45" font-family="Times New Roman,serif" font-weight="bold" font-size="9.00">Obesity I</text>
<text text-anchor="start" x="184.38" y="-256.45" font-family="Times New Roman,serif" font-weight="bold" font-size="9.00">Obesity II</text>
<polygon fill="none" stroke="black" points="237.88,-248 237.88,-289 326.12,-289 326.12,-248 237.88,-248"/>
<text text-anchor="start" x="244.88" y="-266.57" font-family="Times New Roman,serif" font-weight="bold" font-size="9.00">Insufficient weight</text>
<polygon fill="none" stroke="black" points="168.88,-247 168.88,-290 327.12,-290 327.12,-247 168.88,-247"/>
</g>
<!-- n_0_1_2_3_4_5_6&#45;&gt;n_0_3_4_5 -->
<g id="edge1" class="edge">
<title>n_0_1_2_3_4_5_6&#45;&gt;n_0_3_4_5</title>
<path fill="none" stroke="black" d="M313.1,-337.05C302.42,-325.97 290.18,-313.26 279.21,-301.88"/>
<polygon fill="black" stroke="black" points="282,-299.74 272.54,-294.96 276.96,-304.59 282,-299.74"/>
</g>
<!-- n_1_2_6 -->
<g id="node9" class="node">
<title>n_1_2_6</title>
<polygon fill="none" stroke="black" points="373.5,-252.5 373.5,-284.5 438.5,-284.5 438.5,-252.5 373.5,-252.5"/>
<text text-anchor="start" x="391" y="-269.95" font-family="Times New Roman,serif" font-weight="bold" font-size="9.00">Normal</text>
<text text-anchor="start" x="380.5" y="-260.95" font-family="Times New Roman,serif" font-weight="bold" font-size="9.00">Overweight I</text>
<polygon fill="none" stroke="black" points="438.5,-252.5 438.5,-284.5 494.5,-284.5 494.5,-252.5 438.5,-252.5"/>
<text text-anchor="start" x="445.5" y="-266.57" font-family="Times New Roman,serif" font-weight="bold" font-size="9.00">Obesity III</text>
<polygon fill="none" stroke="black" points="372.5,-251.5 372.5,-285.5 495.5,-285.5 495.5,-251.5 372.5,-251.5"/>
</g>
<!-- n_0_1_2_3_4_5_6&#45;&gt;n_1_2_6 -->
<g id="edge8" class="edge">
<title>n_0_1_2_3_4_5_6&#45;&gt;n_1_2_6</title>
<path fill="none" stroke="black" d="M368.9,-337.05C380.99,-324.51 395.08,-309.89 407.06,-297.46"/>
<polygon fill="black" stroke="black" points="409.49,-299.98 413.91,-290.35 404.45,-295.12 409.49,-299.98"/>
</g>
<!-- n_3_4_5 -->
<g id="node3" class="node">
<title>n_3_4_5</title>
<polygon fill="none" stroke="black" points="51.5,-163 51.5,-195 119.5,-195 119.5,-163 51.5,-163"/>
<text text-anchor="start" x="58.5" y="-180.45" font-family="Times New Roman,serif" font-weight="bold" font-size="9.00">Overweight II</text>
<text text-anchor="start" x="67.5" y="-171.45" font-family="Times New Roman,serif" font-weight="bold" font-size="9.00">Obesity I</text>
<polygon fill="none" stroke="black" points="119.5,-163 119.5,-195 172.5,-195 172.5,-163 119.5,-163"/>
<text text-anchor="start" x="126.5" y="-177.07" font-family="Times New Roman,serif" font-weight="bold" font-size="9.00">Obesity II</text>
<polygon fill="none" stroke="black" points="50.5,-162 50.5,-196 173.5,-196 173.5,-162 50.5,-162"/>
</g>
<!-- n_0_3_4_5&#45;&gt;n_3_4_5 -->
<g id="edge2" class="edge">
<title>n_0_3_4_5&#45;&gt;n_3_4_5</title>
<path fill="none" stroke="black" d="M210.12,-243.13C192.13,-231.55 170.62,-217.71 152.33,-205.94"/>
<polygon fill="black" stroke="black" points="154.39,-203.11 144.09,-200.64 150.6,-209 154.39,-203.11"/>
</g>
<!-- n_0 -->
<g id="node8" class="node">
<title>n_0</title>
<polygon fill="none" stroke="black" points="219.88,-166.38 219.88,-191.62 308.12,-191.62 308.12,-166.38 219.88,-166.38"/>
<text text-anchor="start" x="226.88" y="-177.07" font-family="Times New Roman,serif" font-weight="bold" font-size="9.00">Insufficient weight</text>
<polygon fill="none" stroke="black" points="218.88,-165.38 218.88,-192.62 309.12,-192.62 309.12,-165.38 218.88,-165.38"/>
</g>
<!-- n_0_3_4_5&#45;&gt;n_0 -->
<g id="edge7" class="edge">
<title>n_0_3_4_5&#45;&gt;n_0</title>
<path fill="none" stroke="black" d="M252.46,-243.13C254.46,-232.17 256.84,-219.18 258.91,-207.84"/>
<polygon fill="black" stroke="black" points="262.31,-208.73 260.66,-198.26 255.42,-207.47 262.31,-208.73"/>
</g>
<!-- n_3_4 -->
<g id="node4" class="node">
<title>n_3_4</title>
<polygon fill="none" stroke="black" points="37,-84.38 37,-109.62 105,-109.62 105,-84.38 37,-84.38"/>
<text text-anchor="start" x="44" y="-95.08" font-family="Times New Roman,serif" font-weight="bold" font-size="9.00">Overweight II</text>
<polygon fill="none" stroke="black" points="105,-84.38 105,-109.62 155,-109.62 155,-84.38 105,-84.38"/>
<text text-anchor="start" x="112" y="-95.08" font-family="Times New Roman,serif" font-weight="bold" font-size="9.00">Obesity I</text>
<polygon fill="none" stroke="black" points="36,-83.38 36,-110.62 156,-110.62 156,-83.38 36,-83.38"/>
</g>
<!-- n_3_4_5&#45;&gt;n_3_4 -->
<g id="edge3" class="edge">
<title>n_3_4_5&#45;&gt;n_3_4</title>
<path fill="none" stroke="black" d="M108.04,-158.22C106.11,-148.54 103.74,-136.72 101.62,-126.11"/>
<polygon fill="black" stroke="black" points="105.06,-125.45 99.67,-116.33 98.19,-126.82 105.06,-125.45"/>
</g>
<!-- n_5 -->
<g id="node7" class="node">
<title>n_5</title>
<polygon fill="none" stroke="black" points="202.5,-84.38 202.5,-109.62 255.5,-109.62 255.5,-84.38 202.5,-84.38"/>
<text text-anchor="start" x="209.5" y="-95.08" font-family="Times New Roman,serif" font-weight="bold" font-size="9.00">Obesity II</text>
<polygon fill="none" stroke="black" points="201.5,-83.38 201.5,-110.62 256.5,-110.62 256.5,-83.38 201.5,-83.38"/>
</g>
<!-- n_3_4_5&#45;&gt;n_5 -->
<g id="edge6" class="edge">
<title>n_3_4_5&#45;&gt;n_5</title>
<path fill="none" stroke="black" d="M141.22,-158.02C157.67,-146.77 178.28,-132.68 195.39,-120.98"/>
<polygon fill="black" stroke="black" points="196.96,-124.15 203.24,-115.61 193.01,-118.37 196.96,-124.15"/>
</g>
<!-- n_3 -->
<g id="node5" class="node">
<title>n_3</title>
<polygon fill="none" stroke="black" points="9,-5.38 9,-30.62 77,-30.62 77,-5.38 9,-5.38"/>
<text text-anchor="start" x="16" y="-16.07" font-family="Times New Roman,serif" font-weight="bold" font-size="9.00">Overweight II</text>
<polygon fill="none" stroke="black" points="8,-4.38 8,-31.62 78,-31.62 78,-4.38 8,-4.38"/>
</g>
<!-- n_3_4&#45;&gt;n_3 -->
<g id="edge4" class="edge">
<title>n_3_4&#45;&gt;n_3</title>
<path fill="none" stroke="black" d="M84.5,-79.29C77.67,-69.37 68.86,-56.57 61.12,-45.32"/>
<polygon fill="black" stroke="black" points="64.07,-43.44 55.52,-37.19 58.31,-47.41 64.07,-43.44"/>
</g>
<!-- n_4 -->
<g id="node6" class="node">
<title>n_4</title>
<polygon fill="none" stroke="black" points="124,-5.38 124,-30.62 174,-30.62 174,-5.38 124,-5.38"/>
<text text-anchor="start" x="131" y="-16.07" font-family="Times New Roman,serif" font-weight="bold" font-size="9.00">Obesity I</text>
<polygon fill="none" stroke="black" points="123,-4.38 123,-31.62 175,-31.62 175,-4.38 123,-4.38"/>
</g>
<!-- n_3_4&#45;&gt;n_4 -->
<g id="edge5" class="edge">
<title>n_3_4&#45;&gt;n_4</title>
<path fill="none" stroke="black" d="M107.5,-79.29C114.33,-69.37 123.14,-56.57 130.88,-45.32"/>
<polygon fill="black" stroke="black" points="133.69,-47.41 136.48,-37.19 127.93,-43.44 133.69,-47.41"/>
</g>
<!-- n_1_2 -->
<g id="node10" class="node">
<title>n_1_2</title>
<polygon fill="none" stroke="black" points="363.5,-166.38 363.5,-191.62 407.5,-191.62 407.5,-166.38 363.5,-166.38"/>
<text text-anchor="start" x="370.5" y="-177.07" font-family="Times New Roman,serif" font-weight="bold" font-size="9.00">Normal</text>
<polygon fill="none" stroke="black" points="407.5,-166.38 407.5,-191.62 472.5,-191.62 472.5,-166.38 407.5,-166.38"/>
<text text-anchor="start" x="414.5" y="-177.07" font-family="Times New Roman,serif" font-weight="bold" font-size="9.00">Overweight I</text>
<polygon fill="none" stroke="black" points="362.5,-165.38 362.5,-192.62 473.5,-192.62 473.5,-165.38 362.5,-165.38"/>
</g>
<!-- n_1_2_6&#45;&gt;n_1_2 -->
<g id="edge9" class="edge">
<title>n_1_2_6&#45;&gt;n_1_2</title>
<path fill="none" stroke="black" d="M430.37,-247.64C428.22,-235.91 425.47,-220.86 423.11,-207.94"/>
<polygon fill="black" stroke="black" points="426.59,-207.53 421.35,-198.32 419.71,-208.79 426.59,-207.53"/>
</g>
<!-- n_6 -->
<g id="node13" class="node">
<title>n_6</title>
<polygon fill="none" stroke="black" points="520,-166.38 520,-191.62 576,-191.62 576,-166.38 520,-166.38"/>
<text text-anchor="start" x="527" y="-177.07" font-family="Times New Roman,serif" font-weight="bold" font-size="9.00">Obesity III</text>
<polygon fill="none" stroke="black" points="519,-165.38 519,-192.62 577,-192.62 577,-165.38 519,-165.38"/>
</g>
<!-- n_1_2_6&#45;&gt;n_6 -->
<g id="edge12" class="edge">
<title>n_1_2_6&#45;&gt;n_6</title>
<path fill="none" stroke="black" d="M459.87,-247.64C476.87,-234.59 499.21,-217.45 517.15,-203.68"/>
<polygon fill="black" stroke="black" points="519.07,-206.62 524.87,-197.75 514.81,-201.07 519.07,-206.62"/>
</g>
<!-- n_1 -->
<g id="node11" class="node">
<title>n_1</title>
<polygon fill="none" stroke="black" points="349,-84.38 349,-109.62 393,-109.62 393,-84.38 349,-84.38"/>
<text text-anchor="start" x="356" y="-95.08" font-family="Times New Roman,serif" font-weight="bold" font-size="9.00">Normal</text>
<polygon fill="none" stroke="black" points="348,-83.38 348,-110.62 394,-110.62 394,-83.38 348,-83.38"/>
</g>
<!-- n_1_2&#45;&gt;n_1 -->
<g id="edge10" class="edge">
<title>n_1_2&#45;&gt;n_1</title>
<path fill="none" stroke="black" d="M408.03,-161.03C401.86,-150.53 393.81,-136.82 386.78,-124.87"/>
<polygon fill="black" stroke="black" points="389.8,-123.1 381.72,-116.25 383.77,-126.64 389.8,-123.1"/>
</g>
<!-- n_2 -->
<g id="node12" class="node">
<title>n_2</title>
<polygon fill="none" stroke="black" points="440.5,-84.38 440.5,-109.62 505.5,-109.62 505.5,-84.38 440.5,-84.38"/>
<text text-anchor="start" x="447.5" y="-95.08" font-family="Times New Roman,serif" font-weight="bold" font-size="9.00">Overweight I</text>
<polygon fill="none" stroke="black" points="439.5,-83.38 439.5,-110.62 506.5,-110.62 506.5,-83.38 439.5,-83.38"/>
</g>
<!-- n_1_2&#45;&gt;n_2 -->
<g id="edge11" class="edge">
<title>n_1_2&#45;&gt;n_2</title>
<path fill="none" stroke="black" d="M429.66,-161.03C437.03,-150.32 446.69,-136.27 455.02,-124.15"/>
<polygon fill="black" stroke="black" points="457.71,-126.41 460.5,-116.19 451.95,-122.45 457.71,-126.41"/>
</g>
</g>
</svg>
