<?xml version="1.0" encoding="UTF-8" standalone="no"?>
<!DOCTYPE svg PUBLIC "-//W3C//DTD SVG 1.1//EN"
 "http://www.w3.org/Graphics/SVG/1.1/DTD/svg11.dtd">
<!-- Generated by graphviz version 10.0.1 (20240210.2158)
 -->
<!-- Title: ND Pages: 1 -->
<svg width="579pt" height="638pt"
 viewBox="0.00 0.00 578.62 638.00" xmlns="http://www.w3.org/2000/svg" xmlns:xlink="http://www.w3.org/1999/xlink">
<g id="graph0" class="graph" transform="scale(1 1) rotate(0) translate(4 634)">
<title>ND</title>
<polygon fill="white" stroke="none" points="-4,4 -4,-634 574.62,-634 574.62,4 -4,4"/>
<!-- n_0_1_2_3_4_5_6 -->
<g id="node1" class="node">
<title>n_0_1_2_3_4_5_6</title>
<polygon fill="none" stroke="black" points="362.38,-557 362.38,-625 430.38,-625 430.38,-557 362.38,-557"/>
<text text-anchor="start" x="381.38" y="-610.45" font-family="Times New Roman,serif" font-weight="bold" font-size="9.00">Normal</text>
<text text-anchor="start" x="370.88" y="-601.45" font-family="Times New Roman,serif" font-weight="bold" font-size="9.00">Overweight I</text>
<text text-anchor="start" x="369.38" y="-592.45" font-family="Times New Roman,serif" font-weight="bold" font-size="9.00">Overweight II</text>
<text text-anchor="start" x="378.38" y="-583.45" font-family="Times New Roman,serif" font-weight="bold" font-size="9.00">Obesity I</text>
<text text-anchor="start" x="376.88" y="-574.45" font-family="Times New Roman,serif" font-weight="bold" font-size="9.00">Obesity II</text>
<text text-anchor="start" x="375.38" y="-565.45" font-family="Times New Roman,serif" font-weight="bold" font-size="9.00">Obesity III</text>
<polygon fill="none" stroke="black" points="430.38,-557 430.38,-625 518.62,-625 518.62,-557 430.38,-557"/>
<text text-anchor="start" x="437.38" y="-589.08" font-family="Times New Roman,serif" font-weight="bold" font-size="9.00">Insufficient weight</text>
<polygon fill="none" stroke="black" points="361.38,-556 361.38,-626 519.62,-626 519.62,-556 361.38,-556"/>
</g>
<!-- n_1_2_3_4_5_6 -->
<g id="node2" class="node">
<title>n_1_2_3_4_5_6</title>
<polygon fill="none" stroke="black" points="302.5,-445 302.5,-504 370.5,-504 370.5,-445 302.5,-445"/>
<text text-anchor="start" x="321.5" y="-489.45" font-family="Times New Roman,serif" font-weight="bold" font-size="9.00">Normal</text>
<text text-anchor="start" x="311" y="-480.45" font-family="Times New Roman,serif" font-weight="bold" font-size="9.00">Overweight I</text>
<text text-anchor="start" x="309.5" y="-471.45" font-family="Times New Roman,serif" font-weight="bold" font-size="9.00">Overweight II</text>
<text text-anchor="start" x="318.5" y="-462.45" font-family="Times New Roman,serif" font-weight="bold" font-size="9.00">Obesity I</text>
<text text-anchor="start" x="317" y="-453.45" font-family="Times New Roman,serif" font-weight="bold" font-size="9.00">Obesity II</text>
<polygon fill="none" stroke="black" points="370.5,-445 370.5,-504 426.5,-504 426.5,-445 370.5,-445"/>
<text text-anchor="start" x="377.5" y="-472.57" font-family="Times New Roman,serif" font-weight="bold" font-size="9.00">Obesity III</text>
<polygon fill="none" stroke="black" points="301.5,-444 301.5,-505 427.5,-505 427.5,-444 301.5,-444"/>
</g>
<!-- n_0_1_2_3_4_5_6&#45;&gt;n_1_2_3_4_5_6 -->
<g id="edge1" class="edge">
<title>n_0_1_2_3_4_5_6&#45;&gt;n_1_2_3_4_5_6</title>
<path fill="none" stroke="black" d="M415.4,-552.19C408.18,-541.31 400.25,-529.36 392.85,-518.21"/>
<polygon fill="black" stroke="black" points="395.79,-516.31 387.34,-509.91 389.96,-520.18 395.79,-516.31"/>
</g>
<!-- n_0 -->
<g id="node13" class="node">
<title>n_0</title>
<polygon fill="none" stroke="black" points="473.38,-461.88 473.38,-487.12 561.62,-487.12 561.62,-461.88 473.38,-461.88"/>
<text text-anchor="start" x="480.38" y="-472.57" font-family="Times New Roman,serif" font-weight="bold" font-size="9.00">Insufficient weight</text>
<polygon fill="none" stroke="black" points="472.38,-460.88 472.38,-488.12 562.62,-488.12 562.62,-460.88 472.38,-460.88"/>
</g>
<!-- n_0_1_2_3_4_5_6&#45;&gt;n_0 -->
<g id="edge12" class="edge">
<title>n_0_1_2_3_4_5_6&#45;&gt;n_0</title>
<path fill="none" stroke="black" d="M465.93,-552.19C477.07,-535.63 489.86,-516.6 499.92,-501.64"/>
<polygon fill="black" stroke="black" points="502.57,-503.97 505.25,-493.72 496.76,-500.06 502.57,-503.97"/>
</g>
<!-- n_1_2_3_4_5 -->
<g id="node3" class="node">
<title>n_1_2_3_4_5</title>
<polygon fill="none" stroke="black" points="238.5,-342 238.5,-392 306.5,-392 306.5,-342 238.5,-342"/>
<text text-anchor="start" x="257.5" y="-377.45" font-family="Times New Roman,serif" font-weight="bold" font-size="9.00">Normal</text>
<text text-anchor="start" x="247" y="-368.45" font-family="Times New Roman,serif" font-weight="bold" font-size="9.00">Overweight I</text>
<text text-anchor="start" x="245.5" y="-359.45" font-family="Times New Roman,serif" font-weight="bold" font-size="9.00">Overweight II</text>
<text text-anchor="start" x="253" y="-350.45" font-family="Times New Roman,serif" font-weight="bold" font-size="9.00">Obesity II</text>
<polygon fill="none" stroke="black" points="306.5,-342 306.5,-392 356.5,-392 356.5,-342 306.5,-342"/>
<text text-anchor="start" x="313.5" y="-365.07" font-family="Times New Roman,serif" font-weight="bold" font-size="9.00">Obesity I</text>
<polygon fill="none" stroke="black" points="237.5,-341 237.5,-393 357.5,-393 357.5,-341 237.5,-341"/>
</g>
<!-- n_1_2_3_4_5_6&#45;&gt;n_1_2_3_4_5 -->
<g id="edge2" class="edge">
<title>n_1_2_3_4_5_6&#45;&gt;n_1_2_3_4_5</title>
<path fill="none" stroke="black" d="M343.3,-440.12C336.48,-429.38 328.87,-417.4 321.84,-406.33"/>
<polygon fill="black" stroke="black" points="324.98,-404.74 316.66,-398.18 319.07,-408.49 324.98,-404.74"/>
</g>
<!-- n_6 -->
<g id="node12" class="node">
<title>n_6</title>
<polygon fill="none" stroke="black" points="403.5,-354.38 403.5,-379.62 459.5,-379.62 459.5,-354.38 403.5,-354.38"/>
<text text-anchor="start" x="410.5" y="-365.07" font-family="Times New Roman,serif" font-weight="bold" font-size="9.00">Obesity III</text>
<polygon fill="none" stroke="black" points="402.5,-353.38 402.5,-380.62 460.5,-380.62 460.5,-353.38 402.5,-353.38"/>
</g>
<!-- n_1_2_3_4_5_6&#45;&gt;n_6 -->
<g id="edge11" class="edge">
<title>n_1_2_3_4_5_6&#45;&gt;n_6</title>
<path fill="none" stroke="black" d="M385.7,-440.12C395.08,-425.35 405.95,-408.23 414.75,-394.38"/>
<polygon fill="black" stroke="black" points="417.52,-396.55 419.92,-386.23 411.61,-392.79 417.52,-396.55"/>
</g>
<!-- n_1_2_3_5 -->
<g id="node4" class="node">
<title>n_1_2_3_5</title>
<polygon fill="none" stroke="black" points="171,-248 171,-289 239,-289 239,-248 171,-248"/>
<text text-anchor="start" x="190" y="-274.45" font-family="Times New Roman,serif" font-weight="bold" font-size="9.00">Normal</text>
<text text-anchor="start" x="179.5" y="-265.45" font-family="Times New Roman,serif" font-weight="bold" font-size="9.00">Overweight I</text>
<text text-anchor="start" x="178" y="-256.45" font-family="Times New Roman,serif" font-weight="bold" font-size="9.00">Overweight II</text>
<polygon fill="none" stroke="black" points="239,-248 239,-289 292,-289 292,-248 239,-248"/>
<text text-anchor="start" x="246" y="-266.57" font-family="Times New Roman,serif" font-weight="bold" font-size="9.00">Obesity II</text>
<polygon fill="none" stroke="black" points="170,-247 170,-290 293,-290 293,-247 170,-247"/>
</g>
<!-- n_1_2_3_4_5&#45;&gt;n_1_2_3_5 -->
<g id="edge3" class="edge">
<title>n_1_2_3_4_5&#45;&gt;n_1_2_3_5</title>
<path fill="none" stroke="black" d="M277.7,-337.05C270.41,-326.4 262.1,-314.25 254.56,-303.22"/>
<polygon fill="black" stroke="black" points="257.56,-301.4 249.03,-295.12 251.78,-305.35 257.56,-301.4"/>
</g>
<!-- n_4 -->
<g id="node11" class="node">
<title>n_4</title>
<polygon fill="none" stroke="black" points="339.5,-255.88 339.5,-281.12 389.5,-281.12 389.5,-255.88 339.5,-255.88"/>
<text text-anchor="start" x="346.5" y="-266.57" font-family="Times New Roman,serif" font-weight="bold" font-size="9.00">Obesity I</text>
<polygon fill="none" stroke="black" points="338.5,-254.88 338.5,-282.12 390.5,-282.12 390.5,-254.88 338.5,-254.88"/>
</g>
<!-- n_1_2_3_4_5&#45;&gt;n_4 -->
<g id="edge10" class="edge">
<title>n_1_2_3_4_5&#45;&gt;n_4</title>
<path fill="none" stroke="black" d="M317.6,-337.05C326.76,-323.86 337.51,-308.38 346.4,-295.56"/>
<polygon fill="black" stroke="black" points="349.1,-297.82 351.93,-287.61 343.35,-293.83 349.1,-297.82"/>
</g>
<!-- n_1_2_3 -->
<g id="node5" class="node">
<title>n_1_2_3</title>
<polygon fill="none" stroke="black" points="110.5,-163 110.5,-195 178.5,-195 178.5,-163 110.5,-163"/>
<text text-anchor="start" x="119" y="-180.45" font-family="Times New Roman,serif" font-weight="bold" font-size="9.00">Overweight I</text>
<text text-anchor="start" x="117.5" y="-171.45" font-family="Times New Roman,serif" font-weight="bold" font-size="9.00">Overweight II</text>
<polygon fill="none" stroke="black" points="178.5,-163 178.5,-195 222.5,-195 222.5,-163 178.5,-163"/>
<text text-anchor="start" x="185.5" y="-177.07" font-family="Times New Roman,serif" font-weight="bold" font-size="9.00">Normal</text>
<polygon fill="none" stroke="black" points="109.5,-162 109.5,-196 223.5,-196 223.5,-162 109.5,-162"/>
</g>
<!-- n_1_2_3_5&#45;&gt;n_1_2_3 -->
<g id="edge4" class="edge">
<title>n_1_2_3_5&#45;&gt;n_1_2_3</title>
<path fill="none" stroke="black" d="M213.39,-243.13C205.47,-232.46 196.12,-219.87 187.85,-208.75"/>
<polygon fill="black" stroke="black" points="190.9,-206.98 182.13,-201.04 185.28,-211.16 190.9,-206.98"/>
</g>
<!-- n_5 -->
<g id="node10" class="node">
<title>n_5</title>
<polygon fill="none" stroke="black" points="270,-166.38 270,-191.62 323,-191.62 323,-166.38 270,-166.38"/>
<text text-anchor="start" x="277" y="-177.07" font-family="Times New Roman,serif" font-weight="bold" font-size="9.00">Obesity II</text>
<polygon fill="none" stroke="black" points="269,-165.38 269,-192.62 324,-192.62 324,-165.38 269,-165.38"/>
</g>
<!-- n_1_2_3_5&#45;&gt;n_5 -->
<g id="edge9" class="edge">
<title>n_1_2_3_5&#45;&gt;n_5</title>
<path fill="none" stroke="black" d="M249.61,-243.13C258.26,-231.48 268.62,-217.53 277.4,-205.71"/>
<polygon fill="black" stroke="black" points="279.99,-208.1 283.14,-197.99 274.37,-203.93 279.99,-208.1"/>
</g>
<!-- n_2_3 -->
<g id="node6" class="node">
<title>n_2_3</title>
<polygon fill="none" stroke="black" points="32,-84.38 32,-109.62 97,-109.62 97,-84.38 32,-84.38"/>
<text text-anchor="start" x="39" y="-95.08" font-family="Times New Roman,serif" font-weight="bold" font-size="9.00">Overweight I</text>
<polygon fill="none" stroke="black" points="97,-84.38 97,-109.62 165,-109.62 165,-84.38 97,-84.38"/>
<text text-anchor="start" x="104" y="-95.08" font-family="Times New Roman,serif" font-weight="bold" font-size="9.00">Overweight II</text>
<polygon fill="none" stroke="black" points="31,-83.38 31,-110.62 166,-110.62 166,-83.38 31,-83.38"/>
</g>
<!-- n_1_2_3&#45;&gt;n_2_3 -->
<g id="edge5" class="edge">
<title>n_1_2_3&#45;&gt;n_2_3</title>
<path fill="none" stroke="black" d="M149.69,-158.22C140.75,-147.71 129.66,-134.66 120.1,-123.41"/>
<polygon fill="black" stroke="black" points="122.94,-121.35 113.8,-116 117.61,-125.88 122.94,-121.35"/>
</g>
<!-- n_1 -->
<g id="node9" class="node">
<title>n_1</title>
<polygon fill="none" stroke="black" points="212.5,-84.38 212.5,-109.62 256.5,-109.62 256.5,-84.38 212.5,-84.38"/>
<text text-anchor="start" x="219.5" y="-95.08" font-family="Times New Roman,serif" font-weight="bold" font-size="9.00">Normal</text>
<polygon fill="none" stroke="black" points="211.5,-83.38 211.5,-110.62 257.5,-110.62 257.5,-83.38 211.5,-83.38"/>
</g>
<!-- n_1_2_3&#45;&gt;n_1 -->
<g id="edge8" class="edge">
<title>n_1_2_3&#45;&gt;n_1</title>
<path fill="none" stroke="black" d="M183.31,-158.22C192.25,-147.71 203.34,-134.66 212.9,-123.41"/>
<polygon fill="black" stroke="black" points="215.39,-125.88 219.2,-116 210.06,-121.35 215.39,-125.88"/>
</g>
<!-- n_2 -->
<g id="node7" class="node">
<title>n_2</title>
<polygon fill="none" stroke="black" points="9,-5.38 9,-30.62 74,-30.62 74,-5.38 9,-5.38"/>
<text text-anchor="start" x="16" y="-16.07" font-family="Times New Roman,serif" font-weight="bold" font-size="9.00">Overweight I</text>
<polygon fill="none" stroke="black" points="8,-4.38 8,-31.62 75,-31.62 75,-4.38 8,-4.38"/>
</g>
<!-- n_2_3&#45;&gt;n_2 -->
<g id="edge6" class="edge">
<title>n_2_3&#45;&gt;n_2</title>
<path fill="none" stroke="black" d="M86.13,-79.29C78.71,-69.27 69.12,-56.31 60.73,-44.98"/>
<polygon fill="black" stroke="black" points="63.7,-43.11 54.94,-37.16 58.08,-47.28 63.7,-43.11"/>
</g>
<!-- n_3 -->
<g id="node8" class="node">
<title>n_3</title>
<polygon fill="none" stroke="black" points="121.5,-5.38 121.5,-30.62 189.5,-30.62 189.5,-5.38 121.5,-5.38"/>
<text text-anchor="start" x="128.5" y="-16.07" font-family="Times New Roman,serif" font-weight="bold" font-size="9.00">Overweight II</text>
<polygon fill="none" stroke="black" points="120.5,-4.38 120.5,-31.62 190.5,-31.62 190.5,-4.38 120.5,-4.38"/>
</g>
<!-- n_2_3&#45;&gt;n_3 -->
<g id="edge7" class="edge">
<title>n_2_3&#45;&gt;n_3</title>
<path fill="none" stroke="black" d="M110.87,-79.29C118.29,-69.27 127.88,-56.31 136.27,-44.98"/>
<polygon fill="black" stroke="black" points="138.92,-47.28 142.06,-37.16 133.3,-43.11 138.92,-47.28"/>
</g>
</g>
</svg>
