<?xml version="1.0" encoding="UTF-8" standalone="no"?>
<!DOCTYPE svg PUBLIC "-//W3C//DTD SVG 1.1//EN"
 "http://www.w3.org/Graphics/SVG/1.1/DTD/svg11.dtd">
<!-- Generated by graphviz version 10.0.1 (20240210.2158)
 -->
<!-- Title: ND Pages: 1 -->
<svg width="563pt" height="638pt"
 viewBox="0.00 0.00 563.00 638.00" xmlns="http://www.w3.org/2000/svg" xmlns:xlink="http://www.w3.org/1999/xlink">
<g id="graph0" class="graph" transform="scale(1 1) rotate(0) translate(4 634)">
<title>ND</title>
<polygon fill="white" stroke="none" points="-4,4 -4,-634 559,-634 559,4 -4,4"/>
<!-- n_0_1_2_3_4_5_6 -->
<g id="node1" class="node">
<title>n_0_1_2_3_4_5_6</title>
<polygon fill="none" stroke="black" points="361.88,-557 361.88,-625 450.12,-625 450.12,-557 361.88,-557"/>
<text text-anchor="start" x="368.88" y="-610.45" font-family="Times New Roman,serif" font-weight="bold" font-size="9.00">Insufficient weight</text>
<text text-anchor="start" x="391" y="-601.45" font-family="Times New Roman,serif" font-weight="bold" font-size="9.00">Normal</text>
<text text-anchor="start" x="379" y="-592.45" font-family="Times New Roman,serif" font-weight="bold" font-size="9.00">Overweight II</text>
<text text-anchor="start" x="388" y="-583.45" font-family="Times New Roman,serif" font-weight="bold" font-size="9.00">Obesity I</text>
<text text-anchor="start" x="386.5" y="-574.45" font-family="Times New Roman,serif" font-weight="bold" font-size="9.00">Obesity II</text>
<text text-anchor="start" x="385" y="-565.45" font-family="Times New Roman,serif" font-weight="bold" font-size="9.00">Obesity III</text>
<polygon fill="none" stroke="black" points="450.12,-557 450.12,-625 515.12,-625 515.12,-557 450.12,-557"/>
<text text-anchor="start" x="457.12" y="-589.08" font-family="Times New Roman,serif" font-weight="bold" font-size="9.00">Overweight I</text>
<polygon fill="none" stroke="black" points="360.88,-556 360.88,-626 516.12,-626 516.12,-556 360.88,-556"/>
</g>
<!-- n_0_1_3_4_5_6 -->
<g id="node2" class="node">
<title>n_0_1_3_4_5_6</title>
<polygon fill="none" stroke="black" points="295.38,-445 295.38,-504 383.62,-504 383.62,-445 295.38,-445"/>
<text text-anchor="start" x="302.38" y="-489.45" font-family="Times New Roman,serif" font-weight="bold" font-size="9.00">Insufficient weight</text>
<text text-anchor="start" x="324.5" y="-480.45" font-family="Times New Roman,serif" font-weight="bold" font-size="9.00">Normal</text>
<text text-anchor="start" x="312.5" y="-471.45" font-family="Times New Roman,serif" font-weight="bold" font-size="9.00">Overweight II</text>
<text text-anchor="start" x="320" y="-462.45" font-family="Times New Roman,serif" font-weight="bold" font-size="9.00">Obesity II</text>
<text text-anchor="start" x="318.5" y="-453.45" font-family="Times New Roman,serif" font-weight="bold" font-size="9.00">Obesity III</text>
<polygon fill="none" stroke="black" points="383.62,-445 383.62,-504 433.62,-504 433.62,-445 383.62,-445"/>
<text text-anchor="start" x="390.62" y="-472.57" font-family="Times New Roman,serif" font-weight="bold" font-size="9.00">Obesity I</text>
<polygon fill="none" stroke="black" points="294.38,-444 294.38,-505 434.62,-505 434.62,-444 294.38,-444"/>
</g>
<!-- n_0_1_2_3_4_5_6&#45;&gt;n_0_1_3_4_5_6 -->
<g id="edge1" class="edge">
<title>n_0_1_2_3_4_5_6&#45;&gt;n_0_1_3_4_5_6</title>
<path fill="none" stroke="black" d="M414.06,-552.19C407.03,-541.31 399.31,-529.36 392.1,-518.21"/>
<polygon fill="black" stroke="black" points="395.11,-516.42 386.75,-509.92 389.24,-520.22 395.11,-516.42"/>
</g>
<!-- n_2 -->
<g id="node13" class="node">
<title>n_2</title>
<polygon fill="none" stroke="black" points="481,-461.88 481,-487.12 546,-487.12 546,-461.88 481,-461.88"/>
<text text-anchor="start" x="488" y="-472.57" font-family="Times New Roman,serif" font-weight="bold" font-size="9.00">Overweight I</text>
<polygon fill="none" stroke="black" points="480,-460.88 480,-488.12 547,-488.12 547,-460.88 480,-460.88"/>
</g>
<!-- n_0_1_2_3_4_5_6&#45;&gt;n_2 -->
<g id="edge12" class="edge">
<title>n_0_1_2_3_4_5_6&#45;&gt;n_2</title>
<path fill="none" stroke="black" d="M463.27,-552.19C474.01,-535.78 486.34,-516.96 496.1,-502.07"/>
<polygon fill="black" stroke="black" points="499.01,-504.01 501.56,-493.73 493.15,-500.18 499.01,-504.01"/>
</g>
<!-- n_0_1_3_5_6 -->
<g id="node3" class="node">
<title>n_0_1_3_5_6</title>
<polygon fill="none" stroke="black" points="211.38,-342 211.38,-392 279.38,-392 279.38,-342 211.38,-342"/>
<text text-anchor="start" x="230.38" y="-377.45" font-family="Times New Roman,serif" font-weight="bold" font-size="9.00">Normal</text>
<text text-anchor="start" x="218.38" y="-368.45" font-family="Times New Roman,serif" font-weight="bold" font-size="9.00">Overweight II</text>
<text text-anchor="start" x="225.88" y="-359.45" font-family="Times New Roman,serif" font-weight="bold" font-size="9.00">Obesity II</text>
<text text-anchor="start" x="224.38" y="-350.45" font-family="Times New Roman,serif" font-weight="bold" font-size="9.00">Obesity III</text>
<polygon fill="none" stroke="black" points="279.38,-342 279.38,-392 367.62,-392 367.62,-342 279.38,-342"/>
<text text-anchor="start" x="286.38" y="-365.07" font-family="Times New Roman,serif" font-weight="bold" font-size="9.00">Insufficient weight</text>
<polygon fill="none" stroke="black" points="210.38,-341 210.38,-393 368.62,-393 368.62,-341 210.38,-341"/>
</g>
<!-- n_0_1_3_4_5_6&#45;&gt;n_0_1_3_5_6 -->
<g id="edge2" class="edge">
<title>n_0_1_3_4_5_6&#45;&gt;n_0_1_3_5_6</title>
<path fill="none" stroke="black" d="M340.77,-440.12C333.06,-429.27 324.44,-417.16 316.51,-406"/>
<polygon fill="black" stroke="black" points="319.57,-404.25 310.92,-398.13 313.86,-408.31 319.57,-404.25"/>
</g>
<!-- n_4 -->
<g id="node12" class="node">
<title>n_4</title>
<polygon fill="none" stroke="black" points="414.5,-354.38 414.5,-379.62 464.5,-379.62 464.5,-354.38 414.5,-354.38"/>
<text text-anchor="start" x="421.5" y="-365.07" font-family="Times New Roman,serif" font-weight="bold" font-size="9.00">Obesity I</text>
<polygon fill="none" stroke="black" points="413.5,-353.38 413.5,-380.62 465.5,-380.62 465.5,-353.38 413.5,-353.38"/>
</g>
<!-- n_0_1_3_4_5_6&#45;&gt;n_4 -->
<g id="edge11" class="edge">
<title>n_0_1_3_4_5_6&#45;&gt;n_4</title>
<path fill="none" stroke="black" d="M388.23,-440.12C398.83,-425.21 411.14,-407.9 421.03,-393.98"/>
<polygon fill="black" stroke="black" points="423.63,-396.36 426.57,-386.18 417.93,-392.31 423.63,-396.36"/>
</g>
<!-- n_1_3_5_6 -->
<g id="node4" class="node">
<title>n_1_3_5_6</title>
<polygon fill="none" stroke="black" points="151.5,-248 151.5,-289 207.5,-289 207.5,-248 151.5,-248"/>
<text text-anchor="start" x="164.5" y="-274.45" font-family="Times New Roman,serif" font-weight="bold" font-size="9.00">Normal</text>
<text text-anchor="start" x="160" y="-265.45" font-family="Times New Roman,serif" font-weight="bold" font-size="9.00">Obesity II</text>
<text text-anchor="start" x="158.5" y="-256.45" font-family="Times New Roman,serif" font-weight="bold" font-size="9.00">Obesity III</text>
<polygon fill="none" stroke="black" points="207.5,-248 207.5,-289 275.5,-289 275.5,-248 207.5,-248"/>
<text text-anchor="start" x="214.5" y="-266.57" font-family="Times New Roman,serif" font-weight="bold" font-size="9.00">Overweight II</text>
<polygon fill="none" stroke="black" points="150.5,-247 150.5,-290 276.5,-290 276.5,-247 150.5,-247"/>
</g>
<!-- n_0_1_3_5_6&#45;&gt;n_1_3_5_6 -->
<g id="edge3" class="edge">
<title>n_0_1_3_5_6&#45;&gt;n_1_3_5_6</title>
<path fill="none" stroke="black" d="M266.7,-337.05C258.23,-326.29 248.55,-314 239.79,-302.88"/>
<polygon fill="black" stroke="black" points="242.57,-300.75 233.63,-295.06 237.07,-305.09 242.57,-300.75"/>
</g>
<!-- n_0 -->
<g id="node11" class="node">
<title>n_0</title>
<polygon fill="none" stroke="black" points="322.38,-255.88 322.38,-281.12 410.62,-281.12 410.62,-255.88 322.38,-255.88"/>
<text text-anchor="start" x="329.38" y="-266.57" font-family="Times New Roman,serif" font-weight="bold" font-size="9.00">Insufficient weight</text>
<polygon fill="none" stroke="black" points="321.38,-254.88 321.38,-282.12 411.62,-282.12 411.62,-254.88 321.38,-254.88"/>
</g>
<!-- n_0_1_3_5_6&#45;&gt;n_0 -->
<g id="edge10" class="edge">
<title>n_0_1_3_5_6&#45;&gt;n_0</title>
<path fill="none" stroke="black" d="M312.6,-337.05C323.23,-323.73 335.72,-308.07 346,-295.19"/>
<polygon fill="black" stroke="black" points="348.6,-297.55 352.1,-287.55 343.13,-293.18 348.6,-297.55"/>
</g>
<!-- n_1_5_6 -->
<g id="node5" class="node">
<title>n_1_5_6</title>
<polygon fill="none" stroke="black" points="98.5,-163 98.5,-195 154.5,-195 154.5,-163 98.5,-163"/>
<text text-anchor="start" x="107" y="-180.45" font-family="Times New Roman,serif" font-weight="bold" font-size="9.00">Obesity II</text>
<text text-anchor="start" x="105.5" y="-171.45" font-family="Times New Roman,serif" font-weight="bold" font-size="9.00">Obesity III</text>
<polygon fill="none" stroke="black" points="154.5,-163 154.5,-195 198.5,-195 198.5,-163 154.5,-163"/>
<text text-anchor="start" x="161.5" y="-177.07" font-family="Times New Roman,serif" font-weight="bold" font-size="9.00">Normal</text>
<polygon fill="none" stroke="black" points="97.5,-162 97.5,-196 199.5,-196 199.5,-162 97.5,-162"/>
</g>
<!-- n_1_3_5_6&#45;&gt;n_1_5_6 -->
<g id="edge4" class="edge">
<title>n_1_3_5_6&#45;&gt;n_1_5_6</title>
<path fill="none" stroke="black" d="M195.39,-243.13C187.47,-232.46 178.12,-219.87 169.85,-208.75"/>
<polygon fill="black" stroke="black" points="172.9,-206.98 164.13,-201.04 167.28,-211.16 172.9,-206.98"/>
</g>
<!-- n_3 -->
<g id="node10" class="node">
<title>n_3</title>
<polygon fill="none" stroke="black" points="245.5,-166.38 245.5,-191.62 313.5,-191.62 313.5,-166.38 245.5,-166.38"/>
<text text-anchor="start" x="252.5" y="-177.07" font-family="Times New Roman,serif" font-weight="bold" font-size="9.00">Overweight II</text>
<polygon fill="none" stroke="black" points="244.5,-165.38 244.5,-192.62 314.5,-192.62 314.5,-165.38 244.5,-165.38"/>
</g>
<!-- n_1_3_5_6&#45;&gt;n_3 -->
<g id="edge9" class="edge">
<title>n_1_3_5_6&#45;&gt;n_3</title>
<path fill="none" stroke="black" d="M231.88,-243.13C240.67,-231.48 251.19,-217.53 260.11,-205.71"/>
<polygon fill="black" stroke="black" points="262.71,-208.07 265.94,-197.98 257.12,-203.85 262.71,-208.07"/>
</g>
<!-- n_5_6 -->
<g id="node6" class="node">
<title>n_5_6</title>
<polygon fill="none" stroke="black" points="32,-84.38 32,-109.62 85,-109.62 85,-84.38 32,-84.38"/>
<text text-anchor="start" x="39" y="-95.08" font-family="Times New Roman,serif" font-weight="bold" font-size="9.00">Obesity II</text>
<polygon fill="none" stroke="black" points="85,-84.38 85,-109.62 141,-109.62 141,-84.38 85,-84.38"/>
<text text-anchor="start" x="92" y="-95.08" font-family="Times New Roman,serif" font-weight="bold" font-size="9.00">Obesity III</text>
<polygon fill="none" stroke="black" points="31,-83.38 31,-110.62 142,-110.62 142,-83.38 31,-83.38"/>
</g>
<!-- n_1_5_6&#45;&gt;n_5_6 -->
<g id="edge5" class="edge">
<title>n_1_5_6&#45;&gt;n_5_6</title>
<path fill="none" stroke="black" d="M133.17,-158.22C125.11,-147.81 115.12,-134.92 106.45,-123.74"/>
<polygon fill="black" stroke="black" points="109.37,-121.8 100.48,-116.04 103.84,-126.09 109.37,-121.8"/>
</g>
<!-- n_1 -->
<g id="node9" class="node">
<title>n_1</title>
<polygon fill="none" stroke="black" points="188.5,-84.38 188.5,-109.62 232.5,-109.62 232.5,-84.38 188.5,-84.38"/>
<text text-anchor="start" x="195.5" y="-95.08" font-family="Times New Roman,serif" font-weight="bold" font-size="9.00">Normal</text>
<polygon fill="none" stroke="black" points="187.5,-83.38 187.5,-110.62 233.5,-110.62 233.5,-83.38 187.5,-83.38"/>
</g>
<!-- n_1_5_6&#45;&gt;n_1 -->
<g id="edge8" class="edge">
<title>n_1_5_6&#45;&gt;n_1</title>
<path fill="none" stroke="black" d="M163.83,-158.22C171.89,-147.81 181.88,-134.92 190.55,-123.74"/>
<polygon fill="black" stroke="black" points="193.16,-126.09 196.52,-116.04 187.63,-121.8 193.16,-126.09"/>
</g>
<!-- n_5 -->
<g id="node7" class="node">
<title>n_5</title>
<polygon fill="none" stroke="black" points="9,-5.38 9,-30.62 62,-30.62 62,-5.38 9,-5.38"/>
<text text-anchor="start" x="16" y="-16.07" font-family="Times New Roman,serif" font-weight="bold" font-size="9.00">Obesity II</text>
<polygon fill="none" stroke="black" points="8,-4.38 8,-31.62 63,-31.62 63,-4.38 8,-4.38"/>
</g>
<!-- n_5_6&#45;&gt;n_5 -->
<g id="edge6" class="edge">
<title>n_5_6&#45;&gt;n_5</title>
<path fill="none" stroke="black" d="M75.43,-79.29C68.86,-69.37 60.39,-56.57 52.93,-45.32"/>
<polygon fill="black" stroke="black" points="56,-43.61 47.56,-37.2 50.16,-47.47 56,-43.61"/>
</g>
<!-- n_6 -->
<g id="node8" class="node">
<title>n_6</title>
<polygon fill="none" stroke="black" points="109.5,-5.38 109.5,-30.62 165.5,-30.62 165.5,-5.38 109.5,-5.38"/>
<text text-anchor="start" x="116.5" y="-16.07" font-family="Times New Roman,serif" font-weight="bold" font-size="9.00">Obesity III</text>
<polygon fill="none" stroke="black" points="108.5,-4.38 108.5,-31.62 166.5,-31.62 166.5,-4.38 108.5,-4.38"/>
</g>
<!-- n_5_6&#45;&gt;n_6 -->
<g id="edge7" class="edge">
<title>n_5_6&#45;&gt;n_6</title>
<path fill="none" stroke="black" d="M97.57,-79.29C104.14,-69.37 112.61,-56.57 120.07,-45.32"/>
<polygon fill="black" stroke="black" points="122.84,-47.47 125.44,-37.2 117,-43.61 122.84,-47.47"/>
</g>
</g>
</svg>
