<?xml version="1.0" encoding="UTF-8" standalone="no"?>
<!DOCTYPE svg PUBLIC "-//W3C//DTD SVG 1.1//EN"
 "http://www.w3.org/Graphics/SVG/1.1/DTD/svg11.dtd">
<!-- Generated by graphviz version 10.0.1 (20240210.2158)
 -->
<!-- Title: ND Pages: 1 -->
<svg width="606pt" height="432pt"
 viewBox="0.00 0.00 606.00 432.00" xmlns="http://www.w3.org/2000/svg" xmlns:xlink="http://www.w3.org/1999/xlink">
<g id="graph0" class="graph" transform="scale(1 1) rotate(0) translate(4 428)">
<title>ND</title>
<polygon fill="white" stroke="none" points="-4,4 -4,-428 602,-428 602,4 -4,4"/>
<!-- n_0_1_2_3_4_5_6 -->
<g id="node1" class="node">
<title>n_0_1_2_3_4_5_6</title>
<polygon fill="none" stroke="black" points="375.38,-351 375.38,-419 463.62,-419 463.62,-351 375.38,-351"/>
<text text-anchor="start" x="382.38" y="-404.45" font-family="Times New Roman,serif" font-weight="bold" font-size="9.00">Insufficient weight</text>
<text text-anchor="start" x="404.5" y="-395.45" font-family="Times New Roman,serif" font-weight="bold" font-size="9.00">Normal</text>
<text text-anchor="start" x="392.5" y="-386.45" font-family="Times New Roman,serif" font-weight="bold" font-size="9.00">Overweight II</text>
<text text-anchor="start" x="401.5" y="-377.45" font-family="Times New Roman,serif" font-weight="bold" font-size="9.00">Obesity I</text>
<text text-anchor="start" x="400" y="-368.45" font-family="Times New Roman,serif" font-weight="bold" font-size="9.00">Obesity II</text>
<text text-anchor="start" x="398.5" y="-359.45" font-family="Times New Roman,serif" font-weight="bold" font-size="9.00">Obesity III</text>
<polygon fill="none" stroke="black" points="463.62,-351 463.62,-419 528.62,-419 528.62,-351 463.62,-351"/>
<text text-anchor="start" x="470.62" y="-383.07" font-family="Times New Roman,serif" font-weight="bold" font-size="9.00">Overweight I</text>
<polygon fill="none" stroke="black" points="374.38,-350 374.38,-420 529.62,-420 529.62,-350 374.38,-350"/>
</g>
<!-- n_0_1_3_4_5_6 -->
<g id="node2" class="node">
<title>n_0_1_3_4_5_6</title>
<polygon fill="none" stroke="black" points="294.88,-248 294.88,-298 362.88,-298 362.88,-248 294.88,-248"/>
<text text-anchor="start" x="301.88" y="-283.45" font-family="Times New Roman,serif" font-weight="bold" font-size="9.00">Overweight II</text>
<text text-anchor="start" x="310.88" y="-274.45" font-family="Times New Roman,serif" font-weight="bold" font-size="9.00">Obesity I</text>
<text text-anchor="start" x="309.38" y="-265.45" font-family="Times New Roman,serif" font-weight="bold" font-size="9.00">Obesity II</text>
<text text-anchor="start" x="307.88" y="-256.45" font-family="Times New Roman,serif" font-weight="bold" font-size="9.00">Obesity III</text>
<polygon fill="none" stroke="black" points="362.88,-248 362.88,-298 451.12,-298 451.12,-248 362.88,-248"/>
<text text-anchor="start" x="369.88" y="-274.45" font-family="Times New Roman,serif" font-weight="bold" font-size="9.00">Insufficient weight</text>
<text text-anchor="start" x="392" y="-265.45" font-family="Times New Roman,serif" font-weight="bold" font-size="9.00">Normal</text>
<polygon fill="none" stroke="black" points="293.88,-247 293.88,-299 452.12,-299 452.12,-247 293.88,-247"/>
</g>
<!-- n_0_1_2_3_4_5_6&#45;&gt;n_0_1_3_4_5_6 -->
<g id="edge1" class="edge">
<title>n_0_1_2_3_4_5_6&#45;&gt;n_0_1_3_4_5_6</title>
<path fill="none" stroke="black" d="M424.81,-346.14C416.94,-335.19 408.35,-323.22 400.46,-312.23"/>
<polygon fill="black" stroke="black" points="403.31,-310.2 394.63,-304.12 397.62,-314.28 403.31,-310.2"/>
</g>
<!-- n_2 -->
<g id="node13" class="node">
<title>n_2</title>
<polygon fill="none" stroke="black" points="498.5,-260.38 498.5,-285.62 563.5,-285.62 563.5,-260.38 498.5,-260.38"/>
<text text-anchor="start" x="505.5" y="-271.07" font-family="Times New Roman,serif" font-weight="bold" font-size="9.00">Overweight I</text>
<polygon fill="none" stroke="black" points="497.5,-259.38 497.5,-286.62 564.5,-286.62 564.5,-259.38 497.5,-259.38"/>
</g>
<!-- n_0_1_2_3_4_5_6&#45;&gt;n_2 -->
<g id="edge12" class="edge">
<title>n_0_1_2_3_4_5_6&#45;&gt;n_2</title>
<path fill="none" stroke="black" d="M479.19,-346.14C490.03,-331.04 502.26,-314.02 512.11,-300.31"/>
<polygon fill="black" stroke="black" points="514.93,-302.38 517.92,-292.21 509.24,-298.29 514.93,-302.38"/>
</g>
<!-- n_3_4_5_6 -->
<g id="node3" class="node">
<title>n_3_4_5_6</title>
<polygon fill="none" stroke="black" points="224,-163 224,-195 292,-195 292,-163 224,-163"/>
<text text-anchor="start" x="231" y="-180.45" font-family="Times New Roman,serif" font-weight="bold" font-size="9.00">Overweight II</text>
<text text-anchor="start" x="240" y="-171.45" font-family="Times New Roman,serif" font-weight="bold" font-size="9.00">Obesity I</text>
<polygon fill="none" stroke="black" points="292,-163 292,-195 348,-195 348,-163 292,-163"/>
<text text-anchor="start" x="300.5" y="-180.45" font-family="Times New Roman,serif" font-weight="bold" font-size="9.00">Obesity II</text>
<text text-anchor="start" x="299" y="-171.45" font-family="Times New Roman,serif" font-weight="bold" font-size="9.00">Obesity III</text>
<polygon fill="none" stroke="black" points="223,-162 223,-196 349,-196 349,-162 223,-162"/>
</g>
<!-- n_0_1_3_4_5_6&#45;&gt;n_3_4_5_6 -->
<g id="edge2" class="edge">
<title>n_0_1_3_4_5_6&#45;&gt;n_3_4_5_6</title>
<path fill="none" stroke="black" d="M345.71,-243.14C335.07,-231.89 322.92,-219.04 312.36,-207.88"/>
<polygon fill="black" stroke="black" points="315.11,-205.69 305.7,-200.83 310.03,-210.5 315.11,-205.69"/>
</g>
<!-- n_0_1 -->
<g id="node10" class="node">
<title>n_0_1</title>
<polygon fill="none" stroke="black" points="394.88,-166.38 394.88,-191.62 483.12,-191.62 483.12,-166.38 394.88,-166.38"/>
<text text-anchor="start" x="401.88" y="-177.07" font-family="Times New Roman,serif" font-weight="bold" font-size="9.00">Insufficient weight</text>
<polygon fill="none" stroke="black" points="483.12,-166.38 483.12,-191.62 527.12,-191.62 527.12,-166.38 483.12,-166.38"/>
<text text-anchor="start" x="490.12" y="-177.07" font-family="Times New Roman,serif" font-weight="bold" font-size="9.00">Normal</text>
<polygon fill="none" stroke="black" points="393.88,-165.38 393.88,-192.62 528.12,-192.62 528.12,-165.38 393.88,-165.38"/>
</g>
<!-- n_0_1_3_4_5_6&#45;&gt;n_0_1 -->
<g id="edge9" class="edge">
<title>n_0_1_3_4_5_6&#45;&gt;n_0_1</title>
<path fill="none" stroke="black" d="M400.6,-243.14C412.28,-230.93 425.76,-216.84 437.02,-205.07"/>
<polygon fill="black" stroke="black" points="439.34,-207.71 443.72,-198.06 434.28,-202.87 439.34,-207.71"/>
</g>
<!-- n_3_4 -->
<g id="node4" class="node">
<title>n_3_4</title>
<polygon fill="none" stroke="black" points="74,-84.38 74,-109.62 142,-109.62 142,-84.38 74,-84.38"/>
<text text-anchor="start" x="81" y="-95.08" font-family="Times New Roman,serif" font-weight="bold" font-size="9.00">Overweight II</text>
<polygon fill="none" stroke="black" points="142,-84.38 142,-109.62 192,-109.62 192,-84.38 142,-84.38"/>
<text text-anchor="start" x="149" y="-95.08" font-family="Times New Roman,serif" font-weight="bold" font-size="9.00">Obesity I</text>
<polygon fill="none" stroke="black" points="73,-83.38 73,-110.62 193,-110.62 193,-83.38 73,-83.38"/>
</g>
<!-- n_3_4_5_6&#45;&gt;n_3_4 -->
<g id="edge3" class="edge">
<title>n_3_4_5_6&#45;&gt;n_3_4</title>
<path fill="none" stroke="black" d="M247.79,-158.02C225.76,-146.5 198.02,-132 175.33,-120.13"/>
<polygon fill="black" stroke="black" points="177.13,-117.12 166.64,-115.59 173.88,-123.33 177.13,-117.12"/>
</g>
<!-- n_5_6 -->
<g id="node7" class="node">
<title>n_5_6</title>
<polygon fill="none" stroke="black" points="239.5,-84.38 239.5,-109.62 292.5,-109.62 292.5,-84.38 239.5,-84.38"/>
<text text-anchor="start" x="246.5" y="-95.08" font-family="Times New Roman,serif" font-weight="bold" font-size="9.00">Obesity II</text>
<polygon fill="none" stroke="black" points="292.5,-84.38 292.5,-109.62 348.5,-109.62 348.5,-84.38 292.5,-84.38"/>
<text text-anchor="start" x="299.5" y="-95.08" font-family="Times New Roman,serif" font-weight="bold" font-size="9.00">Obesity III</text>
<polygon fill="none" stroke="black" points="238.5,-83.38 238.5,-110.62 349.5,-110.62 349.5,-83.38 238.5,-83.38"/>
</g>
<!-- n_3_4_5_6&#45;&gt;n_5_6 -->
<g id="edge6" class="edge">
<title>n_3_4_5_6&#45;&gt;n_5_6</title>
<path fill="none" stroke="black" d="M287.98,-158.22C288.95,-148.54 290.13,-136.72 291.19,-126.11"/>
<polygon fill="black" stroke="black" points="294.65,-126.65 292.17,-116.35 287.69,-125.95 294.65,-126.65"/>
</g>
<!-- n_3 -->
<g id="node5" class="node">
<title>n_3</title>
<polygon fill="none" stroke="black" points="9,-5.38 9,-30.62 77,-30.62 77,-5.38 9,-5.38"/>
<text text-anchor="start" x="16" y="-16.07" font-family="Times New Roman,serif" font-weight="bold" font-size="9.00">Overweight II</text>
<polygon fill="none" stroke="black" points="8,-4.38 8,-31.62 78,-31.62 78,-4.38 8,-4.38"/>
</g>
<!-- n_3_4&#45;&gt;n_3 -->
<g id="edge4" class="edge">
<title>n_3_4&#45;&gt;n_3</title>
<path fill="none" stroke="black" d="M113.47,-79.29C101.17,-68.77 85.09,-55.01 71.39,-43.29"/>
<polygon fill="black" stroke="black" points="73.83,-40.77 63.95,-36.93 69.27,-46.09 73.83,-40.77"/>
</g>
<!-- n_4 -->
<g id="node6" class="node">
<title>n_4</title>
<polygon fill="none" stroke="black" points="124,-5.38 124,-30.62 174,-30.62 174,-5.38 124,-5.38"/>
<text text-anchor="start" x="131" y="-16.07" font-family="Times New Roman,serif" font-weight="bold" font-size="9.00">Obesity I</text>
<polygon fill="none" stroke="black" points="123,-4.38 123,-31.62 175,-31.62 175,-4.38 123,-4.38"/>
</g>
<!-- n_3_4&#45;&gt;n_4 -->
<g id="edge5" class="edge">
<title>n_3_4&#45;&gt;n_4</title>
<path fill="none" stroke="black" d="M136.47,-79.29C138.43,-69.87 140.93,-57.86 143.17,-47.04"/>
<polygon fill="black" stroke="black" points="146.56,-47.93 145.17,-37.42 139.71,-46.5 146.56,-47.93"/>
</g>
<!-- n_5 -->
<g id="node8" class="node">
<title>n_5</title>
<polygon fill="none" stroke="black" points="252.5,-5.38 252.5,-30.62 305.5,-30.62 305.5,-5.38 252.5,-5.38"/>
<text text-anchor="start" x="259.5" y="-16.07" font-family="Times New Roman,serif" font-weight="bold" font-size="9.00">Obesity II</text>
<polygon fill="none" stroke="black" points="251.5,-4.38 251.5,-31.62 306.5,-31.62 306.5,-4.38 251.5,-4.38"/>
</g>
<!-- n_5_6&#45;&gt;n_5 -->
<g id="edge7" class="edge">
<title>n_5_6&#45;&gt;n_5</title>
<path fill="none" stroke="black" d="M290.75,-79.29C288.91,-69.87 286.57,-57.86 284.46,-47.04"/>
<polygon fill="black" stroke="black" points="287.94,-46.57 282.59,-37.43 281.07,-47.91 287.94,-46.57"/>
</g>
<!-- n_6 -->
<g id="node9" class="node">
<title>n_6</title>
<polygon fill="none" stroke="black" points="353,-5.38 353,-30.62 409,-30.62 409,-5.38 353,-5.38"/>
<text text-anchor="start" x="360" y="-16.07" font-family="Times New Roman,serif" font-weight="bold" font-size="9.00">Obesity III</text>
<polygon fill="none" stroke="black" points="352,-4.38 352,-31.62 410,-31.62 410,-4.38 352,-4.38"/>
</g>
<!-- n_5_6&#45;&gt;n_6 -->
<g id="edge8" class="edge">
<title>n_5_6&#45;&gt;n_6</title>
<path fill="none" stroke="black" d="M312.88,-79.29C324.77,-68.77 340.31,-55.01 353.55,-43.29"/>
<polygon fill="black" stroke="black" points="355.56,-46.19 360.73,-36.94 350.92,-40.95 355.56,-46.19"/>
</g>
<!-- n_0 -->
<g id="node11" class="node">
<title>n_0</title>
<polygon fill="none" stroke="black" points="409.88,-84.38 409.88,-109.62 498.12,-109.62 498.12,-84.38 409.88,-84.38"/>
<text text-anchor="start" x="416.88" y="-95.08" font-family="Times New Roman,serif" font-weight="bold" font-size="9.00">Insufficient weight</text>
<polygon fill="none" stroke="black" points="408.88,-83.38 408.88,-110.62 499.12,-110.62 499.12,-83.38 408.88,-83.38"/>
</g>
<!-- n_0_1&#45;&gt;n_0 -->
<g id="edge10" class="edge">
<title>n_0_1&#45;&gt;n_0</title>
<path fill="none" stroke="black" d="M459.52,-161.03C458.63,-150.96 457.49,-137.92 456.48,-126.32"/>
<polygon fill="black" stroke="black" points="459.97,-126.11 455.61,-116.45 453,-126.72 459.97,-126.11"/>
</g>
<!-- n_1 -->
<g id="node12" class="node">
<title>n_1</title>
<polygon fill="none" stroke="black" points="545,-84.38 545,-109.62 589,-109.62 589,-84.38 545,-84.38"/>
<text text-anchor="start" x="552" y="-95.08" font-family="Times New Roman,serif" font-weight="bold" font-size="9.00">Normal</text>
<polygon fill="none" stroke="black" points="544,-83.38 544,-110.62 590,-110.62 590,-83.38 544,-83.38"/>
</g>
<!-- n_0_1&#45;&gt;n_1 -->
<g id="edge11" class="edge">
<title>n_0_1&#45;&gt;n_1</title>
<path fill="none" stroke="black" d="M483.48,-161.03C498.66,-149.58 518.9,-134.3 535.66,-121.66"/>
<polygon fill="black" stroke="black" points="537.47,-124.67 543.34,-115.85 533.25,-119.08 537.47,-124.67"/>
</g>
</g>
</svg>
