<?xml version="1.0" encoding="UTF-8" standalone="no"?>
<!DOCTYPE svg PUBLIC "-//W3C//DTD SVG 1.1//EN"
 "http://www.w3.org/Graphics/SVG/1.1/DTD/svg11.dtd">
<!-- Generated by graphviz version 10.0.1 (20240210.2158)
 -->
<!-- Title: ND Pages: 1 -->
<svg width="585pt" height="405pt"
 viewBox="0.00 0.00 584.50 405.00" xmlns="http://www.w3.org/2000/svg" xmlns:xlink="http://www.w3.org/1999/xlink">
<g id="graph0" class="graph" transform="scale(1 1) rotate(0) translate(4 401)">
<title>ND</title>
<polygon fill="white" stroke="none" points="-4,4 -4,-401 580.5,-401 580.5,4 -4,4"/>
<!-- n_0_1_2_3_4_5_6 -->
<g id="node1" class="node">
<title>n_0_1_2_3_4_5_6</title>
<polygon fill="none" stroke="black" points="255.38,-342 255.38,-392 343.62,-392 343.62,-342 255.38,-342"/>
<text text-anchor="start" x="262.38" y="-377.45" font-family="Times New Roman,serif" font-weight="bold" font-size="9.00">Insufficient weight</text>
<text text-anchor="start" x="272.5" y="-368.45" font-family="Times New Roman,serif" font-weight="bold" font-size="9.00">Overweight II</text>
<text text-anchor="start" x="281.5" y="-359.45" font-family="Times New Roman,serif" font-weight="bold" font-size="9.00">Obesity I</text>
<text text-anchor="start" x="278.5" y="-350.45" font-family="Times New Roman,serif" font-weight="bold" font-size="9.00">Obesity III</text>
<polygon fill="none" stroke="black" points="343.62,-342 343.62,-392 408.62,-392 408.62,-342 343.62,-342"/>
<text text-anchor="start" x="361.12" y="-372.95" font-family="Times New Roman,serif" font-weight="bold" font-size="9.00">Normal</text>
<text text-anchor="start" x="350.62" y="-363.95" font-family="Times New Roman,serif" font-weight="bold" font-size="9.00">Overweight I</text>
<text text-anchor="start" x="356.62" y="-354.95" font-family="Times New Roman,serif" font-weight="bold" font-size="9.00">Obesity II</text>
<polygon fill="none" stroke="black" points="254.38,-341 254.38,-393 409.62,-393 409.62,-341 254.38,-341"/>
</g>
<!-- n_0_3_4_6 -->
<g id="node2" class="node">
<title>n_0_3_4_6</title>
<polygon fill="none" stroke="black" points="161.88,-248 161.88,-289 229.88,-289 229.88,-248 161.88,-248"/>
<text text-anchor="start" x="168.88" y="-274.45" font-family="Times New Roman,serif" font-weight="bold" font-size="9.00">Overweight II</text>
<text text-anchor="start" x="177.88" y="-265.45" font-family="Times New Roman,serif" font-weight="bold" font-size="9.00">Obesity I</text>
<text text-anchor="start" x="174.88" y="-256.45" font-family="Times New Roman,serif" font-weight="bold" font-size="9.00">Obesity III</text>
<polygon fill="none" stroke="black" points="229.88,-248 229.88,-289 318.12,-289 318.12,-248 229.88,-248"/>
<text text-anchor="start" x="236.88" y="-266.57" font-family="Times New Roman,serif" font-weight="bold" font-size="9.00">Insufficient weight</text>
<polygon fill="none" stroke="black" points="160.88,-247 160.88,-290 319.12,-290 319.12,-247 160.88,-247"/>
</g>
<!-- n_0_1_2_3_4_5_6&#45;&gt;n_0_3_4_6 -->
<g id="edge1" class="edge">
<title>n_0_1_2_3_4_5_6&#45;&gt;n_0_3_4_6</title>
<path fill="none" stroke="black" d="M304.4,-337.05C293.83,-325.97 281.72,-313.26 270.87,-301.88"/>
<polygon fill="black" stroke="black" points="273.72,-299.79 264.28,-294.97 268.65,-304.62 273.72,-299.79"/>
</g>
<!-- n_1_2_5 -->
<g id="node9" class="node">
<title>n_1_2_5</title>
<polygon fill="none" stroke="black" points="365,-252.5 365,-284.5 418,-284.5 418,-252.5 365,-252.5"/>
<text text-anchor="start" x="376.5" y="-269.95" font-family="Times New Roman,serif" font-weight="bold" font-size="9.00">Normal</text>
<text text-anchor="start" x="372" y="-260.95" font-family="Times New Roman,serif" font-weight="bold" font-size="9.00">Obesity II</text>
<polygon fill="none" stroke="black" points="418,-252.5 418,-284.5 483,-284.5 483,-252.5 418,-252.5"/>
<text text-anchor="start" x="425" y="-266.57" font-family="Times New Roman,serif" font-weight="bold" font-size="9.00">Overweight I</text>
<polygon fill="none" stroke="black" points="364,-251.5 364,-285.5 484,-285.5 484,-251.5 364,-251.5"/>
</g>
<!-- n_0_1_2_3_4_5_6&#45;&gt;n_1_2_5 -->
<g id="edge8" class="edge">
<title>n_0_1_2_3_4_5_6&#45;&gt;n_1_2_5</title>
<path fill="none" stroke="black" d="M359.6,-337.05C371.56,-324.51 385.5,-309.89 397.35,-297.46"/>
<polygon fill="black" stroke="black" points="399.75,-300.01 404.12,-290.35 394.68,-295.18 399.75,-300.01"/>
</g>
<!-- n_3_4_6 -->
<g id="node3" class="node">
<title>n_3_4_6</title>
<polygon fill="none" stroke="black" points="42,-163 42,-195 98,-195 98,-163 42,-163"/>
<text text-anchor="start" x="52" y="-180.45" font-family="Times New Roman,serif" font-weight="bold" font-size="9.00">Obesity I</text>
<text text-anchor="start" x="49" y="-171.45" font-family="Times New Roman,serif" font-weight="bold" font-size="9.00">Obesity III</text>
<polygon fill="none" stroke="black" points="98,-163 98,-195 166,-195 166,-163 98,-163"/>
<text text-anchor="start" x="105" y="-177.07" font-family="Times New Roman,serif" font-weight="bold" font-size="9.00">Overweight II</text>
<polygon fill="none" stroke="black" points="41,-162 41,-196 167,-196 167,-162 41,-162"/>
</g>
<!-- n_0_3_4_6&#45;&gt;n_3_4_6 -->
<g id="edge2" class="edge">
<title>n_0_3_4_6&#45;&gt;n_3_4_6</title>
<path fill="none" stroke="black" d="M202.12,-243.13C184.13,-231.55 162.62,-217.71 144.33,-205.94"/>
<polygon fill="black" stroke="black" points="146.39,-203.11 136.09,-200.64 142.6,-209 146.39,-203.11"/>
</g>
<!-- n_0 -->
<g id="node8" class="node">
<title>n_0</title>
<polygon fill="none" stroke="black" points="212.88,-166.38 212.88,-191.62 301.12,-191.62 301.12,-166.38 212.88,-166.38"/>
<text text-anchor="start" x="219.88" y="-177.07" font-family="Times New Roman,serif" font-weight="bold" font-size="9.00">Insufficient weight</text>
<polygon fill="none" stroke="black" points="211.88,-165.38 211.88,-192.62 302.12,-192.62 302.12,-165.38 211.88,-165.38"/>
</g>
<!-- n_0_3_4_6&#45;&gt;n_0 -->
<g id="edge7" class="edge">
<title>n_0_3_4_6&#45;&gt;n_0</title>
<path fill="none" stroke="black" d="M244.74,-243.13C246.86,-232.17 249.39,-219.18 251.59,-207.84"/>
<polygon fill="black" stroke="black" points="254.98,-208.74 253.45,-198.26 248.11,-207.41 254.98,-208.74"/>
</g>
<!-- n_4_6 -->
<g id="node4" class="node">
<title>n_4_6</title>
<polygon fill="none" stroke="black" points="31,-84.38 31,-109.62 81,-109.62 81,-84.38 31,-84.38"/>
<text text-anchor="start" x="38" y="-95.08" font-family="Times New Roman,serif" font-weight="bold" font-size="9.00">Obesity I</text>
<polygon fill="none" stroke="black" points="81,-84.38 81,-109.62 137,-109.62 137,-84.38 81,-84.38"/>
<text text-anchor="start" x="88" y="-95.08" font-family="Times New Roman,serif" font-weight="bold" font-size="9.00">Obesity III</text>
<polygon fill="none" stroke="black" points="30,-83.38 30,-110.62 138,-110.62 138,-83.38 30,-83.38"/>
</g>
<!-- n_3_4_6&#45;&gt;n_4_6 -->
<g id="edge3" class="edge">
<title>n_3_4_6&#45;&gt;n_4_6</title>
<path fill="none" stroke="black" d="M99.06,-158.22C96.61,-148.44 93.62,-136.46 90.94,-125.77"/>
<polygon fill="black" stroke="black" points="94.4,-125.16 88.58,-116.31 87.61,-126.86 94.4,-125.16"/>
</g>
<!-- n_3 -->
<g id="node7" class="node">
<title>n_3</title>
<polygon fill="none" stroke="black" points="184,-84.38 184,-109.62 252,-109.62 252,-84.38 184,-84.38"/>
<text text-anchor="start" x="191" y="-95.08" font-family="Times New Roman,serif" font-weight="bold" font-size="9.00">Overweight II</text>
<polygon fill="none" stroke="black" points="183,-83.38 183,-110.62 253,-110.62 253,-83.38 183,-83.38"/>
</g>
<!-- n_3_4_6&#45;&gt;n_3 -->
<g id="edge6" class="edge">
<title>n_3_4_6&#45;&gt;n_3</title>
<path fill="none" stroke="black" d="M132.47,-158.02C148.35,-146.88 168.21,-132.94 184.79,-121.31"/>
<polygon fill="black" stroke="black" points="186.71,-124.24 192.88,-115.63 182.68,-118.51 186.71,-124.24"/>
</g>
<!-- n_4 -->
<g id="node5" class="node">
<title>n_4</title>
<polygon fill="none" stroke="black" points="9,-5.38 9,-30.62 59,-30.62 59,-5.38 9,-5.38"/>
<text text-anchor="start" x="16" y="-16.07" font-family="Times New Roman,serif" font-weight="bold" font-size="9.00">Obesity I</text>
<polygon fill="none" stroke="black" points="8,-4.38 8,-31.62 60,-31.62 60,-4.38 8,-4.38"/>
</g>
<!-- n_4_6&#45;&gt;n_4 -->
<g id="edge4" class="edge">
<title>n_4_6&#45;&gt;n_4</title>
<path fill="none" stroke="black" d="M73.15,-79.29C66.71,-69.37 58.4,-56.57 51.09,-45.32"/>
<polygon fill="black" stroke="black" points="54.21,-43.69 45.83,-37.21 48.34,-47.5 54.21,-43.69"/>
</g>
<!-- n_6 -->
<g id="node6" class="node">
<title>n_6</title>
<polygon fill="none" stroke="black" points="106,-5.38 106,-30.62 162,-30.62 162,-5.38 106,-5.38"/>
<text text-anchor="start" x="113" y="-16.07" font-family="Times New Roman,serif" font-weight="bold" font-size="9.00">Obesity III</text>
<polygon fill="none" stroke="black" points="105,-4.38 105,-31.62 163,-31.62 163,-4.38 105,-4.38"/>
</g>
<!-- n_4_6&#45;&gt;n_6 -->
<g id="edge5" class="edge">
<title>n_4_6&#45;&gt;n_6</title>
<path fill="none" stroke="black" d="M94.85,-79.29C101.29,-69.37 109.6,-56.57 116.91,-45.32"/>
<polygon fill="black" stroke="black" points="119.66,-47.5 122.17,-37.21 113.79,-43.69 119.66,-47.5"/>
</g>
<!-- n_1_5 -->
<g id="node10" class="node">
<title>n_1_5</title>
<polygon fill="none" stroke="black" points="358.5,-166.38 358.5,-191.62 402.5,-191.62 402.5,-166.38 358.5,-166.38"/>
<text text-anchor="start" x="365.5" y="-177.07" font-family="Times New Roman,serif" font-weight="bold" font-size="9.00">Normal</text>
<polygon fill="none" stroke="black" points="402.5,-166.38 402.5,-191.62 455.5,-191.62 455.5,-166.38 402.5,-166.38"/>
<text text-anchor="start" x="409.5" y="-177.07" font-family="Times New Roman,serif" font-weight="bold" font-size="9.00">Obesity II</text>
<polygon fill="none" stroke="black" points="357.5,-165.38 357.5,-192.62 456.5,-192.62 456.5,-165.38 357.5,-165.38"/>
</g>
<!-- n_1_2_5&#45;&gt;n_1_5 -->
<g id="edge9" class="edge">
<title>n_1_2_5&#45;&gt;n_1_5</title>
<path fill="none" stroke="black" d="M420.14,-247.64C417.86,-235.91 414.94,-220.86 412.43,-207.94"/>
<polygon fill="black" stroke="black" points="415.9,-207.47 410.56,-198.32 409.03,-208.8 415.9,-207.47"/>
</g>
<!-- n_2 -->
<g id="node13" class="node">
<title>n_2</title>
<polygon fill="none" stroke="black" points="502.5,-166.38 502.5,-191.62 567.5,-191.62 567.5,-166.38 502.5,-166.38"/>
<text text-anchor="start" x="509.5" y="-177.07" font-family="Times New Roman,serif" font-weight="bold" font-size="9.00">Overweight I</text>
<polygon fill="none" stroke="black" points="501.5,-165.38 501.5,-192.62 568.5,-192.62 568.5,-165.38 501.5,-165.38"/>
</g>
<!-- n_1_2_5&#45;&gt;n_2 -->
<g id="edge12" class="edge">
<title>n_1_2_5&#45;&gt;n_2</title>
<path fill="none" stroke="black" d="M449.19,-247.64C465.75,-234.59 487.5,-217.45 504.96,-203.68"/>
<polygon fill="black" stroke="black" points="506.77,-206.71 512.46,-197.77 502.44,-201.21 506.77,-206.71"/>
</g>
<!-- n_1 -->
<g id="node11" class="node">
<title>n_1</title>
<polygon fill="none" stroke="black" points="342,-84.38 342,-109.62 386,-109.62 386,-84.38 342,-84.38"/>
<text text-anchor="start" x="349" y="-95.08" font-family="Times New Roman,serif" font-weight="bold" font-size="9.00">Normal</text>
<polygon fill="none" stroke="black" points="341,-83.38 341,-110.62 387,-110.62 387,-83.38 341,-83.38"/>
</g>
<!-- n_1_5&#45;&gt;n_1 -->
<g id="edge10" class="edge">
<title>n_1_5&#45;&gt;n_1</title>
<path fill="none" stroke="black" d="M397.88,-161.03C392.24,-150.53 384.87,-136.82 378.44,-124.87"/>
<polygon fill="black" stroke="black" points="381.64,-123.43 373.82,-116.27 375.47,-126.74 381.64,-123.43"/>
</g>
<!-- n_5 -->
<g id="node12" class="node">
<title>n_5</title>
<polygon fill="none" stroke="black" points="433.5,-84.38 433.5,-109.62 486.5,-109.62 486.5,-84.38 433.5,-84.38"/>
<text text-anchor="start" x="440.5" y="-95.08" font-family="Times New Roman,serif" font-weight="bold" font-size="9.00">Obesity II</text>
<polygon fill="none" stroke="black" points="432.5,-83.38 432.5,-110.62 487.5,-110.62 487.5,-83.38 432.5,-83.38"/>
</g>
<!-- n_1_5&#45;&gt;n_5 -->
<g id="edge11" class="edge">
<title>n_1_5&#45;&gt;n_5</title>
<path fill="none" stroke="black" d="M418.24,-161.03C425.27,-150.43 434.46,-136.54 442.44,-124.51"/>
<polygon fill="black" stroke="black" points="445.34,-126.47 447.94,-116.2 439.5,-122.61 445.34,-126.47"/>
</g>
</g>
</svg>
