<?xml version="1.0" encoding="UTF-8" standalone="no"?>
<!DOCTYPE svg PUBLIC "-//W3C//DTD SVG 1.1//EN"
 "http://www.w3.org/Graphics/SVG/1.1/DTD/svg11.dtd">
<!-- Generated by graphviz version 10.0.1 (20240210.2158)
 -->
<!-- Title: ND Pages: 1 -->
<svg width="681pt" height="517pt"
 viewBox="0.00 0.00 680.50 517.00" xmlns="http://www.w3.org/2000/svg" xmlns:xlink="http://www.w3.org/1999/xlink">
<g id="graph0" class="graph" transform="scale(1 1) rotate(0) translate(4 513)">
<title>ND</title>
<polygon fill="white" stroke="none" points="-4,4 -4,-513 676.5,-513 676.5,4 -4,4"/>
<!-- n_0_1_2_3_4_5_6 -->
<g id="node1" class="node">
<title>n_0_1_2_3_4_5_6</title>
<polygon fill="none" stroke="black" points="365.88,-445 365.88,-504 433.88,-504 433.88,-445 365.88,-445"/>
<text text-anchor="start" x="384.88" y="-489.45" font-family="Times New Roman,serif" font-weight="bold" font-size="9.00">Normal</text>
<text text-anchor="start" x="374.38" y="-480.45" font-family="Times New Roman,serif" font-weight="bold" font-size="9.00">Overweight I</text>
<text text-anchor="start" x="372.88" y="-471.45" font-family="Times New Roman,serif" font-weight="bold" font-size="9.00">Overweight II</text>
<text text-anchor="start" x="381.88" y="-462.45" font-family="Times New Roman,serif" font-weight="bold" font-size="9.00">Obesity I</text>
<text text-anchor="start" x="378.88" y="-453.45" font-family="Times New Roman,serif" font-weight="bold" font-size="9.00">Obesity III</text>
<polygon fill="none" stroke="black" points="433.88,-445 433.88,-504 522.12,-504 522.12,-445 433.88,-445"/>
<text text-anchor="start" x="440.88" y="-475.95" font-family="Times New Roman,serif" font-weight="bold" font-size="9.00">Insufficient weight</text>
<text text-anchor="start" x="458.5" y="-466.95" font-family="Times New Roman,serif" font-weight="bold" font-size="9.00">Obesity II</text>
<polygon fill="none" stroke="black" points="364.88,-444 364.88,-505 523.12,-505 523.12,-444 364.88,-444"/>
</g>
<!-- n_1_2_3_4_6 -->
<g id="node2" class="node">
<title>n_1_2_3_4_6</title>
<polygon fill="none" stroke="black" points="292,-342 292,-392 360,-392 360,-342 292,-342"/>
<text text-anchor="start" x="311" y="-377.45" font-family="Times New Roman,serif" font-weight="bold" font-size="9.00">Normal</text>
<text text-anchor="start" x="300.5" y="-368.45" font-family="Times New Roman,serif" font-weight="bold" font-size="9.00">Overweight I</text>
<text text-anchor="start" x="299" y="-359.45" font-family="Times New Roman,serif" font-weight="bold" font-size="9.00">Overweight II</text>
<text text-anchor="start" x="308" y="-350.45" font-family="Times New Roman,serif" font-weight="bold" font-size="9.00">Obesity I</text>
<polygon fill="none" stroke="black" points="360,-342 360,-392 416,-392 416,-342 360,-342"/>
<text text-anchor="start" x="367" y="-365.07" font-family="Times New Roman,serif" font-weight="bold" font-size="9.00">Obesity III</text>
<polygon fill="none" stroke="black" points="291,-341 291,-393 417,-393 417,-341 291,-341"/>
</g>
<!-- n_0_1_2_3_4_5_6&#45;&gt;n_1_2_3_4_6 -->
<g id="edge1" class="edge">
<title>n_0_1_2_3_4_5_6&#45;&gt;n_1_2_3_4_6</title>
<path fill="none" stroke="black" d="M415.52,-440.12C406.08,-429.05 395.52,-416.67 385.84,-405.33"/>
<polygon fill="black" stroke="black" points="388.79,-403.39 379.63,-398.05 383.46,-407.93 388.79,-403.39"/>
</g>
<!-- n_0_5 -->
<g id="node11" class="node">
<title>n_0_5</title>
<polygon fill="none" stroke="black" points="463.38,-354.38 463.38,-379.62 551.62,-379.62 551.62,-354.38 463.38,-354.38"/>
<text text-anchor="start" x="470.38" y="-365.07" font-family="Times New Roman,serif" font-weight="bold" font-size="9.00">Insufficient weight</text>
<polygon fill="none" stroke="black" points="551.62,-354.38 551.62,-379.62 604.62,-379.62 604.62,-354.38 551.62,-354.38"/>
<text text-anchor="start" x="558.62" y="-365.07" font-family="Times New Roman,serif" font-weight="bold" font-size="9.00">Obesity II</text>
<polygon fill="none" stroke="black" points="462.38,-353.38 462.38,-380.62 605.62,-380.62 605.62,-353.38 462.38,-353.38"/>
</g>
<!-- n_0_1_2_3_4_5_6&#45;&gt;n_0_5 -->
<g id="edge10" class="edge">
<title>n_0_1_2_3_4_5_6&#45;&gt;n_0_5</title>
<path fill="none" stroke="black" d="M472.48,-440.12C485.32,-425.06 500.25,-407.57 512.18,-393.58"/>
<polygon fill="black" stroke="black" points="514.73,-395.98 518.56,-386.1 509.4,-391.44 514.73,-395.98"/>
</g>
<!-- n_1_2_3_4 -->
<g id="node3" class="node">
<title>n_1_2_3_4</title>
<polygon fill="none" stroke="black" points="161.5,-248 161.5,-289 229.5,-289 229.5,-248 161.5,-248"/>
<text text-anchor="start" x="180.5" y="-274.45" font-family="Times New Roman,serif" font-weight="bold" font-size="9.00">Normal</text>
<text text-anchor="start" x="168.5" y="-265.45" font-family="Times New Roman,serif" font-weight="bold" font-size="9.00">Overweight II</text>
<text text-anchor="start" x="177.5" y="-256.45" font-family="Times New Roman,serif" font-weight="bold" font-size="9.00">Obesity I</text>
<polygon fill="none" stroke="black" points="229.5,-248 229.5,-289 294.5,-289 294.5,-248 229.5,-248"/>
<text text-anchor="start" x="236.5" y="-266.57" font-family="Times New Roman,serif" font-weight="bold" font-size="9.00">Overweight I</text>
<polygon fill="none" stroke="black" points="160.5,-247 160.5,-290 295.5,-290 295.5,-247 160.5,-247"/>
</g>
<!-- n_1_2_3_4_6&#45;&gt;n_1_2_3_4 -->
<g id="edge2" class="edge">
<title>n_1_2_3_4_6&#45;&gt;n_1_2_3_4</title>
<path fill="none" stroke="black" d="M316.2,-337.05C301.17,-325.54 283.85,-312.27 268.56,-300.56"/>
<polygon fill="black" stroke="black" points="271.09,-298.1 261.03,-294.79 266.84,-303.65 271.09,-298.1"/>
</g>
<!-- n_6 -->
<g id="node10" class="node">
<title>n_6</title>
<polygon fill="none" stroke="black" points="342,-255.88 342,-281.12 398,-281.12 398,-255.88 342,-255.88"/>
<text text-anchor="start" x="349" y="-266.57" font-family="Times New Roman,serif" font-weight="bold" font-size="9.00">Obesity III</text>
<polygon fill="none" stroke="black" points="341,-254.88 341,-282.12 399,-282.12 399,-254.88 341,-254.88"/>
</g>
<!-- n_1_2_3_4_6&#45;&gt;n_6 -->
<g id="edge9" class="edge">
<title>n_1_2_3_4_6&#45;&gt;n_6</title>
<path fill="none" stroke="black" d="M358.8,-337.05C360.88,-324.51 363.3,-309.89 365.36,-297.47"/>
<polygon fill="black" stroke="black" points="368.77,-298.3 366.96,-287.86 361.87,-297.15 368.77,-298.3"/>
</g>
<!-- n_1_3_4 -->
<g id="node4" class="node">
<title>n_1_3_4</title>
<polygon fill="none" stroke="black" points="104,-163 104,-195 172,-195 172,-163 104,-163"/>
<text text-anchor="start" x="111" y="-180.45" font-family="Times New Roman,serif" font-weight="bold" font-size="9.00">Overweight II</text>
<text text-anchor="start" x="120" y="-171.45" font-family="Times New Roman,serif" font-weight="bold" font-size="9.00">Obesity I</text>
<polygon fill="none" stroke="black" points="172,-163 172,-195 216,-195 216,-163 172,-163"/>
<text text-anchor="start" x="179" y="-177.07" font-family="Times New Roman,serif" font-weight="bold" font-size="9.00">Normal</text>
<polygon fill="none" stroke="black" points="103,-162 103,-196 217,-196 217,-162 103,-162"/>
</g>
<!-- n_1_2_3_4&#45;&gt;n_1_3_4 -->
<g id="edge3" class="edge">
<title>n_1_2_3_4&#45;&gt;n_1_3_4</title>
<path fill="none" stroke="black" d="M209.06,-243.13C200.77,-232.46 190.98,-219.87 182.34,-208.75"/>
<polygon fill="black" stroke="black" points="185.24,-206.77 176.34,-201.02 179.71,-211.06 185.24,-206.77"/>
</g>
<!-- n_2 -->
<g id="node9" class="node">
<title>n_2</title>
<polygon fill="none" stroke="black" points="263.5,-166.38 263.5,-191.62 328.5,-191.62 328.5,-166.38 263.5,-166.38"/>
<text text-anchor="start" x="270.5" y="-177.07" font-family="Times New Roman,serif" font-weight="bold" font-size="9.00">Overweight I</text>
<polygon fill="none" stroke="black" points="262.5,-165.38 262.5,-192.62 329.5,-192.62 329.5,-165.38 262.5,-165.38"/>
</g>
<!-- n_1_2_3_4&#45;&gt;n_2 -->
<g id="edge8" class="edge">
<title>n_1_2_3_4&#45;&gt;n_2</title>
<path fill="none" stroke="black" d="M246.94,-243.13C256,-231.48 266.84,-217.53 276.02,-205.71"/>
<polygon fill="black" stroke="black" points="278.67,-208.01 282.04,-197.97 273.14,-203.71 278.67,-208.01"/>
</g>
<!-- n_3_4 -->
<g id="node5" class="node">
<title>n_3_4</title>
<polygon fill="none" stroke="black" points="37,-84.38 37,-109.62 105,-109.62 105,-84.38 37,-84.38"/>
<text text-anchor="start" x="44" y="-95.08" font-family="Times New Roman,serif" font-weight="bold" font-size="9.00">Overweight II</text>
<polygon fill="none" stroke="black" points="105,-84.38 105,-109.62 155,-109.62 155,-84.38 105,-84.38"/>
<text text-anchor="start" x="112" y="-95.08" font-family="Times New Roman,serif" font-weight="bold" font-size="9.00">Obesity I</text>
<polygon fill="none" stroke="black" points="36,-83.38 36,-110.62 156,-110.62 156,-83.38 36,-83.38"/>
</g>
<!-- n_1_3_4&#45;&gt;n_3_4 -->
<g id="edge4" class="edge">
<title>n_1_3_4&#45;&gt;n_3_4</title>
<path fill="none" stroke="black" d="M144.18,-158.22C135.85,-147.81 125.54,-134.92 116.59,-123.74"/>
<polygon fill="black" stroke="black" points="119.4,-121.65 110.42,-116.03 113.93,-126.02 119.4,-121.65"/>
</g>
<!-- n_1 -->
<g id="node8" class="node">
<title>n_1</title>
<polygon fill="none" stroke="black" points="202,-84.38 202,-109.62 246,-109.62 246,-84.38 202,-84.38"/>
<text text-anchor="start" x="209" y="-95.08" font-family="Times New Roman,serif" font-weight="bold" font-size="9.00">Normal</text>
<polygon fill="none" stroke="black" points="201,-83.38 201,-110.62 247,-110.62 247,-83.38 201,-83.38"/>
</g>
<!-- n_1_3_4&#45;&gt;n_1 -->
<g id="edge7" class="edge">
<title>n_1_3_4&#45;&gt;n_1</title>
<path fill="none" stroke="black" d="M175.82,-158.22C184.15,-147.81 194.46,-134.92 203.41,-123.74"/>
<polygon fill="black" stroke="black" points="206.07,-126.02 209.58,-116.03 200.6,-121.65 206.07,-126.02"/>
</g>
<!-- n_3 -->
<g id="node6" class="node">
<title>n_3</title>
<polygon fill="none" stroke="black" points="9,-5.38 9,-30.62 77,-30.62 77,-5.38 9,-5.38"/>
<text text-anchor="start" x="16" y="-16.07" font-family="Times New Roman,serif" font-weight="bold" font-size="9.00">Overweight II</text>
<polygon fill="none" stroke="black" points="8,-4.38 8,-31.62 78,-31.62 78,-4.38 8,-4.38"/>
</g>
<!-- n_3_4&#45;&gt;n_3 -->
<g id="edge5" class="edge">
<title>n_3_4&#45;&gt;n_3</title>
<path fill="none" stroke="black" d="M84.5,-79.29C77.67,-69.37 68.86,-56.57 61.12,-45.32"/>
<polygon fill="black" stroke="black" points="64.07,-43.44 55.52,-37.19 58.31,-47.41 64.07,-43.44"/>
</g>
<!-- n_4 -->
<g id="node7" class="node">
<title>n_4</title>
<polygon fill="none" stroke="black" points="124,-5.38 124,-30.62 174,-30.62 174,-5.38 124,-5.38"/>
<text text-anchor="start" x="131" y="-16.07" font-family="Times New Roman,serif" font-weight="bold" font-size="9.00">Obesity I</text>
<polygon fill="none" stroke="black" points="123,-4.38 123,-31.62 175,-31.62 175,-4.38 123,-4.38"/>
</g>
<!-- n_3_4&#45;&gt;n_4 -->
<g id="edge6" class="edge">
<title>n_3_4&#45;&gt;n_4</title>
<path fill="none" stroke="black" d="M107.5,-79.29C114.33,-69.37 123.14,-56.57 130.88,-45.32"/>
<polygon fill="black" stroke="black" points="133.69,-47.41 136.48,-37.19 127.93,-43.44 133.69,-47.41"/>
</g>
<!-- n_0 -->
<g id="node12" class="node">
<title>n_0</title>
<polygon fill="none" stroke="black" points="474.88,-255.88 474.88,-281.12 563.12,-281.12 563.12,-255.88 474.88,-255.88"/>
<text text-anchor="start" x="481.88" y="-266.57" font-family="Times New Roman,serif" font-weight="bold" font-size="9.00">Insufficient weight</text>
<polygon fill="none" stroke="black" points="473.88,-254.88 473.88,-282.12 564.12,-282.12 564.12,-254.88 473.88,-254.88"/>
</g>
<!-- n_0_5&#45;&gt;n_0 -->
<g id="edge11" class="edge">
<title>n_0_5&#45;&gt;n_0</title>
<path fill="none" stroke="black" d="M531.39,-349.19C529.19,-335.03 525.99,-314.46 523.39,-297.76"/>
<polygon fill="black" stroke="black" points="526.86,-297.28 521.87,-287.94 519.94,-298.35 526.86,-297.28"/>
</g>
<!-- n_5 -->
<g id="node13" class="node">
<title>n_5</title>
<polygon fill="none" stroke="black" points="610.5,-255.88 610.5,-281.12 663.5,-281.12 663.5,-255.88 610.5,-255.88"/>
<text text-anchor="start" x="617.5" y="-266.57" font-family="Times New Roman,serif" font-weight="bold" font-size="9.00">Obesity II</text>
<polygon fill="none" stroke="black" points="609.5,-254.88 609.5,-282.12 664.5,-282.12 664.5,-254.88 609.5,-254.88"/>
</g>
<!-- n_0_5&#45;&gt;n_5 -->
<g id="edge12" class="edge">
<title>n_0_5&#45;&gt;n_5</title>
<path fill="none" stroke="black" d="M551.94,-349.19C568.24,-333.93 592.47,-311.22 610.9,-293.95"/>
<polygon fill="black" stroke="black" points="612.91,-296.87 617.81,-287.47 608.12,-291.76 612.91,-296.87"/>
</g>
</g>
</svg>
