<?xml version="1.0" encoding="UTF-8" standalone="no"?>
<!DOCTYPE svg PUBLIC "-//W3C//DTD SVG 1.1//EN"
 "http://www.w3.org/Graphics/SVG/1.1/DTD/svg11.dtd">
<!-- Generated by graphviz version 10.0.1 (20240210.2158)
 -->
<!-- Title: ND Pages: 1 -->
<svg width="595pt" height="535pt"
 viewBox="0.00 0.00 594.62 535.00" xmlns="http://www.w3.org/2000/svg" xmlns:xlink="http://www.w3.org/1999/xlink">
<g id="graph0" class="graph" transform="scale(1 1) rotate(0) translate(4 531)">
<title>ND</title>
<polygon fill="white" stroke="none" points="-4,4 -4,-531 590.62,-531 590.62,4 -4,4"/>
<!-- n_0_1_2_3_4_5_6 -->
<g id="node1" class="node">
<title>n_0_1_2_3_4_5_6</title>
<polygon fill="none" stroke="black" points="404.5,-454 404.5,-522 492.75,-522 492.75,-454 404.5,-454"/>
<text text-anchor="start" x="411.5" y="-507.45" font-family="Times New Roman,serif" font-weight="bold" font-size="9.00">Insufficient weight</text>
<text text-anchor="start" x="433.62" y="-498.45" font-family="Times New Roman,serif" font-weight="bold" font-size="9.00">Normal</text>
<text text-anchor="start" x="423.12" y="-489.45" font-family="Times New Roman,serif" font-weight="bold" font-size="9.00">Overweight I</text>
<text text-anchor="start" x="421.62" y="-480.45" font-family="Times New Roman,serif" font-weight="bold" font-size="9.00">Overweight II</text>
<text text-anchor="start" x="430.62" y="-471.45" font-family="Times New Roman,serif" font-weight="bold" font-size="9.00">Obesity I</text>
<text text-anchor="start" x="427.62" y="-462.45" font-family="Times New Roman,serif" font-weight="bold" font-size="9.00">Obesity III</text>
<polygon fill="none" stroke="black" points="492.75,-454 492.75,-522 545.75,-522 545.75,-454 492.75,-454"/>
<text text-anchor="start" x="499.75" y="-486.07" font-family="Times New Roman,serif" font-weight="bold" font-size="9.00">Obesity II</text>
<polygon fill="none" stroke="black" points="403.5,-453 403.5,-523 546.75,-523 546.75,-453 403.5,-453"/>
</g>
<!-- n_0_1_2_3_4_6 -->
<g id="node2" class="node">
<title>n_0_1_2_3_4_6</title>
<polygon fill="none" stroke="black" points="321,-342 321,-401 409.25,-401 409.25,-342 321,-342"/>
<text text-anchor="start" x="328" y="-386.45" font-family="Times New Roman,serif" font-weight="bold" font-size="9.00">Insufficient weight</text>
<text text-anchor="start" x="350.12" y="-377.45" font-family="Times New Roman,serif" font-weight="bold" font-size="9.00">Normal</text>
<text text-anchor="start" x="339.62" y="-368.45" font-family="Times New Roman,serif" font-weight="bold" font-size="9.00">Overweight I</text>
<text text-anchor="start" x="347.12" y="-359.45" font-family="Times New Roman,serif" font-weight="bold" font-size="9.00">Obesity I</text>
<text text-anchor="start" x="344.12" y="-350.45" font-family="Times New Roman,serif" font-weight="bold" font-size="9.00">Obesity III</text>
<polygon fill="none" stroke="black" points="409.25,-342 409.25,-401 477.25,-401 477.25,-342 409.25,-342"/>
<text text-anchor="start" x="416.25" y="-369.57" font-family="Times New Roman,serif" font-weight="bold" font-size="9.00">Overweight II</text>
<polygon fill="none" stroke="black" points="320,-341 320,-402 478.25,-402 478.25,-341 320,-341"/>
</g>
<!-- n_0_1_2_3_4_5_6&#45;&gt;n_0_1_2_3_4_6 -->
<g id="edge1" class="edge">
<title>n_0_1_2_3_4_5_6&#45;&gt;n_0_1_2_3_4_6</title>
<path fill="none" stroke="black" d="M450.03,-449.19C442.81,-438.31 434.88,-426.36 427.47,-415.21"/>
<polygon fill="black" stroke="black" points="430.41,-413.31 421.97,-406.91 424.58,-417.18 430.41,-413.31"/>
</g>
<!-- n_5 -->
<g id="node13" class="node">
<title>n_5</title>
<polygon fill="none" stroke="black" points="524.62,-358.88 524.62,-384.12 577.62,-384.12 577.62,-358.88 524.62,-358.88"/>
<text text-anchor="start" x="531.62" y="-369.57" font-family="Times New Roman,serif" font-weight="bold" font-size="9.00">Obesity II</text>
<polygon fill="none" stroke="black" points="523.62,-357.88 523.62,-385.12 578.62,-385.12 578.62,-357.88 523.62,-357.88"/>
</g>
<!-- n_0_1_2_3_4_5_6&#45;&gt;n_5 -->
<g id="edge12" class="edge">
<title>n_0_1_2_3_4_5_6&#45;&gt;n_5</title>
<path fill="none" stroke="black" d="M500.22,-449.19C511.22,-432.63 523.85,-413.6 533.78,-398.64"/>
<polygon fill="black" stroke="black" points="536.41,-400.99 539.03,-390.72 530.58,-397.12 536.41,-400.99"/>
</g>
<!-- n_0_1_2_4_6 -->
<g id="node3" class="node">
<title>n_0_1_2_4_6</title>
<polygon fill="none" stroke="black" points="243.5,-248 243.5,-289 331.75,-289 331.75,-248 243.5,-248"/>
<text text-anchor="start" x="250.5" y="-274.45" font-family="Times New Roman,serif" font-weight="bold" font-size="9.00">Insufficient weight</text>
<text text-anchor="start" x="272.62" y="-265.45" font-family="Times New Roman,serif" font-weight="bold" font-size="9.00">Normal</text>
<text text-anchor="start" x="266.62" y="-256.45" font-family="Times New Roman,serif" font-weight="bold" font-size="9.00">Obesity III</text>
<polygon fill="none" stroke="black" points="331.75,-248 331.75,-289 396.75,-289 396.75,-248 331.75,-248"/>
<text text-anchor="start" x="338.75" y="-269.95" font-family="Times New Roman,serif" font-weight="bold" font-size="9.00">Overweight I</text>
<text text-anchor="start" x="346.25" y="-260.95" font-family="Times New Roman,serif" font-weight="bold" font-size="9.00">Obesity I</text>
<polygon fill="none" stroke="black" points="242.5,-247 242.5,-290 397.75,-290 397.75,-247 242.5,-247"/>
</g>
<!-- n_0_1_2_3_4_6&#45;&gt;n_0_1_2_4_6 -->
<g id="edge2" class="edge">
<title>n_0_1_2_3_4_6&#45;&gt;n_0_1_2_4_6</title>
<path fill="none" stroke="black" d="M373.04,-337.15C364.4,-326.11 354.79,-313.82 346.16,-302.78"/>
<polygon fill="black" stroke="black" points="349.03,-300.77 340.11,-295.05 343.52,-305.08 349.03,-300.77"/>
</g>
<!-- n_3 -->
<g id="node12" class="node">
<title>n_3</title>
<polygon fill="none" stroke="black" points="444.12,-255.88 444.12,-281.12 512.12,-281.12 512.12,-255.88 444.12,-255.88"/>
<text text-anchor="start" x="451.12" y="-266.57" font-family="Times New Roman,serif" font-weight="bold" font-size="9.00">Overweight II</text>
<polygon fill="none" stroke="black" points="443.12,-254.88 443.12,-282.12 513.12,-282.12 513.12,-254.88 443.12,-254.88"/>
</g>
<!-- n_0_1_2_3_4_6&#45;&gt;n_3 -->
<g id="edge11" class="edge">
<title>n_0_1_2_3_4_6&#45;&gt;n_3</title>
<path fill="none" stroke="black" d="M425.21,-337.15C435.92,-323.46 448.11,-307.87 458.1,-295.11"/>
<polygon fill="black" stroke="black" points="460.58,-297.61 463.99,-287.57 455.07,-293.29 460.58,-297.61"/>
</g>
<!-- n_0_1_6 -->
<g id="node4" class="node">
<title>n_0_1_6</title>
<polygon fill="none" stroke="black" points="160,-163 160,-195 248.25,-195 248.25,-163 160,-163"/>
<text text-anchor="start" x="167" y="-180.45" font-family="Times New Roman,serif" font-weight="bold" font-size="9.00">Insufficient weight</text>
<text text-anchor="start" x="189.12" y="-171.45" font-family="Times New Roman,serif" font-weight="bold" font-size="9.00">Normal</text>
<polygon fill="none" stroke="black" points="248.25,-163 248.25,-195 304.25,-195 304.25,-163 248.25,-163"/>
<text text-anchor="start" x="255.25" y="-177.07" font-family="Times New Roman,serif" font-weight="bold" font-size="9.00">Obesity III</text>
<polygon fill="none" stroke="black" points="159,-162 159,-196 305.25,-196 305.25,-162 159,-162"/>
</g>
<!-- n_0_1_2_4_6&#45;&gt;n_0_1_6 -->
<g id="edge3" class="edge">
<title>n_0_1_2_4_6&#45;&gt;n_0_1_6</title>
<path fill="none" stroke="black" d="M295.61,-243.13C284.56,-232.14 271.46,-219.11 260.03,-207.75"/>
<polygon fill="black" stroke="black" points="262.7,-205.46 253.14,-200.89 257.76,-210.43 262.7,-205.46"/>
</g>
<!-- n_2_4 -->
<g id="node9" class="node">
<title>n_2_4</title>
<polygon fill="none" stroke="black" points="351.62,-166.38 351.62,-191.62 416.62,-191.62 416.62,-166.38 351.62,-166.38"/>
<text text-anchor="start" x="358.62" y="-177.07" font-family="Times New Roman,serif" font-weight="bold" font-size="9.00">Overweight I</text>
<polygon fill="none" stroke="black" points="416.62,-166.38 416.62,-191.62 466.62,-191.62 466.62,-166.38 416.62,-166.38"/>
<text text-anchor="start" x="423.62" y="-177.07" font-family="Times New Roman,serif" font-weight="bold" font-size="9.00">Obesity I</text>
<polygon fill="none" stroke="black" points="350.62,-165.38 350.62,-192.62 467.62,-192.62 467.62,-165.38 350.62,-165.38"/>
</g>
<!-- n_0_1_2_4_6&#45;&gt;n_2_4 -->
<g id="edge8" class="edge">
<title>n_0_1_2_4_6&#45;&gt;n_2_4</title>
<path fill="none" stroke="black" d="M344.92,-243.13C357.12,-231.13 371.8,-216.7 384.04,-204.66"/>
<polygon fill="black" stroke="black" points="386.31,-207.34 390.99,-197.83 381.4,-202.35 386.31,-207.34"/>
</g>
<!-- n_0_1 -->
<g id="node5" class="node">
<title>n_0_1</title>
<polygon fill="none" stroke="black" points="43,-84.38 43,-109.62 131.25,-109.62 131.25,-84.38 43,-84.38"/>
<text text-anchor="start" x="50" y="-95.08" font-family="Times New Roman,serif" font-weight="bold" font-size="9.00">Insufficient weight</text>
<polygon fill="none" stroke="black" points="131.25,-84.38 131.25,-109.62 175.25,-109.62 175.25,-84.38 131.25,-84.38"/>
<text text-anchor="start" x="138.25" y="-95.08" font-family="Times New Roman,serif" font-weight="bold" font-size="9.00">Normal</text>
<polygon fill="none" stroke="black" points="42,-83.38 42,-110.62 176.25,-110.62 176.25,-83.38 42,-83.38"/>
</g>
<!-- n_0_1_6&#45;&gt;n_0_1 -->
<g id="edge4" class="edge">
<title>n_0_1_6&#45;&gt;n_0_1</title>
<path fill="none" stroke="black" d="M201.4,-158.02C184.11,-146.77 162.45,-132.68 144.46,-120.98"/>
<polygon fill="black" stroke="black" points="146.45,-118.1 136.16,-115.58 142.63,-123.97 146.45,-118.1"/>
</g>
<!-- n_6 -->
<g id="node8" class="node">
<title>n_6</title>
<polygon fill="none" stroke="black" points="222.12,-84.38 222.12,-109.62 278.12,-109.62 278.12,-84.38 222.12,-84.38"/>
<text text-anchor="start" x="229.12" y="-95.08" font-family="Times New Roman,serif" font-weight="bold" font-size="9.00">Obesity III</text>
<polygon fill="none" stroke="black" points="221.12,-83.38 221.12,-110.62 279.12,-110.62 279.12,-83.38 221.12,-83.38"/>
</g>
<!-- n_0_1_6&#45;&gt;n_6 -->
<g id="edge7" class="edge">
<title>n_0_1_6&#45;&gt;n_6</title>
<path fill="none" stroke="black" d="M236.57,-158.22C238.78,-148.44 241.47,-136.46 243.88,-125.77"/>
<polygon fill="black" stroke="black" points="247.22,-126.84 246,-116.32 240.39,-125.31 247.22,-126.84"/>
</g>
<!-- n_0 -->
<g id="node6" class="node">
<title>n_0</title>
<polygon fill="none" stroke="black" points="9,-5.38 9,-30.62 97.25,-30.62 97.25,-5.38 9,-5.38"/>
<text text-anchor="start" x="16" y="-16.07" font-family="Times New Roman,serif" font-weight="bold" font-size="9.00">Insufficient weight</text>
<polygon fill="none" stroke="black" points="8,-4.38 8,-31.62 98.25,-31.62 98.25,-4.38 8,-4.38"/>
</g>
<!-- n_0_1&#45;&gt;n_0 -->
<g id="edge5" class="edge">
<title>n_0_1&#45;&gt;n_0</title>
<path fill="none" stroke="black" d="M96.97,-79.29C89.69,-69.27 80.26,-56.31 72.02,-44.98"/>
<polygon fill="black" stroke="black" points="75.05,-43.19 66.34,-37.17 69.39,-47.31 75.05,-43.19"/>
</g>
<!-- n_1 -->
<g id="node7" class="node">
<title>n_1</title>
<polygon fill="none" stroke="black" points="144.12,-5.38 144.12,-30.62 188.12,-30.62 188.12,-5.38 144.12,-5.38"/>
<text text-anchor="start" x="151.12" y="-16.07" font-family="Times New Roman,serif" font-weight="bold" font-size="9.00">Normal</text>
<polygon fill="none" stroke="black" points="143.12,-4.38 143.12,-31.62 189.12,-31.62 189.12,-4.38 143.12,-4.38"/>
</g>
<!-- n_0_1&#45;&gt;n_1 -->
<g id="edge6" class="edge">
<title>n_0_1&#45;&gt;n_1</title>
<path fill="none" stroke="black" d="M121.49,-79.29C128.91,-69.27 138.5,-56.31 146.89,-44.98"/>
<polygon fill="black" stroke="black" points="149.55,-47.28 152.68,-37.16 143.92,-43.11 149.55,-47.28"/>
</g>
<!-- n_2 -->
<g id="node10" class="node">
<title>n_2</title>
<polygon fill="none" stroke="black" points="359.62,-84.38 359.62,-109.62 424.62,-109.62 424.62,-84.38 359.62,-84.38"/>
<text text-anchor="start" x="366.62" y="-95.08" font-family="Times New Roman,serif" font-weight="bold" font-size="9.00">Overweight I</text>
<polygon fill="none" stroke="black" points="358.62,-83.38 358.62,-110.62 425.62,-110.62 425.62,-83.38 358.62,-83.38"/>
</g>
<!-- n_2_4&#45;&gt;n_2 -->
<g id="edge9" class="edge">
<title>n_2_4&#45;&gt;n_2</title>
<path fill="none" stroke="black" d="M405.52,-161.03C403.36,-150.85 400.55,-137.65 398.07,-125.96"/>
<polygon fill="black" stroke="black" points="401.54,-125.48 396.04,-116.42 394.69,-126.93 401.54,-125.48"/>
</g>
<!-- n_4 -->
<g id="node11" class="node">
<title>n_4</title>
<polygon fill="none" stroke="black" points="472.12,-84.38 472.12,-109.62 522.12,-109.62 522.12,-84.38 472.12,-84.38"/>
<text text-anchor="start" x="479.12" y="-95.08" font-family="Times New Roman,serif" font-weight="bold" font-size="9.00">Obesity I</text>
<polygon fill="none" stroke="black" points="471.12,-83.38 471.12,-110.62 523.12,-110.62 523.12,-83.38 471.12,-83.38"/>
</g>
<!-- n_2_4&#45;&gt;n_4 -->
<g id="edge10" class="edge">
<title>n_2_4&#45;&gt;n_4</title>
<path fill="none" stroke="black" d="M427.79,-161.03C440.15,-149.79 456.57,-134.87 470.33,-122.36"/>
<polygon fill="black" stroke="black" points="472.32,-125.28 477.37,-115.96 467.62,-120.1 472.32,-125.28"/>
</g>
</g>
</svg>
