<?xml version="1.0" encoding="UTF-8" standalone="no"?>
<!DOCTYPE svg PUBLIC "-//W3C//DTD SVG 1.1//EN"
 "http://www.w3.org/Graphics/SVG/1.1/DTD/svg11.dtd">
<!-- Generated by graphviz version 10.0.1 (20240210.2158)
 -->
<!-- Title: ND Pages: 1 -->
<svg width="604pt" height="638pt"
 viewBox="0.00 0.00 604.12 638.00" xmlns="http://www.w3.org/2000/svg" xmlns:xlink="http://www.w3.org/1999/xlink">
<g id="graph0" class="graph" transform="scale(1 1) rotate(0) translate(4 634)">
<title>ND</title>
<polygon fill="white" stroke="none" points="-4,4 -4,-634 600.12,-634 600.12,4 -4,4"/>
<!-- n_0_1_2_3_4_5_6 -->
<g id="node1" class="node">
<title>n_0_1_2_3_4_5_6</title>
<polygon fill="none" stroke="black" points="399,-557 399,-625 487.25,-625 487.25,-557 399,-557"/>
<text text-anchor="start" x="406" y="-610.45" font-family="Times New Roman,serif" font-weight="bold" font-size="9.00">Insufficient weight</text>
<text text-anchor="start" x="428.12" y="-601.45" font-family="Times New Roman,serif" font-weight="bold" font-size="9.00">Normal</text>
<text text-anchor="start" x="417.62" y="-592.45" font-family="Times New Roman,serif" font-weight="bold" font-size="9.00">Overweight I</text>
<text text-anchor="start" x="425.12" y="-583.45" font-family="Times New Roman,serif" font-weight="bold" font-size="9.00">Obesity I</text>
<text text-anchor="start" x="423.62" y="-574.45" font-family="Times New Roman,serif" font-weight="bold" font-size="9.00">Obesity II</text>
<text text-anchor="start" x="422.12" y="-565.45" font-family="Times New Roman,serif" font-weight="bold" font-size="9.00">Obesity III</text>
<polygon fill="none" stroke="black" points="487.25,-557 487.25,-625 555.25,-625 555.25,-557 487.25,-557"/>
<text text-anchor="start" x="494.25" y="-589.08" font-family="Times New Roman,serif" font-weight="bold" font-size="9.00">Overweight II</text>
<polygon fill="none" stroke="black" points="398,-556 398,-626 556.25,-626 556.25,-556 398,-556"/>
</g>
<!-- n_0_1_2_4_5_6 -->
<g id="node2" class="node">
<title>n_0_1_2_4_5_6</title>
<polygon fill="none" stroke="black" points="330.5,-445 330.5,-504 418.75,-504 418.75,-445 330.5,-445"/>
<text text-anchor="start" x="337.5" y="-489.45" font-family="Times New Roman,serif" font-weight="bold" font-size="9.00">Insufficient weight</text>
<text text-anchor="start" x="359.62" y="-480.45" font-family="Times New Roman,serif" font-weight="bold" font-size="9.00">Normal</text>
<text text-anchor="start" x="349.12" y="-471.45" font-family="Times New Roman,serif" font-weight="bold" font-size="9.00">Overweight I</text>
<text text-anchor="start" x="356.62" y="-462.45" font-family="Times New Roman,serif" font-weight="bold" font-size="9.00">Obesity I</text>
<text text-anchor="start" x="353.62" y="-453.45" font-family="Times New Roman,serif" font-weight="bold" font-size="9.00">Obesity III</text>
<polygon fill="none" stroke="black" points="418.75,-445 418.75,-504 471.75,-504 471.75,-445 418.75,-445"/>
<text text-anchor="start" x="425.75" y="-472.57" font-family="Times New Roman,serif" font-weight="bold" font-size="9.00">Obesity II</text>
<polygon fill="none" stroke="black" points="329.5,-444 329.5,-505 472.75,-505 472.75,-444 329.5,-444"/>
</g>
<!-- n_0_1_2_3_4_5_6&#45;&gt;n_0_1_2_4_5_6 -->
<g id="edge1" class="edge">
<title>n_0_1_2_3_4_5_6&#45;&gt;n_0_1_2_4_5_6</title>
<path fill="none" stroke="black" d="M452.03,-552.19C444.81,-541.31 436.88,-529.36 429.47,-518.21"/>
<polygon fill="black" stroke="black" points="432.41,-516.31 423.97,-509.91 426.58,-520.18 432.41,-516.31"/>
</g>
<!-- n_3 -->
<g id="node13" class="node">
<title>n_3</title>
<polygon fill="none" stroke="black" points="519.12,-461.88 519.12,-487.12 587.12,-487.12 587.12,-461.88 519.12,-461.88"/>
<text text-anchor="start" x="526.12" y="-472.57" font-family="Times New Roman,serif" font-weight="bold" font-size="9.00">Overweight II</text>
<polygon fill="none" stroke="black" points="518.12,-460.88 518.12,-488.12 588.12,-488.12 588.12,-460.88 518.12,-460.88"/>
</g>
<!-- n_0_1_2_3_4_5_6&#45;&gt;n_3 -->
<g id="edge12" class="edge">
<title>n_0_1_2_3_4_5_6&#45;&gt;n_3</title>
<path fill="none" stroke="black" d="M502.22,-552.19C513.22,-535.63 525.85,-516.6 535.78,-501.64"/>
<polygon fill="black" stroke="black" points="538.41,-503.99 541.03,-493.72 532.58,-500.12 538.41,-503.99"/>
</g>
<!-- n_0_1_2_4_6 -->
<g id="node3" class="node">
<title>n_0_1_2_4_6</title>
<polygon fill="none" stroke="black" points="261,-342 261,-392 349.25,-392 349.25,-342 261,-342"/>
<text text-anchor="start" x="268" y="-377.45" font-family="Times New Roman,serif" font-weight="bold" font-size="9.00">Insufficient weight</text>
<text text-anchor="start" x="290.12" y="-368.45" font-family="Times New Roman,serif" font-weight="bold" font-size="9.00">Normal</text>
<text text-anchor="start" x="279.62" y="-359.45" font-family="Times New Roman,serif" font-weight="bold" font-size="9.00">Overweight I</text>
<text text-anchor="start" x="284.12" y="-350.45" font-family="Times New Roman,serif" font-weight="bold" font-size="9.00">Obesity III</text>
<polygon fill="none" stroke="black" points="349.25,-342 349.25,-392 399.25,-392 399.25,-342 349.25,-342"/>
<text text-anchor="start" x="356.25" y="-365.07" font-family="Times New Roman,serif" font-weight="bold" font-size="9.00">Obesity I</text>
<polygon fill="none" stroke="black" points="260,-341 260,-393 400.25,-393 400.25,-341 260,-341"/>
</g>
<!-- n_0_1_2_4_5_6&#45;&gt;n_0_1_2_4_6 -->
<g id="edge2" class="edge">
<title>n_0_1_2_4_5_6&#45;&gt;n_0_1_2_4_6</title>
<path fill="none" stroke="black" d="M378.66,-440.12C371.43,-429.38 363.37,-417.4 355.92,-406.33"/>
<polygon fill="black" stroke="black" points="358.91,-404.5 350.42,-398.15 353.1,-408.4 358.91,-404.5"/>
</g>
<!-- n_5 -->
<g id="node12" class="node">
<title>n_5</title>
<polygon fill="none" stroke="black" points="446.62,-354.38 446.62,-379.62 499.62,-379.62 499.62,-354.38 446.62,-354.38"/>
<text text-anchor="start" x="453.62" y="-365.07" font-family="Times New Roman,serif" font-weight="bold" font-size="9.00">Obesity II</text>
<polygon fill="none" stroke="black" points="445.62,-353.38 445.62,-380.62 500.62,-380.62 500.62,-353.38 445.62,-353.38"/>
</g>
<!-- n_0_1_2_4_5_6&#45;&gt;n_5 -->
<g id="edge11" class="edge">
<title>n_0_1_2_4_5_6&#45;&gt;n_5</title>
<path fill="none" stroke="black" d="M423.91,-440.12C433.98,-425.35 445.67,-408.23 455.12,-394.38"/>
<polygon fill="black" stroke="black" points="457.96,-396.43 460.7,-386.2 452.18,-392.49 457.96,-396.43"/>
</g>
<!-- n_0_1_2_6 -->
<g id="node4" class="node">
<title>n_0_1_2_6</title>
<polygon fill="none" stroke="black" points="186,-248 186,-289 274.25,-289 274.25,-248 186,-248"/>
<text text-anchor="start" x="193" y="-274.45" font-family="Times New Roman,serif" font-weight="bold" font-size="9.00">Insufficient weight</text>
<text text-anchor="start" x="215.12" y="-265.45" font-family="Times New Roman,serif" font-weight="bold" font-size="9.00">Normal</text>
<text text-anchor="start" x="204.62" y="-256.45" font-family="Times New Roman,serif" font-weight="bold" font-size="9.00">Overweight I</text>
<polygon fill="none" stroke="black" points="274.25,-248 274.25,-289 330.25,-289 330.25,-248 274.25,-248"/>
<text text-anchor="start" x="281.25" y="-266.57" font-family="Times New Roman,serif" font-weight="bold" font-size="9.00">Obesity III</text>
<polygon fill="none" stroke="black" points="185,-247 185,-290 331.25,-290 331.25,-247 185,-247"/>
</g>
<!-- n_0_1_2_4_6&#45;&gt;n_0_1_2_6 -->
<g id="edge3" class="edge">
<title>n_0_1_2_4_6&#45;&gt;n_0_1_2_6</title>
<path fill="none" stroke="black" d="M308.52,-337.05C300.5,-326.29 291.33,-314 283.03,-302.88"/>
<polygon fill="black" stroke="black" points="286,-301.01 277.22,-295.09 280.39,-305.2 286,-301.01"/>
</g>
<!-- n_4 -->
<g id="node11" class="node">
<title>n_4</title>
<polygon fill="none" stroke="black" points="377.12,-255.88 377.12,-281.12 427.12,-281.12 427.12,-255.88 377.12,-255.88"/>
<text text-anchor="start" x="384.12" y="-266.57" font-family="Times New Roman,serif" font-weight="bold" font-size="9.00">Obesity I</text>
<polygon fill="none" stroke="black" points="376.12,-254.88 376.12,-282.12 428.12,-282.12 428.12,-254.88 376.12,-254.88"/>
</g>
<!-- n_0_1_2_4_6&#45;&gt;n_4 -->
<g id="edge10" class="edge">
<title>n_0_1_2_4_6&#45;&gt;n_4</title>
<path fill="none" stroke="black" d="M351.73,-337.05C361.56,-323.86 373.12,-308.38 382.68,-295.56"/>
<polygon fill="black" stroke="black" points="385.46,-297.69 388.64,-287.58 379.85,-293.5 385.46,-297.69"/>
</g>
<!-- n_0_1_2 -->
<g id="node5" class="node">
<title>n_0_1_2</title>
<polygon fill="none" stroke="black" points="122,-163 122,-195 210.25,-195 210.25,-163 122,-163"/>
<text text-anchor="start" x="129" y="-180.45" font-family="Times New Roman,serif" font-weight="bold" font-size="9.00">Insufficient weight</text>
<text text-anchor="start" x="140.62" y="-171.45" font-family="Times New Roman,serif" font-weight="bold" font-size="9.00">Overweight I</text>
<polygon fill="none" stroke="black" points="210.25,-163 210.25,-195 254.25,-195 254.25,-163 210.25,-163"/>
<text text-anchor="start" x="217.25" y="-177.07" font-family="Times New Roman,serif" font-weight="bold" font-size="9.00">Normal</text>
<polygon fill="none" stroke="black" points="121,-162 121,-196 255.25,-196 255.25,-162 121,-162"/>
</g>
<!-- n_0_1_2_6&#45;&gt;n_0_1_2 -->
<g id="edge4" class="edge">
<title>n_0_1_2_6&#45;&gt;n_0_1_2</title>
<path fill="none" stroke="black" d="M238.63,-243.13C230.09,-232.46 220.02,-219.87 211.12,-208.75"/>
<polygon fill="black" stroke="black" points="213.91,-206.63 204.93,-201.01 208.45,-211 213.91,-206.63"/>
</g>
<!-- n_6 -->
<g id="node10" class="node">
<title>n_6</title>
<polygon fill="none" stroke="black" points="301.12,-166.38 301.12,-191.62 357.12,-191.62 357.12,-166.38 301.12,-166.38"/>
<text text-anchor="start" x="308.12" y="-177.07" font-family="Times New Roman,serif" font-weight="bold" font-size="9.00">Obesity III</text>
<polygon fill="none" stroke="black" points="300.12,-165.38 300.12,-192.62 358.12,-192.62 358.12,-165.38 300.12,-165.38"/>
</g>
<!-- n_0_1_2_6&#45;&gt;n_6 -->
<g id="edge9" class="edge">
<title>n_0_1_2_6&#45;&gt;n_6</title>
<path fill="none" stroke="black" d="M277.9,-243.13C287.36,-231.48 298.67,-217.53 308.26,-205.71"/>
<polygon fill="black" stroke="black" points="310.98,-207.92 314.56,-197.95 305.54,-203.51 310.98,-207.92"/>
</g>
<!-- n_0_2 -->
<g id="node6" class="node">
<title>n_0_2</title>
<polygon fill="none" stroke="black" points="38.5,-84.38 38.5,-109.62 126.75,-109.62 126.75,-84.38 38.5,-84.38"/>
<text text-anchor="start" x="45.5" y="-95.08" font-family="Times New Roman,serif" font-weight="bold" font-size="9.00">Insufficient weight</text>
<polygon fill="none" stroke="black" points="126.75,-84.38 126.75,-109.62 191.75,-109.62 191.75,-84.38 126.75,-84.38"/>
<text text-anchor="start" x="133.75" y="-95.08" font-family="Times New Roman,serif" font-weight="bold" font-size="9.00">Overweight I</text>
<polygon fill="none" stroke="black" points="37.5,-83.38 37.5,-110.62 192.75,-110.62 192.75,-83.38 37.5,-83.38"/>
</g>
<!-- n_0_1_2&#45;&gt;n_0_2 -->
<g id="edge5" class="edge">
<title>n_0_1_2&#45;&gt;n_0_2</title>
<path fill="none" stroke="black" d="M170.08,-158.22C160.39,-147.61 148.35,-134.41 138,-123.07"/>
<polygon fill="black" stroke="black" points="140.84,-120.99 131.52,-115.96 135.67,-125.71 140.84,-120.99"/>
</g>
<!-- n_1 -->
<g id="node9" class="node">
<title>n_1</title>
<polygon fill="none" stroke="black" points="239.12,-84.38 239.12,-109.62 283.12,-109.62 283.12,-84.38 239.12,-84.38"/>
<text text-anchor="start" x="246.12" y="-95.08" font-family="Times New Roman,serif" font-weight="bold" font-size="9.00">Normal</text>
<polygon fill="none" stroke="black" points="238.12,-83.38 238.12,-110.62 284.12,-110.62 284.12,-83.38 238.12,-83.38"/>
</g>
<!-- n_0_1_2&#45;&gt;n_1 -->
<g id="edge8" class="edge">
<title>n_0_1_2&#45;&gt;n_1</title>
<path fill="none" stroke="black" d="M206.17,-158.22C215.86,-147.61 227.9,-134.41 238.25,-123.07"/>
<polygon fill="black" stroke="black" points="240.58,-125.71 244.73,-115.96 235.41,-120.99 240.58,-125.71"/>
</g>
<!-- n_0 -->
<g id="node7" class="node">
<title>n_0</title>
<polygon fill="none" stroke="black" points="9,-5.38 9,-30.62 97.25,-30.62 97.25,-5.38 9,-5.38"/>
<text text-anchor="start" x="16" y="-16.07" font-family="Times New Roman,serif" font-weight="bold" font-size="9.00">Insufficient weight</text>
<polygon fill="none" stroke="black" points="8,-4.38 8,-31.62 98.25,-31.62 98.25,-4.38 8,-4.38"/>
</g>
<!-- n_0_2&#45;&gt;n_0 -->
<g id="edge6" class="edge">
<title>n_0_2&#45;&gt;n_0</title>
<path fill="none" stroke="black" d="M101.67,-79.29C93.52,-69.17 82.96,-56.05 73.77,-44.64"/>
<polygon fill="black" stroke="black" points="76.71,-42.71 67.72,-37.12 71.26,-47.1 76.71,-42.71"/>
</g>
<!-- n_2 -->
<g id="node8" class="node">
<title>n_2</title>
<polygon fill="none" stroke="black" points="144.62,-5.38 144.62,-30.62 209.62,-30.62 209.62,-5.38 144.62,-5.38"/>
<text text-anchor="start" x="151.62" y="-16.07" font-family="Times New Roman,serif" font-weight="bold" font-size="9.00">Overweight I</text>
<polygon fill="none" stroke="black" points="143.62,-4.38 143.62,-31.62 210.62,-31.62 210.62,-4.38 143.62,-4.38"/>
</g>
<!-- n_0_2&#45;&gt;n_2 -->
<g id="edge7" class="edge">
<title>n_0_2&#45;&gt;n_2</title>
<path fill="none" stroke="black" d="M128.58,-79.29C136.73,-69.17 147.29,-56.05 156.48,-44.64"/>
<polygon fill="black" stroke="black" points="158.99,-47.1 162.53,-37.12 153.54,-42.71 158.99,-47.1"/>
</g>
</g>
</svg>
