<?xml version="1.0" encoding="UTF-8" standalone="no"?>
<!DOCTYPE svg PUBLIC "-//W3C//DTD SVG 1.1//EN"
 "http://www.w3.org/Graphics/SVG/1.1/DTD/svg11.dtd">
<!-- Generated by graphviz version 10.0.1 (20240210.2158)
 -->
<!-- Title: ND Pages: 1 -->
<svg width="624pt" height="405pt"
 viewBox="0.00 0.00 623.62 405.00" xmlns="http://www.w3.org/2000/svg" xmlns:xlink="http://www.w3.org/1999/xlink">
<g id="graph0" class="graph" transform="scale(1 1) rotate(0) translate(4 401)">
<title>ND</title>
<polygon fill="white" stroke="none" points="-4,4 -4,-401 619.62,-401 619.62,4 -4,4"/>
<!-- n_0_1_2_3_4_5_6 -->
<g id="node1" class="node">
<title>n_0_1_2_3_4_5_6</title>
<polygon fill="none" stroke="black" points="286,-342 286,-392 374.25,-392 374.25,-342 286,-342"/>
<text text-anchor="start" x="293" y="-377.45" font-family="Times New Roman,serif" font-weight="bold" font-size="9.00">Insufficient weight</text>
<text text-anchor="start" x="312.12" y="-368.45" font-family="Times New Roman,serif" font-weight="bold" font-size="9.00">Obesity I</text>
<text text-anchor="start" x="310.62" y="-359.45" font-family="Times New Roman,serif" font-weight="bold" font-size="9.00">Obesity II</text>
<text text-anchor="start" x="309.12" y="-350.45" font-family="Times New Roman,serif" font-weight="bold" font-size="9.00">Obesity III</text>
<polygon fill="none" stroke="black" points="374.25,-342 374.25,-392 442.25,-392 442.25,-342 374.25,-342"/>
<text text-anchor="start" x="393.25" y="-372.95" font-family="Times New Roman,serif" font-weight="bold" font-size="9.00">Normal</text>
<text text-anchor="start" x="382.75" y="-363.95" font-family="Times New Roman,serif" font-weight="bold" font-size="9.00">Overweight I</text>
<text text-anchor="start" x="381.25" y="-354.95" font-family="Times New Roman,serif" font-weight="bold" font-size="9.00">Overweight II</text>
<polygon fill="none" stroke="black" points="285,-341 285,-393 443.25,-393 443.25,-341 285,-341"/>
</g>
<!-- n_0_4_5_6 -->
<g id="node2" class="node">
<title>n_0_4_5_6</title>
<polygon fill="none" stroke="black" points="201.5,-248 201.5,-289 289.75,-289 289.75,-248 201.5,-248"/>
<text text-anchor="start" x="208.5" y="-274.45" font-family="Times New Roman,serif" font-weight="bold" font-size="9.00">Insufficient weight</text>
<text text-anchor="start" x="227.62" y="-265.45" font-family="Times New Roman,serif" font-weight="bold" font-size="9.00">Obesity I</text>
<text text-anchor="start" x="224.62" y="-256.45" font-family="Times New Roman,serif" font-weight="bold" font-size="9.00">Obesity III</text>
<polygon fill="none" stroke="black" points="289.75,-248 289.75,-289 342.75,-289 342.75,-248 289.75,-248"/>
<text text-anchor="start" x="296.75" y="-266.57" font-family="Times New Roman,serif" font-weight="bold" font-size="9.00">Obesity II</text>
<polygon fill="none" stroke="black" points="200.5,-247 200.5,-290 343.75,-290 343.75,-247 200.5,-247"/>
</g>
<!-- n_0_1_2_3_4_5_6&#45;&gt;n_0_4_5_6 -->
<g id="edge1" class="edge">
<title>n_0_1_2_3_4_5_6&#45;&gt;n_0_4_5_6</title>
<path fill="none" stroke="black" d="M336.52,-337.05C325.96,-325.97 313.85,-313.26 303,-301.88"/>
<polygon fill="black" stroke="black" points="305.84,-299.79 296.41,-294.97 300.77,-304.62 305.84,-299.79"/>
</g>
<!-- n_1_2_3 -->
<g id="node9" class="node">
<title>n_1_2_3</title>
<polygon fill="none" stroke="black" points="389.62,-252.5 389.62,-284.5 457.62,-284.5 457.62,-252.5 389.62,-252.5"/>
<text text-anchor="start" x="408.62" y="-269.95" font-family="Times New Roman,serif" font-weight="bold" font-size="9.00">Normal</text>
<text text-anchor="start" x="396.62" y="-260.95" font-family="Times New Roman,serif" font-weight="bold" font-size="9.00">Overweight II</text>
<polygon fill="none" stroke="black" points="457.62,-252.5 457.62,-284.5 522.62,-284.5 522.62,-252.5 457.62,-252.5"/>
<text text-anchor="start" x="464.62" y="-266.57" font-family="Times New Roman,serif" font-weight="bold" font-size="9.00">Overweight I</text>
<polygon fill="none" stroke="black" points="388.62,-251.5 388.62,-285.5 523.62,-285.5 523.62,-251.5 388.62,-251.5"/>
</g>
<!-- n_0_1_2_3_4_5_6&#45;&gt;n_1_2_3 -->
<g id="edge8" class="edge">
<title>n_0_1_2_3_4_5_6&#45;&gt;n_1_2_3</title>
<path fill="none" stroke="black" d="M391.73,-337.05C403.68,-324.51 417.62,-309.89 429.47,-297.46"/>
<polygon fill="black" stroke="black" points="431.88,-300.01 436.24,-290.35 426.81,-295.18 431.88,-300.01"/>
</g>
<!-- n_0_4_6 -->
<g id="node3" class="node">
<title>n_0_4_6</title>
<polygon fill="none" stroke="black" points="73,-163 73,-195 161.25,-195 161.25,-163 73,-163"/>
<text text-anchor="start" x="80" y="-180.45" font-family="Times New Roman,serif" font-weight="bold" font-size="9.00">Insufficient weight</text>
<text text-anchor="start" x="99.12" y="-171.45" font-family="Times New Roman,serif" font-weight="bold" font-size="9.00">Obesity I</text>
<polygon fill="none" stroke="black" points="161.25,-163 161.25,-195 217.25,-195 217.25,-163 161.25,-163"/>
<text text-anchor="start" x="168.25" y="-177.07" font-family="Times New Roman,serif" font-weight="bold" font-size="9.00">Obesity III</text>
<polygon fill="none" stroke="black" points="72,-162 72,-196 218.25,-196 218.25,-162 72,-162"/>
</g>
<!-- n_0_4_5_6&#45;&gt;n_0_4_6 -->
<g id="edge2" class="edge">
<title>n_0_4_5_6&#45;&gt;n_0_4_6</title>
<path fill="none" stroke="black" d="M236.75,-243.13C220.03,-231.61 200.05,-217.84 183.02,-206.11"/>
<polygon fill="black" stroke="black" points="185.37,-203.48 175.15,-200.68 181.4,-209.24 185.37,-203.48"/>
</g>
<!-- n_5 -->
<g id="node8" class="node">
<title>n_5</title>
<polygon fill="none" stroke="black" points="264.62,-166.38 264.62,-191.62 317.62,-191.62 317.62,-166.38 264.62,-166.38"/>
<text text-anchor="start" x="271.62" y="-177.07" font-family="Times New Roman,serif" font-weight="bold" font-size="9.00">Obesity II</text>
<polygon fill="none" stroke="black" points="263.62,-165.38 263.62,-192.62 318.62,-192.62 318.62,-165.38 263.62,-165.38"/>
</g>
<!-- n_0_4_5_6&#45;&gt;n_5 -->
<g id="edge7" class="edge">
<title>n_0_4_5_6&#45;&gt;n_5</title>
<path fill="none" stroke="black" d="M277.42,-243.13C279.8,-232.17 282.62,-219.18 285.08,-207.84"/>
<polygon fill="black" stroke="black" points="288.46,-208.76 287.16,-198.25 281.62,-207.28 288.46,-208.76"/>
</g>
<!-- n_0_4 -->
<g id="node4" class="node">
<title>n_0_4</title>
<polygon fill="none" stroke="black" points="42,-84.38 42,-109.62 130.25,-109.62 130.25,-84.38 42,-84.38"/>
<text text-anchor="start" x="49" y="-95.08" font-family="Times New Roman,serif" font-weight="bold" font-size="9.00">Insufficient weight</text>
<polygon fill="none" stroke="black" points="130.25,-84.38 130.25,-109.62 180.25,-109.62 180.25,-84.38 130.25,-84.38"/>
<text text-anchor="start" x="137.25" y="-95.08" font-family="Times New Roman,serif" font-weight="bold" font-size="9.00">Obesity I</text>
<polygon fill="none" stroke="black" points="41,-83.38 41,-110.62 181.25,-110.62 181.25,-83.38 41,-83.38"/>
</g>
<!-- n_0_4_6&#45;&gt;n_0_4 -->
<g id="edge3" class="edge">
<title>n_0_4_6&#45;&gt;n_0_4</title>
<path fill="none" stroke="black" d="M136.72,-158.22C132.52,-148.33 127.36,-136.21 122.78,-125.43"/>
<polygon fill="black" stroke="black" points="126.01,-124.07 118.88,-116.24 119.57,-126.81 126.01,-124.07"/>
</g>
<!-- n_6 -->
<g id="node7" class="node">
<title>n_6</title>
<polygon fill="none" stroke="black" points="227.12,-84.38 227.12,-109.62 283.12,-109.62 283.12,-84.38 227.12,-84.38"/>
<text text-anchor="start" x="234.12" y="-95.08" font-family="Times New Roman,serif" font-weight="bold" font-size="9.00">Obesity III</text>
<polygon fill="none" stroke="black" points="226.12,-83.38 226.12,-110.62 284.12,-110.62 284.12,-83.38 226.12,-83.38"/>
</g>
<!-- n_0_4_6&#45;&gt;n_6 -->
<g id="edge6" class="edge">
<title>n_0_4_6&#45;&gt;n_6</title>
<path fill="none" stroke="black" d="M172.6,-158.02C187.92,-146.88 207.08,-132.94 223.08,-121.31"/>
<polygon fill="black" stroke="black" points="224.83,-124.36 230.86,-115.65 220.71,-118.7 224.83,-124.36"/>
</g>
<!-- n_0 -->
<g id="node5" class="node">
<title>n_0</title>
<polygon fill="none" stroke="black" points="9,-5.38 9,-30.62 97.25,-30.62 97.25,-5.38 9,-5.38"/>
<text text-anchor="start" x="16" y="-16.07" font-family="Times New Roman,serif" font-weight="bold" font-size="9.00">Insufficient weight</text>
<polygon fill="none" stroke="black" points="8,-4.38 8,-31.62 98.25,-31.62 98.25,-4.38 8,-4.38"/>
</g>
<!-- n_0_4&#45;&gt;n_0 -->
<g id="edge4" class="edge">
<title>n_0_4&#45;&gt;n_0</title>
<path fill="none" stroke="black" d="M98.54,-79.29C90.99,-69.27 81.23,-56.31 72.69,-44.98"/>
<polygon fill="black" stroke="black" points="75.61,-43.03 66.8,-37.15 70.02,-47.24 75.61,-43.03"/>
</g>
<!-- n_4 -->
<g id="node6" class="node">
<title>n_4</title>
<polygon fill="none" stroke="black" points="144.12,-5.38 144.12,-30.62 194.12,-30.62 194.12,-5.38 144.12,-5.38"/>
<text text-anchor="start" x="151.12" y="-16.07" font-family="Times New Roman,serif" font-weight="bold" font-size="9.00">Obesity I</text>
<polygon fill="none" stroke="black" points="143.12,-4.38 143.12,-31.62 195.12,-31.62 195.12,-4.38 143.12,-4.38"/>
</g>
<!-- n_0_4&#45;&gt;n_4 -->
<g id="edge5" class="edge">
<title>n_0_4&#45;&gt;n_4</title>
<path fill="none" stroke="black" d="M123.71,-79.29C131.26,-69.27 141.02,-56.31 149.56,-44.98"/>
<polygon fill="black" stroke="black" points="152.23,-47.24 155.45,-37.15 146.64,-43.03 152.23,-47.24"/>
</g>
<!-- n_1_3 -->
<g id="node10" class="node">
<title>n_1_3</title>
<polygon fill="none" stroke="black" points="382.12,-166.38 382.12,-191.62 426.12,-191.62 426.12,-166.38 382.12,-166.38"/>
<text text-anchor="start" x="389.12" y="-177.07" font-family="Times New Roman,serif" font-weight="bold" font-size="9.00">Normal</text>
<polygon fill="none" stroke="black" points="426.12,-166.38 426.12,-191.62 494.12,-191.62 494.12,-166.38 426.12,-166.38"/>
<text text-anchor="start" x="433.12" y="-177.07" font-family="Times New Roman,serif" font-weight="bold" font-size="9.00">Overweight II</text>
<polygon fill="none" stroke="black" points="381.12,-165.38 381.12,-192.62 495.12,-192.62 495.12,-165.38 381.12,-165.38"/>
</g>
<!-- n_1_2_3&#45;&gt;n_1_3 -->
<g id="edge9" class="edge">
<title>n_1_2_3&#45;&gt;n_1_3</title>
<path fill="none" stroke="black" d="M452.04,-247.64C449.63,-235.91 446.53,-220.86 443.87,-207.94"/>
<polygon fill="black" stroke="black" points="447.34,-207.4 441.89,-198.31 440.48,-208.81 447.34,-207.4"/>
</g>
<!-- n_2 -->
<g id="node13" class="node">
<title>n_2</title>
<polygon fill="none" stroke="black" points="541.62,-166.38 541.62,-191.62 606.62,-191.62 606.62,-166.38 541.62,-166.38"/>
<text text-anchor="start" x="548.62" y="-177.07" font-family="Times New Roman,serif" font-weight="bold" font-size="9.00">Overweight I</text>
<polygon fill="none" stroke="black" points="540.62,-165.38 540.62,-192.62 607.62,-192.62 607.62,-165.38 540.62,-165.38"/>
</g>
<!-- n_1_2_3&#45;&gt;n_2 -->
<g id="edge12" class="edge">
<title>n_1_2_3&#45;&gt;n_2</title>
<path fill="none" stroke="black" d="M482.9,-247.64C500.5,-234.59 523.63,-217.45 542.19,-203.68"/>
<polygon fill="black" stroke="black" points="544.26,-206.5 550.21,-197.73 540.09,-200.88 544.26,-206.5"/>
</g>
<!-- n_1 -->
<g id="node11" class="node">
<title>n_1</title>
<polygon fill="none" stroke="black" points="373.12,-84.38 373.12,-109.62 417.12,-109.62 417.12,-84.38 373.12,-84.38"/>
<text text-anchor="start" x="380.12" y="-95.08" font-family="Times New Roman,serif" font-weight="bold" font-size="9.00">Normal</text>
<polygon fill="none" stroke="black" points="372.12,-83.38 372.12,-110.62 418.12,-110.62 418.12,-83.38 372.12,-83.38"/>
</g>
<!-- n_1_3&#45;&gt;n_1 -->
<g id="edge10" class="edge">
<title>n_1_3&#45;&gt;n_1</title>
<path fill="none" stroke="black" d="M429.01,-161.03C423.36,-150.53 415.99,-136.82 409.57,-124.87"/>
<polygon fill="black" stroke="black" points="412.76,-123.43 404.95,-116.27 406.6,-126.74 412.76,-123.43"/>
</g>
<!-- n_3 -->
<g id="node12" class="node">
<title>n_3</title>
<polygon fill="none" stroke="black" points="464.12,-84.38 464.12,-109.62 532.12,-109.62 532.12,-84.38 464.12,-84.38"/>
<text text-anchor="start" x="471.12" y="-95.08" font-family="Times New Roman,serif" font-weight="bold" font-size="9.00">Overweight II</text>
<polygon fill="none" stroke="black" points="463.12,-83.38 463.12,-110.62 533.12,-110.62 533.12,-83.38 463.12,-83.38"/>
</g>
<!-- n_1_3&#45;&gt;n_3 -->
<g id="edge11" class="edge">
<title>n_1_3&#45;&gt;n_3</title>
<path fill="none" stroke="black" d="M450.85,-161.03C458.88,-150.32 469.43,-136.27 478.52,-124.15"/>
<polygon fill="black" stroke="black" points="481.31,-126.25 484.51,-116.15 475.71,-122.05 481.31,-126.25"/>
</g>
</g>
</svg>
