<?xml version="1.0" encoding="UTF-8" standalone="no"?>
<!DOCTYPE svg PUBLIC "-//W3C//DTD SVG 1.1//EN"
 "http://www.w3.org/Graphics/SVG/1.1/DTD/svg11.dtd">
<!-- Generated by graphviz version 10.0.1 (20240210.2158)
 -->
<!-- Title: ND Pages: 1 -->
<svg width="572pt" height="535pt"
 viewBox="0.00 0.00 571.62 535.00" xmlns="http://www.w3.org/2000/svg" xmlns:xlink="http://www.w3.org/1999/xlink">
<g id="graph0" class="graph" transform="scale(1 1) rotate(0) translate(4 531)">
<title>ND</title>
<polygon fill="white" stroke="none" points="-4,4 -4,-531 567.62,-531 567.62,4 -4,4"/>
<!-- n_0_1_2_3_4_5_6 -->
<g id="node1" class="node">
<title>n_0_1_2_3_4_5_6</title>
<polygon fill="none" stroke="black" points="357.38,-454 357.38,-522 425.38,-522 425.38,-454 357.38,-454"/>
<text text-anchor="start" x="376.38" y="-507.45" font-family="Times New Roman,serif" font-weight="bold" font-size="9.00">Normal</text>
<text text-anchor="start" x="365.88" y="-498.45" font-family="Times New Roman,serif" font-weight="bold" font-size="9.00">Overweight I</text>
<text text-anchor="start" x="364.38" y="-489.45" font-family="Times New Roman,serif" font-weight="bold" font-size="9.00">Overweight II</text>
<text text-anchor="start" x="373.38" y="-480.45" font-family="Times New Roman,serif" font-weight="bold" font-size="9.00">Obesity I</text>
<text text-anchor="start" x="371.88" y="-471.45" font-family="Times New Roman,serif" font-weight="bold" font-size="9.00">Obesity II</text>
<text text-anchor="start" x="370.38" y="-462.45" font-family="Times New Roman,serif" font-weight="bold" font-size="9.00">Obesity III</text>
<polygon fill="none" stroke="black" points="425.38,-454 425.38,-522 513.62,-522 513.62,-454 425.38,-454"/>
<text text-anchor="start" x="432.38" y="-486.07" font-family="Times New Roman,serif" font-weight="bold" font-size="9.00">Insufficient weight</text>
<polygon fill="none" stroke="black" points="356.38,-453 356.38,-523 514.62,-523 514.62,-453 356.38,-453"/>
</g>
<!-- n_1_2_3_4_5_6 -->
<g id="node2" class="node">
<title>n_1_2_3_4_5_6</title>
<polygon fill="none" stroke="black" points="301.5,-342 301.5,-401 369.5,-401 369.5,-342 301.5,-342"/>
<text text-anchor="start" x="320.5" y="-386.45" font-family="Times New Roman,serif" font-weight="bold" font-size="9.00">Normal</text>
<text text-anchor="start" x="310" y="-377.45" font-family="Times New Roman,serif" font-weight="bold" font-size="9.00">Overweight I</text>
<text text-anchor="start" x="308.5" y="-368.45" font-family="Times New Roman,serif" font-weight="bold" font-size="9.00">Overweight II</text>
<text text-anchor="start" x="316" y="-359.45" font-family="Times New Roman,serif" font-weight="bold" font-size="9.00">Obesity II</text>
<text text-anchor="start" x="314.5" y="-350.45" font-family="Times New Roman,serif" font-weight="bold" font-size="9.00">Obesity III</text>
<polygon fill="none" stroke="black" points="369.5,-342 369.5,-401 419.5,-401 419.5,-342 369.5,-342"/>
<text text-anchor="start" x="376.5" y="-369.57" font-family="Times New Roman,serif" font-weight="bold" font-size="9.00">Obesity I</text>
<polygon fill="none" stroke="black" points="300.5,-341 300.5,-402 420.5,-402 420.5,-341 300.5,-341"/>
</g>
<!-- n_0_1_2_3_4_5_6&#45;&gt;n_1_2_3_4_5_6 -->
<g id="edge1" class="edge">
<title>n_0_1_2_3_4_5_6&#45;&gt;n_1_2_3_4_5_6</title>
<path fill="none" stroke="black" d="M410.73,-449.19C403.61,-438.31 395.78,-426.36 388.47,-415.21"/>
<polygon fill="black" stroke="black" points="391.45,-413.37 383.04,-406.92 385.6,-417.2 391.45,-413.37"/>
</g>
<!-- n_0 -->
<g id="node13" class="node">
<title>n_0</title>
<polygon fill="none" stroke="black" points="466.38,-358.88 466.38,-384.12 554.62,-384.12 554.62,-358.88 466.38,-358.88"/>
<text text-anchor="start" x="473.38" y="-369.57" font-family="Times New Roman,serif" font-weight="bold" font-size="9.00">Insufficient weight</text>
<polygon fill="none" stroke="black" points="465.38,-357.88 465.38,-385.12 555.62,-385.12 555.62,-357.88 465.38,-357.88"/>
</g>
<!-- n_0_1_2_3_4_5_6&#45;&gt;n_0 -->
<g id="edge12" class="edge">
<title>n_0_1_2_3_4_5_6&#45;&gt;n_0</title>
<path fill="none" stroke="black" d="M460.27,-449.19C471.01,-432.78 483.34,-413.96 493.1,-399.07"/>
<polygon fill="black" stroke="black" points="496.01,-401.01 498.56,-390.73 490.15,-397.18 496.01,-401.01"/>
</g>
<!-- n_1_2_3_5_6 -->
<g id="node3" class="node">
<title>n_1_2_3_5_6</title>
<polygon fill="none" stroke="black" points="225,-248 225,-289 290,-289 290,-248 225,-248"/>
<text text-anchor="start" x="242.5" y="-274.45" font-family="Times New Roman,serif" font-weight="bold" font-size="9.00">Normal</text>
<text text-anchor="start" x="232" y="-265.45" font-family="Times New Roman,serif" font-weight="bold" font-size="9.00">Overweight I</text>
<text text-anchor="start" x="236.5" y="-256.45" font-family="Times New Roman,serif" font-weight="bold" font-size="9.00">Obesity III</text>
<polygon fill="none" stroke="black" points="290,-248 290,-289 358,-289 358,-248 290,-248"/>
<text text-anchor="start" x="297" y="-269.95" font-family="Times New Roman,serif" font-weight="bold" font-size="9.00">Overweight II</text>
<text text-anchor="start" x="304.5" y="-260.95" font-family="Times New Roman,serif" font-weight="bold" font-size="9.00">Obesity II</text>
<polygon fill="none" stroke="black" points="224,-247 224,-290 359,-290 359,-247 224,-247"/>
</g>
<!-- n_1_2_3_4_5_6&#45;&gt;n_1_2_3_5_6 -->
<g id="edge2" class="edge">
<title>n_1_2_3_4_5_6&#45;&gt;n_1_2_3_5_6</title>
<path fill="none" stroke="black" d="M337.72,-337.15C330.25,-326.22 321.95,-314.07 314.46,-303.12"/>
<polygon fill="black" stroke="black" points="317.53,-301.39 309,-295.11 311.75,-305.34 317.53,-301.39"/>
</g>
<!-- n_4 -->
<g id="node12" class="node">
<title>n_4</title>
<polygon fill="none" stroke="black" points="405.5,-255.88 405.5,-281.12 455.5,-281.12 455.5,-255.88 405.5,-255.88"/>
<text text-anchor="start" x="412.5" y="-266.57" font-family="Times New Roman,serif" font-weight="bold" font-size="9.00">Obesity I</text>
<polygon fill="none" stroke="black" points="404.5,-254.88 404.5,-282.12 456.5,-282.12 456.5,-254.88 404.5,-254.88"/>
</g>
<!-- n_1_2_3_4_5_6&#45;&gt;n_4 -->
<g id="edge11" class="edge">
<title>n_1_2_3_4_5_6&#45;&gt;n_4</title>
<path fill="none" stroke="black" d="M383.61,-337.15C393.01,-323.6 403.7,-308.17 412.49,-295.48"/>
<polygon fill="black" stroke="black" points="415.12,-297.84 417.94,-287.62 409.37,-293.85 415.12,-297.84"/>
</g>
<!-- n_1_2_6 -->
<g id="node4" class="node">
<title>n_1_2_6</title>
<polygon fill="none" stroke="black" points="156,-163 156,-195 221,-195 221,-163 156,-163"/>
<text text-anchor="start" x="163" y="-180.45" font-family="Times New Roman,serif" font-weight="bold" font-size="9.00">Overweight I</text>
<text text-anchor="start" x="167.5" y="-171.45" font-family="Times New Roman,serif" font-weight="bold" font-size="9.00">Obesity III</text>
<polygon fill="none" stroke="black" points="221,-163 221,-195 265,-195 265,-163 221,-163"/>
<text text-anchor="start" x="228" y="-177.07" font-family="Times New Roman,serif" font-weight="bold" font-size="9.00">Normal</text>
<polygon fill="none" stroke="black" points="155,-162 155,-196 266,-196 266,-162 155,-162"/>
</g>
<!-- n_1_2_3_5_6&#45;&gt;n_1_2_6 -->
<g id="edge3" class="edge">
<title>n_1_2_3_5_6&#45;&gt;n_1_2_6</title>
<path fill="none" stroke="black" d="M268.94,-243.13C258.87,-232.25 246.94,-219.36 236.5,-208.08"/>
<polygon fill="black" stroke="black" points="239.24,-205.9 229.88,-200.94 234.11,-210.65 239.24,-205.9"/>
</g>
<!-- n_3_5 -->
<g id="node9" class="node">
<title>n_3_5</title>
<polygon fill="none" stroke="black" points="312,-166.38 312,-191.62 380,-191.62 380,-166.38 312,-166.38"/>
<text text-anchor="start" x="319" y="-177.07" font-family="Times New Roman,serif" font-weight="bold" font-size="9.00">Overweight II</text>
<polygon fill="none" stroke="black" points="380,-166.38 380,-191.62 433,-191.62 433,-166.38 380,-166.38"/>
<text text-anchor="start" x="387" y="-177.07" font-family="Times New Roman,serif" font-weight="bold" font-size="9.00">Obesity II</text>
<polygon fill="none" stroke="black" points="311,-165.38 311,-192.62 434,-192.62 434,-165.38 311,-165.38"/>
</g>
<!-- n_1_2_3_5_6&#45;&gt;n_3_5 -->
<g id="edge8" class="edge">
<title>n_1_2_3_5_6&#45;&gt;n_3_5</title>
<path fill="none" stroke="black" d="M314.06,-243.13C325.06,-231.24 338.27,-216.97 349.35,-205.01"/>
<polygon fill="black" stroke="black" points="351.72,-207.6 355.95,-197.88 346.59,-202.84 351.72,-207.6"/>
</g>
<!-- n_2_6 -->
<g id="node5" class="node">
<title>n_2_6</title>
<polygon fill="none" stroke="black" points="35,-84.38 35,-109.62 100,-109.62 100,-84.38 35,-84.38"/>
<text text-anchor="start" x="42" y="-95.08" font-family="Times New Roman,serif" font-weight="bold" font-size="9.00">Overweight I</text>
<polygon fill="none" stroke="black" points="100,-84.38 100,-109.62 156,-109.62 156,-84.38 100,-84.38"/>
<text text-anchor="start" x="107" y="-95.08" font-family="Times New Roman,serif" font-weight="bold" font-size="9.00">Obesity III</text>
<polygon fill="none" stroke="black" points="34,-83.38 34,-110.62 157,-110.62 157,-83.38 34,-83.38"/>
</g>
<!-- n_1_2_6&#45;&gt;n_2_6 -->
<g id="edge4" class="edge">
<title>n_1_2_6&#45;&gt;n_2_6</title>
<path fill="none" stroke="black" d="M181.78,-158.02C165.76,-146.88 145.73,-132.94 129,-121.31"/>
<polygon fill="black" stroke="black" points="131.04,-118.46 120.83,-115.62 127.04,-124.21 131.04,-118.46"/>
</g>
<!-- n_1 -->
<g id="node8" class="node">
<title>n_1</title>
<polygon fill="none" stroke="black" points="203.5,-84.38 203.5,-109.62 247.5,-109.62 247.5,-84.38 203.5,-84.38"/>
<text text-anchor="start" x="210.5" y="-95.08" font-family="Times New Roman,serif" font-weight="bold" font-size="9.00">Normal</text>
<polygon fill="none" stroke="black" points="202.5,-83.38 202.5,-110.62 248.5,-110.62 248.5,-83.38 202.5,-83.38"/>
</g>
<!-- n_1_2_6&#45;&gt;n_1 -->
<g id="edge7" class="edge">
<title>n_1_2_6&#45;&gt;n_1</title>
<path fill="none" stroke="black" d="M214.21,-158.22C216.02,-148.54 218.24,-136.72 220.23,-126.11"/>
<polygon fill="black" stroke="black" points="223.66,-126.81 222.06,-116.33 216.78,-125.52 223.66,-126.81"/>
</g>
<!-- n_2 -->
<g id="node6" class="node">
<title>n_2</title>
<polygon fill="none" stroke="black" points="9,-5.38 9,-30.62 74,-30.62 74,-5.38 9,-5.38"/>
<text text-anchor="start" x="16" y="-16.07" font-family="Times New Roman,serif" font-weight="bold" font-size="9.00">Overweight I</text>
<polygon fill="none" stroke="black" points="8,-4.38 8,-31.62 75,-31.62 75,-4.38 8,-4.38"/>
</g>
<!-- n_2_6&#45;&gt;n_2 -->
<g id="edge5" class="edge">
<title>n_2_6&#45;&gt;n_2</title>
<path fill="none" stroke="black" d="M83.78,-79.29C76.83,-69.37 67.85,-56.57 59.96,-45.32"/>
<polygon fill="black" stroke="black" points="62.86,-43.36 54.25,-37.18 57.13,-47.38 62.86,-43.36"/>
</g>
<!-- n_6 -->
<g id="node7" class="node">
<title>n_6</title>
<polygon fill="none" stroke="black" points="121.5,-5.38 121.5,-30.62 177.5,-30.62 177.5,-5.38 121.5,-5.38"/>
<text text-anchor="start" x="128.5" y="-16.07" font-family="Times New Roman,serif" font-weight="bold" font-size="9.00">Obesity III</text>
<polygon fill="none" stroke="black" points="120.5,-4.38 120.5,-31.62 178.5,-31.62 178.5,-4.38 120.5,-4.38"/>
</g>
<!-- n_2_6&#45;&gt;n_6 -->
<g id="edge6" class="edge">
<title>n_2_6&#45;&gt;n_6</title>
<path fill="none" stroke="black" d="M107.22,-79.29C114.17,-69.37 123.15,-56.57 131.04,-45.32"/>
<polygon fill="black" stroke="black" points="133.87,-47.38 136.75,-37.18 128.14,-43.36 133.87,-47.38"/>
</g>
<!-- n_3 -->
<g id="node10" class="node">
<title>n_3</title>
<polygon fill="none" stroke="black" points="323.5,-84.38 323.5,-109.62 391.5,-109.62 391.5,-84.38 323.5,-84.38"/>
<text text-anchor="start" x="330.5" y="-95.08" font-family="Times New Roman,serif" font-weight="bold" font-size="9.00">Overweight II</text>
<polygon fill="none" stroke="black" points="322.5,-83.38 322.5,-110.62 392.5,-110.62 392.5,-83.38 322.5,-83.38"/>
</g>
<!-- n_3_5&#45;&gt;n_3 -->
<g id="edge9" class="edge">
<title>n_3_5&#45;&gt;n_3</title>
<path fill="none" stroke="black" d="M369.32,-161.03C367.41,-150.85 364.93,-137.65 362.74,-125.96"/>
<polygon fill="black" stroke="black" points="366.24,-125.61 360.96,-116.43 359.36,-126.9 366.24,-125.61"/>
</g>
<!-- n_5 -->
<g id="node11" class="node">
<title>n_5</title>
<polygon fill="none" stroke="black" points="439,-84.38 439,-109.62 492,-109.62 492,-84.38 439,-84.38"/>
<text text-anchor="start" x="446" y="-95.08" font-family="Times New Roman,serif" font-weight="bold" font-size="9.00">Obesity II</text>
<polygon fill="none" stroke="black" points="438,-83.38 438,-110.62 493,-110.62 493,-83.38 438,-83.38"/>
</g>
<!-- n_3_5&#45;&gt;n_5 -->
<g id="edge10" class="edge">
<title>n_3_5&#45;&gt;n_5</title>
<path fill="none" stroke="black" d="M392.22,-161.03C405.29,-149.79 422.64,-134.87 437.18,-122.36"/>
<polygon fill="black" stroke="black" points="439.36,-125.1 444.66,-115.93 434.79,-119.8 439.36,-125.1"/>
</g>
</g>
</svg>
