<?xml version="1.0" encoding="UTF-8" standalone="no"?>
<!DOCTYPE svg PUBLIC "-//W3C//DTD SVG 1.1//EN"
 "http://www.w3.org/Graphics/SVG/1.1/DTD/svg11.dtd">
<!-- Generated by graphviz version 10.0.1 (20240210.2158)
 -->
<!-- Title: ND Pages: 1 -->
<svg width="596pt" height="638pt"
 viewBox="0.00 0.00 596.12 638.00" xmlns="http://www.w3.org/2000/svg" xmlns:xlink="http://www.w3.org/1999/xlink">
<g id="graph0" class="graph" transform="scale(1 1) rotate(0) translate(4 634)">
<title>ND</title>
<polygon fill="white" stroke="none" points="-4,4 -4,-634 592.12,-634 592.12,4 -4,4"/>
<!-- n_0_1_2_3_4_5_6 -->
<g id="node1" class="node">
<title>n_0_1_2_3_4_5_6</title>
<polygon fill="none" stroke="black" points="413,-557 413,-625 501.25,-625 501.25,-557 413,-557"/>
<text text-anchor="start" x="420" y="-610.45" font-family="Times New Roman,serif" font-weight="bold" font-size="9.00">Insufficient weight</text>
<text text-anchor="start" x="442.12" y="-601.45" font-family="Times New Roman,serif" font-weight="bold" font-size="9.00">Normal</text>
<text text-anchor="start" x="431.62" y="-592.45" font-family="Times New Roman,serif" font-weight="bold" font-size="9.00">Overweight I</text>
<text text-anchor="start" x="430.12" y="-583.45" font-family="Times New Roman,serif" font-weight="bold" font-size="9.00">Overweight II</text>
<text text-anchor="start" x="437.62" y="-574.45" font-family="Times New Roman,serif" font-weight="bold" font-size="9.00">Obesity II</text>
<text text-anchor="start" x="436.12" y="-565.45" font-family="Times New Roman,serif" font-weight="bold" font-size="9.00">Obesity III</text>
<polygon fill="none" stroke="black" points="501.25,-557 501.25,-625 551.25,-625 551.25,-557 501.25,-557"/>
<text text-anchor="start" x="508.25" y="-589.08" font-family="Times New Roman,serif" font-weight="bold" font-size="9.00">Obesity I</text>
<polygon fill="none" stroke="black" points="412,-556 412,-626 552.25,-626 552.25,-556 412,-556"/>
</g>
<!-- n_0_1_2_3_5_6 -->
<g id="node2" class="node">
<title>n_0_1_2_3_5_6</title>
<polygon fill="none" stroke="black" points="338,-445 338,-504 426.25,-504 426.25,-445 338,-445"/>
<text text-anchor="start" x="345" y="-489.45" font-family="Times New Roman,serif" font-weight="bold" font-size="9.00">Insufficient weight</text>
<text text-anchor="start" x="367.12" y="-480.45" font-family="Times New Roman,serif" font-weight="bold" font-size="9.00">Normal</text>
<text text-anchor="start" x="356.62" y="-471.45" font-family="Times New Roman,serif" font-weight="bold" font-size="9.00">Overweight I</text>
<text text-anchor="start" x="355.12" y="-462.45" font-family="Times New Roman,serif" font-weight="bold" font-size="9.00">Overweight II</text>
<text text-anchor="start" x="362.62" y="-453.45" font-family="Times New Roman,serif" font-weight="bold" font-size="9.00">Obesity II</text>
<polygon fill="none" stroke="black" points="426.25,-445 426.25,-504 482.25,-504 482.25,-445 426.25,-445"/>
<text text-anchor="start" x="433.25" y="-472.57" font-family="Times New Roman,serif" font-weight="bold" font-size="9.00">Obesity III</text>
<polygon fill="none" stroke="black" points="337,-444 337,-505 483.25,-505 483.25,-444 337,-444"/>
</g>
<!-- n_0_1_2_3_4_5_6&#45;&gt;n_0_1_2_3_5_6 -->
<g id="edge1" class="edge">
<title>n_0_1_2_3_4_5_6&#45;&gt;n_0_1_2_3_5_6</title>
<path fill="none" stroke="black" d="M458.35,-552.19C451.51,-541.31 444,-529.36 436.98,-518.21"/>
<polygon fill="black" stroke="black" points="440.06,-516.54 431.78,-509.93 434.14,-520.26 440.06,-516.54"/>
</g>
<!-- n_4 -->
<g id="node13" class="node">
<title>n_4</title>
<polygon fill="none" stroke="black" points="529.12,-461.88 529.12,-487.12 579.12,-487.12 579.12,-461.88 529.12,-461.88"/>
<text text-anchor="start" x="536.12" y="-472.57" font-family="Times New Roman,serif" font-weight="bold" font-size="9.00">Obesity I</text>
<polygon fill="none" stroke="black" points="528.12,-460.88 528.12,-488.12 580.12,-488.12 580.12,-460.88 528.12,-460.88"/>
</g>
<!-- n_0_1_2_3_4_5_6&#45;&gt;n_4 -->
<g id="edge12" class="edge">
<title>n_0_1_2_3_4_5_6&#45;&gt;n_4</title>
<path fill="none" stroke="black" d="M505.9,-552.19C516.22,-535.78 528.05,-516.96 537.42,-502.07"/>
<polygon fill="black" stroke="black" points="540.29,-504.07 542.65,-493.74 534.37,-500.35 540.29,-504.07"/>
</g>
<!-- n_0_1_2_3_5 -->
<g id="node3" class="node">
<title>n_0_1_2_3_5</title>
<polygon fill="none" stroke="black" points="266.5,-342 266.5,-392 354.75,-392 354.75,-342 266.5,-342"/>
<text text-anchor="start" x="273.5" y="-377.45" font-family="Times New Roman,serif" font-weight="bold" font-size="9.00">Insufficient weight</text>
<text text-anchor="start" x="295.62" y="-368.45" font-family="Times New Roman,serif" font-weight="bold" font-size="9.00">Normal</text>
<text text-anchor="start" x="285.12" y="-359.45" font-family="Times New Roman,serif" font-weight="bold" font-size="9.00">Overweight I</text>
<text text-anchor="start" x="283.62" y="-350.45" font-family="Times New Roman,serif" font-weight="bold" font-size="9.00">Overweight II</text>
<polygon fill="none" stroke="black" points="354.75,-342 354.75,-392 407.75,-392 407.75,-342 354.75,-342"/>
<text text-anchor="start" x="361.75" y="-365.07" font-family="Times New Roman,serif" font-weight="bold" font-size="9.00">Obesity II</text>
<polygon fill="none" stroke="black" points="265.5,-341 265.5,-393 408.75,-393 408.75,-341 265.5,-341"/>
</g>
<!-- n_0_1_2_3_5_6&#45;&gt;n_0_1_2_3_5 -->
<g id="edge2" class="edge">
<title>n_0_1_2_3_5_6&#45;&gt;n_0_1_2_3_5</title>
<path fill="none" stroke="black" d="M387.03,-440.12C379.6,-429.38 371.31,-417.4 363.65,-406.33"/>
<polygon fill="black" stroke="black" points="366.55,-404.37 357.98,-398.14 360.79,-408.36 366.55,-404.37"/>
</g>
<!-- n_6 -->
<g id="node12" class="node">
<title>n_6</title>
<polygon fill="none" stroke="black" points="455.12,-354.38 455.12,-379.62 511.12,-379.62 511.12,-354.38 455.12,-354.38"/>
<text text-anchor="start" x="462.12" y="-365.07" font-family="Times New Roman,serif" font-weight="bold" font-size="9.00">Obesity III</text>
<polygon fill="none" stroke="black" points="454.12,-353.38 454.12,-380.62 512.12,-380.62 512.12,-353.38 454.12,-353.38"/>
</g>
<!-- n_0_1_2_3_5_6&#45;&gt;n_6 -->
<g id="edge11" class="edge">
<title>n_0_1_2_3_5_6&#45;&gt;n_6</title>
<path fill="none" stroke="black" d="M433.22,-440.12C443.44,-425.35 455.29,-408.23 464.87,-394.38"/>
<polygon fill="black" stroke="black" points="467.72,-396.41 470.54,-386.2 461.97,-392.43 467.72,-396.41"/>
</g>
<!-- n_0_1_2_3 -->
<g id="node4" class="node">
<title>n_0_1_2_3</title>
<polygon fill="none" stroke="black" points="183,-248 183,-289 271.25,-289 271.25,-248 183,-248"/>
<text text-anchor="start" x="190" y="-274.45" font-family="Times New Roman,serif" font-weight="bold" font-size="9.00">Insufficient weight</text>
<text text-anchor="start" x="212.12" y="-265.45" font-family="Times New Roman,serif" font-weight="bold" font-size="9.00">Normal</text>
<text text-anchor="start" x="201.62" y="-256.45" font-family="Times New Roman,serif" font-weight="bold" font-size="9.00">Overweight I</text>
<polygon fill="none" stroke="black" points="271.25,-248 271.25,-289 339.25,-289 339.25,-248 271.25,-248"/>
<text text-anchor="start" x="278.25" y="-266.57" font-family="Times New Roman,serif" font-weight="bold" font-size="9.00">Overweight II</text>
<polygon fill="none" stroke="black" points="182,-247 182,-290 340.25,-290 340.25,-247 182,-247"/>
</g>
<!-- n_0_1_2_3_5&#45;&gt;n_0_1_2_3 -->
<g id="edge3" class="edge">
<title>n_0_1_2_3_5&#45;&gt;n_0_1_2_3</title>
<path fill="none" stroke="black" d="M314.32,-337.05C305.85,-326.29 296.17,-314 287.42,-302.88"/>
<polygon fill="black" stroke="black" points="290.19,-300.75 281.26,-295.06 284.7,-305.09 290.19,-300.75"/>
</g>
<!-- n_5 -->
<g id="node11" class="node">
<title>n_5</title>
<polygon fill="none" stroke="black" points="386.62,-255.88 386.62,-281.12 439.62,-281.12 439.62,-255.88 386.62,-255.88"/>
<text text-anchor="start" x="393.62" y="-266.57" font-family="Times New Roman,serif" font-weight="bold" font-size="9.00">Obesity II</text>
<polygon fill="none" stroke="black" points="385.62,-254.88 385.62,-282.12 440.62,-282.12 440.62,-254.88 385.62,-254.88"/>
</g>
<!-- n_0_1_2_3_5&#45;&gt;n_5 -->
<g id="edge10" class="edge">
<title>n_0_1_2_3_5&#45;&gt;n_5</title>
<path fill="none" stroke="black" d="M359.93,-337.05C370.41,-323.73 382.74,-308.07 392.89,-295.19"/>
<polygon fill="black" stroke="black" points="395.47,-297.58 398.91,-287.55 389.97,-293.25 395.47,-297.58"/>
</g>
<!-- n_0_1_2 -->
<g id="node5" class="node">
<title>n_0_1_2</title>
<polygon fill="none" stroke="black" points="105.5,-163 105.5,-195 193.75,-195 193.75,-163 105.5,-163"/>
<text text-anchor="start" x="112.5" y="-180.45" font-family="Times New Roman,serif" font-weight="bold" font-size="9.00">Insufficient weight</text>
<text text-anchor="start" x="134.62" y="-171.45" font-family="Times New Roman,serif" font-weight="bold" font-size="9.00">Normal</text>
<polygon fill="none" stroke="black" points="193.75,-163 193.75,-195 258.75,-195 258.75,-163 193.75,-163"/>
<text text-anchor="start" x="200.75" y="-177.07" font-family="Times New Roman,serif" font-weight="bold" font-size="9.00">Overweight I</text>
<polygon fill="none" stroke="black" points="104.5,-162 104.5,-196 259.75,-196 259.75,-162 104.5,-162"/>
</g>
<!-- n_0_1_2_3&#45;&gt;n_0_1_2 -->
<g id="edge4" class="edge">
<title>n_0_1_2_3&#45;&gt;n_0_1_2</title>
<path fill="none" stroke="black" d="M239.12,-243.13C229.3,-232.25 217.66,-219.36 207.48,-208.08"/>
<polygon fill="black" stroke="black" points="210.34,-206.03 201.04,-200.95 205.14,-210.72 210.34,-206.03"/>
</g>
<!-- n_3 -->
<g id="node10" class="node">
<title>n_3</title>
<polygon fill="none" stroke="black" points="306.12,-166.38 306.12,-191.62 374.12,-191.62 374.12,-166.38 306.12,-166.38"/>
<text text-anchor="start" x="313.12" y="-177.07" font-family="Times New Roman,serif" font-weight="bold" font-size="9.00">Overweight II</text>
<polygon fill="none" stroke="black" points="305.12,-165.38 305.12,-192.62 375.12,-192.62 375.12,-165.38 305.12,-165.38"/>
</g>
<!-- n_0_1_2_3&#45;&gt;n_3 -->
<g id="edge9" class="edge">
<title>n_0_1_2_3&#45;&gt;n_3</title>
<path fill="none" stroke="black" d="M283.13,-243.13C293.86,-231.24 306.74,-216.97 317.55,-205.01"/>
<polygon fill="black" stroke="black" points="319.87,-207.66 323.97,-197.89 314.67,-202.97 319.87,-207.66"/>
</g>
<!-- n_0_1 -->
<g id="node6" class="node">
<title>n_0_1</title>
<polygon fill="none" stroke="black" points="43,-84.38 43,-109.62 131.25,-109.62 131.25,-84.38 43,-84.38"/>
<text text-anchor="start" x="50" y="-95.08" font-family="Times New Roman,serif" font-weight="bold" font-size="9.00">Insufficient weight</text>
<polygon fill="none" stroke="black" points="131.25,-84.38 131.25,-109.62 175.25,-109.62 175.25,-84.38 131.25,-84.38"/>
<text text-anchor="start" x="138.25" y="-95.08" font-family="Times New Roman,serif" font-weight="bold" font-size="9.00">Normal</text>
<polygon fill="none" stroke="black" points="42,-83.38 42,-110.62 176.25,-110.62 176.25,-83.38 42,-83.38"/>
</g>
<!-- n_0_1_2&#45;&gt;n_0_1 -->
<g id="edge5" class="edge">
<title>n_0_1_2&#45;&gt;n_0_1</title>
<path fill="none" stroke="black" d="M164.08,-158.22C154.39,-147.61 142.35,-134.41 132,-123.07"/>
<polygon fill="black" stroke="black" points="134.84,-120.99 125.52,-115.96 129.67,-125.71 134.84,-120.99"/>
</g>
<!-- n_2 -->
<g id="node9" class="node">
<title>n_2</title>
<polygon fill="none" stroke="black" points="222.62,-84.38 222.62,-109.62 287.62,-109.62 287.62,-84.38 222.62,-84.38"/>
<text text-anchor="start" x="229.62" y="-95.08" font-family="Times New Roman,serif" font-weight="bold" font-size="9.00">Overweight I</text>
<polygon fill="none" stroke="black" points="221.62,-83.38 221.62,-110.62 288.62,-110.62 288.62,-83.38 221.62,-83.38"/>
</g>
<!-- n_0_1_2&#45;&gt;n_2 -->
<g id="edge8" class="edge">
<title>n_0_1_2&#45;&gt;n_2</title>
<path fill="none" stroke="black" d="M200.17,-158.22C209.86,-147.61 221.9,-134.41 232.25,-123.07"/>
<polygon fill="black" stroke="black" points="234.58,-125.71 238.73,-115.96 229.41,-120.99 234.58,-125.71"/>
</g>
<!-- n_0 -->
<g id="node7" class="node">
<title>n_0</title>
<polygon fill="none" stroke="black" points="9,-5.38 9,-30.62 97.25,-30.62 97.25,-5.38 9,-5.38"/>
<text text-anchor="start" x="16" y="-16.07" font-family="Times New Roman,serif" font-weight="bold" font-size="9.00">Insufficient weight</text>
<polygon fill="none" stroke="black" points="8,-4.38 8,-31.62 98.25,-31.62 98.25,-4.38 8,-4.38"/>
</g>
<!-- n_0_1&#45;&gt;n_0 -->
<g id="edge6" class="edge">
<title>n_0_1&#45;&gt;n_0</title>
<path fill="none" stroke="black" d="M96.97,-79.29C89.69,-69.27 80.26,-56.31 72.02,-44.98"/>
<polygon fill="black" stroke="black" points="75.05,-43.19 66.34,-37.17 69.39,-47.31 75.05,-43.19"/>
</g>
<!-- n_1 -->
<g id="node8" class="node">
<title>n_1</title>
<polygon fill="none" stroke="black" points="144.12,-5.38 144.12,-30.62 188.12,-30.62 188.12,-5.38 144.12,-5.38"/>
<text text-anchor="start" x="151.12" y="-16.07" font-family="Times New Roman,serif" font-weight="bold" font-size="9.00">Normal</text>
<polygon fill="none" stroke="black" points="143.12,-4.38 143.12,-31.62 189.12,-31.62 189.12,-4.38 143.12,-4.38"/>
</g>
<!-- n_0_1&#45;&gt;n_1 -->
<g id="edge7" class="edge">
<title>n_0_1&#45;&gt;n_1</title>
<path fill="none" stroke="black" d="M121.49,-79.29C128.91,-69.27 138.5,-56.31 146.89,-44.98"/>
<polygon fill="black" stroke="black" points="149.55,-47.28 152.68,-37.16 143.92,-43.11 149.55,-47.28"/>
</g>
</g>
</svg>
