<?xml version="1.0" encoding="UTF-8" standalone="no"?>
<!DOCTYPE svg PUBLIC "-//W3C//DTD SVG 1.1//EN"
 "http://www.w3.org/Graphics/SVG/1.1/DTD/svg11.dtd">
<!-- Generated by graphviz version 10.0.1 (20240210.2158)
 -->
<!-- Title: ND Pages: 1 -->
<svg width="575pt" height="432pt"
 viewBox="0.00 0.00 575.00 432.00" xmlns="http://www.w3.org/2000/svg" xmlns:xlink="http://www.w3.org/1999/xlink">
<g id="graph0" class="graph" transform="scale(1 1) rotate(0) translate(4 428)">
<title>ND</title>
<polygon fill="white" stroke="none" points="-4,4 -4,-428 571,-428 571,4 -4,4"/>
<!-- n_0_1_2_3_4_5_6 -->
<g id="node1" class="node">
<title>n_0_1_2_3_4_5_6</title>
<polygon fill="none" stroke="black" points="344.88,-351 344.88,-419 412.88,-419 412.88,-351 344.88,-351"/>
<text text-anchor="start" x="363.88" y="-404.45" font-family="Times New Roman,serif" font-weight="bold" font-size="9.00">Normal</text>
<text text-anchor="start" x="353.38" y="-395.45" font-family="Times New Roman,serif" font-weight="bold" font-size="9.00">Overweight I</text>
<text text-anchor="start" x="351.88" y="-386.45" font-family="Times New Roman,serif" font-weight="bold" font-size="9.00">Overweight II</text>
<text text-anchor="start" x="360.88" y="-377.45" font-family="Times New Roman,serif" font-weight="bold" font-size="9.00">Obesity I</text>
<text text-anchor="start" x="359.38" y="-368.45" font-family="Times New Roman,serif" font-weight="bold" font-size="9.00">Obesity II</text>
<text text-anchor="start" x="357.88" y="-359.45" font-family="Times New Roman,serif" font-weight="bold" font-size="9.00">Obesity III</text>
<polygon fill="none" stroke="black" points="412.88,-351 412.88,-419 501.12,-419 501.12,-351 412.88,-351"/>
<text text-anchor="start" x="419.88" y="-383.07" font-family="Times New Roman,serif" font-weight="bold" font-size="9.00">Insufficient weight</text>
<polygon fill="none" stroke="black" points="343.88,-350 343.88,-420 502.12,-420 502.12,-350 343.88,-350"/>
</g>
<!-- n_1_2_3_4_5_6 -->
<g id="node2" class="node">
<title>n_1_2_3_4_5_6</title>
<polygon fill="none" stroke="black" points="277.5,-248 277.5,-298 342.5,-298 342.5,-248 277.5,-248"/>
<text text-anchor="start" x="295" y="-283.45" font-family="Times New Roman,serif" font-weight="bold" font-size="9.00">Normal</text>
<text text-anchor="start" x="284.5" y="-274.45" font-family="Times New Roman,serif" font-weight="bold" font-size="9.00">Overweight I</text>
<text text-anchor="start" x="292" y="-265.45" font-family="Times New Roman,serif" font-weight="bold" font-size="9.00">Obesity I</text>
<text text-anchor="start" x="290.5" y="-256.45" font-family="Times New Roman,serif" font-weight="bold" font-size="9.00">Obesity II</text>
<polygon fill="none" stroke="black" points="342.5,-248 342.5,-298 410.5,-298 410.5,-248 342.5,-248"/>
<text text-anchor="start" x="349.5" y="-274.45" font-family="Times New Roman,serif" font-weight="bold" font-size="9.00">Overweight II</text>
<text text-anchor="start" x="355.5" y="-265.45" font-family="Times New Roman,serif" font-weight="bold" font-size="9.00">Obesity III</text>
<polygon fill="none" stroke="black" points="276.5,-247 276.5,-299 411.5,-299 411.5,-247 276.5,-247"/>
</g>
<!-- n_0_1_2_3_4_5_6&#45;&gt;n_1_2_3_4_5_6 -->
<g id="edge1" class="edge">
<title>n_0_1_2_3_4_5_6&#45;&gt;n_1_2_3_4_5_6</title>
<path fill="none" stroke="black" d="M395.81,-346.14C387.94,-335.19 379.35,-323.22 371.46,-312.23"/>
<polygon fill="black" stroke="black" points="374.31,-310.2 365.63,-304.12 368.62,-314.28 374.31,-310.2"/>
</g>
<!-- n_0 -->
<g id="node13" class="node">
<title>n_0</title>
<polygon fill="none" stroke="black" points="457.88,-260.38 457.88,-285.62 546.12,-285.62 546.12,-260.38 457.88,-260.38"/>
<text text-anchor="start" x="464.88" y="-271.07" font-family="Times New Roman,serif" font-weight="bold" font-size="9.00">Insufficient weight</text>
<polygon fill="none" stroke="black" points="456.88,-259.38 456.88,-286.62 547.12,-286.62 547.12,-259.38 456.88,-259.38"/>
</g>
<!-- n_0_1_2_3_4_5_6&#45;&gt;n_0 -->
<g id="edge12" class="edge">
<title>n_0_1_2_3_4_5_6&#45;&gt;n_0</title>
<path fill="none" stroke="black" d="M450.19,-346.14C461.03,-331.04 473.26,-314.02 483.11,-300.31"/>
<polygon fill="black" stroke="black" points="485.93,-302.38 488.92,-292.21 480.24,-298.29 485.93,-302.38"/>
</g>
<!-- n_1_2_4_5 -->
<g id="node3" class="node">
<title>n_1_2_4_5</title>
<polygon fill="none" stroke="black" points="201,-163 201,-195 254,-195 254,-163 201,-163"/>
<text text-anchor="start" x="212.5" y="-180.45" font-family="Times New Roman,serif" font-weight="bold" font-size="9.00">Normal</text>
<text text-anchor="start" x="208" y="-171.45" font-family="Times New Roman,serif" font-weight="bold" font-size="9.00">Obesity II</text>
<polygon fill="none" stroke="black" points="254,-163 254,-195 319,-195 319,-163 254,-163"/>
<text text-anchor="start" x="261" y="-180.45" font-family="Times New Roman,serif" font-weight="bold" font-size="9.00">Overweight I</text>
<text text-anchor="start" x="268.5" y="-171.45" font-family="Times New Roman,serif" font-weight="bold" font-size="9.00">Obesity I</text>
<polygon fill="none" stroke="black" points="200,-162 200,-196 320,-196 320,-162 200,-162"/>
</g>
<!-- n_1_2_3_4_5_6&#45;&gt;n_1_2_4_5 -->
<g id="edge2" class="edge">
<title>n_1_2_3_4_5_6&#45;&gt;n_1_2_4_5</title>
<path fill="none" stroke="black" d="M317.65,-243.14C307.48,-232 295.87,-219.29 285.76,-208.21"/>
<polygon fill="black" stroke="black" points="288.36,-205.87 279.04,-200.85 283.19,-210.59 288.36,-205.87"/>
</g>
<!-- n_3_6 -->
<g id="node10" class="node">
<title>n_3_6</title>
<polygon fill="none" stroke="black" points="366,-166.38 366,-191.62 434,-191.62 434,-166.38 366,-166.38"/>
<text text-anchor="start" x="373" y="-177.07" font-family="Times New Roman,serif" font-weight="bold" font-size="9.00">Overweight II</text>
<polygon fill="none" stroke="black" points="434,-166.38 434,-191.62 490,-191.62 490,-166.38 434,-166.38"/>
<text text-anchor="start" x="441" y="-177.07" font-family="Times New Roman,serif" font-weight="bold" font-size="9.00">Obesity III</text>
<polygon fill="none" stroke="black" points="365,-165.38 365,-192.62 491,-192.62 491,-165.38 365,-165.38"/>
</g>
<!-- n_1_2_3_4_5_6&#45;&gt;n_3_6 -->
<g id="edge9" class="edge">
<title>n_1_2_3_4_5_6&#45;&gt;n_3_6</title>
<path fill="none" stroke="black" d="M370.35,-243.14C381.39,-231.05 394.12,-217.11 404.8,-205.41"/>
<polygon fill="black" stroke="black" points="407.33,-207.83 411.49,-198.09 402.16,-203.11 407.33,-207.83"/>
</g>
<!-- n_1_5 -->
<g id="node4" class="node">
<title>n_1_5</title>
<polygon fill="none" stroke="black" points="66.5,-84.38 66.5,-109.62 110.5,-109.62 110.5,-84.38 66.5,-84.38"/>
<text text-anchor="start" x="73.5" y="-95.08" font-family="Times New Roman,serif" font-weight="bold" font-size="9.00">Normal</text>
<polygon fill="none" stroke="black" points="110.5,-84.38 110.5,-109.62 163.5,-109.62 163.5,-84.38 110.5,-84.38"/>
<text text-anchor="start" x="117.5" y="-95.08" font-family="Times New Roman,serif" font-weight="bold" font-size="9.00">Obesity II</text>
<polygon fill="none" stroke="black" points="65.5,-83.38 65.5,-110.62 164.5,-110.62 164.5,-83.38 65.5,-83.38"/>
</g>
<!-- n_1_2_4_5&#45;&gt;n_1_5 -->
<g id="edge3" class="edge">
<title>n_1_2_4_5&#45;&gt;n_1_5</title>
<path fill="none" stroke="black" d="M223.78,-158.02C202.93,-146.51 176.68,-132.03 155.19,-120.17"/>
<polygon fill="black" stroke="black" points="157.15,-117.26 146.7,-115.49 153.76,-123.38 157.15,-117.26"/>
</g>
<!-- n_2_4 -->
<g id="node7" class="node">
<title>n_2_4</title>
<polygon fill="none" stroke="black" points="210.5,-84.38 210.5,-109.62 275.5,-109.62 275.5,-84.38 210.5,-84.38"/>
<text text-anchor="start" x="217.5" y="-95.08" font-family="Times New Roman,serif" font-weight="bold" font-size="9.00">Overweight I</text>
<polygon fill="none" stroke="black" points="275.5,-84.38 275.5,-109.62 325.5,-109.62 325.5,-84.38 275.5,-84.38"/>
<text text-anchor="start" x="282.5" y="-95.08" font-family="Times New Roman,serif" font-weight="bold" font-size="9.00">Obesity I</text>
<polygon fill="none" stroke="black" points="209.5,-83.38 209.5,-110.62 326.5,-110.62 326.5,-83.38 209.5,-83.38"/>
</g>
<!-- n_1_2_4_5&#45;&gt;n_2_4 -->
<g id="edge6" class="edge">
<title>n_1_2_4_5&#45;&gt;n_2_4</title>
<path fill="none" stroke="black" d="M261.98,-158.22C262.95,-148.54 264.13,-136.72 265.19,-126.11"/>
<polygon fill="black" stroke="black" points="268.65,-126.65 266.17,-116.35 261.69,-125.95 268.65,-126.65"/>
</g>
<!-- n_1 -->
<g id="node5" class="node">
<title>n_1</title>
<polygon fill="none" stroke="black" points="9,-5.38 9,-30.62 53,-30.62 53,-5.38 9,-5.38"/>
<text text-anchor="start" x="16" y="-16.07" font-family="Times New Roman,serif" font-weight="bold" font-size="9.00">Normal</text>
<polygon fill="none" stroke="black" points="8,-4.38 8,-31.62 54,-31.62 54,-4.38 8,-4.38"/>
</g>
<!-- n_1_5&#45;&gt;n_1 -->
<g id="edge4" class="edge">
<title>n_1_5&#45;&gt;n_1</title>
<path fill="none" stroke="black" d="M96.77,-79.29C85.4,-68.87 70.57,-55.27 57.87,-43.63"/>
<polygon fill="black" stroke="black" points="60.33,-41.14 50.6,-36.96 55.6,-46.3 60.33,-41.14"/>
</g>
<!-- n_5 -->
<g id="node6" class="node">
<title>n_5</title>
<polygon fill="none" stroke="black" points="100.5,-5.38 100.5,-30.62 153.5,-30.62 153.5,-5.38 100.5,-5.38"/>
<text text-anchor="start" x="107.5" y="-16.07" font-family="Times New Roman,serif" font-weight="bold" font-size="9.00">Obesity II</text>
<polygon fill="none" stroke="black" points="99.5,-4.38 99.5,-31.62 154.5,-31.62 154.5,-4.38 99.5,-4.38"/>
</g>
<!-- n_1_5&#45;&gt;n_5 -->
<g id="edge5" class="edge">
<title>n_1_5&#45;&gt;n_5</title>
<path fill="none" stroke="black" d="M117.6,-79.29C119.07,-69.87 120.94,-57.86 122.63,-47.04"/>
<polygon fill="black" stroke="black" points="126.05,-47.86 124.13,-37.44 119.13,-46.78 126.05,-47.86"/>
</g>
<!-- n_2 -->
<g id="node8" class="node">
<title>n_2</title>
<polygon fill="none" stroke="black" points="223.5,-5.38 223.5,-30.62 288.5,-30.62 288.5,-5.38 223.5,-5.38"/>
<text text-anchor="start" x="230.5" y="-16.07" font-family="Times New Roman,serif" font-weight="bold" font-size="9.00">Overweight I</text>
<polygon fill="none" stroke="black" points="222.5,-4.38 222.5,-31.62 289.5,-31.62 289.5,-4.38 222.5,-4.38"/>
</g>
<!-- n_2_4&#45;&gt;n_2 -->
<g id="edge7" class="edge">
<title>n_2_4&#45;&gt;n_2</title>
<path fill="none" stroke="black" d="M265.4,-79.29C263.93,-69.87 262.06,-57.86 260.37,-47.04"/>
<polygon fill="black" stroke="black" points="263.87,-46.78 258.87,-37.44 256.95,-47.86 263.87,-46.78"/>
</g>
<!-- n_4 -->
<g id="node9" class="node">
<title>n_4</title>
<polygon fill="none" stroke="black" points="336,-5.38 336,-30.62 386,-30.62 386,-5.38 336,-5.38"/>
<text text-anchor="start" x="343" y="-16.07" font-family="Times New Roman,serif" font-weight="bold" font-size="9.00">Obesity I</text>
<polygon fill="none" stroke="black" points="335,-4.38 335,-31.62 387,-31.62 387,-4.38 335,-4.38"/>
</g>
<!-- n_2_4&#45;&gt;n_4 -->
<g id="edge8" class="edge">
<title>n_2_4&#45;&gt;n_4</title>
<path fill="none" stroke="black" d="M288.18,-79.29C301.01,-68.67 317.82,-54.75 332.06,-42.96"/>
<polygon fill="black" stroke="black" points="333.9,-45.98 339.37,-36.91 329.44,-40.59 333.9,-45.98"/>
</g>
<!-- n_3 -->
<g id="node11" class="node">
<title>n_3</title>
<polygon fill="none" stroke="black" points="387,-84.38 387,-109.62 455,-109.62 455,-84.38 387,-84.38"/>
<text text-anchor="start" x="394" y="-95.08" font-family="Times New Roman,serif" font-weight="bold" font-size="9.00">Overweight II</text>
<polygon fill="none" stroke="black" points="386,-83.38 386,-110.62 456,-110.62 456,-83.38 386,-83.38"/>
</g>
<!-- n_3_6&#45;&gt;n_3 -->
<g id="edge10" class="edge">
<title>n_3_6&#45;&gt;n_3</title>
<path fill="none" stroke="black" d="M426.52,-161.03C425.63,-150.96 424.49,-137.92 423.48,-126.32"/>
<polygon fill="black" stroke="black" points="426.97,-126.11 422.61,-116.45 420,-126.72 426.97,-126.11"/>
</g>
<!-- n_6 -->
<g id="node12" class="node">
<title>n_6</title>
<polygon fill="none" stroke="black" points="502,-84.38 502,-109.62 558,-109.62 558,-84.38 502,-84.38"/>
<text text-anchor="start" x="509" y="-95.08" font-family="Times New Roman,serif" font-weight="bold" font-size="9.00">Obesity III</text>
<polygon fill="none" stroke="black" points="501,-83.38 501,-110.62 559,-110.62 559,-83.38 501,-83.38"/>
</g>
<!-- n_3_6&#45;&gt;n_6 -->
<g id="edge11" class="edge">
<title>n_3_6&#45;&gt;n_6</title>
<path fill="none" stroke="black" d="M449.63,-161.03C464.1,-149.69 483.36,-134.58 499.39,-122.01"/>
<polygon fill="black" stroke="black" points="501.5,-124.8 507.21,-115.88 497.18,-119.29 501.5,-124.8"/>
</g>
</g>
</svg>
