<?xml version="1.0" encoding="UTF-8" standalone="no"?>
<!DOCTYPE svg PUBLIC "-//W3C//DTD SVG 1.1//EN"
 "http://www.w3.org/Graphics/SVG/1.1/DTD/svg11.dtd">
<!-- Generated by graphviz version 10.0.1 (20240210.2158)
 -->
<!-- Title: ND Pages: 1 -->
<svg width="554pt" height="535pt"
 viewBox="0.00 0.00 553.50 535.00" xmlns="http://www.w3.org/2000/svg" xmlns:xlink="http://www.w3.org/1999/xlink">
<g id="graph0" class="graph" transform="scale(1 1) rotate(0) translate(4 531)">
<title>ND</title>
<polygon fill="white" stroke="none" points="-4,4 -4,-531 549.5,-531 549.5,4 -4,4"/>
<!-- n_0_1_2_3_4_5_6 -->
<g id="node1" class="node">
<title>n_0_1_2_3_4_5_6</title>
<polygon fill="none" stroke="black" points="363.38,-454 363.38,-522 451.62,-522 451.62,-454 363.38,-454"/>
<text text-anchor="start" x="370.38" y="-507.45" font-family="Times New Roman,serif" font-weight="bold" font-size="9.00">Insufficient weight</text>
<text text-anchor="start" x="392.5" y="-498.45" font-family="Times New Roman,serif" font-weight="bold" font-size="9.00">Normal</text>
<text text-anchor="start" x="382" y="-489.45" font-family="Times New Roman,serif" font-weight="bold" font-size="9.00">Overweight I</text>
<text text-anchor="start" x="380.5" y="-480.45" font-family="Times New Roman,serif" font-weight="bold" font-size="9.00">Overweight II</text>
<text text-anchor="start" x="389.5" y="-471.45" font-family="Times New Roman,serif" font-weight="bold" font-size="9.00">Obesity I</text>
<text text-anchor="start" x="386.5" y="-462.45" font-family="Times New Roman,serif" font-weight="bold" font-size="9.00">Obesity III</text>
<polygon fill="none" stroke="black" points="451.62,-454 451.62,-522 504.62,-522 504.62,-454 451.62,-454"/>
<text text-anchor="start" x="458.62" y="-486.07" font-family="Times New Roman,serif" font-weight="bold" font-size="9.00">Obesity II</text>
<polygon fill="none" stroke="black" points="362.38,-453 362.38,-523 505.62,-523 505.62,-453 362.38,-453"/>
</g>
<!-- n_0_1_2_3_4_6 -->
<g id="node2" class="node">
<title>n_0_1_2_3_4_6</title>
<polygon fill="none" stroke="black" points="279.88,-342 279.88,-401 368.12,-401 368.12,-342 279.88,-342"/>
<text text-anchor="start" x="286.88" y="-386.45" font-family="Times New Roman,serif" font-weight="bold" font-size="9.00">Insufficient weight</text>
<text text-anchor="start" x="309" y="-377.45" font-family="Times New Roman,serif" font-weight="bold" font-size="9.00">Normal</text>
<text text-anchor="start" x="298.5" y="-368.45" font-family="Times New Roman,serif" font-weight="bold" font-size="9.00">Overweight I</text>
<text text-anchor="start" x="306" y="-359.45" font-family="Times New Roman,serif" font-weight="bold" font-size="9.00">Obesity I</text>
<text text-anchor="start" x="303" y="-350.45" font-family="Times New Roman,serif" font-weight="bold" font-size="9.00">Obesity III</text>
<polygon fill="none" stroke="black" points="368.12,-342 368.12,-401 436.12,-401 436.12,-342 368.12,-342"/>
<text text-anchor="start" x="375.12" y="-369.57" font-family="Times New Roman,serif" font-weight="bold" font-size="9.00">Overweight II</text>
<polygon fill="none" stroke="black" points="278.88,-341 278.88,-402 437.12,-402 437.12,-341 278.88,-341"/>
</g>
<!-- n_0_1_2_3_4_5_6&#45;&gt;n_0_1_2_3_4_6 -->
<g id="edge1" class="edge">
<title>n_0_1_2_3_4_5_6&#45;&gt;n_0_1_2_3_4_6</title>
<path fill="none" stroke="black" d="M408.9,-449.19C401.68,-438.31 393.75,-426.36 386.35,-415.21"/>
<polygon fill="black" stroke="black" points="389.29,-413.31 380.84,-406.91 383.46,-417.18 389.29,-413.31"/>
</g>
<!-- n_5 -->
<g id="node13" class="node">
<title>n_5</title>
<polygon fill="none" stroke="black" points="483.5,-358.88 483.5,-384.12 536.5,-384.12 536.5,-358.88 483.5,-358.88"/>
<text text-anchor="start" x="490.5" y="-369.57" font-family="Times New Roman,serif" font-weight="bold" font-size="9.00">Obesity II</text>
<polygon fill="none" stroke="black" points="482.5,-357.88 482.5,-385.12 537.5,-385.12 537.5,-357.88 482.5,-357.88"/>
</g>
<!-- n_0_1_2_3_4_5_6&#45;&gt;n_5 -->
<g id="edge12" class="edge">
<title>n_0_1_2_3_4_5_6&#45;&gt;n_5</title>
<path fill="none" stroke="black" d="M459.1,-449.19C470.09,-432.63 482.72,-413.6 492.65,-398.64"/>
<polygon fill="black" stroke="black" points="495.29,-400.99 497.9,-390.72 489.46,-397.12 495.29,-400.99"/>
</g>
<!-- n_0_1_2_4_6 -->
<g id="node3" class="node">
<title>n_0_1_2_4_6</title>
<polygon fill="none" stroke="black" points="202.38,-248 202.38,-289 267.38,-289 267.38,-248 202.38,-248"/>
<text text-anchor="start" x="219.88" y="-274.45" font-family="Times New Roman,serif" font-weight="bold" font-size="9.00">Normal</text>
<text text-anchor="start" x="209.38" y="-265.45" font-family="Times New Roman,serif" font-weight="bold" font-size="9.00">Overweight I</text>
<text text-anchor="start" x="216.88" y="-256.45" font-family="Times New Roman,serif" font-weight="bold" font-size="9.00">Obesity I</text>
<polygon fill="none" stroke="black" points="267.38,-248 267.38,-289 355.62,-289 355.62,-248 267.38,-248"/>
<text text-anchor="start" x="274.38" y="-269.95" font-family="Times New Roman,serif" font-weight="bold" font-size="9.00">Insufficient weight</text>
<text text-anchor="start" x="290.5" y="-260.95" font-family="Times New Roman,serif" font-weight="bold" font-size="9.00">Obesity III</text>
<polygon fill="none" stroke="black" points="201.38,-247 201.38,-290 356.62,-290 356.62,-247 201.38,-247"/>
</g>
<!-- n_0_1_2_3_4_6&#45;&gt;n_0_1_2_4_6 -->
<g id="edge2" class="edge">
<title>n_0_1_2_3_4_6&#45;&gt;n_0_1_2_4_6</title>
<path fill="none" stroke="black" d="M331.91,-337.15C323.28,-326.11 313.67,-313.82 305.03,-302.78"/>
<polygon fill="black" stroke="black" points="307.9,-300.77 298.99,-295.05 302.39,-305.08 307.9,-300.77"/>
</g>
<!-- n_3 -->
<g id="node12" class="node">
<title>n_3</title>
<polygon fill="none" stroke="black" points="403,-255.88 403,-281.12 471,-281.12 471,-255.88 403,-255.88"/>
<text text-anchor="start" x="410" y="-266.57" font-family="Times New Roman,serif" font-weight="bold" font-size="9.00">Overweight II</text>
<polygon fill="none" stroke="black" points="402,-254.88 402,-282.12 472,-282.12 472,-254.88 402,-254.88"/>
</g>
<!-- n_0_1_2_3_4_6&#45;&gt;n_3 -->
<g id="edge11" class="edge">
<title>n_0_1_2_3_4_6&#45;&gt;n_3</title>
<path fill="none" stroke="black" d="M384.09,-337.15C394.79,-323.46 406.99,-307.87 416.97,-295.11"/>
<polygon fill="black" stroke="black" points="419.46,-297.61 422.86,-287.57 413.95,-293.29 419.46,-297.61"/>
</g>
<!-- n_1_2_4 -->
<g id="node4" class="node">
<title>n_1_2_4</title>
<polygon fill="none" stroke="black" points="133.5,-163 133.5,-195 183.5,-195 183.5,-163 133.5,-163"/>
<text text-anchor="start" x="143.5" y="-180.45" font-family="Times New Roman,serif" font-weight="bold" font-size="9.00">Normal</text>
<text text-anchor="start" x="140.5" y="-171.45" font-family="Times New Roman,serif" font-weight="bold" font-size="9.00">Obesity I</text>
<polygon fill="none" stroke="black" points="183.5,-163 183.5,-195 248.5,-195 248.5,-163 183.5,-163"/>
<text text-anchor="start" x="190.5" y="-177.07" font-family="Times New Roman,serif" font-weight="bold" font-size="9.00">Overweight I</text>
<polygon fill="none" stroke="black" points="132.5,-162 132.5,-196 249.5,-196 249.5,-162 132.5,-162"/>
</g>
<!-- n_0_1_2_4_6&#45;&gt;n_1_2_4 -->
<g id="edge3" class="edge">
<title>n_0_1_2_4_6&#45;&gt;n_1_2_4</title>
<path fill="none" stroke="black" d="M254.49,-243.13C243.44,-232.14 230.33,-219.11 218.91,-207.75"/>
<polygon fill="black" stroke="black" points="221.57,-205.46 212.01,-200.89 216.64,-210.43 221.57,-205.46"/>
</g>
<!-- n_0_6 -->
<g id="node9" class="node">
<title>n_0_6</title>
<polygon fill="none" stroke="black" points="295.88,-166.38 295.88,-191.62 384.12,-191.62 384.12,-166.38 295.88,-166.38"/>
<text text-anchor="start" x="302.88" y="-177.07" font-family="Times New Roman,serif" font-weight="bold" font-size="9.00">Insufficient weight</text>
<polygon fill="none" stroke="black" points="384.12,-166.38 384.12,-191.62 440.12,-191.62 440.12,-166.38 384.12,-166.38"/>
<text text-anchor="start" x="391.12" y="-177.07" font-family="Times New Roman,serif" font-weight="bold" font-size="9.00">Obesity III</text>
<polygon fill="none" stroke="black" points="294.88,-165.38 294.88,-192.62 441.12,-192.62 441.12,-165.38 294.88,-165.38"/>
</g>
<!-- n_0_1_2_4_6&#45;&gt;n_0_6 -->
<g id="edge8" class="edge">
<title>n_0_1_2_4_6&#45;&gt;n_0_6</title>
<path fill="none" stroke="black" d="M303.79,-243.13C315.99,-231.13 330.67,-216.7 342.92,-204.66"/>
<polygon fill="black" stroke="black" points="345.19,-207.34 349.86,-197.83 340.28,-202.35 345.19,-207.34"/>
</g>
<!-- n_1_4 -->
<g id="node5" class="node">
<title>n_1_4</title>
<polygon fill="none" stroke="black" points="31,-84.38 31,-109.62 75,-109.62 75,-84.38 31,-84.38"/>
<text text-anchor="start" x="38" y="-95.08" font-family="Times New Roman,serif" font-weight="bold" font-size="9.00">Normal</text>
<polygon fill="none" stroke="black" points="75,-84.38 75,-109.62 125,-109.62 125,-84.38 75,-84.38"/>
<text text-anchor="start" x="82" y="-95.08" font-family="Times New Roman,serif" font-weight="bold" font-size="9.00">Obesity I</text>
<polygon fill="none" stroke="black" points="30,-83.38 30,-110.62 126,-110.62 126,-83.38 30,-83.38"/>
</g>
<!-- n_1_2_4&#45;&gt;n_1_4 -->
<g id="edge4" class="edge">
<title>n_1_2_4&#45;&gt;n_1_4</title>
<path fill="none" stroke="black" d="M162.78,-158.02C147.04,-146.88 127.36,-132.94 110.92,-121.31"/>
<polygon fill="black" stroke="black" points="113.09,-118.55 102.91,-115.63 109.05,-124.27 113.09,-118.55"/>
</g>
<!-- n_2 -->
<g id="node8" class="node">
<title>n_2</title>
<polygon fill="none" stroke="black" points="172.5,-84.38 172.5,-109.62 237.5,-109.62 237.5,-84.38 172.5,-84.38"/>
<text text-anchor="start" x="179.5" y="-95.08" font-family="Times New Roman,serif" font-weight="bold" font-size="9.00">Overweight I</text>
<polygon fill="none" stroke="black" points="171.5,-83.38 171.5,-110.62 238.5,-110.62 238.5,-83.38 171.5,-83.38"/>
</g>
<!-- n_1_2_4&#45;&gt;n_2 -->
<g id="edge7" class="edge">
<title>n_1_2_4&#45;&gt;n_2</title>
<path fill="none" stroke="black" d="M194.46,-158.22C196.16,-148.54 198.22,-136.72 200.08,-126.11"/>
<polygon fill="black" stroke="black" points="203.52,-126.79 201.79,-116.33 196.62,-125.58 203.52,-126.79"/>
</g>
<!-- n_1 -->
<g id="node6" class="node">
<title>n_1</title>
<polygon fill="none" stroke="black" points="9,-5.38 9,-30.62 53,-30.62 53,-5.38 9,-5.38"/>
<text text-anchor="start" x="16" y="-16.07" font-family="Times New Roman,serif" font-weight="bold" font-size="9.00">Normal</text>
<polygon fill="none" stroke="black" points="8,-4.38 8,-31.62 54,-31.62 54,-4.38 8,-4.38"/>
</g>
<!-- n_1_4&#45;&gt;n_1 -->
<g id="edge5" class="edge">
<title>n_1_4&#45;&gt;n_1</title>
<path fill="none" stroke="black" d="M67.8,-79.29C61.81,-69.47 54.09,-56.83 47.27,-45.66"/>
<polygon fill="black" stroke="black" points="50.33,-43.95 42.13,-37.23 44.35,-47.59 50.33,-43.95"/>
</g>
<!-- n_4 -->
<g id="node7" class="node">
<title>n_4</title>
<polygon fill="none" stroke="black" points="100,-5.38 100,-30.62 150,-30.62 150,-5.38 100,-5.38"/>
<text text-anchor="start" x="107" y="-16.07" font-family="Times New Roman,serif" font-weight="bold" font-size="9.00">Obesity I</text>
<polygon fill="none" stroke="black" points="99,-4.38 99,-31.62 151,-31.62 151,-4.38 99,-4.38"/>
</g>
<!-- n_1_4&#45;&gt;n_4 -->
<g id="edge6" class="edge">
<title>n_1_4&#45;&gt;n_4</title>
<path fill="none" stroke="black" d="M88.2,-79.29C94.19,-69.47 101.91,-56.83 108.73,-45.66"/>
<polygon fill="black" stroke="black" points="111.65,-47.59 113.87,-37.23 105.67,-43.95 111.65,-47.59"/>
</g>
<!-- n_0 -->
<g id="node10" class="node">
<title>n_0</title>
<polygon fill="none" stroke="black" points="310.88,-84.38 310.88,-109.62 399.12,-109.62 399.12,-84.38 310.88,-84.38"/>
<text text-anchor="start" x="317.88" y="-95.08" font-family="Times New Roman,serif" font-weight="bold" font-size="9.00">Insufficient weight</text>
<polygon fill="none" stroke="black" points="309.88,-83.38 309.88,-110.62 400.12,-110.62 400.12,-83.38 309.88,-83.38"/>
</g>
<!-- n_0_6&#45;&gt;n_0 -->
<g id="edge9" class="edge">
<title>n_0_6&#45;&gt;n_0</title>
<path fill="none" stroke="black" d="M365.24,-161.03C363.59,-150.85 361.44,-137.65 359.54,-125.96"/>
<polygon fill="black" stroke="black" points="363.05,-125.74 358,-116.44 356.15,-126.87 363.05,-125.74"/>
</g>
<!-- n_6 -->
<g id="node11" class="node">
<title>n_6</title>
<polygon fill="none" stroke="black" points="446,-84.38 446,-109.62 502,-109.62 502,-84.38 446,-84.38"/>
<text text-anchor="start" x="453" y="-95.08" font-family="Times New Roman,serif" font-weight="bold" font-size="9.00">Obesity III</text>
<polygon fill="none" stroke="black" points="445,-83.38 445,-110.62 503,-110.62 503,-83.38 445,-83.38"/>
</g>
<!-- n_0_6&#45;&gt;n_6 -->
<g id="edge10" class="edge">
<title>n_0_6&#45;&gt;n_6</title>
<path fill="none" stroke="black" d="M390.48,-161.03C405.66,-149.58 425.9,-134.3 442.66,-121.66"/>
<polygon fill="black" stroke="black" points="444.47,-124.67 450.34,-115.85 440.25,-119.08 444.47,-124.67"/>
</g>
</g>
</svg>
