<?xml version="1.0" encoding="UTF-8" standalone="no"?>
<!DOCTYPE svg PUBLIC "-//W3C//DTD SVG 1.1//EN"
 "http://www.w3.org/Graphics/SVG/1.1/DTD/svg11.dtd">
<!-- Generated by graphviz version 10.0.1 (20240210.2158)
 -->
<!-- Title: ND Pages: 1 -->
<svg width="688pt" height="414pt"
 viewBox="0.00 0.00 688.00 414.00" xmlns="http://www.w3.org/2000/svg" xmlns:xlink="http://www.w3.org/1999/xlink">
<g id="graph0" class="graph" transform="scale(1 1) rotate(0) translate(4 410)">
<title>ND</title>
<polygon fill="white" stroke="none" points="-4,4 -4,-410 684,-410 684,4 -4,4"/>
<!-- n_0_1_2_3_4_5_6 -->
<g id="node1" class="node">
<title>n_0_1_2_3_4_5_6</title>
<polygon fill="none" stroke="black" points="385.88,-342 385.88,-401 474.12,-401 474.12,-342 385.88,-342"/>
<text text-anchor="start" x="392.88" y="-386.45" font-family="Times New Roman,serif" font-weight="bold" font-size="9.00">Insufficient weight</text>
<text text-anchor="start" x="415" y="-377.45" font-family="Times New Roman,serif" font-weight="bold" font-size="9.00">Normal</text>
<text text-anchor="start" x="404.5" y="-368.45" font-family="Times New Roman,serif" font-weight="bold" font-size="9.00">Overweight I</text>
<text text-anchor="start" x="403" y="-359.45" font-family="Times New Roman,serif" font-weight="bold" font-size="9.00">Overweight II</text>
<text text-anchor="start" x="412" y="-350.45" font-family="Times New Roman,serif" font-weight="bold" font-size="9.00">Obesity I</text>
<polygon fill="none" stroke="black" points="474.12,-342 474.12,-401 530.12,-401 530.12,-342 474.12,-342"/>
<text text-anchor="start" x="482.62" y="-372.95" font-family="Times New Roman,serif" font-weight="bold" font-size="9.00">Obesity II</text>
<text text-anchor="start" x="481.12" y="-363.95" font-family="Times New Roman,serif" font-weight="bold" font-size="9.00">Obesity III</text>
<polygon fill="none" stroke="black" points="384.88,-341 384.88,-402 531.12,-402 531.12,-341 384.88,-341"/>
</g>
<!-- n_0_1_2_3_4 -->
<g id="node2" class="node">
<title>n_0_1_2_3_4</title>
<polygon fill="none" stroke="black" points="289.88,-248 289.88,-289 357.88,-289 357.88,-248 289.88,-248"/>
<text text-anchor="start" x="308.88" y="-274.45" font-family="Times New Roman,serif" font-weight="bold" font-size="9.00">Normal</text>
<text text-anchor="start" x="296.88" y="-265.45" font-family="Times New Roman,serif" font-weight="bold" font-size="9.00">Overweight II</text>
<text text-anchor="start" x="305.88" y="-256.45" font-family="Times New Roman,serif" font-weight="bold" font-size="9.00">Obesity I</text>
<polygon fill="none" stroke="black" points="357.88,-248 357.88,-289 446.12,-289 446.12,-248 357.88,-248"/>
<text text-anchor="start" x="364.88" y="-269.95" font-family="Times New Roman,serif" font-weight="bold" font-size="9.00">Insufficient weight</text>
<text text-anchor="start" x="376.5" y="-260.95" font-family="Times New Roman,serif" font-weight="bold" font-size="9.00">Overweight I</text>
<polygon fill="none" stroke="black" points="288.88,-247 288.88,-290 447.12,-290 447.12,-247 288.88,-247"/>
</g>
<!-- n_0_1_2_3_4_5_6&#45;&gt;n_0_1_2_3_4 -->
<g id="edge1" class="edge">
<title>n_0_1_2_3_4_5_6&#45;&gt;n_0_1_2_3_4</title>
<path fill="none" stroke="black" d="M428.28,-337.15C418.34,-326 407.28,-313.58 397.36,-302.45"/>
<polygon fill="black" stroke="black" points="399.98,-300.13 390.71,-294.99 394.75,-304.78 399.98,-300.13"/>
</g>
<!-- n_5_6 -->
<g id="node11" class="node">
<title>n_5_6</title>
<polygon fill="none" stroke="black" points="493.5,-255.88 493.5,-281.12 546.5,-281.12 546.5,-255.88 493.5,-255.88"/>
<text text-anchor="start" x="500.5" y="-266.57" font-family="Times New Roman,serif" font-weight="bold" font-size="9.00">Obesity II</text>
<polygon fill="none" stroke="black" points="546.5,-255.88 546.5,-281.12 602.5,-281.12 602.5,-255.88 546.5,-255.88"/>
<text text-anchor="start" x="553.5" y="-266.57" font-family="Times New Roman,serif" font-weight="bold" font-size="9.00">Obesity III</text>
<polygon fill="none" stroke="black" points="492.5,-254.88 492.5,-282.12 603.5,-282.12 603.5,-254.88 492.5,-254.88"/>
</g>
<!-- n_0_1_2_3_4_5_6&#45;&gt;n_5_6 -->
<g id="edge10" class="edge">
<title>n_0_1_2_3_4_5_6&#45;&gt;n_5_6</title>
<path fill="none" stroke="black" d="M487.72,-337.15C500.03,-323.33 514.08,-307.57 525.51,-294.74"/>
<polygon fill="black" stroke="black" points="527.91,-297.3 531.95,-287.51 522.69,-292.65 527.91,-297.3"/>
</g>
<!-- n_1_3_4 -->
<g id="node3" class="node">
<title>n_1_3_4</title>
<polygon fill="none" stroke="black" points="134,-163 134,-195 202,-195 202,-163 134,-163"/>
<text text-anchor="start" x="153" y="-180.45" font-family="Times New Roman,serif" font-weight="bold" font-size="9.00">Normal</text>
<text text-anchor="start" x="141" y="-171.45" font-family="Times New Roman,serif" font-weight="bold" font-size="9.00">Overweight II</text>
<polygon fill="none" stroke="black" points="202,-163 202,-195 252,-195 252,-163 202,-163"/>
<text text-anchor="start" x="209" y="-177.07" font-family="Times New Roman,serif" font-weight="bold" font-size="9.00">Obesity I</text>
<polygon fill="none" stroke="black" points="133,-162 133,-196 253,-196 253,-162 133,-162"/>
</g>
<!-- n_0_1_2_3_4&#45;&gt;n_1_3_4 -->
<g id="edge2" class="edge">
<title>n_0_1_2_3_4&#45;&gt;n_1_3_4</title>
<path fill="none" stroke="black" d="M319.25,-243.13C295.55,-231.28 267.1,-217.05 243.21,-205.11"/>
<polygon fill="black" stroke="black" points="244.8,-201.99 234.29,-200.65 241.67,-208.25 244.8,-201.99"/>
</g>
<!-- n_0_2 -->
<g id="node8" class="node">
<title>n_0_2</title>
<polygon fill="none" stroke="black" points="299.38,-166.38 299.38,-191.62 387.62,-191.62 387.62,-166.38 299.38,-166.38"/>
<text text-anchor="start" x="306.38" y="-177.07" font-family="Times New Roman,serif" font-weight="bold" font-size="9.00">Insufficient weight</text>
<polygon fill="none" stroke="black" points="387.62,-166.38 387.62,-191.62 452.62,-191.62 452.62,-166.38 387.62,-166.38"/>
<text text-anchor="start" x="394.62" y="-177.07" font-family="Times New Roman,serif" font-weight="bold" font-size="9.00">Overweight I</text>
<polygon fill="none" stroke="black" points="298.38,-165.38 298.38,-192.62 453.62,-192.62 453.62,-165.38 298.38,-165.38"/>
</g>
<!-- n_0_1_2_3_4&#45;&gt;n_0_2 -->
<g id="edge7" class="edge">
<title>n_0_1_2_3_4&#45;&gt;n_0_2</title>
<path fill="none" stroke="black" d="M370.23,-243.13C371.22,-232.28 372.39,-219.45 373.42,-208.19"/>
<polygon fill="black" stroke="black" points="376.9,-208.56 374.33,-198.28 369.93,-207.92 376.9,-208.56"/>
</g>
<!-- n_1_3 -->
<g id="node4" class="node">
<title>n_1_3</title>
<polygon fill="none" stroke="black" points="26,-84.38 26,-109.62 70,-109.62 70,-84.38 26,-84.38"/>
<text text-anchor="start" x="33" y="-95.08" font-family="Times New Roman,serif" font-weight="bold" font-size="9.00">Normal</text>
<polygon fill="none" stroke="black" points="70,-84.38 70,-109.62 138,-109.62 138,-84.38 70,-84.38"/>
<text text-anchor="start" x="77" y="-95.08" font-family="Times New Roman,serif" font-weight="bold" font-size="9.00">Overweight II</text>
<polygon fill="none" stroke="black" points="25,-83.38 25,-110.62 139,-110.62 139,-83.38 25,-83.38"/>
</g>
<!-- n_1_3_4&#45;&gt;n_1_3 -->
<g id="edge3" class="edge">
<title>n_1_3_4&#45;&gt;n_1_3</title>
<path fill="none" stroke="black" d="M165.28,-158.02C149.82,-146.88 130.48,-132.94 114.34,-121.31"/>
<polygon fill="black" stroke="black" points="116.64,-118.65 106.48,-115.64 112.55,-124.33 116.64,-118.65"/>
</g>
<!-- n_4 -->
<g id="node7" class="node">
<title>n_4</title>
<polygon fill="none" stroke="black" points="185,-84.38 185,-109.62 235,-109.62 235,-84.38 185,-84.38"/>
<text text-anchor="start" x="192" y="-95.08" font-family="Times New Roman,serif" font-weight="bold" font-size="9.00">Obesity I</text>
<polygon fill="none" stroke="black" points="184,-83.38 184,-110.62 236,-110.62 236,-83.38 184,-83.38"/>
</g>
<!-- n_1_3_4&#45;&gt;n_4 -->
<g id="edge6" class="edge">
<title>n_1_3_4&#45;&gt;n_4</title>
<path fill="none" stroke="black" d="M197.2,-158.22C199.28,-148.44 201.83,-136.46 204.1,-125.77"/>
<polygon fill="black" stroke="black" points="207.45,-126.83 206.11,-116.32 200.6,-125.38 207.45,-126.83"/>
</g>
<!-- n_1 -->
<g id="node5" class="node">
<title>n_1</title>
<polygon fill="none" stroke="black" points="9,-5.38 9,-30.62 53,-30.62 53,-5.38 9,-5.38"/>
<text text-anchor="start" x="16" y="-16.07" font-family="Times New Roman,serif" font-weight="bold" font-size="9.00">Normal</text>
<polygon fill="none" stroke="black" points="8,-4.38 8,-31.62 54,-31.62 54,-4.38 8,-4.38"/>
</g>
<!-- n_1_3&#45;&gt;n_1 -->
<g id="edge4" class="edge">
<title>n_1_3&#45;&gt;n_1</title>
<path fill="none" stroke="black" d="M70.93,-79.29C64.36,-69.37 55.89,-56.57 48.43,-45.32"/>
<polygon fill="black" stroke="black" points="51.5,-43.61 43.06,-37.2 45.66,-47.47 51.5,-43.61"/>
</g>
<!-- n_3 -->
<g id="node6" class="node">
<title>n_3</title>
<polygon fill="none" stroke="black" points="100,-5.38 100,-30.62 168,-30.62 168,-5.38 100,-5.38"/>
<text text-anchor="start" x="107" y="-16.07" font-family="Times New Roman,serif" font-weight="bold" font-size="9.00">Overweight II</text>
<polygon fill="none" stroke="black" points="99,-4.38 99,-31.62 169,-31.62 169,-4.38 99,-4.38"/>
</g>
<!-- n_1_3&#45;&gt;n_3 -->
<g id="edge5" class="edge">
<title>n_1_3&#45;&gt;n_3</title>
<path fill="none" stroke="black" d="M93.28,-79.29C99.98,-69.37 108.63,-56.57 116.23,-45.32"/>
<polygon fill="black" stroke="black" points="119.02,-47.44 121.71,-37.2 113.22,-43.52 119.02,-47.44"/>
</g>
<!-- n_0 -->
<g id="node9" class="node">
<title>n_0</title>
<polygon fill="none" stroke="black" points="314.88,-84.38 314.88,-109.62 403.12,-109.62 403.12,-84.38 314.88,-84.38"/>
<text text-anchor="start" x="321.88" y="-95.08" font-family="Times New Roman,serif" font-weight="bold" font-size="9.00">Insufficient weight</text>
<polygon fill="none" stroke="black" points="313.88,-83.38 313.88,-110.62 404.12,-110.62 404.12,-83.38 313.88,-83.38"/>
</g>
<!-- n_0_2&#45;&gt;n_0 -->
<g id="edge8" class="edge">
<title>n_0_2&#45;&gt;n_0</title>
<path fill="none" stroke="black" d="M372.39,-161.03C370.23,-150.85 367.43,-137.65 364.94,-125.96"/>
<polygon fill="black" stroke="black" points="368.42,-125.48 362.91,-116.42 361.57,-126.93 368.42,-125.48"/>
</g>
<!-- n_2 -->
<g id="node10" class="node">
<title>n_2</title>
<polygon fill="none" stroke="black" points="450.5,-84.38 450.5,-109.62 515.5,-109.62 515.5,-84.38 450.5,-84.38"/>
<text text-anchor="start" x="457.5" y="-95.08" font-family="Times New Roman,serif" font-weight="bold" font-size="9.00">Overweight I</text>
<polygon fill="none" stroke="black" points="449.5,-83.38 449.5,-110.62 516.5,-110.62 516.5,-83.38 449.5,-83.38"/>
</g>
<!-- n_0_2&#45;&gt;n_2 -->
<g id="edge9" class="edge">
<title>n_0_2&#45;&gt;n_2</title>
<path fill="none" stroke="black" d="M398.69,-161.03C414.01,-149.58 434.45,-134.3 451.36,-121.66"/>
<polygon fill="black" stroke="black" points="453.22,-124.64 459.13,-115.85 449.02,-119.03 453.22,-124.64"/>
</g>
<!-- n_5 -->
<g id="node12" class="node">
<title>n_5</title>
<polygon fill="none" stroke="black" points="514.5,-166.38 514.5,-191.62 567.5,-191.62 567.5,-166.38 514.5,-166.38"/>
<text text-anchor="start" x="521.5" y="-177.07" font-family="Times New Roman,serif" font-weight="bold" font-size="9.00">Obesity II</text>
<polygon fill="none" stroke="black" points="513.5,-165.38 513.5,-192.62 568.5,-192.62 568.5,-165.38 513.5,-165.38"/>
</g>
<!-- n_5_6&#45;&gt;n_5 -->
<g id="edge11" class="edge">
<title>n_5_6&#45;&gt;n_5</title>
<path fill="none" stroke="black" d="M546.65,-250.63C545.68,-238.52 544.35,-221.94 543.23,-207.88"/>
<polygon fill="black" stroke="black" points="546.75,-208.02 542.47,-198.33 539.77,-208.58 546.75,-208.02"/>
</g>
<!-- n_6 -->
<g id="node13" class="node">
<title>n_6</title>
<polygon fill="none" stroke="black" points="615,-166.38 615,-191.62 671,-191.62 671,-166.38 615,-166.38"/>
<text text-anchor="start" x="622" y="-177.07" font-family="Times New Roman,serif" font-weight="bold" font-size="9.00">Obesity III</text>
<polygon fill="none" stroke="black" points="614,-165.38 614,-192.62 672,-192.62 672,-165.38 614,-165.38"/>
</g>
<!-- n_5_6&#45;&gt;n_6 -->
<g id="edge12" class="edge">
<title>n_5_6&#45;&gt;n_6</title>
<path fill="none" stroke="black" d="M566.32,-250.63C580.51,-237.56 600.38,-219.25 616.34,-204.56"/>
<polygon fill="black" stroke="black" points="618.64,-207.19 623.63,-197.84 613.9,-202.04 618.64,-207.19"/>
</g>
</g>
</svg>
