<?xml version="1.0" encoding="UTF-8" standalone="no"?>
<!DOCTYPE svg PUBLIC "-//W3C//DTD SVG 1.1//EN"
 "http://www.w3.org/Graphics/SVG/1.1/DTD/svg11.dtd">
<!-- Generated by graphviz version 10.0.1 (20240210.2158)
 -->
<!-- Title: ND Pages: 1 -->
<svg width="555pt" height="535pt"
 viewBox="0.00 0.00 554.50 535.00" xmlns="http://www.w3.org/2000/svg" xmlns:xlink="http://www.w3.org/1999/xlink">
<g id="graph0" class="graph" transform="scale(1 1) rotate(0) translate(4 531)">
<title>ND</title>
<polygon fill="white" stroke="none" points="-4,4 -4,-531 550.5,-531 550.5,4 -4,4"/>
<!-- n_0_1_2_3_4_5_6 -->
<g id="node1" class="node">
<title>n_0_1_2_3_4_5_6</title>
<polygon fill="none" stroke="black" points="350.38,-454 350.38,-522 438.62,-522 438.62,-454 350.38,-454"/>
<text text-anchor="start" x="357.38" y="-507.45" font-family="Times New Roman,serif" font-weight="bold" font-size="9.00">Insufficient weight</text>
<text text-anchor="start" x="379.5" y="-498.45" font-family="Times New Roman,serif" font-weight="bold" font-size="9.00">Normal</text>
<text text-anchor="start" x="369" y="-489.45" font-family="Times New Roman,serif" font-weight="bold" font-size="9.00">Overweight I</text>
<text text-anchor="start" x="376.5" y="-480.45" font-family="Times New Roman,serif" font-weight="bold" font-size="9.00">Obesity I</text>
<text text-anchor="start" x="375" y="-471.45" font-family="Times New Roman,serif" font-weight="bold" font-size="9.00">Obesity II</text>
<text text-anchor="start" x="373.5" y="-462.45" font-family="Times New Roman,serif" font-weight="bold" font-size="9.00">Obesity III</text>
<polygon fill="none" stroke="black" points="438.62,-454 438.62,-522 506.62,-522 506.62,-454 438.62,-454"/>
<text text-anchor="start" x="445.62" y="-486.07" font-family="Times New Roman,serif" font-weight="bold" font-size="9.00">Overweight II</text>
<polygon fill="none" stroke="black" points="349.38,-453 349.38,-523 507.62,-523 507.62,-453 349.38,-453"/>
</g>
<!-- n_0_1_2_4_5_6 -->
<g id="node2" class="node">
<title>n_0_1_2_4_5_6</title>
<polygon fill="none" stroke="black" points="284.38,-342 284.38,-401 372.62,-401 372.62,-342 284.38,-342"/>
<text text-anchor="start" x="291.38" y="-386.45" font-family="Times New Roman,serif" font-weight="bold" font-size="9.00">Insufficient weight</text>
<text text-anchor="start" x="313.5" y="-377.45" font-family="Times New Roman,serif" font-weight="bold" font-size="9.00">Normal</text>
<text text-anchor="start" x="303" y="-368.45" font-family="Times New Roman,serif" font-weight="bold" font-size="9.00">Overweight I</text>
<text text-anchor="start" x="309" y="-359.45" font-family="Times New Roman,serif" font-weight="bold" font-size="9.00">Obesity II</text>
<text text-anchor="start" x="307.5" y="-350.45" font-family="Times New Roman,serif" font-weight="bold" font-size="9.00">Obesity III</text>
<polygon fill="none" stroke="black" points="372.62,-342 372.62,-401 422.62,-401 422.62,-342 372.62,-342"/>
<text text-anchor="start" x="379.62" y="-369.57" font-family="Times New Roman,serif" font-weight="bold" font-size="9.00">Obesity I</text>
<polygon fill="none" stroke="black" points="283.38,-341 283.38,-402 423.62,-402 423.62,-341 283.38,-341"/>
</g>
<!-- n_0_1_2_3_4_5_6&#45;&gt;n_0_1_2_4_5_6 -->
<g id="edge1" class="edge">
<title>n_0_1_2_3_4_5_6&#45;&gt;n_0_1_2_4_5_6</title>
<path fill="none" stroke="black" d="M403.73,-449.19C396.61,-438.31 388.78,-426.36 381.47,-415.21"/>
<polygon fill="black" stroke="black" points="384.45,-413.37 376.04,-406.92 378.6,-417.2 384.45,-413.37"/>
</g>
<!-- n_3 -->
<g id="node13" class="node">
<title>n_3</title>
<polygon fill="none" stroke="black" points="469.5,-358.88 469.5,-384.12 537.5,-384.12 537.5,-358.88 469.5,-358.88"/>
<text text-anchor="start" x="476.5" y="-369.57" font-family="Times New Roman,serif" font-weight="bold" font-size="9.00">Overweight II</text>
<polygon fill="none" stroke="black" points="468.5,-357.88 468.5,-385.12 538.5,-385.12 538.5,-357.88 468.5,-357.88"/>
</g>
<!-- n_0_1_2_3_4_5_6&#45;&gt;n_3 -->
<g id="edge12" class="edge">
<title>n_0_1_2_3_4_5_6&#45;&gt;n_3</title>
<path fill="none" stroke="black" d="M453.27,-449.19C464.01,-432.78 476.34,-413.96 486.1,-399.07"/>
<polygon fill="black" stroke="black" points="489.01,-401.01 491.56,-390.73 483.15,-397.18 489.01,-401.01"/>
</g>
<!-- n_0_1_2_5_6 -->
<g id="node3" class="node">
<title>n_0_1_2_5_6</title>
<polygon fill="none" stroke="black" points="209.38,-248 209.38,-289 265.38,-289 265.38,-248 209.38,-248"/>
<text text-anchor="start" x="222.38" y="-274.45" font-family="Times New Roman,serif" font-weight="bold" font-size="9.00">Normal</text>
<text text-anchor="start" x="217.88" y="-265.45" font-family="Times New Roman,serif" font-weight="bold" font-size="9.00">Obesity II</text>
<text text-anchor="start" x="216.38" y="-256.45" font-family="Times New Roman,serif" font-weight="bold" font-size="9.00">Obesity III</text>
<polygon fill="none" stroke="black" points="265.38,-248 265.38,-289 353.62,-289 353.62,-248 265.38,-248"/>
<text text-anchor="start" x="272.38" y="-269.95" font-family="Times New Roman,serif" font-weight="bold" font-size="9.00">Insufficient weight</text>
<text text-anchor="start" x="284" y="-260.95" font-family="Times New Roman,serif" font-weight="bold" font-size="9.00">Overweight I</text>
<polygon fill="none" stroke="black" points="208.38,-247 208.38,-290 354.62,-290 354.62,-247 208.38,-247"/>
</g>
<!-- n_0_1_2_4_5_6&#45;&gt;n_0_1_2_5_6 -->
<g id="edge2" class="edge">
<title>n_0_1_2_4_5_6&#45;&gt;n_0_1_2_5_6</title>
<path fill="none" stroke="black" d="M329.72,-337.15C321.93,-326.22 313.27,-314.07 305.46,-303.12"/>
<polygon fill="black" stroke="black" points="308.4,-301.2 299.74,-295.09 302.7,-305.27 308.4,-301.2"/>
</g>
<!-- n_4 -->
<g id="node12" class="node">
<title>n_4</title>
<polygon fill="none" stroke="black" points="400.5,-255.88 400.5,-281.12 450.5,-281.12 450.5,-255.88 400.5,-255.88"/>
<text text-anchor="start" x="407.5" y="-266.57" font-family="Times New Roman,serif" font-weight="bold" font-size="9.00">Obesity I</text>
<polygon fill="none" stroke="black" points="399.5,-254.88 399.5,-282.12 451.5,-282.12 451.5,-254.88 399.5,-254.88"/>
</g>
<!-- n_0_1_2_4_5_6&#45;&gt;n_4 -->
<g id="edge11" class="edge">
<title>n_0_1_2_4_5_6&#45;&gt;n_4</title>
<path fill="none" stroke="black" d="M377.28,-337.15C386.94,-323.6 397.93,-308.17 406.98,-295.48"/>
<polygon fill="black" stroke="black" points="409.63,-297.79 412.59,-287.61 403.93,-293.72 409.63,-297.79"/>
</g>
<!-- n_1_5_6 -->
<g id="node4" class="node">
<title>n_1_5_6</title>
<polygon fill="none" stroke="black" points="144.5,-163 144.5,-195 200.5,-195 200.5,-163 144.5,-163"/>
<text text-anchor="start" x="153" y="-180.45" font-family="Times New Roman,serif" font-weight="bold" font-size="9.00">Obesity II</text>
<text text-anchor="start" x="151.5" y="-171.45" font-family="Times New Roman,serif" font-weight="bold" font-size="9.00">Obesity III</text>
<polygon fill="none" stroke="black" points="200.5,-163 200.5,-195 244.5,-195 244.5,-163 200.5,-163"/>
<text text-anchor="start" x="207.5" y="-177.07" font-family="Times New Roman,serif" font-weight="bold" font-size="9.00">Normal</text>
<polygon fill="none" stroke="black" points="143.5,-162 143.5,-196 245.5,-196 245.5,-162 143.5,-162"/>
</g>
<!-- n_0_1_2_5_6&#45;&gt;n_1_5_6 -->
<g id="edge3" class="edge">
<title>n_0_1_2_5_6&#45;&gt;n_1_5_6</title>
<path fill="none" stroke="black" d="M257.27,-243.13C246.34,-232.14 233.39,-219.11 222.09,-207.75"/>
<polygon fill="black" stroke="black" points="224.81,-205.52 215.28,-200.9 219.85,-210.46 224.81,-205.52"/>
</g>
<!-- n_0_2 -->
<g id="node9" class="node">
<title>n_0_2</title>
<polygon fill="none" stroke="black" points="291.88,-166.38 291.88,-191.62 380.12,-191.62 380.12,-166.38 291.88,-166.38"/>
<text text-anchor="start" x="298.88" y="-177.07" font-family="Times New Roman,serif" font-weight="bold" font-size="9.00">Insufficient weight</text>
<polygon fill="none" stroke="black" points="380.12,-166.38 380.12,-191.62 445.12,-191.62 445.12,-166.38 380.12,-166.38"/>
<text text-anchor="start" x="387.12" y="-177.07" font-family="Times New Roman,serif" font-weight="bold" font-size="9.00">Overweight I</text>
<polygon fill="none" stroke="black" points="290.88,-165.38 290.88,-192.62 446.12,-192.62 446.12,-165.38 290.88,-165.38"/>
</g>
<!-- n_0_1_2_5_6&#45;&gt;n_0_2 -->
<g id="edge8" class="edge">
<title>n_0_1_2_5_6&#45;&gt;n_0_2</title>
<path fill="none" stroke="black" d="M305.73,-243.13C317.66,-231.13 332.01,-216.7 343.98,-204.66"/>
<polygon fill="black" stroke="black" points="346.19,-207.4 350.76,-197.84 341.23,-202.47 346.19,-207.4"/>
</g>
<!-- n_5_6 -->
<g id="node5" class="node">
<title>n_5_6</title>
<polygon fill="none" stroke="black" points="32,-84.38 32,-109.62 85,-109.62 85,-84.38 32,-84.38"/>
<text text-anchor="start" x="39" y="-95.08" font-family="Times New Roman,serif" font-weight="bold" font-size="9.00">Obesity II</text>
<polygon fill="none" stroke="black" points="85,-84.38 85,-109.62 141,-109.62 141,-84.38 85,-84.38"/>
<text text-anchor="start" x="92" y="-95.08" font-family="Times New Roman,serif" font-weight="bold" font-size="9.00">Obesity III</text>
<polygon fill="none" stroke="black" points="31,-83.38 31,-110.62 142,-110.62 142,-83.38 31,-83.38"/>
</g>
<!-- n_1_5_6&#45;&gt;n_5_6 -->
<g id="edge4" class="edge">
<title>n_1_5_6&#45;&gt;n_5_6</title>
<path fill="none" stroke="black" d="M167.53,-158.02C152.48,-146.88 133.67,-132.94 117.96,-121.31"/>
<polygon fill="black" stroke="black" points="120.46,-118.8 110.34,-115.66 116.29,-124.42 120.46,-118.8"/>
</g>
<!-- n_1 -->
<g id="node8" class="node">
<title>n_1</title>
<polygon fill="none" stroke="black" points="188.5,-84.38 188.5,-109.62 232.5,-109.62 232.5,-84.38 188.5,-84.38"/>
<text text-anchor="start" x="195.5" y="-95.08" font-family="Times New Roman,serif" font-weight="bold" font-size="9.00">Normal</text>
<polygon fill="none" stroke="black" points="187.5,-83.38 187.5,-110.62 233.5,-110.62 233.5,-83.38 187.5,-83.38"/>
</g>
<!-- n_1_5_6&#45;&gt;n_1 -->
<g id="edge7" class="edge">
<title>n_1_5_6&#45;&gt;n_1</title>
<path fill="none" stroke="black" d="M198.46,-158.22C200.39,-148.54 202.76,-136.72 204.88,-126.11"/>
<polygon fill="black" stroke="black" points="208.31,-126.82 206.83,-116.33 201.44,-125.45 208.31,-126.82"/>
</g>
<!-- n_5 -->
<g id="node6" class="node">
<title>n_5</title>
<polygon fill="none" stroke="black" points="9,-5.38 9,-30.62 62,-30.62 62,-5.38 9,-5.38"/>
<text text-anchor="start" x="16" y="-16.07" font-family="Times New Roman,serif" font-weight="bold" font-size="9.00">Obesity II</text>
<polygon fill="none" stroke="black" points="8,-4.38 8,-31.62 63,-31.62 63,-4.38 8,-4.38"/>
</g>
<!-- n_5_6&#45;&gt;n_5 -->
<g id="edge5" class="edge">
<title>n_5_6&#45;&gt;n_5</title>
<path fill="none" stroke="black" d="M75.43,-79.29C68.86,-69.37 60.39,-56.57 52.93,-45.32"/>
<polygon fill="black" stroke="black" points="56,-43.61 47.56,-37.2 50.16,-47.47 56,-43.61"/>
</g>
<!-- n_6 -->
<g id="node7" class="node">
<title>n_6</title>
<polygon fill="none" stroke="black" points="109.5,-5.38 109.5,-30.62 165.5,-30.62 165.5,-5.38 109.5,-5.38"/>
<text text-anchor="start" x="116.5" y="-16.07" font-family="Times New Roman,serif" font-weight="bold" font-size="9.00">Obesity III</text>
<polygon fill="none" stroke="black" points="108.5,-4.38 108.5,-31.62 166.5,-31.62 166.5,-4.38 108.5,-4.38"/>
</g>
<!-- n_5_6&#45;&gt;n_6 -->
<g id="edge6" class="edge">
<title>n_5_6&#45;&gt;n_6</title>
<path fill="none" stroke="black" d="M97.57,-79.29C104.14,-69.37 112.61,-56.57 120.07,-45.32"/>
<polygon fill="black" stroke="black" points="122.84,-47.47 125.44,-37.2 117,-43.61 122.84,-47.47"/>
</g>
<!-- n_0 -->
<g id="node10" class="node">
<title>n_0</title>
<polygon fill="none" stroke="black" points="309.38,-84.38 309.38,-109.62 397.62,-109.62 397.62,-84.38 309.38,-84.38"/>
<text text-anchor="start" x="316.38" y="-95.08" font-family="Times New Roman,serif" font-weight="bold" font-size="9.00">Insufficient weight</text>
<polygon fill="none" stroke="black" points="308.38,-83.38 308.38,-110.62 398.62,-110.62 398.62,-83.38 308.38,-83.38"/>
</g>
<!-- n_0_2&#45;&gt;n_0 -->
<g id="edge9" class="edge">
<title>n_0_2&#45;&gt;n_0</title>
<path fill="none" stroke="black" d="M365.32,-161.03C363.41,-150.85 360.93,-137.65 358.74,-125.96"/>
<polygon fill="black" stroke="black" points="362.24,-125.61 356.96,-116.43 355.36,-126.9 362.24,-125.61"/>
</g>
<!-- n_2 -->
<g id="node11" class="node">
<title>n_2</title>
<polygon fill="none" stroke="black" points="445,-84.38 445,-109.62 510,-109.62 510,-84.38 445,-84.38"/>
<text text-anchor="start" x="452" y="-95.08" font-family="Times New Roman,serif" font-weight="bold" font-size="9.00">Overweight I</text>
<polygon fill="none" stroke="black" points="444,-83.38 444,-110.62 511,-110.62 511,-83.38 444,-83.38"/>
</g>
<!-- n_0_2&#45;&gt;n_2 -->
<g id="edge10" class="edge">
<title>n_0_2&#45;&gt;n_2</title>
<path fill="none" stroke="black" d="M391.62,-161.03C407.22,-149.58 428.04,-134.3 445.27,-121.66"/>
<polygon fill="black" stroke="black" points="447.21,-124.58 453.2,-115.84 443.06,-118.93 447.21,-124.58"/>
</g>
</g>
</svg>
