<?xml version="1.0" encoding="UTF-8" standalone="no"?>
<!DOCTYPE svg PUBLIC "-//W3C//DTD SVG 1.1//EN"
 "http://www.w3.org/Graphics/SVG/1.1/DTD/svg11.dtd">
<!-- Generated by graphviz version 10.0.1 (20240210.2158)
 -->
<!-- Title: ND Pages: 1 -->
<svg width="693pt" height="414pt"
 viewBox="0.00 0.00 692.50 414.00" xmlns="http://www.w3.org/2000/svg" xmlns:xlink="http://www.w3.org/1999/xlink">
<g id="graph0" class="graph" transform="scale(1 1) rotate(0) translate(4 410)">
<title>ND</title>
<polygon fill="white" stroke="none" points="-4,4 -4,-410 688.5,-410 688.5,4 -4,4"/>
<!-- n_0_1_2_3_4_5_6 -->
<g id="node1" class="node">
<title>n_0_1_2_3_4_5_6</title>
<polygon fill="none" stroke="black" points="357.88,-342 357.88,-401 425.88,-401 425.88,-342 357.88,-342"/>
<text text-anchor="start" x="376.88" y="-386.45" font-family="Times New Roman,serif" font-weight="bold" font-size="9.00">Normal</text>
<text text-anchor="start" x="364.88" y="-377.45" font-family="Times New Roman,serif" font-weight="bold" font-size="9.00">Overweight II</text>
<text text-anchor="start" x="373.88" y="-368.45" font-family="Times New Roman,serif" font-weight="bold" font-size="9.00">Obesity I</text>
<text text-anchor="start" x="372.38" y="-359.45" font-family="Times New Roman,serif" font-weight="bold" font-size="9.00">Obesity II</text>
<text text-anchor="start" x="370.88" y="-350.45" font-family="Times New Roman,serif" font-weight="bold" font-size="9.00">Obesity III</text>
<polygon fill="none" stroke="black" points="425.88,-342 425.88,-401 514.12,-401 514.12,-342 425.88,-342"/>
<text text-anchor="start" x="432.88" y="-372.95" font-family="Times New Roman,serif" font-weight="bold" font-size="9.00">Insufficient weight</text>
<text text-anchor="start" x="444.5" y="-363.95" font-family="Times New Roman,serif" font-weight="bold" font-size="9.00">Overweight I</text>
<polygon fill="none" stroke="black" points="356.88,-341 356.88,-402 515.12,-402 515.12,-341 356.88,-341"/>
</g>
<!-- n_1_3_4_5_6 -->
<g id="node2" class="node">
<title>n_1_3_4_5_6</title>
<polygon fill="none" stroke="black" points="281,-248 281,-289 337,-289 337,-248 281,-248"/>
<text text-anchor="start" x="291" y="-274.45" font-family="Times New Roman,serif" font-weight="bold" font-size="9.00">Obesity I</text>
<text text-anchor="start" x="289.5" y="-265.45" font-family="Times New Roman,serif" font-weight="bold" font-size="9.00">Obesity II</text>
<text text-anchor="start" x="288" y="-256.45" font-family="Times New Roman,serif" font-weight="bold" font-size="9.00">Obesity III</text>
<polygon fill="none" stroke="black" points="337,-248 337,-289 405,-289 405,-248 337,-248"/>
<text text-anchor="start" x="356" y="-269.95" font-family="Times New Roman,serif" font-weight="bold" font-size="9.00">Normal</text>
<text text-anchor="start" x="344" y="-260.95" font-family="Times New Roman,serif" font-weight="bold" font-size="9.00">Overweight II</text>
<polygon fill="none" stroke="black" points="280,-247 280,-290 406,-290 406,-247 280,-247"/>
</g>
<!-- n_0_1_2_3_4_5_6&#45;&gt;n_1_3_4_5_6 -->
<g id="edge1" class="edge">
<title>n_0_1_2_3_4_5_6&#45;&gt;n_1_3_4_5_6</title>
<path fill="none" stroke="black" d="M405.29,-337.15C394.92,-325.89 383.36,-313.33 373.04,-302.12"/>
<polygon fill="black" stroke="black" points="375.8,-299.96 366.46,-294.97 370.65,-304.7 375.8,-299.96"/>
</g>
<!-- n_0_2 -->
<g id="node11" class="node">
<title>n_0_2</title>
<polygon fill="none" stroke="black" points="452.38,-255.88 452.38,-281.12 540.62,-281.12 540.62,-255.88 452.38,-255.88"/>
<text text-anchor="start" x="459.38" y="-266.57" font-family="Times New Roman,serif" font-weight="bold" font-size="9.00">Insufficient weight</text>
<polygon fill="none" stroke="black" points="540.62,-255.88 540.62,-281.12 605.62,-281.12 605.62,-255.88 540.62,-255.88"/>
<text text-anchor="start" x="547.62" y="-266.57" font-family="Times New Roman,serif" font-weight="bold" font-size="9.00">Overweight I</text>
<polygon fill="none" stroke="black" points="451.38,-254.88 451.38,-282.12 606.62,-282.12 606.62,-254.88 451.38,-254.88"/>
</g>
<!-- n_0_1_2_3_4_5_6&#45;&gt;n_0_2 -->
<g id="edge10" class="edge">
<title>n_0_1_2_3_4_5_6&#45;&gt;n_0_2</title>
<path fill="none" stroke="black" d="M466.71,-337.15C479.43,-323.33 493.95,-307.57 505.76,-294.74"/>
<polygon fill="black" stroke="black" points="508.23,-297.22 512.43,-287.49 503.08,-292.48 508.23,-297.22"/>
</g>
<!-- n_4_5_6 -->
<g id="node3" class="node">
<title>n_4_5_6</title>
<polygon fill="none" stroke="black" points="140.5,-163 140.5,-195 196.5,-195 196.5,-163 140.5,-163"/>
<text text-anchor="start" x="150.5" y="-180.45" font-family="Times New Roman,serif" font-weight="bold" font-size="9.00">Obesity I</text>
<text text-anchor="start" x="147.5" y="-171.45" font-family="Times New Roman,serif" font-weight="bold" font-size="9.00">Obesity III</text>
<polygon fill="none" stroke="black" points="196.5,-163 196.5,-195 249.5,-195 249.5,-163 196.5,-163"/>
<text text-anchor="start" x="203.5" y="-177.07" font-family="Times New Roman,serif" font-weight="bold" font-size="9.00">Obesity II</text>
<polygon fill="none" stroke="black" points="139.5,-162 139.5,-196 250.5,-196 250.5,-162 139.5,-162"/>
</g>
<!-- n_1_3_4_5_6&#45;&gt;n_4_5_6 -->
<g id="edge2" class="edge">
<title>n_1_3_4_5_6&#45;&gt;n_4_5_6</title>
<path fill="none" stroke="black" d="M301.77,-243.13C282.02,-231.45 258.36,-217.46 238.33,-205.62"/>
<polygon fill="black" stroke="black" points="240.23,-202.67 229.84,-200.6 236.66,-208.7 240.23,-202.67"/>
</g>
<!-- n_1_3 -->
<g id="node8" class="node">
<title>n_1_3</title>
<polygon fill="none" stroke="black" points="297,-166.38 297,-191.62 341,-191.62 341,-166.38 297,-166.38"/>
<text text-anchor="start" x="304" y="-177.07" font-family="Times New Roman,serif" font-weight="bold" font-size="9.00">Normal</text>
<polygon fill="none" stroke="black" points="341,-166.38 341,-191.62 409,-191.62 409,-166.38 341,-166.38"/>
<text text-anchor="start" x="348" y="-177.07" font-family="Times New Roman,serif" font-weight="bold" font-size="9.00">Overweight II</text>
<polygon fill="none" stroke="black" points="296,-165.38 296,-192.62 410,-192.62 410,-165.38 296,-165.38"/>
</g>
<!-- n_1_3_4_5_6&#45;&gt;n_1_3 -->
<g id="edge7" class="edge">
<title>n_1_3_4_5_6&#45;&gt;n_1_3</title>
<path fill="none" stroke="black" d="M345.79,-243.13C347.02,-232.28 348.49,-219.45 349.78,-208.19"/>
<polygon fill="black" stroke="black" points="353.25,-208.61 350.91,-198.27 346.3,-207.81 353.25,-208.61"/>
</g>
<!-- n_4_6 -->
<g id="node4" class="node">
<title>n_4_6</title>
<polygon fill="none" stroke="black" points="31,-84.38 31,-109.62 81,-109.62 81,-84.38 31,-84.38"/>
<text text-anchor="start" x="38" y="-95.08" font-family="Times New Roman,serif" font-weight="bold" font-size="9.00">Obesity I</text>
<polygon fill="none" stroke="black" points="81,-84.38 81,-109.62 137,-109.62 137,-84.38 81,-84.38"/>
<text text-anchor="start" x="88" y="-95.08" font-family="Times New Roman,serif" font-weight="bold" font-size="9.00">Obesity III</text>
<polygon fill="none" stroke="black" points="30,-83.38 30,-110.62 138,-110.62 138,-83.38 30,-83.38"/>
</g>
<!-- n_4_5_6&#45;&gt;n_4_6 -->
<g id="edge3" class="edge">
<title>n_4_5_6&#45;&gt;n_4_6</title>
<path fill="none" stroke="black" d="M167.28,-158.02C151.82,-146.88 132.48,-132.94 116.34,-121.31"/>
<polygon fill="black" stroke="black" points="118.64,-118.65 108.48,-115.64 114.55,-124.33 118.64,-118.65"/>
</g>
<!-- n_5 -->
<g id="node7" class="node">
<title>n_5</title>
<polygon fill="none" stroke="black" points="184.5,-84.38 184.5,-109.62 237.5,-109.62 237.5,-84.38 184.5,-84.38"/>
<text text-anchor="start" x="191.5" y="-95.08" font-family="Times New Roman,serif" font-weight="bold" font-size="9.00">Obesity II</text>
<polygon fill="none" stroke="black" points="183.5,-83.38 183.5,-110.62 238.5,-110.62 238.5,-83.38 183.5,-83.38"/>
</g>
<!-- n_4_5_6&#45;&gt;n_5 -->
<g id="edge6" class="edge">
<title>n_4_5_6&#45;&gt;n_5</title>
<path fill="none" stroke="black" d="M198.96,-158.22C200.89,-148.54 203.26,-136.72 205.38,-126.11"/>
<polygon fill="black" stroke="black" points="208.81,-126.82 207.33,-116.33 201.94,-125.45 208.81,-126.82"/>
</g>
<!-- n_4 -->
<g id="node5" class="node">
<title>n_4</title>
<polygon fill="none" stroke="black" points="9,-5.38 9,-30.62 59,-30.62 59,-5.38 9,-5.38"/>
<text text-anchor="start" x="16" y="-16.07" font-family="Times New Roman,serif" font-weight="bold" font-size="9.00">Obesity I</text>
<polygon fill="none" stroke="black" points="8,-4.38 8,-31.62 60,-31.62 60,-4.38 8,-4.38"/>
</g>
<!-- n_4_6&#45;&gt;n_4 -->
<g id="edge4" class="edge">
<title>n_4_6&#45;&gt;n_4</title>
<path fill="none" stroke="black" d="M73.15,-79.29C66.71,-69.37 58.4,-56.57 51.09,-45.32"/>
<polygon fill="black" stroke="black" points="54.21,-43.69 45.83,-37.21 48.34,-47.5 54.21,-43.69"/>
</g>
<!-- n_6 -->
<g id="node6" class="node">
<title>n_6</title>
<polygon fill="none" stroke="black" points="106,-5.38 106,-30.62 162,-30.62 162,-5.38 106,-5.38"/>
<text text-anchor="start" x="113" y="-16.07" font-family="Times New Roman,serif" font-weight="bold" font-size="9.00">Obesity III</text>
<polygon fill="none" stroke="black" points="105,-4.38 105,-31.62 163,-31.62 163,-4.38 105,-4.38"/>
</g>
<!-- n_4_6&#45;&gt;n_6 -->
<g id="edge5" class="edge">
<title>n_4_6&#45;&gt;n_6</title>
<path fill="none" stroke="black" d="M94.85,-79.29C101.29,-69.37 109.6,-56.57 116.91,-45.32"/>
<polygon fill="black" stroke="black" points="119.66,-47.5 122.17,-37.21 113.79,-43.69 119.66,-47.5"/>
</g>
<!-- n_1 -->
<g id="node9" class="node">
<title>n_1</title>
<polygon fill="none" stroke="black" points="316,-84.38 316,-109.62 360,-109.62 360,-84.38 316,-84.38"/>
<text text-anchor="start" x="323" y="-95.08" font-family="Times New Roman,serif" font-weight="bold" font-size="9.00">Normal</text>
<polygon fill="none" stroke="black" points="315,-83.38 315,-110.62 361,-110.62 361,-83.38 315,-83.38"/>
</g>
<!-- n_1_3&#45;&gt;n_1 -->
<g id="edge8" class="edge">
<title>n_1_3&#45;&gt;n_1</title>
<path fill="none" stroke="black" d="M349.82,-161.03C347.91,-150.85 345.43,-137.65 343.24,-125.96"/>
<polygon fill="black" stroke="black" points="346.74,-125.61 341.46,-116.43 339.86,-126.9 346.74,-125.61"/>
</g>
<!-- n_3 -->
<g id="node10" class="node">
<title>n_3</title>
<polygon fill="none" stroke="black" points="407,-84.38 407,-109.62 475,-109.62 475,-84.38 407,-84.38"/>
<text text-anchor="start" x="414" y="-95.08" font-family="Times New Roman,serif" font-weight="bold" font-size="9.00">Overweight II</text>
<polygon fill="none" stroke="black" points="406,-83.38 406,-110.62 476,-110.62 476,-83.38 406,-83.38"/>
</g>
<!-- n_1_3&#45;&gt;n_3 -->
<g id="edge9" class="edge">
<title>n_1_3&#45;&gt;n_3</title>
<path fill="none" stroke="black" d="M371.66,-161.03C384.03,-149.79 400.45,-134.87 414.2,-122.36"/>
<polygon fill="black" stroke="black" points="416.2,-125.28 421.24,-115.96 411.49,-120.1 416.2,-125.28"/>
</g>
<!-- n_0 -->
<g id="node12" class="node">
<title>n_0</title>
<polygon fill="none" stroke="black" points="474.88,-166.38 474.88,-191.62 563.12,-191.62 563.12,-166.38 474.88,-166.38"/>
<text text-anchor="start" x="481.88" y="-177.07" font-family="Times New Roman,serif" font-weight="bold" font-size="9.00">Insufficient weight</text>
<polygon fill="none" stroke="black" points="473.88,-165.38 473.88,-192.62 564.12,-192.62 564.12,-165.38 473.88,-165.38"/>
</g>
<!-- n_0_2&#45;&gt;n_0 -->
<g id="edge11" class="edge">
<title>n_0_2&#45;&gt;n_0</title>
<path fill="none" stroke="black" d="M527.07,-250.63C525.69,-238.52 523.79,-221.94 522.19,-207.88"/>
<polygon fill="black" stroke="black" points="525.71,-207.86 521.09,-198.32 518.75,-208.66 525.71,-207.86"/>
</g>
<!-- n_2 -->
<g id="node13" class="node">
<title>n_2</title>
<polygon fill="none" stroke="black" points="610.5,-166.38 610.5,-191.62 675.5,-191.62 675.5,-166.38 610.5,-166.38"/>
<text text-anchor="start" x="617.5" y="-177.07" font-family="Times New Roman,serif" font-weight="bold" font-size="9.00">Overweight I</text>
<polygon fill="none" stroke="black" points="609.5,-165.38 609.5,-192.62 676.5,-192.62 676.5,-165.38 609.5,-165.38"/>
</g>
<!-- n_0_2&#45;&gt;n_2 -->
<g id="edge12" class="edge">
<title>n_0_2&#45;&gt;n_2</title>
<path fill="none" stroke="black" d="M550.98,-250.63C568.33,-237.31 592.74,-218.57 612.06,-203.74"/>
<polygon fill="black" stroke="black" points="614.08,-206.61 619.89,-197.74 609.82,-201.05 614.08,-206.61"/>
</g>
</g>
</svg>
