<?xml version="1.0" encoding="UTF-8" standalone="no"?>
<!DOCTYPE svg PUBLIC "-//W3C//DTD SVG 1.1//EN"
 "http://www.w3.org/Graphics/SVG/1.1/DTD/svg11.dtd">
<!-- Generated by graphviz version 10.0.1 (20240210.2158)
 -->
<!-- Title: ND Pages: 1 -->
<svg width="595pt" height="638pt"
 viewBox="0.00 0.00 595.12 638.00" xmlns="http://www.w3.org/2000/svg" xmlns:xlink="http://www.w3.org/1999/xlink">
<g id="graph0" class="graph" transform="scale(1 1) rotate(0) translate(4 634)">
<title>ND</title>
<polygon fill="white" stroke="none" points="-4,4 -4,-634 591.12,-634 591.12,4 -4,4"/>
<!-- n_0_1_2_3_4_5_6 -->
<g id="node1" class="node">
<title>n_0_1_2_3_4_5_6</title>
<polygon fill="none" stroke="black" points="412,-557 412,-625 500.25,-625 500.25,-557 412,-557"/>
<text text-anchor="start" x="419" y="-610.45" font-family="Times New Roman,serif" font-weight="bold" font-size="9.00">Insufficient weight</text>
<text text-anchor="start" x="441.12" y="-601.45" font-family="Times New Roman,serif" font-weight="bold" font-size="9.00">Normal</text>
<text text-anchor="start" x="430.62" y="-592.45" font-family="Times New Roman,serif" font-weight="bold" font-size="9.00">Overweight I</text>
<text text-anchor="start" x="429.12" y="-583.45" font-family="Times New Roman,serif" font-weight="bold" font-size="9.00">Overweight II</text>
<text text-anchor="start" x="436.62" y="-574.45" font-family="Times New Roman,serif" font-weight="bold" font-size="9.00">Obesity II</text>
<text text-anchor="start" x="435.12" y="-565.45" font-family="Times New Roman,serif" font-weight="bold" font-size="9.00">Obesity III</text>
<polygon fill="none" stroke="black" points="500.25,-557 500.25,-625 550.25,-625 550.25,-557 500.25,-557"/>
<text text-anchor="start" x="507.25" y="-589.08" font-family="Times New Roman,serif" font-weight="bold" font-size="9.00">Obesity I</text>
<polygon fill="none" stroke="black" points="411,-556 411,-626 551.25,-626 551.25,-556 411,-556"/>
</g>
<!-- n_0_1_2_3_5_6 -->
<g id="node2" class="node">
<title>n_0_1_2_3_5_6</title>
<polygon fill="none" stroke="black" points="339.5,-445 339.5,-504 427.75,-504 427.75,-445 339.5,-445"/>
<text text-anchor="start" x="346.5" y="-489.45" font-family="Times New Roman,serif" font-weight="bold" font-size="9.00">Insufficient weight</text>
<text text-anchor="start" x="368.62" y="-480.45" font-family="Times New Roman,serif" font-weight="bold" font-size="9.00">Normal</text>
<text text-anchor="start" x="358.12" y="-471.45" font-family="Times New Roman,serif" font-weight="bold" font-size="9.00">Overweight I</text>
<text text-anchor="start" x="356.62" y="-462.45" font-family="Times New Roman,serif" font-weight="bold" font-size="9.00">Overweight II</text>
<text text-anchor="start" x="362.62" y="-453.45" font-family="Times New Roman,serif" font-weight="bold" font-size="9.00">Obesity III</text>
<polygon fill="none" stroke="black" points="427.75,-445 427.75,-504 480.75,-504 480.75,-445 427.75,-445"/>
<text text-anchor="start" x="434.75" y="-472.57" font-family="Times New Roman,serif" font-weight="bold" font-size="9.00">Obesity II</text>
<polygon fill="none" stroke="black" points="338.5,-444 338.5,-505 481.75,-505 481.75,-444 338.5,-444"/>
</g>
<!-- n_0_1_2_3_4_5_6&#45;&gt;n_0_1_2_3_5_6 -->
<g id="edge1" class="edge">
<title>n_0_1_2_3_4_5_6&#45;&gt;n_0_1_2_3_5_6</title>
<path fill="none" stroke="black" d="M457.68,-552.19C450.93,-541.31 443.52,-529.36 436.61,-518.21"/>
<polygon fill="black" stroke="black" points="439.72,-516.59 431.48,-509.94 433.78,-520.28 439.72,-516.59"/>
</g>
<!-- n_4 -->
<g id="node13" class="node">
<title>n_4</title>
<polygon fill="none" stroke="black" points="528.12,-461.88 528.12,-487.12 578.12,-487.12 578.12,-461.88 528.12,-461.88"/>
<text text-anchor="start" x="535.12" y="-472.57" font-family="Times New Roman,serif" font-weight="bold" font-size="9.00">Obesity I</text>
<polygon fill="none" stroke="black" points="527.12,-460.88 527.12,-488.12 579.12,-488.12 579.12,-460.88 527.12,-460.88"/>
</g>
<!-- n_0_1_2_3_4_5_6&#45;&gt;n_4 -->
<g id="edge12" class="edge">
<title>n_0_1_2_3_4_5_6&#45;&gt;n_4</title>
<path fill="none" stroke="black" d="M504.9,-552.19C515.22,-535.78 527.05,-516.96 536.42,-502.07"/>
<polygon fill="black" stroke="black" points="539.29,-504.07 541.65,-493.74 533.37,-500.35 539.29,-504.07"/>
</g>
<!-- n_0_1_2_3_6 -->
<g id="node3" class="node">
<title>n_0_1_2_3_6</title>
<polygon fill="none" stroke="black" points="265,-342 265,-392 353.25,-392 353.25,-342 265,-342"/>
<text text-anchor="start" x="272" y="-377.45" font-family="Times New Roman,serif" font-weight="bold" font-size="9.00">Insufficient weight</text>
<text text-anchor="start" x="294.12" y="-368.45" font-family="Times New Roman,serif" font-weight="bold" font-size="9.00">Normal</text>
<text text-anchor="start" x="283.62" y="-359.45" font-family="Times New Roman,serif" font-weight="bold" font-size="9.00">Overweight I</text>
<text text-anchor="start" x="282.12" y="-350.45" font-family="Times New Roman,serif" font-weight="bold" font-size="9.00">Overweight II</text>
<polygon fill="none" stroke="black" points="353.25,-342 353.25,-392 409.25,-392 409.25,-342 353.25,-342"/>
<text text-anchor="start" x="360.25" y="-365.07" font-family="Times New Roman,serif" font-weight="bold" font-size="9.00">Obesity III</text>
<polygon fill="none" stroke="black" points="264,-341 264,-393 410.25,-393 410.25,-341 264,-341"/>
</g>
<!-- n_0_1_2_3_5_6&#45;&gt;n_0_1_2_3_6 -->
<g id="edge2" class="edge">
<title>n_0_1_2_3_5_6&#45;&gt;n_0_1_2_3_6</title>
<path fill="none" stroke="black" d="M387.03,-440.12C379.6,-429.38 371.31,-417.4 363.65,-406.33"/>
<polygon fill="black" stroke="black" points="366.55,-404.37 357.98,-398.14 360.79,-408.36 366.55,-404.37"/>
</g>
<!-- n_5 -->
<g id="node12" class="node">
<title>n_5</title>
<polygon fill="none" stroke="black" points="456.62,-354.38 456.62,-379.62 509.62,-379.62 509.62,-354.38 456.62,-354.38"/>
<text text-anchor="start" x="463.62" y="-365.07" font-family="Times New Roman,serif" font-weight="bold" font-size="9.00">Obesity II</text>
<polygon fill="none" stroke="black" points="455.62,-353.38 455.62,-380.62 510.62,-380.62 510.62,-353.38 455.62,-353.38"/>
</g>
<!-- n_0_1_2_3_5_6&#45;&gt;n_5 -->
<g id="edge11" class="edge">
<title>n_0_1_2_3_5_6&#45;&gt;n_5</title>
<path fill="none" stroke="black" d="M433.22,-440.12C443.44,-425.35 455.29,-408.23 464.87,-394.38"/>
<polygon fill="black" stroke="black" points="467.72,-396.41 470.54,-386.2 461.97,-392.43 467.72,-396.41"/>
</g>
<!-- n_0_1_2_3 -->
<g id="node4" class="node">
<title>n_0_1_2_3</title>
<polygon fill="none" stroke="black" points="184.5,-248 184.5,-289 272.75,-289 272.75,-248 184.5,-248"/>
<text text-anchor="start" x="191.5" y="-274.45" font-family="Times New Roman,serif" font-weight="bold" font-size="9.00">Insufficient weight</text>
<text text-anchor="start" x="213.62" y="-265.45" font-family="Times New Roman,serif" font-weight="bold" font-size="9.00">Normal</text>
<text text-anchor="start" x="201.62" y="-256.45" font-family="Times New Roman,serif" font-weight="bold" font-size="9.00">Overweight II</text>
<polygon fill="none" stroke="black" points="272.75,-248 272.75,-289 337.75,-289 337.75,-248 272.75,-248"/>
<text text-anchor="start" x="279.75" y="-266.57" font-family="Times New Roman,serif" font-weight="bold" font-size="9.00">Overweight I</text>
<polygon fill="none" stroke="black" points="183.5,-247 183.5,-290 338.75,-290 338.75,-247 183.5,-247"/>
</g>
<!-- n_0_1_2_3_6&#45;&gt;n_0_1_2_3 -->
<g id="edge3" class="edge">
<title>n_0_1_2_3_6&#45;&gt;n_0_1_2_3</title>
<path fill="none" stroke="black" d="M314.32,-337.05C305.85,-326.29 296.17,-314 287.42,-302.88"/>
<polygon fill="black" stroke="black" points="290.19,-300.75 281.26,-295.06 284.7,-305.09 290.19,-300.75"/>
</g>
<!-- n_6 -->
<g id="node11" class="node">
<title>n_6</title>
<polygon fill="none" stroke="black" points="385.12,-255.88 385.12,-281.12 441.12,-281.12 441.12,-255.88 385.12,-255.88"/>
<text text-anchor="start" x="392.12" y="-266.57" font-family="Times New Roman,serif" font-weight="bold" font-size="9.00">Obesity III</text>
<polygon fill="none" stroke="black" points="384.12,-254.88 384.12,-282.12 442.12,-282.12 442.12,-254.88 384.12,-254.88"/>
</g>
<!-- n_0_1_2_3_6&#45;&gt;n_6 -->
<g id="edge10" class="edge">
<title>n_0_1_2_3_6&#45;&gt;n_6</title>
<path fill="none" stroke="black" d="M359.93,-337.05C370.41,-323.73 382.74,-308.07 392.89,-295.19"/>
<polygon fill="black" stroke="black" points="395.47,-297.58 398.91,-287.55 389.97,-293.25 395.47,-297.58"/>
</g>
<!-- n_0_1_3 -->
<g id="node5" class="node">
<title>n_0_1_3</title>
<polygon fill="none" stroke="black" points="104,-163 104,-195 192.25,-195 192.25,-163 104,-163"/>
<text text-anchor="start" x="111" y="-180.45" font-family="Times New Roman,serif" font-weight="bold" font-size="9.00">Insufficient weight</text>
<text text-anchor="start" x="133.12" y="-171.45" font-family="Times New Roman,serif" font-weight="bold" font-size="9.00">Normal</text>
<polygon fill="none" stroke="black" points="192.25,-163 192.25,-195 260.25,-195 260.25,-163 192.25,-163"/>
<text text-anchor="start" x="199.25" y="-177.07" font-family="Times New Roman,serif" font-weight="bold" font-size="9.00">Overweight II</text>
<polygon fill="none" stroke="black" points="103,-162 103,-196 261.25,-196 261.25,-162 103,-162"/>
</g>
<!-- n_0_1_2_3&#45;&gt;n_0_1_3 -->
<g id="edge4" class="edge">
<title>n_0_1_2_3&#45;&gt;n_0_1_3</title>
<path fill="none" stroke="black" d="M239.12,-243.13C229.3,-232.25 217.66,-219.36 207.48,-208.08"/>
<polygon fill="black" stroke="black" points="210.34,-206.03 201.04,-200.95 205.14,-210.72 210.34,-206.03"/>
</g>
<!-- n_2 -->
<g id="node10" class="node">
<title>n_2</title>
<polygon fill="none" stroke="black" points="307.62,-166.38 307.62,-191.62 372.62,-191.62 372.62,-166.38 307.62,-166.38"/>
<text text-anchor="start" x="314.62" y="-177.07" font-family="Times New Roman,serif" font-weight="bold" font-size="9.00">Overweight I</text>
<polygon fill="none" stroke="black" points="306.62,-165.38 306.62,-192.62 373.62,-192.62 373.62,-165.38 306.62,-165.38"/>
</g>
<!-- n_0_1_2_3&#45;&gt;n_2 -->
<g id="edge9" class="edge">
<title>n_0_1_2_3&#45;&gt;n_2</title>
<path fill="none" stroke="black" d="M283.13,-243.13C293.86,-231.24 306.74,-216.97 317.55,-205.01"/>
<polygon fill="black" stroke="black" points="319.87,-207.66 323.97,-197.89 314.67,-202.97 319.87,-207.66"/>
</g>
<!-- n_0_1 -->
<g id="node6" class="node">
<title>n_0_1</title>
<polygon fill="none" stroke="black" points="43,-84.38 43,-109.62 131.25,-109.62 131.25,-84.38 43,-84.38"/>
<text text-anchor="start" x="50" y="-95.08" font-family="Times New Roman,serif" font-weight="bold" font-size="9.00">Insufficient weight</text>
<polygon fill="none" stroke="black" points="131.25,-84.38 131.25,-109.62 175.25,-109.62 175.25,-84.38 131.25,-84.38"/>
<text text-anchor="start" x="138.25" y="-95.08" font-family="Times New Roman,serif" font-weight="bold" font-size="9.00">Normal</text>
<polygon fill="none" stroke="black" points="42,-83.38 42,-110.62 176.25,-110.62 176.25,-83.38 42,-83.38"/>
</g>
<!-- n_0_1_3&#45;&gt;n_0_1 -->
<g id="edge5" class="edge">
<title>n_0_1_3&#45;&gt;n_0_1</title>
<path fill="none" stroke="black" d="M164.08,-158.22C154.39,-147.61 142.35,-134.41 132,-123.07"/>
<polygon fill="black" stroke="black" points="134.84,-120.99 125.52,-115.96 129.67,-125.71 134.84,-120.99"/>
</g>
<!-- n_3 -->
<g id="node9" class="node">
<title>n_3</title>
<polygon fill="none" stroke="black" points="222.12,-84.38 222.12,-109.62 290.12,-109.62 290.12,-84.38 222.12,-84.38"/>
<text text-anchor="start" x="229.12" y="-95.08" font-family="Times New Roman,serif" font-weight="bold" font-size="9.00">Overweight II</text>
<polygon fill="none" stroke="black" points="221.12,-83.38 221.12,-110.62 291.12,-110.62 291.12,-83.38 221.12,-83.38"/>
</g>
<!-- n_0_1_3&#45;&gt;n_3 -->
<g id="edge8" class="edge">
<title>n_0_1_3&#45;&gt;n_3</title>
<path fill="none" stroke="black" d="M200.42,-158.22C210.24,-147.61 222.45,-134.41 232.93,-123.07"/>
<polygon fill="black" stroke="black" points="235.3,-125.67 239.52,-115.95 230.16,-120.92 235.3,-125.67"/>
</g>
<!-- n_0 -->
<g id="node7" class="node">
<title>n_0</title>
<polygon fill="none" stroke="black" points="9,-5.38 9,-30.62 97.25,-30.62 97.25,-5.38 9,-5.38"/>
<text text-anchor="start" x="16" y="-16.07" font-family="Times New Roman,serif" font-weight="bold" font-size="9.00">Insufficient weight</text>
<polygon fill="none" stroke="black" points="8,-4.38 8,-31.62 98.25,-31.62 98.25,-4.38 8,-4.38"/>
</g>
<!-- n_0_1&#45;&gt;n_0 -->
<g id="edge6" class="edge">
<title>n_0_1&#45;&gt;n_0</title>
<path fill="none" stroke="black" d="M96.97,-79.29C89.69,-69.27 80.26,-56.31 72.02,-44.98"/>
<polygon fill="black" stroke="black" points="75.05,-43.19 66.34,-37.17 69.39,-47.31 75.05,-43.19"/>
</g>
<!-- n_1 -->
<g id="node8" class="node">
<title>n_1</title>
<polygon fill="none" stroke="black" points="144.12,-5.38 144.12,-30.62 188.12,-30.62 188.12,-5.38 144.12,-5.38"/>
<text text-anchor="start" x="151.12" y="-16.07" font-family="Times New Roman,serif" font-weight="bold" font-size="9.00">Normal</text>
<polygon fill="none" stroke="black" points="143.12,-4.38 143.12,-31.62 189.12,-31.62 189.12,-4.38 143.12,-4.38"/>
</g>
<!-- n_0_1&#45;&gt;n_1 -->
<g id="edge7" class="edge">
<title>n_0_1&#45;&gt;n_1</title>
<path fill="none" stroke="black" d="M121.49,-79.29C128.91,-69.27 138.5,-56.31 146.89,-44.98"/>
<polygon fill="black" stroke="black" points="149.55,-47.28 152.68,-37.16 143.92,-43.11 149.55,-47.28"/>
</g>
</g>
</svg>
