<?xml version="1.0" encoding="UTF-8" standalone="no"?>
<!DOCTYPE svg PUBLIC "-//W3C//DTD SVG 1.1//EN"
 "http://www.w3.org/Graphics/SVG/1.1/DTD/svg11.dtd">
<!-- Generated by graphviz version 10.0.1 (20240210.2158)
 -->
<!-- Title: ND Pages: 1 -->
<svg width="577pt" height="526pt"
 viewBox="0.00 0.00 576.62 526.00" xmlns="http://www.w3.org/2000/svg" xmlns:xlink="http://www.w3.org/1999/xlink">
<g id="graph0" class="graph" transform="scale(1 1) rotate(0) translate(4 522)">
<title>ND</title>
<polygon fill="white" stroke="none" points="-4,4 -4,-522 572.62,-522 572.62,4 -4,4"/>
<!-- n_0_1_2_3_4_5_6 -->
<g id="node1" class="node">
<title>n_0_1_2_3_4_5_6</title>
<polygon fill="none" stroke="black" points="358.38,-445 358.38,-513 426.38,-513 426.38,-445 358.38,-445"/>
<text text-anchor="start" x="377.38" y="-498.45" font-family="Times New Roman,serif" font-weight="bold" font-size="9.00">Normal</text>
<text text-anchor="start" x="366.88" y="-489.45" font-family="Times New Roman,serif" font-weight="bold" font-size="9.00">Overweight I</text>
<text text-anchor="start" x="365.38" y="-480.45" font-family="Times New Roman,serif" font-weight="bold" font-size="9.00">Overweight II</text>
<text text-anchor="start" x="374.38" y="-471.45" font-family="Times New Roman,serif" font-weight="bold" font-size="9.00">Obesity I</text>
<text text-anchor="start" x="372.88" y="-462.45" font-family="Times New Roman,serif" font-weight="bold" font-size="9.00">Obesity II</text>
<text text-anchor="start" x="371.38" y="-453.45" font-family="Times New Roman,serif" font-weight="bold" font-size="9.00">Obesity III</text>
<polygon fill="none" stroke="black" points="426.38,-445 426.38,-513 514.62,-513 514.62,-445 426.38,-445"/>
<text text-anchor="start" x="433.38" y="-477.07" font-family="Times New Roman,serif" font-weight="bold" font-size="9.00">Insufficient weight</text>
<polygon fill="none" stroke="black" points="357.38,-444 357.38,-514 515.62,-514 515.62,-444 357.38,-444"/>
</g>
<!-- n_1_2_3_4_5_6 -->
<g id="node2" class="node">
<title>n_1_2_3_4_5_6</title>
<polygon fill="none" stroke="black" points="291,-342 291,-392 356,-392 356,-342 291,-342"/>
<text text-anchor="start" x="298" y="-377.45" font-family="Times New Roman,serif" font-weight="bold" font-size="9.00">Overweight I</text>
<text text-anchor="start" x="305.5" y="-368.45" font-family="Times New Roman,serif" font-weight="bold" font-size="9.00">Obesity I</text>
<text text-anchor="start" x="304" y="-359.45" font-family="Times New Roman,serif" font-weight="bold" font-size="9.00">Obesity II</text>
<text text-anchor="start" x="302.5" y="-350.45" font-family="Times New Roman,serif" font-weight="bold" font-size="9.00">Obesity III</text>
<polygon fill="none" stroke="black" points="356,-342 356,-392 424,-392 424,-342 356,-342"/>
<text text-anchor="start" x="375" y="-368.45" font-family="Times New Roman,serif" font-weight="bold" font-size="9.00">Normal</text>
<text text-anchor="start" x="363" y="-359.45" font-family="Times New Roman,serif" font-weight="bold" font-size="9.00">Overweight II</text>
<polygon fill="none" stroke="black" points="290,-341 290,-393 425,-393 425,-341 290,-341"/>
</g>
<!-- n_0_1_2_3_4_5_6&#45;&gt;n_1_2_3_4_5_6 -->
<g id="edge1" class="edge">
<title>n_0_1_2_3_4_5_6&#45;&gt;n_1_2_3_4_5_6</title>
<path fill="none" stroke="black" d="M409.31,-440.14C401.44,-429.19 392.85,-417.22 384.96,-406.23"/>
<polygon fill="black" stroke="black" points="387.81,-404.2 379.13,-398.12 382.12,-408.28 387.81,-404.2"/>
</g>
<!-- n_0 -->
<g id="node13" class="node">
<title>n_0</title>
<polygon fill="none" stroke="black" points="471.38,-354.38 471.38,-379.62 559.62,-379.62 559.62,-354.38 471.38,-354.38"/>
<text text-anchor="start" x="478.38" y="-365.07" font-family="Times New Roman,serif" font-weight="bold" font-size="9.00">Insufficient weight</text>
<polygon fill="none" stroke="black" points="470.38,-353.38 470.38,-380.62 560.62,-380.62 560.62,-353.38 470.38,-353.38"/>
</g>
<!-- n_0_1_2_3_4_5_6&#45;&gt;n_0 -->
<g id="edge12" class="edge">
<title>n_0_1_2_3_4_5_6&#45;&gt;n_0</title>
<path fill="none" stroke="black" d="M463.69,-440.14C474.53,-425.04 486.76,-408.02 496.61,-394.31"/>
<polygon fill="black" stroke="black" points="499.43,-396.38 502.42,-386.21 493.74,-392.29 499.43,-396.38"/>
</g>
<!-- n_2_4_5_6 -->
<g id="node3" class="node">
<title>n_2_4_5_6</title>
<polygon fill="none" stroke="black" points="215,-248 215,-289 280,-289 280,-248 215,-248"/>
<text text-anchor="start" x="222" y="-274.45" font-family="Times New Roman,serif" font-weight="bold" font-size="9.00">Overweight I</text>
<text text-anchor="start" x="229.5" y="-265.45" font-family="Times New Roman,serif" font-weight="bold" font-size="9.00">Obesity I</text>
<text text-anchor="start" x="228" y="-256.45" font-family="Times New Roman,serif" font-weight="bold" font-size="9.00">Obesity II</text>
<polygon fill="none" stroke="black" points="280,-248 280,-289 336,-289 336,-248 280,-248"/>
<text text-anchor="start" x="287" y="-266.57" font-family="Times New Roman,serif" font-weight="bold" font-size="9.00">Obesity III</text>
<polygon fill="none" stroke="black" points="214,-247 214,-290 337,-290 337,-247 214,-247"/>
</g>
<!-- n_1_2_3_4_5_6&#45;&gt;n_2_4_5_6 -->
<g id="edge2" class="edge">
<title>n_1_2_3_4_5_6&#45;&gt;n_2_4_5_6</title>
<path fill="none" stroke="black" d="M332.9,-337.05C323.67,-326.18 313.11,-313.76 303.58,-302.55"/>
<polygon fill="black" stroke="black" points="306.33,-300.38 297.19,-295.03 301,-304.91 306.33,-300.38"/>
</g>
<!-- n_1_3 -->
<g id="node10" class="node">
<title>n_1_3</title>
<polygon fill="none" stroke="black" points="383.5,-255.88 383.5,-281.12 427.5,-281.12 427.5,-255.88 383.5,-255.88"/>
<text text-anchor="start" x="390.5" y="-266.57" font-family="Times New Roman,serif" font-weight="bold" font-size="9.00">Normal</text>
<polygon fill="none" stroke="black" points="427.5,-255.88 427.5,-281.12 495.5,-281.12 495.5,-255.88 427.5,-255.88"/>
<text text-anchor="start" x="434.5" y="-266.57" font-family="Times New Roman,serif" font-weight="bold" font-size="9.00">Overweight II</text>
<polygon fill="none" stroke="black" points="382.5,-254.88 382.5,-282.12 496.5,-282.12 496.5,-254.88 382.5,-254.88"/>
</g>
<!-- n_1_2_3_4_5_6&#45;&gt;n_1_3 -->
<g id="edge9" class="edge">
<title>n_1_2_3_4_5_6&#45;&gt;n_1_3</title>
<path fill="none" stroke="black" d="M382.1,-337.05C393.52,-323.6 406.98,-307.77 417.99,-294.81"/>
<polygon fill="black" stroke="black" points="420.38,-297.41 424.19,-287.52 415.05,-292.87 420.38,-297.41"/>
</g>
<!-- n_2_4_5 -->
<g id="node4" class="node">
<title>n_2_4_5</title>
<polygon fill="none" stroke="black" points="99.5,-163 99.5,-195 164.5,-195 164.5,-163 99.5,-163"/>
<text text-anchor="start" x="106.5" y="-180.45" font-family="Times New Roman,serif" font-weight="bold" font-size="9.00">Overweight I</text>
<text text-anchor="start" x="114" y="-171.45" font-family="Times New Roman,serif" font-weight="bold" font-size="9.00">Obesity I</text>
<polygon fill="none" stroke="black" points="164.5,-163 164.5,-195 217.5,-195 217.5,-163 164.5,-163"/>
<text text-anchor="start" x="171.5" y="-177.07" font-family="Times New Roman,serif" font-weight="bold" font-size="9.00">Obesity II</text>
<polygon fill="none" stroke="black" points="98.5,-162 98.5,-196 218.5,-196 218.5,-162 98.5,-162"/>
</g>
<!-- n_2_4_5_6&#45;&gt;n_2_4_5 -->
<g id="edge3" class="edge">
<title>n_2_4_5_6&#45;&gt;n_2_4_5</title>
<path fill="none" stroke="black" d="M242.91,-243.13C227.65,-231.71 209.44,-218.1 193.85,-206.43"/>
<polygon fill="black" stroke="black" points="196.33,-203.92 186.22,-200.73 192.13,-209.52 196.33,-203.92"/>
</g>
<!-- n_6 -->
<g id="node9" class="node">
<title>n_6</title>
<polygon fill="none" stroke="black" points="264.5,-166.38 264.5,-191.62 320.5,-191.62 320.5,-166.38 264.5,-166.38"/>
<text text-anchor="start" x="271.5" y="-177.07" font-family="Times New Roman,serif" font-weight="bold" font-size="9.00">Obesity III</text>
<polygon fill="none" stroke="black" points="263.5,-165.38 263.5,-192.62 321.5,-192.62 321.5,-165.38 263.5,-165.38"/>
</g>
<!-- n_2_4_5_6&#45;&gt;n_6 -->
<g id="edge8" class="edge">
<title>n_2_4_5_6&#45;&gt;n_6</title>
<path fill="none" stroke="black" d="M280.24,-243.13C282.36,-232.17 284.89,-219.18 287.09,-207.84"/>
<polygon fill="black" stroke="black" points="290.48,-208.74 288.95,-198.26 283.61,-207.41 290.48,-208.74"/>
</g>
<!-- n_2_4 -->
<g id="node5" class="node">
<title>n_2_4</title>
<polygon fill="none" stroke="black" points="36,-84.38 36,-109.62 101,-109.62 101,-84.38 36,-84.38"/>
<text text-anchor="start" x="43" y="-95.08" font-family="Times New Roman,serif" font-weight="bold" font-size="9.00">Overweight I</text>
<polygon fill="none" stroke="black" points="101,-84.38 101,-109.62 151,-109.62 151,-84.38 101,-84.38"/>
<text text-anchor="start" x="108" y="-95.08" font-family="Times New Roman,serif" font-weight="bold" font-size="9.00">Obesity I</text>
<polygon fill="none" stroke="black" points="35,-83.38 35,-110.62 152,-110.62 152,-83.38 35,-83.38"/>
</g>
<!-- n_2_4_5&#45;&gt;n_2_4 -->
<g id="edge4" class="edge">
<title>n_2_4_5&#45;&gt;n_2_4</title>
<path fill="none" stroke="black" d="M142.43,-158.22C133.97,-147.81 123.5,-134.92 114.42,-123.74"/>
<polygon fill="black" stroke="black" points="117.16,-121.57 108.14,-116.02 111.73,-125.99 117.16,-121.57"/>
</g>
<!-- n_5 -->
<g id="node8" class="node">
<title>n_5</title>
<polygon fill="none" stroke="black" points="198,-84.38 198,-109.62 251,-109.62 251,-84.38 198,-84.38"/>
<text text-anchor="start" x="205" y="-95.08" font-family="Times New Roman,serif" font-weight="bold" font-size="9.00">Obesity II</text>
<polygon fill="none" stroke="black" points="197,-83.38 197,-110.62 252,-110.62 252,-83.38 197,-83.38"/>
</g>
<!-- n_2_4_5&#45;&gt;n_5 -->
<g id="edge7" class="edge">
<title>n_2_4_5&#45;&gt;n_5</title>
<path fill="none" stroke="black" d="M174.81,-158.22C183.49,-147.71 194.25,-134.66 203.54,-123.41"/>
<polygon fill="black" stroke="black" points="205.98,-125.95 209.64,-116.01 200.58,-121.5 205.98,-125.95"/>
</g>
<!-- n_2 -->
<g id="node6" class="node">
<title>n_2</title>
<polygon fill="none" stroke="black" points="9,-5.38 9,-30.62 74,-30.62 74,-5.38 9,-5.38"/>
<text text-anchor="start" x="16" y="-16.07" font-family="Times New Roman,serif" font-weight="bold" font-size="9.00">Overweight I</text>
<polygon fill="none" stroke="black" points="8,-4.38 8,-31.62 75,-31.62 75,-4.38 8,-4.38"/>
</g>
<!-- n_2_4&#45;&gt;n_2 -->
<g id="edge5" class="edge">
<title>n_2_4&#45;&gt;n_2</title>
<path fill="none" stroke="black" d="M82.22,-79.29C75.52,-69.37 66.87,-56.57 59.27,-45.32"/>
<polygon fill="black" stroke="black" points="62.28,-43.52 53.79,-37.2 56.48,-47.44 62.28,-43.52"/>
</g>
<!-- n_4 -->
<g id="node7" class="node">
<title>n_4</title>
<polygon fill="none" stroke="black" points="121.5,-5.38 121.5,-30.62 171.5,-30.62 171.5,-5.38 121.5,-5.38"/>
<text text-anchor="start" x="128.5" y="-16.07" font-family="Times New Roman,serif" font-weight="bold" font-size="9.00">Obesity I</text>
<polygon fill="none" stroke="black" points="120.5,-4.38 120.5,-31.62 172.5,-31.62 172.5,-4.38 120.5,-4.38"/>
</g>
<!-- n_2_4&#45;&gt;n_4 -->
<g id="edge6" class="edge">
<title>n_2_4&#45;&gt;n_4</title>
<path fill="none" stroke="black" d="M105,-79.29C111.83,-69.37 120.64,-56.57 128.38,-45.32"/>
<polygon fill="black" stroke="black" points="131.19,-47.41 133.98,-37.19 125.43,-43.44 131.19,-47.41"/>
</g>
<!-- n_1 -->
<g id="node11" class="node">
<title>n_1</title>
<polygon fill="none" stroke="black" points="400.5,-166.38 400.5,-191.62 444.5,-191.62 444.5,-166.38 400.5,-166.38"/>
<text text-anchor="start" x="407.5" y="-177.07" font-family="Times New Roman,serif" font-weight="bold" font-size="9.00">Normal</text>
<polygon fill="none" stroke="black" points="399.5,-165.38 399.5,-192.62 445.5,-192.62 445.5,-165.38 399.5,-165.38"/>
</g>
<!-- n_1_3&#45;&gt;n_1 -->
<g id="edge10" class="edge">
<title>n_1_3&#45;&gt;n_1</title>
<path fill="none" stroke="black" d="M436.22,-250.63C433.87,-238.52 430.65,-221.94 427.92,-207.88"/>
<polygon fill="black" stroke="black" points="431.4,-207.45 426.06,-198.3 424.53,-208.79 431.4,-207.45"/>
</g>
<!-- n_3 -->
<g id="node12" class="node">
<title>n_3</title>
<polygon fill="none" stroke="black" points="491.5,-166.38 491.5,-191.62 559.5,-191.62 559.5,-166.38 491.5,-166.38"/>
<text text-anchor="start" x="498.5" y="-177.07" font-family="Times New Roman,serif" font-weight="bold" font-size="9.00">Overweight II</text>
<polygon fill="none" stroke="black" points="490.5,-165.38 490.5,-192.62 560.5,-192.62 560.5,-165.38 490.5,-165.38"/>
</g>
<!-- n_1_3&#45;&gt;n_3 -->
<g id="edge11" class="edge">
<title>n_1_3&#45;&gt;n_3</title>
<path fill="none" stroke="black" d="M456.08,-250.63C468.81,-237.68 486.59,-219.59 500.96,-204.97"/>
<polygon fill="black" stroke="black" points="503.39,-207.48 507.91,-197.9 498.4,-202.58 503.39,-207.48"/>
</g>
</g>
</svg>
