<?xml version="1.0" encoding="UTF-8" standalone="no"?>
<!DOCTYPE svg PUBLIC "-//W3C//DTD SVG 1.1//EN"
 "http://www.w3.org/Graphics/SVG/1.1/DTD/svg11.dtd">
<!-- Generated by graphviz version 10.0.1 (20240210.2158)
 -->
<!-- Title: ND Pages: 1 -->
<svg width="679pt" height="517pt"
 viewBox="0.00 0.00 679.00 517.00" xmlns="http://www.w3.org/2000/svg" xmlns:xlink="http://www.w3.org/1999/xlink">
<g id="graph0" class="graph" transform="scale(1 1) rotate(0) translate(4 513)">
<title>ND</title>
<polygon fill="white" stroke="none" points="-4,4 -4,-513 675,-513 675,4 -4,4"/>
<!-- n_0_1_2_3_4_5_6 -->
<g id="node1" class="node">
<title>n_0_1_2_3_4_5_6</title>
<polygon fill="none" stroke="black" points="362.38,-445 362.38,-504 430.38,-504 430.38,-445 362.38,-445"/>
<text text-anchor="start" x="381.38" y="-489.45" font-family="Times New Roman,serif" font-weight="bold" font-size="9.00">Normal</text>
<text text-anchor="start" x="370.88" y="-480.45" font-family="Times New Roman,serif" font-weight="bold" font-size="9.00">Overweight I</text>
<text text-anchor="start" x="369.38" y="-471.45" font-family="Times New Roman,serif" font-weight="bold" font-size="9.00">Overweight II</text>
<text text-anchor="start" x="378.38" y="-462.45" font-family="Times New Roman,serif" font-weight="bold" font-size="9.00">Obesity I</text>
<text text-anchor="start" x="375.38" y="-453.45" font-family="Times New Roman,serif" font-weight="bold" font-size="9.00">Obesity III</text>
<polygon fill="none" stroke="black" points="430.38,-445 430.38,-504 518.62,-504 518.62,-445 430.38,-445"/>
<text text-anchor="start" x="437.38" y="-475.95" font-family="Times New Roman,serif" font-weight="bold" font-size="9.00">Insufficient weight</text>
<text text-anchor="start" x="455" y="-466.95" font-family="Times New Roman,serif" font-weight="bold" font-size="9.00">Obesity II</text>
<polygon fill="none" stroke="black" points="361.38,-444 361.38,-505 519.62,-505 519.62,-444 361.38,-444"/>
</g>
<!-- n_1_2_3_4_6 -->
<g id="node2" class="node">
<title>n_1_2_3_4_6</title>
<polygon fill="none" stroke="black" points="282,-342 282,-392 347,-392 347,-342 282,-342"/>
<text text-anchor="start" x="299.5" y="-377.45" font-family="Times New Roman,serif" font-weight="bold" font-size="9.00">Normal</text>
<text text-anchor="start" x="289" y="-368.45" font-family="Times New Roman,serif" font-weight="bold" font-size="9.00">Overweight I</text>
<text text-anchor="start" x="296.5" y="-359.45" font-family="Times New Roman,serif" font-weight="bold" font-size="9.00">Obesity I</text>
<text text-anchor="start" x="293.5" y="-350.45" font-family="Times New Roman,serif" font-weight="bold" font-size="9.00">Obesity III</text>
<polygon fill="none" stroke="black" points="347,-342 347,-392 415,-392 415,-342 347,-342"/>
<text text-anchor="start" x="354" y="-365.07" font-family="Times New Roman,serif" font-weight="bold" font-size="9.00">Overweight II</text>
<polygon fill="none" stroke="black" points="281,-341 281,-393 416,-393 416,-341 281,-341"/>
</g>
<!-- n_0_1_2_3_4_5_6&#45;&gt;n_1_2_3_4_6 -->
<g id="edge1" class="edge">
<title>n_0_1_2_3_4_5_6&#45;&gt;n_1_2_3_4_6</title>
<path fill="none" stroke="black" d="M411.39,-440.12C401.74,-429.05 390.94,-416.67 381.05,-405.33"/>
<polygon fill="black" stroke="black" points="383.91,-403.28 374.69,-398.04 378.63,-407.88 383.91,-403.28"/>
</g>
<!-- n_0_5 -->
<g id="node11" class="node">
<title>n_0_5</title>
<polygon fill="none" stroke="black" points="461.88,-354.38 461.88,-379.62 550.12,-379.62 550.12,-354.38 461.88,-354.38"/>
<text text-anchor="start" x="468.88" y="-365.07" font-family="Times New Roman,serif" font-weight="bold" font-size="9.00">Insufficient weight</text>
<polygon fill="none" stroke="black" points="550.12,-354.38 550.12,-379.62 603.12,-379.62 603.12,-354.38 550.12,-354.38"/>
<text text-anchor="start" x="557.12" y="-365.07" font-family="Times New Roman,serif" font-weight="bold" font-size="9.00">Obesity II</text>
<polygon fill="none" stroke="black" points="460.88,-353.38 460.88,-380.62 604.12,-380.62 604.12,-353.38 460.88,-353.38"/>
</g>
<!-- n_0_1_2_3_4_5_6&#45;&gt;n_0_5 -->
<g id="edge10" class="edge">
<title>n_0_1_2_3_4_5_6&#45;&gt;n_0_5</title>
<path fill="none" stroke="black" d="M469.61,-440.12C482.74,-425.06 498,-407.57 510.2,-393.58"/>
<polygon fill="black" stroke="black" points="512.79,-395.93 516.72,-386.09 507.51,-391.33 512.79,-395.93"/>
</g>
<!-- n_1_2_4_6 -->
<g id="node3" class="node">
<title>n_1_2_4_6</title>
<polygon fill="none" stroke="black" points="161,-248 161,-289 226,-289 226,-248 161,-248"/>
<text text-anchor="start" x="178.5" y="-274.45" font-family="Times New Roman,serif" font-weight="bold" font-size="9.00">Normal</text>
<text text-anchor="start" x="168" y="-265.45" font-family="Times New Roman,serif" font-weight="bold" font-size="9.00">Overweight I</text>
<text text-anchor="start" x="175.5" y="-256.45" font-family="Times New Roman,serif" font-weight="bold" font-size="9.00">Obesity I</text>
<polygon fill="none" stroke="black" points="226,-248 226,-289 282,-289 282,-248 226,-248"/>
<text text-anchor="start" x="233" y="-266.57" font-family="Times New Roman,serif" font-weight="bold" font-size="9.00">Obesity III</text>
<polygon fill="none" stroke="black" points="160,-247 160,-290 283,-290 283,-247 160,-247"/>
</g>
<!-- n_1_2_3_4_6&#45;&gt;n_1_2_4_6 -->
<g id="edge2" class="edge">
<title>n_1_2_3_4_6&#45;&gt;n_1_2_4_6</title>
<path fill="none" stroke="black" d="M310.4,-337.05C295.25,-325.54 277.79,-312.27 262.38,-300.56"/>
<polygon fill="black" stroke="black" points="264.86,-298.05 254.78,-294.79 260.63,-303.63 264.86,-298.05"/>
</g>
<!-- n_3 -->
<g id="node10" class="node">
<title>n_3</title>
<polygon fill="none" stroke="black" points="329.5,-255.88 329.5,-281.12 397.5,-281.12 397.5,-255.88 329.5,-255.88"/>
<text text-anchor="start" x="336.5" y="-266.57" font-family="Times New Roman,serif" font-weight="bold" font-size="9.00">Overweight II</text>
<polygon fill="none" stroke="black" points="328.5,-254.88 328.5,-282.12 398.5,-282.12 398.5,-254.88 328.5,-254.88"/>
</g>
<!-- n_1_2_3_4_6&#45;&gt;n_3 -->
<g id="edge9" class="edge">
<title>n_1_2_3_4_6&#45;&gt;n_3</title>
<path fill="none" stroke="black" d="M353,-337.05C354.95,-324.51 357.22,-309.89 359.15,-297.47"/>
<polygon fill="black" stroke="black" points="362.57,-298.28 360.65,-287.86 355.65,-297.21 362.57,-298.28"/>
</g>
<!-- n_1_2_4 -->
<g id="node4" class="node">
<title>n_1_2_4</title>
<polygon fill="none" stroke="black" points="102,-163 102,-195 167,-195 167,-163 102,-163"/>
<text text-anchor="start" x="109" y="-180.45" font-family="Times New Roman,serif" font-weight="bold" font-size="9.00">Overweight I</text>
<text text-anchor="start" x="116.5" y="-171.45" font-family="Times New Roman,serif" font-weight="bold" font-size="9.00">Obesity I</text>
<polygon fill="none" stroke="black" points="167,-163 167,-195 211,-195 211,-163 167,-163"/>
<text text-anchor="start" x="174" y="-177.07" font-family="Times New Roman,serif" font-weight="bold" font-size="9.00">Normal</text>
<polygon fill="none" stroke="black" points="101,-162 101,-196 212,-196 212,-162 101,-162"/>
</g>
<!-- n_1_2_4_6&#45;&gt;n_1_2_4 -->
<g id="edge3" class="edge">
<title>n_1_2_4_6&#45;&gt;n_1_2_4</title>
<path fill="none" stroke="black" d="M203.39,-243.13C195.47,-232.46 186.12,-219.87 177.85,-208.75"/>
<polygon fill="black" stroke="black" points="180.9,-206.98 172.13,-201.04 175.28,-211.16 180.9,-206.98"/>
</g>
<!-- n_6 -->
<g id="node9" class="node">
<title>n_6</title>
<polygon fill="none" stroke="black" points="258.5,-166.38 258.5,-191.62 314.5,-191.62 314.5,-166.38 258.5,-166.38"/>
<text text-anchor="start" x="265.5" y="-177.07" font-family="Times New Roman,serif" font-weight="bold" font-size="9.00">Obesity III</text>
<polygon fill="none" stroke="black" points="257.5,-165.38 257.5,-192.62 315.5,-192.62 315.5,-165.38 257.5,-165.38"/>
</g>
<!-- n_1_2_4_6&#45;&gt;n_6 -->
<g id="edge8" class="edge">
<title>n_1_2_4_6&#45;&gt;n_6</title>
<path fill="none" stroke="black" d="M239.61,-243.13C248.26,-231.48 258.62,-217.53 267.4,-205.71"/>
<polygon fill="black" stroke="black" points="269.99,-208.1 273.14,-197.99 264.37,-203.93 269.99,-208.1"/>
</g>
<!-- n_2_4 -->
<g id="node5" class="node">
<title>n_2_4</title>
<polygon fill="none" stroke="black" points="36,-84.38 36,-109.62 101,-109.62 101,-84.38 36,-84.38"/>
<text text-anchor="start" x="43" y="-95.08" font-family="Times New Roman,serif" font-weight="bold" font-size="9.00">Overweight I</text>
<polygon fill="none" stroke="black" points="101,-84.38 101,-109.62 151,-109.62 151,-84.38 101,-84.38"/>
<text text-anchor="start" x="108" y="-95.08" font-family="Times New Roman,serif" font-weight="bold" font-size="9.00">Obesity I</text>
<polygon fill="none" stroke="black" points="35,-83.38 35,-110.62 152,-110.62 152,-83.38 35,-83.38"/>
</g>
<!-- n_1_2_4&#45;&gt;n_2_4 -->
<g id="edge4" class="edge">
<title>n_1_2_4&#45;&gt;n_2_4</title>
<path fill="none" stroke="black" d="M140.93,-158.22C132.73,-147.81 122.58,-134.92 113.77,-123.74"/>
<polygon fill="black" stroke="black" points="116.64,-121.72 107.7,-116.03 111.14,-126.05 116.64,-121.72"/>
</g>
<!-- n_1 -->
<g id="node8" class="node">
<title>n_1</title>
<polygon fill="none" stroke="black" points="198.5,-84.38 198.5,-109.62 242.5,-109.62 242.5,-84.38 198.5,-84.38"/>
<text text-anchor="start" x="205.5" y="-95.08" font-family="Times New Roman,serif" font-weight="bold" font-size="9.00">Normal</text>
<polygon fill="none" stroke="black" points="197.5,-83.38 197.5,-110.62 243.5,-110.62 243.5,-83.38 197.5,-83.38"/>
</g>
<!-- n_1_2_4&#45;&gt;n_1 -->
<g id="edge7" class="edge">
<title>n_1_2_4&#45;&gt;n_1</title>
<path fill="none" stroke="black" d="M172.32,-158.22C180.65,-147.81 190.96,-134.92 199.91,-123.74"/>
<polygon fill="black" stroke="black" points="202.57,-126.02 206.08,-116.03 197.1,-121.65 202.57,-126.02"/>
</g>
<!-- n_2 -->
<g id="node6" class="node">
<title>n_2</title>
<polygon fill="none" stroke="black" points="9,-5.38 9,-30.62 74,-30.62 74,-5.38 9,-5.38"/>
<text text-anchor="start" x="16" y="-16.07" font-family="Times New Roman,serif" font-weight="bold" font-size="9.00">Overweight I</text>
<polygon fill="none" stroke="black" points="8,-4.38 8,-31.62 75,-31.62 75,-4.38 8,-4.38"/>
</g>
<!-- n_2_4&#45;&gt;n_2 -->
<g id="edge5" class="edge">
<title>n_2_4&#45;&gt;n_2</title>
<path fill="none" stroke="black" d="M82.22,-79.29C75.52,-69.37 66.87,-56.57 59.27,-45.32"/>
<polygon fill="black" stroke="black" points="62.28,-43.52 53.79,-37.2 56.48,-47.44 62.28,-43.52"/>
</g>
<!-- n_4 -->
<g id="node7" class="node">
<title>n_4</title>
<polygon fill="none" stroke="black" points="121.5,-5.38 121.5,-30.62 171.5,-30.62 171.5,-5.38 121.5,-5.38"/>
<text text-anchor="start" x="128.5" y="-16.07" font-family="Times New Roman,serif" font-weight="bold" font-size="9.00">Obesity I</text>
<polygon fill="none" stroke="black" points="120.5,-4.38 120.5,-31.62 172.5,-31.62 172.5,-4.38 120.5,-4.38"/>
</g>
<!-- n_2_4&#45;&gt;n_4 -->
<g id="edge6" class="edge">
<title>n_2_4&#45;&gt;n_4</title>
<path fill="none" stroke="black" d="M105,-79.29C111.83,-69.37 120.64,-56.57 128.38,-45.32"/>
<polygon fill="black" stroke="black" points="131.19,-47.41 133.98,-37.19 125.43,-43.44 131.19,-47.41"/>
</g>
<!-- n_0 -->
<g id="node12" class="node">
<title>n_0</title>
<polygon fill="none" stroke="black" points="473.38,-255.88 473.38,-281.12 561.62,-281.12 561.62,-255.88 473.38,-255.88"/>
<text text-anchor="start" x="480.38" y="-266.57" font-family="Times New Roman,serif" font-weight="bold" font-size="9.00">Insufficient weight</text>
<polygon fill="none" stroke="black" points="472.38,-254.88 472.38,-282.12 562.62,-282.12 562.62,-254.88 472.38,-254.88"/>
</g>
<!-- n_0_5&#45;&gt;n_0 -->
<g id="edge11" class="edge">
<title>n_0_5&#45;&gt;n_0</title>
<path fill="none" stroke="black" d="M529.89,-349.19C527.69,-335.03 524.49,-314.46 521.89,-297.76"/>
<polygon fill="black" stroke="black" points="525.36,-297.28 520.37,-287.94 518.44,-298.35 525.36,-297.28"/>
</g>
<!-- n_5 -->
<g id="node13" class="node">
<title>n_5</title>
<polygon fill="none" stroke="black" points="609,-255.88 609,-281.12 662,-281.12 662,-255.88 609,-255.88"/>
<text text-anchor="start" x="616" y="-266.57" font-family="Times New Roman,serif" font-weight="bold" font-size="9.00">Obesity II</text>
<polygon fill="none" stroke="black" points="608,-254.88 608,-282.12 663,-282.12 663,-254.88 608,-254.88"/>
</g>
<!-- n_0_5&#45;&gt;n_5 -->
<g id="edge12" class="edge">
<title>n_0_5&#45;&gt;n_5</title>
<path fill="none" stroke="black" d="M550.44,-349.19C566.74,-333.93 590.97,-311.22 609.4,-293.95"/>
<polygon fill="black" stroke="black" points="611.41,-296.87 616.31,-287.47 606.62,-291.76 611.41,-296.87"/>
</g>
</g>
</svg>
