<?xml version="1.0" encoding="UTF-8" standalone="no"?>
<!DOCTYPE svg PUBLIC "-//W3C//DTD SVG 1.1//EN"
 "http://www.w3.org/Graphics/SVG/1.1/DTD/svg11.dtd">
<!-- Generated by graphviz version 10.0.1 (20240210.2158)
 -->
<!-- Title: ND Pages: 1 -->
<svg width="664pt" height="517pt"
 viewBox="0.00 0.00 664.00 517.00" xmlns="http://www.w3.org/2000/svg" xmlns:xlink="http://www.w3.org/1999/xlink">
<g id="graph0" class="graph" transform="scale(1 1) rotate(0) translate(4 513)">
<title>ND</title>
<polygon fill="white" stroke="none" points="-4,4 -4,-513 660,-513 660,4 -4,4"/>
<!-- n_0_1_2_3_4_5_6 -->
<g id="node1" class="node">
<title>n_0_1_2_3_4_5_6</title>
<polygon fill="none" stroke="black" points="363.38,-445 363.38,-504 451.62,-504 451.62,-445 363.38,-445"/>
<text text-anchor="start" x="370.38" y="-489.45" font-family="Times New Roman,serif" font-weight="bold" font-size="9.00">Insufficient weight</text>
<text text-anchor="start" x="392.5" y="-480.45" font-family="Times New Roman,serif" font-weight="bold" font-size="9.00">Normal</text>
<text text-anchor="start" x="380.5" y="-471.45" font-family="Times New Roman,serif" font-weight="bold" font-size="9.00">Overweight II</text>
<text text-anchor="start" x="388" y="-462.45" font-family="Times New Roman,serif" font-weight="bold" font-size="9.00">Obesity II</text>
<text text-anchor="start" x="386.5" y="-453.45" font-family="Times New Roman,serif" font-weight="bold" font-size="9.00">Obesity III</text>
<polygon fill="none" stroke="black" points="451.62,-445 451.62,-504 516.62,-504 516.62,-445 451.62,-445"/>
<text text-anchor="start" x="458.62" y="-475.95" font-family="Times New Roman,serif" font-weight="bold" font-size="9.00">Overweight I</text>
<text text-anchor="start" x="466.12" y="-466.95" font-family="Times New Roman,serif" font-weight="bold" font-size="9.00">Obesity I</text>
<polygon fill="none" stroke="black" points="362.38,-444 362.38,-505 517.62,-505 517.62,-444 362.38,-444"/>
</g>
<!-- n_0_1_3_5_6 -->
<g id="node2" class="node">
<title>n_0_1_3_5_6</title>
<polygon fill="none" stroke="black" points="270.88,-342 270.88,-392 338.88,-392 338.88,-342 270.88,-342"/>
<text text-anchor="start" x="289.88" y="-377.45" font-family="Times New Roman,serif" font-weight="bold" font-size="9.00">Normal</text>
<text text-anchor="start" x="277.88" y="-368.45" font-family="Times New Roman,serif" font-weight="bold" font-size="9.00">Overweight II</text>
<text text-anchor="start" x="285.38" y="-359.45" font-family="Times New Roman,serif" font-weight="bold" font-size="9.00">Obesity II</text>
<text text-anchor="start" x="283.88" y="-350.45" font-family="Times New Roman,serif" font-weight="bold" font-size="9.00">Obesity III</text>
<polygon fill="none" stroke="black" points="338.88,-342 338.88,-392 427.12,-392 427.12,-342 338.88,-342"/>
<text text-anchor="start" x="345.88" y="-365.07" font-family="Times New Roman,serif" font-weight="bold" font-size="9.00">Insufficient weight</text>
<polygon fill="none" stroke="black" points="269.88,-341 269.88,-393 428.12,-393 428.12,-341 269.88,-341"/>
</g>
<!-- n_0_1_2_3_4_5_6&#45;&gt;n_0_1_3_5_6 -->
<g id="edge1" class="edge">
<title>n_0_1_2_3_4_5_6&#45;&gt;n_0_1_3_5_6</title>
<path fill="none" stroke="black" d="M411.21,-440.12C401.66,-429.05 390.98,-416.67 381.2,-405.33"/>
<polygon fill="black" stroke="black" points="384.1,-403.33 374.91,-398.04 378.8,-407.9 384.1,-403.33"/>
</g>
<!-- n_2_4 -->
<g id="node11" class="node">
<title>n_2_4</title>
<polygon fill="none" stroke="black" points="474.5,-354.38 474.5,-379.62 539.5,-379.62 539.5,-354.38 474.5,-354.38"/>
<text text-anchor="start" x="481.5" y="-365.07" font-family="Times New Roman,serif" font-weight="bold" font-size="9.00">Overweight I</text>
<polygon fill="none" stroke="black" points="539.5,-354.38 539.5,-379.62 589.5,-379.62 589.5,-354.38 539.5,-354.38"/>
<text text-anchor="start" x="546.5" y="-365.07" font-family="Times New Roman,serif" font-weight="bold" font-size="9.00">Obesity I</text>
<polygon fill="none" stroke="black" points="473.5,-353.38 473.5,-380.62 590.5,-380.62 590.5,-353.38 473.5,-353.38"/>
</g>
<!-- n_0_1_2_3_4_5_6&#45;&gt;n_2_4 -->
<g id="edge10" class="edge">
<title>n_0_1_2_3_4_5_6&#45;&gt;n_2_4</title>
<path fill="none" stroke="black" d="M469.11,-440.12C482.24,-425.06 497.5,-407.57 509.7,-393.58"/>
<polygon fill="black" stroke="black" points="512.29,-395.93 516.22,-386.09 507.01,-391.33 512.29,-395.93"/>
</g>
<!-- n_1_3_5_6 -->
<g id="node3" class="node">
<title>n_1_3_5_6</title>
<polygon fill="none" stroke="black" points="151.5,-248 151.5,-289 219.5,-289 219.5,-248 151.5,-248"/>
<text text-anchor="start" x="170.5" y="-274.45" font-family="Times New Roman,serif" font-weight="bold" font-size="9.00">Normal</text>
<text text-anchor="start" x="158.5" y="-265.45" font-family="Times New Roman,serif" font-weight="bold" font-size="9.00">Overweight II</text>
<text text-anchor="start" x="164.5" y="-256.45" font-family="Times New Roman,serif" font-weight="bold" font-size="9.00">Obesity III</text>
<polygon fill="none" stroke="black" points="219.5,-248 219.5,-289 272.5,-289 272.5,-248 219.5,-248"/>
<text text-anchor="start" x="226.5" y="-266.57" font-family="Times New Roman,serif" font-weight="bold" font-size="9.00">Obesity II</text>
<polygon fill="none" stroke="black" points="150.5,-247 150.5,-290 273.5,-290 273.5,-247 150.5,-247"/>
</g>
<!-- n_0_1_3_5_6&#45;&gt;n_1_3_5_6 -->
<g id="edge2" class="edge">
<title>n_0_1_3_5_6&#45;&gt;n_1_3_5_6</title>
<path fill="none" stroke="black" d="M307.9,-337.05C291.4,-325.43 272.37,-312.03 255.64,-300.24"/>
<polygon fill="black" stroke="black" points="258.03,-297.64 247.84,-294.75 254,-303.37 258.03,-297.64"/>
</g>
<!-- n_0 -->
<g id="node10" class="node">
<title>n_0</title>
<polygon fill="none" stroke="black" points="319.88,-255.88 319.88,-281.12 408.12,-281.12 408.12,-255.88 319.88,-255.88"/>
<text text-anchor="start" x="326.88" y="-266.57" font-family="Times New Roman,serif" font-weight="bold" font-size="9.00">Insufficient weight</text>
<polygon fill="none" stroke="black" points="318.88,-254.88 318.88,-282.12 409.12,-282.12 409.12,-254.88 318.88,-254.88"/>
</g>
<!-- n_0_1_3_5_6&#45;&gt;n_0 -->
<g id="edge9" class="edge">
<title>n_0_1_3_5_6&#45;&gt;n_0</title>
<path fill="none" stroke="black" d="M353.5,-337.05C355.45,-324.51 357.72,-309.89 359.65,-297.47"/>
<polygon fill="black" stroke="black" points="363.07,-298.28 361.15,-287.86 356.15,-297.21 363.07,-298.28"/>
</g>
<!-- n_1_3_6 -->
<g id="node4" class="node">
<title>n_1_3_6</title>
<polygon fill="none" stroke="black" points="82,-163 82,-195 138,-195 138,-163 82,-163"/>
<text text-anchor="start" x="95" y="-180.45" font-family="Times New Roman,serif" font-weight="bold" font-size="9.00">Normal</text>
<text text-anchor="start" x="89" y="-171.45" font-family="Times New Roman,serif" font-weight="bold" font-size="9.00">Obesity III</text>
<polygon fill="none" stroke="black" points="138,-163 138,-195 206,-195 206,-163 138,-163"/>
<text text-anchor="start" x="145" y="-177.07" font-family="Times New Roman,serif" font-weight="bold" font-size="9.00">Overweight II</text>
<polygon fill="none" stroke="black" points="81,-162 81,-196 207,-196 207,-162 81,-162"/>
</g>
<!-- n_1_3_5_6&#45;&gt;n_1_3_6 -->
<g id="edge3" class="edge">
<title>n_1_3_5_6&#45;&gt;n_1_3_6</title>
<path fill="none" stroke="black" d="M193.06,-243.13C184.77,-232.46 174.98,-219.87 166.34,-208.75"/>
<polygon fill="black" stroke="black" points="169.24,-206.77 160.34,-201.02 163.71,-211.06 169.24,-206.77"/>
</g>
<!-- n_5 -->
<g id="node9" class="node">
<title>n_5</title>
<polygon fill="none" stroke="black" points="253.5,-166.38 253.5,-191.62 306.5,-191.62 306.5,-166.38 253.5,-166.38"/>
<text text-anchor="start" x="260.5" y="-177.07" font-family="Times New Roman,serif" font-weight="bold" font-size="9.00">Obesity II</text>
<polygon fill="none" stroke="black" points="252.5,-165.38 252.5,-192.62 307.5,-192.62 307.5,-165.38 252.5,-165.38"/>
</g>
<!-- n_1_3_5_6&#45;&gt;n_5 -->
<g id="edge8" class="edge">
<title>n_1_3_5_6&#45;&gt;n_5</title>
<path fill="none" stroke="black" d="M230.94,-243.13C240,-231.48 250.84,-217.53 260.02,-205.71"/>
<polygon fill="black" stroke="black" points="262.67,-208.01 266.04,-197.97 257.14,-203.71 262.67,-208.01"/>
</g>
<!-- n_1_6 -->
<g id="node5" class="node">
<title>n_1_6</title>
<polygon fill="none" stroke="black" points="29,-84.38 29,-109.62 73,-109.62 73,-84.38 29,-84.38"/>
<text text-anchor="start" x="36" y="-95.08" font-family="Times New Roman,serif" font-weight="bold" font-size="9.00">Normal</text>
<polygon fill="none" stroke="black" points="73,-84.38 73,-109.62 129,-109.62 129,-84.38 73,-84.38"/>
<text text-anchor="start" x="80" y="-95.08" font-family="Times New Roman,serif" font-weight="bold" font-size="9.00">Obesity III</text>
<polygon fill="none" stroke="black" points="28,-83.38 28,-110.62 130,-110.62 130,-83.38 28,-83.38"/>
</g>
<!-- n_1_3_6&#45;&gt;n_1_6 -->
<g id="edge4" class="edge">
<title>n_1_3_6&#45;&gt;n_1_6</title>
<path fill="none" stroke="black" d="M127.93,-158.22C119.47,-147.81 109,-134.92 99.92,-123.74"/>
<polygon fill="black" stroke="black" points="102.66,-121.57 93.64,-116.02 97.23,-125.99 102.66,-121.57"/>
</g>
<!-- n_3 -->
<g id="node8" class="node">
<title>n_3</title>
<polygon fill="none" stroke="black" points="176,-84.38 176,-109.62 244,-109.62 244,-84.38 176,-84.38"/>
<text text-anchor="start" x="183" y="-95.08" font-family="Times New Roman,serif" font-weight="bold" font-size="9.00">Overweight II</text>
<polygon fill="none" stroke="black" points="175,-83.38 175,-110.62 245,-110.62 245,-83.38 175,-83.38"/>
</g>
<!-- n_1_3_6&#45;&gt;n_3 -->
<g id="edge7" class="edge">
<title>n_1_3_6&#45;&gt;n_3</title>
<path fill="none" stroke="black" d="M160.31,-158.22C168.99,-147.71 179.75,-134.66 189.04,-123.41"/>
<polygon fill="black" stroke="black" points="191.48,-125.95 195.14,-116.01 186.08,-121.5 191.48,-125.95"/>
</g>
<!-- n_1 -->
<g id="node6" class="node">
<title>n_1</title>
<polygon fill="none" stroke="black" points="9,-5.38 9,-30.62 53,-30.62 53,-5.38 9,-5.38"/>
<text text-anchor="start" x="16" y="-16.07" font-family="Times New Roman,serif" font-weight="bold" font-size="9.00">Normal</text>
<polygon fill="none" stroke="black" points="8,-4.38 8,-31.62 54,-31.62 54,-4.38 8,-4.38"/>
</g>
<!-- n_1_6&#45;&gt;n_1 -->
<g id="edge5" class="edge">
<title>n_1_6&#45;&gt;n_1</title>
<path fill="none" stroke="black" d="M68.58,-79.29C62.46,-69.47 54.58,-56.83 47.62,-45.66"/>
<polygon fill="black" stroke="black" points="50.62,-43.86 42.36,-37.23 44.68,-47.56 50.62,-43.86"/>
</g>
<!-- n_6 -->
<g id="node7" class="node">
<title>n_6</title>
<polygon fill="none" stroke="black" points="100,-5.38 100,-30.62 156,-30.62 156,-5.38 100,-5.38"/>
<text text-anchor="start" x="107" y="-16.07" font-family="Times New Roman,serif" font-weight="bold" font-size="9.00">Obesity III</text>
<polygon fill="none" stroke="black" points="99,-4.38 99,-31.62 157,-31.62 157,-4.38 99,-4.38"/>
</g>
<!-- n_1_6&#45;&gt;n_6 -->
<g id="edge6" class="edge">
<title>n_1_6&#45;&gt;n_6</title>
<path fill="none" stroke="black" d="M89.63,-79.29C95.95,-69.37 104.09,-56.57 111.25,-45.32"/>
<polygon fill="black" stroke="black" points="113.99,-47.53 116.41,-37.22 108.09,-43.78 113.99,-47.53"/>
</g>
<!-- n_2 -->
<g id="node12" class="node">
<title>n_2</title>
<polygon fill="none" stroke="black" points="484.5,-255.88 484.5,-281.12 549.5,-281.12 549.5,-255.88 484.5,-255.88"/>
<text text-anchor="start" x="491.5" y="-266.57" font-family="Times New Roman,serif" font-weight="bold" font-size="9.00">Overweight I</text>
<polygon fill="none" stroke="black" points="483.5,-254.88 483.5,-282.12 550.5,-282.12 550.5,-254.88 483.5,-254.88"/>
</g>
<!-- n_2_4&#45;&gt;n_2 -->
<g id="edge11" class="edge">
<title>n_2_4&#45;&gt;n_2</title>
<path fill="none" stroke="black" d="M529.39,-349.19C527.19,-335.03 523.99,-314.46 521.39,-297.76"/>
<polygon fill="black" stroke="black" points="524.86,-297.28 519.87,-287.94 517.94,-298.35 524.86,-297.28"/>
</g>
<!-- n_4 -->
<g id="node13" class="node">
<title>n_4</title>
<polygon fill="none" stroke="black" points="597,-255.88 597,-281.12 647,-281.12 647,-255.88 597,-255.88"/>
<text text-anchor="start" x="604" y="-266.57" font-family="Times New Roman,serif" font-weight="bold" font-size="9.00">Obesity I</text>
<polygon fill="none" stroke="black" points="596,-254.88 596,-282.12 648,-282.12 648,-254.88 596,-254.88"/>
</g>
<!-- n_2_4&#45;&gt;n_4 -->
<g id="edge12" class="edge">
<title>n_2_4&#45;&gt;n_4</title>
<path fill="none" stroke="black" d="M547.68,-349.19C561.79,-334.06 582.71,-311.63 598.76,-294.42"/>
<polygon fill="black" stroke="black" points="600.91,-297.25 605.17,-287.55 595.79,-292.47 600.91,-297.25"/>
</g>
</g>
</svg>
