<?xml version="1.0" encoding="UTF-8" standalone="no"?>
<!DOCTYPE svg PUBLIC "-//W3C//DTD SVG 1.1//EN"
 "http://www.w3.org/Graphics/SVG/1.1/DTD/svg11.dtd">
<!-- Generated by graphviz version 10.0.1 (20240210.2158)
 -->
<!-- Title: ND Pages: 1 -->
<svg width="587pt" height="526pt"
 viewBox="0.00 0.00 587.00 526.00" xmlns="http://www.w3.org/2000/svg" xmlns:xlink="http://www.w3.org/1999/xlink">
<g id="graph0" class="graph" transform="scale(1 1) rotate(0) translate(4 522)">
<title>ND</title>
<polygon fill="white" stroke="none" points="-4,4 -4,-522 583,-522 583,4 -4,4"/>
<!-- n_0_1_2_3_4_5_6 -->
<g id="node1" class="node">
<title>n_0_1_2_3_4_5_6</title>
<polygon fill="none" stroke="black" points="349.88,-445 349.88,-513 438.12,-513 438.12,-445 349.88,-445"/>
<text text-anchor="start" x="356.88" y="-498.45" font-family="Times New Roman,serif" font-weight="bold" font-size="9.00">Insufficient weight</text>
<text text-anchor="start" x="379" y="-489.45" font-family="Times New Roman,serif" font-weight="bold" font-size="9.00">Normal</text>
<text text-anchor="start" x="368.5" y="-480.45" font-family="Times New Roman,serif" font-weight="bold" font-size="9.00">Overweight I</text>
<text text-anchor="start" x="376" y="-471.45" font-family="Times New Roman,serif" font-weight="bold" font-size="9.00">Obesity I</text>
<text text-anchor="start" x="374.5" y="-462.45" font-family="Times New Roman,serif" font-weight="bold" font-size="9.00">Obesity II</text>
<text text-anchor="start" x="373" y="-453.45" font-family="Times New Roman,serif" font-weight="bold" font-size="9.00">Obesity III</text>
<polygon fill="none" stroke="black" points="438.12,-445 438.12,-513 506.12,-513 506.12,-445 438.12,-445"/>
<text text-anchor="start" x="445.12" y="-477.07" font-family="Times New Roman,serif" font-weight="bold" font-size="9.00">Overweight II</text>
<polygon fill="none" stroke="black" points="348.88,-444 348.88,-514 507.12,-514 507.12,-444 348.88,-444"/>
</g>
<!-- n_0_1_2_4_5_6 -->
<g id="node2" class="node">
<title>n_0_1_2_4_5_6</title>
<polygon fill="none" stroke="black" points="272.38,-342 272.38,-392 337.38,-392 337.38,-342 272.38,-342"/>
<text text-anchor="start" x="289.88" y="-377.45" font-family="Times New Roman,serif" font-weight="bold" font-size="9.00">Normal</text>
<text text-anchor="start" x="279.38" y="-368.45" font-family="Times New Roman,serif" font-weight="bold" font-size="9.00">Overweight I</text>
<text text-anchor="start" x="286.88" y="-359.45" font-family="Times New Roman,serif" font-weight="bold" font-size="9.00">Obesity I</text>
<text text-anchor="start" x="285.38" y="-350.45" font-family="Times New Roman,serif" font-weight="bold" font-size="9.00">Obesity II</text>
<polygon fill="none" stroke="black" points="337.38,-342 337.38,-392 425.62,-392 425.62,-342 337.38,-342"/>
<text text-anchor="start" x="344.38" y="-368.45" font-family="Times New Roman,serif" font-weight="bold" font-size="9.00">Insufficient weight</text>
<text text-anchor="start" x="360.5" y="-359.45" font-family="Times New Roman,serif" font-weight="bold" font-size="9.00">Obesity III</text>
<polygon fill="none" stroke="black" points="271.38,-341 271.38,-393 426.62,-393 426.62,-341 271.38,-341"/>
</g>
<!-- n_0_1_2_3_4_5_6&#45;&gt;n_0_1_2_4_5_6 -->
<g id="edge1" class="edge">
<title>n_0_1_2_3_4_5_6&#45;&gt;n_0_1_2_4_5_6</title>
<path fill="none" stroke="black" d="M400.81,-440.14C392.94,-429.19 384.35,-417.22 376.46,-406.23"/>
<polygon fill="black" stroke="black" points="379.31,-404.2 370.63,-398.12 373.62,-408.28 379.31,-404.2"/>
</g>
<!-- n_3 -->
<g id="node13" class="node">
<title>n_3</title>
<polygon fill="none" stroke="black" points="473,-354.38 473,-379.62 541,-379.62 541,-354.38 473,-354.38"/>
<text text-anchor="start" x="480" y="-365.07" font-family="Times New Roman,serif" font-weight="bold" font-size="9.00">Overweight II</text>
<polygon fill="none" stroke="black" points="472,-353.38 472,-380.62 542,-380.62 542,-353.38 472,-353.38"/>
</g>
<!-- n_0_1_2_3_4_5_6&#45;&gt;n_3 -->
<g id="edge12" class="edge">
<title>n_0_1_2_3_4_5_6&#45;&gt;n_3</title>
<path fill="none" stroke="black" d="M455.19,-440.14C466.03,-425.04 478.26,-408.02 488.11,-394.31"/>
<polygon fill="black" stroke="black" points="490.93,-396.38 493.92,-386.21 485.24,-392.29 490.93,-396.38"/>
</g>
<!-- n_1_2_4_5 -->
<g id="node3" class="node">
<title>n_1_2_4_5</title>
<polygon fill="none" stroke="black" points="203.5,-248 203.5,-289 268.5,-289 268.5,-248 203.5,-248"/>
<text text-anchor="start" x="221" y="-274.45" font-family="Times New Roman,serif" font-weight="bold" font-size="9.00">Normal</text>
<text text-anchor="start" x="210.5" y="-265.45" font-family="Times New Roman,serif" font-weight="bold" font-size="9.00">Overweight I</text>
<text text-anchor="start" x="216.5" y="-256.45" font-family="Times New Roman,serif" font-weight="bold" font-size="9.00">Obesity II</text>
<polygon fill="none" stroke="black" points="268.5,-248 268.5,-289 318.5,-289 318.5,-248 268.5,-248"/>
<text text-anchor="start" x="275.5" y="-266.57" font-family="Times New Roman,serif" font-weight="bold" font-size="9.00">Obesity I</text>
<polygon fill="none" stroke="black" points="202.5,-247 202.5,-290 319.5,-290 319.5,-247 202.5,-247"/>
</g>
<!-- n_0_1_2_4_5_6&#45;&gt;n_1_2_4_5 -->
<g id="edge2" class="edge">
<title>n_0_1_2_4_5_6&#45;&gt;n_1_2_4_5</title>
<path fill="none" stroke="black" d="M322.6,-337.05C312.59,-326.08 301.13,-313.51 290.83,-302.22"/>
<polygon fill="black" stroke="black" points="293.57,-300.02 284.25,-294.99 288.4,-304.74 293.57,-300.02"/>
</g>
<!-- n_0_6 -->
<g id="node10" class="node">
<title>n_0_6</title>
<polygon fill="none" stroke="black" points="365.88,-255.88 365.88,-281.12 454.12,-281.12 454.12,-255.88 365.88,-255.88"/>
<text text-anchor="start" x="372.88" y="-266.57" font-family="Times New Roman,serif" font-weight="bold" font-size="9.00">Insufficient weight</text>
<polygon fill="none" stroke="black" points="454.12,-255.88 454.12,-281.12 510.12,-281.12 510.12,-255.88 454.12,-255.88"/>
<text text-anchor="start" x="461.12" y="-266.57" font-family="Times New Roman,serif" font-weight="bold" font-size="9.00">Obesity III</text>
<polygon fill="none" stroke="black" points="364.88,-254.88 364.88,-282.12 511.12,-282.12 511.12,-254.88 364.88,-254.88"/>
</g>
<!-- n_0_1_2_4_5_6&#45;&gt;n_0_6 -->
<g id="edge9" class="edge">
<title>n_0_1_2_4_5_6&#45;&gt;n_0_6</title>
<path fill="none" stroke="black" d="M375.7,-337.05C388.1,-323.6 402.7,-307.77 414.65,-294.81"/>
<polygon fill="black" stroke="black" points="417.21,-297.2 421.42,-287.48 412.07,-292.46 417.21,-297.2"/>
</g>
<!-- n_1_2_5 -->
<g id="node4" class="node">
<title>n_1_2_5</title>
<polygon fill="none" stroke="black" points="87,-163 87,-195 152,-195 152,-163 87,-163"/>
<text text-anchor="start" x="104.5" y="-180.45" font-family="Times New Roman,serif" font-weight="bold" font-size="9.00">Normal</text>
<text text-anchor="start" x="94" y="-171.45" font-family="Times New Roman,serif" font-weight="bold" font-size="9.00">Overweight I</text>
<polygon fill="none" stroke="black" points="152,-163 152,-195 205,-195 205,-163 152,-163"/>
<text text-anchor="start" x="159" y="-177.07" font-family="Times New Roman,serif" font-weight="bold" font-size="9.00">Obesity II</text>
<polygon fill="none" stroke="black" points="86,-162 86,-196 206,-196 206,-162 86,-162"/>
</g>
<!-- n_1_2_4_5&#45;&gt;n_1_2_5 -->
<g id="edge3" class="edge">
<title>n_1_2_4_5&#45;&gt;n_1_2_5</title>
<path fill="none" stroke="black" d="M228.97,-243.13C214.11,-231.82 196.4,-218.35 181.17,-206.76"/>
<polygon fill="black" stroke="black" points="183.34,-204.01 173.26,-200.74 179.1,-209.58 183.34,-204.01"/>
</g>
<!-- n_4 -->
<g id="node9" class="node">
<title>n_4</title>
<polygon fill="none" stroke="black" points="252,-166.38 252,-191.62 302,-191.62 302,-166.38 252,-166.38"/>
<text text-anchor="start" x="259" y="-177.07" font-family="Times New Roman,serif" font-weight="bold" font-size="9.00">Obesity I</text>
<polygon fill="none" stroke="black" points="251,-165.38 251,-192.62 303,-192.62 303,-165.38 251,-165.38"/>
</g>
<!-- n_1_2_4_5&#45;&gt;n_4 -->
<g id="edge8" class="edge">
<title>n_1_2_4_5&#45;&gt;n_4</title>
<path fill="none" stroke="black" d="M265.46,-243.13C267.46,-232.17 269.84,-219.18 271.91,-207.84"/>
<polygon fill="black" stroke="black" points="275.31,-208.73 273.66,-198.26 268.42,-207.47 275.31,-208.73"/>
</g>
<!-- n_1_2 -->
<g id="node5" class="node">
<title>n_1_2</title>
<polygon fill="none" stroke="black" points="27.5,-84.38 27.5,-109.62 71.5,-109.62 71.5,-84.38 27.5,-84.38"/>
<text text-anchor="start" x="34.5" y="-95.08" font-family="Times New Roman,serif" font-weight="bold" font-size="9.00">Normal</text>
<polygon fill="none" stroke="black" points="71.5,-84.38 71.5,-109.62 136.5,-109.62 136.5,-84.38 71.5,-84.38"/>
<text text-anchor="start" x="78.5" y="-95.08" font-family="Times New Roman,serif" font-weight="bold" font-size="9.00">Overweight I</text>
<polygon fill="none" stroke="black" points="26.5,-83.38 26.5,-110.62 137.5,-110.62 137.5,-83.38 26.5,-83.38"/>
</g>
<!-- n_1_2_5&#45;&gt;n_1_2 -->
<g id="edge4" class="edge">
<title>n_1_2_5&#45;&gt;n_1_2</title>
<path fill="none" stroke="black" d="M130.18,-158.22C121.85,-147.81 111.54,-134.92 102.59,-123.74"/>
<polygon fill="black" stroke="black" points="105.4,-121.65 96.42,-116.03 99.93,-126.02 105.4,-121.65"/>
</g>
<!-- n_5 -->
<g id="node8" class="node">
<title>n_5</title>
<polygon fill="none" stroke="black" points="183.5,-84.38 183.5,-109.62 236.5,-109.62 236.5,-84.38 183.5,-84.38"/>
<text text-anchor="start" x="190.5" y="-95.08" font-family="Times New Roman,serif" font-weight="bold" font-size="9.00">Obesity II</text>
<polygon fill="none" stroke="black" points="182.5,-83.38 182.5,-110.62 237.5,-110.62 237.5,-83.38 182.5,-83.38"/>
</g>
<!-- n_1_2_5&#45;&gt;n_5 -->
<g id="edge7" class="edge">
<title>n_1_2_5&#45;&gt;n_5</title>
<path fill="none" stroke="black" d="M161.82,-158.22C170.15,-147.81 180.46,-134.92 189.41,-123.74"/>
<polygon fill="black" stroke="black" points="192.07,-126.02 195.58,-116.03 186.6,-121.65 192.07,-126.02"/>
</g>
<!-- n_1 -->
<g id="node6" class="node">
<title>n_1</title>
<polygon fill="none" stroke="black" points="9,-5.38 9,-30.62 53,-30.62 53,-5.38 9,-5.38"/>
<text text-anchor="start" x="16" y="-16.07" font-family="Times New Roman,serif" font-weight="bold" font-size="9.00">Normal</text>
<polygon fill="none" stroke="black" points="8,-4.38 8,-31.62 54,-31.62 54,-4.38 8,-4.38"/>
</g>
<!-- n_1_2&#45;&gt;n_1 -->
<g id="edge5" class="edge">
<title>n_1_2&#45;&gt;n_1</title>
<path fill="none" stroke="black" d="M70.93,-79.29C64.36,-69.37 55.89,-56.57 48.43,-45.32"/>
<polygon fill="black" stroke="black" points="51.5,-43.61 43.06,-37.2 45.66,-47.47 51.5,-43.61"/>
</g>
<!-- n_2 -->
<g id="node7" class="node">
<title>n_2</title>
<polygon fill="none" stroke="black" points="100.5,-5.38 100.5,-30.62 165.5,-30.62 165.5,-5.38 100.5,-5.38"/>
<text text-anchor="start" x="107.5" y="-16.07" font-family="Times New Roman,serif" font-weight="bold" font-size="9.00">Overweight I</text>
<polygon fill="none" stroke="black" points="99.5,-4.38 99.5,-31.62 166.5,-31.62 166.5,-4.38 99.5,-4.38"/>
</g>
<!-- n_1_2&#45;&gt;n_2 -->
<g id="edge6" class="edge">
<title>n_1_2&#45;&gt;n_2</title>
<path fill="none" stroke="black" d="M93.07,-79.29C99.64,-69.37 108.11,-56.57 115.57,-45.32"/>
<polygon fill="black" stroke="black" points="118.34,-47.47 120.94,-37.2 112.5,-43.61 118.34,-47.47"/>
</g>
<!-- n_0 -->
<g id="node11" class="node">
<title>n_0</title>
<polygon fill="none" stroke="black" points="378.88,-166.38 378.88,-191.62 467.12,-191.62 467.12,-166.38 378.88,-166.38"/>
<text text-anchor="start" x="385.88" y="-177.07" font-family="Times New Roman,serif" font-weight="bold" font-size="9.00">Insufficient weight</text>
<polygon fill="none" stroke="black" points="377.88,-165.38 377.88,-192.62 468.12,-192.62 468.12,-165.38 377.88,-165.38"/>
</g>
<!-- n_0_6&#45;&gt;n_0 -->
<g id="edge10" class="edge">
<title>n_0_6&#45;&gt;n_0</title>
<path fill="none" stroke="black" d="M435.11,-250.63C433.03,-238.52 430.19,-221.94 427.78,-207.88"/>
<polygon fill="black" stroke="black" points="431.28,-207.58 426.14,-198.31 424.38,-208.76 431.28,-207.58"/>
</g>
<!-- n_6 -->
<g id="node12" class="node">
<title>n_6</title>
<polygon fill="none" stroke="black" points="514,-166.38 514,-191.62 570,-191.62 570,-166.38 514,-166.38"/>
<text text-anchor="start" x="521" y="-177.07" font-family="Times New Roman,serif" font-weight="bold" font-size="9.00">Obesity III</text>
<polygon fill="none" stroke="black" points="513,-165.38 513,-192.62 571,-192.62 571,-165.38 513,-165.38"/>
</g>
<!-- n_0_6&#45;&gt;n_6 -->
<g id="edge11" class="edge">
<title>n_0_6&#45;&gt;n_6</title>
<path fill="none" stroke="black" d="M458.05,-250.63C473.73,-237.43 495.75,-218.92 513.3,-204.15"/>
<polygon fill="black" stroke="black" points="515.45,-206.91 520.85,-197.79 510.95,-201.55 515.45,-206.91"/>
</g>
</g>
</svg>
