<?xml version="1.0" encoding="UTF-8" standalone="no"?>
<!DOCTYPE svg PUBLIC "-//W3C//DTD SVG 1.1//EN"
 "http://www.w3.org/Graphics/SVG/1.1/DTD/svg11.dtd">
<!-- Generated by graphviz version 10.0.1 (20240210.2158)
 -->
<!-- Title: ND Pages: 1 -->
<svg width="684pt" height="517pt"
 viewBox="0.00 0.00 683.62 517.00" xmlns="http://www.w3.org/2000/svg" xmlns:xlink="http://www.w3.org/1999/xlink">
<g id="graph0" class="graph" transform="scale(1 1) rotate(0) translate(4 513)">
<title>ND</title>
<polygon fill="white" stroke="none" points="-4,4 -4,-513 679.62,-513 679.62,4 -4,4"/>
<!-- n_0_1_2_3_4_5_6 -->
<g id="node1" class="node">
<title>n_0_1_2_3_4_5_6</title>
<polygon fill="none" stroke="black" points="407.5,-445 407.5,-504 495.75,-504 495.75,-445 407.5,-445"/>
<text text-anchor="start" x="414.5" y="-489.45" font-family="Times New Roman,serif" font-weight="bold" font-size="9.00">Insufficient weight</text>
<text text-anchor="start" x="426.12" y="-480.45" font-family="Times New Roman,serif" font-weight="bold" font-size="9.00">Overweight I</text>
<text text-anchor="start" x="424.62" y="-471.45" font-family="Times New Roman,serif" font-weight="bold" font-size="9.00">Overweight II</text>
<text text-anchor="start" x="433.62" y="-462.45" font-family="Times New Roman,serif" font-weight="bold" font-size="9.00">Obesity I</text>
<text text-anchor="start" x="430.62" y="-453.45" font-family="Times New Roman,serif" font-weight="bold" font-size="9.00">Obesity III</text>
<polygon fill="none" stroke="black" points="495.75,-445 495.75,-504 548.75,-504 548.75,-445 495.75,-445"/>
<text text-anchor="start" x="507.25" y="-475.95" font-family="Times New Roman,serif" font-weight="bold" font-size="9.00">Normal</text>
<text text-anchor="start" x="502.75" y="-466.95" font-family="Times New Roman,serif" font-weight="bold" font-size="9.00">Obesity II</text>
<polygon fill="none" stroke="black" points="406.5,-444 406.5,-505 549.75,-505 549.75,-444 406.5,-444"/>
</g>
<!-- n_0_2_3_4_6 -->
<g id="node2" class="node">
<title>n_0_2_3_4_6</title>
<polygon fill="none" stroke="black" points="322,-342 322,-392 410.25,-392 410.25,-342 322,-342"/>
<text text-anchor="start" x="329" y="-377.45" font-family="Times New Roman,serif" font-weight="bold" font-size="9.00">Insufficient weight</text>
<text text-anchor="start" x="340.62" y="-368.45" font-family="Times New Roman,serif" font-weight="bold" font-size="9.00">Overweight I</text>
<text text-anchor="start" x="339.12" y="-359.45" font-family="Times New Roman,serif" font-weight="bold" font-size="9.00">Overweight II</text>
<text text-anchor="start" x="348.12" y="-350.45" font-family="Times New Roman,serif" font-weight="bold" font-size="9.00">Obesity I</text>
<polygon fill="none" stroke="black" points="410.25,-342 410.25,-392 466.25,-392 466.25,-342 410.25,-342"/>
<text text-anchor="start" x="417.25" y="-365.07" font-family="Times New Roman,serif" font-weight="bold" font-size="9.00">Obesity III</text>
<polygon fill="none" stroke="black" points="321,-341 321,-393 467.25,-393 467.25,-341 321,-341"/>
</g>
<!-- n_0_1_2_3_4_5_6&#45;&gt;n_0_2_3_4_6 -->
<g id="edge1" class="edge">
<title>n_0_1_2_3_4_5_6&#45;&gt;n_0_2_3_4_6</title>
<path fill="none" stroke="black" d="M451.55,-440.12C442.82,-429.16 433.07,-416.91 424.11,-405.66"/>
<polygon fill="black" stroke="black" points="427.04,-403.73 418.08,-398.08 421.57,-408.09 427.04,-403.73"/>
</g>
<!-- n_1_5 -->
<g id="node11" class="node">
<title>n_1_5</title>
<polygon fill="none" stroke="black" points="513.62,-354.38 513.62,-379.62 557.62,-379.62 557.62,-354.38 513.62,-354.38"/>
<text text-anchor="start" x="520.62" y="-365.07" font-family="Times New Roman,serif" font-weight="bold" font-size="9.00">Normal</text>
<polygon fill="none" stroke="black" points="557.62,-354.38 557.62,-379.62 610.62,-379.62 610.62,-354.38 557.62,-354.38"/>
<text text-anchor="start" x="564.62" y="-365.07" font-family="Times New Roman,serif" font-weight="bold" font-size="9.00">Obesity II</text>
<polygon fill="none" stroke="black" points="512.62,-353.38 512.62,-380.62 611.62,-380.62 611.62,-353.38 512.62,-353.38"/>
</g>
<!-- n_0_1_2_3_4_5_6&#45;&gt;n_1_5 -->
<g id="edge10" class="edge">
<title>n_0_1_2_3_4_5_6&#45;&gt;n_1_5</title>
<path fill="none" stroke="black" d="M504.7,-440.12C516.69,-425.06 530.62,-407.57 541.76,-393.58"/>
<polygon fill="black" stroke="black" points="544.2,-396.14 547.69,-386.13 538.72,-391.78 544.2,-396.14"/>
</g>
<!-- n_0_2_3_4 -->
<g id="node3" class="node">
<title>n_0_2_3_4</title>
<polygon fill="none" stroke="black" points="199,-248 199,-289 287.25,-289 287.25,-248 199,-248"/>
<text text-anchor="start" x="206" y="-274.45" font-family="Times New Roman,serif" font-weight="bold" font-size="9.00">Insufficient weight</text>
<text text-anchor="start" x="217.62" y="-265.45" font-family="Times New Roman,serif" font-weight="bold" font-size="9.00">Overweight I</text>
<text text-anchor="start" x="216.12" y="-256.45" font-family="Times New Roman,serif" font-weight="bold" font-size="9.00">Overweight II</text>
<polygon fill="none" stroke="black" points="287.25,-248 287.25,-289 337.25,-289 337.25,-248 287.25,-248"/>
<text text-anchor="start" x="294.25" y="-266.57" font-family="Times New Roman,serif" font-weight="bold" font-size="9.00">Obesity I</text>
<polygon fill="none" stroke="black" points="198,-247 198,-290 338.25,-290 338.25,-247 198,-247"/>
</g>
<!-- n_0_2_3_4_6&#45;&gt;n_0_2_3_4 -->
<g id="edge2" class="edge">
<title>n_0_2_3_4_6&#45;&gt;n_0_2_3_4</title>
<path fill="none" stroke="black" d="M356.32,-337.05C341.29,-325.54 323.98,-312.27 308.69,-300.56"/>
<polygon fill="black" stroke="black" points="311.22,-298.1 301.15,-294.79 306.96,-303.65 311.22,-298.1"/>
</g>
<!-- n_6 -->
<g id="node10" class="node">
<title>n_6</title>
<polygon fill="none" stroke="black" points="384.12,-255.88 384.12,-281.12 440.12,-281.12 440.12,-255.88 384.12,-255.88"/>
<text text-anchor="start" x="391.12" y="-266.57" font-family="Times New Roman,serif" font-weight="bold" font-size="9.00">Obesity III</text>
<polygon fill="none" stroke="black" points="383.12,-254.88 383.12,-282.12 441.12,-282.12 441.12,-254.88 383.12,-254.88"/>
</g>
<!-- n_0_2_3_4_6&#45;&gt;n_6 -->
<g id="edge9" class="edge">
<title>n_0_2_3_4_6&#45;&gt;n_6</title>
<path fill="none" stroke="black" d="M399.53,-337.05C401.86,-324.51 404.59,-309.89 406.91,-297.47"/>
<polygon fill="black" stroke="black" points="410.31,-298.33 408.7,-287.85 403.43,-297.04 410.31,-298.33"/>
</g>
<!-- n_0_2_3 -->
<g id="node4" class="node">
<title>n_0_2_3</title>
<polygon fill="none" stroke="black" points="117.5,-163 117.5,-195 205.75,-195 205.75,-163 117.5,-163"/>
<text text-anchor="start" x="124.5" y="-180.45" font-family="Times New Roman,serif" font-weight="bold" font-size="9.00">Insufficient weight</text>
<text text-anchor="start" x="134.62" y="-171.45" font-family="Times New Roman,serif" font-weight="bold" font-size="9.00">Overweight II</text>
<polygon fill="none" stroke="black" points="205.75,-163 205.75,-195 270.75,-195 270.75,-163 205.75,-163"/>
<text text-anchor="start" x="212.75" y="-177.07" font-family="Times New Roman,serif" font-weight="bold" font-size="9.00">Overweight I</text>
<polygon fill="none" stroke="black" points="116.5,-162 116.5,-196 271.75,-196 271.75,-162 116.5,-162"/>
</g>
<!-- n_0_2_3_4&#45;&gt;n_0_2_3 -->
<g id="edge3" class="edge">
<title>n_0_2_3_4&#45;&gt;n_0_2_3</title>
<path fill="none" stroke="black" d="M247.51,-243.13C238.4,-232.35 227.63,-219.62 218.15,-208.41"/>
<polygon fill="black" stroke="black" points="221,-206.36 211.87,-200.98 215.65,-210.88 221,-206.36"/>
</g>
<!-- n_4 -->
<g id="node9" class="node">
<title>n_4</title>
<polygon fill="none" stroke="black" points="318.12,-166.38 318.12,-191.62 368.12,-191.62 368.12,-166.38 318.12,-166.38"/>
<text text-anchor="start" x="325.12" y="-177.07" font-family="Times New Roman,serif" font-weight="bold" font-size="9.00">Obesity I</text>
<polygon fill="none" stroke="black" points="317.12,-165.38 317.12,-192.62 369.12,-192.62 369.12,-165.38 317.12,-165.38"/>
</g>
<!-- n_0_2_3_4&#45;&gt;n_4 -->
<g id="edge8" class="edge">
<title>n_0_2_3_4&#45;&gt;n_4</title>
<path fill="none" stroke="black" d="M289.02,-243.13C299.1,-231.36 311.2,-217.25 321.39,-205.36"/>
<polygon fill="black" stroke="black" points="323.91,-207.79 327.77,-197.92 318.6,-203.23 323.91,-207.79"/>
</g>
<!-- n_0_3 -->
<g id="node5" class="node">
<title>n_0_3</title>
<polygon fill="none" stroke="black" points="37,-84.38 37,-109.62 125.25,-109.62 125.25,-84.38 37,-84.38"/>
<text text-anchor="start" x="44" y="-95.08" font-family="Times New Roman,serif" font-weight="bold" font-size="9.00">Insufficient weight</text>
<polygon fill="none" stroke="black" points="125.25,-84.38 125.25,-109.62 193.25,-109.62 193.25,-84.38 125.25,-84.38"/>
<text text-anchor="start" x="132.25" y="-95.08" font-family="Times New Roman,serif" font-weight="bold" font-size="9.00">Overweight II</text>
<polygon fill="none" stroke="black" points="36,-83.38 36,-110.62 194.25,-110.62 194.25,-83.38 36,-83.38"/>
</g>
<!-- n_0_2_3&#45;&gt;n_0_3 -->
<g id="edge4" class="edge">
<title>n_0_2_3&#45;&gt;n_0_3</title>
<path fill="none" stroke="black" d="M174.6,-158.22C164.01,-147.5 150.82,-134.15 139.56,-122.74"/>
<polygon fill="black" stroke="black" points="142.34,-120.58 132.82,-115.92 137.36,-125.5 142.34,-120.58"/>
</g>
<!-- n_2 -->
<g id="node8" class="node">
<title>n_2</title>
<polygon fill="none" stroke="black" points="240.62,-84.38 240.62,-109.62 305.62,-109.62 305.62,-84.38 240.62,-84.38"/>
<text text-anchor="start" x="247.62" y="-95.08" font-family="Times New Roman,serif" font-weight="bold" font-size="9.00">Overweight I</text>
<polygon fill="none" stroke="black" points="239.62,-83.38 239.62,-110.62 306.62,-110.62 306.62,-83.38 239.62,-83.38"/>
</g>
<!-- n_0_2_3&#45;&gt;n_2 -->
<g id="edge7" class="edge">
<title>n_0_2_3&#45;&gt;n_2</title>
<path fill="none" stroke="black" d="M213.65,-158.22C224.24,-147.5 237.43,-134.15 248.69,-122.74"/>
<polygon fill="black" stroke="black" points="250.89,-125.5 255.43,-115.92 245.91,-120.58 250.89,-125.5"/>
</g>
<!-- n_0 -->
<g id="node6" class="node">
<title>n_0</title>
<polygon fill="none" stroke="black" points="9,-5.38 9,-30.62 97.25,-30.62 97.25,-5.38 9,-5.38"/>
<text text-anchor="start" x="16" y="-16.07" font-family="Times New Roman,serif" font-weight="bold" font-size="9.00">Insufficient weight</text>
<polygon fill="none" stroke="black" points="8,-4.38 8,-31.62 98.25,-31.62 98.25,-4.38 8,-4.38"/>
</g>
<!-- n_0_3&#45;&gt;n_0 -->
<g id="edge5" class="edge">
<title>n_0_3&#45;&gt;n_0</title>
<path fill="none" stroke="black" d="M101.67,-79.29C93.52,-69.17 82.96,-56.05 73.77,-44.64"/>
<polygon fill="black" stroke="black" points="76.71,-42.71 67.72,-37.12 71.26,-47.1 76.71,-42.71"/>
</g>
<!-- n_3 -->
<g id="node7" class="node">
<title>n_3</title>
<polygon fill="none" stroke="black" points="144.12,-5.38 144.12,-30.62 212.12,-30.62 212.12,-5.38 144.12,-5.38"/>
<text text-anchor="start" x="151.12" y="-16.07" font-family="Times New Roman,serif" font-weight="bold" font-size="9.00">Overweight II</text>
<polygon fill="none" stroke="black" points="143.12,-4.38 143.12,-31.62 213.12,-31.62 213.12,-4.38 143.12,-4.38"/>
</g>
<!-- n_0_3&#45;&gt;n_3 -->
<g id="edge6" class="edge">
<title>n_0_3&#45;&gt;n_3</title>
<path fill="none" stroke="black" d="M128.8,-79.29C137.08,-69.17 147.81,-56.05 157.15,-44.64"/>
<polygon fill="black" stroke="black" points="159.68,-47.07 163.31,-37.11 154.26,-42.64 159.68,-47.07"/>
</g>
<!-- n_1 -->
<g id="node12" class="node">
<title>n_1</title>
<polygon fill="none" stroke="black" points="522.12,-255.88 522.12,-281.12 566.12,-281.12 566.12,-255.88 522.12,-255.88"/>
<text text-anchor="start" x="529.12" y="-266.57" font-family="Times New Roman,serif" font-weight="bold" font-size="9.00">Normal</text>
<polygon fill="none" stroke="black" points="521.12,-254.88 521.12,-282.12 567.12,-282.12 567.12,-254.88 521.12,-254.88"/>
</g>
<!-- n_1_5&#45;&gt;n_1 -->
<g id="edge11" class="edge">
<title>n_1_5&#45;&gt;n_1</title>
<path fill="none" stroke="black" d="M558.99,-349.19C556.32,-334.89 552.44,-314.06 549.31,-297.28"/>
<polygon fill="black" stroke="black" points="552.84,-297.12 547.56,-287.93 545.96,-298.4 552.84,-297.12"/>
</g>
<!-- n_5 -->
<g id="node13" class="node">
<title>n_5</title>
<polygon fill="none" stroke="black" points="613.62,-255.88 613.62,-281.12 666.62,-281.12 666.62,-255.88 613.62,-255.88"/>
<text text-anchor="start" x="620.62" y="-266.57" font-family="Times New Roman,serif" font-weight="bold" font-size="9.00">Obesity II</text>
<polygon fill="none" stroke="black" points="612.62,-254.88 612.62,-282.12 667.62,-282.12 667.62,-254.88 612.62,-254.88"/>
</g>
<!-- n_1_5&#45;&gt;n_5 -->
<g id="edge12" class="edge">
<title>n_1_5&#45;&gt;n_5</title>
<path fill="none" stroke="black" d="M575.71,-349.19C587.72,-334.34 605.41,-312.44 619.22,-295.36"/>
<polygon fill="black" stroke="black" points="621.92,-297.59 625.48,-287.62 616.47,-293.19 621.92,-297.59"/>
</g>
</g>
</svg>
