<?xml version="1.0" encoding="UTF-8" standalone="no"?>
<!DOCTYPE svg PUBLIC "-//W3C//DTD SVG 1.1//EN"
 "http://www.w3.org/Graphics/SVG/1.1/DTD/svg11.dtd">
<!-- Generated by graphviz version 10.0.1 (20240210.2158)
 -->
<!-- Title: ND Pages: 1 -->
<svg width="607pt" height="526pt"
 viewBox="0.00 0.00 607.00 526.00" xmlns="http://www.w3.org/2000/svg" xmlns:xlink="http://www.w3.org/1999/xlink">
<g id="graph0" class="graph" transform="scale(1 1) rotate(0) translate(4 522)">
<title>ND</title>
<polygon fill="white" stroke="none" points="-4,4 -4,-522 603,-522 603,4 -4,4"/>
<!-- n_0_1_2_3_4_5_6 -->
<g id="node1" class="node">
<title>n_0_1_2_3_4_5_6</title>
<polygon fill="none" stroke="black" points="400.38,-445 400.38,-513 488.62,-513 488.62,-445 400.38,-445"/>
<text text-anchor="start" x="407.38" y="-498.45" font-family="Times New Roman,serif" font-weight="bold" font-size="9.00">Insufficient weight</text>
<text text-anchor="start" x="429.5" y="-489.45" font-family="Times New Roman,serif" font-weight="bold" font-size="9.00">Normal</text>
<text text-anchor="start" x="419" y="-480.45" font-family="Times New Roman,serif" font-weight="bold" font-size="9.00">Overweight I</text>
<text text-anchor="start" x="417.5" y="-471.45" font-family="Times New Roman,serif" font-weight="bold" font-size="9.00">Overweight II</text>
<text text-anchor="start" x="425" y="-462.45" font-family="Times New Roman,serif" font-weight="bold" font-size="9.00">Obesity II</text>
<text text-anchor="start" x="423.5" y="-453.45" font-family="Times New Roman,serif" font-weight="bold" font-size="9.00">Obesity III</text>
<polygon fill="none" stroke="black" points="488.62,-445 488.62,-513 538.62,-513 538.62,-445 488.62,-445"/>
<text text-anchor="start" x="495.62" y="-477.07" font-family="Times New Roman,serif" font-weight="bold" font-size="9.00">Obesity I</text>
<polygon fill="none" stroke="black" points="399.38,-444 399.38,-514 539.62,-514 539.62,-444 399.38,-444"/>
</g>
<!-- n_0_1_2_3_5_6 -->
<g id="node2" class="node">
<title>n_0_1_2_3_5_6</title>
<polygon fill="none" stroke="black" points="327.88,-342 327.88,-392 416.12,-392 416.12,-342 327.88,-342"/>
<text text-anchor="start" x="334.88" y="-377.45" font-family="Times New Roman,serif" font-weight="bold" font-size="9.00">Insufficient weight</text>
<text text-anchor="start" x="346.5" y="-368.45" font-family="Times New Roman,serif" font-weight="bold" font-size="9.00">Overweight I</text>
<text text-anchor="start" x="345" y="-359.45" font-family="Times New Roman,serif" font-weight="bold" font-size="9.00">Overweight II</text>
<text text-anchor="start" x="351" y="-350.45" font-family="Times New Roman,serif" font-weight="bold" font-size="9.00">Obesity III</text>
<polygon fill="none" stroke="black" points="416.12,-342 416.12,-392 469.12,-392 469.12,-342 416.12,-342"/>
<text text-anchor="start" x="427.62" y="-368.45" font-family="Times New Roman,serif" font-weight="bold" font-size="9.00">Normal</text>
<text text-anchor="start" x="423.12" y="-359.45" font-family="Times New Roman,serif" font-weight="bold" font-size="9.00">Obesity II</text>
<polygon fill="none" stroke="black" points="326.88,-341 326.88,-393 470.12,-393 470.12,-341 326.88,-341"/>
</g>
<!-- n_0_1_2_3_4_5_6&#45;&gt;n_0_1_2_3_5_6 -->
<g id="edge1" class="edge">
<title>n_0_1_2_3_4_5_6&#45;&gt;n_0_1_2_3_5_6</title>
<path fill="none" stroke="black" d="M445.07,-440.14C437.99,-429.19 430.27,-417.22 423.18,-406.23"/>
<polygon fill="black" stroke="black" points="426.33,-404.66 417.97,-398.16 420.45,-408.46 426.33,-404.66"/>
</g>
<!-- n_4 -->
<g id="node13" class="node">
<title>n_4</title>
<polygon fill="none" stroke="black" points="516.5,-354.38 516.5,-379.62 566.5,-379.62 566.5,-354.38 516.5,-354.38"/>
<text text-anchor="start" x="523.5" y="-365.07" font-family="Times New Roman,serif" font-weight="bold" font-size="9.00">Obesity I</text>
<polygon fill="none" stroke="black" points="515.5,-353.38 515.5,-380.62 567.5,-380.62 567.5,-353.38 515.5,-353.38"/>
</g>
<!-- n_0_1_2_3_4_5_6&#45;&gt;n_4 -->
<g id="edge12" class="edge">
<title>n_0_1_2_3_4_5_6&#45;&gt;n_4</title>
<path fill="none" stroke="black" d="M494.28,-440.14C504.16,-425.04 515.3,-408.02 524.28,-394.31"/>
<polygon fill="black" stroke="black" points="527.01,-396.53 529.56,-386.25 521.15,-392.7 527.01,-396.53"/>
</g>
<!-- n_0_2_3_6 -->
<g id="node3" class="node">
<title>n_0_2_3_6</title>
<polygon fill="none" stroke="black" points="233.38,-248 233.38,-289 321.62,-289 321.62,-248 233.38,-248"/>
<text text-anchor="start" x="240.38" y="-274.45" font-family="Times New Roman,serif" font-weight="bold" font-size="9.00">Insufficient weight</text>
<text text-anchor="start" x="252" y="-265.45" font-family="Times New Roman,serif" font-weight="bold" font-size="9.00">Overweight I</text>
<text text-anchor="start" x="256.5" y="-256.45" font-family="Times New Roman,serif" font-weight="bold" font-size="9.00">Obesity III</text>
<polygon fill="none" stroke="black" points="321.62,-248 321.62,-289 389.62,-289 389.62,-248 321.62,-248"/>
<text text-anchor="start" x="328.62" y="-266.57" font-family="Times New Roman,serif" font-weight="bold" font-size="9.00">Overweight II</text>
<polygon fill="none" stroke="black" points="232.38,-247 232.38,-290 390.62,-290 390.62,-247 232.38,-247"/>
</g>
<!-- n_0_1_2_3_5_6&#45;&gt;n_0_2_3_6 -->
<g id="edge2" class="edge">
<title>n_0_1_2_3_5_6&#45;&gt;n_0_2_3_6</title>
<path fill="none" stroke="black" d="M372.4,-337.05C362.51,-326.08 351.18,-313.51 341,-302.22"/>
<polygon fill="black" stroke="black" points="343.78,-300.08 334.49,-295 338.58,-304.77 343.78,-300.08"/>
</g>
<!-- n_1_5 -->
<g id="node10" class="node">
<title>n_1_5</title>
<polygon fill="none" stroke="black" points="437,-255.88 437,-281.12 481,-281.12 481,-255.88 437,-255.88"/>
<text text-anchor="start" x="444" y="-266.57" font-family="Times New Roman,serif" font-weight="bold" font-size="9.00">Normal</text>
<polygon fill="none" stroke="black" points="481,-255.88 481,-281.12 534,-281.12 534,-255.88 481,-255.88"/>
<text text-anchor="start" x="488" y="-266.57" font-family="Times New Roman,serif" font-weight="bold" font-size="9.00">Obesity II</text>
<polygon fill="none" stroke="black" points="436,-254.88 436,-282.12 535,-282.12 535,-254.88 436,-254.88"/>
</g>
<!-- n_0_1_2_3_5_6&#45;&gt;n_1_5 -->
<g id="edge9" class="edge">
<title>n_0_1_2_3_5_6&#45;&gt;n_1_5</title>
<path fill="none" stroke="black" d="M424.6,-337.05C436.72,-323.6 451,-307.77 462.68,-294.81"/>
<polygon fill="black" stroke="black" points="465.18,-297.26 469.28,-287.49 459.99,-292.57 465.18,-297.26"/>
</g>
<!-- n_0_2_6 -->
<g id="node4" class="node">
<title>n_0_2_6</title>
<polygon fill="none" stroke="black" points="94.88,-163 94.88,-195 159.88,-195 159.88,-163 94.88,-163"/>
<text text-anchor="start" x="101.88" y="-180.45" font-family="Times New Roman,serif" font-weight="bold" font-size="9.00">Overweight I</text>
<text text-anchor="start" x="106.38" y="-171.45" font-family="Times New Roman,serif" font-weight="bold" font-size="9.00">Obesity III</text>
<polygon fill="none" stroke="black" points="159.88,-163 159.88,-195 248.12,-195 248.12,-163 159.88,-163"/>
<text text-anchor="start" x="166.88" y="-177.07" font-family="Times New Roman,serif" font-weight="bold" font-size="9.00">Insufficient weight</text>
<polygon fill="none" stroke="black" points="93.88,-162 93.88,-196 249.12,-196 249.12,-162 93.88,-162"/>
</g>
<!-- n_0_2_3_6&#45;&gt;n_0_2_6 -->
<g id="edge3" class="edge">
<title>n_0_2_3_6&#45;&gt;n_0_2_6</title>
<path fill="none" stroke="black" d="M272.5,-243.13C253.9,-231.5 231.64,-217.59 212.75,-205.78"/>
<polygon fill="black" stroke="black" points="214.84,-202.96 204.51,-200.63 211.13,-208.9 214.84,-202.96"/>
</g>
<!-- n_3 -->
<g id="node9" class="node">
<title>n_3</title>
<polygon fill="none" stroke="black" points="295.5,-166.38 295.5,-191.62 363.5,-191.62 363.5,-166.38 295.5,-166.38"/>
<text text-anchor="start" x="302.5" y="-177.07" font-family="Times New Roman,serif" font-weight="bold" font-size="9.00">Overweight II</text>
<polygon fill="none" stroke="black" points="294.5,-165.38 294.5,-192.62 364.5,-192.62 364.5,-165.38 294.5,-165.38"/>
</g>
<!-- n_0_2_3_6&#45;&gt;n_3 -->
<g id="edge8" class="edge">
<title>n_0_2_3_6&#45;&gt;n_3</title>
<path fill="none" stroke="black" d="M316.51,-243.13C318.77,-232.17 321.44,-219.18 323.77,-207.84"/>
<polygon fill="black" stroke="black" points="327.16,-208.75 325.75,-198.25 320.3,-207.34 327.16,-208.75"/>
</g>
<!-- n_2_6 -->
<g id="node5" class="node">
<title>n_2_6</title>
<polygon fill="none" stroke="black" points="35,-84.38 35,-109.62 100,-109.62 100,-84.38 35,-84.38"/>
<text text-anchor="start" x="42" y="-95.08" font-family="Times New Roman,serif" font-weight="bold" font-size="9.00">Overweight I</text>
<polygon fill="none" stroke="black" points="100,-84.38 100,-109.62 156,-109.62 156,-84.38 100,-84.38"/>
<text text-anchor="start" x="107" y="-95.08" font-family="Times New Roman,serif" font-weight="bold" font-size="9.00">Obesity III</text>
<polygon fill="none" stroke="black" points="34,-83.38 34,-110.62 157,-110.62 157,-83.38 34,-83.38"/>
</g>
<!-- n_0_2_6&#45;&gt;n_2_6 -->
<g id="edge4" class="edge">
<title>n_0_2_6&#45;&gt;n_2_6</title>
<path fill="none" stroke="black" d="M152.71,-158.22C142.63,-147.61 130.09,-134.41 119.32,-123.07"/>
<polygon fill="black" stroke="black" points="121.97,-120.78 112.54,-115.94 116.89,-125.6 121.97,-120.78"/>
</g>
<!-- n_0 -->
<g id="node8" class="node">
<title>n_0</title>
<polygon fill="none" stroke="black" points="203.38,-84.38 203.38,-109.62 291.62,-109.62 291.62,-84.38 203.38,-84.38"/>
<text text-anchor="start" x="210.38" y="-95.08" font-family="Times New Roman,serif" font-weight="bold" font-size="9.00">Insufficient weight</text>
<polygon fill="none" stroke="black" points="202.38,-83.38 202.38,-110.62 292.62,-110.62 292.62,-83.38 202.38,-83.38"/>
</g>
<!-- n_0_2_6&#45;&gt;n_0 -->
<g id="edge7" class="edge">
<title>n_0_2_6&#45;&gt;n_0</title>
<path fill="none" stroke="black" d="M190.29,-158.22C200.37,-147.61 212.91,-134.41 223.68,-123.07"/>
<polygon fill="black" stroke="black" points="226.11,-125.6 230.46,-115.94 221.03,-120.78 226.11,-125.6"/>
</g>
<!-- n_2 -->
<g id="node6" class="node">
<title>n_2</title>
<polygon fill="none" stroke="black" points="9,-5.38 9,-30.62 74,-30.62 74,-5.38 9,-5.38"/>
<text text-anchor="start" x="16" y="-16.07" font-family="Times New Roman,serif" font-weight="bold" font-size="9.00">Overweight I</text>
<polygon fill="none" stroke="black" points="8,-4.38 8,-31.62 75,-31.62 75,-4.38 8,-4.38"/>
</g>
<!-- n_2_6&#45;&gt;n_2 -->
<g id="edge5" class="edge">
<title>n_2_6&#45;&gt;n_2</title>
<path fill="none" stroke="black" d="M83.78,-79.29C76.83,-69.37 67.85,-56.57 59.96,-45.32"/>
<polygon fill="black" stroke="black" points="62.86,-43.36 54.25,-37.18 57.13,-47.38 62.86,-43.36"/>
</g>
<!-- n_6 -->
<g id="node7" class="node">
<title>n_6</title>
<polygon fill="none" stroke="black" points="121.5,-5.38 121.5,-30.62 177.5,-30.62 177.5,-5.38 121.5,-5.38"/>
<text text-anchor="start" x="128.5" y="-16.07" font-family="Times New Roman,serif" font-weight="bold" font-size="9.00">Obesity III</text>
<polygon fill="none" stroke="black" points="120.5,-4.38 120.5,-31.62 178.5,-31.62 178.5,-4.38 120.5,-4.38"/>
</g>
<!-- n_2_6&#45;&gt;n_6 -->
<g id="edge6" class="edge">
<title>n_2_6&#45;&gt;n_6</title>
<path fill="none" stroke="black" d="M107.22,-79.29C114.17,-69.37 123.15,-56.57 131.04,-45.32"/>
<polygon fill="black" stroke="black" points="133.87,-47.38 136.75,-37.18 128.14,-43.36 133.87,-47.38"/>
</g>
<!-- n_1 -->
<g id="node11" class="node">
<title>n_1</title>
<polygon fill="none" stroke="black" points="445.5,-166.38 445.5,-191.62 489.5,-191.62 489.5,-166.38 445.5,-166.38"/>
<text text-anchor="start" x="452.5" y="-177.07" font-family="Times New Roman,serif" font-weight="bold" font-size="9.00">Normal</text>
<polygon fill="none" stroke="black" points="444.5,-165.38 444.5,-192.62 490.5,-192.62 490.5,-165.38 444.5,-165.38"/>
</g>
<!-- n_1_5&#45;&gt;n_1 -->
<g id="edge10" class="edge">
<title>n_1_5&#45;&gt;n_1</title>
<path fill="none" stroke="black" d="M482.03,-250.63C479.54,-238.52 476.13,-221.94 473.24,-207.88"/>
<polygon fill="black" stroke="black" points="476.71,-207.39 471.26,-198.3 469.85,-208.8 476.71,-207.39"/>
</g>
<!-- n_5 -->
<g id="node12" class="node">
<title>n_5</title>
<polygon fill="none" stroke="black" points="537,-166.38 537,-191.62 590,-191.62 590,-166.38 537,-166.38"/>
<text text-anchor="start" x="544" y="-177.07" font-family="Times New Roman,serif" font-weight="bold" font-size="9.00">Obesity II</text>
<polygon fill="none" stroke="black" points="536,-165.38 536,-192.62 591,-192.62 591,-165.38 536,-165.38"/>
</g>
<!-- n_1_5&#45;&gt;n_5 -->
<g id="edge11" class="edge">
<title>n_1_5&#45;&gt;n_5</title>
<path fill="none" stroke="black" d="M500.54,-250.63C511.98,-237.8 527.9,-219.93 540.88,-205.38"/>
<polygon fill="black" stroke="black" points="543.46,-207.74 547.5,-197.95 538.23,-203.08 543.46,-207.74"/>
</g>
</g>
</svg>
