<?xml version="1.0" encoding="UTF-8" standalone="no"?>
<!DOCTYPE svg PUBLIC "-//W3C//DTD SVG 1.1//EN"
 "http://www.w3.org/Graphics/SVG/1.1/DTD/svg11.dtd">
<!-- Generated by graphviz version 10.0.1 (20240210.2158)
 -->
<!-- Title: ND Pages: 1 -->
<svg width="619pt" height="526pt"
 viewBox="0.00 0.00 618.62 526.00" xmlns="http://www.w3.org/2000/svg" xmlns:xlink="http://www.w3.org/1999/xlink">
<g id="graph0" class="graph" transform="scale(1 1) rotate(0) translate(4 522)">
<title>ND</title>
<polygon fill="white" stroke="none" points="-4,4 -4,-522 614.62,-522 614.62,4 -4,4"/>
<!-- n_0_1_2_3_4_5_6 -->
<g id="node1" class="node">
<title>n_0_1_2_3_4_5_6</title>
<polygon fill="none" stroke="black" points="400,-445 400,-513 488.25,-513 488.25,-445 400,-445"/>
<text text-anchor="start" x="407" y="-498.45" font-family="Times New Roman,serif" font-weight="bold" font-size="9.00">Insufficient weight</text>
<text text-anchor="start" x="429.12" y="-489.45" font-family="Times New Roman,serif" font-weight="bold" font-size="9.00">Normal</text>
<text text-anchor="start" x="418.62" y="-480.45" font-family="Times New Roman,serif" font-weight="bold" font-size="9.00">Overweight I</text>
<text text-anchor="start" x="417.12" y="-471.45" font-family="Times New Roman,serif" font-weight="bold" font-size="9.00">Overweight II</text>
<text text-anchor="start" x="426.12" y="-462.45" font-family="Times New Roman,serif" font-weight="bold" font-size="9.00">Obesity I</text>
<text text-anchor="start" x="424.62" y="-453.45" font-family="Times New Roman,serif" font-weight="bold" font-size="9.00">Obesity II</text>
<polygon fill="none" stroke="black" points="488.25,-445 488.25,-513 544.25,-513 544.25,-445 488.25,-445"/>
<text text-anchor="start" x="495.25" y="-477.07" font-family="Times New Roman,serif" font-weight="bold" font-size="9.00">Obesity III</text>
<polygon fill="none" stroke="black" points="399,-444 399,-514 545.25,-514 545.25,-444 399,-444"/>
</g>
<!-- n_0_1_2_3_4_5 -->
<g id="node2" class="node">
<title>n_0_1_2_3_4_5</title>
<polygon fill="none" stroke="black" points="318,-342 318,-392 406.25,-392 406.25,-342 318,-342"/>
<text text-anchor="start" x="325" y="-377.45" font-family="Times New Roman,serif" font-weight="bold" font-size="9.00">Insufficient weight</text>
<text text-anchor="start" x="347.12" y="-368.45" font-family="Times New Roman,serif" font-weight="bold" font-size="9.00">Normal</text>
<text text-anchor="start" x="336.62" y="-359.45" font-family="Times New Roman,serif" font-weight="bold" font-size="9.00">Overweight I</text>
<text text-anchor="start" x="344.12" y="-350.45" font-family="Times New Roman,serif" font-weight="bold" font-size="9.00">Obesity I</text>
<polygon fill="none" stroke="black" points="406.25,-342 406.25,-392 474.25,-392 474.25,-342 406.25,-342"/>
<text text-anchor="start" x="413.25" y="-368.45" font-family="Times New Roman,serif" font-weight="bold" font-size="9.00">Overweight II</text>
<text text-anchor="start" x="420.75" y="-359.45" font-family="Times New Roman,serif" font-weight="bold" font-size="9.00">Obesity II</text>
<polygon fill="none" stroke="black" points="317,-341 317,-393 475.25,-393 475.25,-341 317,-341"/>
</g>
<!-- n_0_1_2_3_4_5_6&#45;&gt;n_0_1_2_3_4_5 -->
<g id="edge1" class="edge">
<title>n_0_1_2_3_4_5_6&#45;&gt;n_0_1_2_3_4_5</title>
<path fill="none" stroke="black" d="M445.97,-440.14C438.4,-429.19 430.13,-417.22 422.54,-406.23"/>
<polygon fill="black" stroke="black" points="425.51,-404.37 416.94,-398.13 419.75,-408.35 425.51,-404.37"/>
</g>
<!-- n_6 -->
<g id="node13" class="node">
<title>n_6</title>
<polygon fill="none" stroke="black" points="521.12,-354.38 521.12,-379.62 577.12,-379.62 577.12,-354.38 521.12,-354.38"/>
<text text-anchor="start" x="528.12" y="-365.07" font-family="Times New Roman,serif" font-weight="bold" font-size="9.00">Obesity III</text>
<polygon fill="none" stroke="black" points="520.12,-353.38 520.12,-380.62 578.12,-380.62 578.12,-353.38 520.12,-353.38"/>
</g>
<!-- n_0_1_2_3_4_5_6&#45;&gt;n_6 -->
<g id="edge12" class="edge">
<title>n_0_1_2_3_4_5_6&#45;&gt;n_6</title>
<path fill="none" stroke="black" d="M498.62,-440.14C509.2,-425.04 521.11,-408.02 530.71,-394.31"/>
<polygon fill="black" stroke="black" points="533.5,-396.42 536.37,-386.22 527.77,-392.41 533.5,-396.42"/>
</g>
<!-- n_0_1_2_4 -->
<g id="node3" class="node">
<title>n_0_1_2_4</title>
<polygon fill="none" stroke="black" points="239,-248 239,-289 327.25,-289 327.25,-248 239,-248"/>
<text text-anchor="start" x="246" y="-274.45" font-family="Times New Roman,serif" font-weight="bold" font-size="9.00">Insufficient weight</text>
<text text-anchor="start" x="268.12" y="-265.45" font-family="Times New Roman,serif" font-weight="bold" font-size="9.00">Normal</text>
<text text-anchor="start" x="257.62" y="-256.45" font-family="Times New Roman,serif" font-weight="bold" font-size="9.00">Overweight I</text>
<polygon fill="none" stroke="black" points="327.25,-248 327.25,-289 377.25,-289 377.25,-248 327.25,-248"/>
<text text-anchor="start" x="334.25" y="-266.57" font-family="Times New Roman,serif" font-weight="bold" font-size="9.00">Obesity I</text>
<polygon fill="none" stroke="black" points="238,-247 238,-290 378.25,-290 378.25,-247 238,-247"/>
</g>
<!-- n_0_1_2_3_4_5&#45;&gt;n_0_1_2_4 -->
<g id="edge2" class="edge">
<title>n_0_1_2_3_4_5&#45;&gt;n_0_1_2_4</title>
<path fill="none" stroke="black" d="M369.72,-337.05C359.72,-326.08 348.26,-313.51 337.96,-302.22"/>
<polygon fill="black" stroke="black" points="340.7,-300.02 331.37,-294.99 335.52,-304.74 340.7,-300.02"/>
</g>
<!-- n_3_5 -->
<g id="node10" class="node">
<title>n_3_5</title>
<polygon fill="none" stroke="black" points="424.62,-255.88 424.62,-281.12 492.62,-281.12 492.62,-255.88 424.62,-255.88"/>
<text text-anchor="start" x="431.62" y="-266.57" font-family="Times New Roman,serif" font-weight="bold" font-size="9.00">Overweight II</text>
<polygon fill="none" stroke="black" points="492.62,-255.88 492.62,-281.12 545.62,-281.12 545.62,-255.88 492.62,-255.88"/>
<text text-anchor="start" x="499.62" y="-266.57" font-family="Times New Roman,serif" font-weight="bold" font-size="9.00">Obesity II</text>
<polygon fill="none" stroke="black" points="423.62,-254.88 423.62,-282.12 546.62,-282.12 546.62,-254.88 423.62,-254.88"/>
</g>
<!-- n_0_1_2_3_4_5&#45;&gt;n_3_5 -->
<g id="edge9" class="edge">
<title>n_0_1_2_3_4_5&#45;&gt;n_3_5</title>
<path fill="none" stroke="black" d="M422.83,-337.05C435.23,-323.6 449.83,-307.77 461.78,-294.81"/>
<polygon fill="black" stroke="black" points="464.34,-297.2 468.54,-287.48 459.19,-292.46 464.34,-297.2"/>
</g>
<!-- n_0_1_2 -->
<g id="node4" class="node">
<title>n_0_1_2</title>
<polygon fill="none" stroke="black" points="122,-163 122,-195 210.25,-195 210.25,-163 122,-163"/>
<text text-anchor="start" x="129" y="-180.45" font-family="Times New Roman,serif" font-weight="bold" font-size="9.00">Insufficient weight</text>
<text text-anchor="start" x="140.62" y="-171.45" font-family="Times New Roman,serif" font-weight="bold" font-size="9.00">Overweight I</text>
<polygon fill="none" stroke="black" points="210.25,-163 210.25,-195 254.25,-195 254.25,-163 210.25,-163"/>
<text text-anchor="start" x="217.25" y="-177.07" font-family="Times New Roman,serif" font-weight="bold" font-size="9.00">Normal</text>
<polygon fill="none" stroke="black" points="121,-162 121,-196 255.25,-196 255.25,-162 121,-162"/>
</g>
<!-- n_0_1_2_4&#45;&gt;n_0_1_2 -->
<g id="edge3" class="edge">
<title>n_0_1_2_4&#45;&gt;n_0_1_2</title>
<path fill="none" stroke="black" d="M274.7,-243.13C259.05,-231.71 240.37,-218.1 224.38,-206.43"/>
<polygon fill="black" stroke="black" points="226.68,-203.78 216.54,-200.72 222.56,-209.44 226.68,-203.78"/>
</g>
<!-- n_4 -->
<g id="node9" class="node">
<title>n_4</title>
<polygon fill="none" stroke="black" points="301.12,-166.38 301.12,-191.62 351.12,-191.62 351.12,-166.38 301.12,-166.38"/>
<text text-anchor="start" x="308.12" y="-177.07" font-family="Times New Roman,serif" font-weight="bold" font-size="9.00">Obesity I</text>
<polygon fill="none" stroke="black" points="300.12,-165.38 300.12,-192.62 352.12,-192.62 352.12,-165.38 300.12,-165.38"/>
</g>
<!-- n_0_1_2_4&#45;&gt;n_4 -->
<g id="edge8" class="edge">
<title>n_0_1_2_4&#45;&gt;n_4</title>
<path fill="none" stroke="black" d="M313.14,-243.13C315.39,-232.17 318.07,-219.18 320.4,-207.84"/>
<polygon fill="black" stroke="black" points="323.78,-208.75 322.37,-198.25 316.93,-207.34 323.78,-208.75"/>
</g>
<!-- n_0_2 -->
<g id="node5" class="node">
<title>n_0_2</title>
<polygon fill="none" stroke="black" points="38.5,-84.38 38.5,-109.62 126.75,-109.62 126.75,-84.38 38.5,-84.38"/>
<text text-anchor="start" x="45.5" y="-95.08" font-family="Times New Roman,serif" font-weight="bold" font-size="9.00">Insufficient weight</text>
<polygon fill="none" stroke="black" points="126.75,-84.38 126.75,-109.62 191.75,-109.62 191.75,-84.38 126.75,-84.38"/>
<text text-anchor="start" x="133.75" y="-95.08" font-family="Times New Roman,serif" font-weight="bold" font-size="9.00">Overweight I</text>
<polygon fill="none" stroke="black" points="37.5,-83.38 37.5,-110.62 192.75,-110.62 192.75,-83.38 37.5,-83.38"/>
</g>
<!-- n_0_1_2&#45;&gt;n_0_2 -->
<g id="edge4" class="edge">
<title>n_0_1_2&#45;&gt;n_0_2</title>
<path fill="none" stroke="black" d="M170.08,-158.22C160.39,-147.61 148.35,-134.41 138,-123.07"/>
<polygon fill="black" stroke="black" points="140.84,-120.99 131.52,-115.96 135.67,-125.71 140.84,-120.99"/>
</g>
<!-- n_1 -->
<g id="node8" class="node">
<title>n_1</title>
<polygon fill="none" stroke="black" points="239.12,-84.38 239.12,-109.62 283.12,-109.62 283.12,-84.38 239.12,-84.38"/>
<text text-anchor="start" x="246.12" y="-95.08" font-family="Times New Roman,serif" font-weight="bold" font-size="9.00">Normal</text>
<polygon fill="none" stroke="black" points="238.12,-83.38 238.12,-110.62 284.12,-110.62 284.12,-83.38 238.12,-83.38"/>
</g>
<!-- n_0_1_2&#45;&gt;n_1 -->
<g id="edge7" class="edge">
<title>n_0_1_2&#45;&gt;n_1</title>
<path fill="none" stroke="black" d="M206.17,-158.22C215.86,-147.61 227.9,-134.41 238.25,-123.07"/>
<polygon fill="black" stroke="black" points="240.58,-125.71 244.73,-115.96 235.41,-120.99 240.58,-125.71"/>
</g>
<!-- n_0 -->
<g id="node6" class="node">
<title>n_0</title>
<polygon fill="none" stroke="black" points="9,-5.38 9,-30.62 97.25,-30.62 97.25,-5.38 9,-5.38"/>
<text text-anchor="start" x="16" y="-16.07" font-family="Times New Roman,serif" font-weight="bold" font-size="9.00">Insufficient weight</text>
<polygon fill="none" stroke="black" points="8,-4.38 8,-31.62 98.25,-31.62 98.25,-4.38 8,-4.38"/>
</g>
<!-- n_0_2&#45;&gt;n_0 -->
<g id="edge5" class="edge">
<title>n_0_2&#45;&gt;n_0</title>
<path fill="none" stroke="black" d="M101.67,-79.29C93.52,-69.17 82.96,-56.05 73.77,-44.64"/>
<polygon fill="black" stroke="black" points="76.71,-42.71 67.72,-37.12 71.26,-47.1 76.71,-42.71"/>
</g>
<!-- n_2 -->
<g id="node7" class="node">
<title>n_2</title>
<polygon fill="none" stroke="black" points="144.62,-5.38 144.62,-30.62 209.62,-30.62 209.62,-5.38 144.62,-5.38"/>
<text text-anchor="start" x="151.62" y="-16.07" font-family="Times New Roman,serif" font-weight="bold" font-size="9.00">Overweight I</text>
<polygon fill="none" stroke="black" points="143.62,-4.38 143.62,-31.62 210.62,-31.62 210.62,-4.38 143.62,-4.38"/>
</g>
<!-- n_0_2&#45;&gt;n_2 -->
<g id="edge6" class="edge">
<title>n_0_2&#45;&gt;n_2</title>
<path fill="none" stroke="black" d="M128.58,-79.29C136.73,-69.17 147.29,-56.05 156.48,-44.64"/>
<polygon fill="black" stroke="black" points="158.99,-47.1 162.53,-37.12 153.54,-42.71 158.99,-47.1"/>
</g>
<!-- n_3 -->
<g id="node11" class="node">
<title>n_3</title>
<polygon fill="none" stroke="black" points="433.12,-166.38 433.12,-191.62 501.12,-191.62 501.12,-166.38 433.12,-166.38"/>
<text text-anchor="start" x="440.12" y="-177.07" font-family="Times New Roman,serif" font-weight="bold" font-size="9.00">Overweight II</text>
<polygon fill="none" stroke="black" points="432.12,-165.38 432.12,-192.62 502.12,-192.62 502.12,-165.38 432.12,-165.38"/>
</g>
<!-- n_3_5&#45;&gt;n_3 -->
<g id="edge10" class="edge">
<title>n_3_5&#45;&gt;n_3</title>
<path fill="none" stroke="black" d="M481.65,-250.63C479.16,-238.52 475.75,-221.94 472.86,-207.88"/>
<polygon fill="black" stroke="black" points="476.33,-207.39 470.89,-198.3 469.48,-208.8 476.33,-207.39"/>
</g>
<!-- n_5 -->
<g id="node12" class="node">
<title>n_5</title>
<polygon fill="none" stroke="black" points="548.62,-166.38 548.62,-191.62 601.62,-191.62 601.62,-166.38 548.62,-166.38"/>
<text text-anchor="start" x="555.62" y="-177.07" font-family="Times New Roman,serif" font-weight="bold" font-size="9.00">Obesity II</text>
<polygon fill="none" stroke="black" points="547.62,-165.38 547.62,-192.62 602.62,-192.62 602.62,-165.38 547.62,-165.38"/>
</g>
<!-- n_3_5&#45;&gt;n_5 -->
<g id="edge11" class="edge">
<title>n_3_5&#45;&gt;n_5</title>
<path fill="none" stroke="black" d="M502.48,-250.63C515.92,-237.56 534.75,-219.25 549.87,-204.56"/>
<polygon fill="black" stroke="black" points="552.01,-207.35 556.74,-197.87 547.13,-202.34 552.01,-207.35"/>
</g>
</g>
</svg>
