<?xml version="1.0" encoding="UTF-8" standalone="no"?>
<!DOCTYPE svg PUBLIC "-//W3C//DTD SVG 1.1//EN"
 "http://www.w3.org/Graphics/SVG/1.1/DTD/svg11.dtd">
<!-- Generated by graphviz version 10.0.1 (20240210.2158)
 -->
<!-- Title: ND Pages: 1 -->
<svg width="580pt" height="544pt"
 viewBox="0.00 0.00 579.62 544.00" xmlns="http://www.w3.org/2000/svg" xmlns:xlink="http://www.w3.org/1999/xlink">
<g id="graph0" class="graph" transform="scale(1 1) rotate(0) translate(4 540)">
<title>ND</title>
<polygon fill="white" stroke="none" points="-4,4 -4,-540 575.62,-540 575.62,4 -4,4"/>
<!-- n_0_1_2_3_4_5_6 -->
<g id="node1" class="node">
<title>n_0_1_2_3_4_5_6</title>
<polygon fill="none" stroke="black" points="395.5,-463 395.5,-531 483.75,-531 483.75,-463 395.5,-463"/>
<text text-anchor="start" x="402.5" y="-516.45" font-family="Times New Roman,serif" font-weight="bold" font-size="9.00">Insufficient weight</text>
<text text-anchor="start" x="424.62" y="-507.45" font-family="Times New Roman,serif" font-weight="bold" font-size="9.00">Normal</text>
<text text-anchor="start" x="414.12" y="-498.45" font-family="Times New Roman,serif" font-weight="bold" font-size="9.00">Overweight I</text>
<text text-anchor="start" x="412.62" y="-489.45" font-family="Times New Roman,serif" font-weight="bold" font-size="9.00">Overweight II</text>
<text text-anchor="start" x="421.62" y="-480.45" font-family="Times New Roman,serif" font-weight="bold" font-size="9.00">Obesity I</text>
<text text-anchor="start" x="418.62" y="-471.45" font-family="Times New Roman,serif" font-weight="bold" font-size="9.00">Obesity III</text>
<polygon fill="none" stroke="black" points="483.75,-463 483.75,-531 536.75,-531 536.75,-463 483.75,-463"/>
<text text-anchor="start" x="490.75" y="-495.07" font-family="Times New Roman,serif" font-weight="bold" font-size="9.00">Obesity II</text>
<polygon fill="none" stroke="black" points="394.5,-462 394.5,-532 537.75,-532 537.75,-462 394.5,-462"/>
</g>
<!-- n_0_1_2_3_4_6 -->
<g id="node2" class="node">
<title>n_0_1_2_3_4_6</title>
<polygon fill="none" stroke="black" points="330,-351 330,-410 418.25,-410 418.25,-351 330,-351"/>
<text text-anchor="start" x="337" y="-395.45" font-family="Times New Roman,serif" font-weight="bold" font-size="9.00">Insufficient weight</text>
<text text-anchor="start" x="348.62" y="-386.45" font-family="Times New Roman,serif" font-weight="bold" font-size="9.00">Overweight I</text>
<text text-anchor="start" x="347.12" y="-377.45" font-family="Times New Roman,serif" font-weight="bold" font-size="9.00">Overweight II</text>
<text text-anchor="start" x="356.12" y="-368.45" font-family="Times New Roman,serif" font-weight="bold" font-size="9.00">Obesity I</text>
<text text-anchor="start" x="353.12" y="-359.45" font-family="Times New Roman,serif" font-weight="bold" font-size="9.00">Obesity III</text>
<polygon fill="none" stroke="black" points="418.25,-351 418.25,-410 462.25,-410 462.25,-351 418.25,-351"/>
<text text-anchor="start" x="425.25" y="-378.57" font-family="Times New Roman,serif" font-weight="bold" font-size="9.00">Normal</text>
<polygon fill="none" stroke="black" points="329,-350 329,-411 463.25,-411 463.25,-350 329,-350"/>
</g>
<!-- n_0_1_2_3_4_5_6&#45;&gt;n_0_1_2_3_4_6 -->
<g id="edge1" class="edge">
<title>n_0_1_2_3_4_5_6&#45;&gt;n_0_1_2_3_4_6</title>
<path fill="none" stroke="black" d="M443.01,-458.19C436.36,-447.31 429.05,-435.36 422.23,-424.21"/>
<polygon fill="black" stroke="black" points="425.38,-422.65 417.18,-415.94 419.41,-426.3 425.38,-422.65"/>
</g>
<!-- n_5 -->
<g id="node13" class="node">
<title>n_5</title>
<polygon fill="none" stroke="black" points="509.62,-367.88 509.62,-393.12 562.62,-393.12 562.62,-367.88 509.62,-367.88"/>
<text text-anchor="start" x="516.62" y="-378.57" font-family="Times New Roman,serif" font-weight="bold" font-size="9.00">Obesity II</text>
<polygon fill="none" stroke="black" points="508.62,-366.88 508.62,-394.12 563.62,-394.12 563.62,-366.88 508.62,-366.88"/>
</g>
<!-- n_0_1_2_3_4_5_6&#45;&gt;n_5 -->
<g id="edge12" class="edge">
<title>n_0_1_2_3_4_5_6&#45;&gt;n_5</title>
<path fill="none" stroke="black" d="M489.24,-458.19C499.27,-441.78 510.78,-422.96 519.88,-408.07"/>
<polygon fill="black" stroke="black" points="522.74,-410.11 524.97,-399.75 516.76,-406.46 522.74,-410.11"/>
</g>
<!-- n_0_2_3_4_6 -->
<g id="node3" class="node">
<title>n_0_2_3_4_6</title>
<polygon fill="none" stroke="black" points="258,-248 258,-298 346.25,-298 346.25,-248 258,-248"/>
<text text-anchor="start" x="265" y="-283.45" font-family="Times New Roman,serif" font-weight="bold" font-size="9.00">Insufficient weight</text>
<text text-anchor="start" x="276.62" y="-274.45" font-family="Times New Roman,serif" font-weight="bold" font-size="9.00">Overweight I</text>
<text text-anchor="start" x="275.12" y="-265.45" font-family="Times New Roman,serif" font-weight="bold" font-size="9.00">Overweight II</text>
<text text-anchor="start" x="281.12" y="-256.45" font-family="Times New Roman,serif" font-weight="bold" font-size="9.00">Obesity III</text>
<polygon fill="none" stroke="black" points="346.25,-248 346.25,-298 396.25,-298 396.25,-248 346.25,-248"/>
<text text-anchor="start" x="353.25" y="-271.07" font-family="Times New Roman,serif" font-weight="bold" font-size="9.00">Obesity I</text>
<polygon fill="none" stroke="black" points="257,-247 257,-299 397.25,-299 397.25,-247 257,-247"/>
</g>
<!-- n_0_1_2_3_4_6&#45;&gt;n_0_2_3_4_6 -->
<g id="edge2" class="edge">
<title>n_0_1_2_3_4_6&#45;&gt;n_0_2_3_4_6</title>
<path fill="none" stroke="black" d="M374.29,-346.12C367.27,-335.38 359.43,-323.4 352.2,-312.33"/>
<polygon fill="black" stroke="black" points="355.26,-310.62 346.85,-304.16 349.4,-314.45 355.26,-310.62"/>
</g>
<!-- n_1 -->
<g id="node12" class="node">
<title>n_1</title>
<polygon fill="none" stroke="black" points="443.12,-260.38 443.12,-285.62 487.12,-285.62 487.12,-260.38 443.12,-260.38"/>
<text text-anchor="start" x="450.12" y="-271.07" font-family="Times New Roman,serif" font-weight="bold" font-size="9.00">Normal</text>
<polygon fill="none" stroke="black" points="442.12,-259.38 442.12,-286.62 488.12,-286.62 488.12,-259.38 442.12,-259.38"/>
</g>
<!-- n_0_1_2_3_4_6&#45;&gt;n_1 -->
<g id="edge11" class="edge">
<title>n_0_1_2_3_4_6&#45;&gt;n_1</title>
<path fill="none" stroke="black" d="M417.96,-346.12C427.62,-331.35 438.81,-314.23 447.87,-300.38"/>
<polygon fill="black" stroke="black" points="450.67,-302.5 453.21,-292.22 444.81,-298.67 450.67,-302.5"/>
</g>
<!-- n_0_2_3_6 -->
<g id="node4" class="node">
<title>n_0_2_3_6</title>
<polygon fill="none" stroke="black" points="174,-163 174,-195 262.25,-195 262.25,-163 174,-163"/>
<text text-anchor="start" x="181" y="-180.45" font-family="Times New Roman,serif" font-weight="bold" font-size="9.00">Insufficient weight</text>
<text text-anchor="start" x="192.62" y="-171.45" font-family="Times New Roman,serif" font-weight="bold" font-size="9.00">Overweight I</text>
<polygon fill="none" stroke="black" points="262.25,-163 262.25,-195 330.25,-195 330.25,-163 262.25,-163"/>
<text text-anchor="start" x="269.25" y="-180.45" font-family="Times New Roman,serif" font-weight="bold" font-size="9.00">Overweight II</text>
<text text-anchor="start" x="275.25" y="-171.45" font-family="Times New Roman,serif" font-weight="bold" font-size="9.00">Obesity III</text>
<polygon fill="none" stroke="black" points="173,-162 173,-196 331.25,-196 331.25,-162 173,-162"/>
</g>
<!-- n_0_2_3_4_6&#45;&gt;n_0_2_3_6 -->
<g id="edge3" class="edge">
<title>n_0_2_3_4_6&#45;&gt;n_0_2_3_6</title>
<path fill="none" stroke="black" d="M303.6,-243.14C294.61,-232.11 284.36,-219.54 275.39,-208.54"/>
<polygon fill="black" stroke="black" points="278.2,-206.44 269.17,-200.9 272.77,-210.87 278.2,-206.44"/>
</g>
<!-- n_4 -->
<g id="node11" class="node">
<title>n_4</title>
<polygon fill="none" stroke="black" points="377.12,-166.38 377.12,-191.62 427.12,-191.62 427.12,-166.38 377.12,-166.38"/>
<text text-anchor="start" x="384.12" y="-177.07" font-family="Times New Roman,serif" font-weight="bold" font-size="9.00">Obesity I</text>
<polygon fill="none" stroke="black" points="376.12,-165.38 376.12,-192.62 428.12,-192.62 428.12,-165.38 376.12,-165.38"/>
</g>
<!-- n_0_2_3_4_6&#45;&gt;n_4 -->
<g id="edge10" class="edge">
<title>n_0_2_3_4_6&#45;&gt;n_4</title>
<path fill="none" stroke="black" d="M350.65,-243.14C360.41,-231.17 371.65,-217.38 381.13,-205.76"/>
<polygon fill="black" stroke="black" points="383.73,-208.1 387.34,-198.14 378.3,-203.68 383.73,-208.1"/>
</g>
<!-- n_0_2 -->
<g id="node5" class="node">
<title>n_0_2</title>
<polygon fill="none" stroke="black" points="82.5,-84.38 82.5,-109.62 170.75,-109.62 170.75,-84.38 82.5,-84.38"/>
<text text-anchor="start" x="89.5" y="-95.08" font-family="Times New Roman,serif" font-weight="bold" font-size="9.00">Insufficient weight</text>
<polygon fill="none" stroke="black" points="170.75,-84.38 170.75,-109.62 235.75,-109.62 235.75,-84.38 170.75,-84.38"/>
<text text-anchor="start" x="177.75" y="-95.08" font-family="Times New Roman,serif" font-weight="bold" font-size="9.00">Overweight I</text>
<polygon fill="none" stroke="black" points="81.5,-83.38 81.5,-110.62 236.75,-110.62 236.75,-83.38 81.5,-83.38"/>
</g>
<!-- n_0_2_3_6&#45;&gt;n_0_2 -->
<g id="edge4" class="edge">
<title>n_0_2_3_6&#45;&gt;n_0_2</title>
<path fill="none" stroke="black" d="M229.14,-158.22C216.43,-147.29 200.54,-133.63 187.12,-122.08"/>
<polygon fill="black" stroke="black" points="189.72,-119.7 179.85,-115.83 185.15,-125.01 189.72,-119.7"/>
</g>
<!-- n_3_6 -->
<g id="node8" class="node">
<title>n_3_6</title>
<polygon fill="none" stroke="black" points="283.12,-84.38 283.12,-109.62 351.12,-109.62 351.12,-84.38 283.12,-84.38"/>
<text text-anchor="start" x="290.12" y="-95.08" font-family="Times New Roman,serif" font-weight="bold" font-size="9.00">Overweight II</text>
<polygon fill="none" stroke="black" points="351.12,-84.38 351.12,-109.62 407.12,-109.62 407.12,-84.38 351.12,-84.38"/>
<text text-anchor="start" x="358.12" y="-95.08" font-family="Times New Roman,serif" font-weight="bold" font-size="9.00">Obesity III</text>
<polygon fill="none" stroke="black" points="282.12,-83.38 282.12,-110.62 408.12,-110.62 408.12,-83.38 282.12,-83.38"/>
</g>
<!-- n_0_2_3_6&#45;&gt;n_3_6 -->
<g id="edge7" class="edge">
<title>n_0_2_3_6&#45;&gt;n_3_6</title>
<path fill="none" stroke="black" d="M275.11,-158.22C287.82,-147.29 303.71,-133.63 317.13,-122.08"/>
<polygon fill="black" stroke="black" points="319.1,-125.01 324.4,-115.83 314.53,-119.7 319.1,-125.01"/>
</g>
<!-- n_0 -->
<g id="node6" class="node">
<title>n_0</title>
<polygon fill="none" stroke="black" points="9,-5.38 9,-30.62 97.25,-30.62 97.25,-5.38 9,-5.38"/>
<text text-anchor="start" x="16" y="-16.07" font-family="Times New Roman,serif" font-weight="bold" font-size="9.00">Insufficient weight</text>
<polygon fill="none" stroke="black" points="8,-4.38 8,-31.62 98.25,-31.62 98.25,-4.38 8,-4.38"/>
</g>
<!-- n_0_2&#45;&gt;n_0 -->
<g id="edge5" class="edge">
<title>n_0_2&#45;&gt;n_0</title>
<path fill="none" stroke="black" d="M135.86,-79.1C121.09,-68.37 101.76,-54.33 85.5,-42.51"/>
<polygon fill="black" stroke="black" points="87.71,-39.79 77.56,-36.75 83.59,-45.46 87.71,-39.79"/>
</g>
<!-- n_2 -->
<g id="node7" class="node">
<title>n_2</title>
<polygon fill="none" stroke="black" points="144.62,-5.38 144.62,-30.62 209.62,-30.62 209.62,-5.38 144.62,-5.38"/>
<text text-anchor="start" x="151.62" y="-16.07" font-family="Times New Roman,serif" font-weight="bold" font-size="9.00">Overweight I</text>
<polygon fill="none" stroke="black" points="143.62,-4.38 143.62,-31.62 210.62,-31.62 210.62,-4.38 143.62,-4.38"/>
</g>
<!-- n_0_2&#45;&gt;n_2 -->
<g id="edge6" class="edge">
<title>n_0_2&#45;&gt;n_2</title>
<path fill="none" stroke="black" d="M163.03,-79.29C165.23,-69.87 168.04,-57.86 170.57,-47.04"/>
<polygon fill="black" stroke="black" points="173.95,-47.95 172.82,-37.41 167.14,-46.36 173.95,-47.95"/>
</g>
<!-- n_3 -->
<g id="node9" class="node">
<title>n_3</title>
<polygon fill="none" stroke="black" points="293.12,-5.38 293.12,-30.62 361.12,-30.62 361.12,-5.38 293.12,-5.38"/>
<text text-anchor="start" x="300.12" y="-16.07" font-family="Times New Roman,serif" font-weight="bold" font-size="9.00">Overweight II</text>
<polygon fill="none" stroke="black" points="292.12,-4.38 292.12,-31.62 362.12,-31.62 362.12,-4.38 292.12,-4.38"/>
</g>
<!-- n_3_6&#45;&gt;n_3 -->
<g id="edge8" class="edge">
<title>n_3_6&#45;&gt;n_3</title>
<path fill="none" stroke="black" d="M341.22,-79.29C339.02,-69.87 336.21,-57.86 333.68,-47.04"/>
<polygon fill="black" stroke="black" points="337.11,-46.36 331.43,-37.41 330.3,-47.95 337.11,-46.36"/>
</g>
<!-- n_6 -->
<g id="node10" class="node">
<title>n_6</title>
<polygon fill="none" stroke="black" points="408.12,-5.38 408.12,-30.62 464.12,-30.62 464.12,-5.38 408.12,-5.38"/>
<text text-anchor="start" x="415.12" y="-16.07" font-family="Times New Roman,serif" font-weight="bold" font-size="9.00">Obesity III</text>
<polygon fill="none" stroke="black" points="407.12,-4.38 407.12,-31.62 465.12,-31.62 465.12,-4.38 407.12,-4.38"/>
</g>
<!-- n_3_6&#45;&gt;n_6 -->
<g id="edge9" class="edge">
<title>n_3_6&#45;&gt;n_6</title>
<path fill="none" stroke="black" d="M364.87,-79.29C377.31,-68.77 393.57,-55.01 407.42,-43.29"/>
<polygon fill="black" stroke="black" points="409.58,-46.05 414.95,-36.92 405.05,-40.71 409.58,-46.05"/>
</g>
</g>
</svg>
