<?xml version="1.0" encoding="UTF-8" standalone="no"?>
<!DOCTYPE svg PUBLIC "-//W3C//DTD SVG 1.1//EN"
 "http://www.w3.org/Graphics/SVG/1.1/DTD/svg11.dtd">
<!-- Generated by graphviz version 10.0.1 (20240210.2158)
 -->
<!-- Title: ND Pages: 1 -->
<svg width="592pt" height="405pt"
 viewBox="0.00 0.00 592.00 405.00" xmlns="http://www.w3.org/2000/svg" xmlns:xlink="http://www.w3.org/1999/xlink">
<g id="graph0" class="graph" transform="scale(1 1) rotate(0) translate(4 401)">
<title>ND</title>
<polygon fill="white" stroke="none" points="-4,4 -4,-401 588,-401 588,4 -4,4"/>
<!-- n_0_1_2_3_4_5_6 -->
<g id="node1" class="node">
<title>n_0_1_2_3_4_5_6</title>
<polygon fill="none" stroke="black" points="254.88,-342 254.88,-392 343.12,-392 343.12,-342 254.88,-342"/>
<text text-anchor="start" x="261.88" y="-377.45" font-family="Times New Roman,serif" font-weight="bold" font-size="9.00">Insufficient weight</text>
<text text-anchor="start" x="281" y="-368.45" font-family="Times New Roman,serif" font-weight="bold" font-size="9.00">Obesity I</text>
<text text-anchor="start" x="279.5" y="-359.45" font-family="Times New Roman,serif" font-weight="bold" font-size="9.00">Obesity II</text>
<text text-anchor="start" x="278" y="-350.45" font-family="Times New Roman,serif" font-weight="bold" font-size="9.00">Obesity III</text>
<polygon fill="none" stroke="black" points="343.12,-342 343.12,-392 411.12,-392 411.12,-342 343.12,-342"/>
<text text-anchor="start" x="362.12" y="-372.95" font-family="Times New Roman,serif" font-weight="bold" font-size="9.00">Normal</text>
<text text-anchor="start" x="351.62" y="-363.95" font-family="Times New Roman,serif" font-weight="bold" font-size="9.00">Overweight I</text>
<text text-anchor="start" x="350.12" y="-354.95" font-family="Times New Roman,serif" font-weight="bold" font-size="9.00">Overweight II</text>
<polygon fill="none" stroke="black" points="253.88,-341 253.88,-393 412.12,-393 412.12,-341 253.88,-341"/>
</g>
<!-- n_0_4_5_6 -->
<g id="node2" class="node">
<title>n_0_4_5_6</title>
<polygon fill="none" stroke="black" points="173.88,-248 173.88,-289 229.88,-289 229.88,-248 173.88,-248"/>
<text text-anchor="start" x="183.88" y="-274.45" font-family="Times New Roman,serif" font-weight="bold" font-size="9.00">Obesity I</text>
<text text-anchor="start" x="182.38" y="-265.45" font-family="Times New Roman,serif" font-weight="bold" font-size="9.00">Obesity II</text>
<text text-anchor="start" x="180.88" y="-256.45" font-family="Times New Roman,serif" font-weight="bold" font-size="9.00">Obesity III</text>
<polygon fill="none" stroke="black" points="229.88,-248 229.88,-289 318.12,-289 318.12,-248 229.88,-248"/>
<text text-anchor="start" x="236.88" y="-266.57" font-family="Times New Roman,serif" font-weight="bold" font-size="9.00">Insufficient weight</text>
<polygon fill="none" stroke="black" points="172.88,-247 172.88,-290 319.12,-290 319.12,-247 172.88,-247"/>
</g>
<!-- n_0_1_2_3_4_5_6&#45;&gt;n_0_4_5_6 -->
<g id="edge1" class="edge">
<title>n_0_1_2_3_4_5_6&#45;&gt;n_0_4_5_6</title>
<path fill="none" stroke="black" d="M306.9,-337.05C297.01,-326.08 285.68,-313.51 275.5,-302.22"/>
<polygon fill="black" stroke="black" points="278.28,-300.08 268.99,-295 273.08,-304.77 278.28,-300.08"/>
</g>
<!-- n_1_2_3 -->
<g id="node9" class="node">
<title>n_1_2_3</title>
<polygon fill="none" stroke="black" points="365,-252.5 365,-284.5 433,-284.5 433,-252.5 365,-252.5"/>
<text text-anchor="start" x="373.5" y="-269.95" font-family="Times New Roman,serif" font-weight="bold" font-size="9.00">Overweight I</text>
<text text-anchor="start" x="372" y="-260.95" font-family="Times New Roman,serif" font-weight="bold" font-size="9.00">Overweight II</text>
<polygon fill="none" stroke="black" points="433,-252.5 433,-284.5 477,-284.5 477,-252.5 433,-252.5"/>
<text text-anchor="start" x="440" y="-266.57" font-family="Times New Roman,serif" font-weight="bold" font-size="9.00">Normal</text>
<polygon fill="none" stroke="black" points="364,-251.5 364,-285.5 478,-285.5 478,-251.5 364,-251.5"/>
</g>
<!-- n_0_1_2_3_4_5_6&#45;&gt;n_1_2_3 -->
<g id="edge8" class="edge">
<title>n_0_1_2_3_4_5_6&#45;&gt;n_1_2_3</title>
<path fill="none" stroke="black" d="M359.4,-337.05C370.84,-324.51 384.17,-309.89 395.5,-297.46"/>
<polygon fill="black" stroke="black" points="397.81,-300.12 401.96,-290.38 392.64,-295.41 397.81,-300.12"/>
</g>
<!-- n_4_5_6 -->
<g id="node3" class="node">
<title>n_4_5_6</title>
<polygon fill="none" stroke="black" points="50.5,-163 50.5,-195 106.5,-195 106.5,-163 50.5,-163"/>
<text text-anchor="start" x="60.5" y="-180.45" font-family="Times New Roman,serif" font-weight="bold" font-size="9.00">Obesity I</text>
<text text-anchor="start" x="57.5" y="-171.45" font-family="Times New Roman,serif" font-weight="bold" font-size="9.00">Obesity III</text>
<polygon fill="none" stroke="black" points="106.5,-163 106.5,-195 159.5,-195 159.5,-163 106.5,-163"/>
<text text-anchor="start" x="113.5" y="-177.07" font-family="Times New Roman,serif" font-weight="bold" font-size="9.00">Obesity II</text>
<polygon fill="none" stroke="black" points="49.5,-162 49.5,-196 160.5,-196 160.5,-162 49.5,-162"/>
</g>
<!-- n_0_4_5_6&#45;&gt;n_4_5_6 -->
<g id="edge2" class="edge">
<title>n_0_4_5_6&#45;&gt;n_4_5_6</title>
<path fill="none" stroke="black" d="M206.72,-243.13C187.99,-231.5 165.57,-217.59 146.55,-205.78"/>
<polygon fill="black" stroke="black" points="148.58,-202.92 138.23,-200.62 144.89,-208.87 148.58,-202.92"/>
</g>
<!-- n_0 -->
<g id="node8" class="node">
<title>n_0</title>
<polygon fill="none" stroke="black" points="206.88,-166.38 206.88,-191.62 295.12,-191.62 295.12,-166.38 206.88,-166.38"/>
<text text-anchor="start" x="213.88" y="-177.07" font-family="Times New Roman,serif" font-weight="bold" font-size="9.00">Insufficient weight</text>
<polygon fill="none" stroke="black" points="205.88,-165.38 205.88,-192.62 296.12,-192.62 296.12,-165.38 205.88,-165.38"/>
</g>
<!-- n_0_4_5_6&#45;&gt;n_0 -->
<g id="edge7" class="edge">
<title>n_0_4_5_6&#45;&gt;n_0</title>
<path fill="none" stroke="black" d="M247.39,-243.13C248.01,-232.28 248.75,-219.45 249.39,-208.19"/>
<polygon fill="black" stroke="black" points="252.88,-208.47 249.96,-198.28 245.89,-208.07 252.88,-208.47"/>
</g>
<!-- n_4_6 -->
<g id="node4" class="node">
<title>n_4_6</title>
<polygon fill="none" stroke="black" points="31,-84.38 31,-109.62 81,-109.62 81,-84.38 31,-84.38"/>
<text text-anchor="start" x="38" y="-95.08" font-family="Times New Roman,serif" font-weight="bold" font-size="9.00">Obesity I</text>
<polygon fill="none" stroke="black" points="81,-84.38 81,-109.62 137,-109.62 137,-84.38 81,-84.38"/>
<text text-anchor="start" x="88" y="-95.08" font-family="Times New Roman,serif" font-weight="bold" font-size="9.00">Obesity III</text>
<polygon fill="none" stroke="black" points="30,-83.38 30,-110.62 138,-110.62 138,-83.38 30,-83.38"/>
</g>
<!-- n_4_5_6&#45;&gt;n_4_6 -->
<g id="edge3" class="edge">
<title>n_4_5_6&#45;&gt;n_4_6</title>
<path fill="none" stroke="black" d="M99.81,-158.22C97.24,-148.44 94.1,-136.46 91.29,-125.77"/>
<polygon fill="black" stroke="black" points="94.73,-125.09 88.81,-116.31 87.96,-126.87 94.73,-125.09"/>
</g>
<!-- n_5 -->
<g id="node7" class="node">
<title>n_5</title>
<polygon fill="none" stroke="black" points="184.5,-84.38 184.5,-109.62 237.5,-109.62 237.5,-84.38 184.5,-84.38"/>
<text text-anchor="start" x="191.5" y="-95.08" font-family="Times New Roman,serif" font-weight="bold" font-size="9.00">Obesity II</text>
<polygon fill="none" stroke="black" points="183.5,-83.38 183.5,-110.62 238.5,-110.62 238.5,-83.38 183.5,-83.38"/>
</g>
<!-- n_4_5_6&#45;&gt;n_5 -->
<g id="edge6" class="edge">
<title>n_4_5_6&#45;&gt;n_5</title>
<path fill="none" stroke="black" d="M131.47,-158.02C146.1,-146.98 164.36,-133.2 179.69,-121.63"/>
<polygon fill="black" stroke="black" points="181.71,-124.49 187.59,-115.67 177.5,-118.9 181.71,-124.49"/>
</g>
<!-- n_4 -->
<g id="node5" class="node">
<title>n_4</title>
<polygon fill="none" stroke="black" points="9,-5.38 9,-30.62 59,-30.62 59,-5.38 9,-5.38"/>
<text text-anchor="start" x="16" y="-16.07" font-family="Times New Roman,serif" font-weight="bold" font-size="9.00">Obesity I</text>
<polygon fill="none" stroke="black" points="8,-4.38 8,-31.62 60,-31.62 60,-4.38 8,-4.38"/>
</g>
<!-- n_4_6&#45;&gt;n_4 -->
<g id="edge4" class="edge">
<title>n_4_6&#45;&gt;n_4</title>
<path fill="none" stroke="black" d="M73.15,-79.29C66.71,-69.37 58.4,-56.57 51.09,-45.32"/>
<polygon fill="black" stroke="black" points="54.21,-43.69 45.83,-37.21 48.34,-47.5 54.21,-43.69"/>
</g>
<!-- n_6 -->
<g id="node6" class="node">
<title>n_6</title>
<polygon fill="none" stroke="black" points="106,-5.38 106,-30.62 162,-30.62 162,-5.38 106,-5.38"/>
<text text-anchor="start" x="113" y="-16.07" font-family="Times New Roman,serif" font-weight="bold" font-size="9.00">Obesity III</text>
<polygon fill="none" stroke="black" points="105,-4.38 105,-31.62 163,-31.62 163,-4.38 105,-4.38"/>
</g>
<!-- n_4_6&#45;&gt;n_6 -->
<g id="edge5" class="edge">
<title>n_4_6&#45;&gt;n_6</title>
<path fill="none" stroke="black" d="M94.85,-79.29C101.29,-69.37 109.6,-56.57 116.91,-45.32"/>
<polygon fill="black" stroke="black" points="119.66,-47.5 122.17,-37.21 113.79,-43.69 119.66,-47.5"/>
</g>
<!-- n_2_3 -->
<g id="node10" class="node">
<title>n_2_3</title>
<polygon fill="none" stroke="black" points="350.5,-166.38 350.5,-191.62 415.5,-191.62 415.5,-166.38 350.5,-166.38"/>
<text text-anchor="start" x="357.5" y="-177.07" font-family="Times New Roman,serif" font-weight="bold" font-size="9.00">Overweight I</text>
<polygon fill="none" stroke="black" points="415.5,-166.38 415.5,-191.62 483.5,-191.62 483.5,-166.38 415.5,-166.38"/>
<text text-anchor="start" x="422.5" y="-177.07" font-family="Times New Roman,serif" font-weight="bold" font-size="9.00">Overweight II</text>
<polygon fill="none" stroke="black" points="349.5,-165.38 349.5,-192.62 484.5,-192.62 484.5,-165.38 349.5,-165.38"/>
</g>
<!-- n_1_2_3&#45;&gt;n_2_3 -->
<g id="edge9" class="edge">
<title>n_1_2_3&#45;&gt;n_2_3</title>
<path fill="none" stroke="black" d="M420.09,-247.64C419.56,-235.91 418.87,-220.86 418.28,-207.94"/>
<polygon fill="black" stroke="black" points="421.79,-208.17 417.84,-198.34 414.8,-208.49 421.79,-208.17"/>
</g>
<!-- n_1 -->
<g id="node13" class="node">
<title>n_1</title>
<polygon fill="none" stroke="black" points="531,-166.38 531,-191.62 575,-191.62 575,-166.38 531,-166.38"/>
<text text-anchor="start" x="538" y="-177.07" font-family="Times New Roman,serif" font-weight="bold" font-size="9.00">Normal</text>
<polygon fill="none" stroke="black" points="530,-165.38 530,-192.62 576,-192.62 576,-165.38 530,-165.38"/>
</g>
<!-- n_1_2_3&#45;&gt;n_1 -->
<g id="edge12" class="edge">
<title>n_1_2_3&#45;&gt;n_1</title>
<path fill="none" stroke="black" d="M450.95,-247.64C470.92,-234.41 497.22,-216.97 518.13,-203.12"/>
<polygon fill="black" stroke="black" points="519.94,-206.11 526.35,-197.67 516.08,-200.28 519.94,-206.11"/>
</g>
<!-- n_2 -->
<g id="node11" class="node">
<title>n_2</title>
<polygon fill="none" stroke="black" points="334.5,-84.38 334.5,-109.62 399.5,-109.62 399.5,-84.38 334.5,-84.38"/>
<text text-anchor="start" x="341.5" y="-95.08" font-family="Times New Roman,serif" font-weight="bold" font-size="9.00">Overweight I</text>
<polygon fill="none" stroke="black" points="333.5,-83.38 333.5,-110.62 400.5,-110.62 400.5,-83.38 333.5,-83.38"/>
</g>
<!-- n_2_3&#45;&gt;n_2 -->
<g id="edge10" class="edge">
<title>n_2_3&#45;&gt;n_2</title>
<path fill="none" stroke="black" d="M406.4,-161.03C399.77,-150.43 391.09,-136.54 383.57,-124.51"/>
<polygon fill="black" stroke="black" points="386.66,-122.85 378.39,-116.22 380.72,-126.56 386.66,-122.85"/>
</g>
<!-- n_3 -->
<g id="node12" class="node">
<title>n_3</title>
<polygon fill="none" stroke="black" points="447,-84.38 447,-109.62 515,-109.62 515,-84.38 447,-84.38"/>
<text text-anchor="start" x="454" y="-95.08" font-family="Times New Roman,serif" font-weight="bold" font-size="9.00">Overweight II</text>
<polygon fill="none" stroke="black" points="446,-83.38 446,-110.62 516,-110.62 516,-83.38 446,-83.38"/>
</g>
<!-- n_2_3&#45;&gt;n_3 -->
<g id="edge11" class="edge">
<title>n_2_3&#45;&gt;n_3</title>
<path fill="none" stroke="black" d="M430.57,-161.03C439.23,-150.22 450.61,-135.99 460.37,-123.79"/>
<polygon fill="black" stroke="black" points="462.99,-126.12 466.5,-116.12 457.52,-121.75 462.99,-126.12"/>
</g>
</g>
</svg>
