<?xml version="1.0" encoding="UTF-8" standalone="no"?>
<!DOCTYPE svg PUBLIC "-//W3C//DTD SVG 1.1//EN"
 "http://www.w3.org/Graphics/SVG/1.1/DTD/svg11.dtd">
<!-- Generated by graphviz version 10.0.1 (20240210.2158)
 -->
<!-- Title: ND Pages: 1 -->
<svg width="669pt" height="517pt"
 viewBox="0.00 0.00 668.50 517.00" xmlns="http://www.w3.org/2000/svg" xmlns:xlink="http://www.w3.org/1999/xlink">
<g id="graph0" class="graph" transform="scale(1 1) rotate(0) translate(4 513)">
<title>ND</title>
<polygon fill="white" stroke="none" points="-4,4 -4,-513 664.5,-513 664.5,4 -4,4"/>
<!-- n_0_1_2_3_4_5_6 -->
<g id="node1" class="node">
<title>n_0_1_2_3_4_5_6</title>
<polygon fill="none" stroke="black" points="366.88,-445 366.88,-504 455.12,-504 455.12,-445 366.88,-445"/>
<text text-anchor="start" x="373.88" y="-489.45" font-family="Times New Roman,serif" font-weight="bold" font-size="9.00">Insufficient weight</text>
<text text-anchor="start" x="396" y="-480.45" font-family="Times New Roman,serif" font-weight="bold" font-size="9.00">Normal</text>
<text text-anchor="start" x="385.5" y="-471.45" font-family="Times New Roman,serif" font-weight="bold" font-size="9.00">Overweight I</text>
<text text-anchor="start" x="393" y="-462.45" font-family="Times New Roman,serif" font-weight="bold" font-size="9.00">Obesity I</text>
<text text-anchor="start" x="390" y="-453.45" font-family="Times New Roman,serif" font-weight="bold" font-size="9.00">Obesity III</text>
<polygon fill="none" stroke="black" points="455.12,-445 455.12,-504 523.12,-504 523.12,-445 455.12,-445"/>
<text text-anchor="start" x="462.12" y="-475.95" font-family="Times New Roman,serif" font-weight="bold" font-size="9.00">Overweight II</text>
<text text-anchor="start" x="469.62" y="-466.95" font-family="Times New Roman,serif" font-weight="bold" font-size="9.00">Obesity II</text>
<polygon fill="none" stroke="black" points="365.88,-444 365.88,-505 524.12,-505 524.12,-444 365.88,-444"/>
</g>
<!-- n_0_1_2_4_6 -->
<g id="node2" class="node">
<title>n_0_1_2_4_6</title>
<polygon fill="none" stroke="black" points="282.88,-342 282.88,-392 371.12,-392 371.12,-342 282.88,-342"/>
<text text-anchor="start" x="289.88" y="-377.45" font-family="Times New Roman,serif" font-weight="bold" font-size="9.00">Insufficient weight</text>
<text text-anchor="start" x="312" y="-368.45" font-family="Times New Roman,serif" font-weight="bold" font-size="9.00">Normal</text>
<text text-anchor="start" x="301.5" y="-359.45" font-family="Times New Roman,serif" font-weight="bold" font-size="9.00">Overweight I</text>
<text text-anchor="start" x="309" y="-350.45" font-family="Times New Roman,serif" font-weight="bold" font-size="9.00">Obesity I</text>
<polygon fill="none" stroke="black" points="371.12,-342 371.12,-392 427.12,-392 427.12,-342 371.12,-342"/>
<text text-anchor="start" x="378.12" y="-365.07" font-family="Times New Roman,serif" font-weight="bold" font-size="9.00">Obesity III</text>
<polygon fill="none" stroke="black" points="281.88,-341 281.88,-393 428.12,-393 428.12,-341 281.88,-341"/>
</g>
<!-- n_0_1_2_3_4_5_6&#45;&gt;n_0_1_2_4_6 -->
<g id="edge1" class="edge">
<title>n_0_1_2_3_4_5_6&#45;&gt;n_0_1_2_4_6</title>
<path fill="none" stroke="black" d="M416.52,-440.12C407.08,-429.05 396.52,-416.67 386.84,-405.33"/>
<polygon fill="black" stroke="black" points="389.79,-403.39 380.63,-398.05 384.46,-407.93 389.79,-403.39"/>
</g>
<!-- n_3_5 -->
<g id="node11" class="node">
<title>n_3_5</title>
<polygon fill="none" stroke="black" points="474.5,-354.38 474.5,-379.62 542.5,-379.62 542.5,-354.38 474.5,-354.38"/>
<text text-anchor="start" x="481.5" y="-365.07" font-family="Times New Roman,serif" font-weight="bold" font-size="9.00">Overweight II</text>
<polygon fill="none" stroke="black" points="542.5,-354.38 542.5,-379.62 595.5,-379.62 595.5,-354.38 542.5,-354.38"/>
<text text-anchor="start" x="549.5" y="-365.07" font-family="Times New Roman,serif" font-weight="bold" font-size="9.00">Obesity II</text>
<polygon fill="none" stroke="black" points="473.5,-353.38 473.5,-380.62 596.5,-380.62 596.5,-353.38 473.5,-353.38"/>
</g>
<!-- n_0_1_2_3_4_5_6&#45;&gt;n_3_5 -->
<g id="edge10" class="edge">
<title>n_0_1_2_3_4_5_6&#45;&gt;n_3_5</title>
<path fill="none" stroke="black" d="M473.48,-440.12C486.32,-425.06 501.25,-407.57 513.18,-393.58"/>
<polygon fill="black" stroke="black" points="515.73,-395.98 519.56,-386.1 510.4,-391.44 515.73,-395.98"/>
</g>
<!-- n_0_1_2_4 -->
<g id="node3" class="node">
<title>n_0_1_2_4</title>
<polygon fill="none" stroke="black" points="144.38,-248 144.38,-289 232.62,-289 232.62,-248 144.38,-248"/>
<text text-anchor="start" x="151.38" y="-274.45" font-family="Times New Roman,serif" font-weight="bold" font-size="9.00">Insufficient weight</text>
<text text-anchor="start" x="173.5" y="-265.45" font-family="Times New Roman,serif" font-weight="bold" font-size="9.00">Normal</text>
<text text-anchor="start" x="170.5" y="-256.45" font-family="Times New Roman,serif" font-weight="bold" font-size="9.00">Obesity I</text>
<polygon fill="none" stroke="black" points="232.62,-248 232.62,-289 297.62,-289 297.62,-248 232.62,-248"/>
<text text-anchor="start" x="239.62" y="-266.57" font-family="Times New Roman,serif" font-weight="bold" font-size="9.00">Overweight I</text>
<polygon fill="none" stroke="black" points="143.38,-247 143.38,-290 298.62,-290 298.62,-247 143.38,-247"/>
</g>
<!-- n_0_1_2_4_6&#45;&gt;n_0_1_2_4 -->
<g id="edge2" class="edge">
<title>n_0_1_2_4_6&#45;&gt;n_0_1_2_4</title>
<path fill="none" stroke="black" d="M314.8,-337.05C298.81,-325.54 280.4,-312.27 264.14,-300.56"/>
<polygon fill="black" stroke="black" points="266.23,-297.76 256.07,-294.76 262.14,-303.44 266.23,-297.76"/>
</g>
<!-- n_6 -->
<g id="node10" class="node">
<title>n_6</title>
<polygon fill="none" stroke="black" points="345,-255.88 345,-281.12 401,-281.12 401,-255.88 345,-255.88"/>
<text text-anchor="start" x="352" y="-266.57" font-family="Times New Roman,serif" font-weight="bold" font-size="9.00">Obesity III</text>
<polygon fill="none" stroke="black" points="344,-254.88 344,-282.12 402,-282.12 402,-254.88 344,-254.88"/>
</g>
<!-- n_0_1_2_4_6&#45;&gt;n_6 -->
<g id="edge9" class="edge">
<title>n_0_1_2_4_6&#45;&gt;n_6</title>
<path fill="none" stroke="black" d="M360.4,-337.05C362.74,-324.51 365.47,-309.89 367.78,-297.47"/>
<polygon fill="black" stroke="black" points="371.18,-298.33 369.58,-287.85 364.3,-297.04 371.18,-298.33"/>
</g>
<!-- n_0_1_4 -->
<g id="node4" class="node">
<title>n_0_1_4</title>
<polygon fill="none" stroke="black" points="77.88,-163 77.88,-195 127.88,-195 127.88,-163 77.88,-163"/>
<text text-anchor="start" x="87.88" y="-180.45" font-family="Times New Roman,serif" font-weight="bold" font-size="9.00">Normal</text>
<text text-anchor="start" x="84.88" y="-171.45" font-family="Times New Roman,serif" font-weight="bold" font-size="9.00">Obesity I</text>
<polygon fill="none" stroke="black" points="127.88,-163 127.88,-195 216.12,-195 216.12,-163 127.88,-163"/>
<text text-anchor="start" x="134.88" y="-177.07" font-family="Times New Roman,serif" font-weight="bold" font-size="9.00">Insufficient weight</text>
<polygon fill="none" stroke="black" points="76.88,-162 76.88,-196 217.12,-196 217.12,-162 76.88,-162"/>
</g>
<!-- n_0_1_2_4&#45;&gt;n_0_1_4 -->
<g id="edge3" class="edge">
<title>n_0_1_2_4&#45;&gt;n_0_1_4</title>
<path fill="none" stroke="black" d="M200.39,-243.13C191.28,-232.35 180.5,-219.62 171.03,-208.41"/>
<polygon fill="black" stroke="black" points="173.87,-206.36 164.74,-200.98 168.53,-210.88 173.87,-206.36"/>
</g>
<!-- n_2 -->
<g id="node9" class="node">
<title>n_2</title>
<polygon fill="none" stroke="black" points="263.5,-166.38 263.5,-191.62 328.5,-191.62 328.5,-166.38 263.5,-166.38"/>
<text text-anchor="start" x="270.5" y="-177.07" font-family="Times New Roman,serif" font-weight="bold" font-size="9.00">Overweight I</text>
<polygon fill="none" stroke="black" points="262.5,-165.38 262.5,-192.62 329.5,-192.62 329.5,-165.38 262.5,-165.38"/>
</g>
<!-- n_0_1_2_4&#45;&gt;n_2 -->
<g id="edge8" class="edge">
<title>n_0_1_2_4&#45;&gt;n_2</title>
<path fill="none" stroke="black" d="M241.89,-243.13C251.98,-231.36 264.07,-217.25 274.27,-205.36"/>
<polygon fill="black" stroke="black" points="276.79,-207.79 280.64,-197.92 271.47,-203.23 276.79,-207.79"/>
</g>
<!-- n_1_4 -->
<g id="node5" class="node">
<title>n_1_4</title>
<polygon fill="none" stroke="black" points="31,-84.38 31,-109.62 75,-109.62 75,-84.38 31,-84.38"/>
<text text-anchor="start" x="38" y="-95.08" font-family="Times New Roman,serif" font-weight="bold" font-size="9.00">Normal</text>
<polygon fill="none" stroke="black" points="75,-84.38 75,-109.62 125,-109.62 125,-84.38 75,-84.38"/>
<text text-anchor="start" x="82" y="-95.08" font-family="Times New Roman,serif" font-weight="bold" font-size="9.00">Obesity I</text>
<polygon fill="none" stroke="black" points="30,-83.38 30,-110.62 126,-110.62 126,-83.38 30,-83.38"/>
</g>
<!-- n_0_1_4&#45;&gt;n_1_4 -->
<g id="edge4" class="edge">
<title>n_0_1_4&#45;&gt;n_1_4</title>
<path fill="none" stroke="black" d="M129.94,-158.22C120.87,-147.71 109.62,-134.66 99.91,-123.41"/>
<polygon fill="black" stroke="black" points="102.7,-121.28 93.52,-115.99 97.4,-125.85 102.7,-121.28"/>
</g>
<!-- n_0 -->
<g id="node8" class="node">
<title>n_0</title>
<polygon fill="none" stroke="black" points="171.88,-84.38 171.88,-109.62 260.12,-109.62 260.12,-84.38 171.88,-84.38"/>
<text text-anchor="start" x="178.88" y="-95.08" font-family="Times New Roman,serif" font-weight="bold" font-size="9.00">Insufficient weight</text>
<polygon fill="none" stroke="black" points="170.88,-83.38 170.88,-110.62 261.12,-110.62 261.12,-83.38 170.88,-83.38"/>
</g>
<!-- n_0_1_4&#45;&gt;n_0 -->
<g id="edge7" class="edge">
<title>n_0_1_4&#45;&gt;n_0</title>
<path fill="none" stroke="black" d="M164.06,-158.22C173.13,-147.71 184.38,-134.66 194.09,-123.41"/>
<polygon fill="black" stroke="black" points="196.6,-125.85 200.48,-115.99 191.3,-121.28 196.6,-125.85"/>
</g>
<!-- n_1 -->
<g id="node6" class="node">
<title>n_1</title>
<polygon fill="none" stroke="black" points="9,-5.38 9,-30.62 53,-30.62 53,-5.38 9,-5.38"/>
<text text-anchor="start" x="16" y="-16.07" font-family="Times New Roman,serif" font-weight="bold" font-size="9.00">Normal</text>
<polygon fill="none" stroke="black" points="8,-4.38 8,-31.62 54,-31.62 54,-4.38 8,-4.38"/>
</g>
<!-- n_1_4&#45;&gt;n_1 -->
<g id="edge5" class="edge">
<title>n_1_4&#45;&gt;n_1</title>
<path fill="none" stroke="black" d="M67.8,-79.29C61.81,-69.47 54.09,-56.83 47.27,-45.66"/>
<polygon fill="black" stroke="black" points="50.33,-43.95 42.13,-37.23 44.35,-47.59 50.33,-43.95"/>
</g>
<!-- n_4 -->
<g id="node7" class="node">
<title>n_4</title>
<polygon fill="none" stroke="black" points="100,-5.38 100,-30.62 150,-30.62 150,-5.38 100,-5.38"/>
<text text-anchor="start" x="107" y="-16.07" font-family="Times New Roman,serif" font-weight="bold" font-size="9.00">Obesity I</text>
<polygon fill="none" stroke="black" points="99,-4.38 99,-31.62 151,-31.62 151,-4.38 99,-4.38"/>
</g>
<!-- n_1_4&#45;&gt;n_4 -->
<g id="edge6" class="edge">
<title>n_1_4&#45;&gt;n_4</title>
<path fill="none" stroke="black" d="M88.2,-79.29C94.19,-69.47 101.91,-56.83 108.73,-45.66"/>
<polygon fill="black" stroke="black" points="111.65,-47.59 113.87,-37.23 105.67,-43.95 111.65,-47.59"/>
</g>
<!-- n_3 -->
<g id="node12" class="node">
<title>n_3</title>
<polygon fill="none" stroke="black" points="483,-255.88 483,-281.12 551,-281.12 551,-255.88 483,-255.88"/>
<text text-anchor="start" x="490" y="-266.57" font-family="Times New Roman,serif" font-weight="bold" font-size="9.00">Overweight II</text>
<polygon fill="none" stroke="black" points="482,-254.88 482,-282.12 552,-282.12 552,-254.88 482,-254.88"/>
</g>
<!-- n_3_5&#45;&gt;n_3 -->
<g id="edge11" class="edge">
<title>n_3_5&#45;&gt;n_3</title>
<path fill="none" stroke="black" d="M531.86,-349.19C529.2,-334.89 525.31,-314.06 522.18,-297.28"/>
<polygon fill="black" stroke="black" points="525.71,-297.12 520.44,-287.93 518.83,-298.4 525.71,-297.12"/>
</g>
<!-- n_5 -->
<g id="node13" class="node">
<title>n_5</title>
<polygon fill="none" stroke="black" points="598.5,-255.88 598.5,-281.12 651.5,-281.12 651.5,-255.88 598.5,-255.88"/>
<text text-anchor="start" x="605.5" y="-266.57" font-family="Times New Roman,serif" font-weight="bold" font-size="9.00">Obesity II</text>
<polygon fill="none" stroke="black" points="597.5,-254.88 597.5,-282.12 652.5,-282.12 652.5,-254.88 597.5,-254.88"/>
</g>
<!-- n_3_5&#45;&gt;n_5 -->
<g id="edge12" class="edge">
<title>n_3_5&#45;&gt;n_5</title>
<path fill="none" stroke="black" d="M550.68,-349.19C564.79,-334.06 585.71,-311.63 601.76,-294.42"/>
<polygon fill="black" stroke="black" points="603.91,-297.25 608.17,-287.55 598.79,-292.47 603.91,-297.25"/>
</g>
</g>
</svg>
