<?xml version="1.0" encoding="UTF-8" standalone="no"?>
<!DOCTYPE svg PUBLIC "-//W3C//DTD SVG 1.1//EN"
 "http://www.w3.org/Graphics/SVG/1.1/DTD/svg11.dtd">
<!-- Generated by graphviz version 10.0.1 (20240210.2158)
 -->
<!-- Title: ND Pages: 1 -->
<svg width="570pt" height="638pt"
 viewBox="0.00 0.00 570.00 638.00" xmlns="http://www.w3.org/2000/svg" xmlns:xlink="http://www.w3.org/1999/xlink">
<g id="graph0" class="graph" transform="scale(1 1) rotate(0) translate(4 634)">
<title>ND</title>
<polygon fill="white" stroke="none" points="-4,4 -4,-634 566,-634 566,4 -4,4"/>
<!-- n_0_1_2_3_4_5_6 -->
<g id="node1" class="node">
<title>n_0_1_2_3_4_5_6</title>
<polygon fill="none" stroke="black" points="391.88,-557 391.88,-625 480.12,-625 480.12,-557 391.88,-557"/>
<text text-anchor="start" x="398.88" y="-610.45" font-family="Times New Roman,serif" font-weight="bold" font-size="9.00">Insufficient weight</text>
<text text-anchor="start" x="410.5" y="-601.45" font-family="Times New Roman,serif" font-weight="bold" font-size="9.00">Overweight I</text>
<text text-anchor="start" x="409" y="-592.45" font-family="Times New Roman,serif" font-weight="bold" font-size="9.00">Overweight II</text>
<text text-anchor="start" x="418" y="-583.45" font-family="Times New Roman,serif" font-weight="bold" font-size="9.00">Obesity I</text>
<text text-anchor="start" x="416.5" y="-574.45" font-family="Times New Roman,serif" font-weight="bold" font-size="9.00">Obesity II</text>
<text text-anchor="start" x="415" y="-565.45" font-family="Times New Roman,serif" font-weight="bold" font-size="9.00">Obesity III</text>
<polygon fill="none" stroke="black" points="480.12,-557 480.12,-625 524.12,-625 524.12,-557 480.12,-557"/>
<text text-anchor="start" x="487.12" y="-589.08" font-family="Times New Roman,serif" font-weight="bold" font-size="9.00">Normal</text>
<polygon fill="none" stroke="black" points="390.88,-556 390.88,-626 525.12,-626 525.12,-556 390.88,-556"/>
</g>
<!-- n_0_2_3_4_5_6 -->
<g id="node2" class="node">
<title>n_0_2_3_4_5_6</title>
<polygon fill="none" stroke="black" points="308.38,-445 308.38,-504 396.62,-504 396.62,-445 308.38,-445"/>
<text text-anchor="start" x="315.38" y="-489.45" font-family="Times New Roman,serif" font-weight="bold" font-size="9.00">Insufficient weight</text>
<text text-anchor="start" x="325.5" y="-480.45" font-family="Times New Roman,serif" font-weight="bold" font-size="9.00">Overweight II</text>
<text text-anchor="start" x="334.5" y="-471.45" font-family="Times New Roman,serif" font-weight="bold" font-size="9.00">Obesity I</text>
<text text-anchor="start" x="333" y="-462.45" font-family="Times New Roman,serif" font-weight="bold" font-size="9.00">Obesity II</text>
<text text-anchor="start" x="331.5" y="-453.45" font-family="Times New Roman,serif" font-weight="bold" font-size="9.00">Obesity III</text>
<polygon fill="none" stroke="black" points="396.62,-445 396.62,-504 461.62,-504 461.62,-445 396.62,-445"/>
<text text-anchor="start" x="403.62" y="-472.57" font-family="Times New Roman,serif" font-weight="bold" font-size="9.00">Overweight I</text>
<polygon fill="none" stroke="black" points="307.38,-444 307.38,-505 462.62,-505 462.62,-444 307.38,-444"/>
</g>
<!-- n_0_1_2_3_4_5_6&#45;&gt;n_0_2_3_4_5_6 -->
<g id="edge1" class="edge">
<title>n_0_1_2_3_4_5_6&#45;&gt;n_0_2_3_4_5_6</title>
<path fill="none" stroke="black" d="M433.89,-552.19C426.96,-541.31 419.34,-529.36 412.23,-518.21"/>
<polygon fill="black" stroke="black" points="415.28,-516.48 406.95,-509.93 409.37,-520.24 415.28,-516.48"/>
</g>
<!-- n_1 -->
<g id="node13" class="node">
<title>n_1</title>
<polygon fill="none" stroke="black" points="509,-461.88 509,-487.12 553,-487.12 553,-461.88 509,-461.88"/>
<text text-anchor="start" x="516" y="-472.57" font-family="Times New Roman,serif" font-weight="bold" font-size="9.00">Normal</text>
<polygon fill="none" stroke="black" points="508,-460.88 508,-488.12 554,-488.12 554,-460.88 508,-460.88"/>
</g>
<!-- n_0_1_2_3_4_5_6&#45;&gt;n_1 -->
<g id="edge12" class="edge">
<title>n_0_1_2_3_4_5_6&#45;&gt;n_1</title>
<path fill="none" stroke="black" d="M482.11,-552.19C492.57,-535.78 504.57,-516.96 514.06,-502.07"/>
<polygon fill="black" stroke="black" points="516.95,-504.05 519.37,-493.74 511.04,-500.29 516.95,-504.05"/>
</g>
<!-- n_0_3_4_5_6 -->
<g id="node3" class="node">
<title>n_0_3_4_5_6</title>
<polygon fill="none" stroke="black" points="227.88,-342 227.88,-392 295.88,-392 295.88,-342 227.88,-342"/>
<text text-anchor="start" x="234.88" y="-377.45" font-family="Times New Roman,serif" font-weight="bold" font-size="9.00">Overweight II</text>
<text text-anchor="start" x="243.88" y="-368.45" font-family="Times New Roman,serif" font-weight="bold" font-size="9.00">Obesity I</text>
<text text-anchor="start" x="242.38" y="-359.45" font-family="Times New Roman,serif" font-weight="bold" font-size="9.00">Obesity II</text>
<text text-anchor="start" x="240.88" y="-350.45" font-family="Times New Roman,serif" font-weight="bold" font-size="9.00">Obesity III</text>
<polygon fill="none" stroke="black" points="295.88,-342 295.88,-392 384.12,-392 384.12,-342 295.88,-342"/>
<text text-anchor="start" x="302.88" y="-365.07" font-family="Times New Roman,serif" font-weight="bold" font-size="9.00">Insufficient weight</text>
<polygon fill="none" stroke="black" points="226.88,-341 226.88,-393 385.12,-393 385.12,-341 226.88,-341"/>
</g>
<!-- n_0_2_3_4_5_6&#45;&gt;n_0_3_4_5_6 -->
<g id="edge2" class="edge">
<title>n_0_2_3_4_5_6&#45;&gt;n_0_3_4_5_6</title>
<path fill="none" stroke="black" d="M360,-440.12C351.88,-429.27 342.81,-417.16 334.45,-406"/>
<polygon fill="black" stroke="black" points="337.34,-404.02 328.55,-398.11 331.74,-408.21 337.34,-404.02"/>
</g>
<!-- n_2 -->
<g id="node12" class="node">
<title>n_2</title>
<polygon fill="none" stroke="black" points="431.5,-354.38 431.5,-379.62 496.5,-379.62 496.5,-354.38 431.5,-354.38"/>
<text text-anchor="start" x="438.5" y="-365.07" font-family="Times New Roman,serif" font-weight="bold" font-size="9.00">Overweight I</text>
<polygon fill="none" stroke="black" points="430.5,-353.38 430.5,-380.62 497.5,-380.62 497.5,-353.38 430.5,-353.38"/>
</g>
<!-- n_0_2_3_4_5_6&#45;&gt;n_2 -->
<g id="edge11" class="edge">
<title>n_0_2_3_4_5_6&#45;&gt;n_2</title>
<path fill="none" stroke="black" d="M410,-440.12C421.16,-425.21 434.12,-407.9 444.55,-393.98"/>
<polygon fill="black" stroke="black" points="447.21,-396.26 450.4,-386.16 441.6,-392.07 447.21,-396.26"/>
</g>
<!-- n_3_4_5_6 -->
<g id="node4" class="node">
<title>n_3_4_5_6</title>
<polygon fill="none" stroke="black" points="172,-248 172,-289 240,-289 240,-248 172,-248"/>
<text text-anchor="start" x="179" y="-274.45" font-family="Times New Roman,serif" font-weight="bold" font-size="9.00">Overweight II</text>
<text text-anchor="start" x="186.5" y="-265.45" font-family="Times New Roman,serif" font-weight="bold" font-size="9.00">Obesity II</text>
<text text-anchor="start" x="185" y="-256.45" font-family="Times New Roman,serif" font-weight="bold" font-size="9.00">Obesity III</text>
<polygon fill="none" stroke="black" points="240,-248 240,-289 290,-289 290,-248 240,-248"/>
<text text-anchor="start" x="247" y="-266.57" font-family="Times New Roman,serif" font-weight="bold" font-size="9.00">Obesity I</text>
<polygon fill="none" stroke="black" points="171,-247 171,-290 291,-290 291,-247 171,-247"/>
</g>
<!-- n_0_3_4_5_6&#45;&gt;n_3_4_5_6 -->
<g id="edge3" class="edge">
<title>n_0_3_4_5_6&#45;&gt;n_3_4_5_6</title>
<path fill="none" stroke="black" d="M283.5,-337.05C275.14,-326.29 265.59,-314 256.94,-302.88"/>
<polygon fill="black" stroke="black" points="259.77,-300.82 250.87,-295.07 254.25,-305.11 259.77,-300.82"/>
</g>
<!-- n_0 -->
<g id="node11" class="node">
<title>n_0</title>
<polygon fill="none" stroke="black" points="336.88,-255.88 336.88,-281.12 425.12,-281.12 425.12,-255.88 336.88,-255.88"/>
<text text-anchor="start" x="343.88" y="-266.57" font-family="Times New Roman,serif" font-weight="bold" font-size="9.00">Insufficient weight</text>
<polygon fill="none" stroke="black" points="335.88,-254.88 335.88,-282.12 426.12,-282.12 426.12,-254.88 335.88,-254.88"/>
</g>
<!-- n_0_3_4_5_6&#45;&gt;n_0 -->
<g id="edge10" class="edge">
<title>n_0_3_4_5_6&#45;&gt;n_0</title>
<path fill="none" stroke="black" d="M328.5,-337.05C338.85,-323.73 351.02,-308.07 361.04,-295.19"/>
<polygon fill="black" stroke="black" points="363.59,-297.6 366.96,-287.56 358.06,-293.31 363.59,-297.6"/>
</g>
<!-- n_3_5_6 -->
<g id="node5" class="node">
<title>n_3_5_6</title>
<polygon fill="none" stroke="black" points="104.5,-163 104.5,-195 172.5,-195 172.5,-163 104.5,-163"/>
<text text-anchor="start" x="111.5" y="-180.45" font-family="Times New Roman,serif" font-weight="bold" font-size="9.00">Overweight II</text>
<text text-anchor="start" x="117.5" y="-171.45" font-family="Times New Roman,serif" font-weight="bold" font-size="9.00">Obesity III</text>
<polygon fill="none" stroke="black" points="172.5,-163 172.5,-195 225.5,-195 225.5,-163 172.5,-163"/>
<text text-anchor="start" x="179.5" y="-177.07" font-family="Times New Roman,serif" font-weight="bold" font-size="9.00">Obesity II</text>
<polygon fill="none" stroke="black" points="103.5,-162 103.5,-196 226.5,-196 226.5,-162 103.5,-162"/>
</g>
<!-- n_3_4_5_6&#45;&gt;n_3_5_6 -->
<g id="edge4" class="edge">
<title>n_3_4_5_6&#45;&gt;n_3_5_6</title>
<path fill="none" stroke="black" d="M212.62,-243.13C204.57,-232.46 195.07,-219.87 186.68,-208.75"/>
<polygon fill="black" stroke="black" points="189.68,-206.91 180.87,-201.03 184.09,-211.13 189.68,-206.91"/>
</g>
<!-- n_4 -->
<g id="node10" class="node">
<title>n_4</title>
<polygon fill="none" stroke="black" points="273,-166.38 273,-191.62 323,-191.62 323,-166.38 273,-166.38"/>
<text text-anchor="start" x="280" y="-177.07" font-family="Times New Roman,serif" font-weight="bold" font-size="9.00">Obesity I</text>
<polygon fill="none" stroke="black" points="272,-165.38 272,-192.62 324,-192.62 324,-165.38 272,-165.38"/>
</g>
<!-- n_3_4_5_6&#45;&gt;n_4 -->
<g id="edge9" class="edge">
<title>n_3_4_5_6&#45;&gt;n_4</title>
<path fill="none" stroke="black" d="M249.66,-243.13C258.58,-231.48 269.27,-217.53 278.32,-205.71"/>
<polygon fill="black" stroke="black" points="280.94,-208.04 284.24,-197.97 275.38,-203.78 280.94,-208.04"/>
</g>
<!-- n_3_6 -->
<g id="node6" class="node">
<title>n_3_6</title>
<polygon fill="none" stroke="black" points="35,-84.38 35,-109.62 103,-109.62 103,-84.38 35,-84.38"/>
<text text-anchor="start" x="42" y="-95.08" font-family="Times New Roman,serif" font-weight="bold" font-size="9.00">Overweight II</text>
<polygon fill="none" stroke="black" points="103,-84.38 103,-109.62 159,-109.62 159,-84.38 103,-84.38"/>
<text text-anchor="start" x="110" y="-95.08" font-family="Times New Roman,serif" font-weight="bold" font-size="9.00">Obesity III</text>
<polygon fill="none" stroke="black" points="34,-83.38 34,-110.62 160,-110.62 160,-83.38 34,-83.38"/>
</g>
<!-- n_3_5_6&#45;&gt;n_3_6 -->
<g id="edge5" class="edge">
<title>n_3_5_6&#45;&gt;n_3_6</title>
<path fill="none" stroke="black" d="M148.19,-158.22C139.25,-147.71 128.16,-134.66 118.6,-123.41"/>
<polygon fill="black" stroke="black" points="121.44,-121.35 112.3,-116 116.11,-125.88 121.44,-121.35"/>
</g>
<!-- n_5 -->
<g id="node9" class="node">
<title>n_5</title>
<polygon fill="none" stroke="black" points="206.5,-84.38 206.5,-109.62 259.5,-109.62 259.5,-84.38 206.5,-84.38"/>
<text text-anchor="start" x="213.5" y="-95.08" font-family="Times New Roman,serif" font-weight="bold" font-size="9.00">Obesity II</text>
<polygon fill="none" stroke="black" points="205.5,-83.38 205.5,-110.62 260.5,-110.62 260.5,-83.38 205.5,-83.38"/>
</g>
<!-- n_3_5_6&#45;&gt;n_5 -->
<g id="edge8" class="edge">
<title>n_3_5_6&#45;&gt;n_5</title>
<path fill="none" stroke="black" d="M181.81,-158.22C190.75,-147.71 201.84,-134.66 211.4,-123.41"/>
<polygon fill="black" stroke="black" points="213.89,-125.88 217.7,-116 208.56,-121.35 213.89,-125.88"/>
</g>
<!-- n_3 -->
<g id="node7" class="node">
<title>n_3</title>
<polygon fill="none" stroke="black" points="9,-5.38 9,-30.62 77,-30.62 77,-5.38 9,-5.38"/>
<text text-anchor="start" x="16" y="-16.07" font-family="Times New Roman,serif" font-weight="bold" font-size="9.00">Overweight II</text>
<polygon fill="none" stroke="black" points="8,-4.38 8,-31.62 78,-31.62 78,-4.38 8,-4.38"/>
</g>
<!-- n_3_6&#45;&gt;n_3 -->
<g id="edge6" class="edge">
<title>n_3_6&#45;&gt;n_3</title>
<path fill="none" stroke="black" d="M85.28,-79.29C78.33,-69.37 69.35,-56.57 61.46,-45.32"/>
<polygon fill="black" stroke="black" points="64.36,-43.36 55.75,-37.18 58.63,-47.38 64.36,-43.36"/>
</g>
<!-- n_6 -->
<g id="node8" class="node">
<title>n_6</title>
<polygon fill="none" stroke="black" points="124,-5.38 124,-30.62 180,-30.62 180,-5.38 124,-5.38"/>
<text text-anchor="start" x="131" y="-16.07" font-family="Times New Roman,serif" font-weight="bold" font-size="9.00">Obesity III</text>
<polygon fill="none" stroke="black" points="123,-4.38 123,-31.62 181,-31.62 181,-4.38 123,-4.38"/>
</g>
<!-- n_3_6&#45;&gt;n_6 -->
<g id="edge7" class="edge">
<title>n_3_6&#45;&gt;n_6</title>
<path fill="none" stroke="black" d="M108.93,-79.29C116.09,-69.27 125.35,-56.31 133.44,-44.98"/>
<polygon fill="black" stroke="black" points="136.06,-47.34 139.02,-37.17 130.36,-43.28 136.06,-47.34"/>
</g>
</g>
</svg>
