<?xml version="1.0" encoding="UTF-8" standalone="no"?>
<!DOCTYPE svg PUBLIC "-//W3C//DTD SVG 1.1//EN"
 "http://www.w3.org/Graphics/SVG/1.1/DTD/svg11.dtd">
<!-- Generated by graphviz version 10.0.1 (20240210.2158)
 -->
<!-- Title: ND Pages: 1 -->
<svg width="694pt" height="414pt"
 viewBox="0.00 0.00 694.00 414.00" xmlns="http://www.w3.org/2000/svg" xmlns:xlink="http://www.w3.org/1999/xlink">
<g id="graph0" class="graph" transform="scale(1 1) rotate(0) translate(4 410)">
<title>ND</title>
<polygon fill="white" stroke="none" points="-4,4 -4,-410 690,-410 690,4 -4,4"/>
<!-- n_0_1_2_3_4_5_6 -->
<g id="node1" class="node">
<title>n_0_1_2_3_4_5_6</title>
<polygon fill="none" stroke="black" points="380.38,-342 380.38,-401 468.62,-401 468.62,-342 380.38,-342"/>
<text text-anchor="start" x="387.38" y="-386.45" font-family="Times New Roman,serif" font-weight="bold" font-size="9.00">Insufficient weight</text>
<text text-anchor="start" x="409.5" y="-377.45" font-family="Times New Roman,serif" font-weight="bold" font-size="9.00">Normal</text>
<text text-anchor="start" x="397.5" y="-368.45" font-family="Times New Roman,serif" font-weight="bold" font-size="9.00">Overweight II</text>
<text text-anchor="start" x="406.5" y="-359.45" font-family="Times New Roman,serif" font-weight="bold" font-size="9.00">Obesity I</text>
<text text-anchor="start" x="405" y="-350.45" font-family="Times New Roman,serif" font-weight="bold" font-size="9.00">Obesity II</text>
<polygon fill="none" stroke="black" points="468.62,-342 468.62,-401 533.62,-401 533.62,-342 468.62,-342"/>
<text text-anchor="start" x="475.62" y="-372.95" font-family="Times New Roman,serif" font-weight="bold" font-size="9.00">Overweight I</text>
<text text-anchor="start" x="480.12" y="-363.95" font-family="Times New Roman,serif" font-weight="bold" font-size="9.00">Obesity III</text>
<polygon fill="none" stroke="black" points="379.38,-341 379.38,-402 534.62,-402 534.62,-341 379.38,-341"/>
</g>
<!-- n_0_1_3_4_5 -->
<g id="node2" class="node">
<title>n_0_1_3_4_5</title>
<polygon fill="none" stroke="black" points="285.88,-248 285.88,-289 353.88,-289 353.88,-248 285.88,-248"/>
<text text-anchor="start" x="304.88" y="-274.45" font-family="Times New Roman,serif" font-weight="bold" font-size="9.00">Normal</text>
<text text-anchor="start" x="292.88" y="-265.45" font-family="Times New Roman,serif" font-weight="bold" font-size="9.00">Overweight II</text>
<text text-anchor="start" x="300.38" y="-256.45" font-family="Times New Roman,serif" font-weight="bold" font-size="9.00">Obesity II</text>
<polygon fill="none" stroke="black" points="353.88,-248 353.88,-289 442.12,-289 442.12,-248 353.88,-248"/>
<text text-anchor="start" x="360.88" y="-269.95" font-family="Times New Roman,serif" font-weight="bold" font-size="9.00">Insufficient weight</text>
<text text-anchor="start" x="380" y="-260.95" font-family="Times New Roman,serif" font-weight="bold" font-size="9.00">Obesity I</text>
<polygon fill="none" stroke="black" points="284.88,-247 284.88,-290 443.12,-290 443.12,-247 284.88,-247"/>
</g>
<!-- n_0_1_2_3_4_5_6&#45;&gt;n_0_1_3_4_5 -->
<g id="edge1" class="edge">
<title>n_0_1_2_3_4_5_6&#45;&gt;n_0_1_3_4_5</title>
<path fill="none" stroke="black" d="M426.29,-337.15C415.92,-325.89 404.36,-313.33 394.04,-302.12"/>
<polygon fill="black" stroke="black" points="396.8,-299.96 387.46,-294.97 391.65,-304.7 396.8,-299.96"/>
</g>
<!-- n_2_6 -->
<g id="node11" class="node">
<title>n_2_6</title>
<polygon fill="none" stroke="black" points="489.5,-255.88 489.5,-281.12 554.5,-281.12 554.5,-255.88 489.5,-255.88"/>
<text text-anchor="start" x="496.5" y="-266.57" font-family="Times New Roman,serif" font-weight="bold" font-size="9.00">Overweight I</text>
<polygon fill="none" stroke="black" points="554.5,-255.88 554.5,-281.12 610.5,-281.12 610.5,-255.88 554.5,-255.88"/>
<text text-anchor="start" x="561.5" y="-266.57" font-family="Times New Roman,serif" font-weight="bold" font-size="9.00">Obesity III</text>
<polygon fill="none" stroke="black" points="488.5,-254.88 488.5,-282.12 611.5,-282.12 611.5,-254.88 488.5,-254.88"/>
</g>
<!-- n_0_1_2_3_4_5_6&#45;&gt;n_2_6 -->
<g id="edge10" class="edge">
<title>n_0_1_2_3_4_5_6&#45;&gt;n_2_6</title>
<path fill="none" stroke="black" d="M487.71,-337.15C500.43,-323.33 514.95,-307.57 526.76,-294.74"/>
<polygon fill="black" stroke="black" points="529.23,-297.22 533.43,-287.49 524.08,-292.48 529.23,-297.22"/>
</g>
<!-- n_1_3_5 -->
<g id="node3" class="node">
<title>n_1_3_5</title>
<polygon fill="none" stroke="black" points="136.5,-163 136.5,-195 204.5,-195 204.5,-163 136.5,-163"/>
<text text-anchor="start" x="155.5" y="-180.45" font-family="Times New Roman,serif" font-weight="bold" font-size="9.00">Normal</text>
<text text-anchor="start" x="143.5" y="-171.45" font-family="Times New Roman,serif" font-weight="bold" font-size="9.00">Overweight II</text>
<polygon fill="none" stroke="black" points="204.5,-163 204.5,-195 257.5,-195 257.5,-163 204.5,-163"/>
<text text-anchor="start" x="211.5" y="-177.07" font-family="Times New Roman,serif" font-weight="bold" font-size="9.00">Obesity II</text>
<polygon fill="none" stroke="black" points="135.5,-162 135.5,-196 258.5,-196 258.5,-162 135.5,-162"/>
</g>
<!-- n_0_1_3_4_5&#45;&gt;n_1_3_5 -->
<g id="edge2" class="edge">
<title>n_0_1_3_4_5&#45;&gt;n_1_3_5</title>
<path fill="none" stroke="black" d="M317.48,-243.13C294.97,-231.33 267.96,-217.18 245.23,-205.27"/>
<polygon fill="black" stroke="black" points="246.93,-202.21 236.45,-200.67 243.69,-208.41 246.93,-202.21"/>
</g>
<!-- n_0_4 -->
<g id="node8" class="node">
<title>n_0_4</title>
<polygon fill="none" stroke="black" points="304.88,-166.38 304.88,-191.62 393.12,-191.62 393.12,-166.38 304.88,-166.38"/>
<text text-anchor="start" x="311.88" y="-177.07" font-family="Times New Roman,serif" font-weight="bold" font-size="9.00">Insufficient weight</text>
<polygon fill="none" stroke="black" points="393.12,-166.38 393.12,-191.62 443.12,-191.62 443.12,-166.38 393.12,-166.38"/>
<text text-anchor="start" x="400.12" y="-177.07" font-family="Times New Roman,serif" font-weight="bold" font-size="9.00">Obesity I</text>
<polygon fill="none" stroke="black" points="303.88,-165.38 303.88,-192.62 444.12,-192.62 444.12,-165.38 303.88,-165.38"/>
</g>
<!-- n_0_1_3_4_5&#45;&gt;n_0_4 -->
<g id="edge7" class="edge">
<title>n_0_1_3_4_5&#45;&gt;n_0_4</title>
<path fill="none" stroke="black" d="M366.79,-243.13C368.02,-232.28 369.49,-219.45 370.78,-208.19"/>
<polygon fill="black" stroke="black" points="374.25,-208.61 371.91,-198.27 367.3,-207.81 374.25,-208.61"/>
</g>
<!-- n_1_3 -->
<g id="node4" class="node">
<title>n_1_3</title>
<polygon fill="none" stroke="black" points="26,-84.38 26,-109.62 70,-109.62 70,-84.38 26,-84.38"/>
<text text-anchor="start" x="33" y="-95.08" font-family="Times New Roman,serif" font-weight="bold" font-size="9.00">Normal</text>
<polygon fill="none" stroke="black" points="70,-84.38 70,-109.62 138,-109.62 138,-84.38 70,-84.38"/>
<text text-anchor="start" x="77" y="-95.08" font-family="Times New Roman,serif" font-weight="bold" font-size="9.00">Overweight II</text>
<polygon fill="none" stroke="black" points="25,-83.38 25,-110.62 139,-110.62 139,-83.38 25,-83.38"/>
</g>
<!-- n_1_3_5&#45;&gt;n_1_3 -->
<g id="edge3" class="edge">
<title>n_1_3_5&#45;&gt;n_1_3</title>
<path fill="none" stroke="black" d="M168.28,-158.02C152.26,-146.88 132.23,-132.94 115.5,-121.31"/>
<polygon fill="black" stroke="black" points="117.54,-118.46 107.33,-115.62 113.54,-124.21 117.54,-118.46"/>
</g>
<!-- n_5 -->
<g id="node7" class="node">
<title>n_5</title>
<polygon fill="none" stroke="black" points="185.5,-84.38 185.5,-109.62 238.5,-109.62 238.5,-84.38 185.5,-84.38"/>
<text text-anchor="start" x="192.5" y="-95.08" font-family="Times New Roman,serif" font-weight="bold" font-size="9.00">Obesity II</text>
<polygon fill="none" stroke="black" points="184.5,-83.38 184.5,-110.62 239.5,-110.62 239.5,-83.38 184.5,-83.38"/>
</g>
<!-- n_1_3_5&#45;&gt;n_5 -->
<g id="edge6" class="edge">
<title>n_1_3_5&#45;&gt;n_5</title>
<path fill="none" stroke="black" d="M200.71,-158.22C202.52,-148.54 204.74,-136.72 206.73,-126.11"/>
<polygon fill="black" stroke="black" points="210.16,-126.81 208.56,-116.33 203.28,-125.52 210.16,-126.81"/>
</g>
<!-- n_1 -->
<g id="node5" class="node">
<title>n_1</title>
<polygon fill="none" stroke="black" points="9,-5.38 9,-30.62 53,-30.62 53,-5.38 9,-5.38"/>
<text text-anchor="start" x="16" y="-16.07" font-family="Times New Roman,serif" font-weight="bold" font-size="9.00">Normal</text>
<polygon fill="none" stroke="black" points="8,-4.38 8,-31.62 54,-31.62 54,-4.38 8,-4.38"/>
</g>
<!-- n_1_3&#45;&gt;n_1 -->
<g id="edge4" class="edge">
<title>n_1_3&#45;&gt;n_1</title>
<path fill="none" stroke="black" d="M70.93,-79.29C64.36,-69.37 55.89,-56.57 48.43,-45.32"/>
<polygon fill="black" stroke="black" points="51.5,-43.61 43.06,-37.2 45.66,-47.47 51.5,-43.61"/>
</g>
<!-- n_3 -->
<g id="node6" class="node">
<title>n_3</title>
<polygon fill="none" stroke="black" points="100,-5.38 100,-30.62 168,-30.62 168,-5.38 100,-5.38"/>
<text text-anchor="start" x="107" y="-16.07" font-family="Times New Roman,serif" font-weight="bold" font-size="9.00">Overweight II</text>
<polygon fill="none" stroke="black" points="99,-4.38 99,-31.62 169,-31.62 169,-4.38 99,-4.38"/>
</g>
<!-- n_1_3&#45;&gt;n_3 -->
<g id="edge5" class="edge">
<title>n_1_3&#45;&gt;n_3</title>
<path fill="none" stroke="black" d="M93.28,-79.29C99.98,-69.37 108.63,-56.57 116.23,-45.32"/>
<polygon fill="black" stroke="black" points="119.02,-47.44 121.71,-37.2 113.22,-43.52 119.02,-47.44"/>
</g>
<!-- n_0 -->
<g id="node9" class="node">
<title>n_0</title>
<polygon fill="none" stroke="black" points="314.88,-84.38 314.88,-109.62 403.12,-109.62 403.12,-84.38 314.88,-84.38"/>
<text text-anchor="start" x="321.88" y="-95.08" font-family="Times New Roman,serif" font-weight="bold" font-size="9.00">Insufficient weight</text>
<polygon fill="none" stroke="black" points="313.88,-83.38 313.88,-110.62 404.12,-110.62 404.12,-83.38 313.88,-83.38"/>
</g>
<!-- n_0_4&#45;&gt;n_0 -->
<g id="edge8" class="edge">
<title>n_0_4&#45;&gt;n_0</title>
<path fill="none" stroke="black" d="M370.82,-161.03C368.91,-150.85 366.43,-137.65 364.24,-125.96"/>
<polygon fill="black" stroke="black" points="367.74,-125.61 362.46,-116.43 360.86,-126.9 367.74,-125.61"/>
</g>
<!-- n_4 -->
<g id="node10" class="node">
<title>n_4</title>
<polygon fill="none" stroke="black" points="450,-84.38 450,-109.62 500,-109.62 500,-84.38 450,-84.38"/>
<text text-anchor="start" x="457" y="-95.08" font-family="Times New Roman,serif" font-weight="bold" font-size="9.00">Obesity I</text>
<polygon fill="none" stroke="black" points="449,-83.38 449,-110.62 501,-110.62 501,-83.38 449,-83.38"/>
</g>
<!-- n_0_4&#45;&gt;n_4 -->
<g id="edge9" class="edge">
<title>n_0_4&#45;&gt;n_4</title>
<path fill="none" stroke="black" d="M395.42,-161.03C409.75,-149.69 428.81,-134.58 444.69,-122.01"/>
<polygon fill="black" stroke="black" points="446.76,-124.83 452.42,-115.88 442.41,-119.35 446.76,-124.83"/>
</g>
<!-- n_2 -->
<g id="node12" class="node">
<title>n_2</title>
<polygon fill="none" stroke="black" points="508.5,-166.38 508.5,-191.62 573.5,-191.62 573.5,-166.38 508.5,-166.38"/>
<text text-anchor="start" x="515.5" y="-177.07" font-family="Times New Roman,serif" font-weight="bold" font-size="9.00">Overweight I</text>
<polygon fill="none" stroke="black" points="507.5,-165.38 507.5,-192.62 574.5,-192.62 574.5,-165.38 507.5,-165.38"/>
</g>
<!-- n_2_6&#45;&gt;n_2 -->
<g id="edge11" class="edge">
<title>n_2_6&#45;&gt;n_2</title>
<path fill="none" stroke="black" d="M548.26,-250.63C547.02,-238.52 545.31,-221.94 543.87,-207.88"/>
<polygon fill="black" stroke="black" points="547.39,-207.91 542.88,-198.32 540.43,-208.63 547.39,-207.91"/>
</g>
<!-- n_6 -->
<g id="node13" class="node">
<title>n_6</title>
<polygon fill="none" stroke="black" points="621,-166.38 621,-191.62 677,-191.62 677,-166.38 621,-166.38"/>
<text text-anchor="start" x="628" y="-177.07" font-family="Times New Roman,serif" font-weight="bold" font-size="9.00">Obesity III</text>
<polygon fill="none" stroke="black" points="620,-165.38 620,-192.62 678,-192.62 678,-165.38 620,-165.38"/>
</g>
<!-- n_2_6&#45;&gt;n_6 -->
<g id="edge12" class="edge">
<title>n_2_6&#45;&gt;n_6</title>
<path fill="none" stroke="black" d="M569.09,-250.63C584.02,-237.43 604.97,-218.92 621.68,-204.15"/>
<polygon fill="black" stroke="black" points="623.66,-207.07 628.84,-197.82 619.03,-201.82 623.66,-207.07"/>
</g>
</g>
</svg>
