<?xml version="1.0" encoding="UTF-8" standalone="no"?>
<!DOCTYPE svg PUBLIC "-//W3C//DTD SVG 1.1//EN"
 "http://www.w3.org/Graphics/SVG/1.1/DTD/svg11.dtd">
<!-- Generated by graphviz version 10.0.1 (20240210.2158)
 -->
<!-- Title: ND Pages: 1 -->
<svg width="558pt" height="535pt"
 viewBox="0.00 0.00 557.50 535.00" xmlns="http://www.w3.org/2000/svg" xmlns:xlink="http://www.w3.org/1999/xlink">
<g id="graph0" class="graph" transform="scale(1 1) rotate(0) translate(4 531)">
<title>ND</title>
<polygon fill="white" stroke="none" points="-4,4 -4,-531 553.5,-531 553.5,4 -4,4"/>
<!-- n_0_1_2_3_4_5_6 -->
<g id="node1" class="node">
<title>n_0_1_2_3_4_5_6</title>
<polygon fill="none" stroke="black" points="352.38,-454 352.38,-522 440.62,-522 440.62,-454 352.38,-454"/>
<text text-anchor="start" x="359.38" y="-507.45" font-family="Times New Roman,serif" font-weight="bold" font-size="9.00">Insufficient weight</text>
<text text-anchor="start" x="381.5" y="-498.45" font-family="Times New Roman,serif" font-weight="bold" font-size="9.00">Normal</text>
<text text-anchor="start" x="369.5" y="-489.45" font-family="Times New Roman,serif" font-weight="bold" font-size="9.00">Overweight II</text>
<text text-anchor="start" x="378.5" y="-480.45" font-family="Times New Roman,serif" font-weight="bold" font-size="9.00">Obesity I</text>
<text text-anchor="start" x="377" y="-471.45" font-family="Times New Roman,serif" font-weight="bold" font-size="9.00">Obesity II</text>
<text text-anchor="start" x="375.5" y="-462.45" font-family="Times New Roman,serif" font-weight="bold" font-size="9.00">Obesity III</text>
<polygon fill="none" stroke="black" points="440.62,-454 440.62,-522 505.62,-522 505.62,-454 440.62,-454"/>
<text text-anchor="start" x="447.62" y="-486.07" font-family="Times New Roman,serif" font-weight="bold" font-size="9.00">Overweight I</text>
<polygon fill="none" stroke="black" points="351.38,-453 351.38,-523 506.62,-523 506.62,-453 351.38,-453"/>
</g>
<!-- n_0_1_3_4_5_6 -->
<g id="node2" class="node">
<title>n_0_1_3_4_5_6</title>
<polygon fill="none" stroke="black" points="271.88,-342 271.88,-401 360.12,-401 360.12,-342 271.88,-342"/>
<text text-anchor="start" x="278.88" y="-386.45" font-family="Times New Roman,serif" font-weight="bold" font-size="9.00">Insufficient weight</text>
<text text-anchor="start" x="301" y="-377.45" font-family="Times New Roman,serif" font-weight="bold" font-size="9.00">Normal</text>
<text text-anchor="start" x="298" y="-368.45" font-family="Times New Roman,serif" font-weight="bold" font-size="9.00">Obesity I</text>
<text text-anchor="start" x="296.5" y="-359.45" font-family="Times New Roman,serif" font-weight="bold" font-size="9.00">Obesity II</text>
<text text-anchor="start" x="295" y="-350.45" font-family="Times New Roman,serif" font-weight="bold" font-size="9.00">Obesity III</text>
<polygon fill="none" stroke="black" points="360.12,-342 360.12,-401 428.12,-401 428.12,-342 360.12,-342"/>
<text text-anchor="start" x="367.12" y="-369.57" font-family="Times New Roman,serif" font-weight="bold" font-size="9.00">Overweight II</text>
<polygon fill="none" stroke="black" points="270.88,-341 270.88,-402 429.12,-402 429.12,-341 270.88,-341"/>
</g>
<!-- n_0_1_2_3_4_5_6&#45;&gt;n_0_1_3_4_5_6 -->
<g id="edge1" class="edge">
<title>n_0_1_2_3_4_5_6&#45;&gt;n_0_1_3_4_5_6</title>
<path fill="none" stroke="black" d="M402.91,-449.19C395.33,-438.2 387,-426.12 379.23,-414.87"/>
<polygon fill="black" stroke="black" points="382.29,-413.14 373.73,-406.9 376.53,-417.12 382.29,-413.14"/>
</g>
<!-- n_2 -->
<g id="node13" class="node">
<title>n_2</title>
<polygon fill="none" stroke="black" points="475.5,-358.88 475.5,-384.12 540.5,-384.12 540.5,-358.88 475.5,-358.88"/>
<text text-anchor="start" x="482.5" y="-369.57" font-family="Times New Roman,serif" font-weight="bold" font-size="9.00">Overweight I</text>
<polygon fill="none" stroke="black" points="474.5,-357.88 474.5,-385.12 541.5,-385.12 541.5,-357.88 474.5,-357.88"/>
</g>
<!-- n_0_1_2_3_4_5_6&#45;&gt;n_2 -->
<g id="edge12" class="edge">
<title>n_0_1_2_3_4_5_6&#45;&gt;n_2</title>
<path fill="none" stroke="black" d="M455.09,-449.19C466.52,-432.63 479.64,-413.6 489.97,-398.64"/>
<polygon fill="black" stroke="black" points="492.64,-400.93 495.44,-390.71 486.88,-396.95 492.64,-400.93"/>
</g>
<!-- n_0_1_4_5_6 -->
<g id="node3" class="node">
<title>n_0_1_4_5_6</title>
<polygon fill="none" stroke="black" points="203.38,-248 203.38,-289 256.38,-289 256.38,-248 203.38,-248"/>
<text text-anchor="start" x="214.88" y="-274.45" font-family="Times New Roman,serif" font-weight="bold" font-size="9.00">Normal</text>
<text text-anchor="start" x="211.88" y="-265.45" font-family="Times New Roman,serif" font-weight="bold" font-size="9.00">Obesity I</text>
<text text-anchor="start" x="210.38" y="-256.45" font-family="Times New Roman,serif" font-weight="bold" font-size="9.00">Obesity II</text>
<polygon fill="none" stroke="black" points="256.38,-248 256.38,-289 344.62,-289 344.62,-248 256.38,-248"/>
<text text-anchor="start" x="263.38" y="-269.95" font-family="Times New Roman,serif" font-weight="bold" font-size="9.00">Insufficient weight</text>
<text text-anchor="start" x="279.5" y="-260.95" font-family="Times New Roman,serif" font-weight="bold" font-size="9.00">Obesity III</text>
<polygon fill="none" stroke="black" points="202.38,-247 202.38,-290 345.62,-290 345.62,-247 202.38,-247"/>
</g>
<!-- n_0_1_3_4_5_6&#45;&gt;n_0_1_4_5_6 -->
<g id="edge2" class="edge">
<title>n_0_1_3_4_5_6&#45;&gt;n_0_1_4_5_6</title>
<path fill="none" stroke="black" d="M324.9,-337.15C316.59,-326.11 307.35,-313.82 299.05,-302.78"/>
<polygon fill="black" stroke="black" points="302.05,-300.96 293.24,-295.07 296.46,-305.16 302.05,-300.96"/>
</g>
<!-- n_3 -->
<g id="node12" class="node">
<title>n_3</title>
<polygon fill="none" stroke="black" points="392,-255.88 392,-281.12 460,-281.12 460,-255.88 392,-255.88"/>
<text text-anchor="start" x="399" y="-266.57" font-family="Times New Roman,serif" font-weight="bold" font-size="9.00">Overweight II</text>
<polygon fill="none" stroke="black" points="391,-254.88 391,-282.12 461,-282.12 461,-254.88 391,-254.88"/>
</g>
<!-- n_0_1_3_4_5_6&#45;&gt;n_3 -->
<g id="edge11" class="edge">
<title>n_0_1_3_4_5_6&#45;&gt;n_3</title>
<path fill="none" stroke="black" d="M375.1,-337.15C385.29,-323.6 396.9,-308.17 406.45,-295.48"/>
<polygon fill="black" stroke="black" points="409.17,-297.68 412.39,-287.59 403.58,-293.48 409.17,-297.68"/>
</g>
<!-- n_1_4_5 -->
<g id="node4" class="node">
<title>n_1_4_5</title>
<polygon fill="none" stroke="black" points="141.5,-163 141.5,-195 194.5,-195 194.5,-163 141.5,-163"/>
<text text-anchor="start" x="150" y="-180.45" font-family="Times New Roman,serif" font-weight="bold" font-size="9.00">Obesity I</text>
<text text-anchor="start" x="148.5" y="-171.45" font-family="Times New Roman,serif" font-weight="bold" font-size="9.00">Obesity II</text>
<polygon fill="none" stroke="black" points="194.5,-163 194.5,-195 238.5,-195 238.5,-163 194.5,-163"/>
<text text-anchor="start" x="201.5" y="-177.07" font-family="Times New Roman,serif" font-weight="bold" font-size="9.00">Normal</text>
<polygon fill="none" stroke="black" points="140.5,-162 140.5,-196 239.5,-196 239.5,-162 140.5,-162"/>
</g>
<!-- n_0_1_4_5_6&#45;&gt;n_1_4_5 -->
<g id="edge3" class="edge">
<title>n_0_1_4_5_6&#45;&gt;n_1_4_5</title>
<path fill="none" stroke="black" d="M250.6,-243.13C240.16,-232.25 227.79,-219.36 216.96,-208.08"/>
<polygon fill="black" stroke="black" points="219.53,-205.71 210.08,-200.92 214.48,-210.56 219.53,-205.71"/>
</g>
<!-- n_0_6 -->
<g id="node9" class="node">
<title>n_0_6</title>
<polygon fill="none" stroke="black" points="285.88,-166.38 285.88,-191.62 374.12,-191.62 374.12,-166.38 285.88,-166.38"/>
<text text-anchor="start" x="292.88" y="-177.07" font-family="Times New Roman,serif" font-weight="bold" font-size="9.00">Insufficient weight</text>
<polygon fill="none" stroke="black" points="374.12,-166.38 374.12,-191.62 430.12,-191.62 430.12,-166.38 374.12,-166.38"/>
<text text-anchor="start" x="381.12" y="-177.07" font-family="Times New Roman,serif" font-weight="bold" font-size="9.00">Obesity III</text>
<polygon fill="none" stroke="black" points="284.88,-165.38 284.88,-192.62 431.12,-192.62 431.12,-165.38 284.88,-165.38"/>
</g>
<!-- n_0_1_4_5_6&#45;&gt;n_0_6 -->
<g id="edge8" class="edge">
<title>n_0_1_4_5_6&#45;&gt;n_0_6</title>
<path fill="none" stroke="black" d="M297.4,-243.13C308.81,-231.24 322.51,-216.97 333.99,-205.01"/>
<polygon fill="black" stroke="black" points="336.45,-207.5 340.85,-197.86 331.4,-202.65 336.45,-207.5"/>
</g>
<!-- n_4_5 -->
<g id="node5" class="node">
<title>n_4_5</title>
<polygon fill="none" stroke="black" points="31.5,-84.38 31.5,-109.62 81.5,-109.62 81.5,-84.38 31.5,-84.38"/>
<text text-anchor="start" x="38.5" y="-95.08" font-family="Times New Roman,serif" font-weight="bold" font-size="9.00">Obesity I</text>
<polygon fill="none" stroke="black" points="81.5,-84.38 81.5,-109.62 134.5,-109.62 134.5,-84.38 81.5,-84.38"/>
<text text-anchor="start" x="88.5" y="-95.08" font-family="Times New Roman,serif" font-weight="bold" font-size="9.00">Obesity II</text>
<polygon fill="none" stroke="black" points="30.5,-83.38 30.5,-110.62 135.5,-110.62 135.5,-83.38 30.5,-83.38"/>
</g>
<!-- n_1_4_5&#45;&gt;n_4_5 -->
<g id="edge4" class="edge">
<title>n_1_4_5&#45;&gt;n_4_5</title>
<path fill="none" stroke="black" d="M163.28,-158.02C148.51,-146.98 130.08,-133.2 114.61,-121.63"/>
<polygon fill="black" stroke="black" points="116.73,-118.85 106.63,-115.66 112.54,-124.46 116.73,-118.85"/>
</g>
<!-- n_1 -->
<g id="node8" class="node">
<title>n_1</title>
<polygon fill="none" stroke="black" points="182,-84.38 182,-109.62 226,-109.62 226,-84.38 182,-84.38"/>
<text text-anchor="start" x="189" y="-95.08" font-family="Times New Roman,serif" font-weight="bold" font-size="9.00">Normal</text>
<polygon fill="none" stroke="black" points="181,-83.38 181,-110.62 227,-110.62 227,-83.38 181,-83.38"/>
</g>
<!-- n_1_4_5&#45;&gt;n_1 -->
<g id="edge7" class="edge">
<title>n_1_4_5&#45;&gt;n_1</title>
<path fill="none" stroke="black" d="M193.46,-158.22C195.16,-148.54 197.22,-136.72 199.08,-126.11"/>
<polygon fill="black" stroke="black" points="202.52,-126.79 200.79,-116.33 195.62,-125.58 202.52,-126.79"/>
</g>
<!-- n_4 -->
<g id="node6" class="node">
<title>n_4</title>
<polygon fill="none" stroke="black" points="9,-5.38 9,-30.62 59,-30.62 59,-5.38 9,-5.38"/>
<text text-anchor="start" x="16" y="-16.07" font-family="Times New Roman,serif" font-weight="bold" font-size="9.00">Obesity I</text>
<polygon fill="none" stroke="black" points="8,-4.38 8,-31.62 60,-31.62 60,-4.38 8,-4.38"/>
</g>
<!-- n_4_5&#45;&gt;n_4 -->
<g id="edge5" class="edge">
<title>n_4_5&#45;&gt;n_4</title>
<path fill="none" stroke="black" d="M72.37,-79.29C66.05,-69.37 57.91,-56.57 50.75,-45.32"/>
<polygon fill="black" stroke="black" points="53.91,-43.78 45.59,-37.22 48.01,-47.53 53.91,-43.78"/>
</g>
<!-- n_5 -->
<g id="node7" class="node">
<title>n_5</title>
<polygon fill="none" stroke="black" points="106.5,-5.38 106.5,-30.62 159.5,-30.62 159.5,-5.38 106.5,-5.38"/>
<text text-anchor="start" x="113.5" y="-16.07" font-family="Times New Roman,serif" font-weight="bold" font-size="9.00">Obesity II</text>
<polygon fill="none" stroke="black" points="105.5,-4.38 105.5,-31.62 160.5,-31.62 160.5,-4.38 105.5,-4.38"/>
</g>
<!-- n_4_5&#45;&gt;n_5 -->
<g id="edge6" class="edge">
<title>n_4_5&#45;&gt;n_5</title>
<path fill="none" stroke="black" d="M93.85,-79.29C100.29,-69.37 108.6,-56.57 115.91,-45.32"/>
<polygon fill="black" stroke="black" points="118.66,-47.5 121.17,-37.21 112.79,-43.69 118.66,-47.5"/>
</g>
<!-- n_0 -->
<g id="node10" class="node">
<title>n_0</title>
<polygon fill="none" stroke="black" points="299.88,-84.38 299.88,-109.62 388.12,-109.62 388.12,-84.38 299.88,-84.38"/>
<text text-anchor="start" x="306.88" y="-95.08" font-family="Times New Roman,serif" font-weight="bold" font-size="9.00">Insufficient weight</text>
<polygon fill="none" stroke="black" points="298.88,-83.38 298.88,-110.62 389.12,-110.62 389.12,-83.38 298.88,-83.38"/>
</g>
<!-- n_0_6&#45;&gt;n_0 -->
<g id="edge9" class="edge">
<title>n_0_6&#45;&gt;n_0</title>
<path fill="none" stroke="black" d="M355.03,-161.03C353.25,-150.85 350.94,-137.65 348.89,-125.96"/>
<polygon fill="black" stroke="black" points="352.4,-125.68 347.23,-116.43 345.5,-126.89 352.4,-125.68"/>
</g>
<!-- n_6 -->
<g id="node11" class="node">
<title>n_6</title>
<polygon fill="none" stroke="black" points="435,-84.38 435,-109.62 491,-109.62 491,-84.38 435,-84.38"/>
<text text-anchor="start" x="442" y="-95.08" font-family="Times New Roman,serif" font-weight="bold" font-size="9.00">Obesity III</text>
<polygon fill="none" stroke="black" points="434,-83.38 434,-110.62 492,-110.62 492,-83.38 434,-83.38"/>
</g>
<!-- n_0_6&#45;&gt;n_6 -->
<g id="edge10" class="edge">
<title>n_0_6&#45;&gt;n_6</title>
<path fill="none" stroke="black" d="M380.27,-161.03C395.3,-149.58 415.35,-134.3 431.95,-121.66"/>
<polygon fill="black" stroke="black" points="433.73,-124.7 439.56,-115.86 429.48,-119.14 433.73,-124.7"/>
</g>
</g>
</svg>
