<?xml version="1.0" encoding="UTF-8" standalone="no"?>
<!DOCTYPE svg PUBLIC "-//W3C//DTD SVG 1.1//EN"
 "http://www.w3.org/Graphics/SVG/1.1/DTD/svg11.dtd">
<!-- Generated by graphviz version 10.0.1 (20240210.2158)
 -->
<!-- Title: ND Pages: 1 -->
<svg width="604pt" height="638pt"
 viewBox="0.00 0.00 603.62 638.00" xmlns="http://www.w3.org/2000/svg" xmlns:xlink="http://www.w3.org/1999/xlink">
<g id="graph0" class="graph" transform="scale(1 1) rotate(0) translate(4 634)">
<title>ND</title>
<polygon fill="white" stroke="none" points="-4,4 -4,-634 599.62,-634 599.62,4 -4,4"/>
<!-- n_0_1_2_3_4_5_6 -->
<g id="node1" class="node">
<title>n_0_1_2_3_4_5_6</title>
<polygon fill="none" stroke="black" points="401.5,-557 401.5,-625 489.75,-625 489.75,-557 401.5,-557"/>
<text text-anchor="start" x="408.5" y="-610.45" font-family="Times New Roman,serif" font-weight="bold" font-size="9.00">Insufficient weight</text>
<text text-anchor="start" x="430.62" y="-601.45" font-family="Times New Roman,serif" font-weight="bold" font-size="9.00">Normal</text>
<text text-anchor="start" x="418.62" y="-592.45" font-family="Times New Roman,serif" font-weight="bold" font-size="9.00">Overweight II</text>
<text text-anchor="start" x="427.62" y="-583.45" font-family="Times New Roman,serif" font-weight="bold" font-size="9.00">Obesity I</text>
<text text-anchor="start" x="426.12" y="-574.45" font-family="Times New Roman,serif" font-weight="bold" font-size="9.00">Obesity II</text>
<text text-anchor="start" x="424.62" y="-565.45" font-family="Times New Roman,serif" font-weight="bold" font-size="9.00">Obesity III</text>
<polygon fill="none" stroke="black" points="489.75,-557 489.75,-625 554.75,-625 554.75,-557 489.75,-557"/>
<text text-anchor="start" x="496.75" y="-589.08" font-family="Times New Roman,serif" font-weight="bold" font-size="9.00">Overweight I</text>
<polygon fill="none" stroke="black" points="400.5,-556 400.5,-626 555.75,-626 555.75,-556 400.5,-556"/>
</g>
<!-- n_0_1_3_4_5_6 -->
<g id="node2" class="node">
<title>n_0_1_3_4_5_6</title>
<polygon fill="none" stroke="black" points="330,-445 330,-504 418.25,-504 418.25,-445 330,-445"/>
<text text-anchor="start" x="337" y="-489.45" font-family="Times New Roman,serif" font-weight="bold" font-size="9.00">Insufficient weight</text>
<text text-anchor="start" x="359.12" y="-480.45" font-family="Times New Roman,serif" font-weight="bold" font-size="9.00">Normal</text>
<text text-anchor="start" x="347.12" y="-471.45" font-family="Times New Roman,serif" font-weight="bold" font-size="9.00">Overweight II</text>
<text text-anchor="start" x="356.12" y="-462.45" font-family="Times New Roman,serif" font-weight="bold" font-size="9.00">Obesity I</text>
<text text-anchor="start" x="354.62" y="-453.45" font-family="Times New Roman,serif" font-weight="bold" font-size="9.00">Obesity II</text>
<polygon fill="none" stroke="black" points="418.25,-445 418.25,-504 474.25,-504 474.25,-445 418.25,-445"/>
<text text-anchor="start" x="425.25" y="-472.57" font-family="Times New Roman,serif" font-weight="bold" font-size="9.00">Obesity III</text>
<polygon fill="none" stroke="black" points="329,-444 329,-505 475.25,-505 475.25,-444 329,-444"/>
</g>
<!-- n_0_1_2_3_4_5_6&#45;&gt;n_0_1_3_4_5_6 -->
<g id="edge1" class="edge">
<title>n_0_1_2_3_4_5_6&#45;&gt;n_0_1_3_4_5_6</title>
<path fill="none" stroke="black" d="M453.03,-552.19C445.81,-541.31 437.88,-529.36 430.47,-518.21"/>
<polygon fill="black" stroke="black" points="433.41,-516.31 424.97,-509.91 427.58,-520.18 433.41,-516.31"/>
</g>
<!-- n_2 -->
<g id="node13" class="node">
<title>n_2</title>
<polygon fill="none" stroke="black" points="521.62,-461.88 521.62,-487.12 586.62,-487.12 586.62,-461.88 521.62,-461.88"/>
<text text-anchor="start" x="528.62" y="-472.57" font-family="Times New Roman,serif" font-weight="bold" font-size="9.00">Overweight I</text>
<polygon fill="none" stroke="black" points="520.62,-460.88 520.62,-488.12 587.62,-488.12 587.62,-460.88 520.62,-460.88"/>
</g>
<!-- n_0_1_2_3_4_5_6&#45;&gt;n_2 -->
<g id="edge12" class="edge">
<title>n_0_1_2_3_4_5_6&#45;&gt;n_2</title>
<path fill="none" stroke="black" d="M503.22,-552.19C514.22,-535.63 526.85,-516.6 536.78,-501.64"/>
<polygon fill="black" stroke="black" points="539.41,-503.99 542.03,-493.72 533.58,-500.12 539.41,-503.99"/>
</g>
<!-- n_0_1_3_4_5 -->
<g id="node3" class="node">
<title>n_0_1_3_4_5</title>
<polygon fill="none" stroke="black" points="261,-342 261,-392 349.25,-392 349.25,-342 261,-342"/>
<text text-anchor="start" x="268" y="-377.45" font-family="Times New Roman,serif" font-weight="bold" font-size="9.00">Insufficient weight</text>
<text text-anchor="start" x="290.12" y="-368.45" font-family="Times New Roman,serif" font-weight="bold" font-size="9.00">Normal</text>
<text text-anchor="start" x="278.12" y="-359.45" font-family="Times New Roman,serif" font-weight="bold" font-size="9.00">Overweight II</text>
<text text-anchor="start" x="285.62" y="-350.45" font-family="Times New Roman,serif" font-weight="bold" font-size="9.00">Obesity II</text>
<polygon fill="none" stroke="black" points="349.25,-342 349.25,-392 399.25,-392 399.25,-342 349.25,-342"/>
<text text-anchor="start" x="356.25" y="-365.07" font-family="Times New Roman,serif" font-weight="bold" font-size="9.00">Obesity I</text>
<polygon fill="none" stroke="black" points="260,-341 260,-393 400.25,-393 400.25,-341 260,-341"/>
</g>
<!-- n_0_1_3_4_5_6&#45;&gt;n_0_1_3_4_5 -->
<g id="edge2" class="edge">
<title>n_0_1_3_4_5_6&#45;&gt;n_0_1_3_4_5</title>
<path fill="none" stroke="black" d="M379.34,-440.12C372.01,-429.38 363.84,-417.4 356.29,-406.33"/>
<polygon fill="black" stroke="black" points="359.23,-404.44 350.7,-398.15 353.45,-408.38 359.23,-404.44"/>
</g>
<!-- n_6 -->
<g id="node12" class="node">
<title>n_6</title>
<polygon fill="none" stroke="black" points="446.12,-354.38 446.12,-379.62 502.12,-379.62 502.12,-354.38 446.12,-354.38"/>
<text text-anchor="start" x="453.12" y="-365.07" font-family="Times New Roman,serif" font-weight="bold" font-size="9.00">Obesity III</text>
<polygon fill="none" stroke="black" points="445.12,-353.38 445.12,-380.62 503.12,-380.62 503.12,-353.38 445.12,-353.38"/>
</g>
<!-- n_0_1_3_4_5_6&#45;&gt;n_6 -->
<g id="edge11" class="edge">
<title>n_0_1_3_4_5_6&#45;&gt;n_6</title>
<path fill="none" stroke="black" d="M424.91,-440.12C434.98,-425.35 446.67,-408.23 456.12,-394.38"/>
<polygon fill="black" stroke="black" points="458.96,-396.43 461.7,-386.2 453.18,-392.49 458.96,-396.43"/>
</g>
<!-- n_0_1_3_5 -->
<g id="node4" class="node">
<title>n_0_1_3_5</title>
<polygon fill="none" stroke="black" points="177,-248 177,-289 265.25,-289 265.25,-248 177,-248"/>
<text text-anchor="start" x="184" y="-274.45" font-family="Times New Roman,serif" font-weight="bold" font-size="9.00">Insufficient weight</text>
<text text-anchor="start" x="206.12" y="-265.45" font-family="Times New Roman,serif" font-weight="bold" font-size="9.00">Normal</text>
<text text-anchor="start" x="201.62" y="-256.45" font-family="Times New Roman,serif" font-weight="bold" font-size="9.00">Obesity II</text>
<polygon fill="none" stroke="black" points="265.25,-248 265.25,-289 333.25,-289 333.25,-248 265.25,-248"/>
<text text-anchor="start" x="272.25" y="-266.57" font-family="Times New Roman,serif" font-weight="bold" font-size="9.00">Overweight II</text>
<polygon fill="none" stroke="black" points="176,-247 176,-290 334.25,-290 334.25,-247 176,-247"/>
</g>
<!-- n_0_1_3_4_5&#45;&gt;n_0_1_3_5 -->
<g id="edge3" class="edge">
<title>n_0_1_3_4_5&#45;&gt;n_0_1_3_5</title>
<path fill="none" stroke="black" d="M307.62,-337.05C299.26,-326.29 289.71,-314 281.07,-302.88"/>
<polygon fill="black" stroke="black" points="283.9,-300.82 275,-295.07 278.37,-305.11 283.9,-300.82"/>
</g>
<!-- n_4 -->
<g id="node11" class="node">
<title>n_4</title>
<polygon fill="none" stroke="black" points="380.12,-255.88 380.12,-281.12 430.12,-281.12 430.12,-255.88 380.12,-255.88"/>
<text text-anchor="start" x="387.12" y="-266.57" font-family="Times New Roman,serif" font-weight="bold" font-size="9.00">Obesity I</text>
<polygon fill="none" stroke="black" points="379.12,-254.88 379.12,-282.12 431.12,-282.12 431.12,-254.88 379.12,-254.88"/>
</g>
<!-- n_0_1_3_4_5&#45;&gt;n_4 -->
<g id="edge10" class="edge">
<title>n_0_1_3_4_5&#45;&gt;n_4</title>
<path fill="none" stroke="black" d="M352.63,-337.05C362.97,-323.73 375.14,-308.07 385.16,-295.19"/>
<polygon fill="black" stroke="black" points="387.71,-297.6 391.09,-287.56 382.19,-293.31 387.71,-297.6"/>
</g>
<!-- n_0_1_5 -->
<g id="node5" class="node">
<title>n_0_1_5</title>
<polygon fill="none" stroke="black" points="108.5,-163 108.5,-195 196.75,-195 196.75,-163 108.5,-163"/>
<text text-anchor="start" x="115.5" y="-180.45" font-family="Times New Roman,serif" font-weight="bold" font-size="9.00">Insufficient weight</text>
<text text-anchor="start" x="137.62" y="-171.45" font-family="Times New Roman,serif" font-weight="bold" font-size="9.00">Normal</text>
<polygon fill="none" stroke="black" points="196.75,-163 196.75,-195 249.75,-195 249.75,-163 196.75,-163"/>
<text text-anchor="start" x="203.75" y="-177.07" font-family="Times New Roman,serif" font-weight="bold" font-size="9.00">Obesity II</text>
<polygon fill="none" stroke="black" points="107.5,-162 107.5,-196 250.75,-196 250.75,-162 107.5,-162"/>
</g>
<!-- n_0_1_3_5&#45;&gt;n_0_1_5 -->
<g id="edge4" class="edge">
<title>n_0_1_3_5&#45;&gt;n_0_1_5</title>
<path fill="none" stroke="black" d="M233.95,-243.13C224.6,-232.35 213.53,-219.62 203.8,-208.41"/>
<polygon fill="black" stroke="black" points="206.54,-206.22 197.34,-200.97 201.25,-210.81 206.54,-206.22"/>
</g>
<!-- n_3 -->
<g id="node10" class="node">
<title>n_3</title>
<polygon fill="none" stroke="black" points="297.12,-166.38 297.12,-191.62 365.12,-191.62 365.12,-166.38 297.12,-166.38"/>
<text text-anchor="start" x="304.12" y="-177.07" font-family="Times New Roman,serif" font-weight="bold" font-size="9.00">Overweight II</text>
<polygon fill="none" stroke="black" points="296.12,-165.38 296.12,-192.62 366.12,-192.62 366.12,-165.38 296.12,-165.38"/>
</g>
<!-- n_0_1_3_5&#45;&gt;n_3 -->
<g id="edge9" class="edge">
<title>n_0_1_3_5&#45;&gt;n_3</title>
<path fill="none" stroke="black" d="M276.3,-243.13C286.52,-231.36 298.77,-217.25 309.1,-205.36"/>
<polygon fill="black" stroke="black" points="311.65,-207.76 315.57,-197.91 306.37,-203.17 311.65,-207.76"/>
</g>
<!-- n_0_1 -->
<g id="node6" class="node">
<title>n_0_1</title>
<polygon fill="none" stroke="black" points="43,-84.38 43,-109.62 131.25,-109.62 131.25,-84.38 43,-84.38"/>
<text text-anchor="start" x="50" y="-95.08" font-family="Times New Roman,serif" font-weight="bold" font-size="9.00">Insufficient weight</text>
<polygon fill="none" stroke="black" points="131.25,-84.38 131.25,-109.62 175.25,-109.62 175.25,-84.38 131.25,-84.38"/>
<text text-anchor="start" x="138.25" y="-95.08" font-family="Times New Roman,serif" font-weight="bold" font-size="9.00">Normal</text>
<polygon fill="none" stroke="black" points="42,-83.38 42,-110.62 176.25,-110.62 176.25,-83.38 42,-83.38"/>
</g>
<!-- n_0_1_5&#45;&gt;n_0_1 -->
<g id="edge5" class="edge">
<title>n_0_1_5&#45;&gt;n_0_1</title>
<path fill="none" stroke="black" d="M161.82,-158.22C152.62,-147.71 141.21,-134.66 131.36,-123.41"/>
<polygon fill="black" stroke="black" points="134.08,-121.2 124.86,-115.98 128.81,-125.81 134.08,-121.2"/>
</g>
<!-- n_5 -->
<g id="node9" class="node">
<title>n_5</title>
<polygon fill="none" stroke="black" points="222.62,-84.38 222.62,-109.62 275.62,-109.62 275.62,-84.38 222.62,-84.38"/>
<text text-anchor="start" x="229.62" y="-95.08" font-family="Times New Roman,serif" font-weight="bold" font-size="9.00">Obesity II</text>
<polygon fill="none" stroke="black" points="221.62,-83.38 221.62,-110.62 276.62,-110.62 276.62,-83.38 221.62,-83.38"/>
</g>
<!-- n_0_1_5&#45;&gt;n_5 -->
<g id="edge8" class="edge">
<title>n_0_1_5&#45;&gt;n_5</title>
<path fill="none" stroke="black" d="M196.43,-158.22C205.63,-147.71 217.04,-134.66 226.89,-123.41"/>
<polygon fill="black" stroke="black" points="229.44,-125.81 233.39,-115.98 224.17,-121.2 229.44,-125.81"/>
</g>
<!-- n_0 -->
<g id="node7" class="node">
<title>n_0</title>
<polygon fill="none" stroke="black" points="9,-5.38 9,-30.62 97.25,-30.62 97.25,-5.38 9,-5.38"/>
<text text-anchor="start" x="16" y="-16.07" font-family="Times New Roman,serif" font-weight="bold" font-size="9.00">Insufficient weight</text>
<polygon fill="none" stroke="black" points="8,-4.38 8,-31.62 98.25,-31.62 98.25,-4.38 8,-4.38"/>
</g>
<!-- n_0_1&#45;&gt;n_0 -->
<g id="edge6" class="edge">
<title>n_0_1&#45;&gt;n_0</title>
<path fill="none" stroke="black" d="M96.97,-79.29C89.69,-69.27 80.26,-56.31 72.02,-44.98"/>
<polygon fill="black" stroke="black" points="75.05,-43.19 66.34,-37.17 69.39,-47.31 75.05,-43.19"/>
</g>
<!-- n_1 -->
<g id="node8" class="node">
<title>n_1</title>
<polygon fill="none" stroke="black" points="144.12,-5.38 144.12,-30.62 188.12,-30.62 188.12,-5.38 144.12,-5.38"/>
<text text-anchor="start" x="151.12" y="-16.07" font-family="Times New Roman,serif" font-weight="bold" font-size="9.00">Normal</text>
<polygon fill="none" stroke="black" points="143.12,-4.38 143.12,-31.62 189.12,-31.62 189.12,-4.38 143.12,-4.38"/>
</g>
<!-- n_0_1&#45;&gt;n_1 -->
<g id="edge7" class="edge">
<title>n_0_1&#45;&gt;n_1</title>
<path fill="none" stroke="black" d="M121.49,-79.29C128.91,-69.27 138.5,-56.31 146.89,-44.98"/>
<polygon fill="black" stroke="black" points="149.55,-47.28 152.68,-37.16 143.92,-43.11 149.55,-47.28"/>
</g>
</g>
</svg>
