<?xml version="1.0" encoding="UTF-8" standalone="no"?>
<!DOCTYPE svg PUBLIC "-//W3C//DTD SVG 1.1//EN"
 "http://www.w3.org/Graphics/SVG/1.1/DTD/svg11.dtd">
<!-- Generated by graphviz version 10.0.1 (20240210.2158)
 -->
<!-- Title: ND Pages: 1 -->
<svg width="564pt" height="423pt"
 viewBox="0.00 0.00 564.12 423.00" xmlns="http://www.w3.org/2000/svg" xmlns:xlink="http://www.w3.org/1999/xlink">
<g id="graph0" class="graph" transform="scale(1 1) rotate(0) translate(4 419)">
<title>ND</title>
<polygon fill="white" stroke="none" points="-4,4 -4,-419 560.12,-419 560.12,4 -4,4"/>
<!-- n_0_1_2_3_4_5_6 -->
<g id="node1" class="node">
<title>n_0_1_2_3_4_5_6</title>
<polygon fill="none" stroke="black" points="308,-342 308,-410 396.25,-410 396.25,-342 308,-342"/>
<text text-anchor="start" x="315" y="-395.45" font-family="Times New Roman,serif" font-weight="bold" font-size="9.00">Insufficient weight</text>
<text text-anchor="start" x="337.12" y="-386.45" font-family="Times New Roman,serif" font-weight="bold" font-size="9.00">Normal</text>
<text text-anchor="start" x="326.62" y="-377.45" font-family="Times New Roman,serif" font-weight="bold" font-size="9.00">Overweight I</text>
<text text-anchor="start" x="325.12" y="-368.45" font-family="Times New Roman,serif" font-weight="bold" font-size="9.00">Overweight II</text>
<text text-anchor="start" x="332.62" y="-359.45" font-family="Times New Roman,serif" font-weight="bold" font-size="9.00">Obesity II</text>
<text text-anchor="start" x="331.12" y="-350.45" font-family="Times New Roman,serif" font-weight="bold" font-size="9.00">Obesity III</text>
<polygon fill="none" stroke="black" points="396.25,-342 396.25,-410 446.25,-410 446.25,-342 396.25,-342"/>
<text text-anchor="start" x="403.25" y="-374.07" font-family="Times New Roman,serif" font-weight="bold" font-size="9.00">Obesity I</text>
<polygon fill="none" stroke="black" points="307,-341 307,-411 447.25,-411 447.25,-341 307,-341"/>
</g>
<!-- n_0_1_2_3_5_6 -->
<g id="node2" class="node">
<title>n_0_1_2_3_5_6</title>
<polygon fill="none" stroke="black" points="226.5,-248 226.5,-289 314.75,-289 314.75,-248 226.5,-248"/>
<text text-anchor="start" x="233.5" y="-274.45" font-family="Times New Roman,serif" font-weight="bold" font-size="9.00">Insufficient weight</text>
<text text-anchor="start" x="255.62" y="-265.45" font-family="Times New Roman,serif" font-weight="bold" font-size="9.00">Normal</text>
<text text-anchor="start" x="243.62" y="-256.45" font-family="Times New Roman,serif" font-weight="bold" font-size="9.00">Overweight II</text>
<polygon fill="none" stroke="black" points="314.75,-248 314.75,-289 379.75,-289 379.75,-248 314.75,-248"/>
<text text-anchor="start" x="321.75" y="-274.45" font-family="Times New Roman,serif" font-weight="bold" font-size="9.00">Overweight I</text>
<text text-anchor="start" x="327.75" y="-265.45" font-family="Times New Roman,serif" font-weight="bold" font-size="9.00">Obesity II</text>
<text text-anchor="start" x="326.25" y="-256.45" font-family="Times New Roman,serif" font-weight="bold" font-size="9.00">Obesity III</text>
<polygon fill="none" stroke="black" points="225.5,-247 225.5,-290 380.75,-290 380.75,-247 225.5,-247"/>
</g>
<!-- n_0_1_2_3_4_5_6&#45;&gt;n_0_1_2_3_5_6 -->
<g id="edge1" class="edge">
<title>n_0_1_2_3_4_5_6&#45;&gt;n_0_1_2_3_5_6</title>
<path fill="none" stroke="black" d="M350.62,-337.21C342.79,-326.05 334.28,-313.92 326.66,-303.05"/>
<polygon fill="black" stroke="black" points="329.7,-301.29 321.09,-295.11 323.97,-305.31 329.7,-301.29"/>
</g>
<!-- n_4 -->
<g id="node13" class="node">
<title>n_4</title>
<polygon fill="none" stroke="black" points="427.12,-255.88 427.12,-281.12 477.12,-281.12 477.12,-255.88 427.12,-255.88"/>
<text text-anchor="start" x="434.12" y="-266.57" font-family="Times New Roman,serif" font-weight="bold" font-size="9.00">Obesity I</text>
<polygon fill="none" stroke="black" points="426.12,-254.88 426.12,-282.12 478.12,-282.12 478.12,-254.88 426.12,-254.88"/>
</g>
<!-- n_0_1_2_3_4_5_6&#45;&gt;n_4 -->
<g id="edge12" class="edge">
<title>n_0_1_2_3_4_5_6&#45;&gt;n_4</title>
<path fill="none" stroke="black" d="M403.99,-337.21C413.74,-323.49 424.54,-308.31 433.43,-295.8"/>
<polygon fill="black" stroke="black" points="436.28,-297.83 439.22,-287.65 430.57,-293.77 436.28,-297.83"/>
</g>
<!-- n_0_1_3 -->
<g id="node3" class="node">
<title>n_0_1_3</title>
<polygon fill="none" stroke="black" points="132,-163 132,-195 220.25,-195 220.25,-163 132,-163"/>
<text text-anchor="start" x="139" y="-180.45" font-family="Times New Roman,serif" font-weight="bold" font-size="9.00">Insufficient weight</text>
<text text-anchor="start" x="161.12" y="-171.45" font-family="Times New Roman,serif" font-weight="bold" font-size="9.00">Normal</text>
<polygon fill="none" stroke="black" points="220.25,-163 220.25,-195 288.25,-195 288.25,-163 220.25,-163"/>
<text text-anchor="start" x="227.25" y="-177.07" font-family="Times New Roman,serif" font-weight="bold" font-size="9.00">Overweight II</text>
<polygon fill="none" stroke="black" points="131,-162 131,-196 289.25,-196 289.25,-162 131,-162"/>
</g>
<!-- n_0_1_2_3_5_6&#45;&gt;n_0_1_3 -->
<g id="edge2" class="edge">
<title>n_0_1_2_3_5_6&#45;&gt;n_0_1_3</title>
<path fill="none" stroke="black" d="M277.22,-243.13C265.43,-232.03 251.42,-218.86 239.27,-207.42"/>
<polygon fill="black" stroke="black" points="241.98,-205.17 232.3,-200.86 237.18,-210.26 241.98,-205.17"/>
</g>
<!-- n_2_5_6 -->
<g id="node8" class="node">
<title>n_2_5_6</title>
<polygon fill="none" stroke="black" points="335.62,-163 335.62,-195 400.62,-195 400.62,-163 335.62,-163"/>
<text text-anchor="start" x="342.62" y="-180.45" font-family="Times New Roman,serif" font-weight="bold" font-size="9.00">Overweight I</text>
<text text-anchor="start" x="348.62" y="-171.45" font-family="Times New Roman,serif" font-weight="bold" font-size="9.00">Obesity II</text>
<polygon fill="none" stroke="black" points="400.62,-163 400.62,-195 456.62,-195 456.62,-163 400.62,-163"/>
<text text-anchor="start" x="407.62" y="-177.07" font-family="Times New Roman,serif" font-weight="bold" font-size="9.00">Obesity III</text>
<polygon fill="none" stroke="black" points="334.62,-162 334.62,-196 457.62,-196 457.62,-162 334.62,-162"/>
</g>
<!-- n_0_1_2_3_5_6&#45;&gt;n_2_5_6 -->
<g id="edge7" class="edge">
<title>n_0_1_2_3_5_6&#45;&gt;n_2_5_6</title>
<path fill="none" stroke="black" d="M329.03,-243.13C340.82,-232.03 354.83,-218.86 366.98,-207.42"/>
<polygon fill="black" stroke="black" points="369.07,-210.26 373.95,-200.86 364.27,-205.17 369.07,-210.26"/>
</g>
<!-- n_0_1 -->
<g id="node4" class="node">
<title>n_0_1</title>
<polygon fill="none" stroke="black" points="9,-84.38 9,-109.62 97.25,-109.62 97.25,-84.38 9,-84.38"/>
<text text-anchor="start" x="16" y="-95.08" font-family="Times New Roman,serif" font-weight="bold" font-size="9.00">Insufficient weight</text>
<polygon fill="none" stroke="black" points="97.25,-84.38 97.25,-109.62 141.25,-109.62 141.25,-84.38 97.25,-84.38"/>
<text text-anchor="start" x="104.25" y="-95.08" font-family="Times New Roman,serif" font-weight="bold" font-size="9.00">Normal</text>
<polygon fill="none" stroke="black" points="8,-83.38 8,-110.62 142.25,-110.62 142.25,-83.38 8,-83.38"/>
</g>
<!-- n_0_1_3&#45;&gt;n_0_1 -->
<g id="edge3" class="edge">
<title>n_0_1_3&#45;&gt;n_0_1</title>
<path fill="none" stroke="black" d="M176.41,-158.02C157.17,-146.62 132.99,-132.29 113.08,-120.49"/>
<polygon fill="black" stroke="black" points="115.09,-117.62 104.71,-115.53 111.53,-123.64 115.09,-117.62"/>
</g>
<!-- n_3 -->
<g id="node7" class="node">
<title>n_3</title>
<polygon fill="none" stroke="black" points="188.12,-84.38 188.12,-109.62 256.12,-109.62 256.12,-84.38 188.12,-84.38"/>
<text text-anchor="start" x="195.12" y="-95.08" font-family="Times New Roman,serif" font-weight="bold" font-size="9.00">Overweight II</text>
<polygon fill="none" stroke="black" points="187.12,-83.38 187.12,-110.62 257.12,-110.62 257.12,-83.38 187.12,-83.38"/>
</g>
<!-- n_0_1_3&#45;&gt;n_3 -->
<g id="edge6" class="edge">
<title>n_0_1_3&#45;&gt;n_3</title>
<path fill="none" stroke="black" d="M213.09,-158.22C214.54,-148.54 216.32,-136.72 217.91,-126.11"/>
<polygon fill="black" stroke="black" points="221.35,-126.75 219.37,-116.34 214.43,-125.71 221.35,-126.75"/>
</g>
<!-- n_0 -->
<g id="node5" class="node">
<title>n_0</title>
<polygon fill="none" stroke="black" points="14,-5.38 14,-30.62 102.25,-30.62 102.25,-5.38 14,-5.38"/>
<text text-anchor="start" x="21" y="-16.07" font-family="Times New Roman,serif" font-weight="bold" font-size="9.00">Insufficient weight</text>
<polygon fill="none" stroke="black" points="13,-4.38 13,-31.62 103.25,-31.62 103.25,-4.38 13,-4.38"/>
</g>
<!-- n_0_1&#45;&gt;n_0 -->
<g id="edge4" class="edge">
<title>n_0_1&#45;&gt;n_0</title>
<path fill="none" stroke="black" d="M71.44,-79.29C69.36,-69.87 66.7,-57.86 64.31,-47.04"/>
<polygon fill="black" stroke="black" points="67.77,-46.43 62.19,-37.42 60.93,-47.94 67.77,-46.43"/>
</g>
<!-- n_1 -->
<g id="node6" class="node">
<title>n_1</title>
<polygon fill="none" stroke="black" points="149.12,-5.38 149.12,-30.62 193.12,-30.62 193.12,-5.38 149.12,-5.38"/>
<text text-anchor="start" x="156.12" y="-16.07" font-family="Times New Roman,serif" font-weight="bold" font-size="9.00">Normal</text>
<polygon fill="none" stroke="black" points="148.12,-4.38 148.12,-31.62 194.12,-31.62 194.12,-4.38 148.12,-4.38"/>
</g>
<!-- n_0_1&#45;&gt;n_1 -->
<g id="edge5" class="edge">
<title>n_0_1&#45;&gt;n_1</title>
<path fill="none" stroke="black" d="M95.96,-79.29C109.2,-68.67 126.56,-54.75 141.26,-42.96"/>
<polygon fill="black" stroke="black" points="143.21,-45.88 148.82,-36.89 138.83,-40.41 143.21,-45.88"/>
</g>
<!-- n_2_5 -->
<g id="node9" class="node">
<title>n_2_5</title>
<polygon fill="none" stroke="black" points="326.12,-84.38 326.12,-109.62 391.12,-109.62 391.12,-84.38 326.12,-84.38"/>
<text text-anchor="start" x="333.12" y="-95.08" font-family="Times New Roman,serif" font-weight="bold" font-size="9.00">Overweight I</text>
<polygon fill="none" stroke="black" points="391.12,-84.38 391.12,-109.62 444.12,-109.62 444.12,-84.38 391.12,-84.38"/>
<text text-anchor="start" x="398.12" y="-95.08" font-family="Times New Roman,serif" font-weight="bold" font-size="9.00">Obesity II</text>
<polygon fill="none" stroke="black" points="325.12,-83.38 325.12,-110.62 445.12,-110.62 445.12,-83.38 325.12,-83.38"/>
</g>
<!-- n_2_5_6&#45;&gt;n_2_5 -->
<g id="edge8" class="edge">
<title>n_2_5_6&#45;&gt;n_2_5</title>
<path fill="none" stroke="black" d="M393.41,-158.22C392.07,-148.54 390.45,-136.72 388.99,-126.11"/>
<polygon fill="black" stroke="black" points="392.48,-125.77 387.65,-116.34 385.54,-126.73 392.48,-125.77"/>
</g>
<!-- n_6 -->
<g id="node12" class="node">
<title>n_6</title>
<polygon fill="none" stroke="black" points="491.12,-84.38 491.12,-109.62 547.12,-109.62 547.12,-84.38 491.12,-84.38"/>
<text text-anchor="start" x="498.12" y="-95.08" font-family="Times New Roman,serif" font-weight="bold" font-size="9.00">Obesity III</text>
<polygon fill="none" stroke="black" points="490.12,-83.38 490.12,-110.62 548.12,-110.62 548.12,-83.38 490.12,-83.38"/>
</g>
<!-- n_2_5_6&#45;&gt;n_6 -->
<g id="edge11" class="edge">
<title>n_2_5_6&#45;&gt;n_6</title>
<path fill="none" stroke="black" d="M426.85,-158.02C444.14,-146.77 465.8,-132.68 483.79,-120.98"/>
<polygon fill="black" stroke="black" points="485.62,-123.97 492.09,-115.58 481.8,-118.1 485.62,-123.97"/>
</g>
<!-- n_2 -->
<g id="node10" class="node">
<title>n_2</title>
<polygon fill="none" stroke="black" points="284.62,-5.38 284.62,-30.62 349.62,-30.62 349.62,-5.38 284.62,-5.38"/>
<text text-anchor="start" x="291.62" y="-16.07" font-family="Times New Roman,serif" font-weight="bold" font-size="9.00">Overweight I</text>
<polygon fill="none" stroke="black" points="283.62,-4.38 283.62,-31.62 350.62,-31.62 350.62,-4.38 283.62,-4.38"/>
</g>
<!-- n_2_5&#45;&gt;n_2 -->
<g id="edge9" class="edge">
<title>n_2_5&#45;&gt;n_2</title>
<path fill="none" stroke="black" d="M370.37,-79.29C361.34,-69.07 349.62,-55.79 339.47,-44.3"/>
<polygon fill="black" stroke="black" points="342.33,-42.25 333.09,-37.08 337.08,-46.89 342.33,-42.25"/>
</g>
<!-- n_5 -->
<g id="node11" class="node">
<title>n_5</title>
<polygon fill="none" stroke="black" points="396.62,-5.38 396.62,-30.62 449.62,-30.62 449.62,-5.38 396.62,-5.38"/>
<text text-anchor="start" x="403.62" y="-16.07" font-family="Times New Roman,serif" font-weight="bold" font-size="9.00">Obesity II</text>
<polygon fill="none" stroke="black" points="395.62,-4.38 395.62,-31.62 450.62,-31.62 450.62,-4.38 395.62,-4.38"/>
</g>
<!-- n_2_5&#45;&gt;n_5 -->
<g id="edge10" class="edge">
<title>n_2_5&#45;&gt;n_5</title>
<path fill="none" stroke="black" d="M393.37,-79.29C398.17,-69.57 404.33,-57.09 409.8,-46"/>
<polygon fill="black" stroke="black" points="412.81,-47.81 414.09,-37.3 406.53,-44.72 412.81,-47.81"/>
</g>
</g>
</svg>
