<?xml version="1.0" encoding="UTF-8" standalone="no"?>
<!DOCTYPE svg PUBLIC "-//W3C//DTD SVG 1.1//EN"
 "http://www.w3.org/Graphics/SVG/1.1/DTD/svg11.dtd">
<!-- Generated by graphviz version 10.0.1 (20240210.2158)
 -->
<!-- Title: ND Pages: 1 -->
<svg width="722pt" height="414pt"
 viewBox="0.00 0.00 722.12 414.00" xmlns="http://www.w3.org/2000/svg" xmlns:xlink="http://www.w3.org/1999/xlink">
<g id="graph0" class="graph" transform="scale(1 1) rotate(0) translate(4 410)">
<title>ND</title>
<polygon fill="white" stroke="none" points="-4,4 -4,-410 718.12,-410 718.12,4 -4,4"/>
<!-- n_0_1_2_3_4_5_6 -->
<g id="node1" class="node">
<title>n_0_1_2_3_4_5_6</title>
<polygon fill="none" stroke="black" points="413,-342 413,-401 501.25,-401 501.25,-342 413,-342"/>
<text text-anchor="start" x="420" y="-386.45" font-family="Times New Roman,serif" font-weight="bold" font-size="9.00">Insufficient weight</text>
<text text-anchor="start" x="431.62" y="-377.45" font-family="Times New Roman,serif" font-weight="bold" font-size="9.00">Overweight I</text>
<text text-anchor="start" x="439.12" y="-368.45" font-family="Times New Roman,serif" font-weight="bold" font-size="9.00">Obesity I</text>
<text text-anchor="start" x="437.62" y="-359.45" font-family="Times New Roman,serif" font-weight="bold" font-size="9.00">Obesity II</text>
<text text-anchor="start" x="436.12" y="-350.45" font-family="Times New Roman,serif" font-weight="bold" font-size="9.00">Obesity III</text>
<polygon fill="none" stroke="black" points="501.25,-342 501.25,-401 569.25,-401 569.25,-342 501.25,-342"/>
<text text-anchor="start" x="520.25" y="-372.95" font-family="Times New Roman,serif" font-weight="bold" font-size="9.00">Normal</text>
<text text-anchor="start" x="508.25" y="-363.95" font-family="Times New Roman,serif" font-weight="bold" font-size="9.00">Overweight II</text>
<polygon fill="none" stroke="black" points="412,-341 412,-402 570.25,-402 570.25,-341 412,-341"/>
</g>
<!-- n_0_2_4_5_6 -->
<g id="node2" class="node">
<title>n_0_2_4_5_6</title>
<polygon fill="none" stroke="black" points="324.5,-248 324.5,-289 412.75,-289 412.75,-248 324.5,-248"/>
<text text-anchor="start" x="331.5" y="-274.45" font-family="Times New Roman,serif" font-weight="bold" font-size="9.00">Insufficient weight</text>
<text text-anchor="start" x="349.12" y="-265.45" font-family="Times New Roman,serif" font-weight="bold" font-size="9.00">Obesity II</text>
<text text-anchor="start" x="347.62" y="-256.45" font-family="Times New Roman,serif" font-weight="bold" font-size="9.00">Obesity III</text>
<polygon fill="none" stroke="black" points="412.75,-248 412.75,-289 477.75,-289 477.75,-248 412.75,-248"/>
<text text-anchor="start" x="419.75" y="-269.95" font-family="Times New Roman,serif" font-weight="bold" font-size="9.00">Overweight I</text>
<text text-anchor="start" x="427.25" y="-260.95" font-family="Times New Roman,serif" font-weight="bold" font-size="9.00">Obesity I</text>
<polygon fill="none" stroke="black" points="323.5,-247 323.5,-290 478.75,-290 478.75,-247 323.5,-247"/>
</g>
<!-- n_0_1_2_3_4_5_6&#45;&gt;n_0_2_4_5_6 -->
<g id="edge1" class="edge">
<title>n_0_1_2_3_4_5_6&#45;&gt;n_0_2_4_5_6</title>
<path fill="none" stroke="black" d="M461.41,-337.15C451.47,-326 440.4,-313.58 430.49,-302.45"/>
<polygon fill="black" stroke="black" points="433.1,-300.13 423.84,-294.99 427.88,-304.78 433.1,-300.13"/>
</g>
<!-- n_1_3 -->
<g id="node11" class="node">
<title>n_1_3</title>
<polygon fill="none" stroke="black" points="525.12,-255.88 525.12,-281.12 569.12,-281.12 569.12,-255.88 525.12,-255.88"/>
<text text-anchor="start" x="532.12" y="-266.57" font-family="Times New Roman,serif" font-weight="bold" font-size="9.00">Normal</text>
<polygon fill="none" stroke="black" points="569.12,-255.88 569.12,-281.12 637.12,-281.12 637.12,-255.88 569.12,-255.88"/>
<text text-anchor="start" x="576.12" y="-266.57" font-family="Times New Roman,serif" font-weight="bold" font-size="9.00">Overweight II</text>
<polygon fill="none" stroke="black" points="524.12,-254.88 524.12,-282.12 638.12,-282.12 638.12,-254.88 524.12,-254.88"/>
</g>
<!-- n_0_1_2_3_4_5_6&#45;&gt;n_1_3 -->
<g id="edge10" class="edge">
<title>n_0_1_2_3_4_5_6&#45;&gt;n_1_3</title>
<path fill="none" stroke="black" d="M520.84,-337.15C533.16,-323.33 547.2,-307.57 558.64,-294.74"/>
<polygon fill="black" stroke="black" points="561.04,-297.3 565.08,-287.51 555.81,-292.65 561.04,-297.3"/>
</g>
<!-- n_0_5_6 -->
<g id="node3" class="node">
<title>n_0_5_6</title>
<polygon fill="none" stroke="black" points="169.5,-163 169.5,-195 257.75,-195 257.75,-163 169.5,-163"/>
<text text-anchor="start" x="176.5" y="-180.45" font-family="Times New Roman,serif" font-weight="bold" font-size="9.00">Insufficient weight</text>
<text text-anchor="start" x="192.62" y="-171.45" font-family="Times New Roman,serif" font-weight="bold" font-size="9.00">Obesity III</text>
<polygon fill="none" stroke="black" points="257.75,-163 257.75,-195 310.75,-195 310.75,-163 257.75,-163"/>
<text text-anchor="start" x="264.75" y="-177.07" font-family="Times New Roman,serif" font-weight="bold" font-size="9.00">Obesity II</text>
<polygon fill="none" stroke="black" points="168.5,-162 168.5,-196 311.75,-196 311.75,-162 168.5,-162"/>
</g>
<!-- n_0_2_4_5_6&#45;&gt;n_0_5_6 -->
<g id="edge2" class="edge">
<title>n_0_2_4_5_6&#45;&gt;n_0_5_6</title>
<path fill="none" stroke="black" d="M356.28,-243.13C334.67,-231.38 308.77,-217.31 286.91,-205.43"/>
<polygon fill="black" stroke="black" points="288.66,-202.39 278.2,-200.69 285.31,-208.54 288.66,-202.39"/>
</g>
<!-- n_2_4 -->
<g id="node8" class="node">
<title>n_2_4</title>
<polygon fill="none" stroke="black" points="357.62,-166.38 357.62,-191.62 422.62,-191.62 422.62,-166.38 357.62,-166.38"/>
<text text-anchor="start" x="364.62" y="-177.07" font-family="Times New Roman,serif" font-weight="bold" font-size="9.00">Overweight I</text>
<polygon fill="none" stroke="black" points="422.62,-166.38 422.62,-191.62 472.62,-191.62 472.62,-166.38 422.62,-166.38"/>
<text text-anchor="start" x="429.62" y="-177.07" font-family="Times New Roman,serif" font-weight="bold" font-size="9.00">Obesity I</text>
<polygon fill="none" stroke="black" points="356.62,-165.38 356.62,-192.62 473.62,-192.62 473.62,-165.38 356.62,-165.38"/>
</g>
<!-- n_0_2_4_5_6&#45;&gt;n_2_4 -->
<g id="edge7" class="edge">
<title>n_0_2_4_5_6&#45;&gt;n_2_4</title>
<path fill="none" stroke="black" d="M405.02,-243.13C406.78,-232.17 408.86,-219.18 410.67,-207.84"/>
<polygon fill="black" stroke="black" points="414.08,-208.69 412.2,-198.27 407.17,-207.59 414.08,-208.69"/>
</g>
<!-- n_0_6 -->
<g id="node4" class="node">
<title>n_0_6</title>
<polygon fill="none" stroke="black" points="40,-84.38 40,-109.62 128.25,-109.62 128.25,-84.38 40,-84.38"/>
<text text-anchor="start" x="47" y="-95.08" font-family="Times New Roman,serif" font-weight="bold" font-size="9.00">Insufficient weight</text>
<polygon fill="none" stroke="black" points="128.25,-84.38 128.25,-109.62 184.25,-109.62 184.25,-84.38 128.25,-84.38"/>
<text text-anchor="start" x="135.25" y="-95.08" font-family="Times New Roman,serif" font-weight="bold" font-size="9.00">Obesity III</text>
<polygon fill="none" stroke="black" points="39,-83.38 39,-110.62 185.25,-110.62 185.25,-83.38 39,-83.38"/>
</g>
<!-- n_0_5_6&#45;&gt;n_0_6 -->
<g id="edge3" class="edge">
<title>n_0_5_6&#45;&gt;n_0_6</title>
<path fill="none" stroke="black" d="M208.16,-158.02C190.08,-146.72 167.41,-132.55 148.63,-120.82"/>
<polygon fill="black" stroke="black" points="150.56,-117.89 140.22,-115.56 146.85,-123.83 150.56,-117.89"/>
</g>
<!-- n_5 -->
<g id="node7" class="node">
<title>n_5</title>
<polygon fill="none" stroke="black" points="231.62,-84.38 231.62,-109.62 284.62,-109.62 284.62,-84.38 231.62,-84.38"/>
<text text-anchor="start" x="238.62" y="-95.08" font-family="Times New Roman,serif" font-weight="bold" font-size="9.00">Obesity II</text>
<polygon fill="none" stroke="black" points="230.62,-83.38 230.62,-110.62 285.62,-110.62 285.62,-83.38 230.62,-83.38"/>
</g>
<!-- n_0_5_6&#45;&gt;n_5 -->
<g id="edge6" class="edge">
<title>n_0_5_6&#45;&gt;n_5</title>
<path fill="none" stroke="black" d="M244.57,-158.22C246.78,-148.44 249.47,-136.46 251.88,-125.77"/>
<polygon fill="black" stroke="black" points="255.22,-126.84 254,-116.32 248.39,-125.31 255.22,-126.84"/>
</g>
<!-- n_0 -->
<g id="node5" class="node">
<title>n_0</title>
<polygon fill="none" stroke="black" points="9,-5.38 9,-30.62 97.25,-30.62 97.25,-5.38 9,-5.38"/>
<text text-anchor="start" x="16" y="-16.07" font-family="Times New Roman,serif" font-weight="bold" font-size="9.00">Insufficient weight</text>
<polygon fill="none" stroke="black" points="8,-4.38 8,-31.62 98.25,-31.62 98.25,-4.38 8,-4.38"/>
</g>
<!-- n_0_6&#45;&gt;n_0 -->
<g id="edge4" class="edge">
<title>n_0_6&#45;&gt;n_0</title>
<path fill="none" stroke="black" d="M99.32,-79.29C91.64,-69.27 81.72,-56.31 73.03,-44.98"/>
<polygon fill="black" stroke="black" points="75.89,-42.95 67.03,-37.14 70.33,-47.21 75.89,-42.95"/>
</g>
<!-- n_6 -->
<g id="node6" class="node">
<title>n_6</title>
<polygon fill="none" stroke="black" points="144.12,-5.38 144.12,-30.62 200.12,-30.62 200.12,-5.38 144.12,-5.38"/>
<text text-anchor="start" x="151.12" y="-16.07" font-family="Times New Roman,serif" font-weight="bold" font-size="9.00">Obesity III</text>
<polygon fill="none" stroke="black" points="143.12,-4.38 143.12,-31.62 201.12,-31.62 201.12,-4.38 143.12,-4.38"/>
</g>
<!-- n_0_6&#45;&gt;n_6 -->
<g id="edge5" class="edge">
<title>n_0_6&#45;&gt;n_6</title>
<path fill="none" stroke="black" d="M125.14,-79.29C132.95,-69.27 143.05,-56.31 151.88,-44.98"/>
<polygon fill="black" stroke="black" points="154.61,-47.17 157.99,-37.14 149.09,-42.87 154.61,-47.17"/>
</g>
<!-- n_2 -->
<g id="node9" class="node">
<title>n_2</title>
<polygon fill="none" stroke="black" points="365.62,-84.38 365.62,-109.62 430.62,-109.62 430.62,-84.38 365.62,-84.38"/>
<text text-anchor="start" x="372.62" y="-95.08" font-family="Times New Roman,serif" font-weight="bold" font-size="9.00">Overweight I</text>
<polygon fill="none" stroke="black" points="364.62,-83.38 364.62,-110.62 431.62,-110.62 431.62,-83.38 364.62,-83.38"/>
</g>
<!-- n_2_4&#45;&gt;n_2 -->
<g id="edge8" class="edge">
<title>n_2_4&#45;&gt;n_2</title>
<path fill="none" stroke="black" d="M411.52,-161.03C409.36,-150.85 406.55,-137.65 404.07,-125.96"/>
<polygon fill="black" stroke="black" points="407.54,-125.48 402.04,-116.42 400.69,-126.93 407.54,-125.48"/>
</g>
<!-- n_4 -->
<g id="node10" class="node">
<title>n_4</title>
<polygon fill="none" stroke="black" points="478.12,-84.38 478.12,-109.62 528.12,-109.62 528.12,-84.38 478.12,-84.38"/>
<text text-anchor="start" x="485.12" y="-95.08" font-family="Times New Roman,serif" font-weight="bold" font-size="9.00">Obesity I</text>
<polygon fill="none" stroke="black" points="477.12,-83.38 477.12,-110.62 529.12,-110.62 529.12,-83.38 477.12,-83.38"/>
</g>
<!-- n_2_4&#45;&gt;n_4 -->
<g id="edge9" class="edge">
<title>n_2_4&#45;&gt;n_4</title>
<path fill="none" stroke="black" d="M433.79,-161.03C446.15,-149.79 462.57,-134.87 476.33,-122.36"/>
<polygon fill="black" stroke="black" points="478.32,-125.28 483.37,-115.96 473.62,-120.1 478.32,-125.28"/>
</g>
<!-- n_1 -->
<g id="node12" class="node">
<title>n_1</title>
<polygon fill="none" stroke="black" points="546.12,-166.38 546.12,-191.62 590.12,-191.62 590.12,-166.38 546.12,-166.38"/>
<text text-anchor="start" x="553.12" y="-177.07" font-family="Times New Roman,serif" font-weight="bold" font-size="9.00">Normal</text>
<polygon fill="none" stroke="black" points="545.12,-165.38 545.12,-192.62 591.12,-192.62 591.12,-165.38 545.12,-165.38"/>
</g>
<!-- n_1_3&#45;&gt;n_1 -->
<g id="edge11" class="edge">
<title>n_1_3&#45;&gt;n_1</title>
<path fill="none" stroke="black" d="M578.62,-250.63C576.82,-238.52 574.36,-221.94 572.27,-207.88"/>
<polygon fill="black" stroke="black" points="575.78,-207.69 570.85,-198.32 568.85,-208.72 575.78,-207.69"/>
</g>
<!-- n_3 -->
<g id="node13" class="node">
<title>n_3</title>
<polygon fill="none" stroke="black" points="637.12,-166.38 637.12,-191.62 705.12,-191.62 705.12,-166.38 637.12,-166.38"/>
<text text-anchor="start" x="644.12" y="-177.07" font-family="Times New Roman,serif" font-weight="bold" font-size="9.00">Overweight II</text>
<polygon fill="none" stroke="black" points="636.12,-165.38 636.12,-192.62 706.12,-192.62 706.12,-165.38 636.12,-165.38"/>
</g>
<!-- n_1_3&#45;&gt;n_3 -->
<g id="edge12" class="edge">
<title>n_1_3&#45;&gt;n_3</title>
<path fill="none" stroke="black" d="M598.48,-250.63C611.92,-237.56 630.75,-219.25 645.87,-204.56"/>
<polygon fill="black" stroke="black" points="648.01,-207.35 652.74,-197.87 643.13,-202.34 648.01,-207.35"/>
</g>
</g>
</svg>
