<?xml version="1.0" encoding="UTF-8" standalone="no"?>
<!DOCTYPE svg PUBLIC "-//W3C//DTD SVG 1.1//EN"
 "http://www.w3.org/Graphics/SVG/1.1/DTD/svg11.dtd">
<!-- Generated by graphviz version 10.0.1 (20240210.2158)
 -->
<!-- Title: ND Pages: 1 -->
<svg width="597pt" height="526pt"
 viewBox="0.00 0.00 596.50 526.00" xmlns="http://www.w3.org/2000/svg" xmlns:xlink="http://www.w3.org/1999/xlink">
<g id="graph0" class="graph" transform="scale(1 1) rotate(0) translate(4 522)">
<title>ND</title>
<polygon fill="white" stroke="none" points="-4,4 -4,-522 592.5,-522 592.5,4 -4,4"/>
<!-- n_0_1_2_3_4_5_6 -->
<g id="node1" class="node">
<title>n_0_1_2_3_4_5_6</title>
<polygon fill="none" stroke="black" points="359.38,-445 359.38,-513 447.62,-513 447.62,-445 359.38,-445"/>
<text text-anchor="start" x="366.38" y="-498.45" font-family="Times New Roman,serif" font-weight="bold" font-size="9.00">Insufficient weight</text>
<text text-anchor="start" x="388.5" y="-489.45" font-family="Times New Roman,serif" font-weight="bold" font-size="9.00">Normal</text>
<text text-anchor="start" x="378" y="-480.45" font-family="Times New Roman,serif" font-weight="bold" font-size="9.00">Overweight I</text>
<text text-anchor="start" x="385.5" y="-471.45" font-family="Times New Roman,serif" font-weight="bold" font-size="9.00">Obesity I</text>
<text text-anchor="start" x="384" y="-462.45" font-family="Times New Roman,serif" font-weight="bold" font-size="9.00">Obesity II</text>
<text text-anchor="start" x="382.5" y="-453.45" font-family="Times New Roman,serif" font-weight="bold" font-size="9.00">Obesity III</text>
<polygon fill="none" stroke="black" points="447.62,-445 447.62,-513 515.62,-513 515.62,-445 447.62,-445"/>
<text text-anchor="start" x="454.62" y="-477.07" font-family="Times New Roman,serif" font-weight="bold" font-size="9.00">Overweight II</text>
<polygon fill="none" stroke="black" points="358.38,-444 358.38,-514 516.62,-514 516.62,-444 358.38,-444"/>
</g>
<!-- n_0_1_2_4_5_6 -->
<g id="node2" class="node">
<title>n_0_1_2_4_5_6</title>
<polygon fill="none" stroke="black" points="281.88,-342 281.88,-392 346.88,-392 346.88,-342 281.88,-342"/>
<text text-anchor="start" x="299.38" y="-377.45" font-family="Times New Roman,serif" font-weight="bold" font-size="9.00">Normal</text>
<text text-anchor="start" x="288.88" y="-368.45" font-family="Times New Roman,serif" font-weight="bold" font-size="9.00">Overweight I</text>
<text text-anchor="start" x="296.38" y="-359.45" font-family="Times New Roman,serif" font-weight="bold" font-size="9.00">Obesity I</text>
<text text-anchor="start" x="294.88" y="-350.45" font-family="Times New Roman,serif" font-weight="bold" font-size="9.00">Obesity II</text>
<polygon fill="none" stroke="black" points="346.88,-342 346.88,-392 435.12,-392 435.12,-342 346.88,-342"/>
<text text-anchor="start" x="353.88" y="-368.45" font-family="Times New Roman,serif" font-weight="bold" font-size="9.00">Insufficient weight</text>
<text text-anchor="start" x="370" y="-359.45" font-family="Times New Roman,serif" font-weight="bold" font-size="9.00">Obesity III</text>
<polygon fill="none" stroke="black" points="280.88,-341 280.88,-393 436.12,-393 436.12,-341 280.88,-341"/>
</g>
<!-- n_0_1_2_3_4_5_6&#45;&gt;n_0_1_2_4_5_6 -->
<g id="edge1" class="edge">
<title>n_0_1_2_3_4_5_6&#45;&gt;n_0_1_2_4_5_6</title>
<path fill="none" stroke="black" d="M410.31,-440.14C402.44,-429.19 393.85,-417.22 385.96,-406.23"/>
<polygon fill="black" stroke="black" points="388.81,-404.2 380.13,-398.12 383.12,-408.28 388.81,-404.2"/>
</g>
<!-- n_3 -->
<g id="node13" class="node">
<title>n_3</title>
<polygon fill="none" stroke="black" points="482.5,-354.38 482.5,-379.62 550.5,-379.62 550.5,-354.38 482.5,-354.38"/>
<text text-anchor="start" x="489.5" y="-365.07" font-family="Times New Roman,serif" font-weight="bold" font-size="9.00">Overweight II</text>
<polygon fill="none" stroke="black" points="481.5,-353.38 481.5,-380.62 551.5,-380.62 551.5,-353.38 481.5,-353.38"/>
</g>
<!-- n_0_1_2_3_4_5_6&#45;&gt;n_3 -->
<g id="edge12" class="edge">
<title>n_0_1_2_3_4_5_6&#45;&gt;n_3</title>
<path fill="none" stroke="black" d="M464.69,-440.14C475.53,-425.04 487.76,-408.02 497.61,-394.31"/>
<polygon fill="black" stroke="black" points="500.43,-396.38 503.42,-386.21 494.74,-392.29 500.43,-396.38"/>
</g>
<!-- n_1_2_4_5 -->
<g id="node3" class="node">
<title>n_1_2_4_5</title>
<polygon fill="none" stroke="black" points="210.5,-248 210.5,-289 275.5,-289 275.5,-248 210.5,-248"/>
<text text-anchor="start" x="228" y="-274.45" font-family="Times New Roman,serif" font-weight="bold" font-size="9.00">Normal</text>
<text text-anchor="start" x="217.5" y="-265.45" font-family="Times New Roman,serif" font-weight="bold" font-size="9.00">Overweight I</text>
<text text-anchor="start" x="225" y="-256.45" font-family="Times New Roman,serif" font-weight="bold" font-size="9.00">Obesity I</text>
<polygon fill="none" stroke="black" points="275.5,-248 275.5,-289 328.5,-289 328.5,-248 275.5,-248"/>
<text text-anchor="start" x="282.5" y="-266.57" font-family="Times New Roman,serif" font-weight="bold" font-size="9.00">Obesity II</text>
<polygon fill="none" stroke="black" points="209.5,-247 209.5,-290 329.5,-290 329.5,-247 209.5,-247"/>
</g>
<!-- n_0_1_2_4_5_6&#45;&gt;n_1_2_4_5 -->
<g id="edge2" class="edge">
<title>n_0_1_2_4_5_6&#45;&gt;n_1_2_4_5</title>
<path fill="none" stroke="black" d="M331.8,-337.05C321.68,-326.08 310.09,-313.51 299.67,-302.22"/>
<polygon fill="black" stroke="black" points="302.36,-299.97 293.01,-294.99 297.21,-304.71 302.36,-299.97"/>
</g>
<!-- n_0_6 -->
<g id="node10" class="node">
<title>n_0_6</title>
<polygon fill="none" stroke="black" points="375.38,-255.88 375.38,-281.12 463.62,-281.12 463.62,-255.88 375.38,-255.88"/>
<text text-anchor="start" x="382.38" y="-266.57" font-family="Times New Roman,serif" font-weight="bold" font-size="9.00">Insufficient weight</text>
<polygon fill="none" stroke="black" points="463.62,-255.88 463.62,-281.12 519.62,-281.12 519.62,-255.88 463.62,-255.88"/>
<text text-anchor="start" x="470.62" y="-266.57" font-family="Times New Roman,serif" font-weight="bold" font-size="9.00">Obesity III</text>
<polygon fill="none" stroke="black" points="374.38,-254.88 374.38,-282.12 520.62,-282.12 520.62,-254.88 374.38,-254.88"/>
</g>
<!-- n_0_1_2_4_5_6&#45;&gt;n_0_6 -->
<g id="edge9" class="edge">
<title>n_0_1_2_4_5_6&#45;&gt;n_0_6</title>
<path fill="none" stroke="black" d="M385.2,-337.05C397.6,-323.6 412.2,-307.77 424.15,-294.81"/>
<polygon fill="black" stroke="black" points="426.71,-297.2 430.92,-287.48 421.57,-292.46 426.71,-297.2"/>
</g>
<!-- n_1_2_4 -->
<g id="node4" class="node">
<title>n_1_2_4</title>
<polygon fill="none" stroke="black" points="102,-163 102,-195 167,-195 167,-163 102,-163"/>
<text text-anchor="start" x="109" y="-180.45" font-family="Times New Roman,serif" font-weight="bold" font-size="9.00">Overweight I</text>
<text text-anchor="start" x="116.5" y="-171.45" font-family="Times New Roman,serif" font-weight="bold" font-size="9.00">Obesity I</text>
<polygon fill="none" stroke="black" points="167,-163 167,-195 211,-195 211,-163 167,-163"/>
<text text-anchor="start" x="174" y="-177.07" font-family="Times New Roman,serif" font-weight="bold" font-size="9.00">Normal</text>
<polygon fill="none" stroke="black" points="101,-162 101,-196 212,-196 212,-162 101,-162"/>
</g>
<!-- n_1_2_4_5&#45;&gt;n_1_2_4 -->
<g id="edge3" class="edge">
<title>n_1_2_4_5&#45;&gt;n_1_2_4</title>
<path fill="none" stroke="black" d="M238.02,-243.13C223.42,-231.82 206.03,-218.35 191.06,-206.76"/>
<polygon fill="black" stroke="black" points="193.35,-204.11 183.3,-200.75 189.06,-209.64 193.35,-204.11"/>
</g>
<!-- n_5 -->
<g id="node9" class="node">
<title>n_5</title>
<polygon fill="none" stroke="black" points="258,-166.38 258,-191.62 311,-191.62 311,-166.38 258,-166.38"/>
<text text-anchor="start" x="265" y="-177.07" font-family="Times New Roman,serif" font-weight="bold" font-size="9.00">Obesity II</text>
<polygon fill="none" stroke="black" points="257,-165.38 257,-192.62 312,-192.62 312,-165.38 257,-165.38"/>
</g>
<!-- n_1_2_4_5&#45;&gt;n_5 -->
<g id="edge8" class="edge">
<title>n_1_2_4_5&#45;&gt;n_5</title>
<path fill="none" stroke="black" d="M273.68,-243.13C275.56,-232.17 277.78,-219.18 279.73,-207.84"/>
<polygon fill="black" stroke="black" points="283.13,-208.71 281.37,-198.26 276.23,-207.53 283.13,-208.71"/>
</g>
<!-- n_2_4 -->
<g id="node5" class="node">
<title>n_2_4</title>
<polygon fill="none" stroke="black" points="36,-84.38 36,-109.62 101,-109.62 101,-84.38 36,-84.38"/>
<text text-anchor="start" x="43" y="-95.08" font-family="Times New Roman,serif" font-weight="bold" font-size="9.00">Overweight I</text>
<polygon fill="none" stroke="black" points="101,-84.38 101,-109.62 151,-109.62 151,-84.38 101,-84.38"/>
<text text-anchor="start" x="108" y="-95.08" font-family="Times New Roman,serif" font-weight="bold" font-size="9.00">Obesity I</text>
<polygon fill="none" stroke="black" points="35,-83.38 35,-110.62 152,-110.62 152,-83.38 35,-83.38"/>
</g>
<!-- n_1_2_4&#45;&gt;n_2_4 -->
<g id="edge4" class="edge">
<title>n_1_2_4&#45;&gt;n_2_4</title>
<path fill="none" stroke="black" d="M140.93,-158.22C132.73,-147.81 122.58,-134.92 113.77,-123.74"/>
<polygon fill="black" stroke="black" points="116.64,-121.72 107.7,-116.03 111.14,-126.05 116.64,-121.72"/>
</g>
<!-- n_1 -->
<g id="node8" class="node">
<title>n_1</title>
<polygon fill="none" stroke="black" points="198.5,-84.38 198.5,-109.62 242.5,-109.62 242.5,-84.38 198.5,-84.38"/>
<text text-anchor="start" x="205.5" y="-95.08" font-family="Times New Roman,serif" font-weight="bold" font-size="9.00">Normal</text>
<polygon fill="none" stroke="black" points="197.5,-83.38 197.5,-110.62 243.5,-110.62 243.5,-83.38 197.5,-83.38"/>
</g>
<!-- n_1_2_4&#45;&gt;n_1 -->
<g id="edge7" class="edge">
<title>n_1_2_4&#45;&gt;n_1</title>
<path fill="none" stroke="black" d="M172.32,-158.22C180.65,-147.81 190.96,-134.92 199.91,-123.74"/>
<polygon fill="black" stroke="black" points="202.57,-126.02 206.08,-116.03 197.1,-121.65 202.57,-126.02"/>
</g>
<!-- n_2 -->
<g id="node6" class="node">
<title>n_2</title>
<polygon fill="none" stroke="black" points="9,-5.38 9,-30.62 74,-30.62 74,-5.38 9,-5.38"/>
<text text-anchor="start" x="16" y="-16.07" font-family="Times New Roman,serif" font-weight="bold" font-size="9.00">Overweight I</text>
<polygon fill="none" stroke="black" points="8,-4.38 8,-31.62 75,-31.62 75,-4.38 8,-4.38"/>
</g>
<!-- n_2_4&#45;&gt;n_2 -->
<g id="edge5" class="edge">
<title>n_2_4&#45;&gt;n_2</title>
<path fill="none" stroke="black" d="M82.22,-79.29C75.52,-69.37 66.87,-56.57 59.27,-45.32"/>
<polygon fill="black" stroke="black" points="62.28,-43.52 53.79,-37.2 56.48,-47.44 62.28,-43.52"/>
</g>
<!-- n_4 -->
<g id="node7" class="node">
<title>n_4</title>
<polygon fill="none" stroke="black" points="121.5,-5.38 121.5,-30.62 171.5,-30.62 171.5,-5.38 121.5,-5.38"/>
<text text-anchor="start" x="128.5" y="-16.07" font-family="Times New Roman,serif" font-weight="bold" font-size="9.00">Obesity I</text>
<polygon fill="none" stroke="black" points="120.5,-4.38 120.5,-31.62 172.5,-31.62 172.5,-4.38 120.5,-4.38"/>
</g>
<!-- n_2_4&#45;&gt;n_4 -->
<g id="edge6" class="edge">
<title>n_2_4&#45;&gt;n_4</title>
<path fill="none" stroke="black" d="M105,-79.29C111.83,-69.37 120.64,-56.57 128.38,-45.32"/>
<polygon fill="black" stroke="black" points="131.19,-47.41 133.98,-37.19 125.43,-43.44 131.19,-47.41"/>
</g>
<!-- n_0 -->
<g id="node11" class="node">
<title>n_0</title>
<polygon fill="none" stroke="black" points="388.38,-166.38 388.38,-191.62 476.62,-191.62 476.62,-166.38 388.38,-166.38"/>
<text text-anchor="start" x="395.38" y="-177.07" font-family="Times New Roman,serif" font-weight="bold" font-size="9.00">Insufficient weight</text>
<polygon fill="none" stroke="black" points="387.38,-165.38 387.38,-192.62 477.62,-192.62 477.62,-165.38 387.38,-165.38"/>
</g>
<!-- n_0_6&#45;&gt;n_0 -->
<g id="edge10" class="edge">
<title>n_0_6&#45;&gt;n_0</title>
<path fill="none" stroke="black" d="M444.61,-250.63C442.53,-238.52 439.69,-221.94 437.28,-207.88"/>
<polygon fill="black" stroke="black" points="440.78,-207.58 435.64,-198.31 433.88,-208.76 440.78,-207.58"/>
</g>
<!-- n_6 -->
<g id="node12" class="node">
<title>n_6</title>
<polygon fill="none" stroke="black" points="523.5,-166.38 523.5,-191.62 579.5,-191.62 579.5,-166.38 523.5,-166.38"/>
<text text-anchor="start" x="530.5" y="-177.07" font-family="Times New Roman,serif" font-weight="bold" font-size="9.00">Obesity III</text>
<polygon fill="none" stroke="black" points="522.5,-165.38 522.5,-192.62 580.5,-192.62 580.5,-165.38 522.5,-165.38"/>
</g>
<!-- n_0_6&#45;&gt;n_6 -->
<g id="edge11" class="edge">
<title>n_0_6&#45;&gt;n_6</title>
<path fill="none" stroke="black" d="M467.55,-250.63C483.23,-237.43 505.25,-218.92 522.8,-204.15"/>
<polygon fill="black" stroke="black" points="524.95,-206.91 530.35,-197.79 520.45,-201.55 524.95,-206.91"/>
</g>
</g>
</svg>
