<?xml version="1.0" encoding="UTF-8" standalone="no"?>
<!DOCTYPE svg PUBLIC "-//W3C//DTD SVG 1.1//EN"
 "http://www.w3.org/Graphics/SVG/1.1/DTD/svg11.dtd">
<!-- Generated by graphviz version 10.0.1 (20240210.2158)
 -->
<!-- Title: ND Pages: 1 -->
<svg width="560pt" height="638pt"
 viewBox="0.00 0.00 559.50 638.00" xmlns="http://www.w3.org/2000/svg" xmlns:xlink="http://www.w3.org/1999/xlink">
<g id="graph0" class="graph" transform="scale(1 1) rotate(0) translate(4 634)">
<title>ND</title>
<polygon fill="white" stroke="none" points="-4,4 -4,-634 555.5,-634 555.5,4 -4,4"/>
<!-- n_0_1_2_3_4_5_6 -->
<g id="node1" class="node">
<title>n_0_1_2_3_4_5_6</title>
<polygon fill="none" stroke="black" points="370.38,-557 370.38,-625 458.62,-625 458.62,-557 370.38,-557"/>
<text text-anchor="start" x="377.38" y="-610.45" font-family="Times New Roman,serif" font-weight="bold" font-size="9.00">Insufficient weight</text>
<text text-anchor="start" x="399.5" y="-601.45" font-family="Times New Roman,serif" font-weight="bold" font-size="9.00">Normal</text>
<text text-anchor="start" x="389" y="-592.45" font-family="Times New Roman,serif" font-weight="bold" font-size="9.00">Overweight I</text>
<text text-anchor="start" x="387.5" y="-583.45" font-family="Times New Roman,serif" font-weight="bold" font-size="9.00">Overweight II</text>
<text text-anchor="start" x="396.5" y="-574.45" font-family="Times New Roman,serif" font-weight="bold" font-size="9.00">Obesity I</text>
<text text-anchor="start" x="393.5" y="-565.45" font-family="Times New Roman,serif" font-weight="bold" font-size="9.00">Obesity III</text>
<polygon fill="none" stroke="black" points="458.62,-557 458.62,-625 511.62,-625 511.62,-557 458.62,-557"/>
<text text-anchor="start" x="465.62" y="-589.08" font-family="Times New Roman,serif" font-weight="bold" font-size="9.00">Obesity II</text>
<polygon fill="none" stroke="black" points="369.38,-556 369.38,-626 512.62,-626 512.62,-556 369.38,-556"/>
</g>
<!-- n_0_1_2_3_4_6 -->
<g id="node2" class="node">
<title>n_0_1_2_3_4_6</title>
<polygon fill="none" stroke="black" points="289.38,-445 289.38,-504 377.62,-504 377.62,-445 289.38,-445"/>
<text text-anchor="start" x="296.38" y="-489.45" font-family="Times New Roman,serif" font-weight="bold" font-size="9.00">Insufficient weight</text>
<text text-anchor="start" x="318.5" y="-480.45" font-family="Times New Roman,serif" font-weight="bold" font-size="9.00">Normal</text>
<text text-anchor="start" x="306.5" y="-471.45" font-family="Times New Roman,serif" font-weight="bold" font-size="9.00">Overweight II</text>
<text text-anchor="start" x="315.5" y="-462.45" font-family="Times New Roman,serif" font-weight="bold" font-size="9.00">Obesity I</text>
<text text-anchor="start" x="312.5" y="-453.45" font-family="Times New Roman,serif" font-weight="bold" font-size="9.00">Obesity III</text>
<polygon fill="none" stroke="black" points="377.62,-445 377.62,-504 442.62,-504 442.62,-445 377.62,-445"/>
<text text-anchor="start" x="384.62" y="-472.57" font-family="Times New Roman,serif" font-weight="bold" font-size="9.00">Overweight I</text>
<polygon fill="none" stroke="black" points="288.38,-444 288.38,-505 443.62,-505 443.62,-444 288.38,-444"/>
</g>
<!-- n_0_1_2_3_4_5_6&#45;&gt;n_0_1_2_3_4_6 -->
<g id="edge1" class="edge">
<title>n_0_1_2_3_4_5_6&#45;&gt;n_0_1_2_3_4_6</title>
<path fill="none" stroke="black" d="M416.23,-552.19C409.11,-541.31 401.28,-529.36 393.97,-518.21"/>
<polygon fill="black" stroke="black" points="396.95,-516.37 388.54,-509.92 391.1,-520.2 396.95,-516.37"/>
</g>
<!-- n_5 -->
<g id="node13" class="node">
<title>n_5</title>
<polygon fill="none" stroke="black" points="489.5,-461.88 489.5,-487.12 542.5,-487.12 542.5,-461.88 489.5,-461.88"/>
<text text-anchor="start" x="496.5" y="-472.57" font-family="Times New Roman,serif" font-weight="bold" font-size="9.00">Obesity II</text>
<polygon fill="none" stroke="black" points="488.5,-460.88 488.5,-488.12 543.5,-488.12 543.5,-460.88 488.5,-460.88"/>
</g>
<!-- n_0_1_2_3_4_5_6&#45;&gt;n_5 -->
<g id="edge12" class="edge">
<title>n_0_1_2_3_4_5_6&#45;&gt;n_5</title>
<path fill="none" stroke="black" d="M465.77,-552.19C476.51,-535.78 488.84,-516.96 498.6,-502.07"/>
<polygon fill="black" stroke="black" points="501.51,-504.01 504.06,-493.73 495.65,-500.18 501.51,-504.01"/>
</g>
<!-- n_0_1_3_4_6 -->
<g id="node3" class="node">
<title>n_0_1_3_4_6</title>
<polygon fill="none" stroke="black" points="208.88,-342 208.88,-392 297.12,-392 297.12,-342 208.88,-342"/>
<text text-anchor="start" x="215.88" y="-377.45" font-family="Times New Roman,serif" font-weight="bold" font-size="9.00">Insufficient weight</text>
<text text-anchor="start" x="238" y="-368.45" font-family="Times New Roman,serif" font-weight="bold" font-size="9.00">Normal</text>
<text text-anchor="start" x="235" y="-359.45" font-family="Times New Roman,serif" font-weight="bold" font-size="9.00">Obesity I</text>
<text text-anchor="start" x="232" y="-350.45" font-family="Times New Roman,serif" font-weight="bold" font-size="9.00">Obesity III</text>
<polygon fill="none" stroke="black" points="297.12,-342 297.12,-392 365.12,-392 365.12,-342 297.12,-342"/>
<text text-anchor="start" x="304.12" y="-365.07" font-family="Times New Roman,serif" font-weight="bold" font-size="9.00">Overweight II</text>
<polygon fill="none" stroke="black" points="207.88,-341 207.88,-393 366.12,-393 366.12,-341 207.88,-341"/>
</g>
<!-- n_0_1_2_3_4_6&#45;&gt;n_0_1_3_4_6 -->
<g id="edge2" class="edge">
<title>n_0_1_2_3_4_6&#45;&gt;n_0_1_3_4_6</title>
<path fill="none" stroke="black" d="M341,-440.12C332.88,-429.27 323.81,-417.16 315.45,-406"/>
<polygon fill="black" stroke="black" points="318.34,-404.02 309.55,-398.11 312.74,-408.21 318.34,-404.02"/>
</g>
<!-- n_2 -->
<g id="node12" class="node">
<title>n_2</title>
<polygon fill="none" stroke="black" points="412.5,-354.38 412.5,-379.62 477.5,-379.62 477.5,-354.38 412.5,-354.38"/>
<text text-anchor="start" x="419.5" y="-365.07" font-family="Times New Roman,serif" font-weight="bold" font-size="9.00">Overweight I</text>
<polygon fill="none" stroke="black" points="411.5,-353.38 411.5,-380.62 478.5,-380.62 478.5,-353.38 411.5,-353.38"/>
</g>
<!-- n_0_1_2_3_4_6&#45;&gt;n_2 -->
<g id="edge11" class="edge">
<title>n_0_1_2_3_4_6&#45;&gt;n_2</title>
<path fill="none" stroke="black" d="M391,-440.12C402.16,-425.21 415.12,-407.9 425.55,-393.98"/>
<polygon fill="black" stroke="black" points="428.21,-396.26 431.4,-386.16 422.6,-392.07 428.21,-396.26"/>
</g>
<!-- n_0_1_4_6 -->
<g id="node4" class="node">
<title>n_0_1_4_6</title>
<polygon fill="none" stroke="black" points="138.88,-248 138.88,-289 194.88,-289 194.88,-248 138.88,-248"/>
<text text-anchor="start" x="151.88" y="-274.45" font-family="Times New Roman,serif" font-weight="bold" font-size="9.00">Normal</text>
<text text-anchor="start" x="148.88" y="-265.45" font-family="Times New Roman,serif" font-weight="bold" font-size="9.00">Obesity I</text>
<text text-anchor="start" x="145.88" y="-256.45" font-family="Times New Roman,serif" font-weight="bold" font-size="9.00">Obesity III</text>
<polygon fill="none" stroke="black" points="194.88,-248 194.88,-289 283.12,-289 283.12,-248 194.88,-248"/>
<text text-anchor="start" x="201.88" y="-266.57" font-family="Times New Roman,serif" font-weight="bold" font-size="9.00">Insufficient weight</text>
<polygon fill="none" stroke="black" points="137.88,-247 137.88,-290 284.12,-290 284.12,-247 137.88,-247"/>
</g>
<!-- n_0_1_3_4_6&#45;&gt;n_0_1_4_6 -->
<g id="edge3" class="edge">
<title>n_0_1_3_4_6&#45;&gt;n_0_1_4_6</title>
<path fill="none" stroke="black" d="M264.2,-337.05C255.73,-326.29 246.05,-314 237.29,-302.88"/>
<polygon fill="black" stroke="black" points="240.07,-300.75 231.13,-295.06 234.57,-305.09 240.07,-300.75"/>
</g>
<!-- n_3 -->
<g id="node11" class="node">
<title>n_3</title>
<polygon fill="none" stroke="black" points="330,-255.88 330,-281.12 398,-281.12 398,-255.88 330,-255.88"/>
<text text-anchor="start" x="337" y="-266.57" font-family="Times New Roman,serif" font-weight="bold" font-size="9.00">Overweight II</text>
<polygon fill="none" stroke="black" points="329,-254.88 329,-282.12 399,-282.12 399,-254.88 329,-254.88"/>
</g>
<!-- n_0_1_3_4_6&#45;&gt;n_3 -->
<g id="edge10" class="edge">
<title>n_0_1_3_4_6&#45;&gt;n_3</title>
<path fill="none" stroke="black" d="M310.1,-337.05C320.73,-323.73 333.22,-308.07 343.5,-295.19"/>
<polygon fill="black" stroke="black" points="346.1,-297.55 349.6,-287.55 340.63,-293.18 346.1,-297.55"/>
</g>
<!-- n_1_4_6 -->
<g id="node5" class="node">
<title>n_1_4_6</title>
<polygon fill="none" stroke="black" points="86,-163 86,-195 136,-195 136,-163 86,-163"/>
<text text-anchor="start" x="96" y="-180.45" font-family="Times New Roman,serif" font-weight="bold" font-size="9.00">Normal</text>
<text text-anchor="start" x="93" y="-171.45" font-family="Times New Roman,serif" font-weight="bold" font-size="9.00">Obesity I</text>
<polygon fill="none" stroke="black" points="136,-163 136,-195 192,-195 192,-163 136,-163"/>
<text text-anchor="start" x="143" y="-177.07" font-family="Times New Roman,serif" font-weight="bold" font-size="9.00">Obesity III</text>
<polygon fill="none" stroke="black" points="85,-162 85,-196 193,-196 193,-162 85,-162"/>
</g>
<!-- n_0_1_4_6&#45;&gt;n_1_4_6 -->
<g id="edge4" class="edge">
<title>n_0_1_4_6&#45;&gt;n_1_4_6</title>
<path fill="none" stroke="black" d="M190.94,-243.13C182.08,-232.35 171.6,-219.62 162.38,-208.41"/>
<polygon fill="black" stroke="black" points="165.33,-206.49 156.28,-200.99 159.93,-210.94 165.33,-206.49"/>
</g>
<!-- n_0 -->
<g id="node10" class="node">
<title>n_0</title>
<polygon fill="none" stroke="black" points="238.88,-166.38 238.88,-191.62 327.12,-191.62 327.12,-166.38 238.88,-166.38"/>
<text text-anchor="start" x="245.88" y="-177.07" font-family="Times New Roman,serif" font-weight="bold" font-size="9.00">Insufficient weight</text>
<polygon fill="none" stroke="black" points="237.88,-165.38 237.88,-192.62 328.12,-192.62 328.12,-165.38 237.88,-165.38"/>
</g>
<!-- n_0_1_4_6&#45;&gt;n_0 -->
<g id="edge9" class="edge">
<title>n_0_1_4_6&#45;&gt;n_0</title>
<path fill="none" stroke="black" d="M231.06,-243.13C240.74,-231.36 252.35,-217.25 262.13,-205.36"/>
<polygon fill="black" stroke="black" points="264.59,-207.89 268.24,-197.94 259.18,-203.44 264.59,-207.89"/>
</g>
<!-- n_1_4 -->
<g id="node6" class="node">
<title>n_1_4</title>
<polygon fill="none" stroke="black" points="31,-84.38 31,-109.62 75,-109.62 75,-84.38 31,-84.38"/>
<text text-anchor="start" x="38" y="-95.08" font-family="Times New Roman,serif" font-weight="bold" font-size="9.00">Normal</text>
<polygon fill="none" stroke="black" points="75,-84.38 75,-109.62 125,-109.62 125,-84.38 75,-84.38"/>
<text text-anchor="start" x="82" y="-95.08" font-family="Times New Roman,serif" font-weight="bold" font-size="9.00">Obesity I</text>
<polygon fill="none" stroke="black" points="30,-83.38 30,-110.62 126,-110.62 126,-83.38 30,-83.38"/>
</g>
<!-- n_1_4_6&#45;&gt;n_1_4 -->
<g id="edge5" class="edge">
<title>n_1_4_6&#45;&gt;n_1_4</title>
<path fill="none" stroke="black" d="M123.92,-158.22C115.98,-147.81 106.15,-134.92 97.63,-123.74"/>
<polygon fill="black" stroke="black" points="100.61,-121.88 91.76,-116.05 95.04,-126.12 100.61,-121.88"/>
</g>
<!-- n_6 -->
<g id="node9" class="node">
<title>n_6</title>
<polygon fill="none" stroke="black" points="172,-84.38 172,-109.62 228,-109.62 228,-84.38 172,-84.38"/>
<text text-anchor="start" x="179" y="-95.08" font-family="Times New Roman,serif" font-weight="bold" font-size="9.00">Obesity III</text>
<polygon fill="none" stroke="black" points="171,-83.38 171,-110.62 229,-110.62 229,-83.38 171,-83.38"/>
</g>
<!-- n_1_4_6&#45;&gt;n_6 -->
<g id="edge8" class="edge">
<title>n_1_4_6&#45;&gt;n_6</title>
<path fill="none" stroke="black" d="M154.08,-158.22C162.02,-147.81 171.85,-134.92 180.37,-123.74"/>
<polygon fill="black" stroke="black" points="182.96,-126.12 186.24,-116.05 177.39,-121.88 182.96,-126.12"/>
</g>
<!-- n_1 -->
<g id="node7" class="node">
<title>n_1</title>
<polygon fill="none" stroke="black" points="9,-5.38 9,-30.62 53,-30.62 53,-5.38 9,-5.38"/>
<text text-anchor="start" x="16" y="-16.07" font-family="Times New Roman,serif" font-weight="bold" font-size="9.00">Normal</text>
<polygon fill="none" stroke="black" points="8,-4.38 8,-31.62 54,-31.62 54,-4.38 8,-4.38"/>
</g>
<!-- n_1_4&#45;&gt;n_1 -->
<g id="edge6" class="edge">
<title>n_1_4&#45;&gt;n_1</title>
<path fill="none" stroke="black" d="M67.8,-79.29C61.81,-69.47 54.09,-56.83 47.27,-45.66"/>
<polygon fill="black" stroke="black" points="50.33,-43.95 42.13,-37.23 44.35,-47.59 50.33,-43.95"/>
</g>
<!-- n_4 -->
<g id="node8" class="node">
<title>n_4</title>
<polygon fill="none" stroke="black" points="100,-5.38 100,-30.62 150,-30.62 150,-5.38 100,-5.38"/>
<text text-anchor="start" x="107" y="-16.07" font-family="Times New Roman,serif" font-weight="bold" font-size="9.00">Obesity I</text>
<polygon fill="none" stroke="black" points="99,-4.38 99,-31.62 151,-31.62 151,-4.38 99,-4.38"/>
</g>
<!-- n_1_4&#45;&gt;n_4 -->
<g id="edge7" class="edge">
<title>n_1_4&#45;&gt;n_4</title>
<path fill="none" stroke="black" d="M88.2,-79.29C94.19,-69.47 101.91,-56.83 108.73,-45.66"/>
<polygon fill="black" stroke="black" points="111.65,-47.59 113.87,-37.23 105.67,-43.95 111.65,-47.59"/>
</g>
</g>
</svg>
