<?xml version="1.0" encoding="UTF-8" standalone="no"?>
<!DOCTYPE svg PUBLIC "-//W3C//DTD SVG 1.1//EN"
 "http://www.w3.org/Graphics/SVG/1.1/DTD/svg11.dtd">
<!-- Generated by graphviz version 10.0.1 (20240210.2158)
 -->
<!-- Title: ND Pages: 1 -->
<svg width="679pt" height="517pt"
 viewBox="0.00 0.00 678.50 517.00" xmlns="http://www.w3.org/2000/svg" xmlns:xlink="http://www.w3.org/1999/xlink">
<g id="graph0" class="graph" transform="scale(1 1) rotate(0) translate(4 513)">
<title>ND</title>
<polygon fill="white" stroke="none" points="-4,4 -4,-513 674.5,-513 674.5,4 -4,4"/>
<!-- n_0_1_2_3_4_5_6 -->
<g id="node1" class="node">
<title>n_0_1_2_3_4_5_6</title>
<polygon fill="none" stroke="black" points="382.38,-445 382.38,-504 470.62,-504 470.62,-445 382.38,-445"/>
<text text-anchor="start" x="389.38" y="-489.45" font-family="Times New Roman,serif" font-weight="bold" font-size="9.00">Insufficient weight</text>
<text text-anchor="start" x="399.5" y="-480.45" font-family="Times New Roman,serif" font-weight="bold" font-size="9.00">Overweight II</text>
<text text-anchor="start" x="408.5" y="-471.45" font-family="Times New Roman,serif" font-weight="bold" font-size="9.00">Obesity I</text>
<text text-anchor="start" x="407" y="-462.45" font-family="Times New Roman,serif" font-weight="bold" font-size="9.00">Obesity II</text>
<text text-anchor="start" x="405.5" y="-453.45" font-family="Times New Roman,serif" font-weight="bold" font-size="9.00">Obesity III</text>
<polygon fill="none" stroke="black" points="470.62,-445 470.62,-504 535.62,-504 535.62,-445 470.62,-445"/>
<text text-anchor="start" x="488.12" y="-475.95" font-family="Times New Roman,serif" font-weight="bold" font-size="9.00">Normal</text>
<text text-anchor="start" x="477.62" y="-466.95" font-family="Times New Roman,serif" font-weight="bold" font-size="9.00">Overweight I</text>
<polygon fill="none" stroke="black" points="381.38,-444 381.38,-505 536.62,-505 536.62,-444 381.38,-444"/>
</g>
<!-- n_0_3_4_5_6 -->
<g id="node2" class="node">
<title>n_0_3_4_5_6</title>
<polygon fill="none" stroke="black" points="299.88,-342 299.88,-392 388.12,-392 388.12,-342 299.88,-342"/>
<text text-anchor="start" x="306.88" y="-377.45" font-family="Times New Roman,serif" font-weight="bold" font-size="9.00">Insufficient weight</text>
<text text-anchor="start" x="317" y="-368.45" font-family="Times New Roman,serif" font-weight="bold" font-size="9.00">Overweight II</text>
<text text-anchor="start" x="326" y="-359.45" font-family="Times New Roman,serif" font-weight="bold" font-size="9.00">Obesity I</text>
<text text-anchor="start" x="324.5" y="-350.45" font-family="Times New Roman,serif" font-weight="bold" font-size="9.00">Obesity II</text>
<polygon fill="none" stroke="black" points="388.12,-342 388.12,-392 444.12,-392 444.12,-342 388.12,-342"/>
<text text-anchor="start" x="395.12" y="-365.07" font-family="Times New Roman,serif" font-weight="bold" font-size="9.00">Obesity III</text>
<polygon fill="none" stroke="black" points="298.88,-341 298.88,-393 445.12,-393 445.12,-341 298.88,-341"/>
</g>
<!-- n_0_1_2_3_4_5_6&#45;&gt;n_0_3_4_5_6 -->
<g id="edge1" class="edge">
<title>n_0_1_2_3_4_5_6&#45;&gt;n_0_3_4_5_6</title>
<path fill="none" stroke="black" d="M431.47,-440.12C422.44,-429.16 412.34,-416.91 403.06,-405.66"/>
<polygon fill="black" stroke="black" points="405.86,-403.55 396.79,-398.07 400.46,-408.01 405.86,-403.55"/>
</g>
<!-- n_1_2 -->
<g id="node11" class="node">
<title>n_1_2</title>
<polygon fill="none" stroke="black" points="491.5,-354.38 491.5,-379.62 535.5,-379.62 535.5,-354.38 491.5,-354.38"/>
<text text-anchor="start" x="498.5" y="-365.07" font-family="Times New Roman,serif" font-weight="bold" font-size="9.00">Normal</text>
<polygon fill="none" stroke="black" points="535.5,-354.38 535.5,-379.62 600.5,-379.62 600.5,-354.38 535.5,-354.38"/>
<text text-anchor="start" x="542.5" y="-365.07" font-family="Times New Roman,serif" font-weight="bold" font-size="9.00">Overweight I</text>
<polygon fill="none" stroke="black" points="490.5,-353.38 490.5,-380.62 601.5,-380.62 601.5,-353.38 490.5,-353.38"/>
</g>
<!-- n_0_1_2_3_4_5_6&#45;&gt;n_1_2 -->
<g id="edge10" class="edge">
<title>n_0_1_2_3_4_5_6&#45;&gt;n_1_2</title>
<path fill="none" stroke="black" d="M486.53,-440.12C498.94,-425.06 513.37,-407.57 524.91,-393.58"/>
<polygon fill="black" stroke="black" points="527.4,-396.06 531.06,-386.12 522,-391.61 527.4,-396.06"/>
</g>
<!-- n_0_3_4_5 -->
<g id="node3" class="node">
<title>n_0_3_4_5</title>
<polygon fill="none" stroke="black" points="178.88,-248 178.88,-289 267.12,-289 267.12,-248 178.88,-248"/>
<text text-anchor="start" x="185.88" y="-274.45" font-family="Times New Roman,serif" font-weight="bold" font-size="9.00">Insufficient weight</text>
<text text-anchor="start" x="196" y="-265.45" font-family="Times New Roman,serif" font-weight="bold" font-size="9.00">Overweight II</text>
<text text-anchor="start" x="203.5" y="-256.45" font-family="Times New Roman,serif" font-weight="bold" font-size="9.00">Obesity II</text>
<polygon fill="none" stroke="black" points="267.12,-248 267.12,-289 317.12,-289 317.12,-248 267.12,-248"/>
<text text-anchor="start" x="274.12" y="-266.57" font-family="Times New Roman,serif" font-weight="bold" font-size="9.00">Obesity I</text>
<polygon fill="none" stroke="black" points="177.88,-247 177.88,-290 318.12,-290 318.12,-247 177.88,-247"/>
</g>
<!-- n_0_3_4_5_6&#45;&gt;n_0_3_4_5 -->
<g id="edge2" class="edge">
<title>n_0_3_4_5_6&#45;&gt;n_0_3_4_5</title>
<path fill="none" stroke="black" d="M334.8,-337.05C320.14,-325.65 303.28,-312.52 288.34,-300.89"/>
<polygon fill="black" stroke="black" points="290.56,-298.18 280.51,-294.8 286.26,-303.71 290.56,-298.18"/>
</g>
<!-- n_6 -->
<g id="node10" class="node">
<title>n_6</title>
<polygon fill="none" stroke="black" points="364,-255.88 364,-281.12 420,-281.12 420,-255.88 364,-255.88"/>
<text text-anchor="start" x="371" y="-266.57" font-family="Times New Roman,serif" font-weight="bold" font-size="9.00">Obesity III</text>
<polygon fill="none" stroke="black" points="363,-254.88 363,-282.12 421,-282.12 421,-254.88 363,-254.88"/>
</g>
<!-- n_0_3_4_5_6&#45;&gt;n_6 -->
<g id="edge9" class="edge">
<title>n_0_3_4_5_6&#45;&gt;n_6</title>
<path fill="none" stroke="black" d="M378,-337.05C380.6,-324.51 383.63,-309.89 386.2,-297.47"/>
<polygon fill="black" stroke="black" points="389.59,-298.35 388.2,-287.85 382.74,-296.93 389.59,-298.35"/>
</g>
<!-- n_0_3_5 -->
<g id="node4" class="node">
<title>n_0_3_5</title>
<polygon fill="none" stroke="black" points="94.88,-163 94.88,-195 162.88,-195 162.88,-163 94.88,-163"/>
<text text-anchor="start" x="101.88" y="-180.45" font-family="Times New Roman,serif" font-weight="bold" font-size="9.00">Overweight II</text>
<text text-anchor="start" x="109.38" y="-171.45" font-family="Times New Roman,serif" font-weight="bold" font-size="9.00">Obesity II</text>
<polygon fill="none" stroke="black" points="162.88,-163 162.88,-195 251.12,-195 251.12,-163 162.88,-163"/>
<text text-anchor="start" x="169.88" y="-177.07" font-family="Times New Roman,serif" font-weight="bold" font-size="9.00">Insufficient weight</text>
<polygon fill="none" stroke="black" points="93.88,-162 93.88,-196 252.12,-196 252.12,-162 93.88,-162"/>
</g>
<!-- n_0_3_4_5&#45;&gt;n_0_3_5 -->
<g id="edge3" class="edge">
<title>n_0_3_4_5&#45;&gt;n_0_3_5</title>
<path fill="none" stroke="black" d="M227.11,-243.13C217.87,-232.35 206.96,-219.62 197.35,-208.41"/>
<polygon fill="black" stroke="black" points="200.14,-206.29 190.98,-200.98 194.83,-210.85 200.14,-206.29"/>
</g>
<!-- n_4 -->
<g id="node9" class="node">
<title>n_4</title>
<polygon fill="none" stroke="black" points="298,-166.38 298,-191.62 348,-191.62 348,-166.38 298,-166.38"/>
<text text-anchor="start" x="305" y="-177.07" font-family="Times New Roman,serif" font-weight="bold" font-size="9.00">Obesity I</text>
<polygon fill="none" stroke="black" points="297,-165.38 297,-192.62 349,-192.62 349,-165.38 297,-165.38"/>
</g>
<!-- n_0_3_4_5&#45;&gt;n_4 -->
<g id="edge8" class="edge">
<title>n_0_3_4_5&#45;&gt;n_4</title>
<path fill="none" stroke="black" d="M268.89,-243.13C278.98,-231.36 291.07,-217.25 301.27,-205.36"/>
<polygon fill="black" stroke="black" points="303.79,-207.79 307.64,-197.92 298.47,-203.23 303.79,-207.79"/>
</g>
<!-- n_3_5 -->
<g id="node5" class="node">
<title>n_3_5</title>
<polygon fill="none" stroke="black" points="36.5,-84.38 36.5,-109.62 104.5,-109.62 104.5,-84.38 36.5,-84.38"/>
<text text-anchor="start" x="43.5" y="-95.08" font-family="Times New Roman,serif" font-weight="bold" font-size="9.00">Overweight II</text>
<polygon fill="none" stroke="black" points="104.5,-84.38 104.5,-109.62 157.5,-109.62 157.5,-84.38 104.5,-84.38"/>
<text text-anchor="start" x="111.5" y="-95.08" font-family="Times New Roman,serif" font-weight="bold" font-size="9.00">Obesity II</text>
<polygon fill="none" stroke="black" points="35.5,-83.38 35.5,-110.62 158.5,-110.62 158.5,-83.38 35.5,-83.38"/>
</g>
<!-- n_0_3_5&#45;&gt;n_3_5 -->
<g id="edge4" class="edge">
<title>n_0_3_5&#45;&gt;n_3_5</title>
<path fill="none" stroke="black" d="M154.21,-158.22C144.13,-147.61 131.59,-134.41 120.82,-123.07"/>
<polygon fill="black" stroke="black" points="123.47,-120.78 114.04,-115.94 118.39,-125.6 123.47,-120.78"/>
</g>
<!-- n_0 -->
<g id="node8" class="node">
<title>n_0</title>
<polygon fill="none" stroke="black" points="204.88,-84.38 204.88,-109.62 293.12,-109.62 293.12,-84.38 204.88,-84.38"/>
<text text-anchor="start" x="211.88" y="-95.08" font-family="Times New Roman,serif" font-weight="bold" font-size="9.00">Insufficient weight</text>
<polygon fill="none" stroke="black" points="203.88,-83.38 203.88,-110.62 294.12,-110.62 294.12,-83.38 203.88,-83.38"/>
</g>
<!-- n_0_3_5&#45;&gt;n_0 -->
<g id="edge7" class="edge">
<title>n_0_3_5&#45;&gt;n_0</title>
<path fill="none" stroke="black" d="M191.79,-158.22C201.87,-147.61 214.41,-134.41 225.18,-123.07"/>
<polygon fill="black" stroke="black" points="227.61,-125.6 231.96,-115.94 222.53,-120.78 227.61,-125.6"/>
</g>
<!-- n_3 -->
<g id="node6" class="node">
<title>n_3</title>
<polygon fill="none" stroke="black" points="9,-5.38 9,-30.62 77,-30.62 77,-5.38 9,-5.38"/>
<text text-anchor="start" x="16" y="-16.07" font-family="Times New Roman,serif" font-weight="bold" font-size="9.00">Overweight II</text>
<polygon fill="none" stroke="black" points="8,-4.38 8,-31.62 78,-31.62 78,-4.38 8,-4.38"/>
</g>
<!-- n_3_5&#45;&gt;n_3 -->
<g id="edge5" class="edge">
<title>n_3_5&#45;&gt;n_3</title>
<path fill="none" stroke="black" d="M85.28,-79.29C78.33,-69.37 69.35,-56.57 61.46,-45.32"/>
<polygon fill="black" stroke="black" points="64.36,-43.36 55.75,-37.18 58.63,-47.38 64.36,-43.36"/>
</g>
<!-- n_5 -->
<g id="node7" class="node">
<title>n_5</title>
<polygon fill="none" stroke="black" points="124.5,-5.38 124.5,-30.62 177.5,-30.62 177.5,-5.38 124.5,-5.38"/>
<text text-anchor="start" x="131.5" y="-16.07" font-family="Times New Roman,serif" font-weight="bold" font-size="9.00">Obesity II</text>
<polygon fill="none" stroke="black" points="123.5,-4.38 123.5,-31.62 178.5,-31.62 178.5,-4.38 123.5,-4.38"/>
</g>
<!-- n_3_5&#45;&gt;n_5 -->
<g id="edge6" class="edge">
<title>n_3_5&#45;&gt;n_5</title>
<path fill="none" stroke="black" d="M108.72,-79.29C115.67,-69.37 124.65,-56.57 132.54,-45.32"/>
<polygon fill="black" stroke="black" points="135.37,-47.38 138.25,-37.18 129.64,-43.36 135.37,-47.38"/>
</g>
<!-- n_1 -->
<g id="node12" class="node">
<title>n_1</title>
<polygon fill="none" stroke="black" points="505,-255.88 505,-281.12 549,-281.12 549,-255.88 505,-255.88"/>
<text text-anchor="start" x="512" y="-266.57" font-family="Times New Roman,serif" font-weight="bold" font-size="9.00">Normal</text>
<polygon fill="none" stroke="black" points="504,-254.88 504,-282.12 550,-282.12 550,-254.88 504,-254.88"/>
</g>
<!-- n_1_2&#45;&gt;n_1 -->
<g id="edge11" class="edge">
<title>n_1_2&#45;&gt;n_1</title>
<path fill="none" stroke="black" d="M542.69,-349.19C539.87,-334.89 535.77,-314.06 532.47,-297.28"/>
<polygon fill="black" stroke="black" points="535.99,-297.06 530.63,-287.93 529.13,-298.41 535.99,-297.06"/>
</g>
<!-- n_2 -->
<g id="node13" class="node">
<title>n_2</title>
<polygon fill="none" stroke="black" points="596.5,-255.88 596.5,-281.12 661.5,-281.12 661.5,-255.88 596.5,-255.88"/>
<text text-anchor="start" x="603.5" y="-266.57" font-family="Times New Roman,serif" font-weight="bold" font-size="9.00">Overweight I</text>
<polygon fill="none" stroke="black" points="595.5,-254.88 595.5,-282.12 662.5,-282.12 662.5,-254.88 595.5,-254.88"/>
</g>
<!-- n_1_2&#45;&gt;n_2 -->
<g id="edge12" class="edge">
<title>n_1_2&#45;&gt;n_2</title>
<path fill="none" stroke="black" d="M560.46,-349.19C573.35,-334.2 592.41,-312.04 607.16,-294.89"/>
<polygon fill="black" stroke="black" points="609.58,-297.45 613.44,-287.59 604.27,-292.89 609.58,-297.45"/>
</g>
</g>
</svg>
