<?xml version="1.0" encoding="UTF-8" standalone="no"?>
<!DOCTYPE svg PUBLIC "-//W3C//DTD SVG 1.1//EN"
 "http://www.w3.org/Graphics/SVG/1.1/DTD/svg11.dtd">
<!-- Generated by graphviz version 10.0.1 (20240210.2158)
 -->
<!-- Title: ND Pages: 1 -->
<svg width="563pt" height="535pt"
 viewBox="0.00 0.00 562.50 535.00" xmlns="http://www.w3.org/2000/svg" xmlns:xlink="http://www.w3.org/1999/xlink">
<g id="graph0" class="graph" transform="scale(1 1) rotate(0) translate(4 531)">
<title>ND</title>
<polygon fill="white" stroke="none" points="-4,4 -4,-531 558.5,-531 558.5,4 -4,4"/>
<!-- n_0_1_2_3_4_5_6 -->
<g id="node1" class="node">
<title>n_0_1_2_3_4_5_6</title>
<polygon fill="none" stroke="black" points="361.38,-454 361.38,-522 449.62,-522 449.62,-454 361.38,-454"/>
<text text-anchor="start" x="368.38" y="-507.45" font-family="Times New Roman,serif" font-weight="bold" font-size="9.00">Insufficient weight</text>
<text text-anchor="start" x="390.5" y="-498.45" font-family="Times New Roman,serif" font-weight="bold" font-size="9.00">Normal</text>
<text text-anchor="start" x="378.5" y="-489.45" font-family="Times New Roman,serif" font-weight="bold" font-size="9.00">Overweight II</text>
<text text-anchor="start" x="387.5" y="-480.45" font-family="Times New Roman,serif" font-weight="bold" font-size="9.00">Obesity I</text>
<text text-anchor="start" x="386" y="-471.45" font-family="Times New Roman,serif" font-weight="bold" font-size="9.00">Obesity II</text>
<text text-anchor="start" x="384.5" y="-462.45" font-family="Times New Roman,serif" font-weight="bold" font-size="9.00">Obesity III</text>
<polygon fill="none" stroke="black" points="449.62,-454 449.62,-522 514.62,-522 514.62,-454 449.62,-454"/>
<text text-anchor="start" x="456.62" y="-486.07" font-family="Times New Roman,serif" font-weight="bold" font-size="9.00">Overweight I</text>
<polygon fill="none" stroke="black" points="360.38,-453 360.38,-523 515.62,-523 515.62,-453 360.38,-453"/>
</g>
<!-- n_0_1_3_4_5_6 -->
<g id="node2" class="node">
<title>n_0_1_3_4_5_6</title>
<polygon fill="none" stroke="black" points="292.38,-342 292.38,-401 380.62,-401 380.62,-342 292.38,-342"/>
<text text-anchor="start" x="299.38" y="-386.45" font-family="Times New Roman,serif" font-weight="bold" font-size="9.00">Insufficient weight</text>
<text text-anchor="start" x="321.5" y="-377.45" font-family="Times New Roman,serif" font-weight="bold" font-size="9.00">Normal</text>
<text text-anchor="start" x="309.5" y="-368.45" font-family="Times New Roman,serif" font-weight="bold" font-size="9.00">Overweight II</text>
<text text-anchor="start" x="318.5" y="-359.45" font-family="Times New Roman,serif" font-weight="bold" font-size="9.00">Obesity I</text>
<text text-anchor="start" x="315.5" y="-350.45" font-family="Times New Roman,serif" font-weight="bold" font-size="9.00">Obesity III</text>
<polygon fill="none" stroke="black" points="380.62,-342 380.62,-401 433.62,-401 433.62,-342 380.62,-342"/>
<text text-anchor="start" x="387.62" y="-369.57" font-family="Times New Roman,serif" font-weight="bold" font-size="9.00">Obesity II</text>
<polygon fill="none" stroke="black" points="291.38,-341 291.38,-402 434.62,-402 434.62,-341 291.38,-341"/>
</g>
<!-- n_0_1_2_3_4_5_6&#45;&gt;n_0_1_3_4_5_6 -->
<g id="edge1" class="edge">
<title>n_0_1_2_3_4_5_6&#45;&gt;n_0_1_3_4_5_6</title>
<path fill="none" stroke="black" d="M413.23,-449.19C406.11,-438.31 398.28,-426.36 390.97,-415.21"/>
<polygon fill="black" stroke="black" points="393.95,-413.37 385.54,-406.92 388.1,-417.2 393.95,-413.37"/>
</g>
<!-- n_2 -->
<g id="node13" class="node">
<title>n_2</title>
<polygon fill="none" stroke="black" points="480.5,-358.88 480.5,-384.12 545.5,-384.12 545.5,-358.88 480.5,-358.88"/>
<text text-anchor="start" x="487.5" y="-369.57" font-family="Times New Roman,serif" font-weight="bold" font-size="9.00">Overweight I</text>
<polygon fill="none" stroke="black" points="479.5,-357.88 479.5,-385.12 546.5,-385.12 546.5,-357.88 479.5,-357.88"/>
</g>
<!-- n_0_1_2_3_4_5_6&#45;&gt;n_2 -->
<g id="edge12" class="edge">
<title>n_0_1_2_3_4_5_6&#45;&gt;n_2</title>
<path fill="none" stroke="black" d="M462.77,-449.19C473.51,-432.78 485.84,-413.96 495.6,-399.07"/>
<polygon fill="black" stroke="black" points="498.51,-401.01 501.06,-390.73 492.65,-397.18 498.51,-401.01"/>
</g>
<!-- n_0_1_3_4_6 -->
<g id="node3" class="node">
<title>n_0_1_3_4_6</title>
<polygon fill="none" stroke="black" points="208.88,-248 208.88,-289 276.88,-289 276.88,-248 208.88,-248"/>
<text text-anchor="start" x="227.88" y="-274.45" font-family="Times New Roman,serif" font-weight="bold" font-size="9.00">Normal</text>
<text text-anchor="start" x="215.88" y="-265.45" font-family="Times New Roman,serif" font-weight="bold" font-size="9.00">Overweight II</text>
<text text-anchor="start" x="221.88" y="-256.45" font-family="Times New Roman,serif" font-weight="bold" font-size="9.00">Obesity III</text>
<polygon fill="none" stroke="black" points="276.88,-248 276.88,-289 365.12,-289 365.12,-248 276.88,-248"/>
<text text-anchor="start" x="283.88" y="-269.95" font-family="Times New Roman,serif" font-weight="bold" font-size="9.00">Insufficient weight</text>
<text text-anchor="start" x="303" y="-260.95" font-family="Times New Roman,serif" font-weight="bold" font-size="9.00">Obesity I</text>
<polygon fill="none" stroke="black" points="207.88,-247 207.88,-290 366.12,-290 366.12,-247 207.88,-247"/>
</g>
<!-- n_0_1_3_4_5_6&#45;&gt;n_0_1_3_4_6 -->
<g id="edge2" class="edge">
<title>n_0_1_3_4_5_6&#45;&gt;n_0_1_3_4_6</title>
<path fill="none" stroke="black" d="M337.9,-337.15C329.59,-326.11 320.35,-313.82 312.05,-302.78"/>
<polygon fill="black" stroke="black" points="315.05,-300.96 306.24,-295.07 309.46,-305.16 315.05,-300.96"/>
</g>
<!-- n_5 -->
<g id="node12" class="node">
<title>n_5</title>
<polygon fill="none" stroke="black" points="412.5,-255.88 412.5,-281.12 465.5,-281.12 465.5,-255.88 412.5,-255.88"/>
<text text-anchor="start" x="419.5" y="-266.57" font-family="Times New Roman,serif" font-weight="bold" font-size="9.00">Obesity II</text>
<polygon fill="none" stroke="black" points="411.5,-254.88 411.5,-282.12 466.5,-282.12 466.5,-254.88 411.5,-254.88"/>
</g>
<!-- n_0_1_3_4_5_6&#45;&gt;n_5 -->
<g id="edge11" class="edge">
<title>n_0_1_3_4_5_6&#45;&gt;n_5</title>
<path fill="none" stroke="black" d="M388.1,-337.15C398.29,-323.6 409.9,-308.17 419.45,-295.48"/>
<polygon fill="black" stroke="black" points="422.17,-297.68 425.39,-287.59 416.58,-293.48 422.17,-297.68"/>
</g>
<!-- n_1_3_6 -->
<g id="node4" class="node">
<title>n_1_3_6</title>
<polygon fill="none" stroke="black" points="136,-163 136,-195 204,-195 204,-163 136,-163"/>
<text text-anchor="start" x="155" y="-180.45" font-family="Times New Roman,serif" font-weight="bold" font-size="9.00">Normal</text>
<text text-anchor="start" x="143" y="-171.45" font-family="Times New Roman,serif" font-weight="bold" font-size="9.00">Overweight II</text>
<polygon fill="none" stroke="black" points="204,-163 204,-195 260,-195 260,-163 204,-163"/>
<text text-anchor="start" x="211" y="-177.07" font-family="Times New Roman,serif" font-weight="bold" font-size="9.00">Obesity III</text>
<polygon fill="none" stroke="black" points="135,-162 135,-196 261,-196 261,-162 135,-162"/>
</g>
<!-- n_0_1_3_4_6&#45;&gt;n_1_3_6 -->
<g id="edge3" class="edge">
<title>n_0_1_3_4_6&#45;&gt;n_1_3_6</title>
<path fill="none" stroke="black" d="M262.21,-243.13C251.03,-232.14 237.78,-219.11 226.23,-207.75"/>
<polygon fill="black" stroke="black" points="228.83,-205.4 219.25,-200.89 223.92,-210.39 228.83,-205.4"/>
</g>
<!-- n_0_4 -->
<g id="node9" class="node">
<title>n_0_4</title>
<polygon fill="none" stroke="black" points="306.88,-166.38 306.88,-191.62 395.12,-191.62 395.12,-166.38 306.88,-166.38"/>
<text text-anchor="start" x="313.88" y="-177.07" font-family="Times New Roman,serif" font-weight="bold" font-size="9.00">Insufficient weight</text>
<polygon fill="none" stroke="black" points="395.12,-166.38 395.12,-191.62 445.12,-191.62 445.12,-166.38 395.12,-166.38"/>
<text text-anchor="start" x="402.12" y="-177.07" font-family="Times New Roman,serif" font-weight="bold" font-size="9.00">Obesity I</text>
<polygon fill="none" stroke="black" points="305.88,-165.38 305.88,-192.62 446.12,-192.62 446.12,-165.38 305.88,-165.38"/>
</g>
<!-- n_0_1_3_4_6&#45;&gt;n_0_4 -->
<g id="edge8" class="edge">
<title>n_0_1_3_4_6&#45;&gt;n_0_4</title>
<path fill="none" stroke="black" d="M311.79,-243.13C323.99,-231.13 338.67,-216.7 350.92,-204.66"/>
<polygon fill="black" stroke="black" points="353.19,-207.34 357.86,-197.83 348.28,-202.35 353.19,-207.34"/>
</g>
<!-- n_1_3 -->
<g id="node5" class="node">
<title>n_1_3</title>
<polygon fill="none" stroke="black" points="26,-84.38 26,-109.62 70,-109.62 70,-84.38 26,-84.38"/>
<text text-anchor="start" x="33" y="-95.08" font-family="Times New Roman,serif" font-weight="bold" font-size="9.00">Normal</text>
<polygon fill="none" stroke="black" points="70,-84.38 70,-109.62 138,-109.62 138,-84.38 70,-84.38"/>
<text text-anchor="start" x="77" y="-95.08" font-family="Times New Roman,serif" font-weight="bold" font-size="9.00">Overweight II</text>
<polygon fill="none" stroke="black" points="25,-83.38 25,-110.62 139,-110.62 139,-83.38 25,-83.38"/>
</g>
<!-- n_1_3_6&#45;&gt;n_1_3 -->
<g id="edge4" class="edge">
<title>n_1_3_6&#45;&gt;n_1_3</title>
<path fill="none" stroke="black" d="M169.03,-158.02C152.72,-146.77 132.29,-132.68 115.32,-120.98"/>
<polygon fill="black" stroke="black" points="117.76,-118.41 107.55,-115.62 113.79,-124.18 117.76,-118.41"/>
</g>
<!-- n_6 -->
<g id="node8" class="node">
<title>n_6</title>
<polygon fill="none" stroke="black" points="185,-84.38 185,-109.62 241,-109.62 241,-84.38 185,-84.38"/>
<text text-anchor="start" x="192" y="-95.08" font-family="Times New Roman,serif" font-weight="bold" font-size="9.00">Obesity III</text>
<polygon fill="none" stroke="black" points="184,-83.38 184,-110.62 242,-110.62 242,-83.38 184,-83.38"/>
</g>
<!-- n_1_3_6&#45;&gt;n_6 -->
<g id="edge7" class="edge">
<title>n_1_3_6&#45;&gt;n_6</title>
<path fill="none" stroke="black" d="M201.71,-158.22C203.52,-148.54 205.74,-136.72 207.73,-126.11"/>
<polygon fill="black" stroke="black" points="211.16,-126.81 209.56,-116.33 204.28,-125.52 211.16,-126.81"/>
</g>
<!-- n_1 -->
<g id="node6" class="node">
<title>n_1</title>
<polygon fill="none" stroke="black" points="9,-5.38 9,-30.62 53,-30.62 53,-5.38 9,-5.38"/>
<text text-anchor="start" x="16" y="-16.07" font-family="Times New Roman,serif" font-weight="bold" font-size="9.00">Normal</text>
<polygon fill="none" stroke="black" points="8,-4.38 8,-31.62 54,-31.62 54,-4.38 8,-4.38"/>
</g>
<!-- n_1_3&#45;&gt;n_1 -->
<g id="edge5" class="edge">
<title>n_1_3&#45;&gt;n_1</title>
<path fill="none" stroke="black" d="M70.93,-79.29C64.36,-69.37 55.89,-56.57 48.43,-45.32"/>
<polygon fill="black" stroke="black" points="51.5,-43.61 43.06,-37.2 45.66,-47.47 51.5,-43.61"/>
</g>
<!-- n_3 -->
<g id="node7" class="node">
<title>n_3</title>
<polygon fill="none" stroke="black" points="100,-5.38 100,-30.62 168,-30.62 168,-5.38 100,-5.38"/>
<text text-anchor="start" x="107" y="-16.07" font-family="Times New Roman,serif" font-weight="bold" font-size="9.00">Overweight II</text>
<polygon fill="none" stroke="black" points="99,-4.38 99,-31.62 169,-31.62 169,-4.38 99,-4.38"/>
</g>
<!-- n_1_3&#45;&gt;n_3 -->
<g id="edge6" class="edge">
<title>n_1_3&#45;&gt;n_3</title>
<path fill="none" stroke="black" d="M93.28,-79.29C99.98,-69.37 108.63,-56.57 116.23,-45.32"/>
<polygon fill="black" stroke="black" points="119.02,-47.44 121.71,-37.2 113.22,-43.52 119.02,-47.44"/>
</g>
<!-- n_0 -->
<g id="node10" class="node">
<title>n_0</title>
<polygon fill="none" stroke="black" points="316.88,-84.38 316.88,-109.62 405.12,-109.62 405.12,-84.38 316.88,-84.38"/>
<text text-anchor="start" x="323.88" y="-95.08" font-family="Times New Roman,serif" font-weight="bold" font-size="9.00">Insufficient weight</text>
<polygon fill="none" stroke="black" points="315.88,-83.38 315.88,-110.62 406.12,-110.62 406.12,-83.38 315.88,-83.38"/>
</g>
<!-- n_0_4&#45;&gt;n_0 -->
<g id="edge9" class="edge">
<title>n_0_4&#45;&gt;n_0</title>
<path fill="none" stroke="black" d="M372.82,-161.03C370.91,-150.85 368.43,-137.65 366.24,-125.96"/>
<polygon fill="black" stroke="black" points="369.74,-125.61 364.46,-116.43 362.86,-126.9 369.74,-125.61"/>
</g>
<!-- n_4 -->
<g id="node11" class="node">
<title>n_4</title>
<polygon fill="none" stroke="black" points="452,-84.38 452,-109.62 502,-109.62 502,-84.38 452,-84.38"/>
<text text-anchor="start" x="459" y="-95.08" font-family="Times New Roman,serif" font-weight="bold" font-size="9.00">Obesity I</text>
<polygon fill="none" stroke="black" points="451,-83.38 451,-110.62 503,-110.62 503,-83.38 451,-83.38"/>
</g>
<!-- n_0_4&#45;&gt;n_4 -->
<g id="edge10" class="edge">
<title>n_0_4&#45;&gt;n_4</title>
<path fill="none" stroke="black" d="M397.42,-161.03C411.75,-149.69 430.81,-134.58 446.69,-122.01"/>
<polygon fill="black" stroke="black" points="448.76,-124.83 454.42,-115.88 444.41,-119.35 448.76,-124.83"/>
</g>
</g>
</svg>
