<?xml version="1.0" encoding="UTF-8" standalone="no"?>
<!DOCTYPE svg PUBLIC "-//W3C//DTD SVG 1.1//EN"
 "http://www.w3.org/Graphics/SVG/1.1/DTD/svg11.dtd">
<!-- Generated by graphviz version 10.0.1 (20240210.2158)
 -->
<!-- Title: ND Pages: 1 -->
<svg width="592pt" height="526pt"
 viewBox="0.00 0.00 591.50 526.00" xmlns="http://www.w3.org/2000/svg" xmlns:xlink="http://www.w3.org/1999/xlink">
<g id="graph0" class="graph" transform="scale(1 1) rotate(0) translate(4 522)">
<title>ND</title>
<polygon fill="white" stroke="none" points="-4,4 -4,-522 587.5,-522 587.5,4 -4,4"/>
<!-- n_0_1_2_3_4_5_6 -->
<g id="node1" class="node">
<title>n_0_1_2_3_4_5_6</title>
<polygon fill="none" stroke="black" points="382.38,-445 382.38,-513 470.62,-513 470.62,-445 382.38,-445"/>
<text text-anchor="start" x="389.38" y="-498.45" font-family="Times New Roman,serif" font-weight="bold" font-size="9.00">Insufficient weight</text>
<text text-anchor="start" x="411.5" y="-489.45" font-family="Times New Roman,serif" font-weight="bold" font-size="9.00">Normal</text>
<text text-anchor="start" x="399.5" y="-480.45" font-family="Times New Roman,serif" font-weight="bold" font-size="9.00">Overweight II</text>
<text text-anchor="start" x="408.5" y="-471.45" font-family="Times New Roman,serif" font-weight="bold" font-size="9.00">Obesity I</text>
<text text-anchor="start" x="407" y="-462.45" font-family="Times New Roman,serif" font-weight="bold" font-size="9.00">Obesity II</text>
<text text-anchor="start" x="405.5" y="-453.45" font-family="Times New Roman,serif" font-weight="bold" font-size="9.00">Obesity III</text>
<polygon fill="none" stroke="black" points="470.62,-445 470.62,-513 535.62,-513 535.62,-445 470.62,-445"/>
<text text-anchor="start" x="477.62" y="-477.07" font-family="Times New Roman,serif" font-weight="bold" font-size="9.00">Overweight I</text>
<polygon fill="none" stroke="black" points="381.38,-444 381.38,-514 536.62,-514 536.62,-444 381.38,-444"/>
</g>
<!-- n_0_1_3_4_5_6 -->
<g id="node2" class="node">
<title>n_0_1_3_4_5_6</title>
<polygon fill="none" stroke="black" points="313.38,-342 313.38,-392 401.62,-392 401.62,-342 313.38,-342"/>
<text text-anchor="start" x="320.38" y="-377.45" font-family="Times New Roman,serif" font-weight="bold" font-size="9.00">Insufficient weight</text>
<text text-anchor="start" x="342.5" y="-368.45" font-family="Times New Roman,serif" font-weight="bold" font-size="9.00">Normal</text>
<text text-anchor="start" x="330.5" y="-359.45" font-family="Times New Roman,serif" font-weight="bold" font-size="9.00">Overweight II</text>
<text text-anchor="start" x="336.5" y="-350.45" font-family="Times New Roman,serif" font-weight="bold" font-size="9.00">Obesity III</text>
<polygon fill="none" stroke="black" points="401.62,-342 401.62,-392 454.62,-392 454.62,-342 401.62,-342"/>
<text text-anchor="start" x="410.12" y="-368.45" font-family="Times New Roman,serif" font-weight="bold" font-size="9.00">Obesity I</text>
<text text-anchor="start" x="408.62" y="-359.45" font-family="Times New Roman,serif" font-weight="bold" font-size="9.00">Obesity II</text>
<polygon fill="none" stroke="black" points="312.38,-341 312.38,-393 455.62,-393 455.62,-341 312.38,-341"/>
</g>
<!-- n_0_1_2_3_4_5_6&#45;&gt;n_0_1_3_4_5_6 -->
<g id="edge1" class="edge">
<title>n_0_1_2_3_4_5_6&#45;&gt;n_0_1_3_4_5_6</title>
<path fill="none" stroke="black" d="M433.19,-440.14C425.72,-429.19 417.56,-417.22 410.07,-406.23"/>
<polygon fill="black" stroke="black" points="413.07,-404.43 404.55,-398.14 407.29,-408.37 413.07,-404.43"/>
</g>
<!-- n_2 -->
<g id="node13" class="node">
<title>n_2</title>
<polygon fill="none" stroke="black" points="501.5,-354.38 501.5,-379.62 566.5,-379.62 566.5,-354.38 501.5,-354.38"/>
<text text-anchor="start" x="508.5" y="-365.07" font-family="Times New Roman,serif" font-weight="bold" font-size="9.00">Overweight I</text>
<polygon fill="none" stroke="black" points="500.5,-353.38 500.5,-380.62 567.5,-380.62 567.5,-353.38 500.5,-353.38"/>
</g>
<!-- n_0_1_2_3_4_5_6&#45;&gt;n_2 -->
<g id="edge12" class="edge">
<title>n_0_1_2_3_4_5_6&#45;&gt;n_2</title>
<path fill="none" stroke="black" d="M484.81,-440.14C495.11,-425.04 506.71,-408.02 516.06,-394.31"/>
<polygon fill="black" stroke="black" points="518.83,-396.47 521.57,-386.23 513.04,-392.52 518.83,-396.47"/>
</g>
<!-- n_0_1_3_6 -->
<g id="node3" class="node">
<title>n_0_1_3_6</title>
<polygon fill="none" stroke="black" points="235.88,-248 235.88,-289 324.12,-289 324.12,-248 235.88,-248"/>
<text text-anchor="start" x="242.88" y="-274.45" font-family="Times New Roman,serif" font-weight="bold" font-size="9.00">Insufficient weight</text>
<text text-anchor="start" x="253" y="-265.45" font-family="Times New Roman,serif" font-weight="bold" font-size="9.00">Overweight II</text>
<text text-anchor="start" x="259" y="-256.45" font-family="Times New Roman,serif" font-weight="bold" font-size="9.00">Obesity III</text>
<polygon fill="none" stroke="black" points="324.12,-248 324.12,-289 368.12,-289 368.12,-248 324.12,-248"/>
<text text-anchor="start" x="331.12" y="-266.57" font-family="Times New Roman,serif" font-weight="bold" font-size="9.00">Normal</text>
<polygon fill="none" stroke="black" points="234.88,-247 234.88,-290 369.12,-290 369.12,-247 234.88,-247"/>
</g>
<!-- n_0_1_3_4_5_6&#45;&gt;n_0_1_3_6 -->
<g id="edge2" class="edge">
<title>n_0_1_3_4_5_6&#45;&gt;n_0_1_3_6</title>
<path fill="none" stroke="black" d="M359.4,-337.05C350.17,-326.18 339.61,-313.76 330.08,-302.55"/>
<polygon fill="black" stroke="black" points="332.83,-300.38 323.69,-295.03 327.5,-304.91 332.83,-300.38"/>
</g>
<!-- n_4_5 -->
<g id="node10" class="node">
<title>n_4_5</title>
<polygon fill="none" stroke="black" points="415.5,-255.88 415.5,-281.12 465.5,-281.12 465.5,-255.88 415.5,-255.88"/>
<text text-anchor="start" x="422.5" y="-266.57" font-family="Times New Roman,serif" font-weight="bold" font-size="9.00">Obesity I</text>
<polygon fill="none" stroke="black" points="465.5,-255.88 465.5,-281.12 518.5,-281.12 518.5,-255.88 465.5,-255.88"/>
<text text-anchor="start" x="472.5" y="-266.57" font-family="Times New Roman,serif" font-weight="bold" font-size="9.00">Obesity II</text>
<polygon fill="none" stroke="black" points="414.5,-254.88 414.5,-282.12 519.5,-282.12 519.5,-254.88 414.5,-254.88"/>
</g>
<!-- n_0_1_3_4_5_6&#45;&gt;n_4_5 -->
<g id="edge9" class="edge">
<title>n_0_1_3_4_5_6&#45;&gt;n_4_5</title>
<path fill="none" stroke="black" d="M408.9,-337.05C420.46,-323.6 434.08,-307.77 445.23,-294.81"/>
<polygon fill="black" stroke="black" points="447.64,-297.38 451.51,-287.51 442.33,-292.81 447.64,-297.38"/>
</g>
<!-- n_0_3_6 -->
<g id="node4" class="node">
<title>n_0_3_6</title>
<polygon fill="none" stroke="black" points="94.88,-163 94.88,-195 162.88,-195 162.88,-163 94.88,-163"/>
<text text-anchor="start" x="101.88" y="-180.45" font-family="Times New Roman,serif" font-weight="bold" font-size="9.00">Overweight II</text>
<text text-anchor="start" x="107.88" y="-171.45" font-family="Times New Roman,serif" font-weight="bold" font-size="9.00">Obesity III</text>
<polygon fill="none" stroke="black" points="162.88,-163 162.88,-195 251.12,-195 251.12,-163 162.88,-163"/>
<text text-anchor="start" x="169.88" y="-177.07" font-family="Times New Roman,serif" font-weight="bold" font-size="9.00">Insufficient weight</text>
<polygon fill="none" stroke="black" points="93.88,-162 93.88,-196 252.12,-196 252.12,-162 93.88,-162"/>
</g>
<!-- n_0_1_3_6&#45;&gt;n_0_3_6 -->
<g id="edge3" class="edge">
<title>n_0_1_3_6&#45;&gt;n_0_3_6</title>
<path fill="none" stroke="black" d="M266.07,-243.13C249.08,-231.61 228.79,-217.84 211.49,-206.11"/>
<polygon fill="black" stroke="black" points="213.72,-203.39 203.48,-200.68 209.79,-209.19 213.72,-203.39"/>
</g>
<!-- n_1 -->
<g id="node9" class="node">
<title>n_1</title>
<polygon fill="none" stroke="black" points="298,-166.38 298,-191.62 342,-191.62 342,-166.38 298,-166.38"/>
<text text-anchor="start" x="305" y="-177.07" font-family="Times New Roman,serif" font-weight="bold" font-size="9.00">Normal</text>
<polygon fill="none" stroke="black" points="297,-165.38 297,-192.62 343,-192.62 343,-165.38 297,-165.38"/>
</g>
<!-- n_0_1_3_6&#45;&gt;n_1 -->
<g id="edge8" class="edge">
<title>n_0_1_3_6&#45;&gt;n_1</title>
<path fill="none" stroke="black" d="M307.01,-243.13C309.27,-232.17 311.94,-219.18 314.27,-207.84"/>
<polygon fill="black" stroke="black" points="317.66,-208.75 316.25,-198.25 310.8,-207.34 317.66,-208.75"/>
</g>
<!-- n_3_6 -->
<g id="node5" class="node">
<title>n_3_6</title>
<polygon fill="none" stroke="black" points="35,-84.38 35,-109.62 103,-109.62 103,-84.38 35,-84.38"/>
<text text-anchor="start" x="42" y="-95.08" font-family="Times New Roman,serif" font-weight="bold" font-size="9.00">Overweight II</text>
<polygon fill="none" stroke="black" points="103,-84.38 103,-109.62 159,-109.62 159,-84.38 103,-84.38"/>
<text text-anchor="start" x="110" y="-95.08" font-family="Times New Roman,serif" font-weight="bold" font-size="9.00">Obesity III</text>
<polygon fill="none" stroke="black" points="34,-83.38 34,-110.62 160,-110.62 160,-83.38 34,-83.38"/>
</g>
<!-- n_0_3_6&#45;&gt;n_3_6 -->
<g id="edge4" class="edge">
<title>n_0_3_6&#45;&gt;n_3_6</title>
<path fill="none" stroke="black" d="M154.21,-158.22C144.13,-147.61 131.59,-134.41 120.82,-123.07"/>
<polygon fill="black" stroke="black" points="123.47,-120.78 114.04,-115.94 118.39,-125.6 123.47,-120.78"/>
</g>
<!-- n_0 -->
<g id="node8" class="node">
<title>n_0</title>
<polygon fill="none" stroke="black" points="205.88,-84.38 205.88,-109.62 294.12,-109.62 294.12,-84.38 205.88,-84.38"/>
<text text-anchor="start" x="212.88" y="-95.08" font-family="Times New Roman,serif" font-weight="bold" font-size="9.00">Insufficient weight</text>
<polygon fill="none" stroke="black" points="204.88,-83.38 204.88,-110.62 295.12,-110.62 295.12,-83.38 204.88,-83.38"/>
</g>
<!-- n_0_3_6&#45;&gt;n_0 -->
<g id="edge7" class="edge">
<title>n_0_3_6&#45;&gt;n_0</title>
<path fill="none" stroke="black" d="M192.03,-158.22C202.25,-147.61 214.96,-134.41 225.87,-123.07"/>
<polygon fill="black" stroke="black" points="228.33,-125.57 232.74,-115.93 223.28,-120.71 228.33,-125.57"/>
</g>
<!-- n_3 -->
<g id="node6" class="node">
<title>n_3</title>
<polygon fill="none" stroke="black" points="9,-5.38 9,-30.62 77,-30.62 77,-5.38 9,-5.38"/>
<text text-anchor="start" x="16" y="-16.07" font-family="Times New Roman,serif" font-weight="bold" font-size="9.00">Overweight II</text>
<polygon fill="none" stroke="black" points="8,-4.38 8,-31.62 78,-31.62 78,-4.38 8,-4.38"/>
</g>
<!-- n_3_6&#45;&gt;n_3 -->
<g id="edge5" class="edge">
<title>n_3_6&#45;&gt;n_3</title>
<path fill="none" stroke="black" d="M85.28,-79.29C78.33,-69.37 69.35,-56.57 61.46,-45.32"/>
<polygon fill="black" stroke="black" points="64.36,-43.36 55.75,-37.18 58.63,-47.38 64.36,-43.36"/>
</g>
<!-- n_6 -->
<g id="node7" class="node">
<title>n_6</title>
<polygon fill="none" stroke="black" points="124,-5.38 124,-30.62 180,-30.62 180,-5.38 124,-5.38"/>
<text text-anchor="start" x="131" y="-16.07" font-family="Times New Roman,serif" font-weight="bold" font-size="9.00">Obesity III</text>
<polygon fill="none" stroke="black" points="123,-4.38 123,-31.62 181,-31.62 181,-4.38 123,-4.38"/>
</g>
<!-- n_3_6&#45;&gt;n_6 -->
<g id="edge6" class="edge">
<title>n_3_6&#45;&gt;n_6</title>
<path fill="none" stroke="black" d="M108.93,-79.29C116.09,-69.27 125.35,-56.31 133.44,-44.98"/>
<polygon fill="black" stroke="black" points="136.06,-47.34 139.02,-37.17 130.36,-43.28 136.06,-47.34"/>
</g>
<!-- n_4 -->
<g id="node11" class="node">
<title>n_4</title>
<polygon fill="none" stroke="black" points="424,-166.38 424,-191.62 474,-191.62 474,-166.38 424,-166.38"/>
<text text-anchor="start" x="431" y="-177.07" font-family="Times New Roman,serif" font-weight="bold" font-size="9.00">Obesity I</text>
<polygon fill="none" stroke="black" points="423,-165.38 423,-192.62 475,-192.62 475,-165.38 423,-165.38"/>
</g>
<!-- n_4_5&#45;&gt;n_4 -->
<g id="edge10" class="edge">
<title>n_4_5&#45;&gt;n_4</title>
<path fill="none" stroke="black" d="M463.53,-250.63C461.04,-238.52 457.63,-221.94 454.74,-207.88"/>
<polygon fill="black" stroke="black" points="458.21,-207.39 452.76,-198.3 451.35,-208.8 458.21,-207.39"/>
</g>
<!-- n_5 -->
<g id="node12" class="node">
<title>n_5</title>
<polygon fill="none" stroke="black" points="521.5,-166.38 521.5,-191.62 574.5,-191.62 574.5,-166.38 521.5,-166.38"/>
<text text-anchor="start" x="528.5" y="-177.07" font-family="Times New Roman,serif" font-weight="bold" font-size="9.00">Obesity II</text>
<polygon fill="none" stroke="black" points="520.5,-165.38 520.5,-192.62 575.5,-192.62 575.5,-165.38 520.5,-165.38"/>
</g>
<!-- n_4_5&#45;&gt;n_5 -->
<g id="edge11" class="edge">
<title>n_4_5&#45;&gt;n_5</title>
<path fill="none" stroke="black" d="M482.62,-250.63C494.61,-237.68 511.35,-219.59 524.89,-204.97"/>
<polygon fill="black" stroke="black" points="527.18,-207.65 531.4,-197.93 522.04,-202.89 527.18,-207.65"/>
</g>
</g>
</svg>
