<?xml version="1.0" encoding="UTF-8" standalone="no"?>
<!DOCTYPE svg PUBLIC "-//W3C//DTD SVG 1.1//EN"
 "http://www.w3.org/Graphics/SVG/1.1/DTD/svg11.dtd">
<!-- Generated by graphviz version 10.0.1 (20240210.2158)
 -->
<!-- Title: ND Pages: 1 -->
<svg width="702pt" height="414pt"
 viewBox="0.00 0.00 702.00 414.00" xmlns="http://www.w3.org/2000/svg" xmlns:xlink="http://www.w3.org/1999/xlink">
<g id="graph0" class="graph" transform="scale(1 1) rotate(0) translate(4 410)">
<title>ND</title>
<polygon fill="white" stroke="none" points="-4,4 -4,-410 698,-410 698,4 -4,4"/>
<!-- n_0_1_2_3_4_5_6 -->
<g id="node1" class="node">
<title>n_0_1_2_3_4_5_6</title>
<polygon fill="none" stroke="black" points="383.38,-342 383.38,-401 451.38,-401 451.38,-342 383.38,-342"/>
<text text-anchor="start" x="402.38" y="-386.45" font-family="Times New Roman,serif" font-weight="bold" font-size="9.00">Normal</text>
<text text-anchor="start" x="391.88" y="-377.45" font-family="Times New Roman,serif" font-weight="bold" font-size="9.00">Overweight I</text>
<text text-anchor="start" x="390.38" y="-368.45" font-family="Times New Roman,serif" font-weight="bold" font-size="9.00">Overweight II</text>
<text text-anchor="start" x="399.38" y="-359.45" font-family="Times New Roman,serif" font-weight="bold" font-size="9.00">Obesity I</text>
<text text-anchor="start" x="396.38" y="-350.45" font-family="Times New Roman,serif" font-weight="bold" font-size="9.00">Obesity III</text>
<polygon fill="none" stroke="black" points="451.38,-342 451.38,-401 539.62,-401 539.62,-342 451.38,-342"/>
<text text-anchor="start" x="458.38" y="-372.95" font-family="Times New Roman,serif" font-weight="bold" font-size="9.00">Insufficient weight</text>
<text text-anchor="start" x="476" y="-363.95" font-family="Times New Roman,serif" font-weight="bold" font-size="9.00">Obesity II</text>
<polygon fill="none" stroke="black" points="382.38,-341 382.38,-402 540.62,-402 540.62,-341 382.38,-341"/>
</g>
<!-- n_1_2_3_4_6 -->
<g id="node2" class="node">
<title>n_1_2_3_4_6</title>
<polygon fill="none" stroke="black" points="314.5,-248 314.5,-289 382.5,-289 382.5,-248 314.5,-248"/>
<text text-anchor="start" x="323" y="-274.45" font-family="Times New Roman,serif" font-weight="bold" font-size="9.00">Overweight I</text>
<text text-anchor="start" x="321.5" y="-265.45" font-family="Times New Roman,serif" font-weight="bold" font-size="9.00">Overweight II</text>
<text text-anchor="start" x="327.5" y="-256.45" font-family="Times New Roman,serif" font-weight="bold" font-size="9.00">Obesity III</text>
<polygon fill="none" stroke="black" points="382.5,-248 382.5,-289 432.5,-289 432.5,-248 382.5,-248"/>
<text text-anchor="start" x="392.5" y="-269.95" font-family="Times New Roman,serif" font-weight="bold" font-size="9.00">Normal</text>
<text text-anchor="start" x="389.5" y="-260.95" font-family="Times New Roman,serif" font-weight="bold" font-size="9.00">Obesity I</text>
<polygon fill="none" stroke="black" points="313.5,-247 313.5,-290 433.5,-290 433.5,-247 313.5,-247"/>
</g>
<!-- n_0_1_2_3_4_5_6&#45;&gt;n_1_2_3_4_6 -->
<g id="edge1" class="edge">
<title>n_0_1_2_3_4_5_6&#45;&gt;n_1_2_3_4_6</title>
<path fill="none" stroke="black" d="M432.44,-337.15C422.72,-326 411.9,-313.58 402.21,-302.45"/>
<polygon fill="black" stroke="black" points="404.93,-300.24 395.72,-295 399.65,-304.84 404.93,-300.24"/>
</g>
<!-- n_0_5 -->
<g id="node11" class="node">
<title>n_0_5</title>
<polygon fill="none" stroke="black" points="479.88,-255.88 479.88,-281.12 568.12,-281.12 568.12,-255.88 479.88,-255.88"/>
<text text-anchor="start" x="486.88" y="-266.57" font-family="Times New Roman,serif" font-weight="bold" font-size="9.00">Insufficient weight</text>
<polygon fill="none" stroke="black" points="568.12,-255.88 568.12,-281.12 621.12,-281.12 621.12,-255.88 568.12,-255.88"/>
<text text-anchor="start" x="575.12" y="-266.57" font-family="Times New Roman,serif" font-weight="bold" font-size="9.00">Obesity II</text>
<polygon fill="none" stroke="black" points="478.88,-254.88 478.88,-282.12 622.12,-282.12 622.12,-254.88 478.88,-254.88"/>
</g>
<!-- n_0_1_2_3_4_5_6&#45;&gt;n_0_5 -->
<g id="edge10" class="edge">
<title>n_0_1_2_3_4_5_6&#45;&gt;n_0_5</title>
<path fill="none" stroke="black" d="M490.89,-337.15C503.07,-323.33 516.96,-307.57 528.26,-294.74"/>
<polygon fill="black" stroke="black" points="530.64,-297.33 534.62,-287.52 525.39,-292.7 530.64,-297.33"/>
</g>
<!-- n_2_3_6 -->
<g id="node3" class="node">
<title>n_2_3_6</title>
<polygon fill="none" stroke="black" points="156,-163 156,-195 221,-195 221,-163 156,-163"/>
<text text-anchor="start" x="163" y="-180.45" font-family="Times New Roman,serif" font-weight="bold" font-size="9.00">Overweight I</text>
<text text-anchor="start" x="167.5" y="-171.45" font-family="Times New Roman,serif" font-weight="bold" font-size="9.00">Obesity III</text>
<polygon fill="none" stroke="black" points="221,-163 221,-195 289,-195 289,-163 221,-163"/>
<text text-anchor="start" x="228" y="-177.07" font-family="Times New Roman,serif" font-weight="bold" font-size="9.00">Overweight II</text>
<polygon fill="none" stroke="black" points="155,-162 155,-196 290,-196 290,-162 155,-162"/>
</g>
<!-- n_1_2_3_4_6&#45;&gt;n_2_3_6 -->
<g id="edge2" class="edge">
<title>n_1_2_3_4_6&#45;&gt;n_2_3_6</title>
<path fill="none" stroke="black" d="M331.44,-243.13C311.19,-231.39 286.92,-217.33 266.43,-205.46"/>
<polygon fill="black" stroke="black" points="268.43,-202.57 258.02,-200.58 264.92,-208.63 268.43,-202.57"/>
</g>
<!-- n_1_4 -->
<g id="node8" class="node">
<title>n_1_4</title>
<polygon fill="none" stroke="black" points="336.5,-166.38 336.5,-191.62 380.5,-191.62 380.5,-166.38 336.5,-166.38"/>
<text text-anchor="start" x="343.5" y="-177.07" font-family="Times New Roman,serif" font-weight="bold" font-size="9.00">Normal</text>
<polygon fill="none" stroke="black" points="380.5,-166.38 380.5,-191.62 430.5,-191.62 430.5,-166.38 380.5,-166.38"/>
<text text-anchor="start" x="387.5" y="-177.07" font-family="Times New Roman,serif" font-weight="bold" font-size="9.00">Obesity I</text>
<polygon fill="none" stroke="black" points="335.5,-165.38 335.5,-192.62 431.5,-192.62 431.5,-165.38 335.5,-165.38"/>
</g>
<!-- n_1_2_3_4_6&#45;&gt;n_1_4 -->
<g id="edge7" class="edge">
<title>n_1_2_3_4_6&#45;&gt;n_1_4</title>
<path fill="none" stroke="black" d="M376.29,-243.13C377.52,-232.28 378.99,-219.45 380.28,-208.19"/>
<polygon fill="black" stroke="black" points="383.75,-208.61 381.41,-198.27 376.8,-207.81 383.75,-208.61"/>
</g>
<!-- n_2_6 -->
<g id="node4" class="node">
<title>n_2_6</title>
<polygon fill="none" stroke="black" points="35,-84.38 35,-109.62 100,-109.62 100,-84.38 35,-84.38"/>
<text text-anchor="start" x="42" y="-95.08" font-family="Times New Roman,serif" font-weight="bold" font-size="9.00">Overweight I</text>
<polygon fill="none" stroke="black" points="100,-84.38 100,-109.62 156,-109.62 156,-84.38 100,-84.38"/>
<text text-anchor="start" x="107" y="-95.08" font-family="Times New Roman,serif" font-weight="bold" font-size="9.00">Obesity III</text>
<polygon fill="none" stroke="black" points="34,-83.38 34,-110.62 157,-110.62 157,-83.38 34,-83.38"/>
</g>
<!-- n_2_3_6&#45;&gt;n_2_6 -->
<g id="edge3" class="edge">
<title>n_2_3_6&#45;&gt;n_2_6</title>
<path fill="none" stroke="black" d="M190.78,-158.02C172.84,-146.72 150.35,-132.55 131.72,-120.82"/>
<polygon fill="black" stroke="black" points="133.71,-117.93 123.38,-115.57 129.98,-123.86 133.71,-117.93"/>
</g>
<!-- n_3 -->
<g id="node7" class="node">
<title>n_3</title>
<polygon fill="none" stroke="black" points="203.5,-84.38 203.5,-109.62 271.5,-109.62 271.5,-84.38 203.5,-84.38"/>
<text text-anchor="start" x="210.5" y="-95.08" font-family="Times New Roman,serif" font-weight="bold" font-size="9.00">Overweight II</text>
<polygon fill="none" stroke="black" points="202.5,-83.38 202.5,-110.62 272.5,-110.62 272.5,-83.38 202.5,-83.38"/>
</g>
<!-- n_2_3_6&#45;&gt;n_3 -->
<g id="edge6" class="edge">
<title>n_2_3_6&#45;&gt;n_3</title>
<path fill="none" stroke="black" d="M226.21,-158.22C228.02,-148.54 230.24,-136.72 232.23,-126.11"/>
<polygon fill="black" stroke="black" points="235.66,-126.81 234.06,-116.33 228.78,-125.52 235.66,-126.81"/>
</g>
<!-- n_2 -->
<g id="node5" class="node">
<title>n_2</title>
<polygon fill="none" stroke="black" points="9,-5.38 9,-30.62 74,-30.62 74,-5.38 9,-5.38"/>
<text text-anchor="start" x="16" y="-16.07" font-family="Times New Roman,serif" font-weight="bold" font-size="9.00">Overweight I</text>
<polygon fill="none" stroke="black" points="8,-4.38 8,-31.62 75,-31.62 75,-4.38 8,-4.38"/>
</g>
<!-- n_2_6&#45;&gt;n_2 -->
<g id="edge4" class="edge">
<title>n_2_6&#45;&gt;n_2</title>
<path fill="none" stroke="black" d="M83.78,-79.29C76.83,-69.37 67.85,-56.57 59.96,-45.32"/>
<polygon fill="black" stroke="black" points="62.86,-43.36 54.25,-37.18 57.13,-47.38 62.86,-43.36"/>
</g>
<!-- n_6 -->
<g id="node6" class="node">
<title>n_6</title>
<polygon fill="none" stroke="black" points="121.5,-5.38 121.5,-30.62 177.5,-30.62 177.5,-5.38 121.5,-5.38"/>
<text text-anchor="start" x="128.5" y="-16.07" font-family="Times New Roman,serif" font-weight="bold" font-size="9.00">Obesity III</text>
<polygon fill="none" stroke="black" points="120.5,-4.38 120.5,-31.62 178.5,-31.62 178.5,-4.38 120.5,-4.38"/>
</g>
<!-- n_2_6&#45;&gt;n_6 -->
<g id="edge5" class="edge">
<title>n_2_6&#45;&gt;n_6</title>
<path fill="none" stroke="black" d="M107.22,-79.29C114.17,-69.37 123.15,-56.57 131.04,-45.32"/>
<polygon fill="black" stroke="black" points="133.87,-47.38 136.75,-37.18 128.14,-43.36 133.87,-47.38"/>
</g>
<!-- n_1 -->
<g id="node9" class="node">
<title>n_1</title>
<polygon fill="none" stroke="black" points="347.5,-84.38 347.5,-109.62 391.5,-109.62 391.5,-84.38 347.5,-84.38"/>
<text text-anchor="start" x="354.5" y="-95.08" font-family="Times New Roman,serif" font-weight="bold" font-size="9.00">Normal</text>
<polygon fill="none" stroke="black" points="346.5,-83.38 346.5,-110.62 392.5,-110.62 392.5,-83.38 346.5,-83.38"/>
</g>
<!-- n_1_4&#45;&gt;n_1 -->
<g id="edge8" class="edge">
<title>n_1_4&#45;&gt;n_1</title>
<path fill="none" stroke="black" d="M380.53,-161.03C378.75,-150.85 376.44,-137.65 374.39,-125.96"/>
<polygon fill="black" stroke="black" points="377.9,-125.68 372.73,-116.43 371,-126.89 377.9,-125.68"/>
</g>
<!-- n_4 -->
<g id="node10" class="node">
<title>n_4</title>
<polygon fill="none" stroke="black" points="438.5,-84.38 438.5,-109.62 488.5,-109.62 488.5,-84.38 438.5,-84.38"/>
<text text-anchor="start" x="445.5" y="-95.08" font-family="Times New Roman,serif" font-weight="bold" font-size="9.00">Obesity I</text>
<polygon fill="none" stroke="black" points="437.5,-83.38 437.5,-110.62 489.5,-110.62 489.5,-83.38 437.5,-83.38"/>
</g>
<!-- n_1_4&#45;&gt;n_4 -->
<g id="edge9" class="edge">
<title>n_1_4&#45;&gt;n_4</title>
<path fill="none" stroke="black" d="M400.47,-161.03C411.5,-150 426.07,-135.43 438.43,-123.07"/>
<polygon fill="black" stroke="black" points="440.89,-125.56 445.49,-116.01 435.94,-120.61 440.89,-125.56"/>
</g>
<!-- n_0 -->
<g id="node12" class="node">
<title>n_0</title>
<polygon fill="none" stroke="black" points="496.38,-166.38 496.38,-191.62 584.62,-191.62 584.62,-166.38 496.38,-166.38"/>
<text text-anchor="start" x="503.38" y="-177.07" font-family="Times New Roman,serif" font-weight="bold" font-size="9.00">Insufficient weight</text>
<polygon fill="none" stroke="black" points="495.38,-165.38 495.38,-192.62 585.62,-192.62 585.62,-165.38 495.38,-165.38"/>
</g>
<!-- n_0_5&#45;&gt;n_0 -->
<g id="edge11" class="edge">
<title>n_0_5&#45;&gt;n_0</title>
<path fill="none" stroke="black" d="M548.57,-250.63C547.19,-238.52 545.29,-221.94 543.69,-207.88"/>
<polygon fill="black" stroke="black" points="547.21,-207.86 542.59,-198.32 540.25,-208.66 547.21,-207.86"/>
</g>
<!-- n_5 -->
<g id="node13" class="node">
<title>n_5</title>
<polygon fill="none" stroke="black" points="632,-166.38 632,-191.62 685,-191.62 685,-166.38 632,-166.38"/>
<text text-anchor="start" x="639" y="-177.07" font-family="Times New Roman,serif" font-weight="bold" font-size="9.00">Obesity II</text>
<polygon fill="none" stroke="black" points="631,-165.38 631,-192.62 686,-192.62 686,-165.38 631,-165.38"/>
</g>
<!-- n_0_5&#45;&gt;n_5 -->
<g id="edge12" class="edge">
<title>n_0_5&#45;&gt;n_5</title>
<path fill="none" stroke="black" d="M571.32,-250.63C587.68,-237.37 610.68,-218.75 628.94,-203.95"/>
<polygon fill="black" stroke="black" points="631,-206.79 636.56,-197.77 626.59,-201.35 631,-206.79"/>
</g>
</g>
</svg>
