<?xml version="1.0" encoding="UTF-8" standalone="no"?>
<!DOCTYPE svg PUBLIC "-//W3C//DTD SVG 1.1//EN"
 "http://www.w3.org/Graphics/SVG/1.1/DTD/svg11.dtd">
<!-- Generated by graphviz version 10.0.1 (20240210.2158)
 -->
<!-- Title: ND Pages: 1 -->
<svg width="553pt" height="423pt"
 viewBox="0.00 0.00 553.12 423.00" xmlns="http://www.w3.org/2000/svg" xmlns:xlink="http://www.w3.org/1999/xlink">
<g id="graph0" class="graph" transform="scale(1 1) rotate(0) translate(4 419)">
<title>ND</title>
<polygon fill="white" stroke="none" points="-4,4 -4,-419 549.12,-419 549.12,4 -4,4"/>
<!-- n_0_1_2_3_4_5_6 -->
<g id="node1" class="node">
<title>n_0_1_2_3_4_5_6</title>
<polygon fill="none" stroke="black" points="297.5,-342 297.5,-410 385.75,-410 385.75,-342 297.5,-342"/>
<text text-anchor="start" x="304.5" y="-395.45" font-family="Times New Roman,serif" font-weight="bold" font-size="9.00">Insufficient weight</text>
<text text-anchor="start" x="326.62" y="-386.45" font-family="Times New Roman,serif" font-weight="bold" font-size="9.00">Normal</text>
<text text-anchor="start" x="314.62" y="-377.45" font-family="Times New Roman,serif" font-weight="bold" font-size="9.00">Overweight II</text>
<text text-anchor="start" x="323.62" y="-368.45" font-family="Times New Roman,serif" font-weight="bold" font-size="9.00">Obesity I</text>
<text text-anchor="start" x="322.12" y="-359.45" font-family="Times New Roman,serif" font-weight="bold" font-size="9.00">Obesity II</text>
<text text-anchor="start" x="320.62" y="-350.45" font-family="Times New Roman,serif" font-weight="bold" font-size="9.00">Obesity III</text>
<polygon fill="none" stroke="black" points="385.75,-342 385.75,-410 450.75,-410 450.75,-342 385.75,-342"/>
<text text-anchor="start" x="392.75" y="-374.07" font-family="Times New Roman,serif" font-weight="bold" font-size="9.00">Overweight I</text>
<polygon fill="none" stroke="black" points="296.5,-341 296.5,-411 451.75,-411 451.75,-341 296.5,-341"/>
</g>
<!-- n_0_1_3_4_5_6 -->
<g id="node2" class="node">
<title>n_0_1_3_4_5_6</title>
<polygon fill="none" stroke="black" points="217,-248 217,-289 305.25,-289 305.25,-248 217,-248"/>
<text text-anchor="start" x="224" y="-274.45" font-family="Times New Roman,serif" font-weight="bold" font-size="9.00">Insufficient weight</text>
<text text-anchor="start" x="246.12" y="-265.45" font-family="Times New Roman,serif" font-weight="bold" font-size="9.00">Normal</text>
<text text-anchor="start" x="240.12" y="-256.45" font-family="Times New Roman,serif" font-weight="bold" font-size="9.00">Obesity III</text>
<polygon fill="none" stroke="black" points="305.25,-248 305.25,-289 373.25,-289 373.25,-248 305.25,-248"/>
<text text-anchor="start" x="312.25" y="-274.45" font-family="Times New Roman,serif" font-weight="bold" font-size="9.00">Overweight II</text>
<text text-anchor="start" x="321.25" y="-265.45" font-family="Times New Roman,serif" font-weight="bold" font-size="9.00">Obesity I</text>
<text text-anchor="start" x="319.75" y="-256.45" font-family="Times New Roman,serif" font-weight="bold" font-size="9.00">Obesity II</text>
<polygon fill="none" stroke="black" points="216,-247 216,-290 374.25,-290 374.25,-247 216,-247"/>
</g>
<!-- n_0_1_2_3_4_5_6&#45;&gt;n_0_1_3_4_5_6 -->
<g id="edge1" class="edge">
<title>n_0_1_2_3_4_5_6&#45;&gt;n_0_1_3_4_5_6</title>
<path fill="none" stroke="black" d="M345.83,-337.21C337.47,-326.05 328.39,-313.92 320.25,-303.05"/>
<polygon fill="black" stroke="black" points="323.08,-300.99 314.29,-295.09 317.48,-305.19 323.08,-300.99"/>
</g>
<!-- n_2 -->
<g id="node13" class="node">
<title>n_2</title>
<polygon fill="none" stroke="black" points="420.62,-255.88 420.62,-281.12 485.62,-281.12 485.62,-255.88 420.62,-255.88"/>
<text text-anchor="start" x="427.62" y="-266.57" font-family="Times New Roman,serif" font-weight="bold" font-size="9.00">Overweight I</text>
<polygon fill="none" stroke="black" points="419.62,-254.88 419.62,-282.12 486.62,-282.12 486.62,-254.88 419.62,-254.88"/>
</g>
<!-- n_0_1_2_3_4_5_6&#45;&gt;n_2 -->
<g id="edge12" class="edge">
<title>n_0_1_2_3_4_5_6&#45;&gt;n_2</title>
<path fill="none" stroke="black" d="M402.42,-337.21C412.8,-323.36 424.29,-308.01 433.71,-295.43"/>
<polygon fill="black" stroke="black" points="436.36,-297.73 439.55,-287.63 430.75,-293.54 436.36,-297.73"/>
</g>
<!-- n_0_1_6 -->
<g id="node3" class="node">
<title>n_0_1_6</title>
<polygon fill="none" stroke="black" points="142,-163 142,-195 230.25,-195 230.25,-163 142,-163"/>
<text text-anchor="start" x="149" y="-180.45" font-family="Times New Roman,serif" font-weight="bold" font-size="9.00">Insufficient weight</text>
<text text-anchor="start" x="165.12" y="-171.45" font-family="Times New Roman,serif" font-weight="bold" font-size="9.00">Obesity III</text>
<polygon fill="none" stroke="black" points="230.25,-163 230.25,-195 274.25,-195 274.25,-163 230.25,-163"/>
<text text-anchor="start" x="237.25" y="-177.07" font-family="Times New Roman,serif" font-weight="bold" font-size="9.00">Normal</text>
<polygon fill="none" stroke="black" points="141,-162 141,-196 275.25,-196 275.25,-162 141,-162"/>
</g>
<!-- n_0_1_3_4_5_6&#45;&gt;n_0_1_6 -->
<g id="edge2" class="edge">
<title>n_0_1_3_4_5_6&#45;&gt;n_0_1_6</title>
<path fill="none" stroke="black" d="M270.89,-243.13C259.97,-232.14 247.01,-219.11 235.72,-207.75"/>
<polygon fill="black" stroke="black" points="238.44,-205.52 228.9,-200.9 233.47,-210.46 238.44,-205.52"/>
</g>
<!-- n_3_4_5 -->
<g id="node8" class="node">
<title>n_3_4_5</title>
<polygon fill="none" stroke="black" points="321.62,-163 321.62,-195 374.62,-195 374.62,-163 321.62,-163"/>
<text text-anchor="start" x="330.12" y="-180.45" font-family="Times New Roman,serif" font-weight="bold" font-size="9.00">Obesity I</text>
<text text-anchor="start" x="328.62" y="-171.45" font-family="Times New Roman,serif" font-weight="bold" font-size="9.00">Obesity II</text>
<polygon fill="none" stroke="black" points="374.62,-163 374.62,-195 442.62,-195 442.62,-163 374.62,-163"/>
<text text-anchor="start" x="381.62" y="-177.07" font-family="Times New Roman,serif" font-weight="bold" font-size="9.00">Overweight II</text>
<polygon fill="none" stroke="black" points="320.62,-162 320.62,-196 443.62,-196 443.62,-162 320.62,-162"/>
</g>
<!-- n_0_1_3_4_5_6&#45;&gt;n_3_4_5 -->
<g id="edge7" class="edge">
<title>n_0_1_3_4_5_6&#45;&gt;n_3_4_5</title>
<path fill="none" stroke="black" d="M319.36,-243.13C330.28,-232.14 343.24,-219.11 354.53,-207.75"/>
<polygon fill="black" stroke="black" points="356.78,-210.46 361.35,-200.9 351.81,-205.52 356.78,-210.46"/>
</g>
<!-- n_0_6 -->
<g id="node4" class="node">
<title>n_0_6</title>
<polygon fill="none" stroke="black" points="9,-84.38 9,-109.62 97.25,-109.62 97.25,-84.38 9,-84.38"/>
<text text-anchor="start" x="16" y="-95.08" font-family="Times New Roman,serif" font-weight="bold" font-size="9.00">Insufficient weight</text>
<polygon fill="none" stroke="black" points="97.25,-84.38 97.25,-109.62 153.25,-109.62 153.25,-84.38 97.25,-84.38"/>
<text text-anchor="start" x="104.25" y="-95.08" font-family="Times New Roman,serif" font-weight="bold" font-size="9.00">Obesity III</text>
<polygon fill="none" stroke="black" points="8,-83.38 8,-110.62 154.25,-110.62 154.25,-83.38 8,-83.38"/>
</g>
<!-- n_0_1_6&#45;&gt;n_0_6 -->
<g id="edge3" class="edge">
<title>n_0_1_6&#45;&gt;n_0_6</title>
<path fill="none" stroke="black" d="M176.41,-158.02C158.47,-146.72 135.98,-132.55 117.35,-120.82"/>
<polygon fill="black" stroke="black" points="119.34,-117.93 109.01,-115.57 115.61,-123.86 119.34,-117.93"/>
</g>
<!-- n_1 -->
<g id="node7" class="node">
<title>n_1</title>
<polygon fill="none" stroke="black" points="200.12,-84.38 200.12,-109.62 244.12,-109.62 244.12,-84.38 200.12,-84.38"/>
<text text-anchor="start" x="207.12" y="-95.08" font-family="Times New Roman,serif" font-weight="bold" font-size="9.00">Normal</text>
<polygon fill="none" stroke="black" points="199.12,-83.38 199.12,-110.62 245.12,-110.62 245.12,-83.38 199.12,-83.38"/>
</g>
<!-- n_0_1_6&#45;&gt;n_1 -->
<g id="edge6" class="edge">
<title>n_0_1_6&#45;&gt;n_1</title>
<path fill="none" stroke="black" d="M211.59,-158.22C213.28,-148.54 215.35,-136.72 217.21,-126.11"/>
<polygon fill="black" stroke="black" points="220.64,-126.79 218.92,-116.33 213.74,-125.58 220.64,-126.79"/>
</g>
<!-- n_0 -->
<g id="node5" class="node">
<title>n_0</title>
<polygon fill="none" stroke="black" points="9,-5.38 9,-30.62 97.25,-30.62 97.25,-5.38 9,-5.38"/>
<text text-anchor="start" x="16" y="-16.07" font-family="Times New Roman,serif" font-weight="bold" font-size="9.00">Insufficient weight</text>
<polygon fill="none" stroke="black" points="8,-4.38 8,-31.62 98.25,-31.62 98.25,-4.38 8,-4.38"/>
</g>
<!-- n_0_6&#45;&gt;n_0 -->
<g id="edge4" class="edge">
<title>n_0_6&#45;&gt;n_0</title>
<path fill="none" stroke="black" d="M75.05,-79.29C71.59,-69.77 67.16,-57.6 63.19,-46.69"/>
<polygon fill="black" stroke="black" points="66.51,-45.57 59.8,-37.36 59.93,-47.96 66.51,-45.57"/>
</g>
<!-- n_6 -->
<g id="node6" class="node">
<title>n_6</title>
<polygon fill="none" stroke="black" points="144.12,-5.38 144.12,-30.62 200.12,-30.62 200.12,-5.38 144.12,-5.38"/>
<text text-anchor="start" x="151.12" y="-16.07" font-family="Times New Roman,serif" font-weight="bold" font-size="9.00">Obesity III</text>
<polygon fill="none" stroke="black" points="143.12,-4.38 143.12,-31.62 201.12,-31.62 201.12,-4.38 143.12,-4.38"/>
</g>
<!-- n_0_6&#45;&gt;n_6 -->
<g id="edge5" class="edge">
<title>n_0_6&#45;&gt;n_6</title>
<path fill="none" stroke="black" d="M100.87,-79.29C113.31,-68.77 129.57,-55.01 143.42,-43.29"/>
<polygon fill="black" stroke="black" points="145.58,-46.05 150.95,-36.92 141.05,-40.71 145.58,-46.05"/>
</g>
<!-- n_4_5 -->
<g id="node9" class="node">
<title>n_4_5</title>
<polygon fill="none" stroke="black" points="317.62,-84.38 317.62,-109.62 367.62,-109.62 367.62,-84.38 317.62,-84.38"/>
<text text-anchor="start" x="324.62" y="-95.08" font-family="Times New Roman,serif" font-weight="bold" font-size="9.00">Obesity I</text>
<polygon fill="none" stroke="black" points="367.62,-84.38 367.62,-109.62 420.62,-109.62 420.62,-84.38 367.62,-84.38"/>
<text text-anchor="start" x="374.62" y="-95.08" font-family="Times New Roman,serif" font-weight="bold" font-size="9.00">Obesity II</text>
<polygon fill="none" stroke="black" points="316.62,-83.38 316.62,-110.62 421.62,-110.62 421.62,-83.38 316.62,-83.38"/>
</g>
<!-- n_3_4_5&#45;&gt;n_4_5 -->
<g id="edge8" class="edge">
<title>n_3_4_5&#45;&gt;n_4_5</title>
<path fill="none" stroke="black" d="M378.91,-158.22C377.34,-148.54 375.42,-136.72 373.69,-126.11"/>
<polygon fill="black" stroke="black" points="377.16,-125.65 372.1,-116.34 370.25,-126.77 377.16,-125.65"/>
</g>
<!-- n_3 -->
<g id="node12" class="node">
<title>n_3</title>
<polygon fill="none" stroke="black" points="468.12,-84.38 468.12,-109.62 536.12,-109.62 536.12,-84.38 468.12,-84.38"/>
<text text-anchor="start" x="475.12" y="-95.08" font-family="Times New Roman,serif" font-weight="bold" font-size="9.00">Overweight II</text>
<polygon fill="none" stroke="black" points="467.12,-83.38 467.12,-110.62 537.12,-110.62 537.12,-83.38 467.12,-83.38"/>
</g>
<!-- n_3_4_5&#45;&gt;n_3 -->
<g id="edge11" class="edge">
<title>n_3_4_5&#45;&gt;n_3</title>
<path fill="none" stroke="black" d="M412.1,-158.02C428.97,-146.77 450.1,-132.68 467.65,-120.98"/>
<polygon fill="black" stroke="black" points="469.35,-124.06 475.73,-115.6 465.47,-118.23 469.35,-124.06"/>
</g>
<!-- n_4 -->
<g id="node10" class="node">
<title>n_4</title>
<polygon fill="none" stroke="black" points="282.12,-5.38 282.12,-30.62 332.12,-30.62 332.12,-5.38 282.12,-5.38"/>
<text text-anchor="start" x="289.12" y="-16.07" font-family="Times New Roman,serif" font-weight="bold" font-size="9.00">Obesity I</text>
<polygon fill="none" stroke="black" points="281.12,-4.38 281.12,-31.62 333.12,-31.62 333.12,-4.38 281.12,-4.38"/>
</g>
<!-- n_4_5&#45;&gt;n_4 -->
<g id="edge9" class="edge">
<title>n_4_5&#45;&gt;n_4</title>
<path fill="none" stroke="black" d="M355.67,-79.29C347.52,-69.17 336.96,-56.05 327.77,-44.64"/>
<polygon fill="black" stroke="black" points="330.71,-42.71 321.72,-37.12 325.26,-47.1 330.71,-42.71"/>
</g>
<!-- n_5 -->
<g id="node11" class="node">
<title>n_5</title>
<polygon fill="none" stroke="black" points="379.62,-5.38 379.62,-30.62 432.62,-30.62 432.62,-5.38 379.62,-5.38"/>
<text text-anchor="start" x="386.62" y="-16.07" font-family="Times New Roman,serif" font-weight="bold" font-size="9.00">Obesity II</text>
<polygon fill="none" stroke="black" points="378.62,-4.38 378.62,-31.62 433.62,-31.62 433.62,-4.38 378.62,-4.38"/>
</g>
<!-- n_4_5&#45;&gt;n_5 -->
<g id="edge10" class="edge">
<title>n_4_5&#45;&gt;n_5</title>
<path fill="none" stroke="black" d="M377.15,-79.29C381.82,-69.57 387.82,-57.09 393.15,-46"/>
<polygon fill="black" stroke="black" points="396.15,-47.83 397.33,-37.31 389.84,-44.8 396.15,-47.83"/>
</g>
</g>
</svg>
