<?xml version="1.0" encoding="UTF-8" standalone="no"?>
<!DOCTYPE svg PUBLIC "-//W3C//DTD SVG 1.1//EN"
 "http://www.w3.org/Graphics/SVG/1.1/DTD/svg11.dtd">
<!-- Generated by graphviz version 10.0.1 (20240210.2158)
 -->
<!-- Title: ND Pages: 1 -->
<svg width="557pt" height="535pt"
 viewBox="0.00 0.00 557.12 535.00" xmlns="http://www.w3.org/2000/svg" xmlns:xlink="http://www.w3.org/1999/xlink">
<g id="graph0" class="graph" transform="scale(1 1) rotate(0) translate(4 531)">
<title>ND</title>
<polygon fill="white" stroke="none" points="-4,4 -4,-531 553.12,-531 553.12,4 -4,4"/>
<!-- n_0_1_2_3_4_5_6 -->
<g id="node1" class="node">
<title>n_0_1_2_3_4_5_6</title>
<polygon fill="none" stroke="black" points="338.88,-454 338.88,-522 406.88,-522 406.88,-454 338.88,-454"/>
<text text-anchor="start" x="357.88" y="-507.45" font-family="Times New Roman,serif" font-weight="bold" font-size="9.00">Normal</text>
<text text-anchor="start" x="347.38" y="-498.45" font-family="Times New Roman,serif" font-weight="bold" font-size="9.00">Overweight I</text>
<text text-anchor="start" x="345.88" y="-489.45" font-family="Times New Roman,serif" font-weight="bold" font-size="9.00">Overweight II</text>
<text text-anchor="start" x="354.88" y="-480.45" font-family="Times New Roman,serif" font-weight="bold" font-size="9.00">Obesity I</text>
<text text-anchor="start" x="353.38" y="-471.45" font-family="Times New Roman,serif" font-weight="bold" font-size="9.00">Obesity II</text>
<text text-anchor="start" x="351.88" y="-462.45" font-family="Times New Roman,serif" font-weight="bold" font-size="9.00">Obesity III</text>
<polygon fill="none" stroke="black" points="406.88,-454 406.88,-522 495.12,-522 495.12,-454 406.88,-454"/>
<text text-anchor="start" x="413.88" y="-486.07" font-family="Times New Roman,serif" font-weight="bold" font-size="9.00">Insufficient weight</text>
<polygon fill="none" stroke="black" points="337.88,-453 337.88,-523 496.12,-523 496.12,-453 337.88,-453"/>
</g>
<!-- n_1_2_3_4_5_6 -->
<g id="node2" class="node">
<title>n_1_2_3_4_5_6</title>
<polygon fill="none" stroke="black" points="271.5,-342 271.5,-401 336.5,-401 336.5,-342 271.5,-342"/>
<text text-anchor="start" x="289" y="-386.45" font-family="Times New Roman,serif" font-weight="bold" font-size="9.00">Normal</text>
<text text-anchor="start" x="278.5" y="-377.45" font-family="Times New Roman,serif" font-weight="bold" font-size="9.00">Overweight I</text>
<text text-anchor="start" x="286" y="-368.45" font-family="Times New Roman,serif" font-weight="bold" font-size="9.00">Obesity I</text>
<text text-anchor="start" x="284.5" y="-359.45" font-family="Times New Roman,serif" font-weight="bold" font-size="9.00">Obesity II</text>
<text text-anchor="start" x="283" y="-350.45" font-family="Times New Roman,serif" font-weight="bold" font-size="9.00">Obesity III</text>
<polygon fill="none" stroke="black" points="336.5,-342 336.5,-401 404.5,-401 404.5,-342 336.5,-342"/>
<text text-anchor="start" x="343.5" y="-369.57" font-family="Times New Roman,serif" font-weight="bold" font-size="9.00">Overweight II</text>
<polygon fill="none" stroke="black" points="270.5,-341 270.5,-402 405.5,-402 405.5,-341 270.5,-341"/>
</g>
<!-- n_0_1_2_3_4_5_6&#45;&gt;n_1_2_3_4_5_6 -->
<g id="edge1" class="edge">
<title>n_0_1_2_3_4_5_6&#45;&gt;n_1_2_3_4_5_6</title>
<path fill="none" stroke="black" d="M390.91,-449.19C383.33,-438.2 375,-426.12 367.23,-414.87"/>
<polygon fill="black" stroke="black" points="370.29,-413.14 361.73,-406.9 364.53,-417.12 370.29,-413.14"/>
</g>
<!-- n_0 -->
<g id="node13" class="node">
<title>n_0</title>
<polygon fill="none" stroke="black" points="451.88,-358.88 451.88,-384.12 540.12,-384.12 540.12,-358.88 451.88,-358.88"/>
<text text-anchor="start" x="458.88" y="-369.57" font-family="Times New Roman,serif" font-weight="bold" font-size="9.00">Insufficient weight</text>
<polygon fill="none" stroke="black" points="450.88,-357.88 450.88,-385.12 541.12,-385.12 541.12,-357.88 450.88,-357.88"/>
</g>
<!-- n_0_1_2_3_4_5_6&#45;&gt;n_0 -->
<g id="edge12" class="edge">
<title>n_0_1_2_3_4_5_6&#45;&gt;n_0</title>
<path fill="none" stroke="black" d="M443.09,-449.19C454.52,-432.63 467.64,-413.6 477.97,-398.64"/>
<polygon fill="black" stroke="black" points="480.64,-400.93 483.44,-390.71 474.88,-396.95 480.64,-400.93"/>
</g>
<!-- n_1_2_4_5_6 -->
<g id="node3" class="node">
<title>n_1_2_4_5_6</title>
<polygon fill="none" stroke="black" points="209,-248 209,-289 262,-289 262,-248 209,-248"/>
<text text-anchor="start" x="220.5" y="-274.45" font-family="Times New Roman,serif" font-weight="bold" font-size="9.00">Normal</text>
<text text-anchor="start" x="217.5" y="-265.45" font-family="Times New Roman,serif" font-weight="bold" font-size="9.00">Obesity I</text>
<text text-anchor="start" x="216" y="-256.45" font-family="Times New Roman,serif" font-weight="bold" font-size="9.00">Obesity II</text>
<polygon fill="none" stroke="black" points="262,-248 262,-289 327,-289 327,-248 262,-248"/>
<text text-anchor="start" x="269" y="-269.95" font-family="Times New Roman,serif" font-weight="bold" font-size="9.00">Overweight I</text>
<text text-anchor="start" x="273.5" y="-260.95" font-family="Times New Roman,serif" font-weight="bold" font-size="9.00">Obesity III</text>
<polygon fill="none" stroke="black" points="208,-247 208,-290 328,-290 328,-247 208,-247"/>
</g>
<!-- n_1_2_3_4_5_6&#45;&gt;n_1_2_4_5_6 -->
<g id="edge2" class="edge">
<title>n_1_2_3_4_5_6&#45;&gt;n_1_2_4_5_6</title>
<path fill="none" stroke="black" d="M314.89,-337.15C307.31,-326.22 298.89,-314.07 291.3,-303.12"/>
<polygon fill="black" stroke="black" points="294.32,-301.33 285.75,-295.1 288.56,-305.32 294.32,-301.33"/>
</g>
<!-- n_3 -->
<g id="node12" class="node">
<title>n_3</title>
<polygon fill="none" stroke="black" points="374,-255.88 374,-281.12 442,-281.12 442,-255.88 374,-255.88"/>
<text text-anchor="start" x="381" y="-266.57" font-family="Times New Roman,serif" font-weight="bold" font-size="9.00">Overweight II</text>
<polygon fill="none" stroke="black" points="373,-254.88 373,-282.12 443,-282.12 443,-254.88 373,-254.88"/>
</g>
<!-- n_1_2_3_4_5_6&#45;&gt;n_3 -->
<g id="edge11" class="edge">
<title>n_1_2_3_4_5_6&#45;&gt;n_3</title>
<path fill="none" stroke="black" d="M361.11,-337.15C370.51,-323.6 381.2,-308.17 389.99,-295.48"/>
<polygon fill="black" stroke="black" points="392.62,-297.84 395.44,-287.62 386.87,-293.85 392.62,-297.84"/>
</g>
<!-- n_1_4_5 -->
<g id="node4" class="node">
<title>n_1_4_5</title>
<polygon fill="none" stroke="black" points="141.5,-163 141.5,-195 194.5,-195 194.5,-163 141.5,-163"/>
<text text-anchor="start" x="150" y="-180.45" font-family="Times New Roman,serif" font-weight="bold" font-size="9.00">Obesity I</text>
<text text-anchor="start" x="148.5" y="-171.45" font-family="Times New Roman,serif" font-weight="bold" font-size="9.00">Obesity II</text>
<polygon fill="none" stroke="black" points="194.5,-163 194.5,-195 238.5,-195 238.5,-163 194.5,-163"/>
<text text-anchor="start" x="201.5" y="-177.07" font-family="Times New Roman,serif" font-weight="bold" font-size="9.00">Normal</text>
<polygon fill="none" stroke="black" points="140.5,-162 140.5,-196 239.5,-196 239.5,-162 140.5,-162"/>
</g>
<!-- n_1_2_4_5_6&#45;&gt;n_1_4_5 -->
<g id="edge3" class="edge">
<title>n_1_2_4_5_6&#45;&gt;n_1_4_5</title>
<path fill="none" stroke="black" d="M246.27,-243.13C236.67,-232.35 225.31,-219.62 215.33,-208.41"/>
<polygon fill="black" stroke="black" points="217.95,-206.09 208.68,-200.96 212.72,-210.75 217.95,-206.09"/>
</g>
<!-- n_2_6 -->
<g id="node9" class="node">
<title>n_2_6</title>
<polygon fill="none" stroke="black" points="285.5,-166.38 285.5,-191.62 350.5,-191.62 350.5,-166.38 285.5,-166.38"/>
<text text-anchor="start" x="292.5" y="-177.07" font-family="Times New Roman,serif" font-weight="bold" font-size="9.00">Overweight I</text>
<polygon fill="none" stroke="black" points="350.5,-166.38 350.5,-191.62 406.5,-191.62 406.5,-166.38 350.5,-166.38"/>
<text text-anchor="start" x="357.5" y="-177.07" font-family="Times New Roman,serif" font-weight="bold" font-size="9.00">Obesity III</text>
<polygon fill="none" stroke="black" points="284.5,-165.38 284.5,-192.62 407.5,-192.62 407.5,-165.38 284.5,-165.38"/>
</g>
<!-- n_1_2_4_5_6&#45;&gt;n_2_6 -->
<g id="edge8" class="edge">
<title>n_1_2_4_5_6&#45;&gt;n_2_6</title>
<path fill="none" stroke="black" d="M289.73,-243.13C300.22,-231.36 312.79,-217.25 323.4,-205.36"/>
<polygon fill="black" stroke="black" points="326,-207.69 330.04,-197.9 320.78,-203.04 326,-207.69"/>
</g>
<!-- n_4_5 -->
<g id="node5" class="node">
<title>n_4_5</title>
<polygon fill="none" stroke="black" points="31.5,-84.38 31.5,-109.62 81.5,-109.62 81.5,-84.38 31.5,-84.38"/>
<text text-anchor="start" x="38.5" y="-95.08" font-family="Times New Roman,serif" font-weight="bold" font-size="9.00">Obesity I</text>
<polygon fill="none" stroke="black" points="81.5,-84.38 81.5,-109.62 134.5,-109.62 134.5,-84.38 81.5,-84.38"/>
<text text-anchor="start" x="88.5" y="-95.08" font-family="Times New Roman,serif" font-weight="bold" font-size="9.00">Obesity II</text>
<polygon fill="none" stroke="black" points="30.5,-83.38 30.5,-110.62 135.5,-110.62 135.5,-83.38 30.5,-83.38"/>
</g>
<!-- n_1_4_5&#45;&gt;n_4_5 -->
<g id="edge4" class="edge">
<title>n_1_4_5&#45;&gt;n_4_5</title>
<path fill="none" stroke="black" d="M163.28,-158.02C148.51,-146.98 130.08,-133.2 114.61,-121.63"/>
<polygon fill="black" stroke="black" points="116.73,-118.85 106.63,-115.66 112.54,-124.46 116.73,-118.85"/>
</g>
<!-- n_1 -->
<g id="node8" class="node">
<title>n_1</title>
<polygon fill="none" stroke="black" points="182,-84.38 182,-109.62 226,-109.62 226,-84.38 182,-84.38"/>
<text text-anchor="start" x="189" y="-95.08" font-family="Times New Roman,serif" font-weight="bold" font-size="9.00">Normal</text>
<polygon fill="none" stroke="black" points="181,-83.38 181,-110.62 227,-110.62 227,-83.38 181,-83.38"/>
</g>
<!-- n_1_4_5&#45;&gt;n_1 -->
<g id="edge7" class="edge">
<title>n_1_4_5&#45;&gt;n_1</title>
<path fill="none" stroke="black" d="M193.46,-158.22C195.16,-148.54 197.22,-136.72 199.08,-126.11"/>
<polygon fill="black" stroke="black" points="202.52,-126.79 200.79,-116.33 195.62,-125.58 202.52,-126.79"/>
</g>
<!-- n_4 -->
<g id="node6" class="node">
<title>n_4</title>
<polygon fill="none" stroke="black" points="9,-5.38 9,-30.62 59,-30.62 59,-5.38 9,-5.38"/>
<text text-anchor="start" x="16" y="-16.07" font-family="Times New Roman,serif" font-weight="bold" font-size="9.00">Obesity I</text>
<polygon fill="none" stroke="black" points="8,-4.38 8,-31.62 60,-31.62 60,-4.38 8,-4.38"/>
</g>
<!-- n_4_5&#45;&gt;n_4 -->
<g id="edge5" class="edge">
<title>n_4_5&#45;&gt;n_4</title>
<path fill="none" stroke="black" d="M72.37,-79.29C66.05,-69.37 57.91,-56.57 50.75,-45.32"/>
<polygon fill="black" stroke="black" points="53.91,-43.78 45.59,-37.22 48.01,-47.53 53.91,-43.78"/>
</g>
<!-- n_5 -->
<g id="node7" class="node">
<title>n_5</title>
<polygon fill="none" stroke="black" points="106.5,-5.38 106.5,-30.62 159.5,-30.62 159.5,-5.38 106.5,-5.38"/>
<text text-anchor="start" x="113.5" y="-16.07" font-family="Times New Roman,serif" font-weight="bold" font-size="9.00">Obesity II</text>
<polygon fill="none" stroke="black" points="105.5,-4.38 105.5,-31.62 160.5,-31.62 160.5,-4.38 105.5,-4.38"/>
</g>
<!-- n_4_5&#45;&gt;n_5 -->
<g id="edge6" class="edge">
<title>n_4_5&#45;&gt;n_5</title>
<path fill="none" stroke="black" d="M93.85,-79.29C100.29,-69.37 108.6,-56.57 115.91,-45.32"/>
<polygon fill="black" stroke="black" points="118.66,-47.5 121.17,-37.21 112.79,-43.69 118.66,-47.5"/>
</g>
<!-- n_2 -->
<g id="node10" class="node">
<title>n_2</title>
<polygon fill="none" stroke="black" points="300.5,-84.38 300.5,-109.62 365.5,-109.62 365.5,-84.38 300.5,-84.38"/>
<text text-anchor="start" x="307.5" y="-95.08" font-family="Times New Roman,serif" font-weight="bold" font-size="9.00">Overweight I</text>
<polygon fill="none" stroke="black" points="299.5,-83.38 299.5,-110.62 366.5,-110.62 366.5,-83.38 299.5,-83.38"/>
</g>
<!-- n_2_6&#45;&gt;n_2 -->
<g id="edge9" class="edge">
<title>n_2_6&#45;&gt;n_2</title>
<path fill="none" stroke="black" d="M343.24,-161.03C341.59,-150.85 339.44,-137.65 337.54,-125.96"/>
<polygon fill="black" stroke="black" points="341.05,-125.74 336,-116.44 334.15,-126.87 341.05,-125.74"/>
</g>
<!-- n_6 -->
<g id="node11" class="node">
<title>n_6</title>
<polygon fill="none" stroke="black" points="413,-84.38 413,-109.62 469,-109.62 469,-84.38 413,-84.38"/>
<text text-anchor="start" x="420" y="-95.08" font-family="Times New Roman,serif" font-weight="bold" font-size="9.00">Obesity III</text>
<polygon fill="none" stroke="black" points="412,-83.38 412,-110.62 470,-110.62 470,-83.38 412,-83.38"/>
</g>
<!-- n_2_6&#45;&gt;n_6 -->
<g id="edge10" class="edge">
<title>n_2_6&#45;&gt;n_6</title>
<path fill="none" stroke="black" d="M366.15,-161.03C379.62,-149.69 397.56,-134.58 412.49,-122.01"/>
<polygon fill="black" stroke="black" points="414.33,-125.04 419.72,-115.92 409.82,-119.68 414.33,-125.04"/>
</g>
</g>
</svg>
