<?xml version="1.0" encoding="UTF-8" standalone="no"?>
<!DOCTYPE svg PUBLIC "-//W3C//DTD SVG 1.1//EN"
 "http://www.w3.org/Graphics/SVG/1.1/DTD/svg11.dtd">
<!-- Generated by graphviz version 10.0.1 (20240210.2158)
 -->
<!-- Title: ND Pages: 1 -->
<svg width="573pt" height="432pt"
 viewBox="0.00 0.00 573.00 432.00" xmlns="http://www.w3.org/2000/svg" xmlns:xlink="http://www.w3.org/1999/xlink">
<g id="graph0" class="graph" transform="scale(1 1) rotate(0) translate(4 428)">
<title>ND</title>
<polygon fill="white" stroke="none" points="-4,4 -4,-428 569,-428 569,4 -4,4"/>
<!-- n_0_1_2_3_4_5_6 -->
<g id="node1" class="node">
<title>n_0_1_2_3_4_5_6</title>
<polygon fill="none" stroke="black" points="349.88,-351 349.88,-419 417.88,-419 417.88,-351 349.88,-351"/>
<text text-anchor="start" x="368.88" y="-404.45" font-family="Times New Roman,serif" font-weight="bold" font-size="9.00">Normal</text>
<text text-anchor="start" x="358.38" y="-395.45" font-family="Times New Roman,serif" font-weight="bold" font-size="9.00">Overweight I</text>
<text text-anchor="start" x="356.88" y="-386.45" font-family="Times New Roman,serif" font-weight="bold" font-size="9.00">Overweight II</text>
<text text-anchor="start" x="365.88" y="-377.45" font-family="Times New Roman,serif" font-weight="bold" font-size="9.00">Obesity I</text>
<text text-anchor="start" x="364.38" y="-368.45" font-family="Times New Roman,serif" font-weight="bold" font-size="9.00">Obesity II</text>
<text text-anchor="start" x="362.88" y="-359.45" font-family="Times New Roman,serif" font-weight="bold" font-size="9.00">Obesity III</text>
<polygon fill="none" stroke="black" points="417.88,-351 417.88,-419 506.12,-419 506.12,-351 417.88,-351"/>
<text text-anchor="start" x="424.88" y="-383.07" font-family="Times New Roman,serif" font-weight="bold" font-size="9.00">Insufficient weight</text>
<polygon fill="none" stroke="black" points="348.88,-350 348.88,-420 507.12,-420 507.12,-350 348.88,-350"/>
</g>
<!-- n_1_2_3_4_5_6 -->
<g id="node2" class="node">
<title>n_1_2_3_4_5_6</title>
<polygon fill="none" stroke="black" points="282.5,-248 282.5,-298 350.5,-298 350.5,-248 282.5,-248"/>
<text text-anchor="start" x="301.5" y="-283.45" font-family="Times New Roman,serif" font-weight="bold" font-size="9.00">Normal</text>
<text text-anchor="start" x="289.5" y="-274.45" font-family="Times New Roman,serif" font-weight="bold" font-size="9.00">Overweight II</text>
<text text-anchor="start" x="297" y="-265.45" font-family="Times New Roman,serif" font-weight="bold" font-size="9.00">Obesity II</text>
<text text-anchor="start" x="295.5" y="-256.45" font-family="Times New Roman,serif" font-weight="bold" font-size="9.00">Obesity III</text>
<polygon fill="none" stroke="black" points="350.5,-248 350.5,-298 415.5,-298 415.5,-248 350.5,-248"/>
<text text-anchor="start" x="357.5" y="-274.45" font-family="Times New Roman,serif" font-weight="bold" font-size="9.00">Overweight I</text>
<text text-anchor="start" x="365" y="-265.45" font-family="Times New Roman,serif" font-weight="bold" font-size="9.00">Obesity I</text>
<polygon fill="none" stroke="black" points="281.5,-247 281.5,-299 416.5,-299 416.5,-247 281.5,-247"/>
</g>
<!-- n_0_1_2_3_4_5_6&#45;&gt;n_1_2_3_4_5_6 -->
<g id="edge1" class="edge">
<title>n_0_1_2_3_4_5_6&#45;&gt;n_1_2_3_4_5_6</title>
<path fill="none" stroke="black" d="M400.81,-346.14C392.94,-335.19 384.35,-323.22 376.46,-312.23"/>
<polygon fill="black" stroke="black" points="379.31,-310.2 370.63,-304.12 373.62,-314.28 379.31,-310.2"/>
</g>
<!-- n_0 -->
<g id="node13" class="node">
<title>n_0</title>
<polygon fill="none" stroke="black" points="462.88,-260.38 462.88,-285.62 551.12,-285.62 551.12,-260.38 462.88,-260.38"/>
<text text-anchor="start" x="469.88" y="-271.07" font-family="Times New Roman,serif" font-weight="bold" font-size="9.00">Insufficient weight</text>
<polygon fill="none" stroke="black" points="461.88,-259.38 461.88,-286.62 552.12,-286.62 552.12,-259.38 461.88,-259.38"/>
</g>
<!-- n_0_1_2_3_4_5_6&#45;&gt;n_0 -->
<g id="edge12" class="edge">
<title>n_0_1_2_3_4_5_6&#45;&gt;n_0</title>
<path fill="none" stroke="black" d="M455.19,-346.14C466.03,-331.04 478.26,-314.02 488.11,-300.31"/>
<polygon fill="black" stroke="black" points="490.93,-302.38 493.92,-292.21 485.24,-298.29 490.93,-302.38"/>
</g>
<!-- n_1_3_5_6 -->
<g id="node3" class="node">
<title>n_1_3_5_6</title>
<polygon fill="none" stroke="black" points="204,-163 204,-195 260,-195 260,-163 204,-163"/>
<text text-anchor="start" x="217" y="-180.45" font-family="Times New Roman,serif" font-weight="bold" font-size="9.00">Normal</text>
<text text-anchor="start" x="211" y="-171.45" font-family="Times New Roman,serif" font-weight="bold" font-size="9.00">Obesity III</text>
<polygon fill="none" stroke="black" points="260,-163 260,-195 328,-195 328,-163 260,-163"/>
<text text-anchor="start" x="267" y="-180.45" font-family="Times New Roman,serif" font-weight="bold" font-size="9.00">Overweight II</text>
<text text-anchor="start" x="274.5" y="-171.45" font-family="Times New Roman,serif" font-weight="bold" font-size="9.00">Obesity II</text>
<polygon fill="none" stroke="black" points="203,-162 203,-196 329,-196 329,-162 203,-162"/>
</g>
<!-- n_1_2_3_4_5_6&#45;&gt;n_1_3_5_6 -->
<g id="edge2" class="edge">
<title>n_1_2_3_4_5_6&#45;&gt;n_1_3_5_6</title>
<path fill="none" stroke="black" d="M322.97,-243.14C312.91,-232 301.45,-219.29 291.45,-208.21"/>
<polygon fill="black" stroke="black" points="294.11,-205.94 284.81,-200.85 288.91,-210.62 294.11,-205.94"/>
</g>
<!-- n_2_4 -->
<g id="node10" class="node">
<title>n_2_4</title>
<polygon fill="none" stroke="black" points="375.5,-166.38 375.5,-191.62 440.5,-191.62 440.5,-166.38 375.5,-166.38"/>
<text text-anchor="start" x="382.5" y="-177.07" font-family="Times New Roman,serif" font-weight="bold" font-size="9.00">Overweight I</text>
<polygon fill="none" stroke="black" points="440.5,-166.38 440.5,-191.62 490.5,-191.62 490.5,-166.38 440.5,-166.38"/>
<text text-anchor="start" x="447.5" y="-177.07" font-family="Times New Roman,serif" font-weight="bold" font-size="9.00">Obesity I</text>
<polygon fill="none" stroke="black" points="374.5,-165.38 374.5,-192.62 491.5,-192.62 491.5,-165.38 374.5,-165.38"/>
</g>
<!-- n_1_2_3_4_5_6&#45;&gt;n_2_4 -->
<g id="edge9" class="edge">
<title>n_1_2_3_4_5_6&#45;&gt;n_2_4</title>
<path fill="none" stroke="black" d="M375.35,-243.14C386.39,-231.05 399.12,-217.11 409.8,-205.41"/>
<polygon fill="black" stroke="black" points="412.33,-207.83 416.49,-198.09 407.16,-203.11 412.33,-207.83"/>
</g>
<!-- n_1_6 -->
<g id="node4" class="node">
<title>n_1_6</title>
<polygon fill="none" stroke="black" points="65,-84.38 65,-109.62 109,-109.62 109,-84.38 65,-84.38"/>
<text text-anchor="start" x="72" y="-95.08" font-family="Times New Roman,serif" font-weight="bold" font-size="9.00">Normal</text>
<polygon fill="none" stroke="black" points="109,-84.38 109,-109.62 165,-109.62 165,-84.38 109,-84.38"/>
<text text-anchor="start" x="116" y="-95.08" font-family="Times New Roman,serif" font-weight="bold" font-size="9.00">Obesity III</text>
<polygon fill="none" stroke="black" points="64,-83.38 64,-110.62 166,-110.62 166,-83.38 64,-83.38"/>
</g>
<!-- n_1_3_5_6&#45;&gt;n_1_6 -->
<g id="edge3" class="edge">
<title>n_1_3_5_6&#45;&gt;n_1_6</title>
<path fill="none" stroke="black" d="M228.29,-158.02C206.47,-146.46 178.98,-131.9 156.55,-120.01"/>
<polygon fill="black" stroke="black" points="158.44,-117.06 147.97,-115.47 155.17,-123.24 158.44,-117.06"/>
</g>
<!-- n_3_5 -->
<g id="node7" class="node">
<title>n_3_5</title>
<polygon fill="none" stroke="black" points="212.5,-84.38 212.5,-109.62 280.5,-109.62 280.5,-84.38 212.5,-84.38"/>
<text text-anchor="start" x="219.5" y="-95.08" font-family="Times New Roman,serif" font-weight="bold" font-size="9.00">Overweight II</text>
<polygon fill="none" stroke="black" points="280.5,-84.38 280.5,-109.62 333.5,-109.62 333.5,-84.38 280.5,-84.38"/>
<text text-anchor="start" x="287.5" y="-95.08" font-family="Times New Roman,serif" font-weight="bold" font-size="9.00">Obesity II</text>
<polygon fill="none" stroke="black" points="211.5,-83.38 211.5,-110.62 334.5,-110.62 334.5,-83.38 211.5,-83.38"/>
</g>
<!-- n_1_3_5_6&#45;&gt;n_3_5 -->
<g id="edge6" class="edge">
<title>n_1_3_5_6&#45;&gt;n_3_5</title>
<path fill="none" stroke="black" d="M267.73,-158.22C268.58,-148.54 269.61,-136.72 270.54,-126.11"/>
<polygon fill="black" stroke="black" points="274.01,-126.62 271.39,-116.35 267.04,-126.01 274.01,-126.62"/>
</g>
<!-- n_1 -->
<g id="node5" class="node">
<title>n_1</title>
<polygon fill="none" stroke="black" points="9,-5.38 9,-30.62 53,-30.62 53,-5.38 9,-5.38"/>
<text text-anchor="start" x="16" y="-16.07" font-family="Times New Roman,serif" font-weight="bold" font-size="9.00">Normal</text>
<polygon fill="none" stroke="black" points="8,-4.38 8,-31.62 54,-31.62 54,-4.38 8,-4.38"/>
</g>
<!-- n_1_6&#45;&gt;n_1 -->
<g id="edge4" class="edge">
<title>n_1_6&#45;&gt;n_1</title>
<path fill="none" stroke="black" d="M96.77,-79.29C85.4,-68.87 70.57,-55.27 57.87,-43.63"/>
<polygon fill="black" stroke="black" points="60.33,-41.14 50.6,-36.96 55.6,-46.3 60.33,-41.14"/>
</g>
<!-- n_6 -->
<g id="node6" class="node">
<title>n_6</title>
<polygon fill="none" stroke="black" points="100,-5.38 100,-30.62 156,-30.62 156,-5.38 100,-5.38"/>
<text text-anchor="start" x="107" y="-16.07" font-family="Times New Roman,serif" font-weight="bold" font-size="9.00">Obesity III</text>
<polygon fill="none" stroke="black" points="99,-4.38 99,-31.62 157,-31.62 157,-4.38 99,-4.38"/>
</g>
<!-- n_1_6&#45;&gt;n_6 -->
<g id="edge5" class="edge">
<title>n_1_6&#45;&gt;n_6</title>
<path fill="none" stroke="black" d="M117.82,-79.29C119.41,-69.87 121.44,-57.86 123.27,-47.04"/>
<polygon fill="black" stroke="black" points="126.67,-47.88 124.89,-37.43 119.77,-46.71 126.67,-47.88"/>
</g>
<!-- n_3 -->
<g id="node8" class="node">
<title>n_3</title>
<polygon fill="none" stroke="black" points="227,-5.38 227,-30.62 295,-30.62 295,-5.38 227,-5.38"/>
<text text-anchor="start" x="234" y="-16.07" font-family="Times New Roman,serif" font-weight="bold" font-size="9.00">Overweight II</text>
<polygon fill="none" stroke="black" points="226,-4.38 226,-31.62 296,-31.62 296,-4.38 226,-4.38"/>
</g>
<!-- n_3_5&#45;&gt;n_3 -->
<g id="edge7" class="edge">
<title>n_3_5&#45;&gt;n_3</title>
<path fill="none" stroke="black" d="M270.4,-79.29C268.93,-69.87 267.06,-57.86 265.37,-47.04"/>
<polygon fill="black" stroke="black" points="268.87,-46.78 263.87,-37.44 261.95,-47.86 268.87,-46.78"/>
</g>
<!-- n_5 -->
<g id="node9" class="node">
<title>n_5</title>
<polygon fill="none" stroke="black" points="342.5,-5.38 342.5,-30.62 395.5,-30.62 395.5,-5.38 342.5,-5.38"/>
<text text-anchor="start" x="349.5" y="-16.07" font-family="Times New Roman,serif" font-weight="bold" font-size="9.00">Obesity II</text>
<polygon fill="none" stroke="black" points="341.5,-4.38 341.5,-31.62 396.5,-31.62 396.5,-4.38 341.5,-4.38"/>
</g>
<!-- n_3_5&#45;&gt;n_5 -->
<g id="edge8" class="edge">
<title>n_3_5&#45;&gt;n_5</title>
<path fill="none" stroke="black" d="M293.83,-79.29C307.07,-68.67 324.43,-54.75 339.13,-42.96"/>
<polygon fill="black" stroke="black" points="341.09,-45.88 346.7,-36.89 336.71,-40.41 341.09,-45.88"/>
</g>
<!-- n_2 -->
<g id="node11" class="node">
<title>n_2</title>
<polygon fill="none" stroke="black" points="393.5,-84.38 393.5,-109.62 458.5,-109.62 458.5,-84.38 393.5,-84.38"/>
<text text-anchor="start" x="400.5" y="-95.08" font-family="Times New Roman,serif" font-weight="bold" font-size="9.00">Overweight I</text>
<polygon fill="none" stroke="black" points="392.5,-83.38 392.5,-110.62 459.5,-110.62 459.5,-83.38 392.5,-83.38"/>
</g>
<!-- n_2_4&#45;&gt;n_2 -->
<g id="edge10" class="edge">
<title>n_2_4&#45;&gt;n_2</title>
<path fill="none" stroke="black" d="M431.52,-161.03C430.63,-150.96 429.49,-137.92 428.48,-126.32"/>
<polygon fill="black" stroke="black" points="431.97,-126.11 427.61,-116.45 425,-126.72 431.97,-126.11"/>
</g>
<!-- n_4 -->
<g id="node12" class="node">
<title>n_4</title>
<polygon fill="none" stroke="black" points="506,-84.38 506,-109.62 556,-109.62 556,-84.38 506,-84.38"/>
<text text-anchor="start" x="513" y="-95.08" font-family="Times New Roman,serif" font-weight="bold" font-size="9.00">Obesity I</text>
<polygon fill="none" stroke="black" points="505,-83.38 505,-110.62 557,-110.62 557,-83.38 505,-83.38"/>
</g>
<!-- n_2_4&#45;&gt;n_4 -->
<g id="edge11" class="edge">
<title>n_2_4&#45;&gt;n_4</title>
<path fill="none" stroke="black" d="M453.78,-161.03C467.69,-149.69 486.19,-134.58 501.59,-122.01"/>
<polygon fill="black" stroke="black" points="503.54,-124.93 509.07,-115.9 499.11,-119.51 503.54,-124.93"/>
</g>
</g>
</svg>
