<?xml version="1.0" encoding="UTF-8" standalone="no"?>
<!DOCTYPE svg PUBLIC "-//W3C//DTD SVG 1.1//EN"
 "http://www.w3.org/Graphics/SVG/1.1/DTD/svg11.dtd">
<!-- Generated by graphviz version 10.0.1 (20240210.2158)
 -->
<!-- Title: ND Pages: 1 -->
<svg width="621pt" height="405pt"
 viewBox="0.00 0.00 621.12 405.00" xmlns="http://www.w3.org/2000/svg" xmlns:xlink="http://www.w3.org/1999/xlink">
<g id="graph0" class="graph" transform="scale(1 1) rotate(0) translate(4 401)">
<title>ND</title>
<polygon fill="white" stroke="none" points="-4,4 -4,-401 617.12,-401 617.12,4 -4,4"/>
<!-- n_0_1_2_3_4_5_6 -->
<g id="node1" class="node">
<title>n_0_1_2_3_4_5_6</title>
<polygon fill="none" stroke="black" points="293.5,-342 293.5,-392 381.75,-392 381.75,-342 293.5,-342"/>
<text text-anchor="start" x="300.5" y="-377.45" font-family="Times New Roman,serif" font-weight="bold" font-size="9.00">Insufficient weight</text>
<text text-anchor="start" x="322.62" y="-368.45" font-family="Times New Roman,serif" font-weight="bold" font-size="9.00">Normal</text>
<text text-anchor="start" x="310.62" y="-359.45" font-family="Times New Roman,serif" font-weight="bold" font-size="9.00">Overweight II</text>
<text text-anchor="start" x="316.62" y="-350.45" font-family="Times New Roman,serif" font-weight="bold" font-size="9.00">Obesity III</text>
<polygon fill="none" stroke="black" points="381.75,-342 381.75,-392 446.75,-392 446.75,-342 381.75,-342"/>
<text text-anchor="start" x="388.75" y="-372.95" font-family="Times New Roman,serif" font-weight="bold" font-size="9.00">Overweight I</text>
<text text-anchor="start" x="396.25" y="-363.95" font-family="Times New Roman,serif" font-weight="bold" font-size="9.00">Obesity I</text>
<text text-anchor="start" x="394.75" y="-354.95" font-family="Times New Roman,serif" font-weight="bold" font-size="9.00">Obesity II</text>
<polygon fill="none" stroke="black" points="292.5,-341 292.5,-393 447.75,-393 447.75,-341 292.5,-341"/>
</g>
<!-- n_0_1_3_6 -->
<g id="node2" class="node">
<title>n_0_1_3_6</title>
<polygon fill="none" stroke="black" points="201,-248 201,-289 289.25,-289 289.25,-248 201,-248"/>
<text text-anchor="start" x="208" y="-274.45" font-family="Times New Roman,serif" font-weight="bold" font-size="9.00">Insufficient weight</text>
<text text-anchor="start" x="230.12" y="-265.45" font-family="Times New Roman,serif" font-weight="bold" font-size="9.00">Normal</text>
<text text-anchor="start" x="224.12" y="-256.45" font-family="Times New Roman,serif" font-weight="bold" font-size="9.00">Obesity III</text>
<polygon fill="none" stroke="black" points="289.25,-248 289.25,-289 357.25,-289 357.25,-248 289.25,-248"/>
<text text-anchor="start" x="296.25" y="-266.57" font-family="Times New Roman,serif" font-weight="bold" font-size="9.00">Overweight II</text>
<polygon fill="none" stroke="black" points="200,-247 200,-290 358.25,-290 358.25,-247 200,-247"/>
</g>
<!-- n_0_1_2_3_4_5_6&#45;&gt;n_0_1_3_6 -->
<g id="edge1" class="edge">
<title>n_0_1_2_3_4_5_6&#45;&gt;n_0_1_3_6</title>
<path fill="none" stroke="black" d="M342.82,-337.05C332.48,-326.08 320.63,-313.51 309.98,-302.22"/>
<polygon fill="black" stroke="black" points="312.56,-299.85 303.15,-294.98 307.46,-304.65 312.56,-299.85"/>
</g>
<!-- n_2_4_5 -->
<g id="node9" class="node">
<title>n_2_4_5</title>
<polygon fill="none" stroke="black" points="404.62,-252.5 404.62,-284.5 469.62,-284.5 469.62,-252.5 404.62,-252.5"/>
<text text-anchor="start" x="411.62" y="-269.95" font-family="Times New Roman,serif" font-weight="bold" font-size="9.00">Overweight I</text>
<text text-anchor="start" x="417.62" y="-260.95" font-family="Times New Roman,serif" font-weight="bold" font-size="9.00">Obesity II</text>
<polygon fill="none" stroke="black" points="469.62,-252.5 469.62,-284.5 519.62,-284.5 519.62,-252.5 469.62,-252.5"/>
<text text-anchor="start" x="476.62" y="-266.57" font-family="Times New Roman,serif" font-weight="bold" font-size="9.00">Obesity I</text>
<polygon fill="none" stroke="black" points="403.62,-251.5 403.62,-285.5 520.62,-285.5 520.62,-251.5 403.62,-251.5"/>
</g>
<!-- n_0_1_2_3_4_5_6&#45;&gt;n_2_4_5 -->
<g id="edge8" class="edge">
<title>n_0_1_2_3_4_5_6&#45;&gt;n_2_4_5</title>
<path fill="none" stroke="black" d="M397.73,-337.05C409.68,-324.51 423.62,-309.89 435.47,-297.46"/>
<polygon fill="black" stroke="black" points="437.88,-300.01 442.24,-290.35 432.81,-295.18 437.88,-300.01"/>
</g>
<!-- n_0_1_6 -->
<g id="node3" class="node">
<title>n_0_1_6</title>
<polygon fill="none" stroke="black" points="68,-163 68,-195 156.25,-195 156.25,-163 68,-163"/>
<text text-anchor="start" x="75" y="-180.45" font-family="Times New Roman,serif" font-weight="bold" font-size="9.00">Insufficient weight</text>
<text text-anchor="start" x="97.12" y="-171.45" font-family="Times New Roman,serif" font-weight="bold" font-size="9.00">Normal</text>
<polygon fill="none" stroke="black" points="156.25,-163 156.25,-195 212.25,-195 212.25,-163 156.25,-163"/>
<text text-anchor="start" x="163.25" y="-177.07" font-family="Times New Roman,serif" font-weight="bold" font-size="9.00">Obesity III</text>
<polygon fill="none" stroke="black" points="67,-162 67,-196 213.25,-196 213.25,-162 67,-162"/>
</g>
<!-- n_0_1_3_6&#45;&gt;n_0_1_6 -->
<g id="edge2" class="edge">
<title>n_0_1_3_6&#45;&gt;n_0_1_6</title>
<path fill="none" stroke="black" d="M240.41,-243.13C222.02,-231.55 200.03,-217.71 181.34,-205.94"/>
<polygon fill="black" stroke="black" points="183.23,-203 172.9,-200.63 179.5,-208.92 183.23,-203"/>
</g>
<!-- n_3 -->
<g id="node8" class="node">
<title>n_3</title>
<polygon fill="none" stroke="black" points="259.12,-166.38 259.12,-191.62 327.12,-191.62 327.12,-166.38 259.12,-166.38"/>
<text text-anchor="start" x="266.12" y="-177.07" font-family="Times New Roman,serif" font-weight="bold" font-size="9.00">Overweight II</text>
<polygon fill="none" stroke="black" points="258.12,-165.38 258.12,-192.62 328.12,-192.62 328.12,-165.38 258.12,-165.38"/>
</g>
<!-- n_0_1_3_6&#45;&gt;n_3 -->
<g id="edge7" class="edge">
<title>n_0_1_3_6&#45;&gt;n_3</title>
<path fill="none" stroke="black" d="M283.02,-243.13C284.78,-232.17 286.86,-219.18 288.67,-207.84"/>
<polygon fill="black" stroke="black" points="292.08,-208.69 290.2,-198.27 285.17,-207.59 292.08,-208.69"/>
</g>
<!-- n_0_1 -->
<g id="node4" class="node">
<title>n_0_1</title>
<polygon fill="none" stroke="black" points="43,-84.38 43,-109.62 131.25,-109.62 131.25,-84.38 43,-84.38"/>
<text text-anchor="start" x="50" y="-95.08" font-family="Times New Roman,serif" font-weight="bold" font-size="9.00">Insufficient weight</text>
<polygon fill="none" stroke="black" points="131.25,-84.38 131.25,-109.62 175.25,-109.62 175.25,-84.38 131.25,-84.38"/>
<text text-anchor="start" x="138.25" y="-95.08" font-family="Times New Roman,serif" font-weight="bold" font-size="9.00">Normal</text>
<polygon fill="none" stroke="black" points="42,-83.38 42,-110.62 176.25,-110.62 176.25,-83.38 42,-83.38"/>
</g>
<!-- n_0_1_6&#45;&gt;n_0_1 -->
<g id="edge3" class="edge">
<title>n_0_1_6&#45;&gt;n_0_1</title>
<path fill="none" stroke="black" d="M132.46,-158.22C128.63,-148.33 123.93,-136.21 119.75,-125.43"/>
<polygon fill="black" stroke="black" points="123.08,-124.31 116.2,-116.26 116.55,-126.84 123.08,-124.31"/>
</g>
<!-- n_6 -->
<g id="node7" class="node">
<title>n_6</title>
<polygon fill="none" stroke="black" points="222.12,-84.38 222.12,-109.62 278.12,-109.62 278.12,-84.38 222.12,-84.38"/>
<text text-anchor="start" x="229.12" y="-95.08" font-family="Times New Roman,serif" font-weight="bold" font-size="9.00">Obesity III</text>
<polygon fill="none" stroke="black" points="221.12,-83.38 221.12,-110.62 279.12,-110.62 279.12,-83.38 221.12,-83.38"/>
</g>
<!-- n_0_1_6&#45;&gt;n_6 -->
<g id="edge6" class="edge">
<title>n_0_1_6&#45;&gt;n_6</title>
<path fill="none" stroke="black" d="M167.6,-158.02C182.92,-146.88 202.08,-132.94 218.08,-121.31"/>
<polygon fill="black" stroke="black" points="219.83,-124.36 225.86,-115.65 215.71,-118.7 219.83,-124.36"/>
</g>
<!-- n_0 -->
<g id="node5" class="node">
<title>n_0</title>
<polygon fill="none" stroke="black" points="9,-5.38 9,-30.62 97.25,-30.62 97.25,-5.38 9,-5.38"/>
<text text-anchor="start" x="16" y="-16.07" font-family="Times New Roman,serif" font-weight="bold" font-size="9.00">Insufficient weight</text>
<polygon fill="none" stroke="black" points="8,-4.38 8,-31.62 98.25,-31.62 98.25,-4.38 8,-4.38"/>
</g>
<!-- n_0_1&#45;&gt;n_0 -->
<g id="edge4" class="edge">
<title>n_0_1&#45;&gt;n_0</title>
<path fill="none" stroke="black" d="M96.97,-79.29C89.69,-69.27 80.26,-56.31 72.02,-44.98"/>
<polygon fill="black" stroke="black" points="75.05,-43.19 66.34,-37.17 69.39,-47.31 75.05,-43.19"/>
</g>
<!-- n_1 -->
<g id="node6" class="node">
<title>n_1</title>
<polygon fill="none" stroke="black" points="144.12,-5.38 144.12,-30.62 188.12,-30.62 188.12,-5.38 144.12,-5.38"/>
<text text-anchor="start" x="151.12" y="-16.07" font-family="Times New Roman,serif" font-weight="bold" font-size="9.00">Normal</text>
<polygon fill="none" stroke="black" points="143.12,-4.38 143.12,-31.62 189.12,-31.62 189.12,-4.38 143.12,-4.38"/>
</g>
<!-- n_0_1&#45;&gt;n_1 -->
<g id="edge5" class="edge">
<title>n_0_1&#45;&gt;n_1</title>
<path fill="none" stroke="black" d="M121.49,-79.29C128.91,-69.27 138.5,-56.31 146.89,-44.98"/>
<polygon fill="black" stroke="black" points="149.55,-47.28 152.68,-37.16 143.92,-43.11 149.55,-47.28"/>
</g>
<!-- n_2_5 -->
<g id="node10" class="node">
<title>n_2_5</title>
<polygon fill="none" stroke="black" points="389.12,-166.38 389.12,-191.62 454.12,-191.62 454.12,-166.38 389.12,-166.38"/>
<text text-anchor="start" x="396.12" y="-177.07" font-family="Times New Roman,serif" font-weight="bold" font-size="9.00">Overweight I</text>
<polygon fill="none" stroke="black" points="454.12,-166.38 454.12,-191.62 507.12,-191.62 507.12,-166.38 454.12,-166.38"/>
<text text-anchor="start" x="461.12" y="-177.07" font-family="Times New Roman,serif" font-weight="bold" font-size="9.00">Obesity II</text>
<polygon fill="none" stroke="black" points="388.12,-165.38 388.12,-192.62 508.12,-192.62 508.12,-165.38 388.12,-165.38"/>
</g>
<!-- n_2_4_5&#45;&gt;n_2_5 -->
<g id="edge9" class="edge">
<title>n_2_4_5&#45;&gt;n_2_5</title>
<path fill="none" stroke="black" d="M458.95,-247.64C457.07,-235.91 454.66,-220.86 452.6,-207.94"/>
<polygon fill="black" stroke="black" points="456.09,-207.65 451.06,-198.33 449.18,-208.75 456.09,-207.65"/>
</g>
<!-- n_4 -->
<g id="node13" class="node">
<title>n_4</title>
<polygon fill="none" stroke="black" points="554.12,-166.38 554.12,-191.62 604.12,-191.62 604.12,-166.38 554.12,-166.38"/>
<text text-anchor="start" x="561.12" y="-177.07" font-family="Times New Roman,serif" font-weight="bold" font-size="9.00">Obesity I</text>
<polygon fill="none" stroke="black" points="553.12,-165.38 553.12,-192.62 605.12,-192.62 605.12,-165.38 553.12,-165.38"/>
</g>
<!-- n_2_4_5&#45;&gt;n_4 -->
<g id="edge12" class="edge">
<title>n_2_4_5&#45;&gt;n_4</title>
<path fill="none" stroke="black" d="M488.67,-247.64C506.13,-234.59 529.06,-217.45 547.46,-203.68"/>
<polygon fill="black" stroke="black" points="549.49,-206.53 555.41,-197.74 545.3,-200.92 549.49,-206.53"/>
</g>
<!-- n_2 -->
<g id="node11" class="node">
<title>n_2</title>
<polygon fill="none" stroke="black" points="370.62,-84.38 370.62,-109.62 435.62,-109.62 435.62,-84.38 370.62,-84.38"/>
<text text-anchor="start" x="377.62" y="-95.08" font-family="Times New Roman,serif" font-weight="bold" font-size="9.00">Overweight I</text>
<polygon fill="none" stroke="black" points="369.62,-83.38 369.62,-110.62 436.62,-110.62 436.62,-83.38 369.62,-83.38"/>
</g>
<!-- n_2_5&#45;&gt;n_2 -->
<g id="edge10" class="edge">
<title>n_2_5&#45;&gt;n_2</title>
<path fill="none" stroke="black" d="M438.58,-161.03C432.68,-150.53 424.96,-136.82 418.24,-124.87"/>
<polygon fill="black" stroke="black" points="421.35,-123.26 413.4,-116.26 415.25,-126.69 421.35,-123.26"/>
</g>
<!-- n_5 -->
<g id="node12" class="node">
<title>n_5</title>
<polygon fill="none" stroke="black" points="482.62,-84.38 482.62,-109.62 535.62,-109.62 535.62,-84.38 482.62,-84.38"/>
<text text-anchor="start" x="489.62" y="-95.08" font-family="Times New Roman,serif" font-weight="bold" font-size="9.00">Obesity II</text>
<polygon fill="none" stroke="black" points="481.62,-83.38 481.62,-110.62 536.62,-110.62 536.62,-83.38 481.62,-83.38"/>
</g>
<!-- n_2_5&#45;&gt;n_5 -->
<g id="edge11" class="edge">
<title>n_2_5&#45;&gt;n_5</title>
<path fill="none" stroke="black" d="M461.06,-161.03C469.31,-150.22 480.16,-135.99 489.46,-123.79"/>
<polygon fill="black" stroke="black" points="492.01,-126.22 495.29,-116.15 486.44,-121.97 492.01,-126.22"/>
</g>
</g>
</svg>
