<?xml version="1.0" encoding="UTF-8" standalone="no"?>
<!DOCTYPE svg PUBLIC "-//W3C//DTD SVG 1.1//EN"
 "http://www.w3.org/Graphics/SVG/1.1/DTD/svg11.dtd">
<!-- Generated by graphviz version 10.0.1 (20240210.2158)
 -->
<!-- Title: ND Pages: 1 -->
<svg width="557pt" height="638pt"
 viewBox="0.00 0.00 556.50 638.00" xmlns="http://www.w3.org/2000/svg" xmlns:xlink="http://www.w3.org/1999/xlink">
<g id="graph0" class="graph" transform="scale(1 1) rotate(0) translate(4 634)">
<title>ND</title>
<polygon fill="white" stroke="none" points="-4,4 -4,-634 552.5,-634 552.5,4 -4,4"/>
<!-- n_0_1_2_3_4_5_6 -->
<g id="node1" class="node">
<title>n_0_1_2_3_4_5_6</title>
<polygon fill="none" stroke="black" points="372.38,-557 372.38,-625 460.62,-625 460.62,-557 372.38,-557"/>
<text text-anchor="start" x="379.38" y="-610.45" font-family="Times New Roman,serif" font-weight="bold" font-size="9.00">Insufficient weight</text>
<text text-anchor="start" x="401.5" y="-601.45" font-family="Times New Roman,serif" font-weight="bold" font-size="9.00">Normal</text>
<text text-anchor="start" x="391" y="-592.45" font-family="Times New Roman,serif" font-weight="bold" font-size="9.00">Overweight I</text>
<text text-anchor="start" x="389.5" y="-583.45" font-family="Times New Roman,serif" font-weight="bold" font-size="9.00">Overweight II</text>
<text text-anchor="start" x="398.5" y="-574.45" font-family="Times New Roman,serif" font-weight="bold" font-size="9.00">Obesity I</text>
<text text-anchor="start" x="395.5" y="-565.45" font-family="Times New Roman,serif" font-weight="bold" font-size="9.00">Obesity III</text>
<polygon fill="none" stroke="black" points="460.62,-557 460.62,-625 513.62,-625 513.62,-557 460.62,-557"/>
<text text-anchor="start" x="467.62" y="-589.08" font-family="Times New Roman,serif" font-weight="bold" font-size="9.00">Obesity II</text>
<polygon fill="none" stroke="black" points="371.38,-556 371.38,-626 514.62,-626 514.62,-556 371.38,-556"/>
</g>
<!-- n_0_1_2_3_4_6 -->
<g id="node2" class="node">
<title>n_0_1_2_3_4_6</title>
<polygon fill="none" stroke="black" points="306.88,-445 306.88,-504 395.12,-504 395.12,-445 306.88,-445"/>
<text text-anchor="start" x="313.88" y="-489.45" font-family="Times New Roman,serif" font-weight="bold" font-size="9.00">Insufficient weight</text>
<text text-anchor="start" x="325.5" y="-480.45" font-family="Times New Roman,serif" font-weight="bold" font-size="9.00">Overweight I</text>
<text text-anchor="start" x="324" y="-471.45" font-family="Times New Roman,serif" font-weight="bold" font-size="9.00">Overweight II</text>
<text text-anchor="start" x="333" y="-462.45" font-family="Times New Roman,serif" font-weight="bold" font-size="9.00">Obesity I</text>
<text text-anchor="start" x="330" y="-453.45" font-family="Times New Roman,serif" font-weight="bold" font-size="9.00">Obesity III</text>
<polygon fill="none" stroke="black" points="395.12,-445 395.12,-504 439.12,-504 439.12,-445 395.12,-445"/>
<text text-anchor="start" x="402.12" y="-472.57" font-family="Times New Roman,serif" font-weight="bold" font-size="9.00">Normal</text>
<polygon fill="none" stroke="black" points="305.88,-444 305.88,-505 440.12,-505 440.12,-444 305.88,-444"/>
</g>
<!-- n_0_1_2_3_4_5_6&#45;&gt;n_0_1_2_3_4_6 -->
<g id="edge1" class="edge">
<title>n_0_1_2_3_4_5_6&#45;&gt;n_0_1_2_3_4_6</title>
<path fill="none" stroke="black" d="M419.89,-552.19C413.23,-541.31 405.93,-529.36 399.11,-518.21"/>
<polygon fill="black" stroke="black" points="402.26,-516.65 394.06,-509.94 396.29,-520.3 402.26,-516.65"/>
</g>
<!-- n_5 -->
<g id="node13" class="node">
<title>n_5</title>
<polygon fill="none" stroke="black" points="486.5,-461.88 486.5,-487.12 539.5,-487.12 539.5,-461.88 486.5,-461.88"/>
<text text-anchor="start" x="493.5" y="-472.57" font-family="Times New Roman,serif" font-weight="bold" font-size="9.00">Obesity II</text>
<polygon fill="none" stroke="black" points="485.5,-460.88 485.5,-488.12 540.5,-488.12 540.5,-460.88 485.5,-460.88"/>
</g>
<!-- n_0_1_2_3_4_5_6&#45;&gt;n_5 -->
<g id="edge12" class="edge">
<title>n_0_1_2_3_4_5_6&#45;&gt;n_5</title>
<path fill="none" stroke="black" d="M466.11,-552.19C476.15,-535.78 487.65,-516.96 496.76,-502.07"/>
<polygon fill="black" stroke="black" points="499.61,-504.11 501.84,-493.75 493.64,-500.46 499.61,-504.11"/>
</g>
<!-- n_0_2_3_4_6 -->
<g id="node3" class="node">
<title>n_0_2_3_4_6</title>
<polygon fill="none" stroke="black" points="221.88,-342 221.88,-392 289.88,-392 289.88,-342 221.88,-342"/>
<text text-anchor="start" x="230.38" y="-377.45" font-family="Times New Roman,serif" font-weight="bold" font-size="9.00">Overweight I</text>
<text text-anchor="start" x="228.88" y="-368.45" font-family="Times New Roman,serif" font-weight="bold" font-size="9.00">Overweight II</text>
<text text-anchor="start" x="237.88" y="-359.45" font-family="Times New Roman,serif" font-weight="bold" font-size="9.00">Obesity I</text>
<text text-anchor="start" x="234.88" y="-350.45" font-family="Times New Roman,serif" font-weight="bold" font-size="9.00">Obesity III</text>
<polygon fill="none" stroke="black" points="289.88,-342 289.88,-392 378.12,-392 378.12,-342 289.88,-342"/>
<text text-anchor="start" x="296.88" y="-365.07" font-family="Times New Roman,serif" font-weight="bold" font-size="9.00">Insufficient weight</text>
<polygon fill="none" stroke="black" points="220.88,-341 220.88,-393 379.12,-393 379.12,-341 220.88,-341"/>
</g>
<!-- n_0_1_2_3_4_6&#45;&gt;n_0_2_3_4_6 -->
<g id="edge2" class="edge">
<title>n_0_1_2_3_4_6&#45;&gt;n_0_2_3_4_6</title>
<path fill="none" stroke="black" d="M349.9,-440.12C342.47,-429.38 334.18,-417.4 326.52,-406.33"/>
<polygon fill="black" stroke="black" points="329.43,-404.37 320.86,-398.14 323.67,-408.36 329.43,-404.37"/>
</g>
<!-- n_1 -->
<g id="node12" class="node">
<title>n_1</title>
<polygon fill="none" stroke="black" points="425,-354.38 425,-379.62 469,-379.62 469,-354.38 425,-354.38"/>
<text text-anchor="start" x="432" y="-365.07" font-family="Times New Roman,serif" font-weight="bold" font-size="9.00">Normal</text>
<polygon fill="none" stroke="black" points="424,-353.38 424,-380.62 470,-380.62 470,-353.38 424,-353.38"/>
</g>
<!-- n_0_1_2_3_4_6&#45;&gt;n_1 -->
<g id="edge11" class="edge">
<title>n_0_1_2_3_4_6&#45;&gt;n_1</title>
<path fill="none" stroke="black" d="M396.41,-440.12C406.87,-425.21 419.01,-407.9 428.78,-393.98"/>
<polygon fill="black" stroke="black" points="431.36,-396.39 434.24,-386.19 425.63,-392.37 431.36,-396.39"/>
</g>
<!-- n_2_3_4_6 -->
<g id="node4" class="node">
<title>n_2_3_4_6</title>
<polygon fill="none" stroke="black" points="154.5,-248 154.5,-289 219.5,-289 219.5,-248 154.5,-248"/>
<text text-anchor="start" x="161.5" y="-274.45" font-family="Times New Roman,serif" font-weight="bold" font-size="9.00">Overweight I</text>
<text text-anchor="start" x="169" y="-265.45" font-family="Times New Roman,serif" font-weight="bold" font-size="9.00">Obesity I</text>
<text text-anchor="start" x="166" y="-256.45" font-family="Times New Roman,serif" font-weight="bold" font-size="9.00">Obesity III</text>
<polygon fill="none" stroke="black" points="219.5,-248 219.5,-289 287.5,-289 287.5,-248 219.5,-248"/>
<text text-anchor="start" x="226.5" y="-266.57" font-family="Times New Roman,serif" font-weight="bold" font-size="9.00">Overweight II</text>
<polygon fill="none" stroke="black" points="153.5,-247 153.5,-290 288.5,-290 288.5,-247 153.5,-247"/>
</g>
<!-- n_0_2_3_4_6&#45;&gt;n_2_3_4_6 -->
<g id="edge3" class="edge">
<title>n_0_2_3_4_6&#45;&gt;n_2_3_4_6</title>
<path fill="none" stroke="black" d="M276.3,-337.05C267.4,-326.18 257.23,-313.76 248.06,-302.55"/>
<polygon fill="black" stroke="black" points="250.96,-300.57 241.91,-295.05 245.54,-305 250.96,-300.57"/>
</g>
<!-- n_0 -->
<g id="node11" class="node">
<title>n_0</title>
<polygon fill="none" stroke="black" points="334.88,-255.88 334.88,-281.12 423.12,-281.12 423.12,-255.88 334.88,-255.88"/>
<text text-anchor="start" x="341.88" y="-266.57" font-family="Times New Roman,serif" font-weight="bold" font-size="9.00">Insufficient weight</text>
<polygon fill="none" stroke="black" points="333.88,-254.88 333.88,-282.12 424.12,-282.12 424.12,-254.88 333.88,-254.88"/>
</g>
<!-- n_0_2_3_4_6&#45;&gt;n_0 -->
<g id="edge10" class="edge">
<title>n_0_2_3_4_6&#45;&gt;n_0</title>
<path fill="none" stroke="black" d="M323.7,-337.05C334.6,-323.73 347.42,-308.07 357.97,-295.19"/>
<polygon fill="black" stroke="black" points="360.61,-297.49 364.23,-287.54 355.19,-293.06 360.61,-297.49"/>
</g>
<!-- n_2_4_6 -->
<g id="node5" class="node">
<title>n_2_4_6</title>
<polygon fill="none" stroke="black" points="89.5,-163 89.5,-195 145.5,-195 145.5,-163 89.5,-163"/>
<text text-anchor="start" x="99.5" y="-180.45" font-family="Times New Roman,serif" font-weight="bold" font-size="9.00">Obesity I</text>
<text text-anchor="start" x="96.5" y="-171.45" font-family="Times New Roman,serif" font-weight="bold" font-size="9.00">Obesity III</text>
<polygon fill="none" stroke="black" points="145.5,-163 145.5,-195 210.5,-195 210.5,-163 145.5,-163"/>
<text text-anchor="start" x="152.5" y="-177.07" font-family="Times New Roman,serif" font-weight="bold" font-size="9.00">Overweight I</text>
<polygon fill="none" stroke="black" points="88.5,-162 88.5,-196 211.5,-196 211.5,-162 88.5,-162"/>
</g>
<!-- n_2_3_4_6&#45;&gt;n_2_4_6 -->
<g id="edge4" class="edge">
<title>n_2_3_4_6&#45;&gt;n_2_4_6</title>
<path fill="none" stroke="black" d="M201.22,-243.13C192.57,-232.46 182.35,-219.87 173.33,-208.75"/>
<polygon fill="black" stroke="black" points="176.06,-206.56 167.04,-201 170.62,-210.97 176.06,-206.56"/>
</g>
<!-- n_3 -->
<g id="node10" class="node">
<title>n_3</title>
<polygon fill="none" stroke="black" points="258,-166.38 258,-191.62 326,-191.62 326,-166.38 258,-166.38"/>
<text text-anchor="start" x="265" y="-177.07" font-family="Times New Roman,serif" font-weight="bold" font-size="9.00">Overweight II</text>
<polygon fill="none" stroke="black" points="257,-165.38 257,-192.62 327,-192.62 327,-165.38 257,-165.38"/>
</g>
<!-- n_2_3_4_6&#45;&gt;n_3 -->
<g id="edge9" class="edge">
<title>n_2_3_4_6&#45;&gt;n_3</title>
<path fill="none" stroke="black" d="M240.78,-243.13C250.23,-231.48 261.55,-217.53 271.14,-205.71"/>
<polygon fill="black" stroke="black" points="273.86,-207.92 277.44,-197.95 268.42,-203.51 273.86,-207.92"/>
</g>
<!-- n_4_6 -->
<g id="node6" class="node">
<title>n_4_6</title>
<polygon fill="none" stroke="black" points="31,-84.38 31,-109.62 81,-109.62 81,-84.38 31,-84.38"/>
<text text-anchor="start" x="38" y="-95.08" font-family="Times New Roman,serif" font-weight="bold" font-size="9.00">Obesity I</text>
<polygon fill="none" stroke="black" points="81,-84.38 81,-109.62 137,-109.62 137,-84.38 81,-84.38"/>
<text text-anchor="start" x="88" y="-95.08" font-family="Times New Roman,serif" font-weight="bold" font-size="9.00">Obesity III</text>
<polygon fill="none" stroke="black" points="30,-83.38 30,-110.62 138,-110.62 138,-83.38 30,-83.38"/>
</g>
<!-- n_2_4_6&#45;&gt;n_4_6 -->
<g id="edge5" class="edge">
<title>n_2_4_6&#45;&gt;n_4_6</title>
<path fill="none" stroke="black" d="M133.69,-158.22C125.01,-147.71 114.25,-134.66 104.96,-123.41"/>
<polygon fill="black" stroke="black" points="107.92,-121.5 98.86,-116.01 102.52,-125.95 107.92,-121.5"/>
</g>
<!-- n_2 -->
<g id="node9" class="node">
<title>n_2</title>
<polygon fill="none" stroke="black" points="184.5,-84.38 184.5,-109.62 249.5,-109.62 249.5,-84.38 184.5,-84.38"/>
<text text-anchor="start" x="191.5" y="-95.08" font-family="Times New Roman,serif" font-weight="bold" font-size="9.00">Overweight I</text>
<polygon fill="none" stroke="black" points="183.5,-83.38 183.5,-110.62 250.5,-110.62 250.5,-83.38 183.5,-83.38"/>
</g>
<!-- n_2_4_6&#45;&gt;n_2 -->
<g id="edge8" class="edge">
<title>n_2_4_6&#45;&gt;n_2</title>
<path fill="none" stroke="black" d="M166.56,-158.22C175.37,-147.71 186.29,-134.66 195.72,-123.41"/>
<polygon fill="black" stroke="black" points="198.18,-125.92 201.92,-116 192.82,-121.42 198.18,-125.92"/>
</g>
<!-- n_4 -->
<g id="node7" class="node">
<title>n_4</title>
<polygon fill="none" stroke="black" points="9,-5.38 9,-30.62 59,-30.62 59,-5.38 9,-5.38"/>
<text text-anchor="start" x="16" y="-16.07" font-family="Times New Roman,serif" font-weight="bold" font-size="9.00">Obesity I</text>
<polygon fill="none" stroke="black" points="8,-4.38 8,-31.62 60,-31.62 60,-4.38 8,-4.38"/>
</g>
<!-- n_4_6&#45;&gt;n_4 -->
<g id="edge6" class="edge">
<title>n_4_6&#45;&gt;n_4</title>
<path fill="none" stroke="black" d="M73.15,-79.29C66.71,-69.37 58.4,-56.57 51.09,-45.32"/>
<polygon fill="black" stroke="black" points="54.21,-43.69 45.83,-37.21 48.34,-47.5 54.21,-43.69"/>
</g>
<!-- n_6 -->
<g id="node8" class="node">
<title>n_6</title>
<polygon fill="none" stroke="black" points="106,-5.38 106,-30.62 162,-30.62 162,-5.38 106,-5.38"/>
<text text-anchor="start" x="113" y="-16.07" font-family="Times New Roman,serif" font-weight="bold" font-size="9.00">Obesity III</text>
<polygon fill="none" stroke="black" points="105,-4.38 105,-31.62 163,-31.62 163,-4.38 105,-4.38"/>
</g>
<!-- n_4_6&#45;&gt;n_6 -->
<g id="edge7" class="edge">
<title>n_4_6&#45;&gt;n_6</title>
<path fill="none" stroke="black" d="M94.85,-79.29C101.29,-69.37 109.6,-56.57 116.91,-45.32"/>
<polygon fill="black" stroke="black" points="119.66,-47.5 122.17,-37.21 113.79,-43.69 119.66,-47.5"/>
</g>
</g>
</svg>
