<?xml version="1.0" encoding="UTF-8" standalone="no"?>
<!DOCTYPE svg PUBLIC "-//W3C//DTD SVG 1.1//EN"
 "http://www.w3.org/Graphics/SVG/1.1/DTD/svg11.dtd">
<!-- Generated by graphviz version 10.0.1 (20240210.2158)
 -->
<!-- Title: ND Pages: 1 -->
<svg width="560pt" height="638pt"
 viewBox="0.00 0.00 560.00 638.00" xmlns="http://www.w3.org/2000/svg" xmlns:xlink="http://www.w3.org/1999/xlink">
<g id="graph0" class="graph" transform="scale(1 1) rotate(0) translate(4 634)">
<title>ND</title>
<polygon fill="white" stroke="none" points="-4,4 -4,-634 556,-634 556,4 -4,4"/>
<!-- n_0_1_2_3_4_5_6 -->
<g id="node1" class="node">
<title>n_0_1_2_3_4_5_6</title>
<polygon fill="none" stroke="black" points="370.88,-557 370.88,-625 459.12,-625 459.12,-557 370.88,-557"/>
<text text-anchor="start" x="377.88" y="-610.45" font-family="Times New Roman,serif" font-weight="bold" font-size="9.00">Insufficient weight</text>
<text text-anchor="start" x="400" y="-601.45" font-family="Times New Roman,serif" font-weight="bold" font-size="9.00">Normal</text>
<text text-anchor="start" x="389.5" y="-592.45" font-family="Times New Roman,serif" font-weight="bold" font-size="9.00">Overweight I</text>
<text text-anchor="start" x="388" y="-583.45" font-family="Times New Roman,serif" font-weight="bold" font-size="9.00">Overweight II</text>
<text text-anchor="start" x="397" y="-574.45" font-family="Times New Roman,serif" font-weight="bold" font-size="9.00">Obesity I</text>
<text text-anchor="start" x="395.5" y="-565.45" font-family="Times New Roman,serif" font-weight="bold" font-size="9.00">Obesity II</text>
<polygon fill="none" stroke="black" points="459.12,-557 459.12,-625 515.12,-625 515.12,-557 459.12,-557"/>
<text text-anchor="start" x="466.12" y="-589.08" font-family="Times New Roman,serif" font-weight="bold" font-size="9.00">Obesity III</text>
<polygon fill="none" stroke="black" points="369.88,-556 369.88,-626 516.12,-626 516.12,-556 369.88,-556"/>
</g>
<!-- n_0_1_2_3_4_5 -->
<g id="node2" class="node">
<title>n_0_1_2_3_4_5</title>
<polygon fill="none" stroke="black" points="301.88,-445 301.88,-504 390.12,-504 390.12,-445 301.88,-445"/>
<text text-anchor="start" x="308.88" y="-489.45" font-family="Times New Roman,serif" font-weight="bold" font-size="9.00">Insufficient weight</text>
<text text-anchor="start" x="331" y="-480.45" font-family="Times New Roman,serif" font-weight="bold" font-size="9.00">Normal</text>
<text text-anchor="start" x="320.5" y="-471.45" font-family="Times New Roman,serif" font-weight="bold" font-size="9.00">Overweight I</text>
<text text-anchor="start" x="319" y="-462.45" font-family="Times New Roman,serif" font-weight="bold" font-size="9.00">Overweight II</text>
<text text-anchor="start" x="326.5" y="-453.45" font-family="Times New Roman,serif" font-weight="bold" font-size="9.00">Obesity II</text>
<polygon fill="none" stroke="black" points="390.12,-445 390.12,-504 440.12,-504 440.12,-445 390.12,-445"/>
<text text-anchor="start" x="397.12" y="-472.57" font-family="Times New Roman,serif" font-weight="bold" font-size="9.00">Obesity I</text>
<polygon fill="none" stroke="black" points="300.88,-444 300.88,-505 441.12,-505 441.12,-444 300.88,-444"/>
</g>
<!-- n_0_1_2_3_4_5_6&#45;&gt;n_0_1_2_3_4_5 -->
<g id="edge1" class="edge">
<title>n_0_1_2_3_4_5_6&#45;&gt;n_0_1_2_3_4_5</title>
<path fill="none" stroke="black" d="M419.22,-552.19C412.38,-541.31 404.87,-529.36 397.85,-518.21"/>
<polygon fill="black" stroke="black" points="400.94,-516.54 392.65,-509.93 395.01,-520.26 400.94,-516.54"/>
</g>
<!-- n_6 -->
<g id="node13" class="node">
<title>n_6</title>
<polygon fill="none" stroke="black" points="487,-461.88 487,-487.12 543,-487.12 543,-461.88 487,-461.88"/>
<text text-anchor="start" x="494" y="-472.57" font-family="Times New Roman,serif" font-weight="bold" font-size="9.00">Obesity III</text>
<polygon fill="none" stroke="black" points="486,-460.88 486,-488.12 544,-488.12 544,-460.88 486,-460.88"/>
</g>
<!-- n_0_1_2_3_4_5_6&#45;&gt;n_6 -->
<g id="edge12" class="edge">
<title>n_0_1_2_3_4_5_6&#45;&gt;n_6</title>
<path fill="none" stroke="black" d="M466.78,-552.19C477.09,-535.78 488.93,-516.96 498.29,-502.07"/>
<polygon fill="black" stroke="black" points="501.17,-504.07 503.53,-493.74 495.24,-500.35 501.17,-504.07"/>
</g>
<!-- n_0_1_2_3_5 -->
<g id="node3" class="node">
<title>n_0_1_2_3_5</title>
<polygon fill="none" stroke="black" points="217.88,-342 217.88,-392 285.88,-392 285.88,-342 217.88,-342"/>
<text text-anchor="start" x="236.88" y="-377.45" font-family="Times New Roman,serif" font-weight="bold" font-size="9.00">Normal</text>
<text text-anchor="start" x="226.38" y="-368.45" font-family="Times New Roman,serif" font-weight="bold" font-size="9.00">Overweight I</text>
<text text-anchor="start" x="224.88" y="-359.45" font-family="Times New Roman,serif" font-weight="bold" font-size="9.00">Overweight II</text>
<text text-anchor="start" x="232.38" y="-350.45" font-family="Times New Roman,serif" font-weight="bold" font-size="9.00">Obesity II</text>
<polygon fill="none" stroke="black" points="285.88,-342 285.88,-392 374.12,-392 374.12,-342 285.88,-342"/>
<text text-anchor="start" x="292.88" y="-365.07" font-family="Times New Roman,serif" font-weight="bold" font-size="9.00">Insufficient weight</text>
<polygon fill="none" stroke="black" points="216.88,-341 216.88,-393 375.12,-393 375.12,-341 216.88,-341"/>
</g>
<!-- n_0_1_2_3_4_5&#45;&gt;n_0_1_2_3_5 -->
<g id="edge2" class="edge">
<title>n_0_1_2_3_4_5&#45;&gt;n_0_1_2_3_5</title>
<path fill="none" stroke="black" d="M347.27,-440.12C339.56,-429.27 330.94,-417.16 323.01,-406"/>
<polygon fill="black" stroke="black" points="326.07,-404.25 317.42,-398.13 320.36,-408.31 326.07,-404.25"/>
</g>
<!-- n_4 -->
<g id="node12" class="node">
<title>n_4</title>
<polygon fill="none" stroke="black" points="421,-354.38 421,-379.62 471,-379.62 471,-354.38 421,-354.38"/>
<text text-anchor="start" x="428" y="-365.07" font-family="Times New Roman,serif" font-weight="bold" font-size="9.00">Obesity I</text>
<polygon fill="none" stroke="black" points="420,-353.38 420,-380.62 472,-380.62 472,-353.38 420,-353.38"/>
</g>
<!-- n_0_1_2_3_4_5&#45;&gt;n_4 -->
<g id="edge11" class="edge">
<title>n_0_1_2_3_4_5&#45;&gt;n_4</title>
<path fill="none" stroke="black" d="M394.73,-440.12C405.33,-425.21 417.64,-407.9 427.53,-393.98"/>
<polygon fill="black" stroke="black" points="430.13,-396.36 433.07,-386.18 424.43,-392.31 430.13,-396.36"/>
</g>
<!-- n_1_2_3_5 -->
<g id="node4" class="node">
<title>n_1_2_3_5</title>
<polygon fill="none" stroke="black" points="150.5,-248 150.5,-289 218.5,-289 218.5,-248 150.5,-248"/>
<text text-anchor="start" x="169.5" y="-274.45" font-family="Times New Roman,serif" font-weight="bold" font-size="9.00">Normal</text>
<text text-anchor="start" x="157.5" y="-265.45" font-family="Times New Roman,serif" font-weight="bold" font-size="9.00">Overweight II</text>
<text text-anchor="start" x="165" y="-256.45" font-family="Times New Roman,serif" font-weight="bold" font-size="9.00">Obesity II</text>
<polygon fill="none" stroke="black" points="218.5,-248 218.5,-289 283.5,-289 283.5,-248 218.5,-248"/>
<text text-anchor="start" x="225.5" y="-266.57" font-family="Times New Roman,serif" font-weight="bold" font-size="9.00">Overweight I</text>
<polygon fill="none" stroke="black" points="149.5,-247 149.5,-290 284.5,-290 284.5,-247 149.5,-247"/>
</g>
<!-- n_0_1_2_3_5&#45;&gt;n_1_2_3_5 -->
<g id="edge3" class="edge">
<title>n_0_1_2_3_5&#45;&gt;n_1_2_3_5</title>
<path fill="none" stroke="black" d="M272.3,-337.05C263.4,-326.18 253.23,-313.76 244.06,-302.55"/>
<polygon fill="black" stroke="black" points="246.96,-300.57 237.91,-295.05 241.54,-305 246.96,-300.57"/>
</g>
<!-- n_0 -->
<g id="node11" class="node">
<title>n_0</title>
<polygon fill="none" stroke="black" points="330.88,-255.88 330.88,-281.12 419.12,-281.12 419.12,-255.88 330.88,-255.88"/>
<text text-anchor="start" x="337.88" y="-266.57" font-family="Times New Roman,serif" font-weight="bold" font-size="9.00">Insufficient weight</text>
<polygon fill="none" stroke="black" points="329.88,-254.88 329.88,-282.12 420.12,-282.12 420.12,-254.88 329.88,-254.88"/>
</g>
<!-- n_0_1_2_3_5&#45;&gt;n_0 -->
<g id="edge10" class="edge">
<title>n_0_1_2_3_5&#45;&gt;n_0</title>
<path fill="none" stroke="black" d="M319.7,-337.05C330.6,-323.73 343.42,-308.07 353.97,-295.19"/>
<polygon fill="black" stroke="black" points="356.61,-297.49 360.23,-287.54 351.19,-293.06 356.61,-297.49"/>
</g>
<!-- n_1_3_5 -->
<g id="node5" class="node">
<title>n_1_3_5</title>
<polygon fill="none" stroke="black" points="86.5,-163 86.5,-195 154.5,-195 154.5,-163 86.5,-163"/>
<text text-anchor="start" x="105.5" y="-180.45" font-family="Times New Roman,serif" font-weight="bold" font-size="9.00">Normal</text>
<text text-anchor="start" x="93.5" y="-171.45" font-family="Times New Roman,serif" font-weight="bold" font-size="9.00">Overweight II</text>
<polygon fill="none" stroke="black" points="154.5,-163 154.5,-195 207.5,-195 207.5,-163 154.5,-163"/>
<text text-anchor="start" x="161.5" y="-177.07" font-family="Times New Roman,serif" font-weight="bold" font-size="9.00">Obesity II</text>
<polygon fill="none" stroke="black" points="85.5,-162 85.5,-196 208.5,-196 208.5,-162 85.5,-162"/>
</g>
<!-- n_1_2_3_5&#45;&gt;n_1_3_5 -->
<g id="edge4" class="edge">
<title>n_1_2_3_5&#45;&gt;n_1_3_5</title>
<path fill="none" stroke="black" d="M197.5,-243.13C188.97,-232.46 178.89,-219.87 170,-208.75"/>
<polygon fill="black" stroke="black" points="172.79,-206.63 163.81,-201.01 167.32,-211 172.79,-206.63"/>
</g>
<!-- n_2 -->
<g id="node10" class="node">
<title>n_2</title>
<polygon fill="none" stroke="black" points="254.5,-166.38 254.5,-191.62 319.5,-191.62 319.5,-166.38 254.5,-166.38"/>
<text text-anchor="start" x="261.5" y="-177.07" font-family="Times New Roman,serif" font-weight="bold" font-size="9.00">Overweight I</text>
<polygon fill="none" stroke="black" points="253.5,-165.38 253.5,-192.62 320.5,-192.62 320.5,-165.38 253.5,-165.38"/>
</g>
<!-- n_1_2_3_5&#45;&gt;n_2 -->
<g id="edge9" class="edge">
<title>n_1_2_3_5&#45;&gt;n_2</title>
<path fill="none" stroke="black" d="M236.5,-243.13C245.82,-231.48 256.98,-217.53 266.43,-205.71"/>
<polygon fill="black" stroke="black" points="269.12,-207.95 272.64,-197.95 263.66,-203.57 269.12,-207.95"/>
</g>
<!-- n_1_3 -->
<g id="node6" class="node">
<title>n_1_3</title>
<polygon fill="none" stroke="black" points="26,-84.38 26,-109.62 70,-109.62 70,-84.38 26,-84.38"/>
<text text-anchor="start" x="33" y="-95.08" font-family="Times New Roman,serif" font-weight="bold" font-size="9.00">Normal</text>
<polygon fill="none" stroke="black" points="70,-84.38 70,-109.62 138,-109.62 138,-84.38 70,-84.38"/>
<text text-anchor="start" x="77" y="-95.08" font-family="Times New Roman,serif" font-weight="bold" font-size="9.00">Overweight II</text>
<polygon fill="none" stroke="black" points="25,-83.38 25,-110.62 139,-110.62 139,-83.38 25,-83.38"/>
</g>
<!-- n_1_3_5&#45;&gt;n_1_3 -->
<g id="edge5" class="edge">
<title>n_1_3_5&#45;&gt;n_1_3</title>
<path fill="none" stroke="black" d="M130.93,-158.22C122.47,-147.81 112,-134.92 102.92,-123.74"/>
<polygon fill="black" stroke="black" points="105.66,-121.57 96.64,-116.02 100.23,-125.99 105.66,-121.57"/>
</g>
<!-- n_5 -->
<g id="node9" class="node">
<title>n_5</title>
<polygon fill="none" stroke="black" points="185.5,-84.38 185.5,-109.62 238.5,-109.62 238.5,-84.38 185.5,-84.38"/>
<text text-anchor="start" x="192.5" y="-95.08" font-family="Times New Roman,serif" font-weight="bold" font-size="9.00">Obesity II</text>
<polygon fill="none" stroke="black" points="184.5,-83.38 184.5,-110.62 239.5,-110.62 239.5,-83.38 184.5,-83.38"/>
</g>
<!-- n_1_3_5&#45;&gt;n_5 -->
<g id="edge8" class="edge">
<title>n_1_3_5&#45;&gt;n_5</title>
<path fill="none" stroke="black" d="M163.07,-158.22C171.53,-147.81 182,-134.92 191.08,-123.74"/>
<polygon fill="black" stroke="black" points="193.77,-125.99 197.36,-116.02 188.34,-121.57 193.77,-125.99"/>
</g>
<!-- n_1 -->
<g id="node7" class="node">
<title>n_1</title>
<polygon fill="none" stroke="black" points="9,-5.38 9,-30.62 53,-30.62 53,-5.38 9,-5.38"/>
<text text-anchor="start" x="16" y="-16.07" font-family="Times New Roman,serif" font-weight="bold" font-size="9.00">Normal</text>
<polygon fill="none" stroke="black" points="8,-4.38 8,-31.62 54,-31.62 54,-4.38 8,-4.38"/>
</g>
<!-- n_1_3&#45;&gt;n_1 -->
<g id="edge6" class="edge">
<title>n_1_3&#45;&gt;n_1</title>
<path fill="none" stroke="black" d="M70.93,-79.29C64.36,-69.37 55.89,-56.57 48.43,-45.32"/>
<polygon fill="black" stroke="black" points="51.5,-43.61 43.06,-37.2 45.66,-47.47 51.5,-43.61"/>
</g>
<!-- n_3 -->
<g id="node8" class="node">
<title>n_3</title>
<polygon fill="none" stroke="black" points="100,-5.38 100,-30.62 168,-30.62 168,-5.38 100,-5.38"/>
<text text-anchor="start" x="107" y="-16.07" font-family="Times New Roman,serif" font-weight="bold" font-size="9.00">Overweight II</text>
<polygon fill="none" stroke="black" points="99,-4.38 99,-31.62 169,-31.62 169,-4.38 99,-4.38"/>
</g>
<!-- n_1_3&#45;&gt;n_3 -->
<g id="edge7" class="edge">
<title>n_1_3&#45;&gt;n_3</title>
<path fill="none" stroke="black" d="M93.28,-79.29C99.98,-69.37 108.63,-56.57 116.23,-45.32"/>
<polygon fill="black" stroke="black" points="119.02,-47.44 121.71,-37.2 113.22,-43.52 119.02,-47.44"/>
</g>
</g>
</svg>
