<?xml version="1.0" encoding="UTF-8" standalone="no"?>
<!DOCTYPE svg PUBLIC "-//W3C//DTD SVG 1.1//EN"
 "http://www.w3.org/Graphics/SVG/1.1/DTD/svg11.dtd">
<!-- Generated by graphviz version 10.0.1 (20240210.2158)
 -->
<!-- Title: ND Pages: 1 -->
<svg width="547pt" height="544pt"
 viewBox="0.00 0.00 547.12 544.00" xmlns="http://www.w3.org/2000/svg" xmlns:xlink="http://www.w3.org/1999/xlink">
<g id="graph0" class="graph" transform="scale(1 1) rotate(0) translate(4 540)">
<title>ND</title>
<polygon fill="white" stroke="none" points="-4,4 -4,-540 543.12,-540 543.12,4 -4,4"/>
<!-- n_0_1_2_3_4_5_6 -->
<g id="node1" class="node">
<title>n_0_1_2_3_4_5_6</title>
<polygon fill="none" stroke="black" points="330.88,-463 330.88,-531 398.88,-531 398.88,-463 330.88,-463"/>
<text text-anchor="start" x="349.88" y="-516.45" font-family="Times New Roman,serif" font-weight="bold" font-size="9.00">Normal</text>
<text text-anchor="start" x="339.38" y="-507.45" font-family="Times New Roman,serif" font-weight="bold" font-size="9.00">Overweight I</text>
<text text-anchor="start" x="337.88" y="-498.45" font-family="Times New Roman,serif" font-weight="bold" font-size="9.00">Overweight II</text>
<text text-anchor="start" x="346.88" y="-489.45" font-family="Times New Roman,serif" font-weight="bold" font-size="9.00">Obesity I</text>
<text text-anchor="start" x="345.38" y="-480.45" font-family="Times New Roman,serif" font-weight="bold" font-size="9.00">Obesity II</text>
<text text-anchor="start" x="343.88" y="-471.45" font-family="Times New Roman,serif" font-weight="bold" font-size="9.00">Obesity III</text>
<polygon fill="none" stroke="black" points="398.88,-463 398.88,-531 487.12,-531 487.12,-463 398.88,-463"/>
<text text-anchor="start" x="405.88" y="-495.07" font-family="Times New Roman,serif" font-weight="bold" font-size="9.00">Insufficient weight</text>
<polygon fill="none" stroke="black" points="329.88,-462 329.88,-532 488.12,-532 488.12,-462 329.88,-462"/>
</g>
<!-- n_1_2_3_4_5_6 -->
<g id="node2" class="node">
<title>n_1_2_3_4_5_6</title>
<polygon fill="none" stroke="black" points="271,-351 271,-410 339,-410 339,-351 271,-351"/>
<text text-anchor="start" x="290" y="-395.45" font-family="Times New Roman,serif" font-weight="bold" font-size="9.00">Normal</text>
<text text-anchor="start" x="279.5" y="-386.45" font-family="Times New Roman,serif" font-weight="bold" font-size="9.00">Overweight I</text>
<text text-anchor="start" x="278" y="-377.45" font-family="Times New Roman,serif" font-weight="bold" font-size="9.00">Overweight II</text>
<text text-anchor="start" x="287" y="-368.45" font-family="Times New Roman,serif" font-weight="bold" font-size="9.00">Obesity I</text>
<text text-anchor="start" x="285.5" y="-359.45" font-family="Times New Roman,serif" font-weight="bold" font-size="9.00">Obesity II</text>
<polygon fill="none" stroke="black" points="339,-351 339,-410 395,-410 395,-351 339,-351"/>
<text text-anchor="start" x="346" y="-378.57" font-family="Times New Roman,serif" font-weight="bold" font-size="9.00">Obesity III</text>
<polygon fill="none" stroke="black" points="270,-350 270,-411 396,-411 396,-350 270,-350"/>
</g>
<!-- n_0_1_2_3_4_5_6&#45;&gt;n_1_2_3_4_5_6 -->
<g id="edge1" class="edge">
<title>n_0_1_2_3_4_5_6&#45;&gt;n_1_2_3_4_5_6</title>
<path fill="none" stroke="black" d="M383.9,-458.19C376.68,-447.31 368.75,-435.36 361.35,-424.21"/>
<polygon fill="black" stroke="black" points="364.29,-422.31 355.84,-415.91 358.46,-426.18 364.29,-422.31"/>
</g>
<!-- n_0 -->
<g id="node13" class="node">
<title>n_0</title>
<polygon fill="none" stroke="black" points="441.88,-367.88 441.88,-393.12 530.12,-393.12 530.12,-367.88 441.88,-367.88"/>
<text text-anchor="start" x="448.88" y="-378.57" font-family="Times New Roman,serif" font-weight="bold" font-size="9.00">Insufficient weight</text>
<polygon fill="none" stroke="black" points="440.88,-366.88 440.88,-394.12 531.12,-394.12 531.12,-366.88 440.88,-366.88"/>
</g>
<!-- n_0_1_2_3_4_5_6&#45;&gt;n_0 -->
<g id="edge12" class="edge">
<title>n_0_1_2_3_4_5_6&#45;&gt;n_0</title>
<path fill="none" stroke="black" d="M434.43,-458.19C445.57,-441.63 458.36,-422.6 468.42,-407.64"/>
<polygon fill="black" stroke="black" points="471.07,-409.97 473.75,-399.72 465.26,-406.06 471.07,-409.97"/>
</g>
<!-- n_1_2_3_4_5 -->
<g id="node3" class="node">
<title>n_1_2_3_4_5</title>
<polygon fill="none" stroke="black" points="195.5,-248 195.5,-298 263.5,-298 263.5,-248 195.5,-248"/>
<text text-anchor="start" x="214.5" y="-283.45" font-family="Times New Roman,serif" font-weight="bold" font-size="9.00">Normal</text>
<text text-anchor="start" x="202.5" y="-274.45" font-family="Times New Roman,serif" font-weight="bold" font-size="9.00">Overweight II</text>
<text text-anchor="start" x="211.5" y="-265.45" font-family="Times New Roman,serif" font-weight="bold" font-size="9.00">Obesity I</text>
<text text-anchor="start" x="210" y="-256.45" font-family="Times New Roman,serif" font-weight="bold" font-size="9.00">Obesity II</text>
<polygon fill="none" stroke="black" points="263.5,-248 263.5,-298 328.5,-298 328.5,-248 263.5,-248"/>
<text text-anchor="start" x="270.5" y="-271.07" font-family="Times New Roman,serif" font-weight="bold" font-size="9.00">Overweight I</text>
<polygon fill="none" stroke="black" points="194.5,-247 194.5,-299 329.5,-299 329.5,-247 194.5,-247"/>
</g>
<!-- n_1_2_3_4_5_6&#45;&gt;n_1_2_3_4_5 -->
<g id="edge2" class="edge">
<title>n_1_2_3_4_5_6&#45;&gt;n_1_2_3_4_5</title>
<path fill="none" stroke="black" d="M310.54,-346.12C303.31,-335.38 295.24,-323.4 287.8,-312.33"/>
<polygon fill="black" stroke="black" points="290.78,-310.5 282.29,-304.15 284.97,-314.4 290.78,-310.5"/>
</g>
<!-- n_6 -->
<g id="node12" class="node">
<title>n_6</title>
<polygon fill="none" stroke="black" points="376,-260.38 376,-285.62 432,-285.62 432,-260.38 376,-260.38"/>
<text text-anchor="start" x="383" y="-271.07" font-family="Times New Roman,serif" font-weight="bold" font-size="9.00">Obesity III</text>
<polygon fill="none" stroke="black" points="375,-259.38 375,-286.62 433,-286.62 433,-259.38 375,-259.38"/>
</g>
<!-- n_1_2_3_4_5_6&#45;&gt;n_6 -->
<g id="edge11" class="edge">
<title>n_1_2_3_4_5_6&#45;&gt;n_6</title>
<path fill="none" stroke="black" d="M355.46,-346.12C365.4,-331.35 376.92,-314.23 386.25,-300.38"/>
<polygon fill="black" stroke="black" points="389.07,-302.46 391.75,-292.21 383.26,-298.55 389.07,-302.46"/>
</g>
<!-- n_1_3_4_5 -->
<g id="node4" class="node">
<title>n_1_3_4_5</title>
<polygon fill="none" stroke="black" points="131.5,-163 131.5,-195 184.5,-195 184.5,-163 131.5,-163"/>
<text text-anchor="start" x="143" y="-180.45" font-family="Times New Roman,serif" font-weight="bold" font-size="9.00">Normal</text>
<text text-anchor="start" x="138.5" y="-171.45" font-family="Times New Roman,serif" font-weight="bold" font-size="9.00">Obesity II</text>
<polygon fill="none" stroke="black" points="184.5,-163 184.5,-195 252.5,-195 252.5,-163 184.5,-163"/>
<text text-anchor="start" x="191.5" y="-180.45" font-family="Times New Roman,serif" font-weight="bold" font-size="9.00">Overweight II</text>
<text text-anchor="start" x="200.5" y="-171.45" font-family="Times New Roman,serif" font-weight="bold" font-size="9.00">Obesity I</text>
<polygon fill="none" stroke="black" points="130.5,-162 130.5,-196 253.5,-196 253.5,-162 130.5,-162"/>
</g>
<!-- n_1_2_3_4_5&#45;&gt;n_1_3_4_5 -->
<g id="edge3" class="edge">
<title>n_1_2_3_4_5&#45;&gt;n_1_3_4_5</title>
<path fill="none" stroke="black" d="M240.04,-243.14C231.73,-232.22 222.28,-219.79 213.96,-208.87"/>
<polygon fill="black" stroke="black" points="216.77,-206.77 207.93,-200.94 211.2,-211.01 216.77,-206.77"/>
</g>
<!-- n_2 -->
<g id="node11" class="node">
<title>n_2</title>
<polygon fill="none" stroke="black" points="299.5,-166.38 299.5,-191.62 364.5,-191.62 364.5,-166.38 299.5,-166.38"/>
<text text-anchor="start" x="306.5" y="-177.07" font-family="Times New Roman,serif" font-weight="bold" font-size="9.00">Overweight I</text>
<polygon fill="none" stroke="black" points="298.5,-165.38 298.5,-192.62 365.5,-192.62 365.5,-165.38 298.5,-165.38"/>
</g>
<!-- n_1_2_3_4_5&#45;&gt;n_2 -->
<g id="edge10" class="edge">
<title>n_1_2_3_4_5&#45;&gt;n_2</title>
<path fill="none" stroke="black" d="M283.96,-243.14C292.98,-231.29 303.35,-217.66 312.14,-206.1"/>
<polygon fill="black" stroke="black" points="314.9,-208.25 318.17,-198.17 309.33,-204.01 314.9,-208.25"/>
</g>
<!-- n_1_5 -->
<g id="node5" class="node">
<title>n_1_5</title>
<polygon fill="none" stroke="black" points="66.5,-84.38 66.5,-109.62 110.5,-109.62 110.5,-84.38 66.5,-84.38"/>
<text text-anchor="start" x="73.5" y="-95.08" font-family="Times New Roman,serif" font-weight="bold" font-size="9.00">Normal</text>
<polygon fill="none" stroke="black" points="110.5,-84.38 110.5,-109.62 163.5,-109.62 163.5,-84.38 110.5,-84.38"/>
<text text-anchor="start" x="117.5" y="-95.08" font-family="Times New Roman,serif" font-weight="bold" font-size="9.00">Obesity II</text>
<polygon fill="none" stroke="black" points="65.5,-83.38 65.5,-110.62 164.5,-110.62 164.5,-83.38 65.5,-83.38"/>
</g>
<!-- n_1_3_4_5&#45;&gt;n_1_5 -->
<g id="edge4" class="edge">
<title>n_1_3_4_5&#45;&gt;n_1_5</title>
<path fill="none" stroke="black" d="M172.97,-158.22C162.75,-147.61 150.04,-134.41 139.13,-123.07"/>
<polygon fill="black" stroke="black" points="141.72,-120.71 132.26,-115.93 136.67,-125.57 141.72,-120.71"/>
</g>
<!-- n_3_4 -->
<g id="node8" class="node">
<title>n_3_4</title>
<polygon fill="none" stroke="black" points="211,-84.38 211,-109.62 279,-109.62 279,-84.38 211,-84.38"/>
<text text-anchor="start" x="218" y="-95.08" font-family="Times New Roman,serif" font-weight="bold" font-size="9.00">Overweight II</text>
<polygon fill="none" stroke="black" points="279,-84.38 279,-109.62 329,-109.62 329,-84.38 279,-84.38"/>
<text text-anchor="start" x="286" y="-95.08" font-family="Times New Roman,serif" font-weight="bold" font-size="9.00">Obesity I</text>
<polygon fill="none" stroke="black" points="210,-83.38 210,-110.62 330,-110.62 330,-83.38 210,-83.38"/>
</g>
<!-- n_1_3_4_5&#45;&gt;n_3_4 -->
<g id="edge7" class="edge">
<title>n_1_3_4_5&#45;&gt;n_3_4</title>
<path fill="none" stroke="black" d="M211.28,-158.22C221.63,-147.61 234.5,-134.41 245.55,-123.07"/>
<polygon fill="black" stroke="black" points="248.05,-125.53 252.52,-115.93 243.03,-120.64 248.05,-125.53"/>
</g>
<!-- n_1 -->
<g id="node6" class="node">
<title>n_1</title>
<polygon fill="none" stroke="black" points="9,-5.38 9,-30.62 53,-30.62 53,-5.38 9,-5.38"/>
<text text-anchor="start" x="16" y="-16.07" font-family="Times New Roman,serif" font-weight="bold" font-size="9.00">Normal</text>
<polygon fill="none" stroke="black" points="8,-4.38 8,-31.62 54,-31.62 54,-4.38 8,-4.38"/>
</g>
<!-- n_1_5&#45;&gt;n_1 -->
<g id="edge5" class="edge">
<title>n_1_5&#45;&gt;n_1</title>
<path fill="none" stroke="black" d="M96.77,-79.29C85.4,-68.87 70.57,-55.27 57.87,-43.63"/>
<polygon fill="black" stroke="black" points="60.33,-41.14 50.6,-36.96 55.6,-46.3 60.33,-41.14"/>
</g>
<!-- n_5 -->
<g id="node7" class="node">
<title>n_5</title>
<polygon fill="none" stroke="black" points="100.5,-5.38 100.5,-30.62 153.5,-30.62 153.5,-5.38 100.5,-5.38"/>
<text text-anchor="start" x="107.5" y="-16.07" font-family="Times New Roman,serif" font-weight="bold" font-size="9.00">Obesity II</text>
<polygon fill="none" stroke="black" points="99.5,-4.38 99.5,-31.62 154.5,-31.62 154.5,-4.38 99.5,-4.38"/>
</g>
<!-- n_1_5&#45;&gt;n_5 -->
<g id="edge6" class="edge">
<title>n_1_5&#45;&gt;n_5</title>
<path fill="none" stroke="black" d="M117.6,-79.29C119.07,-69.87 120.94,-57.86 122.63,-47.04"/>
<polygon fill="black" stroke="black" points="126.05,-47.86 124.13,-37.44 119.13,-46.78 126.05,-47.86"/>
</g>
<!-- n_3 -->
<g id="node9" class="node">
<title>n_3</title>
<polygon fill="none" stroke="black" points="224,-5.38 224,-30.62 292,-30.62 292,-5.38 224,-5.38"/>
<text text-anchor="start" x="231" y="-16.07" font-family="Times New Roman,serif" font-weight="bold" font-size="9.00">Overweight II</text>
<polygon fill="none" stroke="black" points="223,-4.38 223,-31.62 293,-31.62 293,-4.38 223,-4.38"/>
</g>
<!-- n_3_4&#45;&gt;n_3 -->
<g id="edge8" class="edge">
<title>n_3_4&#45;&gt;n_3</title>
<path fill="none" stroke="black" d="M267.4,-79.29C265.93,-69.87 264.06,-57.86 262.37,-47.04"/>
<polygon fill="black" stroke="black" points="265.87,-46.78 260.87,-37.44 258.95,-47.86 265.87,-46.78"/>
</g>
<!-- n_4 -->
<g id="node10" class="node">
<title>n_4</title>
<polygon fill="none" stroke="black" points="339,-5.38 339,-30.62 389,-30.62 389,-5.38 339,-5.38"/>
<text text-anchor="start" x="346" y="-16.07" font-family="Times New Roman,serif" font-weight="bold" font-size="9.00">Obesity I</text>
<polygon fill="none" stroke="black" points="338,-4.38 338,-31.62 390,-31.62 390,-4.38 338,-4.38"/>
</g>
<!-- n_3_4&#45;&gt;n_4 -->
<g id="edge9" class="edge">
<title>n_3_4&#45;&gt;n_4</title>
<path fill="none" stroke="black" d="M290.4,-79.29C303.36,-68.67 320.36,-54.75 334.75,-42.96"/>
<polygon fill="black" stroke="black" points="336.63,-45.94 342.15,-36.9 332.19,-40.53 336.63,-45.94"/>
</g>
</g>
</svg>
