<?xml version="1.0" encoding="UTF-8" standalone="no"?>
<!DOCTYPE svg PUBLIC "-//W3C//DTD SVG 1.1//EN"
 "http://www.w3.org/Graphics/SVG/1.1/DTD/svg11.dtd">
<!-- Generated by graphviz version 10.0.1 (20240210.2158)
 -->
<!-- Title: ND Pages: 1 -->
<svg width="620pt" height="405pt"
 viewBox="0.00 0.00 620.00 405.00" xmlns="http://www.w3.org/2000/svg" xmlns:xlink="http://www.w3.org/1999/xlink">
<g id="graph0" class="graph" transform="scale(1 1) rotate(0) translate(4 401)">
<title>ND</title>
<polygon fill="white" stroke="none" points="-4,4 -4,-401 616,-401 616,4 -4,4"/>
<!-- n_0_1_2_3_4_5_6 -->
<g id="node1" class="node">
<title>n_0_1_2_3_4_5_6</title>
<polygon fill="none" stroke="black" points="278.88,-342 278.88,-392 346.88,-392 346.88,-342 278.88,-342"/>
<text text-anchor="start" x="287.38" y="-377.45" font-family="Times New Roman,serif" font-weight="bold" font-size="9.00">Overweight I</text>
<text text-anchor="start" x="285.88" y="-368.45" font-family="Times New Roman,serif" font-weight="bold" font-size="9.00">Overweight II</text>
<text text-anchor="start" x="294.88" y="-359.45" font-family="Times New Roman,serif" font-weight="bold" font-size="9.00">Obesity I</text>
<text text-anchor="start" x="293.38" y="-350.45" font-family="Times New Roman,serif" font-weight="bold" font-size="9.00">Obesity II</text>
<polygon fill="none" stroke="black" points="346.88,-342 346.88,-392 435.12,-392 435.12,-342 346.88,-342"/>
<text text-anchor="start" x="353.88" y="-372.95" font-family="Times New Roman,serif" font-weight="bold" font-size="9.00">Insufficient weight</text>
<text text-anchor="start" x="376" y="-363.95" font-family="Times New Roman,serif" font-weight="bold" font-size="9.00">Normal</text>
<text text-anchor="start" x="370" y="-354.95" font-family="Times New Roman,serif" font-weight="bold" font-size="9.00">Obesity III</text>
<polygon fill="none" stroke="black" points="277.88,-341 277.88,-393 436.12,-393 436.12,-341 277.88,-341"/>
</g>
<!-- n_2_3_4_5 -->
<g id="node2" class="node">
<title>n_2_3_4_5</title>
<polygon fill="none" stroke="black" points="200.5,-248 200.5,-289 268.5,-289 268.5,-248 200.5,-248"/>
<text text-anchor="start" x="207.5" y="-274.45" font-family="Times New Roman,serif" font-weight="bold" font-size="9.00">Overweight II</text>
<text text-anchor="start" x="216.5" y="-265.45" font-family="Times New Roman,serif" font-weight="bold" font-size="9.00">Obesity I</text>
<text text-anchor="start" x="215" y="-256.45" font-family="Times New Roman,serif" font-weight="bold" font-size="9.00">Obesity II</text>
<polygon fill="none" stroke="black" points="268.5,-248 268.5,-289 333.5,-289 333.5,-248 268.5,-248"/>
<text text-anchor="start" x="275.5" y="-266.57" font-family="Times New Roman,serif" font-weight="bold" font-size="9.00">Overweight I</text>
<polygon fill="none" stroke="black" points="199.5,-247 199.5,-290 334.5,-290 334.5,-247 199.5,-247"/>
</g>
<!-- n_0_1_2_3_4_5_6&#45;&gt;n_2_3_4_5 -->
<g id="edge1" class="edge">
<title>n_0_1_2_3_4_5_6&#45;&gt;n_2_3_4_5</title>
<path fill="none" stroke="black" d="M330,-337.05C319.76,-326.08 308.05,-313.51 297.51,-302.22"/>
<polygon fill="black" stroke="black" points="300.15,-299.91 290.76,-294.98 295.03,-304.68 300.15,-299.91"/>
</g>
<!-- n_0_1_6 -->
<g id="node9" class="node">
<title>n_0_1_6</title>
<polygon fill="none" stroke="black" points="380.88,-252.5 380.88,-284.5 469.12,-284.5 469.12,-252.5 380.88,-252.5"/>
<text text-anchor="start" x="387.88" y="-269.95" font-family="Times New Roman,serif" font-weight="bold" font-size="9.00">Insufficient weight</text>
<text text-anchor="start" x="404" y="-260.95" font-family="Times New Roman,serif" font-weight="bold" font-size="9.00">Obesity III</text>
<polygon fill="none" stroke="black" points="469.12,-252.5 469.12,-284.5 513.12,-284.5 513.12,-252.5 469.12,-252.5"/>
<text text-anchor="start" x="476.12" y="-266.57" font-family="Times New Roman,serif" font-weight="bold" font-size="9.00">Normal</text>
<polygon fill="none" stroke="black" points="379.88,-251.5 379.88,-285.5 514.12,-285.5 514.12,-251.5 379.88,-251.5"/>
</g>
<!-- n_0_1_2_3_4_5_6&#45;&gt;n_0_1_6 -->
<g id="edge8" class="edge">
<title>n_0_1_2_3_4_5_6&#45;&gt;n_0_1_6</title>
<path fill="none" stroke="black" d="M384,-337.05C395.7,-324.51 409.34,-309.89 420.92,-297.46"/>
<polygon fill="black" stroke="black" points="423.28,-300.07 427.54,-290.37 418.16,-295.29 423.28,-300.07"/>
</g>
<!-- n_3_4_5 -->
<g id="node3" class="node">
<title>n_3_4_5</title>
<polygon fill="none" stroke="black" points="76,-163 76,-195 144,-195 144,-163 76,-163"/>
<text text-anchor="start" x="83" y="-180.45" font-family="Times New Roman,serif" font-weight="bold" font-size="9.00">Overweight II</text>
<text text-anchor="start" x="90.5" y="-171.45" font-family="Times New Roman,serif" font-weight="bold" font-size="9.00">Obesity II</text>
<polygon fill="none" stroke="black" points="144,-163 144,-195 194,-195 194,-163 144,-163"/>
<text text-anchor="start" x="151" y="-177.07" font-family="Times New Roman,serif" font-weight="bold" font-size="9.00">Obesity I</text>
<polygon fill="none" stroke="black" points="75,-162 75,-196 195,-196 195,-162 75,-162"/>
</g>
<!-- n_2_3_4_5&#45;&gt;n_3_4_5 -->
<g id="edge2" class="edge">
<title>n_2_3_4_5&#45;&gt;n_3_4_5</title>
<path fill="none" stroke="black" d="M230.23,-243.13C212.85,-231.61 192.09,-217.84 174.39,-206.11"/>
<polygon fill="black" stroke="black" points="176.44,-203.27 166.17,-200.66 172.57,-209.1 176.44,-203.27"/>
</g>
<!-- n_2 -->
<g id="node8" class="node">
<title>n_2</title>
<polygon fill="none" stroke="black" points="241.5,-166.38 241.5,-191.62 306.5,-191.62 306.5,-166.38 241.5,-166.38"/>
<text text-anchor="start" x="248.5" y="-177.07" font-family="Times New Roman,serif" font-weight="bold" font-size="9.00">Overweight I</text>
<polygon fill="none" stroke="black" points="240.5,-165.38 240.5,-192.62 307.5,-192.62 307.5,-165.38 240.5,-165.38"/>
</g>
<!-- n_2_3_4_5&#45;&gt;n_2 -->
<g id="edge7" class="edge">
<title>n_2_3_4_5&#45;&gt;n_2</title>
<path fill="none" stroke="black" d="M268.95,-243.13C269.82,-232.28 270.84,-219.45 271.74,-208.19"/>
<polygon fill="black" stroke="black" points="275.23,-208.53 272.54,-198.28 268.25,-207.97 275.23,-208.53"/>
</g>
<!-- n_3_5 -->
<g id="node4" class="node">
<title>n_3_5</title>
<polygon fill="none" stroke="black" points="36.5,-84.38 36.5,-109.62 104.5,-109.62 104.5,-84.38 36.5,-84.38"/>
<text text-anchor="start" x="43.5" y="-95.08" font-family="Times New Roman,serif" font-weight="bold" font-size="9.00">Overweight II</text>
<polygon fill="none" stroke="black" points="104.5,-84.38 104.5,-109.62 157.5,-109.62 157.5,-84.38 104.5,-84.38"/>
<text text-anchor="start" x="111.5" y="-95.08" font-family="Times New Roman,serif" font-weight="bold" font-size="9.00">Obesity II</text>
<polygon fill="none" stroke="black" points="35.5,-83.38 35.5,-110.62 158.5,-110.62 158.5,-83.38 35.5,-83.38"/>
</g>
<!-- n_3_4_5&#45;&gt;n_3_5 -->
<g id="edge3" class="edge">
<title>n_3_4_5&#45;&gt;n_3_5</title>
<path fill="none" stroke="black" d="M125.61,-158.22C120.86,-148.23 115.03,-135.95 109.87,-125.09"/>
<polygon fill="black" stroke="black" points="113.1,-123.74 105.65,-116.21 106.78,-126.75 113.1,-123.74"/>
</g>
<!-- n_4 -->
<g id="node7" class="node">
<title>n_4</title>
<polygon fill="none" stroke="black" points="205,-84.38 205,-109.62 255,-109.62 255,-84.38 205,-84.38"/>
<text text-anchor="start" x="212" y="-95.08" font-family="Times New Roman,serif" font-weight="bold" font-size="9.00">Obesity I</text>
<polygon fill="none" stroke="black" points="204,-83.38 204,-110.62 256,-110.62 256,-83.38 204,-83.38"/>
</g>
<!-- n_3_4_5&#45;&gt;n_4 -->
<g id="edge6" class="edge">
<title>n_3_4_5&#45;&gt;n_4</title>
<path fill="none" stroke="black" d="M158.48,-158.22C171.46,-147.29 187.69,-133.63 201.41,-122.08"/>
<polygon fill="black" stroke="black" points="203.45,-124.94 208.84,-115.82 198.94,-119.58 203.45,-124.94"/>
</g>
<!-- n_3 -->
<g id="node5" class="node">
<title>n_3</title>
<polygon fill="none" stroke="black" points="9,-5.38 9,-30.62 77,-30.62 77,-5.38 9,-5.38"/>
<text text-anchor="start" x="16" y="-16.07" font-family="Times New Roman,serif" font-weight="bold" font-size="9.00">Overweight II</text>
<polygon fill="none" stroke="black" points="8,-4.38 8,-31.62 78,-31.62 78,-4.38 8,-4.38"/>
</g>
<!-- n_3_5&#45;&gt;n_3 -->
<g id="edge4" class="edge">
<title>n_3_5&#45;&gt;n_3</title>
<path fill="none" stroke="black" d="M85.28,-79.29C78.33,-69.37 69.35,-56.57 61.46,-45.32"/>
<polygon fill="black" stroke="black" points="64.36,-43.36 55.75,-37.18 58.63,-47.38 64.36,-43.36"/>
</g>
<!-- n_5 -->
<g id="node6" class="node">
<title>n_5</title>
<polygon fill="none" stroke="black" points="124.5,-5.38 124.5,-30.62 177.5,-30.62 177.5,-5.38 124.5,-5.38"/>
<text text-anchor="start" x="131.5" y="-16.07" font-family="Times New Roman,serif" font-weight="bold" font-size="9.00">Obesity II</text>
<polygon fill="none" stroke="black" points="123.5,-4.38 123.5,-31.62 178.5,-31.62 178.5,-4.38 123.5,-4.38"/>
</g>
<!-- n_3_5&#45;&gt;n_5 -->
<g id="edge5" class="edge">
<title>n_3_5&#45;&gt;n_5</title>
<path fill="none" stroke="black" d="M108.72,-79.29C115.67,-69.37 124.65,-56.57 132.54,-45.32"/>
<polygon fill="black" stroke="black" points="135.37,-47.38 138.25,-37.18 129.64,-43.36 135.37,-47.38"/>
</g>
<!-- n_0_6 -->
<g id="node10" class="node">
<title>n_0_6</title>
<polygon fill="none" stroke="black" points="367.88,-166.38 367.88,-191.62 456.12,-191.62 456.12,-166.38 367.88,-166.38"/>
<text text-anchor="start" x="374.88" y="-177.07" font-family="Times New Roman,serif" font-weight="bold" font-size="9.00">Insufficient weight</text>
<polygon fill="none" stroke="black" points="456.12,-166.38 456.12,-191.62 512.12,-191.62 512.12,-166.38 456.12,-166.38"/>
<text text-anchor="start" x="463.12" y="-177.07" font-family="Times New Roman,serif" font-weight="bold" font-size="9.00">Obesity III</text>
<polygon fill="none" stroke="black" points="366.88,-165.38 366.88,-192.62 513.12,-192.62 513.12,-165.38 366.88,-165.38"/>
</g>
<!-- n_0_1_6&#45;&gt;n_0_6 -->
<g id="edge9" class="edge">
<title>n_0_1_6&#45;&gt;n_0_6</title>
<path fill="none" stroke="black" d="M445.41,-247.64C444.47,-235.91 443.27,-220.86 442.24,-207.94"/>
<polygon fill="black" stroke="black" points="445.75,-208.03 441.47,-198.34 438.78,-208.59 445.75,-208.03"/>
</g>
<!-- n_1 -->
<g id="node13" class="node">
<title>n_1</title>
<polygon fill="none" stroke="black" points="559,-166.38 559,-191.62 603,-191.62 603,-166.38 559,-166.38"/>
<text text-anchor="start" x="566" y="-177.07" font-family="Times New Roman,serif" font-weight="bold" font-size="9.00">Normal</text>
<polygon fill="none" stroke="black" points="558,-165.38 558,-192.62 604,-192.62 604,-165.38 558,-165.38"/>
</g>
<!-- n_0_1_6&#45;&gt;n_1 -->
<g id="edge12" class="edge">
<title>n_0_1_6&#45;&gt;n_1</title>
<path fill="none" stroke="black" d="M477.41,-247.64C497.67,-234.41 524.38,-216.97 545.6,-203.12"/>
<polygon fill="black" stroke="black" points="547.5,-206.06 553.96,-197.66 543.67,-200.2 547.5,-206.06"/>
</g>
<!-- n_0 -->
<g id="node11" class="node">
<title>n_0</title>
<polygon fill="none" stroke="black" points="348.88,-84.38 348.88,-109.62 437.12,-109.62 437.12,-84.38 348.88,-84.38"/>
<text text-anchor="start" x="355.88" y="-95.08" font-family="Times New Roman,serif" font-weight="bold" font-size="9.00">Insufficient weight</text>
<polygon fill="none" stroke="black" points="347.88,-83.38 347.88,-110.62 438.12,-110.62 438.12,-83.38 347.88,-83.38"/>
</g>
<!-- n_0_6&#45;&gt;n_0 -->
<g id="edge10" class="edge">
<title>n_0_6&#45;&gt;n_0</title>
<path fill="none" stroke="black" d="M430.03,-161.03C423.86,-150.53 415.81,-136.82 408.78,-124.87"/>
<polygon fill="black" stroke="black" points="411.8,-123.1 403.72,-116.25 405.77,-126.64 411.8,-123.1"/>
</g>
<!-- n_6 -->
<g id="node12" class="node">
<title>n_6</title>
<polygon fill="none" stroke="black" points="484,-84.38 484,-109.62 540,-109.62 540,-84.38 484,-84.38"/>
<text text-anchor="start" x="491" y="-95.08" font-family="Times New Roman,serif" font-weight="bold" font-size="9.00">Obesity III</text>
<polygon fill="none" stroke="black" points="483,-83.38 483,-110.62 541,-110.62 541,-83.38 483,-83.38"/>
</g>
<!-- n_0_6&#45;&gt;n_6 -->
<g id="edge11" class="edge">
<title>n_0_6&#45;&gt;n_6</title>
<path fill="none" stroke="black" d="M455.27,-161.03C465.1,-150.11 478.06,-135.71 489.11,-123.43"/>
<polygon fill="black" stroke="black" points="491.65,-125.84 495.74,-116.07 486.45,-121.16 491.65,-125.84"/>
</g>
</g>
</svg>
