<?xml version="1.0" encoding="UTF-8" standalone="no"?>
<!DOCTYPE svg PUBLIC "-//W3C//DTD SVG 1.1//EN"
 "http://www.w3.org/Graphics/SVG/1.1/DTD/svg11.dtd">
<!-- Generated by graphviz version 10.0.1 (20240210.2158)
 -->
<!-- Title: ND Pages: 1 -->
<svg width="621pt" height="405pt"
 viewBox="0.00 0.00 620.62 405.00" xmlns="http://www.w3.org/2000/svg" xmlns:xlink="http://www.w3.org/1999/xlink">
<g id="graph0" class="graph" transform="scale(1 1) rotate(0) translate(4 401)">
<title>ND</title>
<polygon fill="white" stroke="none" points="-4,4 -4,-401 616.62,-401 616.62,4 -4,4"/>
<!-- n_0_1_2_3_4_5_6 -->
<g id="node1" class="node">
<title>n_0_1_2_3_4_5_6</title>
<polygon fill="none" stroke="black" points="294,-342 294,-392 382.25,-392 382.25,-342 294,-342"/>
<text text-anchor="start" x="301" y="-377.45" font-family="Times New Roman,serif" font-weight="bold" font-size="9.00">Insufficient weight</text>
<text text-anchor="start" x="312.62" y="-368.45" font-family="Times New Roman,serif" font-weight="bold" font-size="9.00">Overweight I</text>
<text text-anchor="start" x="320.12" y="-359.45" font-family="Times New Roman,serif" font-weight="bold" font-size="9.00">Obesity I</text>
<text text-anchor="start" x="317.12" y="-350.45" font-family="Times New Roman,serif" font-weight="bold" font-size="9.00">Obesity III</text>
<polygon fill="none" stroke="black" points="382.25,-342 382.25,-392 450.25,-392 450.25,-342 382.25,-342"/>
<text text-anchor="start" x="401.25" y="-372.95" font-family="Times New Roman,serif" font-weight="bold" font-size="9.00">Normal</text>
<text text-anchor="start" x="389.25" y="-363.95" font-family="Times New Roman,serif" font-weight="bold" font-size="9.00">Overweight II</text>
<text text-anchor="start" x="396.75" y="-354.95" font-family="Times New Roman,serif" font-weight="bold" font-size="9.00">Obesity II</text>
<polygon fill="none" stroke="black" points="293,-341 293,-393 451.25,-393 451.25,-341 293,-341"/>
</g>
<!-- n_0_2_4_6 -->
<g id="node2" class="node">
<title>n_0_2_4_6</title>
<polygon fill="none" stroke="black" points="210,-248 210,-289 298.25,-289 298.25,-248 210,-248"/>
<text text-anchor="start" x="217" y="-274.45" font-family="Times New Roman,serif" font-weight="bold" font-size="9.00">Insufficient weight</text>
<text text-anchor="start" x="228.62" y="-265.45" font-family="Times New Roman,serif" font-weight="bold" font-size="9.00">Overweight I</text>
<text text-anchor="start" x="236.12" y="-256.45" font-family="Times New Roman,serif" font-weight="bold" font-size="9.00">Obesity I</text>
<polygon fill="none" stroke="black" points="298.25,-248 298.25,-289 354.25,-289 354.25,-248 298.25,-248"/>
<text text-anchor="start" x="305.25" y="-266.57" font-family="Times New Roman,serif" font-weight="bold" font-size="9.00">Obesity III</text>
<polygon fill="none" stroke="black" points="209,-247 209,-290 355.25,-290 355.25,-247 209,-247"/>
</g>
<!-- n_0_1_2_3_4_5_6&#45;&gt;n_0_2_4_6 -->
<g id="edge1" class="edge">
<title>n_0_1_2_3_4_5_6&#45;&gt;n_0_2_4_6</title>
<path fill="none" stroke="black" d="M345.12,-337.05C334.89,-326.08 323.17,-313.51 312.64,-302.22"/>
<polygon fill="black" stroke="black" points="315.27,-299.91 305.89,-294.98 310.15,-304.68 315.27,-299.91"/>
</g>
<!-- n_1_3_5 -->
<g id="node9" class="node">
<title>n_1_3_5</title>
<polygon fill="none" stroke="black" points="401.62,-252.5 401.62,-284.5 469.62,-284.5 469.62,-252.5 401.62,-252.5"/>
<text text-anchor="start" x="420.62" y="-269.95" font-family="Times New Roman,serif" font-weight="bold" font-size="9.00">Normal</text>
<text text-anchor="start" x="408.62" y="-260.95" font-family="Times New Roman,serif" font-weight="bold" font-size="9.00">Overweight II</text>
<polygon fill="none" stroke="black" points="469.62,-252.5 469.62,-284.5 522.62,-284.5 522.62,-252.5 469.62,-252.5"/>
<text text-anchor="start" x="476.62" y="-266.57" font-family="Times New Roman,serif" font-weight="bold" font-size="9.00">Obesity II</text>
<polygon fill="none" stroke="black" points="400.62,-251.5 400.62,-285.5 523.62,-285.5 523.62,-251.5 400.62,-251.5"/>
</g>
<!-- n_0_1_2_3_4_5_6&#45;&gt;n_1_3_5 -->
<g id="edge8" class="edge">
<title>n_0_1_2_3_4_5_6&#45;&gt;n_1_3_5</title>
<path fill="none" stroke="black" d="M399.13,-337.05C410.82,-324.51 424.46,-309.89 436.05,-297.46"/>
<polygon fill="black" stroke="black" points="438.4,-300.07 442.66,-290.37 433.28,-295.29 438.4,-300.07"/>
</g>
<!-- n_0_2_4 -->
<g id="node3" class="node">
<title>n_0_2_4</title>
<polygon fill="none" stroke="black" points="69.5,-163 69.5,-195 157.75,-195 157.75,-163 69.5,-163"/>
<text text-anchor="start" x="76.5" y="-180.45" font-family="Times New Roman,serif" font-weight="bold" font-size="9.00">Insufficient weight</text>
<text text-anchor="start" x="95.62" y="-171.45" font-family="Times New Roman,serif" font-weight="bold" font-size="9.00">Obesity I</text>
<polygon fill="none" stroke="black" points="157.75,-163 157.75,-195 222.75,-195 222.75,-163 157.75,-163"/>
<text text-anchor="start" x="164.75" y="-177.07" font-family="Times New Roman,serif" font-weight="bold" font-size="9.00">Overweight I</text>
<polygon fill="none" stroke="black" points="68.5,-162 68.5,-196 223.75,-196 223.75,-162 68.5,-162"/>
</g>
<!-- n_0_2_4_6&#45;&gt;n_0_2_4 -->
<g id="edge2" class="edge">
<title>n_0_2_4_6&#45;&gt;n_0_2_4</title>
<path fill="none" stroke="black" d="M244.24,-243.13C226.25,-231.55 204.74,-217.71 186.45,-205.94"/>
<polygon fill="black" stroke="black" points="188.52,-203.11 178.21,-200.64 184.73,-209 188.52,-203.11"/>
</g>
<!-- n_6 -->
<g id="node8" class="node">
<title>n_6</title>
<polygon fill="none" stroke="black" points="270.12,-166.38 270.12,-191.62 326.12,-191.62 326.12,-166.38 270.12,-166.38"/>
<text text-anchor="start" x="277.12" y="-177.07" font-family="Times New Roman,serif" font-weight="bold" font-size="9.00">Obesity III</text>
<polygon fill="none" stroke="black" points="269.12,-165.38 269.12,-192.62 327.12,-192.62 327.12,-165.38 269.12,-165.38"/>
</g>
<!-- n_0_2_4_6&#45;&gt;n_6 -->
<g id="edge7" class="edge">
<title>n_0_2_4_6&#45;&gt;n_6</title>
<path fill="none" stroke="black" d="M286.58,-243.13C288.59,-232.17 290.96,-219.18 293.04,-207.84"/>
<polygon fill="black" stroke="black" points="296.43,-208.73 294.79,-198.26 289.54,-207.47 296.43,-208.73"/>
</g>
<!-- n_0_4 -->
<g id="node4" class="node">
<title>n_0_4</title>
<polygon fill="none" stroke="black" points="42,-84.38 42,-109.62 130.25,-109.62 130.25,-84.38 42,-84.38"/>
<text text-anchor="start" x="49" y="-95.08" font-family="Times New Roman,serif" font-weight="bold" font-size="9.00">Insufficient weight</text>
<polygon fill="none" stroke="black" points="130.25,-84.38 130.25,-109.62 180.25,-109.62 180.25,-84.38 130.25,-84.38"/>
<text text-anchor="start" x="137.25" y="-95.08" font-family="Times New Roman,serif" font-weight="bold" font-size="9.00">Obesity I</text>
<polygon fill="none" stroke="black" points="41,-83.38 41,-110.62 181.25,-110.62 181.25,-83.38 41,-83.38"/>
</g>
<!-- n_0_2_4&#45;&gt;n_0_4 -->
<g id="edge3" class="edge">
<title>n_0_2_4&#45;&gt;n_0_4</title>
<path fill="none" stroke="black" d="M137.47,-158.22C133.1,-148.23 127.73,-135.95 122.98,-125.09"/>
<polygon fill="black" stroke="black" points="126.32,-123.99 119.1,-116.23 119.9,-126.79 126.32,-123.99"/>
</g>
<!-- n_2 -->
<g id="node7" class="node">
<title>n_2</title>
<polygon fill="none" stroke="black" points="227.62,-84.38 227.62,-109.62 292.62,-109.62 292.62,-84.38 227.62,-84.38"/>
<text text-anchor="start" x="234.62" y="-95.08" font-family="Times New Roman,serif" font-weight="bold" font-size="9.00">Overweight I</text>
<polygon fill="none" stroke="black" points="226.62,-83.38 226.62,-110.62 293.62,-110.62 293.62,-83.38 226.62,-83.38"/>
</g>
<!-- n_0_2_4&#45;&gt;n_2 -->
<g id="edge6" class="edge">
<title>n_0_2_4&#45;&gt;n_2</title>
<path fill="none" stroke="black" d="M174.6,-158.02C190.48,-146.88 210.33,-132.94 226.91,-121.31"/>
<polygon fill="black" stroke="black" points="228.83,-124.24 235.01,-115.63 224.81,-118.51 228.83,-124.24"/>
</g>
<!-- n_0 -->
<g id="node5" class="node">
<title>n_0</title>
<polygon fill="none" stroke="black" points="9,-5.38 9,-30.62 97.25,-30.62 97.25,-5.38 9,-5.38"/>
<text text-anchor="start" x="16" y="-16.07" font-family="Times New Roman,serif" font-weight="bold" font-size="9.00">Insufficient weight</text>
<polygon fill="none" stroke="black" points="8,-4.38 8,-31.62 98.25,-31.62 98.25,-4.38 8,-4.38"/>
</g>
<!-- n_0_4&#45;&gt;n_0 -->
<g id="edge4" class="edge">
<title>n_0_4&#45;&gt;n_0</title>
<path fill="none" stroke="black" d="M98.54,-79.29C90.99,-69.27 81.23,-56.31 72.69,-44.98"/>
<polygon fill="black" stroke="black" points="75.61,-43.03 66.8,-37.15 70.02,-47.24 75.61,-43.03"/>
</g>
<!-- n_4 -->
<g id="node6" class="node">
<title>n_4</title>
<polygon fill="none" stroke="black" points="144.12,-5.38 144.12,-30.62 194.12,-30.62 194.12,-5.38 144.12,-5.38"/>
<text text-anchor="start" x="151.12" y="-16.07" font-family="Times New Roman,serif" font-weight="bold" font-size="9.00">Obesity I</text>
<polygon fill="none" stroke="black" points="143.12,-4.38 143.12,-31.62 195.12,-31.62 195.12,-4.38 143.12,-4.38"/>
</g>
<!-- n_0_4&#45;&gt;n_4 -->
<g id="edge5" class="edge">
<title>n_0_4&#45;&gt;n_4</title>
<path fill="none" stroke="black" d="M123.71,-79.29C131.26,-69.27 141.02,-56.31 149.56,-44.98"/>
<polygon fill="black" stroke="black" points="152.23,-47.24 155.45,-37.15 146.64,-43.03 152.23,-47.24"/>
</g>
<!-- n_1_3 -->
<g id="node10" class="node">
<title>n_1_3</title>
<polygon fill="none" stroke="black" points="391.12,-166.38 391.12,-191.62 435.12,-191.62 435.12,-166.38 391.12,-166.38"/>
<text text-anchor="start" x="398.12" y="-177.07" font-family="Times New Roman,serif" font-weight="bold" font-size="9.00">Normal</text>
<polygon fill="none" stroke="black" points="435.12,-166.38 435.12,-191.62 503.12,-191.62 503.12,-166.38 435.12,-166.38"/>
<text text-anchor="start" x="442.12" y="-177.07" font-family="Times New Roman,serif" font-weight="bold" font-size="9.00">Overweight II</text>
<polygon fill="none" stroke="black" points="390.12,-165.38 390.12,-192.62 504.12,-192.62 504.12,-165.38 390.12,-165.38"/>
</g>
<!-- n_1_3_5&#45;&gt;n_1_3 -->
<g id="edge9" class="edge">
<title>n_1_3_5&#45;&gt;n_1_3</title>
<path fill="none" stroke="black" d="M458.72,-247.64C456.71,-235.91 454.13,-220.86 451.92,-207.94"/>
<polygon fill="black" stroke="black" points="455.41,-207.59 450.27,-198.32 448.51,-208.77 455.41,-207.59"/>
</g>
<!-- n_5 -->
<g id="node13" class="node">
<title>n_5</title>
<polygon fill="none" stroke="black" points="550.62,-166.38 550.62,-191.62 603.62,-191.62 603.62,-166.38 550.62,-166.38"/>
<text text-anchor="start" x="557.62" y="-177.07" font-family="Times New Roman,serif" font-weight="bold" font-size="9.00">Obesity II</text>
<polygon fill="none" stroke="black" points="549.62,-165.38 549.62,-192.62 604.62,-192.62 604.62,-165.38 549.62,-165.38"/>
</g>
<!-- n_1_3_5&#45;&gt;n_5 -->
<g id="edge12" class="edge">
<title>n_1_3_5&#45;&gt;n_5</title>
<path fill="none" stroke="black" d="M488.22,-247.64C505.38,-234.59 527.91,-217.45 546,-203.68"/>
<polygon fill="black" stroke="black" points="547.96,-206.59 553.8,-197.75 543.72,-201.02 547.96,-206.59"/>
</g>
<!-- n_1 -->
<g id="node11" class="node">
<title>n_1</title>
<polygon fill="none" stroke="black" points="382.12,-84.38 382.12,-109.62 426.12,-109.62 426.12,-84.38 382.12,-84.38"/>
<text text-anchor="start" x="389.12" y="-95.08" font-family="Times New Roman,serif" font-weight="bold" font-size="9.00">Normal</text>
<polygon fill="none" stroke="black" points="381.12,-83.38 381.12,-110.62 427.12,-110.62 427.12,-83.38 381.12,-83.38"/>
</g>
<!-- n_1_3&#45;&gt;n_1 -->
<g id="edge10" class="edge">
<title>n_1_3&#45;&gt;n_1</title>
<path fill="none" stroke="black" d="M438.01,-161.03C432.36,-150.53 424.99,-136.82 418.57,-124.87"/>
<polygon fill="black" stroke="black" points="421.76,-123.43 413.95,-116.27 415.6,-126.74 421.76,-123.43"/>
</g>
<!-- n_3 -->
<g id="node12" class="node">
<title>n_3</title>
<polygon fill="none" stroke="black" points="473.12,-84.38 473.12,-109.62 541.12,-109.62 541.12,-84.38 473.12,-84.38"/>
<text text-anchor="start" x="480.12" y="-95.08" font-family="Times New Roman,serif" font-weight="bold" font-size="9.00">Overweight II</text>
<polygon fill="none" stroke="black" points="472.12,-83.38 472.12,-110.62 542.12,-110.62 542.12,-83.38 472.12,-83.38"/>
</g>
<!-- n_1_3&#45;&gt;n_3 -->
<g id="edge11" class="edge">
<title>n_1_3&#45;&gt;n_3</title>
<path fill="none" stroke="black" d="M459.85,-161.03C467.88,-150.32 478.43,-136.27 487.52,-124.15"/>
<polygon fill="black" stroke="black" points="490.31,-126.25 493.51,-116.15 484.71,-122.05 490.31,-126.25"/>
</g>
</g>
</svg>
