<?xml version="1.0" encoding="UTF-8" standalone="no"?>
<!DOCTYPE svg PUBLIC "-//W3C//DTD SVG 1.1//EN"
 "http://www.w3.org/Graphics/SVG/1.1/DTD/svg11.dtd">
<!-- Generated by graphviz version 10.0.1 (20240210.2158)
 -->
<!-- Title: ND Pages: 1 -->
<svg width="561pt" height="638pt"
 viewBox="0.00 0.00 560.50 638.00" xmlns="http://www.w3.org/2000/svg" xmlns:xlink="http://www.w3.org/1999/xlink">
<g id="graph0" class="graph" transform="scale(1 1) rotate(0) translate(4 634)">
<title>ND</title>
<polygon fill="white" stroke="none" points="-4,4 -4,-634 556.5,-634 556.5,4 -4,4"/>
<!-- n_0_1_2_3_4_5_6 -->
<g id="node1" class="node">
<title>n_0_1_2_3_4_5_6</title>
<polygon fill="none" stroke="black" points="382.38,-557 382.38,-625 470.62,-625 470.62,-557 382.38,-557"/>
<text text-anchor="start" x="389.38" y="-610.45" font-family="Times New Roman,serif" font-weight="bold" font-size="9.00">Insufficient weight</text>
<text text-anchor="start" x="401" y="-601.45" font-family="Times New Roman,serif" font-weight="bold" font-size="9.00">Overweight I</text>
<text text-anchor="start" x="399.5" y="-592.45" font-family="Times New Roman,serif" font-weight="bold" font-size="9.00">Overweight II</text>
<text text-anchor="start" x="408.5" y="-583.45" font-family="Times New Roman,serif" font-weight="bold" font-size="9.00">Obesity I</text>
<text text-anchor="start" x="407" y="-574.45" font-family="Times New Roman,serif" font-weight="bold" font-size="9.00">Obesity II</text>
<text text-anchor="start" x="405.5" y="-565.45" font-family="Times New Roman,serif" font-weight="bold" font-size="9.00">Obesity III</text>
<polygon fill="none" stroke="black" points="470.62,-557 470.62,-625 514.62,-625 514.62,-557 470.62,-557"/>
<text text-anchor="start" x="477.62" y="-589.08" font-family="Times New Roman,serif" font-weight="bold" font-size="9.00">Normal</text>
<polygon fill="none" stroke="black" points="381.38,-556 381.38,-626 515.62,-626 515.62,-556 381.38,-556"/>
</g>
<!-- n_0_2_3_4_5_6 -->
<g id="node2" class="node">
<title>n_0_2_3_4_5_6</title>
<polygon fill="none" stroke="black" points="298.88,-445 298.88,-504 387.12,-504 387.12,-445 298.88,-445"/>
<text text-anchor="start" x="305.88" y="-489.45" font-family="Times New Roman,serif" font-weight="bold" font-size="9.00">Insufficient weight</text>
<text text-anchor="start" x="316" y="-480.45" font-family="Times New Roman,serif" font-weight="bold" font-size="9.00">Overweight II</text>
<text text-anchor="start" x="325" y="-471.45" font-family="Times New Roman,serif" font-weight="bold" font-size="9.00">Obesity I</text>
<text text-anchor="start" x="323.5" y="-462.45" font-family="Times New Roman,serif" font-weight="bold" font-size="9.00">Obesity II</text>
<text text-anchor="start" x="322" y="-453.45" font-family="Times New Roman,serif" font-weight="bold" font-size="9.00">Obesity III</text>
<polygon fill="none" stroke="black" points="387.12,-445 387.12,-504 452.12,-504 452.12,-445 387.12,-445"/>
<text text-anchor="start" x="394.12" y="-472.57" font-family="Times New Roman,serif" font-weight="bold" font-size="9.00">Overweight I</text>
<polygon fill="none" stroke="black" points="297.88,-444 297.88,-505 453.12,-505 453.12,-444 297.88,-444"/>
</g>
<!-- n_0_1_2_3_4_5_6&#45;&gt;n_0_2_3_4_5_6 -->
<g id="edge1" class="edge">
<title>n_0_1_2_3_4_5_6&#45;&gt;n_0_2_3_4_5_6</title>
<path fill="none" stroke="black" d="M424.39,-552.19C417.46,-541.31 409.84,-529.36 402.73,-518.21"/>
<polygon fill="black" stroke="black" points="405.78,-516.48 397.45,-509.93 399.87,-520.24 405.78,-516.48"/>
</g>
<!-- n_1 -->
<g id="node13" class="node">
<title>n_1</title>
<polygon fill="none" stroke="black" points="499.5,-461.88 499.5,-487.12 543.5,-487.12 543.5,-461.88 499.5,-461.88"/>
<text text-anchor="start" x="506.5" y="-472.57" font-family="Times New Roman,serif" font-weight="bold" font-size="9.00">Normal</text>
<polygon fill="none" stroke="black" points="498.5,-460.88 498.5,-488.12 544.5,-488.12 544.5,-460.88 498.5,-460.88"/>
</g>
<!-- n_0_1_2_3_4_5_6&#45;&gt;n_1 -->
<g id="edge12" class="edge">
<title>n_0_1_2_3_4_5_6&#45;&gt;n_1</title>
<path fill="none" stroke="black" d="M472.61,-552.19C483.07,-535.78 495.07,-516.96 504.56,-502.07"/>
<polygon fill="black" stroke="black" points="507.45,-504.05 509.87,-493.74 501.54,-500.29 507.45,-504.05"/>
</g>
<!-- n_0_3_4_5_6 -->
<g id="node3" class="node">
<title>n_0_3_4_5_6</title>
<polygon fill="none" stroke="black" points="218.38,-342 218.38,-392 286.38,-392 286.38,-342 218.38,-342"/>
<text text-anchor="start" x="225.38" y="-377.45" font-family="Times New Roman,serif" font-weight="bold" font-size="9.00">Overweight II</text>
<text text-anchor="start" x="234.38" y="-368.45" font-family="Times New Roman,serif" font-weight="bold" font-size="9.00">Obesity I</text>
<text text-anchor="start" x="232.88" y="-359.45" font-family="Times New Roman,serif" font-weight="bold" font-size="9.00">Obesity II</text>
<text text-anchor="start" x="231.38" y="-350.45" font-family="Times New Roman,serif" font-weight="bold" font-size="9.00">Obesity III</text>
<polygon fill="none" stroke="black" points="286.38,-342 286.38,-392 374.62,-392 374.62,-342 286.38,-342"/>
<text text-anchor="start" x="293.38" y="-365.07" font-family="Times New Roman,serif" font-weight="bold" font-size="9.00">Insufficient weight</text>
<polygon fill="none" stroke="black" points="217.38,-341 217.38,-393 375.62,-393 375.62,-341 217.38,-341"/>
</g>
<!-- n_0_2_3_4_5_6&#45;&gt;n_0_3_4_5_6 -->
<g id="edge2" class="edge">
<title>n_0_2_3_4_5_6&#45;&gt;n_0_3_4_5_6</title>
<path fill="none" stroke="black" d="M350.5,-440.12C342.38,-429.27 333.31,-417.16 324.95,-406"/>
<polygon fill="black" stroke="black" points="327.84,-404.02 319.05,-398.11 322.24,-408.21 327.84,-404.02"/>
</g>
<!-- n_2 -->
<g id="node12" class="node">
<title>n_2</title>
<polygon fill="none" stroke="black" points="422,-354.38 422,-379.62 487,-379.62 487,-354.38 422,-354.38"/>
<text text-anchor="start" x="429" y="-365.07" font-family="Times New Roman,serif" font-weight="bold" font-size="9.00">Overweight I</text>
<polygon fill="none" stroke="black" points="421,-353.38 421,-380.62 488,-380.62 488,-353.38 421,-353.38"/>
</g>
<!-- n_0_2_3_4_5_6&#45;&gt;n_2 -->
<g id="edge11" class="edge">
<title>n_0_2_3_4_5_6&#45;&gt;n_2</title>
<path fill="none" stroke="black" d="M400.5,-440.12C411.66,-425.21 424.62,-407.9 435.05,-393.98"/>
<polygon fill="black" stroke="black" points="437.71,-396.26 440.9,-386.16 432.1,-392.07 437.71,-396.26"/>
</g>
<!-- n_3_4_5_6 -->
<g id="node4" class="node">
<title>n_3_4_5_6</title>
<polygon fill="none" stroke="black" points="162.5,-248 162.5,-289 230.5,-289 230.5,-248 162.5,-248"/>
<text text-anchor="start" x="169.5" y="-274.45" font-family="Times New Roman,serif" font-weight="bold" font-size="9.00">Overweight II</text>
<text text-anchor="start" x="177" y="-265.45" font-family="Times New Roman,serif" font-weight="bold" font-size="9.00">Obesity II</text>
<text text-anchor="start" x="175.5" y="-256.45" font-family="Times New Roman,serif" font-weight="bold" font-size="9.00">Obesity III</text>
<polygon fill="none" stroke="black" points="230.5,-248 230.5,-289 280.5,-289 280.5,-248 230.5,-248"/>
<text text-anchor="start" x="237.5" y="-266.57" font-family="Times New Roman,serif" font-weight="bold" font-size="9.00">Obesity I</text>
<polygon fill="none" stroke="black" points="161.5,-247 161.5,-290 281.5,-290 281.5,-247 161.5,-247"/>
</g>
<!-- n_0_3_4_5_6&#45;&gt;n_3_4_5_6 -->
<g id="edge3" class="edge">
<title>n_0_3_4_5_6&#45;&gt;n_3_4_5_6</title>
<path fill="none" stroke="black" d="M274,-337.05C265.64,-326.29 256.09,-314 247.44,-302.88"/>
<polygon fill="black" stroke="black" points="250.27,-300.82 241.37,-295.07 244.75,-305.11 250.27,-300.82"/>
</g>
<!-- n_0 -->
<g id="node11" class="node">
<title>n_0</title>
<polygon fill="none" stroke="black" points="327.38,-255.88 327.38,-281.12 415.62,-281.12 415.62,-255.88 327.38,-255.88"/>
<text text-anchor="start" x="334.38" y="-266.57" font-family="Times New Roman,serif" font-weight="bold" font-size="9.00">Insufficient weight</text>
<polygon fill="none" stroke="black" points="326.38,-254.88 326.38,-282.12 416.62,-282.12 416.62,-254.88 326.38,-254.88"/>
</g>
<!-- n_0_3_4_5_6&#45;&gt;n_0 -->
<g id="edge10" class="edge">
<title>n_0_3_4_5_6&#45;&gt;n_0</title>
<path fill="none" stroke="black" d="M319,-337.05C329.35,-323.73 341.52,-308.07 351.54,-295.19"/>
<polygon fill="black" stroke="black" points="354.09,-297.6 357.46,-287.56 348.56,-293.31 354.09,-297.6"/>
</g>
<!-- n_3_5_6 -->
<g id="node5" class="node">
<title>n_3_5_6</title>
<polygon fill="none" stroke="black" points="92.5,-163 92.5,-195 148.5,-195 148.5,-163 92.5,-163"/>
<text text-anchor="start" x="101" y="-180.45" font-family="Times New Roman,serif" font-weight="bold" font-size="9.00">Obesity II</text>
<text text-anchor="start" x="99.5" y="-171.45" font-family="Times New Roman,serif" font-weight="bold" font-size="9.00">Obesity III</text>
<polygon fill="none" stroke="black" points="148.5,-163 148.5,-195 216.5,-195 216.5,-163 148.5,-163"/>
<text text-anchor="start" x="155.5" y="-177.07" font-family="Times New Roman,serif" font-weight="bold" font-size="9.00">Overweight II</text>
<polygon fill="none" stroke="black" points="91.5,-162 91.5,-196 217.5,-196 217.5,-162 91.5,-162"/>
</g>
<!-- n_3_4_5_6&#45;&gt;n_3_5_6 -->
<g id="edge4" class="edge">
<title>n_3_4_5_6&#45;&gt;n_3_5_6</title>
<path fill="none" stroke="black" d="M202.84,-243.13C194.67,-232.46 185.03,-219.87 176.51,-208.75"/>
<polygon fill="black" stroke="black" points="179.46,-206.84 170.6,-201.03 173.9,-211.1 179.46,-206.84"/>
</g>
<!-- n_4 -->
<g id="node10" class="node">
<title>n_4</title>
<polygon fill="none" stroke="black" points="263.5,-166.38 263.5,-191.62 313.5,-191.62 313.5,-166.38 263.5,-166.38"/>
<text text-anchor="start" x="270.5" y="-177.07" font-family="Times New Roman,serif" font-weight="bold" font-size="9.00">Obesity I</text>
<polygon fill="none" stroke="black" points="262.5,-165.38 262.5,-192.62 314.5,-192.62 314.5,-165.38 262.5,-165.38"/>
</g>
<!-- n_3_4_5_6&#45;&gt;n_4 -->
<g id="edge9" class="edge">
<title>n_3_4_5_6&#45;&gt;n_4</title>
<path fill="none" stroke="black" d="M240.16,-243.13C249.08,-231.48 259.77,-217.53 268.82,-205.71"/>
<polygon fill="black" stroke="black" points="271.44,-208.04 274.74,-197.97 265.88,-203.78 271.44,-208.04"/>
</g>
<!-- n_5_6 -->
<g id="node6" class="node">
<title>n_5_6</title>
<polygon fill="none" stroke="black" points="32,-84.38 32,-109.62 85,-109.62 85,-84.38 32,-84.38"/>
<text text-anchor="start" x="39" y="-95.08" font-family="Times New Roman,serif" font-weight="bold" font-size="9.00">Obesity II</text>
<polygon fill="none" stroke="black" points="85,-84.38 85,-109.62 141,-109.62 141,-84.38 85,-84.38"/>
<text text-anchor="start" x="92" y="-95.08" font-family="Times New Roman,serif" font-weight="bold" font-size="9.00">Obesity III</text>
<polygon fill="none" stroke="black" points="31,-83.38 31,-110.62 142,-110.62 142,-83.38 31,-83.38"/>
</g>
<!-- n_3_5_6&#45;&gt;n_5_6 -->
<g id="edge5" class="edge">
<title>n_3_5_6&#45;&gt;n_5_6</title>
<path fill="none" stroke="black" d="M137.69,-158.22C128.75,-147.71 117.66,-134.66 108.1,-123.41"/>
<polygon fill="black" stroke="black" points="110.94,-121.35 101.8,-116 105.61,-125.88 110.94,-121.35"/>
</g>
<!-- n_3 -->
<g id="node9" class="node">
<title>n_3</title>
<polygon fill="none" stroke="black" points="188.5,-84.38 188.5,-109.62 256.5,-109.62 256.5,-84.38 188.5,-84.38"/>
<text text-anchor="start" x="195.5" y="-95.08" font-family="Times New Roman,serif" font-weight="bold" font-size="9.00">Overweight II</text>
<polygon fill="none" stroke="black" points="187.5,-83.38 187.5,-110.62 257.5,-110.62 257.5,-83.38 187.5,-83.38"/>
</g>
<!-- n_3_5_6&#45;&gt;n_3 -->
<g id="edge8" class="edge">
<title>n_3_5_6&#45;&gt;n_3</title>
<path fill="none" stroke="black" d="M171.31,-158.22C180.25,-147.71 191.34,-134.66 200.9,-123.41"/>
<polygon fill="black" stroke="black" points="203.39,-125.88 207.2,-116 198.06,-121.35 203.39,-125.88"/>
</g>
<!-- n_5 -->
<g id="node7" class="node">
<title>n_5</title>
<polygon fill="none" stroke="black" points="9,-5.38 9,-30.62 62,-30.62 62,-5.38 9,-5.38"/>
<text text-anchor="start" x="16" y="-16.07" font-family="Times New Roman,serif" font-weight="bold" font-size="9.00">Obesity II</text>
<polygon fill="none" stroke="black" points="8,-4.38 8,-31.62 63,-31.62 63,-4.38 8,-4.38"/>
</g>
<!-- n_5_6&#45;&gt;n_5 -->
<g id="edge6" class="edge">
<title>n_5_6&#45;&gt;n_5</title>
<path fill="none" stroke="black" d="M75.43,-79.29C68.86,-69.37 60.39,-56.57 52.93,-45.32"/>
<polygon fill="black" stroke="black" points="56,-43.61 47.56,-37.2 50.16,-47.47 56,-43.61"/>
</g>
<!-- n_6 -->
<g id="node8" class="node">
<title>n_6</title>
<polygon fill="none" stroke="black" points="109.5,-5.38 109.5,-30.62 165.5,-30.62 165.5,-5.38 109.5,-5.38"/>
<text text-anchor="start" x="116.5" y="-16.07" font-family="Times New Roman,serif" font-weight="bold" font-size="9.00">Obesity III</text>
<polygon fill="none" stroke="black" points="108.5,-4.38 108.5,-31.62 166.5,-31.62 166.5,-4.38 108.5,-4.38"/>
</g>
<!-- n_5_6&#45;&gt;n_6 -->
<g id="edge7" class="edge">
<title>n_5_6&#45;&gt;n_6</title>
<path fill="none" stroke="black" d="M97.57,-79.29C104.14,-69.37 112.61,-56.57 120.07,-45.32"/>
<polygon fill="black" stroke="black" points="122.84,-47.47 125.44,-37.2 117,-43.61 122.84,-47.47"/>
</g>
</g>
</svg>
