<?xml version="1.0" encoding="UTF-8" standalone="no"?>
<!DOCTYPE svg PUBLIC "-//W3C//DTD SVG 1.1//EN"
 "http://www.w3.org/Graphics/SVG/1.1/DTD/svg11.dtd">
<!-- Generated by graphviz version 10.0.1 (20240210.2158)
 -->
<!-- Title: ND Pages: 1 -->
<svg width="632pt" height="432pt"
 viewBox="0.00 0.00 632.12 432.00" xmlns="http://www.w3.org/2000/svg" xmlns:xlink="http://www.w3.org/1999/xlink">
<g id="graph0" class="graph" transform="scale(1 1) rotate(0) translate(4 428)">
<title>ND</title>
<polygon fill="white" stroke="none" points="-4,4 -4,-428 628.12,-428 628.12,4 -4,4"/>
<!-- n_0_1_2_3_4_5_6 -->
<g id="node1" class="node">
<title>n_0_1_2_3_4_5_6</title>
<polygon fill="none" stroke="black" points="413,-351 413,-419 501.25,-419 501.25,-351 413,-351"/>
<text text-anchor="start" x="420" y="-404.45" font-family="Times New Roman,serif" font-weight="bold" font-size="9.00">Insufficient weight</text>
<text text-anchor="start" x="442.12" y="-395.45" font-family="Times New Roman,serif" font-weight="bold" font-size="9.00">Normal</text>
<text text-anchor="start" x="431.62" y="-386.45" font-family="Times New Roman,serif" font-weight="bold" font-size="9.00">Overweight I</text>
<text text-anchor="start" x="430.12" y="-377.45" font-family="Times New Roman,serif" font-weight="bold" font-size="9.00">Overweight II</text>
<text text-anchor="start" x="439.12" y="-368.45" font-family="Times New Roman,serif" font-weight="bold" font-size="9.00">Obesity I</text>
<text text-anchor="start" x="437.62" y="-359.45" font-family="Times New Roman,serif" font-weight="bold" font-size="9.00">Obesity II</text>
<polygon fill="none" stroke="black" points="501.25,-351 501.25,-419 557.25,-419 557.25,-351 501.25,-351"/>
<text text-anchor="start" x="508.25" y="-383.07" font-family="Times New Roman,serif" font-weight="bold" font-size="9.00">Obesity III</text>
<polygon fill="none" stroke="black" points="412,-350 412,-420 558.25,-420 558.25,-350 412,-350"/>
</g>
<!-- n_0_1_2_3_4_5 -->
<g id="node2" class="node">
<title>n_0_1_2_3_4_5</title>
<polygon fill="none" stroke="black" points="332.5,-248 332.5,-298 420.75,-298 420.75,-248 332.5,-248"/>
<text text-anchor="start" x="339.5" y="-283.45" font-family="Times New Roman,serif" font-weight="bold" font-size="9.00">Insufficient weight</text>
<text text-anchor="start" x="361.62" y="-274.45" font-family="Times New Roman,serif" font-weight="bold" font-size="9.00">Normal</text>
<text text-anchor="start" x="349.62" y="-265.45" font-family="Times New Roman,serif" font-weight="bold" font-size="9.00">Overweight II</text>
<text text-anchor="start" x="357.12" y="-256.45" font-family="Times New Roman,serif" font-weight="bold" font-size="9.00">Obesity II</text>
<polygon fill="none" stroke="black" points="420.75,-248 420.75,-298 485.75,-298 485.75,-248 420.75,-248"/>
<text text-anchor="start" x="427.75" y="-274.45" font-family="Times New Roman,serif" font-weight="bold" font-size="9.00">Overweight I</text>
<text text-anchor="start" x="435.25" y="-265.45" font-family="Times New Roman,serif" font-weight="bold" font-size="9.00">Obesity I</text>
<polygon fill="none" stroke="black" points="331.5,-247 331.5,-299 486.75,-299 486.75,-247 331.5,-247"/>
</g>
<!-- n_0_1_2_3_4_5_6&#45;&gt;n_0_1_2_3_4_5 -->
<g id="edge1" class="edge">
<title>n_0_1_2_3_4_5_6&#45;&gt;n_0_1_2_3_4_5</title>
<path fill="none" stroke="black" d="M458.97,-346.14C451.4,-335.19 443.13,-323.22 435.54,-312.23"/>
<polygon fill="black" stroke="black" points="438.51,-310.37 429.94,-304.13 432.75,-314.35 438.51,-310.37"/>
</g>
<!-- n_6 -->
<g id="node13" class="node">
<title>n_6</title>
<polygon fill="none" stroke="black" points="533.12,-260.38 533.12,-285.62 589.12,-285.62 589.12,-260.38 533.12,-260.38"/>
<text text-anchor="start" x="540.12" y="-271.07" font-family="Times New Roman,serif" font-weight="bold" font-size="9.00">Obesity III</text>
<polygon fill="none" stroke="black" points="532.12,-259.38 532.12,-286.62 590.12,-286.62 590.12,-259.38 532.12,-259.38"/>
</g>
<!-- n_0_1_2_3_4_5_6&#45;&gt;n_6 -->
<g id="edge12" class="edge">
<title>n_0_1_2_3_4_5_6&#45;&gt;n_6</title>
<path fill="none" stroke="black" d="M511.28,-346.14C521.71,-331.04 533.47,-314.02 542.95,-300.31"/>
<polygon fill="black" stroke="black" points="545.73,-302.44 548.53,-292.23 539.97,-298.47 545.73,-302.44"/>
</g>
<!-- n_0_1_3_5 -->
<g id="node3" class="node">
<title>n_0_1_3_5</title>
<polygon fill="none" stroke="black" points="251.5,-163 251.5,-195 339.75,-195 339.75,-163 251.5,-163"/>
<text text-anchor="start" x="258.5" y="-180.45" font-family="Times New Roman,serif" font-weight="bold" font-size="9.00">Insufficient weight</text>
<text text-anchor="start" x="268.62" y="-171.45" font-family="Times New Roman,serif" font-weight="bold" font-size="9.00">Overweight II</text>
<polygon fill="none" stroke="black" points="339.75,-163 339.75,-195 392.75,-195 392.75,-163 339.75,-163"/>
<text text-anchor="start" x="351.25" y="-180.45" font-family="Times New Roman,serif" font-weight="bold" font-size="9.00">Normal</text>
<text text-anchor="start" x="346.75" y="-171.45" font-family="Times New Roman,serif" font-weight="bold" font-size="9.00">Obesity II</text>
<polygon fill="none" stroke="black" points="250.5,-162 250.5,-196 393.75,-196 393.75,-162 250.5,-162"/>
</g>
<!-- n_0_1_2_3_4_5&#45;&gt;n_0_1_3_5 -->
<g id="edge2" class="edge">
<title>n_0_1_2_3_4_5&#45;&gt;n_0_1_3_5</title>
<path fill="none" stroke="black" d="M381.84,-243.14C371.19,-231.89 359.04,-219.04 348.49,-207.88"/>
<polygon fill="black" stroke="black" points="351.24,-205.69 341.82,-200.83 346.15,-210.5 351.24,-205.69"/>
</g>
<!-- n_2_4 -->
<g id="node10" class="node">
<title>n_2_4</title>
<polygon fill="none" stroke="black" points="439.62,-166.38 439.62,-191.62 504.62,-191.62 504.62,-166.38 439.62,-166.38"/>
<text text-anchor="start" x="446.62" y="-177.07" font-family="Times New Roman,serif" font-weight="bold" font-size="9.00">Overweight I</text>
<polygon fill="none" stroke="black" points="504.62,-166.38 504.62,-191.62 554.62,-191.62 554.62,-166.38 504.62,-166.38"/>
<text text-anchor="start" x="511.62" y="-177.07" font-family="Times New Roman,serif" font-weight="bold" font-size="9.00">Obesity I</text>
<polygon fill="none" stroke="black" points="438.62,-165.38 438.62,-192.62 555.62,-192.62 555.62,-165.38 438.62,-165.38"/>
</g>
<!-- n_0_1_2_3_4_5&#45;&gt;n_2_4 -->
<g id="edge9" class="edge">
<title>n_0_1_2_3_4_5&#45;&gt;n_2_4</title>
<path fill="none" stroke="black" d="M436.73,-243.14C448.41,-230.93 461.89,-216.84 473.15,-205.07"/>
<polygon fill="black" stroke="black" points="475.47,-207.71 479.85,-198.06 470.41,-202.87 475.47,-207.71"/>
</g>
<!-- n_0_3 -->
<g id="node4" class="node">
<title>n_0_3</title>
<polygon fill="none" stroke="black" points="82,-84.38 82,-109.62 170.25,-109.62 170.25,-84.38 82,-84.38"/>
<text text-anchor="start" x="89" y="-95.08" font-family="Times New Roman,serif" font-weight="bold" font-size="9.00">Insufficient weight</text>
<polygon fill="none" stroke="black" points="170.25,-84.38 170.25,-109.62 238.25,-109.62 238.25,-84.38 170.25,-84.38"/>
<text text-anchor="start" x="177.25" y="-95.08" font-family="Times New Roman,serif" font-weight="bold" font-size="9.00">Overweight II</text>
<polygon fill="none" stroke="black" points="81,-83.38 81,-110.62 239.25,-110.62 239.25,-83.38 81,-83.38"/>
</g>
<!-- n_0_1_3_5&#45;&gt;n_0_3 -->
<g id="edge3" class="edge">
<title>n_0_1_3_5&#45;&gt;n_0_3</title>
<path fill="none" stroke="black" d="M281.66,-158.02C258.23,-146.45 228.71,-131.87 204.62,-119.97"/>
<polygon fill="black" stroke="black" points="206.2,-116.85 195.68,-115.56 203.1,-123.13 206.2,-116.85"/>
</g>
<!-- n_1_5 -->
<g id="node7" class="node">
<title>n_1_5</title>
<polygon fill="none" stroke="black" points="285.62,-84.38 285.62,-109.62 329.62,-109.62 329.62,-84.38 285.62,-84.38"/>
<text text-anchor="start" x="292.62" y="-95.08" font-family="Times New Roman,serif" font-weight="bold" font-size="9.00">Normal</text>
<polygon fill="none" stroke="black" points="329.62,-84.38 329.62,-109.62 382.62,-109.62 382.62,-84.38 329.62,-84.38"/>
<text text-anchor="start" x="336.62" y="-95.08" font-family="Times New Roman,serif" font-weight="bold" font-size="9.00">Obesity II</text>
<polygon fill="none" stroke="black" points="284.62,-83.38 284.62,-110.62 383.62,-110.62 383.62,-83.38 284.62,-83.38"/>
</g>
<!-- n_0_1_3_5&#45;&gt;n_1_5 -->
<g id="edge6" class="edge">
<title>n_0_1_3_5&#45;&gt;n_1_5</title>
<path fill="none" stroke="black" d="M325.09,-158.22C326.54,-148.54 328.32,-136.72 329.91,-126.11"/>
<polygon fill="black" stroke="black" points="333.35,-126.75 331.37,-116.34 326.43,-125.71 333.35,-126.75"/>
</g>
<!-- n_0 -->
<g id="node5" class="node">
<title>n_0</title>
<polygon fill="none" stroke="black" points="9,-5.38 9,-30.62 97.25,-30.62 97.25,-5.38 9,-5.38"/>
<text text-anchor="start" x="16" y="-16.07" font-family="Times New Roman,serif" font-weight="bold" font-size="9.00">Insufficient weight</text>
<polygon fill="none" stroke="black" points="8,-4.38 8,-31.62 98.25,-31.62 98.25,-4.38 8,-4.38"/>
</g>
<!-- n_0_3&#45;&gt;n_0 -->
<g id="edge4" class="edge">
<title>n_0_3&#45;&gt;n_0</title>
<path fill="none" stroke="black" d="M136.64,-79.1C121.73,-68.37 102.22,-54.33 85.8,-42.51"/>
<polygon fill="black" stroke="black" points="87.94,-39.74 77.78,-36.74 83.85,-45.42 87.94,-39.74"/>
</g>
<!-- n_3 -->
<g id="node6" class="node">
<title>n_3</title>
<polygon fill="none" stroke="black" points="144.12,-5.38 144.12,-30.62 212.12,-30.62 212.12,-5.38 144.12,-5.38"/>
<text text-anchor="start" x="151.12" y="-16.07" font-family="Times New Roman,serif" font-weight="bold" font-size="9.00">Overweight II</text>
<polygon fill="none" stroke="black" points="143.12,-4.38 143.12,-31.62 213.12,-31.62 213.12,-4.38 143.12,-4.38"/>
</g>
<!-- n_0_3&#45;&gt;n_3 -->
<g id="edge5" class="edge">
<title>n_0_3&#45;&gt;n_3</title>
<path fill="none" stroke="black" d="M164.03,-79.29C166.23,-69.87 169.04,-57.86 171.57,-47.04"/>
<polygon fill="black" stroke="black" points="174.95,-47.95 173.82,-37.41 168.14,-46.36 174.95,-47.95"/>
</g>
<!-- n_1 -->
<g id="node8" class="node">
<title>n_1</title>
<polygon fill="none" stroke="black" points="294.12,-5.38 294.12,-30.62 338.12,-30.62 338.12,-5.38 294.12,-5.38"/>
<text text-anchor="start" x="301.12" y="-16.07" font-family="Times New Roman,serif" font-weight="bold" font-size="9.00">Normal</text>
<polygon fill="none" stroke="black" points="293.12,-4.38 293.12,-31.62 339.12,-31.62 339.12,-4.38 293.12,-4.38"/>
</g>
<!-- n_1_5&#45;&gt;n_1 -->
<g id="edge7" class="edge">
<title>n_1_5&#45;&gt;n_1</title>
<path fill="none" stroke="black" d="M330.22,-79.29C328.02,-69.87 325.21,-57.86 322.68,-47.04"/>
<polygon fill="black" stroke="black" points="326.11,-46.36 320.43,-37.41 319.3,-47.95 326.11,-46.36"/>
</g>
<!-- n_5 -->
<g id="node9" class="node">
<title>n_5</title>
<polygon fill="none" stroke="black" points="385.62,-5.38 385.62,-30.62 438.62,-30.62 438.62,-5.38 385.62,-5.38"/>
<text text-anchor="start" x="392.62" y="-16.07" font-family="Times New Roman,serif" font-weight="bold" font-size="9.00">Obesity II</text>
<polygon fill="none" stroke="black" points="384.62,-4.38 384.62,-31.62 439.62,-31.62 439.62,-4.38 384.62,-4.38"/>
</g>
<!-- n_1_5&#45;&gt;n_5 -->
<g id="edge8" class="edge">
<title>n_1_5&#45;&gt;n_5</title>
<path fill="none" stroke="black" d="M351.05,-79.29C361.51,-68.97 375.12,-55.53 386.84,-43.96"/>
<polygon fill="black" stroke="black" points="389.23,-46.52 393.89,-37 384.31,-41.54 389.23,-46.52"/>
</g>
<!-- n_2 -->
<g id="node11" class="node">
<title>n_2</title>
<polygon fill="none" stroke="black" points="452.62,-84.38 452.62,-109.62 517.62,-109.62 517.62,-84.38 452.62,-84.38"/>
<text text-anchor="start" x="459.62" y="-95.08" font-family="Times New Roman,serif" font-weight="bold" font-size="9.00">Overweight I</text>
<polygon fill="none" stroke="black" points="451.62,-83.38 451.62,-110.62 518.62,-110.62 518.62,-83.38 451.62,-83.38"/>
</g>
<!-- n_2_4&#45;&gt;n_2 -->
<g id="edge10" class="edge">
<title>n_2_4&#45;&gt;n_2</title>
<path fill="none" stroke="black" d="M494.58,-161.03C493.07,-150.96 491.11,-137.92 489.37,-126.32"/>
<polygon fill="black" stroke="black" points="492.84,-125.81 487.89,-116.44 485.91,-126.85 492.84,-125.81"/>
</g>
<!-- n_4 -->
<g id="node12" class="node">
<title>n_4</title>
<polygon fill="none" stroke="black" points="565.12,-84.38 565.12,-109.62 615.12,-109.62 615.12,-84.38 565.12,-84.38"/>
<text text-anchor="start" x="572.12" y="-95.08" font-family="Times New Roman,serif" font-weight="bold" font-size="9.00">Obesity I</text>
<polygon fill="none" stroke="black" points="564.12,-83.38 564.12,-110.62 616.12,-110.62 616.12,-83.38 564.12,-83.38"/>
</g>
<!-- n_2_4&#45;&gt;n_4 -->
<g id="edge11" class="edge">
<title>n_2_4&#45;&gt;n_4</title>
<path fill="none" stroke="black" d="M516.85,-161.03C529.92,-149.79 547.27,-134.87 561.81,-122.36"/>
<polygon fill="black" stroke="black" points="563.98,-125.1 569.28,-115.93 559.42,-119.8 563.98,-125.1"/>
</g>
</g>
</svg>
