<?xml version="1.0" encoding="UTF-8" standalone="no"?>
<!DOCTYPE svg PUBLIC "-//W3C//DTD SVG 1.1//EN"
 "http://www.w3.org/Graphics/SVG/1.1/DTD/svg11.dtd">
<!-- Generated by graphviz version 10.0.1 (20240210.2158)
 -->
<!-- Title: ND Pages: 1 -->
<svg width="606pt" height="526pt"
 viewBox="0.00 0.00 606.00 526.00" xmlns="http://www.w3.org/2000/svg" xmlns:xlink="http://www.w3.org/1999/xlink">
<g id="graph0" class="graph" transform="scale(1 1) rotate(0) translate(4 522)">
<title>ND</title>
<polygon fill="white" stroke="none" points="-4,4 -4,-522 602,-522 602,4 -4,4"/>
<!-- n_0_1_2_3_4_5_6 -->
<g id="node1" class="node">
<title>n_0_1_2_3_4_5_6</title>
<polygon fill="none" stroke="black" points="356.38,-445 356.38,-513 444.62,-513 444.62,-445 356.38,-445"/>
<text text-anchor="start" x="363.38" y="-498.45" font-family="Times New Roman,serif" font-weight="bold" font-size="9.00">Insufficient weight</text>
<text text-anchor="start" x="385.5" y="-489.45" font-family="Times New Roman,serif" font-weight="bold" font-size="9.00">Normal</text>
<text text-anchor="start" x="375" y="-480.45" font-family="Times New Roman,serif" font-weight="bold" font-size="9.00">Overweight I</text>
<text text-anchor="start" x="373.5" y="-471.45" font-family="Times New Roman,serif" font-weight="bold" font-size="9.00">Overweight II</text>
<text text-anchor="start" x="382.5" y="-462.45" font-family="Times New Roman,serif" font-weight="bold" font-size="9.00">Obesity I</text>
<text text-anchor="start" x="379.5" y="-453.45" font-family="Times New Roman,serif" font-weight="bold" font-size="9.00">Obesity III</text>
<polygon fill="none" stroke="black" points="444.62,-445 444.62,-513 497.62,-513 497.62,-445 444.62,-445"/>
<text text-anchor="start" x="451.62" y="-477.07" font-family="Times New Roman,serif" font-weight="bold" font-size="9.00">Obesity II</text>
<polygon fill="none" stroke="black" points="355.38,-444 355.38,-514 498.62,-514 498.62,-444 355.38,-444"/>
</g>
<!-- n_0_1_2_3_4_6 -->
<g id="node2" class="node">
<title>n_0_1_2_3_4_6</title>
<polygon fill="none" stroke="black" points="275.38,-342 275.38,-392 340.38,-392 340.38,-342 275.38,-342"/>
<text text-anchor="start" x="292.88" y="-377.45" font-family="Times New Roman,serif" font-weight="bold" font-size="9.00">Normal</text>
<text text-anchor="start" x="282.38" y="-368.45" font-family="Times New Roman,serif" font-weight="bold" font-size="9.00">Overweight I</text>
<text text-anchor="start" x="289.88" y="-359.45" font-family="Times New Roman,serif" font-weight="bold" font-size="9.00">Obesity I</text>
<text text-anchor="start" x="286.88" y="-350.45" font-family="Times New Roman,serif" font-weight="bold" font-size="9.00">Obesity III</text>
<polygon fill="none" stroke="black" points="340.38,-342 340.38,-392 428.62,-392 428.62,-342 340.38,-342"/>
<text text-anchor="start" x="347.38" y="-368.45" font-family="Times New Roman,serif" font-weight="bold" font-size="9.00">Insufficient weight</text>
<text text-anchor="start" x="357.5" y="-359.45" font-family="Times New Roman,serif" font-weight="bold" font-size="9.00">Overweight II</text>
<polygon fill="none" stroke="black" points="274.38,-341 274.38,-393 429.62,-393 429.62,-341 274.38,-341"/>
</g>
<!-- n_0_1_2_3_4_5_6&#45;&gt;n_0_1_2_3_4_6 -->
<g id="edge1" class="edge">
<title>n_0_1_2_3_4_5_6&#45;&gt;n_0_1_2_3_4_6</title>
<path fill="none" stroke="black" d="M401.19,-440.14C393.72,-429.19 385.56,-417.22 378.07,-406.23"/>
<polygon fill="black" stroke="black" points="381.07,-404.43 372.55,-398.14 375.29,-408.37 381.07,-404.43"/>
</g>
<!-- n_5 -->
<g id="node13" class="node">
<title>n_5</title>
<polygon fill="none" stroke="black" points="475.5,-354.38 475.5,-379.62 528.5,-379.62 528.5,-354.38 475.5,-354.38"/>
<text text-anchor="start" x="482.5" y="-365.07" font-family="Times New Roman,serif" font-weight="bold" font-size="9.00">Obesity II</text>
<polygon fill="none" stroke="black" points="474.5,-353.38 474.5,-380.62 529.5,-380.62 529.5,-353.38 474.5,-353.38"/>
</g>
<!-- n_0_1_2_3_4_5_6&#45;&gt;n_5 -->
<g id="edge12" class="edge">
<title>n_0_1_2_3_4_5_6&#45;&gt;n_5</title>
<path fill="none" stroke="black" d="M452.81,-440.14C463.11,-425.04 474.71,-408.02 484.06,-394.31"/>
<polygon fill="black" stroke="black" points="486.83,-396.47 489.57,-386.23 481.04,-392.52 486.83,-396.47"/>
</g>
<!-- n_1_2_4_6 -->
<g id="node3" class="node">
<title>n_1_2_4_6</title>
<polygon fill="none" stroke="black" points="198.5,-248 198.5,-289 254.5,-289 254.5,-248 198.5,-248"/>
<text text-anchor="start" x="211.5" y="-274.45" font-family="Times New Roman,serif" font-weight="bold" font-size="9.00">Normal</text>
<text text-anchor="start" x="208.5" y="-265.45" font-family="Times New Roman,serif" font-weight="bold" font-size="9.00">Obesity I</text>
<text text-anchor="start" x="205.5" y="-256.45" font-family="Times New Roman,serif" font-weight="bold" font-size="9.00">Obesity III</text>
<polygon fill="none" stroke="black" points="254.5,-248 254.5,-289 319.5,-289 319.5,-248 254.5,-248"/>
<text text-anchor="start" x="261.5" y="-266.57" font-family="Times New Roman,serif" font-weight="bold" font-size="9.00">Overweight I</text>
<polygon fill="none" stroke="black" points="197.5,-247 197.5,-290 320.5,-290 320.5,-247 197.5,-247"/>
</g>
<!-- n_0_1_2_3_4_6&#45;&gt;n_1_2_4_6 -->
<g id="edge2" class="edge">
<title>n_0_1_2_3_4_6&#45;&gt;n_1_2_4_6</title>
<path fill="none" stroke="black" d="M324.1,-337.05C313.42,-325.97 301.18,-313.26 290.21,-301.88"/>
<polygon fill="black" stroke="black" points="293,-299.74 283.54,-294.96 287.96,-304.59 293,-299.74"/>
</g>
<!-- n_0_3 -->
<g id="node10" class="node">
<title>n_0_3</title>
<polygon fill="none" stroke="black" points="366.88,-255.88 366.88,-281.12 455.12,-281.12 455.12,-255.88 366.88,-255.88"/>
<text text-anchor="start" x="373.88" y="-266.57" font-family="Times New Roman,serif" font-weight="bold" font-size="9.00">Insufficient weight</text>
<polygon fill="none" stroke="black" points="455.12,-255.88 455.12,-281.12 523.12,-281.12 523.12,-255.88 455.12,-255.88"/>
<text text-anchor="start" x="462.12" y="-266.57" font-family="Times New Roman,serif" font-weight="bold" font-size="9.00">Overweight II</text>
<polygon fill="none" stroke="black" points="365.88,-254.88 365.88,-282.12 524.12,-282.12 524.12,-254.88 365.88,-254.88"/>
</g>
<!-- n_0_1_2_3_4_6&#45;&gt;n_0_3 -->
<g id="edge9" class="edge">
<title>n_0_1_2_3_4_6&#45;&gt;n_0_3</title>
<path fill="none" stroke="black" d="M379.9,-337.05C392.98,-323.48 408.41,-307.47 420.97,-294.44"/>
<polygon fill="black" stroke="black" points="423.28,-297.08 427.7,-287.46 418.24,-292.23 423.28,-297.08"/>
</g>
<!-- n_1_4_6 -->
<g id="node4" class="node">
<title>n_1_4_6</title>
<polygon fill="none" stroke="black" points="95,-163 95,-195 151,-195 151,-163 95,-163"/>
<text text-anchor="start" x="105" y="-180.45" font-family="Times New Roman,serif" font-weight="bold" font-size="9.00">Obesity I</text>
<text text-anchor="start" x="102" y="-171.45" font-family="Times New Roman,serif" font-weight="bold" font-size="9.00">Obesity III</text>
<polygon fill="none" stroke="black" points="151,-163 151,-195 195,-195 195,-163 151,-163"/>
<text text-anchor="start" x="158" y="-177.07" font-family="Times New Roman,serif" font-weight="bold" font-size="9.00">Normal</text>
<polygon fill="none" stroke="black" points="94,-162 94,-196 196,-196 196,-162 94,-162"/>
</g>
<!-- n_1_2_4_6&#45;&gt;n_1_4_6 -->
<g id="edge3" class="edge">
<title>n_1_2_4_6&#45;&gt;n_1_4_6</title>
<path fill="none" stroke="black" d="M227.24,-243.13C212.51,-231.82 194.96,-218.35 179.87,-206.76"/>
<polygon fill="black" stroke="black" points="182.09,-204.06 172.03,-200.75 177.83,-209.61 182.09,-204.06"/>
</g>
<!-- n_2 -->
<g id="node9" class="node">
<title>n_2</title>
<polygon fill="none" stroke="black" points="242.5,-166.38 242.5,-191.62 307.5,-191.62 307.5,-166.38 242.5,-166.38"/>
<text text-anchor="start" x="249.5" y="-177.07" font-family="Times New Roman,serif" font-weight="bold" font-size="9.00">Overweight I</text>
<polygon fill="none" stroke="black" points="241.5,-165.38 241.5,-192.62 308.5,-192.62 308.5,-165.38 241.5,-165.38"/>
</g>
<!-- n_1_2_4_6&#45;&gt;n_2 -->
<g id="edge8" class="edge">
<title>n_1_2_4_6&#45;&gt;n_2</title>
<path fill="none" stroke="black" d="M263.46,-243.13C265.46,-232.17 267.84,-219.18 269.91,-207.84"/>
<polygon fill="black" stroke="black" points="273.31,-208.73 271.66,-198.26 266.42,-207.47 273.31,-208.73"/>
</g>
<!-- n_4_6 -->
<g id="node5" class="node">
<title>n_4_6</title>
<polygon fill="none" stroke="black" points="31,-84.38 31,-109.62 81,-109.62 81,-84.38 31,-84.38"/>
<text text-anchor="start" x="38" y="-95.08" font-family="Times New Roman,serif" font-weight="bold" font-size="9.00">Obesity I</text>
<polygon fill="none" stroke="black" points="81,-84.38 81,-109.62 137,-109.62 137,-84.38 81,-84.38"/>
<text text-anchor="start" x="88" y="-95.08" font-family="Times New Roman,serif" font-weight="bold" font-size="9.00">Obesity III</text>
<polygon fill="none" stroke="black" points="30,-83.38 30,-110.62 138,-110.62 138,-83.38 30,-83.38"/>
</g>
<!-- n_1_4_6&#45;&gt;n_4_6 -->
<g id="edge4" class="edge">
<title>n_1_4_6&#45;&gt;n_4_6</title>
<path fill="none" stroke="black" d="M129.92,-158.22C121.98,-147.81 112.15,-134.92 103.63,-123.74"/>
<polygon fill="black" stroke="black" points="106.61,-121.88 97.76,-116.05 101.04,-126.12 106.61,-121.88"/>
</g>
<!-- n_1 -->
<g id="node8" class="node">
<title>n_1</title>
<polygon fill="none" stroke="black" points="184,-84.38 184,-109.62 228,-109.62 228,-84.38 184,-84.38"/>
<text text-anchor="start" x="191" y="-95.08" font-family="Times New Roman,serif" font-weight="bold" font-size="9.00">Normal</text>
<polygon fill="none" stroke="black" points="183,-83.38 183,-110.62 229,-110.62 229,-83.38 183,-83.38"/>
</g>
<!-- n_1_4_6&#45;&gt;n_1 -->
<g id="edge7" class="edge">
<title>n_1_4_6&#45;&gt;n_1</title>
<path fill="none" stroke="black" d="M160.08,-158.22C168.02,-147.81 177.85,-134.92 186.37,-123.74"/>
<polygon fill="black" stroke="black" points="188.96,-126.12 192.24,-116.05 183.39,-121.88 188.96,-126.12"/>
</g>
<!-- n_4 -->
<g id="node6" class="node">
<title>n_4</title>
<polygon fill="none" stroke="black" points="9,-5.38 9,-30.62 59,-30.62 59,-5.38 9,-5.38"/>
<text text-anchor="start" x="16" y="-16.07" font-family="Times New Roman,serif" font-weight="bold" font-size="9.00">Obesity I</text>
<polygon fill="none" stroke="black" points="8,-4.38 8,-31.62 60,-31.62 60,-4.38 8,-4.38"/>
</g>
<!-- n_4_6&#45;&gt;n_4 -->
<g id="edge5" class="edge">
<title>n_4_6&#45;&gt;n_4</title>
<path fill="none" stroke="black" d="M73.15,-79.29C66.71,-69.37 58.4,-56.57 51.09,-45.32"/>
<polygon fill="black" stroke="black" points="54.21,-43.69 45.83,-37.21 48.34,-47.5 54.21,-43.69"/>
</g>
<!-- n_6 -->
<g id="node7" class="node">
<title>n_6</title>
<polygon fill="none" stroke="black" points="106,-5.38 106,-30.62 162,-30.62 162,-5.38 106,-5.38"/>
<text text-anchor="start" x="113" y="-16.07" font-family="Times New Roman,serif" font-weight="bold" font-size="9.00">Obesity III</text>
<polygon fill="none" stroke="black" points="105,-4.38 105,-31.62 163,-31.62 163,-4.38 105,-4.38"/>
</g>
<!-- n_4_6&#45;&gt;n_6 -->
<g id="edge6" class="edge">
<title>n_4_6&#45;&gt;n_6</title>
<path fill="none" stroke="black" d="M94.85,-79.29C101.29,-69.37 109.6,-56.57 116.91,-45.32"/>
<polygon fill="black" stroke="black" points="119.66,-47.5 122.17,-37.21 113.79,-43.69 119.66,-47.5"/>
</g>
<!-- n_0 -->
<g id="node11" class="node">
<title>n_0</title>
<polygon fill="none" stroke="black" points="385.88,-166.38 385.88,-191.62 474.12,-191.62 474.12,-166.38 385.88,-166.38"/>
<text text-anchor="start" x="392.88" y="-177.07" font-family="Times New Roman,serif" font-weight="bold" font-size="9.00">Insufficient weight</text>
<polygon fill="none" stroke="black" points="384.88,-165.38 384.88,-192.62 475.12,-192.62 475.12,-165.38 384.88,-165.38"/>
</g>
<!-- n_0_3&#45;&gt;n_0 -->
<g id="edge10" class="edge">
<title>n_0_3&#45;&gt;n_0</title>
<path fill="none" stroke="black" d="M442.11,-250.63C440.03,-238.52 437.19,-221.94 434.78,-207.88"/>
<polygon fill="black" stroke="black" points="438.28,-207.58 433.14,-198.31 431.38,-208.76 438.28,-207.58"/>
</g>
<!-- n_3 -->
<g id="node12" class="node">
<title>n_3</title>
<polygon fill="none" stroke="black" points="521,-166.38 521,-191.62 589,-191.62 589,-166.38 521,-166.38"/>
<text text-anchor="start" x="528" y="-177.07" font-family="Times New Roman,serif" font-weight="bold" font-size="9.00">Overweight II</text>
<polygon fill="none" stroke="black" points="520,-165.38 520,-192.62 590,-192.62 590,-165.38 520,-165.38"/>
</g>
<!-- n_0_3&#45;&gt;n_3 -->
<g id="edge11" class="edge">
<title>n_0_3&#45;&gt;n_3</title>
<path fill="none" stroke="black" d="M466.21,-250.63C482.87,-237.37 506.29,-218.75 524.9,-203.95"/>
<polygon fill="black" stroke="black" points="527.02,-206.73 532.67,-197.76 522.67,-201.25 527.02,-206.73"/>
</g>
</g>
</svg>
