<?xml version="1.0" encoding="UTF-8" standalone="no"?>
<!DOCTYPE svg PUBLIC "-//W3C//DTD SVG 1.1//EN"
 "http://www.w3.org/Graphics/SVG/1.1/DTD/svg11.dtd">
<!-- Generated by graphviz version 10.0.1 (20240210.2158)
 -->
<!-- Title: ND Pages: 1 -->
<svg width="623pt" height="432pt"
 viewBox="0.00 0.00 623.12 432.00" xmlns="http://www.w3.org/2000/svg" xmlns:xlink="http://www.w3.org/1999/xlink">
<g id="graph0" class="graph" transform="scale(1 1) rotate(0) translate(4 428)">
<title>ND</title>
<polygon fill="white" stroke="none" points="-4,4 -4,-428 619.12,-428 619.12,4 -4,4"/>
<!-- n_0_1_2_3_4_5_6 -->
<g id="node1" class="node">
<title>n_0_1_2_3_4_5_6</title>
<polygon fill="none" stroke="black" points="393.5,-351 393.5,-419 481.75,-419 481.75,-351 393.5,-351"/>
<text text-anchor="start" x="400.5" y="-404.45" font-family="Times New Roman,serif" font-weight="bold" font-size="9.00">Insufficient weight</text>
<text text-anchor="start" x="422.62" y="-395.45" font-family="Times New Roman,serif" font-weight="bold" font-size="9.00">Normal</text>
<text text-anchor="start" x="410.62" y="-386.45" font-family="Times New Roman,serif" font-weight="bold" font-size="9.00">Overweight II</text>
<text text-anchor="start" x="419.62" y="-377.45" font-family="Times New Roman,serif" font-weight="bold" font-size="9.00">Obesity I</text>
<text text-anchor="start" x="418.12" y="-368.45" font-family="Times New Roman,serif" font-weight="bold" font-size="9.00">Obesity II</text>
<text text-anchor="start" x="416.62" y="-359.45" font-family="Times New Roman,serif" font-weight="bold" font-size="9.00">Obesity III</text>
<polygon fill="none" stroke="black" points="481.75,-351 481.75,-419 546.75,-419 546.75,-351 481.75,-351"/>
<text text-anchor="start" x="488.75" y="-383.07" font-family="Times New Roman,serif" font-weight="bold" font-size="9.00">Overweight I</text>
<polygon fill="none" stroke="black" points="392.5,-350 392.5,-420 547.75,-420 547.75,-350 392.5,-350"/>
</g>
<!-- n_0_1_3_4_5_6 -->
<g id="node2" class="node">
<title>n_0_1_3_4_5_6</title>
<polygon fill="none" stroke="black" points="313,-248 313,-298 401.25,-298 401.25,-248 313,-248"/>
<text text-anchor="start" x="320" y="-283.45" font-family="Times New Roman,serif" font-weight="bold" font-size="9.00">Insufficient weight</text>
<text text-anchor="start" x="342.12" y="-274.45" font-family="Times New Roman,serif" font-weight="bold" font-size="9.00">Normal</text>
<text text-anchor="start" x="339.12" y="-265.45" font-family="Times New Roman,serif" font-weight="bold" font-size="9.00">Obesity I</text>
<text text-anchor="start" x="337.62" y="-256.45" font-family="Times New Roman,serif" font-weight="bold" font-size="9.00">Obesity II</text>
<polygon fill="none" stroke="black" points="401.25,-248 401.25,-298 469.25,-298 469.25,-248 401.25,-248"/>
<text text-anchor="start" x="408.25" y="-274.45" font-family="Times New Roman,serif" font-weight="bold" font-size="9.00">Overweight II</text>
<text text-anchor="start" x="414.25" y="-265.45" font-family="Times New Roman,serif" font-weight="bold" font-size="9.00">Obesity III</text>
<polygon fill="none" stroke="black" points="312,-247 312,-299 470.25,-299 470.25,-247 312,-247"/>
</g>
<!-- n_0_1_2_3_4_5_6&#45;&gt;n_0_1_3_4_5_6 -->
<g id="edge1" class="edge">
<title>n_0_1_2_3_4_5_6&#45;&gt;n_0_1_3_4_5_6</title>
<path fill="none" stroke="black" d="M442.94,-346.14C435.07,-335.19 426.47,-323.22 418.58,-312.23"/>
<polygon fill="black" stroke="black" points="421.43,-310.2 412.75,-304.12 415.75,-314.28 421.43,-310.2"/>
</g>
<!-- n_2 -->
<g id="node13" class="node">
<title>n_2</title>
<polygon fill="none" stroke="black" points="516.62,-260.38 516.62,-285.62 581.62,-285.62 581.62,-260.38 516.62,-260.38"/>
<text text-anchor="start" x="523.62" y="-271.07" font-family="Times New Roman,serif" font-weight="bold" font-size="9.00">Overweight I</text>
<polygon fill="none" stroke="black" points="515.62,-259.38 515.62,-286.62 582.62,-286.62 582.62,-259.38 515.62,-259.38"/>
</g>
<!-- n_0_1_2_3_4_5_6&#45;&gt;n_2 -->
<g id="edge12" class="edge">
<title>n_0_1_2_3_4_5_6&#45;&gt;n_2</title>
<path fill="none" stroke="black" d="M497.31,-346.14C508.16,-331.04 520.38,-314.02 530.23,-300.31"/>
<polygon fill="black" stroke="black" points="533.06,-302.38 536.05,-292.21 527.37,-298.29 533.06,-302.38"/>
</g>
<!-- n_0_1_4_5 -->
<g id="node3" class="node">
<title>n_0_1_4_5</title>
<polygon fill="none" stroke="black" points="230.5,-163 230.5,-195 318.75,-195 318.75,-163 230.5,-163"/>
<text text-anchor="start" x="237.5" y="-180.45" font-family="Times New Roman,serif" font-weight="bold" font-size="9.00">Insufficient weight</text>
<text text-anchor="start" x="259.62" y="-171.45" font-family="Times New Roman,serif" font-weight="bold" font-size="9.00">Normal</text>
<polygon fill="none" stroke="black" points="318.75,-163 318.75,-195 371.75,-195 371.75,-163 318.75,-163"/>
<text text-anchor="start" x="327.25" y="-180.45" font-family="Times New Roman,serif" font-weight="bold" font-size="9.00">Obesity I</text>
<text text-anchor="start" x="325.75" y="-171.45" font-family="Times New Roman,serif" font-weight="bold" font-size="9.00">Obesity II</text>
<polygon fill="none" stroke="black" points="229.5,-162 229.5,-196 372.75,-196 372.75,-162 229.5,-162"/>
</g>
<!-- n_0_1_3_4_5_6&#45;&gt;n_0_1_4_5 -->
<g id="edge2" class="edge">
<title>n_0_1_3_4_5_6&#45;&gt;n_0_1_4_5</title>
<path fill="none" stroke="black" d="M362.9,-243.14C351.89,-231.89 339.31,-219.04 328.4,-207.88"/>
<polygon fill="black" stroke="black" points="330.98,-205.51 321.49,-200.81 325.98,-210.41 330.98,-205.51"/>
</g>
<!-- n_3_6 -->
<g id="node10" class="node">
<title>n_3_6</title>
<polygon fill="none" stroke="black" points="419.12,-166.38 419.12,-191.62 487.12,-191.62 487.12,-166.38 419.12,-166.38"/>
<text text-anchor="start" x="426.12" y="-177.07" font-family="Times New Roman,serif" font-weight="bold" font-size="9.00">Overweight II</text>
<polygon fill="none" stroke="black" points="487.12,-166.38 487.12,-191.62 543.12,-191.62 543.12,-166.38 487.12,-166.38"/>
<text text-anchor="start" x="494.12" y="-177.07" font-family="Times New Roman,serif" font-weight="bold" font-size="9.00">Obesity III</text>
<polygon fill="none" stroke="black" points="418.12,-165.38 418.12,-192.62 544.12,-192.62 544.12,-165.38 418.12,-165.38"/>
</g>
<!-- n_0_1_3_4_5_6&#45;&gt;n_3_6 -->
<g id="edge9" class="edge">
<title>n_0_1_3_4_5_6&#45;&gt;n_3_6</title>
<path fill="none" stroke="black" d="M419.35,-243.14C431.3,-230.93 445.09,-216.84 456.6,-205.07"/>
<polygon fill="black" stroke="black" points="458.98,-207.65 463.47,-198.05 453.97,-202.75 458.98,-207.65"/>
</g>
<!-- n_0_1 -->
<g id="node4" class="node">
<title>n_0_1</title>
<polygon fill="none" stroke="black" points="82,-84.38 82,-109.62 170.25,-109.62 170.25,-84.38 82,-84.38"/>
<text text-anchor="start" x="89" y="-95.08" font-family="Times New Roman,serif" font-weight="bold" font-size="9.00">Insufficient weight</text>
<polygon fill="none" stroke="black" points="170.25,-84.38 170.25,-109.62 214.25,-109.62 214.25,-84.38 170.25,-84.38"/>
<text text-anchor="start" x="177.25" y="-95.08" font-family="Times New Roman,serif" font-weight="bold" font-size="9.00">Normal</text>
<polygon fill="none" stroke="black" points="81,-83.38 81,-110.62 215.25,-110.62 215.25,-83.38 81,-83.38"/>
</g>
<!-- n_0_1_4_5&#45;&gt;n_0_1 -->
<g id="edge3" class="edge">
<title>n_0_1_4_5&#45;&gt;n_0_1</title>
<path fill="none" stroke="black" d="M262.91,-158.02C240.88,-146.5 213.15,-132 190.46,-120.13"/>
<polygon fill="black" stroke="black" points="192.25,-117.12 181.77,-115.59 189.01,-123.33 192.25,-117.12"/>
</g>
<!-- n_4_5 -->
<g id="node7" class="node">
<title>n_4_5</title>
<polygon fill="none" stroke="black" points="261.62,-84.38 261.62,-109.62 311.62,-109.62 311.62,-84.38 261.62,-84.38"/>
<text text-anchor="start" x="268.62" y="-95.08" font-family="Times New Roman,serif" font-weight="bold" font-size="9.00">Obesity I</text>
<polygon fill="none" stroke="black" points="311.62,-84.38 311.62,-109.62 364.62,-109.62 364.62,-84.38 311.62,-84.38"/>
<text text-anchor="start" x="318.62" y="-95.08" font-family="Times New Roman,serif" font-weight="bold" font-size="9.00">Obesity II</text>
<polygon fill="none" stroke="black" points="260.62,-83.38 260.62,-110.62 365.62,-110.62 365.62,-83.38 260.62,-83.38"/>
</g>
<!-- n_0_1_4_5&#45;&gt;n_4_5 -->
<g id="edge6" class="edge">
<title>n_0_1_4_5&#45;&gt;n_4_5</title>
<path fill="none" stroke="black" d="M304.09,-158.22C305.54,-148.54 307.32,-136.72 308.91,-126.11"/>
<polygon fill="black" stroke="black" points="312.35,-126.75 310.37,-116.34 305.43,-125.71 312.35,-126.75"/>
</g>
<!-- n_0 -->
<g id="node5" class="node">
<title>n_0</title>
<polygon fill="none" stroke="black" points="9,-5.38 9,-30.62 97.25,-30.62 97.25,-5.38 9,-5.38"/>
<text text-anchor="start" x="16" y="-16.07" font-family="Times New Roman,serif" font-weight="bold" font-size="9.00">Insufficient weight</text>
<polygon fill="none" stroke="black" points="8,-4.38 8,-31.62 98.25,-31.62 98.25,-4.38 8,-4.38"/>
</g>
<!-- n_0_1&#45;&gt;n_0 -->
<g id="edge4" class="edge">
<title>n_0_1&#45;&gt;n_0</title>
<path fill="none" stroke="black" d="M127.51,-79.29C114.41,-68.67 97.23,-54.75 82.68,-42.96"/>
<polygon fill="black" stroke="black" points="85.17,-40.47 75.2,-36.89 80.77,-45.91 85.17,-40.47"/>
</g>
<!-- n_1 -->
<g id="node6" class="node">
<title>n_1</title>
<polygon fill="none" stroke="black" points="144.12,-5.38 144.12,-30.62 188.12,-30.62 188.12,-5.38 144.12,-5.38"/>
<text text-anchor="start" x="151.12" y="-16.07" font-family="Times New Roman,serif" font-weight="bold" font-size="9.00">Normal</text>
<polygon fill="none" stroke="black" points="143.12,-4.38 143.12,-31.62 189.12,-31.62 189.12,-4.38 143.12,-4.38"/>
</g>
<!-- n_0_1&#45;&gt;n_1 -->
<g id="edge5" class="edge">
<title>n_0_1&#45;&gt;n_1</title>
<path fill="none" stroke="black" d="M152.03,-79.29C154.23,-69.87 157.04,-57.86 159.57,-47.04"/>
<polygon fill="black" stroke="black" points="162.95,-47.95 161.82,-37.41 156.14,-46.36 162.95,-47.95"/>
</g>
<!-- n_4 -->
<g id="node8" class="node">
<title>n_4</title>
<polygon fill="none" stroke="black" points="270.12,-5.38 270.12,-30.62 320.12,-30.62 320.12,-5.38 270.12,-5.38"/>
<text text-anchor="start" x="277.12" y="-16.07" font-family="Times New Roman,serif" font-weight="bold" font-size="9.00">Obesity I</text>
<polygon fill="none" stroke="black" points="269.12,-4.38 269.12,-31.62 321.12,-31.62 321.12,-4.38 269.12,-4.38"/>
</g>
<!-- n_4_5&#45;&gt;n_4 -->
<g id="edge7" class="edge">
<title>n_4_5&#45;&gt;n_4</title>
<path fill="none" stroke="black" d="M309.22,-79.29C307.02,-69.87 304.21,-57.86 301.68,-47.04"/>
<polygon fill="black" stroke="black" points="305.11,-46.36 299.43,-37.41 298.3,-47.95 305.11,-46.36"/>
</g>
<!-- n_5 -->
<g id="node9" class="node">
<title>n_5</title>
<polygon fill="none" stroke="black" points="367.62,-5.38 367.62,-30.62 420.62,-30.62 420.62,-5.38 367.62,-5.38"/>
<text text-anchor="start" x="374.62" y="-16.07" font-family="Times New Roman,serif" font-weight="bold" font-size="9.00">Obesity II</text>
<polygon fill="none" stroke="black" points="366.62,-4.38 366.62,-31.62 421.62,-31.62 421.62,-4.38 366.62,-4.38"/>
</g>
<!-- n_4_5&#45;&gt;n_5 -->
<g id="edge8" class="edge">
<title>n_4_5&#45;&gt;n_5</title>
<path fill="none" stroke="black" d="M330.7,-79.29C341.66,-68.87 355.97,-55.27 368.22,-43.63"/>
<polygon fill="black" stroke="black" points="370.37,-46.41 375.21,-36.98 365.55,-41.34 370.37,-46.41"/>
</g>
<!-- n_3 -->
<g id="node11" class="node">
<title>n_3</title>
<polygon fill="none" stroke="black" points="435.12,-84.38 435.12,-109.62 503.12,-109.62 503.12,-84.38 435.12,-84.38"/>
<text text-anchor="start" x="442.12" y="-95.08" font-family="Times New Roman,serif" font-weight="bold" font-size="9.00">Overweight II</text>
<polygon fill="none" stroke="black" points="434.12,-83.38 434.12,-110.62 504.12,-110.62 504.12,-83.38 434.12,-83.38"/>
</g>
<!-- n_3_6&#45;&gt;n_3 -->
<g id="edge10" class="edge">
<title>n_3_6&#45;&gt;n_3</title>
<path fill="none" stroke="black" d="M478.58,-161.03C477.07,-150.96 475.11,-137.92 473.37,-126.32"/>
<polygon fill="black" stroke="black" points="476.84,-125.81 471.89,-116.44 469.91,-126.85 476.84,-125.81"/>
</g>
<!-- n_6 -->
<g id="node12" class="node">
<title>n_6</title>
<polygon fill="none" stroke="black" points="550.12,-84.38 550.12,-109.62 606.12,-109.62 606.12,-84.38 550.12,-84.38"/>
<text text-anchor="start" x="557.12" y="-95.08" font-family="Times New Roman,serif" font-weight="bold" font-size="9.00">Obesity III</text>
<polygon fill="none" stroke="black" points="549.12,-83.38 549.12,-110.62 607.12,-110.62 607.12,-83.38 549.12,-83.38"/>
</g>
<!-- n_3_6&#45;&gt;n_6 -->
<g id="edge11" class="edge">
<title>n_3_6&#45;&gt;n_6</title>
<path fill="none" stroke="black" d="M501.7,-161.03C515.46,-149.69 533.77,-134.58 549.02,-122.01"/>
<polygon fill="black" stroke="black" points="550.93,-124.97 556.42,-115.9 546.47,-119.57 550.93,-124.97"/>
</g>
</g>
</svg>
