<?xml version="1.0" encoding="UTF-8" standalone="no"?>
<!DOCTYPE svg PUBLIC "-//W3C//DTD SVG 1.1//EN"
 "http://www.w3.org/Graphics/SVG/1.1/DTD/svg11.dtd">
<!-- Generated by graphviz version 10.0.1 (20240210.2158)
 -->
<!-- Title: ND Pages: 1 -->
<svg width="602pt" height="638pt"
 viewBox="0.00 0.00 602.12 638.00" xmlns="http://www.w3.org/2000/svg" xmlns:xlink="http://www.w3.org/1999/xlink">
<g id="graph0" class="graph" transform="scale(1 1) rotate(0) translate(4 634)">
<title>ND</title>
<polygon fill="white" stroke="none" points="-4,4 -4,-634 598.12,-634 598.12,4 -4,4"/>
<!-- n_0_1_2_3_4_5_6 -->
<g id="node1" class="node">
<title>n_0_1_2_3_4_5_6</title>
<polygon fill="none" stroke="black" points="409,-557 409,-625 497.25,-625 497.25,-557 409,-557"/>
<text text-anchor="start" x="416" y="-610.45" font-family="Times New Roman,serif" font-weight="bold" font-size="9.00">Insufficient weight</text>
<text text-anchor="start" x="438.12" y="-601.45" font-family="Times New Roman,serif" font-weight="bold" font-size="9.00">Normal</text>
<text text-anchor="start" x="427.62" y="-592.45" font-family="Times New Roman,serif" font-weight="bold" font-size="9.00">Overweight I</text>
<text text-anchor="start" x="426.12" y="-583.45" font-family="Times New Roman,serif" font-weight="bold" font-size="9.00">Overweight II</text>
<text text-anchor="start" x="435.12" y="-574.45" font-family="Times New Roman,serif" font-weight="bold" font-size="9.00">Obesity I</text>
<text text-anchor="start" x="433.62" y="-565.45" font-family="Times New Roman,serif" font-weight="bold" font-size="9.00">Obesity II</text>
<polygon fill="none" stroke="black" points="497.25,-557 497.25,-625 553.25,-625 553.25,-557 497.25,-557"/>
<text text-anchor="start" x="504.25" y="-589.08" font-family="Times New Roman,serif" font-weight="bold" font-size="9.00">Obesity III</text>
<polygon fill="none" stroke="black" points="408,-556 408,-626 554.25,-626 554.25,-556 408,-556"/>
</g>
<!-- n_0_1_2_3_4_5 -->
<g id="node2" class="node">
<title>n_0_1_2_3_4_5</title>
<polygon fill="none" stroke="black" points="328.5,-445 328.5,-504 416.75,-504 416.75,-445 328.5,-445"/>
<text text-anchor="start" x="335.5" y="-489.45" font-family="Times New Roman,serif" font-weight="bold" font-size="9.00">Insufficient weight</text>
<text text-anchor="start" x="357.62" y="-480.45" font-family="Times New Roman,serif" font-weight="bold" font-size="9.00">Normal</text>
<text text-anchor="start" x="345.62" y="-471.45" font-family="Times New Roman,serif" font-weight="bold" font-size="9.00">Overweight II</text>
<text text-anchor="start" x="354.62" y="-462.45" font-family="Times New Roman,serif" font-weight="bold" font-size="9.00">Obesity I</text>
<text text-anchor="start" x="353.12" y="-453.45" font-family="Times New Roman,serif" font-weight="bold" font-size="9.00">Obesity II</text>
<polygon fill="none" stroke="black" points="416.75,-445 416.75,-504 481.75,-504 481.75,-445 416.75,-445"/>
<text text-anchor="start" x="423.75" y="-472.57" font-family="Times New Roman,serif" font-weight="bold" font-size="9.00">Overweight I</text>
<polygon fill="none" stroke="black" points="327.5,-444 327.5,-505 482.75,-505 482.75,-444 327.5,-444"/>
</g>
<!-- n_0_1_2_3_4_5_6&#45;&gt;n_0_1_2_3_4_5 -->
<g id="edge1" class="edge">
<title>n_0_1_2_3_4_5_6&#45;&gt;n_0_1_2_3_4_5</title>
<path fill="none" stroke="black" d="M456.03,-552.19C448.81,-541.31 440.88,-529.36 433.47,-518.21"/>
<polygon fill="black" stroke="black" points="436.41,-516.31 427.97,-509.91 430.58,-520.18 436.41,-516.31"/>
</g>
<!-- n_6 -->
<g id="node13" class="node">
<title>n_6</title>
<polygon fill="none" stroke="black" points="529.12,-461.88 529.12,-487.12 585.12,-487.12 585.12,-461.88 529.12,-461.88"/>
<text text-anchor="start" x="536.12" y="-472.57" font-family="Times New Roman,serif" font-weight="bold" font-size="9.00">Obesity III</text>
<polygon fill="none" stroke="black" points="528.12,-460.88 528.12,-488.12 586.12,-488.12 586.12,-460.88 528.12,-460.88"/>
</g>
<!-- n_0_1_2_3_4_5_6&#45;&gt;n_6 -->
<g id="edge12" class="edge">
<title>n_0_1_2_3_4_5_6&#45;&gt;n_6</title>
<path fill="none" stroke="black" d="M506.22,-552.19C517.22,-535.63 529.85,-516.6 539.78,-501.64"/>
<polygon fill="black" stroke="black" points="542.41,-503.99 545.03,-493.72 536.58,-500.12 542.41,-503.99"/>
</g>
<!-- n_0_1_3_4_5 -->
<g id="node3" class="node">
<title>n_0_1_3_4_5</title>
<polygon fill="none" stroke="black" points="266,-342 266,-392 354.25,-392 354.25,-342 266,-342"/>
<text text-anchor="start" x="273" y="-377.45" font-family="Times New Roman,serif" font-weight="bold" font-size="9.00">Insufficient weight</text>
<text text-anchor="start" x="283.12" y="-368.45" font-family="Times New Roman,serif" font-weight="bold" font-size="9.00">Overweight II</text>
<text text-anchor="start" x="292.12" y="-359.45" font-family="Times New Roman,serif" font-weight="bold" font-size="9.00">Obesity I</text>
<text text-anchor="start" x="290.62" y="-350.45" font-family="Times New Roman,serif" font-weight="bold" font-size="9.00">Obesity II</text>
<polygon fill="none" stroke="black" points="354.25,-342 354.25,-392 398.25,-392 398.25,-342 354.25,-342"/>
<text text-anchor="start" x="361.25" y="-365.07" font-family="Times New Roman,serif" font-weight="bold" font-size="9.00">Normal</text>
<polygon fill="none" stroke="black" points="265,-341 265,-393 399.25,-393 399.25,-341 265,-341"/>
</g>
<!-- n_0_1_2_3_4_5&#45;&gt;n_0_1_3_4_5 -->
<g id="edge2" class="edge">
<title>n_0_1_2_3_4_5&#45;&gt;n_0_1_3_4_5</title>
<path fill="none" stroke="black" d="M382.03,-440.12C374.6,-429.38 366.31,-417.4 358.65,-406.33"/>
<polygon fill="black" stroke="black" points="361.55,-404.37 352.98,-398.14 355.79,-408.36 361.55,-404.37"/>
</g>
<!-- n_2 -->
<g id="node12" class="node">
<title>n_2</title>
<polygon fill="none" stroke="black" points="445.62,-354.38 445.62,-379.62 510.62,-379.62 510.62,-354.38 445.62,-354.38"/>
<text text-anchor="start" x="452.62" y="-365.07" font-family="Times New Roman,serif" font-weight="bold" font-size="9.00">Overweight I</text>
<polygon fill="none" stroke="black" points="444.62,-353.38 444.62,-380.62 511.62,-380.62 511.62,-353.38 444.62,-353.38"/>
</g>
<!-- n_0_1_2_3_4_5&#45;&gt;n_2 -->
<g id="edge11" class="edge">
<title>n_0_1_2_3_4_5&#45;&gt;n_2</title>
<path fill="none" stroke="black" d="M428.22,-440.12C438.44,-425.35 450.29,-408.23 459.87,-394.38"/>
<polygon fill="black" stroke="black" points="462.72,-396.41 465.54,-386.2 456.97,-392.43 462.72,-396.41"/>
</g>
<!-- n_0_3_4_5 -->
<g id="node4" class="node">
<title>n_0_3_4_5</title>
<polygon fill="none" stroke="black" points="191.5,-248 191.5,-289 279.75,-289 279.75,-248 191.5,-248"/>
<text text-anchor="start" x="198.5" y="-274.45" font-family="Times New Roman,serif" font-weight="bold" font-size="9.00">Insufficient weight</text>
<text text-anchor="start" x="208.62" y="-265.45" font-family="Times New Roman,serif" font-weight="bold" font-size="9.00">Overweight II</text>
<text text-anchor="start" x="217.62" y="-256.45" font-family="Times New Roman,serif" font-weight="bold" font-size="9.00">Obesity I</text>
<polygon fill="none" stroke="black" points="279.75,-248 279.75,-289 332.75,-289 332.75,-248 279.75,-248"/>
<text text-anchor="start" x="286.75" y="-266.57" font-family="Times New Roman,serif" font-weight="bold" font-size="9.00">Obesity II</text>
<polygon fill="none" stroke="black" points="190.5,-247 190.5,-290 333.75,-290 333.75,-247 190.5,-247"/>
</g>
<!-- n_0_1_3_4_5&#45;&gt;n_0_3_4_5 -->
<g id="edge3" class="edge">
<title>n_0_1_3_4_5&#45;&gt;n_0_3_4_5</title>
<path fill="none" stroke="black" d="M311.12,-337.05C303.32,-326.29 294.41,-314 286.34,-302.88"/>
<polygon fill="black" stroke="black" points="289.4,-301.14 280.69,-295.1 283.73,-305.25 289.4,-301.14"/>
</g>
<!-- n_1 -->
<g id="node11" class="node">
<title>n_1</title>
<polygon fill="none" stroke="black" points="380.12,-255.88 380.12,-281.12 424.12,-281.12 424.12,-255.88 380.12,-255.88"/>
<text text-anchor="start" x="387.12" y="-266.57" font-family="Times New Roman,serif" font-weight="bold" font-size="9.00">Normal</text>
<polygon fill="none" stroke="black" points="379.12,-254.88 379.12,-282.12 425.12,-282.12 425.12,-254.88 379.12,-254.88"/>
</g>
<!-- n_0_1_3_4_5&#45;&gt;n_1 -->
<g id="edge10" class="edge">
<title>n_0_1_3_4_5&#45;&gt;n_1</title>
<path fill="none" stroke="black" d="M353.13,-337.05C362.69,-323.86 373.92,-308.38 383.22,-295.56"/>
<polygon fill="black" stroke="black" points="385.96,-297.74 389,-287.59 380.3,-293.63 385.96,-297.74"/>
</g>
<!-- n_0_3_4 -->
<g id="node5" class="node">
<title>n_0_3_4</title>
<polygon fill="none" stroke="black" points="108,-163 108,-195 196.25,-195 196.25,-163 108,-163"/>
<text text-anchor="start" x="115" y="-180.45" font-family="Times New Roman,serif" font-weight="bold" font-size="9.00">Insufficient weight</text>
<text text-anchor="start" x="134.12" y="-171.45" font-family="Times New Roman,serif" font-weight="bold" font-size="9.00">Obesity I</text>
<polygon fill="none" stroke="black" points="196.25,-163 196.25,-195 264.25,-195 264.25,-163 196.25,-163"/>
<text text-anchor="start" x="203.25" y="-177.07" font-family="Times New Roman,serif" font-weight="bold" font-size="9.00">Overweight II</text>
<polygon fill="none" stroke="black" points="107,-162 107,-196 265.25,-196 265.25,-162 107,-162"/>
</g>
<!-- n_0_3_4_5&#45;&gt;n_0_3_4 -->
<g id="edge4" class="edge">
<title>n_0_3_4_5&#45;&gt;n_0_3_4</title>
<path fill="none" stroke="black" d="M240.95,-243.13C231.6,-232.35 220.53,-219.62 210.8,-208.41"/>
<polygon fill="black" stroke="black" points="213.54,-206.22 204.34,-200.97 208.25,-210.81 213.54,-206.22"/>
</g>
<!-- n_5 -->
<g id="node10" class="node">
<title>n_5</title>
<polygon fill="none" stroke="black" points="311.62,-166.38 311.62,-191.62 364.62,-191.62 364.62,-166.38 311.62,-166.38"/>
<text text-anchor="start" x="318.62" y="-177.07" font-family="Times New Roman,serif" font-weight="bold" font-size="9.00">Obesity II</text>
<polygon fill="none" stroke="black" points="310.62,-165.38 310.62,-192.62 365.62,-192.62 365.62,-165.38 310.62,-165.38"/>
</g>
<!-- n_0_3_4_5&#45;&gt;n_5 -->
<g id="edge9" class="edge">
<title>n_0_3_4_5&#45;&gt;n_5</title>
<path fill="none" stroke="black" d="M283.3,-243.13C293.52,-231.36 305.77,-217.25 316.1,-205.36"/>
<polygon fill="black" stroke="black" points="318.65,-207.76 322.57,-197.91 313.37,-203.17 318.65,-207.76"/>
</g>
<!-- n_0_4 -->
<g id="node6" class="node">
<title>n_0_4</title>
<polygon fill="none" stroke="black" points="42,-84.38 42,-109.62 130.25,-109.62 130.25,-84.38 42,-84.38"/>
<text text-anchor="start" x="49" y="-95.08" font-family="Times New Roman,serif" font-weight="bold" font-size="9.00">Insufficient weight</text>
<polygon fill="none" stroke="black" points="130.25,-84.38 130.25,-109.62 180.25,-109.62 180.25,-84.38 130.25,-84.38"/>
<text text-anchor="start" x="137.25" y="-95.08" font-family="Times New Roman,serif" font-weight="bold" font-size="9.00">Obesity I</text>
<polygon fill="none" stroke="black" points="41,-83.38 41,-110.62 181.25,-110.62 181.25,-83.38 41,-83.38"/>
</g>
<!-- n_0_3_4&#45;&gt;n_0_4 -->
<g id="edge5" class="edge">
<title>n_0_3_4&#45;&gt;n_0_4</title>
<path fill="none" stroke="black" d="M167.59,-158.22C157.63,-147.61 145.26,-134.41 134.63,-123.07"/>
<polygon fill="black" stroke="black" points="137.34,-120.85 127.95,-115.95 132.24,-125.64 137.34,-120.85"/>
</g>
<!-- n_3 -->
<g id="node9" class="node">
<title>n_3</title>
<polygon fill="none" stroke="black" points="227.12,-84.38 227.12,-109.62 295.12,-109.62 295.12,-84.38 227.12,-84.38"/>
<text text-anchor="start" x="234.12" y="-95.08" font-family="Times New Roman,serif" font-weight="bold" font-size="9.00">Overweight II</text>
<polygon fill="none" stroke="black" points="226.12,-83.38 226.12,-110.62 296.12,-110.62 296.12,-83.38 226.12,-83.38"/>
</g>
<!-- n_0_3_4&#45;&gt;n_3 -->
<g id="edge8" class="edge">
<title>n_0_3_4&#45;&gt;n_3</title>
<path fill="none" stroke="black" d="M204.66,-158.22C214.62,-147.61 226.99,-134.41 237.62,-123.07"/>
<polygon fill="black" stroke="black" points="240.01,-125.64 244.3,-115.95 234.91,-120.85 240.01,-125.64"/>
</g>
<!-- n_0 -->
<g id="node7" class="node">
<title>n_0</title>
<polygon fill="none" stroke="black" points="9,-5.38 9,-30.62 97.25,-30.62 97.25,-5.38 9,-5.38"/>
<text text-anchor="start" x="16" y="-16.07" font-family="Times New Roman,serif" font-weight="bold" font-size="9.00">Insufficient weight</text>
<polygon fill="none" stroke="black" points="8,-4.38 8,-31.62 98.25,-31.62 98.25,-4.38 8,-4.38"/>
</g>
<!-- n_0_4&#45;&gt;n_0 -->
<g id="edge6" class="edge">
<title>n_0_4&#45;&gt;n_0</title>
<path fill="none" stroke="black" d="M98.54,-79.29C90.99,-69.27 81.23,-56.31 72.69,-44.98"/>
<polygon fill="black" stroke="black" points="75.61,-43.03 66.8,-37.15 70.02,-47.24 75.61,-43.03"/>
</g>
<!-- n_4 -->
<g id="node8" class="node">
<title>n_4</title>
<polygon fill="none" stroke="black" points="144.12,-5.38 144.12,-30.62 194.12,-30.62 194.12,-5.38 144.12,-5.38"/>
<text text-anchor="start" x="151.12" y="-16.07" font-family="Times New Roman,serif" font-weight="bold" font-size="9.00">Obesity I</text>
<polygon fill="none" stroke="black" points="143.12,-4.38 143.12,-31.62 195.12,-31.62 195.12,-4.38 143.12,-4.38"/>
</g>
<!-- n_0_4&#45;&gt;n_4 -->
<g id="edge7" class="edge">
<title>n_0_4&#45;&gt;n_4</title>
<path fill="none" stroke="black" d="M123.71,-79.29C131.26,-69.27 141.02,-56.31 149.56,-44.98"/>
<polygon fill="black" stroke="black" points="152.23,-47.24 155.45,-37.15 146.64,-43.03 152.23,-47.24"/>
</g>
</g>
</svg>
