<?xml version="1.0" encoding="UTF-8" standalone="no"?>
<!DOCTYPE svg PUBLIC "-//W3C//DTD SVG 1.1//EN"
 "http://www.w3.org/Graphics/SVG/1.1/DTD/svg11.dtd">
<!-- Generated by graphviz version 10.0.1 (20240210.2158)
 -->
<!-- Title: ND Pages: 1 -->
<svg width="599pt" height="526pt"
 viewBox="0.00 0.00 598.50 526.00" xmlns="http://www.w3.org/2000/svg" xmlns:xlink="http://www.w3.org/1999/xlink">
<g id="graph0" class="graph" transform="scale(1 1) rotate(0) translate(4 522)">
<title>ND</title>
<polygon fill="white" stroke="none" points="-4,4 -4,-522 594.5,-522 594.5,4 -4,4"/>
<!-- n_0_1_2_3_4_5_6 -->
<g id="node1" class="node">
<title>n_0_1_2_3_4_5_6</title>
<polygon fill="none" stroke="black" points="385.38,-445 385.38,-513 473.62,-513 473.62,-445 385.38,-445"/>
<text text-anchor="start" x="392.38" y="-498.45" font-family="Times New Roman,serif" font-weight="bold" font-size="9.00">Insufficient weight</text>
<text text-anchor="start" x="414.5" y="-489.45" font-family="Times New Roman,serif" font-weight="bold" font-size="9.00">Normal</text>
<text text-anchor="start" x="402.5" y="-480.45" font-family="Times New Roman,serif" font-weight="bold" font-size="9.00">Overweight II</text>
<text text-anchor="start" x="411.5" y="-471.45" font-family="Times New Roman,serif" font-weight="bold" font-size="9.00">Obesity I</text>
<text text-anchor="start" x="410" y="-462.45" font-family="Times New Roman,serif" font-weight="bold" font-size="9.00">Obesity II</text>
<text text-anchor="start" x="408.5" y="-453.45" font-family="Times New Roman,serif" font-weight="bold" font-size="9.00">Obesity III</text>
<polygon fill="none" stroke="black" points="473.62,-445 473.62,-513 538.62,-513 538.62,-445 473.62,-445"/>
<text text-anchor="start" x="480.62" y="-477.07" font-family="Times New Roman,serif" font-weight="bold" font-size="9.00">Overweight I</text>
<polygon fill="none" stroke="black" points="384.38,-444 384.38,-514 539.62,-514 539.62,-444 384.38,-444"/>
</g>
<!-- n_0_1_3_4_5_6 -->
<g id="node2" class="node">
<title>n_0_1_3_4_5_6</title>
<polygon fill="none" stroke="black" points="316.38,-342 316.38,-392 404.62,-392 404.62,-342 316.38,-342"/>
<text text-anchor="start" x="323.38" y="-377.45" font-family="Times New Roman,serif" font-weight="bold" font-size="9.00">Insufficient weight</text>
<text text-anchor="start" x="333.5" y="-368.45" font-family="Times New Roman,serif" font-weight="bold" font-size="9.00">Overweight II</text>
<text text-anchor="start" x="342.5" y="-359.45" font-family="Times New Roman,serif" font-weight="bold" font-size="9.00">Obesity I</text>
<text text-anchor="start" x="339.5" y="-350.45" font-family="Times New Roman,serif" font-weight="bold" font-size="9.00">Obesity III</text>
<polygon fill="none" stroke="black" points="404.62,-342 404.62,-392 457.62,-392 457.62,-342 404.62,-342"/>
<text text-anchor="start" x="416.12" y="-368.45" font-family="Times New Roman,serif" font-weight="bold" font-size="9.00">Normal</text>
<text text-anchor="start" x="411.62" y="-359.45" font-family="Times New Roman,serif" font-weight="bold" font-size="9.00">Obesity II</text>
<polygon fill="none" stroke="black" points="315.38,-341 315.38,-393 458.62,-393 458.62,-341 315.38,-341"/>
</g>
<!-- n_0_1_2_3_4_5_6&#45;&gt;n_0_1_3_4_5_6 -->
<g id="edge1" class="edge">
<title>n_0_1_2_3_4_5_6&#45;&gt;n_0_1_3_4_5_6</title>
<path fill="none" stroke="black" d="M436.19,-440.14C428.72,-429.19 420.56,-417.22 413.07,-406.23"/>
<polygon fill="black" stroke="black" points="416.07,-404.43 407.55,-398.14 410.29,-408.37 416.07,-404.43"/>
</g>
<!-- n_2 -->
<g id="node13" class="node">
<title>n_2</title>
<polygon fill="none" stroke="black" points="504.5,-354.38 504.5,-379.62 569.5,-379.62 569.5,-354.38 504.5,-354.38"/>
<text text-anchor="start" x="511.5" y="-365.07" font-family="Times New Roman,serif" font-weight="bold" font-size="9.00">Overweight I</text>
<polygon fill="none" stroke="black" points="503.5,-353.38 503.5,-380.62 570.5,-380.62 570.5,-353.38 503.5,-353.38"/>
</g>
<!-- n_0_1_2_3_4_5_6&#45;&gt;n_2 -->
<g id="edge12" class="edge">
<title>n_0_1_2_3_4_5_6&#45;&gt;n_2</title>
<path fill="none" stroke="black" d="M487.81,-440.14C498.11,-425.04 509.71,-408.02 519.06,-394.31"/>
<polygon fill="black" stroke="black" points="521.83,-396.47 524.57,-386.23 516.04,-392.52 521.83,-396.47"/>
</g>
<!-- n_0_3_4_6 -->
<g id="node3" class="node">
<title>n_0_3_4_6</title>
<polygon fill="none" stroke="black" points="221.88,-248 221.88,-289 289.88,-289 289.88,-248 221.88,-248"/>
<text text-anchor="start" x="228.88" y="-274.45" font-family="Times New Roman,serif" font-weight="bold" font-size="9.00">Overweight II</text>
<text text-anchor="start" x="237.88" y="-265.45" font-family="Times New Roman,serif" font-weight="bold" font-size="9.00">Obesity I</text>
<text text-anchor="start" x="234.88" y="-256.45" font-family="Times New Roman,serif" font-weight="bold" font-size="9.00">Obesity III</text>
<polygon fill="none" stroke="black" points="289.88,-248 289.88,-289 378.12,-289 378.12,-248 289.88,-248"/>
<text text-anchor="start" x="296.88" y="-266.57" font-family="Times New Roman,serif" font-weight="bold" font-size="9.00">Insufficient weight</text>
<polygon fill="none" stroke="black" points="220.88,-247 220.88,-290 379.12,-290 379.12,-247 220.88,-247"/>
</g>
<!-- n_0_1_3_4_5_6&#45;&gt;n_0_3_4_6 -->
<g id="edge2" class="edge">
<title>n_0_1_3_4_5_6&#45;&gt;n_0_3_4_6</title>
<path fill="none" stroke="black" d="M360.9,-337.05C351.01,-326.08 339.68,-313.51 329.5,-302.22"/>
<polygon fill="black" stroke="black" points="332.28,-300.08 322.99,-295 327.08,-304.77 332.28,-300.08"/>
</g>
<!-- n_1_5 -->
<g id="node10" class="node">
<title>n_1_5</title>
<polygon fill="none" stroke="black" points="425.5,-255.88 425.5,-281.12 469.5,-281.12 469.5,-255.88 425.5,-255.88"/>
<text text-anchor="start" x="432.5" y="-266.57" font-family="Times New Roman,serif" font-weight="bold" font-size="9.00">Normal</text>
<polygon fill="none" stroke="black" points="469.5,-255.88 469.5,-281.12 522.5,-281.12 522.5,-255.88 469.5,-255.88"/>
<text text-anchor="start" x="476.5" y="-266.57" font-family="Times New Roman,serif" font-weight="bold" font-size="9.00">Obesity II</text>
<polygon fill="none" stroke="black" points="424.5,-254.88 424.5,-282.12 523.5,-282.12 523.5,-254.88 424.5,-254.88"/>
</g>
<!-- n_0_1_3_4_5_6&#45;&gt;n_1_5 -->
<g id="edge9" class="edge">
<title>n_0_1_3_4_5_6&#45;&gt;n_1_5</title>
<path fill="none" stroke="black" d="M413.1,-337.05C425.22,-323.6 439.5,-307.77 451.18,-294.81"/>
<polygon fill="black" stroke="black" points="453.68,-297.26 457.78,-287.49 448.49,-292.57 453.68,-297.26"/>
</g>
<!-- n_3_4_6 -->
<g id="node4" class="node">
<title>n_3_4_6</title>
<polygon fill="none" stroke="black" points="101,-163 101,-195 169,-195 169,-163 101,-163"/>
<text text-anchor="start" x="108" y="-180.45" font-family="Times New Roman,serif" font-weight="bold" font-size="9.00">Overweight II</text>
<text text-anchor="start" x="117" y="-171.45" font-family="Times New Roman,serif" font-weight="bold" font-size="9.00">Obesity I</text>
<polygon fill="none" stroke="black" points="169,-163 169,-195 225,-195 225,-163 169,-163"/>
<text text-anchor="start" x="176" y="-177.07" font-family="Times New Roman,serif" font-weight="bold" font-size="9.00">Obesity III</text>
<polygon fill="none" stroke="black" points="100,-162 100,-196 226,-196 226,-162 100,-162"/>
</g>
<!-- n_0_3_4_6&#45;&gt;n_3_4_6 -->
<g id="edge3" class="edge">
<title>n_0_3_4_6&#45;&gt;n_3_4_6</title>
<path fill="none" stroke="black" d="M261.84,-243.13C243.72,-231.55 222.05,-217.71 203.62,-205.94"/>
<polygon fill="black" stroke="black" points="205.63,-203.07 195.32,-200.64 201.86,-208.97 205.63,-203.07"/>
</g>
<!-- n_0 -->
<g id="node9" class="node">
<title>n_0</title>
<polygon fill="none" stroke="black" points="271.88,-166.38 271.88,-191.62 360.12,-191.62 360.12,-166.38 271.88,-166.38"/>
<text text-anchor="start" x="278.88" y="-177.07" font-family="Times New Roman,serif" font-weight="bold" font-size="9.00">Insufficient weight</text>
<polygon fill="none" stroke="black" points="270.88,-165.38 270.88,-192.62 361.12,-192.62 361.12,-165.38 270.88,-165.38"/>
</g>
<!-- n_0_3_4_6&#45;&gt;n_0 -->
<g id="edge8" class="edge">
<title>n_0_3_4_6&#45;&gt;n_0</title>
<path fill="none" stroke="black" d="M304.46,-243.13C306.46,-232.17 308.84,-219.18 310.91,-207.84"/>
<polygon fill="black" stroke="black" points="314.31,-208.73 312.66,-198.26 307.42,-207.47 314.31,-208.73"/>
</g>
<!-- n_3_4 -->
<g id="node5" class="node">
<title>n_3_4</title>
<polygon fill="none" stroke="black" points="37,-84.38 37,-109.62 105,-109.62 105,-84.38 37,-84.38"/>
<text text-anchor="start" x="44" y="-95.08" font-family="Times New Roman,serif" font-weight="bold" font-size="9.00">Overweight II</text>
<polygon fill="none" stroke="black" points="105,-84.38 105,-109.62 155,-109.62 155,-84.38 105,-84.38"/>
<text text-anchor="start" x="112" y="-95.08" font-family="Times New Roman,serif" font-weight="bold" font-size="9.00">Obesity I</text>
<polygon fill="none" stroke="black" points="36,-83.38 36,-110.62 156,-110.62 156,-83.38 36,-83.38"/>
</g>
<!-- n_3_4_6&#45;&gt;n_3_4 -->
<g id="edge4" class="edge">
<title>n_3_4_6&#45;&gt;n_3_4</title>
<path fill="none" stroke="black" d="M146.44,-158.22C137.63,-147.71 126.71,-134.66 117.28,-123.41"/>
<polygon fill="black" stroke="black" points="120.18,-121.42 111.08,-116 114.82,-125.92 120.18,-121.42"/>
</g>
<!-- n_6 -->
<g id="node8" class="node">
<title>n_6</title>
<polygon fill="none" stroke="black" points="202,-84.38 202,-109.62 258,-109.62 258,-84.38 202,-84.38"/>
<text text-anchor="start" x="209" y="-95.08" font-family="Times New Roman,serif" font-weight="bold" font-size="9.00">Obesity III</text>
<polygon fill="none" stroke="black" points="201,-83.38 201,-110.62 259,-110.62 259,-83.38 201,-83.38"/>
</g>
<!-- n_3_4_6&#45;&gt;n_6 -->
<g id="edge7" class="edge">
<title>n_3_4_6&#45;&gt;n_6</title>
<path fill="none" stroke="black" d="M179.56,-158.22C188.37,-147.71 199.29,-134.66 208.72,-123.41"/>
<polygon fill="black" stroke="black" points="211.18,-125.92 214.92,-116 205.82,-121.42 211.18,-125.92"/>
</g>
<!-- n_3 -->
<g id="node6" class="node">
<title>n_3</title>
<polygon fill="none" stroke="black" points="9,-5.38 9,-30.62 77,-30.62 77,-5.38 9,-5.38"/>
<text text-anchor="start" x="16" y="-16.07" font-family="Times New Roman,serif" font-weight="bold" font-size="9.00">Overweight II</text>
<polygon fill="none" stroke="black" points="8,-4.38 8,-31.62 78,-31.62 78,-4.38 8,-4.38"/>
</g>
<!-- n_3_4&#45;&gt;n_3 -->
<g id="edge5" class="edge">
<title>n_3_4&#45;&gt;n_3</title>
<path fill="none" stroke="black" d="M84.5,-79.29C77.67,-69.37 68.86,-56.57 61.12,-45.32"/>
<polygon fill="black" stroke="black" points="64.07,-43.44 55.52,-37.19 58.31,-47.41 64.07,-43.44"/>
</g>
<!-- n_4 -->
<g id="node7" class="node">
<title>n_4</title>
<polygon fill="none" stroke="black" points="124,-5.38 124,-30.62 174,-30.62 174,-5.38 124,-5.38"/>
<text text-anchor="start" x="131" y="-16.07" font-family="Times New Roman,serif" font-weight="bold" font-size="9.00">Obesity I</text>
<polygon fill="none" stroke="black" points="123,-4.38 123,-31.62 175,-31.62 175,-4.38 123,-4.38"/>
</g>
<!-- n_3_4&#45;&gt;n_4 -->
<g id="edge6" class="edge">
<title>n_3_4&#45;&gt;n_4</title>
<path fill="none" stroke="black" d="M107.5,-79.29C114.33,-69.37 123.14,-56.57 130.88,-45.32"/>
<polygon fill="black" stroke="black" points="133.69,-47.41 136.48,-37.19 127.93,-43.44 133.69,-47.41"/>
</g>
<!-- n_1 -->
<g id="node11" class="node">
<title>n_1</title>
<polygon fill="none" stroke="black" points="437,-166.38 437,-191.62 481,-191.62 481,-166.38 437,-166.38"/>
<text text-anchor="start" x="444" y="-177.07" font-family="Times New Roman,serif" font-weight="bold" font-size="9.00">Normal</text>
<polygon fill="none" stroke="black" points="436,-165.38 436,-192.62 482,-192.62 482,-165.38 436,-165.38"/>
</g>
<!-- n_1_5&#45;&gt;n_1 -->
<g id="edge10" class="edge">
<title>n_1_5&#45;&gt;n_1</title>
<path fill="none" stroke="black" d="M471.11,-250.63C469.03,-238.52 466.19,-221.94 463.78,-207.88"/>
<polygon fill="black" stroke="black" points="467.28,-207.58 462.14,-198.31 460.38,-208.76 467.28,-207.58"/>
</g>
<!-- n_5 -->
<g id="node12" class="node">
<title>n_5</title>
<polygon fill="none" stroke="black" points="528.5,-166.38 528.5,-191.62 581.5,-191.62 581.5,-166.38 528.5,-166.38"/>
<text text-anchor="start" x="535.5" y="-177.07" font-family="Times New Roman,serif" font-weight="bold" font-size="9.00">Obesity II</text>
<polygon fill="none" stroke="black" points="527.5,-165.38 527.5,-192.62 582.5,-192.62 582.5,-165.38 527.5,-165.38"/>
</g>
<!-- n_1_5&#45;&gt;n_5 -->
<g id="edge11" class="edge">
<title>n_1_5&#45;&gt;n_5</title>
<path fill="none" stroke="black" d="M489.62,-250.63C501.61,-237.68 518.35,-219.59 531.89,-204.97"/>
<polygon fill="black" stroke="black" points="534.18,-207.65 538.4,-197.93 529.04,-202.89 534.18,-207.65"/>
</g>
</g>
</svg>
