<?xml version="1.0" encoding="UTF-8" standalone="no"?>
<!DOCTYPE svg PUBLIC "-//W3C//DTD SVG 1.1//EN"
 "http://www.w3.org/Graphics/SVG/1.1/DTD/svg11.dtd">
<!-- Generated by graphviz version 10.0.1 (20240210.2158)
 -->
<!-- Title: ND Pages: 1 -->
<svg width="577pt" height="638pt"
 viewBox="0.00 0.00 576.50 638.00" xmlns="http://www.w3.org/2000/svg" xmlns:xlink="http://www.w3.org/1999/xlink">
<g id="graph0" class="graph" transform="scale(1 1) rotate(0) translate(4 634)">
<title>ND</title>
<polygon fill="white" stroke="none" points="-4,4 -4,-634 572.5,-634 572.5,4 -4,4"/>
<!-- n_0_1_2_3_4_5_6 -->
<g id="node1" class="node">
<title>n_0_1_2_3_4_5_6</title>
<polygon fill="none" stroke="black" points="371.38,-557 371.38,-625 459.62,-625 459.62,-557 371.38,-557"/>
<text text-anchor="start" x="378.38" y="-610.45" font-family="Times New Roman,serif" font-weight="bold" font-size="9.00">Insufficient weight</text>
<text text-anchor="start" x="400.5" y="-601.45" font-family="Times New Roman,serif" font-weight="bold" font-size="9.00">Normal</text>
<text text-anchor="start" x="388.5" y="-592.45" font-family="Times New Roman,serif" font-weight="bold" font-size="9.00">Overweight II</text>
<text text-anchor="start" x="397.5" y="-583.45" font-family="Times New Roman,serif" font-weight="bold" font-size="9.00">Obesity I</text>
<text text-anchor="start" x="396" y="-574.45" font-family="Times New Roman,serif" font-weight="bold" font-size="9.00">Obesity II</text>
<text text-anchor="start" x="394.5" y="-565.45" font-family="Times New Roman,serif" font-weight="bold" font-size="9.00">Obesity III</text>
<polygon fill="none" stroke="black" points="459.62,-557 459.62,-625 524.62,-625 524.62,-557 459.62,-557"/>
<text text-anchor="start" x="466.62" y="-589.08" font-family="Times New Roman,serif" font-weight="bold" font-size="9.00">Overweight I</text>
<polygon fill="none" stroke="black" points="370.38,-556 370.38,-626 525.62,-626 525.62,-556 370.38,-556"/>
</g>
<!-- n_0_1_3_4_5_6 -->
<g id="node2" class="node">
<title>n_0_1_3_4_5_6</title>
<polygon fill="none" stroke="black" points="290.88,-445 290.88,-504 358.88,-504 358.88,-445 290.88,-445"/>
<text text-anchor="start" x="309.88" y="-489.45" font-family="Times New Roman,serif" font-weight="bold" font-size="9.00">Normal</text>
<text text-anchor="start" x="297.88" y="-480.45" font-family="Times New Roman,serif" font-weight="bold" font-size="9.00">Overweight II</text>
<text text-anchor="start" x="306.88" y="-471.45" font-family="Times New Roman,serif" font-weight="bold" font-size="9.00">Obesity I</text>
<text text-anchor="start" x="305.38" y="-462.45" font-family="Times New Roman,serif" font-weight="bold" font-size="9.00">Obesity II</text>
<text text-anchor="start" x="303.88" y="-453.45" font-family="Times New Roman,serif" font-weight="bold" font-size="9.00">Obesity III</text>
<polygon fill="none" stroke="black" points="358.88,-445 358.88,-504 447.12,-504 447.12,-445 358.88,-445"/>
<text text-anchor="start" x="365.88" y="-472.57" font-family="Times New Roman,serif" font-weight="bold" font-size="9.00">Insufficient weight</text>
<polygon fill="none" stroke="black" points="289.88,-444 289.88,-505 448.12,-505 448.12,-444 289.88,-444"/>
</g>
<!-- n_0_1_2_3_4_5_6&#45;&gt;n_0_1_3_4_5_6 -->
<g id="edge1" class="edge">
<title>n_0_1_2_3_4_5_6&#45;&gt;n_0_1_3_4_5_6</title>
<path fill="none" stroke="black" d="M421.91,-552.19C414.33,-541.2 406,-529.12 398.23,-517.87"/>
<polygon fill="black" stroke="black" points="401.29,-516.14 392.73,-509.9 395.53,-520.12 401.29,-516.14"/>
</g>
<!-- n_2 -->
<g id="node13" class="node">
<title>n_2</title>
<polygon fill="none" stroke="black" points="494.5,-461.88 494.5,-487.12 559.5,-487.12 559.5,-461.88 494.5,-461.88"/>
<text text-anchor="start" x="501.5" y="-472.57" font-family="Times New Roman,serif" font-weight="bold" font-size="9.00">Overweight I</text>
<polygon fill="none" stroke="black" points="493.5,-460.88 493.5,-488.12 560.5,-488.12 560.5,-460.88 493.5,-460.88"/>
</g>
<!-- n_0_1_2_3_4_5_6&#45;&gt;n_2 -->
<g id="edge12" class="edge">
<title>n_0_1_2_3_4_5_6&#45;&gt;n_2</title>
<path fill="none" stroke="black" d="M474.09,-552.19C485.52,-535.63 498.64,-516.6 508.97,-501.64"/>
<polygon fill="black" stroke="black" points="511.64,-503.93 514.44,-493.71 505.88,-499.95 511.64,-503.93"/>
</g>
<!-- n_1_3_4_5_6 -->
<g id="node3" class="node">
<title>n_1_3_4_5_6</title>
<polygon fill="none" stroke="black" points="232.5,-342 232.5,-392 300.5,-392 300.5,-342 232.5,-342"/>
<text text-anchor="start" x="251.5" y="-377.45" font-family="Times New Roman,serif" font-weight="bold" font-size="9.00">Normal</text>
<text text-anchor="start" x="239.5" y="-368.45" font-family="Times New Roman,serif" font-weight="bold" font-size="9.00">Overweight II</text>
<text text-anchor="start" x="248.5" y="-359.45" font-family="Times New Roman,serif" font-weight="bold" font-size="9.00">Obesity I</text>
<text text-anchor="start" x="245.5" y="-350.45" font-family="Times New Roman,serif" font-weight="bold" font-size="9.00">Obesity III</text>
<polygon fill="none" stroke="black" points="300.5,-342 300.5,-392 353.5,-392 353.5,-342 300.5,-342"/>
<text text-anchor="start" x="307.5" y="-365.07" font-family="Times New Roman,serif" font-weight="bold" font-size="9.00">Obesity II</text>
<polygon fill="none" stroke="black" points="231.5,-341 231.5,-393 354.5,-393 354.5,-341 231.5,-341"/>
</g>
<!-- n_0_1_3_4_5_6&#45;&gt;n_1_3_4_5_6 -->
<g id="edge2" class="edge">
<title>n_0_1_3_4_5_6&#45;&gt;n_1_3_4_5_6</title>
<path fill="none" stroke="black" d="M344.95,-440.12C337.14,-429.27 328.41,-417.16 320.37,-406"/>
<polygon fill="black" stroke="black" points="323.39,-404.19 314.7,-398.13 317.71,-408.29 323.39,-404.19"/>
</g>
<!-- n_0 -->
<g id="node12" class="node">
<title>n_0</title>
<polygon fill="none" stroke="black" points="400.88,-354.38 400.88,-379.62 489.12,-379.62 489.12,-354.38 400.88,-354.38"/>
<text text-anchor="start" x="407.88" y="-365.07" font-family="Times New Roman,serif" font-weight="bold" font-size="9.00">Insufficient weight</text>
<polygon fill="none" stroke="black" points="399.88,-353.38 399.88,-380.62 490.12,-380.62 490.12,-353.38 399.88,-353.38"/>
</g>
<!-- n_0_1_3_4_5_6&#45;&gt;n_0 -->
<g id="edge11" class="edge">
<title>n_0_1_3_4_5_6&#45;&gt;n_0</title>
<path fill="none" stroke="black" d="M393.05,-440.12C403.79,-425.21 416.26,-407.9 426.29,-393.98"/>
<polygon fill="black" stroke="black" points="428.9,-396.34 431.9,-386.18 423.22,-392.25 428.9,-396.34"/>
</g>
<!-- n_1_3_4_6 -->
<g id="node4" class="node">
<title>n_1_3_4_6</title>
<polygon fill="none" stroke="black" points="163,-248 163,-289 231,-289 231,-248 163,-248"/>
<text text-anchor="start" x="182" y="-274.45" font-family="Times New Roman,serif" font-weight="bold" font-size="9.00">Normal</text>
<text text-anchor="start" x="170" y="-265.45" font-family="Times New Roman,serif" font-weight="bold" font-size="9.00">Overweight II</text>
<text text-anchor="start" x="179" y="-256.45" font-family="Times New Roman,serif" font-weight="bold" font-size="9.00">Obesity I</text>
<polygon fill="none" stroke="black" points="231,-248 231,-289 287,-289 287,-248 231,-248"/>
<text text-anchor="start" x="238" y="-266.57" font-family="Times New Roman,serif" font-weight="bold" font-size="9.00">Obesity III</text>
<polygon fill="none" stroke="black" points="162,-247 162,-290 288,-290 288,-247 162,-247"/>
</g>
<!-- n_1_3_4_5_6&#45;&gt;n_1_3_4_6 -->
<g id="edge3" class="edge">
<title>n_1_3_4_5_6&#45;&gt;n_1_3_4_6</title>
<path fill="none" stroke="black" d="M272.6,-337.05C265.09,-326.4 256.53,-314.25 248.76,-303.22"/>
<polygon fill="black" stroke="black" points="251.67,-301.27 243.05,-295.11 245.95,-305.3 251.67,-301.27"/>
</g>
<!-- n_5 -->
<g id="node11" class="node">
<title>n_5</title>
<polygon fill="none" stroke="black" points="334.5,-255.88 334.5,-281.12 387.5,-281.12 387.5,-255.88 334.5,-255.88"/>
<text text-anchor="start" x="341.5" y="-266.57" font-family="Times New Roman,serif" font-weight="bold" font-size="9.00">Obesity II</text>
<polygon fill="none" stroke="black" points="333.5,-254.88 333.5,-282.12 388.5,-282.12 388.5,-254.88 333.5,-254.88"/>
</g>
<!-- n_1_3_4_5_6&#45;&gt;n_5 -->
<g id="edge10" class="edge">
<title>n_1_3_4_5_6&#45;&gt;n_5</title>
<path fill="none" stroke="black" d="M313.4,-337.05C322.69,-323.86 333.6,-308.38 342.63,-295.56"/>
<polygon fill="black" stroke="black" points="345.34,-297.79 348.24,-287.6 339.62,-293.76 345.34,-297.79"/>
</g>
<!-- n_1_3_4 -->
<g id="node5" class="node">
<title>n_1_3_4</title>
<polygon fill="none" stroke="black" points="104,-163 104,-195 172,-195 172,-163 104,-163"/>
<text text-anchor="start" x="111" y="-180.45" font-family="Times New Roman,serif" font-weight="bold" font-size="9.00">Overweight II</text>
<text text-anchor="start" x="120" y="-171.45" font-family="Times New Roman,serif" font-weight="bold" font-size="9.00">Obesity I</text>
<polygon fill="none" stroke="black" points="172,-163 172,-195 216,-195 216,-163 172,-163"/>
<text text-anchor="start" x="179" y="-177.07" font-family="Times New Roman,serif" font-weight="bold" font-size="9.00">Normal</text>
<polygon fill="none" stroke="black" points="103,-162 103,-196 217,-196 217,-162 103,-162"/>
</g>
<!-- n_1_3_4_6&#45;&gt;n_1_3_4 -->
<g id="edge4" class="edge">
<title>n_1_3_4_6&#45;&gt;n_1_3_4</title>
<path fill="none" stroke="black" d="M206.89,-243.13C198.97,-232.46 189.62,-219.87 181.35,-208.75"/>
<polygon fill="black" stroke="black" points="184.4,-206.98 175.63,-201.04 178.78,-211.16 184.4,-206.98"/>
</g>
<!-- n_6 -->
<g id="node10" class="node">
<title>n_6</title>
<polygon fill="none" stroke="black" points="263,-166.38 263,-191.62 319,-191.62 319,-166.38 263,-166.38"/>
<text text-anchor="start" x="270" y="-177.07" font-family="Times New Roman,serif" font-weight="bold" font-size="9.00">Obesity III</text>
<polygon fill="none" stroke="black" points="262,-165.38 262,-192.62 320,-192.62 320,-165.38 262,-165.38"/>
</g>
<!-- n_1_3_4_6&#45;&gt;n_6 -->
<g id="edge9" class="edge">
<title>n_1_3_4_6&#45;&gt;n_6</title>
<path fill="none" stroke="black" d="M243.38,-243.13C252.17,-231.48 262.69,-217.53 271.61,-205.71"/>
<polygon fill="black" stroke="black" points="274.21,-208.07 277.44,-197.98 268.62,-203.85 274.21,-208.07"/>
</g>
<!-- n_3_4 -->
<g id="node6" class="node">
<title>n_3_4</title>
<polygon fill="none" stroke="black" points="37,-84.38 37,-109.62 105,-109.62 105,-84.38 37,-84.38"/>
<text text-anchor="start" x="44" y="-95.08" font-family="Times New Roman,serif" font-weight="bold" font-size="9.00">Overweight II</text>
<polygon fill="none" stroke="black" points="105,-84.38 105,-109.62 155,-109.62 155,-84.38 105,-84.38"/>
<text text-anchor="start" x="112" y="-95.08" font-family="Times New Roman,serif" font-weight="bold" font-size="9.00">Obesity I</text>
<polygon fill="none" stroke="black" points="36,-83.38 36,-110.62 156,-110.62 156,-83.38 36,-83.38"/>
</g>
<!-- n_1_3_4&#45;&gt;n_3_4 -->
<g id="edge5" class="edge">
<title>n_1_3_4&#45;&gt;n_3_4</title>
<path fill="none" stroke="black" d="M144.18,-158.22C135.85,-147.81 125.54,-134.92 116.59,-123.74"/>
<polygon fill="black" stroke="black" points="119.4,-121.65 110.42,-116.03 113.93,-126.02 119.4,-121.65"/>
</g>
<!-- n_1 -->
<g id="node9" class="node">
<title>n_1</title>
<polygon fill="none" stroke="black" points="202,-84.38 202,-109.62 246,-109.62 246,-84.38 202,-84.38"/>
<text text-anchor="start" x="209" y="-95.08" font-family="Times New Roman,serif" font-weight="bold" font-size="9.00">Normal</text>
<polygon fill="none" stroke="black" points="201,-83.38 201,-110.62 247,-110.62 247,-83.38 201,-83.38"/>
</g>
<!-- n_1_3_4&#45;&gt;n_1 -->
<g id="edge8" class="edge">
<title>n_1_3_4&#45;&gt;n_1</title>
<path fill="none" stroke="black" d="M175.82,-158.22C184.15,-147.81 194.46,-134.92 203.41,-123.74"/>
<polygon fill="black" stroke="black" points="206.07,-126.02 209.58,-116.03 200.6,-121.65 206.07,-126.02"/>
</g>
<!-- n_3 -->
<g id="node7" class="node">
<title>n_3</title>
<polygon fill="none" stroke="black" points="9,-5.38 9,-30.62 77,-30.62 77,-5.38 9,-5.38"/>
<text text-anchor="start" x="16" y="-16.07" font-family="Times New Roman,serif" font-weight="bold" font-size="9.00">Overweight II</text>
<polygon fill="none" stroke="black" points="8,-4.38 8,-31.62 78,-31.62 78,-4.38 8,-4.38"/>
</g>
<!-- n_3_4&#45;&gt;n_3 -->
<g id="edge6" class="edge">
<title>n_3_4&#45;&gt;n_3</title>
<path fill="none" stroke="black" d="M84.5,-79.29C77.67,-69.37 68.86,-56.57 61.12,-45.32"/>
<polygon fill="black" stroke="black" points="64.07,-43.44 55.52,-37.19 58.31,-47.41 64.07,-43.44"/>
</g>
<!-- n_4 -->
<g id="node8" class="node">
<title>n_4</title>
<polygon fill="none" stroke="black" points="124,-5.38 124,-30.62 174,-30.62 174,-5.38 124,-5.38"/>
<text text-anchor="start" x="131" y="-16.07" font-family="Times New Roman,serif" font-weight="bold" font-size="9.00">Obesity I</text>
<polygon fill="none" stroke="black" points="123,-4.38 123,-31.62 175,-31.62 175,-4.38 123,-4.38"/>
</g>
<!-- n_3_4&#45;&gt;n_4 -->
<g id="edge7" class="edge">
<title>n_3_4&#45;&gt;n_4</title>
<path fill="none" stroke="black" d="M107.5,-79.29C114.33,-69.37 123.14,-56.57 130.88,-45.32"/>
<polygon fill="black" stroke="black" points="133.69,-47.41 136.48,-37.19 127.93,-43.44 133.69,-47.41"/>
</g>
</g>
</svg>
