<?xml version="1.0" encoding="UTF-8" standalone="no"?>
<!DOCTYPE svg PUBLIC "-//W3C//DTD SVG 1.1//EN"
 "http://www.w3.org/Graphics/SVG/1.1/DTD/svg11.dtd">
<!-- Generated by graphviz version 10.0.1 (20240210.2158)
 -->
<!-- Title: ND Pages: 1 -->
<svg width="624pt" height="405pt"
 viewBox="0.00 0.00 624.00 405.00" xmlns="http://www.w3.org/2000/svg" xmlns:xlink="http://www.w3.org/1999/xlink">
<g id="graph0" class="graph" transform="scale(1 1) rotate(0) translate(4 401)">
<title>ND</title>
<polygon fill="white" stroke="none" points="-4,4 -4,-401 620,-401 620,4 -4,4"/>
<!-- n_0_1_2_3_4_5_6 -->
<g id="node1" class="node">
<title>n_0_1_2_3_4_5_6</title>
<polygon fill="none" stroke="black" points="263.38,-342 263.38,-392 328.38,-392 328.38,-342 263.38,-342"/>
<text text-anchor="start" x="280.88" y="-377.45" font-family="Times New Roman,serif" font-weight="bold" font-size="9.00">Normal</text>
<text text-anchor="start" x="270.38" y="-368.45" font-family="Times New Roman,serif" font-weight="bold" font-size="9.00">Overweight I</text>
<text text-anchor="start" x="276.38" y="-359.45" font-family="Times New Roman,serif" font-weight="bold" font-size="9.00">Obesity II</text>
<text text-anchor="start" x="274.88" y="-350.45" font-family="Times New Roman,serif" font-weight="bold" font-size="9.00">Obesity III</text>
<polygon fill="none" stroke="black" points="328.38,-342 328.38,-392 416.62,-392 416.62,-342 328.38,-342"/>
<text text-anchor="start" x="335.38" y="-372.95" font-family="Times New Roman,serif" font-weight="bold" font-size="9.00">Insufficient weight</text>
<text text-anchor="start" x="345.5" y="-363.95" font-family="Times New Roman,serif" font-weight="bold" font-size="9.00">Overweight II</text>
<text text-anchor="start" x="354.5" y="-354.95" font-family="Times New Roman,serif" font-weight="bold" font-size="9.00">Obesity I</text>
<polygon fill="none" stroke="black" points="262.38,-341 262.38,-393 417.62,-393 417.62,-341 262.38,-341"/>
</g>
<!-- n_1_2_5_6 -->
<g id="node2" class="node">
<title>n_1_2_5_6</title>
<polygon fill="none" stroke="black" points="186.5,-248 186.5,-289 251.5,-289 251.5,-248 186.5,-248"/>
<text text-anchor="start" x="204" y="-274.45" font-family="Times New Roman,serif" font-weight="bold" font-size="9.00">Normal</text>
<text text-anchor="start" x="193.5" y="-265.45" font-family="Times New Roman,serif" font-weight="bold" font-size="9.00">Overweight I</text>
<text text-anchor="start" x="199.5" y="-256.45" font-family="Times New Roman,serif" font-weight="bold" font-size="9.00">Obesity II</text>
<polygon fill="none" stroke="black" points="251.5,-248 251.5,-289 307.5,-289 307.5,-248 251.5,-248"/>
<text text-anchor="start" x="258.5" y="-266.57" font-family="Times New Roman,serif" font-weight="bold" font-size="9.00">Obesity III</text>
<polygon fill="none" stroke="black" points="185.5,-247 185.5,-290 308.5,-290 308.5,-247 185.5,-247"/>
</g>
<!-- n_0_1_2_3_4_5_6&#45;&gt;n_1_2_5_6 -->
<g id="edge1" class="edge">
<title>n_0_1_2_3_4_5_6&#45;&gt;n_1_2_5_6</title>
<path fill="none" stroke="black" d="M312.1,-337.05C301.42,-325.97 289.18,-313.26 278.21,-301.88"/>
<polygon fill="black" stroke="black" points="281,-299.74 271.54,-294.96 275.96,-304.59 281,-299.74"/>
</g>
<!-- n_0_3_4 -->
<g id="node9" class="node">
<title>n_0_3_4</title>
<polygon fill="none" stroke="black" points="354.88,-252.5 354.88,-284.5 443.12,-284.5 443.12,-252.5 354.88,-252.5"/>
<text text-anchor="start" x="361.88" y="-269.95" font-family="Times New Roman,serif" font-weight="bold" font-size="9.00">Insufficient weight</text>
<text text-anchor="start" x="381" y="-260.95" font-family="Times New Roman,serif" font-weight="bold" font-size="9.00">Obesity I</text>
<polygon fill="none" stroke="black" points="443.12,-252.5 443.12,-284.5 511.12,-284.5 511.12,-252.5 443.12,-252.5"/>
<text text-anchor="start" x="450.12" y="-266.57" font-family="Times New Roman,serif" font-weight="bold" font-size="9.00">Overweight II</text>
<polygon fill="none" stroke="black" points="353.88,-251.5 353.88,-285.5 512.12,-285.5 512.12,-251.5 353.88,-251.5"/>
</g>
<!-- n_0_1_2_3_4_5_6&#45;&gt;n_0_3_4 -->
<g id="edge8" class="edge">
<title>n_0_1_2_3_4_5_6&#45;&gt;n_0_3_4</title>
<path fill="none" stroke="black" d="M367.9,-337.05C379.99,-324.51 394.08,-309.89 406.06,-297.46"/>
<polygon fill="black" stroke="black" points="408.49,-299.98 412.91,-290.35 403.45,-295.12 408.49,-299.98"/>
</g>
<!-- n_1_2_5 -->
<g id="node3" class="node">
<title>n_1_2_5</title>
<polygon fill="none" stroke="black" points="65,-163 65,-195 130,-195 130,-163 65,-163"/>
<text text-anchor="start" x="82.5" y="-180.45" font-family="Times New Roman,serif" font-weight="bold" font-size="9.00">Normal</text>
<text text-anchor="start" x="72" y="-171.45" font-family="Times New Roman,serif" font-weight="bold" font-size="9.00">Overweight I</text>
<polygon fill="none" stroke="black" points="130,-163 130,-195 183,-195 183,-163 130,-163"/>
<text text-anchor="start" x="137" y="-177.07" font-family="Times New Roman,serif" font-weight="bold" font-size="9.00">Obesity II</text>
<polygon fill="none" stroke="black" points="64,-162 64,-196 184,-196 184,-162 64,-162"/>
</g>
<!-- n_1_2_5_6&#45;&gt;n_1_2_5 -->
<g id="edge2" class="edge">
<title>n_1_2_5_6&#45;&gt;n_1_2_5</title>
<path fill="none" stroke="black" d="M212.74,-243.13C196.69,-231.71 177.55,-218.1 161.16,-206.43"/>
<polygon fill="black" stroke="black" points="163.28,-203.65 153.1,-200.7 159.22,-209.35 163.28,-203.65"/>
</g>
<!-- n_6 -->
<g id="node8" class="node">
<title>n_6</title>
<polygon fill="none" stroke="black" points="230,-166.38 230,-191.62 286,-191.62 286,-166.38 230,-166.38"/>
<text text-anchor="start" x="237" y="-177.07" font-family="Times New Roman,serif" font-weight="bold" font-size="9.00">Obesity III</text>
<polygon fill="none" stroke="black" points="229,-165.38 229,-192.62 287,-192.62 287,-165.38 229,-165.38"/>
</g>
<!-- n_1_2_5_6&#45;&gt;n_6 -->
<g id="edge7" class="edge">
<title>n_1_2_5_6&#45;&gt;n_6</title>
<path fill="none" stroke="black" d="M250.06,-243.13C251.44,-232.17 253.08,-219.18 254.5,-207.84"/>
<polygon fill="black" stroke="black" points="257.93,-208.63 255.7,-198.27 250.98,-207.76 257.93,-208.63"/>
</g>
<!-- n_1_2 -->
<g id="node4" class="node">
<title>n_1_2</title>
<polygon fill="none" stroke="black" points="27.5,-84.38 27.5,-109.62 71.5,-109.62 71.5,-84.38 27.5,-84.38"/>
<text text-anchor="start" x="34.5" y="-95.08" font-family="Times New Roman,serif" font-weight="bold" font-size="9.00">Normal</text>
<polygon fill="none" stroke="black" points="71.5,-84.38 71.5,-109.62 136.5,-109.62 136.5,-84.38 71.5,-84.38"/>
<text text-anchor="start" x="78.5" y="-95.08" font-family="Times New Roman,serif" font-weight="bold" font-size="9.00">Overweight I</text>
<polygon fill="none" stroke="black" points="26.5,-83.38 26.5,-110.62 137.5,-110.62 137.5,-83.38 26.5,-83.38"/>
</g>
<!-- n_1_2_5&#45;&gt;n_1_2 -->
<g id="edge3" class="edge">
<title>n_1_2_5&#45;&gt;n_1_2</title>
<path fill="none" stroke="black" d="M113.62,-158.22C108.32,-148.13 101.79,-135.69 96.05,-124.75"/>
<polygon fill="black" stroke="black" points="99.29,-123.41 91.55,-116.18 93.1,-126.66 99.29,-123.41"/>
</g>
<!-- n_5 -->
<g id="node7" class="node">
<title>n_5</title>
<polygon fill="none" stroke="black" points="183.5,-84.38 183.5,-109.62 236.5,-109.62 236.5,-84.38 183.5,-84.38"/>
<text text-anchor="start" x="190.5" y="-95.08" font-family="Times New Roman,serif" font-weight="bold" font-size="9.00">Obesity II</text>
<polygon fill="none" stroke="black" points="182.5,-83.38 182.5,-110.62 237.5,-110.62 237.5,-83.38 182.5,-83.38"/>
</g>
<!-- n_1_2_5&#45;&gt;n_5 -->
<g id="edge6" class="edge">
<title>n_1_2_5&#45;&gt;n_5</title>
<path fill="none" stroke="black" d="M145.26,-158.22C156.9,-147.4 171.42,-133.89 183.76,-122.41"/>
<polygon fill="black" stroke="black" points="185.85,-125.25 190.78,-115.87 181.08,-120.12 185.85,-125.25"/>
</g>
<!-- n_1 -->
<g id="node5" class="node">
<title>n_1</title>
<polygon fill="none" stroke="black" points="9,-5.38 9,-30.62 53,-30.62 53,-5.38 9,-5.38"/>
<text text-anchor="start" x="16" y="-16.07" font-family="Times New Roman,serif" font-weight="bold" font-size="9.00">Normal</text>
<polygon fill="none" stroke="black" points="8,-4.38 8,-31.62 54,-31.62 54,-4.38 8,-4.38"/>
</g>
<!-- n_1_2&#45;&gt;n_1 -->
<g id="edge4" class="edge">
<title>n_1_2&#45;&gt;n_1</title>
<path fill="none" stroke="black" d="M70.93,-79.29C64.36,-69.37 55.89,-56.57 48.43,-45.32"/>
<polygon fill="black" stroke="black" points="51.5,-43.61 43.06,-37.2 45.66,-47.47 51.5,-43.61"/>
</g>
<!-- n_2 -->
<g id="node6" class="node">
<title>n_2</title>
<polygon fill="none" stroke="black" points="100.5,-5.38 100.5,-30.62 165.5,-30.62 165.5,-5.38 100.5,-5.38"/>
<text text-anchor="start" x="107.5" y="-16.07" font-family="Times New Roman,serif" font-weight="bold" font-size="9.00">Overweight I</text>
<polygon fill="none" stroke="black" points="99.5,-4.38 99.5,-31.62 166.5,-31.62 166.5,-4.38 99.5,-4.38"/>
</g>
<!-- n_1_2&#45;&gt;n_2 -->
<g id="edge5" class="edge">
<title>n_1_2&#45;&gt;n_2</title>
<path fill="none" stroke="black" d="M93.07,-79.29C99.64,-69.37 108.11,-56.57 115.57,-45.32"/>
<polygon fill="black" stroke="black" points="118.34,-47.47 120.94,-37.2 112.5,-43.61 118.34,-47.47"/>
</g>
<!-- n_0_4 -->
<g id="node10" class="node">
<title>n_0_4</title>
<polygon fill="none" stroke="black" points="353.88,-166.38 353.88,-191.62 442.12,-191.62 442.12,-166.38 353.88,-166.38"/>
<text text-anchor="start" x="360.88" y="-177.07" font-family="Times New Roman,serif" font-weight="bold" font-size="9.00">Insufficient weight</text>
<polygon fill="none" stroke="black" points="442.12,-166.38 442.12,-191.62 492.12,-191.62 492.12,-166.38 442.12,-166.38"/>
<text text-anchor="start" x="449.12" y="-177.07" font-family="Times New Roman,serif" font-weight="bold" font-size="9.00">Obesity I</text>
<polygon fill="none" stroke="black" points="352.88,-165.38 352.88,-192.62 493.12,-192.62 493.12,-165.38 352.88,-165.38"/>
</g>
<!-- n_0_3_4&#45;&gt;n_0_4 -->
<g id="edge9" class="edge">
<title>n_0_3_4&#45;&gt;n_0_4</title>
<path fill="none" stroke="black" d="M430.73,-247.64C429.39,-235.91 427.67,-220.86 426.19,-207.94"/>
<polygon fill="black" stroke="black" points="429.71,-207.87 425.1,-198.34 422.75,-208.67 429.71,-207.87"/>
</g>
<!-- n_3 -->
<g id="node13" class="node">
<title>n_3</title>
<polygon fill="none" stroke="black" points="539,-166.38 539,-191.62 607,-191.62 607,-166.38 539,-166.38"/>
<text text-anchor="start" x="546" y="-177.07" font-family="Times New Roman,serif" font-weight="bold" font-size="9.00">Overweight II</text>
<polygon fill="none" stroke="black" points="538,-165.38 538,-192.62 608,-192.62 608,-165.38 538,-165.38"/>
</g>
<!-- n_0_3_4&#45;&gt;n_3 -->
<g id="edge12" class="edge">
<title>n_0_3_4&#45;&gt;n_3</title>
<path fill="none" stroke="black" d="M464.77,-247.64C486.04,-234.35 514.1,-216.81 536.32,-202.93"/>
<polygon fill="black" stroke="black" points="538.16,-205.9 544.79,-197.63 534.45,-199.97 538.16,-205.9"/>
</g>
<!-- n_0 -->
<g id="node11" class="node">
<title>n_0</title>
<polygon fill="none" stroke="black" points="330.88,-84.38 330.88,-109.62 419.12,-109.62 419.12,-84.38 330.88,-84.38"/>
<text text-anchor="start" x="337.88" y="-95.08" font-family="Times New Roman,serif" font-weight="bold" font-size="9.00">Insufficient weight</text>
<polygon fill="none" stroke="black" points="329.88,-83.38 329.88,-110.62 420.12,-110.62 420.12,-83.38 329.88,-83.38"/>
</g>
<!-- n_0_4&#45;&gt;n_0 -->
<g id="edge10" class="edge">
<title>n_0_4&#45;&gt;n_0</title>
<path fill="none" stroke="black" d="M412.82,-161.03C406.46,-150.43 398.13,-136.54 390.9,-124.51"/>
<polygon fill="black" stroke="black" points="394.09,-123.01 385.94,-116.24 388.09,-126.62 394.09,-123.01"/>
</g>
<!-- n_4 -->
<g id="node12" class="node">
<title>n_4</title>
<polygon fill="none" stroke="black" points="466,-84.38 466,-109.62 516,-109.62 516,-84.38 466,-84.38"/>
<text text-anchor="start" x="473" y="-95.08" font-family="Times New Roman,serif" font-weight="bold" font-size="9.00">Obesity I</text>
<polygon fill="none" stroke="black" points="465,-83.38 465,-110.62 517,-110.62 517,-83.38 465,-83.38"/>
</g>
<!-- n_0_4&#45;&gt;n_4 -->
<g id="edge11" class="edge">
<title>n_0_4&#45;&gt;n_4</title>
<path fill="none" stroke="black" d="M437.42,-161.03C446.71,-150.11 458.95,-135.71 469.39,-123.43"/>
<polygon fill="black" stroke="black" points="471.81,-125.98 475.62,-116.09 466.48,-121.45 471.81,-125.98"/>
</g>
</g>
</svg>
