<?xml version="1.0" encoding="UTF-8" standalone="no"?>
<!DOCTYPE svg PUBLIC "-//W3C//DTD SVG 1.1//EN"
 "http://www.w3.org/Graphics/SVG/1.1/DTD/svg11.dtd">
<!-- Generated by graphviz version 10.0.1 (20240210.2158)
 -->
<!-- Title: ND Pages: 1 -->
<svg width="566pt" height="535pt"
 viewBox="0.00 0.00 566.12 535.00" xmlns="http://www.w3.org/2000/svg" xmlns:xlink="http://www.w3.org/1999/xlink">
<g id="graph0" class="graph" transform="scale(1 1) rotate(0) translate(4 531)">
<title>ND</title>
<polygon fill="white" stroke="none" points="-4,4 -4,-531 562.12,-531 562.12,4 -4,4"/>
<!-- n_0_1_2_3_4_5_6 -->
<g id="node1" class="node">
<title>n_0_1_2_3_4_5_6</title>
<polygon fill="none" stroke="black" points="347.88,-454 347.88,-522 415.88,-522 415.88,-454 347.88,-454"/>
<text text-anchor="start" x="366.88" y="-507.45" font-family="Times New Roman,serif" font-weight="bold" font-size="9.00">Normal</text>
<text text-anchor="start" x="356.38" y="-498.45" font-family="Times New Roman,serif" font-weight="bold" font-size="9.00">Overweight I</text>
<text text-anchor="start" x="354.88" y="-489.45" font-family="Times New Roman,serif" font-weight="bold" font-size="9.00">Overweight II</text>
<text text-anchor="start" x="363.88" y="-480.45" font-family="Times New Roman,serif" font-weight="bold" font-size="9.00">Obesity I</text>
<text text-anchor="start" x="362.38" y="-471.45" font-family="Times New Roman,serif" font-weight="bold" font-size="9.00">Obesity II</text>
<text text-anchor="start" x="360.88" y="-462.45" font-family="Times New Roman,serif" font-weight="bold" font-size="9.00">Obesity III</text>
<polygon fill="none" stroke="black" points="415.88,-454 415.88,-522 504.12,-522 504.12,-454 415.88,-454"/>
<text text-anchor="start" x="422.88" y="-486.07" font-family="Times New Roman,serif" font-weight="bold" font-size="9.00">Insufficient weight</text>
<polygon fill="none" stroke="black" points="346.88,-453 346.88,-523 505.12,-523 505.12,-453 346.88,-453"/>
</g>
<!-- n_1_2_3_4_5_6 -->
<g id="node2" class="node">
<title>n_1_2_3_4_5_6</title>
<polygon fill="none" stroke="black" points="280.5,-342 280.5,-401 348.5,-401 348.5,-342 280.5,-342"/>
<text text-anchor="start" x="299.5" y="-386.45" font-family="Times New Roman,serif" font-weight="bold" font-size="9.00">Normal</text>
<text text-anchor="start" x="287.5" y="-377.45" font-family="Times New Roman,serif" font-weight="bold" font-size="9.00">Overweight II</text>
<text text-anchor="start" x="296.5" y="-368.45" font-family="Times New Roman,serif" font-weight="bold" font-size="9.00">Obesity I</text>
<text text-anchor="start" x="295" y="-359.45" font-family="Times New Roman,serif" font-weight="bold" font-size="9.00">Obesity II</text>
<text text-anchor="start" x="293.5" y="-350.45" font-family="Times New Roman,serif" font-weight="bold" font-size="9.00">Obesity III</text>
<polygon fill="none" stroke="black" points="348.5,-342 348.5,-401 413.5,-401 413.5,-342 348.5,-342"/>
<text text-anchor="start" x="355.5" y="-369.57" font-family="Times New Roman,serif" font-weight="bold" font-size="9.00">Overweight I</text>
<polygon fill="none" stroke="black" points="279.5,-341 279.5,-402 414.5,-402 414.5,-341 279.5,-341"/>
</g>
<!-- n_0_1_2_3_4_5_6&#45;&gt;n_1_2_3_4_5_6 -->
<g id="edge1" class="edge">
<title>n_0_1_2_3_4_5_6&#45;&gt;n_1_2_3_4_5_6</title>
<path fill="none" stroke="black" d="M399.91,-449.19C392.33,-438.2 384,-426.12 376.23,-414.87"/>
<polygon fill="black" stroke="black" points="379.29,-413.14 370.73,-406.9 373.53,-417.12 379.29,-413.14"/>
</g>
<!-- n_0 -->
<g id="node13" class="node">
<title>n_0</title>
<polygon fill="none" stroke="black" points="460.88,-358.88 460.88,-384.12 549.12,-384.12 549.12,-358.88 460.88,-358.88"/>
<text text-anchor="start" x="467.88" y="-369.57" font-family="Times New Roman,serif" font-weight="bold" font-size="9.00">Insufficient weight</text>
<polygon fill="none" stroke="black" points="459.88,-357.88 459.88,-385.12 550.12,-385.12 550.12,-357.88 459.88,-357.88"/>
</g>
<!-- n_0_1_2_3_4_5_6&#45;&gt;n_0 -->
<g id="edge12" class="edge">
<title>n_0_1_2_3_4_5_6&#45;&gt;n_0</title>
<path fill="none" stroke="black" d="M452.09,-449.19C463.52,-432.63 476.64,-413.6 486.97,-398.64"/>
<polygon fill="black" stroke="black" points="489.64,-400.93 492.44,-390.71 483.88,-396.95 489.64,-400.93"/>
</g>
<!-- n_1_3_4_5_6 -->
<g id="node3" class="node">
<title>n_1_3_4_5_6</title>
<polygon fill="none" stroke="black" points="214,-248 214,-289 282,-289 282,-248 214,-248"/>
<text text-anchor="start" x="233" y="-274.45" font-family="Times New Roman,serif" font-weight="bold" font-size="9.00">Normal</text>
<text text-anchor="start" x="221" y="-265.45" font-family="Times New Roman,serif" font-weight="bold" font-size="9.00">Overweight II</text>
<text text-anchor="start" x="228.5" y="-256.45" font-family="Times New Roman,serif" font-weight="bold" font-size="9.00">Obesity II</text>
<polygon fill="none" stroke="black" points="282,-248 282,-289 338,-289 338,-248 282,-248"/>
<text text-anchor="start" x="292" y="-269.95" font-family="Times New Roman,serif" font-weight="bold" font-size="9.00">Obesity I</text>
<text text-anchor="start" x="289" y="-260.95" font-family="Times New Roman,serif" font-weight="bold" font-size="9.00">Obesity III</text>
<polygon fill="none" stroke="black" points="213,-247 213,-290 339,-290 339,-247 213,-247"/>
</g>
<!-- n_1_2_3_4_5_6&#45;&gt;n_1_3_4_5_6 -->
<g id="edge2" class="edge">
<title>n_1_2_3_4_5_6&#45;&gt;n_1_3_4_5_6</title>
<path fill="none" stroke="black" d="M323.56,-337.15C315.87,-326.22 307.33,-314.07 299.63,-303.12"/>
<polygon fill="black" stroke="black" points="302.61,-301.27 293.99,-295.1 296.88,-305.29 302.61,-301.27"/>
</g>
<!-- n_2 -->
<g id="node12" class="node">
<title>n_2</title>
<polygon fill="none" stroke="black" points="385.5,-255.88 385.5,-281.12 450.5,-281.12 450.5,-255.88 385.5,-255.88"/>
<text text-anchor="start" x="392.5" y="-266.57" font-family="Times New Roman,serif" font-weight="bold" font-size="9.00">Overweight I</text>
<polygon fill="none" stroke="black" points="384.5,-254.88 384.5,-282.12 451.5,-282.12 451.5,-254.88 384.5,-254.88"/>
</g>
<!-- n_1_2_3_4_5_6&#45;&gt;n_2 -->
<g id="edge11" class="edge">
<title>n_1_2_3_4_5_6&#45;&gt;n_2</title>
<path fill="none" stroke="black" d="M370.44,-337.15C379.97,-323.6 390.81,-308.17 399.74,-295.48"/>
<polygon fill="black" stroke="black" points="402.38,-297.81 405.26,-287.62 396.65,-293.79 402.38,-297.81"/>
</g>
<!-- n_1_3_5 -->
<g id="node4" class="node">
<title>n_1_3_5</title>
<polygon fill="none" stroke="black" points="135.5,-163 135.5,-195 203.5,-195 203.5,-163 135.5,-163"/>
<text text-anchor="start" x="154.5" y="-180.45" font-family="Times New Roman,serif" font-weight="bold" font-size="9.00">Normal</text>
<text text-anchor="start" x="142.5" y="-171.45" font-family="Times New Roman,serif" font-weight="bold" font-size="9.00">Overweight II</text>
<polygon fill="none" stroke="black" points="203.5,-163 203.5,-195 256.5,-195 256.5,-163 203.5,-163"/>
<text text-anchor="start" x="210.5" y="-177.07" font-family="Times New Roman,serif" font-weight="bold" font-size="9.00">Obesity II</text>
<polygon fill="none" stroke="black" points="134.5,-162 134.5,-196 257.5,-196 257.5,-162 134.5,-162"/>
</g>
<!-- n_1_3_4_5_6&#45;&gt;n_1_3_5 -->
<g id="edge3" class="edge">
<title>n_1_3_4_5_6&#45;&gt;n_1_3_5</title>
<path fill="none" stroke="black" d="M253.72,-243.13C243.77,-232.25 231.99,-219.36 221.67,-208.08"/>
<polygon fill="black" stroke="black" points="224.48,-205.96 215.15,-200.94 219.31,-210.69 224.48,-205.96"/>
</g>
<!-- n_4_6 -->
<g id="node9" class="node">
<title>n_4_6</title>
<polygon fill="none" stroke="black" points="304,-166.38 304,-191.62 354,-191.62 354,-166.38 304,-166.38"/>
<text text-anchor="start" x="311" y="-177.07" font-family="Times New Roman,serif" font-weight="bold" font-size="9.00">Obesity I</text>
<polygon fill="none" stroke="black" points="354,-166.38 354,-191.62 410,-191.62 410,-166.38 354,-166.38"/>
<text text-anchor="start" x="361" y="-177.07" font-family="Times New Roman,serif" font-weight="bold" font-size="9.00">Obesity III</text>
<polygon fill="none" stroke="black" points="303,-165.38 303,-192.62 411,-192.62 411,-165.38 303,-165.38"/>
</g>
<!-- n_1_3_4_5_6&#45;&gt;n_4_6 -->
<g id="edge8" class="edge">
<title>n_1_3_4_5_6&#45;&gt;n_4_6</title>
<path fill="none" stroke="black" d="M298.56,-243.13C309.56,-231.24 322.77,-216.97 333.85,-205.01"/>
<polygon fill="black" stroke="black" points="336.22,-207.6 340.45,-197.88 331.09,-202.84 336.22,-207.6"/>
</g>
<!-- n_1_3 -->
<g id="node5" class="node">
<title>n_1_3</title>
<polygon fill="none" stroke="black" points="26,-84.38 26,-109.62 70,-109.62 70,-84.38 26,-84.38"/>
<text text-anchor="start" x="33" y="-95.08" font-family="Times New Roman,serif" font-weight="bold" font-size="9.00">Normal</text>
<polygon fill="none" stroke="black" points="70,-84.38 70,-109.62 138,-109.62 138,-84.38 70,-84.38"/>
<text text-anchor="start" x="77" y="-95.08" font-family="Times New Roman,serif" font-weight="bold" font-size="9.00">Overweight II</text>
<polygon fill="none" stroke="black" points="25,-83.38 25,-110.62 139,-110.62 139,-83.38 25,-83.38"/>
</g>
<!-- n_1_3_5&#45;&gt;n_1_3 -->
<g id="edge4" class="edge">
<title>n_1_3_5&#45;&gt;n_1_3</title>
<path fill="none" stroke="black" d="M167.53,-158.02C151.65,-146.88 131.79,-132.94 115.21,-121.31"/>
<polygon fill="black" stroke="black" points="117.32,-118.51 107.12,-115.63 113.29,-124.24 117.32,-118.51"/>
</g>
<!-- n_5 -->
<g id="node8" class="node">
<title>n_5</title>
<polygon fill="none" stroke="black" points="185.5,-84.38 185.5,-109.62 238.5,-109.62 238.5,-84.38 185.5,-84.38"/>
<text text-anchor="start" x="192.5" y="-95.08" font-family="Times New Roman,serif" font-weight="bold" font-size="9.00">Obesity II</text>
<polygon fill="none" stroke="black" points="184.5,-83.38 184.5,-110.62 239.5,-110.62 239.5,-83.38 184.5,-83.38"/>
</g>
<!-- n_1_3_5&#45;&gt;n_5 -->
<g id="edge7" class="edge">
<title>n_1_3_5&#45;&gt;n_5</title>
<path fill="none" stroke="black" d="M199.96,-158.22C201.89,-148.54 204.26,-136.72 206.38,-126.11"/>
<polygon fill="black" stroke="black" points="209.81,-126.82 208.33,-116.33 202.94,-125.45 209.81,-126.82"/>
</g>
<!-- n_1 -->
<g id="node6" class="node">
<title>n_1</title>
<polygon fill="none" stroke="black" points="9,-5.38 9,-30.62 53,-30.62 53,-5.38 9,-5.38"/>
<text text-anchor="start" x="16" y="-16.07" font-family="Times New Roman,serif" font-weight="bold" font-size="9.00">Normal</text>
<polygon fill="none" stroke="black" points="8,-4.38 8,-31.62 54,-31.62 54,-4.38 8,-4.38"/>
</g>
<!-- n_1_3&#45;&gt;n_1 -->
<g id="edge5" class="edge">
<title>n_1_3&#45;&gt;n_1</title>
<path fill="none" stroke="black" d="M70.93,-79.29C64.36,-69.37 55.89,-56.57 48.43,-45.32"/>
<polygon fill="black" stroke="black" points="51.5,-43.61 43.06,-37.2 45.66,-47.47 51.5,-43.61"/>
</g>
<!-- n_3 -->
<g id="node7" class="node">
<title>n_3</title>
<polygon fill="none" stroke="black" points="100,-5.38 100,-30.62 168,-30.62 168,-5.38 100,-5.38"/>
<text text-anchor="start" x="107" y="-16.07" font-family="Times New Roman,serif" font-weight="bold" font-size="9.00">Overweight II</text>
<polygon fill="none" stroke="black" points="99,-4.38 99,-31.62 169,-31.62 169,-4.38 99,-4.38"/>
</g>
<!-- n_1_3&#45;&gt;n_3 -->
<g id="edge6" class="edge">
<title>n_1_3&#45;&gt;n_3</title>
<path fill="none" stroke="black" d="M93.28,-79.29C99.98,-69.37 108.63,-56.57 116.23,-45.32"/>
<polygon fill="black" stroke="black" points="119.02,-47.44 121.71,-37.2 113.22,-43.52 119.02,-47.44"/>
</g>
<!-- n_4 -->
<g id="node10" class="node">
<title>n_4</title>
<polygon fill="none" stroke="black" points="317,-84.38 317,-109.62 367,-109.62 367,-84.38 317,-84.38"/>
<text text-anchor="start" x="324" y="-95.08" font-family="Times New Roman,serif" font-weight="bold" font-size="9.00">Obesity I</text>
<polygon fill="none" stroke="black" points="316,-83.38 316,-110.62 368,-110.62 368,-83.38 316,-83.38"/>
</g>
<!-- n_4_6&#45;&gt;n_4 -->
<g id="edge9" class="edge">
<title>n_4_6&#45;&gt;n_4</title>
<path fill="none" stroke="black" d="M353.82,-161.03C351.91,-150.85 349.43,-137.65 347.24,-125.96"/>
<polygon fill="black" stroke="black" points="350.74,-125.61 345.46,-116.43 343.86,-126.9 350.74,-125.61"/>
</g>
<!-- n_6 -->
<g id="node11" class="node">
<title>n_6</title>
<polygon fill="none" stroke="black" points="414,-84.38 414,-109.62 470,-109.62 470,-84.38 414,-84.38"/>
<text text-anchor="start" x="421" y="-95.08" font-family="Times New Roman,serif" font-weight="bold" font-size="9.00">Obesity III</text>
<polygon fill="none" stroke="black" points="413,-83.38 413,-110.62 471,-110.62 471,-83.38 413,-83.38"/>
</g>
<!-- n_4_6&#45;&gt;n_6 -->
<g id="edge10" class="edge">
<title>n_4_6&#45;&gt;n_6</title>
<path fill="none" stroke="black" d="M375.03,-161.03C386.86,-149.9 402.53,-135.15 415.74,-122.71"/>
<polygon fill="black" stroke="black" points="418.01,-125.38 422.9,-115.98 413.22,-120.28 418.01,-125.38"/>
</g>
</g>
</svg>
