<?xml version="1.0" encoding="UTF-8" standalone="no"?>
<!DOCTYPE svg PUBLIC "-//W3C//DTD SVG 1.1//EN"
 "http://www.w3.org/Graphics/SVG/1.1/DTD/svg11.dtd">
<!-- Generated by graphviz version 10.0.1 (20240210.2158)
 -->
<!-- Title: ND Pages: 1 -->
<svg width="550pt" height="423pt"
 viewBox="0.00 0.00 549.62 423.00" xmlns="http://www.w3.org/2000/svg" xmlns:xlink="http://www.w3.org/1999/xlink">
<g id="graph0" class="graph" transform="scale(1 1) rotate(0) translate(4 419)">
<title>ND</title>
<polygon fill="white" stroke="none" points="-4,4 -4,-419 545.62,-419 545.62,4 -4,4"/>
<!-- n_0_1_2_3_4_5_6 -->
<g id="node1" class="node">
<title>n_0_1_2_3_4_5_6</title>
<polygon fill="none" stroke="black" points="292,-342 292,-410 380.25,-410 380.25,-342 292,-342"/>
<text text-anchor="start" x="299" y="-395.45" font-family="Times New Roman,serif" font-weight="bold" font-size="9.00">Insufficient weight</text>
<text text-anchor="start" x="321.12" y="-386.45" font-family="Times New Roman,serif" font-weight="bold" font-size="9.00">Normal</text>
<text text-anchor="start" x="310.62" y="-377.45" font-family="Times New Roman,serif" font-weight="bold" font-size="9.00">Overweight I</text>
<text text-anchor="start" x="318.12" y="-368.45" font-family="Times New Roman,serif" font-weight="bold" font-size="9.00">Obesity I</text>
<text text-anchor="start" x="316.62" y="-359.45" font-family="Times New Roman,serif" font-weight="bold" font-size="9.00">Obesity II</text>
<text text-anchor="start" x="315.12" y="-350.45" font-family="Times New Roman,serif" font-weight="bold" font-size="9.00">Obesity III</text>
<polygon fill="none" stroke="black" points="380.25,-342 380.25,-410 448.25,-410 448.25,-342 380.25,-342"/>
<text text-anchor="start" x="387.25" y="-374.07" font-family="Times New Roman,serif" font-weight="bold" font-size="9.00">Overweight II</text>
<polygon fill="none" stroke="black" points="291,-341 291,-411 449.25,-411 449.25,-341 291,-341"/>
</g>
<!-- n_0_1_2_4_5_6 -->
<g id="node2" class="node">
<title>n_0_1_2_4_5_6</title>
<polygon fill="none" stroke="black" points="214.5,-248 214.5,-289 302.75,-289 302.75,-248 214.5,-248"/>
<text text-anchor="start" x="221.5" y="-274.45" font-family="Times New Roman,serif" font-weight="bold" font-size="9.00">Insufficient weight</text>
<text text-anchor="start" x="243.62" y="-265.45" font-family="Times New Roman,serif" font-weight="bold" font-size="9.00">Normal</text>
<text text-anchor="start" x="239.12" y="-256.45" font-family="Times New Roman,serif" font-weight="bold" font-size="9.00">Obesity II</text>
<polygon fill="none" stroke="black" points="302.75,-248 302.75,-289 367.75,-289 367.75,-248 302.75,-248"/>
<text text-anchor="start" x="309.75" y="-274.45" font-family="Times New Roman,serif" font-weight="bold" font-size="9.00">Overweight I</text>
<text text-anchor="start" x="317.25" y="-265.45" font-family="Times New Roman,serif" font-weight="bold" font-size="9.00">Obesity I</text>
<text text-anchor="start" x="314.25" y="-256.45" font-family="Times New Roman,serif" font-weight="bold" font-size="9.00">Obesity III</text>
<polygon fill="none" stroke="black" points="213.5,-247 213.5,-290 368.75,-290 368.75,-247 213.5,-247"/>
</g>
<!-- n_0_1_2_3_4_5_6&#45;&gt;n_0_1_2_4_5_6 -->
<g id="edge1" class="edge">
<title>n_0_1_2_3_4_5_6&#45;&gt;n_0_1_2_4_5_6</title>
<path fill="none" stroke="black" d="M341.83,-337.21C333.47,-326.05 324.39,-313.92 316.25,-303.05"/>
<polygon fill="black" stroke="black" points="319.08,-300.99 310.29,-295.09 313.48,-305.19 319.08,-300.99"/>
</g>
<!-- n_3 -->
<g id="node13" class="node">
<title>n_3</title>
<polygon fill="none" stroke="black" points="415.12,-255.88 415.12,-281.12 483.12,-281.12 483.12,-255.88 415.12,-255.88"/>
<text text-anchor="start" x="422.12" y="-266.57" font-family="Times New Roman,serif" font-weight="bold" font-size="9.00">Overweight II</text>
<polygon fill="none" stroke="black" points="414.12,-254.88 414.12,-282.12 484.12,-282.12 484.12,-254.88 414.12,-254.88"/>
</g>
<!-- n_0_1_2_3_4_5_6&#45;&gt;n_3 -->
<g id="edge12" class="edge">
<title>n_0_1_2_3_4_5_6&#45;&gt;n_3</title>
<path fill="none" stroke="black" d="M398.42,-337.21C408.8,-323.36 420.29,-308.01 429.71,-295.43"/>
<polygon fill="black" stroke="black" points="432.36,-297.73 435.55,-287.63 426.75,-293.54 432.36,-297.73"/>
</g>
<!-- n_0_1_5 -->
<g id="node3" class="node">
<title>n_0_1_5</title>
<polygon fill="none" stroke="black" points="131.5,-163 131.5,-195 219.75,-195 219.75,-163 131.5,-163"/>
<text text-anchor="start" x="138.5" y="-180.45" font-family="Times New Roman,serif" font-weight="bold" font-size="9.00">Insufficient weight</text>
<text text-anchor="start" x="160.62" y="-171.45" font-family="Times New Roman,serif" font-weight="bold" font-size="9.00">Normal</text>
<polygon fill="none" stroke="black" points="219.75,-163 219.75,-195 272.75,-195 272.75,-163 219.75,-163"/>
<text text-anchor="start" x="226.75" y="-177.07" font-family="Times New Roman,serif" font-weight="bold" font-size="9.00">Obesity II</text>
<polygon fill="none" stroke="black" points="130.5,-162 130.5,-196 273.75,-196 273.75,-162 130.5,-162"/>
</g>
<!-- n_0_1_2_4_5_6&#45;&gt;n_0_1_5 -->
<g id="edge2" class="edge">
<title>n_0_1_2_4_5_6&#45;&gt;n_0_1_5</title>
<path fill="none" stroke="black" d="M266.33,-243.13C255.16,-232.14 241.91,-219.11 230.35,-207.75"/>
<polygon fill="black" stroke="black" points="232.95,-205.4 223.37,-200.89 228.05,-210.39 232.95,-205.4"/>
</g>
<!-- n_2_4_6 -->
<g id="node8" class="node">
<title>n_2_4_6</title>
<polygon fill="none" stroke="black" points="319.62,-163 319.62,-195 375.62,-195 375.62,-163 319.62,-163"/>
<text text-anchor="start" x="329.62" y="-180.45" font-family="Times New Roman,serif" font-weight="bold" font-size="9.00">Obesity I</text>
<text text-anchor="start" x="326.62" y="-171.45" font-family="Times New Roman,serif" font-weight="bold" font-size="9.00">Obesity III</text>
<polygon fill="none" stroke="black" points="375.62,-163 375.62,-195 440.62,-195 440.62,-163 375.62,-163"/>
<text text-anchor="start" x="382.62" y="-177.07" font-family="Times New Roman,serif" font-weight="bold" font-size="9.00">Overweight I</text>
<polygon fill="none" stroke="black" points="318.62,-162 318.62,-196 441.62,-196 441.62,-162 318.62,-162"/>
</g>
<!-- n_0_1_2_4_5_6&#45;&gt;n_2_4_6 -->
<g id="edge7" class="edge">
<title>n_0_1_2_4_5_6&#45;&gt;n_2_4_6</title>
<path fill="none" stroke="black" d="M315.92,-243.13C327.09,-232.14 340.34,-219.11 351.9,-207.75"/>
<polygon fill="black" stroke="black" points="354.2,-210.39 358.88,-200.89 349.3,-205.4 354.2,-210.39"/>
</g>
<!-- n_0_1 -->
<g id="node4" class="node">
<title>n_0_1</title>
<polygon fill="none" stroke="black" points="9,-84.38 9,-109.62 97.25,-109.62 97.25,-84.38 9,-84.38"/>
<text text-anchor="start" x="16" y="-95.08" font-family="Times New Roman,serif" font-weight="bold" font-size="9.00">Insufficient weight</text>
<polygon fill="none" stroke="black" points="97.25,-84.38 97.25,-109.62 141.25,-109.62 141.25,-84.38 97.25,-84.38"/>
<text text-anchor="start" x="104.25" y="-95.08" font-family="Times New Roman,serif" font-weight="bold" font-size="9.00">Normal</text>
<polygon fill="none" stroke="black" points="8,-83.38 8,-110.62 142.25,-110.62 142.25,-83.38 8,-83.38"/>
</g>
<!-- n_0_1_5&#45;&gt;n_0_1 -->
<g id="edge3" class="edge">
<title>n_0_1_5&#45;&gt;n_0_1</title>
<path fill="none" stroke="black" d="M170.41,-158.02C152.47,-146.72 129.98,-132.55 111.35,-120.82"/>
<polygon fill="black" stroke="black" points="113.34,-117.93 103.01,-115.57 109.61,-123.86 113.34,-117.93"/>
</g>
<!-- n_5 -->
<g id="node7" class="node">
<title>n_5</title>
<polygon fill="none" stroke="black" points="188.62,-84.38 188.62,-109.62 241.62,-109.62 241.62,-84.38 188.62,-84.38"/>
<text text-anchor="start" x="195.62" y="-95.08" font-family="Times New Roman,serif" font-weight="bold" font-size="9.00">Obesity II</text>
<polygon fill="none" stroke="black" points="187.62,-83.38 187.62,-110.62 242.62,-110.62 242.62,-83.38 187.62,-83.38"/>
</g>
<!-- n_0_1_5&#45;&gt;n_5 -->
<g id="edge6" class="edge">
<title>n_0_1_5&#45;&gt;n_5</title>
<path fill="none" stroke="black" d="M205.34,-158.22C206.91,-148.54 208.83,-136.72 210.56,-126.11"/>
<polygon fill="black" stroke="black" points="214,-126.77 212.15,-116.34 207.09,-125.65 214,-126.77"/>
</g>
<!-- n_0 -->
<g id="node5" class="node">
<title>n_0</title>
<polygon fill="none" stroke="black" points="11,-5.38 11,-30.62 99.25,-30.62 99.25,-5.38 11,-5.38"/>
<text text-anchor="start" x="18" y="-16.07" font-family="Times New Roman,serif" font-weight="bold" font-size="9.00">Insufficient weight</text>
<polygon fill="none" stroke="black" points="10,-4.38 10,-31.62 100.25,-31.62 100.25,-4.38 10,-4.38"/>
</g>
<!-- n_0_1&#45;&gt;n_0 -->
<g id="edge4" class="edge">
<title>n_0_1&#45;&gt;n_0</title>
<path fill="none" stroke="black" d="M70.79,-79.29C68.34,-69.87 65.22,-57.86 62.41,-47.04"/>
<polygon fill="black" stroke="black" points="65.81,-46.21 59.91,-37.41 59.03,-47.96 65.81,-46.21"/>
</g>
<!-- n_1 -->
<g id="node6" class="node">
<title>n_1</title>
<polygon fill="none" stroke="black" points="146.12,-5.38 146.12,-30.62 190.12,-30.62 190.12,-5.38 146.12,-5.38"/>
<text text-anchor="start" x="153.12" y="-16.07" font-family="Times New Roman,serif" font-weight="bold" font-size="9.00">Normal</text>
<polygon fill="none" stroke="black" points="145.12,-4.38 145.12,-31.62 191.12,-31.62 191.12,-4.38 145.12,-4.38"/>
</g>
<!-- n_0_1&#45;&gt;n_1 -->
<g id="edge5" class="edge">
<title>n_0_1&#45;&gt;n_1</title>
<path fill="none" stroke="black" d="M95.3,-79.29C108.13,-68.67 124.95,-54.75 139.19,-42.96"/>
<polygon fill="black" stroke="black" points="141.03,-45.98 146.5,-36.91 136.56,-40.59 141.03,-45.98"/>
</g>
<!-- n_4_6 -->
<g id="node9" class="node">
<title>n_4_6</title>
<polygon fill="none" stroke="black" points="314.12,-84.38 314.12,-109.62 364.12,-109.62 364.12,-84.38 314.12,-84.38"/>
<text text-anchor="start" x="321.12" y="-95.08" font-family="Times New Roman,serif" font-weight="bold" font-size="9.00">Obesity I</text>
<polygon fill="none" stroke="black" points="364.12,-84.38 364.12,-109.62 420.12,-109.62 420.12,-84.38 364.12,-84.38"/>
<text text-anchor="start" x="371.12" y="-95.08" font-family="Times New Roman,serif" font-weight="bold" font-size="9.00">Obesity III</text>
<polygon fill="none" stroke="black" points="313.12,-83.38 313.12,-110.62 421.12,-110.62 421.12,-83.38 313.12,-83.38"/>
</g>
<!-- n_2_4_6&#45;&gt;n_4_6 -->
<g id="edge8" class="edge">
<title>n_2_4_6&#45;&gt;n_4_6</title>
<path fill="none" stroke="black" d="M376.91,-158.22C375.34,-148.54 373.42,-136.72 371.69,-126.11"/>
<polygon fill="black" stroke="black" points="375.16,-125.65 370.1,-116.34 368.25,-126.77 375.16,-125.65"/>
</g>
<!-- n_2 -->
<g id="node12" class="node">
<title>n_2</title>
<polygon fill="none" stroke="black" points="467.62,-84.38 467.62,-109.62 532.62,-109.62 532.62,-84.38 467.62,-84.38"/>
<text text-anchor="start" x="474.62" y="-95.08" font-family="Times New Roman,serif" font-weight="bold" font-size="9.00">Overweight I</text>
<polygon fill="none" stroke="black" points="466.62,-83.38 466.62,-110.62 533.62,-110.62 533.62,-83.38 466.62,-83.38"/>
</g>
<!-- n_2_4_6&#45;&gt;n_2 -->
<g id="edge11" class="edge">
<title>n_2_4_6&#45;&gt;n_2</title>
<path fill="none" stroke="black" d="M410.1,-158.02C426.97,-146.77 448.1,-132.68 465.65,-120.98"/>
<polygon fill="black" stroke="black" points="467.35,-124.06 473.73,-115.6 463.47,-118.23 467.35,-124.06"/>
</g>
<!-- n_4 -->
<g id="node10" class="node">
<title>n_4</title>
<polygon fill="none" stroke="black" points="277.12,-5.38 277.12,-30.62 327.12,-30.62 327.12,-5.38 277.12,-5.38"/>
<text text-anchor="start" x="284.12" y="-16.07" font-family="Times New Roman,serif" font-weight="bold" font-size="9.00">Obesity I</text>
<polygon fill="none" stroke="black" points="276.12,-4.38 276.12,-31.62 328.12,-31.62 328.12,-4.38 276.12,-4.38"/>
</g>
<!-- n_4_6&#45;&gt;n_4 -->
<g id="edge9" class="edge">
<title>n_4_6&#45;&gt;n_4</title>
<path fill="none" stroke="black" d="M353.02,-79.29C344.48,-69.17 333.4,-56.05 323.77,-44.64"/>
<polygon fill="black" stroke="black" points="326.53,-42.48 317.4,-37.1 321.18,-47 326.53,-42.48"/>
</g>
<!-- n_6 -->
<g id="node11" class="node">
<title>n_6</title>
<polygon fill="none" stroke="black" points="374.12,-5.38 374.12,-30.62 430.12,-30.62 430.12,-5.38 374.12,-5.38"/>
<text text-anchor="start" x="381.12" y="-16.07" font-family="Times New Roman,serif" font-weight="bold" font-size="9.00">Obesity III</text>
<polygon fill="none" stroke="black" points="373.12,-4.38 373.12,-31.62 431.12,-31.62 431.12,-4.38 373.12,-4.38"/>
</g>
<!-- n_4_6&#45;&gt;n_6 -->
<g id="edge10" class="edge">
<title>n_4_6&#45;&gt;n_6</title>
<path fill="none" stroke="black" d="M374.72,-79.29C379.09,-69.67 384.7,-57.34 389.69,-46.35"/>
<polygon fill="black" stroke="black" points="392.85,-47.87 393.8,-37.32 386.47,-44.97 392.85,-47.87"/>
</g>
</g>
</svg>
