<?xml version="1.0" encoding="UTF-8" standalone="no"?>
<!DOCTYPE svg PUBLIC "-//W3C//DTD SVG 1.1//EN"
 "http://www.w3.org/Graphics/SVG/1.1/DTD/svg11.dtd">
<!-- Generated by graphviz version 10.0.1 (20240210.2158)
 -->
<!-- Title: ND Pages: 1 -->
<svg width="612pt" height="405pt"
 viewBox="0.00 0.00 611.50 405.00" xmlns="http://www.w3.org/2000/svg" xmlns:xlink="http://www.w3.org/1999/xlink">
<g id="graph0" class="graph" transform="scale(1 1) rotate(0) translate(4 401)">
<title>ND</title>
<polygon fill="white" stroke="none" points="-4,4 -4,-401 607.5,-401 607.5,4 -4,4"/>
<!-- n_0_1_2_3_4_5_6 -->
<g id="node1" class="node">
<title>n_0_1_2_3_4_5_6</title>
<polygon fill="none" stroke="black" points="255.38,-342 255.38,-392 320.38,-392 320.38,-342 255.38,-342"/>
<text text-anchor="start" x="272.88" y="-377.45" font-family="Times New Roman,serif" font-weight="bold" font-size="9.00">Normal</text>
<text text-anchor="start" x="262.38" y="-368.45" font-family="Times New Roman,serif" font-weight="bold" font-size="9.00">Overweight I</text>
<text text-anchor="start" x="269.88" y="-359.45" font-family="Times New Roman,serif" font-weight="bold" font-size="9.00">Obesity I</text>
<text text-anchor="start" x="266.88" y="-350.45" font-family="Times New Roman,serif" font-weight="bold" font-size="9.00">Obesity III</text>
<polygon fill="none" stroke="black" points="320.38,-342 320.38,-392 408.62,-392 408.62,-342 320.38,-342"/>
<text text-anchor="start" x="327.38" y="-372.95" font-family="Times New Roman,serif" font-weight="bold" font-size="9.00">Insufficient weight</text>
<text text-anchor="start" x="337.5" y="-363.95" font-family="Times New Roman,serif" font-weight="bold" font-size="9.00">Overweight II</text>
<text text-anchor="start" x="345" y="-354.95" font-family="Times New Roman,serif" font-weight="bold" font-size="9.00">Obesity II</text>
<polygon fill="none" stroke="black" points="254.38,-341 254.38,-393 409.62,-393 409.62,-341 254.38,-341"/>
</g>
<!-- n_1_2_4_6 -->
<g id="node2" class="node">
<title>n_1_2_4_6</title>
<polygon fill="none" stroke="black" points="182.5,-248 182.5,-289 238.5,-289 238.5,-248 182.5,-248"/>
<text text-anchor="start" x="195.5" y="-274.45" font-family="Times New Roman,serif" font-weight="bold" font-size="9.00">Normal</text>
<text text-anchor="start" x="192.5" y="-265.45" font-family="Times New Roman,serif" font-weight="bold" font-size="9.00">Obesity I</text>
<text text-anchor="start" x="189.5" y="-256.45" font-family="Times New Roman,serif" font-weight="bold" font-size="9.00">Obesity III</text>
<polygon fill="none" stroke="black" points="238.5,-248 238.5,-289 303.5,-289 303.5,-248 238.5,-248"/>
<text text-anchor="start" x="245.5" y="-266.57" font-family="Times New Roman,serif" font-weight="bold" font-size="9.00">Overweight I</text>
<polygon fill="none" stroke="black" points="181.5,-247 181.5,-290 304.5,-290 304.5,-247 181.5,-247"/>
</g>
<!-- n_0_1_2_3_4_5_6&#45;&gt;n_1_2_4_6 -->
<g id="edge1" class="edge">
<title>n_0_1_2_3_4_5_6&#45;&gt;n_1_2_4_6</title>
<path fill="none" stroke="black" d="M305.3,-337.05C295.18,-326.08 283.59,-313.51 273.17,-302.22"/>
<polygon fill="black" stroke="black" points="275.86,-299.97 266.51,-294.99 270.71,-304.71 275.86,-299.97"/>
</g>
<!-- n_0_3_5 -->
<g id="node9" class="node">
<title>n_0_3_5</title>
<polygon fill="none" stroke="black" points="350.38,-252.5 350.38,-284.5 438.62,-284.5 438.62,-252.5 350.38,-252.5"/>
<text text-anchor="start" x="357.38" y="-269.95" font-family="Times New Roman,serif" font-weight="bold" font-size="9.00">Insufficient weight</text>
<text text-anchor="start" x="367.5" y="-260.95" font-family="Times New Roman,serif" font-weight="bold" font-size="9.00">Overweight II</text>
<polygon fill="none" stroke="black" points="438.62,-252.5 438.62,-284.5 491.62,-284.5 491.62,-252.5 438.62,-252.5"/>
<text text-anchor="start" x="445.62" y="-266.57" font-family="Times New Roman,serif" font-weight="bold" font-size="9.00">Obesity II</text>
<polygon fill="none" stroke="black" points="349.38,-251.5 349.38,-285.5 492.62,-285.5 492.62,-251.5 349.38,-251.5"/>
</g>
<!-- n_0_1_2_3_4_5_6&#45;&gt;n_0_3_5 -->
<g id="edge8" class="edge">
<title>n_0_1_2_3_4_5_6&#45;&gt;n_0_3_5</title>
<path fill="none" stroke="black" d="M358.7,-337.05C370.27,-324.51 383.75,-309.89 395.21,-297.46"/>
<polygon fill="black" stroke="black" points="397.54,-300.1 401.75,-290.37 392.4,-295.35 397.54,-300.1"/>
</g>
<!-- n_1_4_6 -->
<g id="node3" class="node">
<title>n_1_4_6</title>
<polygon fill="none" stroke="black" points="62,-163 62,-195 112,-195 112,-163 62,-163"/>
<text text-anchor="start" x="72" y="-180.45" font-family="Times New Roman,serif" font-weight="bold" font-size="9.00">Normal</text>
<text text-anchor="start" x="69" y="-171.45" font-family="Times New Roman,serif" font-weight="bold" font-size="9.00">Obesity I</text>
<polygon fill="none" stroke="black" points="112,-163 112,-195 168,-195 168,-163 112,-163"/>
<text text-anchor="start" x="119" y="-177.07" font-family="Times New Roman,serif" font-weight="bold" font-size="9.00">Obesity III</text>
<polygon fill="none" stroke="black" points="61,-162 61,-196 169,-196 169,-162 61,-162"/>
</g>
<!-- n_1_2_4_6&#45;&gt;n_1_4_6 -->
<g id="edge2" class="edge">
<title>n_1_2_4_6&#45;&gt;n_1_4_6</title>
<path fill="none" stroke="black" d="M207.34,-243.13C190.49,-231.61 170.36,-217.84 153.19,-206.11"/>
<polygon fill="black" stroke="black" points="155.48,-203.43 145.25,-200.68 151.53,-209.21 155.48,-203.43"/>
</g>
<!-- n_2 -->
<g id="node8" class="node">
<title>n_2</title>
<polygon fill="none" stroke="black" points="215.5,-166.38 215.5,-191.62 280.5,-191.62 280.5,-166.38 215.5,-166.38"/>
<text text-anchor="start" x="222.5" y="-177.07" font-family="Times New Roman,serif" font-weight="bold" font-size="9.00">Overweight I</text>
<polygon fill="none" stroke="black" points="214.5,-165.38 214.5,-192.62 281.5,-192.62 281.5,-165.38 214.5,-165.38"/>
</g>
<!-- n_1_2_4_6&#45;&gt;n_2 -->
<g id="edge7" class="edge">
<title>n_1_2_4_6&#45;&gt;n_2</title>
<path fill="none" stroke="black" d="M244.39,-243.13C245.01,-232.28 245.75,-219.45 246.39,-208.19"/>
<polygon fill="black" stroke="black" points="249.88,-208.47 246.96,-198.28 242.89,-208.07 249.88,-208.47"/>
</g>
<!-- n_1_4 -->
<g id="node4" class="node">
<title>n_1_4</title>
<polygon fill="none" stroke="black" points="31,-84.38 31,-109.62 75,-109.62 75,-84.38 31,-84.38"/>
<text text-anchor="start" x="38" y="-95.08" font-family="Times New Roman,serif" font-weight="bold" font-size="9.00">Normal</text>
<polygon fill="none" stroke="black" points="75,-84.38 75,-109.62 125,-109.62 125,-84.38 75,-84.38"/>
<text text-anchor="start" x="82" y="-95.08" font-family="Times New Roman,serif" font-weight="bold" font-size="9.00">Obesity I</text>
<polygon fill="none" stroke="black" points="30,-83.38 30,-110.62 126,-110.62 126,-83.38 30,-83.38"/>
</g>
<!-- n_1_4_6&#45;&gt;n_1_4 -->
<g id="edge3" class="edge">
<title>n_1_4_6&#45;&gt;n_1_4</title>
<path fill="none" stroke="black" d="M105.85,-158.22C101.23,-148.23 95.55,-135.95 90.53,-125.09"/>
<polygon fill="black" stroke="black" points="93.8,-123.82 86.43,-116.22 87.45,-126.76 93.8,-123.82"/>
</g>
<!-- n_6 -->
<g id="node7" class="node">
<title>n_6</title>
<polygon fill="none" stroke="black" points="172,-84.38 172,-109.62 228,-109.62 228,-84.38 172,-84.38"/>
<text text-anchor="start" x="179" y="-95.08" font-family="Times New Roman,serif" font-weight="bold" font-size="9.00">Obesity III</text>
<polygon fill="none" stroke="black" points="171,-83.38 171,-110.62 229,-110.62 229,-83.38 171,-83.38"/>
</g>
<!-- n_1_4_6&#45;&gt;n_6 -->
<g id="edge6" class="edge">
<title>n_1_4_6&#45;&gt;n_6</title>
<path fill="none" stroke="black" d="M136.01,-158.22C147.52,-147.4 161.87,-133.89 174.07,-122.41"/>
<polygon fill="black" stroke="black" points="176.12,-125.28 181,-115.88 171.32,-120.19 176.12,-125.28"/>
</g>
<!-- n_1 -->
<g id="node5" class="node">
<title>n_1</title>
<polygon fill="none" stroke="black" points="9,-5.38 9,-30.62 53,-30.62 53,-5.38 9,-5.38"/>
<text text-anchor="start" x="16" y="-16.07" font-family="Times New Roman,serif" font-weight="bold" font-size="9.00">Normal</text>
<polygon fill="none" stroke="black" points="8,-4.38 8,-31.62 54,-31.62 54,-4.38 8,-4.38"/>
</g>
<!-- n_1_4&#45;&gt;n_1 -->
<g id="edge4" class="edge">
<title>n_1_4&#45;&gt;n_1</title>
<path fill="none" stroke="black" d="M67.8,-79.29C61.81,-69.47 54.09,-56.83 47.27,-45.66"/>
<polygon fill="black" stroke="black" points="50.33,-43.95 42.13,-37.23 44.35,-47.59 50.33,-43.95"/>
</g>
<!-- n_4 -->
<g id="node6" class="node">
<title>n_4</title>
<polygon fill="none" stroke="black" points="100,-5.38 100,-30.62 150,-30.62 150,-5.38 100,-5.38"/>
<text text-anchor="start" x="107" y="-16.07" font-family="Times New Roman,serif" font-weight="bold" font-size="9.00">Obesity I</text>
<polygon fill="none" stroke="black" points="99,-4.38 99,-31.62 151,-31.62 151,-4.38 99,-4.38"/>
</g>
<!-- n_1_4&#45;&gt;n_4 -->
<g id="edge5" class="edge">
<title>n_1_4&#45;&gt;n_4</title>
<path fill="none" stroke="black" d="M88.2,-79.29C94.19,-69.47 101.91,-56.83 108.73,-45.66"/>
<polygon fill="black" stroke="black" points="111.65,-47.59 113.87,-37.23 105.67,-43.95 111.65,-47.59"/>
</g>
<!-- n_0_3 -->
<g id="node10" class="node">
<title>n_0_3</title>
<polygon fill="none" stroke="black" points="337.88,-166.38 337.88,-191.62 426.12,-191.62 426.12,-166.38 337.88,-166.38"/>
<text text-anchor="start" x="344.88" y="-177.07" font-family="Times New Roman,serif" font-weight="bold" font-size="9.00">Insufficient weight</text>
<polygon fill="none" stroke="black" points="426.12,-166.38 426.12,-191.62 494.12,-191.62 494.12,-166.38 426.12,-166.38"/>
<text text-anchor="start" x="433.12" y="-177.07" font-family="Times New Roman,serif" font-weight="bold" font-size="9.00">Overweight II</text>
<polygon fill="none" stroke="black" points="336.88,-165.38 336.88,-192.62 495.12,-192.62 495.12,-165.38 336.88,-165.38"/>
</g>
<!-- n_0_3_5&#45;&gt;n_0_3 -->
<g id="edge9" class="edge">
<title>n_0_3_5&#45;&gt;n_0_3</title>
<path fill="none" stroke="black" d="M419.87,-247.64C419.19,-235.91 418.34,-220.86 417.6,-207.94"/>
<polygon fill="black" stroke="black" points="421.11,-208.13 417.05,-198.34 414.12,-208.53 421.11,-208.13"/>
</g>
<!-- n_5 -->
<g id="node13" class="node">
<title>n_5</title>
<polygon fill="none" stroke="black" points="541.5,-166.38 541.5,-191.62 594.5,-191.62 594.5,-166.38 541.5,-166.38"/>
<text text-anchor="start" x="548.5" y="-177.07" font-family="Times New Roman,serif" font-weight="bold" font-size="9.00">Obesity II</text>
<polygon fill="none" stroke="black" points="540.5,-165.38 540.5,-192.62 595.5,-192.62 595.5,-165.38 540.5,-165.38"/>
</g>
<!-- n_0_3_5&#45;&gt;n_5 -->
<g id="edge12" class="edge">
<title>n_0_3_5&#45;&gt;n_5</title>
<path fill="none" stroke="black" d="M454.36,-247.64C476.89,-234.23 506.68,-216.5 530.11,-202.55"/>
<polygon fill="black" stroke="black" points="531.62,-205.73 538.42,-197.61 528.04,-199.71 531.62,-205.73"/>
</g>
<!-- n_0 -->
<g id="node11" class="node">
<title>n_0</title>
<polygon fill="none" stroke="black" points="322.88,-84.38 322.88,-109.62 411.12,-109.62 411.12,-84.38 322.88,-84.38"/>
<text text-anchor="start" x="329.88" y="-95.08" font-family="Times New Roman,serif" font-weight="bold" font-size="9.00">Insufficient weight</text>
<polygon fill="none" stroke="black" points="321.88,-83.38 321.88,-110.62 412.12,-110.62 412.12,-83.38 321.88,-83.38"/>
</g>
<!-- n_0_3&#45;&gt;n_0 -->
<g id="edge10" class="edge">
<title>n_0_3&#45;&gt;n_0</title>
<path fill="none" stroke="black" d="M405.61,-161.03C399.11,-150.43 390.61,-136.54 383.23,-124.51"/>
<polygon fill="black" stroke="black" points="386.38,-122.93 378.17,-116.23 380.41,-126.59 386.38,-122.93"/>
</g>
<!-- n_3 -->
<g id="node12" class="node">
<title>n_3</title>
<polygon fill="none" stroke="black" points="458,-84.38 458,-109.62 526,-109.62 526,-84.38 458,-84.38"/>
<text text-anchor="start" x="465" y="-95.08" font-family="Times New Roman,serif" font-weight="bold" font-size="9.00">Overweight II</text>
<polygon fill="none" stroke="black" points="457,-83.38 457,-110.62 527,-110.62 527,-83.38 457,-83.38"/>
</g>
<!-- n_0_3&#45;&gt;n_3 -->
<g id="edge11" class="edge">
<title>n_0_3&#45;&gt;n_3</title>
<path fill="none" stroke="black" d="M432.12,-161.03C442.6,-150 456.44,-135.43 468.18,-123.07"/>
<polygon fill="black" stroke="black" points="470.51,-125.7 474.86,-116.04 465.44,-120.88 470.51,-125.7"/>
</g>
</g>
</svg>
