<?xml version="1.0" encoding="UTF-8" standalone="no"?>
<!DOCTYPE svg PUBLIC "-//W3C//DTD SVG 1.1//EN"
 "http://www.w3.org/Graphics/SVG/1.1/DTD/svg11.dtd">
<!-- Generated by graphviz version 10.0.1 (20240210.2158)
 -->
<!-- Title: ND Pages: 1 -->
<svg width="592pt" height="405pt"
 viewBox="0.00 0.00 592.00 405.00" xmlns="http://www.w3.org/2000/svg" xmlns:xlink="http://www.w3.org/1999/xlink">
<g id="graph0" class="graph" transform="scale(1 1) rotate(0) translate(4 401)">
<title>ND</title>
<polygon fill="white" stroke="none" points="-4,4 -4,-401 588,-401 588,4 -4,4"/>
<!-- n_0_1_2_3_4_5_6 -->
<g id="node1" class="node">
<title>n_0_1_2_3_4_5_6</title>
<polygon fill="none" stroke="black" points="275.88,-342 275.88,-392 364.12,-392 364.12,-342 275.88,-342"/>
<text text-anchor="start" x="282.88" y="-377.45" font-family="Times New Roman,serif" font-weight="bold" font-size="9.00">Insufficient weight</text>
<text text-anchor="start" x="294.5" y="-368.45" font-family="Times New Roman,serif" font-weight="bold" font-size="9.00">Overweight I</text>
<text text-anchor="start" x="293" y="-359.45" font-family="Times New Roman,serif" font-weight="bold" font-size="9.00">Overweight II</text>
<text text-anchor="start" x="302" y="-350.45" font-family="Times New Roman,serif" font-weight="bold" font-size="9.00">Obesity I</text>
<polygon fill="none" stroke="black" points="364.12,-342 364.12,-392 420.12,-392 420.12,-342 364.12,-342"/>
<text text-anchor="start" x="377.12" y="-372.95" font-family="Times New Roman,serif" font-weight="bold" font-size="9.00">Normal</text>
<text text-anchor="start" x="372.62" y="-363.95" font-family="Times New Roman,serif" font-weight="bold" font-size="9.00">Obesity II</text>
<text text-anchor="start" x="371.12" y="-354.95" font-family="Times New Roman,serif" font-weight="bold" font-size="9.00">Obesity III</text>
<polygon fill="none" stroke="black" points="274.88,-341 274.88,-393 421.12,-393 421.12,-341 274.88,-341"/>
</g>
<!-- n_0_2_3_4 -->
<g id="node2" class="node">
<title>n_0_2_3_4</title>
<polygon fill="none" stroke="black" points="179.88,-248 179.88,-289 247.88,-289 247.88,-248 179.88,-248"/>
<text text-anchor="start" x="188.38" y="-274.45" font-family="Times New Roman,serif" font-weight="bold" font-size="9.00">Overweight I</text>
<text text-anchor="start" x="186.88" y="-265.45" font-family="Times New Roman,serif" font-weight="bold" font-size="9.00">Overweight II</text>
<text text-anchor="start" x="195.88" y="-256.45" font-family="Times New Roman,serif" font-weight="bold" font-size="9.00">Obesity I</text>
<polygon fill="none" stroke="black" points="247.88,-248 247.88,-289 336.12,-289 336.12,-248 247.88,-248"/>
<text text-anchor="start" x="254.88" y="-266.57" font-family="Times New Roman,serif" font-weight="bold" font-size="9.00">Insufficient weight</text>
<polygon fill="none" stroke="black" points="178.88,-247 178.88,-290 337.12,-290 337.12,-247 178.88,-247"/>
</g>
<!-- n_0_1_2_3_4_5_6&#45;&gt;n_0_2_3_4 -->
<g id="edge1" class="edge">
<title>n_0_1_2_3_4_5_6&#45;&gt;n_0_2_3_4</title>
<path fill="none" stroke="black" d="M321,-337.05C310.76,-326.08 299.05,-313.51 288.51,-302.22"/>
<polygon fill="black" stroke="black" points="291.15,-299.91 281.76,-294.98 286.03,-304.68 291.15,-299.91"/>
</g>
<!-- n_1_5_6 -->
<g id="node9" class="node">
<title>n_1_5_6</title>
<polygon fill="none" stroke="black" points="383.5,-252.5 383.5,-284.5 436.5,-284.5 436.5,-252.5 383.5,-252.5"/>
<text text-anchor="start" x="395" y="-269.95" font-family="Times New Roman,serif" font-weight="bold" font-size="9.00">Normal</text>
<text text-anchor="start" x="390.5" y="-260.95" font-family="Times New Roman,serif" font-weight="bold" font-size="9.00">Obesity II</text>
<polygon fill="none" stroke="black" points="436.5,-252.5 436.5,-284.5 492.5,-284.5 492.5,-252.5 436.5,-252.5"/>
<text text-anchor="start" x="443.5" y="-266.57" font-family="Times New Roman,serif" font-weight="bold" font-size="9.00">Obesity III</text>
<polygon fill="none" stroke="black" points="382.5,-251.5 382.5,-285.5 493.5,-285.5 493.5,-251.5 382.5,-251.5"/>
</g>
<!-- n_0_1_2_3_4_5_6&#45;&gt;n_1_5_6 -->
<g id="edge8" class="edge">
<title>n_0_1_2_3_4_5_6&#45;&gt;n_1_5_6</title>
<path fill="none" stroke="black" d="M375,-337.05C386.7,-324.51 400.34,-309.89 411.92,-297.46"/>
<polygon fill="black" stroke="black" points="414.28,-300.07 418.54,-290.37 409.16,-295.29 414.28,-300.07"/>
</g>
<!-- n_2_3_4 -->
<g id="node3" class="node">
<title>n_2_3_4</title>
<polygon fill="none" stroke="black" points="48.5,-163 48.5,-195 116.5,-195 116.5,-163 48.5,-163"/>
<text text-anchor="start" x="55.5" y="-180.45" font-family="Times New Roman,serif" font-weight="bold" font-size="9.00">Overweight II</text>
<text text-anchor="start" x="64.5" y="-171.45" font-family="Times New Roman,serif" font-weight="bold" font-size="9.00">Obesity I</text>
<polygon fill="none" stroke="black" points="116.5,-163 116.5,-195 181.5,-195 181.5,-163 116.5,-163"/>
<text text-anchor="start" x="123.5" y="-177.07" font-family="Times New Roman,serif" font-weight="bold" font-size="9.00">Overweight I</text>
<polygon fill="none" stroke="black" points="47.5,-162 47.5,-196 182.5,-196 182.5,-162 47.5,-162"/>
</g>
<!-- n_0_2_3_4&#45;&gt;n_2_3_4 -->
<g id="edge2" class="edge">
<title>n_0_2_3_4&#45;&gt;n_2_3_4</title>
<path fill="none" stroke="black" d="M218.17,-243.13C199.17,-231.5 176.43,-217.59 157.14,-205.78"/>
<polygon fill="black" stroke="black" points="159.05,-202.85 148.69,-200.62 155.4,-208.82 159.05,-202.85"/>
</g>
<!-- n_0 -->
<g id="node8" class="node">
<title>n_0</title>
<polygon fill="none" stroke="black" points="228.88,-166.38 228.88,-191.62 317.12,-191.62 317.12,-166.38 228.88,-166.38"/>
<text text-anchor="start" x="235.88" y="-177.07" font-family="Times New Roman,serif" font-weight="bold" font-size="9.00">Insufficient weight</text>
<polygon fill="none" stroke="black" points="227.88,-165.38 227.88,-192.62 318.12,-192.62 318.12,-165.38 227.88,-165.38"/>
</g>
<!-- n_0_2_3_4&#45;&gt;n_0 -->
<g id="edge7" class="edge">
<title>n_0_2_3_4&#45;&gt;n_0</title>
<path fill="none" stroke="black" d="M262.18,-243.13C264.06,-232.17 266.28,-219.18 268.23,-207.84"/>
<polygon fill="black" stroke="black" points="271.63,-208.71 269.87,-198.26 264.73,-207.53 271.63,-208.71"/>
</g>
<!-- n_3_4 -->
<g id="node4" class="node">
<title>n_3_4</title>
<polygon fill="none" stroke="black" points="37,-84.38 37,-109.62 105,-109.62 105,-84.38 37,-84.38"/>
<text text-anchor="start" x="44" y="-95.08" font-family="Times New Roman,serif" font-weight="bold" font-size="9.00">Overweight II</text>
<polygon fill="none" stroke="black" points="105,-84.38 105,-109.62 155,-109.62 155,-84.38 105,-84.38"/>
<text text-anchor="start" x="112" y="-95.08" font-family="Times New Roman,serif" font-weight="bold" font-size="9.00">Obesity I</text>
<polygon fill="none" stroke="black" points="36,-83.38 36,-110.62 156,-110.62 156,-83.38 36,-83.38"/>
</g>
<!-- n_2_3_4&#45;&gt;n_3_4 -->
<g id="edge3" class="edge">
<title>n_2_3_4&#45;&gt;n_3_4</title>
<path fill="none" stroke="black" d="M110.3,-158.22C107.98,-148.44 105.13,-136.46 102.6,-125.77"/>
<polygon fill="black" stroke="black" points="106.07,-125.24 100.35,-116.32 99.26,-126.85 106.07,-125.24"/>
</g>
<!-- n_2 -->
<g id="node7" class="node">
<title>n_2</title>
<polygon fill="none" stroke="black" points="202.5,-84.38 202.5,-109.62 267.5,-109.62 267.5,-84.38 202.5,-84.38"/>
<text text-anchor="start" x="209.5" y="-95.08" font-family="Times New Roman,serif" font-weight="bold" font-size="9.00">Overweight I</text>
<polygon fill="none" stroke="black" points="201.5,-83.38 201.5,-110.62 268.5,-110.62 268.5,-83.38 201.5,-83.38"/>
</g>
<!-- n_2_3_4&#45;&gt;n_2 -->
<g id="edge6" class="edge">
<title>n_2_3_4&#45;&gt;n_2</title>
<path fill="none" stroke="black" d="M144.97,-158.02C161.84,-146.77 182.98,-132.68 200.53,-120.98"/>
<polygon fill="black" stroke="black" points="202.22,-124.06 208.6,-115.6 198.34,-118.23 202.22,-124.06"/>
</g>
<!-- n_3 -->
<g id="node5" class="node">
<title>n_3</title>
<polygon fill="none" stroke="black" points="9,-5.38 9,-30.62 77,-30.62 77,-5.38 9,-5.38"/>
<text text-anchor="start" x="16" y="-16.07" font-family="Times New Roman,serif" font-weight="bold" font-size="9.00">Overweight II</text>
<polygon fill="none" stroke="black" points="8,-4.38 8,-31.62 78,-31.62 78,-4.38 8,-4.38"/>
</g>
<!-- n_3_4&#45;&gt;n_3 -->
<g id="edge4" class="edge">
<title>n_3_4&#45;&gt;n_3</title>
<path fill="none" stroke="black" d="M84.5,-79.29C77.67,-69.37 68.86,-56.57 61.12,-45.32"/>
<polygon fill="black" stroke="black" points="64.07,-43.44 55.52,-37.19 58.31,-47.41 64.07,-43.44"/>
</g>
<!-- n_4 -->
<g id="node6" class="node">
<title>n_4</title>
<polygon fill="none" stroke="black" points="124,-5.38 124,-30.62 174,-30.62 174,-5.38 124,-5.38"/>
<text text-anchor="start" x="131" y="-16.07" font-family="Times New Roman,serif" font-weight="bold" font-size="9.00">Obesity I</text>
<polygon fill="none" stroke="black" points="123,-4.38 123,-31.62 175,-31.62 175,-4.38 123,-4.38"/>
</g>
<!-- n_3_4&#45;&gt;n_4 -->
<g id="edge5" class="edge">
<title>n_3_4&#45;&gt;n_4</title>
<path fill="none" stroke="black" d="M107.5,-79.29C114.33,-69.37 123.14,-56.57 130.88,-45.32"/>
<polygon fill="black" stroke="black" points="133.69,-47.41 136.48,-37.19 127.93,-43.44 133.69,-47.41"/>
</g>
<!-- n_1_5 -->
<g id="node10" class="node">
<title>n_1_5</title>
<polygon fill="none" stroke="black" points="374.5,-166.38 374.5,-191.62 418.5,-191.62 418.5,-166.38 374.5,-166.38"/>
<text text-anchor="start" x="381.5" y="-177.07" font-family="Times New Roman,serif" font-weight="bold" font-size="9.00">Normal</text>
<polygon fill="none" stroke="black" points="418.5,-166.38 418.5,-191.62 471.5,-191.62 471.5,-166.38 418.5,-166.38"/>
<text text-anchor="start" x="425.5" y="-177.07" font-family="Times New Roman,serif" font-weight="bold" font-size="9.00">Obesity II</text>
<polygon fill="none" stroke="black" points="373.5,-165.38 373.5,-192.62 472.5,-192.62 472.5,-165.38 373.5,-165.38"/>
</g>
<!-- n_1_5_6&#45;&gt;n_1_5 -->
<g id="edge9" class="edge">
<title>n_1_5_6&#45;&gt;n_1_5</title>
<path fill="none" stroke="black" d="M434.6,-247.64C432.58,-235.91 430.01,-220.86 427.79,-207.94"/>
<polygon fill="black" stroke="black" points="431.28,-207.59 426.14,-198.32 424.38,-208.77 431.28,-207.59"/>
</g>
<!-- n_6 -->
<g id="node13" class="node">
<title>n_6</title>
<polygon fill="none" stroke="black" points="519,-166.38 519,-191.62 575,-191.62 575,-166.38 519,-166.38"/>
<text text-anchor="start" x="526" y="-177.07" font-family="Times New Roman,serif" font-weight="bold" font-size="9.00">Obesity III</text>
<polygon fill="none" stroke="black" points="518,-165.38 518,-192.62 576,-192.62 576,-165.38 518,-165.38"/>
</g>
<!-- n_1_5_6&#45;&gt;n_6 -->
<g id="edge12" class="edge">
<title>n_1_5_6&#45;&gt;n_6</title>
<path fill="none" stroke="black" d="M462.73,-247.64C478.99,-234.59 500.35,-217.45 517.5,-203.68"/>
<polygon fill="black" stroke="black" points="519.24,-206.77 524.85,-197.78 514.86,-201.31 519.24,-206.77"/>
</g>
<!-- n_1 -->
<g id="node11" class="node">
<title>n_1</title>
<polygon fill="none" stroke="black" points="358,-84.38 358,-109.62 402,-109.62 402,-84.38 358,-84.38"/>
<text text-anchor="start" x="365" y="-95.08" font-family="Times New Roman,serif" font-weight="bold" font-size="9.00">Normal</text>
<polygon fill="none" stroke="black" points="357,-83.38 357,-110.62 403,-110.62 403,-83.38 357,-83.38"/>
</g>
<!-- n_1_5&#45;&gt;n_1 -->
<g id="edge10" class="edge">
<title>n_1_5&#45;&gt;n_1</title>
<path fill="none" stroke="black" d="M413.88,-161.03C408.24,-150.53 400.87,-136.82 394.44,-124.87"/>
<polygon fill="black" stroke="black" points="397.64,-123.43 389.82,-116.27 391.47,-126.74 397.64,-123.43"/>
</g>
<!-- n_5 -->
<g id="node12" class="node">
<title>n_5</title>
<polygon fill="none" stroke="black" points="449.5,-84.38 449.5,-109.62 502.5,-109.62 502.5,-84.38 449.5,-84.38"/>
<text text-anchor="start" x="456.5" y="-95.08" font-family="Times New Roman,serif" font-weight="bold" font-size="9.00">Obesity II</text>
<polygon fill="none" stroke="black" points="448.5,-83.38 448.5,-110.62 503.5,-110.62 503.5,-83.38 448.5,-83.38"/>
</g>
<!-- n_1_5&#45;&gt;n_5 -->
<g id="edge11" class="edge">
<title>n_1_5&#45;&gt;n_5</title>
<path fill="none" stroke="black" d="M434.24,-161.03C441.27,-150.43 450.46,-136.54 458.44,-124.51"/>
<polygon fill="black" stroke="black" points="461.34,-126.47 463.94,-116.2 455.5,-122.61 461.34,-126.47"/>
</g>
</g>
</svg>
