<?xml version="1.0" encoding="UTF-8" standalone="no"?>
<!DOCTYPE svg PUBLIC "-//W3C//DTD SVG 1.1//EN"
 "http://www.w3.org/Graphics/SVG/1.1/DTD/svg11.dtd">
<!-- Generated by graphviz version 10.0.1 (20240210.2158)
 -->
<!-- Title: ND Pages: 1 -->
<svg width="552pt" height="423pt"
 viewBox="0.00 0.00 552.12 423.00" xmlns="http://www.w3.org/2000/svg" xmlns:xlink="http://www.w3.org/1999/xlink">
<g id="graph0" class="graph" transform="scale(1 1) rotate(0) translate(4 419)">
<title>ND</title>
<polygon fill="white" stroke="none" points="-4,4 -4,-419 548.12,-419 548.12,4 -4,4"/>
<!-- n_0_1_2_3_4_5_6 -->
<g id="node1" class="node">
<title>n_0_1_2_3_4_5_6</title>
<polygon fill="none" stroke="black" points="304.5,-342 304.5,-410 392.75,-410 392.75,-342 304.5,-342"/>
<text text-anchor="start" x="311.5" y="-395.45" font-family="Times New Roman,serif" font-weight="bold" font-size="9.00">Insufficient weight</text>
<text text-anchor="start" x="333.62" y="-386.45" font-family="Times New Roman,serif" font-weight="bold" font-size="9.00">Normal</text>
<text text-anchor="start" x="321.62" y="-377.45" font-family="Times New Roman,serif" font-weight="bold" font-size="9.00">Overweight II</text>
<text text-anchor="start" x="330.62" y="-368.45" font-family="Times New Roman,serif" font-weight="bold" font-size="9.00">Obesity I</text>
<text text-anchor="start" x="329.12" y="-359.45" font-family="Times New Roman,serif" font-weight="bold" font-size="9.00">Obesity II</text>
<text text-anchor="start" x="327.62" y="-350.45" font-family="Times New Roman,serif" font-weight="bold" font-size="9.00">Obesity III</text>
<polygon fill="none" stroke="black" points="392.75,-342 392.75,-410 457.75,-410 457.75,-342 392.75,-342"/>
<text text-anchor="start" x="399.75" y="-374.07" font-family="Times New Roman,serif" font-weight="bold" font-size="9.00">Overweight I</text>
<polygon fill="none" stroke="black" points="303.5,-341 303.5,-411 458.75,-411 458.75,-341 303.5,-341"/>
</g>
<!-- n_0_1_3_4_5_6 -->
<g id="node2" class="node">
<title>n_0_1_3_4_5_6</title>
<polygon fill="none" stroke="black" points="233,-248 233,-289 321.25,-289 321.25,-248 233,-248"/>
<text text-anchor="start" x="240" y="-274.45" font-family="Times New Roman,serif" font-weight="bold" font-size="9.00">Insufficient weight</text>
<text text-anchor="start" x="250.12" y="-265.45" font-family="Times New Roman,serif" font-weight="bold" font-size="9.00">Overweight II</text>
<text text-anchor="start" x="259.12" y="-256.45" font-family="Times New Roman,serif" font-weight="bold" font-size="9.00">Obesity I</text>
<polygon fill="none" stroke="black" points="321.25,-248 321.25,-289 377.25,-289 377.25,-248 321.25,-248"/>
<text text-anchor="start" x="334.25" y="-274.45" font-family="Times New Roman,serif" font-weight="bold" font-size="9.00">Normal</text>
<text text-anchor="start" x="329.75" y="-265.45" font-family="Times New Roman,serif" font-weight="bold" font-size="9.00">Obesity II</text>
<text text-anchor="start" x="328.25" y="-256.45" font-family="Times New Roman,serif" font-weight="bold" font-size="9.00">Obesity III</text>
<polygon fill="none" stroke="black" points="232,-247 232,-290 378.25,-290 378.25,-247 232,-247"/>
</g>
<!-- n_0_1_2_3_4_5_6&#45;&gt;n_0_1_3_4_5_6 -->
<g id="edge1" class="edge">
<title>n_0_1_2_3_4_5_6&#45;&gt;n_0_1_3_4_5_6</title>
<path fill="none" stroke="black" d="M353.9,-337.21C345.86,-326.05 337.12,-313.92 329.29,-303.05"/>
<polygon fill="black" stroke="black" points="332.25,-301.17 323.57,-295.1 326.57,-305.26 332.25,-301.17"/>
</g>
<!-- n_2 -->
<g id="node13" class="node">
<title>n_2</title>
<polygon fill="none" stroke="black" points="424.62,-255.88 424.62,-281.12 489.62,-281.12 489.62,-255.88 424.62,-255.88"/>
<text text-anchor="start" x="431.62" y="-266.57" font-family="Times New Roman,serif" font-weight="bold" font-size="9.00">Overweight I</text>
<polygon fill="none" stroke="black" points="423.62,-254.88 423.62,-282.12 490.62,-282.12 490.62,-254.88 423.62,-254.88"/>
</g>
<!-- n_0_1_2_3_4_5_6&#45;&gt;n_2 -->
<g id="edge12" class="edge">
<title>n_0_1_2_3_4_5_6&#45;&gt;n_2</title>
<path fill="none" stroke="black" d="M408.35,-337.21C418.33,-323.36 429.39,-308.01 438.45,-295.43"/>
<polygon fill="black" stroke="black" points="441.05,-297.81 444.05,-287.65 435.37,-293.71 441.05,-297.81"/>
</g>
<!-- n_0_3_4 -->
<g id="node3" class="node">
<title>n_0_3_4</title>
<polygon fill="none" stroke="black" points="137,-163 137,-195 225.25,-195 225.25,-163 137,-163"/>
<text text-anchor="start" x="144" y="-180.45" font-family="Times New Roman,serif" font-weight="bold" font-size="9.00">Insufficient weight</text>
<text text-anchor="start" x="163.12" y="-171.45" font-family="Times New Roman,serif" font-weight="bold" font-size="9.00">Obesity I</text>
<polygon fill="none" stroke="black" points="225.25,-163 225.25,-195 293.25,-195 293.25,-163 225.25,-163"/>
<text text-anchor="start" x="232.25" y="-177.07" font-family="Times New Roman,serif" font-weight="bold" font-size="9.00">Overweight II</text>
<polygon fill="none" stroke="black" points="136,-162 136,-196 294.25,-196 294.25,-162 136,-162"/>
</g>
<!-- n_0_1_3_4_5_6&#45;&gt;n_0_3_4 -->
<g id="edge2" class="edge">
<title>n_0_1_3_4_5_6&#45;&gt;n_0_3_4</title>
<path fill="none" stroke="black" d="M280.05,-243.13C268.75,-232.14 255.35,-219.11 243.67,-207.75"/>
<polygon fill="black" stroke="black" points="246.21,-205.34 236.6,-200.88 241.33,-210.36 246.21,-205.34"/>
</g>
<!-- n_1_5_6 -->
<g id="node8" class="node">
<title>n_1_5_6</title>
<polygon fill="none" stroke="black" points="340.62,-163 340.62,-195 393.62,-195 393.62,-163 340.62,-163"/>
<text text-anchor="start" x="352.12" y="-180.45" font-family="Times New Roman,serif" font-weight="bold" font-size="9.00">Normal</text>
<text text-anchor="start" x="347.62" y="-171.45" font-family="Times New Roman,serif" font-weight="bold" font-size="9.00">Obesity II</text>
<polygon fill="none" stroke="black" points="393.62,-163 393.62,-195 449.62,-195 449.62,-163 393.62,-163"/>
<text text-anchor="start" x="400.62" y="-177.07" font-family="Times New Roman,serif" font-weight="bold" font-size="9.00">Obesity III</text>
<polygon fill="none" stroke="black" points="339.62,-162 339.62,-196 450.62,-196 450.62,-162 339.62,-162"/>
</g>
<!-- n_0_1_3_4_5_6&#45;&gt;n_1_5_6 -->
<g id="edge7" class="edge">
<title>n_0_1_3_4_5_6&#45;&gt;n_1_5_6</title>
<path fill="none" stroke="black" d="M330.2,-243.13C341.5,-232.14 354.9,-219.11 366.58,-207.75"/>
<polygon fill="black" stroke="black" points="368.92,-210.36 373.65,-200.88 364.04,-205.34 368.92,-210.36"/>
</g>
<!-- n_0_4 -->
<g id="node4" class="node">
<title>n_0_4</title>
<polygon fill="none" stroke="black" points="9,-84.38 9,-109.62 97.25,-109.62 97.25,-84.38 9,-84.38"/>
<text text-anchor="start" x="16" y="-95.08" font-family="Times New Roman,serif" font-weight="bold" font-size="9.00">Insufficient weight</text>
<polygon fill="none" stroke="black" points="97.25,-84.38 97.25,-109.62 147.25,-109.62 147.25,-84.38 97.25,-84.38"/>
<text text-anchor="start" x="104.25" y="-95.08" font-family="Times New Roman,serif" font-weight="bold" font-size="9.00">Obesity I</text>
<polygon fill="none" stroke="black" points="8,-83.38 8,-110.62 148.25,-110.62 148.25,-83.38 8,-83.38"/>
</g>
<!-- n_0_3_4&#45;&gt;n_0_4 -->
<g id="edge3" class="edge">
<title>n_0_3_4&#45;&gt;n_0_4</title>
<path fill="none" stroke="black" d="M180.91,-158.02C161.38,-146.62 136.85,-132.29 116.65,-120.49"/>
<polygon fill="black" stroke="black" points="118.53,-117.54 108.13,-115.52 115,-123.59 118.53,-117.54"/>
</g>
<!-- n_3 -->
<g id="node7" class="node">
<title>n_3</title>
<polygon fill="none" stroke="black" points="194.12,-84.38 194.12,-109.62 262.12,-109.62 262.12,-84.38 194.12,-84.38"/>
<text text-anchor="start" x="201.12" y="-95.08" font-family="Times New Roman,serif" font-weight="bold" font-size="9.00">Overweight II</text>
<polygon fill="none" stroke="black" points="193.12,-83.38 193.12,-110.62 263.12,-110.62 263.12,-83.38 193.12,-83.38"/>
</g>
<!-- n_0_3_4&#45;&gt;n_3 -->
<g id="edge6" class="edge">
<title>n_0_3_4&#45;&gt;n_3</title>
<path fill="none" stroke="black" d="M218.34,-158.22C219.91,-148.54 221.83,-136.72 223.56,-126.11"/>
<polygon fill="black" stroke="black" points="227,-126.77 225.15,-116.34 220.09,-125.65 227,-126.77"/>
</g>
<!-- n_0 -->
<g id="node5" class="node">
<title>n_0</title>
<polygon fill="none" stroke="black" points="21,-5.38 21,-30.62 109.25,-30.62 109.25,-5.38 21,-5.38"/>
<text text-anchor="start" x="28" y="-16.07" font-family="Times New Roman,serif" font-weight="bold" font-size="9.00">Insufficient weight</text>
<polygon fill="none" stroke="black" points="20,-4.38 20,-31.62 110.25,-31.62 110.25,-4.38 20,-4.38"/>
</g>
<!-- n_0_4&#45;&gt;n_0 -->
<g id="edge4" class="edge">
<title>n_0_4&#45;&gt;n_0</title>
<path fill="none" stroke="black" d="M75.3,-79.29C73.71,-69.87 71.69,-57.86 69.86,-47.04"/>
<polygon fill="black" stroke="black" points="73.35,-46.71 68.24,-37.43 66.45,-47.88 73.35,-46.71"/>
</g>
<!-- n_4 -->
<g id="node6" class="node">
<title>n_4</title>
<polygon fill="none" stroke="black" points="156.12,-5.38 156.12,-30.62 206.12,-30.62 206.12,-5.38 156.12,-5.38"/>
<text text-anchor="start" x="163.12" y="-16.07" font-family="Times New Roman,serif" font-weight="bold" font-size="9.00">Obesity I</text>
<polygon fill="none" stroke="black" points="155.12,-4.38 155.12,-31.62 207.12,-31.62 207.12,-4.38 155.12,-4.38"/>
</g>
<!-- n_0_4&#45;&gt;n_4 -->
<g id="edge5" class="edge">
<title>n_0_4&#45;&gt;n_4</title>
<path fill="none" stroke="black" d="M100.73,-79.1C115.08,-68.37 133.87,-54.33 149.67,-42.51"/>
<polygon fill="black" stroke="black" points="151.45,-45.56 157.36,-36.76 147.26,-39.95 151.45,-45.56"/>
</g>
<!-- n_1_5 -->
<g id="node9" class="node">
<title>n_1_5</title>
<polygon fill="none" stroke="black" points="334.62,-84.38 334.62,-109.62 378.62,-109.62 378.62,-84.38 334.62,-84.38"/>
<text text-anchor="start" x="341.62" y="-95.08" font-family="Times New Roman,serif" font-weight="bold" font-size="9.00">Normal</text>
<polygon fill="none" stroke="black" points="378.62,-84.38 378.62,-109.62 431.62,-109.62 431.62,-84.38 378.62,-84.38"/>
<text text-anchor="start" x="385.62" y="-95.08" font-family="Times New Roman,serif" font-weight="bold" font-size="9.00">Obesity II</text>
<polygon fill="none" stroke="black" points="333.62,-83.38 333.62,-110.62 432.62,-110.62 432.62,-83.38 333.62,-83.38"/>
</g>
<!-- n_1_5_6&#45;&gt;n_1_5 -->
<g id="edge8" class="edge">
<title>n_1_5_6&#45;&gt;n_1_5</title>
<path fill="none" stroke="black" d="M392.16,-158.22C390.71,-148.54 388.93,-136.72 387.34,-126.11"/>
<polygon fill="black" stroke="black" points="390.82,-125.71 385.88,-116.34 383.9,-126.75 390.82,-125.71"/>
</g>
<!-- n_6 -->
<g id="node12" class="node">
<title>n_6</title>
<polygon fill="none" stroke="black" points="479.12,-84.38 479.12,-109.62 535.12,-109.62 535.12,-84.38 479.12,-84.38"/>
<text text-anchor="start" x="486.12" y="-95.08" font-family="Times New Roman,serif" font-weight="bold" font-size="9.00">Obesity III</text>
<polygon fill="none" stroke="black" points="478.12,-83.38 478.12,-110.62 536.12,-110.62 536.12,-83.38 478.12,-83.38"/>
</g>
<!-- n_1_5_6&#45;&gt;n_6 -->
<g id="edge11" class="edge">
<title>n_1_5_6&#45;&gt;n_6</title>
<path fill="none" stroke="black" d="M423.1,-158.02C438.7,-146.88 458.2,-132.94 474.5,-121.31"/>
<polygon fill="black" stroke="black" points="476.33,-124.3 482.43,-115.64 472.26,-118.6 476.33,-124.3"/>
</g>
<!-- n_1 -->
<g id="node10" class="node">
<title>n_1</title>
<polygon fill="none" stroke="black" points="294.12,-5.38 294.12,-30.62 338.12,-30.62 338.12,-5.38 294.12,-5.38"/>
<text text-anchor="start" x="301.12" y="-16.07" font-family="Times New Roman,serif" font-weight="bold" font-size="9.00">Normal</text>
<polygon fill="none" stroke="black" points="293.12,-4.38 293.12,-31.62 339.12,-31.62 339.12,-4.38 293.12,-4.38"/>
</g>
<!-- n_1_5&#45;&gt;n_1 -->
<g id="edge9" class="edge">
<title>n_1_5&#45;&gt;n_1</title>
<path fill="none" stroke="black" d="M368.59,-79.29C359.69,-69.07 348.14,-55.79 338.14,-44.3"/>
<polygon fill="black" stroke="black" points="341.06,-42.33 331.86,-37.08 335.78,-46.92 341.06,-42.33"/>
</g>
<!-- n_5 -->
<g id="node11" class="node">
<title>n_5</title>
<polygon fill="none" stroke="black" points="385.62,-5.38 385.62,-30.62 438.62,-30.62 438.62,-5.38 385.62,-5.38"/>
<text text-anchor="start" x="392.62" y="-16.07" font-family="Times New Roman,serif" font-weight="bold" font-size="9.00">Obesity II</text>
<polygon fill="none" stroke="black" points="384.62,-4.38 384.62,-31.62 439.62,-31.62 439.62,-4.38 384.62,-4.38"/>
</g>
<!-- n_1_5&#45;&gt;n_5 -->
<g id="edge10" class="edge">
<title>n_1_5&#45;&gt;n_5</title>
<path fill="none" stroke="black" d="M389.42,-79.29C393,-69.77 397.59,-57.6 401.7,-46.69"/>
<polygon fill="black" stroke="black" points="404.96,-47.95 405.21,-37.36 398.41,-45.48 404.96,-47.95"/>
</g>
</g>
</svg>
