<?xml version="1.0" encoding="UTF-8" standalone="no"?>
<!DOCTYPE svg PUBLIC "-//W3C//DTD SVG 1.1//EN"
 "http://www.w3.org/Graphics/SVG/1.1/DTD/svg11.dtd">
<!-- Generated by graphviz version 10.0.1 (20240210.2158)
 -->
<!-- Title: ND Pages: 1 -->
<svg width="664pt" height="517pt"
 viewBox="0.00 0.00 664.00 517.00" xmlns="http://www.w3.org/2000/svg" xmlns:xlink="http://www.w3.org/1999/xlink">
<g id="graph0" class="graph" transform="scale(1 1) rotate(0) translate(4 513)">
<title>ND</title>
<polygon fill="white" stroke="none" points="-4,4 -4,-513 660,-513 660,4 -4,4"/>
<!-- n_0_1_2_3_4_5_6 -->
<g id="node1" class="node">
<title>n_0_1_2_3_4_5_6</title>
<polygon fill="none" stroke="black" points="375.88,-445 375.88,-504 464.12,-504 464.12,-445 375.88,-445"/>
<text text-anchor="start" x="382.88" y="-489.45" font-family="Times New Roman,serif" font-weight="bold" font-size="9.00">Insufficient weight</text>
<text text-anchor="start" x="405" y="-480.45" font-family="Times New Roman,serif" font-weight="bold" font-size="9.00">Normal</text>
<text text-anchor="start" x="394.5" y="-471.45" font-family="Times New Roman,serif" font-weight="bold" font-size="9.00">Overweight I</text>
<text text-anchor="start" x="393" y="-462.45" font-family="Times New Roman,serif" font-weight="bold" font-size="9.00">Overweight II</text>
<text text-anchor="start" x="400.5" y="-453.45" font-family="Times New Roman,serif" font-weight="bold" font-size="9.00">Obesity II</text>
<polygon fill="none" stroke="black" points="464.12,-445 464.12,-504 520.12,-504 520.12,-445 464.12,-445"/>
<text text-anchor="start" x="474.12" y="-475.95" font-family="Times New Roman,serif" font-weight="bold" font-size="9.00">Obesity I</text>
<text text-anchor="start" x="471.12" y="-466.95" font-family="Times New Roman,serif" font-weight="bold" font-size="9.00">Obesity III</text>
<polygon fill="none" stroke="black" points="374.88,-444 374.88,-505 521.12,-505 521.12,-444 374.88,-444"/>
</g>
<!-- n_0_1_2_3_5 -->
<g id="node2" class="node">
<title>n_0_1_2_3_5</title>
<polygon fill="none" stroke="black" points="283.38,-342 283.38,-392 371.62,-392 371.62,-342 283.38,-342"/>
<text text-anchor="start" x="290.38" y="-377.45" font-family="Times New Roman,serif" font-weight="bold" font-size="9.00">Insufficient weight</text>
<text text-anchor="start" x="312.5" y="-368.45" font-family="Times New Roman,serif" font-weight="bold" font-size="9.00">Normal</text>
<text text-anchor="start" x="300.5" y="-359.45" font-family="Times New Roman,serif" font-weight="bold" font-size="9.00">Overweight II</text>
<text text-anchor="start" x="308" y="-350.45" font-family="Times New Roman,serif" font-weight="bold" font-size="9.00">Obesity II</text>
<polygon fill="none" stroke="black" points="371.62,-342 371.62,-392 436.62,-392 436.62,-342 371.62,-342"/>
<text text-anchor="start" x="378.62" y="-365.07" font-family="Times New Roman,serif" font-weight="bold" font-size="9.00">Overweight I</text>
<polygon fill="none" stroke="black" points="282.38,-341 282.38,-393 437.62,-393 437.62,-341 282.38,-341"/>
</g>
<!-- n_0_1_2_3_4_5_6&#45;&gt;n_0_1_2_3_5 -->
<g id="edge1" class="edge">
<title>n_0_1_2_3_4_5_6&#45;&gt;n_0_1_2_3_5</title>
<path fill="none" stroke="black" d="M420.16,-440.12C411.02,-429.16 400.8,-416.91 391.42,-405.66"/>
<polygon fill="black" stroke="black" points="394.17,-403.5 385.07,-398.06 388.79,-407.98 394.17,-403.5"/>
</g>
<!-- n_4_6 -->
<g id="node11" class="node">
<title>n_4_6</title>
<polygon fill="none" stroke="black" points="484,-354.38 484,-379.62 534,-379.62 534,-354.38 484,-354.38"/>
<text text-anchor="start" x="491" y="-365.07" font-family="Times New Roman,serif" font-weight="bold" font-size="9.00">Obesity I</text>
<polygon fill="none" stroke="black" points="534,-354.38 534,-379.62 590,-379.62 590,-354.38 534,-354.38"/>
<text text-anchor="start" x="541" y="-365.07" font-family="Times New Roman,serif" font-weight="bold" font-size="9.00">Obesity III</text>
<polygon fill="none" stroke="black" points="483,-353.38 483,-380.62 591,-380.62 591,-353.38 483,-353.38"/>
</g>
<!-- n_0_1_2_3_4_5_6&#45;&gt;n_4_6 -->
<g id="edge10" class="edge">
<title>n_0_1_2_3_4_5_6&#45;&gt;n_4_6</title>
<path fill="none" stroke="black" d="M476.16,-440.12C488.86,-425.06 503.62,-407.57 515.42,-393.58"/>
<polygon fill="black" stroke="black" points="517.95,-396.01 521.72,-386.11 512.6,-391.49 517.95,-396.01"/>
</g>
<!-- n_0_1_3_5 -->
<g id="node3" class="node">
<title>n_0_1_3_5</title>
<polygon fill="none" stroke="black" points="141.88,-248 141.88,-289 209.88,-289 209.88,-248 141.88,-248"/>
<text text-anchor="start" x="160.88" y="-274.45" font-family="Times New Roman,serif" font-weight="bold" font-size="9.00">Normal</text>
<text text-anchor="start" x="148.88" y="-265.45" font-family="Times New Roman,serif" font-weight="bold" font-size="9.00">Overweight II</text>
<text text-anchor="start" x="156.38" y="-256.45" font-family="Times New Roman,serif" font-weight="bold" font-size="9.00">Obesity II</text>
<polygon fill="none" stroke="black" points="209.88,-248 209.88,-289 298.12,-289 298.12,-248 209.88,-248"/>
<text text-anchor="start" x="216.88" y="-266.57" font-family="Times New Roman,serif" font-weight="bold" font-size="9.00">Insufficient weight</text>
<polygon fill="none" stroke="black" points="140.88,-247 140.88,-290 299.12,-290 299.12,-247 140.88,-247"/>
</g>
<!-- n_0_1_2_3_5&#45;&gt;n_0_1_3_5 -->
<g id="edge2" class="edge">
<title>n_0_1_2_3_5&#45;&gt;n_0_1_3_5</title>
<path fill="none" stroke="black" d="M318,-337.05C301.14,-325.43 281.7,-312.03 264.59,-300.24"/>
<polygon fill="black" stroke="black" points="266.83,-297.53 256.61,-294.73 262.86,-303.29 266.83,-297.53"/>
</g>
<!-- n_2 -->
<g id="node10" class="node">
<title>n_2</title>
<polygon fill="none" stroke="black" points="345.5,-255.88 345.5,-281.12 410.5,-281.12 410.5,-255.88 345.5,-255.88"/>
<text text-anchor="start" x="352.5" y="-266.57" font-family="Times New Roman,serif" font-weight="bold" font-size="9.00">Overweight I</text>
<polygon fill="none" stroke="black" points="344.5,-254.88 344.5,-282.12 411.5,-282.12 411.5,-254.88 344.5,-254.88"/>
</g>
<!-- n_0_1_2_3_5&#45;&gt;n_2 -->
<g id="edge9" class="edge">
<title>n_0_1_2_3_5&#45;&gt;n_2</title>
<path fill="none" stroke="black" d="M365.4,-337.05C367.74,-324.51 370.47,-309.89 372.78,-297.47"/>
<polygon fill="black" stroke="black" points="376.18,-298.33 374.58,-287.85 369.3,-297.04 376.18,-298.33"/>
</g>
<!-- n_1_3_5 -->
<g id="node4" class="node">
<title>n_1_3_5</title>
<polygon fill="none" stroke="black" points="83.5,-163 83.5,-195 136.5,-195 136.5,-163 83.5,-163"/>
<text text-anchor="start" x="95" y="-180.45" font-family="Times New Roman,serif" font-weight="bold" font-size="9.00">Normal</text>
<text text-anchor="start" x="90.5" y="-171.45" font-family="Times New Roman,serif" font-weight="bold" font-size="9.00">Obesity II</text>
<polygon fill="none" stroke="black" points="136.5,-163 136.5,-195 204.5,-195 204.5,-163 136.5,-163"/>
<text text-anchor="start" x="143.5" y="-177.07" font-family="Times New Roman,serif" font-weight="bold" font-size="9.00">Overweight II</text>
<polygon fill="none" stroke="black" points="82.5,-162 82.5,-196 205.5,-196 205.5,-162 82.5,-162"/>
</g>
<!-- n_0_1_3_5&#45;&gt;n_1_3_5 -->
<g id="edge3" class="edge">
<title>n_0_1_3_5&#45;&gt;n_1_3_5</title>
<path fill="none" stroke="black" d="M198.83,-243.13C189.47,-232.35 178.41,-219.62 168.68,-208.41"/>
<polygon fill="black" stroke="black" points="171.41,-206.22 162.21,-200.97 166.13,-210.81 171.41,-206.22"/>
</g>
<!-- n_0 -->
<g id="node9" class="node">
<title>n_0</title>
<polygon fill="none" stroke="black" points="251.88,-166.38 251.88,-191.62 340.12,-191.62 340.12,-166.38 251.88,-166.38"/>
<text text-anchor="start" x="258.88" y="-177.07" font-family="Times New Roman,serif" font-weight="bold" font-size="9.00">Insufficient weight</text>
<polygon fill="none" stroke="black" points="250.88,-165.38 250.88,-192.62 341.12,-192.62 341.12,-165.38 250.88,-165.38"/>
</g>
<!-- n_0_1_3_5&#45;&gt;n_0 -->
<g id="edge8" class="edge">
<title>n_0_1_3_5&#45;&gt;n_0</title>
<path fill="none" stroke="black" d="M241.17,-243.13C251.39,-231.36 263.65,-217.25 273.98,-205.36"/>
<polygon fill="black" stroke="black" points="276.53,-207.76 280.44,-197.91 271.24,-203.17 276.53,-207.76"/>
</g>
<!-- n_1_5 -->
<g id="node5" class="node">
<title>n_1_5</title>
<polygon fill="none" stroke="black" points="30.5,-84.38 30.5,-109.62 74.5,-109.62 74.5,-84.38 30.5,-84.38"/>
<text text-anchor="start" x="37.5" y="-95.08" font-family="Times New Roman,serif" font-weight="bold" font-size="9.00">Normal</text>
<polygon fill="none" stroke="black" points="74.5,-84.38 74.5,-109.62 127.5,-109.62 127.5,-84.38 74.5,-84.38"/>
<text text-anchor="start" x="81.5" y="-95.08" font-family="Times New Roman,serif" font-weight="bold" font-size="9.00">Obesity II</text>
<polygon fill="none" stroke="black" points="29.5,-83.38 29.5,-110.62 128.5,-110.62 128.5,-83.38 29.5,-83.38"/>
</g>
<!-- n_1_3_5&#45;&gt;n_1_5 -->
<g id="edge4" class="edge">
<title>n_1_3_5&#45;&gt;n_1_5</title>
<path fill="none" stroke="black" d="M127.93,-158.22C119.47,-147.81 109,-134.92 99.92,-123.74"/>
<polygon fill="black" stroke="black" points="102.66,-121.57 93.64,-116.02 97.23,-125.99 102.66,-121.57"/>
</g>
<!-- n_3 -->
<g id="node8" class="node">
<title>n_3</title>
<polygon fill="none" stroke="black" points="175,-84.38 175,-109.62 243,-109.62 243,-84.38 175,-84.38"/>
<text text-anchor="start" x="182" y="-95.08" font-family="Times New Roman,serif" font-weight="bold" font-size="9.00">Overweight II</text>
<polygon fill="none" stroke="black" points="174,-83.38 174,-110.62 244,-110.62 244,-83.38 174,-83.38"/>
</g>
<!-- n_1_3_5&#45;&gt;n_3 -->
<g id="edge7" class="edge">
<title>n_1_3_5&#45;&gt;n_3</title>
<path fill="none" stroke="black" d="M160.07,-158.22C168.53,-147.81 179,-134.92 188.08,-123.74"/>
<polygon fill="black" stroke="black" points="190.77,-125.99 194.36,-116.02 185.34,-121.57 190.77,-125.99"/>
</g>
<!-- n_1 -->
<g id="node6" class="node">
<title>n_1</title>
<polygon fill="none" stroke="black" points="9,-5.38 9,-30.62 53,-30.62 53,-5.38 9,-5.38"/>
<text text-anchor="start" x="16" y="-16.07" font-family="Times New Roman,serif" font-weight="bold" font-size="9.00">Normal</text>
<polygon fill="none" stroke="black" points="8,-4.38 8,-31.62 54,-31.62 54,-4.38 8,-4.38"/>
</g>
<!-- n_1_5&#45;&gt;n_1 -->
<g id="edge5" class="edge">
<title>n_1_5&#45;&gt;n_1</title>
<path fill="none" stroke="black" d="M68.58,-79.29C62.46,-69.47 54.58,-56.83 47.62,-45.66"/>
<polygon fill="black" stroke="black" points="50.62,-43.86 42.36,-37.23 44.68,-47.56 50.62,-43.86"/>
</g>
<!-- n_5 -->
<g id="node7" class="node">
<title>n_5</title>
<polygon fill="none" stroke="black" points="100.5,-5.38 100.5,-30.62 153.5,-30.62 153.5,-5.38 100.5,-5.38"/>
<text text-anchor="start" x="107.5" y="-16.07" font-family="Times New Roman,serif" font-weight="bold" font-size="9.00">Obesity II</text>
<polygon fill="none" stroke="black" points="99.5,-4.38 99.5,-31.62 154.5,-31.62 154.5,-4.38 99.5,-4.38"/>
</g>
<!-- n_1_5&#45;&gt;n_5 -->
<g id="edge6" class="edge">
<title>n_1_5&#45;&gt;n_5</title>
<path fill="none" stroke="black" d="M89.42,-79.29C95.54,-69.47 103.42,-56.83 110.38,-45.66"/>
<polygon fill="black" stroke="black" points="113.32,-47.56 115.64,-37.23 107.38,-43.86 113.32,-47.56"/>
</g>
<!-- n_4 -->
<g id="node12" class="node">
<title>n_4</title>
<polygon fill="none" stroke="black" points="494,-255.88 494,-281.12 544,-281.12 544,-255.88 494,-255.88"/>
<text text-anchor="start" x="501" y="-266.57" font-family="Times New Roman,serif" font-weight="bold" font-size="9.00">Obesity I</text>
<polygon fill="none" stroke="black" points="493,-254.88 493,-282.12 545,-282.12 545,-254.88 493,-254.88"/>
</g>
<!-- n_4_6&#45;&gt;n_4 -->
<g id="edge11" class="edge">
<title>n_4_6&#45;&gt;n_4</title>
<path fill="none" stroke="black" d="M533.86,-349.19C531.2,-334.89 527.31,-314.06 524.18,-297.28"/>
<polygon fill="black" stroke="black" points="527.71,-297.12 522.44,-287.93 520.83,-298.4 527.71,-297.12"/>
</g>
<!-- n_6 -->
<g id="node13" class="node">
<title>n_6</title>
<polygon fill="none" stroke="black" points="591,-255.88 591,-281.12 647,-281.12 647,-255.88 591,-255.88"/>
<text text-anchor="start" x="598" y="-266.57" font-family="Times New Roman,serif" font-weight="bold" font-size="9.00">Obesity III</text>
<polygon fill="none" stroke="black" points="590,-254.88 590,-282.12 648,-282.12 648,-254.88 590,-254.88"/>
</g>
<!-- n_4_6&#45;&gt;n_6 -->
<g id="edge12" class="edge">
<title>n_4_6&#45;&gt;n_6</title>
<path fill="none" stroke="black" d="M551.28,-349.19C564.02,-334.2 582.85,-312.04 597.43,-294.89"/>
<polygon fill="black" stroke="black" points="599.82,-297.48 603.63,-287.59 594.48,-292.95 599.82,-297.48"/>
</g>
</g>
</svg>
