<?xml version="1.0" encoding="UTF-8" standalone="no"?>
<!DOCTYPE svg PUBLIC "-//W3C//DTD SVG 1.1//EN"
 "http://www.w3.org/Graphics/SVG/1.1/DTD/svg11.dtd">
<!-- Generated by graphviz version 10.0.1 (20240210.2158)
 -->
<!-- Title: ND Pages: 1 -->
<svg width="700pt" height="414pt"
 viewBox="0.00 0.00 699.50 414.00" xmlns="http://www.w3.org/2000/svg" xmlns:xlink="http://www.w3.org/1999/xlink">
<g id="graph0" class="graph" transform="scale(1 1) rotate(0) translate(4 410)">
<title>ND</title>
<polygon fill="white" stroke="none" points="-4,4 -4,-410 695.5,-410 695.5,4 -4,4"/>
<!-- n_0_1_2_3_4_5_6 -->
<g id="node1" class="node">
<title>n_0_1_2_3_4_5_6</title>
<polygon fill="none" stroke="black" points="374.38,-342 374.38,-401 442.38,-401 442.38,-342 374.38,-342"/>
<text text-anchor="start" x="393.38" y="-386.45" font-family="Times New Roman,serif" font-weight="bold" font-size="9.00">Normal</text>
<text text-anchor="start" x="382.88" y="-377.45" font-family="Times New Roman,serif" font-weight="bold" font-size="9.00">Overweight I</text>
<text text-anchor="start" x="381.38" y="-368.45" font-family="Times New Roman,serif" font-weight="bold" font-size="9.00">Overweight II</text>
<text text-anchor="start" x="390.38" y="-359.45" font-family="Times New Roman,serif" font-weight="bold" font-size="9.00">Obesity I</text>
<text text-anchor="start" x="388.88" y="-350.45" font-family="Times New Roman,serif" font-weight="bold" font-size="9.00">Obesity II</text>
<polygon fill="none" stroke="black" points="442.38,-342 442.38,-401 530.62,-401 530.62,-342 442.38,-342"/>
<text text-anchor="start" x="449.38" y="-372.95" font-family="Times New Roman,serif" font-weight="bold" font-size="9.00">Insufficient weight</text>
<text text-anchor="start" x="465.5" y="-363.95" font-family="Times New Roman,serif" font-weight="bold" font-size="9.00">Obesity III</text>
<polygon fill="none" stroke="black" points="373.38,-341 373.38,-402 531.62,-402 531.62,-341 373.38,-341"/>
</g>
<!-- n_1_2_3_4_5 -->
<g id="node2" class="node">
<title>n_1_2_3_4_5</title>
<polygon fill="none" stroke="black" points="293,-248 293,-289 358,-289 358,-248 293,-248"/>
<text text-anchor="start" x="300" y="-274.45" font-family="Times New Roman,serif" font-weight="bold" font-size="9.00">Overweight I</text>
<text text-anchor="start" x="307.5" y="-265.45" font-family="Times New Roman,serif" font-weight="bold" font-size="9.00">Obesity I</text>
<text text-anchor="start" x="306" y="-256.45" font-family="Times New Roman,serif" font-weight="bold" font-size="9.00">Obesity II</text>
<polygon fill="none" stroke="black" points="358,-248 358,-289 426,-289 426,-248 358,-248"/>
<text text-anchor="start" x="377" y="-269.95" font-family="Times New Roman,serif" font-weight="bold" font-size="9.00">Normal</text>
<text text-anchor="start" x="365" y="-260.95" font-family="Times New Roman,serif" font-weight="bold" font-size="9.00">Overweight II</text>
<polygon fill="none" stroke="black" points="292,-247 292,-290 427,-290 427,-247 292,-247"/>
</g>
<!-- n_0_1_2_3_4_5_6&#45;&gt;n_1_2_3_4_5 -->
<g id="edge1" class="edge">
<title>n_0_1_2_3_4_5_6&#45;&gt;n_1_2_3_4_5</title>
<path fill="none" stroke="black" d="M421.79,-337.15C411.42,-325.89 399.86,-313.33 389.54,-302.12"/>
<polygon fill="black" stroke="black" points="392.3,-299.96 382.96,-294.97 387.15,-304.7 392.3,-299.96"/>
</g>
<!-- n_0_6 -->
<g id="node11" class="node">
<title>n_0_6</title>
<polygon fill="none" stroke="black" points="473.38,-255.88 473.38,-281.12 561.62,-281.12 561.62,-255.88 473.38,-255.88"/>
<text text-anchor="start" x="480.38" y="-266.57" font-family="Times New Roman,serif" font-weight="bold" font-size="9.00">Insufficient weight</text>
<polygon fill="none" stroke="black" points="561.62,-255.88 561.62,-281.12 617.62,-281.12 617.62,-255.88 561.62,-255.88"/>
<text text-anchor="start" x="568.62" y="-266.57" font-family="Times New Roman,serif" font-weight="bold" font-size="9.00">Obesity III</text>
<polygon fill="none" stroke="black" points="472.38,-254.88 472.38,-282.12 618.62,-282.12 618.62,-254.88 472.38,-254.88"/>
</g>
<!-- n_0_1_2_3_4_5_6&#45;&gt;n_0_6 -->
<g id="edge10" class="edge">
<title>n_0_1_2_3_4_5_6&#45;&gt;n_0_6</title>
<path fill="none" stroke="black" d="M483.21,-337.15C495.93,-323.33 510.45,-307.57 522.26,-294.74"/>
<polygon fill="black" stroke="black" points="524.73,-297.22 528.93,-287.49 519.58,-292.48 524.73,-297.22"/>
</g>
<!-- n_2_4_5 -->
<g id="node3" class="node">
<title>n_2_4_5</title>
<polygon fill="none" stroke="black" points="148.5,-163 148.5,-195 213.5,-195 213.5,-163 148.5,-163"/>
<text text-anchor="start" x="155.5" y="-180.45" font-family="Times New Roman,serif" font-weight="bold" font-size="9.00">Overweight I</text>
<text text-anchor="start" x="163" y="-171.45" font-family="Times New Roman,serif" font-weight="bold" font-size="9.00">Obesity I</text>
<polygon fill="none" stroke="black" points="213.5,-163 213.5,-195 266.5,-195 266.5,-163 213.5,-163"/>
<text text-anchor="start" x="220.5" y="-177.07" font-family="Times New Roman,serif" font-weight="bold" font-size="9.00">Obesity II</text>
<polygon fill="none" stroke="black" points="147.5,-162 147.5,-196 267.5,-196 267.5,-162 147.5,-162"/>
</g>
<!-- n_1_2_3_4_5&#45;&gt;n_2_4_5 -->
<g id="edge2" class="edge">
<title>n_1_2_3_4_5&#45;&gt;n_2_4_5</title>
<path fill="none" stroke="black" d="M317.16,-243.13C296.78,-231.39 272.35,-217.33 251.72,-205.46"/>
<polygon fill="black" stroke="black" points="253.67,-202.54 243.25,-200.58 250.17,-208.6 253.67,-202.54"/>
</g>
<!-- n_1_3 -->
<g id="node8" class="node">
<title>n_1_3</title>
<polygon fill="none" stroke="black" points="313.5,-166.38 313.5,-191.62 357.5,-191.62 357.5,-166.38 313.5,-166.38"/>
<text text-anchor="start" x="320.5" y="-177.07" font-family="Times New Roman,serif" font-weight="bold" font-size="9.00">Normal</text>
<polygon fill="none" stroke="black" points="357.5,-166.38 357.5,-191.62 425.5,-191.62 425.5,-166.38 357.5,-166.38"/>
<text text-anchor="start" x="364.5" y="-177.07" font-family="Times New Roman,serif" font-weight="bold" font-size="9.00">Overweight II</text>
<polygon fill="none" stroke="black" points="312.5,-165.38 312.5,-192.62 426.5,-192.62 426.5,-165.38 312.5,-165.38"/>
</g>
<!-- n_1_2_3_4_5&#45;&gt;n_1_3 -->
<g id="edge7" class="edge">
<title>n_1_2_3_4_5&#45;&gt;n_1_3</title>
<path fill="none" stroke="black" d="M362.29,-243.13C363.52,-232.28 364.99,-219.45 366.28,-208.19"/>
<polygon fill="black" stroke="black" points="369.75,-208.61 367.41,-198.27 362.8,-207.81 369.75,-208.61"/>
</g>
<!-- n_2_4 -->
<g id="node4" class="node">
<title>n_2_4</title>
<polygon fill="none" stroke="black" points="36,-84.38 36,-109.62 101,-109.62 101,-84.38 36,-84.38"/>
<text text-anchor="start" x="43" y="-95.08" font-family="Times New Roman,serif" font-weight="bold" font-size="9.00">Overweight I</text>
<polygon fill="none" stroke="black" points="101,-84.38 101,-109.62 151,-109.62 151,-84.38 101,-84.38"/>
<text text-anchor="start" x="108" y="-95.08" font-family="Times New Roman,serif" font-weight="bold" font-size="9.00">Obesity I</text>
<polygon fill="none" stroke="black" points="35,-83.38 35,-110.62 152,-110.62 152,-83.38 35,-83.38"/>
</g>
<!-- n_2_4_5&#45;&gt;n_2_4 -->
<g id="edge3" class="edge">
<title>n_2_4_5&#45;&gt;n_2_4</title>
<path fill="none" stroke="black" d="M179.03,-158.02C163.15,-146.88 143.29,-132.94 126.71,-121.31"/>
<polygon fill="black" stroke="black" points="128.82,-118.51 118.62,-115.63 124.79,-124.24 128.82,-118.51"/>
</g>
<!-- n_5 -->
<g id="node7" class="node">
<title>n_5</title>
<polygon fill="none" stroke="black" points="198,-84.38 198,-109.62 251,-109.62 251,-84.38 198,-84.38"/>
<text text-anchor="start" x="205" y="-95.08" font-family="Times New Roman,serif" font-weight="bold" font-size="9.00">Obesity II</text>
<polygon fill="none" stroke="black" points="197,-83.38 197,-110.62 252,-110.62 252,-83.38 197,-83.38"/>
</g>
<!-- n_2_4_5&#45;&gt;n_5 -->
<g id="edge6" class="edge">
<title>n_2_4_5&#45;&gt;n_5</title>
<path fill="none" stroke="black" d="M211.7,-158.22C213.78,-148.44 216.33,-136.46 218.6,-125.77"/>
<polygon fill="black" stroke="black" points="221.95,-126.83 220.61,-116.32 215.1,-125.38 221.95,-126.83"/>
</g>
<!-- n_2 -->
<g id="node5" class="node">
<title>n_2</title>
<polygon fill="none" stroke="black" points="9,-5.38 9,-30.62 74,-30.62 74,-5.38 9,-5.38"/>
<text text-anchor="start" x="16" y="-16.07" font-family="Times New Roman,serif" font-weight="bold" font-size="9.00">Overweight I</text>
<polygon fill="none" stroke="black" points="8,-4.38 8,-31.62 75,-31.62 75,-4.38 8,-4.38"/>
</g>
<!-- n_2_4&#45;&gt;n_2 -->
<g id="edge4" class="edge">
<title>n_2_4&#45;&gt;n_2</title>
<path fill="none" stroke="black" d="M82.22,-79.29C75.52,-69.37 66.87,-56.57 59.27,-45.32"/>
<polygon fill="black" stroke="black" points="62.28,-43.52 53.79,-37.2 56.48,-47.44 62.28,-43.52"/>
</g>
<!-- n_4 -->
<g id="node6" class="node">
<title>n_4</title>
<polygon fill="none" stroke="black" points="121.5,-5.38 121.5,-30.62 171.5,-30.62 171.5,-5.38 121.5,-5.38"/>
<text text-anchor="start" x="128.5" y="-16.07" font-family="Times New Roman,serif" font-weight="bold" font-size="9.00">Obesity I</text>
<polygon fill="none" stroke="black" points="120.5,-4.38 120.5,-31.62 172.5,-31.62 172.5,-4.38 120.5,-4.38"/>
</g>
<!-- n_2_4&#45;&gt;n_4 -->
<g id="edge5" class="edge">
<title>n_2_4&#45;&gt;n_4</title>
<path fill="none" stroke="black" d="M105,-79.29C111.83,-69.37 120.64,-56.57 128.38,-45.32"/>
<polygon fill="black" stroke="black" points="131.19,-47.41 133.98,-37.19 125.43,-43.44 131.19,-47.41"/>
</g>
<!-- n_1 -->
<g id="node9" class="node">
<title>n_1</title>
<polygon fill="none" stroke="black" points="331.5,-84.38 331.5,-109.62 375.5,-109.62 375.5,-84.38 331.5,-84.38"/>
<text text-anchor="start" x="338.5" y="-95.08" font-family="Times New Roman,serif" font-weight="bold" font-size="9.00">Normal</text>
<polygon fill="none" stroke="black" points="330.5,-83.38 330.5,-110.62 376.5,-110.62 376.5,-83.38 330.5,-83.38"/>
</g>
<!-- n_1_3&#45;&gt;n_1 -->
<g id="edge8" class="edge">
<title>n_1_3&#45;&gt;n_1</title>
<path fill="none" stroke="black" d="M366.11,-161.03C364.07,-150.85 361.43,-137.65 359.09,-125.96"/>
<polygon fill="black" stroke="black" points="362.58,-125.55 357.19,-116.43 355.71,-126.92 362.58,-125.55"/>
</g>
<!-- n_3 -->
<g id="node10" class="node">
<title>n_3</title>
<polygon fill="none" stroke="black" points="422.5,-84.38 422.5,-109.62 490.5,-109.62 490.5,-84.38 422.5,-84.38"/>
<text text-anchor="start" x="429.5" y="-95.08" font-family="Times New Roman,serif" font-weight="bold" font-size="9.00">Overweight II</text>
<polygon fill="none" stroke="black" points="421.5,-83.38 421.5,-110.62 491.5,-110.62 491.5,-83.38 421.5,-83.38"/>
</g>
<!-- n_1_3&#45;&gt;n_3 -->
<g id="edge9" class="edge">
<title>n_1_3&#45;&gt;n_3</title>
<path fill="none" stroke="black" d="M387.95,-161.03C400.06,-149.9 416.1,-135.15 429.62,-122.71"/>
<polygon fill="black" stroke="black" points="431.97,-125.31 436.96,-115.97 427.23,-120.16 431.97,-125.31"/>
</g>
<!-- n_0 -->
<g id="node12" class="node">
<title>n_0</title>
<polygon fill="none" stroke="black" points="491.38,-166.38 491.38,-191.62 579.62,-191.62 579.62,-166.38 491.38,-166.38"/>
<text text-anchor="start" x="498.38" y="-177.07" font-family="Times New Roman,serif" font-weight="bold" font-size="9.00">Insufficient weight</text>
<polygon fill="none" stroke="black" points="490.38,-165.38 490.38,-192.62 580.62,-192.62 580.62,-165.38 490.38,-165.38"/>
</g>
<!-- n_0_6&#45;&gt;n_0 -->
<g id="edge11" class="edge">
<title>n_0_6&#45;&gt;n_0</title>
<path fill="none" stroke="black" d="M543.57,-250.63C542.19,-238.52 540.29,-221.94 538.69,-207.88"/>
<polygon fill="black" stroke="black" points="542.21,-207.86 537.59,-198.32 535.25,-208.66 542.21,-207.86"/>
</g>
<!-- n_6 -->
<g id="node13" class="node">
<title>n_6</title>
<polygon fill="none" stroke="black" points="626.5,-166.38 626.5,-191.62 682.5,-191.62 682.5,-166.38 626.5,-166.38"/>
<text text-anchor="start" x="633.5" y="-177.07" font-family="Times New Roman,serif" font-weight="bold" font-size="9.00">Obesity III</text>
<polygon fill="none" stroke="black" points="625.5,-165.38 625.5,-192.62 683.5,-192.62 683.5,-165.38 625.5,-165.38"/>
</g>
<!-- n_0_6&#45;&gt;n_6 -->
<g id="edge12" class="edge">
<title>n_0_6&#45;&gt;n_6</title>
<path fill="none" stroke="black" d="M566.52,-250.63C583.03,-237.37 606.23,-218.75 624.67,-203.95"/>
<polygon fill="black" stroke="black" points="626.76,-206.76 632.37,-197.77 622.38,-201.3 626.76,-206.76"/>
</g>
</g>
</svg>
