<?xml version="1.0" encoding="UTF-8" standalone="no"?>
<!DOCTYPE svg PUBLIC "-//W3C//DTD SVG 1.1//EN"
 "http://www.w3.org/Graphics/SVG/1.1/DTD/svg11.dtd">
<!-- Generated by graphviz version 10.0.1 (20240210.2158)
 -->
<!-- Title: ND Pages: 1 -->
<svg width="579pt" height="638pt"
 viewBox="0.00 0.00 579.00 638.00" xmlns="http://www.w3.org/2000/svg" xmlns:xlink="http://www.w3.org/1999/xlink">
<g id="graph0" class="graph" transform="scale(1 1) rotate(0) translate(4 634)">
<title>ND</title>
<polygon fill="white" stroke="none" points="-4,4 -4,-634 575,-634 575,4 -4,4"/>
<!-- n_0_1_2_3_4_5_6 -->
<g id="node1" class="node">
<title>n_0_1_2_3_4_5_6</title>
<polygon fill="none" stroke="black" points="370.88,-557 370.88,-625 459.12,-625 459.12,-557 370.88,-557"/>
<text text-anchor="start" x="377.88" y="-610.45" font-family="Times New Roman,serif" font-weight="bold" font-size="9.00">Insufficient weight</text>
<text text-anchor="start" x="400" y="-601.45" font-family="Times New Roman,serif" font-weight="bold" font-size="9.00">Normal</text>
<text text-anchor="start" x="389.5" y="-592.45" font-family="Times New Roman,serif" font-weight="bold" font-size="9.00">Overweight I</text>
<text text-anchor="start" x="397" y="-583.45" font-family="Times New Roman,serif" font-weight="bold" font-size="9.00">Obesity I</text>
<text text-anchor="start" x="395.5" y="-574.45" font-family="Times New Roman,serif" font-weight="bold" font-size="9.00">Obesity II</text>
<text text-anchor="start" x="394" y="-565.45" font-family="Times New Roman,serif" font-weight="bold" font-size="9.00">Obesity III</text>
<polygon fill="none" stroke="black" points="459.12,-557 459.12,-625 527.12,-625 527.12,-557 459.12,-557"/>
<text text-anchor="start" x="466.12" y="-589.08" font-family="Times New Roman,serif" font-weight="bold" font-size="9.00">Overweight II</text>
<polygon fill="none" stroke="black" points="369.88,-556 369.88,-626 528.12,-626 528.12,-556 369.88,-556"/>
</g>
<!-- n_0_1_2_4_5_6 -->
<g id="node2" class="node">
<title>n_0_1_2_4_5_6</title>
<polygon fill="none" stroke="black" points="293.38,-445 293.38,-504 381.62,-504 381.62,-445 293.38,-445"/>
<text text-anchor="start" x="300.38" y="-489.45" font-family="Times New Roman,serif" font-weight="bold" font-size="9.00">Insufficient weight</text>
<text text-anchor="start" x="322.5" y="-480.45" font-family="Times New Roman,serif" font-weight="bold" font-size="9.00">Normal</text>
<text text-anchor="start" x="319.5" y="-471.45" font-family="Times New Roman,serif" font-weight="bold" font-size="9.00">Obesity I</text>
<text text-anchor="start" x="318" y="-462.45" font-family="Times New Roman,serif" font-weight="bold" font-size="9.00">Obesity II</text>
<text text-anchor="start" x="316.5" y="-453.45" font-family="Times New Roman,serif" font-weight="bold" font-size="9.00">Obesity III</text>
<polygon fill="none" stroke="black" points="381.62,-445 381.62,-504 446.62,-504 446.62,-445 381.62,-445"/>
<text text-anchor="start" x="388.62" y="-472.57" font-family="Times New Roman,serif" font-weight="bold" font-size="9.00">Overweight I</text>
<polygon fill="none" stroke="black" points="292.38,-444 292.38,-505 447.62,-505 447.62,-444 292.38,-444"/>
</g>
<!-- n_0_1_2_3_4_5_6&#45;&gt;n_0_1_2_4_5_6 -->
<g id="edge1" class="edge">
<title>n_0_1_2_3_4_5_6&#45;&gt;n_0_1_2_4_5_6</title>
<path fill="none" stroke="black" d="M422.91,-552.19C415.33,-541.2 407,-529.12 399.23,-517.87"/>
<polygon fill="black" stroke="black" points="402.29,-516.14 393.73,-509.9 396.53,-520.12 402.29,-516.14"/>
</g>
<!-- n_3 -->
<g id="node13" class="node">
<title>n_3</title>
<polygon fill="none" stroke="black" points="494,-461.88 494,-487.12 562,-487.12 562,-461.88 494,-461.88"/>
<text text-anchor="start" x="501" y="-472.57" font-family="Times New Roman,serif" font-weight="bold" font-size="9.00">Overweight II</text>
<polygon fill="none" stroke="black" points="493,-460.88 493,-488.12 563,-488.12 563,-460.88 493,-460.88"/>
</g>
<!-- n_0_1_2_3_4_5_6&#45;&gt;n_3 -->
<g id="edge12" class="edge">
<title>n_0_1_2_3_4_5_6&#45;&gt;n_3</title>
<path fill="none" stroke="black" d="M475.09,-552.19C486.52,-535.63 499.64,-516.6 509.97,-501.64"/>
<polygon fill="black" stroke="black" points="512.64,-503.93 515.44,-493.71 506.88,-499.95 512.64,-503.93"/>
</g>
<!-- n_0_1_4_5_6 -->
<g id="node3" class="node">
<title>n_0_1_4_5_6</title>
<polygon fill="none" stroke="black" points="230.88,-342 230.88,-392 319.12,-392 319.12,-342 230.88,-342"/>
<text text-anchor="start" x="237.88" y="-377.45" font-family="Times New Roman,serif" font-weight="bold" font-size="9.00">Insufficient weight</text>
<text text-anchor="start" x="257" y="-368.45" font-family="Times New Roman,serif" font-weight="bold" font-size="9.00">Obesity I</text>
<text text-anchor="start" x="255.5" y="-359.45" font-family="Times New Roman,serif" font-weight="bold" font-size="9.00">Obesity II</text>
<text text-anchor="start" x="254" y="-350.45" font-family="Times New Roman,serif" font-weight="bold" font-size="9.00">Obesity III</text>
<polygon fill="none" stroke="black" points="319.12,-342 319.12,-392 363.12,-392 363.12,-342 319.12,-342"/>
<text text-anchor="start" x="326.12" y="-365.07" font-family="Times New Roman,serif" font-weight="bold" font-size="9.00">Normal</text>
<polygon fill="none" stroke="black" points="229.88,-341 229.88,-393 364.12,-393 364.12,-341 229.88,-341"/>
</g>
<!-- n_0_1_2_4_5_6&#45;&gt;n_0_1_4_5_6 -->
<g id="edge2" class="edge">
<title>n_0_1_2_4_5_6&#45;&gt;n_0_1_4_5_6</title>
<path fill="none" stroke="black" d="M346.9,-440.12C339.47,-429.38 331.18,-417.4 323.52,-406.33"/>
<polygon fill="black" stroke="black" points="326.43,-404.37 317.86,-398.14 320.67,-408.36 326.43,-404.37"/>
</g>
<!-- n_2 -->
<g id="node12" class="node">
<title>n_2</title>
<polygon fill="none" stroke="black" points="410.5,-354.38 410.5,-379.62 475.5,-379.62 475.5,-354.38 410.5,-354.38"/>
<text text-anchor="start" x="417.5" y="-365.07" font-family="Times New Roman,serif" font-weight="bold" font-size="9.00">Overweight I</text>
<polygon fill="none" stroke="black" points="409.5,-353.38 409.5,-380.62 476.5,-380.62 476.5,-353.38 409.5,-353.38"/>
</g>
<!-- n_0_1_2_4_5_6&#45;&gt;n_2 -->
<g id="edge11" class="edge">
<title>n_0_1_2_4_5_6&#45;&gt;n_2</title>
<path fill="none" stroke="black" d="M393.1,-440.12C403.32,-425.35 415.16,-408.23 424.75,-394.38"/>
<polygon fill="black" stroke="black" points="427.6,-396.41 430.41,-386.2 421.84,-392.43 427.6,-396.41"/>
</g>
<!-- n_0_4_5_6 -->
<g id="node4" class="node">
<title>n_0_4_5_6</title>
<polygon fill="none" stroke="black" points="154.88,-248 154.88,-289 243.12,-289 243.12,-248 154.88,-248"/>
<text text-anchor="start" x="161.88" y="-274.45" font-family="Times New Roman,serif" font-weight="bold" font-size="9.00">Insufficient weight</text>
<text text-anchor="start" x="181" y="-265.45" font-family="Times New Roman,serif" font-weight="bold" font-size="9.00">Obesity I</text>
<text text-anchor="start" x="179.5" y="-256.45" font-family="Times New Roman,serif" font-weight="bold" font-size="9.00">Obesity II</text>
<polygon fill="none" stroke="black" points="243.12,-248 243.12,-289 299.12,-289 299.12,-248 243.12,-248"/>
<text text-anchor="start" x="250.12" y="-266.57" font-family="Times New Roman,serif" font-weight="bold" font-size="9.00">Obesity III</text>
<polygon fill="none" stroke="black" points="153.88,-247 153.88,-290 300.12,-290 300.12,-247 153.88,-247"/>
</g>
<!-- n_0_1_4_5_6&#45;&gt;n_0_4_5_6 -->
<g id="edge3" class="edge">
<title>n_0_1_4_5_6&#45;&gt;n_0_4_5_6</title>
<path fill="none" stroke="black" d="M276,-337.05C268.2,-326.29 259.28,-314 251.21,-302.88"/>
<polygon fill="black" stroke="black" points="254.27,-301.14 245.57,-295.1 248.61,-305.25 254.27,-301.14"/>
</g>
<!-- n_1 -->
<g id="node11" class="node">
<title>n_1</title>
<polygon fill="none" stroke="black" points="346,-255.88 346,-281.12 390,-281.12 390,-255.88 346,-255.88"/>
<text text-anchor="start" x="353" y="-266.57" font-family="Times New Roman,serif" font-weight="bold" font-size="9.00">Normal</text>
<polygon fill="none" stroke="black" points="345,-254.88 345,-282.12 391,-282.12 391,-254.88 345,-254.88"/>
</g>
<!-- n_0_1_4_5_6&#45;&gt;n_1 -->
<g id="edge10" class="edge">
<title>n_0_1_4_5_6&#45;&gt;n_1</title>
<path fill="none" stroke="black" d="M318.3,-337.05C328,-323.86 339.4,-308.38 348.82,-295.56"/>
<polygon fill="black" stroke="black" points="351.59,-297.71 354.69,-287.59 345.95,-293.57 351.59,-297.71"/>
</g>
<!-- n_0_4_5 -->
<g id="node5" class="node">
<title>n_0_4_5</title>
<polygon fill="none" stroke="black" points="83.38,-163 83.38,-195 136.38,-195 136.38,-163 83.38,-163"/>
<text text-anchor="start" x="91.88" y="-180.45" font-family="Times New Roman,serif" font-weight="bold" font-size="9.00">Obesity I</text>
<text text-anchor="start" x="90.38" y="-171.45" font-family="Times New Roman,serif" font-weight="bold" font-size="9.00">Obesity II</text>
<polygon fill="none" stroke="black" points="136.38,-163 136.38,-195 224.62,-195 224.62,-163 136.38,-163"/>
<text text-anchor="start" x="143.38" y="-177.07" font-family="Times New Roman,serif" font-weight="bold" font-size="9.00">Insufficient weight</text>
<polygon fill="none" stroke="black" points="82.38,-162 82.38,-196 225.62,-196 225.62,-162 82.38,-162"/>
</g>
<!-- n_0_4_5_6&#45;&gt;n_0_4_5 -->
<g id="edge4" class="edge">
<title>n_0_4_5_6&#45;&gt;n_0_4_5</title>
<path fill="none" stroke="black" d="M206.67,-243.13C197.68,-232.35 187.05,-219.62 177.71,-208.41"/>
<polygon fill="black" stroke="black" points="180.6,-206.42 171.51,-200.99 175.23,-210.91 180.6,-206.42"/>
</g>
<!-- n_6 -->
<g id="node10" class="node">
<title>n_6</title>
<polygon fill="none" stroke="black" points="272,-166.38 272,-191.62 328,-191.62 328,-166.38 272,-166.38"/>
<text text-anchor="start" x="279" y="-177.07" font-family="Times New Roman,serif" font-weight="bold" font-size="9.00">Obesity III</text>
<polygon fill="none" stroke="black" points="271,-165.38 271,-192.62 329,-192.62 329,-165.38 271,-165.38"/>
</g>
<!-- n_0_4_5_6&#45;&gt;n_6 -->
<g id="edge9" class="edge">
<title>n_0_4_5_6&#45;&gt;n_6</title>
<path fill="none" stroke="black" d="M247.33,-243.13C257.15,-231.36 268.92,-217.25 278.84,-205.36"/>
<polygon fill="black" stroke="black" points="281.32,-207.85 285.04,-197.93 275.95,-203.37 281.32,-207.85"/>
</g>
<!-- n_4_5 -->
<g id="node6" class="node">
<title>n_4_5</title>
<polygon fill="none" stroke="black" points="31.5,-84.38 31.5,-109.62 81.5,-109.62 81.5,-84.38 31.5,-84.38"/>
<text text-anchor="start" x="38.5" y="-95.08" font-family="Times New Roman,serif" font-weight="bold" font-size="9.00">Obesity I</text>
<polygon fill="none" stroke="black" points="81.5,-84.38 81.5,-109.62 134.5,-109.62 134.5,-84.38 81.5,-84.38"/>
<text text-anchor="start" x="88.5" y="-95.08" font-family="Times New Roman,serif" font-weight="bold" font-size="9.00">Obesity II</text>
<polygon fill="none" stroke="black" points="30.5,-83.38 30.5,-110.62 135.5,-110.62 135.5,-83.38 30.5,-83.38"/>
</g>
<!-- n_0_4_5&#45;&gt;n_4_5 -->
<g id="edge5" class="edge">
<title>n_0_4_5&#45;&gt;n_4_5</title>
<path fill="none" stroke="black" d="M136.45,-158.22C127.12,-147.71 115.54,-134.66 105.55,-123.41"/>
<polygon fill="black" stroke="black" points="108.21,-121.13 98.95,-115.98 102.97,-125.78 108.21,-121.13"/>
</g>
<!-- n_0 -->
<g id="node9" class="node">
<title>n_0</title>
<polygon fill="none" stroke="black" points="181.88,-84.38 181.88,-109.62 270.12,-109.62 270.12,-84.38 181.88,-84.38"/>
<text text-anchor="start" x="188.88" y="-95.08" font-family="Times New Roman,serif" font-weight="bold" font-size="9.00">Insufficient weight</text>
<polygon fill="none" stroke="black" points="180.88,-83.38 180.88,-110.62 271.12,-110.62 271.12,-83.38 180.88,-83.38"/>
</g>
<!-- n_0_4_5&#45;&gt;n_0 -->
<g id="edge8" class="edge">
<title>n_0_4_5&#45;&gt;n_0</title>
<path fill="none" stroke="black" d="M171.8,-158.22C181.35,-147.61 193.23,-134.41 203.43,-123.07"/>
<polygon fill="black" stroke="black" points="205.74,-125.74 209.83,-115.97 200.54,-121.06 205.74,-125.74"/>
</g>
<!-- n_4 -->
<g id="node7" class="node">
<title>n_4</title>
<polygon fill="none" stroke="black" points="9,-5.38 9,-30.62 59,-30.62 59,-5.38 9,-5.38"/>
<text text-anchor="start" x="16" y="-16.07" font-family="Times New Roman,serif" font-weight="bold" font-size="9.00">Obesity I</text>
<polygon fill="none" stroke="black" points="8,-4.38 8,-31.62 60,-31.62 60,-4.38 8,-4.38"/>
</g>
<!-- n_4_5&#45;&gt;n_4 -->
<g id="edge6" class="edge">
<title>n_4_5&#45;&gt;n_4</title>
<path fill="none" stroke="black" d="M72.37,-79.29C66.05,-69.37 57.91,-56.57 50.75,-45.32"/>
<polygon fill="black" stroke="black" points="53.91,-43.78 45.59,-37.22 48.01,-47.53 53.91,-43.78"/>
</g>
<!-- n_5 -->
<g id="node8" class="node">
<title>n_5</title>
<polygon fill="none" stroke="black" points="106.5,-5.38 106.5,-30.62 159.5,-30.62 159.5,-5.38 106.5,-5.38"/>
<text text-anchor="start" x="113.5" y="-16.07" font-family="Times New Roman,serif" font-weight="bold" font-size="9.00">Obesity II</text>
<polygon fill="none" stroke="black" points="105.5,-4.38 105.5,-31.62 160.5,-31.62 160.5,-4.38 105.5,-4.38"/>
</g>
<!-- n_4_5&#45;&gt;n_5 -->
<g id="edge7" class="edge">
<title>n_4_5&#45;&gt;n_5</title>
<path fill="none" stroke="black" d="M93.85,-79.29C100.29,-69.37 108.6,-56.57 115.91,-45.32"/>
<polygon fill="black" stroke="black" points="118.66,-47.5 121.17,-37.21 112.79,-43.69 118.66,-47.5"/>
</g>
</g>
</svg>
