<?xml version="1.0" encoding="UTF-8" standalone="no"?>
<!DOCTYPE svg PUBLIC "-//W3C//DTD SVG 1.1//EN"
 "http://www.w3.org/Graphics/SVG/1.1/DTD/svg11.dtd">
<!-- Generated by graphviz version 10.0.1 (20240210.2158)
 -->
<!-- Title: ND Pages: 1 -->
<svg width="724pt" height="414pt"
 viewBox="0.00 0.00 723.62 414.00" xmlns="http://www.w3.org/2000/svg" xmlns:xlink="http://www.w3.org/1999/xlink">
<g id="graph0" class="graph" transform="scale(1 1) rotate(0) translate(4 410)">
<title>ND</title>
<polygon fill="white" stroke="none" points="-4,4 -4,-410 719.62,-410 719.62,4 -4,4"/>
<!-- n_0_1_2_3_4_5_6 -->
<g id="node1" class="node">
<title>n_0_1_2_3_4_5_6</title>
<polygon fill="none" stroke="black" points="418.5,-342 418.5,-401 506.75,-401 506.75,-342 418.5,-342"/>
<text text-anchor="start" x="425.5" y="-386.45" font-family="Times New Roman,serif" font-weight="bold" font-size="9.00">Insufficient weight</text>
<text text-anchor="start" x="435.62" y="-377.45" font-family="Times New Roman,serif" font-weight="bold" font-size="9.00">Overweight II</text>
<text text-anchor="start" x="444.62" y="-368.45" font-family="Times New Roman,serif" font-weight="bold" font-size="9.00">Obesity I</text>
<text text-anchor="start" x="443.12" y="-359.45" font-family="Times New Roman,serif" font-weight="bold" font-size="9.00">Obesity II</text>
<text text-anchor="start" x="441.62" y="-350.45" font-family="Times New Roman,serif" font-weight="bold" font-size="9.00">Obesity III</text>
<polygon fill="none" stroke="black" points="506.75,-342 506.75,-401 571.75,-401 571.75,-342 506.75,-342"/>
<text text-anchor="start" x="524.25" y="-372.95" font-family="Times New Roman,serif" font-weight="bold" font-size="9.00">Normal</text>
<text text-anchor="start" x="513.75" y="-363.95" font-family="Times New Roman,serif" font-weight="bold" font-size="9.00">Overweight I</text>
<polygon fill="none" stroke="black" points="417.5,-341 417.5,-402 572.75,-402 572.75,-341 417.5,-341"/>
</g>
<!-- n_0_3_4_5_6 -->
<g id="node2" class="node">
<title>n_0_3_4_5_6</title>
<polygon fill="none" stroke="black" points="327,-248 327,-289 415.25,-289 415.25,-248 327,-248"/>
<text text-anchor="start" x="334" y="-274.45" font-family="Times New Roman,serif" font-weight="bold" font-size="9.00">Insufficient weight</text>
<text text-anchor="start" x="351.62" y="-265.45" font-family="Times New Roman,serif" font-weight="bold" font-size="9.00">Obesity II</text>
<text text-anchor="start" x="350.12" y="-256.45" font-family="Times New Roman,serif" font-weight="bold" font-size="9.00">Obesity III</text>
<polygon fill="none" stroke="black" points="415.25,-248 415.25,-289 483.25,-289 483.25,-248 415.25,-248"/>
<text text-anchor="start" x="422.25" y="-269.95" font-family="Times New Roman,serif" font-weight="bold" font-size="9.00">Overweight II</text>
<text text-anchor="start" x="431.25" y="-260.95" font-family="Times New Roman,serif" font-weight="bold" font-size="9.00">Obesity I</text>
<polygon fill="none" stroke="black" points="326,-247 326,-290 484.25,-290 484.25,-247 326,-247"/>
</g>
<!-- n_0_1_2_3_4_5_6&#45;&gt;n_0_3_4_5_6 -->
<g id="edge1" class="edge">
<title>n_0_1_2_3_4_5_6&#45;&gt;n_0_3_4_5_6</title>
<path fill="none" stroke="black" d="M465.41,-337.15C455.47,-326 444.4,-313.58 434.49,-302.45"/>
<polygon fill="black" stroke="black" points="437.1,-300.13 427.84,-294.99 431.88,-304.78 437.1,-300.13"/>
</g>
<!-- n_1_2 -->
<g id="node11" class="node">
<title>n_1_2</title>
<polygon fill="none" stroke="black" points="530.62,-255.88 530.62,-281.12 574.62,-281.12 574.62,-255.88 530.62,-255.88"/>
<text text-anchor="start" x="537.62" y="-266.57" font-family="Times New Roman,serif" font-weight="bold" font-size="9.00">Normal</text>
<polygon fill="none" stroke="black" points="574.62,-255.88 574.62,-281.12 639.62,-281.12 639.62,-255.88 574.62,-255.88"/>
<text text-anchor="start" x="581.62" y="-266.57" font-family="Times New Roman,serif" font-weight="bold" font-size="9.00">Overweight I</text>
<polygon fill="none" stroke="black" points="529.62,-254.88 529.62,-282.12 640.62,-282.12 640.62,-254.88 529.62,-254.88"/>
</g>
<!-- n_0_1_2_3_4_5_6&#45;&gt;n_1_2 -->
<g id="edge10" class="edge">
<title>n_0_1_2_3_4_5_6&#45;&gt;n_1_2</title>
<path fill="none" stroke="black" d="M524.84,-337.15C537.16,-323.33 551.2,-307.57 562.64,-294.74"/>
<polygon fill="black" stroke="black" points="565.04,-297.3 569.08,-287.51 559.81,-292.65 565.04,-297.3"/>
</g>
<!-- n_0_5_6 -->
<g id="node3" class="node">
<title>n_0_5_6</title>
<polygon fill="none" stroke="black" points="168,-163 168,-195 256.25,-195 256.25,-163 168,-163"/>
<text text-anchor="start" x="175" y="-180.45" font-family="Times New Roman,serif" font-weight="bold" font-size="9.00">Insufficient weight</text>
<text text-anchor="start" x="192.62" y="-171.45" font-family="Times New Roman,serif" font-weight="bold" font-size="9.00">Obesity II</text>
<polygon fill="none" stroke="black" points="256.25,-163 256.25,-195 312.25,-195 312.25,-163 256.25,-163"/>
<text text-anchor="start" x="263.25" y="-177.07" font-family="Times New Roman,serif" font-weight="bold" font-size="9.00">Obesity III</text>
<polygon fill="none" stroke="black" points="167,-162 167,-196 313.25,-196 313.25,-162 167,-162"/>
</g>
<!-- n_0_3_4_5_6&#45;&gt;n_0_5_6 -->
<g id="edge2" class="edge">
<title>n_0_3_4_5_6&#45;&gt;n_0_5_6</title>
<path fill="none" stroke="black" d="M359.16,-243.13C336.92,-231.33 310.23,-217.18 287.77,-205.27"/>
<polygon fill="black" stroke="black" points="289.59,-202.27 279.12,-200.68 286.31,-208.46 289.59,-202.27"/>
</g>
<!-- n_3_4 -->
<g id="node8" class="node">
<title>n_3_4</title>
<polygon fill="none" stroke="black" points="359.12,-166.38 359.12,-191.62 427.12,-191.62 427.12,-166.38 359.12,-166.38"/>
<text text-anchor="start" x="366.12" y="-177.07" font-family="Times New Roman,serif" font-weight="bold" font-size="9.00">Overweight II</text>
<polygon fill="none" stroke="black" points="427.12,-166.38 427.12,-191.62 477.12,-191.62 477.12,-166.38 427.12,-166.38"/>
<text text-anchor="start" x="434.12" y="-177.07" font-family="Times New Roman,serif" font-weight="bold" font-size="9.00">Obesity I</text>
<polygon fill="none" stroke="black" points="358.12,-165.38 358.12,-192.62 478.12,-192.62 478.12,-165.38 358.12,-165.38"/>
</g>
<!-- n_0_3_4_5_6&#45;&gt;n_3_4 -->
<g id="edge7" class="edge">
<title>n_0_3_4_5_6&#45;&gt;n_3_4</title>
<path fill="none" stroke="black" d="M408.75,-243.13C410.37,-232.17 412.3,-219.18 413.99,-207.84"/>
<polygon fill="black" stroke="black" points="417.4,-208.67 415.41,-198.27 410.48,-207.64 417.4,-208.67"/>
</g>
<!-- n_0_5 -->
<g id="node4" class="node">
<title>n_0_5</title>
<polygon fill="none" stroke="black" points="41.5,-84.38 41.5,-109.62 129.75,-109.62 129.75,-84.38 41.5,-84.38"/>
<text text-anchor="start" x="48.5" y="-95.08" font-family="Times New Roman,serif" font-weight="bold" font-size="9.00">Insufficient weight</text>
<polygon fill="none" stroke="black" points="129.75,-84.38 129.75,-109.62 182.75,-109.62 182.75,-84.38 129.75,-84.38"/>
<text text-anchor="start" x="136.75" y="-95.08" font-family="Times New Roman,serif" font-weight="bold" font-size="9.00">Obesity II</text>
<polygon fill="none" stroke="black" points="40.5,-83.38 40.5,-110.62 183.75,-110.62 183.75,-83.38 40.5,-83.38"/>
</g>
<!-- n_0_5_6&#45;&gt;n_0_5 -->
<g id="edge3" class="edge">
<title>n_0_5_6&#45;&gt;n_0_5</title>
<path fill="none" stroke="black" d="M208.16,-158.02C190.08,-146.72 167.41,-132.55 148.63,-120.82"/>
<polygon fill="black" stroke="black" points="150.56,-117.89 140.22,-115.56 146.85,-123.83 150.56,-117.89"/>
</g>
<!-- n_6 -->
<g id="node7" class="node">
<title>n_6</title>
<polygon fill="none" stroke="black" points="230.12,-84.38 230.12,-109.62 286.12,-109.62 286.12,-84.38 230.12,-84.38"/>
<text text-anchor="start" x="237.12" y="-95.08" font-family="Times New Roman,serif" font-weight="bold" font-size="9.00">Obesity III</text>
<polygon fill="none" stroke="black" points="229.12,-83.38 229.12,-110.62 287.12,-110.62 287.12,-83.38 229.12,-83.38"/>
</g>
<!-- n_0_5_6&#45;&gt;n_6 -->
<g id="edge6" class="edge">
<title>n_0_5_6&#45;&gt;n_6</title>
<path fill="none" stroke="black" d="M244.57,-158.22C246.78,-148.44 249.47,-136.46 251.88,-125.77"/>
<polygon fill="black" stroke="black" points="255.22,-126.84 254,-116.32 248.39,-125.31 255.22,-126.84"/>
</g>
<!-- n_0 -->
<g id="node5" class="node">
<title>n_0</title>
<polygon fill="none" stroke="black" points="9,-5.38 9,-30.62 97.25,-30.62 97.25,-5.38 9,-5.38"/>
<text text-anchor="start" x="16" y="-16.07" font-family="Times New Roman,serif" font-weight="bold" font-size="9.00">Insufficient weight</text>
<polygon fill="none" stroke="black" points="8,-4.38 8,-31.62 98.25,-31.62 98.25,-4.38 8,-4.38"/>
</g>
<!-- n_0_5&#45;&gt;n_0 -->
<g id="edge4" class="edge">
<title>n_0_5&#45;&gt;n_0</title>
<path fill="none" stroke="black" d="M99.32,-79.29C91.64,-69.27 81.72,-56.31 73.03,-44.98"/>
<polygon fill="black" stroke="black" points="75.89,-42.95 67.03,-37.14 70.33,-47.21 75.89,-42.95"/>
</g>
<!-- n_5 -->
<g id="node6" class="node">
<title>n_5</title>
<polygon fill="none" stroke="black" points="144.62,-5.38 144.62,-30.62 197.62,-30.62 197.62,-5.38 144.62,-5.38"/>
<text text-anchor="start" x="151.62" y="-16.07" font-family="Times New Roman,serif" font-weight="bold" font-size="9.00">Obesity II</text>
<polygon fill="none" stroke="black" points="143.62,-4.38 143.62,-31.62 198.62,-31.62 198.62,-4.38 143.62,-4.38"/>
</g>
<!-- n_0_5&#45;&gt;n_5 -->
<g id="edge5" class="edge">
<title>n_0_5&#45;&gt;n_5</title>
<path fill="none" stroke="black" d="M124.93,-79.29C132.61,-69.27 142.53,-56.31 151.22,-44.98"/>
<polygon fill="black" stroke="black" points="153.92,-47.21 157.22,-37.14 148.36,-42.95 153.92,-47.21"/>
</g>
<!-- n_3 -->
<g id="node9" class="node">
<title>n_3</title>
<polygon fill="none" stroke="black" points="367.12,-84.38 367.12,-109.62 435.12,-109.62 435.12,-84.38 367.12,-84.38"/>
<text text-anchor="start" x="374.12" y="-95.08" font-family="Times New Roman,serif" font-weight="bold" font-size="9.00">Overweight II</text>
<polygon fill="none" stroke="black" points="366.12,-83.38 366.12,-110.62 436.12,-110.62 436.12,-83.38 366.12,-83.38"/>
</g>
<!-- n_3_4&#45;&gt;n_3 -->
<g id="edge8" class="edge">
<title>n_3_4&#45;&gt;n_3</title>
<path fill="none" stroke="black" d="M414.52,-161.03C412.36,-150.85 409.55,-137.65 407.07,-125.96"/>
<polygon fill="black" stroke="black" points="410.54,-125.48 405.04,-116.42 403.69,-126.93 410.54,-125.48"/>
</g>
<!-- n_4 -->
<g id="node10" class="node">
<title>n_4</title>
<polygon fill="none" stroke="black" points="482.12,-84.38 482.12,-109.62 532.12,-109.62 532.12,-84.38 482.12,-84.38"/>
<text text-anchor="start" x="489.12" y="-95.08" font-family="Times New Roman,serif" font-weight="bold" font-size="9.00">Obesity I</text>
<polygon fill="none" stroke="black" points="481.12,-83.38 481.12,-110.62 533.12,-110.62 533.12,-83.38 481.12,-83.38"/>
</g>
<!-- n_3_4&#45;&gt;n_4 -->
<g id="edge9" class="edge">
<title>n_3_4&#45;&gt;n_4</title>
<path fill="none" stroke="black" d="M437,-161.03C449.51,-149.79 466.11,-134.87 480.02,-122.36"/>
<polygon fill="black" stroke="black" points="482.05,-125.24 487.15,-115.95 477.38,-120.04 482.05,-125.24"/>
</g>
<!-- n_1 -->
<g id="node12" class="node">
<title>n_1</title>
<polygon fill="none" stroke="black" points="550.12,-166.38 550.12,-191.62 594.12,-191.62 594.12,-166.38 550.12,-166.38"/>
<text text-anchor="start" x="557.12" y="-177.07" font-family="Times New Roman,serif" font-weight="bold" font-size="9.00">Normal</text>
<polygon fill="none" stroke="black" points="549.12,-165.38 549.12,-192.62 595.12,-192.62 595.12,-165.38 549.12,-165.38"/>
</g>
<!-- n_1_2&#45;&gt;n_1 -->
<g id="edge11" class="edge">
<title>n_1_2&#45;&gt;n_1</title>
<path fill="none" stroke="black" d="M582.62,-250.63C580.82,-238.52 578.36,-221.94 576.27,-207.88"/>
<polygon fill="black" stroke="black" points="579.78,-207.69 574.85,-198.32 572.85,-208.72 579.78,-207.69"/>
</g>
<!-- n_2 -->
<g id="node13" class="node">
<title>n_2</title>
<polygon fill="none" stroke="black" points="641.62,-166.38 641.62,-191.62 706.62,-191.62 706.62,-166.38 641.62,-166.38"/>
<text text-anchor="start" x="648.62" y="-177.07" font-family="Times New Roman,serif" font-weight="bold" font-size="9.00">Overweight I</text>
<polygon fill="none" stroke="black" points="640.62,-165.38 640.62,-192.62 707.62,-192.62 707.62,-165.38 640.62,-165.38"/>
</g>
<!-- n_1_2&#45;&gt;n_2 -->
<g id="edge12" class="edge">
<title>n_1_2&#45;&gt;n_2</title>
<path fill="none" stroke="black" d="M602.29,-250.63C615.58,-237.56 634.2,-219.25 649.15,-204.56"/>
<polygon fill="black" stroke="black" points="651.26,-207.39 655.94,-197.88 646.35,-202.4 651.26,-207.39"/>
</g>
</g>
</svg>
