<?xml version="1.0" encoding="UTF-8" standalone="no"?>
<!DOCTYPE svg PUBLIC "-//W3C//DTD SVG 1.1//EN"
 "http://www.w3.org/Graphics/SVG/1.1/DTD/svg11.dtd">
<!-- Generated by graphviz version 10.0.1 (20240210.2158)
 -->
<!-- Title: ND Pages: 1 -->
<svg width="566pt" height="423pt"
 viewBox="0.00 0.00 565.62 423.00" xmlns="http://www.w3.org/2000/svg" xmlns:xlink="http://www.w3.org/1999/xlink">
<g id="graph0" class="graph" transform="scale(1 1) rotate(0) translate(4 419)">
<title>ND</title>
<polygon fill="white" stroke="none" points="-4,4 -4,-419 561.62,-419 561.62,4 -4,4"/>
<!-- n_0_1_2_3_4_5_6 -->
<g id="node1" class="node">
<title>n_0_1_2_3_4_5_6</title>
<polygon fill="none" stroke="black" points="302.5,-342 302.5,-410 390.75,-410 390.75,-342 302.5,-342"/>
<text text-anchor="start" x="309.5" y="-395.45" font-family="Times New Roman,serif" font-weight="bold" font-size="9.00">Insufficient weight</text>
<text text-anchor="start" x="331.62" y="-386.45" font-family="Times New Roman,serif" font-weight="bold" font-size="9.00">Normal</text>
<text text-anchor="start" x="321.12" y="-377.45" font-family="Times New Roman,serif" font-weight="bold" font-size="9.00">Overweight I</text>
<text text-anchor="start" x="319.62" y="-368.45" font-family="Times New Roman,serif" font-weight="bold" font-size="9.00">Overweight II</text>
<text text-anchor="start" x="328.62" y="-359.45" font-family="Times New Roman,serif" font-weight="bold" font-size="9.00">Obesity I</text>
<text text-anchor="start" x="325.62" y="-350.45" font-family="Times New Roman,serif" font-weight="bold" font-size="9.00">Obesity III</text>
<polygon fill="none" stroke="black" points="390.75,-342 390.75,-410 443.75,-410 443.75,-342 390.75,-342"/>
<text text-anchor="start" x="397.75" y="-374.07" font-family="Times New Roman,serif" font-weight="bold" font-size="9.00">Obesity II</text>
<polygon fill="none" stroke="black" points="301.5,-341 301.5,-411 444.75,-411 444.75,-341 301.5,-341"/>
</g>
<!-- n_0_1_2_3_4_6 -->
<g id="node2" class="node">
<title>n_0_1_2_3_4_6</title>
<polygon fill="none" stroke="black" points="219,-248 219,-289 307.25,-289 307.25,-248 219,-248"/>
<text text-anchor="start" x="226" y="-274.45" font-family="Times New Roman,serif" font-weight="bold" font-size="9.00">Insufficient weight</text>
<text text-anchor="start" x="248.12" y="-265.45" font-family="Times New Roman,serif" font-weight="bold" font-size="9.00">Normal</text>
<text text-anchor="start" x="242.12" y="-256.45" font-family="Times New Roman,serif" font-weight="bold" font-size="9.00">Obesity III</text>
<polygon fill="none" stroke="black" points="307.25,-248 307.25,-289 375.25,-289 375.25,-248 307.25,-248"/>
<text text-anchor="start" x="315.75" y="-274.45" font-family="Times New Roman,serif" font-weight="bold" font-size="9.00">Overweight I</text>
<text text-anchor="start" x="314.25" y="-265.45" font-family="Times New Roman,serif" font-weight="bold" font-size="9.00">Overweight II</text>
<text text-anchor="start" x="323.25" y="-256.45" font-family="Times New Roman,serif" font-weight="bold" font-size="9.00">Obesity I</text>
<polygon fill="none" stroke="black" points="218,-247 218,-290 376.25,-290 376.25,-247 218,-247"/>
</g>
<!-- n_0_1_2_3_4_5_6&#45;&gt;n_0_1_2_3_4_6 -->
<g id="edge1" class="edge">
<title>n_0_1_2_3_4_5_6&#45;&gt;n_0_1_2_3_4_6</title>
<path fill="none" stroke="black" d="M345.9,-337.21C337.86,-326.05 329.12,-313.92 321.29,-303.05"/>
<polygon fill="black" stroke="black" points="324.25,-301.17 315.57,-295.1 318.57,-305.26 324.25,-301.17"/>
</g>
<!-- n_5 -->
<g id="node13" class="node">
<title>n_5</title>
<polygon fill="none" stroke="black" points="422.62,-255.88 422.62,-281.12 475.62,-281.12 475.62,-255.88 422.62,-255.88"/>
<text text-anchor="start" x="429.62" y="-266.57" font-family="Times New Roman,serif" font-weight="bold" font-size="9.00">Obesity II</text>
<polygon fill="none" stroke="black" points="421.62,-254.88 421.62,-282.12 476.62,-282.12 476.62,-254.88 421.62,-254.88"/>
</g>
<!-- n_0_1_2_3_4_5_6&#45;&gt;n_5 -->
<g id="edge12" class="edge">
<title>n_0_1_2_3_4_5_6&#45;&gt;n_5</title>
<path fill="none" stroke="black" d="M400.35,-337.21C410.33,-323.36 421.39,-308.01 430.45,-295.43"/>
<polygon fill="black" stroke="black" points="433.05,-297.81 436.05,-287.65 427.37,-293.71 433.05,-297.81"/>
</g>
<!-- n_0_1_6 -->
<g id="node3" class="node">
<title>n_0_1_6</title>
<polygon fill="none" stroke="black" points="132,-163 132,-195 220.25,-195 220.25,-163 132,-163"/>
<text text-anchor="start" x="139" y="-180.45" font-family="Times New Roman,serif" font-weight="bold" font-size="9.00">Insufficient weight</text>
<text text-anchor="start" x="161.12" y="-171.45" font-family="Times New Roman,serif" font-weight="bold" font-size="9.00">Normal</text>
<polygon fill="none" stroke="black" points="220.25,-163 220.25,-195 276.25,-195 276.25,-163 220.25,-163"/>
<text text-anchor="start" x="227.25" y="-177.07" font-family="Times New Roman,serif" font-weight="bold" font-size="9.00">Obesity III</text>
<polygon fill="none" stroke="black" points="131,-162 131,-196 277.25,-196 277.25,-162 131,-162"/>
</g>
<!-- n_0_1_2_3_4_6&#45;&gt;n_0_1_6 -->
<g id="edge2" class="edge">
<title>n_0_1_2_3_4_6&#45;&gt;n_0_1_6</title>
<path fill="none" stroke="black" d="M271.22,-243.13C259.43,-232.03 245.42,-218.86 233.27,-207.42"/>
<polygon fill="black" stroke="black" points="235.98,-205.17 226.3,-200.86 231.18,-210.26 235.98,-205.17"/>
</g>
<!-- n_2_3_4 -->
<g id="node8" class="node">
<title>n_2_3_4</title>
<polygon fill="none" stroke="black" points="323.62,-163 323.62,-195 391.62,-195 391.62,-163 323.62,-163"/>
<text text-anchor="start" x="330.62" y="-180.45" font-family="Times New Roman,serif" font-weight="bold" font-size="9.00">Overweight II</text>
<text text-anchor="start" x="339.62" y="-171.45" font-family="Times New Roman,serif" font-weight="bold" font-size="9.00">Obesity I</text>
<polygon fill="none" stroke="black" points="391.62,-163 391.62,-195 456.62,-195 456.62,-163 391.62,-163"/>
<text text-anchor="start" x="398.62" y="-177.07" font-family="Times New Roman,serif" font-weight="bold" font-size="9.00">Overweight I</text>
<polygon fill="none" stroke="black" points="322.62,-162 322.62,-196 457.62,-196 457.62,-162 322.62,-162"/>
</g>
<!-- n_0_1_2_3_4_6&#45;&gt;n_2_3_4 -->
<g id="edge7" class="edge">
<title>n_0_1_2_3_4_6&#45;&gt;n_2_3_4</title>
<path fill="none" stroke="black" d="M323.03,-243.13C334.82,-232.03 348.83,-218.86 360.98,-207.42"/>
<polygon fill="black" stroke="black" points="363.07,-210.26 367.95,-200.86 358.27,-205.17 363.07,-210.26"/>
</g>
<!-- n_0_1 -->
<g id="node4" class="node">
<title>n_0_1</title>
<polygon fill="none" stroke="black" points="10,-84.38 10,-109.62 98.25,-109.62 98.25,-84.38 10,-84.38"/>
<text text-anchor="start" x="17" y="-95.08" font-family="Times New Roman,serif" font-weight="bold" font-size="9.00">Insufficient weight</text>
<polygon fill="none" stroke="black" points="98.25,-84.38 98.25,-109.62 142.25,-109.62 142.25,-84.38 98.25,-84.38"/>
<text text-anchor="start" x="105.25" y="-95.08" font-family="Times New Roman,serif" font-weight="bold" font-size="9.00">Normal</text>
<polygon fill="none" stroke="black" points="9,-83.38 9,-110.62 143.25,-110.62 143.25,-83.38 9,-83.38"/>
</g>
<!-- n_0_1_6&#45;&gt;n_0_1 -->
<g id="edge3" class="edge">
<title>n_0_1_6&#45;&gt;n_0_1</title>
<path fill="none" stroke="black" d="M172.16,-158.02C154.08,-146.72 131.41,-132.55 112.63,-120.82"/>
<polygon fill="black" stroke="black" points="114.56,-117.89 104.22,-115.56 110.85,-123.83 114.56,-117.89"/>
</g>
<!-- n_6 -->
<g id="node7" class="node">
<title>n_6</title>
<polygon fill="none" stroke="black" points="189.12,-84.38 189.12,-109.62 245.12,-109.62 245.12,-84.38 189.12,-84.38"/>
<text text-anchor="start" x="196.12" y="-95.08" font-family="Times New Roman,serif" font-weight="bold" font-size="9.00">Obesity III</text>
<polygon fill="none" stroke="black" points="188.12,-83.38 188.12,-110.62 246.12,-110.62 246.12,-83.38 188.12,-83.38"/>
</g>
<!-- n_0_1_6&#45;&gt;n_6 -->
<g id="edge6" class="edge">
<title>n_0_1_6&#45;&gt;n_6</title>
<path fill="none" stroke="black" d="M207.34,-158.22C208.91,-148.54 210.83,-136.72 212.56,-126.11"/>
<polygon fill="black" stroke="black" points="216,-126.77 214.15,-116.34 209.09,-125.65 216,-126.77"/>
</g>
<!-- n_0 -->
<g id="node5" class="node">
<title>n_0</title>
<polygon fill="none" stroke="black" points="9,-5.38 9,-30.62 97.25,-30.62 97.25,-5.38 9,-5.38"/>
<text text-anchor="start" x="16" y="-16.07" font-family="Times New Roman,serif" font-weight="bold" font-size="9.00">Insufficient weight</text>
<polygon fill="none" stroke="black" points="8,-4.38 8,-31.62 98.25,-31.62 98.25,-4.38 8,-4.38"/>
</g>
<!-- n_0_1&#45;&gt;n_0 -->
<g id="edge4" class="edge">
<title>n_0_1&#45;&gt;n_0</title>
<path fill="none" stroke="black" d="M71.13,-79.29C68.29,-69.77 64.66,-57.6 61.4,-46.69"/>
<polygon fill="black" stroke="black" points="64.83,-45.97 58.62,-37.39 58.13,-47.97 64.83,-45.97"/>
</g>
<!-- n_1 -->
<g id="node6" class="node">
<title>n_1</title>
<polygon fill="none" stroke="black" points="144.12,-5.38 144.12,-30.62 188.12,-30.62 188.12,-5.38 144.12,-5.38"/>
<text text-anchor="start" x="151.12" y="-16.07" font-family="Times New Roman,serif" font-weight="bold" font-size="9.00">Normal</text>
<polygon fill="none" stroke="black" points="143.12,-4.38 143.12,-31.62 189.12,-31.62 189.12,-4.38 143.12,-4.38"/>
</g>
<!-- n_0_1&#45;&gt;n_1 -->
<g id="edge5" class="edge">
<title>n_0_1&#45;&gt;n_1</title>
<path fill="none" stroke="black" d="M95.65,-79.29C107.95,-68.77 124.04,-55.01 137.73,-43.29"/>
<polygon fill="black" stroke="black" points="139.85,-46.09 145.17,-36.93 135.3,-40.77 139.85,-46.09"/>
</g>
<!-- n_3_4 -->
<g id="node9" class="node">
<title>n_3_4</title>
<polygon fill="none" stroke="black" points="318.12,-84.38 318.12,-109.62 386.12,-109.62 386.12,-84.38 318.12,-84.38"/>
<text text-anchor="start" x="325.12" y="-95.08" font-family="Times New Roman,serif" font-weight="bold" font-size="9.00">Overweight II</text>
<polygon fill="none" stroke="black" points="386.12,-84.38 386.12,-109.62 436.12,-109.62 436.12,-84.38 386.12,-84.38"/>
<text text-anchor="start" x="393.12" y="-95.08" font-family="Times New Roman,serif" font-weight="bold" font-size="9.00">Obesity I</text>
<polygon fill="none" stroke="black" points="317.12,-83.38 317.12,-110.62 437.12,-110.62 437.12,-83.38 317.12,-83.38"/>
</g>
<!-- n_2_3_4&#45;&gt;n_3_4 -->
<g id="edge8" class="edge">
<title>n_2_3_4&#45;&gt;n_3_4</title>
<path fill="none" stroke="black" d="M386.91,-158.22C385.34,-148.54 383.42,-136.72 381.69,-126.11"/>
<polygon fill="black" stroke="black" points="385.16,-125.65 380.1,-116.34 378.25,-126.77 385.16,-125.65"/>
</g>
<!-- n_2 -->
<g id="node12" class="node">
<title>n_2</title>
<polygon fill="none" stroke="black" points="483.62,-84.38 483.62,-109.62 548.62,-109.62 548.62,-84.38 483.62,-84.38"/>
<text text-anchor="start" x="490.62" y="-95.08" font-family="Times New Roman,serif" font-weight="bold" font-size="9.00">Overweight I</text>
<polygon fill="none" stroke="black" points="482.62,-83.38 482.62,-110.62 549.62,-110.62 549.62,-83.38 482.62,-83.38"/>
</g>
<!-- n_2_3_4&#45;&gt;n_2 -->
<g id="edge11" class="edge">
<title>n_2_3_4&#45;&gt;n_2</title>
<path fill="none" stroke="black" d="M421.6,-158.02C439.39,-146.72 461.71,-132.55 480.19,-120.82"/>
<polygon fill="black" stroke="black" points="481.89,-123.88 488.45,-115.57 478.13,-117.98 481.89,-123.88"/>
</g>
<!-- n_3 -->
<g id="node10" class="node">
<title>n_3</title>
<polygon fill="none" stroke="black" points="276.12,-5.38 276.12,-30.62 344.12,-30.62 344.12,-5.38 276.12,-5.38"/>
<text text-anchor="start" x="283.12" y="-16.07" font-family="Times New Roman,serif" font-weight="bold" font-size="9.00">Overweight II</text>
<polygon fill="none" stroke="black" points="275.12,-4.38 275.12,-31.62 345.12,-31.62 345.12,-4.38 275.12,-4.38"/>
</g>
<!-- n_3_4&#45;&gt;n_3 -->
<g id="edge9" class="edge">
<title>n_3_4&#45;&gt;n_3</title>
<path fill="none" stroke="black" d="M362.59,-79.29C353.69,-69.07 342.14,-55.79 332.14,-44.3"/>
<polygon fill="black" stroke="black" points="335.06,-42.33 325.86,-37.08 329.78,-46.92 335.06,-42.33"/>
</g>
<!-- n_4 -->
<g id="node11" class="node">
<title>n_4</title>
<polygon fill="none" stroke="black" points="391.12,-5.38 391.12,-30.62 441.12,-30.62 441.12,-5.38 391.12,-5.38"/>
<text text-anchor="start" x="398.12" y="-16.07" font-family="Times New Roman,serif" font-weight="bold" font-size="9.00">Obesity I</text>
<polygon fill="none" stroke="black" points="390.12,-4.38 390.12,-31.62 442.12,-31.62 442.12,-4.38 390.12,-4.38"/>
</g>
<!-- n_3_4&#45;&gt;n_4 -->
<g id="edge10" class="edge">
<title>n_3_4&#45;&gt;n_4</title>
<path fill="none" stroke="black" d="M385.59,-79.29C390.51,-69.57 396.83,-57.09 402.45,-46"/>
<polygon fill="black" stroke="black" points="405.46,-47.79 406.86,-37.29 399.22,-44.63 405.46,-47.79"/>
</g>
</g>
</svg>
