<?xml version="1.0" encoding="UTF-8" standalone="no"?>
<!DOCTYPE svg PUBLIC "-//W3C//DTD SVG 1.1//EN"
 "http://www.w3.org/Graphics/SVG/1.1/DTD/svg11.dtd">
<!-- Generated by graphviz version 10.0.1 (20240210.2158)
 -->
<!-- Title: ND Pages: 1 -->
<svg width="591pt" height="638pt"
 viewBox="0.00 0.00 591.12 638.00" xmlns="http://www.w3.org/2000/svg" xmlns:xlink="http://www.w3.org/1999/xlink">
<g id="graph0" class="graph" transform="scale(1 1) rotate(0) translate(4 634)">
<title>ND</title>
<polygon fill="white" stroke="none" points="-4,4 -4,-634 587.12,-634 587.12,4 -4,4"/>
<!-- n_0_1_2_3_4_5_6 -->
<g id="node1" class="node">
<title>n_0_1_2_3_4_5_6</title>
<polygon fill="none" stroke="black" points="417,-557 417,-625 505.25,-625 505.25,-557 417,-557"/>
<text text-anchor="start" x="424" y="-610.45" font-family="Times New Roman,serif" font-weight="bold" font-size="9.00">Insufficient weight</text>
<text text-anchor="start" x="435.62" y="-601.45" font-family="Times New Roman,serif" font-weight="bold" font-size="9.00">Overweight I</text>
<text text-anchor="start" x="434.12" y="-592.45" font-family="Times New Roman,serif" font-weight="bold" font-size="9.00">Overweight II</text>
<text text-anchor="start" x="443.12" y="-583.45" font-family="Times New Roman,serif" font-weight="bold" font-size="9.00">Obesity I</text>
<text text-anchor="start" x="441.62" y="-574.45" font-family="Times New Roman,serif" font-weight="bold" font-size="9.00">Obesity II</text>
<text text-anchor="start" x="440.12" y="-565.45" font-family="Times New Roman,serif" font-weight="bold" font-size="9.00">Obesity III</text>
<polygon fill="none" stroke="black" points="505.25,-557 505.25,-625 549.25,-625 549.25,-557 505.25,-557"/>
<text text-anchor="start" x="512.25" y="-589.08" font-family="Times New Roman,serif" font-weight="bold" font-size="9.00">Normal</text>
<polygon fill="none" stroke="black" points="416,-556 416,-626 550.25,-626 550.25,-556 416,-556"/>
</g>
<!-- n_0_2_3_4_5_6 -->
<g id="node2" class="node">
<title>n_0_2_3_4_5_6</title>
<polygon fill="none" stroke="black" points="345,-445 345,-504 433.25,-504 433.25,-445 345,-445"/>
<text text-anchor="start" x="352" y="-489.45" font-family="Times New Roman,serif" font-weight="bold" font-size="9.00">Insufficient weight</text>
<text text-anchor="start" x="363.62" y="-480.45" font-family="Times New Roman,serif" font-weight="bold" font-size="9.00">Overweight I</text>
<text text-anchor="start" x="362.12" y="-471.45" font-family="Times New Roman,serif" font-weight="bold" font-size="9.00">Overweight II</text>
<text text-anchor="start" x="369.62" y="-462.45" font-family="Times New Roman,serif" font-weight="bold" font-size="9.00">Obesity II</text>
<text text-anchor="start" x="368.12" y="-453.45" font-family="Times New Roman,serif" font-weight="bold" font-size="9.00">Obesity III</text>
<polygon fill="none" stroke="black" points="433.25,-445 433.25,-504 483.25,-504 483.25,-445 433.25,-445"/>
<text text-anchor="start" x="440.25" y="-472.57" font-family="Times New Roman,serif" font-weight="bold" font-size="9.00">Obesity I</text>
<polygon fill="none" stroke="black" points="344,-444 344,-505 484.25,-505 484.25,-444 344,-444"/>
</g>
<!-- n_0_1_2_3_4_5_6&#45;&gt;n_0_2_3_4_5_6 -->
<g id="edge1" class="edge">
<title>n_0_1_2_3_4_5_6&#45;&gt;n_0_2_3_4_5_6</title>
<path fill="none" stroke="black" d="M460.34,-552.19C453.78,-541.31 446.58,-529.36 439.86,-518.21"/>
<polygon fill="black" stroke="black" points="443.04,-516.71 434.88,-509.95 437.05,-520.32 443.04,-516.71"/>
</g>
<!-- n_1 -->
<g id="node13" class="node">
<title>n_1</title>
<polygon fill="none" stroke="black" points="530.12,-461.88 530.12,-487.12 574.12,-487.12 574.12,-461.88 530.12,-461.88"/>
<text text-anchor="start" x="537.12" y="-472.57" font-family="Times New Roman,serif" font-weight="bold" font-size="9.00">Normal</text>
<polygon fill="none" stroke="black" points="529.12,-460.88 529.12,-488.12 575.12,-488.12 575.12,-460.88 529.12,-460.88"/>
</g>
<!-- n_0_1_2_3_4_5_6&#45;&gt;n_1 -->
<g id="edge12" class="edge">
<title>n_0_1_2_3_4_5_6&#45;&gt;n_1</title>
<path fill="none" stroke="black" d="M505.91,-552.19C515.8,-535.78 527.14,-516.96 536.12,-502.07"/>
<polygon fill="black" stroke="black" points="538.96,-504.13 541.12,-493.76 532.96,-500.52 538.96,-504.13"/>
</g>
<!-- n_0_2_3_5_6 -->
<g id="node3" class="node">
<title>n_0_2_3_5_6</title>
<polygon fill="none" stroke="black" points="261,-342 261,-392 349.25,-392 349.25,-342 261,-342"/>
<text text-anchor="start" x="268" y="-377.45" font-family="Times New Roman,serif" font-weight="bold" font-size="9.00">Insufficient weight</text>
<text text-anchor="start" x="279.62" y="-368.45" font-family="Times New Roman,serif" font-weight="bold" font-size="9.00">Overweight I</text>
<text text-anchor="start" x="285.62" y="-359.45" font-family="Times New Roman,serif" font-weight="bold" font-size="9.00">Obesity II</text>
<text text-anchor="start" x="284.12" y="-350.45" font-family="Times New Roman,serif" font-weight="bold" font-size="9.00">Obesity III</text>
<polygon fill="none" stroke="black" points="349.25,-342 349.25,-392 417.25,-392 417.25,-342 349.25,-342"/>
<text text-anchor="start" x="356.25" y="-365.07" font-family="Times New Roman,serif" font-weight="bold" font-size="9.00">Overweight II</text>
<polygon fill="none" stroke="black" points="260,-341 260,-393 418.25,-393 418.25,-341 260,-341"/>
</g>
<!-- n_0_2_3_4_5_6&#45;&gt;n_0_2_3_5_6 -->
<g id="edge2" class="edge">
<title>n_0_2_3_4_5_6&#45;&gt;n_0_2_3_5_6</title>
<path fill="none" stroke="black" d="M390.39,-440.12C382.68,-429.27 374.07,-417.16 366.14,-406"/>
<polygon fill="black" stroke="black" points="369.19,-404.25 360.55,-398.13 363.49,-408.31 369.19,-404.25"/>
</g>
<!-- n_4 -->
<g id="node12" class="node">
<title>n_4</title>
<polygon fill="none" stroke="black" points="464.12,-354.38 464.12,-379.62 514.12,-379.62 514.12,-354.38 464.12,-354.38"/>
<text text-anchor="start" x="471.12" y="-365.07" font-family="Times New Roman,serif" font-weight="bold" font-size="9.00">Obesity I</text>
<polygon fill="none" stroke="black" points="463.12,-353.38 463.12,-380.62 515.12,-380.62 515.12,-353.38 463.12,-353.38"/>
</g>
<!-- n_0_2_3_4_5_6&#45;&gt;n_4 -->
<g id="edge11" class="edge">
<title>n_0_2_3_4_5_6&#45;&gt;n_4</title>
<path fill="none" stroke="black" d="M437.86,-440.12C448.46,-425.21 460.76,-407.9 470.66,-393.98"/>
<polygon fill="black" stroke="black" points="473.26,-396.36 476.2,-386.18 467.55,-392.31 473.26,-396.36"/>
</g>
<!-- n_0_2_5_6 -->
<g id="node4" class="node">
<title>n_0_2_5_6</title>
<polygon fill="none" stroke="black" points="191,-248 191,-289 279.25,-289 279.25,-248 191,-248"/>
<text text-anchor="start" x="198" y="-274.45" font-family="Times New Roman,serif" font-weight="bold" font-size="9.00">Insufficient weight</text>
<text text-anchor="start" x="209.62" y="-265.45" font-family="Times New Roman,serif" font-weight="bold" font-size="9.00">Overweight I</text>
<text text-anchor="start" x="215.62" y="-256.45" font-family="Times New Roman,serif" font-weight="bold" font-size="9.00">Obesity II</text>
<polygon fill="none" stroke="black" points="279.25,-248 279.25,-289 335.25,-289 335.25,-248 279.25,-248"/>
<text text-anchor="start" x="286.25" y="-266.57" font-family="Times New Roman,serif" font-weight="bold" font-size="9.00">Obesity III</text>
<polygon fill="none" stroke="black" points="190,-247 190,-290 336.25,-290 336.25,-247 190,-247"/>
</g>
<!-- n_0_2_3_5_6&#45;&gt;n_0_2_5_6 -->
<g id="edge3" class="edge">
<title>n_0_2_3_5_6&#45;&gt;n_0_2_5_6</title>
<path fill="none" stroke="black" d="M316.32,-337.05C307.85,-326.29 298.17,-314 289.42,-302.88"/>
<polygon fill="black" stroke="black" points="292.19,-300.75 283.26,-295.06 286.7,-305.09 292.19,-300.75"/>
</g>
<!-- n_3 -->
<g id="node11" class="node">
<title>n_3</title>
<polygon fill="none" stroke="black" points="382.12,-255.88 382.12,-281.12 450.12,-281.12 450.12,-255.88 382.12,-255.88"/>
<text text-anchor="start" x="389.12" y="-266.57" font-family="Times New Roman,serif" font-weight="bold" font-size="9.00">Overweight II</text>
<polygon fill="none" stroke="black" points="381.12,-254.88 381.12,-282.12 451.12,-282.12 451.12,-254.88 381.12,-254.88"/>
</g>
<!-- n_0_2_3_5_6&#45;&gt;n_3 -->
<g id="edge10" class="edge">
<title>n_0_2_3_5_6&#45;&gt;n_3</title>
<path fill="none" stroke="black" d="M362.23,-337.05C372.85,-323.73 385.35,-308.07 395.63,-295.19"/>
<polygon fill="black" stroke="black" points="398.22,-297.55 401.72,-287.55 392.75,-293.18 398.22,-297.55"/>
</g>
<!-- n_0_2_5 -->
<g id="node5" class="node">
<title>n_0_2_5</title>
<polygon fill="none" stroke="black" points="110.5,-163 110.5,-195 198.75,-195 198.75,-163 110.5,-163"/>
<text text-anchor="start" x="117.5" y="-180.45" font-family="Times New Roman,serif" font-weight="bold" font-size="9.00">Insufficient weight</text>
<text text-anchor="start" x="135.12" y="-171.45" font-family="Times New Roman,serif" font-weight="bold" font-size="9.00">Obesity II</text>
<polygon fill="none" stroke="black" points="198.75,-163 198.75,-195 263.75,-195 263.75,-163 198.75,-163"/>
<text text-anchor="start" x="205.75" y="-177.07" font-family="Times New Roman,serif" font-weight="bold" font-size="9.00">Overweight I</text>
<polygon fill="none" stroke="black" points="109.5,-162 109.5,-196 264.75,-196 264.75,-162 109.5,-162"/>
</g>
<!-- n_0_2_5_6&#45;&gt;n_0_2_5 -->
<g id="edge4" class="edge">
<title>n_0_2_5_6&#45;&gt;n_0_2_5</title>
<path fill="none" stroke="black" d="M241.95,-243.13C232.6,-232.35 221.53,-219.62 211.8,-208.41"/>
<polygon fill="black" stroke="black" points="214.54,-206.22 205.34,-200.97 209.25,-210.81 214.54,-206.22"/>
</g>
<!-- n_6 -->
<g id="node10" class="node">
<title>n_6</title>
<polygon fill="none" stroke="black" points="311.12,-166.38 311.12,-191.62 367.12,-191.62 367.12,-166.38 311.12,-166.38"/>
<text text-anchor="start" x="318.12" y="-177.07" font-family="Times New Roman,serif" font-weight="bold" font-size="9.00">Obesity III</text>
<polygon fill="none" stroke="black" points="310.12,-165.38 310.12,-192.62 368.12,-192.62 368.12,-165.38 310.12,-165.38"/>
</g>
<!-- n_0_2_5_6&#45;&gt;n_6 -->
<g id="edge9" class="edge">
<title>n_0_2_5_6&#45;&gt;n_6</title>
<path fill="none" stroke="black" d="M284.3,-243.13C294.52,-231.36 306.77,-217.25 317.1,-205.36"/>
<polygon fill="black" stroke="black" points="319.65,-207.76 323.57,-197.91 314.37,-203.17 319.65,-207.76"/>
</g>
<!-- n_0_5 -->
<g id="node6" class="node">
<title>n_0_5</title>
<polygon fill="none" stroke="black" points="41.5,-84.38 41.5,-109.62 129.75,-109.62 129.75,-84.38 41.5,-84.38"/>
<text text-anchor="start" x="48.5" y="-95.08" font-family="Times New Roman,serif" font-weight="bold" font-size="9.00">Insufficient weight</text>
<polygon fill="none" stroke="black" points="129.75,-84.38 129.75,-109.62 182.75,-109.62 182.75,-84.38 129.75,-84.38"/>
<text text-anchor="start" x="136.75" y="-95.08" font-family="Times New Roman,serif" font-weight="bold" font-size="9.00">Obesity II</text>
<polygon fill="none" stroke="black" points="40.5,-83.38 40.5,-110.62 183.75,-110.62 183.75,-83.38 40.5,-83.38"/>
</g>
<!-- n_0_2_5&#45;&gt;n_0_5 -->
<g id="edge5" class="edge">
<title>n_0_2_5&#45;&gt;n_0_5</title>
<path fill="none" stroke="black" d="M168.59,-158.22C158.63,-147.61 146.26,-134.41 135.63,-123.07"/>
<polygon fill="black" stroke="black" points="138.34,-120.85 128.95,-115.95 133.24,-125.64 138.34,-120.85"/>
</g>
<!-- n_2 -->
<g id="node9" class="node">
<title>n_2</title>
<polygon fill="none" stroke="black" points="229.62,-84.38 229.62,-109.62 294.62,-109.62 294.62,-84.38 229.62,-84.38"/>
<text text-anchor="start" x="236.62" y="-95.08" font-family="Times New Roman,serif" font-weight="bold" font-size="9.00">Overweight I</text>
<polygon fill="none" stroke="black" points="228.62,-83.38 228.62,-110.62 295.62,-110.62 295.62,-83.38 228.62,-83.38"/>
</g>
<!-- n_0_2_5&#45;&gt;n_2 -->
<g id="edge8" class="edge">
<title>n_0_2_5&#45;&gt;n_2</title>
<path fill="none" stroke="black" d="M205.66,-158.22C215.62,-147.61 227.99,-134.41 238.62,-123.07"/>
<polygon fill="black" stroke="black" points="241.01,-125.64 245.3,-115.95 235.91,-120.85 241.01,-125.64"/>
</g>
<!-- n_0 -->
<g id="node7" class="node">
<title>n_0</title>
<polygon fill="none" stroke="black" points="9,-5.38 9,-30.62 97.25,-30.62 97.25,-5.38 9,-5.38"/>
<text text-anchor="start" x="16" y="-16.07" font-family="Times New Roman,serif" font-weight="bold" font-size="9.00">Insufficient weight</text>
<polygon fill="none" stroke="black" points="8,-4.38 8,-31.62 98.25,-31.62 98.25,-4.38 8,-4.38"/>
</g>
<!-- n_0_5&#45;&gt;n_0 -->
<g id="edge6" class="edge">
<title>n_0_5&#45;&gt;n_0</title>
<path fill="none" stroke="black" d="M99.32,-79.29C91.64,-69.27 81.72,-56.31 73.03,-44.98"/>
<polygon fill="black" stroke="black" points="75.89,-42.95 67.03,-37.14 70.33,-47.21 75.89,-42.95"/>
</g>
<!-- n_5 -->
<g id="node8" class="node">
<title>n_5</title>
<polygon fill="none" stroke="black" points="144.62,-5.38 144.62,-30.62 197.62,-30.62 197.62,-5.38 144.62,-5.38"/>
<text text-anchor="start" x="151.62" y="-16.07" font-family="Times New Roman,serif" font-weight="bold" font-size="9.00">Obesity II</text>
<polygon fill="none" stroke="black" points="143.62,-4.38 143.62,-31.62 198.62,-31.62 198.62,-4.38 143.62,-4.38"/>
</g>
<!-- n_0_5&#45;&gt;n_5 -->
<g id="edge7" class="edge">
<title>n_0_5&#45;&gt;n_5</title>
<path fill="none" stroke="black" d="M124.93,-79.29C132.61,-69.27 142.53,-56.31 151.22,-44.98"/>
<polygon fill="black" stroke="black" points="153.92,-47.21 157.22,-37.14 148.36,-42.95 153.92,-47.21"/>
</g>
</g>
</svg>
