<?xml version="1.0" encoding="UTF-8" standalone="no"?>
<!DOCTYPE svg PUBLIC "-//W3C//DTD SVG 1.1//EN"
 "http://www.w3.org/Graphics/SVG/1.1/DTD/svg11.dtd">
<!-- Generated by graphviz version 10.0.1 (20240210.2158)
 -->
<!-- Title: ND Pages: 1 -->
<svg width="613pt" height="526pt"
 viewBox="0.00 0.00 613.12 526.00" xmlns="http://www.w3.org/2000/svg" xmlns:xlink="http://www.w3.org/1999/xlink">
<g id="graph0" class="graph" transform="scale(1 1) rotate(0) translate(4 522)">
<title>ND</title>
<polygon fill="white" stroke="none" points="-4,4 -4,-522 609.12,-522 609.12,4 -4,4"/>
<!-- n_0_1_2_3_4_5_6 -->
<g id="node1" class="node">
<title>n_0_1_2_3_4_5_6</title>
<polygon fill="none" stroke="black" points="392,-445 392,-513 480.25,-513 480.25,-445 392,-445"/>
<text text-anchor="start" x="399" y="-498.45" font-family="Times New Roman,serif" font-weight="bold" font-size="9.00">Insufficient weight</text>
<text text-anchor="start" x="421.12" y="-489.45" font-family="Times New Roman,serif" font-weight="bold" font-size="9.00">Normal</text>
<text text-anchor="start" x="410.62" y="-480.45" font-family="Times New Roman,serif" font-weight="bold" font-size="9.00">Overweight I</text>
<text text-anchor="start" x="418.12" y="-471.45" font-family="Times New Roman,serif" font-weight="bold" font-size="9.00">Obesity I</text>
<text text-anchor="start" x="416.62" y="-462.45" font-family="Times New Roman,serif" font-weight="bold" font-size="9.00">Obesity II</text>
<text text-anchor="start" x="415.12" y="-453.45" font-family="Times New Roman,serif" font-weight="bold" font-size="9.00">Obesity III</text>
<polygon fill="none" stroke="black" points="480.25,-445 480.25,-513 548.25,-513 548.25,-445 480.25,-445"/>
<text text-anchor="start" x="487.25" y="-477.07" font-family="Times New Roman,serif" font-weight="bold" font-size="9.00">Overweight II</text>
<polygon fill="none" stroke="black" points="391,-444 391,-514 549.25,-514 549.25,-444 391,-444"/>
</g>
<!-- n_0_1_2_4_5_6 -->
<g id="node2" class="node">
<title>n_0_1_2_4_5_6</title>
<polygon fill="none" stroke="black" points="314.5,-342 314.5,-392 402.75,-392 402.75,-342 314.5,-342"/>
<text text-anchor="start" x="321.5" y="-377.45" font-family="Times New Roman,serif" font-weight="bold" font-size="9.00">Insufficient weight</text>
<text text-anchor="start" x="343.62" y="-368.45" font-family="Times New Roman,serif" font-weight="bold" font-size="9.00">Normal</text>
<text text-anchor="start" x="340.62" y="-359.45" font-family="Times New Roman,serif" font-weight="bold" font-size="9.00">Obesity I</text>
<text text-anchor="start" x="339.12" y="-350.45" font-family="Times New Roman,serif" font-weight="bold" font-size="9.00">Obesity II</text>
<polygon fill="none" stroke="black" points="402.75,-342 402.75,-392 467.75,-392 467.75,-342 402.75,-342"/>
<text text-anchor="start" x="409.75" y="-368.45" font-family="Times New Roman,serif" font-weight="bold" font-size="9.00">Overweight I</text>
<text text-anchor="start" x="414.25" y="-359.45" font-family="Times New Roman,serif" font-weight="bold" font-size="9.00">Obesity III</text>
<polygon fill="none" stroke="black" points="313.5,-341 313.5,-393 468.75,-393 468.75,-341 313.5,-341"/>
</g>
<!-- n_0_1_2_3_4_5_6&#45;&gt;n_0_1_2_4_5_6 -->
<g id="edge1" class="edge">
<title>n_0_1_2_3_4_5_6&#45;&gt;n_0_1_2_4_5_6</title>
<path fill="none" stroke="black" d="M442.94,-440.14C435.07,-429.19 426.47,-417.22 418.58,-406.23"/>
<polygon fill="black" stroke="black" points="421.43,-404.2 412.75,-398.12 415.75,-408.28 421.43,-404.2"/>
</g>
<!-- n_3 -->
<g id="node13" class="node">
<title>n_3</title>
<polygon fill="none" stroke="black" points="515.12,-354.38 515.12,-379.62 583.12,-379.62 583.12,-354.38 515.12,-354.38"/>
<text text-anchor="start" x="522.12" y="-365.07" font-family="Times New Roman,serif" font-weight="bold" font-size="9.00">Overweight II</text>
<polygon fill="none" stroke="black" points="514.12,-353.38 514.12,-380.62 584.12,-380.62 584.12,-353.38 514.12,-353.38"/>
</g>
<!-- n_0_1_2_3_4_5_6&#45;&gt;n_3 -->
<g id="edge12" class="edge">
<title>n_0_1_2_3_4_5_6&#45;&gt;n_3</title>
<path fill="none" stroke="black" d="M497.31,-440.14C508.16,-425.04 520.38,-408.02 530.23,-394.31"/>
<polygon fill="black" stroke="black" points="533.06,-396.38 536.05,-386.21 527.37,-392.29 533.06,-396.38"/>
</g>
<!-- n_0_1_4_5 -->
<g id="node3" class="node">
<title>n_0_1_4_5</title>
<polygon fill="none" stroke="black" points="238,-248 238,-289 326.25,-289 326.25,-248 238,-248"/>
<text text-anchor="start" x="245" y="-274.45" font-family="Times New Roman,serif" font-weight="bold" font-size="9.00">Insufficient weight</text>
<text text-anchor="start" x="264.12" y="-265.45" font-family="Times New Roman,serif" font-weight="bold" font-size="9.00">Obesity I</text>
<text text-anchor="start" x="262.62" y="-256.45" font-family="Times New Roman,serif" font-weight="bold" font-size="9.00">Obesity II</text>
<polygon fill="none" stroke="black" points="326.25,-248 326.25,-289 370.25,-289 370.25,-248 326.25,-248"/>
<text text-anchor="start" x="333.25" y="-266.57" font-family="Times New Roman,serif" font-weight="bold" font-size="9.00">Normal</text>
<polygon fill="none" stroke="black" points="237,-247 237,-290 371.25,-290 371.25,-247 237,-247"/>
</g>
<!-- n_0_1_2_4_5_6&#45;&gt;n_0_1_4_5 -->
<g id="edge2" class="edge">
<title>n_0_1_2_4_5_6&#45;&gt;n_0_1_4_5</title>
<path fill="none" stroke="black" d="M365.02,-337.05C355.13,-326.08 343.8,-313.51 333.62,-302.22"/>
<polygon fill="black" stroke="black" points="336.41,-300.08 327.11,-295 331.21,-304.77 336.41,-300.08"/>
</g>
<!-- n_2_6 -->
<g id="node10" class="node">
<title>n_2_6</title>
<polygon fill="none" stroke="black" points="417.62,-255.88 417.62,-281.12 482.62,-281.12 482.62,-255.88 417.62,-255.88"/>
<text text-anchor="start" x="424.62" y="-266.57" font-family="Times New Roman,serif" font-weight="bold" font-size="9.00">Overweight I</text>
<polygon fill="none" stroke="black" points="482.62,-255.88 482.62,-281.12 538.62,-281.12 538.62,-255.88 482.62,-255.88"/>
<text text-anchor="start" x="489.62" y="-266.57" font-family="Times New Roman,serif" font-weight="bold" font-size="9.00">Obesity III</text>
<polygon fill="none" stroke="black" points="416.62,-254.88 416.62,-282.12 539.62,-282.12 539.62,-254.88 416.62,-254.88"/>
</g>
<!-- n_0_1_2_4_5_6&#45;&gt;n_2_6 -->
<g id="edge9" class="edge">
<title>n_0_1_2_4_5_6&#45;&gt;n_2_6</title>
<path fill="none" stroke="black" d="M417.23,-337.05C429.35,-323.6 443.62,-307.77 455.3,-294.81"/>
<polygon fill="black" stroke="black" points="457.81,-297.26 461.91,-287.49 452.61,-292.57 457.81,-297.26"/>
</g>
<!-- n_0_4_5 -->
<g id="node4" class="node">
<title>n_0_4_5</title>
<polygon fill="none" stroke="black" points="111.5,-163 111.5,-195 199.75,-195 199.75,-163 111.5,-163"/>
<text text-anchor="start" x="118.5" y="-180.45" font-family="Times New Roman,serif" font-weight="bold" font-size="9.00">Insufficient weight</text>
<text text-anchor="start" x="137.62" y="-171.45" font-family="Times New Roman,serif" font-weight="bold" font-size="9.00">Obesity I</text>
<polygon fill="none" stroke="black" points="199.75,-163 199.75,-195 252.75,-195 252.75,-163 199.75,-163"/>
<text text-anchor="start" x="206.75" y="-177.07" font-family="Times New Roman,serif" font-weight="bold" font-size="9.00">Obesity II</text>
<polygon fill="none" stroke="black" points="110.5,-162 110.5,-196 253.75,-196 253.75,-162 110.5,-162"/>
</g>
<!-- n_0_1_4_5&#45;&gt;n_0_4_5 -->
<g id="edge3" class="edge">
<title>n_0_1_4_5&#45;&gt;n_0_4_5</title>
<path fill="none" stroke="black" d="M270.14,-243.13C254.23,-231.71 235.24,-218.1 218.98,-206.43"/>
<polygon fill="black" stroke="black" points="221.16,-203.69 211,-200.71 217.08,-209.38 221.16,-203.69"/>
</g>
<!-- n_1 -->
<g id="node9" class="node">
<title>n_1</title>
<polygon fill="none" stroke="black" points="300.12,-166.38 300.12,-191.62 344.12,-191.62 344.12,-166.38 300.12,-166.38"/>
<text text-anchor="start" x="307.12" y="-177.07" font-family="Times New Roman,serif" font-weight="bold" font-size="9.00">Normal</text>
<polygon fill="none" stroke="black" points="299.12,-165.38 299.12,-192.62 345.12,-192.62 345.12,-165.38 299.12,-165.38"/>
</g>
<!-- n_0_1_4_5&#45;&gt;n_1 -->
<g id="edge8" class="edge">
<title>n_0_1_4_5&#45;&gt;n_1</title>
<path fill="none" stroke="black" d="M309.14,-243.13C311.39,-232.17 314.07,-219.18 316.4,-207.84"/>
<polygon fill="black" stroke="black" points="319.78,-208.75 318.37,-198.25 312.93,-207.34 319.78,-208.75"/>
</g>
<!-- n_0_4 -->
<g id="node5" class="node">
<title>n_0_4</title>
<polygon fill="none" stroke="black" points="42,-84.38 42,-109.62 130.25,-109.62 130.25,-84.38 42,-84.38"/>
<text text-anchor="start" x="49" y="-95.08" font-family="Times New Roman,serif" font-weight="bold" font-size="9.00">Insufficient weight</text>
<polygon fill="none" stroke="black" points="130.25,-84.38 130.25,-109.62 180.25,-109.62 180.25,-84.38 130.25,-84.38"/>
<text text-anchor="start" x="137.25" y="-95.08" font-family="Times New Roman,serif" font-weight="bold" font-size="9.00">Obesity I</text>
<polygon fill="none" stroke="black" points="41,-83.38 41,-110.62 181.25,-110.62 181.25,-83.38 41,-83.38"/>
</g>
<!-- n_0_4_5&#45;&gt;n_0_4 -->
<g id="edge4" class="edge">
<title>n_0_4_5&#45;&gt;n_0_4</title>
<path fill="none" stroke="black" d="M164.57,-158.22C155.24,-147.71 143.66,-134.66 133.67,-123.41"/>
<polygon fill="black" stroke="black" points="136.33,-121.13 127.08,-115.98 131.1,-125.78 136.33,-121.13"/>
</g>
<!-- n_5 -->
<g id="node8" class="node">
<title>n_5</title>
<polygon fill="none" stroke="black" points="227.62,-84.38 227.62,-109.62 280.62,-109.62 280.62,-84.38 227.62,-84.38"/>
<text text-anchor="start" x="234.62" y="-95.08" font-family="Times New Roman,serif" font-weight="bold" font-size="9.00">Obesity II</text>
<polygon fill="none" stroke="black" points="226.62,-83.38 226.62,-110.62 281.62,-110.62 281.62,-83.38 226.62,-83.38"/>
</g>
<!-- n_0_4_5&#45;&gt;n_5 -->
<g id="edge7" class="edge">
<title>n_0_4_5&#45;&gt;n_5</title>
<path fill="none" stroke="black" d="M199.92,-158.22C209.48,-147.61 221.36,-134.41 231.56,-123.07"/>
<polygon fill="black" stroke="black" points="233.86,-125.74 237.95,-115.97 228.66,-121.06 233.86,-125.74"/>
</g>
<!-- n_0 -->
<g id="node6" class="node">
<title>n_0</title>
<polygon fill="none" stroke="black" points="9,-5.38 9,-30.62 97.25,-30.62 97.25,-5.38 9,-5.38"/>
<text text-anchor="start" x="16" y="-16.07" font-family="Times New Roman,serif" font-weight="bold" font-size="9.00">Insufficient weight</text>
<polygon fill="none" stroke="black" points="8,-4.38 8,-31.62 98.25,-31.62 98.25,-4.38 8,-4.38"/>
</g>
<!-- n_0_4&#45;&gt;n_0 -->
<g id="edge5" class="edge">
<title>n_0_4&#45;&gt;n_0</title>
<path fill="none" stroke="black" d="M98.54,-79.29C90.99,-69.27 81.23,-56.31 72.69,-44.98"/>
<polygon fill="black" stroke="black" points="75.61,-43.03 66.8,-37.15 70.02,-47.24 75.61,-43.03"/>
</g>
<!-- n_4 -->
<g id="node7" class="node">
<title>n_4</title>
<polygon fill="none" stroke="black" points="144.12,-5.38 144.12,-30.62 194.12,-30.62 194.12,-5.38 144.12,-5.38"/>
<text text-anchor="start" x="151.12" y="-16.07" font-family="Times New Roman,serif" font-weight="bold" font-size="9.00">Obesity I</text>
<polygon fill="none" stroke="black" points="143.12,-4.38 143.12,-31.62 195.12,-31.62 195.12,-4.38 143.12,-4.38"/>
</g>
<!-- n_0_4&#45;&gt;n_4 -->
<g id="edge6" class="edge">
<title>n_0_4&#45;&gt;n_4</title>
<path fill="none" stroke="black" d="M123.71,-79.29C131.26,-69.27 141.02,-56.31 149.56,-44.98"/>
<polygon fill="black" stroke="black" points="152.23,-47.24 155.45,-37.15 146.64,-43.03 152.23,-47.24"/>
</g>
<!-- n_2 -->
<g id="node11" class="node">
<title>n_2</title>
<polygon fill="none" stroke="black" points="427.62,-166.38 427.62,-191.62 492.62,-191.62 492.62,-166.38 427.62,-166.38"/>
<text text-anchor="start" x="434.62" y="-177.07" font-family="Times New Roman,serif" font-weight="bold" font-size="9.00">Overweight I</text>
<polygon fill="none" stroke="black" points="426.62,-165.38 426.62,-192.62 493.62,-192.62 493.62,-165.38 426.62,-165.38"/>
</g>
<!-- n_2_6&#45;&gt;n_2 -->
<g id="edge10" class="edge">
<title>n_2_6&#45;&gt;n_2</title>
<path fill="none" stroke="black" d="M474.65,-250.63C472.16,-238.52 468.75,-221.94 465.86,-207.88"/>
<polygon fill="black" stroke="black" points="469.33,-207.39 463.89,-198.3 462.48,-208.8 469.33,-207.39"/>
</g>
<!-- n_6 -->
<g id="node12" class="node">
<title>n_6</title>
<polygon fill="none" stroke="black" points="540.12,-166.38 540.12,-191.62 596.12,-191.62 596.12,-166.38 540.12,-166.38"/>
<text text-anchor="start" x="547.12" y="-177.07" font-family="Times New Roman,serif" font-weight="bold" font-size="9.00">Obesity III</text>
<polygon fill="none" stroke="black" points="539.12,-165.38 539.12,-192.62 597.12,-192.62 597.12,-165.38 539.12,-165.38"/>
</g>
<!-- n_2_6&#45;&gt;n_6 -->
<g id="edge11" class="edge">
<title>n_2_6&#45;&gt;n_6</title>
<path fill="none" stroke="black" d="M495.48,-250.63C508.92,-237.56 527.75,-219.25 542.87,-204.56"/>
<polygon fill="black" stroke="black" points="545.01,-207.35 549.74,-197.87 540.13,-202.34 545.01,-207.35"/>
</g>
</g>
</svg>
