<?xml version="1.0" encoding="UTF-8" standalone="no"?>
<!DOCTYPE svg PUBLIC "-//W3C//DTD SVG 1.1//EN"
 "http://www.w3.org/Graphics/SVG/1.1/DTD/svg11.dtd">
<!-- Generated by graphviz version 10.0.1 (20240210.2158)
 -->
<!-- Title: ND Pages: 1 -->
<svg width="670pt" height="517pt"
 viewBox="0.00 0.00 670.00 517.00" xmlns="http://www.w3.org/2000/svg" xmlns:xlink="http://www.w3.org/1999/xlink">
<g id="graph0" class="graph" transform="scale(1 1) rotate(0) translate(4 513)">
<title>ND</title>
<polygon fill="white" stroke="none" points="-4,4 -4,-513 666,-513 666,4 -4,4"/>
<!-- n_0_1_2_3_4_5_6 -->
<g id="node1" class="node">
<title>n_0_1_2_3_4_5_6</title>
<polygon fill="none" stroke="black" points="388.88,-445 388.88,-504 477.12,-504 477.12,-445 388.88,-445"/>
<text text-anchor="start" x="395.88" y="-489.45" font-family="Times New Roman,serif" font-weight="bold" font-size="9.00">Insufficient weight</text>
<text text-anchor="start" x="418" y="-480.45" font-family="Times New Roman,serif" font-weight="bold" font-size="9.00">Normal</text>
<text text-anchor="start" x="407.5" y="-471.45" font-family="Times New Roman,serif" font-weight="bold" font-size="9.00">Overweight I</text>
<text text-anchor="start" x="406" y="-462.45" font-family="Times New Roman,serif" font-weight="bold" font-size="9.00">Overweight II</text>
<text text-anchor="start" x="412" y="-453.45" font-family="Times New Roman,serif" font-weight="bold" font-size="9.00">Obesity III</text>
<polygon fill="none" stroke="black" points="477.12,-445 477.12,-504 530.12,-504 530.12,-445 477.12,-445"/>
<text text-anchor="start" x="485.62" y="-475.95" font-family="Times New Roman,serif" font-weight="bold" font-size="9.00">Obesity I</text>
<text text-anchor="start" x="484.12" y="-466.95" font-family="Times New Roman,serif" font-weight="bold" font-size="9.00">Obesity II</text>
<polygon fill="none" stroke="black" points="387.88,-444 387.88,-505 531.12,-505 531.12,-444 387.88,-444"/>
</g>
<!-- n_0_1_2_3_6 -->
<g id="node2" class="node">
<title>n_0_1_2_3_6</title>
<polygon fill="none" stroke="black" points="302.38,-342 302.38,-392 390.62,-392 390.62,-342 302.38,-342"/>
<text text-anchor="start" x="309.38" y="-377.45" font-family="Times New Roman,serif" font-weight="bold" font-size="9.00">Insufficient weight</text>
<text text-anchor="start" x="331.5" y="-368.45" font-family="Times New Roman,serif" font-weight="bold" font-size="9.00">Normal</text>
<text text-anchor="start" x="321" y="-359.45" font-family="Times New Roman,serif" font-weight="bold" font-size="9.00">Overweight I</text>
<text text-anchor="start" x="319.5" y="-350.45" font-family="Times New Roman,serif" font-weight="bold" font-size="9.00">Overweight II</text>
<polygon fill="none" stroke="black" points="390.62,-342 390.62,-392 446.62,-392 446.62,-342 390.62,-342"/>
<text text-anchor="start" x="397.62" y="-365.07" font-family="Times New Roman,serif" font-weight="bold" font-size="9.00">Obesity III</text>
<polygon fill="none" stroke="black" points="301.38,-341 301.38,-393 447.62,-393 447.62,-341 301.38,-341"/>
</g>
<!-- n_0_1_2_3_4_5_6&#45;&gt;n_0_1_2_3_6 -->
<g id="edge1" class="edge">
<title>n_0_1_2_3_4_5_6&#45;&gt;n_0_1_2_3_6</title>
<path fill="none" stroke="black" d="M432.61,-440.12C423.78,-429.16 413.91,-416.91 404.84,-405.66"/>
<polygon fill="black" stroke="black" points="407.73,-403.67 398.73,-398.08 402.28,-408.06 407.73,-403.67"/>
</g>
<!-- n_4_5 -->
<g id="node11" class="node">
<title>n_4_5</title>
<polygon fill="none" stroke="black" points="494,-354.38 494,-379.62 544,-379.62 544,-354.38 494,-354.38"/>
<text text-anchor="start" x="501" y="-365.07" font-family="Times New Roman,serif" font-weight="bold" font-size="9.00">Obesity I</text>
<polygon fill="none" stroke="black" points="544,-354.38 544,-379.62 597,-379.62 597,-354.38 544,-354.38"/>
<text text-anchor="start" x="551" y="-365.07" font-family="Times New Roman,serif" font-weight="bold" font-size="9.00">Obesity II</text>
<polygon fill="none" stroke="black" points="493,-353.38 493,-380.62 598,-380.62 598,-353.38 493,-353.38"/>
</g>
<!-- n_0_1_2_3_4_5_6&#45;&gt;n_4_5 -->
<g id="edge10" class="edge">
<title>n_0_1_2_3_4_5_6&#45;&gt;n_4_5</title>
<path fill="none" stroke="black" d="M486.71,-440.12C498.98,-425.06 513.25,-407.57 524.65,-393.58"/>
<polygon fill="black" stroke="black" points="527.12,-396.09 530.73,-386.12 521.7,-391.66 527.12,-396.09"/>
</g>
<!-- n_0_1_2_3 -->
<g id="node3" class="node">
<title>n_0_1_2_3</title>
<polygon fill="none" stroke="black" points="161.38,-248 161.38,-289 229.38,-289 229.38,-248 161.38,-248"/>
<text text-anchor="start" x="180.38" y="-274.45" font-family="Times New Roman,serif" font-weight="bold" font-size="9.00">Normal</text>
<text text-anchor="start" x="169.88" y="-265.45" font-family="Times New Roman,serif" font-weight="bold" font-size="9.00">Overweight I</text>
<text text-anchor="start" x="168.38" y="-256.45" font-family="Times New Roman,serif" font-weight="bold" font-size="9.00">Overweight II</text>
<polygon fill="none" stroke="black" points="229.38,-248 229.38,-289 317.62,-289 317.62,-248 229.38,-248"/>
<text text-anchor="start" x="236.38" y="-266.57" font-family="Times New Roman,serif" font-weight="bold" font-size="9.00">Insufficient weight</text>
<polygon fill="none" stroke="black" points="160.38,-247 160.38,-290 318.62,-290 318.62,-247 160.38,-247"/>
</g>
<!-- n_0_1_2_3_6&#45;&gt;n_0_1_2_3 -->
<g id="edge2" class="edge">
<title>n_0_1_2_3_6&#45;&gt;n_0_1_2_3</title>
<path fill="none" stroke="black" d="M334,-337.05C317.89,-325.54 299.34,-312.27 282.96,-300.56"/>
<polygon fill="black" stroke="black" points="285,-297.72 274.83,-294.75 280.93,-303.42 285,-297.72"/>
</g>
<!-- n_6 -->
<g id="node10" class="node">
<title>n_6</title>
<polygon fill="none" stroke="black" points="364.5,-255.88 364.5,-281.12 420.5,-281.12 420.5,-255.88 364.5,-255.88"/>
<text text-anchor="start" x="371.5" y="-266.57" font-family="Times New Roman,serif" font-weight="bold" font-size="9.00">Obesity III</text>
<polygon fill="none" stroke="black" points="363.5,-254.88 363.5,-282.12 421.5,-282.12 421.5,-254.88 363.5,-254.88"/>
</g>
<!-- n_0_1_2_3_6&#45;&gt;n_6 -->
<g id="edge9" class="edge">
<title>n_0_1_2_3_6&#45;&gt;n_6</title>
<path fill="none" stroke="black" d="M379.9,-337.05C382.24,-324.51 384.97,-309.89 387.28,-297.47"/>
<polygon fill="black" stroke="black" points="390.68,-298.33 389.08,-287.85 383.8,-297.04 390.68,-298.33"/>
</g>
<!-- n_1_2_3 -->
<g id="node4" class="node">
<title>n_1_2_3</title>
<polygon fill="none" stroke="black" points="110.5,-163 110.5,-195 178.5,-195 178.5,-163 110.5,-163"/>
<text text-anchor="start" x="119" y="-180.45" font-family="Times New Roman,serif" font-weight="bold" font-size="9.00">Overweight I</text>
<text text-anchor="start" x="117.5" y="-171.45" font-family="Times New Roman,serif" font-weight="bold" font-size="9.00">Overweight II</text>
<polygon fill="none" stroke="black" points="178.5,-163 178.5,-195 222.5,-195 222.5,-163 178.5,-163"/>
<text text-anchor="start" x="185.5" y="-177.07" font-family="Times New Roman,serif" font-weight="bold" font-size="9.00">Normal</text>
<polygon fill="none" stroke="black" points="109.5,-162 109.5,-196 223.5,-196 223.5,-162 109.5,-162"/>
</g>
<!-- n_0_1_2_3&#45;&gt;n_1_2_3 -->
<g id="edge3" class="edge">
<title>n_0_1_2_3&#45;&gt;n_1_2_3</title>
<path fill="none" stroke="black" d="M219.17,-243.13C210.18,-232.35 199.55,-219.62 190.21,-208.41"/>
<polygon fill="black" stroke="black" points="193.1,-206.42 184.01,-200.99 187.73,-210.91 193.1,-206.42"/>
</g>
<!-- n_0 -->
<g id="node9" class="node">
<title>n_0</title>
<polygon fill="none" stroke="black" points="269.38,-166.38 269.38,-191.62 357.62,-191.62 357.62,-166.38 269.38,-166.38"/>
<text text-anchor="start" x="276.38" y="-177.07" font-family="Times New Roman,serif" font-weight="bold" font-size="9.00">Insufficient weight</text>
<polygon fill="none" stroke="black" points="268.38,-165.38 268.38,-192.62 358.62,-192.62 358.62,-165.38 268.38,-165.38"/>
</g>
<!-- n_0_1_2_3&#45;&gt;n_0 -->
<g id="edge8" class="edge">
<title>n_0_1_2_3&#45;&gt;n_0</title>
<path fill="none" stroke="black" d="M260.11,-243.13C270.06,-231.36 282,-217.25 292.05,-205.36"/>
<polygon fill="black" stroke="black" points="294.55,-207.82 298.34,-197.93 289.21,-203.3 294.55,-207.82"/>
</g>
<!-- n_2_3 -->
<g id="node5" class="node">
<title>n_2_3</title>
<polygon fill="none" stroke="black" points="32,-84.38 32,-109.62 97,-109.62 97,-84.38 32,-84.38"/>
<text text-anchor="start" x="39" y="-95.08" font-family="Times New Roman,serif" font-weight="bold" font-size="9.00">Overweight I</text>
<polygon fill="none" stroke="black" points="97,-84.38 97,-109.62 165,-109.62 165,-84.38 97,-84.38"/>
<text text-anchor="start" x="104" y="-95.08" font-family="Times New Roman,serif" font-weight="bold" font-size="9.00">Overweight II</text>
<polygon fill="none" stroke="black" points="31,-83.38 31,-110.62 166,-110.62 166,-83.38 31,-83.38"/>
</g>
<!-- n_1_2_3&#45;&gt;n_2_3 -->
<g id="edge4" class="edge">
<title>n_1_2_3&#45;&gt;n_2_3</title>
<path fill="none" stroke="black" d="M149.69,-158.22C140.75,-147.71 129.66,-134.66 120.1,-123.41"/>
<polygon fill="black" stroke="black" points="122.94,-121.35 113.8,-116 117.61,-125.88 122.94,-121.35"/>
</g>
<!-- n_1 -->
<g id="node8" class="node">
<title>n_1</title>
<polygon fill="none" stroke="black" points="212.5,-84.38 212.5,-109.62 256.5,-109.62 256.5,-84.38 212.5,-84.38"/>
<text text-anchor="start" x="219.5" y="-95.08" font-family="Times New Roman,serif" font-weight="bold" font-size="9.00">Normal</text>
<polygon fill="none" stroke="black" points="211.5,-83.38 211.5,-110.62 257.5,-110.62 257.5,-83.38 211.5,-83.38"/>
</g>
<!-- n_1_2_3&#45;&gt;n_1 -->
<g id="edge7" class="edge">
<title>n_1_2_3&#45;&gt;n_1</title>
<path fill="none" stroke="black" d="M183.31,-158.22C192.25,-147.71 203.34,-134.66 212.9,-123.41"/>
<polygon fill="black" stroke="black" points="215.39,-125.88 219.2,-116 210.06,-121.35 215.39,-125.88"/>
</g>
<!-- n_2 -->
<g id="node6" class="node">
<title>n_2</title>
<polygon fill="none" stroke="black" points="9,-5.38 9,-30.62 74,-30.62 74,-5.38 9,-5.38"/>
<text text-anchor="start" x="16" y="-16.07" font-family="Times New Roman,serif" font-weight="bold" font-size="9.00">Overweight I</text>
<polygon fill="none" stroke="black" points="8,-4.38 8,-31.62 75,-31.62 75,-4.38 8,-4.38"/>
</g>
<!-- n_2_3&#45;&gt;n_2 -->
<g id="edge5" class="edge">
<title>n_2_3&#45;&gt;n_2</title>
<path fill="none" stroke="black" d="M86.13,-79.29C78.71,-69.27 69.12,-56.31 60.73,-44.98"/>
<polygon fill="black" stroke="black" points="63.7,-43.11 54.94,-37.16 58.08,-47.28 63.7,-43.11"/>
</g>
<!-- n_3 -->
<g id="node7" class="node">
<title>n_3</title>
<polygon fill="none" stroke="black" points="121.5,-5.38 121.5,-30.62 189.5,-30.62 189.5,-5.38 121.5,-5.38"/>
<text text-anchor="start" x="128.5" y="-16.07" font-family="Times New Roman,serif" font-weight="bold" font-size="9.00">Overweight II</text>
<polygon fill="none" stroke="black" points="120.5,-4.38 120.5,-31.62 190.5,-31.62 190.5,-4.38 120.5,-4.38"/>
</g>
<!-- n_2_3&#45;&gt;n_3 -->
<g id="edge6" class="edge">
<title>n_2_3&#45;&gt;n_3</title>
<path fill="none" stroke="black" d="M110.87,-79.29C118.29,-69.27 127.88,-56.31 136.27,-44.98"/>
<polygon fill="black" stroke="black" points="138.92,-47.28 142.06,-37.16 133.3,-43.11 138.92,-47.28"/>
</g>
<!-- n_4 -->
<g id="node12" class="node">
<title>n_4</title>
<polygon fill="none" stroke="black" points="502.5,-255.88 502.5,-281.12 552.5,-281.12 552.5,-255.88 502.5,-255.88"/>
<text text-anchor="start" x="509.5" y="-266.57" font-family="Times New Roman,serif" font-weight="bold" font-size="9.00">Obesity I</text>
<polygon fill="none" stroke="black" points="501.5,-254.88 501.5,-282.12 553.5,-282.12 553.5,-254.88 501.5,-254.88"/>
</g>
<!-- n_4_5&#45;&gt;n_4 -->
<g id="edge11" class="edge">
<title>n_4_5&#45;&gt;n_4</title>
<path fill="none" stroke="black" d="M542.36,-349.19C539.7,-334.89 535.81,-314.06 532.68,-297.28"/>
<polygon fill="black" stroke="black" points="536.21,-297.12 530.94,-287.93 529.33,-298.4 536.21,-297.12"/>
</g>
<!-- n_5 -->
<g id="node13" class="node">
<title>n_5</title>
<polygon fill="none" stroke="black" points="600,-255.88 600,-281.12 653,-281.12 653,-255.88 600,-255.88"/>
<text text-anchor="start" x="607" y="-266.57" font-family="Times New Roman,serif" font-weight="bold" font-size="9.00">Obesity II</text>
<polygon fill="none" stroke="black" points="599,-254.88 599,-282.12 654,-282.12 654,-254.88 599,-254.88"/>
</g>
<!-- n_4_5&#45;&gt;n_5 -->
<g id="edge12" class="edge">
<title>n_4_5&#45;&gt;n_5</title>
<path fill="none" stroke="black" d="M559.61,-349.19C572.19,-334.2 590.8,-312.04 605.19,-294.89"/>
<polygon fill="black" stroke="black" points="607.56,-297.51 611.31,-287.6 602.2,-293.01 607.56,-297.51"/>
</g>
</g>
</svg>
