<?xml version="1.0" encoding="UTF-8" standalone="no"?>
<!DOCTYPE svg PUBLIC "-//W3C//DTD SVG 1.1//EN"
 "http://www.w3.org/Graphics/SVG/1.1/DTD/svg11.dtd">
<!-- Generated by graphviz version 10.0.1 (20240210.2158)
 -->
<!-- Title: ND Pages: 1 -->
<svg width="596pt" height="638pt"
 viewBox="0.00 0.00 596.12 638.00" xmlns="http://www.w3.org/2000/svg" xmlns:xlink="http://www.w3.org/1999/xlink">
<g id="graph0" class="graph" transform="scale(1 1) rotate(0) translate(4 634)">
<title>ND</title>
<polygon fill="white" stroke="none" points="-4,4 -4,-634 592.12,-634 592.12,4 -4,4"/>
<!-- n_0_1_2_3_4_5_6 -->
<g id="node1" class="node">
<title>n_0_1_2_3_4_5_6</title>
<polygon fill="none" stroke="black" points="413,-557 413,-625 501.25,-625 501.25,-557 413,-557"/>
<text text-anchor="start" x="420" y="-610.45" font-family="Times New Roman,serif" font-weight="bold" font-size="9.00">Insufficient weight</text>
<text text-anchor="start" x="442.12" y="-601.45" font-family="Times New Roman,serif" font-weight="bold" font-size="9.00">Normal</text>
<text text-anchor="start" x="431.62" y="-592.45" font-family="Times New Roman,serif" font-weight="bold" font-size="9.00">Overweight I</text>
<text text-anchor="start" x="430.12" y="-583.45" font-family="Times New Roman,serif" font-weight="bold" font-size="9.00">Overweight II</text>
<text text-anchor="start" x="437.62" y="-574.45" font-family="Times New Roman,serif" font-weight="bold" font-size="9.00">Obesity II</text>
<text text-anchor="start" x="436.12" y="-565.45" font-family="Times New Roman,serif" font-weight="bold" font-size="9.00">Obesity III</text>
<polygon fill="none" stroke="black" points="501.25,-557 501.25,-625 551.25,-625 551.25,-557 501.25,-557"/>
<text text-anchor="start" x="508.25" y="-589.08" font-family="Times New Roman,serif" font-weight="bold" font-size="9.00">Obesity I</text>
<polygon fill="none" stroke="black" points="412,-556 412,-626 552.25,-626 552.25,-556 412,-556"/>
</g>
<!-- n_0_1_2_3_5_6 -->
<g id="node2" class="node">
<title>n_0_1_2_3_5_6</title>
<polygon fill="none" stroke="black" points="338,-445 338,-504 426.25,-504 426.25,-445 338,-445"/>
<text text-anchor="start" x="345" y="-489.45" font-family="Times New Roman,serif" font-weight="bold" font-size="9.00">Insufficient weight</text>
<text text-anchor="start" x="367.12" y="-480.45" font-family="Times New Roman,serif" font-weight="bold" font-size="9.00">Normal</text>
<text text-anchor="start" x="356.62" y="-471.45" font-family="Times New Roman,serif" font-weight="bold" font-size="9.00">Overweight I</text>
<text text-anchor="start" x="355.12" y="-462.45" font-family="Times New Roman,serif" font-weight="bold" font-size="9.00">Overweight II</text>
<text text-anchor="start" x="362.62" y="-453.45" font-family="Times New Roman,serif" font-weight="bold" font-size="9.00">Obesity II</text>
<polygon fill="none" stroke="black" points="426.25,-445 426.25,-504 482.25,-504 482.25,-445 426.25,-445"/>
<text text-anchor="start" x="433.25" y="-472.57" font-family="Times New Roman,serif" font-weight="bold" font-size="9.00">Obesity III</text>
<polygon fill="none" stroke="black" points="337,-444 337,-505 483.25,-505 483.25,-444 337,-444"/>
</g>
<!-- n_0_1_2_3_4_5_6&#45;&gt;n_0_1_2_3_5_6 -->
<g id="edge1" class="edge">
<title>n_0_1_2_3_4_5_6&#45;&gt;n_0_1_2_3_5_6</title>
<path fill="none" stroke="black" d="M458.35,-552.19C451.51,-541.31 444,-529.36 436.98,-518.21"/>
<polygon fill="black" stroke="black" points="440.06,-516.54 431.78,-509.93 434.14,-520.26 440.06,-516.54"/>
</g>
<!-- n_4 -->
<g id="node13" class="node">
<title>n_4</title>
<polygon fill="none" stroke="black" points="529.12,-461.88 529.12,-487.12 579.12,-487.12 579.12,-461.88 529.12,-461.88"/>
<text text-anchor="start" x="536.12" y="-472.57" font-family="Times New Roman,serif" font-weight="bold" font-size="9.00">Obesity I</text>
<polygon fill="none" stroke="black" points="528.12,-460.88 528.12,-488.12 580.12,-488.12 580.12,-460.88 528.12,-460.88"/>
</g>
<!-- n_0_1_2_3_4_5_6&#45;&gt;n_4 -->
<g id="edge12" class="edge">
<title>n_0_1_2_3_4_5_6&#45;&gt;n_4</title>
<path fill="none" stroke="black" d="M505.9,-552.19C516.22,-535.78 528.05,-516.96 537.42,-502.07"/>
<polygon fill="black" stroke="black" points="540.29,-504.07 542.65,-493.74 534.37,-500.35 540.29,-504.07"/>
</g>
<!-- n_0_1_2_3_5 -->
<g id="node3" class="node">
<title>n_0_1_2_3_5</title>
<polygon fill="none" stroke="black" points="266.5,-342 266.5,-392 354.75,-392 354.75,-342 266.5,-342"/>
<text text-anchor="start" x="273.5" y="-377.45" font-family="Times New Roman,serif" font-weight="bold" font-size="9.00">Insufficient weight</text>
<text text-anchor="start" x="295.62" y="-368.45" font-family="Times New Roman,serif" font-weight="bold" font-size="9.00">Normal</text>
<text text-anchor="start" x="285.12" y="-359.45" font-family="Times New Roman,serif" font-weight="bold" font-size="9.00">Overweight I</text>
<text text-anchor="start" x="283.62" y="-350.45" font-family="Times New Roman,serif" font-weight="bold" font-size="9.00">Overweight II</text>
<polygon fill="none" stroke="black" points="354.75,-342 354.75,-392 407.75,-392 407.75,-342 354.75,-342"/>
<text text-anchor="start" x="361.75" y="-365.07" font-family="Times New Roman,serif" font-weight="bold" font-size="9.00">Obesity II</text>
<polygon fill="none" stroke="black" points="265.5,-341 265.5,-393 408.75,-393 408.75,-341 265.5,-341"/>
</g>
<!-- n_0_1_2_3_5_6&#45;&gt;n_0_1_2_3_5 -->
<g id="edge2" class="edge">
<title>n_0_1_2_3_5_6&#45;&gt;n_0_1_2_3_5</title>
<path fill="none" stroke="black" d="M387.03,-440.12C379.6,-429.38 371.31,-417.4 363.65,-406.33"/>
<polygon fill="black" stroke="black" points="366.55,-404.37 357.98,-398.14 360.79,-408.36 366.55,-404.37"/>
</g>
<!-- n_6 -->
<g id="node12" class="node">
<title>n_6</title>
<polygon fill="none" stroke="black" points="455.12,-354.38 455.12,-379.62 511.12,-379.62 511.12,-354.38 455.12,-354.38"/>
<text text-anchor="start" x="462.12" y="-365.07" font-family="Times New Roman,serif" font-weight="bold" font-size="9.00">Obesity III</text>
<polygon fill="none" stroke="black" points="454.12,-353.38 454.12,-380.62 512.12,-380.62 512.12,-353.38 454.12,-353.38"/>
</g>
<!-- n_0_1_2_3_5_6&#45;&gt;n_6 -->
<g id="edge11" class="edge">
<title>n_0_1_2_3_5_6&#45;&gt;n_6</title>
<path fill="none" stroke="black" d="M433.22,-440.12C443.44,-425.35 455.29,-408.23 464.87,-394.38"/>
<polygon fill="black" stroke="black" points="467.72,-396.41 470.54,-386.2 461.97,-392.43 467.72,-396.41"/>
</g>
<!-- n_0_1_2_3 -->
<g id="node4" class="node">
<title>n_0_1_2_3</title>
<polygon fill="none" stroke="black" points="201,-248 201,-289 289.25,-289 289.25,-248 201,-248"/>
<text text-anchor="start" x="208" y="-274.45" font-family="Times New Roman,serif" font-weight="bold" font-size="9.00">Insufficient weight</text>
<text text-anchor="start" x="219.62" y="-265.45" font-family="Times New Roman,serif" font-weight="bold" font-size="9.00">Overweight I</text>
<text text-anchor="start" x="218.12" y="-256.45" font-family="Times New Roman,serif" font-weight="bold" font-size="9.00">Overweight II</text>
<polygon fill="none" stroke="black" points="289.25,-248 289.25,-289 333.25,-289 333.25,-248 289.25,-248"/>
<text text-anchor="start" x="296.25" y="-266.57" font-family="Times New Roman,serif" font-weight="bold" font-size="9.00">Normal</text>
<polygon fill="none" stroke="black" points="200,-247 200,-290 334.25,-290 334.25,-247 200,-247"/>
</g>
<!-- n_0_1_2_3_5&#45;&gt;n_0_1_2_3 -->
<g id="edge3" class="edge">
<title>n_0_1_2_3_5&#45;&gt;n_0_1_2_3</title>
<path fill="none" stroke="black" d="M316.12,-337.05C308.32,-326.29 299.41,-314 291.34,-302.88"/>
<polygon fill="black" stroke="black" points="294.4,-301.14 285.69,-295.1 288.73,-305.25 294.4,-301.14"/>
</g>
<!-- n_5 -->
<g id="node11" class="node">
<title>n_5</title>
<polygon fill="none" stroke="black" points="380.62,-255.88 380.62,-281.12 433.62,-281.12 433.62,-255.88 380.62,-255.88"/>
<text text-anchor="start" x="387.62" y="-266.57" font-family="Times New Roman,serif" font-weight="bold" font-size="9.00">Obesity II</text>
<polygon fill="none" stroke="black" points="379.62,-254.88 379.62,-282.12 434.62,-282.12 434.62,-254.88 379.62,-254.88"/>
</g>
<!-- n_0_1_2_3_5&#45;&gt;n_5 -->
<g id="edge10" class="edge">
<title>n_0_1_2_3_5&#45;&gt;n_5</title>
<path fill="none" stroke="black" d="M358.13,-337.05C367.69,-323.86 378.92,-308.38 388.22,-295.56"/>
<polygon fill="black" stroke="black" points="390.96,-297.74 394,-287.59 385.3,-293.63 390.96,-297.74"/>
</g>
<!-- n_0_2_3 -->
<g id="node5" class="node">
<title>n_0_2_3</title>
<polygon fill="none" stroke="black" points="117.5,-163 117.5,-195 205.75,-195 205.75,-163 117.5,-163"/>
<text text-anchor="start" x="124.5" y="-180.45" font-family="Times New Roman,serif" font-weight="bold" font-size="9.00">Insufficient weight</text>
<text text-anchor="start" x="134.62" y="-171.45" font-family="Times New Roman,serif" font-weight="bold" font-size="9.00">Overweight II</text>
<polygon fill="none" stroke="black" points="205.75,-163 205.75,-195 270.75,-195 270.75,-163 205.75,-163"/>
<text text-anchor="start" x="212.75" y="-177.07" font-family="Times New Roman,serif" font-weight="bold" font-size="9.00">Overweight I</text>
<polygon fill="none" stroke="black" points="116.5,-162 116.5,-196 271.75,-196 271.75,-162 116.5,-162"/>
</g>
<!-- n_0_1_2_3&#45;&gt;n_0_2_3 -->
<g id="edge4" class="edge">
<title>n_0_1_2_3&#45;&gt;n_0_2_3</title>
<path fill="none" stroke="black" d="M246.79,-243.13C237.8,-232.35 227.18,-219.62 217.83,-208.41"/>
<polygon fill="black" stroke="black" points="220.73,-206.42 211.64,-200.99 215.35,-210.91 220.73,-206.42"/>
</g>
<!-- n_1 -->
<g id="node10" class="node">
<title>n_1</title>
<polygon fill="none" stroke="black" points="318.12,-166.38 318.12,-191.62 362.12,-191.62 362.12,-166.38 318.12,-166.38"/>
<text text-anchor="start" x="325.12" y="-177.07" font-family="Times New Roman,serif" font-weight="bold" font-size="9.00">Normal</text>
<polygon fill="none" stroke="black" points="317.12,-165.38 317.12,-192.62 363.12,-192.62 363.12,-165.38 317.12,-165.38"/>
</g>
<!-- n_0_1_2_3&#45;&gt;n_1 -->
<g id="edge9" class="edge">
<title>n_0_1_2_3&#45;&gt;n_1</title>
<path fill="none" stroke="black" d="M287.46,-243.13C297.28,-231.36 309.05,-217.25 318.97,-205.36"/>
<polygon fill="black" stroke="black" points="321.45,-207.85 325.16,-197.93 316.07,-203.37 321.45,-207.85"/>
</g>
<!-- n_0_3 -->
<g id="node6" class="node">
<title>n_0_3</title>
<polygon fill="none" stroke="black" points="37,-84.38 37,-109.62 125.25,-109.62 125.25,-84.38 37,-84.38"/>
<text text-anchor="start" x="44" y="-95.08" font-family="Times New Roman,serif" font-weight="bold" font-size="9.00">Insufficient weight</text>
<polygon fill="none" stroke="black" points="125.25,-84.38 125.25,-109.62 193.25,-109.62 193.25,-84.38 125.25,-84.38"/>
<text text-anchor="start" x="132.25" y="-95.08" font-family="Times New Roman,serif" font-weight="bold" font-size="9.00">Overweight II</text>
<polygon fill="none" stroke="black" points="36,-83.38 36,-110.62 194.25,-110.62 194.25,-83.38 36,-83.38"/>
</g>
<!-- n_0_2_3&#45;&gt;n_0_3 -->
<g id="edge5" class="edge">
<title>n_0_2_3&#45;&gt;n_0_3</title>
<path fill="none" stroke="black" d="M174.6,-158.22C164.01,-147.5 150.82,-134.15 139.56,-122.74"/>
<polygon fill="black" stroke="black" points="142.34,-120.58 132.82,-115.92 137.36,-125.5 142.34,-120.58"/>
</g>
<!-- n_2 -->
<g id="node9" class="node">
<title>n_2</title>
<polygon fill="none" stroke="black" points="240.62,-84.38 240.62,-109.62 305.62,-109.62 305.62,-84.38 240.62,-84.38"/>
<text text-anchor="start" x="247.62" y="-95.08" font-family="Times New Roman,serif" font-weight="bold" font-size="9.00">Overweight I</text>
<polygon fill="none" stroke="black" points="239.62,-83.38 239.62,-110.62 306.62,-110.62 306.62,-83.38 239.62,-83.38"/>
</g>
<!-- n_0_2_3&#45;&gt;n_2 -->
<g id="edge8" class="edge">
<title>n_0_2_3&#45;&gt;n_2</title>
<path fill="none" stroke="black" d="M213.65,-158.22C224.24,-147.5 237.43,-134.15 248.69,-122.74"/>
<polygon fill="black" stroke="black" points="250.89,-125.5 255.43,-115.92 245.91,-120.58 250.89,-125.5"/>
</g>
<!-- n_0 -->
<g id="node7" class="node">
<title>n_0</title>
<polygon fill="none" stroke="black" points="9,-5.38 9,-30.62 97.25,-30.62 97.25,-5.38 9,-5.38"/>
<text text-anchor="start" x="16" y="-16.07" font-family="Times New Roman,serif" font-weight="bold" font-size="9.00">Insufficient weight</text>
<polygon fill="none" stroke="black" points="8,-4.38 8,-31.62 98.25,-31.62 98.25,-4.38 8,-4.38"/>
</g>
<!-- n_0_3&#45;&gt;n_0 -->
<g id="edge6" class="edge">
<title>n_0_3&#45;&gt;n_0</title>
<path fill="none" stroke="black" d="M101.67,-79.29C93.52,-69.17 82.96,-56.05 73.77,-44.64"/>
<polygon fill="black" stroke="black" points="76.71,-42.71 67.72,-37.12 71.26,-47.1 76.71,-42.71"/>
</g>
<!-- n_3 -->
<g id="node8" class="node">
<title>n_3</title>
<polygon fill="none" stroke="black" points="144.12,-5.38 144.12,-30.62 212.12,-30.62 212.12,-5.38 144.12,-5.38"/>
<text text-anchor="start" x="151.12" y="-16.07" font-family="Times New Roman,serif" font-weight="bold" font-size="9.00">Overweight II</text>
<polygon fill="none" stroke="black" points="143.12,-4.38 143.12,-31.62 213.12,-31.62 213.12,-4.38 143.12,-4.38"/>
</g>
<!-- n_0_3&#45;&gt;n_3 -->
<g id="edge7" class="edge">
<title>n_0_3&#45;&gt;n_3</title>
<path fill="none" stroke="black" d="M128.8,-79.29C137.08,-69.17 147.81,-56.05 157.15,-44.64"/>
<polygon fill="black" stroke="black" points="159.68,-47.07 163.31,-37.11 154.26,-42.64 159.68,-47.07"/>
</g>
</g>
</svg>
