<?xml version="1.0" encoding="UTF-8" standalone="no"?>
<!DOCTYPE svg PUBLIC "-//W3C//DTD SVG 1.1//EN"
 "http://www.w3.org/Graphics/SVG/1.1/DTD/svg11.dtd">
<!-- Generated by graphviz version 10.0.1 (20240210.2158)
 -->
<!-- Title: ND Pages: 1 -->
<svg width="590pt" height="405pt"
 viewBox="0.00 0.00 590.00 405.00" xmlns="http://www.w3.org/2000/svg" xmlns:xlink="http://www.w3.org/1999/xlink">
<g id="graph0" class="graph" transform="scale(1 1) rotate(0) translate(4 401)">
<title>ND</title>
<polygon fill="white" stroke="none" points="-4,4 -4,-401 586,-401 586,4 -4,4"/>
<!-- n_0_1_2_3_4_5_6 -->
<g id="node1" class="node">
<title>n_0_1_2_3_4_5_6</title>
<polygon fill="none" stroke="black" points="260.38,-342 260.38,-392 348.62,-392 348.62,-342 260.38,-342"/>
<text text-anchor="start" x="267.38" y="-377.45" font-family="Times New Roman,serif" font-weight="bold" font-size="9.00">Insufficient weight</text>
<text text-anchor="start" x="279" y="-368.45" font-family="Times New Roman,serif" font-weight="bold" font-size="9.00">Overweight I</text>
<text text-anchor="start" x="286.5" y="-359.45" font-family="Times New Roman,serif" font-weight="bold" font-size="9.00">Obesity I</text>
<text text-anchor="start" x="283.5" y="-350.45" font-family="Times New Roman,serif" font-weight="bold" font-size="9.00">Obesity III</text>
<polygon fill="none" stroke="black" points="348.62,-342 348.62,-392 416.62,-392 416.62,-342 348.62,-342"/>
<text text-anchor="start" x="367.62" y="-372.95" font-family="Times New Roman,serif" font-weight="bold" font-size="9.00">Normal</text>
<text text-anchor="start" x="355.62" y="-363.95" font-family="Times New Roman,serif" font-weight="bold" font-size="9.00">Overweight II</text>
<text text-anchor="start" x="363.12" y="-354.95" font-family="Times New Roman,serif" font-weight="bold" font-size="9.00">Obesity II</text>
<polygon fill="none" stroke="black" points="259.38,-341 259.38,-393 417.62,-393 417.62,-341 259.38,-341"/>
</g>
<!-- n_0_2_4_6 -->
<g id="node2" class="node">
<title>n_0_2_4_6</title>
<polygon fill="none" stroke="black" points="169.88,-248 169.88,-289 234.88,-289 234.88,-248 169.88,-248"/>
<text text-anchor="start" x="176.88" y="-274.45" font-family="Times New Roman,serif" font-weight="bold" font-size="9.00">Overweight I</text>
<text text-anchor="start" x="184.38" y="-265.45" font-family="Times New Roman,serif" font-weight="bold" font-size="9.00">Obesity I</text>
<text text-anchor="start" x="181.38" y="-256.45" font-family="Times New Roman,serif" font-weight="bold" font-size="9.00">Obesity III</text>
<polygon fill="none" stroke="black" points="234.88,-248 234.88,-289 323.12,-289 323.12,-248 234.88,-248"/>
<text text-anchor="start" x="241.88" y="-266.57" font-family="Times New Roman,serif" font-weight="bold" font-size="9.00">Insufficient weight</text>
<polygon fill="none" stroke="black" points="168.88,-247 168.88,-290 324.12,-290 324.12,-247 168.88,-247"/>
</g>
<!-- n_0_1_2_3_4_5_6&#45;&gt;n_0_2_4_6 -->
<g id="edge1" class="edge">
<title>n_0_1_2_3_4_5_6&#45;&gt;n_0_2_4_6</title>
<path fill="none" stroke="black" d="M310.9,-337.05C300.33,-325.97 288.22,-313.26 277.37,-301.88"/>
<polygon fill="black" stroke="black" points="280.22,-299.79 270.78,-294.97 275.15,-304.62 280.22,-299.79"/>
</g>
<!-- n_1_3_5 -->
<g id="node9" class="node">
<title>n_1_3_5</title>
<polygon fill="none" stroke="black" points="370,-252.5 370,-284.5 438,-284.5 438,-252.5 370,-252.5"/>
<text text-anchor="start" x="389" y="-269.95" font-family="Times New Roman,serif" font-weight="bold" font-size="9.00">Normal</text>
<text text-anchor="start" x="377" y="-260.95" font-family="Times New Roman,serif" font-weight="bold" font-size="9.00">Overweight II</text>
<polygon fill="none" stroke="black" points="438,-252.5 438,-284.5 491,-284.5 491,-252.5 438,-252.5"/>
<text text-anchor="start" x="445" y="-266.57" font-family="Times New Roman,serif" font-weight="bold" font-size="9.00">Obesity II</text>
<polygon fill="none" stroke="black" points="369,-251.5 369,-285.5 492,-285.5 492,-251.5 369,-251.5"/>
</g>
<!-- n_0_1_2_3_4_5_6&#45;&gt;n_1_3_5 -->
<g id="edge8" class="edge">
<title>n_0_1_2_3_4_5_6&#45;&gt;n_1_3_5</title>
<path fill="none" stroke="black" d="M366.1,-337.05C378.06,-324.51 392,-309.89 403.85,-297.46"/>
<polygon fill="black" stroke="black" points="406.25,-300.01 410.62,-290.35 401.18,-295.18 406.25,-300.01"/>
</g>
<!-- n_2_4_6 -->
<g id="node3" class="node">
<title>n_2_4_6</title>
<polygon fill="none" stroke="black" points="55,-163 55,-195 120,-195 120,-163 55,-163"/>
<text text-anchor="start" x="62" y="-180.45" font-family="Times New Roman,serif" font-weight="bold" font-size="9.00">Overweight I</text>
<text text-anchor="start" x="66.5" y="-171.45" font-family="Times New Roman,serif" font-weight="bold" font-size="9.00">Obesity III</text>
<polygon fill="none" stroke="black" points="120,-163 120,-195 170,-195 170,-163 120,-163"/>
<text text-anchor="start" x="127" y="-177.07" font-family="Times New Roman,serif" font-weight="bold" font-size="9.00">Obesity I</text>
<polygon fill="none" stroke="black" points="54,-162 54,-196 171,-196 171,-162 54,-162"/>
</g>
<!-- n_0_2_4_6&#45;&gt;n_2_4_6 -->
<g id="edge2" class="edge">
<title>n_0_2_4_6&#45;&gt;n_2_4_6</title>
<path fill="none" stroke="black" d="M209.17,-243.13C191.53,-231.61 170.45,-217.84 152.48,-206.11"/>
<polygon fill="black" stroke="black" points="154.42,-203.19 144.13,-200.65 150.59,-209.05 154.42,-203.19"/>
</g>
<!-- n_0 -->
<g id="node8" class="node">
<title>n_0</title>
<polygon fill="none" stroke="black" points="217.38,-166.38 217.38,-191.62 305.62,-191.62 305.62,-166.38 217.38,-166.38"/>
<text text-anchor="start" x="224.38" y="-177.07" font-family="Times New Roman,serif" font-weight="bold" font-size="9.00">Insufficient weight</text>
<polygon fill="none" stroke="black" points="216.38,-165.38 216.38,-192.62 306.62,-192.62 306.62,-165.38 216.38,-165.38"/>
</g>
<!-- n_0_2_4_6&#45;&gt;n_0 -->
<g id="edge7" class="edge">
<title>n_0_2_4_6&#45;&gt;n_0</title>
<path fill="none" stroke="black" d="M250.68,-243.13C252.56,-232.17 254.78,-219.18 256.73,-207.84"/>
<polygon fill="black" stroke="black" points="260.13,-208.71 258.37,-198.26 253.23,-207.53 260.13,-208.71"/>
</g>
<!-- n_2_6 -->
<g id="node4" class="node">
<title>n_2_6</title>
<polygon fill="none" stroke="black" points="35,-84.38 35,-109.62 100,-109.62 100,-84.38 35,-84.38"/>
<text text-anchor="start" x="42" y="-95.08" font-family="Times New Roman,serif" font-weight="bold" font-size="9.00">Overweight I</text>
<polygon fill="none" stroke="black" points="100,-84.38 100,-109.62 156,-109.62 156,-84.38 100,-84.38"/>
<text text-anchor="start" x="107" y="-95.08" font-family="Times New Roman,serif" font-weight="bold" font-size="9.00">Obesity III</text>
<polygon fill="none" stroke="black" points="34,-83.38 34,-110.62 157,-110.62 157,-83.38 34,-83.38"/>
</g>
<!-- n_2_4_6&#45;&gt;n_2_6 -->
<g id="edge3" class="edge">
<title>n_2_4_6&#45;&gt;n_2_6</title>
<path fill="none" stroke="black" d="M108.3,-158.22C106.22,-148.44 103.67,-136.46 101.4,-125.77"/>
<polygon fill="black" stroke="black" points="104.9,-125.38 99.39,-116.32 98.05,-126.83 104.9,-125.38"/>
</g>
<!-- n_4 -->
<g id="node7" class="node">
<title>n_4</title>
<polygon fill="none" stroke="black" points="203.5,-84.38 203.5,-109.62 253.5,-109.62 253.5,-84.38 203.5,-84.38"/>
<text text-anchor="start" x="210.5" y="-95.08" font-family="Times New Roman,serif" font-weight="bold" font-size="9.00">Obesity I</text>
<polygon fill="none" stroke="black" points="202.5,-83.38 202.5,-110.62 254.5,-110.62 254.5,-83.38 202.5,-83.38"/>
</g>
<!-- n_2_4_6&#45;&gt;n_4 -->
<g id="edge6" class="edge">
<title>n_2_4_6&#45;&gt;n_4</title>
<path fill="none" stroke="black" d="M141.47,-158.02C157.78,-146.77 178.21,-132.68 195.18,-120.98"/>
<polygon fill="black" stroke="black" points="196.71,-124.18 202.95,-115.62 192.74,-118.41 196.71,-124.18"/>
</g>
<!-- n_2 -->
<g id="node5" class="node">
<title>n_2</title>
<polygon fill="none" stroke="black" points="9,-5.38 9,-30.62 74,-30.62 74,-5.38 9,-5.38"/>
<text text-anchor="start" x="16" y="-16.07" font-family="Times New Roman,serif" font-weight="bold" font-size="9.00">Overweight I</text>
<polygon fill="none" stroke="black" points="8,-4.38 8,-31.62 75,-31.62 75,-4.38 8,-4.38"/>
</g>
<!-- n_2_6&#45;&gt;n_2 -->
<g id="edge4" class="edge">
<title>n_2_6&#45;&gt;n_2</title>
<path fill="none" stroke="black" d="M83.78,-79.29C76.83,-69.37 67.85,-56.57 59.96,-45.32"/>
<polygon fill="black" stroke="black" points="62.86,-43.36 54.25,-37.18 57.13,-47.38 62.86,-43.36"/>
</g>
<!-- n_6 -->
<g id="node6" class="node">
<title>n_6</title>
<polygon fill="none" stroke="black" points="121.5,-5.38 121.5,-30.62 177.5,-30.62 177.5,-5.38 121.5,-5.38"/>
<text text-anchor="start" x="128.5" y="-16.07" font-family="Times New Roman,serif" font-weight="bold" font-size="9.00">Obesity III</text>
<polygon fill="none" stroke="black" points="120.5,-4.38 120.5,-31.62 178.5,-31.62 178.5,-4.38 120.5,-4.38"/>
</g>
<!-- n_2_6&#45;&gt;n_6 -->
<g id="edge5" class="edge">
<title>n_2_6&#45;&gt;n_6</title>
<path fill="none" stroke="black" d="M107.22,-79.29C114.17,-69.37 123.15,-56.57 131.04,-45.32"/>
<polygon fill="black" stroke="black" points="133.87,-47.38 136.75,-37.18 128.14,-43.36 133.87,-47.38"/>
</g>
<!-- n_1_3 -->
<g id="node10" class="node">
<title>n_1_3</title>
<polygon fill="none" stroke="black" points="360.5,-166.38 360.5,-191.62 404.5,-191.62 404.5,-166.38 360.5,-166.38"/>
<text text-anchor="start" x="367.5" y="-177.07" font-family="Times New Roman,serif" font-weight="bold" font-size="9.00">Normal</text>
<polygon fill="none" stroke="black" points="404.5,-166.38 404.5,-191.62 472.5,-191.62 472.5,-166.38 404.5,-166.38"/>
<text text-anchor="start" x="411.5" y="-177.07" font-family="Times New Roman,serif" font-weight="bold" font-size="9.00">Overweight II</text>
<polygon fill="none" stroke="black" points="359.5,-165.38 359.5,-192.62 473.5,-192.62 473.5,-165.38 359.5,-165.38"/>
</g>
<!-- n_1_3_5&#45;&gt;n_1_3 -->
<g id="edge9" class="edge">
<title>n_1_3_5&#45;&gt;n_1_3</title>
<path fill="none" stroke="black" d="M427.32,-247.64C425.45,-235.91 423.04,-220.86 420.97,-207.94"/>
<polygon fill="black" stroke="black" points="424.47,-207.65 419.43,-198.33 417.56,-208.75 424.47,-207.65"/>
</g>
<!-- n_5 -->
<g id="node13" class="node">
<title>n_5</title>
<polygon fill="none" stroke="black" points="520,-166.38 520,-191.62 573,-191.62 573,-166.38 520,-166.38"/>
<text text-anchor="start" x="527" y="-177.07" font-family="Times New Roman,serif" font-weight="bold" font-size="9.00">Obesity II</text>
<polygon fill="none" stroke="black" points="519,-165.38 519,-192.62 574,-192.62 574,-165.38 519,-165.38"/>
</g>
<!-- n_1_3_5&#45;&gt;n_5 -->
<g id="edge12" class="edge">
<title>n_1_3_5&#45;&gt;n_5</title>
<path fill="none" stroke="black" d="M456.82,-247.64C474.13,-234.59 496.86,-217.45 515.1,-203.68"/>
<polygon fill="black" stroke="black" points="517.1,-206.56 522.98,-197.74 512.89,-200.97 517.1,-206.56"/>
</g>
<!-- n_1 -->
<g id="node11" class="node">
<title>n_1</title>
<polygon fill="none" stroke="black" points="347.5,-84.38 347.5,-109.62 391.5,-109.62 391.5,-84.38 347.5,-84.38"/>
<text text-anchor="start" x="354.5" y="-95.08" font-family="Times New Roman,serif" font-weight="bold" font-size="9.00">Normal</text>
<polygon fill="none" stroke="black" points="346.5,-83.38 346.5,-110.62 392.5,-110.62 392.5,-83.38 346.5,-83.38"/>
</g>
<!-- n_1_3&#45;&gt;n_1 -->
<g id="edge10" class="edge">
<title>n_1_3&#45;&gt;n_1</title>
<path fill="none" stroke="black" d="M406.53,-161.03C400.36,-150.53 392.31,-136.82 385.28,-124.87"/>
<polygon fill="black" stroke="black" points="388.3,-123.1 380.22,-116.25 382.27,-126.64 388.3,-123.1"/>
</g>
<!-- n_3 -->
<g id="node12" class="node">
<title>n_3</title>
<polygon fill="none" stroke="black" points="438.5,-84.38 438.5,-109.62 506.5,-109.62 506.5,-84.38 438.5,-84.38"/>
<text text-anchor="start" x="445.5" y="-95.08" font-family="Times New Roman,serif" font-weight="bold" font-size="9.00">Overweight II</text>
<polygon fill="none" stroke="black" points="437.5,-83.38 437.5,-110.62 507.5,-110.62 507.5,-83.38 437.5,-83.38"/>
</g>
<!-- n_1_3&#45;&gt;n_3 -->
<g id="edge11" class="edge">
<title>n_1_3&#45;&gt;n_3</title>
<path fill="none" stroke="black" d="M428.38,-161.03C435.87,-150.32 445.71,-136.27 454.2,-124.15"/>
<polygon fill="black" stroke="black" points="456.91,-126.38 459.77,-116.18 451.17,-122.37 456.91,-126.38"/>
</g>
</g>
</svg>
