<?xml version="1.0" encoding="UTF-8" standalone="no"?>
<!DOCTYPE svg PUBLIC "-//W3C//DTD SVG 1.1//EN"
 "http://www.w3.org/Graphics/SVG/1.1/DTD/svg11.dtd">
<!-- Generated by graphviz version 10.0.1 (20240210.2158)
 -->
<!-- Title: ND Pages: 1 -->
<svg width="619pt" height="405pt"
 viewBox="0.00 0.00 619.12 405.00" xmlns="http://www.w3.org/2000/svg" xmlns:xlink="http://www.w3.org/1999/xlink">
<g id="graph0" class="graph" transform="scale(1 1) rotate(0) translate(4 401)">
<title>ND</title>
<polygon fill="white" stroke="none" points="-4,4 -4,-401 615.12,-401 615.12,4 -4,4"/>
<!-- n_0_1_2_3_4_5_6 -->
<g id="node1" class="node">
<title>n_0_1_2_3_4_5_6</title>
<polygon fill="none" stroke="black" points="298.5,-342 298.5,-392 386.75,-392 386.75,-342 298.5,-342"/>
<text text-anchor="start" x="305.5" y="-377.45" font-family="Times New Roman,serif" font-weight="bold" font-size="9.00">Insufficient weight</text>
<text text-anchor="start" x="315.62" y="-368.45" font-family="Times New Roman,serif" font-weight="bold" font-size="9.00">Overweight II</text>
<text text-anchor="start" x="323.12" y="-359.45" font-family="Times New Roman,serif" font-weight="bold" font-size="9.00">Obesity II</text>
<text text-anchor="start" x="321.62" y="-350.45" font-family="Times New Roman,serif" font-weight="bold" font-size="9.00">Obesity III</text>
<polygon fill="none" stroke="black" points="386.75,-342 386.75,-392 451.75,-392 451.75,-342 386.75,-342"/>
<text text-anchor="start" x="404.25" y="-372.95" font-family="Times New Roman,serif" font-weight="bold" font-size="9.00">Normal</text>
<text text-anchor="start" x="393.75" y="-363.95" font-family="Times New Roman,serif" font-weight="bold" font-size="9.00">Overweight I</text>
<text text-anchor="start" x="401.25" y="-354.95" font-family="Times New Roman,serif" font-weight="bold" font-size="9.00">Obesity I</text>
<polygon fill="none" stroke="black" points="297.5,-341 297.5,-393 452.75,-393 452.75,-341 297.5,-341"/>
</g>
<!-- n_0_3_5_6 -->
<g id="node2" class="node">
<title>n_0_3_5_6</title>
<polygon fill="none" stroke="black" points="215,-248 215,-289 303.25,-289 303.25,-248 215,-248"/>
<text text-anchor="start" x="222" y="-274.45" font-family="Times New Roman,serif" font-weight="bold" font-size="9.00">Insufficient weight</text>
<text text-anchor="start" x="232.12" y="-265.45" font-family="Times New Roman,serif" font-weight="bold" font-size="9.00">Overweight II</text>
<text text-anchor="start" x="239.62" y="-256.45" font-family="Times New Roman,serif" font-weight="bold" font-size="9.00">Obesity II</text>
<polygon fill="none" stroke="black" points="303.25,-248 303.25,-289 359.25,-289 359.25,-248 303.25,-248"/>
<text text-anchor="start" x="310.25" y="-266.57" font-family="Times New Roman,serif" font-weight="bold" font-size="9.00">Obesity III</text>
<polygon fill="none" stroke="black" points="214,-247 214,-290 360.25,-290 360.25,-247 214,-247"/>
</g>
<!-- n_0_1_2_3_4_5_6&#45;&gt;n_0_3_5_6 -->
<g id="edge1" class="edge">
<title>n_0_1_2_3_4_5_6&#45;&gt;n_0_3_5_6</title>
<path fill="none" stroke="black" d="M348.72,-337.05C338.72,-326.08 327.26,-313.51 316.96,-302.22"/>
<polygon fill="black" stroke="black" points="319.7,-300.02 310.37,-294.99 314.52,-304.74 319.7,-300.02"/>
</g>
<!-- n_1_2_4 -->
<g id="node9" class="node">
<title>n_1_2_4</title>
<polygon fill="none" stroke="black" points="406.62,-252.5 406.62,-284.5 471.62,-284.5 471.62,-252.5 406.62,-252.5"/>
<text text-anchor="start" x="424.12" y="-269.95" font-family="Times New Roman,serif" font-weight="bold" font-size="9.00">Normal</text>
<text text-anchor="start" x="413.62" y="-260.95" font-family="Times New Roman,serif" font-weight="bold" font-size="9.00">Overweight I</text>
<polygon fill="none" stroke="black" points="471.62,-252.5 471.62,-284.5 521.62,-284.5 521.62,-252.5 471.62,-252.5"/>
<text text-anchor="start" x="478.62" y="-266.57" font-family="Times New Roman,serif" font-weight="bold" font-size="9.00">Obesity I</text>
<polygon fill="none" stroke="black" points="405.62,-251.5 405.62,-285.5 522.62,-285.5 522.62,-251.5 405.62,-251.5"/>
</g>
<!-- n_0_1_2_3_4_5_6&#45;&gt;n_1_2_4 -->
<g id="edge8" class="edge">
<title>n_0_1_2_3_4_5_6&#45;&gt;n_1_2_4</title>
<path fill="none" stroke="black" d="M401.83,-337.05C413.39,-324.51 426.88,-309.89 438.34,-297.46"/>
<polygon fill="black" stroke="black" points="440.67,-300.1 444.88,-290.37 435.52,-295.35 440.67,-300.1"/>
</g>
<!-- n_0_3_5 -->
<g id="node3" class="node">
<title>n_0_3_5</title>
<polygon fill="none" stroke="black" points="71,-163 71,-195 159.25,-195 159.25,-163 71,-163"/>
<text text-anchor="start" x="78" y="-180.45" font-family="Times New Roman,serif" font-weight="bold" font-size="9.00">Insufficient weight</text>
<text text-anchor="start" x="95.62" y="-171.45" font-family="Times New Roman,serif" font-weight="bold" font-size="9.00">Obesity II</text>
<polygon fill="none" stroke="black" points="159.25,-163 159.25,-195 227.25,-195 227.25,-163 159.25,-163"/>
<text text-anchor="start" x="166.25" y="-177.07" font-family="Times New Roman,serif" font-weight="bold" font-size="9.00">Overweight II</text>
<polygon fill="none" stroke="black" points="70,-162 70,-196 228.25,-196 228.25,-162 70,-162"/>
</g>
<!-- n_0_3_5_6&#45;&gt;n_0_3_5 -->
<g id="edge2" class="edge">
<title>n_0_3_5_6&#45;&gt;n_0_3_5</title>
<path fill="none" stroke="black" d="M248.68,-243.13C230.43,-231.55 208.6,-217.71 190.04,-205.94"/>
<polygon fill="black" stroke="black" points="191.99,-203.04 181.67,-200.64 188.24,-208.95 191.99,-203.04"/>
</g>
<!-- n_6 -->
<g id="node8" class="node">
<title>n_6</title>
<polygon fill="none" stroke="black" points="274.12,-166.38 274.12,-191.62 330.12,-191.62 330.12,-166.38 274.12,-166.38"/>
<text text-anchor="start" x="281.12" y="-177.07" font-family="Times New Roman,serif" font-weight="bold" font-size="9.00">Obesity III</text>
<polygon fill="none" stroke="black" points="273.12,-165.38 273.12,-192.62 331.12,-192.62 331.12,-165.38 273.12,-165.38"/>
</g>
<!-- n_0_3_5_6&#45;&gt;n_6 -->
<g id="edge7" class="edge">
<title>n_0_3_5_6&#45;&gt;n_6</title>
<path fill="none" stroke="black" d="M291.3,-243.13C293.18,-232.17 295.41,-219.18 297.35,-207.84"/>
<polygon fill="black" stroke="black" points="300.75,-208.71 298.99,-198.26 293.85,-207.53 300.75,-208.71"/>
</g>
<!-- n_0_5 -->
<g id="node4" class="node">
<title>n_0_5</title>
<polygon fill="none" stroke="black" points="41.5,-84.38 41.5,-109.62 129.75,-109.62 129.75,-84.38 41.5,-84.38"/>
<text text-anchor="start" x="48.5" y="-95.08" font-family="Times New Roman,serif" font-weight="bold" font-size="9.00">Insufficient weight</text>
<polygon fill="none" stroke="black" points="129.75,-84.38 129.75,-109.62 182.75,-109.62 182.75,-84.38 129.75,-84.38"/>
<text text-anchor="start" x="136.75" y="-95.08" font-family="Times New Roman,serif" font-weight="bold" font-size="9.00">Obesity II</text>
<polygon fill="none" stroke="black" points="40.5,-83.38 40.5,-110.62 183.75,-110.62 183.75,-83.38 40.5,-83.38"/>
</g>
<!-- n_0_3_5&#45;&gt;n_0_5 -->
<g id="edge3" class="edge">
<title>n_0_3_5&#45;&gt;n_0_5</title>
<path fill="none" stroke="black" d="M139.98,-158.22C135.36,-148.23 129.68,-135.95 124.65,-125.09"/>
<polygon fill="black" stroke="black" points="127.93,-123.82 120.55,-116.22 121.57,-126.76 127.93,-123.82"/>
</g>
<!-- n_3 -->
<g id="node7" class="node">
<title>n_3</title>
<polygon fill="none" stroke="black" points="230.12,-84.38 230.12,-109.62 298.12,-109.62 298.12,-84.38 230.12,-84.38"/>
<text text-anchor="start" x="237.12" y="-95.08" font-family="Times New Roman,serif" font-weight="bold" font-size="9.00">Overweight II</text>
<polygon fill="none" stroke="black" points="229.12,-83.38 229.12,-110.62 299.12,-110.62 299.12,-83.38 229.12,-83.38"/>
</g>
<!-- n_0_3_5&#45;&gt;n_3 -->
<g id="edge6" class="edge">
<title>n_0_3_5&#45;&gt;n_3</title>
<path fill="none" stroke="black" d="M177.85,-158.02C193.86,-146.88 213.89,-132.94 230.62,-121.31"/>
<polygon fill="black" stroke="black" points="232.58,-124.21 238.79,-115.62 228.58,-118.46 232.58,-124.21"/>
</g>
<!-- n_0 -->
<g id="node5" class="node">
<title>n_0</title>
<polygon fill="none" stroke="black" points="9,-5.38 9,-30.62 97.25,-30.62 97.25,-5.38 9,-5.38"/>
<text text-anchor="start" x="16" y="-16.07" font-family="Times New Roman,serif" font-weight="bold" font-size="9.00">Insufficient weight</text>
<polygon fill="none" stroke="black" points="8,-4.38 8,-31.62 98.25,-31.62 98.25,-4.38 8,-4.38"/>
</g>
<!-- n_0_5&#45;&gt;n_0 -->
<g id="edge4" class="edge">
<title>n_0_5&#45;&gt;n_0</title>
<path fill="none" stroke="black" d="M99.32,-79.29C91.64,-69.27 81.72,-56.31 73.03,-44.98"/>
<polygon fill="black" stroke="black" points="75.89,-42.95 67.03,-37.14 70.33,-47.21 75.89,-42.95"/>
</g>
<!-- n_5 -->
<g id="node6" class="node">
<title>n_5</title>
<polygon fill="none" stroke="black" points="144.62,-5.38 144.62,-30.62 197.62,-30.62 197.62,-5.38 144.62,-5.38"/>
<text text-anchor="start" x="151.62" y="-16.07" font-family="Times New Roman,serif" font-weight="bold" font-size="9.00">Obesity II</text>
<polygon fill="none" stroke="black" points="143.62,-4.38 143.62,-31.62 198.62,-31.62 198.62,-4.38 143.62,-4.38"/>
</g>
<!-- n_0_5&#45;&gt;n_5 -->
<g id="edge5" class="edge">
<title>n_0_5&#45;&gt;n_5</title>
<path fill="none" stroke="black" d="M124.93,-79.29C132.61,-69.27 142.53,-56.31 151.22,-44.98"/>
<polygon fill="black" stroke="black" points="153.92,-47.21 157.22,-37.14 148.36,-42.95 153.92,-47.21"/>
</g>
<!-- n_1_2 -->
<g id="node10" class="node">
<title>n_1_2</title>
<polygon fill="none" stroke="black" points="395.62,-166.38 395.62,-191.62 439.62,-191.62 439.62,-166.38 395.62,-166.38"/>
<text text-anchor="start" x="402.62" y="-177.07" font-family="Times New Roman,serif" font-weight="bold" font-size="9.00">Normal</text>
<polygon fill="none" stroke="black" points="439.62,-166.38 439.62,-191.62 504.62,-191.62 504.62,-166.38 439.62,-166.38"/>
<text text-anchor="start" x="446.62" y="-177.07" font-family="Times New Roman,serif" font-weight="bold" font-size="9.00">Overweight I</text>
<polygon fill="none" stroke="black" points="394.62,-165.38 394.62,-192.62 505.62,-192.62 505.62,-165.38 394.62,-165.38"/>
</g>
<!-- n_1_2_4&#45;&gt;n_1_2 -->
<g id="edge9" class="edge">
<title>n_1_2_4&#45;&gt;n_1_2</title>
<path fill="none" stroke="black" d="M460.95,-247.64C459.07,-235.91 456.66,-220.86 454.6,-207.94"/>
<polygon fill="black" stroke="black" points="458.09,-207.65 453.06,-198.33 451.18,-208.75 458.09,-207.65"/>
</g>
<!-- n_4 -->
<g id="node13" class="node">
<title>n_4</title>
<polygon fill="none" stroke="black" points="552.12,-166.38 552.12,-191.62 602.12,-191.62 602.12,-166.38 552.12,-166.38"/>
<text text-anchor="start" x="559.12" y="-177.07" font-family="Times New Roman,serif" font-weight="bold" font-size="9.00">Obesity I</text>
<polygon fill="none" stroke="black" points="551.12,-165.38 551.12,-192.62 603.12,-192.62 603.12,-165.38 551.12,-165.38"/>
</g>
<!-- n_1_2_4&#45;&gt;n_4 -->
<g id="edge12" class="edge">
<title>n_1_2_4&#45;&gt;n_4</title>
<path fill="none" stroke="black" d="M489.77,-247.64C506.62,-234.59 528.77,-217.45 546.54,-203.68"/>
<polygon fill="black" stroke="black" points="548.43,-206.65 554.19,-197.76 544.14,-201.11 548.43,-206.65"/>
</g>
<!-- n_1 -->
<g id="node11" class="node">
<title>n_1</title>
<polygon fill="none" stroke="black" points="386.12,-84.38 386.12,-109.62 430.12,-109.62 430.12,-84.38 386.12,-84.38"/>
<text text-anchor="start" x="393.12" y="-95.08" font-family="Times New Roman,serif" font-weight="bold" font-size="9.00">Normal</text>
<polygon fill="none" stroke="black" points="385.12,-83.38 385.12,-110.62 431.12,-110.62 431.12,-83.38 385.12,-83.38"/>
</g>
<!-- n_1_2&#45;&gt;n_1 -->
<g id="edge10" class="edge">
<title>n_1_2&#45;&gt;n_1</title>
<path fill="none" stroke="black" d="M441.22,-161.03C435.71,-150.53 428.51,-136.82 422.23,-124.87"/>
<polygon fill="black" stroke="black" points="425.47,-123.51 417.72,-116.28 419.27,-126.76 425.47,-123.51"/>
</g>
<!-- n_2 -->
<g id="node12" class="node">
<title>n_2</title>
<polygon fill="none" stroke="black" points="477.62,-84.38 477.62,-109.62 542.62,-109.62 542.62,-84.38 477.62,-84.38"/>
<text text-anchor="start" x="484.62" y="-95.08" font-family="Times New Roman,serif" font-weight="bold" font-size="9.00">Overweight I</text>
<polygon fill="none" stroke="black" points="476.62,-83.38 476.62,-110.62 543.62,-110.62 543.62,-83.38 476.62,-83.38"/>
</g>
<!-- n_1_2&#45;&gt;n_2 -->
<g id="edge11" class="edge">
<title>n_1_2&#45;&gt;n_2</title>
<path fill="none" stroke="black" d="M462.85,-161.03C470.88,-150.32 481.43,-136.27 490.52,-124.15"/>
<polygon fill="black" stroke="black" points="493.31,-126.25 496.51,-116.15 487.71,-122.05 493.31,-126.25"/>
</g>
</g>
</svg>
