<?xml version="1.0" encoding="UTF-8" standalone="no"?>
<!DOCTYPE svg PUBLIC "-//W3C//DTD SVG 1.1//EN"
 "http://www.w3.org/Graphics/SVG/1.1/DTD/svg11.dtd">
<!-- Generated by graphviz version 10.0.1 (20240210.2158)
 -->
<!-- Title: ND Pages: 1 -->
<svg width="580pt" height="638pt"
 viewBox="0.00 0.00 580.12 638.00" xmlns="http://www.w3.org/2000/svg" xmlns:xlink="http://www.w3.org/1999/xlink">
<g id="graph0" class="graph" transform="scale(1 1) rotate(0) translate(4 634)">
<title>ND</title>
<polygon fill="white" stroke="none" points="-4,4 -4,-634 576.12,-634 576.12,4 -4,4"/>
<!-- n_0_1_2_3_4_5_6 -->
<g id="node1" class="node">
<title>n_0_1_2_3_4_5_6</title>
<polygon fill="none" stroke="black" points="363.88,-557 363.88,-625 431.88,-625 431.88,-557 363.88,-557"/>
<text text-anchor="start" x="382.88" y="-610.45" font-family="Times New Roman,serif" font-weight="bold" font-size="9.00">Normal</text>
<text text-anchor="start" x="372.38" y="-601.45" font-family="Times New Roman,serif" font-weight="bold" font-size="9.00">Overweight I</text>
<text text-anchor="start" x="370.88" y="-592.45" font-family="Times New Roman,serif" font-weight="bold" font-size="9.00">Overweight II</text>
<text text-anchor="start" x="379.88" y="-583.45" font-family="Times New Roman,serif" font-weight="bold" font-size="9.00">Obesity I</text>
<text text-anchor="start" x="378.38" y="-574.45" font-family="Times New Roman,serif" font-weight="bold" font-size="9.00">Obesity II</text>
<text text-anchor="start" x="376.88" y="-565.45" font-family="Times New Roman,serif" font-weight="bold" font-size="9.00">Obesity III</text>
<polygon fill="none" stroke="black" points="431.88,-557 431.88,-625 520.12,-625 520.12,-557 431.88,-557"/>
<text text-anchor="start" x="438.88" y="-589.08" font-family="Times New Roman,serif" font-weight="bold" font-size="9.00">Insufficient weight</text>
<polygon fill="none" stroke="black" points="362.88,-556 362.88,-626 521.12,-626 521.12,-556 362.88,-556"/>
</g>
<!-- n_1_2_3_4_5_6 -->
<g id="node2" class="node">
<title>n_1_2_3_4_5_6</title>
<polygon fill="none" stroke="black" points="304,-445 304,-504 372,-504 372,-445 304,-445"/>
<text text-anchor="start" x="323" y="-489.45" font-family="Times New Roman,serif" font-weight="bold" font-size="9.00">Normal</text>
<text text-anchor="start" x="312.5" y="-480.45" font-family="Times New Roman,serif" font-weight="bold" font-size="9.00">Overweight I</text>
<text text-anchor="start" x="311" y="-471.45" font-family="Times New Roman,serif" font-weight="bold" font-size="9.00">Overweight II</text>
<text text-anchor="start" x="320" y="-462.45" font-family="Times New Roman,serif" font-weight="bold" font-size="9.00">Obesity I</text>
<text text-anchor="start" x="318.5" y="-453.45" font-family="Times New Roman,serif" font-weight="bold" font-size="9.00">Obesity II</text>
<polygon fill="none" stroke="black" points="372,-445 372,-504 428,-504 428,-445 372,-445"/>
<text text-anchor="start" x="379" y="-472.57" font-family="Times New Roman,serif" font-weight="bold" font-size="9.00">Obesity III</text>
<polygon fill="none" stroke="black" points="303,-444 303,-505 429,-505 429,-444 303,-444"/>
</g>
<!-- n_0_1_2_3_4_5_6&#45;&gt;n_1_2_3_4_5_6 -->
<g id="edge1" class="edge">
<title>n_0_1_2_3_4_5_6&#45;&gt;n_1_2_3_4_5_6</title>
<path fill="none" stroke="black" d="M416.9,-552.19C409.68,-541.31 401.75,-529.36 394.35,-518.21"/>
<polygon fill="black" stroke="black" points="397.29,-516.31 388.84,-509.91 391.46,-520.18 397.29,-516.31"/>
</g>
<!-- n_0 -->
<g id="node13" class="node">
<title>n_0</title>
<polygon fill="none" stroke="black" points="474.88,-461.88 474.88,-487.12 563.12,-487.12 563.12,-461.88 474.88,-461.88"/>
<text text-anchor="start" x="481.88" y="-472.57" font-family="Times New Roman,serif" font-weight="bold" font-size="9.00">Insufficient weight</text>
<polygon fill="none" stroke="black" points="473.88,-460.88 473.88,-488.12 564.12,-488.12 564.12,-460.88 473.88,-460.88"/>
</g>
<!-- n_0_1_2_3_4_5_6&#45;&gt;n_0 -->
<g id="edge12" class="edge">
<title>n_0_1_2_3_4_5_6&#45;&gt;n_0</title>
<path fill="none" stroke="black" d="M467.43,-552.19C478.57,-535.63 491.36,-516.6 501.42,-501.64"/>
<polygon fill="black" stroke="black" points="504.07,-503.97 506.75,-493.72 498.26,-500.06 504.07,-503.97"/>
</g>
<!-- n_1_2_3_4_5 -->
<g id="node3" class="node">
<title>n_1_2_3_4_5</title>
<polygon fill="none" stroke="black" points="240,-342 240,-392 308,-392 308,-342 240,-342"/>
<text text-anchor="start" x="259" y="-377.45" font-family="Times New Roman,serif" font-weight="bold" font-size="9.00">Normal</text>
<text text-anchor="start" x="248.5" y="-368.45" font-family="Times New Roman,serif" font-weight="bold" font-size="9.00">Overweight I</text>
<text text-anchor="start" x="247" y="-359.45" font-family="Times New Roman,serif" font-weight="bold" font-size="9.00">Overweight II</text>
<text text-anchor="start" x="254.5" y="-350.45" font-family="Times New Roman,serif" font-weight="bold" font-size="9.00">Obesity II</text>
<polygon fill="none" stroke="black" points="308,-342 308,-392 358,-392 358,-342 308,-342"/>
<text text-anchor="start" x="315" y="-365.07" font-family="Times New Roman,serif" font-weight="bold" font-size="9.00">Obesity I</text>
<polygon fill="none" stroke="black" points="239,-341 239,-393 359,-393 359,-341 239,-341"/>
</g>
<!-- n_1_2_3_4_5_6&#45;&gt;n_1_2_3_4_5 -->
<g id="edge2" class="edge">
<title>n_1_2_3_4_5_6&#45;&gt;n_1_2_3_4_5</title>
<path fill="none" stroke="black" d="M344.8,-440.12C337.98,-429.38 330.37,-417.4 323.34,-406.33"/>
<polygon fill="black" stroke="black" points="326.48,-404.74 318.16,-398.18 320.57,-408.49 326.48,-404.74"/>
</g>
<!-- n_6 -->
<g id="node12" class="node">
<title>n_6</title>
<polygon fill="none" stroke="black" points="405,-354.38 405,-379.62 461,-379.62 461,-354.38 405,-354.38"/>
<text text-anchor="start" x="412" y="-365.07" font-family="Times New Roman,serif" font-weight="bold" font-size="9.00">Obesity III</text>
<polygon fill="none" stroke="black" points="404,-353.38 404,-380.62 462,-380.62 462,-353.38 404,-353.38"/>
</g>
<!-- n_1_2_3_4_5_6&#45;&gt;n_6 -->
<g id="edge11" class="edge">
<title>n_1_2_3_4_5_6&#45;&gt;n_6</title>
<path fill="none" stroke="black" d="M387.2,-440.12C396.58,-425.35 407.45,-408.23 416.25,-394.38"/>
<polygon fill="black" stroke="black" points="419.02,-396.55 421.42,-386.23 413.11,-392.79 419.02,-396.55"/>
</g>
<!-- n_1_2_3_5 -->
<g id="node4" class="node">
<title>n_1_2_3_5</title>
<polygon fill="none" stroke="black" points="179,-248 179,-289 247,-289 247,-248 179,-248"/>
<text text-anchor="start" x="187.5" y="-274.45" font-family="Times New Roman,serif" font-weight="bold" font-size="9.00">Overweight I</text>
<text text-anchor="start" x="186" y="-265.45" font-family="Times New Roman,serif" font-weight="bold" font-size="9.00">Overweight II</text>
<text text-anchor="start" x="193.5" y="-256.45" font-family="Times New Roman,serif" font-weight="bold" font-size="9.00">Obesity II</text>
<polygon fill="none" stroke="black" points="247,-248 247,-289 291,-289 291,-248 247,-248"/>
<text text-anchor="start" x="254" y="-266.57" font-family="Times New Roman,serif" font-weight="bold" font-size="9.00">Normal</text>
<polygon fill="none" stroke="black" points="178,-247 178,-290 292,-290 292,-247 178,-247"/>
</g>
<!-- n_1_2_3_4_5&#45;&gt;n_1_2_3_5 -->
<g id="edge3" class="edge">
<title>n_1_2_3_4_5&#45;&gt;n_1_2_3_5</title>
<path fill="none" stroke="black" d="M279.8,-337.05C272.74,-326.4 264.68,-314.25 257.36,-303.22"/>
<polygon fill="black" stroke="black" points="260.45,-301.54 252,-295.14 254.61,-305.4 260.45,-301.54"/>
</g>
<!-- n_4 -->
<g id="node11" class="node">
<title>n_4</title>
<polygon fill="none" stroke="black" points="338,-255.88 338,-281.12 388,-281.12 388,-255.88 338,-255.88"/>
<text text-anchor="start" x="345" y="-266.57" font-family="Times New Roman,serif" font-weight="bold" font-size="9.00">Obesity I</text>
<polygon fill="none" stroke="black" points="337,-254.88 337,-282.12 389,-282.12 389,-254.88 337,-254.88"/>
</g>
<!-- n_1_2_3_4_5&#45;&gt;n_4 -->
<g id="edge10" class="edge">
<title>n_1_2_3_4_5&#45;&gt;n_4</title>
<path fill="none" stroke="black" d="M318.2,-337.05C326.86,-323.99 337.01,-308.68 345.46,-295.94"/>
<polygon fill="black" stroke="black" points="348.37,-297.9 350.98,-287.63 342.53,-294.03 348.37,-297.9"/>
</g>
<!-- n_2_3_5 -->
<g id="node5" class="node">
<title>n_2_3_5</title>
<polygon fill="none" stroke="black" points="100.5,-163 100.5,-195 168.5,-195 168.5,-163 100.5,-163"/>
<text text-anchor="start" x="107.5" y="-180.45" font-family="Times New Roman,serif" font-weight="bold" font-size="9.00">Overweight II</text>
<text text-anchor="start" x="115" y="-171.45" font-family="Times New Roman,serif" font-weight="bold" font-size="9.00">Obesity II</text>
<polygon fill="none" stroke="black" points="168.5,-163 168.5,-195 233.5,-195 233.5,-163 168.5,-163"/>
<text text-anchor="start" x="175.5" y="-177.07" font-family="Times New Roman,serif" font-weight="bold" font-size="9.00">Overweight I</text>
<polygon fill="none" stroke="black" points="99.5,-162 99.5,-196 234.5,-196 234.5,-162 99.5,-162"/>
</g>
<!-- n_1_2_3_5&#45;&gt;n_2_3_5 -->
<g id="edge4" class="edge">
<title>n_1_2_3_5&#45;&gt;n_2_3_5</title>
<path fill="none" stroke="black" d="M216.06,-243.13C207.77,-232.46 197.98,-219.87 189.34,-208.75"/>
<polygon fill="black" stroke="black" points="192.24,-206.77 183.34,-201.02 186.71,-211.06 192.24,-206.77"/>
</g>
<!-- n_1 -->
<g id="node10" class="node">
<title>n_1</title>
<polygon fill="none" stroke="black" points="281,-166.38 281,-191.62 325,-191.62 325,-166.38 281,-166.38"/>
<text text-anchor="start" x="288" y="-177.07" font-family="Times New Roman,serif" font-weight="bold" font-size="9.00">Normal</text>
<polygon fill="none" stroke="black" points="280,-165.38 280,-192.62 326,-192.62 326,-165.38 280,-165.38"/>
</g>
<!-- n_1_2_3_5&#45;&gt;n_1 -->
<g id="edge9" class="edge">
<title>n_1_2_3_5&#45;&gt;n_1</title>
<path fill="none" stroke="black" d="M253.94,-243.13C263,-231.48 273.84,-217.53 283.02,-205.71"/>
<polygon fill="black" stroke="black" points="285.67,-208.01 289.04,-197.97 280.14,-203.71 285.67,-208.01"/>
</g>
<!-- n_3_5 -->
<g id="node6" class="node">
<title>n_3_5</title>
<polygon fill="none" stroke="black" points="36.5,-84.38 36.5,-109.62 104.5,-109.62 104.5,-84.38 36.5,-84.38"/>
<text text-anchor="start" x="43.5" y="-95.08" font-family="Times New Roman,serif" font-weight="bold" font-size="9.00">Overweight II</text>
<polygon fill="none" stroke="black" points="104.5,-84.38 104.5,-109.62 157.5,-109.62 157.5,-84.38 104.5,-84.38"/>
<text text-anchor="start" x="111.5" y="-95.08" font-family="Times New Roman,serif" font-weight="bold" font-size="9.00">Obesity II</text>
<polygon fill="none" stroke="black" points="35.5,-83.38 35.5,-110.62 158.5,-110.62 158.5,-83.38 35.5,-83.38"/>
</g>
<!-- n_2_3_5&#45;&gt;n_3_5 -->
<g id="edge5" class="edge">
<title>n_2_3_5&#45;&gt;n_3_5</title>
<path fill="none" stroke="black" d="M149.7,-158.22C140.5,-147.71 129.08,-134.66 119.23,-123.41"/>
<polygon fill="black" stroke="black" points="121.95,-121.2 112.73,-115.98 116.69,-125.81 121.95,-121.2"/>
</g>
<!-- n_2 -->
<g id="node9" class="node">
<title>n_2</title>
<polygon fill="none" stroke="black" points="204.5,-84.38 204.5,-109.62 269.5,-109.62 269.5,-84.38 204.5,-84.38"/>
<text text-anchor="start" x="211.5" y="-95.08" font-family="Times New Roman,serif" font-weight="bold" font-size="9.00">Overweight I</text>
<polygon fill="none" stroke="black" points="203.5,-83.38 203.5,-110.62 270.5,-110.62 270.5,-83.38 203.5,-83.38"/>
</g>
<!-- n_2_3_5&#45;&gt;n_2 -->
<g id="edge8" class="edge">
<title>n_2_3_5&#45;&gt;n_2</title>
<path fill="none" stroke="black" d="M184.3,-158.22C193.5,-147.71 204.92,-134.66 214.77,-123.41"/>
<polygon fill="black" stroke="black" points="217.31,-125.81 221.27,-115.98 212.05,-121.2 217.31,-125.81"/>
</g>
<!-- n_3 -->
<g id="node7" class="node">
<title>n_3</title>
<polygon fill="none" stroke="black" points="9,-5.38 9,-30.62 77,-30.62 77,-5.38 9,-5.38"/>
<text text-anchor="start" x="16" y="-16.07" font-family="Times New Roman,serif" font-weight="bold" font-size="9.00">Overweight II</text>
<polygon fill="none" stroke="black" points="8,-4.38 8,-31.62 78,-31.62 78,-4.38 8,-4.38"/>
</g>
<!-- n_3_5&#45;&gt;n_3 -->
<g id="edge6" class="edge">
<title>n_3_5&#45;&gt;n_3</title>
<path fill="none" stroke="black" d="M85.28,-79.29C78.33,-69.37 69.35,-56.57 61.46,-45.32"/>
<polygon fill="black" stroke="black" points="64.36,-43.36 55.75,-37.18 58.63,-47.38 64.36,-43.36"/>
</g>
<!-- n_5 -->
<g id="node8" class="node">
<title>n_5</title>
<polygon fill="none" stroke="black" points="124.5,-5.38 124.5,-30.62 177.5,-30.62 177.5,-5.38 124.5,-5.38"/>
<text text-anchor="start" x="131.5" y="-16.07" font-family="Times New Roman,serif" font-weight="bold" font-size="9.00">Obesity II</text>
<polygon fill="none" stroke="black" points="123.5,-4.38 123.5,-31.62 178.5,-31.62 178.5,-4.38 123.5,-4.38"/>
</g>
<!-- n_3_5&#45;&gt;n_5 -->
<g id="edge7" class="edge">
<title>n_3_5&#45;&gt;n_5</title>
<path fill="none" stroke="black" d="M108.72,-79.29C115.67,-69.37 124.65,-56.57 132.54,-45.32"/>
<polygon fill="black" stroke="black" points="135.37,-47.38 138.25,-37.18 129.64,-43.36 135.37,-47.38"/>
</g>
</g>
</svg>
