<?xml version="1.0" encoding="UTF-8" standalone="no"?>
<!DOCTYPE svg PUBLIC "-//W3C//DTD SVG 1.1//EN"
 "http://www.w3.org/Graphics/SVG/1.1/DTD/svg11.dtd">
<!-- Generated by graphviz version 10.0.1 (20240210.2158)
 -->
<!-- Title: ND Pages: 1 -->
<svg width="666pt" height="517pt"
 viewBox="0.00 0.00 666.00 517.00" xmlns="http://www.w3.org/2000/svg" xmlns:xlink="http://www.w3.org/1999/xlink">
<g id="graph0" class="graph" transform="scale(1 1) rotate(0) translate(4 513)">
<title>ND</title>
<polygon fill="white" stroke="none" points="-4,4 -4,-513 662,-513 662,4 -4,4"/>
<!-- n_0_1_2_3_4_5_6 -->
<g id="node1" class="node">
<title>n_0_1_2_3_4_5_6</title>
<polygon fill="none" stroke="black" points="360.88,-445 360.88,-504 449.12,-504 449.12,-445 360.88,-445"/>
<text text-anchor="start" x="367.88" y="-489.45" font-family="Times New Roman,serif" font-weight="bold" font-size="9.00">Insufficient weight</text>
<text text-anchor="start" x="379.5" y="-480.45" font-family="Times New Roman,serif" font-weight="bold" font-size="9.00">Overweight I</text>
<text text-anchor="start" x="387" y="-471.45" font-family="Times New Roman,serif" font-weight="bold" font-size="9.00">Obesity I</text>
<text text-anchor="start" x="385.5" y="-462.45" font-family="Times New Roman,serif" font-weight="bold" font-size="9.00">Obesity II</text>
<text text-anchor="start" x="384" y="-453.45" font-family="Times New Roman,serif" font-weight="bold" font-size="9.00">Obesity III</text>
<polygon fill="none" stroke="black" points="449.12,-445 449.12,-504 517.12,-504 517.12,-445 449.12,-445"/>
<text text-anchor="start" x="468.12" y="-475.95" font-family="Times New Roman,serif" font-weight="bold" font-size="9.00">Normal</text>
<text text-anchor="start" x="456.12" y="-466.95" font-family="Times New Roman,serif" font-weight="bold" font-size="9.00">Overweight II</text>
<polygon fill="none" stroke="black" points="359.88,-444 359.88,-505 518.12,-505 518.12,-444 359.88,-444"/>
</g>
<!-- n_0_2_4_5_6 -->
<g id="node2" class="node">
<title>n_0_2_4_5_6</title>
<polygon fill="none" stroke="black" points="272.38,-342 272.38,-392 337.38,-392 337.38,-342 272.38,-342"/>
<text text-anchor="start" x="279.38" y="-377.45" font-family="Times New Roman,serif" font-weight="bold" font-size="9.00">Overweight I</text>
<text text-anchor="start" x="286.88" y="-368.45" font-family="Times New Roman,serif" font-weight="bold" font-size="9.00">Obesity I</text>
<text text-anchor="start" x="285.38" y="-359.45" font-family="Times New Roman,serif" font-weight="bold" font-size="9.00">Obesity II</text>
<text text-anchor="start" x="283.88" y="-350.45" font-family="Times New Roman,serif" font-weight="bold" font-size="9.00">Obesity III</text>
<polygon fill="none" stroke="black" points="337.38,-342 337.38,-392 425.62,-392 425.62,-342 337.38,-342"/>
<text text-anchor="start" x="344.38" y="-365.07" font-family="Times New Roman,serif" font-weight="bold" font-size="9.00">Insufficient weight</text>
<polygon fill="none" stroke="black" points="271.38,-341 271.38,-393 426.62,-393 426.62,-341 271.38,-341"/>
</g>
<!-- n_0_1_2_3_4_5_6&#45;&gt;n_0_2_4_5_6 -->
<g id="edge1" class="edge">
<title>n_0_1_2_3_4_5_6&#45;&gt;n_0_2_4_5_6</title>
<path fill="none" stroke="black" d="M410.52,-440.12C401.08,-429.05 390.52,-416.67 380.84,-405.33"/>
<polygon fill="black" stroke="black" points="383.79,-403.39 374.63,-398.05 378.46,-407.93 383.79,-403.39"/>
</g>
<!-- n_1_3 -->
<g id="node11" class="node">
<title>n_1_3</title>
<polygon fill="none" stroke="black" points="473,-354.38 473,-379.62 517,-379.62 517,-354.38 473,-354.38"/>
<text text-anchor="start" x="480" y="-365.07" font-family="Times New Roman,serif" font-weight="bold" font-size="9.00">Normal</text>
<polygon fill="none" stroke="black" points="517,-354.38 517,-379.62 585,-379.62 585,-354.38 517,-354.38"/>
<text text-anchor="start" x="524" y="-365.07" font-family="Times New Roman,serif" font-weight="bold" font-size="9.00">Overweight II</text>
<polygon fill="none" stroke="black" points="472,-353.38 472,-380.62 586,-380.62 586,-353.38 472,-353.38"/>
</g>
<!-- n_0_1_2_3_4_5_6&#45;&gt;n_1_3 -->
<g id="edge10" class="edge">
<title>n_0_1_2_3_4_5_6&#45;&gt;n_1_3</title>
<path fill="none" stroke="black" d="M467.48,-440.12C480.32,-425.06 495.25,-407.57 507.18,-393.58"/>
<polygon fill="black" stroke="black" points="509.73,-395.98 513.56,-386.1 504.4,-391.44 509.73,-395.98"/>
</g>
<!-- n_2_4_5_6 -->
<g id="node3" class="node">
<title>n_2_4_5_6</title>
<polygon fill="none" stroke="black" points="153.5,-248 153.5,-289 209.5,-289 209.5,-248 153.5,-248"/>
<text text-anchor="start" x="163.5" y="-274.45" font-family="Times New Roman,serif" font-weight="bold" font-size="9.00">Obesity I</text>
<text text-anchor="start" x="162" y="-265.45" font-family="Times New Roman,serif" font-weight="bold" font-size="9.00">Obesity II</text>
<text text-anchor="start" x="160.5" y="-256.45" font-family="Times New Roman,serif" font-weight="bold" font-size="9.00">Obesity III</text>
<polygon fill="none" stroke="black" points="209.5,-248 209.5,-289 274.5,-289 274.5,-248 209.5,-248"/>
<text text-anchor="start" x="216.5" y="-266.57" font-family="Times New Roman,serif" font-weight="bold" font-size="9.00">Overweight I</text>
<polygon fill="none" stroke="black" points="152.5,-247 152.5,-290 275.5,-290 275.5,-247 152.5,-247"/>
</g>
<!-- n_0_2_4_5_6&#45;&gt;n_2_4_5_6 -->
<g id="edge2" class="edge">
<title>n_0_2_4_5_6&#45;&gt;n_2_4_5_6</title>
<path fill="none" stroke="black" d="M308.5,-337.05C292.39,-325.54 273.84,-312.27 257.46,-300.56"/>
<polygon fill="black" stroke="black" points="259.5,-297.72 249.33,-294.75 255.43,-303.42 259.5,-297.72"/>
</g>
<!-- n_0 -->
<g id="node10" class="node">
<title>n_0</title>
<polygon fill="none" stroke="black" points="321.88,-255.88 321.88,-281.12 410.12,-281.12 410.12,-255.88 321.88,-255.88"/>
<text text-anchor="start" x="328.88" y="-266.57" font-family="Times New Roman,serif" font-weight="bold" font-size="9.00">Insufficient weight</text>
<polygon fill="none" stroke="black" points="320.88,-254.88 320.88,-282.12 411.12,-282.12 411.12,-254.88 320.88,-254.88"/>
</g>
<!-- n_0_2_4_5_6&#45;&gt;n_0 -->
<g id="edge9" class="edge">
<title>n_0_2_4_5_6&#45;&gt;n_0</title>
<path fill="none" stroke="black" d="M354.1,-337.05C356.31,-324.51 358.88,-309.89 361.07,-297.47"/>
<polygon fill="black" stroke="black" points="364.48,-298.31 362.77,-287.86 357.58,-297.1 364.48,-298.31"/>
</g>
<!-- n_4_5_6 -->
<g id="node4" class="node">
<title>n_4_5_6</title>
<polygon fill="none" stroke="black" points="92.5,-163 92.5,-195 148.5,-195 148.5,-163 92.5,-163"/>
<text text-anchor="start" x="102.5" y="-180.45" font-family="Times New Roman,serif" font-weight="bold" font-size="9.00">Obesity I</text>
<text text-anchor="start" x="99.5" y="-171.45" font-family="Times New Roman,serif" font-weight="bold" font-size="9.00">Obesity III</text>
<polygon fill="none" stroke="black" points="148.5,-163 148.5,-195 201.5,-195 201.5,-163 148.5,-163"/>
<text text-anchor="start" x="155.5" y="-177.07" font-family="Times New Roman,serif" font-weight="bold" font-size="9.00">Obesity II</text>
<polygon fill="none" stroke="black" points="91.5,-162 91.5,-196 202.5,-196 202.5,-162 91.5,-162"/>
</g>
<!-- n_2_4_5_6&#45;&gt;n_4_5_6 -->
<g id="edge3" class="edge">
<title>n_2_4_5_6&#45;&gt;n_4_5_6</title>
<path fill="none" stroke="black" d="M195.34,-243.13C187.17,-232.46 177.53,-219.87 169.01,-208.75"/>
<polygon fill="black" stroke="black" points="171.96,-206.84 163.1,-201.03 166.4,-211.1 171.96,-206.84"/>
</g>
<!-- n_2 -->
<g id="node9" class="node">
<title>n_2</title>
<polygon fill="none" stroke="black" points="248.5,-166.38 248.5,-191.62 313.5,-191.62 313.5,-166.38 248.5,-166.38"/>
<text text-anchor="start" x="255.5" y="-177.07" font-family="Times New Roman,serif" font-weight="bold" font-size="9.00">Overweight I</text>
<polygon fill="none" stroke="black" points="247.5,-165.38 247.5,-192.62 314.5,-192.62 314.5,-165.38 247.5,-165.38"/>
</g>
<!-- n_2_4_5_6&#45;&gt;n_2 -->
<g id="edge8" class="edge">
<title>n_2_4_5_6&#45;&gt;n_2</title>
<path fill="none" stroke="black" d="M232.66,-243.13C241.58,-231.48 252.27,-217.53 261.32,-205.71"/>
<polygon fill="black" stroke="black" points="263.94,-208.04 267.24,-197.97 258.38,-203.78 263.94,-208.04"/>
</g>
<!-- n_4_6 -->
<g id="node5" class="node">
<title>n_4_6</title>
<polygon fill="none" stroke="black" points="31,-84.38 31,-109.62 81,-109.62 81,-84.38 31,-84.38"/>
<text text-anchor="start" x="38" y="-95.08" font-family="Times New Roman,serif" font-weight="bold" font-size="9.00">Obesity I</text>
<polygon fill="none" stroke="black" points="81,-84.38 81,-109.62 137,-109.62 137,-84.38 81,-84.38"/>
<text text-anchor="start" x="88" y="-95.08" font-family="Times New Roman,serif" font-weight="bold" font-size="9.00">Obesity III</text>
<polygon fill="none" stroke="black" points="30,-83.38 30,-110.62 138,-110.62 138,-83.38 30,-83.38"/>
</g>
<!-- n_4_5_6&#45;&gt;n_4_6 -->
<g id="edge4" class="edge">
<title>n_4_5_6&#45;&gt;n_4_6</title>
<path fill="none" stroke="black" d="M131.43,-158.22C123.23,-147.81 113.08,-134.92 104.27,-123.74"/>
<polygon fill="black" stroke="black" points="107.14,-121.72 98.2,-116.03 101.64,-126.05 107.14,-121.72"/>
</g>
<!-- n_5 -->
<g id="node8" class="node">
<title>n_5</title>
<polygon fill="none" stroke="black" points="184.5,-84.38 184.5,-109.62 237.5,-109.62 237.5,-84.38 184.5,-84.38"/>
<text text-anchor="start" x="191.5" y="-95.08" font-family="Times New Roman,serif" font-weight="bold" font-size="9.00">Obesity II</text>
<polygon fill="none" stroke="black" points="183.5,-83.38 183.5,-110.62 238.5,-110.62 238.5,-83.38 183.5,-83.38"/>
</g>
<!-- n_4_5_6&#45;&gt;n_5 -->
<g id="edge7" class="edge">
<title>n_4_5_6&#45;&gt;n_5</title>
<path fill="none" stroke="black" d="M162.82,-158.22C171.15,-147.81 181.46,-134.92 190.41,-123.74"/>
<polygon fill="black" stroke="black" points="193.07,-126.02 196.58,-116.03 187.6,-121.65 193.07,-126.02"/>
</g>
<!-- n_4 -->
<g id="node6" class="node">
<title>n_4</title>
<polygon fill="none" stroke="black" points="9,-5.38 9,-30.62 59,-30.62 59,-5.38 9,-5.38"/>
<text text-anchor="start" x="16" y="-16.07" font-family="Times New Roman,serif" font-weight="bold" font-size="9.00">Obesity I</text>
<polygon fill="none" stroke="black" points="8,-4.38 8,-31.62 60,-31.62 60,-4.38 8,-4.38"/>
</g>
<!-- n_4_6&#45;&gt;n_4 -->
<g id="edge5" class="edge">
<title>n_4_6&#45;&gt;n_4</title>
<path fill="none" stroke="black" d="M73.15,-79.29C66.71,-69.37 58.4,-56.57 51.09,-45.32"/>
<polygon fill="black" stroke="black" points="54.21,-43.69 45.83,-37.21 48.34,-47.5 54.21,-43.69"/>
</g>
<!-- n_6 -->
<g id="node7" class="node">
<title>n_6</title>
<polygon fill="none" stroke="black" points="106,-5.38 106,-30.62 162,-30.62 162,-5.38 106,-5.38"/>
<text text-anchor="start" x="113" y="-16.07" font-family="Times New Roman,serif" font-weight="bold" font-size="9.00">Obesity III</text>
<polygon fill="none" stroke="black" points="105,-4.38 105,-31.62 163,-31.62 163,-4.38 105,-4.38"/>
</g>
<!-- n_4_6&#45;&gt;n_6 -->
<g id="edge6" class="edge">
<title>n_4_6&#45;&gt;n_6</title>
<path fill="none" stroke="black" d="M94.85,-79.29C101.29,-69.37 109.6,-56.57 116.91,-45.32"/>
<polygon fill="black" stroke="black" points="119.66,-47.5 122.17,-37.21 113.79,-43.69 119.66,-47.5"/>
</g>
<!-- n_1 -->
<g id="node12" class="node">
<title>n_1</title>
<polygon fill="none" stroke="black" points="490,-255.88 490,-281.12 534,-281.12 534,-255.88 490,-255.88"/>
<text text-anchor="start" x="497" y="-266.57" font-family="Times New Roman,serif" font-weight="bold" font-size="9.00">Normal</text>
<polygon fill="none" stroke="black" points="489,-254.88 489,-282.12 535,-282.12 535,-254.88 489,-254.88"/>
</g>
<!-- n_1_3&#45;&gt;n_1 -->
<g id="edge11" class="edge">
<title>n_1_3&#45;&gt;n_1</title>
<path fill="none" stroke="black" d="M526.04,-349.19C523.54,-335.03 519.92,-314.46 516.98,-297.76"/>
<polygon fill="black" stroke="black" points="520.43,-297.17 515.25,-287.93 513.53,-298.39 520.43,-297.17"/>
</g>
<!-- n_3 -->
<g id="node13" class="node">
<title>n_3</title>
<polygon fill="none" stroke="black" points="581,-255.88 581,-281.12 649,-281.12 649,-255.88 581,-255.88"/>
<text text-anchor="start" x="588" y="-266.57" font-family="Times New Roman,serif" font-weight="bold" font-size="9.00">Overweight II</text>
<polygon fill="none" stroke="black" points="580,-254.88 580,-282.12 650,-282.12 650,-254.88 580,-254.88"/>
</g>
<!-- n_1_3&#45;&gt;n_3 -->
<g id="edge12" class="edge">
<title>n_1_3&#45;&gt;n_3</title>
<path fill="none" stroke="black" d="M543.98,-349.19C557.34,-334.2 577.09,-312.04 592.38,-294.89"/>
<polygon fill="black" stroke="black" points="594.86,-297.36 598.9,-287.57 589.63,-292.71 594.86,-297.36"/>
</g>
</g>
</svg>
