<?xml version="1.0" encoding="UTF-8" standalone="no"?>
<!DOCTYPE svg PUBLIC "-//W3C//DTD SVG 1.1//EN"
 "http://www.w3.org/Graphics/SVG/1.1/DTD/svg11.dtd">
<!-- Generated by graphviz version 10.0.1 (20240210.2158)
 -->
<!-- Title: ND Pages: 1 -->
<svg width="628pt" height="405pt"
 viewBox="0.00 0.00 628.12 405.00" xmlns="http://www.w3.org/2000/svg" xmlns:xlink="http://www.w3.org/1999/xlink">
<g id="graph0" class="graph" transform="scale(1 1) rotate(0) translate(4 401)">
<title>ND</title>
<polygon fill="white" stroke="none" points="-4,4 -4,-401 624.12,-401 624.12,4 -4,4"/>
<!-- n_0_1_2_3_4_5_6 -->
<g id="node1" class="node">
<title>n_0_1_2_3_4_5_6</title>
<polygon fill="none" stroke="black" points="303,-342 303,-392 391.25,-392 391.25,-342 303,-342"/>
<text text-anchor="start" x="310" y="-377.45" font-family="Times New Roman,serif" font-weight="bold" font-size="9.00">Insufficient weight</text>
<text text-anchor="start" x="321.62" y="-368.45" font-family="Times New Roman,serif" font-weight="bold" font-size="9.00">Overweight I</text>
<text text-anchor="start" x="329.12" y="-359.45" font-family="Times New Roman,serif" font-weight="bold" font-size="9.00">Obesity I</text>
<text text-anchor="start" x="326.12" y="-350.45" font-family="Times New Roman,serif" font-weight="bold" font-size="9.00">Obesity III</text>
<polygon fill="none" stroke="black" points="391.25,-342 391.25,-392 459.25,-392 459.25,-342 391.25,-342"/>
<text text-anchor="start" x="410.25" y="-372.95" font-family="Times New Roman,serif" font-weight="bold" font-size="9.00">Normal</text>
<text text-anchor="start" x="398.25" y="-363.95" font-family="Times New Roman,serif" font-weight="bold" font-size="9.00">Overweight II</text>
<text text-anchor="start" x="405.75" y="-354.95" font-family="Times New Roman,serif" font-weight="bold" font-size="9.00">Obesity II</text>
<polygon fill="none" stroke="black" points="302,-341 302,-393 460.25,-393 460.25,-341 302,-341"/>
</g>
<!-- n_0_2_4_6 -->
<g id="node2" class="node">
<title>n_0_2_4_6</title>
<polygon fill="none" stroke="black" points="222,-248 222,-289 310.25,-289 310.25,-248 222,-248"/>
<text text-anchor="start" x="229" y="-274.45" font-family="Times New Roman,serif" font-weight="bold" font-size="9.00">Insufficient weight</text>
<text text-anchor="start" x="240.62" y="-265.45" font-family="Times New Roman,serif" font-weight="bold" font-size="9.00">Overweight I</text>
<text text-anchor="start" x="248.12" y="-256.45" font-family="Times New Roman,serif" font-weight="bold" font-size="9.00">Obesity I</text>
<polygon fill="none" stroke="black" points="310.25,-248 310.25,-289 366.25,-289 366.25,-248 310.25,-248"/>
<text text-anchor="start" x="317.25" y="-266.57" font-family="Times New Roman,serif" font-weight="bold" font-size="9.00">Obesity III</text>
<polygon fill="none" stroke="black" points="221,-247 221,-290 367.25,-290 367.25,-247 221,-247"/>
</g>
<!-- n_0_1_2_3_4_5_6&#45;&gt;n_0_2_4_6 -->
<g id="edge1" class="edge">
<title>n_0_1_2_3_4_5_6&#45;&gt;n_0_2_4_6</title>
<path fill="none" stroke="black" d="M355.02,-337.05C345.13,-326.08 333.8,-313.51 323.62,-302.22"/>
<polygon fill="black" stroke="black" points="326.41,-300.08 317.11,-295 321.21,-304.77 326.41,-300.08"/>
</g>
<!-- n_1_3_5 -->
<g id="node9" class="node">
<title>n_1_3_5</title>
<polygon fill="none" stroke="black" points="413.12,-252.5 413.12,-284.5 481.12,-284.5 481.12,-252.5 413.12,-252.5"/>
<text text-anchor="start" x="420.12" y="-269.95" font-family="Times New Roman,serif" font-weight="bold" font-size="9.00">Overweight II</text>
<text text-anchor="start" x="427.62" y="-260.95" font-family="Times New Roman,serif" font-weight="bold" font-size="9.00">Obesity II</text>
<polygon fill="none" stroke="black" points="481.12,-252.5 481.12,-284.5 525.12,-284.5 525.12,-252.5 481.12,-252.5"/>
<text text-anchor="start" x="488.12" y="-266.57" font-family="Times New Roman,serif" font-weight="bold" font-size="9.00">Normal</text>
<polygon fill="none" stroke="black" points="412.12,-251.5 412.12,-285.5 526.12,-285.5 526.12,-251.5 412.12,-251.5"/>
</g>
<!-- n_0_1_2_3_4_5_6&#45;&gt;n_1_3_5 -->
<g id="edge8" class="edge">
<title>n_0_1_2_3_4_5_6&#45;&gt;n_1_3_5</title>
<path fill="none" stroke="black" d="M407.53,-337.05C418.96,-324.51 432.3,-309.89 443.63,-297.46"/>
<polygon fill="black" stroke="black" points="445.93,-300.12 450.09,-290.38 440.76,-295.41 445.93,-300.12"/>
</g>
<!-- n_0_2_4 -->
<g id="node3" class="node">
<title>n_0_2_4</title>
<polygon fill="none" stroke="black" points="75.5,-163 75.5,-195 163.75,-195 163.75,-163 75.5,-163"/>
<text text-anchor="start" x="82.5" y="-180.45" font-family="Times New Roman,serif" font-weight="bold" font-size="9.00">Insufficient weight</text>
<text text-anchor="start" x="101.62" y="-171.45" font-family="Times New Roman,serif" font-weight="bold" font-size="9.00">Obesity I</text>
<polygon fill="none" stroke="black" points="163.75,-163 163.75,-195 228.75,-195 228.75,-163 163.75,-163"/>
<text text-anchor="start" x="170.75" y="-177.07" font-family="Times New Roman,serif" font-weight="bold" font-size="9.00">Overweight I</text>
<polygon fill="none" stroke="black" points="74.5,-162 74.5,-196 229.75,-196 229.75,-162 74.5,-162"/>
</g>
<!-- n_0_2_4_6&#45;&gt;n_0_2_4 -->
<g id="edge2" class="edge">
<title>n_0_2_4_6&#45;&gt;n_0_2_4</title>
<path fill="none" stroke="black" d="M254.57,-243.13C235.7,-231.5 213.12,-217.59 193.97,-205.78"/>
<polygon fill="black" stroke="black" points="195.94,-202.89 185.59,-200.62 192.27,-208.85 195.94,-202.89"/>
</g>
<!-- n_6 -->
<g id="node8" class="node">
<title>n_6</title>
<polygon fill="none" stroke="black" points="276.12,-166.38 276.12,-191.62 332.12,-191.62 332.12,-166.38 276.12,-166.38"/>
<text text-anchor="start" x="283.12" y="-177.07" font-family="Times New Roman,serif" font-weight="bold" font-size="9.00">Obesity III</text>
<polygon fill="none" stroke="black" points="275.12,-165.38 275.12,-192.62 333.12,-192.62 333.12,-165.38 275.12,-165.38"/>
</g>
<!-- n_0_2_4_6&#45;&gt;n_6 -->
<g id="edge7" class="edge">
<title>n_0_2_4_6&#45;&gt;n_6</title>
<path fill="none" stroke="black" d="M296.91,-243.13C298.15,-232.28 299.62,-219.45 300.9,-208.19"/>
<polygon fill="black" stroke="black" points="304.38,-208.61 302.04,-198.27 297.42,-207.81 304.38,-208.61"/>
</g>
<!-- n_0_4 -->
<g id="node4" class="node">
<title>n_0_4</title>
<polygon fill="none" stroke="black" points="42,-84.38 42,-109.62 130.25,-109.62 130.25,-84.38 42,-84.38"/>
<text text-anchor="start" x="49" y="-95.08" font-family="Times New Roman,serif" font-weight="bold" font-size="9.00">Insufficient weight</text>
<polygon fill="none" stroke="black" points="130.25,-84.38 130.25,-109.62 180.25,-109.62 180.25,-84.38 130.25,-84.38"/>
<text text-anchor="start" x="137.25" y="-95.08" font-family="Times New Roman,serif" font-weight="bold" font-size="9.00">Obesity I</text>
<polygon fill="none" stroke="black" points="41,-83.38 41,-110.62 181.25,-110.62 181.25,-83.38 41,-83.38"/>
</g>
<!-- n_0_2_4&#45;&gt;n_0_4 -->
<g id="edge3" class="edge">
<title>n_0_2_4&#45;&gt;n_0_4</title>
<path fill="none" stroke="black" d="M141.99,-158.22C136.81,-148.13 130.44,-135.69 124.84,-124.75"/>
<polygon fill="black" stroke="black" points="128.12,-123.49 120.45,-116.19 121.89,-126.69 128.12,-123.49"/>
</g>
<!-- n_2 -->
<g id="node7" class="node">
<title>n_2</title>
<polygon fill="none" stroke="black" points="227.62,-84.38 227.62,-109.62 292.62,-109.62 292.62,-84.38 227.62,-84.38"/>
<text text-anchor="start" x="234.62" y="-95.08" font-family="Times New Roman,serif" font-weight="bold" font-size="9.00">Overweight I</text>
<polygon fill="none" stroke="black" points="226.62,-83.38 226.62,-110.62 293.62,-110.62 293.62,-83.38 226.62,-83.38"/>
</g>
<!-- n_0_2_4&#45;&gt;n_2 -->
<g id="edge6" class="edge">
<title>n_0_2_4&#45;&gt;n_2</title>
<path fill="none" stroke="black" d="M179.1,-158.02C194.14,-146.88 212.95,-132.94 228.66,-121.31"/>
<polygon fill="black" stroke="black" points="230.33,-124.42 236.28,-115.66 226.17,-118.8 230.33,-124.42"/>
</g>
<!-- n_0 -->
<g id="node5" class="node">
<title>n_0</title>
<polygon fill="none" stroke="black" points="9,-5.38 9,-30.62 97.25,-30.62 97.25,-5.38 9,-5.38"/>
<text text-anchor="start" x="16" y="-16.07" font-family="Times New Roman,serif" font-weight="bold" font-size="9.00">Insufficient weight</text>
<polygon fill="none" stroke="black" points="8,-4.38 8,-31.62 98.25,-31.62 98.25,-4.38 8,-4.38"/>
</g>
<!-- n_0_4&#45;&gt;n_0 -->
<g id="edge4" class="edge">
<title>n_0_4&#45;&gt;n_0</title>
<path fill="none" stroke="black" d="M98.54,-79.29C90.99,-69.27 81.23,-56.31 72.69,-44.98"/>
<polygon fill="black" stroke="black" points="75.61,-43.03 66.8,-37.15 70.02,-47.24 75.61,-43.03"/>
</g>
<!-- n_4 -->
<g id="node6" class="node">
<title>n_4</title>
<polygon fill="none" stroke="black" points="144.12,-5.38 144.12,-30.62 194.12,-30.62 194.12,-5.38 144.12,-5.38"/>
<text text-anchor="start" x="151.12" y="-16.07" font-family="Times New Roman,serif" font-weight="bold" font-size="9.00">Obesity I</text>
<polygon fill="none" stroke="black" points="143.12,-4.38 143.12,-31.62 195.12,-31.62 195.12,-4.38 143.12,-4.38"/>
</g>
<!-- n_0_4&#45;&gt;n_4 -->
<g id="edge5" class="edge">
<title>n_0_4&#45;&gt;n_4</title>
<path fill="none" stroke="black" d="M123.71,-79.29C131.26,-69.27 141.02,-56.31 149.56,-44.98"/>
<polygon fill="black" stroke="black" points="152.23,-47.24 155.45,-37.15 146.64,-43.03 152.23,-47.24"/>
</g>
<!-- n_3_5 -->
<g id="node10" class="node">
<title>n_3_5</title>
<polygon fill="none" stroke="black" points="398.62,-166.38 398.62,-191.62 466.62,-191.62 466.62,-166.38 398.62,-166.38"/>
<text text-anchor="start" x="405.62" y="-177.07" font-family="Times New Roman,serif" font-weight="bold" font-size="9.00">Overweight II</text>
<polygon fill="none" stroke="black" points="466.62,-166.38 466.62,-191.62 519.62,-191.62 519.62,-166.38 466.62,-166.38"/>
<text text-anchor="start" x="473.62" y="-177.07" font-family="Times New Roman,serif" font-weight="bold" font-size="9.00">Obesity II</text>
<polygon fill="none" stroke="black" points="397.62,-165.38 397.62,-192.62 520.62,-192.62 520.62,-165.38 397.62,-165.38"/>
</g>
<!-- n_1_3_5&#45;&gt;n_3_5 -->
<g id="edge9" class="edge">
<title>n_1_3_5&#45;&gt;n_3_5</title>
<path fill="none" stroke="black" d="M466.86,-247.64C465.51,-235.91 463.8,-220.86 462.32,-207.94"/>
<polygon fill="black" stroke="black" points="465.83,-207.87 461.22,-198.34 458.88,-208.67 465.83,-207.87"/>
</g>
<!-- n_1 -->
<g id="node13" class="node">
<title>n_1</title>
<polygon fill="none" stroke="black" points="567.12,-166.38 567.12,-191.62 611.12,-191.62 611.12,-166.38 567.12,-166.38"/>
<text text-anchor="start" x="574.12" y="-177.07" font-family="Times New Roman,serif" font-weight="bold" font-size="9.00">Normal</text>
<polygon fill="none" stroke="black" points="566.12,-165.38 566.12,-192.62 612.12,-192.62 612.12,-165.38 566.12,-165.38"/>
</g>
<!-- n_1_3_5&#45;&gt;n_1 -->
<g id="edge12" class="edge">
<title>n_1_3_5&#45;&gt;n_1</title>
<path fill="none" stroke="black" d="M496.35,-247.64C514.34,-234.53 537.99,-217.29 556.91,-203.49"/>
<polygon fill="black" stroke="black" points="558.8,-206.44 564.82,-197.72 554.68,-200.79 558.8,-206.44"/>
</g>
<!-- n_3 -->
<g id="node11" class="node">
<title>n_3</title>
<polygon fill="none" stroke="black" points="382.12,-84.38 382.12,-109.62 450.12,-109.62 450.12,-84.38 382.12,-84.38"/>
<text text-anchor="start" x="389.12" y="-95.08" font-family="Times New Roman,serif" font-weight="bold" font-size="9.00">Overweight II</text>
<polygon fill="none" stroke="black" points="381.12,-83.38 381.12,-110.62 451.12,-110.62 451.12,-83.38 381.12,-83.38"/>
</g>
<!-- n_3_5&#45;&gt;n_3 -->
<g id="edge10" class="edge">
<title>n_3_5&#45;&gt;n_3</title>
<path fill="none" stroke="black" d="M450.01,-161.03C444.36,-150.53 436.99,-136.82 430.57,-124.87"/>
<polygon fill="black" stroke="black" points="433.76,-123.43 425.95,-116.27 427.6,-126.74 433.76,-123.43"/>
</g>
<!-- n_5 -->
<g id="node12" class="node">
<title>n_5</title>
<polygon fill="none" stroke="black" points="497.62,-84.38 497.62,-109.62 550.62,-109.62 550.62,-84.38 497.62,-84.38"/>
<text text-anchor="start" x="504.62" y="-95.08" font-family="Times New Roman,serif" font-weight="bold" font-size="9.00">Obesity II</text>
<polygon fill="none" stroke="black" points="496.62,-83.38 496.62,-110.62 551.62,-110.62 551.62,-83.38 496.62,-83.38"/>
</g>
<!-- n_3_5&#45;&gt;n_5 -->
<g id="edge11" class="edge">
<title>n_3_5&#45;&gt;n_5</title>
<path fill="none" stroke="black" d="M472.91,-161.03C481.7,-150.22 493.26,-135.99 503.17,-123.79"/>
<polygon fill="black" stroke="black" points="505.82,-126.08 509.41,-116.12 500.38,-121.67 505.82,-126.08"/>
</g>
</g>
</svg>
