<?xml version="1.0" encoding="UTF-8" standalone="no"?>
<!DOCTYPE svg PUBLIC "-//W3C//DTD SVG 1.1//EN"
 "http://www.w3.org/Graphics/SVG/1.1/DTD/svg11.dtd">
<!-- Generated by graphviz version 10.0.1 (20240210.2158)
 -->
<!-- Title: ND Pages: 1 -->
<svg width="668pt" height="517pt"
 viewBox="0.00 0.00 667.50 517.00" xmlns="http://www.w3.org/2000/svg" xmlns:xlink="http://www.w3.org/1999/xlink">
<g id="graph0" class="graph" transform="scale(1 1) rotate(0) translate(4 513)">
<title>ND</title>
<polygon fill="white" stroke="none" points="-4,4 -4,-513 663.5,-513 663.5,4 -4,4"/>
<!-- n_0_1_2_3_4_5_6 -->
<g id="node1" class="node">
<title>n_0_1_2_3_4_5_6</title>
<polygon fill="none" stroke="black" points="391.38,-445 391.38,-504 479.62,-504 479.62,-445 391.38,-445"/>
<text text-anchor="start" x="398.38" y="-489.45" font-family="Times New Roman,serif" font-weight="bold" font-size="9.00">Insufficient weight</text>
<text text-anchor="start" x="410" y="-480.45" font-family="Times New Roman,serif" font-weight="bold" font-size="9.00">Overweight I</text>
<text text-anchor="start" x="408.5" y="-471.45" font-family="Times New Roman,serif" font-weight="bold" font-size="9.00">Overweight II</text>
<text text-anchor="start" x="416" y="-462.45" font-family="Times New Roman,serif" font-weight="bold" font-size="9.00">Obesity II</text>
<text text-anchor="start" x="414.5" y="-453.45" font-family="Times New Roman,serif" font-weight="bold" font-size="9.00">Obesity III</text>
<polygon fill="none" stroke="black" points="479.62,-445 479.62,-504 529.62,-504 529.62,-445 479.62,-445"/>
<text text-anchor="start" x="489.62" y="-475.95" font-family="Times New Roman,serif" font-weight="bold" font-size="9.00">Normal</text>
<text text-anchor="start" x="486.62" y="-466.95" font-family="Times New Roman,serif" font-weight="bold" font-size="9.00">Obesity I</text>
<polygon fill="none" stroke="black" points="390.38,-444 390.38,-505 530.62,-505 530.62,-444 390.38,-444"/>
</g>
<!-- n_0_2_3_5_6 -->
<g id="node2" class="node">
<title>n_0_2_3_5_6</title>
<polygon fill="none" stroke="black" points="296.38,-342 296.38,-392 364.38,-392 364.38,-342 296.38,-342"/>
<text text-anchor="start" x="304.88" y="-377.45" font-family="Times New Roman,serif" font-weight="bold" font-size="9.00">Overweight I</text>
<text text-anchor="start" x="303.38" y="-368.45" font-family="Times New Roman,serif" font-weight="bold" font-size="9.00">Overweight II</text>
<text text-anchor="start" x="310.88" y="-359.45" font-family="Times New Roman,serif" font-weight="bold" font-size="9.00">Obesity II</text>
<text text-anchor="start" x="309.38" y="-350.45" font-family="Times New Roman,serif" font-weight="bold" font-size="9.00">Obesity III</text>
<polygon fill="none" stroke="black" points="364.38,-342 364.38,-392 452.62,-392 452.62,-342 364.38,-342"/>
<text text-anchor="start" x="371.38" y="-365.07" font-family="Times New Roman,serif" font-weight="bold" font-size="9.00">Insufficient weight</text>
<polygon fill="none" stroke="black" points="295.38,-341 295.38,-393 453.62,-393 453.62,-341 295.38,-341"/>
</g>
<!-- n_0_1_2_3_4_5_6&#45;&gt;n_0_2_3_5_6 -->
<g id="edge1" class="edge">
<title>n_0_1_2_3_4_5_6&#45;&gt;n_0_2_3_5_6</title>
<path fill="none" stroke="black" d="M433.29,-440.12C424.36,-429.16 414.37,-416.91 405.2,-405.66"/>
<polygon fill="black" stroke="black" points="408.04,-403.61 399.01,-398.07 402.62,-408.03 408.04,-403.61"/>
</g>
<!-- n_1_4 -->
<g id="node11" class="node">
<title>n_1_4</title>
<polygon fill="none" stroke="black" points="499.5,-354.38 499.5,-379.62 543.5,-379.62 543.5,-354.38 499.5,-354.38"/>
<text text-anchor="start" x="506.5" y="-365.07" font-family="Times New Roman,serif" font-weight="bold" font-size="9.00">Normal</text>
<polygon fill="none" stroke="black" points="543.5,-354.38 543.5,-379.62 593.5,-379.62 593.5,-354.38 543.5,-354.38"/>
<text text-anchor="start" x="550.5" y="-365.07" font-family="Times New Roman,serif" font-weight="bold" font-size="9.00">Obesity I</text>
<polygon fill="none" stroke="black" points="498.5,-353.38 498.5,-380.62 594.5,-380.62 594.5,-353.38 498.5,-353.38"/>
</g>
<!-- n_0_1_2_3_4_5_6&#45;&gt;n_1_4 -->
<g id="edge10" class="edge">
<title>n_0_1_2_3_4_5_6&#45;&gt;n_1_4</title>
<path fill="none" stroke="black" d="M487.71,-440.12C499.98,-425.06 514.25,-407.57 525.65,-393.58"/>
<polygon fill="black" stroke="black" points="528.12,-396.09 531.73,-386.12 522.7,-391.66 528.12,-396.09"/>
</g>
<!-- n_2_3_5_6 -->
<g id="node3" class="node">
<title>n_2_3_5_6</title>
<polygon fill="none" stroke="black" points="177,-248 177,-289 245,-289 245,-248 177,-248"/>
<text text-anchor="start" x="185.5" y="-274.45" font-family="Times New Roman,serif" font-weight="bold" font-size="9.00">Overweight I</text>
<text text-anchor="start" x="184" y="-265.45" font-family="Times New Roman,serif" font-weight="bold" font-size="9.00">Overweight II</text>
<text text-anchor="start" x="190" y="-256.45" font-family="Times New Roman,serif" font-weight="bold" font-size="9.00">Obesity III</text>
<polygon fill="none" stroke="black" points="245,-248 245,-289 298,-289 298,-248 245,-248"/>
<text text-anchor="start" x="252" y="-266.57" font-family="Times New Roman,serif" font-weight="bold" font-size="9.00">Obesity II</text>
<polygon fill="none" stroke="black" points="176,-247 176,-290 299,-290 299,-247 176,-247"/>
</g>
<!-- n_0_2_3_5_6&#45;&gt;n_2_3_5_6 -->
<g id="edge2" class="edge">
<title>n_0_2_3_5_6&#45;&gt;n_2_3_5_6</title>
<path fill="none" stroke="black" d="M333.4,-337.05C316.9,-325.43 297.87,-312.03 281.14,-300.24"/>
<polygon fill="black" stroke="black" points="283.53,-297.64 273.34,-294.75 279.5,-303.37 283.53,-297.64"/>
</g>
<!-- n_0 -->
<g id="node10" class="node">
<title>n_0</title>
<polygon fill="none" stroke="black" points="345.38,-255.88 345.38,-281.12 433.62,-281.12 433.62,-255.88 345.38,-255.88"/>
<text text-anchor="start" x="352.38" y="-266.57" font-family="Times New Roman,serif" font-weight="bold" font-size="9.00">Insufficient weight</text>
<polygon fill="none" stroke="black" points="344.38,-254.88 344.38,-282.12 434.62,-282.12 434.62,-254.88 344.38,-254.88"/>
</g>
<!-- n_0_2_3_5_6&#45;&gt;n_0 -->
<g id="edge9" class="edge">
<title>n_0_2_3_5_6&#45;&gt;n_0</title>
<path fill="none" stroke="black" d="M379,-337.05C380.95,-324.51 383.22,-309.89 385.15,-297.47"/>
<polygon fill="black" stroke="black" points="388.57,-298.28 386.65,-287.86 381.65,-297.21 388.57,-298.28"/>
</g>
<!-- n_2_3_6 -->
<g id="node4" class="node">
<title>n_2_3_6</title>
<polygon fill="none" stroke="black" points="107.5,-163 107.5,-195 175.5,-195 175.5,-163 107.5,-163"/>
<text text-anchor="start" x="116" y="-180.45" font-family="Times New Roman,serif" font-weight="bold" font-size="9.00">Overweight I</text>
<text text-anchor="start" x="114.5" y="-171.45" font-family="Times New Roman,serif" font-weight="bold" font-size="9.00">Overweight II</text>
<polygon fill="none" stroke="black" points="175.5,-163 175.5,-195 231.5,-195 231.5,-163 175.5,-163"/>
<text text-anchor="start" x="182.5" y="-177.07" font-family="Times New Roman,serif" font-weight="bold" font-size="9.00">Obesity III</text>
<polygon fill="none" stroke="black" points="106.5,-162 106.5,-196 232.5,-196 232.5,-162 106.5,-162"/>
</g>
<!-- n_2_3_5_6&#45;&gt;n_2_3_6 -->
<g id="edge3" class="edge">
<title>n_2_3_5_6&#45;&gt;n_2_3_6</title>
<path fill="none" stroke="black" d="M218.56,-243.13C210.27,-232.46 200.48,-219.87 191.84,-208.75"/>
<polygon fill="black" stroke="black" points="194.74,-206.77 185.84,-201.02 189.21,-211.06 194.74,-206.77"/>
</g>
<!-- n_5 -->
<g id="node9" class="node">
<title>n_5</title>
<polygon fill="none" stroke="black" points="279,-166.38 279,-191.62 332,-191.62 332,-166.38 279,-166.38"/>
<text text-anchor="start" x="286" y="-177.07" font-family="Times New Roman,serif" font-weight="bold" font-size="9.00">Obesity II</text>
<polygon fill="none" stroke="black" points="278,-165.38 278,-192.62 333,-192.62 333,-165.38 278,-165.38"/>
</g>
<!-- n_2_3_5_6&#45;&gt;n_5 -->
<g id="edge8" class="edge">
<title>n_2_3_5_6&#45;&gt;n_5</title>
<path fill="none" stroke="black" d="M256.44,-243.13C265.5,-231.48 276.34,-217.53 285.52,-205.71"/>
<polygon fill="black" stroke="black" points="288.17,-208.01 291.54,-197.97 282.64,-203.71 288.17,-208.01"/>
</g>
<!-- n_2_3 -->
<g id="node5" class="node">
<title>n_2_3</title>
<polygon fill="none" stroke="black" points="32,-84.38 32,-109.62 97,-109.62 97,-84.38 32,-84.38"/>
<text text-anchor="start" x="39" y="-95.08" font-family="Times New Roman,serif" font-weight="bold" font-size="9.00">Overweight I</text>
<polygon fill="none" stroke="black" points="97,-84.38 97,-109.62 165,-109.62 165,-84.38 97,-84.38"/>
<text text-anchor="start" x="104" y="-95.08" font-family="Times New Roman,serif" font-weight="bold" font-size="9.00">Overweight II</text>
<polygon fill="none" stroke="black" points="31,-83.38 31,-110.62 166,-110.62 166,-83.38 31,-83.38"/>
</g>
<!-- n_2_3_6&#45;&gt;n_2_3 -->
<g id="edge4" class="edge">
<title>n_2_3_6&#45;&gt;n_2_3</title>
<path fill="none" stroke="black" d="M151.95,-158.22C142.62,-147.71 131.04,-134.66 121.05,-123.41"/>
<polygon fill="black" stroke="black" points="123.71,-121.13 114.45,-115.98 118.47,-125.78 123.71,-121.13"/>
</g>
<!-- n_6 -->
<g id="node8" class="node">
<title>n_6</title>
<polygon fill="none" stroke="black" points="212.5,-84.38 212.5,-109.62 268.5,-109.62 268.5,-84.38 212.5,-84.38"/>
<text text-anchor="start" x="219.5" y="-95.08" font-family="Times New Roman,serif" font-weight="bold" font-size="9.00">Obesity III</text>
<polygon fill="none" stroke="black" points="211.5,-83.38 211.5,-110.62 269.5,-110.62 269.5,-83.38 211.5,-83.38"/>
</g>
<!-- n_2_3_6&#45;&gt;n_6 -->
<g id="edge7" class="edge">
<title>n_2_3_6&#45;&gt;n_6</title>
<path fill="none" stroke="black" d="M187.05,-158.22C196.38,-147.71 207.96,-134.66 217.95,-123.41"/>
<polygon fill="black" stroke="black" points="220.53,-125.78 224.55,-115.98 215.29,-121.13 220.53,-125.78"/>
</g>
<!-- n_2 -->
<g id="node6" class="node">
<title>n_2</title>
<polygon fill="none" stroke="black" points="9,-5.38 9,-30.62 74,-30.62 74,-5.38 9,-5.38"/>
<text text-anchor="start" x="16" y="-16.07" font-family="Times New Roman,serif" font-weight="bold" font-size="9.00">Overweight I</text>
<polygon fill="none" stroke="black" points="8,-4.38 8,-31.62 75,-31.62 75,-4.38 8,-4.38"/>
</g>
<!-- n_2_3&#45;&gt;n_2 -->
<g id="edge5" class="edge">
<title>n_2_3&#45;&gt;n_2</title>
<path fill="none" stroke="black" d="M86.13,-79.29C78.71,-69.27 69.12,-56.31 60.73,-44.98"/>
<polygon fill="black" stroke="black" points="63.7,-43.11 54.94,-37.16 58.08,-47.28 63.7,-43.11"/>
</g>
<!-- n_3 -->
<g id="node7" class="node">
<title>n_3</title>
<polygon fill="none" stroke="black" points="121.5,-5.38 121.5,-30.62 189.5,-30.62 189.5,-5.38 121.5,-5.38"/>
<text text-anchor="start" x="128.5" y="-16.07" font-family="Times New Roman,serif" font-weight="bold" font-size="9.00">Overweight II</text>
<polygon fill="none" stroke="black" points="120.5,-4.38 120.5,-31.62 190.5,-31.62 190.5,-4.38 120.5,-4.38"/>
</g>
<!-- n_2_3&#45;&gt;n_3 -->
<g id="edge6" class="edge">
<title>n_2_3&#45;&gt;n_3</title>
<path fill="none" stroke="black" d="M110.87,-79.29C118.29,-69.27 127.88,-56.31 136.27,-44.98"/>
<polygon fill="black" stroke="black" points="138.92,-47.28 142.06,-37.16 133.3,-43.11 138.92,-47.28"/>
</g>
<!-- n_1 -->
<g id="node12" class="node">
<title>n_1</title>
<polygon fill="none" stroke="black" points="509.5,-255.88 509.5,-281.12 553.5,-281.12 553.5,-255.88 509.5,-255.88"/>
<text text-anchor="start" x="516.5" y="-266.57" font-family="Times New Roman,serif" font-weight="bold" font-size="9.00">Normal</text>
<polygon fill="none" stroke="black" points="508.5,-254.88 508.5,-282.12 554.5,-282.12 554.5,-254.88 508.5,-254.88"/>
</g>
<!-- n_1_4&#45;&gt;n_1 -->
<g id="edge11" class="edge">
<title>n_1_4&#45;&gt;n_1</title>
<path fill="none" stroke="black" d="M543.89,-349.19C541.69,-335.03 538.49,-314.46 535.89,-297.76"/>
<polygon fill="black" stroke="black" points="539.36,-297.28 534.37,-287.94 532.44,-298.35 539.36,-297.28"/>
</g>
<!-- n_4 -->
<g id="node13" class="node">
<title>n_4</title>
<polygon fill="none" stroke="black" points="600.5,-255.88 600.5,-281.12 650.5,-281.12 650.5,-255.88 600.5,-255.88"/>
<text text-anchor="start" x="607.5" y="-266.57" font-family="Times New Roman,serif" font-weight="bold" font-size="9.00">Obesity I</text>
<polygon fill="none" stroke="black" points="599.5,-254.88 599.5,-282.12 651.5,-282.12 651.5,-254.88 599.5,-254.88"/>
</g>
<!-- n_1_4&#45;&gt;n_4 -->
<g id="edge12" class="edge">
<title>n_1_4&#45;&gt;n_4</title>
<path fill="none" stroke="black" d="M560.26,-349.19C572.53,-334.2 590.68,-312.04 604.72,-294.89"/>
<polygon fill="black" stroke="black" points="607.05,-297.57 610.67,-287.61 601.63,-293.13 607.05,-297.57"/>
</g>
</g>
</svg>
