<?xml version="1.0" encoding="UTF-8" standalone="no"?>
<!DOCTYPE svg PUBLIC "-//W3C//DTD SVG 1.1//EN"
 "http://www.w3.org/Graphics/SVG/1.1/DTD/svg11.dtd">
<!-- Generated by graphviz version 10.0.1 (20240210.2158)
 -->
<!-- Title: ND Pages: 1 -->
<svg width="607pt" height="638pt"
 viewBox="0.00 0.00 607.12 638.00" xmlns="http://www.w3.org/2000/svg" xmlns:xlink="http://www.w3.org/1999/xlink">
<g id="graph0" class="graph" transform="scale(1 1) rotate(0) translate(4 634)">
<title>ND</title>
<polygon fill="white" stroke="none" points="-4,4 -4,-634 603.12,-634 603.12,4 -4,4"/>
<!-- n_0_1_2_3_4_5_6 -->
<g id="node1" class="node">
<title>n_0_1_2_3_4_5_6</title>
<polygon fill="none" stroke="black" points="399,-557 399,-625 487.25,-625 487.25,-557 399,-557"/>
<text text-anchor="start" x="406" y="-610.45" font-family="Times New Roman,serif" font-weight="bold" font-size="9.00">Insufficient weight</text>
<text text-anchor="start" x="428.12" y="-601.45" font-family="Times New Roman,serif" font-weight="bold" font-size="9.00">Normal</text>
<text text-anchor="start" x="417.62" y="-592.45" font-family="Times New Roman,serif" font-weight="bold" font-size="9.00">Overweight I</text>
<text text-anchor="start" x="425.12" y="-583.45" font-family="Times New Roman,serif" font-weight="bold" font-size="9.00">Obesity I</text>
<text text-anchor="start" x="423.62" y="-574.45" font-family="Times New Roman,serif" font-weight="bold" font-size="9.00">Obesity II</text>
<text text-anchor="start" x="422.12" y="-565.45" font-family="Times New Roman,serif" font-weight="bold" font-size="9.00">Obesity III</text>
<polygon fill="none" stroke="black" points="487.25,-557 487.25,-625 555.25,-625 555.25,-557 487.25,-557"/>
<text text-anchor="start" x="494.25" y="-589.08" font-family="Times New Roman,serif" font-weight="bold" font-size="9.00">Overweight II</text>
<polygon fill="none" stroke="black" points="398,-556 398,-626 556.25,-626 556.25,-556 398,-556"/>
</g>
<!-- n_0_1_2_4_5_6 -->
<g id="node2" class="node">
<title>n_0_1_2_4_5_6</title>
<polygon fill="none" stroke="black" points="321.5,-445 321.5,-504 409.75,-504 409.75,-445 321.5,-445"/>
<text text-anchor="start" x="328.5" y="-489.45" font-family="Times New Roman,serif" font-weight="bold" font-size="9.00">Insufficient weight</text>
<text text-anchor="start" x="350.62" y="-480.45" font-family="Times New Roman,serif" font-weight="bold" font-size="9.00">Normal</text>
<text text-anchor="start" x="347.62" y="-471.45" font-family="Times New Roman,serif" font-weight="bold" font-size="9.00">Obesity I</text>
<text text-anchor="start" x="346.12" y="-462.45" font-family="Times New Roman,serif" font-weight="bold" font-size="9.00">Obesity II</text>
<text text-anchor="start" x="344.62" y="-453.45" font-family="Times New Roman,serif" font-weight="bold" font-size="9.00">Obesity III</text>
<polygon fill="none" stroke="black" points="409.75,-445 409.75,-504 474.75,-504 474.75,-445 409.75,-445"/>
<text text-anchor="start" x="416.75" y="-472.57" font-family="Times New Roman,serif" font-weight="bold" font-size="9.00">Overweight I</text>
<polygon fill="none" stroke="black" points="320.5,-444 320.5,-505 475.75,-505 475.75,-444 320.5,-444"/>
</g>
<!-- n_0_1_2_3_4_5_6&#45;&gt;n_0_1_2_4_5_6 -->
<g id="edge1" class="edge">
<title>n_0_1_2_3_4_5_6&#45;&gt;n_0_1_2_4_5_6</title>
<path fill="none" stroke="black" d="M451.04,-552.19C443.45,-541.2 435.12,-529.12 427.36,-517.87"/>
<polygon fill="black" stroke="black" points="430.42,-516.14 421.86,-509.9 424.66,-520.12 430.42,-516.14"/>
</g>
<!-- n_3 -->
<g id="node13" class="node">
<title>n_3</title>
<polygon fill="none" stroke="black" points="522.12,-461.88 522.12,-487.12 590.12,-487.12 590.12,-461.88 522.12,-461.88"/>
<text text-anchor="start" x="529.12" y="-472.57" font-family="Times New Roman,serif" font-weight="bold" font-size="9.00">Overweight II</text>
<polygon fill="none" stroke="black" points="521.12,-460.88 521.12,-488.12 591.12,-488.12 591.12,-460.88 521.12,-460.88"/>
</g>
<!-- n_0_1_2_3_4_5_6&#45;&gt;n_3 -->
<g id="edge12" class="edge">
<title>n_0_1_2_3_4_5_6&#45;&gt;n_3</title>
<path fill="none" stroke="black" d="M503.21,-552.19C514.64,-535.63 527.77,-516.6 538.09,-501.64"/>
<polygon fill="black" stroke="black" points="540.76,-503.93 543.56,-493.71 535,-499.95 540.76,-503.93"/>
</g>
<!-- n_0_1_4_5_6 -->
<g id="node3" class="node">
<title>n_0_1_4_5_6</title>
<polygon fill="none" stroke="black" points="259,-342 259,-392 347.25,-392 347.25,-342 259,-342"/>
<text text-anchor="start" x="266" y="-377.45" font-family="Times New Roman,serif" font-weight="bold" font-size="9.00">Insufficient weight</text>
<text text-anchor="start" x="285.12" y="-368.45" font-family="Times New Roman,serif" font-weight="bold" font-size="9.00">Obesity I</text>
<text text-anchor="start" x="283.62" y="-359.45" font-family="Times New Roman,serif" font-weight="bold" font-size="9.00">Obesity II</text>
<text text-anchor="start" x="282.12" y="-350.45" font-family="Times New Roman,serif" font-weight="bold" font-size="9.00">Obesity III</text>
<polygon fill="none" stroke="black" points="347.25,-342 347.25,-392 391.25,-392 391.25,-342 347.25,-342"/>
<text text-anchor="start" x="354.25" y="-365.07" font-family="Times New Roman,serif" font-weight="bold" font-size="9.00">Normal</text>
<polygon fill="none" stroke="black" points="258,-341 258,-393 392.25,-393 392.25,-341 258,-341"/>
</g>
<!-- n_0_1_2_4_5_6&#45;&gt;n_0_1_4_5_6 -->
<g id="edge2" class="edge">
<title>n_0_1_2_4_5_6&#45;&gt;n_0_1_4_5_6</title>
<path fill="none" stroke="black" d="M375.03,-440.12C367.6,-429.38 359.31,-417.4 351.65,-406.33"/>
<polygon fill="black" stroke="black" points="354.55,-404.37 345.98,-398.14 348.79,-408.36 354.55,-404.37"/>
</g>
<!-- n_2 -->
<g id="node12" class="node">
<title>n_2</title>
<polygon fill="none" stroke="black" points="438.62,-354.38 438.62,-379.62 503.62,-379.62 503.62,-354.38 438.62,-354.38"/>
<text text-anchor="start" x="445.62" y="-365.07" font-family="Times New Roman,serif" font-weight="bold" font-size="9.00">Overweight I</text>
<polygon fill="none" stroke="black" points="437.62,-353.38 437.62,-380.62 504.62,-380.62 504.62,-353.38 437.62,-353.38"/>
</g>
<!-- n_0_1_2_4_5_6&#45;&gt;n_2 -->
<g id="edge11" class="edge">
<title>n_0_1_2_4_5_6&#45;&gt;n_2</title>
<path fill="none" stroke="black" d="M421.22,-440.12C431.44,-425.35 443.29,-408.23 452.87,-394.38"/>
<polygon fill="black" stroke="black" points="455.72,-396.41 458.54,-386.2 449.97,-392.43 455.72,-396.41"/>
</g>
<!-- n_0_4_5_6 -->
<g id="node4" class="node">
<title>n_0_4_5_6</title>
<polygon fill="none" stroke="black" points="187,-248 187,-289 275.25,-289 275.25,-248 187,-248"/>
<text text-anchor="start" x="194" y="-274.45" font-family="Times New Roman,serif" font-weight="bold" font-size="9.00">Insufficient weight</text>
<text text-anchor="start" x="211.62" y="-265.45" font-family="Times New Roman,serif" font-weight="bold" font-size="9.00">Obesity II</text>
<text text-anchor="start" x="210.12" y="-256.45" font-family="Times New Roman,serif" font-weight="bold" font-size="9.00">Obesity III</text>
<polygon fill="none" stroke="black" points="275.25,-248 275.25,-289 325.25,-289 325.25,-248 275.25,-248"/>
<text text-anchor="start" x="282.25" y="-266.57" font-family="Times New Roman,serif" font-weight="bold" font-size="9.00">Obesity I</text>
<polygon fill="none" stroke="black" points="186,-247 186,-290 326.25,-290 326.25,-247 186,-247"/>
</g>
<!-- n_0_1_4_5_6&#45;&gt;n_0_4_5_6 -->
<g id="edge3" class="edge">
<title>n_0_1_4_5_6&#45;&gt;n_0_4_5_6</title>
<path fill="none" stroke="black" d="M304.42,-337.05C296.81,-326.4 288.12,-314.25 280.23,-303.22"/>
<polygon fill="black" stroke="black" points="283.1,-301.2 274.43,-295.11 277.4,-305.28 283.1,-301.2"/>
</g>
<!-- n_1 -->
<g id="node11" class="node">
<title>n_1</title>
<polygon fill="none" stroke="black" points="372.12,-255.88 372.12,-281.12 416.12,-281.12 416.12,-255.88 372.12,-255.88"/>
<text text-anchor="start" x="379.12" y="-266.57" font-family="Times New Roman,serif" font-weight="bold" font-size="9.00">Normal</text>
<polygon fill="none" stroke="black" points="371.12,-254.88 371.12,-282.12 417.12,-282.12 417.12,-254.88 371.12,-254.88"/>
</g>
<!-- n_0_1_4_5_6&#45;&gt;n_1 -->
<g id="edge10" class="edge">
<title>n_0_1_4_5_6&#45;&gt;n_1</title>
<path fill="none" stroke="black" d="M345.83,-337.05C355.25,-323.86 366.33,-308.38 375.49,-295.56"/>
<polygon fill="black" stroke="black" points="378.22,-297.77 381.19,-287.6 372.52,-293.7 378.22,-297.77"/>
</g>
<!-- n_0_5_6 -->
<g id="node5" class="node">
<title>n_0_5_6</title>
<polygon fill="none" stroke="black" points="114.5,-163 114.5,-195 202.75,-195 202.75,-163 114.5,-163"/>
<text text-anchor="start" x="121.5" y="-180.45" font-family="Times New Roman,serif" font-weight="bold" font-size="9.00">Insufficient weight</text>
<text text-anchor="start" x="137.62" y="-171.45" font-family="Times New Roman,serif" font-weight="bold" font-size="9.00">Obesity III</text>
<polygon fill="none" stroke="black" points="202.75,-163 202.75,-195 255.75,-195 255.75,-163 202.75,-163"/>
<text text-anchor="start" x="209.75" y="-177.07" font-family="Times New Roman,serif" font-weight="bold" font-size="9.00">Obesity II</text>
<polygon fill="none" stroke="black" points="113.5,-162 113.5,-196 256.75,-196 256.75,-162 113.5,-162"/>
</g>
<!-- n_0_4_5_6&#45;&gt;n_0_5_6 -->
<g id="edge4" class="edge">
<title>n_0_4_5_6&#45;&gt;n_0_5_6</title>
<path fill="none" stroke="black" d="M236.35,-243.13C227.69,-232.46 217.47,-219.87 208.45,-208.75"/>
<polygon fill="black" stroke="black" points="211.18,-206.56 202.17,-201 205.75,-210.97 211.18,-206.56"/>
</g>
<!-- n_4 -->
<g id="node10" class="node">
<title>n_4</title>
<polygon fill="none" stroke="black" points="303.12,-166.38 303.12,-191.62 353.12,-191.62 353.12,-166.38 303.12,-166.38"/>
<text text-anchor="start" x="310.12" y="-177.07" font-family="Times New Roman,serif" font-weight="bold" font-size="9.00">Obesity I</text>
<polygon fill="none" stroke="black" points="302.12,-165.38 302.12,-192.62 354.12,-192.62 354.12,-165.38 302.12,-165.38"/>
</g>
<!-- n_0_4_5_6&#45;&gt;n_4 -->
<g id="edge9" class="edge">
<title>n_0_4_5_6&#45;&gt;n_4</title>
<path fill="none" stroke="black" d="M276.18,-243.13C285.86,-231.36 297.47,-217.25 307.26,-205.36"/>
<polygon fill="black" stroke="black" points="309.71,-207.89 313.36,-197.94 304.31,-203.44 309.71,-207.89"/>
</g>
<!-- n_0_6 -->
<g id="node6" class="node">
<title>n_0_6</title>
<polygon fill="none" stroke="black" points="40,-84.38 40,-109.62 128.25,-109.62 128.25,-84.38 40,-84.38"/>
<text text-anchor="start" x="47" y="-95.08" font-family="Times New Roman,serif" font-weight="bold" font-size="9.00">Insufficient weight</text>
<polygon fill="none" stroke="black" points="128.25,-84.38 128.25,-109.62 184.25,-109.62 184.25,-84.38 128.25,-84.38"/>
<text text-anchor="start" x="135.25" y="-95.08" font-family="Times New Roman,serif" font-weight="bold" font-size="9.00">Obesity III</text>
<polygon fill="none" stroke="black" points="39,-83.38 39,-110.62 185.25,-110.62 185.25,-83.38 39,-83.38"/>
</g>
<!-- n_0_5_6&#45;&gt;n_0_6 -->
<g id="edge5" class="edge">
<title>n_0_5_6&#45;&gt;n_0_6</title>
<path fill="none" stroke="black" d="M167.08,-158.22C157.39,-147.61 145.35,-134.41 135,-123.07"/>
<polygon fill="black" stroke="black" points="137.84,-120.99 128.52,-115.96 132.67,-125.71 137.84,-120.99"/>
</g>
<!-- n_5 -->
<g id="node9" class="node">
<title>n_5</title>
<polygon fill="none" stroke="black" points="231.62,-84.38 231.62,-109.62 284.62,-109.62 284.62,-84.38 231.62,-84.38"/>
<text text-anchor="start" x="238.62" y="-95.08" font-family="Times New Roman,serif" font-weight="bold" font-size="9.00">Obesity II</text>
<polygon fill="none" stroke="black" points="230.62,-83.38 230.62,-110.62 285.62,-110.62 285.62,-83.38 230.62,-83.38"/>
</g>
<!-- n_0_5_6&#45;&gt;n_5 -->
<g id="edge8" class="edge">
<title>n_0_5_6&#45;&gt;n_5</title>
<path fill="none" stroke="black" d="M203.17,-158.22C212.86,-147.61 224.9,-134.41 235.25,-123.07"/>
<polygon fill="black" stroke="black" points="237.58,-125.71 241.73,-115.96 232.41,-120.99 237.58,-125.71"/>
</g>
<!-- n_0 -->
<g id="node7" class="node">
<title>n_0</title>
<polygon fill="none" stroke="black" points="9,-5.38 9,-30.62 97.25,-30.62 97.25,-5.38 9,-5.38"/>
<text text-anchor="start" x="16" y="-16.07" font-family="Times New Roman,serif" font-weight="bold" font-size="9.00">Insufficient weight</text>
<polygon fill="none" stroke="black" points="8,-4.38 8,-31.62 98.25,-31.62 98.25,-4.38 8,-4.38"/>
</g>
<!-- n_0_6&#45;&gt;n_0 -->
<g id="edge6" class="edge">
<title>n_0_6&#45;&gt;n_0</title>
<path fill="none" stroke="black" d="M99.32,-79.29C91.64,-69.27 81.72,-56.31 73.03,-44.98"/>
<polygon fill="black" stroke="black" points="75.89,-42.95 67.03,-37.14 70.33,-47.21 75.89,-42.95"/>
</g>
<!-- n_6 -->
<g id="node8" class="node">
<title>n_6</title>
<polygon fill="none" stroke="black" points="144.12,-5.38 144.12,-30.62 200.12,-30.62 200.12,-5.38 144.12,-5.38"/>
<text text-anchor="start" x="151.12" y="-16.07" font-family="Times New Roman,serif" font-weight="bold" font-size="9.00">Obesity III</text>
<polygon fill="none" stroke="black" points="143.12,-4.38 143.12,-31.62 201.12,-31.62 201.12,-4.38 143.12,-4.38"/>
</g>
<!-- n_0_6&#45;&gt;n_6 -->
<g id="edge7" class="edge">
<title>n_0_6&#45;&gt;n_6</title>
<path fill="none" stroke="black" d="M125.14,-79.29C132.95,-69.27 143.05,-56.31 151.88,-44.98"/>
<polygon fill="black" stroke="black" points="154.61,-47.17 157.99,-37.14 149.09,-42.87 154.61,-47.17"/>
</g>
</g>
</svg>
