<?xml version="1.0" encoding="UTF-8" standalone="no"?>
<!DOCTYPE svg PUBLIC "-//W3C//DTD SVG 1.1//EN"
 "http://www.w3.org/Graphics/SVG/1.1/DTD/svg11.dtd">
<!-- Generated by graphviz version 10.0.1 (20240210.2158)
 -->
<!-- Title: ND Pages: 1 -->
<svg width="626pt" height="405pt"
 viewBox="0.00 0.00 625.62 405.00" xmlns="http://www.w3.org/2000/svg" xmlns:xlink="http://www.w3.org/1999/xlink">
<g id="graph0" class="graph" transform="scale(1 1) rotate(0) translate(4 401)">
<title>ND</title>
<polygon fill="white" stroke="none" points="-4,4 -4,-401 621.62,-401 621.62,4 -4,4"/>
<!-- n_0_1_2_3_4_5_6 -->
<g id="node1" class="node">
<title>n_0_1_2_3_4_5_6</title>
<polygon fill="none" stroke="black" points="294.5,-342 294.5,-392 382.75,-392 382.75,-342 294.5,-342"/>
<text text-anchor="start" x="301.5" y="-377.45" font-family="Times New Roman,serif" font-weight="bold" font-size="9.00">Insufficient weight</text>
<text text-anchor="start" x="323.62" y="-368.45" font-family="Times New Roman,serif" font-weight="bold" font-size="9.00">Normal</text>
<text text-anchor="start" x="311.62" y="-359.45" font-family="Times New Roman,serif" font-weight="bold" font-size="9.00">Overweight II</text>
<text text-anchor="start" x="319.12" y="-350.45" font-family="Times New Roman,serif" font-weight="bold" font-size="9.00">Obesity II</text>
<polygon fill="none" stroke="black" points="382.75,-342 382.75,-392 447.75,-392 447.75,-342 382.75,-342"/>
<text text-anchor="start" x="389.75" y="-372.95" font-family="Times New Roman,serif" font-weight="bold" font-size="9.00">Overweight I</text>
<text text-anchor="start" x="397.25" y="-363.95" font-family="Times New Roman,serif" font-weight="bold" font-size="9.00">Obesity I</text>
<text text-anchor="start" x="394.25" y="-354.95" font-family="Times New Roman,serif" font-weight="bold" font-size="9.00">Obesity III</text>
<polygon fill="none" stroke="black" points="293.5,-341 293.5,-393 448.75,-393 448.75,-341 293.5,-341"/>
</g>
<!-- n_0_1_3_5 -->
<g id="node2" class="node">
<title>n_0_1_3_5</title>
<polygon fill="none" stroke="black" points="218,-248 218,-289 306.25,-289 306.25,-248 218,-248"/>
<text text-anchor="start" x="225" y="-274.45" font-family="Times New Roman,serif" font-weight="bold" font-size="9.00">Insufficient weight</text>
<text text-anchor="start" x="235.12" y="-265.45" font-family="Times New Roman,serif" font-weight="bold" font-size="9.00">Overweight II</text>
<text text-anchor="start" x="242.62" y="-256.45" font-family="Times New Roman,serif" font-weight="bold" font-size="9.00">Obesity II</text>
<polygon fill="none" stroke="black" points="306.25,-248 306.25,-289 350.25,-289 350.25,-248 306.25,-248"/>
<text text-anchor="start" x="313.25" y="-266.57" font-family="Times New Roman,serif" font-weight="bold" font-size="9.00">Normal</text>
<polygon fill="none" stroke="black" points="217,-247 217,-290 351.25,-290 351.25,-247 217,-247"/>
</g>
<!-- n_0_1_2_3_4_5_6&#45;&gt;n_0_1_3_5 -->
<g id="edge1" class="edge">
<title>n_0_1_2_3_4_5_6&#45;&gt;n_0_1_3_5</title>
<path fill="none" stroke="black" d="M345.02,-337.05C335.13,-326.08 323.8,-313.51 313.62,-302.22"/>
<polygon fill="black" stroke="black" points="316.41,-300.08 307.11,-295 311.21,-304.77 316.41,-300.08"/>
</g>
<!-- n_2_4_6 -->
<g id="node9" class="node">
<title>n_2_4_6</title>
<polygon fill="none" stroke="black" points="397.62,-252.5 397.62,-284.5 453.62,-284.5 453.62,-252.5 397.62,-252.5"/>
<text text-anchor="start" x="407.62" y="-269.95" font-family="Times New Roman,serif" font-weight="bold" font-size="9.00">Obesity I</text>
<text text-anchor="start" x="404.62" y="-260.95" font-family="Times New Roman,serif" font-weight="bold" font-size="9.00">Obesity III</text>
<polygon fill="none" stroke="black" points="453.62,-252.5 453.62,-284.5 518.62,-284.5 518.62,-252.5 453.62,-252.5"/>
<text text-anchor="start" x="460.62" y="-266.57" font-family="Times New Roman,serif" font-weight="bold" font-size="9.00">Overweight I</text>
<polygon fill="none" stroke="black" points="396.62,-251.5 396.62,-285.5 519.62,-285.5 519.62,-251.5 396.62,-251.5"/>
</g>
<!-- n_0_1_2_3_4_5_6&#45;&gt;n_2_4_6 -->
<g id="edge8" class="edge">
<title>n_0_1_2_3_4_5_6&#45;&gt;n_2_4_6</title>
<path fill="none" stroke="black" d="M397.23,-337.05C408.53,-324.51 421.72,-309.89 432.92,-297.46"/>
<polygon fill="black" stroke="black" points="435.2,-300.15 439.3,-290.38 430,-295.47 435.2,-300.15"/>
</g>
<!-- n_0_3_5 -->
<g id="node3" class="node">
<title>n_0_3_5</title>
<polygon fill="none" stroke="black" points="88.5,-163 88.5,-195 176.75,-195 176.75,-163 88.5,-163"/>
<text text-anchor="start" x="95.5" y="-180.45" font-family="Times New Roman,serif" font-weight="bold" font-size="9.00">Insufficient weight</text>
<text text-anchor="start" x="105.62" y="-171.45" font-family="Times New Roman,serif" font-weight="bold" font-size="9.00">Overweight II</text>
<polygon fill="none" stroke="black" points="176.75,-163 176.75,-195 229.75,-195 229.75,-163 176.75,-163"/>
<text text-anchor="start" x="183.75" y="-177.07" font-family="Times New Roman,serif" font-weight="bold" font-size="9.00">Obesity II</text>
<polygon fill="none" stroke="black" points="87.5,-162 87.5,-196 230.75,-196 230.75,-162 87.5,-162"/>
</g>
<!-- n_0_1_3_5&#45;&gt;n_0_3_5 -->
<g id="edge2" class="edge">
<title>n_0_1_3_5&#45;&gt;n_0_3_5</title>
<path fill="none" stroke="black" d="M249.31,-243.13C232.85,-231.61 213.18,-217.84 196.42,-206.11"/>
<polygon fill="black" stroke="black" points="198.89,-203.56 188.69,-200.69 194.87,-209.3 198.89,-203.56"/>
</g>
<!-- n_1 -->
<g id="node8" class="node">
<title>n_1</title>
<polygon fill="none" stroke="black" points="277.12,-166.38 277.12,-191.62 321.12,-191.62 321.12,-166.38 277.12,-166.38"/>
<text text-anchor="start" x="284.12" y="-177.07" font-family="Times New Roman,serif" font-weight="bold" font-size="9.00">Normal</text>
<polygon fill="none" stroke="black" points="276.12,-165.38 276.12,-192.62 322.12,-192.62 322.12,-165.38 276.12,-165.38"/>
</g>
<!-- n_0_1_3_5&#45;&gt;n_1 -->
<g id="edge7" class="edge">
<title>n_0_1_3_5&#45;&gt;n_1</title>
<path fill="none" stroke="black" d="M288.3,-243.13C290.18,-232.17 292.41,-219.18 294.35,-207.84"/>
<polygon fill="black" stroke="black" points="297.75,-208.71 295.99,-198.26 290.85,-207.53 297.75,-208.71"/>
</g>
<!-- n_0_3 -->
<g id="node4" class="node">
<title>n_0_3</title>
<polygon fill="none" stroke="black" points="37,-84.38 37,-109.62 125.25,-109.62 125.25,-84.38 37,-84.38"/>
<text text-anchor="start" x="44" y="-95.08" font-family="Times New Roman,serif" font-weight="bold" font-size="9.00">Insufficient weight</text>
<polygon fill="none" stroke="black" points="125.25,-84.38 125.25,-109.62 193.25,-109.62 193.25,-84.38 125.25,-84.38"/>
<text text-anchor="start" x="132.25" y="-95.08" font-family="Times New Roman,serif" font-weight="bold" font-size="9.00">Overweight II</text>
<polygon fill="none" stroke="black" points="36,-83.38 36,-110.62 194.25,-110.62 194.25,-83.38 36,-83.38"/>
</g>
<!-- n_0_3_5&#45;&gt;n_0_3 -->
<g id="edge3" class="edge">
<title>n_0_3_5&#45;&gt;n_0_3</title>
<path fill="none" stroke="black" d="M148.25,-158.22C142.69,-148.13 135.86,-135.69 129.84,-124.75"/>
<polygon fill="black" stroke="black" points="133,-123.25 125.12,-116.17 126.87,-126.62 133,-123.25"/>
</g>
<!-- n_5 -->
<g id="node7" class="node">
<title>n_5</title>
<polygon fill="none" stroke="black" points="240.62,-84.38 240.62,-109.62 293.62,-109.62 293.62,-84.38 240.62,-84.38"/>
<text text-anchor="start" x="247.62" y="-95.08" font-family="Times New Roman,serif" font-weight="bold" font-size="9.00">Obesity II</text>
<polygon fill="none" stroke="black" points="239.62,-83.38 239.62,-110.62 294.62,-110.62 294.62,-83.38 239.62,-83.38"/>
</g>
<!-- n_0_3_5&#45;&gt;n_5 -->
<g id="edge6" class="edge">
<title>n_0_3_5&#45;&gt;n_5</title>
<path fill="none" stroke="black" d="M186.1,-158.02C201.14,-146.88 219.95,-132.94 235.66,-121.31"/>
<polygon fill="black" stroke="black" points="237.33,-124.42 243.28,-115.66 233.17,-118.8 237.33,-124.42"/>
</g>
<!-- n_0 -->
<g id="node5" class="node">
<title>n_0</title>
<polygon fill="none" stroke="black" points="9,-5.38 9,-30.62 97.25,-30.62 97.25,-5.38 9,-5.38"/>
<text text-anchor="start" x="16" y="-16.07" font-family="Times New Roman,serif" font-weight="bold" font-size="9.00">Insufficient weight</text>
<polygon fill="none" stroke="black" points="8,-4.38 8,-31.62 98.25,-31.62 98.25,-4.38 8,-4.38"/>
</g>
<!-- n_0_3&#45;&gt;n_0 -->
<g id="edge4" class="edge">
<title>n_0_3&#45;&gt;n_0</title>
<path fill="none" stroke="black" d="M101.67,-79.29C93.52,-69.17 82.96,-56.05 73.77,-44.64"/>
<polygon fill="black" stroke="black" points="76.71,-42.71 67.72,-37.12 71.26,-47.1 76.71,-42.71"/>
</g>
<!-- n_3 -->
<g id="node6" class="node">
<title>n_3</title>
<polygon fill="none" stroke="black" points="144.12,-5.38 144.12,-30.62 212.12,-30.62 212.12,-5.38 144.12,-5.38"/>
<text text-anchor="start" x="151.12" y="-16.07" font-family="Times New Roman,serif" font-weight="bold" font-size="9.00">Overweight II</text>
<polygon fill="none" stroke="black" points="143.12,-4.38 143.12,-31.62 213.12,-31.62 213.12,-4.38 143.12,-4.38"/>
</g>
<!-- n_0_3&#45;&gt;n_3 -->
<g id="edge5" class="edge">
<title>n_0_3&#45;&gt;n_3</title>
<path fill="none" stroke="black" d="M128.8,-79.29C137.08,-69.17 147.81,-56.05 157.15,-44.64"/>
<polygon fill="black" stroke="black" points="159.68,-47.07 163.31,-37.11 154.26,-42.64 159.68,-47.07"/>
</g>
<!-- n_4_6 -->
<g id="node10" class="node">
<title>n_4_6</title>
<polygon fill="none" stroke="black" points="390.12,-166.38 390.12,-191.62 440.12,-191.62 440.12,-166.38 390.12,-166.38"/>
<text text-anchor="start" x="397.12" y="-177.07" font-family="Times New Roman,serif" font-weight="bold" font-size="9.00">Obesity I</text>
<polygon fill="none" stroke="black" points="440.12,-166.38 440.12,-191.62 496.12,-191.62 496.12,-166.38 440.12,-166.38"/>
<text text-anchor="start" x="447.12" y="-177.07" font-family="Times New Roman,serif" font-weight="bold" font-size="9.00">Obesity III</text>
<polygon fill="none" stroke="black" points="389.12,-165.38 389.12,-192.62 497.12,-192.62 497.12,-165.38 389.12,-165.38"/>
</g>
<!-- n_2_4_6&#45;&gt;n_4_6 -->
<g id="edge9" class="edge">
<title>n_2_4_6&#45;&gt;n_4_6</title>
<path fill="none" stroke="black" d="M454.72,-247.64C452.71,-235.91 450.13,-220.86 447.92,-207.94"/>
<polygon fill="black" stroke="black" points="451.41,-207.59 446.27,-198.32 444.51,-208.77 451.41,-207.59"/>
</g>
<!-- n_2 -->
<g id="node13" class="node">
<title>n_2</title>
<polygon fill="none" stroke="black" points="543.62,-166.38 543.62,-191.62 608.62,-191.62 608.62,-166.38 543.62,-166.38"/>
<text text-anchor="start" x="550.62" y="-177.07" font-family="Times New Roman,serif" font-weight="bold" font-size="9.00">Overweight I</text>
<polygon fill="none" stroke="black" points="542.62,-165.38 542.62,-192.62 609.62,-192.62 609.62,-165.38 542.62,-165.38"/>
</g>
<!-- n_2_4_6&#45;&gt;n_2 -->
<g id="edge12" class="edge">
<title>n_2_4_6&#45;&gt;n_2</title>
<path fill="none" stroke="black" d="M484.9,-247.64C502.5,-234.59 525.63,-217.45 544.19,-203.68"/>
<polygon fill="black" stroke="black" points="546.26,-206.5 552.21,-197.73 542.09,-200.88 546.26,-206.5"/>
</g>
<!-- n_4 -->
<g id="node11" class="node">
<title>n_4</title>
<polygon fill="none" stroke="black" points="379.12,-84.38 379.12,-109.62 429.12,-109.62 429.12,-84.38 379.12,-84.38"/>
<text text-anchor="start" x="386.12" y="-95.08" font-family="Times New Roman,serif" font-weight="bold" font-size="9.00">Obesity I</text>
<polygon fill="none" stroke="black" points="378.12,-83.38 378.12,-110.62 430.12,-110.62 430.12,-83.38 378.12,-83.38"/>
</g>
<!-- n_4_6&#45;&gt;n_4 -->
<g id="edge10" class="edge">
<title>n_4_6&#45;&gt;n_4</title>
<path fill="none" stroke="black" d="M434.85,-161.03C429.79,-150.64 423.19,-137.1 417.4,-125.23"/>
<polygon fill="black" stroke="black" points="420.58,-123.76 413.05,-116.3 414.28,-126.82 420.58,-123.76"/>
</g>
<!-- n_6 -->
<g id="node12" class="node">
<title>n_6</title>
<polygon fill="none" stroke="black" points="476.12,-84.38 476.12,-109.62 532.12,-109.62 532.12,-84.38 476.12,-84.38"/>
<text text-anchor="start" x="483.12" y="-95.08" font-family="Times New Roman,serif" font-weight="bold" font-size="9.00">Obesity III</text>
<polygon fill="none" stroke="black" points="475.12,-83.38 475.12,-110.62 533.12,-110.62 533.12,-83.38 475.12,-83.38"/>
</g>
<!-- n_4_6&#45;&gt;n_6 -->
<g id="edge11" class="edge">
<title>n_4_6&#45;&gt;n_6</title>
<path fill="none" stroke="black" d="M456.06,-161.03C464.31,-150.22 475.16,-135.99 484.46,-123.79"/>
<polygon fill="black" stroke="black" points="487.01,-126.22 490.29,-116.15 481.44,-121.97 487.01,-126.22"/>
</g>
</g>
</svg>
