<?xml version="1.0" encoding="UTF-8" standalone="no"?>
<!DOCTYPE svg PUBLIC "-//W3C//DTD SVG 1.1//EN"
 "http://www.w3.org/Graphics/SVG/1.1/DTD/svg11.dtd">
<!-- Generated by graphviz version 10.0.1 (20240210.2158)
 -->
<!-- Title: ND Pages: 1 -->
<svg width="547pt" height="423pt"
 viewBox="0.00 0.00 547.12 423.00" xmlns="http://www.w3.org/2000/svg" xmlns:xlink="http://www.w3.org/1999/xlink">
<g id="graph0" class="graph" transform="scale(1 1) rotate(0) translate(4 419)">
<title>ND</title>
<polygon fill="white" stroke="none" points="-4,4 -4,-419 543.12,-419 543.12,4 -4,4"/>
<!-- n_0_1_2_3_4_5_6 -->
<g id="node1" class="node">
<title>n_0_1_2_3_4_5_6</title>
<polygon fill="none" stroke="black" points="301.5,-342 301.5,-410 389.75,-410 389.75,-342 301.5,-342"/>
<text text-anchor="start" x="308.5" y="-395.45" font-family="Times New Roman,serif" font-weight="bold" font-size="9.00">Insufficient weight</text>
<text text-anchor="start" x="330.62" y="-386.45" font-family="Times New Roman,serif" font-weight="bold" font-size="9.00">Normal</text>
<text text-anchor="start" x="318.62" y="-377.45" font-family="Times New Roman,serif" font-weight="bold" font-size="9.00">Overweight II</text>
<text text-anchor="start" x="327.62" y="-368.45" font-family="Times New Roman,serif" font-weight="bold" font-size="9.00">Obesity I</text>
<text text-anchor="start" x="326.12" y="-359.45" font-family="Times New Roman,serif" font-weight="bold" font-size="9.00">Obesity II</text>
<text text-anchor="start" x="324.62" y="-350.45" font-family="Times New Roman,serif" font-weight="bold" font-size="9.00">Obesity III</text>
<polygon fill="none" stroke="black" points="389.75,-342 389.75,-410 454.75,-410 454.75,-342 389.75,-342"/>
<text text-anchor="start" x="396.75" y="-374.07" font-family="Times New Roman,serif" font-weight="bold" font-size="9.00">Overweight I</text>
<polygon fill="none" stroke="black" points="300.5,-341 300.5,-411 455.75,-411 455.75,-341 300.5,-341"/>
</g>
<!-- n_0_1_3_4_5_6 -->
<g id="node2" class="node">
<title>n_0_1_3_4_5_6</title>
<polygon fill="none" stroke="black" points="221,-248 221,-289 309.25,-289 309.25,-248 221,-248"/>
<text text-anchor="start" x="228" y="-274.45" font-family="Times New Roman,serif" font-weight="bold" font-size="9.00">Insufficient weight</text>
<text text-anchor="start" x="247.12" y="-265.45" font-family="Times New Roman,serif" font-weight="bold" font-size="9.00">Obesity I</text>
<text text-anchor="start" x="245.62" y="-256.45" font-family="Times New Roman,serif" font-weight="bold" font-size="9.00">Obesity II</text>
<polygon fill="none" stroke="black" points="309.25,-248 309.25,-289 377.25,-289 377.25,-248 309.25,-248"/>
<text text-anchor="start" x="328.25" y="-274.45" font-family="Times New Roman,serif" font-weight="bold" font-size="9.00">Normal</text>
<text text-anchor="start" x="316.25" y="-265.45" font-family="Times New Roman,serif" font-weight="bold" font-size="9.00">Overweight II</text>
<text text-anchor="start" x="322.25" y="-256.45" font-family="Times New Roman,serif" font-weight="bold" font-size="9.00">Obesity III</text>
<polygon fill="none" stroke="black" points="220,-247 220,-290 378.25,-290 378.25,-247 220,-247"/>
</g>
<!-- n_0_1_2_3_4_5_6&#45;&gt;n_0_1_3_4_5_6 -->
<g id="edge1" class="edge">
<title>n_0_1_2_3_4_5_6&#45;&gt;n_0_1_3_4_5_6</title>
<path fill="none" stroke="black" d="M349.83,-337.21C341.47,-326.05 332.39,-313.92 324.25,-303.05"/>
<polygon fill="black" stroke="black" points="327.08,-300.99 318.29,-295.09 321.48,-305.19 327.08,-300.99"/>
</g>
<!-- n_2 -->
<g id="node13" class="node">
<title>n_2</title>
<polygon fill="none" stroke="black" points="424.62,-255.88 424.62,-281.12 489.62,-281.12 489.62,-255.88 424.62,-255.88"/>
<text text-anchor="start" x="431.62" y="-266.57" font-family="Times New Roman,serif" font-weight="bold" font-size="9.00">Overweight I</text>
<polygon fill="none" stroke="black" points="423.62,-254.88 423.62,-282.12 490.62,-282.12 490.62,-254.88 423.62,-254.88"/>
</g>
<!-- n_0_1_2_3_4_5_6&#45;&gt;n_2 -->
<g id="edge12" class="edge">
<title>n_0_1_2_3_4_5_6&#45;&gt;n_2</title>
<path fill="none" stroke="black" d="M406.42,-337.21C416.8,-323.36 428.29,-308.01 437.71,-295.43"/>
<polygon fill="black" stroke="black" points="440.36,-297.73 443.55,-287.63 434.75,-293.54 440.36,-297.73"/>
</g>
<!-- n_0_4_5 -->
<g id="node3" class="node">
<title>n_0_4_5</title>
<polygon fill="none" stroke="black" points="141.5,-163 141.5,-195 229.75,-195 229.75,-163 141.5,-163"/>
<text text-anchor="start" x="148.5" y="-180.45" font-family="Times New Roman,serif" font-weight="bold" font-size="9.00">Insufficient weight</text>
<text text-anchor="start" x="167.62" y="-171.45" font-family="Times New Roman,serif" font-weight="bold" font-size="9.00">Obesity I</text>
<polygon fill="none" stroke="black" points="229.75,-163 229.75,-195 282.75,-195 282.75,-163 229.75,-163"/>
<text text-anchor="start" x="236.75" y="-177.07" font-family="Times New Roman,serif" font-weight="bold" font-size="9.00">Obesity II</text>
<polygon fill="none" stroke="black" points="140.5,-162 140.5,-196 283.75,-196 283.75,-162 140.5,-162"/>
</g>
<!-- n_0_1_3_4_5_6&#45;&gt;n_0_4_5 -->
<g id="edge2" class="edge">
<title>n_0_1_3_4_5_6&#45;&gt;n_0_4_5</title>
<path fill="none" stroke="black" d="M274.89,-243.13C263.97,-232.14 251.01,-219.11 239.72,-207.75"/>
<polygon fill="black" stroke="black" points="242.44,-205.52 232.9,-200.9 237.47,-210.46 242.44,-205.52"/>
</g>
<!-- n_1_3_6 -->
<g id="node8" class="node">
<title>n_1_3_6</title>
<polygon fill="none" stroke="black" points="330.12,-163 330.12,-195 398.12,-195 398.12,-163 330.12,-163"/>
<text text-anchor="start" x="337.12" y="-180.45" font-family="Times New Roman,serif" font-weight="bold" font-size="9.00">Overweight II</text>
<text text-anchor="start" x="343.12" y="-171.45" font-family="Times New Roman,serif" font-weight="bold" font-size="9.00">Obesity III</text>
<polygon fill="none" stroke="black" points="398.12,-163 398.12,-195 442.12,-195 442.12,-163 398.12,-163"/>
<text text-anchor="start" x="405.12" y="-177.07" font-family="Times New Roman,serif" font-weight="bold" font-size="9.00">Normal</text>
<polygon fill="none" stroke="black" points="329.12,-162 329.12,-196 443.12,-196 443.12,-162 329.12,-162"/>
</g>
<!-- n_0_1_3_4_5_6&#45;&gt;n_1_3_6 -->
<g id="edge7" class="edge">
<title>n_0_1_3_4_5_6&#45;&gt;n_1_3_6</title>
<path fill="none" stroke="black" d="M323.36,-243.13C334.28,-232.14 347.24,-219.11 358.53,-207.75"/>
<polygon fill="black" stroke="black" points="360.78,-210.46 365.35,-200.9 355.81,-205.52 360.78,-210.46"/>
</g>
<!-- n_0_4 -->
<g id="node4" class="node">
<title>n_0_4</title>
<polygon fill="none" stroke="black" points="10,-84.38 10,-109.62 98.25,-109.62 98.25,-84.38 10,-84.38"/>
<text text-anchor="start" x="17" y="-95.08" font-family="Times New Roman,serif" font-weight="bold" font-size="9.00">Insufficient weight</text>
<polygon fill="none" stroke="black" points="98.25,-84.38 98.25,-109.62 148.25,-109.62 148.25,-84.38 98.25,-84.38"/>
<text text-anchor="start" x="105.25" y="-95.08" font-family="Times New Roman,serif" font-weight="bold" font-size="9.00">Obesity I</text>
<polygon fill="none" stroke="black" points="9,-83.38 9,-110.62 149.25,-110.62 149.25,-83.38 9,-83.38"/>
</g>
<!-- n_0_4_5&#45;&gt;n_0_4 -->
<g id="edge3" class="edge">
<title>n_0_4_5&#45;&gt;n_0_4</title>
<path fill="none" stroke="black" d="M178.91,-158.02C160.04,-146.67 136.35,-132.42 116.79,-120.66"/>
<polygon fill="black" stroke="black" points="118.66,-117.69 108.28,-115.54 115.05,-123.69 118.66,-117.69"/>
</g>
<!-- n_5 -->
<g id="node7" class="node">
<title>n_5</title>
<polygon fill="none" stroke="black" points="195.62,-84.38 195.62,-109.62 248.62,-109.62 248.62,-84.38 195.62,-84.38"/>
<text text-anchor="start" x="202.62" y="-95.08" font-family="Times New Roman,serif" font-weight="bold" font-size="9.00">Obesity II</text>
<polygon fill="none" stroke="black" points="194.62,-83.38 194.62,-110.62 249.62,-110.62 249.62,-83.38 194.62,-83.38"/>
</g>
<!-- n_0_4_5&#45;&gt;n_5 -->
<g id="edge6" class="edge">
<title>n_0_4_5&#45;&gt;n_5</title>
<path fill="none" stroke="black" d="M214.6,-158.22C215.81,-148.54 217.29,-136.72 218.61,-126.11"/>
<polygon fill="black" stroke="black" points="222.06,-126.7 219.83,-116.35 215.12,-125.83 222.06,-126.7"/>
</g>
<!-- n_0 -->
<g id="node5" class="node">
<title>n_0</title>
<polygon fill="none" stroke="black" points="9,-5.38 9,-30.62 97.25,-30.62 97.25,-5.38 9,-5.38"/>
<text text-anchor="start" x="16" y="-16.07" font-family="Times New Roman,serif" font-weight="bold" font-size="9.00">Insufficient weight</text>
<polygon fill="none" stroke="black" points="8,-4.38 8,-31.62 98.25,-31.62 98.25,-4.38 8,-4.38"/>
</g>
<!-- n_0_4&#45;&gt;n_0 -->
<g id="edge4" class="edge">
<title>n_0_4&#45;&gt;n_0</title>
<path fill="none" stroke="black" d="M73.48,-79.29C70.27,-69.77 66.16,-57.6 62.48,-46.69"/>
<polygon fill="black" stroke="black" points="65.84,-45.73 59.33,-37.38 59.21,-47.97 65.84,-45.73"/>
</g>
<!-- n_4 -->
<g id="node6" class="node">
<title>n_4</title>
<polygon fill="none" stroke="black" points="144.12,-5.38 144.12,-30.62 194.12,-30.62 194.12,-5.38 144.12,-5.38"/>
<text text-anchor="start" x="151.12" y="-16.07" font-family="Times New Roman,serif" font-weight="bold" font-size="9.00">Obesity I</text>
<polygon fill="none" stroke="black" points="143.12,-4.38 143.12,-31.62 195.12,-31.62 195.12,-4.38 143.12,-4.38"/>
</g>
<!-- n_0_4&#45;&gt;n_4 -->
<g id="edge5" class="edge">
<title>n_0_4&#45;&gt;n_4</title>
<path fill="none" stroke="black" d="M98.65,-79.29C110.95,-68.77 127.04,-55.01 140.73,-43.29"/>
<polygon fill="black" stroke="black" points="142.85,-46.09 148.17,-36.93 138.3,-40.77 142.85,-46.09"/>
</g>
<!-- n_3_6 -->
<g id="node9" class="node">
<title>n_3_6</title>
<polygon fill="none" stroke="black" points="315.12,-84.38 315.12,-109.62 383.12,-109.62 383.12,-84.38 315.12,-84.38"/>
<text text-anchor="start" x="322.12" y="-95.08" font-family="Times New Roman,serif" font-weight="bold" font-size="9.00">Overweight II</text>
<polygon fill="none" stroke="black" points="383.12,-84.38 383.12,-109.62 439.12,-109.62 439.12,-84.38 383.12,-84.38"/>
<text text-anchor="start" x="390.12" y="-95.08" font-family="Times New Roman,serif" font-weight="bold" font-size="9.00">Obesity III</text>
<polygon fill="none" stroke="black" points="314.12,-83.38 314.12,-110.62 440.12,-110.62 440.12,-83.38 314.12,-83.38"/>
</g>
<!-- n_1_3_6&#45;&gt;n_3_6 -->
<g id="edge8" class="edge">
<title>n_1_3_6&#45;&gt;n_3_6</title>
<path fill="none" stroke="black" d="M383.9,-158.22C382.81,-148.54 381.48,-136.72 380.29,-126.11"/>
<polygon fill="black" stroke="black" points="383.79,-125.89 379.19,-116.35 376.83,-126.68 383.79,-125.89"/>
</g>
<!-- n_1 -->
<g id="node12" class="node">
<title>n_1</title>
<polygon fill="none" stroke="black" points="486.12,-84.38 486.12,-109.62 530.12,-109.62 530.12,-84.38 486.12,-84.38"/>
<text text-anchor="start" x="493.12" y="-95.08" font-family="Times New Roman,serif" font-weight="bold" font-size="9.00">Normal</text>
<polygon fill="none" stroke="black" points="485.12,-83.38 485.12,-110.62 531.12,-110.62 531.12,-83.38 485.12,-83.38"/>
</g>
<!-- n_1_3_6&#45;&gt;n_1 -->
<g id="edge11" class="edge">
<title>n_1_3_6&#45;&gt;n_1</title>
<path fill="none" stroke="black" d="M416.6,-158.02C433.75,-146.77 455.23,-132.68 473.08,-120.98"/>
<polygon fill="black" stroke="black" points="474.86,-124 481.3,-115.59 471.02,-118.15 474.86,-124"/>
</g>
<!-- n_3 -->
<g id="node10" class="node">
<title>n_3</title>
<polygon fill="none" stroke="black" points="282.12,-5.38 282.12,-30.62 350.12,-30.62 350.12,-5.38 282.12,-5.38"/>
<text text-anchor="start" x="289.12" y="-16.07" font-family="Times New Roman,serif" font-weight="bold" font-size="9.00">Overweight II</text>
<polygon fill="none" stroke="black" points="281.12,-4.38 281.12,-31.62 351.12,-31.62 351.12,-4.38 281.12,-4.38"/>
</g>
<!-- n_3_6&#45;&gt;n_3 -->
<g id="edge9" class="edge">
<title>n_3_6&#45;&gt;n_3</title>
<path fill="none" stroke="black" d="M363.89,-79.29C355.87,-69.17 345.48,-56.05 336.44,-44.64"/>
<polygon fill="black" stroke="black" points="339.44,-42.79 330.49,-37.13 333.95,-47.14 339.44,-42.79"/>
</g>
<!-- n_6 -->
<g id="node11" class="node">
<title>n_6</title>
<polygon fill="none" stroke="black" points="397.12,-5.38 397.12,-30.62 453.12,-30.62 453.12,-5.38 397.12,-5.38"/>
<text text-anchor="start" x="404.12" y="-16.07" font-family="Times New Roman,serif" font-weight="bold" font-size="9.00">Obesity III</text>
<polygon fill="none" stroke="black" points="396.12,-4.38 396.12,-31.62 454.12,-31.62 454.12,-4.38 396.12,-4.38"/>
</g>
<!-- n_3_6&#45;&gt;n_6 -->
<g id="edge10" class="edge">
<title>n_3_6&#45;&gt;n_6</title>
<path fill="none" stroke="black" d="M387.54,-79.29C393.66,-69.47 401.54,-56.83 408.51,-45.66"/>
<polygon fill="black" stroke="black" points="411.44,-47.56 413.76,-37.23 405.5,-43.86 411.44,-47.56"/>
</g>
</g>
</svg>
