<?xml version="1.0" encoding="UTF-8" standalone="no"?>
<!DOCTYPE svg PUBLIC "-//W3C//DTD SVG 1.1//EN"
 "http://www.w3.org/Graphics/SVG/1.1/DTD/svg11.dtd">
<!-- Generated by graphviz version 10.0.1 (20240210.2158)
 -->
<!-- Title: ND Pages: 1 -->
<svg width="667pt" height="517pt"
 viewBox="0.00 0.00 667.00 517.00" xmlns="http://www.w3.org/2000/svg" xmlns:xlink="http://www.w3.org/1999/xlink">
<g id="graph0" class="graph" transform="scale(1 1) rotate(0) translate(4 513)">
<title>ND</title>
<polygon fill="white" stroke="none" points="-4,4 -4,-513 663,-513 663,4 -4,4"/>
<!-- n_0_1_2_3_4_5_6 -->
<g id="node1" class="node">
<title>n_0_1_2_3_4_5_6</title>
<polygon fill="none" stroke="black" points="346.88,-445 346.88,-504 414.88,-504 414.88,-445 346.88,-445"/>
<text text-anchor="start" x="365.88" y="-489.45" font-family="Times New Roman,serif" font-weight="bold" font-size="9.00">Normal</text>
<text text-anchor="start" x="355.38" y="-480.45" font-family="Times New Roman,serif" font-weight="bold" font-size="9.00">Overweight I</text>
<text text-anchor="start" x="353.88" y="-471.45" font-family="Times New Roman,serif" font-weight="bold" font-size="9.00">Overweight II</text>
<text text-anchor="start" x="362.88" y="-462.45" font-family="Times New Roman,serif" font-weight="bold" font-size="9.00">Obesity I</text>
<text text-anchor="start" x="361.38" y="-453.45" font-family="Times New Roman,serif" font-weight="bold" font-size="9.00">Obesity II</text>
<polygon fill="none" stroke="black" points="414.88,-445 414.88,-504 503.12,-504 503.12,-445 414.88,-445"/>
<text text-anchor="start" x="421.88" y="-475.95" font-family="Times New Roman,serif" font-weight="bold" font-size="9.00">Insufficient weight</text>
<text text-anchor="start" x="438" y="-466.95" font-family="Times New Roman,serif" font-weight="bold" font-size="9.00">Obesity III</text>
<polygon fill="none" stroke="black" points="345.88,-444 345.88,-505 504.12,-505 504.12,-444 345.88,-444"/>
</g>
<!-- n_1_2_3_4_5 -->
<g id="node2" class="node">
<title>n_1_2_3_4_5</title>
<polygon fill="none" stroke="black" points="265.5,-342 265.5,-392 333.5,-392 333.5,-342 265.5,-342"/>
<text text-anchor="start" x="284.5" y="-377.45" font-family="Times New Roman,serif" font-weight="bold" font-size="9.00">Normal</text>
<text text-anchor="start" x="272.5" y="-368.45" font-family="Times New Roman,serif" font-weight="bold" font-size="9.00">Overweight II</text>
<text text-anchor="start" x="281.5" y="-359.45" font-family="Times New Roman,serif" font-weight="bold" font-size="9.00">Obesity I</text>
<text text-anchor="start" x="280" y="-350.45" font-family="Times New Roman,serif" font-weight="bold" font-size="9.00">Obesity II</text>
<polygon fill="none" stroke="black" points="333.5,-342 333.5,-392 398.5,-392 398.5,-342 333.5,-342"/>
<text text-anchor="start" x="340.5" y="-365.07" font-family="Times New Roman,serif" font-weight="bold" font-size="9.00">Overweight I</text>
<polygon fill="none" stroke="black" points="264.5,-341 264.5,-393 399.5,-393 399.5,-341 264.5,-341"/>
</g>
<!-- n_0_1_2_3_4_5_6&#45;&gt;n_1_2_3_4_5 -->
<g id="edge1" class="edge">
<title>n_0_1_2_3_4_5_6&#45;&gt;n_1_2_3_4_5</title>
<path fill="none" stroke="black" d="M395.57,-440.12C385.82,-429.05 374.9,-416.67 364.91,-405.33"/>
<polygon fill="black" stroke="black" points="367.71,-403.22 358.48,-398.03 362.46,-407.85 367.71,-403.22"/>
</g>
<!-- n_0_6 -->
<g id="node11" class="node">
<title>n_0_6</title>
<polygon fill="none" stroke="black" points="445.88,-354.38 445.88,-379.62 534.12,-379.62 534.12,-354.38 445.88,-354.38"/>
<text text-anchor="start" x="452.88" y="-365.07" font-family="Times New Roman,serif" font-weight="bold" font-size="9.00">Insufficient weight</text>
<polygon fill="none" stroke="black" points="534.12,-354.38 534.12,-379.62 590.12,-379.62 590.12,-354.38 534.12,-354.38"/>
<text text-anchor="start" x="541.12" y="-365.07" font-family="Times New Roman,serif" font-weight="bold" font-size="9.00">Obesity III</text>
<polygon fill="none" stroke="black" points="444.88,-353.38 444.88,-380.62 591.12,-380.62 591.12,-353.38 444.88,-353.38"/>
</g>
<!-- n_0_1_2_3_4_5_6&#45;&gt;n_0_6 -->
<g id="edge10" class="edge">
<title>n_0_1_2_3_4_5_6&#45;&gt;n_0_6</title>
<path fill="none" stroke="black" d="M454.43,-440.12C467.7,-425.06 483.12,-407.57 495.45,-393.58"/>
<polygon fill="black" stroke="black" points="498.07,-395.9 502.06,-386.09 492.82,-391.27 498.07,-395.9"/>
</g>
<!-- n_1_3_4_5 -->
<g id="node3" class="node">
<title>n_1_3_4_5</title>
<polygon fill="none" stroke="black" points="147.5,-248 147.5,-289 200.5,-289 200.5,-248 147.5,-248"/>
<text text-anchor="start" x="159" y="-274.45" font-family="Times New Roman,serif" font-weight="bold" font-size="9.00">Normal</text>
<text text-anchor="start" x="156" y="-265.45" font-family="Times New Roman,serif" font-weight="bold" font-size="9.00">Obesity I</text>
<text text-anchor="start" x="154.5" y="-256.45" font-family="Times New Roman,serif" font-weight="bold" font-size="9.00">Obesity II</text>
<polygon fill="none" stroke="black" points="200.5,-248 200.5,-289 268.5,-289 268.5,-248 200.5,-248"/>
<text text-anchor="start" x="207.5" y="-266.57" font-family="Times New Roman,serif" font-weight="bold" font-size="9.00">Overweight II</text>
<polygon fill="none" stroke="black" points="146.5,-247 146.5,-290 269.5,-290 269.5,-247 146.5,-247"/>
</g>
<!-- n_1_2_3_4_5&#45;&gt;n_1_3_4_5 -->
<g id="edge2" class="edge">
<title>n_1_2_3_4_5&#45;&gt;n_1_3_4_5</title>
<path fill="none" stroke="black" d="M294.8,-337.05C280.14,-325.65 263.28,-312.52 248.34,-300.89"/>
<polygon fill="black" stroke="black" points="250.56,-298.18 240.51,-294.8 246.26,-303.71 250.56,-298.18"/>
</g>
<!-- n_2 -->
<g id="node10" class="node">
<title>n_2</title>
<polygon fill="none" stroke="black" points="315.5,-255.88 315.5,-281.12 380.5,-281.12 380.5,-255.88 315.5,-255.88"/>
<text text-anchor="start" x="322.5" y="-266.57" font-family="Times New Roman,serif" font-weight="bold" font-size="9.00">Overweight I</text>
<polygon fill="none" stroke="black" points="314.5,-254.88 314.5,-282.12 381.5,-282.12 381.5,-254.88 314.5,-254.88"/>
</g>
<!-- n_1_2_3_4_5&#45;&gt;n_2 -->
<g id="edge9" class="edge">
<title>n_1_2_3_4_5&#45;&gt;n_2</title>
<path fill="none" stroke="black" d="M336.8,-337.05C338.88,-324.51 341.3,-309.89 343.36,-297.47"/>
<polygon fill="black" stroke="black" points="346.77,-298.3 344.96,-287.86 339.87,-297.15 346.77,-298.3"/>
</g>
<!-- n_1_4_5 -->
<g id="node4" class="node">
<title>n_1_4_5</title>
<polygon fill="none" stroke="black" points="94.5,-163 94.5,-195 147.5,-195 147.5,-163 94.5,-163"/>
<text text-anchor="start" x="103" y="-180.45" font-family="Times New Roman,serif" font-weight="bold" font-size="9.00">Obesity I</text>
<text text-anchor="start" x="101.5" y="-171.45" font-family="Times New Roman,serif" font-weight="bold" font-size="9.00">Obesity II</text>
<polygon fill="none" stroke="black" points="147.5,-163 147.5,-195 191.5,-195 191.5,-163 147.5,-163"/>
<text text-anchor="start" x="154.5" y="-177.07" font-family="Times New Roman,serif" font-weight="bold" font-size="9.00">Normal</text>
<polygon fill="none" stroke="black" points="93.5,-162 93.5,-196 192.5,-196 192.5,-162 93.5,-162"/>
</g>
<!-- n_1_3_4_5&#45;&gt;n_1_4_5 -->
<g id="edge3" class="edge">
<title>n_1_3_4_5&#45;&gt;n_1_4_5</title>
<path fill="none" stroke="black" d="M189.89,-243.13C181.97,-232.46 172.62,-219.87 164.35,-208.75"/>
<polygon fill="black" stroke="black" points="167.4,-206.98 158.63,-201.04 161.78,-211.16 167.4,-206.98"/>
</g>
<!-- n_3 -->
<g id="node9" class="node">
<title>n_3</title>
<polygon fill="none" stroke="black" points="239,-166.38 239,-191.62 307,-191.62 307,-166.38 239,-166.38"/>
<text text-anchor="start" x="246" y="-177.07" font-family="Times New Roman,serif" font-weight="bold" font-size="9.00">Overweight II</text>
<polygon fill="none" stroke="black" points="238,-165.38 238,-192.62 308,-192.62 308,-165.38 238,-165.38"/>
</g>
<!-- n_1_3_4_5&#45;&gt;n_3 -->
<g id="edge8" class="edge">
<title>n_1_3_4_5&#45;&gt;n_3</title>
<path fill="none" stroke="black" d="M226.11,-243.13C234.76,-231.48 245.12,-217.53 253.9,-205.71"/>
<polygon fill="black" stroke="black" points="256.49,-208.1 259.64,-197.99 250.87,-203.93 256.49,-208.1"/>
</g>
<!-- n_4_5 -->
<g id="node5" class="node">
<title>n_4_5</title>
<polygon fill="none" stroke="black" points="31.5,-84.38 31.5,-109.62 81.5,-109.62 81.5,-84.38 31.5,-84.38"/>
<text text-anchor="start" x="38.5" y="-95.08" font-family="Times New Roman,serif" font-weight="bold" font-size="9.00">Obesity I</text>
<polygon fill="none" stroke="black" points="81.5,-84.38 81.5,-109.62 134.5,-109.62 134.5,-84.38 81.5,-84.38"/>
<text text-anchor="start" x="88.5" y="-95.08" font-family="Times New Roman,serif" font-weight="bold" font-size="9.00">Obesity II</text>
<polygon fill="none" stroke="black" points="30.5,-83.38 30.5,-110.62 135.5,-110.62 135.5,-83.38 30.5,-83.38"/>
</g>
<!-- n_1_4_5&#45;&gt;n_4_5 -->
<g id="edge4" class="edge">
<title>n_1_4_5&#45;&gt;n_4_5</title>
<path fill="none" stroke="black" d="M128.17,-158.22C120.36,-147.81 110.69,-134.92 102.31,-123.74"/>
<polygon fill="black" stroke="black" points="105.34,-121.95 96.54,-116.05 99.74,-126.15 105.34,-121.95"/>
</g>
<!-- n_1 -->
<g id="node8" class="node">
<title>n_1</title>
<polygon fill="none" stroke="black" points="182,-84.38 182,-109.62 226,-109.62 226,-84.38 182,-84.38"/>
<text text-anchor="start" x="189" y="-95.08" font-family="Times New Roman,serif" font-weight="bold" font-size="9.00">Normal</text>
<polygon fill="none" stroke="black" points="181,-83.38 181,-110.62 227,-110.62 227,-83.38 181,-83.38"/>
</g>
<!-- n_1_4_5&#45;&gt;n_1 -->
<g id="edge7" class="edge">
<title>n_1_4_5&#45;&gt;n_1</title>
<path fill="none" stroke="black" d="M158.08,-158.22C166.02,-147.81 175.85,-134.92 184.37,-123.74"/>
<polygon fill="black" stroke="black" points="186.96,-126.12 190.24,-116.05 181.39,-121.88 186.96,-126.12"/>
</g>
<!-- n_4 -->
<g id="node6" class="node">
<title>n_4</title>
<polygon fill="none" stroke="black" points="9,-5.38 9,-30.62 59,-30.62 59,-5.38 9,-5.38"/>
<text text-anchor="start" x="16" y="-16.07" font-family="Times New Roman,serif" font-weight="bold" font-size="9.00">Obesity I</text>
<polygon fill="none" stroke="black" points="8,-4.38 8,-31.62 60,-31.62 60,-4.38 8,-4.38"/>
</g>
<!-- n_4_5&#45;&gt;n_4 -->
<g id="edge5" class="edge">
<title>n_4_5&#45;&gt;n_4</title>
<path fill="none" stroke="black" d="M72.37,-79.29C66.05,-69.37 57.91,-56.57 50.75,-45.32"/>
<polygon fill="black" stroke="black" points="53.91,-43.78 45.59,-37.22 48.01,-47.53 53.91,-43.78"/>
</g>
<!-- n_5 -->
<g id="node7" class="node">
<title>n_5</title>
<polygon fill="none" stroke="black" points="106.5,-5.38 106.5,-30.62 159.5,-30.62 159.5,-5.38 106.5,-5.38"/>
<text text-anchor="start" x="113.5" y="-16.07" font-family="Times New Roman,serif" font-weight="bold" font-size="9.00">Obesity II</text>
<polygon fill="none" stroke="black" points="105.5,-4.38 105.5,-31.62 160.5,-31.62 160.5,-4.38 105.5,-4.38"/>
</g>
<!-- n_4_5&#45;&gt;n_5 -->
<g id="edge6" class="edge">
<title>n_4_5&#45;&gt;n_5</title>
<path fill="none" stroke="black" d="M93.85,-79.29C100.29,-69.37 108.6,-56.57 115.91,-45.32"/>
<polygon fill="black" stroke="black" points="118.66,-47.5 121.17,-37.21 112.79,-43.69 118.66,-47.5"/>
</g>
<!-- n_0 -->
<g id="node12" class="node">
<title>n_0</title>
<polygon fill="none" stroke="black" points="458.88,-255.88 458.88,-281.12 547.12,-281.12 547.12,-255.88 458.88,-255.88"/>
<text text-anchor="start" x="465.88" y="-266.57" font-family="Times New Roman,serif" font-weight="bold" font-size="9.00">Insufficient weight</text>
<polygon fill="none" stroke="black" points="457.88,-254.88 457.88,-282.12 548.12,-282.12 548.12,-254.88 457.88,-254.88"/>
</g>
<!-- n_0_6&#45;&gt;n_0 -->
<g id="edge11" class="edge">
<title>n_0_6&#45;&gt;n_0</title>
<path fill="none" stroke="black" d="M515.39,-349.19C513.19,-335.03 509.99,-314.46 507.39,-297.76"/>
<polygon fill="black" stroke="black" points="510.86,-297.28 505.87,-287.94 503.94,-298.35 510.86,-297.28"/>
</g>
<!-- n_6 -->
<g id="node13" class="node">
<title>n_6</title>
<polygon fill="none" stroke="black" points="594,-255.88 594,-281.12 650,-281.12 650,-255.88 594,-255.88"/>
<text text-anchor="start" x="601" y="-266.57" font-family="Times New Roman,serif" font-weight="bold" font-size="9.00">Obesity III</text>
<polygon fill="none" stroke="black" points="593,-254.88 593,-282.12 651,-282.12 651,-254.88 593,-254.88"/>
</g>
<!-- n_0_6&#45;&gt;n_6 -->
<g id="edge12" class="edge">
<title>n_0_6&#45;&gt;n_6</title>
<path fill="none" stroke="black" d="M536.12,-349.19C552.49,-333.99 576.82,-311.43 595.4,-294.18"/>
<polygon fill="black" stroke="black" points="597.68,-296.84 602.63,-287.47 592.92,-291.71 597.68,-296.84"/>
</g>
</g>
</svg>
