<?xml version="1.0" encoding="UTF-8" standalone="no"?>
<!DOCTYPE svg PUBLIC "-//W3C//DTD SVG 1.1//EN"
 "http://www.w3.org/Graphics/SVG/1.1/DTD/svg11.dtd">
<!-- Generated by graphviz version 10.0.1 (20240210.2158)
 -->
<!-- Title: ND Pages: 1 -->
<svg width="616pt" height="405pt"
 viewBox="0.00 0.00 616.00 405.00" xmlns="http://www.w3.org/2000/svg" xmlns:xlink="http://www.w3.org/1999/xlink">
<g id="graph0" class="graph" transform="scale(1 1) rotate(0) translate(4 401)">
<title>ND</title>
<polygon fill="white" stroke="none" points="-4,4 -4,-401 612,-401 612,4 -4,4"/>
<!-- n_0_1_2_3_4_5_6 -->
<g id="node1" class="node">
<title>n_0_1_2_3_4_5_6</title>
<polygon fill="none" stroke="black" points="296.38,-342 296.38,-392 384.62,-392 384.62,-342 296.38,-342"/>
<text text-anchor="start" x="303.38" y="-377.45" font-family="Times New Roman,serif" font-weight="bold" font-size="9.00">Insufficient weight</text>
<text text-anchor="start" x="313.5" y="-368.45" font-family="Times New Roman,serif" font-weight="bold" font-size="9.00">Overweight II</text>
<text text-anchor="start" x="321" y="-359.45" font-family="Times New Roman,serif" font-weight="bold" font-size="9.00">Obesity II</text>
<text text-anchor="start" x="319.5" y="-350.45" font-family="Times New Roman,serif" font-weight="bold" font-size="9.00">Obesity III</text>
<polygon fill="none" stroke="black" points="384.62,-342 384.62,-392 449.62,-392 449.62,-342 384.62,-342"/>
<text text-anchor="start" x="402.12" y="-372.95" font-family="Times New Roman,serif" font-weight="bold" font-size="9.00">Normal</text>
<text text-anchor="start" x="391.62" y="-363.95" font-family="Times New Roman,serif" font-weight="bold" font-size="9.00">Overweight I</text>
<text text-anchor="start" x="399.12" y="-354.95" font-family="Times New Roman,serif" font-weight="bold" font-size="9.00">Obesity I</text>
<polygon fill="none" stroke="black" points="295.38,-341 295.38,-393 450.62,-393 450.62,-341 295.38,-341"/>
</g>
<!-- n_0_3_5_6 -->
<g id="node2" class="node">
<title>n_0_3_5_6</title>
<polygon fill="none" stroke="black" points="213.88,-248 213.88,-289 302.12,-289 302.12,-248 213.88,-248"/>
<text text-anchor="start" x="220.88" y="-274.45" font-family="Times New Roman,serif" font-weight="bold" font-size="9.00">Insufficient weight</text>
<text text-anchor="start" x="231" y="-265.45" font-family="Times New Roman,serif" font-weight="bold" font-size="9.00">Overweight II</text>
<text text-anchor="start" x="238.5" y="-256.45" font-family="Times New Roman,serif" font-weight="bold" font-size="9.00">Obesity II</text>
<polygon fill="none" stroke="black" points="302.12,-248 302.12,-289 358.12,-289 358.12,-248 302.12,-248"/>
<text text-anchor="start" x="309.12" y="-266.57" font-family="Times New Roman,serif" font-weight="bold" font-size="9.00">Obesity III</text>
<polygon fill="none" stroke="black" points="212.88,-247 212.88,-290 359.12,-290 359.12,-247 212.88,-247"/>
</g>
<!-- n_0_1_2_3_4_5_6&#45;&gt;n_0_3_5_6 -->
<g id="edge1" class="edge">
<title>n_0_1_2_3_4_5_6&#45;&gt;n_0_3_5_6</title>
<path fill="none" stroke="black" d="M346.9,-337.05C337.01,-326.08 325.68,-313.51 315.5,-302.22"/>
<polygon fill="black" stroke="black" points="318.28,-300.08 308.99,-295 313.08,-304.77 318.28,-300.08"/>
</g>
<!-- n_1_2_4 -->
<g id="node9" class="node">
<title>n_1_2_4</title>
<polygon fill="none" stroke="black" points="405.5,-252.5 405.5,-284.5 470.5,-284.5 470.5,-252.5 405.5,-252.5"/>
<text text-anchor="start" x="412.5" y="-269.95" font-family="Times New Roman,serif" font-weight="bold" font-size="9.00">Overweight I</text>
<text text-anchor="start" x="420" y="-260.95" font-family="Times New Roman,serif" font-weight="bold" font-size="9.00">Obesity I</text>
<polygon fill="none" stroke="black" points="470.5,-252.5 470.5,-284.5 514.5,-284.5 514.5,-252.5 470.5,-252.5"/>
<text text-anchor="start" x="477.5" y="-266.57" font-family="Times New Roman,serif" font-weight="bold" font-size="9.00">Normal</text>
<polygon fill="none" stroke="black" points="404.5,-251.5 404.5,-285.5 515.5,-285.5 515.5,-251.5 404.5,-251.5"/>
</g>
<!-- n_0_1_2_3_4_5_6&#45;&gt;n_1_2_4 -->
<g id="edge8" class="edge">
<title>n_0_1_2_3_4_5_6&#45;&gt;n_1_2_4</title>
<path fill="none" stroke="black" d="M399.1,-337.05C410.41,-324.51 423.59,-309.89 434.79,-297.46"/>
<polygon fill="black" stroke="black" points="437.08,-300.15 441.17,-290.38 431.88,-295.47 437.08,-300.15"/>
</g>
<!-- n_0_3_5 -->
<g id="node3" class="node">
<title>n_0_3_5</title>
<polygon fill="none" stroke="black" points="65.88,-163 65.88,-195 133.88,-195 133.88,-163 65.88,-163"/>
<text text-anchor="start" x="72.88" y="-180.45" font-family="Times New Roman,serif" font-weight="bold" font-size="9.00">Overweight II</text>
<text text-anchor="start" x="80.38" y="-171.45" font-family="Times New Roman,serif" font-weight="bold" font-size="9.00">Obesity II</text>
<polygon fill="none" stroke="black" points="133.88,-163 133.88,-195 222.12,-195 222.12,-163 133.88,-163"/>
<text text-anchor="start" x="140.88" y="-177.07" font-family="Times New Roman,serif" font-weight="bold" font-size="9.00">Insufficient weight</text>
<polygon fill="none" stroke="black" points="64.88,-162 64.88,-196 223.12,-196 223.12,-162 64.88,-162"/>
</g>
<!-- n_0_3_5_6&#45;&gt;n_0_3_5 -->
<g id="edge2" class="edge">
<title>n_0_3_5_6&#45;&gt;n_0_3_5</title>
<path fill="none" stroke="black" d="M246.45,-243.13C227.58,-231.5 205,-217.59 185.84,-205.78"/>
<polygon fill="black" stroke="black" points="187.81,-202.89 177.46,-200.62 184.14,-208.85 187.81,-202.89"/>
</g>
<!-- n_6 -->
<g id="node8" class="node">
<title>n_6</title>
<polygon fill="none" stroke="black" points="269,-166.38 269,-191.62 325,-191.62 325,-166.38 269,-166.38"/>
<text text-anchor="start" x="276" y="-177.07" font-family="Times New Roman,serif" font-weight="bold" font-size="9.00">Obesity III</text>
<polygon fill="none" stroke="black" points="268,-165.38 268,-192.62 326,-192.62 326,-165.38 268,-165.38"/>
</g>
<!-- n_0_3_5_6&#45;&gt;n_6 -->
<g id="edge7" class="edge">
<title>n_0_3_5_6&#45;&gt;n_6</title>
<path fill="none" stroke="black" d="M289.06,-243.13C290.44,-232.17 292.08,-219.18 293.5,-207.84"/>
<polygon fill="black" stroke="black" points="296.93,-208.63 294.7,-198.27 289.98,-207.76 296.93,-208.63"/>
</g>
<!-- n_3_5 -->
<g id="node4" class="node">
<title>n_3_5</title>
<polygon fill="none" stroke="black" points="36.5,-84.38 36.5,-109.62 104.5,-109.62 104.5,-84.38 36.5,-84.38"/>
<text text-anchor="start" x="43.5" y="-95.08" font-family="Times New Roman,serif" font-weight="bold" font-size="9.00">Overweight II</text>
<polygon fill="none" stroke="black" points="104.5,-84.38 104.5,-109.62 157.5,-109.62 157.5,-84.38 104.5,-84.38"/>
<text text-anchor="start" x="111.5" y="-95.08" font-family="Times New Roman,serif" font-weight="bold" font-size="9.00">Obesity II</text>
<polygon fill="none" stroke="black" points="35.5,-83.38 35.5,-110.62 158.5,-110.62 158.5,-83.38 35.5,-83.38"/>
</g>
<!-- n_0_3_5&#45;&gt;n_3_5 -->
<g id="edge3" class="edge">
<title>n_0_3_5&#45;&gt;n_3_5</title>
<path fill="none" stroke="black" d="M132.38,-158.22C126.45,-148.13 119.15,-135.69 112.72,-124.75"/>
<polygon fill="black" stroke="black" points="115.75,-123 107.66,-116.15 109.71,-126.54 115.75,-123"/>
</g>
<!-- n_0 -->
<g id="node7" class="node">
<title>n_0</title>
<polygon fill="none" stroke="black" points="204.88,-84.38 204.88,-109.62 293.12,-109.62 293.12,-84.38 204.88,-84.38"/>
<text text-anchor="start" x="211.88" y="-95.08" font-family="Times New Roman,serif" font-weight="bold" font-size="9.00">Insufficient weight</text>
<polygon fill="none" stroke="black" points="203.88,-83.38 203.88,-110.62 294.12,-110.62 294.12,-83.38 203.88,-83.38"/>
</g>
<!-- n_0_3_5&#45;&gt;n_0 -->
<g id="edge6" class="edge">
<title>n_0_3_5&#45;&gt;n_0</title>
<path fill="none" stroke="black" d="M170.23,-158.02C184.71,-146.98 202.8,-133.2 217.98,-121.63"/>
<polygon fill="black" stroke="black" points="219.97,-124.52 225.8,-115.68 215.73,-118.95 219.97,-124.52"/>
</g>
<!-- n_3 -->
<g id="node5" class="node">
<title>n_3</title>
<polygon fill="none" stroke="black" points="9,-5.38 9,-30.62 77,-30.62 77,-5.38 9,-5.38"/>
<text text-anchor="start" x="16" y="-16.07" font-family="Times New Roman,serif" font-weight="bold" font-size="9.00">Overweight II</text>
<polygon fill="none" stroke="black" points="8,-4.38 8,-31.62 78,-31.62 78,-4.38 8,-4.38"/>
</g>
<!-- n_3_5&#45;&gt;n_3 -->
<g id="edge4" class="edge">
<title>n_3_5&#45;&gt;n_3</title>
<path fill="none" stroke="black" d="M85.28,-79.29C78.33,-69.37 69.35,-56.57 61.46,-45.32"/>
<polygon fill="black" stroke="black" points="64.36,-43.36 55.75,-37.18 58.63,-47.38 64.36,-43.36"/>
</g>
<!-- n_5 -->
<g id="node6" class="node">
<title>n_5</title>
<polygon fill="none" stroke="black" points="124.5,-5.38 124.5,-30.62 177.5,-30.62 177.5,-5.38 124.5,-5.38"/>
<text text-anchor="start" x="131.5" y="-16.07" font-family="Times New Roman,serif" font-weight="bold" font-size="9.00">Obesity II</text>
<polygon fill="none" stroke="black" points="123.5,-4.38 123.5,-31.62 178.5,-31.62 178.5,-4.38 123.5,-4.38"/>
</g>
<!-- n_3_5&#45;&gt;n_5 -->
<g id="edge5" class="edge">
<title>n_3_5&#45;&gt;n_5</title>
<path fill="none" stroke="black" d="M108.72,-79.29C115.67,-69.37 124.65,-56.57 132.54,-45.32"/>
<polygon fill="black" stroke="black" points="135.37,-47.38 138.25,-37.18 129.64,-43.36 135.37,-47.38"/>
</g>
<!-- n_2_4 -->
<g id="node10" class="node">
<title>n_2_4</title>
<polygon fill="none" stroke="black" points="392.5,-166.38 392.5,-191.62 457.5,-191.62 457.5,-166.38 392.5,-166.38"/>
<text text-anchor="start" x="399.5" y="-177.07" font-family="Times New Roman,serif" font-weight="bold" font-size="9.00">Overweight I</text>
<polygon fill="none" stroke="black" points="457.5,-166.38 457.5,-191.62 507.5,-191.62 507.5,-166.38 457.5,-166.38"/>
<text text-anchor="start" x="464.5" y="-177.07" font-family="Times New Roman,serif" font-weight="bold" font-size="9.00">Obesity I</text>
<polygon fill="none" stroke="black" points="391.5,-165.38 391.5,-192.62 508.5,-192.62 508.5,-165.38 391.5,-165.38"/>
</g>
<!-- n_1_2_4&#45;&gt;n_2_4 -->
<g id="edge9" class="edge">
<title>n_1_2_4&#45;&gt;n_2_4</title>
<path fill="none" stroke="black" d="M457.73,-247.64C456.39,-235.91 454.67,-220.86 453.19,-207.94"/>
<polygon fill="black" stroke="black" points="456.71,-207.87 452.1,-198.34 449.75,-208.67 456.71,-207.87"/>
</g>
<!-- n_1 -->
<g id="node13" class="node">
<title>n_1</title>
<polygon fill="none" stroke="black" points="555,-166.38 555,-191.62 599,-191.62 599,-166.38 555,-166.38"/>
<text text-anchor="start" x="562" y="-177.07" font-family="Times New Roman,serif" font-weight="bold" font-size="9.00">Normal</text>
<polygon fill="none" stroke="black" points="554,-165.38 554,-192.62 600,-192.62 600,-165.38 554,-165.38"/>
</g>
<!-- n_1_2_4&#45;&gt;n_1 -->
<g id="edge12" class="edge">
<title>n_1_2_4&#45;&gt;n_1</title>
<path fill="none" stroke="black" d="M486.55,-247.64C504,-234.59 526.93,-217.45 545.33,-203.68"/>
<polygon fill="black" stroke="black" points="547.37,-206.53 553.28,-197.74 543.18,-200.92 547.37,-206.53"/>
</g>
<!-- n_2 -->
<g id="node11" class="node">
<title>n_2</title>
<polygon fill="none" stroke="black" points="378.5,-84.38 378.5,-109.62 443.5,-109.62 443.5,-84.38 378.5,-84.38"/>
<text text-anchor="start" x="385.5" y="-95.08" font-family="Times New Roman,serif" font-weight="bold" font-size="9.00">Overweight I</text>
<polygon fill="none" stroke="black" points="377.5,-83.38 377.5,-110.62 444.5,-110.62 444.5,-83.38 377.5,-83.38"/>
</g>
<!-- n_2_4&#45;&gt;n_2 -->
<g id="edge10" class="edge">
<title>n_2_4&#45;&gt;n_2</title>
<path fill="none" stroke="black" d="M441.73,-161.03C436.66,-150.64 430.06,-137.1 424.27,-125.23"/>
<polygon fill="black" stroke="black" points="427.45,-123.76 419.92,-116.3 421.16,-126.82 427.45,-123.76"/>
</g>
<!-- n_4 -->
<g id="node12" class="node">
<title>n_4</title>
<polygon fill="none" stroke="black" points="491,-84.38 491,-109.62 541,-109.62 541,-84.38 491,-84.38"/>
<text text-anchor="start" x="498" y="-95.08" font-family="Times New Roman,serif" font-weight="bold" font-size="9.00">Obesity I</text>
<polygon fill="none" stroke="black" points="490,-83.38 490,-110.62 542,-110.62 542,-83.38 490,-83.38"/>
</g>
<!-- n_2_4&#45;&gt;n_4 -->
<g id="edge11" class="edge">
<title>n_2_4&#45;&gt;n_4</title>
<path fill="none" stroke="black" d="M464,-161.03C472.92,-150.22 484.66,-135.99 494.73,-123.79"/>
<polygon fill="black" stroke="black" points="497.4,-126.05 501.06,-116.11 492,-121.6 497.4,-126.05"/>
</g>
</g>
</svg>
