<?xml version="1.0" encoding="UTF-8" standalone="no"?>
<!DOCTYPE svg PUBLIC "-//W3C//DTD SVG 1.1//EN"
 "http://www.w3.org/Graphics/SVG/1.1/DTD/svg11.dtd">
<!-- Generated by graphviz version 10.0.1 (20240210.2158)
 -->
<!-- Title: ND Pages: 1 -->
<svg width="568pt" height="423pt"
 viewBox="0.00 0.00 567.62 423.00" xmlns="http://www.w3.org/2000/svg" xmlns:xlink="http://www.w3.org/1999/xlink">
<g id="graph0" class="graph" transform="scale(1 1) rotate(0) translate(4 419)">
<title>ND</title>
<polygon fill="white" stroke="none" points="-4,4 -4,-419 563.62,-419 563.62,4 -4,4"/>
<!-- n_0_1_2_3_4_5_6 -->
<g id="node1" class="node">
<title>n_0_1_2_3_4_5_6</title>
<polygon fill="none" stroke="black" points="311,-342 311,-410 399.25,-410 399.25,-342 311,-342"/>
<text text-anchor="start" x="318" y="-395.45" font-family="Times New Roman,serif" font-weight="bold" font-size="9.00">Insufficient weight</text>
<text text-anchor="start" x="329.62" y="-386.45" font-family="Times New Roman,serif" font-weight="bold" font-size="9.00">Overweight I</text>
<text text-anchor="start" x="328.12" y="-377.45" font-family="Times New Roman,serif" font-weight="bold" font-size="9.00">Overweight II</text>
<text text-anchor="start" x="337.12" y="-368.45" font-family="Times New Roman,serif" font-weight="bold" font-size="9.00">Obesity I</text>
<text text-anchor="start" x="335.62" y="-359.45" font-family="Times New Roman,serif" font-weight="bold" font-size="9.00">Obesity II</text>
<text text-anchor="start" x="334.12" y="-350.45" font-family="Times New Roman,serif" font-weight="bold" font-size="9.00">Obesity III</text>
<polygon fill="none" stroke="black" points="399.25,-342 399.25,-410 443.25,-410 443.25,-342 399.25,-342"/>
<text text-anchor="start" x="406.25" y="-374.07" font-family="Times New Roman,serif" font-weight="bold" font-size="9.00">Normal</text>
<polygon fill="none" stroke="black" points="310,-341 310,-411 444.25,-411 444.25,-341 310,-341"/>
</g>
<!-- n_0_2_3_4_5_6 -->
<g id="node2" class="node">
<title>n_0_2_3_4_5_6</title>
<polygon fill="none" stroke="black" points="226,-248 226,-289 314.25,-289 314.25,-248 226,-248"/>
<text text-anchor="start" x="233" y="-274.45" font-family="Times New Roman,serif" font-weight="bold" font-size="9.00">Insufficient weight</text>
<text text-anchor="start" x="252.12" y="-265.45" font-family="Times New Roman,serif" font-weight="bold" font-size="9.00">Obesity I</text>
<text text-anchor="start" x="249.12" y="-256.45" font-family="Times New Roman,serif" font-weight="bold" font-size="9.00">Obesity III</text>
<polygon fill="none" stroke="black" points="314.25,-248 314.25,-289 382.25,-289 382.25,-248 314.25,-248"/>
<text text-anchor="start" x="322.75" y="-274.45" font-family="Times New Roman,serif" font-weight="bold" font-size="9.00">Overweight I</text>
<text text-anchor="start" x="321.25" y="-265.45" font-family="Times New Roman,serif" font-weight="bold" font-size="9.00">Overweight II</text>
<text text-anchor="start" x="328.75" y="-256.45" font-family="Times New Roman,serif" font-weight="bold" font-size="9.00">Obesity II</text>
<polygon fill="none" stroke="black" points="225,-247 225,-290 383.25,-290 383.25,-247 225,-247"/>
</g>
<!-- n_0_1_2_3_4_5_6&#45;&gt;n_0_2_3_4_5_6 -->
<g id="edge1" class="edge">
<title>n_0_1_2_3_4_5_6&#45;&gt;n_0_2_3_4_5_6</title>
<path fill="none" stroke="black" d="M350.98,-337.21C343.26,-326.05 334.86,-313.92 327.34,-303.05"/>
<polygon fill="black" stroke="black" points="330.42,-301.35 321.85,-295.12 324.66,-305.34 330.42,-301.35"/>
</g>
<!-- n_1 -->
<g id="node13" class="node">
<title>n_1</title>
<polygon fill="none" stroke="black" points="429.12,-255.88 429.12,-281.12 473.12,-281.12 473.12,-255.88 429.12,-255.88"/>
<text text-anchor="start" x="436.12" y="-266.57" font-family="Times New Roman,serif" font-weight="bold" font-size="9.00">Normal</text>
<polygon fill="none" stroke="black" points="428.12,-254.88 428.12,-282.12 474.12,-282.12 474.12,-254.88 428.12,-254.88"/>
</g>
<!-- n_0_1_2_3_4_5_6&#45;&gt;n_1 -->
<g id="edge12" class="edge">
<title>n_0_1_2_3_4_5_6&#45;&gt;n_1</title>
<path fill="none" stroke="black" d="M403.63,-337.21C413.25,-323.49 423.91,-308.31 432.68,-295.8"/>
<polygon fill="black" stroke="black" points="435.51,-297.85 438.39,-287.66 429.78,-293.83 435.51,-297.85"/>
</g>
<!-- n_0_4_6 -->
<g id="node3" class="node">
<title>n_0_4_6</title>
<polygon fill="none" stroke="black" points="147,-163 147,-195 235.25,-195 235.25,-163 147,-163"/>
<text text-anchor="start" x="154" y="-180.45" font-family="Times New Roman,serif" font-weight="bold" font-size="9.00">Insufficient weight</text>
<text text-anchor="start" x="170.12" y="-171.45" font-family="Times New Roman,serif" font-weight="bold" font-size="9.00">Obesity III</text>
<polygon fill="none" stroke="black" points="235.25,-163 235.25,-195 285.25,-195 285.25,-163 235.25,-163"/>
<text text-anchor="start" x="242.25" y="-177.07" font-family="Times New Roman,serif" font-weight="bold" font-size="9.00">Obesity I</text>
<polygon fill="none" stroke="black" points="146,-162 146,-196 286.25,-196 286.25,-162 146,-162"/>
</g>
<!-- n_0_2_3_4_5_6&#45;&gt;n_0_4_6 -->
<g id="edge2" class="edge">
<title>n_0_2_3_4_5_6&#45;&gt;n_0_4_6</title>
<path fill="none" stroke="black" d="M279.61,-243.13C268.56,-232.14 255.46,-219.11 244.03,-207.75"/>
<polygon fill="black" stroke="black" points="246.7,-205.46 237.14,-200.89 241.76,-210.43 246.7,-205.46"/>
</g>
<!-- n_2_3_5 -->
<g id="node8" class="node">
<title>n_2_3_5</title>
<polygon fill="none" stroke="black" points="332.62,-163 332.62,-195 400.62,-195 400.62,-163 332.62,-163"/>
<text text-anchor="start" x="341.12" y="-180.45" font-family="Times New Roman,serif" font-weight="bold" font-size="9.00">Overweight I</text>
<text text-anchor="start" x="339.62" y="-171.45" font-family="Times New Roman,serif" font-weight="bold" font-size="9.00">Overweight II</text>
<polygon fill="none" stroke="black" points="400.62,-163 400.62,-195 453.62,-195 453.62,-163 400.62,-163"/>
<text text-anchor="start" x="407.62" y="-177.07" font-family="Times New Roman,serif" font-weight="bold" font-size="9.00">Obesity II</text>
<polygon fill="none" stroke="black" points="331.62,-162 331.62,-196 454.62,-196 454.62,-162 331.62,-162"/>
</g>
<!-- n_0_2_3_4_5_6&#45;&gt;n_2_3_5 -->
<g id="edge7" class="edge">
<title>n_0_2_3_4_5_6&#45;&gt;n_2_3_5</title>
<path fill="none" stroke="black" d="M328.92,-243.13C340.09,-232.14 353.34,-219.11 364.9,-207.75"/>
<polygon fill="black" stroke="black" points="367.2,-210.39 371.88,-200.89 362.3,-205.4 367.2,-210.39"/>
</g>
<!-- n_0_6 -->
<g id="node4" class="node">
<title>n_0_6</title>
<polygon fill="none" stroke="black" points="10,-84.38 10,-109.62 98.25,-109.62 98.25,-84.38 10,-84.38"/>
<text text-anchor="start" x="17" y="-95.08" font-family="Times New Roman,serif" font-weight="bold" font-size="9.00">Insufficient weight</text>
<polygon fill="none" stroke="black" points="98.25,-84.38 98.25,-109.62 154.25,-109.62 154.25,-84.38 98.25,-84.38"/>
<text text-anchor="start" x="105.25" y="-95.08" font-family="Times New Roman,serif" font-weight="bold" font-size="9.00">Obesity III</text>
<polygon fill="none" stroke="black" points="9,-83.38 9,-110.62 155.25,-110.62 155.25,-83.38 9,-83.38"/>
</g>
<!-- n_0_4_6&#45;&gt;n_0_6 -->
<g id="edge3" class="edge">
<title>n_0_4_6&#45;&gt;n_0_6</title>
<path fill="none" stroke="black" d="M182.66,-158.02C163.65,-146.67 139.78,-132.42 120.07,-120.66"/>
<polygon fill="black" stroke="black" points="121.88,-117.66 111.49,-115.53 118.29,-123.67 121.88,-117.66"/>
</g>
<!-- n_4 -->
<g id="node7" class="node">
<title>n_4</title>
<polygon fill="none" stroke="black" points="201.12,-84.38 201.12,-109.62 251.12,-109.62 251.12,-84.38 201.12,-84.38"/>
<text text-anchor="start" x="208.12" y="-95.08" font-family="Times New Roman,serif" font-weight="bold" font-size="9.00">Obesity I</text>
<polygon fill="none" stroke="black" points="200.12,-83.38 200.12,-110.62 252.12,-110.62 252.12,-83.38 200.12,-83.38"/>
</g>
<!-- n_0_4_6&#45;&gt;n_4 -->
<g id="edge6" class="edge">
<title>n_0_4_6&#45;&gt;n_4</title>
<path fill="none" stroke="black" d="M218.6,-158.22C219.81,-148.54 221.29,-136.72 222.61,-126.11"/>
<polygon fill="black" stroke="black" points="226.06,-126.7 223.83,-116.35 219.12,-125.83 226.06,-126.7"/>
</g>
<!-- n_0 -->
<g id="node5" class="node">
<title>n_0</title>
<polygon fill="none" stroke="black" points="9,-5.38 9,-30.62 97.25,-30.62 97.25,-5.38 9,-5.38"/>
<text text-anchor="start" x="16" y="-16.07" font-family="Times New Roman,serif" font-weight="bold" font-size="9.00">Insufficient weight</text>
<polygon fill="none" stroke="black" points="8,-4.38 8,-31.62 98.25,-31.62 98.25,-4.38 8,-4.38"/>
</g>
<!-- n_0_6&#45;&gt;n_0 -->
<g id="edge4" class="edge">
<title>n_0_6&#45;&gt;n_0</title>
<path fill="none" stroke="black" d="M75.83,-79.29C72.25,-69.77 67.66,-57.6 63.55,-46.69"/>
<polygon fill="black" stroke="black" points="66.84,-45.48 60.04,-37.36 60.29,-47.95 66.84,-45.48"/>
</g>
<!-- n_6 -->
<g id="node6" class="node">
<title>n_6</title>
<polygon fill="none" stroke="black" points="144.12,-5.38 144.12,-30.62 200.12,-30.62 200.12,-5.38 144.12,-5.38"/>
<text text-anchor="start" x="151.12" y="-16.07" font-family="Times New Roman,serif" font-weight="bold" font-size="9.00">Obesity III</text>
<polygon fill="none" stroke="black" points="143.12,-4.38 143.12,-31.62 201.12,-31.62 201.12,-4.38 143.12,-4.38"/>
</g>
<!-- n_0_6&#45;&gt;n_6 -->
<g id="edge5" class="edge">
<title>n_0_6&#45;&gt;n_6</title>
<path fill="none" stroke="black" d="M101.65,-79.29C113.95,-68.77 130.04,-55.01 143.73,-43.29"/>
<polygon fill="black" stroke="black" points="145.85,-46.09 151.17,-36.93 141.3,-40.77 145.85,-46.09"/>
</g>
<!-- n_2_3 -->
<g id="node9" class="node">
<title>n_2_3</title>
<polygon fill="none" stroke="black" points="317.62,-84.38 317.62,-109.62 382.62,-109.62 382.62,-84.38 317.62,-84.38"/>
<text text-anchor="start" x="324.62" y="-95.08" font-family="Times New Roman,serif" font-weight="bold" font-size="9.00">Overweight I</text>
<polygon fill="none" stroke="black" points="382.62,-84.38 382.62,-109.62 450.62,-109.62 450.62,-84.38 382.62,-84.38"/>
<text text-anchor="start" x="389.62" y="-95.08" font-family="Times New Roman,serif" font-weight="bold" font-size="9.00">Overweight II</text>
<polygon fill="none" stroke="black" points="316.62,-83.38 316.62,-110.62 451.62,-110.62 451.62,-83.38 316.62,-83.38"/>
</g>
<!-- n_2_3_5&#45;&gt;n_2_3 -->
<g id="edge8" class="edge">
<title>n_2_3_5&#45;&gt;n_2_3</title>
<path fill="none" stroke="black" d="M390.9,-158.22C389.81,-148.54 388.48,-136.72 387.29,-126.11"/>
<polygon fill="black" stroke="black" points="390.79,-125.89 386.19,-116.35 383.83,-126.68 390.79,-125.89"/>
</g>
<!-- n_5 -->
<g id="node12" class="node">
<title>n_5</title>
<polygon fill="none" stroke="black" points="497.62,-84.38 497.62,-109.62 550.62,-109.62 550.62,-84.38 497.62,-84.38"/>
<text text-anchor="start" x="504.62" y="-95.08" font-family="Times New Roman,serif" font-weight="bold" font-size="9.00">Obesity II</text>
<polygon fill="none" stroke="black" points="496.62,-83.38 496.62,-110.62 551.62,-110.62 551.62,-83.38 496.62,-83.38"/>
</g>
<!-- n_2_3_5&#45;&gt;n_5 -->
<g id="edge11" class="edge">
<title>n_2_3_5&#45;&gt;n_5</title>
<path fill="none" stroke="black" d="M425.84,-158.02C444.43,-146.67 467.76,-132.42 487.03,-120.66"/>
<polygon fill="black" stroke="black" points="488.68,-123.75 495.39,-115.55 485.03,-117.77 488.68,-123.75"/>
</g>
<!-- n_2 -->
<g id="node10" class="node">
<title>n_2</title>
<polygon fill="none" stroke="black" points="289.62,-5.38 289.62,-30.62 354.62,-30.62 354.62,-5.38 289.62,-5.38"/>
<text text-anchor="start" x="296.62" y="-16.07" font-family="Times New Roman,serif" font-weight="bold" font-size="9.00">Overweight I</text>
<polygon fill="none" stroke="black" points="288.62,-4.38 288.62,-31.62 355.62,-31.62 355.62,-4.38 288.62,-4.38"/>
</g>
<!-- n_2_3&#45;&gt;n_2 -->
<g id="edge9" class="edge">
<title>n_2_3&#45;&gt;n_2</title>
<path fill="none" stroke="black" d="M370.67,-79.29C362.52,-69.17 351.96,-56.05 342.77,-44.64"/>
<polygon fill="black" stroke="black" points="345.71,-42.71 336.72,-37.12 340.26,-47.1 345.71,-42.71"/>
</g>
<!-- n_3 -->
<g id="node11" class="node">
<title>n_3</title>
<polygon fill="none" stroke="black" points="402.12,-5.38 402.12,-30.62 470.12,-30.62 470.12,-5.38 402.12,-5.38"/>
<text text-anchor="start" x="409.12" y="-16.07" font-family="Times New Roman,serif" font-weight="bold" font-size="9.00">Overweight II</text>
<polygon fill="none" stroke="black" points="401.12,-4.38 401.12,-31.62 471.12,-31.62 471.12,-4.38 401.12,-4.38"/>
</g>
<!-- n_2_3&#45;&gt;n_3 -->
<g id="edge10" class="edge">
<title>n_2_3&#45;&gt;n_3</title>
<path fill="none" stroke="black" d="M395.41,-79.29C402.11,-69.37 410.75,-56.57 418.35,-45.32"/>
<polygon fill="black" stroke="black" points="421.14,-47.44 423.84,-37.2 415.34,-43.52 421.14,-47.44"/>
</g>
</g>
</svg>
