<?xml version="1.0" encoding="UTF-8" standalone="no"?>
<!DOCTYPE svg PUBLIC "-//W3C//DTD SVG 1.1//EN"
 "http://www.w3.org/Graphics/SVG/1.1/DTD/svg11.dtd">
<!-- Generated by graphviz version 10.0.1 (20240210.2158)
 -->
<!-- Title: ND Pages: 1 -->
<svg width="578pt" height="638pt"
 viewBox="0.00 0.00 578.00 638.00" xmlns="http://www.w3.org/2000/svg" xmlns:xlink="http://www.w3.org/1999/xlink">
<g id="graph0" class="graph" transform="scale(1 1) rotate(0) translate(4 634)">
<title>ND</title>
<polygon fill="white" stroke="none" points="-4,4 -4,-634 574,-634 574,4 -4,4"/>
<!-- n_0_1_2_3_4_5_6 -->
<g id="node1" class="node">
<title>n_0_1_2_3_4_5_6</title>
<polygon fill="none" stroke="black" points="393.88,-557 393.88,-625 482.12,-625 482.12,-557 393.88,-557"/>
<text text-anchor="start" x="400.88" y="-610.45" font-family="Times New Roman,serif" font-weight="bold" font-size="9.00">Insufficient weight</text>
<text text-anchor="start" x="423" y="-601.45" font-family="Times New Roman,serif" font-weight="bold" font-size="9.00">Normal</text>
<text text-anchor="start" x="412.5" y="-592.45" font-family="Times New Roman,serif" font-weight="bold" font-size="9.00">Overweight I</text>
<text text-anchor="start" x="411" y="-583.45" font-family="Times New Roman,serif" font-weight="bold" font-size="9.00">Overweight II</text>
<text text-anchor="start" x="420" y="-574.45" font-family="Times New Roman,serif" font-weight="bold" font-size="9.00">Obesity I</text>
<text text-anchor="start" x="417" y="-565.45" font-family="Times New Roman,serif" font-weight="bold" font-size="9.00">Obesity III</text>
<polygon fill="none" stroke="black" points="482.12,-557 482.12,-625 535.12,-625 535.12,-557 482.12,-557"/>
<text text-anchor="start" x="489.12" y="-589.08" font-family="Times New Roman,serif" font-weight="bold" font-size="9.00">Obesity II</text>
<polygon fill="none" stroke="black" points="392.88,-556 392.88,-626 536.12,-626 536.12,-556 392.88,-556"/>
</g>
<!-- n_0_1_2_3_4_6 -->
<g id="node2" class="node">
<title>n_0_1_2_3_4_6</title>
<polygon fill="none" stroke="black" points="328.38,-445 328.38,-504 416.62,-504 416.62,-445 328.38,-445"/>
<text text-anchor="start" x="335.38" y="-489.45" font-family="Times New Roman,serif" font-weight="bold" font-size="9.00">Insufficient weight</text>
<text text-anchor="start" x="347" y="-480.45" font-family="Times New Roman,serif" font-weight="bold" font-size="9.00">Overweight I</text>
<text text-anchor="start" x="345.5" y="-471.45" font-family="Times New Roman,serif" font-weight="bold" font-size="9.00">Overweight II</text>
<text text-anchor="start" x="354.5" y="-462.45" font-family="Times New Roman,serif" font-weight="bold" font-size="9.00">Obesity I</text>
<text text-anchor="start" x="351.5" y="-453.45" font-family="Times New Roman,serif" font-weight="bold" font-size="9.00">Obesity III</text>
<polygon fill="none" stroke="black" points="416.62,-445 416.62,-504 460.62,-504 460.62,-445 416.62,-445"/>
<text text-anchor="start" x="423.62" y="-472.57" font-family="Times New Roman,serif" font-weight="bold" font-size="9.00">Normal</text>
<polygon fill="none" stroke="black" points="327.38,-444 327.38,-505 461.62,-505 461.62,-444 327.38,-444"/>
</g>
<!-- n_0_1_2_3_4_5_6&#45;&gt;n_0_1_2_3_4_6 -->
<g id="edge1" class="edge">
<title>n_0_1_2_3_4_5_6&#45;&gt;n_0_1_2_3_4_6</title>
<path fill="none" stroke="black" d="M441.39,-552.19C434.73,-541.31 427.43,-529.36 420.61,-518.21"/>
<polygon fill="black" stroke="black" points="423.76,-516.65 415.56,-509.94 417.79,-520.3 423.76,-516.65"/>
</g>
<!-- n_5 -->
<g id="node13" class="node">
<title>n_5</title>
<polygon fill="none" stroke="black" points="508,-461.88 508,-487.12 561,-487.12 561,-461.88 508,-461.88"/>
<text text-anchor="start" x="515" y="-472.57" font-family="Times New Roman,serif" font-weight="bold" font-size="9.00">Obesity II</text>
<polygon fill="none" stroke="black" points="507,-460.88 507,-488.12 562,-488.12 562,-460.88 507,-460.88"/>
</g>
<!-- n_0_1_2_3_4_5_6&#45;&gt;n_5 -->
<g id="edge12" class="edge">
<title>n_0_1_2_3_4_5_6&#45;&gt;n_5</title>
<path fill="none" stroke="black" d="M487.61,-552.19C497.65,-535.78 509.15,-516.96 518.26,-502.07"/>
<polygon fill="black" stroke="black" points="521.11,-504.11 523.34,-493.75 515.14,-500.46 521.11,-504.11"/>
</g>
<!-- n_0_2_3_4_6 -->
<g id="node3" class="node">
<title>n_0_2_3_4_6</title>
<polygon fill="none" stroke="black" points="256.38,-342 256.38,-392 344.62,-392 344.62,-342 256.38,-342"/>
<text text-anchor="start" x="263.38" y="-377.45" font-family="Times New Roman,serif" font-weight="bold" font-size="9.00">Insufficient weight</text>
<text text-anchor="start" x="275" y="-368.45" font-family="Times New Roman,serif" font-weight="bold" font-size="9.00">Overweight I</text>
<text text-anchor="start" x="273.5" y="-359.45" font-family="Times New Roman,serif" font-weight="bold" font-size="9.00">Overweight II</text>
<text text-anchor="start" x="279.5" y="-350.45" font-family="Times New Roman,serif" font-weight="bold" font-size="9.00">Obesity III</text>
<polygon fill="none" stroke="black" points="344.62,-342 344.62,-392 394.62,-392 394.62,-342 344.62,-342"/>
<text text-anchor="start" x="351.62" y="-365.07" font-family="Times New Roman,serif" font-weight="bold" font-size="9.00">Obesity I</text>
<polygon fill="none" stroke="black" points="255.38,-341 255.38,-393 395.62,-393 395.62,-341 255.38,-341"/>
</g>
<!-- n_0_1_2_3_4_6&#45;&gt;n_0_2_3_4_6 -->
<g id="edge2" class="edge">
<title>n_0_1_2_3_4_6&#45;&gt;n_0_2_3_4_6</title>
<path fill="none" stroke="black" d="M372.67,-440.12C365.64,-429.38 357.81,-417.4 350.57,-406.33"/>
<polygon fill="black" stroke="black" points="353.63,-404.62 345.23,-398.16 347.77,-408.45 353.63,-404.62"/>
</g>
<!-- n_1 -->
<g id="node12" class="node">
<title>n_1</title>
<polygon fill="none" stroke="black" points="441.5,-354.38 441.5,-379.62 485.5,-379.62 485.5,-354.38 441.5,-354.38"/>
<text text-anchor="start" x="448.5" y="-365.07" font-family="Times New Roman,serif" font-weight="bold" font-size="9.00">Normal</text>
<polygon fill="none" stroke="black" points="440.5,-353.38 440.5,-380.62 486.5,-380.62 486.5,-353.38 440.5,-353.38"/>
</g>
<!-- n_0_1_2_3_4_6&#45;&gt;n_1 -->
<g id="edge11" class="edge">
<title>n_0_1_2_3_4_6&#45;&gt;n_1</title>
<path fill="none" stroke="black" d="M416.33,-440.12C425.99,-425.35 437.19,-408.23 446.25,-394.38"/>
<polygon fill="black" stroke="black" points="449.04,-396.5 451.59,-386.22 443.18,-392.67 449.04,-396.5"/>
</g>
<!-- n_0_2_3_6 -->
<g id="node4" class="node">
<title>n_0_2_3_6</title>
<polygon fill="none" stroke="black" points="172.38,-248 172.38,-289 260.62,-289 260.62,-248 172.38,-248"/>
<text text-anchor="start" x="179.38" y="-274.45" font-family="Times New Roman,serif" font-weight="bold" font-size="9.00">Insufficient weight</text>
<text text-anchor="start" x="191" y="-265.45" font-family="Times New Roman,serif" font-weight="bold" font-size="9.00">Overweight I</text>
<text text-anchor="start" x="195.5" y="-256.45" font-family="Times New Roman,serif" font-weight="bold" font-size="9.00">Obesity III</text>
<polygon fill="none" stroke="black" points="260.62,-248 260.62,-289 328.62,-289 328.62,-248 260.62,-248"/>
<text text-anchor="start" x="267.62" y="-266.57" font-family="Times New Roman,serif" font-weight="bold" font-size="9.00">Overweight II</text>
<polygon fill="none" stroke="black" points="171.38,-247 171.38,-290 329.62,-290 329.62,-247 171.38,-247"/>
</g>
<!-- n_0_2_3_4_6&#45;&gt;n_0_2_3_6 -->
<g id="edge3" class="edge">
<title>n_0_2_3_4_6&#45;&gt;n_0_2_3_6</title>
<path fill="none" stroke="black" d="M303,-337.05C294.64,-326.29 285.09,-314 276.44,-302.88"/>
<polygon fill="black" stroke="black" points="279.27,-300.82 270.37,-295.07 273.75,-305.11 279.27,-300.82"/>
</g>
<!-- n_4 -->
<g id="node11" class="node">
<title>n_4</title>
<polygon fill="none" stroke="black" points="375.5,-255.88 375.5,-281.12 425.5,-281.12 425.5,-255.88 375.5,-255.88"/>
<text text-anchor="start" x="382.5" y="-266.57" font-family="Times New Roman,serif" font-weight="bold" font-size="9.00">Obesity I</text>
<polygon fill="none" stroke="black" points="374.5,-254.88 374.5,-282.12 426.5,-282.12 426.5,-254.88 374.5,-254.88"/>
</g>
<!-- n_0_2_3_4_6&#45;&gt;n_4 -->
<g id="edge10" class="edge">
<title>n_0_2_3_4_6&#45;&gt;n_4</title>
<path fill="none" stroke="black" d="M348,-337.05C358.35,-323.73 370.52,-308.07 380.54,-295.19"/>
<polygon fill="black" stroke="black" points="383.09,-297.6 386.46,-287.56 377.56,-293.31 383.09,-297.6"/>
</g>
<!-- n_0_2_6 -->
<g id="node5" class="node">
<title>n_0_2_6</title>
<polygon fill="none" stroke="black" points="94.88,-163 94.88,-195 159.88,-195 159.88,-163 94.88,-163"/>
<text text-anchor="start" x="101.88" y="-180.45" font-family="Times New Roman,serif" font-weight="bold" font-size="9.00">Overweight I</text>
<text text-anchor="start" x="106.38" y="-171.45" font-family="Times New Roman,serif" font-weight="bold" font-size="9.00">Obesity III</text>
<polygon fill="none" stroke="black" points="159.88,-163 159.88,-195 248.12,-195 248.12,-163 159.88,-163"/>
<text text-anchor="start" x="166.88" y="-177.07" font-family="Times New Roman,serif" font-weight="bold" font-size="9.00">Insufficient weight</text>
<polygon fill="none" stroke="black" points="93.88,-162 93.88,-196 249.12,-196 249.12,-162 93.88,-162"/>
</g>
<!-- n_0_2_3_6&#45;&gt;n_0_2_6 -->
<g id="edge4" class="edge">
<title>n_0_2_3_6&#45;&gt;n_0_2_6</title>
<path fill="none" stroke="black" d="M228.49,-243.13C218.67,-232.25 207.04,-219.36 196.85,-208.08"/>
<polygon fill="black" stroke="black" points="199.71,-206.03 190.41,-200.95 194.52,-210.72 199.71,-206.03"/>
</g>
<!-- n_3 -->
<g id="node10" class="node">
<title>n_3</title>
<polygon fill="none" stroke="black" points="295.5,-166.38 295.5,-191.62 363.5,-191.62 363.5,-166.38 295.5,-166.38"/>
<text text-anchor="start" x="302.5" y="-177.07" font-family="Times New Roman,serif" font-weight="bold" font-size="9.00">Overweight II</text>
<polygon fill="none" stroke="black" points="294.5,-165.38 294.5,-192.62 364.5,-192.62 364.5,-165.38 294.5,-165.38"/>
</g>
<!-- n_0_2_3_6&#45;&gt;n_3 -->
<g id="edge9" class="edge">
<title>n_0_2_3_6&#45;&gt;n_3</title>
<path fill="none" stroke="black" d="M272.51,-243.13C283.23,-231.24 296.12,-216.97 306.92,-205.01"/>
<polygon fill="black" stroke="black" points="309.24,-207.66 313.34,-197.89 304.05,-202.97 309.24,-207.66"/>
</g>
<!-- n_2_6 -->
<g id="node6" class="node">
<title>n_2_6</title>
<polygon fill="none" stroke="black" points="35,-84.38 35,-109.62 100,-109.62 100,-84.38 35,-84.38"/>
<text text-anchor="start" x="42" y="-95.08" font-family="Times New Roman,serif" font-weight="bold" font-size="9.00">Overweight I</text>
<polygon fill="none" stroke="black" points="100,-84.38 100,-109.62 156,-109.62 156,-84.38 100,-84.38"/>
<text text-anchor="start" x="107" y="-95.08" font-family="Times New Roman,serif" font-weight="bold" font-size="9.00">Obesity III</text>
<polygon fill="none" stroke="black" points="34,-83.38 34,-110.62 157,-110.62 157,-83.38 34,-83.38"/>
</g>
<!-- n_0_2_6&#45;&gt;n_2_6 -->
<g id="edge5" class="edge">
<title>n_0_2_6&#45;&gt;n_2_6</title>
<path fill="none" stroke="black" d="M152.71,-158.22C142.63,-147.61 130.09,-134.41 119.32,-123.07"/>
<polygon fill="black" stroke="black" points="121.97,-120.78 112.54,-115.94 116.89,-125.6 121.97,-120.78"/>
</g>
<!-- n_0 -->
<g id="node9" class="node">
<title>n_0</title>
<polygon fill="none" stroke="black" points="203.38,-84.38 203.38,-109.62 291.62,-109.62 291.62,-84.38 203.38,-84.38"/>
<text text-anchor="start" x="210.38" y="-95.08" font-family="Times New Roman,serif" font-weight="bold" font-size="9.00">Insufficient weight</text>
<polygon fill="none" stroke="black" points="202.38,-83.38 202.38,-110.62 292.62,-110.62 292.62,-83.38 202.38,-83.38"/>
</g>
<!-- n_0_2_6&#45;&gt;n_0 -->
<g id="edge8" class="edge">
<title>n_0_2_6&#45;&gt;n_0</title>
<path fill="none" stroke="black" d="M190.29,-158.22C200.37,-147.61 212.91,-134.41 223.68,-123.07"/>
<polygon fill="black" stroke="black" points="226.11,-125.6 230.46,-115.94 221.03,-120.78 226.11,-125.6"/>
</g>
<!-- n_2 -->
<g id="node7" class="node">
<title>n_2</title>
<polygon fill="none" stroke="black" points="9,-5.38 9,-30.62 74,-30.62 74,-5.38 9,-5.38"/>
<text text-anchor="start" x="16" y="-16.07" font-family="Times New Roman,serif" font-weight="bold" font-size="9.00">Overweight I</text>
<polygon fill="none" stroke="black" points="8,-4.38 8,-31.62 75,-31.62 75,-4.38 8,-4.38"/>
</g>
<!-- n_2_6&#45;&gt;n_2 -->
<g id="edge6" class="edge">
<title>n_2_6&#45;&gt;n_2</title>
<path fill="none" stroke="black" d="M83.78,-79.29C76.83,-69.37 67.85,-56.57 59.96,-45.32"/>
<polygon fill="black" stroke="black" points="62.86,-43.36 54.25,-37.18 57.13,-47.38 62.86,-43.36"/>
</g>
<!-- n_6 -->
<g id="node8" class="node">
<title>n_6</title>
<polygon fill="none" stroke="black" points="121.5,-5.38 121.5,-30.62 177.5,-30.62 177.5,-5.38 121.5,-5.38"/>
<text text-anchor="start" x="128.5" y="-16.07" font-family="Times New Roman,serif" font-weight="bold" font-size="9.00">Obesity III</text>
<polygon fill="none" stroke="black" points="120.5,-4.38 120.5,-31.62 178.5,-31.62 178.5,-4.38 120.5,-4.38"/>
</g>
<!-- n_2_6&#45;&gt;n_6 -->
<g id="edge7" class="edge">
<title>n_2_6&#45;&gt;n_6</title>
<path fill="none" stroke="black" d="M107.22,-79.29C114.17,-69.37 123.15,-56.57 131.04,-45.32"/>
<polygon fill="black" stroke="black" points="133.87,-47.38 136.75,-37.18 128.14,-43.36 133.87,-47.38"/>
</g>
</g>
</svg>
