<?xml version="1.0" encoding="UTF-8" standalone="no"?>
<!DOCTYPE svg PUBLIC "-//W3C//DTD SVG 1.1//EN"
 "http://www.w3.org/Graphics/SVG/1.1/DTD/svg11.dtd">
<!-- Generated by graphviz version 10.0.1 (20240210.2158)
 -->
<!-- Title: ND Pages: 1 -->
<svg width="561pt" height="423pt"
 viewBox="0.00 0.00 560.62 423.00" xmlns="http://www.w3.org/2000/svg" xmlns:xlink="http://www.w3.org/1999/xlink">
<g id="graph0" class="graph" transform="scale(1 1) rotate(0) translate(4 419)">
<title>ND</title>
<polygon fill="white" stroke="none" points="-4,4 -4,-419 556.62,-419 556.62,4 -4,4"/>
<!-- n_0_1_2_3_4_5_6 -->
<g id="node1" class="node">
<title>n_0_1_2_3_4_5_6</title>
<polygon fill="none" stroke="black" points="311,-342 311,-410 399.25,-410 399.25,-342 311,-342"/>
<text text-anchor="start" x="318" y="-395.45" font-family="Times New Roman,serif" font-weight="bold" font-size="9.00">Insufficient weight</text>
<text text-anchor="start" x="340.12" y="-386.45" font-family="Times New Roman,serif" font-weight="bold" font-size="9.00">Normal</text>
<text text-anchor="start" x="329.62" y="-377.45" font-family="Times New Roman,serif" font-weight="bold" font-size="9.00">Overweight I</text>
<text text-anchor="start" x="328.12" y="-368.45" font-family="Times New Roman,serif" font-weight="bold" font-size="9.00">Overweight II</text>
<text text-anchor="start" x="337.12" y="-359.45" font-family="Times New Roman,serif" font-weight="bold" font-size="9.00">Obesity I</text>
<text text-anchor="start" x="335.62" y="-350.45" font-family="Times New Roman,serif" font-weight="bold" font-size="9.00">Obesity II</text>
<polygon fill="none" stroke="black" points="399.25,-342 399.25,-410 455.25,-410 455.25,-342 399.25,-342"/>
<text text-anchor="start" x="406.25" y="-374.07" font-family="Times New Roman,serif" font-weight="bold" font-size="9.00">Obesity III</text>
<polygon fill="none" stroke="black" points="310,-341 310,-411 456.25,-411 456.25,-341 310,-341"/>
</g>
<!-- n_0_1_2_3_4_5 -->
<g id="node2" class="node">
<title>n_0_1_2_3_4_5</title>
<polygon fill="none" stroke="black" points="230.5,-248 230.5,-289 318.75,-289 318.75,-248 230.5,-248"/>
<text text-anchor="start" x="237.5" y="-274.45" font-family="Times New Roman,serif" font-weight="bold" font-size="9.00">Insufficient weight</text>
<text text-anchor="start" x="259.62" y="-265.45" font-family="Times New Roman,serif" font-weight="bold" font-size="9.00">Normal</text>
<text text-anchor="start" x="247.62" y="-256.45" font-family="Times New Roman,serif" font-weight="bold" font-size="9.00">Overweight II</text>
<polygon fill="none" stroke="black" points="318.75,-248 318.75,-289 383.75,-289 383.75,-248 318.75,-248"/>
<text text-anchor="start" x="325.75" y="-274.45" font-family="Times New Roman,serif" font-weight="bold" font-size="9.00">Overweight I</text>
<text text-anchor="start" x="333.25" y="-265.45" font-family="Times New Roman,serif" font-weight="bold" font-size="9.00">Obesity I</text>
<text text-anchor="start" x="331.75" y="-256.45" font-family="Times New Roman,serif" font-weight="bold" font-size="9.00">Obesity II</text>
<polygon fill="none" stroke="black" points="229.5,-247 229.5,-290 384.75,-290 384.75,-247 229.5,-247"/>
</g>
<!-- n_0_1_2_3_4_5_6&#45;&gt;n_0_1_2_3_4_5 -->
<g id="edge1" class="edge">
<title>n_0_1_2_3_4_5_6&#45;&gt;n_0_1_2_3_4_5</title>
<path fill="none" stroke="black" d="M355.9,-337.21C347.86,-326.05 339.12,-313.92 331.29,-303.05"/>
<polygon fill="black" stroke="black" points="334.25,-301.17 325.57,-295.1 328.57,-305.26 334.25,-301.17"/>
</g>
<!-- n_6 -->
<g id="node13" class="node">
<title>n_6</title>
<polygon fill="none" stroke="black" points="431.12,-255.88 431.12,-281.12 487.12,-281.12 487.12,-255.88 431.12,-255.88"/>
<text text-anchor="start" x="438.12" y="-266.57" font-family="Times New Roman,serif" font-weight="bold" font-size="9.00">Obesity III</text>
<polygon fill="none" stroke="black" points="430.12,-254.88 430.12,-282.12 488.12,-282.12 488.12,-254.88 430.12,-254.88"/>
</g>
<!-- n_0_1_2_3_4_5_6&#45;&gt;n_6 -->
<g id="edge12" class="edge">
<title>n_0_1_2_3_4_5_6&#45;&gt;n_6</title>
<path fill="none" stroke="black" d="M410.35,-337.21C420.33,-323.36 431.39,-308.01 440.45,-295.43"/>
<polygon fill="black" stroke="black" points="443.05,-297.81 446.05,-287.65 437.37,-293.71 443.05,-297.81"/>
</g>
<!-- n_0_1_3 -->
<g id="node3" class="node">
<title>n_0_1_3</title>
<polygon fill="none" stroke="black" points="155,-163 155,-195 243.25,-195 243.25,-163 155,-163"/>
<text text-anchor="start" x="162" y="-180.45" font-family="Times New Roman,serif" font-weight="bold" font-size="9.00">Insufficient weight</text>
<text text-anchor="start" x="172.12" y="-171.45" font-family="Times New Roman,serif" font-weight="bold" font-size="9.00">Overweight II</text>
<polygon fill="none" stroke="black" points="243.25,-163 243.25,-195 287.25,-195 287.25,-163 243.25,-163"/>
<text text-anchor="start" x="250.25" y="-177.07" font-family="Times New Roman,serif" font-weight="bold" font-size="9.00">Normal</text>
<polygon fill="none" stroke="black" points="154,-162 154,-196 288.25,-196 288.25,-162 154,-162"/>
</g>
<!-- n_0_1_2_3_4_5&#45;&gt;n_0_1_3 -->
<g id="edge2" class="edge">
<title>n_0_1_2_3_4_5&#45;&gt;n_0_1_3</title>
<path fill="none" stroke="black" d="M283.17,-243.13C272.37,-232.14 259.56,-219.11 248.4,-207.75"/>
<polygon fill="black" stroke="black" points="251.18,-205.58 241.67,-200.91 246.19,-210.49 251.18,-205.58"/>
</g>
<!-- n_2_4_5 -->
<g id="node8" class="node">
<title>n_2_4_5</title>
<polygon fill="none" stroke="black" points="334.12,-163 334.12,-195 387.12,-195 387.12,-163 334.12,-163"/>
<text text-anchor="start" x="342.62" y="-180.45" font-family="Times New Roman,serif" font-weight="bold" font-size="9.00">Obesity I</text>
<text text-anchor="start" x="341.12" y="-171.45" font-family="Times New Roman,serif" font-weight="bold" font-size="9.00">Obesity II</text>
<polygon fill="none" stroke="black" points="387.12,-163 387.12,-195 452.12,-195 452.12,-163 387.12,-163"/>
<text text-anchor="start" x="394.12" y="-177.07" font-family="Times New Roman,serif" font-weight="bold" font-size="9.00">Overweight I</text>
<polygon fill="none" stroke="black" points="333.12,-162 333.12,-196 453.12,-196 453.12,-162 333.12,-162"/>
</g>
<!-- n_0_1_2_3_4_5&#45;&gt;n_2_4_5 -->
<g id="edge7" class="edge">
<title>n_0_1_2_3_4_5&#45;&gt;n_2_4_5</title>
<path fill="none" stroke="black" d="M331.08,-243.13C341.88,-232.14 354.69,-219.11 365.85,-207.75"/>
<polygon fill="black" stroke="black" points="368.06,-210.49 372.58,-200.91 363.07,-205.58 368.06,-210.49"/>
</g>
<!-- n_0_3 -->
<g id="node4" class="node">
<title>n_0_3</title>
<polygon fill="none" stroke="black" points="9,-84.38 9,-109.62 97.25,-109.62 97.25,-84.38 9,-84.38"/>
<text text-anchor="start" x="16" y="-95.08" font-family="Times New Roman,serif" font-weight="bold" font-size="9.00">Insufficient weight</text>
<polygon fill="none" stroke="black" points="97.25,-84.38 97.25,-109.62 165.25,-109.62 165.25,-84.38 97.25,-84.38"/>
<text text-anchor="start" x="104.25" y="-95.08" font-family="Times New Roman,serif" font-weight="bold" font-size="9.00">Overweight II</text>
<polygon fill="none" stroke="black" points="8,-83.38 8,-110.62 166.25,-110.62 166.25,-83.38 8,-83.38"/>
</g>
<!-- n_0_1_3&#45;&gt;n_0_3 -->
<g id="edge3" class="edge">
<title>n_0_1_3&#45;&gt;n_0_3</title>
<path fill="none" stroke="black" d="M187.66,-158.02C168.65,-146.67 144.78,-132.42 125.07,-120.66"/>
<polygon fill="black" stroke="black" points="126.88,-117.66 116.49,-115.53 123.29,-123.67 126.88,-117.66"/>
</g>
<!-- n_1 -->
<g id="node7" class="node">
<title>n_1</title>
<polygon fill="none" stroke="black" points="212.12,-84.38 212.12,-109.62 256.12,-109.62 256.12,-84.38 212.12,-84.38"/>
<text text-anchor="start" x="219.12" y="-95.08" font-family="Times New Roman,serif" font-weight="bold" font-size="9.00">Normal</text>
<polygon fill="none" stroke="black" points="211.12,-83.38 211.12,-110.62 257.12,-110.62 257.12,-83.38 211.12,-83.38"/>
</g>
<!-- n_0_1_3&#45;&gt;n_1 -->
<g id="edge6" class="edge">
<title>n_0_1_3&#45;&gt;n_1</title>
<path fill="none" stroke="black" d="M224.34,-158.22C225.91,-148.54 227.83,-136.72 229.56,-126.11"/>
<polygon fill="black" stroke="black" points="233,-126.77 231.15,-116.34 226.09,-125.65 233,-126.77"/>
</g>
<!-- n_0 -->
<g id="node5" class="node">
<title>n_0</title>
<polygon fill="none" stroke="black" points="12,-5.38 12,-30.62 100.25,-30.62 100.25,-5.38 12,-5.38"/>
<text text-anchor="start" x="19" y="-16.07" font-family="Times New Roman,serif" font-weight="bold" font-size="9.00">Insufficient weight</text>
<polygon fill="none" stroke="black" points="11,-4.38 11,-31.62 101.25,-31.62 101.25,-4.38 11,-4.38"/>
</g>
<!-- n_0_3&#45;&gt;n_0 -->
<g id="edge4" class="edge">
<title>n_0_3&#45;&gt;n_0</title>
<path fill="none" stroke="black" d="M80.4,-79.29C76.53,-69.67 71.56,-57.34 67.13,-46.35"/>
<polygon fill="black" stroke="black" points="70.49,-45.31 63.51,-37.35 64,-47.93 70.49,-45.31"/>
</g>
<!-- n_3 -->
<g id="node6" class="node">
<title>n_3</title>
<polygon fill="none" stroke="black" points="147.12,-5.38 147.12,-30.62 215.12,-30.62 215.12,-5.38 147.12,-5.38"/>
<text text-anchor="start" x="154.12" y="-16.07" font-family="Times New Roman,serif" font-weight="bold" font-size="9.00">Overweight II</text>
<polygon fill="none" stroke="black" points="146.12,-4.38 146.12,-31.62 216.12,-31.62 216.12,-4.38 146.12,-4.38"/>
</g>
<!-- n_0_3&#45;&gt;n_3 -->
<g id="edge5" class="edge">
<title>n_0_3&#45;&gt;n_3</title>
<path fill="none" stroke="black" d="M107.52,-79.29C120.49,-68.67 137.49,-54.75 151.88,-42.96"/>
<polygon fill="black" stroke="black" points="153.75,-45.94 159.27,-36.9 149.32,-40.53 153.75,-45.94"/>
</g>
<!-- n_4_5 -->
<g id="node9" class="node">
<title>n_4_5</title>
<polygon fill="none" stroke="black" points="328.62,-84.38 328.62,-109.62 378.62,-109.62 378.62,-84.38 328.62,-84.38"/>
<text text-anchor="start" x="335.62" y="-95.08" font-family="Times New Roman,serif" font-weight="bold" font-size="9.00">Obesity I</text>
<polygon fill="none" stroke="black" points="378.62,-84.38 378.62,-109.62 431.62,-109.62 431.62,-84.38 378.62,-84.38"/>
<text text-anchor="start" x="385.62" y="-95.08" font-family="Times New Roman,serif" font-weight="bold" font-size="9.00">Obesity II</text>
<polygon fill="none" stroke="black" points="327.62,-83.38 327.62,-110.62 432.62,-110.62 432.62,-83.38 327.62,-83.38"/>
</g>
<!-- n_2_4_5&#45;&gt;n_4_5 -->
<g id="edge8" class="edge">
<title>n_2_4_5&#45;&gt;n_4_5</title>
<path fill="none" stroke="black" d="M389.91,-158.22C388.34,-148.54 386.42,-136.72 384.69,-126.11"/>
<polygon fill="black" stroke="black" points="388.16,-125.65 383.1,-116.34 381.25,-126.77 388.16,-125.65"/>
</g>
<!-- n_2 -->
<g id="node12" class="node">
<title>n_2</title>
<polygon fill="none" stroke="black" points="478.62,-84.38 478.62,-109.62 543.62,-109.62 543.62,-84.38 478.62,-84.38"/>
<text text-anchor="start" x="485.62" y="-95.08" font-family="Times New Roman,serif" font-weight="bold" font-size="9.00">Overweight I</text>
<polygon fill="none" stroke="black" points="477.62,-83.38 477.62,-110.62 544.62,-110.62 544.62,-83.38 477.62,-83.38"/>
</g>
<!-- n_2_4_5&#45;&gt;n_2 -->
<g id="edge11" class="edge">
<title>n_2_4_5&#45;&gt;n_2</title>
<path fill="none" stroke="black" d="M422.6,-158.02C439.18,-146.77 459.97,-132.68 477.23,-120.98"/>
<polygon fill="black" stroke="black" points="478.84,-124.12 485.15,-115.61 474.91,-118.32 478.84,-124.12"/>
</g>
<!-- n_4 -->
<g id="node10" class="node">
<title>n_4</title>
<polygon fill="none" stroke="black" points="296.12,-5.38 296.12,-30.62 346.12,-30.62 346.12,-5.38 296.12,-5.38"/>
<text text-anchor="start" x="303.12" y="-16.07" font-family="Times New Roman,serif" font-weight="bold" font-size="9.00">Obesity I</text>
<polygon fill="none" stroke="black" points="295.12,-4.38 295.12,-31.62 347.12,-31.62 347.12,-4.38 295.12,-4.38"/>
</g>
<!-- n_4_5&#45;&gt;n_4 -->
<g id="edge9" class="edge">
<title>n_4_5&#45;&gt;n_4</title>
<path fill="none" stroke="black" d="M367.32,-79.29C359.64,-69.27 349.72,-56.31 341.03,-44.98"/>
<polygon fill="black" stroke="black" points="343.89,-42.95 335.03,-37.14 338.33,-47.21 343.89,-42.95"/>
</g>
<!-- n_5 -->
<g id="node11" class="node">
<title>n_5</title>
<polygon fill="none" stroke="black" points="393.62,-5.38 393.62,-30.62 446.62,-30.62 446.62,-5.38 393.62,-5.38"/>
<text text-anchor="start" x="400.62" y="-16.07" font-family="Times New Roman,serif" font-weight="bold" font-size="9.00">Obesity II</text>
<polygon fill="none" stroke="black" points="392.62,-4.38 392.62,-31.62 447.62,-31.62 447.62,-4.38 392.62,-4.38"/>
</g>
<!-- n_4_5&#45;&gt;n_5 -->
<g id="edge10" class="edge">
<title>n_4_5&#45;&gt;n_5</title>
<path fill="none" stroke="black" d="M388.8,-79.29C393.85,-69.57 400.34,-57.09 406.1,-46"/>
<polygon fill="black" stroke="black" points="409.12,-47.77 410.63,-37.28 402.91,-44.54 409.12,-47.77"/>
</g>
</g>
</svg>
