<?xml version="1.0" encoding="UTF-8" standalone="no"?>
<!DOCTYPE svg PUBLIC "-//W3C//DTD SVG 1.1//EN"
 "http://www.w3.org/Graphics/SVG/1.1/DTD/svg11.dtd">
<!-- Generated by graphviz version 10.0.1 (20240210.2158)
 -->
<!-- Title: ND Pages: 1 -->
<svg width="626pt" height="526pt"
 viewBox="0.00 0.00 626.12 526.00" xmlns="http://www.w3.org/2000/svg" xmlns:xlink="http://www.w3.org/1999/xlink">
<g id="graph0" class="graph" transform="scale(1 1) rotate(0) translate(4 522)">
<title>ND</title>
<polygon fill="white" stroke="none" points="-4,4 -4,-522 622.12,-522 622.12,4 -4,4"/>
<!-- n_0_1_2_3_4_5_6 -->
<g id="node1" class="node">
<title>n_0_1_2_3_4_5_6</title>
<polygon fill="none" stroke="black" points="406,-445 406,-513 494.25,-513 494.25,-445 406,-445"/>
<text text-anchor="start" x="413" y="-498.45" font-family="Times New Roman,serif" font-weight="bold" font-size="9.00">Insufficient weight</text>
<text text-anchor="start" x="435.12" y="-489.45" font-family="Times New Roman,serif" font-weight="bold" font-size="9.00">Normal</text>
<text text-anchor="start" x="424.62" y="-480.45" font-family="Times New Roman,serif" font-weight="bold" font-size="9.00">Overweight I</text>
<text text-anchor="start" x="423.12" y="-471.45" font-family="Times New Roman,serif" font-weight="bold" font-size="9.00">Overweight II</text>
<text text-anchor="start" x="430.62" y="-462.45" font-family="Times New Roman,serif" font-weight="bold" font-size="9.00">Obesity II</text>
<text text-anchor="start" x="429.12" y="-453.45" font-family="Times New Roman,serif" font-weight="bold" font-size="9.00">Obesity III</text>
<polygon fill="none" stroke="black" points="494.25,-445 494.25,-513 544.25,-513 544.25,-445 494.25,-445"/>
<text text-anchor="start" x="501.25" y="-477.07" font-family="Times New Roman,serif" font-weight="bold" font-size="9.00">Obesity I</text>
<polygon fill="none" stroke="black" points="405,-444 405,-514 545.25,-514 545.25,-444 405,-444"/>
</g>
<!-- n_0_1_2_3_5_6 -->
<g id="node2" class="node">
<title>n_0_1_2_3_5_6</title>
<polygon fill="none" stroke="black" points="322,-342 322,-392 410.25,-392 410.25,-342 322,-342"/>
<text text-anchor="start" x="329" y="-377.45" font-family="Times New Roman,serif" font-weight="bold" font-size="9.00">Insufficient weight</text>
<text text-anchor="start" x="351.12" y="-368.45" font-family="Times New Roman,serif" font-weight="bold" font-size="9.00">Normal</text>
<text text-anchor="start" x="340.62" y="-359.45" font-family="Times New Roman,serif" font-weight="bold" font-size="9.00">Overweight I</text>
<text text-anchor="start" x="346.62" y="-350.45" font-family="Times New Roman,serif" font-weight="bold" font-size="9.00">Obesity II</text>
<polygon fill="none" stroke="black" points="410.25,-342 410.25,-392 478.25,-392 478.25,-342 410.25,-342"/>
<text text-anchor="start" x="417.25" y="-368.45" font-family="Times New Roman,serif" font-weight="bold" font-size="9.00">Overweight II</text>
<text text-anchor="start" x="423.25" y="-359.45" font-family="Times New Roman,serif" font-weight="bold" font-size="9.00">Obesity III</text>
<polygon fill="none" stroke="black" points="321,-341 321,-393 479.25,-393 479.25,-341 321,-341"/>
</g>
<!-- n_0_1_2_3_4_5_6&#45;&gt;n_0_1_2_3_5_6 -->
<g id="edge1" class="edge">
<title>n_0_1_2_3_4_5_6&#45;&gt;n_0_1_2_3_5_6</title>
<path fill="none" stroke="black" d="M449.31,-440.14C441.84,-429.19 433.68,-417.22 426.19,-406.23"/>
<polygon fill="black" stroke="black" points="429.2,-404.43 420.67,-398.14 423.42,-408.37 429.2,-404.43"/>
</g>
<!-- n_4 -->
<g id="node13" class="node">
<title>n_4</title>
<polygon fill="none" stroke="black" points="525.12,-354.38 525.12,-379.62 575.12,-379.62 575.12,-354.38 525.12,-354.38"/>
<text text-anchor="start" x="532.12" y="-365.07" font-family="Times New Roman,serif" font-weight="bold" font-size="9.00">Obesity I</text>
<polygon fill="none" stroke="black" points="524.12,-353.38 524.12,-380.62 576.12,-380.62 576.12,-353.38 524.12,-353.38"/>
</g>
<!-- n_0_1_2_3_4_5_6&#45;&gt;n_4 -->
<g id="edge12" class="edge">
<title>n_0_1_2_3_4_5_6&#45;&gt;n_4</title>
<path fill="none" stroke="black" d="M500.94,-440.14C511.23,-425.04 522.84,-408.02 532.19,-394.31"/>
<polygon fill="black" stroke="black" points="534.95,-396.47 537.69,-386.23 529.17,-392.52 534.95,-396.47"/>
</g>
<!-- n_0_1_2_5 -->
<g id="node3" class="node">
<title>n_0_1_2_5</title>
<polygon fill="none" stroke="black" points="239.5,-248 239.5,-289 327.75,-289 327.75,-248 239.5,-248"/>
<text text-anchor="start" x="246.5" y="-274.45" font-family="Times New Roman,serif" font-weight="bold" font-size="9.00">Insufficient weight</text>
<text text-anchor="start" x="268.62" y="-265.45" font-family="Times New Roman,serif" font-weight="bold" font-size="9.00">Normal</text>
<text text-anchor="start" x="258.12" y="-256.45" font-family="Times New Roman,serif" font-weight="bold" font-size="9.00">Overweight I</text>
<polygon fill="none" stroke="black" points="327.75,-248 327.75,-289 380.75,-289 380.75,-248 327.75,-248"/>
<text text-anchor="start" x="334.75" y="-266.57" font-family="Times New Roman,serif" font-weight="bold" font-size="9.00">Obesity II</text>
<polygon fill="none" stroke="black" points="238.5,-247 238.5,-290 381.75,-290 381.75,-247 238.5,-247"/>
</g>
<!-- n_0_1_2_3_5_6&#45;&gt;n_0_1_2_5 -->
<g id="edge2" class="edge">
<title>n_0_1_2_3_5_6&#45;&gt;n_0_1_2_5</title>
<path fill="none" stroke="black" d="M373.12,-337.05C362.89,-326.08 351.17,-313.51 340.64,-302.22"/>
<polygon fill="black" stroke="black" points="343.27,-299.91 333.89,-294.98 338.15,-304.68 343.27,-299.91"/>
</g>
<!-- n_3_6 -->
<g id="node10" class="node">
<title>n_3_6</title>
<polygon fill="none" stroke="black" points="428.12,-255.88 428.12,-281.12 496.12,-281.12 496.12,-255.88 428.12,-255.88"/>
<text text-anchor="start" x="435.12" y="-266.57" font-family="Times New Roman,serif" font-weight="bold" font-size="9.00">Overweight II</text>
<polygon fill="none" stroke="black" points="496.12,-255.88 496.12,-281.12 552.12,-281.12 552.12,-255.88 496.12,-255.88"/>
<text text-anchor="start" x="503.12" y="-266.57" font-family="Times New Roman,serif" font-weight="bold" font-size="9.00">Obesity III</text>
<polygon fill="none" stroke="black" points="427.12,-254.88 427.12,-282.12 553.12,-282.12 553.12,-254.88 427.12,-254.88"/>
</g>
<!-- n_0_1_2_3_5_6&#45;&gt;n_3_6 -->
<g id="edge9" class="edge">
<title>n_0_1_2_3_5_6&#45;&gt;n_3_6</title>
<path fill="none" stroke="black" d="M427.13,-337.05C439.79,-323.48 454.72,-307.47 466.87,-294.44"/>
<polygon fill="black" stroke="black" points="469.1,-297.17 473.36,-287.47 463.98,-292.4 469.1,-297.17"/>
</g>
<!-- n_0_1_2 -->
<g id="node4" class="node">
<title>n_0_1_2</title>
<polygon fill="none" stroke="black" points="122,-163 122,-195 210.25,-195 210.25,-163 122,-163"/>
<text text-anchor="start" x="129" y="-180.45" font-family="Times New Roman,serif" font-weight="bold" font-size="9.00">Insufficient weight</text>
<text text-anchor="start" x="140.62" y="-171.45" font-family="Times New Roman,serif" font-weight="bold" font-size="9.00">Overweight I</text>
<polygon fill="none" stroke="black" points="210.25,-163 210.25,-195 254.25,-195 254.25,-163 210.25,-163"/>
<text text-anchor="start" x="217.25" y="-177.07" font-family="Times New Roman,serif" font-weight="bold" font-size="9.00">Normal</text>
<polygon fill="none" stroke="black" points="121,-162 121,-196 255.25,-196 255.25,-162 121,-162"/>
</g>
<!-- n_0_1_2_5&#45;&gt;n_0_1_2 -->
<g id="edge3" class="edge">
<title>n_0_1_2_5&#45;&gt;n_0_1_2</title>
<path fill="none" stroke="black" d="M276.14,-243.13C260.23,-231.71 241.24,-218.1 224.98,-206.43"/>
<polygon fill="black" stroke="black" points="227.16,-203.69 217,-200.71 223.08,-209.38 227.16,-203.69"/>
</g>
<!-- n_5 -->
<g id="node9" class="node">
<title>n_5</title>
<polygon fill="none" stroke="black" points="301.62,-166.38 301.62,-191.62 354.62,-191.62 354.62,-166.38 301.62,-166.38"/>
<text text-anchor="start" x="308.62" y="-177.07" font-family="Times New Roman,serif" font-weight="bold" font-size="9.00">Obesity II</text>
<polygon fill="none" stroke="black" points="300.62,-165.38 300.62,-192.62 355.62,-192.62 355.62,-165.38 300.62,-165.38"/>
</g>
<!-- n_0_1_2_5&#45;&gt;n_5 -->
<g id="edge8" class="edge">
<title>n_0_1_2_5&#45;&gt;n_5</title>
<path fill="none" stroke="black" d="M315.14,-243.13C317.39,-232.17 320.07,-219.18 322.4,-207.84"/>
<polygon fill="black" stroke="black" points="325.78,-208.75 324.37,-198.25 318.93,-207.34 325.78,-208.75"/>
</g>
<!-- n_0_2 -->
<g id="node5" class="node">
<title>n_0_2</title>
<polygon fill="none" stroke="black" points="38.5,-84.38 38.5,-109.62 126.75,-109.62 126.75,-84.38 38.5,-84.38"/>
<text text-anchor="start" x="45.5" y="-95.08" font-family="Times New Roman,serif" font-weight="bold" font-size="9.00">Insufficient weight</text>
<polygon fill="none" stroke="black" points="126.75,-84.38 126.75,-109.62 191.75,-109.62 191.75,-84.38 126.75,-84.38"/>
<text text-anchor="start" x="133.75" y="-95.08" font-family="Times New Roman,serif" font-weight="bold" font-size="9.00">Overweight I</text>
<polygon fill="none" stroke="black" points="37.5,-83.38 37.5,-110.62 192.75,-110.62 192.75,-83.38 37.5,-83.38"/>
</g>
<!-- n_0_1_2&#45;&gt;n_0_2 -->
<g id="edge4" class="edge">
<title>n_0_1_2&#45;&gt;n_0_2</title>
<path fill="none" stroke="black" d="M170.08,-158.22C160.39,-147.61 148.35,-134.41 138,-123.07"/>
<polygon fill="black" stroke="black" points="140.84,-120.99 131.52,-115.96 135.67,-125.71 140.84,-120.99"/>
</g>
<!-- n_1 -->
<g id="node8" class="node">
<title>n_1</title>
<polygon fill="none" stroke="black" points="239.12,-84.38 239.12,-109.62 283.12,-109.62 283.12,-84.38 239.12,-84.38"/>
<text text-anchor="start" x="246.12" y="-95.08" font-family="Times New Roman,serif" font-weight="bold" font-size="9.00">Normal</text>
<polygon fill="none" stroke="black" points="238.12,-83.38 238.12,-110.62 284.12,-110.62 284.12,-83.38 238.12,-83.38"/>
</g>
<!-- n_0_1_2&#45;&gt;n_1 -->
<g id="edge7" class="edge">
<title>n_0_1_2&#45;&gt;n_1</title>
<path fill="none" stroke="black" d="M206.17,-158.22C215.86,-147.61 227.9,-134.41 238.25,-123.07"/>
<polygon fill="black" stroke="black" points="240.58,-125.71 244.73,-115.96 235.41,-120.99 240.58,-125.71"/>
</g>
<!-- n_0 -->
<g id="node6" class="node">
<title>n_0</title>
<polygon fill="none" stroke="black" points="9,-5.38 9,-30.62 97.25,-30.62 97.25,-5.38 9,-5.38"/>
<text text-anchor="start" x="16" y="-16.07" font-family="Times New Roman,serif" font-weight="bold" font-size="9.00">Insufficient weight</text>
<polygon fill="none" stroke="black" points="8,-4.38 8,-31.62 98.25,-31.62 98.25,-4.38 8,-4.38"/>
</g>
<!-- n_0_2&#45;&gt;n_0 -->
<g id="edge5" class="edge">
<title>n_0_2&#45;&gt;n_0</title>
<path fill="none" stroke="black" d="M101.67,-79.29C93.52,-69.17 82.96,-56.05 73.77,-44.64"/>
<polygon fill="black" stroke="black" points="76.71,-42.71 67.72,-37.12 71.26,-47.1 76.71,-42.71"/>
</g>
<!-- n_2 -->
<g id="node7" class="node">
<title>n_2</title>
<polygon fill="none" stroke="black" points="144.62,-5.38 144.62,-30.62 209.62,-30.62 209.62,-5.38 144.62,-5.38"/>
<text text-anchor="start" x="151.62" y="-16.07" font-family="Times New Roman,serif" font-weight="bold" font-size="9.00">Overweight I</text>
<polygon fill="none" stroke="black" points="143.62,-4.38 143.62,-31.62 210.62,-31.62 210.62,-4.38 143.62,-4.38"/>
</g>
<!-- n_0_2&#45;&gt;n_2 -->
<g id="edge6" class="edge">
<title>n_0_2&#45;&gt;n_2</title>
<path fill="none" stroke="black" d="M128.58,-79.29C136.73,-69.17 147.29,-56.05 156.48,-44.64"/>
<polygon fill="black" stroke="black" points="158.99,-47.1 162.53,-37.12 153.54,-42.71 158.99,-47.1"/>
</g>
<!-- n_3 -->
<g id="node11" class="node">
<title>n_3</title>
<polygon fill="none" stroke="black" points="438.12,-166.38 438.12,-191.62 506.12,-191.62 506.12,-166.38 438.12,-166.38"/>
<text text-anchor="start" x="445.12" y="-177.07" font-family="Times New Roman,serif" font-weight="bold" font-size="9.00">Overweight II</text>
<polygon fill="none" stroke="black" points="437.12,-165.38 437.12,-192.62 507.12,-192.62 507.12,-165.38 437.12,-165.38"/>
</g>
<!-- n_3_6&#45;&gt;n_3 -->
<g id="edge10" class="edge">
<title>n_3_6&#45;&gt;n_3</title>
<path fill="none" stroke="black" d="M486.65,-250.63C484.16,-238.52 480.75,-221.94 477.86,-207.88"/>
<polygon fill="black" stroke="black" points="481.33,-207.39 475.89,-198.3 474.48,-208.8 481.33,-207.39"/>
</g>
<!-- n_6 -->
<g id="node12" class="node">
<title>n_6</title>
<polygon fill="none" stroke="black" points="553.12,-166.38 553.12,-191.62 609.12,-191.62 609.12,-166.38 553.12,-166.38"/>
<text text-anchor="start" x="560.12" y="-177.07" font-family="Times New Roman,serif" font-weight="bold" font-size="9.00">Obesity III</text>
<polygon fill="none" stroke="black" points="552.12,-165.38 552.12,-192.62 610.12,-192.62 610.12,-165.38 552.12,-165.38"/>
</g>
<!-- n_3_6&#45;&gt;n_6 -->
<g id="edge11" class="edge">
<title>n_3_6&#45;&gt;n_6</title>
<path fill="none" stroke="black" d="M507.67,-250.63C521.27,-237.56 540.3,-219.25 555.59,-204.56"/>
<polygon fill="black" stroke="black" points="557.76,-207.32 562.54,-197.87 552.91,-202.28 557.76,-207.32"/>
</g>
</g>
</svg>
