<?xml version="1.0" encoding="UTF-8" standalone="no"?>
<!DOCTYPE svg PUBLIC "-//W3C//DTD SVG 1.1//EN"
 "http://www.w3.org/Graphics/SVG/1.1/DTD/svg11.dtd">
<!-- Generated by graphviz version 10.0.1 (20240210.2158)
 -->
<!-- Title: ND Pages: 1 -->
<svg width="576pt" height="638pt"
 viewBox="0.00 0.00 575.50 638.00" xmlns="http://www.w3.org/2000/svg" xmlns:xlink="http://www.w3.org/1999/xlink">
<g id="graph0" class="graph" transform="scale(1 1) rotate(0) translate(4 634)">
<title>ND</title>
<polygon fill="white" stroke="none" points="-4,4 -4,-634 571.5,-634 571.5,4 -4,4"/>
<!-- n_0_1_2_3_4_5_6 -->
<g id="node1" class="node">
<title>n_0_1_2_3_4_5_6</title>
<polygon fill="none" stroke="black" points="401.38,-557 401.38,-625 489.62,-625 489.62,-557 401.38,-557"/>
<text text-anchor="start" x="408.38" y="-610.45" font-family="Times New Roman,serif" font-weight="bold" font-size="9.00">Insufficient weight</text>
<text text-anchor="start" x="420" y="-601.45" font-family="Times New Roman,serif" font-weight="bold" font-size="9.00">Overweight I</text>
<text text-anchor="start" x="418.5" y="-592.45" font-family="Times New Roman,serif" font-weight="bold" font-size="9.00">Overweight II</text>
<text text-anchor="start" x="427.5" y="-583.45" font-family="Times New Roman,serif" font-weight="bold" font-size="9.00">Obesity I</text>
<text text-anchor="start" x="426" y="-574.45" font-family="Times New Roman,serif" font-weight="bold" font-size="9.00">Obesity II</text>
<text text-anchor="start" x="424.5" y="-565.45" font-family="Times New Roman,serif" font-weight="bold" font-size="9.00">Obesity III</text>
<polygon fill="none" stroke="black" points="489.62,-557 489.62,-625 533.62,-625 533.62,-557 489.62,-557"/>
<text text-anchor="start" x="496.62" y="-589.08" font-family="Times New Roman,serif" font-weight="bold" font-size="9.00">Normal</text>
<polygon fill="none" stroke="black" points="400.38,-556 400.38,-626 534.62,-626 534.62,-556 400.38,-556"/>
</g>
<!-- n_0_2_3_4_5_6 -->
<g id="node2" class="node">
<title>n_0_2_3_4_5_6</title>
<polygon fill="none" stroke="black" points="329.38,-445 329.38,-504 417.62,-504 417.62,-445 329.38,-445"/>
<text text-anchor="start" x="336.38" y="-489.45" font-family="Times New Roman,serif" font-weight="bold" font-size="9.00">Insufficient weight</text>
<text text-anchor="start" x="348" y="-480.45" font-family="Times New Roman,serif" font-weight="bold" font-size="9.00">Overweight I</text>
<text text-anchor="start" x="346.5" y="-471.45" font-family="Times New Roman,serif" font-weight="bold" font-size="9.00">Overweight II</text>
<text text-anchor="start" x="354" y="-462.45" font-family="Times New Roman,serif" font-weight="bold" font-size="9.00">Obesity II</text>
<text text-anchor="start" x="352.5" y="-453.45" font-family="Times New Roman,serif" font-weight="bold" font-size="9.00">Obesity III</text>
<polygon fill="none" stroke="black" points="417.62,-445 417.62,-504 467.62,-504 467.62,-445 417.62,-445"/>
<text text-anchor="start" x="424.62" y="-472.57" font-family="Times New Roman,serif" font-weight="bold" font-size="9.00">Obesity I</text>
<polygon fill="none" stroke="black" points="328.38,-444 328.38,-505 468.62,-505 468.62,-444 328.38,-444"/>
</g>
<!-- n_0_1_2_3_4_5_6&#45;&gt;n_0_2_3_4_5_6 -->
<g id="edge1" class="edge">
<title>n_0_1_2_3_4_5_6&#45;&gt;n_0_2_3_4_5_6</title>
<path fill="none" stroke="black" d="M444.72,-552.19C438.16,-541.31 430.96,-529.36 424.24,-518.21"/>
<polygon fill="black" stroke="black" points="427.42,-516.71 419.26,-509.95 421.42,-520.32 427.42,-516.71"/>
</g>
<!-- n_1 -->
<g id="node13" class="node">
<title>n_1</title>
<polygon fill="none" stroke="black" points="514.5,-461.88 514.5,-487.12 558.5,-487.12 558.5,-461.88 514.5,-461.88"/>
<text text-anchor="start" x="521.5" y="-472.57" font-family="Times New Roman,serif" font-weight="bold" font-size="9.00">Normal</text>
<polygon fill="none" stroke="black" points="513.5,-460.88 513.5,-488.12 559.5,-488.12 559.5,-460.88 513.5,-460.88"/>
</g>
<!-- n_0_1_2_3_4_5_6&#45;&gt;n_1 -->
<g id="edge12" class="edge">
<title>n_0_1_2_3_4_5_6&#45;&gt;n_1</title>
<path fill="none" stroke="black" d="M490.28,-552.19C500.17,-535.78 511.52,-516.96 520.49,-502.07"/>
<polygon fill="black" stroke="black" points="523.33,-504.13 525.5,-493.76 517.34,-500.52 523.33,-504.13"/>
</g>
<!-- n_0_2_3_5_6 -->
<g id="node3" class="node">
<title>n_0_2_3_5_6</title>
<polygon fill="none" stroke="black" points="254.38,-342 254.38,-392 342.62,-392 342.62,-342 254.38,-342"/>
<text text-anchor="start" x="261.38" y="-377.45" font-family="Times New Roman,serif" font-weight="bold" font-size="9.00">Insufficient weight</text>
<text text-anchor="start" x="273" y="-368.45" font-family="Times New Roman,serif" font-weight="bold" font-size="9.00">Overweight I</text>
<text text-anchor="start" x="271.5" y="-359.45" font-family="Times New Roman,serif" font-weight="bold" font-size="9.00">Overweight II</text>
<text text-anchor="start" x="279" y="-350.45" font-family="Times New Roman,serif" font-weight="bold" font-size="9.00">Obesity II</text>
<polygon fill="none" stroke="black" points="342.62,-342 342.62,-392 398.62,-392 398.62,-342 342.62,-342"/>
<text text-anchor="start" x="349.62" y="-365.07" font-family="Times New Roman,serif" font-weight="bold" font-size="9.00">Obesity III</text>
<polygon fill="none" stroke="black" points="253.38,-341 253.38,-393 399.62,-393 399.62,-341 253.38,-341"/>
</g>
<!-- n_0_2_3_4_5_6&#45;&gt;n_0_2_3_5_6 -->
<g id="edge2" class="edge">
<title>n_0_2_3_4_5_6&#45;&gt;n_0_2_3_5_6</title>
<path fill="none" stroke="black" d="M375.72,-440.12C368.39,-429.38 360.21,-417.4 352.66,-406.33"/>
<polygon fill="black" stroke="black" points="355.6,-404.44 347.08,-398.15 349.82,-408.38 355.6,-404.44"/>
</g>
<!-- n_4 -->
<g id="node12" class="node">
<title>n_4</title>
<polygon fill="none" stroke="black" points="445.5,-354.38 445.5,-379.62 495.5,-379.62 495.5,-354.38 445.5,-354.38"/>
<text text-anchor="start" x="452.5" y="-365.07" font-family="Times New Roman,serif" font-weight="bold" font-size="9.00">Obesity I</text>
<polygon fill="none" stroke="black" points="444.5,-353.38 444.5,-380.62 496.5,-380.62 496.5,-353.38 444.5,-353.38"/>
</g>
<!-- n_0_2_3_4_5_6&#45;&gt;n_4 -->
<g id="edge11" class="edge">
<title>n_0_2_3_4_5_6&#45;&gt;n_4</title>
<path fill="none" stroke="black" d="M421.28,-440.12C431.36,-425.35 443.04,-408.23 452.5,-394.38"/>
<polygon fill="black" stroke="black" points="455.33,-396.43 458.08,-386.2 449.55,-392.49 455.33,-396.43"/>
</g>
<!-- n_0_2_3_5 -->
<g id="node4" class="node">
<title>n_0_2_3_5</title>
<polygon fill="none" stroke="black" points="182.88,-248 182.88,-289 271.12,-289 271.12,-248 182.88,-248"/>
<text text-anchor="start" x="189.88" y="-274.45" font-family="Times New Roman,serif" font-weight="bold" font-size="9.00">Insufficient weight</text>
<text text-anchor="start" x="201.5" y="-265.45" font-family="Times New Roman,serif" font-weight="bold" font-size="9.00">Overweight I</text>
<text text-anchor="start" x="200" y="-256.45" font-family="Times New Roman,serif" font-weight="bold" font-size="9.00">Overweight II</text>
<polygon fill="none" stroke="black" points="271.12,-248 271.12,-289 324.12,-289 324.12,-248 271.12,-248"/>
<text text-anchor="start" x="278.12" y="-266.57" font-family="Times New Roman,serif" font-weight="bold" font-size="9.00">Obesity II</text>
<polygon fill="none" stroke="black" points="181.88,-247 181.88,-290 325.12,-290 325.12,-247 181.88,-247"/>
</g>
<!-- n_0_2_3_5_6&#45;&gt;n_0_2_3_5 -->
<g id="edge3" class="edge">
<title>n_0_2_3_5_6&#45;&gt;n_0_2_3_5</title>
<path fill="none" stroke="black" d="M304.6,-337.05C296.46,-326.29 287.16,-314 278.75,-302.88"/>
<polygon fill="black" stroke="black" points="281.68,-300.95 272.85,-295.08 276.09,-305.17 281.68,-300.95"/>
</g>
<!-- n_6 -->
<g id="node11" class="node">
<title>n_6</title>
<polygon fill="none" stroke="black" points="371.5,-255.88 371.5,-281.12 427.5,-281.12 427.5,-255.88 371.5,-255.88"/>
<text text-anchor="start" x="378.5" y="-266.57" font-family="Times New Roman,serif" font-weight="bold" font-size="9.00">Obesity III</text>
<polygon fill="none" stroke="black" points="370.5,-254.88 370.5,-282.12 428.5,-282.12 428.5,-254.88 370.5,-254.88"/>
</g>
<!-- n_0_2_3_5_6&#45;&gt;n_6 -->
<g id="edge10" class="edge">
<title>n_0_2_3_5_6&#45;&gt;n_6</title>
<path fill="none" stroke="black" d="M348.4,-337.05C358.47,-323.73 370.32,-308.07 380.07,-295.19"/>
<polygon fill="black" stroke="black" points="382.59,-297.66 385.83,-287.57 377,-293.44 382.59,-297.66"/>
</g>
<!-- n_0_2_3 -->
<g id="node5" class="node">
<title>n_0_2_3</title>
<polygon fill="none" stroke="black" points="99.38,-163 99.38,-195 167.38,-195 167.38,-163 99.38,-163"/>
<text text-anchor="start" x="107.88" y="-180.45" font-family="Times New Roman,serif" font-weight="bold" font-size="9.00">Overweight I</text>
<text text-anchor="start" x="106.38" y="-171.45" font-family="Times New Roman,serif" font-weight="bold" font-size="9.00">Overweight II</text>
<polygon fill="none" stroke="black" points="167.38,-163 167.38,-195 255.62,-195 255.62,-163 167.38,-163"/>
<text text-anchor="start" x="174.38" y="-177.07" font-family="Times New Roman,serif" font-weight="bold" font-size="9.00">Insufficient weight</text>
<polygon fill="none" stroke="black" points="98.38,-162 98.38,-196 256.62,-196 256.62,-162 98.38,-162"/>
</g>
<!-- n_0_2_3_5&#45;&gt;n_0_2_3 -->
<g id="edge4" class="edge">
<title>n_0_2_3_5&#45;&gt;n_0_2_3</title>
<path fill="none" stroke="black" d="M232.33,-243.13C222.97,-232.35 211.91,-219.62 202.18,-208.41"/>
<polygon fill="black" stroke="black" points="204.91,-206.22 195.71,-200.97 199.63,-210.81 204.91,-206.22"/>
</g>
<!-- n_5 -->
<g id="node10" class="node">
<title>n_5</title>
<polygon fill="none" stroke="black" points="303,-166.38 303,-191.62 356,-191.62 356,-166.38 303,-166.38"/>
<text text-anchor="start" x="310" y="-177.07" font-family="Times New Roman,serif" font-weight="bold" font-size="9.00">Obesity II</text>
<polygon fill="none" stroke="black" points="302,-165.38 302,-192.62 357,-192.62 357,-165.38 302,-165.38"/>
</g>
<!-- n_0_2_3_5&#45;&gt;n_5 -->
<g id="edge9" class="edge">
<title>n_0_2_3_5&#45;&gt;n_5</title>
<path fill="none" stroke="black" d="M274.67,-243.13C284.89,-231.36 297.15,-217.25 307.48,-205.36"/>
<polygon fill="black" stroke="black" points="310.03,-207.76 313.94,-197.91 304.74,-203.17 310.03,-207.76"/>
</g>
<!-- n_2_3 -->
<g id="node6" class="node">
<title>n_2_3</title>
<polygon fill="none" stroke="black" points="32,-84.38 32,-109.62 97,-109.62 97,-84.38 32,-84.38"/>
<text text-anchor="start" x="39" y="-95.08" font-family="Times New Roman,serif" font-weight="bold" font-size="9.00">Overweight I</text>
<polygon fill="none" stroke="black" points="97,-84.38 97,-109.62 165,-109.62 165,-84.38 97,-84.38"/>
<text text-anchor="start" x="104" y="-95.08" font-family="Times New Roman,serif" font-weight="bold" font-size="9.00">Overweight II</text>
<polygon fill="none" stroke="black" points="31,-83.38 31,-110.62 166,-110.62 166,-83.38 31,-83.38"/>
</g>
<!-- n_0_2_3&#45;&gt;n_2_3 -->
<g id="edge5" class="edge">
<title>n_0_2_3&#45;&gt;n_2_3</title>
<path fill="none" stroke="black" d="M157.97,-158.22C147.38,-147.5 134.2,-134.15 122.93,-122.74"/>
<polygon fill="black" stroke="black" points="125.71,-120.58 116.2,-115.92 120.73,-125.5 125.71,-120.58"/>
</g>
<!-- n_0 -->
<g id="node9" class="node">
<title>n_0</title>
<polygon fill="none" stroke="black" points="212.38,-84.38 212.38,-109.62 300.62,-109.62 300.62,-84.38 212.38,-84.38"/>
<text text-anchor="start" x="219.38" y="-95.08" font-family="Times New Roman,serif" font-weight="bold" font-size="9.00">Insufficient weight</text>
<polygon fill="none" stroke="black" points="211.38,-83.38 211.38,-110.62 301.62,-110.62 301.62,-83.38 211.38,-83.38"/>
</g>
<!-- n_0_2_3&#45;&gt;n_0 -->
<g id="edge8" class="edge">
<title>n_0_2_3&#45;&gt;n_0</title>
<path fill="none" stroke="black" d="M197.03,-158.22C207.62,-147.5 220.8,-134.15 232.07,-122.74"/>
<polygon fill="black" stroke="black" points="234.27,-125.5 238.8,-115.92 229.29,-120.58 234.27,-125.5"/>
</g>
<!-- n_2 -->
<g id="node7" class="node">
<title>n_2</title>
<polygon fill="none" stroke="black" points="9,-5.38 9,-30.62 74,-30.62 74,-5.38 9,-5.38"/>
<text text-anchor="start" x="16" y="-16.07" font-family="Times New Roman,serif" font-weight="bold" font-size="9.00">Overweight I</text>
<polygon fill="none" stroke="black" points="8,-4.38 8,-31.62 75,-31.62 75,-4.38 8,-4.38"/>
</g>
<!-- n_2_3&#45;&gt;n_2 -->
<g id="edge6" class="edge">
<title>n_2_3&#45;&gt;n_2</title>
<path fill="none" stroke="black" d="M86.13,-79.29C78.71,-69.27 69.12,-56.31 60.73,-44.98"/>
<polygon fill="black" stroke="black" points="63.7,-43.11 54.94,-37.16 58.08,-47.28 63.7,-43.11"/>
</g>
<!-- n_3 -->
<g id="node8" class="node">
<title>n_3</title>
<polygon fill="none" stroke="black" points="121.5,-5.38 121.5,-30.62 189.5,-30.62 189.5,-5.38 121.5,-5.38"/>
<text text-anchor="start" x="128.5" y="-16.07" font-family="Times New Roman,serif" font-weight="bold" font-size="9.00">Overweight II</text>
<polygon fill="none" stroke="black" points="120.5,-4.38 120.5,-31.62 190.5,-31.62 190.5,-4.38 120.5,-4.38"/>
</g>
<!-- n_2_3&#45;&gt;n_3 -->
<g id="edge7" class="edge">
<title>n_2_3&#45;&gt;n_3</title>
<path fill="none" stroke="black" d="M110.87,-79.29C118.29,-69.27 127.88,-56.31 136.27,-44.98"/>
<polygon fill="black" stroke="black" points="138.92,-47.28 142.06,-37.16 133.3,-43.11 138.92,-47.28"/>
</g>
</g>
</svg>
