<?xml version="1.0" encoding="UTF-8" standalone="no"?>
<!DOCTYPE svg PUBLIC "-//W3C//DTD SVG 1.1//EN"
 "http://www.w3.org/Graphics/SVG/1.1/DTD/svg11.dtd">
<!-- Generated by graphviz version 10.0.1 (20240210.2158)
 -->
<!-- Title: ND Pages: 1 -->
<svg width="550pt" height="544pt"
 viewBox="0.00 0.00 550.12 544.00" xmlns="http://www.w3.org/2000/svg" xmlns:xlink="http://www.w3.org/1999/xlink">
<g id="graph0" class="graph" transform="scale(1 1) rotate(0) translate(4 540)">
<title>ND</title>
<polygon fill="white" stroke="none" points="-4,4 -4,-540 546.12,-540 546.12,4 -4,4"/>
<!-- n_0_1_2_3_4_5_6 -->
<g id="node1" class="node">
<title>n_0_1_2_3_4_5_6</title>
<polygon fill="none" stroke="black" points="334.88,-463 334.88,-531 402.88,-531 402.88,-463 334.88,-463"/>
<text text-anchor="start" x="353.88" y="-516.45" font-family="Times New Roman,serif" font-weight="bold" font-size="9.00">Normal</text>
<text text-anchor="start" x="343.38" y="-507.45" font-family="Times New Roman,serif" font-weight="bold" font-size="9.00">Overweight I</text>
<text text-anchor="start" x="341.88" y="-498.45" font-family="Times New Roman,serif" font-weight="bold" font-size="9.00">Overweight II</text>
<text text-anchor="start" x="350.88" y="-489.45" font-family="Times New Roman,serif" font-weight="bold" font-size="9.00">Obesity I</text>
<text text-anchor="start" x="349.38" y="-480.45" font-family="Times New Roman,serif" font-weight="bold" font-size="9.00">Obesity II</text>
<text text-anchor="start" x="347.88" y="-471.45" font-family="Times New Roman,serif" font-weight="bold" font-size="9.00">Obesity III</text>
<polygon fill="none" stroke="black" points="402.88,-463 402.88,-531 491.12,-531 491.12,-463 402.88,-463"/>
<text text-anchor="start" x="409.88" y="-495.07" font-family="Times New Roman,serif" font-weight="bold" font-size="9.00">Insufficient weight</text>
<polygon fill="none" stroke="black" points="333.88,-462 333.88,-532 492.12,-532 492.12,-462 333.88,-462"/>
</g>
<!-- n_1_2_3_4_5_6 -->
<g id="node2" class="node">
<title>n_1_2_3_4_5_6</title>
<polygon fill="none" stroke="black" points="276.5,-351 276.5,-410 344.5,-410 344.5,-351 276.5,-351"/>
<text text-anchor="start" x="295.5" y="-395.45" font-family="Times New Roman,serif" font-weight="bold" font-size="9.00">Normal</text>
<text text-anchor="start" x="285" y="-386.45" font-family="Times New Roman,serif" font-weight="bold" font-size="9.00">Overweight I</text>
<text text-anchor="start" x="283.5" y="-377.45" font-family="Times New Roman,serif" font-weight="bold" font-size="9.00">Overweight II</text>
<text text-anchor="start" x="292.5" y="-368.45" font-family="Times New Roman,serif" font-weight="bold" font-size="9.00">Obesity I</text>
<text text-anchor="start" x="289.5" y="-359.45" font-family="Times New Roman,serif" font-weight="bold" font-size="9.00">Obesity III</text>
<polygon fill="none" stroke="black" points="344.5,-351 344.5,-410 397.5,-410 397.5,-351 344.5,-351"/>
<text text-anchor="start" x="351.5" y="-378.57" font-family="Times New Roman,serif" font-weight="bold" font-size="9.00">Obesity II</text>
<polygon fill="none" stroke="black" points="275.5,-350 275.5,-411 398.5,-411 398.5,-350 275.5,-350"/>
</g>
<!-- n_0_1_2_3_4_5_6&#45;&gt;n_1_2_3_4_5_6 -->
<g id="edge1" class="edge">
<title>n_0_1_2_3_4_5_6&#45;&gt;n_1_2_3_4_5_6</title>
<path fill="none" stroke="black" d="M387.9,-458.19C380.68,-447.31 372.75,-435.36 365.35,-424.21"/>
<polygon fill="black" stroke="black" points="368.29,-422.31 359.84,-415.91 362.46,-426.18 368.29,-422.31"/>
</g>
<!-- n_0 -->
<g id="node13" class="node">
<title>n_0</title>
<polygon fill="none" stroke="black" points="444.88,-367.88 444.88,-393.12 533.12,-393.12 533.12,-367.88 444.88,-367.88"/>
<text text-anchor="start" x="451.88" y="-378.57" font-family="Times New Roman,serif" font-weight="bold" font-size="9.00">Insufficient weight</text>
<polygon fill="none" stroke="black" points="443.88,-366.88 443.88,-394.12 534.12,-394.12 534.12,-366.88 443.88,-366.88"/>
</g>
<!-- n_0_1_2_3_4_5_6&#45;&gt;n_0 -->
<g id="edge12" class="edge">
<title>n_0_1_2_3_4_5_6&#45;&gt;n_0</title>
<path fill="none" stroke="black" d="M438.1,-458.19C449.09,-441.63 461.72,-422.6 471.65,-407.64"/>
<polygon fill="black" stroke="black" points="474.29,-409.99 476.9,-399.72 468.46,-406.12 474.29,-409.99"/>
</g>
<!-- n_1_2_3_4_6 -->
<g id="node3" class="node">
<title>n_1_2_3_4_6</title>
<polygon fill="none" stroke="black" points="212,-248 212,-298 280,-298 280,-248 212,-248"/>
<text text-anchor="start" x="231" y="-283.45" font-family="Times New Roman,serif" font-weight="bold" font-size="9.00">Normal</text>
<text text-anchor="start" x="220.5" y="-274.45" font-family="Times New Roman,serif" font-weight="bold" font-size="9.00">Overweight I</text>
<text text-anchor="start" x="219" y="-265.45" font-family="Times New Roman,serif" font-weight="bold" font-size="9.00">Overweight II</text>
<text text-anchor="start" x="225" y="-256.45" font-family="Times New Roman,serif" font-weight="bold" font-size="9.00">Obesity III</text>
<polygon fill="none" stroke="black" points="280,-248 280,-298 330,-298 330,-248 280,-248"/>
<text text-anchor="start" x="287" y="-271.07" font-family="Times New Roman,serif" font-weight="bold" font-size="9.00">Obesity I</text>
<polygon fill="none" stroke="black" points="211,-247 211,-299 331,-299 331,-247 211,-247"/>
</g>
<!-- n_1_2_3_4_5_6&#45;&gt;n_1_2_3_4_6 -->
<g id="edge2" class="edge">
<title>n_1_2_3_4_5_6&#45;&gt;n_1_2_3_4_6</title>
<path fill="none" stroke="black" d="M316.12,-346.12C309.4,-335.38 301.9,-323.4 294.98,-312.33"/>
<polygon fill="black" stroke="black" points="298.15,-310.8 289.88,-304.18 292.22,-314.52 298.15,-310.8"/>
</g>
<!-- n_5 -->
<g id="node12" class="node">
<title>n_5</title>
<polygon fill="none" stroke="black" points="377.5,-260.38 377.5,-285.62 430.5,-285.62 430.5,-260.38 377.5,-260.38"/>
<text text-anchor="start" x="384.5" y="-271.07" font-family="Times New Roman,serif" font-weight="bold" font-size="9.00">Obesity II</text>
<polygon fill="none" stroke="black" points="376.5,-259.38 376.5,-286.62 431.5,-286.62 431.5,-259.38 376.5,-259.38"/>
</g>
<!-- n_1_2_3_4_5_6&#45;&gt;n_5 -->
<g id="edge11" class="edge">
<title>n_1_2_3_4_5_6&#45;&gt;n_5</title>
<path fill="none" stroke="black" d="M358.2,-346.12C367.58,-331.35 378.45,-314.23 387.25,-300.38"/>
<polygon fill="black" stroke="black" points="390.02,-302.55 392.42,-292.23 384.11,-298.79 390.02,-302.55"/>
</g>
<!-- n_1_2_3_6 -->
<g id="node4" class="node">
<title>n_1_2_3_6</title>
<polygon fill="none" stroke="black" points="135.5,-163 135.5,-195 200.5,-195 200.5,-163 135.5,-163"/>
<text text-anchor="start" x="153" y="-180.45" font-family="Times New Roman,serif" font-weight="bold" font-size="9.00">Normal</text>
<text text-anchor="start" x="142.5" y="-171.45" font-family="Times New Roman,serif" font-weight="bold" font-size="9.00">Overweight I</text>
<polygon fill="none" stroke="black" points="200.5,-163 200.5,-195 268.5,-195 268.5,-163 200.5,-163"/>
<text text-anchor="start" x="207.5" y="-180.45" font-family="Times New Roman,serif" font-weight="bold" font-size="9.00">Overweight II</text>
<text text-anchor="start" x="213.5" y="-171.45" font-family="Times New Roman,serif" font-weight="bold" font-size="9.00">Obesity III</text>
<polygon fill="none" stroke="black" points="134.5,-162 134.5,-196 269.5,-196 269.5,-162 134.5,-162"/>
</g>
<!-- n_1_2_3_4_6&#45;&gt;n_1_2_3_6 -->
<g id="edge3" class="edge">
<title>n_1_2_3_4_6&#45;&gt;n_1_2_3_6</title>
<path fill="none" stroke="black" d="M249.36,-243.14C241.17,-232.22 231.84,-219.79 223.65,-208.87"/>
<polygon fill="black" stroke="black" points="226.51,-206.84 217.71,-200.94 220.91,-211.04 226.51,-206.84"/>
</g>
<!-- n_4 -->
<g id="node11" class="node">
<title>n_4</title>
<polygon fill="none" stroke="black" points="316,-166.38 316,-191.62 366,-191.62 366,-166.38 316,-166.38"/>
<text text-anchor="start" x="323" y="-177.07" font-family="Times New Roman,serif" font-weight="bold" font-size="9.00">Obesity I</text>
<polygon fill="none" stroke="black" points="315,-165.38 315,-192.62 367,-192.62 367,-165.38 315,-165.38"/>
</g>
<!-- n_1_2_3_4_6&#45;&gt;n_4 -->
<g id="edge10" class="edge">
<title>n_1_2_3_4_6&#45;&gt;n_4</title>
<path fill="none" stroke="black" d="M292.96,-243.14C301.98,-231.29 312.35,-217.66 321.14,-206.1"/>
<polygon fill="black" stroke="black" points="323.9,-208.25 327.17,-198.17 318.33,-204.01 323.9,-208.25"/>
</g>
<!-- n_1_2 -->
<g id="node5" class="node">
<title>n_1_2</title>
<polygon fill="none" stroke="black" points="65.5,-84.38 65.5,-109.62 109.5,-109.62 109.5,-84.38 65.5,-84.38"/>
<text text-anchor="start" x="72.5" y="-95.08" font-family="Times New Roman,serif" font-weight="bold" font-size="9.00">Normal</text>
<polygon fill="none" stroke="black" points="109.5,-84.38 109.5,-109.62 174.5,-109.62 174.5,-84.38 109.5,-84.38"/>
<text text-anchor="start" x="116.5" y="-95.08" font-family="Times New Roman,serif" font-weight="bold" font-size="9.00">Overweight I</text>
<polygon fill="none" stroke="black" points="64.5,-83.38 64.5,-110.62 175.5,-110.62 175.5,-83.38 64.5,-83.38"/>
</g>
<!-- n_1_2_3_6&#45;&gt;n_1_2 -->
<g id="edge4" class="edge">
<title>n_1_2_3_6&#45;&gt;n_1_2</title>
<path fill="none" stroke="black" d="M181.73,-158.22C170.74,-147.5 157.05,-134.15 145.36,-122.74"/>
<polygon fill="black" stroke="black" points="147.95,-120.38 138.35,-115.9 143.06,-125.39 147.95,-120.38"/>
</g>
<!-- n_3_6 -->
<g id="node8" class="node">
<title>n_3_6</title>
<polygon fill="none" stroke="black" points="222,-84.38 222,-109.62 290,-109.62 290,-84.38 222,-84.38"/>
<text text-anchor="start" x="229" y="-95.08" font-family="Times New Roman,serif" font-weight="bold" font-size="9.00">Overweight II</text>
<polygon fill="none" stroke="black" points="290,-84.38 290,-109.62 346,-109.62 346,-84.38 290,-84.38"/>
<text text-anchor="start" x="297" y="-95.08" font-family="Times New Roman,serif" font-weight="bold" font-size="9.00">Obesity III</text>
<polygon fill="none" stroke="black" points="221,-83.38 221,-110.62 347,-110.62 347,-83.38 221,-83.38"/>
</g>
<!-- n_1_2_3_6&#45;&gt;n_3_6 -->
<g id="edge7" class="edge">
<title>n_1_2_3_6&#45;&gt;n_3_6</title>
<path fill="none" stroke="black" d="M222.27,-158.22C233.26,-147.5 246.95,-134.15 258.64,-122.74"/>
<polygon fill="black" stroke="black" points="260.94,-125.39 265.65,-115.9 256.05,-120.38 260.94,-125.39"/>
</g>
<!-- n_1 -->
<g id="node6" class="node">
<title>n_1</title>
<polygon fill="none" stroke="black" points="9,-5.38 9,-30.62 53,-30.62 53,-5.38 9,-5.38"/>
<text text-anchor="start" x="16" y="-16.07" font-family="Times New Roman,serif" font-weight="bold" font-size="9.00">Normal</text>
<polygon fill="none" stroke="black" points="8,-4.38 8,-31.62 54,-31.62 54,-4.38 8,-4.38"/>
</g>
<!-- n_1_2&#45;&gt;n_1 -->
<g id="edge5" class="edge">
<title>n_1_2&#45;&gt;n_1</title>
<path fill="none" stroke="black" d="M100.69,-79.29C88.53,-68.77 72.62,-55.01 59.08,-43.29"/>
<polygon fill="black" stroke="black" points="61.58,-40.83 51.73,-36.93 57,-46.12 61.58,-40.83"/>
</g>
<!-- n_2 -->
<g id="node7" class="node">
<title>n_2</title>
<polygon fill="none" stroke="black" points="100.5,-5.38 100.5,-30.62 165.5,-30.62 165.5,-5.38 100.5,-5.38"/>
<text text-anchor="start" x="107.5" y="-16.07" font-family="Times New Roman,serif" font-weight="bold" font-size="9.00">Overweight I</text>
<polygon fill="none" stroke="black" points="99.5,-4.38 99.5,-31.62 166.5,-31.62 166.5,-4.38 99.5,-4.38"/>
</g>
<!-- n_1_2&#45;&gt;n_2 -->
<g id="edge6" class="edge">
<title>n_1_2&#45;&gt;n_2</title>
<path fill="none" stroke="black" d="M122.82,-79.29C124.41,-69.87 126.44,-57.86 128.27,-47.04"/>
<polygon fill="black" stroke="black" points="131.67,-47.88 129.89,-37.43 124.77,-46.71 131.67,-47.88"/>
</g>
<!-- n_3 -->
<g id="node9" class="node">
<title>n_3</title>
<polygon fill="none" stroke="black" points="238,-5.38 238,-30.62 306,-30.62 306,-5.38 238,-5.38"/>
<text text-anchor="start" x="245" y="-16.07" font-family="Times New Roman,serif" font-weight="bold" font-size="9.00">Overweight II</text>
<polygon fill="none" stroke="black" points="237,-4.38 237,-31.62 307,-31.62 307,-4.38 237,-4.38"/>
</g>
<!-- n_3_6&#45;&gt;n_3 -->
<g id="edge8" class="edge">
<title>n_3_6&#45;&gt;n_3</title>
<path fill="none" stroke="black" d="M281.4,-79.29C279.93,-69.87 278.06,-57.86 276.37,-47.04"/>
<polygon fill="black" stroke="black" points="279.87,-46.78 274.87,-37.44 272.95,-47.86 279.87,-46.78"/>
</g>
<!-- n_6 -->
<g id="node10" class="node">
<title>n_6</title>
<polygon fill="none" stroke="black" points="353,-5.38 353,-30.62 409,-30.62 409,-5.38 353,-5.38"/>
<text text-anchor="start" x="360" y="-16.07" font-family="Times New Roman,serif" font-weight="bold" font-size="9.00">Obesity III</text>
<polygon fill="none" stroke="black" points="352,-4.38 352,-31.62 410,-31.62 410,-4.38 352,-4.38"/>
</g>
<!-- n_3_6&#45;&gt;n_6 -->
<g id="edge9" class="edge">
<title>n_3_6&#45;&gt;n_6</title>
<path fill="none" stroke="black" d="M305.05,-79.29C318.43,-68.67 335.97,-54.75 350.82,-42.96"/>
<polygon fill="black" stroke="black" points="352.82,-45.84 358.47,-36.88 348.46,-40.36 352.82,-45.84"/>
</g>
</g>
</svg>
