<?xml version="1.0" encoding="UTF-8" standalone="no"?>
<!DOCTYPE svg PUBLIC "-//W3C//DTD SVG 1.1//EN"
 "http://www.w3.org/Graphics/SVG/1.1/DTD/svg11.dtd">
<!-- Generated by graphviz version 10.0.1 (20240210.2158)
 -->
<!-- Title: ND Pages: 1 -->
<svg width="576pt" height="638pt"
 viewBox="0.00 0.00 575.50 638.00" xmlns="http://www.w3.org/2000/svg" xmlns:xlink="http://www.w3.org/1999/xlink">
<g id="graph0" class="graph" transform="scale(1 1) rotate(0) translate(4 634)">
<title>ND</title>
<polygon fill="white" stroke="none" points="-4,4 -4,-634 571.5,-634 571.5,4 -4,4"/>
<!-- n_0_1_2_3_4_5_6 -->
<g id="node1" class="node">
<title>n_0_1_2_3_4_5_6</title>
<polygon fill="none" stroke="black" points="370.38,-557 370.38,-625 458.62,-625 458.62,-557 370.38,-557"/>
<text text-anchor="start" x="377.38" y="-610.45" font-family="Times New Roman,serif" font-weight="bold" font-size="9.00">Insufficient weight</text>
<text text-anchor="start" x="399.5" y="-601.45" font-family="Times New Roman,serif" font-weight="bold" font-size="9.00">Normal</text>
<text text-anchor="start" x="389" y="-592.45" font-family="Times New Roman,serif" font-weight="bold" font-size="9.00">Overweight I</text>
<text text-anchor="start" x="396.5" y="-583.45" font-family="Times New Roman,serif" font-weight="bold" font-size="9.00">Obesity I</text>
<text text-anchor="start" x="395" y="-574.45" font-family="Times New Roman,serif" font-weight="bold" font-size="9.00">Obesity II</text>
<text text-anchor="start" x="393.5" y="-565.45" font-family="Times New Roman,serif" font-weight="bold" font-size="9.00">Obesity III</text>
<polygon fill="none" stroke="black" points="458.62,-557 458.62,-625 526.62,-625 526.62,-557 458.62,-557"/>
<text text-anchor="start" x="465.62" y="-589.08" font-family="Times New Roman,serif" font-weight="bold" font-size="9.00">Overweight II</text>
<polygon fill="none" stroke="black" points="369.38,-556 369.38,-626 527.62,-626 527.62,-556 369.38,-556"/>
</g>
<!-- n_0_1_2_4_5_6 -->
<g id="node2" class="node">
<title>n_0_1_2_4_5_6</title>
<polygon fill="none" stroke="black" points="301.88,-445 301.88,-504 390.12,-504 390.12,-445 301.88,-445"/>
<text text-anchor="start" x="308.88" y="-489.45" font-family="Times New Roman,serif" font-weight="bold" font-size="9.00">Insufficient weight</text>
<text text-anchor="start" x="331" y="-480.45" font-family="Times New Roman,serif" font-weight="bold" font-size="9.00">Normal</text>
<text text-anchor="start" x="320.5" y="-471.45" font-family="Times New Roman,serif" font-weight="bold" font-size="9.00">Overweight I</text>
<text text-anchor="start" x="328" y="-462.45" font-family="Times New Roman,serif" font-weight="bold" font-size="9.00">Obesity I</text>
<text text-anchor="start" x="325" y="-453.45" font-family="Times New Roman,serif" font-weight="bold" font-size="9.00">Obesity III</text>
<polygon fill="none" stroke="black" points="390.12,-445 390.12,-504 443.12,-504 443.12,-445 390.12,-445"/>
<text text-anchor="start" x="397.12" y="-472.57" font-family="Times New Roman,serif" font-weight="bold" font-size="9.00">Obesity II</text>
<polygon fill="none" stroke="black" points="300.88,-444 300.88,-505 444.12,-505 444.12,-444 300.88,-444"/>
</g>
<!-- n_0_1_2_3_4_5_6&#45;&gt;n_0_1_2_4_5_6 -->
<g id="edge1" class="edge">
<title>n_0_1_2_3_4_5_6&#45;&gt;n_0_1_2_4_5_6</title>
<path fill="none" stroke="black" d="M423.4,-552.19C416.18,-541.31 408.25,-529.36 400.85,-518.21"/>
<polygon fill="black" stroke="black" points="403.79,-516.31 395.34,-509.91 397.96,-520.18 403.79,-516.31"/>
</g>
<!-- n_3 -->
<g id="node13" class="node">
<title>n_3</title>
<polygon fill="none" stroke="black" points="490.5,-461.88 490.5,-487.12 558.5,-487.12 558.5,-461.88 490.5,-461.88"/>
<text text-anchor="start" x="497.5" y="-472.57" font-family="Times New Roman,serif" font-weight="bold" font-size="9.00">Overweight II</text>
<polygon fill="none" stroke="black" points="489.5,-460.88 489.5,-488.12 559.5,-488.12 559.5,-460.88 489.5,-460.88"/>
</g>
<!-- n_0_1_2_3_4_5_6&#45;&gt;n_3 -->
<g id="edge12" class="edge">
<title>n_0_1_2_3_4_5_6&#45;&gt;n_3</title>
<path fill="none" stroke="black" d="M473.6,-552.19C484.59,-535.63 497.22,-516.6 507.15,-501.64"/>
<polygon fill="black" stroke="black" points="509.79,-503.99 512.4,-493.72 503.96,-500.12 509.79,-503.99"/>
</g>
<!-- n_0_1_2_4_6 -->
<g id="node3" class="node">
<title>n_0_1_2_4_6</title>
<polygon fill="none" stroke="black" points="220.88,-342 220.88,-392 285.88,-392 285.88,-342 220.88,-342"/>
<text text-anchor="start" x="238.38" y="-377.45" font-family="Times New Roman,serif" font-weight="bold" font-size="9.00">Normal</text>
<text text-anchor="start" x="227.88" y="-368.45" font-family="Times New Roman,serif" font-weight="bold" font-size="9.00">Overweight I</text>
<text text-anchor="start" x="235.38" y="-359.45" font-family="Times New Roman,serif" font-weight="bold" font-size="9.00">Obesity I</text>
<text text-anchor="start" x="232.38" y="-350.45" font-family="Times New Roman,serif" font-weight="bold" font-size="9.00">Obesity III</text>
<polygon fill="none" stroke="black" points="285.88,-342 285.88,-392 374.12,-392 374.12,-342 285.88,-342"/>
<text text-anchor="start" x="292.88" y="-365.07" font-family="Times New Roman,serif" font-weight="bold" font-size="9.00">Insufficient weight</text>
<polygon fill="none" stroke="black" points="219.88,-341 219.88,-393 375.12,-393 375.12,-341 219.88,-341"/>
</g>
<!-- n_0_1_2_4_5_6&#45;&gt;n_0_1_2_4_6 -->
<g id="edge2" class="edge">
<title>n_0_1_2_4_5_6&#45;&gt;n_0_1_2_4_6</title>
<path fill="none" stroke="black" d="M348.77,-440.12C341.06,-429.27 332.44,-417.16 324.51,-406"/>
<polygon fill="black" stroke="black" points="327.57,-404.25 318.92,-398.13 321.86,-408.31 327.57,-404.25"/>
</g>
<!-- n_5 -->
<g id="node12" class="node">
<title>n_5</title>
<polygon fill="none" stroke="black" points="421,-354.38 421,-379.62 474,-379.62 474,-354.38 421,-354.38"/>
<text text-anchor="start" x="428" y="-365.07" font-family="Times New Roman,serif" font-weight="bold" font-size="9.00">Obesity II</text>
<polygon fill="none" stroke="black" points="420,-353.38 420,-380.62 475,-380.62 475,-353.38 420,-353.38"/>
</g>
<!-- n_0_1_2_4_5_6&#45;&gt;n_5 -->
<g id="edge11" class="edge">
<title>n_0_1_2_4_5_6&#45;&gt;n_5</title>
<path fill="none" stroke="black" d="M396.23,-440.12C406.83,-425.21 419.14,-407.9 429.03,-393.98"/>
<polygon fill="black" stroke="black" points="431.63,-396.36 434.57,-386.18 425.93,-392.31 431.63,-396.36"/>
</g>
<!-- n_1_2_4_6 -->
<g id="node4" class="node">
<title>n_1_2_4_6</title>
<polygon fill="none" stroke="black" points="166,-248 166,-289 231,-289 231,-248 166,-248"/>
<text text-anchor="start" x="183.5" y="-274.45" font-family="Times New Roman,serif" font-weight="bold" font-size="9.00">Normal</text>
<text text-anchor="start" x="173" y="-265.45" font-family="Times New Roman,serif" font-weight="bold" font-size="9.00">Overweight I</text>
<text text-anchor="start" x="177.5" y="-256.45" font-family="Times New Roman,serif" font-weight="bold" font-size="9.00">Obesity III</text>
<polygon fill="none" stroke="black" points="231,-248 231,-289 281,-289 281,-248 231,-248"/>
<text text-anchor="start" x="238" y="-266.57" font-family="Times New Roman,serif" font-weight="bold" font-size="9.00">Obesity I</text>
<polygon fill="none" stroke="black" points="165,-247 165,-290 282,-290 282,-247 165,-247"/>
</g>
<!-- n_0_1_2_4_6&#45;&gt;n_1_2_4_6 -->
<g id="edge3" class="edge">
<title>n_0_1_2_4_6&#45;&gt;n_1_2_4_6</title>
<path fill="none" stroke="black" d="M275.3,-337.05C267.05,-326.29 257.63,-314 249.1,-302.88"/>
<polygon fill="black" stroke="black" points="251.97,-300.88 243.11,-295.08 246.42,-305.14 251.97,-300.88"/>
</g>
<!-- n_0 -->
<g id="node11" class="node">
<title>n_0</title>
<polygon fill="none" stroke="black" points="328.38,-255.88 328.38,-281.12 416.62,-281.12 416.62,-255.88 328.38,-255.88"/>
<text text-anchor="start" x="335.38" y="-266.57" font-family="Times New Roman,serif" font-weight="bold" font-size="9.00">Insufficient weight</text>
<polygon fill="none" stroke="black" points="327.38,-254.88 327.38,-282.12 417.62,-282.12 417.62,-254.88 327.38,-254.88"/>
</g>
<!-- n_0_1_2_4_6&#45;&gt;n_0 -->
<g id="edge10" class="edge">
<title>n_0_1_2_4_6&#45;&gt;n_0</title>
<path fill="none" stroke="black" d="M320,-337.05C330.35,-323.73 342.52,-308.07 352.54,-295.19"/>
<polygon fill="black" stroke="black" points="355.09,-297.6 358.46,-287.56 349.56,-293.31 355.09,-297.6"/>
</g>
<!-- n_1_2_6 -->
<g id="node5" class="node">
<title>n_1_2_6</title>
<polygon fill="none" stroke="black" points="106,-163 106,-195 171,-195 171,-163 106,-163"/>
<text text-anchor="start" x="113" y="-180.45" font-family="Times New Roman,serif" font-weight="bold" font-size="9.00">Overweight I</text>
<text text-anchor="start" x="117.5" y="-171.45" font-family="Times New Roman,serif" font-weight="bold" font-size="9.00">Obesity III</text>
<polygon fill="none" stroke="black" points="171,-163 171,-195 215,-195 215,-163 171,-163"/>
<text text-anchor="start" x="178" y="-177.07" font-family="Times New Roman,serif" font-weight="bold" font-size="9.00">Normal</text>
<polygon fill="none" stroke="black" points="105,-162 105,-196 216,-196 216,-162 105,-162"/>
</g>
<!-- n_1_2_4_6&#45;&gt;n_1_2_6 -->
<g id="edge4" class="edge">
<title>n_1_2_4_6&#45;&gt;n_1_2_6</title>
<path fill="none" stroke="black" d="M205.95,-243.13C198.35,-232.57 189.39,-220.12 181.44,-209.08"/>
<polygon fill="black" stroke="black" points="184.34,-207.12 175.66,-201.05 178.66,-211.21 184.34,-207.12"/>
</g>
<!-- n_4 -->
<g id="node10" class="node">
<title>n_4</title>
<polygon fill="none" stroke="black" points="262.5,-166.38 262.5,-191.62 312.5,-191.62 312.5,-166.38 262.5,-166.38"/>
<text text-anchor="start" x="269.5" y="-177.07" font-family="Times New Roman,serif" font-weight="bold" font-size="9.00">Obesity I</text>
<polygon fill="none" stroke="black" points="261.5,-165.38 261.5,-192.62 313.5,-192.62 313.5,-165.38 261.5,-165.38"/>
</g>
<!-- n_1_2_4_6&#45;&gt;n_4 -->
<g id="edge9" class="edge">
<title>n_1_2_4_6&#45;&gt;n_4</title>
<path fill="none" stroke="black" d="M241.33,-243.13C249.77,-231.59 259.85,-217.8 268.44,-206.06"/>
<polygon fill="black" stroke="black" points="271.26,-208.13 274.34,-197.99 265.61,-204 271.26,-208.13"/>
</g>
<!-- n_2_6 -->
<g id="node6" class="node">
<title>n_2_6</title>
<polygon fill="none" stroke="black" points="35,-84.38 35,-109.62 100,-109.62 100,-84.38 35,-84.38"/>
<text text-anchor="start" x="42" y="-95.08" font-family="Times New Roman,serif" font-weight="bold" font-size="9.00">Overweight I</text>
<polygon fill="none" stroke="black" points="100,-84.38 100,-109.62 156,-109.62 156,-84.38 100,-84.38"/>
<text text-anchor="start" x="107" y="-95.08" font-family="Times New Roman,serif" font-weight="bold" font-size="9.00">Obesity III</text>
<polygon fill="none" stroke="black" points="34,-83.38 34,-110.62 157,-110.62 157,-83.38 34,-83.38"/>
</g>
<!-- n_1_2_6&#45;&gt;n_2_6 -->
<g id="edge5" class="edge">
<title>n_1_2_6&#45;&gt;n_2_6</title>
<path fill="none" stroke="black" d="M144.43,-158.22C135.97,-147.81 125.5,-134.92 116.42,-123.74"/>
<polygon fill="black" stroke="black" points="119.16,-121.57 110.14,-116.02 113.73,-125.99 119.16,-121.57"/>
</g>
<!-- n_1 -->
<g id="node9" class="node">
<title>n_1</title>
<polygon fill="none" stroke="black" points="203.5,-84.38 203.5,-109.62 247.5,-109.62 247.5,-84.38 203.5,-84.38"/>
<text text-anchor="start" x="210.5" y="-95.08" font-family="Times New Roman,serif" font-weight="bold" font-size="9.00">Normal</text>
<polygon fill="none" stroke="black" points="202.5,-83.38 202.5,-110.62 248.5,-110.62 248.5,-83.38 202.5,-83.38"/>
</g>
<!-- n_1_2_6&#45;&gt;n_1 -->
<g id="edge8" class="edge">
<title>n_1_2_6&#45;&gt;n_1</title>
<path fill="none" stroke="black" d="M176.57,-158.22C185.03,-147.81 195.5,-134.92 204.58,-123.74"/>
<polygon fill="black" stroke="black" points="207.27,-125.99 210.86,-116.02 201.84,-121.57 207.27,-125.99"/>
</g>
<!-- n_2 -->
<g id="node7" class="node">
<title>n_2</title>
<polygon fill="none" stroke="black" points="9,-5.38 9,-30.62 74,-30.62 74,-5.38 9,-5.38"/>
<text text-anchor="start" x="16" y="-16.07" font-family="Times New Roman,serif" font-weight="bold" font-size="9.00">Overweight I</text>
<polygon fill="none" stroke="black" points="8,-4.38 8,-31.62 75,-31.62 75,-4.38 8,-4.38"/>
</g>
<!-- n_2_6&#45;&gt;n_2 -->
<g id="edge6" class="edge">
<title>n_2_6&#45;&gt;n_2</title>
<path fill="none" stroke="black" d="M83.78,-79.29C76.83,-69.37 67.85,-56.57 59.96,-45.32"/>
<polygon fill="black" stroke="black" points="62.86,-43.36 54.25,-37.18 57.13,-47.38 62.86,-43.36"/>
</g>
<!-- n_6 -->
<g id="node8" class="node">
<title>n_6</title>
<polygon fill="none" stroke="black" points="121.5,-5.38 121.5,-30.62 177.5,-30.62 177.5,-5.38 121.5,-5.38"/>
<text text-anchor="start" x="128.5" y="-16.07" font-family="Times New Roman,serif" font-weight="bold" font-size="9.00">Obesity III</text>
<polygon fill="none" stroke="black" points="120.5,-4.38 120.5,-31.62 178.5,-31.62 178.5,-4.38 120.5,-4.38"/>
</g>
<!-- n_2_6&#45;&gt;n_6 -->
<g id="edge7" class="edge">
<title>n_2_6&#45;&gt;n_6</title>
<path fill="none" stroke="black" d="M107.22,-79.29C114.17,-69.37 123.15,-56.57 131.04,-45.32"/>
<polygon fill="black" stroke="black" points="133.87,-47.38 136.75,-37.18 128.14,-43.36 133.87,-47.38"/>
</g>
</g>
</svg>
