<?xml version="1.0" encoding="UTF-8" standalone="no"?>
<!DOCTYPE svg PUBLIC "-//W3C//DTD SVG 1.1//EN"
 "http://www.w3.org/Graphics/SVG/1.1/DTD/svg11.dtd">
<!-- Generated by graphviz version 10.0.1 (20240210.2158)
 -->
<!-- Title: ND Pages: 1 -->
<svg width="597pt" height="638pt"
 viewBox="0.00 0.00 597.12 638.00" xmlns="http://www.w3.org/2000/svg" xmlns:xlink="http://www.w3.org/1999/xlink">
<g id="graph0" class="graph" transform="scale(1 1) rotate(0) translate(4 634)">
<title>ND</title>
<polygon fill="white" stroke="none" points="-4,4 -4,-634 593.12,-634 593.12,4 -4,4"/>
<!-- n_0_1_2_3_4_5_6 -->
<g id="node1" class="node">
<title>n_0_1_2_3_4_5_6</title>
<polygon fill="none" stroke="black" points="411,-557 411,-625 499.25,-625 499.25,-557 411,-557"/>
<text text-anchor="start" x="418" y="-610.45" font-family="Times New Roman,serif" font-weight="bold" font-size="9.00">Insufficient weight</text>
<text text-anchor="start" x="440.12" y="-601.45" font-family="Times New Roman,serif" font-weight="bold" font-size="9.00">Normal</text>
<text text-anchor="start" x="429.62" y="-592.45" font-family="Times New Roman,serif" font-weight="bold" font-size="9.00">Overweight I</text>
<text text-anchor="start" x="428.12" y="-583.45" font-family="Times New Roman,serif" font-weight="bold" font-size="9.00">Overweight II</text>
<text text-anchor="start" x="435.62" y="-574.45" font-family="Times New Roman,serif" font-weight="bold" font-size="9.00">Obesity II</text>
<text text-anchor="start" x="434.12" y="-565.45" font-family="Times New Roman,serif" font-weight="bold" font-size="9.00">Obesity III</text>
<polygon fill="none" stroke="black" points="499.25,-557 499.25,-625 549.25,-625 549.25,-557 499.25,-557"/>
<text text-anchor="start" x="506.25" y="-589.08" font-family="Times New Roman,serif" font-weight="bold" font-size="9.00">Obesity I</text>
<polygon fill="none" stroke="black" points="410,-556 410,-626 550.25,-626 550.25,-556 410,-556"/>
</g>
<!-- n_0_1_2_3_5_6 -->
<g id="node2" class="node">
<title>n_0_1_2_3_5_6</title>
<polygon fill="none" stroke="black" points="329.5,-445 329.5,-504 417.75,-504 417.75,-445 329.5,-445"/>
<text text-anchor="start" x="336.5" y="-489.45" font-family="Times New Roman,serif" font-weight="bold" font-size="9.00">Insufficient weight</text>
<text text-anchor="start" x="358.62" y="-480.45" font-family="Times New Roman,serif" font-weight="bold" font-size="9.00">Normal</text>
<text text-anchor="start" x="346.62" y="-471.45" font-family="Times New Roman,serif" font-weight="bold" font-size="9.00">Overweight II</text>
<text text-anchor="start" x="354.12" y="-462.45" font-family="Times New Roman,serif" font-weight="bold" font-size="9.00">Obesity II</text>
<text text-anchor="start" x="352.62" y="-453.45" font-family="Times New Roman,serif" font-weight="bold" font-size="9.00">Obesity III</text>
<polygon fill="none" stroke="black" points="417.75,-445 417.75,-504 482.75,-504 482.75,-445 417.75,-445"/>
<text text-anchor="start" x="424.75" y="-472.57" font-family="Times New Roman,serif" font-weight="bold" font-size="9.00">Overweight I</text>
<polygon fill="none" stroke="black" points="328.5,-444 328.5,-505 483.75,-505 483.75,-444 328.5,-444"/>
</g>
<!-- n_0_1_2_3_4_5_6&#45;&gt;n_0_1_2_3_5_6 -->
<g id="edge1" class="edge">
<title>n_0_1_2_3_4_5_6&#45;&gt;n_0_1_2_3_5_6</title>
<path fill="none" stroke="black" d="M455.69,-552.19C448.66,-541.31 440.94,-529.36 433.73,-518.21"/>
<polygon fill="black" stroke="black" points="436.74,-516.42 428.37,-509.92 430.86,-520.22 436.74,-516.42"/>
</g>
<!-- n_4 -->
<g id="node13" class="node">
<title>n_4</title>
<polygon fill="none" stroke="black" points="530.12,-461.88 530.12,-487.12 580.12,-487.12 580.12,-461.88 530.12,-461.88"/>
<text text-anchor="start" x="537.12" y="-472.57" font-family="Times New Roman,serif" font-weight="bold" font-size="9.00">Obesity I</text>
<polygon fill="none" stroke="black" points="529.12,-460.88 529.12,-488.12 581.12,-488.12 581.12,-460.88 529.12,-460.88"/>
</g>
<!-- n_0_1_2_3_4_5_6&#45;&gt;n_4 -->
<g id="edge12" class="edge">
<title>n_0_1_2_3_4_5_6&#45;&gt;n_4</title>
<path fill="none" stroke="black" d="M504.89,-552.19C515.64,-535.78 527.97,-516.96 537.72,-502.07"/>
<polygon fill="black" stroke="black" points="540.63,-504.01 543.18,-493.73 534.78,-500.18 540.63,-504.01"/>
</g>
<!-- n_0_1_3_5_6 -->
<g id="node3" class="node">
<title>n_0_1_3_5_6</title>
<polygon fill="none" stroke="black" points="260.5,-342 260.5,-392 348.75,-392 348.75,-342 260.5,-342"/>
<text text-anchor="start" x="267.5" y="-377.45" font-family="Times New Roman,serif" font-weight="bold" font-size="9.00">Insufficient weight</text>
<text text-anchor="start" x="289.62" y="-368.45" font-family="Times New Roman,serif" font-weight="bold" font-size="9.00">Normal</text>
<text text-anchor="start" x="277.62" y="-359.45" font-family="Times New Roman,serif" font-weight="bold" font-size="9.00">Overweight II</text>
<text text-anchor="start" x="283.62" y="-350.45" font-family="Times New Roman,serif" font-weight="bold" font-size="9.00">Obesity III</text>
<polygon fill="none" stroke="black" points="348.75,-342 348.75,-392 401.75,-392 401.75,-342 348.75,-342"/>
<text text-anchor="start" x="355.75" y="-365.07" font-family="Times New Roman,serif" font-weight="bold" font-size="9.00">Obesity II</text>
<polygon fill="none" stroke="black" points="259.5,-341 259.5,-393 402.75,-393 402.75,-341 259.5,-341"/>
</g>
<!-- n_0_1_2_3_5_6&#45;&gt;n_0_1_3_5_6 -->
<g id="edge2" class="edge">
<title>n_0_1_2_3_5_6&#45;&gt;n_0_1_3_5_6</title>
<path fill="none" stroke="black" d="M382.39,-440.12C374.68,-429.27 366.07,-417.16 358.14,-406"/>
<polygon fill="black" stroke="black" points="361.19,-404.25 352.55,-398.13 355.49,-408.31 361.19,-404.25"/>
</g>
<!-- n_2 -->
<g id="node12" class="node">
<title>n_2</title>
<polygon fill="none" stroke="black" points="448.62,-354.38 448.62,-379.62 513.62,-379.62 513.62,-354.38 448.62,-354.38"/>
<text text-anchor="start" x="455.62" y="-365.07" font-family="Times New Roman,serif" font-weight="bold" font-size="9.00">Overweight I</text>
<polygon fill="none" stroke="black" points="447.62,-353.38 447.62,-380.62 514.62,-380.62 514.62,-353.38 447.62,-353.38"/>
</g>
<!-- n_0_1_2_3_5_6&#45;&gt;n_2 -->
<g id="edge11" class="edge">
<title>n_0_1_2_3_5_6&#45;&gt;n_2</title>
<path fill="none" stroke="black" d="M429.86,-440.12C440.46,-425.21 452.76,-407.9 462.66,-393.98"/>
<polygon fill="black" stroke="black" points="465.26,-396.36 468.2,-386.18 459.55,-392.31 465.26,-396.36"/>
</g>
<!-- n_0_1_3_6 -->
<g id="node4" class="node">
<title>n_0_1_3_6</title>
<polygon fill="none" stroke="black" points="186,-248 186,-289 274.25,-289 274.25,-248 186,-248"/>
<text text-anchor="start" x="193" y="-274.45" font-family="Times New Roman,serif" font-weight="bold" font-size="9.00">Insufficient weight</text>
<text text-anchor="start" x="215.12" y="-265.45" font-family="Times New Roman,serif" font-weight="bold" font-size="9.00">Normal</text>
<text text-anchor="start" x="203.12" y="-256.45" font-family="Times New Roman,serif" font-weight="bold" font-size="9.00">Overweight II</text>
<polygon fill="none" stroke="black" points="274.25,-248 274.25,-289 330.25,-289 330.25,-248 274.25,-248"/>
<text text-anchor="start" x="281.25" y="-266.57" font-family="Times New Roman,serif" font-weight="bold" font-size="9.00">Obesity III</text>
<polygon fill="none" stroke="black" points="185,-247 185,-290 331.25,-290 331.25,-247 185,-247"/>
</g>
<!-- n_0_1_3_5_6&#45;&gt;n_0_1_3_6 -->
<g id="edge3" class="edge">
<title>n_0_1_3_5_6&#45;&gt;n_0_1_3_6</title>
<path fill="none" stroke="black" d="M309.22,-337.05C301.09,-326.29 291.79,-314 283.38,-302.88"/>
<polygon fill="black" stroke="black" points="286.3,-300.95 277.48,-295.08 280.72,-305.17 286.3,-300.95"/>
</g>
<!-- n_5 -->
<g id="node11" class="node">
<title>n_5</title>
<polygon fill="none" stroke="black" points="377.62,-255.88 377.62,-281.12 430.62,-281.12 430.62,-255.88 377.62,-255.88"/>
<text text-anchor="start" x="384.62" y="-266.57" font-family="Times New Roman,serif" font-weight="bold" font-size="9.00">Obesity II</text>
<polygon fill="none" stroke="black" points="376.62,-254.88 376.62,-282.12 431.62,-282.12 431.62,-254.88 376.62,-254.88"/>
</g>
<!-- n_0_1_3_5_6&#45;&gt;n_5 -->
<g id="edge10" class="edge">
<title>n_0_1_3_5_6&#45;&gt;n_5</title>
<path fill="none" stroke="black" d="M353.03,-337.05C363.1,-323.73 374.94,-308.07 384.69,-295.19"/>
<polygon fill="black" stroke="black" points="387.21,-297.66 390.45,-287.57 381.63,-293.44 387.21,-297.66"/>
</g>
<!-- n_0_1_3 -->
<g id="node5" class="node">
<title>n_0_1_3</title>
<polygon fill="none" stroke="black" points="104,-163 104,-195 192.25,-195 192.25,-163 104,-163"/>
<text text-anchor="start" x="111" y="-180.45" font-family="Times New Roman,serif" font-weight="bold" font-size="9.00">Insufficient weight</text>
<text text-anchor="start" x="133.12" y="-171.45" font-family="Times New Roman,serif" font-weight="bold" font-size="9.00">Normal</text>
<polygon fill="none" stroke="black" points="192.25,-163 192.25,-195 260.25,-195 260.25,-163 192.25,-163"/>
<text text-anchor="start" x="199.25" y="-177.07" font-family="Times New Roman,serif" font-weight="bold" font-size="9.00">Overweight II</text>
<polygon fill="none" stroke="black" points="103,-162 103,-196 261.25,-196 261.25,-162 103,-162"/>
</g>
<!-- n_0_1_3_6&#45;&gt;n_0_1_3 -->
<g id="edge4" class="edge">
<title>n_0_1_3_6&#45;&gt;n_0_1_3</title>
<path fill="none" stroke="black" d="M236.95,-243.13C227.6,-232.35 216.53,-219.62 206.8,-208.41"/>
<polygon fill="black" stroke="black" points="209.54,-206.22 200.34,-200.97 204.25,-210.81 209.54,-206.22"/>
</g>
<!-- n_6 -->
<g id="node10" class="node">
<title>n_6</title>
<polygon fill="none" stroke="black" points="307.12,-166.38 307.12,-191.62 363.12,-191.62 363.12,-166.38 307.12,-166.38"/>
<text text-anchor="start" x="314.12" y="-177.07" font-family="Times New Roman,serif" font-weight="bold" font-size="9.00">Obesity III</text>
<polygon fill="none" stroke="black" points="306.12,-165.38 306.12,-192.62 364.12,-192.62 364.12,-165.38 306.12,-165.38"/>
</g>
<!-- n_0_1_3_6&#45;&gt;n_6 -->
<g id="edge9" class="edge">
<title>n_0_1_3_6&#45;&gt;n_6</title>
<path fill="none" stroke="black" d="M279.57,-243.13C289.93,-231.36 302.34,-217.25 312.81,-205.36"/>
<polygon fill="black" stroke="black" points="315.39,-207.73 319.37,-197.91 310.13,-203.1 315.39,-207.73"/>
</g>
<!-- n_0_1 -->
<g id="node6" class="node">
<title>n_0_1</title>
<polygon fill="none" stroke="black" points="43,-84.38 43,-109.62 131.25,-109.62 131.25,-84.38 43,-84.38"/>
<text text-anchor="start" x="50" y="-95.08" font-family="Times New Roman,serif" font-weight="bold" font-size="9.00">Insufficient weight</text>
<polygon fill="none" stroke="black" points="131.25,-84.38 131.25,-109.62 175.25,-109.62 175.25,-84.38 131.25,-84.38"/>
<text text-anchor="start" x="138.25" y="-95.08" font-family="Times New Roman,serif" font-weight="bold" font-size="9.00">Normal</text>
<polygon fill="none" stroke="black" points="42,-83.38 42,-110.62 176.25,-110.62 176.25,-83.38 42,-83.38"/>
</g>
<!-- n_0_1_3&#45;&gt;n_0_1 -->
<g id="edge5" class="edge">
<title>n_0_1_3&#45;&gt;n_0_1</title>
<path fill="none" stroke="black" d="M164.08,-158.22C154.39,-147.61 142.35,-134.41 132,-123.07"/>
<polygon fill="black" stroke="black" points="134.84,-120.99 125.52,-115.96 129.67,-125.71 134.84,-120.99"/>
</g>
<!-- n_3 -->
<g id="node9" class="node">
<title>n_3</title>
<polygon fill="none" stroke="black" points="222.12,-84.38 222.12,-109.62 290.12,-109.62 290.12,-84.38 222.12,-84.38"/>
<text text-anchor="start" x="229.12" y="-95.08" font-family="Times New Roman,serif" font-weight="bold" font-size="9.00">Overweight II</text>
<polygon fill="none" stroke="black" points="221.12,-83.38 221.12,-110.62 291.12,-110.62 291.12,-83.38 221.12,-83.38"/>
</g>
<!-- n_0_1_3&#45;&gt;n_3 -->
<g id="edge8" class="edge">
<title>n_0_1_3&#45;&gt;n_3</title>
<path fill="none" stroke="black" d="M200.42,-158.22C210.24,-147.61 222.45,-134.41 232.93,-123.07"/>
<polygon fill="black" stroke="black" points="235.3,-125.67 239.52,-115.95 230.16,-120.92 235.3,-125.67"/>
</g>
<!-- n_0 -->
<g id="node7" class="node">
<title>n_0</title>
<polygon fill="none" stroke="black" points="9,-5.38 9,-30.62 97.25,-30.62 97.25,-5.38 9,-5.38"/>
<text text-anchor="start" x="16" y="-16.07" font-family="Times New Roman,serif" font-weight="bold" font-size="9.00">Insufficient weight</text>
<polygon fill="none" stroke="black" points="8,-4.38 8,-31.62 98.25,-31.62 98.25,-4.38 8,-4.38"/>
</g>
<!-- n_0_1&#45;&gt;n_0 -->
<g id="edge6" class="edge">
<title>n_0_1&#45;&gt;n_0</title>
<path fill="none" stroke="black" d="M96.97,-79.29C89.69,-69.27 80.26,-56.31 72.02,-44.98"/>
<polygon fill="black" stroke="black" points="75.05,-43.19 66.34,-37.17 69.39,-47.31 75.05,-43.19"/>
</g>
<!-- n_1 -->
<g id="node8" class="node">
<title>n_1</title>
<polygon fill="none" stroke="black" points="144.12,-5.38 144.12,-30.62 188.12,-30.62 188.12,-5.38 144.12,-5.38"/>
<text text-anchor="start" x="151.12" y="-16.07" font-family="Times New Roman,serif" font-weight="bold" font-size="9.00">Normal</text>
<polygon fill="none" stroke="black" points="143.12,-4.38 143.12,-31.62 189.12,-31.62 189.12,-4.38 143.12,-4.38"/>
</g>
<!-- n_0_1&#45;&gt;n_1 -->
<g id="edge7" class="edge">
<title>n_0_1&#45;&gt;n_1</title>
<path fill="none" stroke="black" d="M121.49,-79.29C128.91,-69.27 138.5,-56.31 146.89,-44.98"/>
<polygon fill="black" stroke="black" points="149.55,-47.28 152.68,-37.16 143.92,-43.11 149.55,-47.28"/>
</g>
</g>
</svg>
