<?xml version="1.0" encoding="UTF-8" standalone="no"?>
<!DOCTYPE svg PUBLIC "-//W3C//DTD SVG 1.1//EN"
 "http://www.w3.org/Graphics/SVG/1.1/DTD/svg11.dtd">
<!-- Generated by graphviz version 10.0.1 (20240210.2158)
 -->
<!-- Title: ND Pages: 1 -->
<svg width="720pt" height="414pt"
 viewBox="0.00 0.00 720.12 414.00" xmlns="http://www.w3.org/2000/svg" xmlns:xlink="http://www.w3.org/1999/xlink">
<g id="graph0" class="graph" transform="scale(1 1) rotate(0) translate(4 410)">
<title>ND</title>
<polygon fill="white" stroke="none" points="-4,4 -4,-410 716.12,-410 716.12,4 -4,4"/>
<!-- n_0_1_2_3_4_5_6 -->
<g id="node1" class="node">
<title>n_0_1_2_3_4_5_6</title>
<polygon fill="none" stroke="black" points="418.5,-342 418.5,-401 506.75,-401 506.75,-342 418.5,-342"/>
<text text-anchor="start" x="425.5" y="-386.45" font-family="Times New Roman,serif" font-weight="bold" font-size="9.00">Insufficient weight</text>
<text text-anchor="start" x="447.62" y="-377.45" font-family="Times New Roman,serif" font-weight="bold" font-size="9.00">Normal</text>
<text text-anchor="start" x="435.62" y="-368.45" font-family="Times New Roman,serif" font-weight="bold" font-size="9.00">Overweight II</text>
<text text-anchor="start" x="443.12" y="-359.45" font-family="Times New Roman,serif" font-weight="bold" font-size="9.00">Obesity II</text>
<text text-anchor="start" x="441.62" y="-350.45" font-family="Times New Roman,serif" font-weight="bold" font-size="9.00">Obesity III</text>
<polygon fill="none" stroke="black" points="506.75,-342 506.75,-401 571.75,-401 571.75,-342 506.75,-342"/>
<text text-anchor="start" x="513.75" y="-372.95" font-family="Times New Roman,serif" font-weight="bold" font-size="9.00">Overweight I</text>
<text text-anchor="start" x="521.25" y="-363.95" font-family="Times New Roman,serif" font-weight="bold" font-size="9.00">Obesity I</text>
<polygon fill="none" stroke="black" points="417.5,-341 417.5,-402 572.75,-402 572.75,-341 417.5,-341"/>
</g>
<!-- n_0_1_3_5_6 -->
<g id="node2" class="node">
<title>n_0_1_3_5_6</title>
<polygon fill="none" stroke="black" points="335,-248 335,-289 423.25,-289 423.25,-248 335,-248"/>
<text text-anchor="start" x="342" y="-274.45" font-family="Times New Roman,serif" font-weight="bold" font-size="9.00">Insufficient weight</text>
<text text-anchor="start" x="364.12" y="-265.45" font-family="Times New Roman,serif" font-weight="bold" font-size="9.00">Normal</text>
<text text-anchor="start" x="352.12" y="-256.45" font-family="Times New Roman,serif" font-weight="bold" font-size="9.00">Overweight II</text>
<polygon fill="none" stroke="black" points="423.25,-248 423.25,-289 479.25,-289 479.25,-248 423.25,-248"/>
<text text-anchor="start" x="431.75" y="-269.95" font-family="Times New Roman,serif" font-weight="bold" font-size="9.00">Obesity II</text>
<text text-anchor="start" x="430.25" y="-260.95" font-family="Times New Roman,serif" font-weight="bold" font-size="9.00">Obesity III</text>
<polygon fill="none" stroke="black" points="334,-247 334,-290 480.25,-290 480.25,-247 334,-247"/>
</g>
<!-- n_0_1_2_3_4_5_6&#45;&gt;n_0_1_3_5_6 -->
<g id="edge1" class="edge">
<title>n_0_1_2_3_4_5_6&#45;&gt;n_0_1_3_5_6</title>
<path fill="none" stroke="black" d="M466.07,-337.15C456.35,-326 445.53,-313.58 435.84,-302.45"/>
<polygon fill="black" stroke="black" points="438.55,-300.24 429.34,-295 433.27,-304.84 438.55,-300.24"/>
</g>
<!-- n_2_4 -->
<g id="node11" class="node">
<title>n_2_4</title>
<polygon fill="none" stroke="black" points="526.62,-255.88 526.62,-281.12 591.62,-281.12 591.62,-255.88 526.62,-255.88"/>
<text text-anchor="start" x="533.62" y="-266.57" font-family="Times New Roman,serif" font-weight="bold" font-size="9.00">Overweight I</text>
<polygon fill="none" stroke="black" points="591.62,-255.88 591.62,-281.12 641.62,-281.12 641.62,-255.88 591.62,-255.88"/>
<text text-anchor="start" x="598.62" y="-266.57" font-family="Times New Roman,serif" font-weight="bold" font-size="9.00">Obesity I</text>
<polygon fill="none" stroke="black" points="525.62,-254.88 525.62,-282.12 642.62,-282.12 642.62,-254.88 525.62,-254.88"/>
</g>
<!-- n_0_1_2_3_4_5_6&#45;&gt;n_2_4 -->
<g id="edge10" class="edge">
<title>n_0_1_2_3_4_5_6&#45;&gt;n_2_4</title>
<path fill="none" stroke="black" d="M524.51,-337.15C536.69,-323.33 550.58,-307.57 561.89,-294.74"/>
<polygon fill="black" stroke="black" points="564.26,-297.33 568.25,-287.52 559.01,-292.7 564.26,-297.33"/>
</g>
<!-- n_0_1_3 -->
<g id="node3" class="node">
<title>n_0_1_3</title>
<polygon fill="none" stroke="black" points="160,-163 160,-195 248.25,-195 248.25,-163 160,-163"/>
<text text-anchor="start" x="167" y="-180.45" font-family="Times New Roman,serif" font-weight="bold" font-size="9.00">Insufficient weight</text>
<text text-anchor="start" x="189.12" y="-171.45" font-family="Times New Roman,serif" font-weight="bold" font-size="9.00">Normal</text>
<polygon fill="none" stroke="black" points="248.25,-163 248.25,-195 316.25,-195 316.25,-163 248.25,-163"/>
<text text-anchor="start" x="255.25" y="-177.07" font-family="Times New Roman,serif" font-weight="bold" font-size="9.00">Overweight II</text>
<polygon fill="none" stroke="black" points="159,-162 159,-196 317.25,-196 317.25,-162 159,-162"/>
</g>
<!-- n_0_1_3_5_6&#45;&gt;n_0_1_3 -->
<g id="edge2" class="edge">
<title>n_0_1_3_5_6&#45;&gt;n_0_1_3</title>
<path fill="none" stroke="black" d="M360.05,-243.13C337.16,-231.28 309.69,-217.05 286.62,-205.11"/>
<polygon fill="black" stroke="black" points="288.53,-202.15 278.04,-200.66 285.31,-208.37 288.53,-202.15"/>
</g>
<!-- n_5_6 -->
<g id="node8" class="node">
<title>n_5_6</title>
<polygon fill="none" stroke="black" points="363.62,-166.38 363.62,-191.62 416.62,-191.62 416.62,-166.38 363.62,-166.38"/>
<text text-anchor="start" x="370.62" y="-177.07" font-family="Times New Roman,serif" font-weight="bold" font-size="9.00">Obesity II</text>
<polygon fill="none" stroke="black" points="416.62,-166.38 416.62,-191.62 472.62,-191.62 472.62,-166.38 416.62,-166.38"/>
<text text-anchor="start" x="423.62" y="-177.07" font-family="Times New Roman,serif" font-weight="bold" font-size="9.00">Obesity III</text>
<polygon fill="none" stroke="black" points="362.62,-165.38 362.62,-192.62 473.62,-192.62 473.62,-165.38 362.62,-165.38"/>
</g>
<!-- n_0_1_3_5_6&#45;&gt;n_5_6 -->
<g id="edge7" class="edge">
<title>n_0_1_3_5_6&#45;&gt;n_5_6</title>
<path fill="none" stroke="black" d="M410.19,-243.13C411.57,-232.17 413.2,-219.18 414.63,-207.84"/>
<polygon fill="black" stroke="black" points="418.05,-208.63 415.83,-198.27 411.11,-207.76 418.05,-208.63"/>
</g>
<!-- n_0_1 -->
<g id="node4" class="node">
<title>n_0_1</title>
<polygon fill="none" stroke="black" points="43,-84.38 43,-109.62 131.25,-109.62 131.25,-84.38 43,-84.38"/>
<text text-anchor="start" x="50" y="-95.08" font-family="Times New Roman,serif" font-weight="bold" font-size="9.00">Insufficient weight</text>
<polygon fill="none" stroke="black" points="131.25,-84.38 131.25,-109.62 175.25,-109.62 175.25,-84.38 131.25,-84.38"/>
<text text-anchor="start" x="138.25" y="-95.08" font-family="Times New Roman,serif" font-weight="bold" font-size="9.00">Normal</text>
<polygon fill="none" stroke="black" points="42,-83.38 42,-110.62 176.25,-110.62 176.25,-83.38 42,-83.38"/>
</g>
<!-- n_0_1_3&#45;&gt;n_0_1 -->
<g id="edge3" class="edge">
<title>n_0_1_3&#45;&gt;n_0_1</title>
<path fill="none" stroke="black" d="M205.91,-158.02C187.69,-146.72 164.84,-132.55 145.92,-120.82"/>
<polygon fill="black" stroke="black" points="147.78,-117.85 137.43,-115.56 144.09,-123.8 147.78,-117.85"/>
</g>
<!-- n_3 -->
<g id="node7" class="node">
<title>n_3</title>
<polygon fill="none" stroke="black" points="222.12,-84.38 222.12,-109.62 290.12,-109.62 290.12,-84.38 222.12,-84.38"/>
<text text-anchor="start" x="229.12" y="-95.08" font-family="Times New Roman,serif" font-weight="bold" font-size="9.00">Overweight II</text>
<polygon fill="none" stroke="black" points="221.12,-83.38 221.12,-110.62 291.12,-110.62 291.12,-83.38 221.12,-83.38"/>
</g>
<!-- n_0_1_3&#45;&gt;n_3 -->
<g id="edge6" class="edge">
<title>n_0_1_3&#45;&gt;n_3</title>
<path fill="none" stroke="black" d="M242.57,-158.22C244.78,-148.44 247.47,-136.46 249.88,-125.77"/>
<polygon fill="black" stroke="black" points="253.22,-126.84 252,-116.32 246.39,-125.31 253.22,-126.84"/>
</g>
<!-- n_0 -->
<g id="node5" class="node">
<title>n_0</title>
<polygon fill="none" stroke="black" points="9,-5.38 9,-30.62 97.25,-30.62 97.25,-5.38 9,-5.38"/>
<text text-anchor="start" x="16" y="-16.07" font-family="Times New Roman,serif" font-weight="bold" font-size="9.00">Insufficient weight</text>
<polygon fill="none" stroke="black" points="8,-4.38 8,-31.62 98.25,-31.62 98.25,-4.38 8,-4.38"/>
</g>
<!-- n_0_1&#45;&gt;n_0 -->
<g id="edge4" class="edge">
<title>n_0_1&#45;&gt;n_0</title>
<path fill="none" stroke="black" d="M96.97,-79.29C89.69,-69.27 80.26,-56.31 72.02,-44.98"/>
<polygon fill="black" stroke="black" points="75.05,-43.19 66.34,-37.17 69.39,-47.31 75.05,-43.19"/>
</g>
<!-- n_1 -->
<g id="node6" class="node">
<title>n_1</title>
<polygon fill="none" stroke="black" points="144.12,-5.38 144.12,-30.62 188.12,-30.62 188.12,-5.38 144.12,-5.38"/>
<text text-anchor="start" x="151.12" y="-16.07" font-family="Times New Roman,serif" font-weight="bold" font-size="9.00">Normal</text>
<polygon fill="none" stroke="black" points="143.12,-4.38 143.12,-31.62 189.12,-31.62 189.12,-4.38 143.12,-4.38"/>
</g>
<!-- n_0_1&#45;&gt;n_1 -->
<g id="edge5" class="edge">
<title>n_0_1&#45;&gt;n_1</title>
<path fill="none" stroke="black" d="M121.49,-79.29C128.91,-69.27 138.5,-56.31 146.89,-44.98"/>
<polygon fill="black" stroke="black" points="149.55,-47.28 152.68,-37.16 143.92,-43.11 149.55,-47.28"/>
</g>
<!-- n_5 -->
<g id="node9" class="node">
<title>n_5</title>
<polygon fill="none" stroke="black" points="373.62,-84.38 373.62,-109.62 426.62,-109.62 426.62,-84.38 373.62,-84.38"/>
<text text-anchor="start" x="380.62" y="-95.08" font-family="Times New Roman,serif" font-weight="bold" font-size="9.00">Obesity II</text>
<polygon fill="none" stroke="black" points="372.62,-83.38 372.62,-110.62 427.62,-110.62 427.62,-83.38 372.62,-83.38"/>
</g>
<!-- n_5_6&#45;&gt;n_5 -->
<g id="edge8" class="edge">
<title>n_5_6&#45;&gt;n_5</title>
<path fill="none" stroke="black" d="M414.31,-161.03C412.02,-150.85 409.05,-137.65 406.42,-125.96"/>
<polygon fill="black" stroke="black" points="409.88,-125.41 404.27,-116.42 403.05,-126.94 409.88,-125.41"/>
</g>
<!-- n_6 -->
<g id="node10" class="node">
<title>n_6</title>
<polygon fill="none" stroke="black" points="474.12,-84.38 474.12,-109.62 530.12,-109.62 530.12,-84.38 474.12,-84.38"/>
<text text-anchor="start" x="481.12" y="-95.08" font-family="Times New Roman,serif" font-weight="bold" font-size="9.00">Obesity III</text>
<polygon fill="none" stroke="black" points="473.12,-83.38 473.12,-110.62 531.12,-110.62 531.12,-83.38 473.12,-83.38"/>
</g>
<!-- n_5_6&#45;&gt;n_6 -->
<g id="edge9" class="edge">
<title>n_5_6&#45;&gt;n_6</title>
<path fill="none" stroke="black" d="M435.94,-161.03C447.63,-149.9 463.12,-135.15 476.17,-122.71"/>
<polygon fill="black" stroke="black" points="478.41,-125.42 483.24,-115.99 473.59,-120.35 478.41,-125.42"/>
</g>
<!-- n_2 -->
<g id="node12" class="node">
<title>n_2</title>
<polygon fill="none" stroke="black" points="540.62,-166.38 540.62,-191.62 605.62,-191.62 605.62,-166.38 540.62,-166.38"/>
<text text-anchor="start" x="547.62" y="-177.07" font-family="Times New Roman,serif" font-weight="bold" font-size="9.00">Overweight I</text>
<polygon fill="none" stroke="black" points="539.62,-165.38 539.62,-192.62 606.62,-192.62 606.62,-165.38 539.62,-165.38"/>
</g>
<!-- n_2_4&#45;&gt;n_2 -->
<g id="edge11" class="edge">
<title>n_2_4&#45;&gt;n_2</title>
<path fill="none" stroke="black" d="M582,-250.63C580.48,-238.52 578.4,-221.94 576.63,-207.88"/>
<polygon fill="black" stroke="black" points="580.15,-207.81 575.43,-198.32 573.2,-208.68 580.15,-207.81"/>
</g>
<!-- n_4 -->
<g id="node13" class="node">
<title>n_4</title>
<polygon fill="none" stroke="black" points="653.12,-166.38 653.12,-191.62 703.12,-191.62 703.12,-166.38 653.12,-166.38"/>
<text text-anchor="start" x="660.12" y="-177.07" font-family="Times New Roman,serif" font-weight="bold" font-size="9.00">Obesity I</text>
<polygon fill="none" stroke="black" points="652.12,-165.38 652.12,-192.62 704.12,-192.62 704.12,-165.38 652.12,-165.38"/>
</g>
<!-- n_2_4&#45;&gt;n_4 -->
<g id="edge12" class="edge">
<title>n_2_4&#45;&gt;n_4</title>
<path fill="none" stroke="black" d="M602.25,-250.63C616.29,-237.56 635.95,-219.25 651.74,-204.56"/>
<polygon fill="black" stroke="black" points="654.01,-207.23 658.95,-197.85 649.24,-202.1 654.01,-207.23"/>
</g>
</g>
</svg>
