<?xml version="1.0" encoding="UTF-8" standalone="no"?>
<!DOCTYPE svg PUBLIC "-//W3C//DTD SVG 1.1//EN"
 "http://www.w3.org/Graphics/SVG/1.1/DTD/svg11.dtd">
<!-- Generated by graphviz version 10.0.1 (20240210.2158)
 -->
<!-- Title: ND Pages: 1 -->
<svg width="544pt" height="423pt"
 viewBox="0.00 0.00 543.62 423.00" xmlns="http://www.w3.org/2000/svg" xmlns:xlink="http://www.w3.org/1999/xlink">
<g id="graph0" class="graph" transform="scale(1 1) rotate(0) translate(4 419)">
<title>ND</title>
<polygon fill="white" stroke="none" points="-4,4 -4,-419 539.62,-419 539.62,4 -4,4"/>
<!-- n_0_1_2_3_4_5_6 -->
<g id="node1" class="node">
<title>n_0_1_2_3_4_5_6</title>
<polygon fill="none" stroke="black" points="303.5,-342 303.5,-410 391.75,-410 391.75,-342 303.5,-342"/>
<text text-anchor="start" x="310.5" y="-395.45" font-family="Times New Roman,serif" font-weight="bold" font-size="9.00">Insufficient weight</text>
<text text-anchor="start" x="332.62" y="-386.45" font-family="Times New Roman,serif" font-weight="bold" font-size="9.00">Normal</text>
<text text-anchor="start" x="322.12" y="-377.45" font-family="Times New Roman,serif" font-weight="bold" font-size="9.00">Overweight I</text>
<text text-anchor="start" x="329.62" y="-368.45" font-family="Times New Roman,serif" font-weight="bold" font-size="9.00">Obesity I</text>
<text text-anchor="start" x="328.12" y="-359.45" font-family="Times New Roman,serif" font-weight="bold" font-size="9.00">Obesity II</text>
<text text-anchor="start" x="326.62" y="-350.45" font-family="Times New Roman,serif" font-weight="bold" font-size="9.00">Obesity III</text>
<polygon fill="none" stroke="black" points="391.75,-342 391.75,-410 459.75,-410 459.75,-342 391.75,-342"/>
<text text-anchor="start" x="398.75" y="-374.07" font-family="Times New Roman,serif" font-weight="bold" font-size="9.00">Overweight II</text>
<polygon fill="none" stroke="black" points="302.5,-341 302.5,-411 460.75,-411 460.75,-341 302.5,-341"/>
</g>
<!-- n_0_1_2_4_5_6 -->
<g id="node2" class="node">
<title>n_0_1_2_4_5_6</title>
<polygon fill="none" stroke="black" points="233.5,-248 233.5,-289 321.75,-289 321.75,-248 233.5,-248"/>
<text text-anchor="start" x="240.5" y="-274.45" font-family="Times New Roman,serif" font-weight="bold" font-size="9.00">Insufficient weight</text>
<text text-anchor="start" x="252.12" y="-265.45" font-family="Times New Roman,serif" font-weight="bold" font-size="9.00">Overweight I</text>
<text text-anchor="start" x="258.12" y="-256.45" font-family="Times New Roman,serif" font-weight="bold" font-size="9.00">Obesity II</text>
<polygon fill="none" stroke="black" points="321.75,-248 321.75,-289 377.75,-289 377.75,-248 321.75,-248"/>
<text text-anchor="start" x="334.75" y="-274.45" font-family="Times New Roman,serif" font-weight="bold" font-size="9.00">Normal</text>
<text text-anchor="start" x="331.75" y="-265.45" font-family="Times New Roman,serif" font-weight="bold" font-size="9.00">Obesity I</text>
<text text-anchor="start" x="328.75" y="-256.45" font-family="Times New Roman,serif" font-weight="bold" font-size="9.00">Obesity III</text>
<polygon fill="none" stroke="black" points="232.5,-247 232.5,-290 378.75,-290 378.75,-247 232.5,-247"/>
</g>
<!-- n_0_1_2_3_4_5_6&#45;&gt;n_0_1_2_4_5_6 -->
<g id="edge1" class="edge">
<title>n_0_1_2_3_4_5_6&#45;&gt;n_0_1_2_4_5_6</title>
<path fill="none" stroke="black" d="M354.4,-337.21C346.36,-326.05 337.62,-313.92 329.79,-303.05"/>
<polygon fill="black" stroke="black" points="332.75,-301.17 324.07,-295.1 327.07,-305.26 332.75,-301.17"/>
</g>
<!-- n_3 -->
<g id="node13" class="node">
<title>n_3</title>
<polygon fill="none" stroke="black" points="424.62,-255.88 424.62,-281.12 492.62,-281.12 492.62,-255.88 424.62,-255.88"/>
<text text-anchor="start" x="431.62" y="-266.57" font-family="Times New Roman,serif" font-weight="bold" font-size="9.00">Overweight II</text>
<polygon fill="none" stroke="black" points="423.62,-254.88 423.62,-282.12 493.62,-282.12 493.62,-254.88 423.62,-254.88"/>
</g>
<!-- n_0_1_2_3_4_5_6&#45;&gt;n_3 -->
<g id="edge12" class="edge">
<title>n_0_1_2_3_4_5_6&#45;&gt;n_3</title>
<path fill="none" stroke="black" d="M409.21,-337.21C419.32,-323.36 430.52,-308.01 439.7,-295.43"/>
<polygon fill="black" stroke="black" points="442.32,-297.78 445.38,-287.64 436.66,-293.65 442.32,-297.78"/>
</g>
<!-- n_0_2_5 -->
<g id="node3" class="node">
<title>n_0_2_5</title>
<polygon fill="none" stroke="black" points="142,-163 142,-195 230.25,-195 230.25,-163 142,-163"/>
<text text-anchor="start" x="149" y="-180.45" font-family="Times New Roman,serif" font-weight="bold" font-size="9.00">Insufficient weight</text>
<text text-anchor="start" x="166.62" y="-171.45" font-family="Times New Roman,serif" font-weight="bold" font-size="9.00">Obesity II</text>
<polygon fill="none" stroke="black" points="230.25,-163 230.25,-195 295.25,-195 295.25,-163 230.25,-163"/>
<text text-anchor="start" x="237.25" y="-177.07" font-family="Times New Roman,serif" font-weight="bold" font-size="9.00">Overweight I</text>
<polygon fill="none" stroke="black" points="141,-162 141,-196 296.25,-196 296.25,-162 141,-162"/>
</g>
<!-- n_0_1_2_4_5_6&#45;&gt;n_0_2_5 -->
<g id="edge2" class="edge">
<title>n_0_1_2_4_5_6&#45;&gt;n_0_2_5</title>
<path fill="none" stroke="black" d="M281.39,-243.13C270.47,-232.14 257.51,-219.11 246.22,-207.75"/>
<polygon fill="black" stroke="black" points="248.94,-205.52 239.4,-200.9 243.97,-210.46 248.94,-205.52"/>
</g>
<!-- n_1_4_6 -->
<g id="node8" class="node">
<title>n_1_4_6</title>
<polygon fill="none" stroke="black" points="342.62,-163 342.62,-195 398.62,-195 398.62,-163 342.62,-163"/>
<text text-anchor="start" x="352.62" y="-180.45" font-family="Times New Roman,serif" font-weight="bold" font-size="9.00">Obesity I</text>
<text text-anchor="start" x="349.62" y="-171.45" font-family="Times New Roman,serif" font-weight="bold" font-size="9.00">Obesity III</text>
<polygon fill="none" stroke="black" points="398.62,-163 398.62,-195 442.62,-195 442.62,-163 398.62,-163"/>
<text text-anchor="start" x="405.62" y="-177.07" font-family="Times New Roman,serif" font-weight="bold" font-size="9.00">Normal</text>
<polygon fill="none" stroke="black" points="341.62,-162 341.62,-196 443.62,-196 443.62,-162 341.62,-162"/>
</g>
<!-- n_0_1_2_4_5_6&#45;&gt;n_1_4_6 -->
<g id="edge7" class="edge">
<title>n_0_1_2_4_5_6&#45;&gt;n_1_4_6</title>
<path fill="none" stroke="black" d="M329.86,-243.13C340.78,-232.14 353.74,-219.11 365.03,-207.75"/>
<polygon fill="black" stroke="black" points="367.28,-210.46 371.85,-200.9 362.31,-205.52 367.28,-210.46"/>
</g>
<!-- n_0_5 -->
<g id="node4" class="node">
<title>n_0_5</title>
<polygon fill="none" stroke="black" points="9,-84.38 9,-109.62 97.25,-109.62 97.25,-84.38 9,-84.38"/>
<text text-anchor="start" x="16" y="-95.08" font-family="Times New Roman,serif" font-weight="bold" font-size="9.00">Insufficient weight</text>
<polygon fill="none" stroke="black" points="97.25,-84.38 97.25,-109.62 150.25,-109.62 150.25,-84.38 97.25,-84.38"/>
<text text-anchor="start" x="104.25" y="-95.08" font-family="Times New Roman,serif" font-weight="bold" font-size="9.00">Obesity II</text>
<polygon fill="none" stroke="black" points="8,-83.38 8,-110.62 151.25,-110.62 151.25,-83.38 8,-83.38"/>
</g>
<!-- n_0_2_5&#45;&gt;n_0_5 -->
<g id="edge3" class="edge">
<title>n_0_2_5&#45;&gt;n_0_5</title>
<path fill="none" stroke="black" d="M183.91,-158.02C164.1,-146.62 139.2,-132.29 118.71,-120.49"/>
<polygon fill="black" stroke="black" points="120.47,-117.47 110.05,-115.51 116.98,-123.54 120.47,-117.47"/>
</g>
<!-- n_2 -->
<g id="node7" class="node">
<title>n_2</title>
<polygon fill="none" stroke="black" points="197.12,-84.38 197.12,-109.62 262.12,-109.62 262.12,-84.38 197.12,-84.38"/>
<text text-anchor="start" x="204.12" y="-95.08" font-family="Times New Roman,serif" font-weight="bold" font-size="9.00">Overweight I</text>
<polygon fill="none" stroke="black" points="196.12,-83.38 196.12,-110.62 263.12,-110.62 263.12,-83.38 196.12,-83.38"/>
</g>
<!-- n_0_2_5&#45;&gt;n_2 -->
<g id="edge6" class="edge">
<title>n_0_2_5&#45;&gt;n_2</title>
<path fill="none" stroke="black" d="M221.34,-158.22C222.68,-148.54 224.3,-136.72 225.76,-126.11"/>
<polygon fill="black" stroke="black" points="229.21,-126.73 227.1,-116.34 222.27,-125.77 229.21,-126.73"/>
</g>
<!-- n_0 -->
<g id="node5" class="node">
<title>n_0</title>
<polygon fill="none" stroke="black" points="18.5,-5.38 18.5,-30.62 106.75,-30.62 106.75,-5.38 18.5,-5.38"/>
<text text-anchor="start" x="25.5" y="-16.07" font-family="Times New Roman,serif" font-weight="bold" font-size="9.00">Insufficient weight</text>
<polygon fill="none" stroke="black" points="17.5,-4.38 17.5,-31.62 107.75,-31.62 107.75,-4.38 17.5,-4.38"/>
</g>
<!-- n_0_5&#45;&gt;n_0 -->
<g id="edge4" class="edge">
<title>n_0_5&#45;&gt;n_0</title>
<path fill="none" stroke="black" d="M75.94,-79.29C73.86,-69.87 71.2,-57.86 68.81,-47.04"/>
<polygon fill="black" stroke="black" points="72.27,-46.43 66.69,-37.42 65.43,-47.94 72.27,-46.43"/>
</g>
<!-- n_5 -->
<g id="node6" class="node">
<title>n_5</title>
<polygon fill="none" stroke="black" points="154.12,-5.38 154.12,-30.62 207.12,-30.62 207.12,-5.38 154.12,-5.38"/>
<text text-anchor="start" x="161.12" y="-16.07" font-family="Times New Roman,serif" font-weight="bold" font-size="9.00">Obesity II</text>
<polygon fill="none" stroke="black" points="153.12,-4.38 153.12,-31.62 208.12,-31.62 208.12,-4.38 153.12,-4.38"/>
</g>
<!-- n_0_5&#45;&gt;n_5 -->
<g id="edge5" class="edge">
<title>n_0_5&#45;&gt;n_5</title>
<path fill="none" stroke="black" d="M101.54,-79.29C115.61,-68.57 134.08,-54.48 149.64,-42.62"/>
<polygon fill="black" stroke="black" points="151.37,-45.71 157.2,-36.86 147.13,-40.14 151.37,-45.71"/>
</g>
<!-- n_4_6 -->
<g id="node9" class="node">
<title>n_4_6</title>
<polygon fill="none" stroke="black" points="329.62,-84.38 329.62,-109.62 379.62,-109.62 379.62,-84.38 329.62,-84.38"/>
<text text-anchor="start" x="336.62" y="-95.08" font-family="Times New Roman,serif" font-weight="bold" font-size="9.00">Obesity I</text>
<polygon fill="none" stroke="black" points="379.62,-84.38 379.62,-109.62 435.62,-109.62 435.62,-84.38 379.62,-84.38"/>
<text text-anchor="start" x="386.62" y="-95.08" font-family="Times New Roman,serif" font-weight="bold" font-size="9.00">Obesity III</text>
<polygon fill="none" stroke="black" points="328.62,-83.38 328.62,-110.62 436.62,-110.62 436.62,-83.38 328.62,-83.38"/>
</g>
<!-- n_1_4_6&#45;&gt;n_4_6 -->
<g id="edge8" class="edge">
<title>n_1_4_6&#45;&gt;n_4_6</title>
<path fill="none" stroke="black" d="M390.15,-158.22C388.94,-148.54 387.46,-136.72 386.14,-126.11"/>
<polygon fill="black" stroke="black" points="389.63,-125.83 384.92,-116.35 382.69,-126.7 389.63,-125.83"/>
</g>
<!-- n_1 -->
<g id="node12" class="node">
<title>n_1</title>
<polygon fill="none" stroke="black" points="482.62,-84.38 482.62,-109.62 526.62,-109.62 526.62,-84.38 482.62,-84.38"/>
<text text-anchor="start" x="489.62" y="-95.08" font-family="Times New Roman,serif" font-weight="bold" font-size="9.00">Normal</text>
<polygon fill="none" stroke="black" points="481.62,-83.38 481.62,-110.62 527.62,-110.62 527.62,-83.38 481.62,-83.38"/>
</g>
<!-- n_1_4_6&#45;&gt;n_1 -->
<g id="edge11" class="edge">
<title>n_1_4_6&#45;&gt;n_1</title>
<path fill="none" stroke="black" d="M420.6,-158.02C436.2,-146.88 455.7,-132.94 472,-121.31"/>
<polygon fill="black" stroke="black" points="473.83,-124.3 479.93,-115.64 469.76,-118.6 473.83,-124.3"/>
</g>
<!-- n_4 -->
<g id="node10" class="node">
<title>n_4</title>
<polygon fill="none" stroke="black" points="295.62,-5.38 295.62,-30.62 345.62,-30.62 345.62,-5.38 295.62,-5.38"/>
<text text-anchor="start" x="302.62" y="-16.07" font-family="Times New Roman,serif" font-weight="bold" font-size="9.00">Obesity I</text>
<polygon fill="none" stroke="black" points="294.62,-4.38 294.62,-31.62 346.62,-31.62 346.62,-4.38 294.62,-4.38"/>
</g>
<!-- n_4_6&#45;&gt;n_4 -->
<g id="edge9" class="edge">
<title>n_4_6&#45;&gt;n_4</title>
<path fill="none" stroke="black" d="M369.17,-79.29C361.02,-69.17 350.46,-56.05 341.27,-44.64"/>
<polygon fill="black" stroke="black" points="344.21,-42.71 335.22,-37.12 338.76,-47.1 344.21,-42.71"/>
</g>
<!-- n_6 -->
<g id="node11" class="node">
<title>n_6</title>
<polygon fill="none" stroke="black" points="392.62,-5.38 392.62,-30.62 448.62,-30.62 448.62,-5.38 392.62,-5.38"/>
<text text-anchor="start" x="399.62" y="-16.07" font-family="Times New Roman,serif" font-weight="bold" font-size="9.00">Obesity III</text>
<polygon fill="none" stroke="black" points="391.62,-4.38 391.62,-31.62 449.62,-31.62 449.62,-4.38 391.62,-4.38"/>
</g>
<!-- n_4_6&#45;&gt;n_6 -->
<g id="edge10" class="edge">
<title>n_4_6&#45;&gt;n_6</title>
<path fill="none" stroke="black" d="M390.87,-79.29C395.67,-69.57 401.83,-57.09 407.3,-46"/>
<polygon fill="black" stroke="black" points="410.31,-47.81 411.59,-37.3 404.03,-44.72 410.31,-47.81"/>
</g>
</g>
</svg>
