<?xml version="1.0" encoding="UTF-8" standalone="no"?>
<!DOCTYPE svg PUBLIC "-//W3C//DTD SVG 1.1//EN"
 "http://www.w3.org/Graphics/SVG/1.1/DTD/svg11.dtd">
<!-- Generated by graphviz version 10.0.1 (20240210.2158)
 -->
<!-- Title: ND Pages: 1 -->
<svg width="605pt" height="405pt"
 viewBox="0.00 0.00 605.00 405.00" xmlns="http://www.w3.org/2000/svg" xmlns:xlink="http://www.w3.org/1999/xlink">
<g id="graph0" class="graph" transform="scale(1 1) rotate(0) translate(4 401)">
<title>ND</title>
<polygon fill="white" stroke="none" points="-4,4 -4,-401 601,-401 601,4 -4,4"/>
<!-- n_0_1_2_3_4_5_6 -->
<g id="node1" class="node">
<title>n_0_1_2_3_4_5_6</title>
<polygon fill="none" stroke="black" points="298.38,-342 298.38,-392 386.62,-392 386.62,-342 298.38,-342"/>
<text text-anchor="start" x="305.38" y="-377.45" font-family="Times New Roman,serif" font-weight="bold" font-size="9.00">Insufficient weight</text>
<text text-anchor="start" x="317" y="-368.45" font-family="Times New Roman,serif" font-weight="bold" font-size="9.00">Overweight I</text>
<text text-anchor="start" x="315.5" y="-359.45" font-family="Times New Roman,serif" font-weight="bold" font-size="9.00">Overweight II</text>
<text text-anchor="start" x="321.5" y="-350.45" font-family="Times New Roman,serif" font-weight="bold" font-size="9.00">Obesity III</text>
<polygon fill="none" stroke="black" points="386.62,-342 386.62,-392 439.62,-392 439.62,-342 386.62,-342"/>
<text text-anchor="start" x="398.12" y="-372.95" font-family="Times New Roman,serif" font-weight="bold" font-size="9.00">Normal</text>
<text text-anchor="start" x="395.12" y="-363.95" font-family="Times New Roman,serif" font-weight="bold" font-size="9.00">Obesity I</text>
<text text-anchor="start" x="393.62" y="-354.95" font-family="Times New Roman,serif" font-weight="bold" font-size="9.00">Obesity II</text>
<polygon fill="none" stroke="black" points="297.38,-341 297.38,-393 440.62,-393 440.62,-341 297.38,-341"/>
</g>
<!-- n_0_2_3_6 -->
<g id="node2" class="node">
<title>n_0_2_3_6</title>
<polygon fill="none" stroke="black" points="206.38,-248 206.38,-289 294.62,-289 294.62,-248 206.38,-248"/>
<text text-anchor="start" x="213.38" y="-274.45" font-family="Times New Roman,serif" font-weight="bold" font-size="9.00">Insufficient weight</text>
<text text-anchor="start" x="223.5" y="-265.45" font-family="Times New Roman,serif" font-weight="bold" font-size="9.00">Overweight II</text>
<text text-anchor="start" x="229.5" y="-256.45" font-family="Times New Roman,serif" font-weight="bold" font-size="9.00">Obesity III</text>
<polygon fill="none" stroke="black" points="294.62,-248 294.62,-289 359.62,-289 359.62,-248 294.62,-248"/>
<text text-anchor="start" x="301.62" y="-266.57" font-family="Times New Roman,serif" font-weight="bold" font-size="9.00">Overweight I</text>
<polygon fill="none" stroke="black" points="205.38,-247 205.38,-290 360.62,-290 360.62,-247 205.38,-247"/>
</g>
<!-- n_0_1_2_3_4_5_6&#45;&gt;n_0_2_3_6 -->
<g id="edge1" class="edge">
<title>n_0_1_2_3_4_5_6&#45;&gt;n_0_2_3_6</title>
<path fill="none" stroke="black" d="M343.2,-337.05C333.42,-326.08 322.22,-313.51 312.16,-302.22"/>
<polygon fill="black" stroke="black" points="315,-300.14 305.73,-295 309.77,-304.8 315,-300.14"/>
</g>
<!-- n_1_4_5 -->
<g id="node9" class="node">
<title>n_1_4_5</title>
<polygon fill="none" stroke="black" points="406.5,-252.5 406.5,-284.5 459.5,-284.5 459.5,-252.5 406.5,-252.5"/>
<text text-anchor="start" x="415" y="-269.95" font-family="Times New Roman,serif" font-weight="bold" font-size="9.00">Obesity I</text>
<text text-anchor="start" x="413.5" y="-260.95" font-family="Times New Roman,serif" font-weight="bold" font-size="9.00">Obesity II</text>
<polygon fill="none" stroke="black" points="459.5,-252.5 459.5,-284.5 503.5,-284.5 503.5,-252.5 459.5,-252.5"/>
<text text-anchor="start" x="466.5" y="-266.57" font-family="Times New Roman,serif" font-weight="bold" font-size="9.00">Normal</text>
<polygon fill="none" stroke="black" points="405.5,-251.5 405.5,-285.5 504.5,-285.5 504.5,-251.5 405.5,-251.5"/>
</g>
<!-- n_0_1_2_3_4_5_6&#45;&gt;n_1_4_5 -->
<g id="edge8" class="edge">
<title>n_0_1_2_3_4_5_6&#45;&gt;n_1_4_5</title>
<path fill="none" stroke="black" d="M394.8,-337.05C405.87,-324.63 418.76,-310.17 429.76,-297.82"/>
<polygon fill="black" stroke="black" points="432.34,-300.18 436.38,-290.39 427.12,-295.53 432.34,-300.18"/>
</g>
<!-- n_0_3_6 -->
<g id="node3" class="node">
<title>n_0_3_6</title>
<polygon fill="none" stroke="black" points="57.88,-163 57.88,-195 125.88,-195 125.88,-163 57.88,-163"/>
<text text-anchor="start" x="64.88" y="-180.45" font-family="Times New Roman,serif" font-weight="bold" font-size="9.00">Overweight II</text>
<text text-anchor="start" x="70.88" y="-171.45" font-family="Times New Roman,serif" font-weight="bold" font-size="9.00">Obesity III</text>
<polygon fill="none" stroke="black" points="125.88,-163 125.88,-195 214.12,-195 214.12,-163 125.88,-163"/>
<text text-anchor="start" x="132.88" y="-177.07" font-family="Times New Roman,serif" font-weight="bold" font-size="9.00">Insufficient weight</text>
<polygon fill="none" stroke="black" points="56.88,-162 56.88,-196 215.12,-196 215.12,-162 56.88,-162"/>
</g>
<!-- n_0_2_3_6&#45;&gt;n_0_3_6 -->
<g id="edge2" class="edge">
<title>n_0_2_3_6&#45;&gt;n_0_3_6</title>
<path fill="none" stroke="black" d="M242.05,-243.13C222.43,-231.45 198.93,-217.46 179.04,-205.62"/>
<polygon fill="black" stroke="black" points="180.99,-202.71 170.61,-200.6 177.41,-208.72 180.99,-202.71"/>
</g>
<!-- n_2 -->
<g id="node8" class="node">
<title>n_2</title>
<polygon fill="none" stroke="black" points="261.5,-166.38 261.5,-191.62 326.5,-191.62 326.5,-166.38 261.5,-166.38"/>
<text text-anchor="start" x="268.5" y="-177.07" font-family="Times New Roman,serif" font-weight="bold" font-size="9.00">Overweight I</text>
<polygon fill="none" stroke="black" points="260.5,-165.38 260.5,-192.62 327.5,-192.62 327.5,-165.38 260.5,-165.38"/>
</g>
<!-- n_0_2_3_6&#45;&gt;n_2 -->
<g id="edge7" class="edge">
<title>n_0_2_3_6&#45;&gt;n_2</title>
<path fill="none" stroke="black" d="M286.06,-243.13C287.44,-232.17 289.08,-219.18 290.5,-207.84"/>
<polygon fill="black" stroke="black" points="293.93,-208.63 291.7,-198.27 286.98,-207.76 293.93,-208.63"/>
</g>
<!-- n_3_6 -->
<g id="node4" class="node">
<title>n_3_6</title>
<polygon fill="none" stroke="black" points="35,-84.38 35,-109.62 103,-109.62 103,-84.38 35,-84.38"/>
<text text-anchor="start" x="42" y="-95.08" font-family="Times New Roman,serif" font-weight="bold" font-size="9.00">Overweight II</text>
<polygon fill="none" stroke="black" points="103,-84.38 103,-109.62 159,-109.62 159,-84.38 103,-84.38"/>
<text text-anchor="start" x="110" y="-95.08" font-family="Times New Roman,serif" font-weight="bold" font-size="9.00">Obesity III</text>
<polygon fill="none" stroke="black" points="34,-83.38 34,-110.62 160,-110.62 160,-83.38 34,-83.38"/>
</g>
<!-- n_0_3_6&#45;&gt;n_3_6 -->
<g id="edge3" class="edge">
<title>n_0_3_6&#45;&gt;n_3_6</title>
<path fill="none" stroke="black" d="M126.36,-158.22C121.49,-148.23 115.5,-135.95 110.21,-125.09"/>
<polygon fill="black" stroke="black" points="113.4,-123.66 105.87,-116.2 107.11,-126.73 113.4,-123.66"/>
</g>
<!-- n_0 -->
<g id="node7" class="node">
<title>n_0</title>
<polygon fill="none" stroke="black" points="205.88,-84.38 205.88,-109.62 294.12,-109.62 294.12,-84.38 205.88,-84.38"/>
<text text-anchor="start" x="212.88" y="-95.08" font-family="Times New Roman,serif" font-weight="bold" font-size="9.00">Insufficient weight</text>
<polygon fill="none" stroke="black" points="204.88,-83.38 204.88,-110.62 295.12,-110.62 295.12,-83.38 204.88,-83.38"/>
</g>
<!-- n_0_3_6&#45;&gt;n_0 -->
<g id="edge6" class="edge">
<title>n_0_3_6&#45;&gt;n_0</title>
<path fill="none" stroke="black" d="M164.47,-158.02C180.35,-146.88 200.21,-132.94 216.79,-121.31"/>
<polygon fill="black" stroke="black" points="218.71,-124.24 224.88,-115.63 214.68,-118.51 218.71,-124.24"/>
</g>
<!-- n_3 -->
<g id="node5" class="node">
<title>n_3</title>
<polygon fill="none" stroke="black" points="9,-5.38 9,-30.62 77,-30.62 77,-5.38 9,-5.38"/>
<text text-anchor="start" x="16" y="-16.07" font-family="Times New Roman,serif" font-weight="bold" font-size="9.00">Overweight II</text>
<polygon fill="none" stroke="black" points="8,-4.38 8,-31.62 78,-31.62 78,-4.38 8,-4.38"/>
</g>
<!-- n_3_6&#45;&gt;n_3 -->
<g id="edge4" class="edge">
<title>n_3_6&#45;&gt;n_3</title>
<path fill="none" stroke="black" d="M85.28,-79.29C78.33,-69.37 69.35,-56.57 61.46,-45.32"/>
<polygon fill="black" stroke="black" points="64.36,-43.36 55.75,-37.18 58.63,-47.38 64.36,-43.36"/>
</g>
<!-- n_6 -->
<g id="node6" class="node">
<title>n_6</title>
<polygon fill="none" stroke="black" points="124,-5.38 124,-30.62 180,-30.62 180,-5.38 124,-5.38"/>
<text text-anchor="start" x="131" y="-16.07" font-family="Times New Roman,serif" font-weight="bold" font-size="9.00">Obesity III</text>
<polygon fill="none" stroke="black" points="123,-4.38 123,-31.62 181,-31.62 181,-4.38 123,-4.38"/>
</g>
<!-- n_3_6&#45;&gt;n_6 -->
<g id="edge5" class="edge">
<title>n_3_6&#45;&gt;n_6</title>
<path fill="none" stroke="black" d="M108.93,-79.29C116.09,-69.27 125.35,-56.31 133.44,-44.98"/>
<polygon fill="black" stroke="black" points="136.06,-47.34 139.02,-37.17 130.36,-43.28 136.06,-47.34"/>
</g>
<!-- n_4_5 -->
<g id="node10" class="node">
<title>n_4_5</title>
<polygon fill="none" stroke="black" points="393.5,-166.38 393.5,-191.62 443.5,-191.62 443.5,-166.38 393.5,-166.38"/>
<text text-anchor="start" x="400.5" y="-177.07" font-family="Times New Roman,serif" font-weight="bold" font-size="9.00">Obesity I</text>
<polygon fill="none" stroke="black" points="443.5,-166.38 443.5,-191.62 496.5,-191.62 496.5,-166.38 443.5,-166.38"/>
<text text-anchor="start" x="450.5" y="-177.07" font-family="Times New Roman,serif" font-weight="bold" font-size="9.00">Obesity II</text>
<polygon fill="none" stroke="black" points="392.5,-165.38 392.5,-192.62 497.5,-192.62 497.5,-165.38 392.5,-165.38"/>
</g>
<!-- n_1_4_5&#45;&gt;n_4_5 -->
<g id="edge9" class="edge">
<title>n_1_4_5&#45;&gt;n_4_5</title>
<path fill="none" stroke="black" d="M452.73,-247.64C451.39,-235.91 449.67,-220.86 448.19,-207.94"/>
<polygon fill="black" stroke="black" points="451.71,-207.87 447.1,-198.34 444.75,-208.67 451.71,-207.87"/>
</g>
<!-- n_1 -->
<g id="node13" class="node">
<title>n_1</title>
<polygon fill="none" stroke="black" points="544,-166.38 544,-191.62 588,-191.62 588,-166.38 544,-166.38"/>
<text text-anchor="start" x="551" y="-177.07" font-family="Times New Roman,serif" font-weight="bold" font-size="9.00">Normal</text>
<polygon fill="none" stroke="black" points="543,-165.38 543,-192.62 589,-192.62 589,-165.38 543,-165.38"/>
</g>
<!-- n_1_4_5&#45;&gt;n_1 -->
<g id="edge12" class="edge">
<title>n_1_4_5&#45;&gt;n_1</title>
<path fill="none" stroke="black" d="M480.19,-247.64C496.75,-234.59 518.5,-217.45 535.96,-203.68"/>
<polygon fill="black" stroke="black" points="537.77,-206.71 543.46,-197.77 533.44,-201.21 537.77,-206.71"/>
</g>
<!-- n_4 -->
<g id="node11" class="node">
<title>n_4</title>
<polygon fill="none" stroke="black" points="380,-84.38 380,-109.62 430,-109.62 430,-84.38 380,-84.38"/>
<text text-anchor="start" x="387" y="-95.08" font-family="Times New Roman,serif" font-weight="bold" font-size="9.00">Obesity I</text>
<polygon fill="none" stroke="black" points="379,-83.38 379,-110.62 431,-110.62 431,-83.38 379,-83.38"/>
</g>
<!-- n_4_5&#45;&gt;n_4 -->
<g id="edge10" class="edge">
<title>n_4_5&#45;&gt;n_4</title>
<path fill="none" stroke="black" d="M436.52,-161.03C431.32,-150.64 424.55,-137.1 418.62,-125.23"/>
<polygon fill="black" stroke="black" points="421.75,-123.67 414.15,-116.3 415.49,-126.8 421.75,-123.67"/>
</g>
<!-- n_5 -->
<g id="node12" class="node">
<title>n_5</title>
<polygon fill="none" stroke="black" points="477.5,-84.38 477.5,-109.62 530.5,-109.62 530.5,-84.38 477.5,-84.38"/>
<text text-anchor="start" x="484.5" y="-95.08" font-family="Times New Roman,serif" font-weight="bold" font-size="9.00">Obesity II</text>
<polygon fill="none" stroke="black" points="476.5,-83.38 476.5,-110.62 531.5,-110.62 531.5,-83.38 476.5,-83.38"/>
</g>
<!-- n_4_5&#45;&gt;n_5 -->
<g id="edge11" class="edge">
<title>n_4_5&#45;&gt;n_5</title>
<path fill="none" stroke="black" d="M457.51,-161.03C465.41,-150.32 475.78,-136.27 484.72,-124.15"/>
<polygon fill="black" stroke="black" points="487.49,-126.29 490.61,-116.16 481.86,-122.13 487.49,-126.29"/>
</g>
</g>
</svg>
