<?xml version="1.0" encoding="UTF-8" standalone="no"?>
<!DOCTYPE svg PUBLIC "-//W3C//DTD SVG 1.1//EN"
 "http://www.w3.org/Graphics/SVG/1.1/DTD/svg11.dtd">
<!-- Generated by graphviz version 10.0.1 (20240210.2158)
 -->
<!-- Title: ND Pages: 1 -->
<svg width="644pt" height="432pt"
 viewBox="0.00 0.00 644.12 432.00" xmlns="http://www.w3.org/2000/svg" xmlns:xlink="http://www.w3.org/1999/xlink">
<g id="graph0" class="graph" transform="scale(1 1) rotate(0) translate(4 428)">
<title>ND</title>
<polygon fill="white" stroke="none" points="-4,4 -4,-428 640.12,-428 640.12,4 -4,4"/>
<!-- n_0_1_2_3_4_5_6 -->
<g id="node1" class="node">
<title>n_0_1_2_3_4_5_6</title>
<polygon fill="none" stroke="black" points="419,-351 419,-419 507.25,-419 507.25,-351 419,-351"/>
<text text-anchor="start" x="426" y="-404.45" font-family="Times New Roman,serif" font-weight="bold" font-size="9.00">Insufficient weight</text>
<text text-anchor="start" x="437.62" y="-395.45" font-family="Times New Roman,serif" font-weight="bold" font-size="9.00">Overweight I</text>
<text text-anchor="start" x="436.12" y="-386.45" font-family="Times New Roman,serif" font-weight="bold" font-size="9.00">Overweight II</text>
<text text-anchor="start" x="445.12" y="-377.45" font-family="Times New Roman,serif" font-weight="bold" font-size="9.00">Obesity I</text>
<text text-anchor="start" x="443.62" y="-368.45" font-family="Times New Roman,serif" font-weight="bold" font-size="9.00">Obesity II</text>
<text text-anchor="start" x="442.12" y="-359.45" font-family="Times New Roman,serif" font-weight="bold" font-size="9.00">Obesity III</text>
<polygon fill="none" stroke="black" points="507.25,-351 507.25,-419 551.25,-419 551.25,-351 507.25,-351"/>
<text text-anchor="start" x="514.25" y="-383.07" font-family="Times New Roman,serif" font-weight="bold" font-size="9.00">Normal</text>
<polygon fill="none" stroke="black" points="418,-350 418,-420 552.25,-420 552.25,-350 418,-350"/>
</g>
<!-- n_0_2_3_4_5_6 -->
<g id="node2" class="node">
<title>n_0_2_3_4_5_6</title>
<polygon fill="none" stroke="black" points="334,-248 334,-298 422.25,-298 422.25,-248 334,-248"/>
<text text-anchor="start" x="341" y="-283.45" font-family="Times New Roman,serif" font-weight="bold" font-size="9.00">Insufficient weight</text>
<text text-anchor="start" x="352.62" y="-274.45" font-family="Times New Roman,serif" font-weight="bold" font-size="9.00">Overweight I</text>
<text text-anchor="start" x="360.12" y="-265.45" font-family="Times New Roman,serif" font-weight="bold" font-size="9.00">Obesity I</text>
<text text-anchor="start" x="358.62" y="-256.45" font-family="Times New Roman,serif" font-weight="bold" font-size="9.00">Obesity II</text>
<polygon fill="none" stroke="black" points="422.25,-248 422.25,-298 490.25,-298 490.25,-248 422.25,-248"/>
<text text-anchor="start" x="429.25" y="-274.45" font-family="Times New Roman,serif" font-weight="bold" font-size="9.00">Overweight II</text>
<text text-anchor="start" x="435.25" y="-265.45" font-family="Times New Roman,serif" font-weight="bold" font-size="9.00">Obesity III</text>
<polygon fill="none" stroke="black" points="333,-247 333,-299 491.25,-299 491.25,-247 333,-247"/>
</g>
<!-- n_0_1_2_3_4_5_6&#45;&gt;n_0_2_3_4_5_6 -->
<g id="edge1" class="edge">
<title>n_0_1_2_3_4_5_6&#45;&gt;n_0_2_3_4_5_6</title>
<path fill="none" stroke="black" d="M460,-346.14C452.73,-335.19 444.79,-323.22 437.5,-312.23"/>
<polygon fill="black" stroke="black" points="440.58,-310.55 432.13,-304.15 434.75,-314.42 440.58,-310.55"/>
</g>
<!-- n_1 -->
<g id="node13" class="node">
<title>n_1</title>
<polygon fill="none" stroke="black" points="537.12,-260.38 537.12,-285.62 581.12,-285.62 581.12,-260.38 537.12,-260.38"/>
<text text-anchor="start" x="544.12" y="-271.07" font-family="Times New Roman,serif" font-weight="bold" font-size="9.00">Normal</text>
<polygon fill="none" stroke="black" points="536.12,-259.38 536.12,-286.62 582.12,-286.62 582.12,-259.38 536.12,-259.38"/>
</g>
<!-- n_0_1_2_3_4_5_6&#45;&gt;n_1 -->
<g id="edge12" class="edge">
<title>n_0_1_2_3_4_5_6&#45;&gt;n_1</title>
<path fill="none" stroke="black" d="M510.59,-346.14C520.75,-331.04 532.2,-314.02 541.43,-300.31"/>
<polygon fill="black" stroke="black" points="544.18,-302.49 546.86,-292.24 538.37,-298.58 544.18,-302.49"/>
</g>
<!-- n_0_2_4_5 -->
<g id="node3" class="node">
<title>n_0_2_4_5</title>
<polygon fill="none" stroke="black" points="251.5,-163 251.5,-195 339.75,-195 339.75,-163 251.5,-163"/>
<text text-anchor="start" x="258.5" y="-180.45" font-family="Times New Roman,serif" font-weight="bold" font-size="9.00">Insufficient weight</text>
<text text-anchor="start" x="270.12" y="-171.45" font-family="Times New Roman,serif" font-weight="bold" font-size="9.00">Overweight I</text>
<polygon fill="none" stroke="black" points="339.75,-163 339.75,-195 392.75,-195 392.75,-163 339.75,-163"/>
<text text-anchor="start" x="348.25" y="-180.45" font-family="Times New Roman,serif" font-weight="bold" font-size="9.00">Obesity I</text>
<text text-anchor="start" x="346.75" y="-171.45" font-family="Times New Roman,serif" font-weight="bold" font-size="9.00">Obesity II</text>
<polygon fill="none" stroke="black" points="250.5,-162 250.5,-196 393.75,-196 393.75,-162 250.5,-162"/>
</g>
<!-- n_0_2_3_4_5_6&#45;&gt;n_0_2_4_5 -->
<g id="edge2" class="edge">
<title>n_0_2_3_4_5_6&#45;&gt;n_0_2_4_5</title>
<path fill="none" stroke="black" d="M383.9,-243.14C372.89,-231.89 360.31,-219.04 349.4,-207.88"/>
<polygon fill="black" stroke="black" points="351.98,-205.51 342.49,-200.81 346.98,-210.41 351.98,-205.51"/>
</g>
<!-- n_3_6 -->
<g id="node10" class="node">
<title>n_3_6</title>
<polygon fill="none" stroke="black" points="440.12,-166.38 440.12,-191.62 508.12,-191.62 508.12,-166.38 440.12,-166.38"/>
<text text-anchor="start" x="447.12" y="-177.07" font-family="Times New Roman,serif" font-weight="bold" font-size="9.00">Overweight II</text>
<polygon fill="none" stroke="black" points="508.12,-166.38 508.12,-191.62 564.12,-191.62 564.12,-166.38 508.12,-166.38"/>
<text text-anchor="start" x="515.12" y="-177.07" font-family="Times New Roman,serif" font-weight="bold" font-size="9.00">Obesity III</text>
<polygon fill="none" stroke="black" points="439.12,-165.38 439.12,-192.62 565.12,-192.62 565.12,-165.38 439.12,-165.38"/>
</g>
<!-- n_0_2_3_4_5_6&#45;&gt;n_3_6 -->
<g id="edge9" class="edge">
<title>n_0_2_3_4_5_6&#45;&gt;n_3_6</title>
<path fill="none" stroke="black" d="M440.35,-243.14C452.3,-230.93 466.09,-216.84 477.6,-205.07"/>
<polygon fill="black" stroke="black" points="479.98,-207.65 484.47,-198.05 474.97,-202.75 479.98,-207.65"/>
</g>
<!-- n_0_2 -->
<g id="node4" class="node">
<title>n_0_2</title>
<polygon fill="none" stroke="black" points="82.5,-84.38 82.5,-109.62 170.75,-109.62 170.75,-84.38 82.5,-84.38"/>
<text text-anchor="start" x="89.5" y="-95.08" font-family="Times New Roman,serif" font-weight="bold" font-size="9.00">Insufficient weight</text>
<polygon fill="none" stroke="black" points="170.75,-84.38 170.75,-109.62 235.75,-109.62 235.75,-84.38 170.75,-84.38"/>
<text text-anchor="start" x="177.75" y="-95.08" font-family="Times New Roman,serif" font-weight="bold" font-size="9.00">Overweight I</text>
<polygon fill="none" stroke="black" points="81.5,-83.38 81.5,-110.62 236.75,-110.62 236.75,-83.38 81.5,-83.38"/>
</g>
<!-- n_0_2_4_5&#45;&gt;n_0_2 -->
<g id="edge3" class="edge">
<title>n_0_2_4_5&#45;&gt;n_0_2</title>
<path fill="none" stroke="black" d="M281.41,-158.02C257.73,-146.4 227.86,-131.74 203.57,-119.81"/>
<polygon fill="black" stroke="black" points="205.42,-116.82 194.9,-115.56 202.33,-123.1 205.42,-116.82"/>
</g>
<!-- n_4_5 -->
<g id="node7" class="node">
<title>n_4_5</title>
<polygon fill="none" stroke="black" points="282.62,-84.38 282.62,-109.62 332.62,-109.62 332.62,-84.38 282.62,-84.38"/>
<text text-anchor="start" x="289.62" y="-95.08" font-family="Times New Roman,serif" font-weight="bold" font-size="9.00">Obesity I</text>
<polygon fill="none" stroke="black" points="332.62,-84.38 332.62,-109.62 385.62,-109.62 385.62,-84.38 332.62,-84.38"/>
<text text-anchor="start" x="339.62" y="-95.08" font-family="Times New Roman,serif" font-weight="bold" font-size="9.00">Obesity II</text>
<polygon fill="none" stroke="black" points="281.62,-83.38 281.62,-110.62 386.62,-110.62 386.62,-83.38 281.62,-83.38"/>
</g>
<!-- n_0_2_4_5&#45;&gt;n_4_5 -->
<g id="edge6" class="edge">
<title>n_0_2_4_5&#45;&gt;n_4_5</title>
<path fill="none" stroke="black" d="M325.09,-158.22C326.54,-148.54 328.32,-136.72 329.91,-126.11"/>
<polygon fill="black" stroke="black" points="333.35,-126.75 331.37,-116.34 326.43,-125.71 333.35,-126.75"/>
</g>
<!-- n_0 -->
<g id="node5" class="node">
<title>n_0</title>
<polygon fill="none" stroke="black" points="9,-5.38 9,-30.62 97.25,-30.62 97.25,-5.38 9,-5.38"/>
<text text-anchor="start" x="16" y="-16.07" font-family="Times New Roman,serif" font-weight="bold" font-size="9.00">Insufficient weight</text>
<polygon fill="none" stroke="black" points="8,-4.38 8,-31.62 98.25,-31.62 98.25,-4.38 8,-4.38"/>
</g>
<!-- n_0_2&#45;&gt;n_0 -->
<g id="edge4" class="edge">
<title>n_0_2&#45;&gt;n_0</title>
<path fill="none" stroke="black" d="M135.86,-79.1C121.09,-68.37 101.76,-54.33 85.5,-42.51"/>
<polygon fill="black" stroke="black" points="87.71,-39.79 77.56,-36.75 83.59,-45.46 87.71,-39.79"/>
</g>
<!-- n_2 -->
<g id="node6" class="node">
<title>n_2</title>
<polygon fill="none" stroke="black" points="144.62,-5.38 144.62,-30.62 209.62,-30.62 209.62,-5.38 144.62,-5.38"/>
<text text-anchor="start" x="151.62" y="-16.07" font-family="Times New Roman,serif" font-weight="bold" font-size="9.00">Overweight I</text>
<polygon fill="none" stroke="black" points="143.62,-4.38 143.62,-31.62 210.62,-31.62 210.62,-4.38 143.62,-4.38"/>
</g>
<!-- n_0_2&#45;&gt;n_2 -->
<g id="edge5" class="edge">
<title>n_0_2&#45;&gt;n_2</title>
<path fill="none" stroke="black" d="M163.03,-79.29C165.23,-69.87 168.04,-57.86 170.57,-47.04"/>
<polygon fill="black" stroke="black" points="173.95,-47.95 172.82,-37.41 167.14,-46.36 173.95,-47.95"/>
</g>
<!-- n_4 -->
<g id="node8" class="node">
<title>n_4</title>
<polygon fill="none" stroke="black" points="292.12,-5.38 292.12,-30.62 342.12,-30.62 342.12,-5.38 292.12,-5.38"/>
<text text-anchor="start" x="299.12" y="-16.07" font-family="Times New Roman,serif" font-weight="bold" font-size="9.00">Obesity I</text>
<polygon fill="none" stroke="black" points="291.12,-4.38 291.12,-31.62 343.12,-31.62 343.12,-4.38 291.12,-4.38"/>
</g>
<!-- n_4_5&#45;&gt;n_4 -->
<g id="edge7" class="edge">
<title>n_4_5&#45;&gt;n_4</title>
<path fill="none" stroke="black" d="M330.44,-79.29C328.36,-69.87 325.7,-57.86 323.31,-47.04"/>
<polygon fill="black" stroke="black" points="326.77,-46.43 321.19,-37.42 319.93,-47.94 326.77,-46.43"/>
</g>
<!-- n_5 -->
<g id="node9" class="node">
<title>n_5</title>
<polygon fill="none" stroke="black" points="389.62,-5.38 389.62,-30.62 442.62,-30.62 442.62,-5.38 389.62,-5.38"/>
<text text-anchor="start" x="396.62" y="-16.07" font-family="Times New Roman,serif" font-weight="bold" font-size="9.00">Obesity II</text>
<polygon fill="none" stroke="black" points="388.62,-4.38 388.62,-31.62 443.62,-31.62 443.62,-4.38 388.62,-4.38"/>
</g>
<!-- n_4_5&#45;&gt;n_5 -->
<g id="edge8" class="edge">
<title>n_4_5&#45;&gt;n_5</title>
<path fill="none" stroke="black" d="M351.92,-79.29C363.02,-68.87 377.5,-55.27 389.9,-43.63"/>
<polygon fill="black" stroke="black" points="392.09,-46.37 396.98,-36.98 387.29,-41.27 392.09,-46.37"/>
</g>
<!-- n_3 -->
<g id="node11" class="node">
<title>n_3</title>
<polygon fill="none" stroke="black" points="456.12,-84.38 456.12,-109.62 524.12,-109.62 524.12,-84.38 456.12,-84.38"/>
<text text-anchor="start" x="463.12" y="-95.08" font-family="Times New Roman,serif" font-weight="bold" font-size="9.00">Overweight II</text>
<polygon fill="none" stroke="black" points="455.12,-83.38 455.12,-110.62 525.12,-110.62 525.12,-83.38 455.12,-83.38"/>
</g>
<!-- n_3_6&#45;&gt;n_3 -->
<g id="edge10" class="edge">
<title>n_3_6&#45;&gt;n_3</title>
<path fill="none" stroke="black" d="M499.58,-161.03C498.07,-150.96 496.11,-137.92 494.37,-126.32"/>
<polygon fill="black" stroke="black" points="497.84,-125.81 492.89,-116.44 490.91,-126.85 497.84,-125.81"/>
</g>
<!-- n_6 -->
<g id="node12" class="node">
<title>n_6</title>
<polygon fill="none" stroke="black" points="571.12,-84.38 571.12,-109.62 627.12,-109.62 627.12,-84.38 571.12,-84.38"/>
<text text-anchor="start" x="578.12" y="-95.08" font-family="Times New Roman,serif" font-weight="bold" font-size="9.00">Obesity III</text>
<polygon fill="none" stroke="black" points="570.12,-83.38 570.12,-110.62 628.12,-110.62 628.12,-83.38 570.12,-83.38"/>
</g>
<!-- n_3_6&#45;&gt;n_6 -->
<g id="edge11" class="edge">
<title>n_3_6&#45;&gt;n_6</title>
<path fill="none" stroke="black" d="M522.7,-161.03C536.46,-149.69 554.77,-134.58 570.02,-122.01"/>
<polygon fill="black" stroke="black" points="571.93,-124.97 577.42,-115.9 567.47,-119.57 571.93,-124.97"/>
</g>
</g>
</svg>
