<?xml version="1.0" encoding="UTF-8" standalone="no"?>
<!DOCTYPE svg PUBLIC "-//W3C//DTD SVG 1.1//EN"
 "http://www.w3.org/Graphics/SVG/1.1/DTD/svg11.dtd">
<!-- Generated by graphviz version 10.0.1 (20240210.2158)
 -->
<!-- Title: ND Pages: 1 -->
<svg width="577pt" height="526pt"
 viewBox="0.00 0.00 577.12 526.00" xmlns="http://www.w3.org/2000/svg" xmlns:xlink="http://www.w3.org/1999/xlink">
<g id="graph0" class="graph" transform="scale(1 1) rotate(0) translate(4 522)">
<title>ND</title>
<polygon fill="white" stroke="none" points="-4,4 -4,-522 573.12,-522 573.12,4 -4,4"/>
<!-- n_0_1_2_3_4_5_6 -->
<g id="node1" class="node">
<title>n_0_1_2_3_4_5_6</title>
<polygon fill="none" stroke="black" points="358.88,-445 358.88,-513 426.88,-513 426.88,-445 358.88,-445"/>
<text text-anchor="start" x="377.88" y="-498.45" font-family="Times New Roman,serif" font-weight="bold" font-size="9.00">Normal</text>
<text text-anchor="start" x="367.38" y="-489.45" font-family="Times New Roman,serif" font-weight="bold" font-size="9.00">Overweight I</text>
<text text-anchor="start" x="365.88" y="-480.45" font-family="Times New Roman,serif" font-weight="bold" font-size="9.00">Overweight II</text>
<text text-anchor="start" x="374.88" y="-471.45" font-family="Times New Roman,serif" font-weight="bold" font-size="9.00">Obesity I</text>
<text text-anchor="start" x="373.38" y="-462.45" font-family="Times New Roman,serif" font-weight="bold" font-size="9.00">Obesity II</text>
<text text-anchor="start" x="371.88" y="-453.45" font-family="Times New Roman,serif" font-weight="bold" font-size="9.00">Obesity III</text>
<polygon fill="none" stroke="black" points="426.88,-445 426.88,-513 515.12,-513 515.12,-445 426.88,-445"/>
<text text-anchor="start" x="433.88" y="-477.07" font-family="Times New Roman,serif" font-weight="bold" font-size="9.00">Insufficient weight</text>
<polygon fill="none" stroke="black" points="357.88,-444 357.88,-514 516.12,-514 516.12,-444 357.88,-444"/>
</g>
<!-- n_1_2_3_4_5_6 -->
<g id="node2" class="node">
<title>n_1_2_3_4_5_6</title>
<polygon fill="none" stroke="black" points="291.5,-342 291.5,-392 359.5,-392 359.5,-342 291.5,-342"/>
<text text-anchor="start" x="310.5" y="-377.45" font-family="Times New Roman,serif" font-weight="bold" font-size="9.00">Normal</text>
<text text-anchor="start" x="298.5" y="-368.45" font-family="Times New Roman,serif" font-weight="bold" font-size="9.00">Overweight II</text>
<text text-anchor="start" x="307.5" y="-359.45" font-family="Times New Roman,serif" font-weight="bold" font-size="9.00">Obesity I</text>
<text text-anchor="start" x="304.5" y="-350.45" font-family="Times New Roman,serif" font-weight="bold" font-size="9.00">Obesity III</text>
<polygon fill="none" stroke="black" points="359.5,-342 359.5,-392 424.5,-392 424.5,-342 359.5,-342"/>
<text text-anchor="start" x="366.5" y="-368.45" font-family="Times New Roman,serif" font-weight="bold" font-size="9.00">Overweight I</text>
<text text-anchor="start" x="372.5" y="-359.45" font-family="Times New Roman,serif" font-weight="bold" font-size="9.00">Obesity II</text>
<polygon fill="none" stroke="black" points="290.5,-341 290.5,-393 425.5,-393 425.5,-341 290.5,-341"/>
</g>
<!-- n_0_1_2_3_4_5_6&#45;&gt;n_1_2_3_4_5_6 -->
<g id="edge1" class="edge">
<title>n_0_1_2_3_4_5_6&#45;&gt;n_1_2_3_4_5_6</title>
<path fill="none" stroke="black" d="M409.81,-440.14C401.94,-429.19 393.35,-417.22 385.46,-406.23"/>
<polygon fill="black" stroke="black" points="388.31,-404.2 379.63,-398.12 382.62,-408.28 388.31,-404.2"/>
</g>
<!-- n_0 -->
<g id="node13" class="node">
<title>n_0</title>
<polygon fill="none" stroke="black" points="471.88,-354.38 471.88,-379.62 560.12,-379.62 560.12,-354.38 471.88,-354.38"/>
<text text-anchor="start" x="478.88" y="-365.07" font-family="Times New Roman,serif" font-weight="bold" font-size="9.00">Insufficient weight</text>
<polygon fill="none" stroke="black" points="470.88,-353.38 470.88,-380.62 561.12,-380.62 561.12,-353.38 470.88,-353.38"/>
</g>
<!-- n_0_1_2_3_4_5_6&#45;&gt;n_0 -->
<g id="edge12" class="edge">
<title>n_0_1_2_3_4_5_6&#45;&gt;n_0</title>
<path fill="none" stroke="black" d="M464.19,-440.14C475.03,-425.04 487.26,-408.02 497.11,-394.31"/>
<polygon fill="black" stroke="black" points="499.93,-396.38 502.92,-386.21 494.24,-392.29 499.93,-396.38"/>
</g>
<!-- n_1_3_4_6 -->
<g id="node3" class="node">
<title>n_1_3_4_6</title>
<polygon fill="none" stroke="black" points="221,-248 221,-289 289,-289 289,-248 221,-248"/>
<text text-anchor="start" x="228" y="-274.45" font-family="Times New Roman,serif" font-weight="bold" font-size="9.00">Overweight II</text>
<text text-anchor="start" x="237" y="-265.45" font-family="Times New Roman,serif" font-weight="bold" font-size="9.00">Obesity I</text>
<text text-anchor="start" x="234" y="-256.45" font-family="Times New Roman,serif" font-weight="bold" font-size="9.00">Obesity III</text>
<polygon fill="none" stroke="black" points="289,-248 289,-289 333,-289 333,-248 289,-248"/>
<text text-anchor="start" x="296" y="-266.57" font-family="Times New Roman,serif" font-weight="bold" font-size="9.00">Normal</text>
<polygon fill="none" stroke="black" points="220,-247 220,-290 334,-290 334,-247 220,-247"/>
</g>
<!-- n_1_2_3_4_5_6&#45;&gt;n_1_3_4_6 -->
<g id="edge2" class="edge">
<title>n_1_2_3_4_5_6&#45;&gt;n_1_3_4_6</title>
<path fill="none" stroke="black" d="M333.7,-337.05C324.58,-326.18 314.15,-313.76 304.74,-302.55"/>
<polygon fill="black" stroke="black" points="307.54,-300.44 298.43,-295.03 302.18,-304.94 307.54,-300.44"/>
</g>
<!-- n_2_5 -->
<g id="node10" class="node">
<title>n_2_5</title>
<polygon fill="none" stroke="black" points="380,-255.88 380,-281.12 445,-281.12 445,-255.88 380,-255.88"/>
<text text-anchor="start" x="387" y="-266.57" font-family="Times New Roman,serif" font-weight="bold" font-size="9.00">Overweight I</text>
<polygon fill="none" stroke="black" points="445,-255.88 445,-281.12 498,-281.12 498,-255.88 445,-255.88"/>
<text text-anchor="start" x="452" y="-266.57" font-family="Times New Roman,serif" font-weight="bold" font-size="9.00">Obesity II</text>
<polygon fill="none" stroke="black" points="379,-254.88 379,-282.12 499,-282.12 499,-254.88 379,-254.88"/>
</g>
<!-- n_1_2_3_4_5_6&#45;&gt;n_2_5 -->
<g id="edge9" class="edge">
<title>n_1_2_3_4_5_6&#45;&gt;n_2_5</title>
<path fill="none" stroke="black" d="M382.3,-337.05C393.59,-323.6 406.88,-307.77 417.75,-294.81"/>
<polygon fill="black" stroke="black" points="420.12,-297.43 423.87,-287.53 414.76,-292.93 420.12,-297.43"/>
</g>
<!-- n_3_4_6 -->
<g id="node4" class="node">
<title>n_3_4_6</title>
<polygon fill="none" stroke="black" points="105,-163 105,-195 173,-195 173,-163 105,-163"/>
<text text-anchor="start" x="112" y="-180.45" font-family="Times New Roman,serif" font-weight="bold" font-size="9.00">Overweight II</text>
<text text-anchor="start" x="118" y="-171.45" font-family="Times New Roman,serif" font-weight="bold" font-size="9.00">Obesity III</text>
<polygon fill="none" stroke="black" points="173,-163 173,-195 223,-195 223,-163 173,-163"/>
<text text-anchor="start" x="180" y="-177.07" font-family="Times New Roman,serif" font-weight="bold" font-size="9.00">Obesity I</text>
<polygon fill="none" stroke="black" points="104,-162 104,-196 224,-196 224,-162 104,-162"/>
</g>
<!-- n_1_3_4_6&#45;&gt;n_3_4_6 -->
<g id="edge3" class="edge">
<title>n_1_3_4_6&#45;&gt;n_3_4_6</title>
<path fill="none" stroke="black" d="M245.52,-243.13C230.92,-231.82 213.53,-218.35 198.56,-206.76"/>
<polygon fill="black" stroke="black" points="200.85,-204.11 190.8,-200.75 196.56,-209.64 200.85,-204.11"/>
</g>
<!-- n_1 -->
<g id="node9" class="node">
<title>n_1</title>
<polygon fill="none" stroke="black" points="270,-166.38 270,-191.62 314,-191.62 314,-166.38 270,-166.38"/>
<text text-anchor="start" x="277" y="-177.07" font-family="Times New Roman,serif" font-weight="bold" font-size="9.00">Normal</text>
<polygon fill="none" stroke="black" points="269,-165.38 269,-192.62 315,-192.62 315,-165.38 269,-165.38"/>
</g>
<!-- n_1_3_4_6&#45;&gt;n_1 -->
<g id="edge8" class="edge">
<title>n_1_3_4_6&#45;&gt;n_1</title>
<path fill="none" stroke="black" d="M281.18,-243.13C283.06,-232.17 285.28,-219.18 287.23,-207.84"/>
<polygon fill="black" stroke="black" points="290.63,-208.71 288.87,-198.26 283.73,-207.53 290.63,-208.71"/>
</g>
<!-- n_3_6 -->
<g id="node5" class="node">
<title>n_3_6</title>
<polygon fill="none" stroke="black" points="35,-84.38 35,-109.62 103,-109.62 103,-84.38 35,-84.38"/>
<text text-anchor="start" x="42" y="-95.08" font-family="Times New Roman,serif" font-weight="bold" font-size="9.00">Overweight II</text>
<polygon fill="none" stroke="black" points="103,-84.38 103,-109.62 159,-109.62 159,-84.38 103,-84.38"/>
<text text-anchor="start" x="110" y="-95.08" font-family="Times New Roman,serif" font-weight="bold" font-size="9.00">Obesity III</text>
<polygon fill="none" stroke="black" points="34,-83.38 34,-110.62 160,-110.62 160,-83.38 34,-83.38"/>
</g>
<!-- n_3_4_6&#45;&gt;n_3_6 -->
<g id="edge4" class="edge">
<title>n_3_4_6&#45;&gt;n_3_6</title>
<path fill="none" stroke="black" d="M147.44,-158.22C138.63,-147.71 127.71,-134.66 118.28,-123.41"/>
<polygon fill="black" stroke="black" points="121.18,-121.42 112.08,-116 115.82,-125.92 121.18,-121.42"/>
</g>
<!-- n_4 -->
<g id="node8" class="node">
<title>n_4</title>
<polygon fill="none" stroke="black" points="206,-84.38 206,-109.62 256,-109.62 256,-84.38 206,-84.38"/>
<text text-anchor="start" x="213" y="-95.08" font-family="Times New Roman,serif" font-weight="bold" font-size="9.00">Obesity I</text>
<polygon fill="none" stroke="black" points="205,-83.38 205,-110.62 257,-110.62 257,-83.38 205,-83.38"/>
</g>
<!-- n_3_4_6&#45;&gt;n_4 -->
<g id="edge7" class="edge">
<title>n_3_4_6&#45;&gt;n_4</title>
<path fill="none" stroke="black" d="M180.56,-158.22C189.37,-147.71 200.29,-134.66 209.72,-123.41"/>
<polygon fill="black" stroke="black" points="212.18,-125.92 215.92,-116 206.82,-121.42 212.18,-125.92"/>
</g>
<!-- n_3 -->
<g id="node6" class="node">
<title>n_3</title>
<polygon fill="none" stroke="black" points="9,-5.38 9,-30.62 77,-30.62 77,-5.38 9,-5.38"/>
<text text-anchor="start" x="16" y="-16.07" font-family="Times New Roman,serif" font-weight="bold" font-size="9.00">Overweight II</text>
<polygon fill="none" stroke="black" points="8,-4.38 8,-31.62 78,-31.62 78,-4.38 8,-4.38"/>
</g>
<!-- n_3_6&#45;&gt;n_3 -->
<g id="edge5" class="edge">
<title>n_3_6&#45;&gt;n_3</title>
<path fill="none" stroke="black" d="M85.28,-79.29C78.33,-69.37 69.35,-56.57 61.46,-45.32"/>
<polygon fill="black" stroke="black" points="64.36,-43.36 55.75,-37.18 58.63,-47.38 64.36,-43.36"/>
</g>
<!-- n_6 -->
<g id="node7" class="node">
<title>n_6</title>
<polygon fill="none" stroke="black" points="124,-5.38 124,-30.62 180,-30.62 180,-5.38 124,-5.38"/>
<text text-anchor="start" x="131" y="-16.07" font-family="Times New Roman,serif" font-weight="bold" font-size="9.00">Obesity III</text>
<polygon fill="none" stroke="black" points="123,-4.38 123,-31.62 181,-31.62 181,-4.38 123,-4.38"/>
</g>
<!-- n_3_6&#45;&gt;n_6 -->
<g id="edge6" class="edge">
<title>n_3_6&#45;&gt;n_6</title>
<path fill="none" stroke="black" d="M108.93,-79.29C116.09,-69.27 125.35,-56.31 133.44,-44.98"/>
<polygon fill="black" stroke="black" points="136.06,-47.34 139.02,-37.17 130.36,-43.28 136.06,-47.34"/>
</g>
<!-- n_2 -->
<g id="node11" class="node">
<title>n_2</title>
<polygon fill="none" stroke="black" points="391.5,-166.38 391.5,-191.62 456.5,-191.62 456.5,-166.38 391.5,-166.38"/>
<text text-anchor="start" x="398.5" y="-177.07" font-family="Times New Roman,serif" font-weight="bold" font-size="9.00">Overweight I</text>
<polygon fill="none" stroke="black" points="390.5,-165.38 390.5,-192.62 457.5,-192.62 457.5,-165.38 390.5,-165.38"/>
</g>
<!-- n_2_5&#45;&gt;n_2 -->
<g id="edge10" class="edge">
<title>n_2_5&#45;&gt;n_2</title>
<path fill="none" stroke="black" d="M436.11,-250.63C434.03,-238.52 431.19,-221.94 428.78,-207.88"/>
<polygon fill="black" stroke="black" points="432.28,-207.58 427.14,-198.31 425.38,-208.76 432.28,-207.58"/>
</g>
<!-- n_5 -->
<g id="node12" class="node">
<title>n_5</title>
<polygon fill="none" stroke="black" points="503.5,-166.38 503.5,-191.62 556.5,-191.62 556.5,-166.38 503.5,-166.38"/>
<text text-anchor="start" x="510.5" y="-177.07" font-family="Times New Roman,serif" font-weight="bold" font-size="9.00">Obesity II</text>
<polygon fill="none" stroke="black" points="502.5,-165.38 502.5,-192.62 557.5,-192.62 557.5,-165.38 502.5,-165.38"/>
</g>
<!-- n_2_5&#45;&gt;n_5 -->
<g id="edge11" class="edge">
<title>n_2_5&#45;&gt;n_5</title>
<path fill="none" stroke="black" d="M456.55,-250.63C470.14,-237.56 489.18,-219.25 504.46,-204.56"/>
<polygon fill="black" stroke="black" points="506.63,-207.32 511.42,-197.87 501.78,-202.28 506.63,-207.32"/>
</g>
</g>
</svg>
