<?xml version="1.0" encoding="UTF-8" standalone="no"?>
<!DOCTYPE svg PUBLIC "-//W3C//DTD SVG 1.1//EN"
 "http://www.w3.org/Graphics/SVG/1.1/DTD/svg11.dtd">
<!-- Generated by graphviz version 10.0.1 (20240210.2158)
 -->
<!-- Title: ND Pages: 1 -->
<svg width="563pt" height="423pt"
 viewBox="0.00 0.00 562.62 423.00" xmlns="http://www.w3.org/2000/svg" xmlns:xlink="http://www.w3.org/1999/xlink">
<g id="graph0" class="graph" transform="scale(1 1) rotate(0) translate(4 419)">
<title>ND</title>
<polygon fill="white" stroke="none" points="-4,4 -4,-419 558.62,-419 558.62,4 -4,4"/>
<!-- n_0_1_2_3_4_5_6 -->
<g id="node1" class="node">
<title>n_0_1_2_3_4_5_6</title>
<polygon fill="none" stroke="black" points="308,-342 308,-410 396.25,-410 396.25,-342 308,-342"/>
<text text-anchor="start" x="315" y="-395.45" font-family="Times New Roman,serif" font-weight="bold" font-size="9.00">Insufficient weight</text>
<text text-anchor="start" x="337.12" y="-386.45" font-family="Times New Roman,serif" font-weight="bold" font-size="9.00">Normal</text>
<text text-anchor="start" x="326.62" y="-377.45" font-family="Times New Roman,serif" font-weight="bold" font-size="9.00">Overweight I</text>
<text text-anchor="start" x="325.12" y="-368.45" font-family="Times New Roman,serif" font-weight="bold" font-size="9.00">Overweight II</text>
<text text-anchor="start" x="332.62" y="-359.45" font-family="Times New Roman,serif" font-weight="bold" font-size="9.00">Obesity II</text>
<text text-anchor="start" x="331.12" y="-350.45" font-family="Times New Roman,serif" font-weight="bold" font-size="9.00">Obesity III</text>
<polygon fill="none" stroke="black" points="396.25,-342 396.25,-410 446.25,-410 446.25,-342 396.25,-342"/>
<text text-anchor="start" x="403.25" y="-374.07" font-family="Times New Roman,serif" font-weight="bold" font-size="9.00">Obesity I</text>
<polygon fill="none" stroke="black" points="307,-341 307,-411 447.25,-411 447.25,-341 307,-341"/>
</g>
<!-- n_0_1_2_3_5_6 -->
<g id="node2" class="node">
<title>n_0_1_2_3_5_6</title>
<polygon fill="none" stroke="black" points="226.5,-248 226.5,-289 314.75,-289 314.75,-248 226.5,-248"/>
<text text-anchor="start" x="233.5" y="-274.45" font-family="Times New Roman,serif" font-weight="bold" font-size="9.00">Insufficient weight</text>
<text text-anchor="start" x="255.62" y="-265.45" font-family="Times New Roman,serif" font-weight="bold" font-size="9.00">Normal</text>
<text text-anchor="start" x="243.62" y="-256.45" font-family="Times New Roman,serif" font-weight="bold" font-size="9.00">Overweight II</text>
<polygon fill="none" stroke="black" points="314.75,-248 314.75,-289 379.75,-289 379.75,-248 314.75,-248"/>
<text text-anchor="start" x="321.75" y="-274.45" font-family="Times New Roman,serif" font-weight="bold" font-size="9.00">Overweight I</text>
<text text-anchor="start" x="327.75" y="-265.45" font-family="Times New Roman,serif" font-weight="bold" font-size="9.00">Obesity II</text>
<text text-anchor="start" x="326.25" y="-256.45" font-family="Times New Roman,serif" font-weight="bold" font-size="9.00">Obesity III</text>
<polygon fill="none" stroke="black" points="225.5,-247 225.5,-290 380.75,-290 380.75,-247 225.5,-247"/>
</g>
<!-- n_0_1_2_3_4_5_6&#45;&gt;n_0_1_2_3_5_6 -->
<g id="edge1" class="edge">
<title>n_0_1_2_3_4_5_6&#45;&gt;n_0_1_2_3_5_6</title>
<path fill="none" stroke="black" d="M350.62,-337.21C342.79,-326.05 334.28,-313.92 326.66,-303.05"/>
<polygon fill="black" stroke="black" points="329.7,-301.29 321.09,-295.11 323.97,-305.31 329.7,-301.29"/>
</g>
<!-- n_4 -->
<g id="node13" class="node">
<title>n_4</title>
<polygon fill="none" stroke="black" points="427.12,-255.88 427.12,-281.12 477.12,-281.12 477.12,-255.88 427.12,-255.88"/>
<text text-anchor="start" x="434.12" y="-266.57" font-family="Times New Roman,serif" font-weight="bold" font-size="9.00">Obesity I</text>
<polygon fill="none" stroke="black" points="426.12,-254.88 426.12,-282.12 478.12,-282.12 478.12,-254.88 426.12,-254.88"/>
</g>
<!-- n_0_1_2_3_4_5_6&#45;&gt;n_4 -->
<g id="edge12" class="edge">
<title>n_0_1_2_3_4_5_6&#45;&gt;n_4</title>
<path fill="none" stroke="black" d="M403.99,-337.21C413.74,-323.49 424.54,-308.31 433.43,-295.8"/>
<polygon fill="black" stroke="black" points="436.28,-297.83 439.22,-287.65 430.57,-293.77 436.28,-297.83"/>
</g>
<!-- n_0_1_3 -->
<g id="node3" class="node">
<title>n_0_1_3</title>
<polygon fill="none" stroke="black" points="133,-163 133,-195 221.25,-195 221.25,-163 133,-163"/>
<text text-anchor="start" x="140" y="-180.45" font-family="Times New Roman,serif" font-weight="bold" font-size="9.00">Insufficient weight</text>
<text text-anchor="start" x="162.12" y="-171.45" font-family="Times New Roman,serif" font-weight="bold" font-size="9.00">Normal</text>
<polygon fill="none" stroke="black" points="221.25,-163 221.25,-195 289.25,-195 289.25,-163 221.25,-163"/>
<text text-anchor="start" x="228.25" y="-177.07" font-family="Times New Roman,serif" font-weight="bold" font-size="9.00">Overweight II</text>
<polygon fill="none" stroke="black" points="132,-162 132,-196 290.25,-196 290.25,-162 132,-162"/>
</g>
<!-- n_0_1_2_3_5_6&#45;&gt;n_0_1_3 -->
<g id="edge2" class="edge">
<title>n_0_1_2_3_5_6&#45;&gt;n_0_1_3</title>
<path fill="none" stroke="black" d="M277.5,-243.13C265.95,-232.14 252.25,-219.11 240.3,-207.75"/>
<polygon fill="black" stroke="black" points="242.73,-205.22 233.07,-200.87 237.9,-210.3 242.73,-205.22"/>
</g>
<!-- n_2_5_6 -->
<g id="node8" class="node">
<title>n_2_5_6</title>
<polygon fill="none" stroke="black" points="336.12,-163 336.12,-195 401.12,-195 401.12,-163 336.12,-163"/>
<text text-anchor="start" x="343.12" y="-180.45" font-family="Times New Roman,serif" font-weight="bold" font-size="9.00">Overweight I</text>
<text text-anchor="start" x="347.62" y="-171.45" font-family="Times New Roman,serif" font-weight="bold" font-size="9.00">Obesity III</text>
<polygon fill="none" stroke="black" points="401.12,-163 401.12,-195 454.12,-195 454.12,-163 401.12,-163"/>
<text text-anchor="start" x="408.12" y="-177.07" font-family="Times New Roman,serif" font-weight="bold" font-size="9.00">Obesity II</text>
<polygon fill="none" stroke="black" points="335.12,-162 335.12,-196 455.12,-196 455.12,-162 335.12,-162"/>
</g>
<!-- n_0_1_2_3_5_6&#45;&gt;n_2_5_6 -->
<g id="edge7" class="edge">
<title>n_0_1_2_3_5_6&#45;&gt;n_2_5_6</title>
<path fill="none" stroke="black" d="M328.75,-243.13C340.3,-232.14 354,-219.11 365.95,-207.75"/>
<polygon fill="black" stroke="black" points="368.35,-210.3 373.18,-200.87 363.52,-205.22 368.35,-210.3"/>
</g>
<!-- n_0_1 -->
<g id="node4" class="node">
<title>n_0_1</title>
<polygon fill="none" stroke="black" points="9,-84.38 9,-109.62 97.25,-109.62 97.25,-84.38 9,-84.38"/>
<text text-anchor="start" x="16" y="-95.08" font-family="Times New Roman,serif" font-weight="bold" font-size="9.00">Insufficient weight</text>
<polygon fill="none" stroke="black" points="97.25,-84.38 97.25,-109.62 141.25,-109.62 141.25,-84.38 97.25,-84.38"/>
<text text-anchor="start" x="104.25" y="-95.08" font-family="Times New Roman,serif" font-weight="bold" font-size="9.00">Normal</text>
<polygon fill="none" stroke="black" points="8,-83.38 8,-110.62 142.25,-110.62 142.25,-83.38 8,-83.38"/>
</g>
<!-- n_0_1_3&#45;&gt;n_0_1 -->
<g id="edge3" class="edge">
<title>n_0_1_3&#45;&gt;n_0_1</title>
<path fill="none" stroke="black" d="M177.16,-158.02C157.77,-146.62 133.42,-132.29 113.37,-120.49"/>
<polygon fill="black" stroke="black" points="115.31,-117.58 104.92,-115.53 111.76,-123.61 115.31,-117.58"/>
</g>
<!-- n_3 -->
<g id="node7" class="node">
<title>n_3</title>
<polygon fill="none" stroke="black" points="188.12,-84.38 188.12,-109.62 256.12,-109.62 256.12,-84.38 188.12,-84.38"/>
<text text-anchor="start" x="195.12" y="-95.08" font-family="Times New Roman,serif" font-weight="bold" font-size="9.00">Overweight II</text>
<polygon fill="none" stroke="black" points="187.12,-83.38 187.12,-110.62 257.12,-110.62 257.12,-83.38 187.12,-83.38"/>
</g>
<!-- n_0_1_3&#45;&gt;n_3 -->
<g id="edge6" class="edge">
<title>n_0_1_3&#45;&gt;n_3</title>
<path fill="none" stroke="black" d="M213.84,-158.22C215.18,-148.54 216.8,-136.72 218.26,-126.11"/>
<polygon fill="black" stroke="black" points="221.71,-126.73 219.6,-116.34 214.77,-125.77 221.71,-126.73"/>
</g>
<!-- n_0 -->
<g id="node5" class="node">
<title>n_0</title>
<polygon fill="none" stroke="black" points="14,-5.38 14,-30.62 102.25,-30.62 102.25,-5.38 14,-5.38"/>
<text text-anchor="start" x="21" y="-16.07" font-family="Times New Roman,serif" font-weight="bold" font-size="9.00">Insufficient weight</text>
<polygon fill="none" stroke="black" points="13,-4.38 13,-31.62 103.25,-31.62 103.25,-4.38 13,-4.38"/>
</g>
<!-- n_0_1&#45;&gt;n_0 -->
<g id="edge4" class="edge">
<title>n_0_1&#45;&gt;n_0</title>
<path fill="none" stroke="black" d="M71.44,-79.29C69.36,-69.87 66.7,-57.86 64.31,-47.04"/>
<polygon fill="black" stroke="black" points="67.77,-46.43 62.19,-37.42 60.93,-47.94 67.77,-46.43"/>
</g>
<!-- n_1 -->
<g id="node6" class="node">
<title>n_1</title>
<polygon fill="none" stroke="black" points="149.12,-5.38 149.12,-30.62 193.12,-30.62 193.12,-5.38 149.12,-5.38"/>
<text text-anchor="start" x="156.12" y="-16.07" font-family="Times New Roman,serif" font-weight="bold" font-size="9.00">Normal</text>
<polygon fill="none" stroke="black" points="148.12,-4.38 148.12,-31.62 194.12,-31.62 194.12,-4.38 148.12,-4.38"/>
</g>
<!-- n_0_1&#45;&gt;n_1 -->
<g id="edge5" class="edge">
<title>n_0_1&#45;&gt;n_1</title>
<path fill="none" stroke="black" d="M95.96,-79.29C109.2,-68.67 126.56,-54.75 141.26,-42.96"/>
<polygon fill="black" stroke="black" points="143.21,-45.88 148.82,-36.89 138.83,-40.41 143.21,-45.88"/>
</g>
<!-- n_2_6 -->
<g id="node9" class="node">
<title>n_2_6</title>
<polygon fill="none" stroke="black" points="324.62,-84.38 324.62,-109.62 389.62,-109.62 389.62,-84.38 324.62,-84.38"/>
<text text-anchor="start" x="331.62" y="-95.08" font-family="Times New Roman,serif" font-weight="bold" font-size="9.00">Overweight I</text>
<polygon fill="none" stroke="black" points="389.62,-84.38 389.62,-109.62 445.62,-109.62 445.62,-84.38 389.62,-84.38"/>
<text text-anchor="start" x="396.62" y="-95.08" font-family="Times New Roman,serif" font-weight="bold" font-size="9.00">Obesity III</text>
<polygon fill="none" stroke="black" points="323.62,-83.38 323.62,-110.62 446.62,-110.62 446.62,-83.38 323.62,-83.38"/>
</g>
<!-- n_2_5_6&#45;&gt;n_2_6 -->
<g id="edge8" class="edge">
<title>n_2_5_6&#45;&gt;n_2_6</title>
<path fill="none" stroke="black" d="M392.65,-158.22C391.44,-148.54 389.96,-136.72 388.64,-126.11"/>
<polygon fill="black" stroke="black" points="392.13,-125.83 387.42,-116.35 385.19,-126.7 392.13,-125.83"/>
</g>
<!-- n_5 -->
<g id="node12" class="node">
<title>n_5</title>
<polygon fill="none" stroke="black" points="492.62,-84.38 492.62,-109.62 545.62,-109.62 545.62,-84.38 492.62,-84.38"/>
<text text-anchor="start" x="499.62" y="-95.08" font-family="Times New Roman,serif" font-weight="bold" font-size="9.00">Obesity II</text>
<polygon fill="none" stroke="black" points="491.62,-83.38 491.62,-110.62 546.62,-110.62 546.62,-83.38 491.62,-83.38"/>
</g>
<!-- n_2_5_6&#45;&gt;n_5 -->
<g id="edge11" class="edge">
<title>n_2_5_6&#45;&gt;n_5</title>
<path fill="none" stroke="black" d="M426.1,-158.02C443.53,-146.77 465.37,-132.68 483.51,-120.98"/>
<polygon fill="black" stroke="black" points="485.37,-123.94 491.88,-115.58 481.58,-118.06 485.37,-123.94"/>
</g>
<!-- n_2 -->
<g id="node10" class="node">
<title>n_2</title>
<polygon fill="none" stroke="black" points="285.62,-5.38 285.62,-30.62 350.62,-30.62 350.62,-5.38 285.62,-5.38"/>
<text text-anchor="start" x="292.62" y="-16.07" font-family="Times New Roman,serif" font-weight="bold" font-size="9.00">Overweight I</text>
<polygon fill="none" stroke="black" points="284.62,-4.38 284.62,-31.62 351.62,-31.62 351.62,-4.38 284.62,-4.38"/>
</g>
<!-- n_2_6&#45;&gt;n_2 -->
<g id="edge9" class="edge">
<title>n_2_6&#45;&gt;n_2</title>
<path fill="none" stroke="black" d="M370.59,-79.29C361.69,-69.07 350.14,-55.79 340.14,-44.3"/>
<polygon fill="black" stroke="black" points="343.06,-42.33 333.86,-37.08 337.78,-46.92 343.06,-42.33"/>
</g>
<!-- n_6 -->
<g id="node11" class="node">
<title>n_6</title>
<polygon fill="none" stroke="black" points="398.12,-5.38 398.12,-30.62 454.12,-30.62 454.12,-5.38 398.12,-5.38"/>
<text text-anchor="start" x="405.12" y="-16.07" font-family="Times New Roman,serif" font-weight="bold" font-size="9.00">Obesity III</text>
<polygon fill="none" stroke="black" points="397.12,-4.38 397.12,-31.62 455.12,-31.62 455.12,-4.38 397.12,-4.38"/>
</g>
<!-- n_2_6&#45;&gt;n_6 -->
<g id="edge10" class="edge">
<title>n_2_6&#45;&gt;n_6</title>
<path fill="none" stroke="black" d="M394.02,-79.29C399.2,-69.57 405.84,-57.09 411.75,-46"/>
<polygon fill="black" stroke="black" points="414.78,-47.75 416.39,-37.28 408.6,-44.46 414.78,-47.75"/>
</g>
</g>
</svg>
