<?xml version="1.0" encoding="UTF-8" standalone="no"?>
<!DOCTYPE svg PUBLIC "-//W3C//DTD SVG 1.1//EN"
 "http://www.w3.org/Graphics/SVG/1.1/DTD/svg11.dtd">
<!-- Generated by graphviz version 10.0.1 (20240210.2158)
 -->
<!-- Title: ND Pages: 1 -->
<svg width="592pt" height="405pt"
 viewBox="0.00 0.00 592.00 405.00" xmlns="http://www.w3.org/2000/svg" xmlns:xlink="http://www.w3.org/1999/xlink">
<g id="graph0" class="graph" transform="scale(1 1) rotate(0) translate(4 401)">
<title>ND</title>
<polygon fill="white" stroke="none" points="-4,4 -4,-401 588,-401 588,4 -4,4"/>
<!-- n_0_1_2_3_4_5_6 -->
<g id="node1" class="node">
<title>n_0_1_2_3_4_5_6</title>
<polygon fill="none" stroke="black" points="255.88,-342 255.88,-392 344.12,-392 344.12,-342 255.88,-342"/>
<text text-anchor="start" x="262.88" y="-377.45" font-family="Times New Roman,serif" font-weight="bold" font-size="9.00">Insufficient weight</text>
<text text-anchor="start" x="285" y="-368.45" font-family="Times New Roman,serif" font-weight="bold" font-size="9.00">Normal</text>
<text text-anchor="start" x="274.5" y="-359.45" font-family="Times New Roman,serif" font-weight="bold" font-size="9.00">Overweight I</text>
<text text-anchor="start" x="280.5" y="-350.45" font-family="Times New Roman,serif" font-weight="bold" font-size="9.00">Obesity II</text>
<polygon fill="none" stroke="black" points="344.12,-342 344.12,-392 412.12,-392 412.12,-342 344.12,-342"/>
<text text-anchor="start" x="351.12" y="-372.95" font-family="Times New Roman,serif" font-weight="bold" font-size="9.00">Overweight II</text>
<text text-anchor="start" x="360.12" y="-363.95" font-family="Times New Roman,serif" font-weight="bold" font-size="9.00">Obesity I</text>
<text text-anchor="start" x="357.12" y="-354.95" font-family="Times New Roman,serif" font-weight="bold" font-size="9.00">Obesity III</text>
<polygon fill="none" stroke="black" points="254.88,-341 254.88,-393 413.12,-393 413.12,-341 254.88,-341"/>
</g>
<!-- n_0_1_2_5 -->
<g id="node2" class="node">
<title>n_0_1_2_5</title>
<polygon fill="none" stroke="black" points="166.38,-248 166.38,-289 231.38,-289 231.38,-248 166.38,-248"/>
<text text-anchor="start" x="183.88" y="-274.45" font-family="Times New Roman,serif" font-weight="bold" font-size="9.00">Normal</text>
<text text-anchor="start" x="173.38" y="-265.45" font-family="Times New Roman,serif" font-weight="bold" font-size="9.00">Overweight I</text>
<text text-anchor="start" x="179.38" y="-256.45" font-family="Times New Roman,serif" font-weight="bold" font-size="9.00">Obesity II</text>
<polygon fill="none" stroke="black" points="231.38,-248 231.38,-289 319.62,-289 319.62,-248 231.38,-248"/>
<text text-anchor="start" x="238.38" y="-266.57" font-family="Times New Roman,serif" font-weight="bold" font-size="9.00">Insufficient weight</text>
<polygon fill="none" stroke="black" points="165.38,-247 165.38,-290 320.62,-290 320.62,-247 165.38,-247"/>
</g>
<!-- n_0_1_2_3_4_5_6&#45;&gt;n_0_1_2_5 -->
<g id="edge1" class="edge">
<title>n_0_1_2_3_4_5_6&#45;&gt;n_0_1_2_5</title>
<path fill="none" stroke="black" d="M306.7,-337.05C296.35,-326.08 284.5,-313.51 273.85,-302.22"/>
<polygon fill="black" stroke="black" points="276.43,-299.85 267.02,-294.98 271.34,-304.65 276.43,-299.85"/>
</g>
<!-- n_3_4_6 -->
<g id="node9" class="node">
<title>n_3_4_6</title>
<polygon fill="none" stroke="black" points="367,-252.5 367,-284.5 435,-284.5 435,-252.5 367,-252.5"/>
<text text-anchor="start" x="374" y="-269.95" font-family="Times New Roman,serif" font-weight="bold" font-size="9.00">Overweight II</text>
<text text-anchor="start" x="380" y="-260.95" font-family="Times New Roman,serif" font-weight="bold" font-size="9.00">Obesity III</text>
<polygon fill="none" stroke="black" points="435,-252.5 435,-284.5 485,-284.5 485,-252.5 435,-252.5"/>
<text text-anchor="start" x="442" y="-266.57" font-family="Times New Roman,serif" font-weight="bold" font-size="9.00">Obesity I</text>
<polygon fill="none" stroke="black" points="366,-251.5 366,-285.5 486,-285.5 486,-251.5 366,-251.5"/>
</g>
<!-- n_0_1_2_3_4_5_6&#45;&gt;n_3_4_6 -->
<g id="edge8" class="edge">
<title>n_0_1_2_3_4_5_6&#45;&gt;n_3_4_6</title>
<path fill="none" stroke="black" d="M361.6,-337.05C373.56,-324.51 387.5,-309.89 399.35,-297.46"/>
<polygon fill="black" stroke="black" points="401.75,-300.01 406.12,-290.35 396.68,-295.18 401.75,-300.01"/>
</g>
<!-- n_1_2_5 -->
<g id="node3" class="node">
<title>n_1_2_5</title>
<polygon fill="none" stroke="black" points="44,-163 44,-195 109,-195 109,-163 44,-163"/>
<text text-anchor="start" x="61.5" y="-180.45" font-family="Times New Roman,serif" font-weight="bold" font-size="9.00">Normal</text>
<text text-anchor="start" x="51" y="-171.45" font-family="Times New Roman,serif" font-weight="bold" font-size="9.00">Overweight I</text>
<polygon fill="none" stroke="black" points="109,-163 109,-195 162,-195 162,-163 109,-163"/>
<text text-anchor="start" x="116" y="-177.07" font-family="Times New Roman,serif" font-weight="bold" font-size="9.00">Obesity II</text>
<polygon fill="none" stroke="black" points="43,-162 43,-196 163,-196 163,-162 43,-162"/>
</g>
<!-- n_0_1_2_5&#45;&gt;n_1_2_5 -->
<g id="edge2" class="edge">
<title>n_0_1_2_5&#45;&gt;n_1_2_5</title>
<path fill="none" stroke="black" d="M204,-243.13C185.4,-231.5 163.14,-217.59 144.25,-205.78"/>
<polygon fill="black" stroke="black" points="146.34,-202.96 136.01,-200.63 142.63,-208.9 146.34,-202.96"/>
</g>
<!-- n_0 -->
<g id="node8" class="node">
<title>n_0</title>
<polygon fill="none" stroke="black" points="208.88,-166.38 208.88,-191.62 297.12,-191.62 297.12,-166.38 208.88,-166.38"/>
<text text-anchor="start" x="215.88" y="-177.07" font-family="Times New Roman,serif" font-weight="bold" font-size="9.00">Insufficient weight</text>
<polygon fill="none" stroke="black" points="207.88,-165.38 207.88,-192.62 298.12,-192.62 298.12,-165.38 207.88,-165.38"/>
</g>
<!-- n_0_1_2_5&#45;&gt;n_0 -->
<g id="edge7" class="edge">
<title>n_0_1_2_5&#45;&gt;n_0</title>
<path fill="none" stroke="black" d="M245.79,-243.13C247.02,-232.28 248.49,-219.45 249.78,-208.19"/>
<polygon fill="black" stroke="black" points="253.25,-208.61 250.91,-198.27 246.3,-207.81 253.25,-208.61"/>
</g>
<!-- n_1_2 -->
<g id="node4" class="node">
<title>n_1_2</title>
<polygon fill="none" stroke="black" points="27.5,-84.38 27.5,-109.62 71.5,-109.62 71.5,-84.38 27.5,-84.38"/>
<text text-anchor="start" x="34.5" y="-95.08" font-family="Times New Roman,serif" font-weight="bold" font-size="9.00">Normal</text>
<polygon fill="none" stroke="black" points="71.5,-84.38 71.5,-109.62 136.5,-109.62 136.5,-84.38 71.5,-84.38"/>
<text text-anchor="start" x="78.5" y="-95.08" font-family="Times New Roman,serif" font-weight="bold" font-size="9.00">Overweight I</text>
<polygon fill="none" stroke="black" points="26.5,-83.38 26.5,-110.62 137.5,-110.62 137.5,-83.38 26.5,-83.38"/>
</g>
<!-- n_1_2_5&#45;&gt;n_1_2 -->
<g id="edge3" class="edge">
<title>n_1_2_5&#45;&gt;n_1_2</title>
<path fill="none" stroke="black" d="M97.81,-158.22C95.24,-148.44 92.1,-136.46 89.29,-125.77"/>
<polygon fill="black" stroke="black" points="92.73,-125.09 86.81,-116.31 85.96,-126.87 92.73,-125.09"/>
</g>
<!-- n_5 -->
<g id="node7" class="node">
<title>n_5</title>
<polygon fill="none" stroke="black" points="183.5,-84.38 183.5,-109.62 236.5,-109.62 236.5,-84.38 183.5,-84.38"/>
<text text-anchor="start" x="190.5" y="-95.08" font-family="Times New Roman,serif" font-weight="bold" font-size="9.00">Obesity II</text>
<polygon fill="none" stroke="black" points="182.5,-83.38 182.5,-110.62 237.5,-110.62 237.5,-83.38 182.5,-83.38"/>
</g>
<!-- n_1_2_5&#45;&gt;n_5 -->
<g id="edge6" class="edge">
<title>n_1_2_5&#45;&gt;n_5</title>
<path fill="none" stroke="black" d="M129.72,-158.02C144.49,-146.98 162.92,-133.2 178.39,-121.63"/>
<polygon fill="black" stroke="black" points="180.46,-124.46 186.37,-115.66 176.27,-118.85 180.46,-124.46"/>
</g>
<!-- n_1 -->
<g id="node5" class="node">
<title>n_1</title>
<polygon fill="none" stroke="black" points="9,-5.38 9,-30.62 53,-30.62 53,-5.38 9,-5.38"/>
<text text-anchor="start" x="16" y="-16.07" font-family="Times New Roman,serif" font-weight="bold" font-size="9.00">Normal</text>
<polygon fill="none" stroke="black" points="8,-4.38 8,-31.62 54,-31.62 54,-4.38 8,-4.38"/>
</g>
<!-- n_1_2&#45;&gt;n_1 -->
<g id="edge4" class="edge">
<title>n_1_2&#45;&gt;n_1</title>
<path fill="none" stroke="black" d="M70.93,-79.29C64.36,-69.37 55.89,-56.57 48.43,-45.32"/>
<polygon fill="black" stroke="black" points="51.5,-43.61 43.06,-37.2 45.66,-47.47 51.5,-43.61"/>
</g>
<!-- n_2 -->
<g id="node6" class="node">
<title>n_2</title>
<polygon fill="none" stroke="black" points="100.5,-5.38 100.5,-30.62 165.5,-30.62 165.5,-5.38 100.5,-5.38"/>
<text text-anchor="start" x="107.5" y="-16.07" font-family="Times New Roman,serif" font-weight="bold" font-size="9.00">Overweight I</text>
<polygon fill="none" stroke="black" points="99.5,-4.38 99.5,-31.62 166.5,-31.62 166.5,-4.38 99.5,-4.38"/>
</g>
<!-- n_1_2&#45;&gt;n_2 -->
<g id="edge5" class="edge">
<title>n_1_2&#45;&gt;n_2</title>
<path fill="none" stroke="black" d="M93.07,-79.29C99.64,-69.37 108.11,-56.57 115.57,-45.32"/>
<polygon fill="black" stroke="black" points="118.34,-47.47 120.94,-37.2 112.5,-43.61 118.34,-47.47"/>
</g>
<!-- n_3_6 -->
<g id="node10" class="node">
<title>n_3_6</title>
<polygon fill="none" stroke="black" points="354,-166.38 354,-191.62 422,-191.62 422,-166.38 354,-166.38"/>
<text text-anchor="start" x="361" y="-177.07" font-family="Times New Roman,serif" font-weight="bold" font-size="9.00">Overweight II</text>
<polygon fill="none" stroke="black" points="422,-166.38 422,-191.62 478,-191.62 478,-166.38 422,-166.38"/>
<text text-anchor="start" x="429" y="-177.07" font-family="Times New Roman,serif" font-weight="bold" font-size="9.00">Obesity III</text>
<polygon fill="none" stroke="black" points="353,-165.38 353,-192.62 479,-192.62 479,-165.38 353,-165.38"/>
</g>
<!-- n_3_4_6&#45;&gt;n_3_6 -->
<g id="edge9" class="edge">
<title>n_3_4_6&#45;&gt;n_3_6</title>
<path fill="none" stroke="black" d="M423.73,-247.64C422.39,-235.91 420.67,-220.86 419.19,-207.94"/>
<polygon fill="black" stroke="black" points="422.71,-207.87 418.1,-198.34 415.75,-208.67 422.71,-207.87"/>
</g>
<!-- n_4 -->
<g id="node13" class="node">
<title>n_4</title>
<polygon fill="none" stroke="black" points="525,-166.38 525,-191.62 575,-191.62 575,-166.38 525,-166.38"/>
<text text-anchor="start" x="532" y="-177.07" font-family="Times New Roman,serif" font-weight="bold" font-size="9.00">Obesity I</text>
<polygon fill="none" stroke="black" points="524,-165.38 524,-192.62 576,-192.62 576,-165.38 524,-165.38"/>
</g>
<!-- n_3_4_6&#45;&gt;n_4 -->
<g id="edge12" class="edge">
<title>n_3_4_6&#45;&gt;n_4</title>
<path fill="none" stroke="black" d="M454.14,-247.64C472.81,-234.47 497.38,-217.13 516.98,-203.3"/>
<polygon fill="black" stroke="black" points="518.76,-206.33 524.91,-197.7 514.72,-200.61 518.76,-206.33"/>
</g>
<!-- n_3 -->
<g id="node11" class="node">
<title>n_3</title>
<polygon fill="none" stroke="black" points="333,-84.38 333,-109.62 401,-109.62 401,-84.38 333,-84.38"/>
<text text-anchor="start" x="340" y="-95.08" font-family="Times New Roman,serif" font-weight="bold" font-size="9.00">Overweight II</text>
<polygon fill="none" stroke="black" points="332,-83.38 332,-110.62 402,-110.62 402,-83.38 332,-83.38"/>
</g>
<!-- n_3_6&#45;&gt;n_3 -->
<g id="edge10" class="edge">
<title>n_3_6&#45;&gt;n_3</title>
<path fill="none" stroke="black" d="M405.61,-161.03C399.11,-150.43 390.61,-136.54 383.23,-124.51"/>
<polygon fill="black" stroke="black" points="386.38,-122.93 378.17,-116.23 380.41,-126.59 386.38,-122.93"/>
</g>
<!-- n_6 -->
<g id="node12" class="node">
<title>n_6</title>
<polygon fill="none" stroke="black" points="448,-84.38 448,-109.62 504,-109.62 504,-84.38 448,-84.38"/>
<text text-anchor="start" x="455" y="-95.08" font-family="Times New Roman,serif" font-weight="bold" font-size="9.00">Obesity III</text>
<polygon fill="none" stroke="black" points="447,-83.38 447,-110.62 505,-110.62 505,-83.38 447,-83.38"/>
</g>
<!-- n_3_6&#45;&gt;n_6 -->
<g id="edge11" class="edge">
<title>n_3_6&#45;&gt;n_6</title>
<path fill="none" stroke="black" d="M428.72,-161.03C436.76,-150.32 447.3,-136.27 456.39,-124.15"/>
<polygon fill="black" stroke="black" points="459.19,-126.25 462.39,-116.15 453.59,-122.05 459.19,-126.25"/>
</g>
</g>
</svg>
