<?xml version="1.0" encoding="UTF-8" standalone="no"?>
<!DOCTYPE svg PUBLIC "-//W3C//DTD SVG 1.1//EN"
 "http://www.w3.org/Graphics/SVG/1.1/DTD/svg11.dtd">
<!-- Generated by graphviz version 10.0.1 (20240210.2158)
 -->
<!-- Title: ND Pages: 1 -->
<svg width="574pt" height="535pt"
 viewBox="0.00 0.00 574.00 535.00" xmlns="http://www.w3.org/2000/svg" xmlns:xlink="http://www.w3.org/1999/xlink">
<g id="graph0" class="graph" transform="scale(1 1) rotate(0) translate(4 531)">
<title>ND</title>
<polygon fill="white" stroke="none" points="-4,4 -4,-531 570,-531 570,4 -4,4"/>
<!-- n_0_1_2_3_4_5_6 -->
<g id="node1" class="node">
<title>n_0_1_2_3_4_5_6</title>
<polygon fill="none" stroke="black" points="386.88,-454 386.88,-522 475.12,-522 475.12,-454 386.88,-454"/>
<text text-anchor="start" x="393.88" y="-507.45" font-family="Times New Roman,serif" font-weight="bold" font-size="9.00">Insufficient weight</text>
<text text-anchor="start" x="416" y="-498.45" font-family="Times New Roman,serif" font-weight="bold" font-size="9.00">Normal</text>
<text text-anchor="start" x="405.5" y="-489.45" font-family="Times New Roman,serif" font-weight="bold" font-size="9.00">Overweight I</text>
<text text-anchor="start" x="404" y="-480.45" font-family="Times New Roman,serif" font-weight="bold" font-size="9.00">Overweight II</text>
<text text-anchor="start" x="413" y="-471.45" font-family="Times New Roman,serif" font-weight="bold" font-size="9.00">Obesity I</text>
<text text-anchor="start" x="410" y="-462.45" font-family="Times New Roman,serif" font-weight="bold" font-size="9.00">Obesity III</text>
<polygon fill="none" stroke="black" points="475.12,-454 475.12,-522 528.12,-522 528.12,-454 475.12,-454"/>
<text text-anchor="start" x="482.12" y="-486.07" font-family="Times New Roman,serif" font-weight="bold" font-size="9.00">Obesity II</text>
<polygon fill="none" stroke="black" points="385.88,-453 385.88,-523 529.12,-523 529.12,-453 385.88,-453"/>
</g>
<!-- n_0_1_2_3_4_6 -->
<g id="node2" class="node">
<title>n_0_1_2_3_4_6</title>
<polygon fill="none" stroke="black" points="312.38,-342 312.38,-401 400.62,-401 400.62,-342 312.38,-342"/>
<text text-anchor="start" x="319.38" y="-386.45" font-family="Times New Roman,serif" font-weight="bold" font-size="9.00">Insufficient weight</text>
<text text-anchor="start" x="341.5" y="-377.45" font-family="Times New Roman,serif" font-weight="bold" font-size="9.00">Normal</text>
<text text-anchor="start" x="331" y="-368.45" font-family="Times New Roman,serif" font-weight="bold" font-size="9.00">Overweight I</text>
<text text-anchor="start" x="329.5" y="-359.45" font-family="Times New Roman,serif" font-weight="bold" font-size="9.00">Overweight II</text>
<text text-anchor="start" x="338.5" y="-350.45" font-family="Times New Roman,serif" font-weight="bold" font-size="9.00">Obesity I</text>
<polygon fill="none" stroke="black" points="400.62,-342 400.62,-401 456.62,-401 456.62,-342 400.62,-342"/>
<text text-anchor="start" x="407.62" y="-369.57" font-family="Times New Roman,serif" font-weight="bold" font-size="9.00">Obesity III</text>
<polygon fill="none" stroke="black" points="311.38,-341 311.38,-402 457.62,-402 457.62,-341 311.38,-341"/>
</g>
<!-- n_0_1_2_3_4_5_6&#45;&gt;n_0_1_2_3_4_6 -->
<g id="edge1" class="edge">
<title>n_0_1_2_3_4_5_6&#45;&gt;n_0_1_2_3_4_6</title>
<path fill="none" stroke="black" d="M433.39,-449.19C426.46,-438.31 418.84,-426.36 411.73,-415.21"/>
<polygon fill="black" stroke="black" points="414.78,-413.48 406.45,-406.93 408.87,-417.24 414.78,-413.48"/>
</g>
<!-- n_5 -->
<g id="node13" class="node">
<title>n_5</title>
<polygon fill="none" stroke="black" points="504,-358.88 504,-384.12 557,-384.12 557,-358.88 504,-358.88"/>
<text text-anchor="start" x="511" y="-369.57" font-family="Times New Roman,serif" font-weight="bold" font-size="9.00">Obesity II</text>
<polygon fill="none" stroke="black" points="503,-357.88 503,-385.12 558,-385.12 558,-357.88 503,-357.88"/>
</g>
<!-- n_0_1_2_3_4_5_6&#45;&gt;n_5 -->
<g id="edge12" class="edge">
<title>n_0_1_2_3_4_5_6&#45;&gt;n_5</title>
<path fill="none" stroke="black" d="M481.61,-449.19C492.07,-432.78 504.07,-413.96 513.56,-399.07"/>
<polygon fill="black" stroke="black" points="516.45,-401.05 518.87,-390.74 510.54,-397.29 516.45,-401.05"/>
</g>
<!-- n_0_1_2_3_4 -->
<g id="node3" class="node">
<title>n_0_1_2_3_4</title>
<polygon fill="none" stroke="black" points="230.38,-248 230.38,-289 298.38,-289 298.38,-248 230.38,-248"/>
<text text-anchor="start" x="238.88" y="-274.45" font-family="Times New Roman,serif" font-weight="bold" font-size="9.00">Overweight I</text>
<text text-anchor="start" x="237.38" y="-265.45" font-family="Times New Roman,serif" font-weight="bold" font-size="9.00">Overweight II</text>
<text text-anchor="start" x="246.38" y="-256.45" font-family="Times New Roman,serif" font-weight="bold" font-size="9.00">Obesity I</text>
<polygon fill="none" stroke="black" points="298.38,-248 298.38,-289 386.62,-289 386.62,-248 298.38,-248"/>
<text text-anchor="start" x="305.38" y="-269.95" font-family="Times New Roman,serif" font-weight="bold" font-size="9.00">Insufficient weight</text>
<text text-anchor="start" x="327.5" y="-260.95" font-family="Times New Roman,serif" font-weight="bold" font-size="9.00">Normal</text>
<polygon fill="none" stroke="black" points="229.38,-247 229.38,-290 387.62,-290 387.62,-247 229.38,-247"/>
</g>
<!-- n_0_1_2_3_4_6&#45;&gt;n_0_1_2_3_4 -->
<g id="edge2" class="edge">
<title>n_0_1_2_3_4_6&#45;&gt;n_0_1_2_3_4</title>
<path fill="none" stroke="black" d="M359.4,-337.15C351.09,-326.11 341.85,-313.82 333.55,-302.78"/>
<polygon fill="black" stroke="black" points="336.55,-300.96 327.74,-295.07 330.96,-305.16 336.55,-300.96"/>
</g>
<!-- n_6 -->
<g id="node12" class="node">
<title>n_6</title>
<polygon fill="none" stroke="black" points="433.5,-255.88 433.5,-281.12 489.5,-281.12 489.5,-255.88 433.5,-255.88"/>
<text text-anchor="start" x="440.5" y="-266.57" font-family="Times New Roman,serif" font-weight="bold" font-size="9.00">Obesity III</text>
<polygon fill="none" stroke="black" points="432.5,-254.88 432.5,-282.12 490.5,-282.12 490.5,-254.88 432.5,-254.88"/>
</g>
<!-- n_0_1_2_3_4_6&#45;&gt;n_6 -->
<g id="edge11" class="edge">
<title>n_0_1_2_3_4_6&#45;&gt;n_6</title>
<path fill="none" stroke="black" d="M409.93,-337.15C420.26,-323.6 432.02,-308.17 441.69,-295.48"/>
<polygon fill="black" stroke="black" points="444.43,-297.66 447.71,-287.58 438.87,-293.41 444.43,-297.66"/>
</g>
<!-- n_2_3_4 -->
<g id="node4" class="node">
<title>n_2_3_4</title>
<polygon fill="none" stroke="black" points="152,-163 152,-195 217,-195 217,-163 152,-163"/>
<text text-anchor="start" x="159" y="-180.45" font-family="Times New Roman,serif" font-weight="bold" font-size="9.00">Overweight I</text>
<text text-anchor="start" x="166.5" y="-171.45" font-family="Times New Roman,serif" font-weight="bold" font-size="9.00">Obesity I</text>
<polygon fill="none" stroke="black" points="217,-163 217,-195 285,-195 285,-163 217,-163"/>
<text text-anchor="start" x="224" y="-177.07" font-family="Times New Roman,serif" font-weight="bold" font-size="9.00">Overweight II</text>
<polygon fill="none" stroke="black" points="151,-162 151,-196 286,-196 286,-162 151,-162"/>
</g>
<!-- n_0_1_2_3_4&#45;&gt;n_2_3_4 -->
<g id="edge3" class="edge">
<title>n_0_1_2_3_4&#45;&gt;n_2_3_4</title>
<path fill="none" stroke="black" d="M283.43,-243.13C272.13,-232.14 258.73,-219.11 247.04,-207.75"/>
<polygon fill="black" stroke="black" points="249.59,-205.34 239.98,-200.88 244.71,-210.36 249.59,-205.34"/>
</g>
<!-- n_0_1 -->
<g id="node9" class="node">
<title>n_0_1</title>
<polygon fill="none" stroke="black" points="332.38,-166.38 332.38,-191.62 420.62,-191.62 420.62,-166.38 332.38,-166.38"/>
<text text-anchor="start" x="339.38" y="-177.07" font-family="Times New Roman,serif" font-weight="bold" font-size="9.00">Insufficient weight</text>
<polygon fill="none" stroke="black" points="420.62,-166.38 420.62,-191.62 464.62,-191.62 464.62,-166.38 420.62,-166.38"/>
<text text-anchor="start" x="427.62" y="-177.07" font-family="Times New Roman,serif" font-weight="bold" font-size="9.00">Normal</text>
<polygon fill="none" stroke="black" points="331.38,-165.38 331.38,-192.62 465.62,-192.62 465.62,-165.38 331.38,-165.38"/>
</g>
<!-- n_0_1_2_3_4&#45;&gt;n_0_1 -->
<g id="edge8" class="edge">
<title>n_0_1_2_3_4&#45;&gt;n_0_1</title>
<path fill="none" stroke="black" d="M333.57,-243.13C345.91,-231.13 360.76,-216.7 373.13,-204.66"/>
<polygon fill="black" stroke="black" points="375.43,-207.31 380.17,-197.83 370.56,-202.29 375.43,-207.31"/>
</g>
<!-- n_2_4 -->
<g id="node5" class="node">
<title>n_2_4</title>
<polygon fill="none" stroke="black" points="36,-84.38 36,-109.62 101,-109.62 101,-84.38 36,-84.38"/>
<text text-anchor="start" x="43" y="-95.08" font-family="Times New Roman,serif" font-weight="bold" font-size="9.00">Overweight I</text>
<polygon fill="none" stroke="black" points="101,-84.38 101,-109.62 151,-109.62 151,-84.38 101,-84.38"/>
<text text-anchor="start" x="108" y="-95.08" font-family="Times New Roman,serif" font-weight="bold" font-size="9.00">Obesity I</text>
<polygon fill="none" stroke="black" points="35,-83.38 35,-110.62 152,-110.62 152,-83.38 35,-83.38"/>
</g>
<!-- n_2_3_4&#45;&gt;n_2_4 -->
<g id="edge4" class="edge">
<title>n_2_3_4&#45;&gt;n_2_4</title>
<path fill="none" stroke="black" d="M187.28,-158.02C169.63,-146.72 147.49,-132.55 129.15,-120.82"/>
<polygon fill="black" stroke="black" points="131.27,-118.02 120.96,-115.57 127.5,-123.91 131.27,-118.02"/>
</g>
<!-- n_3 -->
<g id="node8" class="node">
<title>n_3</title>
<polygon fill="none" stroke="black" points="198.5,-84.38 198.5,-109.62 266.5,-109.62 266.5,-84.38 198.5,-84.38"/>
<text text-anchor="start" x="205.5" y="-95.08" font-family="Times New Roman,serif" font-weight="bold" font-size="9.00">Overweight II</text>
<polygon fill="none" stroke="black" points="197.5,-83.38 197.5,-110.62 267.5,-110.62 267.5,-83.38 197.5,-83.38"/>
</g>
<!-- n_2_3_4&#45;&gt;n_3 -->
<g id="edge7" class="edge">
<title>n_2_3_4&#45;&gt;n_3</title>
<path fill="none" stroke="black" d="M221.96,-158.22C223.66,-148.54 225.72,-136.72 227.58,-126.11"/>
<polygon fill="black" stroke="black" points="231.02,-126.79 229.29,-116.33 224.12,-125.58 231.02,-126.79"/>
</g>
<!-- n_2 -->
<g id="node6" class="node">
<title>n_2</title>
<polygon fill="none" stroke="black" points="9,-5.38 9,-30.62 74,-30.62 74,-5.38 9,-5.38"/>
<text text-anchor="start" x="16" y="-16.07" font-family="Times New Roman,serif" font-weight="bold" font-size="9.00">Overweight I</text>
<polygon fill="none" stroke="black" points="8,-4.38 8,-31.62 75,-31.62 75,-4.38 8,-4.38"/>
</g>
<!-- n_2_4&#45;&gt;n_2 -->
<g id="edge5" class="edge">
<title>n_2_4&#45;&gt;n_2</title>
<path fill="none" stroke="black" d="M82.22,-79.29C75.52,-69.37 66.87,-56.57 59.27,-45.32"/>
<polygon fill="black" stroke="black" points="62.28,-43.52 53.79,-37.2 56.48,-47.44 62.28,-43.52"/>
</g>
<!-- n_4 -->
<g id="node7" class="node">
<title>n_4</title>
<polygon fill="none" stroke="black" points="121.5,-5.38 121.5,-30.62 171.5,-30.62 171.5,-5.38 121.5,-5.38"/>
<text text-anchor="start" x="128.5" y="-16.07" font-family="Times New Roman,serif" font-weight="bold" font-size="9.00">Obesity I</text>
<polygon fill="none" stroke="black" points="120.5,-4.38 120.5,-31.62 172.5,-31.62 172.5,-4.38 120.5,-4.38"/>
</g>
<!-- n_2_4&#45;&gt;n_4 -->
<g id="edge6" class="edge">
<title>n_2_4&#45;&gt;n_4</title>
<path fill="none" stroke="black" d="M105,-79.29C111.83,-69.37 120.64,-56.57 128.38,-45.32"/>
<polygon fill="black" stroke="black" points="131.19,-47.41 133.98,-37.19 125.43,-43.44 131.19,-47.41"/>
</g>
<!-- n_0 -->
<g id="node10" class="node">
<title>n_0</title>
<polygon fill="none" stroke="black" points="340.38,-84.38 340.38,-109.62 428.62,-109.62 428.62,-84.38 340.38,-84.38"/>
<text text-anchor="start" x="347.38" y="-95.08" font-family="Times New Roman,serif" font-weight="bold" font-size="9.00">Insufficient weight</text>
<polygon fill="none" stroke="black" points="339.38,-83.38 339.38,-110.62 429.62,-110.62 429.62,-83.38 339.38,-83.38"/>
</g>
<!-- n_0_1&#45;&gt;n_0 -->
<g id="edge9" class="edge">
<title>n_0_1&#45;&gt;n_0</title>
<path fill="none" stroke="black" d="M395.53,-161.03C393.75,-150.85 391.44,-137.65 389.39,-125.96"/>
<polygon fill="black" stroke="black" points="392.9,-125.68 387.73,-116.43 386,-126.89 392.9,-125.68"/>
</g>
<!-- n_1 -->
<g id="node11" class="node">
<title>n_1</title>
<polygon fill="none" stroke="black" points="475.5,-84.38 475.5,-109.62 519.5,-109.62 519.5,-84.38 475.5,-84.38"/>
<text text-anchor="start" x="482.5" y="-95.08" font-family="Times New Roman,serif" font-weight="bold" font-size="9.00">Normal</text>
<polygon fill="none" stroke="black" points="474.5,-83.38 474.5,-110.62 520.5,-110.62 520.5,-83.38 474.5,-83.38"/>
</g>
<!-- n_0_1&#45;&gt;n_1 -->
<g id="edge10" class="edge">
<title>n_0_1&#45;&gt;n_1</title>
<path fill="none" stroke="black" d="M419.5,-161.03C433.54,-149.69 452.23,-134.58 467.79,-122.01"/>
<polygon fill="black" stroke="black" points="469.78,-124.9 475.36,-115.89 465.38,-119.46 469.78,-124.9"/>
</g>
</g>
</svg>
