<?xml version="1.0" encoding="UTF-8" standalone="no"?>
<!DOCTYPE svg PUBLIC "-//W3C//DTD SVG 1.1//EN"
 "http://www.w3.org/Graphics/SVG/1.1/DTD/svg11.dtd">
<!-- Generated by graphviz version 10.0.1 (20240210.2158)
 -->
<!-- Title: ND Pages: 1 -->
<svg width="606pt" height="526pt"
 viewBox="0.00 0.00 605.50 526.00" xmlns="http://www.w3.org/2000/svg" xmlns:xlink="http://www.w3.org/1999/xlink">
<g id="graph0" class="graph" transform="scale(1 1) rotate(0) translate(4 522)">
<title>ND</title>
<polygon fill="white" stroke="none" points="-4,4 -4,-522 601.5,-522 601.5,4 -4,4"/>
<!-- n_0_1_2_3_4_5_6 -->
<g id="node1" class="node">
<title>n_0_1_2_3_4_5_6</title>
<polygon fill="none" stroke="black" points="384.38,-445 384.38,-513 472.62,-513 472.62,-445 384.38,-445"/>
<text text-anchor="start" x="391.38" y="-498.45" font-family="Times New Roman,serif" font-weight="bold" font-size="9.00">Insufficient weight</text>
<text text-anchor="start" x="413.5" y="-489.45" font-family="Times New Roman,serif" font-weight="bold" font-size="9.00">Normal</text>
<text text-anchor="start" x="403" y="-480.45" font-family="Times New Roman,serif" font-weight="bold" font-size="9.00">Overweight I</text>
<text text-anchor="start" x="401.5" y="-471.45" font-family="Times New Roman,serif" font-weight="bold" font-size="9.00">Overweight II</text>
<text text-anchor="start" x="409" y="-462.45" font-family="Times New Roman,serif" font-weight="bold" font-size="9.00">Obesity II</text>
<text text-anchor="start" x="407.5" y="-453.45" font-family="Times New Roman,serif" font-weight="bold" font-size="9.00">Obesity III</text>
<polygon fill="none" stroke="black" points="472.62,-445 472.62,-513 522.62,-513 522.62,-445 472.62,-445"/>
<text text-anchor="start" x="479.62" y="-477.07" font-family="Times New Roman,serif" font-weight="bold" font-size="9.00">Obesity I</text>
<polygon fill="none" stroke="black" points="383.38,-444 383.38,-514 523.62,-514 523.62,-444 383.38,-444"/>
</g>
<!-- n_0_1_2_3_5_6 -->
<g id="node2" class="node">
<title>n_0_1_2_3_5_6</title>
<polygon fill="none" stroke="black" points="300.38,-342 300.38,-392 388.62,-392 388.62,-342 300.38,-342"/>
<text text-anchor="start" x="307.38" y="-377.45" font-family="Times New Roman,serif" font-weight="bold" font-size="9.00">Insufficient weight</text>
<text text-anchor="start" x="319" y="-368.45" font-family="Times New Roman,serif" font-weight="bold" font-size="9.00">Overweight I</text>
<text text-anchor="start" x="325" y="-359.45" font-family="Times New Roman,serif" font-weight="bold" font-size="9.00">Obesity II</text>
<text text-anchor="start" x="323.5" y="-350.45" font-family="Times New Roman,serif" font-weight="bold" font-size="9.00">Obesity III</text>
<polygon fill="none" stroke="black" points="388.62,-342 388.62,-392 456.62,-392 456.62,-342 388.62,-342"/>
<text text-anchor="start" x="407.62" y="-368.45" font-family="Times New Roman,serif" font-weight="bold" font-size="9.00">Normal</text>
<text text-anchor="start" x="395.62" y="-359.45" font-family="Times New Roman,serif" font-weight="bold" font-size="9.00">Overweight II</text>
<polygon fill="none" stroke="black" points="299.38,-341 299.38,-393 457.62,-393 457.62,-341 299.38,-341"/>
</g>
<!-- n_0_1_2_3_4_5_6&#45;&gt;n_0_1_2_3_5_6 -->
<g id="edge1" class="edge">
<title>n_0_1_2_3_4_5_6&#45;&gt;n_0_1_2_3_5_6</title>
<path fill="none" stroke="black" d="M427.69,-440.14C420.22,-429.19 412.06,-417.22 404.57,-406.23"/>
<polygon fill="black" stroke="black" points="407.57,-404.43 399.05,-398.14 401.79,-408.37 407.57,-404.43"/>
</g>
<!-- n_4 -->
<g id="node13" class="node">
<title>n_4</title>
<polygon fill="none" stroke="black" points="503.5,-354.38 503.5,-379.62 553.5,-379.62 553.5,-354.38 503.5,-354.38"/>
<text text-anchor="start" x="510.5" y="-365.07" font-family="Times New Roman,serif" font-weight="bold" font-size="9.00">Obesity I</text>
<polygon fill="none" stroke="black" points="502.5,-353.38 502.5,-380.62 554.5,-380.62 554.5,-353.38 502.5,-353.38"/>
</g>
<!-- n_0_1_2_3_4_5_6&#45;&gt;n_4 -->
<g id="edge12" class="edge">
<title>n_0_1_2_3_4_5_6&#45;&gt;n_4</title>
<path fill="none" stroke="black" d="M479.31,-440.14C489.61,-425.04 501.21,-408.02 510.56,-394.31"/>
<polygon fill="black" stroke="black" points="513.33,-396.47 516.07,-386.23 507.54,-392.52 513.33,-396.47"/>
</g>
<!-- n_0_2_5_6 -->
<g id="node3" class="node">
<title>n_0_2_5_6</title>
<polygon fill="none" stroke="black" points="211.88,-248 211.88,-289 276.88,-289 276.88,-248 211.88,-248"/>
<text text-anchor="start" x="218.88" y="-274.45" font-family="Times New Roman,serif" font-weight="bold" font-size="9.00">Overweight I</text>
<text text-anchor="start" x="224.88" y="-265.45" font-family="Times New Roman,serif" font-weight="bold" font-size="9.00">Obesity II</text>
<text text-anchor="start" x="223.38" y="-256.45" font-family="Times New Roman,serif" font-weight="bold" font-size="9.00">Obesity III</text>
<polygon fill="none" stroke="black" points="276.88,-248 276.88,-289 365.12,-289 365.12,-248 276.88,-248"/>
<text text-anchor="start" x="283.88" y="-266.57" font-family="Times New Roman,serif" font-weight="bold" font-size="9.00">Insufficient weight</text>
<polygon fill="none" stroke="black" points="210.88,-247 210.88,-290 366.12,-290 366.12,-247 210.88,-247"/>
</g>
<!-- n_0_1_2_3_5_6&#45;&gt;n_0_2_5_6 -->
<g id="edge2" class="edge">
<title>n_0_1_2_3_5_6&#45;&gt;n_0_2_5_6</title>
<path fill="none" stroke="black" d="M351.5,-337.05C341.26,-326.08 329.55,-313.51 319.01,-302.22"/>
<polygon fill="black" stroke="black" points="321.65,-299.91 312.26,-294.98 316.53,-304.68 321.65,-299.91"/>
</g>
<!-- n_1_3 -->
<g id="node10" class="node">
<title>n_1_3</title>
<polygon fill="none" stroke="black" points="412.5,-255.88 412.5,-281.12 456.5,-281.12 456.5,-255.88 412.5,-255.88"/>
<text text-anchor="start" x="419.5" y="-266.57" font-family="Times New Roman,serif" font-weight="bold" font-size="9.00">Normal</text>
<polygon fill="none" stroke="black" points="456.5,-255.88 456.5,-281.12 524.5,-281.12 524.5,-255.88 456.5,-255.88"/>
<text text-anchor="start" x="463.5" y="-266.57" font-family="Times New Roman,serif" font-weight="bold" font-size="9.00">Overweight II</text>
<polygon fill="none" stroke="black" points="411.5,-254.88 411.5,-282.12 525.5,-282.12 525.5,-254.88 411.5,-254.88"/>
</g>
<!-- n_0_1_2_3_5_6&#45;&gt;n_1_3 -->
<g id="edge9" class="edge">
<title>n_0_1_2_3_5_6&#45;&gt;n_1_3</title>
<path fill="none" stroke="black" d="M405.5,-337.05C418.16,-323.48 433.09,-307.47 445.24,-294.44"/>
<polygon fill="black" stroke="black" points="447.48,-297.17 451.74,-287.47 442.36,-292.4 447.48,-297.17"/>
</g>
<!-- n_2_5_6 -->
<g id="node4" class="node">
<title>n_2_5_6</title>
<polygon fill="none" stroke="black" points="93,-163 93,-195 149,-195 149,-163 93,-163"/>
<text text-anchor="start" x="101.5" y="-180.45" font-family="Times New Roman,serif" font-weight="bold" font-size="9.00">Obesity II</text>
<text text-anchor="start" x="100" y="-171.45" font-family="Times New Roman,serif" font-weight="bold" font-size="9.00">Obesity III</text>
<polygon fill="none" stroke="black" points="149,-163 149,-195 214,-195 214,-163 149,-163"/>
<text text-anchor="start" x="156" y="-177.07" font-family="Times New Roman,serif" font-weight="bold" font-size="9.00">Overweight I</text>
<polygon fill="none" stroke="black" points="92,-162 92,-196 215,-196 215,-162 92,-162"/>
</g>
<!-- n_0_2_5_6&#45;&gt;n_2_5_6 -->
<g id="edge3" class="edge">
<title>n_0_2_5_6&#45;&gt;n_2_5_6</title>
<path fill="none" stroke="black" d="M250.89,-243.13C233.04,-231.55 211.69,-217.71 193.53,-205.94"/>
<polygon fill="black" stroke="black" points="195.65,-203.15 185.36,-200.65 191.85,-209.03 195.65,-203.15"/>
</g>
<!-- n_0 -->
<g id="node9" class="node">
<title>n_0</title>
<polygon fill="none" stroke="black" points="261.38,-166.38 261.38,-191.62 349.62,-191.62 349.62,-166.38 261.38,-166.38"/>
<text text-anchor="start" x="268.38" y="-177.07" font-family="Times New Roman,serif" font-weight="bold" font-size="9.00">Insufficient weight</text>
<polygon fill="none" stroke="black" points="260.38,-165.38 260.38,-192.62 350.62,-192.62 350.62,-165.38 260.38,-165.38"/>
</g>
<!-- n_0_2_5_6&#45;&gt;n_0 -->
<g id="edge8" class="edge">
<title>n_0_2_5_6&#45;&gt;n_0</title>
<path fill="none" stroke="black" d="M293.24,-243.13C295.36,-232.17 297.89,-219.18 300.09,-207.84"/>
<polygon fill="black" stroke="black" points="303.48,-208.74 301.95,-198.26 296.61,-207.41 303.48,-208.74"/>
</g>
<!-- n_5_6 -->
<g id="node5" class="node">
<title>n_5_6</title>
<polygon fill="none" stroke="black" points="32,-84.38 32,-109.62 85,-109.62 85,-84.38 32,-84.38"/>
<text text-anchor="start" x="39" y="-95.08" font-family="Times New Roman,serif" font-weight="bold" font-size="9.00">Obesity II</text>
<polygon fill="none" stroke="black" points="85,-84.38 85,-109.62 141,-109.62 141,-84.38 85,-84.38"/>
<text text-anchor="start" x="92" y="-95.08" font-family="Times New Roman,serif" font-weight="bold" font-size="9.00">Obesity III</text>
<polygon fill="none" stroke="black" points="31,-83.38 31,-110.62 142,-110.62 142,-83.38 31,-83.38"/>
</g>
<!-- n_2_5_6&#45;&gt;n_5_6 -->
<g id="edge4" class="edge">
<title>n_2_5_6&#45;&gt;n_5_6</title>
<path fill="none" stroke="black" d="M136.94,-158.22C128.13,-147.71 117.21,-134.66 107.78,-123.41"/>
<polygon fill="black" stroke="black" points="110.68,-121.42 101.58,-116 105.32,-125.92 110.68,-121.42"/>
</g>
<!-- n_2 -->
<g id="node8" class="node">
<title>n_2</title>
<polygon fill="none" stroke="black" points="188,-84.38 188,-109.62 253,-109.62 253,-84.38 188,-84.38"/>
<text text-anchor="start" x="195" y="-95.08" font-family="Times New Roman,serif" font-weight="bold" font-size="9.00">Overweight I</text>
<polygon fill="none" stroke="black" points="187,-83.38 187,-110.62 254,-110.62 254,-83.38 187,-83.38"/>
</g>
<!-- n_2_5_6&#45;&gt;n_2 -->
<g id="edge7" class="edge">
<title>n_2_5_6&#45;&gt;n_2</title>
<path fill="none" stroke="black" d="M170.06,-158.22C178.87,-147.71 189.79,-134.66 199.22,-123.41"/>
<polygon fill="black" stroke="black" points="201.68,-125.92 205.42,-116 196.32,-121.42 201.68,-125.92"/>
</g>
<!-- n_5 -->
<g id="node6" class="node">
<title>n_5</title>
<polygon fill="none" stroke="black" points="9,-5.38 9,-30.62 62,-30.62 62,-5.38 9,-5.38"/>
<text text-anchor="start" x="16" y="-16.07" font-family="Times New Roman,serif" font-weight="bold" font-size="9.00">Obesity II</text>
<polygon fill="none" stroke="black" points="8,-4.38 8,-31.62 63,-31.62 63,-4.38 8,-4.38"/>
</g>
<!-- n_5_6&#45;&gt;n_5 -->
<g id="edge5" class="edge">
<title>n_5_6&#45;&gt;n_5</title>
<path fill="none" stroke="black" d="M75.43,-79.29C68.86,-69.37 60.39,-56.57 52.93,-45.32"/>
<polygon fill="black" stroke="black" points="56,-43.61 47.56,-37.2 50.16,-47.47 56,-43.61"/>
</g>
<!-- n_6 -->
<g id="node7" class="node">
<title>n_6</title>
<polygon fill="none" stroke="black" points="109.5,-5.38 109.5,-30.62 165.5,-30.62 165.5,-5.38 109.5,-5.38"/>
<text text-anchor="start" x="116.5" y="-16.07" font-family="Times New Roman,serif" font-weight="bold" font-size="9.00">Obesity III</text>
<polygon fill="none" stroke="black" points="108.5,-4.38 108.5,-31.62 166.5,-31.62 166.5,-4.38 108.5,-4.38"/>
</g>
<!-- n_5_6&#45;&gt;n_6 -->
<g id="edge6" class="edge">
<title>n_5_6&#45;&gt;n_6</title>
<path fill="none" stroke="black" d="M97.57,-79.29C104.14,-69.37 112.61,-56.57 120.07,-45.32"/>
<polygon fill="black" stroke="black" points="122.84,-47.47 125.44,-37.2 117,-43.61 122.84,-47.47"/>
</g>
<!-- n_1 -->
<g id="node11" class="node">
<title>n_1</title>
<polygon fill="none" stroke="black" points="429.5,-166.38 429.5,-191.62 473.5,-191.62 473.5,-166.38 429.5,-166.38"/>
<text text-anchor="start" x="436.5" y="-177.07" font-family="Times New Roman,serif" font-weight="bold" font-size="9.00">Normal</text>
<polygon fill="none" stroke="black" points="428.5,-165.38 428.5,-192.62 474.5,-192.62 474.5,-165.38 428.5,-165.38"/>
</g>
<!-- n_1_3&#45;&gt;n_1 -->
<g id="edge10" class="edge">
<title>n_1_3&#45;&gt;n_1</title>
<path fill="none" stroke="black" d="M465.22,-250.63C462.87,-238.52 459.65,-221.94 456.92,-207.88"/>
<polygon fill="black" stroke="black" points="460.4,-207.45 455.06,-198.3 453.53,-208.79 460.4,-207.45"/>
</g>
<!-- n_3 -->
<g id="node12" class="node">
<title>n_3</title>
<polygon fill="none" stroke="black" points="520.5,-166.38 520.5,-191.62 588.5,-191.62 588.5,-166.38 520.5,-166.38"/>
<text text-anchor="start" x="527.5" y="-177.07" font-family="Times New Roman,serif" font-weight="bold" font-size="9.00">Overweight II</text>
<polygon fill="none" stroke="black" points="519.5,-165.38 519.5,-192.62 589.5,-192.62 589.5,-165.38 519.5,-165.38"/>
</g>
<!-- n_1_3&#45;&gt;n_3 -->
<g id="edge11" class="edge">
<title>n_1_3&#45;&gt;n_3</title>
<path fill="none" stroke="black" d="M485.08,-250.63C497.81,-237.68 515.59,-219.59 529.96,-204.97"/>
<polygon fill="black" stroke="black" points="532.39,-207.48 536.91,-197.9 527.4,-202.58 532.39,-207.48"/>
</g>
</g>
</svg>
