<?xml version="1.0" encoding="UTF-8" standalone="no"?>
<!DOCTYPE svg PUBLIC "-//W3C//DTD SVG 1.1//EN"
 "http://www.w3.org/Graphics/SVG/1.1/DTD/svg11.dtd">
<!-- Generated by graphviz version 10.0.1 (20240210.2158)
 -->
<!-- Title: ND Pages: 1 -->
<svg width="617pt" height="405pt"
 viewBox="0.00 0.00 616.50 405.00" xmlns="http://www.w3.org/2000/svg" xmlns:xlink="http://www.w3.org/1999/xlink">
<g id="graph0" class="graph" transform="scale(1 1) rotate(0) translate(4 401)">
<title>ND</title>
<polygon fill="white" stroke="none" points="-4,4 -4,-401 612.5,-401 612.5,4 -4,4"/>
<!-- n_0_1_2_3_4_5_6 -->
<g id="node1" class="node">
<title>n_0_1_2_3_4_5_6</title>
<polygon fill="none" stroke="black" points="261.38,-342 261.38,-392 326.38,-392 326.38,-342 261.38,-342"/>
<text text-anchor="start" x="278.88" y="-377.45" font-family="Times New Roman,serif" font-weight="bold" font-size="9.00">Normal</text>
<text text-anchor="start" x="268.38" y="-368.45" font-family="Times New Roman,serif" font-weight="bold" font-size="9.00">Overweight I</text>
<text text-anchor="start" x="275.88" y="-359.45" font-family="Times New Roman,serif" font-weight="bold" font-size="9.00">Obesity I</text>
<text text-anchor="start" x="272.88" y="-350.45" font-family="Times New Roman,serif" font-weight="bold" font-size="9.00">Obesity III</text>
<polygon fill="none" stroke="black" points="326.38,-342 326.38,-392 414.62,-392 414.62,-342 326.38,-342"/>
<text text-anchor="start" x="333.38" y="-372.95" font-family="Times New Roman,serif" font-weight="bold" font-size="9.00">Insufficient weight</text>
<text text-anchor="start" x="343.5" y="-363.95" font-family="Times New Roman,serif" font-weight="bold" font-size="9.00">Overweight II</text>
<text text-anchor="start" x="351" y="-354.95" font-family="Times New Roman,serif" font-weight="bold" font-size="9.00">Obesity II</text>
<polygon fill="none" stroke="black" points="260.38,-341 260.38,-393 415.62,-393 415.62,-341 260.38,-341"/>
</g>
<!-- n_1_2_4_6 -->
<g id="node2" class="node">
<title>n_1_2_4_6</title>
<polygon fill="none" stroke="black" points="188.5,-248 188.5,-289 253.5,-289 253.5,-248 188.5,-248"/>
<text text-anchor="start" x="206" y="-274.45" font-family="Times New Roman,serif" font-weight="bold" font-size="9.00">Normal</text>
<text text-anchor="start" x="195.5" y="-265.45" font-family="Times New Roman,serif" font-weight="bold" font-size="9.00">Overweight I</text>
<text text-anchor="start" x="203" y="-256.45" font-family="Times New Roman,serif" font-weight="bold" font-size="9.00">Obesity I</text>
<polygon fill="none" stroke="black" points="253.5,-248 253.5,-289 309.5,-289 309.5,-248 253.5,-248"/>
<text text-anchor="start" x="260.5" y="-266.57" font-family="Times New Roman,serif" font-weight="bold" font-size="9.00">Obesity III</text>
<polygon fill="none" stroke="black" points="187.5,-247 187.5,-290 310.5,-290 310.5,-247 187.5,-247"/>
</g>
<!-- n_0_1_2_3_4_5_6&#45;&gt;n_1_2_4_6 -->
<g id="edge1" class="edge">
<title>n_0_1_2_3_4_5_6&#45;&gt;n_1_2_4_6</title>
<path fill="none" stroke="black" d="M311.3,-337.05C301.18,-326.08 289.59,-313.51 279.17,-302.22"/>
<polygon fill="black" stroke="black" points="281.86,-299.97 272.51,-294.99 276.71,-304.71 281.86,-299.97"/>
</g>
<!-- n_0_3_5 -->
<g id="node9" class="node">
<title>n_0_3_5</title>
<polygon fill="none" stroke="black" points="356.38,-252.5 356.38,-284.5 444.62,-284.5 444.62,-252.5 356.38,-252.5"/>
<text text-anchor="start" x="363.38" y="-269.95" font-family="Times New Roman,serif" font-weight="bold" font-size="9.00">Insufficient weight</text>
<text text-anchor="start" x="373.5" y="-260.95" font-family="Times New Roman,serif" font-weight="bold" font-size="9.00">Overweight II</text>
<polygon fill="none" stroke="black" points="444.62,-252.5 444.62,-284.5 497.62,-284.5 497.62,-252.5 444.62,-252.5"/>
<text text-anchor="start" x="451.62" y="-266.57" font-family="Times New Roman,serif" font-weight="bold" font-size="9.00">Obesity II</text>
<polygon fill="none" stroke="black" points="355.38,-251.5 355.38,-285.5 498.62,-285.5 498.62,-251.5 355.38,-251.5"/>
</g>
<!-- n_0_1_2_3_4_5_6&#45;&gt;n_0_3_5 -->
<g id="edge8" class="edge">
<title>n_0_1_2_3_4_5_6&#45;&gt;n_0_3_5</title>
<path fill="none" stroke="black" d="M364.7,-337.05C376.27,-324.51 389.75,-309.89 401.21,-297.46"/>
<polygon fill="black" stroke="black" points="403.54,-300.1 407.75,-290.37 398.4,-295.35 403.54,-300.1"/>
</g>
<!-- n_1_2_4 -->
<g id="node3" class="node">
<title>n_1_2_4</title>
<polygon fill="none" stroke="black" points="65.5,-163 65.5,-195 115.5,-195 115.5,-163 65.5,-163"/>
<text text-anchor="start" x="75.5" y="-180.45" font-family="Times New Roman,serif" font-weight="bold" font-size="9.00">Normal</text>
<text text-anchor="start" x="72.5" y="-171.45" font-family="Times New Roman,serif" font-weight="bold" font-size="9.00">Obesity I</text>
<polygon fill="none" stroke="black" points="115.5,-163 115.5,-195 180.5,-195 180.5,-163 115.5,-163"/>
<text text-anchor="start" x="122.5" y="-177.07" font-family="Times New Roman,serif" font-weight="bold" font-size="9.00">Overweight I</text>
<polygon fill="none" stroke="black" points="64.5,-162 64.5,-196 181.5,-196 181.5,-162 64.5,-162"/>
</g>
<!-- n_1_2_4_6&#45;&gt;n_1_2_4 -->
<g id="edge2" class="edge">
<title>n_1_2_4_6&#45;&gt;n_1_2_4</title>
<path fill="none" stroke="black" d="M213.9,-243.13C197.31,-231.61 177.49,-217.84 160.6,-206.11"/>
<polygon fill="black" stroke="black" points="163,-203.52 152.79,-200.69 159.01,-209.27 163,-203.52"/>
</g>
<!-- n_6 -->
<g id="node8" class="node">
<title>n_6</title>
<polygon fill="none" stroke="black" points="228,-166.38 228,-191.62 284,-191.62 284,-166.38 228,-166.38"/>
<text text-anchor="start" x="235" y="-177.07" font-family="Times New Roman,serif" font-weight="bold" font-size="9.00">Obesity III</text>
<polygon fill="none" stroke="black" points="227,-165.38 227,-192.62 285,-192.62 285,-165.38 227,-165.38"/>
</g>
<!-- n_1_2_4_6&#45;&gt;n_6 -->
<g id="edge7" class="edge">
<title>n_1_2_4_6&#45;&gt;n_6</title>
<path fill="none" stroke="black" d="M250.95,-243.13C251.82,-232.28 252.84,-219.45 253.74,-208.19"/>
<polygon fill="black" stroke="black" points="257.23,-208.53 254.54,-198.28 250.25,-207.97 257.23,-208.53"/>
</g>
<!-- n_1_4 -->
<g id="node4" class="node">
<title>n_1_4</title>
<polygon fill="none" stroke="black" points="31,-84.38 31,-109.62 75,-109.62 75,-84.38 31,-84.38"/>
<text text-anchor="start" x="38" y="-95.08" font-family="Times New Roman,serif" font-weight="bold" font-size="9.00">Normal</text>
<polygon fill="none" stroke="black" points="75,-84.38 75,-109.62 125,-109.62 125,-84.38 75,-84.38"/>
<text text-anchor="start" x="82" y="-95.08" font-family="Times New Roman,serif" font-weight="bold" font-size="9.00">Obesity I</text>
<polygon fill="none" stroke="black" points="30,-83.38 30,-110.62 126,-110.62 126,-83.38 30,-83.38"/>
</g>
<!-- n_1_2_4&#45;&gt;n_1_4 -->
<g id="edge3" class="edge">
<title>n_1_2_4&#45;&gt;n_1_4</title>
<path fill="none" stroke="black" d="M111.88,-158.22C106.2,-148.13 99.2,-135.69 93.05,-124.75"/>
<polygon fill="black" stroke="black" points="96.17,-123.16 88.22,-116.16 90.07,-126.59 96.17,-123.16"/>
</g>
<!-- n_2 -->
<g id="node7" class="node">
<title>n_2</title>
<polygon fill="none" stroke="black" points="172.5,-84.38 172.5,-109.62 237.5,-109.62 237.5,-84.38 172.5,-84.38"/>
<text text-anchor="start" x="179.5" y="-95.08" font-family="Times New Roman,serif" font-weight="bold" font-size="9.00">Overweight I</text>
<polygon fill="none" stroke="black" points="171.5,-83.38 171.5,-110.62 238.5,-110.62 238.5,-83.38 171.5,-83.38"/>
</g>
<!-- n_1_2_4&#45;&gt;n_2 -->
<g id="edge6" class="edge">
<title>n_1_2_4&#45;&gt;n_2</title>
<path fill="none" stroke="black" d="M143.27,-158.22C154.26,-147.5 167.95,-134.15 179.64,-122.74"/>
<polygon fill="black" stroke="black" points="181.94,-125.39 186.65,-115.9 177.05,-120.38 181.94,-125.39"/>
</g>
<!-- n_1 -->
<g id="node5" class="node">
<title>n_1</title>
<polygon fill="none" stroke="black" points="9,-5.38 9,-30.62 53,-30.62 53,-5.38 9,-5.38"/>
<text text-anchor="start" x="16" y="-16.07" font-family="Times New Roman,serif" font-weight="bold" font-size="9.00">Normal</text>
<polygon fill="none" stroke="black" points="8,-4.38 8,-31.62 54,-31.62 54,-4.38 8,-4.38"/>
</g>
<!-- n_1_4&#45;&gt;n_1 -->
<g id="edge4" class="edge">
<title>n_1_4&#45;&gt;n_1</title>
<path fill="none" stroke="black" d="M67.8,-79.29C61.81,-69.47 54.09,-56.83 47.27,-45.66"/>
<polygon fill="black" stroke="black" points="50.33,-43.95 42.13,-37.23 44.35,-47.59 50.33,-43.95"/>
</g>
<!-- n_4 -->
<g id="node6" class="node">
<title>n_4</title>
<polygon fill="none" stroke="black" points="100,-5.38 100,-30.62 150,-30.62 150,-5.38 100,-5.38"/>
<text text-anchor="start" x="107" y="-16.07" font-family="Times New Roman,serif" font-weight="bold" font-size="9.00">Obesity I</text>
<polygon fill="none" stroke="black" points="99,-4.38 99,-31.62 151,-31.62 151,-4.38 99,-4.38"/>
</g>
<!-- n_1_4&#45;&gt;n_4 -->
<g id="edge5" class="edge">
<title>n_1_4&#45;&gt;n_4</title>
<path fill="none" stroke="black" d="M88.2,-79.29C94.19,-69.47 101.91,-56.83 108.73,-45.66"/>
<polygon fill="black" stroke="black" points="111.65,-47.59 113.87,-37.23 105.67,-43.95 111.65,-47.59"/>
</g>
<!-- n_0_3 -->
<g id="node10" class="node">
<title>n_0_3</title>
<polygon fill="none" stroke="black" points="342.88,-166.38 342.88,-191.62 431.12,-191.62 431.12,-166.38 342.88,-166.38"/>
<text text-anchor="start" x="349.88" y="-177.07" font-family="Times New Roman,serif" font-weight="bold" font-size="9.00">Insufficient weight</text>
<polygon fill="none" stroke="black" points="431.12,-166.38 431.12,-191.62 499.12,-191.62 499.12,-166.38 431.12,-166.38"/>
<text text-anchor="start" x="438.12" y="-177.07" font-family="Times New Roman,serif" font-weight="bold" font-size="9.00">Overweight II</text>
<polygon fill="none" stroke="black" points="341.88,-165.38 341.88,-192.62 500.12,-192.62 500.12,-165.38 341.88,-165.38"/>
</g>
<!-- n_0_3_5&#45;&gt;n_0_3 -->
<g id="edge9" class="edge">
<title>n_0_3_5&#45;&gt;n_0_3</title>
<path fill="none" stroke="black" d="M425.64,-247.64C424.83,-235.91 423.8,-220.86 422.92,-207.94"/>
<polygon fill="black" stroke="black" points="426.43,-208.08 422.26,-198.34 419.45,-208.56 426.43,-208.08"/>
</g>
<!-- n_5 -->
<g id="node13" class="node">
<title>n_5</title>
<polygon fill="none" stroke="black" points="546.5,-166.38 546.5,-191.62 599.5,-191.62 599.5,-166.38 546.5,-166.38"/>
<text text-anchor="start" x="553.5" y="-177.07" font-family="Times New Roman,serif" font-weight="bold" font-size="9.00">Obesity II</text>
<polygon fill="none" stroke="black" points="545.5,-165.38 545.5,-192.62 600.5,-192.62 600.5,-165.38 545.5,-165.38"/>
</g>
<!-- n_0_3_5&#45;&gt;n_5 -->
<g id="edge12" class="edge">
<title>n_0_3_5&#45;&gt;n_5</title>
<path fill="none" stroke="black" d="M460.13,-247.64C482.41,-234.29 511.84,-216.66 535.06,-202.74"/>
<polygon fill="black" stroke="black" points="536.84,-205.75 543.62,-197.61 533.24,-199.75 536.84,-205.75"/>
</g>
<!-- n_0 -->
<g id="node11" class="node">
<title>n_0</title>
<polygon fill="none" stroke="black" points="330.88,-84.38 330.88,-109.62 419.12,-109.62 419.12,-84.38 330.88,-84.38"/>
<text text-anchor="start" x="337.88" y="-95.08" font-family="Times New Roman,serif" font-weight="bold" font-size="9.00">Insufficient weight</text>
<polygon fill="none" stroke="black" points="329.88,-83.38 329.88,-110.62 420.12,-110.62 420.12,-83.38 329.88,-83.38"/>
</g>
<!-- n_0_3&#45;&gt;n_0 -->
<g id="edge10" class="edge">
<title>n_0_3&#45;&gt;n_0</title>
<path fill="none" stroke="black" d="M411.24,-161.03C405.21,-150.53 397.32,-136.82 390.45,-124.87"/>
<polygon fill="black" stroke="black" points="393.51,-123.18 385.5,-116.25 387.45,-126.67 393.51,-123.18"/>
</g>
<!-- n_3 -->
<g id="node12" class="node">
<title>n_3</title>
<polygon fill="none" stroke="black" points="466,-84.38 466,-109.62 534,-109.62 534,-84.38 466,-84.38"/>
<text text-anchor="start" x="473" y="-95.08" font-family="Times New Roman,serif" font-weight="bold" font-size="9.00">Overweight II</text>
<polygon fill="none" stroke="black" points="465,-83.38 465,-110.62 535,-110.62 535,-83.38 465,-83.38"/>
</g>
<!-- n_0_3&#45;&gt;n_3 -->
<g id="edge11" class="edge">
<title>n_0_3&#45;&gt;n_3</title>
<path fill="none" stroke="black" d="M437.75,-161.03C448.65,-150 463.04,-135.43 475.24,-123.07"/>
<polygon fill="black" stroke="black" points="477.67,-125.59 482.21,-116.02 472.69,-120.67 477.67,-125.59"/>
</g>
</g>
</svg>
