<?xml version="1.0" encoding="UTF-8" standalone="no"?>
<!DOCTYPE svg PUBLIC "-//W3C//DTD SVG 1.1//EN"
 "http://www.w3.org/Graphics/SVG/1.1/DTD/svg11.dtd">
<!-- Generated by graphviz version 10.0.1 (20240210.2158)
 -->
<!-- Title: ND Pages: 1 -->
<svg width="558pt" height="638pt"
 viewBox="0.00 0.00 557.50 638.00" xmlns="http://www.w3.org/2000/svg" xmlns:xlink="http://www.w3.org/1999/xlink">
<g id="graph0" class="graph" transform="scale(1 1) rotate(0) translate(4 634)">
<title>ND</title>
<polygon fill="white" stroke="none" points="-4,4 -4,-634 553.5,-634 553.5,4 -4,4"/>
<!-- n_0_1_2_3_4_5_6 -->
<g id="node1" class="node">
<title>n_0_1_2_3_4_5_6</title>
<polygon fill="none" stroke="black" points="367.38,-557 367.38,-625 455.62,-625 455.62,-557 367.38,-557"/>
<text text-anchor="start" x="374.38" y="-610.45" font-family="Times New Roman,serif" font-weight="bold" font-size="9.00">Insufficient weight</text>
<text text-anchor="start" x="396.5" y="-601.45" font-family="Times New Roman,serif" font-weight="bold" font-size="9.00">Normal</text>
<text text-anchor="start" x="386" y="-592.45" font-family="Times New Roman,serif" font-weight="bold" font-size="9.00">Overweight I</text>
<text text-anchor="start" x="384.5" y="-583.45" font-family="Times New Roman,serif" font-weight="bold" font-size="9.00">Overweight II</text>
<text text-anchor="start" x="393.5" y="-574.45" font-family="Times New Roman,serif" font-weight="bold" font-size="9.00">Obesity I</text>
<text text-anchor="start" x="390.5" y="-565.45" font-family="Times New Roman,serif" font-weight="bold" font-size="9.00">Obesity III</text>
<polygon fill="none" stroke="black" points="455.62,-557 455.62,-625 508.62,-625 508.62,-557 455.62,-557"/>
<text text-anchor="start" x="462.62" y="-589.08" font-family="Times New Roman,serif" font-weight="bold" font-size="9.00">Obesity II</text>
<polygon fill="none" stroke="black" points="366.38,-556 366.38,-626 509.62,-626 509.62,-556 366.38,-556"/>
</g>
<!-- n_0_1_2_3_4_6 -->
<g id="node2" class="node">
<title>n_0_1_2_3_4_6</title>
<polygon fill="none" stroke="black" points="283.88,-445 283.88,-504 372.12,-504 372.12,-445 283.88,-445"/>
<text text-anchor="start" x="290.88" y="-489.45" font-family="Times New Roman,serif" font-weight="bold" font-size="9.00">Insufficient weight</text>
<text text-anchor="start" x="313" y="-480.45" font-family="Times New Roman,serif" font-weight="bold" font-size="9.00">Normal</text>
<text text-anchor="start" x="302.5" y="-471.45" font-family="Times New Roman,serif" font-weight="bold" font-size="9.00">Overweight I</text>
<text text-anchor="start" x="310" y="-462.45" font-family="Times New Roman,serif" font-weight="bold" font-size="9.00">Obesity I</text>
<text text-anchor="start" x="307" y="-453.45" font-family="Times New Roman,serif" font-weight="bold" font-size="9.00">Obesity III</text>
<polygon fill="none" stroke="black" points="372.12,-445 372.12,-504 440.12,-504 440.12,-445 372.12,-445"/>
<text text-anchor="start" x="379.12" y="-472.57" font-family="Times New Roman,serif" font-weight="bold" font-size="9.00">Overweight II</text>
<polygon fill="none" stroke="black" points="282.88,-444 282.88,-505 441.12,-505 441.12,-444 282.88,-444"/>
</g>
<!-- n_0_1_2_3_4_5_6&#45;&gt;n_0_1_2_3_4_6 -->
<g id="edge1" class="edge">
<title>n_0_1_2_3_4_5_6&#45;&gt;n_0_1_2_3_4_6</title>
<path fill="none" stroke="black" d="M412.9,-552.19C405.68,-541.31 397.75,-529.36 390.35,-518.21"/>
<polygon fill="black" stroke="black" points="393.29,-516.31 384.84,-509.91 387.46,-520.18 393.29,-516.31"/>
</g>
<!-- n_5 -->
<g id="node13" class="node">
<title>n_5</title>
<polygon fill="none" stroke="black" points="487.5,-461.88 487.5,-487.12 540.5,-487.12 540.5,-461.88 487.5,-461.88"/>
<text text-anchor="start" x="494.5" y="-472.57" font-family="Times New Roman,serif" font-weight="bold" font-size="9.00">Obesity II</text>
<polygon fill="none" stroke="black" points="486.5,-460.88 486.5,-488.12 541.5,-488.12 541.5,-460.88 486.5,-460.88"/>
</g>
<!-- n_0_1_2_3_4_5_6&#45;&gt;n_5 -->
<g id="edge12" class="edge">
<title>n_0_1_2_3_4_5_6&#45;&gt;n_5</title>
<path fill="none" stroke="black" d="M463.1,-552.19C474.09,-535.63 486.72,-516.6 496.65,-501.64"/>
<polygon fill="black" stroke="black" points="499.29,-503.99 501.9,-493.72 493.46,-500.12 499.29,-503.99"/>
</g>
<!-- n_0_1_2_4_6 -->
<g id="node3" class="node">
<title>n_0_1_2_4_6</title>
<polygon fill="none" stroke="black" points="206.38,-342 206.38,-392 271.38,-392 271.38,-342 206.38,-342"/>
<text text-anchor="start" x="223.88" y="-377.45" font-family="Times New Roman,serif" font-weight="bold" font-size="9.00">Normal</text>
<text text-anchor="start" x="213.38" y="-368.45" font-family="Times New Roman,serif" font-weight="bold" font-size="9.00">Overweight I</text>
<text text-anchor="start" x="220.88" y="-359.45" font-family="Times New Roman,serif" font-weight="bold" font-size="9.00">Obesity I</text>
<text text-anchor="start" x="217.88" y="-350.45" font-family="Times New Roman,serif" font-weight="bold" font-size="9.00">Obesity III</text>
<polygon fill="none" stroke="black" points="271.38,-342 271.38,-392 359.62,-392 359.62,-342 271.38,-342"/>
<text text-anchor="start" x="278.38" y="-365.07" font-family="Times New Roman,serif" font-weight="bold" font-size="9.00">Insufficient weight</text>
<polygon fill="none" stroke="black" points="205.38,-341 205.38,-393 360.62,-393 360.62,-341 205.38,-341"/>
</g>
<!-- n_0_1_2_3_4_6&#45;&gt;n_0_1_2_4_6 -->
<g id="edge2" class="edge">
<title>n_0_1_2_3_4_6&#45;&gt;n_0_1_2_4_6</title>
<path fill="none" stroke="black" d="M337,-440.12C328.88,-429.27 319.81,-417.16 311.45,-406"/>
<polygon fill="black" stroke="black" points="314.34,-404.02 305.55,-398.11 308.74,-408.21 314.34,-404.02"/>
</g>
<!-- n_3 -->
<g id="node12" class="node">
<title>n_3</title>
<polygon fill="none" stroke="black" points="407,-354.38 407,-379.62 475,-379.62 475,-354.38 407,-354.38"/>
<text text-anchor="start" x="414" y="-365.07" font-family="Times New Roman,serif" font-weight="bold" font-size="9.00">Overweight II</text>
<polygon fill="none" stroke="black" points="406,-353.38 406,-380.62 476,-380.62 476,-353.38 406,-353.38"/>
</g>
<!-- n_0_1_2_3_4_6&#45;&gt;n_3 -->
<g id="edge11" class="edge">
<title>n_0_1_2_3_4_6&#45;&gt;n_3</title>
<path fill="none" stroke="black" d="M387,-440.12C398.16,-425.21 411.12,-407.9 421.55,-393.98"/>
<polygon fill="black" stroke="black" points="424.21,-396.26 427.4,-386.16 418.6,-392.07 424.21,-396.26"/>
</g>
<!-- n_1_2_4_6 -->
<g id="node4" class="node">
<title>n_1_2_4_6</title>
<polygon fill="none" stroke="black" points="146.5,-248 146.5,-289 211.5,-289 211.5,-248 146.5,-248"/>
<text text-anchor="start" x="164" y="-274.45" font-family="Times New Roman,serif" font-weight="bold" font-size="9.00">Normal</text>
<text text-anchor="start" x="153.5" y="-265.45" font-family="Times New Roman,serif" font-weight="bold" font-size="9.00">Overweight I</text>
<text text-anchor="start" x="161" y="-256.45" font-family="Times New Roman,serif" font-weight="bold" font-size="9.00">Obesity I</text>
<polygon fill="none" stroke="black" points="211.5,-248 211.5,-289 267.5,-289 267.5,-248 211.5,-248"/>
<text text-anchor="start" x="218.5" y="-266.57" font-family="Times New Roman,serif" font-weight="bold" font-size="9.00">Obesity III</text>
<polygon fill="none" stroke="black" points="145.5,-247 145.5,-290 268.5,-290 268.5,-247 145.5,-247"/>
</g>
<!-- n_0_1_2_4_6&#45;&gt;n_1_2_4_6 -->
<g id="edge3" class="edge">
<title>n_0_1_2_4_6&#45;&gt;n_1_2_4_6</title>
<path fill="none" stroke="black" d="M260.2,-337.05C251.73,-326.29 242.05,-314 233.29,-302.88"/>
<polygon fill="black" stroke="black" points="236.07,-300.75 227.13,-295.06 230.57,-305.09 236.07,-300.75"/>
</g>
<!-- n_0 -->
<g id="node11" class="node">
<title>n_0</title>
<polygon fill="none" stroke="black" points="314.88,-255.88 314.88,-281.12 403.12,-281.12 403.12,-255.88 314.88,-255.88"/>
<text text-anchor="start" x="321.88" y="-266.57" font-family="Times New Roman,serif" font-weight="bold" font-size="9.00">Insufficient weight</text>
<polygon fill="none" stroke="black" points="313.88,-254.88 313.88,-282.12 404.12,-282.12 404.12,-254.88 313.88,-254.88"/>
</g>
<!-- n_0_1_2_4_6&#45;&gt;n_0 -->
<g id="edge10" class="edge">
<title>n_0_1_2_4_6&#45;&gt;n_0</title>
<path fill="none" stroke="black" d="M305.8,-337.05C316.29,-323.73 328.62,-308.07 338.77,-295.19"/>
<polygon fill="black" stroke="black" points="341.34,-297.58 344.78,-287.55 335.84,-293.25 341.34,-297.58"/>
</g>
<!-- n_1_2_4 -->
<g id="node5" class="node">
<title>n_1_2_4</title>
<polygon fill="none" stroke="black" points="83.5,-163 83.5,-195 133.5,-195 133.5,-163 83.5,-163"/>
<text text-anchor="start" x="93.5" y="-180.45" font-family="Times New Roman,serif" font-weight="bold" font-size="9.00">Normal</text>
<text text-anchor="start" x="90.5" y="-171.45" font-family="Times New Roman,serif" font-weight="bold" font-size="9.00">Obesity I</text>
<polygon fill="none" stroke="black" points="133.5,-163 133.5,-195 198.5,-195 198.5,-163 133.5,-163"/>
<text text-anchor="start" x="140.5" y="-177.07" font-family="Times New Roman,serif" font-weight="bold" font-size="9.00">Overweight I</text>
<polygon fill="none" stroke="black" points="82.5,-162 82.5,-196 199.5,-196 199.5,-162 82.5,-162"/>
</g>
<!-- n_1_2_4_6&#45;&gt;n_1_2_4 -->
<g id="edge4" class="edge">
<title>n_1_2_4_6&#45;&gt;n_1_2_4</title>
<path fill="none" stroke="black" d="M188.62,-243.13C180.57,-232.46 171.07,-219.87 162.68,-208.75"/>
<polygon fill="black" stroke="black" points="165.68,-206.91 156.87,-201.03 160.09,-211.13 165.68,-206.91"/>
</g>
<!-- n_6 -->
<g id="node10" class="node">
<title>n_6</title>
<polygon fill="none" stroke="black" points="246,-166.38 246,-191.62 302,-191.62 302,-166.38 246,-166.38"/>
<text text-anchor="start" x="253" y="-177.07" font-family="Times New Roman,serif" font-weight="bold" font-size="9.00">Obesity III</text>
<polygon fill="none" stroke="black" points="245,-165.38 245,-192.62 303,-192.62 303,-165.38 245,-165.38"/>
</g>
<!-- n_1_2_4_6&#45;&gt;n_6 -->
<g id="edge9" class="edge">
<title>n_1_2_4_6&#45;&gt;n_6</title>
<path fill="none" stroke="black" d="M225.66,-243.13C234.58,-231.48 245.27,-217.53 254.32,-205.71"/>
<polygon fill="black" stroke="black" points="256.94,-208.04 260.24,-197.97 251.38,-203.78 256.94,-208.04"/>
</g>
<!-- n_1_4 -->
<g id="node6" class="node">
<title>n_1_4</title>
<polygon fill="none" stroke="black" points="31,-84.38 31,-109.62 75,-109.62 75,-84.38 31,-84.38"/>
<text text-anchor="start" x="38" y="-95.08" font-family="Times New Roman,serif" font-weight="bold" font-size="9.00">Normal</text>
<polygon fill="none" stroke="black" points="75,-84.38 75,-109.62 125,-109.62 125,-84.38 75,-84.38"/>
<text text-anchor="start" x="82" y="-95.08" font-family="Times New Roman,serif" font-weight="bold" font-size="9.00">Obesity I</text>
<polygon fill="none" stroke="black" points="30,-83.38 30,-110.62 126,-110.62 126,-83.38 30,-83.38"/>
</g>
<!-- n_1_2_4&#45;&gt;n_1_4 -->
<g id="edge5" class="edge">
<title>n_1_2_4&#45;&gt;n_1_4</title>
<path fill="none" stroke="black" d="M125.43,-158.22C117.23,-147.81 107.08,-134.92 98.27,-123.74"/>
<polygon fill="black" stroke="black" points="101.14,-121.72 92.2,-116.03 95.64,-126.05 101.14,-121.72"/>
</g>
<!-- n_2 -->
<g id="node9" class="node">
<title>n_2</title>
<polygon fill="none" stroke="black" points="172.5,-84.38 172.5,-109.62 237.5,-109.62 237.5,-84.38 172.5,-84.38"/>
<text text-anchor="start" x="179.5" y="-95.08" font-family="Times New Roman,serif" font-weight="bold" font-size="9.00">Overweight I</text>
<polygon fill="none" stroke="black" points="171.5,-83.38 171.5,-110.62 238.5,-110.62 238.5,-83.38 171.5,-83.38"/>
</g>
<!-- n_1_2_4&#45;&gt;n_2 -->
<g id="edge8" class="edge">
<title>n_1_2_4&#45;&gt;n_2</title>
<path fill="none" stroke="black" d="M156.82,-158.22C165.15,-147.81 175.46,-134.92 184.41,-123.74"/>
<polygon fill="black" stroke="black" points="187.07,-126.02 190.58,-116.03 181.6,-121.65 187.07,-126.02"/>
</g>
<!-- n_1 -->
<g id="node7" class="node">
<title>n_1</title>
<polygon fill="none" stroke="black" points="9,-5.38 9,-30.62 53,-30.62 53,-5.38 9,-5.38"/>
<text text-anchor="start" x="16" y="-16.07" font-family="Times New Roman,serif" font-weight="bold" font-size="9.00">Normal</text>
<polygon fill="none" stroke="black" points="8,-4.38 8,-31.62 54,-31.62 54,-4.38 8,-4.38"/>
</g>
<!-- n_1_4&#45;&gt;n_1 -->
<g id="edge6" class="edge">
<title>n_1_4&#45;&gt;n_1</title>
<path fill="none" stroke="black" d="M67.8,-79.29C61.81,-69.47 54.09,-56.83 47.27,-45.66"/>
<polygon fill="black" stroke="black" points="50.33,-43.95 42.13,-37.23 44.35,-47.59 50.33,-43.95"/>
</g>
<!-- n_4 -->
<g id="node8" class="node">
<title>n_4</title>
<polygon fill="none" stroke="black" points="100,-5.38 100,-30.62 150,-30.62 150,-5.38 100,-5.38"/>
<text text-anchor="start" x="107" y="-16.07" font-family="Times New Roman,serif" font-weight="bold" font-size="9.00">Obesity I</text>
<polygon fill="none" stroke="black" points="99,-4.38 99,-31.62 151,-31.62 151,-4.38 99,-4.38"/>
</g>
<!-- n_1_4&#45;&gt;n_4 -->
<g id="edge7" class="edge">
<title>n_1_4&#45;&gt;n_4</title>
<path fill="none" stroke="black" d="M88.2,-79.29C94.19,-69.47 101.91,-56.83 108.73,-45.66"/>
<polygon fill="black" stroke="black" points="111.65,-47.59 113.87,-37.23 105.67,-43.95 111.65,-47.59"/>
</g>
</g>
</svg>
