<?xml version="1.0" encoding="UTF-8" standalone="no"?>
<!DOCTYPE svg PUBLIC "-//W3C//DTD SVG 1.1//EN"
 "http://www.w3.org/Graphics/SVG/1.1/DTD/svg11.dtd">
<!-- Generated by graphviz version 10.0.1 (20240210.2158)
 -->
<!-- Title: ND Pages: 1 -->
<svg width="665pt" height="517pt"
 viewBox="0.00 0.00 665.00 517.00" xmlns="http://www.w3.org/2000/svg" xmlns:xlink="http://www.w3.org/1999/xlink">
<g id="graph0" class="graph" transform="scale(1 1) rotate(0) translate(4 513)">
<title>ND</title>
<polygon fill="white" stroke="none" points="-4,4 -4,-513 661,-513 661,4 -4,4"/>
<!-- n_0_1_2_3_4_5_6 -->
<g id="node1" class="node">
<title>n_0_1_2_3_4_5_6</title>
<polygon fill="none" stroke="black" points="336.38,-445 336.38,-504 401.38,-504 401.38,-445 336.38,-445"/>
<text text-anchor="start" x="353.88" y="-489.45" font-family="Times New Roman,serif" font-weight="bold" font-size="9.00">Normal</text>
<text text-anchor="start" x="343.38" y="-480.45" font-family="Times New Roman,serif" font-weight="bold" font-size="9.00">Overweight I</text>
<text text-anchor="start" x="350.88" y="-471.45" font-family="Times New Roman,serif" font-weight="bold" font-size="9.00">Obesity I</text>
<text text-anchor="start" x="349.38" y="-462.45" font-family="Times New Roman,serif" font-weight="bold" font-size="9.00">Obesity II</text>
<text text-anchor="start" x="347.88" y="-453.45" font-family="Times New Roman,serif" font-weight="bold" font-size="9.00">Obesity III</text>
<polygon fill="none" stroke="black" points="401.38,-445 401.38,-504 489.62,-504 489.62,-445 401.38,-445"/>
<text text-anchor="start" x="408.38" y="-475.95" font-family="Times New Roman,serif" font-weight="bold" font-size="9.00">Insufficient weight</text>
<text text-anchor="start" x="418.5" y="-466.95" font-family="Times New Roman,serif" font-weight="bold" font-size="9.00">Overweight II</text>
<polygon fill="none" stroke="black" points="335.38,-444 335.38,-505 490.62,-505 490.62,-444 335.38,-444"/>
</g>
<!-- n_1_2_4_5_6 -->
<g id="node2" class="node">
<title>n_1_2_4_5_6</title>
<polygon fill="none" stroke="black" points="259.5,-342 259.5,-392 324.5,-392 324.5,-342 259.5,-342"/>
<text text-anchor="start" x="277" y="-377.45" font-family="Times New Roman,serif" font-weight="bold" font-size="9.00">Normal</text>
<text text-anchor="start" x="266.5" y="-368.45" font-family="Times New Roman,serif" font-weight="bold" font-size="9.00">Overweight I</text>
<text text-anchor="start" x="274" y="-359.45" font-family="Times New Roman,serif" font-weight="bold" font-size="9.00">Obesity I</text>
<text text-anchor="start" x="272.5" y="-350.45" font-family="Times New Roman,serif" font-weight="bold" font-size="9.00">Obesity II</text>
<polygon fill="none" stroke="black" points="324.5,-342 324.5,-392 380.5,-392 380.5,-342 324.5,-342"/>
<text text-anchor="start" x="331.5" y="-365.07" font-family="Times New Roman,serif" font-weight="bold" font-size="9.00">Obesity III</text>
<polygon fill="none" stroke="black" points="258.5,-341 258.5,-393 381.5,-393 381.5,-341 258.5,-341"/>
</g>
<!-- n_0_1_2_3_4_5_6&#45;&gt;n_1_2_4_5_6 -->
<g id="edge1" class="edge">
<title>n_0_1_2_3_4_5_6&#45;&gt;n_1_2_4_5_6</title>
<path fill="none" stroke="black" d="M383.57,-440.12C373.82,-429.05 362.9,-416.67 352.91,-405.33"/>
<polygon fill="black" stroke="black" points="355.71,-403.22 346.48,-398.03 350.46,-407.85 355.71,-403.22"/>
</g>
<!-- n_0_3 -->
<g id="node11" class="node">
<title>n_0_3</title>
<polygon fill="none" stroke="black" points="427.88,-354.38 427.88,-379.62 516.12,-379.62 516.12,-354.38 427.88,-354.38"/>
<text text-anchor="start" x="434.88" y="-365.07" font-family="Times New Roman,serif" font-weight="bold" font-size="9.00">Insufficient weight</text>
<polygon fill="none" stroke="black" points="516.12,-354.38 516.12,-379.62 584.12,-379.62 584.12,-354.38 516.12,-354.38"/>
<text text-anchor="start" x="523.12" y="-365.07" font-family="Times New Roman,serif" font-weight="bold" font-size="9.00">Overweight II</text>
<polygon fill="none" stroke="black" points="426.88,-353.38 426.88,-380.62 585.12,-380.62 585.12,-353.38 426.88,-353.38"/>
</g>
<!-- n_0_1_2_3_4_5_6&#45;&gt;n_0_3 -->
<g id="edge10" class="edge">
<title>n_0_1_2_3_4_5_6&#45;&gt;n_0_3</title>
<path fill="none" stroke="black" d="M442.43,-440.12C455.7,-425.06 471.12,-407.57 483.45,-393.58"/>
<polygon fill="black" stroke="black" points="486.07,-395.9 490.06,-386.09 480.82,-391.27 486.07,-395.9"/>
</g>
<!-- n_1_2_4_5 -->
<g id="node3" class="node">
<title>n_1_2_4_5</title>
<polygon fill="none" stroke="black" points="144,-248 144,-289 197,-289 197,-248 144,-248"/>
<text text-anchor="start" x="155.5" y="-274.45" font-family="Times New Roman,serif" font-weight="bold" font-size="9.00">Normal</text>
<text text-anchor="start" x="152.5" y="-265.45" font-family="Times New Roman,serif" font-weight="bold" font-size="9.00">Obesity I</text>
<text text-anchor="start" x="151" y="-256.45" font-family="Times New Roman,serif" font-weight="bold" font-size="9.00">Obesity II</text>
<polygon fill="none" stroke="black" points="197,-248 197,-289 262,-289 262,-248 197,-248"/>
<text text-anchor="start" x="204" y="-266.57" font-family="Times New Roman,serif" font-weight="bold" font-size="9.00">Overweight I</text>
<polygon fill="none" stroke="black" points="143,-247 143,-290 263,-290 263,-247 143,-247"/>
</g>
<!-- n_1_2_4_5_6&#45;&gt;n_1_2_4_5 -->
<g id="edge2" class="edge">
<title>n_1_2_4_5_6&#45;&gt;n_1_2_4_5</title>
<path fill="none" stroke="black" d="M284.9,-337.05C271.07,-325.65 255.16,-312.52 241.06,-300.89"/>
<polygon fill="black" stroke="black" points="243.66,-298.5 233.72,-294.84 239.21,-303.9 243.66,-298.5"/>
</g>
<!-- n_6 -->
<g id="node10" class="node">
<title>n_6</title>
<polygon fill="none" stroke="black" points="309,-255.88 309,-281.12 365,-281.12 365,-255.88 309,-255.88"/>
<text text-anchor="start" x="316" y="-266.57" font-family="Times New Roman,serif" font-weight="bold" font-size="9.00">Obesity III</text>
<polygon fill="none" stroke="black" points="308,-254.88 308,-282.12 366,-282.12 366,-254.88 308,-254.88"/>
</g>
<!-- n_1_2_4_5_6&#45;&gt;n_6 -->
<g id="edge9" class="edge">
<title>n_1_2_4_5_6&#45;&gt;n_6</title>
<path fill="none" stroke="black" d="M325.1,-337.05C327.31,-324.51 329.88,-309.89 332.07,-297.47"/>
<polygon fill="black" stroke="black" points="335.48,-298.31 333.77,-287.86 328.58,-297.1 335.48,-298.31"/>
</g>
<!-- n_1_4_5 -->
<g id="node4" class="node">
<title>n_1_4_5</title>
<polygon fill="none" stroke="black" points="86.5,-163 86.5,-195 136.5,-195 136.5,-163 86.5,-163"/>
<text text-anchor="start" x="96.5" y="-180.45" font-family="Times New Roman,serif" font-weight="bold" font-size="9.00">Normal</text>
<text text-anchor="start" x="93.5" y="-171.45" font-family="Times New Roman,serif" font-weight="bold" font-size="9.00">Obesity I</text>
<polygon fill="none" stroke="black" points="136.5,-163 136.5,-195 189.5,-195 189.5,-163 136.5,-163"/>
<text text-anchor="start" x="143.5" y="-177.07" font-family="Times New Roman,serif" font-weight="bold" font-size="9.00">Obesity II</text>
<polygon fill="none" stroke="black" points="85.5,-162 85.5,-196 190.5,-196 190.5,-162 85.5,-162"/>
</g>
<!-- n_1_2_4_5&#45;&gt;n_1_4_5 -->
<g id="edge3" class="edge">
<title>n_1_2_4_5&#45;&gt;n_1_4_5</title>
<path fill="none" stroke="black" d="M184.89,-243.13C176.97,-232.46 167.62,-219.87 159.35,-208.75"/>
<polygon fill="black" stroke="black" points="162.4,-206.98 153.63,-201.04 156.78,-211.16 162.4,-206.98"/>
</g>
<!-- n_2 -->
<g id="node9" class="node">
<title>n_2</title>
<polygon fill="none" stroke="black" points="236.5,-166.38 236.5,-191.62 301.5,-191.62 301.5,-166.38 236.5,-166.38"/>
<text text-anchor="start" x="243.5" y="-177.07" font-family="Times New Roman,serif" font-weight="bold" font-size="9.00">Overweight I</text>
<polygon fill="none" stroke="black" points="235.5,-165.38 235.5,-192.62 302.5,-192.62 302.5,-165.38 235.5,-165.38"/>
</g>
<!-- n_1_2_4_5&#45;&gt;n_2 -->
<g id="edge8" class="edge">
<title>n_1_2_4_5&#45;&gt;n_2</title>
<path fill="none" stroke="black" d="M221.38,-243.13C230.17,-231.48 240.69,-217.53 249.61,-205.71"/>
<polygon fill="black" stroke="black" points="252.21,-208.07 255.44,-197.98 246.62,-203.85 252.21,-208.07"/>
</g>
<!-- n_1_4 -->
<g id="node5" class="node">
<title>n_1_4</title>
<polygon fill="none" stroke="black" points="31,-84.38 31,-109.62 75,-109.62 75,-84.38 31,-84.38"/>
<text text-anchor="start" x="38" y="-95.08" font-family="Times New Roman,serif" font-weight="bold" font-size="9.00">Normal</text>
<polygon fill="none" stroke="black" points="75,-84.38 75,-109.62 125,-109.62 125,-84.38 75,-84.38"/>
<text text-anchor="start" x="82" y="-95.08" font-family="Times New Roman,serif" font-weight="bold" font-size="9.00">Obesity I</text>
<polygon fill="none" stroke="black" points="30,-83.38 30,-110.62 126,-110.62 126,-83.38 30,-83.38"/>
</g>
<!-- n_1_4_5&#45;&gt;n_1_4 -->
<g id="edge4" class="edge">
<title>n_1_4_5&#45;&gt;n_1_4</title>
<path fill="none" stroke="black" d="M123.17,-158.22C115.36,-147.81 105.69,-134.92 97.31,-123.74"/>
<polygon fill="black" stroke="black" points="100.34,-121.95 91.54,-116.05 94.74,-126.15 100.34,-121.95"/>
</g>
<!-- n_5 -->
<g id="node8" class="node">
<title>n_5</title>
<polygon fill="none" stroke="black" points="172.5,-84.38 172.5,-109.62 225.5,-109.62 225.5,-84.38 172.5,-84.38"/>
<text text-anchor="start" x="179.5" y="-95.08" font-family="Times New Roman,serif" font-weight="bold" font-size="9.00">Obesity II</text>
<polygon fill="none" stroke="black" points="171.5,-83.38 171.5,-110.62 226.5,-110.62 226.5,-83.38 171.5,-83.38"/>
</g>
<!-- n_1_4_5&#45;&gt;n_5 -->
<g id="edge7" class="edge">
<title>n_1_4_5&#45;&gt;n_5</title>
<path fill="none" stroke="black" d="M153.08,-158.22C161.02,-147.81 170.85,-134.92 179.37,-123.74"/>
<polygon fill="black" stroke="black" points="181.96,-126.12 185.24,-116.05 176.39,-121.88 181.96,-126.12"/>
</g>
<!-- n_1 -->
<g id="node6" class="node">
<title>n_1</title>
<polygon fill="none" stroke="black" points="9,-5.38 9,-30.62 53,-30.62 53,-5.38 9,-5.38"/>
<text text-anchor="start" x="16" y="-16.07" font-family="Times New Roman,serif" font-weight="bold" font-size="9.00">Normal</text>
<polygon fill="none" stroke="black" points="8,-4.38 8,-31.62 54,-31.62 54,-4.38 8,-4.38"/>
</g>
<!-- n_1_4&#45;&gt;n_1 -->
<g id="edge5" class="edge">
<title>n_1_4&#45;&gt;n_1</title>
<path fill="none" stroke="black" d="M67.8,-79.29C61.81,-69.47 54.09,-56.83 47.27,-45.66"/>
<polygon fill="black" stroke="black" points="50.33,-43.95 42.13,-37.23 44.35,-47.59 50.33,-43.95"/>
</g>
<!-- n_4 -->
<g id="node7" class="node">
<title>n_4</title>
<polygon fill="none" stroke="black" points="100,-5.38 100,-30.62 150,-30.62 150,-5.38 100,-5.38"/>
<text text-anchor="start" x="107" y="-16.07" font-family="Times New Roman,serif" font-weight="bold" font-size="9.00">Obesity I</text>
<polygon fill="none" stroke="black" points="99,-4.38 99,-31.62 151,-31.62 151,-4.38 99,-4.38"/>
</g>
<!-- n_1_4&#45;&gt;n_4 -->
<g id="edge6" class="edge">
<title>n_1_4&#45;&gt;n_4</title>
<path fill="none" stroke="black" d="M88.2,-79.29C94.19,-69.47 101.91,-56.83 108.73,-45.66"/>
<polygon fill="black" stroke="black" points="111.65,-47.59 113.87,-37.23 105.67,-43.95 111.65,-47.59"/>
</g>
<!-- n_0 -->
<g id="node12" class="node">
<title>n_0</title>
<polygon fill="none" stroke="black" points="444.88,-255.88 444.88,-281.12 533.12,-281.12 533.12,-255.88 444.88,-255.88"/>
<text text-anchor="start" x="451.88" y="-266.57" font-family="Times New Roman,serif" font-weight="bold" font-size="9.00">Insufficient weight</text>
<polygon fill="none" stroke="black" points="443.88,-254.88 443.88,-282.12 534.12,-282.12 534.12,-254.88 443.88,-254.88"/>
</g>
<!-- n_0_3&#45;&gt;n_0 -->
<g id="edge11" class="edge">
<title>n_0_3&#45;&gt;n_0</title>
<path fill="none" stroke="black" d="M503.04,-349.19C500.54,-335.03 496.92,-314.46 493.98,-297.76"/>
<polygon fill="black" stroke="black" points="497.43,-297.17 492.25,-287.93 490.53,-298.39 497.43,-297.17"/>
</g>
<!-- n_3 -->
<g id="node13" class="node">
<title>n_3</title>
<polygon fill="none" stroke="black" points="580,-255.88 580,-281.12 648,-281.12 648,-255.88 580,-255.88"/>
<text text-anchor="start" x="587" y="-266.57" font-family="Times New Roman,serif" font-weight="bold" font-size="9.00">Overweight II</text>
<polygon fill="none" stroke="black" points="579,-254.88 579,-282.12 649,-282.12 649,-254.88 579,-254.88"/>
</g>
<!-- n_0_3&#45;&gt;n_3 -->
<g id="edge12" class="edge">
<title>n_0_3&#45;&gt;n_3</title>
<path fill="none" stroke="black" d="M524.81,-349.19C541.9,-333.93 567.31,-311.22 586.64,-293.95"/>
<polygon fill="black" stroke="black" points="588.79,-296.72 593.91,-287.45 584.12,-291.5 588.79,-296.72"/>
</g>
</g>
</svg>
