<?xml version="1.0" encoding="UTF-8" standalone="no"?>
<!DOCTYPE svg PUBLIC "-//W3C//DTD SVG 1.1//EN"
 "http://www.w3.org/Graphics/SVG/1.1/DTD/svg11.dtd">
<!-- Generated by graphviz version 10.0.1 (20240210.2158)
 -->
<!-- Title: ND Pages: 1 -->
<svg width="694pt" height="517pt"
 viewBox="0.00 0.00 694.12 517.00" xmlns="http://www.w3.org/2000/svg" xmlns:xlink="http://www.w3.org/1999/xlink">
<g id="graph0" class="graph" transform="scale(1 1) rotate(0) translate(4 513)">
<title>ND</title>
<polygon fill="white" stroke="none" points="-4,4 -4,-513 690.12,-513 690.12,4 -4,4"/>
<!-- n_0_1_2_3_4_5_6 -->
<g id="node1" class="node">
<title>n_0_1_2_3_4_5_6</title>
<polygon fill="none" stroke="black" points="406,-445 406,-504 494.25,-504 494.25,-445 406,-445"/>
<text text-anchor="start" x="413" y="-489.45" font-family="Times New Roman,serif" font-weight="bold" font-size="9.00">Insufficient weight</text>
<text text-anchor="start" x="435.12" y="-480.45" font-family="Times New Roman,serif" font-weight="bold" font-size="9.00">Normal</text>
<text text-anchor="start" x="424.62" y="-471.45" font-family="Times New Roman,serif" font-weight="bold" font-size="9.00">Overweight I</text>
<text text-anchor="start" x="423.12" y="-462.45" font-family="Times New Roman,serif" font-weight="bold" font-size="9.00">Overweight II</text>
<text text-anchor="start" x="430.62" y="-453.45" font-family="Times New Roman,serif" font-weight="bold" font-size="9.00">Obesity II</text>
<polygon fill="none" stroke="black" points="494.25,-445 494.25,-504 550.25,-504 550.25,-445 494.25,-445"/>
<text text-anchor="start" x="504.25" y="-475.95" font-family="Times New Roman,serif" font-weight="bold" font-size="9.00">Obesity I</text>
<text text-anchor="start" x="501.25" y="-466.95" font-family="Times New Roman,serif" font-weight="bold" font-size="9.00">Obesity III</text>
<polygon fill="none" stroke="black" points="405,-444 405,-505 551.25,-505 551.25,-444 405,-444"/>
</g>
<!-- n_0_1_2_3_5 -->
<g id="node2" class="node">
<title>n_0_1_2_3_5</title>
<polygon fill="none" stroke="black" points="311,-342 311,-392 399.25,-392 399.25,-342 311,-342"/>
<text text-anchor="start" x="318" y="-377.45" font-family="Times New Roman,serif" font-weight="bold" font-size="9.00">Insufficient weight</text>
<text text-anchor="start" x="340.12" y="-368.45" font-family="Times New Roman,serif" font-weight="bold" font-size="9.00">Normal</text>
<text text-anchor="start" x="329.62" y="-359.45" font-family="Times New Roman,serif" font-weight="bold" font-size="9.00">Overweight I</text>
<text text-anchor="start" x="335.62" y="-350.45" font-family="Times New Roman,serif" font-weight="bold" font-size="9.00">Obesity II</text>
<polygon fill="none" stroke="black" points="399.25,-342 399.25,-392 467.25,-392 467.25,-342 399.25,-342"/>
<text text-anchor="start" x="406.25" y="-365.07" font-family="Times New Roman,serif" font-weight="bold" font-size="9.00">Overweight II</text>
<polygon fill="none" stroke="black" points="310,-341 310,-393 468.25,-393 468.25,-341 310,-341"/>
</g>
<!-- n_0_1_2_3_4_5_6&#45;&gt;n_0_1_2_3_5 -->
<g id="edge1" class="edge">
<title>n_0_1_2_3_4_5_6&#45;&gt;n_0_1_2_3_5</title>
<path fill="none" stroke="black" d="M449.96,-440.12C440.72,-429.16 430.39,-416.91 420.9,-405.66"/>
<polygon fill="black" stroke="black" points="423.6,-403.44 414.48,-398.05 418.25,-407.96 423.6,-403.44"/>
</g>
<!-- n_4_6 -->
<g id="node11" class="node">
<title>n_4_6</title>
<polygon fill="none" stroke="black" points="514.12,-354.38 514.12,-379.62 564.12,-379.62 564.12,-354.38 514.12,-354.38"/>
<text text-anchor="start" x="521.12" y="-365.07" font-family="Times New Roman,serif" font-weight="bold" font-size="9.00">Obesity I</text>
<polygon fill="none" stroke="black" points="564.12,-354.38 564.12,-379.62 620.12,-379.62 620.12,-354.38 564.12,-354.38"/>
<text text-anchor="start" x="571.12" y="-365.07" font-family="Times New Roman,serif" font-weight="bold" font-size="9.00">Obesity III</text>
<polygon fill="none" stroke="black" points="513.12,-353.38 513.12,-380.62 621.12,-380.62 621.12,-353.38 513.12,-353.38"/>
</g>
<!-- n_0_1_2_3_4_5_6&#45;&gt;n_4_6 -->
<g id="edge10" class="edge">
<title>n_0_1_2_3_4_5_6&#45;&gt;n_4_6</title>
<path fill="none" stroke="black" d="M506.29,-440.12C518.98,-425.06 533.75,-407.57 545.55,-393.58"/>
<polygon fill="black" stroke="black" points="548.08,-396.01 551.85,-386.11 542.73,-391.49 548.08,-396.01"/>
</g>
<!-- n_0_1_2_5 -->
<g id="node3" class="node">
<title>n_0_1_2_5</title>
<polygon fill="none" stroke="black" points="194,-248 194,-289 282.25,-289 282.25,-248 194,-248"/>
<text text-anchor="start" x="201" y="-274.45" font-family="Times New Roman,serif" font-weight="bold" font-size="9.00">Insufficient weight</text>
<text text-anchor="start" x="212.62" y="-265.45" font-family="Times New Roman,serif" font-weight="bold" font-size="9.00">Overweight I</text>
<text text-anchor="start" x="218.62" y="-256.45" font-family="Times New Roman,serif" font-weight="bold" font-size="9.00">Obesity II</text>
<polygon fill="none" stroke="black" points="282.25,-248 282.25,-289 326.25,-289 326.25,-248 282.25,-248"/>
<text text-anchor="start" x="289.25" y="-266.57" font-family="Times New Roman,serif" font-weight="bold" font-size="9.00">Normal</text>
<polygon fill="none" stroke="black" points="193,-247 193,-290 327.25,-290 327.25,-247 193,-247"/>
</g>
<!-- n_0_1_2_3_5&#45;&gt;n_0_1_2_5 -->
<g id="edge2" class="edge">
<title>n_0_1_2_3_5&#45;&gt;n_0_1_2_5</title>
<path fill="none" stroke="black" d="M350.42,-337.05C335.04,-325.54 317.31,-312.27 301.65,-300.56"/>
<polygon fill="black" stroke="black" points="304.02,-297.97 293.92,-294.78 299.83,-303.57 304.02,-297.97"/>
</g>
<!-- n_3 -->
<g id="node10" class="node">
<title>n_3</title>
<polygon fill="none" stroke="black" points="373.12,-255.88 373.12,-281.12 441.12,-281.12 441.12,-255.88 373.12,-255.88"/>
<text text-anchor="start" x="380.12" y="-266.57" font-family="Times New Roman,serif" font-weight="bold" font-size="9.00">Overweight II</text>
<polygon fill="none" stroke="black" points="372.12,-254.88 372.12,-282.12 442.12,-282.12 442.12,-254.88 372.12,-254.88"/>
</g>
<!-- n_0_1_2_3_5&#45;&gt;n_3 -->
<g id="edge9" class="edge">
<title>n_0_1_2_3_5&#45;&gt;n_3</title>
<path fill="none" stroke="black" d="M394.53,-337.05C396.86,-324.51 399.59,-309.89 401.91,-297.47"/>
<polygon fill="black" stroke="black" points="405.31,-298.33 403.7,-287.85 398.43,-297.04 405.31,-298.33"/>
</g>
<!-- n_0_2_5 -->
<g id="node4" class="node">
<title>n_0_2_5</title>
<polygon fill="none" stroke="black" points="110.5,-163 110.5,-195 198.75,-195 198.75,-163 110.5,-163"/>
<text text-anchor="start" x="117.5" y="-180.45" font-family="Times New Roman,serif" font-weight="bold" font-size="9.00">Insufficient weight</text>
<text text-anchor="start" x="135.12" y="-171.45" font-family="Times New Roman,serif" font-weight="bold" font-size="9.00">Obesity II</text>
<polygon fill="none" stroke="black" points="198.75,-163 198.75,-195 263.75,-195 263.75,-163 198.75,-163"/>
<text text-anchor="start" x="205.75" y="-177.07" font-family="Times New Roman,serif" font-weight="bold" font-size="9.00">Overweight I</text>
<polygon fill="none" stroke="black" points="109.5,-162 109.5,-196 264.75,-196 264.75,-162 109.5,-162"/>
</g>
<!-- n_0_1_2_5&#45;&gt;n_0_2_5 -->
<g id="edge3" class="edge">
<title>n_0_1_2_5&#45;&gt;n_0_2_5</title>
<path fill="none" stroke="black" d="M239.79,-243.13C230.8,-232.35 220.18,-219.62 210.83,-208.41"/>
<polygon fill="black" stroke="black" points="213.73,-206.42 204.64,-200.99 208.35,-210.91 213.73,-206.42"/>
</g>
<!-- n_1 -->
<g id="node9" class="node">
<title>n_1</title>
<polygon fill="none" stroke="black" points="311.12,-166.38 311.12,-191.62 355.12,-191.62 355.12,-166.38 311.12,-166.38"/>
<text text-anchor="start" x="318.12" y="-177.07" font-family="Times New Roman,serif" font-weight="bold" font-size="9.00">Normal</text>
<polygon fill="none" stroke="black" points="310.12,-165.38 310.12,-192.62 356.12,-192.62 356.12,-165.38 310.12,-165.38"/>
</g>
<!-- n_0_1_2_5&#45;&gt;n_1 -->
<g id="edge8" class="edge">
<title>n_0_1_2_5&#45;&gt;n_1</title>
<path fill="none" stroke="black" d="M280.46,-243.13C290.28,-231.36 302.05,-217.25 311.97,-205.36"/>
<polygon fill="black" stroke="black" points="314.45,-207.85 318.16,-197.93 309.07,-203.37 314.45,-207.85"/>
</g>
<!-- n_0_5 -->
<g id="node5" class="node">
<title>n_0_5</title>
<polygon fill="none" stroke="black" points="41.5,-84.38 41.5,-109.62 129.75,-109.62 129.75,-84.38 41.5,-84.38"/>
<text text-anchor="start" x="48.5" y="-95.08" font-family="Times New Roman,serif" font-weight="bold" font-size="9.00">Insufficient weight</text>
<polygon fill="none" stroke="black" points="129.75,-84.38 129.75,-109.62 182.75,-109.62 182.75,-84.38 129.75,-84.38"/>
<text text-anchor="start" x="136.75" y="-95.08" font-family="Times New Roman,serif" font-weight="bold" font-size="9.00">Obesity II</text>
<polygon fill="none" stroke="black" points="40.5,-83.38 40.5,-110.62 183.75,-110.62 183.75,-83.38 40.5,-83.38"/>
</g>
<!-- n_0_2_5&#45;&gt;n_0_5 -->
<g id="edge4" class="edge">
<title>n_0_2_5&#45;&gt;n_0_5</title>
<path fill="none" stroke="black" d="M168.59,-158.22C158.63,-147.61 146.26,-134.41 135.63,-123.07"/>
<polygon fill="black" stroke="black" points="138.34,-120.85 128.95,-115.95 133.24,-125.64 138.34,-120.85"/>
</g>
<!-- n_2 -->
<g id="node8" class="node">
<title>n_2</title>
<polygon fill="none" stroke="black" points="229.62,-84.38 229.62,-109.62 294.62,-109.62 294.62,-84.38 229.62,-84.38"/>
<text text-anchor="start" x="236.62" y="-95.08" font-family="Times New Roman,serif" font-weight="bold" font-size="9.00">Overweight I</text>
<polygon fill="none" stroke="black" points="228.62,-83.38 228.62,-110.62 295.62,-110.62 295.62,-83.38 228.62,-83.38"/>
</g>
<!-- n_0_2_5&#45;&gt;n_2 -->
<g id="edge7" class="edge">
<title>n_0_2_5&#45;&gt;n_2</title>
<path fill="none" stroke="black" d="M205.66,-158.22C215.62,-147.61 227.99,-134.41 238.62,-123.07"/>
<polygon fill="black" stroke="black" points="241.01,-125.64 245.3,-115.95 235.91,-120.85 241.01,-125.64"/>
</g>
<!-- n_0 -->
<g id="node6" class="node">
<title>n_0</title>
<polygon fill="none" stroke="black" points="9,-5.38 9,-30.62 97.25,-30.62 97.25,-5.38 9,-5.38"/>
<text text-anchor="start" x="16" y="-16.07" font-family="Times New Roman,serif" font-weight="bold" font-size="9.00">Insufficient weight</text>
<polygon fill="none" stroke="black" points="8,-4.38 8,-31.62 98.25,-31.62 98.25,-4.38 8,-4.38"/>
</g>
<!-- n_0_5&#45;&gt;n_0 -->
<g id="edge5" class="edge">
<title>n_0_5&#45;&gt;n_0</title>
<path fill="none" stroke="black" d="M99.32,-79.29C91.64,-69.27 81.72,-56.31 73.03,-44.98"/>
<polygon fill="black" stroke="black" points="75.89,-42.95 67.03,-37.14 70.33,-47.21 75.89,-42.95"/>
</g>
<!-- n_5 -->
<g id="node7" class="node">
<title>n_5</title>
<polygon fill="none" stroke="black" points="144.62,-5.38 144.62,-30.62 197.62,-30.62 197.62,-5.38 144.62,-5.38"/>
<text text-anchor="start" x="151.62" y="-16.07" font-family="Times New Roman,serif" font-weight="bold" font-size="9.00">Obesity II</text>
<polygon fill="none" stroke="black" points="143.62,-4.38 143.62,-31.62 198.62,-31.62 198.62,-4.38 143.62,-4.38"/>
</g>
<!-- n_0_5&#45;&gt;n_5 -->
<g id="edge6" class="edge">
<title>n_0_5&#45;&gt;n_5</title>
<path fill="none" stroke="black" d="M124.93,-79.29C132.61,-69.27 142.53,-56.31 151.22,-44.98"/>
<polygon fill="black" stroke="black" points="153.92,-47.21 157.22,-37.14 148.36,-42.95 153.92,-47.21"/>
</g>
<!-- n_4 -->
<g id="node12" class="node">
<title>n_4</title>
<polygon fill="none" stroke="black" points="524.12,-255.88 524.12,-281.12 574.12,-281.12 574.12,-255.88 524.12,-255.88"/>
<text text-anchor="start" x="531.12" y="-266.57" font-family="Times New Roman,serif" font-weight="bold" font-size="9.00">Obesity I</text>
<polygon fill="none" stroke="black" points="523.12,-254.88 523.12,-282.12 575.12,-282.12 575.12,-254.88 523.12,-254.88"/>
</g>
<!-- n_4_6&#45;&gt;n_4 -->
<g id="edge11" class="edge">
<title>n_4_6&#45;&gt;n_4</title>
<path fill="none" stroke="black" d="M563.99,-349.19C561.32,-334.89 557.44,-314.06 554.31,-297.28"/>
<polygon fill="black" stroke="black" points="557.84,-297.12 552.56,-287.93 550.96,-298.4 557.84,-297.12"/>
</g>
<!-- n_6 -->
<g id="node13" class="node">
<title>n_6</title>
<polygon fill="none" stroke="black" points="621.12,-255.88 621.12,-281.12 677.12,-281.12 677.12,-255.88 621.12,-255.88"/>
<text text-anchor="start" x="628.12" y="-266.57" font-family="Times New Roman,serif" font-weight="bold" font-size="9.00">Obesity III</text>
<polygon fill="none" stroke="black" points="620.12,-254.88 620.12,-282.12 678.12,-282.12 678.12,-254.88 620.12,-254.88"/>
</g>
<!-- n_4_6&#45;&gt;n_6 -->
<g id="edge12" class="edge">
<title>n_4_6&#45;&gt;n_6</title>
<path fill="none" stroke="black" d="M581.41,-349.19C594.15,-334.2 612.98,-312.04 627.55,-294.89"/>
<polygon fill="black" stroke="black" points="629.94,-297.48 633.75,-287.59 624.61,-292.95 629.94,-297.48"/>
</g>
</g>
</svg>
