<?xml version="1.0" encoding="UTF-8" standalone="no"?>
<!DOCTYPE svg PUBLIC "-//W3C//DTD SVG 1.1//EN"
 "http://www.w3.org/Graphics/SVG/1.1/DTD/svg11.dtd">
<!-- Generated by graphviz version 10.0.1 (20240210.2158)
 -->
<!-- Title: ND Pages: 1 -->
<svg width="616pt" height="405pt"
 viewBox="0.00 0.00 616.12 405.00" xmlns="http://www.w3.org/2000/svg" xmlns:xlink="http://www.w3.org/1999/xlink">
<g id="graph0" class="graph" transform="scale(1 1) rotate(0) translate(4 401)">
<title>ND</title>
<polygon fill="white" stroke="none" points="-4,4 -4,-401 612.12,-401 612.12,4 -4,4"/>
<!-- n_0_1_2_3_4_5_6 -->
<g id="node1" class="node">
<title>n_0_1_2_3_4_5_6</title>
<polygon fill="none" stroke="black" points="257.88,-342 257.88,-392 325.88,-392 325.88,-342 257.88,-342"/>
<text text-anchor="start" x="264.88" y="-377.45" font-family="Times New Roman,serif" font-weight="bold" font-size="9.00">Overweight II</text>
<text text-anchor="start" x="273.88" y="-368.45" font-family="Times New Roman,serif" font-weight="bold" font-size="9.00">Obesity I</text>
<text text-anchor="start" x="272.38" y="-359.45" font-family="Times New Roman,serif" font-weight="bold" font-size="9.00">Obesity II</text>
<text text-anchor="start" x="270.88" y="-350.45" font-family="Times New Roman,serif" font-weight="bold" font-size="9.00">Obesity III</text>
<polygon fill="none" stroke="black" points="325.88,-342 325.88,-392 414.12,-392 414.12,-342 325.88,-342"/>
<text text-anchor="start" x="332.88" y="-372.95" font-family="Times New Roman,serif" font-weight="bold" font-size="9.00">Insufficient weight</text>
<text text-anchor="start" x="355" y="-363.95" font-family="Times New Roman,serif" font-weight="bold" font-size="9.00">Normal</text>
<text text-anchor="start" x="344.5" y="-354.95" font-family="Times New Roman,serif" font-weight="bold" font-size="9.00">Overweight I</text>
<polygon fill="none" stroke="black" points="256.88,-341 256.88,-393 415.12,-393 415.12,-341 256.88,-341"/>
</g>
<!-- n_3_4_5_6 -->
<g id="node2" class="node">
<title>n_3_4_5_6</title>
<polygon fill="none" stroke="black" points="181,-248 181,-289 249,-289 249,-248 181,-248"/>
<text text-anchor="start" x="188" y="-274.45" font-family="Times New Roman,serif" font-weight="bold" font-size="9.00">Overweight II</text>
<text text-anchor="start" x="197" y="-265.45" font-family="Times New Roman,serif" font-weight="bold" font-size="9.00">Obesity I</text>
<text text-anchor="start" x="195.5" y="-256.45" font-family="Times New Roman,serif" font-weight="bold" font-size="9.00">Obesity II</text>
<polygon fill="none" stroke="black" points="249,-248 249,-289 305,-289 305,-248 249,-248"/>
<text text-anchor="start" x="256" y="-266.57" font-family="Times New Roman,serif" font-weight="bold" font-size="9.00">Obesity III</text>
<polygon fill="none" stroke="black" points="180,-247 180,-290 306,-290 306,-247 180,-247"/>
</g>
<!-- n_0_1_2_3_4_5_6&#45;&gt;n_3_4_5_6 -->
<g id="edge1" class="edge">
<title>n_0_1_2_3_4_5_6&#45;&gt;n_3_4_5_6</title>
<path fill="none" stroke="black" d="M308.1,-337.05C297.42,-325.97 285.18,-313.26 274.21,-301.88"/>
<polygon fill="black" stroke="black" points="277,-299.74 267.54,-294.96 271.96,-304.59 277,-299.74"/>
</g>
<!-- n_0_1_2 -->
<g id="node9" class="node">
<title>n_0_1_2</title>
<polygon fill="none" stroke="black" points="352.38,-252.5 352.38,-284.5 417.38,-284.5 417.38,-252.5 352.38,-252.5"/>
<text text-anchor="start" x="369.88" y="-269.95" font-family="Times New Roman,serif" font-weight="bold" font-size="9.00">Normal</text>
<text text-anchor="start" x="359.38" y="-260.95" font-family="Times New Roman,serif" font-weight="bold" font-size="9.00">Overweight I</text>
<polygon fill="none" stroke="black" points="417.38,-252.5 417.38,-284.5 505.62,-284.5 505.62,-252.5 417.38,-252.5"/>
<text text-anchor="start" x="424.38" y="-266.57" font-family="Times New Roman,serif" font-weight="bold" font-size="9.00">Insufficient weight</text>
<polygon fill="none" stroke="black" points="351.38,-251.5 351.38,-285.5 506.62,-285.5 506.62,-251.5 351.38,-251.5"/>
</g>
<!-- n_0_1_2_3_4_5_6&#45;&gt;n_0_1_2 -->
<g id="edge8" class="edge">
<title>n_0_1_2_3_4_5_6&#45;&gt;n_0_1_2</title>
<path fill="none" stroke="black" d="M363.9,-337.05C375.99,-324.51 390.08,-309.89 402.06,-297.46"/>
<polygon fill="black" stroke="black" points="404.49,-299.98 408.91,-290.35 399.45,-295.12 404.49,-299.98"/>
</g>
<!-- n_3_4_5 -->
<g id="node3" class="node">
<title>n_3_4_5</title>
<polygon fill="none" stroke="black" points="70,-163 70,-195 138,-195 138,-163 70,-163"/>
<text text-anchor="start" x="77" y="-180.45" font-family="Times New Roman,serif" font-weight="bold" font-size="9.00">Overweight II</text>
<text text-anchor="start" x="84.5" y="-171.45" font-family="Times New Roman,serif" font-weight="bold" font-size="9.00">Obesity II</text>
<polygon fill="none" stroke="black" points="138,-163 138,-195 188,-195 188,-163 138,-163"/>
<text text-anchor="start" x="145" y="-177.07" font-family="Times New Roman,serif" font-weight="bold" font-size="9.00">Obesity I</text>
<polygon fill="none" stroke="black" points="69,-162 69,-196 189,-196 189,-162 69,-162"/>
</g>
<!-- n_3_4_5_6&#45;&gt;n_3_4_5 -->
<g id="edge2" class="edge">
<title>n_3_4_5_6&#45;&gt;n_3_4_5</title>
<path fill="none" stroke="black" d="M211.24,-243.13C196.51,-231.82 178.96,-218.35 163.87,-206.76"/>
<polygon fill="black" stroke="black" points="166.09,-204.06 156.03,-200.75 161.83,-209.61 166.09,-204.06"/>
</g>
<!-- n_6 -->
<g id="node8" class="node">
<title>n_6</title>
<polygon fill="none" stroke="black" points="235,-166.38 235,-191.62 291,-191.62 291,-166.38 235,-166.38"/>
<text text-anchor="start" x="242" y="-177.07" font-family="Times New Roman,serif" font-weight="bold" font-size="9.00">Obesity III</text>
<polygon fill="none" stroke="black" points="234,-165.38 234,-192.62 292,-192.62 292,-165.38 234,-165.38"/>
</g>
<!-- n_3_4_5_6&#45;&gt;n_6 -->
<g id="edge7" class="edge">
<title>n_3_4_5_6&#45;&gt;n_6</title>
<path fill="none" stroke="black" d="M248.57,-243.13C251.08,-232.17 254.05,-219.18 256.64,-207.84"/>
<polygon fill="black" stroke="black" points="260.01,-208.77 258.83,-198.25 253.19,-207.21 260.01,-208.77"/>
</g>
<!-- n_3_5 -->
<g id="node4" class="node">
<title>n_3_5</title>
<polygon fill="none" stroke="black" points="36.5,-84.38 36.5,-109.62 104.5,-109.62 104.5,-84.38 36.5,-84.38"/>
<text text-anchor="start" x="43.5" y="-95.08" font-family="Times New Roman,serif" font-weight="bold" font-size="9.00">Overweight II</text>
<polygon fill="none" stroke="black" points="104.5,-84.38 104.5,-109.62 157.5,-109.62 157.5,-84.38 104.5,-84.38"/>
<text text-anchor="start" x="111.5" y="-95.08" font-family="Times New Roman,serif" font-weight="bold" font-size="9.00">Obesity II</text>
<polygon fill="none" stroke="black" points="35.5,-83.38 35.5,-110.62 158.5,-110.62 158.5,-83.38 35.5,-83.38"/>
</g>
<!-- n_3_4_5&#45;&gt;n_3_5 -->
<g id="edge3" class="edge">
<title>n_3_4_5&#45;&gt;n_3_5</title>
<path fill="none" stroke="black" d="M121.09,-158.22C117.13,-148.33 112.28,-136.21 107.97,-125.43"/>
<polygon fill="black" stroke="black" points="111.26,-124.23 104.3,-116.25 104.76,-126.83 111.26,-124.23"/>
</g>
<!-- n_4 -->
<g id="node7" class="node">
<title>n_4</title>
<polygon fill="none" stroke="black" points="205,-84.38 205,-109.62 255,-109.62 255,-84.38 205,-84.38"/>
<text text-anchor="start" x="212" y="-95.08" font-family="Times New Roman,serif" font-weight="bold" font-size="9.00">Obesity I</text>
<polygon fill="none" stroke="black" points="204,-83.38 204,-110.62 256,-110.62 256,-83.38 204,-83.38"/>
</g>
<!-- n_3_4_5&#45;&gt;n_4 -->
<g id="edge6" class="edge">
<title>n_3_4_5&#45;&gt;n_4</title>
<path fill="none" stroke="black" d="M154.23,-158.02C168.16,-146.98 185.56,-133.2 200.16,-121.63"/>
<polygon fill="black" stroke="black" points="201.99,-124.65 207.66,-115.7 197.64,-119.16 201.99,-124.65"/>
</g>
<!-- n_3 -->
<g id="node5" class="node">
<title>n_3</title>
<polygon fill="none" stroke="black" points="9,-5.38 9,-30.62 77,-30.62 77,-5.38 9,-5.38"/>
<text text-anchor="start" x="16" y="-16.07" font-family="Times New Roman,serif" font-weight="bold" font-size="9.00">Overweight II</text>
<polygon fill="none" stroke="black" points="8,-4.38 8,-31.62 78,-31.62 78,-4.38 8,-4.38"/>
</g>
<!-- n_3_5&#45;&gt;n_3 -->
<g id="edge4" class="edge">
<title>n_3_5&#45;&gt;n_3</title>
<path fill="none" stroke="black" d="M85.28,-79.29C78.33,-69.37 69.35,-56.57 61.46,-45.32"/>
<polygon fill="black" stroke="black" points="64.36,-43.36 55.75,-37.18 58.63,-47.38 64.36,-43.36"/>
</g>
<!-- n_5 -->
<g id="node6" class="node">
<title>n_5</title>
<polygon fill="none" stroke="black" points="124.5,-5.38 124.5,-30.62 177.5,-30.62 177.5,-5.38 124.5,-5.38"/>
<text text-anchor="start" x="131.5" y="-16.07" font-family="Times New Roman,serif" font-weight="bold" font-size="9.00">Obesity II</text>
<polygon fill="none" stroke="black" points="123.5,-4.38 123.5,-31.62 178.5,-31.62 178.5,-4.38 123.5,-4.38"/>
</g>
<!-- n_3_5&#45;&gt;n_5 -->
<g id="edge5" class="edge">
<title>n_3_5&#45;&gt;n_5</title>
<path fill="none" stroke="black" d="M108.72,-79.29C115.67,-69.37 124.65,-56.57 132.54,-45.32"/>
<polygon fill="black" stroke="black" points="135.37,-47.38 138.25,-37.18 129.64,-43.36 135.37,-47.38"/>
</g>
<!-- n_1_2 -->
<g id="node10" class="node">
<title>n_1_2</title>
<polygon fill="none" stroke="black" points="354.5,-166.38 354.5,-191.62 398.5,-191.62 398.5,-166.38 354.5,-166.38"/>
<text text-anchor="start" x="361.5" y="-177.07" font-family="Times New Roman,serif" font-weight="bold" font-size="9.00">Normal</text>
<polygon fill="none" stroke="black" points="398.5,-166.38 398.5,-191.62 463.5,-191.62 463.5,-166.38 398.5,-166.38"/>
<text text-anchor="start" x="405.5" y="-177.07" font-family="Times New Roman,serif" font-weight="bold" font-size="9.00">Overweight I</text>
<polygon fill="none" stroke="black" points="353.5,-165.38 353.5,-192.62 464.5,-192.62 464.5,-165.38 353.5,-165.38"/>
</g>
<!-- n_0_1_2&#45;&gt;n_1_2 -->
<g id="edge9" class="edge">
<title>n_0_1_2&#45;&gt;n_1_2</title>
<path fill="none" stroke="black" d="M424.46,-247.64C421.78,-235.91 418.34,-220.86 415.39,-207.94"/>
<polygon fill="black" stroke="black" points="418.82,-207.28 413.18,-198.31 412,-208.84 418.82,-207.28"/>
</g>
<!-- n_0 -->
<g id="node13" class="node">
<title>n_0</title>
<polygon fill="none" stroke="black" points="510.88,-166.38 510.88,-191.62 599.12,-191.62 599.12,-166.38 510.88,-166.38"/>
<text text-anchor="start" x="517.88" y="-177.07" font-family="Times New Roman,serif" font-weight="bold" font-size="9.00">Insufficient weight</text>
<polygon fill="none" stroke="black" points="509.88,-165.38 509.88,-192.62 600.12,-192.62 600.12,-165.38 509.88,-165.38"/>
</g>
<!-- n_0_1_2&#45;&gt;n_0 -->
<g id="edge12" class="edge">
<title>n_0_1_2&#45;&gt;n_0</title>
<path fill="none" stroke="black" d="M457.59,-247.64C476.56,-234.47 501.53,-217.13 521.44,-203.3"/>
<polygon fill="black" stroke="black" points="523.3,-206.27 529.52,-197.7 519.31,-200.52 523.3,-206.27"/>
</g>
<!-- n_1 -->
<g id="node11" class="node">
<title>n_1</title>
<polygon fill="none" stroke="black" points="344,-84.38 344,-109.62 388,-109.62 388,-84.38 344,-84.38"/>
<text text-anchor="start" x="351" y="-95.08" font-family="Times New Roman,serif" font-weight="bold" font-size="9.00">Normal</text>
<polygon fill="none" stroke="black" points="343,-83.38 343,-110.62 389,-110.62 389,-83.38 343,-83.38"/>
</g>
<!-- n_1_2&#45;&gt;n_1 -->
<g id="edge10" class="edge">
<title>n_1_2&#45;&gt;n_1</title>
<path fill="none" stroke="black" d="M399.88,-161.03C394.24,-150.53 386.87,-136.82 380.44,-124.87"/>
<polygon fill="black" stroke="black" points="383.64,-123.43 375.82,-116.27 377.47,-126.74 383.64,-123.43"/>
</g>
<!-- n_2 -->
<g id="node12" class="node">
<title>n_2</title>
<polygon fill="none" stroke="black" points="435.5,-84.38 435.5,-109.62 500.5,-109.62 500.5,-84.38 435.5,-84.38"/>
<text text-anchor="start" x="442.5" y="-95.08" font-family="Times New Roman,serif" font-weight="bold" font-size="9.00">Overweight I</text>
<polygon fill="none" stroke="black" points="434.5,-83.38 434.5,-110.62 501.5,-110.62 501.5,-83.38 434.5,-83.38"/>
</g>
<!-- n_1_2&#45;&gt;n_2 -->
<g id="edge11" class="edge">
<title>n_1_2&#45;&gt;n_2</title>
<path fill="none" stroke="black" d="M421.51,-161.03C429.41,-150.32 439.78,-136.27 448.72,-124.15"/>
<polygon fill="black" stroke="black" points="451.49,-126.29 454.61,-116.16 445.86,-122.13 451.49,-126.29"/>
</g>
</g>
</svg>
