<?xml version="1.0" encoding="UTF-8" standalone="no"?>
<!DOCTYPE svg PUBLIC "-//W3C//DTD SVG 1.1//EN"
 "http://www.w3.org/Graphics/SVG/1.1/DTD/svg11.dtd">
<!-- Generated by graphviz version 10.0.1 (20240210.2158)
 -->
<!-- Title: ND Pages: 1 -->
<svg width="629pt" height="405pt"
 viewBox="0.00 0.00 628.50 405.00" xmlns="http://www.w3.org/2000/svg" xmlns:xlink="http://www.w3.org/1999/xlink">
<g id="graph0" class="graph" transform="scale(1 1) rotate(0) translate(4 401)">
<title>ND</title>
<polygon fill="white" stroke="none" points="-4,4 -4,-401 624.5,-401 624.5,4 -4,4"/>
<!-- n_0_1_2_3_4_5_6 -->
<g id="node1" class="node">
<title>n_0_1_2_3_4_5_6</title>
<polygon fill="none" stroke="black" points="282.38,-342 282.38,-392 350.38,-392 350.38,-342 282.38,-342"/>
<text text-anchor="start" x="301.38" y="-377.45" font-family="Times New Roman,serif" font-weight="bold" font-size="9.00">Normal</text>
<text text-anchor="start" x="290.88" y="-368.45" font-family="Times New Roman,serif" font-weight="bold" font-size="9.00">Overweight I</text>
<text text-anchor="start" x="289.38" y="-359.45" font-family="Times New Roman,serif" font-weight="bold" font-size="9.00">Overweight II</text>
<text text-anchor="start" x="296.88" y="-350.45" font-family="Times New Roman,serif" font-weight="bold" font-size="9.00">Obesity II</text>
<polygon fill="none" stroke="black" points="350.38,-342 350.38,-392 438.62,-392 438.62,-342 350.38,-342"/>
<text text-anchor="start" x="357.38" y="-372.95" font-family="Times New Roman,serif" font-weight="bold" font-size="9.00">Insufficient weight</text>
<text text-anchor="start" x="376.5" y="-363.95" font-family="Times New Roman,serif" font-weight="bold" font-size="9.00">Obesity I</text>
<text text-anchor="start" x="373.5" y="-354.95" font-family="Times New Roman,serif" font-weight="bold" font-size="9.00">Obesity III</text>
<polygon fill="none" stroke="black" points="281.38,-341 281.38,-393 439.62,-393 439.62,-341 281.38,-341"/>
</g>
<!-- n_1_2_3_5 -->
<g id="node2" class="node">
<title>n_1_2_3_5</title>
<polygon fill="none" stroke="black" points="217.5,-248 217.5,-289 285.5,-289 285.5,-248 217.5,-248"/>
<text text-anchor="start" x="226" y="-274.45" font-family="Times New Roman,serif" font-weight="bold" font-size="9.00">Overweight I</text>
<text text-anchor="start" x="224.5" y="-265.45" font-family="Times New Roman,serif" font-weight="bold" font-size="9.00">Overweight II</text>
<text text-anchor="start" x="232" y="-256.45" font-family="Times New Roman,serif" font-weight="bold" font-size="9.00">Obesity II</text>
<polygon fill="none" stroke="black" points="285.5,-248 285.5,-289 329.5,-289 329.5,-248 285.5,-248"/>
<text text-anchor="start" x="292.5" y="-266.57" font-family="Times New Roman,serif" font-weight="bold" font-size="9.00">Normal</text>
<polygon fill="none" stroke="black" points="216.5,-247 216.5,-290 330.5,-290 330.5,-247 216.5,-247"/>
</g>
<!-- n_0_1_2_3_4_5_6&#45;&gt;n_1_2_3_5 -->
<g id="edge1" class="edge">
<title>n_0_1_2_3_4_5_6&#45;&gt;n_1_2_3_5</title>
<path fill="none" stroke="black" d="M334.4,-337.05C324.51,-326.08 313.18,-313.51 303,-302.22"/>
<polygon fill="black" stroke="black" points="305.78,-300.08 296.49,-295 300.58,-304.77 305.78,-300.08"/>
</g>
<!-- n_0_4_6 -->
<g id="node9" class="node">
<title>n_0_4_6</title>
<polygon fill="none" stroke="black" points="376.38,-252.5 376.38,-284.5 464.62,-284.5 464.62,-252.5 376.38,-252.5"/>
<text text-anchor="start" x="383.38" y="-269.95" font-family="Times New Roman,serif" font-weight="bold" font-size="9.00">Insufficient weight</text>
<text text-anchor="start" x="402.5" y="-260.95" font-family="Times New Roman,serif" font-weight="bold" font-size="9.00">Obesity I</text>
<polygon fill="none" stroke="black" points="464.62,-252.5 464.62,-284.5 520.62,-284.5 520.62,-252.5 464.62,-252.5"/>
<text text-anchor="start" x="471.62" y="-266.57" font-family="Times New Roman,serif" font-weight="bold" font-size="9.00">Obesity III</text>
<polygon fill="none" stroke="black" points="375.38,-251.5 375.38,-285.5 521.62,-285.5 521.62,-251.5 375.38,-251.5"/>
</g>
<!-- n_0_1_2_3_4_5_6&#45;&gt;n_0_4_6 -->
<g id="edge8" class="edge">
<title>n_0_1_2_3_4_5_6&#45;&gt;n_0_4_6</title>
<path fill="none" stroke="black" d="M386.9,-337.05C398.34,-324.51 411.67,-309.89 423,-297.46"/>
<polygon fill="black" stroke="black" points="425.31,-300.12 429.46,-290.38 420.14,-295.41 425.31,-300.12"/>
</g>
<!-- n_2_3_5 -->
<g id="node3" class="node">
<title>n_2_3_5</title>
<polygon fill="none" stroke="black" points="81,-163 81,-195 146,-195 146,-163 81,-163"/>
<text text-anchor="start" x="88" y="-180.45" font-family="Times New Roman,serif" font-weight="bold" font-size="9.00">Overweight I</text>
<text text-anchor="start" x="94" y="-171.45" font-family="Times New Roman,serif" font-weight="bold" font-size="9.00">Obesity II</text>
<polygon fill="none" stroke="black" points="146,-163 146,-195 214,-195 214,-163 146,-163"/>
<text text-anchor="start" x="153" y="-177.07" font-family="Times New Roman,serif" font-weight="bold" font-size="9.00">Overweight II</text>
<polygon fill="none" stroke="black" points="80,-162 80,-196 215,-196 215,-162 80,-162"/>
</g>
<!-- n_1_2_3_5&#45;&gt;n_2_3_5 -->
<g id="edge2" class="edge">
<title>n_1_2_3_5&#45;&gt;n_2_3_5</title>
<path fill="none" stroke="black" d="M238.4,-243.13C221.81,-231.61 201.99,-217.84 185.1,-206.11"/>
<polygon fill="black" stroke="black" points="187.5,-203.52 177.29,-200.69 183.51,-209.27 187.5,-203.52"/>
</g>
<!-- n_1 -->
<g id="node8" class="node">
<title>n_1</title>
<polygon fill="none" stroke="black" points="261.5,-166.38 261.5,-191.62 305.5,-191.62 305.5,-166.38 261.5,-166.38"/>
<text text-anchor="start" x="268.5" y="-177.07" font-family="Times New Roman,serif" font-weight="bold" font-size="9.00">Normal</text>
<polygon fill="none" stroke="black" points="260.5,-165.38 260.5,-192.62 306.5,-192.62 306.5,-165.38 260.5,-165.38"/>
</g>
<!-- n_1_2_3_5&#45;&gt;n_1 -->
<g id="edge7" class="edge">
<title>n_1_2_3_5&#45;&gt;n_1</title>
<path fill="none" stroke="black" d="M276.29,-243.13C277.52,-232.28 278.99,-219.45 280.28,-208.19"/>
<polygon fill="black" stroke="black" points="283.75,-208.61 281.41,-198.27 276.8,-207.81 283.75,-208.61"/>
</g>
<!-- n_2_5 -->
<g id="node4" class="node">
<title>n_2_5</title>
<polygon fill="none" stroke="black" points="35.5,-84.38 35.5,-109.62 100.5,-109.62 100.5,-84.38 35.5,-84.38"/>
<text text-anchor="start" x="42.5" y="-95.08" font-family="Times New Roman,serif" font-weight="bold" font-size="9.00">Overweight I</text>
<polygon fill="none" stroke="black" points="100.5,-84.38 100.5,-109.62 153.5,-109.62 153.5,-84.38 100.5,-84.38"/>
<text text-anchor="start" x="107.5" y="-95.08" font-family="Times New Roman,serif" font-weight="bold" font-size="9.00">Obesity II</text>
<polygon fill="none" stroke="black" points="34.5,-83.38 34.5,-110.62 154.5,-110.62 154.5,-83.38 34.5,-83.38"/>
</g>
<!-- n_2_3_5&#45;&gt;n_2_5 -->
<g id="edge3" class="edge">
<title>n_2_3_5&#45;&gt;n_2_5</title>
<path fill="none" stroke="black" d="M134.4,-158.22C127.64,-148.02 119.3,-135.44 112,-124.41"/>
<polygon fill="black" stroke="black" points="114.94,-122.51 106.49,-116.11 109.1,-126.38 114.94,-122.51"/>
</g>
<!-- n_3 -->
<g id="node7" class="node">
<title>n_3</title>
<polygon fill="none" stroke="black" points="200.5,-84.38 200.5,-109.62 268.5,-109.62 268.5,-84.38 200.5,-84.38"/>
<text text-anchor="start" x="207.5" y="-95.08" font-family="Times New Roman,serif" font-weight="bold" font-size="9.00">Overweight II</text>
<polygon fill="none" stroke="black" points="199.5,-83.38 199.5,-110.62 269.5,-110.62 269.5,-83.38 199.5,-83.38"/>
</g>
<!-- n_2_3_5&#45;&gt;n_3 -->
<g id="edge6" class="edge">
<title>n_2_3_5&#45;&gt;n_3</title>
<path fill="none" stroke="black" d="M169.01,-158.22C180.78,-147.4 195.47,-133.89 207.96,-122.41"/>
<polygon fill="black" stroke="black" points="210.08,-125.21 215.07,-115.87 205.34,-120.06 210.08,-125.21"/>
</g>
<!-- n_2 -->
<g id="node5" class="node">
<title>n_2</title>
<polygon fill="none" stroke="black" points="9,-5.38 9,-30.62 74,-30.62 74,-5.38 9,-5.38"/>
<text text-anchor="start" x="16" y="-16.07" font-family="Times New Roman,serif" font-weight="bold" font-size="9.00">Overweight I</text>
<polygon fill="none" stroke="black" points="8,-4.38 8,-31.62 75,-31.62 75,-4.38 8,-4.38"/>
</g>
<!-- n_2_5&#45;&gt;n_2 -->
<g id="edge4" class="edge">
<title>n_2_5&#45;&gt;n_2</title>
<path fill="none" stroke="black" d="M83,-79.29C76.17,-69.37 67.36,-56.57 59.62,-45.32"/>
<polygon fill="black" stroke="black" points="62.57,-43.44 54.02,-37.19 56.81,-47.41 62.57,-43.44"/>
</g>
<!-- n_5 -->
<g id="node6" class="node">
<title>n_5</title>
<polygon fill="none" stroke="black" points="121,-5.38 121,-30.62 174,-30.62 174,-5.38 121,-5.38"/>
<text text-anchor="start" x="128" y="-16.07" font-family="Times New Roman,serif" font-weight="bold" font-size="9.00">Obesity II</text>
<polygon fill="none" stroke="black" points="120,-4.38 120,-31.62 175,-31.62 175,-4.38 120,-4.38"/>
</g>
<!-- n_2_5&#45;&gt;n_5 -->
<g id="edge5" class="edge">
<title>n_2_5&#45;&gt;n_5</title>
<path fill="none" stroke="black" d="M106,-79.29C112.83,-69.37 121.64,-56.57 129.38,-45.32"/>
<polygon fill="black" stroke="black" points="132.19,-47.41 134.98,-37.19 126.43,-43.44 132.19,-47.41"/>
</g>
<!-- n_0_4 -->
<g id="node10" class="node">
<title>n_0_4</title>
<polygon fill="none" stroke="black" points="370.38,-166.38 370.38,-191.62 458.62,-191.62 458.62,-166.38 370.38,-166.38"/>
<text text-anchor="start" x="377.38" y="-177.07" font-family="Times New Roman,serif" font-weight="bold" font-size="9.00">Insufficient weight</text>
<polygon fill="none" stroke="black" points="458.62,-166.38 458.62,-191.62 508.62,-191.62 508.62,-166.38 458.62,-166.38"/>
<text text-anchor="start" x="465.62" y="-177.07" font-family="Times New Roman,serif" font-weight="bold" font-size="9.00">Obesity I</text>
<polygon fill="none" stroke="black" points="369.38,-165.38 369.38,-192.62 509.62,-192.62 509.62,-165.38 369.38,-165.38"/>
</g>
<!-- n_0_4_6&#45;&gt;n_0_4 -->
<g id="edge9" class="edge">
<title>n_0_4_6&#45;&gt;n_0_4</title>
<path fill="none" stroke="black" d="M446.46,-247.64C445.25,-235.91 443.7,-220.86 442.37,-207.94"/>
<polygon fill="black" stroke="black" points="445.89,-207.93 441.39,-198.34 438.93,-208.64 445.89,-207.93"/>
</g>
<!-- n_6 -->
<g id="node13" class="node">
<title>n_6</title>
<polygon fill="none" stroke="black" points="555.5,-166.38 555.5,-191.62 611.5,-191.62 611.5,-166.38 555.5,-166.38"/>
<text text-anchor="start" x="562.5" y="-177.07" font-family="Times New Roman,serif" font-weight="bold" font-size="9.00">Obesity III</text>
<polygon fill="none" stroke="black" points="554.5,-165.38 554.5,-192.62 612.5,-192.62 612.5,-165.38 554.5,-165.38"/>
</g>
<!-- n_0_4_6&#45;&gt;n_6 -->
<g id="edge12" class="edge">
<title>n_0_4_6&#45;&gt;n_6</title>
<path fill="none" stroke="black" d="M479.13,-247.64C499.64,-234.35 526.7,-216.81 548.13,-202.93"/>
<polygon fill="black" stroke="black" points="549.77,-206.03 556.26,-197.66 545.97,-200.16 549.77,-206.03"/>
</g>
<!-- n_0 -->
<g id="node11" class="node">
<title>n_0</title>
<polygon fill="none" stroke="black" points="355.38,-84.38 355.38,-109.62 443.62,-109.62 443.62,-84.38 355.38,-84.38"/>
<text text-anchor="start" x="362.38" y="-95.08" font-family="Times New Roman,serif" font-weight="bold" font-size="9.00">Insufficient weight</text>
<polygon fill="none" stroke="black" points="354.38,-83.38 354.38,-110.62 444.62,-110.62 444.62,-83.38 354.38,-83.38"/>
</g>
<!-- n_0_4&#45;&gt;n_0 -->
<g id="edge10" class="edge">
<title>n_0_4&#45;&gt;n_0</title>
<path fill="none" stroke="black" d="M431.02,-161.03C425.82,-150.64 419.05,-137.1 413.12,-125.23"/>
<polygon fill="black" stroke="black" points="416.25,-123.67 408.65,-116.3 409.99,-126.8 416.25,-123.67"/>
</g>
<!-- n_4 -->
<g id="node12" class="node">
<title>n_4</title>
<polygon fill="none" stroke="black" points="490.5,-84.38 490.5,-109.62 540.5,-109.62 540.5,-84.38 490.5,-84.38"/>
<text text-anchor="start" x="497.5" y="-95.08" font-family="Times New Roman,serif" font-weight="bold" font-size="9.00">Obesity I</text>
<polygon fill="none" stroke="black" points="489.5,-83.38 489.5,-110.62 541.5,-110.62 541.5,-83.38 489.5,-83.38"/>
</g>
<!-- n_0_4&#45;&gt;n_4 -->
<g id="edge11" class="edge">
<title>n_0_4&#45;&gt;n_4</title>
<path fill="none" stroke="black" d="M455.62,-161.03C466.1,-150 479.94,-135.43 491.68,-123.07"/>
<polygon fill="black" stroke="black" points="494.01,-125.7 498.36,-116.04 488.94,-120.88 494.01,-125.7"/>
</g>
</g>
</svg>
