<?xml version="1.0" encoding="UTF-8" standalone="no"?>
<!DOCTYPE svg PUBLIC "-//W3C//DTD SVG 1.1//EN"
 "http://www.w3.org/Graphics/SVG/1.1/DTD/svg11.dtd">
<!-- Generated by graphviz version 10.0.1 (20240210.2158)
 -->
<!-- Title: ND Pages: 1 -->
<svg width="575pt" height="544pt"
 viewBox="0.00 0.00 574.62 544.00" xmlns="http://www.w3.org/2000/svg" xmlns:xlink="http://www.w3.org/1999/xlink">
<g id="graph0" class="graph" transform="scale(1 1) rotate(0) translate(4 540)">
<title>ND</title>
<polygon fill="white" stroke="none" points="-4,4 -4,-540 570.62,-540 570.62,4 -4,4"/>
<!-- n_0_1_2_3_4_5_6 -->
<g id="node1" class="node">
<title>n_0_1_2_3_4_5_6</title>
<polygon fill="none" stroke="black" points="388.5,-463 388.5,-531 476.75,-531 476.75,-463 388.5,-463"/>
<text text-anchor="start" x="395.5" y="-516.45" font-family="Times New Roman,serif" font-weight="bold" font-size="9.00">Insufficient weight</text>
<text text-anchor="start" x="417.62" y="-507.45" font-family="Times New Roman,serif" font-weight="bold" font-size="9.00">Normal</text>
<text text-anchor="start" x="407.12" y="-498.45" font-family="Times New Roman,serif" font-weight="bold" font-size="9.00">Overweight I</text>
<text text-anchor="start" x="405.62" y="-489.45" font-family="Times New Roman,serif" font-weight="bold" font-size="9.00">Overweight II</text>
<text text-anchor="start" x="414.62" y="-480.45" font-family="Times New Roman,serif" font-weight="bold" font-size="9.00">Obesity I</text>
<text text-anchor="start" x="411.62" y="-471.45" font-family="Times New Roman,serif" font-weight="bold" font-size="9.00">Obesity III</text>
<polygon fill="none" stroke="black" points="476.75,-463 476.75,-531 529.75,-531 529.75,-463 476.75,-463"/>
<text text-anchor="start" x="483.75" y="-495.07" font-family="Times New Roman,serif" font-weight="bold" font-size="9.00">Obesity II</text>
<polygon fill="none" stroke="black" points="387.5,-462 387.5,-532 530.75,-532 530.75,-462 387.5,-462"/>
</g>
<!-- n_0_1_2_3_4_6 -->
<g id="node2" class="node">
<title>n_0_1_2_3_4_6</title>
<polygon fill="none" stroke="black" points="319,-351 319,-410 407.25,-410 407.25,-351 319,-351"/>
<text text-anchor="start" x="326" y="-395.45" font-family="Times New Roman,serif" font-weight="bold" font-size="9.00">Insufficient weight</text>
<text text-anchor="start" x="348.12" y="-386.45" font-family="Times New Roman,serif" font-weight="bold" font-size="9.00">Normal</text>
<text text-anchor="start" x="337.62" y="-377.45" font-family="Times New Roman,serif" font-weight="bold" font-size="9.00">Overweight I</text>
<text text-anchor="start" x="336.12" y="-368.45" font-family="Times New Roman,serif" font-weight="bold" font-size="9.00">Overweight II</text>
<text text-anchor="start" x="342.12" y="-359.45" font-family="Times New Roman,serif" font-weight="bold" font-size="9.00">Obesity III</text>
<polygon fill="none" stroke="black" points="407.25,-351 407.25,-410 457.25,-410 457.25,-351 407.25,-351"/>
<text text-anchor="start" x="414.25" y="-378.57" font-family="Times New Roman,serif" font-weight="bold" font-size="9.00">Obesity I</text>
<polygon fill="none" stroke="black" points="318,-350 318,-411 458.25,-411 458.25,-350 318,-350"/>
</g>
<!-- n_0_1_2_3_4_5_6&#45;&gt;n_0_1_2_3_4_6 -->
<g id="edge1" class="edge">
<title>n_0_1_2_3_4_5_6&#45;&gt;n_0_1_2_3_4_6</title>
<path fill="none" stroke="black" d="M435.68,-458.19C428.93,-447.31 421.52,-435.36 414.61,-424.21"/>
<polygon fill="black" stroke="black" points="417.72,-422.59 409.48,-415.94 411.78,-426.28 417.72,-422.59"/>
</g>
<!-- n_5 -->
<g id="node13" class="node">
<title>n_5</title>
<polygon fill="none" stroke="black" points="504.62,-367.88 504.62,-393.12 557.62,-393.12 557.62,-367.88 504.62,-367.88"/>
<text text-anchor="start" x="511.62" y="-378.57" font-family="Times New Roman,serif" font-weight="bold" font-size="9.00">Obesity II</text>
<polygon fill="none" stroke="black" points="503.62,-366.88 503.62,-394.12 558.62,-394.12 558.62,-366.88 503.62,-366.88"/>
</g>
<!-- n_0_1_2_3_4_5_6&#45;&gt;n_5 -->
<g id="edge12" class="edge">
<title>n_0_1_2_3_4_5_6&#45;&gt;n_5</title>
<path fill="none" stroke="black" d="M482.9,-458.19C493.22,-441.78 505.05,-422.96 514.42,-408.07"/>
<polygon fill="black" stroke="black" points="517.29,-410.07 519.65,-399.74 511.37,-406.35 517.29,-410.07"/>
</g>
<!-- n_0_1_2_3_6 -->
<g id="node3" class="node">
<title>n_0_1_2_3_6</title>
<polygon fill="none" stroke="black" points="237.5,-248 237.5,-298 325.75,-298 325.75,-248 237.5,-248"/>
<text text-anchor="start" x="244.5" y="-283.45" font-family="Times New Roman,serif" font-weight="bold" font-size="9.00">Insufficient weight</text>
<text text-anchor="start" x="266.62" y="-274.45" font-family="Times New Roman,serif" font-weight="bold" font-size="9.00">Normal</text>
<text text-anchor="start" x="254.62" y="-265.45" font-family="Times New Roman,serif" font-weight="bold" font-size="9.00">Overweight II</text>
<text text-anchor="start" x="260.62" y="-256.45" font-family="Times New Roman,serif" font-weight="bold" font-size="9.00">Obesity III</text>
<polygon fill="none" stroke="black" points="325.75,-248 325.75,-298 390.75,-298 390.75,-248 325.75,-248"/>
<text text-anchor="start" x="332.75" y="-271.07" font-family="Times New Roman,serif" font-weight="bold" font-size="9.00">Overweight I</text>
<polygon fill="none" stroke="black" points="236.5,-247 236.5,-299 391.75,-299 391.75,-247 236.5,-247"/>
</g>
<!-- n_0_1_2_3_4_6&#45;&gt;n_0_1_2_3_6 -->
<g id="edge2" class="edge">
<title>n_0_1_2_3_4_6&#45;&gt;n_0_1_2_3_6</title>
<path fill="none" stroke="black" d="M364.71,-346.12C357.1,-335.27 348.6,-323.16 340.78,-312"/>
<polygon fill="black" stroke="black" points="343.87,-310.31 335.26,-304.14 338.14,-314.33 343.87,-310.31"/>
</g>
<!-- n_4 -->
<g id="node12" class="node">
<title>n_4</title>
<polygon fill="none" stroke="black" points="438.12,-260.38 438.12,-285.62 488.12,-285.62 488.12,-260.38 438.12,-260.38"/>
<text text-anchor="start" x="445.12" y="-271.07" font-family="Times New Roman,serif" font-weight="bold" font-size="9.00">Obesity I</text>
<polygon fill="none" stroke="black" points="437.12,-259.38 437.12,-286.62 489.12,-286.62 489.12,-259.38 437.12,-259.38"/>
</g>
<!-- n_0_1_2_3_4_6&#45;&gt;n_4 -->
<g id="edge11" class="edge">
<title>n_0_1_2_3_4_6&#45;&gt;n_4</title>
<path fill="none" stroke="black" d="M411.86,-346.12C422.46,-331.21 434.76,-313.9 444.66,-299.98"/>
<polygon fill="black" stroke="black" points="447.26,-302.36 450.2,-292.18 441.55,-298.31 447.26,-302.36"/>
</g>
<!-- n_0_1_3_6 -->
<g id="node4" class="node">
<title>n_0_1_3_6</title>
<polygon fill="none" stroke="black" points="157,-163 157,-195 245.25,-195 245.25,-163 157,-163"/>
<text text-anchor="start" x="164" y="-180.45" font-family="Times New Roman,serif" font-weight="bold" font-size="9.00">Insufficient weight</text>
<text text-anchor="start" x="186.12" y="-171.45" font-family="Times New Roman,serif" font-weight="bold" font-size="9.00">Normal</text>
<polygon fill="none" stroke="black" points="245.25,-163 245.25,-195 313.25,-195 313.25,-163 245.25,-163"/>
<text text-anchor="start" x="252.25" y="-180.45" font-family="Times New Roman,serif" font-weight="bold" font-size="9.00">Overweight II</text>
<text text-anchor="start" x="258.25" y="-171.45" font-family="Times New Roman,serif" font-weight="bold" font-size="9.00">Obesity III</text>
<polygon fill="none" stroke="black" points="156,-162 156,-196 314.25,-196 314.25,-162 156,-162"/>
</g>
<!-- n_0_1_2_3_6&#45;&gt;n_0_1_3_6 -->
<g id="edge3" class="edge">
<title>n_0_1_2_3_6&#45;&gt;n_0_1_3_6</title>
<path fill="none" stroke="black" d="M289.35,-243.14C279.78,-232 268.86,-219.29 259.35,-208.21"/>
<polygon fill="black" stroke="black" points="262.22,-206.19 253.05,-200.88 256.91,-210.75 262.22,-206.19"/>
</g>
<!-- n_2 -->
<g id="node11" class="node">
<title>n_2</title>
<polygon fill="none" stroke="black" points="360.62,-166.38 360.62,-191.62 425.62,-191.62 425.62,-166.38 360.62,-166.38"/>
<text text-anchor="start" x="367.62" y="-177.07" font-family="Times New Roman,serif" font-weight="bold" font-size="9.00">Overweight I</text>
<polygon fill="none" stroke="black" points="359.62,-165.38 359.62,-192.62 426.62,-192.62 426.62,-165.38 359.62,-165.38"/>
</g>
<!-- n_0_1_2_3_6&#45;&gt;n_2 -->
<g id="edge10" class="edge">
<title>n_0_1_2_3_6&#45;&gt;n_2</title>
<path fill="none" stroke="black" d="M338.9,-243.14C349.29,-231.05 361.26,-217.11 371.3,-205.41"/>
<polygon fill="black" stroke="black" points="373.71,-207.98 377.57,-198.12 368.4,-203.42 373.71,-207.98"/>
</g>
<!-- n_0_1 -->
<g id="node5" class="node">
<title>n_0_1</title>
<polygon fill="none" stroke="black" points="82,-84.38 82,-109.62 170.25,-109.62 170.25,-84.38 82,-84.38"/>
<text text-anchor="start" x="89" y="-95.08" font-family="Times New Roman,serif" font-weight="bold" font-size="9.00">Insufficient weight</text>
<polygon fill="none" stroke="black" points="170.25,-84.38 170.25,-109.62 214.25,-109.62 214.25,-84.38 170.25,-84.38"/>
<text text-anchor="start" x="177.25" y="-95.08" font-family="Times New Roman,serif" font-weight="bold" font-size="9.00">Normal</text>
<polygon fill="none" stroke="black" points="81,-83.38 81,-110.62 215.25,-110.62 215.25,-83.38 81,-83.38"/>
</g>
<!-- n_0_1_3_6&#45;&gt;n_0_1 -->
<g id="edge4" class="edge">
<title>n_0_1_3_6&#45;&gt;n_0_1</title>
<path fill="none" stroke="black" d="M213.62,-158.22C201.84,-147.4 187.15,-133.89 174.67,-122.41"/>
<polygon fill="black" stroke="black" points="177.29,-120.06 167.56,-115.87 172.55,-125.21 177.29,-120.06"/>
</g>
<!-- n_3_6 -->
<g id="node8" class="node">
<title>n_3_6</title>
<polygon fill="none" stroke="black" points="261.12,-84.38 261.12,-109.62 329.12,-109.62 329.12,-84.38 261.12,-84.38"/>
<text text-anchor="start" x="268.12" y="-95.08" font-family="Times New Roman,serif" font-weight="bold" font-size="9.00">Overweight II</text>
<polygon fill="none" stroke="black" points="329.12,-84.38 329.12,-109.62 385.12,-109.62 385.12,-84.38 329.12,-84.38"/>
<text text-anchor="start" x="336.12" y="-95.08" font-family="Times New Roman,serif" font-weight="bold" font-size="9.00">Obesity III</text>
<polygon fill="none" stroke="black" points="260.12,-83.38 260.12,-110.62 386.12,-110.62 386.12,-83.38 260.12,-83.38"/>
</g>
<!-- n_0_1_3_6&#45;&gt;n_3_6 -->
<g id="edge7" class="edge">
<title>n_0_1_3_6&#45;&gt;n_3_6</title>
<path fill="none" stroke="black" d="M256.88,-158.22C268.79,-147.4 283.65,-133.89 296.28,-122.41"/>
<polygon fill="black" stroke="black" points="298.43,-125.18 303.48,-115.86 293.72,-120 298.43,-125.18"/>
</g>
<!-- n_0 -->
<g id="node6" class="node">
<title>n_0</title>
<polygon fill="none" stroke="black" points="9,-5.38 9,-30.62 97.25,-30.62 97.25,-5.38 9,-5.38"/>
<text text-anchor="start" x="16" y="-16.07" font-family="Times New Roman,serif" font-weight="bold" font-size="9.00">Insufficient weight</text>
<polygon fill="none" stroke="black" points="8,-4.38 8,-31.62 98.25,-31.62 98.25,-4.38 8,-4.38"/>
</g>
<!-- n_0_1&#45;&gt;n_0 -->
<g id="edge5" class="edge">
<title>n_0_1&#45;&gt;n_0</title>
<path fill="none" stroke="black" d="M127.51,-79.29C114.41,-68.67 97.23,-54.75 82.68,-42.96"/>
<polygon fill="black" stroke="black" points="85.17,-40.47 75.2,-36.89 80.77,-45.91 85.17,-40.47"/>
</g>
<!-- n_1 -->
<g id="node7" class="node">
<title>n_1</title>
<polygon fill="none" stroke="black" points="144.12,-5.38 144.12,-30.62 188.12,-30.62 188.12,-5.38 144.12,-5.38"/>
<text text-anchor="start" x="151.12" y="-16.07" font-family="Times New Roman,serif" font-weight="bold" font-size="9.00">Normal</text>
<polygon fill="none" stroke="black" points="143.12,-4.38 143.12,-31.62 189.12,-31.62 189.12,-4.38 143.12,-4.38"/>
</g>
<!-- n_0_1&#45;&gt;n_1 -->
<g id="edge6" class="edge">
<title>n_0_1&#45;&gt;n_1</title>
<path fill="none" stroke="black" d="M152.03,-79.29C154.23,-69.87 157.04,-57.86 159.57,-47.04"/>
<polygon fill="black" stroke="black" points="162.95,-47.95 161.82,-37.41 156.14,-46.36 162.95,-47.95"/>
</g>
<!-- n_3 -->
<g id="node9" class="node">
<title>n_3</title>
<polygon fill="none" stroke="black" points="271.12,-5.38 271.12,-30.62 339.12,-30.62 339.12,-5.38 271.12,-5.38"/>
<text text-anchor="start" x="278.12" y="-16.07" font-family="Times New Roman,serif" font-weight="bold" font-size="9.00">Overweight II</text>
<polygon fill="none" stroke="black" points="270.12,-4.38 270.12,-31.62 340.12,-31.62 340.12,-4.38 270.12,-4.38"/>
</g>
<!-- n_3_6&#45;&gt;n_3 -->
<g id="edge8" class="edge">
<title>n_3_6&#45;&gt;n_3</title>
<path fill="none" stroke="black" d="M319.22,-79.29C317.02,-69.87 314.21,-57.86 311.68,-47.04"/>
<polygon fill="black" stroke="black" points="315.11,-46.36 309.43,-37.41 308.3,-47.95 315.11,-46.36"/>
</g>
<!-- n_6 -->
<g id="node10" class="node">
<title>n_6</title>
<polygon fill="none" stroke="black" points="386.12,-5.38 386.12,-30.62 442.12,-30.62 442.12,-5.38 386.12,-5.38"/>
<text text-anchor="start" x="393.12" y="-16.07" font-family="Times New Roman,serif" font-weight="bold" font-size="9.00">Obesity III</text>
<polygon fill="none" stroke="black" points="385.12,-4.38 385.12,-31.62 443.12,-31.62 443.12,-4.38 385.12,-4.38"/>
</g>
<!-- n_3_6&#45;&gt;n_6 -->
<g id="edge9" class="edge">
<title>n_3_6&#45;&gt;n_6</title>
<path fill="none" stroke="black" d="M342.87,-79.29C355.31,-68.77 371.57,-55.01 385.42,-43.29"/>
<polygon fill="black" stroke="black" points="387.58,-46.05 392.95,-36.92 383.05,-40.71 387.58,-46.05"/>
</g>
</g>
</svg>
