<?xml version="1.0" encoding="UTF-8" standalone="no"?>
<!DOCTYPE svg PUBLIC "-//W3C//DTD SVG 1.1//EN"
 "http://www.w3.org/Graphics/SVG/1.1/DTD/svg11.dtd">
<!-- Generated by graphviz version 10.0.1 (20240210.2158)
 -->
<!-- Title: ND Pages: 1 -->
<svg width="557pt" height="638pt"
 viewBox="0.00 0.00 557.00 638.00" xmlns="http://www.w3.org/2000/svg" xmlns:xlink="http://www.w3.org/1999/xlink">
<g id="graph0" class="graph" transform="scale(1 1) rotate(0) translate(4 634)">
<title>ND</title>
<polygon fill="white" stroke="none" points="-4,4 -4,-634 553,-634 553,4 -4,4"/>
<!-- n_0_1_2_3_4_5_6 -->
<g id="node1" class="node">
<title>n_0_1_2_3_4_5_6</title>
<polygon fill="none" stroke="black" points="368.88,-557 368.88,-625 457.12,-625 457.12,-557 368.88,-557"/>
<text text-anchor="start" x="375.88" y="-610.45" font-family="Times New Roman,serif" font-weight="bold" font-size="9.00">Insufficient weight</text>
<text text-anchor="start" x="398" y="-601.45" font-family="Times New Roman,serif" font-weight="bold" font-size="9.00">Normal</text>
<text text-anchor="start" x="387.5" y="-592.45" font-family="Times New Roman,serif" font-weight="bold" font-size="9.00">Overweight I</text>
<text text-anchor="start" x="386" y="-583.45" font-family="Times New Roman,serif" font-weight="bold" font-size="9.00">Overweight II</text>
<text text-anchor="start" x="395" y="-574.45" font-family="Times New Roman,serif" font-weight="bold" font-size="9.00">Obesity I</text>
<text text-anchor="start" x="393.5" y="-565.45" font-family="Times New Roman,serif" font-weight="bold" font-size="9.00">Obesity II</text>
<polygon fill="none" stroke="black" points="457.12,-557 457.12,-625 513.12,-625 513.12,-557 457.12,-557"/>
<text text-anchor="start" x="464.12" y="-589.08" font-family="Times New Roman,serif" font-weight="bold" font-size="9.00">Obesity III</text>
<polygon fill="none" stroke="black" points="367.88,-556 367.88,-626 514.12,-626 514.12,-556 367.88,-556"/>
</g>
<!-- n_0_1_2_3_4_5 -->
<g id="node2" class="node">
<title>n_0_1_2_3_4_5</title>
<polygon fill="none" stroke="black" points="304.88,-445 304.88,-504 393.12,-504 393.12,-445 304.88,-445"/>
<text text-anchor="start" x="311.88" y="-489.45" font-family="Times New Roman,serif" font-weight="bold" font-size="9.00">Insufficient weight</text>
<text text-anchor="start" x="323.5" y="-480.45" font-family="Times New Roman,serif" font-weight="bold" font-size="9.00">Overweight I</text>
<text text-anchor="start" x="322" y="-471.45" font-family="Times New Roman,serif" font-weight="bold" font-size="9.00">Overweight II</text>
<text text-anchor="start" x="331" y="-462.45" font-family="Times New Roman,serif" font-weight="bold" font-size="9.00">Obesity I</text>
<text text-anchor="start" x="329.5" y="-453.45" font-family="Times New Roman,serif" font-weight="bold" font-size="9.00">Obesity II</text>
<polygon fill="none" stroke="black" points="393.12,-445 393.12,-504 437.12,-504 437.12,-445 393.12,-445"/>
<text text-anchor="start" x="400.12" y="-472.57" font-family="Times New Roman,serif" font-weight="bold" font-size="9.00">Normal</text>
<polygon fill="none" stroke="black" points="303.88,-444 303.88,-505 438.12,-505 438.12,-444 303.88,-444"/>
</g>
<!-- n_0_1_2_3_4_5_6&#45;&gt;n_0_1_2_3_4_5 -->
<g id="edge1" class="edge">
<title>n_0_1_2_3_4_5_6&#45;&gt;n_0_1_2_3_4_5</title>
<path fill="none" stroke="black" d="M417.89,-552.19C411.23,-541.31 403.93,-529.36 397.11,-518.21"/>
<polygon fill="black" stroke="black" points="400.26,-516.65 392.06,-509.94 394.29,-520.3 400.26,-516.65"/>
</g>
<!-- n_6 -->
<g id="node13" class="node">
<title>n_6</title>
<polygon fill="none" stroke="black" points="484,-461.88 484,-487.12 540,-487.12 540,-461.88 484,-461.88"/>
<text text-anchor="start" x="491" y="-472.57" font-family="Times New Roman,serif" font-weight="bold" font-size="9.00">Obesity III</text>
<polygon fill="none" stroke="black" points="483,-460.88 483,-488.12 541,-488.12 541,-460.88 483,-460.88"/>
</g>
<!-- n_0_1_2_3_4_5_6&#45;&gt;n_6 -->
<g id="edge12" class="edge">
<title>n_0_1_2_3_4_5_6&#45;&gt;n_6</title>
<path fill="none" stroke="black" d="M464.44,-552.19C474.62,-535.78 486.29,-516.96 495.53,-502.07"/>
<polygon fill="black" stroke="black" points="498.39,-504.09 500.68,-493.75 492.44,-500.4 498.39,-504.09"/>
</g>
<!-- n_0_2_3_4_5 -->
<g id="node3" class="node">
<title>n_0_2_3_4_5</title>
<polygon fill="none" stroke="black" points="219.88,-342 219.88,-392 287.88,-392 287.88,-342 219.88,-342"/>
<text text-anchor="start" x="228.38" y="-377.45" font-family="Times New Roman,serif" font-weight="bold" font-size="9.00">Overweight I</text>
<text text-anchor="start" x="226.88" y="-368.45" font-family="Times New Roman,serif" font-weight="bold" font-size="9.00">Overweight II</text>
<text text-anchor="start" x="235.88" y="-359.45" font-family="Times New Roman,serif" font-weight="bold" font-size="9.00">Obesity I</text>
<text text-anchor="start" x="234.38" y="-350.45" font-family="Times New Roman,serif" font-weight="bold" font-size="9.00">Obesity II</text>
<polygon fill="none" stroke="black" points="287.88,-342 287.88,-392 376.12,-392 376.12,-342 287.88,-342"/>
<text text-anchor="start" x="294.88" y="-365.07" font-family="Times New Roman,serif" font-weight="bold" font-size="9.00">Insufficient weight</text>
<polygon fill="none" stroke="black" points="218.88,-341 218.88,-393 377.12,-393 377.12,-341 218.88,-341"/>
</g>
<!-- n_0_1_2_3_4_5&#45;&gt;n_0_2_3_4_5 -->
<g id="edge2" class="edge">
<title>n_0_1_2_3_4_5&#45;&gt;n_0_2_3_4_5</title>
<path fill="none" stroke="black" d="M347.9,-440.12C340.47,-429.38 332.18,-417.4 324.52,-406.33"/>
<polygon fill="black" stroke="black" points="327.43,-404.37 318.86,-398.14 321.67,-408.36 327.43,-404.37"/>
</g>
<!-- n_1 -->
<g id="node12" class="node">
<title>n_1</title>
<polygon fill="none" stroke="black" points="423,-354.38 423,-379.62 467,-379.62 467,-354.38 423,-354.38"/>
<text text-anchor="start" x="430" y="-365.07" font-family="Times New Roman,serif" font-weight="bold" font-size="9.00">Normal</text>
<polygon fill="none" stroke="black" points="422,-353.38 422,-380.62 468,-380.62 468,-353.38 422,-353.38"/>
</g>
<!-- n_0_1_2_3_4_5&#45;&gt;n_1 -->
<g id="edge11" class="edge">
<title>n_0_1_2_3_4_5&#45;&gt;n_1</title>
<path fill="none" stroke="black" d="M394.41,-440.12C404.87,-425.21 417.01,-407.9 426.78,-393.98"/>
<polygon fill="black" stroke="black" points="429.36,-396.39 432.24,-386.19 423.63,-392.37 429.36,-396.39"/>
</g>
<!-- n_2_3_4_5 -->
<g id="node4" class="node">
<title>n_2_3_4_5</title>
<polygon fill="none" stroke="black" points="152.5,-248 152.5,-289 220.5,-289 220.5,-248 152.5,-248"/>
<text text-anchor="start" x="159.5" y="-274.45" font-family="Times New Roman,serif" font-weight="bold" font-size="9.00">Overweight II</text>
<text text-anchor="start" x="168.5" y="-265.45" font-family="Times New Roman,serif" font-weight="bold" font-size="9.00">Obesity I</text>
<text text-anchor="start" x="167" y="-256.45" font-family="Times New Roman,serif" font-weight="bold" font-size="9.00">Obesity II</text>
<polygon fill="none" stroke="black" points="220.5,-248 220.5,-289 285.5,-289 285.5,-248 220.5,-248"/>
<text text-anchor="start" x="227.5" y="-266.57" font-family="Times New Roman,serif" font-weight="bold" font-size="9.00">Overweight I</text>
<polygon fill="none" stroke="black" points="151.5,-247 151.5,-290 286.5,-290 286.5,-247 151.5,-247"/>
</g>
<!-- n_0_2_3_4_5&#45;&gt;n_2_3_4_5 -->
<g id="edge3" class="edge">
<title>n_0_2_3_4_5&#45;&gt;n_2_3_4_5</title>
<path fill="none" stroke="black" d="M274.3,-337.05C265.4,-326.18 255.23,-313.76 246.06,-302.55"/>
<polygon fill="black" stroke="black" points="248.96,-300.57 239.91,-295.05 243.54,-305 248.96,-300.57"/>
</g>
<!-- n_0 -->
<g id="node11" class="node">
<title>n_0</title>
<polygon fill="none" stroke="black" points="332.88,-255.88 332.88,-281.12 421.12,-281.12 421.12,-255.88 332.88,-255.88"/>
<text text-anchor="start" x="339.88" y="-266.57" font-family="Times New Roman,serif" font-weight="bold" font-size="9.00">Insufficient weight</text>
<polygon fill="none" stroke="black" points="331.88,-254.88 331.88,-282.12 422.12,-282.12 422.12,-254.88 331.88,-254.88"/>
</g>
<!-- n_0_2_3_4_5&#45;&gt;n_0 -->
<g id="edge10" class="edge">
<title>n_0_2_3_4_5&#45;&gt;n_0</title>
<path fill="none" stroke="black" d="M321.7,-337.05C332.6,-323.73 345.42,-308.07 355.97,-295.19"/>
<polygon fill="black" stroke="black" points="358.61,-297.49 362.23,-287.54 353.19,-293.06 358.61,-297.49"/>
</g>
<!-- n_3_4_5 -->
<g id="node5" class="node">
<title>n_3_4_5</title>
<polygon fill="none" stroke="black" points="88.5,-163 88.5,-195 141.5,-195 141.5,-163 88.5,-163"/>
<text text-anchor="start" x="97" y="-180.45" font-family="Times New Roman,serif" font-weight="bold" font-size="9.00">Obesity I</text>
<text text-anchor="start" x="95.5" y="-171.45" font-family="Times New Roman,serif" font-weight="bold" font-size="9.00">Obesity II</text>
<polygon fill="none" stroke="black" points="141.5,-163 141.5,-195 209.5,-195 209.5,-163 141.5,-163"/>
<text text-anchor="start" x="148.5" y="-177.07" font-family="Times New Roman,serif" font-weight="bold" font-size="9.00">Overweight II</text>
<polygon fill="none" stroke="black" points="87.5,-162 87.5,-196 210.5,-196 210.5,-162 87.5,-162"/>
</g>
<!-- n_2_3_4_5&#45;&gt;n_3_4_5 -->
<g id="edge4" class="edge">
<title>n_2_3_4_5&#45;&gt;n_3_4_5</title>
<path fill="none" stroke="black" d="M199.5,-243.13C190.97,-232.46 180.89,-219.87 172,-208.75"/>
<polygon fill="black" stroke="black" points="174.79,-206.63 165.81,-201.01 169.32,-211 174.79,-206.63"/>
</g>
<!-- n_2 -->
<g id="node10" class="node">
<title>n_2</title>
<polygon fill="none" stroke="black" points="256.5,-166.38 256.5,-191.62 321.5,-191.62 321.5,-166.38 256.5,-166.38"/>
<text text-anchor="start" x="263.5" y="-177.07" font-family="Times New Roman,serif" font-weight="bold" font-size="9.00">Overweight I</text>
<polygon fill="none" stroke="black" points="255.5,-165.38 255.5,-192.62 322.5,-192.62 322.5,-165.38 255.5,-165.38"/>
</g>
<!-- n_2_3_4_5&#45;&gt;n_2 -->
<g id="edge9" class="edge">
<title>n_2_3_4_5&#45;&gt;n_2</title>
<path fill="none" stroke="black" d="M238.5,-243.13C247.82,-231.48 258.98,-217.53 268.43,-205.71"/>
<polygon fill="black" stroke="black" points="271.12,-207.95 274.64,-197.95 265.66,-203.57 271.12,-207.95"/>
</g>
<!-- n_4_5 -->
<g id="node6" class="node">
<title>n_4_5</title>
<polygon fill="none" stroke="black" points="31.5,-84.38 31.5,-109.62 81.5,-109.62 81.5,-84.38 31.5,-84.38"/>
<text text-anchor="start" x="38.5" y="-95.08" font-family="Times New Roman,serif" font-weight="bold" font-size="9.00">Obesity I</text>
<polygon fill="none" stroke="black" points="81.5,-84.38 81.5,-109.62 134.5,-109.62 134.5,-84.38 81.5,-84.38"/>
<text text-anchor="start" x="88.5" y="-95.08" font-family="Times New Roman,serif" font-weight="bold" font-size="9.00">Obesity II</text>
<polygon fill="none" stroke="black" points="30.5,-83.38 30.5,-110.62 135.5,-110.62 135.5,-83.38 30.5,-83.38"/>
</g>
<!-- n_3_4_5&#45;&gt;n_4_5 -->
<g id="edge5" class="edge">
<title>n_3_4_5&#45;&gt;n_4_5</title>
<path fill="none" stroke="black" d="M132.69,-158.22C124.01,-147.71 113.25,-134.66 103.96,-123.41"/>
<polygon fill="black" stroke="black" points="106.92,-121.5 97.86,-116.01 101.52,-125.95 106.92,-121.5"/>
</g>
<!-- n_3 -->
<g id="node9" class="node">
<title>n_3</title>
<polygon fill="none" stroke="black" points="182,-84.38 182,-109.62 250,-109.62 250,-84.38 182,-84.38"/>
<text text-anchor="start" x="189" y="-95.08" font-family="Times New Roman,serif" font-weight="bold" font-size="9.00">Overweight II</text>
<polygon fill="none" stroke="black" points="181,-83.38 181,-110.62 251,-110.62 251,-83.38 181,-83.38"/>
</g>
<!-- n_3_4_5&#45;&gt;n_3 -->
<g id="edge8" class="edge">
<title>n_3_4_5&#45;&gt;n_3</title>
<path fill="none" stroke="black" d="M165.56,-158.22C174.37,-147.71 185.29,-134.66 194.72,-123.41"/>
<polygon fill="black" stroke="black" points="197.18,-125.92 200.92,-116 191.82,-121.42 197.18,-125.92"/>
</g>
<!-- n_4 -->
<g id="node7" class="node">
<title>n_4</title>
<polygon fill="none" stroke="black" points="9,-5.38 9,-30.62 59,-30.62 59,-5.38 9,-5.38"/>
<text text-anchor="start" x="16" y="-16.07" font-family="Times New Roman,serif" font-weight="bold" font-size="9.00">Obesity I</text>
<polygon fill="none" stroke="black" points="8,-4.38 8,-31.62 60,-31.62 60,-4.38 8,-4.38"/>
</g>
<!-- n_4_5&#45;&gt;n_4 -->
<g id="edge6" class="edge">
<title>n_4_5&#45;&gt;n_4</title>
<path fill="none" stroke="black" d="M72.37,-79.29C66.05,-69.37 57.91,-56.57 50.75,-45.32"/>
<polygon fill="black" stroke="black" points="53.91,-43.78 45.59,-37.22 48.01,-47.53 53.91,-43.78"/>
</g>
<!-- n_5 -->
<g id="node8" class="node">
<title>n_5</title>
<polygon fill="none" stroke="black" points="106.5,-5.38 106.5,-30.62 159.5,-30.62 159.5,-5.38 106.5,-5.38"/>
<text text-anchor="start" x="113.5" y="-16.07" font-family="Times New Roman,serif" font-weight="bold" font-size="9.00">Obesity II</text>
<polygon fill="none" stroke="black" points="105.5,-4.38 105.5,-31.62 160.5,-31.62 160.5,-4.38 105.5,-4.38"/>
</g>
<!-- n_4_5&#45;&gt;n_5 -->
<g id="edge7" class="edge">
<title>n_4_5&#45;&gt;n_5</title>
<path fill="none" stroke="black" d="M93.85,-79.29C100.29,-69.37 108.6,-56.57 115.91,-45.32"/>
<polygon fill="black" stroke="black" points="118.66,-47.5 121.17,-37.21 112.79,-43.69 118.66,-47.5"/>
</g>
</g>
</svg>
