<?xml version="1.0" encoding="UTF-8" standalone="no"?>
<!DOCTYPE svg PUBLIC "-//W3C//DTD SVG 1.1//EN"
 "http://www.w3.org/Graphics/SVG/1.1/DTD/svg11.dtd">
<!-- Generated by graphviz version 10.0.1 (20240210.2158)
 -->
<!-- Title: ND Pages: 1 -->
<svg width="701pt" height="414pt"
 viewBox="0.00 0.00 700.50 414.00" xmlns="http://www.w3.org/2000/svg" xmlns:xlink="http://www.w3.org/1999/xlink">
<g id="graph0" class="graph" transform="scale(1 1) rotate(0) translate(4 410)">
<title>ND</title>
<polygon fill="white" stroke="none" points="-4,4 -4,-410 696.5,-410 696.5,4 -4,4"/>
<!-- n_0_1_2_3_4_5_6 -->
<g id="node1" class="node">
<title>n_0_1_2_3_4_5_6</title>
<polygon fill="none" stroke="black" points="379.38,-342 379.38,-401 447.38,-401 447.38,-342 379.38,-342"/>
<text text-anchor="start" x="398.38" y="-386.45" font-family="Times New Roman,serif" font-weight="bold" font-size="9.00">Normal</text>
<text text-anchor="start" x="387.88" y="-377.45" font-family="Times New Roman,serif" font-weight="bold" font-size="9.00">Overweight I</text>
<text text-anchor="start" x="386.38" y="-368.45" font-family="Times New Roman,serif" font-weight="bold" font-size="9.00">Overweight II</text>
<text text-anchor="start" x="395.38" y="-359.45" font-family="Times New Roman,serif" font-weight="bold" font-size="9.00">Obesity I</text>
<text text-anchor="start" x="393.88" y="-350.45" font-family="Times New Roman,serif" font-weight="bold" font-size="9.00">Obesity II</text>
<polygon fill="none" stroke="black" points="447.38,-342 447.38,-401 535.62,-401 535.62,-342 447.38,-342"/>
<text text-anchor="start" x="454.38" y="-372.95" font-family="Times New Roman,serif" font-weight="bold" font-size="9.00">Insufficient weight</text>
<text text-anchor="start" x="470.5" y="-363.95" font-family="Times New Roman,serif" font-weight="bold" font-size="9.00">Obesity III</text>
<polygon fill="none" stroke="black" points="378.38,-341 378.38,-402 536.62,-402 536.62,-341 378.38,-341"/>
</g>
<!-- n_1_2_3_4_5 -->
<g id="node2" class="node">
<title>n_1_2_3_4_5</title>
<polygon fill="none" stroke="black" points="309.5,-248 309.5,-289 377.5,-289 377.5,-248 309.5,-248"/>
<text text-anchor="start" x="318" y="-274.45" font-family="Times New Roman,serif" font-weight="bold" font-size="9.00">Overweight I</text>
<text text-anchor="start" x="316.5" y="-265.45" font-family="Times New Roman,serif" font-weight="bold" font-size="9.00">Overweight II</text>
<text text-anchor="start" x="324" y="-256.45" font-family="Times New Roman,serif" font-weight="bold" font-size="9.00">Obesity II</text>
<polygon fill="none" stroke="black" points="377.5,-248 377.5,-289 427.5,-289 427.5,-248 377.5,-248"/>
<text text-anchor="start" x="387.5" y="-269.95" font-family="Times New Roman,serif" font-weight="bold" font-size="9.00">Normal</text>
<text text-anchor="start" x="384.5" y="-260.95" font-family="Times New Roman,serif" font-weight="bold" font-size="9.00">Obesity I</text>
<polygon fill="none" stroke="black" points="308.5,-247 308.5,-290 428.5,-290 428.5,-247 308.5,-247"/>
</g>
<!-- n_0_1_2_3_4_5_6&#45;&gt;n_1_2_3_4_5 -->
<g id="edge1" class="edge">
<title>n_0_1_2_3_4_5_6&#45;&gt;n_1_2_3_4_5</title>
<path fill="none" stroke="black" d="M428.11,-337.15C418.28,-326 407.34,-313.58 397.54,-302.45"/>
<polygon fill="black" stroke="black" points="400.2,-300.18 390.97,-295 394.95,-304.81 400.2,-300.18"/>
</g>
<!-- n_0_6 -->
<g id="node11" class="node">
<title>n_0_6</title>
<polygon fill="none" stroke="black" points="474.38,-255.88 474.38,-281.12 562.62,-281.12 562.62,-255.88 474.38,-255.88"/>
<text text-anchor="start" x="481.38" y="-266.57" font-family="Times New Roman,serif" font-weight="bold" font-size="9.00">Insufficient weight</text>
<polygon fill="none" stroke="black" points="562.62,-255.88 562.62,-281.12 618.62,-281.12 618.62,-255.88 562.62,-255.88"/>
<text text-anchor="start" x="569.62" y="-266.57" font-family="Times New Roman,serif" font-weight="bold" font-size="9.00">Obesity III</text>
<polygon fill="none" stroke="black" points="473.38,-254.88 473.38,-282.12 619.62,-282.12 619.62,-254.88 473.38,-254.88"/>
</g>
<!-- n_0_1_2_3_4_5_6&#45;&gt;n_0_6 -->
<g id="edge10" class="edge">
<title>n_0_1_2_3_4_5_6&#45;&gt;n_0_6</title>
<path fill="none" stroke="black" d="M486.89,-337.15C499.07,-323.33 512.96,-307.57 524.26,-294.74"/>
<polygon fill="black" stroke="black" points="526.64,-297.33 530.62,-287.52 521.39,-292.7 526.64,-297.33"/>
</g>
<!-- n_2_3_5 -->
<g id="node3" class="node">
<title>n_2_3_5</title>
<polygon fill="none" stroke="black" points="163,-163 163,-195 231,-195 231,-163 163,-163"/>
<text text-anchor="start" x="171.5" y="-180.45" font-family="Times New Roman,serif" font-weight="bold" font-size="9.00">Overweight I</text>
<text text-anchor="start" x="170" y="-171.45" font-family="Times New Roman,serif" font-weight="bold" font-size="9.00">Overweight II</text>
<polygon fill="none" stroke="black" points="231,-163 231,-195 284,-195 284,-163 231,-163"/>
<text text-anchor="start" x="238" y="-177.07" font-family="Times New Roman,serif" font-weight="bold" font-size="9.00">Obesity II</text>
<polygon fill="none" stroke="black" points="162,-162 162,-196 285,-196 285,-162 162,-162"/>
</g>
<!-- n_1_2_3_4_5&#45;&gt;n_2_3_5 -->
<g id="edge2" class="edge">
<title>n_1_2_3_4_5&#45;&gt;n_2_3_5</title>
<path fill="none" stroke="black" d="M328.11,-243.13C308.75,-231.45 285.57,-217.46 265.96,-205.62"/>
<polygon fill="black" stroke="black" points="268.02,-202.78 257.65,-200.61 264.4,-208.77 268.02,-202.78"/>
</g>
<!-- n_1_4 -->
<g id="node8" class="node">
<title>n_1_4</title>
<polygon fill="none" stroke="black" points="331.5,-166.38 331.5,-191.62 375.5,-191.62 375.5,-166.38 331.5,-166.38"/>
<text text-anchor="start" x="338.5" y="-177.07" font-family="Times New Roman,serif" font-weight="bold" font-size="9.00">Normal</text>
<polygon fill="none" stroke="black" points="375.5,-166.38 375.5,-191.62 425.5,-191.62 425.5,-166.38 375.5,-166.38"/>
<text text-anchor="start" x="382.5" y="-177.07" font-family="Times New Roman,serif" font-weight="bold" font-size="9.00">Obesity I</text>
<polygon fill="none" stroke="black" points="330.5,-165.38 330.5,-192.62 426.5,-192.62 426.5,-165.38 330.5,-165.38"/>
</g>
<!-- n_1_2_3_4_5&#45;&gt;n_1_4 -->
<g id="edge7" class="edge">
<title>n_1_2_3_4_5&#45;&gt;n_1_4</title>
<path fill="none" stroke="black" d="M371.29,-243.13C372.52,-232.28 373.99,-219.45 375.28,-208.19"/>
<polygon fill="black" stroke="black" points="378.75,-208.61 376.41,-198.27 371.8,-207.81 378.75,-208.61"/>
</g>
<!-- n_2_3 -->
<g id="node4" class="node">
<title>n_2_3</title>
<polygon fill="none" stroke="black" points="32,-84.38 32,-109.62 97,-109.62 97,-84.38 32,-84.38"/>
<text text-anchor="start" x="39" y="-95.08" font-family="Times New Roman,serif" font-weight="bold" font-size="9.00">Overweight I</text>
<polygon fill="none" stroke="black" points="97,-84.38 97,-109.62 165,-109.62 165,-84.38 97,-84.38"/>
<text text-anchor="start" x="104" y="-95.08" font-family="Times New Roman,serif" font-weight="bold" font-size="9.00">Overweight II</text>
<polygon fill="none" stroke="black" points="31,-83.38 31,-110.62 166,-110.62 166,-83.38 31,-83.38"/>
</g>
<!-- n_2_3_5&#45;&gt;n_2_3 -->
<g id="edge3" class="edge">
<title>n_2_3_5&#45;&gt;n_2_3</title>
<path fill="none" stroke="black" d="M192.28,-158.02C174.63,-146.72 152.49,-132.55 134.15,-120.82"/>
<polygon fill="black" stroke="black" points="136.27,-118.02 125.96,-115.57 132.5,-123.91 136.27,-118.02"/>
</g>
<!-- n_5 -->
<g id="node7" class="node">
<title>n_5</title>
<polygon fill="none" stroke="black" points="212,-84.38 212,-109.62 265,-109.62 265,-84.38 212,-84.38"/>
<text text-anchor="start" x="219" y="-95.08" font-family="Times New Roman,serif" font-weight="bold" font-size="9.00">Obesity II</text>
<polygon fill="none" stroke="black" points="211,-83.38 211,-110.62 266,-110.62 266,-83.38 211,-83.38"/>
</g>
<!-- n_2_3_5&#45;&gt;n_5 -->
<g id="edge6" class="edge">
<title>n_2_3_5&#45;&gt;n_5</title>
<path fill="none" stroke="black" d="M227.21,-158.22C229.02,-148.54 231.24,-136.72 233.23,-126.11"/>
<polygon fill="black" stroke="black" points="236.66,-126.81 235.06,-116.33 229.78,-125.52 236.66,-126.81"/>
</g>
<!-- n_2 -->
<g id="node5" class="node">
<title>n_2</title>
<polygon fill="none" stroke="black" points="9,-5.38 9,-30.62 74,-30.62 74,-5.38 9,-5.38"/>
<text text-anchor="start" x="16" y="-16.07" font-family="Times New Roman,serif" font-weight="bold" font-size="9.00">Overweight I</text>
<polygon fill="none" stroke="black" points="8,-4.38 8,-31.62 75,-31.62 75,-4.38 8,-4.38"/>
</g>
<!-- n_2_3&#45;&gt;n_2 -->
<g id="edge4" class="edge">
<title>n_2_3&#45;&gt;n_2</title>
<path fill="none" stroke="black" d="M86.13,-79.29C78.71,-69.27 69.12,-56.31 60.73,-44.98"/>
<polygon fill="black" stroke="black" points="63.7,-43.11 54.94,-37.16 58.08,-47.28 63.7,-43.11"/>
</g>
<!-- n_3 -->
<g id="node6" class="node">
<title>n_3</title>
<polygon fill="none" stroke="black" points="121.5,-5.38 121.5,-30.62 189.5,-30.62 189.5,-5.38 121.5,-5.38"/>
<text text-anchor="start" x="128.5" y="-16.07" font-family="Times New Roman,serif" font-weight="bold" font-size="9.00">Overweight II</text>
<polygon fill="none" stroke="black" points="120.5,-4.38 120.5,-31.62 190.5,-31.62 190.5,-4.38 120.5,-4.38"/>
</g>
<!-- n_2_3&#45;&gt;n_3 -->
<g id="edge5" class="edge">
<title>n_2_3&#45;&gt;n_3</title>
<path fill="none" stroke="black" d="M110.87,-79.29C118.29,-69.27 127.88,-56.31 136.27,-44.98"/>
<polygon fill="black" stroke="black" points="138.92,-47.28 142.06,-37.16 133.3,-43.11 138.92,-47.28"/>
</g>
<!-- n_1 -->
<g id="node9" class="node">
<title>n_1</title>
<polygon fill="none" stroke="black" points="341.5,-84.38 341.5,-109.62 385.5,-109.62 385.5,-84.38 341.5,-84.38"/>
<text text-anchor="start" x="348.5" y="-95.08" font-family="Times New Roman,serif" font-weight="bold" font-size="9.00">Normal</text>
<polygon fill="none" stroke="black" points="340.5,-83.38 340.5,-110.62 386.5,-110.62 386.5,-83.38 340.5,-83.38"/>
</g>
<!-- n_1_4&#45;&gt;n_1 -->
<g id="edge8" class="edge">
<title>n_1_4&#45;&gt;n_1</title>
<path fill="none" stroke="black" d="M375.32,-161.03C373.41,-150.85 370.93,-137.65 368.74,-125.96"/>
<polygon fill="black" stroke="black" points="372.24,-125.61 366.96,-116.43 365.36,-126.9 372.24,-125.61"/>
</g>
<!-- n_4 -->
<g id="node10" class="node">
<title>n_4</title>
<polygon fill="none" stroke="black" points="432.5,-84.38 432.5,-109.62 482.5,-109.62 482.5,-84.38 432.5,-84.38"/>
<text text-anchor="start" x="439.5" y="-95.08" font-family="Times New Roman,serif" font-weight="bold" font-size="9.00">Obesity I</text>
<polygon fill="none" stroke="black" points="431.5,-83.38 431.5,-110.62 483.5,-110.62 483.5,-83.38 431.5,-83.38"/>
</g>
<!-- n_1_4&#45;&gt;n_4 -->
<g id="edge9" class="edge">
<title>n_1_4&#45;&gt;n_4</title>
<path fill="none" stroke="black" d="M395.25,-161.03C406.15,-150 420.54,-135.43 432.74,-123.07"/>
<polygon fill="black" stroke="black" points="435.17,-125.59 439.71,-116.02 430.19,-120.67 435.17,-125.59"/>
</g>
<!-- n_0 -->
<g id="node12" class="node">
<title>n_0</title>
<polygon fill="none" stroke="black" points="492.38,-166.38 492.38,-191.62 580.62,-191.62 580.62,-166.38 492.38,-166.38"/>
<text text-anchor="start" x="499.38" y="-177.07" font-family="Times New Roman,serif" font-weight="bold" font-size="9.00">Insufficient weight</text>
<polygon fill="none" stroke="black" points="491.38,-165.38 491.38,-192.62 581.62,-192.62 581.62,-165.38 491.38,-165.38"/>
</g>
<!-- n_0_6&#45;&gt;n_0 -->
<g id="edge11" class="edge">
<title>n_0_6&#45;&gt;n_0</title>
<path fill="none" stroke="black" d="M544.57,-250.63C543.19,-238.52 541.29,-221.94 539.69,-207.88"/>
<polygon fill="black" stroke="black" points="543.21,-207.86 538.59,-198.32 536.25,-208.66 543.21,-207.86"/>
</g>
<!-- n_6 -->
<g id="node13" class="node">
<title>n_6</title>
<polygon fill="none" stroke="black" points="627.5,-166.38 627.5,-191.62 683.5,-191.62 683.5,-166.38 627.5,-166.38"/>
<text text-anchor="start" x="634.5" y="-177.07" font-family="Times New Roman,serif" font-weight="bold" font-size="9.00">Obesity III</text>
<polygon fill="none" stroke="black" points="626.5,-165.38 626.5,-192.62 684.5,-192.62 684.5,-165.38 626.5,-165.38"/>
</g>
<!-- n_0_6&#45;&gt;n_6 -->
<g id="edge12" class="edge">
<title>n_0_6&#45;&gt;n_6</title>
<path fill="none" stroke="black" d="M567.52,-250.63C584.03,-237.37 607.23,-218.75 625.67,-203.95"/>
<polygon fill="black" stroke="black" points="627.76,-206.76 633.37,-197.77 623.38,-201.3 627.76,-206.76"/>
</g>
</g>
</svg>
