<?xml version="1.0" encoding="UTF-8" standalone="no"?>
<!DOCTYPE svg PUBLIC "-//W3C//DTD SVG 1.1//EN"
 "http://www.w3.org/Graphics/SVG/1.1/DTD/svg11.dtd">
<!-- Generated by graphviz version 10.0.1 (20240210.2158)
 -->
<!-- Title: ND Pages: 1 -->
<svg width="590pt" height="535pt"
 viewBox="0.00 0.00 590.12 535.00" xmlns="http://www.w3.org/2000/svg" xmlns:xlink="http://www.w3.org/1999/xlink">
<g id="graph0" class="graph" transform="scale(1 1) rotate(0) translate(4 531)">
<title>ND</title>
<polygon fill="white" stroke="none" points="-4,4 -4,-531 586.12,-531 586.12,4 -4,4"/>
<!-- n_0_1_2_3_4_5_6 -->
<g id="node1" class="node">
<title>n_0_1_2_3_4_5_6</title>
<polygon fill="none" stroke="black" points="416,-454 416,-522 504.25,-522 504.25,-454 416,-454"/>
<text text-anchor="start" x="423" y="-507.45" font-family="Times New Roman,serif" font-weight="bold" font-size="9.00">Insufficient weight</text>
<text text-anchor="start" x="434.62" y="-498.45" font-family="Times New Roman,serif" font-weight="bold" font-size="9.00">Overweight I</text>
<text text-anchor="start" x="433.12" y="-489.45" font-family="Times New Roman,serif" font-weight="bold" font-size="9.00">Overweight II</text>
<text text-anchor="start" x="442.12" y="-480.45" font-family="Times New Roman,serif" font-weight="bold" font-size="9.00">Obesity I</text>
<text text-anchor="start" x="440.62" y="-471.45" font-family="Times New Roman,serif" font-weight="bold" font-size="9.00">Obesity II</text>
<text text-anchor="start" x="439.12" y="-462.45" font-family="Times New Roman,serif" font-weight="bold" font-size="9.00">Obesity III</text>
<polygon fill="none" stroke="black" points="504.25,-454 504.25,-522 548.25,-522 548.25,-454 504.25,-454"/>
<text text-anchor="start" x="511.25" y="-486.07" font-family="Times New Roman,serif" font-weight="bold" font-size="9.00">Normal</text>
<polygon fill="none" stroke="black" points="415,-453 415,-523 549.25,-523 549.25,-453 415,-453"/>
</g>
<!-- n_0_2_3_4_5_6 -->
<g id="node2" class="node">
<title>n_0_2_3_4_5_6</title>
<polygon fill="none" stroke="black" points="344,-342 344,-401 432.25,-401 432.25,-342 344,-342"/>
<text text-anchor="start" x="351" y="-386.45" font-family="Times New Roman,serif" font-weight="bold" font-size="9.00">Insufficient weight</text>
<text text-anchor="start" x="362.62" y="-377.45" font-family="Times New Roman,serif" font-weight="bold" font-size="9.00">Overweight I</text>
<text text-anchor="start" x="361.12" y="-368.45" font-family="Times New Roman,serif" font-weight="bold" font-size="9.00">Overweight II</text>
<text text-anchor="start" x="368.62" y="-359.45" font-family="Times New Roman,serif" font-weight="bold" font-size="9.00">Obesity II</text>
<text text-anchor="start" x="367.12" y="-350.45" font-family="Times New Roman,serif" font-weight="bold" font-size="9.00">Obesity III</text>
<polygon fill="none" stroke="black" points="432.25,-342 432.25,-401 482.25,-401 482.25,-342 432.25,-342"/>
<text text-anchor="start" x="439.25" y="-369.57" font-family="Times New Roman,serif" font-weight="bold" font-size="9.00">Obesity I</text>
<polygon fill="none" stroke="black" points="343,-341 343,-402 483.25,-402 483.25,-341 343,-341"/>
</g>
<!-- n_0_1_2_3_4_5_6&#45;&gt;n_0_2_3_4_5_6 -->
<g id="edge1" class="edge">
<title>n_0_1_2_3_4_5_6&#45;&gt;n_0_2_3_4_5_6</title>
<path fill="none" stroke="black" d="M459.34,-449.19C452.78,-438.31 445.58,-426.36 438.86,-415.21"/>
<polygon fill="black" stroke="black" points="442.04,-413.71 433.88,-406.95 436.05,-417.32 442.04,-413.71"/>
</g>
<!-- n_1 -->
<g id="node13" class="node">
<title>n_1</title>
<polygon fill="none" stroke="black" points="529.12,-358.88 529.12,-384.12 573.12,-384.12 573.12,-358.88 529.12,-358.88"/>
<text text-anchor="start" x="536.12" y="-369.57" font-family="Times New Roman,serif" font-weight="bold" font-size="9.00">Normal</text>
<polygon fill="none" stroke="black" points="528.12,-357.88 528.12,-385.12 574.12,-385.12 574.12,-357.88 528.12,-357.88"/>
</g>
<!-- n_0_1_2_3_4_5_6&#45;&gt;n_1 -->
<g id="edge12" class="edge">
<title>n_0_1_2_3_4_5_6&#45;&gt;n_1</title>
<path fill="none" stroke="black" d="M504.91,-449.19C514.8,-432.78 526.14,-413.96 535.12,-399.07"/>
<polygon fill="black" stroke="black" points="537.96,-401.13 540.12,-390.76 531.96,-397.52 537.96,-401.13"/>
</g>
<!-- n_0_2_3_5_6 -->
<g id="node3" class="node">
<title>n_0_2_3_5_6</title>
<polygon fill="none" stroke="black" points="262.5,-248 262.5,-289 350.75,-289 350.75,-248 262.5,-248"/>
<text text-anchor="start" x="269.5" y="-274.45" font-family="Times New Roman,serif" font-weight="bold" font-size="9.00">Insufficient weight</text>
<text text-anchor="start" x="279.62" y="-265.45" font-family="Times New Roman,serif" font-weight="bold" font-size="9.00">Overweight II</text>
<text text-anchor="start" x="287.12" y="-256.45" font-family="Times New Roman,serif" font-weight="bold" font-size="9.00">Obesity II</text>
<polygon fill="none" stroke="black" points="350.75,-248 350.75,-289 415.75,-289 415.75,-248 350.75,-248"/>
<text text-anchor="start" x="357.75" y="-269.95" font-family="Times New Roman,serif" font-weight="bold" font-size="9.00">Overweight I</text>
<text text-anchor="start" x="362.25" y="-260.95" font-family="Times New Roman,serif" font-weight="bold" font-size="9.00">Obesity III</text>
<polygon fill="none" stroke="black" points="261.5,-247 261.5,-290 416.75,-290 416.75,-247 261.5,-247"/>
</g>
<!-- n_0_2_3_4_5_6&#45;&gt;n_0_2_3_5_6 -->
<g id="edge2" class="edge">
<title>n_0_2_3_4_5_6&#45;&gt;n_0_2_3_5_6</title>
<path fill="none" stroke="black" d="M388.69,-337.15C380.68,-326.22 371.78,-314.07 363.75,-303.12"/>
<polygon fill="black" stroke="black" points="366.6,-301.08 357.87,-295.08 360.95,-305.22 366.6,-301.08"/>
</g>
<!-- n_4 -->
<g id="node12" class="node">
<title>n_4</title>
<polygon fill="none" stroke="black" points="463.12,-255.88 463.12,-281.12 513.12,-281.12 513.12,-255.88 463.12,-255.88"/>
<text text-anchor="start" x="470.12" y="-266.57" font-family="Times New Roman,serif" font-weight="bold" font-size="9.00">Obesity I</text>
<polygon fill="none" stroke="black" points="462.12,-254.88 462.12,-282.12 514.12,-282.12 514.12,-254.88 462.12,-254.88"/>
</g>
<!-- n_0_2_3_4_5_6&#45;&gt;n_4 -->
<g id="edge11" class="edge">
<title>n_0_2_3_4_5_6&#45;&gt;n_4</title>
<path fill="none" stroke="black" d="M437.89,-337.15C447.95,-323.6 459.41,-308.17 468.83,-295.48"/>
<polygon fill="black" stroke="black" points="471.54,-297.71 474.69,-287.6 465.92,-293.54 471.54,-297.71"/>
</g>
<!-- n_0_3_5 -->
<g id="node4" class="node">
<title>n_0_3_5</title>
<polygon fill="none" stroke="black" points="168,-163 168,-195 256.25,-195 256.25,-163 168,-163"/>
<text text-anchor="start" x="175" y="-180.45" font-family="Times New Roman,serif" font-weight="bold" font-size="9.00">Insufficient weight</text>
<text text-anchor="start" x="192.62" y="-171.45" font-family="Times New Roman,serif" font-weight="bold" font-size="9.00">Obesity II</text>
<polygon fill="none" stroke="black" points="256.25,-163 256.25,-195 324.25,-195 324.25,-163 256.25,-163"/>
<text text-anchor="start" x="263.25" y="-177.07" font-family="Times New Roman,serif" font-weight="bold" font-size="9.00">Overweight II</text>
<polygon fill="none" stroke="black" points="167,-162 167,-196 325.25,-196 325.25,-162 167,-162"/>
</g>
<!-- n_0_2_3_5_6&#45;&gt;n_0_3_5 -->
<g id="edge3" class="edge">
<title>n_0_2_3_5_6&#45;&gt;n_0_3_5</title>
<path fill="none" stroke="black" d="M313.22,-243.13C301.43,-232.03 287.42,-218.86 275.27,-207.42"/>
<polygon fill="black" stroke="black" points="277.98,-205.17 268.3,-200.86 273.18,-210.26 277.98,-205.17"/>
</g>
<!-- n_2_6 -->
<g id="node9" class="node">
<title>n_2_6</title>
<polygon fill="none" stroke="black" points="371.62,-166.38 371.62,-191.62 436.62,-191.62 436.62,-166.38 371.62,-166.38"/>
<text text-anchor="start" x="378.62" y="-177.07" font-family="Times New Roman,serif" font-weight="bold" font-size="9.00">Overweight I</text>
<polygon fill="none" stroke="black" points="436.62,-166.38 436.62,-191.62 492.62,-191.62 492.62,-166.38 436.62,-166.38"/>
<text text-anchor="start" x="443.62" y="-177.07" font-family="Times New Roman,serif" font-weight="bold" font-size="9.00">Obesity III</text>
<polygon fill="none" stroke="black" points="370.62,-165.38 370.62,-192.62 493.62,-192.62 493.62,-165.38 370.62,-165.38"/>
</g>
<!-- n_0_2_3_5_6&#45;&gt;n_2_6 -->
<g id="edge8" class="edge">
<title>n_0_2_3_5_6&#45;&gt;n_2_6</title>
<path fill="none" stroke="black" d="M365.03,-243.13C377.9,-231.01 393.42,-216.42 406.28,-204.31"/>
<polygon fill="black" stroke="black" points="408.31,-207.21 413.2,-197.81 403.52,-202.11 408.31,-207.21"/>
</g>
<!-- n_0_5 -->
<g id="node5" class="node">
<title>n_0_5</title>
<polygon fill="none" stroke="black" points="41.5,-84.38 41.5,-109.62 129.75,-109.62 129.75,-84.38 41.5,-84.38"/>
<text text-anchor="start" x="48.5" y="-95.08" font-family="Times New Roman,serif" font-weight="bold" font-size="9.00">Insufficient weight</text>
<polygon fill="none" stroke="black" points="129.75,-84.38 129.75,-109.62 182.75,-109.62 182.75,-84.38 129.75,-84.38"/>
<text text-anchor="start" x="136.75" y="-95.08" font-family="Times New Roman,serif" font-weight="bold" font-size="9.00">Obesity II</text>
<polygon fill="none" stroke="black" points="40.5,-83.38 40.5,-110.62 183.75,-110.62 183.75,-83.38 40.5,-83.38"/>
</g>
<!-- n_0_3_5&#45;&gt;n_0_5 -->
<g id="edge4" class="edge">
<title>n_0_3_5&#45;&gt;n_0_5</title>
<path fill="none" stroke="black" d="M212.66,-158.02C193.65,-146.67 169.78,-132.42 150.07,-120.66"/>
<polygon fill="black" stroke="black" points="151.88,-117.66 141.49,-115.53 148.29,-123.67 151.88,-117.66"/>
</g>
<!-- n_3 -->
<g id="node8" class="node">
<title>n_3</title>
<polygon fill="none" stroke="black" points="230.12,-84.38 230.12,-109.62 298.12,-109.62 298.12,-84.38 230.12,-84.38"/>
<text text-anchor="start" x="237.12" y="-95.08" font-family="Times New Roman,serif" font-weight="bold" font-size="9.00">Overweight II</text>
<polygon fill="none" stroke="black" points="229.12,-83.38 229.12,-110.62 299.12,-110.62 299.12,-83.38 229.12,-83.38"/>
</g>
<!-- n_0_3_5&#45;&gt;n_3 -->
<g id="edge7" class="edge">
<title>n_0_3_5&#45;&gt;n_3</title>
<path fill="none" stroke="black" d="M250.57,-158.22C252.78,-148.44 255.47,-136.46 257.88,-125.77"/>
<polygon fill="black" stroke="black" points="261.22,-126.84 260,-116.32 254.39,-125.31 261.22,-126.84"/>
</g>
<!-- n_0 -->
<g id="node6" class="node">
<title>n_0</title>
<polygon fill="none" stroke="black" points="9,-5.38 9,-30.62 97.25,-30.62 97.25,-5.38 9,-5.38"/>
<text text-anchor="start" x="16" y="-16.07" font-family="Times New Roman,serif" font-weight="bold" font-size="9.00">Insufficient weight</text>
<polygon fill="none" stroke="black" points="8,-4.38 8,-31.62 98.25,-31.62 98.25,-4.38 8,-4.38"/>
</g>
<!-- n_0_5&#45;&gt;n_0 -->
<g id="edge5" class="edge">
<title>n_0_5&#45;&gt;n_0</title>
<path fill="none" stroke="black" d="M99.32,-79.29C91.64,-69.27 81.72,-56.31 73.03,-44.98"/>
<polygon fill="black" stroke="black" points="75.89,-42.95 67.03,-37.14 70.33,-47.21 75.89,-42.95"/>
</g>
<!-- n_5 -->
<g id="node7" class="node">
<title>n_5</title>
<polygon fill="none" stroke="black" points="144.62,-5.38 144.62,-30.62 197.62,-30.62 197.62,-5.38 144.62,-5.38"/>
<text text-anchor="start" x="151.62" y="-16.07" font-family="Times New Roman,serif" font-weight="bold" font-size="9.00">Obesity II</text>
<polygon fill="none" stroke="black" points="143.62,-4.38 143.62,-31.62 198.62,-31.62 198.62,-4.38 143.62,-4.38"/>
</g>
<!-- n_0_5&#45;&gt;n_5 -->
<g id="edge6" class="edge">
<title>n_0_5&#45;&gt;n_5</title>
<path fill="none" stroke="black" d="M124.93,-79.29C132.61,-69.27 142.53,-56.31 151.22,-44.98"/>
<polygon fill="black" stroke="black" points="153.92,-47.21 157.22,-37.14 148.36,-42.95 153.92,-47.21"/>
</g>
<!-- n_2 -->
<g id="node10" class="node">
<title>n_2</title>
<polygon fill="none" stroke="black" points="381.62,-84.38 381.62,-109.62 446.62,-109.62 446.62,-84.38 381.62,-84.38"/>
<text text-anchor="start" x="388.62" y="-95.08" font-family="Times New Roman,serif" font-weight="bold" font-size="9.00">Overweight I</text>
<polygon fill="none" stroke="black" points="380.62,-83.38 380.62,-110.62 447.62,-110.62 447.62,-83.38 380.62,-83.38"/>
</g>
<!-- n_2_6&#45;&gt;n_2 -->
<g id="edge9" class="edge">
<title>n_2_6&#45;&gt;n_2</title>
<path fill="none" stroke="black" d="M428.31,-161.03C426.02,-150.85 423.05,-137.65 420.42,-125.96"/>
<polygon fill="black" stroke="black" points="423.88,-125.41 418.27,-116.42 417.05,-126.94 423.88,-125.41"/>
</g>
<!-- n_6 -->
<g id="node11" class="node">
<title>n_6</title>
<polygon fill="none" stroke="black" points="494.12,-84.38 494.12,-109.62 550.12,-109.62 550.12,-84.38 494.12,-84.38"/>
<text text-anchor="start" x="501.12" y="-95.08" font-family="Times New Roman,serif" font-weight="bold" font-size="9.00">Obesity III</text>
<polygon fill="none" stroke="black" points="493.12,-83.38 493.12,-110.62 551.12,-110.62 551.12,-83.38 493.12,-83.38"/>
</g>
<!-- n_2_6&#45;&gt;n_6 -->
<g id="edge10" class="edge">
<title>n_2_6&#45;&gt;n_6</title>
<path fill="none" stroke="black" d="M451.21,-161.03C463.86,-149.79 480.65,-134.87 494.72,-122.36"/>
<polygon fill="black" stroke="black" points="496.79,-125.21 501.93,-115.95 492.14,-119.97 496.79,-125.21"/>
</g>
</g>
</svg>
