<?xml version="1.0" encoding="UTF-8" standalone="no"?>
<!DOCTYPE svg PUBLIC "-//W3C//DTD SVG 1.1//EN"
 "http://www.w3.org/Graphics/SVG/1.1/DTD/svg11.dtd">
<!-- Generated by graphviz version 10.0.1 (20240210.2158)
 -->
<!-- Title: ND Pages: 1 -->
<svg width="566pt" height="638pt"
 viewBox="0.00 0.00 565.50 638.00" xmlns="http://www.w3.org/2000/svg" xmlns:xlink="http://www.w3.org/1999/xlink">
<g id="graph0" class="graph" transform="scale(1 1) rotate(0) translate(4 634)">
<title>ND</title>
<polygon fill="white" stroke="none" points="-4,4 -4,-634 561.5,-634 561.5,4 -4,4"/>
<!-- n_0_1_2_3_4_5_6 -->
<g id="node1" class="node">
<title>n_0_1_2_3_4_5_6</title>
<polygon fill="none" stroke="black" points="360.38,-557 360.38,-625 448.62,-625 448.62,-557 360.38,-557"/>
<text text-anchor="start" x="367.38" y="-610.45" font-family="Times New Roman,serif" font-weight="bold" font-size="9.00">Insufficient weight</text>
<text text-anchor="start" x="389.5" y="-601.45" font-family="Times New Roman,serif" font-weight="bold" font-size="9.00">Normal</text>
<text text-anchor="start" x="377.5" y="-592.45" font-family="Times New Roman,serif" font-weight="bold" font-size="9.00">Overweight II</text>
<text text-anchor="start" x="386.5" y="-583.45" font-family="Times New Roman,serif" font-weight="bold" font-size="9.00">Obesity I</text>
<text text-anchor="start" x="385" y="-574.45" font-family="Times New Roman,serif" font-weight="bold" font-size="9.00">Obesity II</text>
<text text-anchor="start" x="383.5" y="-565.45" font-family="Times New Roman,serif" font-weight="bold" font-size="9.00">Obesity III</text>
<polygon fill="none" stroke="black" points="448.62,-557 448.62,-625 513.62,-625 513.62,-557 448.62,-557"/>
<text text-anchor="start" x="455.62" y="-589.08" font-family="Times New Roman,serif" font-weight="bold" font-size="9.00">Overweight I</text>
<polygon fill="none" stroke="black" points="359.38,-556 359.38,-626 514.62,-626 514.62,-556 359.38,-556"/>
</g>
<!-- n_0_1_3_4_5_6 -->
<g id="node2" class="node">
<title>n_0_1_3_4_5_6</title>
<polygon fill="none" stroke="black" points="279.88,-445 279.88,-504 368.12,-504 368.12,-445 279.88,-445"/>
<text text-anchor="start" x="286.88" y="-489.45" font-family="Times New Roman,serif" font-weight="bold" font-size="9.00">Insufficient weight</text>
<text text-anchor="start" x="309" y="-480.45" font-family="Times New Roman,serif" font-weight="bold" font-size="9.00">Normal</text>
<text text-anchor="start" x="306" y="-471.45" font-family="Times New Roman,serif" font-weight="bold" font-size="9.00">Obesity I</text>
<text text-anchor="start" x="304.5" y="-462.45" font-family="Times New Roman,serif" font-weight="bold" font-size="9.00">Obesity II</text>
<text text-anchor="start" x="303" y="-453.45" font-family="Times New Roman,serif" font-weight="bold" font-size="9.00">Obesity III</text>
<polygon fill="none" stroke="black" points="368.12,-445 368.12,-504 436.12,-504 436.12,-445 368.12,-445"/>
<text text-anchor="start" x="375.12" y="-472.57" font-family="Times New Roman,serif" font-weight="bold" font-size="9.00">Overweight II</text>
<polygon fill="none" stroke="black" points="278.88,-444 278.88,-505 437.12,-505 437.12,-444 278.88,-444"/>
</g>
<!-- n_0_1_2_3_4_5_6&#45;&gt;n_0_1_3_4_5_6 -->
<g id="edge1" class="edge">
<title>n_0_1_2_3_4_5_6&#45;&gt;n_0_1_3_4_5_6</title>
<path fill="none" stroke="black" d="M410.91,-552.19C403.33,-541.2 395,-529.12 387.23,-517.87"/>
<polygon fill="black" stroke="black" points="390.29,-516.14 381.73,-509.9 384.53,-520.12 390.29,-516.14"/>
</g>
<!-- n_2 -->
<g id="node13" class="node">
<title>n_2</title>
<polygon fill="none" stroke="black" points="483.5,-461.88 483.5,-487.12 548.5,-487.12 548.5,-461.88 483.5,-461.88"/>
<text text-anchor="start" x="490.5" y="-472.57" font-family="Times New Roman,serif" font-weight="bold" font-size="9.00">Overweight I</text>
<polygon fill="none" stroke="black" points="482.5,-460.88 482.5,-488.12 549.5,-488.12 549.5,-460.88 482.5,-460.88"/>
</g>
<!-- n_0_1_2_3_4_5_6&#45;&gt;n_2 -->
<g id="edge12" class="edge">
<title>n_0_1_2_3_4_5_6&#45;&gt;n_2</title>
<path fill="none" stroke="black" d="M463.09,-552.19C474.52,-535.63 487.64,-516.6 497.97,-501.64"/>
<polygon fill="black" stroke="black" points="500.64,-503.93 503.44,-493.71 494.88,-499.95 500.64,-503.93"/>
</g>
<!-- n_0_1_4_5_6 -->
<g id="node3" class="node">
<title>n_0_1_4_5_6</title>
<polygon fill="none" stroke="black" points="209.88,-342 209.88,-392 298.12,-392 298.12,-342 209.88,-342"/>
<text text-anchor="start" x="216.88" y="-377.45" font-family="Times New Roman,serif" font-weight="bold" font-size="9.00">Insufficient weight</text>
<text text-anchor="start" x="239" y="-368.45" font-family="Times New Roman,serif" font-weight="bold" font-size="9.00">Normal</text>
<text text-anchor="start" x="236" y="-359.45" font-family="Times New Roman,serif" font-weight="bold" font-size="9.00">Obesity I</text>
<text text-anchor="start" x="234.5" y="-350.45" font-family="Times New Roman,serif" font-weight="bold" font-size="9.00">Obesity II</text>
<polygon fill="none" stroke="black" points="298.12,-342 298.12,-392 354.12,-392 354.12,-342 298.12,-342"/>
<text text-anchor="start" x="305.12" y="-365.07" font-family="Times New Roman,serif" font-weight="bold" font-size="9.00">Obesity III</text>
<polygon fill="none" stroke="black" points="208.88,-341 208.88,-393 355.12,-393 355.12,-341 208.88,-341"/>
</g>
<!-- n_0_1_3_4_5_6&#45;&gt;n_0_1_4_5_6 -->
<g id="edge2" class="edge">
<title>n_0_1_3_4_5_6&#45;&gt;n_0_1_4_5_6</title>
<path fill="none" stroke="black" d="M333.95,-440.12C326.14,-429.27 317.41,-417.16 309.37,-406"/>
<polygon fill="black" stroke="black" points="312.39,-404.19 303.7,-398.13 306.71,-408.29 312.39,-404.19"/>
</g>
<!-- n_3 -->
<g id="node12" class="node">
<title>n_3</title>
<polygon fill="none" stroke="black" points="401,-354.38 401,-379.62 469,-379.62 469,-354.38 401,-354.38"/>
<text text-anchor="start" x="408" y="-365.07" font-family="Times New Roman,serif" font-weight="bold" font-size="9.00">Overweight II</text>
<polygon fill="none" stroke="black" points="400,-353.38 400,-380.62 470,-380.62 470,-353.38 400,-353.38"/>
</g>
<!-- n_0_1_3_4_5_6&#45;&gt;n_3 -->
<g id="edge11" class="edge">
<title>n_0_1_3_4_5_6&#45;&gt;n_3</title>
<path fill="none" stroke="black" d="M382.36,-440.12C393.25,-425.21 405.88,-407.9 416.04,-393.98"/>
<polygon fill="black" stroke="black" points="418.67,-396.31 421.74,-386.17 413.01,-392.19 418.67,-396.31"/>
</g>
<!-- n_0_1_4_5 -->
<g id="node4" class="node">
<title>n_0_1_4_5</title>
<polygon fill="none" stroke="black" points="138.38,-248 138.38,-289 191.38,-289 191.38,-248 138.38,-248"/>
<text text-anchor="start" x="149.88" y="-274.45" font-family="Times New Roman,serif" font-weight="bold" font-size="9.00">Normal</text>
<text text-anchor="start" x="146.88" y="-265.45" font-family="Times New Roman,serif" font-weight="bold" font-size="9.00">Obesity I</text>
<text text-anchor="start" x="145.38" y="-256.45" font-family="Times New Roman,serif" font-weight="bold" font-size="9.00">Obesity II</text>
<polygon fill="none" stroke="black" points="191.38,-248 191.38,-289 279.62,-289 279.62,-248 191.38,-248"/>
<text text-anchor="start" x="198.38" y="-266.57" font-family="Times New Roman,serif" font-weight="bold" font-size="9.00">Insufficient weight</text>
<polygon fill="none" stroke="black" points="137.38,-247 137.38,-290 280.62,-290 280.62,-247 137.38,-247"/>
</g>
<!-- n_0_1_4_5_6&#45;&gt;n_0_1_4_5 -->
<g id="edge3" class="edge">
<title>n_0_1_4_5_6&#45;&gt;n_0_1_4_5</title>
<path fill="none" stroke="black" d="M260.1,-337.05C251.96,-326.29 242.66,-314 234.25,-302.88"/>
<polygon fill="black" stroke="black" points="237.18,-300.95 228.35,-295.08 231.59,-305.17 237.18,-300.95"/>
</g>
<!-- n_6 -->
<g id="node11" class="node">
<title>n_6</title>
<polygon fill="none" stroke="black" points="327,-255.88 327,-281.12 383,-281.12 383,-255.88 327,-255.88"/>
<text text-anchor="start" x="334" y="-266.57" font-family="Times New Roman,serif" font-weight="bold" font-size="9.00">Obesity III</text>
<polygon fill="none" stroke="black" points="326,-254.88 326,-282.12 384,-282.12 384,-254.88 326,-254.88"/>
</g>
<!-- n_0_1_4_5_6&#45;&gt;n_6 -->
<g id="edge10" class="edge">
<title>n_0_1_4_5_6&#45;&gt;n_6</title>
<path fill="none" stroke="black" d="M303.9,-337.05C313.97,-323.73 325.82,-308.07 335.57,-295.19"/>
<polygon fill="black" stroke="black" points="338.09,-297.66 341.33,-287.57 332.5,-293.44 338.09,-297.66"/>
</g>
<!-- n_1_4_5 -->
<g id="node5" class="node">
<title>n_1_4_5</title>
<polygon fill="none" stroke="black" points="86.5,-163 86.5,-195 136.5,-195 136.5,-163 86.5,-163"/>
<text text-anchor="start" x="96.5" y="-180.45" font-family="Times New Roman,serif" font-weight="bold" font-size="9.00">Normal</text>
<text text-anchor="start" x="93.5" y="-171.45" font-family="Times New Roman,serif" font-weight="bold" font-size="9.00">Obesity I</text>
<polygon fill="none" stroke="black" points="136.5,-163 136.5,-195 189.5,-195 189.5,-163 136.5,-163"/>
<text text-anchor="start" x="143.5" y="-177.07" font-family="Times New Roman,serif" font-weight="bold" font-size="9.00">Obesity II</text>
<polygon fill="none" stroke="black" points="85.5,-162 85.5,-196 190.5,-196 190.5,-162 85.5,-162"/>
</g>
<!-- n_0_1_4_5&#45;&gt;n_1_4_5 -->
<g id="edge4" class="edge">
<title>n_0_1_4_5&#45;&gt;n_1_4_5</title>
<path fill="none" stroke="black" d="M189.22,-243.13C180.57,-232.46 170.35,-219.87 161.33,-208.75"/>
<polygon fill="black" stroke="black" points="164.06,-206.56 155.04,-201 158.62,-210.97 164.06,-206.56"/>
</g>
<!-- n_0 -->
<g id="node10" class="node">
<title>n_0</title>
<polygon fill="none" stroke="black" points="236.88,-166.38 236.88,-191.62 325.12,-191.62 325.12,-166.38 236.88,-166.38"/>
<text text-anchor="start" x="243.88" y="-177.07" font-family="Times New Roman,serif" font-weight="bold" font-size="9.00">Insufficient weight</text>
<polygon fill="none" stroke="black" points="235.88,-165.38 235.88,-192.62 326.12,-192.62 326.12,-165.38 235.88,-165.38"/>
</g>
<!-- n_0_1_4_5&#45;&gt;n_0 -->
<g id="edge9" class="edge">
<title>n_0_1_4_5&#45;&gt;n_0</title>
<path fill="none" stroke="black" d="M229.06,-243.13C238.74,-231.36 250.35,-217.25 260.13,-205.36"/>
<polygon fill="black" stroke="black" points="262.59,-207.89 266.24,-197.94 257.18,-203.44 262.59,-207.89"/>
</g>
<!-- n_1_4 -->
<g id="node6" class="node">
<title>n_1_4</title>
<polygon fill="none" stroke="black" points="31,-84.38 31,-109.62 75,-109.62 75,-84.38 31,-84.38"/>
<text text-anchor="start" x="38" y="-95.08" font-family="Times New Roman,serif" font-weight="bold" font-size="9.00">Normal</text>
<polygon fill="none" stroke="black" points="75,-84.38 75,-109.62 125,-109.62 125,-84.38 75,-84.38"/>
<text text-anchor="start" x="82" y="-95.08" font-family="Times New Roman,serif" font-weight="bold" font-size="9.00">Obesity I</text>
<polygon fill="none" stroke="black" points="30,-83.38 30,-110.62 126,-110.62 126,-83.38 30,-83.38"/>
</g>
<!-- n_1_4_5&#45;&gt;n_1_4 -->
<g id="edge5" class="edge">
<title>n_1_4_5&#45;&gt;n_1_4</title>
<path fill="none" stroke="black" d="M123.17,-158.22C115.36,-147.81 105.69,-134.92 97.31,-123.74"/>
<polygon fill="black" stroke="black" points="100.34,-121.95 91.54,-116.05 94.74,-126.15 100.34,-121.95"/>
</g>
<!-- n_5 -->
<g id="node9" class="node">
<title>n_5</title>
<polygon fill="none" stroke="black" points="172.5,-84.38 172.5,-109.62 225.5,-109.62 225.5,-84.38 172.5,-84.38"/>
<text text-anchor="start" x="179.5" y="-95.08" font-family="Times New Roman,serif" font-weight="bold" font-size="9.00">Obesity II</text>
<polygon fill="none" stroke="black" points="171.5,-83.38 171.5,-110.62 226.5,-110.62 226.5,-83.38 171.5,-83.38"/>
</g>
<!-- n_1_4_5&#45;&gt;n_5 -->
<g id="edge8" class="edge">
<title>n_1_4_5&#45;&gt;n_5</title>
<path fill="none" stroke="black" d="M153.08,-158.22C161.02,-147.81 170.85,-134.92 179.37,-123.74"/>
<polygon fill="black" stroke="black" points="181.96,-126.12 185.24,-116.05 176.39,-121.88 181.96,-126.12"/>
</g>
<!-- n_1 -->
<g id="node7" class="node">
<title>n_1</title>
<polygon fill="none" stroke="black" points="9,-5.38 9,-30.62 53,-30.62 53,-5.38 9,-5.38"/>
<text text-anchor="start" x="16" y="-16.07" font-family="Times New Roman,serif" font-weight="bold" font-size="9.00">Normal</text>
<polygon fill="none" stroke="black" points="8,-4.38 8,-31.62 54,-31.62 54,-4.38 8,-4.38"/>
</g>
<!-- n_1_4&#45;&gt;n_1 -->
<g id="edge6" class="edge">
<title>n_1_4&#45;&gt;n_1</title>
<path fill="none" stroke="black" d="M67.8,-79.29C61.81,-69.47 54.09,-56.83 47.27,-45.66"/>
<polygon fill="black" stroke="black" points="50.33,-43.95 42.13,-37.23 44.35,-47.59 50.33,-43.95"/>
</g>
<!-- n_4 -->
<g id="node8" class="node">
<title>n_4</title>
<polygon fill="none" stroke="black" points="100,-5.38 100,-30.62 150,-30.62 150,-5.38 100,-5.38"/>
<text text-anchor="start" x="107" y="-16.07" font-family="Times New Roman,serif" font-weight="bold" font-size="9.00">Obesity I</text>
<polygon fill="none" stroke="black" points="99,-4.38 99,-31.62 151,-31.62 151,-4.38 99,-4.38"/>
</g>
<!-- n_1_4&#45;&gt;n_4 -->
<g id="edge7" class="edge">
<title>n_1_4&#45;&gt;n_4</title>
<path fill="none" stroke="black" d="M88.2,-79.29C94.19,-69.47 101.91,-56.83 108.73,-45.66"/>
<polygon fill="black" stroke="black" points="111.65,-47.59 113.87,-37.23 105.67,-43.95 111.65,-47.59"/>
</g>
</g>
</svg>
