<?xml version="1.0" encoding="UTF-8" standalone="no"?>
<!DOCTYPE svg PUBLIC "-//W3C//DTD SVG 1.1//EN"
 "http://www.w3.org/Graphics/SVG/1.1/DTD/svg11.dtd">
<!-- Generated by graphviz version 10.0.1 (20240210.2158)
 -->
<!-- Title: ND Pages: 1 -->
<svg width="562pt" height="423pt"
 viewBox="0.00 0.00 561.62 423.00" xmlns="http://www.w3.org/2000/svg" xmlns:xlink="http://www.w3.org/1999/xlink">
<g id="graph0" class="graph" transform="scale(1 1) rotate(0) translate(4 419)">
<title>ND</title>
<polygon fill="white" stroke="none" points="-4,4 -4,-419 557.62,-419 557.62,4 -4,4"/>
<!-- n_0_1_2_3_4_5_6 -->
<g id="node1" class="node">
<title>n_0_1_2_3_4_5_6</title>
<polygon fill="none" stroke="black" points="323.5,-342 323.5,-410 411.75,-410 411.75,-342 323.5,-342"/>
<text text-anchor="start" x="330.5" y="-395.45" font-family="Times New Roman,serif" font-weight="bold" font-size="9.00">Insufficient weight</text>
<text text-anchor="start" x="352.62" y="-386.45" font-family="Times New Roman,serif" font-weight="bold" font-size="9.00">Normal</text>
<text text-anchor="start" x="342.12" y="-377.45" font-family="Times New Roman,serif" font-weight="bold" font-size="9.00">Overweight I</text>
<text text-anchor="start" x="340.62" y="-368.45" font-family="Times New Roman,serif" font-weight="bold" font-size="9.00">Overweight II</text>
<text text-anchor="start" x="348.12" y="-359.45" font-family="Times New Roman,serif" font-weight="bold" font-size="9.00">Obesity II</text>
<text text-anchor="start" x="346.62" y="-350.45" font-family="Times New Roman,serif" font-weight="bold" font-size="9.00">Obesity III</text>
<polygon fill="none" stroke="black" points="411.75,-342 411.75,-410 461.75,-410 461.75,-342 411.75,-342"/>
<text text-anchor="start" x="418.75" y="-374.07" font-family="Times New Roman,serif" font-weight="bold" font-size="9.00">Obesity I</text>
<polygon fill="none" stroke="black" points="322.5,-341 322.5,-411 462.75,-411 462.75,-341 322.5,-341"/>
</g>
<!-- n_0_1_2_3_5_6 -->
<g id="node2" class="node">
<title>n_0_1_2_3_5_6</title>
<polygon fill="none" stroke="black" points="248.5,-248 248.5,-289 336.75,-289 336.75,-248 248.5,-248"/>
<text text-anchor="start" x="255.5" y="-274.45" font-family="Times New Roman,serif" font-weight="bold" font-size="9.00">Insufficient weight</text>
<text text-anchor="start" x="267.12" y="-265.45" font-family="Times New Roman,serif" font-weight="bold" font-size="9.00">Overweight I</text>
<text text-anchor="start" x="265.62" y="-256.45" font-family="Times New Roman,serif" font-weight="bold" font-size="9.00">Overweight II</text>
<polygon fill="none" stroke="black" points="336.75,-248 336.75,-289 392.75,-289 392.75,-248 336.75,-248"/>
<text text-anchor="start" x="349.75" y="-274.45" font-family="Times New Roman,serif" font-weight="bold" font-size="9.00">Normal</text>
<text text-anchor="start" x="345.25" y="-265.45" font-family="Times New Roman,serif" font-weight="bold" font-size="9.00">Obesity II</text>
<text text-anchor="start" x="343.75" y="-256.45" font-family="Times New Roman,serif" font-weight="bold" font-size="9.00">Obesity III</text>
<polygon fill="none" stroke="black" points="247.5,-247 247.5,-290 393.75,-290 393.75,-247 247.5,-247"/>
</g>
<!-- n_0_1_2_3_4_5_6&#45;&gt;n_0_1_2_3_5_6 -->
<g id="edge1" class="edge">
<title>n_0_1_2_3_4_5_6&#45;&gt;n_0_1_2_3_5_6</title>
<path fill="none" stroke="black" d="M366.83,-337.21C359.3,-326.16 351.11,-314.17 343.75,-303.38"/>
<polygon fill="black" stroke="black" points="346.64,-301.41 338.11,-295.13 340.86,-305.36 346.64,-301.41"/>
</g>
<!-- n_4 -->
<g id="node13" class="node">
<title>n_4</title>
<polygon fill="none" stroke="black" points="439.62,-255.88 439.62,-281.12 489.62,-281.12 489.62,-255.88 439.62,-255.88"/>
<text text-anchor="start" x="446.62" y="-266.57" font-family="Times New Roman,serif" font-weight="bold" font-size="9.00">Obesity I</text>
<polygon fill="none" stroke="black" points="438.62,-254.88 438.62,-282.12 490.62,-282.12 490.62,-254.88 438.62,-254.88"/>
</g>
<!-- n_0_1_2_3_4_5_6&#45;&gt;n_4 -->
<g id="edge12" class="edge">
<title>n_0_1_2_3_4_5_6&#45;&gt;n_4</title>
<path fill="none" stroke="black" d="M418.42,-337.21C427.78,-323.49 438.14,-308.31 446.68,-295.8"/>
<polygon fill="black" stroke="black" points="449.48,-297.9 452.23,-287.67 443.7,-293.96 449.48,-297.9"/>
</g>
<!-- n_0_2_3 -->
<g id="node3" class="node">
<title>n_0_2_3</title>
<polygon fill="none" stroke="black" points="155.5,-163 155.5,-195 243.75,-195 243.75,-163 155.5,-163"/>
<text text-anchor="start" x="162.5" y="-180.45" font-family="Times New Roman,serif" font-weight="bold" font-size="9.00">Insufficient weight</text>
<text text-anchor="start" x="174.12" y="-171.45" font-family="Times New Roman,serif" font-weight="bold" font-size="9.00">Overweight I</text>
<polygon fill="none" stroke="black" points="243.75,-163 243.75,-195 311.75,-195 311.75,-163 243.75,-163"/>
<text text-anchor="start" x="250.75" y="-177.07" font-family="Times New Roman,serif" font-weight="bold" font-size="9.00">Overweight II</text>
<polygon fill="none" stroke="black" points="154.5,-162 154.5,-196 312.75,-196 312.75,-162 154.5,-162"/>
</g>
<!-- n_0_1_2_3_5_6&#45;&gt;n_0_2_3 -->
<g id="edge2" class="edge">
<title>n_0_1_2_3_5_6&#45;&gt;n_0_2_3</title>
<path fill="none" stroke="black" d="M296.39,-243.13C285.47,-232.14 272.51,-219.11 261.22,-207.75"/>
<polygon fill="black" stroke="black" points="263.94,-205.52 254.4,-200.9 258.97,-210.46 263.94,-205.52"/>
</g>
<!-- n_1_5_6 -->
<g id="node8" class="node">
<title>n_1_5_6</title>
<polygon fill="none" stroke="black" points="358.62,-163 358.62,-195 414.62,-195 414.62,-163 358.62,-163"/>
<text text-anchor="start" x="367.12" y="-180.45" font-family="Times New Roman,serif" font-weight="bold" font-size="9.00">Obesity II</text>
<text text-anchor="start" x="365.62" y="-171.45" font-family="Times New Roman,serif" font-weight="bold" font-size="9.00">Obesity III</text>
<polygon fill="none" stroke="black" points="414.62,-163 414.62,-195 458.62,-195 458.62,-163 414.62,-163"/>
<text text-anchor="start" x="421.62" y="-177.07" font-family="Times New Roman,serif" font-weight="bold" font-size="9.00">Normal</text>
<polygon fill="none" stroke="black" points="357.62,-162 357.62,-196 459.62,-196 459.62,-162 357.62,-162"/>
</g>
<!-- n_0_1_2_3_5_6&#45;&gt;n_1_5_6 -->
<g id="edge7" class="edge">
<title>n_0_1_2_3_5_6&#45;&gt;n_1_5_6</title>
<path fill="none" stroke="black" d="M345.14,-243.13C356.19,-232.14 369.29,-219.11 380.72,-207.75"/>
<polygon fill="black" stroke="black" points="382.99,-210.43 387.61,-200.89 378.05,-205.46 382.99,-210.43"/>
</g>
<!-- n_0_2 -->
<g id="node4" class="node">
<title>n_0_2</title>
<polygon fill="none" stroke="black" points="9,-84.38 9,-109.62 97.25,-109.62 97.25,-84.38 9,-84.38"/>
<text text-anchor="start" x="16" y="-95.08" font-family="Times New Roman,serif" font-weight="bold" font-size="9.00">Insufficient weight</text>
<polygon fill="none" stroke="black" points="97.25,-84.38 97.25,-109.62 162.25,-109.62 162.25,-84.38 97.25,-84.38"/>
<text text-anchor="start" x="104.25" y="-95.08" font-family="Times New Roman,serif" font-weight="bold" font-size="9.00">Overweight I</text>
<polygon fill="none" stroke="black" points="8,-83.38 8,-110.62 163.25,-110.62 163.25,-83.38 8,-83.38"/>
</g>
<!-- n_0_2_3&#45;&gt;n_0_2 -->
<g id="edge3" class="edge">
<title>n_0_2_3&#45;&gt;n_0_2</title>
<path fill="none" stroke="black" d="M196.66,-158.02C175.37,-146.51 148.58,-132.03 126.64,-120.17"/>
<polygon fill="black" stroke="black" points="128.42,-117.15 117.96,-115.48 125.09,-123.31 128.42,-117.15"/>
</g>
<!-- n_3 -->
<g id="node7" class="node">
<title>n_3</title>
<polygon fill="none" stroke="black" points="209.62,-84.38 209.62,-109.62 277.62,-109.62 277.62,-84.38 209.62,-84.38"/>
<text text-anchor="start" x="216.62" y="-95.08" font-family="Times New Roman,serif" font-weight="bold" font-size="9.00">Overweight II</text>
<polygon fill="none" stroke="black" points="208.62,-83.38 208.62,-110.62 278.62,-110.62 278.62,-83.38 208.62,-83.38"/>
</g>
<!-- n_0_2_3&#45;&gt;n_3 -->
<g id="edge6" class="edge">
<title>n_0_2_3&#45;&gt;n_3</title>
<path fill="none" stroke="black" d="M236.1,-158.22C237.31,-148.54 238.79,-136.72 240.11,-126.11"/>
<polygon fill="black" stroke="black" points="243.56,-126.7 241.33,-116.35 236.62,-125.83 243.56,-126.7"/>
</g>
<!-- n_0 -->
<g id="node5" class="node">
<title>n_0</title>
<polygon fill="none" stroke="black" points="22.5,-5.38 22.5,-30.62 110.75,-30.62 110.75,-5.38 22.5,-5.38"/>
<text text-anchor="start" x="29.5" y="-16.07" font-family="Times New Roman,serif" font-weight="bold" font-size="9.00">Insufficient weight</text>
<polygon fill="none" stroke="black" points="21.5,-4.38 21.5,-31.62 111.75,-31.62 111.75,-4.38 21.5,-4.38"/>
</g>
<!-- n_0_2&#45;&gt;n_0 -->
<g id="edge4" class="edge">
<title>n_0_2&#45;&gt;n_0</title>
<path fill="none" stroke="black" d="M81.5,-79.29C79.18,-69.87 76.21,-57.86 73.54,-47.04"/>
<polygon fill="black" stroke="black" points="76.96,-46.28 71.17,-37.41 70.17,-47.96 76.96,-46.28"/>
</g>
<!-- n_2 -->
<g id="node6" class="node">
<title>n_2</title>
<polygon fill="none" stroke="black" points="158.12,-5.38 158.12,-30.62 223.12,-30.62 223.12,-5.38 158.12,-5.38"/>
<text text-anchor="start" x="165.12" y="-16.07" font-family="Times New Roman,serif" font-weight="bold" font-size="9.00">Overweight I</text>
<polygon fill="none" stroke="black" points="157.12,-4.38 157.12,-31.62 224.12,-31.62 224.12,-4.38 157.12,-4.38"/>
</g>
<!-- n_0_2&#45;&gt;n_2 -->
<g id="edge5" class="edge">
<title>n_0_2&#45;&gt;n_2</title>
<path fill="none" stroke="black" d="M108.67,-79.1C123.3,-68.37 142.45,-54.33 158.56,-42.51"/>
<polygon fill="black" stroke="black" points="160.42,-45.49 166.42,-36.75 156.28,-39.84 160.42,-45.49"/>
</g>
<!-- n_5_6 -->
<g id="node9" class="node">
<title>n_5_6</title>
<polygon fill="none" stroke="black" points="344.12,-84.38 344.12,-109.62 397.12,-109.62 397.12,-84.38 344.12,-84.38"/>
<text text-anchor="start" x="351.12" y="-95.08" font-family="Times New Roman,serif" font-weight="bold" font-size="9.00">Obesity II</text>
<polygon fill="none" stroke="black" points="397.12,-84.38 397.12,-109.62 453.12,-109.62 453.12,-84.38 397.12,-84.38"/>
<text text-anchor="start" x="404.12" y="-95.08" font-family="Times New Roman,serif" font-weight="bold" font-size="9.00">Obesity III</text>
<polygon fill="none" stroke="black" points="343.12,-83.38 343.12,-110.62 454.12,-110.62 454.12,-83.38 343.12,-83.38"/>
</g>
<!-- n_1_5_6&#45;&gt;n_5_6 -->
<g id="edge8" class="edge">
<title>n_1_5_6&#45;&gt;n_5_6</title>
<path fill="none" stroke="black" d="M406.15,-158.22C404.94,-148.54 403.46,-136.72 402.14,-126.11"/>
<polygon fill="black" stroke="black" points="405.63,-125.83 400.92,-116.35 398.69,-126.7 405.63,-125.83"/>
</g>
<!-- n_1 -->
<g id="node12" class="node">
<title>n_1</title>
<polygon fill="none" stroke="black" points="500.62,-84.38 500.62,-109.62 544.62,-109.62 544.62,-84.38 500.62,-84.38"/>
<text text-anchor="start" x="507.62" y="-95.08" font-family="Times New Roman,serif" font-weight="bold" font-size="9.00">Normal</text>
<polygon fill="none" stroke="black" points="499.62,-83.38 499.62,-110.62 545.62,-110.62 545.62,-83.38 499.62,-83.38"/>
</g>
<!-- n_1_5_6&#45;&gt;n_1 -->
<g id="edge11" class="edge">
<title>n_1_5_6&#45;&gt;n_1</title>
<path fill="none" stroke="black" d="M437.1,-158.02C452.98,-146.88 472.83,-132.94 489.41,-121.31"/>
<polygon fill="black" stroke="black" points="491.33,-124.24 497.51,-115.63 487.31,-118.51 491.33,-124.24"/>
</g>
<!-- n_5 -->
<g id="node10" class="node">
<title>n_5</title>
<polygon fill="none" stroke="black" points="311.12,-5.38 311.12,-30.62 364.12,-30.62 364.12,-5.38 311.12,-5.38"/>
<text text-anchor="start" x="318.12" y="-16.07" font-family="Times New Roman,serif" font-weight="bold" font-size="9.00">Obesity II</text>
<polygon fill="none" stroke="black" points="310.12,-4.38 310.12,-31.62 365.12,-31.62 365.12,-4.38 310.12,-4.38"/>
</g>
<!-- n_5_6&#45;&gt;n_5 -->
<g id="edge9" class="edge">
<title>n_5_6&#45;&gt;n_5</title>
<path fill="none" stroke="black" d="M385.39,-79.29C377.37,-69.17 366.98,-56.05 357.94,-44.64"/>
<polygon fill="black" stroke="black" points="360.94,-42.79 351.99,-37.13 355.45,-47.14 360.94,-42.79"/>
</g>
<!-- n_6 -->
<g id="node11" class="node">
<title>n_6</title>
<polygon fill="none" stroke="black" points="411.62,-5.38 411.62,-30.62 467.62,-30.62 467.62,-5.38 411.62,-5.38"/>
<text text-anchor="start" x="418.62" y="-16.07" font-family="Times New Roman,serif" font-weight="bold" font-size="9.00">Obesity III</text>
<polygon fill="none" stroke="black" points="410.62,-4.38 410.62,-31.62 468.62,-31.62 468.62,-4.38 410.62,-4.38"/>
</g>
<!-- n_5_6&#45;&gt;n_6 -->
<g id="edge10" class="edge">
<title>n_5_6&#45;&gt;n_6</title>
<path fill="none" stroke="black" d="M407.52,-79.29C412.7,-69.57 419.34,-57.09 425.25,-46"/>
<polygon fill="black" stroke="black" points="428.28,-47.75 429.89,-37.28 422.1,-44.46 428.28,-47.75"/>
</g>
</g>
</svg>
