<?xml version="1.0" encoding="UTF-8" standalone="no"?>
<!DOCTYPE svg PUBLIC "-//W3C//DTD SVG 1.1//EN"
 "http://www.w3.org/Graphics/SVG/1.1/DTD/svg11.dtd">
<!-- Generated by graphviz version 10.0.1 (20240210.2158)
 -->
<!-- Title: ND Pages: 1 -->
<svg width="544pt" height="535pt"
 viewBox="0.00 0.00 543.50 535.00" xmlns="http://www.w3.org/2000/svg" xmlns:xlink="http://www.w3.org/1999/xlink">
<g id="graph0" class="graph" transform="scale(1 1) rotate(0) translate(4 531)">
<title>ND</title>
<polygon fill="white" stroke="none" points="-4,4 -4,-531 539.5,-531 539.5,4 -4,4"/>
<!-- n_0_1_2_3_4_5_6 -->
<g id="node1" class="node">
<title>n_0_1_2_3_4_5_6</title>
<polygon fill="none" stroke="black" points="354.38,-454 354.38,-522 442.62,-522 442.62,-454 354.38,-454"/>
<text text-anchor="start" x="361.38" y="-507.45" font-family="Times New Roman,serif" font-weight="bold" font-size="9.00">Insufficient weight</text>
<text text-anchor="start" x="383.5" y="-498.45" font-family="Times New Roman,serif" font-weight="bold" font-size="9.00">Normal</text>
<text text-anchor="start" x="373" y="-489.45" font-family="Times New Roman,serif" font-weight="bold" font-size="9.00">Overweight I</text>
<text text-anchor="start" x="371.5" y="-480.45" font-family="Times New Roman,serif" font-weight="bold" font-size="9.00">Overweight II</text>
<text text-anchor="start" x="380.5" y="-471.45" font-family="Times New Roman,serif" font-weight="bold" font-size="9.00">Obesity I</text>
<text text-anchor="start" x="377.5" y="-462.45" font-family="Times New Roman,serif" font-weight="bold" font-size="9.00">Obesity III</text>
<polygon fill="none" stroke="black" points="442.62,-454 442.62,-522 495.62,-522 495.62,-454 442.62,-454"/>
<text text-anchor="start" x="449.62" y="-486.07" font-family="Times New Roman,serif" font-weight="bold" font-size="9.00">Obesity II</text>
<polygon fill="none" stroke="black" points="353.38,-453 353.38,-523 496.62,-523 496.62,-453 353.38,-453"/>
</g>
<!-- n_0_1_2_3_4_6 -->
<g id="node2" class="node">
<title>n_0_1_2_3_4_6</title>
<polygon fill="none" stroke="black" points="273.38,-342 273.38,-401 361.62,-401 361.62,-342 273.38,-342"/>
<text text-anchor="start" x="280.38" y="-386.45" font-family="Times New Roman,serif" font-weight="bold" font-size="9.00">Insufficient weight</text>
<text text-anchor="start" x="302.5" y="-377.45" font-family="Times New Roman,serif" font-weight="bold" font-size="9.00">Normal</text>
<text text-anchor="start" x="290.5" y="-368.45" font-family="Times New Roman,serif" font-weight="bold" font-size="9.00">Overweight II</text>
<text text-anchor="start" x="299.5" y="-359.45" font-family="Times New Roman,serif" font-weight="bold" font-size="9.00">Obesity I</text>
<text text-anchor="start" x="296.5" y="-350.45" font-family="Times New Roman,serif" font-weight="bold" font-size="9.00">Obesity III</text>
<polygon fill="none" stroke="black" points="361.62,-342 361.62,-401 426.62,-401 426.62,-342 361.62,-342"/>
<text text-anchor="start" x="368.62" y="-369.57" font-family="Times New Roman,serif" font-weight="bold" font-size="9.00">Overweight I</text>
<polygon fill="none" stroke="black" points="272.38,-341 272.38,-402 427.62,-402 427.62,-341 272.38,-341"/>
</g>
<!-- n_0_1_2_3_4_5_6&#45;&gt;n_0_1_2_3_4_6 -->
<g id="edge1" class="edge">
<title>n_0_1_2_3_4_5_6&#45;&gt;n_0_1_2_3_4_6</title>
<path fill="none" stroke="black" d="M400.23,-449.19C393.11,-438.31 385.28,-426.36 377.97,-415.21"/>
<polygon fill="black" stroke="black" points="380.95,-413.37 372.54,-406.92 375.1,-417.2 380.95,-413.37"/>
</g>
<!-- n_5 -->
<g id="node13" class="node">
<title>n_5</title>
<polygon fill="none" stroke="black" points="473.5,-358.88 473.5,-384.12 526.5,-384.12 526.5,-358.88 473.5,-358.88"/>
<text text-anchor="start" x="480.5" y="-369.57" font-family="Times New Roman,serif" font-weight="bold" font-size="9.00">Obesity II</text>
<polygon fill="none" stroke="black" points="472.5,-357.88 472.5,-385.12 527.5,-385.12 527.5,-357.88 472.5,-357.88"/>
</g>
<!-- n_0_1_2_3_4_5_6&#45;&gt;n_5 -->
<g id="edge12" class="edge">
<title>n_0_1_2_3_4_5_6&#45;&gt;n_5</title>
<path fill="none" stroke="black" d="M449.77,-449.19C460.51,-432.78 472.84,-413.96 482.6,-399.07"/>
<polygon fill="black" stroke="black" points="485.51,-401.01 488.06,-390.73 479.65,-397.18 485.51,-401.01"/>
</g>
<!-- n_0_1_3_4_6 -->
<g id="node3" class="node">
<title>n_0_1_3_4_6</title>
<polygon fill="none" stroke="black" points="201.88,-248 201.88,-289 257.88,-289 257.88,-248 201.88,-248"/>
<text text-anchor="start" x="214.88" y="-274.45" font-family="Times New Roman,serif" font-weight="bold" font-size="9.00">Normal</text>
<text text-anchor="start" x="211.88" y="-265.45" font-family="Times New Roman,serif" font-weight="bold" font-size="9.00">Obesity I</text>
<text text-anchor="start" x="208.88" y="-256.45" font-family="Times New Roman,serif" font-weight="bold" font-size="9.00">Obesity III</text>
<polygon fill="none" stroke="black" points="257.88,-248 257.88,-289 346.12,-289 346.12,-248 257.88,-248"/>
<text text-anchor="start" x="264.88" y="-269.95" font-family="Times New Roman,serif" font-weight="bold" font-size="9.00">Insufficient weight</text>
<text text-anchor="start" x="275" y="-260.95" font-family="Times New Roman,serif" font-weight="bold" font-size="9.00">Overweight II</text>
<polygon fill="none" stroke="black" points="200.88,-247 200.88,-290 347.12,-290 347.12,-247 200.88,-247"/>
</g>
<!-- n_0_1_2_3_4_6&#45;&gt;n_0_1_3_4_6 -->
<g id="edge2" class="edge">
<title>n_0_1_2_3_4_6&#45;&gt;n_0_1_3_4_6</title>
<path fill="none" stroke="black" d="M324.9,-337.15C316.59,-326.11 307.35,-313.82 299.05,-302.78"/>
<polygon fill="black" stroke="black" points="302.05,-300.96 293.24,-295.07 296.46,-305.16 302.05,-300.96"/>
</g>
<!-- n_2 -->
<g id="node12" class="node">
<title>n_2</title>
<polygon fill="none" stroke="black" points="393.5,-255.88 393.5,-281.12 458.5,-281.12 458.5,-255.88 393.5,-255.88"/>
<text text-anchor="start" x="400.5" y="-266.57" font-family="Times New Roman,serif" font-weight="bold" font-size="9.00">Overweight I</text>
<polygon fill="none" stroke="black" points="392.5,-254.88 392.5,-282.12 459.5,-282.12 459.5,-254.88 392.5,-254.88"/>
</g>
<!-- n_0_1_2_3_4_6&#45;&gt;n_2 -->
<g id="edge11" class="edge">
<title>n_0_1_2_3_4_6&#45;&gt;n_2</title>
<path fill="none" stroke="black" d="M375.1,-337.15C385.29,-323.6 396.9,-308.17 406.45,-295.48"/>
<polygon fill="black" stroke="black" points="409.17,-297.68 412.39,-287.59 403.58,-293.48 409.17,-297.68"/>
</g>
<!-- n_1_4_6 -->
<g id="node4" class="node">
<title>n_1_4_6</title>
<polygon fill="none" stroke="black" points="132,-163 132,-195 182,-195 182,-163 132,-163"/>
<text text-anchor="start" x="142" y="-180.45" font-family="Times New Roman,serif" font-weight="bold" font-size="9.00">Normal</text>
<text text-anchor="start" x="139" y="-171.45" font-family="Times New Roman,serif" font-weight="bold" font-size="9.00">Obesity I</text>
<polygon fill="none" stroke="black" points="182,-163 182,-195 238,-195 238,-163 182,-163"/>
<text text-anchor="start" x="189" y="-177.07" font-family="Times New Roman,serif" font-weight="bold" font-size="9.00">Obesity III</text>
<polygon fill="none" stroke="black" points="131,-162 131,-196 239,-196 239,-162 131,-162"/>
</g>
<!-- n_0_1_3_4_6&#45;&gt;n_1_4_6 -->
<g id="edge3" class="edge">
<title>n_0_1_3_4_6&#45;&gt;n_1_4_6</title>
<path fill="none" stroke="black" d="M249.21,-243.13C238.03,-232.14 224.78,-219.11 213.23,-207.75"/>
<polygon fill="black" stroke="black" points="215.83,-205.4 206.25,-200.89 210.92,-210.39 215.83,-205.4"/>
</g>
<!-- n_0_3 -->
<g id="node9" class="node">
<title>n_0_3</title>
<polygon fill="none" stroke="black" points="284.88,-166.38 284.88,-191.62 373.12,-191.62 373.12,-166.38 284.88,-166.38"/>
<text text-anchor="start" x="291.88" y="-177.07" font-family="Times New Roman,serif" font-weight="bold" font-size="9.00">Insufficient weight</text>
<polygon fill="none" stroke="black" points="373.12,-166.38 373.12,-191.62 441.12,-191.62 441.12,-166.38 373.12,-166.38"/>
<text text-anchor="start" x="380.12" y="-177.07" font-family="Times New Roman,serif" font-weight="bold" font-size="9.00">Overweight II</text>
<polygon fill="none" stroke="black" points="283.88,-165.38 283.88,-192.62 442.12,-192.62 442.12,-165.38 283.88,-165.38"/>
</g>
<!-- n_0_1_3_4_6&#45;&gt;n_0_3 -->
<g id="edge8" class="edge">
<title>n_0_1_3_4_6&#45;&gt;n_0_3</title>
<path fill="none" stroke="black" d="M298.79,-243.13C310.99,-231.13 325.67,-216.7 337.92,-204.66"/>
<polygon fill="black" stroke="black" points="340.19,-207.34 344.86,-197.83 335.28,-202.35 340.19,-207.34"/>
</g>
<!-- n_1_4 -->
<g id="node5" class="node">
<title>n_1_4</title>
<polygon fill="none" stroke="black" points="31,-84.38 31,-109.62 75,-109.62 75,-84.38 31,-84.38"/>
<text text-anchor="start" x="38" y="-95.08" font-family="Times New Roman,serif" font-weight="bold" font-size="9.00">Normal</text>
<polygon fill="none" stroke="black" points="75,-84.38 75,-109.62 125,-109.62 125,-84.38 75,-84.38"/>
<text text-anchor="start" x="82" y="-95.08" font-family="Times New Roman,serif" font-weight="bold" font-size="9.00">Obesity I</text>
<polygon fill="none" stroke="black" points="30,-83.38 30,-110.62 126,-110.62 126,-83.38 30,-83.38"/>
</g>
<!-- n_1_4_6&#45;&gt;n_1_4 -->
<g id="edge4" class="edge">
<title>n_1_4_6&#45;&gt;n_1_4</title>
<path fill="none" stroke="black" d="M158.28,-158.02C143.51,-146.98 125.08,-133.2 109.61,-121.63"/>
<polygon fill="black" stroke="black" points="111.73,-118.85 101.63,-115.66 107.54,-124.46 111.73,-118.85"/>
</g>
<!-- n_6 -->
<g id="node8" class="node">
<title>n_6</title>
<polygon fill="none" stroke="black" points="172,-84.38 172,-109.62 228,-109.62 228,-84.38 172,-84.38"/>
<text text-anchor="start" x="179" y="-95.08" font-family="Times New Roman,serif" font-weight="bold" font-size="9.00">Obesity III</text>
<polygon fill="none" stroke="black" points="171,-83.38 171,-110.62 229,-110.62 229,-83.38 171,-83.38"/>
</g>
<!-- n_1_4_6&#45;&gt;n_6 -->
<g id="edge7" class="edge">
<title>n_1_4_6&#45;&gt;n_6</title>
<path fill="none" stroke="black" d="M188.71,-158.22C190.52,-148.54 192.74,-136.72 194.73,-126.11"/>
<polygon fill="black" stroke="black" points="198.16,-126.81 196.56,-116.33 191.28,-125.52 198.16,-126.81"/>
</g>
<!-- n_1 -->
<g id="node6" class="node">
<title>n_1</title>
<polygon fill="none" stroke="black" points="9,-5.38 9,-30.62 53,-30.62 53,-5.38 9,-5.38"/>
<text text-anchor="start" x="16" y="-16.07" font-family="Times New Roman,serif" font-weight="bold" font-size="9.00">Normal</text>
<polygon fill="none" stroke="black" points="8,-4.38 8,-31.62 54,-31.62 54,-4.38 8,-4.38"/>
</g>
<!-- n_1_4&#45;&gt;n_1 -->
<g id="edge5" class="edge">
<title>n_1_4&#45;&gt;n_1</title>
<path fill="none" stroke="black" d="M67.8,-79.29C61.81,-69.47 54.09,-56.83 47.27,-45.66"/>
<polygon fill="black" stroke="black" points="50.33,-43.95 42.13,-37.23 44.35,-47.59 50.33,-43.95"/>
</g>
<!-- n_4 -->
<g id="node7" class="node">
<title>n_4</title>
<polygon fill="none" stroke="black" points="100,-5.38 100,-30.62 150,-30.62 150,-5.38 100,-5.38"/>
<text text-anchor="start" x="107" y="-16.07" font-family="Times New Roman,serif" font-weight="bold" font-size="9.00">Obesity I</text>
<polygon fill="none" stroke="black" points="99,-4.38 99,-31.62 151,-31.62 151,-4.38 99,-4.38"/>
</g>
<!-- n_1_4&#45;&gt;n_4 -->
<g id="edge6" class="edge">
<title>n_1_4&#45;&gt;n_4</title>
<path fill="none" stroke="black" d="M88.2,-79.29C94.19,-69.47 101.91,-56.83 108.73,-45.66"/>
<polygon fill="black" stroke="black" points="111.65,-47.59 113.87,-37.23 105.67,-43.95 111.65,-47.59"/>
</g>
<!-- n_0 -->
<g id="node10" class="node">
<title>n_0</title>
<polygon fill="none" stroke="black" points="303.88,-84.38 303.88,-109.62 392.12,-109.62 392.12,-84.38 303.88,-84.38"/>
<text text-anchor="start" x="310.88" y="-95.08" font-family="Times New Roman,serif" font-weight="bold" font-size="9.00">Insufficient weight</text>
<polygon fill="none" stroke="black" points="302.88,-83.38 302.88,-110.62 393.12,-110.62 393.12,-83.38 302.88,-83.38"/>
</g>
<!-- n_0_3&#45;&gt;n_0 -->
<g id="edge9" class="edge">
<title>n_0_3&#45;&gt;n_0</title>
<path fill="none" stroke="black" d="M359.82,-161.03C357.91,-150.85 355.43,-137.65 353.24,-125.96"/>
<polygon fill="black" stroke="black" points="356.74,-125.61 351.46,-116.43 349.86,-126.9 356.74,-125.61"/>
</g>
<!-- n_3 -->
<g id="node11" class="node">
<title>n_3</title>
<polygon fill="none" stroke="black" points="439,-84.38 439,-109.62 507,-109.62 507,-84.38 439,-84.38"/>
<text text-anchor="start" x="446" y="-95.08" font-family="Times New Roman,serif" font-weight="bold" font-size="9.00">Overweight II</text>
<polygon fill="none" stroke="black" points="438,-83.38 438,-110.62 508,-110.62 508,-83.38 438,-83.38"/>
</g>
<!-- n_0_3&#45;&gt;n_3 -->
<g id="edge10" class="edge">
<title>n_0_3&#45;&gt;n_3</title>
<path fill="none" stroke="black" d="M386.33,-161.03C402.08,-149.58 423.09,-134.3 440.47,-121.66"/>
<polygon fill="black" stroke="black" points="442.45,-124.54 448.48,-115.83 438.34,-118.88 442.45,-124.54"/>
</g>
</g>
</svg>
