<?xml version="1.0" encoding="UTF-8" standalone="no"?>
<!DOCTYPE svg PUBLIC "-//W3C//DTD SVG 1.1//EN"
 "http://www.w3.org/Graphics/SVG/1.1/DTD/svg11.dtd">
<!-- Generated by graphviz version 10.0.1 (20240210.2158)
 -->
<!-- Title: ND Pages: 1 -->
<svg width="597pt" height="405pt"
 viewBox="0.00 0.00 596.50 405.00" xmlns="http://www.w3.org/2000/svg" xmlns:xlink="http://www.w3.org/1999/xlink">
<g id="graph0" class="graph" transform="scale(1 1) rotate(0) translate(4 401)">
<title>ND</title>
<polygon fill="white" stroke="none" points="-4,4 -4,-401 592.5,-401 592.5,4 -4,4"/>
<!-- n_0_1_2_3_4_5_6 -->
<g id="node1" class="node">
<title>n_0_1_2_3_4_5_6</title>
<polygon fill="none" stroke="black" points="259.38,-342 259.38,-392 347.62,-392 347.62,-342 259.38,-342"/>
<text text-anchor="start" x="266.38" y="-377.45" font-family="Times New Roman,serif" font-weight="bold" font-size="9.00">Insufficient weight</text>
<text text-anchor="start" x="288.5" y="-368.45" font-family="Times New Roman,serif" font-weight="bold" font-size="9.00">Normal</text>
<text text-anchor="start" x="276.5" y="-359.45" font-family="Times New Roman,serif" font-weight="bold" font-size="9.00">Overweight II</text>
<text text-anchor="start" x="285.5" y="-350.45" font-family="Times New Roman,serif" font-weight="bold" font-size="9.00">Obesity I</text>
<polygon fill="none" stroke="black" points="347.62,-342 347.62,-392 412.62,-392 412.62,-342 347.62,-342"/>
<text text-anchor="start" x="354.62" y="-372.95" font-family="Times New Roman,serif" font-weight="bold" font-size="9.00">Overweight I</text>
<text text-anchor="start" x="360.62" y="-363.95" font-family="Times New Roman,serif" font-weight="bold" font-size="9.00">Obesity II</text>
<text text-anchor="start" x="359.12" y="-354.95" font-family="Times New Roman,serif" font-weight="bold" font-size="9.00">Obesity III</text>
<polygon fill="none" stroke="black" points="258.38,-341 258.38,-393 413.62,-393 413.62,-341 258.38,-341"/>
</g>
<!-- n_0_1_3_4 -->
<g id="node2" class="node">
<title>n_0_1_3_4</title>
<polygon fill="none" stroke="black" points="164.88,-248 164.88,-289 232.88,-289 232.88,-248 164.88,-248"/>
<text text-anchor="start" x="183.88" y="-274.45" font-family="Times New Roman,serif" font-weight="bold" font-size="9.00">Normal</text>
<text text-anchor="start" x="171.88" y="-265.45" font-family="Times New Roman,serif" font-weight="bold" font-size="9.00">Overweight II</text>
<text text-anchor="start" x="180.88" y="-256.45" font-family="Times New Roman,serif" font-weight="bold" font-size="9.00">Obesity I</text>
<polygon fill="none" stroke="black" points="232.88,-248 232.88,-289 321.12,-289 321.12,-248 232.88,-248"/>
<text text-anchor="start" x="239.88" y="-266.57" font-family="Times New Roman,serif" font-weight="bold" font-size="9.00">Insufficient weight</text>
<polygon fill="none" stroke="black" points="163.88,-247 163.88,-290 322.12,-290 322.12,-247 163.88,-247"/>
</g>
<!-- n_0_1_2_3_4_5_6&#45;&gt;n_0_1_3_4 -->
<g id="edge1" class="edge">
<title>n_0_1_2_3_4_5_6&#45;&gt;n_0_1_3_4</title>
<path fill="none" stroke="black" d="M308.1,-337.05C297.42,-325.97 285.18,-313.26 274.21,-301.88"/>
<polygon fill="black" stroke="black" points="277,-299.74 267.54,-294.96 271.96,-304.59 277,-299.74"/>
</g>
<!-- n_2_5_6 -->
<g id="node9" class="node">
<title>n_2_5_6</title>
<polygon fill="none" stroke="black" points="368.5,-252.5 368.5,-284.5 424.5,-284.5 424.5,-252.5 368.5,-252.5"/>
<text text-anchor="start" x="377" y="-269.95" font-family="Times New Roman,serif" font-weight="bold" font-size="9.00">Obesity II</text>
<text text-anchor="start" x="375.5" y="-260.95" font-family="Times New Roman,serif" font-weight="bold" font-size="9.00">Obesity III</text>
<polygon fill="none" stroke="black" points="424.5,-252.5 424.5,-284.5 489.5,-284.5 489.5,-252.5 424.5,-252.5"/>
<text text-anchor="start" x="431.5" y="-266.57" font-family="Times New Roman,serif" font-weight="bold" font-size="9.00">Overweight I</text>
<polygon fill="none" stroke="black" points="367.5,-251.5 367.5,-285.5 490.5,-285.5 490.5,-251.5 367.5,-251.5"/>
</g>
<!-- n_0_1_2_3_4_5_6&#45;&gt;n_2_5_6 -->
<g id="edge8" class="edge">
<title>n_0_1_2_3_4_5_6&#45;&gt;n_2_5_6</title>
<path fill="none" stroke="black" d="M363.9,-337.05C375.99,-324.51 390.08,-309.89 402.06,-297.46"/>
<polygon fill="black" stroke="black" points="404.49,-299.98 408.91,-290.35 399.45,-295.12 404.49,-299.98"/>
</g>
<!-- n_1_3_4 -->
<g id="node3" class="node">
<title>n_1_3_4</title>
<polygon fill="none" stroke="black" points="56,-163 56,-195 124,-195 124,-163 56,-163"/>
<text text-anchor="start" x="63" y="-180.45" font-family="Times New Roman,serif" font-weight="bold" font-size="9.00">Overweight II</text>
<text text-anchor="start" x="72" y="-171.45" font-family="Times New Roman,serif" font-weight="bold" font-size="9.00">Obesity I</text>
<polygon fill="none" stroke="black" points="124,-163 124,-195 168,-195 168,-163 124,-163"/>
<text text-anchor="start" x="131" y="-177.07" font-family="Times New Roman,serif" font-weight="bold" font-size="9.00">Normal</text>
<polygon fill="none" stroke="black" points="55,-162 55,-196 169,-196 169,-162 55,-162"/>
</g>
<!-- n_0_1_3_4&#45;&gt;n_1_3_4 -->
<g id="edge2" class="edge">
<title>n_0_1_3_4&#45;&gt;n_1_3_4</title>
<path fill="none" stroke="black" d="M206.51,-243.13C189.26,-231.61 168.65,-217.84 151.09,-206.11"/>
<polygon fill="black" stroke="black" points="153.2,-203.31 142.94,-200.67 149.31,-209.13 153.2,-203.31"/>
</g>
<!-- n_0 -->
<g id="node8" class="node">
<title>n_0</title>
<polygon fill="none" stroke="black" points="214.88,-166.38 214.88,-191.62 303.12,-191.62 303.12,-166.38 214.88,-166.38"/>
<text text-anchor="start" x="221.88" y="-177.07" font-family="Times New Roman,serif" font-weight="bold" font-size="9.00">Insufficient weight</text>
<polygon fill="none" stroke="black" points="213.88,-165.38 213.88,-192.62 304.12,-192.62 304.12,-165.38 213.88,-165.38"/>
</g>
<!-- n_0_1_3_4&#45;&gt;n_0 -->
<g id="edge7" class="edge">
<title>n_0_1_3_4&#45;&gt;n_0</title>
<path fill="none" stroke="black" d="M247.46,-243.13C249.46,-232.17 251.84,-219.18 253.91,-207.84"/>
<polygon fill="black" stroke="black" points="257.31,-208.73 255.66,-198.26 250.42,-207.47 257.31,-208.73"/>
</g>
<!-- n_3_4 -->
<g id="node4" class="node">
<title>n_3_4</title>
<polygon fill="none" stroke="black" points="37,-84.38 37,-109.62 105,-109.62 105,-84.38 37,-84.38"/>
<text text-anchor="start" x="44" y="-95.08" font-family="Times New Roman,serif" font-weight="bold" font-size="9.00">Overweight II</text>
<polygon fill="none" stroke="black" points="105,-84.38 105,-109.62 155,-109.62 155,-84.38 105,-84.38"/>
<text text-anchor="start" x="112" y="-95.08" font-family="Times New Roman,serif" font-weight="bold" font-size="9.00">Obesity I</text>
<polygon fill="none" stroke="black" points="36,-83.38 36,-110.62 156,-110.62 156,-83.38 36,-83.38"/>
</g>
<!-- n_1_3_4&#45;&gt;n_3_4 -->
<g id="edge3" class="edge">
<title>n_1_3_4&#45;&gt;n_3_4</title>
<path fill="none" stroke="black" d="M108.04,-158.22C106.11,-148.54 103.74,-136.72 101.62,-126.11"/>
<polygon fill="black" stroke="black" points="105.06,-125.45 99.67,-116.33 98.19,-126.82 105.06,-125.45"/>
</g>
<!-- n_1 -->
<g id="node7" class="node">
<title>n_1</title>
<polygon fill="none" stroke="black" points="202,-84.38 202,-109.62 246,-109.62 246,-84.38 202,-84.38"/>
<text text-anchor="start" x="209" y="-95.08" font-family="Times New Roman,serif" font-weight="bold" font-size="9.00">Normal</text>
<polygon fill="none" stroke="black" points="201,-83.38 201,-110.62 247,-110.62 247,-83.38 201,-83.38"/>
</g>
<!-- n_1_3_4&#45;&gt;n_1 -->
<g id="edge6" class="edge">
<title>n_1_3_4&#45;&gt;n_1</title>
<path fill="none" stroke="black" d="M139.97,-158.02C155.57,-146.88 175.08,-132.94 191.37,-121.31"/>
<polygon fill="black" stroke="black" points="193.2,-124.3 199.31,-115.64 189.13,-118.6 193.2,-124.3"/>
</g>
<!-- n_3 -->
<g id="node5" class="node">
<title>n_3</title>
<polygon fill="none" stroke="black" points="9,-5.38 9,-30.62 77,-30.62 77,-5.38 9,-5.38"/>
<text text-anchor="start" x="16" y="-16.07" font-family="Times New Roman,serif" font-weight="bold" font-size="9.00">Overweight II</text>
<polygon fill="none" stroke="black" points="8,-4.38 8,-31.62 78,-31.62 78,-4.38 8,-4.38"/>
</g>
<!-- n_3_4&#45;&gt;n_3 -->
<g id="edge4" class="edge">
<title>n_3_4&#45;&gt;n_3</title>
<path fill="none" stroke="black" d="M84.5,-79.29C77.67,-69.37 68.86,-56.57 61.12,-45.32"/>
<polygon fill="black" stroke="black" points="64.07,-43.44 55.52,-37.19 58.31,-47.41 64.07,-43.44"/>
</g>
<!-- n_4 -->
<g id="node6" class="node">
<title>n_4</title>
<polygon fill="none" stroke="black" points="124,-5.38 124,-30.62 174,-30.62 174,-5.38 124,-5.38"/>
<text text-anchor="start" x="131" y="-16.07" font-family="Times New Roman,serif" font-weight="bold" font-size="9.00">Obesity I</text>
<polygon fill="none" stroke="black" points="123,-4.38 123,-31.62 175,-31.62 175,-4.38 123,-4.38"/>
</g>
<!-- n_3_4&#45;&gt;n_4 -->
<g id="edge5" class="edge">
<title>n_3_4&#45;&gt;n_4</title>
<path fill="none" stroke="black" d="M107.5,-79.29C114.33,-69.37 123.14,-56.57 130.88,-45.32"/>
<polygon fill="black" stroke="black" points="133.69,-47.41 136.48,-37.19 127.93,-43.44 133.69,-47.41"/>
</g>
<!-- n_5_6 -->
<g id="node10" class="node">
<title>n_5_6</title>
<polygon fill="none" stroke="black" points="358.5,-166.38 358.5,-191.62 411.5,-191.62 411.5,-166.38 358.5,-166.38"/>
<text text-anchor="start" x="365.5" y="-177.07" font-family="Times New Roman,serif" font-weight="bold" font-size="9.00">Obesity II</text>
<polygon fill="none" stroke="black" points="411.5,-166.38 411.5,-191.62 467.5,-191.62 467.5,-166.38 411.5,-166.38"/>
<text text-anchor="start" x="418.5" y="-177.07" font-family="Times New Roman,serif" font-weight="bold" font-size="9.00">Obesity III</text>
<polygon fill="none" stroke="black" points="357.5,-165.38 357.5,-192.62 468.5,-192.62 468.5,-165.38 357.5,-165.38"/>
</g>
<!-- n_2_5_6&#45;&gt;n_5_6 -->
<g id="edge9" class="edge">
<title>n_2_5_6&#45;&gt;n_5_6</title>
<path fill="none" stroke="black" d="M425.37,-247.64C423.22,-235.91 420.47,-220.86 418.11,-207.94"/>
<polygon fill="black" stroke="black" points="421.59,-207.53 416.35,-198.32 414.71,-208.79 421.59,-207.53"/>
</g>
<!-- n_2 -->
<g id="node13" class="node">
<title>n_2</title>
<polygon fill="none" stroke="black" points="514.5,-166.38 514.5,-191.62 579.5,-191.62 579.5,-166.38 514.5,-166.38"/>
<text text-anchor="start" x="521.5" y="-177.07" font-family="Times New Roman,serif" font-weight="bold" font-size="9.00">Overweight I</text>
<polygon fill="none" stroke="black" points="513.5,-165.38 513.5,-192.62 580.5,-192.62 580.5,-165.38 513.5,-165.38"/>
</g>
<!-- n_2_5_6&#45;&gt;n_2 -->
<g id="edge12" class="edge">
<title>n_2_5_6&#45;&gt;n_2</title>
<path fill="none" stroke="black" d="M455.78,-247.64C473.38,-234.59 496.5,-217.45 515.06,-203.68"/>
<polygon fill="black" stroke="black" points="517.14,-206.5 523.09,-197.73 512.97,-200.88 517.14,-206.5"/>
</g>
<!-- n_5 -->
<g id="node11" class="node">
<title>n_5</title>
<polygon fill="none" stroke="black" points="339.5,-84.38 339.5,-109.62 392.5,-109.62 392.5,-84.38 339.5,-84.38"/>
<text text-anchor="start" x="346.5" y="-95.08" font-family="Times New Roman,serif" font-weight="bold" font-size="9.00">Obesity II</text>
<polygon fill="none" stroke="black" points="338.5,-83.38 338.5,-110.62 393.5,-110.62 393.5,-83.38 338.5,-83.38"/>
</g>
<!-- n_5_6&#45;&gt;n_5 -->
<g id="edge10" class="edge">
<title>n_5_6&#45;&gt;n_5</title>
<path fill="none" stroke="black" d="M403.03,-161.03C396.86,-150.53 388.81,-136.82 381.78,-124.87"/>
<polygon fill="black" stroke="black" points="384.8,-123.1 376.72,-116.25 378.77,-126.64 384.8,-123.1"/>
</g>
<!-- n_6 -->
<g id="node12" class="node">
<title>n_6</title>
<polygon fill="none" stroke="black" points="440,-84.38 440,-109.62 496,-109.62 496,-84.38 440,-84.38"/>
<text text-anchor="start" x="447" y="-95.08" font-family="Times New Roman,serif" font-weight="bold" font-size="9.00">Obesity III</text>
<polygon fill="none" stroke="black" points="439,-83.38 439,-110.62 497,-110.62 497,-83.38 439,-83.38"/>
</g>
<!-- n_5_6&#45;&gt;n_6 -->
<g id="edge11" class="edge">
<title>n_5_6&#45;&gt;n_6</title>
<path fill="none" stroke="black" d="M424.66,-161.03C432.03,-150.32 441.69,-136.27 450.02,-124.15"/>
<polygon fill="black" stroke="black" points="452.71,-126.41 455.5,-116.19 446.95,-122.45 452.71,-126.41"/>
</g>
</g>
</svg>
