<?xml version="1.0" encoding="UTF-8" standalone="no"?>
<!DOCTYPE svg PUBLIC "-//W3C//DTD SVG 1.1//EN"
 "http://www.w3.org/Graphics/SVG/1.1/DTD/svg11.dtd">
<!-- Generated by graphviz version 10.0.1 (20240210.2158)
 -->
<!-- Title: ND Pages: 1 -->
<svg width="701pt" height="414pt"
 viewBox="0.00 0.00 700.50 414.00" xmlns="http://www.w3.org/2000/svg" xmlns:xlink="http://www.w3.org/1999/xlink">
<g id="graph0" class="graph" transform="scale(1 1) rotate(0) translate(4 410)">
<title>ND</title>
<polygon fill="white" stroke="none" points="-4,4 -4,-410 696.5,-410 696.5,4 -4,4"/>
<!-- n_0_1_2_3_4_5_6 -->
<g id="node1" class="node">
<title>n_0_1_2_3_4_5_6</title>
<polygon fill="none" stroke="black" points="407.38,-342 407.38,-401 495.62,-401 495.62,-342 407.38,-342"/>
<text text-anchor="start" x="414.38" y="-386.45" font-family="Times New Roman,serif" font-weight="bold" font-size="9.00">Insufficient weight</text>
<text text-anchor="start" x="426" y="-377.45" font-family="Times New Roman,serif" font-weight="bold" font-size="9.00">Overweight I</text>
<text text-anchor="start" x="424.5" y="-368.45" font-family="Times New Roman,serif" font-weight="bold" font-size="9.00">Overweight II</text>
<text text-anchor="start" x="433.5" y="-359.45" font-family="Times New Roman,serif" font-weight="bold" font-size="9.00">Obesity I</text>
<text text-anchor="start" x="432" y="-350.45" font-family="Times New Roman,serif" font-weight="bold" font-size="9.00">Obesity II</text>
<polygon fill="none" stroke="black" points="495.62,-342 495.62,-401 551.62,-401 551.62,-342 495.62,-342"/>
<text text-anchor="start" x="508.62" y="-372.95" font-family="Times New Roman,serif" font-weight="bold" font-size="9.00">Normal</text>
<text text-anchor="start" x="502.62" y="-363.95" font-family="Times New Roman,serif" font-weight="bold" font-size="9.00">Obesity III</text>
<polygon fill="none" stroke="black" points="406.38,-341 406.38,-402 552.62,-402 552.62,-341 406.38,-341"/>
</g>
<!-- n_0_2_3_4_5 -->
<g id="node2" class="node">
<title>n_0_2_3_4_5</title>
<polygon fill="none" stroke="black" points="314.38,-248 314.38,-289 382.38,-289 382.38,-248 314.38,-248"/>
<text text-anchor="start" x="322.88" y="-274.45" font-family="Times New Roman,serif" font-weight="bold" font-size="9.00">Overweight I</text>
<text text-anchor="start" x="321.38" y="-265.45" font-family="Times New Roman,serif" font-weight="bold" font-size="9.00">Overweight II</text>
<text text-anchor="start" x="330.38" y="-256.45" font-family="Times New Roman,serif" font-weight="bold" font-size="9.00">Obesity I</text>
<polygon fill="none" stroke="black" points="382.38,-248 382.38,-289 470.62,-289 470.62,-248 382.38,-248"/>
<text text-anchor="start" x="389.38" y="-269.95" font-family="Times New Roman,serif" font-weight="bold" font-size="9.00">Insufficient weight</text>
<text text-anchor="start" x="407" y="-260.95" font-family="Times New Roman,serif" font-weight="bold" font-size="9.00">Obesity II</text>
<polygon fill="none" stroke="black" points="313.38,-247 313.38,-290 471.62,-290 471.62,-247 313.38,-247"/>
</g>
<!-- n_0_1_2_3_4_5_6&#45;&gt;n_0_2_3_4_5 -->
<g id="edge1" class="edge">
<title>n_0_1_2_3_4_5_6&#45;&gt;n_0_2_3_4_5</title>
<path fill="none" stroke="black" d="M450.77,-337.15C441.16,-326 430.47,-313.58 420.89,-302.45"/>
<polygon fill="black" stroke="black" points="423.65,-300.3 414.47,-295.01 418.35,-304.87 423.65,-300.3"/>
</g>
<!-- n_1_6 -->
<g id="node11" class="node">
<title>n_1_6</title>
<polygon fill="none" stroke="black" points="517.5,-255.88 517.5,-281.12 561.5,-281.12 561.5,-255.88 517.5,-255.88"/>
<text text-anchor="start" x="524.5" y="-266.57" font-family="Times New Roman,serif" font-weight="bold" font-size="9.00">Normal</text>
<polygon fill="none" stroke="black" points="561.5,-255.88 561.5,-281.12 617.5,-281.12 617.5,-255.88 561.5,-255.88"/>
<text text-anchor="start" x="568.5" y="-266.57" font-family="Times New Roman,serif" font-weight="bold" font-size="9.00">Obesity III</text>
<polygon fill="none" stroke="black" points="516.5,-254.88 516.5,-282.12 618.5,-282.12 618.5,-254.88 516.5,-254.88"/>
</g>
<!-- n_0_1_2_3_4_5_6&#45;&gt;n_1_6 -->
<g id="edge10" class="edge">
<title>n_0_1_2_3_4_5_6&#45;&gt;n_1_6</title>
<path fill="none" stroke="black" d="M508.56,-337.15C520.6,-323.33 534.33,-307.57 545.51,-294.74"/>
<polygon fill="black" stroke="black" points="547.87,-297.36 551.8,-287.52 542.59,-292.76 547.87,-297.36"/>
</g>
<!-- n_2_3_4 -->
<g id="node3" class="node">
<title>n_2_3_4</title>
<polygon fill="none" stroke="black" points="151,-163 151,-195 216,-195 216,-163 151,-163"/>
<text text-anchor="start" x="158" y="-180.45" font-family="Times New Roman,serif" font-weight="bold" font-size="9.00">Overweight I</text>
<text text-anchor="start" x="165.5" y="-171.45" font-family="Times New Roman,serif" font-weight="bold" font-size="9.00">Obesity I</text>
<polygon fill="none" stroke="black" points="216,-163 216,-195 284,-195 284,-163 216,-163"/>
<text text-anchor="start" x="223" y="-177.07" font-family="Times New Roman,serif" font-weight="bold" font-size="9.00">Overweight II</text>
<polygon fill="none" stroke="black" points="150,-162 150,-196 285,-196 285,-162 150,-162"/>
</g>
<!-- n_0_2_3_4_5&#45;&gt;n_2_3_4 -->
<g id="edge2" class="edge">
<title>n_0_2_3_4_5&#45;&gt;n_2_3_4</title>
<path fill="none" stroke="black" d="M343.75,-243.13C320.05,-231.28 291.6,-217.05 267.71,-205.11"/>
<polygon fill="black" stroke="black" points="269.3,-201.99 258.79,-200.65 266.17,-208.25 269.3,-201.99"/>
</g>
<!-- n_0_5 -->
<g id="node8" class="node">
<title>n_0_5</title>
<polygon fill="none" stroke="black" points="330.88,-166.38 330.88,-191.62 419.12,-191.62 419.12,-166.38 330.88,-166.38"/>
<text text-anchor="start" x="337.88" y="-177.07" font-family="Times New Roman,serif" font-weight="bold" font-size="9.00">Insufficient weight</text>
<polygon fill="none" stroke="black" points="419.12,-166.38 419.12,-191.62 472.12,-191.62 472.12,-166.38 419.12,-166.38"/>
<text text-anchor="start" x="426.12" y="-177.07" font-family="Times New Roman,serif" font-weight="bold" font-size="9.00">Obesity II</text>
<polygon fill="none" stroke="black" points="329.88,-165.38 329.88,-192.62 473.12,-192.62 473.12,-165.38 329.88,-165.38"/>
</g>
<!-- n_0_2_3_4_5&#45;&gt;n_0_5 -->
<g id="edge7" class="edge">
<title>n_0_2_3_4_5&#45;&gt;n_0_5</title>
<path fill="none" stroke="black" d="M395.01,-243.13C396.12,-232.28 397.44,-219.45 398.6,-208.19"/>
<polygon fill="black" stroke="black" points="402.08,-208.58 399.62,-198.28 395.12,-207.87 402.08,-208.58"/>
</g>
<!-- n_2_4 -->
<g id="node4" class="node">
<title>n_2_4</title>
<polygon fill="none" stroke="black" points="36,-84.38 36,-109.62 101,-109.62 101,-84.38 36,-84.38"/>
<text text-anchor="start" x="43" y="-95.08" font-family="Times New Roman,serif" font-weight="bold" font-size="9.00">Overweight I</text>
<polygon fill="none" stroke="black" points="101,-84.38 101,-109.62 151,-109.62 151,-84.38 101,-84.38"/>
<text text-anchor="start" x="108" y="-95.08" font-family="Times New Roman,serif" font-weight="bold" font-size="9.00">Obesity I</text>
<polygon fill="none" stroke="black" points="35,-83.38 35,-110.62 152,-110.62 152,-83.38 35,-83.38"/>
</g>
<!-- n_2_3_4&#45;&gt;n_2_4 -->
<g id="edge3" class="edge">
<title>n_2_3_4&#45;&gt;n_2_4</title>
<path fill="none" stroke="black" d="M186.53,-158.02C169.1,-146.77 147.26,-132.68 129.12,-120.98"/>
<polygon fill="black" stroke="black" points="131.05,-118.06 120.75,-115.58 127.25,-123.94 131.05,-118.06"/>
</g>
<!-- n_3 -->
<g id="node7" class="node">
<title>n_3</title>
<polygon fill="none" stroke="black" points="198.5,-84.38 198.5,-109.62 266.5,-109.62 266.5,-84.38 198.5,-84.38"/>
<text text-anchor="start" x="205.5" y="-95.08" font-family="Times New Roman,serif" font-weight="bold" font-size="9.00">Overweight II</text>
<polygon fill="none" stroke="black" points="197.5,-83.38 197.5,-110.62 267.5,-110.62 267.5,-83.38 197.5,-83.38"/>
</g>
<!-- n_2_3_4&#45;&gt;n_3 -->
<g id="edge6" class="edge">
<title>n_2_3_4&#45;&gt;n_3</title>
<path fill="none" stroke="black" d="M221.21,-158.22C223.02,-148.54 225.24,-136.72 227.23,-126.11"/>
<polygon fill="black" stroke="black" points="230.66,-126.81 229.06,-116.33 223.78,-125.52 230.66,-126.81"/>
</g>
<!-- n_2 -->
<g id="node5" class="node">
<title>n_2</title>
<polygon fill="none" stroke="black" points="9,-5.38 9,-30.62 74,-30.62 74,-5.38 9,-5.38"/>
<text text-anchor="start" x="16" y="-16.07" font-family="Times New Roman,serif" font-weight="bold" font-size="9.00">Overweight I</text>
<polygon fill="none" stroke="black" points="8,-4.38 8,-31.62 75,-31.62 75,-4.38 8,-4.38"/>
</g>
<!-- n_2_4&#45;&gt;n_2 -->
<g id="edge4" class="edge">
<title>n_2_4&#45;&gt;n_2</title>
<path fill="none" stroke="black" d="M82.22,-79.29C75.52,-69.37 66.87,-56.57 59.27,-45.32"/>
<polygon fill="black" stroke="black" points="62.28,-43.52 53.79,-37.2 56.48,-47.44 62.28,-43.52"/>
</g>
<!-- n_4 -->
<g id="node6" class="node">
<title>n_4</title>
<polygon fill="none" stroke="black" points="121.5,-5.38 121.5,-30.62 171.5,-30.62 171.5,-5.38 121.5,-5.38"/>
<text text-anchor="start" x="128.5" y="-16.07" font-family="Times New Roman,serif" font-weight="bold" font-size="9.00">Obesity I</text>
<polygon fill="none" stroke="black" points="120.5,-4.38 120.5,-31.62 172.5,-31.62 172.5,-4.38 120.5,-4.38"/>
</g>
<!-- n_2_4&#45;&gt;n_4 -->
<g id="edge5" class="edge">
<title>n_2_4&#45;&gt;n_4</title>
<path fill="none" stroke="black" d="M105,-79.29C111.83,-69.37 120.64,-56.57 128.38,-45.32"/>
<polygon fill="black" stroke="black" points="131.19,-47.41 133.98,-37.19 125.43,-43.44 131.19,-47.41"/>
</g>
<!-- n_0 -->
<g id="node9" class="node">
<title>n_0</title>
<polygon fill="none" stroke="black" points="342.38,-84.38 342.38,-109.62 430.62,-109.62 430.62,-84.38 342.38,-84.38"/>
<text text-anchor="start" x="349.38" y="-95.08" font-family="Times New Roman,serif" font-weight="bold" font-size="9.00">Insufficient weight</text>
<polygon fill="none" stroke="black" points="341.38,-83.38 341.38,-110.62 431.62,-110.62 431.62,-83.38 341.38,-83.38"/>
</g>
<!-- n_0_5&#45;&gt;n_0 -->
<g id="edge8" class="edge">
<title>n_0_5&#45;&gt;n_0</title>
<path fill="none" stroke="black" d="M398.32,-161.03C396.41,-150.85 393.93,-137.65 391.74,-125.96"/>
<polygon fill="black" stroke="black" points="395.24,-125.61 389.96,-116.43 388.36,-126.9 395.24,-125.61"/>
</g>
<!-- n_5 -->
<g id="node10" class="node">
<title>n_5</title>
<polygon fill="none" stroke="black" points="478,-84.38 478,-109.62 531,-109.62 531,-84.38 478,-84.38"/>
<text text-anchor="start" x="485" y="-95.08" font-family="Times New Roman,serif" font-weight="bold" font-size="9.00">Obesity II</text>
<polygon fill="none" stroke="black" points="477,-83.38 477,-110.62 532,-110.62 532,-83.38 477,-83.38"/>
</g>
<!-- n_0_5&#45;&gt;n_5 -->
<g id="edge9" class="edge">
<title>n_0_5&#45;&gt;n_5</title>
<path fill="none" stroke="black" d="M423.34,-161.03C438.09,-149.58 457.76,-134.3 474.04,-121.66"/>
<polygon fill="black" stroke="black" points="475.74,-124.77 481.49,-115.87 471.45,-119.24 475.74,-124.77"/>
</g>
<!-- n_1 -->
<g id="node12" class="node">
<title>n_1</title>
<polygon fill="none" stroke="black" points="536.5,-166.38 536.5,-191.62 580.5,-191.62 580.5,-166.38 536.5,-166.38"/>
<text text-anchor="start" x="543.5" y="-177.07" font-family="Times New Roman,serif" font-weight="bold" font-size="9.00">Normal</text>
<polygon fill="none" stroke="black" points="535.5,-165.38 535.5,-192.62 581.5,-192.62 581.5,-165.38 535.5,-165.38"/>
</g>
<!-- n_1_6&#45;&gt;n_1 -->
<g id="edge11" class="edge">
<title>n_1_6&#45;&gt;n_1</title>
<path fill="none" stroke="black" d="M565.76,-250.63C564.52,-238.52 562.81,-221.94 561.37,-207.88"/>
<polygon fill="black" stroke="black" points="564.89,-207.91 560.38,-198.32 557.93,-208.63 564.89,-207.91"/>
</g>
<!-- n_6 -->
<g id="node13" class="node">
<title>n_6</title>
<polygon fill="none" stroke="black" points="627.5,-166.38 627.5,-191.62 683.5,-191.62 683.5,-166.38 627.5,-166.38"/>
<text text-anchor="start" x="634.5" y="-177.07" font-family="Times New Roman,serif" font-weight="bold" font-size="9.00">Obesity III</text>
<polygon fill="none" stroke="black" points="626.5,-165.38 626.5,-192.62 684.5,-192.62 684.5,-165.38 626.5,-165.38"/>
</g>
<!-- n_1_6&#45;&gt;n_6 -->
<g id="edge12" class="edge">
<title>n_1_6&#45;&gt;n_6</title>
<path fill="none" stroke="black" d="M584.47,-250.63C597.62,-237.56 616.02,-219.25 630.8,-204.56"/>
<polygon fill="black" stroke="black" points="632.89,-207.42 637.51,-197.89 627.95,-202.46 632.89,-207.42"/>
</g>
</g>
</svg>
