<?xml version="1.0" encoding="UTF-8" standalone="no"?>
<!DOCTYPE svg PUBLIC "-//W3C//DTD SVG 1.1//EN"
 "http://www.w3.org/Graphics/SVG/1.1/DTD/svg11.dtd">
<!-- Generated by graphviz version 10.0.1 (20240210.2158)
 -->
<!-- Title: ND Pages: 1 -->
<svg width="704pt" height="414pt"
 viewBox="0.00 0.00 703.50 414.00" xmlns="http://www.w3.org/2000/svg" xmlns:xlink="http://www.w3.org/1999/xlink">
<g id="graph0" class="graph" transform="scale(1 1) rotate(0) translate(4 410)">
<title>ND</title>
<polygon fill="white" stroke="none" points="-4,4 -4,-410 699.5,-410 699.5,4 -4,4"/>
<!-- n_0_1_2_3_4_5_6 -->
<g id="node1" class="node">
<title>n_0_1_2_3_4_5_6</title>
<polygon fill="none" stroke="black" points="381.38,-342 381.38,-401 449.38,-401 449.38,-342 381.38,-342"/>
<text text-anchor="start" x="400.38" y="-386.45" font-family="Times New Roman,serif" font-weight="bold" font-size="9.00">Normal</text>
<text text-anchor="start" x="389.88" y="-377.45" font-family="Times New Roman,serif" font-weight="bold" font-size="9.00">Overweight I</text>
<text text-anchor="start" x="388.38" y="-368.45" font-family="Times New Roman,serif" font-weight="bold" font-size="9.00">Overweight II</text>
<text text-anchor="start" x="397.38" y="-359.45" font-family="Times New Roman,serif" font-weight="bold" font-size="9.00">Obesity I</text>
<text text-anchor="start" x="395.88" y="-350.45" font-family="Times New Roman,serif" font-weight="bold" font-size="9.00">Obesity II</text>
<polygon fill="none" stroke="black" points="449.38,-342 449.38,-401 537.62,-401 537.62,-342 449.38,-342"/>
<text text-anchor="start" x="456.38" y="-372.95" font-family="Times New Roman,serif" font-weight="bold" font-size="9.00">Insufficient weight</text>
<text text-anchor="start" x="472.5" y="-363.95" font-family="Times New Roman,serif" font-weight="bold" font-size="9.00">Obesity III</text>
<polygon fill="none" stroke="black" points="380.38,-341 380.38,-402 538.62,-402 538.62,-341 380.38,-341"/>
</g>
<!-- n_1_2_3_4_5 -->
<g id="node2" class="node">
<title>n_1_2_3_4_5</title>
<polygon fill="none" stroke="black" points="309,-248 309,-289 377,-289 377,-248 309,-248"/>
<text text-anchor="start" x="317.5" y="-274.45" font-family="Times New Roman,serif" font-weight="bold" font-size="9.00">Overweight I</text>
<text text-anchor="start" x="316" y="-265.45" font-family="Times New Roman,serif" font-weight="bold" font-size="9.00">Overweight II</text>
<text text-anchor="start" x="325" y="-256.45" font-family="Times New Roman,serif" font-weight="bold" font-size="9.00">Obesity I</text>
<polygon fill="none" stroke="black" points="377,-248 377,-289 430,-289 430,-248 377,-248"/>
<text text-anchor="start" x="388.5" y="-269.95" font-family="Times New Roman,serif" font-weight="bold" font-size="9.00">Normal</text>
<text text-anchor="start" x="384" y="-260.95" font-family="Times New Roman,serif" font-weight="bold" font-size="9.00">Obesity II</text>
<polygon fill="none" stroke="black" points="308,-247 308,-290 431,-290 431,-247 308,-247"/>
</g>
<!-- n_0_1_2_3_4_5_6&#45;&gt;n_1_2_3_4_5 -->
<g id="edge1" class="edge">
<title>n_0_1_2_3_4_5_6&#45;&gt;n_1_2_3_4_5</title>
<path fill="none" stroke="black" d="M429.78,-337.15C419.84,-326 408.78,-313.58 398.86,-302.45"/>
<polygon fill="black" stroke="black" points="401.48,-300.13 392.21,-294.99 396.25,-304.78 401.48,-300.13"/>
</g>
<!-- n_0_6 -->
<g id="node11" class="node">
<title>n_0_6</title>
<polygon fill="none" stroke="black" points="477.38,-255.88 477.38,-281.12 565.62,-281.12 565.62,-255.88 477.38,-255.88"/>
<text text-anchor="start" x="484.38" y="-266.57" font-family="Times New Roman,serif" font-weight="bold" font-size="9.00">Insufficient weight</text>
<polygon fill="none" stroke="black" points="565.62,-255.88 565.62,-281.12 621.62,-281.12 621.62,-255.88 565.62,-255.88"/>
<text text-anchor="start" x="572.62" y="-266.57" font-family="Times New Roman,serif" font-weight="bold" font-size="9.00">Obesity III</text>
<polygon fill="none" stroke="black" points="476.38,-254.88 476.38,-282.12 622.62,-282.12 622.62,-254.88 476.38,-254.88"/>
</g>
<!-- n_0_1_2_3_4_5_6&#45;&gt;n_0_6 -->
<g id="edge10" class="edge">
<title>n_0_1_2_3_4_5_6&#45;&gt;n_0_6</title>
<path fill="none" stroke="black" d="M489.22,-337.15C501.53,-323.33 515.58,-307.57 527.01,-294.74"/>
<polygon fill="black" stroke="black" points="529.41,-297.3 533.45,-287.51 524.19,-292.65 529.41,-297.3"/>
</g>
<!-- n_2_3_4 -->
<g id="node3" class="node">
<title>n_2_3_4</title>
<polygon fill="none" stroke="black" points="151,-163 151,-195 216,-195 216,-163 151,-163"/>
<text text-anchor="start" x="158" y="-180.45" font-family="Times New Roman,serif" font-weight="bold" font-size="9.00">Overweight I</text>
<text text-anchor="start" x="165.5" y="-171.45" font-family="Times New Roman,serif" font-weight="bold" font-size="9.00">Obesity I</text>
<polygon fill="none" stroke="black" points="216,-163 216,-195 284,-195 284,-163 216,-163"/>
<text text-anchor="start" x="223" y="-177.07" font-family="Times New Roman,serif" font-weight="bold" font-size="9.00">Overweight II</text>
<polygon fill="none" stroke="black" points="150,-162 150,-196 285,-196 285,-162 150,-162"/>
</g>
<!-- n_1_2_3_4_5&#45;&gt;n_2_3_4 -->
<g id="edge2" class="edge">
<title>n_1_2_3_4_5&#45;&gt;n_2_3_4</title>
<path fill="none" stroke="black" d="M327.16,-243.13C306.78,-231.39 282.35,-217.33 261.72,-205.46"/>
<polygon fill="black" stroke="black" points="263.67,-202.54 253.25,-200.58 260.17,-208.6 263.67,-202.54"/>
</g>
<!-- n_1_5 -->
<g id="node8" class="node">
<title>n_1_5</title>
<polygon fill="none" stroke="black" points="331,-166.38 331,-191.62 375,-191.62 375,-166.38 331,-166.38"/>
<text text-anchor="start" x="338" y="-177.07" font-family="Times New Roman,serif" font-weight="bold" font-size="9.00">Normal</text>
<polygon fill="none" stroke="black" points="375,-166.38 375,-191.62 428,-191.62 428,-166.38 375,-166.38"/>
<text text-anchor="start" x="382" y="-177.07" font-family="Times New Roman,serif" font-weight="bold" font-size="9.00">Obesity II</text>
<polygon fill="none" stroke="black" points="330,-165.38 330,-192.62 429,-192.62 429,-165.38 330,-165.38"/>
</g>
<!-- n_1_2_3_4_5&#45;&gt;n_1_5 -->
<g id="edge7" class="edge">
<title>n_1_2_3_4_5&#45;&gt;n_1_5</title>
<path fill="none" stroke="black" d="M372.29,-243.13C373.52,-232.28 374.99,-219.45 376.28,-208.19"/>
<polygon fill="black" stroke="black" points="379.75,-208.61 377.41,-198.27 372.8,-207.81 379.75,-208.61"/>
</g>
<!-- n_2_4 -->
<g id="node4" class="node">
<title>n_2_4</title>
<polygon fill="none" stroke="black" points="36,-84.38 36,-109.62 101,-109.62 101,-84.38 36,-84.38"/>
<text text-anchor="start" x="43" y="-95.08" font-family="Times New Roman,serif" font-weight="bold" font-size="9.00">Overweight I</text>
<polygon fill="none" stroke="black" points="101,-84.38 101,-109.62 151,-109.62 151,-84.38 101,-84.38"/>
<text text-anchor="start" x="108" y="-95.08" font-family="Times New Roman,serif" font-weight="bold" font-size="9.00">Obesity I</text>
<polygon fill="none" stroke="black" points="35,-83.38 35,-110.62 152,-110.62 152,-83.38 35,-83.38"/>
</g>
<!-- n_2_3_4&#45;&gt;n_2_4 -->
<g id="edge3" class="edge">
<title>n_2_3_4&#45;&gt;n_2_4</title>
<path fill="none" stroke="black" d="M186.53,-158.02C169.1,-146.77 147.26,-132.68 129.12,-120.98"/>
<polygon fill="black" stroke="black" points="131.05,-118.06 120.75,-115.58 127.25,-123.94 131.05,-118.06"/>
</g>
<!-- n_3 -->
<g id="node7" class="node">
<title>n_3</title>
<polygon fill="none" stroke="black" points="198.5,-84.38 198.5,-109.62 266.5,-109.62 266.5,-84.38 198.5,-84.38"/>
<text text-anchor="start" x="205.5" y="-95.08" font-family="Times New Roman,serif" font-weight="bold" font-size="9.00">Overweight II</text>
<polygon fill="none" stroke="black" points="197.5,-83.38 197.5,-110.62 267.5,-110.62 267.5,-83.38 197.5,-83.38"/>
</g>
<!-- n_2_3_4&#45;&gt;n_3 -->
<g id="edge6" class="edge">
<title>n_2_3_4&#45;&gt;n_3</title>
<path fill="none" stroke="black" d="M221.21,-158.22C223.02,-148.54 225.24,-136.72 227.23,-126.11"/>
<polygon fill="black" stroke="black" points="230.66,-126.81 229.06,-116.33 223.78,-125.52 230.66,-126.81"/>
</g>
<!-- n_2 -->
<g id="node5" class="node">
<title>n_2</title>
<polygon fill="none" stroke="black" points="9,-5.38 9,-30.62 74,-30.62 74,-5.38 9,-5.38"/>
<text text-anchor="start" x="16" y="-16.07" font-family="Times New Roman,serif" font-weight="bold" font-size="9.00">Overweight I</text>
<polygon fill="none" stroke="black" points="8,-4.38 8,-31.62 75,-31.62 75,-4.38 8,-4.38"/>
</g>
<!-- n_2_4&#45;&gt;n_2 -->
<g id="edge4" class="edge">
<title>n_2_4&#45;&gt;n_2</title>
<path fill="none" stroke="black" d="M82.22,-79.29C75.52,-69.37 66.87,-56.57 59.27,-45.32"/>
<polygon fill="black" stroke="black" points="62.28,-43.52 53.79,-37.2 56.48,-47.44 62.28,-43.52"/>
</g>
<!-- n_4 -->
<g id="node6" class="node">
<title>n_4</title>
<polygon fill="none" stroke="black" points="121.5,-5.38 121.5,-30.62 171.5,-30.62 171.5,-5.38 121.5,-5.38"/>
<text text-anchor="start" x="128.5" y="-16.07" font-family="Times New Roman,serif" font-weight="bold" font-size="9.00">Obesity I</text>
<polygon fill="none" stroke="black" points="120.5,-4.38 120.5,-31.62 172.5,-31.62 172.5,-4.38 120.5,-4.38"/>
</g>
<!-- n_2_4&#45;&gt;n_4 -->
<g id="edge5" class="edge">
<title>n_2_4&#45;&gt;n_4</title>
<path fill="none" stroke="black" d="M105,-79.29C111.83,-69.37 120.64,-56.57 128.38,-45.32"/>
<polygon fill="black" stroke="black" points="131.19,-47.41 133.98,-37.19 125.43,-43.44 131.19,-47.41"/>
</g>
<!-- n_1 -->
<g id="node9" class="node">
<title>n_1</title>
<polygon fill="none" stroke="black" points="342.5,-84.38 342.5,-109.62 386.5,-109.62 386.5,-84.38 342.5,-84.38"/>
<text text-anchor="start" x="349.5" y="-95.08" font-family="Times New Roman,serif" font-weight="bold" font-size="9.00">Normal</text>
<polygon fill="none" stroke="black" points="341.5,-83.38 341.5,-110.62 387.5,-110.62 387.5,-83.38 341.5,-83.38"/>
</g>
<!-- n_1_5&#45;&gt;n_1 -->
<g id="edge8" class="edge">
<title>n_1_5&#45;&gt;n_1</title>
<path fill="none" stroke="black" d="M376.32,-161.03C374.41,-150.85 371.93,-137.65 369.74,-125.96"/>
<polygon fill="black" stroke="black" points="373.24,-125.61 367.96,-116.43 366.36,-126.9 373.24,-125.61"/>
</g>
<!-- n_5 -->
<g id="node10" class="node">
<title>n_5</title>
<polygon fill="none" stroke="black" points="434,-84.38 434,-109.62 487,-109.62 487,-84.38 434,-84.38"/>
<text text-anchor="start" x="441" y="-95.08" font-family="Times New Roman,serif" font-weight="bold" font-size="9.00">Obesity II</text>
<polygon fill="none" stroke="black" points="433,-83.38 433,-110.62 488,-110.62 488,-83.38 433,-83.38"/>
</g>
<!-- n_1_5&#45;&gt;n_5 -->
<g id="edge9" class="edge">
<title>n_1_5&#45;&gt;n_5</title>
<path fill="none" stroke="black" d="M396.68,-161.03C407.95,-149.9 422.89,-135.15 435.48,-122.71"/>
<polygon fill="black" stroke="black" points="437.61,-125.52 442.27,-116.01 432.7,-120.54 437.61,-125.52"/>
</g>
<!-- n_0 -->
<g id="node12" class="node">
<title>n_0</title>
<polygon fill="none" stroke="black" points="495.38,-166.38 495.38,-191.62 583.62,-191.62 583.62,-166.38 495.38,-166.38"/>
<text text-anchor="start" x="502.38" y="-177.07" font-family="Times New Roman,serif" font-weight="bold" font-size="9.00">Insufficient weight</text>
<polygon fill="none" stroke="black" points="494.38,-165.38 494.38,-192.62 584.62,-192.62 584.62,-165.38 494.38,-165.38"/>
</g>
<!-- n_0_6&#45;&gt;n_0 -->
<g id="edge11" class="edge">
<title>n_0_6&#45;&gt;n_0</title>
<path fill="none" stroke="black" d="M547.57,-250.63C546.19,-238.52 544.29,-221.94 542.69,-207.88"/>
<polygon fill="black" stroke="black" points="546.21,-207.86 541.59,-198.32 539.25,-208.66 546.21,-207.86"/>
</g>
<!-- n_6 -->
<g id="node13" class="node">
<title>n_6</title>
<polygon fill="none" stroke="black" points="630.5,-166.38 630.5,-191.62 686.5,-191.62 686.5,-166.38 630.5,-166.38"/>
<text text-anchor="start" x="637.5" y="-177.07" font-family="Times New Roman,serif" font-weight="bold" font-size="9.00">Obesity III</text>
<polygon fill="none" stroke="black" points="629.5,-165.38 629.5,-192.62 687.5,-192.62 687.5,-165.38 629.5,-165.38"/>
</g>
<!-- n_0_6&#45;&gt;n_6 -->
<g id="edge12" class="edge">
<title>n_0_6&#45;&gt;n_6</title>
<path fill="none" stroke="black" d="M570.52,-250.63C587.03,-237.37 610.23,-218.75 628.67,-203.95"/>
<polygon fill="black" stroke="black" points="630.76,-206.76 636.37,-197.77 626.38,-201.3 630.76,-206.76"/>
</g>
</g>
</svg>
