<?xml version="1.0" encoding="UTF-8" standalone="no"?>
<!DOCTYPE svg PUBLIC "-//W3C//DTD SVG 1.1//EN"
 "http://www.w3.org/Graphics/SVG/1.1/DTD/svg11.dtd">
<!-- Generated by graphviz version 10.0.1 (20240210.2158)
 -->
<!-- Title: ND Pages: 1 -->
<svg width="697pt" height="414pt"
 viewBox="0.00 0.00 697.00 414.00" xmlns="http://www.w3.org/2000/svg" xmlns:xlink="http://www.w3.org/1999/xlink">
<g id="graph0" class="graph" transform="scale(1 1) rotate(0) translate(4 410)">
<title>ND</title>
<polygon fill="white" stroke="none" points="-4,4 -4,-410 693,-410 693,4 -4,4"/>
<!-- n_0_1_2_3_4_5_6 -->
<g id="node1" class="node">
<title>n_0_1_2_3_4_5_6</title>
<polygon fill="none" stroke="black" points="388.88,-342 388.88,-401 477.12,-401 477.12,-342 388.88,-342"/>
<text text-anchor="start" x="395.88" y="-386.45" font-family="Times New Roman,serif" font-weight="bold" font-size="9.00">Insufficient weight</text>
<text text-anchor="start" x="406" y="-377.45" font-family="Times New Roman,serif" font-weight="bold" font-size="9.00">Overweight II</text>
<text text-anchor="start" x="415" y="-368.45" font-family="Times New Roman,serif" font-weight="bold" font-size="9.00">Obesity I</text>
<text text-anchor="start" x="413.5" y="-359.45" font-family="Times New Roman,serif" font-weight="bold" font-size="9.00">Obesity II</text>
<text text-anchor="start" x="412" y="-350.45" font-family="Times New Roman,serif" font-weight="bold" font-size="9.00">Obesity III</text>
<polygon fill="none" stroke="black" points="477.12,-342 477.12,-401 542.12,-401 542.12,-342 477.12,-342"/>
<text text-anchor="start" x="494.62" y="-372.95" font-family="Times New Roman,serif" font-weight="bold" font-size="9.00">Normal</text>
<text text-anchor="start" x="484.12" y="-363.95" font-family="Times New Roman,serif" font-weight="bold" font-size="9.00">Overweight I</text>
<polygon fill="none" stroke="black" points="387.88,-341 387.88,-402 543.12,-402 543.12,-341 387.88,-341"/>
</g>
<!-- n_0_3_4_5_6 -->
<g id="node2" class="node">
<title>n_0_3_4_5_6</title>
<polygon fill="none" stroke="black" points="297.38,-248 297.38,-289 365.38,-289 365.38,-248 297.38,-248"/>
<text text-anchor="start" x="304.38" y="-274.45" font-family="Times New Roman,serif" font-weight="bold" font-size="9.00">Overweight II</text>
<text text-anchor="start" x="311.88" y="-265.45" font-family="Times New Roman,serif" font-weight="bold" font-size="9.00">Obesity II</text>
<text text-anchor="start" x="310.38" y="-256.45" font-family="Times New Roman,serif" font-weight="bold" font-size="9.00">Obesity III</text>
<polygon fill="none" stroke="black" points="365.38,-248 365.38,-289 453.62,-289 453.62,-248 365.38,-248"/>
<text text-anchor="start" x="372.38" y="-269.95" font-family="Times New Roman,serif" font-weight="bold" font-size="9.00">Insufficient weight</text>
<text text-anchor="start" x="391.5" y="-260.95" font-family="Times New Roman,serif" font-weight="bold" font-size="9.00">Obesity I</text>
<polygon fill="none" stroke="black" points="296.38,-247 296.38,-290 454.62,-290 454.62,-247 296.38,-247"/>
</g>
<!-- n_0_1_2_3_4_5_6&#45;&gt;n_0_3_4_5_6 -->
<g id="edge1" class="edge">
<title>n_0_1_2_3_4_5_6&#45;&gt;n_0_3_4_5_6</title>
<path fill="none" stroke="black" d="M435.78,-337.15C425.84,-326 414.78,-313.58 404.86,-302.45"/>
<polygon fill="black" stroke="black" points="407.48,-300.13 398.21,-294.99 402.25,-304.78 407.48,-300.13"/>
</g>
<!-- n_1_2 -->
<g id="node11" class="node">
<title>n_1_2</title>
<polygon fill="none" stroke="black" points="501,-255.88 501,-281.12 545,-281.12 545,-255.88 501,-255.88"/>
<text text-anchor="start" x="508" y="-266.57" font-family="Times New Roman,serif" font-weight="bold" font-size="9.00">Normal</text>
<polygon fill="none" stroke="black" points="545,-255.88 545,-281.12 610,-281.12 610,-255.88 545,-255.88"/>
<text text-anchor="start" x="552" y="-266.57" font-family="Times New Roman,serif" font-weight="bold" font-size="9.00">Overweight I</text>
<polygon fill="none" stroke="black" points="500,-254.88 500,-282.12 611,-282.12 611,-254.88 500,-254.88"/>
</g>
<!-- n_0_1_2_3_4_5_6&#45;&gt;n_1_2 -->
<g id="edge10" class="edge">
<title>n_0_1_2_3_4_5_6&#45;&gt;n_1_2</title>
<path fill="none" stroke="black" d="M495.22,-337.15C507.53,-323.33 521.58,-307.57 533.01,-294.74"/>
<polygon fill="black" stroke="black" points="535.41,-297.3 539.45,-287.51 530.19,-292.65 535.41,-297.3"/>
</g>
<!-- n_3_5_6 -->
<g id="node3" class="node">
<title>n_3_5_6</title>
<polygon fill="none" stroke="black" points="146.5,-163 146.5,-195 202.5,-195 202.5,-163 146.5,-163"/>
<text text-anchor="start" x="155" y="-180.45" font-family="Times New Roman,serif" font-weight="bold" font-size="9.00">Obesity II</text>
<text text-anchor="start" x="153.5" y="-171.45" font-family="Times New Roman,serif" font-weight="bold" font-size="9.00">Obesity III</text>
<polygon fill="none" stroke="black" points="202.5,-163 202.5,-195 270.5,-195 270.5,-163 202.5,-163"/>
<text text-anchor="start" x="209.5" y="-177.07" font-family="Times New Roman,serif" font-weight="bold" font-size="9.00">Overweight II</text>
<polygon fill="none" stroke="black" points="145.5,-162 145.5,-196 271.5,-196 271.5,-162 145.5,-162"/>
</g>
<!-- n_0_3_4_5_6&#45;&gt;n_3_5_6 -->
<g id="edge2" class="edge">
<title>n_0_3_4_5_6&#45;&gt;n_3_5_6</title>
<path fill="none" stroke="black" d="M328.98,-243.13C306.47,-231.33 279.46,-217.18 256.73,-205.27"/>
<polygon fill="black" stroke="black" points="258.43,-202.21 247.95,-200.67 255.19,-208.41 258.43,-202.21"/>
</g>
<!-- n_0_4 -->
<g id="node8" class="node">
<title>n_0_4</title>
<polygon fill="none" stroke="black" points="317.38,-166.38 317.38,-191.62 405.62,-191.62 405.62,-166.38 317.38,-166.38"/>
<text text-anchor="start" x="324.38" y="-177.07" font-family="Times New Roman,serif" font-weight="bold" font-size="9.00">Insufficient weight</text>
<polygon fill="none" stroke="black" points="405.62,-166.38 405.62,-191.62 455.62,-191.62 455.62,-166.38 405.62,-166.38"/>
<text text-anchor="start" x="412.62" y="-177.07" font-family="Times New Roman,serif" font-weight="bold" font-size="9.00">Obesity I</text>
<polygon fill="none" stroke="black" points="316.38,-165.38 316.38,-192.62 456.62,-192.62 456.62,-165.38 316.38,-165.38"/>
</g>
<!-- n_0_3_4_5_6&#45;&gt;n_0_4 -->
<g id="edge7" class="edge">
<title>n_0_3_4_5_6&#45;&gt;n_0_4</title>
<path fill="none" stroke="black" d="M378.56,-243.13C379.94,-232.17 381.58,-219.18 383,-207.84"/>
<polygon fill="black" stroke="black" points="386.43,-208.63 384.2,-198.27 379.48,-207.76 386.43,-208.63"/>
</g>
<!-- n_5_6 -->
<g id="node4" class="node">
<title>n_5_6</title>
<polygon fill="none" stroke="black" points="32,-84.38 32,-109.62 85,-109.62 85,-84.38 32,-84.38"/>
<text text-anchor="start" x="39" y="-95.08" font-family="Times New Roman,serif" font-weight="bold" font-size="9.00">Obesity II</text>
<polygon fill="none" stroke="black" points="85,-84.38 85,-109.62 141,-109.62 141,-84.38 85,-84.38"/>
<text text-anchor="start" x="92" y="-95.08" font-family="Times New Roman,serif" font-weight="bold" font-size="9.00">Obesity III</text>
<polygon fill="none" stroke="black" points="31,-83.38 31,-110.62 142,-110.62 142,-83.38 31,-83.38"/>
</g>
<!-- n_3_5_6&#45;&gt;n_5_6 -->
<g id="edge3" class="edge">
<title>n_3_5_6&#45;&gt;n_5_6</title>
<path fill="none" stroke="black" d="M178.03,-158.02C160.88,-146.77 139.39,-132.68 121.55,-120.98"/>
<polygon fill="black" stroke="black" points="123.6,-118.15 113.32,-115.59 119.77,-124 123.6,-118.15"/>
</g>
<!-- n_3 -->
<g id="node7" class="node">
<title>n_3</title>
<polygon fill="none" stroke="black" points="188.5,-84.38 188.5,-109.62 256.5,-109.62 256.5,-84.38 188.5,-84.38"/>
<text text-anchor="start" x="195.5" y="-95.08" font-family="Times New Roman,serif" font-weight="bold" font-size="9.00">Overweight II</text>
<polygon fill="none" stroke="black" points="187.5,-83.38 187.5,-110.62 257.5,-110.62 257.5,-83.38 187.5,-83.38"/>
</g>
<!-- n_3_5_6&#45;&gt;n_3 -->
<g id="edge6" class="edge">
<title>n_3_5_6&#45;&gt;n_3</title>
<path fill="none" stroke="black" d="M211.96,-158.22C213.66,-148.54 215.72,-136.72 217.58,-126.11"/>
<polygon fill="black" stroke="black" points="221.02,-126.79 219.29,-116.33 214.12,-125.58 221.02,-126.79"/>
</g>
<!-- n_5 -->
<g id="node5" class="node">
<title>n_5</title>
<polygon fill="none" stroke="black" points="9,-5.38 9,-30.62 62,-30.62 62,-5.38 9,-5.38"/>
<text text-anchor="start" x="16" y="-16.07" font-family="Times New Roman,serif" font-weight="bold" font-size="9.00">Obesity II</text>
<polygon fill="none" stroke="black" points="8,-4.38 8,-31.62 63,-31.62 63,-4.38 8,-4.38"/>
</g>
<!-- n_5_6&#45;&gt;n_5 -->
<g id="edge4" class="edge">
<title>n_5_6&#45;&gt;n_5</title>
<path fill="none" stroke="black" d="M75.43,-79.29C68.86,-69.37 60.39,-56.57 52.93,-45.32"/>
<polygon fill="black" stroke="black" points="56,-43.61 47.56,-37.2 50.16,-47.47 56,-43.61"/>
</g>
<!-- n_6 -->
<g id="node6" class="node">
<title>n_6</title>
<polygon fill="none" stroke="black" points="109.5,-5.38 109.5,-30.62 165.5,-30.62 165.5,-5.38 109.5,-5.38"/>
<text text-anchor="start" x="116.5" y="-16.07" font-family="Times New Roman,serif" font-weight="bold" font-size="9.00">Obesity III</text>
<polygon fill="none" stroke="black" points="108.5,-4.38 108.5,-31.62 166.5,-31.62 166.5,-4.38 108.5,-4.38"/>
</g>
<!-- n_5_6&#45;&gt;n_6 -->
<g id="edge5" class="edge">
<title>n_5_6&#45;&gt;n_6</title>
<path fill="none" stroke="black" d="M97.57,-79.29C104.14,-69.37 112.61,-56.57 120.07,-45.32"/>
<polygon fill="black" stroke="black" points="122.84,-47.47 125.44,-37.2 117,-43.61 122.84,-47.47"/>
</g>
<!-- n_0 -->
<g id="node9" class="node">
<title>n_0</title>
<polygon fill="none" stroke="black" points="329.38,-84.38 329.38,-109.62 417.62,-109.62 417.62,-84.38 329.38,-84.38"/>
<text text-anchor="start" x="336.38" y="-95.08" font-family="Times New Roman,serif" font-weight="bold" font-size="9.00">Insufficient weight</text>
<polygon fill="none" stroke="black" points="328.38,-83.38 328.38,-110.62 418.62,-110.62 418.62,-83.38 328.38,-83.38"/>
</g>
<!-- n_0_4&#45;&gt;n_0 -->
<g id="edge8" class="edge">
<title>n_0_4&#45;&gt;n_0</title>
<path fill="none" stroke="black" d="M383.74,-161.03C382.09,-150.85 379.94,-137.65 378.04,-125.96"/>
<polygon fill="black" stroke="black" points="381.55,-125.74 376.5,-116.44 374.65,-126.87 381.55,-125.74"/>
</g>
<!-- n_4 -->
<g id="node10" class="node">
<title>n_4</title>
<polygon fill="none" stroke="black" points="464.5,-84.38 464.5,-109.62 514.5,-109.62 514.5,-84.38 464.5,-84.38"/>
<text text-anchor="start" x="471.5" y="-95.08" font-family="Times New Roman,serif" font-weight="bold" font-size="9.00">Obesity I</text>
<polygon fill="none" stroke="black" points="463.5,-83.38 463.5,-110.62 515.5,-110.62 515.5,-83.38 463.5,-83.38"/>
</g>
<!-- n_0_4&#45;&gt;n_4 -->
<g id="edge9" class="edge">
<title>n_0_4&#45;&gt;n_4</title>
<path fill="none" stroke="black" d="M408.34,-161.03C423.09,-149.58 442.76,-134.3 459.04,-121.66"/>
<polygon fill="black" stroke="black" points="460.74,-124.77 466.49,-115.87 456.45,-119.24 460.74,-124.77"/>
</g>
<!-- n_1 -->
<g id="node12" class="node">
<title>n_1</title>
<polygon fill="none" stroke="black" points="523.5,-166.38 523.5,-191.62 567.5,-191.62 567.5,-166.38 523.5,-166.38"/>
<text text-anchor="start" x="530.5" y="-177.07" font-family="Times New Roman,serif" font-weight="bold" font-size="9.00">Normal</text>
<polygon fill="none" stroke="black" points="522.5,-165.38 522.5,-192.62 568.5,-192.62 568.5,-165.38 522.5,-165.38"/>
</g>
<!-- n_1_2&#45;&gt;n_1 -->
<g id="edge11" class="edge">
<title>n_1_2&#45;&gt;n_1</title>
<path fill="none" stroke="black" d="M553.57,-250.63C552.19,-238.52 550.29,-221.94 548.69,-207.88"/>
<polygon fill="black" stroke="black" points="552.21,-207.86 547.59,-198.32 545.25,-208.66 552.21,-207.86"/>
</g>
<!-- n_2 -->
<g id="node13" class="node">
<title>n_2</title>
<polygon fill="none" stroke="black" points="615,-166.38 615,-191.62 680,-191.62 680,-166.38 615,-166.38"/>
<text text-anchor="start" x="622" y="-177.07" font-family="Times New Roman,serif" font-weight="bold" font-size="9.00">Overweight I</text>
<polygon fill="none" stroke="black" points="614,-165.38 614,-192.62 681,-192.62 681,-165.38 614,-165.38"/>
</g>
<!-- n_1_2&#45;&gt;n_2 -->
<g id="edge12" class="edge">
<title>n_1_2&#45;&gt;n_2</title>
<path fill="none" stroke="black" d="M573.24,-250.63C586.98,-237.56 606.23,-219.25 621.68,-204.56"/>
<polygon fill="black" stroke="black" points="623.89,-207.29 628.72,-197.86 619.06,-202.22 623.89,-207.29"/>
</g>
</g>
</svg>
