<?xml version="1.0" encoding="UTF-8" standalone="no"?>
<!DOCTYPE svg PUBLIC "-//W3C//DTD SVG 1.1//EN"
 "http://www.w3.org/Graphics/SVG/1.1/DTD/svg11.dtd">
<!-- Generated by graphviz version 10.0.1 (20240210.2158)
 -->
<!-- Title: ND Pages: 1 -->
<svg width="622pt" height="526pt"
 viewBox="0.00 0.00 622.12 526.00" xmlns="http://www.w3.org/2000/svg" xmlns:xlink="http://www.w3.org/1999/xlink">
<g id="graph0" class="graph" transform="scale(1 1) rotate(0) translate(4 522)">
<title>ND</title>
<polygon fill="white" stroke="none" points="-4,4 -4,-522 618.12,-522 618.12,4 -4,4"/>
<!-- n_0_1_2_3_4_5_6 -->
<g id="node1" class="node">
<title>n_0_1_2_3_4_5_6</title>
<polygon fill="none" stroke="black" points="408.5,-445 408.5,-513 496.75,-513 496.75,-445 408.5,-445"/>
<text text-anchor="start" x="415.5" y="-498.45" font-family="Times New Roman,serif" font-weight="bold" font-size="9.00">Insufficient weight</text>
<text text-anchor="start" x="437.62" y="-489.45" font-family="Times New Roman,serif" font-weight="bold" font-size="9.00">Normal</text>
<text text-anchor="start" x="427.12" y="-480.45" font-family="Times New Roman,serif" font-weight="bold" font-size="9.00">Overweight I</text>
<text text-anchor="start" x="425.62" y="-471.45" font-family="Times New Roman,serif" font-weight="bold" font-size="9.00">Overweight II</text>
<text text-anchor="start" x="434.62" y="-462.45" font-family="Times New Roman,serif" font-weight="bold" font-size="9.00">Obesity I</text>
<text text-anchor="start" x="431.62" y="-453.45" font-family="Times New Roman,serif" font-weight="bold" font-size="9.00">Obesity III</text>
<polygon fill="none" stroke="black" points="496.75,-445 496.75,-513 549.75,-513 549.75,-445 496.75,-445"/>
<text text-anchor="start" x="503.75" y="-477.07" font-family="Times New Roman,serif" font-weight="bold" font-size="9.00">Obesity II</text>
<polygon fill="none" stroke="black" points="407.5,-444 407.5,-514 550.75,-514 550.75,-444 407.5,-444"/>
</g>
<!-- n_0_1_2_3_4_6 -->
<g id="node2" class="node">
<title>n_0_1_2_3_4_6</title>
<polygon fill="none" stroke="black" points="334,-342 334,-392 422.25,-392 422.25,-342 334,-342"/>
<text text-anchor="start" x="341" y="-377.45" font-family="Times New Roman,serif" font-weight="bold" font-size="9.00">Insufficient weight</text>
<text text-anchor="start" x="363.12" y="-368.45" font-family="Times New Roman,serif" font-weight="bold" font-size="9.00">Normal</text>
<text text-anchor="start" x="352.62" y="-359.45" font-family="Times New Roman,serif" font-weight="bold" font-size="9.00">Overweight I</text>
<text text-anchor="start" x="351.12" y="-350.45" font-family="Times New Roman,serif" font-weight="bold" font-size="9.00">Overweight II</text>
<polygon fill="none" stroke="black" points="422.25,-342 422.25,-392 478.25,-392 478.25,-342 422.25,-342"/>
<text text-anchor="start" x="432.25" y="-368.45" font-family="Times New Roman,serif" font-weight="bold" font-size="9.00">Obesity I</text>
<text text-anchor="start" x="429.25" y="-359.45" font-family="Times New Roman,serif" font-weight="bold" font-size="9.00">Obesity III</text>
<polygon fill="none" stroke="black" points="333,-341 333,-393 479.25,-393 479.25,-341 333,-341"/>
</g>
<!-- n_0_1_2_3_4_5_6&#45;&gt;n_0_1_2_3_4_6 -->
<g id="edge1" class="edge">
<title>n_0_1_2_3_4_5_6&#45;&gt;n_0_1_2_3_4_6</title>
<path fill="none" stroke="black" d="M454,-440.14C446.73,-429.19 438.79,-417.22 431.5,-406.23"/>
<polygon fill="black" stroke="black" points="434.58,-404.55 426.13,-398.15 428.75,-408.42 434.58,-404.55"/>
</g>
<!-- n_5 -->
<g id="node13" class="node">
<title>n_5</title>
<polygon fill="none" stroke="black" points="525.62,-354.38 525.62,-379.62 578.62,-379.62 578.62,-354.38 525.62,-354.38"/>
<text text-anchor="start" x="532.62" y="-365.07" font-family="Times New Roman,serif" font-weight="bold" font-size="9.00">Obesity II</text>
<polygon fill="none" stroke="black" points="524.62,-353.38 524.62,-380.62 579.62,-380.62 579.62,-353.38 524.62,-353.38"/>
</g>
<!-- n_0_1_2_3_4_5_6&#45;&gt;n_5 -->
<g id="edge12" class="edge">
<title>n_0_1_2_3_4_5_6&#45;&gt;n_5</title>
<path fill="none" stroke="black" d="M504.25,-440.14C514.27,-425.04 525.56,-408.02 534.67,-394.31"/>
<polygon fill="black" stroke="black" points="537.4,-396.51 540.02,-386.24 531.57,-392.64 537.4,-396.51"/>
</g>
<!-- n_0_1_2_3 -->
<g id="node3" class="node">
<title>n_0_1_2_3</title>
<polygon fill="none" stroke="black" points="239,-248 239,-289 327.25,-289 327.25,-248 239,-248"/>
<text text-anchor="start" x="246" y="-274.45" font-family="Times New Roman,serif" font-weight="bold" font-size="9.00">Insufficient weight</text>
<text text-anchor="start" x="268.12" y="-265.45" font-family="Times New Roman,serif" font-weight="bold" font-size="9.00">Normal</text>
<text text-anchor="start" x="257.62" y="-256.45" font-family="Times New Roman,serif" font-weight="bold" font-size="9.00">Overweight I</text>
<polygon fill="none" stroke="black" points="327.25,-248 327.25,-289 395.25,-289 395.25,-248 327.25,-248"/>
<text text-anchor="start" x="334.25" y="-266.57" font-family="Times New Roman,serif" font-weight="bold" font-size="9.00">Overweight II</text>
<polygon fill="none" stroke="black" points="238,-247 238,-290 396.25,-290 396.25,-247 238,-247"/>
</g>
<!-- n_0_1_2_3_4_6&#45;&gt;n_0_1_2_3 -->
<g id="edge2" class="edge">
<title>n_0_1_2_3_4_6&#45;&gt;n_0_1_2_3</title>
<path fill="none" stroke="black" d="M379.42,-337.05C369.3,-326.08 357.71,-313.51 347.3,-302.22"/>
<polygon fill="black" stroke="black" points="349.98,-299.97 340.63,-294.99 344.84,-304.71 349.98,-299.97"/>
</g>
<!-- n_4_6 -->
<g id="node10" class="node">
<title>n_4_6</title>
<polygon fill="none" stroke="black" points="442.12,-255.88 442.12,-281.12 492.12,-281.12 492.12,-255.88 442.12,-255.88"/>
<text text-anchor="start" x="449.12" y="-266.57" font-family="Times New Roman,serif" font-weight="bold" font-size="9.00">Obesity I</text>
<polygon fill="none" stroke="black" points="492.12,-255.88 492.12,-281.12 548.12,-281.12 548.12,-255.88 492.12,-255.88"/>
<text text-anchor="start" x="499.12" y="-266.57" font-family="Times New Roman,serif" font-weight="bold" font-size="9.00">Obesity III</text>
<polygon fill="none" stroke="black" points="441.12,-254.88 441.12,-282.12 549.12,-282.12 549.12,-254.88 441.12,-254.88"/>
</g>
<!-- n_0_1_2_3_4_6&#45;&gt;n_4_6 -->
<g id="edge9" class="edge">
<title>n_0_1_2_3_4_6&#45;&gt;n_4_6</title>
<path fill="none" stroke="black" d="M432.83,-337.05C445.23,-323.6 459.83,-307.77 471.78,-294.81"/>
<polygon fill="black" stroke="black" points="474.34,-297.2 478.54,-287.48 469.19,-292.46 474.34,-297.2"/>
</g>
<!-- n_0_1_2 -->
<g id="node4" class="node">
<title>n_0_1_2</title>
<polygon fill="none" stroke="black" points="122,-163 122,-195 210.25,-195 210.25,-163 122,-163"/>
<text text-anchor="start" x="129" y="-180.45" font-family="Times New Roman,serif" font-weight="bold" font-size="9.00">Insufficient weight</text>
<text text-anchor="start" x="140.62" y="-171.45" font-family="Times New Roman,serif" font-weight="bold" font-size="9.00">Overweight I</text>
<polygon fill="none" stroke="black" points="210.25,-163 210.25,-195 254.25,-195 254.25,-163 210.25,-163"/>
<text text-anchor="start" x="217.25" y="-177.07" font-family="Times New Roman,serif" font-weight="bold" font-size="9.00">Normal</text>
<polygon fill="none" stroke="black" points="121,-162 121,-196 255.25,-196 255.25,-162 121,-162"/>
</g>
<!-- n_0_1_2_3&#45;&gt;n_0_1_2 -->
<g id="edge3" class="edge">
<title>n_0_1_2_3&#45;&gt;n_0_1_2</title>
<path fill="none" stroke="black" d="M281.19,-243.13C264.21,-231.61 243.91,-217.84 226.62,-206.11"/>
<polygon fill="black" stroke="black" points="228.85,-203.39 218.61,-200.68 224.92,-209.19 228.85,-203.39"/>
</g>
<!-- n_3 -->
<g id="node9" class="node">
<title>n_3</title>
<polygon fill="none" stroke="black" points="301.12,-166.38 301.12,-191.62 369.12,-191.62 369.12,-166.38 301.12,-166.38"/>
<text text-anchor="start" x="308.12" y="-177.07" font-family="Times New Roman,serif" font-weight="bold" font-size="9.00">Overweight II</text>
<polygon fill="none" stroke="black" points="300.12,-165.38 300.12,-192.62 370.12,-192.62 370.12,-165.38 300.12,-165.38"/>
</g>
<!-- n_0_1_2_3&#45;&gt;n_3 -->
<g id="edge8" class="edge">
<title>n_0_1_2_3&#45;&gt;n_3</title>
<path fill="none" stroke="black" d="M322.14,-243.13C324.39,-232.17 327.07,-219.18 329.4,-207.84"/>
<polygon fill="black" stroke="black" points="332.78,-208.75 331.37,-198.25 325.93,-207.34 332.78,-208.75"/>
</g>
<!-- n_0_2 -->
<g id="node5" class="node">
<title>n_0_2</title>
<polygon fill="none" stroke="black" points="38.5,-84.38 38.5,-109.62 126.75,-109.62 126.75,-84.38 38.5,-84.38"/>
<text text-anchor="start" x="45.5" y="-95.08" font-family="Times New Roman,serif" font-weight="bold" font-size="9.00">Insufficient weight</text>
<polygon fill="none" stroke="black" points="126.75,-84.38 126.75,-109.62 191.75,-109.62 191.75,-84.38 126.75,-84.38"/>
<text text-anchor="start" x="133.75" y="-95.08" font-family="Times New Roman,serif" font-weight="bold" font-size="9.00">Overweight I</text>
<polygon fill="none" stroke="black" points="37.5,-83.38 37.5,-110.62 192.75,-110.62 192.75,-83.38 37.5,-83.38"/>
</g>
<!-- n_0_1_2&#45;&gt;n_0_2 -->
<g id="edge4" class="edge">
<title>n_0_1_2&#45;&gt;n_0_2</title>
<path fill="none" stroke="black" d="M170.08,-158.22C160.39,-147.61 148.35,-134.41 138,-123.07"/>
<polygon fill="black" stroke="black" points="140.84,-120.99 131.52,-115.96 135.67,-125.71 140.84,-120.99"/>
</g>
<!-- n_1 -->
<g id="node8" class="node">
<title>n_1</title>
<polygon fill="none" stroke="black" points="239.12,-84.38 239.12,-109.62 283.12,-109.62 283.12,-84.38 239.12,-84.38"/>
<text text-anchor="start" x="246.12" y="-95.08" font-family="Times New Roman,serif" font-weight="bold" font-size="9.00">Normal</text>
<polygon fill="none" stroke="black" points="238.12,-83.38 238.12,-110.62 284.12,-110.62 284.12,-83.38 238.12,-83.38"/>
</g>
<!-- n_0_1_2&#45;&gt;n_1 -->
<g id="edge7" class="edge">
<title>n_0_1_2&#45;&gt;n_1</title>
<path fill="none" stroke="black" d="M206.17,-158.22C215.86,-147.61 227.9,-134.41 238.25,-123.07"/>
<polygon fill="black" stroke="black" points="240.58,-125.71 244.73,-115.96 235.41,-120.99 240.58,-125.71"/>
</g>
<!-- n_0 -->
<g id="node6" class="node">
<title>n_0</title>
<polygon fill="none" stroke="black" points="9,-5.38 9,-30.62 97.25,-30.62 97.25,-5.38 9,-5.38"/>
<text text-anchor="start" x="16" y="-16.07" font-family="Times New Roman,serif" font-weight="bold" font-size="9.00">Insufficient weight</text>
<polygon fill="none" stroke="black" points="8,-4.38 8,-31.62 98.25,-31.62 98.25,-4.38 8,-4.38"/>
</g>
<!-- n_0_2&#45;&gt;n_0 -->
<g id="edge5" class="edge">
<title>n_0_2&#45;&gt;n_0</title>
<path fill="none" stroke="black" d="M101.67,-79.29C93.52,-69.17 82.96,-56.05 73.77,-44.64"/>
<polygon fill="black" stroke="black" points="76.71,-42.71 67.72,-37.12 71.26,-47.1 76.71,-42.71"/>
</g>
<!-- n_2 -->
<g id="node7" class="node">
<title>n_2</title>
<polygon fill="none" stroke="black" points="144.62,-5.38 144.62,-30.62 209.62,-30.62 209.62,-5.38 144.62,-5.38"/>
<text text-anchor="start" x="151.62" y="-16.07" font-family="Times New Roman,serif" font-weight="bold" font-size="9.00">Overweight I</text>
<polygon fill="none" stroke="black" points="143.62,-4.38 143.62,-31.62 210.62,-31.62 210.62,-4.38 143.62,-4.38"/>
</g>
<!-- n_0_2&#45;&gt;n_2 -->
<g id="edge6" class="edge">
<title>n_0_2&#45;&gt;n_2</title>
<path fill="none" stroke="black" d="M128.58,-79.29C136.73,-69.17 147.29,-56.05 156.48,-44.64"/>
<polygon fill="black" stroke="black" points="158.99,-47.1 162.53,-37.12 153.54,-42.71 158.99,-47.1"/>
</g>
<!-- n_4 -->
<g id="node11" class="node">
<title>n_4</title>
<polygon fill="none" stroke="black" points="452.12,-166.38 452.12,-191.62 502.12,-191.62 502.12,-166.38 452.12,-166.38"/>
<text text-anchor="start" x="459.12" y="-177.07" font-family="Times New Roman,serif" font-weight="bold" font-size="9.00">Obesity I</text>
<polygon fill="none" stroke="black" points="451.12,-165.38 451.12,-192.62 503.12,-192.62 503.12,-165.38 451.12,-165.38"/>
</g>
<!-- n_4_6&#45;&gt;n_4 -->
<g id="edge10" class="edge">
<title>n_4_6&#45;&gt;n_4</title>
<path fill="none" stroke="black" d="M491.65,-250.63C489.16,-238.52 485.75,-221.94 482.86,-207.88"/>
<polygon fill="black" stroke="black" points="486.33,-207.39 480.89,-198.3 479.48,-208.8 486.33,-207.39"/>
</g>
<!-- n_6 -->
<g id="node12" class="node">
<title>n_6</title>
<polygon fill="none" stroke="black" points="549.12,-166.38 549.12,-191.62 605.12,-191.62 605.12,-166.38 549.12,-166.38"/>
<text text-anchor="start" x="556.12" y="-177.07" font-family="Times New Roman,serif" font-weight="bold" font-size="9.00">Obesity III</text>
<polygon fill="none" stroke="black" points="548.12,-165.38 548.12,-192.62 606.12,-192.62 606.12,-165.38 548.12,-165.38"/>
</g>
<!-- n_4_6&#45;&gt;n_6 -->
<g id="edge11" class="edge">
<title>n_4_6&#45;&gt;n_6</title>
<path fill="none" stroke="black" d="M510.94,-250.63C523.07,-237.68 540.02,-219.59 553.73,-204.97"/>
<polygon fill="black" stroke="black" points="556.04,-207.61 560.33,-197.92 550.94,-202.83 556.04,-207.61"/>
</g>
</g>
</svg>
