<?xml version="1.0" encoding="UTF-8" standalone="no"?>
<!DOCTYPE svg PUBLIC "-//W3C//DTD SVG 1.1//EN"
 "http://www.w3.org/Graphics/SVG/1.1/DTD/svg11.dtd">
<!-- Generated by graphviz version 10.0.1 (20240210.2158)
 -->
<!-- Title: ND Pages: 1 -->
<svg width="546pt" height="535pt"
 viewBox="0.00 0.00 546.00 535.00" xmlns="http://www.w3.org/2000/svg" xmlns:xlink="http://www.w3.org/1999/xlink">
<g id="graph0" class="graph" transform="scale(1 1) rotate(0) translate(4 531)">
<title>ND</title>
<polygon fill="white" stroke="none" points="-4,4 -4,-531 542,-531 542,4 -4,4"/>
<!-- n_0_1_2_3_4_5_6 -->
<g id="node1" class="node">
<title>n_0_1_2_3_4_5_6</title>
<polygon fill="none" stroke="black" points="362.88,-454 362.88,-522 451.12,-522 451.12,-454 362.88,-454"/>
<text text-anchor="start" x="369.88" y="-507.45" font-family="Times New Roman,serif" font-weight="bold" font-size="9.00">Insufficient weight</text>
<text text-anchor="start" x="392" y="-498.45" font-family="Times New Roman,serif" font-weight="bold" font-size="9.00">Normal</text>
<text text-anchor="start" x="381.5" y="-489.45" font-family="Times New Roman,serif" font-weight="bold" font-size="9.00">Overweight I</text>
<text text-anchor="start" x="380" y="-480.45" font-family="Times New Roman,serif" font-weight="bold" font-size="9.00">Overweight II</text>
<text text-anchor="start" x="387.5" y="-471.45" font-family="Times New Roman,serif" font-weight="bold" font-size="9.00">Obesity II</text>
<text text-anchor="start" x="386" y="-462.45" font-family="Times New Roman,serif" font-weight="bold" font-size="9.00">Obesity III</text>
<polygon fill="none" stroke="black" points="451.12,-454 451.12,-522 501.12,-522 501.12,-454 451.12,-454"/>
<text text-anchor="start" x="458.12" y="-486.07" font-family="Times New Roman,serif" font-weight="bold" font-size="9.00">Obesity I</text>
<polygon fill="none" stroke="black" points="361.88,-453 361.88,-523 502.12,-523 502.12,-453 361.88,-453"/>
</g>
<!-- n_0_1_2_3_5_6 -->
<g id="node2" class="node">
<title>n_0_1_2_3_5_6</title>
<polygon fill="none" stroke="black" points="287.88,-342 287.88,-401 376.12,-401 376.12,-342 287.88,-342"/>
<text text-anchor="start" x="294.88" y="-386.45" font-family="Times New Roman,serif" font-weight="bold" font-size="9.00">Insufficient weight</text>
<text text-anchor="start" x="317" y="-377.45" font-family="Times New Roman,serif" font-weight="bold" font-size="9.00">Normal</text>
<text text-anchor="start" x="306.5" y="-368.45" font-family="Times New Roman,serif" font-weight="bold" font-size="9.00">Overweight I</text>
<text text-anchor="start" x="305" y="-359.45" font-family="Times New Roman,serif" font-weight="bold" font-size="9.00">Overweight II</text>
<text text-anchor="start" x="312.5" y="-350.45" font-family="Times New Roman,serif" font-weight="bold" font-size="9.00">Obesity II</text>
<polygon fill="none" stroke="black" points="376.12,-342 376.12,-401 432.12,-401 432.12,-342 376.12,-342"/>
<text text-anchor="start" x="383.12" y="-369.57" font-family="Times New Roman,serif" font-weight="bold" font-size="9.00">Obesity III</text>
<polygon fill="none" stroke="black" points="286.88,-341 286.88,-402 433.12,-402 433.12,-341 286.88,-341"/>
</g>
<!-- n_0_1_2_3_4_5_6&#45;&gt;n_0_1_2_3_5_6 -->
<g id="edge1" class="edge">
<title>n_0_1_2_3_4_5_6&#45;&gt;n_0_1_2_3_5_6</title>
<path fill="none" stroke="black" d="M408.22,-449.19C401.38,-438.31 393.87,-426.36 386.85,-415.21"/>
<polygon fill="black" stroke="black" points="389.94,-413.54 381.65,-406.93 384.01,-417.26 389.94,-413.54"/>
</g>
<!-- n_4 -->
<g id="node13" class="node">
<title>n_4</title>
<polygon fill="none" stroke="black" points="479,-358.88 479,-384.12 529,-384.12 529,-358.88 479,-358.88"/>
<text text-anchor="start" x="486" y="-369.57" font-family="Times New Roman,serif" font-weight="bold" font-size="9.00">Obesity I</text>
<polygon fill="none" stroke="black" points="478,-357.88 478,-385.12 530,-385.12 530,-357.88 478,-357.88"/>
</g>
<!-- n_0_1_2_3_4_5_6&#45;&gt;n_4 -->
<g id="edge12" class="edge">
<title>n_0_1_2_3_4_5_6&#45;&gt;n_4</title>
<path fill="none" stroke="black" d="M455.78,-449.19C466.09,-432.78 477.93,-413.96 487.29,-399.07"/>
<polygon fill="black" stroke="black" points="490.17,-401.07 492.53,-390.74 484.24,-397.35 490.17,-401.07"/>
</g>
<!-- n_0_1_2_3_5 -->
<g id="node3" class="node">
<title>n_0_1_2_3_5</title>
<polygon fill="none" stroke="black" points="207.38,-248 207.38,-289 272.38,-289 272.38,-248 207.38,-248"/>
<text text-anchor="start" x="224.88" y="-274.45" font-family="Times New Roman,serif" font-weight="bold" font-size="9.00">Normal</text>
<text text-anchor="start" x="214.38" y="-265.45" font-family="Times New Roman,serif" font-weight="bold" font-size="9.00">Overweight I</text>
<text text-anchor="start" x="220.38" y="-256.45" font-family="Times New Roman,serif" font-weight="bold" font-size="9.00">Obesity II</text>
<polygon fill="none" stroke="black" points="272.38,-248 272.38,-289 360.62,-289 360.62,-248 272.38,-248"/>
<text text-anchor="start" x="279.38" y="-269.95" font-family="Times New Roman,serif" font-weight="bold" font-size="9.00">Insufficient weight</text>
<text text-anchor="start" x="289.5" y="-260.95" font-family="Times New Roman,serif" font-weight="bold" font-size="9.00">Overweight II</text>
<polygon fill="none" stroke="black" points="206.38,-247 206.38,-290 361.62,-290 361.62,-247 206.38,-247"/>
</g>
<!-- n_0_1_2_3_5_6&#45;&gt;n_0_1_2_3_5 -->
<g id="edge2" class="edge">
<title>n_0_1_2_3_5_6&#45;&gt;n_0_1_2_3_5</title>
<path fill="none" stroke="black" d="M334.9,-337.15C326.59,-326.11 317.35,-313.82 309.05,-302.78"/>
<polygon fill="black" stroke="black" points="312.05,-300.96 303.24,-295.07 306.46,-305.16 312.05,-300.96"/>
</g>
<!-- n_6 -->
<g id="node12" class="node">
<title>n_6</title>
<polygon fill="none" stroke="black" points="408,-255.88 408,-281.12 464,-281.12 464,-255.88 408,-255.88"/>
<text text-anchor="start" x="415" y="-266.57" font-family="Times New Roman,serif" font-weight="bold" font-size="9.00">Obesity III</text>
<polygon fill="none" stroke="black" points="407,-254.88 407,-282.12 465,-282.12 465,-254.88 407,-254.88"/>
</g>
<!-- n_0_1_2_3_5_6&#45;&gt;n_6 -->
<g id="edge11" class="edge">
<title>n_0_1_2_3_5_6&#45;&gt;n_6</title>
<path fill="none" stroke="black" d="M385.1,-337.15C395.29,-323.6 406.9,-308.17 416.45,-295.48"/>
<polygon fill="black" stroke="black" points="419.17,-297.68 422.39,-287.59 413.58,-293.48 419.17,-297.68"/>
</g>
<!-- n_1_2_5 -->
<g id="node4" class="node">
<title>n_1_2_5</title>
<polygon fill="none" stroke="black" points="133,-163 133,-195 186,-195 186,-163 133,-163"/>
<text text-anchor="start" x="144.5" y="-180.45" font-family="Times New Roman,serif" font-weight="bold" font-size="9.00">Normal</text>
<text text-anchor="start" x="140" y="-171.45" font-family="Times New Roman,serif" font-weight="bold" font-size="9.00">Obesity II</text>
<polygon fill="none" stroke="black" points="186,-163 186,-195 251,-195 251,-163 186,-163"/>
<text text-anchor="start" x="193" y="-177.07" font-family="Times New Roman,serif" font-weight="bold" font-size="9.00">Overweight I</text>
<polygon fill="none" stroke="black" points="132,-162 132,-196 252,-196 252,-162 132,-162"/>
</g>
<!-- n_0_1_2_3_5&#45;&gt;n_1_2_5 -->
<g id="edge3" class="edge">
<title>n_0_1_2_3_5&#45;&gt;n_1_2_5</title>
<path fill="none" stroke="black" d="M258.37,-243.13C246.82,-232.14 233.12,-219.11 221.18,-207.75"/>
<polygon fill="black" stroke="black" points="223.6,-205.22 213.94,-200.87 218.78,-210.3 223.6,-205.22"/>
</g>
<!-- n_0_3 -->
<g id="node9" class="node">
<title>n_0_3</title>
<polygon fill="none" stroke="black" points="297.88,-166.38 297.88,-191.62 386.12,-191.62 386.12,-166.38 297.88,-166.38"/>
<text text-anchor="start" x="304.88" y="-177.07" font-family="Times New Roman,serif" font-weight="bold" font-size="9.00">Insufficient weight</text>
<polygon fill="none" stroke="black" points="386.12,-166.38 386.12,-191.62 454.12,-191.62 454.12,-166.38 386.12,-166.38"/>
<text text-anchor="start" x="393.12" y="-177.07" font-family="Times New Roman,serif" font-weight="bold" font-size="9.00">Overweight II</text>
<polygon fill="none" stroke="black" points="296.88,-165.38 296.88,-192.62 455.12,-192.62 455.12,-165.38 296.88,-165.38"/>
</g>
<!-- n_0_1_2_3_5&#45;&gt;n_0_3 -->
<g id="edge8" class="edge">
<title>n_0_1_2_3_5&#45;&gt;n_0_3</title>
<path fill="none" stroke="black" d="M309.63,-243.13C322.24,-231.13 337.42,-216.7 350.07,-204.66"/>
<polygon fill="black" stroke="black" points="352.44,-207.24 357.27,-197.81 347.61,-202.17 352.44,-207.24"/>
</g>
<!-- n_1_5 -->
<g id="node5" class="node">
<title>n_1_5</title>
<polygon fill="none" stroke="black" points="30.5,-84.38 30.5,-109.62 74.5,-109.62 74.5,-84.38 30.5,-84.38"/>
<text text-anchor="start" x="37.5" y="-95.08" font-family="Times New Roman,serif" font-weight="bold" font-size="9.00">Normal</text>
<polygon fill="none" stroke="black" points="74.5,-84.38 74.5,-109.62 127.5,-109.62 127.5,-84.38 74.5,-84.38"/>
<text text-anchor="start" x="81.5" y="-95.08" font-family="Times New Roman,serif" font-weight="bold" font-size="9.00">Obesity II</text>
<polygon fill="none" stroke="black" points="29.5,-83.38 29.5,-110.62 128.5,-110.62 128.5,-83.38 29.5,-83.38"/>
</g>
<!-- n_1_2_5&#45;&gt;n_1_5 -->
<g id="edge4" class="edge">
<title>n_1_2_5&#45;&gt;n_1_5</title>
<path fill="none" stroke="black" d="M163.78,-158.02C148.04,-146.88 128.36,-132.94 111.92,-121.31"/>
<polygon fill="black" stroke="black" points="114.09,-118.55 103.91,-115.63 110.05,-124.27 114.09,-118.55"/>
</g>
<!-- n_2 -->
<g id="node8" class="node">
<title>n_2</title>
<polygon fill="none" stroke="black" points="174.5,-84.38 174.5,-109.62 239.5,-109.62 239.5,-84.38 174.5,-84.38"/>
<text text-anchor="start" x="181.5" y="-95.08" font-family="Times New Roman,serif" font-weight="bold" font-size="9.00">Overweight I</text>
<polygon fill="none" stroke="black" points="173.5,-83.38 173.5,-110.62 240.5,-110.62 240.5,-83.38 173.5,-83.38"/>
</g>
<!-- n_1_2_5&#45;&gt;n_2 -->
<g id="edge7" class="edge">
<title>n_1_2_5&#45;&gt;n_2</title>
<path fill="none" stroke="black" d="M195.71,-158.22C197.52,-148.54 199.74,-136.72 201.73,-126.11"/>
<polygon fill="black" stroke="black" points="205.16,-126.81 203.56,-116.33 198.28,-125.52 205.16,-126.81"/>
</g>
<!-- n_1 -->
<g id="node6" class="node">
<title>n_1</title>
<polygon fill="none" stroke="black" points="9,-5.38 9,-30.62 53,-30.62 53,-5.38 9,-5.38"/>
<text text-anchor="start" x="16" y="-16.07" font-family="Times New Roman,serif" font-weight="bold" font-size="9.00">Normal</text>
<polygon fill="none" stroke="black" points="8,-4.38 8,-31.62 54,-31.62 54,-4.38 8,-4.38"/>
</g>
<!-- n_1_5&#45;&gt;n_1 -->
<g id="edge5" class="edge">
<title>n_1_5&#45;&gt;n_1</title>
<path fill="none" stroke="black" d="M68.58,-79.29C62.46,-69.47 54.58,-56.83 47.62,-45.66"/>
<polygon fill="black" stroke="black" points="50.62,-43.86 42.36,-37.23 44.68,-47.56 50.62,-43.86"/>
</g>
<!-- n_5 -->
<g id="node7" class="node">
<title>n_5</title>
<polygon fill="none" stroke="black" points="100.5,-5.38 100.5,-30.62 153.5,-30.62 153.5,-5.38 100.5,-5.38"/>
<text text-anchor="start" x="107.5" y="-16.07" font-family="Times New Roman,serif" font-weight="bold" font-size="9.00">Obesity II</text>
<polygon fill="none" stroke="black" points="99.5,-4.38 99.5,-31.62 154.5,-31.62 154.5,-4.38 99.5,-4.38"/>
</g>
<!-- n_1_5&#45;&gt;n_5 -->
<g id="edge6" class="edge">
<title>n_1_5&#45;&gt;n_5</title>
<path fill="none" stroke="black" d="M89.42,-79.29C95.54,-69.47 103.42,-56.83 110.38,-45.66"/>
<polygon fill="black" stroke="black" points="113.32,-47.56 115.64,-37.23 107.38,-43.86 113.32,-47.56"/>
</g>
<!-- n_0 -->
<g id="node10" class="node">
<title>n_0</title>
<polygon fill="none" stroke="black" points="316.88,-84.38 316.88,-109.62 405.12,-109.62 405.12,-84.38 316.88,-84.38"/>
<text text-anchor="start" x="323.88" y="-95.08" font-family="Times New Roman,serif" font-weight="bold" font-size="9.00">Insufficient weight</text>
<polygon fill="none" stroke="black" points="315.88,-83.38 315.88,-110.62 406.12,-110.62 406.12,-83.38 315.88,-83.38"/>
</g>
<!-- n_0_3&#45;&gt;n_0 -->
<g id="edge9" class="edge">
<title>n_0_3&#45;&gt;n_0</title>
<path fill="none" stroke="black" d="M372.82,-161.03C370.91,-150.85 368.43,-137.65 366.24,-125.96"/>
<polygon fill="black" stroke="black" points="369.74,-125.61 364.46,-116.43 362.86,-126.9 369.74,-125.61"/>
</g>
<!-- n_3 -->
<g id="node11" class="node">
<title>n_3</title>
<polygon fill="none" stroke="black" points="452,-84.38 452,-109.62 520,-109.62 520,-84.38 452,-84.38"/>
<text text-anchor="start" x="459" y="-95.08" font-family="Times New Roman,serif" font-weight="bold" font-size="9.00">Overweight II</text>
<polygon fill="none" stroke="black" points="451,-83.38 451,-110.62 521,-110.62 521,-83.38 451,-83.38"/>
</g>
<!-- n_0_3&#45;&gt;n_3 -->
<g id="edge10" class="edge">
<title>n_0_3&#45;&gt;n_3</title>
<path fill="none" stroke="black" d="M399.33,-161.03C415.08,-149.58 436.09,-134.3 453.47,-121.66"/>
<polygon fill="black" stroke="black" points="455.45,-124.54 461.48,-115.83 451.34,-118.88 455.45,-124.54"/>
</g>
</g>
</svg>
