<?xml version="1.0" encoding="UTF-8" standalone="no"?>
<!DOCTYPE svg PUBLIC "-//W3C//DTD SVG 1.1//EN"
 "http://www.w3.org/Graphics/SVG/1.1/DTD/svg11.dtd">
<!-- Generated by graphviz version 10.0.1 (20240210.2158)
 -->
<!-- Title: ND Pages: 1 -->
<svg width="667pt" height="517pt"
 viewBox="0.00 0.00 666.50 517.00" xmlns="http://www.w3.org/2000/svg" xmlns:xlink="http://www.w3.org/1999/xlink">
<g id="graph0" class="graph" transform="scale(1 1) rotate(0) translate(4 513)">
<title>ND</title>
<polygon fill="white" stroke="none" points="-4,4 -4,-513 662.5,-513 662.5,4 -4,4"/>
<!-- n_0_1_2_3_4_5_6 -->
<g id="node1" class="node">
<title>n_0_1_2_3_4_5_6</title>
<polygon fill="none" stroke="black" points="351.88,-445 351.88,-504 419.88,-504 419.88,-445 351.88,-445"/>
<text text-anchor="start" x="370.88" y="-489.45" font-family="Times New Roman,serif" font-weight="bold" font-size="9.00">Normal</text>
<text text-anchor="start" x="360.38" y="-480.45" font-family="Times New Roman,serif" font-weight="bold" font-size="9.00">Overweight I</text>
<text text-anchor="start" x="358.88" y="-471.45" font-family="Times New Roman,serif" font-weight="bold" font-size="9.00">Overweight II</text>
<text text-anchor="start" x="367.88" y="-462.45" font-family="Times New Roman,serif" font-weight="bold" font-size="9.00">Obesity I</text>
<text text-anchor="start" x="364.88" y="-453.45" font-family="Times New Roman,serif" font-weight="bold" font-size="9.00">Obesity III</text>
<polygon fill="none" stroke="black" points="419.88,-445 419.88,-504 508.12,-504 508.12,-445 419.88,-445"/>
<text text-anchor="start" x="426.88" y="-475.95" font-family="Times New Roman,serif" font-weight="bold" font-size="9.00">Insufficient weight</text>
<text text-anchor="start" x="444.5" y="-466.95" font-family="Times New Roman,serif" font-weight="bold" font-size="9.00">Obesity II</text>
<polygon fill="none" stroke="black" points="350.88,-444 350.88,-505 509.12,-505 509.12,-444 350.88,-444"/>
</g>
<!-- n_1_2_3_4_6 -->
<g id="node2" class="node">
<title>n_1_2_3_4_6</title>
<polygon fill="none" stroke="black" points="278,-342 278,-392 346,-392 346,-342 278,-342"/>
<text text-anchor="start" x="297" y="-377.45" font-family="Times New Roman,serif" font-weight="bold" font-size="9.00">Normal</text>
<text text-anchor="start" x="286.5" y="-368.45" font-family="Times New Roman,serif" font-weight="bold" font-size="9.00">Overweight I</text>
<text text-anchor="start" x="285" y="-359.45" font-family="Times New Roman,serif" font-weight="bold" font-size="9.00">Overweight II</text>
<text text-anchor="start" x="294" y="-350.45" font-family="Times New Roman,serif" font-weight="bold" font-size="9.00">Obesity I</text>
<polygon fill="none" stroke="black" points="346,-342 346,-392 402,-392 402,-342 346,-342"/>
<text text-anchor="start" x="353" y="-365.07" font-family="Times New Roman,serif" font-weight="bold" font-size="9.00">Obesity III</text>
<polygon fill="none" stroke="black" points="277,-341 277,-393 403,-393 403,-341 277,-341"/>
</g>
<!-- n_0_1_2_3_4_5_6&#45;&gt;n_1_2_3_4_6 -->
<g id="edge1" class="edge">
<title>n_0_1_2_3_4_5_6&#45;&gt;n_1_2_3_4_6</title>
<path fill="none" stroke="black" d="M401.52,-440.12C392.08,-429.05 381.52,-416.67 371.84,-405.33"/>
<polygon fill="black" stroke="black" points="374.79,-403.39 365.63,-398.05 369.46,-407.93 374.79,-403.39"/>
</g>
<!-- n_0_5 -->
<g id="node11" class="node">
<title>n_0_5</title>
<polygon fill="none" stroke="black" points="449.38,-354.38 449.38,-379.62 537.62,-379.62 537.62,-354.38 449.38,-354.38"/>
<text text-anchor="start" x="456.38" y="-365.07" font-family="Times New Roman,serif" font-weight="bold" font-size="9.00">Insufficient weight</text>
<polygon fill="none" stroke="black" points="537.62,-354.38 537.62,-379.62 590.62,-379.62 590.62,-354.38 537.62,-354.38"/>
<text text-anchor="start" x="544.62" y="-365.07" font-family="Times New Roman,serif" font-weight="bold" font-size="9.00">Obesity II</text>
<polygon fill="none" stroke="black" points="448.38,-353.38 448.38,-380.62 591.62,-380.62 591.62,-353.38 448.38,-353.38"/>
</g>
<!-- n_0_1_2_3_4_5_6&#45;&gt;n_0_5 -->
<g id="edge10" class="edge">
<title>n_0_1_2_3_4_5_6&#45;&gt;n_0_5</title>
<path fill="none" stroke="black" d="M458.48,-440.12C471.32,-425.06 486.25,-407.57 498.18,-393.58"/>
<polygon fill="black" stroke="black" points="500.73,-395.98 504.56,-386.1 495.4,-391.44 500.73,-395.98"/>
</g>
<!-- n_1_2_3_4 -->
<g id="node3" class="node">
<title>n_1_2_3_4</title>
<polygon fill="none" stroke="black" points="147.5,-248 147.5,-289 212.5,-289 212.5,-248 147.5,-248"/>
<text text-anchor="start" x="165" y="-274.45" font-family="Times New Roman,serif" font-weight="bold" font-size="9.00">Normal</text>
<text text-anchor="start" x="154.5" y="-265.45" font-family="Times New Roman,serif" font-weight="bold" font-size="9.00">Overweight I</text>
<text text-anchor="start" x="162" y="-256.45" font-family="Times New Roman,serif" font-weight="bold" font-size="9.00">Obesity I</text>
<polygon fill="none" stroke="black" points="212.5,-248 212.5,-289 280.5,-289 280.5,-248 212.5,-248"/>
<text text-anchor="start" x="219.5" y="-266.57" font-family="Times New Roman,serif" font-weight="bold" font-size="9.00">Overweight II</text>
<polygon fill="none" stroke="black" points="146.5,-247 146.5,-290 281.5,-290 281.5,-247 146.5,-247"/>
</g>
<!-- n_1_2_3_4_6&#45;&gt;n_1_2_3_4 -->
<g id="edge2" class="edge">
<title>n_1_2_3_4_6&#45;&gt;n_1_2_3_4</title>
<path fill="none" stroke="black" d="M302.2,-337.05C287.17,-325.54 269.85,-312.27 254.56,-300.56"/>
<polygon fill="black" stroke="black" points="257.09,-298.1 247.03,-294.79 252.84,-303.65 257.09,-298.1"/>
</g>
<!-- n_6 -->
<g id="node10" class="node">
<title>n_6</title>
<polygon fill="none" stroke="black" points="328,-255.88 328,-281.12 384,-281.12 384,-255.88 328,-255.88"/>
<text text-anchor="start" x="335" y="-266.57" font-family="Times New Roman,serif" font-weight="bold" font-size="9.00">Obesity III</text>
<polygon fill="none" stroke="black" points="327,-254.88 327,-282.12 385,-282.12 385,-254.88 327,-254.88"/>
</g>
<!-- n_1_2_3_4_6&#45;&gt;n_6 -->
<g id="edge9" class="edge">
<title>n_1_2_3_4_6&#45;&gt;n_6</title>
<path fill="none" stroke="black" d="M344.8,-337.05C346.88,-324.51 349.3,-309.89 351.36,-297.47"/>
<polygon fill="black" stroke="black" points="354.77,-298.3 352.96,-287.86 347.87,-297.15 354.77,-298.3"/>
</g>
<!-- n_1_2_4 -->
<g id="node4" class="node">
<title>n_1_2_4</title>
<polygon fill="none" stroke="black" points="87.5,-163 87.5,-195 152.5,-195 152.5,-163 87.5,-163"/>
<text text-anchor="start" x="105" y="-180.45" font-family="Times New Roman,serif" font-weight="bold" font-size="9.00">Normal</text>
<text text-anchor="start" x="94.5" y="-171.45" font-family="Times New Roman,serif" font-weight="bold" font-size="9.00">Overweight I</text>
<polygon fill="none" stroke="black" points="152.5,-163 152.5,-195 202.5,-195 202.5,-163 152.5,-163"/>
<text text-anchor="start" x="159.5" y="-177.07" font-family="Times New Roman,serif" font-weight="bold" font-size="9.00">Obesity I</text>
<polygon fill="none" stroke="black" points="86.5,-162 86.5,-196 203.5,-196 203.5,-162 86.5,-162"/>
</g>
<!-- n_1_2_3_4&#45;&gt;n_1_2_4 -->
<g id="edge3" class="edge">
<title>n_1_2_3_4&#45;&gt;n_1_2_4</title>
<path fill="none" stroke="black" d="M194.78,-243.13C186.37,-232.46 176.44,-219.87 167.67,-208.75"/>
<polygon fill="black" stroke="black" points="170.51,-206.7 161.57,-201.01 165.02,-211.03 170.51,-206.7"/>
</g>
<!-- n_3 -->
<g id="node9" class="node">
<title>n_3</title>
<polygon fill="none" stroke="black" points="250,-166.38 250,-191.62 318,-191.62 318,-166.38 250,-166.38"/>
<text text-anchor="start" x="257" y="-177.07" font-family="Times New Roman,serif" font-weight="bold" font-size="9.00">Overweight II</text>
<polygon fill="none" stroke="black" points="249,-165.38 249,-192.62 319,-192.62 319,-165.38 249,-165.38"/>
</g>
<!-- n_1_2_3_4&#45;&gt;n_3 -->
<g id="edge8" class="edge">
<title>n_1_2_3_4&#45;&gt;n_3</title>
<path fill="none" stroke="black" d="M233.5,-243.13C242.82,-231.48 253.98,-217.53 263.43,-205.71"/>
<polygon fill="black" stroke="black" points="266.12,-207.95 269.64,-197.95 260.66,-203.57 266.12,-207.95"/>
</g>
<!-- n_1_2 -->
<g id="node5" class="node">
<title>n_1_2</title>
<polygon fill="none" stroke="black" points="27.5,-84.38 27.5,-109.62 71.5,-109.62 71.5,-84.38 27.5,-84.38"/>
<text text-anchor="start" x="34.5" y="-95.08" font-family="Times New Roman,serif" font-weight="bold" font-size="9.00">Normal</text>
<polygon fill="none" stroke="black" points="71.5,-84.38 71.5,-109.62 136.5,-109.62 136.5,-84.38 71.5,-84.38"/>
<text text-anchor="start" x="78.5" y="-95.08" font-family="Times New Roman,serif" font-weight="bold" font-size="9.00">Overweight I</text>
<polygon fill="none" stroke="black" points="26.5,-83.38 26.5,-110.62 137.5,-110.62 137.5,-83.38 26.5,-83.38"/>
</g>
<!-- n_1_2_4&#45;&gt;n_1_2 -->
<g id="edge4" class="edge">
<title>n_1_2_4&#45;&gt;n_1_2</title>
<path fill="none" stroke="black" d="M129.43,-158.22C121.23,-147.81 111.08,-134.92 102.27,-123.74"/>
<polygon fill="black" stroke="black" points="105.14,-121.72 96.2,-116.03 99.64,-126.05 105.14,-121.72"/>
</g>
<!-- n_4 -->
<g id="node8" class="node">
<title>n_4</title>
<polygon fill="none" stroke="black" points="184,-84.38 184,-109.62 234,-109.62 234,-84.38 184,-84.38"/>
<text text-anchor="start" x="191" y="-95.08" font-family="Times New Roman,serif" font-weight="bold" font-size="9.00">Obesity I</text>
<polygon fill="none" stroke="black" points="183,-83.38 183,-110.62 235,-110.62 235,-83.38 183,-83.38"/>
</g>
<!-- n_1_2_4&#45;&gt;n_4 -->
<g id="edge7" class="edge">
<title>n_1_2_4&#45;&gt;n_4</title>
<path fill="none" stroke="black" d="M160.82,-158.22C169.15,-147.81 179.46,-134.92 188.41,-123.74"/>
<polygon fill="black" stroke="black" points="191.07,-126.02 194.58,-116.03 185.6,-121.65 191.07,-126.02"/>
</g>
<!-- n_1 -->
<g id="node6" class="node">
<title>n_1</title>
<polygon fill="none" stroke="black" points="9,-5.38 9,-30.62 53,-30.62 53,-5.38 9,-5.38"/>
<text text-anchor="start" x="16" y="-16.07" font-family="Times New Roman,serif" font-weight="bold" font-size="9.00">Normal</text>
<polygon fill="none" stroke="black" points="8,-4.38 8,-31.62 54,-31.62 54,-4.38 8,-4.38"/>
</g>
<!-- n_1_2&#45;&gt;n_1 -->
<g id="edge5" class="edge">
<title>n_1_2&#45;&gt;n_1</title>
<path fill="none" stroke="black" d="M70.93,-79.29C64.36,-69.37 55.89,-56.57 48.43,-45.32"/>
<polygon fill="black" stroke="black" points="51.5,-43.61 43.06,-37.2 45.66,-47.47 51.5,-43.61"/>
</g>
<!-- n_2 -->
<g id="node7" class="node">
<title>n_2</title>
<polygon fill="none" stroke="black" points="100.5,-5.38 100.5,-30.62 165.5,-30.62 165.5,-5.38 100.5,-5.38"/>
<text text-anchor="start" x="107.5" y="-16.07" font-family="Times New Roman,serif" font-weight="bold" font-size="9.00">Overweight I</text>
<polygon fill="none" stroke="black" points="99.5,-4.38 99.5,-31.62 166.5,-31.62 166.5,-4.38 99.5,-4.38"/>
</g>
<!-- n_1_2&#45;&gt;n_2 -->
<g id="edge6" class="edge">
<title>n_1_2&#45;&gt;n_2</title>
<path fill="none" stroke="black" d="M93.07,-79.29C99.64,-69.37 108.11,-56.57 115.57,-45.32"/>
<polygon fill="black" stroke="black" points="118.34,-47.47 120.94,-37.2 112.5,-43.61 118.34,-47.47"/>
</g>
<!-- n_0 -->
<g id="node12" class="node">
<title>n_0</title>
<polygon fill="none" stroke="black" points="460.88,-255.88 460.88,-281.12 549.12,-281.12 549.12,-255.88 460.88,-255.88"/>
<text text-anchor="start" x="467.88" y="-266.57" font-family="Times New Roman,serif" font-weight="bold" font-size="9.00">Insufficient weight</text>
<polygon fill="none" stroke="black" points="459.88,-254.88 459.88,-282.12 550.12,-282.12 550.12,-254.88 459.88,-254.88"/>
</g>
<!-- n_0_5&#45;&gt;n_0 -->
<g id="edge11" class="edge">
<title>n_0_5&#45;&gt;n_0</title>
<path fill="none" stroke="black" d="M517.39,-349.19C515.19,-335.03 511.99,-314.46 509.39,-297.76"/>
<polygon fill="black" stroke="black" points="512.86,-297.28 507.87,-287.94 505.94,-298.35 512.86,-297.28"/>
</g>
<!-- n_5 -->
<g id="node13" class="node">
<title>n_5</title>
<polygon fill="none" stroke="black" points="596.5,-255.88 596.5,-281.12 649.5,-281.12 649.5,-255.88 596.5,-255.88"/>
<text text-anchor="start" x="603.5" y="-266.57" font-family="Times New Roman,serif" font-weight="bold" font-size="9.00">Obesity II</text>
<polygon fill="none" stroke="black" points="595.5,-254.88 595.5,-282.12 650.5,-282.12 650.5,-254.88 595.5,-254.88"/>
</g>
<!-- n_0_5&#45;&gt;n_5 -->
<g id="edge12" class="edge">
<title>n_0_5&#45;&gt;n_5</title>
<path fill="none" stroke="black" d="M537.94,-349.19C554.24,-333.93 578.47,-311.22 596.9,-293.95"/>
<polygon fill="black" stroke="black" points="598.91,-296.87 603.81,-287.47 594.12,-291.76 598.91,-296.87"/>
</g>
</g>
</svg>
