<?xml version="1.0" encoding="UTF-8" standalone="no"?>
<!DOCTYPE svg PUBLIC "-//W3C//DTD SVG 1.1//EN"
 "http://www.w3.org/Graphics/SVG/1.1/DTD/svg11.dtd">
<!-- Generated by graphviz version 10.0.1 (20240210.2158)
 -->
<!-- Title: ND Pages: 1 -->
<svg width="620pt" height="405pt"
 viewBox="0.00 0.00 620.00 405.00" xmlns="http://www.w3.org/2000/svg" xmlns:xlink="http://www.w3.org/1999/xlink">
<g id="graph0" class="graph" transform="scale(1 1) rotate(0) translate(4 401)">
<title>ND</title>
<polygon fill="white" stroke="none" points="-4,4 -4,-401 616,-401 616,4 -4,4"/>
<!-- n_0_1_2_3_4_5_6 -->
<g id="node1" class="node">
<title>n_0_1_2_3_4_5_6</title>
<polygon fill="none" stroke="black" points="262.88,-342 262.88,-392 330.88,-392 330.88,-342 262.88,-342"/>
<text text-anchor="start" x="281.88" y="-377.45" font-family="Times New Roman,serif" font-weight="bold" font-size="9.00">Normal</text>
<text text-anchor="start" x="269.88" y="-368.45" font-family="Times New Roman,serif" font-weight="bold" font-size="9.00">Overweight II</text>
<text text-anchor="start" x="278.88" y="-359.45" font-family="Times New Roman,serif" font-weight="bold" font-size="9.00">Obesity I</text>
<text text-anchor="start" x="277.38" y="-350.45" font-family="Times New Roman,serif" font-weight="bold" font-size="9.00">Obesity II</text>
<polygon fill="none" stroke="black" points="330.88,-342 330.88,-392 419.12,-392 419.12,-342 330.88,-342"/>
<text text-anchor="start" x="337.88" y="-372.95" font-family="Times New Roman,serif" font-weight="bold" font-size="9.00">Insufficient weight</text>
<text text-anchor="start" x="349.5" y="-363.95" font-family="Times New Roman,serif" font-weight="bold" font-size="9.00">Overweight I</text>
<text text-anchor="start" x="354" y="-354.95" font-family="Times New Roman,serif" font-weight="bold" font-size="9.00">Obesity III</text>
<polygon fill="none" stroke="black" points="261.88,-341 261.88,-393 420.12,-393 420.12,-341 261.88,-341"/>
</g>
<!-- n_1_3_4_5 -->
<g id="node2" class="node">
<title>n_1_3_4_5</title>
<polygon fill="none" stroke="black" points="193,-248 193,-289 261,-289 261,-248 193,-248"/>
<text text-anchor="start" x="212" y="-274.45" font-family="Times New Roman,serif" font-weight="bold" font-size="9.00">Normal</text>
<text text-anchor="start" x="200" y="-265.45" font-family="Times New Roman,serif" font-weight="bold" font-size="9.00">Overweight II</text>
<text text-anchor="start" x="207.5" y="-256.45" font-family="Times New Roman,serif" font-weight="bold" font-size="9.00">Obesity II</text>
<polygon fill="none" stroke="black" points="261,-248 261,-289 311,-289 311,-248 261,-248"/>
<text text-anchor="start" x="268" y="-266.57" font-family="Times New Roman,serif" font-weight="bold" font-size="9.00">Obesity I</text>
<polygon fill="none" stroke="black" points="192,-247 192,-290 312,-290 312,-247 192,-247"/>
</g>
<!-- n_0_1_2_3_4_5_6&#45;&gt;n_1_3_4_5 -->
<g id="edge1" class="edge">
<title>n_0_1_2_3_4_5_6&#45;&gt;n_1_3_4_5</title>
<path fill="none" stroke="black" d="M314.3,-337.05C304.18,-326.08 292.59,-313.51 282.17,-302.22"/>
<polygon fill="black" stroke="black" points="284.86,-299.97 275.51,-294.99 279.71,-304.71 284.86,-299.97"/>
</g>
<!-- n_0_2_6 -->
<g id="node9" class="node">
<title>n_0_2_6</title>
<polygon fill="none" stroke="black" points="357.88,-252.5 357.88,-284.5 446.12,-284.5 446.12,-252.5 357.88,-252.5"/>
<text text-anchor="start" x="364.88" y="-269.95" font-family="Times New Roman,serif" font-weight="bold" font-size="9.00">Insufficient weight</text>
<text text-anchor="start" x="376.5" y="-260.95" font-family="Times New Roman,serif" font-weight="bold" font-size="9.00">Overweight I</text>
<polygon fill="none" stroke="black" points="446.12,-252.5 446.12,-284.5 502.12,-284.5 502.12,-252.5 446.12,-252.5"/>
<text text-anchor="start" x="453.12" y="-266.57" font-family="Times New Roman,serif" font-weight="bold" font-size="9.00">Obesity III</text>
<polygon fill="none" stroke="black" points="356.88,-251.5 356.88,-285.5 503.12,-285.5 503.12,-251.5 356.88,-251.5"/>
</g>
<!-- n_0_1_2_3_4_5_6&#45;&gt;n_0_2_6 -->
<g id="edge8" class="edge">
<title>n_0_1_2_3_4_5_6&#45;&gt;n_0_2_6</title>
<path fill="none" stroke="black" d="M367.7,-337.05C379.27,-324.51 392.75,-309.89 404.21,-297.46"/>
<polygon fill="black" stroke="black" points="406.54,-300.1 410.75,-290.37 401.4,-295.35 406.54,-300.1"/>
</g>
<!-- n_1_3_5 -->
<g id="node3" class="node">
<title>n_1_3_5</title>
<polygon fill="none" stroke="black" points="66.5,-163 66.5,-195 119.5,-195 119.5,-163 66.5,-163"/>
<text text-anchor="start" x="78" y="-180.45" font-family="Times New Roman,serif" font-weight="bold" font-size="9.00">Normal</text>
<text text-anchor="start" x="73.5" y="-171.45" font-family="Times New Roman,serif" font-weight="bold" font-size="9.00">Obesity II</text>
<polygon fill="none" stroke="black" points="119.5,-163 119.5,-195 187.5,-195 187.5,-163 119.5,-163"/>
<text text-anchor="start" x="126.5" y="-177.07" font-family="Times New Roman,serif" font-weight="bold" font-size="9.00">Overweight II</text>
<polygon fill="none" stroke="black" points="65.5,-162 65.5,-196 188.5,-196 188.5,-162 65.5,-162"/>
</g>
<!-- n_1_3_4_5&#45;&gt;n_1_3_5 -->
<g id="edge2" class="edge">
<title>n_1_3_4_5&#45;&gt;n_1_3_5</title>
<path fill="none" stroke="black" d="M217.18,-243.13C200.72,-231.61 181.06,-217.84 164.3,-206.11"/>
<polygon fill="black" stroke="black" points="166.76,-203.56 156.56,-200.69 162.75,-209.3 166.76,-203.56"/>
</g>
<!-- n_4 -->
<g id="node8" class="node">
<title>n_4</title>
<polygon fill="none" stroke="black" points="235,-166.38 235,-191.62 285,-191.62 285,-166.38 235,-166.38"/>
<text text-anchor="start" x="242" y="-177.07" font-family="Times New Roman,serif" font-weight="bold" font-size="9.00">Obesity I</text>
<polygon fill="none" stroke="black" points="234,-165.38 234,-192.62 286,-192.62 286,-165.38 234,-165.38"/>
</g>
<!-- n_1_3_4_5&#45;&gt;n_4 -->
<g id="edge7" class="edge">
<title>n_1_3_4_5&#45;&gt;n_4</title>
<path fill="none" stroke="black" d="M254.23,-243.13C255.22,-232.28 256.39,-219.45 257.42,-208.19"/>
<polygon fill="black" stroke="black" points="260.9,-208.56 258.33,-198.28 253.93,-207.92 260.9,-208.56"/>
</g>
<!-- n_1_5 -->
<g id="node4" class="node">
<title>n_1_5</title>
<polygon fill="none" stroke="black" points="30.5,-84.38 30.5,-109.62 74.5,-109.62 74.5,-84.38 30.5,-84.38"/>
<text text-anchor="start" x="37.5" y="-95.08" font-family="Times New Roman,serif" font-weight="bold" font-size="9.00">Normal</text>
<polygon fill="none" stroke="black" points="74.5,-84.38 74.5,-109.62 127.5,-109.62 127.5,-84.38 74.5,-84.38"/>
<text text-anchor="start" x="81.5" y="-95.08" font-family="Times New Roman,serif" font-weight="bold" font-size="9.00">Obesity II</text>
<polygon fill="none" stroke="black" points="29.5,-83.38 29.5,-110.62 128.5,-110.62 128.5,-83.38 29.5,-83.38"/>
</g>
<!-- n_1_3_5&#45;&gt;n_1_5 -->
<g id="edge3" class="edge">
<title>n_1_3_5&#45;&gt;n_1_5</title>
<path fill="none" stroke="black" d="M115.13,-158.22C109.01,-148.02 101.46,-135.44 94.85,-124.41"/>
<polygon fill="black" stroke="black" points="98.03,-122.92 89.88,-116.14 92.03,-126.52 98.03,-122.92"/>
</g>
<!-- n_3 -->
<g id="node7" class="node">
<title>n_3</title>
<polygon fill="none" stroke="black" points="175,-84.38 175,-109.62 243,-109.62 243,-84.38 175,-84.38"/>
<text text-anchor="start" x="182" y="-95.08" font-family="Times New Roman,serif" font-weight="bold" font-size="9.00">Overweight II</text>
<polygon fill="none" stroke="black" points="174,-83.38 174,-110.62 244,-110.62 244,-83.38 174,-83.38"/>
</g>
<!-- n_1_3_5&#45;&gt;n_3 -->
<g id="edge6" class="edge">
<title>n_1_3_5&#45;&gt;n_3</title>
<path fill="none" stroke="black" d="M147.27,-158.22C158.26,-147.5 171.95,-134.15 183.64,-122.74"/>
<polygon fill="black" stroke="black" points="185.94,-125.39 190.65,-115.9 181.05,-120.38 185.94,-125.39"/>
</g>
<!-- n_1 -->
<g id="node5" class="node">
<title>n_1</title>
<polygon fill="none" stroke="black" points="9,-5.38 9,-30.62 53,-30.62 53,-5.38 9,-5.38"/>
<text text-anchor="start" x="16" y="-16.07" font-family="Times New Roman,serif" font-weight="bold" font-size="9.00">Normal</text>
<polygon fill="none" stroke="black" points="8,-4.38 8,-31.62 54,-31.62 54,-4.38 8,-4.38"/>
</g>
<!-- n_1_5&#45;&gt;n_1 -->
<g id="edge4" class="edge">
<title>n_1_5&#45;&gt;n_1</title>
<path fill="none" stroke="black" d="M68.58,-79.29C62.46,-69.47 54.58,-56.83 47.62,-45.66"/>
<polygon fill="black" stroke="black" points="50.62,-43.86 42.36,-37.23 44.68,-47.56 50.62,-43.86"/>
</g>
<!-- n_5 -->
<g id="node6" class="node">
<title>n_5</title>
<polygon fill="none" stroke="black" points="100.5,-5.38 100.5,-30.62 153.5,-30.62 153.5,-5.38 100.5,-5.38"/>
<text text-anchor="start" x="107.5" y="-16.07" font-family="Times New Roman,serif" font-weight="bold" font-size="9.00">Obesity II</text>
<polygon fill="none" stroke="black" points="99.5,-4.38 99.5,-31.62 154.5,-31.62 154.5,-4.38 99.5,-4.38"/>
</g>
<!-- n_1_5&#45;&gt;n_5 -->
<g id="edge5" class="edge">
<title>n_1_5&#45;&gt;n_5</title>
<path fill="none" stroke="black" d="M89.42,-79.29C95.54,-69.47 103.42,-56.83 110.38,-45.66"/>
<polygon fill="black" stroke="black" points="113.32,-47.56 115.64,-37.23 107.38,-43.86 113.32,-47.56"/>
</g>
<!-- n_0_2 -->
<g id="node10" class="node">
<title>n_0_2</title>
<polygon fill="none" stroke="black" points="346.38,-166.38 346.38,-191.62 434.62,-191.62 434.62,-166.38 346.38,-166.38"/>
<text text-anchor="start" x="353.38" y="-177.07" font-family="Times New Roman,serif" font-weight="bold" font-size="9.00">Insufficient weight</text>
<polygon fill="none" stroke="black" points="434.62,-166.38 434.62,-191.62 499.62,-191.62 499.62,-166.38 434.62,-166.38"/>
<text text-anchor="start" x="441.62" y="-177.07" font-family="Times New Roman,serif" font-weight="bold" font-size="9.00">Overweight I</text>
<polygon fill="none" stroke="black" points="345.38,-165.38 345.38,-192.62 500.62,-192.62 500.62,-165.38 345.38,-165.38"/>
</g>
<!-- n_0_2_6&#45;&gt;n_0_2 -->
<g id="edge9" class="edge">
<title>n_0_2_6&#45;&gt;n_0_2</title>
<path fill="none" stroke="black" d="M428.41,-247.64C427.47,-235.91 426.27,-220.86 425.24,-207.94"/>
<polygon fill="black" stroke="black" points="428.75,-208.03 424.47,-198.34 421.78,-208.59 428.75,-208.03"/>
</g>
<!-- n_6 -->
<g id="node13" class="node">
<title>n_6</title>
<polygon fill="none" stroke="black" points="547,-166.38 547,-191.62 603,-191.62 603,-166.38 547,-166.38"/>
<text text-anchor="start" x="554" y="-177.07" font-family="Times New Roman,serif" font-weight="bold" font-size="9.00">Obesity III</text>
<polygon fill="none" stroke="black" points="546,-165.38 546,-192.62 604,-192.62 604,-165.38 546,-165.38"/>
</g>
<!-- n_0_2_6&#45;&gt;n_6 -->
<g id="edge12" class="edge">
<title>n_0_2_6&#45;&gt;n_6</title>
<path fill="none" stroke="black" d="M462.9,-247.64C485.03,-234.29 514.25,-216.66 537.32,-202.74"/>
<polygon fill="black" stroke="black" points="539.06,-205.78 545.81,-197.61 535.44,-199.78 539.06,-205.78"/>
</g>
<!-- n_0 -->
<g id="node11" class="node">
<title>n_0</title>
<polygon fill="none" stroke="black" points="333.88,-84.38 333.88,-109.62 422.12,-109.62 422.12,-84.38 333.88,-84.38"/>
<text text-anchor="start" x="340.88" y="-95.08" font-family="Times New Roman,serif" font-weight="bold" font-size="9.00">Insufficient weight</text>
<polygon fill="none" stroke="black" points="332.88,-83.38 332.88,-110.62 423.12,-110.62 423.12,-83.38 332.88,-83.38"/>
</g>
<!-- n_0_2&#45;&gt;n_0 -->
<g id="edge10" class="edge">
<title>n_0_2&#45;&gt;n_0</title>
<path fill="none" stroke="black" d="M413.46,-161.03C407.55,-150.53 399.84,-136.82 393.11,-124.87"/>
<polygon fill="black" stroke="black" points="396.22,-123.26 388.27,-116.26 390.12,-126.69 396.22,-123.26"/>
</g>
<!-- n_2 -->
<g id="node12" class="node">
<title>n_2</title>
<polygon fill="none" stroke="black" points="469.5,-84.38 469.5,-109.62 534.5,-109.62 534.5,-84.38 469.5,-84.38"/>
<text text-anchor="start" x="476.5" y="-95.08" font-family="Times New Roman,serif" font-weight="bold" font-size="9.00">Overweight I</text>
<polygon fill="none" stroke="black" points="468.5,-83.38 468.5,-110.62 535.5,-110.62 535.5,-83.38 468.5,-83.38"/>
</g>
<!-- n_0_2&#45;&gt;n_2 -->
<g id="edge11" class="edge">
<title>n_0_2&#45;&gt;n_2</title>
<path fill="none" stroke="black" d="M439.75,-161.03C450.65,-150 465.04,-135.43 477.24,-123.07"/>
<polygon fill="black" stroke="black" points="479.67,-125.59 484.21,-116.02 474.69,-120.67 479.67,-125.59"/>
</g>
</g>
</svg>
