<?xml version="1.0" encoding="UTF-8" standalone="no"?>
<!DOCTYPE svg PUBLIC "-//W3C//DTD SVG 1.1//EN"
 "http://www.w3.org/Graphics/SVG/1.1/DTD/svg11.dtd">
<!-- Generated by graphviz version 10.0.1 (20240210.2158)
 -->
<!-- Title: ND Pages: 1 -->
<svg width="534pt" height="544pt"
 viewBox="0.00 0.00 533.50 544.00" xmlns="http://www.w3.org/2000/svg" xmlns:xlink="http://www.w3.org/1999/xlink">
<g id="graph0" class="graph" transform="scale(1 1) rotate(0) translate(4 540)">
<title>ND</title>
<polygon fill="white" stroke="none" points="-4,4 -4,-540 529.5,-540 529.5,4 -4,4"/>
<!-- n_0_1_2_3_4_5_6 -->
<g id="node1" class="node">
<title>n_0_1_2_3_4_5_6</title>
<polygon fill="none" stroke="black" points="347.38,-463 347.38,-531 435.62,-531 435.62,-463 347.38,-463"/>
<text text-anchor="start" x="354.38" y="-516.45" font-family="Times New Roman,serif" font-weight="bold" font-size="9.00">Insufficient weight</text>
<text text-anchor="start" x="376.5" y="-507.45" font-family="Times New Roman,serif" font-weight="bold" font-size="9.00">Normal</text>
<text text-anchor="start" x="366" y="-498.45" font-family="Times New Roman,serif" font-weight="bold" font-size="9.00">Overweight I</text>
<text text-anchor="start" x="364.5" y="-489.45" font-family="Times New Roman,serif" font-weight="bold" font-size="9.00">Overweight II</text>
<text text-anchor="start" x="373.5" y="-480.45" font-family="Times New Roman,serif" font-weight="bold" font-size="9.00">Obesity I</text>
<text text-anchor="start" x="370.5" y="-471.45" font-family="Times New Roman,serif" font-weight="bold" font-size="9.00">Obesity III</text>
<polygon fill="none" stroke="black" points="435.62,-463 435.62,-531 488.62,-531 488.62,-463 435.62,-463"/>
<text text-anchor="start" x="442.62" y="-495.07" font-family="Times New Roman,serif" font-weight="bold" font-size="9.00">Obesity II</text>
<polygon fill="none" stroke="black" points="346.38,-462 346.38,-532 489.62,-532 489.62,-462 346.38,-462"/>
</g>
<!-- n_0_1_2_3_4_6 -->
<g id="node2" class="node">
<title>n_0_1_2_3_4_6</title>
<polygon fill="none" stroke="black" points="277.88,-351 277.88,-410 366.12,-410 366.12,-351 277.88,-351"/>
<text text-anchor="start" x="284.88" y="-395.45" font-family="Times New Roman,serif" font-weight="bold" font-size="9.00">Insufficient weight</text>
<text text-anchor="start" x="307" y="-386.45" font-family="Times New Roman,serif" font-weight="bold" font-size="9.00">Normal</text>
<text text-anchor="start" x="296.5" y="-377.45" font-family="Times New Roman,serif" font-weight="bold" font-size="9.00">Overweight I</text>
<text text-anchor="start" x="295" y="-368.45" font-family="Times New Roman,serif" font-weight="bold" font-size="9.00">Overweight II</text>
<text text-anchor="start" x="301" y="-359.45" font-family="Times New Roman,serif" font-weight="bold" font-size="9.00">Obesity III</text>
<polygon fill="none" stroke="black" points="366.12,-351 366.12,-410 416.12,-410 416.12,-351 366.12,-351"/>
<text text-anchor="start" x="373.12" y="-378.57" font-family="Times New Roman,serif" font-weight="bold" font-size="9.00">Obesity I</text>
<polygon fill="none" stroke="black" points="276.88,-350 276.88,-411 417.12,-411 417.12,-350 276.88,-350"/>
</g>
<!-- n_0_1_2_3_4_5_6&#45;&gt;n_0_1_2_3_4_6 -->
<g id="edge1" class="edge">
<title>n_0_1_2_3_4_5_6&#45;&gt;n_0_1_2_3_4_6</title>
<path fill="none" stroke="black" d="M394.56,-458.19C387.81,-447.31 380.4,-435.36 373.48,-424.21"/>
<polygon fill="black" stroke="black" points="376.6,-422.59 368.35,-415.94 370.65,-426.28 376.6,-422.59"/>
</g>
<!-- n_5 -->
<g id="node13" class="node">
<title>n_5</title>
<polygon fill="none" stroke="black" points="463.5,-367.88 463.5,-393.12 516.5,-393.12 516.5,-367.88 463.5,-367.88"/>
<text text-anchor="start" x="470.5" y="-378.57" font-family="Times New Roman,serif" font-weight="bold" font-size="9.00">Obesity II</text>
<polygon fill="none" stroke="black" points="462.5,-366.88 462.5,-394.12 517.5,-394.12 517.5,-366.88 462.5,-366.88"/>
</g>
<!-- n_0_1_2_3_4_5_6&#45;&gt;n_5 -->
<g id="edge12" class="edge">
<title>n_0_1_2_3_4_5_6&#45;&gt;n_5</title>
<path fill="none" stroke="black" d="M441.78,-458.19C452.09,-441.78 463.93,-422.96 473.29,-408.07"/>
<polygon fill="black" stroke="black" points="476.17,-410.07 478.53,-399.74 470.24,-406.35 476.17,-410.07"/>
</g>
<!-- n_0_1_2_3_6 -->
<g id="node3" class="node">
<title>n_0_1_2_3_6</title>
<polygon fill="none" stroke="black" points="193.88,-248 193.88,-298 261.88,-298 261.88,-248 193.88,-248"/>
<text text-anchor="start" x="212.88" y="-283.45" font-family="Times New Roman,serif" font-weight="bold" font-size="9.00">Normal</text>
<text text-anchor="start" x="202.38" y="-274.45" font-family="Times New Roman,serif" font-weight="bold" font-size="9.00">Overweight I</text>
<text text-anchor="start" x="200.88" y="-265.45" font-family="Times New Roman,serif" font-weight="bold" font-size="9.00">Overweight II</text>
<text text-anchor="start" x="206.88" y="-256.45" font-family="Times New Roman,serif" font-weight="bold" font-size="9.00">Obesity III</text>
<polygon fill="none" stroke="black" points="261.88,-248 261.88,-298 350.12,-298 350.12,-248 261.88,-248"/>
<text text-anchor="start" x="268.88" y="-271.07" font-family="Times New Roman,serif" font-weight="bold" font-size="9.00">Insufficient weight</text>
<polygon fill="none" stroke="black" points="192.88,-247 192.88,-299 351.12,-299 351.12,-247 192.88,-247"/>
</g>
<!-- n_0_1_2_3_4_6&#45;&gt;n_0_1_2_3_6 -->
<g id="edge2" class="edge">
<title>n_0_1_2_3_4_6&#45;&gt;n_0_1_2_3_6</title>
<path fill="none" stroke="black" d="M323.27,-346.12C315.56,-335.27 306.94,-323.16 299.01,-312"/>
<polygon fill="black" stroke="black" points="302.07,-310.25 293.42,-304.13 296.36,-314.31 302.07,-310.25"/>
</g>
<!-- n_4 -->
<g id="node12" class="node">
<title>n_4</title>
<polygon fill="none" stroke="black" points="397,-260.38 397,-285.62 447,-285.62 447,-260.38 397,-260.38"/>
<text text-anchor="start" x="404" y="-271.07" font-family="Times New Roman,serif" font-weight="bold" font-size="9.00">Obesity I</text>
<polygon fill="none" stroke="black" points="396,-259.38 396,-286.62 448,-286.62 448,-259.38 396,-259.38"/>
</g>
<!-- n_0_1_2_3_4_6&#45;&gt;n_4 -->
<g id="edge11" class="edge">
<title>n_0_1_2_3_4_6&#45;&gt;n_4</title>
<path fill="none" stroke="black" d="M370.73,-346.12C381.33,-331.21 393.64,-313.9 403.53,-299.98"/>
<polygon fill="black" stroke="black" points="406.13,-302.36 409.07,-292.18 400.43,-298.31 406.13,-302.36"/>
</g>
<!-- n_1_2_3_6 -->
<g id="node4" class="node">
<title>n_1_2_3_6</title>
<polygon fill="none" stroke="black" points="134,-163 134,-195 190,-195 190,-163 134,-163"/>
<text text-anchor="start" x="147" y="-180.45" font-family="Times New Roman,serif" font-weight="bold" font-size="9.00">Normal</text>
<text text-anchor="start" x="141" y="-171.45" font-family="Times New Roman,serif" font-weight="bold" font-size="9.00">Obesity III</text>
<polygon fill="none" stroke="black" points="190,-163 190,-195 258,-195 258,-163 190,-163"/>
<text text-anchor="start" x="198.5" y="-180.45" font-family="Times New Roman,serif" font-weight="bold" font-size="9.00">Overweight I</text>
<text text-anchor="start" x="197" y="-171.45" font-family="Times New Roman,serif" font-weight="bold" font-size="9.00">Overweight II</text>
<polygon fill="none" stroke="black" points="133,-162 133,-196 259,-196 259,-162 133,-162"/>
</g>
<!-- n_0_1_2_3_6&#45;&gt;n_1_2_3_6 -->
<g id="edge3" class="edge">
<title>n_0_1_2_3_6&#45;&gt;n_1_2_3_6</title>
<path fill="none" stroke="black" d="M248.16,-243.14C239.05,-232.11 228.66,-219.54 219.57,-208.54"/>
<polygon fill="black" stroke="black" points="222.33,-206.38 213.26,-200.9 216.93,-210.84 222.33,-206.38"/>
</g>
<!-- n_0 -->
<g id="node11" class="node">
<title>n_0</title>
<polygon fill="none" stroke="black" points="304.88,-166.38 304.88,-191.62 393.12,-191.62 393.12,-166.38 304.88,-166.38"/>
<text text-anchor="start" x="311.88" y="-177.07" font-family="Times New Roman,serif" font-weight="bold" font-size="9.00">Insufficient weight</text>
<polygon fill="none" stroke="black" points="303.88,-165.38 303.88,-192.62 394.12,-192.62 394.12,-165.38 303.88,-165.38"/>
</g>
<!-- n_0_1_2_3_6&#45;&gt;n_0 -->
<g id="edge10" class="edge">
<title>n_0_1_2_3_6&#45;&gt;n_0</title>
<path fill="none" stroke="black" d="M296.15,-243.14C306.17,-231.17 317.71,-217.38 327.44,-205.76"/>
<polygon fill="black" stroke="black" points="330.09,-208.04 333.83,-198.13 324.72,-203.55 330.09,-208.04"/>
</g>
<!-- n_1_6 -->
<g id="node5" class="node">
<title>n_1_6</title>
<polygon fill="none" stroke="black" points="64,-84.38 64,-109.62 108,-109.62 108,-84.38 64,-84.38"/>
<text text-anchor="start" x="71" y="-95.08" font-family="Times New Roman,serif" font-weight="bold" font-size="9.00">Normal</text>
<polygon fill="none" stroke="black" points="108,-84.38 108,-109.62 164,-109.62 164,-84.38 108,-84.38"/>
<text text-anchor="start" x="115" y="-95.08" font-family="Times New Roman,serif" font-weight="bold" font-size="9.00">Obesity III</text>
<polygon fill="none" stroke="black" points="63,-83.38 63,-110.62 165,-110.62 165,-83.38 63,-83.38"/>
</g>
<!-- n_1_2_3_6&#45;&gt;n_1_6 -->
<g id="edge4" class="edge">
<title>n_1_2_3_6&#45;&gt;n_1_6</title>
<path fill="none" stroke="black" d="M175.73,-158.22C164.74,-147.5 151.05,-134.15 139.36,-122.74"/>
<polygon fill="black" stroke="black" points="141.95,-120.38 132.35,-115.9 137.06,-125.39 141.95,-120.38"/>
</g>
<!-- n_2_3 -->
<g id="node8" class="node">
<title>n_2_3</title>
<polygon fill="none" stroke="black" points="211.5,-84.38 211.5,-109.62 276.5,-109.62 276.5,-84.38 211.5,-84.38"/>
<text text-anchor="start" x="218.5" y="-95.08" font-family="Times New Roman,serif" font-weight="bold" font-size="9.00">Overweight I</text>
<polygon fill="none" stroke="black" points="276.5,-84.38 276.5,-109.62 344.5,-109.62 344.5,-84.38 276.5,-84.38"/>
<text text-anchor="start" x="283.5" y="-95.08" font-family="Times New Roman,serif" font-weight="bold" font-size="9.00">Overweight II</text>
<polygon fill="none" stroke="black" points="210.5,-83.38 210.5,-110.62 345.5,-110.62 345.5,-83.38 210.5,-83.38"/>
</g>
<!-- n_1_2_3_6&#45;&gt;n_2_3 -->
<g id="edge7" class="edge">
<title>n_1_2_3_6&#45;&gt;n_2_3</title>
<path fill="none" stroke="black" d="M216.27,-158.22C227.26,-147.5 240.95,-134.15 252.64,-122.74"/>
<polygon fill="black" stroke="black" points="254.94,-125.39 259.65,-115.9 250.05,-120.38 254.94,-125.39"/>
</g>
<!-- n_1 -->
<g id="node6" class="node">
<title>n_1</title>
<polygon fill="none" stroke="black" points="9,-5.38 9,-30.62 53,-30.62 53,-5.38 9,-5.38"/>
<text text-anchor="start" x="16" y="-16.07" font-family="Times New Roman,serif" font-weight="bold" font-size="9.00">Normal</text>
<polygon fill="none" stroke="black" points="8,-4.38 8,-31.62 54,-31.62 54,-4.38 8,-4.38"/>
</g>
<!-- n_1_6&#45;&gt;n_1 -->
<g id="edge5" class="edge">
<title>n_1_6&#45;&gt;n_1</title>
<path fill="none" stroke="black" d="M95.99,-79.29C84.76,-68.87 70.1,-55.27 57.55,-43.63"/>
<polygon fill="black" stroke="black" points="60.08,-41.21 50.37,-36.97 55.32,-46.34 60.08,-41.21"/>
</g>
<!-- n_6 -->
<g id="node7" class="node">
<title>n_6</title>
<polygon fill="none" stroke="black" points="100,-5.38 100,-30.62 156,-30.62 156,-5.38 100,-5.38"/>
<text text-anchor="start" x="107" y="-16.07" font-family="Times New Roman,serif" font-weight="bold" font-size="9.00">Obesity III</text>
<polygon fill="none" stroke="black" points="99,-4.38 99,-31.62 157,-31.62 157,-4.38 99,-4.38"/>
</g>
<!-- n_1_6&#45;&gt;n_6 -->
<g id="edge6" class="edge">
<title>n_1_6&#45;&gt;n_6</title>
<path fill="none" stroke="black" d="M117.04,-79.29C118.75,-69.87 120.94,-57.86 122.9,-47.04"/>
<polygon fill="black" stroke="black" points="126.3,-47.9 124.65,-37.43 119.42,-46.64 126.3,-47.9"/>
</g>
<!-- n_2 -->
<g id="node9" class="node">
<title>n_2</title>
<polygon fill="none" stroke="black" points="231.5,-5.38 231.5,-30.62 296.5,-30.62 296.5,-5.38 231.5,-5.38"/>
<text text-anchor="start" x="238.5" y="-16.07" font-family="Times New Roman,serif" font-weight="bold" font-size="9.00">Overweight I</text>
<polygon fill="none" stroke="black" points="230.5,-4.38 230.5,-31.62 297.5,-31.62 297.5,-4.38 230.5,-4.38"/>
</g>
<!-- n_2_3&#45;&gt;n_2 -->
<g id="edge8" class="edge">
<title>n_2_3&#45;&gt;n_2</title>
<path fill="none" stroke="black" d="M274.96,-79.29C273.25,-69.87 271.06,-57.86 269.1,-47.04"/>
<polygon fill="black" stroke="black" points="272.58,-46.64 267.35,-37.43 265.7,-47.9 272.58,-46.64"/>
</g>
<!-- n_3 -->
<g id="node10" class="node">
<title>n_3</title>
<polygon fill="none" stroke="black" points="344,-5.38 344,-30.62 412,-30.62 412,-5.38 344,-5.38"/>
<text text-anchor="start" x="351" y="-16.07" font-family="Times New Roman,serif" font-weight="bold" font-size="9.00">Overweight II</text>
<polygon fill="none" stroke="black" points="343,-4.38 343,-31.62 413,-31.62 413,-4.38 343,-4.38"/>
</g>
<!-- n_2_3&#45;&gt;n_3 -->
<g id="edge9" class="edge">
<title>n_2_3&#45;&gt;n_3</title>
<path fill="none" stroke="black" d="M299.7,-79.29C313.49,-68.67 331.57,-54.75 346.89,-42.96"/>
<polygon fill="black" stroke="black" points="349.01,-45.74 354.8,-36.86 344.74,-40.19 349.01,-45.74"/>
</g>
</g>
</svg>
