<?xml version="1.0" encoding="UTF-8" standalone="no"?>
<!DOCTYPE svg PUBLIC "-//W3C//DTD SVG 1.1//EN"
 "http://www.w3.org/Graphics/SVG/1.1/DTD/svg11.dtd">
<!-- Generated by graphviz version 10.0.1 (20240210.2158)
 -->
<!-- Title: ND Pages: 1 -->
<svg width="533pt" height="517pt"
 viewBox="0.00 0.00 532.75 517.00" xmlns="http://www.w3.org/2000/svg" xmlns:xlink="http://www.w3.org/1999/xlink">
<g id="graph0" class="graph" transform="scale(1 1) rotate(0) translate(4 513)">
<title>ND</title>
<polygon fill="white" stroke="none" points="-4,4 -4,-513 528.75,-513 528.75,4 -4,4"/>
<!-- n_0_1_2_3_4_5 -->
<g id="node1" class="node">
<title>n_0_1_2_3_4_5</title>
<polygon fill="none" stroke="black" points="299.25,-445 299.25,-504 389.75,-504 389.75,-445 299.25,-445"/>
<text text-anchor="start" x="314.88" y="-489.45" font-family="Times New Roman,serif" font-weight="bold" font-size="9.00">building (float)</text>
<text text-anchor="start" x="306.25" y="-480.45" font-family="Times New Roman,serif" font-weight="bold" font-size="9.00">building (non float)</text>
<text text-anchor="start" x="323.88" y="-471.45" font-family="Times New Roman,serif" font-weight="bold" font-size="9.00">containers</text>
<text text-anchor="start" x="325.38" y="-462.45" font-family="Times New Roman,serif" font-weight="bold" font-size="9.00">tableware</text>
<text text-anchor="start" x="323.5" y="-453.45" font-family="Times New Roman,serif" font-weight="bold" font-size="9.00">headlamps</text>
<polygon fill="none" stroke="black" points="389.75,-445 389.75,-504 475,-504 475,-445 389.75,-445"/>
<text text-anchor="start" x="396.75" y="-472.57" font-family="Times New Roman,serif" font-weight="bold" font-size="9.00">vehicle (non float)</text>
<polygon fill="none" stroke="black" points="298.25,-444 298.25,-505 476,-505 476,-444 298.25,-444"/>
</g>
<!-- n_0_1_3_4_5 -->
<g id="node2" class="node">
<title>n_0_1_3_4_5</title>
<polygon fill="none" stroke="black" points="219.25,-342 219.25,-392 309.75,-392 309.75,-342 219.25,-342"/>
<text text-anchor="start" x="226.25" y="-377.45" font-family="Times New Roman,serif" font-weight="bold" font-size="9.00">building (non float)</text>
<text text-anchor="start" x="243.88" y="-368.45" font-family="Times New Roman,serif" font-weight="bold" font-size="9.00">containers</text>
<text text-anchor="start" x="245.38" y="-359.45" font-family="Times New Roman,serif" font-weight="bold" font-size="9.00">tableware</text>
<text text-anchor="start" x="243.5" y="-350.45" font-family="Times New Roman,serif" font-weight="bold" font-size="9.00">headlamps</text>
<polygon fill="none" stroke="black" points="309.75,-342 309.75,-392 383,-392 383,-342 309.75,-342"/>
<text text-anchor="start" x="316.75" y="-365.07" font-family="Times New Roman,serif" font-weight="bold" font-size="9.00">building (float)</text>
<polygon fill="none" stroke="black" points="218.25,-341 218.25,-393 384,-393 384,-341 218.25,-341"/>
</g>
<!-- n_0_1_2_3_4_5&#45;&gt;n_0_1_3_4_5 -->
<g id="edge1" class="edge">
<title>n_0_1_2_3_4_5&#45;&gt;n_0_1_3_4_5</title>
<path fill="none" stroke="black" d="M359.91,-440.12C350.98,-429.16 341,-416.91 331.83,-405.66"/>
<polygon fill="black" stroke="black" points="334.67,-403.61 325.64,-398.07 329.24,-408.03 334.67,-403.61"/>
</g>
<!-- n_2 -->
<g id="node11" class="node">
<title>n_2</title>
<polygon fill="none" stroke="black" points="430.5,-354.38 430.5,-379.62 515.75,-379.62 515.75,-354.38 430.5,-354.38"/>
<text text-anchor="start" x="437.5" y="-365.07" font-family="Times New Roman,serif" font-weight="bold" font-size="9.00">vehicle (non float)</text>
<polygon fill="none" stroke="black" points="429.5,-353.38 429.5,-380.62 516.75,-380.62 516.75,-353.38 429.5,-353.38"/>
</g>
<!-- n_0_1_2_3_4_5&#45;&gt;n_2 -->
<g id="edge10" class="edge">
<title>n_0_1_2_3_4_5&#45;&gt;n_2</title>
<path fill="none" stroke="black" d="M414.34,-440.12C426.61,-425.06 440.87,-407.57 452.28,-393.58"/>
<polygon fill="black" stroke="black" points="454.75,-396.09 458.35,-386.12 449.32,-391.66 454.75,-396.09"/>
</g>
<!-- n_1_3_4_5 -->
<g id="node3" class="node">
<title>n_1_3_4_5</title>
<polygon fill="none" stroke="black" points="149.88,-248 149.88,-289 205.88,-289 205.88,-248 149.88,-248"/>
<text text-anchor="start" x="157.25" y="-274.45" font-family="Times New Roman,serif" font-weight="bold" font-size="9.00">containers</text>
<text text-anchor="start" x="158.75" y="-265.45" font-family="Times New Roman,serif" font-weight="bold" font-size="9.00">tableware</text>
<text text-anchor="start" x="156.88" y="-256.45" font-family="Times New Roman,serif" font-weight="bold" font-size="9.00">headlamps</text>
<polygon fill="none" stroke="black" points="205.88,-248 205.88,-289 296.38,-289 296.38,-248 205.88,-248"/>
<text text-anchor="start" x="212.88" y="-266.57" font-family="Times New Roman,serif" font-weight="bold" font-size="9.00">building (non float)</text>
<polygon fill="none" stroke="black" points="148.88,-247 148.88,-290 297.38,-290 297.38,-247 148.88,-247"/>
</g>
<!-- n_0_1_3_4_5&#45;&gt;n_1_3_4_5 -->
<g id="edge2" class="edge">
<title>n_0_1_3_4_5&#45;&gt;n_1_3_4_5</title>
<path fill="none" stroke="black" d="M277.72,-337.05C268.94,-326.18 258.9,-313.76 249.84,-302.55"/>
<polygon fill="black" stroke="black" points="252.79,-300.63 243.78,-295.05 247.34,-305.03 252.79,-300.63"/>
</g>
<!-- n_0 -->
<g id="node10" class="node">
<title>n_0</title>
<polygon fill="none" stroke="black" points="343.5,-255.88 343.5,-281.12 416.75,-281.12 416.75,-255.88 343.5,-255.88"/>
<text text-anchor="start" x="350.5" y="-266.57" font-family="Times New Roman,serif" font-weight="bold" font-size="9.00">building (float)</text>
<polygon fill="none" stroke="black" points="342.5,-254.88 342.5,-282.12 417.75,-282.12 417.75,-254.88 342.5,-254.88"/>
</g>
<!-- n_0_1_3_4_5&#45;&gt;n_0 -->
<g id="edge9" class="edge">
<title>n_0_1_3_4_5&#45;&gt;n_0</title>
<path fill="none" stroke="black" d="M324.83,-337.05C335.73,-323.73 348.55,-308.07 359.1,-295.19"/>
<polygon fill="black" stroke="black" points="361.73,-297.49 365.36,-287.54 356.32,-293.06 361.73,-297.49"/>
</g>
<!-- n_3_4_5 -->
<g id="node4" class="node">
<title>n_3_4_5</title>
<polygon fill="none" stroke="black" points="93.5,-163 93.5,-195 149.5,-195 149.5,-163 93.5,-163"/>
<text text-anchor="start" x="102.38" y="-180.45" font-family="Times New Roman,serif" font-weight="bold" font-size="9.00">tableware</text>
<text text-anchor="start" x="100.5" y="-171.45" font-family="Times New Roman,serif" font-weight="bold" font-size="9.00">headlamps</text>
<polygon fill="none" stroke="black" points="149.5,-163 149.5,-195 204.75,-195 204.75,-163 149.5,-163"/>
<text text-anchor="start" x="156.5" y="-177.07" font-family="Times New Roman,serif" font-weight="bold" font-size="9.00">containers</text>
<polygon fill="none" stroke="black" points="92.5,-162 92.5,-196 205.75,-196 205.75,-162 92.5,-162"/>
</g>
<!-- n_1_3_4_5&#45;&gt;n_3_4_5 -->
<g id="edge3" class="edge">
<title>n_1_3_4_5&#45;&gt;n_3_4_5</title>
<path fill="none" stroke="black" d="M202.51,-243.13C193.4,-232.35 182.63,-219.62 173.15,-208.41"/>
<polygon fill="black" stroke="black" points="176,-206.36 166.87,-200.98 170.65,-210.88 176,-206.36"/>
</g>
<!-- n_1 -->
<g id="node9" class="node">
<title>n_1</title>
<polygon fill="none" stroke="black" points="251.88,-166.38 251.88,-191.62 342.38,-191.62 342.38,-166.38 251.88,-166.38"/>
<text text-anchor="start" x="258.88" y="-177.07" font-family="Times New Roman,serif" font-weight="bold" font-size="9.00">building (non float)</text>
<polygon fill="none" stroke="black" points="250.88,-165.38 250.88,-192.62 343.38,-192.62 343.38,-165.38 250.88,-165.38"/>
</g>
<!-- n_1_3_4_5&#45;&gt;n_1 -->
<g id="edge8" class="edge">
<title>n_1_3_4_5&#45;&gt;n_1</title>
<path fill="none" stroke="black" d="M243.74,-243.13C253.69,-231.36 265.62,-217.25 275.68,-205.36"/>
<polygon fill="black" stroke="black" points="278.18,-207.82 281.96,-197.93 272.83,-203.3 278.18,-207.82"/>
</g>
<!-- n_4_5 -->
<g id="node5" class="node">
<title>n_4_5</title>
<polygon fill="none" stroke="black" points="31,-84.38 31,-109.62 83.25,-109.62 83.25,-84.38 31,-84.38"/>
<text text-anchor="start" x="38" y="-95.08" font-family="Times New Roman,serif" font-weight="bold" font-size="9.00">tableware</text>
<polygon fill="none" stroke="black" points="83.25,-84.38 83.25,-109.62 139.25,-109.62 139.25,-84.38 83.25,-84.38"/>
<text text-anchor="start" x="90.25" y="-95.08" font-family="Times New Roman,serif" font-weight="bold" font-size="9.00">headlamps</text>
<polygon fill="none" stroke="black" points="30,-83.38 30,-110.62 140.25,-110.62 140.25,-83.38 30,-83.38"/>
</g>
<!-- n_3_4_5&#45;&gt;n_4_5 -->
<g id="edge4" class="edge">
<title>n_3_4_5&#45;&gt;n_4_5</title>
<path fill="none" stroke="black" d="M133.3,-158.22C124.98,-147.81 114.66,-134.92 105.72,-123.74"/>
<polygon fill="black" stroke="black" points="108.53,-121.65 99.55,-116.03 103.06,-126.02 108.53,-121.65"/>
</g>
<!-- n_3 -->
<g id="node8" class="node">
<title>n_3</title>
<polygon fill="none" stroke="black" points="186.5,-84.38 186.5,-109.62 241.75,-109.62 241.75,-84.38 186.5,-84.38"/>
<text text-anchor="start" x="193.5" y="-95.08" font-family="Times New Roman,serif" font-weight="bold" font-size="9.00">containers</text>
<polygon fill="none" stroke="black" points="185.5,-83.38 185.5,-110.62 242.75,-110.62 242.75,-83.38 185.5,-83.38"/>
</g>
<!-- n_3_4_5&#45;&gt;n_3 -->
<g id="edge7" class="edge">
<title>n_3_4_5&#45;&gt;n_3</title>
<path fill="none" stroke="black" d="M165.19,-158.22C173.65,-147.81 184.13,-134.92 193.21,-123.74"/>
<polygon fill="black" stroke="black" points="195.9,-125.99 199.48,-116.02 190.46,-121.57 195.9,-125.99"/>
</g>
<!-- n_4 -->
<g id="node6" class="node">
<title>n_4</title>
<polygon fill="none" stroke="black" points="9,-5.38 9,-30.62 61.25,-30.62 61.25,-5.38 9,-5.38"/>
<text text-anchor="start" x="16" y="-16.07" font-family="Times New Roman,serif" font-weight="bold" font-size="9.00">tableware</text>
<polygon fill="none" stroke="black" points="8,-4.38 8,-31.62 62.25,-31.62 62.25,-4.38 8,-4.38"/>
</g>
<!-- n_4_5&#45;&gt;n_4 -->
<g id="edge5" class="edge">
<title>n_4_5&#45;&gt;n_4</title>
<path fill="none" stroke="black" d="M74.28,-79.29C67.83,-69.37 59.52,-56.57 52.22,-45.32"/>
<polygon fill="black" stroke="black" points="55.33,-43.69 46.95,-37.21 49.46,-47.5 55.33,-43.69"/>
</g>
<!-- n_5 -->
<g id="node7" class="node">
<title>n_5</title>
<polygon fill="none" stroke="black" points="108.12,-5.38 108.12,-30.62 164.12,-30.62 164.12,-5.38 108.12,-5.38"/>
<text text-anchor="start" x="115.12" y="-16.07" font-family="Times New Roman,serif" font-weight="bold" font-size="9.00">headlamps</text>
<polygon fill="none" stroke="black" points="107.12,-4.38 107.12,-31.62 165.12,-31.62 165.12,-4.38 107.12,-4.38"/>
</g>
<!-- n_4_5&#45;&gt;n_5 -->
<g id="edge6" class="edge">
<title>n_4_5&#45;&gt;n_5</title>
<path fill="none" stroke="black" d="M96.19,-79.29C102.76,-69.37 111.24,-56.57 118.69,-45.32"/>
<polygon fill="black" stroke="black" points="121.46,-47.47 124.07,-37.2 115.63,-43.61 121.46,-47.47"/>
</g>
</g>
</svg>
