<?xml version="1.0" encoding="UTF-8" standalone="no"?>
<!DOCTYPE svg PUBLIC "-//W3C//DTD SVG 1.1//EN"
 "http://www.w3.org/Graphics/SVG/1.1/DTD/svg11.dtd">
<!-- Generated by graphviz version 10.0.1 (20240210.2158)
 -->
<!-- Title: ND Pages: 1 -->
<svg width="582pt" height="414pt"
 viewBox="0.00 0.00 581.75 414.00" xmlns="http://www.w3.org/2000/svg" xmlns:xlink="http://www.w3.org/1999/xlink">
<g id="graph0" class="graph" transform="scale(1 1) rotate(0) translate(4 410)">
<title>ND</title>
<polygon fill="white" stroke="none" points="-4,4 -4,-410 577.75,-410 577.75,4 -4,4"/>
<!-- n_0_1_2_3_4_5 -->
<g id="node1" class="node">
<title>n_0_1_2_3_4_5</title>
<polygon fill="none" stroke="black" points="345.38,-342 345.38,-401 435.88,-401 435.88,-342 345.38,-342"/>
<text text-anchor="start" x="361" y="-386.45" font-family="Times New Roman,serif" font-weight="bold" font-size="9.00">building (float)</text>
<text text-anchor="start" x="352.38" y="-377.45" font-family="Times New Roman,serif" font-weight="bold" font-size="9.00">building (non float)</text>
<text text-anchor="start" x="355" y="-368.45" font-family="Times New Roman,serif" font-weight="bold" font-size="9.00">vehicle (non float)</text>
<text text-anchor="start" x="370" y="-359.45" font-family="Times New Roman,serif" font-weight="bold" font-size="9.00">containers</text>
<text text-anchor="start" x="371.5" y="-350.45" font-family="Times New Roman,serif" font-weight="bold" font-size="9.00">tableware</text>
<polygon fill="none" stroke="black" points="435.88,-342 435.88,-401 491.88,-401 491.88,-342 435.88,-342"/>
<text text-anchor="start" x="442.88" y="-369.57" font-family="Times New Roman,serif" font-weight="bold" font-size="9.00">headlamps</text>
<polygon fill="none" stroke="black" points="344.38,-341 344.38,-402 492.88,-402 492.88,-341 344.38,-341"/>
</g>
<!-- n_0_1_2_3_4 -->
<g id="node2" class="node">
<title>n_0_1_2_3_4</title>
<polygon fill="none" stroke="black" points="249.75,-248 249.75,-289 335,-289 335,-248 249.75,-248"/>
<text text-anchor="start" x="262.75" y="-274.45" font-family="Times New Roman,serif" font-weight="bold" font-size="9.00">building (float)</text>
<text text-anchor="start" x="256.75" y="-265.45" font-family="Times New Roman,serif" font-weight="bold" font-size="9.00">vehicle (non float)</text>
<text text-anchor="start" x="271.75" y="-256.45" font-family="Times New Roman,serif" font-weight="bold" font-size="9.00">containers</text>
<polygon fill="none" stroke="black" points="335,-248 335,-289 425.5,-289 425.5,-248 335,-248"/>
<text text-anchor="start" x="342" y="-269.95" font-family="Times New Roman,serif" font-weight="bold" font-size="9.00">building (non float)</text>
<text text-anchor="start" x="361.12" y="-260.95" font-family="Times New Roman,serif" font-weight="bold" font-size="9.00">tableware</text>
<polygon fill="none" stroke="black" points="248.75,-247 248.75,-290 426.5,-290 426.5,-247 248.75,-247"/>
</g>
<!-- n_0_1_2_3_4_5&#45;&gt;n_0_1_2_3_4 -->
<g id="edge1" class="edge">
<title>n_0_1_2_3_4_5&#45;&gt;n_0_1_2_3_4</title>
<path fill="none" stroke="black" d="M391.88,-337.15C383.02,-326.11 373.17,-313.82 364.32,-302.78"/>
<polygon fill="black" stroke="black" points="367.09,-300.65 358.11,-295.04 361.63,-305.03 367.09,-300.65"/>
</g>
<!-- n_5 -->
<g id="node11" class="node">
<title>n_5</title>
<polygon fill="none" stroke="black" points="472.62,-255.88 472.62,-281.12 528.62,-281.12 528.62,-255.88 472.62,-255.88"/>
<text text-anchor="start" x="479.62" y="-266.57" font-family="Times New Roman,serif" font-weight="bold" font-size="9.00">headlamps</text>
<polygon fill="none" stroke="black" points="471.62,-254.88 471.62,-282.12 529.62,-282.12 529.62,-254.88 471.62,-254.88"/>
</g>
<!-- n_0_1_2_3_4_5&#45;&gt;n_5 -->
<g id="edge10" class="edge">
<title>n_0_1_2_3_4_5&#45;&gt;n_5</title>
<path fill="none" stroke="black" d="M445.7,-337.15C456.81,-323.46 469.47,-307.87 479.84,-295.11"/>
<polygon fill="black" stroke="black" points="482.38,-297.52 485.97,-287.56 476.95,-293.11 482.38,-297.52"/>
</g>
<!-- n_0_2_3 -->
<g id="node3" class="node">
<title>n_0_2_3</title>
<polygon fill="none" stroke="black" points="159.38,-163 159.38,-195 232.62,-195 232.62,-163 159.38,-163"/>
<text text-anchor="start" x="166.38" y="-180.45" font-family="Times New Roman,serif" font-weight="bold" font-size="9.00">building (float)</text>
<text text-anchor="start" x="175.38" y="-171.45" font-family="Times New Roman,serif" font-weight="bold" font-size="9.00">containers</text>
<polygon fill="none" stroke="black" points="232.62,-163 232.62,-195 317.88,-195 317.88,-163 232.62,-163"/>
<text text-anchor="start" x="239.62" y="-177.07" font-family="Times New Roman,serif" font-weight="bold" font-size="9.00">vehicle (non float)</text>
<polygon fill="none" stroke="black" points="158.38,-162 158.38,-196 318.88,-196 318.88,-162 158.38,-162"/>
</g>
<!-- n_0_1_2_3_4&#45;&gt;n_0_2_3 -->
<g id="edge2" class="edge">
<title>n_0_1_2_3_4&#45;&gt;n_0_2_3</title>
<path fill="none" stroke="black" d="M310.05,-243.13C297.5,-232.03 282.59,-218.86 269.65,-207.42"/>
<polygon fill="black" stroke="black" points="272,-204.83 262.19,-200.83 267.37,-210.07 272,-204.83"/>
</g>
<!-- n_1_4 -->
<g id="node8" class="node">
<title>n_1_4</title>
<polygon fill="none" stroke="black" points="365.25,-166.38 365.25,-191.62 455.75,-191.62 455.75,-166.38 365.25,-166.38"/>
<text text-anchor="start" x="372.25" y="-177.07" font-family="Times New Roman,serif" font-weight="bold" font-size="9.00">building (non float)</text>
<polygon fill="none" stroke="black" points="455.75,-166.38 455.75,-191.62 508,-191.62 508,-166.38 455.75,-166.38"/>
<text text-anchor="start" x="462.75" y="-177.07" font-family="Times New Roman,serif" font-weight="bold" font-size="9.00">tableware</text>
<polygon fill="none" stroke="black" points="364.25,-165.38 364.25,-192.62 509,-192.62 509,-165.38 364.25,-165.38"/>
</g>
<!-- n_0_1_2_3_4&#45;&gt;n_1_4 -->
<g id="edge7" class="edge">
<title>n_0_1_2_3_4&#45;&gt;n_1_4</title>
<path fill="none" stroke="black" d="M365.2,-243.13C378.91,-231.01 395.42,-216.42 409.12,-204.31"/>
<polygon fill="black" stroke="black" points="411.34,-207.02 416.52,-197.77 406.71,-201.77 411.34,-207.02"/>
</g>
<!-- n_0_3 -->
<g id="node4" class="node">
<title>n_0_3</title>
<polygon fill="none" stroke="black" points="36.38,-84.38 36.38,-109.62 109.62,-109.62 109.62,-84.38 36.38,-84.38"/>
<text text-anchor="start" x="43.38" y="-95.08" font-family="Times New Roman,serif" font-weight="bold" font-size="9.00">building (float)</text>
<polygon fill="none" stroke="black" points="109.62,-84.38 109.62,-109.62 164.88,-109.62 164.88,-84.38 109.62,-84.38"/>
<text text-anchor="start" x="116.62" y="-95.08" font-family="Times New Roman,serif" font-weight="bold" font-size="9.00">containers</text>
<polygon fill="none" stroke="black" points="35.38,-83.38 35.38,-110.62 165.88,-110.62 165.88,-83.38 35.38,-83.38"/>
</g>
<!-- n_0_2_3&#45;&gt;n_0_3 -->
<g id="edge3" class="edge">
<title>n_0_2_3&#45;&gt;n_0_3</title>
<path fill="none" stroke="black" d="M204.16,-158.02C184.49,-146.62 159.78,-132.29 139.43,-120.49"/>
<polygon fill="black" stroke="black" points="141.25,-117.5 130.84,-115.52 137.74,-123.56 141.25,-117.5"/>
</g>
<!-- n_2 -->
<g id="node7" class="node">
<title>n_2</title>
<polygon fill="none" stroke="black" points="212,-84.38 212,-109.62 297.25,-109.62 297.25,-84.38 212,-84.38"/>
<text text-anchor="start" x="219" y="-95.08" font-family="Times New Roman,serif" font-weight="bold" font-size="9.00">vehicle (non float)</text>
<polygon fill="none" stroke="black" points="211,-83.38 211,-110.62 298.25,-110.62 298.25,-83.38 211,-83.38"/>
</g>
<!-- n_0_2_3&#45;&gt;n_2 -->
<g id="edge6" class="edge">
<title>n_0_2_3&#45;&gt;n_2</title>
<path fill="none" stroke="black" d="M242.58,-158.22C244.52,-148.54 246.88,-136.72 249,-126.11"/>
<polygon fill="black" stroke="black" points="252.43,-126.82 250.96,-116.33 245.57,-125.45 252.43,-126.82"/>
</g>
<!-- n_0 -->
<g id="node5" class="node">
<title>n_0</title>
<polygon fill="none" stroke="black" points="9,-5.38 9,-30.62 82.25,-30.62 82.25,-5.38 9,-5.38"/>
<text text-anchor="start" x="16" y="-16.07" font-family="Times New Roman,serif" font-weight="bold" font-size="9.00">building (float)</text>
<polygon fill="none" stroke="black" points="8,-4.38 8,-31.62 83.25,-31.62 83.25,-4.38 8,-4.38"/>
</g>
<!-- n_0_3&#45;&gt;n_0 -->
<g id="edge4" class="edge">
<title>n_0_3&#45;&gt;n_0</title>
<path fill="none" stroke="black" d="M88.69,-79.29C81.53,-69.27 72.28,-56.31 64.18,-44.98"/>
<polygon fill="black" stroke="black" points="67.27,-43.28 58.61,-37.17 61.57,-47.34 67.27,-43.28"/>
</g>
<!-- n_3 -->
<g id="node6" class="node">
<title>n_3</title>
<polygon fill="none" stroke="black" points="129,-5.38 129,-30.62 184.25,-30.62 184.25,-5.38 129,-5.38"/>
<text text-anchor="start" x="136" y="-16.07" font-family="Times New Roman,serif" font-weight="bold" font-size="9.00">containers</text>
<polygon fill="none" stroke="black" points="128,-4.38 128,-31.62 185.25,-31.62 185.25,-4.38 128,-4.38"/>
</g>
<!-- n_0_3&#45;&gt;n_3 -->
<g id="edge5" class="edge">
<title>n_0_3&#45;&gt;n_3</title>
<path fill="none" stroke="black" d="M112.78,-79.29C120.06,-69.27 129.49,-56.31 137.73,-44.98"/>
<polygon fill="black" stroke="black" points="140.36,-47.31 143.41,-37.17 134.7,-43.19 140.36,-47.31"/>
</g>
<!-- n_1 -->
<g id="node9" class="node">
<title>n_1</title>
<polygon fill="none" stroke="black" points="375.38,-84.38 375.38,-109.62 465.88,-109.62 465.88,-84.38 375.38,-84.38"/>
<text text-anchor="start" x="382.38" y="-95.08" font-family="Times New Roman,serif" font-weight="bold" font-size="9.00">building (non float)</text>
<polygon fill="none" stroke="black" points="374.38,-83.38 374.38,-110.62 466.88,-110.62 466.88,-83.38 374.38,-83.38"/>
</g>
<!-- n_1_4&#45;&gt;n_1 -->
<g id="edge8" class="edge">
<title>n_1_4&#45;&gt;n_1</title>
<path fill="none" stroke="black" d="M433.23,-161.03C431.2,-150.85 428.55,-137.65 426.22,-125.96"/>
<polygon fill="black" stroke="black" points="429.7,-125.55 424.31,-116.43 422.84,-126.92 429.7,-125.55"/>
</g>
<!-- n_4 -->
<g id="node10" class="node">
<title>n_4</title>
<polygon fill="none" stroke="black" points="512.5,-84.38 512.5,-109.62 564.75,-109.62 564.75,-84.38 512.5,-84.38"/>
<text text-anchor="start" x="519.5" y="-95.08" font-family="Times New Roman,serif" font-weight="bold" font-size="9.00">tableware</text>
<polygon fill="none" stroke="black" points="511.5,-83.38 511.5,-110.62 565.75,-110.62 565.75,-83.38 511.5,-83.38"/>
</g>
<!-- n_1_4&#45;&gt;n_4 -->
<g id="edge9" class="edge">
<title>n_1_4&#45;&gt;n_4</title>
<path fill="none" stroke="black" d="M458.26,-161.03C472.73,-149.69 491.98,-134.58 508.02,-122.01"/>
<polygon fill="black" stroke="black" points="510.13,-124.8 515.83,-115.88 505.81,-119.29 510.13,-124.8"/>
</g>
</g>
</svg>
