<?xml version="1.0" encoding="UTF-8" standalone="no"?>
<!DOCTYPE svg PUBLIC "-//W3C//DTD SVG 1.1//EN"
 "http://www.w3.org/Graphics/SVG/1.1/DTD/svg11.dtd">
<!-- Generated by graphviz version 10.0.1 (20240210.2158)
 -->
<!-- Title: ND Pages: 1 -->
<svg width="601pt" height="302pt"
 viewBox="0.00 0.00 600.75 302.00" xmlns="http://www.w3.org/2000/svg" xmlns:xlink="http://www.w3.org/1999/xlink">
<g id="graph0" class="graph" transform="scale(1 1) rotate(0) translate(4 298)">
<title>ND</title>
<polygon fill="white" stroke="none" points="-4,4 -4,-298 596.75,-298 596.75,4 -4,4"/>
<!-- n_0_1_2_3_4_5 -->
<g id="node1" class="node">
<title>n_0_1_2_3_4_5</title>
<polygon fill="none" stroke="black" points="230.88,-248 230.88,-289 316.12,-289 316.12,-248 230.88,-248"/>
<text text-anchor="start" x="243.88" y="-274.45" font-family="Times New Roman,serif" font-weight="bold" font-size="9.00">building (float)</text>
<text text-anchor="start" x="237.88" y="-265.45" font-family="Times New Roman,serif" font-weight="bold" font-size="9.00">vehicle (non float)</text>
<text text-anchor="start" x="254.38" y="-256.45" font-family="Times New Roman,serif" font-weight="bold" font-size="9.00">tableware</text>
<polygon fill="none" stroke="black" points="316.12,-248 316.12,-289 406.62,-289 406.62,-248 316.12,-248"/>
<text text-anchor="start" x="323.12" y="-274.45" font-family="Times New Roman,serif" font-weight="bold" font-size="9.00">building (non float)</text>
<text text-anchor="start" x="340.75" y="-265.45" font-family="Times New Roman,serif" font-weight="bold" font-size="9.00">containers</text>
<text text-anchor="start" x="340.38" y="-256.45" font-family="Times New Roman,serif" font-weight="bold" font-size="9.00">headlamps</text>
<polygon fill="none" stroke="black" points="229.88,-247 229.88,-290 407.62,-290 407.62,-247 229.88,-247"/>
</g>
<!-- n_0_2_4 -->
<g id="node2" class="node">
<title>n_0_2_4</title>
<polygon fill="none" stroke="black" points="139.5,-163 139.5,-195 224.75,-195 224.75,-163 139.5,-163"/>
<text text-anchor="start" x="146.5" y="-180.45" font-family="Times New Roman,serif" font-weight="bold" font-size="9.00">vehicle (non float)</text>
<text text-anchor="start" x="163" y="-171.45" font-family="Times New Roman,serif" font-weight="bold" font-size="9.00">tableware</text>
<polygon fill="none" stroke="black" points="224.75,-163 224.75,-195 298,-195 298,-163 224.75,-163"/>
<text text-anchor="start" x="231.75" y="-177.07" font-family="Times New Roman,serif" font-weight="bold" font-size="9.00">building (float)</text>
<polygon fill="none" stroke="black" points="138.5,-162 138.5,-196 299,-196 299,-162 138.5,-162"/>
</g>
<!-- n_0_1_2_3_4_5&#45;&gt;n_0_2_4 -->
<g id="edge1" class="edge">
<title>n_0_1_2_3_4_5&#45;&gt;n_0_2_4</title>
<path fill="none" stroke="black" d="M290.89,-243.13C278.09,-231.93 262.87,-218.6 249.71,-207.09"/>
<polygon fill="black" stroke="black" points="252.38,-204.77 242.55,-200.82 247.77,-210.04 252.38,-204.77"/>
</g>
<!-- n_1_3_5 -->
<g id="node7" class="node">
<title>n_1_3_5</title>
<polygon fill="none" stroke="black" points="345.5,-163 345.5,-195 436,-195 436,-163 345.5,-163"/>
<text text-anchor="start" x="352.5" y="-180.45" font-family="Times New Roman,serif" font-weight="bold" font-size="9.00">building (non float)</text>
<text text-anchor="start" x="370.12" y="-171.45" font-family="Times New Roman,serif" font-weight="bold" font-size="9.00">containers</text>
<polygon fill="none" stroke="black" points="436,-163 436,-195 492,-195 492,-163 436,-163"/>
<text text-anchor="start" x="443" y="-177.07" font-family="Times New Roman,serif" font-weight="bold" font-size="9.00">headlamps</text>
<polygon fill="none" stroke="black" points="344.5,-162 344.5,-196 493,-196 493,-162 344.5,-162"/>
</g>
<!-- n_0_1_2_3_4_5&#45;&gt;n_1_3_5 -->
<g id="edge6" class="edge">
<title>n_0_1_2_3_4_5&#45;&gt;n_1_3_5</title>
<path fill="none" stroke="black" d="M346.61,-243.13C359.41,-231.93 374.63,-218.6 387.79,-207.09"/>
<polygon fill="black" stroke="black" points="389.73,-210.04 394.95,-200.82 385.12,-204.77 389.73,-210.04"/>
</g>
<!-- n_2_4 -->
<g id="node3" class="node">
<title>n_2_4</title>
<polygon fill="none" stroke="black" points="9,-84.38 9,-109.62 94.25,-109.62 94.25,-84.38 9,-84.38"/>
<text text-anchor="start" x="16" y="-95.08" font-family="Times New Roman,serif" font-weight="bold" font-size="9.00">vehicle (non float)</text>
<polygon fill="none" stroke="black" points="94.25,-84.38 94.25,-109.62 146.5,-109.62 146.5,-84.38 94.25,-84.38"/>
<text text-anchor="start" x="101.25" y="-95.08" font-family="Times New Roman,serif" font-weight="bold" font-size="9.00">tableware</text>
<polygon fill="none" stroke="black" points="8,-83.38 8,-110.62 147.5,-110.62 147.5,-83.38 8,-83.38"/>
</g>
<!-- n_0_2_4&#45;&gt;n_2_4 -->
<g id="edge2" class="edge">
<title>n_0_2_4&#45;&gt;n_2_4</title>
<path fill="none" stroke="black" d="M183.53,-158.02C163.35,-146.56 137.96,-132.16 117.11,-120.33"/>
<polygon fill="black" stroke="black" points="119.03,-117.4 108.6,-115.51 115.57,-123.48 119.03,-117.4"/>
</g>
<!-- n_0 -->
<g id="node6" class="node">
<title>n_0</title>
<polygon fill="none" stroke="black" points="193.12,-84.38 193.12,-109.62 266.38,-109.62 266.38,-84.38 193.12,-84.38"/>
<text text-anchor="start" x="200.12" y="-95.08" font-family="Times New Roman,serif" font-weight="bold" font-size="9.00">building (float)</text>
<polygon fill="none" stroke="black" points="192.12,-83.38 192.12,-110.62 267.38,-110.62 267.38,-83.38 192.12,-83.38"/>
</g>
<!-- n_0_2_4&#45;&gt;n_0 -->
<g id="edge5" class="edge">
<title>n_0_2_4&#45;&gt;n_0</title>
<path fill="none" stroke="black" d="M221.47,-158.22C222.8,-148.54 224.43,-136.72 225.88,-126.11"/>
<polygon fill="black" stroke="black" points="229.33,-126.73 227.23,-116.34 222.4,-125.77 229.33,-126.73"/>
</g>
<!-- n_2 -->
<g id="node4" class="node">
<title>n_2</title>
<polygon fill="none" stroke="black" points="13.12,-5.38 13.12,-30.62 98.38,-30.62 98.38,-5.38 13.12,-5.38"/>
<text text-anchor="start" x="20.12" y="-16.07" font-family="Times New Roman,serif" font-weight="bold" font-size="9.00">vehicle (non float)</text>
<polygon fill="none" stroke="black" points="12.12,-4.38 12.12,-31.62 99.38,-31.62 99.38,-4.38 12.12,-4.38"/>
</g>
<!-- n_2_4&#45;&gt;n_2 -->
<g id="edge3" class="edge">
<title>n_2_4&#45;&gt;n_2</title>
<path fill="none" stroke="black" d="M72.98,-79.29C70.26,-69.77 66.78,-57.6 63.66,-46.69"/>
<polygon fill="black" stroke="black" points="67.12,-46.05 61.01,-37.4 60.39,-47.97 67.12,-46.05"/>
</g>
<!-- n_4 -->
<g id="node5" class="node">
<title>n_4</title>
<polygon fill="none" stroke="black" points="145.62,-5.38 145.62,-30.62 197.88,-30.62 197.88,-5.38 145.62,-5.38"/>
<text text-anchor="start" x="152.62" y="-16.07" font-family="Times New Roman,serif" font-weight="bold" font-size="9.00">tableware</text>
<polygon fill="none" stroke="black" points="144.62,-4.38 144.62,-31.62 198.88,-31.62 198.88,-4.38 144.62,-4.38"/>
</g>
<!-- n_2_4&#45;&gt;n_4 -->
<g id="edge4" class="edge">
<title>n_2_4&#45;&gt;n_4</title>
<path fill="none" stroke="black" d="M98.15,-79.29C111.11,-68.67 128.11,-54.75 142.5,-42.96"/>
<polygon fill="black" stroke="black" points="144.38,-45.94 149.9,-36.9 139.94,-40.53 144.38,-45.94"/>
</g>
<!-- n_1_3 -->
<g id="node8" class="node">
<title>n_1_3</title>
<polygon fill="none" stroke="black" points="334.88,-84.38 334.88,-109.62 425.38,-109.62 425.38,-84.38 334.88,-84.38"/>
<text text-anchor="start" x="341.88" y="-95.08" font-family="Times New Roman,serif" font-weight="bold" font-size="9.00">building (non float)</text>
<polygon fill="none" stroke="black" points="425.38,-84.38 425.38,-109.62 480.62,-109.62 480.62,-84.38 425.38,-84.38"/>
<text text-anchor="start" x="432.38" y="-95.08" font-family="Times New Roman,serif" font-weight="bold" font-size="9.00">containers</text>
<polygon fill="none" stroke="black" points="333.88,-83.38 333.88,-110.62 481.62,-110.62 481.62,-83.38 333.88,-83.38"/>
</g>
<!-- n_1_3_5&#45;&gt;n_1_3 -->
<g id="edge7" class="edge">
<title>n_1_3_5&#45;&gt;n_1_3</title>
<path fill="none" stroke="black" d="M416.03,-158.22C414.7,-148.54 413.07,-136.72 411.62,-126.11"/>
<polygon fill="black" stroke="black" points="415.1,-125.77 410.27,-116.34 408.17,-126.73 415.1,-125.77"/>
</g>
<!-- n_5 -->
<g id="node11" class="node">
<title>n_5</title>
<polygon fill="none" stroke="black" points="527.75,-84.38 527.75,-109.62 583.75,-109.62 583.75,-84.38 527.75,-84.38"/>
<text text-anchor="start" x="534.75" y="-95.08" font-family="Times New Roman,serif" font-weight="bold" font-size="9.00">headlamps</text>
<polygon fill="none" stroke="black" points="526.75,-83.38 526.75,-110.62 584.75,-110.62 584.75,-83.38 526.75,-83.38"/>
</g>
<!-- n_1_3_5&#45;&gt;n_5 -->
<g id="edge10" class="edge">
<title>n_1_3_5&#45;&gt;n_5</title>
<path fill="none" stroke="black" d="M452.97,-158.02C472.49,-146.62 497.03,-132.29 517.23,-120.49"/>
<polygon fill="black" stroke="black" points="518.87,-123.59 525.74,-115.52 515.34,-117.54 518.87,-123.59"/>
</g>
<!-- n_1 -->
<g id="node9" class="node">
<title>n_1</title>
<polygon fill="none" stroke="black" points="292.5,-5.38 292.5,-30.62 383,-30.62 383,-5.38 292.5,-5.38"/>
<text text-anchor="start" x="299.5" y="-16.07" font-family="Times New Roman,serif" font-weight="bold" font-size="9.00">building (non float)</text>
<polygon fill="none" stroke="black" points="291.5,-4.38 291.5,-31.62 384,-31.62 384,-4.38 291.5,-4.38"/>
</g>
<!-- n_1_3&#45;&gt;n_1 -->
<g id="edge8" class="edge">
<title>n_1_3&#45;&gt;n_1</title>
<path fill="none" stroke="black" d="M392.56,-79.29C383.27,-69.07 371.2,-55.79 360.75,-44.3"/>
<polygon fill="black" stroke="black" points="363.49,-42.11 354.17,-37.06 358.31,-46.81 363.49,-42.11"/>
</g>
<!-- n_3 -->
<g id="node10" class="node">
<title>n_3</title>
<polygon fill="none" stroke="black" points="430.12,-5.38 430.12,-30.62 485.38,-30.62 485.38,-5.38 430.12,-5.38"/>
<text text-anchor="start" x="437.12" y="-16.07" font-family="Times New Roman,serif" font-weight="bold" font-size="9.00">containers</text>
<polygon fill="none" stroke="black" points="429.12,-4.38 429.12,-31.62 486.38,-31.62 486.38,-4.38 429.12,-4.38"/>
</g>
<!-- n_1_3&#45;&gt;n_3 -->
<g id="edge9" class="edge">
<title>n_1_3&#45;&gt;n_3</title>
<path fill="none" stroke="black" d="M418.6,-79.29C425.04,-69.37 433.35,-56.57 440.66,-45.32"/>
<polygon fill="black" stroke="black" points="443.41,-47.5 445.92,-37.21 437.54,-43.69 443.41,-47.5"/>
</g>
</g>
</svg>
