<?xml version="1.0" encoding="UTF-8" standalone="no"?>
<!DOCTYPE svg PUBLIC "-//W3C//DTD SVG 1.1//EN"
 "http://www.w3.org/Graphics/SVG/1.1/DTD/svg11.dtd">
<!-- Generated by graphviz version 10.0.1 (20240210.2158)
 -->
<!-- Title: ND Pages: 1 -->
<svg width="585pt" height="302pt"
 viewBox="0.00 0.00 584.75 302.00" xmlns="http://www.w3.org/2000/svg" xmlns:xlink="http://www.w3.org/1999/xlink">
<g id="graph0" class="graph" transform="scale(1 1) rotate(0) translate(4 298)">
<title>ND</title>
<polygon fill="white" stroke="none" points="-4,4 -4,-298 580.75,-298 580.75,4 -4,4"/>
<!-- n_0_1_2_3_4_5 -->
<g id="node1" class="node">
<title>n_0_1_2_3_4_5</title>
<polygon fill="none" stroke="black" points="209.75,-248 209.75,-289 283,-289 283,-248 209.75,-248"/>
<text text-anchor="start" x="216.75" y="-274.45" font-family="Times New Roman,serif" font-weight="bold" font-size="9.00">building (float)</text>
<text text-anchor="start" x="225.75" y="-265.45" font-family="Times New Roman,serif" font-weight="bold" font-size="9.00">containers</text>
<text text-anchor="start" x="225.38" y="-256.45" font-family="Times New Roman,serif" font-weight="bold" font-size="9.00">headlamps</text>
<polygon fill="none" stroke="black" points="283,-248 283,-289 373.5,-289 373.5,-248 283,-248"/>
<text text-anchor="start" x="290" y="-274.45" font-family="Times New Roman,serif" font-weight="bold" font-size="9.00">building (non float)</text>
<text text-anchor="start" x="292.62" y="-265.45" font-family="Times New Roman,serif" font-weight="bold" font-size="9.00">vehicle (non float)</text>
<text text-anchor="start" x="309.12" y="-256.45" font-family="Times New Roman,serif" font-weight="bold" font-size="9.00">tableware</text>
<polygon fill="none" stroke="black" points="208.75,-247 208.75,-290 374.5,-290 374.5,-247 208.75,-247"/>
</g>
<!-- n_0_3_5 -->
<g id="node2" class="node">
<title>n_0_3_5</title>
<polygon fill="none" stroke="black" points="136,-163 136,-195 192,-195 192,-163 136,-163"/>
<text text-anchor="start" x="143.38" y="-180.45" font-family="Times New Roman,serif" font-weight="bold" font-size="9.00">containers</text>
<text text-anchor="start" x="143" y="-171.45" font-family="Times New Roman,serif" font-weight="bold" font-size="9.00">headlamps</text>
<polygon fill="none" stroke="black" points="192,-163 192,-195 265.25,-195 265.25,-163 192,-163"/>
<text text-anchor="start" x="199" y="-177.07" font-family="Times New Roman,serif" font-weight="bold" font-size="9.00">building (float)</text>
<polygon fill="none" stroke="black" points="135,-162 135,-196 266.25,-196 266.25,-162 135,-162"/>
</g>
<!-- n_0_1_2_3_4_5&#45;&gt;n_0_3_5 -->
<g id="edge1" class="edge">
<title>n_0_1_2_3_4_5&#45;&gt;n_0_3_5</title>
<path fill="none" stroke="black" d="M266.28,-243.13C254.85,-232.14 241.3,-219.11 229.49,-207.75"/>
<polygon fill="black" stroke="black" points="231.97,-205.28 222.34,-200.88 227.12,-210.33 231.97,-205.28"/>
</g>
<!-- n_1_2_4 -->
<g id="node7" class="node">
<title>n_1_2_4</title>
<polygon fill="none" stroke="black" points="312.25,-163 312.25,-195 402.75,-195 402.75,-163 312.25,-163"/>
<text text-anchor="start" x="319.25" y="-180.45" font-family="Times New Roman,serif" font-weight="bold" font-size="9.00">building (non float)</text>
<text text-anchor="start" x="321.88" y="-171.45" font-family="Times New Roman,serif" font-weight="bold" font-size="9.00">vehicle (non float)</text>
<polygon fill="none" stroke="black" points="402.75,-163 402.75,-195 455,-195 455,-163 402.75,-163"/>
<text text-anchor="start" x="409.75" y="-177.07" font-family="Times New Roman,serif" font-weight="bold" font-size="9.00">tableware</text>
<polygon fill="none" stroke="black" points="311.25,-162 311.25,-196 456,-196 456,-162 311.25,-162"/>
</g>
<!-- n_0_1_2_3_4_5&#45;&gt;n_1_2_4 -->
<g id="edge6" class="edge">
<title>n_0_1_2_3_4_5&#45;&gt;n_1_2_4</title>
<path fill="none" stroke="black" d="M317.25,-243.13C328.8,-232.14 342.5,-219.11 354.45,-207.75"/>
<polygon fill="black" stroke="black" points="356.85,-210.3 361.68,-200.87 352.02,-205.22 356.85,-210.3"/>
</g>
<!-- n_3_5 -->
<g id="node3" class="node">
<title>n_3_5</title>
<polygon fill="none" stroke="black" points="9,-84.38 9,-109.62 64.25,-109.62 64.25,-84.38 9,-84.38"/>
<text text-anchor="start" x="16" y="-95.08" font-family="Times New Roman,serif" font-weight="bold" font-size="9.00">containers</text>
<polygon fill="none" stroke="black" points="64.25,-84.38 64.25,-109.62 120.25,-109.62 120.25,-84.38 64.25,-84.38"/>
<text text-anchor="start" x="71.25" y="-95.08" font-family="Times New Roman,serif" font-weight="bold" font-size="9.00">headlamps</text>
<polygon fill="none" stroke="black" points="8,-83.38 8,-110.62 121.25,-110.62 121.25,-83.38 8,-83.38"/>
</g>
<!-- n_0_3_5&#45;&gt;n_3_5 -->
<g id="edge2" class="edge">
<title>n_0_3_5&#45;&gt;n_3_5</title>
<path fill="none" stroke="black" d="M166.66,-158.02C147.27,-146.62 122.92,-132.29 102.87,-120.49"/>
<polygon fill="black" stroke="black" points="104.81,-117.58 94.42,-115.53 101.26,-123.61 104.81,-117.58"/>
</g>
<!-- n_0 -->
<g id="node6" class="node">
<title>n_0</title>
<polygon fill="none" stroke="black" points="167,-84.38 167,-109.62 240.25,-109.62 240.25,-84.38 167,-84.38"/>
<text text-anchor="start" x="174" y="-95.08" font-family="Times New Roman,serif" font-weight="bold" font-size="9.00">building (float)</text>
<polygon fill="none" stroke="black" points="166,-83.38 166,-110.62 241.25,-110.62 241.25,-83.38 166,-83.38"/>
</g>
<!-- n_0_3_5&#45;&gt;n_0 -->
<g id="edge5" class="edge">
<title>n_0_3_5&#45;&gt;n_0</title>
<path fill="none" stroke="black" d="M201.37,-158.22C201.73,-148.54 202.17,-136.72 202.57,-126.11"/>
<polygon fill="black" stroke="black" points="206.06,-126.48 202.94,-116.36 199.06,-126.22 206.06,-126.48"/>
</g>
<!-- n_3 -->
<g id="node4" class="node">
<title>n_3</title>
<polygon fill="none" stroke="black" points="14,-5.38 14,-30.62 69.25,-30.62 69.25,-5.38 14,-5.38"/>
<text text-anchor="start" x="21" y="-16.07" font-family="Times New Roman,serif" font-weight="bold" font-size="9.00">containers</text>
<polygon fill="none" stroke="black" points="13,-4.38 13,-31.62 70.25,-31.62 70.25,-4.38 13,-4.38"/>
</g>
<!-- n_3_5&#45;&gt;n_3 -->
<g id="edge3" class="edge">
<title>n_3_5&#45;&gt;n_3</title>
<path fill="none" stroke="black" d="M59.63,-79.29C56.79,-69.77 53.16,-57.6 49.9,-46.69"/>
<polygon fill="black" stroke="black" points="53.33,-45.97 47.12,-37.39 46.63,-47.97 53.33,-45.97"/>
</g>
<!-- n_5 -->
<g id="node5" class="node">
<title>n_5</title>
<polygon fill="none" stroke="black" points="116.62,-5.38 116.62,-30.62 172.62,-30.62 172.62,-5.38 116.62,-5.38"/>
<text text-anchor="start" x="123.62" y="-16.07" font-family="Times New Roman,serif" font-weight="bold" font-size="9.00">headlamps</text>
<polygon fill="none" stroke="black" points="115.62,-4.38 115.62,-31.62 173.62,-31.62 173.62,-4.38 115.62,-4.38"/>
</g>
<!-- n_3_5&#45;&gt;n_5 -->
<g id="edge4" class="edge">
<title>n_3_5&#45;&gt;n_5</title>
<path fill="none" stroke="black" d="M81.98,-79.29C92.81,-68.87 106.94,-55.27 119.04,-43.63"/>
<polygon fill="black" stroke="black" points="121.16,-46.45 125.93,-36.99 116.3,-41.4 121.16,-46.45"/>
</g>
<!-- n_1_2 -->
<g id="node8" class="node">
<title>n_1_2</title>
<polygon fill="none" stroke="black" points="292.75,-84.38 292.75,-109.62 383.25,-109.62 383.25,-84.38 292.75,-84.38"/>
<text text-anchor="start" x="299.75" y="-95.08" font-family="Times New Roman,serif" font-weight="bold" font-size="9.00">building (non float)</text>
<polygon fill="none" stroke="black" points="383.25,-84.38 383.25,-109.62 468.5,-109.62 468.5,-84.38 383.25,-84.38"/>
<text text-anchor="start" x="390.25" y="-95.08" font-family="Times New Roman,serif" font-weight="bold" font-size="9.00">vehicle (non float)</text>
<polygon fill="none" stroke="black" points="291.75,-83.38 291.75,-110.62 469.5,-110.62 469.5,-83.38 291.75,-83.38"/>
</g>
<!-- n_1_2_4&#45;&gt;n_1_2 -->
<g id="edge7" class="edge">
<title>n_1_2_4&#45;&gt;n_1_2</title>
<path fill="none" stroke="black" d="M382.88,-158.22C382.52,-148.54 382.08,-136.72 381.68,-126.11"/>
<polygon fill="black" stroke="black" points="385.19,-126.22 381.31,-116.36 378.19,-126.48 385.19,-126.22"/>
</g>
<!-- n_4 -->
<g id="node11" class="node">
<title>n_4</title>
<polygon fill="none" stroke="black" points="515.5,-84.38 515.5,-109.62 567.75,-109.62 567.75,-84.38 515.5,-84.38"/>
<text text-anchor="start" x="522.5" y="-95.08" font-family="Times New Roman,serif" font-weight="bold" font-size="9.00">tableware</text>
<polygon fill="none" stroke="black" points="514.5,-83.38 514.5,-110.62 568.75,-110.62 568.75,-83.38 514.5,-83.38"/>
</g>
<!-- n_1_2_4&#45;&gt;n_4 -->
<g id="edge10" class="edge">
<title>n_1_2_4&#45;&gt;n_4</title>
<path fill="none" stroke="black" d="M423.09,-158.02C445.94,-146.45 474.74,-131.87 498.22,-119.97"/>
<polygon fill="black" stroke="black" points="499.58,-123.21 506.92,-115.57 496.41,-116.97 499.58,-123.21"/>
</g>
<!-- n_1 -->
<g id="node9" class="node">
<title>n_1</title>
<polygon fill="none" stroke="black" points="274.38,-5.38 274.38,-30.62 364.88,-30.62 364.88,-5.38 274.38,-5.38"/>
<text text-anchor="start" x="281.38" y="-16.07" font-family="Times New Roman,serif" font-weight="bold" font-size="9.00">building (non float)</text>
<polygon fill="none" stroke="black" points="273.38,-4.38 273.38,-31.62 365.88,-31.62 365.88,-4.38 273.38,-4.38"/>
</g>
<!-- n_1_2&#45;&gt;n_1 -->
<g id="edge8" class="edge">
<title>n_1_2&#45;&gt;n_1</title>
<path fill="none" stroke="black" d="M367.39,-79.29C359.37,-69.17 348.98,-56.05 339.94,-44.64"/>
<polygon fill="black" stroke="black" points="342.94,-42.79 333.99,-37.13 337.45,-47.14 342.94,-42.79"/>
</g>
<!-- n_2 -->
<g id="node10" class="node">
<title>n_2</title>
<polygon fill="none" stroke="black" points="412,-5.38 412,-30.62 497.25,-30.62 497.25,-5.38 412,-5.38"/>
<text text-anchor="start" x="419" y="-16.07" font-family="Times New Roman,serif" font-weight="bold" font-size="9.00">vehicle (non float)</text>
<polygon fill="none" stroke="black" points="411,-4.38 411,-31.62 498.25,-31.62 498.25,-4.38 411,-4.38"/>
</g>
<!-- n_1_2&#45;&gt;n_2 -->
<g id="edge9" class="edge">
<title>n_1_2&#45;&gt;n_2</title>
<path fill="none" stroke="black" d="M396.68,-79.29C406.6,-68.97 419.52,-55.53 430.63,-43.96"/>
<polygon fill="black" stroke="black" points="432.89,-46.67 437.3,-37.03 427.84,-41.82 432.89,-46.67"/>
</g>
</g>
</svg>
