<?xml version="1.0" encoding="UTF-8" standalone="no"?>
<!DOCTYPE svg PUBLIC "-//W3C//DTD SVG 1.1//EN"
 "http://www.w3.org/Graphics/SVG/1.1/DTD/svg11.dtd">
<!-- Generated by graphviz version 10.0.1 (20240210.2158)
 -->
<!-- Title: ND Pages: 1 -->
<svg width="546pt" height="517pt"
 viewBox="0.00 0.00 546.25 517.00" xmlns="http://www.w3.org/2000/svg" xmlns:xlink="http://www.w3.org/1999/xlink">
<g id="graph0" class="graph" transform="scale(1 1) rotate(0) translate(4 513)">
<title>ND</title>
<polygon fill="white" stroke="none" points="-4,4 -4,-513 542.25,-513 542.25,4 -4,4"/>
<!-- n_0_1_2_3_4_5 -->
<g id="node1" class="node">
<title>n_0_1_2_3_4_5</title>
<polygon fill="none" stroke="black" points="354.75,-445 354.75,-504 445.25,-504 445.25,-445 354.75,-445"/>
<text text-anchor="start" x="370.38" y="-489.45" font-family="Times New Roman,serif" font-weight="bold" font-size="9.00">building (float)</text>
<text text-anchor="start" x="361.75" y="-480.45" font-family="Times New Roman,serif" font-weight="bold" font-size="9.00">building (non float)</text>
<text text-anchor="start" x="364.38" y="-471.45" font-family="Times New Roman,serif" font-weight="bold" font-size="9.00">vehicle (non float)</text>
<text text-anchor="start" x="380.88" y="-462.45" font-family="Times New Roman,serif" font-weight="bold" font-size="9.00">tableware</text>
<text text-anchor="start" x="379" y="-453.45" font-family="Times New Roman,serif" font-weight="bold" font-size="9.00">headlamps</text>
<polygon fill="none" stroke="black" points="445.25,-445 445.25,-504 500.5,-504 500.5,-445 445.25,-445"/>
<text text-anchor="start" x="452.25" y="-472.57" font-family="Times New Roman,serif" font-weight="bold" font-size="9.00">containers</text>
<polygon fill="none" stroke="black" points="353.75,-444 353.75,-505 501.5,-505 501.5,-444 353.75,-444"/>
</g>
<!-- n_0_1_2_4_5 -->
<g id="node2" class="node">
<title>n_0_1_2_4_5</title>
<polygon fill="none" stroke="black" points="280.38,-342 280.38,-392 370.88,-392 370.88,-342 280.38,-342"/>
<text text-anchor="start" x="296" y="-377.45" font-family="Times New Roman,serif" font-weight="bold" font-size="9.00">building (float)</text>
<text text-anchor="start" x="287.38" y="-368.45" font-family="Times New Roman,serif" font-weight="bold" font-size="9.00">building (non float)</text>
<text text-anchor="start" x="290" y="-359.45" font-family="Times New Roman,serif" font-weight="bold" font-size="9.00">vehicle (non float)</text>
<text text-anchor="start" x="306.5" y="-350.45" font-family="Times New Roman,serif" font-weight="bold" font-size="9.00">tableware</text>
<polygon fill="none" stroke="black" points="370.88,-342 370.88,-392 426.88,-392 426.88,-342 370.88,-342"/>
<text text-anchor="start" x="377.88" y="-365.07" font-family="Times New Roman,serif" font-weight="bold" font-size="9.00">headlamps</text>
<polygon fill="none" stroke="black" points="279.38,-341 279.38,-393 427.88,-393 427.88,-341 279.38,-341"/>
</g>
<!-- n_0_1_2_3_4_5&#45;&gt;n_0_1_2_4_5 -->
<g id="edge1" class="edge">
<title>n_0_1_2_3_4_5&#45;&gt;n_0_1_2_4_5</title>
<path fill="none" stroke="black" d="M404.21,-440.12C396.6,-429.27 388.1,-417.16 380.28,-406"/>
<polygon fill="black" stroke="black" points="383.37,-404.31 374.76,-398.14 377.64,-408.33 383.37,-404.31"/>
</g>
<!-- n_3 -->
<g id="node11" class="node">
<title>n_3</title>
<polygon fill="none" stroke="black" points="474,-354.38 474,-379.62 529.25,-379.62 529.25,-354.38 474,-354.38"/>
<text text-anchor="start" x="481" y="-365.07" font-family="Times New Roman,serif" font-weight="bold" font-size="9.00">containers</text>
<polygon fill="none" stroke="black" points="473,-353.38 473,-380.62 530.25,-380.62 530.25,-353.38 473,-353.38"/>
</g>
<!-- n_0_1_2_3_4_5&#45;&gt;n_3 -->
<g id="edge10" class="edge">
<title>n_0_1_2_3_4_5&#45;&gt;n_3</title>
<path fill="none" stroke="black" d="M451.04,-440.12C461.5,-425.21 473.64,-407.9 483.4,-393.98"/>
<polygon fill="black" stroke="black" points="485.99,-396.39 488.87,-386.19 480.26,-392.37 485.99,-396.39"/>
</g>
<!-- n_0_1_2_4 -->
<g id="node3" class="node">
<title>n_0_1_2_4</title>
<polygon fill="none" stroke="black" points="193.75,-248 193.75,-289 284.25,-289 284.25,-248 193.75,-248"/>
<text text-anchor="start" x="200.75" y="-274.45" font-family="Times New Roman,serif" font-weight="bold" font-size="9.00">building (non float)</text>
<text text-anchor="start" x="203.38" y="-265.45" font-family="Times New Roman,serif" font-weight="bold" font-size="9.00">vehicle (non float)</text>
<text text-anchor="start" x="219.88" y="-256.45" font-family="Times New Roman,serif" font-weight="bold" font-size="9.00">tableware</text>
<polygon fill="none" stroke="black" points="284.25,-248 284.25,-289 357.5,-289 357.5,-248 284.25,-248"/>
<text text-anchor="start" x="291.25" y="-266.57" font-family="Times New Roman,serif" font-weight="bold" font-size="9.00">building (float)</text>
<polygon fill="none" stroke="black" points="192.75,-247 192.75,-290 358.5,-290 358.5,-247 192.75,-247"/>
</g>
<!-- n_0_1_2_4_5&#45;&gt;n_0_1_2_4 -->
<g id="edge2" class="edge">
<title>n_0_1_2_4_5&#45;&gt;n_0_1_2_4</title>
<path fill="none" stroke="black" d="M330.22,-337.05C321.44,-326.18 311.4,-313.76 302.34,-302.55"/>
<polygon fill="black" stroke="black" points="305.29,-300.63 296.28,-295.05 299.84,-305.03 305.29,-300.63"/>
</g>
<!-- n_5 -->
<g id="node10" class="node">
<title>n_5</title>
<polygon fill="none" stroke="black" points="404.62,-255.88 404.62,-281.12 460.62,-281.12 460.62,-255.88 404.62,-255.88"/>
<text text-anchor="start" x="411.62" y="-266.57" font-family="Times New Roman,serif" font-weight="bold" font-size="9.00">headlamps</text>
<polygon fill="none" stroke="black" points="403.62,-254.88 403.62,-282.12 461.62,-282.12 461.62,-254.88 403.62,-254.88"/>
</g>
<!-- n_0_1_2_4_5&#45;&gt;n_5 -->
<g id="edge9" class="edge">
<title>n_0_1_2_4_5&#45;&gt;n_5</title>
<path fill="none" stroke="black" d="M377.33,-337.05C388.23,-323.73 401.05,-308.07 411.6,-295.19"/>
<polygon fill="black" stroke="black" points="414.23,-297.49 417.86,-287.54 408.82,-293.06 414.23,-297.49"/>
</g>
<!-- n_1_2_4 -->
<g id="node4" class="node">
<title>n_1_2_4</title>
<polygon fill="none" stroke="black" points="101.75,-163 101.75,-195 187,-195 187,-163 101.75,-163"/>
<text text-anchor="start" x="108.75" y="-180.45" font-family="Times New Roman,serif" font-weight="bold" font-size="9.00">vehicle (non float)</text>
<text text-anchor="start" x="125.25" y="-171.45" font-family="Times New Roman,serif" font-weight="bold" font-size="9.00">tableware</text>
<polygon fill="none" stroke="black" points="187,-163 187,-195 277.5,-195 277.5,-163 187,-163"/>
<text text-anchor="start" x="194" y="-177.07" font-family="Times New Roman,serif" font-weight="bold" font-size="9.00">building (non float)</text>
<polygon fill="none" stroke="black" points="100.75,-162 100.75,-196 278.5,-196 278.5,-162 100.75,-162"/>
</g>
<!-- n_0_1_2_4&#45;&gt;n_1_2_4 -->
<g id="edge3" class="edge">
<title>n_0_1_2_4&#45;&gt;n_1_2_4</title>
<path fill="none" stroke="black" d="M251.67,-243.13C240.87,-232.14 228.06,-219.11 216.9,-207.75"/>
<polygon fill="black" stroke="black" points="219.68,-205.58 210.17,-200.91 214.69,-210.49 219.68,-205.58"/>
</g>
<!-- n_0 -->
<g id="node9" class="node">
<title>n_0</title>
<polygon fill="none" stroke="black" points="325,-166.38 325,-191.62 398.25,-191.62 398.25,-166.38 325,-166.38"/>
<text text-anchor="start" x="332" y="-177.07" font-family="Times New Roman,serif" font-weight="bold" font-size="9.00">building (float)</text>
<polygon fill="none" stroke="black" points="324,-165.38 324,-192.62 399.25,-192.62 399.25,-165.38 324,-165.38"/>
</g>
<!-- n_0_1_2_4&#45;&gt;n_0 -->
<g id="edge8" class="edge">
<title>n_0_1_2_4&#45;&gt;n_0</title>
<path fill="none" stroke="black" d="M299.58,-243.13C311.37,-231.13 325.56,-216.7 337.39,-204.66"/>
<polygon fill="black" stroke="black" points="339.57,-207.44 344.08,-197.85 334.58,-202.53 339.57,-207.44"/>
</g>
<!-- n_2_4 -->
<g id="node5" class="node">
<title>n_2_4</title>
<polygon fill="none" stroke="black" points="40.88,-84.38 40.88,-109.62 126.12,-109.62 126.12,-84.38 40.88,-84.38"/>
<text text-anchor="start" x="47.88" y="-95.08" font-family="Times New Roman,serif" font-weight="bold" font-size="9.00">vehicle (non float)</text>
<polygon fill="none" stroke="black" points="126.12,-84.38 126.12,-109.62 178.38,-109.62 178.38,-84.38 126.12,-84.38"/>
<text text-anchor="start" x="133.12" y="-95.08" font-family="Times New Roman,serif" font-weight="bold" font-size="9.00">tableware</text>
<polygon fill="none" stroke="black" points="39.88,-83.38 39.88,-110.62 179.38,-110.62 179.38,-83.38 39.88,-83.38"/>
</g>
<!-- n_1_2_4&#45;&gt;n_2_4 -->
<g id="edge4" class="edge">
<title>n_1_2_4&#45;&gt;n_2_4</title>
<path fill="none" stroke="black" d="M169.85,-158.22C159.13,-147.5 145.77,-134.15 134.37,-122.74"/>
<polygon fill="black" stroke="black" points="137.08,-120.51 127.54,-115.91 132.14,-125.46 137.08,-120.51"/>
</g>
<!-- n_1 -->
<g id="node8" class="node">
<title>n_1</title>
<polygon fill="none" stroke="black" points="225.38,-84.38 225.38,-109.62 315.88,-109.62 315.88,-84.38 225.38,-84.38"/>
<text text-anchor="start" x="232.38" y="-95.08" font-family="Times New Roman,serif" font-weight="bold" font-size="9.00">building (non float)</text>
<polygon fill="none" stroke="black" points="224.38,-83.38 224.38,-110.62 316.88,-110.62 316.88,-83.38 224.38,-83.38"/>
</g>
<!-- n_1_2_4&#45;&gt;n_1 -->
<g id="edge7" class="edge">
<title>n_1_2_4&#45;&gt;n_1</title>
<path fill="none" stroke="black" d="M209.65,-158.22C220.5,-147.5 234.03,-134.15 245.58,-122.74"/>
<polygon fill="black" stroke="black" points="247.84,-125.42 252.49,-115.91 242.92,-120.44 247.84,-125.42"/>
</g>
<!-- n_2 -->
<g id="node6" class="node">
<title>n_2</title>
<polygon fill="none" stroke="black" points="9,-5.38 9,-30.62 94.25,-30.62 94.25,-5.38 9,-5.38"/>
<text text-anchor="start" x="16" y="-16.07" font-family="Times New Roman,serif" font-weight="bold" font-size="9.00">vehicle (non float)</text>
<polygon fill="none" stroke="black" points="8,-4.38 8,-31.62 95.25,-31.62 95.25,-4.38 8,-4.38"/>
</g>
<!-- n_2_4&#45;&gt;n_2 -->
<g id="edge5" class="edge">
<title>n_2_4&#45;&gt;n_2</title>
<path fill="none" stroke="black" d="M97.04,-79.29C89.49,-69.27 79.73,-56.31 71.19,-44.98"/>
<polygon fill="black" stroke="black" points="74.11,-43.03 65.3,-37.15 68.52,-47.24 74.11,-43.03"/>
</g>
<!-- n_4 -->
<g id="node7" class="node">
<title>n_4</title>
<polygon fill="none" stroke="black" points="141.5,-5.38 141.5,-30.62 193.75,-30.62 193.75,-5.38 141.5,-5.38"/>
<text text-anchor="start" x="148.5" y="-16.07" font-family="Times New Roman,serif" font-weight="bold" font-size="9.00">tableware</text>
<polygon fill="none" stroke="black" points="140.5,-4.38 140.5,-31.62 194.75,-31.62 194.75,-4.38 140.5,-4.38"/>
</g>
<!-- n_2_4&#45;&gt;n_4 -->
<g id="edge6" class="edge">
<title>n_2_4&#45;&gt;n_4</title>
<path fill="none" stroke="black" d="M122.21,-79.29C129.76,-69.27 139.52,-56.31 148.06,-44.98"/>
<polygon fill="black" stroke="black" points="150.73,-47.24 153.95,-37.15 145.14,-43.03 150.73,-47.24"/>
</g>
</g>
</svg>
