<?xml version="1.0" encoding="UTF-8" standalone="no"?>
<!DOCTYPE svg PUBLIC "-//W3C//DTD SVG 1.1//EN"
 "http://www.w3.org/Graphics/SVG/1.1/DTD/svg11.dtd">
<!-- Generated by graphviz version 10.0.1 (20240210.2158)
 -->
<!-- Title: ND Pages: 1 -->
<svg width="673pt" height="405pt"
 viewBox="0.00 0.00 672.88 405.00" xmlns="http://www.w3.org/2000/svg" xmlns:xlink="http://www.w3.org/1999/xlink">
<g id="graph0" class="graph" transform="scale(1 1) rotate(0) translate(4 401)">
<title>ND</title>
<polygon fill="white" stroke="none" points="-4,4 -4,-401 668.88,-401 668.88,4 -4,4"/>
<!-- n_0_1_2_3_4_5 -->
<g id="node1" class="node">
<title>n_0_1_2_3_4_5</title>
<polygon fill="none" stroke="black" points="315.75,-342 315.75,-392 401,-392 401,-342 315.75,-342"/>
<text text-anchor="start" x="322.75" y="-377.45" font-family="Times New Roman,serif" font-weight="bold" font-size="9.00">vehicle (non float)</text>
<text text-anchor="start" x="337.75" y="-368.45" font-family="Times New Roman,serif" font-weight="bold" font-size="9.00">containers</text>
<text text-anchor="start" x="339.25" y="-359.45" font-family="Times New Roman,serif" font-weight="bold" font-size="9.00">tableware</text>
<text text-anchor="start" x="337.38" y="-350.45" font-family="Times New Roman,serif" font-weight="bold" font-size="9.00">headlamps</text>
<polygon fill="none" stroke="black" points="401,-342 401,-392 491.5,-392 491.5,-342 401,-342"/>
<text text-anchor="start" x="416.62" y="-368.45" font-family="Times New Roman,serif" font-weight="bold" font-size="9.00">building (float)</text>
<text text-anchor="start" x="408" y="-359.45" font-family="Times New Roman,serif" font-weight="bold" font-size="9.00">building (non float)</text>
<polygon fill="none" stroke="black" points="314.75,-341 314.75,-393 492.5,-393 492.5,-341 314.75,-341"/>
</g>
<!-- n_2_3_4_5 -->
<g id="node2" class="node">
<title>n_2_3_4_5</title>
<polygon fill="none" stroke="black" points="234.38,-248 234.38,-289 319.62,-289 319.62,-248 234.38,-248"/>
<text text-anchor="start" x="241.38" y="-274.45" font-family="Times New Roman,serif" font-weight="bold" font-size="9.00">vehicle (non float)</text>
<text text-anchor="start" x="257.88" y="-265.45" font-family="Times New Roman,serif" font-weight="bold" font-size="9.00">tableware</text>
<text text-anchor="start" x="256" y="-256.45" font-family="Times New Roman,serif" font-weight="bold" font-size="9.00">headlamps</text>
<polygon fill="none" stroke="black" points="319.62,-248 319.62,-289 374.88,-289 374.88,-248 319.62,-248"/>
<text text-anchor="start" x="326.62" y="-266.57" font-family="Times New Roman,serif" font-weight="bold" font-size="9.00">containers</text>
<polygon fill="none" stroke="black" points="233.38,-247 233.38,-290 375.88,-290 375.88,-247 233.38,-247"/>
</g>
<!-- n_0_1_2_3_4_5&#45;&gt;n_2_3_4_5 -->
<g id="edge1" class="edge">
<title>n_0_1_2_3_4_5&#45;&gt;n_2_3_4_5</title>
<path fill="none" stroke="black" d="M373.92,-337.05C362.56,-325.97 349.52,-313.26 337.85,-301.88"/>
<polygon fill="black" stroke="black" points="340.32,-299.4 330.71,-294.93 335.43,-304.42 340.32,-299.4"/>
</g>
<!-- n_0_1 -->
<g id="node9" class="node">
<title>n_0_1</title>
<polygon fill="none" stroke="black" points="421.75,-255.88 421.75,-281.12 495,-281.12 495,-255.88 421.75,-255.88"/>
<text text-anchor="start" x="428.75" y="-266.57" font-family="Times New Roman,serif" font-weight="bold" font-size="9.00">building (float)</text>
<polygon fill="none" stroke="black" points="495,-255.88 495,-281.12 585.5,-281.12 585.5,-255.88 495,-255.88"/>
<text text-anchor="start" x="502" y="-266.57" font-family="Times New Roman,serif" font-weight="bold" font-size="9.00">building (non float)</text>
<polygon fill="none" stroke="black" points="420.75,-254.88 420.75,-282.12 586.5,-282.12 586.5,-254.88 420.75,-254.88"/>
</g>
<!-- n_0_1_2_3_4_5&#45;&gt;n_0_1 -->
<g id="edge8" class="edge">
<title>n_0_1_2_3_4_5&#45;&gt;n_0_1</title>
<path fill="none" stroke="black" d="M433.63,-337.05C447.83,-323.35 464.6,-307.16 478.17,-294.07"/>
<polygon fill="black" stroke="black" points="480.29,-296.88 485.06,-287.42 475.43,-291.84 480.29,-296.88"/>
</g>
<!-- n_2_4_5 -->
<g id="node3" class="node">
<title>n_2_4_5</title>
<polygon fill="none" stroke="black" points="111,-163 111,-195 196.25,-195 196.25,-163 111,-163"/>
<text text-anchor="start" x="118" y="-180.45" font-family="Times New Roman,serif" font-weight="bold" font-size="9.00">vehicle (non float)</text>
<text text-anchor="start" x="134.5" y="-171.45" font-family="Times New Roman,serif" font-weight="bold" font-size="9.00">tableware</text>
<polygon fill="none" stroke="black" points="196.25,-163 196.25,-195 252.25,-195 252.25,-163 196.25,-163"/>
<text text-anchor="start" x="203.25" y="-177.07" font-family="Times New Roman,serif" font-weight="bold" font-size="9.00">headlamps</text>
<polygon fill="none" stroke="black" points="110,-162 110,-196 253.25,-196 253.25,-162 110,-162"/>
</g>
<!-- n_2_3_4_5&#45;&gt;n_2_4_5 -->
<g id="edge2" class="edge">
<title>n_2_3_4_5&#45;&gt;n_2_4_5</title>
<path fill="none" stroke="black" d="M270.36,-243.13C254.32,-231.71 235.18,-218.1 218.78,-206.43"/>
<polygon fill="black" stroke="black" points="220.91,-203.65 210.73,-200.7 216.85,-209.35 220.91,-203.65"/>
</g>
<!-- n_3 -->
<g id="node8" class="node">
<title>n_3</title>
<polygon fill="none" stroke="black" points="299,-166.38 299,-191.62 354.25,-191.62 354.25,-166.38 299,-166.38"/>
<text text-anchor="start" x="306" y="-177.07" font-family="Times New Roman,serif" font-weight="bold" font-size="9.00">containers</text>
<polygon fill="none" stroke="black" points="298,-165.38 298,-192.62 355.25,-192.62 355.25,-165.38 298,-165.38"/>
</g>
<!-- n_2_3_4_5&#45;&gt;n_3 -->
<g id="edge7" class="edge">
<title>n_2_3_4_5&#45;&gt;n_3</title>
<path fill="none" stroke="black" d="M310.75,-243.13C313.51,-232.17 316.78,-219.18 319.63,-207.84"/>
<polygon fill="black" stroke="black" points="323,-208.79 322.04,-198.24 316.21,-207.08 323,-208.79"/>
</g>
<!-- n_2_4 -->
<g id="node4" class="node">
<title>n_2_4</title>
<polygon fill="none" stroke="black" points="40.88,-84.38 40.88,-109.62 126.12,-109.62 126.12,-84.38 40.88,-84.38"/>
<text text-anchor="start" x="47.88" y="-95.08" font-family="Times New Roman,serif" font-weight="bold" font-size="9.00">vehicle (non float)</text>
<polygon fill="none" stroke="black" points="126.12,-84.38 126.12,-109.62 178.38,-109.62 178.38,-84.38 126.12,-84.38"/>
<text text-anchor="start" x="133.12" y="-95.08" font-family="Times New Roman,serif" font-weight="bold" font-size="9.00">tableware</text>
<polygon fill="none" stroke="black" points="39.88,-83.38 39.88,-110.62 179.38,-110.62 179.38,-83.38 39.88,-83.38"/>
</g>
<!-- n_2_4_5&#45;&gt;n_2_4 -->
<g id="edge3" class="edge">
<title>n_2_4_5&#45;&gt;n_2_4</title>
<path fill="none" stroke="black" d="M163.83,-158.22C154.27,-147.61 142.39,-134.41 132.19,-123.07"/>
<polygon fill="black" stroke="black" points="135.09,-121.06 125.8,-115.97 129.89,-125.74 135.09,-121.06"/>
</g>
<!-- n_5 -->
<g id="node7" class="node">
<title>n_5</title>
<polygon fill="none" stroke="black" points="225.62,-84.38 225.62,-109.62 281.62,-109.62 281.62,-84.38 225.62,-84.38"/>
<text text-anchor="start" x="232.62" y="-95.08" font-family="Times New Roman,serif" font-weight="bold" font-size="9.00">headlamps</text>
<polygon fill="none" stroke="black" points="224.62,-83.38 224.62,-110.62 282.62,-110.62 282.62,-83.38 224.62,-83.38"/>
</g>
<!-- n_2_4_5&#45;&gt;n_5 -->
<g id="edge6" class="edge">
<title>n_2_4_5&#45;&gt;n_5</title>
<path fill="none" stroke="black" d="M199.42,-158.22C208.98,-147.61 220.86,-134.41 231.06,-123.07"/>
<polygon fill="black" stroke="black" points="233.36,-125.74 237.45,-115.97 228.16,-121.06 233.36,-125.74"/>
</g>
<!-- n_2 -->
<g id="node5" class="node">
<title>n_2</title>
<polygon fill="none" stroke="black" points="9,-5.38 9,-30.62 94.25,-30.62 94.25,-5.38 9,-5.38"/>
<text text-anchor="start" x="16" y="-16.07" font-family="Times New Roman,serif" font-weight="bold" font-size="9.00">vehicle (non float)</text>
<polygon fill="none" stroke="black" points="8,-4.38 8,-31.62 95.25,-31.62 95.25,-4.38 8,-4.38"/>
</g>
<!-- n_2_4&#45;&gt;n_2 -->
<g id="edge4" class="edge">
<title>n_2_4&#45;&gt;n_2</title>
<path fill="none" stroke="black" d="M97.04,-79.29C89.49,-69.27 79.73,-56.31 71.19,-44.98"/>
<polygon fill="black" stroke="black" points="74.11,-43.03 65.3,-37.15 68.52,-47.24 74.11,-43.03"/>
</g>
<!-- n_4 -->
<g id="node6" class="node">
<title>n_4</title>
<polygon fill="none" stroke="black" points="141.5,-5.38 141.5,-30.62 193.75,-30.62 193.75,-5.38 141.5,-5.38"/>
<text text-anchor="start" x="148.5" y="-16.07" font-family="Times New Roman,serif" font-weight="bold" font-size="9.00">tableware</text>
<polygon fill="none" stroke="black" points="140.5,-4.38 140.5,-31.62 194.75,-31.62 194.75,-4.38 140.5,-4.38"/>
</g>
<!-- n_2_4&#45;&gt;n_4 -->
<g id="edge5" class="edge">
<title>n_2_4&#45;&gt;n_4</title>
<path fill="none" stroke="black" d="M122.21,-79.29C129.76,-69.27 139.52,-56.31 148.06,-44.98"/>
<polygon fill="black" stroke="black" points="150.73,-47.24 153.95,-37.15 145.14,-43.03 150.73,-47.24"/>
</g>
<!-- n_0 -->
<g id="node10" class="node">
<title>n_0</title>
<polygon fill="none" stroke="black" points="445,-166.38 445,-191.62 518.25,-191.62 518.25,-166.38 445,-166.38"/>
<text text-anchor="start" x="452" y="-177.07" font-family="Times New Roman,serif" font-weight="bold" font-size="9.00">building (float)</text>
<polygon fill="none" stroke="black" points="444,-165.38 444,-192.62 519.25,-192.62 519.25,-165.38 444,-165.38"/>
</g>
<!-- n_0_1&#45;&gt;n_0 -->
<g id="edge9" class="edge">
<title>n_0_1&#45;&gt;n_0</title>
<path fill="none" stroke="black" d="M499.38,-250.63C496.34,-238.52 492.17,-221.94 488.63,-207.88"/>
<polygon fill="black" stroke="black" points="492.06,-207.13 486.22,-198.29 485.27,-208.84 492.06,-207.13"/>
</g>
<!-- n_1 -->
<g id="node11" class="node">
<title>n_1</title>
<polygon fill="none" stroke="black" points="565.38,-166.38 565.38,-191.62 655.88,-191.62 655.88,-166.38 565.38,-166.38"/>
<text text-anchor="start" x="572.38" y="-177.07" font-family="Times New Roman,serif" font-weight="bold" font-size="9.00">building (non float)</text>
<polygon fill="none" stroke="black" points="564.38,-165.38 564.38,-192.62 656.88,-192.62 656.88,-165.38 564.38,-165.38"/>
</g>
<!-- n_0_1&#45;&gt;n_1 -->
<g id="edge10" class="edge">
<title>n_0_1&#45;&gt;n_1</title>
<path fill="none" stroke="black" d="M524.26,-250.63C540.54,-237.31 563.45,-218.57 581.59,-203.74"/>
<polygon fill="black" stroke="black" points="583.36,-206.82 588.89,-197.78 578.93,-201.4 583.36,-206.82"/>
</g>
</g>
</svg>
