<?xml version="1.0" encoding="UTF-8" standalone="no"?>
<!DOCTYPE svg PUBLIC "-//W3C//DTD SVG 1.1//EN"
 "http://www.w3.org/Graphics/SVG/1.1/DTD/svg11.dtd">
<!-- Generated by graphviz version 10.0.1 (20240210.2158)
 -->
<!-- Title: ND Pages: 1 -->
<svg width="604pt" height="414pt"
 viewBox="0.00 0.00 603.88 414.00" xmlns="http://www.w3.org/2000/svg" xmlns:xlink="http://www.w3.org/1999/xlink">
<g id="graph0" class="graph" transform="scale(1 1) rotate(0) translate(4 410)">
<title>ND</title>
<polygon fill="white" stroke="none" points="-4,4 -4,-410 599.88,-410 599.88,4 -4,4"/>
<!-- n_0_1_2_3_4_5 -->
<g id="node1" class="node">
<title>n_0_1_2_3_4_5</title>
<polygon fill="none" stroke="black" points="348.88,-342 348.88,-401 439.38,-401 439.38,-342 348.88,-342"/>
<text text-anchor="start" x="364.5" y="-386.45" font-family="Times New Roman,serif" font-weight="bold" font-size="9.00">building (float)</text>
<text text-anchor="start" x="355.88" y="-377.45" font-family="Times New Roman,serif" font-weight="bold" font-size="9.00">building (non float)</text>
<text text-anchor="start" x="358.5" y="-368.45" font-family="Times New Roman,serif" font-weight="bold" font-size="9.00">vehicle (non float)</text>
<text text-anchor="start" x="373.5" y="-359.45" font-family="Times New Roman,serif" font-weight="bold" font-size="9.00">containers</text>
<text text-anchor="start" x="373.12" y="-350.45" font-family="Times New Roman,serif" font-weight="bold" font-size="9.00">headlamps</text>
<polygon fill="none" stroke="black" points="439.38,-342 439.38,-401 491.62,-401 491.62,-342 439.38,-342"/>
<text text-anchor="start" x="446.38" y="-369.57" font-family="Times New Roman,serif" font-weight="bold" font-size="9.00">tableware</text>
<polygon fill="none" stroke="black" points="347.88,-341 347.88,-402 492.62,-402 492.62,-341 347.88,-341"/>
</g>
<!-- n_0_1_2_3_5 -->
<g id="node2" class="node">
<title>n_0_1_2_3_5</title>
<polygon fill="none" stroke="black" points="252.38,-248 252.38,-289 342.88,-289 342.88,-248 252.38,-248"/>
<text text-anchor="start" x="259.38" y="-274.45" font-family="Times New Roman,serif" font-weight="bold" font-size="9.00">building (non float)</text>
<text text-anchor="start" x="277" y="-265.45" font-family="Times New Roman,serif" font-weight="bold" font-size="9.00">containers</text>
<text text-anchor="start" x="276.62" y="-256.45" font-family="Times New Roman,serif" font-weight="bold" font-size="9.00">headlamps</text>
<polygon fill="none" stroke="black" points="342.88,-248 342.88,-289 428.12,-289 428.12,-248 342.88,-248"/>
<text text-anchor="start" x="355.88" y="-269.95" font-family="Times New Roman,serif" font-weight="bold" font-size="9.00">building (float)</text>
<text text-anchor="start" x="349.88" y="-260.95" font-family="Times New Roman,serif" font-weight="bold" font-size="9.00">vehicle (non float)</text>
<polygon fill="none" stroke="black" points="251.38,-247 251.38,-290 429.12,-290 429.12,-247 251.38,-247"/>
</g>
<!-- n_0_1_2_3_4_5&#45;&gt;n_0_1_2_3_5 -->
<g id="edge1" class="edge">
<title>n_0_1_2_3_4_5&#45;&gt;n_0_1_2_3_5</title>
<path fill="none" stroke="black" d="M393.83,-337.15C385.09,-326.11 375.36,-313.82 366.61,-302.78"/>
<polygon fill="black" stroke="black" points="369.44,-300.71 360.48,-295.05 363.95,-305.06 369.44,-300.71"/>
</g>
<!-- n_4 -->
<g id="node11" class="node">
<title>n_4</title>
<polygon fill="none" stroke="black" points="475.12,-255.88 475.12,-281.12 527.38,-281.12 527.38,-255.88 475.12,-255.88"/>
<text text-anchor="start" x="482.12" y="-266.57" font-family="Times New Roman,serif" font-weight="bold" font-size="9.00">tableware</text>
<polygon fill="none" stroke="black" points="474.12,-254.88 474.12,-282.12 528.38,-282.12 528.38,-254.88 474.12,-254.88"/>
</g>
<!-- n_0_1_2_3_4_5&#45;&gt;n_4 -->
<g id="edge10" class="edge">
<title>n_0_1_2_3_4_5&#45;&gt;n_4</title>
<path fill="none" stroke="black" d="M447,-337.15C457.97,-323.46 470.48,-307.87 480.71,-295.11"/>
<polygon fill="black" stroke="black" points="483.24,-297.55 486.77,-287.56 477.78,-293.17 483.24,-297.55"/>
</g>
<!-- n_1_3_5 -->
<g id="node3" class="node">
<title>n_1_3_5</title>
<polygon fill="none" stroke="black" points="167,-163 167,-195 257.5,-195 257.5,-163 167,-163"/>
<text text-anchor="start" x="174" y="-180.45" font-family="Times New Roman,serif" font-weight="bold" font-size="9.00">building (non float)</text>
<text text-anchor="start" x="191.62" y="-171.45" font-family="Times New Roman,serif" font-weight="bold" font-size="9.00">containers</text>
<polygon fill="none" stroke="black" points="257.5,-163 257.5,-195 313.5,-195 313.5,-163 257.5,-163"/>
<text text-anchor="start" x="264.5" y="-177.07" font-family="Times New Roman,serif" font-weight="bold" font-size="9.00">headlamps</text>
<polygon fill="none" stroke="black" points="166,-162 166,-196 314.5,-196 314.5,-162 166,-162"/>
</g>
<!-- n_0_1_2_3_5&#45;&gt;n_1_3_5 -->
<g id="edge2" class="edge">
<title>n_0_1_2_3_5&#45;&gt;n_1_3_5</title>
<path fill="none" stroke="black" d="M312.39,-243.13C299.59,-231.93 284.37,-218.6 271.21,-207.09"/>
<polygon fill="black" stroke="black" points="273.88,-204.77 264.05,-200.82 269.27,-210.04 273.88,-204.77"/>
</g>
<!-- n_0_2 -->
<g id="node8" class="node">
<title>n_0_2</title>
<polygon fill="none" stroke="black" points="361,-166.38 361,-191.62 434.25,-191.62 434.25,-166.38 361,-166.38"/>
<text text-anchor="start" x="368" y="-177.07" font-family="Times New Roman,serif" font-weight="bold" font-size="9.00">building (float)</text>
<polygon fill="none" stroke="black" points="434.25,-166.38 434.25,-191.62 519.5,-191.62 519.5,-166.38 434.25,-166.38"/>
<text text-anchor="start" x="441.25" y="-177.07" font-family="Times New Roman,serif" font-weight="bold" font-size="9.00">vehicle (non float)</text>
<polygon fill="none" stroke="black" points="360,-165.38 360,-192.62 520.5,-192.62 520.5,-165.38 360,-165.38"/>
</g>
<!-- n_0_1_2_3_5&#45;&gt;n_0_2 -->
<g id="edge7" class="edge">
<title>n_0_1_2_3_5&#45;&gt;n_0_2</title>
<path fill="none" stroke="black" d="M368.11,-243.13C381.95,-231.01 398.63,-216.42 412.46,-204.31"/>
<polygon fill="black" stroke="black" points="414.72,-206.99 419.94,-197.77 410.11,-201.72 414.72,-206.99"/>
</g>
<!-- n_1_3 -->
<g id="node4" class="node">
<title>n_1_3</title>
<polygon fill="none" stroke="black" points="41.38,-84.38 41.38,-109.62 131.88,-109.62 131.88,-84.38 41.38,-84.38"/>
<text text-anchor="start" x="48.38" y="-95.08" font-family="Times New Roman,serif" font-weight="bold" font-size="9.00">building (non float)</text>
<polygon fill="none" stroke="black" points="131.88,-84.38 131.88,-109.62 187.12,-109.62 187.12,-84.38 131.88,-84.38"/>
<text text-anchor="start" x="138.88" y="-95.08" font-family="Times New Roman,serif" font-weight="bold" font-size="9.00">containers</text>
<polygon fill="none" stroke="black" points="40.38,-83.38 40.38,-110.62 188.12,-110.62 188.12,-83.38 40.38,-83.38"/>
</g>
<!-- n_1_3_5&#45;&gt;n_1_3 -->
<g id="edge3" class="edge">
<title>n_1_3_5&#45;&gt;n_1_3</title>
<path fill="none" stroke="black" d="M208.78,-158.02C190.99,-146.72 168.67,-132.55 150.19,-120.82"/>
<polygon fill="black" stroke="black" points="152.24,-117.98 141.92,-115.57 148.49,-123.88 152.24,-117.98"/>
</g>
<!-- n_5 -->
<g id="node7" class="node">
<title>n_5</title>
<polygon fill="none" stroke="black" points="234.25,-84.38 234.25,-109.62 290.25,-109.62 290.25,-84.38 234.25,-84.38"/>
<text text-anchor="start" x="241.25" y="-95.08" font-family="Times New Roman,serif" font-weight="bold" font-size="9.00">headlamps</text>
<polygon fill="none" stroke="black" points="233.25,-83.38 233.25,-110.62 291.25,-110.62 291.25,-83.38 233.25,-83.38"/>
</g>
<!-- n_1_3_5&#45;&gt;n_5 -->
<g id="edge6" class="edge">
<title>n_1_3_5&#45;&gt;n_5</title>
<path fill="none" stroke="black" d="M245.69,-158.22C248.38,-148.44 251.67,-136.46 254.61,-125.77"/>
<polygon fill="black" stroke="black" points="257.94,-126.87 257.22,-116.3 251.19,-125.02 257.94,-126.87"/>
</g>
<!-- n_1 -->
<g id="node5" class="node">
<title>n_1</title>
<polygon fill="none" stroke="black" points="9,-5.38 9,-30.62 99.5,-30.62 99.5,-5.38 9,-5.38"/>
<text text-anchor="start" x="16" y="-16.07" font-family="Times New Roman,serif" font-weight="bold" font-size="9.00">building (non float)</text>
<polygon fill="none" stroke="black" points="8,-4.38 8,-31.62 100.5,-31.62 100.5,-4.38 8,-4.38"/>
</g>
<!-- n_1_3&#45;&gt;n_1 -->
<g id="edge4" class="edge">
<title>n_1_3&#45;&gt;n_1</title>
<path fill="none" stroke="black" d="M101.23,-79.29C93.42,-69.27 83.32,-56.31 74.49,-44.98"/>
<polygon fill="black" stroke="black" points="77.29,-42.87 68.38,-37.14 71.77,-47.17 77.29,-42.87"/>
</g>
<!-- n_3 -->
<g id="node6" class="node">
<title>n_3</title>
<polygon fill="none" stroke="black" points="146.62,-5.38 146.62,-30.62 201.88,-30.62 201.88,-5.38 146.62,-5.38"/>
<text text-anchor="start" x="153.62" y="-16.07" font-family="Times New Roman,serif" font-weight="bold" font-size="9.00">containers</text>
<polygon fill="none" stroke="black" points="145.62,-4.38 145.62,-31.62 202.88,-31.62 202.88,-4.38 145.62,-4.38"/>
</g>
<!-- n_1_3&#45;&gt;n_3 -->
<g id="edge5" class="edge">
<title>n_1_3&#45;&gt;n_3</title>
<path fill="none" stroke="black" d="M127.27,-79.29C135.08,-69.27 145.18,-56.31 154.01,-44.98"/>
<polygon fill="black" stroke="black" points="156.73,-47.17 160.12,-37.14 151.21,-42.87 156.73,-47.17"/>
</g>
<!-- n_0 -->
<g id="node9" class="node">
<title>n_0</title>
<polygon fill="none" stroke="black" points="381.62,-84.38 381.62,-109.62 454.88,-109.62 454.88,-84.38 381.62,-84.38"/>
<text text-anchor="start" x="388.62" y="-95.08" font-family="Times New Roman,serif" font-weight="bold" font-size="9.00">building (float)</text>
<polygon fill="none" stroke="black" points="380.62,-83.38 380.62,-110.62 455.88,-110.62 455.88,-83.38 380.62,-83.38"/>
</g>
<!-- n_0_2&#45;&gt;n_0 -->
<g id="edge8" class="edge">
<title>n_0_2&#45;&gt;n_0</title>
<path fill="none" stroke="black" d="M435.58,-161.03C432.78,-150.85 429.15,-137.65 425.94,-125.96"/>
<polygon fill="black" stroke="black" points="429.34,-125.11 423.31,-116.4 422.59,-126.97 429.34,-125.11"/>
</g>
<!-- n_2 -->
<g id="node10" class="node">
<title>n_2</title>
<polygon fill="none" stroke="black" points="501.62,-84.38 501.62,-109.62 586.88,-109.62 586.88,-84.38 501.62,-84.38"/>
<text text-anchor="start" x="508.62" y="-95.08" font-family="Times New Roman,serif" font-weight="bold" font-size="9.00">vehicle (non float)</text>
<polygon fill="none" stroke="black" points="500.62,-83.38 500.62,-110.62 587.88,-110.62 587.88,-83.38 500.62,-83.38"/>
</g>
<!-- n_0_2&#45;&gt;n_2 -->
<g id="edge9" class="edge">
<title>n_0_2&#45;&gt;n_2</title>
<path fill="none" stroke="black" d="M462.31,-161.03C477.2,-149.58 497.06,-134.3 513.5,-121.66"/>
<polygon fill="black" stroke="black" points="515.23,-124.74 521.03,-115.86 510.97,-119.19 515.23,-124.74"/>
</g>
</g>
</svg>
