<?xml version="1.0" encoding="UTF-8" standalone="no"?>
<!DOCTYPE svg PUBLIC "-//W3C//DTD SVG 1.1//EN"
 "http://www.w3.org/Graphics/SVG/1.1/DTD/svg11.dtd">
<!-- Generated by graphviz version 10.0.1 (20240210.2158)
 -->
<!-- Title: ND Pages: 1 -->
<svg width="545pt" height="517pt"
 viewBox="0.00 0.00 545.25 517.00" xmlns="http://www.w3.org/2000/svg" xmlns:xlink="http://www.w3.org/1999/xlink">
<g id="graph0" class="graph" transform="scale(1 1) rotate(0) translate(4 513)">
<title>ND</title>
<polygon fill="white" stroke="none" points="-4,4 -4,-513 541.25,-513 541.25,4 -4,4"/>
<!-- n_0_1_2_3_4_5 -->
<g id="node1" class="node">
<title>n_0_1_2_3_4_5</title>
<polygon fill="none" stroke="black" points="345.75,-445 345.75,-504 436.25,-504 436.25,-445 345.75,-445"/>
<text text-anchor="start" x="361.38" y="-489.45" font-family="Times New Roman,serif" font-weight="bold" font-size="9.00">building (float)</text>
<text text-anchor="start" x="352.75" y="-480.45" font-family="Times New Roman,serif" font-weight="bold" font-size="9.00">building (non float)</text>
<text text-anchor="start" x="355.38" y="-471.45" font-family="Times New Roman,serif" font-weight="bold" font-size="9.00">vehicle (non float)</text>
<text text-anchor="start" x="371.88" y="-462.45" font-family="Times New Roman,serif" font-weight="bold" font-size="9.00">tableware</text>
<text text-anchor="start" x="370" y="-453.45" font-family="Times New Roman,serif" font-weight="bold" font-size="9.00">headlamps</text>
<polygon fill="none" stroke="black" points="436.25,-445 436.25,-504 491.5,-504 491.5,-445 436.25,-445"/>
<text text-anchor="start" x="443.25" y="-472.57" font-family="Times New Roman,serif" font-weight="bold" font-size="9.00">containers</text>
<polygon fill="none" stroke="black" points="344.75,-444 344.75,-505 492.5,-505 492.5,-444 344.75,-444"/>
</g>
<!-- n_0_1_2_4_5 -->
<g id="node2" class="node">
<title>n_0_1_2_4_5</title>
<polygon fill="none" stroke="black" points="249.75,-342 249.75,-392 335,-392 335,-342 249.75,-342"/>
<text text-anchor="start" x="262.75" y="-377.45" font-family="Times New Roman,serif" font-weight="bold" font-size="9.00">building (float)</text>
<text text-anchor="start" x="256.75" y="-368.45" font-family="Times New Roman,serif" font-weight="bold" font-size="9.00">vehicle (non float)</text>
<text text-anchor="start" x="273.25" y="-359.45" font-family="Times New Roman,serif" font-weight="bold" font-size="9.00">tableware</text>
<text text-anchor="start" x="271.38" y="-350.45" font-family="Times New Roman,serif" font-weight="bold" font-size="9.00">headlamps</text>
<polygon fill="none" stroke="black" points="335,-342 335,-392 425.5,-392 425.5,-342 335,-342"/>
<text text-anchor="start" x="342" y="-365.07" font-family="Times New Roman,serif" font-weight="bold" font-size="9.00">building (non float)</text>
<polygon fill="none" stroke="black" points="248.75,-341 248.75,-393 426.5,-393 426.5,-341 248.75,-341"/>
</g>
<!-- n_0_1_2_3_4_5&#45;&gt;n_0_1_2_4_5 -->
<g id="edge1" class="edge">
<title>n_0_1_2_3_4_5&#45;&gt;n_0_1_2_4_5</title>
<path fill="none" stroke="black" d="M393,-440.12C384.67,-429.27 375.37,-417.16 366.8,-406"/>
<polygon fill="black" stroke="black" points="369.6,-403.9 360.73,-398.1 364.05,-408.16 369.6,-403.9"/>
</g>
<!-- n_3 -->
<g id="node11" class="node">
<title>n_3</title>
<polygon fill="none" stroke="black" points="473,-354.38 473,-379.62 528.25,-379.62 528.25,-354.38 473,-354.38"/>
<text text-anchor="start" x="480" y="-365.07" font-family="Times New Roman,serif" font-weight="bold" font-size="9.00">containers</text>
<polygon fill="none" stroke="black" points="472,-353.38 472,-380.62 529.25,-380.62 529.25,-353.38 472,-353.38"/>
</g>
<!-- n_0_1_2_3_4_5&#45;&gt;n_3 -->
<g id="edge10" class="edge">
<title>n_0_1_2_3_4_5&#45;&gt;n_3</title>
<path fill="none" stroke="black" d="M444.57,-440.12C456.16,-425.21 469.61,-407.9 480.43,-393.98"/>
<polygon fill="black" stroke="black" points="483.15,-396.19 486.52,-386.15 477.62,-391.89 483.15,-396.19"/>
</g>
<!-- n_0_2_4_5 -->
<g id="node3" class="node">
<title>n_0_2_4_5</title>
<polygon fill="none" stroke="black" points="186,-248 186,-289 271.25,-289 271.25,-248 186,-248"/>
<text text-anchor="start" x="199" y="-274.45" font-family="Times New Roman,serif" font-weight="bold" font-size="9.00">building (float)</text>
<text text-anchor="start" x="193" y="-265.45" font-family="Times New Roman,serif" font-weight="bold" font-size="9.00">vehicle (non float)</text>
<text text-anchor="start" x="209.5" y="-256.45" font-family="Times New Roman,serif" font-weight="bold" font-size="9.00">tableware</text>
<polygon fill="none" stroke="black" points="271.25,-248 271.25,-289 327.25,-289 327.25,-248 271.25,-248"/>
<text text-anchor="start" x="278.25" y="-266.57" font-family="Times New Roman,serif" font-weight="bold" font-size="9.00">headlamps</text>
<polygon fill="none" stroke="black" points="185,-247 185,-290 328.25,-290 328.25,-247 185,-247"/>
</g>
<!-- n_0_1_2_4_5&#45;&gt;n_0_2_4_5 -->
<g id="edge2" class="edge">
<title>n_0_1_2_4_5&#45;&gt;n_0_2_4_5</title>
<path fill="none" stroke="black" d="M313.32,-337.05C304.2,-326.18 293.77,-313.76 284.37,-302.55"/>
<polygon fill="black" stroke="black" points="287.17,-300.44 278.06,-295.03 281.81,-304.94 287.17,-300.44"/>
</g>
<!-- n_1 -->
<g id="node10" class="node">
<title>n_1</title>
<polygon fill="none" stroke="black" points="374.38,-255.88 374.38,-281.12 464.88,-281.12 464.88,-255.88 374.38,-255.88"/>
<text text-anchor="start" x="381.38" y="-266.57" font-family="Times New Roman,serif" font-weight="bold" font-size="9.00">building (non float)</text>
<polygon fill="none" stroke="black" points="373.38,-254.88 373.38,-282.12 465.88,-282.12 465.88,-254.88 373.38,-254.88"/>
</g>
<!-- n_0_1_2_4_5&#45;&gt;n_1 -->
<g id="edge9" class="edge">
<title>n_0_1_2_4_5&#45;&gt;n_1</title>
<path fill="none" stroke="black" d="M362.23,-337.05C373.65,-323.6 387.11,-307.77 398.12,-294.81"/>
<polygon fill="black" stroke="black" points="400.51,-297.41 404.31,-287.52 395.17,-292.87 400.51,-297.41"/>
</g>
<!-- n_0_2_4 -->
<g id="node4" class="node">
<title>n_0_2_4</title>
<polygon fill="none" stroke="black" points="115.88,-163 115.88,-195 201.12,-195 201.12,-163 115.88,-163"/>
<text text-anchor="start" x="128.88" y="-180.45" font-family="Times New Roman,serif" font-weight="bold" font-size="9.00">building (float)</text>
<text text-anchor="start" x="122.88" y="-171.45" font-family="Times New Roman,serif" font-weight="bold" font-size="9.00">vehicle (non float)</text>
<polygon fill="none" stroke="black" points="201.12,-163 201.12,-195 253.38,-195 253.38,-163 201.12,-163"/>
<text text-anchor="start" x="208.12" y="-177.07" font-family="Times New Roman,serif" font-weight="bold" font-size="9.00">tableware</text>
<polygon fill="none" stroke="black" points="114.88,-162 114.88,-196 254.38,-196 254.38,-162 114.88,-162"/>
</g>
<!-- n_0_2_4_5&#45;&gt;n_0_2_4 -->
<g id="edge3" class="edge">
<title>n_0_2_4_5&#45;&gt;n_0_2_4</title>
<path fill="none" stroke="black" d="M236.57,-243.13C227.7,-232.35 217.22,-219.62 208.01,-208.41"/>
<polygon fill="black" stroke="black" points="210.96,-206.49 201.9,-200.99 205.55,-210.94 210.96,-206.49"/>
</g>
<!-- n_5 -->
<g id="node9" class="node">
<title>n_5</title>
<polygon fill="none" stroke="black" points="300.62,-166.38 300.62,-191.62 356.62,-191.62 356.62,-166.38 300.62,-166.38"/>
<text text-anchor="start" x="307.62" y="-177.07" font-family="Times New Roman,serif" font-weight="bold" font-size="9.00">headlamps</text>
<polygon fill="none" stroke="black" points="299.62,-165.38 299.62,-192.62 357.62,-192.62 357.62,-165.38 299.62,-165.38"/>
</g>
<!-- n_0_2_4_5&#45;&gt;n_5 -->
<g id="edge8" class="edge">
<title>n_0_2_4_5&#45;&gt;n_5</title>
<path fill="none" stroke="black" d="M276.68,-243.13C286.36,-231.36 297.97,-217.25 307.76,-205.36"/>
<polygon fill="black" stroke="black" points="310.21,-207.89 313.86,-197.94 304.81,-203.44 310.21,-207.89"/>
</g>
<!-- n_0_2 -->
<g id="node5" class="node">
<title>n_0_2</title>
<polygon fill="none" stroke="black" points="29.38,-84.38 29.38,-109.62 102.62,-109.62 102.62,-84.38 29.38,-84.38"/>
<text text-anchor="start" x="36.38" y="-95.08" font-family="Times New Roman,serif" font-weight="bold" font-size="9.00">building (float)</text>
<polygon fill="none" stroke="black" points="102.62,-84.38 102.62,-109.62 187.88,-109.62 187.88,-84.38 102.62,-84.38"/>
<text text-anchor="start" x="109.62" y="-95.08" font-family="Times New Roman,serif" font-weight="bold" font-size="9.00">vehicle (non float)</text>
<polygon fill="none" stroke="black" points="28.38,-83.38 28.38,-110.62 188.88,-110.62 188.88,-83.38 28.38,-83.38"/>
</g>
<!-- n_0_2_4&#45;&gt;n_0_2 -->
<g id="edge4" class="edge">
<title>n_0_2_4&#45;&gt;n_0_2</title>
<path fill="none" stroke="black" d="M165.84,-158.22C155.75,-147.61 143.21,-134.41 132.44,-123.07"/>
<polygon fill="black" stroke="black" points="135.09,-120.78 125.67,-115.94 130.02,-125.6 135.09,-120.78"/>
</g>
<!-- n_4 -->
<g id="node8" class="node">
<title>n_4</title>
<polygon fill="none" stroke="black" points="234.5,-84.38 234.5,-109.62 286.75,-109.62 286.75,-84.38 234.5,-84.38"/>
<text text-anchor="start" x="241.5" y="-95.08" font-family="Times New Roman,serif" font-weight="bold" font-size="9.00">tableware</text>
<polygon fill="none" stroke="black" points="233.5,-83.38 233.5,-110.62 287.75,-110.62 287.75,-83.38 233.5,-83.38"/>
</g>
<!-- n_0_2_4&#45;&gt;n_4 -->
<g id="edge7" class="edge">
<title>n_0_2_4&#45;&gt;n_4</title>
<path fill="none" stroke="black" d="M203.41,-158.22C213.5,-147.61 226.04,-134.41 236.81,-123.07"/>
<polygon fill="black" stroke="black" points="239.23,-125.6 243.58,-115.94 234.16,-120.78 239.23,-125.6"/>
</g>
<!-- n_0 -->
<g id="node6" class="node">
<title>n_0</title>
<polygon fill="none" stroke="black" points="9,-5.38 9,-30.62 82.25,-30.62 82.25,-5.38 9,-5.38"/>
<text text-anchor="start" x="16" y="-16.07" font-family="Times New Roman,serif" font-weight="bold" font-size="9.00">building (float)</text>
<polygon fill="none" stroke="black" points="8,-4.38 8,-31.62 83.25,-31.62 83.25,-4.38 8,-4.38"/>
</g>
<!-- n_0_2&#45;&gt;n_0 -->
<g id="edge5" class="edge">
<title>n_0_2&#45;&gt;n_0</title>
<path fill="none" stroke="black" d="M94.95,-79.29C86.67,-69.17 75.94,-56.05 66.6,-44.64"/>
<polygon fill="black" stroke="black" points="69.49,-42.64 60.44,-37.11 64.07,-47.07 69.49,-42.64"/>
</g>
<!-- n_2 -->
<g id="node7" class="node">
<title>n_2</title>
<polygon fill="none" stroke="black" points="129,-5.38 129,-30.62 214.25,-30.62 214.25,-5.38 129,-5.38"/>
<text text-anchor="start" x="136" y="-16.07" font-family="Times New Roman,serif" font-weight="bold" font-size="9.00">vehicle (non float)</text>
<polygon fill="none" stroke="black" points="128,-4.38 128,-31.62 215.25,-31.62 215.25,-4.38 128,-4.38"/>
</g>
<!-- n_0_2&#45;&gt;n_2 -->
<g id="edge6" class="edge">
<title>n_0_2&#45;&gt;n_2</title>
<path fill="none" stroke="black" d="M122.3,-79.29C130.58,-69.17 141.31,-56.05 150.65,-44.64"/>
<polygon fill="black" stroke="black" points="153.18,-47.07 156.81,-37.11 147.76,-42.64 153.18,-47.07"/>
</g>
</g>
</svg>
