<?xml version="1.0" encoding="UTF-8" standalone="no"?>
<!DOCTYPE svg PUBLIC "-//W3C//DTD SVG 1.1//EN"
 "http://www.w3.org/Graphics/SVG/1.1/DTD/svg11.dtd">
<!-- Generated by graphviz version 10.0.1 (20240210.2158)
 -->
<!-- Title: ND Pages: 1 -->
<svg width="584pt" height="414pt"
 viewBox="0.00 0.00 583.62 414.00" xmlns="http://www.w3.org/2000/svg" xmlns:xlink="http://www.w3.org/1999/xlink">
<g id="graph0" class="graph" transform="scale(1 1) rotate(0) translate(4 410)">
<title>ND</title>
<polygon fill="white" stroke="none" points="-4,4 -4,-410 579.62,-410 579.62,4 -4,4"/>
<!-- n_0_1_2_3_4_5 -->
<g id="node1" class="node">
<title>n_0_1_2_3_4_5</title>
<polygon fill="none" stroke="black" points="359.25,-342 359.25,-401 449.75,-401 449.75,-342 359.25,-342"/>
<text text-anchor="start" x="374.88" y="-386.45" font-family="Times New Roman,serif" font-weight="bold" font-size="9.00">building (float)</text>
<text text-anchor="start" x="366.25" y="-377.45" font-family="Times New Roman,serif" font-weight="bold" font-size="9.00">building (non float)</text>
<text text-anchor="start" x="368.88" y="-368.45" font-family="Times New Roman,serif" font-weight="bold" font-size="9.00">vehicle (non float)</text>
<text text-anchor="start" x="383.88" y="-359.45" font-family="Times New Roman,serif" font-weight="bold" font-size="9.00">containers</text>
<text text-anchor="start" x="383.5" y="-350.45" font-family="Times New Roman,serif" font-weight="bold" font-size="9.00">headlamps</text>
<polygon fill="none" stroke="black" points="449.75,-342 449.75,-401 502,-401 502,-342 449.75,-342"/>
<text text-anchor="start" x="456.75" y="-369.57" font-family="Times New Roman,serif" font-weight="bold" font-size="9.00">tableware</text>
<polygon fill="none" stroke="black" points="358.25,-341 358.25,-402 503,-402 503,-341 358.25,-341"/>
</g>
<!-- n_0_1_2_3_5 -->
<g id="node2" class="node">
<title>n_0_1_2_3_5</title>
<polygon fill="none" stroke="black" points="284.38,-248 284.38,-289 374.88,-289 374.88,-248 284.38,-248"/>
<text text-anchor="start" x="300" y="-274.45" font-family="Times New Roman,serif" font-weight="bold" font-size="9.00">building (float)</text>
<text text-anchor="start" x="291.38" y="-265.45" font-family="Times New Roman,serif" font-weight="bold" font-size="9.00">building (non float)</text>
<text text-anchor="start" x="294" y="-256.45" font-family="Times New Roman,serif" font-weight="bold" font-size="9.00">vehicle (non float)</text>
<polygon fill="none" stroke="black" points="374.88,-248 374.88,-289 430.88,-289 430.88,-248 374.88,-248"/>
<text text-anchor="start" x="382.25" y="-269.95" font-family="Times New Roman,serif" font-weight="bold" font-size="9.00">containers</text>
<text text-anchor="start" x="381.88" y="-260.95" font-family="Times New Roman,serif" font-weight="bold" font-size="9.00">headlamps</text>
<polygon fill="none" stroke="black" points="283.38,-247 283.38,-290 431.88,-290 431.88,-247 283.38,-247"/>
</g>
<!-- n_0_1_2_3_4_5&#45;&gt;n_0_1_2_3_5 -->
<g id="edge1" class="edge">
<title>n_0_1_2_3_4_5&#45;&gt;n_0_1_2_3_5</title>
<path fill="none" stroke="black" d="M406.52,-337.15C398.62,-326.22 389.84,-314.07 381.92,-303.12"/>
<polygon fill="black" stroke="black" points="384.81,-301.14 376.12,-295.09 379.14,-305.24 384.81,-301.14"/>
</g>
<!-- n_4 -->
<g id="node11" class="node">
<title>n_4</title>
<polygon fill="none" stroke="black" points="477.5,-255.88 477.5,-281.12 529.75,-281.12 529.75,-255.88 477.5,-255.88"/>
<text text-anchor="start" x="484.5" y="-266.57" font-family="Times New Roman,serif" font-weight="bold" font-size="9.00">tableware</text>
<polygon fill="none" stroke="black" points="476.5,-254.88 476.5,-282.12 530.75,-282.12 530.75,-254.88 476.5,-254.88"/>
</g>
<!-- n_0_1_2_3_4_5&#45;&gt;n_4 -->
<g id="edge10" class="edge">
<title>n_0_1_2_3_4_5&#45;&gt;n_4</title>
<path fill="none" stroke="black" d="M454.73,-337.15C464.53,-323.6 475.67,-308.17 484.85,-295.48"/>
<polygon fill="black" stroke="black" points="487.52,-297.76 490.54,-287.61 481.84,-293.66 487.52,-297.76"/>
</g>
<!-- n_0_1_2 -->
<g id="node3" class="node">
<title>n_0_1_2</title>
<polygon fill="none" stroke="black" points="174.75,-163 174.75,-195 265.25,-195 265.25,-163 174.75,-163"/>
<text text-anchor="start" x="190.38" y="-180.45" font-family="Times New Roman,serif" font-weight="bold" font-size="9.00">building (float)</text>
<text text-anchor="start" x="181.75" y="-171.45" font-family="Times New Roman,serif" font-weight="bold" font-size="9.00">building (non float)</text>
<polygon fill="none" stroke="black" points="265.25,-163 265.25,-195 350.5,-195 350.5,-163 265.25,-163"/>
<text text-anchor="start" x="272.25" y="-177.07" font-family="Times New Roman,serif" font-weight="bold" font-size="9.00">vehicle (non float)</text>
<polygon fill="none" stroke="black" points="173.75,-162 173.75,-196 351.5,-196 351.5,-162 173.75,-162"/>
</g>
<!-- n_0_1_2_3_5&#45;&gt;n_0_1_2 -->
<g id="edge2" class="edge">
<title>n_0_1_2_3_5&#45;&gt;n_0_1_2</title>
<path fill="none" stroke="black" d="M331.16,-243.13C319.12,-232.03 304.81,-218.86 292.39,-207.42"/>
<polygon fill="black" stroke="black" points="294.99,-205.05 285.26,-200.85 290.25,-210.2 294.99,-205.05"/>
</g>
<!-- n_3_5 -->
<g id="node8" class="node">
<title>n_3_5</title>
<polygon fill="none" stroke="black" points="398,-166.38 398,-191.62 453.25,-191.62 453.25,-166.38 398,-166.38"/>
<text text-anchor="start" x="405" y="-177.07" font-family="Times New Roman,serif" font-weight="bold" font-size="9.00">containers</text>
<polygon fill="none" stroke="black" points="453.25,-166.38 453.25,-191.62 509.25,-191.62 509.25,-166.38 453.25,-166.38"/>
<text text-anchor="start" x="460.25" y="-177.07" font-family="Times New Roman,serif" font-weight="bold" font-size="9.00">headlamps</text>
<polygon fill="none" stroke="black" points="397,-165.38 397,-192.62 510.25,-192.62 510.25,-165.38 397,-165.38"/>
</g>
<!-- n_0_1_2_3_5&#45;&gt;n_3_5 -->
<g id="edge7" class="edge">
<title>n_0_1_2_3_5&#45;&gt;n_3_5</title>
<path fill="none" stroke="black" d="M384.37,-243.13C397.66,-231.01 413.67,-216.42 426.95,-204.31"/>
<polygon fill="black" stroke="black" points="429.07,-207.11 434.11,-197.79 424.36,-201.94 429.07,-207.11"/>
</g>
<!-- n_0_1 -->
<g id="node4" class="node">
<title>n_0_1</title>
<polygon fill="none" stroke="black" points="27.75,-84.38 27.75,-109.62 101,-109.62 101,-84.38 27.75,-84.38"/>
<text text-anchor="start" x="34.75" y="-95.08" font-family="Times New Roman,serif" font-weight="bold" font-size="9.00">building (float)</text>
<polygon fill="none" stroke="black" points="101,-84.38 101,-109.62 191.5,-109.62 191.5,-84.38 101,-84.38"/>
<text text-anchor="start" x="108" y="-95.08" font-family="Times New Roman,serif" font-weight="bold" font-size="9.00">building (non float)</text>
<polygon fill="none" stroke="black" points="26.75,-83.38 26.75,-110.62 192.5,-110.62 192.5,-83.38 26.75,-83.38"/>
</g>
<!-- n_0_1_2&#45;&gt;n_0_1 -->
<g id="edge3" class="edge">
<title>n_0_1_2&#45;&gt;n_0_1</title>
<path fill="none" stroke="black" d="M224.41,-158.02C202.38,-146.5 174.65,-132 151.96,-120.13"/>
<polygon fill="black" stroke="black" points="153.75,-117.12 143.27,-115.59 150.51,-123.33 153.75,-117.12"/>
</g>
<!-- n_2 -->
<g id="node7" class="node">
<title>n_2</title>
<polygon fill="none" stroke="black" points="239,-84.38 239,-109.62 324.25,-109.62 324.25,-84.38 239,-84.38"/>
<text text-anchor="start" x="246" y="-95.08" font-family="Times New Roman,serif" font-weight="bold" font-size="9.00">vehicle (non float)</text>
<polygon fill="none" stroke="black" points="238,-83.38 238,-110.62 325.25,-110.62 325.25,-83.38 238,-83.38"/>
</g>
<!-- n_0_1_2&#45;&gt;n_2 -->
<g id="edge6" class="edge">
<title>n_0_1_2&#45;&gt;n_2</title>
<path fill="none" stroke="black" d="M267.32,-158.22C269.65,-148.44 272.49,-136.46 275.03,-125.77"/>
<polygon fill="black" stroke="black" points="278.37,-126.85 277.27,-116.32 271.56,-125.24 278.37,-126.85"/>
</g>
<!-- n_0 -->
<g id="node5" class="node">
<title>n_0</title>
<polygon fill="none" stroke="black" points="9,-5.38 9,-30.62 82.25,-30.62 82.25,-5.38 9,-5.38"/>
<text text-anchor="start" x="16" y="-16.07" font-family="Times New Roman,serif" font-weight="bold" font-size="9.00">building (float)</text>
<polygon fill="none" stroke="black" points="8,-4.38 8,-31.62 83.25,-31.62 83.25,-4.38 8,-4.38"/>
</g>
<!-- n_0_1&#45;&gt;n_0 -->
<g id="edge4" class="edge">
<title>n_0_1&#45;&gt;n_0</title>
<path fill="none" stroke="black" d="M95.74,-79.29C87.33,-69.17 76.42,-56.05 66.94,-44.64"/>
<polygon fill="black" stroke="black" points="69.76,-42.56 60.67,-37.11 64.37,-47.03 69.76,-42.56"/>
</g>
<!-- n_1 -->
<g id="node6" class="node">
<title>n_1</title>
<polygon fill="none" stroke="black" points="129.38,-5.38 129.38,-30.62 219.88,-30.62 219.88,-5.38 129.38,-5.38"/>
<text text-anchor="start" x="136.38" y="-16.07" font-family="Times New Roman,serif" font-weight="bold" font-size="9.00">building (non float)</text>
<polygon fill="none" stroke="black" points="128.38,-4.38 128.38,-31.62 220.88,-31.62 220.88,-4.38 128.38,-4.38"/>
</g>
<!-- n_0_1&#45;&gt;n_1 -->
<g id="edge5" class="edge">
<title>n_0_1&#45;&gt;n_1</title>
<path fill="none" stroke="black" d="M123.73,-79.29C132.27,-69.17 143.35,-56.05 152.98,-44.64"/>
<polygon fill="black" stroke="black" points="155.57,-47 159.35,-37.1 150.22,-42.48 155.57,-47"/>
</g>
<!-- n_3 -->
<g id="node9" class="node">
<title>n_3</title>
<polygon fill="none" stroke="black" points="408,-84.38 408,-109.62 463.25,-109.62 463.25,-84.38 408,-84.38"/>
<text text-anchor="start" x="415" y="-95.08" font-family="Times New Roman,serif" font-weight="bold" font-size="9.00">containers</text>
<polygon fill="none" stroke="black" points="407,-83.38 407,-110.62 464.25,-110.62 464.25,-83.38 407,-83.38"/>
</g>
<!-- n_3_5&#45;&gt;n_3 -->
<g id="edge8" class="edge">
<title>n_3_5&#45;&gt;n_3</title>
<path fill="none" stroke="black" d="M449.81,-161.03C447.52,-150.85 444.55,-137.65 441.92,-125.96"/>
<polygon fill="black" stroke="black" points="445.38,-125.41 439.77,-116.42 438.55,-126.94 445.38,-125.41"/>
</g>
<!-- n_5 -->
<g id="node10" class="node">
<title>n_5</title>
<polygon fill="none" stroke="black" points="510.62,-84.38 510.62,-109.62 566.62,-109.62 566.62,-84.38 510.62,-84.38"/>
<text text-anchor="start" x="517.62" y="-95.08" font-family="Times New Roman,serif" font-weight="bold" font-size="9.00">headlamps</text>
<polygon fill="none" stroke="black" points="509.62,-83.38 509.62,-110.62 567.62,-110.62 567.62,-83.38 509.62,-83.38"/>
</g>
<!-- n_3_5&#45;&gt;n_5 -->
<g id="edge9" class="edge">
<title>n_3_5&#45;&gt;n_5</title>
<path fill="none" stroke="black" d="M471.65,-161.03C483.48,-149.9 499.16,-135.15 512.37,-122.71"/>
<polygon fill="black" stroke="black" points="514.64,-125.38 519.52,-115.98 509.84,-120.28 514.64,-125.38"/>
</g>
</g>
</svg>
