<?xml version="1.0" encoding="UTF-8" standalone="no"?>
<!DOCTYPE svg PUBLIC "-//W3C//DTD SVG 1.1//EN"
 "http://www.w3.org/Graphics/SVG/1.1/DTD/svg11.dtd">
<!-- Generated by graphviz version 10.0.1 (20240210.2158)
 -->
<!-- Title: ND Pages: 1 -->
<svg width="674pt" height="405pt"
 viewBox="0.00 0.00 673.88 405.00" xmlns="http://www.w3.org/2000/svg" xmlns:xlink="http://www.w3.org/1999/xlink">
<g id="graph0" class="graph" transform="scale(1 1) rotate(0) translate(4 401)">
<title>ND</title>
<polygon fill="white" stroke="none" points="-4,4 -4,-401 669.88,-401 669.88,4 -4,4"/>
<!-- n_0_1_2_3_4_5 -->
<g id="node1" class="node">
<title>n_0_1_2_3_4_5</title>
<polygon fill="none" stroke="black" points="322.38,-342 322.38,-392 412.88,-392 412.88,-342 322.38,-342"/>
<text text-anchor="start" x="329.38" y="-377.45" font-family="Times New Roman,serif" font-weight="bold" font-size="9.00">building (non float)</text>
<text text-anchor="start" x="347" y="-368.45" font-family="Times New Roman,serif" font-weight="bold" font-size="9.00">containers</text>
<text text-anchor="start" x="348.5" y="-359.45" font-family="Times New Roman,serif" font-weight="bold" font-size="9.00">tableware</text>
<text text-anchor="start" x="346.62" y="-350.45" font-family="Times New Roman,serif" font-weight="bold" font-size="9.00">headlamps</text>
<polygon fill="none" stroke="black" points="412.88,-342 412.88,-392 498.12,-392 498.12,-342 412.88,-342"/>
<text text-anchor="start" x="425.88" y="-368.45" font-family="Times New Roman,serif" font-weight="bold" font-size="9.00">building (float)</text>
<text text-anchor="start" x="419.88" y="-359.45" font-family="Times New Roman,serif" font-weight="bold" font-size="9.00">vehicle (non float)</text>
<polygon fill="none" stroke="black" points="321.38,-341 321.38,-393 499.12,-393 499.12,-341 321.38,-341"/>
</g>
<!-- n_1_3_4_5 -->
<g id="node2" class="node">
<title>n_1_3_4_5</title>
<polygon fill="none" stroke="black" points="238.38,-248 238.38,-289 328.88,-289 328.88,-248 238.38,-248"/>
<text text-anchor="start" x="245.38" y="-274.45" font-family="Times New Roman,serif" font-weight="bold" font-size="9.00">building (non float)</text>
<text text-anchor="start" x="264.5" y="-265.45" font-family="Times New Roman,serif" font-weight="bold" font-size="9.00">tableware</text>
<text text-anchor="start" x="262.62" y="-256.45" font-family="Times New Roman,serif" font-weight="bold" font-size="9.00">headlamps</text>
<polygon fill="none" stroke="black" points="328.88,-248 328.88,-289 384.12,-289 384.12,-248 328.88,-248"/>
<text text-anchor="start" x="335.88" y="-266.57" font-family="Times New Roman,serif" font-weight="bold" font-size="9.00">containers</text>
<polygon fill="none" stroke="black" points="237.38,-247 237.38,-290 385.12,-290 385.12,-247 237.38,-247"/>
</g>
<!-- n_0_1_2_3_4_5&#45;&gt;n_1_3_4_5 -->
<g id="edge1" class="edge">
<title>n_0_1_2_3_4_5&#45;&gt;n_1_3_4_5</title>
<path fill="none" stroke="black" d="M380.55,-337.05C369.18,-325.97 356.15,-313.26 344.47,-301.88"/>
<polygon fill="black" stroke="black" points="346.94,-299.4 337.34,-294.93 342.06,-304.42 346.94,-299.4"/>
</g>
<!-- n_0_2 -->
<g id="node9" class="node">
<title>n_0_2</title>
<polygon fill="none" stroke="black" points="431,-255.88 431,-281.12 504.25,-281.12 504.25,-255.88 431,-255.88"/>
<text text-anchor="start" x="438" y="-266.57" font-family="Times New Roman,serif" font-weight="bold" font-size="9.00">building (float)</text>
<polygon fill="none" stroke="black" points="504.25,-255.88 504.25,-281.12 589.5,-281.12 589.5,-255.88 504.25,-255.88"/>
<text text-anchor="start" x="511.25" y="-266.57" font-family="Times New Roman,serif" font-weight="bold" font-size="9.00">vehicle (non float)</text>
<polygon fill="none" stroke="black" points="430,-254.88 430,-282.12 590.5,-282.12 590.5,-254.88 430,-254.88"/>
</g>
<!-- n_0_1_2_3_4_5&#45;&gt;n_0_2 -->
<g id="edge8" class="edge">
<title>n_0_1_2_3_4_5&#45;&gt;n_0_2</title>
<path fill="none" stroke="black" d="M440.25,-337.05C454.45,-323.35 471.22,-307.16 484.79,-294.07"/>
<polygon fill="black" stroke="black" points="486.92,-296.88 491.68,-287.42 482.06,-291.84 486.92,-296.88"/>
</g>
<!-- n_1_4_5 -->
<g id="node3" class="node">
<title>n_1_4_5</title>
<polygon fill="none" stroke="black" points="115.88,-163 115.88,-195 206.38,-195 206.38,-163 115.88,-163"/>
<text text-anchor="start" x="122.88" y="-180.45" font-family="Times New Roman,serif" font-weight="bold" font-size="9.00">building (non float)</text>
<text text-anchor="start" x="140.12" y="-171.45" font-family="Times New Roman,serif" font-weight="bold" font-size="9.00">headlamps</text>
<polygon fill="none" stroke="black" points="206.38,-163 206.38,-195 258.62,-195 258.62,-163 206.38,-163"/>
<text text-anchor="start" x="213.38" y="-177.07" font-family="Times New Roman,serif" font-weight="bold" font-size="9.00">tableware</text>
<polygon fill="none" stroke="black" points="114.88,-162 114.88,-196 259.62,-196 259.62,-162 114.88,-162"/>
</g>
<!-- n_1_3_4_5&#45;&gt;n_1_4_5 -->
<g id="edge2" class="edge">
<title>n_1_3_4_5&#45;&gt;n_1_4_5</title>
<path fill="none" stroke="black" d="M276.71,-243.13C260.53,-231.71 241.24,-218.1 224.71,-206.43"/>
<polygon fill="black" stroke="black" points="226.77,-203.6 216.58,-200.7 222.74,-209.32 226.77,-203.6"/>
</g>
<!-- n_3 -->
<g id="node8" class="node">
<title>n_3</title>
<polygon fill="none" stroke="black" points="305.62,-166.38 305.62,-191.62 360.88,-191.62 360.88,-166.38 305.62,-166.38"/>
<text text-anchor="start" x="312.62" y="-177.07" font-family="Times New Roman,serif" font-weight="bold" font-size="9.00">containers</text>
<polygon fill="none" stroke="black" points="304.62,-165.38 304.62,-192.62 361.88,-192.62 361.88,-165.38 304.62,-165.38"/>
</g>
<!-- n_1_3_4_5&#45;&gt;n_3 -->
<g id="edge7" class="edge">
<title>n_1_3_4_5&#45;&gt;n_3</title>
<path fill="none" stroke="black" d="M317.38,-243.13C320.13,-232.17 323.4,-219.18 326.25,-207.84"/>
<polygon fill="black" stroke="black" points="329.62,-208.79 328.66,-198.24 322.83,-207.08 329.62,-208.79"/>
</g>
<!-- n_1_5 -->
<g id="node4" class="node">
<title>n_1_5</title>
<polygon fill="none" stroke="black" points="41,-84.38 41,-109.62 131.5,-109.62 131.5,-84.38 41,-84.38"/>
<text text-anchor="start" x="48" y="-95.08" font-family="Times New Roman,serif" font-weight="bold" font-size="9.00">building (non float)</text>
<polygon fill="none" stroke="black" points="131.5,-84.38 131.5,-109.62 187.5,-109.62 187.5,-84.38 131.5,-84.38"/>
<text text-anchor="start" x="138.5" y="-95.08" font-family="Times New Roman,serif" font-weight="bold" font-size="9.00">headlamps</text>
<polygon fill="none" stroke="black" points="40,-83.38 40,-110.62 188.5,-110.62 188.5,-83.38 40,-83.38"/>
</g>
<!-- n_1_4_5&#45;&gt;n_1_5 -->
<g id="edge3" class="edge">
<title>n_1_4_5&#45;&gt;n_1_5</title>
<path fill="none" stroke="black" d="M169.21,-158.22C159.52,-147.61 147.47,-134.41 137.13,-123.07"/>
<polygon fill="black" stroke="black" points="139.97,-120.99 130.64,-115.96 134.8,-125.71 139.97,-120.99"/>
</g>
<!-- n_4 -->
<g id="node7" class="node">
<title>n_4</title>
<polygon fill="none" stroke="black" points="234.12,-84.38 234.12,-109.62 286.38,-109.62 286.38,-84.38 234.12,-84.38"/>
<text text-anchor="start" x="241.12" y="-95.08" font-family="Times New Roman,serif" font-weight="bold" font-size="9.00">tableware</text>
<polygon fill="none" stroke="black" points="233.12,-83.38 233.12,-110.62 287.38,-110.62 287.38,-83.38 233.12,-83.38"/>
</g>
<!-- n_1_4_5&#45;&gt;n_4 -->
<g id="edge6" class="edge">
<title>n_1_4_5&#45;&gt;n_4</title>
<path fill="none" stroke="black" d="M205.29,-158.22C214.98,-147.61 227.03,-134.41 237.37,-123.07"/>
<polygon fill="black" stroke="black" points="239.7,-125.71 243.86,-115.96 234.53,-120.99 239.7,-125.71"/>
</g>
<!-- n_1 -->
<g id="node5" class="node">
<title>n_1</title>
<polygon fill="none" stroke="black" points="9,-5.38 9,-30.62 99.5,-30.62 99.5,-5.38 9,-5.38"/>
<text text-anchor="start" x="16" y="-16.07" font-family="Times New Roman,serif" font-weight="bold" font-size="9.00">building (non float)</text>
<polygon fill="none" stroke="black" points="8,-4.38 8,-31.62 100.5,-31.62 100.5,-4.38 8,-4.38"/>
</g>
<!-- n_1_5&#45;&gt;n_1 -->
<g id="edge4" class="edge">
<title>n_1_5&#45;&gt;n_1</title>
<path fill="none" stroke="black" d="M101.23,-79.29C93.42,-69.27 83.32,-56.31 74.49,-44.98"/>
<polygon fill="black" stroke="black" points="77.29,-42.87 68.38,-37.14 71.77,-47.17 77.29,-42.87"/>
</g>
<!-- n_5 -->
<g id="node6" class="node">
<title>n_5</title>
<polygon fill="none" stroke="black" points="146.25,-5.38 146.25,-30.62 202.25,-30.62 202.25,-5.38 146.25,-5.38"/>
<text text-anchor="start" x="153.25" y="-16.07" font-family="Times New Roman,serif" font-weight="bold" font-size="9.00">headlamps</text>
<polygon fill="none" stroke="black" points="145.25,-4.38 145.25,-31.62 203.25,-31.62 203.25,-4.38 145.25,-4.38"/>
</g>
<!-- n_1_5&#45;&gt;n_5 -->
<g id="edge5" class="edge">
<title>n_1_5&#45;&gt;n_5</title>
<path fill="none" stroke="black" d="M127.27,-79.29C135.08,-69.27 145.18,-56.31 154.01,-44.98"/>
<polygon fill="black" stroke="black" points="156.73,-47.17 160.12,-37.14 151.21,-42.87 156.73,-47.17"/>
</g>
<!-- n_0 -->
<g id="node10" class="node">
<title>n_0</title>
<polygon fill="none" stroke="black" points="451.62,-166.38 451.62,-191.62 524.88,-191.62 524.88,-166.38 451.62,-166.38"/>
<text text-anchor="start" x="458.62" y="-177.07" font-family="Times New Roman,serif" font-weight="bold" font-size="9.00">building (float)</text>
<polygon fill="none" stroke="black" points="450.62,-165.38 450.62,-192.62 525.88,-192.62 525.88,-165.38 450.62,-165.38"/>
</g>
<!-- n_0_2&#45;&gt;n_0 -->
<g id="edge9" class="edge">
<title>n_0_2&#45;&gt;n_0</title>
<path fill="none" stroke="black" d="M506.01,-250.63C502.96,-238.52 498.79,-221.94 495.26,-207.88"/>
<polygon fill="black" stroke="black" points="498.68,-207.13 492.85,-198.29 491.89,-208.84 498.68,-207.13"/>
</g>
<!-- n_2 -->
<g id="node11" class="node">
<title>n_2</title>
<polygon fill="none" stroke="black" points="571.62,-166.38 571.62,-191.62 656.88,-191.62 656.88,-166.38 571.62,-166.38"/>
<text text-anchor="start" x="578.62" y="-177.07" font-family="Times New Roman,serif" font-weight="bold" font-size="9.00">vehicle (non float)</text>
<polygon fill="none" stroke="black" points="570.62,-165.38 570.62,-192.62 657.88,-192.62 657.88,-165.38 570.62,-165.38"/>
</g>
<!-- n_0_2&#45;&gt;n_2 -->
<g id="edge10" class="edge">
<title>n_0_2&#45;&gt;n_2</title>
<path fill="none" stroke="black" d="M530.3,-250.63C545.98,-237.43 568,-218.92 585.55,-204.15"/>
<polygon fill="black" stroke="black" points="587.7,-206.91 593.1,-197.79 583.2,-201.55 587.7,-206.91"/>
</g>
</g>
</svg>
