<?xml version="1.0" encoding="UTF-8" standalone="no"?>
<!DOCTYPE svg PUBLIC "-//W3C//DTD SVG 1.1//EN"
 "http://www.w3.org/Graphics/SVG/1.1/DTD/svg11.dtd">
<!-- Generated by graphviz version 10.0.1 (20240210.2158)
 -->
<!-- Title: ND Pages: 1 -->
<svg width="556pt" height="414pt"
 viewBox="0.00 0.00 555.75 414.00" xmlns="http://www.w3.org/2000/svg" xmlns:xlink="http://www.w3.org/1999/xlink">
<g id="graph0" class="graph" transform="scale(1 1) rotate(0) translate(4 410)">
<title>ND</title>
<polygon fill="white" stroke="none" points="-4,4 -4,-410 551.75,-410 551.75,4 -4,4"/>
<!-- n_0_1_2_3_4_5 -->
<g id="node1" class="node">
<title>n_0_1_2_3_4_5</title>
<polygon fill="none" stroke="black" points="316.75,-342 316.75,-401 407.25,-401 407.25,-342 316.75,-342"/>
<text text-anchor="start" x="323.75" y="-386.45" font-family="Times New Roman,serif" font-weight="bold" font-size="9.00">building (non float)</text>
<text text-anchor="start" x="326.38" y="-377.45" font-family="Times New Roman,serif" font-weight="bold" font-size="9.00">vehicle (non float)</text>
<text text-anchor="start" x="341.38" y="-368.45" font-family="Times New Roman,serif" font-weight="bold" font-size="9.00">containers</text>
<text text-anchor="start" x="342.88" y="-359.45" font-family="Times New Roman,serif" font-weight="bold" font-size="9.00">tableware</text>
<text text-anchor="start" x="341" y="-350.45" font-family="Times New Roman,serif" font-weight="bold" font-size="9.00">headlamps</text>
<polygon fill="none" stroke="black" points="407.25,-342 407.25,-401 480.5,-401 480.5,-342 407.25,-342"/>
<text text-anchor="start" x="414.25" y="-369.57" font-family="Times New Roman,serif" font-weight="bold" font-size="9.00">building (float)</text>
<polygon fill="none" stroke="black" points="315.75,-341 315.75,-402 481.5,-402 481.5,-341 315.75,-341"/>
</g>
<!-- n_1_2_3_4_5 -->
<g id="node2" class="node">
<title>n_1_2_3_4_5</title>
<polygon fill="none" stroke="black" points="224.75,-248 224.75,-289 310,-289 310,-248 224.75,-248"/>
<text text-anchor="start" x="231.75" y="-274.45" font-family="Times New Roman,serif" font-weight="bold" font-size="9.00">vehicle (non float)</text>
<text text-anchor="start" x="246.75" y="-265.45" font-family="Times New Roman,serif" font-weight="bold" font-size="9.00">containers</text>
<text text-anchor="start" x="246.38" y="-256.45" font-family="Times New Roman,serif" font-weight="bold" font-size="9.00">headlamps</text>
<polygon fill="none" stroke="black" points="310,-248 310,-289 400.5,-289 400.5,-248 310,-248"/>
<text text-anchor="start" x="317" y="-269.95" font-family="Times New Roman,serif" font-weight="bold" font-size="9.00">building (non float)</text>
<text text-anchor="start" x="336.12" y="-260.95" font-family="Times New Roman,serif" font-weight="bold" font-size="9.00">tableware</text>
<polygon fill="none" stroke="black" points="223.75,-247 223.75,-290 401.5,-290 401.5,-247 223.75,-247"/>
</g>
<!-- n_0_1_2_3_4_5&#45;&gt;n_1_2_3_4_5 -->
<g id="edge1" class="edge">
<title>n_0_1_2_3_4_5&#45;&gt;n_1_2_3_4_5</title>
<path fill="none" stroke="black" d="M370.23,-337.15C360.73,-326 350.15,-313.58 340.68,-302.45"/>
<polygon fill="black" stroke="black" points="343.5,-300.36 334.35,-295.01 338.17,-304.9 343.5,-300.36"/>
</g>
<!-- n_0 -->
<g id="node11" class="node">
<title>n_0</title>
<polygon fill="none" stroke="black" points="448,-255.88 448,-281.12 521.25,-281.12 521.25,-255.88 448,-255.88"/>
<text text-anchor="start" x="455" y="-266.57" font-family="Times New Roman,serif" font-weight="bold" font-size="9.00">building (float)</text>
<polygon fill="none" stroke="black" points="447,-254.88 447,-282.12 522.25,-282.12 522.25,-254.88 447,-254.88"/>
</g>
<!-- n_0_1_2_3_4_5&#45;&gt;n_0 -->
<g id="edge10" class="edge">
<title>n_0_1_2_3_4_5&#45;&gt;n_0</title>
<path fill="none" stroke="black" d="M427.02,-337.15C438.68,-323.46 451.95,-307.87 462.82,-295.11"/>
<polygon fill="black" stroke="black" points="465.45,-297.42 469.27,-287.53 460.12,-292.88 465.45,-297.42"/>
</g>
<!-- n_2_3_5 -->
<g id="node3" class="node">
<title>n_2_3_5</title>
<polygon fill="none" stroke="black" points="148,-163 148,-195 204,-195 204,-163 148,-163"/>
<text text-anchor="start" x="155.38" y="-180.45" font-family="Times New Roman,serif" font-weight="bold" font-size="9.00">containers</text>
<text text-anchor="start" x="155" y="-171.45" font-family="Times New Roman,serif" font-weight="bold" font-size="9.00">headlamps</text>
<polygon fill="none" stroke="black" points="204,-163 204,-195 289.25,-195 289.25,-163 204,-163"/>
<text text-anchor="start" x="211" y="-177.07" font-family="Times New Roman,serif" font-weight="bold" font-size="9.00">vehicle (non float)</text>
<polygon fill="none" stroke="black" points="147,-162 147,-196 290.25,-196 290.25,-162 147,-162"/>
</g>
<!-- n_1_2_3_4_5&#45;&gt;n_2_3_5 -->
<g id="edge2" class="edge">
<title>n_1_2_3_4_5&#45;&gt;n_2_3_5</title>
<path fill="none" stroke="black" d="M286.44,-243.13C274.52,-232.03 260.37,-218.86 248.08,-207.42"/>
<polygon fill="black" stroke="black" points="250.74,-205.11 241.03,-200.86 245.97,-210.23 250.74,-205.11"/>
</g>
<!-- n_1_4 -->
<g id="node8" class="node">
<title>n_1_4</title>
<polygon fill="none" stroke="black" points="336.25,-166.38 336.25,-191.62 426.75,-191.62 426.75,-166.38 336.25,-166.38"/>
<text text-anchor="start" x="343.25" y="-177.07" font-family="Times New Roman,serif" font-weight="bold" font-size="9.00">building (non float)</text>
<polygon fill="none" stroke="black" points="426.75,-166.38 426.75,-191.62 479,-191.62 479,-166.38 426.75,-166.38"/>
<text text-anchor="start" x="433.75" y="-177.07" font-family="Times New Roman,serif" font-weight="bold" font-size="9.00">tableware</text>
<polygon fill="none" stroke="black" points="335.25,-165.38 335.25,-192.62 480,-192.62 480,-165.38 335.25,-165.38"/>
</g>
<!-- n_1_2_3_4_5&#45;&gt;n_1_4 -->
<g id="edge7" class="edge">
<title>n_1_2_3_4_5&#45;&gt;n_1_4</title>
<path fill="none" stroke="black" d="M339.09,-243.13C352.24,-231.01 368.09,-216.42 381.23,-204.31"/>
<polygon fill="black" stroke="black" points="383.32,-207.15 388.3,-197.8 378.58,-202 383.32,-207.15"/>
</g>
<!-- n_3_5 -->
<g id="node4" class="node">
<title>n_3_5</title>
<polygon fill="none" stroke="black" points="32,-84.38 32,-109.62 87.25,-109.62 87.25,-84.38 32,-84.38"/>
<text text-anchor="start" x="39" y="-95.08" font-family="Times New Roman,serif" font-weight="bold" font-size="9.00">containers</text>
<polygon fill="none" stroke="black" points="87.25,-84.38 87.25,-109.62 143.25,-109.62 143.25,-84.38 87.25,-84.38"/>
<text text-anchor="start" x="94.25" y="-95.08" font-family="Times New Roman,serif" font-weight="bold" font-size="9.00">headlamps</text>
<polygon fill="none" stroke="black" points="31,-83.38 31,-110.62 144.25,-110.62 144.25,-83.38 31,-83.38"/>
</g>
<!-- n_2_3_5&#45;&gt;n_3_5 -->
<g id="edge3" class="edge">
<title>n_2_3_5&#45;&gt;n_3_5</title>
<path fill="none" stroke="black" d="M185.91,-158.02C167.32,-146.67 143.99,-132.42 124.72,-120.66"/>
<polygon fill="black" stroke="black" points="126.72,-117.77 116.36,-115.55 123.07,-123.75 126.72,-117.77"/>
</g>
<!-- n_2 -->
<g id="node7" class="node">
<title>n_2</title>
<polygon fill="none" stroke="black" points="190,-84.38 190,-109.62 275.25,-109.62 275.25,-84.38 190,-84.38"/>
<text text-anchor="start" x="197" y="-95.08" font-family="Times New Roman,serif" font-weight="bold" font-size="9.00">vehicle (non float)</text>
<polygon fill="none" stroke="black" points="189,-83.38 189,-110.62 276.25,-110.62 276.25,-83.38 189,-83.38"/>
</g>
<!-- n_2_3_5&#45;&gt;n_2 -->
<g id="edge6" class="edge">
<title>n_2_3_5&#45;&gt;n_2</title>
<path fill="none" stroke="black" d="M222.09,-158.22C223.78,-148.54 225.85,-136.72 227.71,-126.11"/>
<polygon fill="black" stroke="black" points="231.14,-126.79 229.42,-116.33 224.24,-125.58 231.14,-126.79"/>
</g>
<!-- n_3 -->
<g id="node5" class="node">
<title>n_3</title>
<polygon fill="none" stroke="black" points="9,-5.38 9,-30.62 64.25,-30.62 64.25,-5.38 9,-5.38"/>
<text text-anchor="start" x="16" y="-16.07" font-family="Times New Roman,serif" font-weight="bold" font-size="9.00">containers</text>
<polygon fill="none" stroke="black" points="8,-4.38 8,-31.62 65.25,-31.62 65.25,-4.38 8,-4.38"/>
</g>
<!-- n_3_5&#45;&gt;n_3 -->
<g id="edge4" class="edge">
<title>n_3_5&#45;&gt;n_3</title>
<path fill="none" stroke="black" d="M76.56,-79.29C69.99,-69.37 61.51,-56.57 54.06,-45.32"/>
<polygon fill="black" stroke="black" points="57.12,-43.61 48.68,-37.2 51.29,-47.47 57.12,-43.61"/>
</g>
<!-- n_5 -->
<g id="node6" class="node">
<title>n_5</title>
<polygon fill="none" stroke="black" points="111.62,-5.38 111.62,-30.62 167.62,-30.62 167.62,-5.38 111.62,-5.38"/>
<text text-anchor="start" x="118.62" y="-16.07" font-family="Times New Roman,serif" font-weight="bold" font-size="9.00">headlamps</text>
<polygon fill="none" stroke="black" points="110.62,-4.38 110.62,-31.62 168.62,-31.62 168.62,-4.38 110.62,-4.38"/>
</g>
<!-- n_3_5&#45;&gt;n_5 -->
<g id="edge5" class="edge">
<title>n_3_5&#45;&gt;n_5</title>
<path fill="none" stroke="black" d="M98.91,-79.29C105.61,-69.37 114.25,-56.57 121.85,-45.32"/>
<polygon fill="black" stroke="black" points="124.64,-47.44 127.34,-37.2 118.84,-43.52 124.64,-47.44"/>
</g>
<!-- n_1 -->
<g id="node9" class="node">
<title>n_1</title>
<polygon fill="none" stroke="black" points="349.38,-84.38 349.38,-109.62 439.88,-109.62 439.88,-84.38 349.38,-84.38"/>
<text text-anchor="start" x="356.38" y="-95.08" font-family="Times New Roman,serif" font-weight="bold" font-size="9.00">building (non float)</text>
<polygon fill="none" stroke="black" points="348.38,-83.38 348.38,-110.62 440.88,-110.62 440.88,-83.38 348.38,-83.38"/>
</g>
<!-- n_1_4&#45;&gt;n_1 -->
<g id="edge8" class="edge">
<title>n_1_4&#45;&gt;n_1</title>
<path fill="none" stroke="black" d="M404.87,-161.03C403.21,-150.85 401.07,-137.65 399.17,-125.96"/>
<polygon fill="black" stroke="black" points="402.68,-125.74 397.62,-116.44 395.77,-126.87 402.68,-125.74"/>
</g>
<!-- n_4 -->
<g id="node10" class="node">
<title>n_4</title>
<polygon fill="none" stroke="black" points="486.5,-84.38 486.5,-109.62 538.75,-109.62 538.75,-84.38 486.5,-84.38"/>
<text text-anchor="start" x="493.5" y="-95.08" font-family="Times New Roman,serif" font-weight="bold" font-size="9.00">tableware</text>
<polygon fill="none" stroke="black" points="485.5,-83.38 485.5,-110.62 539.75,-110.62 539.75,-83.38 485.5,-83.38"/>
</g>
<!-- n_1_4&#45;&gt;n_4 -->
<g id="edge9" class="edge">
<title>n_1_4&#45;&gt;n_4</title>
<path fill="none" stroke="black" d="M429.89,-161.03C444.93,-149.58 464.98,-134.3 481.58,-121.66"/>
<polygon fill="black" stroke="black" points="483.35,-124.7 489.19,-115.86 479.11,-119.14 483.35,-124.7"/>
</g>
</g>
</svg>
