<?xml version="1.0" encoding="UTF-8" standalone="no"?>
<!DOCTYPE svg PUBLIC "-//W3C//DTD SVG 1.1//EN"
 "http://www.w3.org/Graphics/SVG/1.1/DTD/svg11.dtd">
<!-- Generated by graphviz version 10.0.1 (20240210.2158)
 -->
<!-- Title: ND Pages: 1 -->
<svg width="611pt" height="302pt"
 viewBox="0.00 0.00 610.88 302.00" xmlns="http://www.w3.org/2000/svg" xmlns:xlink="http://www.w3.org/1999/xlink">
<g id="graph0" class="graph" transform="scale(1 1) rotate(0) translate(4 298)">
<title>ND</title>
<polygon fill="white" stroke="none" points="-4,4 -4,-298 606.88,-298 606.88,4 -4,4"/>
<!-- n_0_1_2_3_4_5 -->
<g id="node1" class="node">
<title>n_0_1_2_3_4_5</title>
<polygon fill="none" stroke="black" points="217.75,-248 217.75,-289 291,-289 291,-248 217.75,-248"/>
<text text-anchor="start" x="224.75" y="-274.45" font-family="Times New Roman,serif" font-weight="bold" font-size="9.00">building (float)</text>
<text text-anchor="start" x="233.75" y="-265.45" font-family="Times New Roman,serif" font-weight="bold" font-size="9.00">containers</text>
<text text-anchor="start" x="235.25" y="-256.45" font-family="Times New Roman,serif" font-weight="bold" font-size="9.00">tableware</text>
<polygon fill="none" stroke="black" points="291,-248 291,-289 381.5,-289 381.5,-248 291,-248"/>
<text text-anchor="start" x="298" y="-274.45" font-family="Times New Roman,serif" font-weight="bold" font-size="9.00">building (non float)</text>
<text text-anchor="start" x="300.62" y="-265.45" font-family="Times New Roman,serif" font-weight="bold" font-size="9.00">vehicle (non float)</text>
<text text-anchor="start" x="315.25" y="-256.45" font-family="Times New Roman,serif" font-weight="bold" font-size="9.00">headlamps</text>
<polygon fill="none" stroke="black" points="216.75,-247 216.75,-290 382.5,-290 382.5,-247 216.75,-247"/>
</g>
<!-- n_0_3_4 -->
<g id="node2" class="node">
<title>n_0_3_4</title>
<polygon fill="none" stroke="black" points="137.88,-163 137.88,-195 211.12,-195 211.12,-163 137.88,-163"/>
<text text-anchor="start" x="144.88" y="-180.45" font-family="Times New Roman,serif" font-weight="bold" font-size="9.00">building (float)</text>
<text text-anchor="start" x="153.88" y="-171.45" font-family="Times New Roman,serif" font-weight="bold" font-size="9.00">containers</text>
<polygon fill="none" stroke="black" points="211.12,-163 211.12,-195 263.38,-195 263.38,-163 211.12,-163"/>
<text text-anchor="start" x="218.12" y="-177.07" font-family="Times New Roman,serif" font-weight="bold" font-size="9.00">tableware</text>
<polygon fill="none" stroke="black" points="136.88,-162 136.88,-196 264.38,-196 264.38,-162 136.88,-162"/>
</g>
<!-- n_0_1_2_3_4_5&#45;&gt;n_0_3_4 -->
<g id="edge1" class="edge">
<title>n_0_1_2_3_4_5&#45;&gt;n_0_3_4</title>
<path fill="none" stroke="black" d="M272.05,-243.13C259.5,-232.03 244.59,-218.86 231.65,-207.42"/>
<polygon fill="black" stroke="black" points="234,-204.83 224.19,-200.83 229.37,-210.07 234,-204.83"/>
</g>
<!-- n_1_2_5 -->
<g id="node7" class="node">
<title>n_1_2_5</title>
<polygon fill="none" stroke="black" points="310.75,-163 310.75,-195 396,-195 396,-163 310.75,-163"/>
<text text-anchor="start" x="317.75" y="-180.45" font-family="Times New Roman,serif" font-weight="bold" font-size="9.00">vehicle (non float)</text>
<text text-anchor="start" x="332.38" y="-171.45" font-family="Times New Roman,serif" font-weight="bold" font-size="9.00">headlamps</text>
<polygon fill="none" stroke="black" points="396,-163 396,-195 486.5,-195 486.5,-163 396,-163"/>
<text text-anchor="start" x="403" y="-177.07" font-family="Times New Roman,serif" font-weight="bold" font-size="9.00">building (non float)</text>
<polygon fill="none" stroke="black" points="309.75,-162 309.75,-196 487.5,-196 487.5,-162 309.75,-162"/>
</g>
<!-- n_0_1_2_3_4_5&#45;&gt;n_1_2_5 -->
<g id="edge6" class="edge">
<title>n_0_1_2_3_4_5&#45;&gt;n_1_2_5</title>
<path fill="none" stroke="black" d="M327.2,-243.13C339.75,-232.03 354.66,-218.86 367.6,-207.42"/>
<polygon fill="black" stroke="black" points="369.88,-210.07 375.06,-200.83 365.25,-204.83 369.88,-210.07"/>
</g>
<!-- n_0_3 -->
<g id="node3" class="node">
<title>n_0_3</title>
<polygon fill="none" stroke="black" points="13.38,-84.38 13.38,-109.62 86.62,-109.62 86.62,-84.38 13.38,-84.38"/>
<text text-anchor="start" x="20.38" y="-95.08" font-family="Times New Roman,serif" font-weight="bold" font-size="9.00">building (float)</text>
<polygon fill="none" stroke="black" points="86.62,-84.38 86.62,-109.62 141.88,-109.62 141.88,-84.38 86.62,-84.38"/>
<text text-anchor="start" x="93.62" y="-95.08" font-family="Times New Roman,serif" font-weight="bold" font-size="9.00">containers</text>
<polygon fill="none" stroke="black" points="12.38,-83.38 12.38,-110.62 142.88,-110.62 142.88,-83.38 12.38,-83.38"/>
</g>
<!-- n_0_3_4&#45;&gt;n_0_3 -->
<g id="edge2" class="edge">
<title>n_0_3_4&#45;&gt;n_0_3</title>
<path fill="none" stroke="black" d="M169.9,-158.02C152.61,-146.77 130.95,-132.68 112.96,-120.98"/>
<polygon fill="black" stroke="black" points="114.95,-118.1 104.66,-115.58 111.13,-123.97 114.95,-118.1"/>
</g>
<!-- n_4 -->
<g id="node6" class="node">
<title>n_4</title>
<polygon fill="none" stroke="black" points="188.5,-84.38 188.5,-109.62 240.75,-109.62 240.75,-84.38 188.5,-84.38"/>
<text text-anchor="start" x="195.5" y="-95.08" font-family="Times New Roman,serif" font-weight="bold" font-size="9.00">tableware</text>
<polygon fill="none" stroke="black" points="187.5,-83.38 187.5,-110.62 241.75,-110.62 241.75,-83.38 187.5,-83.38"/>
</g>
<!-- n_0_3_4&#45;&gt;n_4 -->
<g id="edge5" class="edge">
<title>n_0_3_4&#45;&gt;n_4</title>
<path fill="none" stroke="black" d="M204.09,-158.22C205.78,-148.54 207.85,-136.72 209.71,-126.11"/>
<polygon fill="black" stroke="black" points="213.14,-126.79 211.42,-116.33 206.24,-125.58 213.14,-126.79"/>
</g>
<!-- n_0 -->
<g id="node4" class="node">
<title>n_0</title>
<polygon fill="none" stroke="black" points="9,-5.38 9,-30.62 82.25,-30.62 82.25,-5.38 9,-5.38"/>
<text text-anchor="start" x="16" y="-16.07" font-family="Times New Roman,serif" font-weight="bold" font-size="9.00">building (float)</text>
<polygon fill="none" stroke="black" points="8,-4.38 8,-31.62 83.25,-31.62 83.25,-4.38 8,-4.38"/>
</g>
<!-- n_0_3&#45;&gt;n_0 -->
<g id="edge3" class="edge">
<title>n_0_3&#45;&gt;n_0</title>
<path fill="none" stroke="black" d="M70.68,-79.29C66.68,-69.67 61.56,-57.34 56.99,-46.35"/>
<polygon fill="black" stroke="black" points="60.32,-45.23 53.25,-37.34 53.85,-47.92 60.32,-45.23"/>
</g>
<!-- n_3 -->
<g id="node5" class="node">
<title>n_3</title>
<polygon fill="none" stroke="black" points="129,-5.38 129,-30.62 184.25,-30.62 184.25,-5.38 129,-5.38"/>
<text text-anchor="start" x="136" y="-16.07" font-family="Times New Roman,serif" font-weight="bold" font-size="9.00">containers</text>
<polygon fill="none" stroke="black" points="128,-4.38 128,-31.62 185.25,-31.62 185.25,-4.38 128,-4.38"/>
</g>
<!-- n_0_3&#45;&gt;n_3 -->
<g id="edge4" class="edge">
<title>n_0_3&#45;&gt;n_3</title>
<path fill="none" stroke="black" d="M94.77,-79.29C105.36,-68.97 119.14,-55.53 131.01,-43.96"/>
<polygon fill="black" stroke="black" points="133.44,-46.48 138.16,-37 128.56,-41.47 133.44,-46.48"/>
</g>
<!-- n_2_5 -->
<g id="node8" class="node">
<title>n_2_5</title>
<polygon fill="none" stroke="black" points="315,-84.38 315,-109.62 400.25,-109.62 400.25,-84.38 315,-84.38"/>
<text text-anchor="start" x="322" y="-95.08" font-family="Times New Roman,serif" font-weight="bold" font-size="9.00">vehicle (non float)</text>
<polygon fill="none" stroke="black" points="400.25,-84.38 400.25,-109.62 456.25,-109.62 456.25,-84.38 400.25,-84.38"/>
<text text-anchor="start" x="407.25" y="-95.08" font-family="Times New Roman,serif" font-weight="bold" font-size="9.00">headlamps</text>
<polygon fill="none" stroke="black" points="314,-83.38 314,-110.62 457.25,-110.62 457.25,-83.38 314,-83.38"/>
</g>
<!-- n_1_2_5&#45;&gt;n_2_5 -->
<g id="edge7" class="edge">
<title>n_1_2_5&#45;&gt;n_2_5</title>
<path fill="none" stroke="black" d="M395.41,-158.22C393.84,-148.54 391.92,-136.72 390.19,-126.11"/>
<polygon fill="black" stroke="black" points="393.66,-125.65 388.6,-116.34 386.75,-126.77 393.66,-125.65"/>
</g>
<!-- n_1 -->
<g id="node11" class="node">
<title>n_1</title>
<polygon fill="none" stroke="black" points="503.38,-84.38 503.38,-109.62 593.88,-109.62 593.88,-84.38 503.38,-84.38"/>
<text text-anchor="start" x="510.38" y="-95.08" font-family="Times New Roman,serif" font-weight="bold" font-size="9.00">building (non float)</text>
<polygon fill="none" stroke="black" points="502.38,-83.38 502.38,-110.62 594.88,-110.62 594.88,-83.38 502.38,-83.38"/>
</g>
<!-- n_1_2_5&#45;&gt;n_1 -->
<g id="edge10" class="edge">
<title>n_1_2_5&#45;&gt;n_1</title>
<path fill="none" stroke="black" d="M436.09,-158.02C457.66,-146.51 484.82,-132.03 507.05,-120.17"/>
<polygon fill="black" stroke="black" points="508.69,-123.26 515.87,-115.47 505.4,-117.09 508.69,-123.26"/>
</g>
<!-- n_2 -->
<g id="node9" class="node">
<title>n_2</title>
<polygon fill="none" stroke="black" points="273,-5.38 273,-30.62 358.25,-30.62 358.25,-5.38 273,-5.38"/>
<text text-anchor="start" x="280" y="-16.07" font-family="Times New Roman,serif" font-weight="bold" font-size="9.00">vehicle (non float)</text>
<polygon fill="none" stroke="black" points="272,-4.38 272,-31.62 359.25,-31.62 359.25,-4.38 272,-4.38"/>
</g>
<!-- n_2_5&#45;&gt;n_2 -->
<g id="edge8" class="edge">
<title>n_2_5&#45;&gt;n_2</title>
<path fill="none" stroke="black" d="M370.44,-79.29C361.14,-69.07 349.07,-55.79 338.63,-44.3"/>
<polygon fill="black" stroke="black" points="341.36,-42.11 332.04,-37.06 336.18,-46.81 341.36,-42.11"/>
</g>
<!-- n_5 -->
<g id="node10" class="node">
<title>n_5</title>
<polygon fill="none" stroke="black" points="405.62,-5.38 405.62,-30.62 461.62,-30.62 461.62,-5.38 405.62,-5.38"/>
<text text-anchor="start" x="412.62" y="-16.07" font-family="Times New Roman,serif" font-weight="bold" font-size="9.00">headlamps</text>
<polygon fill="none" stroke="black" points="404.62,-4.38 404.62,-31.62 462.62,-31.62 462.62,-4.38 404.62,-4.38"/>
</g>
<!-- n_2_5&#45;&gt;n_5 -->
<g id="edge9" class="edge">
<title>n_2_5&#45;&gt;n_5</title>
<path fill="none" stroke="black" d="M396.04,-79.29C402.16,-69.47 410.04,-56.83 417.01,-45.66"/>
<polygon fill="black" stroke="black" points="419.94,-47.56 422.26,-37.23 414,-43.86 419.94,-47.56"/>
</g>
</g>
</svg>
