<?xml version="1.0" encoding="UTF-8" standalone="no"?>
<!DOCTYPE svg PUBLIC "-//W3C//DTD SVG 1.1//EN"
 "http://www.w3.org/Graphics/SVG/1.1/DTD/svg11.dtd">
<!-- Generated by graphviz version 10.0.1 (20240210.2158)
 -->
<!-- Title: ND Pages: 1 -->
<svg width="540pt" height="517pt"
 viewBox="0.00 0.00 540.38 517.00" xmlns="http://www.w3.org/2000/svg" xmlns:xlink="http://www.w3.org/1999/xlink">
<g id="graph0" class="graph" transform="scale(1 1) rotate(0) translate(4 513)">
<title>ND</title>
<polygon fill="white" stroke="none" points="-4,4 -4,-513 536.38,-513 536.38,4 -4,4"/>
<!-- n_0_1_2_3_4_5 -->
<g id="node1" class="node">
<title>n_0_1_2_3_4_5</title>
<polygon fill="none" stroke="black" points="304.25,-445 304.25,-504 389.5,-504 389.5,-445 304.25,-445"/>
<text text-anchor="start" x="317.25" y="-489.45" font-family="Times New Roman,serif" font-weight="bold" font-size="9.00">building (float)</text>
<text text-anchor="start" x="311.25" y="-480.45" font-family="Times New Roman,serif" font-weight="bold" font-size="9.00">vehicle (non float)</text>
<text text-anchor="start" x="326.25" y="-471.45" font-family="Times New Roman,serif" font-weight="bold" font-size="9.00">containers</text>
<text text-anchor="start" x="327.75" y="-462.45" font-family="Times New Roman,serif" font-weight="bold" font-size="9.00">tableware</text>
<text text-anchor="start" x="325.88" y="-453.45" font-family="Times New Roman,serif" font-weight="bold" font-size="9.00">headlamps</text>
<polygon fill="none" stroke="black" points="389.5,-445 389.5,-504 480,-504 480,-445 389.5,-445"/>
<text text-anchor="start" x="396.5" y="-472.57" font-family="Times New Roman,serif" font-weight="bold" font-size="9.00">building (non float)</text>
<polygon fill="none" stroke="black" points="303.25,-444 303.25,-505 481,-505 481,-444 303.25,-444"/>
</g>
<!-- n_0_2_3_4_5 -->
<g id="node2" class="node">
<title>n_0_2_3_4_5</title>
<polygon fill="none" stroke="black" points="226.88,-342 226.88,-392 312.12,-392 312.12,-342 226.88,-342"/>
<text text-anchor="start" x="233.88" y="-377.45" font-family="Times New Roman,serif" font-weight="bold" font-size="9.00">vehicle (non float)</text>
<text text-anchor="start" x="248.88" y="-368.45" font-family="Times New Roman,serif" font-weight="bold" font-size="9.00">containers</text>
<text text-anchor="start" x="250.38" y="-359.45" font-family="Times New Roman,serif" font-weight="bold" font-size="9.00">tableware</text>
<text text-anchor="start" x="248.5" y="-350.45" font-family="Times New Roman,serif" font-weight="bold" font-size="9.00">headlamps</text>
<polygon fill="none" stroke="black" points="312.12,-342 312.12,-392 385.38,-392 385.38,-342 312.12,-342"/>
<text text-anchor="start" x="319.12" y="-365.07" font-family="Times New Roman,serif" font-weight="bold" font-size="9.00">building (float)</text>
<polygon fill="none" stroke="black" points="225.88,-341 225.88,-393 386.38,-393 386.38,-341 225.88,-341"/>
</g>
<!-- n_0_1_2_3_4_5&#45;&gt;n_0_2_3_4_5 -->
<g id="edge1" class="edge">
<title>n_0_1_2_3_4_5&#45;&gt;n_0_2_3_4_5</title>
<path fill="none" stroke="black" d="M364.91,-440.12C355.98,-429.16 346,-416.91 336.83,-405.66"/>
<polygon fill="black" stroke="black" points="339.67,-403.61 330.64,-398.07 334.24,-408.03 339.67,-403.61"/>
</g>
<!-- n_1 -->
<g id="node11" class="node">
<title>n_1</title>
<polygon fill="none" stroke="black" points="432.88,-354.38 432.88,-379.62 523.38,-379.62 523.38,-354.38 432.88,-354.38"/>
<text text-anchor="start" x="439.88" y="-365.07" font-family="Times New Roman,serif" font-weight="bold" font-size="9.00">building (non float)</text>
<polygon fill="none" stroke="black" points="431.88,-353.38 431.88,-380.62 524.38,-380.62 524.38,-353.38 431.88,-353.38"/>
</g>
<!-- n_0_1_2_3_4_5&#45;&gt;n_1 -->
<g id="edge10" class="edge">
<title>n_0_1_2_3_4_5&#45;&gt;n_1</title>
<path fill="none" stroke="black" d="M419.34,-440.12C431.61,-425.06 445.87,-407.57 457.28,-393.58"/>
<polygon fill="black" stroke="black" points="459.75,-396.09 463.35,-386.12 454.32,-391.66 459.75,-396.09"/>
</g>
<!-- n_2_3_4_5 -->
<g id="node3" class="node">
<title>n_2_3_4_5</title>
<polygon fill="none" stroke="black" points="158.88,-248 158.88,-289 244.12,-289 244.12,-248 158.88,-248"/>
<text text-anchor="start" x="165.88" y="-274.45" font-family="Times New Roman,serif" font-weight="bold" font-size="9.00">vehicle (non float)</text>
<text text-anchor="start" x="182.38" y="-265.45" font-family="Times New Roman,serif" font-weight="bold" font-size="9.00">tableware</text>
<text text-anchor="start" x="180.5" y="-256.45" font-family="Times New Roman,serif" font-weight="bold" font-size="9.00">headlamps</text>
<polygon fill="none" stroke="black" points="244.12,-248 244.12,-289 299.38,-289 299.38,-248 244.12,-248"/>
<text text-anchor="start" x="251.12" y="-266.57" font-family="Times New Roman,serif" font-weight="bold" font-size="9.00">containers</text>
<polygon fill="none" stroke="black" points="157.88,-247 157.88,-290 300.38,-290 300.38,-247 157.88,-247"/>
</g>
<!-- n_0_2_3_4_5&#45;&gt;n_2_3_4_5 -->
<g id="edge2" class="edge">
<title>n_0_2_3_4_5&#45;&gt;n_2_3_4_5</title>
<path fill="none" stroke="black" d="M283.02,-337.05C274.35,-326.18 264.44,-313.76 255.5,-302.55"/>
<polygon fill="black" stroke="black" points="258.49,-300.69 249.52,-295.06 253.02,-305.06 258.49,-300.69"/>
</g>
<!-- n_0 -->
<g id="node10" class="node">
<title>n_0</title>
<polygon fill="none" stroke="black" points="346.5,-255.88 346.5,-281.12 419.75,-281.12 419.75,-255.88 346.5,-255.88"/>
<text text-anchor="start" x="353.5" y="-266.57" font-family="Times New Roman,serif" font-weight="bold" font-size="9.00">building (float)</text>
<polygon fill="none" stroke="black" points="345.5,-254.88 345.5,-282.12 420.75,-282.12 420.75,-254.88 345.5,-254.88"/>
</g>
<!-- n_0_2_3_4_5&#45;&gt;n_0 -->
<g id="edge9" class="edge">
<title>n_0_2_3_4_5&#45;&gt;n_0</title>
<path fill="none" stroke="black" d="M329.23,-337.05C339.85,-323.73 352.35,-308.07 362.63,-295.19"/>
<polygon fill="black" stroke="black" points="365.22,-297.55 368.72,-287.55 359.75,-293.18 365.22,-297.55"/>
</g>
<!-- n_2_4_5 -->
<g id="node4" class="node">
<title>n_2_4_5</title>
<polygon fill="none" stroke="black" points="86.5,-163 86.5,-195 142.5,-195 142.5,-163 86.5,-163"/>
<text text-anchor="start" x="95.38" y="-180.45" font-family="Times New Roman,serif" font-weight="bold" font-size="9.00">tableware</text>
<text text-anchor="start" x="93.5" y="-171.45" font-family="Times New Roman,serif" font-weight="bold" font-size="9.00">headlamps</text>
<polygon fill="none" stroke="black" points="142.5,-163 142.5,-195 227.75,-195 227.75,-163 142.5,-163"/>
<text text-anchor="start" x="149.5" y="-177.07" font-family="Times New Roman,serif" font-weight="bold" font-size="9.00">vehicle (non float)</text>
<polygon fill="none" stroke="black" points="85.5,-162 85.5,-196 228.75,-196 228.75,-162 85.5,-162"/>
</g>
<!-- n_2_3_4_5&#45;&gt;n_2_4_5 -->
<g id="edge3" class="edge">
<title>n_2_3_4_5&#45;&gt;n_2_4_5</title>
<path fill="none" stroke="black" d="M209.07,-243.13C200.2,-232.35 189.72,-219.62 180.51,-208.41"/>
<polygon fill="black" stroke="black" points="183.46,-206.49 174.4,-200.99 178.05,-210.94 183.46,-206.49"/>
</g>
<!-- n_3 -->
<g id="node9" class="node">
<title>n_3</title>
<polygon fill="none" stroke="black" points="274.5,-166.38 274.5,-191.62 329.75,-191.62 329.75,-166.38 274.5,-166.38"/>
<text text-anchor="start" x="281.5" y="-177.07" font-family="Times New Roman,serif" font-weight="bold" font-size="9.00">containers</text>
<polygon fill="none" stroke="black" points="273.5,-165.38 273.5,-192.62 330.75,-192.62 330.75,-165.38 273.5,-165.38"/>
</g>
<!-- n_2_3_4_5&#45;&gt;n_3 -->
<g id="edge8" class="edge">
<title>n_2_3_4_5&#45;&gt;n_3</title>
<path fill="none" stroke="black" d="M249.46,-243.13C259.28,-231.36 271.05,-217.25 280.97,-205.36"/>
<polygon fill="black" stroke="black" points="283.45,-207.85 287.16,-197.93 278.07,-203.37 283.45,-207.85"/>
</g>
<!-- n_4_5 -->
<g id="node5" class="node">
<title>n_4_5</title>
<polygon fill="none" stroke="black" points="31,-84.38 31,-109.62 83.25,-109.62 83.25,-84.38 31,-84.38"/>
<text text-anchor="start" x="38" y="-95.08" font-family="Times New Roman,serif" font-weight="bold" font-size="9.00">tableware</text>
<polygon fill="none" stroke="black" points="83.25,-84.38 83.25,-109.62 139.25,-109.62 139.25,-84.38 83.25,-84.38"/>
<text text-anchor="start" x="90.25" y="-95.08" font-family="Times New Roman,serif" font-weight="bold" font-size="9.00">headlamps</text>
<polygon fill="none" stroke="black" points="30,-83.38 30,-110.62 140.25,-110.62 140.25,-83.38 30,-83.38"/>
</g>
<!-- n_2_4_5&#45;&gt;n_4_5 -->
<g id="edge4" class="edge">
<title>n_2_4_5&#45;&gt;n_4_5</title>
<path fill="none" stroke="black" d="M139.33,-158.22C129.77,-147.61 117.89,-134.41 107.69,-123.07"/>
<polygon fill="black" stroke="black" points="110.59,-121.06 101.3,-115.97 105.39,-125.74 110.59,-121.06"/>
</g>
<!-- n_2 -->
<g id="node8" class="node">
<title>n_2</title>
<polygon fill="none" stroke="black" points="186.5,-84.38 186.5,-109.62 271.75,-109.62 271.75,-84.38 186.5,-84.38"/>
<text text-anchor="start" x="193.5" y="-95.08" font-family="Times New Roman,serif" font-weight="bold" font-size="9.00">vehicle (non float)</text>
<polygon fill="none" stroke="black" points="185.5,-83.38 185.5,-110.62 272.75,-110.62 272.75,-83.38 185.5,-83.38"/>
</g>
<!-- n_2_4_5&#45;&gt;n_2 -->
<g id="edge7" class="edge">
<title>n_2_4_5&#45;&gt;n_2</title>
<path fill="none" stroke="black" d="M174.92,-158.22C184.48,-147.61 196.36,-134.41 206.56,-123.07"/>
<polygon fill="black" stroke="black" points="208.86,-125.74 212.95,-115.97 203.66,-121.06 208.86,-125.74"/>
</g>
<!-- n_4 -->
<g id="node6" class="node">
<title>n_4</title>
<polygon fill="none" stroke="black" points="9,-5.38 9,-30.62 61.25,-30.62 61.25,-5.38 9,-5.38"/>
<text text-anchor="start" x="16" y="-16.07" font-family="Times New Roman,serif" font-weight="bold" font-size="9.00">tableware</text>
<polygon fill="none" stroke="black" points="8,-4.38 8,-31.62 62.25,-31.62 62.25,-4.38 8,-4.38"/>
</g>
<!-- n_4_5&#45;&gt;n_4 -->
<g id="edge5" class="edge">
<title>n_4_5&#45;&gt;n_4</title>
<path fill="none" stroke="black" d="M74.28,-79.29C67.83,-69.37 59.52,-56.57 52.22,-45.32"/>
<polygon fill="black" stroke="black" points="55.33,-43.69 46.95,-37.21 49.46,-47.5 55.33,-43.69"/>
</g>
<!-- n_5 -->
<g id="node7" class="node">
<title>n_5</title>
<polygon fill="none" stroke="black" points="108.12,-5.38 108.12,-30.62 164.12,-30.62 164.12,-5.38 108.12,-5.38"/>
<text text-anchor="start" x="115.12" y="-16.07" font-family="Times New Roman,serif" font-weight="bold" font-size="9.00">headlamps</text>
<polygon fill="none" stroke="black" points="107.12,-4.38 107.12,-31.62 165.12,-31.62 165.12,-4.38 107.12,-4.38"/>
</g>
<!-- n_4_5&#45;&gt;n_5 -->
<g id="edge6" class="edge">
<title>n_4_5&#45;&gt;n_5</title>
<path fill="none" stroke="black" d="M96.19,-79.29C102.76,-69.37 111.24,-56.57 118.69,-45.32"/>
<polygon fill="black" stroke="black" points="121.46,-47.47 124.07,-37.2 115.63,-43.61 121.46,-47.47"/>
</g>
</g>
</svg>
