<?xml version="1.0" encoding="UTF-8" standalone="no"?>
<!DOCTYPE svg PUBLIC "-//W3C//DTD SVG 1.1//EN"
 "http://www.w3.org/Graphics/SVG/1.1/DTD/svg11.dtd">
<!-- Generated by graphviz version 10.0.1 (20240210.2158)
 -->
<!-- Title: ND Pages: 1 -->
<svg width="574pt" height="414pt"
 viewBox="0.00 0.00 573.88 414.00" xmlns="http://www.w3.org/2000/svg" xmlns:xlink="http://www.w3.org/1999/xlink">
<g id="graph0" class="graph" transform="scale(1 1) rotate(0) translate(4 410)">
<title>ND</title>
<polygon fill="white" stroke="none" points="-4,4 -4,-410 569.88,-410 569.88,4 -4,4"/>
<!-- n_0_1_2_3_4_5 -->
<g id="node1" class="node">
<title>n_0_1_2_3_4_5</title>
<polygon fill="none" stroke="black" points="339.38,-342 339.38,-401 429.88,-401 429.88,-342 339.38,-342"/>
<text text-anchor="start" x="346.38" y="-386.45" font-family="Times New Roman,serif" font-weight="bold" font-size="9.00">building (non float)</text>
<text text-anchor="start" x="349" y="-377.45" font-family="Times New Roman,serif" font-weight="bold" font-size="9.00">vehicle (non float)</text>
<text text-anchor="start" x="364" y="-368.45" font-family="Times New Roman,serif" font-weight="bold" font-size="9.00">containers</text>
<text text-anchor="start" x="365.5" y="-359.45" font-family="Times New Roman,serif" font-weight="bold" font-size="9.00">tableware</text>
<text text-anchor="start" x="363.62" y="-350.45" font-family="Times New Roman,serif" font-weight="bold" font-size="9.00">headlamps</text>
<polygon fill="none" stroke="black" points="429.88,-342 429.88,-401 503.12,-401 503.12,-342 429.88,-342"/>
<text text-anchor="start" x="436.88" y="-369.57" font-family="Times New Roman,serif" font-weight="bold" font-size="9.00">building (float)</text>
<polygon fill="none" stroke="black" points="338.38,-341 338.38,-402 504.12,-402 504.12,-341 338.38,-341"/>
</g>
<!-- n_1_2_3_4_5 -->
<g id="node2" class="node">
<title>n_1_2_3_4_5</title>
<polygon fill="none" stroke="black" points="247.38,-248 247.38,-289 337.88,-289 337.88,-248 247.38,-248"/>
<text text-anchor="start" x="254.38" y="-274.45" font-family="Times New Roman,serif" font-weight="bold" font-size="9.00">building (non float)</text>
<text text-anchor="start" x="273.5" y="-265.45" font-family="Times New Roman,serif" font-weight="bold" font-size="9.00">tableware</text>
<text text-anchor="start" x="271.62" y="-256.45" font-family="Times New Roman,serif" font-weight="bold" font-size="9.00">headlamps</text>
<polygon fill="none" stroke="black" points="337.88,-248 337.88,-289 423.12,-289 423.12,-248 337.88,-248"/>
<text text-anchor="start" x="344.88" y="-269.95" font-family="Times New Roman,serif" font-weight="bold" font-size="9.00">vehicle (non float)</text>
<text text-anchor="start" x="359.88" y="-260.95" font-family="Times New Roman,serif" font-weight="bold" font-size="9.00">containers</text>
<polygon fill="none" stroke="black" points="246.38,-247 246.38,-290 424.12,-290 424.12,-247 246.38,-247"/>
</g>
<!-- n_0_1_2_3_4_5&#45;&gt;n_1_2_3_4_5 -->
<g id="edge1" class="edge">
<title>n_0_1_2_3_4_5&#45;&gt;n_1_2_3_4_5</title>
<path fill="none" stroke="black" d="M392.85,-337.15C383.36,-326 372.78,-313.58 363.31,-302.45"/>
<polygon fill="black" stroke="black" points="366.12,-300.36 356.97,-295.01 360.79,-304.9 366.12,-300.36"/>
</g>
<!-- n_0 -->
<g id="node11" class="node">
<title>n_0</title>
<polygon fill="none" stroke="black" points="470.62,-255.88 470.62,-281.12 543.88,-281.12 543.88,-255.88 470.62,-255.88"/>
<text text-anchor="start" x="477.62" y="-266.57" font-family="Times New Roman,serif" font-weight="bold" font-size="9.00">building (float)</text>
<polygon fill="none" stroke="black" points="469.62,-254.88 469.62,-282.12 544.88,-282.12 544.88,-254.88 469.62,-254.88"/>
</g>
<!-- n_0_1_2_3_4_5&#45;&gt;n_0 -->
<g id="edge10" class="edge">
<title>n_0_1_2_3_4_5&#45;&gt;n_0</title>
<path fill="none" stroke="black" d="M449.65,-337.15C461.3,-323.46 474.58,-307.87 485.45,-295.11"/>
<polygon fill="black" stroke="black" points="488.08,-297.42 491.9,-287.53 482.75,-292.88 488.08,-297.42"/>
</g>
<!-- n_1_4_5 -->
<g id="node3" class="node">
<title>n_1_4_5</title>
<polygon fill="none" stroke="black" points="169.88,-163 169.88,-195 260.38,-195 260.38,-163 169.88,-163"/>
<text text-anchor="start" x="176.88" y="-180.45" font-family="Times New Roman,serif" font-weight="bold" font-size="9.00">building (non float)</text>
<text text-anchor="start" x="194.12" y="-171.45" font-family="Times New Roman,serif" font-weight="bold" font-size="9.00">headlamps</text>
<polygon fill="none" stroke="black" points="260.38,-163 260.38,-195 312.62,-195 312.62,-163 260.38,-163"/>
<text text-anchor="start" x="267.38" y="-177.07" font-family="Times New Roman,serif" font-weight="bold" font-size="9.00">tableware</text>
<polygon fill="none" stroke="black" points="168.88,-162 168.88,-196 313.62,-196 313.62,-162 168.88,-162"/>
</g>
<!-- n_1_2_3_4_5&#45;&gt;n_1_4_5 -->
<g id="edge2" class="edge">
<title>n_1_2_3_4_5&#45;&gt;n_1_4_5</title>
<path fill="none" stroke="black" d="M309.07,-243.13C297.15,-232.03 282.99,-218.86 270.71,-207.42"/>
<polygon fill="black" stroke="black" points="273.36,-205.11 263.66,-200.86 268.59,-210.23 273.36,-205.11"/>
</g>
<!-- n_2_3 -->
<g id="node8" class="node">
<title>n_2_3</title>
<polygon fill="none" stroke="black" points="360,-166.38 360,-191.62 445.25,-191.62 445.25,-166.38 360,-166.38"/>
<text text-anchor="start" x="367" y="-177.07" font-family="Times New Roman,serif" font-weight="bold" font-size="9.00">vehicle (non float)</text>
<polygon fill="none" stroke="black" points="445.25,-166.38 445.25,-191.62 500.5,-191.62 500.5,-166.38 445.25,-166.38"/>
<text text-anchor="start" x="452.25" y="-177.07" font-family="Times New Roman,serif" font-weight="bold" font-size="9.00">containers</text>
<polygon fill="none" stroke="black" points="359,-165.38 359,-192.62 501.5,-192.62 501.5,-165.38 359,-165.38"/>
</g>
<!-- n_1_2_3_4_5&#45;&gt;n_2_3 -->
<g id="edge7" class="edge">
<title>n_1_2_3_4_5&#45;&gt;n_2_3</title>
<path fill="none" stroke="black" d="M361.71,-243.13C374.86,-231.01 390.71,-216.42 403.85,-204.31"/>
<polygon fill="black" stroke="black" points="405.94,-207.15 410.93,-197.8 401.2,-202 405.94,-207.15"/>
</g>
<!-- n_1_5 -->
<g id="node4" class="node">
<title>n_1_5</title>
<polygon fill="none" stroke="black" points="41,-84.38 41,-109.62 131.5,-109.62 131.5,-84.38 41,-84.38"/>
<text text-anchor="start" x="48" y="-95.08" font-family="Times New Roman,serif" font-weight="bold" font-size="9.00">building (non float)</text>
<polygon fill="none" stroke="black" points="131.5,-84.38 131.5,-109.62 187.5,-109.62 187.5,-84.38 131.5,-84.38"/>
<text text-anchor="start" x="138.5" y="-95.08" font-family="Times New Roman,serif" font-weight="bold" font-size="9.00">headlamps</text>
<polygon fill="none" stroke="black" points="40,-83.38 40,-110.62 188.5,-110.62 188.5,-83.38 40,-83.38"/>
</g>
<!-- n_1_4_5&#45;&gt;n_1_5 -->
<g id="edge3" class="edge">
<title>n_1_4_5&#45;&gt;n_1_5</title>
<path fill="none" stroke="black" d="M209.53,-158.02C191.59,-146.72 169.1,-132.55 150.47,-120.82"/>
<polygon fill="black" stroke="black" points="152.46,-117.93 142.13,-115.57 148.73,-123.86 152.46,-117.93"/>
</g>
<!-- n_4 -->
<g id="node7" class="node">
<title>n_4</title>
<polygon fill="none" stroke="black" points="234.12,-84.38 234.12,-109.62 286.38,-109.62 286.38,-84.38 234.12,-84.38"/>
<text text-anchor="start" x="241.12" y="-95.08" font-family="Times New Roman,serif" font-weight="bold" font-size="9.00">tableware</text>
<polygon fill="none" stroke="black" points="233.12,-83.38 233.12,-110.62 287.38,-110.62 287.38,-83.38 233.12,-83.38"/>
</g>
<!-- n_1_4_5&#45;&gt;n_4 -->
<g id="edge6" class="edge">
<title>n_1_4_5&#45;&gt;n_4</title>
<path fill="none" stroke="black" d="M245.95,-158.22C248.27,-148.44 251.12,-136.46 253.65,-125.77"/>
<polygon fill="black" stroke="black" points="256.99,-126.85 255.9,-116.32 250.18,-125.24 256.99,-126.85"/>
</g>
<!-- n_1 -->
<g id="node5" class="node">
<title>n_1</title>
<polygon fill="none" stroke="black" points="9,-5.38 9,-30.62 99.5,-30.62 99.5,-5.38 9,-5.38"/>
<text text-anchor="start" x="16" y="-16.07" font-family="Times New Roman,serif" font-weight="bold" font-size="9.00">building (non float)</text>
<polygon fill="none" stroke="black" points="8,-4.38 8,-31.62 100.5,-31.62 100.5,-4.38 8,-4.38"/>
</g>
<!-- n_1_5&#45;&gt;n_1 -->
<g id="edge4" class="edge">
<title>n_1_5&#45;&gt;n_1</title>
<path fill="none" stroke="black" d="M101.23,-79.29C93.42,-69.27 83.32,-56.31 74.49,-44.98"/>
<polygon fill="black" stroke="black" points="77.29,-42.87 68.38,-37.14 71.77,-47.17 77.29,-42.87"/>
</g>
<!-- n_5 -->
<g id="node6" class="node">
<title>n_5</title>
<polygon fill="none" stroke="black" points="146.25,-5.38 146.25,-30.62 202.25,-30.62 202.25,-5.38 146.25,-5.38"/>
<text text-anchor="start" x="153.25" y="-16.07" font-family="Times New Roman,serif" font-weight="bold" font-size="9.00">headlamps</text>
<polygon fill="none" stroke="black" points="145.25,-4.38 145.25,-31.62 203.25,-31.62 203.25,-4.38 145.25,-4.38"/>
</g>
<!-- n_1_5&#45;&gt;n_5 -->
<g id="edge5" class="edge">
<title>n_1_5&#45;&gt;n_5</title>
<path fill="none" stroke="black" d="M127.27,-79.29C135.08,-69.27 145.18,-56.31 154.01,-44.98"/>
<polygon fill="black" stroke="black" points="156.73,-47.17 160.12,-37.14 151.21,-42.87 156.73,-47.17"/>
</g>
<!-- n_2 -->
<g id="node9" class="node">
<title>n_2</title>
<polygon fill="none" stroke="black" points="369.62,-84.38 369.62,-109.62 454.88,-109.62 454.88,-84.38 369.62,-84.38"/>
<text text-anchor="start" x="376.62" y="-95.08" font-family="Times New Roman,serif" font-weight="bold" font-size="9.00">vehicle (non float)</text>
<polygon fill="none" stroke="black" points="368.62,-83.38 368.62,-110.62 455.88,-110.62 455.88,-83.38 368.62,-83.38"/>
</g>
<!-- n_2_3&#45;&gt;n_2 -->
<g id="edge8" class="edge">
<title>n_2_3&#45;&gt;n_2</title>
<path fill="none" stroke="black" d="M426.43,-161.03C424.14,-150.85 421.17,-137.65 418.54,-125.96"/>
<polygon fill="black" stroke="black" points="422,-125.41 416.39,-116.42 415.17,-126.94 422,-125.41"/>
</g>
<!-- n_3 -->
<g id="node10" class="node">
<title>n_3</title>
<polygon fill="none" stroke="black" points="501.62,-84.38 501.62,-109.62 556.88,-109.62 556.88,-84.38 501.62,-84.38"/>
<text text-anchor="start" x="508.62" y="-95.08" font-family="Times New Roman,serif" font-weight="bold" font-size="9.00">containers</text>
<polygon fill="none" stroke="black" points="500.62,-83.38 500.62,-110.62 557.88,-110.62 557.88,-83.38 500.62,-83.38"/>
</g>
<!-- n_2_3&#45;&gt;n_3 -->
<g id="edge9" class="edge">
<title>n_2_3&#45;&gt;n_3</title>
<path fill="none" stroke="black" d="M451.25,-161.03C465.29,-149.69 483.98,-134.58 499.54,-122.01"/>
<polygon fill="black" stroke="black" points="501.53,-124.9 507.11,-115.89 497.13,-119.46 501.53,-124.9"/>
</g>
</g>
</svg>
