<?xml version="1.0" encoding="UTF-8" standalone="no"?>
<!DOCTYPE svg PUBLIC "-//W3C//DTD SVG 1.1//EN"
 "http://www.w3.org/Graphics/SVG/1.1/DTD/svg11.dtd">
<!-- Generated by graphviz version 10.0.1 (20240210.2158)
 -->
<!-- Title: ND Pages: 1 -->
<svg width="550pt" height="517pt"
 viewBox="0.00 0.00 550.25 517.00" xmlns="http://www.w3.org/2000/svg" xmlns:xlink="http://www.w3.org/1999/xlink">
<g id="graph0" class="graph" transform="scale(1 1) rotate(0) translate(4 513)">
<title>ND</title>
<polygon fill="white" stroke="none" points="-4,4 -4,-513 546.25,-513 546.25,4 -4,4"/>
<!-- n_0_1_2_3_4_5 -->
<g id="node1" class="node">
<title>n_0_1_2_3_4_5</title>
<polygon fill="none" stroke="black" points="353.75,-445 353.75,-504 444.25,-504 444.25,-445 353.75,-445"/>
<text text-anchor="start" x="369.38" y="-489.45" font-family="Times New Roman,serif" font-weight="bold" font-size="9.00">building (float)</text>
<text text-anchor="start" x="360.75" y="-480.45" font-family="Times New Roman,serif" font-weight="bold" font-size="9.00">building (non float)</text>
<text text-anchor="start" x="363.38" y="-471.45" font-family="Times New Roman,serif" font-weight="bold" font-size="9.00">vehicle (non float)</text>
<text text-anchor="start" x="379.88" y="-462.45" font-family="Times New Roman,serif" font-weight="bold" font-size="9.00">tableware</text>
<text text-anchor="start" x="378" y="-453.45" font-family="Times New Roman,serif" font-weight="bold" font-size="9.00">headlamps</text>
<polygon fill="none" stroke="black" points="444.25,-445 444.25,-504 499.5,-504 499.5,-445 444.25,-445"/>
<text text-anchor="start" x="451.25" y="-472.57" font-family="Times New Roman,serif" font-weight="bold" font-size="9.00">containers</text>
<polygon fill="none" stroke="black" points="352.75,-444 352.75,-505 500.5,-505 500.5,-444 352.75,-444"/>
</g>
<!-- n_0_1_2_4_5 -->
<g id="node2" class="node">
<title>n_0_1_2_4_5</title>
<polygon fill="none" stroke="black" points="266.75,-342 266.75,-392 357.25,-392 357.25,-342 266.75,-342"/>
<text text-anchor="start" x="273.75" y="-377.45" font-family="Times New Roman,serif" font-weight="bold" font-size="9.00">building (non float)</text>
<text text-anchor="start" x="276.38" y="-368.45" font-family="Times New Roman,serif" font-weight="bold" font-size="9.00">vehicle (non float)</text>
<text text-anchor="start" x="292.88" y="-359.45" font-family="Times New Roman,serif" font-weight="bold" font-size="9.00">tableware</text>
<text text-anchor="start" x="291" y="-350.45" font-family="Times New Roman,serif" font-weight="bold" font-size="9.00">headlamps</text>
<polygon fill="none" stroke="black" points="357.25,-342 357.25,-392 430.5,-392 430.5,-342 357.25,-342"/>
<text text-anchor="start" x="364.25" y="-365.07" font-family="Times New Roman,serif" font-weight="bold" font-size="9.00">building (float)</text>
<polygon fill="none" stroke="black" points="265.75,-341 265.75,-393 431.5,-393 431.5,-341 265.75,-341"/>
</g>
<!-- n_0_1_2_3_4_5&#45;&gt;n_0_1_2_4_5 -->
<g id="edge1" class="edge">
<title>n_0_1_2_3_4_5&#45;&gt;n_0_1_2_4_5</title>
<path fill="none" stroke="black" d="M401.95,-440.12C393.93,-429.27 384.97,-417.16 376.72,-406"/>
<polygon fill="black" stroke="black" points="379.65,-404.08 370.89,-398.12 374.02,-408.24 379.65,-404.08"/>
</g>
<!-- n_3 -->
<g id="node11" class="node">
<title>n_3</title>
<polygon fill="none" stroke="black" points="478,-354.38 478,-379.62 533.25,-379.62 533.25,-354.38 478,-354.38"/>
<text text-anchor="start" x="485" y="-365.07" font-family="Times New Roman,serif" font-weight="bold" font-size="9.00">containers</text>
<polygon fill="none" stroke="black" points="477,-353.38 477,-380.62 534.25,-380.62 534.25,-353.38 477,-353.38"/>
</g>
<!-- n_0_1_2_3_4_5&#45;&gt;n_3 -->
<g id="edge10" class="edge">
<title>n_0_1_2_3_4_5&#45;&gt;n_3</title>
<path fill="none" stroke="black" d="M451.62,-440.12C462.79,-425.21 475.75,-407.9 486.17,-393.98"/>
<polygon fill="black" stroke="black" points="488.83,-396.26 492.03,-386.16 483.23,-392.07 488.83,-396.26"/>
</g>
<!-- n_1_2_4_5 -->
<g id="node3" class="node">
<title>n_1_2_4_5</title>
<polygon fill="none" stroke="black" points="200.25,-248 200.25,-289 290.75,-289 290.75,-248 200.25,-248"/>
<text text-anchor="start" x="207.25" y="-274.45" font-family="Times New Roman,serif" font-weight="bold" font-size="9.00">building (non float)</text>
<text text-anchor="start" x="209.88" y="-265.45" font-family="Times New Roman,serif" font-weight="bold" font-size="9.00">vehicle (non float)</text>
<text text-anchor="start" x="224.5" y="-256.45" font-family="Times New Roman,serif" font-weight="bold" font-size="9.00">headlamps</text>
<polygon fill="none" stroke="black" points="290.75,-248 290.75,-289 343,-289 343,-248 290.75,-248"/>
<text text-anchor="start" x="297.75" y="-266.57" font-family="Times New Roman,serif" font-weight="bold" font-size="9.00">tableware</text>
<polygon fill="none" stroke="black" points="199.25,-247 199.25,-290 344,-290 344,-247 199.25,-247"/>
</g>
<!-- n_0_1_2_4_5&#45;&gt;n_1_2_4_5 -->
<g id="edge2" class="edge">
<title>n_0_1_2_4_5&#45;&gt;n_1_2_4_5</title>
<path fill="none" stroke="black" d="M325.52,-337.05C316.85,-326.18 306.94,-313.76 298,-302.55"/>
<polygon fill="black" stroke="black" points="300.99,-300.69 292.02,-295.06 295.52,-305.06 300.99,-300.69"/>
</g>
<!-- n_0 -->
<g id="node10" class="node">
<title>n_0</title>
<polygon fill="none" stroke="black" points="390,-255.88 390,-281.12 463.25,-281.12 463.25,-255.88 390,-255.88"/>
<text text-anchor="start" x="397" y="-266.57" font-family="Times New Roman,serif" font-weight="bold" font-size="9.00">building (float)</text>
<polygon fill="none" stroke="black" points="389,-254.88 389,-282.12 464.25,-282.12 464.25,-254.88 389,-254.88"/>
</g>
<!-- n_0_1_2_4_5&#45;&gt;n_0 -->
<g id="edge9" class="edge">
<title>n_0_1_2_4_5&#45;&gt;n_0</title>
<path fill="none" stroke="black" d="M372.03,-337.05C382.79,-323.73 395.45,-308.07 405.86,-295.19"/>
<polygon fill="black" stroke="black" points="408.48,-297.52 412.04,-287.54 403.03,-293.12 408.48,-297.52"/>
</g>
<!-- n_1_2_5 -->
<g id="node4" class="node">
<title>n_1_2_5</title>
<polygon fill="none" stroke="black" points="103.75,-163 103.75,-195 189,-195 189,-163 103.75,-163"/>
<text text-anchor="start" x="110.75" y="-180.45" font-family="Times New Roman,serif" font-weight="bold" font-size="9.00">vehicle (non float)</text>
<text text-anchor="start" x="125.38" y="-171.45" font-family="Times New Roman,serif" font-weight="bold" font-size="9.00">headlamps</text>
<polygon fill="none" stroke="black" points="189,-163 189,-195 279.5,-195 279.5,-163 189,-163"/>
<text text-anchor="start" x="196" y="-177.07" font-family="Times New Roman,serif" font-weight="bold" font-size="9.00">building (non float)</text>
<polygon fill="none" stroke="black" points="102.75,-162 102.75,-196 280.5,-196 280.5,-162 102.75,-162"/>
</g>
<!-- n_1_2_4_5&#45;&gt;n_1_2_5 -->
<g id="edge3" class="edge">
<title>n_1_2_4_5&#45;&gt;n_1_2_5</title>
<path fill="none" stroke="black" d="M249.34,-243.13C239.39,-232.25 227.61,-219.36 217.3,-208.08"/>
<polygon fill="black" stroke="black" points="220.1,-205.96 210.77,-200.94 214.94,-210.69 220.1,-205.96"/>
</g>
<!-- n_4 -->
<g id="node9" class="node">
<title>n_4</title>
<polygon fill="none" stroke="black" points="326.5,-166.38 326.5,-191.62 378.75,-191.62 378.75,-166.38 326.5,-166.38"/>
<text text-anchor="start" x="333.5" y="-177.07" font-family="Times New Roman,serif" font-weight="bold" font-size="9.00">tableware</text>
<polygon fill="none" stroke="black" points="325.5,-165.38 325.5,-192.62 379.75,-192.62 379.75,-165.38 325.5,-165.38"/>
</g>
<!-- n_1_2_4_5&#45;&gt;n_4 -->
<g id="edge8" class="edge">
<title>n_1_2_4_5&#45;&gt;n_4</title>
<path fill="none" stroke="black" d="M294.19,-243.13C305.19,-231.24 318.4,-216.97 329.47,-205.01"/>
<polygon fill="black" stroke="black" points="331.85,-207.6 336.07,-197.88 326.71,-202.84 331.85,-207.6"/>
</g>
<!-- n_2_5 -->
<g id="node5" class="node">
<title>n_2_5</title>
<polygon fill="none" stroke="black" points="40,-84.38 40,-109.62 125.25,-109.62 125.25,-84.38 40,-84.38"/>
<text text-anchor="start" x="47" y="-95.08" font-family="Times New Roman,serif" font-weight="bold" font-size="9.00">vehicle (non float)</text>
<polygon fill="none" stroke="black" points="125.25,-84.38 125.25,-109.62 181.25,-109.62 181.25,-84.38 125.25,-84.38"/>
<text text-anchor="start" x="132.25" y="-95.08" font-family="Times New Roman,serif" font-weight="bold" font-size="9.00">headlamps</text>
<polygon fill="none" stroke="black" points="39,-83.38 39,-110.62 182.25,-110.62 182.25,-83.38 39,-83.38"/>
</g>
<!-- n_1_2_5&#45;&gt;n_2_5 -->
<g id="edge4" class="edge">
<title>n_1_2_5&#45;&gt;n_2_5</title>
<path fill="none" stroke="black" d="M171.6,-158.22C160.75,-147.5 147.22,-134.15 135.67,-122.74"/>
<polygon fill="black" stroke="black" points="138.33,-120.44 128.76,-115.91 133.41,-125.42 138.33,-120.44"/>
</g>
<!-- n_1 -->
<g id="node8" class="node">
<title>n_1</title>
<polygon fill="none" stroke="black" points="228.38,-84.38 228.38,-109.62 318.88,-109.62 318.88,-84.38 228.38,-84.38"/>
<text text-anchor="start" x="235.38" y="-95.08" font-family="Times New Roman,serif" font-weight="bold" font-size="9.00">building (non float)</text>
<polygon fill="none" stroke="black" points="227.38,-83.38 227.38,-110.62 319.88,-110.62 319.88,-83.38 227.38,-83.38"/>
</g>
<!-- n_1_2_5&#45;&gt;n_1 -->
<g id="edge7" class="edge">
<title>n_1_2_5&#45;&gt;n_1</title>
<path fill="none" stroke="black" d="M211.89,-158.22C222.89,-147.5 236.57,-134.15 248.27,-122.74"/>
<polygon fill="black" stroke="black" points="250.56,-125.39 255.28,-115.9 245.67,-120.38 250.56,-125.39"/>
</g>
<!-- n_2 -->
<g id="node6" class="node">
<title>n_2</title>
<polygon fill="none" stroke="black" points="9,-5.38 9,-30.62 94.25,-30.62 94.25,-5.38 9,-5.38"/>
<text text-anchor="start" x="16" y="-16.07" font-family="Times New Roman,serif" font-weight="bold" font-size="9.00">vehicle (non float)</text>
<polygon fill="none" stroke="black" points="8,-4.38 8,-31.62 95.25,-31.62 95.25,-4.38 8,-4.38"/>
</g>
<!-- n_2_5&#45;&gt;n_2 -->
<g id="edge5" class="edge">
<title>n_2_5&#45;&gt;n_2</title>
<path fill="none" stroke="black" d="M97.82,-79.29C90.14,-69.27 80.22,-56.31 71.53,-44.98"/>
<polygon fill="black" stroke="black" points="74.39,-42.95 65.53,-37.14 68.83,-47.21 74.39,-42.95"/>
</g>
<!-- n_5 -->
<g id="node7" class="node">
<title>n_5</title>
<polygon fill="none" stroke="black" points="141.62,-5.38 141.62,-30.62 197.62,-30.62 197.62,-5.38 141.62,-5.38"/>
<text text-anchor="start" x="148.62" y="-16.07" font-family="Times New Roman,serif" font-weight="bold" font-size="9.00">headlamps</text>
<polygon fill="none" stroke="black" points="140.62,-4.38 140.62,-31.62 198.62,-31.62 198.62,-4.38 140.62,-4.38"/>
</g>
<!-- n_2_5&#45;&gt;n_5 -->
<g id="edge6" class="edge">
<title>n_2_5&#45;&gt;n_5</title>
<path fill="none" stroke="black" d="M123.43,-79.29C131.11,-69.27 141.03,-56.31 149.72,-44.98"/>
<polygon fill="black" stroke="black" points="152.42,-47.21 155.72,-37.14 146.86,-42.95 152.42,-47.21"/>
</g>
</g>
</svg>
