<?xml version="1.0" encoding="UTF-8" standalone="no"?>
<!DOCTYPE svg PUBLIC "-//W3C//DTD SVG 1.1//EN"
 "http://www.w3.org/Graphics/SVG/1.1/DTD/svg11.dtd">
<!-- Generated by graphviz version 10.0.1 (20240210.2158)
 -->
<!-- Title: ND Pages: 1 -->
<svg width="549pt" height="423pt"
 viewBox="0.00 0.00 548.88 423.00" xmlns="http://www.w3.org/2000/svg" xmlns:xlink="http://www.w3.org/1999/xlink">
<g id="graph0" class="graph" transform="scale(1 1) rotate(0) translate(4 419)">
<title>ND</title>
<polygon fill="white" stroke="none" points="-4,4 -4,-419 544.88,-419 544.88,4 -4,4"/>
<!-- n_0_1_2_3_4_5 -->
<g id="node1" class="node">
<title>n_0_1_2_3_4_5</title>
<polygon fill="none" stroke="black" points="327.38,-351 327.38,-410 417.88,-410 417.88,-351 327.38,-351"/>
<text text-anchor="start" x="334.38" y="-395.45" font-family="Times New Roman,serif" font-weight="bold" font-size="9.00">building (non float)</text>
<text text-anchor="start" x="337" y="-386.45" font-family="Times New Roman,serif" font-weight="bold" font-size="9.00">vehicle (non float)</text>
<text text-anchor="start" x="352" y="-377.45" font-family="Times New Roman,serif" font-weight="bold" font-size="9.00">containers</text>
<text text-anchor="start" x="353.5" y="-368.45" font-family="Times New Roman,serif" font-weight="bold" font-size="9.00">tableware</text>
<text text-anchor="start" x="351.62" y="-359.45" font-family="Times New Roman,serif" font-weight="bold" font-size="9.00">headlamps</text>
<polygon fill="none" stroke="black" points="417.88,-351 417.88,-410 491.12,-410 491.12,-351 417.88,-351"/>
<text text-anchor="start" x="424.88" y="-378.57" font-family="Times New Roman,serif" font-weight="bold" font-size="9.00">building (float)</text>
<polygon fill="none" stroke="black" points="326.38,-350 326.38,-411 492.12,-411 492.12,-350 326.38,-350"/>
</g>
<!-- n_1_2_3_4_5 -->
<g id="node2" class="node">
<title>n_1_2_3_4_5</title>
<polygon fill="none" stroke="black" points="235.38,-248 235.38,-298 325.88,-298 325.88,-248 235.38,-248"/>
<text text-anchor="start" x="242.38" y="-283.45" font-family="Times New Roman,serif" font-weight="bold" font-size="9.00">building (non float)</text>
<text text-anchor="start" x="260" y="-274.45" font-family="Times New Roman,serif" font-weight="bold" font-size="9.00">containers</text>
<text text-anchor="start" x="261.5" y="-265.45" font-family="Times New Roman,serif" font-weight="bold" font-size="9.00">tableware</text>
<text text-anchor="start" x="259.62" y="-256.45" font-family="Times New Roman,serif" font-weight="bold" font-size="9.00">headlamps</text>
<polygon fill="none" stroke="black" points="325.88,-248 325.88,-298 411.12,-298 411.12,-248 325.88,-248"/>
<text text-anchor="start" x="332.88" y="-271.07" font-family="Times New Roman,serif" font-weight="bold" font-size="9.00">vehicle (non float)</text>
<polygon fill="none" stroke="black" points="234.38,-247 234.38,-299 412.12,-299 412.12,-247 234.38,-247"/>
</g>
<!-- n_0_1_2_3_4_5&#45;&gt;n_1_2_3_4_5 -->
<g id="edge1" class="edge">
<title>n_0_1_2_3_4_5&#45;&gt;n_1_2_3_4_5</title>
<path fill="none" stroke="black" d="M382.04,-346.12C373.11,-335.16 363.12,-322.91 353.95,-311.66"/>
<polygon fill="black" stroke="black" points="356.79,-309.61 347.76,-304.07 351.37,-314.03 356.79,-309.61"/>
</g>
<!-- n_0 -->
<g id="node11" class="node">
<title>n_0</title>
<polygon fill="none" stroke="black" points="458.62,-260.38 458.62,-285.62 531.88,-285.62 531.88,-260.38 458.62,-260.38"/>
<text text-anchor="start" x="465.62" y="-271.07" font-family="Times New Roman,serif" font-weight="bold" font-size="9.00">building (float)</text>
<polygon fill="none" stroke="black" points="457.62,-259.38 457.62,-286.62 532.88,-286.62 532.88,-259.38 457.62,-259.38"/>
</g>
<!-- n_0_1_2_3_4_5&#45;&gt;n_0 -->
<g id="edge10" class="edge">
<title>n_0_1_2_3_4_5&#45;&gt;n_0</title>
<path fill="none" stroke="black" d="M436.46,-346.12C448.73,-331.06 463,-313.57 474.4,-299.58"/>
<polygon fill="black" stroke="black" points="476.87,-302.09 480.48,-292.12 471.45,-297.66 476.87,-302.09"/>
</g>
<!-- n_1_3_4_5 -->
<g id="node3" class="node">
<title>n_1_3_4_5</title>
<polygon fill="none" stroke="black" points="169,-163 169,-195 259.5,-195 259.5,-163 169,-163"/>
<text text-anchor="start" x="176" y="-180.45" font-family="Times New Roman,serif" font-weight="bold" font-size="9.00">building (non float)</text>
<text text-anchor="start" x="193.62" y="-171.45" font-family="Times New Roman,serif" font-weight="bold" font-size="9.00">containers</text>
<polygon fill="none" stroke="black" points="259.5,-163 259.5,-195 315.5,-195 315.5,-163 259.5,-163"/>
<text text-anchor="start" x="268.38" y="-180.45" font-family="Times New Roman,serif" font-weight="bold" font-size="9.00">tableware</text>
<text text-anchor="start" x="266.5" y="-171.45" font-family="Times New Roman,serif" font-weight="bold" font-size="9.00">headlamps</text>
<polygon fill="none" stroke="black" points="168,-162 168,-196 316.5,-196 316.5,-162 168,-162"/>
</g>
<!-- n_1_2_3_4_5&#45;&gt;n_1_3_4_5 -->
<g id="edge2" class="edge">
<title>n_1_2_3_4_5&#45;&gt;n_1_3_4_5</title>
<path fill="none" stroke="black" d="M297.84,-243.14C288.03,-232 276.84,-219.29 267.09,-208.21"/>
<polygon fill="black" stroke="black" points="269.86,-206.06 260.62,-200.87 264.6,-210.69 269.86,-206.06"/>
</g>
<!-- n_2 -->
<g id="node10" class="node">
<title>n_2</title>
<polygon fill="none" stroke="black" points="362.62,-166.38 362.62,-191.62 447.88,-191.62 447.88,-166.38 362.62,-166.38"/>
<text text-anchor="start" x="369.62" y="-177.07" font-family="Times New Roman,serif" font-weight="bold" font-size="9.00">vehicle (non float)</text>
<polygon fill="none" stroke="black" points="361.62,-165.38 361.62,-192.62 448.88,-192.62 448.88,-165.38 361.62,-165.38"/>
</g>
<!-- n_1_2_3_4_5&#45;&gt;n_2 -->
<g id="edge9" class="edge">
<title>n_1_2_3_4_5&#45;&gt;n_2</title>
<path fill="none" stroke="black" d="M348.97,-243.14C359.75,-231.05 372.17,-217.11 382.6,-205.41"/>
<polygon fill="black" stroke="black" points="385.08,-207.89 389.12,-198.1 379.85,-203.23 385.08,-207.89"/>
</g>
<!-- n_1_3 -->
<g id="node4" class="node">
<title>n_1_3</title>
<polygon fill="none" stroke="black" points="82.38,-84.38 82.38,-109.62 172.88,-109.62 172.88,-84.38 82.38,-84.38"/>
<text text-anchor="start" x="89.38" y="-95.08" font-family="Times New Roman,serif" font-weight="bold" font-size="9.00">building (non float)</text>
<polygon fill="none" stroke="black" points="172.88,-84.38 172.88,-109.62 228.12,-109.62 228.12,-84.38 172.88,-84.38"/>
<text text-anchor="start" x="179.88" y="-95.08" font-family="Times New Roman,serif" font-weight="bold" font-size="9.00">containers</text>
<polygon fill="none" stroke="black" points="81.38,-83.38 81.38,-110.62 229.12,-110.62 229.12,-83.38 81.38,-83.38"/>
</g>
<!-- n_1_3_4_5&#45;&gt;n_1_3 -->
<g id="edge3" class="edge">
<title>n_1_3_4_5&#45;&gt;n_1_3</title>
<path fill="none" stroke="black" d="M220.74,-158.22C208.97,-147.4 194.28,-133.89 181.79,-122.41"/>
<polygon fill="black" stroke="black" points="184.41,-120.06 174.68,-115.87 179.67,-125.21 184.41,-120.06"/>
</g>
<!-- n_4_5 -->
<g id="node7" class="node">
<title>n_4_5</title>
<polygon fill="none" stroke="black" points="275.12,-84.38 275.12,-109.62 327.38,-109.62 327.38,-84.38 275.12,-84.38"/>
<text text-anchor="start" x="282.12" y="-95.08" font-family="Times New Roman,serif" font-weight="bold" font-size="9.00">tableware</text>
<polygon fill="none" stroke="black" points="327.38,-84.38 327.38,-109.62 383.38,-109.62 383.38,-84.38 327.38,-84.38"/>
<text text-anchor="start" x="334.38" y="-95.08" font-family="Times New Roman,serif" font-weight="bold" font-size="9.00">headlamps</text>
<polygon fill="none" stroke="black" points="274.12,-83.38 274.12,-110.62 384.38,-110.62 384.38,-83.38 274.12,-83.38"/>
</g>
<!-- n_1_3_4_5&#45;&gt;n_4_5 -->
<g id="edge6" class="edge">
<title>n_1_3_4_5&#45;&gt;n_4_5</title>
<path fill="none" stroke="black" d="M263.76,-158.22C275.53,-147.4 290.22,-133.89 302.71,-122.41"/>
<polygon fill="black" stroke="black" points="304.83,-125.21 309.82,-115.87 300.09,-120.06 304.83,-125.21"/>
</g>
<!-- n_1 -->
<g id="node5" class="node">
<title>n_1</title>
<polygon fill="none" stroke="black" points="9,-5.38 9,-30.62 99.5,-30.62 99.5,-5.38 9,-5.38"/>
<text text-anchor="start" x="16" y="-16.07" font-family="Times New Roman,serif" font-weight="bold" font-size="9.00">building (non float)</text>
<polygon fill="none" stroke="black" points="8,-4.38 8,-31.62 100.5,-31.62 100.5,-4.38 8,-4.38"/>
</g>
<!-- n_1_3&#45;&gt;n_1 -->
<g id="edge4" class="edge">
<title>n_1_3&#45;&gt;n_1</title>
<path fill="none" stroke="black" d="M133.33,-79.29C119.27,-68.57 100.79,-54.48 85.24,-42.62"/>
<polygon fill="black" stroke="black" points="87.75,-40.14 77.68,-36.86 83.51,-45.71 87.75,-40.14"/>
</g>
<!-- n_3 -->
<g id="node6" class="node">
<title>n_3</title>
<polygon fill="none" stroke="black" points="146.62,-5.38 146.62,-30.62 201.88,-30.62 201.88,-5.38 146.62,-5.38"/>
<text text-anchor="start" x="153.62" y="-16.07" font-family="Times New Roman,serif" font-weight="bold" font-size="9.00">containers</text>
<polygon fill="none" stroke="black" points="145.62,-4.38 145.62,-31.62 202.88,-31.62 202.88,-4.38 145.62,-4.38"/>
</g>
<!-- n_1_3&#45;&gt;n_3 -->
<g id="edge5" class="edge">
<title>n_1_3&#45;&gt;n_3</title>
<path fill="none" stroke="black" d="M159.37,-79.29C161.7,-69.87 164.66,-57.86 167.33,-47.04"/>
<polygon fill="black" stroke="black" points="170.71,-47.96 169.71,-37.41 163.91,-46.28 170.71,-47.96"/>
</g>
<!-- n_4 -->
<g id="node8" class="node">
<title>n_4</title>
<polygon fill="none" stroke="black" points="285.12,-5.38 285.12,-30.62 337.38,-30.62 337.38,-5.38 285.12,-5.38"/>
<text text-anchor="start" x="292.12" y="-16.07" font-family="Times New Roman,serif" font-weight="bold" font-size="9.00">tableware</text>
<polygon fill="none" stroke="black" points="284.12,-4.38 284.12,-31.62 338.38,-31.62 338.38,-4.38 284.12,-4.38"/>
</g>
<!-- n_4_5&#45;&gt;n_4 -->
<g id="edge7" class="edge">
<title>n_4_5&#45;&gt;n_4</title>
<path fill="none" stroke="black" d="M325.34,-79.29C323.14,-69.87 320.33,-57.86 317.8,-47.04"/>
<polygon fill="black" stroke="black" points="321.24,-46.36 315.55,-37.41 314.42,-47.95 321.24,-46.36"/>
</g>
<!-- n_5 -->
<g id="node9" class="node">
<title>n_5</title>
<polygon fill="none" stroke="black" points="384.25,-5.38 384.25,-30.62 440.25,-30.62 440.25,-5.38 384.25,-5.38"/>
<text text-anchor="start" x="391.25" y="-16.07" font-family="Times New Roman,serif" font-weight="bold" font-size="9.00">headlamps</text>
<polygon fill="none" stroke="black" points="383.25,-4.38 383.25,-31.62 441.25,-31.62 441.25,-4.38 383.25,-4.38"/>
</g>
<!-- n_4_5&#45;&gt;n_5 -->
<g id="edge8" class="edge">
<title>n_4_5&#45;&gt;n_5</title>
<path fill="none" stroke="black" d="M347.26,-79.29C358.49,-68.87 373.15,-55.27 385.7,-43.63"/>
<polygon fill="black" stroke="black" points="387.93,-46.34 392.88,-36.97 383.17,-41.21 387.93,-46.34"/>
</g>
</g>
</svg>
